<?xml version="1.0"?>
<Project_Data Version="8.00">
<Project_Settings>
<ProfileName></ProfileName>
<ProjectWidth>1404</ProjectWidth>
<ProjectHeight>720</ProjectHeight>
<IsCustomProject>1</IsCustomProject>
<SavedProjectSettings>1</SavedProjectSettings>
<LastFlashTemplate>-1</LastFlashTemplate>
</Project_Settings>


<AutoSaveFile>C:\Users\Junaid\AppData\Local\TechSmith\Camtasia Studio\8.0\Auto-Saves\nodemcuspark1f2ac41c.autosave.camproj</AutoSaveFile>

<ProjectID>F3666007-2E93-4894-AE8A-CF7C91BD4ECB</ProjectID>

<PowerPointProject>0</PowerPointProject>

<PowerPointFilename></PowerPointFilename>


<Project_Notes>
</Project_Notes>

<Project_MetaData>
<Project_MetaData_Object>
<FieldArrayKey>8</FieldArrayKey>
<Value>nodemcuspark</Value>
</Project_MetaData_Object>
<Project_MetaData_Object>
<FieldArrayKey>13</FieldArrayKey>
<Value>2016-01-21 01:05:07 AM</Value>
</Project_MetaData_Object>
<Project_MetaData_Object>
<FieldArrayKey>16</FieldArrayKey>
<Value>ENU</Value>
</Project_MetaData_Object>
</Project_MetaData>

<CSMLData>
<GoProject id="1" version="3.0" >
 <Project id="2" editRate="30/1" version="3.0" >
  <Author></Author>
  <Comment></Comment>
  <System></System>
  <SourceBin id="3"  >
    <Source id="4" src="C:\Users\Junaid\Desktop\IOT RECO\nodemcuspark.trec" lastMod="20160120T193436" rect="(0,0,1920,984)" >
      <SourceTrack range="(0,14850)" type="0" editRate="30/1" trackRect="(0,0,1920,984)" sampleRate="0/1" bitDepth="0" numChannels="0" filename="nodemcuspark.trec!Strack0.tsc2" metaData="nodemcuspark.trec;" />
      <SourceTrack range="(0,14847000)" type="0" editRate="30000/1" trackRect="(0,0,640,480)" sampleRate="0/1" bitDepth="0" numChannels="0" filename="nodemcuspark.trec!Cvideo1.mp4" metaData="" />
      <SourceTrack range="(0,21820416)" type="2" editRate="44100/1" trackRect="(0,0,0,0)" sampleRate="44100/1" bitDepth="16" numChannels="2" filename="nodemcuspark.trec!Maudio2.mp4" metaData="" />
    </Source>
  </SourceBin>
  <Timeline id="5"  >
   <Attributes>
    <Attribute id="6" value="1404" name="width"/>
    <Attribute id="7" value="720" name="height"/>
    <Attribute id="8" value="(0,0,0,255)" name="backgroundColor"/>
   </Attributes>
    <GenericMixer id="9"  name="Unified Mixer">
     <MetaData>
      <entry key="MixerType" val="TimelineMixer"/>
     </MetaData>
     <Tracks>
      <GenericTrack id="10"  >
       <Attributes>
        <Attribute id="11" value="" name="ident"/>
        <Attribute id="12" value="0" name="audioMuted"/>
        <Attribute id="13" value="0" name="videoHidden"/>
       </Attributes>
       <MetaData>
        <entry key="IsLocked" val="False"/>
        <entry key="WinTrackHeight" val="62"/>
       </MetaData>
       <Medias>
        <StitchedMedia id="14" start="0" duration="1318" scalar="1/1" mediaStart="55/1" mediaDuration="1318/1" minMediaStart="0/1" >
         <Transformer>
          <VectorParam id="15"  name="translation">
           <InterpolatingParam id="16" interp="linr"  time="-9999999/1" value="622" leadInLength="0/1"  interpolater="leadin-linr"  />
           <InterpolatingParam id="17" interp="linr"  time="-9999999/1" value="-300" leadInLength="0/1"  interpolater="leadin-linr"  />
           <InterpolatingParam id="18" interp="linr"  time="-9999999/1" value="0" leadInLength="0/1"  interpolater="leadin-linr"  />
          </VectorParam>
          <VectorParam id="19"  name="rotation">
           <InterpolatingParam id="20" interp="linr"  time="-9999999/1" value="0" leadInLength="0/1"  interpolater="leadin-linr"  />
           <InterpolatingParam id="21" interp="linr"  time="-9999999/1" value="0" leadInLength="0/1"  interpolater="leadin-linr"  />
           <InterpolatingParam id="22" interp="linr"  time="-9999999/1" value="0" leadInLength="0/1"  interpolater="leadin-linr"  />
          </VectorParam>
          <VectorParam id="23"  name="shear">
           <InterpolatingParam id="24" interp="linr"  time="-9999999/1" value="0" leadInLength="0/1"  interpolater="leadin-linr"  />
           <InterpolatingParam id="25" interp="linr"  time="-9999999/1" value="0" leadInLength="0/1"  interpolater="leadin-linr"  />
           <InterpolatingParam id="26" interp="linr"  time="-9999999/1" value="0" leadInLength="0/1"  interpolater="leadin-linr"  />
          </VectorParam>
          <VectorParam id="27"  name="scale">
           <InterpolatingParam id="28" interp="linr"  time="-9999999/1" value="0.25" leadInLength="0/1"  interpolater="leadin-linr"  />
           <InterpolatingParam id="29" interp="linr"  time="-9999999/1" value="0.25" leadInLength="0/1"  interpolater="leadin-linr"  />
           <InterpolatingParam id="30" interp="linr"  time="-9999999/1" value="1" leadInLength="0/1"  interpolater="leadin-linr"  />
          </VectorParam>
          <VectorParam id="31"  name="anchor">
           <InterpolatingParam id="32" interp="linr"  time="0/1" value="0" leadInLength="0/1"  />
           <InterpolatingParam id="33" interp="linr"  time="0/1" value="0" leadInLength="0/1"  />
           <InterpolatingParam id="34" interp="linr"  time="0/1" value="0" leadInLength="0/1"  />
          </VectorParam>
         </Transformer>
         <Parameters>
          <VectorParam id="35"  name="sourceCrop">
           <InterpolatingParam id="36" interp="linr"  time="0/1" value="0" leadInLength="0/1"  />
           <InterpolatingParam id="37" interp="linr"  time="0/1" value="0" leadInLength="0/1"  />
           <InterpolatingParam id="38" interp="linr"  time="0/1" value="0" leadInLength="0/1"  />
           <InterpolatingParam id="39" interp="linr"  time="0/1" value="0" leadInLength="0/1"  />
          </VectorParam>
          <VectorParam id="40"  name="geometryCrop">
           <InterpolatingParam id="41" interp="linr"  time="-9999999/1" value="0" leadInLength="0/1"  interpolater="leadin-linr"  />
           <InterpolatingParam id="42" interp="linr"  time="-9999999/1" value="0" leadInLength="0/1"  interpolater="leadin-linr"  />
           <InterpolatingParam id="43" interp="linr"  time="-9999999/1" value="0" leadInLength="0/1"  interpolater="leadin-linr"  />
           <InterpolatingParam id="44" interp="linr"  time="-9999999/1" value="0" leadInLength="0/1"  interpolater="leadin-linr"  />
          </VectorParam>
          <InterpolatingParam id="45" interp="linr"  time="-9999999/1" value="1" leadInLength="0/1"  interpolater="leadin-linr"  name="opacity"/>
          <InterpolatingParam id="46" interp="linr"  time="0/1" value="1" leadInLength="0/1"  name="cursorOpacity"/>
          <InterpolatingParam id="47" interp="linr"  time="0/1" value="1" leadInLength="0/1"  name="cursorScale"/>
          <InterpolatingParam id="48" interp="linr"  time="0/1" value="1" leadInLength="0/1"  name="volume"/>
          <Parameter id="49"  name="captions"/>
         </Parameters>
         <Effects>
          <GenericEffect id="50" name = "NoiseReduction" >
           <Parameters>
           <InterpolatingParam id="51" interp="linr"  time="0/1" value="27.599999999999998" leadInLength="0/1"   name="denoiserAmount"/>
           <InterpolatingParam id="52" interp="linr"  time="0/1" value="2.2799999999999994" leadInLength="0/1"   name="denoiserThreshold"/>
           <Parameter id="53"   name="noiseProfile">
            <Keyframes>
            <Keyframe id="54"  time="0/1" value="FBAAAAIAAABErAAAAQIAADowIcKkMhPC3bwnwqbxMMIPKEvCOndNwi6nUMI7TVLCsD1WwtBnUsJ4&#xD;&#xa;mlLC1K1Xwty2XsK8WWLCbz1owkjkacIq5W3Cd0t0woGRcMJuVW3CKgxswnQYasKzMGzCMitvwkeZ&#xD;&#xa;bsIiU23CMSpxwpqdd8I/JXjCb/h7wrKBgMLAioHCVC+CwtvLgcKNxIDCYnmCwrtzhcJ7bobCylqG&#xD;&#xa;wlcnhcJNzITCGFiEwkEgiMJ7bYvC7FiLwsZMisJEL4vCcOqMwlwrkMIpxpDCmLmRwla9k8KAzJHC&#xD;&#xa;vc2RwgdJlMKIbZLCGQeTwhJolcJznpTC2g6XwrcalcIMfJTCHLWWwtFlmMLzG5fCeLeVwn+SlsI9&#xD;&#xa;J5fCYMGcwqCOmMJnjJfCMmGbwvbbm8JEb5vCWLaZwlW9lcI0HZbCs3mbwvCfmcK29ZfCAlWTwiNG&#xD;&#xa;kcJSJ5TCSOyTwrw4kcIGj5DCvAGTwlWom8KhwJ/CP56bwvBzmMLEc5nCamaTwmrFksJsBJvCf82b&#xD;&#xa;wpqImMLe/5jCDUiYwgDXl8LeRpjCLHWZwgTFmsIKWpvChFWcwu9Tm8KJy53CcYmhwtacoMK8CZzC&#xD;&#xa;oCGbwiLPmMImNZnCd06cwli+mcLu8ZjCWnyVwpTmmcLurZnChVOYwsOVl8Lo2pXCS3GUwkEwlcKB&#xD;&#xa;lZTC7/WWwrJim8JaMprCWGSZwuPglsK5FJrCY4yUwrBnksLoaJfCjNOYwkiCmcLm/5TCIsmWwglV&#xD;&#xa;l8IXwpXCgGiUwnbDkMKVMpHCI1aQwtjNk8KXKZTCeKyTwiWPksJU/JTCdlKYwmZel8Ly9JLC1cKQ&#xD;&#xa;wlVGk8J0qZTCDEGUwnlQlcK9xZjCN6SVwrnalcLXoJbCan6Wwq4RlsIhVpbCZACYwmhQlsK6LJjC&#xD;&#xa;KpGXwp2AlsKfzZTCXASUwhdXlMJPY5TC7z+ZwiVjlsI/yJjCu+qdwruTmMJ9OJjCFAWawpxjl8IY&#xD;&#xa;3JbCVkuWwkg/msKcJZ3CbWqgwtXEocK+vJvCaKWZwhbumMKxwZjCEWObwvnlmsLvOZrCjIWWwiLz&#xD;&#xa;kcIc45LCWKqVwvnPl8Lnt5jCLISXwvujmMJDsZPCwPuTwnXgm8IuwZrCb0eZwrXOlcL8rpPCQ9yW&#xD;&#xa;wuRem8LEA57CXdufwtDPoMKbqJ7CpvmfwlqPo8J5xKDCkXafwpSyncLArZ3C1bmgwoDooMKhcaXC&#xD;&#xa;keylwl+NpcIMCKPCAtyhworko8KqrqPC3+Gkwhyqo8IznaPCV6ujwgAgo8J0A6LCGAugwrF0nsJV&#xD;&#xa;Q6DC84ujwjwLpML9y6TCsA+mwsmmp8Lu6qbCjcGlwjk4psLcJaTC7+GlwiOpo8JaX6TCFFuiwqqu&#xD;&#xa;osLkAqPCEICiwvy7nsI+zJ7C03mhwgKiosIAF6HCdIWhwqZBocIImKHCCxKnwikQqcJ9PqLCNuGe&#xD;&#xa;wjk7oMLwvqXCwGygwtRcnsJSFqHCbK6ewvCknsJ+wZ/CPzKcwoBQl8L0SpnCfvuXwv1gl8JTlpzC&#xD;&#xa;Y5efwv1kncLxR5jCk8aZwkb4nMKDgpvC+d+awr9gnsIiEZ/CeRqbwhnXmsIrXpnCb1eZwl6JnMKu&#xD;&#xa;bZ3CCTidwjgknMLiR57Cyzykwm06o8I0yp7CC+ubwmcenMKu6Z7CaDygwvskosKcMKDC9UmiwgUQ&#xD;&#xa;oMKjQJzCsMGewoIFpMJo56HCrFGhwghZo8K6T6TCM6SlwtA8pcIaraTCcV+owjYjqMIJPabC6q6j&#xD;&#xa;wpwmpMK3uaLCNganwiwkqMLEXqnCni6qwvYgqcL+oqnC+IGmwshKpcKSVqjCQQ+lwkv/pMLztabC&#xD;&#xa;+pOlwt64osK0zabCe3OmwgV2pMLuRKjCrf6mwml4p8JEwqvC2g6xwtvir8IOWLHCGrqtwg41qsJv&#xD;&#xa;IqjCThypwtL6rcJ14q3CPjSvwtQFrcKSJKjC6UupwjTlqsJPGazCGhGpwh9Yp8LHOavCQ3Spwlc5&#xD;&#xa;qMIPOKfCalmnwvvFq8Iw2qzCyU+swrfUrsLuOK/CkhqrwoTKqcJCH6nCon+nwnUdqsIjHarCf0mr&#xD;&#xa;wn3eqcK8lavC4leswu/WrMJnfK7CecmxwmQCtMJO9q/CEJ2qwlLurMJYnq7CcO6vws+UsMK/xK/C&#xD;&#xa;mDCxwk1qscLSLK3C3juuwu3bssKc5LbCRze1wgimtMKYG7bC5Fq1wvhDtsK8dbPClfCywnWDtcIZ&#xD;&#xa;37nCFw65wmkQvMJYDrnCskW1wg1LuMLwWrnCRIy3wqyftMKugLjCDMi0whxnssJ6/bXC+HW1wnWk&#xD;&#xa;ssIoYbPCZD22wnafucIA0rnChlm5wllotcKklLXCTCK2wtOhtcIcobfCz4G2wkgntcJMN7PCEKSx&#xD;&#xa;wg7qscIpj7LCAAu3wgdhu8KmdrvCsvS3wn8nssJQprTClga7wi35ucLler/CzFC7wrf4tcLkt7XC&#xD;&#xa;uuK5wvAJv8KqbrzC4WO5wlY9usIszL3CqhO9wo5Jv8Kyf8PCHCHBwtKTvcKcoL3CyNe/woiUwMJc&#xD;&#xa;A8XCL2LDwrR3xMLypsLCbCfDwsi4wcKiAcHCb2nDwjUJvMLoTbXCgnS3wmTDu8L/VcLCovPGwj8D&#xD;&#xa;yMK4xMbCmlXHwh4KxsJGO7/C40e+wm6mxsKwesPCdr/CwjaiwcL9ksPCtkjGwi5ZwcK4NcXC8qPJ&#xD;&#xa;wrSOy8Ii+snC/jfNwhq908KS/9HCqRHYwgXn4sJcZ9LCLErPwnW/2MJKqdrCSSHZwpZb1cL64tPC&#xD;&#xa;ZPnYwjhb3MKePdDChOjawlkwIcLCMhPCEL0nwt3xMMI5KEvCW3dNwhynUMKITVLCxj5WwnFoUsLQ&#xD;&#xa;mVLCm61Xwo62XsLXWWLCqj1ownvkacIq5W3CwEt0wgCScMK+VG3C8gpswksXasIfMGzC6ypvwjGY&#xD;&#xa;bsLUUW3C/ypxwvqdd8JJJnjCAfh7wgqAgMLOiYHCYC+CwnvLgcK5xIDC0nmCwpd0hcLAbobCllyG&#xD;&#xa;wk4ohcLTy4TC7VeEwl8fiMKUbIvCaVaLwtpJisI0L4vCAOyMwqItkMIVx5DC9rqRwh67k8JeyJHC&#xD;&#xa;lsuRwklIlMKYa5LClwGTwllklcK3nJTCsQmXwmQYlcLBfJTCg7WWwmprmMJAH5fCELmVwjaSlsJi&#xD;&#xa;KJfC/MWcwr6NmMJniZfCWV+bwjDbm8KSaZvCwrOZwri+lcJSH5bCkHebwmmfmcJ495fCE1WTwnVG&#xD;&#xa;kcKGJpTCPOqTws44kcKqjpDC/wGTwrCsm8Jqzp/CLrebwoiVmMLvjZnCPm6TwuPTksI2H5vCdOCb&#xD;&#xa;wrqPmMI2FJnC/GmYwqPdl8IoP5jCTHOZwl7FmsIIXZvC+HOcwgZtm8LZ153CAqmhwpGjoMJoCZzC&#xD;&#xa;YB2bwp7ImML0K5nCjEmcwo3HmcK+/ZjCOYCVwhHrmcJww5nCVmCYwnyUl8KC1ZXCA3CUwqsqlcK3&#xD;&#xa;pZTC1/6WwmRxm8K5OprCyG6Zwk7wlsJ4JprCwIaUwhttksJUe5fC7ueYwryYmcJODJXC8cmWwhBj&#xD;&#xa;l8LKyZXC2muUwkLRkMKcOZHCGF+QwqnRk8KcK5TCNKiTwliKksIk+JTCxE2YwvJWl8KG8pLCrMSQ&#xD;&#xa;wolFk8IXqpTChEOUwlVRlcL9xpjC+qOVwjvZlcLtoJbCnX2WwrUOlsJqVpbCzwGYwnlQlsJ6LpjC&#xD;&#xa;QI+XwpCAlsLgzpTCNAKUwtxWlMJgY5TCZj+ZwmBllsKiyZjCVPydwmyimMIZNpjCygiawsRwl8KG&#xD;&#xa;35bCCVmWwldHmsIkIp3Cb2+gws/pocLyz5vCDJ+ZwjjjmMJhwJjCPmWbwjPwmsL9O5rCIoaWwtb2&#xD;&#xa;kcKx6JLC/K2Vwr7Kl8JPtpjCynuXwjygmMInspPCKPiTwijpm8IAxprCDjyZwrDIlcI5r5PCq+GW&#xD;&#xa;wgNjm8IyA57Ck+afwk7xoMLA357CTiigwsKlo8L+wqDCC2qfwve6ncKupJ3CPqOgwhnyoMKBraXC&#xD;&#xa;OCKmwmOGpcLi9aLC39ahwqDXo8LnwKPCuvSkwp2uo8L2t6PCsKajwtEvo8LJMKLC2x6gwueEnsJO&#xD;&#xa;XaDCdoCjwokMpMJY4qTCrjCmws6wp8LS76bCcKelwuU8psJBI6TCevulwoC1o8KpY6TCo1KiwpC6&#xD;&#xa;osL2CqPCG4Siwh3EnsKyxp7Ct4Ghwp2+osLpHqHCNpKhwmhOocKtl6HC6genwkQaqcIBTKLC3fye&#xD;&#xa;wl5LoMJ+u6XCZVygwkRQnsIKHqHCBLOewmqbnsLts5/C8jGcwmdXl8JrT5nCVfmXwjhZl8JelpzC&#xD;&#xa;65yfwslrncI8RZjCWL6ZwlLsnMIShJvClOOawttinsI4EZ/C+Babws/SmsK4WJnCn1GZwnKJnMLw&#xD;&#xa;cJ3CYTudwlAinMIWRZ7CvTakwmwyo8LZx57C++6bwg0inMIt5p7C8zqgwtIhosIeMaDCZkiiwiEO&#xD;&#xa;oMJYQ5zCSsmewjIRpMI66aHChFKhwj5do8IlTqTCrKalwrI4pcKuq6TCnWWowgIqqMKaTKbCJrOj&#xD;&#xa;wvMopMJStqLCGPKmwpcTqMJeXKnCnjiqwrkiqcJOpKnC4oOmwgtTpcLQX6jCWBulwp8LpcIBwqbC&#xD;&#xa;zI2lwme0osIX0KbCPHemwjB5pMKmSqjCfgGnwjd4p8JMu6vCtQOxwhDUr8LCR7HCzbWtwuA0qsJm&#xD;&#xa;HajCyiWpwgwIrsJf4a3CUjuvwoUWrcKOL6jCBFCpwuPoqsLJDazC1gapwrZUp8JBNKvCm2+pwsM1&#xD;&#xa;qMK0OafCmlinwuPOq8KS4azCelGswl3jrsJiQK/CaxOrwg7OqcIHH6nCFoWnwrAXqsKiHKrCsESr&#xD;&#xa;wirhqcLhlqvC5FKswnnNrMLMc67CR8uxwuMHtMLY9q/CDqWqwgL4rMKUl67CE/2vwvaqsMLr0K/C&#xD;&#xa;yS6xwkBpscKoNK3CVjquwqTVssJ8zbbC5SW1wiWmtMKFB7bCeF21wkpOtsIifbPCgfqywouetcLv&#xD;&#xa;3rnCLAq5wvX6u8Lu9LjCNE21whBiuMLeeLnCspy3wsq0tMJ8hrjCNsa0wg5vssIhALbCooO1wg65&#xD;&#xa;ssIjY7PCvEy2wma+ucKsz7nCKmK5wi52tcJFrrXCkxq2wvCTtcLCj7fC42y2wo4wtcJOP7PClKWx&#xD;&#xa;wrUEssLRl7LCF/W2wgBau8Kyg7vC4Ne3wlMsssI8o7TC4gi7wijqucLkU7/Cfkm7wugTtsJYw7XC&#xD;&#xa;Jt+5wlbzvsLuZLzC6ny5wgQ6usIvr73COPW8wmc5v8KUTMPCK/zAwiR4vcKyer3CTKW/wmKAwMKI&#xD;&#xa;IsXCF2jDwrdaxMIofcLCeyjDwgq6wcJYHMHC0FrDwmr8u8KhTbXCamC3wpS4u8J0ZsLCKwrHwsDU&#xD;&#xa;x8K6msbC8k7HwvInxsJwFL/CyiW+wouuxsIFlsPCSu7CwrjCwcJIocPCvkfGwnxywcJtNsXC2pDJ&#xD;&#xa;wkaJy8Je9MnCjpnNwpYD1MIEMtLC9ijYwred4sIeF9LCfhrPwtKG2MK9g9rCUn/ZwqrI1cKdINTC&#xD;&#xa;yZPYwi4G3MK4KNDCctza" leadInLength="0/1"  />
            </Keyframes>
           </Parameter>
           </Parameters>
           <MetaData>
            <entry key="effectIndex" val="0"/>
           </MetaData>
          </GenericEffect>
         </Effects>
         <Attributes>
          <Attribute id="55" value="" name="ident"/>
          <Attribute id="56" value="0" name="mixToMono"/>
         </Attributes>
         <MetaData>
          <entry key="WinSubProjectDisplayName" val=""/>
         </MetaData>
         <ExtraData>
          <Entry key="ZoomPanBin">
           <ZoomPanBin id="57"  >
            <ZoomPanKeyframes>
             <ZoomPanKeyframe id="58" timeRangeEnd="-9999999/1" timeRangeDuration="0/1" interpolaterName="linr"  />
            </ZoomPanKeyframes>
           </ZoomPanBin>
          </Entry>
          <Entry key="CursorEffectBin">
           <CursorEffectBin id="59"  >
            <CursorEffectKeyframes>
            </CursorEffectKeyframes>
           </CursorEffectBin>
          </Entry>
         </ExtraData>
         <GenericTrack id="60"  >
          <Attributes>
           <Attribute id="61" value="" name="ident"/>
           <Attribute id="62" value="0" name="audioMuted"/>
           <Attribute id="63" value="0" name="videoHidden"/>
          </Attributes>
          <MetaData>
           <entry key="IsLocked" val="False"/>
           <entry key="WinTrackHeight" val="0"/>
          </MetaData>
          <Medias>
           <UnifiedMedia id="64"  >
            <AMFile id="65" start="0" duration="420" scalar="1/1" mediaStart="0/1" mediaDuration="420/1" trackNumber="2" src="4" channelNumber="0,1" >
             <Parameters>
              <InterpolatingParam id="66" interp="linr"  time="0/1" value="1" leadInLength="0/1"  name="volume"/>
              <Parameter id="67"  name="captions"/>
             </Parameters>
             <Attributes>
              <Attribute id="68" value="" name="ident"/>
              <Attribute id="69" value="44100" name="sampleRate"/>
              <Attribute id="70" value="16" name="bitDepth"/>
              <Attribute id="71" value="1" name="gain"/>
              <Attribute id="72" value="0" name="mixToMono"/>
             </Attributes>
            </AMFile>
            <VMFile id="73" start="0" duration="420" scalar="1/1" mediaStart="0/1" mediaDuration="420/1" trackNumber="1" src="4" >
             <Transformer>
              <VectorParam id="74"  name="translation">
               <InterpolatingParam id="75" interp="linr"  time="-9999999/1" value="0" leadInLength="0/1"  />
               <InterpolatingParam id="76" interp="linr"  time="-9999999/1" value="0" leadInLength="0/1"  />
               <InterpolatingParam id="77" interp="linr"  time="-9999999/1" value="0" leadInLength="0/1"  />
              </VectorParam>
              <VectorParam id="78"  name="rotation">
               <InterpolatingParam id="79" interp="linr"  time="-9999999/1" value="0" leadInLength="0/1"  />
               <InterpolatingParam id="80" interp="linr"  time="-9999999/1" value="0" leadInLength="0/1"  />
               <InterpolatingParam id="81" interp="linr"  time="-9999999/1" value="0" leadInLength="0/1"  />
              </VectorParam>
              <VectorParam id="82"  name="shear">
               <InterpolatingParam id="83" interp="linr"  time="-9999999/1" value="0" leadInLength="0/1"  />
               <InterpolatingParam id="84" interp="linr"  time="-9999999/1" value="0" leadInLength="0/1"  />
               <InterpolatingParam id="85" interp="linr"  time="-9999999/1" value="0" leadInLength="0/1"  />
              </VectorParam>
              <VectorParam id="86"  name="scale">
               <InterpolatingParam id="87" interp="linr"  time="-9999999/1" value="1" leadInLength="0/1"  />
               <InterpolatingParam id="88" interp="linr"  time="-9999999/1" value="1" leadInLength="0/1"  />
               <InterpolatingParam id="89" interp="linr"  time="-9999999/1" value="1" leadInLength="0/1"  />
              </VectorParam>
              <VectorParam id="90"  name="anchor">
               <InterpolatingParam id="91" interp="linr"  time="0/1" value="0" leadInLength="0/1"  />
               <InterpolatingParam id="92" interp="linr"  time="0/1" value="0" leadInLength="0/1"  />
               <InterpolatingParam id="93" interp="linr"  time="0/1" value="0" leadInLength="0/1"  />
              </VectorParam>
             </Transformer>
             <Parameters>
              <VectorParam id="94"  name="sourceCrop">
               <InterpolatingParam id="95" interp="linr"  time="0/1" value="0" leadInLength="0/1"  />
               <InterpolatingParam id="96" interp="linr"  time="0/1" value="0" leadInLength="0/1"  />
               <InterpolatingParam id="97" interp="linr"  time="0/1" value="0" leadInLength="0/1"  />
               <InterpolatingParam id="98" interp="linr"  time="0/1" value="0" leadInLength="0/1"  />
              </VectorParam>
              <VectorParam id="99"  name="geometryCrop">
               <InterpolatingParam id="100" interp="linr"  time="-9999999/1" value="0" leadInLength="0/1"  />
               <InterpolatingParam id="101" interp="linr"  time="-9999999/1" value="0" leadInLength="0/1"  />
               <InterpolatingParam id="102" interp="linr"  time="-9999999/1" value="0" leadInLength="0/1"  />
               <InterpolatingParam id="103" interp="linr"  time="-9999999/1" value="0" leadInLength="0/1"  />
              </VectorParam>
              <InterpolatingParam id="104" interp="linr"  time="-9999999/1" value="1" leadInLength="0/1"  name="opacity"/>
             </Parameters>
             <Attributes>
              <Attribute id="105" value="" name="ident"/>
             </Attributes>
             <ExtraData>
              <Entry key="ZoomPanBin">
               <ZoomPanBin id="106"  >
                <ZoomPanKeyframes>
                 <ZoomPanKeyframe id="107" timeRangeEnd="-9999999/1" timeRangeDuration="0/1" interpolaterName=""  />
                </ZoomPanKeyframes>
               </ZoomPanBin>
              </Entry>
             </ExtraData>
            </VMFile>
            <MetaData>
             <entry key="WinSubProjectDisplayName" val=""/>
            </MetaData>
           </UnifiedMedia>
           <UnifiedMedia id="108"  >
            <AMFile id="109" start="420" duration="268" scalar="1/1" mediaStart="472/1" mediaDuration="268/1" trackNumber="2" src="4" channelNumber="0,1" >
             <Parameters>
              <InterpolatingParam id="110" interp="linr"  time="0/1" value="1" leadInLength="0/1"  name="volume"/>
              <Parameter id="111"  name="captions"/>
             </Parameters>
             <Attributes>
              <Attribute id="112" value="" name="ident"/>
              <Attribute id="113" value="44100" name="sampleRate"/>
              <Attribute id="114" value="16" name="bitDepth"/>
              <Attribute id="115" value="1" name="gain"/>
              <Attribute id="116" value="0" name="mixToMono"/>
             </Attributes>
            </AMFile>
            <VMFile id="117" start="420" duration="268" scalar="1/1" mediaStart="472/1" mediaDuration="268/1" trackNumber="1" src="4" >
             <Transformer>
              <VectorParam id="118"  name="translation">
               <InterpolatingParam id="119" interp="linr"  time="-9999999/1" value="0" leadInLength="0/1"  />
               <InterpolatingParam id="120" interp="linr"  time="-9999999/1" value="0" leadInLength="0/1"  />
               <InterpolatingParam id="121" interp="linr"  time="-9999999/1" value="0" leadInLength="0/1"  />
              </VectorParam>
              <VectorParam id="122"  name="rotation">
               <InterpolatingParam id="123" interp="linr"  time="-9999999/1" value="0" leadInLength="0/1"  />
               <InterpolatingParam id="124" interp="linr"  time="-9999999/1" value="0" leadInLength="0/1"  />
               <InterpolatingParam id="125" interp="linr"  time="-9999999/1" value="0" leadInLength="0/1"  />
              </VectorParam>
              <VectorParam id="126"  name="shear">
               <InterpolatingParam id="127" interp="linr"  time="-9999999/1" value="0" leadInLength="0/1"  />
               <InterpolatingParam id="128" interp="linr"  time="-9999999/1" value="0" leadInLength="0/1"  />
               <InterpolatingParam id="129" interp="linr"  time="-9999999/1" value="0" leadInLength="0/1"  />
              </VectorParam>
              <VectorParam id="130"  name="scale">
               <InterpolatingParam id="131" interp="linr"  time="-9999999/1" value="1" leadInLength="0/1"  />
               <InterpolatingParam id="132" interp="linr"  time="-9999999/1" value="1" leadInLength="0/1"  />
               <InterpolatingParam id="133" interp="linr"  time="-9999999/1" value="1" leadInLength="0/1"  />
              </VectorParam>
              <VectorParam id="134"  name="anchor">
               <InterpolatingParam id="135" interp="linr"  time="0/1" value="0" leadInLength="0/1"  />
               <InterpolatingParam id="136" interp="linr"  time="0/1" value="0" leadInLength="0/1"  />
               <InterpolatingParam id="137" interp="linr"  time="0/1" value="0" leadInLength="0/1"  />
              </VectorParam>
             </Transformer>
             <Parameters>
              <VectorParam id="138"  name="sourceCrop">
               <InterpolatingParam id="139" interp="linr"  time="0/1" value="0" leadInLength="0/1"  />
               <InterpolatingParam id="140" interp="linr"  time="0/1" value="0" leadInLength="0/1"  />
               <InterpolatingParam id="141" interp="linr"  time="0/1" value="0" leadInLength="0/1"  />
               <InterpolatingParam id="142" interp="linr"  time="0/1" value="0" leadInLength="0/1"  />
              </VectorParam>
              <VectorParam id="143"  name="geometryCrop">
               <InterpolatingParam id="144" interp="linr"  time="-9999999/1" value="0" leadInLength="0/1"  />
               <InterpolatingParam id="145" interp="linr"  time="-9999999/1" value="0" leadInLength="0/1"  />
               <InterpolatingParam id="146" interp="linr"  time="-9999999/1" value="0" leadInLength="0/1"  />
               <InterpolatingParam id="147" interp="linr"  time="-9999999/1" value="0" leadInLength="0/1"  />
              </VectorParam>
              <InterpolatingParam id="148" interp="linr"  time="-9999999/1" value="1" leadInLength="0/1"  name="opacity"/>
             </Parameters>
             <Attributes>
              <Attribute id="149" value="" name="ident"/>
             </Attributes>
             <ExtraData>
              <Entry key="ZoomPanBin">
               <ZoomPanBin id="150"  >
                <ZoomPanKeyframes>
                 <ZoomPanKeyframe id="151" timeRangeEnd="-9999999/1" timeRangeDuration="0/1" interpolaterName=""  />
                </ZoomPanKeyframes>
               </ZoomPanBin>
              </Entry>
             </ExtraData>
            </VMFile>
            <MetaData>
             <entry key="WinSubProjectDisplayName" val=""/>
            </MetaData>
           </UnifiedMedia>
           <UnifiedMedia id="152"  >
            <AMFile id="153" start="688" duration="13185" scalar="1/1" mediaStart="1658/1" mediaDuration="13185/1" trackNumber="2" src="4" channelNumber="0,1" >
             <Parameters>
              <InterpolatingParam id="154" interp="linr"  time="0/1" value="1" leadInLength="0/1"  name="volume"/>
              <Parameter id="155"  name="captions"/>
             </Parameters>
             <Attributes>
              <Attribute id="156" value="" name="ident"/>
              <Attribute id="157" value="44100" name="sampleRate"/>
              <Attribute id="158" value="16" name="bitDepth"/>
              <Attribute id="159" value="1" name="gain"/>
              <Attribute id="160" value="0" name="mixToMono"/>
             </Attributes>
            </AMFile>
            <VMFile id="161" start="688" duration="13185" scalar="1/1" mediaStart="1658/1" mediaDuration="13185/1" trackNumber="1" src="4" >
             <Transformer>
              <VectorParam id="162"  name="translation">
               <InterpolatingParam id="163" interp="linr"  time="-9999999/1" value="0" leadInLength="0/1"  />
               <InterpolatingParam id="164" interp="linr"  time="-9999999/1" value="0" leadInLength="0/1"  />
               <InterpolatingParam id="165" interp="linr"  time="-9999999/1" value="0" leadInLength="0/1"  />
              </VectorParam>
              <VectorParam id="166"  name="rotation">
               <InterpolatingParam id="167" interp="linr"  time="-9999999/1" value="0" leadInLength="0/1"  />
               <InterpolatingParam id="168" interp="linr"  time="-9999999/1" value="0" leadInLength="0/1"  />
               <InterpolatingParam id="169" interp="linr"  time="-9999999/1" value="0" leadInLength="0/1"  />
              </VectorParam>
              <VectorParam id="170"  name="shear">
               <InterpolatingParam id="171" interp="linr"  time="-9999999/1" value="0" leadInLength="0/1"  />
               <InterpolatingParam id="172" interp="linr"  time="-9999999/1" value="0" leadInLength="0/1"  />
               <InterpolatingParam id="173" interp="linr"  time="-9999999/1" value="0" leadInLength="0/1"  />
              </VectorParam>
              <VectorParam id="174"  name="scale">
               <InterpolatingParam id="175" interp="linr"  time="-9999999/1" value="1" leadInLength="0/1"  />
               <InterpolatingParam id="176" interp="linr"  time="-9999999/1" value="1" leadInLength="0/1"  />
               <InterpolatingParam id="177" interp="linr"  time="-9999999/1" value="1" leadInLength="0/1"  />
              </VectorParam>
              <VectorParam id="178"  name="anchor">
               <InterpolatingParam id="179" interp="linr"  time="0/1" value="0" leadInLength="0/1"  />
               <InterpolatingParam id="180" interp="linr"  time="0/1" value="0" leadInLength="0/1"  />
               <InterpolatingParam id="181" interp="linr"  time="0/1" value="0" leadInLength="0/1"  />
              </VectorParam>
             </Transformer>
             <Parameters>
              <VectorParam id="182"  name="sourceCrop">
               <InterpolatingParam id="183" interp="linr"  time="0/1" value="0" leadInLength="0/1"  />
               <InterpolatingParam id="184" interp="linr"  time="0/1" value="0" leadInLength="0/1"  />
               <InterpolatingParam id="185" interp="linr"  time="0/1" value="0" leadInLength="0/1"  />
               <InterpolatingParam id="186" interp="linr"  time="0/1" value="0" leadInLength="0/1"  />
              </VectorParam>
              <VectorParam id="187"  name="geometryCrop">
               <InterpolatingParam id="188" interp="linr"  time="-9999999/1" value="0" leadInLength="0/1"  />
               <InterpolatingParam id="189" interp="linr"  time="-9999999/1" value="0" leadInLength="0/1"  />
               <InterpolatingParam id="190" interp="linr"  time="-9999999/1" value="0" leadInLength="0/1"  />
               <InterpolatingParam id="191" interp="linr"  time="-9999999/1" value="0" leadInLength="0/1"  />
              </VectorParam>
              <InterpolatingParam id="192" interp="linr"  time="-9999999/1" value="1" leadInLength="0/1"  name="opacity"/>
             </Parameters>
             <Attributes>
              <Attribute id="193" value="" name="ident"/>
             </Attributes>
             <ExtraData>
              <Entry key="ZoomPanBin">
               <ZoomPanBin id="194"  >
                <ZoomPanKeyframes>
                 <ZoomPanKeyframe id="195" timeRangeEnd="-9999999/1" timeRangeDuration="0/1" interpolaterName=""  />
                </ZoomPanKeyframes>
               </ZoomPanBin>
              </Entry>
             </ExtraData>
            </VMFile>
            <MetaData>
             <entry key="WinSubProjectDisplayName" val=""/>
            </MetaData>
           </UnifiedMedia>
          </Medias>
         </GenericTrack>
        </StitchedMedia>
        <StitchedMedia id="196" start="1318" duration="3949" scalar="1/1" mediaStart="1373/1" mediaDuration="3949/1" minMediaStart="0/1" >
         <Transformer>
          <VectorParam id="197"  name="translation">
           <InterpolatingParam id="198" interp="linr"  time="-9999999/1" value="0" leadInLength="0/1"  interpolater="leadin-linr"  />
           <InterpolatingParam id="199" interp="linr"  time="-9999999/1" value="0" leadInLength="0/1"  interpolater="leadin-linr"  />
           <InterpolatingParam id="200" interp="linr"  time="-9999999/1" value="0" leadInLength="0/1"  interpolater="leadin-linr"  />
          </VectorParam>
          <VectorParam id="201"  name="rotation">
           <InterpolatingParam id="202" interp="linr"  time="-9999999/1" value="0" leadInLength="0/1"  interpolater="leadin-linr"  />
           <InterpolatingParam id="203" interp="linr"  time="-9999999/1" value="0" leadInLength="0/1"  interpolater="leadin-linr"  />
           <InterpolatingParam id="204" interp="linr"  time="-9999999/1" value="0" leadInLength="0/1"  interpolater="leadin-linr"  />
          </VectorParam>
          <VectorParam id="205"  name="shear">
           <InterpolatingParam id="206" interp="linr"  time="-9999999/1" value="0" leadInLength="0/1"  interpolater="leadin-linr"  />
           <InterpolatingParam id="207" interp="linr"  time="-9999999/1" value="0" leadInLength="0/1"  interpolater="leadin-linr"  />
           <InterpolatingParam id="208" interp="linr"  time="-9999999/1" value="0" leadInLength="0/1"  interpolater="leadin-linr"  />
          </VectorParam>
          <VectorParam id="209"  name="scale">
           <InterpolatingParam id="210" interp="linr"  time="-9999999/1" value="0.73124999999999996" leadInLength="0/1"  interpolater="leadin-linr"  />
           <InterpolatingParam id="211" interp="linr"  time="-9999999/1" value="0.73124999999999996" leadInLength="0/1"  interpolater="leadin-linr"  />
           <InterpolatingParam id="212" interp="linr"  time="-9999999/1" value="1" leadInLength="0/1"  interpolater="leadin-linr"  />
          </VectorParam>
          <VectorParam id="213"  name="anchor">
           <InterpolatingParam id="214" interp="linr"  time="0/1" value="0" leadInLength="0/1"  />
           <InterpolatingParam id="215" interp="linr"  time="0/1" value="0" leadInLength="0/1"  />
           <InterpolatingParam id="216" interp="linr"  time="0/1" value="0" leadInLength="0/1"  />
          </VectorParam>
         </Transformer>
         <Parameters>
          <VectorParam id="217"  name="sourceCrop">
           <InterpolatingParam id="218" interp="linr"  time="0/1" value="0" leadInLength="0/1"  />
           <InterpolatingParam id="219" interp="linr"  time="0/1" value="0" leadInLength="0/1"  />
           <InterpolatingParam id="220" interp="linr"  time="0/1" value="0" leadInLength="0/1"  />
           <InterpolatingParam id="221" interp="linr"  time="0/1" value="0" leadInLength="0/1"  />
          </VectorParam>
          <VectorParam id="222"  name="geometryCrop">
           <InterpolatingParam id="223" interp="linr"  time="-9999999/1" value="0" leadInLength="0/1"  interpolater="leadin-linr"  />
           <InterpolatingParam id="224" interp="linr"  time="-9999999/1" value="0" leadInLength="0/1"  interpolater="leadin-linr"  />
           <InterpolatingParam id="225" interp="linr"  time="-9999999/1" value="0" leadInLength="0/1"  interpolater="leadin-linr"  />
           <InterpolatingParam id="226" interp="linr"  time="-9999999/1" value="0" leadInLength="0/1"  interpolater="leadin-linr"  />
          </VectorParam>
          <InterpolatingParam id="227" interp="linr"  time="-9999999/1" value="1" leadInLength="0/1"  interpolater="leadin-linr"  name="opacity"/>
          <InterpolatingParam id="228" interp="linr"  time="0/1" value="1" leadInLength="0/1"  name="cursorOpacity"/>
          <InterpolatingParam id="229" interp="linr"  time="0/1" value="1" leadInLength="0/1"  name="cursorScale"/>
          <Parameter id="230"  name="captions"/>
         </Parameters>
         <Effects>
          <GenericEffect id="231" name = "CursorBaseEffectName" >
           <Parameters>
           <InterpolatingParam id="232" interp="linr"  time="-9999999/1" value="1" leadInLength="0/1"   name="cursorSize"/>
           <InterpolatingParam id="233" interp="linr"  time="-9999999/1" value="0" leadInLength="0/1"   name="highlightBlurRadius"/>
           <InterpolatingParam id="234" interp="linr"  time="-9999999/1" value="0" leadInLength="0/1"   name="highlightColorBlue"/>
           <InterpolatingParam id="235" interp="linr"  time="-9999999/1" value="255" leadInLength="0/1"   name="highlightColorGreen"/>
           <InterpolatingParam id="236" interp="linr"  time="-9999999/1" value="255" leadInLength="0/1"   name="highlightColorRed"/>
           <InterpolatingParam id="237" interp="linr"  time="-9999999/1" value="5" leadInLength="0/1"   name="highlightFeatherSize"/>
           <InterpolatingParam id="238" interp="linr"  time="-9999999/1" value="2" leadInLength="0/1"   name="highlightMagnification"/>
           <InterpolatingParam id="239" interp="linr"  time="-9999999/1" value="1" leadInLength="0/1"   name="highlightOpacity"/>
           <InterpolatingParam id="240" interp="linr"  time="-9999999/1" value="45" leadInLength="0/1"   name="highlightSize"/>
           <Parameter id="241"   name="highlightType">
            <Keyframes>
            <Keyframe id="242"  time="-9999999/1" value="0" leadInLength="0/1"  />
            </Keyframes>
           </Parameter>
           <InterpolatingParam id="243" interp="linr"  time="-9999999/1" value="0" leadInLength="0/1"   name="leftClickColorBlue"/>
           <InterpolatingParam id="244" interp="linr"  time="-9999999/1" value="0" leadInLength="0/1"   name="leftClickColorGreen"/>
           <InterpolatingParam id="245" interp="linr"  time="-9999999/1" value="255" leadInLength="0/1"   name="leftClickColorRed"/>
           <InterpolatingParam id="246" interp="linr"  time="-9999999/1" value="0.80000000000000004" leadInLength="0/1"   name="leftClickDuration"/>
           <InterpolatingParam id="247" interp="linr"  time="-9999999/1" value="20" leadInLength="0/1"   name="leftClickSize"/>
           <Parameter id="248"   name="leftClickSoundFilename">
            <Keyframes>
            <Keyframe id="249"  time="-9999999/1" value="" leadInLength="0/1"  />
            </Keyframes>
           </Parameter>
           <InterpolatingParam id="250" interp="linr"  time="-9999999/1" value="1" leadInLength="0/1"   name="leftClickSoundVolume"/>
           <Parameter id="251"   name="leftClickType">
            <Keyframes>
            <Keyframe id="252"  time="-9999999/1" value="0" leadInLength="0/1"  />
            </Keyframes>
           </Parameter>
           <InterpolatingParam id="253" interp="linr"  time="-9999999/1" value="1" leadInLength="0/1"   name="opacity"/>
           <InterpolatingParam id="254" interp="linr"  time="-9999999/1" value="255" leadInLength="0/1"   name="rightClickColorBlue"/>
           <InterpolatingParam id="255" interp="linr"  time="-9999999/1" value="0" leadInLength="0/1"   name="rightClickColorGreen"/>
           <InterpolatingParam id="256" interp="linr"  time="-9999999/1" value="0" leadInLength="0/1"   name="rightClickColorRed"/>
           <InterpolatingParam id="257" interp="linr"  time="-9999999/1" value="0.80000000000000004" leadInLength="0/1"   name="rightClickDuration"/>
           <InterpolatingParam id="258" interp="linr"  time="-9999999/1" value="20" leadInLength="0/1"   name="rightClickSize"/>
           <Parameter id="259"   name="rightClickSoundFilename">
            <Keyframes>
            <Keyframe id="260"  time="-9999999/1" value="" leadInLength="0/1"  />
            </Keyframes>
           </Parameter>
           <InterpolatingParam id="261" interp="linr"  time="-9999999/1" value="1" leadInLength="0/1"   name="rightClickSoundVolume"/>
           <Parameter id="262"   name="rightClickType">
            <Keyframes>
            <Keyframe id="263"  time="-9999999/1" value="0" leadInLength="0/1"  />
            </Keyframes>
           </Parameter>
           </Parameters>
          </GenericEffect>
         </Effects>
         <Attributes>
          <Attribute id="264" value="" name="ident"/>
         </Attributes>
         <MetaData>
          <entry key="AutoAppliedSmartFocus" val="False"/>
          <entry key="WinSubProjectDisplayName" val=""/>
         </MetaData>
         <ExtraData>
          <Entry key="ZoomPanBin">
           <ZoomPanBin id="265"  >
            <ZoomPanKeyframes>
             <ZoomPanKeyframe id="266" timeRangeEnd="-9999999/1" timeRangeDuration="0/1" interpolaterName="linr"  />
            </ZoomPanKeyframes>
           </ZoomPanBin>
          </Entry>
          <Entry key="CursorEffectBin">
           <CursorEffectBin id="267"  >
            <CursorEffectKeyframes>
             <CursorEffectKeyframe id="268" timeRangeEnd="-9999999/1" timeRangeDuration="0/1" interpolaterName=""  />
            </CursorEffectKeyframes>
           </CursorEffectBin>
          </Entry>
         </ExtraData>
         <GenericTrack id="269"  >
          <Attributes>
           <Attribute id="270" value="" name="ident"/>
           <Attribute id="271" value="0" name="audioMuted"/>
           <Attribute id="272" value="0" name="videoHidden"/>
          </Attributes>
          <MetaData>
           <entry key="IsLocked" val="False"/>
           <entry key="WinTrackHeight" val="0"/>
          </MetaData>
          <Medias>
           <ScreenVMFile id="273" start="0" duration="420" scalar="1/1" mediaStart="0/1" mediaDuration="420/1" trackNumber="0" src="4" >
            <Transformer>
             <VectorParam id="274"  name="translation">
              <InterpolatingParam id="275" interp="linr"  time="-9999999/1" value="0" leadInLength="0/1"  />
              <InterpolatingParam id="276" interp="linr"  time="-9999999/1" value="0" leadInLength="0/1"  />
              <InterpolatingParam id="277" interp="linr"  time="-9999999/1" value="0" leadInLength="0/1"  />
             </VectorParam>
             <VectorParam id="278"  name="rotation">
              <InterpolatingParam id="279" interp="linr"  time="-9999999/1" value="0" leadInLength="0/1"  />
              <InterpolatingParam id="280" interp="linr"  time="-9999999/1" value="0" leadInLength="0/1"  />
              <InterpolatingParam id="281" interp="linr"  time="-9999999/1" value="0" leadInLength="0/1"  />
             </VectorParam>
             <VectorParam id="282"  name="shear">
              <InterpolatingParam id="283" interp="linr"  time="-9999999/1" value="0" leadInLength="0/1"  />
              <InterpolatingParam id="284" interp="linr"  time="-9999999/1" value="0" leadInLength="0/1"  />
              <InterpolatingParam id="285" interp="linr"  time="-9999999/1" value="0" leadInLength="0/1"  />
             </VectorParam>
             <VectorParam id="286"  name="scale">
              <InterpolatingParam id="287" interp="linr"  time="-9999999/1" value="1" leadInLength="0/1"  />
              <InterpolatingParam id="288" interp="linr"  time="-9999999/1" value="1" leadInLength="0/1"  />
              <InterpolatingParam id="289" interp="linr"  time="-9999999/1" value="1" leadInLength="0/1"  />
             </VectorParam>
             <VectorParam id="290"  name="anchor">
              <InterpolatingParam id="291" interp="linr"  time="0/1" value="0" leadInLength="0/1"  />
              <InterpolatingParam id="292" interp="linr"  time="0/1" value="0" leadInLength="0/1"  />
              <InterpolatingParam id="293" interp="linr"  time="0/1" value="0" leadInLength="0/1"  />
             </VectorParam>
            </Transformer>
            <Parameters>
             <VectorParam id="294"  name="sourceCrop">
              <InterpolatingParam id="295" interp="linr"  time="0/1" value="0" leadInLength="0/1"  />
              <InterpolatingParam id="296" interp="linr"  time="0/1" value="0" leadInLength="0/1"  />
              <InterpolatingParam id="297" interp="linr"  time="0/1" value="0" leadInLength="0/1"  />
              <InterpolatingParam id="298" interp="linr"  time="0/1" value="0" leadInLength="0/1"  />
             </VectorParam>
             <VectorParam id="299"  name="geometryCrop">
              <InterpolatingParam id="300" interp="linr"  time="-9999999/1" value="0" leadInLength="0/1"  />
              <InterpolatingParam id="301" interp="linr"  time="-9999999/1" value="0" leadInLength="0/1"  />
              <InterpolatingParam id="302" interp="linr"  time="-9999999/1" value="0" leadInLength="0/1"  />
              <InterpolatingParam id="303" interp="linr"  time="-9999999/1" value="0" leadInLength="0/1"  />
             </VectorParam>
             <InterpolatingParam id="304" interp="linr"  time="-9999999/1" value="1" leadInLength="0/1"  name="opacity"/>
             <InterpolatingParam id="305" interp="linr"  time="0/1" value="0" leadInLength="0/1"  name="cursorOpacity"/>
             <InterpolatingParam id="306" interp="linr"  time="0/1" value="0" leadInLength="0/1"  name="cursorScale"/>
            </Parameters>
            <Attributes>
             <Attribute id="307" value="" name="ident"/>
            </Attributes>
            <MetaData>
             <entry key="AutoAppliedSmartFocus" val="False"/>
             <entry key="WinSubProjectDisplayName" val=""/>
            </MetaData>
            <ExtraData>
             <Entry key="ZoomPanBin">
              <ZoomPanBin id="308"  >
               <ZoomPanKeyframes>
                <ZoomPanKeyframe id="309" timeRangeEnd="-9999999/1" timeRangeDuration="0/1" interpolaterName=""  />
               </ZoomPanKeyframes>
              </ZoomPanBin>
             </Entry>
             <Entry key="CursorEffectBin">
              <CursorEffectBin id="310"  >
               <CursorEffectKeyframes>
               </CursorEffectKeyframes>
              </CursorEffectBin>
             </Entry>
            </ExtraData>
           </ScreenVMFile>
           <ScreenVMFile id="311" start="420" duration="268" scalar="1/1" mediaStart="472/1" mediaDuration="268/1" trackNumber="0" src="4" >
            <Transformer>
             <VectorParam id="312"  name="translation">
              <InterpolatingParam id="313" interp="linr"  time="-9999999/1" value="0" leadInLength="0/1"  />
              <InterpolatingParam id="314" interp="linr"  time="-9999999/1" value="0" leadInLength="0/1"  />
              <InterpolatingParam id="315" interp="linr"  time="-9999999/1" value="0" leadInLength="0/1"  />
             </VectorParam>
             <VectorParam id="316"  name="rotation">
              <InterpolatingParam id="317" interp="linr"  time="-9999999/1" value="0" leadInLength="0/1"  />
              <InterpolatingParam id="318" interp="linr"  time="-9999999/1" value="0" leadInLength="0/1"  />
              <InterpolatingParam id="319" interp="linr"  time="-9999999/1" value="0" leadInLength="0/1"  />
             </VectorParam>
             <VectorParam id="320"  name="shear">
              <InterpolatingParam id="321" interp="linr"  time="-9999999/1" value="0" leadInLength="0/1"  />
              <InterpolatingParam id="322" interp="linr"  time="-9999999/1" value="0" leadInLength="0/1"  />
              <InterpolatingParam id="323" interp="linr"  time="-9999999/1" value="0" leadInLength="0/1"  />
             </VectorParam>
             <VectorParam id="324"  name="scale">
              <InterpolatingParam id="325" interp="linr"  time="-9999999/1" value="1" leadInLength="0/1"  />
              <InterpolatingParam id="326" interp="linr"  time="-9999999/1" value="1" leadInLength="0/1"  />
              <InterpolatingParam id="327" interp="linr"  time="-9999999/1" value="1" leadInLength="0/1"  />
             </VectorParam>
             <VectorParam id="328"  name="anchor">
              <InterpolatingParam id="329" interp="linr"  time="0/1" value="0" leadInLength="0/1"  />
              <InterpolatingParam id="330" interp="linr"  time="0/1" value="0" leadInLength="0/1"  />
              <InterpolatingParam id="331" interp="linr"  time="0/1" value="0" leadInLength="0/1"  />
             </VectorParam>
            </Transformer>
            <Parameters>
             <VectorParam id="332"  name="sourceCrop">
              <InterpolatingParam id="333" interp="linr"  time="0/1" value="0" leadInLength="0/1"  />
              <InterpolatingParam id="334" interp="linr"  time="0/1" value="0" leadInLength="0/1"  />
              <InterpolatingParam id="335" interp="linr"  time="0/1" value="0" leadInLength="0/1"  />
              <InterpolatingParam id="336" interp="linr"  time="0/1" value="0" leadInLength="0/1"  />
             </VectorParam>
             <VectorParam id="337"  name="geometryCrop">
              <InterpolatingParam id="338" interp="linr"  time="-9999999/1" value="0" leadInLength="0/1"  />
              <InterpolatingParam id="339" interp="linr"  time="-9999999/1" value="0" leadInLength="0/1"  />
              <InterpolatingParam id="340" interp="linr"  time="-9999999/1" value="0" leadInLength="0/1"  />
              <InterpolatingParam id="341" interp="linr"  time="-9999999/1" value="0" leadInLength="0/1"  />
             </VectorParam>
             <InterpolatingParam id="342" interp="linr"  time="-9999999/1" value="1" leadInLength="0/1"  name="opacity"/>
             <InterpolatingParam id="343" interp="linr"  time="0/1" value="0" leadInLength="0/1"  name="cursorOpacity"/>
             <InterpolatingParam id="344" interp="linr"  time="0/1" value="0" leadInLength="0/1"  name="cursorScale"/>
            </Parameters>
            <Attributes>
             <Attribute id="345" value="" name="ident"/>
            </Attributes>
            <MetaData>
             <entry key="AutoAppliedSmartFocus" val="False"/>
             <entry key="WinSubProjectDisplayName" val=""/>
            </MetaData>
            <ExtraData>
             <Entry key="ZoomPanBin">
              <ZoomPanBin id="346"  >
               <ZoomPanKeyframes>
                <ZoomPanKeyframe id="347" timeRangeEnd="-9999999/1" timeRangeDuration="0/1" interpolaterName=""  />
               </ZoomPanKeyframes>
              </ZoomPanBin>
             </Entry>
             <Entry key="CursorEffectBin">
              <CursorEffectBin id="348"  >
               <CursorEffectKeyframes>
               </CursorEffectKeyframes>
              </CursorEffectBin>
             </Entry>
            </ExtraData>
           </ScreenVMFile>
           <ScreenVMFile id="349" start="688" duration="1386" scalar="1/1" mediaStart="1658/1" mediaDuration="1386/1" trackNumber="0" src="4" >
            <Transformer>
             <VectorParam id="350"  name="translation">
              <InterpolatingParam id="351" interp="linr"  time="-9999999/1" value="0" leadInLength="0/1"  />
              <InterpolatingParam id="352" interp="linr"  time="-9999999/1" value="0" leadInLength="0/1"  />
              <InterpolatingParam id="353" interp="linr"  time="-9999999/1" value="0" leadInLength="0/1"  />
             </VectorParam>
             <VectorParam id="354"  name="rotation">
              <InterpolatingParam id="355" interp="linr"  time="-9999999/1" value="0" leadInLength="0/1"  />
              <InterpolatingParam id="356" interp="linr"  time="-9999999/1" value="0" leadInLength="0/1"  />
              <InterpolatingParam id="357" interp="linr"  time="-9999999/1" value="0" leadInLength="0/1"  />
             </VectorParam>
             <VectorParam id="358"  name="shear">
              <InterpolatingParam id="359" interp="linr"  time="-9999999/1" value="0" leadInLength="0/1"  />
              <InterpolatingParam id="360" interp="linr"  time="-9999999/1" value="0" leadInLength="0/1"  />
              <InterpolatingParam id="361" interp="linr"  time="-9999999/1" value="0" leadInLength="0/1"  />
             </VectorParam>
             <VectorParam id="362"  name="scale">
              <InterpolatingParam id="363" interp="linr"  time="-9999999/1" value="1" leadInLength="0/1"  />
              <InterpolatingParam id="364" interp="linr"  time="-9999999/1" value="1" leadInLength="0/1"  />
              <InterpolatingParam id="365" interp="linr"  time="-9999999/1" value="1" leadInLength="0/1"  />
             </VectorParam>
             <VectorParam id="366"  name="anchor">
              <InterpolatingParam id="367" interp="linr"  time="0/1" value="0" leadInLength="0/1"  />
              <InterpolatingParam id="368" interp="linr"  time="0/1" value="0" leadInLength="0/1"  />
              <InterpolatingParam id="369" interp="linr"  time="0/1" value="0" leadInLength="0/1"  />
             </VectorParam>
            </Transformer>
            <Parameters>
             <VectorParam id="370"  name="sourceCrop">
              <InterpolatingParam id="371" interp="linr"  time="0/1" value="0" leadInLength="0/1"  />
              <InterpolatingParam id="372" interp="linr"  time="0/1" value="0" leadInLength="0/1"  />
              <InterpolatingParam id="373" interp="linr"  time="0/1" value="0" leadInLength="0/1"  />
              <InterpolatingParam id="374" interp="linr"  time="0/1" value="0" leadInLength="0/1"  />
             </VectorParam>
             <VectorParam id="375"  name="geometryCrop">
              <InterpolatingParam id="376" interp="linr"  time="-9999999/1" value="0" leadInLength="0/1"  />
              <InterpolatingParam id="377" interp="linr"  time="-9999999/1" value="0" leadInLength="0/1"  />
              <InterpolatingParam id="378" interp="linr"  time="-9999999/1" value="0" leadInLength="0/1"  />
              <InterpolatingParam id="379" interp="linr"  time="-9999999/1" value="0" leadInLength="0/1"  />
             </VectorParam>
             <InterpolatingParam id="380" interp="linr"  time="-9999999/1" value="1" leadInLength="0/1"  name="opacity"/>
             <InterpolatingParam id="381" interp="linr"  time="0/1" value="0" leadInLength="0/1"  name="cursorOpacity"/>
             <InterpolatingParam id="382" interp="linr"  time="0/1" value="0" leadInLength="0/1"  name="cursorScale"/>
            </Parameters>
            <Attributes>
             <Attribute id="383" value="" name="ident"/>
            </Attributes>
            <MetaData>
             <entry key="AutoAppliedSmartFocus" val="False"/>
             <entry key="WinSubProjectDisplayName" val=""/>
            </MetaData>
            <ExtraData>
             <Entry key="ZoomPanBin">
              <ZoomPanBin id="384"  >
               <ZoomPanKeyframes>
                <ZoomPanKeyframe id="385" timeRangeEnd="-9999999/1" timeRangeDuration="0/1" interpolaterName=""  />
               </ZoomPanKeyframes>
              </ZoomPanBin>
             </Entry>
             <Entry key="CursorEffectBin">
              <CursorEffectBin id="386"  >
               <CursorEffectKeyframes>
               </CursorEffectKeyframes>
              </CursorEffectBin>
             </Entry>
            </ExtraData>
           </ScreenVMFile>
           <ScreenVMFile id="387" start="2074" duration="2037" scalar="1/1" mediaStart="3341/1" mediaDuration="2037/1" trackNumber="0" src="4" >
            <Transformer>
             <VectorParam id="388"  name="translation">
              <InterpolatingParam id="389" interp="linr"  time="-9999999/1" value="0" leadInLength="0/1"  />
              <InterpolatingParam id="390" interp="linr"  time="-9999999/1" value="0" leadInLength="0/1"  />
              <InterpolatingParam id="391" interp="linr"  time="-9999999/1" value="0" leadInLength="0/1"  />
             </VectorParam>
             <VectorParam id="392"  name="rotation">
              <InterpolatingParam id="393" interp="linr"  time="-9999999/1" value="0" leadInLength="0/1"  />
              <InterpolatingParam id="394" interp="linr"  time="-9999999/1" value="0" leadInLength="0/1"  />
              <InterpolatingParam id="395" interp="linr"  time="-9999999/1" value="0" leadInLength="0/1"  />
             </VectorParam>
             <VectorParam id="396"  name="shear">
              <InterpolatingParam id="397" interp="linr"  time="-9999999/1" value="0" leadInLength="0/1"  />
              <InterpolatingParam id="398" interp="linr"  time="-9999999/1" value="0" leadInLength="0/1"  />
              <InterpolatingParam id="399" interp="linr"  time="-9999999/1" value="0" leadInLength="0/1"  />
             </VectorParam>
             <VectorParam id="400"  name="scale">
              <InterpolatingParam id="401" interp="linr"  time="-9999999/1" value="1" leadInLength="0/1"  />
              <InterpolatingParam id="402" interp="linr"  time="-9999999/1" value="1" leadInLength="0/1"  />
              <InterpolatingParam id="403" interp="linr"  time="-9999999/1" value="1" leadInLength="0/1"  />
             </VectorParam>
             <VectorParam id="404"  name="anchor">
              <InterpolatingParam id="405" interp="linr"  time="0/1" value="0" leadInLength="0/1"  />
              <InterpolatingParam id="406" interp="linr"  time="0/1" value="0" leadInLength="0/1"  />
              <InterpolatingParam id="407" interp="linr"  time="0/1" value="0" leadInLength="0/1"  />
             </VectorParam>
            </Transformer>
            <Parameters>
             <VectorParam id="408"  name="sourceCrop">
              <InterpolatingParam id="409" interp="linr"  time="0/1" value="0" leadInLength="0/1"  />
              <InterpolatingParam id="410" interp="linr"  time="0/1" value="0" leadInLength="0/1"  />
              <InterpolatingParam id="411" interp="linr"  time="0/1" value="0" leadInLength="0/1"  />
              <InterpolatingParam id="412" interp="linr"  time="0/1" value="0" leadInLength="0/1"  />
             </VectorParam>
             <VectorParam id="413"  name="geometryCrop">
              <InterpolatingParam id="414" interp="linr"  time="-9999999/1" value="0" leadInLength="0/1"  />
              <InterpolatingParam id="415" interp="linr"  time="-9999999/1" value="0" leadInLength="0/1"  />
              <InterpolatingParam id="416" interp="linr"  time="-9999999/1" value="0" leadInLength="0/1"  />
              <InterpolatingParam id="417" interp="linr"  time="-9999999/1" value="0" leadInLength="0/1"  />
             </VectorParam>
             <InterpolatingParam id="418" interp="linr"  time="-9999999/1" value="1" leadInLength="0/1"  name="opacity"/>
             <InterpolatingParam id="419" interp="linr"  time="0/1" value="0" leadInLength="0/1"  name="cursorOpacity"/>
             <InterpolatingParam id="420" interp="linr"  time="0/1" value="0" leadInLength="0/1"  name="cursorScale"/>
            </Parameters>
            <Attributes>
             <Attribute id="421" value="" name="ident"/>
            </Attributes>
            <MetaData>
             <entry key="AutoAppliedSmartFocus" val="False"/>
             <entry key="WinSubProjectDisplayName" val=""/>
            </MetaData>
            <ExtraData>
             <Entry key="ZoomPanBin">
              <ZoomPanBin id="422"  >
               <ZoomPanKeyframes>
                <ZoomPanKeyframe id="423" timeRangeEnd="-9999999/1" timeRangeDuration="0/1" interpolaterName=""  />
               </ZoomPanKeyframes>
              </ZoomPanBin>
             </Entry>
             <Entry key="CursorEffectBin">
              <CursorEffectBin id="424"  >
               <CursorEffectKeyframes>
               </CursorEffectKeyframes>
              </CursorEffectBin>
             </Entry>
            </ExtraData>
           </ScreenVMFile>
           <ScreenVMFile id="425" start="4111" duration="24" scalar="1/1" mediaStart="5402/1" mediaDuration="24/1" trackNumber="0" src="4" >
            <Transformer>
             <VectorParam id="426"  name="translation">
              <InterpolatingParam id="427" interp="linr"  time="-9999999/1" value="0" leadInLength="0/1"  />
              <InterpolatingParam id="428" interp="linr"  time="-9999999/1" value="0" leadInLength="0/1"  />
              <InterpolatingParam id="429" interp="linr"  time="-9999999/1" value="0" leadInLength="0/1"  />
             </VectorParam>
             <VectorParam id="430"  name="rotation">
              <InterpolatingParam id="431" interp="linr"  time="-9999999/1" value="0" leadInLength="0/1"  />
              <InterpolatingParam id="432" interp="linr"  time="-9999999/1" value="0" leadInLength="0/1"  />
              <InterpolatingParam id="433" interp="linr"  time="-9999999/1" value="0" leadInLength="0/1"  />
             </VectorParam>
             <VectorParam id="434"  name="shear">
              <InterpolatingParam id="435" interp="linr"  time="-9999999/1" value="0" leadInLength="0/1"  />
              <InterpolatingParam id="436" interp="linr"  time="-9999999/1" value="0" leadInLength="0/1"  />
              <InterpolatingParam id="437" interp="linr"  time="-9999999/1" value="0" leadInLength="0/1"  />
             </VectorParam>
             <VectorParam id="438"  name="scale">
              <InterpolatingParam id="439" interp="linr"  time="-9999999/1" value="1" leadInLength="0/1"  />
              <InterpolatingParam id="440" interp="linr"  time="-9999999/1" value="1" leadInLength="0/1"  />
              <InterpolatingParam id="441" interp="linr"  time="-9999999/1" value="1" leadInLength="0/1"  />
             </VectorParam>
             <VectorParam id="442"  name="anchor">
              <InterpolatingParam id="443" interp="linr"  time="0/1" value="0" leadInLength="0/1"  />
              <InterpolatingParam id="444" interp="linr"  time="0/1" value="0" leadInLength="0/1"  />
              <InterpolatingParam id="445" interp="linr"  time="0/1" value="0" leadInLength="0/1"  />
             </VectorParam>
            </Transformer>
            <Parameters>
             <VectorParam id="446"  name="sourceCrop">
              <InterpolatingParam id="447" interp="linr"  time="0/1" value="0" leadInLength="0/1"  />
              <InterpolatingParam id="448" interp="linr"  time="0/1" value="0" leadInLength="0/1"  />
              <InterpolatingParam id="449" interp="linr"  time="0/1" value="0" leadInLength="0/1"  />
              <InterpolatingParam id="450" interp="linr"  time="0/1" value="0" leadInLength="0/1"  />
             </VectorParam>
             <VectorParam id="451"  name="geometryCrop">
              <InterpolatingParam id="452" interp="linr"  time="-9999999/1" value="0" leadInLength="0/1"  />
              <InterpolatingParam id="453" interp="linr"  time="-9999999/1" value="0" leadInLength="0/1"  />
              <InterpolatingParam id="454" interp="linr"  time="-9999999/1" value="0" leadInLength="0/1"  />
              <InterpolatingParam id="455" interp="linr"  time="-9999999/1" value="0" leadInLength="0/1"  />
             </VectorParam>
             <InterpolatingParam id="456" interp="linr"  time="-9999999/1" value="1" leadInLength="0/1"  name="opacity"/>
             <InterpolatingParam id="457" interp="linr"  time="0/1" value="0" leadInLength="0/1"  name="cursorOpacity"/>
             <InterpolatingParam id="458" interp="linr"  time="0/1" value="0" leadInLength="0/1"  name="cursorScale"/>
            </Parameters>
            <Attributes>
             <Attribute id="459" value="" name="ident"/>
            </Attributes>
            <MetaData>
             <entry key="AutoAppliedSmartFocus" val="False"/>
             <entry key="WinSubProjectDisplayName" val=""/>
            </MetaData>
            <ExtraData>
             <Entry key="ZoomPanBin">
              <ZoomPanBin id="460"  >
               <ZoomPanKeyframes>
                <ZoomPanKeyframe id="461" timeRangeEnd="-9999999/1" timeRangeDuration="0/1" interpolaterName=""  />
               </ZoomPanKeyframes>
              </ZoomPanBin>
             </Entry>
             <Entry key="CursorEffectBin">
              <CursorEffectBin id="462"  >
               <CursorEffectKeyframes>
               </CursorEffectKeyframes>
              </CursorEffectBin>
             </Entry>
            </ExtraData>
           </ScreenVMFile>
           <ScreenVMFile id="463" start="4135" duration="275" scalar="1/1" mediaStart="5460/1" mediaDuration="275/1" trackNumber="0" src="4" >
            <Transformer>
             <VectorParam id="464"  name="translation">
              <InterpolatingParam id="465" interp="linr"  time="-9999999/1" value="0" leadInLength="0/1"  />
              <InterpolatingParam id="466" interp="linr"  time="-9999999/1" value="0" leadInLength="0/1"  />
              <InterpolatingParam id="467" interp="linr"  time="-9999999/1" value="0" leadInLength="0/1"  />
             </VectorParam>
             <VectorParam id="468"  name="rotation">
              <InterpolatingParam id="469" interp="linr"  time="-9999999/1" value="0" leadInLength="0/1"  />
              <InterpolatingParam id="470" interp="linr"  time="-9999999/1" value="0" leadInLength="0/1"  />
              <InterpolatingParam id="471" interp="linr"  time="-9999999/1" value="0" leadInLength="0/1"  />
             </VectorParam>
             <VectorParam id="472"  name="shear">
              <InterpolatingParam id="473" interp="linr"  time="-9999999/1" value="0" leadInLength="0/1"  />
              <InterpolatingParam id="474" interp="linr"  time="-9999999/1" value="0" leadInLength="0/1"  />
              <InterpolatingParam id="475" interp="linr"  time="-9999999/1" value="0" leadInLength="0/1"  />
             </VectorParam>
             <VectorParam id="476"  name="scale">
              <InterpolatingParam id="477" interp="linr"  time="-9999999/1" value="1" leadInLength="0/1"  />
              <InterpolatingParam id="478" interp="linr"  time="-9999999/1" value="1" leadInLength="0/1"  />
              <InterpolatingParam id="479" interp="linr"  time="-9999999/1" value="1" leadInLength="0/1"  />
             </VectorParam>
             <VectorParam id="480"  name="anchor">
              <InterpolatingParam id="481" interp="linr"  time="0/1" value="0" leadInLength="0/1"  />
              <InterpolatingParam id="482" interp="linr"  time="0/1" value="0" leadInLength="0/1"  />
              <InterpolatingParam id="483" interp="linr"  time="0/1" value="0" leadInLength="0/1"  />
             </VectorParam>
            </Transformer>
            <Parameters>
             <VectorParam id="484"  name="sourceCrop">
              <InterpolatingParam id="485" interp="linr"  time="0/1" value="0" leadInLength="0/1"  />
              <InterpolatingParam id="486" interp="linr"  time="0/1" value="0" leadInLength="0/1"  />
              <InterpolatingParam id="487" interp="linr"  time="0/1" value="0" leadInLength="0/1"  />
              <InterpolatingParam id="488" interp="linr"  time="0/1" value="0" leadInLength="0/1"  />
             </VectorParam>
             <VectorParam id="489"  name="geometryCrop">
              <InterpolatingParam id="490" interp="linr"  time="-9999999/1" value="0" leadInLength="0/1"  />
              <InterpolatingParam id="491" interp="linr"  time="-9999999/1" value="0" leadInLength="0/1"  />
              <InterpolatingParam id="492" interp="linr"  time="-9999999/1" value="0" leadInLength="0/1"  />
              <InterpolatingParam id="493" interp="linr"  time="-9999999/1" value="0" leadInLength="0/1"  />
             </VectorParam>
             <InterpolatingParam id="494" interp="linr"  time="-9999999/1" value="1" leadInLength="0/1"  name="opacity"/>
             <InterpolatingParam id="495" interp="linr"  time="0/1" value="0" leadInLength="0/1"  name="cursorOpacity"/>
             <InterpolatingParam id="496" interp="linr"  time="0/1" value="0" leadInLength="0/1"  name="cursorScale"/>
            </Parameters>
            <Attributes>
             <Attribute id="497" value="" name="ident"/>
            </Attributes>
            <MetaData>
             <entry key="AutoAppliedSmartFocus" val="False"/>
             <entry key="WinSubProjectDisplayName" val=""/>
            </MetaData>
            <ExtraData>
             <Entry key="ZoomPanBin">
              <ZoomPanBin id="498"  >
               <ZoomPanKeyframes>
                <ZoomPanKeyframe id="499" timeRangeEnd="-9999999/1" timeRangeDuration="0/1" interpolaterName=""  />
               </ZoomPanKeyframes>
              </ZoomPanBin>
             </Entry>
             <Entry key="CursorEffectBin">
              <CursorEffectBin id="500"  >
               <CursorEffectKeyframes>
               </CursorEffectKeyframes>
              </CursorEffectBin>
             </Entry>
            </ExtraData>
           </ScreenVMFile>
           <ScreenVMFile id="501" start="4410" duration="414" scalar="1/1" mediaStart="5909/1" mediaDuration="414/1" trackNumber="0" src="4" >
            <Transformer>
             <VectorParam id="502"  name="translation">
              <InterpolatingParam id="503" interp="linr"  time="-9999999/1" value="0" leadInLength="0/1"  />
              <InterpolatingParam id="504" interp="linr"  time="-9999999/1" value="0" leadInLength="0/1"  />
              <InterpolatingParam id="505" interp="linr"  time="-9999999/1" value="0" leadInLength="0/1"  />
             </VectorParam>
             <VectorParam id="506"  name="rotation">
              <InterpolatingParam id="507" interp="linr"  time="-9999999/1" value="0" leadInLength="0/1"  />
              <InterpolatingParam id="508" interp="linr"  time="-9999999/1" value="0" leadInLength="0/1"  />
              <InterpolatingParam id="509" interp="linr"  time="-9999999/1" value="0" leadInLength="0/1"  />
             </VectorParam>
             <VectorParam id="510"  name="shear">
              <InterpolatingParam id="511" interp="linr"  time="-9999999/1" value="0" leadInLength="0/1"  />
              <InterpolatingParam id="512" interp="linr"  time="-9999999/1" value="0" leadInLength="0/1"  />
              <InterpolatingParam id="513" interp="linr"  time="-9999999/1" value="0" leadInLength="0/1"  />
             </VectorParam>
             <VectorParam id="514"  name="scale">
              <InterpolatingParam id="515" interp="linr"  time="-9999999/1" value="1" leadInLength="0/1"  />
              <InterpolatingParam id="516" interp="linr"  time="-9999999/1" value="1" leadInLength="0/1"  />
              <InterpolatingParam id="517" interp="linr"  time="-9999999/1" value="1" leadInLength="0/1"  />
             </VectorParam>
             <VectorParam id="518"  name="anchor">
              <InterpolatingParam id="519" interp="linr"  time="0/1" value="0" leadInLength="0/1"  />
              <InterpolatingParam id="520" interp="linr"  time="0/1" value="0" leadInLength="0/1"  />
              <InterpolatingParam id="521" interp="linr"  time="0/1" value="0" leadInLength="0/1"  />
             </VectorParam>
            </Transformer>
            <Parameters>
             <VectorParam id="522"  name="sourceCrop">
              <InterpolatingParam id="523" interp="linr"  time="0/1" value="0" leadInLength="0/1"  />
              <InterpolatingParam id="524" interp="linr"  time="0/1" value="0" leadInLength="0/1"  />
              <InterpolatingParam id="525" interp="linr"  time="0/1" value="0" leadInLength="0/1"  />
              <InterpolatingParam id="526" interp="linr"  time="0/1" value="0" leadInLength="0/1"  />
             </VectorParam>
             <VectorParam id="527"  name="geometryCrop">
              <InterpolatingParam id="528" interp="linr"  time="-9999999/1" value="0" leadInLength="0/1"  />
              <InterpolatingParam id="529" interp="linr"  time="-9999999/1" value="0" leadInLength="0/1"  />
              <InterpolatingParam id="530" interp="linr"  time="-9999999/1" value="0" leadInLength="0/1"  />
              <InterpolatingParam id="531" interp="linr"  time="-9999999/1" value="0" leadInLength="0/1"  />
             </VectorParam>
             <InterpolatingParam id="532" interp="linr"  time="-9999999/1" value="1" leadInLength="0/1"  name="opacity"/>
             <InterpolatingParam id="533" interp="linr"  time="0/1" value="0" leadInLength="0/1"  name="cursorOpacity"/>
             <InterpolatingParam id="534" interp="linr"  time="0/1" value="0" leadInLength="0/1"  name="cursorScale"/>
            </Parameters>
            <Attributes>
             <Attribute id="535" value="" name="ident"/>
            </Attributes>
            <MetaData>
             <entry key="AutoAppliedSmartFocus" val="False"/>
             <entry key="WinSubProjectDisplayName" val=""/>
            </MetaData>
            <ExtraData>
             <Entry key="ZoomPanBin">
              <ZoomPanBin id="536"  >
               <ZoomPanKeyframes>
                <ZoomPanKeyframe id="537" timeRangeEnd="-9999999/1" timeRangeDuration="0/1" interpolaterName=""  />
               </ZoomPanKeyframes>
              </ZoomPanBin>
             </Entry>
             <Entry key="CursorEffectBin">
              <CursorEffectBin id="538"  >
               <CursorEffectKeyframes>
               </CursorEffectKeyframes>
              </CursorEffectBin>
             </Entry>
            </ExtraData>
           </ScreenVMFile>
           <ScreenVMFile id="539" start="4824" duration="8509" scalar="1/1" mediaStart="6341/1" mediaDuration="8509/1" trackNumber="0" src="4" >
            <Transformer>
             <VectorParam id="540"  name="translation">
              <InterpolatingParam id="541" interp="linr"  time="-9999999/1" value="0" leadInLength="0/1"  />
              <InterpolatingParam id="542" interp="linr"  time="-9999999/1" value="0" leadInLength="0/1"  />
              <InterpolatingParam id="543" interp="linr"  time="-9999999/1" value="0" leadInLength="0/1"  />
             </VectorParam>
             <VectorParam id="544"  name="rotation">
              <InterpolatingParam id="545" interp="linr"  time="-9999999/1" value="0" leadInLength="0/1"  />
              <InterpolatingParam id="546" interp="linr"  time="-9999999/1" value="0" leadInLength="0/1"  />
              <InterpolatingParam id="547" interp="linr"  time="-9999999/1" value="0" leadInLength="0/1"  />
             </VectorParam>
             <VectorParam id="548"  name="shear">
              <InterpolatingParam id="549" interp="linr"  time="-9999999/1" value="0" leadInLength="0/1"  />
              <InterpolatingParam id="550" interp="linr"  time="-9999999/1" value="0" leadInLength="0/1"  />
              <InterpolatingParam id="551" interp="linr"  time="-9999999/1" value="0" leadInLength="0/1"  />
             </VectorParam>
             <VectorParam id="552"  name="scale">
              <InterpolatingParam id="553" interp="linr"  time="-9999999/1" value="1" leadInLength="0/1"  />
              <InterpolatingParam id="554" interp="linr"  time="-9999999/1" value="1" leadInLength="0/1"  />
              <InterpolatingParam id="555" interp="linr"  time="-9999999/1" value="1" leadInLength="0/1"  />
             </VectorParam>
             <VectorParam id="556"  name="anchor">
              <InterpolatingParam id="557" interp="linr"  time="0/1" value="0" leadInLength="0/1"  />
              <InterpolatingParam id="558" interp="linr"  time="0/1" value="0" leadInLength="0/1"  />
              <InterpolatingParam id="559" interp="linr"  time="0/1" value="0" leadInLength="0/1"  />
             </VectorParam>
            </Transformer>
            <Parameters>
             <VectorParam id="560"  name="sourceCrop">
              <InterpolatingParam id="561" interp="linr"  time="0/1" value="0" leadInLength="0/1"  />
              <InterpolatingParam id="562" interp="linr"  time="0/1" value="0" leadInLength="0/1"  />
              <InterpolatingParam id="563" interp="linr"  time="0/1" value="0" leadInLength="0/1"  />
              <InterpolatingParam id="564" interp="linr"  time="0/1" value="0" leadInLength="0/1"  />
             </VectorParam>
             <VectorParam id="565"  name="geometryCrop">
              <InterpolatingParam id="566" interp="linr"  time="-9999999/1" value="0" leadInLength="0/1"  />
              <InterpolatingParam id="567" interp="linr"  time="-9999999/1" value="0" leadInLength="0/1"  />
              <InterpolatingParam id="568" interp="linr"  time="-9999999/1" value="0" leadInLength="0/1"  />
              <InterpolatingParam id="569" interp="linr"  time="-9999999/1" value="0" leadInLength="0/1"  />
             </VectorParam>
             <InterpolatingParam id="570" interp="linr"  time="-9999999/1" value="1" leadInLength="0/1"  name="opacity"/>
             <InterpolatingParam id="571" interp="linr"  time="0/1" value="0" leadInLength="0/1"  name="cursorOpacity"/>
             <InterpolatingParam id="572" interp="linr"  time="0/1" value="0" leadInLength="0/1"  name="cursorScale"/>
            </Parameters>
            <Attributes>
             <Attribute id="573" value="" name="ident"/>
            </Attributes>
            <MetaData>
             <entry key="AutoAppliedSmartFocus" val="False"/>
             <entry key="WinSubProjectDisplayName" val=""/>
            </MetaData>
            <ExtraData>
             <Entry key="ZoomPanBin">
              <ZoomPanBin id="574"  >
               <ZoomPanKeyframes>
                <ZoomPanKeyframe id="575" timeRangeEnd="-9999999/1" timeRangeDuration="0/1" interpolaterName=""  />
               </ZoomPanKeyframes>
              </ZoomPanBin>
             </Entry>
             <Entry key="CursorEffectBin">
              <CursorEffectBin id="576"  >
               <CursorEffectKeyframes>
               </CursorEffectKeyframes>
              </CursorEffectBin>
             </Entry>
            </ExtraData>
           </ScreenVMFile>
          </Medias>
         </GenericTrack>
        </StitchedMedia>
        <StitchedMedia id="577" start="5267" duration="392" scalar="1/1" mediaStart="5322/1" mediaDuration="392/1" minMediaStart="0/1" >
         <Transformer>
          <VectorParam id="578"  name="translation">
           <InterpolatingParam id="579" interp="linr"  time="-9999999/1" value="0" leadInLength="0/1"  interpolater="leadin-linr"  />
           <InterpolatingParam id="580" interp="linr"  time="-9999999/1" value="0" leadInLength="0/1"  interpolater="leadin-linr"  />
           <InterpolatingParam id="581" interp="linr"  time="-9999999/1" value="0" leadInLength="0/1"  interpolater="leadin-linr"  />
          </VectorParam>
          <VectorParam id="582"  name="rotation">
           <InterpolatingParam id="583" interp="linr"  time="-9999999/1" value="0" leadInLength="0/1"  interpolater="leadin-linr"  />
           <InterpolatingParam id="584" interp="linr"  time="-9999999/1" value="0" leadInLength="0/1"  interpolater="leadin-linr"  />
           <InterpolatingParam id="585" interp="linr"  time="-9999999/1" value="0" leadInLength="0/1"  interpolater="leadin-linr"  />
          </VectorParam>
          <VectorParam id="586"  name="shear">
           <InterpolatingParam id="587" interp="linr"  time="-9999999/1" value="0" leadInLength="0/1"  interpolater="leadin-linr"  />
           <InterpolatingParam id="588" interp="linr"  time="-9999999/1" value="0" leadInLength="0/1"  interpolater="leadin-linr"  />
           <InterpolatingParam id="589" interp="linr"  time="-9999999/1" value="0" leadInLength="0/1"  interpolater="leadin-linr"  />
          </VectorParam>
          <VectorParam id="590"  name="scale">
           <InterpolatingParam id="591" interp="linr"  time="-9999999/1" value="0.73124999999999996" leadInLength="0/1"  interpolater="leadin-linr"  />
           <InterpolatingParam id="592" interp="linr"  time="-9999999/1" value="0.73124999999999996" leadInLength="0/1"  interpolater="leadin-linr"  />
           <InterpolatingParam id="593" interp="linr"  time="-9999999/1" value="1" leadInLength="0/1"  interpolater="leadin-linr"  />
          </VectorParam>
          <VectorParam id="594"  name="anchor">
           <InterpolatingParam id="595" interp="linr"  time="0/1" value="0" leadInLength="0/1"  />
           <InterpolatingParam id="596" interp="linr"  time="0/1" value="0" leadInLength="0/1"  />
           <InterpolatingParam id="597" interp="linr"  time="0/1" value="0" leadInLength="0/1"  />
          </VectorParam>
         </Transformer>
         <Parameters>
          <VectorParam id="598"  name="sourceCrop">
           <InterpolatingParam id="599" interp="linr"  time="0/1" value="0" leadInLength="0/1"  />
           <InterpolatingParam id="600" interp="linr"  time="0/1" value="0" leadInLength="0/1"  />
           <InterpolatingParam id="601" interp="linr"  time="0/1" value="0" leadInLength="0/1"  />
           <InterpolatingParam id="602" interp="linr"  time="0/1" value="0" leadInLength="0/1"  />
          </VectorParam>
          <VectorParam id="603"  name="geometryCrop">
           <InterpolatingParam id="604" interp="linr"  time="-9999999/1" value="0" leadInLength="0/1"  interpolater="leadin-linr"  />
           <InterpolatingParam id="605" interp="linr"  time="-9999999/1" value="0" leadInLength="0/1"  interpolater="leadin-linr"  />
           <InterpolatingParam id="606" interp="linr"  time="-9999999/1" value="0" leadInLength="0/1"  interpolater="leadin-linr"  />
           <InterpolatingParam id="607" interp="linr"  time="-9999999/1" value="0" leadInLength="0/1"  interpolater="leadin-linr"  />
          </VectorParam>
          <InterpolatingParam id="608" interp="linr"  time="-9999999/1" value="1" leadInLength="0/1"  interpolater="leadin-linr"  name="opacity"/>
          <InterpolatingParam id="609" interp="linr"  time="0/1" value="1" leadInLength="0/1"  name="cursorOpacity"/>
          <InterpolatingParam id="610" interp="linr"  time="0/1" value="1" leadInLength="0/1"  name="cursorScale"/>
          <Parameter id="611"  name="captions"/>
         </Parameters>
         <Effects>
          <GenericEffect id="612" name = "CursorBaseEffectName" >
           <Parameters>
           <InterpolatingParam id="613" interp="linr"  time="-9999999/1" value="1" leadInLength="0/1"   name="cursorSize"/>
           <InterpolatingParam id="614" interp="linr"  time="-9999999/1" value="0" leadInLength="0/1"   name="highlightBlurRadius"/>
           <InterpolatingParam id="615" interp="linr"  time="-9999999/1" value="0" leadInLength="0/1"   name="highlightColorBlue"/>
           <InterpolatingParam id="616" interp="linr"  time="-9999999/1" value="255" leadInLength="0/1"   name="highlightColorGreen"/>
           <InterpolatingParam id="617" interp="linr"  time="-9999999/1" value="255" leadInLength="0/1"   name="highlightColorRed"/>
           <InterpolatingParam id="618" interp="linr"  time="-9999999/1" value="5" leadInLength="0/1"   name="highlightFeatherSize"/>
           <InterpolatingParam id="619" interp="linr"  time="-9999999/1" value="2" leadInLength="0/1"   name="highlightMagnification"/>
           <InterpolatingParam id="620" interp="linr"  time="-9999999/1" value="1" leadInLength="0/1"   name="highlightOpacity"/>
           <InterpolatingParam id="621" interp="linr"  time="-9999999/1" value="45" leadInLength="0/1"   name="highlightSize"/>
           <Parameter id="622"   name="highlightType">
            <Keyframes>
            <Keyframe id="623"  time="-9999999/1" value="0" leadInLength="0/1"  />
            </Keyframes>
           </Parameter>
           <InterpolatingParam id="624" interp="linr"  time="-9999999/1" value="0" leadInLength="0/1"   name="leftClickColorBlue"/>
           <InterpolatingParam id="625" interp="linr"  time="-9999999/1" value="0" leadInLength="0/1"   name="leftClickColorGreen"/>
           <InterpolatingParam id="626" interp="linr"  time="-9999999/1" value="255" leadInLength="0/1"   name="leftClickColorRed"/>
           <InterpolatingParam id="627" interp="linr"  time="-9999999/1" value="0.80000000000000004" leadInLength="0/1"   name="leftClickDuration"/>
           <InterpolatingParam id="628" interp="linr"  time="-9999999/1" value="20" leadInLength="0/1"   name="leftClickSize"/>
           <Parameter id="629"   name="leftClickSoundFilename">
            <Keyframes>
            <Keyframe id="630"  time="-9999999/1" value="" leadInLength="0/1"  />
            </Keyframes>
           </Parameter>
           <InterpolatingParam id="631" interp="linr"  time="-9999999/1" value="1" leadInLength="0/1"   name="leftClickSoundVolume"/>
           <Parameter id="632"   name="leftClickType">
            <Keyframes>
            <Keyframe id="633"  time="-9999999/1" value="0" leadInLength="0/1"  />
            </Keyframes>
           </Parameter>
           <InterpolatingParam id="634" interp="linr"  time="-9999999/1" value="1" leadInLength="0/1"   name="opacity"/>
           <InterpolatingParam id="635" interp="linr"  time="-9999999/1" value="255" leadInLength="0/1"   name="rightClickColorBlue"/>
           <InterpolatingParam id="636" interp="linr"  time="-9999999/1" value="0" leadInLength="0/1"   name="rightClickColorGreen"/>
           <InterpolatingParam id="637" interp="linr"  time="-9999999/1" value="0" leadInLength="0/1"   name="rightClickColorRed"/>
           <InterpolatingParam id="638" interp="linr"  time="-9999999/1" value="0.80000000000000004" leadInLength="0/1"   name="rightClickDuration"/>
           <InterpolatingParam id="639" interp="linr"  time="-9999999/1" value="20" leadInLength="0/1"   name="rightClickSize"/>
           <Parameter id="640"   name="rightClickSoundFilename">
            <Keyframes>
            <Keyframe id="641"  time="-9999999/1" value="" leadInLength="0/1"  />
            </Keyframes>
           </Parameter>
           <InterpolatingParam id="642" interp="linr"  time="-9999999/1" value="1" leadInLength="0/1"   name="rightClickSoundVolume"/>
           <Parameter id="643"   name="rightClickType">
            <Keyframes>
            <Keyframe id="644"  time="-9999999/1" value="0" leadInLength="0/1"  />
            </Keyframes>
           </Parameter>
           </Parameters>
          </GenericEffect>
         </Effects>
         <Attributes>
          <Attribute id="645" value="" name="ident"/>
         </Attributes>
         <MetaData>
          <entry key="AutoAppliedSmartFocus" val="False"/>
          <entry key="WinSubProjectDisplayName" val=""/>
         </MetaData>
         <ExtraData>
          <Entry key="ZoomPanBin">
           <ZoomPanBin id="646"  >
            <ZoomPanKeyframes>
             <ZoomPanKeyframe id="647" timeRangeEnd="-9999999/1" timeRangeDuration="0/1" interpolaterName="linr"  />
            </ZoomPanKeyframes>
           </ZoomPanBin>
          </Entry>
          <Entry key="CursorEffectBin">
           <CursorEffectBin id="648"  >
            <CursorEffectKeyframes>
             <CursorEffectKeyframe id="649" timeRangeEnd="-9999999/1" timeRangeDuration="0/1" interpolaterName=""  />
            </CursorEffectKeyframes>
           </CursorEffectBin>
          </Entry>
         </ExtraData>
         <GenericTrack id="650"  >
          <Attributes>
           <Attribute id="651" value="" name="ident"/>
           <Attribute id="652" value="0" name="audioMuted"/>
           <Attribute id="653" value="0" name="videoHidden"/>
          </Attributes>
          <MetaData>
           <entry key="IsLocked" val="False"/>
           <entry key="WinTrackHeight" val="0"/>
          </MetaData>
          <Medias>
           <ScreenVMFile id="654" start="0" duration="420" scalar="1/1" mediaStart="0/1" mediaDuration="420/1" trackNumber="0" src="4" >
            <Transformer>
             <VectorParam id="655"  name="translation">
              <InterpolatingParam id="656" interp="linr"  time="-9999999/1" value="0" leadInLength="0/1"  />
              <InterpolatingParam id="657" interp="linr"  time="-9999999/1" value="0" leadInLength="0/1"  />
              <InterpolatingParam id="658" interp="linr"  time="-9999999/1" value="0" leadInLength="0/1"  />
             </VectorParam>
             <VectorParam id="659"  name="rotation">
              <InterpolatingParam id="660" interp="linr"  time="-9999999/1" value="0" leadInLength="0/1"  />
              <InterpolatingParam id="661" interp="linr"  time="-9999999/1" value="0" leadInLength="0/1"  />
              <InterpolatingParam id="662" interp="linr"  time="-9999999/1" value="0" leadInLength="0/1"  />
             </VectorParam>
             <VectorParam id="663"  name="shear">
              <InterpolatingParam id="664" interp="linr"  time="-9999999/1" value="0" leadInLength="0/1"  />
              <InterpolatingParam id="665" interp="linr"  time="-9999999/1" value="0" leadInLength="0/1"  />
              <InterpolatingParam id="666" interp="linr"  time="-9999999/1" value="0" leadInLength="0/1"  />
             </VectorParam>
             <VectorParam id="667"  name="scale">
              <InterpolatingParam id="668" interp="linr"  time="-9999999/1" value="1" leadInLength="0/1"  />
              <InterpolatingParam id="669" interp="linr"  time="-9999999/1" value="1" leadInLength="0/1"  />
              <InterpolatingParam id="670" interp="linr"  time="-9999999/1" value="1" leadInLength="0/1"  />
             </VectorParam>
             <VectorParam id="671"  name="anchor">
              <InterpolatingParam id="672" interp="linr"  time="0/1" value="0" leadInLength="0/1"  />
              <InterpolatingParam id="673" interp="linr"  time="0/1" value="0" leadInLength="0/1"  />
              <InterpolatingParam id="674" interp="linr"  time="0/1" value="0" leadInLength="0/1"  />
             </VectorParam>
            </Transformer>
            <Parameters>
             <VectorParam id="675"  name="sourceCrop">
              <InterpolatingParam id="676" interp="linr"  time="0/1" value="0" leadInLength="0/1"  />
              <InterpolatingParam id="677" interp="linr"  time="0/1" value="0" leadInLength="0/1"  />
              <InterpolatingParam id="678" interp="linr"  time="0/1" value="0" leadInLength="0/1"  />
              <InterpolatingParam id="679" interp="linr"  time="0/1" value="0" leadInLength="0/1"  />
             </VectorParam>
             <VectorParam id="680"  name="geometryCrop">
              <InterpolatingParam id="681" interp="linr"  time="-9999999/1" value="0" leadInLength="0/1"  />
              <InterpolatingParam id="682" interp="linr"  time="-9999999/1" value="0" leadInLength="0/1"  />
              <InterpolatingParam id="683" interp="linr"  time="-9999999/1" value="0" leadInLength="0/1"  />
              <InterpolatingParam id="684" interp="linr"  time="-9999999/1" value="0" leadInLength="0/1"  />
             </VectorParam>
             <InterpolatingParam id="685" interp="linr"  time="-9999999/1" value="1" leadInLength="0/1"  name="opacity"/>
             <InterpolatingParam id="686" interp="linr"  time="0/1" value="0" leadInLength="0/1"  name="cursorOpacity"/>
             <InterpolatingParam id="687" interp="linr"  time="0/1" value="0" leadInLength="0/1"  name="cursorScale"/>
            </Parameters>
            <Attributes>
             <Attribute id="688" value="" name="ident"/>
            </Attributes>
            <MetaData>
             <entry key="AutoAppliedSmartFocus" val="False"/>
             <entry key="WinSubProjectDisplayName" val=""/>
            </MetaData>
            <ExtraData>
             <Entry key="ZoomPanBin">
              <ZoomPanBin id="689"  >
               <ZoomPanKeyframes>
                <ZoomPanKeyframe id="690" timeRangeEnd="-9999999/1" timeRangeDuration="0/1" interpolaterName=""  />
               </ZoomPanKeyframes>
              </ZoomPanBin>
             </Entry>
             <Entry key="CursorEffectBin">
              <CursorEffectBin id="691"  >
               <CursorEffectKeyframes>
               </CursorEffectKeyframes>
              </CursorEffectBin>
             </Entry>
            </ExtraData>
           </ScreenVMFile>
           <ScreenVMFile id="692" start="420" duration="268" scalar="1/1" mediaStart="472/1" mediaDuration="268/1" trackNumber="0" src="4" >
            <Transformer>
             <VectorParam id="693"  name="translation">
              <InterpolatingParam id="694" interp="linr"  time="-9999999/1" value="0" leadInLength="0/1"  />
              <InterpolatingParam id="695" interp="linr"  time="-9999999/1" value="0" leadInLength="0/1"  />
              <InterpolatingParam id="696" interp="linr"  time="-9999999/1" value="0" leadInLength="0/1"  />
             </VectorParam>
             <VectorParam id="697"  name="rotation">
              <InterpolatingParam id="698" interp="linr"  time="-9999999/1" value="0" leadInLength="0/1"  />
              <InterpolatingParam id="699" interp="linr"  time="-9999999/1" value="0" leadInLength="0/1"  />
              <InterpolatingParam id="700" interp="linr"  time="-9999999/1" value="0" leadInLength="0/1"  />
             </VectorParam>
             <VectorParam id="701"  name="shear">
              <InterpolatingParam id="702" interp="linr"  time="-9999999/1" value="0" leadInLength="0/1"  />
              <InterpolatingParam id="703" interp="linr"  time="-9999999/1" value="0" leadInLength="0/1"  />
              <InterpolatingParam id="704" interp="linr"  time="-9999999/1" value="0" leadInLength="0/1"  />
             </VectorParam>
             <VectorParam id="705"  name="scale">
              <InterpolatingParam id="706" interp="linr"  time="-9999999/1" value="1" leadInLength="0/1"  />
              <InterpolatingParam id="707" interp="linr"  time="-9999999/1" value="1" leadInLength="0/1"  />
              <InterpolatingParam id="708" interp="linr"  time="-9999999/1" value="1" leadInLength="0/1"  />
             </VectorParam>
             <VectorParam id="709"  name="anchor">
              <InterpolatingParam id="710" interp="linr"  time="0/1" value="0" leadInLength="0/1"  />
              <InterpolatingParam id="711" interp="linr"  time="0/1" value="0" leadInLength="0/1"  />
              <InterpolatingParam id="712" interp="linr"  time="0/1" value="0" leadInLength="0/1"  />
             </VectorParam>
            </Transformer>
            <Parameters>
             <VectorParam id="713"  name="sourceCrop">
              <InterpolatingParam id="714" interp="linr"  time="0/1" value="0" leadInLength="0/1"  />
              <InterpolatingParam id="715" interp="linr"  time="0/1" value="0" leadInLength="0/1"  />
              <InterpolatingParam id="716" interp="linr"  time="0/1" value="0" leadInLength="0/1"  />
              <InterpolatingParam id="717" interp="linr"  time="0/1" value="0" leadInLength="0/1"  />
             </VectorParam>
             <VectorParam id="718"  name="geometryCrop">
              <InterpolatingParam id="719" interp="linr"  time="-9999999/1" value="0" leadInLength="0/1"  />
              <InterpolatingParam id="720" interp="linr"  time="-9999999/1" value="0" leadInLength="0/1"  />
              <InterpolatingParam id="721" interp="linr"  time="-9999999/1" value="0" leadInLength="0/1"  />
              <InterpolatingParam id="722" interp="linr"  time="-9999999/1" value="0" leadInLength="0/1"  />
             </VectorParam>
             <InterpolatingParam id="723" interp="linr"  time="-9999999/1" value="1" leadInLength="0/1"  name="opacity"/>
             <InterpolatingParam id="724" interp="linr"  time="0/1" value="0" leadInLength="0/1"  name="cursorOpacity"/>
             <InterpolatingParam id="725" interp="linr"  time="0/1" value="0" leadInLength="0/1"  name="cursorScale"/>
            </Parameters>
            <Attributes>
             <Attribute id="726" value="" name="ident"/>
            </Attributes>
            <MetaData>
             <entry key="AutoAppliedSmartFocus" val="False"/>
             <entry key="WinSubProjectDisplayName" val=""/>
            </MetaData>
            <ExtraData>
             <Entry key="ZoomPanBin">
              <ZoomPanBin id="727"  >
               <ZoomPanKeyframes>
                <ZoomPanKeyframe id="728" timeRangeEnd="-9999999/1" timeRangeDuration="0/1" interpolaterName=""  />
               </ZoomPanKeyframes>
              </ZoomPanBin>
             </Entry>
             <Entry key="CursorEffectBin">
              <CursorEffectBin id="729"  >
               <CursorEffectKeyframes>
               </CursorEffectKeyframes>
              </CursorEffectBin>
             </Entry>
            </ExtraData>
           </ScreenVMFile>
           <ScreenVMFile id="730" start="688" duration="1386" scalar="1/1" mediaStart="1658/1" mediaDuration="1386/1" trackNumber="0" src="4" >
            <Transformer>
             <VectorParam id="731"  name="translation">
              <InterpolatingParam id="732" interp="linr"  time="-9999999/1" value="0" leadInLength="0/1"  />
              <InterpolatingParam id="733" interp="linr"  time="-9999999/1" value="0" leadInLength="0/1"  />
              <InterpolatingParam id="734" interp="linr"  time="-9999999/1" value="0" leadInLength="0/1"  />
             </VectorParam>
             <VectorParam id="735"  name="rotation">
              <InterpolatingParam id="736" interp="linr"  time="-9999999/1" value="0" leadInLength="0/1"  />
              <InterpolatingParam id="737" interp="linr"  time="-9999999/1" value="0" leadInLength="0/1"  />
              <InterpolatingParam id="738" interp="linr"  time="-9999999/1" value="0" leadInLength="0/1"  />
             </VectorParam>
             <VectorParam id="739"  name="shear">
              <InterpolatingParam id="740" interp="linr"  time="-9999999/1" value="0" leadInLength="0/1"  />
              <InterpolatingParam id="741" interp="linr"  time="-9999999/1" value="0" leadInLength="0/1"  />
              <InterpolatingParam id="742" interp="linr"  time="-9999999/1" value="0" leadInLength="0/1"  />
             </VectorParam>
             <VectorParam id="743"  name="scale">
              <InterpolatingParam id="744" interp="linr"  time="-9999999/1" value="1" leadInLength="0/1"  />
              <InterpolatingParam id="745" interp="linr"  time="-9999999/1" value="1" leadInLength="0/1"  />
              <InterpolatingParam id="746" interp="linr"  time="-9999999/1" value="1" leadInLength="0/1"  />
             </VectorParam>
             <VectorParam id="747"  name="anchor">
              <InterpolatingParam id="748" interp="linr"  time="0/1" value="0" leadInLength="0/1"  />
              <InterpolatingParam id="749" interp="linr"  time="0/1" value="0" leadInLength="0/1"  />
              <InterpolatingParam id="750" interp="linr"  time="0/1" value="0" leadInLength="0/1"  />
             </VectorParam>
            </Transformer>
            <Parameters>
             <VectorParam id="751"  name="sourceCrop">
              <InterpolatingParam id="752" interp="linr"  time="0/1" value="0" leadInLength="0/1"  />
              <InterpolatingParam id="753" interp="linr"  time="0/1" value="0" leadInLength="0/1"  />
              <InterpolatingParam id="754" interp="linr"  time="0/1" value="0" leadInLength="0/1"  />
              <InterpolatingParam id="755" interp="linr"  time="0/1" value="0" leadInLength="0/1"  />
             </VectorParam>
             <VectorParam id="756"  name="geometryCrop">
              <InterpolatingParam id="757" interp="linr"  time="-9999999/1" value="0" leadInLength="0/1"  />
              <InterpolatingParam id="758" interp="linr"  time="-9999999/1" value="0" leadInLength="0/1"  />
              <InterpolatingParam id="759" interp="linr"  time="-9999999/1" value="0" leadInLength="0/1"  />
              <InterpolatingParam id="760" interp="linr"  time="-9999999/1" value="0" leadInLength="0/1"  />
             </VectorParam>
             <InterpolatingParam id="761" interp="linr"  time="-9999999/1" value="1" leadInLength="0/1"  name="opacity"/>
             <InterpolatingParam id="762" interp="linr"  time="0/1" value="0" leadInLength="0/1"  name="cursorOpacity"/>
             <InterpolatingParam id="763" interp="linr"  time="0/1" value="0" leadInLength="0/1"  name="cursorScale"/>
            </Parameters>
            <Attributes>
             <Attribute id="764" value="" name="ident"/>
            </Attributes>
            <MetaData>
             <entry key="AutoAppliedSmartFocus" val="False"/>
             <entry key="WinSubProjectDisplayName" val=""/>
            </MetaData>
            <ExtraData>
             <Entry key="ZoomPanBin">
              <ZoomPanBin id="765"  >
               <ZoomPanKeyframes>
                <ZoomPanKeyframe id="766" timeRangeEnd="-9999999/1" timeRangeDuration="0/1" interpolaterName=""  />
               </ZoomPanKeyframes>
              </ZoomPanBin>
             </Entry>
             <Entry key="CursorEffectBin">
              <CursorEffectBin id="767"  >
               <CursorEffectKeyframes>
               </CursorEffectKeyframes>
              </CursorEffectBin>
             </Entry>
            </ExtraData>
           </ScreenVMFile>
           <ScreenVMFile id="768" start="2074" duration="2037" scalar="1/1" mediaStart="3341/1" mediaDuration="2037/1" trackNumber="0" src="4" >
            <Transformer>
             <VectorParam id="769"  name="translation">
              <InterpolatingParam id="770" interp="linr"  time="-9999999/1" value="0" leadInLength="0/1"  />
              <InterpolatingParam id="771" interp="linr"  time="-9999999/1" value="0" leadInLength="0/1"  />
              <InterpolatingParam id="772" interp="linr"  time="-9999999/1" value="0" leadInLength="0/1"  />
             </VectorParam>
             <VectorParam id="773"  name="rotation">
              <InterpolatingParam id="774" interp="linr"  time="-9999999/1" value="0" leadInLength="0/1"  />
              <InterpolatingParam id="775" interp="linr"  time="-9999999/1" value="0" leadInLength="0/1"  />
              <InterpolatingParam id="776" interp="linr"  time="-9999999/1" value="0" leadInLength="0/1"  />
             </VectorParam>
             <VectorParam id="777"  name="shear">
              <InterpolatingParam id="778" interp="linr"  time="-9999999/1" value="0" leadInLength="0/1"  />
              <InterpolatingParam id="779" interp="linr"  time="-9999999/1" value="0" leadInLength="0/1"  />
              <InterpolatingParam id="780" interp="linr"  time="-9999999/1" value="0" leadInLength="0/1"  />
             </VectorParam>
             <VectorParam id="781"  name="scale">
              <InterpolatingParam id="782" interp="linr"  time="-9999999/1" value="1" leadInLength="0/1"  />
              <InterpolatingParam id="783" interp="linr"  time="-9999999/1" value="1" leadInLength="0/1"  />
              <InterpolatingParam id="784" interp="linr"  time="-9999999/1" value="1" leadInLength="0/1"  />
             </VectorParam>
             <VectorParam id="785"  name="anchor">
              <InterpolatingParam id="786" interp="linr"  time="0/1" value="0" leadInLength="0/1"  />
              <InterpolatingParam id="787" interp="linr"  time="0/1" value="0" leadInLength="0/1"  />
              <InterpolatingParam id="788" interp="linr"  time="0/1" value="0" leadInLength="0/1"  />
             </VectorParam>
            </Transformer>
            <Parameters>
             <VectorParam id="789"  name="sourceCrop">
              <InterpolatingParam id="790" interp="linr"  time="0/1" value="0" leadInLength="0/1"  />
              <InterpolatingParam id="791" interp="linr"  time="0/1" value="0" leadInLength="0/1"  />
              <InterpolatingParam id="792" interp="linr"  time="0/1" value="0" leadInLength="0/1"  />
              <InterpolatingParam id="793" interp="linr"  time="0/1" value="0" leadInLength="0/1"  />
             </VectorParam>
             <VectorParam id="794"  name="geometryCrop">
              <InterpolatingParam id="795" interp="linr"  time="-9999999/1" value="0" leadInLength="0/1"  />
              <InterpolatingParam id="796" interp="linr"  time="-9999999/1" value="0" leadInLength="0/1"  />
              <InterpolatingParam id="797" interp="linr"  time="-9999999/1" value="0" leadInLength="0/1"  />
              <InterpolatingParam id="798" interp="linr"  time="-9999999/1" value="0" leadInLength="0/1"  />
             </VectorParam>
             <InterpolatingParam id="799" interp="linr"  time="-9999999/1" value="1" leadInLength="0/1"  name="opacity"/>
             <InterpolatingParam id="800" interp="linr"  time="0/1" value="0" leadInLength="0/1"  name="cursorOpacity"/>
             <InterpolatingParam id="801" interp="linr"  time="0/1" value="0" leadInLength="0/1"  name="cursorScale"/>
            </Parameters>
            <Attributes>
             <Attribute id="802" value="" name="ident"/>
            </Attributes>
            <MetaData>
             <entry key="AutoAppliedSmartFocus" val="False"/>
             <entry key="WinSubProjectDisplayName" val=""/>
            </MetaData>
            <ExtraData>
             <Entry key="ZoomPanBin">
              <ZoomPanBin id="803"  >
               <ZoomPanKeyframes>
                <ZoomPanKeyframe id="804" timeRangeEnd="-9999999/1" timeRangeDuration="0/1" interpolaterName=""  />
               </ZoomPanKeyframes>
              </ZoomPanBin>
             </Entry>
             <Entry key="CursorEffectBin">
              <CursorEffectBin id="805"  >
               <CursorEffectKeyframes>
               </CursorEffectKeyframes>
              </CursorEffectBin>
             </Entry>
            </ExtraData>
           </ScreenVMFile>
           <ScreenVMFile id="806" start="4111" duration="24" scalar="1/1" mediaStart="5402/1" mediaDuration="24/1" trackNumber="0" src="4" >
            <Transformer>
             <VectorParam id="807"  name="translation">
              <InterpolatingParam id="808" interp="linr"  time="-9999999/1" value="0" leadInLength="0/1"  />
              <InterpolatingParam id="809" interp="linr"  time="-9999999/1" value="0" leadInLength="0/1"  />
              <InterpolatingParam id="810" interp="linr"  time="-9999999/1" value="0" leadInLength="0/1"  />
             </VectorParam>
             <VectorParam id="811"  name="rotation">
              <InterpolatingParam id="812" interp="linr"  time="-9999999/1" value="0" leadInLength="0/1"  />
              <InterpolatingParam id="813" interp="linr"  time="-9999999/1" value="0" leadInLength="0/1"  />
              <InterpolatingParam id="814" interp="linr"  time="-9999999/1" value="0" leadInLength="0/1"  />
             </VectorParam>
             <VectorParam id="815"  name="shear">
              <InterpolatingParam id="816" interp="linr"  time="-9999999/1" value="0" leadInLength="0/1"  />
              <InterpolatingParam id="817" interp="linr"  time="-9999999/1" value="0" leadInLength="0/1"  />
              <InterpolatingParam id="818" interp="linr"  time="-9999999/1" value="0" leadInLength="0/1"  />
             </VectorParam>
             <VectorParam id="819"  name="scale">
              <InterpolatingParam id="820" interp="linr"  time="-9999999/1" value="1" leadInLength="0/1"  />
              <InterpolatingParam id="821" interp="linr"  time="-9999999/1" value="1" leadInLength="0/1"  />
              <InterpolatingParam id="822" interp="linr"  time="-9999999/1" value="1" leadInLength="0/1"  />
             </VectorParam>
             <VectorParam id="823"  name="anchor">
              <InterpolatingParam id="824" interp="linr"  time="0/1" value="0" leadInLength="0/1"  />
              <InterpolatingParam id="825" interp="linr"  time="0/1" value="0" leadInLength="0/1"  />
              <InterpolatingParam id="826" interp="linr"  time="0/1" value="0" leadInLength="0/1"  />
             </VectorParam>
            </Transformer>
            <Parameters>
             <VectorParam id="827"  name="sourceCrop">
              <InterpolatingParam id="828" interp="linr"  time="0/1" value="0" leadInLength="0/1"  />
              <InterpolatingParam id="829" interp="linr"  time="0/1" value="0" leadInLength="0/1"  />
              <InterpolatingParam id="830" interp="linr"  time="0/1" value="0" leadInLength="0/1"  />
              <InterpolatingParam id="831" interp="linr"  time="0/1" value="0" leadInLength="0/1"  />
             </VectorParam>
             <VectorParam id="832"  name="geometryCrop">
              <InterpolatingParam id="833" interp="linr"  time="-9999999/1" value="0" leadInLength="0/1"  />
              <InterpolatingParam id="834" interp="linr"  time="-9999999/1" value="0" leadInLength="0/1"  />
              <InterpolatingParam id="835" interp="linr"  time="-9999999/1" value="0" leadInLength="0/1"  />
              <InterpolatingParam id="836" interp="linr"  time="-9999999/1" value="0" leadInLength="0/1"  />
             </VectorParam>
             <InterpolatingParam id="837" interp="linr"  time="-9999999/1" value="1" leadInLength="0/1"  name="opacity"/>
             <InterpolatingParam id="838" interp="linr"  time="0/1" value="0" leadInLength="0/1"  name="cursorOpacity"/>
             <InterpolatingParam id="839" interp="linr"  time="0/1" value="0" leadInLength="0/1"  name="cursorScale"/>
            </Parameters>
            <Attributes>
             <Attribute id="840" value="" name="ident"/>
            </Attributes>
            <MetaData>
             <entry key="AutoAppliedSmartFocus" val="False"/>
             <entry key="WinSubProjectDisplayName" val=""/>
            </MetaData>
            <ExtraData>
             <Entry key="ZoomPanBin">
              <ZoomPanBin id="841"  >
               <ZoomPanKeyframes>
                <ZoomPanKeyframe id="842" timeRangeEnd="-9999999/1" timeRangeDuration="0/1" interpolaterName=""  />
               </ZoomPanKeyframes>
              </ZoomPanBin>
             </Entry>
             <Entry key="CursorEffectBin">
              <CursorEffectBin id="843"  >
               <CursorEffectKeyframes>
               </CursorEffectKeyframes>
              </CursorEffectBin>
             </Entry>
            </ExtraData>
           </ScreenVMFile>
           <ScreenVMFile id="844" start="4135" duration="275" scalar="1/1" mediaStart="5460/1" mediaDuration="275/1" trackNumber="0" src="4" >
            <Transformer>
             <VectorParam id="845"  name="translation">
              <InterpolatingParam id="846" interp="linr"  time="-9999999/1" value="0" leadInLength="0/1"  />
              <InterpolatingParam id="847" interp="linr"  time="-9999999/1" value="0" leadInLength="0/1"  />
              <InterpolatingParam id="848" interp="linr"  time="-9999999/1" value="0" leadInLength="0/1"  />
             </VectorParam>
             <VectorParam id="849"  name="rotation">
              <InterpolatingParam id="850" interp="linr"  time="-9999999/1" value="0" leadInLength="0/1"  />
              <InterpolatingParam id="851" interp="linr"  time="-9999999/1" value="0" leadInLength="0/1"  />
              <InterpolatingParam id="852" interp="linr"  time="-9999999/1" value="0" leadInLength="0/1"  />
             </VectorParam>
             <VectorParam id="853"  name="shear">
              <InterpolatingParam id="854" interp="linr"  time="-9999999/1" value="0" leadInLength="0/1"  />
              <InterpolatingParam id="855" interp="linr"  time="-9999999/1" value="0" leadInLength="0/1"  />
              <InterpolatingParam id="856" interp="linr"  time="-9999999/1" value="0" leadInLength="0/1"  />
             </VectorParam>
             <VectorParam id="857"  name="scale">
              <InterpolatingParam id="858" interp="linr"  time="-9999999/1" value="1" leadInLength="0/1"  />
              <InterpolatingParam id="859" interp="linr"  time="-9999999/1" value="1" leadInLength="0/1"  />
              <InterpolatingParam id="860" interp="linr"  time="-9999999/1" value="1" leadInLength="0/1"  />
             </VectorParam>
             <VectorParam id="861"  name="anchor">
              <InterpolatingParam id="862" interp="linr"  time="0/1" value="0" leadInLength="0/1"  />
              <InterpolatingParam id="863" interp="linr"  time="0/1" value="0" leadInLength="0/1"  />
              <InterpolatingParam id="864" interp="linr"  time="0/1" value="0" leadInLength="0/1"  />
             </VectorParam>
            </Transformer>
            <Parameters>
             <VectorParam id="865"  name="sourceCrop">
              <InterpolatingParam id="866" interp="linr"  time="0/1" value="0" leadInLength="0/1"  />
              <InterpolatingParam id="867" interp="linr"  time="0/1" value="0" leadInLength="0/1"  />
              <InterpolatingParam id="868" interp="linr"  time="0/1" value="0" leadInLength="0/1"  />
              <InterpolatingParam id="869" interp="linr"  time="0/1" value="0" leadInLength="0/1"  />
             </VectorParam>
             <VectorParam id="870"  name="geometryCrop">
              <InterpolatingParam id="871" interp="linr"  time="-9999999/1" value="0" leadInLength="0/1"  />
              <InterpolatingParam id="872" interp="linr"  time="-9999999/1" value="0" leadInLength="0/1"  />
              <InterpolatingParam id="873" interp="linr"  time="-9999999/1" value="0" leadInLength="0/1"  />
              <InterpolatingParam id="874" interp="linr"  time="-9999999/1" value="0" leadInLength="0/1"  />
             </VectorParam>
             <InterpolatingParam id="875" interp="linr"  time="-9999999/1" value="1" leadInLength="0/1"  name="opacity"/>
             <InterpolatingParam id="876" interp="linr"  time="0/1" value="0" leadInLength="0/1"  name="cursorOpacity"/>
             <InterpolatingParam id="877" interp="linr"  time="0/1" value="0" leadInLength="0/1"  name="cursorScale"/>
            </Parameters>
            <Attributes>
             <Attribute id="878" value="" name="ident"/>
            </Attributes>
            <MetaData>
             <entry key="AutoAppliedSmartFocus" val="False"/>
             <entry key="WinSubProjectDisplayName" val=""/>
            </MetaData>
            <ExtraData>
             <Entry key="ZoomPanBin">
              <ZoomPanBin id="879"  >
               <ZoomPanKeyframes>
                <ZoomPanKeyframe id="880" timeRangeEnd="-9999999/1" timeRangeDuration="0/1" interpolaterName=""  />
               </ZoomPanKeyframes>
              </ZoomPanBin>
             </Entry>
             <Entry key="CursorEffectBin">
              <CursorEffectBin id="881"  >
               <CursorEffectKeyframes>
               </CursorEffectKeyframes>
              </CursorEffectBin>
             </Entry>
            </ExtraData>
           </ScreenVMFile>
           <ScreenVMFile id="882" start="4410" duration="414" scalar="1/1" mediaStart="5909/1" mediaDuration="414/1" trackNumber="0" src="4" >
            <Transformer>
             <VectorParam id="883"  name="translation">
              <InterpolatingParam id="884" interp="linr"  time="-9999999/1" value="0" leadInLength="0/1"  />
              <InterpolatingParam id="885" interp="linr"  time="-9999999/1" value="0" leadInLength="0/1"  />
              <InterpolatingParam id="886" interp="linr"  time="-9999999/1" value="0" leadInLength="0/1"  />
             </VectorParam>
             <VectorParam id="887"  name="rotation">
              <InterpolatingParam id="888" interp="linr"  time="-9999999/1" value="0" leadInLength="0/1"  />
              <InterpolatingParam id="889" interp="linr"  time="-9999999/1" value="0" leadInLength="0/1"  />
              <InterpolatingParam id="890" interp="linr"  time="-9999999/1" value="0" leadInLength="0/1"  />
             </VectorParam>
             <VectorParam id="891"  name="shear">
              <InterpolatingParam id="892" interp="linr"  time="-9999999/1" value="0" leadInLength="0/1"  />
              <InterpolatingParam id="893" interp="linr"  time="-9999999/1" value="0" leadInLength="0/1"  />
              <InterpolatingParam id="894" interp="linr"  time="-9999999/1" value="0" leadInLength="0/1"  />
             </VectorParam>
             <VectorParam id="895"  name="scale">
              <InterpolatingParam id="896" interp="linr"  time="-9999999/1" value="1" leadInLength="0/1"  />
              <InterpolatingParam id="897" interp="linr"  time="-9999999/1" value="1" leadInLength="0/1"  />
              <InterpolatingParam id="898" interp="linr"  time="-9999999/1" value="1" leadInLength="0/1"  />
             </VectorParam>
             <VectorParam id="899"  name="anchor">
              <InterpolatingParam id="900" interp="linr"  time="0/1" value="0" leadInLength="0/1"  />
              <InterpolatingParam id="901" interp="linr"  time="0/1" value="0" leadInLength="0/1"  />
              <InterpolatingParam id="902" interp="linr"  time="0/1" value="0" leadInLength="0/1"  />
             </VectorParam>
            </Transformer>
            <Parameters>
             <VectorParam id="903"  name="sourceCrop">
              <InterpolatingParam id="904" interp="linr"  time="0/1" value="0" leadInLength="0/1"  />
              <InterpolatingParam id="905" interp="linr"  time="0/1" value="0" leadInLength="0/1"  />
              <InterpolatingParam id="906" interp="linr"  time="0/1" value="0" leadInLength="0/1"  />
              <InterpolatingParam id="907" interp="linr"  time="0/1" value="0" leadInLength="0/1"  />
             </VectorParam>
             <VectorParam id="908"  name="geometryCrop">
              <InterpolatingParam id="909" interp="linr"  time="-9999999/1" value="0" leadInLength="0/1"  />
              <InterpolatingParam id="910" interp="linr"  time="-9999999/1" value="0" leadInLength="0/1"  />
              <InterpolatingParam id="911" interp="linr"  time="-9999999/1" value="0" leadInLength="0/1"  />
              <InterpolatingParam id="912" interp="linr"  time="-9999999/1" value="0" leadInLength="0/1"  />
             </VectorParam>
             <InterpolatingParam id="913" interp="linr"  time="-9999999/1" value="1" leadInLength="0/1"  name="opacity"/>
             <InterpolatingParam id="914" interp="linr"  time="0/1" value="0" leadInLength="0/1"  name="cursorOpacity"/>
             <InterpolatingParam id="915" interp="linr"  time="0/1" value="0" leadInLength="0/1"  name="cursorScale"/>
            </Parameters>
            <Attributes>
             <Attribute id="916" value="" name="ident"/>
            </Attributes>
            <MetaData>
             <entry key="AutoAppliedSmartFocus" val="False"/>
             <entry key="WinSubProjectDisplayName" val=""/>
            </MetaData>
            <ExtraData>
             <Entry key="ZoomPanBin">
              <ZoomPanBin id="917"  >
               <ZoomPanKeyframes>
                <ZoomPanKeyframe id="918" timeRangeEnd="-9999999/1" timeRangeDuration="0/1" interpolaterName=""  />
               </ZoomPanKeyframes>
              </ZoomPanBin>
             </Entry>
             <Entry key="CursorEffectBin">
              <CursorEffectBin id="919"  >
               <CursorEffectKeyframes>
               </CursorEffectKeyframes>
              </CursorEffectBin>
             </Entry>
            </ExtraData>
           </ScreenVMFile>
           <ScreenVMFile id="920" start="4824" duration="8509" scalar="1/1" mediaStart="6341/1" mediaDuration="8509/1" trackNumber="0" src="4" >
            <Transformer>
             <VectorParam id="921"  name="translation">
              <InterpolatingParam id="922" interp="linr"  time="-9999999/1" value="0" leadInLength="0/1"  />
              <InterpolatingParam id="923" interp="linr"  time="-9999999/1" value="0" leadInLength="0/1"  />
              <InterpolatingParam id="924" interp="linr"  time="-9999999/1" value="0" leadInLength="0/1"  />
             </VectorParam>
             <VectorParam id="925"  name="rotation">
              <InterpolatingParam id="926" interp="linr"  time="-9999999/1" value="0" leadInLength="0/1"  />
              <InterpolatingParam id="927" interp="linr"  time="-9999999/1" value="0" leadInLength="0/1"  />
              <InterpolatingParam id="928" interp="linr"  time="-9999999/1" value="0" leadInLength="0/1"  />
             </VectorParam>
             <VectorParam id="929"  name="shear">
              <InterpolatingParam id="930" interp="linr"  time="-9999999/1" value="0" leadInLength="0/1"  />
              <InterpolatingParam id="931" interp="linr"  time="-9999999/1" value="0" leadInLength="0/1"  />
              <InterpolatingParam id="932" interp="linr"  time="-9999999/1" value="0" leadInLength="0/1"  />
             </VectorParam>
             <VectorParam id="933"  name="scale">
              <InterpolatingParam id="934" interp="linr"  time="-9999999/1" value="1" leadInLength="0/1"  />
              <InterpolatingParam id="935" interp="linr"  time="-9999999/1" value="1" leadInLength="0/1"  />
              <InterpolatingParam id="936" interp="linr"  time="-9999999/1" value="1" leadInLength="0/1"  />
             </VectorParam>
             <VectorParam id="937"  name="anchor">
              <InterpolatingParam id="938" interp="linr"  time="0/1" value="0" leadInLength="0/1"  />
              <InterpolatingParam id="939" interp="linr"  time="0/1" value="0" leadInLength="0/1"  />
              <InterpolatingParam id="940" interp="linr"  time="0/1" value="0" leadInLength="0/1"  />
             </VectorParam>
            </Transformer>
            <Parameters>
             <VectorParam id="941"  name="sourceCrop">
              <InterpolatingParam id="942" interp="linr"  time="0/1" value="0" leadInLength="0/1"  />
              <InterpolatingParam id="943" interp="linr"  time="0/1" value="0" leadInLength="0/1"  />
              <InterpolatingParam id="944" interp="linr"  time="0/1" value="0" leadInLength="0/1"  />
              <InterpolatingParam id="945" interp="linr"  time="0/1" value="0" leadInLength="0/1"  />
             </VectorParam>
             <VectorParam id="946"  name="geometryCrop">
              <InterpolatingParam id="947" interp="linr"  time="-9999999/1" value="0" leadInLength="0/1"  />
              <InterpolatingParam id="948" interp="linr"  time="-9999999/1" value="0" leadInLength="0/1"  />
              <InterpolatingParam id="949" interp="linr"  time="-9999999/1" value="0" leadInLength="0/1"  />
              <InterpolatingParam id="950" interp="linr"  time="-9999999/1" value="0" leadInLength="0/1"  />
             </VectorParam>
             <InterpolatingParam id="951" interp="linr"  time="-9999999/1" value="1" leadInLength="0/1"  name="opacity"/>
             <InterpolatingParam id="952" interp="linr"  time="0/1" value="0" leadInLength="0/1"  name="cursorOpacity"/>
             <InterpolatingParam id="953" interp="linr"  time="0/1" value="0" leadInLength="0/1"  name="cursorScale"/>
            </Parameters>
            <Attributes>
             <Attribute id="954" value="" name="ident"/>
            </Attributes>
            <MetaData>
             <entry key="AutoAppliedSmartFocus" val="False"/>
             <entry key="WinSubProjectDisplayName" val=""/>
            </MetaData>
            <ExtraData>
             <Entry key="ZoomPanBin">
              <ZoomPanBin id="955"  >
               <ZoomPanKeyframes>
                <ZoomPanKeyframe id="956" timeRangeEnd="-9999999/1" timeRangeDuration="0/1" interpolaterName=""  />
               </ZoomPanKeyframes>
              </ZoomPanBin>
             </Entry>
             <Entry key="CursorEffectBin">
              <CursorEffectBin id="957"  >
               <CursorEffectKeyframes>
               </CursorEffectKeyframes>
              </CursorEffectBin>
             </Entry>
            </ExtraData>
           </ScreenVMFile>
          </Medias>
         </GenericTrack>
        </StitchedMedia>
        <StitchedMedia id="958" start="5659" duration="2537" scalar="1/1" mediaStart="5714/1" mediaDuration="2537/1" minMediaStart="0/1" >
         <Transformer>
          <VectorParam id="959"  name="translation">
           <InterpolatingParam id="960" interp="linr"  time="-9999999/1" value="0" leadInLength="0/1"  interpolater="leadin-linr"  />
           <InterpolatingParam id="961" interp="linr"  time="-9999999/1" value="0" leadInLength="0/1"  interpolater="leadin-linr"  />
           <InterpolatingParam id="962" interp="linr"  time="-9999999/1" value="0" leadInLength="0/1"  interpolater="leadin-linr"  />
          </VectorParam>
          <VectorParam id="963"  name="rotation">
           <InterpolatingParam id="964" interp="linr"  time="-9999999/1" value="0" leadInLength="0/1"  interpolater="leadin-linr"  />
           <InterpolatingParam id="965" interp="linr"  time="-9999999/1" value="0" leadInLength="0/1"  interpolater="leadin-linr"  />
           <InterpolatingParam id="966" interp="linr"  time="-9999999/1" value="0" leadInLength="0/1"  interpolater="leadin-linr"  />
          </VectorParam>
          <VectorParam id="967"  name="shear">
           <InterpolatingParam id="968" interp="linr"  time="-9999999/1" value="0" leadInLength="0/1"  interpolater="leadin-linr"  />
           <InterpolatingParam id="969" interp="linr"  time="-9999999/1" value="0" leadInLength="0/1"  interpolater="leadin-linr"  />
           <InterpolatingParam id="970" interp="linr"  time="-9999999/1" value="0" leadInLength="0/1"  interpolater="leadin-linr"  />
          </VectorParam>
          <VectorParam id="971"  name="scale">
           <InterpolatingParam id="972" interp="linr"  time="-9999999/1" value="0.73124999999999996" leadInLength="0/1"  interpolater="leadin-linr"  />
           <InterpolatingParam id="973" interp="linr"  time="-9999999/1" value="0.73124999999999996" leadInLength="0/1"  interpolater="leadin-linr"  />
           <InterpolatingParam id="974" interp="linr"  time="-9999999/1" value="1" leadInLength="0/1"  interpolater="leadin-linr"  />
          </VectorParam>
          <VectorParam id="975"  name="anchor">
           <InterpolatingParam id="976" interp="linr"  time="0/1" value="0" leadInLength="0/1"  />
           <InterpolatingParam id="977" interp="linr"  time="0/1" value="0" leadInLength="0/1"  />
           <InterpolatingParam id="978" interp="linr"  time="0/1" value="0" leadInLength="0/1"  />
          </VectorParam>
         </Transformer>
         <Parameters>
          <VectorParam id="979"  name="sourceCrop">
           <InterpolatingParam id="980" interp="linr"  time="0/1" value="0" leadInLength="0/1"  />
           <InterpolatingParam id="981" interp="linr"  time="0/1" value="0" leadInLength="0/1"  />
           <InterpolatingParam id="982" interp="linr"  time="0/1" value="0" leadInLength="0/1"  />
           <InterpolatingParam id="983" interp="linr"  time="0/1" value="0" leadInLength="0/1"  />
          </VectorParam>
          <VectorParam id="984"  name="geometryCrop">
           <InterpolatingParam id="985" interp="linr"  time="-9999999/1" value="0" leadInLength="0/1"  interpolater="leadin-linr"  />
           <InterpolatingParam id="986" interp="linr"  time="-9999999/1" value="0" leadInLength="0/1"  interpolater="leadin-linr"  />
           <InterpolatingParam id="987" interp="linr"  time="-9999999/1" value="0" leadInLength="0/1"  interpolater="leadin-linr"  />
           <InterpolatingParam id="988" interp="linr"  time="-9999999/1" value="0" leadInLength="0/1"  interpolater="leadin-linr"  />
          </VectorParam>
          <InterpolatingParam id="989" interp="linr"  time="-9999999/1" value="1" leadInLength="0/1"  interpolater="leadin-linr"  name="opacity"/>
          <InterpolatingParam id="990" interp="linr"  time="0/1" value="1" leadInLength="0/1"  name="cursorOpacity"/>
          <InterpolatingParam id="991" interp="linr"  time="0/1" value="1" leadInLength="0/1"  name="cursorScale"/>
          <Parameter id="992"  name="captions"/>
         </Parameters>
         <Effects>
          <GenericEffect id="993" name = "CursorBaseEffectName" >
           <Parameters>
           <InterpolatingParam id="994" interp="linr"  time="-9999999/1" value="1" leadInLength="0/1"   name="cursorSize"/>
           <InterpolatingParam id="995" interp="linr"  time="-9999999/1" value="0" leadInLength="0/1"   name="highlightBlurRadius"/>
           <InterpolatingParam id="996" interp="linr"  time="-9999999/1" value="0" leadInLength="0/1"   name="highlightColorBlue"/>
           <InterpolatingParam id="997" interp="linr"  time="-9999999/1" value="255" leadInLength="0/1"   name="highlightColorGreen"/>
           <InterpolatingParam id="998" interp="linr"  time="-9999999/1" value="255" leadInLength="0/1"   name="highlightColorRed"/>
           <InterpolatingParam id="999" interp="linr"  time="-9999999/1" value="5" leadInLength="0/1"   name="highlightFeatherSize"/>
           <InterpolatingParam id="1000" interp="linr"  time="-9999999/1" value="2" leadInLength="0/1"   name="highlightMagnification"/>
           <InterpolatingParam id="1001" interp="linr"  time="-9999999/1" value="1" leadInLength="0/1"   name="highlightOpacity"/>
           <InterpolatingParam id="1002" interp="linr"  time="-9999999/1" value="45" leadInLength="0/1"   name="highlightSize"/>
           <Parameter id="1003"   name="highlightType">
            <Keyframes>
            <Keyframe id="1004"  time="-9999999/1" value="0" leadInLength="0/1"  />
            </Keyframes>
           </Parameter>
           <InterpolatingParam id="1005" interp="linr"  time="-9999999/1" value="0" leadInLength="0/1"   name="leftClickColorBlue"/>
           <InterpolatingParam id="1006" interp="linr"  time="-9999999/1" value="0" leadInLength="0/1"   name="leftClickColorGreen"/>
           <InterpolatingParam id="1007" interp="linr"  time="-9999999/1" value="255" leadInLength="0/1"   name="leftClickColorRed"/>
           <InterpolatingParam id="1008" interp="linr"  time="-9999999/1" value="0.80000000000000004" leadInLength="0/1"   name="leftClickDuration"/>
           <InterpolatingParam id="1009" interp="linr"  time="-9999999/1" value="20" leadInLength="0/1"   name="leftClickSize"/>
           <Parameter id="1010"   name="leftClickSoundFilename">
            <Keyframes>
            <Keyframe id="1011"  time="-9999999/1" value="" leadInLength="0/1"  />
            </Keyframes>
           </Parameter>
           <InterpolatingParam id="1012" interp="linr"  time="-9999999/1" value="1" leadInLength="0/1"   name="leftClickSoundVolume"/>
           <Parameter id="1013"   name="leftClickType">
            <Keyframes>
            <Keyframe id="1014"  time="-9999999/1" value="0" leadInLength="0/1"  />
            </Keyframes>
           </Parameter>
           <InterpolatingParam id="1015" interp="linr"  time="-9999999/1" value="1" leadInLength="0/1"   name="opacity"/>
           <InterpolatingParam id="1016" interp="linr"  time="-9999999/1" value="255" leadInLength="0/1"   name="rightClickColorBlue"/>
           <InterpolatingParam id="1017" interp="linr"  time="-9999999/1" value="0" leadInLength="0/1"   name="rightClickColorGreen"/>
           <InterpolatingParam id="1018" interp="linr"  time="-9999999/1" value="0" leadInLength="0/1"   name="rightClickColorRed"/>
           <InterpolatingParam id="1019" interp="linr"  time="-9999999/1" value="0.80000000000000004" leadInLength="0/1"   name="rightClickDuration"/>
           <InterpolatingParam id="1020" interp="linr"  time="-9999999/1" value="20" leadInLength="0/1"   name="rightClickSize"/>
           <Parameter id="1021"   name="rightClickSoundFilename">
            <Keyframes>
            <Keyframe id="1022"  time="-9999999/1" value="" leadInLength="0/1"  />
            </Keyframes>
           </Parameter>
           <InterpolatingParam id="1023" interp="linr"  time="-9999999/1" value="1" leadInLength="0/1"   name="rightClickSoundVolume"/>
           <Parameter id="1024"   name="rightClickType">
            <Keyframes>
            <Keyframe id="1025"  time="-9999999/1" value="0" leadInLength="0/1"  />
            </Keyframes>
           </Parameter>
           </Parameters>
          </GenericEffect>
         </Effects>
         <Attributes>
          <Attribute id="1026" value="" name="ident"/>
         </Attributes>
         <MetaData>
          <entry key="AutoAppliedSmartFocus" val="False"/>
          <entry key="WinSubProjectDisplayName" val=""/>
         </MetaData>
         <ExtraData>
          <Entry key="ZoomPanBin">
           <ZoomPanBin id="1027"  >
            <ZoomPanKeyframes>
             <ZoomPanKeyframe id="1028" timeRangeEnd="-9999999/1" timeRangeDuration="0/1" interpolaterName="linr"  />
            </ZoomPanKeyframes>
           </ZoomPanBin>
          </Entry>
          <Entry key="CursorEffectBin">
           <CursorEffectBin id="1029"  >
            <CursorEffectKeyframes>
             <CursorEffectKeyframe id="1030" timeRangeEnd="-9999999/1" timeRangeDuration="0/1" interpolaterName=""  />
            </CursorEffectKeyframes>
           </CursorEffectBin>
          </Entry>
         </ExtraData>
         <GenericTrack id="1031"  >
          <Attributes>
           <Attribute id="1032" value="" name="ident"/>
           <Attribute id="1033" value="0" name="audioMuted"/>
           <Attribute id="1034" value="0" name="videoHidden"/>
          </Attributes>
          <MetaData>
           <entry key="IsLocked" val="False"/>
           <entry key="WinTrackHeight" val="0"/>
          </MetaData>
          <Medias>
           <ScreenVMFile id="1035" start="0" duration="420" scalar="1/1" mediaStart="0/1" mediaDuration="420/1" trackNumber="0" src="4" >
            <Transformer>
             <VectorParam id="1036"  name="translation">
              <InterpolatingParam id="1037" interp="linr"  time="-9999999/1" value="0" leadInLength="0/1"  />
              <InterpolatingParam id="1038" interp="linr"  time="-9999999/1" value="0" leadInLength="0/1"  />
              <InterpolatingParam id="1039" interp="linr"  time="-9999999/1" value="0" leadInLength="0/1"  />
             </VectorParam>
             <VectorParam id="1040"  name="rotation">
              <InterpolatingParam id="1041" interp="linr"  time="-9999999/1" value="0" leadInLength="0/1"  />
              <InterpolatingParam id="1042" interp="linr"  time="-9999999/1" value="0" leadInLength="0/1"  />
              <InterpolatingParam id="1043" interp="linr"  time="-9999999/1" value="0" leadInLength="0/1"  />
             </VectorParam>
             <VectorParam id="1044"  name="shear">
              <InterpolatingParam id="1045" interp="linr"  time="-9999999/1" value="0" leadInLength="0/1"  />
              <InterpolatingParam id="1046" interp="linr"  time="-9999999/1" value="0" leadInLength="0/1"  />
              <InterpolatingParam id="1047" interp="linr"  time="-9999999/1" value="0" leadInLength="0/1"  />
             </VectorParam>
             <VectorParam id="1048"  name="scale">
              <InterpolatingParam id="1049" interp="linr"  time="-9999999/1" value="1" leadInLength="0/1"  />
              <InterpolatingParam id="1050" interp="linr"  time="-9999999/1" value="1" leadInLength="0/1"  />
              <InterpolatingParam id="1051" interp="linr"  time="-9999999/1" value="1" leadInLength="0/1"  />
             </VectorParam>
             <VectorParam id="1052"  name="anchor">
              <InterpolatingParam id="1053" interp="linr"  time="0/1" value="0" leadInLength="0/1"  />
              <InterpolatingParam id="1054" interp="linr"  time="0/1" value="0" leadInLength="0/1"  />
              <InterpolatingParam id="1055" interp="linr"  time="0/1" value="0" leadInLength="0/1"  />
             </VectorParam>
            </Transformer>
            <Parameters>
             <VectorParam id="1056"  name="sourceCrop">
              <InterpolatingParam id="1057" interp="linr"  time="0/1" value="0" leadInLength="0/1"  />
              <InterpolatingParam id="1058" interp="linr"  time="0/1" value="0" leadInLength="0/1"  />
              <InterpolatingParam id="1059" interp="linr"  time="0/1" value="0" leadInLength="0/1"  />
              <InterpolatingParam id="1060" interp="linr"  time="0/1" value="0" leadInLength="0/1"  />
             </VectorParam>
             <VectorParam id="1061"  name="geometryCrop">
              <InterpolatingParam id="1062" interp="linr"  time="-9999999/1" value="0" leadInLength="0/1"  />
              <InterpolatingParam id="1063" interp="linr"  time="-9999999/1" value="0" leadInLength="0/1"  />
              <InterpolatingParam id="1064" interp="linr"  time="-9999999/1" value="0" leadInLength="0/1"  />
              <InterpolatingParam id="1065" interp="linr"  time="-9999999/1" value="0" leadInLength="0/1"  />
             </VectorParam>
             <InterpolatingParam id="1066" interp="linr"  time="-9999999/1" value="1" leadInLength="0/1"  name="opacity"/>
             <InterpolatingParam id="1067" interp="linr"  time="0/1" value="0" leadInLength="0/1"  name="cursorOpacity"/>
             <InterpolatingParam id="1068" interp="linr"  time="0/1" value="0" leadInLength="0/1"  name="cursorScale"/>
            </Parameters>
            <Attributes>
             <Attribute id="1069" value="" name="ident"/>
            </Attributes>
            <MetaData>
             <entry key="AutoAppliedSmartFocus" val="False"/>
             <entry key="WinSubProjectDisplayName" val=""/>
            </MetaData>
            <ExtraData>
             <Entry key="ZoomPanBin">
              <ZoomPanBin id="1070"  >
               <ZoomPanKeyframes>
                <ZoomPanKeyframe id="1071" timeRangeEnd="-9999999/1" timeRangeDuration="0/1" interpolaterName=""  />
               </ZoomPanKeyframes>
              </ZoomPanBin>
             </Entry>
             <Entry key="CursorEffectBin">
              <CursorEffectBin id="1072"  >
               <CursorEffectKeyframes>
               </CursorEffectKeyframes>
              </CursorEffectBin>
             </Entry>
            </ExtraData>
           </ScreenVMFile>
           <ScreenVMFile id="1073" start="420" duration="268" scalar="1/1" mediaStart="472/1" mediaDuration="268/1" trackNumber="0" src="4" >
            <Transformer>
             <VectorParam id="1074"  name="translation">
              <InterpolatingParam id="1075" interp="linr"  time="-9999999/1" value="0" leadInLength="0/1"  />
              <InterpolatingParam id="1076" interp="linr"  time="-9999999/1" value="0" leadInLength="0/1"  />
              <InterpolatingParam id="1077" interp="linr"  time="-9999999/1" value="0" leadInLength="0/1"  />
             </VectorParam>
             <VectorParam id="1078"  name="rotation">
              <InterpolatingParam id="1079" interp="linr"  time="-9999999/1" value="0" leadInLength="0/1"  />
              <InterpolatingParam id="1080" interp="linr"  time="-9999999/1" value="0" leadInLength="0/1"  />
              <InterpolatingParam id="1081" interp="linr"  time="-9999999/1" value="0" leadInLength="0/1"  />
             </VectorParam>
             <VectorParam id="1082"  name="shear">
              <InterpolatingParam id="1083" interp="linr"  time="-9999999/1" value="0" leadInLength="0/1"  />
              <InterpolatingParam id="1084" interp="linr"  time="-9999999/1" value="0" leadInLength="0/1"  />
              <InterpolatingParam id="1085" interp="linr"  time="-9999999/1" value="0" leadInLength="0/1"  />
             </VectorParam>
             <VectorParam id="1086"  name="scale">
              <InterpolatingParam id="1087" interp="linr"  time="-9999999/1" value="1" leadInLength="0/1"  />
              <InterpolatingParam id="1088" interp="linr"  time="-9999999/1" value="1" leadInLength="0/1"  />
              <InterpolatingParam id="1089" interp="linr"  time="-9999999/1" value="1" leadInLength="0/1"  />
             </VectorParam>
             <VectorParam id="1090"  name="anchor">
              <InterpolatingParam id="1091" interp="linr"  time="0/1" value="0" leadInLength="0/1"  />
              <InterpolatingParam id="1092" interp="linr"  time="0/1" value="0" leadInLength="0/1"  />
              <InterpolatingParam id="1093" interp="linr"  time="0/1" value="0" leadInLength="0/1"  />
             </VectorParam>
            </Transformer>
            <Parameters>
             <VectorParam id="1094"  name="sourceCrop">
              <InterpolatingParam id="1095" interp="linr"  time="0/1" value="0" leadInLength="0/1"  />
              <InterpolatingParam id="1096" interp="linr"  time="0/1" value="0" leadInLength="0/1"  />
              <InterpolatingParam id="1097" interp="linr"  time="0/1" value="0" leadInLength="0/1"  />
              <InterpolatingParam id="1098" interp="linr"  time="0/1" value="0" leadInLength="0/1"  />
             </VectorParam>
             <VectorParam id="1099"  name="geometryCrop">
              <InterpolatingParam id="1100" interp="linr"  time="-9999999/1" value="0" leadInLength="0/1"  />
              <InterpolatingParam id="1101" interp="linr"  time="-9999999/1" value="0" leadInLength="0/1"  />
              <InterpolatingParam id="1102" interp="linr"  time="-9999999/1" value="0" leadInLength="0/1"  />
              <InterpolatingParam id="1103" interp="linr"  time="-9999999/1" value="0" leadInLength="0/1"  />
             </VectorParam>
             <InterpolatingParam id="1104" interp="linr"  time="-9999999/1" value="1" leadInLength="0/1"  name="opacity"/>
             <InterpolatingParam id="1105" interp="linr"  time="0/1" value="0" leadInLength="0/1"  name="cursorOpacity"/>
             <InterpolatingParam id="1106" interp="linr"  time="0/1" value="0" leadInLength="0/1"  name="cursorScale"/>
            </Parameters>
            <Attributes>
             <Attribute id="1107" value="" name="ident"/>
            </Attributes>
            <MetaData>
             <entry key="AutoAppliedSmartFocus" val="False"/>
             <entry key="WinSubProjectDisplayName" val=""/>
            </MetaData>
            <ExtraData>
             <Entry key="ZoomPanBin">
              <ZoomPanBin id="1108"  >
               <ZoomPanKeyframes>
                <ZoomPanKeyframe id="1109" timeRangeEnd="-9999999/1" timeRangeDuration="0/1" interpolaterName=""  />
               </ZoomPanKeyframes>
              </ZoomPanBin>
             </Entry>
             <Entry key="CursorEffectBin">
              <CursorEffectBin id="1110"  >
               <CursorEffectKeyframes>
               </CursorEffectKeyframes>
              </CursorEffectBin>
             </Entry>
            </ExtraData>
           </ScreenVMFile>
           <ScreenVMFile id="1111" start="688" duration="1386" scalar="1/1" mediaStart="1658/1" mediaDuration="1386/1" trackNumber="0" src="4" >
            <Transformer>
             <VectorParam id="1112"  name="translation">
              <InterpolatingParam id="1113" interp="linr"  time="-9999999/1" value="0" leadInLength="0/1"  />
              <InterpolatingParam id="1114" interp="linr"  time="-9999999/1" value="0" leadInLength="0/1"  />
              <InterpolatingParam id="1115" interp="linr"  time="-9999999/1" value="0" leadInLength="0/1"  />
             </VectorParam>
             <VectorParam id="1116"  name="rotation">
              <InterpolatingParam id="1117" interp="linr"  time="-9999999/1" value="0" leadInLength="0/1"  />
              <InterpolatingParam id="1118" interp="linr"  time="-9999999/1" value="0" leadInLength="0/1"  />
              <InterpolatingParam id="1119" interp="linr"  time="-9999999/1" value="0" leadInLength="0/1"  />
             </VectorParam>
             <VectorParam id="1120"  name="shear">
              <InterpolatingParam id="1121" interp="linr"  time="-9999999/1" value="0" leadInLength="0/1"  />
              <InterpolatingParam id="1122" interp="linr"  time="-9999999/1" value="0" leadInLength="0/1"  />
              <InterpolatingParam id="1123" interp="linr"  time="-9999999/1" value="0" leadInLength="0/1"  />
             </VectorParam>
             <VectorParam id="1124"  name="scale">
              <InterpolatingParam id="1125" interp="linr"  time="-9999999/1" value="1" leadInLength="0/1"  />
              <InterpolatingParam id="1126" interp="linr"  time="-9999999/1" value="1" leadInLength="0/1"  />
              <InterpolatingParam id="1127" interp="linr"  time="-9999999/1" value="1" leadInLength="0/1"  />
             </VectorParam>
             <VectorParam id="1128"  name="anchor">
              <InterpolatingParam id="1129" interp="linr"  time="0/1" value="0" leadInLength="0/1"  />
              <InterpolatingParam id="1130" interp="linr"  time="0/1" value="0" leadInLength="0/1"  />
              <InterpolatingParam id="1131" interp="linr"  time="0/1" value="0" leadInLength="0/1"  />
             </VectorParam>
            </Transformer>
            <Parameters>
             <VectorParam id="1132"  name="sourceCrop">
              <InterpolatingParam id="1133" interp="linr"  time="0/1" value="0" leadInLength="0/1"  />
              <InterpolatingParam id="1134" interp="linr"  time="0/1" value="0" leadInLength="0/1"  />
              <InterpolatingParam id="1135" interp="linr"  time="0/1" value="0" leadInLength="0/1"  />
              <InterpolatingParam id="1136" interp="linr"  time="0/1" value="0" leadInLength="0/1"  />
             </VectorParam>
             <VectorParam id="1137"  name="geometryCrop">
              <InterpolatingParam id="1138" interp="linr"  time="-9999999/1" value="0" leadInLength="0/1"  />
              <InterpolatingParam id="1139" interp="linr"  time="-9999999/1" value="0" leadInLength="0/1"  />
              <InterpolatingParam id="1140" interp="linr"  time="-9999999/1" value="0" leadInLength="0/1"  />
              <InterpolatingParam id="1141" interp="linr"  time="-9999999/1" value="0" leadInLength="0/1"  />
             </VectorParam>
             <InterpolatingParam id="1142" interp="linr"  time="-9999999/1" value="1" leadInLength="0/1"  name="opacity"/>
             <InterpolatingParam id="1143" interp="linr"  time="0/1" value="0" leadInLength="0/1"  name="cursorOpacity"/>
             <InterpolatingParam id="1144" interp="linr"  time="0/1" value="0" leadInLength="0/1"  name="cursorScale"/>
            </Parameters>
            <Attributes>
             <Attribute id="1145" value="" name="ident"/>
            </Attributes>
            <MetaData>
             <entry key="AutoAppliedSmartFocus" val="False"/>
             <entry key="WinSubProjectDisplayName" val=""/>
            </MetaData>
            <ExtraData>
             <Entry key="ZoomPanBin">
              <ZoomPanBin id="1146"  >
               <ZoomPanKeyframes>
                <ZoomPanKeyframe id="1147" timeRangeEnd="-9999999/1" timeRangeDuration="0/1" interpolaterName=""  />
               </ZoomPanKeyframes>
              </ZoomPanBin>
             </Entry>
             <Entry key="CursorEffectBin">
              <CursorEffectBin id="1148"  >
               <CursorEffectKeyframes>
               </CursorEffectKeyframes>
              </CursorEffectBin>
             </Entry>
            </ExtraData>
           </ScreenVMFile>
           <ScreenVMFile id="1149" start="2074" duration="2037" scalar="1/1" mediaStart="3341/1" mediaDuration="2037/1" trackNumber="0" src="4" >
            <Transformer>
             <VectorParam id="1150"  name="translation">
              <InterpolatingParam id="1151" interp="linr"  time="-9999999/1" value="0" leadInLength="0/1"  />
              <InterpolatingParam id="1152" interp="linr"  time="-9999999/1" value="0" leadInLength="0/1"  />
              <InterpolatingParam id="1153" interp="linr"  time="-9999999/1" value="0" leadInLength="0/1"  />
             </VectorParam>
             <VectorParam id="1154"  name="rotation">
              <InterpolatingParam id="1155" interp="linr"  time="-9999999/1" value="0" leadInLength="0/1"  />
              <InterpolatingParam id="1156" interp="linr"  time="-9999999/1" value="0" leadInLength="0/1"  />
              <InterpolatingParam id="1157" interp="linr"  time="-9999999/1" value="0" leadInLength="0/1"  />
             </VectorParam>
             <VectorParam id="1158"  name="shear">
              <InterpolatingParam id="1159" interp="linr"  time="-9999999/1" value="0" leadInLength="0/1"  />
              <InterpolatingParam id="1160" interp="linr"  time="-9999999/1" value="0" leadInLength="0/1"  />
              <InterpolatingParam id="1161" interp="linr"  time="-9999999/1" value="0" leadInLength="0/1"  />
             </VectorParam>
             <VectorParam id="1162"  name="scale">
              <InterpolatingParam id="1163" interp="linr"  time="-9999999/1" value="1" leadInLength="0/1"  />
              <InterpolatingParam id="1164" interp="linr"  time="-9999999/1" value="1" leadInLength="0/1"  />
              <InterpolatingParam id="1165" interp="linr"  time="-9999999/1" value="1" leadInLength="0/1"  />
             </VectorParam>
             <VectorParam id="1166"  name="anchor">
              <InterpolatingParam id="1167" interp="linr"  time="0/1" value="0" leadInLength="0/1"  />
              <InterpolatingParam id="1168" interp="linr"  time="0/1" value="0" leadInLength="0/1"  />
              <InterpolatingParam id="1169" interp="linr"  time="0/1" value="0" leadInLength="0/1"  />
             </VectorParam>
            </Transformer>
            <Parameters>
             <VectorParam id="1170"  name="sourceCrop">
              <InterpolatingParam id="1171" interp="linr"  time="0/1" value="0" leadInLength="0/1"  />
              <InterpolatingParam id="1172" interp="linr"  time="0/1" value="0" leadInLength="0/1"  />
              <InterpolatingParam id="1173" interp="linr"  time="0/1" value="0" leadInLength="0/1"  />
              <InterpolatingParam id="1174" interp="linr"  time="0/1" value="0" leadInLength="0/1"  />
             </VectorParam>
             <VectorParam id="1175"  name="geometryCrop">
              <InterpolatingParam id="1176" interp="linr"  time="-9999999/1" value="0" leadInLength="0/1"  />
              <InterpolatingParam id="1177" interp="linr"  time="-9999999/1" value="0" leadInLength="0/1"  />
              <InterpolatingParam id="1178" interp="linr"  time="-9999999/1" value="0" leadInLength="0/1"  />
              <InterpolatingParam id="1179" interp="linr"  time="-9999999/1" value="0" leadInLength="0/1"  />
             </VectorParam>
             <InterpolatingParam id="1180" interp="linr"  time="-9999999/1" value="1" leadInLength="0/1"  name="opacity"/>
             <InterpolatingParam id="1181" interp="linr"  time="0/1" value="0" leadInLength="0/1"  name="cursorOpacity"/>
             <InterpolatingParam id="1182" interp="linr"  time="0/1" value="0" leadInLength="0/1"  name="cursorScale"/>
            </Parameters>
            <Attributes>
             <Attribute id="1183" value="" name="ident"/>
            </Attributes>
            <MetaData>
             <entry key="AutoAppliedSmartFocus" val="False"/>
             <entry key="WinSubProjectDisplayName" val=""/>
            </MetaData>
            <ExtraData>
             <Entry key="ZoomPanBin">
              <ZoomPanBin id="1184"  >
               <ZoomPanKeyframes>
                <ZoomPanKeyframe id="1185" timeRangeEnd="-9999999/1" timeRangeDuration="0/1" interpolaterName=""  />
               </ZoomPanKeyframes>
              </ZoomPanBin>
             </Entry>
             <Entry key="CursorEffectBin">
              <CursorEffectBin id="1186"  >
               <CursorEffectKeyframes>
               </CursorEffectKeyframes>
              </CursorEffectBin>
             </Entry>
            </ExtraData>
           </ScreenVMFile>
           <ScreenVMFile id="1187" start="4111" duration="24" scalar="1/1" mediaStart="5402/1" mediaDuration="24/1" trackNumber="0" src="4" >
            <Transformer>
             <VectorParam id="1188"  name="translation">
              <InterpolatingParam id="1189" interp="linr"  time="-9999999/1" value="0" leadInLength="0/1"  />
              <InterpolatingParam id="1190" interp="linr"  time="-9999999/1" value="0" leadInLength="0/1"  />
              <InterpolatingParam id="1191" interp="linr"  time="-9999999/1" value="0" leadInLength="0/1"  />
             </VectorParam>
             <VectorParam id="1192"  name="rotation">
              <InterpolatingParam id="1193" interp="linr"  time="-9999999/1" value="0" leadInLength="0/1"  />
              <InterpolatingParam id="1194" interp="linr"  time="-9999999/1" value="0" leadInLength="0/1"  />
              <InterpolatingParam id="1195" interp="linr"  time="-9999999/1" value="0" leadInLength="0/1"  />
             </VectorParam>
             <VectorParam id="1196"  name="shear">
              <InterpolatingParam id="1197" interp="linr"  time="-9999999/1" value="0" leadInLength="0/1"  />
              <InterpolatingParam id="1198" interp="linr"  time="-9999999/1" value="0" leadInLength="0/1"  />
              <InterpolatingParam id="1199" interp="linr"  time="-9999999/1" value="0" leadInLength="0/1"  />
             </VectorParam>
             <VectorParam id="1200"  name="scale">
              <InterpolatingParam id="1201" interp="linr"  time="-9999999/1" value="1" leadInLength="0/1"  />
              <InterpolatingParam id="1202" interp="linr"  time="-9999999/1" value="1" leadInLength="0/1"  />
              <InterpolatingParam id="1203" interp="linr"  time="-9999999/1" value="1" leadInLength="0/1"  />
             </VectorParam>
             <VectorParam id="1204"  name="anchor">
              <InterpolatingParam id="1205" interp="linr"  time="0/1" value="0" leadInLength="0/1"  />
              <InterpolatingParam id="1206" interp="linr"  time="0/1" value="0" leadInLength="0/1"  />
              <InterpolatingParam id="1207" interp="linr"  time="0/1" value="0" leadInLength="0/1"  />
             </VectorParam>
            </Transformer>
            <Parameters>
             <VectorParam id="1208"  name="sourceCrop">
              <InterpolatingParam id="1209" interp="linr"  time="0/1" value="0" leadInLength="0/1"  />
              <InterpolatingParam id="1210" interp="linr"  time="0/1" value="0" leadInLength="0/1"  />
              <InterpolatingParam id="1211" interp="linr"  time="0/1" value="0" leadInLength="0/1"  />
              <InterpolatingParam id="1212" interp="linr"  time="0/1" value="0" leadInLength="0/1"  />
             </VectorParam>
             <VectorParam id="1213"  name="geometryCrop">
              <InterpolatingParam id="1214" interp="linr"  time="-9999999/1" value="0" leadInLength="0/1"  />
              <InterpolatingParam id="1215" interp="linr"  time="-9999999/1" value="0" leadInLength="0/1"  />
              <InterpolatingParam id="1216" interp="linr"  time="-9999999/1" value="0" leadInLength="0/1"  />
              <InterpolatingParam id="1217" interp="linr"  time="-9999999/1" value="0" leadInLength="0/1"  />
             </VectorParam>
             <InterpolatingParam id="1218" interp="linr"  time="-9999999/1" value="1" leadInLength="0/1"  name="opacity"/>
             <InterpolatingParam id="1219" interp="linr"  time="0/1" value="0" leadInLength="0/1"  name="cursorOpacity"/>
             <InterpolatingParam id="1220" interp="linr"  time="0/1" value="0" leadInLength="0/1"  name="cursorScale"/>
            </Parameters>
            <Attributes>
             <Attribute id="1221" value="" name="ident"/>
            </Attributes>
            <MetaData>
             <entry key="AutoAppliedSmartFocus" val="False"/>
             <entry key="WinSubProjectDisplayName" val=""/>
            </MetaData>
            <ExtraData>
             <Entry key="ZoomPanBin">
              <ZoomPanBin id="1222"  >
               <ZoomPanKeyframes>
                <ZoomPanKeyframe id="1223" timeRangeEnd="-9999999/1" timeRangeDuration="0/1" interpolaterName=""  />
               </ZoomPanKeyframes>
              </ZoomPanBin>
             </Entry>
             <Entry key="CursorEffectBin">
              <CursorEffectBin id="1224"  >
               <CursorEffectKeyframes>
               </CursorEffectKeyframes>
              </CursorEffectBin>
             </Entry>
            </ExtraData>
           </ScreenVMFile>
           <ScreenVMFile id="1225" start="4135" duration="275" scalar="1/1" mediaStart="5460/1" mediaDuration="275/1" trackNumber="0" src="4" >
            <Transformer>
             <VectorParam id="1226"  name="translation">
              <InterpolatingParam id="1227" interp="linr"  time="-9999999/1" value="0" leadInLength="0/1"  />
              <InterpolatingParam id="1228" interp="linr"  time="-9999999/1" value="0" leadInLength="0/1"  />
              <InterpolatingParam id="1229" interp="linr"  time="-9999999/1" value="0" leadInLength="0/1"  />
             </VectorParam>
             <VectorParam id="1230"  name="rotation">
              <InterpolatingParam id="1231" interp="linr"  time="-9999999/1" value="0" leadInLength="0/1"  />
              <InterpolatingParam id="1232" interp="linr"  time="-9999999/1" value="0" leadInLength="0/1"  />
              <InterpolatingParam id="1233" interp="linr"  time="-9999999/1" value="0" leadInLength="0/1"  />
             </VectorParam>
             <VectorParam id="1234"  name="shear">
              <InterpolatingParam id="1235" interp="linr"  time="-9999999/1" value="0" leadInLength="0/1"  />
              <InterpolatingParam id="1236" interp="linr"  time="-9999999/1" value="0" leadInLength="0/1"  />
              <InterpolatingParam id="1237" interp="linr"  time="-9999999/1" value="0" leadInLength="0/1"  />
             </VectorParam>
             <VectorParam id="1238"  name="scale">
              <InterpolatingParam id="1239" interp="linr"  time="-9999999/1" value="1" leadInLength="0/1"  />
              <InterpolatingParam id="1240" interp="linr"  time="-9999999/1" value="1" leadInLength="0/1"  />
              <InterpolatingParam id="1241" interp="linr"  time="-9999999/1" value="1" leadInLength="0/1"  />
             </VectorParam>
             <VectorParam id="1242"  name="anchor">
              <InterpolatingParam id="1243" interp="linr"  time="0/1" value="0" leadInLength="0/1"  />
              <InterpolatingParam id="1244" interp="linr"  time="0/1" value="0" leadInLength="0/1"  />
              <InterpolatingParam id="1245" interp="linr"  time="0/1" value="0" leadInLength="0/1"  />
             </VectorParam>
            </Transformer>
            <Parameters>
             <VectorParam id="1246"  name="sourceCrop">
              <InterpolatingParam id="1247" interp="linr"  time="0/1" value="0" leadInLength="0/1"  />
              <InterpolatingParam id="1248" interp="linr"  time="0/1" value="0" leadInLength="0/1"  />
              <InterpolatingParam id="1249" interp="linr"  time="0/1" value="0" leadInLength="0/1"  />
              <InterpolatingParam id="1250" interp="linr"  time="0/1" value="0" leadInLength="0/1"  />
             </VectorParam>
             <VectorParam id="1251"  name="geometryCrop">
              <InterpolatingParam id="1252" interp="linr"  time="-9999999/1" value="0" leadInLength="0/1"  />
              <InterpolatingParam id="1253" interp="linr"  time="-9999999/1" value="0" leadInLength="0/1"  />
              <InterpolatingParam id="1254" interp="linr"  time="-9999999/1" value="0" leadInLength="0/1"  />
              <InterpolatingParam id="1255" interp="linr"  time="-9999999/1" value="0" leadInLength="0/1"  />
             </VectorParam>
             <InterpolatingParam id="1256" interp="linr"  time="-9999999/1" value="1" leadInLength="0/1"  name="opacity"/>
             <InterpolatingParam id="1257" interp="linr"  time="0/1" value="0" leadInLength="0/1"  name="cursorOpacity"/>
             <InterpolatingParam id="1258" interp="linr"  time="0/1" value="0" leadInLength="0/1"  name="cursorScale"/>
            </Parameters>
            <Attributes>
             <Attribute id="1259" value="" name="ident"/>
            </Attributes>
            <MetaData>
             <entry key="AutoAppliedSmartFocus" val="False"/>
             <entry key="WinSubProjectDisplayName" val=""/>
            </MetaData>
            <ExtraData>
             <Entry key="ZoomPanBin">
              <ZoomPanBin id="1260"  >
               <ZoomPanKeyframes>
                <ZoomPanKeyframe id="1261" timeRangeEnd="-9999999/1" timeRangeDuration="0/1" interpolaterName=""  />
               </ZoomPanKeyframes>
              </ZoomPanBin>
             </Entry>
             <Entry key="CursorEffectBin">
              <CursorEffectBin id="1262"  >
               <CursorEffectKeyframes>
               </CursorEffectKeyframes>
              </CursorEffectBin>
             </Entry>
            </ExtraData>
           </ScreenVMFile>
           <ScreenVMFile id="1263" start="4410" duration="414" scalar="1/1" mediaStart="5909/1" mediaDuration="414/1" trackNumber="0" src="4" >
            <Transformer>
             <VectorParam id="1264"  name="translation">
              <InterpolatingParam id="1265" interp="linr"  time="-9999999/1" value="0" leadInLength="0/1"  />
              <InterpolatingParam id="1266" interp="linr"  time="-9999999/1" value="0" leadInLength="0/1"  />
              <InterpolatingParam id="1267" interp="linr"  time="-9999999/1" value="0" leadInLength="0/1"  />
             </VectorParam>
             <VectorParam id="1268"  name="rotation">
              <InterpolatingParam id="1269" interp="linr"  time="-9999999/1" value="0" leadInLength="0/1"  />
              <InterpolatingParam id="1270" interp="linr"  time="-9999999/1" value="0" leadInLength="0/1"  />
              <InterpolatingParam id="1271" interp="linr"  time="-9999999/1" value="0" leadInLength="0/1"  />
             </VectorParam>
             <VectorParam id="1272"  name="shear">
              <InterpolatingParam id="1273" interp="linr"  time="-9999999/1" value="0" leadInLength="0/1"  />
              <InterpolatingParam id="1274" interp="linr"  time="-9999999/1" value="0" leadInLength="0/1"  />
              <InterpolatingParam id="1275" interp="linr"  time="-9999999/1" value="0" leadInLength="0/1"  />
             </VectorParam>
             <VectorParam id="1276"  name="scale">
              <InterpolatingParam id="1277" interp="linr"  time="-9999999/1" value="1" leadInLength="0/1"  />
              <InterpolatingParam id="1278" interp="linr"  time="-9999999/1" value="1" leadInLength="0/1"  />
              <InterpolatingParam id="1279" interp="linr"  time="-9999999/1" value="1" leadInLength="0/1"  />
             </VectorParam>
             <VectorParam id="1280"  name="anchor">
              <InterpolatingParam id="1281" interp="linr"  time="0/1" value="0" leadInLength="0/1"  />
              <InterpolatingParam id="1282" interp="linr"  time="0/1" value="0" leadInLength="0/1"  />
              <InterpolatingParam id="1283" interp="linr"  time="0/1" value="0" leadInLength="0/1"  />
             </VectorParam>
            </Transformer>
            <Parameters>
             <VectorParam id="1284"  name="sourceCrop">
              <InterpolatingParam id="1285" interp="linr"  time="0/1" value="0" leadInLength="0/1"  />
              <InterpolatingParam id="1286" interp="linr"  time="0/1" value="0" leadInLength="0/1"  />
              <InterpolatingParam id="1287" interp="linr"  time="0/1" value="0" leadInLength="0/1"  />
              <InterpolatingParam id="1288" interp="linr"  time="0/1" value="0" leadInLength="0/1"  />
             </VectorParam>
             <VectorParam id="1289"  name="geometryCrop">
              <InterpolatingParam id="1290" interp="linr"  time="-9999999/1" value="0" leadInLength="0/1"  />
              <InterpolatingParam id="1291" interp="linr"  time="-9999999/1" value="0" leadInLength="0/1"  />
              <InterpolatingParam id="1292" interp="linr"  time="-9999999/1" value="0" leadInLength="0/1"  />
              <InterpolatingParam id="1293" interp="linr"  time="-9999999/1" value="0" leadInLength="0/1"  />
             </VectorParam>
             <InterpolatingParam id="1294" interp="linr"  time="-9999999/1" value="1" leadInLength="0/1"  name="opacity"/>
             <InterpolatingParam id="1295" interp="linr"  time="0/1" value="0" leadInLength="0/1"  name="cursorOpacity"/>
             <InterpolatingParam id="1296" interp="linr"  time="0/1" value="0" leadInLength="0/1"  name="cursorScale"/>
            </Parameters>
            <Attributes>
             <Attribute id="1297" value="" name="ident"/>
            </Attributes>
            <MetaData>
             <entry key="AutoAppliedSmartFocus" val="False"/>
             <entry key="WinSubProjectDisplayName" val=""/>
            </MetaData>
            <ExtraData>
             <Entry key="ZoomPanBin">
              <ZoomPanBin id="1298"  >
               <ZoomPanKeyframes>
                <ZoomPanKeyframe id="1299" timeRangeEnd="-9999999/1" timeRangeDuration="0/1" interpolaterName=""  />
               </ZoomPanKeyframes>
              </ZoomPanBin>
             </Entry>
             <Entry key="CursorEffectBin">
              <CursorEffectBin id="1300"  >
               <CursorEffectKeyframes>
               </CursorEffectKeyframes>
              </CursorEffectBin>
             </Entry>
            </ExtraData>
           </ScreenVMFile>
           <ScreenVMFile id="1301" start="4824" duration="2488" scalar="1/1" mediaStart="6341/1" mediaDuration="2488/1" trackNumber="0" src="4" >
            <Transformer>
             <VectorParam id="1302"  name="translation">
              <InterpolatingParam id="1303" interp="linr"  time="-9999999/1" value="0" leadInLength="0/1"  />
              <InterpolatingParam id="1304" interp="linr"  time="-9999999/1" value="0" leadInLength="0/1"  />
              <InterpolatingParam id="1305" interp="linr"  time="-9999999/1" value="0" leadInLength="0/1"  />
             </VectorParam>
             <VectorParam id="1306"  name="rotation">
              <InterpolatingParam id="1307" interp="linr"  time="-9999999/1" value="0" leadInLength="0/1"  />
              <InterpolatingParam id="1308" interp="linr"  time="-9999999/1" value="0" leadInLength="0/1"  />
              <InterpolatingParam id="1309" interp="linr"  time="-9999999/1" value="0" leadInLength="0/1"  />
             </VectorParam>
             <VectorParam id="1310"  name="shear">
              <InterpolatingParam id="1311" interp="linr"  time="-9999999/1" value="0" leadInLength="0/1"  />
              <InterpolatingParam id="1312" interp="linr"  time="-9999999/1" value="0" leadInLength="0/1"  />
              <InterpolatingParam id="1313" interp="linr"  time="-9999999/1" value="0" leadInLength="0/1"  />
             </VectorParam>
             <VectorParam id="1314"  name="scale">
              <InterpolatingParam id="1315" interp="linr"  time="-9999999/1" value="1" leadInLength="0/1"  />
              <InterpolatingParam id="1316" interp="linr"  time="-9999999/1" value="1" leadInLength="0/1"  />
              <InterpolatingParam id="1317" interp="linr"  time="-9999999/1" value="1" leadInLength="0/1"  />
             </VectorParam>
             <VectorParam id="1318"  name="anchor">
              <InterpolatingParam id="1319" interp="linr"  time="0/1" value="0" leadInLength="0/1"  />
              <InterpolatingParam id="1320" interp="linr"  time="0/1" value="0" leadInLength="0/1"  />
              <InterpolatingParam id="1321" interp="linr"  time="0/1" value="0" leadInLength="0/1"  />
             </VectorParam>
            </Transformer>
            <Parameters>
             <VectorParam id="1322"  name="sourceCrop">
              <InterpolatingParam id="1323" interp="linr"  time="0/1" value="0" leadInLength="0/1"  />
              <InterpolatingParam id="1324" interp="linr"  time="0/1" value="0" leadInLength="0/1"  />
              <InterpolatingParam id="1325" interp="linr"  time="0/1" value="0" leadInLength="0/1"  />
              <InterpolatingParam id="1326" interp="linr"  time="0/1" value="0" leadInLength="0/1"  />
             </VectorParam>
             <VectorParam id="1327"  name="geometryCrop">
              <InterpolatingParam id="1328" interp="linr"  time="-9999999/1" value="0" leadInLength="0/1"  />
              <InterpolatingParam id="1329" interp="linr"  time="-9999999/1" value="0" leadInLength="0/1"  />
              <InterpolatingParam id="1330" interp="linr"  time="-9999999/1" value="0" leadInLength="0/1"  />
              <InterpolatingParam id="1331" interp="linr"  time="-9999999/1" value="0" leadInLength="0/1"  />
             </VectorParam>
             <InterpolatingParam id="1332" interp="linr"  time="-9999999/1" value="1" leadInLength="0/1"  name="opacity"/>
             <InterpolatingParam id="1333" interp="linr"  time="0/1" value="0" leadInLength="0/1"  name="cursorOpacity"/>
             <InterpolatingParam id="1334" interp="linr"  time="0/1" value="0" leadInLength="0/1"  name="cursorScale"/>
            </Parameters>
            <Attributes>
             <Attribute id="1335" value="" name="ident"/>
            </Attributes>
            <MetaData>
             <entry key="AutoAppliedSmartFocus" val="False"/>
             <entry key="WinSubProjectDisplayName" val=""/>
            </MetaData>
            <ExtraData>
             <Entry key="ZoomPanBin">
              <ZoomPanBin id="1336"  >
               <ZoomPanKeyframes>
                <ZoomPanKeyframe id="1337" timeRangeEnd="-9999999/1" timeRangeDuration="0/1" interpolaterName=""  />
               </ZoomPanKeyframes>
              </ZoomPanBin>
             </Entry>
             <Entry key="CursorEffectBin">
              <CursorEffectBin id="1338"  >
               <CursorEffectKeyframes>
               </CursorEffectKeyframes>
              </CursorEffectBin>
             </Entry>
            </ExtraData>
           </ScreenVMFile>
           <ScreenVMFile id="1339" start="7312" duration="307" scalar="1/1" mediaStart="8894/1" mediaDuration="307/1" trackNumber="0" src="4" >
            <Transformer>
             <VectorParam id="1340"  name="translation">
              <InterpolatingParam id="1341" interp="linr"  time="-9999999/1" value="0" leadInLength="0/1"  />
              <InterpolatingParam id="1342" interp="linr"  time="-9999999/1" value="0" leadInLength="0/1"  />
              <InterpolatingParam id="1343" interp="linr"  time="-9999999/1" value="0" leadInLength="0/1"  />
             </VectorParam>
             <VectorParam id="1344"  name="rotation">
              <InterpolatingParam id="1345" interp="linr"  time="-9999999/1" value="0" leadInLength="0/1"  />
              <InterpolatingParam id="1346" interp="linr"  time="-9999999/1" value="0" leadInLength="0/1"  />
              <InterpolatingParam id="1347" interp="linr"  time="-9999999/1" value="0" leadInLength="0/1"  />
             </VectorParam>
             <VectorParam id="1348"  name="shear">
              <InterpolatingParam id="1349" interp="linr"  time="-9999999/1" value="0" leadInLength="0/1"  />
              <InterpolatingParam id="1350" interp="linr"  time="-9999999/1" value="0" leadInLength="0/1"  />
              <InterpolatingParam id="1351" interp="linr"  time="-9999999/1" value="0" leadInLength="0/1"  />
             </VectorParam>
             <VectorParam id="1352"  name="scale">
              <InterpolatingParam id="1353" interp="linr"  time="-9999999/1" value="1" leadInLength="0/1"  />
              <InterpolatingParam id="1354" interp="linr"  time="-9999999/1" value="1" leadInLength="0/1"  />
              <InterpolatingParam id="1355" interp="linr"  time="-9999999/1" value="1" leadInLength="0/1"  />
             </VectorParam>
             <VectorParam id="1356"  name="anchor">
              <InterpolatingParam id="1357" interp="linr"  time="0/1" value="0" leadInLength="0/1"  />
              <InterpolatingParam id="1358" interp="linr"  time="0/1" value="0" leadInLength="0/1"  />
              <InterpolatingParam id="1359" interp="linr"  time="0/1" value="0" leadInLength="0/1"  />
             </VectorParam>
            </Transformer>
            <Parameters>
             <VectorParam id="1360"  name="sourceCrop">
              <InterpolatingParam id="1361" interp="linr"  time="0/1" value="0" leadInLength="0/1"  />
              <InterpolatingParam id="1362" interp="linr"  time="0/1" value="0" leadInLength="0/1"  />
              <InterpolatingParam id="1363" interp="linr"  time="0/1" value="0" leadInLength="0/1"  />
              <InterpolatingParam id="1364" interp="linr"  time="0/1" value="0" leadInLength="0/1"  />
             </VectorParam>
             <VectorParam id="1365"  name="geometryCrop">
              <InterpolatingParam id="1366" interp="linr"  time="-9999999/1" value="0" leadInLength="0/1"  />
              <InterpolatingParam id="1367" interp="linr"  time="-9999999/1" value="0" leadInLength="0/1"  />
              <InterpolatingParam id="1368" interp="linr"  time="-9999999/1" value="0" leadInLength="0/1"  />
              <InterpolatingParam id="1369" interp="linr"  time="-9999999/1" value="0" leadInLength="0/1"  />
             </VectorParam>
             <InterpolatingParam id="1370" interp="linr"  time="-9999999/1" value="1" leadInLength="0/1"  name="opacity"/>
             <InterpolatingParam id="1371" interp="linr"  time="0/1" value="0" leadInLength="0/1"  name="cursorOpacity"/>
             <InterpolatingParam id="1372" interp="linr"  time="0/1" value="0" leadInLength="0/1"  name="cursorScale"/>
            </Parameters>
            <Attributes>
             <Attribute id="1373" value="" name="ident"/>
            </Attributes>
            <MetaData>
             <entry key="AutoAppliedSmartFocus" val="False"/>
             <entry key="WinSubProjectDisplayName" val=""/>
            </MetaData>
            <ExtraData>
             <Entry key="ZoomPanBin">
              <ZoomPanBin id="1374"  >
               <ZoomPanKeyframes>
                <ZoomPanKeyframe id="1375" timeRangeEnd="-9999999/1" timeRangeDuration="0/1" interpolaterName=""  />
               </ZoomPanKeyframes>
              </ZoomPanBin>
             </Entry>
             <Entry key="CursorEffectBin">
              <CursorEffectBin id="1376"  >
               <CursorEffectKeyframes>
               </CursorEffectKeyframes>
              </CursorEffectBin>
             </Entry>
            </ExtraData>
           </ScreenVMFile>
           <ScreenVMFile id="1377" start="7619" duration="625" scalar="1/1" mediaStart="9487/1" mediaDuration="625/1" trackNumber="0" src="4" >
            <Transformer>
             <VectorParam id="1378"  name="translation">
              <InterpolatingParam id="1379" interp="linr"  time="-9999999/1" value="0" leadInLength="0/1"  />
              <InterpolatingParam id="1380" interp="linr"  time="-9999999/1" value="0" leadInLength="0/1"  />
              <InterpolatingParam id="1381" interp="linr"  time="-9999999/1" value="0" leadInLength="0/1"  />
             </VectorParam>
             <VectorParam id="1382"  name="rotation">
              <InterpolatingParam id="1383" interp="linr"  time="-9999999/1" value="0" leadInLength="0/1"  />
              <InterpolatingParam id="1384" interp="linr"  time="-9999999/1" value="0" leadInLength="0/1"  />
              <InterpolatingParam id="1385" interp="linr"  time="-9999999/1" value="0" leadInLength="0/1"  />
             </VectorParam>
             <VectorParam id="1386"  name="shear">
              <InterpolatingParam id="1387" interp="linr"  time="-9999999/1" value="0" leadInLength="0/1"  />
              <InterpolatingParam id="1388" interp="linr"  time="-9999999/1" value="0" leadInLength="0/1"  />
              <InterpolatingParam id="1389" interp="linr"  time="-9999999/1" value="0" leadInLength="0/1"  />
             </VectorParam>
             <VectorParam id="1390"  name="scale">
              <InterpolatingParam id="1391" interp="linr"  time="-9999999/1" value="1" leadInLength="0/1"  />
              <InterpolatingParam id="1392" interp="linr"  time="-9999999/1" value="1" leadInLength="0/1"  />
              <InterpolatingParam id="1393" interp="linr"  time="-9999999/1" value="1" leadInLength="0/1"  />
             </VectorParam>
             <VectorParam id="1394"  name="anchor">
              <InterpolatingParam id="1395" interp="linr"  time="0/1" value="0" leadInLength="0/1"  />
              <InterpolatingParam id="1396" interp="linr"  time="0/1" value="0" leadInLength="0/1"  />
              <InterpolatingParam id="1397" interp="linr"  time="0/1" value="0" leadInLength="0/1"  />
             </VectorParam>
            </Transformer>
            <Parameters>
             <VectorParam id="1398"  name="sourceCrop">
              <InterpolatingParam id="1399" interp="linr"  time="0/1" value="0" leadInLength="0/1"  />
              <InterpolatingParam id="1400" interp="linr"  time="0/1" value="0" leadInLength="0/1"  />
              <InterpolatingParam id="1401" interp="linr"  time="0/1" value="0" leadInLength="0/1"  />
              <InterpolatingParam id="1402" interp="linr"  time="0/1" value="0" leadInLength="0/1"  />
             </VectorParam>
             <VectorParam id="1403"  name="geometryCrop">
              <InterpolatingParam id="1404" interp="linr"  time="-9999999/1" value="0" leadInLength="0/1"  />
              <InterpolatingParam id="1405" interp="linr"  time="-9999999/1" value="0" leadInLength="0/1"  />
              <InterpolatingParam id="1406" interp="linr"  time="-9999999/1" value="0" leadInLength="0/1"  />
              <InterpolatingParam id="1407" interp="linr"  time="-9999999/1" value="0" leadInLength="0/1"  />
             </VectorParam>
             <InterpolatingParam id="1408" interp="linr"  time="-9999999/1" value="1" leadInLength="0/1"  name="opacity"/>
             <InterpolatingParam id="1409" interp="linr"  time="0/1" value="0" leadInLength="0/1"  name="cursorOpacity"/>
             <InterpolatingParam id="1410" interp="linr"  time="0/1" value="0" leadInLength="0/1"  name="cursorScale"/>
            </Parameters>
            <Attributes>
             <Attribute id="1411" value="" name="ident"/>
            </Attributes>
            <MetaData>
             <entry key="AutoAppliedSmartFocus" val="False"/>
             <entry key="WinSubProjectDisplayName" val=""/>
            </MetaData>
            <ExtraData>
             <Entry key="ZoomPanBin">
              <ZoomPanBin id="1412"  >
               <ZoomPanKeyframes>
                <ZoomPanKeyframe id="1413" timeRangeEnd="-9999999/1" timeRangeDuration="0/1" interpolaterName=""  />
               </ZoomPanKeyframes>
              </ZoomPanBin>
             </Entry>
             <Entry key="CursorEffectBin">
              <CursorEffectBin id="1414"  >
               <CursorEffectKeyframes>
               </CursorEffectKeyframes>
              </CursorEffectBin>
             </Entry>
            </ExtraData>
           </ScreenVMFile>
           <ScreenVMFile id="1415" start="8244" duration="7" scalar="1/1" mediaStart="14843/1" mediaDuration="7/1" trackNumber="0" src="4" >
            <Transformer>
             <VectorParam id="1416"  name="translation">
              <InterpolatingParam id="1417" interp="linr"  time="-9999999/1" value="0" leadInLength="0/1"  />
              <InterpolatingParam id="1418" interp="linr"  time="-9999999/1" value="0" leadInLength="0/1"  />
              <InterpolatingParam id="1419" interp="linr"  time="-9999999/1" value="0" leadInLength="0/1"  />
             </VectorParam>
             <VectorParam id="1420"  name="rotation">
              <InterpolatingParam id="1421" interp="linr"  time="-9999999/1" value="0" leadInLength="0/1"  />
              <InterpolatingParam id="1422" interp="linr"  time="-9999999/1" value="0" leadInLength="0/1"  />
              <InterpolatingParam id="1423" interp="linr"  time="-9999999/1" value="0" leadInLength="0/1"  />
             </VectorParam>
             <VectorParam id="1424"  name="shear">
              <InterpolatingParam id="1425" interp="linr"  time="-9999999/1" value="0" leadInLength="0/1"  />
              <InterpolatingParam id="1426" interp="linr"  time="-9999999/1" value="0" leadInLength="0/1"  />
              <InterpolatingParam id="1427" interp="linr"  time="-9999999/1" value="0" leadInLength="0/1"  />
             </VectorParam>
             <VectorParam id="1428"  name="scale">
              <InterpolatingParam id="1429" interp="linr"  time="-9999999/1" value="1" leadInLength="0/1"  />
              <InterpolatingParam id="1430" interp="linr"  time="-9999999/1" value="1" leadInLength="0/1"  />
              <InterpolatingParam id="1431" interp="linr"  time="-9999999/1" value="1" leadInLength="0/1"  />
             </VectorParam>
             <VectorParam id="1432"  name="anchor">
              <InterpolatingParam id="1433" interp="linr"  time="0/1" value="0" leadInLength="0/1"  />
              <InterpolatingParam id="1434" interp="linr"  time="0/1" value="0" leadInLength="0/1"  />
              <InterpolatingParam id="1435" interp="linr"  time="0/1" value="0" leadInLength="0/1"  />
             </VectorParam>
            </Transformer>
            <Parameters>
             <VectorParam id="1436"  name="sourceCrop">
              <InterpolatingParam id="1437" interp="linr"  time="0/1" value="0" leadInLength="0/1"  />
              <InterpolatingParam id="1438" interp="linr"  time="0/1" value="0" leadInLength="0/1"  />
              <InterpolatingParam id="1439" interp="linr"  time="0/1" value="0" leadInLength="0/1"  />
              <InterpolatingParam id="1440" interp="linr"  time="0/1" value="0" leadInLength="0/1"  />
             </VectorParam>
             <VectorParam id="1441"  name="geometryCrop">
              <InterpolatingParam id="1442" interp="linr"  time="-9999999/1" value="0" leadInLength="0/1"  />
              <InterpolatingParam id="1443" interp="linr"  time="-9999999/1" value="0" leadInLength="0/1"  />
              <InterpolatingParam id="1444" interp="linr"  time="-9999999/1" value="0" leadInLength="0/1"  />
              <InterpolatingParam id="1445" interp="linr"  time="-9999999/1" value="0" leadInLength="0/1"  />
             </VectorParam>
             <InterpolatingParam id="1446" interp="linr"  time="-9999999/1" value="1" leadInLength="0/1"  name="opacity"/>
             <InterpolatingParam id="1447" interp="linr"  time="0/1" value="0" leadInLength="0/1"  name="cursorOpacity"/>
             <InterpolatingParam id="1448" interp="linr"  time="0/1" value="0" leadInLength="0/1"  name="cursorScale"/>
            </Parameters>
            <Attributes>
             <Attribute id="1449" value="" name="ident"/>
            </Attributes>
            <MetaData>
             <entry key="AutoAppliedSmartFocus" val="False"/>
             <entry key="WinSubProjectDisplayName" val=""/>
            </MetaData>
            <ExtraData>
             <Entry key="ZoomPanBin">
              <ZoomPanBin id="1450"  >
               <ZoomPanKeyframes>
                <ZoomPanKeyframe id="1451" timeRangeEnd="-9999999/1" timeRangeDuration="0/1" interpolaterName=""  />
               </ZoomPanKeyframes>
              </ZoomPanBin>
             </Entry>
             <Entry key="CursorEffectBin">
              <CursorEffectBin id="1452"  >
               <CursorEffectKeyframes>
               </CursorEffectKeyframes>
              </CursorEffectBin>
             </Entry>
            </ExtraData>
           </ScreenVMFile>
          </Medias>
         </GenericTrack>
        </StitchedMedia>
       </Medias>
      </GenericTrack>
      <GenericTrack id="1453"  >
       <Attributes>
        <Attribute id="1454" value="" name="ident"/>
        <Attribute id="1455" value="0" name="audioMuted"/>
        <Attribute id="1456" value="0" name="videoHidden"/>
       </Attributes>
       <MetaData>
        <entry key="IsLocked" val="False"/>
        <entry key="WinTrackHeight" val="62"/>
       </MetaData>
       <Medias>
        <StitchedMedia id="1457" start="0" duration="1318" scalar="1/1" mediaStart="55/1" mediaDuration="1318/1" minMediaStart="0/1" >
         <Transformer>
          <VectorParam id="1458"  name="translation">
           <InterpolatingParam id="1459" interp="linr"  time="-9999999/1" value="0" leadInLength="0/1"  interpolater="leadin-linr"  />
           <InterpolatingParam id="1460" interp="linr"  time="-9999999/1" value="0" leadInLength="0/1"  interpolater="leadin-linr"  />
           <InterpolatingParam id="1461" interp="linr"  time="-9999999/1" value="0" leadInLength="0/1"  interpolater="leadin-linr"  />
          </VectorParam>
          <VectorParam id="1462"  name="rotation">
           <InterpolatingParam id="1463" interp="linr"  time="-9999999/1" value="0" leadInLength="0/1"  interpolater="leadin-linr"  />
           <InterpolatingParam id="1464" interp="linr"  time="-9999999/1" value="0" leadInLength="0/1"  interpolater="leadin-linr"  />
           <InterpolatingParam id="1465" interp="linr"  time="-9999999/1" value="0" leadInLength="0/1"  interpolater="leadin-linr"  />
          </VectorParam>
          <VectorParam id="1466"  name="shear">
           <InterpolatingParam id="1467" interp="linr"  time="-9999999/1" value="0" leadInLength="0/1"  interpolater="leadin-linr"  />
           <InterpolatingParam id="1468" interp="linr"  time="-9999999/1" value="0" leadInLength="0/1"  interpolater="leadin-linr"  />
           <InterpolatingParam id="1469" interp="linr"  time="-9999999/1" value="0" leadInLength="0/1"  interpolater="leadin-linr"  />
          </VectorParam>
          <VectorParam id="1470"  name="scale">
           <InterpolatingParam id="1471" interp="linr"  time="-9999999/1" value="0.73124999999999996" leadInLength="0/1"  interpolater="leadin-linr"  />
           <InterpolatingParam id="1472" interp="linr"  time="-9999999/1" value="0.73124999999999996" leadInLength="0/1"  interpolater="leadin-linr"  />
           <InterpolatingParam id="1473" interp="linr"  time="-9999999/1" value="1" leadInLength="0/1"  interpolater="leadin-linr"  />
          </VectorParam>
          <VectorParam id="1474"  name="anchor">
           <InterpolatingParam id="1475" interp="linr"  time="0/1" value="0" leadInLength="0/1"  />
           <InterpolatingParam id="1476" interp="linr"  time="0/1" value="0" leadInLength="0/1"  />
           <InterpolatingParam id="1477" interp="linr"  time="0/1" value="0" leadInLength="0/1"  />
          </VectorParam>
         </Transformer>
         <Parameters>
          <VectorParam id="1478"  name="sourceCrop">
           <InterpolatingParam id="1479" interp="linr"  time="0/1" value="0" leadInLength="0/1"  />
           <InterpolatingParam id="1480" interp="linr"  time="0/1" value="0" leadInLength="0/1"  />
           <InterpolatingParam id="1481" interp="linr"  time="0/1" value="0" leadInLength="0/1"  />
           <InterpolatingParam id="1482" interp="linr"  time="0/1" value="0" leadInLength="0/1"  />
          </VectorParam>
          <VectorParam id="1483"  name="geometryCrop">
           <InterpolatingParam id="1484" interp="linr"  time="-9999999/1" value="0" leadInLength="0/1"  interpolater="leadin-linr"  />
           <InterpolatingParam id="1485" interp="linr"  time="-9999999/1" value="0" leadInLength="0/1"  interpolater="leadin-linr"  />
           <InterpolatingParam id="1486" interp="linr"  time="-9999999/1" value="0" leadInLength="0/1"  interpolater="leadin-linr"  />
           <InterpolatingParam id="1487" interp="linr"  time="-9999999/1" value="0" leadInLength="0/1"  interpolater="leadin-linr"  />
          </VectorParam>
          <InterpolatingParam id="1488" interp="linr"  time="-9999999/1" value="1" leadInLength="0/1"  interpolater="leadin-linr"  name="opacity"/>
          <InterpolatingParam id="1489" interp="linr"  time="0/1" value="1" leadInLength="0/1"  name="cursorOpacity"/>
          <InterpolatingParam id="1490" interp="linr"  time="0/1" value="1" leadInLength="0/1"  name="cursorScale"/>
          <Parameter id="1491"  name="captions"/>
         </Parameters>
         <Effects>
          <GenericEffect id="1492" name = "CursorBaseEffectName" >
           <Parameters>
           <InterpolatingParam id="1493" interp="linr"  time="-9999999/1" value="1" leadInLength="0/1"   name="cursorSize"/>
           <InterpolatingParam id="1494" interp="linr"  time="-9999999/1" value="0" leadInLength="0/1"   name="highlightBlurRadius"/>
           <InterpolatingParam id="1495" interp="linr"  time="-9999999/1" value="0" leadInLength="0/1"   name="highlightColorBlue"/>
           <InterpolatingParam id="1496" interp="linr"  time="-9999999/1" value="255" leadInLength="0/1"   name="highlightColorGreen"/>
           <InterpolatingParam id="1497" interp="linr"  time="-9999999/1" value="255" leadInLength="0/1"   name="highlightColorRed"/>
           <InterpolatingParam id="1498" interp="linr"  time="-9999999/1" value="5" leadInLength="0/1"   name="highlightFeatherSize"/>
           <InterpolatingParam id="1499" interp="linr"  time="-9999999/1" value="2" leadInLength="0/1"   name="highlightMagnification"/>
           <InterpolatingParam id="1500" interp="linr"  time="-9999999/1" value="1" leadInLength="0/1"   name="highlightOpacity"/>
           <InterpolatingParam id="1501" interp="linr"  time="-9999999/1" value="45" leadInLength="0/1"   name="highlightSize"/>
           <Parameter id="1502"   name="highlightType">
            <Keyframes>
            <Keyframe id="1503"  time="-9999999/1" value="0" leadInLength="0/1"  />
            </Keyframes>
           </Parameter>
           <InterpolatingParam id="1504" interp="linr"  time="-9999999/1" value="0" leadInLength="0/1"   name="leftClickColorBlue"/>
           <InterpolatingParam id="1505" interp="linr"  time="-9999999/1" value="0" leadInLength="0/1"   name="leftClickColorGreen"/>
           <InterpolatingParam id="1506" interp="linr"  time="-9999999/1" value="255" leadInLength="0/1"   name="leftClickColorRed"/>
           <InterpolatingParam id="1507" interp="linr"  time="-9999999/1" value="0.80000000000000004" leadInLength="0/1"   name="leftClickDuration"/>
           <InterpolatingParam id="1508" interp="linr"  time="-9999999/1" value="20" leadInLength="0/1"   name="leftClickSize"/>
           <Parameter id="1509"   name="leftClickSoundFilename">
            <Keyframes>
            <Keyframe id="1510"  time="-9999999/1" value="" leadInLength="0/1"  />
            </Keyframes>
           </Parameter>
           <InterpolatingParam id="1511" interp="linr"  time="-9999999/1" value="1" leadInLength="0/1"   name="leftClickSoundVolume"/>
           <Parameter id="1512"   name="leftClickType">
            <Keyframes>
            <Keyframe id="1513"  time="-9999999/1" value="0" leadInLength="0/1"  />
            </Keyframes>
           </Parameter>
           <InterpolatingParam id="1514" interp="linr"  time="-9999999/1" value="1" leadInLength="0/1"   name="opacity"/>
           <InterpolatingParam id="1515" interp="linr"  time="-9999999/1" value="255" leadInLength="0/1"   name="rightClickColorBlue"/>
           <InterpolatingParam id="1516" interp="linr"  time="-9999999/1" value="0" leadInLength="0/1"   name="rightClickColorGreen"/>
           <InterpolatingParam id="1517" interp="linr"  time="-9999999/1" value="0" leadInLength="0/1"   name="rightClickColorRed"/>
           <InterpolatingParam id="1518" interp="linr"  time="-9999999/1" value="0.80000000000000004" leadInLength="0/1"   name="rightClickDuration"/>
           <InterpolatingParam id="1519" interp="linr"  time="-9999999/1" value="20" leadInLength="0/1"   name="rightClickSize"/>
           <Parameter id="1520"   name="rightClickSoundFilename">
            <Keyframes>
            <Keyframe id="1521"  time="-9999999/1" value="" leadInLength="0/1"  />
            </Keyframes>
           </Parameter>
           <InterpolatingParam id="1522" interp="linr"  time="-9999999/1" value="1" leadInLength="0/1"   name="rightClickSoundVolume"/>
           <Parameter id="1523"   name="rightClickType">
            <Keyframes>
            <Keyframe id="1524"  time="-9999999/1" value="0" leadInLength="0/1"  />
            </Keyframes>
           </Parameter>
           </Parameters>
          </GenericEffect>
         </Effects>
         <Attributes>
          <Attribute id="1525" value="" name="ident"/>
         </Attributes>
         <MetaData>
          <entry key="AutoAppliedSmartFocus" val="False"/>
          <entry key="WinSubProjectDisplayName" val=""/>
         </MetaData>
         <ExtraData>
          <Entry key="ZoomPanBin">
           <ZoomPanBin id="1526"  >
            <ZoomPanKeyframes>
             <ZoomPanKeyframe id="1527" timeRangeEnd="-9999999/1" timeRangeDuration="0/1" interpolaterName="linr"  />
            </ZoomPanKeyframes>
           </ZoomPanBin>
          </Entry>
          <Entry key="CursorEffectBin">
           <CursorEffectBin id="1528"  >
            <CursorEffectKeyframes>
             <CursorEffectKeyframe id="1529" timeRangeEnd="-9999999/1" timeRangeDuration="0/1" interpolaterName=""  />
            </CursorEffectKeyframes>
           </CursorEffectBin>
          </Entry>
         </ExtraData>
         <GenericTrack id="1530"  >
          <Attributes>
           <Attribute id="1531" value="" name="ident"/>
           <Attribute id="1532" value="0" name="audioMuted"/>
           <Attribute id="1533" value="0" name="videoHidden"/>
          </Attributes>
          <MetaData>
           <entry key="IsLocked" val="False"/>
           <entry key="WinTrackHeight" val="0"/>
          </MetaData>
          <Medias>
           <ScreenVMFile id="1534" start="0" duration="420" scalar="1/1" mediaStart="0/1" mediaDuration="420/1" trackNumber="0" src="4" >
            <Transformer>
             <VectorParam id="1535"  name="translation">
              <InterpolatingParam id="1536" interp="linr"  time="-9999999/1" value="0" leadInLength="0/1"  />
              <InterpolatingParam id="1537" interp="linr"  time="-9999999/1" value="0" leadInLength="0/1"  />
              <InterpolatingParam id="1538" interp="linr"  time="-9999999/1" value="0" leadInLength="0/1"  />
             </VectorParam>
             <VectorParam id="1539"  name="rotation">
              <InterpolatingParam id="1540" interp="linr"  time="-9999999/1" value="0" leadInLength="0/1"  />
              <InterpolatingParam id="1541" interp="linr"  time="-9999999/1" value="0" leadInLength="0/1"  />
              <InterpolatingParam id="1542" interp="linr"  time="-9999999/1" value="0" leadInLength="0/1"  />
             </VectorParam>
             <VectorParam id="1543"  name="shear">
              <InterpolatingParam id="1544" interp="linr"  time="-9999999/1" value="0" leadInLength="0/1"  />
              <InterpolatingParam id="1545" interp="linr"  time="-9999999/1" value="0" leadInLength="0/1"  />
              <InterpolatingParam id="1546" interp="linr"  time="-9999999/1" value="0" leadInLength="0/1"  />
             </VectorParam>
             <VectorParam id="1547"  name="scale">
              <InterpolatingParam id="1548" interp="linr"  time="-9999999/1" value="1" leadInLength="0/1"  />
              <InterpolatingParam id="1549" interp="linr"  time="-9999999/1" value="1" leadInLength="0/1"  />
              <InterpolatingParam id="1550" interp="linr"  time="-9999999/1" value="1" leadInLength="0/1"  />
             </VectorParam>
             <VectorParam id="1551"  name="anchor">
              <InterpolatingParam id="1552" interp="linr"  time="0/1" value="0" leadInLength="0/1"  />
              <InterpolatingParam id="1553" interp="linr"  time="0/1" value="0" leadInLength="0/1"  />
              <InterpolatingParam id="1554" interp="linr"  time="0/1" value="0" leadInLength="0/1"  />
             </VectorParam>
            </Transformer>
            <Parameters>
             <VectorParam id="1555"  name="sourceCrop">
              <InterpolatingParam id="1556" interp="linr"  time="0/1" value="0" leadInLength="0/1"  />
              <InterpolatingParam id="1557" interp="linr"  time="0/1" value="0" leadInLength="0/1"  />
              <InterpolatingParam id="1558" interp="linr"  time="0/1" value="0" leadInLength="0/1"  />
              <InterpolatingParam id="1559" interp="linr"  time="0/1" value="0" leadInLength="0/1"  />
             </VectorParam>
             <VectorParam id="1560"  name="geometryCrop">
              <InterpolatingParam id="1561" interp="linr"  time="-9999999/1" value="0" leadInLength="0/1"  />
              <InterpolatingParam id="1562" interp="linr"  time="-9999999/1" value="0" leadInLength="0/1"  />
              <InterpolatingParam id="1563" interp="linr"  time="-9999999/1" value="0" leadInLength="0/1"  />
              <InterpolatingParam id="1564" interp="linr"  time="-9999999/1" value="0" leadInLength="0/1"  />
             </VectorParam>
             <InterpolatingParam id="1565" interp="linr"  time="-9999999/1" value="1" leadInLength="0/1"  name="opacity"/>
             <InterpolatingParam id="1566" interp="linr"  time="0/1" value="0" leadInLength="0/1"  name="cursorOpacity"/>
             <InterpolatingParam id="1567" interp="linr"  time="0/1" value="0" leadInLength="0/1"  name="cursorScale"/>
            </Parameters>
            <Attributes>
             <Attribute id="1568" value="" name="ident"/>
            </Attributes>
            <MetaData>
             <entry key="AutoAppliedSmartFocus" val="False"/>
             <entry key="WinSubProjectDisplayName" val=""/>
            </MetaData>
            <ExtraData>
             <Entry key="ZoomPanBin">
              <ZoomPanBin id="1569"  >
               <ZoomPanKeyframes>
                <ZoomPanKeyframe id="1570" timeRangeEnd="-9999999/1" timeRangeDuration="0/1" interpolaterName=""  />
               </ZoomPanKeyframes>
              </ZoomPanBin>
             </Entry>
             <Entry key="CursorEffectBin">
              <CursorEffectBin id="1571"  >
               <CursorEffectKeyframes>
               </CursorEffectKeyframes>
              </CursorEffectBin>
             </Entry>
            </ExtraData>
           </ScreenVMFile>
           <ScreenVMFile id="1572" start="420" duration="268" scalar="1/1" mediaStart="472/1" mediaDuration="268/1" trackNumber="0" src="4" >
            <Transformer>
             <VectorParam id="1573"  name="translation">
              <InterpolatingParam id="1574" interp="linr"  time="-9999999/1" value="0" leadInLength="0/1"  />
              <InterpolatingParam id="1575" interp="linr"  time="-9999999/1" value="0" leadInLength="0/1"  />
              <InterpolatingParam id="1576" interp="linr"  time="-9999999/1" value="0" leadInLength="0/1"  />
             </VectorParam>
             <VectorParam id="1577"  name="rotation">
              <InterpolatingParam id="1578" interp="linr"  time="-9999999/1" value="0" leadInLength="0/1"  />
              <InterpolatingParam id="1579" interp="linr"  time="-9999999/1" value="0" leadInLength="0/1"  />
              <InterpolatingParam id="1580" interp="linr"  time="-9999999/1" value="0" leadInLength="0/1"  />
             </VectorParam>
             <VectorParam id="1581"  name="shear">
              <InterpolatingParam id="1582" interp="linr"  time="-9999999/1" value="0" leadInLength="0/1"  />
              <InterpolatingParam id="1583" interp="linr"  time="-9999999/1" value="0" leadInLength="0/1"  />
              <InterpolatingParam id="1584" interp="linr"  time="-9999999/1" value="0" leadInLength="0/1"  />
             </VectorParam>
             <VectorParam id="1585"  name="scale">
              <InterpolatingParam id="1586" interp="linr"  time="-9999999/1" value="1" leadInLength="0/1"  />
              <InterpolatingParam id="1587" interp="linr"  time="-9999999/1" value="1" leadInLength="0/1"  />
              <InterpolatingParam id="1588" interp="linr"  time="-9999999/1" value="1" leadInLength="0/1"  />
             </VectorParam>
             <VectorParam id="1589"  name="anchor">
              <InterpolatingParam id="1590" interp="linr"  time="0/1" value="0" leadInLength="0/1"  />
              <InterpolatingParam id="1591" interp="linr"  time="0/1" value="0" leadInLength="0/1"  />
              <InterpolatingParam id="1592" interp="linr"  time="0/1" value="0" leadInLength="0/1"  />
             </VectorParam>
            </Transformer>
            <Parameters>
             <VectorParam id="1593"  name="sourceCrop">
              <InterpolatingParam id="1594" interp="linr"  time="0/1" value="0" leadInLength="0/1"  />
              <InterpolatingParam id="1595" interp="linr"  time="0/1" value="0" leadInLength="0/1"  />
              <InterpolatingParam id="1596" interp="linr"  time="0/1" value="0" leadInLength="0/1"  />
              <InterpolatingParam id="1597" interp="linr"  time="0/1" value="0" leadInLength="0/1"  />
             </VectorParam>
             <VectorParam id="1598"  name="geometryCrop">
              <InterpolatingParam id="1599" interp="linr"  time="-9999999/1" value="0" leadInLength="0/1"  />
              <InterpolatingParam id="1600" interp="linr"  time="-9999999/1" value="0" leadInLength="0/1"  />
              <InterpolatingParam id="1601" interp="linr"  time="-9999999/1" value="0" leadInLength="0/1"  />
              <InterpolatingParam id="1602" interp="linr"  time="-9999999/1" value="0" leadInLength="0/1"  />
             </VectorParam>
             <InterpolatingParam id="1603" interp="linr"  time="-9999999/1" value="1" leadInLength="0/1"  name="opacity"/>
             <InterpolatingParam id="1604" interp="linr"  time="0/1" value="0" leadInLength="0/1"  name="cursorOpacity"/>
             <InterpolatingParam id="1605" interp="linr"  time="0/1" value="0" leadInLength="0/1"  name="cursorScale"/>
            </Parameters>
            <Attributes>
             <Attribute id="1606" value="" name="ident"/>
            </Attributes>
            <MetaData>
             <entry key="AutoAppliedSmartFocus" val="False"/>
             <entry key="WinSubProjectDisplayName" val=""/>
            </MetaData>
            <ExtraData>
             <Entry key="ZoomPanBin">
              <ZoomPanBin id="1607"  >
               <ZoomPanKeyframes>
                <ZoomPanKeyframe id="1608" timeRangeEnd="-9999999/1" timeRangeDuration="0/1" interpolaterName=""  />
               </ZoomPanKeyframes>
              </ZoomPanBin>
             </Entry>
             <Entry key="CursorEffectBin">
              <CursorEffectBin id="1609"  >
               <CursorEffectKeyframes>
               </CursorEffectKeyframes>
              </CursorEffectBin>
             </Entry>
            </ExtraData>
           </ScreenVMFile>
           <ScreenVMFile id="1610" start="688" duration="13192" scalar="1/1" mediaStart="1658/1" mediaDuration="13192/1" trackNumber="0" src="4" >
            <Transformer>
             <VectorParam id="1611"  name="translation">
              <InterpolatingParam id="1612" interp="linr"  time="-9999999/1" value="0" leadInLength="0/1"  />
              <InterpolatingParam id="1613" interp="linr"  time="-9999999/1" value="0" leadInLength="0/1"  />
              <InterpolatingParam id="1614" interp="linr"  time="-9999999/1" value="0" leadInLength="0/1"  />
             </VectorParam>
             <VectorParam id="1615"  name="rotation">
              <InterpolatingParam id="1616" interp="linr"  time="-9999999/1" value="0" leadInLength="0/1"  />
              <InterpolatingParam id="1617" interp="linr"  time="-9999999/1" value="0" leadInLength="0/1"  />
              <InterpolatingParam id="1618" interp="linr"  time="-9999999/1" value="0" leadInLength="0/1"  />
             </VectorParam>
             <VectorParam id="1619"  name="shear">
              <InterpolatingParam id="1620" interp="linr"  time="-9999999/1" value="0" leadInLength="0/1"  />
              <InterpolatingParam id="1621" interp="linr"  time="-9999999/1" value="0" leadInLength="0/1"  />
              <InterpolatingParam id="1622" interp="linr"  time="-9999999/1" value="0" leadInLength="0/1"  />
             </VectorParam>
             <VectorParam id="1623"  name="scale">
              <InterpolatingParam id="1624" interp="linr"  time="-9999999/1" value="1" leadInLength="0/1"  />
              <InterpolatingParam id="1625" interp="linr"  time="-9999999/1" value="1" leadInLength="0/1"  />
              <InterpolatingParam id="1626" interp="linr"  time="-9999999/1" value="1" leadInLength="0/1"  />
             </VectorParam>
             <VectorParam id="1627"  name="anchor">
              <InterpolatingParam id="1628" interp="linr"  time="0/1" value="0" leadInLength="0/1"  />
              <InterpolatingParam id="1629" interp="linr"  time="0/1" value="0" leadInLength="0/1"  />
              <InterpolatingParam id="1630" interp="linr"  time="0/1" value="0" leadInLength="0/1"  />
             </VectorParam>
            </Transformer>
            <Parameters>
             <VectorParam id="1631"  name="sourceCrop">
              <InterpolatingParam id="1632" interp="linr"  time="0/1" value="0" leadInLength="0/1"  />
              <InterpolatingParam id="1633" interp="linr"  time="0/1" value="0" leadInLength="0/1"  />
              <InterpolatingParam id="1634" interp="linr"  time="0/1" value="0" leadInLength="0/1"  />
              <InterpolatingParam id="1635" interp="linr"  time="0/1" value="0" leadInLength="0/1"  />
             </VectorParam>
             <VectorParam id="1636"  name="geometryCrop">
              <InterpolatingParam id="1637" interp="linr"  time="-9999999/1" value="0" leadInLength="0/1"  />
              <InterpolatingParam id="1638" interp="linr"  time="-9999999/1" value="0" leadInLength="0/1"  />
              <InterpolatingParam id="1639" interp="linr"  time="-9999999/1" value="0" leadInLength="0/1"  />
              <InterpolatingParam id="1640" interp="linr"  time="-9999999/1" value="0" leadInLength="0/1"  />
             </VectorParam>
             <InterpolatingParam id="1641" interp="linr"  time="-9999999/1" value="1" leadInLength="0/1"  name="opacity"/>
             <InterpolatingParam id="1642" interp="linr"  time="0/1" value="0" leadInLength="0/1"  name="cursorOpacity"/>
             <InterpolatingParam id="1643" interp="linr"  time="0/1" value="0" leadInLength="0/1"  name="cursorScale"/>
            </Parameters>
            <Attributes>
             <Attribute id="1644" value="" name="ident"/>
            </Attributes>
            <MetaData>
             <entry key="AutoAppliedSmartFocus" val="False"/>
             <entry key="WinSubProjectDisplayName" val=""/>
            </MetaData>
            <ExtraData>
             <Entry key="ZoomPanBin">
              <ZoomPanBin id="1645"  >
               <ZoomPanKeyframes>
                <ZoomPanKeyframe id="1646" timeRangeEnd="-9999999/1" timeRangeDuration="0/1" interpolaterName=""  />
               </ZoomPanKeyframes>
              </ZoomPanBin>
             </Entry>
             <Entry key="CursorEffectBin">
              <CursorEffectBin id="1647"  >
               <CursorEffectKeyframes>
               </CursorEffectKeyframes>
              </CursorEffectBin>
             </Entry>
            </ExtraData>
           </ScreenVMFile>
          </Medias>
         </GenericTrack>
        </StitchedMedia>
        <StitchedMedia id="1648" start="1318" duration="3949" scalar="1/1" mediaStart="1373/1" mediaDuration="3949/1" minMediaStart="0/1" >
         <Transformer>
          <VectorParam id="1649"  name="translation">
           <InterpolatingParam id="1650" interp="linr"  >
            <Keyframes>
            <Keyframe id="1651"  time="-9999999/1" value="225.01746724913505" leadInLength="0/1"  interpolater="leadin-linr"  />
            <Keyframe id="1652"  time="2089/1" value="582.65938864622444" leadInLength="30/1"  interpolater="leadin-linr"  />
            </Keyframes>
           </InterpolatingParam>
           <InterpolatingParam id="1653" interp="linr"  >
            <Keyframes>
            <Keyframe id="1654"  time="-9999999/1" value="-2.2631004365392187" leadInLength="0/1"  interpolater="leadin-linr"  />
            <Keyframe id="1655"  time="2089/1" value="-270.49454148474507" leadInLength="30/1"  interpolater="leadin-linr"  />
            </Keyframes>
           </InterpolatingParam>
           <InterpolatingParam id="1656" interp="linr"  >
            <Keyframes>
            <Keyframe id="1657"  time="-9999999/1" value="0" leadInLength="0/1"  interpolater="leadin-linr"  />
            <Keyframe id="1658"  time="2089/1" value="0" leadInLength="30/1"  interpolater="leadin-linr"  />
            </Keyframes>
           </InterpolatingParam>
          </VectorParam>
          <VectorParam id="1659"  name="rotation">
           <InterpolatingParam id="1660" interp="linr"  >
            <Keyframes>
            <Keyframe id="1661"  time="-9999999/1" value="0" leadInLength="0/1"  interpolater="leadin-linr"  />
            <Keyframe id="1662"  time="2089/1" value="0" leadInLength="30/1"  interpolater="leadin-linr"  />
            </Keyframes>
           </InterpolatingParam>
           <InterpolatingParam id="1663" interp="linr"  >
            <Keyframes>
            <Keyframe id="1664"  time="-9999999/1" value="0" leadInLength="0/1"  interpolater="leadin-linr"  />
            <Keyframe id="1665"  time="2089/1" value="0" leadInLength="30/1"  interpolater="leadin-linr"  />
            </Keyframes>
           </InterpolatingParam>
           <InterpolatingParam id="1666" interp="linr"  >
            <Keyframes>
            <Keyframe id="1667"  time="-9999999/1" value="0" leadInLength="0/1"  interpolater="leadin-linr"  />
            <Keyframe id="1668"  time="2089/1" value="0" leadInLength="30/1"  interpolater="leadin-linr"  />
            </Keyframes>
           </InterpolatingParam>
          </VectorParam>
          <VectorParam id="1669"  name="shear">
           <InterpolatingParam id="1670" interp="linr"  >
            <Keyframes>
            <Keyframe id="1671"  time="-9999999/1" value="0" leadInLength="0/1"  interpolater="leadin-linr"  />
            <Keyframe id="1672"  time="2089/1" value="0" leadInLength="30/1"  interpolater="leadin-linr"  />
            </Keyframes>
           </InterpolatingParam>
           <InterpolatingParam id="1673" interp="linr"  >
            <Keyframes>
            <Keyframe id="1674"  time="-9999999/1" value="0" leadInLength="0/1"  interpolater="leadin-linr"  />
            <Keyframe id="1675"  time="2089/1" value="0" leadInLength="30/1"  interpolater="leadin-linr"  />
            </Keyframes>
           </InterpolatingParam>
           <InterpolatingParam id="1676" interp="linr"  >
            <Keyframes>
            <Keyframe id="1677"  time="-9999999/1" value="0" leadInLength="0/1"  interpolater="leadin-linr"  />
            <Keyframe id="1678"  time="2089/1" value="0" leadInLength="30/1"  interpolater="leadin-linr"  />
            </Keyframes>
           </InterpolatingParam>
          </VectorParam>
          <VectorParam id="1679"  name="scale">
           <InterpolatingParam id="1680" interp="linr"  >
            <Keyframes>
            <Keyframe id="1681"  time="-9999999/1" value="1.4905704148471797" leadInLength="0/1"  interpolater="leadin-linr"  />
            <Keyframe id="1682"  time="2089/1" value="0.37293941048043994" leadInLength="30/1"  interpolater="leadin-linr"  />
            </Keyframes>
           </InterpolatingParam>
           <InterpolatingParam id="1683" interp="linr"  >
            <Keyframes>
            <Keyframe id="1684"  time="-9999999/1" value="1.4905704148471794" leadInLength="0/1"  interpolater="leadin-linr"  />
            <Keyframe id="1685"  time="2089/1" value="0.37293941048043977" leadInLength="30/1"  interpolater="leadin-linr"  />
            </Keyframes>
           </InterpolatingParam>
           <InterpolatingParam id="1686" interp="linr"  >
            <Keyframes>
            <Keyframe id="1687"  time="-9999999/1" value="1" leadInLength="0/1"  interpolater="leadin-linr"  />
            <Keyframe id="1688"  time="2089/1" value="1" leadInLength="30/1"  interpolater="leadin-linr"  />
            </Keyframes>
           </InterpolatingParam>
          </VectorParam>
          <VectorParam id="1689"  name="anchor">
           <InterpolatingParam id="1690" interp="linr"  time="0/1" value="0" leadInLength="0/1"  />
           <InterpolatingParam id="1691" interp="linr"  time="0/1" value="0" leadInLength="0/1"  />
           <InterpolatingParam id="1692" interp="linr"  time="0/1" value="0" leadInLength="0/1"  />
          </VectorParam>
         </Transformer>
         <Parameters>
          <VectorParam id="1693"  name="sourceCrop">
           <InterpolatingParam id="1694" interp="linr"  time="0/1" value="0" leadInLength="0/1"  />
           <InterpolatingParam id="1695" interp="linr"  time="0/1" value="0" leadInLength="0/1"  />
           <InterpolatingParam id="1696" interp="linr"  time="0/1" value="0" leadInLength="0/1"  />
           <InterpolatingParam id="1697" interp="linr"  time="0/1" value="0" leadInLength="0/1"  />
          </VectorParam>
          <VectorParam id="1698"  name="geometryCrop">
           <InterpolatingParam id="1699" interp="linr"  >
            <Keyframes>
            <Keyframe id="1700"  time="-9999999/1" value="0" leadInLength="0/1"  interpolater="leadin-linr"  />
            <Keyframe id="1701"  time="2089/1" value="0" leadInLength="30/1"  interpolater="leadin-linr"  />
            </Keyframes>
           </InterpolatingParam>
           <InterpolatingParam id="1702" interp="linr"  >
            <Keyframes>
            <Keyframe id="1703"  time="-9999999/1" value="0" leadInLength="0/1"  interpolater="leadin-linr"  />
            <Keyframe id="1704"  time="2089/1" value="0" leadInLength="30/1"  interpolater="leadin-linr"  />
            </Keyframes>
           </InterpolatingParam>
           <InterpolatingParam id="1705" interp="linr"  >
            <Keyframes>
            <Keyframe id="1706"  time="-9999999/1" value="0" leadInLength="0/1"  interpolater="leadin-linr"  />
            <Keyframe id="1707"  time="2089/1" value="0" leadInLength="30/1"  interpolater="leadin-linr"  />
            </Keyframes>
           </InterpolatingParam>
           <InterpolatingParam id="1708" interp="linr"  >
            <Keyframes>
            <Keyframe id="1709"  time="-9999999/1" value="0" leadInLength="0/1"  interpolater="leadin-linr"  />
            <Keyframe id="1710"  time="2089/1" value="0" leadInLength="30/1"  interpolater="leadin-linr"  />
            </Keyframes>
           </InterpolatingParam>
          </VectorParam>
          <InterpolatingParam id="1711" interp="linr"  name="opacity">
           <Keyframes>
           <Keyframe id="1712"  time="-9999999/1" value="1" leadInLength="0/1"  interpolater="leadin-linr"  />
           <Keyframe id="1713"  time="2089/1" value="1" leadInLength="30/1"  interpolater="leadin-linr"  />
           </Keyframes>
          </InterpolatingParam>
          <InterpolatingParam id="1714" interp="linr"  time="0/1" value="1" leadInLength="0/1"  name="cursorOpacity"/>
          <InterpolatingParam id="1715" interp="linr"  time="0/1" value="1" leadInLength="0/1"  name="cursorScale"/>
          <InterpolatingParam id="1716" interp="linr"  time="0/1" value="1" leadInLength="0/1"  name="volume"/>
          <Parameter id="1717"  name="captions"/>
         </Parameters>
         <Effects>
          <GenericEffect id="1718" name = "NoiseReduction" >
           <Parameters>
           <InterpolatingParam id="1719" interp="linr"  time="0/1" value="27.599999999999998" leadInLength="0/1"   name="denoiserAmount"/>
           <InterpolatingParam id="1720" interp="linr"  time="0/1" value="2.2799999999999994" leadInLength="0/1"   name="denoiserThreshold"/>
           <Parameter id="1721"   name="noiseProfile">
            <Keyframes>
            <Keyframe id="1722"  time="0/1" value="FBAAAAIAAABErAAAAQIAADowIcKkMhPC3bwnwqbxMMIPKEvCOndNwi6nUMI7TVLCsD1WwtBnUsJ4&#xD;&#xa;mlLC1K1Xwty2XsK8WWLCbz1owkjkacIq5W3Cd0t0woGRcMJuVW3CKgxswnQYasKzMGzCMitvwkeZ&#xD;&#xa;bsIiU23CMSpxwpqdd8I/JXjCb/h7wrKBgMLAioHCVC+CwtvLgcKNxIDCYnmCwrtzhcJ7bobCylqG&#xD;&#xa;wlcnhcJNzITCGFiEwkEgiMJ7bYvC7FiLwsZMisJEL4vCcOqMwlwrkMIpxpDCmLmRwla9k8KAzJHC&#xD;&#xa;vc2RwgdJlMKIbZLCGQeTwhJolcJznpTC2g6XwrcalcIMfJTCHLWWwtFlmMLzG5fCeLeVwn+SlsI9&#xD;&#xa;J5fCYMGcwqCOmMJnjJfCMmGbwvbbm8JEb5vCWLaZwlW9lcI0HZbCs3mbwvCfmcK29ZfCAlWTwiNG&#xD;&#xa;kcJSJ5TCSOyTwrw4kcIGj5DCvAGTwlWom8KhwJ/CP56bwvBzmMLEc5nCamaTwmrFksJsBJvCf82b&#xD;&#xa;wpqImMLe/5jCDUiYwgDXl8LeRpjCLHWZwgTFmsIKWpvChFWcwu9Tm8KJy53CcYmhwtacoMK8CZzC&#xD;&#xa;oCGbwiLPmMImNZnCd06cwli+mcLu8ZjCWnyVwpTmmcLurZnChVOYwsOVl8Lo2pXCS3GUwkEwlcKB&#xD;&#xa;lZTC7/WWwrJim8JaMprCWGSZwuPglsK5FJrCY4yUwrBnksLoaJfCjNOYwkiCmcLm/5TCIsmWwglV&#xD;&#xa;l8IXwpXCgGiUwnbDkMKVMpHCI1aQwtjNk8KXKZTCeKyTwiWPksJU/JTCdlKYwmZel8Ly9JLC1cKQ&#xD;&#xa;wlVGk8J0qZTCDEGUwnlQlcK9xZjCN6SVwrnalcLXoJbCan6Wwq4RlsIhVpbCZACYwmhQlsK6LJjC&#xD;&#xa;KpGXwp2AlsKfzZTCXASUwhdXlMJPY5TC7z+ZwiVjlsI/yJjCu+qdwruTmMJ9OJjCFAWawpxjl8IY&#xD;&#xa;3JbCVkuWwkg/msKcJZ3CbWqgwtXEocK+vJvCaKWZwhbumMKxwZjCEWObwvnlmsLvOZrCjIWWwiLz&#xD;&#xa;kcIc45LCWKqVwvnPl8Lnt5jCLISXwvujmMJDsZPCwPuTwnXgm8IuwZrCb0eZwrXOlcL8rpPCQ9yW&#xD;&#xa;wuRem8LEA57CXdufwtDPoMKbqJ7CpvmfwlqPo8J5xKDCkXafwpSyncLArZ3C1bmgwoDooMKhcaXC&#xD;&#xa;keylwl+NpcIMCKPCAtyhworko8KqrqPC3+Gkwhyqo8IznaPCV6ujwgAgo8J0A6LCGAugwrF0nsJV&#xD;&#xa;Q6DC84ujwjwLpML9y6TCsA+mwsmmp8Lu6qbCjcGlwjk4psLcJaTC7+GlwiOpo8JaX6TCFFuiwqqu&#xD;&#xa;osLkAqPCEICiwvy7nsI+zJ7C03mhwgKiosIAF6HCdIWhwqZBocIImKHCCxKnwikQqcJ9PqLCNuGe&#xD;&#xa;wjk7oMLwvqXCwGygwtRcnsJSFqHCbK6ewvCknsJ+wZ/CPzKcwoBQl8L0SpnCfvuXwv1gl8JTlpzC&#xD;&#xa;Y5efwv1kncLxR5jCk8aZwkb4nMKDgpvC+d+awr9gnsIiEZ/CeRqbwhnXmsIrXpnCb1eZwl6JnMKu&#xD;&#xa;bZ3CCTidwjgknMLiR57Cyzykwm06o8I0yp7CC+ubwmcenMKu6Z7CaDygwvskosKcMKDC9UmiwgUQ&#xD;&#xa;oMKjQJzCsMGewoIFpMJo56HCrFGhwghZo8K6T6TCM6SlwtA8pcIaraTCcV+owjYjqMIJPabC6q6j&#xD;&#xa;wpwmpMK3uaLCNganwiwkqMLEXqnCni6qwvYgqcL+oqnC+IGmwshKpcKSVqjCQQ+lwkv/pMLztabC&#xD;&#xa;+pOlwt64osK0zabCe3OmwgV2pMLuRKjCrf6mwml4p8JEwqvC2g6xwtvir8IOWLHCGrqtwg41qsJv&#xD;&#xa;IqjCThypwtL6rcJ14q3CPjSvwtQFrcKSJKjC6UupwjTlqsJPGazCGhGpwh9Yp8LHOavCQ3Spwlc5&#xD;&#xa;qMIPOKfCalmnwvvFq8Iw2qzCyU+swrfUrsLuOK/CkhqrwoTKqcJCH6nCon+nwnUdqsIjHarCf0mr&#xD;&#xa;wn3eqcK8lavC4leswu/WrMJnfK7CecmxwmQCtMJO9q/CEJ2qwlLurMJYnq7CcO6vws+UsMK/xK/C&#xD;&#xa;mDCxwk1qscLSLK3C3juuwu3bssKc5LbCRze1wgimtMKYG7bC5Fq1wvhDtsK8dbPClfCywnWDtcIZ&#xD;&#xa;37nCFw65wmkQvMJYDrnCskW1wg1LuMLwWrnCRIy3wqyftMKugLjCDMi0whxnssJ6/bXC+HW1wnWk&#xD;&#xa;ssIoYbPCZD22wnafucIA0rnChlm5wllotcKklLXCTCK2wtOhtcIcobfCz4G2wkgntcJMN7PCEKSx&#xD;&#xa;wg7qscIpj7LCAAu3wgdhu8KmdrvCsvS3wn8nssJQprTClga7wi35ucLler/CzFC7wrf4tcLkt7XC&#xD;&#xa;uuK5wvAJv8KqbrzC4WO5wlY9usIszL3CqhO9wo5Jv8Kyf8PCHCHBwtKTvcKcoL3CyNe/woiUwMJc&#xD;&#xa;A8XCL2LDwrR3xMLypsLCbCfDwsi4wcKiAcHCb2nDwjUJvMLoTbXCgnS3wmTDu8L/VcLCovPGwj8D&#xD;&#xa;yMK4xMbCmlXHwh4KxsJGO7/C40e+wm6mxsKwesPCdr/CwjaiwcL9ksPCtkjGwi5ZwcK4NcXC8qPJ&#xD;&#xa;wrSOy8Ii+snC/jfNwhq908KS/9HCqRHYwgXn4sJcZ9LCLErPwnW/2MJKqdrCSSHZwpZb1cL64tPC&#xD;&#xa;ZPnYwjhb3MKePdDChOjawlkwIcLCMhPCEL0nwt3xMMI5KEvCW3dNwhynUMKITVLCxj5WwnFoUsLQ&#xD;&#xa;mVLCm61Xwo62XsLXWWLCqj1ownvkacIq5W3CwEt0wgCScMK+VG3C8gpswksXasIfMGzC6ypvwjGY&#xD;&#xa;bsLUUW3C/ypxwvqdd8JJJnjCAfh7wgqAgMLOiYHCYC+CwnvLgcK5xIDC0nmCwpd0hcLAbobCllyG&#xD;&#xa;wk4ohcLTy4TC7VeEwl8fiMKUbIvCaVaLwtpJisI0L4vCAOyMwqItkMIVx5DC9rqRwh67k8JeyJHC&#xD;&#xa;lsuRwklIlMKYa5LClwGTwllklcK3nJTCsQmXwmQYlcLBfJTCg7WWwmprmMJAH5fCELmVwjaSlsJi&#xD;&#xa;KJfC/MWcwr6NmMJniZfCWV+bwjDbm8KSaZvCwrOZwri+lcJSH5bCkHebwmmfmcJ495fCE1WTwnVG&#xD;&#xa;kcKGJpTCPOqTws44kcKqjpDC/wGTwrCsm8Jqzp/CLrebwoiVmMLvjZnCPm6TwuPTksI2H5vCdOCb&#xD;&#xa;wrqPmMI2FJnC/GmYwqPdl8IoP5jCTHOZwl7FmsIIXZvC+HOcwgZtm8LZ153CAqmhwpGjoMJoCZzC&#xD;&#xa;YB2bwp7ImML0K5nCjEmcwo3HmcK+/ZjCOYCVwhHrmcJww5nCVmCYwnyUl8KC1ZXCA3CUwqsqlcK3&#xD;&#xa;pZTC1/6WwmRxm8K5OprCyG6Zwk7wlsJ4JprCwIaUwhttksJUe5fC7ueYwryYmcJODJXC8cmWwhBj&#xD;&#xa;l8LKyZXC2muUwkLRkMKcOZHCGF+QwqnRk8KcK5TCNKiTwliKksIk+JTCxE2YwvJWl8KG8pLCrMSQ&#xD;&#xa;wolFk8IXqpTChEOUwlVRlcL9xpjC+qOVwjvZlcLtoJbCnX2WwrUOlsJqVpbCzwGYwnlQlsJ6LpjC&#xD;&#xa;QI+XwpCAlsLgzpTCNAKUwtxWlMJgY5TCZj+ZwmBllsKiyZjCVPydwmyimMIZNpjCygiawsRwl8KG&#xD;&#xa;35bCCVmWwldHmsIkIp3Cb2+gws/pocLyz5vCDJ+ZwjjjmMJhwJjCPmWbwjPwmsL9O5rCIoaWwtb2&#xD;&#xa;kcKx6JLC/K2Vwr7Kl8JPtpjCynuXwjygmMInspPCKPiTwijpm8IAxprCDjyZwrDIlcI5r5PCq+GW&#xD;&#xa;wgNjm8IyA57Ck+afwk7xoMLA357CTiigwsKlo8L+wqDCC2qfwve6ncKupJ3CPqOgwhnyoMKBraXC&#xD;&#xa;OCKmwmOGpcLi9aLC39ahwqDXo8LnwKPCuvSkwp2uo8L2t6PCsKajwtEvo8LJMKLC2x6gwueEnsJO&#xD;&#xa;XaDCdoCjwokMpMJY4qTCrjCmws6wp8LS76bCcKelwuU8psJBI6TCevulwoC1o8KpY6TCo1KiwpC6&#xD;&#xa;osL2CqPCG4Siwh3EnsKyxp7Ct4Ghwp2+osLpHqHCNpKhwmhOocKtl6HC6genwkQaqcIBTKLC3fye&#xD;&#xa;wl5LoMJ+u6XCZVygwkRQnsIKHqHCBLOewmqbnsLts5/C8jGcwmdXl8JrT5nCVfmXwjhZl8JelpzC&#xD;&#xa;65yfwslrncI8RZjCWL6ZwlLsnMIShJvClOOawttinsI4EZ/C+Babws/SmsK4WJnCn1GZwnKJnMLw&#xD;&#xa;cJ3CYTudwlAinMIWRZ7CvTakwmwyo8LZx57C++6bwg0inMIt5p7C8zqgwtIhosIeMaDCZkiiwiEO&#xD;&#xa;oMJYQ5zCSsmewjIRpMI66aHChFKhwj5do8IlTqTCrKalwrI4pcKuq6TCnWWowgIqqMKaTKbCJrOj&#xD;&#xa;wvMopMJStqLCGPKmwpcTqMJeXKnCnjiqwrkiqcJOpKnC4oOmwgtTpcLQX6jCWBulwp8LpcIBwqbC&#xD;&#xa;zI2lwme0osIX0KbCPHemwjB5pMKmSqjCfgGnwjd4p8JMu6vCtQOxwhDUr8LCR7HCzbWtwuA0qsJm&#xD;&#xa;HajCyiWpwgwIrsJf4a3CUjuvwoUWrcKOL6jCBFCpwuPoqsLJDazC1gapwrZUp8JBNKvCm2+pwsM1&#xD;&#xa;qMK0OafCmlinwuPOq8KS4azCelGswl3jrsJiQK/CaxOrwg7OqcIHH6nCFoWnwrAXqsKiHKrCsESr&#xD;&#xa;wirhqcLhlqvC5FKswnnNrMLMc67CR8uxwuMHtMLY9q/CDqWqwgL4rMKUl67CE/2vwvaqsMLr0K/C&#xD;&#xa;yS6xwkBpscKoNK3CVjquwqTVssJ8zbbC5SW1wiWmtMKFB7bCeF21wkpOtsIifbPCgfqywouetcLv&#xD;&#xa;3rnCLAq5wvX6u8Lu9LjCNE21whBiuMLeeLnCspy3wsq0tMJ8hrjCNsa0wg5vssIhALbCooO1wg65&#xD;&#xa;ssIjY7PCvEy2wma+ucKsz7nCKmK5wi52tcJFrrXCkxq2wvCTtcLCj7fC42y2wo4wtcJOP7PClKWx&#xD;&#xa;wrUEssLRl7LCF/W2wgBau8Kyg7vC4Ne3wlMsssI8o7TC4gi7wijqucLkU7/Cfkm7wugTtsJYw7XC&#xD;&#xa;Jt+5wlbzvsLuZLzC6ny5wgQ6usIvr73COPW8wmc5v8KUTMPCK/zAwiR4vcKyer3CTKW/wmKAwMKI&#xD;&#xa;IsXCF2jDwrdaxMIofcLCeyjDwgq6wcJYHMHC0FrDwmr8u8KhTbXCamC3wpS4u8J0ZsLCKwrHwsDU&#xD;&#xa;x8K6msbC8k7HwvInxsJwFL/CyiW+wouuxsIFlsPCSu7CwrjCwcJIocPCvkfGwnxywcJtNsXC2pDJ&#xD;&#xa;wkaJy8Je9MnCjpnNwpYD1MIEMtLC9ijYwred4sIeF9LCfhrPwtKG2MK9g9rCUn/ZwqrI1cKdINTC&#xD;&#xa;yZPYwi4G3MK4KNDCctza" leadInLength="0/1"  />
            </Keyframes>
           </Parameter>
           </Parameters>
           <MetaData>
            <entry key="effectIndex" val="0"/>
           </MetaData>
          </GenericEffect>
         </Effects>
         <Attributes>
          <Attribute id="1723" value="" name="ident"/>
          <Attribute id="1724" value="0" name="mixToMono"/>
         </Attributes>
         <MetaData>
          <entry key="WinSubProjectDisplayName" val=""/>
         </MetaData>
         <ExtraData>
          <Entry key="ZoomPanBin">
           <ZoomPanBin id="1725"  >
            <ZoomPanKeyframes>
             <ZoomPanKeyframe id="1726" timeRangeEnd="-9999999/1" timeRangeDuration="0/1" interpolaterName="linr"  />
             <ZoomPanKeyframe id="1727" timeRangeEnd="2089/1" timeRangeDuration="30/1" interpolaterName="linr"  />
            </ZoomPanKeyframes>
           </ZoomPanBin>
          </Entry>
          <Entry key="CursorEffectBin">
           <CursorEffectBin id="1728"  >
            <CursorEffectKeyframes>
            </CursorEffectKeyframes>
           </CursorEffectBin>
          </Entry>
         </ExtraData>
         <GenericTrack id="1729"  >
          <Attributes>
           <Attribute id="1730" value="" name="ident"/>
           <Attribute id="1731" value="0" name="audioMuted"/>
           <Attribute id="1732" value="0" name="videoHidden"/>
          </Attributes>
          <MetaData>
           <entry key="IsLocked" val="False"/>
           <entry key="WinTrackHeight" val="0"/>
          </MetaData>
          <Medias>
           <UnifiedMedia id="1733"  >
            <AMFile id="1734" start="0" duration="420" scalar="1/1" mediaStart="0/1" mediaDuration="420/1" trackNumber="2" src="4" channelNumber="0,1" >
             <Parameters>
              <InterpolatingParam id="1735" interp="linr"  time="0/1" value="1" leadInLength="0/1"  name="volume"/>
              <Parameter id="1736"  name="captions"/>
             </Parameters>
             <Attributes>
              <Attribute id="1737" value="" name="ident"/>
              <Attribute id="1738" value="44100" name="sampleRate"/>
              <Attribute id="1739" value="16" name="bitDepth"/>
              <Attribute id="1740" value="1" name="gain"/>
              <Attribute id="1741" value="0" name="mixToMono"/>
             </Attributes>
            </AMFile>
            <VMFile id="1742" start="0" duration="420" scalar="1/1" mediaStart="0/1" mediaDuration="420/1" trackNumber="1" src="4" >
             <Transformer>
              <VectorParam id="1743"  name="translation">
               <InterpolatingParam id="1744" interp="linr"  time="-9999999/1" value="0" leadInLength="0/1"  />
               <InterpolatingParam id="1745" interp="linr"  time="-9999999/1" value="0" leadInLength="0/1"  />
               <InterpolatingParam id="1746" interp="linr"  time="-9999999/1" value="0" leadInLength="0/1"  />
              </VectorParam>
              <VectorParam id="1747"  name="rotation">
               <InterpolatingParam id="1748" interp="linr"  time="-9999999/1" value="0" leadInLength="0/1"  />
               <InterpolatingParam id="1749" interp="linr"  time="-9999999/1" value="0" leadInLength="0/1"  />
               <InterpolatingParam id="1750" interp="linr"  time="-9999999/1" value="0" leadInLength="0/1"  />
              </VectorParam>
              <VectorParam id="1751"  name="shear">
               <InterpolatingParam id="1752" interp="linr"  time="-9999999/1" value="0" leadInLength="0/1"  />
               <InterpolatingParam id="1753" interp="linr"  time="-9999999/1" value="0" leadInLength="0/1"  />
               <InterpolatingParam id="1754" interp="linr"  time="-9999999/1" value="0" leadInLength="0/1"  />
              </VectorParam>
              <VectorParam id="1755"  name="scale">
               <InterpolatingParam id="1756" interp="linr"  time="-9999999/1" value="1" leadInLength="0/1"  />
               <InterpolatingParam id="1757" interp="linr"  time="-9999999/1" value="1" leadInLength="0/1"  />
               <InterpolatingParam id="1758" interp="linr"  time="-9999999/1" value="1" leadInLength="0/1"  />
              </VectorParam>
              <VectorParam id="1759"  name="anchor">
               <InterpolatingParam id="1760" interp="linr"  time="0/1" value="0" leadInLength="0/1"  />
               <InterpolatingParam id="1761" interp="linr"  time="0/1" value="0" leadInLength="0/1"  />
               <InterpolatingParam id="1762" interp="linr"  time="0/1" value="0" leadInLength="0/1"  />
              </VectorParam>
             </Transformer>
             <Parameters>
              <VectorParam id="1763"  name="sourceCrop">
               <InterpolatingParam id="1764" interp="linr"  time="0/1" value="0" leadInLength="0/1"  />
               <InterpolatingParam id="1765" interp="linr"  time="0/1" value="0" leadInLength="0/1"  />
               <InterpolatingParam id="1766" interp="linr"  time="0/1" value="0" leadInLength="0/1"  />
               <InterpolatingParam id="1767" interp="linr"  time="0/1" value="0" leadInLength="0/1"  />
              </VectorParam>
              <VectorParam id="1768"  name="geometryCrop">
               <InterpolatingParam id="1769" interp="linr"  time="-9999999/1" value="0" leadInLength="0/1"  />
               <InterpolatingParam id="1770" interp="linr"  time="-9999999/1" value="0" leadInLength="0/1"  />
               <InterpolatingParam id="1771" interp="linr"  time="-9999999/1" value="0" leadInLength="0/1"  />
               <InterpolatingParam id="1772" interp="linr"  time="-9999999/1" value="0" leadInLength="0/1"  />
              </VectorParam>
              <InterpolatingParam id="1773" interp="linr"  time="-9999999/1" value="1" leadInLength="0/1"  name="opacity"/>
             </Parameters>
             <Attributes>
              <Attribute id="1774" value="" name="ident"/>
             </Attributes>
             <ExtraData>
              <Entry key="ZoomPanBin">
               <ZoomPanBin id="1775"  >
                <ZoomPanKeyframes>
                 <ZoomPanKeyframe id="1776" timeRangeEnd="-9999999/1" timeRangeDuration="0/1" interpolaterName=""  />
                </ZoomPanKeyframes>
               </ZoomPanBin>
              </Entry>
             </ExtraData>
            </VMFile>
            <MetaData>
             <entry key="WinSubProjectDisplayName" val=""/>
            </MetaData>
           </UnifiedMedia>
           <UnifiedMedia id="1777"  >
            <AMFile id="1778" start="420" duration="268" scalar="1/1" mediaStart="472/1" mediaDuration="268/1" trackNumber="2" src="4" channelNumber="0,1" >
             <Parameters>
              <InterpolatingParam id="1779" interp="linr"  time="0/1" value="1" leadInLength="0/1"  name="volume"/>
              <Parameter id="1780"  name="captions"/>
             </Parameters>
             <Attributes>
              <Attribute id="1781" value="" name="ident"/>
              <Attribute id="1782" value="44100" name="sampleRate"/>
              <Attribute id="1783" value="16" name="bitDepth"/>
              <Attribute id="1784" value="1" name="gain"/>
              <Attribute id="1785" value="0" name="mixToMono"/>
             </Attributes>
            </AMFile>
            <VMFile id="1786" start="420" duration="268" scalar="1/1" mediaStart="472/1" mediaDuration="268/1" trackNumber="1" src="4" >
             <Transformer>
              <VectorParam id="1787"  name="translation">
               <InterpolatingParam id="1788" interp="linr"  time="-9999999/1" value="0" leadInLength="0/1"  />
               <InterpolatingParam id="1789" interp="linr"  time="-9999999/1" value="0" leadInLength="0/1"  />
               <InterpolatingParam id="1790" interp="linr"  time="-9999999/1" value="0" leadInLength="0/1"  />
              </VectorParam>
              <VectorParam id="1791"  name="rotation">
               <InterpolatingParam id="1792" interp="linr"  time="-9999999/1" value="0" leadInLength="0/1"  />
               <InterpolatingParam id="1793" interp="linr"  time="-9999999/1" value="0" leadInLength="0/1"  />
               <InterpolatingParam id="1794" interp="linr"  time="-9999999/1" value="0" leadInLength="0/1"  />
              </VectorParam>
              <VectorParam id="1795"  name="shear">
               <InterpolatingParam id="1796" interp="linr"  time="-9999999/1" value="0" leadInLength="0/1"  />
               <InterpolatingParam id="1797" interp="linr"  time="-9999999/1" value="0" leadInLength="0/1"  />
               <InterpolatingParam id="1798" interp="linr"  time="-9999999/1" value="0" leadInLength="0/1"  />
              </VectorParam>
              <VectorParam id="1799"  name="scale">
               <InterpolatingParam id="1800" interp="linr"  time="-9999999/1" value="1" leadInLength="0/1"  />
               <InterpolatingParam id="1801" interp="linr"  time="-9999999/1" value="1" leadInLength="0/1"  />
               <InterpolatingParam id="1802" interp="linr"  time="-9999999/1" value="1" leadInLength="0/1"  />
              </VectorParam>
              <VectorParam id="1803"  name="anchor">
               <InterpolatingParam id="1804" interp="linr"  time="0/1" value="0" leadInLength="0/1"  />
               <InterpolatingParam id="1805" interp="linr"  time="0/1" value="0" leadInLength="0/1"  />
               <InterpolatingParam id="1806" interp="linr"  time="0/1" value="0" leadInLength="0/1"  />
              </VectorParam>
             </Transformer>
             <Parameters>
              <VectorParam id="1807"  name="sourceCrop">
               <InterpolatingParam id="1808" interp="linr"  time="0/1" value="0" leadInLength="0/1"  />
               <InterpolatingParam id="1809" interp="linr"  time="0/1" value="0" leadInLength="0/1"  />
               <InterpolatingParam id="1810" interp="linr"  time="0/1" value="0" leadInLength="0/1"  />
               <InterpolatingParam id="1811" interp="linr"  time="0/1" value="0" leadInLength="0/1"  />
              </VectorParam>
              <VectorParam id="1812"  name="geometryCrop">
               <InterpolatingParam id="1813" interp="linr"  time="-9999999/1" value="0" leadInLength="0/1"  />
               <InterpolatingParam id="1814" interp="linr"  time="-9999999/1" value="0" leadInLength="0/1"  />
               <InterpolatingParam id="1815" interp="linr"  time="-9999999/1" value="0" leadInLength="0/1"  />
               <InterpolatingParam id="1816" interp="linr"  time="-9999999/1" value="0" leadInLength="0/1"  />
              </VectorParam>
              <InterpolatingParam id="1817" interp="linr"  time="-9999999/1" value="1" leadInLength="0/1"  name="opacity"/>
             </Parameters>
             <Attributes>
              <Attribute id="1818" value="" name="ident"/>
             </Attributes>
             <ExtraData>
              <Entry key="ZoomPanBin">
               <ZoomPanBin id="1819"  >
                <ZoomPanKeyframes>
                 <ZoomPanKeyframe id="1820" timeRangeEnd="-9999999/1" timeRangeDuration="0/1" interpolaterName=""  />
                </ZoomPanKeyframes>
               </ZoomPanBin>
              </Entry>
             </ExtraData>
            </VMFile>
            <MetaData>
             <entry key="WinSubProjectDisplayName" val=""/>
            </MetaData>
           </UnifiedMedia>
           <UnifiedMedia id="1821"  >
            <AMFile id="1822" start="688" duration="1386" scalar="1/1" mediaStart="1658/1" mediaDuration="1386/1" trackNumber="2" src="4" channelNumber="0,1" >
             <Parameters>
              <InterpolatingParam id="1823" interp="linr"  time="0/1" value="1" leadInLength="0/1"  name="volume"/>
              <Parameter id="1824"  name="captions"/>
             </Parameters>
             <Attributes>
              <Attribute id="1825" value="" name="ident"/>
              <Attribute id="1826" value="44100" name="sampleRate"/>
              <Attribute id="1827" value="16" name="bitDepth"/>
              <Attribute id="1828" value="1" name="gain"/>
              <Attribute id="1829" value="0" name="mixToMono"/>
             </Attributes>
            </AMFile>
            <VMFile id="1830" start="688" duration="1386" scalar="1/1" mediaStart="1658/1" mediaDuration="1386/1" trackNumber="1" src="4" >
             <Transformer>
              <VectorParam id="1831"  name="translation">
               <InterpolatingParam id="1832" interp="linr"  time="-9999999/1" value="0" leadInLength="0/1"  />
               <InterpolatingParam id="1833" interp="linr"  time="-9999999/1" value="0" leadInLength="0/1"  />
               <InterpolatingParam id="1834" interp="linr"  time="-9999999/1" value="0" leadInLength="0/1"  />
              </VectorParam>
              <VectorParam id="1835"  name="rotation">
               <InterpolatingParam id="1836" interp="linr"  time="-9999999/1" value="0" leadInLength="0/1"  />
               <InterpolatingParam id="1837" interp="linr"  time="-9999999/1" value="0" leadInLength="0/1"  />
               <InterpolatingParam id="1838" interp="linr"  time="-9999999/1" value="0" leadInLength="0/1"  />
              </VectorParam>
              <VectorParam id="1839"  name="shear">
               <InterpolatingParam id="1840" interp="linr"  time="-9999999/1" value="0" leadInLength="0/1"  />
               <InterpolatingParam id="1841" interp="linr"  time="-9999999/1" value="0" leadInLength="0/1"  />
               <InterpolatingParam id="1842" interp="linr"  time="-9999999/1" value="0" leadInLength="0/1"  />
              </VectorParam>
              <VectorParam id="1843"  name="scale">
               <InterpolatingParam id="1844" interp="linr"  time="-9999999/1" value="1" leadInLength="0/1"  />
               <InterpolatingParam id="1845" interp="linr"  time="-9999999/1" value="1" leadInLength="0/1"  />
               <InterpolatingParam id="1846" interp="linr"  time="-9999999/1" value="1" leadInLength="0/1"  />
              </VectorParam>
              <VectorParam id="1847"  name="anchor">
               <InterpolatingParam id="1848" interp="linr"  time="0/1" value="0" leadInLength="0/1"  />
               <InterpolatingParam id="1849" interp="linr"  time="0/1" value="0" leadInLength="0/1"  />
               <InterpolatingParam id="1850" interp="linr"  time="0/1" value="0" leadInLength="0/1"  />
              </VectorParam>
             </Transformer>
             <Parameters>
              <VectorParam id="1851"  name="sourceCrop">
               <InterpolatingParam id="1852" interp="linr"  time="0/1" value="0" leadInLength="0/1"  />
               <InterpolatingParam id="1853" interp="linr"  time="0/1" value="0" leadInLength="0/1"  />
               <InterpolatingParam id="1854" interp="linr"  time="0/1" value="0" leadInLength="0/1"  />
               <InterpolatingParam id="1855" interp="linr"  time="0/1" value="0" leadInLength="0/1"  />
              </VectorParam>
              <VectorParam id="1856"  name="geometryCrop">
               <InterpolatingParam id="1857" interp="linr"  time="-9999999/1" value="0" leadInLength="0/1"  />
               <InterpolatingParam id="1858" interp="linr"  time="-9999999/1" value="0" leadInLength="0/1"  />
               <InterpolatingParam id="1859" interp="linr"  time="-9999999/1" value="0" leadInLength="0/1"  />
               <InterpolatingParam id="1860" interp="linr"  time="-9999999/1" value="0" leadInLength="0/1"  />
              </VectorParam>
              <InterpolatingParam id="1861" interp="linr"  time="-9999999/1" value="1" leadInLength="0/1"  name="opacity"/>
             </Parameters>
             <Attributes>
              <Attribute id="1862" value="" name="ident"/>
             </Attributes>
             <ExtraData>
              <Entry key="ZoomPanBin">
               <ZoomPanBin id="1863"  >
                <ZoomPanKeyframes>
                 <ZoomPanKeyframe id="1864" timeRangeEnd="-9999999/1" timeRangeDuration="0/1" interpolaterName=""  />
                </ZoomPanKeyframes>
               </ZoomPanBin>
              </Entry>
             </ExtraData>
            </VMFile>
            <MetaData>
             <entry key="WinSubProjectDisplayName" val=""/>
            </MetaData>
           </UnifiedMedia>
           <UnifiedMedia id="1865"  >
            <AMFile id="1866" start="2074" duration="2037" scalar="1/1" mediaStart="3341/1" mediaDuration="2037/1" trackNumber="2" src="4" channelNumber="0,1" >
             <Parameters>
              <InterpolatingParam id="1867" interp="linr"  time="0/1" value="1" leadInLength="0/1"  name="volume"/>
              <Parameter id="1868"  name="captions"/>
             </Parameters>
             <Attributes>
              <Attribute id="1869" value="" name="ident"/>
              <Attribute id="1870" value="44100" name="sampleRate"/>
              <Attribute id="1871" value="16" name="bitDepth"/>
              <Attribute id="1872" value="1" name="gain"/>
              <Attribute id="1873" value="0" name="mixToMono"/>
             </Attributes>
            </AMFile>
            <VMFile id="1874" start="2074" duration="2037" scalar="1/1" mediaStart="3341/1" mediaDuration="2037/1" trackNumber="1" src="4" >
             <Transformer>
              <VectorParam id="1875"  name="translation">
               <InterpolatingParam id="1876" interp="linr"  time="-9999999/1" value="0" leadInLength="0/1"  />
               <InterpolatingParam id="1877" interp="linr"  time="-9999999/1" value="0" leadInLength="0/1"  />
               <InterpolatingParam id="1878" interp="linr"  time="-9999999/1" value="0" leadInLength="0/1"  />
              </VectorParam>
              <VectorParam id="1879"  name="rotation">
               <InterpolatingParam id="1880" interp="linr"  time="-9999999/1" value="0" leadInLength="0/1"  />
               <InterpolatingParam id="1881" interp="linr"  time="-9999999/1" value="0" leadInLength="0/1"  />
               <InterpolatingParam id="1882" interp="linr"  time="-9999999/1" value="0" leadInLength="0/1"  />
              </VectorParam>
              <VectorParam id="1883"  name="shear">
               <InterpolatingParam id="1884" interp="linr"  time="-9999999/1" value="0" leadInLength="0/1"  />
               <InterpolatingParam id="1885" interp="linr"  time="-9999999/1" value="0" leadInLength="0/1"  />
               <InterpolatingParam id="1886" interp="linr"  time="-9999999/1" value="0" leadInLength="0/1"  />
              </VectorParam>
              <VectorParam id="1887"  name="scale">
               <InterpolatingParam id="1888" interp="linr"  time="-9999999/1" value="1" leadInLength="0/1"  />
               <InterpolatingParam id="1889" interp="linr"  time="-9999999/1" value="1" leadInLength="0/1"  />
               <InterpolatingParam id="1890" interp="linr"  time="-9999999/1" value="1" leadInLength="0/1"  />
              </VectorParam>
              <VectorParam id="1891"  name="anchor">
               <InterpolatingParam id="1892" interp="linr"  time="0/1" value="0" leadInLength="0/1"  />
               <InterpolatingParam id="1893" interp="linr"  time="0/1" value="0" leadInLength="0/1"  />
               <InterpolatingParam id="1894" interp="linr"  time="0/1" value="0" leadInLength="0/1"  />
              </VectorParam>
             </Transformer>
             <Parameters>
              <VectorParam id="1895"  name="sourceCrop">
               <InterpolatingParam id="1896" interp="linr"  time="0/1" value="0" leadInLength="0/1"  />
               <InterpolatingParam id="1897" interp="linr"  time="0/1" value="0" leadInLength="0/1"  />
               <InterpolatingParam id="1898" interp="linr"  time="0/1" value="0" leadInLength="0/1"  />
               <InterpolatingParam id="1899" interp="linr"  time="0/1" value="0" leadInLength="0/1"  />
              </VectorParam>
              <VectorParam id="1900"  name="geometryCrop">
               <InterpolatingParam id="1901" interp="linr"  time="-9999999/1" value="0" leadInLength="0/1"  />
               <InterpolatingParam id="1902" interp="linr"  time="-9999999/1" value="0" leadInLength="0/1"  />
               <InterpolatingParam id="1903" interp="linr"  time="-9999999/1" value="0" leadInLength="0/1"  />
               <InterpolatingParam id="1904" interp="linr"  time="-9999999/1" value="0" leadInLength="0/1"  />
              </VectorParam>
              <InterpolatingParam id="1905" interp="linr"  time="-9999999/1" value="1" leadInLength="0/1"  name="opacity"/>
             </Parameters>
             <Attributes>
              <Attribute id="1906" value="" name="ident"/>
             </Attributes>
             <ExtraData>
              <Entry key="ZoomPanBin">
               <ZoomPanBin id="1907"  >
                <ZoomPanKeyframes>
                 <ZoomPanKeyframe id="1908" timeRangeEnd="-9999999/1" timeRangeDuration="0/1" interpolaterName=""  />
                </ZoomPanKeyframes>
               </ZoomPanBin>
              </Entry>
             </ExtraData>
            </VMFile>
            <MetaData>
             <entry key="WinSubProjectDisplayName" val=""/>
            </MetaData>
           </UnifiedMedia>
           <UnifiedMedia id="1909"  >
            <AMFile id="1910" start="4111" duration="24" scalar="1/1" mediaStart="5402/1" mediaDuration="24/1" trackNumber="2" src="4" channelNumber="0,1" >
             <Parameters>
              <InterpolatingParam id="1911" interp="linr"  time="0/1" value="1" leadInLength="0/1"  name="volume"/>
              <Parameter id="1912"  name="captions"/>
             </Parameters>
             <Attributes>
              <Attribute id="1913" value="" name="ident"/>
              <Attribute id="1914" value="44100" name="sampleRate"/>
              <Attribute id="1915" value="16" name="bitDepth"/>
              <Attribute id="1916" value="1" name="gain"/>
              <Attribute id="1917" value="0" name="mixToMono"/>
             </Attributes>
            </AMFile>
            <VMFile id="1918" start="4111" duration="24" scalar="1/1" mediaStart="5402/1" mediaDuration="24/1" trackNumber="1" src="4" >
             <Transformer>
              <VectorParam id="1919"  name="translation">
               <InterpolatingParam id="1920" interp="linr"  time="-9999999/1" value="0" leadInLength="0/1"  />
               <InterpolatingParam id="1921" interp="linr"  time="-9999999/1" value="0" leadInLength="0/1"  />
               <InterpolatingParam id="1922" interp="linr"  time="-9999999/1" value="0" leadInLength="0/1"  />
              </VectorParam>
              <VectorParam id="1923"  name="rotation">
               <InterpolatingParam id="1924" interp="linr"  time="-9999999/1" value="0" leadInLength="0/1"  />
               <InterpolatingParam id="1925" interp="linr"  time="-9999999/1" value="0" leadInLength="0/1"  />
               <InterpolatingParam id="1926" interp="linr"  time="-9999999/1" value="0" leadInLength="0/1"  />
              </VectorParam>
              <VectorParam id="1927"  name="shear">
               <InterpolatingParam id="1928" interp="linr"  time="-9999999/1" value="0" leadInLength="0/1"  />
               <InterpolatingParam id="1929" interp="linr"  time="-9999999/1" value="0" leadInLength="0/1"  />
               <InterpolatingParam id="1930" interp="linr"  time="-9999999/1" value="0" leadInLength="0/1"  />
              </VectorParam>
              <VectorParam id="1931"  name="scale">
               <InterpolatingParam id="1932" interp="linr"  time="-9999999/1" value="1" leadInLength="0/1"  />
               <InterpolatingParam id="1933" interp="linr"  time="-9999999/1" value="1" leadInLength="0/1"  />
               <InterpolatingParam id="1934" interp="linr"  time="-9999999/1" value="1" leadInLength="0/1"  />
              </VectorParam>
              <VectorParam id="1935"  name="anchor">
               <InterpolatingParam id="1936" interp="linr"  time="0/1" value="0" leadInLength="0/1"  />
               <InterpolatingParam id="1937" interp="linr"  time="0/1" value="0" leadInLength="0/1"  />
               <InterpolatingParam id="1938" interp="linr"  time="0/1" value="0" leadInLength="0/1"  />
              </VectorParam>
             </Transformer>
             <Parameters>
              <VectorParam id="1939"  name="sourceCrop">
               <InterpolatingParam id="1940" interp="linr"  time="0/1" value="0" leadInLength="0/1"  />
               <InterpolatingParam id="1941" interp="linr"  time="0/1" value="0" leadInLength="0/1"  />
               <InterpolatingParam id="1942" interp="linr"  time="0/1" value="0" leadInLength="0/1"  />
               <InterpolatingParam id="1943" interp="linr"  time="0/1" value="0" leadInLength="0/1"  />
              </VectorParam>
              <VectorParam id="1944"  name="geometryCrop">
               <InterpolatingParam id="1945" interp="linr"  time="-9999999/1" value="0" leadInLength="0/1"  />
               <InterpolatingParam id="1946" interp="linr"  time="-9999999/1" value="0" leadInLength="0/1"  />
               <InterpolatingParam id="1947" interp="linr"  time="-9999999/1" value="0" leadInLength="0/1"  />
               <InterpolatingParam id="1948" interp="linr"  time="-9999999/1" value="0" leadInLength="0/1"  />
              </VectorParam>
              <InterpolatingParam id="1949" interp="linr"  time="-9999999/1" value="1" leadInLength="0/1"  name="opacity"/>
             </Parameters>
             <Attributes>
              <Attribute id="1950" value="" name="ident"/>
             </Attributes>
             <ExtraData>
              <Entry key="ZoomPanBin">
               <ZoomPanBin id="1951"  >
                <ZoomPanKeyframes>
                 <ZoomPanKeyframe id="1952" timeRangeEnd="-9999999/1" timeRangeDuration="0/1" interpolaterName=""  />
                </ZoomPanKeyframes>
               </ZoomPanBin>
              </Entry>
             </ExtraData>
            </VMFile>
            <MetaData>
             <entry key="WinSubProjectDisplayName" val=""/>
            </MetaData>
           </UnifiedMedia>
           <UnifiedMedia id="1953"  >
            <AMFile id="1954" start="4135" duration="275" scalar="1/1" mediaStart="5460/1" mediaDuration="275/1" trackNumber="2" src="4" channelNumber="0,1" >
             <Parameters>
              <InterpolatingParam id="1955" interp="linr"  time="0/1" value="1" leadInLength="0/1"  name="volume"/>
              <Parameter id="1956"  name="captions"/>
             </Parameters>
             <Attributes>
              <Attribute id="1957" value="" name="ident"/>
              <Attribute id="1958" value="44100" name="sampleRate"/>
              <Attribute id="1959" value="16" name="bitDepth"/>
              <Attribute id="1960" value="1" name="gain"/>
              <Attribute id="1961" value="0" name="mixToMono"/>
             </Attributes>
            </AMFile>
            <VMFile id="1962" start="4135" duration="275" scalar="1/1" mediaStart="5460/1" mediaDuration="275/1" trackNumber="1" src="4" >
             <Transformer>
              <VectorParam id="1963"  name="translation">
               <InterpolatingParam id="1964" interp="linr"  time="-9999999/1" value="0" leadInLength="0/1"  />
               <InterpolatingParam id="1965" interp="linr"  time="-9999999/1" value="0" leadInLength="0/1"  />
               <InterpolatingParam id="1966" interp="linr"  time="-9999999/1" value="0" leadInLength="0/1"  />
              </VectorParam>
              <VectorParam id="1967"  name="rotation">
               <InterpolatingParam id="1968" interp="linr"  time="-9999999/1" value="0" leadInLength="0/1"  />
               <InterpolatingParam id="1969" interp="linr"  time="-9999999/1" value="0" leadInLength="0/1"  />
               <InterpolatingParam id="1970" interp="linr"  time="-9999999/1" value="0" leadInLength="0/1"  />
              </VectorParam>
              <VectorParam id="1971"  name="shear">
               <InterpolatingParam id="1972" interp="linr"  time="-9999999/1" value="0" leadInLength="0/1"  />
               <InterpolatingParam id="1973" interp="linr"  time="-9999999/1" value="0" leadInLength="0/1"  />
               <InterpolatingParam id="1974" interp="linr"  time="-9999999/1" value="0" leadInLength="0/1"  />
              </VectorParam>
              <VectorParam id="1975"  name="scale">
               <InterpolatingParam id="1976" interp="linr"  time="-9999999/1" value="1" leadInLength="0/1"  />
               <InterpolatingParam id="1977" interp="linr"  time="-9999999/1" value="1" leadInLength="0/1"  />
               <InterpolatingParam id="1978" interp="linr"  time="-9999999/1" value="1" leadInLength="0/1"  />
              </VectorParam>
              <VectorParam id="1979"  name="anchor">
               <InterpolatingParam id="1980" interp="linr"  time="0/1" value="0" leadInLength="0/1"  />
               <InterpolatingParam id="1981" interp="linr"  time="0/1" value="0" leadInLength="0/1"  />
               <InterpolatingParam id="1982" interp="linr"  time="0/1" value="0" leadInLength="0/1"  />
              </VectorParam>
             </Transformer>
             <Parameters>
              <VectorParam id="1983"  name="sourceCrop">
               <InterpolatingParam id="1984" interp="linr"  time="0/1" value="0" leadInLength="0/1"  />
               <InterpolatingParam id="1985" interp="linr"  time="0/1" value="0" leadInLength="0/1"  />
               <InterpolatingParam id="1986" interp="linr"  time="0/1" value="0" leadInLength="0/1"  />
               <InterpolatingParam id="1987" interp="linr"  time="0/1" value="0" leadInLength="0/1"  />
              </VectorParam>
              <VectorParam id="1988"  name="geometryCrop">
               <InterpolatingParam id="1989" interp="linr"  time="-9999999/1" value="0" leadInLength="0/1"  />
               <InterpolatingParam id="1990" interp="linr"  time="-9999999/1" value="0" leadInLength="0/1"  />
               <InterpolatingParam id="1991" interp="linr"  time="-9999999/1" value="0" leadInLength="0/1"  />
               <InterpolatingParam id="1992" interp="linr"  time="-9999999/1" value="0" leadInLength="0/1"  />
              </VectorParam>
              <InterpolatingParam id="1993" interp="linr"  time="-9999999/1" value="1" leadInLength="0/1"  name="opacity"/>
             </Parameters>
             <Attributes>
              <Attribute id="1994" value="" name="ident"/>
             </Attributes>
             <ExtraData>
              <Entry key="ZoomPanBin">
               <ZoomPanBin id="1995"  >
                <ZoomPanKeyframes>
                 <ZoomPanKeyframe id="1996" timeRangeEnd="-9999999/1" timeRangeDuration="0/1" interpolaterName=""  />
                </ZoomPanKeyframes>
               </ZoomPanBin>
              </Entry>
             </ExtraData>
            </VMFile>
            <MetaData>
             <entry key="WinSubProjectDisplayName" val=""/>
            </MetaData>
           </UnifiedMedia>
           <UnifiedMedia id="1997"  >
            <AMFile id="1998" start="4410" duration="414" scalar="1/1" mediaStart="5909/1" mediaDuration="414/1" trackNumber="2" src="4" channelNumber="0,1" >
             <Parameters>
              <InterpolatingParam id="1999" interp="linr"  time="0/1" value="1" leadInLength="0/1"  name="volume"/>
              <Parameter id="2000"  name="captions"/>
             </Parameters>
             <Attributes>
              <Attribute id="2001" value="" name="ident"/>
              <Attribute id="2002" value="44100" name="sampleRate"/>
              <Attribute id="2003" value="16" name="bitDepth"/>
              <Attribute id="2004" value="1" name="gain"/>
              <Attribute id="2005" value="0" name="mixToMono"/>
             </Attributes>
            </AMFile>
            <VMFile id="2006" start="4410" duration="414" scalar="1/1" mediaStart="5909/1" mediaDuration="414/1" trackNumber="1" src="4" >
             <Transformer>
              <VectorParam id="2007"  name="translation">
               <InterpolatingParam id="2008" interp="linr"  time="-9999999/1" value="0" leadInLength="0/1"  />
               <InterpolatingParam id="2009" interp="linr"  time="-9999999/1" value="0" leadInLength="0/1"  />
               <InterpolatingParam id="2010" interp="linr"  time="-9999999/1" value="0" leadInLength="0/1"  />
              </VectorParam>
              <VectorParam id="2011"  name="rotation">
               <InterpolatingParam id="2012" interp="linr"  time="-9999999/1" value="0" leadInLength="0/1"  />
               <InterpolatingParam id="2013" interp="linr"  time="-9999999/1" value="0" leadInLength="0/1"  />
               <InterpolatingParam id="2014" interp="linr"  time="-9999999/1" value="0" leadInLength="0/1"  />
              </VectorParam>
              <VectorParam id="2015"  name="shear">
               <InterpolatingParam id="2016" interp="linr"  time="-9999999/1" value="0" leadInLength="0/1"  />
               <InterpolatingParam id="2017" interp="linr"  time="-9999999/1" value="0" leadInLength="0/1"  />
               <InterpolatingParam id="2018" interp="linr"  time="-9999999/1" value="0" leadInLength="0/1"  />
              </VectorParam>
              <VectorParam id="2019"  name="scale">
               <InterpolatingParam id="2020" interp="linr"  time="-9999999/1" value="1" leadInLength="0/1"  />
               <InterpolatingParam id="2021" interp="linr"  time="-9999999/1" value="1" leadInLength="0/1"  />
               <InterpolatingParam id="2022" interp="linr"  time="-9999999/1" value="1" leadInLength="0/1"  />
              </VectorParam>
              <VectorParam id="2023"  name="anchor">
               <InterpolatingParam id="2024" interp="linr"  time="0/1" value="0" leadInLength="0/1"  />
               <InterpolatingParam id="2025" interp="linr"  time="0/1" value="0" leadInLength="0/1"  />
               <InterpolatingParam id="2026" interp="linr"  time="0/1" value="0" leadInLength="0/1"  />
              </VectorParam>
             </Transformer>
             <Parameters>
              <VectorParam id="2027"  name="sourceCrop">
               <InterpolatingParam id="2028" interp="linr"  time="0/1" value="0" leadInLength="0/1"  />
               <InterpolatingParam id="2029" interp="linr"  time="0/1" value="0" leadInLength="0/1"  />
               <InterpolatingParam id="2030" interp="linr"  time="0/1" value="0" leadInLength="0/1"  />
               <InterpolatingParam id="2031" interp="linr"  time="0/1" value="0" leadInLength="0/1"  />
              </VectorParam>
              <VectorParam id="2032"  name="geometryCrop">
               <InterpolatingParam id="2033" interp="linr"  time="-9999999/1" value="0" leadInLength="0/1"  />
               <InterpolatingParam id="2034" interp="linr"  time="-9999999/1" value="0" leadInLength="0/1"  />
               <InterpolatingParam id="2035" interp="linr"  time="-9999999/1" value="0" leadInLength="0/1"  />
               <InterpolatingParam id="2036" interp="linr"  time="-9999999/1" value="0" leadInLength="0/1"  />
              </VectorParam>
              <InterpolatingParam id="2037" interp="linr"  time="-9999999/1" value="1" leadInLength="0/1"  name="opacity"/>
             </Parameters>
             <Attributes>
              <Attribute id="2038" value="" name="ident"/>
             </Attributes>
             <ExtraData>
              <Entry key="ZoomPanBin">
               <ZoomPanBin id="2039"  >
                <ZoomPanKeyframes>
                 <ZoomPanKeyframe id="2040" timeRangeEnd="-9999999/1" timeRangeDuration="0/1" interpolaterName=""  />
                </ZoomPanKeyframes>
               </ZoomPanBin>
              </Entry>
             </ExtraData>
            </VMFile>
            <MetaData>
             <entry key="WinSubProjectDisplayName" val=""/>
            </MetaData>
           </UnifiedMedia>
           <UnifiedMedia id="2041"  >
            <AMFile id="2042" start="4824" duration="8502" scalar="1/1" mediaStart="6341/1" mediaDuration="8502/1" trackNumber="2" src="4" channelNumber="0,1" >
             <Parameters>
              <InterpolatingParam id="2043" interp="linr"  time="0/1" value="1" leadInLength="0/1"  name="volume"/>
              <Parameter id="2044"  name="captions"/>
             </Parameters>
             <Attributes>
              <Attribute id="2045" value="" name="ident"/>
              <Attribute id="2046" value="44100" name="sampleRate"/>
              <Attribute id="2047" value="16" name="bitDepth"/>
              <Attribute id="2048" value="1" name="gain"/>
              <Attribute id="2049" value="0" name="mixToMono"/>
             </Attributes>
            </AMFile>
            <VMFile id="2050" start="4824" duration="8502" scalar="1/1" mediaStart="6341/1" mediaDuration="8502/1" trackNumber="1" src="4" >
             <Transformer>
              <VectorParam id="2051"  name="translation">
               <InterpolatingParam id="2052" interp="linr"  time="-9999999/1" value="0" leadInLength="0/1"  />
               <InterpolatingParam id="2053" interp="linr"  time="-9999999/1" value="0" leadInLength="0/1"  />
               <InterpolatingParam id="2054" interp="linr"  time="-9999999/1" value="0" leadInLength="0/1"  />
              </VectorParam>
              <VectorParam id="2055"  name="rotation">
               <InterpolatingParam id="2056" interp="linr"  time="-9999999/1" value="0" leadInLength="0/1"  />
               <InterpolatingParam id="2057" interp="linr"  time="-9999999/1" value="0" leadInLength="0/1"  />
               <InterpolatingParam id="2058" interp="linr"  time="-9999999/1" value="0" leadInLength="0/1"  />
              </VectorParam>
              <VectorParam id="2059"  name="shear">
               <InterpolatingParam id="2060" interp="linr"  time="-9999999/1" value="0" leadInLength="0/1"  />
               <InterpolatingParam id="2061" interp="linr"  time="-9999999/1" value="0" leadInLength="0/1"  />
               <InterpolatingParam id="2062" interp="linr"  time="-9999999/1" value="0" leadInLength="0/1"  />
              </VectorParam>
              <VectorParam id="2063"  name="scale">
               <InterpolatingParam id="2064" interp="linr"  time="-9999999/1" value="1" leadInLength="0/1"  />
               <InterpolatingParam id="2065" interp="linr"  time="-9999999/1" value="1" leadInLength="0/1"  />
               <InterpolatingParam id="2066" interp="linr"  time="-9999999/1" value="1" leadInLength="0/1"  />
              </VectorParam>
              <VectorParam id="2067"  name="anchor">
               <InterpolatingParam id="2068" interp="linr"  time="0/1" value="0" leadInLength="0/1"  />
               <InterpolatingParam id="2069" interp="linr"  time="0/1" value="0" leadInLength="0/1"  />
               <InterpolatingParam id="2070" interp="linr"  time="0/1" value="0" leadInLength="0/1"  />
              </VectorParam>
             </Transformer>
             <Parameters>
              <VectorParam id="2071"  name="sourceCrop">
               <InterpolatingParam id="2072" interp="linr"  time="0/1" value="0" leadInLength="0/1"  />
               <InterpolatingParam id="2073" interp="linr"  time="0/1" value="0" leadInLength="0/1"  />
               <InterpolatingParam id="2074" interp="linr"  time="0/1" value="0" leadInLength="0/1"  />
               <InterpolatingParam id="2075" interp="linr"  time="0/1" value="0" leadInLength="0/1"  />
              </VectorParam>
              <VectorParam id="2076"  name="geometryCrop">
               <InterpolatingParam id="2077" interp="linr"  time="-9999999/1" value="0" leadInLength="0/1"  />
               <InterpolatingParam id="2078" interp="linr"  time="-9999999/1" value="0" leadInLength="0/1"  />
               <InterpolatingParam id="2079" interp="linr"  time="-9999999/1" value="0" leadInLength="0/1"  />
               <InterpolatingParam id="2080" interp="linr"  time="-9999999/1" value="0" leadInLength="0/1"  />
              </VectorParam>
              <InterpolatingParam id="2081" interp="linr"  time="-9999999/1" value="1" leadInLength="0/1"  name="opacity"/>
             </Parameters>
             <Attributes>
              <Attribute id="2082" value="" name="ident"/>
             </Attributes>
             <ExtraData>
              <Entry key="ZoomPanBin">
               <ZoomPanBin id="2083"  >
                <ZoomPanKeyframes>
                 <ZoomPanKeyframe id="2084" timeRangeEnd="-9999999/1" timeRangeDuration="0/1" interpolaterName=""  />
                </ZoomPanKeyframes>
               </ZoomPanBin>
              </Entry>
             </ExtraData>
            </VMFile>
            <MetaData>
             <entry key="WinSubProjectDisplayName" val=""/>
            </MetaData>
           </UnifiedMedia>
          </Medias>
         </GenericTrack>
        </StitchedMedia>
        <StitchedMedia id="2085" start="5267" duration="392" scalar="1/1" mediaStart="5322/1" mediaDuration="392/1" minMediaStart="0/1" >
         <Transformer>
          <VectorParam id="2086"  name="translation">
           <InterpolatingParam id="2087" interp="linr"  >
            <Keyframes>
            <Keyframe id="2088"  time="-9999999/1" value="225.01746724913505" leadInLength="0/1"  interpolater="leadin-linr"  />
            <Keyframe id="2089"  time="2089/1" value="222.15000000001368" leadInLength="30/1"  interpolater="leadin-linr"  />
            </Keyframes>
           </InterpolatingParam>
           <InterpolatingParam id="2090" interp="linr"  >
            <Keyframes>
            <Keyframe id="2091"  time="-9999999/1" value="-2.2631004365392187" leadInLength="0/1"  interpolater="leadin-linr"  />
            <Keyframe id="2092"  time="2089/1" value="-0.11249999998130988" leadInLength="30/1"  interpolater="leadin-linr"  />
            </Keyframes>
           </InterpolatingParam>
           <InterpolatingParam id="2093" interp="linr"  >
            <Keyframes>
            <Keyframe id="2094"  time="-9999999/1" value="0" leadInLength="0/1"  interpolater="leadin-linr"  />
            <Keyframe id="2095"  time="2089/1" value="0" leadInLength="30/1"  interpolater="leadin-linr"  />
            </Keyframes>
           </InterpolatingParam>
          </VectorParam>
          <VectorParam id="2096"  name="rotation">
           <InterpolatingParam id="2097" interp="linr"  >
            <Keyframes>
            <Keyframe id="2098"  time="-9999999/1" value="0" leadInLength="0/1"  interpolater="leadin-linr"  />
            <Keyframe id="2099"  time="2089/1" value="0" leadInLength="30/1"  interpolater="leadin-linr"  />
            </Keyframes>
           </InterpolatingParam>
           <InterpolatingParam id="2100" interp="linr"  >
            <Keyframes>
            <Keyframe id="2101"  time="-9999999/1" value="0" leadInLength="0/1"  interpolater="leadin-linr"  />
            <Keyframe id="2102"  time="2089/1" value="0" leadInLength="30/1"  interpolater="leadin-linr"  />
            </Keyframes>
           </InterpolatingParam>
           <InterpolatingParam id="2103" interp="linr"  >
            <Keyframes>
            <Keyframe id="2104"  time="-9999999/1" value="0" leadInLength="0/1"  interpolater="leadin-linr"  />
            <Keyframe id="2105"  time="2089/1" value="0" leadInLength="30/1"  interpolater="leadin-linr"  />
            </Keyframes>
           </InterpolatingParam>
          </VectorParam>
          <VectorParam id="2106"  name="shear">
           <InterpolatingParam id="2107" interp="linr"  >
            <Keyframes>
            <Keyframe id="2108"  time="-9999999/1" value="0" leadInLength="0/1"  interpolater="leadin-linr"  />
            <Keyframe id="2109"  time="2089/1" value="0" leadInLength="30/1"  interpolater="leadin-linr"  />
            </Keyframes>
           </InterpolatingParam>
           <InterpolatingParam id="2110" interp="linr"  >
            <Keyframes>
            <Keyframe id="2111"  time="-9999999/1" value="0" leadInLength="0/1"  interpolater="leadin-linr"  />
            <Keyframe id="2112"  time="2089/1" value="0" leadInLength="30/1"  interpolater="leadin-linr"  />
            </Keyframes>
           </InterpolatingParam>
           <InterpolatingParam id="2113" interp="linr"  >
            <Keyframes>
            <Keyframe id="2114"  time="-9999999/1" value="0" leadInLength="0/1"  interpolater="leadin-linr"  />
            <Keyframe id="2115"  time="2089/1" value="0" leadInLength="30/1"  interpolater="leadin-linr"  />
            </Keyframes>
           </InterpolatingParam>
          </VectorParam>
          <VectorParam id="2116"  name="scale">
           <InterpolatingParam id="2117" interp="linr"  >
            <Keyframes>
            <Keyframe id="2118"  time="-9999999/1" value="1.4905704148471797" leadInLength="0/1"  interpolater="leadin-linr"  />
            <Keyframe id="2119"  time="2089/1" value="1.4995312500002338" leadInLength="30/1"  interpolater="leadin-linr"  />
            </Keyframes>
           </InterpolatingParam>
           <InterpolatingParam id="2120" interp="linr"  >
            <Keyframes>
            <Keyframe id="2121"  time="-9999999/1" value="1.4905704148471794" leadInLength="0/1"  interpolater="leadin-linr"  />
            <Keyframe id="2122"  time="2089/1" value="1.4995312500002329" leadInLength="30/1"  interpolater="leadin-linr"  />
            </Keyframes>
           </InterpolatingParam>
           <InterpolatingParam id="2123" interp="linr"  >
            <Keyframes>
            <Keyframe id="2124"  time="-9999999/1" value="1" leadInLength="0/1"  interpolater="leadin-linr"  />
            <Keyframe id="2125"  time="2089/1" value="1" leadInLength="30/1"  interpolater="leadin-linr"  />
            </Keyframes>
           </InterpolatingParam>
          </VectorParam>
          <VectorParam id="2126"  name="anchor">
           <InterpolatingParam id="2127" interp="linr"  time="0/1" value="0" leadInLength="0/1"  />
           <InterpolatingParam id="2128" interp="linr"  time="0/1" value="0" leadInLength="0/1"  />
           <InterpolatingParam id="2129" interp="linr"  time="0/1" value="0" leadInLength="0/1"  />
          </VectorParam>
         </Transformer>
         <Parameters>
          <VectorParam id="2130"  name="sourceCrop">
           <InterpolatingParam id="2131" interp="linr"  time="0/1" value="0" leadInLength="0/1"  />
           <InterpolatingParam id="2132" interp="linr"  time="0/1" value="0" leadInLength="0/1"  />
           <InterpolatingParam id="2133" interp="linr"  time="0/1" value="0" leadInLength="0/1"  />
           <InterpolatingParam id="2134" interp="linr"  time="0/1" value="0" leadInLength="0/1"  />
          </VectorParam>
          <VectorParam id="2135"  name="geometryCrop">
           <InterpolatingParam id="2136" interp="linr"  >
            <Keyframes>
            <Keyframe id="2137"  time="-9999999/1" value="0" leadInLength="0/1"  interpolater="leadin-linr"  />
            <Keyframe id="2138"  time="2089/1" value="0" leadInLength="30/1"  interpolater="leadin-linr"  />
            </Keyframes>
           </InterpolatingParam>
           <InterpolatingParam id="2139" interp="linr"  >
            <Keyframes>
            <Keyframe id="2140"  time="-9999999/1" value="0" leadInLength="0/1"  interpolater="leadin-linr"  />
            <Keyframe id="2141"  time="2089/1" value="0" leadInLength="30/1"  interpolater="leadin-linr"  />
            </Keyframes>
           </InterpolatingParam>
           <InterpolatingParam id="2142" interp="linr"  >
            <Keyframes>
            <Keyframe id="2143"  time="-9999999/1" value="0" leadInLength="0/1"  interpolater="leadin-linr"  />
            <Keyframe id="2144"  time="2089/1" value="0" leadInLength="30/1"  interpolater="leadin-linr"  />
            </Keyframes>
           </InterpolatingParam>
           <InterpolatingParam id="2145" interp="linr"  >
            <Keyframes>
            <Keyframe id="2146"  time="-9999999/1" value="0" leadInLength="0/1"  interpolater="leadin-linr"  />
            <Keyframe id="2147"  time="2089/1" value="0" leadInLength="30/1"  interpolater="leadin-linr"  />
            </Keyframes>
           </InterpolatingParam>
          </VectorParam>
          <InterpolatingParam id="2148" interp="linr"  name="opacity">
           <Keyframes>
           <Keyframe id="2149"  time="-9999999/1" value="1" leadInLength="0/1"  interpolater="leadin-linr"  />
           <Keyframe id="2150"  time="2089/1" value="1" leadInLength="30/1"  interpolater="leadin-linr"  />
           </Keyframes>
          </InterpolatingParam>
          <InterpolatingParam id="2151" interp="linr"  time="0/1" value="1" leadInLength="0/1"  name="cursorOpacity"/>
          <InterpolatingParam id="2152" interp="linr"  time="0/1" value="1" leadInLength="0/1"  name="cursorScale"/>
          <InterpolatingParam id="2153" interp="linr"  time="0/1" value="1" leadInLength="0/1"  name="volume"/>
          <Parameter id="2154"  name="captions"/>
         </Parameters>
         <Effects>
          <GenericEffect id="2155" name = "NoiseReduction" >
           <Parameters>
           <InterpolatingParam id="2156" interp="linr"  time="0/1" value="27.599999999999998" leadInLength="0/1"   name="denoiserAmount"/>
           <InterpolatingParam id="2157" interp="linr"  time="0/1" value="2.2799999999999994" leadInLength="0/1"   name="denoiserThreshold"/>
           <Parameter id="2158"   name="noiseProfile">
            <Keyframes>
            <Keyframe id="2159"  time="0/1" value="FBAAAAIAAABErAAAAQIAADowIcKkMhPC3bwnwqbxMMIPKEvCOndNwi6nUMI7TVLCsD1WwtBnUsJ4&#xD;&#xa;mlLC1K1Xwty2XsK8WWLCbz1owkjkacIq5W3Cd0t0woGRcMJuVW3CKgxswnQYasKzMGzCMitvwkeZ&#xD;&#xa;bsIiU23CMSpxwpqdd8I/JXjCb/h7wrKBgMLAioHCVC+CwtvLgcKNxIDCYnmCwrtzhcJ7bobCylqG&#xD;&#xa;wlcnhcJNzITCGFiEwkEgiMJ7bYvC7FiLwsZMisJEL4vCcOqMwlwrkMIpxpDCmLmRwla9k8KAzJHC&#xD;&#xa;vc2RwgdJlMKIbZLCGQeTwhJolcJznpTC2g6XwrcalcIMfJTCHLWWwtFlmMLzG5fCeLeVwn+SlsI9&#xD;&#xa;J5fCYMGcwqCOmMJnjJfCMmGbwvbbm8JEb5vCWLaZwlW9lcI0HZbCs3mbwvCfmcK29ZfCAlWTwiNG&#xD;&#xa;kcJSJ5TCSOyTwrw4kcIGj5DCvAGTwlWom8KhwJ/CP56bwvBzmMLEc5nCamaTwmrFksJsBJvCf82b&#xD;&#xa;wpqImMLe/5jCDUiYwgDXl8LeRpjCLHWZwgTFmsIKWpvChFWcwu9Tm8KJy53CcYmhwtacoMK8CZzC&#xD;&#xa;oCGbwiLPmMImNZnCd06cwli+mcLu8ZjCWnyVwpTmmcLurZnChVOYwsOVl8Lo2pXCS3GUwkEwlcKB&#xD;&#xa;lZTC7/WWwrJim8JaMprCWGSZwuPglsK5FJrCY4yUwrBnksLoaJfCjNOYwkiCmcLm/5TCIsmWwglV&#xD;&#xa;l8IXwpXCgGiUwnbDkMKVMpHCI1aQwtjNk8KXKZTCeKyTwiWPksJU/JTCdlKYwmZel8Ly9JLC1cKQ&#xD;&#xa;wlVGk8J0qZTCDEGUwnlQlcK9xZjCN6SVwrnalcLXoJbCan6Wwq4RlsIhVpbCZACYwmhQlsK6LJjC&#xD;&#xa;KpGXwp2AlsKfzZTCXASUwhdXlMJPY5TC7z+ZwiVjlsI/yJjCu+qdwruTmMJ9OJjCFAWawpxjl8IY&#xD;&#xa;3JbCVkuWwkg/msKcJZ3CbWqgwtXEocK+vJvCaKWZwhbumMKxwZjCEWObwvnlmsLvOZrCjIWWwiLz&#xD;&#xa;kcIc45LCWKqVwvnPl8Lnt5jCLISXwvujmMJDsZPCwPuTwnXgm8IuwZrCb0eZwrXOlcL8rpPCQ9yW&#xD;&#xa;wuRem8LEA57CXdufwtDPoMKbqJ7CpvmfwlqPo8J5xKDCkXafwpSyncLArZ3C1bmgwoDooMKhcaXC&#xD;&#xa;keylwl+NpcIMCKPCAtyhworko8KqrqPC3+Gkwhyqo8IznaPCV6ujwgAgo8J0A6LCGAugwrF0nsJV&#xD;&#xa;Q6DC84ujwjwLpML9y6TCsA+mwsmmp8Lu6qbCjcGlwjk4psLcJaTC7+GlwiOpo8JaX6TCFFuiwqqu&#xD;&#xa;osLkAqPCEICiwvy7nsI+zJ7C03mhwgKiosIAF6HCdIWhwqZBocIImKHCCxKnwikQqcJ9PqLCNuGe&#xD;&#xa;wjk7oMLwvqXCwGygwtRcnsJSFqHCbK6ewvCknsJ+wZ/CPzKcwoBQl8L0SpnCfvuXwv1gl8JTlpzC&#xD;&#xa;Y5efwv1kncLxR5jCk8aZwkb4nMKDgpvC+d+awr9gnsIiEZ/CeRqbwhnXmsIrXpnCb1eZwl6JnMKu&#xD;&#xa;bZ3CCTidwjgknMLiR57Cyzykwm06o8I0yp7CC+ubwmcenMKu6Z7CaDygwvskosKcMKDC9UmiwgUQ&#xD;&#xa;oMKjQJzCsMGewoIFpMJo56HCrFGhwghZo8K6T6TCM6SlwtA8pcIaraTCcV+owjYjqMIJPabC6q6j&#xD;&#xa;wpwmpMK3uaLCNganwiwkqMLEXqnCni6qwvYgqcL+oqnC+IGmwshKpcKSVqjCQQ+lwkv/pMLztabC&#xD;&#xa;+pOlwt64osK0zabCe3OmwgV2pMLuRKjCrf6mwml4p8JEwqvC2g6xwtvir8IOWLHCGrqtwg41qsJv&#xD;&#xa;IqjCThypwtL6rcJ14q3CPjSvwtQFrcKSJKjC6UupwjTlqsJPGazCGhGpwh9Yp8LHOavCQ3Spwlc5&#xD;&#xa;qMIPOKfCalmnwvvFq8Iw2qzCyU+swrfUrsLuOK/CkhqrwoTKqcJCH6nCon+nwnUdqsIjHarCf0mr&#xD;&#xa;wn3eqcK8lavC4leswu/WrMJnfK7CecmxwmQCtMJO9q/CEJ2qwlLurMJYnq7CcO6vws+UsMK/xK/C&#xD;&#xa;mDCxwk1qscLSLK3C3juuwu3bssKc5LbCRze1wgimtMKYG7bC5Fq1wvhDtsK8dbPClfCywnWDtcIZ&#xD;&#xa;37nCFw65wmkQvMJYDrnCskW1wg1LuMLwWrnCRIy3wqyftMKugLjCDMi0whxnssJ6/bXC+HW1wnWk&#xD;&#xa;ssIoYbPCZD22wnafucIA0rnChlm5wllotcKklLXCTCK2wtOhtcIcobfCz4G2wkgntcJMN7PCEKSx&#xD;&#xa;wg7qscIpj7LCAAu3wgdhu8KmdrvCsvS3wn8nssJQprTClga7wi35ucLler/CzFC7wrf4tcLkt7XC&#xD;&#xa;uuK5wvAJv8KqbrzC4WO5wlY9usIszL3CqhO9wo5Jv8Kyf8PCHCHBwtKTvcKcoL3CyNe/woiUwMJc&#xD;&#xa;A8XCL2LDwrR3xMLypsLCbCfDwsi4wcKiAcHCb2nDwjUJvMLoTbXCgnS3wmTDu8L/VcLCovPGwj8D&#xD;&#xa;yMK4xMbCmlXHwh4KxsJGO7/C40e+wm6mxsKwesPCdr/CwjaiwcL9ksPCtkjGwi5ZwcK4NcXC8qPJ&#xD;&#xa;wrSOy8Ii+snC/jfNwhq908KS/9HCqRHYwgXn4sJcZ9LCLErPwnW/2MJKqdrCSSHZwpZb1cL64tPC&#xD;&#xa;ZPnYwjhb3MKePdDChOjawlkwIcLCMhPCEL0nwt3xMMI5KEvCW3dNwhynUMKITVLCxj5WwnFoUsLQ&#xD;&#xa;mVLCm61Xwo62XsLXWWLCqj1ownvkacIq5W3CwEt0wgCScMK+VG3C8gpswksXasIfMGzC6ypvwjGY&#xD;&#xa;bsLUUW3C/ypxwvqdd8JJJnjCAfh7wgqAgMLOiYHCYC+CwnvLgcK5xIDC0nmCwpd0hcLAbobCllyG&#xD;&#xa;wk4ohcLTy4TC7VeEwl8fiMKUbIvCaVaLwtpJisI0L4vCAOyMwqItkMIVx5DC9rqRwh67k8JeyJHC&#xD;&#xa;lsuRwklIlMKYa5LClwGTwllklcK3nJTCsQmXwmQYlcLBfJTCg7WWwmprmMJAH5fCELmVwjaSlsJi&#xD;&#xa;KJfC/MWcwr6NmMJniZfCWV+bwjDbm8KSaZvCwrOZwri+lcJSH5bCkHebwmmfmcJ495fCE1WTwnVG&#xD;&#xa;kcKGJpTCPOqTws44kcKqjpDC/wGTwrCsm8Jqzp/CLrebwoiVmMLvjZnCPm6TwuPTksI2H5vCdOCb&#xD;&#xa;wrqPmMI2FJnC/GmYwqPdl8IoP5jCTHOZwl7FmsIIXZvC+HOcwgZtm8LZ153CAqmhwpGjoMJoCZzC&#xD;&#xa;YB2bwp7ImML0K5nCjEmcwo3HmcK+/ZjCOYCVwhHrmcJww5nCVmCYwnyUl8KC1ZXCA3CUwqsqlcK3&#xD;&#xa;pZTC1/6WwmRxm8K5OprCyG6Zwk7wlsJ4JprCwIaUwhttksJUe5fC7ueYwryYmcJODJXC8cmWwhBj&#xD;&#xa;l8LKyZXC2muUwkLRkMKcOZHCGF+QwqnRk8KcK5TCNKiTwliKksIk+JTCxE2YwvJWl8KG8pLCrMSQ&#xD;&#xa;wolFk8IXqpTChEOUwlVRlcL9xpjC+qOVwjvZlcLtoJbCnX2WwrUOlsJqVpbCzwGYwnlQlsJ6LpjC&#xD;&#xa;QI+XwpCAlsLgzpTCNAKUwtxWlMJgY5TCZj+ZwmBllsKiyZjCVPydwmyimMIZNpjCygiawsRwl8KG&#xD;&#xa;35bCCVmWwldHmsIkIp3Cb2+gws/pocLyz5vCDJ+ZwjjjmMJhwJjCPmWbwjPwmsL9O5rCIoaWwtb2&#xD;&#xa;kcKx6JLC/K2Vwr7Kl8JPtpjCynuXwjygmMInspPCKPiTwijpm8IAxprCDjyZwrDIlcI5r5PCq+GW&#xD;&#xa;wgNjm8IyA57Ck+afwk7xoMLA357CTiigwsKlo8L+wqDCC2qfwve6ncKupJ3CPqOgwhnyoMKBraXC&#xD;&#xa;OCKmwmOGpcLi9aLC39ahwqDXo8LnwKPCuvSkwp2uo8L2t6PCsKajwtEvo8LJMKLC2x6gwueEnsJO&#xD;&#xa;XaDCdoCjwokMpMJY4qTCrjCmws6wp8LS76bCcKelwuU8psJBI6TCevulwoC1o8KpY6TCo1KiwpC6&#xD;&#xa;osL2CqPCG4Siwh3EnsKyxp7Ct4Ghwp2+osLpHqHCNpKhwmhOocKtl6HC6genwkQaqcIBTKLC3fye&#xD;&#xa;wl5LoMJ+u6XCZVygwkRQnsIKHqHCBLOewmqbnsLts5/C8jGcwmdXl8JrT5nCVfmXwjhZl8JelpzC&#xD;&#xa;65yfwslrncI8RZjCWL6ZwlLsnMIShJvClOOawttinsI4EZ/C+Babws/SmsK4WJnCn1GZwnKJnMLw&#xD;&#xa;cJ3CYTudwlAinMIWRZ7CvTakwmwyo8LZx57C++6bwg0inMIt5p7C8zqgwtIhosIeMaDCZkiiwiEO&#xD;&#xa;oMJYQ5zCSsmewjIRpMI66aHChFKhwj5do8IlTqTCrKalwrI4pcKuq6TCnWWowgIqqMKaTKbCJrOj&#xD;&#xa;wvMopMJStqLCGPKmwpcTqMJeXKnCnjiqwrkiqcJOpKnC4oOmwgtTpcLQX6jCWBulwp8LpcIBwqbC&#xD;&#xa;zI2lwme0osIX0KbCPHemwjB5pMKmSqjCfgGnwjd4p8JMu6vCtQOxwhDUr8LCR7HCzbWtwuA0qsJm&#xD;&#xa;HajCyiWpwgwIrsJf4a3CUjuvwoUWrcKOL6jCBFCpwuPoqsLJDazC1gapwrZUp8JBNKvCm2+pwsM1&#xD;&#xa;qMK0OafCmlinwuPOq8KS4azCelGswl3jrsJiQK/CaxOrwg7OqcIHH6nCFoWnwrAXqsKiHKrCsESr&#xD;&#xa;wirhqcLhlqvC5FKswnnNrMLMc67CR8uxwuMHtMLY9q/CDqWqwgL4rMKUl67CE/2vwvaqsMLr0K/C&#xD;&#xa;yS6xwkBpscKoNK3CVjquwqTVssJ8zbbC5SW1wiWmtMKFB7bCeF21wkpOtsIifbPCgfqywouetcLv&#xD;&#xa;3rnCLAq5wvX6u8Lu9LjCNE21whBiuMLeeLnCspy3wsq0tMJ8hrjCNsa0wg5vssIhALbCooO1wg65&#xD;&#xa;ssIjY7PCvEy2wma+ucKsz7nCKmK5wi52tcJFrrXCkxq2wvCTtcLCj7fC42y2wo4wtcJOP7PClKWx&#xD;&#xa;wrUEssLRl7LCF/W2wgBau8Kyg7vC4Ne3wlMsssI8o7TC4gi7wijqucLkU7/Cfkm7wugTtsJYw7XC&#xD;&#xa;Jt+5wlbzvsLuZLzC6ny5wgQ6usIvr73COPW8wmc5v8KUTMPCK/zAwiR4vcKyer3CTKW/wmKAwMKI&#xD;&#xa;IsXCF2jDwrdaxMIofcLCeyjDwgq6wcJYHMHC0FrDwmr8u8KhTbXCamC3wpS4u8J0ZsLCKwrHwsDU&#xD;&#xa;x8K6msbC8k7HwvInxsJwFL/CyiW+wouuxsIFlsPCSu7CwrjCwcJIocPCvkfGwnxywcJtNsXC2pDJ&#xD;&#xa;wkaJy8Je9MnCjpnNwpYD1MIEMtLC9ijYwred4sIeF9LCfhrPwtKG2MK9g9rCUn/ZwqrI1cKdINTC&#xD;&#xa;yZPYwi4G3MK4KNDCctza" leadInLength="0/1"  />
            </Keyframes>
           </Parameter>
           </Parameters>
           <MetaData>
            <entry key="effectIndex" val="0"/>
           </MetaData>
          </GenericEffect>
         </Effects>
         <Attributes>
          <Attribute id="2160" value="" name="ident"/>
          <Attribute id="2161" value="0" name="mixToMono"/>
         </Attributes>
         <MetaData>
          <entry key="WinSubProjectDisplayName" val=""/>
         </MetaData>
         <ExtraData>
          <Entry key="ZoomPanBin">
           <ZoomPanBin id="2162"  >
            <ZoomPanKeyframes>
             <ZoomPanKeyframe id="2163" timeRangeEnd="-9999999/1" timeRangeDuration="0/1" interpolaterName="linr"  />
             <ZoomPanKeyframe id="2164" timeRangeEnd="2089/1" timeRangeDuration="30/1" interpolaterName="linr"  />
            </ZoomPanKeyframes>
           </ZoomPanBin>
          </Entry>
          <Entry key="CursorEffectBin">
           <CursorEffectBin id="2165"  >
            <CursorEffectKeyframes>
            </CursorEffectKeyframes>
           </CursorEffectBin>
          </Entry>
         </ExtraData>
         <GenericTrack id="2166"  >
          <Attributes>
           <Attribute id="2167" value="" name="ident"/>
           <Attribute id="2168" value="0" name="audioMuted"/>
           <Attribute id="2169" value="0" name="videoHidden"/>
          </Attributes>
          <MetaData>
           <entry key="IsLocked" val="False"/>
           <entry key="WinTrackHeight" val="0"/>
          </MetaData>
          <Medias>
           <UnifiedMedia id="2170"  >
            <AMFile id="2171" start="0" duration="420" scalar="1/1" mediaStart="0/1" mediaDuration="420/1" trackNumber="2" src="4" channelNumber="0,1" >
             <Parameters>
              <InterpolatingParam id="2172" interp="linr"  time="0/1" value="1" leadInLength="0/1"  name="volume"/>
              <Parameter id="2173"  name="captions"/>
             </Parameters>
             <Attributes>
              <Attribute id="2174" value="" name="ident"/>
              <Attribute id="2175" value="44100" name="sampleRate"/>
              <Attribute id="2176" value="16" name="bitDepth"/>
              <Attribute id="2177" value="1" name="gain"/>
              <Attribute id="2178" value="0" name="mixToMono"/>
             </Attributes>
            </AMFile>
            <VMFile id="2179" start="0" duration="420" scalar="1/1" mediaStart="0/1" mediaDuration="420/1" trackNumber="1" src="4" >
             <Transformer>
              <VectorParam id="2180"  name="translation">
               <InterpolatingParam id="2181" interp="linr"  time="-9999999/1" value="0" leadInLength="0/1"  />
               <InterpolatingParam id="2182" interp="linr"  time="-9999999/1" value="0" leadInLength="0/1"  />
               <InterpolatingParam id="2183" interp="linr"  time="-9999999/1" value="0" leadInLength="0/1"  />
              </VectorParam>
              <VectorParam id="2184"  name="rotation">
               <InterpolatingParam id="2185" interp="linr"  time="-9999999/1" value="0" leadInLength="0/1"  />
               <InterpolatingParam id="2186" interp="linr"  time="-9999999/1" value="0" leadInLength="0/1"  />
               <InterpolatingParam id="2187" interp="linr"  time="-9999999/1" value="0" leadInLength="0/1"  />
              </VectorParam>
              <VectorParam id="2188"  name="shear">
               <InterpolatingParam id="2189" interp="linr"  time="-9999999/1" value="0" leadInLength="0/1"  />
               <InterpolatingParam id="2190" interp="linr"  time="-9999999/1" value="0" leadInLength="0/1"  />
               <InterpolatingParam id="2191" interp="linr"  time="-9999999/1" value="0" leadInLength="0/1"  />
              </VectorParam>
              <VectorParam id="2192"  name="scale">
               <InterpolatingParam id="2193" interp="linr"  time="-9999999/1" value="1" leadInLength="0/1"  />
               <InterpolatingParam id="2194" interp="linr"  time="-9999999/1" value="1" leadInLength="0/1"  />
               <InterpolatingParam id="2195" interp="linr"  time="-9999999/1" value="1" leadInLength="0/1"  />
              </VectorParam>
              <VectorParam id="2196"  name="anchor">
               <InterpolatingParam id="2197" interp="linr"  time="0/1" value="0" leadInLength="0/1"  />
               <InterpolatingParam id="2198" interp="linr"  time="0/1" value="0" leadInLength="0/1"  />
               <InterpolatingParam id="2199" interp="linr"  time="0/1" value="0" leadInLength="0/1"  />
              </VectorParam>
             </Transformer>
             <Parameters>
              <VectorParam id="2200"  name="sourceCrop">
               <InterpolatingParam id="2201" interp="linr"  time="0/1" value="0" leadInLength="0/1"  />
               <InterpolatingParam id="2202" interp="linr"  time="0/1" value="0" leadInLength="0/1"  />
               <InterpolatingParam id="2203" interp="linr"  time="0/1" value="0" leadInLength="0/1"  />
               <InterpolatingParam id="2204" interp="linr"  time="0/1" value="0" leadInLength="0/1"  />
              </VectorParam>
              <VectorParam id="2205"  name="geometryCrop">
               <InterpolatingParam id="2206" interp="linr"  time="-9999999/1" value="0" leadInLength="0/1"  />
               <InterpolatingParam id="2207" interp="linr"  time="-9999999/1" value="0" leadInLength="0/1"  />
               <InterpolatingParam id="2208" interp="linr"  time="-9999999/1" value="0" leadInLength="0/1"  />
               <InterpolatingParam id="2209" interp="linr"  time="-9999999/1" value="0" leadInLength="0/1"  />
              </VectorParam>
              <InterpolatingParam id="2210" interp="linr"  time="-9999999/1" value="1" leadInLength="0/1"  name="opacity"/>
             </Parameters>
             <Attributes>
              <Attribute id="2211" value="" name="ident"/>
             </Attributes>
             <ExtraData>
              <Entry key="ZoomPanBin">
               <ZoomPanBin id="2212"  >
                <ZoomPanKeyframes>
                 <ZoomPanKeyframe id="2213" timeRangeEnd="-9999999/1" timeRangeDuration="0/1" interpolaterName=""  />
                </ZoomPanKeyframes>
               </ZoomPanBin>
              </Entry>
             </ExtraData>
            </VMFile>
            <MetaData>
             <entry key="WinSubProjectDisplayName" val=""/>
            </MetaData>
           </UnifiedMedia>
           <UnifiedMedia id="2214"  >
            <AMFile id="2215" start="420" duration="268" scalar="1/1" mediaStart="472/1" mediaDuration="268/1" trackNumber="2" src="4" channelNumber="0,1" >
             <Parameters>
              <InterpolatingParam id="2216" interp="linr"  time="0/1" value="1" leadInLength="0/1"  name="volume"/>
              <Parameter id="2217"  name="captions"/>
             </Parameters>
             <Attributes>
              <Attribute id="2218" value="" name="ident"/>
              <Attribute id="2219" value="44100" name="sampleRate"/>
              <Attribute id="2220" value="16" name="bitDepth"/>
              <Attribute id="2221" value="1" name="gain"/>
              <Attribute id="2222" value="0" name="mixToMono"/>
             </Attributes>
            </AMFile>
            <VMFile id="2223" start="420" duration="268" scalar="1/1" mediaStart="472/1" mediaDuration="268/1" trackNumber="1" src="4" >
             <Transformer>
              <VectorParam id="2224"  name="translation">
               <InterpolatingParam id="2225" interp="linr"  time="-9999999/1" value="0" leadInLength="0/1"  />
               <InterpolatingParam id="2226" interp="linr"  time="-9999999/1" value="0" leadInLength="0/1"  />
               <InterpolatingParam id="2227" interp="linr"  time="-9999999/1" value="0" leadInLength="0/1"  />
              </VectorParam>
              <VectorParam id="2228"  name="rotation">
               <InterpolatingParam id="2229" interp="linr"  time="-9999999/1" value="0" leadInLength="0/1"  />
               <InterpolatingParam id="2230" interp="linr"  time="-9999999/1" value="0" leadInLength="0/1"  />
               <InterpolatingParam id="2231" interp="linr"  time="-9999999/1" value="0" leadInLength="0/1"  />
              </VectorParam>
              <VectorParam id="2232"  name="shear">
               <InterpolatingParam id="2233" interp="linr"  time="-9999999/1" value="0" leadInLength="0/1"  />
               <InterpolatingParam id="2234" interp="linr"  time="-9999999/1" value="0" leadInLength="0/1"  />
               <InterpolatingParam id="2235" interp="linr"  time="-9999999/1" value="0" leadInLength="0/1"  />
              </VectorParam>
              <VectorParam id="2236"  name="scale">
               <InterpolatingParam id="2237" interp="linr"  time="-9999999/1" value="1" leadInLength="0/1"  />
               <InterpolatingParam id="2238" interp="linr"  time="-9999999/1" value="1" leadInLength="0/1"  />
               <InterpolatingParam id="2239" interp="linr"  time="-9999999/1" value="1" leadInLength="0/1"  />
              </VectorParam>
              <VectorParam id="2240"  name="anchor">
               <InterpolatingParam id="2241" interp="linr"  time="0/1" value="0" leadInLength="0/1"  />
               <InterpolatingParam id="2242" interp="linr"  time="0/1" value="0" leadInLength="0/1"  />
               <InterpolatingParam id="2243" interp="linr"  time="0/1" value="0" leadInLength="0/1"  />
              </VectorParam>
             </Transformer>
             <Parameters>
              <VectorParam id="2244"  name="sourceCrop">
               <InterpolatingParam id="2245" interp="linr"  time="0/1" value="0" leadInLength="0/1"  />
               <InterpolatingParam id="2246" interp="linr"  time="0/1" value="0" leadInLength="0/1"  />
               <InterpolatingParam id="2247" interp="linr"  time="0/1" value="0" leadInLength="0/1"  />
               <InterpolatingParam id="2248" interp="linr"  time="0/1" value="0" leadInLength="0/1"  />
              </VectorParam>
              <VectorParam id="2249"  name="geometryCrop">
               <InterpolatingParam id="2250" interp="linr"  time="-9999999/1" value="0" leadInLength="0/1"  />
               <InterpolatingParam id="2251" interp="linr"  time="-9999999/1" value="0" leadInLength="0/1"  />
               <InterpolatingParam id="2252" interp="linr"  time="-9999999/1" value="0" leadInLength="0/1"  />
               <InterpolatingParam id="2253" interp="linr"  time="-9999999/1" value="0" leadInLength="0/1"  />
              </VectorParam>
              <InterpolatingParam id="2254" interp="linr"  time="-9999999/1" value="1" leadInLength="0/1"  name="opacity"/>
             </Parameters>
             <Attributes>
              <Attribute id="2255" value="" name="ident"/>
             </Attributes>
             <ExtraData>
              <Entry key="ZoomPanBin">
               <ZoomPanBin id="2256"  >
                <ZoomPanKeyframes>
                 <ZoomPanKeyframe id="2257" timeRangeEnd="-9999999/1" timeRangeDuration="0/1" interpolaterName=""  />
                </ZoomPanKeyframes>
               </ZoomPanBin>
              </Entry>
             </ExtraData>
            </VMFile>
            <MetaData>
             <entry key="WinSubProjectDisplayName" val=""/>
            </MetaData>
           </UnifiedMedia>
           <UnifiedMedia id="2258"  >
            <AMFile id="2259" start="688" duration="1386" scalar="1/1" mediaStart="1658/1" mediaDuration="1386/1" trackNumber="2" src="4" channelNumber="0,1" >
             <Parameters>
              <InterpolatingParam id="2260" interp="linr"  time="0/1" value="1" leadInLength="0/1"  name="volume"/>
              <Parameter id="2261"  name="captions"/>
             </Parameters>
             <Attributes>
              <Attribute id="2262" value="" name="ident"/>
              <Attribute id="2263" value="44100" name="sampleRate"/>
              <Attribute id="2264" value="16" name="bitDepth"/>
              <Attribute id="2265" value="1" name="gain"/>
              <Attribute id="2266" value="0" name="mixToMono"/>
             </Attributes>
            </AMFile>
            <VMFile id="2267" start="688" duration="1386" scalar="1/1" mediaStart="1658/1" mediaDuration="1386/1" trackNumber="1" src="4" >
             <Transformer>
              <VectorParam id="2268"  name="translation">
               <InterpolatingParam id="2269" interp="linr"  time="-9999999/1" value="0" leadInLength="0/1"  />
               <InterpolatingParam id="2270" interp="linr"  time="-9999999/1" value="0" leadInLength="0/1"  />
               <InterpolatingParam id="2271" interp="linr"  time="-9999999/1" value="0" leadInLength="0/1"  />
              </VectorParam>
              <VectorParam id="2272"  name="rotation">
               <InterpolatingParam id="2273" interp="linr"  time="-9999999/1" value="0" leadInLength="0/1"  />
               <InterpolatingParam id="2274" interp="linr"  time="-9999999/1" value="0" leadInLength="0/1"  />
               <InterpolatingParam id="2275" interp="linr"  time="-9999999/1" value="0" leadInLength="0/1"  />
              </VectorParam>
              <VectorParam id="2276"  name="shear">
               <InterpolatingParam id="2277" interp="linr"  time="-9999999/1" value="0" leadInLength="0/1"  />
               <InterpolatingParam id="2278" interp="linr"  time="-9999999/1" value="0" leadInLength="0/1"  />
               <InterpolatingParam id="2279" interp="linr"  time="-9999999/1" value="0" leadInLength="0/1"  />
              </VectorParam>
              <VectorParam id="2280"  name="scale">
               <InterpolatingParam id="2281" interp="linr"  time="-9999999/1" value="1" leadInLength="0/1"  />
               <InterpolatingParam id="2282" interp="linr"  time="-9999999/1" value="1" leadInLength="0/1"  />
               <InterpolatingParam id="2283" interp="linr"  time="-9999999/1" value="1" leadInLength="0/1"  />
              </VectorParam>
              <VectorParam id="2284"  name="anchor">
               <InterpolatingParam id="2285" interp="linr"  time="0/1" value="0" leadInLength="0/1"  />
               <InterpolatingParam id="2286" interp="linr"  time="0/1" value="0" leadInLength="0/1"  />
               <InterpolatingParam id="2287" interp="linr"  time="0/1" value="0" leadInLength="0/1"  />
              </VectorParam>
             </Transformer>
             <Parameters>
              <VectorParam id="2288"  name="sourceCrop">
               <InterpolatingParam id="2289" interp="linr"  time="0/1" value="0" leadInLength="0/1"  />
               <InterpolatingParam id="2290" interp="linr"  time="0/1" value="0" leadInLength="0/1"  />
               <InterpolatingParam id="2291" interp="linr"  time="0/1" value="0" leadInLength="0/1"  />
               <InterpolatingParam id="2292" interp="linr"  time="0/1" value="0" leadInLength="0/1"  />
              </VectorParam>
              <VectorParam id="2293"  name="geometryCrop">
               <InterpolatingParam id="2294" interp="linr"  time="-9999999/1" value="0" leadInLength="0/1"  />
               <InterpolatingParam id="2295" interp="linr"  time="-9999999/1" value="0" leadInLength="0/1"  />
               <InterpolatingParam id="2296" interp="linr"  time="-9999999/1" value="0" leadInLength="0/1"  />
               <InterpolatingParam id="2297" interp="linr"  time="-9999999/1" value="0" leadInLength="0/1"  />
              </VectorParam>
              <InterpolatingParam id="2298" interp="linr"  time="-9999999/1" value="1" leadInLength="0/1"  name="opacity"/>
             </Parameters>
             <Attributes>
              <Attribute id="2299" value="" name="ident"/>
             </Attributes>
             <ExtraData>
              <Entry key="ZoomPanBin">
               <ZoomPanBin id="2300"  >
                <ZoomPanKeyframes>
                 <ZoomPanKeyframe id="2301" timeRangeEnd="-9999999/1" timeRangeDuration="0/1" interpolaterName=""  />
                </ZoomPanKeyframes>
               </ZoomPanBin>
              </Entry>
             </ExtraData>
            </VMFile>
            <MetaData>
             <entry key="WinSubProjectDisplayName" val=""/>
            </MetaData>
           </UnifiedMedia>
           <UnifiedMedia id="2302"  >
            <AMFile id="2303" start="2074" duration="2037" scalar="1/1" mediaStart="3341/1" mediaDuration="2037/1" trackNumber="2" src="4" channelNumber="0,1" >
             <Parameters>
              <InterpolatingParam id="2304" interp="linr"  time="0/1" value="1" leadInLength="0/1"  name="volume"/>
              <Parameter id="2305"  name="captions"/>
             </Parameters>
             <Attributes>
              <Attribute id="2306" value="" name="ident"/>
              <Attribute id="2307" value="44100" name="sampleRate"/>
              <Attribute id="2308" value="16" name="bitDepth"/>
              <Attribute id="2309" value="1" name="gain"/>
              <Attribute id="2310" value="0" name="mixToMono"/>
             </Attributes>
            </AMFile>
            <VMFile id="2311" start="2074" duration="2037" scalar="1/1" mediaStart="3341/1" mediaDuration="2037/1" trackNumber="1" src="4" >
             <Transformer>
              <VectorParam id="2312"  name="translation">
               <InterpolatingParam id="2313" interp="linr"  time="-9999999/1" value="0" leadInLength="0/1"  />
               <InterpolatingParam id="2314" interp="linr"  time="-9999999/1" value="0" leadInLength="0/1"  />
               <InterpolatingParam id="2315" interp="linr"  time="-9999999/1" value="0" leadInLength="0/1"  />
              </VectorParam>
              <VectorParam id="2316"  name="rotation">
               <InterpolatingParam id="2317" interp="linr"  time="-9999999/1" value="0" leadInLength="0/1"  />
               <InterpolatingParam id="2318" interp="linr"  time="-9999999/1" value="0" leadInLength="0/1"  />
               <InterpolatingParam id="2319" interp="linr"  time="-9999999/1" value="0" leadInLength="0/1"  />
              </VectorParam>
              <VectorParam id="2320"  name="shear">
               <InterpolatingParam id="2321" interp="linr"  time="-9999999/1" value="0" leadInLength="0/1"  />
               <InterpolatingParam id="2322" interp="linr"  time="-9999999/1" value="0" leadInLength="0/1"  />
               <InterpolatingParam id="2323" interp="linr"  time="-9999999/1" value="0" leadInLength="0/1"  />
              </VectorParam>
              <VectorParam id="2324"  name="scale">
               <InterpolatingParam id="2325" interp="linr"  time="-9999999/1" value="1" leadInLength="0/1"  />
               <InterpolatingParam id="2326" interp="linr"  time="-9999999/1" value="1" leadInLength="0/1"  />
               <InterpolatingParam id="2327" interp="linr"  time="-9999999/1" value="1" leadInLength="0/1"  />
              </VectorParam>
              <VectorParam id="2328"  name="anchor">
               <InterpolatingParam id="2329" interp="linr"  time="0/1" value="0" leadInLength="0/1"  />
               <InterpolatingParam id="2330" interp="linr"  time="0/1" value="0" leadInLength="0/1"  />
               <InterpolatingParam id="2331" interp="linr"  time="0/1" value="0" leadInLength="0/1"  />
              </VectorParam>
             </Transformer>
             <Parameters>
              <VectorParam id="2332"  name="sourceCrop">
               <InterpolatingParam id="2333" interp="linr"  time="0/1" value="0" leadInLength="0/1"  />
               <InterpolatingParam id="2334" interp="linr"  time="0/1" value="0" leadInLength="0/1"  />
               <InterpolatingParam id="2335" interp="linr"  time="0/1" value="0" leadInLength="0/1"  />
               <InterpolatingParam id="2336" interp="linr"  time="0/1" value="0" leadInLength="0/1"  />
              </VectorParam>
              <VectorParam id="2337"  name="geometryCrop">
               <InterpolatingParam id="2338" interp="linr"  time="-9999999/1" value="0" leadInLength="0/1"  />
               <InterpolatingParam id="2339" interp="linr"  time="-9999999/1" value="0" leadInLength="0/1"  />
               <InterpolatingParam id="2340" interp="linr"  time="-9999999/1" value="0" leadInLength="0/1"  />
               <InterpolatingParam id="2341" interp="linr"  time="-9999999/1" value="0" leadInLength="0/1"  />
              </VectorParam>
              <InterpolatingParam id="2342" interp="linr"  time="-9999999/1" value="1" leadInLength="0/1"  name="opacity"/>
             </Parameters>
             <Attributes>
              <Attribute id="2343" value="" name="ident"/>
             </Attributes>
             <ExtraData>
              <Entry key="ZoomPanBin">
               <ZoomPanBin id="2344"  >
                <ZoomPanKeyframes>
                 <ZoomPanKeyframe id="2345" timeRangeEnd="-9999999/1" timeRangeDuration="0/1" interpolaterName=""  />
                </ZoomPanKeyframes>
               </ZoomPanBin>
              </Entry>
             </ExtraData>
            </VMFile>
            <MetaData>
             <entry key="WinSubProjectDisplayName" val=""/>
            </MetaData>
           </UnifiedMedia>
           <UnifiedMedia id="2346"  >
            <AMFile id="2347" start="4111" duration="24" scalar="1/1" mediaStart="5402/1" mediaDuration="24/1" trackNumber="2" src="4" channelNumber="0,1" >
             <Parameters>
              <InterpolatingParam id="2348" interp="linr"  time="0/1" value="1" leadInLength="0/1"  name="volume"/>
              <Parameter id="2349"  name="captions"/>
             </Parameters>
             <Attributes>
              <Attribute id="2350" value="" name="ident"/>
              <Attribute id="2351" value="44100" name="sampleRate"/>
              <Attribute id="2352" value="16" name="bitDepth"/>
              <Attribute id="2353" value="1" name="gain"/>
              <Attribute id="2354" value="0" name="mixToMono"/>
             </Attributes>
            </AMFile>
            <VMFile id="2355" start="4111" duration="24" scalar="1/1" mediaStart="5402/1" mediaDuration="24/1" trackNumber="1" src="4" >
             <Transformer>
              <VectorParam id="2356"  name="translation">
               <InterpolatingParam id="2357" interp="linr"  time="-9999999/1" value="0" leadInLength="0/1"  />
               <InterpolatingParam id="2358" interp="linr"  time="-9999999/1" value="0" leadInLength="0/1"  />
               <InterpolatingParam id="2359" interp="linr"  time="-9999999/1" value="0" leadInLength="0/1"  />
              </VectorParam>
              <VectorParam id="2360"  name="rotation">
               <InterpolatingParam id="2361" interp="linr"  time="-9999999/1" value="0" leadInLength="0/1"  />
               <InterpolatingParam id="2362" interp="linr"  time="-9999999/1" value="0" leadInLength="0/1"  />
               <InterpolatingParam id="2363" interp="linr"  time="-9999999/1" value="0" leadInLength="0/1"  />
              </VectorParam>
              <VectorParam id="2364"  name="shear">
               <InterpolatingParam id="2365" interp="linr"  time="-9999999/1" value="0" leadInLength="0/1"  />
               <InterpolatingParam id="2366" interp="linr"  time="-9999999/1" value="0" leadInLength="0/1"  />
               <InterpolatingParam id="2367" interp="linr"  time="-9999999/1" value="0" leadInLength="0/1"  />
              </VectorParam>
              <VectorParam id="2368"  name="scale">
               <InterpolatingParam id="2369" interp="linr"  time="-9999999/1" value="1" leadInLength="0/1"  />
               <InterpolatingParam id="2370" interp="linr"  time="-9999999/1" value="1" leadInLength="0/1"  />
               <InterpolatingParam id="2371" interp="linr"  time="-9999999/1" value="1" leadInLength="0/1"  />
              </VectorParam>
              <VectorParam id="2372"  name="anchor">
               <InterpolatingParam id="2373" interp="linr"  time="0/1" value="0" leadInLength="0/1"  />
               <InterpolatingParam id="2374" interp="linr"  time="0/1" value="0" leadInLength="0/1"  />
               <InterpolatingParam id="2375" interp="linr"  time="0/1" value="0" leadInLength="0/1"  />
              </VectorParam>
             </Transformer>
             <Parameters>
              <VectorParam id="2376"  name="sourceCrop">
               <InterpolatingParam id="2377" interp="linr"  time="0/1" value="0" leadInLength="0/1"  />
               <InterpolatingParam id="2378" interp="linr"  time="0/1" value="0" leadInLength="0/1"  />
               <InterpolatingParam id="2379" interp="linr"  time="0/1" value="0" leadInLength="0/1"  />
               <InterpolatingParam id="2380" interp="linr"  time="0/1" value="0" leadInLength="0/1"  />
              </VectorParam>
              <VectorParam id="2381"  name="geometryCrop">
               <InterpolatingParam id="2382" interp="linr"  time="-9999999/1" value="0" leadInLength="0/1"  />
               <InterpolatingParam id="2383" interp="linr"  time="-9999999/1" value="0" leadInLength="0/1"  />
               <InterpolatingParam id="2384" interp="linr"  time="-9999999/1" value="0" leadInLength="0/1"  />
               <InterpolatingParam id="2385" interp="linr"  time="-9999999/1" value="0" leadInLength="0/1"  />
              </VectorParam>
              <InterpolatingParam id="2386" interp="linr"  time="-9999999/1" value="1" leadInLength="0/1"  name="opacity"/>
             </Parameters>
             <Attributes>
              <Attribute id="2387" value="" name="ident"/>
             </Attributes>
             <ExtraData>
              <Entry key="ZoomPanBin">
               <ZoomPanBin id="2388"  >
                <ZoomPanKeyframes>
                 <ZoomPanKeyframe id="2389" timeRangeEnd="-9999999/1" timeRangeDuration="0/1" interpolaterName=""  />
                </ZoomPanKeyframes>
               </ZoomPanBin>
              </Entry>
             </ExtraData>
            </VMFile>
            <MetaData>
             <entry key="WinSubProjectDisplayName" val=""/>
            </MetaData>
           </UnifiedMedia>
           <UnifiedMedia id="2390"  >
            <AMFile id="2391" start="4135" duration="275" scalar="1/1" mediaStart="5460/1" mediaDuration="275/1" trackNumber="2" src="4" channelNumber="0,1" >
             <Parameters>
              <InterpolatingParam id="2392" interp="linr"  time="0/1" value="1" leadInLength="0/1"  name="volume"/>
              <Parameter id="2393"  name="captions"/>
             </Parameters>
             <Attributes>
              <Attribute id="2394" value="" name="ident"/>
              <Attribute id="2395" value="44100" name="sampleRate"/>
              <Attribute id="2396" value="16" name="bitDepth"/>
              <Attribute id="2397" value="1" name="gain"/>
              <Attribute id="2398" value="0" name="mixToMono"/>
             </Attributes>
            </AMFile>
            <VMFile id="2399" start="4135" duration="275" scalar="1/1" mediaStart="5460/1" mediaDuration="275/1" trackNumber="1" src="4" >
             <Transformer>
              <VectorParam id="2400"  name="translation">
               <InterpolatingParam id="2401" interp="linr"  time="-9999999/1" value="0" leadInLength="0/1"  />
               <InterpolatingParam id="2402" interp="linr"  time="-9999999/1" value="0" leadInLength="0/1"  />
               <InterpolatingParam id="2403" interp="linr"  time="-9999999/1" value="0" leadInLength="0/1"  />
              </VectorParam>
              <VectorParam id="2404"  name="rotation">
               <InterpolatingParam id="2405" interp="linr"  time="-9999999/1" value="0" leadInLength="0/1"  />
               <InterpolatingParam id="2406" interp="linr"  time="-9999999/1" value="0" leadInLength="0/1"  />
               <InterpolatingParam id="2407" interp="linr"  time="-9999999/1" value="0" leadInLength="0/1"  />
              </VectorParam>
              <VectorParam id="2408"  name="shear">
               <InterpolatingParam id="2409" interp="linr"  time="-9999999/1" value="0" leadInLength="0/1"  />
               <InterpolatingParam id="2410" interp="linr"  time="-9999999/1" value="0" leadInLength="0/1"  />
               <InterpolatingParam id="2411" interp="linr"  time="-9999999/1" value="0" leadInLength="0/1"  />
              </VectorParam>
              <VectorParam id="2412"  name="scale">
               <InterpolatingParam id="2413" interp="linr"  time="-9999999/1" value="1" leadInLength="0/1"  />
               <InterpolatingParam id="2414" interp="linr"  time="-9999999/1" value="1" leadInLength="0/1"  />
               <InterpolatingParam id="2415" interp="linr"  time="-9999999/1" value="1" leadInLength="0/1"  />
              </VectorParam>
              <VectorParam id="2416"  name="anchor">
               <InterpolatingParam id="2417" interp="linr"  time="0/1" value="0" leadInLength="0/1"  />
               <InterpolatingParam id="2418" interp="linr"  time="0/1" value="0" leadInLength="0/1"  />
               <InterpolatingParam id="2419" interp="linr"  time="0/1" value="0" leadInLength="0/1"  />
              </VectorParam>
             </Transformer>
             <Parameters>
              <VectorParam id="2420"  name="sourceCrop">
               <InterpolatingParam id="2421" interp="linr"  time="0/1" value="0" leadInLength="0/1"  />
               <InterpolatingParam id="2422" interp="linr"  time="0/1" value="0" leadInLength="0/1"  />
               <InterpolatingParam id="2423" interp="linr"  time="0/1" value="0" leadInLength="0/1"  />
               <InterpolatingParam id="2424" interp="linr"  time="0/1" value="0" leadInLength="0/1"  />
              </VectorParam>
              <VectorParam id="2425"  name="geometryCrop">
               <InterpolatingParam id="2426" interp="linr"  time="-9999999/1" value="0" leadInLength="0/1"  />
               <InterpolatingParam id="2427" interp="linr"  time="-9999999/1" value="0" leadInLength="0/1"  />
               <InterpolatingParam id="2428" interp="linr"  time="-9999999/1" value="0" leadInLength="0/1"  />
               <InterpolatingParam id="2429" interp="linr"  time="-9999999/1" value="0" leadInLength="0/1"  />
              </VectorParam>
              <InterpolatingParam id="2430" interp="linr"  time="-9999999/1" value="1" leadInLength="0/1"  name="opacity"/>
             </Parameters>
             <Attributes>
              <Attribute id="2431" value="" name="ident"/>
             </Attributes>
             <ExtraData>
              <Entry key="ZoomPanBin">
               <ZoomPanBin id="2432"  >
                <ZoomPanKeyframes>
                 <ZoomPanKeyframe id="2433" timeRangeEnd="-9999999/1" timeRangeDuration="0/1" interpolaterName=""  />
                </ZoomPanKeyframes>
               </ZoomPanBin>
              </Entry>
             </ExtraData>
            </VMFile>
            <MetaData>
             <entry key="WinSubProjectDisplayName" val=""/>
            </MetaData>
           </UnifiedMedia>
           <UnifiedMedia id="2434"  >
            <AMFile id="2435" start="4410" duration="414" scalar="1/1" mediaStart="5909/1" mediaDuration="414/1" trackNumber="2" src="4" channelNumber="0,1" >
             <Parameters>
              <InterpolatingParam id="2436" interp="linr"  time="0/1" value="1" leadInLength="0/1"  name="volume"/>
              <Parameter id="2437"  name="captions"/>
             </Parameters>
             <Attributes>
              <Attribute id="2438" value="" name="ident"/>
              <Attribute id="2439" value="44100" name="sampleRate"/>
              <Attribute id="2440" value="16" name="bitDepth"/>
              <Attribute id="2441" value="1" name="gain"/>
              <Attribute id="2442" value="0" name="mixToMono"/>
             </Attributes>
            </AMFile>
            <VMFile id="2443" start="4410" duration="414" scalar="1/1" mediaStart="5909/1" mediaDuration="414/1" trackNumber="1" src="4" >
             <Transformer>
              <VectorParam id="2444"  name="translation">
               <InterpolatingParam id="2445" interp="linr"  time="-9999999/1" value="0" leadInLength="0/1"  />
               <InterpolatingParam id="2446" interp="linr"  time="-9999999/1" value="0" leadInLength="0/1"  />
               <InterpolatingParam id="2447" interp="linr"  time="-9999999/1" value="0" leadInLength="0/1"  />
              </VectorParam>
              <VectorParam id="2448"  name="rotation">
               <InterpolatingParam id="2449" interp="linr"  time="-9999999/1" value="0" leadInLength="0/1"  />
               <InterpolatingParam id="2450" interp="linr"  time="-9999999/1" value="0" leadInLength="0/1"  />
               <InterpolatingParam id="2451" interp="linr"  time="-9999999/1" value="0" leadInLength="0/1"  />
              </VectorParam>
              <VectorParam id="2452"  name="shear">
               <InterpolatingParam id="2453" interp="linr"  time="-9999999/1" value="0" leadInLength="0/1"  />
               <InterpolatingParam id="2454" interp="linr"  time="-9999999/1" value="0" leadInLength="0/1"  />
               <InterpolatingParam id="2455" interp="linr"  time="-9999999/1" value="0" leadInLength="0/1"  />
              </VectorParam>
              <VectorParam id="2456"  name="scale">
               <InterpolatingParam id="2457" interp="linr"  time="-9999999/1" value="1" leadInLength="0/1"  />
               <InterpolatingParam id="2458" interp="linr"  time="-9999999/1" value="1" leadInLength="0/1"  />
               <InterpolatingParam id="2459" interp="linr"  time="-9999999/1" value="1" leadInLength="0/1"  />
              </VectorParam>
              <VectorParam id="2460"  name="anchor">
               <InterpolatingParam id="2461" interp="linr"  time="0/1" value="0" leadInLength="0/1"  />
               <InterpolatingParam id="2462" interp="linr"  time="0/1" value="0" leadInLength="0/1"  />
               <InterpolatingParam id="2463" interp="linr"  time="0/1" value="0" leadInLength="0/1"  />
              </VectorParam>
             </Transformer>
             <Parameters>
              <VectorParam id="2464"  name="sourceCrop">
               <InterpolatingParam id="2465" interp="linr"  time="0/1" value="0" leadInLength="0/1"  />
               <InterpolatingParam id="2466" interp="linr"  time="0/1" value="0" leadInLength="0/1"  />
               <InterpolatingParam id="2467" interp="linr"  time="0/1" value="0" leadInLength="0/1"  />
               <InterpolatingParam id="2468" interp="linr"  time="0/1" value="0" leadInLength="0/1"  />
              </VectorParam>
              <VectorParam id="2469"  name="geometryCrop">
               <InterpolatingParam id="2470" interp="linr"  time="-9999999/1" value="0" leadInLength="0/1"  />
               <InterpolatingParam id="2471" interp="linr"  time="-9999999/1" value="0" leadInLength="0/1"  />
               <InterpolatingParam id="2472" interp="linr"  time="-9999999/1" value="0" leadInLength="0/1"  />
               <InterpolatingParam id="2473" interp="linr"  time="-9999999/1" value="0" leadInLength="0/1"  />
              </VectorParam>
              <InterpolatingParam id="2474" interp="linr"  time="-9999999/1" value="1" leadInLength="0/1"  name="opacity"/>
             </Parameters>
             <Attributes>
              <Attribute id="2475" value="" name="ident"/>
             </Attributes>
             <ExtraData>
              <Entry key="ZoomPanBin">
               <ZoomPanBin id="2476"  >
                <ZoomPanKeyframes>
                 <ZoomPanKeyframe id="2477" timeRangeEnd="-9999999/1" timeRangeDuration="0/1" interpolaterName=""  />
                </ZoomPanKeyframes>
               </ZoomPanBin>
              </Entry>
             </ExtraData>
            </VMFile>
            <MetaData>
             <entry key="WinSubProjectDisplayName" val=""/>
            </MetaData>
           </UnifiedMedia>
           <UnifiedMedia id="2478"  >
            <AMFile id="2479" start="4824" duration="8502" scalar="1/1" mediaStart="6341/1" mediaDuration="8502/1" trackNumber="2" src="4" channelNumber="0,1" >
             <Parameters>
              <InterpolatingParam id="2480" interp="linr"  time="0/1" value="1" leadInLength="0/1"  name="volume"/>
              <Parameter id="2481"  name="captions"/>
             </Parameters>
             <Attributes>
              <Attribute id="2482" value="" name="ident"/>
              <Attribute id="2483" value="44100" name="sampleRate"/>
              <Attribute id="2484" value="16" name="bitDepth"/>
              <Attribute id="2485" value="1" name="gain"/>
              <Attribute id="2486" value="0" name="mixToMono"/>
             </Attributes>
            </AMFile>
            <VMFile id="2487" start="4824" duration="8502" scalar="1/1" mediaStart="6341/1" mediaDuration="8502/1" trackNumber="1" src="4" >
             <Transformer>
              <VectorParam id="2488"  name="translation">
               <InterpolatingParam id="2489" interp="linr"  time="-9999999/1" value="0" leadInLength="0/1"  />
               <InterpolatingParam id="2490" interp="linr"  time="-9999999/1" value="0" leadInLength="0/1"  />
               <InterpolatingParam id="2491" interp="linr"  time="-9999999/1" value="0" leadInLength="0/1"  />
              </VectorParam>
              <VectorParam id="2492"  name="rotation">
               <InterpolatingParam id="2493" interp="linr"  time="-9999999/1" value="0" leadInLength="0/1"  />
               <InterpolatingParam id="2494" interp="linr"  time="-9999999/1" value="0" leadInLength="0/1"  />
               <InterpolatingParam id="2495" interp="linr"  time="-9999999/1" value="0" leadInLength="0/1"  />
              </VectorParam>
              <VectorParam id="2496"  name="shear">
               <InterpolatingParam id="2497" interp="linr"  time="-9999999/1" value="0" leadInLength="0/1"  />
               <InterpolatingParam id="2498" interp="linr"  time="-9999999/1" value="0" leadInLength="0/1"  />
               <InterpolatingParam id="2499" interp="linr"  time="-9999999/1" value="0" leadInLength="0/1"  />
              </VectorParam>
              <VectorParam id="2500"  name="scale">
               <InterpolatingParam id="2501" interp="linr"  time="-9999999/1" value="1" leadInLength="0/1"  />
               <InterpolatingParam id="2502" interp="linr"  time="-9999999/1" value="1" leadInLength="0/1"  />
               <InterpolatingParam id="2503" interp="linr"  time="-9999999/1" value="1" leadInLength="0/1"  />
              </VectorParam>
              <VectorParam id="2504"  name="anchor">
               <InterpolatingParam id="2505" interp="linr"  time="0/1" value="0" leadInLength="0/1"  />
               <InterpolatingParam id="2506" interp="linr"  time="0/1" value="0" leadInLength="0/1"  />
               <InterpolatingParam id="2507" interp="linr"  time="0/1" value="0" leadInLength="0/1"  />
              </VectorParam>
             </Transformer>
             <Parameters>
              <VectorParam id="2508"  name="sourceCrop">
               <InterpolatingParam id="2509" interp="linr"  time="0/1" value="0" leadInLength="0/1"  />
               <InterpolatingParam id="2510" interp="linr"  time="0/1" value="0" leadInLength="0/1"  />
               <InterpolatingParam id="2511" interp="linr"  time="0/1" value="0" leadInLength="0/1"  />
               <InterpolatingParam id="2512" interp="linr"  time="0/1" value="0" leadInLength="0/1"  />
              </VectorParam>
              <VectorParam id="2513"  name="geometryCrop">
               <InterpolatingParam id="2514" interp="linr"  time="-9999999/1" value="0" leadInLength="0/1"  />
               <InterpolatingParam id="2515" interp="linr"  time="-9999999/1" value="0" leadInLength="0/1"  />
               <InterpolatingParam id="2516" interp="linr"  time="-9999999/1" value="0" leadInLength="0/1"  />
               <InterpolatingParam id="2517" interp="linr"  time="-9999999/1" value="0" leadInLength="0/1"  />
              </VectorParam>
              <InterpolatingParam id="2518" interp="linr"  time="-9999999/1" value="1" leadInLength="0/1"  name="opacity"/>
             </Parameters>
             <Attributes>
              <Attribute id="2519" value="" name="ident"/>
             </Attributes>
             <ExtraData>
              <Entry key="ZoomPanBin">
               <ZoomPanBin id="2520"  >
                <ZoomPanKeyframes>
                 <ZoomPanKeyframe id="2521" timeRangeEnd="-9999999/1" timeRangeDuration="0/1" interpolaterName=""  />
                </ZoomPanKeyframes>
               </ZoomPanBin>
              </Entry>
             </ExtraData>
            </VMFile>
            <MetaData>
             <entry key="WinSubProjectDisplayName" val=""/>
            </MetaData>
           </UnifiedMedia>
          </Medias>
         </GenericTrack>
        </StitchedMedia>
        <StitchedMedia id="2522" start="5659" duration="2530" scalar="1/1" mediaStart="5714/1" mediaDuration="2530/1" minMediaStart="0/1" >
         <Transformer>
          <VectorParam id="2523"  name="translation">
           <InterpolatingParam id="2524" interp="linr"  >
            <Keyframes>
            <Keyframe id="2525"  time="-9999999/1" value="225.01746724913505" leadInLength="0/1"  interpolater="leadin-linr"  />
            <Keyframe id="2526"  time="2091/1" value="569.31812227001842" leadInLength="30/1"  interpolater="leadin-linr"  />
            </Keyframes>
           </InterpolatingParam>
           <InterpolatingParam id="2527" interp="linr"  >
            <Keyframes>
            <Keyframe id="2528"  time="-9999999/1" value="-2.2631004365392187" leadInLength="0/1"  interpolater="leadin-linr"  />
            <Keyframe id="2529"  time="2091/1" value="-260.48859170275711" leadInLength="30/1"  interpolater="leadin-linr"  />
            </Keyframes>
           </InterpolatingParam>
           <InterpolatingParam id="2530" interp="linr"  >
            <Keyframes>
            <Keyframe id="2531"  time="-9999999/1" value="0" leadInLength="0/1"  interpolater="leadin-linr"  />
            <Keyframe id="2532"  time="2091/1" value="0" leadInLength="30/1"  interpolater="leadin-linr"  />
            </Keyframes>
           </InterpolatingParam>
          </VectorParam>
          <VectorParam id="2533"  name="rotation">
           <InterpolatingParam id="2534" interp="linr"  >
            <Keyframes>
            <Keyframe id="2535"  time="-9999999/1" value="0" leadInLength="0/1"  interpolater="leadin-linr"  />
            <Keyframe id="2536"  time="2091/1" value="0" leadInLength="30/1"  interpolater="leadin-linr"  />
            </Keyframes>
           </InterpolatingParam>
           <InterpolatingParam id="2537" interp="linr"  >
            <Keyframes>
            <Keyframe id="2538"  time="-9999999/1" value="0" leadInLength="0/1"  interpolater="leadin-linr"  />
            <Keyframe id="2539"  time="2091/1" value="0" leadInLength="30/1"  interpolater="leadin-linr"  />
            </Keyframes>
           </InterpolatingParam>
           <InterpolatingParam id="2540" interp="linr"  >
            <Keyframes>
            <Keyframe id="2541"  time="-9999999/1" value="0" leadInLength="0/1"  interpolater="leadin-linr"  />
            <Keyframe id="2542"  time="2091/1" value="0" leadInLength="30/1"  interpolater="leadin-linr"  />
            </Keyframes>
           </InterpolatingParam>
          </VectorParam>
          <VectorParam id="2543"  name="shear">
           <InterpolatingParam id="2544" interp="linr"  >
            <Keyframes>
            <Keyframe id="2545"  time="-9999999/1" value="0" leadInLength="0/1"  interpolater="leadin-linr"  />
            <Keyframe id="2546"  time="2091/1" value="0" leadInLength="30/1"  interpolater="leadin-linr"  />
            </Keyframes>
           </InterpolatingParam>
           <InterpolatingParam id="2547" interp="linr"  >
            <Keyframes>
            <Keyframe id="2548"  time="-9999999/1" value="0" leadInLength="0/1"  interpolater="leadin-linr"  />
            <Keyframe id="2549"  time="2091/1" value="0" leadInLength="30/1"  interpolater="leadin-linr"  />
            </Keyframes>
           </InterpolatingParam>
           <InterpolatingParam id="2550" interp="linr"  >
            <Keyframes>
            <Keyframe id="2551"  time="-9999999/1" value="0" leadInLength="0/1"  interpolater="leadin-linr"  />
            <Keyframe id="2552"  time="2091/1" value="0" leadInLength="30/1"  interpolater="leadin-linr"  />
            </Keyframes>
           </InterpolatingParam>
          </VectorParam>
          <VectorParam id="2553"  name="scale">
           <InterpolatingParam id="2554" interp="linr"  >
            <Keyframes>
            <Keyframe id="2555"  time="-9999999/1" value="1.4905704148471797" leadInLength="0/1"  interpolater="leadin-linr"  />
            <Keyframe id="2556"  time="2091/1" value="0.41463086790498443" leadInLength="30/1"  interpolater="leadin-linr"  />
            </Keyframes>
           </InterpolatingParam>
           <InterpolatingParam id="2557" interp="linr"  >
            <Keyframes>
            <Keyframe id="2558"  time="-9999999/1" value="1.4905704148471794" leadInLength="0/1"  interpolater="leadin-linr"  />
            <Keyframe id="2559"  time="2091/1" value="0.41463086790498421" leadInLength="30/1"  interpolater="leadin-linr"  />
            </Keyframes>
           </InterpolatingParam>
           <InterpolatingParam id="2560" interp="linr"  >
            <Keyframes>
            <Keyframe id="2561"  time="-9999999/1" value="1" leadInLength="0/1"  interpolater="leadin-linr"  />
            <Keyframe id="2562"  time="2091/1" value="1" leadInLength="30/1"  interpolater="leadin-linr"  />
            </Keyframes>
           </InterpolatingParam>
          </VectorParam>
          <VectorParam id="2563"  name="anchor">
           <InterpolatingParam id="2564" interp="linr"  time="0/1" value="0" leadInLength="0/1"  />
           <InterpolatingParam id="2565" interp="linr"  time="0/1" value="0" leadInLength="0/1"  />
           <InterpolatingParam id="2566" interp="linr"  time="0/1" value="0" leadInLength="0/1"  />
          </VectorParam>
         </Transformer>
         <Parameters>
          <VectorParam id="2567"  name="sourceCrop">
           <InterpolatingParam id="2568" interp="linr"  time="0/1" value="0" leadInLength="0/1"  />
           <InterpolatingParam id="2569" interp="linr"  time="0/1" value="0" leadInLength="0/1"  />
           <InterpolatingParam id="2570" interp="linr"  time="0/1" value="0" leadInLength="0/1"  />
           <InterpolatingParam id="2571" interp="linr"  time="0/1" value="0" leadInLength="0/1"  />
          </VectorParam>
          <VectorParam id="2572"  name="geometryCrop">
           <InterpolatingParam id="2573" interp="linr"  >
            <Keyframes>
            <Keyframe id="2574"  time="-9999999/1" value="0" leadInLength="0/1"  interpolater="leadin-linr"  />
            <Keyframe id="2575"  time="2091/1" value="0" leadInLength="30/1"  interpolater="leadin-linr"  />
            </Keyframes>
           </InterpolatingParam>
           <InterpolatingParam id="2576" interp="linr"  >
            <Keyframes>
            <Keyframe id="2577"  time="-9999999/1" value="0" leadInLength="0/1"  interpolater="leadin-linr"  />
            <Keyframe id="2578"  time="2091/1" value="0" leadInLength="30/1"  interpolater="leadin-linr"  />
            </Keyframes>
           </InterpolatingParam>
           <InterpolatingParam id="2579" interp="linr"  >
            <Keyframes>
            <Keyframe id="2580"  time="-9999999/1" value="0" leadInLength="0/1"  interpolater="leadin-linr"  />
            <Keyframe id="2581"  time="2091/1" value="0" leadInLength="30/1"  interpolater="leadin-linr"  />
            </Keyframes>
           </InterpolatingParam>
           <InterpolatingParam id="2582" interp="linr"  >
            <Keyframes>
            <Keyframe id="2583"  time="-9999999/1" value="0" leadInLength="0/1"  interpolater="leadin-linr"  />
            <Keyframe id="2584"  time="2091/1" value="0" leadInLength="30/1"  interpolater="leadin-linr"  />
            </Keyframes>
           </InterpolatingParam>
          </VectorParam>
          <InterpolatingParam id="2585" interp="linr"  name="opacity">
           <Keyframes>
           <Keyframe id="2586"  time="-9999999/1" value="1" leadInLength="0/1"  interpolater="leadin-linr"  />
           <Keyframe id="2587"  time="2091/1" value="1" leadInLength="30/1"  interpolater="leadin-linr"  />
           </Keyframes>
          </InterpolatingParam>
          <InterpolatingParam id="2588" interp="linr"  time="0/1" value="1" leadInLength="0/1"  name="cursorOpacity"/>
          <InterpolatingParam id="2589" interp="linr"  time="0/1" value="1" leadInLength="0/1"  name="cursorScale"/>
          <InterpolatingParam id="2590" interp="linr"  time="0/1" value="1" leadInLength="0/1"  name="volume"/>
          <Parameter id="2591"  name="captions"/>
         </Parameters>
         <Effects>
          <GenericEffect id="2592" name = "NoiseReduction" >
           <Parameters>
           <InterpolatingParam id="2593" interp="linr"  time="0/1" value="27.599999999999998" leadInLength="0/1"   name="denoiserAmount"/>
           <InterpolatingParam id="2594" interp="linr"  time="0/1" value="2.2799999999999994" leadInLength="0/1"   name="denoiserThreshold"/>
           <Parameter id="2595"   name="noiseProfile">
            <Keyframes>
            <Keyframe id="2596"  time="0/1" value="FBAAAAIAAABErAAAAQIAADowIcKkMhPC3bwnwqbxMMIPKEvCOndNwi6nUMI7TVLCsD1WwtBnUsJ4&#xD;&#xa;mlLC1K1Xwty2XsK8WWLCbz1owkjkacIq5W3Cd0t0woGRcMJuVW3CKgxswnQYasKzMGzCMitvwkeZ&#xD;&#xa;bsIiU23CMSpxwpqdd8I/JXjCb/h7wrKBgMLAioHCVC+CwtvLgcKNxIDCYnmCwrtzhcJ7bobCylqG&#xD;&#xa;wlcnhcJNzITCGFiEwkEgiMJ7bYvC7FiLwsZMisJEL4vCcOqMwlwrkMIpxpDCmLmRwla9k8KAzJHC&#xD;&#xa;vc2RwgdJlMKIbZLCGQeTwhJolcJznpTC2g6XwrcalcIMfJTCHLWWwtFlmMLzG5fCeLeVwn+SlsI9&#xD;&#xa;J5fCYMGcwqCOmMJnjJfCMmGbwvbbm8JEb5vCWLaZwlW9lcI0HZbCs3mbwvCfmcK29ZfCAlWTwiNG&#xD;&#xa;kcJSJ5TCSOyTwrw4kcIGj5DCvAGTwlWom8KhwJ/CP56bwvBzmMLEc5nCamaTwmrFksJsBJvCf82b&#xD;&#xa;wpqImMLe/5jCDUiYwgDXl8LeRpjCLHWZwgTFmsIKWpvChFWcwu9Tm8KJy53CcYmhwtacoMK8CZzC&#xD;&#xa;oCGbwiLPmMImNZnCd06cwli+mcLu8ZjCWnyVwpTmmcLurZnChVOYwsOVl8Lo2pXCS3GUwkEwlcKB&#xD;&#xa;lZTC7/WWwrJim8JaMprCWGSZwuPglsK5FJrCY4yUwrBnksLoaJfCjNOYwkiCmcLm/5TCIsmWwglV&#xD;&#xa;l8IXwpXCgGiUwnbDkMKVMpHCI1aQwtjNk8KXKZTCeKyTwiWPksJU/JTCdlKYwmZel8Ly9JLC1cKQ&#xD;&#xa;wlVGk8J0qZTCDEGUwnlQlcK9xZjCN6SVwrnalcLXoJbCan6Wwq4RlsIhVpbCZACYwmhQlsK6LJjC&#xD;&#xa;KpGXwp2AlsKfzZTCXASUwhdXlMJPY5TC7z+ZwiVjlsI/yJjCu+qdwruTmMJ9OJjCFAWawpxjl8IY&#xD;&#xa;3JbCVkuWwkg/msKcJZ3CbWqgwtXEocK+vJvCaKWZwhbumMKxwZjCEWObwvnlmsLvOZrCjIWWwiLz&#xD;&#xa;kcIc45LCWKqVwvnPl8Lnt5jCLISXwvujmMJDsZPCwPuTwnXgm8IuwZrCb0eZwrXOlcL8rpPCQ9yW&#xD;&#xa;wuRem8LEA57CXdufwtDPoMKbqJ7CpvmfwlqPo8J5xKDCkXafwpSyncLArZ3C1bmgwoDooMKhcaXC&#xD;&#xa;keylwl+NpcIMCKPCAtyhworko8KqrqPC3+Gkwhyqo8IznaPCV6ujwgAgo8J0A6LCGAugwrF0nsJV&#xD;&#xa;Q6DC84ujwjwLpML9y6TCsA+mwsmmp8Lu6qbCjcGlwjk4psLcJaTC7+GlwiOpo8JaX6TCFFuiwqqu&#xD;&#xa;osLkAqPCEICiwvy7nsI+zJ7C03mhwgKiosIAF6HCdIWhwqZBocIImKHCCxKnwikQqcJ9PqLCNuGe&#xD;&#xa;wjk7oMLwvqXCwGygwtRcnsJSFqHCbK6ewvCknsJ+wZ/CPzKcwoBQl8L0SpnCfvuXwv1gl8JTlpzC&#xD;&#xa;Y5efwv1kncLxR5jCk8aZwkb4nMKDgpvC+d+awr9gnsIiEZ/CeRqbwhnXmsIrXpnCb1eZwl6JnMKu&#xD;&#xa;bZ3CCTidwjgknMLiR57Cyzykwm06o8I0yp7CC+ubwmcenMKu6Z7CaDygwvskosKcMKDC9UmiwgUQ&#xD;&#xa;oMKjQJzCsMGewoIFpMJo56HCrFGhwghZo8K6T6TCM6SlwtA8pcIaraTCcV+owjYjqMIJPabC6q6j&#xD;&#xa;wpwmpMK3uaLCNganwiwkqMLEXqnCni6qwvYgqcL+oqnC+IGmwshKpcKSVqjCQQ+lwkv/pMLztabC&#xD;&#xa;+pOlwt64osK0zabCe3OmwgV2pMLuRKjCrf6mwml4p8JEwqvC2g6xwtvir8IOWLHCGrqtwg41qsJv&#xD;&#xa;IqjCThypwtL6rcJ14q3CPjSvwtQFrcKSJKjC6UupwjTlqsJPGazCGhGpwh9Yp8LHOavCQ3Spwlc5&#xD;&#xa;qMIPOKfCalmnwvvFq8Iw2qzCyU+swrfUrsLuOK/CkhqrwoTKqcJCH6nCon+nwnUdqsIjHarCf0mr&#xD;&#xa;wn3eqcK8lavC4leswu/WrMJnfK7CecmxwmQCtMJO9q/CEJ2qwlLurMJYnq7CcO6vws+UsMK/xK/C&#xD;&#xa;mDCxwk1qscLSLK3C3juuwu3bssKc5LbCRze1wgimtMKYG7bC5Fq1wvhDtsK8dbPClfCywnWDtcIZ&#xD;&#xa;37nCFw65wmkQvMJYDrnCskW1wg1LuMLwWrnCRIy3wqyftMKugLjCDMi0whxnssJ6/bXC+HW1wnWk&#xD;&#xa;ssIoYbPCZD22wnafucIA0rnChlm5wllotcKklLXCTCK2wtOhtcIcobfCz4G2wkgntcJMN7PCEKSx&#xD;&#xa;wg7qscIpj7LCAAu3wgdhu8KmdrvCsvS3wn8nssJQprTClga7wi35ucLler/CzFC7wrf4tcLkt7XC&#xD;&#xa;uuK5wvAJv8KqbrzC4WO5wlY9usIszL3CqhO9wo5Jv8Kyf8PCHCHBwtKTvcKcoL3CyNe/woiUwMJc&#xD;&#xa;A8XCL2LDwrR3xMLypsLCbCfDwsi4wcKiAcHCb2nDwjUJvMLoTbXCgnS3wmTDu8L/VcLCovPGwj8D&#xD;&#xa;yMK4xMbCmlXHwh4KxsJGO7/C40e+wm6mxsKwesPCdr/CwjaiwcL9ksPCtkjGwi5ZwcK4NcXC8qPJ&#xD;&#xa;wrSOy8Ii+snC/jfNwhq908KS/9HCqRHYwgXn4sJcZ9LCLErPwnW/2MJKqdrCSSHZwpZb1cL64tPC&#xD;&#xa;ZPnYwjhb3MKePdDChOjawlkwIcLCMhPCEL0nwt3xMMI5KEvCW3dNwhynUMKITVLCxj5WwnFoUsLQ&#xD;&#xa;mVLCm61Xwo62XsLXWWLCqj1ownvkacIq5W3CwEt0wgCScMK+VG3C8gpswksXasIfMGzC6ypvwjGY&#xD;&#xa;bsLUUW3C/ypxwvqdd8JJJnjCAfh7wgqAgMLOiYHCYC+CwnvLgcK5xIDC0nmCwpd0hcLAbobCllyG&#xD;&#xa;wk4ohcLTy4TC7VeEwl8fiMKUbIvCaVaLwtpJisI0L4vCAOyMwqItkMIVx5DC9rqRwh67k8JeyJHC&#xD;&#xa;lsuRwklIlMKYa5LClwGTwllklcK3nJTCsQmXwmQYlcLBfJTCg7WWwmprmMJAH5fCELmVwjaSlsJi&#xD;&#xa;KJfC/MWcwr6NmMJniZfCWV+bwjDbm8KSaZvCwrOZwri+lcJSH5bCkHebwmmfmcJ495fCE1WTwnVG&#xD;&#xa;kcKGJpTCPOqTws44kcKqjpDC/wGTwrCsm8Jqzp/CLrebwoiVmMLvjZnCPm6TwuPTksI2H5vCdOCb&#xD;&#xa;wrqPmMI2FJnC/GmYwqPdl8IoP5jCTHOZwl7FmsIIXZvC+HOcwgZtm8LZ153CAqmhwpGjoMJoCZzC&#xD;&#xa;YB2bwp7ImML0K5nCjEmcwo3HmcK+/ZjCOYCVwhHrmcJww5nCVmCYwnyUl8KC1ZXCA3CUwqsqlcK3&#xD;&#xa;pZTC1/6WwmRxm8K5OprCyG6Zwk7wlsJ4JprCwIaUwhttksJUe5fC7ueYwryYmcJODJXC8cmWwhBj&#xD;&#xa;l8LKyZXC2muUwkLRkMKcOZHCGF+QwqnRk8KcK5TCNKiTwliKksIk+JTCxE2YwvJWl8KG8pLCrMSQ&#xD;&#xa;wolFk8IXqpTChEOUwlVRlcL9xpjC+qOVwjvZlcLtoJbCnX2WwrUOlsJqVpbCzwGYwnlQlsJ6LpjC&#xD;&#xa;QI+XwpCAlsLgzpTCNAKUwtxWlMJgY5TCZj+ZwmBllsKiyZjCVPydwmyimMIZNpjCygiawsRwl8KG&#xD;&#xa;35bCCVmWwldHmsIkIp3Cb2+gws/pocLyz5vCDJ+ZwjjjmMJhwJjCPmWbwjPwmsL9O5rCIoaWwtb2&#xD;&#xa;kcKx6JLC/K2Vwr7Kl8JPtpjCynuXwjygmMInspPCKPiTwijpm8IAxprCDjyZwrDIlcI5r5PCq+GW&#xD;&#xa;wgNjm8IyA57Ck+afwk7xoMLA357CTiigwsKlo8L+wqDCC2qfwve6ncKupJ3CPqOgwhnyoMKBraXC&#xD;&#xa;OCKmwmOGpcLi9aLC39ahwqDXo8LnwKPCuvSkwp2uo8L2t6PCsKajwtEvo8LJMKLC2x6gwueEnsJO&#xD;&#xa;XaDCdoCjwokMpMJY4qTCrjCmws6wp8LS76bCcKelwuU8psJBI6TCevulwoC1o8KpY6TCo1KiwpC6&#xD;&#xa;osL2CqPCG4Siwh3EnsKyxp7Ct4Ghwp2+osLpHqHCNpKhwmhOocKtl6HC6genwkQaqcIBTKLC3fye&#xD;&#xa;wl5LoMJ+u6XCZVygwkRQnsIKHqHCBLOewmqbnsLts5/C8jGcwmdXl8JrT5nCVfmXwjhZl8JelpzC&#xD;&#xa;65yfwslrncI8RZjCWL6ZwlLsnMIShJvClOOawttinsI4EZ/C+Babws/SmsK4WJnCn1GZwnKJnMLw&#xD;&#xa;cJ3CYTudwlAinMIWRZ7CvTakwmwyo8LZx57C++6bwg0inMIt5p7C8zqgwtIhosIeMaDCZkiiwiEO&#xD;&#xa;oMJYQ5zCSsmewjIRpMI66aHChFKhwj5do8IlTqTCrKalwrI4pcKuq6TCnWWowgIqqMKaTKbCJrOj&#xD;&#xa;wvMopMJStqLCGPKmwpcTqMJeXKnCnjiqwrkiqcJOpKnC4oOmwgtTpcLQX6jCWBulwp8LpcIBwqbC&#xD;&#xa;zI2lwme0osIX0KbCPHemwjB5pMKmSqjCfgGnwjd4p8JMu6vCtQOxwhDUr8LCR7HCzbWtwuA0qsJm&#xD;&#xa;HajCyiWpwgwIrsJf4a3CUjuvwoUWrcKOL6jCBFCpwuPoqsLJDazC1gapwrZUp8JBNKvCm2+pwsM1&#xD;&#xa;qMK0OafCmlinwuPOq8KS4azCelGswl3jrsJiQK/CaxOrwg7OqcIHH6nCFoWnwrAXqsKiHKrCsESr&#xD;&#xa;wirhqcLhlqvC5FKswnnNrMLMc67CR8uxwuMHtMLY9q/CDqWqwgL4rMKUl67CE/2vwvaqsMLr0K/C&#xD;&#xa;yS6xwkBpscKoNK3CVjquwqTVssJ8zbbC5SW1wiWmtMKFB7bCeF21wkpOtsIifbPCgfqywouetcLv&#xD;&#xa;3rnCLAq5wvX6u8Lu9LjCNE21whBiuMLeeLnCspy3wsq0tMJ8hrjCNsa0wg5vssIhALbCooO1wg65&#xD;&#xa;ssIjY7PCvEy2wma+ucKsz7nCKmK5wi52tcJFrrXCkxq2wvCTtcLCj7fC42y2wo4wtcJOP7PClKWx&#xD;&#xa;wrUEssLRl7LCF/W2wgBau8Kyg7vC4Ne3wlMsssI8o7TC4gi7wijqucLkU7/Cfkm7wugTtsJYw7XC&#xD;&#xa;Jt+5wlbzvsLuZLzC6ny5wgQ6usIvr73COPW8wmc5v8KUTMPCK/zAwiR4vcKyer3CTKW/wmKAwMKI&#xD;&#xa;IsXCF2jDwrdaxMIofcLCeyjDwgq6wcJYHMHC0FrDwmr8u8KhTbXCamC3wpS4u8J0ZsLCKwrHwsDU&#xD;&#xa;x8K6msbC8k7HwvInxsJwFL/CyiW+wouuxsIFlsPCSu7CwrjCwcJIocPCvkfGwnxywcJtNsXC2pDJ&#xD;&#xa;wkaJy8Je9MnCjpnNwpYD1MIEMtLC9ijYwred4sIeF9LCfhrPwtKG2MK9g9rCUn/ZwqrI1cKdINTC&#xD;&#xa;yZPYwi4G3MK4KNDCctza" leadInLength="0/1"  />
            </Keyframes>
           </Parameter>
           </Parameters>
           <MetaData>
            <entry key="effectIndex" val="0"/>
           </MetaData>
          </GenericEffect>
         </Effects>
         <Attributes>
          <Attribute id="2597" value="" name="ident"/>
          <Attribute id="2598" value="0" name="mixToMono"/>
         </Attributes>
         <MetaData>
          <entry key="WinSubProjectDisplayName" val=""/>
         </MetaData>
         <ExtraData>
          <Entry key="ZoomPanBin">
           <ZoomPanBin id="2599"  >
            <ZoomPanKeyframes>
             <ZoomPanKeyframe id="2600" timeRangeEnd="-9999999/1" timeRangeDuration="0/1" interpolaterName="linr"  />
             <ZoomPanKeyframe id="2601" timeRangeEnd="2091/1" timeRangeDuration="30/1" interpolaterName="linr"  />
            </ZoomPanKeyframes>
           </ZoomPanBin>
          </Entry>
          <Entry key="CursorEffectBin">
           <CursorEffectBin id="2602"  >
            <CursorEffectKeyframes>
            </CursorEffectKeyframes>
           </CursorEffectBin>
          </Entry>
         </ExtraData>
         <GenericTrack id="2603"  >
          <Attributes>
           <Attribute id="2604" value="" name="ident"/>
           <Attribute id="2605" value="0" name="audioMuted"/>
           <Attribute id="2606" value="0" name="videoHidden"/>
          </Attributes>
          <MetaData>
           <entry key="IsLocked" val="False"/>
           <entry key="WinTrackHeight" val="0"/>
          </MetaData>
          <Medias>
           <UnifiedMedia id="2607"  >
            <AMFile id="2608" start="0" duration="420" scalar="1/1" mediaStart="0/1" mediaDuration="420/1" trackNumber="2" src="4" channelNumber="0,1" >
             <Parameters>
              <InterpolatingParam id="2609" interp="linr"  time="0/1" value="1" leadInLength="0/1"  name="volume"/>
              <Parameter id="2610"  name="captions"/>
             </Parameters>
             <Attributes>
              <Attribute id="2611" value="" name="ident"/>
              <Attribute id="2612" value="44100" name="sampleRate"/>
              <Attribute id="2613" value="16" name="bitDepth"/>
              <Attribute id="2614" value="1" name="gain"/>
              <Attribute id="2615" value="0" name="mixToMono"/>
             </Attributes>
            </AMFile>
            <VMFile id="2616" start="0" duration="420" scalar="1/1" mediaStart="0/1" mediaDuration="420/1" trackNumber="1" src="4" >
             <Transformer>
              <VectorParam id="2617"  name="translation">
               <InterpolatingParam id="2618" interp="linr"  time="-9999999/1" value="0" leadInLength="0/1"  />
               <InterpolatingParam id="2619" interp="linr"  time="-9999999/1" value="0" leadInLength="0/1"  />
               <InterpolatingParam id="2620" interp="linr"  time="-9999999/1" value="0" leadInLength="0/1"  />
              </VectorParam>
              <VectorParam id="2621"  name="rotation">
               <InterpolatingParam id="2622" interp="linr"  time="-9999999/1" value="0" leadInLength="0/1"  />
               <InterpolatingParam id="2623" interp="linr"  time="-9999999/1" value="0" leadInLength="0/1"  />
               <InterpolatingParam id="2624" interp="linr"  time="-9999999/1" value="0" leadInLength="0/1"  />
              </VectorParam>
              <VectorParam id="2625"  name="shear">
               <InterpolatingParam id="2626" interp="linr"  time="-9999999/1" value="0" leadInLength="0/1"  />
               <InterpolatingParam id="2627" interp="linr"  time="-9999999/1" value="0" leadInLength="0/1"  />
               <InterpolatingParam id="2628" interp="linr"  time="-9999999/1" value="0" leadInLength="0/1"  />
              </VectorParam>
              <VectorParam id="2629"  name="scale">
               <InterpolatingParam id="2630" interp="linr"  time="-9999999/1" value="1" leadInLength="0/1"  />
               <InterpolatingParam id="2631" interp="linr"  time="-9999999/1" value="1" leadInLength="0/1"  />
               <InterpolatingParam id="2632" interp="linr"  time="-9999999/1" value="1" leadInLength="0/1"  />
              </VectorParam>
              <VectorParam id="2633"  name="anchor">
               <InterpolatingParam id="2634" interp="linr"  time="0/1" value="0" leadInLength="0/1"  />
               <InterpolatingParam id="2635" interp="linr"  time="0/1" value="0" leadInLength="0/1"  />
               <InterpolatingParam id="2636" interp="linr"  time="0/1" value="0" leadInLength="0/1"  />
              </VectorParam>
             </Transformer>
             <Parameters>
              <VectorParam id="2637"  name="sourceCrop">
               <InterpolatingParam id="2638" interp="linr"  time="0/1" value="0" leadInLength="0/1"  />
               <InterpolatingParam id="2639" interp="linr"  time="0/1" value="0" leadInLength="0/1"  />
               <InterpolatingParam id="2640" interp="linr"  time="0/1" value="0" leadInLength="0/1"  />
               <InterpolatingParam id="2641" interp="linr"  time="0/1" value="0" leadInLength="0/1"  />
              </VectorParam>
              <VectorParam id="2642"  name="geometryCrop">
               <InterpolatingParam id="2643" interp="linr"  time="-9999999/1" value="0" leadInLength="0/1"  />
               <InterpolatingParam id="2644" interp="linr"  time="-9999999/1" value="0" leadInLength="0/1"  />
               <InterpolatingParam id="2645" interp="linr"  time="-9999999/1" value="0" leadInLength="0/1"  />
               <InterpolatingParam id="2646" interp="linr"  time="-9999999/1" value="0" leadInLength="0/1"  />
              </VectorParam>
              <InterpolatingParam id="2647" interp="linr"  time="-9999999/1" value="1" leadInLength="0/1"  name="opacity"/>
             </Parameters>
             <Attributes>
              <Attribute id="2648" value="" name="ident"/>
             </Attributes>
             <ExtraData>
              <Entry key="ZoomPanBin">
               <ZoomPanBin id="2649"  >
                <ZoomPanKeyframes>
                 <ZoomPanKeyframe id="2650" timeRangeEnd="-9999999/1" timeRangeDuration="0/1" interpolaterName=""  />
                </ZoomPanKeyframes>
               </ZoomPanBin>
              </Entry>
             </ExtraData>
            </VMFile>
            <MetaData>
             <entry key="WinSubProjectDisplayName" val=""/>
            </MetaData>
           </UnifiedMedia>
           <UnifiedMedia id="2651"  >
            <AMFile id="2652" start="420" duration="268" scalar="1/1" mediaStart="472/1" mediaDuration="268/1" trackNumber="2" src="4" channelNumber="0,1" >
             <Parameters>
              <InterpolatingParam id="2653" interp="linr"  time="0/1" value="1" leadInLength="0/1"  name="volume"/>
              <Parameter id="2654"  name="captions"/>
             </Parameters>
             <Attributes>
              <Attribute id="2655" value="" name="ident"/>
              <Attribute id="2656" value="44100" name="sampleRate"/>
              <Attribute id="2657" value="16" name="bitDepth"/>
              <Attribute id="2658" value="1" name="gain"/>
              <Attribute id="2659" value="0" name="mixToMono"/>
             </Attributes>
            </AMFile>
            <VMFile id="2660" start="420" duration="268" scalar="1/1" mediaStart="472/1" mediaDuration="268/1" trackNumber="1" src="4" >
             <Transformer>
              <VectorParam id="2661"  name="translation">
               <InterpolatingParam id="2662" interp="linr"  time="-9999999/1" value="0" leadInLength="0/1"  />
               <InterpolatingParam id="2663" interp="linr"  time="-9999999/1" value="0" leadInLength="0/1"  />
               <InterpolatingParam id="2664" interp="linr"  time="-9999999/1" value="0" leadInLength="0/1"  />
              </VectorParam>
              <VectorParam id="2665"  name="rotation">
               <InterpolatingParam id="2666" interp="linr"  time="-9999999/1" value="0" leadInLength="0/1"  />
               <InterpolatingParam id="2667" interp="linr"  time="-9999999/1" value="0" leadInLength="0/1"  />
               <InterpolatingParam id="2668" interp="linr"  time="-9999999/1" value="0" leadInLength="0/1"  />
              </VectorParam>
              <VectorParam id="2669"  name="shear">
               <InterpolatingParam id="2670" interp="linr"  time="-9999999/1" value="0" leadInLength="0/1"  />
               <InterpolatingParam id="2671" interp="linr"  time="-9999999/1" value="0" leadInLength="0/1"  />
               <InterpolatingParam id="2672" interp="linr"  time="-9999999/1" value="0" leadInLength="0/1"  />
              </VectorParam>
              <VectorParam id="2673"  name="scale">
               <InterpolatingParam id="2674" interp="linr"  time="-9999999/1" value="1" leadInLength="0/1"  />
               <InterpolatingParam id="2675" interp="linr"  time="-9999999/1" value="1" leadInLength="0/1"  />
               <InterpolatingParam id="2676" interp="linr"  time="-9999999/1" value="1" leadInLength="0/1"  />
              </VectorParam>
              <VectorParam id="2677"  name="anchor">
               <InterpolatingParam id="2678" interp="linr"  time="0/1" value="0" leadInLength="0/1"  />
               <InterpolatingParam id="2679" interp="linr"  time="0/1" value="0" leadInLength="0/1"  />
               <InterpolatingParam id="2680" interp="linr"  time="0/1" value="0" leadInLength="0/1"  />
              </VectorParam>
             </Transformer>
             <Parameters>
              <VectorParam id="2681"  name="sourceCrop">
               <InterpolatingParam id="2682" interp="linr"  time="0/1" value="0" leadInLength="0/1"  />
               <InterpolatingParam id="2683" interp="linr"  time="0/1" value="0" leadInLength="0/1"  />
               <InterpolatingParam id="2684" interp="linr"  time="0/1" value="0" leadInLength="0/1"  />
               <InterpolatingParam id="2685" interp="linr"  time="0/1" value="0" leadInLength="0/1"  />
              </VectorParam>
              <VectorParam id="2686"  name="geometryCrop">
               <InterpolatingParam id="2687" interp="linr"  time="-9999999/1" value="0" leadInLength="0/1"  />
               <InterpolatingParam id="2688" interp="linr"  time="-9999999/1" value="0" leadInLength="0/1"  />
               <InterpolatingParam id="2689" interp="linr"  time="-9999999/1" value="0" leadInLength="0/1"  />
               <InterpolatingParam id="2690" interp="linr"  time="-9999999/1" value="0" leadInLength="0/1"  />
              </VectorParam>
              <InterpolatingParam id="2691" interp="linr"  time="-9999999/1" value="1" leadInLength="0/1"  name="opacity"/>
             </Parameters>
             <Attributes>
              <Attribute id="2692" value="" name="ident"/>
             </Attributes>
             <ExtraData>
              <Entry key="ZoomPanBin">
               <ZoomPanBin id="2693"  >
                <ZoomPanKeyframes>
                 <ZoomPanKeyframe id="2694" timeRangeEnd="-9999999/1" timeRangeDuration="0/1" interpolaterName=""  />
                </ZoomPanKeyframes>
               </ZoomPanBin>
              </Entry>
             </ExtraData>
            </VMFile>
            <MetaData>
             <entry key="WinSubProjectDisplayName" val=""/>
            </MetaData>
           </UnifiedMedia>
           <UnifiedMedia id="2695"  >
            <AMFile id="2696" start="688" duration="1386" scalar="1/1" mediaStart="1658/1" mediaDuration="1386/1" trackNumber="2" src="4" channelNumber="0,1" >
             <Parameters>
              <InterpolatingParam id="2697" interp="linr"  time="0/1" value="1" leadInLength="0/1"  name="volume"/>
              <Parameter id="2698"  name="captions"/>
             </Parameters>
             <Attributes>
              <Attribute id="2699" value="" name="ident"/>
              <Attribute id="2700" value="44100" name="sampleRate"/>
              <Attribute id="2701" value="16" name="bitDepth"/>
              <Attribute id="2702" value="1" name="gain"/>
              <Attribute id="2703" value="0" name="mixToMono"/>
             </Attributes>
            </AMFile>
            <VMFile id="2704" start="688" duration="1386" scalar="1/1" mediaStart="1658/1" mediaDuration="1386/1" trackNumber="1" src="4" >
             <Transformer>
              <VectorParam id="2705"  name="translation">
               <InterpolatingParam id="2706" interp="linr"  time="-9999999/1" value="0" leadInLength="0/1"  />
               <InterpolatingParam id="2707" interp="linr"  time="-9999999/1" value="0" leadInLength="0/1"  />
               <InterpolatingParam id="2708" interp="linr"  time="-9999999/1" value="0" leadInLength="0/1"  />
              </VectorParam>
              <VectorParam id="2709"  name="rotation">
               <InterpolatingParam id="2710" interp="linr"  time="-9999999/1" value="0" leadInLength="0/1"  />
               <InterpolatingParam id="2711" interp="linr"  time="-9999999/1" value="0" leadInLength="0/1"  />
               <InterpolatingParam id="2712" interp="linr"  time="-9999999/1" value="0" leadInLength="0/1"  />
              </VectorParam>
              <VectorParam id="2713"  name="shear">
               <InterpolatingParam id="2714" interp="linr"  time="-9999999/1" value="0" leadInLength="0/1"  />
               <InterpolatingParam id="2715" interp="linr"  time="-9999999/1" value="0" leadInLength="0/1"  />
               <InterpolatingParam id="2716" interp="linr"  time="-9999999/1" value="0" leadInLength="0/1"  />
              </VectorParam>
              <VectorParam id="2717"  name="scale">
               <InterpolatingParam id="2718" interp="linr"  time="-9999999/1" value="1" leadInLength="0/1"  />
               <InterpolatingParam id="2719" interp="linr"  time="-9999999/1" value="1" leadInLength="0/1"  />
               <InterpolatingParam id="2720" interp="linr"  time="-9999999/1" value="1" leadInLength="0/1"  />
              </VectorParam>
              <VectorParam id="2721"  name="anchor">
               <InterpolatingParam id="2722" interp="linr"  time="0/1" value="0" leadInLength="0/1"  />
               <InterpolatingParam id="2723" interp="linr"  time="0/1" value="0" leadInLength="0/1"  />
               <InterpolatingParam id="2724" interp="linr"  time="0/1" value="0" leadInLength="0/1"  />
              </VectorParam>
             </Transformer>
             <Parameters>
              <VectorParam id="2725"  name="sourceCrop">
               <InterpolatingParam id="2726" interp="linr"  time="0/1" value="0" leadInLength="0/1"  />
               <InterpolatingParam id="2727" interp="linr"  time="0/1" value="0" leadInLength="0/1"  />
               <InterpolatingParam id="2728" interp="linr"  time="0/1" value="0" leadInLength="0/1"  />
               <InterpolatingParam id="2729" interp="linr"  time="0/1" value="0" leadInLength="0/1"  />
              </VectorParam>
              <VectorParam id="2730"  name="geometryCrop">
               <InterpolatingParam id="2731" interp="linr"  time="-9999999/1" value="0" leadInLength="0/1"  />
               <InterpolatingParam id="2732" interp="linr"  time="-9999999/1" value="0" leadInLength="0/1"  />
               <InterpolatingParam id="2733" interp="linr"  time="-9999999/1" value="0" leadInLength="0/1"  />
               <InterpolatingParam id="2734" interp="linr"  time="-9999999/1" value="0" leadInLength="0/1"  />
              </VectorParam>
              <InterpolatingParam id="2735" interp="linr"  time="-9999999/1" value="1" leadInLength="0/1"  name="opacity"/>
             </Parameters>
             <Attributes>
              <Attribute id="2736" value="" name="ident"/>
             </Attributes>
             <ExtraData>
              <Entry key="ZoomPanBin">
               <ZoomPanBin id="2737"  >
                <ZoomPanKeyframes>
                 <ZoomPanKeyframe id="2738" timeRangeEnd="-9999999/1" timeRangeDuration="0/1" interpolaterName=""  />
                </ZoomPanKeyframes>
               </ZoomPanBin>
              </Entry>
             </ExtraData>
            </VMFile>
            <MetaData>
             <entry key="WinSubProjectDisplayName" val=""/>
            </MetaData>
           </UnifiedMedia>
           <UnifiedMedia id="2739"  >
            <AMFile id="2740" start="2074" duration="2037" scalar="1/1" mediaStart="3341/1" mediaDuration="2037/1" trackNumber="2" src="4" channelNumber="0,1" >
             <Parameters>
              <InterpolatingParam id="2741" interp="linr"  time="0/1" value="1" leadInLength="0/1"  name="volume"/>
              <Parameter id="2742"  name="captions"/>
             </Parameters>
             <Attributes>
              <Attribute id="2743" value="" name="ident"/>
              <Attribute id="2744" value="44100" name="sampleRate"/>
              <Attribute id="2745" value="16" name="bitDepth"/>
              <Attribute id="2746" value="1" name="gain"/>
              <Attribute id="2747" value="0" name="mixToMono"/>
             </Attributes>
            </AMFile>
            <VMFile id="2748" start="2074" duration="2037" scalar="1/1" mediaStart="3341/1" mediaDuration="2037/1" trackNumber="1" src="4" >
             <Transformer>
              <VectorParam id="2749"  name="translation">
               <InterpolatingParam id="2750" interp="linr"  time="-9999999/1" value="0" leadInLength="0/1"  />
               <InterpolatingParam id="2751" interp="linr"  time="-9999999/1" value="0" leadInLength="0/1"  />
               <InterpolatingParam id="2752" interp="linr"  time="-9999999/1" value="0" leadInLength="0/1"  />
              </VectorParam>
              <VectorParam id="2753"  name="rotation">
               <InterpolatingParam id="2754" interp="linr"  time="-9999999/1" value="0" leadInLength="0/1"  />
               <InterpolatingParam id="2755" interp="linr"  time="-9999999/1" value="0" leadInLength="0/1"  />
               <InterpolatingParam id="2756" interp="linr"  time="-9999999/1" value="0" leadInLength="0/1"  />
              </VectorParam>
              <VectorParam id="2757"  name="shear">
               <InterpolatingParam id="2758" interp="linr"  time="-9999999/1" value="0" leadInLength="0/1"  />
               <InterpolatingParam id="2759" interp="linr"  time="-9999999/1" value="0" leadInLength="0/1"  />
               <InterpolatingParam id="2760" interp="linr"  time="-9999999/1" value="0" leadInLength="0/1"  />
              </VectorParam>
              <VectorParam id="2761"  name="scale">
               <InterpolatingParam id="2762" interp="linr"  time="-9999999/1" value="1" leadInLength="0/1"  />
               <InterpolatingParam id="2763" interp="linr"  time="-9999999/1" value="1" leadInLength="0/1"  />
               <InterpolatingParam id="2764" interp="linr"  time="-9999999/1" value="1" leadInLength="0/1"  />
              </VectorParam>
              <VectorParam id="2765"  name="anchor">
               <InterpolatingParam id="2766" interp="linr"  time="0/1" value="0" leadInLength="0/1"  />
               <InterpolatingParam id="2767" interp="linr"  time="0/1" value="0" leadInLength="0/1"  />
               <InterpolatingParam id="2768" interp="linr"  time="0/1" value="0" leadInLength="0/1"  />
              </VectorParam>
             </Transformer>
             <Parameters>
              <VectorParam id="2769"  name="sourceCrop">
               <InterpolatingParam id="2770" interp="linr"  time="0/1" value="0" leadInLength="0/1"  />
               <InterpolatingParam id="2771" interp="linr"  time="0/1" value="0" leadInLength="0/1"  />
               <InterpolatingParam id="2772" interp="linr"  time="0/1" value="0" leadInLength="0/1"  />
               <InterpolatingParam id="2773" interp="linr"  time="0/1" value="0" leadInLength="0/1"  />
              </VectorParam>
              <VectorParam id="2774"  name="geometryCrop">
               <InterpolatingParam id="2775" interp="linr"  time="-9999999/1" value="0" leadInLength="0/1"  />
               <InterpolatingParam id="2776" interp="linr"  time="-9999999/1" value="0" leadInLength="0/1"  />
               <InterpolatingParam id="2777" interp="linr"  time="-9999999/1" value="0" leadInLength="0/1"  />
               <InterpolatingParam id="2778" interp="linr"  time="-9999999/1" value="0" leadInLength="0/1"  />
              </VectorParam>
              <InterpolatingParam id="2779" interp="linr"  time="-9999999/1" value="1" leadInLength="0/1"  name="opacity"/>
             </Parameters>
             <Attributes>
              <Attribute id="2780" value="" name="ident"/>
             </Attributes>
             <ExtraData>
              <Entry key="ZoomPanBin">
               <ZoomPanBin id="2781"  >
                <ZoomPanKeyframes>
                 <ZoomPanKeyframe id="2782" timeRangeEnd="-9999999/1" timeRangeDuration="0/1" interpolaterName=""  />
                </ZoomPanKeyframes>
               </ZoomPanBin>
              </Entry>
             </ExtraData>
            </VMFile>
            <MetaData>
             <entry key="WinSubProjectDisplayName" val=""/>
            </MetaData>
           </UnifiedMedia>
           <UnifiedMedia id="2783"  >
            <AMFile id="2784" start="4111" duration="24" scalar="1/1" mediaStart="5402/1" mediaDuration="24/1" trackNumber="2" src="4" channelNumber="0,1" >
             <Parameters>
              <InterpolatingParam id="2785" interp="linr"  time="0/1" value="1" leadInLength="0/1"  name="volume"/>
              <Parameter id="2786"  name="captions"/>
             </Parameters>
             <Attributes>
              <Attribute id="2787" value="" name="ident"/>
              <Attribute id="2788" value="44100" name="sampleRate"/>
              <Attribute id="2789" value="16" name="bitDepth"/>
              <Attribute id="2790" value="1" name="gain"/>
              <Attribute id="2791" value="0" name="mixToMono"/>
             </Attributes>
            </AMFile>
            <VMFile id="2792" start="4111" duration="24" scalar="1/1" mediaStart="5402/1" mediaDuration="24/1" trackNumber="1" src="4" >
             <Transformer>
              <VectorParam id="2793"  name="translation">
               <InterpolatingParam id="2794" interp="linr"  time="-9999999/1" value="0" leadInLength="0/1"  />
               <InterpolatingParam id="2795" interp="linr"  time="-9999999/1" value="0" leadInLength="0/1"  />
               <InterpolatingParam id="2796" interp="linr"  time="-9999999/1" value="0" leadInLength="0/1"  />
              </VectorParam>
              <VectorParam id="2797"  name="rotation">
               <InterpolatingParam id="2798" interp="linr"  time="-9999999/1" value="0" leadInLength="0/1"  />
               <InterpolatingParam id="2799" interp="linr"  time="-9999999/1" value="0" leadInLength="0/1"  />
               <InterpolatingParam id="2800" interp="linr"  time="-9999999/1" value="0" leadInLength="0/1"  />
              </VectorParam>
              <VectorParam id="2801"  name="shear">
               <InterpolatingParam id="2802" interp="linr"  time="-9999999/1" value="0" leadInLength="0/1"  />
               <InterpolatingParam id="2803" interp="linr"  time="-9999999/1" value="0" leadInLength="0/1"  />
               <InterpolatingParam id="2804" interp="linr"  time="-9999999/1" value="0" leadInLength="0/1"  />
              </VectorParam>
              <VectorParam id="2805"  name="scale">
               <InterpolatingParam id="2806" interp="linr"  time="-9999999/1" value="1" leadInLength="0/1"  />
               <InterpolatingParam id="2807" interp="linr"  time="-9999999/1" value="1" leadInLength="0/1"  />
               <InterpolatingParam id="2808" interp="linr"  time="-9999999/1" value="1" leadInLength="0/1"  />
              </VectorParam>
              <VectorParam id="2809"  name="anchor">
               <InterpolatingParam id="2810" interp="linr"  time="0/1" value="0" leadInLength="0/1"  />
               <InterpolatingParam id="2811" interp="linr"  time="0/1" value="0" leadInLength="0/1"  />
               <InterpolatingParam id="2812" interp="linr"  time="0/1" value="0" leadInLength="0/1"  />
              </VectorParam>
             </Transformer>
             <Parameters>
              <VectorParam id="2813"  name="sourceCrop">
               <InterpolatingParam id="2814" interp="linr"  time="0/1" value="0" leadInLength="0/1"  />
               <InterpolatingParam id="2815" interp="linr"  time="0/1" value="0" leadInLength="0/1"  />
               <InterpolatingParam id="2816" interp="linr"  time="0/1" value="0" leadInLength="0/1"  />
               <InterpolatingParam id="2817" interp="linr"  time="0/1" value="0" leadInLength="0/1"  />
              </VectorParam>
              <VectorParam id="2818"  name="geometryCrop">
               <InterpolatingParam id="2819" interp="linr"  time="-9999999/1" value="0" leadInLength="0/1"  />
               <InterpolatingParam id="2820" interp="linr"  time="-9999999/1" value="0" leadInLength="0/1"  />
               <InterpolatingParam id="2821" interp="linr"  time="-9999999/1" value="0" leadInLength="0/1"  />
               <InterpolatingParam id="2822" interp="linr"  time="-9999999/1" value="0" leadInLength="0/1"  />
              </VectorParam>
              <InterpolatingParam id="2823" interp="linr"  time="-9999999/1" value="1" leadInLength="0/1"  name="opacity"/>
             </Parameters>
             <Attributes>
              <Attribute id="2824" value="" name="ident"/>
             </Attributes>
             <ExtraData>
              <Entry key="ZoomPanBin">
               <ZoomPanBin id="2825"  >
                <ZoomPanKeyframes>
                 <ZoomPanKeyframe id="2826" timeRangeEnd="-9999999/1" timeRangeDuration="0/1" interpolaterName=""  />
                </ZoomPanKeyframes>
               </ZoomPanBin>
              </Entry>
             </ExtraData>
            </VMFile>
            <MetaData>
             <entry key="WinSubProjectDisplayName" val=""/>
            </MetaData>
           </UnifiedMedia>
           <UnifiedMedia id="2827"  >
            <AMFile id="2828" start="4135" duration="275" scalar="1/1" mediaStart="5460/1" mediaDuration="275/1" trackNumber="2" src="4" channelNumber="0,1" >
             <Parameters>
              <InterpolatingParam id="2829" interp="linr"  time="0/1" value="1" leadInLength="0/1"  name="volume"/>
              <Parameter id="2830"  name="captions"/>
             </Parameters>
             <Attributes>
              <Attribute id="2831" value="" name="ident"/>
              <Attribute id="2832" value="44100" name="sampleRate"/>
              <Attribute id="2833" value="16" name="bitDepth"/>
              <Attribute id="2834" value="1" name="gain"/>
              <Attribute id="2835" value="0" name="mixToMono"/>
             </Attributes>
            </AMFile>
            <VMFile id="2836" start="4135" duration="275" scalar="1/1" mediaStart="5460/1" mediaDuration="275/1" trackNumber="1" src="4" >
             <Transformer>
              <VectorParam id="2837"  name="translation">
               <InterpolatingParam id="2838" interp="linr"  time="-9999999/1" value="0" leadInLength="0/1"  />
               <InterpolatingParam id="2839" interp="linr"  time="-9999999/1" value="0" leadInLength="0/1"  />
               <InterpolatingParam id="2840" interp="linr"  time="-9999999/1" value="0" leadInLength="0/1"  />
              </VectorParam>
              <VectorParam id="2841"  name="rotation">
               <InterpolatingParam id="2842" interp="linr"  time="-9999999/1" value="0" leadInLength="0/1"  />
               <InterpolatingParam id="2843" interp="linr"  time="-9999999/1" value="0" leadInLength="0/1"  />
               <InterpolatingParam id="2844" interp="linr"  time="-9999999/1" value="0" leadInLength="0/1"  />
              </VectorParam>
              <VectorParam id="2845"  name="shear">
               <InterpolatingParam id="2846" interp="linr"  time="-9999999/1" value="0" leadInLength="0/1"  />
               <InterpolatingParam id="2847" interp="linr"  time="-9999999/1" value="0" leadInLength="0/1"  />
               <InterpolatingParam id="2848" interp="linr"  time="-9999999/1" value="0" leadInLength="0/1"  />
              </VectorParam>
              <VectorParam id="2849"  name="scale">
               <InterpolatingParam id="2850" interp="linr"  time="-9999999/1" value="1" leadInLength="0/1"  />
               <InterpolatingParam id="2851" interp="linr"  time="-9999999/1" value="1" leadInLength="0/1"  />
               <InterpolatingParam id="2852" interp="linr"  time="-9999999/1" value="1" leadInLength="0/1"  />
              </VectorParam>
              <VectorParam id="2853"  name="anchor">
               <InterpolatingParam id="2854" interp="linr"  time="0/1" value="0" leadInLength="0/1"  />
               <InterpolatingParam id="2855" interp="linr"  time="0/1" value="0" leadInLength="0/1"  />
               <InterpolatingParam id="2856" interp="linr"  time="0/1" value="0" leadInLength="0/1"  />
              </VectorParam>
             </Transformer>
             <Parameters>
              <VectorParam id="2857"  name="sourceCrop">
               <InterpolatingParam id="2858" interp="linr"  time="0/1" value="0" leadInLength="0/1"  />
               <InterpolatingParam id="2859" interp="linr"  time="0/1" value="0" leadInLength="0/1"  />
               <InterpolatingParam id="2860" interp="linr"  time="0/1" value="0" leadInLength="0/1"  />
               <InterpolatingParam id="2861" interp="linr"  time="0/1" value="0" leadInLength="0/1"  />
              </VectorParam>
              <VectorParam id="2862"  name="geometryCrop">
               <InterpolatingParam id="2863" interp="linr"  time="-9999999/1" value="0" leadInLength="0/1"  />
               <InterpolatingParam id="2864" interp="linr"  time="-9999999/1" value="0" leadInLength="0/1"  />
               <InterpolatingParam id="2865" interp="linr"  time="-9999999/1" value="0" leadInLength="0/1"  />
               <InterpolatingParam id="2866" interp="linr"  time="-9999999/1" value="0" leadInLength="0/1"  />
              </VectorParam>
              <InterpolatingParam id="2867" interp="linr"  time="-9999999/1" value="1" leadInLength="0/1"  name="opacity"/>
             </Parameters>
             <Attributes>
              <Attribute id="2868" value="" name="ident"/>
             </Attributes>
             <ExtraData>
              <Entry key="ZoomPanBin">
               <ZoomPanBin id="2869"  >
                <ZoomPanKeyframes>
                 <ZoomPanKeyframe id="2870" timeRangeEnd="-9999999/1" timeRangeDuration="0/1" interpolaterName=""  />
                </ZoomPanKeyframes>
               </ZoomPanBin>
              </Entry>
             </ExtraData>
            </VMFile>
            <MetaData>
             <entry key="WinSubProjectDisplayName" val=""/>
            </MetaData>
           </UnifiedMedia>
           <UnifiedMedia id="2871"  >
            <AMFile id="2872" start="4410" duration="414" scalar="1/1" mediaStart="5909/1" mediaDuration="414/1" trackNumber="2" src="4" channelNumber="0,1" >
             <Parameters>
              <InterpolatingParam id="2873" interp="linr"  time="0/1" value="1" leadInLength="0/1"  name="volume"/>
              <Parameter id="2874"  name="captions"/>
             </Parameters>
             <Attributes>
              <Attribute id="2875" value="" name="ident"/>
              <Attribute id="2876" value="44100" name="sampleRate"/>
              <Attribute id="2877" value="16" name="bitDepth"/>
              <Attribute id="2878" value="1" name="gain"/>
              <Attribute id="2879" value="0" name="mixToMono"/>
             </Attributes>
            </AMFile>
            <VMFile id="2880" start="4410" duration="414" scalar="1/1" mediaStart="5909/1" mediaDuration="414/1" trackNumber="1" src="4" >
             <Transformer>
              <VectorParam id="2881"  name="translation">
               <InterpolatingParam id="2882" interp="linr"  time="-9999999/1" value="0" leadInLength="0/1"  />
               <InterpolatingParam id="2883" interp="linr"  time="-9999999/1" value="0" leadInLength="0/1"  />
               <InterpolatingParam id="2884" interp="linr"  time="-9999999/1" value="0" leadInLength="0/1"  />
              </VectorParam>
              <VectorParam id="2885"  name="rotation">
               <InterpolatingParam id="2886" interp="linr"  time="-9999999/1" value="0" leadInLength="0/1"  />
               <InterpolatingParam id="2887" interp="linr"  time="-9999999/1" value="0" leadInLength="0/1"  />
               <InterpolatingParam id="2888" interp="linr"  time="-9999999/1" value="0" leadInLength="0/1"  />
              </VectorParam>
              <VectorParam id="2889"  name="shear">
               <InterpolatingParam id="2890" interp="linr"  time="-9999999/1" value="0" leadInLength="0/1"  />
               <InterpolatingParam id="2891" interp="linr"  time="-9999999/1" value="0" leadInLength="0/1"  />
               <InterpolatingParam id="2892" interp="linr"  time="-9999999/1" value="0" leadInLength="0/1"  />
              </VectorParam>
              <VectorParam id="2893"  name="scale">
               <InterpolatingParam id="2894" interp="linr"  time="-9999999/1" value="1" leadInLength="0/1"  />
               <InterpolatingParam id="2895" interp="linr"  time="-9999999/1" value="1" leadInLength="0/1"  />
               <InterpolatingParam id="2896" interp="linr"  time="-9999999/1" value="1" leadInLength="0/1"  />
              </VectorParam>
              <VectorParam id="2897"  name="anchor">
               <InterpolatingParam id="2898" interp="linr"  time="0/1" value="0" leadInLength="0/1"  />
               <InterpolatingParam id="2899" interp="linr"  time="0/1" value="0" leadInLength="0/1"  />
               <InterpolatingParam id="2900" interp="linr"  time="0/1" value="0" leadInLength="0/1"  />
              </VectorParam>
             </Transformer>
             <Parameters>
              <VectorParam id="2901"  name="sourceCrop">
               <InterpolatingParam id="2902" interp="linr"  time="0/1" value="0" leadInLength="0/1"  />
               <InterpolatingParam id="2903" interp="linr"  time="0/1" value="0" leadInLength="0/1"  />
               <InterpolatingParam id="2904" interp="linr"  time="0/1" value="0" leadInLength="0/1"  />
               <InterpolatingParam id="2905" interp="linr"  time="0/1" value="0" leadInLength="0/1"  />
              </VectorParam>
              <VectorParam id="2906"  name="geometryCrop">
               <InterpolatingParam id="2907" interp="linr"  time="-9999999/1" value="0" leadInLength="0/1"  />
               <InterpolatingParam id="2908" interp="linr"  time="-9999999/1" value="0" leadInLength="0/1"  />
               <InterpolatingParam id="2909" interp="linr"  time="-9999999/1" value="0" leadInLength="0/1"  />
               <InterpolatingParam id="2910" interp="linr"  time="-9999999/1" value="0" leadInLength="0/1"  />
              </VectorParam>
              <InterpolatingParam id="2911" interp="linr"  time="-9999999/1" value="1" leadInLength="0/1"  name="opacity"/>
             </Parameters>
             <Attributes>
              <Attribute id="2912" value="" name="ident"/>
             </Attributes>
             <ExtraData>
              <Entry key="ZoomPanBin">
               <ZoomPanBin id="2913"  >
                <ZoomPanKeyframes>
                 <ZoomPanKeyframe id="2914" timeRangeEnd="-9999999/1" timeRangeDuration="0/1" interpolaterName=""  />
                </ZoomPanKeyframes>
               </ZoomPanBin>
              </Entry>
             </ExtraData>
            </VMFile>
            <MetaData>
             <entry key="WinSubProjectDisplayName" val=""/>
            </MetaData>
           </UnifiedMedia>
           <UnifiedMedia id="2915"  >
            <AMFile id="2916" start="4824" duration="2488" scalar="1/1" mediaStart="6341/1" mediaDuration="2488/1" trackNumber="2" src="4" channelNumber="0,1" >
             <Parameters>
              <InterpolatingParam id="2917" interp="linr"  time="0/1" value="1" leadInLength="0/1"  name="volume"/>
              <Parameter id="2918"  name="captions"/>
             </Parameters>
             <Attributes>
              <Attribute id="2919" value="" name="ident"/>
              <Attribute id="2920" value="44100" name="sampleRate"/>
              <Attribute id="2921" value="16" name="bitDepth"/>
              <Attribute id="2922" value="1" name="gain"/>
              <Attribute id="2923" value="0" name="mixToMono"/>
             </Attributes>
            </AMFile>
            <VMFile id="2924" start="4824" duration="2488" scalar="1/1" mediaStart="6341/1" mediaDuration="2488/1" trackNumber="1" src="4" >
             <Transformer>
              <VectorParam id="2925"  name="translation">
               <InterpolatingParam id="2926" interp="linr"  time="-9999999/1" value="0" leadInLength="0/1"  />
               <InterpolatingParam id="2927" interp="linr"  time="-9999999/1" value="0" leadInLength="0/1"  />
               <InterpolatingParam id="2928" interp="linr"  time="-9999999/1" value="0" leadInLength="0/1"  />
              </VectorParam>
              <VectorParam id="2929"  name="rotation">
               <InterpolatingParam id="2930" interp="linr"  time="-9999999/1" value="0" leadInLength="0/1"  />
               <InterpolatingParam id="2931" interp="linr"  time="-9999999/1" value="0" leadInLength="0/1"  />
               <InterpolatingParam id="2932" interp="linr"  time="-9999999/1" value="0" leadInLength="0/1"  />
              </VectorParam>
              <VectorParam id="2933"  name="shear">
               <InterpolatingParam id="2934" interp="linr"  time="-9999999/1" value="0" leadInLength="0/1"  />
               <InterpolatingParam id="2935" interp="linr"  time="-9999999/1" value="0" leadInLength="0/1"  />
               <InterpolatingParam id="2936" interp="linr"  time="-9999999/1" value="0" leadInLength="0/1"  />
              </VectorParam>
              <VectorParam id="2937"  name="scale">
               <InterpolatingParam id="2938" interp="linr"  time="-9999999/1" value="1" leadInLength="0/1"  />
               <InterpolatingParam id="2939" interp="linr"  time="-9999999/1" value="1" leadInLength="0/1"  />
               <InterpolatingParam id="2940" interp="linr"  time="-9999999/1" value="1" leadInLength="0/1"  />
              </VectorParam>
              <VectorParam id="2941"  name="anchor">
               <InterpolatingParam id="2942" interp="linr"  time="0/1" value="0" leadInLength="0/1"  />
               <InterpolatingParam id="2943" interp="linr"  time="0/1" value="0" leadInLength="0/1"  />
               <InterpolatingParam id="2944" interp="linr"  time="0/1" value="0" leadInLength="0/1"  />
              </VectorParam>
             </Transformer>
             <Parameters>
              <VectorParam id="2945"  name="sourceCrop">
               <InterpolatingParam id="2946" interp="linr"  time="0/1" value="0" leadInLength="0/1"  />
               <InterpolatingParam id="2947" interp="linr"  time="0/1" value="0" leadInLength="0/1"  />
               <InterpolatingParam id="2948" interp="linr"  time="0/1" value="0" leadInLength="0/1"  />
               <InterpolatingParam id="2949" interp="linr"  time="0/1" value="0" leadInLength="0/1"  />
              </VectorParam>
              <VectorParam id="2950"  name="geometryCrop">
               <InterpolatingParam id="2951" interp="linr"  time="-9999999/1" value="0" leadInLength="0/1"  />
               <InterpolatingParam id="2952" interp="linr"  time="-9999999/1" value="0" leadInLength="0/1"  />
               <InterpolatingParam id="2953" interp="linr"  time="-9999999/1" value="0" leadInLength="0/1"  />
               <InterpolatingParam id="2954" interp="linr"  time="-9999999/1" value="0" leadInLength="0/1"  />
              </VectorParam>
              <InterpolatingParam id="2955" interp="linr"  time="-9999999/1" value="1" leadInLength="0/1"  name="opacity"/>
             </Parameters>
             <Attributes>
              <Attribute id="2956" value="" name="ident"/>
             </Attributes>
             <ExtraData>
              <Entry key="ZoomPanBin">
               <ZoomPanBin id="2957"  >
                <ZoomPanKeyframes>
                 <ZoomPanKeyframe id="2958" timeRangeEnd="-9999999/1" timeRangeDuration="0/1" interpolaterName=""  />
                </ZoomPanKeyframes>
               </ZoomPanBin>
              </Entry>
             </ExtraData>
            </VMFile>
            <MetaData>
             <entry key="WinSubProjectDisplayName" val=""/>
            </MetaData>
           </UnifiedMedia>
           <UnifiedMedia id="2959"  >
            <AMFile id="2960" start="7312" duration="307" scalar="1/1" mediaStart="8894/1" mediaDuration="307/1" trackNumber="2" src="4" channelNumber="0,1" >
             <Parameters>
              <InterpolatingParam id="2961" interp="linr"  time="0/1" value="1" leadInLength="0/1"  name="volume"/>
              <Parameter id="2962"  name="captions"/>
             </Parameters>
             <Attributes>
              <Attribute id="2963" value="" name="ident"/>
              <Attribute id="2964" value="44100" name="sampleRate"/>
              <Attribute id="2965" value="16" name="bitDepth"/>
              <Attribute id="2966" value="1" name="gain"/>
              <Attribute id="2967" value="0" name="mixToMono"/>
             </Attributes>
            </AMFile>
            <VMFile id="2968" start="7312" duration="307" scalar="1/1" mediaStart="8894/1" mediaDuration="307/1" trackNumber="1" src="4" >
             <Transformer>
              <VectorParam id="2969"  name="translation">
               <InterpolatingParam id="2970" interp="linr"  time="-9999999/1" value="0" leadInLength="0/1"  />
               <InterpolatingParam id="2971" interp="linr"  time="-9999999/1" value="0" leadInLength="0/1"  />
               <InterpolatingParam id="2972" interp="linr"  time="-9999999/1" value="0" leadInLength="0/1"  />
              </VectorParam>
              <VectorParam id="2973"  name="rotation">
               <InterpolatingParam id="2974" interp="linr"  time="-9999999/1" value="0" leadInLength="0/1"  />
               <InterpolatingParam id="2975" interp="linr"  time="-9999999/1" value="0" leadInLength="0/1"  />
               <InterpolatingParam id="2976" interp="linr"  time="-9999999/1" value="0" leadInLength="0/1"  />
              </VectorParam>
              <VectorParam id="2977"  name="shear">
               <InterpolatingParam id="2978" interp="linr"  time="-9999999/1" value="0" leadInLength="0/1"  />
               <InterpolatingParam id="2979" interp="linr"  time="-9999999/1" value="0" leadInLength="0/1"  />
               <InterpolatingParam id="2980" interp="linr"  time="-9999999/1" value="0" leadInLength="0/1"  />
              </VectorParam>
              <VectorParam id="2981"  name="scale">
               <InterpolatingParam id="2982" interp="linr"  time="-9999999/1" value="1" leadInLength="0/1"  />
               <InterpolatingParam id="2983" interp="linr"  time="-9999999/1" value="1" leadInLength="0/1"  />
               <InterpolatingParam id="2984" interp="linr"  time="-9999999/1" value="1" leadInLength="0/1"  />
              </VectorParam>
              <VectorParam id="2985"  name="anchor">
               <InterpolatingParam id="2986" interp="linr"  time="0/1" value="0" leadInLength="0/1"  />
               <InterpolatingParam id="2987" interp="linr"  time="0/1" value="0" leadInLength="0/1"  />
               <InterpolatingParam id="2988" interp="linr"  time="0/1" value="0" leadInLength="0/1"  />
              </VectorParam>
             </Transformer>
             <Parameters>
              <VectorParam id="2989"  name="sourceCrop">
               <InterpolatingParam id="2990" interp="linr"  time="0/1" value="0" leadInLength="0/1"  />
               <InterpolatingParam id="2991" interp="linr"  time="0/1" value="0" leadInLength="0/1"  />
               <InterpolatingParam id="2992" interp="linr"  time="0/1" value="0" leadInLength="0/1"  />
               <InterpolatingParam id="2993" interp="linr"  time="0/1" value="0" leadInLength="0/1"  />
              </VectorParam>
              <VectorParam id="2994"  name="geometryCrop">
               <InterpolatingParam id="2995" interp="linr"  time="-9999999/1" value="0" leadInLength="0/1"  />
               <InterpolatingParam id="2996" interp="linr"  time="-9999999/1" value="0" leadInLength="0/1"  />
               <InterpolatingParam id="2997" interp="linr"  time="-9999999/1" value="0" leadInLength="0/1"  />
               <InterpolatingParam id="2998" interp="linr"  time="-9999999/1" value="0" leadInLength="0/1"  />
              </VectorParam>
              <InterpolatingParam id="2999" interp="linr"  time="-9999999/1" value="1" leadInLength="0/1"  name="opacity"/>
             </Parameters>
             <Attributes>
              <Attribute id="3000" value="" name="ident"/>
             </Attributes>
             <ExtraData>
              <Entry key="ZoomPanBin">
               <ZoomPanBin id="3001"  >
                <ZoomPanKeyframes>
                 <ZoomPanKeyframe id="3002" timeRangeEnd="-9999999/1" timeRangeDuration="0/1" interpolaterName=""  />
                </ZoomPanKeyframes>
               </ZoomPanBin>
              </Entry>
             </ExtraData>
            </VMFile>
            <MetaData>
             <entry key="WinSubProjectDisplayName" val=""/>
            </MetaData>
           </UnifiedMedia>
           <UnifiedMedia id="3003"  >
            <AMFile id="3004" start="7619" duration="5356" scalar="1/1" mediaStart="9487/1" mediaDuration="5356/1" trackNumber="2" src="4" channelNumber="0,1" >
             <Parameters>
              <InterpolatingParam id="3005" interp="linr"  time="0/1" value="1" leadInLength="0/1"  name="volume"/>
              <Parameter id="3006"  name="captions"/>
             </Parameters>
             <Attributes>
              <Attribute id="3007" value="" name="ident"/>
              <Attribute id="3008" value="44100" name="sampleRate"/>
              <Attribute id="3009" value="16" name="bitDepth"/>
              <Attribute id="3010" value="1" name="gain"/>
              <Attribute id="3011" value="0" name="mixToMono"/>
             </Attributes>
            </AMFile>
            <VMFile id="3012" start="7619" duration="5356" scalar="1/1" mediaStart="9487/1" mediaDuration="5356/1" trackNumber="1" src="4" >
             <Transformer>
              <VectorParam id="3013"  name="translation">
               <InterpolatingParam id="3014" interp="linr"  time="-9999999/1" value="0" leadInLength="0/1"  />
               <InterpolatingParam id="3015" interp="linr"  time="-9999999/1" value="0" leadInLength="0/1"  />
               <InterpolatingParam id="3016" interp="linr"  time="-9999999/1" value="0" leadInLength="0/1"  />
              </VectorParam>
              <VectorParam id="3017"  name="rotation">
               <InterpolatingParam id="3018" interp="linr"  time="-9999999/1" value="0" leadInLength="0/1"  />
               <InterpolatingParam id="3019" interp="linr"  time="-9999999/1" value="0" leadInLength="0/1"  />
               <InterpolatingParam id="3020" interp="linr"  time="-9999999/1" value="0" leadInLength="0/1"  />
              </VectorParam>
              <VectorParam id="3021"  name="shear">
               <InterpolatingParam id="3022" interp="linr"  time="-9999999/1" value="0" leadInLength="0/1"  />
               <InterpolatingParam id="3023" interp="linr"  time="-9999999/1" value="0" leadInLength="0/1"  />
               <InterpolatingParam id="3024" interp="linr"  time="-9999999/1" value="0" leadInLength="0/1"  />
              </VectorParam>
              <VectorParam id="3025"  name="scale">
               <InterpolatingParam id="3026" interp="linr"  time="-9999999/1" value="1" leadInLength="0/1"  />
               <InterpolatingParam id="3027" interp="linr"  time="-9999999/1" value="1" leadInLength="0/1"  />
               <InterpolatingParam id="3028" interp="linr"  time="-9999999/1" value="1" leadInLength="0/1"  />
              </VectorParam>
              <VectorParam id="3029"  name="anchor">
               <InterpolatingParam id="3030" interp="linr"  time="0/1" value="0" leadInLength="0/1"  />
               <InterpolatingParam id="3031" interp="linr"  time="0/1" value="0" leadInLength="0/1"  />
               <InterpolatingParam id="3032" interp="linr"  time="0/1" value="0" leadInLength="0/1"  />
              </VectorParam>
             </Transformer>
             <Parameters>
              <VectorParam id="3033"  name="sourceCrop">
               <InterpolatingParam id="3034" interp="linr"  time="0/1" value="0" leadInLength="0/1"  />
               <InterpolatingParam id="3035" interp="linr"  time="0/1" value="0" leadInLength="0/1"  />
               <InterpolatingParam id="3036" interp="linr"  time="0/1" value="0" leadInLength="0/1"  />
               <InterpolatingParam id="3037" interp="linr"  time="0/1" value="0" leadInLength="0/1"  />
              </VectorParam>
              <VectorParam id="3038"  name="geometryCrop">
               <InterpolatingParam id="3039" interp="linr"  time="-9999999/1" value="0" leadInLength="0/1"  />
               <InterpolatingParam id="3040" interp="linr"  time="-9999999/1" value="0" leadInLength="0/1"  />
               <InterpolatingParam id="3041" interp="linr"  time="-9999999/1" value="0" leadInLength="0/1"  />
               <InterpolatingParam id="3042" interp="linr"  time="-9999999/1" value="0" leadInLength="0/1"  />
              </VectorParam>
              <InterpolatingParam id="3043" interp="linr"  time="-9999999/1" value="1" leadInLength="0/1"  name="opacity"/>
             </Parameters>
             <Attributes>
              <Attribute id="3044" value="" name="ident"/>
             </Attributes>
             <ExtraData>
              <Entry key="ZoomPanBin">
               <ZoomPanBin id="3045"  >
                <ZoomPanKeyframes>
                 <ZoomPanKeyframe id="3046" timeRangeEnd="-9999999/1" timeRangeDuration="0/1" interpolaterName=""  />
                </ZoomPanKeyframes>
               </ZoomPanBin>
              </Entry>
             </ExtraData>
            </VMFile>
            <MetaData>
             <entry key="WinSubProjectDisplayName" val=""/>
            </MetaData>
           </UnifiedMedia>
          </Medias>
         </GenericTrack>
        </StitchedMedia>
       </Medias>
      </GenericTrack>
      <GenericTrack id="3047"  >
       <Attributes>
        <Attribute id="3048" value="" name="ident"/>
        <Attribute id="3049" value="0" name="audioMuted"/>
        <Attribute id="3050" value="0" name="videoHidden"/>
       </Attributes>
       <MetaData>
        <entry key="IsLocked" val="False"/>
        <entry key="WinTrackHeight" val="62"/>
       </MetaData>
       <Medias>
        <Callout id="3051" start="1837" duration="150" scalar="1/1" mediaStart="0/1" mediaDuration="150/1" >
         <Transformer>
          <VectorParam id="3052"  name="translation">
           <InterpolatingParam id="3053" interp="linr"  time="0/1" value="0" leadInLength="0/1"  />
           <InterpolatingParam id="3054" interp="linr"  time="0/1" value="0" leadInLength="0/1"  />
           <InterpolatingParam id="3055" interp="linr"  time="0/1" value="0" leadInLength="0/1"  />
          </VectorParam>
          <VectorParam id="3056"  name="rotation">
           <InterpolatingParam id="3057" interp="linr"  time="0/1" value="0" leadInLength="0/1"  />
           <InterpolatingParam id="3058" interp="linr"  time="0/1" value="0" leadInLength="0/1"  />
           <InterpolatingParam id="3059" interp="linr"  time="0/1" value="0" leadInLength="0/1"  />
          </VectorParam>
          <VectorParam id="3060"  name="shear">
           <InterpolatingParam id="3061" interp="linr"  time="0/1" value="0" leadInLength="0/1"  />
           <InterpolatingParam id="3062" interp="linr"  time="0/1" value="0" leadInLength="0/1"  />
           <InterpolatingParam id="3063" interp="linr"  time="0/1" value="0" leadInLength="0/1"  />
          </VectorParam>
          <VectorParam id="3064"  name="scale">
           <InterpolatingParam id="3065" interp="linr"  time="0/1" value="1" leadInLength="0/1"  />
           <InterpolatingParam id="3066" interp="linr"  time="0/1" value="1" leadInLength="0/1"  />
           <InterpolatingParam id="3067" interp="linr"  time="0/1" value="1" leadInLength="0/1"  />
          </VectorParam>
          <VectorParam id="3068"  name="anchor">
           <InterpolatingParam id="3069" interp="linr"  time="0/1" value="0" leadInLength="0/1"  />
           <InterpolatingParam id="3070" interp="linr"  time="0/1" value="0" leadInLength="0/1"  />
           <InterpolatingParam id="3071" interp="linr"  time="0/1" value="0" leadInLength="0/1"  />
          </VectorParam>
         </Transformer>
         <Parameters>
          <VectorParam id="3072"  name="sourceCrop">
           <InterpolatingParam id="3073" interp="linr"  time="0/1" value="0" leadInLength="0/1"  />
           <InterpolatingParam id="3074" interp="linr"  time="0/1" value="0" leadInLength="0/1"  />
           <InterpolatingParam id="3075" interp="linr"  time="0/1" value="0" leadInLength="0/1"  />
           <InterpolatingParam id="3076" interp="linr"  time="0/1" value="0" leadInLength="0/1"  />
          </VectorParam>
          <VectorParam id="3077"  name="geometryCrop">
           <InterpolatingParam id="3078" interp="linr"  time="0/1" value="0" leadInLength="0/1"  />
           <InterpolatingParam id="3079" interp="linr"  time="0/1" value="0" leadInLength="0/1"  />
           <InterpolatingParam id="3080" interp="linr"  time="0/1" value="0" leadInLength="0/1"  />
           <InterpolatingParam id="3081" interp="linr"  time="0/1" value="0" leadInLength="0/1"  />
          </VectorParam>
          <InterpolatingParam id="3082" interp="linr"  time="0/1" value="1" leadInLength="0/1"  name="opacity"/>
         </Parameters>
         <Attributes>
          <Attribute id="3083"  name="vectorNode">
           <VectorNode id="3084" kind="TypeWinSimple"  >
            <DoubleParameters>
             <InterpolatingParam id="3085" interp="linr"  time="0/1" value="-1" leadInLength="0/1"  name="CutoutPercentage"/>
             <InterpolatingParam id="3086" interp="linr"  time="0/1" value="-1" leadInLength="0/1"  name="RoundedRectRadius"/>
             <InterpolatingParam id="3087" interp="linr"  time="0/1" value="4" leadInLength="0/1"  name="Style"/>
             <InterpolatingParam id="3088" interp="linr"  time="0/1" value="155" leadInLength="0/1"  name="borderColorBlue"/>
             <InterpolatingParam id="3089" interp="linr"  time="0/1" value="133" leadInLength="0/1"  name="borderColorGreen"/>
             <InterpolatingParam id="3090" interp="linr"  time="0/1" value="49" leadInLength="0/1"  name="borderColorRed"/>
             <InterpolatingParam id="3091" interp="linr"  time="0/1" value="0" leadInLength="0/1"  name="borderState"/>
             <InterpolatingParam id="3092" interp="linr"  time="0/1" value="3" leadInLength="0/1"  name="borderWidth"/>
             <InterpolatingParam id="3093" interp="linr"  time="0/1" value="0" leadInLength="0/1"  name="dimensionTime"/>
             <InterpolatingParam id="3094" interp="linr"  time="0/1" value="155" leadInLength="0/1"  name="fillColorBlue"/>
             <InterpolatingParam id="3095" interp="linr"  time="0/1" value="133" leadInLength="0/1"  name="fillColorGreen"/>
             <InterpolatingParam id="3096" interp="linr"  time="0/1" value="49" leadInLength="0/1"  name="fillColorRed"/>
             <InterpolatingParam id="3097" interp="linr"  time="0/1" value="1" leadInLength="0/1"  name="fillState"/>
             <InterpolatingParam id="3098" interp="linr"  time="0/1" value="0" leadInLength="0/1"  name="flipOnXAxis"/>
             <InterpolatingParam id="3099" interp="linr"  time="0/1" value="0" leadInLength="0/1"  name="flipOnYAxis"/>
             <InterpolatingParam id="3100" interp="linr"  time="0/1" value="254.50151057401814" leadInLength="0/1"  name="height"/>
             <InterpolatingParam id="3101" interp="linr"  time="0/1" value="0" leadInLength="0/1"  name="textDropShadow"/>
             <InterpolatingParam id="3102" interp="linr"  time="0/1" value="0" leadInLength="0/1"  name="textIgnoresOpacity"/>
             <InterpolatingParam id="3103" interp="linr"  time="0/1" value="0.875" leadInLength="0/1"  name="textRectHeight"/>
             <InterpolatingParam id="3104" interp="linr"  time="0/1" value="0.90936555891238668" leadInLength="0/1"  name="textRectWidth"/>
             <InterpolatingParam id="3105" interp="linr"  time="0/1" value="0.045317220543806644" leadInLength="0/1"  name="textRectX"/>
             <InterpolatingParam id="3106" interp="linr"  time="0/1" value="0.0625" leadInLength="0/1"  name="textRectY"/>
             <InterpolatingParam id="3107" interp="linr"  time="0/1" value="0" leadInLength="0/1"  name="textVerticalAlign"/>
             <InterpolatingParam id="3108" interp="linr"  time="0/1" value="351" leadInLength="0/1"  name="width"/>
            </DoubleParameters>
            <StringParameters>
             <Parameter id="3109"  name="VectorPath">
              <Keyframes>
              <Keyframe id="3110"  time="0/1" value="M0,0h331v240H0V0z" leadInLength="0/1"  />
              </Keyframes>
             </Parameter>
             <Parameter id="3111"  name="filename">
              <Keyframes>
              <Keyframe id="3112"  time="0/1" value="D:\Media\Studio\Callouts\rectanglewithtext.xml" leadInLength="0/1"  />
              </Keyframes>
             </Parameter>
             <Parameter id="3113"  name="name">
              <Keyframes>
              <Keyframe id="3114"  time="0/1" value="Simple Rectangle" leadInLength="0/1"  />
              </Keyframes>
             </Parameter>
             <Parameter id="3115"  name="text">
              <Keyframes>
              <Keyframe id="3116"  time="0/1" value="{\rtf1\ansi\ansicpg1252\deff0\deflang1033{\fonttbl{\f0\fswiss\fprq2\fcharset0 Arial;}}&#xD;&#xa;{\colortbl ;\red255\green255\blue255;}&#xD;&#xa;\viewkind4\uc1\pard\qc\cf1\f0\fs32  A0 -- &gt; LDR\par&#xD;&#xa;LDR ---&gt; Resistor\par&#xD;&#xa;Resistor ---&gt; GND\par&#xD;&#xa;3v --&gt; voltage dividing point\par&#xD;&#xa;Refer lecture on LDR&apos;s if required\par&#xD;&#xa;}&#xD;&#xa;" leadInLength="0/1"  />
              </Keyframes>
             </Parameter>
             <Parameter id="3117"  name="xmlContent">
              <Keyframes>
              <Keyframe id="3118"  time="0/1" value="﻿&lt;?xml version=&quot;1.0&quot;?&gt;&#xa;&#xa;&lt;Overlay version=&quot;1.0.1&quot;&gt;&#xa;&#xa;&lt;Overlay_Filename&gt;rectanglewithtext.png&lt;/Overlay_Filename&gt;&#xa;&lt;Overlay_Name&gt;Simple Rectangle&lt;/Overlay_Name&gt;&#xa;&lt;Text_Top&gt;15&lt;/Text_Top&gt;&#xa;&lt;Text_Left&gt;15&lt;/Text_Left&gt;&#xa;&lt;Text_Bottom&gt;15&lt;/Text_Bottom&gt;&#xa;&lt;Text_Right&gt;15&lt;/Text_Right&gt;&#xa;&lt;Fill_Color&gt;1&lt;/Fill_Color&gt;&#xa;&lt;Border_Color&gt;1&lt;/Border_Color&gt;&#xa;&lt;Initial_Fill_Color&gt;0xff9b8531&lt;/Initial_Fill_Color&gt;&#xa;&lt;Initial_Border_Color&gt;0xff9b8531&lt;/Initial_Border_Color&gt;&#xa;&lt;VectorProps&gt;&#xa;&lt;figure&gt;&#xa;&lt;svg&gt;M0,0h331v240H0V0z&lt;/svg&gt;&#xa;&lt;/figure&gt;&#xa;&lt;seamY&gt;-1&lt;/seamY&gt;&#xa;&lt;shapeWidth&gt;331&lt;/shapeWidth&gt;&#xa;&lt;shapeHeight&gt;240&lt;/shapeHeight&gt;&#xa;&lt;/VectorProps&gt;&#xa;&lt;Style&gt;4&lt;/Style&gt;&#xa;&lt;UseDefaultSpec&gt;1&lt;/UseDefaultSpec&gt;   &#xa;&lt;/Overlay&gt;" leadInLength="0/1"  />
              </Keyframes>
             </Parameter>
            </StringParameters>
           </VectorNode>
          </Attribute>
         </Attributes>
         <MetaData>
          <entry key="WinSubProjectDisplayName" val=""/>
         </MetaData>
         <LeftEdgeMods length="0/1" groupName="OpacityFade">
          <EdgeMod parameter="3082">
           <FadeInFunc id="3119"  />
          </EdgeMod>
         </LeftEdgeMods>
         <RightEdgeMods length="0/1" groupName="OpacityFade">
          <EdgeMod parameter="3082">
           <FadeOutFunc id="3120"  />
          </EdgeMod>
         </RightEdgeMods>
         <ExtraData>
          <Entry key="ZoomPanBin">
           <ZoomPanBin id="3121"  >
            <ZoomPanKeyframes>
            </ZoomPanKeyframes>
           </ZoomPanBin>
          </Entry>
         </ExtraData>
        </Callout>
        <Callout id="3122" start="5415" duration="210" scalar="1/1" mediaStart="0/1" mediaDuration="210/1" >
         <Transformer>
          <VectorParam id="3123"  name="translation">
           <InterpolatingParam id="3124" interp="linr"  time="-9999999/1" value="49.814410480421856" leadInLength="0/1"  />
           <InterpolatingParam id="3125" interp="linr"  time="-9999999/1" value="-63.609170305622591" leadInLength="0/1"  />
           <InterpolatingParam id="3126" interp="linr"  time="-9999999/1" value="0" leadInLength="0/1"  />
          </VectorParam>
          <VectorParam id="3127"  name="rotation">
           <InterpolatingParam id="3128" interp="linr"  time="-9999999/1" value="0" leadInLength="0/1"  />
           <InterpolatingParam id="3129" interp="linr"  time="-9999999/1" value="0" leadInLength="0/1"  />
           <InterpolatingParam id="3130" interp="linr"  time="-9999999/1" value="-0.27515218738417246" leadInLength="0/1"  />
          </VectorParam>
          <VectorParam id="3131"  name="shear">
           <InterpolatingParam id="3132" interp="linr"  time="-9999999/1" value="0" leadInLength="0/1"  />
           <InterpolatingParam id="3133" interp="linr"  time="-9999999/1" value="0" leadInLength="0/1"  />
           <InterpolatingParam id="3134" interp="linr"  time="-9999999/1" value="0" leadInLength="0/1"  />
          </VectorParam>
          <VectorParam id="3135"  name="scale">
           <InterpolatingParam id="3136" interp="linr"  time="-9999999/1" value="1.3340236131347722" leadInLength="0/1"  />
           <InterpolatingParam id="3137" interp="linr"  time="-9999999/1" value="1" leadInLength="0/1"  />
           <InterpolatingParam id="3138" interp="linr"  time="-9999999/1" value="1" leadInLength="0/1"  />
          </VectorParam>
          <VectorParam id="3139"  name="anchor">
           <InterpolatingParam id="3140" interp="linr"  time="0/1" value="0" leadInLength="0/1"  />
           <InterpolatingParam id="3141" interp="linr"  time="0/1" value="0" leadInLength="0/1"  />
           <InterpolatingParam id="3142" interp="linr"  time="0/1" value="0" leadInLength="0/1"  />
          </VectorParam>
         </Transformer>
         <Parameters>
          <VectorParam id="3143"  name="sourceCrop">
           <InterpolatingParam id="3144" interp="linr"  time="0/1" value="0" leadInLength="0/1"  />
           <InterpolatingParam id="3145" interp="linr"  time="0/1" value="0" leadInLength="0/1"  />
           <InterpolatingParam id="3146" interp="linr"  time="0/1" value="0" leadInLength="0/1"  />
           <InterpolatingParam id="3147" interp="linr"  time="0/1" value="0" leadInLength="0/1"  />
          </VectorParam>
          <VectorParam id="3148"  name="geometryCrop">
           <InterpolatingParam id="3149" interp="linr"  time="-9999999/1" value="0" leadInLength="0/1"  />
           <InterpolatingParam id="3150" interp="linr"  time="-9999999/1" value="0" leadInLength="0/1"  />
           <InterpolatingParam id="3151" interp="linr"  time="-9999999/1" value="0" leadInLength="0/1"  />
           <InterpolatingParam id="3152" interp="linr"  time="-9999999/1" value="0" leadInLength="0/1"  />
          </VectorParam>
          <InterpolatingParam id="3153" interp="linr"  time="-9999999/1" value="1" leadInLength="0/1"  name="opacity"/>
         </Parameters>
         <Effects>
          <GenericEffect id="3154" name = "DropShadow" >
           <Parameters>
           <InterpolatingParam id="3155" interp="linr"  time="0/1" value="315" leadInLength="0/1"   name="angle"/>
           <InterpolatingParam id="3156" interp="linr"  time="0/1" value="2" leadInLength="0/1"   name="blur"/>
           <Parameter id="3157"   name="enabled">
            <Keyframes>
            <Keyframe id="3158"  time="0/1" value="1" leadInLength="0/1"  />
            </Keyframes>
           </Parameter>
           <InterpolatingParam id="3159" interp="linr"  time="0/1" value="4" leadInLength="0/1"   name="offset"/>
           <InterpolatingParam id="3160" interp="linr"  time="0/1" value="0.75" leadInLength="0/1"   name="opacity"/>
           </Parameters>
          </GenericEffect>
         </Effects>
         <Attributes>
          <Attribute id="3161"  name="vectorNode">
           <VectorNode id="3162" kind="TypeWinLine"  >
            <DoubleParameters>
             <InterpolatingParam id="3163" interp="linr"  time="0/1" value="255" leadInLength="0/1"  name="borderColorBlue"/>
             <InterpolatingParam id="3164" interp="linr"  time="0/1" value="255" leadInLength="0/1"  name="borderColorGreen"/>
             <InterpolatingParam id="3165" interp="linr"  time="0/1" value="255" leadInLength="0/1"  name="borderColorRed"/>
             <InterpolatingParam id="3166" interp="linr"  time="0/1" value="5" leadInLength="0/1"  name="borderWidth"/>
             <InterpolatingParam id="3167" interp="linr"  time="0/1" value="1" leadInLength="0/1"  name="endCapStyle"/>
             <InterpolatingParam id="3168" interp="linr"  time="0/1" value="20" leadInLength="0/1"  name="height"/>
             <InterpolatingParam id="3169" interp="linr"  time="0/1" value="2" leadInLength="0/1"  name="startCapStyle"/>
             <InterpolatingParam id="3170" interp="linr"  time="0/1" value="351" leadInLength="0/1"  name="width"/>
            </DoubleParameters>
            <StringParameters>
             <Parameter id="3171"  name="filename">
              <Keyframes>
              <Keyframe id="3172"  time="0/1" value="D:\Media\Studio\Callouts\line 2.xml" leadInLength="0/1"  />
              </Keyframes>
             </Parameter>
             <Parameter id="3173"  name="name">
              <Keyframes>
              <Keyframe id="3174"  time="0/1" value="Line" leadInLength="0/1"  />
              </Keyframes>
             </Parameter>
             <Parameter id="3175"  name="xmlContent">
              <Keyframes>
              <Keyframe id="3176"  time="0/1" value="﻿&lt;?xml version=&quot;1.0&quot;?&gt;&#xa;&#xa;&lt;Overlay version=&quot;1.0.1&quot;&gt;&#xa;&#xa;&lt;Overlay_Filename&gt;line 2.png&lt;/Overlay_Filename&gt;&#xa;&lt;Overlay_Name&gt;Line&lt;/Overlay_Name&gt;&#xa;&lt;Text_Top&gt;0&lt;/Text_Top&gt;&#xa;&lt;Text_Left&gt;0&lt;/Text_Left&gt;&#xa;&lt;Text_Bottom&gt;0&lt;/Text_Bottom&gt;&#xa;&lt;Text_Right&gt;0&lt;/Text_Right&gt;&#xa;&lt;Style&gt;5&lt;/Style&gt;&#xa;&lt;Initial_Fill_Color&gt;0xffd8a57c&lt;/Initial_Fill_Color&gt;&#xa;&lt;Initial_Border_Color&gt;0xff017b34&lt;/Initial_Border_Color&gt;&#xa;&lt;StartCap&gt;2&lt;/StartCap&gt;&#xa;&lt;EndCap&gt;1&lt;/EndCap&gt;&#xa;&lt;UseDefaultSpec&gt;1&lt;/UseDefaultSpec&gt;&#xa;&lt;/Overlay&gt;" leadInLength="0/1"  />
              </Keyframes>
             </Parameter>
            </StringParameters>
           </VectorNode>
          </Attribute>
         </Attributes>
         <MetaData>
          <entry key="WinSubProjectDisplayName" val=""/>
         </MetaData>
         <LeftEdgeMods length="30/1" groupName="OpacityFade">
          <EdgeMod parameter="3153">
           <FadeInFunc id="3119"  />
          </EdgeMod>
         </LeftEdgeMods>
         <RightEdgeMods length="30/1" groupName="OpacityFade">
          <EdgeMod parameter="3153">
           <FadeOutFunc id="3120"  />
          </EdgeMod>
         </RightEdgeMods>
         <ExtraData>
          <Entry key="ZoomPanBin">
           <ZoomPanBin id="3177"  >
            <ZoomPanKeyframes>
             <ZoomPanKeyframe id="3178" timeRangeEnd="-9999999/1" timeRangeDuration="0/1" interpolaterName="linr"  />
            </ZoomPanKeyframes>
           </ZoomPanBin>
          </Entry>
         </ExtraData>
        </Callout>
       </Medias>
      </GenericTrack>
      <GenericTrack id="3179"  >
       <Attributes>
        <Attribute id="3180" value="" name="ident"/>
        <Attribute id="3181" value="0" name="audioMuted"/>
        <Attribute id="3182" value="0" name="videoHidden"/>
       </Attributes>
       <MetaData>
        <entry key="IsLocked" val="False"/>
        <entry key="WinTrackHeight" val="62"/>
       </MetaData>
       <Medias>
       </Medias>
      </GenericTrack>
      <GenericTrack id="3183"  >
       <Attributes>
        <Attribute id="3184" value="" name="ident"/>
        <Attribute id="3185" value="0" name="audioMuted"/>
        <Attribute id="3186" value="0" name="videoHidden"/>
       </Attributes>
       <MetaData>
        <entry key="IsLocked" val="False"/>
        <entry key="WinTrackHeight" val="62"/>
       </MetaData>
       <Medias>
       </Medias>
      </GenericTrack>
     </Tracks>
    </GenericMixer>
   <CaptionAttributes id="3187"  >
    <Attribute id="3188" value="1" name="captionsEnabled"/>
    <Attribute id="3189" value="Arial" name="captionsFontName"/>
    <Attribute id="3190" value="28" name="captionsFontSize"/>
    <Attribute id="3191" value="(0,0,0,255)" name="captionsBackgroundColor"/>
    <Attribute id="3192" value="(255,255,255,255)" name="captionsForegroundColor"/>
    <Attribute id="3193" value="en" name="lang"/>
    <Attribute id="3194" value="0" name="captionsAlignment"/>
    <Attribute id="3195" value="1" name="captionsDefaultFontSize"/>
    <Attribute id="3196" value="0.5" name="captionsOpacity"/>
    <Attribute id="3197" value="1" name="captionsBackgroundEnabled"/>
    <Attribute id="3198" value="1" name="captionsBackgroundOnlyAroundText"/>
   </CaptionAttributes>
   <Parameters>
    <VectorParam id="3199"  name="eyePosition">
     <InterpolatingParam id="3200" interp="linr"  time="0/1" value="0" leadInLength="0/1"  />
     <InterpolatingParam id="3201" interp="linr"  time="0/1" value="0" leadInLength="0/1"  />
     <InterpolatingParam id="3202" interp="linr"  time="0/1" value="3000" leadInLength="0/1"  />
    </VectorParam>
    <VectorParam id="3203"  name="eyeLookAtPosition">
     <InterpolatingParam id="3204" interp="linr"  time="0/1" value="0" leadInLength="0/1"  />
     <InterpolatingParam id="3205" interp="linr"  time="0/1" value="0" leadInLength="0/1"  />
     <InterpolatingParam id="3206" interp="linr"  time="0/1" value="0" leadInLength="0/1"  />
    </VectorParam>
    <VectorParam id="3207"  name="eyeUpVector">
     <InterpolatingParam id="3208" interp="linr"  time="0/1" value="0" leadInLength="0/1"  />
     <InterpolatingParam id="3209" interp="linr"  time="0/1" value="1" leadInLength="0/1"  />
     <InterpolatingParam id="3210" interp="linr"  time="0/1" value="0" leadInLength="0/1"  />
    </VectorParam>
    <InterpolatingParam id="3211" interp="linr"  time="0/1" value="0.23885785" leadInLength="0/1"  name="fov"/>
    <InterpolatingParam id="3212" interp="linr"  time="0/1" value="1.5" leadInLength="0/1"  name="nearClipDistance"/>
    <InterpolatingParam id="3213" interp="linr"  time="0/1" value="6000" leadInLength="0/1"  name="farClipDistance"/>
   </Parameters>
  </Timeline>
 </Project>
</GoProject>
</CSMLData>

</Project_Data>
