<?xml version="1.0"?>
<Project_Data Version="8.00">
<Project_Settings>
<ProfileName></ProfileName>
<ProjectWidth>960</ProjectWidth>
<ProjectHeight>720</ProjectHeight>
<IsCustomProject>1</IsCustomProject>
<SavedProjectSettings>1</SavedProjectSettings>
<LastFlashTemplate>-1</LastFlashTemplate>
</Project_Settings>


<AutoSaveFile>C:\Users\Junaid\AppData\Local\TechSmith\Camtasia Studio\8.0\Auto-Saves\P1 1e49946d.autosave.camproj</AutoSaveFile>

<ProjectID>53B8529F-779C-443A-AD4A-2366C5F3ECCD</ProjectID>

<PowerPointProject>0</PowerPointProject>

<PowerPointFilename></PowerPointFilename>


<Project_Notes>
</Project_Notes>

<Project_MetaData>
<Project_MetaData_Object>
<FieldArrayKey>8</FieldArrayKey>
<Value>P1 1</Value>
</Project_MetaData_Object>
<Project_MetaData_Object>
<FieldArrayKey>13</FieldArrayKey>
<Value>2016-01-26 08:44:31 AM</Value>
</Project_MetaData_Object>
<Project_MetaData_Object>
<FieldArrayKey>16</FieldArrayKey>
<Value>ENU</Value>
</Project_MetaData_Object>
</Project_MetaData>

<CSMLData>
<GoProject id="1" version="3.0" >
 <Project id="2" editRate="30/1" version="3.0" >
  <Author></Author>
  <Comment></Comment>
  <System></System>
  <SourceBin id="3"  >
    <Source id="4" src="C:\Users\Junaid\Desktop\IOT RECO\p1.1.trec" lastMod="20160126T033327" rect="(0,0,1024,768)" >
      <SourceTrack range="(0,8972)" type="0" editRate="30/1" trackRect="(0,0,1024,768)" sampleRate="0/1" bitDepth="0" numChannels="0" filename="p1.1.trec!Strack0.tsc2" metaData="p1.1.trec;" />
      <SourceTrack range="(0,8969000)" type="0" editRate="30000/1" trackRect="(0,0,640,480)" sampleRate="0/1" bitDepth="0" numChannels="0" filename="p1.1.trec!Cvideo1.mp4" metaData="" />
      <SourceTrack range="(0,13181952)" type="2" editRate="44100/1" trackRect="(0,0,0,0)" sampleRate="44100/1" bitDepth="16" numChannels="2" filename="p1.1.trec!Maudio2.mp4" metaData="" />
    </Source>
    <Source id="5" src="C:\Users\Junaid\Desktop\IOT RECO\p11.2.trec" lastMod="20160126T034347" rect="(0,0,1024,768)" >
      <SourceTrack range="(0,2739)" type="0" editRate="30/1" trackRect="(0,0,1024,768)" sampleRate="0/1" bitDepth="0" numChannels="0" filename="p11.2.trec!Strack0.tsc2" metaData="p11.2.trec;" />
      <SourceTrack range="(0,2734000)" type="0" editRate="30000/1" trackRect="(0,0,640,480)" sampleRate="0/1" bitDepth="0" numChannels="0" filename="p11.2.trec!Cvideo1.mp4" metaData="" />
      <SourceTrack range="(0,4021248)" type="2" editRate="44100/1" trackRect="(0,0,0,0)" sampleRate="44100/1" bitDepth="16" numChannels="2" filename="p11.2.trec!Maudio2.mp4" metaData="" />
    </Source>
    <Source id="6" src="C:\Users\Junaid\Desktop\IOT RECO\p1hardware.trec" lastMod="20160126T043333" rect="(0,0,1024,768)" >
      <SourceTrack range="(0,2851)" type="0" editRate="30/1" trackRect="(0,0,1024,768)" sampleRate="0/1" bitDepth="0" numChannels="0" filename="p1hardware.trec!Strack0.tsc2" metaData="p1hardware.trec;" />
      <SourceTrack range="(0,2849000)" type="0" editRate="30000/1" trackRect="(0,0,640,480)" sampleRate="0/1" bitDepth="0" numChannels="0" filename="p1hardware.trec!Cvideo1.mp4" metaData="" />
      <SourceTrack range="(0,4183040)" type="2" editRate="44100/1" trackRect="(0,0,0,0)" sampleRate="44100/1" bitDepth="16" numChannels="2" filename="p1hardware.trec!Maudio2.mp4" metaData="" />
    </Source>
  </SourceBin>
  <Timeline id="7"  >
   <Attributes>
    <Attribute id="8" value="960" name="width"/>
    <Attribute id="9" value="720" name="height"/>
    <Attribute id="10" value="(0,0,0,255)" name="backgroundColor"/>
   </Attributes>
    <GenericMixer id="11"  name="Unified Mixer">
     <MetaData>
      <entry key="MixerType" val="TimelineMixer"/>
     </MetaData>
     <Tracks>
      <GenericTrack id="12"  >
       <Attributes>
        <Attribute id="13" value="" name="ident"/>
        <Attribute id="14" value="0" name="audioMuted"/>
        <Attribute id="15" value="0" name="videoHidden"/>
       </Attributes>
       <MetaData>
        <entry key="IsLocked" val="False"/>
        <entry key="WinTrackHeight" val="62"/>
       </MetaData>
       <Medias>
        <StitchedMedia id="16" start="0" duration="3166" scalar="1/1" mediaStart="12/1" mediaDuration="3166/1" minMediaStart="0/1" >
         <Transformer>
          <VectorParam id="17"  name="translation">
           <InterpolatingParam id="18" interp="linr"  time="-9999999/1" value="400.00000000003809" leadInLength="0/1"  interpolater="leadin-linr"  />
           <InterpolatingParam id="19" interp="linr"  time="-9999999/1" value="-299.99999999999091" leadInLength="0/1"  interpolater="leadin-linr"  />
           <InterpolatingParam id="20" interp="linr"  time="-9999999/1" value="0" leadInLength="0/1"  interpolater="leadin-linr"  />
          </VectorParam>
          <VectorParam id="21"  name="rotation">
           <InterpolatingParam id="22" interp="linr"  time="-9999999/1" value="0" leadInLength="0/1"  interpolater="leadin-linr"  />
           <InterpolatingParam id="23" interp="linr"  time="-9999999/1" value="0" leadInLength="0/1"  interpolater="leadin-linr"  />
           <InterpolatingParam id="24" interp="linr"  time="-9999999/1" value="0" leadInLength="0/1"  interpolater="leadin-linr"  />
          </VectorParam>
          <VectorParam id="25"  name="shear">
           <InterpolatingParam id="26" interp="linr"  time="-9999999/1" value="0" leadInLength="0/1"  interpolater="leadin-linr"  />
           <InterpolatingParam id="27" interp="linr"  time="-9999999/1" value="0" leadInLength="0/1"  interpolater="leadin-linr"  />
           <InterpolatingParam id="28" interp="linr"  time="-9999999/1" value="0" leadInLength="0/1"  interpolater="leadin-linr"  />
          </VectorParam>
          <VectorParam id="29"  name="scale">
           <InterpolatingParam id="30" interp="linr"  time="-9999999/1" value="0.25" leadInLength="0/1"  interpolater="leadin-linr"  />
           <InterpolatingParam id="31" interp="linr"  time="-9999999/1" value="0.25" leadInLength="0/1"  interpolater="leadin-linr"  />
           <InterpolatingParam id="32" interp="linr"  time="-9999999/1" value="1" leadInLength="0/1"  interpolater="leadin-linr"  />
          </VectorParam>
          <VectorParam id="33"  name="anchor">
           <InterpolatingParam id="34" interp="linr"  time="0/1" value="0" leadInLength="0/1"  />
           <InterpolatingParam id="35" interp="linr"  time="0/1" value="0" leadInLength="0/1"  />
           <InterpolatingParam id="36" interp="linr"  time="0/1" value="0" leadInLength="0/1"  />
          </VectorParam>
         </Transformer>
         <Parameters>
          <VectorParam id="37"  name="sourceCrop">
           <InterpolatingParam id="38" interp="linr"  time="0/1" value="0" leadInLength="0/1"  />
           <InterpolatingParam id="39" interp="linr"  time="0/1" value="0" leadInLength="0/1"  />
           <InterpolatingParam id="40" interp="linr"  time="0/1" value="0" leadInLength="0/1"  />
           <InterpolatingParam id="41" interp="linr"  time="0/1" value="0" leadInLength="0/1"  />
          </VectorParam>
          <VectorParam id="42"  name="geometryCrop">
           <InterpolatingParam id="43" interp="linr"  time="-9999999/1" value="0" leadInLength="0/1"  interpolater="leadin-linr"  />
           <InterpolatingParam id="44" interp="linr"  time="-9999999/1" value="0" leadInLength="0/1"  interpolater="leadin-linr"  />
           <InterpolatingParam id="45" interp="linr"  time="-9999999/1" value="0" leadInLength="0/1"  interpolater="leadin-linr"  />
           <InterpolatingParam id="46" interp="linr"  time="-9999999/1" value="0" leadInLength="0/1"  interpolater="leadin-linr"  />
          </VectorParam>
          <InterpolatingParam id="47" interp="linr"  time="-9999999/1" value="1" leadInLength="0/1"  interpolater="leadin-linr"  name="opacity"/>
          <InterpolatingParam id="48" interp="linr"  time="0/1" value="1" leadInLength="0/1"  name="cursorOpacity"/>
          <InterpolatingParam id="49" interp="linr"  time="0/1" value="1" leadInLength="0/1"  name="cursorScale"/>
          <InterpolatingParam id="50" interp="linr"  time="0/1" value="1" leadInLength="0/1"  name="volume"/>
          <Parameter id="51"  name="captions"/>
         </Parameters>
         <Effects>
          <GenericEffect id="52" name = "NoiseReduction" >
           <Parameters>
           <InterpolatingParam id="53" interp="linr"  time="0/1" value="27.599999999999998" leadInLength="0/1"   name="denoiserAmount"/>
           <InterpolatingParam id="54" interp="linr"  time="0/1" value="2.2799999999999994" leadInLength="0/1"   name="denoiserThreshold"/>
           <Parameter id="55"   name="noiseProfile">
            <Keyframes>
            <Keyframe id="56"  time="0/1" value="FBAAAAIAAABErAAAAQIAAOR0EsKnCQfCAo4qwkjoQMKxV1HCuvNNwjj+TsJ2dFHCnRdfwq79XsKY&#xD;&#xa;NV/C62JkwgEAbsIOcHLCV2F0wpy6eMKZH3nCnLR1wqCPccIQsnbCD9d/wniiesIkwG/CgvFxwrJ8&#xD;&#xa;esKFFH3CqGGBwk0Lg8Liyn/CAGWBwvKGhsJK5YbCyaiFwtpHh8Le34rCwF6LwiWoisKlB4jCELGH&#xD;&#xa;wmgnisIIgYzCGnuKwsKRi8JnQI3C/oWOwtqVkMLnrJDCvpORwnHYj8KmtJLCTD2Vwit6lsIcrZfC&#xD;&#xa;MzmawlUXmsKEDZrCHGidwstCn8KH9J7CIVKdwndFnsI3Dp3CL1eYwgBNm8L4iqDC/i6hwoI6ocKd&#xD;&#xa;saXCA3mjwhAxn8JGNJ7CQuGhwoiRo8J/t6TCZcOjwtczosLRDKHCJYSfwho8oMI2oqHCu4Cjwky1&#xD;&#xa;o8Ke5aDCBligwhvcosLN8qHC/rmgwsa+ocJdKKPCAqOjwpJXpMIy+KTCZE2gwkuumsIJj57Cy9qh&#xD;&#xa;wo6gpcILvKPCp4yhwsIRosKfF6PCZiuowguVp8KmoqbCkjClwgE/pMIPiqTCXYCkwlRcpMJIi6bC&#xD;&#xa;5PemwtIEqMLQPqjC3u6owsU/q8KOv6jCoFKiwrLZpsKkh6vCrOStwtoBrcI+GKvC+C2owrxrqcIy&#xD;&#xa;1afCkb6rwlxWsMJKaLLCZx6vwvanq8LKB6vCQNarwmC+q8IopKvCrpeuwg9er8IaF67CBH+rwnrk&#xD;&#xa;q8J6vajCOpmqwnR9r8LOMK/C6oaqwjRfqsJoU63CIq+rwrkVqcKvuavCsICswtwWrsKoxK7CRY2u&#xD;&#xa;wqysrsIOFa7CX0itwshUq8K92qvCQiauwh70r8I+Oq3CgXuswiTircKf9qzCcMeuwvM0rMKvl6zC&#xD;&#xa;0zuvwoDorsJ7Fq/CMferwpElq8JfHKzCLbatwk7Yq8LTPazC8BOwwuTEsMLCsq7CvZutwoDorMI0&#xD;&#xa;Va3Cn8+vwhYnscKg767CulmvwpJWsMJmcLHCGHCxwv3Pr8IAS7HC6G6vwvY/sMJfj7PCqieywio/&#xD;&#xa;r8J8363CGQSuwpowrcIOfa3CcB+wwjrNssIw97DCNOKuwuBdrcKas6/CflewwskMs8KMc7PC4Rqu&#xD;&#xa;wvxFrsJ29bLCjRq0woVUscIY1bPCEEmzwjkNssKO6LHC0gK0wo6atsJwyrXCifOywoS1ssJonbPC&#xD;&#xa;r5q2wulVtMKZXbPCrrqzwsXDtMJMRrTCf4+0wr4ytcJqtrDCip6xwoiYtMJ7irXCImy4wkzzuMJs&#xD;&#xa;5rbCvhC2wkM0tsIocLbCWJC1wgyjtcJqvrXCGu+4wme6tsIQK7bCDLm4wsBkusLJQbnCRm62wi22&#xD;&#xa;tMLa9bTC5jC3whAOscLggrLCbDK3wr7DtcJxFrfCFby2wg32uMK03brChRi5wioGuMLA27rC/FO5&#xD;&#xa;wq/iuMLYB7nCSP21wsSLtcKOm7XCmpO0wjxStcJ+UbfCgN63wlp8tsJO0bPCcIKvwpr6rsLU07DC&#xD;&#xa;HK2ywrgCs8LbvbTCspm2wkDstMIVmbXCmtm2wstztMKy2LLC1vm0wqb7s8IM97XCLLC0wj3ts8KM&#xD;&#xa;ZLTCA460wg47ssInK7PC2XK1wp51tcLrKbPC/A+wwlq5tML2ArjCRM60wufPtMJk7LPCInO2wmBq&#xD;&#xa;uMLhlbnCyAu4wvi5tsKb87bCo5G4wjb1vMKCVbrC3We5woZ9uMJXPrTC+Li0whbwtsJp+LfCrHe6&#xD;&#xa;wui6tcKq96/CcqGzwgZYu8LgHrnCZ+O2whSHuMIjjbjCer63ws7bt8KCAbrCuDC7wmuQusKgb7bC&#xD;&#xa;Vv+2wuYfuMIorrnC3dy5whbXucI2srnCcMy5whsYuMK9rLbCDg24wnrmtMJaxrTCuAm2wtKetsLs&#xD;&#xa;cbnCVHu5wmnquMLa4rrCjhO+wk6vwMKGQ77CUtm8wry2usLULbvCWES6wm4iusIjGMDCBMO9wkrS&#xD;&#xa;u8IL7b7Ca1G+wskNwMIeUMHCHma8wttMu8KkqsHCdLPFwuUuwsKWyb7CfFPCwhpQw8KASMDCQDW/&#xD;&#xa;wh7ivcJu+r7CsjrBwmVwv8J427/CLO69wgZwwMJWMMHCrOq+wspJwcItDMPCmlXBwm66vcIaSbrC&#xD;&#xa;LI27wmV4vcI/tb7C4n+7wgOUusIKW8LC/tPDwurAxMKoSsnCNdPJwuz5x8J0jsnCMCzMwgKyy8JE&#xD;&#xa;Rc/CahHUwh3UzsJeWMjCzLbHwpYozMK628fCfa7CwkVpwMJe1bzCEsW/wp0EwsIHocLCJtLDwozO&#xD;&#xa;xcJIKcPC3H/Awrzrv8I+3MHCgdHAwhlYv8K0ur7CQ9+8whjuwMJmMsbC8OvGwhVUx8J2tMfCeR7G&#xD;&#xa;wg6SycIENsfCq4fEwmVWvMLdLcHCvg/GwihgxcKeJcfCBmnKwob7zMISzc7CohnQwhaHy8LGnMzC&#xD;&#xa;UgLUwvxB1MLma9DCrlvNwnDZz8I649HCSEPVwor828KI59PC7kbSwhZ11MIaJtbC7AXewpoi6cI3&#xD;&#xa;T/TCUh73wgAJ9sKOvvbCouf2whu99sKjbvbCV8r3wg469sJA7vXC/sv1wpxL9cIsZfbCLsT3wsoL&#xD;&#xa;+8KCMfnCwLD5wjnl98Jxd/bCjWj3whoY98K+C/rCeBP5wvsp9sIybPbCJPH1wj529cJKZPPCTn32&#xD;&#xa;wp549sKgV/jCZr34wiIU98LUUffCzuP3wk4M98KqEPbCRYz2wmkX98JCBPnChfz1wipH9cJQiPTC&#xD;&#xa;2rX2wqzy+cI8xPjCcSIDw2iCEsLyEgfCkpAqwt/qQMIYVVHCoPJNwn7+TsJTdVHC5xhfwnr+XsLu&#xD;&#xa;NV/CXGNkwkf+bcKEb3LChGN0wlC8eMLvIXnCxLV1wnOPccKGs3bCS9d/wqWiesIlwW/C8PRxwmKA&#xD;&#xa;esJtFH3CYWKBwqsKg8IBy3/CRGWBwo6HhsIn5YbCaqmFwlJIh8Jc34rCnl2LwkuoisK1BYjCHq+H&#xD;&#xa;wnclisI8f4zCpnmKwkuQi8JkQI3CdoWOwneRkMJ2qJDCxI+RwpnZj8JNt5LCCzmVwuB1lsKHsZfC&#xD;&#xa;wzqawk4cmsJeEZrC4l6dwhY/n8L8+Z7CTE2dwjw2nsIIBZ3CSFGYwnBEm8KIgKDCmyihwgY4ocIj&#xD;&#xa;sKXCz4Gjwsc5n8IgPp7CpO+hwnKTo8JEvqTCN86jwlw9osLSD6HCq4mfwshBoMJpnaHCnIKjwpy1&#xD;&#xa;o8JE7KDCjFmgwj7VosIW+aHCQbqgwgS/ocJ9L6PCip+jwu9UpMK3/6TCik6gwiqtmsJSjZ7CTdmh&#xD;&#xa;wsqppcKKwKPCvJOhwrMqosJ8KaPC1i6owlqkp8IKyabCgjylwv1mpMJHp6TCGHukwlxypMIIu6bC&#xD;&#xa;LCGnwtwRqMJ8VqjCjiypwvSBq8J136jCv1iiwsjSpsJLn6vCjjCuwph1rcJLeavCeUWowlBvqcJu&#xD;&#xa;B6jCOxCswsvPsMJVwLLCzYmvwjAHrMI2/6rCmNWrwl/fq8KZ3KvCu9Ouwo2zr8LZla7CruurwhJH&#xD;&#xa;rMKZDanCMNSqwlZ2r8I3Oa/CeJ2qwvJzqsKSYq3CD52rwsv6qMIKx6vCsHSswnVErsKRha7CA16u&#xD;&#xa;wijqrsKlPK7CxWutwkqgq8JrSazCQBauwiWTr8L2M63C1mGswiYarsIQ3qzCrcOuwsdXrMKfjazC&#xD;&#xa;zCyvwlQLr8J5aq/CNWuswqaNq8LcTazCleitwpAzrMKslKzChlewwqAQscIU2a7CQMutwlKDrcKQ&#xD;&#xa;/63CGDawwlo6scLW3a7CFlWvwjJssMKFiLHCjpexwhHKr8Lla7HCo/ivwt62sMJzrLPCBHeyws61&#xD;&#xa;r8I3Iq7CDPmtwkpFrcI1vK3Ckriwwjd9s8LCM7HCLDivwmaurcKN/a/CduuwwkFjs8JFybPCRniu&#xD;&#xa;wtRlrsIbzrLCoUC0wr7escKGTLTCrG2zwuDDssKIpbLCPCy0wth7tsJQKLbCpBCzwj64ssJv97PC&#xD;&#xa;Ytq2wsyYtMJqz7PCWsGzwteotMKtirTCnPi0wj1dtcL7brDC6iSxwgaYtML5ArbC1lK4wuiPucIP&#xD;&#xa;qbfCmP+2wjfStsIx7bbC+TK2wuaRtcLcjbXC39u4wrp1tsLHDbbCJrW4wrZSusKgYrnCw2y2wqyo&#xD;&#xa;tMISTbXCCYu3wqDzsMLiZrLC9IK3wknytcJGALfCmg63woofucLCQ7vCdH65wh/Ht8Jmu7rCI4q5&#xD;&#xa;wqzruMIqOrnCSh62wsXAtcISnLXCGq+0wi4+tcJvP7fC/r23ws5EtsIS1rPCka2vwmJMr8KmOrHC&#xD;&#xa;BACzws4Bs8J2o7TCJqe2wnbxtMLwdbXCE6y2wnJ9tMJ+47LC4AC1wuT/s8Iq77XCvLS0whD7s8LU&#xD;&#xa;grTC14m0wr48ssJSGLPCKGm1wu2CtcJ5LLPCXx+wwoTItMJEJLjCDOK0wpbLtMJE+bPCBoG2wihm&#xD;&#xa;uMKkZbnC4gm4whSmtsLN5LbCcJG4wkjKvMITNLrCOFC5wqiMuMKiP7TCC5a0wi70tsLgHLjCKI26&#xD;&#xa;wgHEtcJb56/C5JWzwvI4u8KOIbnCiQa3wgKHuMLoi7jCP6S3wpLmt8JoB7rCXje7whqTusKleLbC&#xD;&#xa;BhC3wucluMK2j7nCAsC5wkTFucK0lLnCysa5wnEfuMLYt7bCLgm4wgbctMLUsLTCc+21wuCGtsKe&#xD;&#xa;arnCZpK5whffuMJRpbrCzvW9wkrGwMJgOb7Ck9y8wobDusL2UbvCtjK6wqrwucIC9b/CyMa9wnvl&#xD;&#xa;u8JK/b7CmGe+wrAJwMKfQMHCUlq8wgc7u8JOqsHCHJfFwlYLwsL6rr7Cwm7CwuKHw8Kuj8DCMT6/&#xD;&#xa;ws/fvcLA3L7C5gHBwoZsv8J89r/Cf+K9wtSNwMKQEsHCLau+wpY2wcLRAcPChGvBwpbYvcLwVLrC&#xD;&#xa;z3+7wtZPvcL0n77CEH+7woeuusKiNcLCSonDwnF+xMKQNMnCpfXJwmjKx8IogMnCpunLwoaay8IO&#xD;&#xa;187CdsfTwjz/zsJmMsjCwnXHwhKCzMJmKMjCStzCwtuJwMLw9LzCxtK/wi7xwcLkl8LCxsfDwq66&#xD;&#xa;xcK6LcPCTFrAwkKEv8Jlx8HCWAfBwstXv8JgqL7CnOe8wobwwMKkc8bC4BzHwsZCx8K618fC7mrG&#xD;&#xa;worTycJ1eMfCJaLEwrxvvMKwXcHCkB/GwoD/xMIDxMbCkgTKwuXIzMI55s7CBAPQwiGpy8JS1szC&#xD;&#xa;SvTTwmTU08J8ms/CJO/MwkCpz8JDotHCmM/VwqYd3MJAy9TCuwbTwhbF1MK2lNbCzN/dwojk6MK0&#xD;&#xa;6vLCjgD0wuKy9cK9dffCYoz4wvZI9sKYifnC29D3wvDa+MJoN/rCKiz4wioE+sLYlvvCfEv7wvTT&#xD;&#xa;+8L2QvnCBQn4wvhF+sIgG/rC6JP5whpB+cIU9vnCZOX4wlTD+MJOrPfCmar1wnaD98KgmffCQH/4&#xD;&#xa;woSD+MIjdvbCSx31wrBo9sJm9fjCCJn2wsp59MIfz/fCSIn4whqA9sI8zfjCyNT1whJG98IqoPfC&#xD;&#xa;KE/2wuNT98KYQPfCaRYB" leadInLength="0/1"  />
            </Keyframes>
           </Parameter>
           </Parameters>
           <MetaData>
            <entry key="effectIndex" val="0"/>
           </MetaData>
          </GenericEffect>
         </Effects>
         <Attributes>
          <Attribute id="57" value="" name="ident"/>
          <Attribute id="58" value="0" name="mixToMono"/>
         </Attributes>
         <MetaData>
          <entry key="WinSubProjectDisplayName" val=""/>
         </MetaData>
         <ExtraData>
          <Entry key="ZoomPanBin">
           <ZoomPanBin id="59"  >
            <ZoomPanKeyframes>
             <ZoomPanKeyframe id="60" timeRangeEnd="-9999999/1" timeRangeDuration="0/1" interpolaterName="linr"  />
            </ZoomPanKeyframes>
           </ZoomPanBin>
          </Entry>
          <Entry key="CursorEffectBin">
           <CursorEffectBin id="61"  >
            <CursorEffectKeyframes>
            </CursorEffectKeyframes>
           </CursorEffectBin>
          </Entry>
         </ExtraData>
         <GenericTrack id="62"  >
          <Attributes>
           <Attribute id="63" value="" name="ident"/>
           <Attribute id="64" value="0" name="audioMuted"/>
           <Attribute id="65" value="0" name="videoHidden"/>
          </Attributes>
          <MetaData>
           <entry key="IsLocked" val="False"/>
           <entry key="WinTrackHeight" val="0"/>
          </MetaData>
          <Medias>
           <UnifiedMedia id="66"  >
            <AMFile id="67" start="0" duration="420" scalar="1/1" mediaStart="0/1" mediaDuration="420/1" trackNumber="2" src="4" channelNumber="0,1" >
             <Parameters>
              <InterpolatingParam id="68" interp="linr"  time="0/1" value="1" leadInLength="0/1"  name="volume"/>
              <Parameter id="69"  name="captions"/>
             </Parameters>
             <Attributes>
              <Attribute id="70" value="" name="ident"/>
              <Attribute id="71" value="44100" name="sampleRate"/>
              <Attribute id="72" value="16" name="bitDepth"/>
              <Attribute id="73" value="1" name="gain"/>
              <Attribute id="74" value="0" name="mixToMono"/>
             </Attributes>
            </AMFile>
            <VMFile id="75" start="0" duration="420" scalar="1/1" mediaStart="0/1" mediaDuration="420/1" trackNumber="1" src="4" >
             <Transformer>
              <VectorParam id="76"  name="translation">
               <InterpolatingParam id="77" interp="linr"  time="-9999999/1" value="0" leadInLength="0/1"  />
               <InterpolatingParam id="78" interp="linr"  time="-9999999/1" value="0" leadInLength="0/1"  />
               <InterpolatingParam id="79" interp="linr"  time="-9999999/1" value="0" leadInLength="0/1"  />
              </VectorParam>
              <VectorParam id="80"  name="rotation">
               <InterpolatingParam id="81" interp="linr"  time="-9999999/1" value="0" leadInLength="0/1"  />
               <InterpolatingParam id="82" interp="linr"  time="-9999999/1" value="0" leadInLength="0/1"  />
               <InterpolatingParam id="83" interp="linr"  time="-9999999/1" value="0" leadInLength="0/1"  />
              </VectorParam>
              <VectorParam id="84"  name="shear">
               <InterpolatingParam id="85" interp="linr"  time="-9999999/1" value="0" leadInLength="0/1"  />
               <InterpolatingParam id="86" interp="linr"  time="-9999999/1" value="0" leadInLength="0/1"  />
               <InterpolatingParam id="87" interp="linr"  time="-9999999/1" value="0" leadInLength="0/1"  />
              </VectorParam>
              <VectorParam id="88"  name="scale">
               <InterpolatingParam id="89" interp="linr"  time="-9999999/1" value="1" leadInLength="0/1"  />
               <InterpolatingParam id="90" interp="linr"  time="-9999999/1" value="1" leadInLength="0/1"  />
               <InterpolatingParam id="91" interp="linr"  time="-9999999/1" value="1" leadInLength="0/1"  />
              </VectorParam>
              <VectorParam id="92"  name="anchor">
               <InterpolatingParam id="93" interp="linr"  time="0/1" value="0" leadInLength="0/1"  />
               <InterpolatingParam id="94" interp="linr"  time="0/1" value="0" leadInLength="0/1"  />
               <InterpolatingParam id="95" interp="linr"  time="0/1" value="0" leadInLength="0/1"  />
              </VectorParam>
             </Transformer>
             <Parameters>
              <VectorParam id="96"  name="sourceCrop">
               <InterpolatingParam id="97" interp="linr"  time="0/1" value="0" leadInLength="0/1"  />
               <InterpolatingParam id="98" interp="linr"  time="0/1" value="0" leadInLength="0/1"  />
               <InterpolatingParam id="99" interp="linr"  time="0/1" value="0" leadInLength="0/1"  />
               <InterpolatingParam id="100" interp="linr"  time="0/1" value="0" leadInLength="0/1"  />
              </VectorParam>
              <VectorParam id="101"  name="geometryCrop">
               <InterpolatingParam id="102" interp="linr"  time="-9999999/1" value="0" leadInLength="0/1"  />
               <InterpolatingParam id="103" interp="linr"  time="-9999999/1" value="0" leadInLength="0/1"  />
               <InterpolatingParam id="104" interp="linr"  time="-9999999/1" value="0" leadInLength="0/1"  />
               <InterpolatingParam id="105" interp="linr"  time="-9999999/1" value="0" leadInLength="0/1"  />
              </VectorParam>
              <InterpolatingParam id="106" interp="linr"  time="-9999999/1" value="1" leadInLength="0/1"  name="opacity"/>
             </Parameters>
             <Attributes>
              <Attribute id="107" value="" name="ident"/>
             </Attributes>
             <ExtraData>
              <Entry key="ZoomPanBin">
               <ZoomPanBin id="108"  >
                <ZoomPanKeyframes>
                 <ZoomPanKeyframe id="109" timeRangeEnd="-9999999/1" timeRangeDuration="0/1" interpolaterName=""  />
                </ZoomPanKeyframes>
               </ZoomPanBin>
              </Entry>
             </ExtraData>
            </VMFile>
            <MetaData>
             <entry key="WinSubProjectDisplayName" val=""/>
            </MetaData>
           </UnifiedMedia>
           <UnifiedMedia id="110"  >
            <AMFile id="111" start="420" duration="242" scalar="1/1" mediaStart="446/1" mediaDuration="242/1" trackNumber="2" src="4" channelNumber="0,1" >
             <Parameters>
              <InterpolatingParam id="112" interp="linr"  time="0/1" value="1" leadInLength="0/1"  name="volume"/>
              <Parameter id="113"  name="captions"/>
             </Parameters>
             <Attributes>
              <Attribute id="114" value="" name="ident"/>
              <Attribute id="115" value="44100" name="sampleRate"/>
              <Attribute id="116" value="16" name="bitDepth"/>
              <Attribute id="117" value="1" name="gain"/>
              <Attribute id="118" value="0" name="mixToMono"/>
             </Attributes>
            </AMFile>
            <VMFile id="119" start="420" duration="242" scalar="1/1" mediaStart="446/1" mediaDuration="242/1" trackNumber="1" src="4" >
             <Transformer>
              <VectorParam id="120"  name="translation">
               <InterpolatingParam id="121" interp="linr"  time="-9999999/1" value="0" leadInLength="0/1"  />
               <InterpolatingParam id="122" interp="linr"  time="-9999999/1" value="0" leadInLength="0/1"  />
               <InterpolatingParam id="123" interp="linr"  time="-9999999/1" value="0" leadInLength="0/1"  />
              </VectorParam>
              <VectorParam id="124"  name="rotation">
               <InterpolatingParam id="125" interp="linr"  time="-9999999/1" value="0" leadInLength="0/1"  />
               <InterpolatingParam id="126" interp="linr"  time="-9999999/1" value="0" leadInLength="0/1"  />
               <InterpolatingParam id="127" interp="linr"  time="-9999999/1" value="0" leadInLength="0/1"  />
              </VectorParam>
              <VectorParam id="128"  name="shear">
               <InterpolatingParam id="129" interp="linr"  time="-9999999/1" value="0" leadInLength="0/1"  />
               <InterpolatingParam id="130" interp="linr"  time="-9999999/1" value="0" leadInLength="0/1"  />
               <InterpolatingParam id="131" interp="linr"  time="-9999999/1" value="0" leadInLength="0/1"  />
              </VectorParam>
              <VectorParam id="132"  name="scale">
               <InterpolatingParam id="133" interp="linr"  time="-9999999/1" value="1" leadInLength="0/1"  />
               <InterpolatingParam id="134" interp="linr"  time="-9999999/1" value="1" leadInLength="0/1"  />
               <InterpolatingParam id="135" interp="linr"  time="-9999999/1" value="1" leadInLength="0/1"  />
              </VectorParam>
              <VectorParam id="136"  name="anchor">
               <InterpolatingParam id="137" interp="linr"  time="0/1" value="0" leadInLength="0/1"  />
               <InterpolatingParam id="138" interp="linr"  time="0/1" value="0" leadInLength="0/1"  />
               <InterpolatingParam id="139" interp="linr"  time="0/1" value="0" leadInLength="0/1"  />
              </VectorParam>
             </Transformer>
             <Parameters>
              <VectorParam id="140"  name="sourceCrop">
               <InterpolatingParam id="141" interp="linr"  time="0/1" value="0" leadInLength="0/1"  />
               <InterpolatingParam id="142" interp="linr"  time="0/1" value="0" leadInLength="0/1"  />
               <InterpolatingParam id="143" interp="linr"  time="0/1" value="0" leadInLength="0/1"  />
               <InterpolatingParam id="144" interp="linr"  time="0/1" value="0" leadInLength="0/1"  />
              </VectorParam>
              <VectorParam id="145"  name="geometryCrop">
               <InterpolatingParam id="146" interp="linr"  time="-9999999/1" value="0" leadInLength="0/1"  />
               <InterpolatingParam id="147" interp="linr"  time="-9999999/1" value="0" leadInLength="0/1"  />
               <InterpolatingParam id="148" interp="linr"  time="-9999999/1" value="0" leadInLength="0/1"  />
               <InterpolatingParam id="149" interp="linr"  time="-9999999/1" value="0" leadInLength="0/1"  />
              </VectorParam>
              <InterpolatingParam id="150" interp="linr"  time="-9999999/1" value="1" leadInLength="0/1"  name="opacity"/>
             </Parameters>
             <Attributes>
              <Attribute id="151" value="" name="ident"/>
             </Attributes>
             <ExtraData>
              <Entry key="ZoomPanBin">
               <ZoomPanBin id="152"  >
                <ZoomPanKeyframes>
                 <ZoomPanKeyframe id="153" timeRangeEnd="-9999999/1" timeRangeDuration="0/1" interpolaterName=""  />
                </ZoomPanKeyframes>
               </ZoomPanBin>
              </Entry>
             </ExtraData>
            </VMFile>
            <MetaData>
             <entry key="WinSubProjectDisplayName" val=""/>
            </MetaData>
           </UnifiedMedia>
           <UnifiedMedia id="154"  >
            <AMFile id="155" start="662" duration="435" scalar="1/1" mediaStart="793/1" mediaDuration="435/1" trackNumber="2" src="4" channelNumber="0,1" >
             <Parameters>
              <InterpolatingParam id="156" interp="linr"  time="0/1" value="1" leadInLength="0/1"  name="volume"/>
              <Parameter id="157"  name="captions"/>
             </Parameters>
             <Attributes>
              <Attribute id="158" value="" name="ident"/>
              <Attribute id="159" value="44100" name="sampleRate"/>
              <Attribute id="160" value="16" name="bitDepth"/>
              <Attribute id="161" value="1" name="gain"/>
              <Attribute id="162" value="0" name="mixToMono"/>
             </Attributes>
            </AMFile>
            <VMFile id="163" start="662" duration="435" scalar="1/1" mediaStart="793/1" mediaDuration="435/1" trackNumber="1" src="4" >
             <Transformer>
              <VectorParam id="164"  name="translation">
               <InterpolatingParam id="165" interp="linr"  time="-9999999/1" value="0" leadInLength="0/1"  />
               <InterpolatingParam id="166" interp="linr"  time="-9999999/1" value="0" leadInLength="0/1"  />
               <InterpolatingParam id="167" interp="linr"  time="-9999999/1" value="0" leadInLength="0/1"  />
              </VectorParam>
              <VectorParam id="168"  name="rotation">
               <InterpolatingParam id="169" interp="linr"  time="-9999999/1" value="0" leadInLength="0/1"  />
               <InterpolatingParam id="170" interp="linr"  time="-9999999/1" value="0" leadInLength="0/1"  />
               <InterpolatingParam id="171" interp="linr"  time="-9999999/1" value="0" leadInLength="0/1"  />
              </VectorParam>
              <VectorParam id="172"  name="shear">
               <InterpolatingParam id="173" interp="linr"  time="-9999999/1" value="0" leadInLength="0/1"  />
               <InterpolatingParam id="174" interp="linr"  time="-9999999/1" value="0" leadInLength="0/1"  />
               <InterpolatingParam id="175" interp="linr"  time="-9999999/1" value="0" leadInLength="0/1"  />
              </VectorParam>
              <VectorParam id="176"  name="scale">
               <InterpolatingParam id="177" interp="linr"  time="-9999999/1" value="1" leadInLength="0/1"  />
               <InterpolatingParam id="178" interp="linr"  time="-9999999/1" value="1" leadInLength="0/1"  />
               <InterpolatingParam id="179" interp="linr"  time="-9999999/1" value="1" leadInLength="0/1"  />
              </VectorParam>
              <VectorParam id="180"  name="anchor">
               <InterpolatingParam id="181" interp="linr"  time="0/1" value="0" leadInLength="0/1"  />
               <InterpolatingParam id="182" interp="linr"  time="0/1" value="0" leadInLength="0/1"  />
               <InterpolatingParam id="183" interp="linr"  time="0/1" value="0" leadInLength="0/1"  />
              </VectorParam>
             </Transformer>
             <Parameters>
              <VectorParam id="184"  name="sourceCrop">
               <InterpolatingParam id="185" interp="linr"  time="0/1" value="0" leadInLength="0/1"  />
               <InterpolatingParam id="186" interp="linr"  time="0/1" value="0" leadInLength="0/1"  />
               <InterpolatingParam id="187" interp="linr"  time="0/1" value="0" leadInLength="0/1"  />
               <InterpolatingParam id="188" interp="linr"  time="0/1" value="0" leadInLength="0/1"  />
              </VectorParam>
              <VectorParam id="189"  name="geometryCrop">
               <InterpolatingParam id="190" interp="linr"  time="-9999999/1" value="0" leadInLength="0/1"  />
               <InterpolatingParam id="191" interp="linr"  time="-9999999/1" value="0" leadInLength="0/1"  />
               <InterpolatingParam id="192" interp="linr"  time="-9999999/1" value="0" leadInLength="0/1"  />
               <InterpolatingParam id="193" interp="linr"  time="-9999999/1" value="0" leadInLength="0/1"  />
              </VectorParam>
              <InterpolatingParam id="194" interp="linr"  time="-9999999/1" value="1" leadInLength="0/1"  name="opacity"/>
             </Parameters>
             <Attributes>
              <Attribute id="195" value="" name="ident"/>
             </Attributes>
             <ExtraData>
              <Entry key="ZoomPanBin">
               <ZoomPanBin id="196"  >
                <ZoomPanKeyframes>
                 <ZoomPanKeyframe id="197" timeRangeEnd="-9999999/1" timeRangeDuration="0/1" interpolaterName=""  />
                </ZoomPanKeyframes>
               </ZoomPanBin>
              </Entry>
             </ExtraData>
            </VMFile>
            <MetaData>
             <entry key="WinSubProjectDisplayName" val=""/>
            </MetaData>
           </UnifiedMedia>
           <UnifiedMedia id="198"  >
            <AMFile id="199" start="1097" duration="102" scalar="1/1" mediaStart="1358/1" mediaDuration="102/1" trackNumber="2" src="4" channelNumber="0,1" >
             <Parameters>
              <InterpolatingParam id="200" interp="linr"  time="0/1" value="1" leadInLength="0/1"  name="volume"/>
              <Parameter id="201"  name="captions"/>
             </Parameters>
             <Attributes>
              <Attribute id="202" value="" name="ident"/>
              <Attribute id="203" value="44100" name="sampleRate"/>
              <Attribute id="204" value="16" name="bitDepth"/>
              <Attribute id="205" value="1" name="gain"/>
              <Attribute id="206" value="0" name="mixToMono"/>
             </Attributes>
            </AMFile>
            <VMFile id="207" start="1097" duration="102" scalar="1/1" mediaStart="1358/1" mediaDuration="102/1" trackNumber="1" src="4" >
             <Transformer>
              <VectorParam id="208"  name="translation">
               <InterpolatingParam id="209" interp="linr"  time="-9999999/1" value="0" leadInLength="0/1"  />
               <InterpolatingParam id="210" interp="linr"  time="-9999999/1" value="0" leadInLength="0/1"  />
               <InterpolatingParam id="211" interp="linr"  time="-9999999/1" value="0" leadInLength="0/1"  />
              </VectorParam>
              <VectorParam id="212"  name="rotation">
               <InterpolatingParam id="213" interp="linr"  time="-9999999/1" value="0" leadInLength="0/1"  />
               <InterpolatingParam id="214" interp="linr"  time="-9999999/1" value="0" leadInLength="0/1"  />
               <InterpolatingParam id="215" interp="linr"  time="-9999999/1" value="0" leadInLength="0/1"  />
              </VectorParam>
              <VectorParam id="216"  name="shear">
               <InterpolatingParam id="217" interp="linr"  time="-9999999/1" value="0" leadInLength="0/1"  />
               <InterpolatingParam id="218" interp="linr"  time="-9999999/1" value="0" leadInLength="0/1"  />
               <InterpolatingParam id="219" interp="linr"  time="-9999999/1" value="0" leadInLength="0/1"  />
              </VectorParam>
              <VectorParam id="220"  name="scale">
               <InterpolatingParam id="221" interp="linr"  time="-9999999/1" value="1" leadInLength="0/1"  />
               <InterpolatingParam id="222" interp="linr"  time="-9999999/1" value="1" leadInLength="0/1"  />
               <InterpolatingParam id="223" interp="linr"  time="-9999999/1" value="1" leadInLength="0/1"  />
              </VectorParam>
              <VectorParam id="224"  name="anchor">
               <InterpolatingParam id="225" interp="linr"  time="0/1" value="0" leadInLength="0/1"  />
               <InterpolatingParam id="226" interp="linr"  time="0/1" value="0" leadInLength="0/1"  />
               <InterpolatingParam id="227" interp="linr"  time="0/1" value="0" leadInLength="0/1"  />
              </VectorParam>
             </Transformer>
             <Parameters>
              <VectorParam id="228"  name="sourceCrop">
               <InterpolatingParam id="229" interp="linr"  time="0/1" value="0" leadInLength="0/1"  />
               <InterpolatingParam id="230" interp="linr"  time="0/1" value="0" leadInLength="0/1"  />
               <InterpolatingParam id="231" interp="linr"  time="0/1" value="0" leadInLength="0/1"  />
               <InterpolatingParam id="232" interp="linr"  time="0/1" value="0" leadInLength="0/1"  />
              </VectorParam>
              <VectorParam id="233"  name="geometryCrop">
               <InterpolatingParam id="234" interp="linr"  time="-9999999/1" value="0" leadInLength="0/1"  />
               <InterpolatingParam id="235" interp="linr"  time="-9999999/1" value="0" leadInLength="0/1"  />
               <InterpolatingParam id="236" interp="linr"  time="-9999999/1" value="0" leadInLength="0/1"  />
               <InterpolatingParam id="237" interp="linr"  time="-9999999/1" value="0" leadInLength="0/1"  />
              </VectorParam>
              <InterpolatingParam id="238" interp="linr"  time="-9999999/1" value="1" leadInLength="0/1"  name="opacity"/>
             </Parameters>
             <Attributes>
              <Attribute id="239" value="" name="ident"/>
             </Attributes>
             <ExtraData>
              <Entry key="ZoomPanBin">
               <ZoomPanBin id="240"  >
                <ZoomPanKeyframes>
                 <ZoomPanKeyframe id="241" timeRangeEnd="-9999999/1" timeRangeDuration="0/1" interpolaterName=""  />
                </ZoomPanKeyframes>
               </ZoomPanBin>
              </Entry>
             </ExtraData>
            </VMFile>
            <MetaData>
             <entry key="WinSubProjectDisplayName" val=""/>
            </MetaData>
           </UnifiedMedia>
           <UnifiedMedia id="242"  >
            <AMFile id="243" start="1199" duration="158" scalar="1/1" mediaStart="1471/1" mediaDuration="158/1" trackNumber="2" src="4" channelNumber="0,1" >
             <Parameters>
              <InterpolatingParam id="244" interp="linr"  time="0/1" value="1" leadInLength="0/1"  name="volume"/>
              <Parameter id="245"  name="captions"/>
             </Parameters>
             <Attributes>
              <Attribute id="246" value="" name="ident"/>
              <Attribute id="247" value="44100" name="sampleRate"/>
              <Attribute id="248" value="16" name="bitDepth"/>
              <Attribute id="249" value="1" name="gain"/>
              <Attribute id="250" value="0" name="mixToMono"/>
             </Attributes>
            </AMFile>
            <VMFile id="251" start="1199" duration="158" scalar="1/1" mediaStart="1471/1" mediaDuration="158/1" trackNumber="1" src="4" >
             <Transformer>
              <VectorParam id="252"  name="translation">
               <InterpolatingParam id="253" interp="linr"  time="-9999999/1" value="0" leadInLength="0/1"  />
               <InterpolatingParam id="254" interp="linr"  time="-9999999/1" value="0" leadInLength="0/1"  />
               <InterpolatingParam id="255" interp="linr"  time="-9999999/1" value="0" leadInLength="0/1"  />
              </VectorParam>
              <VectorParam id="256"  name="rotation">
               <InterpolatingParam id="257" interp="linr"  time="-9999999/1" value="0" leadInLength="0/1"  />
               <InterpolatingParam id="258" interp="linr"  time="-9999999/1" value="0" leadInLength="0/1"  />
               <InterpolatingParam id="259" interp="linr"  time="-9999999/1" value="0" leadInLength="0/1"  />
              </VectorParam>
              <VectorParam id="260"  name="shear">
               <InterpolatingParam id="261" interp="linr"  time="-9999999/1" value="0" leadInLength="0/1"  />
               <InterpolatingParam id="262" interp="linr"  time="-9999999/1" value="0" leadInLength="0/1"  />
               <InterpolatingParam id="263" interp="linr"  time="-9999999/1" value="0" leadInLength="0/1"  />
              </VectorParam>
              <VectorParam id="264"  name="scale">
               <InterpolatingParam id="265" interp="linr"  time="-9999999/1" value="1" leadInLength="0/1"  />
               <InterpolatingParam id="266" interp="linr"  time="-9999999/1" value="1" leadInLength="0/1"  />
               <InterpolatingParam id="267" interp="linr"  time="-9999999/1" value="1" leadInLength="0/1"  />
              </VectorParam>
              <VectorParam id="268"  name="anchor">
               <InterpolatingParam id="269" interp="linr"  time="0/1" value="0" leadInLength="0/1"  />
               <InterpolatingParam id="270" interp="linr"  time="0/1" value="0" leadInLength="0/1"  />
               <InterpolatingParam id="271" interp="linr"  time="0/1" value="0" leadInLength="0/1"  />
              </VectorParam>
             </Transformer>
             <Parameters>
              <VectorParam id="272"  name="sourceCrop">
               <InterpolatingParam id="273" interp="linr"  time="0/1" value="0" leadInLength="0/1"  />
               <InterpolatingParam id="274" interp="linr"  time="0/1" value="0" leadInLength="0/1"  />
               <InterpolatingParam id="275" interp="linr"  time="0/1" value="0" leadInLength="0/1"  />
               <InterpolatingParam id="276" interp="linr"  time="0/1" value="0" leadInLength="0/1"  />
              </VectorParam>
              <VectorParam id="277"  name="geometryCrop">
               <InterpolatingParam id="278" interp="linr"  time="-9999999/1" value="0" leadInLength="0/1"  />
               <InterpolatingParam id="279" interp="linr"  time="-9999999/1" value="0" leadInLength="0/1"  />
               <InterpolatingParam id="280" interp="linr"  time="-9999999/1" value="0" leadInLength="0/1"  />
               <InterpolatingParam id="281" interp="linr"  time="-9999999/1" value="0" leadInLength="0/1"  />
              </VectorParam>
              <InterpolatingParam id="282" interp="linr"  time="-9999999/1" value="1" leadInLength="0/1"  name="opacity"/>
             </Parameters>
             <Attributes>
              <Attribute id="283" value="" name="ident"/>
             </Attributes>
             <ExtraData>
              <Entry key="ZoomPanBin">
               <ZoomPanBin id="284"  >
                <ZoomPanKeyframes>
                 <ZoomPanKeyframe id="285" timeRangeEnd="-9999999/1" timeRangeDuration="0/1" interpolaterName=""  />
                </ZoomPanKeyframes>
               </ZoomPanBin>
              </Entry>
             </ExtraData>
            </VMFile>
            <MetaData>
             <entry key="WinSubProjectDisplayName" val=""/>
            </MetaData>
           </UnifiedMedia>
           <UnifiedMedia id="286"  >
            <AMFile id="287" start="1357" duration="72" scalar="1/1" mediaStart="1644/1" mediaDuration="72/1" trackNumber="2" src="4" channelNumber="0,1" >
             <Parameters>
              <InterpolatingParam id="288" interp="linr"  time="0/1" value="1" leadInLength="0/1"  name="volume"/>
              <Parameter id="289"  name="captions"/>
             </Parameters>
             <Attributes>
              <Attribute id="290" value="" name="ident"/>
              <Attribute id="291" value="44100" name="sampleRate"/>
              <Attribute id="292" value="16" name="bitDepth"/>
              <Attribute id="293" value="1" name="gain"/>
              <Attribute id="294" value="0" name="mixToMono"/>
             </Attributes>
            </AMFile>
            <VMFile id="295" start="1357" duration="72" scalar="1/1" mediaStart="1644/1" mediaDuration="72/1" trackNumber="1" src="4" >
             <Transformer>
              <VectorParam id="296"  name="translation">
               <InterpolatingParam id="297" interp="linr"  time="-9999999/1" value="0" leadInLength="0/1"  />
               <InterpolatingParam id="298" interp="linr"  time="-9999999/1" value="0" leadInLength="0/1"  />
               <InterpolatingParam id="299" interp="linr"  time="-9999999/1" value="0" leadInLength="0/1"  />
              </VectorParam>
              <VectorParam id="300"  name="rotation">
               <InterpolatingParam id="301" interp="linr"  time="-9999999/1" value="0" leadInLength="0/1"  />
               <InterpolatingParam id="302" interp="linr"  time="-9999999/1" value="0" leadInLength="0/1"  />
               <InterpolatingParam id="303" interp="linr"  time="-9999999/1" value="0" leadInLength="0/1"  />
              </VectorParam>
              <VectorParam id="304"  name="shear">
               <InterpolatingParam id="305" interp="linr"  time="-9999999/1" value="0" leadInLength="0/1"  />
               <InterpolatingParam id="306" interp="linr"  time="-9999999/1" value="0" leadInLength="0/1"  />
               <InterpolatingParam id="307" interp="linr"  time="-9999999/1" value="0" leadInLength="0/1"  />
              </VectorParam>
              <VectorParam id="308"  name="scale">
               <InterpolatingParam id="309" interp="linr"  time="-9999999/1" value="1" leadInLength="0/1"  />
               <InterpolatingParam id="310" interp="linr"  time="-9999999/1" value="1" leadInLength="0/1"  />
               <InterpolatingParam id="311" interp="linr"  time="-9999999/1" value="1" leadInLength="0/1"  />
              </VectorParam>
              <VectorParam id="312"  name="anchor">
               <InterpolatingParam id="313" interp="linr"  time="0/1" value="0" leadInLength="0/1"  />
               <InterpolatingParam id="314" interp="linr"  time="0/1" value="0" leadInLength="0/1"  />
               <InterpolatingParam id="315" interp="linr"  time="0/1" value="0" leadInLength="0/1"  />
              </VectorParam>
             </Transformer>
             <Parameters>
              <VectorParam id="316"  name="sourceCrop">
               <InterpolatingParam id="317" interp="linr"  time="0/1" value="0" leadInLength="0/1"  />
               <InterpolatingParam id="318" interp="linr"  time="0/1" value="0" leadInLength="0/1"  />
               <InterpolatingParam id="319" interp="linr"  time="0/1" value="0" leadInLength="0/1"  />
               <InterpolatingParam id="320" interp="linr"  time="0/1" value="0" leadInLength="0/1"  />
              </VectorParam>
              <VectorParam id="321"  name="geometryCrop">
               <InterpolatingParam id="322" interp="linr"  time="-9999999/1" value="0" leadInLength="0/1"  />
               <InterpolatingParam id="323" interp="linr"  time="-9999999/1" value="0" leadInLength="0/1"  />
               <InterpolatingParam id="324" interp="linr"  time="-9999999/1" value="0" leadInLength="0/1"  />
               <InterpolatingParam id="325" interp="linr"  time="-9999999/1" value="0" leadInLength="0/1"  />
              </VectorParam>
              <InterpolatingParam id="326" interp="linr"  time="-9999999/1" value="1" leadInLength="0/1"  name="opacity"/>
             </Parameters>
             <Attributes>
              <Attribute id="327" value="" name="ident"/>
             </Attributes>
             <ExtraData>
              <Entry key="ZoomPanBin">
               <ZoomPanBin id="328"  >
                <ZoomPanKeyframes>
                 <ZoomPanKeyframe id="329" timeRangeEnd="-9999999/1" timeRangeDuration="0/1" interpolaterName=""  />
                </ZoomPanKeyframes>
               </ZoomPanBin>
              </Entry>
             </ExtraData>
            </VMFile>
            <MetaData>
             <entry key="WinSubProjectDisplayName" val=""/>
            </MetaData>
           </UnifiedMedia>
           <UnifiedMedia id="330"  >
            <AMFile id="331" start="1429" duration="89" scalar="1/1" mediaStart="1799/1" mediaDuration="89/1" trackNumber="2" src="4" channelNumber="0,1" >
             <Parameters>
              <InterpolatingParam id="332" interp="linr"  time="0/1" value="1" leadInLength="0/1"  name="volume"/>
              <Parameter id="333"  name="captions"/>
             </Parameters>
             <Attributes>
              <Attribute id="334" value="" name="ident"/>
              <Attribute id="335" value="44100" name="sampleRate"/>
              <Attribute id="336" value="16" name="bitDepth"/>
              <Attribute id="337" value="1" name="gain"/>
              <Attribute id="338" value="0" name="mixToMono"/>
             </Attributes>
            </AMFile>
            <VMFile id="339" start="1429" duration="89" scalar="1/1" mediaStart="1799/1" mediaDuration="89/1" trackNumber="1" src="4" >
             <Transformer>
              <VectorParam id="340"  name="translation">
               <InterpolatingParam id="341" interp="linr"  time="-9999999/1" value="0" leadInLength="0/1"  />
               <InterpolatingParam id="342" interp="linr"  time="-9999999/1" value="0" leadInLength="0/1"  />
               <InterpolatingParam id="343" interp="linr"  time="-9999999/1" value="0" leadInLength="0/1"  />
              </VectorParam>
              <VectorParam id="344"  name="rotation">
               <InterpolatingParam id="345" interp="linr"  time="-9999999/1" value="0" leadInLength="0/1"  />
               <InterpolatingParam id="346" interp="linr"  time="-9999999/1" value="0" leadInLength="0/1"  />
               <InterpolatingParam id="347" interp="linr"  time="-9999999/1" value="0" leadInLength="0/1"  />
              </VectorParam>
              <VectorParam id="348"  name="shear">
               <InterpolatingParam id="349" interp="linr"  time="-9999999/1" value="0" leadInLength="0/1"  />
               <InterpolatingParam id="350" interp="linr"  time="-9999999/1" value="0" leadInLength="0/1"  />
               <InterpolatingParam id="351" interp="linr"  time="-9999999/1" value="0" leadInLength="0/1"  />
              </VectorParam>
              <VectorParam id="352"  name="scale">
               <InterpolatingParam id="353" interp="linr"  time="-9999999/1" value="1" leadInLength="0/1"  />
               <InterpolatingParam id="354" interp="linr"  time="-9999999/1" value="1" leadInLength="0/1"  />
               <InterpolatingParam id="355" interp="linr"  time="-9999999/1" value="1" leadInLength="0/1"  />
              </VectorParam>
              <VectorParam id="356"  name="anchor">
               <InterpolatingParam id="357" interp="linr"  time="0/1" value="0" leadInLength="0/1"  />
               <InterpolatingParam id="358" interp="linr"  time="0/1" value="0" leadInLength="0/1"  />
               <InterpolatingParam id="359" interp="linr"  time="0/1" value="0" leadInLength="0/1"  />
              </VectorParam>
             </Transformer>
             <Parameters>
              <VectorParam id="360"  name="sourceCrop">
               <InterpolatingParam id="361" interp="linr"  time="0/1" value="0" leadInLength="0/1"  />
               <InterpolatingParam id="362" interp="linr"  time="0/1" value="0" leadInLength="0/1"  />
               <InterpolatingParam id="363" interp="linr"  time="0/1" value="0" leadInLength="0/1"  />
               <InterpolatingParam id="364" interp="linr"  time="0/1" value="0" leadInLength="0/1"  />
              </VectorParam>
              <VectorParam id="365"  name="geometryCrop">
               <InterpolatingParam id="366" interp="linr"  time="-9999999/1" value="0" leadInLength="0/1"  />
               <InterpolatingParam id="367" interp="linr"  time="-9999999/1" value="0" leadInLength="0/1"  />
               <InterpolatingParam id="368" interp="linr"  time="-9999999/1" value="0" leadInLength="0/1"  />
               <InterpolatingParam id="369" interp="linr"  time="-9999999/1" value="0" leadInLength="0/1"  />
              </VectorParam>
              <InterpolatingParam id="370" interp="linr"  time="-9999999/1" value="1" leadInLength="0/1"  name="opacity"/>
             </Parameters>
             <Attributes>
              <Attribute id="371" value="" name="ident"/>
             </Attributes>
             <ExtraData>
              <Entry key="ZoomPanBin">
               <ZoomPanBin id="372"  >
                <ZoomPanKeyframes>
                 <ZoomPanKeyframe id="373" timeRangeEnd="-9999999/1" timeRangeDuration="0/1" interpolaterName=""  />
                </ZoomPanKeyframes>
               </ZoomPanBin>
              </Entry>
             </ExtraData>
            </VMFile>
            <MetaData>
             <entry key="WinSubProjectDisplayName" val=""/>
            </MetaData>
           </UnifiedMedia>
           <UnifiedMedia id="374"  >
            <AMFile id="375" start="1518" duration="201" scalar="1/1" mediaStart="1938/1" mediaDuration="201/1" trackNumber="2" src="4" channelNumber="0,1" >
             <Parameters>
              <InterpolatingParam id="376" interp="linr"  time="0/1" value="1" leadInLength="0/1"  name="volume"/>
              <Parameter id="377"  name="captions"/>
             </Parameters>
             <Attributes>
              <Attribute id="378" value="" name="ident"/>
              <Attribute id="379" value="44100" name="sampleRate"/>
              <Attribute id="380" value="16" name="bitDepth"/>
              <Attribute id="381" value="1" name="gain"/>
              <Attribute id="382" value="0" name="mixToMono"/>
             </Attributes>
            </AMFile>
            <VMFile id="383" start="1518" duration="201" scalar="1/1" mediaStart="1938/1" mediaDuration="201/1" trackNumber="1" src="4" >
             <Transformer>
              <VectorParam id="384"  name="translation">
               <InterpolatingParam id="385" interp="linr"  time="-9999999/1" value="0" leadInLength="0/1"  />
               <InterpolatingParam id="386" interp="linr"  time="-9999999/1" value="0" leadInLength="0/1"  />
               <InterpolatingParam id="387" interp="linr"  time="-9999999/1" value="0" leadInLength="0/1"  />
              </VectorParam>
              <VectorParam id="388"  name="rotation">
               <InterpolatingParam id="389" interp="linr"  time="-9999999/1" value="0" leadInLength="0/1"  />
               <InterpolatingParam id="390" interp="linr"  time="-9999999/1" value="0" leadInLength="0/1"  />
               <InterpolatingParam id="391" interp="linr"  time="-9999999/1" value="0" leadInLength="0/1"  />
              </VectorParam>
              <VectorParam id="392"  name="shear">
               <InterpolatingParam id="393" interp="linr"  time="-9999999/1" value="0" leadInLength="0/1"  />
               <InterpolatingParam id="394" interp="linr"  time="-9999999/1" value="0" leadInLength="0/1"  />
               <InterpolatingParam id="395" interp="linr"  time="-9999999/1" value="0" leadInLength="0/1"  />
              </VectorParam>
              <VectorParam id="396"  name="scale">
               <InterpolatingParam id="397" interp="linr"  time="-9999999/1" value="1" leadInLength="0/1"  />
               <InterpolatingParam id="398" interp="linr"  time="-9999999/1" value="1" leadInLength="0/1"  />
               <InterpolatingParam id="399" interp="linr"  time="-9999999/1" value="1" leadInLength="0/1"  />
              </VectorParam>
              <VectorParam id="400"  name="anchor">
               <InterpolatingParam id="401" interp="linr"  time="0/1" value="0" leadInLength="0/1"  />
               <InterpolatingParam id="402" interp="linr"  time="0/1" value="0" leadInLength="0/1"  />
               <InterpolatingParam id="403" interp="linr"  time="0/1" value="0" leadInLength="0/1"  />
              </VectorParam>
             </Transformer>
             <Parameters>
              <VectorParam id="404"  name="sourceCrop">
               <InterpolatingParam id="405" interp="linr"  time="0/1" value="0" leadInLength="0/1"  />
               <InterpolatingParam id="406" interp="linr"  time="0/1" value="0" leadInLength="0/1"  />
               <InterpolatingParam id="407" interp="linr"  time="0/1" value="0" leadInLength="0/1"  />
               <InterpolatingParam id="408" interp="linr"  time="0/1" value="0" leadInLength="0/1"  />
              </VectorParam>
              <VectorParam id="409"  name="geometryCrop">
               <InterpolatingParam id="410" interp="linr"  time="-9999999/1" value="0" leadInLength="0/1"  />
               <InterpolatingParam id="411" interp="linr"  time="-9999999/1" value="0" leadInLength="0/1"  />
               <InterpolatingParam id="412" interp="linr"  time="-9999999/1" value="0" leadInLength="0/1"  />
               <InterpolatingParam id="413" interp="linr"  time="-9999999/1" value="0" leadInLength="0/1"  />
              </VectorParam>
              <InterpolatingParam id="414" interp="linr"  time="-9999999/1" value="1" leadInLength="0/1"  name="opacity"/>
             </Parameters>
             <Attributes>
              <Attribute id="415" value="" name="ident"/>
             </Attributes>
             <ExtraData>
              <Entry key="ZoomPanBin">
               <ZoomPanBin id="416"  >
                <ZoomPanKeyframes>
                 <ZoomPanKeyframe id="417" timeRangeEnd="-9999999/1" timeRangeDuration="0/1" interpolaterName=""  />
                </ZoomPanKeyframes>
               </ZoomPanBin>
              </Entry>
             </ExtraData>
            </VMFile>
            <MetaData>
             <entry key="WinSubProjectDisplayName" val=""/>
            </MetaData>
           </UnifiedMedia>
           <UnifiedMedia id="418"  >
            <AMFile id="419" start="1719" duration="97" scalar="1/1" mediaStart="2162/1" mediaDuration="97/1" trackNumber="2" src="4" channelNumber="0,1" >
             <Parameters>
              <InterpolatingParam id="420" interp="linr"  time="0/1" value="1" leadInLength="0/1"  name="volume"/>
              <Parameter id="421"  name="captions"/>
             </Parameters>
             <Attributes>
              <Attribute id="422" value="" name="ident"/>
              <Attribute id="423" value="44100" name="sampleRate"/>
              <Attribute id="424" value="16" name="bitDepth"/>
              <Attribute id="425" value="1" name="gain"/>
              <Attribute id="426" value="0" name="mixToMono"/>
             </Attributes>
            </AMFile>
            <VMFile id="427" start="1719" duration="97" scalar="1/1" mediaStart="2162/1" mediaDuration="97/1" trackNumber="1" src="4" >
             <Transformer>
              <VectorParam id="428"  name="translation">
               <InterpolatingParam id="429" interp="linr"  time="-9999999/1" value="0" leadInLength="0/1"  />
               <InterpolatingParam id="430" interp="linr"  time="-9999999/1" value="0" leadInLength="0/1"  />
               <InterpolatingParam id="431" interp="linr"  time="-9999999/1" value="0" leadInLength="0/1"  />
              </VectorParam>
              <VectorParam id="432"  name="rotation">
               <InterpolatingParam id="433" interp="linr"  time="-9999999/1" value="0" leadInLength="0/1"  />
               <InterpolatingParam id="434" interp="linr"  time="-9999999/1" value="0" leadInLength="0/1"  />
               <InterpolatingParam id="435" interp="linr"  time="-9999999/1" value="0" leadInLength="0/1"  />
              </VectorParam>
              <VectorParam id="436"  name="shear">
               <InterpolatingParam id="437" interp="linr"  time="-9999999/1" value="0" leadInLength="0/1"  />
               <InterpolatingParam id="438" interp="linr"  time="-9999999/1" value="0" leadInLength="0/1"  />
               <InterpolatingParam id="439" interp="linr"  time="-9999999/1" value="0" leadInLength="0/1"  />
              </VectorParam>
              <VectorParam id="440"  name="scale">
               <InterpolatingParam id="441" interp="linr"  time="-9999999/1" value="1" leadInLength="0/1"  />
               <InterpolatingParam id="442" interp="linr"  time="-9999999/1" value="1" leadInLength="0/1"  />
               <InterpolatingParam id="443" interp="linr"  time="-9999999/1" value="1" leadInLength="0/1"  />
              </VectorParam>
              <VectorParam id="444"  name="anchor">
               <InterpolatingParam id="445" interp="linr"  time="0/1" value="0" leadInLength="0/1"  />
               <InterpolatingParam id="446" interp="linr"  time="0/1" value="0" leadInLength="0/1"  />
               <InterpolatingParam id="447" interp="linr"  time="0/1" value="0" leadInLength="0/1"  />
              </VectorParam>
             </Transformer>
             <Parameters>
              <VectorParam id="448"  name="sourceCrop">
               <InterpolatingParam id="449" interp="linr"  time="0/1" value="0" leadInLength="0/1"  />
               <InterpolatingParam id="450" interp="linr"  time="0/1" value="0" leadInLength="0/1"  />
               <InterpolatingParam id="451" interp="linr"  time="0/1" value="0" leadInLength="0/1"  />
               <InterpolatingParam id="452" interp="linr"  time="0/1" value="0" leadInLength="0/1"  />
              </VectorParam>
              <VectorParam id="453"  name="geometryCrop">
               <InterpolatingParam id="454" interp="linr"  time="-9999999/1" value="0" leadInLength="0/1"  />
               <InterpolatingParam id="455" interp="linr"  time="-9999999/1" value="0" leadInLength="0/1"  />
               <InterpolatingParam id="456" interp="linr"  time="-9999999/1" value="0" leadInLength="0/1"  />
               <InterpolatingParam id="457" interp="linr"  time="-9999999/1" value="0" leadInLength="0/1"  />
              </VectorParam>
              <InterpolatingParam id="458" interp="linr"  time="-9999999/1" value="1" leadInLength="0/1"  name="opacity"/>
             </Parameters>
             <Attributes>
              <Attribute id="459" value="" name="ident"/>
             </Attributes>
             <ExtraData>
              <Entry key="ZoomPanBin">
               <ZoomPanBin id="460"  >
                <ZoomPanKeyframes>
                 <ZoomPanKeyframe id="461" timeRangeEnd="-9999999/1" timeRangeDuration="0/1" interpolaterName=""  />
                </ZoomPanKeyframes>
               </ZoomPanBin>
              </Entry>
             </ExtraData>
            </VMFile>
            <MetaData>
             <entry key="WinSubProjectDisplayName" val=""/>
            </MetaData>
           </UnifiedMedia>
           <UnifiedMedia id="462"  >
            <AMFile id="463" start="1816" duration="97" scalar="1/1" mediaStart="2273/1" mediaDuration="97/1" trackNumber="2" src="4" channelNumber="0,1" >
             <Parameters>
              <InterpolatingParam id="464" interp="linr"  time="0/1" value="1" leadInLength="0/1"  name="volume"/>
              <Parameter id="465"  name="captions"/>
             </Parameters>
             <Attributes>
              <Attribute id="466" value="" name="ident"/>
              <Attribute id="467" value="44100" name="sampleRate"/>
              <Attribute id="468" value="16" name="bitDepth"/>
              <Attribute id="469" value="1" name="gain"/>
              <Attribute id="470" value="0" name="mixToMono"/>
             </Attributes>
            </AMFile>
            <VMFile id="471" start="1816" duration="97" scalar="1/1" mediaStart="2273/1" mediaDuration="97/1" trackNumber="1" src="4" >
             <Transformer>
              <VectorParam id="472"  name="translation">
               <InterpolatingParam id="473" interp="linr"  time="-9999999/1" value="0" leadInLength="0/1"  />
               <InterpolatingParam id="474" interp="linr"  time="-9999999/1" value="0" leadInLength="0/1"  />
               <InterpolatingParam id="475" interp="linr"  time="-9999999/1" value="0" leadInLength="0/1"  />
              </VectorParam>
              <VectorParam id="476"  name="rotation">
               <InterpolatingParam id="477" interp="linr"  time="-9999999/1" value="0" leadInLength="0/1"  />
               <InterpolatingParam id="478" interp="linr"  time="-9999999/1" value="0" leadInLength="0/1"  />
               <InterpolatingParam id="479" interp="linr"  time="-9999999/1" value="0" leadInLength="0/1"  />
              </VectorParam>
              <VectorParam id="480"  name="shear">
               <InterpolatingParam id="481" interp="linr"  time="-9999999/1" value="0" leadInLength="0/1"  />
               <InterpolatingParam id="482" interp="linr"  time="-9999999/1" value="0" leadInLength="0/1"  />
               <InterpolatingParam id="483" interp="linr"  time="-9999999/1" value="0" leadInLength="0/1"  />
              </VectorParam>
              <VectorParam id="484"  name="scale">
               <InterpolatingParam id="485" interp="linr"  time="-9999999/1" value="1" leadInLength="0/1"  />
               <InterpolatingParam id="486" interp="linr"  time="-9999999/1" value="1" leadInLength="0/1"  />
               <InterpolatingParam id="487" interp="linr"  time="-9999999/1" value="1" leadInLength="0/1"  />
              </VectorParam>
              <VectorParam id="488"  name="anchor">
               <InterpolatingParam id="489" interp="linr"  time="0/1" value="0" leadInLength="0/1"  />
               <InterpolatingParam id="490" interp="linr"  time="0/1" value="0" leadInLength="0/1"  />
               <InterpolatingParam id="491" interp="linr"  time="0/1" value="0" leadInLength="0/1"  />
              </VectorParam>
             </Transformer>
             <Parameters>
              <VectorParam id="492"  name="sourceCrop">
               <InterpolatingParam id="493" interp="linr"  time="0/1" value="0" leadInLength="0/1"  />
               <InterpolatingParam id="494" interp="linr"  time="0/1" value="0" leadInLength="0/1"  />
               <InterpolatingParam id="495" interp="linr"  time="0/1" value="0" leadInLength="0/1"  />
               <InterpolatingParam id="496" interp="linr"  time="0/1" value="0" leadInLength="0/1"  />
              </VectorParam>
              <VectorParam id="497"  name="geometryCrop">
               <InterpolatingParam id="498" interp="linr"  time="-9999999/1" value="0" leadInLength="0/1"  />
               <InterpolatingParam id="499" interp="linr"  time="-9999999/1" value="0" leadInLength="0/1"  />
               <InterpolatingParam id="500" interp="linr"  time="-9999999/1" value="0" leadInLength="0/1"  />
               <InterpolatingParam id="501" interp="linr"  time="-9999999/1" value="0" leadInLength="0/1"  />
              </VectorParam>
              <InterpolatingParam id="502" interp="linr"  time="-9999999/1" value="1" leadInLength="0/1"  name="opacity"/>
             </Parameters>
             <Attributes>
              <Attribute id="503" value="" name="ident"/>
             </Attributes>
             <ExtraData>
              <Entry key="ZoomPanBin">
               <ZoomPanBin id="504"  >
                <ZoomPanKeyframes>
                 <ZoomPanKeyframe id="505" timeRangeEnd="-9999999/1" timeRangeDuration="0/1" interpolaterName=""  />
                </ZoomPanKeyframes>
               </ZoomPanBin>
              </Entry>
             </ExtraData>
            </VMFile>
            <MetaData>
             <entry key="WinSubProjectDisplayName" val=""/>
            </MetaData>
           </UnifiedMedia>
           <UnifiedMedia id="506"  >
            <AMFile id="507" start="1913" duration="70" scalar="1/1" mediaStart="2386/1" mediaDuration="70/1" trackNumber="2" src="4" channelNumber="0,1" >
             <Parameters>
              <InterpolatingParam id="508" interp="linr"  time="0/1" value="1" leadInLength="0/1"  name="volume"/>
              <Parameter id="509"  name="captions"/>
             </Parameters>
             <Attributes>
              <Attribute id="510" value="" name="ident"/>
              <Attribute id="511" value="44100" name="sampleRate"/>
              <Attribute id="512" value="16" name="bitDepth"/>
              <Attribute id="513" value="1" name="gain"/>
              <Attribute id="514" value="0" name="mixToMono"/>
             </Attributes>
            </AMFile>
            <VMFile id="515" start="1913" duration="70" scalar="1/1" mediaStart="2386/1" mediaDuration="70/1" trackNumber="1" src="4" >
             <Transformer>
              <VectorParam id="516"  name="translation">
               <InterpolatingParam id="517" interp="linr"  time="-9999999/1" value="0" leadInLength="0/1"  />
               <InterpolatingParam id="518" interp="linr"  time="-9999999/1" value="0" leadInLength="0/1"  />
               <InterpolatingParam id="519" interp="linr"  time="-9999999/1" value="0" leadInLength="0/1"  />
              </VectorParam>
              <VectorParam id="520"  name="rotation">
               <InterpolatingParam id="521" interp="linr"  time="-9999999/1" value="0" leadInLength="0/1"  />
               <InterpolatingParam id="522" interp="linr"  time="-9999999/1" value="0" leadInLength="0/1"  />
               <InterpolatingParam id="523" interp="linr"  time="-9999999/1" value="0" leadInLength="0/1"  />
              </VectorParam>
              <VectorParam id="524"  name="shear">
               <InterpolatingParam id="525" interp="linr"  time="-9999999/1" value="0" leadInLength="0/1"  />
               <InterpolatingParam id="526" interp="linr"  time="-9999999/1" value="0" leadInLength="0/1"  />
               <InterpolatingParam id="527" interp="linr"  time="-9999999/1" value="0" leadInLength="0/1"  />
              </VectorParam>
              <VectorParam id="528"  name="scale">
               <InterpolatingParam id="529" interp="linr"  time="-9999999/1" value="1" leadInLength="0/1"  />
               <InterpolatingParam id="530" interp="linr"  time="-9999999/1" value="1" leadInLength="0/1"  />
               <InterpolatingParam id="531" interp="linr"  time="-9999999/1" value="1" leadInLength="0/1"  />
              </VectorParam>
              <VectorParam id="532"  name="anchor">
               <InterpolatingParam id="533" interp="linr"  time="0/1" value="0" leadInLength="0/1"  />
               <InterpolatingParam id="534" interp="linr"  time="0/1" value="0" leadInLength="0/1"  />
               <InterpolatingParam id="535" interp="linr"  time="0/1" value="0" leadInLength="0/1"  />
              </VectorParam>
             </Transformer>
             <Parameters>
              <VectorParam id="536"  name="sourceCrop">
               <InterpolatingParam id="537" interp="linr"  time="0/1" value="0" leadInLength="0/1"  />
               <InterpolatingParam id="538" interp="linr"  time="0/1" value="0" leadInLength="0/1"  />
               <InterpolatingParam id="539" interp="linr"  time="0/1" value="0" leadInLength="0/1"  />
               <InterpolatingParam id="540" interp="linr"  time="0/1" value="0" leadInLength="0/1"  />
              </VectorParam>
              <VectorParam id="541"  name="geometryCrop">
               <InterpolatingParam id="542" interp="linr"  time="-9999999/1" value="0" leadInLength="0/1"  />
               <InterpolatingParam id="543" interp="linr"  time="-9999999/1" value="0" leadInLength="0/1"  />
               <InterpolatingParam id="544" interp="linr"  time="-9999999/1" value="0" leadInLength="0/1"  />
               <InterpolatingParam id="545" interp="linr"  time="-9999999/1" value="0" leadInLength="0/1"  />
              </VectorParam>
              <InterpolatingParam id="546" interp="linr"  time="-9999999/1" value="1" leadInLength="0/1"  name="opacity"/>
             </Parameters>
             <Attributes>
              <Attribute id="547" value="" name="ident"/>
             </Attributes>
             <ExtraData>
              <Entry key="ZoomPanBin">
               <ZoomPanBin id="548"  >
                <ZoomPanKeyframes>
                 <ZoomPanKeyframe id="549" timeRangeEnd="-9999999/1" timeRangeDuration="0/1" interpolaterName=""  />
                </ZoomPanKeyframes>
               </ZoomPanBin>
              </Entry>
             </ExtraData>
            </VMFile>
            <MetaData>
             <entry key="WinSubProjectDisplayName" val=""/>
            </MetaData>
           </UnifiedMedia>
           <UnifiedMedia id="550"  >
            <AMFile id="551" start="1983" duration="73" scalar="1/1" mediaStart="2501/1" mediaDuration="73/1" trackNumber="2" src="4" channelNumber="0,1" >
             <Parameters>
              <InterpolatingParam id="552" interp="linr"  time="0/1" value="1" leadInLength="0/1"  name="volume"/>
              <Parameter id="553"  name="captions"/>
             </Parameters>
             <Attributes>
              <Attribute id="554" value="" name="ident"/>
              <Attribute id="555" value="44100" name="sampleRate"/>
              <Attribute id="556" value="16" name="bitDepth"/>
              <Attribute id="557" value="1" name="gain"/>
              <Attribute id="558" value="0" name="mixToMono"/>
             </Attributes>
            </AMFile>
            <VMFile id="559" start="1983" duration="73" scalar="1/1" mediaStart="2501/1" mediaDuration="73/1" trackNumber="1" src="4" >
             <Transformer>
              <VectorParam id="560"  name="translation">
               <InterpolatingParam id="561" interp="linr"  time="-9999999/1" value="0" leadInLength="0/1"  />
               <InterpolatingParam id="562" interp="linr"  time="-9999999/1" value="0" leadInLength="0/1"  />
               <InterpolatingParam id="563" interp="linr"  time="-9999999/1" value="0" leadInLength="0/1"  />
              </VectorParam>
              <VectorParam id="564"  name="rotation">
               <InterpolatingParam id="565" interp="linr"  time="-9999999/1" value="0" leadInLength="0/1"  />
               <InterpolatingParam id="566" interp="linr"  time="-9999999/1" value="0" leadInLength="0/1"  />
               <InterpolatingParam id="567" interp="linr"  time="-9999999/1" value="0" leadInLength="0/1"  />
              </VectorParam>
              <VectorParam id="568"  name="shear">
               <InterpolatingParam id="569" interp="linr"  time="-9999999/1" value="0" leadInLength="0/1"  />
               <InterpolatingParam id="570" interp="linr"  time="-9999999/1" value="0" leadInLength="0/1"  />
               <InterpolatingParam id="571" interp="linr"  time="-9999999/1" value="0" leadInLength="0/1"  />
              </VectorParam>
              <VectorParam id="572"  name="scale">
               <InterpolatingParam id="573" interp="linr"  time="-9999999/1" value="1" leadInLength="0/1"  />
               <InterpolatingParam id="574" interp="linr"  time="-9999999/1" value="1" leadInLength="0/1"  />
               <InterpolatingParam id="575" interp="linr"  time="-9999999/1" value="1" leadInLength="0/1"  />
              </VectorParam>
              <VectorParam id="576"  name="anchor">
               <InterpolatingParam id="577" interp="linr"  time="0/1" value="0" leadInLength="0/1"  />
               <InterpolatingParam id="578" interp="linr"  time="0/1" value="0" leadInLength="0/1"  />
               <InterpolatingParam id="579" interp="linr"  time="0/1" value="0" leadInLength="0/1"  />
              </VectorParam>
             </Transformer>
             <Parameters>
              <VectorParam id="580"  name="sourceCrop">
               <InterpolatingParam id="581" interp="linr"  time="0/1" value="0" leadInLength="0/1"  />
               <InterpolatingParam id="582" interp="linr"  time="0/1" value="0" leadInLength="0/1"  />
               <InterpolatingParam id="583" interp="linr"  time="0/1" value="0" leadInLength="0/1"  />
               <InterpolatingParam id="584" interp="linr"  time="0/1" value="0" leadInLength="0/1"  />
              </VectorParam>
              <VectorParam id="585"  name="geometryCrop">
               <InterpolatingParam id="586" interp="linr"  time="-9999999/1" value="0" leadInLength="0/1"  />
               <InterpolatingParam id="587" interp="linr"  time="-9999999/1" value="0" leadInLength="0/1"  />
               <InterpolatingParam id="588" interp="linr"  time="-9999999/1" value="0" leadInLength="0/1"  />
               <InterpolatingParam id="589" interp="linr"  time="-9999999/1" value="0" leadInLength="0/1"  />
              </VectorParam>
              <InterpolatingParam id="590" interp="linr"  time="-9999999/1" value="1" leadInLength="0/1"  name="opacity"/>
             </Parameters>
             <Attributes>
              <Attribute id="591" value="" name="ident"/>
             </Attributes>
             <ExtraData>
              <Entry key="ZoomPanBin">
               <ZoomPanBin id="592"  >
                <ZoomPanKeyframes>
                 <ZoomPanKeyframe id="593" timeRangeEnd="-9999999/1" timeRangeDuration="0/1" interpolaterName=""  />
                </ZoomPanKeyframes>
               </ZoomPanBin>
              </Entry>
             </ExtraData>
            </VMFile>
            <MetaData>
             <entry key="WinSubProjectDisplayName" val=""/>
            </MetaData>
           </UnifiedMedia>
           <UnifiedMedia id="594"  >
            <AMFile id="595" start="2056" duration="125" scalar="1/1" mediaStart="2596/1" mediaDuration="125/1" trackNumber="2" src="4" channelNumber="0,1" >
             <Parameters>
              <InterpolatingParam id="596" interp="linr"  time="0/1" value="1" leadInLength="0/1"  name="volume"/>
              <Parameter id="597"  name="captions"/>
             </Parameters>
             <Attributes>
              <Attribute id="598" value="" name="ident"/>
              <Attribute id="599" value="44100" name="sampleRate"/>
              <Attribute id="600" value="16" name="bitDepth"/>
              <Attribute id="601" value="1" name="gain"/>
              <Attribute id="602" value="0" name="mixToMono"/>
             </Attributes>
            </AMFile>
            <VMFile id="603" start="2056" duration="125" scalar="1/1" mediaStart="2596/1" mediaDuration="125/1" trackNumber="1" src="4" >
             <Transformer>
              <VectorParam id="604"  name="translation">
               <InterpolatingParam id="605" interp="linr"  time="-9999999/1" value="0" leadInLength="0/1"  />
               <InterpolatingParam id="606" interp="linr"  time="-9999999/1" value="0" leadInLength="0/1"  />
               <InterpolatingParam id="607" interp="linr"  time="-9999999/1" value="0" leadInLength="0/1"  />
              </VectorParam>
              <VectorParam id="608"  name="rotation">
               <InterpolatingParam id="609" interp="linr"  time="-9999999/1" value="0" leadInLength="0/1"  />
               <InterpolatingParam id="610" interp="linr"  time="-9999999/1" value="0" leadInLength="0/1"  />
               <InterpolatingParam id="611" interp="linr"  time="-9999999/1" value="0" leadInLength="0/1"  />
              </VectorParam>
              <VectorParam id="612"  name="shear">
               <InterpolatingParam id="613" interp="linr"  time="-9999999/1" value="0" leadInLength="0/1"  />
               <InterpolatingParam id="614" interp="linr"  time="-9999999/1" value="0" leadInLength="0/1"  />
               <InterpolatingParam id="615" interp="linr"  time="-9999999/1" value="0" leadInLength="0/1"  />
              </VectorParam>
              <VectorParam id="616"  name="scale">
               <InterpolatingParam id="617" interp="linr"  time="-9999999/1" value="1" leadInLength="0/1"  />
               <InterpolatingParam id="618" interp="linr"  time="-9999999/1" value="1" leadInLength="0/1"  />
               <InterpolatingParam id="619" interp="linr"  time="-9999999/1" value="1" leadInLength="0/1"  />
              </VectorParam>
              <VectorParam id="620"  name="anchor">
               <InterpolatingParam id="621" interp="linr"  time="0/1" value="0" leadInLength="0/1"  />
               <InterpolatingParam id="622" interp="linr"  time="0/1" value="0" leadInLength="0/1"  />
               <InterpolatingParam id="623" interp="linr"  time="0/1" value="0" leadInLength="0/1"  />
              </VectorParam>
             </Transformer>
             <Parameters>
              <VectorParam id="624"  name="sourceCrop">
               <InterpolatingParam id="625" interp="linr"  time="0/1" value="0" leadInLength="0/1"  />
               <InterpolatingParam id="626" interp="linr"  time="0/1" value="0" leadInLength="0/1"  />
               <InterpolatingParam id="627" interp="linr"  time="0/1" value="0" leadInLength="0/1"  />
               <InterpolatingParam id="628" interp="linr"  time="0/1" value="0" leadInLength="0/1"  />
              </VectorParam>
              <VectorParam id="629"  name="geometryCrop">
               <InterpolatingParam id="630" interp="linr"  time="-9999999/1" value="0" leadInLength="0/1"  />
               <InterpolatingParam id="631" interp="linr"  time="-9999999/1" value="0" leadInLength="0/1"  />
               <InterpolatingParam id="632" interp="linr"  time="-9999999/1" value="0" leadInLength="0/1"  />
               <InterpolatingParam id="633" interp="linr"  time="-9999999/1" value="0" leadInLength="0/1"  />
              </VectorParam>
              <InterpolatingParam id="634" interp="linr"  time="-9999999/1" value="1" leadInLength="0/1"  name="opacity"/>
             </Parameters>
             <Attributes>
              <Attribute id="635" value="" name="ident"/>
             </Attributes>
             <ExtraData>
              <Entry key="ZoomPanBin">
               <ZoomPanBin id="636"  >
                <ZoomPanKeyframes>
                 <ZoomPanKeyframe id="637" timeRangeEnd="-9999999/1" timeRangeDuration="0/1" interpolaterName=""  />
                </ZoomPanKeyframes>
               </ZoomPanBin>
              </Entry>
             </ExtraData>
            </VMFile>
            <MetaData>
             <entry key="WinSubProjectDisplayName" val=""/>
            </MetaData>
           </UnifiedMedia>
           <UnifiedMedia id="638"  >
            <AMFile id="639" start="2181" duration="56" scalar="1/1" mediaStart="2729/1" mediaDuration="56/1" trackNumber="2" src="4" channelNumber="0,1" >
             <Parameters>
              <InterpolatingParam id="640" interp="linr"  time="0/1" value="1" leadInLength="0/1"  name="volume"/>
              <Parameter id="641"  name="captions"/>
             </Parameters>
             <Attributes>
              <Attribute id="642" value="" name="ident"/>
              <Attribute id="643" value="44100" name="sampleRate"/>
              <Attribute id="644" value="16" name="bitDepth"/>
              <Attribute id="645" value="1" name="gain"/>
              <Attribute id="646" value="0" name="mixToMono"/>
             </Attributes>
            </AMFile>
            <VMFile id="647" start="2181" duration="56" scalar="1/1" mediaStart="2729/1" mediaDuration="56/1" trackNumber="1" src="4" >
             <Transformer>
              <VectorParam id="648"  name="translation">
               <InterpolatingParam id="649" interp="linr"  time="-9999999/1" value="0" leadInLength="0/1"  />
               <InterpolatingParam id="650" interp="linr"  time="-9999999/1" value="0" leadInLength="0/1"  />
               <InterpolatingParam id="651" interp="linr"  time="-9999999/1" value="0" leadInLength="0/1"  />
              </VectorParam>
              <VectorParam id="652"  name="rotation">
               <InterpolatingParam id="653" interp="linr"  time="-9999999/1" value="0" leadInLength="0/1"  />
               <InterpolatingParam id="654" interp="linr"  time="-9999999/1" value="0" leadInLength="0/1"  />
               <InterpolatingParam id="655" interp="linr"  time="-9999999/1" value="0" leadInLength="0/1"  />
              </VectorParam>
              <VectorParam id="656"  name="shear">
               <InterpolatingParam id="657" interp="linr"  time="-9999999/1" value="0" leadInLength="0/1"  />
               <InterpolatingParam id="658" interp="linr"  time="-9999999/1" value="0" leadInLength="0/1"  />
               <InterpolatingParam id="659" interp="linr"  time="-9999999/1" value="0" leadInLength="0/1"  />
              </VectorParam>
              <VectorParam id="660"  name="scale">
               <InterpolatingParam id="661" interp="linr"  time="-9999999/1" value="1" leadInLength="0/1"  />
               <InterpolatingParam id="662" interp="linr"  time="-9999999/1" value="1" leadInLength="0/1"  />
               <InterpolatingParam id="663" interp="linr"  time="-9999999/1" value="1" leadInLength="0/1"  />
              </VectorParam>
              <VectorParam id="664"  name="anchor">
               <InterpolatingParam id="665" interp="linr"  time="0/1" value="0" leadInLength="0/1"  />
               <InterpolatingParam id="666" interp="linr"  time="0/1" value="0" leadInLength="0/1"  />
               <InterpolatingParam id="667" interp="linr"  time="0/1" value="0" leadInLength="0/1"  />
              </VectorParam>
             </Transformer>
             <Parameters>
              <VectorParam id="668"  name="sourceCrop">
               <InterpolatingParam id="669" interp="linr"  time="0/1" value="0" leadInLength="0/1"  />
               <InterpolatingParam id="670" interp="linr"  time="0/1" value="0" leadInLength="0/1"  />
               <InterpolatingParam id="671" interp="linr"  time="0/1" value="0" leadInLength="0/1"  />
               <InterpolatingParam id="672" interp="linr"  time="0/1" value="0" leadInLength="0/1"  />
              </VectorParam>
              <VectorParam id="673"  name="geometryCrop">
               <InterpolatingParam id="674" interp="linr"  time="-9999999/1" value="0" leadInLength="0/1"  />
               <InterpolatingParam id="675" interp="linr"  time="-9999999/1" value="0" leadInLength="0/1"  />
               <InterpolatingParam id="676" interp="linr"  time="-9999999/1" value="0" leadInLength="0/1"  />
               <InterpolatingParam id="677" interp="linr"  time="-9999999/1" value="0" leadInLength="0/1"  />
              </VectorParam>
              <InterpolatingParam id="678" interp="linr"  time="-9999999/1" value="1" leadInLength="0/1"  name="opacity"/>
             </Parameters>
             <Attributes>
              <Attribute id="679" value="" name="ident"/>
             </Attributes>
             <ExtraData>
              <Entry key="ZoomPanBin">
               <ZoomPanBin id="680"  >
                <ZoomPanKeyframes>
                 <ZoomPanKeyframe id="681" timeRangeEnd="-9999999/1" timeRangeDuration="0/1" interpolaterName=""  />
                </ZoomPanKeyframes>
               </ZoomPanBin>
              </Entry>
             </ExtraData>
            </VMFile>
            <MetaData>
             <entry key="WinSubProjectDisplayName" val=""/>
            </MetaData>
           </UnifiedMedia>
           <UnifiedMedia id="682"  >
            <AMFile id="683" start="2237" duration="26" scalar="1/1" mediaStart="2801/1" mediaDuration="26/1" trackNumber="2" src="4" channelNumber="0,1" >
             <Parameters>
              <InterpolatingParam id="684" interp="linr"  time="0/1" value="1" leadInLength="0/1"  name="volume"/>
              <Parameter id="685"  name="captions"/>
             </Parameters>
             <Attributes>
              <Attribute id="686" value="" name="ident"/>
              <Attribute id="687" value="44100" name="sampleRate"/>
              <Attribute id="688" value="16" name="bitDepth"/>
              <Attribute id="689" value="1" name="gain"/>
              <Attribute id="690" value="0" name="mixToMono"/>
             </Attributes>
            </AMFile>
            <VMFile id="691" start="2237" duration="26" scalar="1/1" mediaStart="2801/1" mediaDuration="26/1" trackNumber="1" src="4" >
             <Transformer>
              <VectorParam id="692"  name="translation">
               <InterpolatingParam id="693" interp="linr"  time="-9999999/1" value="0" leadInLength="0/1"  />
               <InterpolatingParam id="694" interp="linr"  time="-9999999/1" value="0" leadInLength="0/1"  />
               <InterpolatingParam id="695" interp="linr"  time="-9999999/1" value="0" leadInLength="0/1"  />
              </VectorParam>
              <VectorParam id="696"  name="rotation">
               <InterpolatingParam id="697" interp="linr"  time="-9999999/1" value="0" leadInLength="0/1"  />
               <InterpolatingParam id="698" interp="linr"  time="-9999999/1" value="0" leadInLength="0/1"  />
               <InterpolatingParam id="699" interp="linr"  time="-9999999/1" value="0" leadInLength="0/1"  />
              </VectorParam>
              <VectorParam id="700"  name="shear">
               <InterpolatingParam id="701" interp="linr"  time="-9999999/1" value="0" leadInLength="0/1"  />
               <InterpolatingParam id="702" interp="linr"  time="-9999999/1" value="0" leadInLength="0/1"  />
               <InterpolatingParam id="703" interp="linr"  time="-9999999/1" value="0" leadInLength="0/1"  />
              </VectorParam>
              <VectorParam id="704"  name="scale">
               <InterpolatingParam id="705" interp="linr"  time="-9999999/1" value="1" leadInLength="0/1"  />
               <InterpolatingParam id="706" interp="linr"  time="-9999999/1" value="1" leadInLength="0/1"  />
               <InterpolatingParam id="707" interp="linr"  time="-9999999/1" value="1" leadInLength="0/1"  />
              </VectorParam>
              <VectorParam id="708"  name="anchor">
               <InterpolatingParam id="709" interp="linr"  time="0/1" value="0" leadInLength="0/1"  />
               <InterpolatingParam id="710" interp="linr"  time="0/1" value="0" leadInLength="0/1"  />
               <InterpolatingParam id="711" interp="linr"  time="0/1" value="0" leadInLength="0/1"  />
              </VectorParam>
             </Transformer>
             <Parameters>
              <VectorParam id="712"  name="sourceCrop">
               <InterpolatingParam id="713" interp="linr"  time="0/1" value="0" leadInLength="0/1"  />
               <InterpolatingParam id="714" interp="linr"  time="0/1" value="0" leadInLength="0/1"  />
               <InterpolatingParam id="715" interp="linr"  time="0/1" value="0" leadInLength="0/1"  />
               <InterpolatingParam id="716" interp="linr"  time="0/1" value="0" leadInLength="0/1"  />
              </VectorParam>
              <VectorParam id="717"  name="geometryCrop">
               <InterpolatingParam id="718" interp="linr"  time="-9999999/1" value="0" leadInLength="0/1"  />
               <InterpolatingParam id="719" interp="linr"  time="-9999999/1" value="0" leadInLength="0/1"  />
               <InterpolatingParam id="720" interp="linr"  time="-9999999/1" value="0" leadInLength="0/1"  />
               <InterpolatingParam id="721" interp="linr"  time="-9999999/1" value="0" leadInLength="0/1"  />
              </VectorParam>
              <InterpolatingParam id="722" interp="linr"  time="-9999999/1" value="1" leadInLength="0/1"  name="opacity"/>
             </Parameters>
             <Attributes>
              <Attribute id="723" value="" name="ident"/>
             </Attributes>
             <ExtraData>
              <Entry key="ZoomPanBin">
               <ZoomPanBin id="724"  >
                <ZoomPanKeyframes>
                 <ZoomPanKeyframe id="725" timeRangeEnd="-9999999/1" timeRangeDuration="0/1" interpolaterName=""  />
                </ZoomPanKeyframes>
               </ZoomPanBin>
              </Entry>
             </ExtraData>
            </VMFile>
            <MetaData>
             <entry key="WinSubProjectDisplayName" val=""/>
            </MetaData>
           </UnifiedMedia>
           <UnifiedMedia id="726"  >
            <AMFile id="727" start="2263" duration="26" scalar="1/1" mediaStart="2835/1" mediaDuration="26/1" trackNumber="2" src="4" channelNumber="0,1" >
             <Parameters>
              <InterpolatingParam id="728" interp="linr"  time="0/1" value="1" leadInLength="0/1"  name="volume"/>
              <Parameter id="729"  name="captions"/>
             </Parameters>
             <Attributes>
              <Attribute id="730" value="" name="ident"/>
              <Attribute id="731" value="44100" name="sampleRate"/>
              <Attribute id="732" value="16" name="bitDepth"/>
              <Attribute id="733" value="1" name="gain"/>
              <Attribute id="734" value="0" name="mixToMono"/>
             </Attributes>
            </AMFile>
            <VMFile id="735" start="2263" duration="26" scalar="1/1" mediaStart="2835/1" mediaDuration="26/1" trackNumber="1" src="4" >
             <Transformer>
              <VectorParam id="736"  name="translation">
               <InterpolatingParam id="737" interp="linr"  time="-9999999/1" value="0" leadInLength="0/1"  />
               <InterpolatingParam id="738" interp="linr"  time="-9999999/1" value="0" leadInLength="0/1"  />
               <InterpolatingParam id="739" interp="linr"  time="-9999999/1" value="0" leadInLength="0/1"  />
              </VectorParam>
              <VectorParam id="740"  name="rotation">
               <InterpolatingParam id="741" interp="linr"  time="-9999999/1" value="0" leadInLength="0/1"  />
               <InterpolatingParam id="742" interp="linr"  time="-9999999/1" value="0" leadInLength="0/1"  />
               <InterpolatingParam id="743" interp="linr"  time="-9999999/1" value="0" leadInLength="0/1"  />
              </VectorParam>
              <VectorParam id="744"  name="shear">
               <InterpolatingParam id="745" interp="linr"  time="-9999999/1" value="0" leadInLength="0/1"  />
               <InterpolatingParam id="746" interp="linr"  time="-9999999/1" value="0" leadInLength="0/1"  />
               <InterpolatingParam id="747" interp="linr"  time="-9999999/1" value="0" leadInLength="0/1"  />
              </VectorParam>
              <VectorParam id="748"  name="scale">
               <InterpolatingParam id="749" interp="linr"  time="-9999999/1" value="1" leadInLength="0/1"  />
               <InterpolatingParam id="750" interp="linr"  time="-9999999/1" value="1" leadInLength="0/1"  />
               <InterpolatingParam id="751" interp="linr"  time="-9999999/1" value="1" leadInLength="0/1"  />
              </VectorParam>
              <VectorParam id="752"  name="anchor">
               <InterpolatingParam id="753" interp="linr"  time="0/1" value="0" leadInLength="0/1"  />
               <InterpolatingParam id="754" interp="linr"  time="0/1" value="0" leadInLength="0/1"  />
               <InterpolatingParam id="755" interp="linr"  time="0/1" value="0" leadInLength="0/1"  />
              </VectorParam>
             </Transformer>
             <Parameters>
              <VectorParam id="756"  name="sourceCrop">
               <InterpolatingParam id="757" interp="linr"  time="0/1" value="0" leadInLength="0/1"  />
               <InterpolatingParam id="758" interp="linr"  time="0/1" value="0" leadInLength="0/1"  />
               <InterpolatingParam id="759" interp="linr"  time="0/1" value="0" leadInLength="0/1"  />
               <InterpolatingParam id="760" interp="linr"  time="0/1" value="0" leadInLength="0/1"  />
              </VectorParam>
              <VectorParam id="761"  name="geometryCrop">
               <InterpolatingParam id="762" interp="linr"  time="-9999999/1" value="0" leadInLength="0/1"  />
               <InterpolatingParam id="763" interp="linr"  time="-9999999/1" value="0" leadInLength="0/1"  />
               <InterpolatingParam id="764" interp="linr"  time="-9999999/1" value="0" leadInLength="0/1"  />
               <InterpolatingParam id="765" interp="linr"  time="-9999999/1" value="0" leadInLength="0/1"  />
              </VectorParam>
              <InterpolatingParam id="766" interp="linr"  time="-9999999/1" value="1" leadInLength="0/1"  name="opacity"/>
             </Parameters>
             <Attributes>
              <Attribute id="767" value="" name="ident"/>
             </Attributes>
             <ExtraData>
              <Entry key="ZoomPanBin">
               <ZoomPanBin id="768"  >
                <ZoomPanKeyframes>
                 <ZoomPanKeyframe id="769" timeRangeEnd="-9999999/1" timeRangeDuration="0/1" interpolaterName=""  />
                </ZoomPanKeyframes>
               </ZoomPanBin>
              </Entry>
             </ExtraData>
            </VMFile>
            <MetaData>
             <entry key="WinSubProjectDisplayName" val=""/>
            </MetaData>
           </UnifiedMedia>
           <UnifiedMedia id="770"  >
            <AMFile id="771" start="2289" duration="31" scalar="1/1" mediaStart="2868/1" mediaDuration="31/1" trackNumber="2" src="4" channelNumber="0,1" >
             <Parameters>
              <InterpolatingParam id="772" interp="linr"  time="0/1" value="1" leadInLength="0/1"  name="volume"/>
              <Parameter id="773"  name="captions"/>
             </Parameters>
             <Attributes>
              <Attribute id="774" value="" name="ident"/>
              <Attribute id="775" value="44100" name="sampleRate"/>
              <Attribute id="776" value="16" name="bitDepth"/>
              <Attribute id="777" value="1" name="gain"/>
              <Attribute id="778" value="0" name="mixToMono"/>
             </Attributes>
            </AMFile>
            <VMFile id="779" start="2289" duration="31" scalar="1/1" mediaStart="2868/1" mediaDuration="31/1" trackNumber="1" src="4" >
             <Transformer>
              <VectorParam id="780"  name="translation">
               <InterpolatingParam id="781" interp="linr"  time="-9999999/1" value="0" leadInLength="0/1"  />
               <InterpolatingParam id="782" interp="linr"  time="-9999999/1" value="0" leadInLength="0/1"  />
               <InterpolatingParam id="783" interp="linr"  time="-9999999/1" value="0" leadInLength="0/1"  />
              </VectorParam>
              <VectorParam id="784"  name="rotation">
               <InterpolatingParam id="785" interp="linr"  time="-9999999/1" value="0" leadInLength="0/1"  />
               <InterpolatingParam id="786" interp="linr"  time="-9999999/1" value="0" leadInLength="0/1"  />
               <InterpolatingParam id="787" interp="linr"  time="-9999999/1" value="0" leadInLength="0/1"  />
              </VectorParam>
              <VectorParam id="788"  name="shear">
               <InterpolatingParam id="789" interp="linr"  time="-9999999/1" value="0" leadInLength="0/1"  />
               <InterpolatingParam id="790" interp="linr"  time="-9999999/1" value="0" leadInLength="0/1"  />
               <InterpolatingParam id="791" interp="linr"  time="-9999999/1" value="0" leadInLength="0/1"  />
              </VectorParam>
              <VectorParam id="792"  name="scale">
               <InterpolatingParam id="793" interp="linr"  time="-9999999/1" value="1" leadInLength="0/1"  />
               <InterpolatingParam id="794" interp="linr"  time="-9999999/1" value="1" leadInLength="0/1"  />
               <InterpolatingParam id="795" interp="linr"  time="-9999999/1" value="1" leadInLength="0/1"  />
              </VectorParam>
              <VectorParam id="796"  name="anchor">
               <InterpolatingParam id="797" interp="linr"  time="0/1" value="0" leadInLength="0/1"  />
               <InterpolatingParam id="798" interp="linr"  time="0/1" value="0" leadInLength="0/1"  />
               <InterpolatingParam id="799" interp="linr"  time="0/1" value="0" leadInLength="0/1"  />
              </VectorParam>
             </Transformer>
             <Parameters>
              <VectorParam id="800"  name="sourceCrop">
               <InterpolatingParam id="801" interp="linr"  time="0/1" value="0" leadInLength="0/1"  />
               <InterpolatingParam id="802" interp="linr"  time="0/1" value="0" leadInLength="0/1"  />
               <InterpolatingParam id="803" interp="linr"  time="0/1" value="0" leadInLength="0/1"  />
               <InterpolatingParam id="804" interp="linr"  time="0/1" value="0" leadInLength="0/1"  />
              </VectorParam>
              <VectorParam id="805"  name="geometryCrop">
               <InterpolatingParam id="806" interp="linr"  time="-9999999/1" value="0" leadInLength="0/1"  />
               <InterpolatingParam id="807" interp="linr"  time="-9999999/1" value="0" leadInLength="0/1"  />
               <InterpolatingParam id="808" interp="linr"  time="-9999999/1" value="0" leadInLength="0/1"  />
               <InterpolatingParam id="809" interp="linr"  time="-9999999/1" value="0" leadInLength="0/1"  />
              </VectorParam>
              <InterpolatingParam id="810" interp="linr"  time="-9999999/1" value="1" leadInLength="0/1"  name="opacity"/>
             </Parameters>
             <Attributes>
              <Attribute id="811" value="" name="ident"/>
             </Attributes>
             <ExtraData>
              <Entry key="ZoomPanBin">
               <ZoomPanBin id="812"  >
                <ZoomPanKeyframes>
                 <ZoomPanKeyframe id="813" timeRangeEnd="-9999999/1" timeRangeDuration="0/1" interpolaterName=""  />
                </ZoomPanKeyframes>
               </ZoomPanBin>
              </Entry>
             </ExtraData>
            </VMFile>
            <MetaData>
             <entry key="WinSubProjectDisplayName" val=""/>
            </MetaData>
           </UnifiedMedia>
           <UnifiedMedia id="814"  >
            <AMFile id="815" start="2320" duration="49" scalar="1/1" mediaStart="2908/1" mediaDuration="49/1" trackNumber="2" src="4" channelNumber="0,1" >
             <Parameters>
              <InterpolatingParam id="816" interp="linr"  time="0/1" value="1" leadInLength="0/1"  name="volume"/>
              <Parameter id="817"  name="captions"/>
             </Parameters>
             <Attributes>
              <Attribute id="818" value="" name="ident"/>
              <Attribute id="819" value="44100" name="sampleRate"/>
              <Attribute id="820" value="16" name="bitDepth"/>
              <Attribute id="821" value="1" name="gain"/>
              <Attribute id="822" value="0" name="mixToMono"/>
             </Attributes>
            </AMFile>
            <VMFile id="823" start="2320" duration="49" scalar="1/1" mediaStart="2908/1" mediaDuration="49/1" trackNumber="1" src="4" >
             <Transformer>
              <VectorParam id="824"  name="translation">
               <InterpolatingParam id="825" interp="linr"  time="-9999999/1" value="0" leadInLength="0/1"  />
               <InterpolatingParam id="826" interp="linr"  time="-9999999/1" value="0" leadInLength="0/1"  />
               <InterpolatingParam id="827" interp="linr"  time="-9999999/1" value="0" leadInLength="0/1"  />
              </VectorParam>
              <VectorParam id="828"  name="rotation">
               <InterpolatingParam id="829" interp="linr"  time="-9999999/1" value="0" leadInLength="0/1"  />
               <InterpolatingParam id="830" interp="linr"  time="-9999999/1" value="0" leadInLength="0/1"  />
               <InterpolatingParam id="831" interp="linr"  time="-9999999/1" value="0" leadInLength="0/1"  />
              </VectorParam>
              <VectorParam id="832"  name="shear">
               <InterpolatingParam id="833" interp="linr"  time="-9999999/1" value="0" leadInLength="0/1"  />
               <InterpolatingParam id="834" interp="linr"  time="-9999999/1" value="0" leadInLength="0/1"  />
               <InterpolatingParam id="835" interp="linr"  time="-9999999/1" value="0" leadInLength="0/1"  />
              </VectorParam>
              <VectorParam id="836"  name="scale">
               <InterpolatingParam id="837" interp="linr"  time="-9999999/1" value="1" leadInLength="0/1"  />
               <InterpolatingParam id="838" interp="linr"  time="-9999999/1" value="1" leadInLength="0/1"  />
               <InterpolatingParam id="839" interp="linr"  time="-9999999/1" value="1" leadInLength="0/1"  />
              </VectorParam>
              <VectorParam id="840"  name="anchor">
               <InterpolatingParam id="841" interp="linr"  time="0/1" value="0" leadInLength="0/1"  />
               <InterpolatingParam id="842" interp="linr"  time="0/1" value="0" leadInLength="0/1"  />
               <InterpolatingParam id="843" interp="linr"  time="0/1" value="0" leadInLength="0/1"  />
              </VectorParam>
             </Transformer>
             <Parameters>
              <VectorParam id="844"  name="sourceCrop">
               <InterpolatingParam id="845" interp="linr"  time="0/1" value="0" leadInLength="0/1"  />
               <InterpolatingParam id="846" interp="linr"  time="0/1" value="0" leadInLength="0/1"  />
               <InterpolatingParam id="847" interp="linr"  time="0/1" value="0" leadInLength="0/1"  />
               <InterpolatingParam id="848" interp="linr"  time="0/1" value="0" leadInLength="0/1"  />
              </VectorParam>
              <VectorParam id="849"  name="geometryCrop">
               <InterpolatingParam id="850" interp="linr"  time="-9999999/1" value="0" leadInLength="0/1"  />
               <InterpolatingParam id="851" interp="linr"  time="-9999999/1" value="0" leadInLength="0/1"  />
               <InterpolatingParam id="852" interp="linr"  time="-9999999/1" value="0" leadInLength="0/1"  />
               <InterpolatingParam id="853" interp="linr"  time="-9999999/1" value="0" leadInLength="0/1"  />
              </VectorParam>
              <InterpolatingParam id="854" interp="linr"  time="-9999999/1" value="1" leadInLength="0/1"  name="opacity"/>
             </Parameters>
             <Attributes>
              <Attribute id="855" value="" name="ident"/>
             </Attributes>
             <ExtraData>
              <Entry key="ZoomPanBin">
               <ZoomPanBin id="856"  >
                <ZoomPanKeyframes>
                 <ZoomPanKeyframe id="857" timeRangeEnd="-9999999/1" timeRangeDuration="0/1" interpolaterName=""  />
                </ZoomPanKeyframes>
               </ZoomPanBin>
              </Entry>
             </ExtraData>
            </VMFile>
            <MetaData>
             <entry key="WinSubProjectDisplayName" val=""/>
            </MetaData>
           </UnifiedMedia>
           <UnifiedMedia id="858"  >
            <AMFile id="859" start="2369" duration="205" scalar="1/1" mediaStart="2995/1" mediaDuration="205/1" trackNumber="2" src="4" channelNumber="0,1" >
             <Parameters>
              <InterpolatingParam id="860" interp="linr"  time="0/1" value="1" leadInLength="0/1"  name="volume"/>
              <Parameter id="861"  name="captions"/>
             </Parameters>
             <Attributes>
              <Attribute id="862" value="" name="ident"/>
              <Attribute id="863" value="44100" name="sampleRate"/>
              <Attribute id="864" value="16" name="bitDepth"/>
              <Attribute id="865" value="1" name="gain"/>
              <Attribute id="866" value="0" name="mixToMono"/>
             </Attributes>
            </AMFile>
            <VMFile id="867" start="2369" duration="205" scalar="1/1" mediaStart="2995/1" mediaDuration="205/1" trackNumber="1" src="4" >
             <Transformer>
              <VectorParam id="868"  name="translation">
               <InterpolatingParam id="869" interp="linr"  time="-9999999/1" value="0" leadInLength="0/1"  />
               <InterpolatingParam id="870" interp="linr"  time="-9999999/1" value="0" leadInLength="0/1"  />
               <InterpolatingParam id="871" interp="linr"  time="-9999999/1" value="0" leadInLength="0/1"  />
              </VectorParam>
              <VectorParam id="872"  name="rotation">
               <InterpolatingParam id="873" interp="linr"  time="-9999999/1" value="0" leadInLength="0/1"  />
               <InterpolatingParam id="874" interp="linr"  time="-9999999/1" value="0" leadInLength="0/1"  />
               <InterpolatingParam id="875" interp="linr"  time="-9999999/1" value="0" leadInLength="0/1"  />
              </VectorParam>
              <VectorParam id="876"  name="shear">
               <InterpolatingParam id="877" interp="linr"  time="-9999999/1" value="0" leadInLength="0/1"  />
               <InterpolatingParam id="878" interp="linr"  time="-9999999/1" value="0" leadInLength="0/1"  />
               <InterpolatingParam id="879" interp="linr"  time="-9999999/1" value="0" leadInLength="0/1"  />
              </VectorParam>
              <VectorParam id="880"  name="scale">
               <InterpolatingParam id="881" interp="linr"  time="-9999999/1" value="1" leadInLength="0/1"  />
               <InterpolatingParam id="882" interp="linr"  time="-9999999/1" value="1" leadInLength="0/1"  />
               <InterpolatingParam id="883" interp="linr"  time="-9999999/1" value="1" leadInLength="0/1"  />
              </VectorParam>
              <VectorParam id="884"  name="anchor">
               <InterpolatingParam id="885" interp="linr"  time="0/1" value="0" leadInLength="0/1"  />
               <InterpolatingParam id="886" interp="linr"  time="0/1" value="0" leadInLength="0/1"  />
               <InterpolatingParam id="887" interp="linr"  time="0/1" value="0" leadInLength="0/1"  />
              </VectorParam>
             </Transformer>
             <Parameters>
              <VectorParam id="888"  name="sourceCrop">
               <InterpolatingParam id="889" interp="linr"  time="0/1" value="0" leadInLength="0/1"  />
               <InterpolatingParam id="890" interp="linr"  time="0/1" value="0" leadInLength="0/1"  />
               <InterpolatingParam id="891" interp="linr"  time="0/1" value="0" leadInLength="0/1"  />
               <InterpolatingParam id="892" interp="linr"  time="0/1" value="0" leadInLength="0/1"  />
              </VectorParam>
              <VectorParam id="893"  name="geometryCrop">
               <InterpolatingParam id="894" interp="linr"  time="-9999999/1" value="0" leadInLength="0/1"  />
               <InterpolatingParam id="895" interp="linr"  time="-9999999/1" value="0" leadInLength="0/1"  />
               <InterpolatingParam id="896" interp="linr"  time="-9999999/1" value="0" leadInLength="0/1"  />
               <InterpolatingParam id="897" interp="linr"  time="-9999999/1" value="0" leadInLength="0/1"  />
              </VectorParam>
              <InterpolatingParam id="898" interp="linr"  time="-9999999/1" value="1" leadInLength="0/1"  name="opacity"/>
             </Parameters>
             <Attributes>
              <Attribute id="899" value="" name="ident"/>
             </Attributes>
             <ExtraData>
              <Entry key="ZoomPanBin">
               <ZoomPanBin id="900"  >
                <ZoomPanKeyframes>
                 <ZoomPanKeyframe id="901" timeRangeEnd="-9999999/1" timeRangeDuration="0/1" interpolaterName=""  />
                </ZoomPanKeyframes>
               </ZoomPanBin>
              </Entry>
             </ExtraData>
            </VMFile>
            <MetaData>
             <entry key="WinSubProjectDisplayName" val=""/>
            </MetaData>
           </UnifiedMedia>
           <UnifiedMedia id="902"  >
            <AMFile id="903" start="2574" duration="146" scalar="1/1" mediaStart="3214/1" mediaDuration="146/1" trackNumber="2" src="4" channelNumber="0,1" >
             <Parameters>
              <InterpolatingParam id="904" interp="linr"  time="0/1" value="1" leadInLength="0/1"  name="volume"/>
              <Parameter id="905"  name="captions"/>
             </Parameters>
             <Attributes>
              <Attribute id="906" value="" name="ident"/>
              <Attribute id="907" value="44100" name="sampleRate"/>
              <Attribute id="908" value="16" name="bitDepth"/>
              <Attribute id="909" value="1" name="gain"/>
              <Attribute id="910" value="0" name="mixToMono"/>
             </Attributes>
            </AMFile>
            <VMFile id="911" start="2574" duration="146" scalar="1/1" mediaStart="3214/1" mediaDuration="146/1" trackNumber="1" src="4" >
             <Transformer>
              <VectorParam id="912"  name="translation">
               <InterpolatingParam id="913" interp="linr"  time="-9999999/1" value="0" leadInLength="0/1"  />
               <InterpolatingParam id="914" interp="linr"  time="-9999999/1" value="0" leadInLength="0/1"  />
               <InterpolatingParam id="915" interp="linr"  time="-9999999/1" value="0" leadInLength="0/1"  />
              </VectorParam>
              <VectorParam id="916"  name="rotation">
               <InterpolatingParam id="917" interp="linr"  time="-9999999/1" value="0" leadInLength="0/1"  />
               <InterpolatingParam id="918" interp="linr"  time="-9999999/1" value="0" leadInLength="0/1"  />
               <InterpolatingParam id="919" interp="linr"  time="-9999999/1" value="0" leadInLength="0/1"  />
              </VectorParam>
              <VectorParam id="920"  name="shear">
               <InterpolatingParam id="921" interp="linr"  time="-9999999/1" value="0" leadInLength="0/1"  />
               <InterpolatingParam id="922" interp="linr"  time="-9999999/1" value="0" leadInLength="0/1"  />
               <InterpolatingParam id="923" interp="linr"  time="-9999999/1" value="0" leadInLength="0/1"  />
              </VectorParam>
              <VectorParam id="924"  name="scale">
               <InterpolatingParam id="925" interp="linr"  time="-9999999/1" value="1" leadInLength="0/1"  />
               <InterpolatingParam id="926" interp="linr"  time="-9999999/1" value="1" leadInLength="0/1"  />
               <InterpolatingParam id="927" interp="linr"  time="-9999999/1" value="1" leadInLength="0/1"  />
              </VectorParam>
              <VectorParam id="928"  name="anchor">
               <InterpolatingParam id="929" interp="linr"  time="0/1" value="0" leadInLength="0/1"  />
               <InterpolatingParam id="930" interp="linr"  time="0/1" value="0" leadInLength="0/1"  />
               <InterpolatingParam id="931" interp="linr"  time="0/1" value="0" leadInLength="0/1"  />
              </VectorParam>
             </Transformer>
             <Parameters>
              <VectorParam id="932"  name="sourceCrop">
               <InterpolatingParam id="933" interp="linr"  time="0/1" value="0" leadInLength="0/1"  />
               <InterpolatingParam id="934" interp="linr"  time="0/1" value="0" leadInLength="0/1"  />
               <InterpolatingParam id="935" interp="linr"  time="0/1" value="0" leadInLength="0/1"  />
               <InterpolatingParam id="936" interp="linr"  time="0/1" value="0" leadInLength="0/1"  />
              </VectorParam>
              <VectorParam id="937"  name="geometryCrop">
               <InterpolatingParam id="938" interp="linr"  time="-9999999/1" value="0" leadInLength="0/1"  />
               <InterpolatingParam id="939" interp="linr"  time="-9999999/1" value="0" leadInLength="0/1"  />
               <InterpolatingParam id="940" interp="linr"  time="-9999999/1" value="0" leadInLength="0/1"  />
               <InterpolatingParam id="941" interp="linr"  time="-9999999/1" value="0" leadInLength="0/1"  />
              </VectorParam>
              <InterpolatingParam id="942" interp="linr"  time="-9999999/1" value="1" leadInLength="0/1"  name="opacity"/>
             </Parameters>
             <Attributes>
              <Attribute id="943" value="" name="ident"/>
             </Attributes>
             <ExtraData>
              <Entry key="ZoomPanBin">
               <ZoomPanBin id="944"  >
                <ZoomPanKeyframes>
                 <ZoomPanKeyframe id="945" timeRangeEnd="-9999999/1" timeRangeDuration="0/1" interpolaterName=""  />
                </ZoomPanKeyframes>
               </ZoomPanBin>
              </Entry>
             </ExtraData>
            </VMFile>
            <MetaData>
             <entry key="WinSubProjectDisplayName" val=""/>
            </MetaData>
           </UnifiedMedia>
           <UnifiedMedia id="946"  >
            <AMFile id="947" start="2720" duration="40" scalar="1/1" mediaStart="3373/1" mediaDuration="40/1" trackNumber="2" src="4" channelNumber="0,1" >
             <Parameters>
              <InterpolatingParam id="948" interp="linr"  time="0/1" value="1" leadInLength="0/1"  name="volume"/>
              <Parameter id="949"  name="captions"/>
             </Parameters>
             <Attributes>
              <Attribute id="950" value="" name="ident"/>
              <Attribute id="951" value="44100" name="sampleRate"/>
              <Attribute id="952" value="16" name="bitDepth"/>
              <Attribute id="953" value="1" name="gain"/>
              <Attribute id="954" value="0" name="mixToMono"/>
             </Attributes>
            </AMFile>
            <VMFile id="955" start="2720" duration="40" scalar="1/1" mediaStart="3373/1" mediaDuration="40/1" trackNumber="1" src="4" >
             <Transformer>
              <VectorParam id="956"  name="translation">
               <InterpolatingParam id="957" interp="linr"  time="-9999999/1" value="0" leadInLength="0/1"  />
               <InterpolatingParam id="958" interp="linr"  time="-9999999/1" value="0" leadInLength="0/1"  />
               <InterpolatingParam id="959" interp="linr"  time="-9999999/1" value="0" leadInLength="0/1"  />
              </VectorParam>
              <VectorParam id="960"  name="rotation">
               <InterpolatingParam id="961" interp="linr"  time="-9999999/1" value="0" leadInLength="0/1"  />
               <InterpolatingParam id="962" interp="linr"  time="-9999999/1" value="0" leadInLength="0/1"  />
               <InterpolatingParam id="963" interp="linr"  time="-9999999/1" value="0" leadInLength="0/1"  />
              </VectorParam>
              <VectorParam id="964"  name="shear">
               <InterpolatingParam id="965" interp="linr"  time="-9999999/1" value="0" leadInLength="0/1"  />
               <InterpolatingParam id="966" interp="linr"  time="-9999999/1" value="0" leadInLength="0/1"  />
               <InterpolatingParam id="967" interp="linr"  time="-9999999/1" value="0" leadInLength="0/1"  />
              </VectorParam>
              <VectorParam id="968"  name="scale">
               <InterpolatingParam id="969" interp="linr"  time="-9999999/1" value="1" leadInLength="0/1"  />
               <InterpolatingParam id="970" interp="linr"  time="-9999999/1" value="1" leadInLength="0/1"  />
               <InterpolatingParam id="971" interp="linr"  time="-9999999/1" value="1" leadInLength="0/1"  />
              </VectorParam>
              <VectorParam id="972"  name="anchor">
               <InterpolatingParam id="973" interp="linr"  time="0/1" value="0" leadInLength="0/1"  />
               <InterpolatingParam id="974" interp="linr"  time="0/1" value="0" leadInLength="0/1"  />
               <InterpolatingParam id="975" interp="linr"  time="0/1" value="0" leadInLength="0/1"  />
              </VectorParam>
             </Transformer>
             <Parameters>
              <VectorParam id="976"  name="sourceCrop">
               <InterpolatingParam id="977" interp="linr"  time="0/1" value="0" leadInLength="0/1"  />
               <InterpolatingParam id="978" interp="linr"  time="0/1" value="0" leadInLength="0/1"  />
               <InterpolatingParam id="979" interp="linr"  time="0/1" value="0" leadInLength="0/1"  />
               <InterpolatingParam id="980" interp="linr"  time="0/1" value="0" leadInLength="0/1"  />
              </VectorParam>
              <VectorParam id="981"  name="geometryCrop">
               <InterpolatingParam id="982" interp="linr"  time="-9999999/1" value="0" leadInLength="0/1"  />
               <InterpolatingParam id="983" interp="linr"  time="-9999999/1" value="0" leadInLength="0/1"  />
               <InterpolatingParam id="984" interp="linr"  time="-9999999/1" value="0" leadInLength="0/1"  />
               <InterpolatingParam id="985" interp="linr"  time="-9999999/1" value="0" leadInLength="0/1"  />
              </VectorParam>
              <InterpolatingParam id="986" interp="linr"  time="-9999999/1" value="1" leadInLength="0/1"  name="opacity"/>
             </Parameters>
             <Attributes>
              <Attribute id="987" value="" name="ident"/>
             </Attributes>
             <ExtraData>
              <Entry key="ZoomPanBin">
               <ZoomPanBin id="988"  >
                <ZoomPanKeyframes>
                 <ZoomPanKeyframe id="989" timeRangeEnd="-9999999/1" timeRangeDuration="0/1" interpolaterName=""  />
                </ZoomPanKeyframes>
               </ZoomPanBin>
              </Entry>
             </ExtraData>
            </VMFile>
            <MetaData>
             <entry key="WinSubProjectDisplayName" val=""/>
            </MetaData>
           </UnifiedMedia>
           <UnifiedMedia id="990"  >
            <AMFile id="991" start="2760" duration="46" scalar="1/1" mediaStart="3422/1" mediaDuration="46/1" trackNumber="2" src="4" channelNumber="0,1" >
             <Parameters>
              <InterpolatingParam id="992" interp="linr"  time="0/1" value="1" leadInLength="0/1"  name="volume"/>
              <Parameter id="993"  name="captions"/>
             </Parameters>
             <Attributes>
              <Attribute id="994" value="" name="ident"/>
              <Attribute id="995" value="44100" name="sampleRate"/>
              <Attribute id="996" value="16" name="bitDepth"/>
              <Attribute id="997" value="1" name="gain"/>
              <Attribute id="998" value="0" name="mixToMono"/>
             </Attributes>
            </AMFile>
            <VMFile id="999" start="2760" duration="46" scalar="1/1" mediaStart="3422/1" mediaDuration="46/1" trackNumber="1" src="4" >
             <Transformer>
              <VectorParam id="1000"  name="translation">
               <InterpolatingParam id="1001" interp="linr"  time="-9999999/1" value="0" leadInLength="0/1"  />
               <InterpolatingParam id="1002" interp="linr"  time="-9999999/1" value="0" leadInLength="0/1"  />
               <InterpolatingParam id="1003" interp="linr"  time="-9999999/1" value="0" leadInLength="0/1"  />
              </VectorParam>
              <VectorParam id="1004"  name="rotation">
               <InterpolatingParam id="1005" interp="linr"  time="-9999999/1" value="0" leadInLength="0/1"  />
               <InterpolatingParam id="1006" interp="linr"  time="-9999999/1" value="0" leadInLength="0/1"  />
               <InterpolatingParam id="1007" interp="linr"  time="-9999999/1" value="0" leadInLength="0/1"  />
              </VectorParam>
              <VectorParam id="1008"  name="shear">
               <InterpolatingParam id="1009" interp="linr"  time="-9999999/1" value="0" leadInLength="0/1"  />
               <InterpolatingParam id="1010" interp="linr"  time="-9999999/1" value="0" leadInLength="0/1"  />
               <InterpolatingParam id="1011" interp="linr"  time="-9999999/1" value="0" leadInLength="0/1"  />
              </VectorParam>
              <VectorParam id="1012"  name="scale">
               <InterpolatingParam id="1013" interp="linr"  time="-9999999/1" value="1" leadInLength="0/1"  />
               <InterpolatingParam id="1014" interp="linr"  time="-9999999/1" value="1" leadInLength="0/1"  />
               <InterpolatingParam id="1015" interp="linr"  time="-9999999/1" value="1" leadInLength="0/1"  />
              </VectorParam>
              <VectorParam id="1016"  name="anchor">
               <InterpolatingParam id="1017" interp="linr"  time="0/1" value="0" leadInLength="0/1"  />
               <InterpolatingParam id="1018" interp="linr"  time="0/1" value="0" leadInLength="0/1"  />
               <InterpolatingParam id="1019" interp="linr"  time="0/1" value="0" leadInLength="0/1"  />
              </VectorParam>
             </Transformer>
             <Parameters>
              <VectorParam id="1020"  name="sourceCrop">
               <InterpolatingParam id="1021" interp="linr"  time="0/1" value="0" leadInLength="0/1"  />
               <InterpolatingParam id="1022" interp="linr"  time="0/1" value="0" leadInLength="0/1"  />
               <InterpolatingParam id="1023" interp="linr"  time="0/1" value="0" leadInLength="0/1"  />
               <InterpolatingParam id="1024" interp="linr"  time="0/1" value="0" leadInLength="0/1"  />
              </VectorParam>
              <VectorParam id="1025"  name="geometryCrop">
               <InterpolatingParam id="1026" interp="linr"  time="-9999999/1" value="0" leadInLength="0/1"  />
               <InterpolatingParam id="1027" interp="linr"  time="-9999999/1" value="0" leadInLength="0/1"  />
               <InterpolatingParam id="1028" interp="linr"  time="-9999999/1" value="0" leadInLength="0/1"  />
               <InterpolatingParam id="1029" interp="linr"  time="-9999999/1" value="0" leadInLength="0/1"  />
              </VectorParam>
              <InterpolatingParam id="1030" interp="linr"  time="-9999999/1" value="1" leadInLength="0/1"  name="opacity"/>
             </Parameters>
             <Attributes>
              <Attribute id="1031" value="" name="ident"/>
             </Attributes>
             <ExtraData>
              <Entry key="ZoomPanBin">
               <ZoomPanBin id="1032"  >
                <ZoomPanKeyframes>
                 <ZoomPanKeyframe id="1033" timeRangeEnd="-9999999/1" timeRangeDuration="0/1" interpolaterName=""  />
                </ZoomPanKeyframes>
               </ZoomPanBin>
              </Entry>
             </ExtraData>
            </VMFile>
            <MetaData>
             <entry key="WinSubProjectDisplayName" val=""/>
            </MetaData>
           </UnifiedMedia>
           <UnifiedMedia id="1034"  >
            <AMFile id="1035" start="2806" duration="98" scalar="1/1" mediaStart="3475/1" mediaDuration="98/1" trackNumber="2" src="4" channelNumber="0,1" >
             <Parameters>
              <InterpolatingParam id="1036" interp="linr"  time="0/1" value="1" leadInLength="0/1"  name="volume"/>
              <Parameter id="1037"  name="captions"/>
             </Parameters>
             <Attributes>
              <Attribute id="1038" value="" name="ident"/>
              <Attribute id="1039" value="44100" name="sampleRate"/>
              <Attribute id="1040" value="16" name="bitDepth"/>
              <Attribute id="1041" value="1" name="gain"/>
              <Attribute id="1042" value="0" name="mixToMono"/>
             </Attributes>
            </AMFile>
            <VMFile id="1043" start="2806" duration="98" scalar="1/1" mediaStart="3475/1" mediaDuration="98/1" trackNumber="1" src="4" >
             <Transformer>
              <VectorParam id="1044"  name="translation">
               <InterpolatingParam id="1045" interp="linr"  time="-9999999/1" value="0" leadInLength="0/1"  />
               <InterpolatingParam id="1046" interp="linr"  time="-9999999/1" value="0" leadInLength="0/1"  />
               <InterpolatingParam id="1047" interp="linr"  time="-9999999/1" value="0" leadInLength="0/1"  />
              </VectorParam>
              <VectorParam id="1048"  name="rotation">
               <InterpolatingParam id="1049" interp="linr"  time="-9999999/1" value="0" leadInLength="0/1"  />
               <InterpolatingParam id="1050" interp="linr"  time="-9999999/1" value="0" leadInLength="0/1"  />
               <InterpolatingParam id="1051" interp="linr"  time="-9999999/1" value="0" leadInLength="0/1"  />
              </VectorParam>
              <VectorParam id="1052"  name="shear">
               <InterpolatingParam id="1053" interp="linr"  time="-9999999/1" value="0" leadInLength="0/1"  />
               <InterpolatingParam id="1054" interp="linr"  time="-9999999/1" value="0" leadInLength="0/1"  />
               <InterpolatingParam id="1055" interp="linr"  time="-9999999/1" value="0" leadInLength="0/1"  />
              </VectorParam>
              <VectorParam id="1056"  name="scale">
               <InterpolatingParam id="1057" interp="linr"  time="-9999999/1" value="1" leadInLength="0/1"  />
               <InterpolatingParam id="1058" interp="linr"  time="-9999999/1" value="1" leadInLength="0/1"  />
               <InterpolatingParam id="1059" interp="linr"  time="-9999999/1" value="1" leadInLength="0/1"  />
              </VectorParam>
              <VectorParam id="1060"  name="anchor">
               <InterpolatingParam id="1061" interp="linr"  time="0/1" value="0" leadInLength="0/1"  />
               <InterpolatingParam id="1062" interp="linr"  time="0/1" value="0" leadInLength="0/1"  />
               <InterpolatingParam id="1063" interp="linr"  time="0/1" value="0" leadInLength="0/1"  />
              </VectorParam>
             </Transformer>
             <Parameters>
              <VectorParam id="1064"  name="sourceCrop">
               <InterpolatingParam id="1065" interp="linr"  time="0/1" value="0" leadInLength="0/1"  />
               <InterpolatingParam id="1066" interp="linr"  time="0/1" value="0" leadInLength="0/1"  />
               <InterpolatingParam id="1067" interp="linr"  time="0/1" value="0" leadInLength="0/1"  />
               <InterpolatingParam id="1068" interp="linr"  time="0/1" value="0" leadInLength="0/1"  />
              </VectorParam>
              <VectorParam id="1069"  name="geometryCrop">
               <InterpolatingParam id="1070" interp="linr"  time="-9999999/1" value="0" leadInLength="0/1"  />
               <InterpolatingParam id="1071" interp="linr"  time="-9999999/1" value="0" leadInLength="0/1"  />
               <InterpolatingParam id="1072" interp="linr"  time="-9999999/1" value="0" leadInLength="0/1"  />
               <InterpolatingParam id="1073" interp="linr"  time="-9999999/1" value="0" leadInLength="0/1"  />
              </VectorParam>
              <InterpolatingParam id="1074" interp="linr"  time="-9999999/1" value="1" leadInLength="0/1"  name="opacity"/>
             </Parameters>
             <Attributes>
              <Attribute id="1075" value="" name="ident"/>
             </Attributes>
             <ExtraData>
              <Entry key="ZoomPanBin">
               <ZoomPanBin id="1076"  >
                <ZoomPanKeyframes>
                 <ZoomPanKeyframe id="1077" timeRangeEnd="-9999999/1" timeRangeDuration="0/1" interpolaterName=""  />
                </ZoomPanKeyframes>
               </ZoomPanBin>
              </Entry>
             </ExtraData>
            </VMFile>
            <MetaData>
             <entry key="WinSubProjectDisplayName" val=""/>
            </MetaData>
           </UnifiedMedia>
           <UnifiedMedia id="1078"  >
            <AMFile id="1079" start="2904" duration="5387" scalar="1/1" mediaStart="3580/1" mediaDuration="5387/1" trackNumber="2" src="4" channelNumber="0,1" >
             <Parameters>
              <InterpolatingParam id="1080" interp="linr"  time="0/1" value="1" leadInLength="0/1"  name="volume"/>
              <Parameter id="1081"  name="captions"/>
             </Parameters>
             <Attributes>
              <Attribute id="1082" value="" name="ident"/>
              <Attribute id="1083" value="44100" name="sampleRate"/>
              <Attribute id="1084" value="16" name="bitDepth"/>
              <Attribute id="1085" value="1" name="gain"/>
              <Attribute id="1086" value="0" name="mixToMono"/>
             </Attributes>
            </AMFile>
            <VMFile id="1087" start="2904" duration="5387" scalar="1/1" mediaStart="3580/1" mediaDuration="5387/1" trackNumber="1" src="4" >
             <Transformer>
              <VectorParam id="1088"  name="translation">
               <InterpolatingParam id="1089" interp="linr"  time="-9999999/1" value="0" leadInLength="0/1"  />
               <InterpolatingParam id="1090" interp="linr"  time="-9999999/1" value="0" leadInLength="0/1"  />
               <InterpolatingParam id="1091" interp="linr"  time="-9999999/1" value="0" leadInLength="0/1"  />
              </VectorParam>
              <VectorParam id="1092"  name="rotation">
               <InterpolatingParam id="1093" interp="linr"  time="-9999999/1" value="0" leadInLength="0/1"  />
               <InterpolatingParam id="1094" interp="linr"  time="-9999999/1" value="0" leadInLength="0/1"  />
               <InterpolatingParam id="1095" interp="linr"  time="-9999999/1" value="0" leadInLength="0/1"  />
              </VectorParam>
              <VectorParam id="1096"  name="shear">
               <InterpolatingParam id="1097" interp="linr"  time="-9999999/1" value="0" leadInLength="0/1"  />
               <InterpolatingParam id="1098" interp="linr"  time="-9999999/1" value="0" leadInLength="0/1"  />
               <InterpolatingParam id="1099" interp="linr"  time="-9999999/1" value="0" leadInLength="0/1"  />
              </VectorParam>
              <VectorParam id="1100"  name="scale">
               <InterpolatingParam id="1101" interp="linr"  time="-9999999/1" value="1" leadInLength="0/1"  />
               <InterpolatingParam id="1102" interp="linr"  time="-9999999/1" value="1" leadInLength="0/1"  />
               <InterpolatingParam id="1103" interp="linr"  time="-9999999/1" value="1" leadInLength="0/1"  />
              </VectorParam>
              <VectorParam id="1104"  name="anchor">
               <InterpolatingParam id="1105" interp="linr"  time="0/1" value="0" leadInLength="0/1"  />
               <InterpolatingParam id="1106" interp="linr"  time="0/1" value="0" leadInLength="0/1"  />
               <InterpolatingParam id="1107" interp="linr"  time="0/1" value="0" leadInLength="0/1"  />
              </VectorParam>
             </Transformer>
             <Parameters>
              <VectorParam id="1108"  name="sourceCrop">
               <InterpolatingParam id="1109" interp="linr"  time="0/1" value="0" leadInLength="0/1"  />
               <InterpolatingParam id="1110" interp="linr"  time="0/1" value="0" leadInLength="0/1"  />
               <InterpolatingParam id="1111" interp="linr"  time="0/1" value="0" leadInLength="0/1"  />
               <InterpolatingParam id="1112" interp="linr"  time="0/1" value="0" leadInLength="0/1"  />
              </VectorParam>
              <VectorParam id="1113"  name="geometryCrop">
               <InterpolatingParam id="1114" interp="linr"  time="-9999999/1" value="0" leadInLength="0/1"  />
               <InterpolatingParam id="1115" interp="linr"  time="-9999999/1" value="0" leadInLength="0/1"  />
               <InterpolatingParam id="1116" interp="linr"  time="-9999999/1" value="0" leadInLength="0/1"  />
               <InterpolatingParam id="1117" interp="linr"  time="-9999999/1" value="0" leadInLength="0/1"  />
              </VectorParam>
              <InterpolatingParam id="1118" interp="linr"  time="-9999999/1" value="1" leadInLength="0/1"  name="opacity"/>
             </Parameters>
             <Attributes>
              <Attribute id="1119" value="" name="ident"/>
             </Attributes>
             <ExtraData>
              <Entry key="ZoomPanBin">
               <ZoomPanBin id="1120"  >
                <ZoomPanKeyframes>
                 <ZoomPanKeyframe id="1121" timeRangeEnd="-9999999/1" timeRangeDuration="0/1" interpolaterName=""  />
                </ZoomPanKeyframes>
               </ZoomPanBin>
              </Entry>
             </ExtraData>
            </VMFile>
            <MetaData>
             <entry key="WinSubProjectDisplayName" val=""/>
            </MetaData>
           </UnifiedMedia>
          </Medias>
         </GenericTrack>
        </StitchedMedia>
        <StitchedMedia id="1122" start="3166" duration="2167" scalar="1/1" mediaStart="11/1" mediaDuration="2167/1" minMediaStart="0/1" >
         <Transformer>
          <VectorParam id="1123"  name="translation">
           <InterpolatingParam id="1124" interp="linr"  time="-9999999/1" value="400.00000000003809" leadInLength="0/1"  />
           <InterpolatingParam id="1125" interp="linr"  time="-9999999/1" value="-299.99999999999091" leadInLength="0/1"  />
           <InterpolatingParam id="1126" interp="linr"  time="-9999999/1" value="0" leadInLength="0/1"  />
          </VectorParam>
          <VectorParam id="1127"  name="rotation">
           <InterpolatingParam id="1128" interp="linr"  time="-9999999/1" value="0" leadInLength="0/1"  />
           <InterpolatingParam id="1129" interp="linr"  time="-9999999/1" value="0" leadInLength="0/1"  />
           <InterpolatingParam id="1130" interp="linr"  time="-9999999/1" value="0" leadInLength="0/1"  />
          </VectorParam>
          <VectorParam id="1131"  name="shear">
           <InterpolatingParam id="1132" interp="linr"  time="-9999999/1" value="0" leadInLength="0/1"  />
           <InterpolatingParam id="1133" interp="linr"  time="-9999999/1" value="0" leadInLength="0/1"  />
           <InterpolatingParam id="1134" interp="linr"  time="-9999999/1" value="0" leadInLength="0/1"  />
          </VectorParam>
          <VectorParam id="1135"  name="scale">
           <InterpolatingParam id="1136" interp="linr"  time="-9999999/1" value="0.25" leadInLength="0/1"  />
           <InterpolatingParam id="1137" interp="linr"  time="-9999999/1" value="0.25" leadInLength="0/1"  />
           <InterpolatingParam id="1138" interp="linr"  time="-9999999/1" value="1" leadInLength="0/1"  />
          </VectorParam>
          <VectorParam id="1139"  name="anchor">
           <InterpolatingParam id="1140" interp="linr"  time="0/1" value="0" leadInLength="0/1"  />
           <InterpolatingParam id="1141" interp="linr"  time="0/1" value="0" leadInLength="0/1"  />
           <InterpolatingParam id="1142" interp="linr"  time="0/1" value="0" leadInLength="0/1"  />
          </VectorParam>
         </Transformer>
         <Parameters>
          <VectorParam id="1143"  name="sourceCrop">
           <InterpolatingParam id="1144" interp="linr"  time="0/1" value="0" leadInLength="0/1"  />
           <InterpolatingParam id="1145" interp="linr"  time="0/1" value="0" leadInLength="0/1"  />
           <InterpolatingParam id="1146" interp="linr"  time="0/1" value="0" leadInLength="0/1"  />
           <InterpolatingParam id="1147" interp="linr"  time="0/1" value="0" leadInLength="0/1"  />
          </VectorParam>
          <VectorParam id="1148"  name="geometryCrop">
           <InterpolatingParam id="1149" interp="linr"  time="-9999999/1" value="0" leadInLength="0/1"  />
           <InterpolatingParam id="1150" interp="linr"  time="-9999999/1" value="0" leadInLength="0/1"  />
           <InterpolatingParam id="1151" interp="linr"  time="-9999999/1" value="0" leadInLength="0/1"  />
           <InterpolatingParam id="1152" interp="linr"  time="-9999999/1" value="0" leadInLength="0/1"  />
          </VectorParam>
          <InterpolatingParam id="1153" interp="linr"  time="-9999999/1" value="1" leadInLength="0/1"  name="opacity"/>
          <InterpolatingParam id="1154" interp="linr"  time="0/1" value="1" leadInLength="0/1"  name="cursorOpacity"/>
          <InterpolatingParam id="1155" interp="linr"  time="0/1" value="1" leadInLength="0/1"  name="cursorScale"/>
          <InterpolatingParam id="1156" interp="linr"  time="0/1" value="1" leadInLength="0/1"  name="volume"/>
          <Parameter id="1157"  name="captions"/>
         </Parameters>
         <Effects>
          <GenericEffect id="1158" name = "NoiseReduction" >
           <Parameters>
           <InterpolatingParam id="1159" interp="linr"  time="0/1" value="27.599999999999998" leadInLength="0/1"   name="denoiserAmount"/>
           <InterpolatingParam id="1160" interp="linr"  time="0/1" value="2.2799999999999994" leadInLength="0/1"   name="denoiserThreshold"/>
           <Parameter id="1161"   name="noiseProfile">
            <Keyframes>
            <Keyframe id="1162"  time="0/1" value="FBAAAAIAAABErAAAAQIAAIx/SsKcDDfCu09AwkldSsJu/lXC94RTwqLUWMJ4HF3CcGldwls2WML4&#xD;&#xa;p1HCAuxVwgd2YMJ3LG3C3oRvwq5CcsI1FXTCf61zwsNpdMKF3nTC7jFtwjCCZ8K+DmzCLNFswizi&#xD;&#xa;ccJsBXrCcZ1/whiEf8LbjX/CLXqAwj+Ad8I9D3TCWxlzwkM1esLcUYDCcq6Bwg4egsIq+X7CNx17&#xD;&#xa;wgXcfcIHzYHC97l8wkVmcMIGHWzCQaJowh8DesKinoXCLPCJwnRNjcLqdo7CDlSQwp9BkcKjw5HC&#xD;&#xa;i4GWwsnMlsJqfpbCAkiYwjdzlsLvQZbCNoCZwpB1msLHH53Cak6dwkdsnsJLf5zCBW6bwt9bnsKE&#xD;&#xa;yJvC8QKcwo4XnsKqJJ7CQNuewvOinsLBO5/CTwCfwoZSnMKp/JzCqaqewuNwnsJHpqHCSkukwpfL&#xD;&#xa;o8JOg6DCf/CdwjQOoMJBt6DCeO2iwvxipMIFHaTCPVClwiU+oMKPk5zCRfabwqArm8Jzdp7CEG+e&#xD;&#xa;wivKncLxpJrCfyeZwk/7msJzCJvC6MOawvCZnMLj/ZzCKk2gwriIn8JOrqHC4QGiwrkkn8JOp53C&#xD;&#xa;TJmcwuqbncIOGKHCUK2iws08pMLjKaLCQqifwnJ5n8JsLaLCiFKjwo6oocIhl6DCiVSgwrYZn8KA&#xD;&#xa;LJ3CABCfwtIQn8L/fZzCD+mcwhgBn8LYhp/CHPqewqpBn8JCAJ/C0Jubwqaqm8KcJJ7CNnGcwnKQ&#xD;&#xa;ncLxtJ3C706gwgnsncIeyZ3CNqmewg6bnML5p57CquKgwgQBn8LCr57Cvt+gwswKn8LAzZ3CxCig&#xD;&#xa;wvR8o8Jm76LCssyewkFDncL0Y57C6AShwmRlncKIeZjCCs6bwvYloMKEbKDCKB2cwsZEmcKCv5zC&#xD;&#xa;eUShwnp3n8JA1ZvCRIqZwhJRmsLXHJvCzLSZwsI5nMLus53CCXuZwhxJl8I3tprCeyyYwqhcmcKk&#xD;&#xa;FJvCqiWewoonn8JdwJnCAueZwj5xnMJa5JrC8rWZwsUTnsK6h53CFWadwrIOocLjjqHCWzyhwnsv&#xD;&#xa;osJvTqDCPF+dwv4Ln8I/paDCqhmfwuTEnsIaPZ/CQP2gwjWcosLx36PC2fmlwppBpsLmsafCg2Wn&#xD;&#xa;whJzpcIS26PCf7qmwp5Lq8KuI6vCnY6pwmWzqMIE3qfCVO6pwhPVp8KnlKjCPEapwqeQqcJZs6vC&#xD;&#xa;ydKqwuiHqcKn2avCSimqwjoorcKM5K7Ce7+swuGZrMIK6KzC0GWwwoxhrsKpbqzCLmKtwvJirMLs&#xD;&#xa;l63CM9yrwvyErcLM9a/CR3mxwvTXs8LymrLC3I+xwryassIIcbPCQeqywj75scLKTrPCKMi0wtVZ&#xD;&#xa;tMIdRbPCjKCxwlrFrsLkcLDCVHqywiPassJTkLPCo6qxws5lscLCr7PCPKyzwjqos8K7fLLCRPix&#xD;&#xa;wrKQsMIRcrLCTMGzwkgkt8J/vbnCcDO5woWgtcLoFrLCZYOywjB8s8KRVrTCHveuwgWDrsL+bLPC&#xD;&#xa;iIa3wtTnt8IxyLfC1yu4wvB4usKGLLrCxOK4whqNt8IEn7jCScm3wo06tsJ2UbjCQM+8wrHZvMJm&#xD;&#xa;rrrCNEu5wjjwucIQPLvCHsq5wmeZtMLSyLTCxAi1wuKTuMKzIbnCQn64wrPcuMJD/bjC0Uu5wiTL&#xD;&#xa;vMKqUMDCMFO7wnj3u8Ibu7zC2Ni5whCnucJYpLvC8Lu7wrqfucKAarjC+Aa7wviLu8LeSbvCjN+9&#xD;&#xa;wr/iuMJGPLfC5oK6wjylusLC1bjCuui4wr6TusLOer/CTP67wglLusI4BL7C/I2+wlrpvsJIFL7C&#xD;&#xa;oqi9wlJgusJiGLvCZTO9woamvcKSXbvC6t+6wg7Xu8KFx7rCBBi6wgQEvMJ0KLvCjg+7wiTgu8IV&#xD;&#xa;E8HC3bjGws6FysJV0M3Ci13PwpaBzsIaa8zCxIzJwuLnysJVT8zCKobEwiTawcLSxcjCRqjLwlRv&#xD;&#xa;ycJUbcnC7JnMwlQk0MJSa9TCnFHTwlBmzMJqaMzCVKbQwt8V0cJWVtHCPtHUwn661MLSV9TCcp/Q&#xD;&#xa;wgj+z8JsZ9HCJI7Rwjoq18Ic6trCSoLUwoJf2MLia+TCMqvmwp4f58LIXOjCYrLiwk4P3ML1MNnC&#xD;&#xa;i3jawouG4MIiCt3CQz/VwlMK18JkQt/CmlLrwsTb+MI+ePrCuuD6wgp/98JuJfjCDIf5wlSf+MLk&#xD;&#xa;CfjCdFn3wh7s9sJaBPnC1NT2wnQ39sKcGfbCFgXrwhBb4cLg1tvC1ubbwnyS4sLvAdzCu+vUwqBa&#xD;&#xa;18KAvdvCmD/hwkbQ48JyueHCZgTfwoLj4sJCNt7C2LrXwuzc1cJMUtLChtPQwnK30sIlcdTCYtTS&#xD;&#xa;wh6yzMJ+BMnC1hvJwhQ7y8IGbNHCSVDSwhbuz8K8ENTCoPvWwmBj2cKAt+DCuRXuwn4s+cI83vnC&#xD;&#xa;Zsb5wgKU+cKEZffCk0D4wkgx+cISrvnCvf32wlEH+MJU4PjCWhj4wrL49sKsr/bC/l32wg6M9sKo&#xD;&#xa;EffCstT2wqJA+MLIefjCLFD6whxT+8K///bCF9z2wh/e9sLbiPXCB9v3wqoA98L44vbC9kX5whRa&#xD;&#xa;+ML0bvfCGt/0wvxy9cIwy/jCNhv6wqgN98JE6PjCAt73womp98KDWPjCQBP4wu7j+MJo8PnCdO34&#xD;&#xa;wkxf+8Kg6vnCpsr2wptp9ML6tPTCSof1wgLM9cI+/fXCFLH0wvIg9cJa9vfCEgH3wuNm9cIGrPfC&#xD;&#xa;tK35wiAt+cL0vPjCGjsDwzh/SsKiDDfCxU9AwnBdSsLu/lXC/4RTwgbUWMKLG13COmldwkc2WMIe&#xD;&#xa;qFHCKexVwjJ2YMI0LG3CyoJvwoNBcsKzFHTCAa5zwstpdMLE3nTCeDJtwv+BZ8LrDmzCv9FswtDi&#xD;&#xa;ccKjBnrCZJ1/wgiDf8IHjn/CpHmAwo1/d8JaEHTCYBtzwoc4esLxUIDCuKyBwlQdgsKI+n7CCB97&#xD;&#xa;wknbfcL0zIHC/7p8wuZmcMIxHWzCJqJowk4DesKOnYXCRO6JwrRMjcLNdo7C/lKQwttCkcKBxZHC&#xD;&#xa;Yn6WwkLJlsLIfpbClEuYwsR1lsLDRJbCbIGZwv99msKqKp3CfE6dwqFsnsLIg5zC6HCbwsZZnsKj&#xD;&#xa;ypvCJwecwgkbnsJOJZ7Cs9iewv2cnsI8OJ/CgvmewgpPnMJ1/5zCqaWewkBjnsJMlKHCV0WkwprC&#xD;&#xa;o8JKeaDCeumdwskMoMJosKDCH+iiwiFepMIbIKTCE1alwtc7oMJ0l5zCP/ubwnYnm8LMdp7CRWye&#xD;&#xa;wjTFncKmo5rCtyOZwg/6msL9B5vCjMOawr+dnMI+AJ3CTlKgwkONn8J8qqHC/v6hwg8nn8I4oJ3C&#xD;&#xa;8pmcwtqgncK5E6HCFKiiwh82pMJoKaLCtKyfwjR8n8K3L6LC90+jwnioocIpmKDCv1WgwoYWn8Ii&#xD;&#xa;KZ3C9wmfwm0Qn8I+fZzC8vCcwl3/nsK0fp/CNPaewsM9n8LE9Z7CoJObwtGom8JfJp7Cmm6cwlCR&#xD;&#xa;ncKytJ3CHlWgwg7yncI90J3CJ6eewh6VnMJcp57C1eSgwmgAn8JJq57Cv9ugwkwMn8IX153Ciiug&#xD;&#xa;wqN3o8IU86LCpNCewsZFncJiYJ7Csf2gwrdlncIgepjCpM6bwrInoMKbcqDCVRycwthAmcLAvZzC&#xD;&#xa;3UWhwpl4n8L81JvCZoWZwhVPmsJWIZvCsrWZwoJCnMKauJ3C0XqZwohIl8L8sprCQCSYwgRbmcLE&#xD;&#xa;GpvCzCOewhIon8IYw5nCueeZwg5ynML84prCH7eZwvMUnsIyhJ3CU2CdwpEFocKejaHCND2hwg8q&#xD;&#xa;osJRSaDCVVWdwhQIn8KMpqDCEB2fwljAnsJgNZ/C7vSgwveYosJ06KPCYv2lwqw3psLgqKfCRGin&#xD;&#xa;wrJ5pcKb36PCQ7amwtdIq8LaFKvCSICpwmSrqMLExqfCrtipwjjhp8K1majCKlKpwkOmqcJuuavC&#xD;&#xa;6fGqwhKyqcKbBqzClmyqwtxArcIoBK/ClraswoeDrMKV46zCNECwwqlHrsLCfKzC9qitwhbIrMLK&#xD;&#xa;1K3CIBiswuThrcIz/q/CNGixwqbZs8IXhrLCOGuxwka6ssIVq7PCVNKywu+gscIrFbPCT9e0wpVw&#xD;&#xa;tMK8JLPCrImxwifVrsJskLDCHXyywtuvssIsoLPCqNuxwrzDscJB/bPC0L6zwufTs8I2h7LCnvix&#xD;&#xa;wn2ZsMKObbLCuKyzwoxGt8KUDbrC1hS5wqZftcLdGLLC5b6ywnags8Kac7TCzBuvwi6PrsLsfrPC&#xD;&#xa;vdm3wpgiuMKMwLfCXBu4wn3iusJYVrrCEIq4wvNAt8JSprjC4dK3wvFAtsIoQbjC8sa8wk7YvMJS&#xD;&#xa;srrCVFG5wg/NucIwEbvC0s65wv6gtML537TCQQ+1wnaIuMIdKbnCHmK4wnLSuMJuHrnCimW5wqLk&#xD;&#xa;vMJUdcDCkki7wtbgu8KWorzCSNC5whCWucKVrbvCJt+7wpS5ucI/grjCiBi7wsCBu8IIKrvCvsy9&#xD;&#xa;wurRuMK3OLfCbZ66wjq9usKf0bjCldW4wveQusIcV7/CRPO7wtBXusLZ/73CMGS+wlTHvsIC873C&#xD;&#xa;Pq+9wnVsusJoH7vCRVu9whLWvcIAe7vCkPq6wiL5u8L1lLrCi+y5wqkLvMKj/brC4sy6wkq7u8K+&#xD;&#xa;9MDC4IXGwt5PysKgMc7CaHXPwqg7zsL8lczCUxrKwkBvy8I4PszCoqvEwsQmwsJxPMnCbDDMwpyL&#xD;&#xa;ycIOdcnCKRzNwhbU0MJCZdTCjkDTwrI9zMIXB8zC53nQwp7F0cJ+9dHCwPHUwnEM1cLE29TCyHvQ&#xD;&#xa;wrlzz8LsRNHCX3zRwoaK1sJn3trCWBDVwqBo2MLPyuTCpB/own0i6MKhBOnC3/Liwuiy3MJiINrC&#xD;&#xa;sjTbwqLX4MKMG93CyN/UwoTM1sIwWd7CCLPpwrT29cLinvXC4TT1wlQ19sIGYvfCnBT4wjB9+sLM&#xD;&#xa;dfjCkAP4wvTV9sIu+fbCVuv1wioo9sLF8PbCaQ3swo2f4cKEatzCSqTbwoaY4cKx19rCTlvUwoL9&#xD;&#xa;18JQcdzC0onhwpEK4sLqRODCYwHewkc548L0Zd7CvCjXwnzo1ML4TNLCfQvRwgj00sKqCtXCFp3T&#xD;&#xa;wio6zcI/U8nC2FrJwomYy8KMftHCiovSwgac0ML+N9TC+XzWwmyI2cLsFODCdGvrwiSx9cKS0vfC&#xD;&#xa;NBz4wuhf+cLCZPnCarX5wmAW+sIorffCbQH2wv4x9cIMlfbC0Dr5woJt+cKIQvfC+DP2wqpV9sKY&#xD;&#xa;A/fCPP34wrxB+8Ke6PzCAtf6wlqx+MLPkPXCb/b3wnQP+8LAJ/rChBb5wvgJ98IjiPbCtGT3wkwq&#xD;&#xa;+cIM2PjCLgb8woDY+8LKhP7CUF/8wqCK+MLarvfCdKD3wu7S9sKO5/fCmOr2wgKo9sJauPjCEG38&#xD;&#xa;wl69+8JQ5vnCUur4wput98IOK/jCnCj7wmLt+MKqc/fCGoP6wt4M+cIM0PfCJBH4wk8998J+p/jC&#xD;&#xa;xiv5wpIT+MJ8x/bCNtYB" leadInLength="0/1"  />
            </Keyframes>
           </Parameter>
           </Parameters>
           <MetaData>
            <entry key="effectIndex" val="0"/>
           </MetaData>
          </GenericEffect>
         </Effects>
         <Attributes>
          <Attribute id="1163" value="" name="ident"/>
          <Attribute id="1164" value="0" name="mixToMono"/>
         </Attributes>
         <MetaData>
          <entry key="WinSubProjectDisplayName" val=""/>
         </MetaData>
         <ExtraData>
          <Entry key="ZoomPanBin">
           <ZoomPanBin id="1165"  >
            <ZoomPanKeyframes>
             <ZoomPanKeyframe id="1166" timeRangeEnd="-9999999/1" timeRangeDuration="0/1" interpolaterName=""  />
            </ZoomPanKeyframes>
           </ZoomPanBin>
          </Entry>
          <Entry key="CursorEffectBin">
           <CursorEffectBin id="1167"  >
            <CursorEffectKeyframes>
            </CursorEffectKeyframes>
           </CursorEffectBin>
          </Entry>
         </ExtraData>
         <GenericTrack id="1168"  >
          <Attributes>
           <Attribute id="1169" value="" name="ident"/>
           <Attribute id="1170" value="0" name="audioMuted"/>
           <Attribute id="1171" value="0" name="videoHidden"/>
          </Attributes>
          <MetaData>
           <entry key="IsLocked" val="False"/>
           <entry key="WinTrackHeight" val="0"/>
          </MetaData>
          <Medias>
           <UnifiedMedia id="1172"  >
            <AMFile id="1173" start="0" duration="169" scalar="1/1" mediaStart="0/1" mediaDuration="169/1" trackNumber="2" src="5" channelNumber="0,1" >
             <Parameters>
              <InterpolatingParam id="1174" interp="linr"  time="0/1" value="1" leadInLength="0/1"  name="volume"/>
              <Parameter id="1175"  name="captions"/>
             </Parameters>
             <Attributes>
              <Attribute id="1176" value="" name="ident"/>
              <Attribute id="1177" value="44100" name="sampleRate"/>
              <Attribute id="1178" value="16" name="bitDepth"/>
              <Attribute id="1179" value="1" name="gain"/>
              <Attribute id="1180" value="0" name="mixToMono"/>
             </Attributes>
            </AMFile>
            <VMFile id="1181" start="0" duration="169" scalar="1/1" mediaStart="0/1" mediaDuration="169/1" trackNumber="1" src="5" >
             <Transformer>
              <VectorParam id="1182"  name="translation">
               <InterpolatingParam id="1183" interp="linr"  time="-9999999/1" value="0" leadInLength="0/1"  />
               <InterpolatingParam id="1184" interp="linr"  time="-9999999/1" value="0" leadInLength="0/1"  />
               <InterpolatingParam id="1185" interp="linr"  time="-9999999/1" value="0" leadInLength="0/1"  />
              </VectorParam>
              <VectorParam id="1186"  name="rotation">
               <InterpolatingParam id="1187" interp="linr"  time="-9999999/1" value="0" leadInLength="0/1"  />
               <InterpolatingParam id="1188" interp="linr"  time="-9999999/1" value="0" leadInLength="0/1"  />
               <InterpolatingParam id="1189" interp="linr"  time="-9999999/1" value="0" leadInLength="0/1"  />
              </VectorParam>
              <VectorParam id="1190"  name="shear">
               <InterpolatingParam id="1191" interp="linr"  time="-9999999/1" value="0" leadInLength="0/1"  />
               <InterpolatingParam id="1192" interp="linr"  time="-9999999/1" value="0" leadInLength="0/1"  />
               <InterpolatingParam id="1193" interp="linr"  time="-9999999/1" value="0" leadInLength="0/1"  />
              </VectorParam>
              <VectorParam id="1194"  name="scale">
               <InterpolatingParam id="1195" interp="linr"  time="-9999999/1" value="1" leadInLength="0/1"  />
               <InterpolatingParam id="1196" interp="linr"  time="-9999999/1" value="1" leadInLength="0/1"  />
               <InterpolatingParam id="1197" interp="linr"  time="-9999999/1" value="1" leadInLength="0/1"  />
              </VectorParam>
              <VectorParam id="1198"  name="anchor">
               <InterpolatingParam id="1199" interp="linr"  time="0/1" value="0" leadInLength="0/1"  />
               <InterpolatingParam id="1200" interp="linr"  time="0/1" value="0" leadInLength="0/1"  />
               <InterpolatingParam id="1201" interp="linr"  time="0/1" value="0" leadInLength="0/1"  />
              </VectorParam>
             </Transformer>
             <Parameters>
              <VectorParam id="1202"  name="sourceCrop">
               <InterpolatingParam id="1203" interp="linr"  time="0/1" value="0" leadInLength="0/1"  />
               <InterpolatingParam id="1204" interp="linr"  time="0/1" value="0" leadInLength="0/1"  />
               <InterpolatingParam id="1205" interp="linr"  time="0/1" value="0" leadInLength="0/1"  />
               <InterpolatingParam id="1206" interp="linr"  time="0/1" value="0" leadInLength="0/1"  />
              </VectorParam>
              <VectorParam id="1207"  name="geometryCrop">
               <InterpolatingParam id="1208" interp="linr"  time="-9999999/1" value="0" leadInLength="0/1"  />
               <InterpolatingParam id="1209" interp="linr"  time="-9999999/1" value="0" leadInLength="0/1"  />
               <InterpolatingParam id="1210" interp="linr"  time="-9999999/1" value="0" leadInLength="0/1"  />
               <InterpolatingParam id="1211" interp="linr"  time="-9999999/1" value="0" leadInLength="0/1"  />
              </VectorParam>
              <InterpolatingParam id="1212" interp="linr"  time="-9999999/1" value="1" leadInLength="0/1"  name="opacity"/>
             </Parameters>
             <Attributes>
              <Attribute id="1213" value="" name="ident"/>
             </Attributes>
             <ExtraData>
              <Entry key="ZoomPanBin">
               <ZoomPanBin id="1214"  >
                <ZoomPanKeyframes>
                 <ZoomPanKeyframe id="1215" timeRangeEnd="-9999999/1" timeRangeDuration="0/1" interpolaterName=""  />
                </ZoomPanKeyframes>
               </ZoomPanBin>
              </Entry>
             </ExtraData>
            </VMFile>
            <MetaData>
             <entry key="WinSubProjectDisplayName" val=""/>
            </MetaData>
           </UnifiedMedia>
           <UnifiedMedia id="1216"  >
            <AMFile id="1217" start="169" duration="79" scalar="1/1" mediaStart="196/1" mediaDuration="79/1" trackNumber="2" src="5" channelNumber="0,1" >
             <Parameters>
              <InterpolatingParam id="1218" interp="linr"  time="0/1" value="1" leadInLength="0/1"  name="volume"/>
              <Parameter id="1219"  name="captions"/>
             </Parameters>
             <Attributes>
              <Attribute id="1220" value="" name="ident"/>
              <Attribute id="1221" value="44100" name="sampleRate"/>
              <Attribute id="1222" value="16" name="bitDepth"/>
              <Attribute id="1223" value="1" name="gain"/>
              <Attribute id="1224" value="0" name="mixToMono"/>
             </Attributes>
            </AMFile>
            <VMFile id="1225" start="169" duration="79" scalar="1/1" mediaStart="196/1" mediaDuration="79/1" trackNumber="1" src="5" >
             <Transformer>
              <VectorParam id="1226"  name="translation">
               <InterpolatingParam id="1227" interp="linr"  time="-9999999/1" value="0" leadInLength="0/1"  />
               <InterpolatingParam id="1228" interp="linr"  time="-9999999/1" value="0" leadInLength="0/1"  />
               <InterpolatingParam id="1229" interp="linr"  time="-9999999/1" value="0" leadInLength="0/1"  />
              </VectorParam>
              <VectorParam id="1230"  name="rotation">
               <InterpolatingParam id="1231" interp="linr"  time="-9999999/1" value="0" leadInLength="0/1"  />
               <InterpolatingParam id="1232" interp="linr"  time="-9999999/1" value="0" leadInLength="0/1"  />
               <InterpolatingParam id="1233" interp="linr"  time="-9999999/1" value="0" leadInLength="0/1"  />
              </VectorParam>
              <VectorParam id="1234"  name="shear">
               <InterpolatingParam id="1235" interp="linr"  time="-9999999/1" value="0" leadInLength="0/1"  />
               <InterpolatingParam id="1236" interp="linr"  time="-9999999/1" value="0" leadInLength="0/1"  />
               <InterpolatingParam id="1237" interp="linr"  time="-9999999/1" value="0" leadInLength="0/1"  />
              </VectorParam>
              <VectorParam id="1238"  name="scale">
               <InterpolatingParam id="1239" interp="linr"  time="-9999999/1" value="1" leadInLength="0/1"  />
               <InterpolatingParam id="1240" interp="linr"  time="-9999999/1" value="1" leadInLength="0/1"  />
               <InterpolatingParam id="1241" interp="linr"  time="-9999999/1" value="1" leadInLength="0/1"  />
              </VectorParam>
              <VectorParam id="1242"  name="anchor">
               <InterpolatingParam id="1243" interp="linr"  time="0/1" value="0" leadInLength="0/1"  />
               <InterpolatingParam id="1244" interp="linr"  time="0/1" value="0" leadInLength="0/1"  />
               <InterpolatingParam id="1245" interp="linr"  time="0/1" value="0" leadInLength="0/1"  />
              </VectorParam>
             </Transformer>
             <Parameters>
              <VectorParam id="1246"  name="sourceCrop">
               <InterpolatingParam id="1247" interp="linr"  time="0/1" value="0" leadInLength="0/1"  />
               <InterpolatingParam id="1248" interp="linr"  time="0/1" value="0" leadInLength="0/1"  />
               <InterpolatingParam id="1249" interp="linr"  time="0/1" value="0" leadInLength="0/1"  />
               <InterpolatingParam id="1250" interp="linr"  time="0/1" value="0" leadInLength="0/1"  />
              </VectorParam>
              <VectorParam id="1251"  name="geometryCrop">
               <InterpolatingParam id="1252" interp="linr"  time="-9999999/1" value="0" leadInLength="0/1"  />
               <InterpolatingParam id="1253" interp="linr"  time="-9999999/1" value="0" leadInLength="0/1"  />
               <InterpolatingParam id="1254" interp="linr"  time="-9999999/1" value="0" leadInLength="0/1"  />
               <InterpolatingParam id="1255" interp="linr"  time="-9999999/1" value="0" leadInLength="0/1"  />
              </VectorParam>
              <InterpolatingParam id="1256" interp="linr"  time="-9999999/1" value="1" leadInLength="0/1"  name="opacity"/>
             </Parameters>
             <Attributes>
              <Attribute id="1257" value="" name="ident"/>
             </Attributes>
             <ExtraData>
              <Entry key="ZoomPanBin">
               <ZoomPanBin id="1258"  >
                <ZoomPanKeyframes>
                 <ZoomPanKeyframe id="1259" timeRangeEnd="-9999999/1" timeRangeDuration="0/1" interpolaterName=""  />
                </ZoomPanKeyframes>
               </ZoomPanBin>
              </Entry>
             </ExtraData>
            </VMFile>
            <MetaData>
             <entry key="WinSubProjectDisplayName" val=""/>
            </MetaData>
           </UnifiedMedia>
           <UnifiedMedia id="1260"  >
            <AMFile id="1261" start="248" duration="576" scalar="1/1" mediaStart="379/1" mediaDuration="576/1" trackNumber="2" src="5" channelNumber="0,1" >
             <Parameters>
              <InterpolatingParam id="1262" interp="linr"  time="0/1" value="1" leadInLength="0/1"  name="volume"/>
              <Parameter id="1263"  name="captions"/>
             </Parameters>
             <Attributes>
              <Attribute id="1264" value="" name="ident"/>
              <Attribute id="1265" value="44100" name="sampleRate"/>
              <Attribute id="1266" value="16" name="bitDepth"/>
              <Attribute id="1267" value="1" name="gain"/>
              <Attribute id="1268" value="0" name="mixToMono"/>
             </Attributes>
            </AMFile>
            <VMFile id="1269" start="248" duration="576" scalar="1/1" mediaStart="379/1" mediaDuration="576/1" trackNumber="1" src="5" >
             <Transformer>
              <VectorParam id="1270"  name="translation">
               <InterpolatingParam id="1271" interp="linr"  time="-9999999/1" value="0" leadInLength="0/1"  />
               <InterpolatingParam id="1272" interp="linr"  time="-9999999/1" value="0" leadInLength="0/1"  />
               <InterpolatingParam id="1273" interp="linr"  time="-9999999/1" value="0" leadInLength="0/1"  />
              </VectorParam>
              <VectorParam id="1274"  name="rotation">
               <InterpolatingParam id="1275" interp="linr"  time="-9999999/1" value="0" leadInLength="0/1"  />
               <InterpolatingParam id="1276" interp="linr"  time="-9999999/1" value="0" leadInLength="0/1"  />
               <InterpolatingParam id="1277" interp="linr"  time="-9999999/1" value="0" leadInLength="0/1"  />
              </VectorParam>
              <VectorParam id="1278"  name="shear">
               <InterpolatingParam id="1279" interp="linr"  time="-9999999/1" value="0" leadInLength="0/1"  />
               <InterpolatingParam id="1280" interp="linr"  time="-9999999/1" value="0" leadInLength="0/1"  />
               <InterpolatingParam id="1281" interp="linr"  time="-9999999/1" value="0" leadInLength="0/1"  />
              </VectorParam>
              <VectorParam id="1282"  name="scale">
               <InterpolatingParam id="1283" interp="linr"  time="-9999999/1" value="1" leadInLength="0/1"  />
               <InterpolatingParam id="1284" interp="linr"  time="-9999999/1" value="1" leadInLength="0/1"  />
               <InterpolatingParam id="1285" interp="linr"  time="-9999999/1" value="1" leadInLength="0/1"  />
              </VectorParam>
              <VectorParam id="1286"  name="anchor">
               <InterpolatingParam id="1287" interp="linr"  time="0/1" value="0" leadInLength="0/1"  />
               <InterpolatingParam id="1288" interp="linr"  time="0/1" value="0" leadInLength="0/1"  />
               <InterpolatingParam id="1289" interp="linr"  time="0/1" value="0" leadInLength="0/1"  />
              </VectorParam>
             </Transformer>
             <Parameters>
              <VectorParam id="1290"  name="sourceCrop">
               <InterpolatingParam id="1291" interp="linr"  time="0/1" value="0" leadInLength="0/1"  />
               <InterpolatingParam id="1292" interp="linr"  time="0/1" value="0" leadInLength="0/1"  />
               <InterpolatingParam id="1293" interp="linr"  time="0/1" value="0" leadInLength="0/1"  />
               <InterpolatingParam id="1294" interp="linr"  time="0/1" value="0" leadInLength="0/1"  />
              </VectorParam>
              <VectorParam id="1295"  name="geometryCrop">
               <InterpolatingParam id="1296" interp="linr"  time="-9999999/1" value="0" leadInLength="0/1"  />
               <InterpolatingParam id="1297" interp="linr"  time="-9999999/1" value="0" leadInLength="0/1"  />
               <InterpolatingParam id="1298" interp="linr"  time="-9999999/1" value="0" leadInLength="0/1"  />
               <InterpolatingParam id="1299" interp="linr"  time="-9999999/1" value="0" leadInLength="0/1"  />
              </VectorParam>
              <InterpolatingParam id="1300" interp="linr"  time="-9999999/1" value="1" leadInLength="0/1"  name="opacity"/>
             </Parameters>
             <Attributes>
              <Attribute id="1301" value="" name="ident"/>
             </Attributes>
             <ExtraData>
              <Entry key="ZoomPanBin">
               <ZoomPanBin id="1302"  >
                <ZoomPanKeyframes>
                 <ZoomPanKeyframe id="1303" timeRangeEnd="-9999999/1" timeRangeDuration="0/1" interpolaterName=""  />
                </ZoomPanKeyframes>
               </ZoomPanBin>
              </Entry>
             </ExtraData>
            </VMFile>
            <MetaData>
             <entry key="WinSubProjectDisplayName" val=""/>
            </MetaData>
           </UnifiedMedia>
           <UnifiedMedia id="1304"  >
            <AMFile id="1305" start="824" duration="694" scalar="1/1" mediaStart="1000/1" mediaDuration="694/1" trackNumber="2" src="5" channelNumber="0,1" >
             <Parameters>
              <InterpolatingParam id="1306" interp="linr"  time="0/1" value="1" leadInLength="0/1"  name="volume"/>
              <Parameter id="1307"  name="captions"/>
             </Parameters>
             <Attributes>
              <Attribute id="1308" value="" name="ident"/>
              <Attribute id="1309" value="44100" name="sampleRate"/>
              <Attribute id="1310" value="16" name="bitDepth"/>
              <Attribute id="1311" value="1" name="gain"/>
              <Attribute id="1312" value="0" name="mixToMono"/>
             </Attributes>
            </AMFile>
            <VMFile id="1313" start="824" duration="694" scalar="1/1" mediaStart="1000/1" mediaDuration="694/1" trackNumber="1" src="5" >
             <Transformer>
              <VectorParam id="1314"  name="translation">
               <InterpolatingParam id="1315" interp="linr"  time="-9999999/1" value="0" leadInLength="0/1"  />
               <InterpolatingParam id="1316" interp="linr"  time="-9999999/1" value="0" leadInLength="0/1"  />
               <InterpolatingParam id="1317" interp="linr"  time="-9999999/1" value="0" leadInLength="0/1"  />
              </VectorParam>
              <VectorParam id="1318"  name="rotation">
               <InterpolatingParam id="1319" interp="linr"  time="-9999999/1" value="0" leadInLength="0/1"  />
               <InterpolatingParam id="1320" interp="linr"  time="-9999999/1" value="0" leadInLength="0/1"  />
               <InterpolatingParam id="1321" interp="linr"  time="-9999999/1" value="0" leadInLength="0/1"  />
              </VectorParam>
              <VectorParam id="1322"  name="shear">
               <InterpolatingParam id="1323" interp="linr"  time="-9999999/1" value="0" leadInLength="0/1"  />
               <InterpolatingParam id="1324" interp="linr"  time="-9999999/1" value="0" leadInLength="0/1"  />
               <InterpolatingParam id="1325" interp="linr"  time="-9999999/1" value="0" leadInLength="0/1"  />
              </VectorParam>
              <VectorParam id="1326"  name="scale">
               <InterpolatingParam id="1327" interp="linr"  time="-9999999/1" value="1" leadInLength="0/1"  />
               <InterpolatingParam id="1328" interp="linr"  time="-9999999/1" value="1" leadInLength="0/1"  />
               <InterpolatingParam id="1329" interp="linr"  time="-9999999/1" value="1" leadInLength="0/1"  />
              </VectorParam>
              <VectorParam id="1330"  name="anchor">
               <InterpolatingParam id="1331" interp="linr"  time="0/1" value="0" leadInLength="0/1"  />
               <InterpolatingParam id="1332" interp="linr"  time="0/1" value="0" leadInLength="0/1"  />
               <InterpolatingParam id="1333" interp="linr"  time="0/1" value="0" leadInLength="0/1"  />
              </VectorParam>
             </Transformer>
             <Parameters>
              <VectorParam id="1334"  name="sourceCrop">
               <InterpolatingParam id="1335" interp="linr"  time="0/1" value="0" leadInLength="0/1"  />
               <InterpolatingParam id="1336" interp="linr"  time="0/1" value="0" leadInLength="0/1"  />
               <InterpolatingParam id="1337" interp="linr"  time="0/1" value="0" leadInLength="0/1"  />
               <InterpolatingParam id="1338" interp="linr"  time="0/1" value="0" leadInLength="0/1"  />
              </VectorParam>
              <VectorParam id="1339"  name="geometryCrop">
               <InterpolatingParam id="1340" interp="linr"  time="-9999999/1" value="0" leadInLength="0/1"  />
               <InterpolatingParam id="1341" interp="linr"  time="-9999999/1" value="0" leadInLength="0/1"  />
               <InterpolatingParam id="1342" interp="linr"  time="-9999999/1" value="0" leadInLength="0/1"  />
               <InterpolatingParam id="1343" interp="linr"  time="-9999999/1" value="0" leadInLength="0/1"  />
              </VectorParam>
              <InterpolatingParam id="1344" interp="linr"  time="-9999999/1" value="1" leadInLength="0/1"  name="opacity"/>
             </Parameters>
             <Attributes>
              <Attribute id="1345" value="" name="ident"/>
             </Attributes>
             <ExtraData>
              <Entry key="ZoomPanBin">
               <ZoomPanBin id="1346"  >
                <ZoomPanKeyframes>
                 <ZoomPanKeyframe id="1347" timeRangeEnd="-9999999/1" timeRangeDuration="0/1" interpolaterName=""  />
                </ZoomPanKeyframes>
               </ZoomPanBin>
              </Entry>
             </ExtraData>
            </VMFile>
            <MetaData>
             <entry key="WinSubProjectDisplayName" val=""/>
            </MetaData>
           </UnifiedMedia>
           <UnifiedMedia id="1348"  >
            <AMFile id="1349" start="1518" duration="75" scalar="1/1" mediaStart="1785/1" mediaDuration="75/1" trackNumber="2" src="5" channelNumber="0,1" >
             <Parameters>
              <InterpolatingParam id="1350" interp="linr"  time="0/1" value="1" leadInLength="0/1"  name="volume"/>
              <Parameter id="1351"  name="captions"/>
             </Parameters>
             <Attributes>
              <Attribute id="1352" value="" name="ident"/>
              <Attribute id="1353" value="44100" name="sampleRate"/>
              <Attribute id="1354" value="16" name="bitDepth"/>
              <Attribute id="1355" value="1" name="gain"/>
              <Attribute id="1356" value="0" name="mixToMono"/>
             </Attributes>
            </AMFile>
            <VMFile id="1357" start="1518" duration="75" scalar="1/1" mediaStart="1785/1" mediaDuration="75/1" trackNumber="1" src="5" >
             <Transformer>
              <VectorParam id="1358"  name="translation">
               <InterpolatingParam id="1359" interp="linr"  time="-9999999/1" value="0" leadInLength="0/1"  />
               <InterpolatingParam id="1360" interp="linr"  time="-9999999/1" value="0" leadInLength="0/1"  />
               <InterpolatingParam id="1361" interp="linr"  time="-9999999/1" value="0" leadInLength="0/1"  />
              </VectorParam>
              <VectorParam id="1362"  name="rotation">
               <InterpolatingParam id="1363" interp="linr"  time="-9999999/1" value="0" leadInLength="0/1"  />
               <InterpolatingParam id="1364" interp="linr"  time="-9999999/1" value="0" leadInLength="0/1"  />
               <InterpolatingParam id="1365" interp="linr"  time="-9999999/1" value="0" leadInLength="0/1"  />
              </VectorParam>
              <VectorParam id="1366"  name="shear">
               <InterpolatingParam id="1367" interp="linr"  time="-9999999/1" value="0" leadInLength="0/1"  />
               <InterpolatingParam id="1368" interp="linr"  time="-9999999/1" value="0" leadInLength="0/1"  />
               <InterpolatingParam id="1369" interp="linr"  time="-9999999/1" value="0" leadInLength="0/1"  />
              </VectorParam>
              <VectorParam id="1370"  name="scale">
               <InterpolatingParam id="1371" interp="linr"  time="-9999999/1" value="1" leadInLength="0/1"  />
               <InterpolatingParam id="1372" interp="linr"  time="-9999999/1" value="1" leadInLength="0/1"  />
               <InterpolatingParam id="1373" interp="linr"  time="-9999999/1" value="1" leadInLength="0/1"  />
              </VectorParam>
              <VectorParam id="1374"  name="anchor">
               <InterpolatingParam id="1375" interp="linr"  time="0/1" value="0" leadInLength="0/1"  />
               <InterpolatingParam id="1376" interp="linr"  time="0/1" value="0" leadInLength="0/1"  />
               <InterpolatingParam id="1377" interp="linr"  time="0/1" value="0" leadInLength="0/1"  />
              </VectorParam>
             </Transformer>
             <Parameters>
              <VectorParam id="1378"  name="sourceCrop">
               <InterpolatingParam id="1379" interp="linr"  time="0/1" value="0" leadInLength="0/1"  />
               <InterpolatingParam id="1380" interp="linr"  time="0/1" value="0" leadInLength="0/1"  />
               <InterpolatingParam id="1381" interp="linr"  time="0/1" value="0" leadInLength="0/1"  />
               <InterpolatingParam id="1382" interp="linr"  time="0/1" value="0" leadInLength="0/1"  />
              </VectorParam>
              <VectorParam id="1383"  name="geometryCrop">
               <InterpolatingParam id="1384" interp="linr"  time="-9999999/1" value="0" leadInLength="0/1"  />
               <InterpolatingParam id="1385" interp="linr"  time="-9999999/1" value="0" leadInLength="0/1"  />
               <InterpolatingParam id="1386" interp="linr"  time="-9999999/1" value="0" leadInLength="0/1"  />
               <InterpolatingParam id="1387" interp="linr"  time="-9999999/1" value="0" leadInLength="0/1"  />
              </VectorParam>
              <InterpolatingParam id="1388" interp="linr"  time="-9999999/1" value="1" leadInLength="0/1"  name="opacity"/>
             </Parameters>
             <Attributes>
              <Attribute id="1389" value="" name="ident"/>
             </Attributes>
             <ExtraData>
              <Entry key="ZoomPanBin">
               <ZoomPanBin id="1390"  >
                <ZoomPanKeyframes>
                 <ZoomPanKeyframe id="1391" timeRangeEnd="-9999999/1" timeRangeDuration="0/1" interpolaterName=""  />
                </ZoomPanKeyframes>
               </ZoomPanBin>
              </Entry>
             </ExtraData>
            </VMFile>
            <MetaData>
             <entry key="WinSubProjectDisplayName" val=""/>
            </MetaData>
           </UnifiedMedia>
           <UnifiedMedia id="1392"  >
            <AMFile id="1393" start="1593" duration="344" scalar="1/1" mediaStart="1874/1" mediaDuration="344/1" trackNumber="2" src="5" channelNumber="0,1" >
             <Parameters>
              <InterpolatingParam id="1394" interp="linr"  time="0/1" value="1" leadInLength="0/1"  name="volume"/>
              <Parameter id="1395"  name="captions"/>
             </Parameters>
             <Attributes>
              <Attribute id="1396" value="" name="ident"/>
              <Attribute id="1397" value="44100" name="sampleRate"/>
              <Attribute id="1398" value="16" name="bitDepth"/>
              <Attribute id="1399" value="1" name="gain"/>
              <Attribute id="1400" value="0" name="mixToMono"/>
             </Attributes>
            </AMFile>
            <VMFile id="1401" start="1593" duration="344" scalar="1/1" mediaStart="1874/1" mediaDuration="344/1" trackNumber="1" src="5" >
             <Transformer>
              <VectorParam id="1402"  name="translation">
               <InterpolatingParam id="1403" interp="linr"  time="-9999999/1" value="0" leadInLength="0/1"  />
               <InterpolatingParam id="1404" interp="linr"  time="-9999999/1" value="0" leadInLength="0/1"  />
               <InterpolatingParam id="1405" interp="linr"  time="-9999999/1" value="0" leadInLength="0/1"  />
              </VectorParam>
              <VectorParam id="1406"  name="rotation">
               <InterpolatingParam id="1407" interp="linr"  time="-9999999/1" value="0" leadInLength="0/1"  />
               <InterpolatingParam id="1408" interp="linr"  time="-9999999/1" value="0" leadInLength="0/1"  />
               <InterpolatingParam id="1409" interp="linr"  time="-9999999/1" value="0" leadInLength="0/1"  />
              </VectorParam>
              <VectorParam id="1410"  name="shear">
               <InterpolatingParam id="1411" interp="linr"  time="-9999999/1" value="0" leadInLength="0/1"  />
               <InterpolatingParam id="1412" interp="linr"  time="-9999999/1" value="0" leadInLength="0/1"  />
               <InterpolatingParam id="1413" interp="linr"  time="-9999999/1" value="0" leadInLength="0/1"  />
              </VectorParam>
              <VectorParam id="1414"  name="scale">
               <InterpolatingParam id="1415" interp="linr"  time="-9999999/1" value="1" leadInLength="0/1"  />
               <InterpolatingParam id="1416" interp="linr"  time="-9999999/1" value="1" leadInLength="0/1"  />
               <InterpolatingParam id="1417" interp="linr"  time="-9999999/1" value="1" leadInLength="0/1"  />
              </VectorParam>
              <VectorParam id="1418"  name="anchor">
               <InterpolatingParam id="1419" interp="linr"  time="0/1" value="0" leadInLength="0/1"  />
               <InterpolatingParam id="1420" interp="linr"  time="0/1" value="0" leadInLength="0/1"  />
               <InterpolatingParam id="1421" interp="linr"  time="0/1" value="0" leadInLength="0/1"  />
              </VectorParam>
             </Transformer>
             <Parameters>
              <VectorParam id="1422"  name="sourceCrop">
               <InterpolatingParam id="1423" interp="linr"  time="0/1" value="0" leadInLength="0/1"  />
               <InterpolatingParam id="1424" interp="linr"  time="0/1" value="0" leadInLength="0/1"  />
               <InterpolatingParam id="1425" interp="linr"  time="0/1" value="0" leadInLength="0/1"  />
               <InterpolatingParam id="1426" interp="linr"  time="0/1" value="0" leadInLength="0/1"  />
              </VectorParam>
              <VectorParam id="1427"  name="geometryCrop">
               <InterpolatingParam id="1428" interp="linr"  time="-9999999/1" value="0" leadInLength="0/1"  />
               <InterpolatingParam id="1429" interp="linr"  time="-9999999/1" value="0" leadInLength="0/1"  />
               <InterpolatingParam id="1430" interp="linr"  time="-9999999/1" value="0" leadInLength="0/1"  />
               <InterpolatingParam id="1431" interp="linr"  time="-9999999/1" value="0" leadInLength="0/1"  />
              </VectorParam>
              <InterpolatingParam id="1432" interp="linr"  time="-9999999/1" value="1" leadInLength="0/1"  name="opacity"/>
             </Parameters>
             <Attributes>
              <Attribute id="1433" value="" name="ident"/>
             </Attributes>
             <ExtraData>
              <Entry key="ZoomPanBin">
               <ZoomPanBin id="1434"  >
                <ZoomPanKeyframes>
                 <ZoomPanKeyframe id="1435" timeRangeEnd="-9999999/1" timeRangeDuration="0/1" interpolaterName=""  />
                </ZoomPanKeyframes>
               </ZoomPanBin>
              </Entry>
             </ExtraData>
            </VMFile>
            <MetaData>
             <entry key="WinSubProjectDisplayName" val=""/>
            </MetaData>
           </UnifiedMedia>
           <UnifiedMedia id="1436"  >
            <AMFile id="1437" start="1937" duration="124" scalar="1/1" mediaStart="2423/1" mediaDuration="124/1" trackNumber="2" src="5" channelNumber="0,1" >
             <Parameters>
              <InterpolatingParam id="1438" interp="linr"  time="0/1" value="1" leadInLength="0/1"  name="volume"/>
              <Parameter id="1439"  name="captions"/>
             </Parameters>
             <Attributes>
              <Attribute id="1440" value="" name="ident"/>
              <Attribute id="1441" value="44100" name="sampleRate"/>
              <Attribute id="1442" value="16" name="bitDepth"/>
              <Attribute id="1443" value="1" name="gain"/>
              <Attribute id="1444" value="0" name="mixToMono"/>
             </Attributes>
            </AMFile>
            <VMFile id="1445" start="1937" duration="124" scalar="1/1" mediaStart="2423/1" mediaDuration="124/1" trackNumber="1" src="5" >
             <Transformer>
              <VectorParam id="1446"  name="translation">
               <InterpolatingParam id="1447" interp="linr"  time="-9999999/1" value="0" leadInLength="0/1"  />
               <InterpolatingParam id="1448" interp="linr"  time="-9999999/1" value="0" leadInLength="0/1"  />
               <InterpolatingParam id="1449" interp="linr"  time="-9999999/1" value="0" leadInLength="0/1"  />
              </VectorParam>
              <VectorParam id="1450"  name="rotation">
               <InterpolatingParam id="1451" interp="linr"  time="-9999999/1" value="0" leadInLength="0/1"  />
               <InterpolatingParam id="1452" interp="linr"  time="-9999999/1" value="0" leadInLength="0/1"  />
               <InterpolatingParam id="1453" interp="linr"  time="-9999999/1" value="0" leadInLength="0/1"  />
              </VectorParam>
              <VectorParam id="1454"  name="shear">
               <InterpolatingParam id="1455" interp="linr"  time="-9999999/1" value="0" leadInLength="0/1"  />
               <InterpolatingParam id="1456" interp="linr"  time="-9999999/1" value="0" leadInLength="0/1"  />
               <InterpolatingParam id="1457" interp="linr"  time="-9999999/1" value="0" leadInLength="0/1"  />
              </VectorParam>
              <VectorParam id="1458"  name="scale">
               <InterpolatingParam id="1459" interp="linr"  time="-9999999/1" value="1" leadInLength="0/1"  />
               <InterpolatingParam id="1460" interp="linr"  time="-9999999/1" value="1" leadInLength="0/1"  />
               <InterpolatingParam id="1461" interp="linr"  time="-9999999/1" value="1" leadInLength="0/1"  />
              </VectorParam>
              <VectorParam id="1462"  name="anchor">
               <InterpolatingParam id="1463" interp="linr"  time="0/1" value="0" leadInLength="0/1"  />
               <InterpolatingParam id="1464" interp="linr"  time="0/1" value="0" leadInLength="0/1"  />
               <InterpolatingParam id="1465" interp="linr"  time="0/1" value="0" leadInLength="0/1"  />
              </VectorParam>
             </Transformer>
             <Parameters>
              <VectorParam id="1466"  name="sourceCrop">
               <InterpolatingParam id="1467" interp="linr"  time="0/1" value="0" leadInLength="0/1"  />
               <InterpolatingParam id="1468" interp="linr"  time="0/1" value="0" leadInLength="0/1"  />
               <InterpolatingParam id="1469" interp="linr"  time="0/1" value="0" leadInLength="0/1"  />
               <InterpolatingParam id="1470" interp="linr"  time="0/1" value="0" leadInLength="0/1"  />
              </VectorParam>
              <VectorParam id="1471"  name="geometryCrop">
               <InterpolatingParam id="1472" interp="linr"  time="-9999999/1" value="0" leadInLength="0/1"  />
               <InterpolatingParam id="1473" interp="linr"  time="-9999999/1" value="0" leadInLength="0/1"  />
               <InterpolatingParam id="1474" interp="linr"  time="-9999999/1" value="0" leadInLength="0/1"  />
               <InterpolatingParam id="1475" interp="linr"  time="-9999999/1" value="0" leadInLength="0/1"  />
              </VectorParam>
              <InterpolatingParam id="1476" interp="linr"  time="-9999999/1" value="1" leadInLength="0/1"  name="opacity"/>
             </Parameters>
             <Attributes>
              <Attribute id="1477" value="" name="ident"/>
             </Attributes>
             <ExtraData>
              <Entry key="ZoomPanBin">
               <ZoomPanBin id="1478"  >
                <ZoomPanKeyframes>
                 <ZoomPanKeyframe id="1479" timeRangeEnd="-9999999/1" timeRangeDuration="0/1" interpolaterName=""  />
                </ZoomPanKeyframes>
               </ZoomPanBin>
              </Entry>
             </ExtraData>
            </VMFile>
            <MetaData>
             <entry key="WinSubProjectDisplayName" val=""/>
            </MetaData>
           </UnifiedMedia>
           <UnifiedMedia id="1480"  >
            <AMFile id="1481" start="2061" duration="19" scalar="1/1" mediaStart="2557/1" mediaDuration="19/1" trackNumber="2" src="5" channelNumber="0,1" >
             <Parameters>
              <InterpolatingParam id="1482" interp="linr"  time="0/1" value="1" leadInLength="0/1"  name="volume"/>
              <Parameter id="1483"  name="captions"/>
             </Parameters>
             <Attributes>
              <Attribute id="1484" value="" name="ident"/>
              <Attribute id="1485" value="44100" name="sampleRate"/>
              <Attribute id="1486" value="16" name="bitDepth"/>
              <Attribute id="1487" value="1" name="gain"/>
              <Attribute id="1488" value="0" name="mixToMono"/>
             </Attributes>
            </AMFile>
            <VMFile id="1489" start="2061" duration="19" scalar="1/1" mediaStart="2557/1" mediaDuration="19/1" trackNumber="1" src="5" >
             <Transformer>
              <VectorParam id="1490"  name="translation">
               <InterpolatingParam id="1491" interp="linr"  time="-9999999/1" value="0" leadInLength="0/1"  />
               <InterpolatingParam id="1492" interp="linr"  time="-9999999/1" value="0" leadInLength="0/1"  />
               <InterpolatingParam id="1493" interp="linr"  time="-9999999/1" value="0" leadInLength="0/1"  />
              </VectorParam>
              <VectorParam id="1494"  name="rotation">
               <InterpolatingParam id="1495" interp="linr"  time="-9999999/1" value="0" leadInLength="0/1"  />
               <InterpolatingParam id="1496" interp="linr"  time="-9999999/1" value="0" leadInLength="0/1"  />
               <InterpolatingParam id="1497" interp="linr"  time="-9999999/1" value="0" leadInLength="0/1"  />
              </VectorParam>
              <VectorParam id="1498"  name="shear">
               <InterpolatingParam id="1499" interp="linr"  time="-9999999/1" value="0" leadInLength="0/1"  />
               <InterpolatingParam id="1500" interp="linr"  time="-9999999/1" value="0" leadInLength="0/1"  />
               <InterpolatingParam id="1501" interp="linr"  time="-9999999/1" value="0" leadInLength="0/1"  />
              </VectorParam>
              <VectorParam id="1502"  name="scale">
               <InterpolatingParam id="1503" interp="linr"  time="-9999999/1" value="1" leadInLength="0/1"  />
               <InterpolatingParam id="1504" interp="linr"  time="-9999999/1" value="1" leadInLength="0/1"  />
               <InterpolatingParam id="1505" interp="linr"  time="-9999999/1" value="1" leadInLength="0/1"  />
              </VectorParam>
              <VectorParam id="1506"  name="anchor">
               <InterpolatingParam id="1507" interp="linr"  time="0/1" value="0" leadInLength="0/1"  />
               <InterpolatingParam id="1508" interp="linr"  time="0/1" value="0" leadInLength="0/1"  />
               <InterpolatingParam id="1509" interp="linr"  time="0/1" value="0" leadInLength="0/1"  />
              </VectorParam>
             </Transformer>
             <Parameters>
              <VectorParam id="1510"  name="sourceCrop">
               <InterpolatingParam id="1511" interp="linr"  time="0/1" value="0" leadInLength="0/1"  />
               <InterpolatingParam id="1512" interp="linr"  time="0/1" value="0" leadInLength="0/1"  />
               <InterpolatingParam id="1513" interp="linr"  time="0/1" value="0" leadInLength="0/1"  />
               <InterpolatingParam id="1514" interp="linr"  time="0/1" value="0" leadInLength="0/1"  />
              </VectorParam>
              <VectorParam id="1515"  name="geometryCrop">
               <InterpolatingParam id="1516" interp="linr"  time="-9999999/1" value="0" leadInLength="0/1"  />
               <InterpolatingParam id="1517" interp="linr"  time="-9999999/1" value="0" leadInLength="0/1"  />
               <InterpolatingParam id="1518" interp="linr"  time="-9999999/1" value="0" leadInLength="0/1"  />
               <InterpolatingParam id="1519" interp="linr"  time="-9999999/1" value="0" leadInLength="0/1"  />
              </VectorParam>
              <InterpolatingParam id="1520" interp="linr"  time="-9999999/1" value="1" leadInLength="0/1"  name="opacity"/>
             </Parameters>
             <Attributes>
              <Attribute id="1521" value="" name="ident"/>
             </Attributes>
             <ExtraData>
              <Entry key="ZoomPanBin">
               <ZoomPanBin id="1522"  >
                <ZoomPanKeyframes>
                 <ZoomPanKeyframe id="1523" timeRangeEnd="-9999999/1" timeRangeDuration="0/1" interpolaterName=""  />
                </ZoomPanKeyframes>
               </ZoomPanBin>
              </Entry>
             </ExtraData>
            </VMFile>
            <MetaData>
             <entry key="WinSubProjectDisplayName" val=""/>
            </MetaData>
           </UnifiedMedia>
           <UnifiedMedia id="1524"  >
            <AMFile id="1525" start="2080" duration="42" scalar="1/1" mediaStart="2585/1" mediaDuration="42/1" trackNumber="2" src="5" channelNumber="0,1" >
             <Parameters>
              <InterpolatingParam id="1526" interp="linr"  time="0/1" value="1" leadInLength="0/1"  name="volume"/>
              <Parameter id="1527"  name="captions"/>
             </Parameters>
             <Attributes>
              <Attribute id="1528" value="" name="ident"/>
              <Attribute id="1529" value="44100" name="sampleRate"/>
              <Attribute id="1530" value="16" name="bitDepth"/>
              <Attribute id="1531" value="1" name="gain"/>
              <Attribute id="1532" value="0" name="mixToMono"/>
             </Attributes>
            </AMFile>
            <VMFile id="1533" start="2080" duration="42" scalar="1/1" mediaStart="2585/1" mediaDuration="42/1" trackNumber="1" src="5" >
             <Transformer>
              <VectorParam id="1534"  name="translation">
               <InterpolatingParam id="1535" interp="linr"  time="-9999999/1" value="0" leadInLength="0/1"  />
               <InterpolatingParam id="1536" interp="linr"  time="-9999999/1" value="0" leadInLength="0/1"  />
               <InterpolatingParam id="1537" interp="linr"  time="-9999999/1" value="0" leadInLength="0/1"  />
              </VectorParam>
              <VectorParam id="1538"  name="rotation">
               <InterpolatingParam id="1539" interp="linr"  time="-9999999/1" value="0" leadInLength="0/1"  />
               <InterpolatingParam id="1540" interp="linr"  time="-9999999/1" value="0" leadInLength="0/1"  />
               <InterpolatingParam id="1541" interp="linr"  time="-9999999/1" value="0" leadInLength="0/1"  />
              </VectorParam>
              <VectorParam id="1542"  name="shear">
               <InterpolatingParam id="1543" interp="linr"  time="-9999999/1" value="0" leadInLength="0/1"  />
               <InterpolatingParam id="1544" interp="linr"  time="-9999999/1" value="0" leadInLength="0/1"  />
               <InterpolatingParam id="1545" interp="linr"  time="-9999999/1" value="0" leadInLength="0/1"  />
              </VectorParam>
              <VectorParam id="1546"  name="scale">
               <InterpolatingParam id="1547" interp="linr"  time="-9999999/1" value="1" leadInLength="0/1"  />
               <InterpolatingParam id="1548" interp="linr"  time="-9999999/1" value="1" leadInLength="0/1"  />
               <InterpolatingParam id="1549" interp="linr"  time="-9999999/1" value="1" leadInLength="0/1"  />
              </VectorParam>
              <VectorParam id="1550"  name="anchor">
               <InterpolatingParam id="1551" interp="linr"  time="0/1" value="0" leadInLength="0/1"  />
               <InterpolatingParam id="1552" interp="linr"  time="0/1" value="0" leadInLength="0/1"  />
               <InterpolatingParam id="1553" interp="linr"  time="0/1" value="0" leadInLength="0/1"  />
              </VectorParam>
             </Transformer>
             <Parameters>
              <VectorParam id="1554"  name="sourceCrop">
               <InterpolatingParam id="1555" interp="linr"  time="0/1" value="0" leadInLength="0/1"  />
               <InterpolatingParam id="1556" interp="linr"  time="0/1" value="0" leadInLength="0/1"  />
               <InterpolatingParam id="1557" interp="linr"  time="0/1" value="0" leadInLength="0/1"  />
               <InterpolatingParam id="1558" interp="linr"  time="0/1" value="0" leadInLength="0/1"  />
              </VectorParam>
              <VectorParam id="1559"  name="geometryCrop">
               <InterpolatingParam id="1560" interp="linr"  time="-9999999/1" value="0" leadInLength="0/1"  />
               <InterpolatingParam id="1561" interp="linr"  time="-9999999/1" value="0" leadInLength="0/1"  />
               <InterpolatingParam id="1562" interp="linr"  time="-9999999/1" value="0" leadInLength="0/1"  />
               <InterpolatingParam id="1563" interp="linr"  time="-9999999/1" value="0" leadInLength="0/1"  />
              </VectorParam>
              <InterpolatingParam id="1564" interp="linr"  time="-9999999/1" value="1" leadInLength="0/1"  name="opacity"/>
             </Parameters>
             <Attributes>
              <Attribute id="1565" value="" name="ident"/>
             </Attributes>
             <ExtraData>
              <Entry key="ZoomPanBin">
               <ZoomPanBin id="1566"  >
                <ZoomPanKeyframes>
                 <ZoomPanKeyframe id="1567" timeRangeEnd="-9999999/1" timeRangeDuration="0/1" interpolaterName=""  />
                </ZoomPanKeyframes>
               </ZoomPanBin>
              </Entry>
             </ExtraData>
            </VMFile>
            <MetaData>
             <entry key="WinSubProjectDisplayName" val=""/>
            </MetaData>
           </UnifiedMedia>
           <UnifiedMedia id="1568"  >
            <AMFile id="1569" start="2122" duration="101" scalar="1/1" mediaStart="2633/1" mediaDuration="101/1" trackNumber="2" src="5" channelNumber="0,1" >
             <Parameters>
              <InterpolatingParam id="1570" interp="linr"  time="0/1" value="1" leadInLength="0/1"  name="volume"/>
              <Parameter id="1571"  name="captions"/>
             </Parameters>
             <Attributes>
              <Attribute id="1572" value="" name="ident"/>
              <Attribute id="1573" value="44100" name="sampleRate"/>
              <Attribute id="1574" value="16" name="bitDepth"/>
              <Attribute id="1575" value="1" name="gain"/>
              <Attribute id="1576" value="0" name="mixToMono"/>
             </Attributes>
            </AMFile>
            <VMFile id="1577" start="2122" duration="101" scalar="1/1" mediaStart="2633/1" mediaDuration="101/1" trackNumber="1" src="5" >
             <Transformer>
              <VectorParam id="1578"  name="translation">
               <InterpolatingParam id="1579" interp="linr"  time="-9999999/1" value="0" leadInLength="0/1"  />
               <InterpolatingParam id="1580" interp="linr"  time="-9999999/1" value="0" leadInLength="0/1"  />
               <InterpolatingParam id="1581" interp="linr"  time="-9999999/1" value="0" leadInLength="0/1"  />
              </VectorParam>
              <VectorParam id="1582"  name="rotation">
               <InterpolatingParam id="1583" interp="linr"  time="-9999999/1" value="0" leadInLength="0/1"  />
               <InterpolatingParam id="1584" interp="linr"  time="-9999999/1" value="0" leadInLength="0/1"  />
               <InterpolatingParam id="1585" interp="linr"  time="-9999999/1" value="0" leadInLength="0/1"  />
              </VectorParam>
              <VectorParam id="1586"  name="shear">
               <InterpolatingParam id="1587" interp="linr"  time="-9999999/1" value="0" leadInLength="0/1"  />
               <InterpolatingParam id="1588" interp="linr"  time="-9999999/1" value="0" leadInLength="0/1"  />
               <InterpolatingParam id="1589" interp="linr"  time="-9999999/1" value="0" leadInLength="0/1"  />
              </VectorParam>
              <VectorParam id="1590"  name="scale">
               <InterpolatingParam id="1591" interp="linr"  time="-9999999/1" value="1" leadInLength="0/1"  />
               <InterpolatingParam id="1592" interp="linr"  time="-9999999/1" value="1" leadInLength="0/1"  />
               <InterpolatingParam id="1593" interp="linr"  time="-9999999/1" value="1" leadInLength="0/1"  />
              </VectorParam>
              <VectorParam id="1594"  name="anchor">
               <InterpolatingParam id="1595" interp="linr"  time="0/1" value="0" leadInLength="0/1"  />
               <InterpolatingParam id="1596" interp="linr"  time="0/1" value="0" leadInLength="0/1"  />
               <InterpolatingParam id="1597" interp="linr"  time="0/1" value="0" leadInLength="0/1"  />
              </VectorParam>
             </Transformer>
             <Parameters>
              <VectorParam id="1598"  name="sourceCrop">
               <InterpolatingParam id="1599" interp="linr"  time="0/1" value="0" leadInLength="0/1"  />
               <InterpolatingParam id="1600" interp="linr"  time="0/1" value="0" leadInLength="0/1"  />
               <InterpolatingParam id="1601" interp="linr"  time="0/1" value="0" leadInLength="0/1"  />
               <InterpolatingParam id="1602" interp="linr"  time="0/1" value="0" leadInLength="0/1"  />
              </VectorParam>
              <VectorParam id="1603"  name="geometryCrop">
               <InterpolatingParam id="1604" interp="linr"  time="-9999999/1" value="0" leadInLength="0/1"  />
               <InterpolatingParam id="1605" interp="linr"  time="-9999999/1" value="0" leadInLength="0/1"  />
               <InterpolatingParam id="1606" interp="linr"  time="-9999999/1" value="0" leadInLength="0/1"  />
               <InterpolatingParam id="1607" interp="linr"  time="-9999999/1" value="0" leadInLength="0/1"  />
              </VectorParam>
              <InterpolatingParam id="1608" interp="linr"  time="-9999999/1" value="1" leadInLength="0/1"  name="opacity"/>
             </Parameters>
             <Attributes>
              <Attribute id="1609" value="" name="ident"/>
             </Attributes>
             <ExtraData>
              <Entry key="ZoomPanBin">
               <ZoomPanBin id="1610"  >
                <ZoomPanKeyframes>
                 <ZoomPanKeyframe id="1611" timeRangeEnd="-9999999/1" timeRangeDuration="0/1" interpolaterName=""  />
                </ZoomPanKeyframes>
               </ZoomPanBin>
              </Entry>
             </ExtraData>
            </VMFile>
            <MetaData>
             <entry key="WinSubProjectDisplayName" val=""/>
            </MetaData>
           </UnifiedMedia>
          </Medias>
         </GenericTrack>
        </StitchedMedia>
       </Medias>
      </GenericTrack>
      <GenericTrack id="1612"  >
       <Attributes>
        <Attribute id="1613" value="" name="ident"/>
        <Attribute id="1614" value="0" name="audioMuted"/>
        <Attribute id="1615" value="0" name="videoHidden"/>
       </Attributes>
       <MetaData>
        <entry key="IsLocked" val="False"/>
        <entry key="WinTrackHeight" val="62"/>
       </MetaData>
       <Medias>
        <StitchedMedia id="1616" start="0" duration="3166" scalar="1/1" mediaStart="12/1" mediaDuration="3166/1" minMediaStart="0/1" >
         <Transformer>
          <VectorParam id="1617"  name="translation">
           <InterpolatingParam id="1618" interp="linr"  time="-9999999/1" value="3.8094527532448448e-011" leadInLength="0/1"  interpolater="leadin-linr"  />
           <InterpolatingParam id="1619" interp="linr"  time="-9999999/1" value="9.1127105861232849e-012" leadInLength="0/1"  interpolater="leadin-linr"  />
           <InterpolatingParam id="1620" interp="linr"  time="-9999999/1" value="0" leadInLength="0/1"  interpolater="leadin-linr"  />
          </VectorParam>
          <VectorParam id="1621"  name="rotation">
           <InterpolatingParam id="1622" interp="linr"  time="-9999999/1" value="0" leadInLength="0/1"  interpolater="leadin-linr"  />
           <InterpolatingParam id="1623" interp="linr"  time="-9999999/1" value="0" leadInLength="0/1"  interpolater="leadin-linr"  />
           <InterpolatingParam id="1624" interp="linr"  time="-9999999/1" value="0" leadInLength="0/1"  interpolater="leadin-linr"  />
          </VectorParam>
          <VectorParam id="1625"  name="shear">
           <InterpolatingParam id="1626" interp="linr"  time="-9999999/1" value="0" leadInLength="0/1"  interpolater="leadin-linr"  />
           <InterpolatingParam id="1627" interp="linr"  time="-9999999/1" value="0" leadInLength="0/1"  interpolater="leadin-linr"  />
           <InterpolatingParam id="1628" interp="linr"  time="-9999999/1" value="0" leadInLength="0/1"  interpolater="leadin-linr"  />
          </VectorParam>
          <VectorParam id="1629"  name="scale">
           <InterpolatingParam id="1630" interp="linr"  time="-9999999/1" value="0.9375" leadInLength="0/1"  interpolater="leadin-linr"  />
           <InterpolatingParam id="1631" interp="linr"  time="-9999999/1" value="0.9375" leadInLength="0/1"  interpolater="leadin-linr"  />
           <InterpolatingParam id="1632" interp="linr"  time="-9999999/1" value="1" leadInLength="0/1"  interpolater="leadin-linr"  />
          </VectorParam>
          <VectorParam id="1633"  name="anchor">
           <InterpolatingParam id="1634" interp="linr"  time="0/1" value="0" leadInLength="0/1"  />
           <InterpolatingParam id="1635" interp="linr"  time="0/1" value="0" leadInLength="0/1"  />
           <InterpolatingParam id="1636" interp="linr"  time="0/1" value="0" leadInLength="0/1"  />
          </VectorParam>
         </Transformer>
         <Parameters>
          <VectorParam id="1637"  name="sourceCrop">
           <InterpolatingParam id="1638" interp="linr"  time="0/1" value="0" leadInLength="0/1"  />
           <InterpolatingParam id="1639" interp="linr"  time="0/1" value="0" leadInLength="0/1"  />
           <InterpolatingParam id="1640" interp="linr"  time="0/1" value="0" leadInLength="0/1"  />
           <InterpolatingParam id="1641" interp="linr"  time="0/1" value="0" leadInLength="0/1"  />
          </VectorParam>
          <VectorParam id="1642"  name="geometryCrop">
           <InterpolatingParam id="1643" interp="linr"  time="-9999999/1" value="0" leadInLength="0/1"  interpolater="leadin-linr"  />
           <InterpolatingParam id="1644" interp="linr"  time="-9999999/1" value="0" leadInLength="0/1"  interpolater="leadin-linr"  />
           <InterpolatingParam id="1645" interp="linr"  time="-9999999/1" value="0" leadInLength="0/1"  interpolater="leadin-linr"  />
           <InterpolatingParam id="1646" interp="linr"  time="-9999999/1" value="0" leadInLength="0/1"  interpolater="leadin-linr"  />
          </VectorParam>
          <InterpolatingParam id="1647" interp="linr"  time="-9999999/1" value="1" leadInLength="0/1"  interpolater="leadin-linr"  name="opacity"/>
          <InterpolatingParam id="1648" interp="linr"  time="0/1" value="1" leadInLength="0/1"  name="cursorOpacity"/>
          <InterpolatingParam id="1649" interp="linr"  time="0/1" value="1" leadInLength="0/1"  name="cursorScale"/>
          <Parameter id="1650"  name="captions"/>
         </Parameters>
         <Effects>
          <GenericEffect id="1651" name = "CursorBaseEffectName" >
           <Parameters>
           <InterpolatingParam id="1652" interp="linr"  time="-9999999/1" value="1" leadInLength="0/1"   name="cursorSize"/>
           <InterpolatingParam id="1653" interp="linr"  time="-9999999/1" value="0" leadInLength="0/1"   name="highlightBlurRadius"/>
           <InterpolatingParam id="1654" interp="linr"  time="-9999999/1" value="0" leadInLength="0/1"   name="highlightColorBlue"/>
           <InterpolatingParam id="1655" interp="linr"  time="-9999999/1" value="255" leadInLength="0/1"   name="highlightColorGreen"/>
           <InterpolatingParam id="1656" interp="linr"  time="-9999999/1" value="255" leadInLength="0/1"   name="highlightColorRed"/>
           <InterpolatingParam id="1657" interp="linr"  time="-9999999/1" value="5" leadInLength="0/1"   name="highlightFeatherSize"/>
           <InterpolatingParam id="1658" interp="linr"  time="-9999999/1" value="2" leadInLength="0/1"   name="highlightMagnification"/>
           <InterpolatingParam id="1659" interp="linr"  time="-9999999/1" value="1" leadInLength="0/1"   name="highlightOpacity"/>
           <InterpolatingParam id="1660" interp="linr"  time="-9999999/1" value="45" leadInLength="0/1"   name="highlightSize"/>
           <Parameter id="1661"   name="highlightType">
            <Keyframes>
            <Keyframe id="1662"  time="-9999999/1" value="0" leadInLength="0/1"  />
            </Keyframes>
           </Parameter>
           <InterpolatingParam id="1663" interp="linr"  time="-9999999/1" value="0" leadInLength="0/1"   name="leftClickColorBlue"/>
           <InterpolatingParam id="1664" interp="linr"  time="-9999999/1" value="0" leadInLength="0/1"   name="leftClickColorGreen"/>
           <InterpolatingParam id="1665" interp="linr"  time="-9999999/1" value="255" leadInLength="0/1"   name="leftClickColorRed"/>
           <InterpolatingParam id="1666" interp="linr"  time="-9999999/1" value="0.80000000000000004" leadInLength="0/1"   name="leftClickDuration"/>
           <InterpolatingParam id="1667" interp="linr"  time="-9999999/1" value="20" leadInLength="0/1"   name="leftClickSize"/>
           <Parameter id="1668"   name="leftClickSoundFilename">
            <Keyframes>
            <Keyframe id="1669"  time="-9999999/1" value="" leadInLength="0/1"  />
            </Keyframes>
           </Parameter>
           <InterpolatingParam id="1670" interp="linr"  time="-9999999/1" value="1" leadInLength="0/1"   name="leftClickSoundVolume"/>
           <Parameter id="1671"   name="leftClickType">
            <Keyframes>
            <Keyframe id="1672"  time="-9999999/1" value="0" leadInLength="0/1"  />
            </Keyframes>
           </Parameter>
           <InterpolatingParam id="1673" interp="linr"  time="-9999999/1" value="1" leadInLength="0/1"   name="opacity"/>
           <InterpolatingParam id="1674" interp="linr"  time="-9999999/1" value="255" leadInLength="0/1"   name="rightClickColorBlue"/>
           <InterpolatingParam id="1675" interp="linr"  time="-9999999/1" value="0" leadInLength="0/1"   name="rightClickColorGreen"/>
           <InterpolatingParam id="1676" interp="linr"  time="-9999999/1" value="0" leadInLength="0/1"   name="rightClickColorRed"/>
           <InterpolatingParam id="1677" interp="linr"  time="-9999999/1" value="0.80000000000000004" leadInLength="0/1"   name="rightClickDuration"/>
           <InterpolatingParam id="1678" interp="linr"  time="-9999999/1" value="20" leadInLength="0/1"   name="rightClickSize"/>
           <Parameter id="1679"   name="rightClickSoundFilename">
            <Keyframes>
            <Keyframe id="1680"  time="-9999999/1" value="" leadInLength="0/1"  />
            </Keyframes>
           </Parameter>
           <InterpolatingParam id="1681" interp="linr"  time="-9999999/1" value="1" leadInLength="0/1"   name="rightClickSoundVolume"/>
           <Parameter id="1682"   name="rightClickType">
            <Keyframes>
            <Keyframe id="1683"  time="-9999999/1" value="0" leadInLength="0/1"  />
            </Keyframes>
           </Parameter>
           </Parameters>
          </GenericEffect>
         </Effects>
         <Attributes>
          <Attribute id="1684" value="" name="ident"/>
         </Attributes>
         <MetaData>
          <entry key="AutoAppliedSmartFocus" val="False"/>
          <entry key="WinSubProjectDisplayName" val=""/>
         </MetaData>
         <ExtraData>
          <Entry key="ZoomPanBin">
           <ZoomPanBin id="1685"  >
            <ZoomPanKeyframes>
             <ZoomPanKeyframe id="1686" timeRangeEnd="-9999999/1" timeRangeDuration="0/1" interpolaterName="linr"  />
            </ZoomPanKeyframes>
           </ZoomPanBin>
          </Entry>
          <Entry key="CursorEffectBin">
           <CursorEffectBin id="1687"  >
            <CursorEffectKeyframes>
             <CursorEffectKeyframe id="1688" timeRangeEnd="-9999999/1" timeRangeDuration="0/1" interpolaterName=""  />
            </CursorEffectKeyframes>
           </CursorEffectBin>
          </Entry>
         </ExtraData>
         <GenericTrack id="1689"  >
          <Attributes>
           <Attribute id="1690" value="" name="ident"/>
           <Attribute id="1691" value="0" name="audioMuted"/>
           <Attribute id="1692" value="0" name="videoHidden"/>
          </Attributes>
          <MetaData>
           <entry key="IsLocked" val="False"/>
           <entry key="WinTrackHeight" val="0"/>
          </MetaData>
          <Medias>
           <ScreenVMFile id="1693" start="0" duration="420" scalar="1/1" mediaStart="0/1" mediaDuration="420/1" trackNumber="0" src="4" >
            <Transformer>
             <VectorParam id="1694"  name="translation">
              <InterpolatingParam id="1695" interp="linr"  time="-9999999/1" value="0" leadInLength="0/1"  />
              <InterpolatingParam id="1696" interp="linr"  time="-9999999/1" value="0" leadInLength="0/1"  />
              <InterpolatingParam id="1697" interp="linr"  time="-9999999/1" value="0" leadInLength="0/1"  />
             </VectorParam>
             <VectorParam id="1698"  name="rotation">
              <InterpolatingParam id="1699" interp="linr"  time="-9999999/1" value="0" leadInLength="0/1"  />
              <InterpolatingParam id="1700" interp="linr"  time="-9999999/1" value="0" leadInLength="0/1"  />
              <InterpolatingParam id="1701" interp="linr"  time="-9999999/1" value="0" leadInLength="0/1"  />
             </VectorParam>
             <VectorParam id="1702"  name="shear">
              <InterpolatingParam id="1703" interp="linr"  time="-9999999/1" value="0" leadInLength="0/1"  />
              <InterpolatingParam id="1704" interp="linr"  time="-9999999/1" value="0" leadInLength="0/1"  />
              <InterpolatingParam id="1705" interp="linr"  time="-9999999/1" value="0" leadInLength="0/1"  />
             </VectorParam>
             <VectorParam id="1706"  name="scale">
              <InterpolatingParam id="1707" interp="linr"  time="-9999999/1" value="1" leadInLength="0/1"  />
              <InterpolatingParam id="1708" interp="linr"  time="-9999999/1" value="1" leadInLength="0/1"  />
              <InterpolatingParam id="1709" interp="linr"  time="-9999999/1" value="1" leadInLength="0/1"  />
             </VectorParam>
             <VectorParam id="1710"  name="anchor">
              <InterpolatingParam id="1711" interp="linr"  time="0/1" value="0" leadInLength="0/1"  />
              <InterpolatingParam id="1712" interp="linr"  time="0/1" value="0" leadInLength="0/1"  />
              <InterpolatingParam id="1713" interp="linr"  time="0/1" value="0" leadInLength="0/1"  />
             </VectorParam>
            </Transformer>
            <Parameters>
             <VectorParam id="1714"  name="sourceCrop">
              <InterpolatingParam id="1715" interp="linr"  time="0/1" value="0" leadInLength="0/1"  />
              <InterpolatingParam id="1716" interp="linr"  time="0/1" value="0" leadInLength="0/1"  />
              <InterpolatingParam id="1717" interp="linr"  time="0/1" value="0" leadInLength="0/1"  />
              <InterpolatingParam id="1718" interp="linr"  time="0/1" value="0" leadInLength="0/1"  />
             </VectorParam>
             <VectorParam id="1719"  name="geometryCrop">
              <InterpolatingParam id="1720" interp="linr"  time="-9999999/1" value="0" leadInLength="0/1"  />
              <InterpolatingParam id="1721" interp="linr"  time="-9999999/1" value="0" leadInLength="0/1"  />
              <InterpolatingParam id="1722" interp="linr"  time="-9999999/1" value="0" leadInLength="0/1"  />
              <InterpolatingParam id="1723" interp="linr"  time="-9999999/1" value="0" leadInLength="0/1"  />
             </VectorParam>
             <InterpolatingParam id="1724" interp="linr"  time="-9999999/1" value="1" leadInLength="0/1"  name="opacity"/>
             <InterpolatingParam id="1725" interp="linr"  time="0/1" value="0" leadInLength="0/1"  name="cursorOpacity"/>
             <InterpolatingParam id="1726" interp="linr"  time="0/1" value="0" leadInLength="0/1"  name="cursorScale"/>
            </Parameters>
            <Attributes>
             <Attribute id="1727" value="" name="ident"/>
            </Attributes>
            <MetaData>
             <entry key="AutoAppliedSmartFocus" val="False"/>
             <entry key="WinSubProjectDisplayName" val=""/>
            </MetaData>
            <ExtraData>
             <Entry key="ZoomPanBin">
              <ZoomPanBin id="1728"  >
               <ZoomPanKeyframes>
                <ZoomPanKeyframe id="1729" timeRangeEnd="-9999999/1" timeRangeDuration="0/1" interpolaterName=""  />
               </ZoomPanKeyframes>
              </ZoomPanBin>
             </Entry>
             <Entry key="CursorEffectBin">
              <CursorEffectBin id="1730"  >
               <CursorEffectKeyframes>
               </CursorEffectKeyframes>
              </CursorEffectBin>
             </Entry>
            </ExtraData>
           </ScreenVMFile>
           <ScreenVMFile id="1731" start="420" duration="242" scalar="1/1" mediaStart="446/1" mediaDuration="242/1" trackNumber="0" src="4" >
            <Transformer>
             <VectorParam id="1732"  name="translation">
              <InterpolatingParam id="1733" interp="linr"  time="-9999999/1" value="0" leadInLength="0/1"  />
              <InterpolatingParam id="1734" interp="linr"  time="-9999999/1" value="0" leadInLength="0/1"  />
              <InterpolatingParam id="1735" interp="linr"  time="-9999999/1" value="0" leadInLength="0/1"  />
             </VectorParam>
             <VectorParam id="1736"  name="rotation">
              <InterpolatingParam id="1737" interp="linr"  time="-9999999/1" value="0" leadInLength="0/1"  />
              <InterpolatingParam id="1738" interp="linr"  time="-9999999/1" value="0" leadInLength="0/1"  />
              <InterpolatingParam id="1739" interp="linr"  time="-9999999/1" value="0" leadInLength="0/1"  />
             </VectorParam>
             <VectorParam id="1740"  name="shear">
              <InterpolatingParam id="1741" interp="linr"  time="-9999999/1" value="0" leadInLength="0/1"  />
              <InterpolatingParam id="1742" interp="linr"  time="-9999999/1" value="0" leadInLength="0/1"  />
              <InterpolatingParam id="1743" interp="linr"  time="-9999999/1" value="0" leadInLength="0/1"  />
             </VectorParam>
             <VectorParam id="1744"  name="scale">
              <InterpolatingParam id="1745" interp="linr"  time="-9999999/1" value="1" leadInLength="0/1"  />
              <InterpolatingParam id="1746" interp="linr"  time="-9999999/1" value="1" leadInLength="0/1"  />
              <InterpolatingParam id="1747" interp="linr"  time="-9999999/1" value="1" leadInLength="0/1"  />
             </VectorParam>
             <VectorParam id="1748"  name="anchor">
              <InterpolatingParam id="1749" interp="linr"  time="0/1" value="0" leadInLength="0/1"  />
              <InterpolatingParam id="1750" interp="linr"  time="0/1" value="0" leadInLength="0/1"  />
              <InterpolatingParam id="1751" interp="linr"  time="0/1" value="0" leadInLength="0/1"  />
             </VectorParam>
            </Transformer>
            <Parameters>
             <VectorParam id="1752"  name="sourceCrop">
              <InterpolatingParam id="1753" interp="linr"  time="0/1" value="0" leadInLength="0/1"  />
              <InterpolatingParam id="1754" interp="linr"  time="0/1" value="0" leadInLength="0/1"  />
              <InterpolatingParam id="1755" interp="linr"  time="0/1" value="0" leadInLength="0/1"  />
              <InterpolatingParam id="1756" interp="linr"  time="0/1" value="0" leadInLength="0/1"  />
             </VectorParam>
             <VectorParam id="1757"  name="geometryCrop">
              <InterpolatingParam id="1758" interp="linr"  time="-9999999/1" value="0" leadInLength="0/1"  />
              <InterpolatingParam id="1759" interp="linr"  time="-9999999/1" value="0" leadInLength="0/1"  />
              <InterpolatingParam id="1760" interp="linr"  time="-9999999/1" value="0" leadInLength="0/1"  />
              <InterpolatingParam id="1761" interp="linr"  time="-9999999/1" value="0" leadInLength="0/1"  />
             </VectorParam>
             <InterpolatingParam id="1762" interp="linr"  time="-9999999/1" value="1" leadInLength="0/1"  name="opacity"/>
             <InterpolatingParam id="1763" interp="linr"  time="0/1" value="0" leadInLength="0/1"  name="cursorOpacity"/>
             <InterpolatingParam id="1764" interp="linr"  time="0/1" value="0" leadInLength="0/1"  name="cursorScale"/>
            </Parameters>
            <Attributes>
             <Attribute id="1765" value="" name="ident"/>
            </Attributes>
            <MetaData>
             <entry key="AutoAppliedSmartFocus" val="False"/>
             <entry key="WinSubProjectDisplayName" val=""/>
            </MetaData>
            <ExtraData>
             <Entry key="ZoomPanBin">
              <ZoomPanBin id="1766"  >
               <ZoomPanKeyframes>
                <ZoomPanKeyframe id="1767" timeRangeEnd="-9999999/1" timeRangeDuration="0/1" interpolaterName=""  />
               </ZoomPanKeyframes>
              </ZoomPanBin>
             </Entry>
             <Entry key="CursorEffectBin">
              <CursorEffectBin id="1768"  >
               <CursorEffectKeyframes>
               </CursorEffectKeyframes>
              </CursorEffectBin>
             </Entry>
            </ExtraData>
           </ScreenVMFile>
           <ScreenVMFile id="1769" start="662" duration="435" scalar="1/1" mediaStart="793/1" mediaDuration="435/1" trackNumber="0" src="4" >
            <Transformer>
             <VectorParam id="1770"  name="translation">
              <InterpolatingParam id="1771" interp="linr"  time="-9999999/1" value="0" leadInLength="0/1"  />
              <InterpolatingParam id="1772" interp="linr"  time="-9999999/1" value="0" leadInLength="0/1"  />
              <InterpolatingParam id="1773" interp="linr"  time="-9999999/1" value="0" leadInLength="0/1"  />
             </VectorParam>
             <VectorParam id="1774"  name="rotation">
              <InterpolatingParam id="1775" interp="linr"  time="-9999999/1" value="0" leadInLength="0/1"  />
              <InterpolatingParam id="1776" interp="linr"  time="-9999999/1" value="0" leadInLength="0/1"  />
              <InterpolatingParam id="1777" interp="linr"  time="-9999999/1" value="0" leadInLength="0/1"  />
             </VectorParam>
             <VectorParam id="1778"  name="shear">
              <InterpolatingParam id="1779" interp="linr"  time="-9999999/1" value="0" leadInLength="0/1"  />
              <InterpolatingParam id="1780" interp="linr"  time="-9999999/1" value="0" leadInLength="0/1"  />
              <InterpolatingParam id="1781" interp="linr"  time="-9999999/1" value="0" leadInLength="0/1"  />
             </VectorParam>
             <VectorParam id="1782"  name="scale">
              <InterpolatingParam id="1783" interp="linr"  time="-9999999/1" value="1" leadInLength="0/1"  />
              <InterpolatingParam id="1784" interp="linr"  time="-9999999/1" value="1" leadInLength="0/1"  />
              <InterpolatingParam id="1785" interp="linr"  time="-9999999/1" value="1" leadInLength="0/1"  />
             </VectorParam>
             <VectorParam id="1786"  name="anchor">
              <InterpolatingParam id="1787" interp="linr"  time="0/1" value="0" leadInLength="0/1"  />
              <InterpolatingParam id="1788" interp="linr"  time="0/1" value="0" leadInLength="0/1"  />
              <InterpolatingParam id="1789" interp="linr"  time="0/1" value="0" leadInLength="0/1"  />
             </VectorParam>
            </Transformer>
            <Parameters>
             <VectorParam id="1790"  name="sourceCrop">
              <InterpolatingParam id="1791" interp="linr"  time="0/1" value="0" leadInLength="0/1"  />
              <InterpolatingParam id="1792" interp="linr"  time="0/1" value="0" leadInLength="0/1"  />
              <InterpolatingParam id="1793" interp="linr"  time="0/1" value="0" leadInLength="0/1"  />
              <InterpolatingParam id="1794" interp="linr"  time="0/1" value="0" leadInLength="0/1"  />
             </VectorParam>
             <VectorParam id="1795"  name="geometryCrop">
              <InterpolatingParam id="1796" interp="linr"  time="-9999999/1" value="0" leadInLength="0/1"  />
              <InterpolatingParam id="1797" interp="linr"  time="-9999999/1" value="0" leadInLength="0/1"  />
              <InterpolatingParam id="1798" interp="linr"  time="-9999999/1" value="0" leadInLength="0/1"  />
              <InterpolatingParam id="1799" interp="linr"  time="-9999999/1" value="0" leadInLength="0/1"  />
             </VectorParam>
             <InterpolatingParam id="1800" interp="linr"  time="-9999999/1" value="1" leadInLength="0/1"  name="opacity"/>
             <InterpolatingParam id="1801" interp="linr"  time="0/1" value="0" leadInLength="0/1"  name="cursorOpacity"/>
             <InterpolatingParam id="1802" interp="linr"  time="0/1" value="0" leadInLength="0/1"  name="cursorScale"/>
            </Parameters>
            <Attributes>
             <Attribute id="1803" value="" name="ident"/>
            </Attributes>
            <MetaData>
             <entry key="AutoAppliedSmartFocus" val="False"/>
             <entry key="WinSubProjectDisplayName" val=""/>
            </MetaData>
            <ExtraData>
             <Entry key="ZoomPanBin">
              <ZoomPanBin id="1804"  >
               <ZoomPanKeyframes>
                <ZoomPanKeyframe id="1805" timeRangeEnd="-9999999/1" timeRangeDuration="0/1" interpolaterName=""  />
               </ZoomPanKeyframes>
              </ZoomPanBin>
             </Entry>
             <Entry key="CursorEffectBin">
              <CursorEffectBin id="1806"  >
               <CursorEffectKeyframes>
               </CursorEffectKeyframes>
              </CursorEffectBin>
             </Entry>
            </ExtraData>
           </ScreenVMFile>
           <ScreenVMFile id="1807" start="1097" duration="102" scalar="1/1" mediaStart="1358/1" mediaDuration="102/1" trackNumber="0" src="4" >
            <Transformer>
             <VectorParam id="1808"  name="translation">
              <InterpolatingParam id="1809" interp="linr"  time="-9999999/1" value="0" leadInLength="0/1"  />
              <InterpolatingParam id="1810" interp="linr"  time="-9999999/1" value="0" leadInLength="0/1"  />
              <InterpolatingParam id="1811" interp="linr"  time="-9999999/1" value="0" leadInLength="0/1"  />
             </VectorParam>
             <VectorParam id="1812"  name="rotation">
              <InterpolatingParam id="1813" interp="linr"  time="-9999999/1" value="0" leadInLength="0/1"  />
              <InterpolatingParam id="1814" interp="linr"  time="-9999999/1" value="0" leadInLength="0/1"  />
              <InterpolatingParam id="1815" interp="linr"  time="-9999999/1" value="0" leadInLength="0/1"  />
             </VectorParam>
             <VectorParam id="1816"  name="shear">
              <InterpolatingParam id="1817" interp="linr"  time="-9999999/1" value="0" leadInLength="0/1"  />
              <InterpolatingParam id="1818" interp="linr"  time="-9999999/1" value="0" leadInLength="0/1"  />
              <InterpolatingParam id="1819" interp="linr"  time="-9999999/1" value="0" leadInLength="0/1"  />
             </VectorParam>
             <VectorParam id="1820"  name="scale">
              <InterpolatingParam id="1821" interp="linr"  time="-9999999/1" value="1" leadInLength="0/1"  />
              <InterpolatingParam id="1822" interp="linr"  time="-9999999/1" value="1" leadInLength="0/1"  />
              <InterpolatingParam id="1823" interp="linr"  time="-9999999/1" value="1" leadInLength="0/1"  />
             </VectorParam>
             <VectorParam id="1824"  name="anchor">
              <InterpolatingParam id="1825" interp="linr"  time="0/1" value="0" leadInLength="0/1"  />
              <InterpolatingParam id="1826" interp="linr"  time="0/1" value="0" leadInLength="0/1"  />
              <InterpolatingParam id="1827" interp="linr"  time="0/1" value="0" leadInLength="0/1"  />
             </VectorParam>
            </Transformer>
            <Parameters>
             <VectorParam id="1828"  name="sourceCrop">
              <InterpolatingParam id="1829" interp="linr"  time="0/1" value="0" leadInLength="0/1"  />
              <InterpolatingParam id="1830" interp="linr"  time="0/1" value="0" leadInLength="0/1"  />
              <InterpolatingParam id="1831" interp="linr"  time="0/1" value="0" leadInLength="0/1"  />
              <InterpolatingParam id="1832" interp="linr"  time="0/1" value="0" leadInLength="0/1"  />
             </VectorParam>
             <VectorParam id="1833"  name="geometryCrop">
              <InterpolatingParam id="1834" interp="linr"  time="-9999999/1" value="0" leadInLength="0/1"  />
              <InterpolatingParam id="1835" interp="linr"  time="-9999999/1" value="0" leadInLength="0/1"  />
              <InterpolatingParam id="1836" interp="linr"  time="-9999999/1" value="0" leadInLength="0/1"  />
              <InterpolatingParam id="1837" interp="linr"  time="-9999999/1" value="0" leadInLength="0/1"  />
             </VectorParam>
             <InterpolatingParam id="1838" interp="linr"  time="-9999999/1" value="1" leadInLength="0/1"  name="opacity"/>
             <InterpolatingParam id="1839" interp="linr"  time="0/1" value="0" leadInLength="0/1"  name="cursorOpacity"/>
             <InterpolatingParam id="1840" interp="linr"  time="0/1" value="0" leadInLength="0/1"  name="cursorScale"/>
            </Parameters>
            <Attributes>
             <Attribute id="1841" value="" name="ident"/>
            </Attributes>
            <MetaData>
             <entry key="AutoAppliedSmartFocus" val="False"/>
             <entry key="WinSubProjectDisplayName" val=""/>
            </MetaData>
            <ExtraData>
             <Entry key="ZoomPanBin">
              <ZoomPanBin id="1842"  >
               <ZoomPanKeyframes>
                <ZoomPanKeyframe id="1843" timeRangeEnd="-9999999/1" timeRangeDuration="0/1" interpolaterName=""  />
               </ZoomPanKeyframes>
              </ZoomPanBin>
             </Entry>
             <Entry key="CursorEffectBin">
              <CursorEffectBin id="1844"  >
               <CursorEffectKeyframes>
               </CursorEffectKeyframes>
              </CursorEffectBin>
             </Entry>
            </ExtraData>
           </ScreenVMFile>
           <ScreenVMFile id="1845" start="1199" duration="158" scalar="1/1" mediaStart="1471/1" mediaDuration="158/1" trackNumber="0" src="4" >
            <Transformer>
             <VectorParam id="1846"  name="translation">
              <InterpolatingParam id="1847" interp="linr"  time="-9999999/1" value="0" leadInLength="0/1"  />
              <InterpolatingParam id="1848" interp="linr"  time="-9999999/1" value="0" leadInLength="0/1"  />
              <InterpolatingParam id="1849" interp="linr"  time="-9999999/1" value="0" leadInLength="0/1"  />
             </VectorParam>
             <VectorParam id="1850"  name="rotation">
              <InterpolatingParam id="1851" interp="linr"  time="-9999999/1" value="0" leadInLength="0/1"  />
              <InterpolatingParam id="1852" interp="linr"  time="-9999999/1" value="0" leadInLength="0/1"  />
              <InterpolatingParam id="1853" interp="linr"  time="-9999999/1" value="0" leadInLength="0/1"  />
             </VectorParam>
             <VectorParam id="1854"  name="shear">
              <InterpolatingParam id="1855" interp="linr"  time="-9999999/1" value="0" leadInLength="0/1"  />
              <InterpolatingParam id="1856" interp="linr"  time="-9999999/1" value="0" leadInLength="0/1"  />
              <InterpolatingParam id="1857" interp="linr"  time="-9999999/1" value="0" leadInLength="0/1"  />
             </VectorParam>
             <VectorParam id="1858"  name="scale">
              <InterpolatingParam id="1859" interp="linr"  time="-9999999/1" value="1" leadInLength="0/1"  />
              <InterpolatingParam id="1860" interp="linr"  time="-9999999/1" value="1" leadInLength="0/1"  />
              <InterpolatingParam id="1861" interp="linr"  time="-9999999/1" value="1" leadInLength="0/1"  />
             </VectorParam>
             <VectorParam id="1862"  name="anchor">
              <InterpolatingParam id="1863" interp="linr"  time="0/1" value="0" leadInLength="0/1"  />
              <InterpolatingParam id="1864" interp="linr"  time="0/1" value="0" leadInLength="0/1"  />
              <InterpolatingParam id="1865" interp="linr"  time="0/1" value="0" leadInLength="0/1"  />
             </VectorParam>
            </Transformer>
            <Parameters>
             <VectorParam id="1866"  name="sourceCrop">
              <InterpolatingParam id="1867" interp="linr"  time="0/1" value="0" leadInLength="0/1"  />
              <InterpolatingParam id="1868" interp="linr"  time="0/1" value="0" leadInLength="0/1"  />
              <InterpolatingParam id="1869" interp="linr"  time="0/1" value="0" leadInLength="0/1"  />
              <InterpolatingParam id="1870" interp="linr"  time="0/1" value="0" leadInLength="0/1"  />
             </VectorParam>
             <VectorParam id="1871"  name="geometryCrop">
              <InterpolatingParam id="1872" interp="linr"  time="-9999999/1" value="0" leadInLength="0/1"  />
              <InterpolatingParam id="1873" interp="linr"  time="-9999999/1" value="0" leadInLength="0/1"  />
              <InterpolatingParam id="1874" interp="linr"  time="-9999999/1" value="0" leadInLength="0/1"  />
              <InterpolatingParam id="1875" interp="linr"  time="-9999999/1" value="0" leadInLength="0/1"  />
             </VectorParam>
             <InterpolatingParam id="1876" interp="linr"  time="-9999999/1" value="1" leadInLength="0/1"  name="opacity"/>
             <InterpolatingParam id="1877" interp="linr"  time="0/1" value="0" leadInLength="0/1"  name="cursorOpacity"/>
             <InterpolatingParam id="1878" interp="linr"  time="0/1" value="0" leadInLength="0/1"  name="cursorScale"/>
            </Parameters>
            <Attributes>
             <Attribute id="1879" value="" name="ident"/>
            </Attributes>
            <MetaData>
             <entry key="AutoAppliedSmartFocus" val="False"/>
             <entry key="WinSubProjectDisplayName" val=""/>
            </MetaData>
            <ExtraData>
             <Entry key="ZoomPanBin">
              <ZoomPanBin id="1880"  >
               <ZoomPanKeyframes>
                <ZoomPanKeyframe id="1881" timeRangeEnd="-9999999/1" timeRangeDuration="0/1" interpolaterName=""  />
               </ZoomPanKeyframes>
              </ZoomPanBin>
             </Entry>
             <Entry key="CursorEffectBin">
              <CursorEffectBin id="1882"  >
               <CursorEffectKeyframes>
               </CursorEffectKeyframes>
              </CursorEffectBin>
             </Entry>
            </ExtraData>
           </ScreenVMFile>
           <ScreenVMFile id="1883" start="1357" duration="72" scalar="1/1" mediaStart="1644/1" mediaDuration="72/1" trackNumber="0" src="4" >
            <Transformer>
             <VectorParam id="1884"  name="translation">
              <InterpolatingParam id="1885" interp="linr"  time="-9999999/1" value="0" leadInLength="0/1"  />
              <InterpolatingParam id="1886" interp="linr"  time="-9999999/1" value="0" leadInLength="0/1"  />
              <InterpolatingParam id="1887" interp="linr"  time="-9999999/1" value="0" leadInLength="0/1"  />
             </VectorParam>
             <VectorParam id="1888"  name="rotation">
              <InterpolatingParam id="1889" interp="linr"  time="-9999999/1" value="0" leadInLength="0/1"  />
              <InterpolatingParam id="1890" interp="linr"  time="-9999999/1" value="0" leadInLength="0/1"  />
              <InterpolatingParam id="1891" interp="linr"  time="-9999999/1" value="0" leadInLength="0/1"  />
             </VectorParam>
             <VectorParam id="1892"  name="shear">
              <InterpolatingParam id="1893" interp="linr"  time="-9999999/1" value="0" leadInLength="0/1"  />
              <InterpolatingParam id="1894" interp="linr"  time="-9999999/1" value="0" leadInLength="0/1"  />
              <InterpolatingParam id="1895" interp="linr"  time="-9999999/1" value="0" leadInLength="0/1"  />
             </VectorParam>
             <VectorParam id="1896"  name="scale">
              <InterpolatingParam id="1897" interp="linr"  time="-9999999/1" value="1" leadInLength="0/1"  />
              <InterpolatingParam id="1898" interp="linr"  time="-9999999/1" value="1" leadInLength="0/1"  />
              <InterpolatingParam id="1899" interp="linr"  time="-9999999/1" value="1" leadInLength="0/1"  />
             </VectorParam>
             <VectorParam id="1900"  name="anchor">
              <InterpolatingParam id="1901" interp="linr"  time="0/1" value="0" leadInLength="0/1"  />
              <InterpolatingParam id="1902" interp="linr"  time="0/1" value="0" leadInLength="0/1"  />
              <InterpolatingParam id="1903" interp="linr"  time="0/1" value="0" leadInLength="0/1"  />
             </VectorParam>
            </Transformer>
            <Parameters>
             <VectorParam id="1904"  name="sourceCrop">
              <InterpolatingParam id="1905" interp="linr"  time="0/1" value="0" leadInLength="0/1"  />
              <InterpolatingParam id="1906" interp="linr"  time="0/1" value="0" leadInLength="0/1"  />
              <InterpolatingParam id="1907" interp="linr"  time="0/1" value="0" leadInLength="0/1"  />
              <InterpolatingParam id="1908" interp="linr"  time="0/1" value="0" leadInLength="0/1"  />
             </VectorParam>
             <VectorParam id="1909"  name="geometryCrop">
              <InterpolatingParam id="1910" interp="linr"  time="-9999999/1" value="0" leadInLength="0/1"  />
              <InterpolatingParam id="1911" interp="linr"  time="-9999999/1" value="0" leadInLength="0/1"  />
              <InterpolatingParam id="1912" interp="linr"  time="-9999999/1" value="0" leadInLength="0/1"  />
              <InterpolatingParam id="1913" interp="linr"  time="-9999999/1" value="0" leadInLength="0/1"  />
             </VectorParam>
             <InterpolatingParam id="1914" interp="linr"  time="-9999999/1" value="1" leadInLength="0/1"  name="opacity"/>
             <InterpolatingParam id="1915" interp="linr"  time="0/1" value="0" leadInLength="0/1"  name="cursorOpacity"/>
             <InterpolatingParam id="1916" interp="linr"  time="0/1" value="0" leadInLength="0/1"  name="cursorScale"/>
            </Parameters>
            <Attributes>
             <Attribute id="1917" value="" name="ident"/>
            </Attributes>
            <MetaData>
             <entry key="AutoAppliedSmartFocus" val="False"/>
             <entry key="WinSubProjectDisplayName" val=""/>
            </MetaData>
            <ExtraData>
             <Entry key="ZoomPanBin">
              <ZoomPanBin id="1918"  >
               <ZoomPanKeyframes>
                <ZoomPanKeyframe id="1919" timeRangeEnd="-9999999/1" timeRangeDuration="0/1" interpolaterName=""  />
               </ZoomPanKeyframes>
              </ZoomPanBin>
             </Entry>
             <Entry key="CursorEffectBin">
              <CursorEffectBin id="1920"  >
               <CursorEffectKeyframes>
               </CursorEffectKeyframes>
              </CursorEffectBin>
             </Entry>
            </ExtraData>
           </ScreenVMFile>
           <ScreenVMFile id="1921" start="1429" duration="89" scalar="1/1" mediaStart="1799/1" mediaDuration="89/1" trackNumber="0" src="4" >
            <Transformer>
             <VectorParam id="1922"  name="translation">
              <InterpolatingParam id="1923" interp="linr"  time="-9999999/1" value="0" leadInLength="0/1"  />
              <InterpolatingParam id="1924" interp="linr"  time="-9999999/1" value="0" leadInLength="0/1"  />
              <InterpolatingParam id="1925" interp="linr"  time="-9999999/1" value="0" leadInLength="0/1"  />
             </VectorParam>
             <VectorParam id="1926"  name="rotation">
              <InterpolatingParam id="1927" interp="linr"  time="-9999999/1" value="0" leadInLength="0/1"  />
              <InterpolatingParam id="1928" interp="linr"  time="-9999999/1" value="0" leadInLength="0/1"  />
              <InterpolatingParam id="1929" interp="linr"  time="-9999999/1" value="0" leadInLength="0/1"  />
             </VectorParam>
             <VectorParam id="1930"  name="shear">
              <InterpolatingParam id="1931" interp="linr"  time="-9999999/1" value="0" leadInLength="0/1"  />
              <InterpolatingParam id="1932" interp="linr"  time="-9999999/1" value="0" leadInLength="0/1"  />
              <InterpolatingParam id="1933" interp="linr"  time="-9999999/1" value="0" leadInLength="0/1"  />
             </VectorParam>
             <VectorParam id="1934"  name="scale">
              <InterpolatingParam id="1935" interp="linr"  time="-9999999/1" value="1" leadInLength="0/1"  />
              <InterpolatingParam id="1936" interp="linr"  time="-9999999/1" value="1" leadInLength="0/1"  />
              <InterpolatingParam id="1937" interp="linr"  time="-9999999/1" value="1" leadInLength="0/1"  />
             </VectorParam>
             <VectorParam id="1938"  name="anchor">
              <InterpolatingParam id="1939" interp="linr"  time="0/1" value="0" leadInLength="0/1"  />
              <InterpolatingParam id="1940" interp="linr"  time="0/1" value="0" leadInLength="0/1"  />
              <InterpolatingParam id="1941" interp="linr"  time="0/1" value="0" leadInLength="0/1"  />
             </VectorParam>
            </Transformer>
            <Parameters>
             <VectorParam id="1942"  name="sourceCrop">
              <InterpolatingParam id="1943" interp="linr"  time="0/1" value="0" leadInLength="0/1"  />
              <InterpolatingParam id="1944" interp="linr"  time="0/1" value="0" leadInLength="0/1"  />
              <InterpolatingParam id="1945" interp="linr"  time="0/1" value="0" leadInLength="0/1"  />
              <InterpolatingParam id="1946" interp="linr"  time="0/1" value="0" leadInLength="0/1"  />
             </VectorParam>
             <VectorParam id="1947"  name="geometryCrop">
              <InterpolatingParam id="1948" interp="linr"  time="-9999999/1" value="0" leadInLength="0/1"  />
              <InterpolatingParam id="1949" interp="linr"  time="-9999999/1" value="0" leadInLength="0/1"  />
              <InterpolatingParam id="1950" interp="linr"  time="-9999999/1" value="0" leadInLength="0/1"  />
              <InterpolatingParam id="1951" interp="linr"  time="-9999999/1" value="0" leadInLength="0/1"  />
             </VectorParam>
             <InterpolatingParam id="1952" interp="linr"  time="-9999999/1" value="1" leadInLength="0/1"  name="opacity"/>
             <InterpolatingParam id="1953" interp="linr"  time="0/1" value="0" leadInLength="0/1"  name="cursorOpacity"/>
             <InterpolatingParam id="1954" interp="linr"  time="0/1" value="0" leadInLength="0/1"  name="cursorScale"/>
            </Parameters>
            <Attributes>
             <Attribute id="1955" value="" name="ident"/>
            </Attributes>
            <MetaData>
             <entry key="AutoAppliedSmartFocus" val="False"/>
             <entry key="WinSubProjectDisplayName" val=""/>
            </MetaData>
            <ExtraData>
             <Entry key="ZoomPanBin">
              <ZoomPanBin id="1956"  >
               <ZoomPanKeyframes>
                <ZoomPanKeyframe id="1957" timeRangeEnd="-9999999/1" timeRangeDuration="0/1" interpolaterName=""  />
               </ZoomPanKeyframes>
              </ZoomPanBin>
             </Entry>
             <Entry key="CursorEffectBin">
              <CursorEffectBin id="1958"  >
               <CursorEffectKeyframes>
               </CursorEffectKeyframes>
              </CursorEffectBin>
             </Entry>
            </ExtraData>
           </ScreenVMFile>
           <ScreenVMFile id="1959" start="1518" duration="201" scalar="1/1" mediaStart="1938/1" mediaDuration="201/1" trackNumber="0" src="4" >
            <Transformer>
             <VectorParam id="1960"  name="translation">
              <InterpolatingParam id="1961" interp="linr"  time="-9999999/1" value="0" leadInLength="0/1"  />
              <InterpolatingParam id="1962" interp="linr"  time="-9999999/1" value="0" leadInLength="0/1"  />
              <InterpolatingParam id="1963" interp="linr"  time="-9999999/1" value="0" leadInLength="0/1"  />
             </VectorParam>
             <VectorParam id="1964"  name="rotation">
              <InterpolatingParam id="1965" interp="linr"  time="-9999999/1" value="0" leadInLength="0/1"  />
              <InterpolatingParam id="1966" interp="linr"  time="-9999999/1" value="0" leadInLength="0/1"  />
              <InterpolatingParam id="1967" interp="linr"  time="-9999999/1" value="0" leadInLength="0/1"  />
             </VectorParam>
             <VectorParam id="1968"  name="shear">
              <InterpolatingParam id="1969" interp="linr"  time="-9999999/1" value="0" leadInLength="0/1"  />
              <InterpolatingParam id="1970" interp="linr"  time="-9999999/1" value="0" leadInLength="0/1"  />
              <InterpolatingParam id="1971" interp="linr"  time="-9999999/1" value="0" leadInLength="0/1"  />
             </VectorParam>
             <VectorParam id="1972"  name="scale">
              <InterpolatingParam id="1973" interp="linr"  time="-9999999/1" value="1" leadInLength="0/1"  />
              <InterpolatingParam id="1974" interp="linr"  time="-9999999/1" value="1" leadInLength="0/1"  />
              <InterpolatingParam id="1975" interp="linr"  time="-9999999/1" value="1" leadInLength="0/1"  />
             </VectorParam>
             <VectorParam id="1976"  name="anchor">
              <InterpolatingParam id="1977" interp="linr"  time="0/1" value="0" leadInLength="0/1"  />
              <InterpolatingParam id="1978" interp="linr"  time="0/1" value="0" leadInLength="0/1"  />
              <InterpolatingParam id="1979" interp="linr"  time="0/1" value="0" leadInLength="0/1"  />
             </VectorParam>
            </Transformer>
            <Parameters>
             <VectorParam id="1980"  name="sourceCrop">
              <InterpolatingParam id="1981" interp="linr"  time="0/1" value="0" leadInLength="0/1"  />
              <InterpolatingParam id="1982" interp="linr"  time="0/1" value="0" leadInLength="0/1"  />
              <InterpolatingParam id="1983" interp="linr"  time="0/1" value="0" leadInLength="0/1"  />
              <InterpolatingParam id="1984" interp="linr"  time="0/1" value="0" leadInLength="0/1"  />
             </VectorParam>
             <VectorParam id="1985"  name="geometryCrop">
              <InterpolatingParam id="1986" interp="linr"  time="-9999999/1" value="0" leadInLength="0/1"  />
              <InterpolatingParam id="1987" interp="linr"  time="-9999999/1" value="0" leadInLength="0/1"  />
              <InterpolatingParam id="1988" interp="linr"  time="-9999999/1" value="0" leadInLength="0/1"  />
              <InterpolatingParam id="1989" interp="linr"  time="-9999999/1" value="0" leadInLength="0/1"  />
             </VectorParam>
             <InterpolatingParam id="1990" interp="linr"  time="-9999999/1" value="1" leadInLength="0/1"  name="opacity"/>
             <InterpolatingParam id="1991" interp="linr"  time="0/1" value="0" leadInLength="0/1"  name="cursorOpacity"/>
             <InterpolatingParam id="1992" interp="linr"  time="0/1" value="0" leadInLength="0/1"  name="cursorScale"/>
            </Parameters>
            <Attributes>
             <Attribute id="1993" value="" name="ident"/>
            </Attributes>
            <MetaData>
             <entry key="AutoAppliedSmartFocus" val="False"/>
             <entry key="WinSubProjectDisplayName" val=""/>
            </MetaData>
            <ExtraData>
             <Entry key="ZoomPanBin">
              <ZoomPanBin id="1994"  >
               <ZoomPanKeyframes>
                <ZoomPanKeyframe id="1995" timeRangeEnd="-9999999/1" timeRangeDuration="0/1" interpolaterName=""  />
               </ZoomPanKeyframes>
              </ZoomPanBin>
             </Entry>
             <Entry key="CursorEffectBin">
              <CursorEffectBin id="1996"  >
               <CursorEffectKeyframes>
               </CursorEffectKeyframes>
              </CursorEffectBin>
             </Entry>
            </ExtraData>
           </ScreenVMFile>
           <ScreenVMFile id="1997" start="1719" duration="97" scalar="1/1" mediaStart="2162/1" mediaDuration="97/1" trackNumber="0" src="4" >
            <Transformer>
             <VectorParam id="1998"  name="translation">
              <InterpolatingParam id="1999" interp="linr"  time="-9999999/1" value="0" leadInLength="0/1"  />
              <InterpolatingParam id="2000" interp="linr"  time="-9999999/1" value="0" leadInLength="0/1"  />
              <InterpolatingParam id="2001" interp="linr"  time="-9999999/1" value="0" leadInLength="0/1"  />
             </VectorParam>
             <VectorParam id="2002"  name="rotation">
              <InterpolatingParam id="2003" interp="linr"  time="-9999999/1" value="0" leadInLength="0/1"  />
              <InterpolatingParam id="2004" interp="linr"  time="-9999999/1" value="0" leadInLength="0/1"  />
              <InterpolatingParam id="2005" interp="linr"  time="-9999999/1" value="0" leadInLength="0/1"  />
             </VectorParam>
             <VectorParam id="2006"  name="shear">
              <InterpolatingParam id="2007" interp="linr"  time="-9999999/1" value="0" leadInLength="0/1"  />
              <InterpolatingParam id="2008" interp="linr"  time="-9999999/1" value="0" leadInLength="0/1"  />
              <InterpolatingParam id="2009" interp="linr"  time="-9999999/1" value="0" leadInLength="0/1"  />
             </VectorParam>
             <VectorParam id="2010"  name="scale">
              <InterpolatingParam id="2011" interp="linr"  time="-9999999/1" value="1" leadInLength="0/1"  />
              <InterpolatingParam id="2012" interp="linr"  time="-9999999/1" value="1" leadInLength="0/1"  />
              <InterpolatingParam id="2013" interp="linr"  time="-9999999/1" value="1" leadInLength="0/1"  />
             </VectorParam>
             <VectorParam id="2014"  name="anchor">
              <InterpolatingParam id="2015" interp="linr"  time="0/1" value="0" leadInLength="0/1"  />
              <InterpolatingParam id="2016" interp="linr"  time="0/1" value="0" leadInLength="0/1"  />
              <InterpolatingParam id="2017" interp="linr"  time="0/1" value="0" leadInLength="0/1"  />
             </VectorParam>
            </Transformer>
            <Parameters>
             <VectorParam id="2018"  name="sourceCrop">
              <InterpolatingParam id="2019" interp="linr"  time="0/1" value="0" leadInLength="0/1"  />
              <InterpolatingParam id="2020" interp="linr"  time="0/1" value="0" leadInLength="0/1"  />
              <InterpolatingParam id="2021" interp="linr"  time="0/1" value="0" leadInLength="0/1"  />
              <InterpolatingParam id="2022" interp="linr"  time="0/1" value="0" leadInLength="0/1"  />
             </VectorParam>
             <VectorParam id="2023"  name="geometryCrop">
              <InterpolatingParam id="2024" interp="linr"  time="-9999999/1" value="0" leadInLength="0/1"  />
              <InterpolatingParam id="2025" interp="linr"  time="-9999999/1" value="0" leadInLength="0/1"  />
              <InterpolatingParam id="2026" interp="linr"  time="-9999999/1" value="0" leadInLength="0/1"  />
              <InterpolatingParam id="2027" interp="linr"  time="-9999999/1" value="0" leadInLength="0/1"  />
             </VectorParam>
             <InterpolatingParam id="2028" interp="linr"  time="-9999999/1" value="1" leadInLength="0/1"  name="opacity"/>
             <InterpolatingParam id="2029" interp="linr"  time="0/1" value="0" leadInLength="0/1"  name="cursorOpacity"/>
             <InterpolatingParam id="2030" interp="linr"  time="0/1" value="0" leadInLength="0/1"  name="cursorScale"/>
            </Parameters>
            <Attributes>
             <Attribute id="2031" value="" name="ident"/>
            </Attributes>
            <MetaData>
             <entry key="AutoAppliedSmartFocus" val="False"/>
             <entry key="WinSubProjectDisplayName" val=""/>
            </MetaData>
            <ExtraData>
             <Entry key="ZoomPanBin">
              <ZoomPanBin id="2032"  >
               <ZoomPanKeyframes>
                <ZoomPanKeyframe id="2033" timeRangeEnd="-9999999/1" timeRangeDuration="0/1" interpolaterName=""  />
               </ZoomPanKeyframes>
              </ZoomPanBin>
             </Entry>
             <Entry key="CursorEffectBin">
              <CursorEffectBin id="2034"  >
               <CursorEffectKeyframes>
               </CursorEffectKeyframes>
              </CursorEffectBin>
             </Entry>
            </ExtraData>
           </ScreenVMFile>
           <ScreenVMFile id="2035" start="1816" duration="97" scalar="1/1" mediaStart="2273/1" mediaDuration="97/1" trackNumber="0" src="4" >
            <Transformer>
             <VectorParam id="2036"  name="translation">
              <InterpolatingParam id="2037" interp="linr"  time="-9999999/1" value="0" leadInLength="0/1"  />
              <InterpolatingParam id="2038" interp="linr"  time="-9999999/1" value="0" leadInLength="0/1"  />
              <InterpolatingParam id="2039" interp="linr"  time="-9999999/1" value="0" leadInLength="0/1"  />
             </VectorParam>
             <VectorParam id="2040"  name="rotation">
              <InterpolatingParam id="2041" interp="linr"  time="-9999999/1" value="0" leadInLength="0/1"  />
              <InterpolatingParam id="2042" interp="linr"  time="-9999999/1" value="0" leadInLength="0/1"  />
              <InterpolatingParam id="2043" interp="linr"  time="-9999999/1" value="0" leadInLength="0/1"  />
             </VectorParam>
             <VectorParam id="2044"  name="shear">
              <InterpolatingParam id="2045" interp="linr"  time="-9999999/1" value="0" leadInLength="0/1"  />
              <InterpolatingParam id="2046" interp="linr"  time="-9999999/1" value="0" leadInLength="0/1"  />
              <InterpolatingParam id="2047" interp="linr"  time="-9999999/1" value="0" leadInLength="0/1"  />
             </VectorParam>
             <VectorParam id="2048"  name="scale">
              <InterpolatingParam id="2049" interp="linr"  time="-9999999/1" value="1" leadInLength="0/1"  />
              <InterpolatingParam id="2050" interp="linr"  time="-9999999/1" value="1" leadInLength="0/1"  />
              <InterpolatingParam id="2051" interp="linr"  time="-9999999/1" value="1" leadInLength="0/1"  />
             </VectorParam>
             <VectorParam id="2052"  name="anchor">
              <InterpolatingParam id="2053" interp="linr"  time="0/1" value="0" leadInLength="0/1"  />
              <InterpolatingParam id="2054" interp="linr"  time="0/1" value="0" leadInLength="0/1"  />
              <InterpolatingParam id="2055" interp="linr"  time="0/1" value="0" leadInLength="0/1"  />
             </VectorParam>
            </Transformer>
            <Parameters>
             <VectorParam id="2056"  name="sourceCrop">
              <InterpolatingParam id="2057" interp="linr"  time="0/1" value="0" leadInLength="0/1"  />
              <InterpolatingParam id="2058" interp="linr"  time="0/1" value="0" leadInLength="0/1"  />
              <InterpolatingParam id="2059" interp="linr"  time="0/1" value="0" leadInLength="0/1"  />
              <InterpolatingParam id="2060" interp="linr"  time="0/1" value="0" leadInLength="0/1"  />
             </VectorParam>
             <VectorParam id="2061"  name="geometryCrop">
              <InterpolatingParam id="2062" interp="linr"  time="-9999999/1" value="0" leadInLength="0/1"  />
              <InterpolatingParam id="2063" interp="linr"  time="-9999999/1" value="0" leadInLength="0/1"  />
              <InterpolatingParam id="2064" interp="linr"  time="-9999999/1" value="0" leadInLength="0/1"  />
              <InterpolatingParam id="2065" interp="linr"  time="-9999999/1" value="0" leadInLength="0/1"  />
             </VectorParam>
             <InterpolatingParam id="2066" interp="linr"  time="-9999999/1" value="1" leadInLength="0/1"  name="opacity"/>
             <InterpolatingParam id="2067" interp="linr"  time="0/1" value="0" leadInLength="0/1"  name="cursorOpacity"/>
             <InterpolatingParam id="2068" interp="linr"  time="0/1" value="0" leadInLength="0/1"  name="cursorScale"/>
            </Parameters>
            <Attributes>
             <Attribute id="2069" value="" name="ident"/>
            </Attributes>
            <MetaData>
             <entry key="AutoAppliedSmartFocus" val="False"/>
             <entry key="WinSubProjectDisplayName" val=""/>
            </MetaData>
            <ExtraData>
             <Entry key="ZoomPanBin">
              <ZoomPanBin id="2070"  >
               <ZoomPanKeyframes>
                <ZoomPanKeyframe id="2071" timeRangeEnd="-9999999/1" timeRangeDuration="0/1" interpolaterName=""  />
               </ZoomPanKeyframes>
              </ZoomPanBin>
             </Entry>
             <Entry key="CursorEffectBin">
              <CursorEffectBin id="2072"  >
               <CursorEffectKeyframes>
               </CursorEffectKeyframes>
              </CursorEffectBin>
             </Entry>
            </ExtraData>
           </ScreenVMFile>
           <ScreenVMFile id="2073" start="1913" duration="70" scalar="1/1" mediaStart="2386/1" mediaDuration="70/1" trackNumber="0" src="4" >
            <Transformer>
             <VectorParam id="2074"  name="translation">
              <InterpolatingParam id="2075" interp="linr"  time="-9999999/1" value="0" leadInLength="0/1"  />
              <InterpolatingParam id="2076" interp="linr"  time="-9999999/1" value="0" leadInLength="0/1"  />
              <InterpolatingParam id="2077" interp="linr"  time="-9999999/1" value="0" leadInLength="0/1"  />
             </VectorParam>
             <VectorParam id="2078"  name="rotation">
              <InterpolatingParam id="2079" interp="linr"  time="-9999999/1" value="0" leadInLength="0/1"  />
              <InterpolatingParam id="2080" interp="linr"  time="-9999999/1" value="0" leadInLength="0/1"  />
              <InterpolatingParam id="2081" interp="linr"  time="-9999999/1" value="0" leadInLength="0/1"  />
             </VectorParam>
             <VectorParam id="2082"  name="shear">
              <InterpolatingParam id="2083" interp="linr"  time="-9999999/1" value="0" leadInLength="0/1"  />
              <InterpolatingParam id="2084" interp="linr"  time="-9999999/1" value="0" leadInLength="0/1"  />
              <InterpolatingParam id="2085" interp="linr"  time="-9999999/1" value="0" leadInLength="0/1"  />
             </VectorParam>
             <VectorParam id="2086"  name="scale">
              <InterpolatingParam id="2087" interp="linr"  time="-9999999/1" value="1" leadInLength="0/1"  />
              <InterpolatingParam id="2088" interp="linr"  time="-9999999/1" value="1" leadInLength="0/1"  />
              <InterpolatingParam id="2089" interp="linr"  time="-9999999/1" value="1" leadInLength="0/1"  />
             </VectorParam>
             <VectorParam id="2090"  name="anchor">
              <InterpolatingParam id="2091" interp="linr"  time="0/1" value="0" leadInLength="0/1"  />
              <InterpolatingParam id="2092" interp="linr"  time="0/1" value="0" leadInLength="0/1"  />
              <InterpolatingParam id="2093" interp="linr"  time="0/1" value="0" leadInLength="0/1"  />
             </VectorParam>
            </Transformer>
            <Parameters>
             <VectorParam id="2094"  name="sourceCrop">
              <InterpolatingParam id="2095" interp="linr"  time="0/1" value="0" leadInLength="0/1"  />
              <InterpolatingParam id="2096" interp="linr"  time="0/1" value="0" leadInLength="0/1"  />
              <InterpolatingParam id="2097" interp="linr"  time="0/1" value="0" leadInLength="0/1"  />
              <InterpolatingParam id="2098" interp="linr"  time="0/1" value="0" leadInLength="0/1"  />
             </VectorParam>
             <VectorParam id="2099"  name="geometryCrop">
              <InterpolatingParam id="2100" interp="linr"  time="-9999999/1" value="0" leadInLength="0/1"  />
              <InterpolatingParam id="2101" interp="linr"  time="-9999999/1" value="0" leadInLength="0/1"  />
              <InterpolatingParam id="2102" interp="linr"  time="-9999999/1" value="0" leadInLength="0/1"  />
              <InterpolatingParam id="2103" interp="linr"  time="-9999999/1" value="0" leadInLength="0/1"  />
             </VectorParam>
             <InterpolatingParam id="2104" interp="linr"  time="-9999999/1" value="1" leadInLength="0/1"  name="opacity"/>
             <InterpolatingParam id="2105" interp="linr"  time="0/1" value="0" leadInLength="0/1"  name="cursorOpacity"/>
             <InterpolatingParam id="2106" interp="linr"  time="0/1" value="0" leadInLength="0/1"  name="cursorScale"/>
            </Parameters>
            <Attributes>
             <Attribute id="2107" value="" name="ident"/>
            </Attributes>
            <MetaData>
             <entry key="AutoAppliedSmartFocus" val="False"/>
             <entry key="WinSubProjectDisplayName" val=""/>
            </MetaData>
            <ExtraData>
             <Entry key="ZoomPanBin">
              <ZoomPanBin id="2108"  >
               <ZoomPanKeyframes>
                <ZoomPanKeyframe id="2109" timeRangeEnd="-9999999/1" timeRangeDuration="0/1" interpolaterName=""  />
               </ZoomPanKeyframes>
              </ZoomPanBin>
             </Entry>
             <Entry key="CursorEffectBin">
              <CursorEffectBin id="2110"  >
               <CursorEffectKeyframes>
               </CursorEffectKeyframes>
              </CursorEffectBin>
             </Entry>
            </ExtraData>
           </ScreenVMFile>
           <ScreenVMFile id="2111" start="1983" duration="73" scalar="1/1" mediaStart="2501/1" mediaDuration="73/1" trackNumber="0" src="4" >
            <Transformer>
             <VectorParam id="2112"  name="translation">
              <InterpolatingParam id="2113" interp="linr"  time="-9999999/1" value="0" leadInLength="0/1"  />
              <InterpolatingParam id="2114" interp="linr"  time="-9999999/1" value="0" leadInLength="0/1"  />
              <InterpolatingParam id="2115" interp="linr"  time="-9999999/1" value="0" leadInLength="0/1"  />
             </VectorParam>
             <VectorParam id="2116"  name="rotation">
              <InterpolatingParam id="2117" interp="linr"  time="-9999999/1" value="0" leadInLength="0/1"  />
              <InterpolatingParam id="2118" interp="linr"  time="-9999999/1" value="0" leadInLength="0/1"  />
              <InterpolatingParam id="2119" interp="linr"  time="-9999999/1" value="0" leadInLength="0/1"  />
             </VectorParam>
             <VectorParam id="2120"  name="shear">
              <InterpolatingParam id="2121" interp="linr"  time="-9999999/1" value="0" leadInLength="0/1"  />
              <InterpolatingParam id="2122" interp="linr"  time="-9999999/1" value="0" leadInLength="0/1"  />
              <InterpolatingParam id="2123" interp="linr"  time="-9999999/1" value="0" leadInLength="0/1"  />
             </VectorParam>
             <VectorParam id="2124"  name="scale">
              <InterpolatingParam id="2125" interp="linr"  time="-9999999/1" value="1" leadInLength="0/1"  />
              <InterpolatingParam id="2126" interp="linr"  time="-9999999/1" value="1" leadInLength="0/1"  />
              <InterpolatingParam id="2127" interp="linr"  time="-9999999/1" value="1" leadInLength="0/1"  />
             </VectorParam>
             <VectorParam id="2128"  name="anchor">
              <InterpolatingParam id="2129" interp="linr"  time="0/1" value="0" leadInLength="0/1"  />
              <InterpolatingParam id="2130" interp="linr"  time="0/1" value="0" leadInLength="0/1"  />
              <InterpolatingParam id="2131" interp="linr"  time="0/1" value="0" leadInLength="0/1"  />
             </VectorParam>
            </Transformer>
            <Parameters>
             <VectorParam id="2132"  name="sourceCrop">
              <InterpolatingParam id="2133" interp="linr"  time="0/1" value="0" leadInLength="0/1"  />
              <InterpolatingParam id="2134" interp="linr"  time="0/1" value="0" leadInLength="0/1"  />
              <InterpolatingParam id="2135" interp="linr"  time="0/1" value="0" leadInLength="0/1"  />
              <InterpolatingParam id="2136" interp="linr"  time="0/1" value="0" leadInLength="0/1"  />
             </VectorParam>
             <VectorParam id="2137"  name="geometryCrop">
              <InterpolatingParam id="2138" interp="linr"  time="-9999999/1" value="0" leadInLength="0/1"  />
              <InterpolatingParam id="2139" interp="linr"  time="-9999999/1" value="0" leadInLength="0/1"  />
              <InterpolatingParam id="2140" interp="linr"  time="-9999999/1" value="0" leadInLength="0/1"  />
              <InterpolatingParam id="2141" interp="linr"  time="-9999999/1" value="0" leadInLength="0/1"  />
             </VectorParam>
             <InterpolatingParam id="2142" interp="linr"  time="-9999999/1" value="1" leadInLength="0/1"  name="opacity"/>
             <InterpolatingParam id="2143" interp="linr"  time="0/1" value="0" leadInLength="0/1"  name="cursorOpacity"/>
             <InterpolatingParam id="2144" interp="linr"  time="0/1" value="0" leadInLength="0/1"  name="cursorScale"/>
            </Parameters>
            <Attributes>
             <Attribute id="2145" value="" name="ident"/>
            </Attributes>
            <MetaData>
             <entry key="AutoAppliedSmartFocus" val="False"/>
             <entry key="WinSubProjectDisplayName" val=""/>
            </MetaData>
            <ExtraData>
             <Entry key="ZoomPanBin">
              <ZoomPanBin id="2146"  >
               <ZoomPanKeyframes>
                <ZoomPanKeyframe id="2147" timeRangeEnd="-9999999/1" timeRangeDuration="0/1" interpolaterName=""  />
               </ZoomPanKeyframes>
              </ZoomPanBin>
             </Entry>
             <Entry key="CursorEffectBin">
              <CursorEffectBin id="2148"  >
               <CursorEffectKeyframes>
               </CursorEffectKeyframes>
              </CursorEffectBin>
             </Entry>
            </ExtraData>
           </ScreenVMFile>
           <ScreenVMFile id="2149" start="2056" duration="125" scalar="1/1" mediaStart="2596/1" mediaDuration="125/1" trackNumber="0" src="4" >
            <Transformer>
             <VectorParam id="2150"  name="translation">
              <InterpolatingParam id="2151" interp="linr"  time="-9999999/1" value="0" leadInLength="0/1"  />
              <InterpolatingParam id="2152" interp="linr"  time="-9999999/1" value="0" leadInLength="0/1"  />
              <InterpolatingParam id="2153" interp="linr"  time="-9999999/1" value="0" leadInLength="0/1"  />
             </VectorParam>
             <VectorParam id="2154"  name="rotation">
              <InterpolatingParam id="2155" interp="linr"  time="-9999999/1" value="0" leadInLength="0/1"  />
              <InterpolatingParam id="2156" interp="linr"  time="-9999999/1" value="0" leadInLength="0/1"  />
              <InterpolatingParam id="2157" interp="linr"  time="-9999999/1" value="0" leadInLength="0/1"  />
             </VectorParam>
             <VectorParam id="2158"  name="shear">
              <InterpolatingParam id="2159" interp="linr"  time="-9999999/1" value="0" leadInLength="0/1"  />
              <InterpolatingParam id="2160" interp="linr"  time="-9999999/1" value="0" leadInLength="0/1"  />
              <InterpolatingParam id="2161" interp="linr"  time="-9999999/1" value="0" leadInLength="0/1"  />
             </VectorParam>
             <VectorParam id="2162"  name="scale">
              <InterpolatingParam id="2163" interp="linr"  time="-9999999/1" value="1" leadInLength="0/1"  />
              <InterpolatingParam id="2164" interp="linr"  time="-9999999/1" value="1" leadInLength="0/1"  />
              <InterpolatingParam id="2165" interp="linr"  time="-9999999/1" value="1" leadInLength="0/1"  />
             </VectorParam>
             <VectorParam id="2166"  name="anchor">
              <InterpolatingParam id="2167" interp="linr"  time="0/1" value="0" leadInLength="0/1"  />
              <InterpolatingParam id="2168" interp="linr"  time="0/1" value="0" leadInLength="0/1"  />
              <InterpolatingParam id="2169" interp="linr"  time="0/1" value="0" leadInLength="0/1"  />
             </VectorParam>
            </Transformer>
            <Parameters>
             <VectorParam id="2170"  name="sourceCrop">
              <InterpolatingParam id="2171" interp="linr"  time="0/1" value="0" leadInLength="0/1"  />
              <InterpolatingParam id="2172" interp="linr"  time="0/1" value="0" leadInLength="0/1"  />
              <InterpolatingParam id="2173" interp="linr"  time="0/1" value="0" leadInLength="0/1"  />
              <InterpolatingParam id="2174" interp="linr"  time="0/1" value="0" leadInLength="0/1"  />
             </VectorParam>
             <VectorParam id="2175"  name="geometryCrop">
              <InterpolatingParam id="2176" interp="linr"  time="-9999999/1" value="0" leadInLength="0/1"  />
              <InterpolatingParam id="2177" interp="linr"  time="-9999999/1" value="0" leadInLength="0/1"  />
              <InterpolatingParam id="2178" interp="linr"  time="-9999999/1" value="0" leadInLength="0/1"  />
              <InterpolatingParam id="2179" interp="linr"  time="-9999999/1" value="0" leadInLength="0/1"  />
             </VectorParam>
             <InterpolatingParam id="2180" interp="linr"  time="-9999999/1" value="1" leadInLength="0/1"  name="opacity"/>
             <InterpolatingParam id="2181" interp="linr"  time="0/1" value="0" leadInLength="0/1"  name="cursorOpacity"/>
             <InterpolatingParam id="2182" interp="linr"  time="0/1" value="0" leadInLength="0/1"  name="cursorScale"/>
            </Parameters>
            <Attributes>
             <Attribute id="2183" value="" name="ident"/>
            </Attributes>
            <MetaData>
             <entry key="AutoAppliedSmartFocus" val="False"/>
             <entry key="WinSubProjectDisplayName" val=""/>
            </MetaData>
            <ExtraData>
             <Entry key="ZoomPanBin">
              <ZoomPanBin id="2184"  >
               <ZoomPanKeyframes>
                <ZoomPanKeyframe id="2185" timeRangeEnd="-9999999/1" timeRangeDuration="0/1" interpolaterName=""  />
               </ZoomPanKeyframes>
              </ZoomPanBin>
             </Entry>
             <Entry key="CursorEffectBin">
              <CursorEffectBin id="2186"  >
               <CursorEffectKeyframes>
               </CursorEffectKeyframes>
              </CursorEffectBin>
             </Entry>
            </ExtraData>
           </ScreenVMFile>
           <ScreenVMFile id="2187" start="2181" duration="56" scalar="1/1" mediaStart="2729/1" mediaDuration="56/1" trackNumber="0" src="4" >
            <Transformer>
             <VectorParam id="2188"  name="translation">
              <InterpolatingParam id="2189" interp="linr"  time="-9999999/1" value="0" leadInLength="0/1"  />
              <InterpolatingParam id="2190" interp="linr"  time="-9999999/1" value="0" leadInLength="0/1"  />
              <InterpolatingParam id="2191" interp="linr"  time="-9999999/1" value="0" leadInLength="0/1"  />
             </VectorParam>
             <VectorParam id="2192"  name="rotation">
              <InterpolatingParam id="2193" interp="linr"  time="-9999999/1" value="0" leadInLength="0/1"  />
              <InterpolatingParam id="2194" interp="linr"  time="-9999999/1" value="0" leadInLength="0/1"  />
              <InterpolatingParam id="2195" interp="linr"  time="-9999999/1" value="0" leadInLength="0/1"  />
             </VectorParam>
             <VectorParam id="2196"  name="shear">
              <InterpolatingParam id="2197" interp="linr"  time="-9999999/1" value="0" leadInLength="0/1"  />
              <InterpolatingParam id="2198" interp="linr"  time="-9999999/1" value="0" leadInLength="0/1"  />
              <InterpolatingParam id="2199" interp="linr"  time="-9999999/1" value="0" leadInLength="0/1"  />
             </VectorParam>
             <VectorParam id="2200"  name="scale">
              <InterpolatingParam id="2201" interp="linr"  time="-9999999/1" value="1" leadInLength="0/1"  />
              <InterpolatingParam id="2202" interp="linr"  time="-9999999/1" value="1" leadInLength="0/1"  />
              <InterpolatingParam id="2203" interp="linr"  time="-9999999/1" value="1" leadInLength="0/1"  />
             </VectorParam>
             <VectorParam id="2204"  name="anchor">
              <InterpolatingParam id="2205" interp="linr"  time="0/1" value="0" leadInLength="0/1"  />
              <InterpolatingParam id="2206" interp="linr"  time="0/1" value="0" leadInLength="0/1"  />
              <InterpolatingParam id="2207" interp="linr"  time="0/1" value="0" leadInLength="0/1"  />
             </VectorParam>
            </Transformer>
            <Parameters>
             <VectorParam id="2208"  name="sourceCrop">
              <InterpolatingParam id="2209" interp="linr"  time="0/1" value="0" leadInLength="0/1"  />
              <InterpolatingParam id="2210" interp="linr"  time="0/1" value="0" leadInLength="0/1"  />
              <InterpolatingParam id="2211" interp="linr"  time="0/1" value="0" leadInLength="0/1"  />
              <InterpolatingParam id="2212" interp="linr"  time="0/1" value="0" leadInLength="0/1"  />
             </VectorParam>
             <VectorParam id="2213"  name="geometryCrop">
              <InterpolatingParam id="2214" interp="linr"  time="-9999999/1" value="0" leadInLength="0/1"  />
              <InterpolatingParam id="2215" interp="linr"  time="-9999999/1" value="0" leadInLength="0/1"  />
              <InterpolatingParam id="2216" interp="linr"  time="-9999999/1" value="0" leadInLength="0/1"  />
              <InterpolatingParam id="2217" interp="linr"  time="-9999999/1" value="0" leadInLength="0/1"  />
             </VectorParam>
             <InterpolatingParam id="2218" interp="linr"  time="-9999999/1" value="1" leadInLength="0/1"  name="opacity"/>
             <InterpolatingParam id="2219" interp="linr"  time="0/1" value="0" leadInLength="0/1"  name="cursorOpacity"/>
             <InterpolatingParam id="2220" interp="linr"  time="0/1" value="0" leadInLength="0/1"  name="cursorScale"/>
            </Parameters>
            <Attributes>
             <Attribute id="2221" value="" name="ident"/>
            </Attributes>
            <MetaData>
             <entry key="AutoAppliedSmartFocus" val="False"/>
             <entry key="WinSubProjectDisplayName" val=""/>
            </MetaData>
            <ExtraData>
             <Entry key="ZoomPanBin">
              <ZoomPanBin id="2222"  >
               <ZoomPanKeyframes>
                <ZoomPanKeyframe id="2223" timeRangeEnd="-9999999/1" timeRangeDuration="0/1" interpolaterName=""  />
               </ZoomPanKeyframes>
              </ZoomPanBin>
             </Entry>
             <Entry key="CursorEffectBin">
              <CursorEffectBin id="2224"  >
               <CursorEffectKeyframes>
               </CursorEffectKeyframes>
              </CursorEffectBin>
             </Entry>
            </ExtraData>
           </ScreenVMFile>
           <ScreenVMFile id="2225" start="2237" duration="26" scalar="1/1" mediaStart="2801/1" mediaDuration="26/1" trackNumber="0" src="4" >
            <Transformer>
             <VectorParam id="2226"  name="translation">
              <InterpolatingParam id="2227" interp="linr"  time="-9999999/1" value="0" leadInLength="0/1"  />
              <InterpolatingParam id="2228" interp="linr"  time="-9999999/1" value="0" leadInLength="0/1"  />
              <InterpolatingParam id="2229" interp="linr"  time="-9999999/1" value="0" leadInLength="0/1"  />
             </VectorParam>
             <VectorParam id="2230"  name="rotation">
              <InterpolatingParam id="2231" interp="linr"  time="-9999999/1" value="0" leadInLength="0/1"  />
              <InterpolatingParam id="2232" interp="linr"  time="-9999999/1" value="0" leadInLength="0/1"  />
              <InterpolatingParam id="2233" interp="linr"  time="-9999999/1" value="0" leadInLength="0/1"  />
             </VectorParam>
             <VectorParam id="2234"  name="shear">
              <InterpolatingParam id="2235" interp="linr"  time="-9999999/1" value="0" leadInLength="0/1"  />
              <InterpolatingParam id="2236" interp="linr"  time="-9999999/1" value="0" leadInLength="0/1"  />
              <InterpolatingParam id="2237" interp="linr"  time="-9999999/1" value="0" leadInLength="0/1"  />
             </VectorParam>
             <VectorParam id="2238"  name="scale">
              <InterpolatingParam id="2239" interp="linr"  time="-9999999/1" value="1" leadInLength="0/1"  />
              <InterpolatingParam id="2240" interp="linr"  time="-9999999/1" value="1" leadInLength="0/1"  />
              <InterpolatingParam id="2241" interp="linr"  time="-9999999/1" value="1" leadInLength="0/1"  />
             </VectorParam>
             <VectorParam id="2242"  name="anchor">
              <InterpolatingParam id="2243" interp="linr"  time="0/1" value="0" leadInLength="0/1"  />
              <InterpolatingParam id="2244" interp="linr"  time="0/1" value="0" leadInLength="0/1"  />
              <InterpolatingParam id="2245" interp="linr"  time="0/1" value="0" leadInLength="0/1"  />
             </VectorParam>
            </Transformer>
            <Parameters>
             <VectorParam id="2246"  name="sourceCrop">
              <InterpolatingParam id="2247" interp="linr"  time="0/1" value="0" leadInLength="0/1"  />
              <InterpolatingParam id="2248" interp="linr"  time="0/1" value="0" leadInLength="0/1"  />
              <InterpolatingParam id="2249" interp="linr"  time="0/1" value="0" leadInLength="0/1"  />
              <InterpolatingParam id="2250" interp="linr"  time="0/1" value="0" leadInLength="0/1"  />
             </VectorParam>
             <VectorParam id="2251"  name="geometryCrop">
              <InterpolatingParam id="2252" interp="linr"  time="-9999999/1" value="0" leadInLength="0/1"  />
              <InterpolatingParam id="2253" interp="linr"  time="-9999999/1" value="0" leadInLength="0/1"  />
              <InterpolatingParam id="2254" interp="linr"  time="-9999999/1" value="0" leadInLength="0/1"  />
              <InterpolatingParam id="2255" interp="linr"  time="-9999999/1" value="0" leadInLength="0/1"  />
             </VectorParam>
             <InterpolatingParam id="2256" interp="linr"  time="-9999999/1" value="1" leadInLength="0/1"  name="opacity"/>
             <InterpolatingParam id="2257" interp="linr"  time="0/1" value="0" leadInLength="0/1"  name="cursorOpacity"/>
             <InterpolatingParam id="2258" interp="linr"  time="0/1" value="0" leadInLength="0/1"  name="cursorScale"/>
            </Parameters>
            <Attributes>
             <Attribute id="2259" value="" name="ident"/>
            </Attributes>
            <MetaData>
             <entry key="AutoAppliedSmartFocus" val="False"/>
             <entry key="WinSubProjectDisplayName" val=""/>
            </MetaData>
            <ExtraData>
             <Entry key="ZoomPanBin">
              <ZoomPanBin id="2260"  >
               <ZoomPanKeyframes>
                <ZoomPanKeyframe id="2261" timeRangeEnd="-9999999/1" timeRangeDuration="0/1" interpolaterName=""  />
               </ZoomPanKeyframes>
              </ZoomPanBin>
             </Entry>
             <Entry key="CursorEffectBin">
              <CursorEffectBin id="2262"  >
               <CursorEffectKeyframes>
               </CursorEffectKeyframes>
              </CursorEffectBin>
             </Entry>
            </ExtraData>
           </ScreenVMFile>
           <ScreenVMFile id="2263" start="2263" duration="26" scalar="1/1" mediaStart="2835/1" mediaDuration="26/1" trackNumber="0" src="4" >
            <Transformer>
             <VectorParam id="2264"  name="translation">
              <InterpolatingParam id="2265" interp="linr"  time="-9999999/1" value="0" leadInLength="0/1"  />
              <InterpolatingParam id="2266" interp="linr"  time="-9999999/1" value="0" leadInLength="0/1"  />
              <InterpolatingParam id="2267" interp="linr"  time="-9999999/1" value="0" leadInLength="0/1"  />
             </VectorParam>
             <VectorParam id="2268"  name="rotation">
              <InterpolatingParam id="2269" interp="linr"  time="-9999999/1" value="0" leadInLength="0/1"  />
              <InterpolatingParam id="2270" interp="linr"  time="-9999999/1" value="0" leadInLength="0/1"  />
              <InterpolatingParam id="2271" interp="linr"  time="-9999999/1" value="0" leadInLength="0/1"  />
             </VectorParam>
             <VectorParam id="2272"  name="shear">
              <InterpolatingParam id="2273" interp="linr"  time="-9999999/1" value="0" leadInLength="0/1"  />
              <InterpolatingParam id="2274" interp="linr"  time="-9999999/1" value="0" leadInLength="0/1"  />
              <InterpolatingParam id="2275" interp="linr"  time="-9999999/1" value="0" leadInLength="0/1"  />
             </VectorParam>
             <VectorParam id="2276"  name="scale">
              <InterpolatingParam id="2277" interp="linr"  time="-9999999/1" value="1" leadInLength="0/1"  />
              <InterpolatingParam id="2278" interp="linr"  time="-9999999/1" value="1" leadInLength="0/1"  />
              <InterpolatingParam id="2279" interp="linr"  time="-9999999/1" value="1" leadInLength="0/1"  />
             </VectorParam>
             <VectorParam id="2280"  name="anchor">
              <InterpolatingParam id="2281" interp="linr"  time="0/1" value="0" leadInLength="0/1"  />
              <InterpolatingParam id="2282" interp="linr"  time="0/1" value="0" leadInLength="0/1"  />
              <InterpolatingParam id="2283" interp="linr"  time="0/1" value="0" leadInLength="0/1"  />
             </VectorParam>
            </Transformer>
            <Parameters>
             <VectorParam id="2284"  name="sourceCrop">
              <InterpolatingParam id="2285" interp="linr"  time="0/1" value="0" leadInLength="0/1"  />
              <InterpolatingParam id="2286" interp="linr"  time="0/1" value="0" leadInLength="0/1"  />
              <InterpolatingParam id="2287" interp="linr"  time="0/1" value="0" leadInLength="0/1"  />
              <InterpolatingParam id="2288" interp="linr"  time="0/1" value="0" leadInLength="0/1"  />
             </VectorParam>
             <VectorParam id="2289"  name="geometryCrop">
              <InterpolatingParam id="2290" interp="linr"  time="-9999999/1" value="0" leadInLength="0/1"  />
              <InterpolatingParam id="2291" interp="linr"  time="-9999999/1" value="0" leadInLength="0/1"  />
              <InterpolatingParam id="2292" interp="linr"  time="-9999999/1" value="0" leadInLength="0/1"  />
              <InterpolatingParam id="2293" interp="linr"  time="-9999999/1" value="0" leadInLength="0/1"  />
             </VectorParam>
             <InterpolatingParam id="2294" interp="linr"  time="-9999999/1" value="1" leadInLength="0/1"  name="opacity"/>
             <InterpolatingParam id="2295" interp="linr"  time="0/1" value="0" leadInLength="0/1"  name="cursorOpacity"/>
             <InterpolatingParam id="2296" interp="linr"  time="0/1" value="0" leadInLength="0/1"  name="cursorScale"/>
            </Parameters>
            <Attributes>
             <Attribute id="2297" value="" name="ident"/>
            </Attributes>
            <MetaData>
             <entry key="AutoAppliedSmartFocus" val="False"/>
             <entry key="WinSubProjectDisplayName" val=""/>
            </MetaData>
            <ExtraData>
             <Entry key="ZoomPanBin">
              <ZoomPanBin id="2298"  >
               <ZoomPanKeyframes>
                <ZoomPanKeyframe id="2299" timeRangeEnd="-9999999/1" timeRangeDuration="0/1" interpolaterName=""  />
               </ZoomPanKeyframes>
              </ZoomPanBin>
             </Entry>
             <Entry key="CursorEffectBin">
              <CursorEffectBin id="2300"  >
               <CursorEffectKeyframes>
               </CursorEffectKeyframes>
              </CursorEffectBin>
             </Entry>
            </ExtraData>
           </ScreenVMFile>
           <ScreenVMFile id="2301" start="2289" duration="31" scalar="1/1" mediaStart="2868/1" mediaDuration="31/1" trackNumber="0" src="4" >
            <Transformer>
             <VectorParam id="2302"  name="translation">
              <InterpolatingParam id="2303" interp="linr"  time="-9999999/1" value="0" leadInLength="0/1"  />
              <InterpolatingParam id="2304" interp="linr"  time="-9999999/1" value="0" leadInLength="0/1"  />
              <InterpolatingParam id="2305" interp="linr"  time="-9999999/1" value="0" leadInLength="0/1"  />
             </VectorParam>
             <VectorParam id="2306"  name="rotation">
              <InterpolatingParam id="2307" interp="linr"  time="-9999999/1" value="0" leadInLength="0/1"  />
              <InterpolatingParam id="2308" interp="linr"  time="-9999999/1" value="0" leadInLength="0/1"  />
              <InterpolatingParam id="2309" interp="linr"  time="-9999999/1" value="0" leadInLength="0/1"  />
             </VectorParam>
             <VectorParam id="2310"  name="shear">
              <InterpolatingParam id="2311" interp="linr"  time="-9999999/1" value="0" leadInLength="0/1"  />
              <InterpolatingParam id="2312" interp="linr"  time="-9999999/1" value="0" leadInLength="0/1"  />
              <InterpolatingParam id="2313" interp="linr"  time="-9999999/1" value="0" leadInLength="0/1"  />
             </VectorParam>
             <VectorParam id="2314"  name="scale">
              <InterpolatingParam id="2315" interp="linr"  time="-9999999/1" value="1" leadInLength="0/1"  />
              <InterpolatingParam id="2316" interp="linr"  time="-9999999/1" value="1" leadInLength="0/1"  />
              <InterpolatingParam id="2317" interp="linr"  time="-9999999/1" value="1" leadInLength="0/1"  />
             </VectorParam>
             <VectorParam id="2318"  name="anchor">
              <InterpolatingParam id="2319" interp="linr"  time="0/1" value="0" leadInLength="0/1"  />
              <InterpolatingParam id="2320" interp="linr"  time="0/1" value="0" leadInLength="0/1"  />
              <InterpolatingParam id="2321" interp="linr"  time="0/1" value="0" leadInLength="0/1"  />
             </VectorParam>
            </Transformer>
            <Parameters>
             <VectorParam id="2322"  name="sourceCrop">
              <InterpolatingParam id="2323" interp="linr"  time="0/1" value="0" leadInLength="0/1"  />
              <InterpolatingParam id="2324" interp="linr"  time="0/1" value="0" leadInLength="0/1"  />
              <InterpolatingParam id="2325" interp="linr"  time="0/1" value="0" leadInLength="0/1"  />
              <InterpolatingParam id="2326" interp="linr"  time="0/1" value="0" leadInLength="0/1"  />
             </VectorParam>
             <VectorParam id="2327"  name="geometryCrop">
              <InterpolatingParam id="2328" interp="linr"  time="-9999999/1" value="0" leadInLength="0/1"  />
              <InterpolatingParam id="2329" interp="linr"  time="-9999999/1" value="0" leadInLength="0/1"  />
              <InterpolatingParam id="2330" interp="linr"  time="-9999999/1" value="0" leadInLength="0/1"  />
              <InterpolatingParam id="2331" interp="linr"  time="-9999999/1" value="0" leadInLength="0/1"  />
             </VectorParam>
             <InterpolatingParam id="2332" interp="linr"  time="-9999999/1" value="1" leadInLength="0/1"  name="opacity"/>
             <InterpolatingParam id="2333" interp="linr"  time="0/1" value="0" leadInLength="0/1"  name="cursorOpacity"/>
             <InterpolatingParam id="2334" interp="linr"  time="0/1" value="0" leadInLength="0/1"  name="cursorScale"/>
            </Parameters>
            <Attributes>
             <Attribute id="2335" value="" name="ident"/>
            </Attributes>
            <MetaData>
             <entry key="AutoAppliedSmartFocus" val="False"/>
             <entry key="WinSubProjectDisplayName" val=""/>
            </MetaData>
            <ExtraData>
             <Entry key="ZoomPanBin">
              <ZoomPanBin id="2336"  >
               <ZoomPanKeyframes>
                <ZoomPanKeyframe id="2337" timeRangeEnd="-9999999/1" timeRangeDuration="0/1" interpolaterName=""  />
               </ZoomPanKeyframes>
              </ZoomPanBin>
             </Entry>
             <Entry key="CursorEffectBin">
              <CursorEffectBin id="2338"  >
               <CursorEffectKeyframes>
               </CursorEffectKeyframes>
              </CursorEffectBin>
             </Entry>
            </ExtraData>
           </ScreenVMFile>
           <ScreenVMFile id="2339" start="2320" duration="49" scalar="1/1" mediaStart="2908/1" mediaDuration="49/1" trackNumber="0" src="4" >
            <Transformer>
             <VectorParam id="2340"  name="translation">
              <InterpolatingParam id="2341" interp="linr"  time="-9999999/1" value="0" leadInLength="0/1"  />
              <InterpolatingParam id="2342" interp="linr"  time="-9999999/1" value="0" leadInLength="0/1"  />
              <InterpolatingParam id="2343" interp="linr"  time="-9999999/1" value="0" leadInLength="0/1"  />
             </VectorParam>
             <VectorParam id="2344"  name="rotation">
              <InterpolatingParam id="2345" interp="linr"  time="-9999999/1" value="0" leadInLength="0/1"  />
              <InterpolatingParam id="2346" interp="linr"  time="-9999999/1" value="0" leadInLength="0/1"  />
              <InterpolatingParam id="2347" interp="linr"  time="-9999999/1" value="0" leadInLength="0/1"  />
             </VectorParam>
             <VectorParam id="2348"  name="shear">
              <InterpolatingParam id="2349" interp="linr"  time="-9999999/1" value="0" leadInLength="0/1"  />
              <InterpolatingParam id="2350" interp="linr"  time="-9999999/1" value="0" leadInLength="0/1"  />
              <InterpolatingParam id="2351" interp="linr"  time="-9999999/1" value="0" leadInLength="0/1"  />
             </VectorParam>
             <VectorParam id="2352"  name="scale">
              <InterpolatingParam id="2353" interp="linr"  time="-9999999/1" value="1" leadInLength="0/1"  />
              <InterpolatingParam id="2354" interp="linr"  time="-9999999/1" value="1" leadInLength="0/1"  />
              <InterpolatingParam id="2355" interp="linr"  time="-9999999/1" value="1" leadInLength="0/1"  />
             </VectorParam>
             <VectorParam id="2356"  name="anchor">
              <InterpolatingParam id="2357" interp="linr"  time="0/1" value="0" leadInLength="0/1"  />
              <InterpolatingParam id="2358" interp="linr"  time="0/1" value="0" leadInLength="0/1"  />
              <InterpolatingParam id="2359" interp="linr"  time="0/1" value="0" leadInLength="0/1"  />
             </VectorParam>
            </Transformer>
            <Parameters>
             <VectorParam id="2360"  name="sourceCrop">
              <InterpolatingParam id="2361" interp="linr"  time="0/1" value="0" leadInLength="0/1"  />
              <InterpolatingParam id="2362" interp="linr"  time="0/1" value="0" leadInLength="0/1"  />
              <InterpolatingParam id="2363" interp="linr"  time="0/1" value="0" leadInLength="0/1"  />
              <InterpolatingParam id="2364" interp="linr"  time="0/1" value="0" leadInLength="0/1"  />
             </VectorParam>
             <VectorParam id="2365"  name="geometryCrop">
              <InterpolatingParam id="2366" interp="linr"  time="-9999999/1" value="0" leadInLength="0/1"  />
              <InterpolatingParam id="2367" interp="linr"  time="-9999999/1" value="0" leadInLength="0/1"  />
              <InterpolatingParam id="2368" interp="linr"  time="-9999999/1" value="0" leadInLength="0/1"  />
              <InterpolatingParam id="2369" interp="linr"  time="-9999999/1" value="0" leadInLength="0/1"  />
             </VectorParam>
             <InterpolatingParam id="2370" interp="linr"  time="-9999999/1" value="1" leadInLength="0/1"  name="opacity"/>
             <InterpolatingParam id="2371" interp="linr"  time="0/1" value="0" leadInLength="0/1"  name="cursorOpacity"/>
             <InterpolatingParam id="2372" interp="linr"  time="0/1" value="0" leadInLength="0/1"  name="cursorScale"/>
            </Parameters>
            <Attributes>
             <Attribute id="2373" value="" name="ident"/>
            </Attributes>
            <MetaData>
             <entry key="AutoAppliedSmartFocus" val="False"/>
             <entry key="WinSubProjectDisplayName" val=""/>
            </MetaData>
            <ExtraData>
             <Entry key="ZoomPanBin">
              <ZoomPanBin id="2374"  >
               <ZoomPanKeyframes>
                <ZoomPanKeyframe id="2375" timeRangeEnd="-9999999/1" timeRangeDuration="0/1" interpolaterName=""  />
               </ZoomPanKeyframes>
              </ZoomPanBin>
             </Entry>
             <Entry key="CursorEffectBin">
              <CursorEffectBin id="2376"  >
               <CursorEffectKeyframes>
               </CursorEffectKeyframes>
              </CursorEffectBin>
             </Entry>
            </ExtraData>
           </ScreenVMFile>
           <ScreenVMFile id="2377" start="2369" duration="205" scalar="1/1" mediaStart="2995/1" mediaDuration="205/1" trackNumber="0" src="4" >
            <Transformer>
             <VectorParam id="2378"  name="translation">
              <InterpolatingParam id="2379" interp="linr"  time="-9999999/1" value="0" leadInLength="0/1"  />
              <InterpolatingParam id="2380" interp="linr"  time="-9999999/1" value="0" leadInLength="0/1"  />
              <InterpolatingParam id="2381" interp="linr"  time="-9999999/1" value="0" leadInLength="0/1"  />
             </VectorParam>
             <VectorParam id="2382"  name="rotation">
              <InterpolatingParam id="2383" interp="linr"  time="-9999999/1" value="0" leadInLength="0/1"  />
              <InterpolatingParam id="2384" interp="linr"  time="-9999999/1" value="0" leadInLength="0/1"  />
              <InterpolatingParam id="2385" interp="linr"  time="-9999999/1" value="0" leadInLength="0/1"  />
             </VectorParam>
             <VectorParam id="2386"  name="shear">
              <InterpolatingParam id="2387" interp="linr"  time="-9999999/1" value="0" leadInLength="0/1"  />
              <InterpolatingParam id="2388" interp="linr"  time="-9999999/1" value="0" leadInLength="0/1"  />
              <InterpolatingParam id="2389" interp="linr"  time="-9999999/1" value="0" leadInLength="0/1"  />
             </VectorParam>
             <VectorParam id="2390"  name="scale">
              <InterpolatingParam id="2391" interp="linr"  time="-9999999/1" value="1" leadInLength="0/1"  />
              <InterpolatingParam id="2392" interp="linr"  time="-9999999/1" value="1" leadInLength="0/1"  />
              <InterpolatingParam id="2393" interp="linr"  time="-9999999/1" value="1" leadInLength="0/1"  />
             </VectorParam>
             <VectorParam id="2394"  name="anchor">
              <InterpolatingParam id="2395" interp="linr"  time="0/1" value="0" leadInLength="0/1"  />
              <InterpolatingParam id="2396" interp="linr"  time="0/1" value="0" leadInLength="0/1"  />
              <InterpolatingParam id="2397" interp="linr"  time="0/1" value="0" leadInLength="0/1"  />
             </VectorParam>
            </Transformer>
            <Parameters>
             <VectorParam id="2398"  name="sourceCrop">
              <InterpolatingParam id="2399" interp="linr"  time="0/1" value="0" leadInLength="0/1"  />
              <InterpolatingParam id="2400" interp="linr"  time="0/1" value="0" leadInLength="0/1"  />
              <InterpolatingParam id="2401" interp="linr"  time="0/1" value="0" leadInLength="0/1"  />
              <InterpolatingParam id="2402" interp="linr"  time="0/1" value="0" leadInLength="0/1"  />
             </VectorParam>
             <VectorParam id="2403"  name="geometryCrop">
              <InterpolatingParam id="2404" interp="linr"  time="-9999999/1" value="0" leadInLength="0/1"  />
              <InterpolatingParam id="2405" interp="linr"  time="-9999999/1" value="0" leadInLength="0/1"  />
              <InterpolatingParam id="2406" interp="linr"  time="-9999999/1" value="0" leadInLength="0/1"  />
              <InterpolatingParam id="2407" interp="linr"  time="-9999999/1" value="0" leadInLength="0/1"  />
             </VectorParam>
             <InterpolatingParam id="2408" interp="linr"  time="-9999999/1" value="1" leadInLength="0/1"  name="opacity"/>
             <InterpolatingParam id="2409" interp="linr"  time="0/1" value="0" leadInLength="0/1"  name="cursorOpacity"/>
             <InterpolatingParam id="2410" interp="linr"  time="0/1" value="0" leadInLength="0/1"  name="cursorScale"/>
            </Parameters>
            <Attributes>
             <Attribute id="2411" value="" name="ident"/>
            </Attributes>
            <MetaData>
             <entry key="AutoAppliedSmartFocus" val="False"/>
             <entry key="WinSubProjectDisplayName" val=""/>
            </MetaData>
            <ExtraData>
             <Entry key="ZoomPanBin">
              <ZoomPanBin id="2412"  >
               <ZoomPanKeyframes>
                <ZoomPanKeyframe id="2413" timeRangeEnd="-9999999/1" timeRangeDuration="0/1" interpolaterName=""  />
               </ZoomPanKeyframes>
              </ZoomPanBin>
             </Entry>
             <Entry key="CursorEffectBin">
              <CursorEffectBin id="2414"  >
               <CursorEffectKeyframes>
               </CursorEffectKeyframes>
              </CursorEffectBin>
             </Entry>
            </ExtraData>
           </ScreenVMFile>
           <ScreenVMFile id="2415" start="2574" duration="146" scalar="1/1" mediaStart="3214/1" mediaDuration="146/1" trackNumber="0" src="4" >
            <Transformer>
             <VectorParam id="2416"  name="translation">
              <InterpolatingParam id="2417" interp="linr"  time="-9999999/1" value="0" leadInLength="0/1"  />
              <InterpolatingParam id="2418" interp="linr"  time="-9999999/1" value="0" leadInLength="0/1"  />
              <InterpolatingParam id="2419" interp="linr"  time="-9999999/1" value="0" leadInLength="0/1"  />
             </VectorParam>
             <VectorParam id="2420"  name="rotation">
              <InterpolatingParam id="2421" interp="linr"  time="-9999999/1" value="0" leadInLength="0/1"  />
              <InterpolatingParam id="2422" interp="linr"  time="-9999999/1" value="0" leadInLength="0/1"  />
              <InterpolatingParam id="2423" interp="linr"  time="-9999999/1" value="0" leadInLength="0/1"  />
             </VectorParam>
             <VectorParam id="2424"  name="shear">
              <InterpolatingParam id="2425" interp="linr"  time="-9999999/1" value="0" leadInLength="0/1"  />
              <InterpolatingParam id="2426" interp="linr"  time="-9999999/1" value="0" leadInLength="0/1"  />
              <InterpolatingParam id="2427" interp="linr"  time="-9999999/1" value="0" leadInLength="0/1"  />
             </VectorParam>
             <VectorParam id="2428"  name="scale">
              <InterpolatingParam id="2429" interp="linr"  time="-9999999/1" value="1" leadInLength="0/1"  />
              <InterpolatingParam id="2430" interp="linr"  time="-9999999/1" value="1" leadInLength="0/1"  />
              <InterpolatingParam id="2431" interp="linr"  time="-9999999/1" value="1" leadInLength="0/1"  />
             </VectorParam>
             <VectorParam id="2432"  name="anchor">
              <InterpolatingParam id="2433" interp="linr"  time="0/1" value="0" leadInLength="0/1"  />
              <InterpolatingParam id="2434" interp="linr"  time="0/1" value="0" leadInLength="0/1"  />
              <InterpolatingParam id="2435" interp="linr"  time="0/1" value="0" leadInLength="0/1"  />
             </VectorParam>
            </Transformer>
            <Parameters>
             <VectorParam id="2436"  name="sourceCrop">
              <InterpolatingParam id="2437" interp="linr"  time="0/1" value="0" leadInLength="0/1"  />
              <InterpolatingParam id="2438" interp="linr"  time="0/1" value="0" leadInLength="0/1"  />
              <InterpolatingParam id="2439" interp="linr"  time="0/1" value="0" leadInLength="0/1"  />
              <InterpolatingParam id="2440" interp="linr"  time="0/1" value="0" leadInLength="0/1"  />
             </VectorParam>
             <VectorParam id="2441"  name="geometryCrop">
              <InterpolatingParam id="2442" interp="linr"  time="-9999999/1" value="0" leadInLength="0/1"  />
              <InterpolatingParam id="2443" interp="linr"  time="-9999999/1" value="0" leadInLength="0/1"  />
              <InterpolatingParam id="2444" interp="linr"  time="-9999999/1" value="0" leadInLength="0/1"  />
              <InterpolatingParam id="2445" interp="linr"  time="-9999999/1" value="0" leadInLength="0/1"  />
             </VectorParam>
             <InterpolatingParam id="2446" interp="linr"  time="-9999999/1" value="1" leadInLength="0/1"  name="opacity"/>
             <InterpolatingParam id="2447" interp="linr"  time="0/1" value="0" leadInLength="0/1"  name="cursorOpacity"/>
             <InterpolatingParam id="2448" interp="linr"  time="0/1" value="0" leadInLength="0/1"  name="cursorScale"/>
            </Parameters>
            <Attributes>
             <Attribute id="2449" value="" name="ident"/>
            </Attributes>
            <MetaData>
             <entry key="AutoAppliedSmartFocus" val="False"/>
             <entry key="WinSubProjectDisplayName" val=""/>
            </MetaData>
            <ExtraData>
             <Entry key="ZoomPanBin">
              <ZoomPanBin id="2450"  >
               <ZoomPanKeyframes>
                <ZoomPanKeyframe id="2451" timeRangeEnd="-9999999/1" timeRangeDuration="0/1" interpolaterName=""  />
               </ZoomPanKeyframes>
              </ZoomPanBin>
             </Entry>
             <Entry key="CursorEffectBin">
              <CursorEffectBin id="2452"  >
               <CursorEffectKeyframes>
               </CursorEffectKeyframes>
              </CursorEffectBin>
             </Entry>
            </ExtraData>
           </ScreenVMFile>
           <ScreenVMFile id="2453" start="2720" duration="40" scalar="1/1" mediaStart="3373/1" mediaDuration="40/1" trackNumber="0" src="4" >
            <Transformer>
             <VectorParam id="2454"  name="translation">
              <InterpolatingParam id="2455" interp="linr"  time="-9999999/1" value="0" leadInLength="0/1"  />
              <InterpolatingParam id="2456" interp="linr"  time="-9999999/1" value="0" leadInLength="0/1"  />
              <InterpolatingParam id="2457" interp="linr"  time="-9999999/1" value="0" leadInLength="0/1"  />
             </VectorParam>
             <VectorParam id="2458"  name="rotation">
              <InterpolatingParam id="2459" interp="linr"  time="-9999999/1" value="0" leadInLength="0/1"  />
              <InterpolatingParam id="2460" interp="linr"  time="-9999999/1" value="0" leadInLength="0/1"  />
              <InterpolatingParam id="2461" interp="linr"  time="-9999999/1" value="0" leadInLength="0/1"  />
             </VectorParam>
             <VectorParam id="2462"  name="shear">
              <InterpolatingParam id="2463" interp="linr"  time="-9999999/1" value="0" leadInLength="0/1"  />
              <InterpolatingParam id="2464" interp="linr"  time="-9999999/1" value="0" leadInLength="0/1"  />
              <InterpolatingParam id="2465" interp="linr"  time="-9999999/1" value="0" leadInLength="0/1"  />
             </VectorParam>
             <VectorParam id="2466"  name="scale">
              <InterpolatingParam id="2467" interp="linr"  time="-9999999/1" value="1" leadInLength="0/1"  />
              <InterpolatingParam id="2468" interp="linr"  time="-9999999/1" value="1" leadInLength="0/1"  />
              <InterpolatingParam id="2469" interp="linr"  time="-9999999/1" value="1" leadInLength="0/1"  />
             </VectorParam>
             <VectorParam id="2470"  name="anchor">
              <InterpolatingParam id="2471" interp="linr"  time="0/1" value="0" leadInLength="0/1"  />
              <InterpolatingParam id="2472" interp="linr"  time="0/1" value="0" leadInLength="0/1"  />
              <InterpolatingParam id="2473" interp="linr"  time="0/1" value="0" leadInLength="0/1"  />
             </VectorParam>
            </Transformer>
            <Parameters>
             <VectorParam id="2474"  name="sourceCrop">
              <InterpolatingParam id="2475" interp="linr"  time="0/1" value="0" leadInLength="0/1"  />
              <InterpolatingParam id="2476" interp="linr"  time="0/1" value="0" leadInLength="0/1"  />
              <InterpolatingParam id="2477" interp="linr"  time="0/1" value="0" leadInLength="0/1"  />
              <InterpolatingParam id="2478" interp="linr"  time="0/1" value="0" leadInLength="0/1"  />
             </VectorParam>
             <VectorParam id="2479"  name="geometryCrop">
              <InterpolatingParam id="2480" interp="linr"  time="-9999999/1" value="0" leadInLength="0/1"  />
              <InterpolatingParam id="2481" interp="linr"  time="-9999999/1" value="0" leadInLength="0/1"  />
              <InterpolatingParam id="2482" interp="linr"  time="-9999999/1" value="0" leadInLength="0/1"  />
              <InterpolatingParam id="2483" interp="linr"  time="-9999999/1" value="0" leadInLength="0/1"  />
             </VectorParam>
             <InterpolatingParam id="2484" interp="linr"  time="-9999999/1" value="1" leadInLength="0/1"  name="opacity"/>
             <InterpolatingParam id="2485" interp="linr"  time="0/1" value="0" leadInLength="0/1"  name="cursorOpacity"/>
             <InterpolatingParam id="2486" interp="linr"  time="0/1" value="0" leadInLength="0/1"  name="cursorScale"/>
            </Parameters>
            <Attributes>
             <Attribute id="2487" value="" name="ident"/>
            </Attributes>
            <MetaData>
             <entry key="AutoAppliedSmartFocus" val="False"/>
             <entry key="WinSubProjectDisplayName" val=""/>
            </MetaData>
            <ExtraData>
             <Entry key="ZoomPanBin">
              <ZoomPanBin id="2488"  >
               <ZoomPanKeyframes>
                <ZoomPanKeyframe id="2489" timeRangeEnd="-9999999/1" timeRangeDuration="0/1" interpolaterName=""  />
               </ZoomPanKeyframes>
              </ZoomPanBin>
             </Entry>
             <Entry key="CursorEffectBin">
              <CursorEffectBin id="2490"  >
               <CursorEffectKeyframes>
               </CursorEffectKeyframes>
              </CursorEffectBin>
             </Entry>
            </ExtraData>
           </ScreenVMFile>
           <ScreenVMFile id="2491" start="2760" duration="46" scalar="1/1" mediaStart="3422/1" mediaDuration="46/1" trackNumber="0" src="4" >
            <Transformer>
             <VectorParam id="2492"  name="translation">
              <InterpolatingParam id="2493" interp="linr"  time="-9999999/1" value="0" leadInLength="0/1"  />
              <InterpolatingParam id="2494" interp="linr"  time="-9999999/1" value="0" leadInLength="0/1"  />
              <InterpolatingParam id="2495" interp="linr"  time="-9999999/1" value="0" leadInLength="0/1"  />
             </VectorParam>
             <VectorParam id="2496"  name="rotation">
              <InterpolatingParam id="2497" interp="linr"  time="-9999999/1" value="0" leadInLength="0/1"  />
              <InterpolatingParam id="2498" interp="linr"  time="-9999999/1" value="0" leadInLength="0/1"  />
              <InterpolatingParam id="2499" interp="linr"  time="-9999999/1" value="0" leadInLength="0/1"  />
             </VectorParam>
             <VectorParam id="2500"  name="shear">
              <InterpolatingParam id="2501" interp="linr"  time="-9999999/1" value="0" leadInLength="0/1"  />
              <InterpolatingParam id="2502" interp="linr"  time="-9999999/1" value="0" leadInLength="0/1"  />
              <InterpolatingParam id="2503" interp="linr"  time="-9999999/1" value="0" leadInLength="0/1"  />
             </VectorParam>
             <VectorParam id="2504"  name="scale">
              <InterpolatingParam id="2505" interp="linr"  time="-9999999/1" value="1" leadInLength="0/1"  />
              <InterpolatingParam id="2506" interp="linr"  time="-9999999/1" value="1" leadInLength="0/1"  />
              <InterpolatingParam id="2507" interp="linr"  time="-9999999/1" value="1" leadInLength="0/1"  />
             </VectorParam>
             <VectorParam id="2508"  name="anchor">
              <InterpolatingParam id="2509" interp="linr"  time="0/1" value="0" leadInLength="0/1"  />
              <InterpolatingParam id="2510" interp="linr"  time="0/1" value="0" leadInLength="0/1"  />
              <InterpolatingParam id="2511" interp="linr"  time="0/1" value="0" leadInLength="0/1"  />
             </VectorParam>
            </Transformer>
            <Parameters>
             <VectorParam id="2512"  name="sourceCrop">
              <InterpolatingParam id="2513" interp="linr"  time="0/1" value="0" leadInLength="0/1"  />
              <InterpolatingParam id="2514" interp="linr"  time="0/1" value="0" leadInLength="0/1"  />
              <InterpolatingParam id="2515" interp="linr"  time="0/1" value="0" leadInLength="0/1"  />
              <InterpolatingParam id="2516" interp="linr"  time="0/1" value="0" leadInLength="0/1"  />
             </VectorParam>
             <VectorParam id="2517"  name="geometryCrop">
              <InterpolatingParam id="2518" interp="linr"  time="-9999999/1" value="0" leadInLength="0/1"  />
              <InterpolatingParam id="2519" interp="linr"  time="-9999999/1" value="0" leadInLength="0/1"  />
              <InterpolatingParam id="2520" interp="linr"  time="-9999999/1" value="0" leadInLength="0/1"  />
              <InterpolatingParam id="2521" interp="linr"  time="-9999999/1" value="0" leadInLength="0/1"  />
             </VectorParam>
             <InterpolatingParam id="2522" interp="linr"  time="-9999999/1" value="1" leadInLength="0/1"  name="opacity"/>
             <InterpolatingParam id="2523" interp="linr"  time="0/1" value="0" leadInLength="0/1"  name="cursorOpacity"/>
             <InterpolatingParam id="2524" interp="linr"  time="0/1" value="0" leadInLength="0/1"  name="cursorScale"/>
            </Parameters>
            <Attributes>
             <Attribute id="2525" value="" name="ident"/>
            </Attributes>
            <MetaData>
             <entry key="AutoAppliedSmartFocus" val="False"/>
             <entry key="WinSubProjectDisplayName" val=""/>
            </MetaData>
            <ExtraData>
             <Entry key="ZoomPanBin">
              <ZoomPanBin id="2526"  >
               <ZoomPanKeyframes>
                <ZoomPanKeyframe id="2527" timeRangeEnd="-9999999/1" timeRangeDuration="0/1" interpolaterName=""  />
               </ZoomPanKeyframes>
              </ZoomPanBin>
             </Entry>
             <Entry key="CursorEffectBin">
              <CursorEffectBin id="2528"  >
               <CursorEffectKeyframes>
               </CursorEffectKeyframes>
              </CursorEffectBin>
             </Entry>
            </ExtraData>
           </ScreenVMFile>
           <ScreenVMFile id="2529" start="2806" duration="98" scalar="1/1" mediaStart="3475/1" mediaDuration="98/1" trackNumber="0" src="4" >
            <Transformer>
             <VectorParam id="2530"  name="translation">
              <InterpolatingParam id="2531" interp="linr"  time="-9999999/1" value="0" leadInLength="0/1"  />
              <InterpolatingParam id="2532" interp="linr"  time="-9999999/1" value="0" leadInLength="0/1"  />
              <InterpolatingParam id="2533" interp="linr"  time="-9999999/1" value="0" leadInLength="0/1"  />
             </VectorParam>
             <VectorParam id="2534"  name="rotation">
              <InterpolatingParam id="2535" interp="linr"  time="-9999999/1" value="0" leadInLength="0/1"  />
              <InterpolatingParam id="2536" interp="linr"  time="-9999999/1" value="0" leadInLength="0/1"  />
              <InterpolatingParam id="2537" interp="linr"  time="-9999999/1" value="0" leadInLength="0/1"  />
             </VectorParam>
             <VectorParam id="2538"  name="shear">
              <InterpolatingParam id="2539" interp="linr"  time="-9999999/1" value="0" leadInLength="0/1"  />
              <InterpolatingParam id="2540" interp="linr"  time="-9999999/1" value="0" leadInLength="0/1"  />
              <InterpolatingParam id="2541" interp="linr"  time="-9999999/1" value="0" leadInLength="0/1"  />
             </VectorParam>
             <VectorParam id="2542"  name="scale">
              <InterpolatingParam id="2543" interp="linr"  time="-9999999/1" value="1" leadInLength="0/1"  />
              <InterpolatingParam id="2544" interp="linr"  time="-9999999/1" value="1" leadInLength="0/1"  />
              <InterpolatingParam id="2545" interp="linr"  time="-9999999/1" value="1" leadInLength="0/1"  />
             </VectorParam>
             <VectorParam id="2546"  name="anchor">
              <InterpolatingParam id="2547" interp="linr"  time="0/1" value="0" leadInLength="0/1"  />
              <InterpolatingParam id="2548" interp="linr"  time="0/1" value="0" leadInLength="0/1"  />
              <InterpolatingParam id="2549" interp="linr"  time="0/1" value="0" leadInLength="0/1"  />
             </VectorParam>
            </Transformer>
            <Parameters>
             <VectorParam id="2550"  name="sourceCrop">
              <InterpolatingParam id="2551" interp="linr"  time="0/1" value="0" leadInLength="0/1"  />
              <InterpolatingParam id="2552" interp="linr"  time="0/1" value="0" leadInLength="0/1"  />
              <InterpolatingParam id="2553" interp="linr"  time="0/1" value="0" leadInLength="0/1"  />
              <InterpolatingParam id="2554" interp="linr"  time="0/1" value="0" leadInLength="0/1"  />
             </VectorParam>
             <VectorParam id="2555"  name="geometryCrop">
              <InterpolatingParam id="2556" interp="linr"  time="-9999999/1" value="0" leadInLength="0/1"  />
              <InterpolatingParam id="2557" interp="linr"  time="-9999999/1" value="0" leadInLength="0/1"  />
              <InterpolatingParam id="2558" interp="linr"  time="-9999999/1" value="0" leadInLength="0/1"  />
              <InterpolatingParam id="2559" interp="linr"  time="-9999999/1" value="0" leadInLength="0/1"  />
             </VectorParam>
             <InterpolatingParam id="2560" interp="linr"  time="-9999999/1" value="1" leadInLength="0/1"  name="opacity"/>
             <InterpolatingParam id="2561" interp="linr"  time="0/1" value="0" leadInLength="0/1"  name="cursorOpacity"/>
             <InterpolatingParam id="2562" interp="linr"  time="0/1" value="0" leadInLength="0/1"  name="cursorScale"/>
            </Parameters>
            <Attributes>
             <Attribute id="2563" value="" name="ident"/>
            </Attributes>
            <MetaData>
             <entry key="AutoAppliedSmartFocus" val="False"/>
             <entry key="WinSubProjectDisplayName" val=""/>
            </MetaData>
            <ExtraData>
             <Entry key="ZoomPanBin">
              <ZoomPanBin id="2564"  >
               <ZoomPanKeyframes>
                <ZoomPanKeyframe id="2565" timeRangeEnd="-9999999/1" timeRangeDuration="0/1" interpolaterName=""  />
               </ZoomPanKeyframes>
              </ZoomPanBin>
             </Entry>
             <Entry key="CursorEffectBin">
              <CursorEffectBin id="2566"  >
               <CursorEffectKeyframes>
               </CursorEffectKeyframes>
              </CursorEffectBin>
             </Entry>
            </ExtraData>
           </ScreenVMFile>
           <ScreenVMFile id="2567" start="2904" duration="313" scalar="1/1" mediaStart="3580/1" mediaDuration="313/1" trackNumber="0" src="4" >
            <Transformer>
             <VectorParam id="2568"  name="translation">
              <InterpolatingParam id="2569" interp="linr"  time="-9999999/1" value="0" leadInLength="0/1"  />
              <InterpolatingParam id="2570" interp="linr"  time="-9999999/1" value="0" leadInLength="0/1"  />
              <InterpolatingParam id="2571" interp="linr"  time="-9999999/1" value="0" leadInLength="0/1"  />
             </VectorParam>
             <VectorParam id="2572"  name="rotation">
              <InterpolatingParam id="2573" interp="linr"  time="-9999999/1" value="0" leadInLength="0/1"  />
              <InterpolatingParam id="2574" interp="linr"  time="-9999999/1" value="0" leadInLength="0/1"  />
              <InterpolatingParam id="2575" interp="linr"  time="-9999999/1" value="0" leadInLength="0/1"  />
             </VectorParam>
             <VectorParam id="2576"  name="shear">
              <InterpolatingParam id="2577" interp="linr"  time="-9999999/1" value="0" leadInLength="0/1"  />
              <InterpolatingParam id="2578" interp="linr"  time="-9999999/1" value="0" leadInLength="0/1"  />
              <InterpolatingParam id="2579" interp="linr"  time="-9999999/1" value="0" leadInLength="0/1"  />
             </VectorParam>
             <VectorParam id="2580"  name="scale">
              <InterpolatingParam id="2581" interp="linr"  time="-9999999/1" value="1" leadInLength="0/1"  />
              <InterpolatingParam id="2582" interp="linr"  time="-9999999/1" value="1" leadInLength="0/1"  />
              <InterpolatingParam id="2583" interp="linr"  time="-9999999/1" value="1" leadInLength="0/1"  />
             </VectorParam>
             <VectorParam id="2584"  name="anchor">
              <InterpolatingParam id="2585" interp="linr"  time="0/1" value="0" leadInLength="0/1"  />
              <InterpolatingParam id="2586" interp="linr"  time="0/1" value="0" leadInLength="0/1"  />
              <InterpolatingParam id="2587" interp="linr"  time="0/1" value="0" leadInLength="0/1"  />
             </VectorParam>
            </Transformer>
            <Parameters>
             <VectorParam id="2588"  name="sourceCrop">
              <InterpolatingParam id="2589" interp="linr"  time="0/1" value="0" leadInLength="0/1"  />
              <InterpolatingParam id="2590" interp="linr"  time="0/1" value="0" leadInLength="0/1"  />
              <InterpolatingParam id="2591" interp="linr"  time="0/1" value="0" leadInLength="0/1"  />
              <InterpolatingParam id="2592" interp="linr"  time="0/1" value="0" leadInLength="0/1"  />
             </VectorParam>
             <VectorParam id="2593"  name="geometryCrop">
              <InterpolatingParam id="2594" interp="linr"  time="-9999999/1" value="0" leadInLength="0/1"  />
              <InterpolatingParam id="2595" interp="linr"  time="-9999999/1" value="0" leadInLength="0/1"  />
              <InterpolatingParam id="2596" interp="linr"  time="-9999999/1" value="0" leadInLength="0/1"  />
              <InterpolatingParam id="2597" interp="linr"  time="-9999999/1" value="0" leadInLength="0/1"  />
             </VectorParam>
             <InterpolatingParam id="2598" interp="linr"  time="-9999999/1" value="1" leadInLength="0/1"  name="opacity"/>
             <InterpolatingParam id="2599" interp="linr"  time="0/1" value="0" leadInLength="0/1"  name="cursorOpacity"/>
             <InterpolatingParam id="2600" interp="linr"  time="0/1" value="0" leadInLength="0/1"  name="cursorScale"/>
            </Parameters>
            <Attributes>
             <Attribute id="2601" value="" name="ident"/>
            </Attributes>
            <MetaData>
             <entry key="AutoAppliedSmartFocus" val="False"/>
             <entry key="WinSubProjectDisplayName" val=""/>
            </MetaData>
            <ExtraData>
             <Entry key="ZoomPanBin">
              <ZoomPanBin id="2602"  >
               <ZoomPanKeyframes>
                <ZoomPanKeyframe id="2603" timeRangeEnd="-9999999/1" timeRangeDuration="0/1" interpolaterName=""  />
               </ZoomPanKeyframes>
              </ZoomPanBin>
             </Entry>
             <Entry key="CursorEffectBin">
              <CursorEffectBin id="2604"  >
               <CursorEffectKeyframes>
               </CursorEffectKeyframes>
              </CursorEffectBin>
             </Entry>
            </ExtraData>
           </ScreenVMFile>
           <ScreenVMFile id="2605" start="3217" duration="5" scalar="1/1" mediaStart="8967/1" mediaDuration="5/1" trackNumber="0" src="4" >
            <Transformer>
             <VectorParam id="2606"  name="translation">
              <InterpolatingParam id="2607" interp="linr"  time="-9999999/1" value="0" leadInLength="0/1"  />
              <InterpolatingParam id="2608" interp="linr"  time="-9999999/1" value="0" leadInLength="0/1"  />
              <InterpolatingParam id="2609" interp="linr"  time="-9999999/1" value="0" leadInLength="0/1"  />
             </VectorParam>
             <VectorParam id="2610"  name="rotation">
              <InterpolatingParam id="2611" interp="linr"  time="-9999999/1" value="0" leadInLength="0/1"  />
              <InterpolatingParam id="2612" interp="linr"  time="-9999999/1" value="0" leadInLength="0/1"  />
              <InterpolatingParam id="2613" interp="linr"  time="-9999999/1" value="0" leadInLength="0/1"  />
             </VectorParam>
             <VectorParam id="2614"  name="shear">
              <InterpolatingParam id="2615" interp="linr"  time="-9999999/1" value="0" leadInLength="0/1"  />
              <InterpolatingParam id="2616" interp="linr"  time="-9999999/1" value="0" leadInLength="0/1"  />
              <InterpolatingParam id="2617" interp="linr"  time="-9999999/1" value="0" leadInLength="0/1"  />
             </VectorParam>
             <VectorParam id="2618"  name="scale">
              <InterpolatingParam id="2619" interp="linr"  time="-9999999/1" value="1" leadInLength="0/1"  />
              <InterpolatingParam id="2620" interp="linr"  time="-9999999/1" value="1" leadInLength="0/1"  />
              <InterpolatingParam id="2621" interp="linr"  time="-9999999/1" value="1" leadInLength="0/1"  />
             </VectorParam>
             <VectorParam id="2622"  name="anchor">
              <InterpolatingParam id="2623" interp="linr"  time="0/1" value="0" leadInLength="0/1"  />
              <InterpolatingParam id="2624" interp="linr"  time="0/1" value="0" leadInLength="0/1"  />
              <InterpolatingParam id="2625" interp="linr"  time="0/1" value="0" leadInLength="0/1"  />
             </VectorParam>
            </Transformer>
            <Parameters>
             <VectorParam id="2626"  name="sourceCrop">
              <InterpolatingParam id="2627" interp="linr"  time="0/1" value="0" leadInLength="0/1"  />
              <InterpolatingParam id="2628" interp="linr"  time="0/1" value="0" leadInLength="0/1"  />
              <InterpolatingParam id="2629" interp="linr"  time="0/1" value="0" leadInLength="0/1"  />
              <InterpolatingParam id="2630" interp="linr"  time="0/1" value="0" leadInLength="0/1"  />
             </VectorParam>
             <VectorParam id="2631"  name="geometryCrop">
              <InterpolatingParam id="2632" interp="linr"  time="-9999999/1" value="0" leadInLength="0/1"  />
              <InterpolatingParam id="2633" interp="linr"  time="-9999999/1" value="0" leadInLength="0/1"  />
              <InterpolatingParam id="2634" interp="linr"  time="-9999999/1" value="0" leadInLength="0/1"  />
              <InterpolatingParam id="2635" interp="linr"  time="-9999999/1" value="0" leadInLength="0/1"  />
             </VectorParam>
             <InterpolatingParam id="2636" interp="linr"  time="-9999999/1" value="1" leadInLength="0/1"  name="opacity"/>
             <InterpolatingParam id="2637" interp="linr"  time="0/1" value="0" leadInLength="0/1"  name="cursorOpacity"/>
             <InterpolatingParam id="2638" interp="linr"  time="0/1" value="0" leadInLength="0/1"  name="cursorScale"/>
            </Parameters>
            <Attributes>
             <Attribute id="2639" value="" name="ident"/>
            </Attributes>
            <MetaData>
             <entry key="AutoAppliedSmartFocus" val="False"/>
             <entry key="WinSubProjectDisplayName" val=""/>
            </MetaData>
            <ExtraData>
             <Entry key="ZoomPanBin">
              <ZoomPanBin id="2640"  >
               <ZoomPanKeyframes>
                <ZoomPanKeyframe id="2641" timeRangeEnd="-9999999/1" timeRangeDuration="0/1" interpolaterName=""  />
               </ZoomPanKeyframes>
              </ZoomPanBin>
             </Entry>
             <Entry key="CursorEffectBin">
              <CursorEffectBin id="2642"  >
               <CursorEffectKeyframes>
               </CursorEffectKeyframes>
              </CursorEffectBin>
             </Entry>
            </ExtraData>
           </ScreenVMFile>
          </Medias>
         </GenericTrack>
        </StitchedMedia>
        <StitchedMedia id="2643" start="3166" duration="2167" scalar="1/1" mediaStart="11/1" mediaDuration="2167/1" minMediaStart="0/1" >
         <Transformer>
          <VectorParam id="2644"  name="translation">
           <InterpolatingParam id="2645" interp="linr"  time="-9999999/1" value="3.8094527532448448e-011" leadInLength="0/1"  />
           <InterpolatingParam id="2646" interp="linr"  time="-9999999/1" value="9.1127105861232849e-012" leadInLength="0/1"  />
           <InterpolatingParam id="2647" interp="linr"  time="-9999999/1" value="0" leadInLength="0/1"  />
          </VectorParam>
          <VectorParam id="2648"  name="rotation">
           <InterpolatingParam id="2649" interp="linr"  time="-9999999/1" value="0" leadInLength="0/1"  />
           <InterpolatingParam id="2650" interp="linr"  time="-9999999/1" value="0" leadInLength="0/1"  />
           <InterpolatingParam id="2651" interp="linr"  time="-9999999/1" value="0" leadInLength="0/1"  />
          </VectorParam>
          <VectorParam id="2652"  name="shear">
           <InterpolatingParam id="2653" interp="linr"  time="-9999999/1" value="0" leadInLength="0/1"  />
           <InterpolatingParam id="2654" interp="linr"  time="-9999999/1" value="0" leadInLength="0/1"  />
           <InterpolatingParam id="2655" interp="linr"  time="-9999999/1" value="0" leadInLength="0/1"  />
          </VectorParam>
          <VectorParam id="2656"  name="scale">
           <InterpolatingParam id="2657" interp="linr"  time="-9999999/1" value="0.9375" leadInLength="0/1"  />
           <InterpolatingParam id="2658" interp="linr"  time="-9999999/1" value="0.9375" leadInLength="0/1"  />
           <InterpolatingParam id="2659" interp="linr"  time="-9999999/1" value="1" leadInLength="0/1"  />
          </VectorParam>
          <VectorParam id="2660"  name="anchor">
           <InterpolatingParam id="2661" interp="linr"  time="0/1" value="0" leadInLength="0/1"  />
           <InterpolatingParam id="2662" interp="linr"  time="0/1" value="0" leadInLength="0/1"  />
           <InterpolatingParam id="2663" interp="linr"  time="0/1" value="0" leadInLength="0/1"  />
          </VectorParam>
         </Transformer>
         <Parameters>
          <VectorParam id="2664"  name="sourceCrop">
           <InterpolatingParam id="2665" interp="linr"  time="0/1" value="0" leadInLength="0/1"  />
           <InterpolatingParam id="2666" interp="linr"  time="0/1" value="0" leadInLength="0/1"  />
           <InterpolatingParam id="2667" interp="linr"  time="0/1" value="0" leadInLength="0/1"  />
           <InterpolatingParam id="2668" interp="linr"  time="0/1" value="0" leadInLength="0/1"  />
          </VectorParam>
          <VectorParam id="2669"  name="geometryCrop">
           <InterpolatingParam id="2670" interp="linr"  time="-9999999/1" value="0" leadInLength="0/1"  />
           <InterpolatingParam id="2671" interp="linr"  time="-9999999/1" value="0" leadInLength="0/1"  />
           <InterpolatingParam id="2672" interp="linr"  time="-9999999/1" value="0" leadInLength="0/1"  />
           <InterpolatingParam id="2673" interp="linr"  time="-9999999/1" value="0" leadInLength="0/1"  />
          </VectorParam>
          <InterpolatingParam id="2674" interp="linr"  time="-9999999/1" value="1" leadInLength="0/1"  name="opacity"/>
          <InterpolatingParam id="2675" interp="linr"  time="0/1" value="1" leadInLength="0/1"  name="cursorOpacity"/>
          <InterpolatingParam id="2676" interp="linr"  time="0/1" value="1" leadInLength="0/1"  name="cursorScale"/>
          <Parameter id="2677"  name="captions"/>
         </Parameters>
         <Effects>
          <GenericEffect id="2678" name = "CursorBaseEffectName" >
           <Parameters>
           <InterpolatingParam id="2679" interp="linr"  time="-9999999/1" value="1" leadInLength="0/1"   name="cursorSize"/>
           <InterpolatingParam id="2680" interp="linr"  time="-9999999/1" value="0" leadInLength="0/1"   name="highlightBlurRadius"/>
           <InterpolatingParam id="2681" interp="linr"  time="-9999999/1" value="0" leadInLength="0/1"   name="highlightColorBlue"/>
           <InterpolatingParam id="2682" interp="linr"  time="-9999999/1" value="255" leadInLength="0/1"   name="highlightColorGreen"/>
           <InterpolatingParam id="2683" interp="linr"  time="-9999999/1" value="255" leadInLength="0/1"   name="highlightColorRed"/>
           <InterpolatingParam id="2684" interp="linr"  time="-9999999/1" value="5" leadInLength="0/1"   name="highlightFeatherSize"/>
           <InterpolatingParam id="2685" interp="linr"  time="-9999999/1" value="2" leadInLength="0/1"   name="highlightMagnification"/>
           <InterpolatingParam id="2686" interp="linr"  time="-9999999/1" value="1" leadInLength="0/1"   name="highlightOpacity"/>
           <InterpolatingParam id="2687" interp="linr"  time="-9999999/1" value="45" leadInLength="0/1"   name="highlightSize"/>
           <Parameter id="2688"   name="highlightType">
            <Keyframes>
            <Keyframe id="2689"  time="-9999999/1" value="0" leadInLength="0/1"  />
            </Keyframes>
           </Parameter>
           <InterpolatingParam id="2690" interp="linr"  time="-9999999/1" value="0" leadInLength="0/1"   name="leftClickColorBlue"/>
           <InterpolatingParam id="2691" interp="linr"  time="-9999999/1" value="0" leadInLength="0/1"   name="leftClickColorGreen"/>
           <InterpolatingParam id="2692" interp="linr"  time="-9999999/1" value="255" leadInLength="0/1"   name="leftClickColorRed"/>
           <InterpolatingParam id="2693" interp="linr"  time="-9999999/1" value="0.80000000000000004" leadInLength="0/1"   name="leftClickDuration"/>
           <InterpolatingParam id="2694" interp="linr"  time="-9999999/1" value="20" leadInLength="0/1"   name="leftClickSize"/>
           <Parameter id="2695"   name="leftClickSoundFilename">
            <Keyframes>
            <Keyframe id="2696"  time="-9999999/1" value="" leadInLength="0/1"  />
            </Keyframes>
           </Parameter>
           <InterpolatingParam id="2697" interp="linr"  time="-9999999/1" value="1" leadInLength="0/1"   name="leftClickSoundVolume"/>
           <Parameter id="2698"   name="leftClickType">
            <Keyframes>
            <Keyframe id="2699"  time="-9999999/1" value="0" leadInLength="0/1"  />
            </Keyframes>
           </Parameter>
           <InterpolatingParam id="2700" interp="linr"  time="-9999999/1" value="1" leadInLength="0/1"   name="opacity"/>
           <InterpolatingParam id="2701" interp="linr"  time="-9999999/1" value="255" leadInLength="0/1"   name="rightClickColorBlue"/>
           <InterpolatingParam id="2702" interp="linr"  time="-9999999/1" value="0" leadInLength="0/1"   name="rightClickColorGreen"/>
           <InterpolatingParam id="2703" interp="linr"  time="-9999999/1" value="0" leadInLength="0/1"   name="rightClickColorRed"/>
           <InterpolatingParam id="2704" interp="linr"  time="-9999999/1" value="0.80000000000000004" leadInLength="0/1"   name="rightClickDuration"/>
           <InterpolatingParam id="2705" interp="linr"  time="-9999999/1" value="20" leadInLength="0/1"   name="rightClickSize"/>
           <Parameter id="2706"   name="rightClickSoundFilename">
            <Keyframes>
            <Keyframe id="2707"  time="-9999999/1" value="" leadInLength="0/1"  />
            </Keyframes>
           </Parameter>
           <InterpolatingParam id="2708" interp="linr"  time="-9999999/1" value="1" leadInLength="0/1"   name="rightClickSoundVolume"/>
           <Parameter id="2709"   name="rightClickType">
            <Keyframes>
            <Keyframe id="2710"  time="-9999999/1" value="0" leadInLength="0/1"  />
            </Keyframes>
           </Parameter>
           </Parameters>
          </GenericEffect>
         </Effects>
         <Attributes>
          <Attribute id="2711" value="" name="ident"/>
         </Attributes>
         <MetaData>
          <entry key="AutoAppliedSmartFocus" val="False"/>
          <entry key="WinSubProjectDisplayName" val=""/>
         </MetaData>
         <ExtraData>
          <Entry key="ZoomPanBin">
           <ZoomPanBin id="2712"  >
            <ZoomPanKeyframes>
             <ZoomPanKeyframe id="2713" timeRangeEnd="-9999999/1" timeRangeDuration="0/1" interpolaterName=""  />
            </ZoomPanKeyframes>
           </ZoomPanBin>
          </Entry>
          <Entry key="CursorEffectBin">
           <CursorEffectBin id="2714"  >
            <CursorEffectKeyframes>
             <CursorEffectKeyframe id="2715" timeRangeEnd="-9999999/1" timeRangeDuration="0/1" interpolaterName=""  />
            </CursorEffectKeyframes>
           </CursorEffectBin>
          </Entry>
         </ExtraData>
         <GenericTrack id="2716"  >
          <Attributes>
           <Attribute id="2717" value="" name="ident"/>
           <Attribute id="2718" value="0" name="audioMuted"/>
           <Attribute id="2719" value="0" name="videoHidden"/>
          </Attributes>
          <MetaData>
           <entry key="IsLocked" val="False"/>
           <entry key="WinTrackHeight" val="0"/>
          </MetaData>
          <Medias>
           <ScreenVMFile id="2720" start="0" duration="169" scalar="1/1" mediaStart="0/1" mediaDuration="169/1" trackNumber="0" src="5" >
            <Transformer>
             <VectorParam id="2721"  name="translation">
              <InterpolatingParam id="2722" interp="linr"  time="-9999999/1" value="0" leadInLength="0/1"  />
              <InterpolatingParam id="2723" interp="linr"  time="-9999999/1" value="0" leadInLength="0/1"  />
              <InterpolatingParam id="2724" interp="linr"  time="-9999999/1" value="0" leadInLength="0/1"  />
             </VectorParam>
             <VectorParam id="2725"  name="rotation">
              <InterpolatingParam id="2726" interp="linr"  time="-9999999/1" value="0" leadInLength="0/1"  />
              <InterpolatingParam id="2727" interp="linr"  time="-9999999/1" value="0" leadInLength="0/1"  />
              <InterpolatingParam id="2728" interp="linr"  time="-9999999/1" value="0" leadInLength="0/1"  />
             </VectorParam>
             <VectorParam id="2729"  name="shear">
              <InterpolatingParam id="2730" interp="linr"  time="-9999999/1" value="0" leadInLength="0/1"  />
              <InterpolatingParam id="2731" interp="linr"  time="-9999999/1" value="0" leadInLength="0/1"  />
              <InterpolatingParam id="2732" interp="linr"  time="-9999999/1" value="0" leadInLength="0/1"  />
             </VectorParam>
             <VectorParam id="2733"  name="scale">
              <InterpolatingParam id="2734" interp="linr"  time="-9999999/1" value="1" leadInLength="0/1"  />
              <InterpolatingParam id="2735" interp="linr"  time="-9999999/1" value="1" leadInLength="0/1"  />
              <InterpolatingParam id="2736" interp="linr"  time="-9999999/1" value="1" leadInLength="0/1"  />
             </VectorParam>
             <VectorParam id="2737"  name="anchor">
              <InterpolatingParam id="2738" interp="linr"  time="0/1" value="0" leadInLength="0/1"  />
              <InterpolatingParam id="2739" interp="linr"  time="0/1" value="0" leadInLength="0/1"  />
              <InterpolatingParam id="2740" interp="linr"  time="0/1" value="0" leadInLength="0/1"  />
             </VectorParam>
            </Transformer>
            <Parameters>
             <VectorParam id="2741"  name="sourceCrop">
              <InterpolatingParam id="2742" interp="linr"  time="0/1" value="0" leadInLength="0/1"  />
              <InterpolatingParam id="2743" interp="linr"  time="0/1" value="0" leadInLength="0/1"  />
              <InterpolatingParam id="2744" interp="linr"  time="0/1" value="0" leadInLength="0/1"  />
              <InterpolatingParam id="2745" interp="linr"  time="0/1" value="0" leadInLength="0/1"  />
             </VectorParam>
             <VectorParam id="2746"  name="geometryCrop">
              <InterpolatingParam id="2747" interp="linr"  time="-9999999/1" value="0" leadInLength="0/1"  />
              <InterpolatingParam id="2748" interp="linr"  time="-9999999/1" value="0" leadInLength="0/1"  />
              <InterpolatingParam id="2749" interp="linr"  time="-9999999/1" value="0" leadInLength="0/1"  />
              <InterpolatingParam id="2750" interp="linr"  time="-9999999/1" value="0" leadInLength="0/1"  />
             </VectorParam>
             <InterpolatingParam id="2751" interp="linr"  time="-9999999/1" value="1" leadInLength="0/1"  name="opacity"/>
             <InterpolatingParam id="2752" interp="linr"  time="0/1" value="0" leadInLength="0/1"  name="cursorOpacity"/>
             <InterpolatingParam id="2753" interp="linr"  time="0/1" value="0" leadInLength="0/1"  name="cursorScale"/>
            </Parameters>
            <Attributes>
             <Attribute id="2754" value="" name="ident"/>
            </Attributes>
            <MetaData>
             <entry key="AutoAppliedSmartFocus" val="False"/>
             <entry key="WinSubProjectDisplayName" val=""/>
            </MetaData>
            <ExtraData>
             <Entry key="ZoomPanBin">
              <ZoomPanBin id="2755"  >
               <ZoomPanKeyframes>
                <ZoomPanKeyframe id="2756" timeRangeEnd="-9999999/1" timeRangeDuration="0/1" interpolaterName=""  />
               </ZoomPanKeyframes>
              </ZoomPanBin>
             </Entry>
             <Entry key="CursorEffectBin">
              <CursorEffectBin id="2757"  >
               <CursorEffectKeyframes>
               </CursorEffectKeyframes>
              </CursorEffectBin>
             </Entry>
            </ExtraData>
           </ScreenVMFile>
           <ScreenVMFile id="2758" start="169" duration="79" scalar="1/1" mediaStart="196/1" mediaDuration="79/1" trackNumber="0" src="5" >
            <Transformer>
             <VectorParam id="2759"  name="translation">
              <InterpolatingParam id="2760" interp="linr"  time="-9999999/1" value="0" leadInLength="0/1"  />
              <InterpolatingParam id="2761" interp="linr"  time="-9999999/1" value="0" leadInLength="0/1"  />
              <InterpolatingParam id="2762" interp="linr"  time="-9999999/1" value="0" leadInLength="0/1"  />
             </VectorParam>
             <VectorParam id="2763"  name="rotation">
              <InterpolatingParam id="2764" interp="linr"  time="-9999999/1" value="0" leadInLength="0/1"  />
              <InterpolatingParam id="2765" interp="linr"  time="-9999999/1" value="0" leadInLength="0/1"  />
              <InterpolatingParam id="2766" interp="linr"  time="-9999999/1" value="0" leadInLength="0/1"  />
             </VectorParam>
             <VectorParam id="2767"  name="shear">
              <InterpolatingParam id="2768" interp="linr"  time="-9999999/1" value="0" leadInLength="0/1"  />
              <InterpolatingParam id="2769" interp="linr"  time="-9999999/1" value="0" leadInLength="0/1"  />
              <InterpolatingParam id="2770" interp="linr"  time="-9999999/1" value="0" leadInLength="0/1"  />
             </VectorParam>
             <VectorParam id="2771"  name="scale">
              <InterpolatingParam id="2772" interp="linr"  time="-9999999/1" value="1" leadInLength="0/1"  />
              <InterpolatingParam id="2773" interp="linr"  time="-9999999/1" value="1" leadInLength="0/1"  />
              <InterpolatingParam id="2774" interp="linr"  time="-9999999/1" value="1" leadInLength="0/1"  />
             </VectorParam>
             <VectorParam id="2775"  name="anchor">
              <InterpolatingParam id="2776" interp="linr"  time="0/1" value="0" leadInLength="0/1"  />
              <InterpolatingParam id="2777" interp="linr"  time="0/1" value="0" leadInLength="0/1"  />
              <InterpolatingParam id="2778" interp="linr"  time="0/1" value="0" leadInLength="0/1"  />
             </VectorParam>
            </Transformer>
            <Parameters>
             <VectorParam id="2779"  name="sourceCrop">
              <InterpolatingParam id="2780" interp="linr"  time="0/1" value="0" leadInLength="0/1"  />
              <InterpolatingParam id="2781" interp="linr"  time="0/1" value="0" leadInLength="0/1"  />
              <InterpolatingParam id="2782" interp="linr"  time="0/1" value="0" leadInLength="0/1"  />
              <InterpolatingParam id="2783" interp="linr"  time="0/1" value="0" leadInLength="0/1"  />
             </VectorParam>
             <VectorParam id="2784"  name="geometryCrop">
              <InterpolatingParam id="2785" interp="linr"  time="-9999999/1" value="0" leadInLength="0/1"  />
              <InterpolatingParam id="2786" interp="linr"  time="-9999999/1" value="0" leadInLength="0/1"  />
              <InterpolatingParam id="2787" interp="linr"  time="-9999999/1" value="0" leadInLength="0/1"  />
              <InterpolatingParam id="2788" interp="linr"  time="-9999999/1" value="0" leadInLength="0/1"  />
             </VectorParam>
             <InterpolatingParam id="2789" interp="linr"  time="-9999999/1" value="1" leadInLength="0/1"  name="opacity"/>
             <InterpolatingParam id="2790" interp="linr"  time="0/1" value="0" leadInLength="0/1"  name="cursorOpacity"/>
             <InterpolatingParam id="2791" interp="linr"  time="0/1" value="0" leadInLength="0/1"  name="cursorScale"/>
            </Parameters>
            <Attributes>
             <Attribute id="2792" value="" name="ident"/>
            </Attributes>
            <MetaData>
             <entry key="AutoAppliedSmartFocus" val="False"/>
             <entry key="WinSubProjectDisplayName" val=""/>
            </MetaData>
            <ExtraData>
             <Entry key="ZoomPanBin">
              <ZoomPanBin id="2793"  >
               <ZoomPanKeyframes>
                <ZoomPanKeyframe id="2794" timeRangeEnd="-9999999/1" timeRangeDuration="0/1" interpolaterName=""  />
               </ZoomPanKeyframes>
              </ZoomPanBin>
             </Entry>
             <Entry key="CursorEffectBin">
              <CursorEffectBin id="2795"  >
               <CursorEffectKeyframes>
               </CursorEffectKeyframes>
              </CursorEffectBin>
             </Entry>
            </ExtraData>
           </ScreenVMFile>
           <ScreenVMFile id="2796" start="248" duration="576" scalar="1/1" mediaStart="379/1" mediaDuration="576/1" trackNumber="0" src="5" >
            <Transformer>
             <VectorParam id="2797"  name="translation">
              <InterpolatingParam id="2798" interp="linr"  time="-9999999/1" value="0" leadInLength="0/1"  />
              <InterpolatingParam id="2799" interp="linr"  time="-9999999/1" value="0" leadInLength="0/1"  />
              <InterpolatingParam id="2800" interp="linr"  time="-9999999/1" value="0" leadInLength="0/1"  />
             </VectorParam>
             <VectorParam id="2801"  name="rotation">
              <InterpolatingParam id="2802" interp="linr"  time="-9999999/1" value="0" leadInLength="0/1"  />
              <InterpolatingParam id="2803" interp="linr"  time="-9999999/1" value="0" leadInLength="0/1"  />
              <InterpolatingParam id="2804" interp="linr"  time="-9999999/1" value="0" leadInLength="0/1"  />
             </VectorParam>
             <VectorParam id="2805"  name="shear">
              <InterpolatingParam id="2806" interp="linr"  time="-9999999/1" value="0" leadInLength="0/1"  />
              <InterpolatingParam id="2807" interp="linr"  time="-9999999/1" value="0" leadInLength="0/1"  />
              <InterpolatingParam id="2808" interp="linr"  time="-9999999/1" value="0" leadInLength="0/1"  />
             </VectorParam>
             <VectorParam id="2809"  name="scale">
              <InterpolatingParam id="2810" interp="linr"  time="-9999999/1" value="1" leadInLength="0/1"  />
              <InterpolatingParam id="2811" interp="linr"  time="-9999999/1" value="1" leadInLength="0/1"  />
              <InterpolatingParam id="2812" interp="linr"  time="-9999999/1" value="1" leadInLength="0/1"  />
             </VectorParam>
             <VectorParam id="2813"  name="anchor">
              <InterpolatingParam id="2814" interp="linr"  time="0/1" value="0" leadInLength="0/1"  />
              <InterpolatingParam id="2815" interp="linr"  time="0/1" value="0" leadInLength="0/1"  />
              <InterpolatingParam id="2816" interp="linr"  time="0/1" value="0" leadInLength="0/1"  />
             </VectorParam>
            </Transformer>
            <Parameters>
             <VectorParam id="2817"  name="sourceCrop">
              <InterpolatingParam id="2818" interp="linr"  time="0/1" value="0" leadInLength="0/1"  />
              <InterpolatingParam id="2819" interp="linr"  time="0/1" value="0" leadInLength="0/1"  />
              <InterpolatingParam id="2820" interp="linr"  time="0/1" value="0" leadInLength="0/1"  />
              <InterpolatingParam id="2821" interp="linr"  time="0/1" value="0" leadInLength="0/1"  />
             </VectorParam>
             <VectorParam id="2822"  name="geometryCrop">
              <InterpolatingParam id="2823" interp="linr"  time="-9999999/1" value="0" leadInLength="0/1"  />
              <InterpolatingParam id="2824" interp="linr"  time="-9999999/1" value="0" leadInLength="0/1"  />
              <InterpolatingParam id="2825" interp="linr"  time="-9999999/1" value="0" leadInLength="0/1"  />
              <InterpolatingParam id="2826" interp="linr"  time="-9999999/1" value="0" leadInLength="0/1"  />
             </VectorParam>
             <InterpolatingParam id="2827" interp="linr"  time="-9999999/1" value="1" leadInLength="0/1"  name="opacity"/>
             <InterpolatingParam id="2828" interp="linr"  time="0/1" value="0" leadInLength="0/1"  name="cursorOpacity"/>
             <InterpolatingParam id="2829" interp="linr"  time="0/1" value="0" leadInLength="0/1"  name="cursorScale"/>
            </Parameters>
            <Attributes>
             <Attribute id="2830" value="" name="ident"/>
            </Attributes>
            <MetaData>
             <entry key="AutoAppliedSmartFocus" val="False"/>
             <entry key="WinSubProjectDisplayName" val=""/>
            </MetaData>
            <ExtraData>
             <Entry key="ZoomPanBin">
              <ZoomPanBin id="2831"  >
               <ZoomPanKeyframes>
                <ZoomPanKeyframe id="2832" timeRangeEnd="-9999999/1" timeRangeDuration="0/1" interpolaterName=""  />
               </ZoomPanKeyframes>
              </ZoomPanBin>
             </Entry>
             <Entry key="CursorEffectBin">
              <CursorEffectBin id="2833"  >
               <CursorEffectKeyframes>
               </CursorEffectKeyframes>
              </CursorEffectBin>
             </Entry>
            </ExtraData>
           </ScreenVMFile>
           <ScreenVMFile id="2834" start="824" duration="694" scalar="1/1" mediaStart="1000/1" mediaDuration="694/1" trackNumber="0" src="5" >
            <Transformer>
             <VectorParam id="2835"  name="translation">
              <InterpolatingParam id="2836" interp="linr"  time="-9999999/1" value="0" leadInLength="0/1"  />
              <InterpolatingParam id="2837" interp="linr"  time="-9999999/1" value="0" leadInLength="0/1"  />
              <InterpolatingParam id="2838" interp="linr"  time="-9999999/1" value="0" leadInLength="0/1"  />
             </VectorParam>
             <VectorParam id="2839"  name="rotation">
              <InterpolatingParam id="2840" interp="linr"  time="-9999999/1" value="0" leadInLength="0/1"  />
              <InterpolatingParam id="2841" interp="linr"  time="-9999999/1" value="0" leadInLength="0/1"  />
              <InterpolatingParam id="2842" interp="linr"  time="-9999999/1" value="0" leadInLength="0/1"  />
             </VectorParam>
             <VectorParam id="2843"  name="shear">
              <InterpolatingParam id="2844" interp="linr"  time="-9999999/1" value="0" leadInLength="0/1"  />
              <InterpolatingParam id="2845" interp="linr"  time="-9999999/1" value="0" leadInLength="0/1"  />
              <InterpolatingParam id="2846" interp="linr"  time="-9999999/1" value="0" leadInLength="0/1"  />
             </VectorParam>
             <VectorParam id="2847"  name="scale">
              <InterpolatingParam id="2848" interp="linr"  time="-9999999/1" value="1" leadInLength="0/1"  />
              <InterpolatingParam id="2849" interp="linr"  time="-9999999/1" value="1" leadInLength="0/1"  />
              <InterpolatingParam id="2850" interp="linr"  time="-9999999/1" value="1" leadInLength="0/1"  />
             </VectorParam>
             <VectorParam id="2851"  name="anchor">
              <InterpolatingParam id="2852" interp="linr"  time="0/1" value="0" leadInLength="0/1"  />
              <InterpolatingParam id="2853" interp="linr"  time="0/1" value="0" leadInLength="0/1"  />
              <InterpolatingParam id="2854" interp="linr"  time="0/1" value="0" leadInLength="0/1"  />
             </VectorParam>
            </Transformer>
            <Parameters>
             <VectorParam id="2855"  name="sourceCrop">
              <InterpolatingParam id="2856" interp="linr"  time="0/1" value="0" leadInLength="0/1"  />
              <InterpolatingParam id="2857" interp="linr"  time="0/1" value="0" leadInLength="0/1"  />
              <InterpolatingParam id="2858" interp="linr"  time="0/1" value="0" leadInLength="0/1"  />
              <InterpolatingParam id="2859" interp="linr"  time="0/1" value="0" leadInLength="0/1"  />
             </VectorParam>
             <VectorParam id="2860"  name="geometryCrop">
              <InterpolatingParam id="2861" interp="linr"  time="-9999999/1" value="0" leadInLength="0/1"  />
              <InterpolatingParam id="2862" interp="linr"  time="-9999999/1" value="0" leadInLength="0/1"  />
              <InterpolatingParam id="2863" interp="linr"  time="-9999999/1" value="0" leadInLength="0/1"  />
              <InterpolatingParam id="2864" interp="linr"  time="-9999999/1" value="0" leadInLength="0/1"  />
             </VectorParam>
             <InterpolatingParam id="2865" interp="linr"  time="-9999999/1" value="1" leadInLength="0/1"  name="opacity"/>
             <InterpolatingParam id="2866" interp="linr"  time="0/1" value="0" leadInLength="0/1"  name="cursorOpacity"/>
             <InterpolatingParam id="2867" interp="linr"  time="0/1" value="0" leadInLength="0/1"  name="cursorScale"/>
            </Parameters>
            <Attributes>
             <Attribute id="2868" value="" name="ident"/>
            </Attributes>
            <MetaData>
             <entry key="AutoAppliedSmartFocus" val="False"/>
             <entry key="WinSubProjectDisplayName" val=""/>
            </MetaData>
            <ExtraData>
             <Entry key="ZoomPanBin">
              <ZoomPanBin id="2869"  >
               <ZoomPanKeyframes>
                <ZoomPanKeyframe id="2870" timeRangeEnd="-9999999/1" timeRangeDuration="0/1" interpolaterName=""  />
               </ZoomPanKeyframes>
              </ZoomPanBin>
             </Entry>
             <Entry key="CursorEffectBin">
              <CursorEffectBin id="2871"  >
               <CursorEffectKeyframes>
               </CursorEffectKeyframes>
              </CursorEffectBin>
             </Entry>
            </ExtraData>
           </ScreenVMFile>
           <ScreenVMFile id="2872" start="1518" duration="75" scalar="1/1" mediaStart="1785/1" mediaDuration="75/1" trackNumber="0" src="5" >
            <Transformer>
             <VectorParam id="2873"  name="translation">
              <InterpolatingParam id="2874" interp="linr"  time="-9999999/1" value="0" leadInLength="0/1"  />
              <InterpolatingParam id="2875" interp="linr"  time="-9999999/1" value="0" leadInLength="0/1"  />
              <InterpolatingParam id="2876" interp="linr"  time="-9999999/1" value="0" leadInLength="0/1"  />
             </VectorParam>
             <VectorParam id="2877"  name="rotation">
              <InterpolatingParam id="2878" interp="linr"  time="-9999999/1" value="0" leadInLength="0/1"  />
              <InterpolatingParam id="2879" interp="linr"  time="-9999999/1" value="0" leadInLength="0/1"  />
              <InterpolatingParam id="2880" interp="linr"  time="-9999999/1" value="0" leadInLength="0/1"  />
             </VectorParam>
             <VectorParam id="2881"  name="shear">
              <InterpolatingParam id="2882" interp="linr"  time="-9999999/1" value="0" leadInLength="0/1"  />
              <InterpolatingParam id="2883" interp="linr"  time="-9999999/1" value="0" leadInLength="0/1"  />
              <InterpolatingParam id="2884" interp="linr"  time="-9999999/1" value="0" leadInLength="0/1"  />
             </VectorParam>
             <VectorParam id="2885"  name="scale">
              <InterpolatingParam id="2886" interp="linr"  time="-9999999/1" value="1" leadInLength="0/1"  />
              <InterpolatingParam id="2887" interp="linr"  time="-9999999/1" value="1" leadInLength="0/1"  />
              <InterpolatingParam id="2888" interp="linr"  time="-9999999/1" value="1" leadInLength="0/1"  />
             </VectorParam>
             <VectorParam id="2889"  name="anchor">
              <InterpolatingParam id="2890" interp="linr"  time="0/1" value="0" leadInLength="0/1"  />
              <InterpolatingParam id="2891" interp="linr"  time="0/1" value="0" leadInLength="0/1"  />
              <InterpolatingParam id="2892" interp="linr"  time="0/1" value="0" leadInLength="0/1"  />
             </VectorParam>
            </Transformer>
            <Parameters>
             <VectorParam id="2893"  name="sourceCrop">
              <InterpolatingParam id="2894" interp="linr"  time="0/1" value="0" leadInLength="0/1"  />
              <InterpolatingParam id="2895" interp="linr"  time="0/1" value="0" leadInLength="0/1"  />
              <InterpolatingParam id="2896" interp="linr"  time="0/1" value="0" leadInLength="0/1"  />
              <InterpolatingParam id="2897" interp="linr"  time="0/1" value="0" leadInLength="0/1"  />
             </VectorParam>
             <VectorParam id="2898"  name="geometryCrop">
              <InterpolatingParam id="2899" interp="linr"  time="-9999999/1" value="0" leadInLength="0/1"  />
              <InterpolatingParam id="2900" interp="linr"  time="-9999999/1" value="0" leadInLength="0/1"  />
              <InterpolatingParam id="2901" interp="linr"  time="-9999999/1" value="0" leadInLength="0/1"  />
              <InterpolatingParam id="2902" interp="linr"  time="-9999999/1" value="0" leadInLength="0/1"  />
             </VectorParam>
             <InterpolatingParam id="2903" interp="linr"  time="-9999999/1" value="1" leadInLength="0/1"  name="opacity"/>
             <InterpolatingParam id="2904" interp="linr"  time="0/1" value="0" leadInLength="0/1"  name="cursorOpacity"/>
             <InterpolatingParam id="2905" interp="linr"  time="0/1" value="0" leadInLength="0/1"  name="cursorScale"/>
            </Parameters>
            <Attributes>
             <Attribute id="2906" value="" name="ident"/>
            </Attributes>
            <MetaData>
             <entry key="AutoAppliedSmartFocus" val="False"/>
             <entry key="WinSubProjectDisplayName" val=""/>
            </MetaData>
            <ExtraData>
             <Entry key="ZoomPanBin">
              <ZoomPanBin id="2907"  >
               <ZoomPanKeyframes>
                <ZoomPanKeyframe id="2908" timeRangeEnd="-9999999/1" timeRangeDuration="0/1" interpolaterName=""  />
               </ZoomPanKeyframes>
              </ZoomPanBin>
             </Entry>
             <Entry key="CursorEffectBin">
              <CursorEffectBin id="2909"  >
               <CursorEffectKeyframes>
               </CursorEffectKeyframes>
              </CursorEffectBin>
             </Entry>
            </ExtraData>
           </ScreenVMFile>
           <ScreenVMFile id="2910" start="1593" duration="344" scalar="1/1" mediaStart="1874/1" mediaDuration="344/1" trackNumber="0" src="5" >
            <Transformer>
             <VectorParam id="2911"  name="translation">
              <InterpolatingParam id="2912" interp="linr"  time="-9999999/1" value="0" leadInLength="0/1"  />
              <InterpolatingParam id="2913" interp="linr"  time="-9999999/1" value="0" leadInLength="0/1"  />
              <InterpolatingParam id="2914" interp="linr"  time="-9999999/1" value="0" leadInLength="0/1"  />
             </VectorParam>
             <VectorParam id="2915"  name="rotation">
              <InterpolatingParam id="2916" interp="linr"  time="-9999999/1" value="0" leadInLength="0/1"  />
              <InterpolatingParam id="2917" interp="linr"  time="-9999999/1" value="0" leadInLength="0/1"  />
              <InterpolatingParam id="2918" interp="linr"  time="-9999999/1" value="0" leadInLength="0/1"  />
             </VectorParam>
             <VectorParam id="2919"  name="shear">
              <InterpolatingParam id="2920" interp="linr"  time="-9999999/1" value="0" leadInLength="0/1"  />
              <InterpolatingParam id="2921" interp="linr"  time="-9999999/1" value="0" leadInLength="0/1"  />
              <InterpolatingParam id="2922" interp="linr"  time="-9999999/1" value="0" leadInLength="0/1"  />
             </VectorParam>
             <VectorParam id="2923"  name="scale">
              <InterpolatingParam id="2924" interp="linr"  time="-9999999/1" value="1" leadInLength="0/1"  />
              <InterpolatingParam id="2925" interp="linr"  time="-9999999/1" value="1" leadInLength="0/1"  />
              <InterpolatingParam id="2926" interp="linr"  time="-9999999/1" value="1" leadInLength="0/1"  />
             </VectorParam>
             <VectorParam id="2927"  name="anchor">
              <InterpolatingParam id="2928" interp="linr"  time="0/1" value="0" leadInLength="0/1"  />
              <InterpolatingParam id="2929" interp="linr"  time="0/1" value="0" leadInLength="0/1"  />
              <InterpolatingParam id="2930" interp="linr"  time="0/1" value="0" leadInLength="0/1"  />
             </VectorParam>
            </Transformer>
            <Parameters>
             <VectorParam id="2931"  name="sourceCrop">
              <InterpolatingParam id="2932" interp="linr"  time="0/1" value="0" leadInLength="0/1"  />
              <InterpolatingParam id="2933" interp="linr"  time="0/1" value="0" leadInLength="0/1"  />
              <InterpolatingParam id="2934" interp="linr"  time="0/1" value="0" leadInLength="0/1"  />
              <InterpolatingParam id="2935" interp="linr"  time="0/1" value="0" leadInLength="0/1"  />
             </VectorParam>
             <VectorParam id="2936"  name="geometryCrop">
              <InterpolatingParam id="2937" interp="linr"  time="-9999999/1" value="0" leadInLength="0/1"  />
              <InterpolatingParam id="2938" interp="linr"  time="-9999999/1" value="0" leadInLength="0/1"  />
              <InterpolatingParam id="2939" interp="linr"  time="-9999999/1" value="0" leadInLength="0/1"  />
              <InterpolatingParam id="2940" interp="linr"  time="-9999999/1" value="0" leadInLength="0/1"  />
             </VectorParam>
             <InterpolatingParam id="2941" interp="linr"  time="-9999999/1" value="1" leadInLength="0/1"  name="opacity"/>
             <InterpolatingParam id="2942" interp="linr"  time="0/1" value="0" leadInLength="0/1"  name="cursorOpacity"/>
             <InterpolatingParam id="2943" interp="linr"  time="0/1" value="0" leadInLength="0/1"  name="cursorScale"/>
            </Parameters>
            <Attributes>
             <Attribute id="2944" value="" name="ident"/>
            </Attributes>
            <MetaData>
             <entry key="AutoAppliedSmartFocus" val="False"/>
             <entry key="WinSubProjectDisplayName" val=""/>
            </MetaData>
            <ExtraData>
             <Entry key="ZoomPanBin">
              <ZoomPanBin id="2945"  >
               <ZoomPanKeyframes>
                <ZoomPanKeyframe id="2946" timeRangeEnd="-9999999/1" timeRangeDuration="0/1" interpolaterName=""  />
               </ZoomPanKeyframes>
              </ZoomPanBin>
             </Entry>
             <Entry key="CursorEffectBin">
              <CursorEffectBin id="2947"  >
               <CursorEffectKeyframes>
               </CursorEffectKeyframes>
              </CursorEffectBin>
             </Entry>
            </ExtraData>
           </ScreenVMFile>
           <ScreenVMFile id="2948" start="1937" duration="124" scalar="1/1" mediaStart="2423/1" mediaDuration="124/1" trackNumber="0" src="5" >
            <Transformer>
             <VectorParam id="2949"  name="translation">
              <InterpolatingParam id="2950" interp="linr"  time="-9999999/1" value="0" leadInLength="0/1"  />
              <InterpolatingParam id="2951" interp="linr"  time="-9999999/1" value="0" leadInLength="0/1"  />
              <InterpolatingParam id="2952" interp="linr"  time="-9999999/1" value="0" leadInLength="0/1"  />
             </VectorParam>
             <VectorParam id="2953"  name="rotation">
              <InterpolatingParam id="2954" interp="linr"  time="-9999999/1" value="0" leadInLength="0/1"  />
              <InterpolatingParam id="2955" interp="linr"  time="-9999999/1" value="0" leadInLength="0/1"  />
              <InterpolatingParam id="2956" interp="linr"  time="-9999999/1" value="0" leadInLength="0/1"  />
             </VectorParam>
             <VectorParam id="2957"  name="shear">
              <InterpolatingParam id="2958" interp="linr"  time="-9999999/1" value="0" leadInLength="0/1"  />
              <InterpolatingParam id="2959" interp="linr"  time="-9999999/1" value="0" leadInLength="0/1"  />
              <InterpolatingParam id="2960" interp="linr"  time="-9999999/1" value="0" leadInLength="0/1"  />
             </VectorParam>
             <VectorParam id="2961"  name="scale">
              <InterpolatingParam id="2962" interp="linr"  time="-9999999/1" value="1" leadInLength="0/1"  />
              <InterpolatingParam id="2963" interp="linr"  time="-9999999/1" value="1" leadInLength="0/1"  />
              <InterpolatingParam id="2964" interp="linr"  time="-9999999/1" value="1" leadInLength="0/1"  />
             </VectorParam>
             <VectorParam id="2965"  name="anchor">
              <InterpolatingParam id="2966" interp="linr"  time="0/1" value="0" leadInLength="0/1"  />
              <InterpolatingParam id="2967" interp="linr"  time="0/1" value="0" leadInLength="0/1"  />
              <InterpolatingParam id="2968" interp="linr"  time="0/1" value="0" leadInLength="0/1"  />
             </VectorParam>
            </Transformer>
            <Parameters>
             <VectorParam id="2969"  name="sourceCrop">
              <InterpolatingParam id="2970" interp="linr"  time="0/1" value="0" leadInLength="0/1"  />
              <InterpolatingParam id="2971" interp="linr"  time="0/1" value="0" leadInLength="0/1"  />
              <InterpolatingParam id="2972" interp="linr"  time="0/1" value="0" leadInLength="0/1"  />
              <InterpolatingParam id="2973" interp="linr"  time="0/1" value="0" leadInLength="0/1"  />
             </VectorParam>
             <VectorParam id="2974"  name="geometryCrop">
              <InterpolatingParam id="2975" interp="linr"  time="-9999999/1" value="0" leadInLength="0/1"  />
              <InterpolatingParam id="2976" interp="linr"  time="-9999999/1" value="0" leadInLength="0/1"  />
              <InterpolatingParam id="2977" interp="linr"  time="-9999999/1" value="0" leadInLength="0/1"  />
              <InterpolatingParam id="2978" interp="linr"  time="-9999999/1" value="0" leadInLength="0/1"  />
             </VectorParam>
             <InterpolatingParam id="2979" interp="linr"  time="-9999999/1" value="1" leadInLength="0/1"  name="opacity"/>
             <InterpolatingParam id="2980" interp="linr"  time="0/1" value="0" leadInLength="0/1"  name="cursorOpacity"/>
             <InterpolatingParam id="2981" interp="linr"  time="0/1" value="0" leadInLength="0/1"  name="cursorScale"/>
            </Parameters>
            <Attributes>
             <Attribute id="2982" value="" name="ident"/>
            </Attributes>
            <MetaData>
             <entry key="AutoAppliedSmartFocus" val="False"/>
             <entry key="WinSubProjectDisplayName" val=""/>
            </MetaData>
            <ExtraData>
             <Entry key="ZoomPanBin">
              <ZoomPanBin id="2983"  >
               <ZoomPanKeyframes>
                <ZoomPanKeyframe id="2984" timeRangeEnd="-9999999/1" timeRangeDuration="0/1" interpolaterName=""  />
               </ZoomPanKeyframes>
              </ZoomPanBin>
             </Entry>
             <Entry key="CursorEffectBin">
              <CursorEffectBin id="2985"  >
               <CursorEffectKeyframes>
               </CursorEffectKeyframes>
              </CursorEffectBin>
             </Entry>
            </ExtraData>
           </ScreenVMFile>
           <ScreenVMFile id="2986" start="2061" duration="19" scalar="1/1" mediaStart="2557/1" mediaDuration="19/1" trackNumber="0" src="5" >
            <Transformer>
             <VectorParam id="2987"  name="translation">
              <InterpolatingParam id="2988" interp="linr"  time="-9999999/1" value="0" leadInLength="0/1"  />
              <InterpolatingParam id="2989" interp="linr"  time="-9999999/1" value="0" leadInLength="0/1"  />
              <InterpolatingParam id="2990" interp="linr"  time="-9999999/1" value="0" leadInLength="0/1"  />
             </VectorParam>
             <VectorParam id="2991"  name="rotation">
              <InterpolatingParam id="2992" interp="linr"  time="-9999999/1" value="0" leadInLength="0/1"  />
              <InterpolatingParam id="2993" interp="linr"  time="-9999999/1" value="0" leadInLength="0/1"  />
              <InterpolatingParam id="2994" interp="linr"  time="-9999999/1" value="0" leadInLength="0/1"  />
             </VectorParam>
             <VectorParam id="2995"  name="shear">
              <InterpolatingParam id="2996" interp="linr"  time="-9999999/1" value="0" leadInLength="0/1"  />
              <InterpolatingParam id="2997" interp="linr"  time="-9999999/1" value="0" leadInLength="0/1"  />
              <InterpolatingParam id="2998" interp="linr"  time="-9999999/1" value="0" leadInLength="0/1"  />
             </VectorParam>
             <VectorParam id="2999"  name="scale">
              <InterpolatingParam id="3000" interp="linr"  time="-9999999/1" value="1" leadInLength="0/1"  />
              <InterpolatingParam id="3001" interp="linr"  time="-9999999/1" value="1" leadInLength="0/1"  />
              <InterpolatingParam id="3002" interp="linr"  time="-9999999/1" value="1" leadInLength="0/1"  />
             </VectorParam>
             <VectorParam id="3003"  name="anchor">
              <InterpolatingParam id="3004" interp="linr"  time="0/1" value="0" leadInLength="0/1"  />
              <InterpolatingParam id="3005" interp="linr"  time="0/1" value="0" leadInLength="0/1"  />
              <InterpolatingParam id="3006" interp="linr"  time="0/1" value="0" leadInLength="0/1"  />
             </VectorParam>
            </Transformer>
            <Parameters>
             <VectorParam id="3007"  name="sourceCrop">
              <InterpolatingParam id="3008" interp="linr"  time="0/1" value="0" leadInLength="0/1"  />
              <InterpolatingParam id="3009" interp="linr"  time="0/1" value="0" leadInLength="0/1"  />
              <InterpolatingParam id="3010" interp="linr"  time="0/1" value="0" leadInLength="0/1"  />
              <InterpolatingParam id="3011" interp="linr"  time="0/1" value="0" leadInLength="0/1"  />
             </VectorParam>
             <VectorParam id="3012"  name="geometryCrop">
              <InterpolatingParam id="3013" interp="linr"  time="-9999999/1" value="0" leadInLength="0/1"  />
              <InterpolatingParam id="3014" interp="linr"  time="-9999999/1" value="0" leadInLength="0/1"  />
              <InterpolatingParam id="3015" interp="linr"  time="-9999999/1" value="0" leadInLength="0/1"  />
              <InterpolatingParam id="3016" interp="linr"  time="-9999999/1" value="0" leadInLength="0/1"  />
             </VectorParam>
             <InterpolatingParam id="3017" interp="linr"  time="-9999999/1" value="1" leadInLength="0/1"  name="opacity"/>
             <InterpolatingParam id="3018" interp="linr"  time="0/1" value="0" leadInLength="0/1"  name="cursorOpacity"/>
             <InterpolatingParam id="3019" interp="linr"  time="0/1" value="0" leadInLength="0/1"  name="cursorScale"/>
            </Parameters>
            <Attributes>
             <Attribute id="3020" value="" name="ident"/>
            </Attributes>
            <MetaData>
             <entry key="AutoAppliedSmartFocus" val="False"/>
             <entry key="WinSubProjectDisplayName" val=""/>
            </MetaData>
            <ExtraData>
             <Entry key="ZoomPanBin">
              <ZoomPanBin id="3021"  >
               <ZoomPanKeyframes>
                <ZoomPanKeyframe id="3022" timeRangeEnd="-9999999/1" timeRangeDuration="0/1" interpolaterName=""  />
               </ZoomPanKeyframes>
              </ZoomPanBin>
             </Entry>
             <Entry key="CursorEffectBin">
              <CursorEffectBin id="3023"  >
               <CursorEffectKeyframes>
               </CursorEffectKeyframes>
              </CursorEffectBin>
             </Entry>
            </ExtraData>
           </ScreenVMFile>
           <ScreenVMFile id="3024" start="2080" duration="42" scalar="1/1" mediaStart="2585/1" mediaDuration="42/1" trackNumber="0" src="5" >
            <Transformer>
             <VectorParam id="3025"  name="translation">
              <InterpolatingParam id="3026" interp="linr"  time="-9999999/1" value="0" leadInLength="0/1"  />
              <InterpolatingParam id="3027" interp="linr"  time="-9999999/1" value="0" leadInLength="0/1"  />
              <InterpolatingParam id="3028" interp="linr"  time="-9999999/1" value="0" leadInLength="0/1"  />
             </VectorParam>
             <VectorParam id="3029"  name="rotation">
              <InterpolatingParam id="3030" interp="linr"  time="-9999999/1" value="0" leadInLength="0/1"  />
              <InterpolatingParam id="3031" interp="linr"  time="-9999999/1" value="0" leadInLength="0/1"  />
              <InterpolatingParam id="3032" interp="linr"  time="-9999999/1" value="0" leadInLength="0/1"  />
             </VectorParam>
             <VectorParam id="3033"  name="shear">
              <InterpolatingParam id="3034" interp="linr"  time="-9999999/1" value="0" leadInLength="0/1"  />
              <InterpolatingParam id="3035" interp="linr"  time="-9999999/1" value="0" leadInLength="0/1"  />
              <InterpolatingParam id="3036" interp="linr"  time="-9999999/1" value="0" leadInLength="0/1"  />
             </VectorParam>
             <VectorParam id="3037"  name="scale">
              <InterpolatingParam id="3038" interp="linr"  time="-9999999/1" value="1" leadInLength="0/1"  />
              <InterpolatingParam id="3039" interp="linr"  time="-9999999/1" value="1" leadInLength="0/1"  />
              <InterpolatingParam id="3040" interp="linr"  time="-9999999/1" value="1" leadInLength="0/1"  />
             </VectorParam>
             <VectorParam id="3041"  name="anchor">
              <InterpolatingParam id="3042" interp="linr"  time="0/1" value="0" leadInLength="0/1"  />
              <InterpolatingParam id="3043" interp="linr"  time="0/1" value="0" leadInLength="0/1"  />
              <InterpolatingParam id="3044" interp="linr"  time="0/1" value="0" leadInLength="0/1"  />
             </VectorParam>
            </Transformer>
            <Parameters>
             <VectorParam id="3045"  name="sourceCrop">
              <InterpolatingParam id="3046" interp="linr"  time="0/1" value="0" leadInLength="0/1"  />
              <InterpolatingParam id="3047" interp="linr"  time="0/1" value="0" leadInLength="0/1"  />
              <InterpolatingParam id="3048" interp="linr"  time="0/1" value="0" leadInLength="0/1"  />
              <InterpolatingParam id="3049" interp="linr"  time="0/1" value="0" leadInLength="0/1"  />
             </VectorParam>
             <VectorParam id="3050"  name="geometryCrop">
              <InterpolatingParam id="3051" interp="linr"  time="-9999999/1" value="0" leadInLength="0/1"  />
              <InterpolatingParam id="3052" interp="linr"  time="-9999999/1" value="0" leadInLength="0/1"  />
              <InterpolatingParam id="3053" interp="linr"  time="-9999999/1" value="0" leadInLength="0/1"  />
              <InterpolatingParam id="3054" interp="linr"  time="-9999999/1" value="0" leadInLength="0/1"  />
             </VectorParam>
             <InterpolatingParam id="3055" interp="linr"  time="-9999999/1" value="1" leadInLength="0/1"  name="opacity"/>
             <InterpolatingParam id="3056" interp="linr"  time="0/1" value="0" leadInLength="0/1"  name="cursorOpacity"/>
             <InterpolatingParam id="3057" interp="linr"  time="0/1" value="0" leadInLength="0/1"  name="cursorScale"/>
            </Parameters>
            <Attributes>
             <Attribute id="3058" value="" name="ident"/>
            </Attributes>
            <MetaData>
             <entry key="AutoAppliedSmartFocus" val="False"/>
             <entry key="WinSubProjectDisplayName" val=""/>
            </MetaData>
            <ExtraData>
             <Entry key="ZoomPanBin">
              <ZoomPanBin id="3059"  >
               <ZoomPanKeyframes>
                <ZoomPanKeyframe id="3060" timeRangeEnd="-9999999/1" timeRangeDuration="0/1" interpolaterName=""  />
               </ZoomPanKeyframes>
              </ZoomPanBin>
             </Entry>
             <Entry key="CursorEffectBin">
              <CursorEffectBin id="3061"  >
               <CursorEffectKeyframes>
               </CursorEffectKeyframes>
              </CursorEffectBin>
             </Entry>
            </ExtraData>
           </ScreenVMFile>
           <ScreenVMFile id="3062" start="2122" duration="106" scalar="1/1" mediaStart="2633/1" mediaDuration="106/1" trackNumber="0" src="5" >
            <Transformer>
             <VectorParam id="3063"  name="translation">
              <InterpolatingParam id="3064" interp="linr"  time="-9999999/1" value="0" leadInLength="0/1"  />
              <InterpolatingParam id="3065" interp="linr"  time="-9999999/1" value="0" leadInLength="0/1"  />
              <InterpolatingParam id="3066" interp="linr"  time="-9999999/1" value="0" leadInLength="0/1"  />
             </VectorParam>
             <VectorParam id="3067"  name="rotation">
              <InterpolatingParam id="3068" interp="linr"  time="-9999999/1" value="0" leadInLength="0/1"  />
              <InterpolatingParam id="3069" interp="linr"  time="-9999999/1" value="0" leadInLength="0/1"  />
              <InterpolatingParam id="3070" interp="linr"  time="-9999999/1" value="0" leadInLength="0/1"  />
             </VectorParam>
             <VectorParam id="3071"  name="shear">
              <InterpolatingParam id="3072" interp="linr"  time="-9999999/1" value="0" leadInLength="0/1"  />
              <InterpolatingParam id="3073" interp="linr"  time="-9999999/1" value="0" leadInLength="0/1"  />
              <InterpolatingParam id="3074" interp="linr"  time="-9999999/1" value="0" leadInLength="0/1"  />
             </VectorParam>
             <VectorParam id="3075"  name="scale">
              <InterpolatingParam id="3076" interp="linr"  time="-9999999/1" value="1" leadInLength="0/1"  />
              <InterpolatingParam id="3077" interp="linr"  time="-9999999/1" value="1" leadInLength="0/1"  />
              <InterpolatingParam id="3078" interp="linr"  time="-9999999/1" value="1" leadInLength="0/1"  />
             </VectorParam>
             <VectorParam id="3079"  name="anchor">
              <InterpolatingParam id="3080" interp="linr"  time="0/1" value="0" leadInLength="0/1"  />
              <InterpolatingParam id="3081" interp="linr"  time="0/1" value="0" leadInLength="0/1"  />
              <InterpolatingParam id="3082" interp="linr"  time="0/1" value="0" leadInLength="0/1"  />
             </VectorParam>
            </Transformer>
            <Parameters>
             <VectorParam id="3083"  name="sourceCrop">
              <InterpolatingParam id="3084" interp="linr"  time="0/1" value="0" leadInLength="0/1"  />
              <InterpolatingParam id="3085" interp="linr"  time="0/1" value="0" leadInLength="0/1"  />
              <InterpolatingParam id="3086" interp="linr"  time="0/1" value="0" leadInLength="0/1"  />
              <InterpolatingParam id="3087" interp="linr"  time="0/1" value="0" leadInLength="0/1"  />
             </VectorParam>
             <VectorParam id="3088"  name="geometryCrop">
              <InterpolatingParam id="3089" interp="linr"  time="-9999999/1" value="0" leadInLength="0/1"  />
              <InterpolatingParam id="3090" interp="linr"  time="-9999999/1" value="0" leadInLength="0/1"  />
              <InterpolatingParam id="3091" interp="linr"  time="-9999999/1" value="0" leadInLength="0/1"  />
              <InterpolatingParam id="3092" interp="linr"  time="-9999999/1" value="0" leadInLength="0/1"  />
             </VectorParam>
             <InterpolatingParam id="3093" interp="linr"  time="-9999999/1" value="1" leadInLength="0/1"  name="opacity"/>
             <InterpolatingParam id="3094" interp="linr"  time="0/1" value="0" leadInLength="0/1"  name="cursorOpacity"/>
             <InterpolatingParam id="3095" interp="linr"  time="0/1" value="0" leadInLength="0/1"  name="cursorScale"/>
            </Parameters>
            <Attributes>
             <Attribute id="3096" value="" name="ident"/>
            </Attributes>
            <MetaData>
             <entry key="AutoAppliedSmartFocus" val="False"/>
             <entry key="WinSubProjectDisplayName" val=""/>
            </MetaData>
            <ExtraData>
             <Entry key="ZoomPanBin">
              <ZoomPanBin id="3097"  >
               <ZoomPanKeyframes>
                <ZoomPanKeyframe id="3098" timeRangeEnd="-9999999/1" timeRangeDuration="0/1" interpolaterName=""  />
               </ZoomPanKeyframes>
              </ZoomPanBin>
             </Entry>
             <Entry key="CursorEffectBin">
              <CursorEffectBin id="3099"  >
               <CursorEffectKeyframes>
               </CursorEffectKeyframes>
              </CursorEffectBin>
             </Entry>
            </ExtraData>
           </ScreenVMFile>
          </Medias>
         </GenericTrack>
        </StitchedMedia>
       </Medias>
      </GenericTrack>
      <GenericTrack id="3100"  >
       <Attributes>
        <Attribute id="3101" value="" name="ident"/>
        <Attribute id="3102" value="0" name="audioMuted"/>
        <Attribute id="3103" value="0" name="videoHidden"/>
       </Attributes>
       <MetaData>
        <entry key="IsLocked" val="False"/>
        <entry key="WinTrackHeight" val="62"/>
       </MetaData>
       <Medias>
       </Medias>
      </GenericTrack>
     </Tracks>
    </GenericMixer>
   <CaptionAttributes id="3104"  >
    <Attribute id="3105" value="1" name="captionsEnabled"/>
    <Attribute id="3106" value="Arial" name="captionsFontName"/>
    <Attribute id="3107" value="26" name="captionsFontSize"/>
    <Attribute id="3108" value="(0,0,0,255)" name="captionsBackgroundColor"/>
    <Attribute id="3109" value="(255,255,255,255)" name="captionsForegroundColor"/>
    <Attribute id="3110" value="en" name="lang"/>
    <Attribute id="3111" value="0" name="captionsAlignment"/>
    <Attribute id="3112" value="1" name="captionsDefaultFontSize"/>
    <Attribute id="3113" value="0.5" name="captionsOpacity"/>
    <Attribute id="3114" value="1" name="captionsBackgroundEnabled"/>
    <Attribute id="3115" value="1" name="captionsBackgroundOnlyAroundText"/>
   </CaptionAttributes>
   <Parameters>
    <VectorParam id="3116"  name="eyePosition">
     <InterpolatingParam id="3117" interp="linr"  time="0/1" value="0" leadInLength="0/1"  />
     <InterpolatingParam id="3118" interp="linr"  time="0/1" value="0" leadInLength="0/1"  />
     <InterpolatingParam id="3119" interp="linr"  time="0/1" value="3000" leadInLength="0/1"  />
    </VectorParam>
    <VectorParam id="3120"  name="eyeLookAtPosition">
     <InterpolatingParam id="3121" interp="linr"  time="0/1" value="0" leadInLength="0/1"  />
     <InterpolatingParam id="3122" interp="linr"  time="0/1" value="0" leadInLength="0/1"  />
     <InterpolatingParam id="3123" interp="linr"  time="0/1" value="0" leadInLength="0/1"  />
    </VectorParam>
    <VectorParam id="3124"  name="eyeUpVector">
     <InterpolatingParam id="3125" interp="linr"  time="0/1" value="0" leadInLength="0/1"  />
     <InterpolatingParam id="3126" interp="linr"  time="0/1" value="1" leadInLength="0/1"  />
     <InterpolatingParam id="3127" interp="linr"  time="0/1" value="0" leadInLength="0/1"  />
    </VectorParam>
    <InterpolatingParam id="3128" interp="linr"  time="0/1" value="0.23885785" leadInLength="0/1"  name="fov"/>
    <InterpolatingParam id="3129" interp="linr"  time="0/1" value="1.5" leadInLength="0/1"  name="nearClipDistance"/>
    <InterpolatingParam id="3130" interp="linr"  time="0/1" value="6000" leadInLength="0/1"  name="farClipDistance"/>
   </Parameters>
  </Timeline>
 </Project>
</GoProject>
</CSMLData>

</Project_Data>
