<?xml version="1.0"?>
<Project_Data Version="8.00">
<Project_Settings>
<ProfileName></ProfileName>
<ProjectWidth>1360</ProjectWidth>
<ProjectHeight>720</ProjectHeight>
<IsCustomProject>1</IsCustomProject>
<SavedProjectSettings>1</SavedProjectSettings>
<LastFlashTemplate>-1</LastFlashTemplate>
</Project_Settings>


<AutoSaveFile>C:\Users\Junaid\AppData\Local\TechSmith\Camtasia Studio\8.0\Auto-Saves\Promo try503ba28b.autosave.camproj</AutoSaveFile>

<ProjectID>2BFCE00D-7780-4144-AF90-2A20BB2112D9</ProjectID>

<PowerPointProject>0</PowerPointProject>

<PowerPointFilename></PowerPointFilename>


<Project_Notes>
</Project_Notes>

<Project_MetaData>
<Project_MetaData_Object>
<FieldArrayKey>8</FieldArrayKey>
<Value>Promo try</Value>
</Project_MetaData_Object>
<Project_MetaData_Object>
<FieldArrayKey>13</FieldArrayKey>
<Value>2016-02-11 03:12:56 PM</Value>
</Project_MetaData_Object>
<Project_MetaData_Object>
<FieldArrayKey>16</FieldArrayKey>
<Value>ENU</Value>
</Project_MetaData_Object>
</Project_MetaData>

<CSMLData>
<GoProject id="1" version="3.0" >
 <Project id="2" editRate="30/1" version="3.0" >
  <Author></Author>
  <Comment></Comment>
  <System></System>
  <SourceBin id="3"  >
    <Source id="4" src="C:\Users\Junaid\Desktop\IOT RECO\promo1.trec" lastMod="20160211T103240" rect="(0,0,1920,1016)" >
      <SourceTrack range="(0,5894)" type="0" editRate="30/1" trackRect="(0,0,1920,1016)" sampleRate="0/1" bitDepth="0" numChannels="0" filename="promo1.trec!Strack0.tsc2" metaData="promo1.trec;" />
      <SourceTrack range="(0,5892000)" type="0" editRate="30000/1" trackRect="(0,0,640,480)" sampleRate="0/1" bitDepth="0" numChannels="0" filename="promo1.trec!Cvideo1.mp4" metaData="" />
      <SourceTrack range="(0,8642560)" type="2" editRate="44100/1" trackRect="(0,0,0,0)" sampleRate="44100/1" bitDepth="16" numChannels="2" filename="promo1.trec!Maudio2.mp4" metaData="" />
    </Source>
    <Source id="5" src="C:\Users\Junaid\Desktop\IOT RECO\promo2.trec" lastMod="20160211T104439" rect="(0,0,1920,1016)" >
      <SourceTrack range="(0,10613)" type="0" editRate="30/1" trackRect="(0,0,1920,1016)" sampleRate="0/1" bitDepth="0" numChannels="0" filename="promo2.trec!Strack0.tsc2" metaData="promo2.trec;" />
      <SourceTrack range="(0,10606000)" type="0" editRate="30000/1" trackRect="(0,0,640,480)" sampleRate="0/1" bitDepth="0" numChannels="0" filename="promo2.trec!Cvideo1.mp4" metaData="" />
      <SourceTrack range="(0,15580160)" type="2" editRate="44100/1" trackRect="(0,0,0,0)" sampleRate="44100/1" bitDepth="16" numChannels="2" filename="promo2.trec!Maudio2.mp4" metaData="" />
    </Source>
    <Source id="6" src="C:\Users\Junaid\Desktop\IOT RECO\promo3.trec" lastMod="20160211T110405" rect="(0,0,1920,1016)" >
      <SourceTrack range="(0,26803)" type="0" editRate="30/1" trackRect="(0,0,1920,1016)" sampleRate="0/1" bitDepth="0" numChannels="0" filename="promo3.trec!Strack0.tsc2" metaData="promo3.trec;" />
      <SourceTrack range="(0,26802000)" type="0" editRate="30000/1" trackRect="(0,0,640,480)" sampleRate="0/1" bitDepth="0" numChannels="0" filename="promo3.trec!Cvideo1.mp4" metaData="" />
      <SourceTrack range="(0,39386112)" type="2" editRate="44100/1" trackRect="(0,0,0,0)" sampleRate="44100/1" bitDepth="16" numChannels="2" filename="promo3.trec!Maudio2.mp4" metaData="" />
    </Source>
    <Source id="7" src="C:\Users\Junaid\Desktop\IOT RECO\promo4.trec" lastMod="20160211T110904" rect="(0,0,1920,1016)" >
      <SourceTrack range="(0,5427)" type="0" editRate="30/1" trackRect="(0,0,1920,1016)" sampleRate="0/1" bitDepth="0" numChannels="0" filename="promo4.trec!Strack0.tsc2" metaData="promo4.trec;" />
      <SourceTrack range="(0,5425000)" type="0" editRate="30000/1" trackRect="(0,0,640,480)" sampleRate="0/1" bitDepth="0" numChannels="0" filename="promo4.trec!Cvideo1.mp4" metaData="" />
      <SourceTrack range="(0,7955456)" type="2" editRate="44100/1" trackRect="(0,0,0,0)" sampleRate="44100/1" bitDepth="16" numChannels="2" filename="promo4.trec!Maudio2.mp4" metaData="" />
    </Source>
    <Source id="8" src="C:\ProgramData\TechSmith\Camtasia Studio\Library 2.0\Coast to Coast - Full Song\Coast to Coast - Full Song.mp3" lastMod="20120514T103534" rect="(0,0,0,0)" >
      <SourceTrack range="(0,1772000000)" type="2" editRate="10000000/1" trackRect="(0,0,0,0)" sampleRate="44100/1" bitDepth="0" numChannels="2" filename="" metaData="" />
    </Source>
    <Source id="9" src="C:\ProgramData\TechSmith\Camtasia Studio\Library 2.0\Animated Intro(9)\End Of The Line.mp4" lastMod="20120320T120238" rect="(0,0,1280,720)" >
      <SourceTrack range="(0,200000000)" type="0" editRate="10000000/1" trackRect="(0,0,1280,720)" sampleRate="10000000/333333" bitDepth="24" numChannels="0" filename="" metaData="" />
    </Source>
    <Source id="10" src="C:\ProgramData\TechSmith\Camtasia Studio\Library 2.0\EndoftheLine-annotation(2-2)\EndoftheLine-annotation(2-2).png" lastMod="20120312T095642" rect="(0,0,700,201)" >
      <SourceTrack range="(0,1)" type="1" editRate="10000000/1" trackRect="(0,0,700,201)" sampleRate="0/1" bitDepth="32" numChannels="0" filename="" metaData="" />
    </Source>
    <Source id="11" src="C:\ProgramData\TechSmith\Camtasia Studio\Library 2.0\Callout - Themed 21143f9b4\EndoftheLine-CommonCallout-two.png" lastMod="20120322T071800" rect="(0,0,750,125)" >
      <SourceTrack range="(0,1)" type="1" editRate="10000000/1" trackRect="(0,0,750,125)" sampleRate="0/1" bitDepth="32" numChannels="0" filename="" metaData="" />
    </Source>
    <Source id="12" src="C:\ProgramData\TechSmith\Camtasia Studio\Library 2.0\EndoftheLine -1280x720\EndoftheLine -1280x720.jpg" lastMod="20120307T043940" rect="(0,0,1280,720)" >
      <SourceTrack range="(0,1)" type="1" editRate="10000000/1" trackRect="(0,0,1280,720)" sampleRate="0/1" bitDepth="24" numChannels="0" filename="" metaData="" />
    </Source>
    <Source id="13" src="C:\ProgramData\TechSmith\Camtasia Studio\Library 2.0\EndoftheLine-annotation(2-1)\EndoftheLine-annotation(2-1).png" lastMod="20120312T094630" rect="(0,0,650,250)" >
      <SourceTrack range="(0,1)" type="1" editRate="10000000/1" trackRect="(0,0,650,250)" sampleRate="0/1" bitDepth="32" numChannels="0" filename="" metaData="" />
    </Source>
    <Source id="14" src="C:\ProgramData\TechSmith\Camtasia Studio\Library 2.0\Coast to Coast - Short\Coast to Coast - Short.mp3" lastMod="20120514T103446" rect="(0,0,0,0)" >
      <SourceTrack range="(0,309000000)" type="2" editRate="10000000/1" trackRect="(0,0,0,0)" sampleRate="44100/1" bitDepth="0" numChannels="2" filename="" metaData="" />
    </Source>
    <Source id="15" src="C:\ProgramData\TechSmith\Camtasia Studio\Library 2.0\EndoftheLine-CommonCallout-Six\EndoftheLine-CommonCallout-Six.png" lastMod="20120322T041552" rect="(0,0,250,175)" >
      <SourceTrack range="(0,1)" type="1" editRate="10000000/1" trackRect="(0,0,250,175)" sampleRate="0/1" bitDepth="32" numChannels="0" filename="" metaData="" />
    </Source>
    <Source id="16" src="C:\ProgramData\TechSmith\Camtasia Studio\Library 2.0\Animated Intro\All Polished.mp4" lastMod="20120320T102718" rect="(0,0,1280,720)" >
      <SourceTrack range="(0,200000000)" type="0" editRate="10000000/1" trackRect="(0,0,1280,720)" sampleRate="10000000/333333" bitDepth="24" numChannels="0" filename="" metaData="" />
    </Source>
    <Source id="17" src="C:\Users\Junaid\Desktop\IOT\Resources\blue.png" lastMod="20160213T014226" rect="(0,0,1263,686)" >
      <SourceTrack range="(0,1)" type="1" editRate="10000000/1" trackRect="(0,0,1263,686)" sampleRate="0/1" bitDepth="24" numChannels="0" filename="" metaData="" />
    </Source>
  </SourceBin>
  <Timeline id="18"  >
   <Attributes>
    <Attribute id="19" value="1360" name="width"/>
    <Attribute id="20" value="720" name="height"/>
    <Attribute id="21" value="(0,0,0,255)" name="backgroundColor"/>
   </Attributes>
    <GenericMixer id="22"  name="Unified Mixer">
     <MetaData>
      <entry key="MixerType" val="TimelineMixer"/>
     </MetaData>
     <Tracks>
      <GenericTrack id="23"  >
       <Attributes>
        <Attribute id="24" value="" name="ident"/>
        <Attribute id="25" value="0" name="audioMuted"/>
        <Attribute id="26" value="0" name="videoHidden"/>
       </Attributes>
       <MetaData>
        <entry key="IsLocked" val="False"/>
        <entry key="WinTrackHeight" val="62"/>
       </MetaData>
       <Medias>
        <StitchedMedia id="27" start="563" duration="666" scalar="1/1" mediaStart="1297/1" mediaDuration="666/1" minMediaStart="0/1" >
         <Transformer>
          <VectorParam id="28"  name="translation">
           <InterpolatingParam id="29" interp="linr"  >
            <Keyframes>
            <Keyframe id="30"  time="-9999999/1" value="4.0666729243336405e-011" leadInLength="0/1"  />
            <Keyframe id="31"  time="1571/1" value="-2.1663559834905755e-011" leadInLength="30/1"  interpolater="leadin-linr"  />
            </Keyframes>
           </InterpolatingParam>
           <InterpolatingParam id="32" interp="linr"  >
            <Keyframes>
            <Keyframe id="33"  time="-9999999/1" value="7.6904408767101514e-011" leadInLength="0/1"  />
            <Keyframe id="34"  time="1571/1" value="0.16666666680575837" leadInLength="30/1"  interpolater="leadin-linr"  />
            </Keyframes>
           </InterpolatingParam>
           <InterpolatingParam id="35" interp="linr"  >
            <Keyframes>
            <Keyframe id="36"  time="-9999999/1" value="0" leadInLength="0/1"  />
            <Keyframe id="37"  time="1571/1" value="-6.8212102632965751e-010" leadInLength="30/1"  interpolater="leadin-linr"  />
            </Keyframes>
           </InterpolatingParam>
          </VectorParam>
          <VectorParam id="38"  name="rotation">
           <InterpolatingParam id="39" interp="linr"  >
            <Keyframes>
            <Keyframe id="40"  time="-9999999/1" value="0" leadInLength="0/1"  />
            <Keyframe id="41"  time="1571/1" value="0" leadInLength="30/1"  interpolater="leadin-linr"  />
            </Keyframes>
           </InterpolatingParam>
           <InterpolatingParam id="42" interp="linr"  >
            <Keyframes>
            <Keyframe id="43"  time="-9999999/1" value="0" leadInLength="0/1"  />
            <Keyframe id="44"  time="1571/1" value="0" leadInLength="30/1"  interpolater="leadin-linr"  />
            </Keyframes>
           </InterpolatingParam>
           <InterpolatingParam id="45" interp="linr"  >
            <Keyframes>
            <Keyframe id="46"  time="-9999999/1" value="0" leadInLength="0/1"  />
            <Keyframe id="47"  time="1571/1" value="0" leadInLength="30/1"  interpolater="leadin-linr"  />
            </Keyframes>
           </InterpolatingParam>
          </VectorParam>
          <VectorParam id="48"  name="shear">
           <InterpolatingParam id="49" interp="linr"  >
            <Keyframes>
            <Keyframe id="50"  time="-9999999/1" value="0" leadInLength="0/1"  />
            <Keyframe id="51"  time="1571/1" value="0" leadInLength="30/1"  interpolater="leadin-linr"  />
            </Keyframes>
           </InterpolatingParam>
           <InterpolatingParam id="52" interp="linr"  >
            <Keyframes>
            <Keyframe id="53"  time="-9999999/1" value="0" leadInLength="0/1"  />
            <Keyframe id="54"  time="1571/1" value="0" leadInLength="30/1"  interpolater="leadin-linr"  />
            </Keyframes>
           </InterpolatingParam>
           <InterpolatingParam id="55" interp="linr"  >
            <Keyframes>
            <Keyframe id="56"  time="-9999999/1" value="0" leadInLength="0/1"  />
            <Keyframe id="57"  time="1571/1" value="0" leadInLength="30/1"  interpolater="leadin-linr"  />
            </Keyframes>
           </InterpolatingParam>
          </VectorParam>
          <VectorParam id="58"  name="scale">
           <InterpolatingParam id="59" interp="linr"  >
            <Keyframes>
            <Keyframe id="60"  time="-9999999/1" value="0.70833333333333337" leadInLength="0/1"  />
            <Keyframe id="61"  time="1571/1" value="0.70833333333333337" leadInLength="30/1"  interpolater="leadin-linr"  />
            </Keyframes>
           </InterpolatingParam>
           <InterpolatingParam id="62" interp="linr"  >
            <Keyframes>
            <Keyframe id="63"  time="-9999999/1" value="0.70833333333333337" leadInLength="0/1"  />
            <Keyframe id="64"  time="1571/1" value="0.70833333333333337" leadInLength="30/1"  interpolater="leadin-linr"  />
            </Keyframes>
           </InterpolatingParam>
           <InterpolatingParam id="65" interp="linr"  >
            <Keyframes>
            <Keyframe id="66"  time="-9999999/1" value="1" leadInLength="0/1"  />
            <Keyframe id="67"  time="1571/1" value="1" leadInLength="30/1"  interpolater="leadin-linr"  />
            </Keyframes>
           </InterpolatingParam>
          </VectorParam>
          <VectorParam id="68"  name="anchor">
           <InterpolatingParam id="69" interp="linr"  time="0/1" value="0" leadInLength="0/1"  />
           <InterpolatingParam id="70" interp="linr"  time="0/1" value="0" leadInLength="0/1"  />
           <InterpolatingParam id="71" interp="linr"  time="0/1" value="0" leadInLength="0/1"  />
          </VectorParam>
         </Transformer>
         <Parameters>
          <VectorParam id="72"  name="sourceCrop">
           <InterpolatingParam id="73" interp="linr"  time="0/1" value="0" leadInLength="0/1"  />
           <InterpolatingParam id="74" interp="linr"  time="0/1" value="0" leadInLength="0/1"  />
           <InterpolatingParam id="75" interp="linr"  time="0/1" value="0" leadInLength="0/1"  />
           <InterpolatingParam id="76" interp="linr"  time="0/1" value="0" leadInLength="0/1"  />
          </VectorParam>
          <VectorParam id="77"  name="geometryCrop">
           <InterpolatingParam id="78" interp="linr"  >
            <Keyframes>
            <Keyframe id="79"  time="-9999999/1" value="0" leadInLength="0/1"  />
            <Keyframe id="80"  time="1571/1" value="0" leadInLength="30/1"  interpolater="leadin-linr"  />
            </Keyframes>
           </InterpolatingParam>
           <InterpolatingParam id="81" interp="linr"  >
            <Keyframes>
            <Keyframe id="82"  time="-9999999/1" value="0" leadInLength="0/1"  />
            <Keyframe id="83"  time="1571/1" value="0" leadInLength="30/1"  interpolater="leadin-linr"  />
            </Keyframes>
           </InterpolatingParam>
           <InterpolatingParam id="84" interp="linr"  >
            <Keyframes>
            <Keyframe id="85"  time="-9999999/1" value="0" leadInLength="0/1"  />
            <Keyframe id="86"  time="1571/1" value="0" leadInLength="30/1"  interpolater="leadin-linr"  />
            </Keyframes>
           </InterpolatingParam>
           <InterpolatingParam id="87" interp="linr"  >
            <Keyframes>
            <Keyframe id="88"  time="-9999999/1" value="0" leadInLength="0/1"  />
            <Keyframe id="89"  time="1571/1" value="0" leadInLength="30/1"  interpolater="leadin-linr"  />
            </Keyframes>
           </InterpolatingParam>
          </VectorParam>
          <InterpolatingParam id="90" interp="linr"  name="opacity">
           <Keyframes>
           <Keyframe id="91"  time="-9999999/1" value="1" leadInLength="0/1"  />
           <Keyframe id="92"  time="1571/1" value="1" leadInLength="30/1"  interpolater="leadin-linr"  />
           </Keyframes>
          </InterpolatingParam>
          <InterpolatingParam id="93" interp="linr"  time="0/1" value="1" leadInLength="0/1"  name="cursorOpacity"/>
          <InterpolatingParam id="94" interp="linr"  time="0/1" value="1" leadInLength="0/1"  name="cursorScale"/>
          <Parameter id="95"  name="captions"/>
         </Parameters>
         <Effects>
          <GenericEffect id="96" name = "CursorBaseEffectName" >
           <Parameters>
           <InterpolatingParam id="97" interp="linr"  time="-9999999/1" value="1" leadInLength="0/1"   name="cursorSize"/>
           <InterpolatingParam id="98" interp="linr"  time="-9999999/1" value="0" leadInLength="0/1"   name="highlightBlurRadius"/>
           <InterpolatingParam id="99" interp="linr"  time="-9999999/1" value="0" leadInLength="0/1"   name="highlightColorBlue"/>
           <InterpolatingParam id="100" interp="linr"  time="-9999999/1" value="255" leadInLength="0/1"   name="highlightColorGreen"/>
           <InterpolatingParam id="101" interp="linr"  time="-9999999/1" value="255" leadInLength="0/1"   name="highlightColorRed"/>
           <InterpolatingParam id="102" interp="linr"  time="-9999999/1" value="5" leadInLength="0/1"   name="highlightFeatherSize"/>
           <InterpolatingParam id="103" interp="linr"  time="-9999999/1" value="2" leadInLength="0/1"   name="highlightMagnification"/>
           <InterpolatingParam id="104" interp="linr"  time="-9999999/1" value="1" leadInLength="0/1"   name="highlightOpacity"/>
           <InterpolatingParam id="105" interp="linr"  time="-9999999/1" value="45" leadInLength="0/1"   name="highlightSize"/>
           <Parameter id="106"   name="highlightType">
            <Keyframes>
            <Keyframe id="107"  time="-9999999/1" value="0" leadInLength="0/1"  />
            </Keyframes>
           </Parameter>
           <InterpolatingParam id="108" interp="linr"  time="-9999999/1" value="0" leadInLength="0/1"   name="leftClickColorBlue"/>
           <InterpolatingParam id="109" interp="linr"  time="-9999999/1" value="0" leadInLength="0/1"   name="leftClickColorGreen"/>
           <InterpolatingParam id="110" interp="linr"  time="-9999999/1" value="255" leadInLength="0/1"   name="leftClickColorRed"/>
           <InterpolatingParam id="111" interp="linr"  time="-9999999/1" value="0.80000000000000004" leadInLength="0/1"   name="leftClickDuration"/>
           <InterpolatingParam id="112" interp="linr"  time="-9999999/1" value="20" leadInLength="0/1"   name="leftClickSize"/>
           <Parameter id="113"   name="leftClickSoundFilename">
            <Keyframes>
            <Keyframe id="114"  time="-9999999/1" value="" leadInLength="0/1"  />
            </Keyframes>
           </Parameter>
           <InterpolatingParam id="115" interp="linr"  time="-9999999/1" value="1" leadInLength="0/1"   name="leftClickSoundVolume"/>
           <Parameter id="116"   name="leftClickType">
            <Keyframes>
            <Keyframe id="117"  time="-9999999/1" value="0" leadInLength="0/1"  />
            </Keyframes>
           </Parameter>
           <InterpolatingParam id="118" interp="linr"  time="-9999999/1" value="1" leadInLength="0/1"   name="opacity"/>
           <InterpolatingParam id="119" interp="linr"  time="-9999999/1" value="255" leadInLength="0/1"   name="rightClickColorBlue"/>
           <InterpolatingParam id="120" interp="linr"  time="-9999999/1" value="0" leadInLength="0/1"   name="rightClickColorGreen"/>
           <InterpolatingParam id="121" interp="linr"  time="-9999999/1" value="0" leadInLength="0/1"   name="rightClickColorRed"/>
           <InterpolatingParam id="122" interp="linr"  time="-9999999/1" value="0.80000000000000004" leadInLength="0/1"   name="rightClickDuration"/>
           <InterpolatingParam id="123" interp="linr"  time="-9999999/1" value="20" leadInLength="0/1"   name="rightClickSize"/>
           <Parameter id="124"   name="rightClickSoundFilename">
            <Keyframes>
            <Keyframe id="125"  time="-9999999/1" value="" leadInLength="0/1"  />
            </Keyframes>
           </Parameter>
           <InterpolatingParam id="126" interp="linr"  time="-9999999/1" value="1" leadInLength="0/1"   name="rightClickSoundVolume"/>
           <Parameter id="127"   name="rightClickType">
            <Keyframes>
            <Keyframe id="128"  time="-9999999/1" value="0" leadInLength="0/1"  />
            </Keyframes>
           </Parameter>
           </Parameters>
          </GenericEffect>
         </Effects>
         <Attributes>
          <Attribute id="129" value="" name="ident"/>
         </Attributes>
         <MetaData>
          <entry key="AutoAppliedSmartFocus" val="False"/>
          <entry key="WinSubProjectDisplayName" val=""/>
         </MetaData>
         <ExtraData>
          <Entry key="ZoomPanBin">
           <ZoomPanBin id="130"  >
            <ZoomPanKeyframes>
             <ZoomPanKeyframe id="131" timeRangeEnd="-9999999/1" timeRangeDuration="0/1" interpolaterName="linr"  />
             <ZoomPanKeyframe id="132" timeRangeEnd="1571/1" timeRangeDuration="30/1" interpolaterName="linr"  />
            </ZoomPanKeyframes>
           </ZoomPanBin>
          </Entry>
          <Entry key="CursorEffectBin">
           <CursorEffectBin id="133"  >
            <CursorEffectKeyframes>
             <CursorEffectKeyframe id="134" timeRangeEnd="-9999999/1" timeRangeDuration="0/1" interpolaterName=""  />
            </CursorEffectKeyframes>
           </CursorEffectBin>
          </Entry>
         </ExtraData>
         <GenericTrack id="135"  >
          <Attributes>
           <Attribute id="136" value="" name="ident"/>
           <Attribute id="137" value="0" name="audioMuted"/>
           <Attribute id="138" value="0" name="videoHidden"/>
          </Attributes>
          <MetaData>
           <entry key="IsLocked" val="False"/>
           <entry key="WinTrackHeight" val="0"/>
          </MetaData>
          <Medias>
           <ScreenVMFile id="139" start="0" duration="849" scalar="1/1" mediaStart="0/1" mediaDuration="849/1" trackNumber="0" src="5" >
            <Transformer>
             <VectorParam id="140"  name="translation">
              <InterpolatingParam id="141" interp="linr"  time="-9999999/1" value="0" leadInLength="0/1"  />
              <InterpolatingParam id="142" interp="linr"  time="-9999999/1" value="0" leadInLength="0/1"  />
              <InterpolatingParam id="143" interp="linr"  time="-9999999/1" value="0" leadInLength="0/1"  />
             </VectorParam>
             <VectorParam id="144"  name="rotation">
              <InterpolatingParam id="145" interp="linr"  time="-9999999/1" value="0" leadInLength="0/1"  />
              <InterpolatingParam id="146" interp="linr"  time="-9999999/1" value="0" leadInLength="0/1"  />
              <InterpolatingParam id="147" interp="linr"  time="-9999999/1" value="0" leadInLength="0/1"  />
             </VectorParam>
             <VectorParam id="148"  name="shear">
              <InterpolatingParam id="149" interp="linr"  time="-9999999/1" value="0" leadInLength="0/1"  />
              <InterpolatingParam id="150" interp="linr"  time="-9999999/1" value="0" leadInLength="0/1"  />
              <InterpolatingParam id="151" interp="linr"  time="-9999999/1" value="0" leadInLength="0/1"  />
             </VectorParam>
             <VectorParam id="152"  name="scale">
              <InterpolatingParam id="153" interp="linr"  time="-9999999/1" value="1" leadInLength="0/1"  />
              <InterpolatingParam id="154" interp="linr"  time="-9999999/1" value="1" leadInLength="0/1"  />
              <InterpolatingParam id="155" interp="linr"  time="-9999999/1" value="1" leadInLength="0/1"  />
             </VectorParam>
             <VectorParam id="156"  name="anchor">
              <InterpolatingParam id="157" interp="linr"  time="0/1" value="0" leadInLength="0/1"  />
              <InterpolatingParam id="158" interp="linr"  time="0/1" value="0" leadInLength="0/1"  />
              <InterpolatingParam id="159" interp="linr"  time="0/1" value="0" leadInLength="0/1"  />
             </VectorParam>
            </Transformer>
            <Parameters>
             <VectorParam id="160"  name="sourceCrop">
              <InterpolatingParam id="161" interp="linr"  time="0/1" value="0" leadInLength="0/1"  />
              <InterpolatingParam id="162" interp="linr"  time="0/1" value="0" leadInLength="0/1"  />
              <InterpolatingParam id="163" interp="linr"  time="0/1" value="0" leadInLength="0/1"  />
              <InterpolatingParam id="164" interp="linr"  time="0/1" value="0" leadInLength="0/1"  />
             </VectorParam>
             <VectorParam id="165"  name="geometryCrop">
              <InterpolatingParam id="166" interp="linr"  time="-9999999/1" value="0" leadInLength="0/1"  />
              <InterpolatingParam id="167" interp="linr"  time="-9999999/1" value="0" leadInLength="0/1"  />
              <InterpolatingParam id="168" interp="linr"  time="-9999999/1" value="0" leadInLength="0/1"  />
              <InterpolatingParam id="169" interp="linr"  time="-9999999/1" value="0" leadInLength="0/1"  />
             </VectorParam>
             <InterpolatingParam id="170" interp="linr"  time="-9999999/1" value="1" leadInLength="0/1"  name="opacity"/>
             <InterpolatingParam id="171" interp="linr"  time="0/1" value="0" leadInLength="0/1"  name="cursorOpacity"/>
             <InterpolatingParam id="172" interp="linr"  time="0/1" value="0" leadInLength="0/1"  name="cursorScale"/>
            </Parameters>
            <Attributes>
             <Attribute id="173" value="" name="ident"/>
            </Attributes>
            <MetaData>
             <entry key="AutoAppliedSmartFocus" val="False"/>
             <entry key="WinSubProjectDisplayName" val=""/>
            </MetaData>
            <ExtraData>
             <Entry key="ZoomPanBin">
              <ZoomPanBin id="174"  >
               <ZoomPanKeyframes>
                <ZoomPanKeyframe id="175" timeRangeEnd="-9999999/1" timeRangeDuration="0/1" interpolaterName="linr"  />
               </ZoomPanKeyframes>
              </ZoomPanBin>
             </Entry>
             <Entry key="CursorEffectBin">
              <CursorEffectBin id="176"  >
               <CursorEffectKeyframes>
               </CursorEffectKeyframes>
              </CursorEffectBin>
             </Entry>
            </ExtraData>
           </ScreenVMFile>
           <ScreenVMFile id="177" start="849" duration="102" scalar="1/1" mediaStart="855/1" mediaDuration="102/1" trackNumber="0" src="5" >
            <Transformer>
             <VectorParam id="178"  name="translation">
              <InterpolatingParam id="179" interp="linr"  time="-9999999/1" value="0" leadInLength="0/1"  />
              <InterpolatingParam id="180" interp="linr"  time="-9999999/1" value="0" leadInLength="0/1"  />
              <InterpolatingParam id="181" interp="linr"  time="-9999999/1" value="0" leadInLength="0/1"  />
             </VectorParam>
             <VectorParam id="182"  name="rotation">
              <InterpolatingParam id="183" interp="linr"  time="-9999999/1" value="0" leadInLength="0/1"  />
              <InterpolatingParam id="184" interp="linr"  time="-9999999/1" value="0" leadInLength="0/1"  />
              <InterpolatingParam id="185" interp="linr"  time="-9999999/1" value="0" leadInLength="0/1"  />
             </VectorParam>
             <VectorParam id="186"  name="shear">
              <InterpolatingParam id="187" interp="linr"  time="-9999999/1" value="0" leadInLength="0/1"  />
              <InterpolatingParam id="188" interp="linr"  time="-9999999/1" value="0" leadInLength="0/1"  />
              <InterpolatingParam id="189" interp="linr"  time="-9999999/1" value="0" leadInLength="0/1"  />
             </VectorParam>
             <VectorParam id="190"  name="scale">
              <InterpolatingParam id="191" interp="linr"  time="-9999999/1" value="1" leadInLength="0/1"  />
              <InterpolatingParam id="192" interp="linr"  time="-9999999/1" value="1" leadInLength="0/1"  />
              <InterpolatingParam id="193" interp="linr"  time="-9999999/1" value="1" leadInLength="0/1"  />
             </VectorParam>
             <VectorParam id="194"  name="anchor">
              <InterpolatingParam id="195" interp="linr"  time="0/1" value="0" leadInLength="0/1"  />
              <InterpolatingParam id="196" interp="linr"  time="0/1" value="0" leadInLength="0/1"  />
              <InterpolatingParam id="197" interp="linr"  time="0/1" value="0" leadInLength="0/1"  />
             </VectorParam>
            </Transformer>
            <Parameters>
             <VectorParam id="198"  name="sourceCrop">
              <InterpolatingParam id="199" interp="linr"  time="0/1" value="0" leadInLength="0/1"  />
              <InterpolatingParam id="200" interp="linr"  time="0/1" value="0" leadInLength="0/1"  />
              <InterpolatingParam id="201" interp="linr"  time="0/1" value="0" leadInLength="0/1"  />
              <InterpolatingParam id="202" interp="linr"  time="0/1" value="0" leadInLength="0/1"  />
             </VectorParam>
             <VectorParam id="203"  name="geometryCrop">
              <InterpolatingParam id="204" interp="linr"  time="-9999999/1" value="0" leadInLength="0/1"  />
              <InterpolatingParam id="205" interp="linr"  time="-9999999/1" value="0" leadInLength="0/1"  />
              <InterpolatingParam id="206" interp="linr"  time="-9999999/1" value="0" leadInLength="0/1"  />
              <InterpolatingParam id="207" interp="linr"  time="-9999999/1" value="0" leadInLength="0/1"  />
             </VectorParam>
             <InterpolatingParam id="208" interp="linr"  time="-9999999/1" value="1" leadInLength="0/1"  name="opacity"/>
             <InterpolatingParam id="209" interp="linr"  time="0/1" value="0" leadInLength="0/1"  name="cursorOpacity"/>
             <InterpolatingParam id="210" interp="linr"  time="0/1" value="0" leadInLength="0/1"  name="cursorScale"/>
            </Parameters>
            <Attributes>
             <Attribute id="211" value="" name="ident"/>
            </Attributes>
            <MetaData>
             <entry key="AutoAppliedSmartFocus" val="False"/>
             <entry key="WinSubProjectDisplayName" val=""/>
            </MetaData>
            <ExtraData>
             <Entry key="ZoomPanBin">
              <ZoomPanBin id="212"  >
               <ZoomPanKeyframes>
                <ZoomPanKeyframe id="213" timeRangeEnd="-9999999/1" timeRangeDuration="0/1" interpolaterName="linr"  />
               </ZoomPanKeyframes>
              </ZoomPanBin>
             </Entry>
             <Entry key="CursorEffectBin">
              <CursorEffectBin id="214"  >
               <CursorEffectKeyframes>
               </CursorEffectKeyframes>
              </CursorEffectBin>
             </Entry>
            </ExtraData>
           </ScreenVMFile>
           <ScreenVMFile id="215" start="951" duration="185" scalar="1/1" mediaStart="1925/1" mediaDuration="185/1" trackNumber="0" src="5" >
            <Transformer>
             <VectorParam id="216"  name="translation">
              <InterpolatingParam id="217" interp="linr"  time="-9999999/1" value="0" leadInLength="0/1"  />
              <InterpolatingParam id="218" interp="linr"  time="-9999999/1" value="0" leadInLength="0/1"  />
              <InterpolatingParam id="219" interp="linr"  time="-9999999/1" value="0" leadInLength="0/1"  />
             </VectorParam>
             <VectorParam id="220"  name="rotation">
              <InterpolatingParam id="221" interp="linr"  time="-9999999/1" value="0" leadInLength="0/1"  />
              <InterpolatingParam id="222" interp="linr"  time="-9999999/1" value="0" leadInLength="0/1"  />
              <InterpolatingParam id="223" interp="linr"  time="-9999999/1" value="0" leadInLength="0/1"  />
             </VectorParam>
             <VectorParam id="224"  name="shear">
              <InterpolatingParam id="225" interp="linr"  time="-9999999/1" value="0" leadInLength="0/1"  />
              <InterpolatingParam id="226" interp="linr"  time="-9999999/1" value="0" leadInLength="0/1"  />
              <InterpolatingParam id="227" interp="linr"  time="-9999999/1" value="0" leadInLength="0/1"  />
             </VectorParam>
             <VectorParam id="228"  name="scale">
              <InterpolatingParam id="229" interp="linr"  time="-9999999/1" value="1" leadInLength="0/1"  />
              <InterpolatingParam id="230" interp="linr"  time="-9999999/1" value="1" leadInLength="0/1"  />
              <InterpolatingParam id="231" interp="linr"  time="-9999999/1" value="1" leadInLength="0/1"  />
             </VectorParam>
             <VectorParam id="232"  name="anchor">
              <InterpolatingParam id="233" interp="linr"  time="0/1" value="0" leadInLength="0/1"  />
              <InterpolatingParam id="234" interp="linr"  time="0/1" value="0" leadInLength="0/1"  />
              <InterpolatingParam id="235" interp="linr"  time="0/1" value="0" leadInLength="0/1"  />
             </VectorParam>
            </Transformer>
            <Parameters>
             <VectorParam id="236"  name="sourceCrop">
              <InterpolatingParam id="237" interp="linr"  time="0/1" value="0" leadInLength="0/1"  />
              <InterpolatingParam id="238" interp="linr"  time="0/1" value="0" leadInLength="0/1"  />
              <InterpolatingParam id="239" interp="linr"  time="0/1" value="0" leadInLength="0/1"  />
              <InterpolatingParam id="240" interp="linr"  time="0/1" value="0" leadInLength="0/1"  />
             </VectorParam>
             <VectorParam id="241"  name="geometryCrop">
              <InterpolatingParam id="242" interp="linr"  time="-9999999/1" value="0" leadInLength="0/1"  />
              <InterpolatingParam id="243" interp="linr"  time="-9999999/1" value="0" leadInLength="0/1"  />
              <InterpolatingParam id="244" interp="linr"  time="-9999999/1" value="0" leadInLength="0/1"  />
              <InterpolatingParam id="245" interp="linr"  time="-9999999/1" value="0" leadInLength="0/1"  />
             </VectorParam>
             <InterpolatingParam id="246" interp="linr"  time="-9999999/1" value="1" leadInLength="0/1"  name="opacity"/>
             <InterpolatingParam id="247" interp="linr"  time="0/1" value="0" leadInLength="0/1"  name="cursorOpacity"/>
             <InterpolatingParam id="248" interp="linr"  time="0/1" value="0" leadInLength="0/1"  name="cursorScale"/>
            </Parameters>
            <Attributes>
             <Attribute id="249" value="" name="ident"/>
            </Attributes>
            <MetaData>
             <entry key="AutoAppliedSmartFocus" val="False"/>
             <entry key="WinSubProjectDisplayName" val=""/>
            </MetaData>
            <ExtraData>
             <Entry key="ZoomPanBin">
              <ZoomPanBin id="250"  >
               <ZoomPanKeyframes>
                <ZoomPanKeyframe id="251" timeRangeEnd="-9999999/1" timeRangeDuration="0/1" interpolaterName="linr"  />
               </ZoomPanKeyframes>
              </ZoomPanBin>
             </Entry>
             <Entry key="CursorEffectBin">
              <CursorEffectBin id="252"  >
               <CursorEffectKeyframes>
               </CursorEffectKeyframes>
              </CursorEffectBin>
             </Entry>
            </ExtraData>
           </ScreenVMFile>
           <ScreenVMFile id="253" start="1136" duration="159" scalar="1/1" mediaStart="2158/1" mediaDuration="159/1" trackNumber="0" src="5" >
            <Transformer>
             <VectorParam id="254"  name="translation">
              <InterpolatingParam id="255" interp="linr"  time="-9999999/1" value="0" leadInLength="0/1"  />
              <InterpolatingParam id="256" interp="linr"  time="-9999999/1" value="0" leadInLength="0/1"  />
              <InterpolatingParam id="257" interp="linr"  time="-9999999/1" value="0" leadInLength="0/1"  />
             </VectorParam>
             <VectorParam id="258"  name="rotation">
              <InterpolatingParam id="259" interp="linr"  time="-9999999/1" value="0" leadInLength="0/1"  />
              <InterpolatingParam id="260" interp="linr"  time="-9999999/1" value="0" leadInLength="0/1"  />
              <InterpolatingParam id="261" interp="linr"  time="-9999999/1" value="0" leadInLength="0/1"  />
             </VectorParam>
             <VectorParam id="262"  name="shear">
              <InterpolatingParam id="263" interp="linr"  time="-9999999/1" value="0" leadInLength="0/1"  />
              <InterpolatingParam id="264" interp="linr"  time="-9999999/1" value="0" leadInLength="0/1"  />
              <InterpolatingParam id="265" interp="linr"  time="-9999999/1" value="0" leadInLength="0/1"  />
             </VectorParam>
             <VectorParam id="266"  name="scale">
              <InterpolatingParam id="267" interp="linr"  time="-9999999/1" value="1" leadInLength="0/1"  />
              <InterpolatingParam id="268" interp="linr"  time="-9999999/1" value="1" leadInLength="0/1"  />
              <InterpolatingParam id="269" interp="linr"  time="-9999999/1" value="1" leadInLength="0/1"  />
             </VectorParam>
             <VectorParam id="270"  name="anchor">
              <InterpolatingParam id="271" interp="linr"  time="0/1" value="0" leadInLength="0/1"  />
              <InterpolatingParam id="272" interp="linr"  time="0/1" value="0" leadInLength="0/1"  />
              <InterpolatingParam id="273" interp="linr"  time="0/1" value="0" leadInLength="0/1"  />
             </VectorParam>
            </Transformer>
            <Parameters>
             <VectorParam id="274"  name="sourceCrop">
              <InterpolatingParam id="275" interp="linr"  time="0/1" value="0" leadInLength="0/1"  />
              <InterpolatingParam id="276" interp="linr"  time="0/1" value="0" leadInLength="0/1"  />
              <InterpolatingParam id="277" interp="linr"  time="0/1" value="0" leadInLength="0/1"  />
              <InterpolatingParam id="278" interp="linr"  time="0/1" value="0" leadInLength="0/1"  />
             </VectorParam>
             <VectorParam id="279"  name="geometryCrop">
              <InterpolatingParam id="280" interp="linr"  time="-9999999/1" value="0" leadInLength="0/1"  />
              <InterpolatingParam id="281" interp="linr"  time="-9999999/1" value="0" leadInLength="0/1"  />
              <InterpolatingParam id="282" interp="linr"  time="-9999999/1" value="0" leadInLength="0/1"  />
              <InterpolatingParam id="283" interp="linr"  time="-9999999/1" value="0" leadInLength="0/1"  />
             </VectorParam>
             <InterpolatingParam id="284" interp="linr"  time="-9999999/1" value="1" leadInLength="0/1"  name="opacity"/>
             <InterpolatingParam id="285" interp="linr"  time="0/1" value="0" leadInLength="0/1"  name="cursorOpacity"/>
             <InterpolatingParam id="286" interp="linr"  time="0/1" value="0" leadInLength="0/1"  name="cursorScale"/>
            </Parameters>
            <Attributes>
             <Attribute id="287" value="" name="ident"/>
            </Attributes>
            <MetaData>
             <entry key="AutoAppliedSmartFocus" val="False"/>
             <entry key="WinSubProjectDisplayName" val=""/>
            </MetaData>
            <ExtraData>
             <Entry key="ZoomPanBin">
              <ZoomPanBin id="288"  >
               <ZoomPanKeyframes>
                <ZoomPanKeyframe id="289" timeRangeEnd="-9999999/1" timeRangeDuration="0/1" interpolaterName="linr"  />
               </ZoomPanKeyframes>
              </ZoomPanBin>
             </Entry>
             <Entry key="CursorEffectBin">
              <CursorEffectBin id="290"  >
               <CursorEffectKeyframes>
               </CursorEffectKeyframes>
              </CursorEffectBin>
             </Entry>
            </ExtraData>
           </ScreenVMFile>
           <ScreenVMFile id="291" start="1295" duration="1" scalar="1/1" mediaStart="2421/1" mediaDuration="1/1" trackNumber="0" src="5" >
            <Transformer>
             <VectorParam id="292"  name="translation">
              <InterpolatingParam id="293" interp="linr"  time="-9999999/1" value="0" leadInLength="0/1"  />
              <InterpolatingParam id="294" interp="linr"  time="-9999999/1" value="0" leadInLength="0/1"  />
              <InterpolatingParam id="295" interp="linr"  time="-9999999/1" value="0" leadInLength="0/1"  />
             </VectorParam>
             <VectorParam id="296"  name="rotation">
              <InterpolatingParam id="297" interp="linr"  time="-9999999/1" value="0" leadInLength="0/1"  />
              <InterpolatingParam id="298" interp="linr"  time="-9999999/1" value="0" leadInLength="0/1"  />
              <InterpolatingParam id="299" interp="linr"  time="-9999999/1" value="0" leadInLength="0/1"  />
             </VectorParam>
             <VectorParam id="300"  name="shear">
              <InterpolatingParam id="301" interp="linr"  time="-9999999/1" value="0" leadInLength="0/1"  />
              <InterpolatingParam id="302" interp="linr"  time="-9999999/1" value="0" leadInLength="0/1"  />
              <InterpolatingParam id="303" interp="linr"  time="-9999999/1" value="0" leadInLength="0/1"  />
             </VectorParam>
             <VectorParam id="304"  name="scale">
              <InterpolatingParam id="305" interp="linr"  time="-9999999/1" value="1" leadInLength="0/1"  />
              <InterpolatingParam id="306" interp="linr"  time="-9999999/1" value="1" leadInLength="0/1"  />
              <InterpolatingParam id="307" interp="linr"  time="-9999999/1" value="1" leadInLength="0/1"  />
             </VectorParam>
             <VectorParam id="308"  name="anchor">
              <InterpolatingParam id="309" interp="linr"  time="0/1" value="0" leadInLength="0/1"  />
              <InterpolatingParam id="310" interp="linr"  time="0/1" value="0" leadInLength="0/1"  />
              <InterpolatingParam id="311" interp="linr"  time="0/1" value="0" leadInLength="0/1"  />
             </VectorParam>
            </Transformer>
            <Parameters>
             <VectorParam id="312"  name="sourceCrop">
              <InterpolatingParam id="313" interp="linr"  time="0/1" value="0" leadInLength="0/1"  />
              <InterpolatingParam id="314" interp="linr"  time="0/1" value="0" leadInLength="0/1"  />
              <InterpolatingParam id="315" interp="linr"  time="0/1" value="0" leadInLength="0/1"  />
              <InterpolatingParam id="316" interp="linr"  time="0/1" value="0" leadInLength="0/1"  />
             </VectorParam>
             <VectorParam id="317"  name="geometryCrop">
              <InterpolatingParam id="318" interp="linr"  time="-9999999/1" value="0" leadInLength="0/1"  />
              <InterpolatingParam id="319" interp="linr"  time="-9999999/1" value="0" leadInLength="0/1"  />
              <InterpolatingParam id="320" interp="linr"  time="-9999999/1" value="0" leadInLength="0/1"  />
              <InterpolatingParam id="321" interp="linr"  time="-9999999/1" value="0" leadInLength="0/1"  />
             </VectorParam>
             <InterpolatingParam id="322" interp="linr"  time="-9999999/1" value="1" leadInLength="0/1"  name="opacity"/>
             <InterpolatingParam id="323" interp="linr"  time="0/1" value="0" leadInLength="0/1"  name="cursorOpacity"/>
             <InterpolatingParam id="324" interp="linr"  time="0/1" value="0" leadInLength="0/1"  name="cursorScale"/>
            </Parameters>
            <Attributes>
             <Attribute id="325" value="" name="ident"/>
            </Attributes>
            <MetaData>
             <entry key="AutoAppliedSmartFocus" val="False"/>
             <entry key="WinSubProjectDisplayName" val=""/>
            </MetaData>
            <ExtraData>
             <Entry key="ZoomPanBin">
              <ZoomPanBin id="326"  >
               <ZoomPanKeyframes>
                <ZoomPanKeyframe id="327" timeRangeEnd="-9999999/1" timeRangeDuration="0/1" interpolaterName="linr"  />
               </ZoomPanKeyframes>
              </ZoomPanBin>
             </Entry>
             <Entry key="CursorEffectBin">
              <CursorEffectBin id="328"  >
               <CursorEffectKeyframes>
               </CursorEffectKeyframes>
              </CursorEffectBin>
             </Entry>
            </ExtraData>
           </ScreenVMFile>
           <ScreenVMFile id="329" start="1296" duration="3" scalar="1/1" mediaStart="2477/1" mediaDuration="3/1" trackNumber="0" src="5" >
            <Transformer>
             <VectorParam id="330"  name="translation">
              <InterpolatingParam id="331" interp="linr"  time="-9999999/1" value="0" leadInLength="0/1"  />
              <InterpolatingParam id="332" interp="linr"  time="-9999999/1" value="0" leadInLength="0/1"  />
              <InterpolatingParam id="333" interp="linr"  time="-9999999/1" value="0" leadInLength="0/1"  />
             </VectorParam>
             <VectorParam id="334"  name="rotation">
              <InterpolatingParam id="335" interp="linr"  time="-9999999/1" value="0" leadInLength="0/1"  />
              <InterpolatingParam id="336" interp="linr"  time="-9999999/1" value="0" leadInLength="0/1"  />
              <InterpolatingParam id="337" interp="linr"  time="-9999999/1" value="0" leadInLength="0/1"  />
             </VectorParam>
             <VectorParam id="338"  name="shear">
              <InterpolatingParam id="339" interp="linr"  time="-9999999/1" value="0" leadInLength="0/1"  />
              <InterpolatingParam id="340" interp="linr"  time="-9999999/1" value="0" leadInLength="0/1"  />
              <InterpolatingParam id="341" interp="linr"  time="-9999999/1" value="0" leadInLength="0/1"  />
             </VectorParam>
             <VectorParam id="342"  name="scale">
              <InterpolatingParam id="343" interp="linr"  time="-9999999/1" value="1" leadInLength="0/1"  />
              <InterpolatingParam id="344" interp="linr"  time="-9999999/1" value="1" leadInLength="0/1"  />
              <InterpolatingParam id="345" interp="linr"  time="-9999999/1" value="1" leadInLength="0/1"  />
             </VectorParam>
             <VectorParam id="346"  name="anchor">
              <InterpolatingParam id="347" interp="linr"  time="0/1" value="0" leadInLength="0/1"  />
              <InterpolatingParam id="348" interp="linr"  time="0/1" value="0" leadInLength="0/1"  />
              <InterpolatingParam id="349" interp="linr"  time="0/1" value="0" leadInLength="0/1"  />
             </VectorParam>
            </Transformer>
            <Parameters>
             <VectorParam id="350"  name="sourceCrop">
              <InterpolatingParam id="351" interp="linr"  time="0/1" value="0" leadInLength="0/1"  />
              <InterpolatingParam id="352" interp="linr"  time="0/1" value="0" leadInLength="0/1"  />
              <InterpolatingParam id="353" interp="linr"  time="0/1" value="0" leadInLength="0/1"  />
              <InterpolatingParam id="354" interp="linr"  time="0/1" value="0" leadInLength="0/1"  />
             </VectorParam>
             <VectorParam id="355"  name="geometryCrop">
              <InterpolatingParam id="356" interp="linr"  time="-9999999/1" value="0" leadInLength="0/1"  />
              <InterpolatingParam id="357" interp="linr"  time="-9999999/1" value="0" leadInLength="0/1"  />
              <InterpolatingParam id="358" interp="linr"  time="-9999999/1" value="0" leadInLength="0/1"  />
              <InterpolatingParam id="359" interp="linr"  time="-9999999/1" value="0" leadInLength="0/1"  />
             </VectorParam>
             <InterpolatingParam id="360" interp="linr"  time="-9999999/1" value="1" leadInLength="0/1"  name="opacity"/>
             <InterpolatingParam id="361" interp="linr"  time="0/1" value="0" leadInLength="0/1"  name="cursorOpacity"/>
             <InterpolatingParam id="362" interp="linr"  time="0/1" value="0" leadInLength="0/1"  name="cursorScale"/>
            </Parameters>
            <Attributes>
             <Attribute id="363" value="" name="ident"/>
            </Attributes>
            <MetaData>
             <entry key="AutoAppliedSmartFocus" val="False"/>
             <entry key="WinSubProjectDisplayName" val=""/>
            </MetaData>
            <ExtraData>
             <Entry key="ZoomPanBin">
              <ZoomPanBin id="364"  >
               <ZoomPanKeyframes>
                <ZoomPanKeyframe id="365" timeRangeEnd="-9999999/1" timeRangeDuration="0/1" interpolaterName="linr"  />
               </ZoomPanKeyframes>
              </ZoomPanBin>
             </Entry>
             <Entry key="CursorEffectBin">
              <CursorEffectBin id="366"  >
               <CursorEffectKeyframes>
               </CursorEffectKeyframes>
              </CursorEffectBin>
             </Entry>
            </ExtraData>
           </ScreenVMFile>
           <ScreenVMFile id="367" start="1299" duration="6" scalar="1/1" mediaStart="6640/1" mediaDuration="6/1" trackNumber="0" src="5" >
            <Transformer>
             <VectorParam id="368"  name="translation">
              <InterpolatingParam id="369" interp="linr"  time="-9999999/1" value="0" leadInLength="0/1"  />
              <InterpolatingParam id="370" interp="linr"  time="-9999999/1" value="0" leadInLength="0/1"  />
              <InterpolatingParam id="371" interp="linr"  time="-9999999/1" value="0" leadInLength="0/1"  />
             </VectorParam>
             <VectorParam id="372"  name="rotation">
              <InterpolatingParam id="373" interp="linr"  time="-9999999/1" value="0" leadInLength="0/1"  />
              <InterpolatingParam id="374" interp="linr"  time="-9999999/1" value="0" leadInLength="0/1"  />
              <InterpolatingParam id="375" interp="linr"  time="-9999999/1" value="0" leadInLength="0/1"  />
             </VectorParam>
             <VectorParam id="376"  name="shear">
              <InterpolatingParam id="377" interp="linr"  time="-9999999/1" value="0" leadInLength="0/1"  />
              <InterpolatingParam id="378" interp="linr"  time="-9999999/1" value="0" leadInLength="0/1"  />
              <InterpolatingParam id="379" interp="linr"  time="-9999999/1" value="0" leadInLength="0/1"  />
             </VectorParam>
             <VectorParam id="380"  name="scale">
              <InterpolatingParam id="381" interp="linr"  time="-9999999/1" value="1" leadInLength="0/1"  />
              <InterpolatingParam id="382" interp="linr"  time="-9999999/1" value="1" leadInLength="0/1"  />
              <InterpolatingParam id="383" interp="linr"  time="-9999999/1" value="1" leadInLength="0/1"  />
             </VectorParam>
             <VectorParam id="384"  name="anchor">
              <InterpolatingParam id="385" interp="linr"  time="0/1" value="0" leadInLength="0/1"  />
              <InterpolatingParam id="386" interp="linr"  time="0/1" value="0" leadInLength="0/1"  />
              <InterpolatingParam id="387" interp="linr"  time="0/1" value="0" leadInLength="0/1"  />
             </VectorParam>
            </Transformer>
            <Parameters>
             <VectorParam id="388"  name="sourceCrop">
              <InterpolatingParam id="389" interp="linr"  time="0/1" value="0" leadInLength="0/1"  />
              <InterpolatingParam id="390" interp="linr"  time="0/1" value="0" leadInLength="0/1"  />
              <InterpolatingParam id="391" interp="linr"  time="0/1" value="0" leadInLength="0/1"  />
              <InterpolatingParam id="392" interp="linr"  time="0/1" value="0" leadInLength="0/1"  />
             </VectorParam>
             <VectorParam id="393"  name="geometryCrop">
              <InterpolatingParam id="394" interp="linr"  time="-9999999/1" value="0" leadInLength="0/1"  />
              <InterpolatingParam id="395" interp="linr"  time="-9999999/1" value="0" leadInLength="0/1"  />
              <InterpolatingParam id="396" interp="linr"  time="-9999999/1" value="0" leadInLength="0/1"  />
              <InterpolatingParam id="397" interp="linr"  time="-9999999/1" value="0" leadInLength="0/1"  />
             </VectorParam>
             <InterpolatingParam id="398" interp="linr"  time="-9999999/1" value="1" leadInLength="0/1"  name="opacity"/>
             <InterpolatingParam id="399" interp="linr"  time="0/1" value="0" leadInLength="0/1"  name="cursorOpacity"/>
             <InterpolatingParam id="400" interp="linr"  time="0/1" value="0" leadInLength="0/1"  name="cursorScale"/>
            </Parameters>
            <Attributes>
             <Attribute id="401" value="" name="ident"/>
            </Attributes>
            <MetaData>
             <entry key="AutoAppliedSmartFocus" val="False"/>
             <entry key="WinSubProjectDisplayName" val=""/>
            </MetaData>
            <ExtraData>
             <Entry key="ZoomPanBin">
              <ZoomPanBin id="402"  >
               <ZoomPanKeyframes>
                <ZoomPanKeyframe id="403" timeRangeEnd="-9999999/1" timeRangeDuration="0/1" interpolaterName="linr"  />
               </ZoomPanKeyframes>
              </ZoomPanBin>
             </Entry>
             <Entry key="CursorEffectBin">
              <CursorEffectBin id="404"  >
               <CursorEffectKeyframes>
               </CursorEffectKeyframes>
              </CursorEffectBin>
             </Entry>
            </ExtraData>
           </ScreenVMFile>
           <ScreenVMFile id="405" start="1305" duration="80" scalar="1/1" mediaStart="6654/1" mediaDuration="80/1" trackNumber="0" src="5" >
            <Transformer>
             <VectorParam id="406"  name="translation">
              <InterpolatingParam id="407" interp="linr"  time="-9999999/1" value="0" leadInLength="0/1"  />
              <InterpolatingParam id="408" interp="linr"  time="-9999999/1" value="0" leadInLength="0/1"  />
              <InterpolatingParam id="409" interp="linr"  time="-9999999/1" value="0" leadInLength="0/1"  />
             </VectorParam>
             <VectorParam id="410"  name="rotation">
              <InterpolatingParam id="411" interp="linr"  time="-9999999/1" value="0" leadInLength="0/1"  />
              <InterpolatingParam id="412" interp="linr"  time="-9999999/1" value="0" leadInLength="0/1"  />
              <InterpolatingParam id="413" interp="linr"  time="-9999999/1" value="0" leadInLength="0/1"  />
             </VectorParam>
             <VectorParam id="414"  name="shear">
              <InterpolatingParam id="415" interp="linr"  time="-9999999/1" value="0" leadInLength="0/1"  />
              <InterpolatingParam id="416" interp="linr"  time="-9999999/1" value="0" leadInLength="0/1"  />
              <InterpolatingParam id="417" interp="linr"  time="-9999999/1" value="0" leadInLength="0/1"  />
             </VectorParam>
             <VectorParam id="418"  name="scale">
              <InterpolatingParam id="419" interp="linr"  time="-9999999/1" value="1" leadInLength="0/1"  />
              <InterpolatingParam id="420" interp="linr"  time="-9999999/1" value="1" leadInLength="0/1"  />
              <InterpolatingParam id="421" interp="linr"  time="-9999999/1" value="1" leadInLength="0/1"  />
             </VectorParam>
             <VectorParam id="422"  name="anchor">
              <InterpolatingParam id="423" interp="linr"  time="0/1" value="0" leadInLength="0/1"  />
              <InterpolatingParam id="424" interp="linr"  time="0/1" value="0" leadInLength="0/1"  />
              <InterpolatingParam id="425" interp="linr"  time="0/1" value="0" leadInLength="0/1"  />
             </VectorParam>
            </Transformer>
            <Parameters>
             <VectorParam id="426"  name="sourceCrop">
              <InterpolatingParam id="427" interp="linr"  time="0/1" value="0" leadInLength="0/1"  />
              <InterpolatingParam id="428" interp="linr"  time="0/1" value="0" leadInLength="0/1"  />
              <InterpolatingParam id="429" interp="linr"  time="0/1" value="0" leadInLength="0/1"  />
              <InterpolatingParam id="430" interp="linr"  time="0/1" value="0" leadInLength="0/1"  />
             </VectorParam>
             <VectorParam id="431"  name="geometryCrop">
              <InterpolatingParam id="432" interp="linr"  time="-9999999/1" value="0" leadInLength="0/1"  />
              <InterpolatingParam id="433" interp="linr"  time="-9999999/1" value="0" leadInLength="0/1"  />
              <InterpolatingParam id="434" interp="linr"  time="-9999999/1" value="0" leadInLength="0/1"  />
              <InterpolatingParam id="435" interp="linr"  time="-9999999/1" value="0" leadInLength="0/1"  />
             </VectorParam>
             <InterpolatingParam id="436" interp="linr"  time="-9999999/1" value="1" leadInLength="0/1"  name="opacity"/>
             <InterpolatingParam id="437" interp="linr"  time="0/1" value="0" leadInLength="0/1"  name="cursorOpacity"/>
             <InterpolatingParam id="438" interp="linr"  time="0/1" value="0" leadInLength="0/1"  name="cursorScale"/>
            </Parameters>
            <Attributes>
             <Attribute id="439" value="" name="ident"/>
            </Attributes>
            <MetaData>
             <entry key="AutoAppliedSmartFocus" val="False"/>
             <entry key="WinSubProjectDisplayName" val=""/>
            </MetaData>
            <ExtraData>
             <Entry key="ZoomPanBin">
              <ZoomPanBin id="440"  >
               <ZoomPanKeyframes>
                <ZoomPanKeyframe id="441" timeRangeEnd="-9999999/1" timeRangeDuration="0/1" interpolaterName="linr"  />
               </ZoomPanKeyframes>
              </ZoomPanBin>
             </Entry>
             <Entry key="CursorEffectBin">
              <CursorEffectBin id="442"  >
               <CursorEffectKeyframes>
               </CursorEffectKeyframes>
              </CursorEffectBin>
             </Entry>
            </ExtraData>
           </ScreenVMFile>
           <ScreenVMFile id="443" start="1385" duration="73" scalar="1/1" mediaStart="6745/1" mediaDuration="73/1" trackNumber="0" src="5" >
            <Transformer>
             <VectorParam id="444"  name="translation">
              <InterpolatingParam id="445" interp="linr"  time="-9999999/1" value="0" leadInLength="0/1"  />
              <InterpolatingParam id="446" interp="linr"  time="-9999999/1" value="0" leadInLength="0/1"  />
              <InterpolatingParam id="447" interp="linr"  time="-9999999/1" value="0" leadInLength="0/1"  />
             </VectorParam>
             <VectorParam id="448"  name="rotation">
              <InterpolatingParam id="449" interp="linr"  time="-9999999/1" value="0" leadInLength="0/1"  />
              <InterpolatingParam id="450" interp="linr"  time="-9999999/1" value="0" leadInLength="0/1"  />
              <InterpolatingParam id="451" interp="linr"  time="-9999999/1" value="0" leadInLength="0/1"  />
             </VectorParam>
             <VectorParam id="452"  name="shear">
              <InterpolatingParam id="453" interp="linr"  time="-9999999/1" value="0" leadInLength="0/1"  />
              <InterpolatingParam id="454" interp="linr"  time="-9999999/1" value="0" leadInLength="0/1"  />
              <InterpolatingParam id="455" interp="linr"  time="-9999999/1" value="0" leadInLength="0/1"  />
             </VectorParam>
             <VectorParam id="456"  name="scale">
              <InterpolatingParam id="457" interp="linr"  time="-9999999/1" value="1" leadInLength="0/1"  />
              <InterpolatingParam id="458" interp="linr"  time="-9999999/1" value="1" leadInLength="0/1"  />
              <InterpolatingParam id="459" interp="linr"  time="-9999999/1" value="1" leadInLength="0/1"  />
             </VectorParam>
             <VectorParam id="460"  name="anchor">
              <InterpolatingParam id="461" interp="linr"  time="0/1" value="0" leadInLength="0/1"  />
              <InterpolatingParam id="462" interp="linr"  time="0/1" value="0" leadInLength="0/1"  />
              <InterpolatingParam id="463" interp="linr"  time="0/1" value="0" leadInLength="0/1"  />
             </VectorParam>
            </Transformer>
            <Parameters>
             <VectorParam id="464"  name="sourceCrop">
              <InterpolatingParam id="465" interp="linr"  time="0/1" value="0" leadInLength="0/1"  />
              <InterpolatingParam id="466" interp="linr"  time="0/1" value="0" leadInLength="0/1"  />
              <InterpolatingParam id="467" interp="linr"  time="0/1" value="0" leadInLength="0/1"  />
              <InterpolatingParam id="468" interp="linr"  time="0/1" value="0" leadInLength="0/1"  />
             </VectorParam>
             <VectorParam id="469"  name="geometryCrop">
              <InterpolatingParam id="470" interp="linr"  time="-9999999/1" value="0" leadInLength="0/1"  />
              <InterpolatingParam id="471" interp="linr"  time="-9999999/1" value="0" leadInLength="0/1"  />
              <InterpolatingParam id="472" interp="linr"  time="-9999999/1" value="0" leadInLength="0/1"  />
              <InterpolatingParam id="473" interp="linr"  time="-9999999/1" value="0" leadInLength="0/1"  />
             </VectorParam>
             <InterpolatingParam id="474" interp="linr"  time="-9999999/1" value="1" leadInLength="0/1"  name="opacity"/>
             <InterpolatingParam id="475" interp="linr"  time="0/1" value="0" leadInLength="0/1"  name="cursorOpacity"/>
             <InterpolatingParam id="476" interp="linr"  time="0/1" value="0" leadInLength="0/1"  name="cursorScale"/>
            </Parameters>
            <Attributes>
             <Attribute id="477" value="" name="ident"/>
            </Attributes>
            <MetaData>
             <entry key="AutoAppliedSmartFocus" val="False"/>
             <entry key="WinSubProjectDisplayName" val=""/>
            </MetaData>
            <ExtraData>
             <Entry key="ZoomPanBin">
              <ZoomPanBin id="478"  >
               <ZoomPanKeyframes>
                <ZoomPanKeyframe id="479" timeRangeEnd="-9999999/1" timeRangeDuration="0/1" interpolaterName="linr"  />
               </ZoomPanKeyframes>
              </ZoomPanBin>
             </Entry>
             <Entry key="CursorEffectBin">
              <CursorEffectBin id="480"  >
               <CursorEffectKeyframes>
               </CursorEffectKeyframes>
              </CursorEffectBin>
             </Entry>
            </ExtraData>
           </ScreenVMFile>
           <ScreenVMFile id="481" start="1458" duration="51" scalar="1/1" mediaStart="6830/1" mediaDuration="51/1" trackNumber="0" src="5" >
            <Transformer>
             <VectorParam id="482"  name="translation">
              <InterpolatingParam id="483" interp="linr"  time="-9999999/1" value="0" leadInLength="0/1"  />
              <InterpolatingParam id="484" interp="linr"  time="-9999999/1" value="0" leadInLength="0/1"  />
              <InterpolatingParam id="485" interp="linr"  time="-9999999/1" value="0" leadInLength="0/1"  />
             </VectorParam>
             <VectorParam id="486"  name="rotation">
              <InterpolatingParam id="487" interp="linr"  time="-9999999/1" value="0" leadInLength="0/1"  />
              <InterpolatingParam id="488" interp="linr"  time="-9999999/1" value="0" leadInLength="0/1"  />
              <InterpolatingParam id="489" interp="linr"  time="-9999999/1" value="0" leadInLength="0/1"  />
             </VectorParam>
             <VectorParam id="490"  name="shear">
              <InterpolatingParam id="491" interp="linr"  time="-9999999/1" value="0" leadInLength="0/1"  />
              <InterpolatingParam id="492" interp="linr"  time="-9999999/1" value="0" leadInLength="0/1"  />
              <InterpolatingParam id="493" interp="linr"  time="-9999999/1" value="0" leadInLength="0/1"  />
             </VectorParam>
             <VectorParam id="494"  name="scale">
              <InterpolatingParam id="495" interp="linr"  time="-9999999/1" value="1" leadInLength="0/1"  />
              <InterpolatingParam id="496" interp="linr"  time="-9999999/1" value="1" leadInLength="0/1"  />
              <InterpolatingParam id="497" interp="linr"  time="-9999999/1" value="1" leadInLength="0/1"  />
             </VectorParam>
             <VectorParam id="498"  name="anchor">
              <InterpolatingParam id="499" interp="linr"  time="0/1" value="0" leadInLength="0/1"  />
              <InterpolatingParam id="500" interp="linr"  time="0/1" value="0" leadInLength="0/1"  />
              <InterpolatingParam id="501" interp="linr"  time="0/1" value="0" leadInLength="0/1"  />
             </VectorParam>
            </Transformer>
            <Parameters>
             <VectorParam id="502"  name="sourceCrop">
              <InterpolatingParam id="503" interp="linr"  time="0/1" value="0" leadInLength="0/1"  />
              <InterpolatingParam id="504" interp="linr"  time="0/1" value="0" leadInLength="0/1"  />
              <InterpolatingParam id="505" interp="linr"  time="0/1" value="0" leadInLength="0/1"  />
              <InterpolatingParam id="506" interp="linr"  time="0/1" value="0" leadInLength="0/1"  />
             </VectorParam>
             <VectorParam id="507"  name="geometryCrop">
              <InterpolatingParam id="508" interp="linr"  time="-9999999/1" value="0" leadInLength="0/1"  />
              <InterpolatingParam id="509" interp="linr"  time="-9999999/1" value="0" leadInLength="0/1"  />
              <InterpolatingParam id="510" interp="linr"  time="-9999999/1" value="0" leadInLength="0/1"  />
              <InterpolatingParam id="511" interp="linr"  time="-9999999/1" value="0" leadInLength="0/1"  />
             </VectorParam>
             <InterpolatingParam id="512" interp="linr"  time="-9999999/1" value="1" leadInLength="0/1"  name="opacity"/>
             <InterpolatingParam id="513" interp="linr"  time="0/1" value="0" leadInLength="0/1"  name="cursorOpacity"/>
             <InterpolatingParam id="514" interp="linr"  time="0/1" value="0" leadInLength="0/1"  name="cursorScale"/>
            </Parameters>
            <Attributes>
             <Attribute id="515" value="" name="ident"/>
            </Attributes>
            <MetaData>
             <entry key="AutoAppliedSmartFocus" val="False"/>
             <entry key="WinSubProjectDisplayName" val=""/>
            </MetaData>
            <ExtraData>
             <Entry key="ZoomPanBin">
              <ZoomPanBin id="516"  >
               <ZoomPanKeyframes>
                <ZoomPanKeyframe id="517" timeRangeEnd="-9999999/1" timeRangeDuration="0/1" interpolaterName="linr"  />
               </ZoomPanKeyframes>
              </ZoomPanBin>
             </Entry>
             <Entry key="CursorEffectBin">
              <CursorEffectBin id="518"  >
               <CursorEffectKeyframes>
               </CursorEffectKeyframes>
              </CursorEffectBin>
             </Entry>
            </ExtraData>
           </ScreenVMFile>
           <ScreenVMFile id="519" start="1509" duration="47" scalar="1/1" mediaStart="6891/1" mediaDuration="47/1" trackNumber="0" src="5" >
            <Transformer>
             <VectorParam id="520"  name="translation">
              <InterpolatingParam id="521" interp="linr"  time="-9999999/1" value="0" leadInLength="0/1"  />
              <InterpolatingParam id="522" interp="linr"  time="-9999999/1" value="0" leadInLength="0/1"  />
              <InterpolatingParam id="523" interp="linr"  time="-9999999/1" value="0" leadInLength="0/1"  />
             </VectorParam>
             <VectorParam id="524"  name="rotation">
              <InterpolatingParam id="525" interp="linr"  time="-9999999/1" value="0" leadInLength="0/1"  />
              <InterpolatingParam id="526" interp="linr"  time="-9999999/1" value="0" leadInLength="0/1"  />
              <InterpolatingParam id="527" interp="linr"  time="-9999999/1" value="0" leadInLength="0/1"  />
             </VectorParam>
             <VectorParam id="528"  name="shear">
              <InterpolatingParam id="529" interp="linr"  time="-9999999/1" value="0" leadInLength="0/1"  />
              <InterpolatingParam id="530" interp="linr"  time="-9999999/1" value="0" leadInLength="0/1"  />
              <InterpolatingParam id="531" interp="linr"  time="-9999999/1" value="0" leadInLength="0/1"  />
             </VectorParam>
             <VectorParam id="532"  name="scale">
              <InterpolatingParam id="533" interp="linr"  time="-9999999/1" value="1" leadInLength="0/1"  />
              <InterpolatingParam id="534" interp="linr"  time="-9999999/1" value="1" leadInLength="0/1"  />
              <InterpolatingParam id="535" interp="linr"  time="-9999999/1" value="1" leadInLength="0/1"  />
             </VectorParam>
             <VectorParam id="536"  name="anchor">
              <InterpolatingParam id="537" interp="linr"  time="0/1" value="0" leadInLength="0/1"  />
              <InterpolatingParam id="538" interp="linr"  time="0/1" value="0" leadInLength="0/1"  />
              <InterpolatingParam id="539" interp="linr"  time="0/1" value="0" leadInLength="0/1"  />
             </VectorParam>
            </Transformer>
            <Parameters>
             <VectorParam id="540"  name="sourceCrop">
              <InterpolatingParam id="541" interp="linr"  time="0/1" value="0" leadInLength="0/1"  />
              <InterpolatingParam id="542" interp="linr"  time="0/1" value="0" leadInLength="0/1"  />
              <InterpolatingParam id="543" interp="linr"  time="0/1" value="0" leadInLength="0/1"  />
              <InterpolatingParam id="544" interp="linr"  time="0/1" value="0" leadInLength="0/1"  />
             </VectorParam>
             <VectorParam id="545"  name="geometryCrop">
              <InterpolatingParam id="546" interp="linr"  time="-9999999/1" value="0" leadInLength="0/1"  />
              <InterpolatingParam id="547" interp="linr"  time="-9999999/1" value="0" leadInLength="0/1"  />
              <InterpolatingParam id="548" interp="linr"  time="-9999999/1" value="0" leadInLength="0/1"  />
              <InterpolatingParam id="549" interp="linr"  time="-9999999/1" value="0" leadInLength="0/1"  />
             </VectorParam>
             <InterpolatingParam id="550" interp="linr"  time="-9999999/1" value="1" leadInLength="0/1"  name="opacity"/>
             <InterpolatingParam id="551" interp="linr"  time="0/1" value="0" leadInLength="0/1"  name="cursorOpacity"/>
             <InterpolatingParam id="552" interp="linr"  time="0/1" value="0" leadInLength="0/1"  name="cursorScale"/>
            </Parameters>
            <Attributes>
             <Attribute id="553" value="" name="ident"/>
            </Attributes>
            <MetaData>
             <entry key="AutoAppliedSmartFocus" val="False"/>
             <entry key="WinSubProjectDisplayName" val=""/>
            </MetaData>
            <ExtraData>
             <Entry key="ZoomPanBin">
              <ZoomPanBin id="554"  >
               <ZoomPanKeyframes>
                <ZoomPanKeyframe id="555" timeRangeEnd="-9999999/1" timeRangeDuration="0/1" interpolaterName="linr"  />
               </ZoomPanKeyframes>
              </ZoomPanBin>
             </Entry>
             <Entry key="CursorEffectBin">
              <CursorEffectBin id="556"  >
               <CursorEffectKeyframes>
               </CursorEffectKeyframes>
              </CursorEffectBin>
             </Entry>
            </ExtraData>
           </ScreenVMFile>
           <ScreenVMFile id="557" start="1556" duration="55" scalar="1/1" mediaStart="7253/1" mediaDuration="55/1" trackNumber="0" src="5" >
            <Transformer>
             <VectorParam id="558"  name="translation">
              <InterpolatingParam id="559" interp="linr"  time="-9999999/1" value="0" leadInLength="0/1"  />
              <InterpolatingParam id="560" interp="linr"  time="-9999999/1" value="0" leadInLength="0/1"  />
              <InterpolatingParam id="561" interp="linr"  time="-9999999/1" value="0" leadInLength="0/1"  />
             </VectorParam>
             <VectorParam id="562"  name="rotation">
              <InterpolatingParam id="563" interp="linr"  time="-9999999/1" value="0" leadInLength="0/1"  />
              <InterpolatingParam id="564" interp="linr"  time="-9999999/1" value="0" leadInLength="0/1"  />
              <InterpolatingParam id="565" interp="linr"  time="-9999999/1" value="0" leadInLength="0/1"  />
             </VectorParam>
             <VectorParam id="566"  name="shear">
              <InterpolatingParam id="567" interp="linr"  time="-9999999/1" value="0" leadInLength="0/1"  />
              <InterpolatingParam id="568" interp="linr"  time="-9999999/1" value="0" leadInLength="0/1"  />
              <InterpolatingParam id="569" interp="linr"  time="-9999999/1" value="0" leadInLength="0/1"  />
             </VectorParam>
             <VectorParam id="570"  name="scale">
              <InterpolatingParam id="571" interp="linr"  time="-9999999/1" value="1" leadInLength="0/1"  />
              <InterpolatingParam id="572" interp="linr"  time="-9999999/1" value="1" leadInLength="0/1"  />
              <InterpolatingParam id="573" interp="linr"  time="-9999999/1" value="1" leadInLength="0/1"  />
             </VectorParam>
             <VectorParam id="574"  name="anchor">
              <InterpolatingParam id="575" interp="linr"  time="0/1" value="0" leadInLength="0/1"  />
              <InterpolatingParam id="576" interp="linr"  time="0/1" value="0" leadInLength="0/1"  />
              <InterpolatingParam id="577" interp="linr"  time="0/1" value="0" leadInLength="0/1"  />
             </VectorParam>
            </Transformer>
            <Parameters>
             <VectorParam id="578"  name="sourceCrop">
              <InterpolatingParam id="579" interp="linr"  time="0/1" value="0" leadInLength="0/1"  />
              <InterpolatingParam id="580" interp="linr"  time="0/1" value="0" leadInLength="0/1"  />
              <InterpolatingParam id="581" interp="linr"  time="0/1" value="0" leadInLength="0/1"  />
              <InterpolatingParam id="582" interp="linr"  time="0/1" value="0" leadInLength="0/1"  />
             </VectorParam>
             <VectorParam id="583"  name="geometryCrop">
              <InterpolatingParam id="584" interp="linr"  time="-9999999/1" value="0" leadInLength="0/1"  />
              <InterpolatingParam id="585" interp="linr"  time="-9999999/1" value="0" leadInLength="0/1"  />
              <InterpolatingParam id="586" interp="linr"  time="-9999999/1" value="0" leadInLength="0/1"  />
              <InterpolatingParam id="587" interp="linr"  time="-9999999/1" value="0" leadInLength="0/1"  />
             </VectorParam>
             <InterpolatingParam id="588" interp="linr"  time="-9999999/1" value="1" leadInLength="0/1"  name="opacity"/>
             <InterpolatingParam id="589" interp="linr"  time="0/1" value="0" leadInLength="0/1"  name="cursorOpacity"/>
             <InterpolatingParam id="590" interp="linr"  time="0/1" value="0" leadInLength="0/1"  name="cursorScale"/>
            </Parameters>
            <Attributes>
             <Attribute id="591" value="" name="ident"/>
            </Attributes>
            <MetaData>
             <entry key="AutoAppliedSmartFocus" val="False"/>
             <entry key="WinSubProjectDisplayName" val=""/>
            </MetaData>
            <ExtraData>
             <Entry key="ZoomPanBin">
              <ZoomPanBin id="592"  >
               <ZoomPanKeyframes>
                <ZoomPanKeyframe id="593" timeRangeEnd="-9999999/1" timeRangeDuration="0/1" interpolaterName="linr"  />
               </ZoomPanKeyframes>
              </ZoomPanBin>
             </Entry>
             <Entry key="CursorEffectBin">
              <CursorEffectBin id="594"  >
               <CursorEffectKeyframes>
               </CursorEffectKeyframes>
              </CursorEffectBin>
             </Entry>
            </ExtraData>
           </ScreenVMFile>
           <ScreenVMFile id="595" start="1611" duration="76" scalar="1/1" mediaStart="7314/1" mediaDuration="76/1" trackNumber="0" src="5" >
            <Transformer>
             <VectorParam id="596"  name="translation">
              <InterpolatingParam id="597" interp="linr"  time="-9999999/1" value="0" leadInLength="0/1"  />
              <InterpolatingParam id="598" interp="linr"  time="-9999999/1" value="0" leadInLength="0/1"  />
              <InterpolatingParam id="599" interp="linr"  time="-9999999/1" value="0" leadInLength="0/1"  />
             </VectorParam>
             <VectorParam id="600"  name="rotation">
              <InterpolatingParam id="601" interp="linr"  time="-9999999/1" value="0" leadInLength="0/1"  />
              <InterpolatingParam id="602" interp="linr"  time="-9999999/1" value="0" leadInLength="0/1"  />
              <InterpolatingParam id="603" interp="linr"  time="-9999999/1" value="0" leadInLength="0/1"  />
             </VectorParam>
             <VectorParam id="604"  name="shear">
              <InterpolatingParam id="605" interp="linr"  time="-9999999/1" value="0" leadInLength="0/1"  />
              <InterpolatingParam id="606" interp="linr"  time="-9999999/1" value="0" leadInLength="0/1"  />
              <InterpolatingParam id="607" interp="linr"  time="-9999999/1" value="0" leadInLength="0/1"  />
             </VectorParam>
             <VectorParam id="608"  name="scale">
              <InterpolatingParam id="609" interp="linr"  time="-9999999/1" value="1" leadInLength="0/1"  />
              <InterpolatingParam id="610" interp="linr"  time="-9999999/1" value="1" leadInLength="0/1"  />
              <InterpolatingParam id="611" interp="linr"  time="-9999999/1" value="1" leadInLength="0/1"  />
             </VectorParam>
             <VectorParam id="612"  name="anchor">
              <InterpolatingParam id="613" interp="linr"  time="0/1" value="0" leadInLength="0/1"  />
              <InterpolatingParam id="614" interp="linr"  time="0/1" value="0" leadInLength="0/1"  />
              <InterpolatingParam id="615" interp="linr"  time="0/1" value="0" leadInLength="0/1"  />
             </VectorParam>
            </Transformer>
            <Parameters>
             <VectorParam id="616"  name="sourceCrop">
              <InterpolatingParam id="617" interp="linr"  time="0/1" value="0" leadInLength="0/1"  />
              <InterpolatingParam id="618" interp="linr"  time="0/1" value="0" leadInLength="0/1"  />
              <InterpolatingParam id="619" interp="linr"  time="0/1" value="0" leadInLength="0/1"  />
              <InterpolatingParam id="620" interp="linr"  time="0/1" value="0" leadInLength="0/1"  />
             </VectorParam>
             <VectorParam id="621"  name="geometryCrop">
              <InterpolatingParam id="622" interp="linr"  time="-9999999/1" value="0" leadInLength="0/1"  />
              <InterpolatingParam id="623" interp="linr"  time="-9999999/1" value="0" leadInLength="0/1"  />
              <InterpolatingParam id="624" interp="linr"  time="-9999999/1" value="0" leadInLength="0/1"  />
              <InterpolatingParam id="625" interp="linr"  time="-9999999/1" value="0" leadInLength="0/1"  />
             </VectorParam>
             <InterpolatingParam id="626" interp="linr"  time="-9999999/1" value="1" leadInLength="0/1"  name="opacity"/>
             <InterpolatingParam id="627" interp="linr"  time="0/1" value="0" leadInLength="0/1"  name="cursorOpacity"/>
             <InterpolatingParam id="628" interp="linr"  time="0/1" value="0" leadInLength="0/1"  name="cursorScale"/>
            </Parameters>
            <Attributes>
             <Attribute id="629" value="" name="ident"/>
            </Attributes>
            <MetaData>
             <entry key="AutoAppliedSmartFocus" val="False"/>
             <entry key="WinSubProjectDisplayName" val=""/>
            </MetaData>
            <ExtraData>
             <Entry key="ZoomPanBin">
              <ZoomPanBin id="630"  >
               <ZoomPanKeyframes>
                <ZoomPanKeyframe id="631" timeRangeEnd="-9999999/1" timeRangeDuration="0/1" interpolaterName="linr"  />
               </ZoomPanKeyframes>
              </ZoomPanBin>
             </Entry>
             <Entry key="CursorEffectBin">
              <CursorEffectBin id="632"  >
               <CursorEffectKeyframes>
               </CursorEffectKeyframes>
              </CursorEffectBin>
             </Entry>
            </ExtraData>
           </ScreenVMFile>
           <ScreenVMFile id="633" start="1687" duration="82" scalar="1/1" mediaStart="7397/1" mediaDuration="82/1" trackNumber="0" src="5" >
            <Transformer>
             <VectorParam id="634"  name="translation">
              <InterpolatingParam id="635" interp="linr"  time="-9999999/1" value="0" leadInLength="0/1"  />
              <InterpolatingParam id="636" interp="linr"  time="-9999999/1" value="0" leadInLength="0/1"  />
              <InterpolatingParam id="637" interp="linr"  time="-9999999/1" value="0" leadInLength="0/1"  />
             </VectorParam>
             <VectorParam id="638"  name="rotation">
              <InterpolatingParam id="639" interp="linr"  time="-9999999/1" value="0" leadInLength="0/1"  />
              <InterpolatingParam id="640" interp="linr"  time="-9999999/1" value="0" leadInLength="0/1"  />
              <InterpolatingParam id="641" interp="linr"  time="-9999999/1" value="0" leadInLength="0/1"  />
             </VectorParam>
             <VectorParam id="642"  name="shear">
              <InterpolatingParam id="643" interp="linr"  time="-9999999/1" value="0" leadInLength="0/1"  />
              <InterpolatingParam id="644" interp="linr"  time="-9999999/1" value="0" leadInLength="0/1"  />
              <InterpolatingParam id="645" interp="linr"  time="-9999999/1" value="0" leadInLength="0/1"  />
             </VectorParam>
             <VectorParam id="646"  name="scale">
              <InterpolatingParam id="647" interp="linr"  time="-9999999/1" value="1" leadInLength="0/1"  />
              <InterpolatingParam id="648" interp="linr"  time="-9999999/1" value="1" leadInLength="0/1"  />
              <InterpolatingParam id="649" interp="linr"  time="-9999999/1" value="1" leadInLength="0/1"  />
             </VectorParam>
             <VectorParam id="650"  name="anchor">
              <InterpolatingParam id="651" interp="linr"  time="0/1" value="0" leadInLength="0/1"  />
              <InterpolatingParam id="652" interp="linr"  time="0/1" value="0" leadInLength="0/1"  />
              <InterpolatingParam id="653" interp="linr"  time="0/1" value="0" leadInLength="0/1"  />
             </VectorParam>
            </Transformer>
            <Parameters>
             <VectorParam id="654"  name="sourceCrop">
              <InterpolatingParam id="655" interp="linr"  time="0/1" value="0" leadInLength="0/1"  />
              <InterpolatingParam id="656" interp="linr"  time="0/1" value="0" leadInLength="0/1"  />
              <InterpolatingParam id="657" interp="linr"  time="0/1" value="0" leadInLength="0/1"  />
              <InterpolatingParam id="658" interp="linr"  time="0/1" value="0" leadInLength="0/1"  />
             </VectorParam>
             <VectorParam id="659"  name="geometryCrop">
              <InterpolatingParam id="660" interp="linr"  time="-9999999/1" value="0" leadInLength="0/1"  />
              <InterpolatingParam id="661" interp="linr"  time="-9999999/1" value="0" leadInLength="0/1"  />
              <InterpolatingParam id="662" interp="linr"  time="-9999999/1" value="0" leadInLength="0/1"  />
              <InterpolatingParam id="663" interp="linr"  time="-9999999/1" value="0" leadInLength="0/1"  />
             </VectorParam>
             <InterpolatingParam id="664" interp="linr"  time="-9999999/1" value="1" leadInLength="0/1"  name="opacity"/>
             <InterpolatingParam id="665" interp="linr"  time="0/1" value="0" leadInLength="0/1"  name="cursorOpacity"/>
             <InterpolatingParam id="666" interp="linr"  time="0/1" value="0" leadInLength="0/1"  name="cursorScale"/>
            </Parameters>
            <Attributes>
             <Attribute id="667" value="" name="ident"/>
            </Attributes>
            <MetaData>
             <entry key="AutoAppliedSmartFocus" val="False"/>
             <entry key="WinSubProjectDisplayName" val=""/>
            </MetaData>
            <ExtraData>
             <Entry key="ZoomPanBin">
              <ZoomPanBin id="668"  >
               <ZoomPanKeyframes>
                <ZoomPanKeyframe id="669" timeRangeEnd="-9999999/1" timeRangeDuration="0/1" interpolaterName="linr"  />
               </ZoomPanKeyframes>
              </ZoomPanBin>
             </Entry>
             <Entry key="CursorEffectBin">
              <CursorEffectBin id="670"  >
               <CursorEffectKeyframes>
               </CursorEffectKeyframes>
              </CursorEffectBin>
             </Entry>
            </ExtraData>
           </ScreenVMFile>
           <ScreenVMFile id="671" start="1769" duration="94" scalar="1/1" mediaStart="7492/1" mediaDuration="94/1" trackNumber="0" src="5" >
            <Transformer>
             <VectorParam id="672"  name="translation">
              <InterpolatingParam id="673" interp="linr"  time="-9999999/1" value="0" leadInLength="0/1"  />
              <InterpolatingParam id="674" interp="linr"  time="-9999999/1" value="0" leadInLength="0/1"  />
              <InterpolatingParam id="675" interp="linr"  time="-9999999/1" value="0" leadInLength="0/1"  />
             </VectorParam>
             <VectorParam id="676"  name="rotation">
              <InterpolatingParam id="677" interp="linr"  time="-9999999/1" value="0" leadInLength="0/1"  />
              <InterpolatingParam id="678" interp="linr"  time="-9999999/1" value="0" leadInLength="0/1"  />
              <InterpolatingParam id="679" interp="linr"  time="-9999999/1" value="0" leadInLength="0/1"  />
             </VectorParam>
             <VectorParam id="680"  name="shear">
              <InterpolatingParam id="681" interp="linr"  time="-9999999/1" value="0" leadInLength="0/1"  />
              <InterpolatingParam id="682" interp="linr"  time="-9999999/1" value="0" leadInLength="0/1"  />
              <InterpolatingParam id="683" interp="linr"  time="-9999999/1" value="0" leadInLength="0/1"  />
             </VectorParam>
             <VectorParam id="684"  name="scale">
              <InterpolatingParam id="685" interp="linr"  time="-9999999/1" value="1" leadInLength="0/1"  />
              <InterpolatingParam id="686" interp="linr"  time="-9999999/1" value="1" leadInLength="0/1"  />
              <InterpolatingParam id="687" interp="linr"  time="-9999999/1" value="1" leadInLength="0/1"  />
             </VectorParam>
             <VectorParam id="688"  name="anchor">
              <InterpolatingParam id="689" interp="linr"  time="0/1" value="0" leadInLength="0/1"  />
              <InterpolatingParam id="690" interp="linr"  time="0/1" value="0" leadInLength="0/1"  />
              <InterpolatingParam id="691" interp="linr"  time="0/1" value="0" leadInLength="0/1"  />
             </VectorParam>
            </Transformer>
            <Parameters>
             <VectorParam id="692"  name="sourceCrop">
              <InterpolatingParam id="693" interp="linr"  time="0/1" value="0" leadInLength="0/1"  />
              <InterpolatingParam id="694" interp="linr"  time="0/1" value="0" leadInLength="0/1"  />
              <InterpolatingParam id="695" interp="linr"  time="0/1" value="0" leadInLength="0/1"  />
              <InterpolatingParam id="696" interp="linr"  time="0/1" value="0" leadInLength="0/1"  />
             </VectorParam>
             <VectorParam id="697"  name="geometryCrop">
              <InterpolatingParam id="698" interp="linr"  time="-9999999/1" value="0" leadInLength="0/1"  />
              <InterpolatingParam id="699" interp="linr"  time="-9999999/1" value="0" leadInLength="0/1"  />
              <InterpolatingParam id="700" interp="linr"  time="-9999999/1" value="0" leadInLength="0/1"  />
              <InterpolatingParam id="701" interp="linr"  time="-9999999/1" value="0" leadInLength="0/1"  />
             </VectorParam>
             <InterpolatingParam id="702" interp="linr"  time="-9999999/1" value="1" leadInLength="0/1"  name="opacity"/>
             <InterpolatingParam id="703" interp="linr"  time="0/1" value="0" leadInLength="0/1"  name="cursorOpacity"/>
             <InterpolatingParam id="704" interp="linr"  time="0/1" value="0" leadInLength="0/1"  name="cursorScale"/>
            </Parameters>
            <Attributes>
             <Attribute id="705" value="" name="ident"/>
            </Attributes>
            <MetaData>
             <entry key="AutoAppliedSmartFocus" val="False"/>
             <entry key="WinSubProjectDisplayName" val=""/>
            </MetaData>
            <ExtraData>
             <Entry key="ZoomPanBin">
              <ZoomPanBin id="706"  >
               <ZoomPanKeyframes>
                <ZoomPanKeyframe id="707" timeRangeEnd="-9999999/1" timeRangeDuration="0/1" interpolaterName="linr"  />
               </ZoomPanKeyframes>
              </ZoomPanBin>
             </Entry>
             <Entry key="CursorEffectBin">
              <CursorEffectBin id="708"  >
               <CursorEffectKeyframes>
               </CursorEffectKeyframes>
              </CursorEffectBin>
             </Entry>
            </ExtraData>
           </ScreenVMFile>
           <ScreenVMFile id="709" start="1863" duration="30" scalar="1/1" mediaStart="7605/1" mediaDuration="30/1" trackNumber="0" src="5" >
            <Transformer>
             <VectorParam id="710"  name="translation">
              <InterpolatingParam id="711" interp="linr"  time="-9999999/1" value="0" leadInLength="0/1"  />
              <InterpolatingParam id="712" interp="linr"  time="-9999999/1" value="0" leadInLength="0/1"  />
              <InterpolatingParam id="713" interp="linr"  time="-9999999/1" value="0" leadInLength="0/1"  />
             </VectorParam>
             <VectorParam id="714"  name="rotation">
              <InterpolatingParam id="715" interp="linr"  time="-9999999/1" value="0" leadInLength="0/1"  />
              <InterpolatingParam id="716" interp="linr"  time="-9999999/1" value="0" leadInLength="0/1"  />
              <InterpolatingParam id="717" interp="linr"  time="-9999999/1" value="0" leadInLength="0/1"  />
             </VectorParam>
             <VectorParam id="718"  name="shear">
              <InterpolatingParam id="719" interp="linr"  time="-9999999/1" value="0" leadInLength="0/1"  />
              <InterpolatingParam id="720" interp="linr"  time="-9999999/1" value="0" leadInLength="0/1"  />
              <InterpolatingParam id="721" interp="linr"  time="-9999999/1" value="0" leadInLength="0/1"  />
             </VectorParam>
             <VectorParam id="722"  name="scale">
              <InterpolatingParam id="723" interp="linr"  time="-9999999/1" value="1" leadInLength="0/1"  />
              <InterpolatingParam id="724" interp="linr"  time="-9999999/1" value="1" leadInLength="0/1"  />
              <InterpolatingParam id="725" interp="linr"  time="-9999999/1" value="1" leadInLength="0/1"  />
             </VectorParam>
             <VectorParam id="726"  name="anchor">
              <InterpolatingParam id="727" interp="linr"  time="0/1" value="0" leadInLength="0/1"  />
              <InterpolatingParam id="728" interp="linr"  time="0/1" value="0" leadInLength="0/1"  />
              <InterpolatingParam id="729" interp="linr"  time="0/1" value="0" leadInLength="0/1"  />
             </VectorParam>
            </Transformer>
            <Parameters>
             <VectorParam id="730"  name="sourceCrop">
              <InterpolatingParam id="731" interp="linr"  time="0/1" value="0" leadInLength="0/1"  />
              <InterpolatingParam id="732" interp="linr"  time="0/1" value="0" leadInLength="0/1"  />
              <InterpolatingParam id="733" interp="linr"  time="0/1" value="0" leadInLength="0/1"  />
              <InterpolatingParam id="734" interp="linr"  time="0/1" value="0" leadInLength="0/1"  />
             </VectorParam>
             <VectorParam id="735"  name="geometryCrop">
              <InterpolatingParam id="736" interp="linr"  time="-9999999/1" value="0" leadInLength="0/1"  />
              <InterpolatingParam id="737" interp="linr"  time="-9999999/1" value="0" leadInLength="0/1"  />
              <InterpolatingParam id="738" interp="linr"  time="-9999999/1" value="0" leadInLength="0/1"  />
              <InterpolatingParam id="739" interp="linr"  time="-9999999/1" value="0" leadInLength="0/1"  />
             </VectorParam>
             <InterpolatingParam id="740" interp="linr"  time="-9999999/1" value="1" leadInLength="0/1"  name="opacity"/>
             <InterpolatingParam id="741" interp="linr"  time="0/1" value="0" leadInLength="0/1"  name="cursorOpacity"/>
             <InterpolatingParam id="742" interp="linr"  time="0/1" value="0" leadInLength="0/1"  name="cursorScale"/>
            </Parameters>
            <Attributes>
             <Attribute id="743" value="" name="ident"/>
            </Attributes>
            <MetaData>
             <entry key="AutoAppliedSmartFocus" val="False"/>
             <entry key="WinSubProjectDisplayName" val=""/>
            </MetaData>
            <ExtraData>
             <Entry key="ZoomPanBin">
              <ZoomPanBin id="744"  >
               <ZoomPanKeyframes>
                <ZoomPanKeyframe id="745" timeRangeEnd="-9999999/1" timeRangeDuration="0/1" interpolaterName="linr"  />
               </ZoomPanKeyframes>
              </ZoomPanBin>
             </Entry>
             <Entry key="CursorEffectBin">
              <CursorEffectBin id="746"  >
               <CursorEffectKeyframes>
               </CursorEffectKeyframes>
              </CursorEffectBin>
             </Entry>
            </ExtraData>
           </ScreenVMFile>
           <ScreenVMFile id="747" start="1893" duration="15" scalar="1/1" mediaStart="7643/1" mediaDuration="15/1" trackNumber="0" src="5" >
            <Transformer>
             <VectorParam id="748"  name="translation">
              <InterpolatingParam id="749" interp="linr"  time="-9999999/1" value="0" leadInLength="0/1"  />
              <InterpolatingParam id="750" interp="linr"  time="-9999999/1" value="0" leadInLength="0/1"  />
              <InterpolatingParam id="751" interp="linr"  time="-9999999/1" value="0" leadInLength="0/1"  />
             </VectorParam>
             <VectorParam id="752"  name="rotation">
              <InterpolatingParam id="753" interp="linr"  time="-9999999/1" value="0" leadInLength="0/1"  />
              <InterpolatingParam id="754" interp="linr"  time="-9999999/1" value="0" leadInLength="0/1"  />
              <InterpolatingParam id="755" interp="linr"  time="-9999999/1" value="0" leadInLength="0/1"  />
             </VectorParam>
             <VectorParam id="756"  name="shear">
              <InterpolatingParam id="757" interp="linr"  time="-9999999/1" value="0" leadInLength="0/1"  />
              <InterpolatingParam id="758" interp="linr"  time="-9999999/1" value="0" leadInLength="0/1"  />
              <InterpolatingParam id="759" interp="linr"  time="-9999999/1" value="0" leadInLength="0/1"  />
             </VectorParam>
             <VectorParam id="760"  name="scale">
              <InterpolatingParam id="761" interp="linr"  time="-9999999/1" value="1" leadInLength="0/1"  />
              <InterpolatingParam id="762" interp="linr"  time="-9999999/1" value="1" leadInLength="0/1"  />
              <InterpolatingParam id="763" interp="linr"  time="-9999999/1" value="1" leadInLength="0/1"  />
             </VectorParam>
             <VectorParam id="764"  name="anchor">
              <InterpolatingParam id="765" interp="linr"  time="0/1" value="0" leadInLength="0/1"  />
              <InterpolatingParam id="766" interp="linr"  time="0/1" value="0" leadInLength="0/1"  />
              <InterpolatingParam id="767" interp="linr"  time="0/1" value="0" leadInLength="0/1"  />
             </VectorParam>
            </Transformer>
            <Parameters>
             <VectorParam id="768"  name="sourceCrop">
              <InterpolatingParam id="769" interp="linr"  time="0/1" value="0" leadInLength="0/1"  />
              <InterpolatingParam id="770" interp="linr"  time="0/1" value="0" leadInLength="0/1"  />
              <InterpolatingParam id="771" interp="linr"  time="0/1" value="0" leadInLength="0/1"  />
              <InterpolatingParam id="772" interp="linr"  time="0/1" value="0" leadInLength="0/1"  />
             </VectorParam>
             <VectorParam id="773"  name="geometryCrop">
              <InterpolatingParam id="774" interp="linr"  time="-9999999/1" value="0" leadInLength="0/1"  />
              <InterpolatingParam id="775" interp="linr"  time="-9999999/1" value="0" leadInLength="0/1"  />
              <InterpolatingParam id="776" interp="linr"  time="-9999999/1" value="0" leadInLength="0/1"  />
              <InterpolatingParam id="777" interp="linr"  time="-9999999/1" value="0" leadInLength="0/1"  />
             </VectorParam>
             <InterpolatingParam id="778" interp="linr"  time="-9999999/1" value="1" leadInLength="0/1"  name="opacity"/>
             <InterpolatingParam id="779" interp="linr"  time="0/1" value="0" leadInLength="0/1"  name="cursorOpacity"/>
             <InterpolatingParam id="780" interp="linr"  time="0/1" value="0" leadInLength="0/1"  name="cursorScale"/>
            </Parameters>
            <Attributes>
             <Attribute id="781" value="" name="ident"/>
            </Attributes>
            <MetaData>
             <entry key="AutoAppliedSmartFocus" val="False"/>
             <entry key="WinSubProjectDisplayName" val=""/>
            </MetaData>
            <ExtraData>
             <Entry key="ZoomPanBin">
              <ZoomPanBin id="782"  >
               <ZoomPanKeyframes>
                <ZoomPanKeyframe id="783" timeRangeEnd="-9999999/1" timeRangeDuration="0/1" interpolaterName="linr"  />
               </ZoomPanKeyframes>
              </ZoomPanBin>
             </Entry>
             <Entry key="CursorEffectBin">
              <CursorEffectBin id="784"  >
               <CursorEffectKeyframes>
               </CursorEffectKeyframes>
              </CursorEffectBin>
             </Entry>
            </ExtraData>
           </ScreenVMFile>
           <ScreenVMFile id="785" start="1908" duration="7" scalar="1/1" mediaStart="7693/1" mediaDuration="7/1" trackNumber="0" src="5" >
            <Transformer>
             <VectorParam id="786"  name="translation">
              <InterpolatingParam id="787" interp="linr"  time="-9999999/1" value="0" leadInLength="0/1"  />
              <InterpolatingParam id="788" interp="linr"  time="-9999999/1" value="0" leadInLength="0/1"  />
              <InterpolatingParam id="789" interp="linr"  time="-9999999/1" value="0" leadInLength="0/1"  />
             </VectorParam>
             <VectorParam id="790"  name="rotation">
              <InterpolatingParam id="791" interp="linr"  time="-9999999/1" value="0" leadInLength="0/1"  />
              <InterpolatingParam id="792" interp="linr"  time="-9999999/1" value="0" leadInLength="0/1"  />
              <InterpolatingParam id="793" interp="linr"  time="-9999999/1" value="0" leadInLength="0/1"  />
             </VectorParam>
             <VectorParam id="794"  name="shear">
              <InterpolatingParam id="795" interp="linr"  time="-9999999/1" value="0" leadInLength="0/1"  />
              <InterpolatingParam id="796" interp="linr"  time="-9999999/1" value="0" leadInLength="0/1"  />
              <InterpolatingParam id="797" interp="linr"  time="-9999999/1" value="0" leadInLength="0/1"  />
             </VectorParam>
             <VectorParam id="798"  name="scale">
              <InterpolatingParam id="799" interp="linr"  time="-9999999/1" value="1" leadInLength="0/1"  />
              <InterpolatingParam id="800" interp="linr"  time="-9999999/1" value="1" leadInLength="0/1"  />
              <InterpolatingParam id="801" interp="linr"  time="-9999999/1" value="1" leadInLength="0/1"  />
             </VectorParam>
             <VectorParam id="802"  name="anchor">
              <InterpolatingParam id="803" interp="linr"  time="0/1" value="0" leadInLength="0/1"  />
              <InterpolatingParam id="804" interp="linr"  time="0/1" value="0" leadInLength="0/1"  />
              <InterpolatingParam id="805" interp="linr"  time="0/1" value="0" leadInLength="0/1"  />
             </VectorParam>
            </Transformer>
            <Parameters>
             <VectorParam id="806"  name="sourceCrop">
              <InterpolatingParam id="807" interp="linr"  time="0/1" value="0" leadInLength="0/1"  />
              <InterpolatingParam id="808" interp="linr"  time="0/1" value="0" leadInLength="0/1"  />
              <InterpolatingParam id="809" interp="linr"  time="0/1" value="0" leadInLength="0/1"  />
              <InterpolatingParam id="810" interp="linr"  time="0/1" value="0" leadInLength="0/1"  />
             </VectorParam>
             <VectorParam id="811"  name="geometryCrop">
              <InterpolatingParam id="812" interp="linr"  time="-9999999/1" value="0" leadInLength="0/1"  />
              <InterpolatingParam id="813" interp="linr"  time="-9999999/1" value="0" leadInLength="0/1"  />
              <InterpolatingParam id="814" interp="linr"  time="-9999999/1" value="0" leadInLength="0/1"  />
              <InterpolatingParam id="815" interp="linr"  time="-9999999/1" value="0" leadInLength="0/1"  />
             </VectorParam>
             <InterpolatingParam id="816" interp="linr"  time="-9999999/1" value="1" leadInLength="0/1"  name="opacity"/>
             <InterpolatingParam id="817" interp="linr"  time="0/1" value="0" leadInLength="0/1"  name="cursorOpacity"/>
             <InterpolatingParam id="818" interp="linr"  time="0/1" value="0" leadInLength="0/1"  name="cursorScale"/>
            </Parameters>
            <Attributes>
             <Attribute id="819" value="" name="ident"/>
            </Attributes>
            <MetaData>
             <entry key="AutoAppliedSmartFocus" val="False"/>
             <entry key="WinSubProjectDisplayName" val=""/>
            </MetaData>
            <ExtraData>
             <Entry key="ZoomPanBin">
              <ZoomPanBin id="820"  >
               <ZoomPanKeyframes>
                <ZoomPanKeyframe id="821" timeRangeEnd="-9999999/1" timeRangeDuration="0/1" interpolaterName="linr"  />
               </ZoomPanKeyframes>
              </ZoomPanBin>
             </Entry>
             <Entry key="CursorEffectBin">
              <CursorEffectBin id="822"  >
               <CursorEffectKeyframes>
               </CursorEffectKeyframes>
              </CursorEffectBin>
             </Entry>
            </ExtraData>
           </ScreenVMFile>
           <ScreenVMFile id="823" start="1915" duration="25" scalar="1/1" mediaStart="7704/1" mediaDuration="25/1" trackNumber="0" src="5" >
            <Transformer>
             <VectorParam id="824"  name="translation">
              <InterpolatingParam id="825" interp="linr"  time="-9999999/1" value="0" leadInLength="0/1"  />
              <InterpolatingParam id="826" interp="linr"  time="-9999999/1" value="0" leadInLength="0/1"  />
              <InterpolatingParam id="827" interp="linr"  time="-9999999/1" value="0" leadInLength="0/1"  />
             </VectorParam>
             <VectorParam id="828"  name="rotation">
              <InterpolatingParam id="829" interp="linr"  time="-9999999/1" value="0" leadInLength="0/1"  />
              <InterpolatingParam id="830" interp="linr"  time="-9999999/1" value="0" leadInLength="0/1"  />
              <InterpolatingParam id="831" interp="linr"  time="-9999999/1" value="0" leadInLength="0/1"  />
             </VectorParam>
             <VectorParam id="832"  name="shear">
              <InterpolatingParam id="833" interp="linr"  time="-9999999/1" value="0" leadInLength="0/1"  />
              <InterpolatingParam id="834" interp="linr"  time="-9999999/1" value="0" leadInLength="0/1"  />
              <InterpolatingParam id="835" interp="linr"  time="-9999999/1" value="0" leadInLength="0/1"  />
             </VectorParam>
             <VectorParam id="836"  name="scale">
              <InterpolatingParam id="837" interp="linr"  time="-9999999/1" value="1" leadInLength="0/1"  />
              <InterpolatingParam id="838" interp="linr"  time="-9999999/1" value="1" leadInLength="0/1"  />
              <InterpolatingParam id="839" interp="linr"  time="-9999999/1" value="1" leadInLength="0/1"  />
             </VectorParam>
             <VectorParam id="840"  name="anchor">
              <InterpolatingParam id="841" interp="linr"  time="0/1" value="0" leadInLength="0/1"  />
              <InterpolatingParam id="842" interp="linr"  time="0/1" value="0" leadInLength="0/1"  />
              <InterpolatingParam id="843" interp="linr"  time="0/1" value="0" leadInLength="0/1"  />
             </VectorParam>
            </Transformer>
            <Parameters>
             <VectorParam id="844"  name="sourceCrop">
              <InterpolatingParam id="845" interp="linr"  time="0/1" value="0" leadInLength="0/1"  />
              <InterpolatingParam id="846" interp="linr"  time="0/1" value="0" leadInLength="0/1"  />
              <InterpolatingParam id="847" interp="linr"  time="0/1" value="0" leadInLength="0/1"  />
              <InterpolatingParam id="848" interp="linr"  time="0/1" value="0" leadInLength="0/1"  />
             </VectorParam>
             <VectorParam id="849"  name="geometryCrop">
              <InterpolatingParam id="850" interp="linr"  time="-9999999/1" value="0" leadInLength="0/1"  />
              <InterpolatingParam id="851" interp="linr"  time="-9999999/1" value="0" leadInLength="0/1"  />
              <InterpolatingParam id="852" interp="linr"  time="-9999999/1" value="0" leadInLength="0/1"  />
              <InterpolatingParam id="853" interp="linr"  time="-9999999/1" value="0" leadInLength="0/1"  />
             </VectorParam>
             <InterpolatingParam id="854" interp="linr"  time="-9999999/1" value="1" leadInLength="0/1"  name="opacity"/>
             <InterpolatingParam id="855" interp="linr"  time="0/1" value="0" leadInLength="0/1"  name="cursorOpacity"/>
             <InterpolatingParam id="856" interp="linr"  time="0/1" value="0" leadInLength="0/1"  name="cursorScale"/>
            </Parameters>
            <Attributes>
             <Attribute id="857" value="" name="ident"/>
            </Attributes>
            <MetaData>
             <entry key="AutoAppliedSmartFocus" val="False"/>
             <entry key="WinSubProjectDisplayName" val=""/>
            </MetaData>
            <ExtraData>
             <Entry key="ZoomPanBin">
              <ZoomPanBin id="858"  >
               <ZoomPanKeyframes>
                <ZoomPanKeyframe id="859" timeRangeEnd="-9999999/1" timeRangeDuration="0/1" interpolaterName="linr"  />
               </ZoomPanKeyframes>
              </ZoomPanBin>
             </Entry>
             <Entry key="CursorEffectBin">
              <CursorEffectBin id="860"  >
               <CursorEffectKeyframes>
               </CursorEffectKeyframes>
              </CursorEffectBin>
             </Entry>
            </ExtraData>
           </ScreenVMFile>
           <ScreenVMFile id="861" start="1940" duration="21" scalar="1/1" mediaStart="7733/1" mediaDuration="21/1" trackNumber="0" src="5" >
            <Transformer>
             <VectorParam id="862"  name="translation">
              <InterpolatingParam id="863" interp="linr"  time="-9999999/1" value="0" leadInLength="0/1"  />
              <InterpolatingParam id="864" interp="linr"  time="-9999999/1" value="0" leadInLength="0/1"  />
              <InterpolatingParam id="865" interp="linr"  time="-9999999/1" value="0" leadInLength="0/1"  />
             </VectorParam>
             <VectorParam id="866"  name="rotation">
              <InterpolatingParam id="867" interp="linr"  time="-9999999/1" value="0" leadInLength="0/1"  />
              <InterpolatingParam id="868" interp="linr"  time="-9999999/1" value="0" leadInLength="0/1"  />
              <InterpolatingParam id="869" interp="linr"  time="-9999999/1" value="0" leadInLength="0/1"  />
             </VectorParam>
             <VectorParam id="870"  name="shear">
              <InterpolatingParam id="871" interp="linr"  time="-9999999/1" value="0" leadInLength="0/1"  />
              <InterpolatingParam id="872" interp="linr"  time="-9999999/1" value="0" leadInLength="0/1"  />
              <InterpolatingParam id="873" interp="linr"  time="-9999999/1" value="0" leadInLength="0/1"  />
             </VectorParam>
             <VectorParam id="874"  name="scale">
              <InterpolatingParam id="875" interp="linr"  time="-9999999/1" value="1" leadInLength="0/1"  />
              <InterpolatingParam id="876" interp="linr"  time="-9999999/1" value="1" leadInLength="0/1"  />
              <InterpolatingParam id="877" interp="linr"  time="-9999999/1" value="1" leadInLength="0/1"  />
             </VectorParam>
             <VectorParam id="878"  name="anchor">
              <InterpolatingParam id="879" interp="linr"  time="0/1" value="0" leadInLength="0/1"  />
              <InterpolatingParam id="880" interp="linr"  time="0/1" value="0" leadInLength="0/1"  />
              <InterpolatingParam id="881" interp="linr"  time="0/1" value="0" leadInLength="0/1"  />
             </VectorParam>
            </Transformer>
            <Parameters>
             <VectorParam id="882"  name="sourceCrop">
              <InterpolatingParam id="883" interp="linr"  time="0/1" value="0" leadInLength="0/1"  />
              <InterpolatingParam id="884" interp="linr"  time="0/1" value="0" leadInLength="0/1"  />
              <InterpolatingParam id="885" interp="linr"  time="0/1" value="0" leadInLength="0/1"  />
              <InterpolatingParam id="886" interp="linr"  time="0/1" value="0" leadInLength="0/1"  />
             </VectorParam>
             <VectorParam id="887"  name="geometryCrop">
              <InterpolatingParam id="888" interp="linr"  time="-9999999/1" value="0" leadInLength="0/1"  />
              <InterpolatingParam id="889" interp="linr"  time="-9999999/1" value="0" leadInLength="0/1"  />
              <InterpolatingParam id="890" interp="linr"  time="-9999999/1" value="0" leadInLength="0/1"  />
              <InterpolatingParam id="891" interp="linr"  time="-9999999/1" value="0" leadInLength="0/1"  />
             </VectorParam>
             <InterpolatingParam id="892" interp="linr"  time="-9999999/1" value="1" leadInLength="0/1"  name="opacity"/>
             <InterpolatingParam id="893" interp="linr"  time="0/1" value="0" leadInLength="0/1"  name="cursorOpacity"/>
             <InterpolatingParam id="894" interp="linr"  time="0/1" value="0" leadInLength="0/1"  name="cursorScale"/>
            </Parameters>
            <Attributes>
             <Attribute id="895" value="" name="ident"/>
            </Attributes>
            <MetaData>
             <entry key="AutoAppliedSmartFocus" val="False"/>
             <entry key="WinSubProjectDisplayName" val=""/>
            </MetaData>
            <ExtraData>
             <Entry key="ZoomPanBin">
              <ZoomPanBin id="896"  >
               <ZoomPanKeyframes>
                <ZoomPanKeyframe id="897" timeRangeEnd="-9999999/1" timeRangeDuration="0/1" interpolaterName="linr"  />
               </ZoomPanKeyframes>
              </ZoomPanBin>
             </Entry>
             <Entry key="CursorEffectBin">
              <CursorEffectBin id="898"  >
               <CursorEffectKeyframes>
               </CursorEffectKeyframes>
              </CursorEffectBin>
             </Entry>
            </ExtraData>
           </ScreenVMFile>
           <ScreenVMFile id="899" start="1961" duration="2" scalar="1/1" mediaStart="7759/1" mediaDuration="2/1" trackNumber="0" src="5" >
            <Transformer>
             <VectorParam id="900"  name="translation">
              <InterpolatingParam id="901" interp="linr"  time="-9999999/1" value="0" leadInLength="0/1"  />
              <InterpolatingParam id="902" interp="linr"  time="-9999999/1" value="0" leadInLength="0/1"  />
              <InterpolatingParam id="903" interp="linr"  time="-9999999/1" value="0" leadInLength="0/1"  />
             </VectorParam>
             <VectorParam id="904"  name="rotation">
              <InterpolatingParam id="905" interp="linr"  time="-9999999/1" value="0" leadInLength="0/1"  />
              <InterpolatingParam id="906" interp="linr"  time="-9999999/1" value="0" leadInLength="0/1"  />
              <InterpolatingParam id="907" interp="linr"  time="-9999999/1" value="0" leadInLength="0/1"  />
             </VectorParam>
             <VectorParam id="908"  name="shear">
              <InterpolatingParam id="909" interp="linr"  time="-9999999/1" value="0" leadInLength="0/1"  />
              <InterpolatingParam id="910" interp="linr"  time="-9999999/1" value="0" leadInLength="0/1"  />
              <InterpolatingParam id="911" interp="linr"  time="-9999999/1" value="0" leadInLength="0/1"  />
             </VectorParam>
             <VectorParam id="912"  name="scale">
              <InterpolatingParam id="913" interp="linr"  time="-9999999/1" value="1" leadInLength="0/1"  />
              <InterpolatingParam id="914" interp="linr"  time="-9999999/1" value="1" leadInLength="0/1"  />
              <InterpolatingParam id="915" interp="linr"  time="-9999999/1" value="1" leadInLength="0/1"  />
             </VectorParam>
             <VectorParam id="916"  name="anchor">
              <InterpolatingParam id="917" interp="linr"  time="0/1" value="0" leadInLength="0/1"  />
              <InterpolatingParam id="918" interp="linr"  time="0/1" value="0" leadInLength="0/1"  />
              <InterpolatingParam id="919" interp="linr"  time="0/1" value="0" leadInLength="0/1"  />
             </VectorParam>
            </Transformer>
            <Parameters>
             <VectorParam id="920"  name="sourceCrop">
              <InterpolatingParam id="921" interp="linr"  time="0/1" value="0" leadInLength="0/1"  />
              <InterpolatingParam id="922" interp="linr"  time="0/1" value="0" leadInLength="0/1"  />
              <InterpolatingParam id="923" interp="linr"  time="0/1" value="0" leadInLength="0/1"  />
              <InterpolatingParam id="924" interp="linr"  time="0/1" value="0" leadInLength="0/1"  />
             </VectorParam>
             <VectorParam id="925"  name="geometryCrop">
              <InterpolatingParam id="926" interp="linr"  time="-9999999/1" value="0" leadInLength="0/1"  />
              <InterpolatingParam id="927" interp="linr"  time="-9999999/1" value="0" leadInLength="0/1"  />
              <InterpolatingParam id="928" interp="linr"  time="-9999999/1" value="0" leadInLength="0/1"  />
              <InterpolatingParam id="929" interp="linr"  time="-9999999/1" value="0" leadInLength="0/1"  />
             </VectorParam>
             <InterpolatingParam id="930" interp="linr"  time="-9999999/1" value="1" leadInLength="0/1"  name="opacity"/>
             <InterpolatingParam id="931" interp="linr"  time="0/1" value="0" leadInLength="0/1"  name="cursorOpacity"/>
             <InterpolatingParam id="932" interp="linr"  time="0/1" value="0" leadInLength="0/1"  name="cursorScale"/>
            </Parameters>
            <Attributes>
             <Attribute id="933" value="" name="ident"/>
            </Attributes>
            <MetaData>
             <entry key="AutoAppliedSmartFocus" val="False"/>
             <entry key="WinSubProjectDisplayName" val=""/>
            </MetaData>
            <ExtraData>
             <Entry key="ZoomPanBin">
              <ZoomPanBin id="934"  >
               <ZoomPanKeyframes>
                <ZoomPanKeyframe id="935" timeRangeEnd="-9999999/1" timeRangeDuration="0/1" interpolaterName="linr"  />
               </ZoomPanKeyframes>
              </ZoomPanBin>
             </Entry>
             <Entry key="CursorEffectBin">
              <CursorEffectBin id="936"  >
               <CursorEffectKeyframes>
               </CursorEffectKeyframes>
              </CursorEffectBin>
             </Entry>
            </ExtraData>
           </ScreenVMFile>
           <ScreenVMFile id="937" start="1963" duration="387" scalar="1/1" mediaStart="7780/1" mediaDuration="387/1" trackNumber="0" src="5" >
            <Transformer>
             <VectorParam id="938"  name="translation">
              <InterpolatingParam id="939" interp="linr"  time="-9999999/1" value="0" leadInLength="0/1"  />
              <InterpolatingParam id="940" interp="linr"  time="-9999999/1" value="0" leadInLength="0/1"  />
              <InterpolatingParam id="941" interp="linr"  time="-9999999/1" value="0" leadInLength="0/1"  />
             </VectorParam>
             <VectorParam id="942"  name="rotation">
              <InterpolatingParam id="943" interp="linr"  time="-9999999/1" value="0" leadInLength="0/1"  />
              <InterpolatingParam id="944" interp="linr"  time="-9999999/1" value="0" leadInLength="0/1"  />
              <InterpolatingParam id="945" interp="linr"  time="-9999999/1" value="0" leadInLength="0/1"  />
             </VectorParam>
             <VectorParam id="946"  name="shear">
              <InterpolatingParam id="947" interp="linr"  time="-9999999/1" value="0" leadInLength="0/1"  />
              <InterpolatingParam id="948" interp="linr"  time="-9999999/1" value="0" leadInLength="0/1"  />
              <InterpolatingParam id="949" interp="linr"  time="-9999999/1" value="0" leadInLength="0/1"  />
             </VectorParam>
             <VectorParam id="950"  name="scale">
              <InterpolatingParam id="951" interp="linr"  time="-9999999/1" value="1" leadInLength="0/1"  />
              <InterpolatingParam id="952" interp="linr"  time="-9999999/1" value="1" leadInLength="0/1"  />
              <InterpolatingParam id="953" interp="linr"  time="-9999999/1" value="1" leadInLength="0/1"  />
             </VectorParam>
             <VectorParam id="954"  name="anchor">
              <InterpolatingParam id="955" interp="linr"  time="0/1" value="0" leadInLength="0/1"  />
              <InterpolatingParam id="956" interp="linr"  time="0/1" value="0" leadInLength="0/1"  />
              <InterpolatingParam id="957" interp="linr"  time="0/1" value="0" leadInLength="0/1"  />
             </VectorParam>
            </Transformer>
            <Parameters>
             <VectorParam id="958"  name="sourceCrop">
              <InterpolatingParam id="959" interp="linr"  time="0/1" value="0" leadInLength="0/1"  />
              <InterpolatingParam id="960" interp="linr"  time="0/1" value="0" leadInLength="0/1"  />
              <InterpolatingParam id="961" interp="linr"  time="0/1" value="0" leadInLength="0/1"  />
              <InterpolatingParam id="962" interp="linr"  time="0/1" value="0" leadInLength="0/1"  />
             </VectorParam>
             <VectorParam id="963"  name="geometryCrop">
              <InterpolatingParam id="964" interp="linr"  time="-9999999/1" value="0" leadInLength="0/1"  />
              <InterpolatingParam id="965" interp="linr"  time="-9999999/1" value="0" leadInLength="0/1"  />
              <InterpolatingParam id="966" interp="linr"  time="-9999999/1" value="0" leadInLength="0/1"  />
              <InterpolatingParam id="967" interp="linr"  time="-9999999/1" value="0" leadInLength="0/1"  />
             </VectorParam>
             <InterpolatingParam id="968" interp="linr"  time="-9999999/1" value="1" leadInLength="0/1"  name="opacity"/>
             <InterpolatingParam id="969" interp="linr"  time="0/1" value="0" leadInLength="0/1"  name="cursorOpacity"/>
             <InterpolatingParam id="970" interp="linr"  time="0/1" value="0" leadInLength="0/1"  name="cursorScale"/>
            </Parameters>
            <Attributes>
             <Attribute id="971" value="" name="ident"/>
            </Attributes>
            <MetaData>
             <entry key="AutoAppliedSmartFocus" val="False"/>
             <entry key="WinSubProjectDisplayName" val=""/>
            </MetaData>
            <ExtraData>
             <Entry key="ZoomPanBin">
              <ZoomPanBin id="972"  >
               <ZoomPanKeyframes>
                <ZoomPanKeyframe id="973" timeRangeEnd="-9999999/1" timeRangeDuration="0/1" interpolaterName="linr"  />
               </ZoomPanKeyframes>
              </ZoomPanBin>
             </Entry>
             <Entry key="CursorEffectBin">
              <CursorEffectBin id="974"  >
               <CursorEffectKeyframes>
               </CursorEffectKeyframes>
              </CursorEffectBin>
             </Entry>
            </ExtraData>
           </ScreenVMFile>
           <ScreenVMFile id="975" start="2350" duration="15" scalar="1/1" mediaStart="10598/1" mediaDuration="15/1" trackNumber="0" src="5" >
            <Transformer>
             <VectorParam id="976"  name="translation">
              <InterpolatingParam id="977" interp="linr"  time="-9999999/1" value="0" leadInLength="0/1"  />
              <InterpolatingParam id="978" interp="linr"  time="-9999999/1" value="0" leadInLength="0/1"  />
              <InterpolatingParam id="979" interp="linr"  time="-9999999/1" value="0" leadInLength="0/1"  />
             </VectorParam>
             <VectorParam id="980"  name="rotation">
              <InterpolatingParam id="981" interp="linr"  time="-9999999/1" value="0" leadInLength="0/1"  />
              <InterpolatingParam id="982" interp="linr"  time="-9999999/1" value="0" leadInLength="0/1"  />
              <InterpolatingParam id="983" interp="linr"  time="-9999999/1" value="0" leadInLength="0/1"  />
             </VectorParam>
             <VectorParam id="984"  name="shear">
              <InterpolatingParam id="985" interp="linr"  time="-9999999/1" value="0" leadInLength="0/1"  />
              <InterpolatingParam id="986" interp="linr"  time="-9999999/1" value="0" leadInLength="0/1"  />
              <InterpolatingParam id="987" interp="linr"  time="-9999999/1" value="0" leadInLength="0/1"  />
             </VectorParam>
             <VectorParam id="988"  name="scale">
              <InterpolatingParam id="989" interp="linr"  time="-9999999/1" value="1" leadInLength="0/1"  />
              <InterpolatingParam id="990" interp="linr"  time="-9999999/1" value="1" leadInLength="0/1"  />
              <InterpolatingParam id="991" interp="linr"  time="-9999999/1" value="1" leadInLength="0/1"  />
             </VectorParam>
             <VectorParam id="992"  name="anchor">
              <InterpolatingParam id="993" interp="linr"  time="0/1" value="0" leadInLength="0/1"  />
              <InterpolatingParam id="994" interp="linr"  time="0/1" value="0" leadInLength="0/1"  />
              <InterpolatingParam id="995" interp="linr"  time="0/1" value="0" leadInLength="0/1"  />
             </VectorParam>
            </Transformer>
            <Parameters>
             <VectorParam id="996"  name="sourceCrop">
              <InterpolatingParam id="997" interp="linr"  time="0/1" value="0" leadInLength="0/1"  />
              <InterpolatingParam id="998" interp="linr"  time="0/1" value="0" leadInLength="0/1"  />
              <InterpolatingParam id="999" interp="linr"  time="0/1" value="0" leadInLength="0/1"  />
              <InterpolatingParam id="1000" interp="linr"  time="0/1" value="0" leadInLength="0/1"  />
             </VectorParam>
             <VectorParam id="1001"  name="geometryCrop">
              <InterpolatingParam id="1002" interp="linr"  time="-9999999/1" value="0" leadInLength="0/1"  />
              <InterpolatingParam id="1003" interp="linr"  time="-9999999/1" value="0" leadInLength="0/1"  />
              <InterpolatingParam id="1004" interp="linr"  time="-9999999/1" value="0" leadInLength="0/1"  />
              <InterpolatingParam id="1005" interp="linr"  time="-9999999/1" value="0" leadInLength="0/1"  />
             </VectorParam>
             <InterpolatingParam id="1006" interp="linr"  time="-9999999/1" value="1" leadInLength="0/1"  name="opacity"/>
             <InterpolatingParam id="1007" interp="linr"  time="0/1" value="0" leadInLength="0/1"  name="cursorOpacity"/>
             <InterpolatingParam id="1008" interp="linr"  time="0/1" value="0" leadInLength="0/1"  name="cursorScale"/>
            </Parameters>
            <Attributes>
             <Attribute id="1009" value="" name="ident"/>
            </Attributes>
            <MetaData>
             <entry key="AutoAppliedSmartFocus" val="False"/>
             <entry key="WinSubProjectDisplayName" val=""/>
            </MetaData>
            <ExtraData>
             <Entry key="ZoomPanBin">
              <ZoomPanBin id="1010"  >
               <ZoomPanKeyframes>
                <ZoomPanKeyframe id="1011" timeRangeEnd="-9999999/1" timeRangeDuration="0/1" interpolaterName="linr"  />
               </ZoomPanKeyframes>
              </ZoomPanBin>
             </Entry>
             <Entry key="CursorEffectBin">
              <CursorEffectBin id="1012"  >
               <CursorEffectKeyframes>
               </CursorEffectKeyframes>
              </CursorEffectBin>
             </Entry>
            </ExtraData>
           </ScreenVMFile>
          </Medias>
         </GenericTrack>
        </StitchedMedia>
        <StitchedMedia id="1013" start="1229" duration="4442" scalar="1/1" mediaStart="7881/1" mediaDuration="4442/1" minMediaStart="0/1" >
         <Transformer>
          <VectorParam id="1014"  name="translation">
           <InterpolatingParam id="1015" interp="linr"  >
            <Keyframes>
            <Keyframe id="1016"  time="-9999999/1" value="0" leadInLength="0/1"  />
            <Keyframe id="1017"  time="8547/1" value="497.40331090512581" leadInLength="30/1"  interpolater="leadin-linr"  />
            <Keyframe id="1018"  time="9092/1" value="2.8421709430403979e-014" leadInLength="30/1"  interpolater="leadin-linr"  />
            <Keyframe id="1019"  time="9120/1" value="-611.34579989157805" leadInLength="28/1"  interpolater="leadin-linr"  />
            <Keyframe id="1020"  time="9526/1" value="-2.8421709430404058e-014" leadInLength="30/1"  interpolater="leadin-linr"  />
            <Keyframe id="1021"  time="9609/1" value="17.012316931045234" leadInLength="30/1"  interpolater="leadin-linr"  />
            <Keyframe id="1022"  time="10083/1" value="-1.847411112976261e-013" leadInLength="30/1"  interpolater="leadin-linr"  />
            <Keyframe id="1023"  time="10450/1" value="977.8466263726815" leadInLength="30/1"  interpolater="leadin-linr"  />
            <Keyframe id="1024"  time="10921/1" value="5.6843418860808015e-014" leadInLength="30/1"  interpolater="leadin-linr"  />
            <Keyframe id="1025"  time="10922/1" value="5.6843418860808027e-014" leadInLength="1/1"  interpolater="leadin-linr"  />
            <Keyframe id="1026"  time="10947/1" value="-107.25733319014365" leadInLength="25/1"  interpolater="leadin-linr"  />
            <Keyframe id="1027"  time="11436/1" value="-57.203911034743307" leadInLength="14/1"  interpolater="leadin-linr"  />
            <Keyframe id="1028"  time="11451/1" value="-5.6843418860808091e-014" leadInLength="15/1"  interpolater="leadin-linr"  />
            <Keyframe id="1029"  time="11494/1" value="-1162.4703402630792" leadInLength="30/1"  interpolater="leadin-linr"  />
            <Keyframe id="1030"  time="11768/1" value="169.36859722271726" leadInLength="14/1"  interpolater="leadin-linr"  />
            <Keyframe id="1031"  time="11792/1" value="725.86541666878759" leadInLength="23/1"  interpolater="leadin-linr"  />
            <Keyframe id="1032"  time="12078/1" value="653.27887500190889" leadInLength="14/1"  interpolater="leadin-linr"  />
            <Keyframe id="1033"  time="12106/1" value="1.7053025658242384e-013" leadInLength="27/1"  interpolater="leadin-linr"  />
            <Keyframe id="1034"  time="12192/1" value="-589.09319479738019" leadInLength="30/1"  interpolater="leadin-linr"  />
            </Keyframes>
           </InterpolatingParam>
           <InterpolatingParam id="1035" interp="linr"  >
            <Keyframes>
            <Keyframe id="1036"  time="-9999999/1" value="0" leadInLength="0/1"  />
            <Keyframe id="1037"  time="8547/1" value="-191.22016642776612" leadInLength="30/1"  interpolater="leadin-linr"  />
            <Keyframe id="1038"  time="9092/1" value="5.3873350225330796e-011" leadInLength="30/1"  interpolater="leadin-linr"  />
            <Keyframe id="1039"  time="9120/1" value="-267.55074919683" leadInLength="28/1"  interpolater="leadin-linr"  />
            <Keyframe id="1040"  time="9526/1" value="5.3830717661185177e-011" leadInLength="30/1"  interpolater="leadin-linr"  />
            <Keyframe id="1041"  time="9609/1" value="365.32545163466892" leadInLength="30/1"  interpolater="leadin-linr"  />
            <Keyframe id="1042"  time="10083/1" value="5.3830717661185177e-011" leadInLength="30/1"  interpolater="leadin-linr"  />
            <Keyframe id="1043"  time="10450/1" value="-238.19014134896773" leadInLength="30/1"  interpolater="leadin-linr"  />
            <Keyframe id="1044"  time="10921/1" value="5.3603343985741958e-011" leadInLength="30/1"  interpolater="leadin-linr"  />
            <Keyframe id="1045"  time="10922/1" value="5.3660187404602766e-011" leadInLength="1/1"  interpolater="leadin-linr"  />
            <Keyframe id="1046"  time="10947/1" value="-236.48803052620639" leadInLength="25/1"  interpolater="leadin-linr"  />
            <Keyframe id="1047"  time="11436/1" value="-126.12694961395179" leadInLength="14/1"  interpolater="leadin-linr"  />
            <Keyframe id="1048"  time="11451/1" value="5.343281372915954e-011" leadInLength="15/1"  interpolater="leadin-linr"  />
            <Keyframe id="1049"  time="11494/1" value="-255.61389929224373" leadInLength="30/1"  interpolater="leadin-linr"  />
            <Keyframe id="1050"  time="11768/1" value="89.665709809049062" leadInLength="14/1"  interpolater="leadin-linr"  />
            <Keyframe id="1051"  time="11792/1" value="384.28161346717673" leadInLength="23/1"  interpolater="leadin-linr"  />
            <Keyframe id="1052"  time="12078/1" value="345.8534521204644" leadInLength="14/1"  interpolater="leadin-linr"  />
            <Keyframe id="1053"  time="12106/1" value="5.3631765695172278e-011" leadInLength="27/1"  interpolater="leadin-linr"  />
            <Keyframe id="1054"  time="12192/1" value="311.87292553444399" leadInLength="30/1"  interpolater="leadin-linr"  />
            </Keyframes>
           </InterpolatingParam>
           <InterpolatingParam id="1055" interp="linr"  >
            <Keyframes>
            <Keyframe id="1056"  time="-9999999/1" value="0" leadInLength="0/1"  />
            <Keyframe id="1057"  time="8547/1" value="0" leadInLength="30/1"  interpolater="leadin-linr"  />
            <Keyframe id="1058"  time="9092/1" value="0" leadInLength="30/1"  interpolater="leadin-linr"  />
            <Keyframe id="1059"  time="9120/1" value="0" leadInLength="28/1"  interpolater="leadin-linr"  />
            <Keyframe id="1060"  time="9526/1" value="0" leadInLength="30/1"  interpolater="leadin-linr"  />
            <Keyframe id="1061"  time="9609/1" value="0" leadInLength="30/1"  interpolater="leadin-linr"  />
            <Keyframe id="1062"  time="10083/1" value="0" leadInLength="30/1"  interpolater="leadin-linr"  />
            <Keyframe id="1063"  time="10450/1" value="0" leadInLength="30/1"  interpolater="leadin-linr"  />
            <Keyframe id="1064"  time="10921/1" value="0" leadInLength="30/1"  interpolater="leadin-linr"  />
            <Keyframe id="1065"  time="10922/1" value="0" leadInLength="1/1"  interpolater="leadin-linr"  />
            <Keyframe id="1066"  time="10947/1" value="0" leadInLength="25/1"  interpolater="leadin-linr"  />
            <Keyframe id="1067"  time="11436/1" value="0" leadInLength="14/1"  interpolater="leadin-linr"  />
            <Keyframe id="1068"  time="11451/1" value="0" leadInLength="15/1"  interpolater="leadin-linr"  />
            <Keyframe id="1069"  time="11494/1" value="0" leadInLength="30/1"  interpolater="leadin-linr"  />
            <Keyframe id="1070"  time="11768/1" value="0" leadInLength="14/1"  interpolater="leadin-linr"  />
            <Keyframe id="1071"  time="11792/1" value="0" leadInLength="23/1"  interpolater="leadin-linr"  />
            <Keyframe id="1072"  time="12078/1" value="0" leadInLength="14/1"  interpolater="leadin-linr"  />
            <Keyframe id="1073"  time="12106/1" value="0" leadInLength="27/1"  interpolater="leadin-linr"  />
            <Keyframe id="1074"  time="12192/1" value="0" leadInLength="30/1"  interpolater="leadin-linr"  />
            </Keyframes>
           </InterpolatingParam>
          </VectorParam>
          <VectorParam id="1075"  name="rotation">
           <InterpolatingParam id="1076" interp="linr"  >
            <Keyframes>
            <Keyframe id="1077"  time="-9999999/1" value="0" leadInLength="0/1"  />
            <Keyframe id="1078"  time="8547/1" value="0" leadInLength="30/1"  interpolater="leadin-linr"  />
            <Keyframe id="1079"  time="9092/1" value="0" leadInLength="30/1"  interpolater="leadin-linr"  />
            <Keyframe id="1080"  time="9120/1" value="0" leadInLength="28/1"  interpolater="leadin-linr"  />
            <Keyframe id="1081"  time="9526/1" value="0" leadInLength="30/1"  interpolater="leadin-linr"  />
            <Keyframe id="1082"  time="9609/1" value="0" leadInLength="30/1"  interpolater="leadin-linr"  />
            <Keyframe id="1083"  time="10083/1" value="0" leadInLength="30/1"  interpolater="leadin-linr"  />
            <Keyframe id="1084"  time="10450/1" value="0" leadInLength="30/1"  interpolater="leadin-linr"  />
            <Keyframe id="1085"  time="10921/1" value="0" leadInLength="30/1"  interpolater="leadin-linr"  />
            <Keyframe id="1086"  time="10922/1" value="0" leadInLength="1/1"  interpolater="leadin-linr"  />
            <Keyframe id="1087"  time="10947/1" value="0" leadInLength="25/1"  interpolater="leadin-linr"  />
            <Keyframe id="1088"  time="11436/1" value="0" leadInLength="14/1"  interpolater="leadin-linr"  />
            <Keyframe id="1089"  time="11451/1" value="0" leadInLength="15/1"  interpolater="leadin-linr"  />
            <Keyframe id="1090"  time="11494/1" value="0" leadInLength="30/1"  interpolater="leadin-linr"  />
            <Keyframe id="1091"  time="11768/1" value="0" leadInLength="14/1"  interpolater="leadin-linr"  />
            <Keyframe id="1092"  time="11792/1" value="0" leadInLength="23/1"  interpolater="leadin-linr"  />
            <Keyframe id="1093"  time="12078/1" value="0" leadInLength="14/1"  interpolater="leadin-linr"  />
            <Keyframe id="1094"  time="12106/1" value="0" leadInLength="27/1"  interpolater="leadin-linr"  />
            <Keyframe id="1095"  time="12192/1" value="0" leadInLength="30/1"  interpolater="leadin-linr"  />
            </Keyframes>
           </InterpolatingParam>
           <InterpolatingParam id="1096" interp="linr"  >
            <Keyframes>
            <Keyframe id="1097"  time="-9999999/1" value="0" leadInLength="0/1"  />
            <Keyframe id="1098"  time="8547/1" value="0" leadInLength="30/1"  interpolater="leadin-linr"  />
            <Keyframe id="1099"  time="9092/1" value="0" leadInLength="30/1"  interpolater="leadin-linr"  />
            <Keyframe id="1100"  time="9120/1" value="0" leadInLength="28/1"  interpolater="leadin-linr"  />
            <Keyframe id="1101"  time="9526/1" value="0" leadInLength="30/1"  interpolater="leadin-linr"  />
            <Keyframe id="1102"  time="9609/1" value="0" leadInLength="30/1"  interpolater="leadin-linr"  />
            <Keyframe id="1103"  time="10083/1" value="0" leadInLength="30/1"  interpolater="leadin-linr"  />
            <Keyframe id="1104"  time="10450/1" value="0" leadInLength="30/1"  interpolater="leadin-linr"  />
            <Keyframe id="1105"  time="10921/1" value="0" leadInLength="30/1"  interpolater="leadin-linr"  />
            <Keyframe id="1106"  time="10922/1" value="0" leadInLength="1/1"  interpolater="leadin-linr"  />
            <Keyframe id="1107"  time="10947/1" value="0" leadInLength="25/1"  interpolater="leadin-linr"  />
            <Keyframe id="1108"  time="11436/1" value="0" leadInLength="14/1"  interpolater="leadin-linr"  />
            <Keyframe id="1109"  time="11451/1" value="0" leadInLength="15/1"  interpolater="leadin-linr"  />
            <Keyframe id="1110"  time="11494/1" value="0" leadInLength="30/1"  interpolater="leadin-linr"  />
            <Keyframe id="1111"  time="11768/1" value="0" leadInLength="14/1"  interpolater="leadin-linr"  />
            <Keyframe id="1112"  time="11792/1" value="0" leadInLength="23/1"  interpolater="leadin-linr"  />
            <Keyframe id="1113"  time="12078/1" value="0" leadInLength="14/1"  interpolater="leadin-linr"  />
            <Keyframe id="1114"  time="12106/1" value="0" leadInLength="27/1"  interpolater="leadin-linr"  />
            <Keyframe id="1115"  time="12192/1" value="0" leadInLength="30/1"  interpolater="leadin-linr"  />
            </Keyframes>
           </InterpolatingParam>
           <InterpolatingParam id="1116" interp="linr"  >
            <Keyframes>
            <Keyframe id="1117"  time="-9999999/1" value="0" leadInLength="0/1"  />
            <Keyframe id="1118"  time="8547/1" value="0" leadInLength="30/1"  interpolater="leadin-linr"  />
            <Keyframe id="1119"  time="9092/1" value="0" leadInLength="30/1"  interpolater="leadin-linr"  />
            <Keyframe id="1120"  time="9120/1" value="0" leadInLength="28/1"  interpolater="leadin-linr"  />
            <Keyframe id="1121"  time="9526/1" value="0" leadInLength="30/1"  interpolater="leadin-linr"  />
            <Keyframe id="1122"  time="9609/1" value="0" leadInLength="30/1"  interpolater="leadin-linr"  />
            <Keyframe id="1123"  time="10083/1" value="0" leadInLength="30/1"  interpolater="leadin-linr"  />
            <Keyframe id="1124"  time="10450/1" value="0" leadInLength="30/1"  interpolater="leadin-linr"  />
            <Keyframe id="1125"  time="10921/1" value="0" leadInLength="30/1"  interpolater="leadin-linr"  />
            <Keyframe id="1126"  time="10922/1" value="0" leadInLength="1/1"  interpolater="leadin-linr"  />
            <Keyframe id="1127"  time="10947/1" value="0" leadInLength="25/1"  interpolater="leadin-linr"  />
            <Keyframe id="1128"  time="11436/1" value="0" leadInLength="14/1"  interpolater="leadin-linr"  />
            <Keyframe id="1129"  time="11451/1" value="0" leadInLength="15/1"  interpolater="leadin-linr"  />
            <Keyframe id="1130"  time="11494/1" value="0" leadInLength="30/1"  interpolater="leadin-linr"  />
            <Keyframe id="1131"  time="11768/1" value="0" leadInLength="14/1"  interpolater="leadin-linr"  />
            <Keyframe id="1132"  time="11792/1" value="0" leadInLength="23/1"  interpolater="leadin-linr"  />
            <Keyframe id="1133"  time="12078/1" value="0" leadInLength="14/1"  interpolater="leadin-linr"  />
            <Keyframe id="1134"  time="12106/1" value="0" leadInLength="27/1"  interpolater="leadin-linr"  />
            <Keyframe id="1135"  time="12192/1" value="0" leadInLength="30/1"  interpolater="leadin-linr"  />
            </Keyframes>
           </InterpolatingParam>
          </VectorParam>
          <VectorParam id="1136"  name="shear">
           <InterpolatingParam id="1137" interp="linr"  >
            <Keyframes>
            <Keyframe id="1138"  time="-9999999/1" value="0" leadInLength="0/1"  />
            <Keyframe id="1139"  time="8547/1" value="0" leadInLength="30/1"  interpolater="leadin-linr"  />
            <Keyframe id="1140"  time="9092/1" value="0" leadInLength="30/1"  interpolater="leadin-linr"  />
            <Keyframe id="1141"  time="9120/1" value="0" leadInLength="28/1"  interpolater="leadin-linr"  />
            <Keyframe id="1142"  time="9526/1" value="0" leadInLength="30/1"  interpolater="leadin-linr"  />
            <Keyframe id="1143"  time="9609/1" value="0" leadInLength="30/1"  interpolater="leadin-linr"  />
            <Keyframe id="1144"  time="10083/1" value="0" leadInLength="30/1"  interpolater="leadin-linr"  />
            <Keyframe id="1145"  time="10450/1" value="0" leadInLength="30/1"  interpolater="leadin-linr"  />
            <Keyframe id="1146"  time="10921/1" value="0" leadInLength="30/1"  interpolater="leadin-linr"  />
            <Keyframe id="1147"  time="10922/1" value="0" leadInLength="1/1"  interpolater="leadin-linr"  />
            <Keyframe id="1148"  time="10947/1" value="0" leadInLength="25/1"  interpolater="leadin-linr"  />
            <Keyframe id="1149"  time="11436/1" value="0" leadInLength="14/1"  interpolater="leadin-linr"  />
            <Keyframe id="1150"  time="11451/1" value="0" leadInLength="15/1"  interpolater="leadin-linr"  />
            <Keyframe id="1151"  time="11494/1" value="0" leadInLength="30/1"  interpolater="leadin-linr"  />
            <Keyframe id="1152"  time="11768/1" value="0" leadInLength="14/1"  interpolater="leadin-linr"  />
            <Keyframe id="1153"  time="11792/1" value="0" leadInLength="23/1"  interpolater="leadin-linr"  />
            <Keyframe id="1154"  time="12078/1" value="0" leadInLength="14/1"  interpolater="leadin-linr"  />
            <Keyframe id="1155"  time="12106/1" value="0" leadInLength="27/1"  interpolater="leadin-linr"  />
            <Keyframe id="1156"  time="12192/1" value="0" leadInLength="30/1"  interpolater="leadin-linr"  />
            </Keyframes>
           </InterpolatingParam>
           <InterpolatingParam id="1157" interp="linr"  >
            <Keyframes>
            <Keyframe id="1158"  time="-9999999/1" value="0" leadInLength="0/1"  />
            <Keyframe id="1159"  time="8547/1" value="0" leadInLength="30/1"  interpolater="leadin-linr"  />
            <Keyframe id="1160"  time="9092/1" value="0" leadInLength="30/1"  interpolater="leadin-linr"  />
            <Keyframe id="1161"  time="9120/1" value="0" leadInLength="28/1"  interpolater="leadin-linr"  />
            <Keyframe id="1162"  time="9526/1" value="0" leadInLength="30/1"  interpolater="leadin-linr"  />
            <Keyframe id="1163"  time="9609/1" value="0" leadInLength="30/1"  interpolater="leadin-linr"  />
            <Keyframe id="1164"  time="10083/1" value="0" leadInLength="30/1"  interpolater="leadin-linr"  />
            <Keyframe id="1165"  time="10450/1" value="0" leadInLength="30/1"  interpolater="leadin-linr"  />
            <Keyframe id="1166"  time="10921/1" value="0" leadInLength="30/1"  interpolater="leadin-linr"  />
            <Keyframe id="1167"  time="10922/1" value="0" leadInLength="1/1"  interpolater="leadin-linr"  />
            <Keyframe id="1168"  time="10947/1" value="0" leadInLength="25/1"  interpolater="leadin-linr"  />
            <Keyframe id="1169"  time="11436/1" value="0" leadInLength="14/1"  interpolater="leadin-linr"  />
            <Keyframe id="1170"  time="11451/1" value="0" leadInLength="15/1"  interpolater="leadin-linr"  />
            <Keyframe id="1171"  time="11494/1" value="0" leadInLength="30/1"  interpolater="leadin-linr"  />
            <Keyframe id="1172"  time="11768/1" value="0" leadInLength="14/1"  interpolater="leadin-linr"  />
            <Keyframe id="1173"  time="11792/1" value="0" leadInLength="23/1"  interpolater="leadin-linr"  />
            <Keyframe id="1174"  time="12078/1" value="0" leadInLength="14/1"  interpolater="leadin-linr"  />
            <Keyframe id="1175"  time="12106/1" value="0" leadInLength="27/1"  interpolater="leadin-linr"  />
            <Keyframe id="1176"  time="12192/1" value="0" leadInLength="30/1"  interpolater="leadin-linr"  />
            </Keyframes>
           </InterpolatingParam>
           <InterpolatingParam id="1177" interp="linr"  >
            <Keyframes>
            <Keyframe id="1178"  time="-9999999/1" value="0" leadInLength="0/1"  />
            <Keyframe id="1179"  time="8547/1" value="0" leadInLength="30/1"  interpolater="leadin-linr"  />
            <Keyframe id="1180"  time="9092/1" value="0" leadInLength="30/1"  interpolater="leadin-linr"  />
            <Keyframe id="1181"  time="9120/1" value="0" leadInLength="28/1"  interpolater="leadin-linr"  />
            <Keyframe id="1182"  time="9526/1" value="0" leadInLength="30/1"  interpolater="leadin-linr"  />
            <Keyframe id="1183"  time="9609/1" value="0" leadInLength="30/1"  interpolater="leadin-linr"  />
            <Keyframe id="1184"  time="10083/1" value="0" leadInLength="30/1"  interpolater="leadin-linr"  />
            <Keyframe id="1185"  time="10450/1" value="0" leadInLength="30/1"  interpolater="leadin-linr"  />
            <Keyframe id="1186"  time="10921/1" value="0" leadInLength="30/1"  interpolater="leadin-linr"  />
            <Keyframe id="1187"  time="10922/1" value="0" leadInLength="1/1"  interpolater="leadin-linr"  />
            <Keyframe id="1188"  time="10947/1" value="0" leadInLength="25/1"  interpolater="leadin-linr"  />
            <Keyframe id="1189"  time="11436/1" value="0" leadInLength="14/1"  interpolater="leadin-linr"  />
            <Keyframe id="1190"  time="11451/1" value="0" leadInLength="15/1"  interpolater="leadin-linr"  />
            <Keyframe id="1191"  time="11494/1" value="0" leadInLength="30/1"  interpolater="leadin-linr"  />
            <Keyframe id="1192"  time="11768/1" value="0" leadInLength="14/1"  interpolater="leadin-linr"  />
            <Keyframe id="1193"  time="11792/1" value="0" leadInLength="23/1"  interpolater="leadin-linr"  />
            <Keyframe id="1194"  time="12078/1" value="0" leadInLength="14/1"  interpolater="leadin-linr"  />
            <Keyframe id="1195"  time="12106/1" value="0" leadInLength="27/1"  interpolater="leadin-linr"  />
            <Keyframe id="1196"  time="12192/1" value="0" leadInLength="30/1"  interpolater="leadin-linr"  />
            </Keyframes>
           </InterpolatingParam>
          </VectorParam>
          <VectorParam id="1197"  name="scale">
           <InterpolatingParam id="1198" interp="linr"  >
            <Keyframes>
            <Keyframe id="1199"  time="-9999999/1" value="0.70833333333333337" leadInLength="0/1"  />
            <Keyframe id="1200"  time="8547/1" value="1.7146801316247364" leadInLength="30/1"  interpolater="leadin-linr"  />
            <Keyframe id="1201"  time="9092/1" value="0.70833333333333348" leadInLength="30/1"  interpolater="leadin-linr"  />
            <Keyframe id="1202"  time="9120/1" value="1.788645212897271" leadInLength="28/1"  interpolater="leadin-linr"  />
            <Keyframe id="1203"  time="9526/1" value="0.70833333333333348" leadInLength="30/1"  interpolater="leadin-linr"  />
            <Keyframe id="1204"  time="9609/1" value="1.4278057545609244" leadInLength="30/1"  interpolater="leadin-linr"  />
            <Keyframe id="1205"  time="10083/1" value="0.70833333333333337" leadInLength="30/1"  interpolater="leadin-linr"  />
            <Keyframe id="1206"  time="10450/1" value="1.8076927624110695" leadInLength="30/1"  interpolater="leadin-linr"  />
            <Keyframe id="1207"  time="10921/1" value="0.70833333333333337" leadInLength="30/1"  interpolater="leadin-linr"  />
            <Keyframe id="1208"  time="10922/1" value="0.70833333333333348" leadInLength="1/1"  interpolater="leadin-linr"  />
            <Keyframe id="1209"  time="10947/1" value="1.5520595304943849" leadInLength="25/1"  interpolater="leadin-linr"  />
            <Keyframe id="1210"  time="11436/1" value="1.1583206384858942" leadInLength="14/1"  interpolater="leadin-linr"  />
            <Keyframe id="1211"  time="11451/1" value="0.70833333333333348" leadInLength="15/1"  interpolater="leadin-linr"  />
            <Keyframe id="1212"  time="11494/1" value="1.8818695998273329" leadInLength="30/1"  interpolater="leadin-linr"  />
            <Keyframe id="1213"  time="11768/1" value="0.88475895174247254" leadInLength="14/1"  interpolater="leadin-linr"  />
            <Keyframe id="1214"  time="11792/1" value="1.4644431265153575" leadInLength="23/1"  interpolater="leadin-linr"  />
            <Keyframe id="1215"  time="12078/1" value="1.388832147197155" leadInLength="14/1"  interpolater="leadin-linr"  />
            <Keyframe id="1216"  time="12106/1" value="0.7083333333333337" leadInLength="27/1"  interpolater="leadin-linr"  />
            <Keyframe id="1217"  time="12192/1" value="1.3219723640373069" leadInLength="30/1"  interpolater="leadin-linr"  />
            </Keyframes>
           </InterpolatingParam>
           <InterpolatingParam id="1218" interp="linr"  >
            <Keyframes>
            <Keyframe id="1219"  time="-9999999/1" value="0.70833333333333337" leadInLength="0/1"  />
            <Keyframe id="1220"  time="8547/1" value="1.7146802487111406" leadInLength="30/1"  interpolater="leadin-linr"  />
            <Keyframe id="1221"  time="9092/1" value="0.70833336092062982" leadInLength="30/1"  interpolater="leadin-linr"  />
            <Keyframe id="1222"  time="9120/1" value="1.7886457930924129" leadInLength="28/1"  interpolater="leadin-linr"  />
            <Keyframe id="1223"  time="9526/1" value="0.70833356310028528" leadInLength="30/1"  interpolater="leadin-linr"  />
            <Keyframe id="1224"  time="9609/1" value="1.4278060965849342" leadInLength="30/1"  interpolater="leadin-linr"  />
            <Keyframe id="1225"  time="10083/1" value="0.70833350301118037" leadInLength="30/1"  interpolater="leadin-linr"  />
            <Keyframe id="1226"  time="10450/1" value="1.8076931250557322" leadInLength="30/1"  interpolater="leadin-linr"  />
            <Keyframe id="1227"  time="10921/1" value="0.70833347543342251" leadInLength="30/1"  interpolater="leadin-linr"  />
            <Keyframe id="1228"  time="10922/1" value="0.70833347543342251" leadInLength="1/1"  interpolater="leadin-linr"  />
            <Keyframe id="1229"  time="10947/1" value="1.5520595541534024" leadInLength="25/1"  interpolater="leadin-linr"  />
            <Keyframe id="1230"  time="11436/1" value="1.1583206561429025" leadInLength="14/1"  interpolater="leadin-linr"  />
            <Keyframe id="1231"  time="11451/1" value="0.70833334413090276" leadInLength="15/1"  interpolater="leadin-linr"  />
            <Keyframe id="1232"  time="11494/1" value="1.8818694601852817" leadInLength="30/1"  interpolater="leadin-linr"  />
            <Keyframe id="1233"  time="11768/1" value="0.88475885041262892" leadInLength="14/1"  interpolater="leadin-linr"  />
            <Keyframe id="1234"  time="11792/1" value="1.4644428649453285" leadInLength="23/1"  interpolater="leadin-linr"  />
            <Keyframe id="1235"  time="12078/1" value="1.3888318991323048" leadInLength="14/1"  interpolater="leadin-linr"  />
            <Keyframe id="1236"  time="12106/1" value="0.70833320681509038" leadInLength="27/1"  interpolater="leadin-linr"  />
            <Keyframe id="1237"  time="12192/1" value="1.3219719410159969" leadInLength="30/1"  interpolater="leadin-linr"  />
            </Keyframes>
           </InterpolatingParam>
           <InterpolatingParam id="1238" interp="linr"  >
            <Keyframes>
            <Keyframe id="1239"  time="-9999999/1" value="1" leadInLength="0/1"  />
            <Keyframe id="1240"  time="8547/1" value="0.99999999999999967" leadInLength="30/1"  interpolater="leadin-linr"  />
            <Keyframe id="1241"  time="9092/1" value="1" leadInLength="30/1"  interpolater="leadin-linr"  />
            <Keyframe id="1242"  time="9120/1" value="0.99999999999999989" leadInLength="28/1"  interpolater="leadin-linr"  />
            <Keyframe id="1243"  time="9526/1" value="0.99999999999999978" leadInLength="30/1"  interpolater="leadin-linr"  />
            <Keyframe id="1244"  time="9609/1" value="0.99999999999999978" leadInLength="30/1"  interpolater="leadin-linr"  />
            <Keyframe id="1245"  time="10083/1" value="0.99999999999999978" leadInLength="30/1"  interpolater="leadin-linr"  />
            <Keyframe id="1246"  time="10450/1" value="1" leadInLength="30/1"  interpolater="leadin-linr"  />
            <Keyframe id="1247"  time="10921/1" value="1" leadInLength="30/1"  interpolater="leadin-linr"  />
            <Keyframe id="1248"  time="10922/1" value="1" leadInLength="1/1"  interpolater="leadin-linr"  />
            <Keyframe id="1249"  time="10947/1" value="0.99999999999999956" leadInLength="25/1"  interpolater="leadin-linr"  />
            <Keyframe id="1250"  time="11436/1" value="0.99999999999999956" leadInLength="14/1"  interpolater="leadin-linr"  />
            <Keyframe id="1251"  time="11451/1" value="0.99999999999999956" leadInLength="15/1"  interpolater="leadin-linr"  />
            <Keyframe id="1252"  time="11494/1" value="0.99999999999999933" leadInLength="30/1"  interpolater="leadin-linr"  />
            <Keyframe id="1253"  time="11768/1" value="0.99999999999999922" leadInLength="14/1"  interpolater="leadin-linr"  />
            <Keyframe id="1254"  time="11792/1" value="0.99999999999999944" leadInLength="23/1"  interpolater="leadin-linr"  />
            <Keyframe id="1255"  time="12078/1" value="0.99999999999999944" leadInLength="14/1"  interpolater="leadin-linr"  />
            <Keyframe id="1256"  time="12106/1" value="0.99999999999999944" leadInLength="27/1"  interpolater="leadin-linr"  />
            <Keyframe id="1257"  time="12192/1" value="0.99999999999999933" leadInLength="30/1"  interpolater="leadin-linr"  />
            </Keyframes>
           </InterpolatingParam>
          </VectorParam>
          <VectorParam id="1258"  name="anchor">
           <InterpolatingParam id="1259" interp="linr"  time="0/1" value="0" leadInLength="0/1"  />
           <InterpolatingParam id="1260" interp="linr"  time="0/1" value="0" leadInLength="0/1"  />
           <InterpolatingParam id="1261" interp="linr"  time="0/1" value="0" leadInLength="0/1"  />
          </VectorParam>
         </Transformer>
         <Parameters>
          <VectorParam id="1262"  name="sourceCrop">
           <InterpolatingParam id="1263" interp="linr"  time="0/1" value="0" leadInLength="0/1"  />
           <InterpolatingParam id="1264" interp="linr"  time="0/1" value="0" leadInLength="0/1"  />
           <InterpolatingParam id="1265" interp="linr"  time="0/1" value="0" leadInLength="0/1"  />
           <InterpolatingParam id="1266" interp="linr"  time="0/1" value="0" leadInLength="0/1"  />
          </VectorParam>
          <VectorParam id="1267"  name="geometryCrop">
           <InterpolatingParam id="1268" interp="linr"  >
            <Keyframes>
            <Keyframe id="1269"  time="-9999999/1" value="0" leadInLength="0/1"  />
            <Keyframe id="1270"  time="8547/1" value="0" leadInLength="30/1"  interpolater="leadin-linr"  />
            <Keyframe id="1271"  time="9092/1" value="0" leadInLength="30/1"  interpolater="leadin-linr"  />
            <Keyframe id="1272"  time="9120/1" value="0" leadInLength="28/1"  interpolater="leadin-linr"  />
            <Keyframe id="1273"  time="9526/1" value="0" leadInLength="30/1"  interpolater="leadin-linr"  />
            <Keyframe id="1274"  time="9609/1" value="0" leadInLength="30/1"  interpolater="leadin-linr"  />
            <Keyframe id="1275"  time="10083/1" value="0" leadInLength="30/1"  interpolater="leadin-linr"  />
            <Keyframe id="1276"  time="10450/1" value="0" leadInLength="30/1"  interpolater="leadin-linr"  />
            <Keyframe id="1277"  time="10921/1" value="0" leadInLength="30/1"  interpolater="leadin-linr"  />
            <Keyframe id="1278"  time="10922/1" value="0" leadInLength="1/1"  interpolater="leadin-linr"  />
            <Keyframe id="1279"  time="10947/1" value="0" leadInLength="25/1"  interpolater="leadin-linr"  />
            <Keyframe id="1280"  time="11436/1" value="0" leadInLength="14/1"  interpolater="leadin-linr"  />
            <Keyframe id="1281"  time="11451/1" value="0" leadInLength="15/1"  interpolater="leadin-linr"  />
            <Keyframe id="1282"  time="11494/1" value="0" leadInLength="30/1"  interpolater="leadin-linr"  />
            <Keyframe id="1283"  time="11768/1" value="0" leadInLength="14/1"  interpolater="leadin-linr"  />
            <Keyframe id="1284"  time="11792/1" value="0" leadInLength="23/1"  interpolater="leadin-linr"  />
            <Keyframe id="1285"  time="12078/1" value="0" leadInLength="14/1"  interpolater="leadin-linr"  />
            <Keyframe id="1286"  time="12106/1" value="0" leadInLength="27/1"  interpolater="leadin-linr"  />
            <Keyframe id="1287"  time="12192/1" value="0" leadInLength="30/1"  interpolater="leadin-linr"  />
            </Keyframes>
           </InterpolatingParam>
           <InterpolatingParam id="1288" interp="linr"  >
            <Keyframes>
            <Keyframe id="1289"  time="-9999999/1" value="0" leadInLength="0/1"  />
            <Keyframe id="1290"  time="8547/1" value="0" leadInLength="30/1"  interpolater="leadin-linr"  />
            <Keyframe id="1291"  time="9092/1" value="0" leadInLength="30/1"  interpolater="leadin-linr"  />
            <Keyframe id="1292"  time="9120/1" value="0" leadInLength="28/1"  interpolater="leadin-linr"  />
            <Keyframe id="1293"  time="9526/1" value="0" leadInLength="30/1"  interpolater="leadin-linr"  />
            <Keyframe id="1294"  time="9609/1" value="0" leadInLength="30/1"  interpolater="leadin-linr"  />
            <Keyframe id="1295"  time="10083/1" value="0" leadInLength="30/1"  interpolater="leadin-linr"  />
            <Keyframe id="1296"  time="10450/1" value="0" leadInLength="30/1"  interpolater="leadin-linr"  />
            <Keyframe id="1297"  time="10921/1" value="0" leadInLength="30/1"  interpolater="leadin-linr"  />
            <Keyframe id="1298"  time="10922/1" value="0" leadInLength="1/1"  interpolater="leadin-linr"  />
            <Keyframe id="1299"  time="10947/1" value="0" leadInLength="25/1"  interpolater="leadin-linr"  />
            <Keyframe id="1300"  time="11436/1" value="0" leadInLength="14/1"  interpolater="leadin-linr"  />
            <Keyframe id="1301"  time="11451/1" value="0" leadInLength="15/1"  interpolater="leadin-linr"  />
            <Keyframe id="1302"  time="11494/1" value="0" leadInLength="30/1"  interpolater="leadin-linr"  />
            <Keyframe id="1303"  time="11768/1" value="0" leadInLength="14/1"  interpolater="leadin-linr"  />
            <Keyframe id="1304"  time="11792/1" value="0" leadInLength="23/1"  interpolater="leadin-linr"  />
            <Keyframe id="1305"  time="12078/1" value="0" leadInLength="14/1"  interpolater="leadin-linr"  />
            <Keyframe id="1306"  time="12106/1" value="0" leadInLength="27/1"  interpolater="leadin-linr"  />
            <Keyframe id="1307"  time="12192/1" value="0" leadInLength="30/1"  interpolater="leadin-linr"  />
            </Keyframes>
           </InterpolatingParam>
           <InterpolatingParam id="1308" interp="linr"  >
            <Keyframes>
            <Keyframe id="1309"  time="-9999999/1" value="0" leadInLength="0/1"  />
            <Keyframe id="1310"  time="8547/1" value="0" leadInLength="30/1"  interpolater="leadin-linr"  />
            <Keyframe id="1311"  time="9092/1" value="0" leadInLength="30/1"  interpolater="leadin-linr"  />
            <Keyframe id="1312"  time="9120/1" value="0" leadInLength="28/1"  interpolater="leadin-linr"  />
            <Keyframe id="1313"  time="9526/1" value="0" leadInLength="30/1"  interpolater="leadin-linr"  />
            <Keyframe id="1314"  time="9609/1" value="0" leadInLength="30/1"  interpolater="leadin-linr"  />
            <Keyframe id="1315"  time="10083/1" value="0" leadInLength="30/1"  interpolater="leadin-linr"  />
            <Keyframe id="1316"  time="10450/1" value="0" leadInLength="30/1"  interpolater="leadin-linr"  />
            <Keyframe id="1317"  time="10921/1" value="0" leadInLength="30/1"  interpolater="leadin-linr"  />
            <Keyframe id="1318"  time="10922/1" value="0" leadInLength="1/1"  interpolater="leadin-linr"  />
            <Keyframe id="1319"  time="10947/1" value="0" leadInLength="25/1"  interpolater="leadin-linr"  />
            <Keyframe id="1320"  time="11436/1" value="0" leadInLength="14/1"  interpolater="leadin-linr"  />
            <Keyframe id="1321"  time="11451/1" value="0" leadInLength="15/1"  interpolater="leadin-linr"  />
            <Keyframe id="1322"  time="11494/1" value="0" leadInLength="30/1"  interpolater="leadin-linr"  />
            <Keyframe id="1323"  time="11768/1" value="0" leadInLength="14/1"  interpolater="leadin-linr"  />
            <Keyframe id="1324"  time="11792/1" value="0" leadInLength="23/1"  interpolater="leadin-linr"  />
            <Keyframe id="1325"  time="12078/1" value="0" leadInLength="14/1"  interpolater="leadin-linr"  />
            <Keyframe id="1326"  time="12106/1" value="0" leadInLength="27/1"  interpolater="leadin-linr"  />
            <Keyframe id="1327"  time="12192/1" value="0" leadInLength="30/1"  interpolater="leadin-linr"  />
            </Keyframes>
           </InterpolatingParam>
           <InterpolatingParam id="1328" interp="linr"  >
            <Keyframes>
            <Keyframe id="1329"  time="-9999999/1" value="0" leadInLength="0/1"  />
            <Keyframe id="1330"  time="8547/1" value="0" leadInLength="30/1"  interpolater="leadin-linr"  />
            <Keyframe id="1331"  time="9092/1" value="0" leadInLength="30/1"  interpolater="leadin-linr"  />
            <Keyframe id="1332"  time="9120/1" value="0" leadInLength="28/1"  interpolater="leadin-linr"  />
            <Keyframe id="1333"  time="9526/1" value="0" leadInLength="30/1"  interpolater="leadin-linr"  />
            <Keyframe id="1334"  time="9609/1" value="0" leadInLength="30/1"  interpolater="leadin-linr"  />
            <Keyframe id="1335"  time="10083/1" value="0" leadInLength="30/1"  interpolater="leadin-linr"  />
            <Keyframe id="1336"  time="10450/1" value="0" leadInLength="30/1"  interpolater="leadin-linr"  />
            <Keyframe id="1337"  time="10921/1" value="0" leadInLength="30/1"  interpolater="leadin-linr"  />
            <Keyframe id="1338"  time="10922/1" value="0" leadInLength="1/1"  interpolater="leadin-linr"  />
            <Keyframe id="1339"  time="10947/1" value="0" leadInLength="25/1"  interpolater="leadin-linr"  />
            <Keyframe id="1340"  time="11436/1" value="0" leadInLength="14/1"  interpolater="leadin-linr"  />
            <Keyframe id="1341"  time="11451/1" value="0" leadInLength="15/1"  interpolater="leadin-linr"  />
            <Keyframe id="1342"  time="11494/1" value="0" leadInLength="30/1"  interpolater="leadin-linr"  />
            <Keyframe id="1343"  time="11768/1" value="0" leadInLength="14/1"  interpolater="leadin-linr"  />
            <Keyframe id="1344"  time="11792/1" value="0" leadInLength="23/1"  interpolater="leadin-linr"  />
            <Keyframe id="1345"  time="12078/1" value="0" leadInLength="14/1"  interpolater="leadin-linr"  />
            <Keyframe id="1346"  time="12106/1" value="0" leadInLength="27/1"  interpolater="leadin-linr"  />
            <Keyframe id="1347"  time="12192/1" value="0" leadInLength="30/1"  interpolater="leadin-linr"  />
            </Keyframes>
           </InterpolatingParam>
          </VectorParam>
          <InterpolatingParam id="1348" interp="linr"  name="opacity">
           <Keyframes>
           <Keyframe id="1349"  time="-9999999/1" value="1" leadInLength="0/1"  />
           <Keyframe id="1350"  time="8547/1" value="1" leadInLength="30/1"  interpolater="leadin-linr"  />
           <Keyframe id="1351"  time="9092/1" value="1" leadInLength="30/1"  interpolater="leadin-linr"  />
           <Keyframe id="1352"  time="9120/1" value="1" leadInLength="28/1"  interpolater="leadin-linr"  />
           <Keyframe id="1353"  time="9526/1" value="1" leadInLength="30/1"  interpolater="leadin-linr"  />
           <Keyframe id="1354"  time="9609/1" value="1" leadInLength="30/1"  interpolater="leadin-linr"  />
           <Keyframe id="1355"  time="10083/1" value="1" leadInLength="30/1"  interpolater="leadin-linr"  />
           <Keyframe id="1356"  time="10450/1" value="1" leadInLength="30/1"  interpolater="leadin-linr"  />
           <Keyframe id="1357"  time="10921/1" value="1" leadInLength="30/1"  interpolater="leadin-linr"  />
           <Keyframe id="1358"  time="10922/1" value="1" leadInLength="1/1"  interpolater="leadin-linr"  />
           <Keyframe id="1359"  time="10947/1" value="1" leadInLength="25/1"  interpolater="leadin-linr"  />
           <Keyframe id="1360"  time="11436/1" value="1" leadInLength="14/1"  interpolater="leadin-linr"  />
           <Keyframe id="1361"  time="11451/1" value="1" leadInLength="15/1"  interpolater="leadin-linr"  />
           <Keyframe id="1362"  time="11494/1" value="1" leadInLength="30/1"  interpolater="leadin-linr"  />
           <Keyframe id="1363"  time="11768/1" value="1" leadInLength="14/1"  interpolater="leadin-linr"  />
           <Keyframe id="1364"  time="11792/1" value="1" leadInLength="23/1"  interpolater="leadin-linr"  />
           <Keyframe id="1365"  time="12078/1" value="1" leadInLength="14/1"  interpolater="leadin-linr"  />
           <Keyframe id="1366"  time="12106/1" value="1" leadInLength="27/1"  interpolater="leadin-linr"  />
           <Keyframe id="1367"  time="12192/1" value="1" leadInLength="30/1"  interpolater="leadin-linr"  />
           </Keyframes>
          </InterpolatingParam>
          <InterpolatingParam id="1368" interp="linr"  time="0/1" value="1" leadInLength="0/1"  name="cursorOpacity"/>
          <InterpolatingParam id="1369" interp="linr"  time="0/1" value="1" leadInLength="0/1"  name="cursorScale"/>
          <Parameter id="1370"  name="captions"/>
         </Parameters>
         <Effects>
          <GenericEffect id="1371" name = "CursorBaseEffectName" >
           <Parameters>
           <InterpolatingParam id="1372" interp="linr"  time="-9999999/1" value="1" leadInLength="0/1"   name="cursorSize"/>
           <InterpolatingParam id="1373" interp="linr"  time="-9999999/1" value="0" leadInLength="0/1"   name="highlightBlurRadius"/>
           <InterpolatingParam id="1374" interp="linr"  time="-9999999/1" value="0" leadInLength="0/1"   name="highlightColorBlue"/>
           <InterpolatingParam id="1375" interp="linr"  time="-9999999/1" value="255" leadInLength="0/1"   name="highlightColorGreen"/>
           <InterpolatingParam id="1376" interp="linr"  time="-9999999/1" value="255" leadInLength="0/1"   name="highlightColorRed"/>
           <InterpolatingParam id="1377" interp="linr"  time="-9999999/1" value="5" leadInLength="0/1"   name="highlightFeatherSize"/>
           <InterpolatingParam id="1378" interp="linr"  time="-9999999/1" value="2" leadInLength="0/1"   name="highlightMagnification"/>
           <InterpolatingParam id="1379" interp="linr"  time="-9999999/1" value="1" leadInLength="0/1"   name="highlightOpacity"/>
           <InterpolatingParam id="1380" interp="linr"  time="-9999999/1" value="45" leadInLength="0/1"   name="highlightSize"/>
           <Parameter id="1381"   name="highlightType">
            <Keyframes>
            <Keyframe id="1382"  time="-9999999/1" value="0" leadInLength="0/1"  />
            </Keyframes>
           </Parameter>
           <InterpolatingParam id="1383" interp="linr"  time="-9999999/1" value="0" leadInLength="0/1"   name="leftClickColorBlue"/>
           <InterpolatingParam id="1384" interp="linr"  time="-9999999/1" value="0" leadInLength="0/1"   name="leftClickColorGreen"/>
           <InterpolatingParam id="1385" interp="linr"  time="-9999999/1" value="255" leadInLength="0/1"   name="leftClickColorRed"/>
           <InterpolatingParam id="1386" interp="linr"  time="-9999999/1" value="0.80000000000000004" leadInLength="0/1"   name="leftClickDuration"/>
           <InterpolatingParam id="1387" interp="linr"  time="-9999999/1" value="20" leadInLength="0/1"   name="leftClickSize"/>
           <Parameter id="1388"   name="leftClickSoundFilename">
            <Keyframes>
            <Keyframe id="1389"  time="-9999999/1" value="" leadInLength="0/1"  />
            </Keyframes>
           </Parameter>
           <InterpolatingParam id="1390" interp="linr"  time="-9999999/1" value="1" leadInLength="0/1"   name="leftClickSoundVolume"/>
           <Parameter id="1391"   name="leftClickType">
            <Keyframes>
            <Keyframe id="1392"  time="-9999999/1" value="0" leadInLength="0/1"  />
            </Keyframes>
           </Parameter>
           <InterpolatingParam id="1393" interp="linr"  time="-9999999/1" value="1" leadInLength="0/1"   name="opacity"/>
           <InterpolatingParam id="1394" interp="linr"  time="-9999999/1" value="255" leadInLength="0/1"   name="rightClickColorBlue"/>
           <InterpolatingParam id="1395" interp="linr"  time="-9999999/1" value="0" leadInLength="0/1"   name="rightClickColorGreen"/>
           <InterpolatingParam id="1396" interp="linr"  time="-9999999/1" value="0" leadInLength="0/1"   name="rightClickColorRed"/>
           <InterpolatingParam id="1397" interp="linr"  time="-9999999/1" value="0.80000000000000004" leadInLength="0/1"   name="rightClickDuration"/>
           <InterpolatingParam id="1398" interp="linr"  time="-9999999/1" value="20" leadInLength="0/1"   name="rightClickSize"/>
           <Parameter id="1399"   name="rightClickSoundFilename">
            <Keyframes>
            <Keyframe id="1400"  time="-9999999/1" value="" leadInLength="0/1"  />
            </Keyframes>
           </Parameter>
           <InterpolatingParam id="1401" interp="linr"  time="-9999999/1" value="1" leadInLength="0/1"   name="rightClickSoundVolume"/>
           <Parameter id="1402"   name="rightClickType">
            <Keyframes>
            <Keyframe id="1403"  time="-9999999/1" value="0" leadInLength="0/1"  />
            </Keyframes>
           </Parameter>
           </Parameters>
          </GenericEffect>
         </Effects>
         <Attributes>
          <Attribute id="1404" value="" name="ident"/>
         </Attributes>
         <MetaData>
          <entry key="AutoAppliedSmartFocus" val="False"/>
          <entry key="WinSubProjectDisplayName" val=""/>
         </MetaData>
         <ExtraData>
          <Entry key="ZoomPanBin">
           <ZoomPanBin id="1405"  >
            <ZoomPanKeyframes>
             <ZoomPanKeyframe id="1406" timeRangeEnd="-9999999/1" timeRangeDuration="0/1" interpolaterName="linr"  />
             <ZoomPanKeyframe id="1407" timeRangeEnd="8547/1" timeRangeDuration="30/1" interpolaterName="linr"  />
             <ZoomPanKeyframe id="1408" timeRangeEnd="9092/1" timeRangeDuration="30/1" interpolaterName="linr"  />
             <ZoomPanKeyframe id="1409" timeRangeEnd="9120/1" timeRangeDuration="28/1" interpolaterName="linr"  />
             <ZoomPanKeyframe id="1410" timeRangeEnd="9526/1" timeRangeDuration="30/1" interpolaterName="linr"  />
             <ZoomPanKeyframe id="1411" timeRangeEnd="9609/1" timeRangeDuration="30/1" interpolaterName="linr"  />
             <ZoomPanKeyframe id="1412" timeRangeEnd="10083/1" timeRangeDuration="30/1" interpolaterName="linr"  />
             <ZoomPanKeyframe id="1413" timeRangeEnd="10450/1" timeRangeDuration="30/1" interpolaterName="linr"  />
             <ZoomPanKeyframe id="1414" timeRangeEnd="10921/1" timeRangeDuration="30/1" interpolaterName="linr"  />
             <ZoomPanKeyframe id="1415" timeRangeEnd="10922/1" timeRangeDuration="1/1" interpolaterName="linr"  />
             <ZoomPanKeyframe id="1416" timeRangeEnd="10947/1" timeRangeDuration="25/1" interpolaterName="linr"  />
             <ZoomPanKeyframe id="1417" timeRangeEnd="11436/1" timeRangeDuration="14/1" interpolaterName="linr"  />
             <ZoomPanKeyframe id="1418" timeRangeEnd="11451/1" timeRangeDuration="15/1" interpolaterName="linr"  />
             <ZoomPanKeyframe id="1419" timeRangeEnd="11494/1" timeRangeDuration="30/1" interpolaterName="linr"  />
             <ZoomPanKeyframe id="1420" timeRangeEnd="11768/1" timeRangeDuration="14/1" interpolaterName="linr"  />
             <ZoomPanKeyframe id="1421" timeRangeEnd="11792/1" timeRangeDuration="23/1" interpolaterName="linr"  />
             <ZoomPanKeyframe id="1422" timeRangeEnd="12078/1" timeRangeDuration="14/1" interpolaterName="linr"  />
             <ZoomPanKeyframe id="1423" timeRangeEnd="12106/1" timeRangeDuration="27/1" interpolaterName="linr"  />
             <ZoomPanKeyframe id="1424" timeRangeEnd="12192/1" timeRangeDuration="30/1" interpolaterName="linr"  />
            </ZoomPanKeyframes>
           </ZoomPanBin>
          </Entry>
          <Entry key="CursorEffectBin">
           <CursorEffectBin id="1425"  >
            <CursorEffectKeyframes>
             <CursorEffectKeyframe id="1426" timeRangeEnd="-9999999/1" timeRangeDuration="0/1" interpolaterName=""  />
            </CursorEffectKeyframes>
           </CursorEffectBin>
          </Entry>
         </ExtraData>
         <GenericTrack id="1427"  >
          <Attributes>
           <Attribute id="1428" value="" name="ident"/>
           <Attribute id="1429" value="0" name="audioMuted"/>
           <Attribute id="1430" value="0" name="videoHidden"/>
          </Attributes>
          <MetaData>
           <entry key="IsLocked" val="False"/>
           <entry key="WinTrackHeight" val="0"/>
          </MetaData>
          <Medias>
           <ScreenVMFile id="1431" start="0" duration="5475" scalar="1/1" mediaStart="0/1" mediaDuration="5475/1" trackNumber="0" src="6" >
            <Transformer>
             <VectorParam id="1432"  name="translation">
              <InterpolatingParam id="1433" interp="linr"  time="-9999999/1" value="0" leadInLength="0/1"  />
              <InterpolatingParam id="1434" interp="linr"  time="-9999999/1" value="0" leadInLength="0/1"  />
              <InterpolatingParam id="1435" interp="linr"  time="-9999999/1" value="0" leadInLength="0/1"  />
             </VectorParam>
             <VectorParam id="1436"  name="rotation">
              <InterpolatingParam id="1437" interp="linr"  time="-9999999/1" value="0" leadInLength="0/1"  />
              <InterpolatingParam id="1438" interp="linr"  time="-9999999/1" value="0" leadInLength="0/1"  />
              <InterpolatingParam id="1439" interp="linr"  time="-9999999/1" value="0" leadInLength="0/1"  />
             </VectorParam>
             <VectorParam id="1440"  name="shear">
              <InterpolatingParam id="1441" interp="linr"  time="-9999999/1" value="0" leadInLength="0/1"  />
              <InterpolatingParam id="1442" interp="linr"  time="-9999999/1" value="0" leadInLength="0/1"  />
              <InterpolatingParam id="1443" interp="linr"  time="-9999999/1" value="0" leadInLength="0/1"  />
             </VectorParam>
             <VectorParam id="1444"  name="scale">
              <InterpolatingParam id="1445" interp="linr"  time="-9999999/1" value="1" leadInLength="0/1"  />
              <InterpolatingParam id="1446" interp="linr"  time="-9999999/1" value="1" leadInLength="0/1"  />
              <InterpolatingParam id="1447" interp="linr"  time="-9999999/1" value="1" leadInLength="0/1"  />
             </VectorParam>
             <VectorParam id="1448"  name="anchor">
              <InterpolatingParam id="1449" interp="linr"  time="0/1" value="0" leadInLength="0/1"  />
              <InterpolatingParam id="1450" interp="linr"  time="0/1" value="0" leadInLength="0/1"  />
              <InterpolatingParam id="1451" interp="linr"  time="0/1" value="0" leadInLength="0/1"  />
             </VectorParam>
            </Transformer>
            <Parameters>
             <VectorParam id="1452"  name="sourceCrop">
              <InterpolatingParam id="1453" interp="linr"  time="0/1" value="0" leadInLength="0/1"  />
              <InterpolatingParam id="1454" interp="linr"  time="0/1" value="0" leadInLength="0/1"  />
              <InterpolatingParam id="1455" interp="linr"  time="0/1" value="0" leadInLength="0/1"  />
              <InterpolatingParam id="1456" interp="linr"  time="0/1" value="0" leadInLength="0/1"  />
             </VectorParam>
             <VectorParam id="1457"  name="geometryCrop">
              <InterpolatingParam id="1458" interp="linr"  time="-9999999/1" value="0" leadInLength="0/1"  />
              <InterpolatingParam id="1459" interp="linr"  time="-9999999/1" value="0" leadInLength="0/1"  />
              <InterpolatingParam id="1460" interp="linr"  time="-9999999/1" value="0" leadInLength="0/1"  />
              <InterpolatingParam id="1461" interp="linr"  time="-9999999/1" value="0" leadInLength="0/1"  />
             </VectorParam>
             <InterpolatingParam id="1462" interp="linr"  time="-9999999/1" value="1" leadInLength="0/1"  name="opacity"/>
             <InterpolatingParam id="1463" interp="linr"  time="0/1" value="0" leadInLength="0/1"  name="cursorOpacity"/>
             <InterpolatingParam id="1464" interp="linr"  time="0/1" value="0" leadInLength="0/1"  name="cursorScale"/>
            </Parameters>
            <Attributes>
             <Attribute id="1465" value="" name="ident"/>
            </Attributes>
            <MetaData>
             <entry key="AutoAppliedSmartFocus" val="False"/>
             <entry key="WinSubProjectDisplayName" val=""/>
            </MetaData>
            <ExtraData>
             <Entry key="ZoomPanBin">
              <ZoomPanBin id="1466"  >
               <ZoomPanKeyframes>
                <ZoomPanKeyframe id="1467" timeRangeEnd="-9999999/1" timeRangeDuration="0/1" interpolaterName="linr"  />
               </ZoomPanKeyframes>
              </ZoomPanBin>
             </Entry>
             <Entry key="CursorEffectBin">
              <CursorEffectBin id="1468"  >
               <CursorEffectKeyframes>
               </CursorEffectKeyframes>
              </CursorEffectBin>
             </Entry>
            </ExtraData>
           </ScreenVMFile>
           <ScreenVMFile id="1469" start="5475" duration="2382" scalar="1/1" mediaStart="9607/1" mediaDuration="2382/1" trackNumber="0" src="6" >
            <Transformer>
             <VectorParam id="1470"  name="translation">
              <InterpolatingParam id="1471" interp="linr"  time="-9999999/1" value="0" leadInLength="0/1"  />
              <InterpolatingParam id="1472" interp="linr"  time="-9999999/1" value="0" leadInLength="0/1"  />
              <InterpolatingParam id="1473" interp="linr"  time="-9999999/1" value="0" leadInLength="0/1"  />
             </VectorParam>
             <VectorParam id="1474"  name="rotation">
              <InterpolatingParam id="1475" interp="linr"  time="-9999999/1" value="0" leadInLength="0/1"  />
              <InterpolatingParam id="1476" interp="linr"  time="-9999999/1" value="0" leadInLength="0/1"  />
              <InterpolatingParam id="1477" interp="linr"  time="-9999999/1" value="0" leadInLength="0/1"  />
             </VectorParam>
             <VectorParam id="1478"  name="shear">
              <InterpolatingParam id="1479" interp="linr"  time="-9999999/1" value="0" leadInLength="0/1"  />
              <InterpolatingParam id="1480" interp="linr"  time="-9999999/1" value="0" leadInLength="0/1"  />
              <InterpolatingParam id="1481" interp="linr"  time="-9999999/1" value="0" leadInLength="0/1"  />
             </VectorParam>
             <VectorParam id="1482"  name="scale">
              <InterpolatingParam id="1483" interp="linr"  time="-9999999/1" value="1" leadInLength="0/1"  />
              <InterpolatingParam id="1484" interp="linr"  time="-9999999/1" value="1" leadInLength="0/1"  />
              <InterpolatingParam id="1485" interp="linr"  time="-9999999/1" value="1" leadInLength="0/1"  />
             </VectorParam>
             <VectorParam id="1486"  name="anchor">
              <InterpolatingParam id="1487" interp="linr"  time="0/1" value="0" leadInLength="0/1"  />
              <InterpolatingParam id="1488" interp="linr"  time="0/1" value="0" leadInLength="0/1"  />
              <InterpolatingParam id="1489" interp="linr"  time="0/1" value="0" leadInLength="0/1"  />
             </VectorParam>
            </Transformer>
            <Parameters>
             <VectorParam id="1490"  name="sourceCrop">
              <InterpolatingParam id="1491" interp="linr"  time="0/1" value="0" leadInLength="0/1"  />
              <InterpolatingParam id="1492" interp="linr"  time="0/1" value="0" leadInLength="0/1"  />
              <InterpolatingParam id="1493" interp="linr"  time="0/1" value="0" leadInLength="0/1"  />
              <InterpolatingParam id="1494" interp="linr"  time="0/1" value="0" leadInLength="0/1"  />
             </VectorParam>
             <VectorParam id="1495"  name="geometryCrop">
              <InterpolatingParam id="1496" interp="linr"  time="-9999999/1" value="0" leadInLength="0/1"  />
              <InterpolatingParam id="1497" interp="linr"  time="-9999999/1" value="0" leadInLength="0/1"  />
              <InterpolatingParam id="1498" interp="linr"  time="-9999999/1" value="0" leadInLength="0/1"  />
              <InterpolatingParam id="1499" interp="linr"  time="-9999999/1" value="0" leadInLength="0/1"  />
             </VectorParam>
             <InterpolatingParam id="1500" interp="linr"  time="-9999999/1" value="1" leadInLength="0/1"  name="opacity"/>
             <InterpolatingParam id="1501" interp="linr"  time="0/1" value="0" leadInLength="0/1"  name="cursorOpacity"/>
             <InterpolatingParam id="1502" interp="linr"  time="0/1" value="0" leadInLength="0/1"  name="cursorScale"/>
            </Parameters>
            <Attributes>
             <Attribute id="1503" value="" name="ident"/>
            </Attributes>
            <MetaData>
             <entry key="AutoAppliedSmartFocus" val="False"/>
             <entry key="WinSubProjectDisplayName" val=""/>
            </MetaData>
            <ExtraData>
             <Entry key="ZoomPanBin">
              <ZoomPanBin id="1504"  >
               <ZoomPanKeyframes>
                <ZoomPanKeyframe id="1505" timeRangeEnd="-9999999/1" timeRangeDuration="0/1" interpolaterName="linr"  />
               </ZoomPanKeyframes>
              </ZoomPanBin>
             </Entry>
             <Entry key="CursorEffectBin">
              <CursorEffectBin id="1506"  >
               <CursorEffectKeyframes>
               </CursorEffectKeyframes>
              </CursorEffectBin>
             </Entry>
            </ExtraData>
           </ScreenVMFile>
           <ScreenVMFile id="1507" start="7857" duration="82" scalar="1/1" mediaStart="12444/1" mediaDuration="82/1" trackNumber="0" src="6" >
            <Transformer>
             <VectorParam id="1508"  name="translation">
              <InterpolatingParam id="1509" interp="linr"  time="-9999999/1" value="0" leadInLength="0/1"  />
              <InterpolatingParam id="1510" interp="linr"  time="-9999999/1" value="0" leadInLength="0/1"  />
              <InterpolatingParam id="1511" interp="linr"  time="-9999999/1" value="0" leadInLength="0/1"  />
             </VectorParam>
             <VectorParam id="1512"  name="rotation">
              <InterpolatingParam id="1513" interp="linr"  time="-9999999/1" value="0" leadInLength="0/1"  />
              <InterpolatingParam id="1514" interp="linr"  time="-9999999/1" value="0" leadInLength="0/1"  />
              <InterpolatingParam id="1515" interp="linr"  time="-9999999/1" value="0" leadInLength="0/1"  />
             </VectorParam>
             <VectorParam id="1516"  name="shear">
              <InterpolatingParam id="1517" interp="linr"  time="-9999999/1" value="0" leadInLength="0/1"  />
              <InterpolatingParam id="1518" interp="linr"  time="-9999999/1" value="0" leadInLength="0/1"  />
              <InterpolatingParam id="1519" interp="linr"  time="-9999999/1" value="0" leadInLength="0/1"  />
             </VectorParam>
             <VectorParam id="1520"  name="scale">
              <InterpolatingParam id="1521" interp="linr"  time="-9999999/1" value="1" leadInLength="0/1"  />
              <InterpolatingParam id="1522" interp="linr"  time="-9999999/1" value="1" leadInLength="0/1"  />
              <InterpolatingParam id="1523" interp="linr"  time="-9999999/1" value="1" leadInLength="0/1"  />
             </VectorParam>
             <VectorParam id="1524"  name="anchor">
              <InterpolatingParam id="1525" interp="linr"  time="0/1" value="0" leadInLength="0/1"  />
              <InterpolatingParam id="1526" interp="linr"  time="0/1" value="0" leadInLength="0/1"  />
              <InterpolatingParam id="1527" interp="linr"  time="0/1" value="0" leadInLength="0/1"  />
             </VectorParam>
            </Transformer>
            <Parameters>
             <VectorParam id="1528"  name="sourceCrop">
              <InterpolatingParam id="1529" interp="linr"  time="0/1" value="0" leadInLength="0/1"  />
              <InterpolatingParam id="1530" interp="linr"  time="0/1" value="0" leadInLength="0/1"  />
              <InterpolatingParam id="1531" interp="linr"  time="0/1" value="0" leadInLength="0/1"  />
              <InterpolatingParam id="1532" interp="linr"  time="0/1" value="0" leadInLength="0/1"  />
             </VectorParam>
             <VectorParam id="1533"  name="geometryCrop">
              <InterpolatingParam id="1534" interp="linr"  time="-9999999/1" value="0" leadInLength="0/1"  />
              <InterpolatingParam id="1535" interp="linr"  time="-9999999/1" value="0" leadInLength="0/1"  />
              <InterpolatingParam id="1536" interp="linr"  time="-9999999/1" value="0" leadInLength="0/1"  />
              <InterpolatingParam id="1537" interp="linr"  time="-9999999/1" value="0" leadInLength="0/1"  />
             </VectorParam>
             <InterpolatingParam id="1538" interp="linr"  time="-9999999/1" value="1" leadInLength="0/1"  name="opacity"/>
             <InterpolatingParam id="1539" interp="linr"  time="0/1" value="0" leadInLength="0/1"  name="cursorOpacity"/>
             <InterpolatingParam id="1540" interp="linr"  time="0/1" value="0" leadInLength="0/1"  name="cursorScale"/>
            </Parameters>
            <Attributes>
             <Attribute id="1541" value="" name="ident"/>
            </Attributes>
            <MetaData>
             <entry key="AutoAppliedSmartFocus" val="False"/>
             <entry key="WinSubProjectDisplayName" val=""/>
            </MetaData>
            <ExtraData>
             <Entry key="ZoomPanBin">
              <ZoomPanBin id="1542"  >
               <ZoomPanKeyframes>
                <ZoomPanKeyframe id="1543" timeRangeEnd="-9999999/1" timeRangeDuration="0/1" interpolaterName="linr"  />
               </ZoomPanKeyframes>
              </ZoomPanBin>
             </Entry>
             <Entry key="CursorEffectBin">
              <CursorEffectBin id="1544"  >
               <CursorEffectKeyframes>
               </CursorEffectKeyframes>
              </CursorEffectBin>
             </Entry>
            </ExtraData>
           </ScreenVMFile>
           <ScreenVMFile id="1545" start="7939" duration="99" scalar="1/1" mediaStart="12630/1" mediaDuration="99/1" trackNumber="0" src="6" >
            <Transformer>
             <VectorParam id="1546"  name="translation">
              <InterpolatingParam id="1547" interp="linr"  time="-9999999/1" value="0" leadInLength="0/1"  />
              <InterpolatingParam id="1548" interp="linr"  time="-9999999/1" value="0" leadInLength="0/1"  />
              <InterpolatingParam id="1549" interp="linr"  time="-9999999/1" value="0" leadInLength="0/1"  />
             </VectorParam>
             <VectorParam id="1550"  name="rotation">
              <InterpolatingParam id="1551" interp="linr"  time="-9999999/1" value="0" leadInLength="0/1"  />
              <InterpolatingParam id="1552" interp="linr"  time="-9999999/1" value="0" leadInLength="0/1"  />
              <InterpolatingParam id="1553" interp="linr"  time="-9999999/1" value="0" leadInLength="0/1"  />
             </VectorParam>
             <VectorParam id="1554"  name="shear">
              <InterpolatingParam id="1555" interp="linr"  time="-9999999/1" value="0" leadInLength="0/1"  />
              <InterpolatingParam id="1556" interp="linr"  time="-9999999/1" value="0" leadInLength="0/1"  />
              <InterpolatingParam id="1557" interp="linr"  time="-9999999/1" value="0" leadInLength="0/1"  />
             </VectorParam>
             <VectorParam id="1558"  name="scale">
              <InterpolatingParam id="1559" interp="linr"  time="-9999999/1" value="1" leadInLength="0/1"  />
              <InterpolatingParam id="1560" interp="linr"  time="-9999999/1" value="1" leadInLength="0/1"  />
              <InterpolatingParam id="1561" interp="linr"  time="-9999999/1" value="1" leadInLength="0/1"  />
             </VectorParam>
             <VectorParam id="1562"  name="anchor">
              <InterpolatingParam id="1563" interp="linr"  time="0/1" value="0" leadInLength="0/1"  />
              <InterpolatingParam id="1564" interp="linr"  time="0/1" value="0" leadInLength="0/1"  />
              <InterpolatingParam id="1565" interp="linr"  time="0/1" value="0" leadInLength="0/1"  />
             </VectorParam>
            </Transformer>
            <Parameters>
             <VectorParam id="1566"  name="sourceCrop">
              <InterpolatingParam id="1567" interp="linr"  time="0/1" value="0" leadInLength="0/1"  />
              <InterpolatingParam id="1568" interp="linr"  time="0/1" value="0" leadInLength="0/1"  />
              <InterpolatingParam id="1569" interp="linr"  time="0/1" value="0" leadInLength="0/1"  />
              <InterpolatingParam id="1570" interp="linr"  time="0/1" value="0" leadInLength="0/1"  />
             </VectorParam>
             <VectorParam id="1571"  name="geometryCrop">
              <InterpolatingParam id="1572" interp="linr"  time="-9999999/1" value="0" leadInLength="0/1"  />
              <InterpolatingParam id="1573" interp="linr"  time="-9999999/1" value="0" leadInLength="0/1"  />
              <InterpolatingParam id="1574" interp="linr"  time="-9999999/1" value="0" leadInLength="0/1"  />
              <InterpolatingParam id="1575" interp="linr"  time="-9999999/1" value="0" leadInLength="0/1"  />
             </VectorParam>
             <InterpolatingParam id="1576" interp="linr"  time="-9999999/1" value="1" leadInLength="0/1"  name="opacity"/>
             <InterpolatingParam id="1577" interp="linr"  time="0/1" value="0" leadInLength="0/1"  name="cursorOpacity"/>
             <InterpolatingParam id="1578" interp="linr"  time="0/1" value="0" leadInLength="0/1"  name="cursorScale"/>
            </Parameters>
            <Attributes>
             <Attribute id="1579" value="" name="ident"/>
            </Attributes>
            <MetaData>
             <entry key="AutoAppliedSmartFocus" val="False"/>
             <entry key="WinSubProjectDisplayName" val=""/>
            </MetaData>
            <ExtraData>
             <Entry key="ZoomPanBin">
              <ZoomPanBin id="1580"  >
               <ZoomPanKeyframes>
                <ZoomPanKeyframe id="1581" timeRangeEnd="-9999999/1" timeRangeDuration="0/1" interpolaterName="linr"  />
               </ZoomPanKeyframes>
              </ZoomPanBin>
             </Entry>
             <Entry key="CursorEffectBin">
              <CursorEffectBin id="1582"  >
               <CursorEffectKeyframes>
               </CursorEffectKeyframes>
              </CursorEffectBin>
             </Entry>
            </ExtraData>
           </ScreenVMFile>
           <ScreenVMFile id="1583" start="8038" duration="127" scalar="1/1" mediaStart="12735/1" mediaDuration="127/1" trackNumber="0" src="6" >
            <Transformer>
             <VectorParam id="1584"  name="translation">
              <InterpolatingParam id="1585" interp="linr"  time="-9999999/1" value="0" leadInLength="0/1"  />
              <InterpolatingParam id="1586" interp="linr"  time="-9999999/1" value="0" leadInLength="0/1"  />
              <InterpolatingParam id="1587" interp="linr"  time="-9999999/1" value="0" leadInLength="0/1"  />
             </VectorParam>
             <VectorParam id="1588"  name="rotation">
              <InterpolatingParam id="1589" interp="linr"  time="-9999999/1" value="0" leadInLength="0/1"  />
              <InterpolatingParam id="1590" interp="linr"  time="-9999999/1" value="0" leadInLength="0/1"  />
              <InterpolatingParam id="1591" interp="linr"  time="-9999999/1" value="0" leadInLength="0/1"  />
             </VectorParam>
             <VectorParam id="1592"  name="shear">
              <InterpolatingParam id="1593" interp="linr"  time="-9999999/1" value="0" leadInLength="0/1"  />
              <InterpolatingParam id="1594" interp="linr"  time="-9999999/1" value="0" leadInLength="0/1"  />
              <InterpolatingParam id="1595" interp="linr"  time="-9999999/1" value="0" leadInLength="0/1"  />
             </VectorParam>
             <VectorParam id="1596"  name="scale">
              <InterpolatingParam id="1597" interp="linr"  time="-9999999/1" value="1" leadInLength="0/1"  />
              <InterpolatingParam id="1598" interp="linr"  time="-9999999/1" value="1" leadInLength="0/1"  />
              <InterpolatingParam id="1599" interp="linr"  time="-9999999/1" value="1" leadInLength="0/1"  />
             </VectorParam>
             <VectorParam id="1600"  name="anchor">
              <InterpolatingParam id="1601" interp="linr"  time="0/1" value="0" leadInLength="0/1"  />
              <InterpolatingParam id="1602" interp="linr"  time="0/1" value="0" leadInLength="0/1"  />
              <InterpolatingParam id="1603" interp="linr"  time="0/1" value="0" leadInLength="0/1"  />
             </VectorParam>
            </Transformer>
            <Parameters>
             <VectorParam id="1604"  name="sourceCrop">
              <InterpolatingParam id="1605" interp="linr"  time="0/1" value="0" leadInLength="0/1"  />
              <InterpolatingParam id="1606" interp="linr"  time="0/1" value="0" leadInLength="0/1"  />
              <InterpolatingParam id="1607" interp="linr"  time="0/1" value="0" leadInLength="0/1"  />
              <InterpolatingParam id="1608" interp="linr"  time="0/1" value="0" leadInLength="0/1"  />
             </VectorParam>
             <VectorParam id="1609"  name="geometryCrop">
              <InterpolatingParam id="1610" interp="linr"  time="-9999999/1" value="0" leadInLength="0/1"  />
              <InterpolatingParam id="1611" interp="linr"  time="-9999999/1" value="0" leadInLength="0/1"  />
              <InterpolatingParam id="1612" interp="linr"  time="-9999999/1" value="0" leadInLength="0/1"  />
              <InterpolatingParam id="1613" interp="linr"  time="-9999999/1" value="0" leadInLength="0/1"  />
             </VectorParam>
             <InterpolatingParam id="1614" interp="linr"  time="-9999999/1" value="1" leadInLength="0/1"  name="opacity"/>
             <InterpolatingParam id="1615" interp="linr"  time="0/1" value="0" leadInLength="0/1"  name="cursorOpacity"/>
             <InterpolatingParam id="1616" interp="linr"  time="0/1" value="0" leadInLength="0/1"  name="cursorScale"/>
            </Parameters>
            <Attributes>
             <Attribute id="1617" value="" name="ident"/>
            </Attributes>
            <MetaData>
             <entry key="AutoAppliedSmartFocus" val="False"/>
             <entry key="WinSubProjectDisplayName" val=""/>
            </MetaData>
            <ExtraData>
             <Entry key="ZoomPanBin">
              <ZoomPanBin id="1618"  >
               <ZoomPanKeyframes>
                <ZoomPanKeyframe id="1619" timeRangeEnd="-9999999/1" timeRangeDuration="0/1" interpolaterName="linr"  />
               </ZoomPanKeyframes>
              </ZoomPanBin>
             </Entry>
             <Entry key="CursorEffectBin">
              <CursorEffectBin id="1620"  >
               <CursorEffectKeyframes>
               </CursorEffectKeyframes>
              </CursorEffectBin>
             </Entry>
            </ExtraData>
           </ScreenVMFile>
           <ScreenVMFile id="1621" start="8165" duration="195" scalar="1/1" mediaStart="12953/1" mediaDuration="195/1" trackNumber="0" src="6" >
            <Transformer>
             <VectorParam id="1622"  name="translation">
              <InterpolatingParam id="1623" interp="linr"  time="-9999999/1" value="0" leadInLength="0/1"  />
              <InterpolatingParam id="1624" interp="linr"  time="-9999999/1" value="0" leadInLength="0/1"  />
              <InterpolatingParam id="1625" interp="linr"  time="-9999999/1" value="0" leadInLength="0/1"  />
             </VectorParam>
             <VectorParam id="1626"  name="rotation">
              <InterpolatingParam id="1627" interp="linr"  time="-9999999/1" value="0" leadInLength="0/1"  />
              <InterpolatingParam id="1628" interp="linr"  time="-9999999/1" value="0" leadInLength="0/1"  />
              <InterpolatingParam id="1629" interp="linr"  time="-9999999/1" value="0" leadInLength="0/1"  />
             </VectorParam>
             <VectorParam id="1630"  name="shear">
              <InterpolatingParam id="1631" interp="linr"  time="-9999999/1" value="0" leadInLength="0/1"  />
              <InterpolatingParam id="1632" interp="linr"  time="-9999999/1" value="0" leadInLength="0/1"  />
              <InterpolatingParam id="1633" interp="linr"  time="-9999999/1" value="0" leadInLength="0/1"  />
             </VectorParam>
             <VectorParam id="1634"  name="scale">
              <InterpolatingParam id="1635" interp="linr"  time="-9999999/1" value="1" leadInLength="0/1"  />
              <InterpolatingParam id="1636" interp="linr"  time="-9999999/1" value="1" leadInLength="0/1"  />
              <InterpolatingParam id="1637" interp="linr"  time="-9999999/1" value="1" leadInLength="0/1"  />
             </VectorParam>
             <VectorParam id="1638"  name="anchor">
              <InterpolatingParam id="1639" interp="linr"  time="0/1" value="0" leadInLength="0/1"  />
              <InterpolatingParam id="1640" interp="linr"  time="0/1" value="0" leadInLength="0/1"  />
              <InterpolatingParam id="1641" interp="linr"  time="0/1" value="0" leadInLength="0/1"  />
             </VectorParam>
            </Transformer>
            <Parameters>
             <VectorParam id="1642"  name="sourceCrop">
              <InterpolatingParam id="1643" interp="linr"  time="0/1" value="0" leadInLength="0/1"  />
              <InterpolatingParam id="1644" interp="linr"  time="0/1" value="0" leadInLength="0/1"  />
              <InterpolatingParam id="1645" interp="linr"  time="0/1" value="0" leadInLength="0/1"  />
              <InterpolatingParam id="1646" interp="linr"  time="0/1" value="0" leadInLength="0/1"  />
             </VectorParam>
             <VectorParam id="1647"  name="geometryCrop">
              <InterpolatingParam id="1648" interp="linr"  time="-9999999/1" value="0" leadInLength="0/1"  />
              <InterpolatingParam id="1649" interp="linr"  time="-9999999/1" value="0" leadInLength="0/1"  />
              <InterpolatingParam id="1650" interp="linr"  time="-9999999/1" value="0" leadInLength="0/1"  />
              <InterpolatingParam id="1651" interp="linr"  time="-9999999/1" value="0" leadInLength="0/1"  />
             </VectorParam>
             <InterpolatingParam id="1652" interp="linr"  time="-9999999/1" value="1" leadInLength="0/1"  name="opacity"/>
             <InterpolatingParam id="1653" interp="linr"  time="0/1" value="0" leadInLength="0/1"  name="cursorOpacity"/>
             <InterpolatingParam id="1654" interp="linr"  time="0/1" value="0" leadInLength="0/1"  name="cursorScale"/>
            </Parameters>
            <Attributes>
             <Attribute id="1655" value="" name="ident"/>
            </Attributes>
            <MetaData>
             <entry key="AutoAppliedSmartFocus" val="False"/>
             <entry key="WinSubProjectDisplayName" val=""/>
            </MetaData>
            <ExtraData>
             <Entry key="ZoomPanBin">
              <ZoomPanBin id="1656"  >
               <ZoomPanKeyframes>
                <ZoomPanKeyframe id="1657" timeRangeEnd="-9999999/1" timeRangeDuration="0/1" interpolaterName="linr"  />
               </ZoomPanKeyframes>
              </ZoomPanBin>
             </Entry>
             <Entry key="CursorEffectBin">
              <CursorEffectBin id="1658"  >
               <CursorEffectKeyframes>
               </CursorEffectKeyframes>
              </CursorEffectBin>
             </Entry>
            </ExtraData>
           </ScreenVMFile>
           <ScreenVMFile id="1659" start="8360" duration="34" scalar="1/1" mediaStart="13648/1" mediaDuration="34/1" trackNumber="0" src="6" >
            <Transformer>
             <VectorParam id="1660"  name="translation">
              <InterpolatingParam id="1661" interp="linr"  time="-9999999/1" value="0" leadInLength="0/1"  />
              <InterpolatingParam id="1662" interp="linr"  time="-9999999/1" value="0" leadInLength="0/1"  />
              <InterpolatingParam id="1663" interp="linr"  time="-9999999/1" value="0" leadInLength="0/1"  />
             </VectorParam>
             <VectorParam id="1664"  name="rotation">
              <InterpolatingParam id="1665" interp="linr"  time="-9999999/1" value="0" leadInLength="0/1"  />
              <InterpolatingParam id="1666" interp="linr"  time="-9999999/1" value="0" leadInLength="0/1"  />
              <InterpolatingParam id="1667" interp="linr"  time="-9999999/1" value="0" leadInLength="0/1"  />
             </VectorParam>
             <VectorParam id="1668"  name="shear">
              <InterpolatingParam id="1669" interp="linr"  time="-9999999/1" value="0" leadInLength="0/1"  />
              <InterpolatingParam id="1670" interp="linr"  time="-9999999/1" value="0" leadInLength="0/1"  />
              <InterpolatingParam id="1671" interp="linr"  time="-9999999/1" value="0" leadInLength="0/1"  />
             </VectorParam>
             <VectorParam id="1672"  name="scale">
              <InterpolatingParam id="1673" interp="linr"  time="-9999999/1" value="1" leadInLength="0/1"  />
              <InterpolatingParam id="1674" interp="linr"  time="-9999999/1" value="1" leadInLength="0/1"  />
              <InterpolatingParam id="1675" interp="linr"  time="-9999999/1" value="1" leadInLength="0/1"  />
             </VectorParam>
             <VectorParam id="1676"  name="anchor">
              <InterpolatingParam id="1677" interp="linr"  time="0/1" value="0" leadInLength="0/1"  />
              <InterpolatingParam id="1678" interp="linr"  time="0/1" value="0" leadInLength="0/1"  />
              <InterpolatingParam id="1679" interp="linr"  time="0/1" value="0" leadInLength="0/1"  />
             </VectorParam>
            </Transformer>
            <Parameters>
             <VectorParam id="1680"  name="sourceCrop">
              <InterpolatingParam id="1681" interp="linr"  time="0/1" value="0" leadInLength="0/1"  />
              <InterpolatingParam id="1682" interp="linr"  time="0/1" value="0" leadInLength="0/1"  />
              <InterpolatingParam id="1683" interp="linr"  time="0/1" value="0" leadInLength="0/1"  />
              <InterpolatingParam id="1684" interp="linr"  time="0/1" value="0" leadInLength="0/1"  />
             </VectorParam>
             <VectorParam id="1685"  name="geometryCrop">
              <InterpolatingParam id="1686" interp="linr"  time="-9999999/1" value="0" leadInLength="0/1"  />
              <InterpolatingParam id="1687" interp="linr"  time="-9999999/1" value="0" leadInLength="0/1"  />
              <InterpolatingParam id="1688" interp="linr"  time="-9999999/1" value="0" leadInLength="0/1"  />
              <InterpolatingParam id="1689" interp="linr"  time="-9999999/1" value="0" leadInLength="0/1"  />
             </VectorParam>
             <InterpolatingParam id="1690" interp="linr"  time="-9999999/1" value="1" leadInLength="0/1"  name="opacity"/>
             <InterpolatingParam id="1691" interp="linr"  time="0/1" value="0" leadInLength="0/1"  name="cursorOpacity"/>
             <InterpolatingParam id="1692" interp="linr"  time="0/1" value="0" leadInLength="0/1"  name="cursorScale"/>
            </Parameters>
            <Attributes>
             <Attribute id="1693" value="" name="ident"/>
            </Attributes>
            <MetaData>
             <entry key="AutoAppliedSmartFocus" val="False"/>
             <entry key="WinSubProjectDisplayName" val=""/>
            </MetaData>
            <ExtraData>
             <Entry key="ZoomPanBin">
              <ZoomPanBin id="1694"  >
               <ZoomPanKeyframes>
                <ZoomPanKeyframe id="1695" timeRangeEnd="-9999999/1" timeRangeDuration="0/1" interpolaterName="linr"  />
               </ZoomPanKeyframes>
              </ZoomPanBin>
             </Entry>
             <Entry key="CursorEffectBin">
              <CursorEffectBin id="1696"  >
               <CursorEffectKeyframes>
               </CursorEffectKeyframes>
              </CursorEffectBin>
             </Entry>
            </ExtraData>
           </ScreenVMFile>
           <ScreenVMFile id="1697" start="8394" duration="1" scalar="1/1" mediaStart="14026/1" mediaDuration="1/1" trackNumber="0" src="6" >
            <Transformer>
             <VectorParam id="1698"  name="translation">
              <InterpolatingParam id="1699" interp="linr"  time="-9999999/1" value="0" leadInLength="0/1"  />
              <InterpolatingParam id="1700" interp="linr"  time="-9999999/1" value="0" leadInLength="0/1"  />
              <InterpolatingParam id="1701" interp="linr"  time="-9999999/1" value="0" leadInLength="0/1"  />
             </VectorParam>
             <VectorParam id="1702"  name="rotation">
              <InterpolatingParam id="1703" interp="linr"  time="-9999999/1" value="0" leadInLength="0/1"  />
              <InterpolatingParam id="1704" interp="linr"  time="-9999999/1" value="0" leadInLength="0/1"  />
              <InterpolatingParam id="1705" interp="linr"  time="-9999999/1" value="0" leadInLength="0/1"  />
             </VectorParam>
             <VectorParam id="1706"  name="shear">
              <InterpolatingParam id="1707" interp="linr"  time="-9999999/1" value="0" leadInLength="0/1"  />
              <InterpolatingParam id="1708" interp="linr"  time="-9999999/1" value="0" leadInLength="0/1"  />
              <InterpolatingParam id="1709" interp="linr"  time="-9999999/1" value="0" leadInLength="0/1"  />
             </VectorParam>
             <VectorParam id="1710"  name="scale">
              <InterpolatingParam id="1711" interp="linr"  time="-9999999/1" value="1" leadInLength="0/1"  />
              <InterpolatingParam id="1712" interp="linr"  time="-9999999/1" value="1" leadInLength="0/1"  />
              <InterpolatingParam id="1713" interp="linr"  time="-9999999/1" value="1" leadInLength="0/1"  />
             </VectorParam>
             <VectorParam id="1714"  name="anchor">
              <InterpolatingParam id="1715" interp="linr"  time="0/1" value="0" leadInLength="0/1"  />
              <InterpolatingParam id="1716" interp="linr"  time="0/1" value="0" leadInLength="0/1"  />
              <InterpolatingParam id="1717" interp="linr"  time="0/1" value="0" leadInLength="0/1"  />
             </VectorParam>
            </Transformer>
            <Parameters>
             <VectorParam id="1718"  name="sourceCrop">
              <InterpolatingParam id="1719" interp="linr"  time="0/1" value="0" leadInLength="0/1"  />
              <InterpolatingParam id="1720" interp="linr"  time="0/1" value="0" leadInLength="0/1"  />
              <InterpolatingParam id="1721" interp="linr"  time="0/1" value="0" leadInLength="0/1"  />
              <InterpolatingParam id="1722" interp="linr"  time="0/1" value="0" leadInLength="0/1"  />
             </VectorParam>
             <VectorParam id="1723"  name="geometryCrop">
              <InterpolatingParam id="1724" interp="linr"  time="-9999999/1" value="0" leadInLength="0/1"  />
              <InterpolatingParam id="1725" interp="linr"  time="-9999999/1" value="0" leadInLength="0/1"  />
              <InterpolatingParam id="1726" interp="linr"  time="-9999999/1" value="0" leadInLength="0/1"  />
              <InterpolatingParam id="1727" interp="linr"  time="-9999999/1" value="0" leadInLength="0/1"  />
             </VectorParam>
             <InterpolatingParam id="1728" interp="linr"  time="-9999999/1" value="1" leadInLength="0/1"  name="opacity"/>
             <InterpolatingParam id="1729" interp="linr"  time="0/1" value="0" leadInLength="0/1"  name="cursorOpacity"/>
             <InterpolatingParam id="1730" interp="linr"  time="0/1" value="0" leadInLength="0/1"  name="cursorScale"/>
            </Parameters>
            <Attributes>
             <Attribute id="1731" value="" name="ident"/>
            </Attributes>
            <MetaData>
             <entry key="AutoAppliedSmartFocus" val="False"/>
             <entry key="WinSubProjectDisplayName" val=""/>
            </MetaData>
            <ExtraData>
             <Entry key="ZoomPanBin">
              <ZoomPanBin id="1732"  >
               <ZoomPanKeyframes>
                <ZoomPanKeyframe id="1733" timeRangeEnd="-9999999/1" timeRangeDuration="0/1" interpolaterName="linr"  />
               </ZoomPanKeyframes>
              </ZoomPanBin>
             </Entry>
             <Entry key="CursorEffectBin">
              <CursorEffectBin id="1734"  >
               <CursorEffectKeyframes>
               </CursorEffectKeyframes>
              </CursorEffectBin>
             </Entry>
            </ExtraData>
           </ScreenVMFile>
           <ScreenVMFile id="1735" start="8395" duration="519" scalar="1/1" mediaStart="14067/1" mediaDuration="519/1" trackNumber="0" src="6" >
            <Transformer>
             <VectorParam id="1736"  name="translation">
              <InterpolatingParam id="1737" interp="linr"  time="-9999999/1" value="0" leadInLength="0/1"  />
              <InterpolatingParam id="1738" interp="linr"  time="-9999999/1" value="0" leadInLength="0/1"  />
              <InterpolatingParam id="1739" interp="linr"  time="-9999999/1" value="0" leadInLength="0/1"  />
             </VectorParam>
             <VectorParam id="1740"  name="rotation">
              <InterpolatingParam id="1741" interp="linr"  time="-9999999/1" value="0" leadInLength="0/1"  />
              <InterpolatingParam id="1742" interp="linr"  time="-9999999/1" value="0" leadInLength="0/1"  />
              <InterpolatingParam id="1743" interp="linr"  time="-9999999/1" value="0" leadInLength="0/1"  />
             </VectorParam>
             <VectorParam id="1744"  name="shear">
              <InterpolatingParam id="1745" interp="linr"  time="-9999999/1" value="0" leadInLength="0/1"  />
              <InterpolatingParam id="1746" interp="linr"  time="-9999999/1" value="0" leadInLength="0/1"  />
              <InterpolatingParam id="1747" interp="linr"  time="-9999999/1" value="0" leadInLength="0/1"  />
             </VectorParam>
             <VectorParam id="1748"  name="scale">
              <InterpolatingParam id="1749" interp="linr"  time="-9999999/1" value="1" leadInLength="0/1"  />
              <InterpolatingParam id="1750" interp="linr"  time="-9999999/1" value="1" leadInLength="0/1"  />
              <InterpolatingParam id="1751" interp="linr"  time="-9999999/1" value="1" leadInLength="0/1"  />
             </VectorParam>
             <VectorParam id="1752"  name="anchor">
              <InterpolatingParam id="1753" interp="linr"  time="0/1" value="0" leadInLength="0/1"  />
              <InterpolatingParam id="1754" interp="linr"  time="0/1" value="0" leadInLength="0/1"  />
              <InterpolatingParam id="1755" interp="linr"  time="0/1" value="0" leadInLength="0/1"  />
             </VectorParam>
            </Transformer>
            <Parameters>
             <VectorParam id="1756"  name="sourceCrop">
              <InterpolatingParam id="1757" interp="linr"  time="0/1" value="0" leadInLength="0/1"  />
              <InterpolatingParam id="1758" interp="linr"  time="0/1" value="0" leadInLength="0/1"  />
              <InterpolatingParam id="1759" interp="linr"  time="0/1" value="0" leadInLength="0/1"  />
              <InterpolatingParam id="1760" interp="linr"  time="0/1" value="0" leadInLength="0/1"  />
             </VectorParam>
             <VectorParam id="1761"  name="geometryCrop">
              <InterpolatingParam id="1762" interp="linr"  time="-9999999/1" value="0" leadInLength="0/1"  />
              <InterpolatingParam id="1763" interp="linr"  time="-9999999/1" value="0" leadInLength="0/1"  />
              <InterpolatingParam id="1764" interp="linr"  time="-9999999/1" value="0" leadInLength="0/1"  />
              <InterpolatingParam id="1765" interp="linr"  time="-9999999/1" value="0" leadInLength="0/1"  />
             </VectorParam>
             <InterpolatingParam id="1766" interp="linr"  time="-9999999/1" value="1" leadInLength="0/1"  name="opacity"/>
             <InterpolatingParam id="1767" interp="linr"  time="0/1" value="0" leadInLength="0/1"  name="cursorOpacity"/>
             <InterpolatingParam id="1768" interp="linr"  time="0/1" value="0" leadInLength="0/1"  name="cursorScale"/>
            </Parameters>
            <Attributes>
             <Attribute id="1769" value="" name="ident"/>
            </Attributes>
            <MetaData>
             <entry key="AutoAppliedSmartFocus" val="False"/>
             <entry key="WinSubProjectDisplayName" val=""/>
            </MetaData>
            <ExtraData>
             <Entry key="ZoomPanBin">
              <ZoomPanBin id="1770"  >
               <ZoomPanKeyframes>
                <ZoomPanKeyframe id="1771" timeRangeEnd="-9999999/1" timeRangeDuration="0/1" interpolaterName="linr"  />
               </ZoomPanKeyframes>
              </ZoomPanBin>
             </Entry>
             <Entry key="CursorEffectBin">
              <CursorEffectBin id="1772"  >
               <CursorEffectKeyframes>
               </CursorEffectKeyframes>
              </CursorEffectBin>
             </Entry>
            </ExtraData>
           </ScreenVMFile>
           <ScreenVMFile id="1773" start="8914" duration="124" scalar="1/1" mediaStart="14593/1" mediaDuration="124/1" trackNumber="0" src="6" >
            <Transformer>
             <VectorParam id="1774"  name="translation">
              <InterpolatingParam id="1775" interp="linr"  time="-9999999/1" value="0" leadInLength="0/1"  />
              <InterpolatingParam id="1776" interp="linr"  time="-9999999/1" value="0" leadInLength="0/1"  />
              <InterpolatingParam id="1777" interp="linr"  time="-9999999/1" value="0" leadInLength="0/1"  />
             </VectorParam>
             <VectorParam id="1778"  name="rotation">
              <InterpolatingParam id="1779" interp="linr"  time="-9999999/1" value="0" leadInLength="0/1"  />
              <InterpolatingParam id="1780" interp="linr"  time="-9999999/1" value="0" leadInLength="0/1"  />
              <InterpolatingParam id="1781" interp="linr"  time="-9999999/1" value="0" leadInLength="0/1"  />
             </VectorParam>
             <VectorParam id="1782"  name="shear">
              <InterpolatingParam id="1783" interp="linr"  time="-9999999/1" value="0" leadInLength="0/1"  />
              <InterpolatingParam id="1784" interp="linr"  time="-9999999/1" value="0" leadInLength="0/1"  />
              <InterpolatingParam id="1785" interp="linr"  time="-9999999/1" value="0" leadInLength="0/1"  />
             </VectorParam>
             <VectorParam id="1786"  name="scale">
              <InterpolatingParam id="1787" interp="linr"  time="-9999999/1" value="1" leadInLength="0/1"  />
              <InterpolatingParam id="1788" interp="linr"  time="-9999999/1" value="1" leadInLength="0/1"  />
              <InterpolatingParam id="1789" interp="linr"  time="-9999999/1" value="1" leadInLength="0/1"  />
             </VectorParam>
             <VectorParam id="1790"  name="anchor">
              <InterpolatingParam id="1791" interp="linr"  time="0/1" value="0" leadInLength="0/1"  />
              <InterpolatingParam id="1792" interp="linr"  time="0/1" value="0" leadInLength="0/1"  />
              <InterpolatingParam id="1793" interp="linr"  time="0/1" value="0" leadInLength="0/1"  />
             </VectorParam>
            </Transformer>
            <Parameters>
             <VectorParam id="1794"  name="sourceCrop">
              <InterpolatingParam id="1795" interp="linr"  time="0/1" value="0" leadInLength="0/1"  />
              <InterpolatingParam id="1796" interp="linr"  time="0/1" value="0" leadInLength="0/1"  />
              <InterpolatingParam id="1797" interp="linr"  time="0/1" value="0" leadInLength="0/1"  />
              <InterpolatingParam id="1798" interp="linr"  time="0/1" value="0" leadInLength="0/1"  />
             </VectorParam>
             <VectorParam id="1799"  name="geometryCrop">
              <InterpolatingParam id="1800" interp="linr"  time="-9999999/1" value="0" leadInLength="0/1"  />
              <InterpolatingParam id="1801" interp="linr"  time="-9999999/1" value="0" leadInLength="0/1"  />
              <InterpolatingParam id="1802" interp="linr"  time="-9999999/1" value="0" leadInLength="0/1"  />
              <InterpolatingParam id="1803" interp="linr"  time="-9999999/1" value="0" leadInLength="0/1"  />
             </VectorParam>
             <InterpolatingParam id="1804" interp="linr"  time="-9999999/1" value="1" leadInLength="0/1"  name="opacity"/>
             <InterpolatingParam id="1805" interp="linr"  time="0/1" value="0" leadInLength="0/1"  name="cursorOpacity"/>
             <InterpolatingParam id="1806" interp="linr"  time="0/1" value="0" leadInLength="0/1"  name="cursorScale"/>
            </Parameters>
            <Attributes>
             <Attribute id="1807" value="" name="ident"/>
            </Attributes>
            <MetaData>
             <entry key="AutoAppliedSmartFocus" val="False"/>
             <entry key="WinSubProjectDisplayName" val=""/>
            </MetaData>
            <ExtraData>
             <Entry key="ZoomPanBin">
              <ZoomPanBin id="1808"  >
               <ZoomPanKeyframes>
                <ZoomPanKeyframe id="1809" timeRangeEnd="-9999999/1" timeRangeDuration="0/1" interpolaterName="linr"  />
               </ZoomPanKeyframes>
              </ZoomPanBin>
             </Entry>
             <Entry key="CursorEffectBin">
              <CursorEffectBin id="1810"  >
               <CursorEffectKeyframes>
               </CursorEffectKeyframes>
              </CursorEffectBin>
             </Entry>
            </ExtraData>
           </ScreenVMFile>
           <ScreenVMFile id="1811" start="9038" duration="4" scalar="1/1" mediaStart="15728/1" mediaDuration="4/1" trackNumber="0" src="6" >
            <Transformer>
             <VectorParam id="1812"  name="translation">
              <InterpolatingParam id="1813" interp="linr"  time="-9999999/1" value="0" leadInLength="0/1"  />
              <InterpolatingParam id="1814" interp="linr"  time="-9999999/1" value="0" leadInLength="0/1"  />
              <InterpolatingParam id="1815" interp="linr"  time="-9999999/1" value="0" leadInLength="0/1"  />
             </VectorParam>
             <VectorParam id="1816"  name="rotation">
              <InterpolatingParam id="1817" interp="linr"  time="-9999999/1" value="0" leadInLength="0/1"  />
              <InterpolatingParam id="1818" interp="linr"  time="-9999999/1" value="0" leadInLength="0/1"  />
              <InterpolatingParam id="1819" interp="linr"  time="-9999999/1" value="0" leadInLength="0/1"  />
             </VectorParam>
             <VectorParam id="1820"  name="shear">
              <InterpolatingParam id="1821" interp="linr"  time="-9999999/1" value="0" leadInLength="0/1"  />
              <InterpolatingParam id="1822" interp="linr"  time="-9999999/1" value="0" leadInLength="0/1"  />
              <InterpolatingParam id="1823" interp="linr"  time="-9999999/1" value="0" leadInLength="0/1"  />
             </VectorParam>
             <VectorParam id="1824"  name="scale">
              <InterpolatingParam id="1825" interp="linr"  time="-9999999/1" value="1" leadInLength="0/1"  />
              <InterpolatingParam id="1826" interp="linr"  time="-9999999/1" value="1" leadInLength="0/1"  />
              <InterpolatingParam id="1827" interp="linr"  time="-9999999/1" value="1" leadInLength="0/1"  />
             </VectorParam>
             <VectorParam id="1828"  name="anchor">
              <InterpolatingParam id="1829" interp="linr"  time="0/1" value="0" leadInLength="0/1"  />
              <InterpolatingParam id="1830" interp="linr"  time="0/1" value="0" leadInLength="0/1"  />
              <InterpolatingParam id="1831" interp="linr"  time="0/1" value="0" leadInLength="0/1"  />
             </VectorParam>
            </Transformer>
            <Parameters>
             <VectorParam id="1832"  name="sourceCrop">
              <InterpolatingParam id="1833" interp="linr"  time="0/1" value="0" leadInLength="0/1"  />
              <InterpolatingParam id="1834" interp="linr"  time="0/1" value="0" leadInLength="0/1"  />
              <InterpolatingParam id="1835" interp="linr"  time="0/1" value="0" leadInLength="0/1"  />
              <InterpolatingParam id="1836" interp="linr"  time="0/1" value="0" leadInLength="0/1"  />
             </VectorParam>
             <VectorParam id="1837"  name="geometryCrop">
              <InterpolatingParam id="1838" interp="linr"  time="-9999999/1" value="0" leadInLength="0/1"  />
              <InterpolatingParam id="1839" interp="linr"  time="-9999999/1" value="0" leadInLength="0/1"  />
              <InterpolatingParam id="1840" interp="linr"  time="-9999999/1" value="0" leadInLength="0/1"  />
              <InterpolatingParam id="1841" interp="linr"  time="-9999999/1" value="0" leadInLength="0/1"  />
             </VectorParam>
             <InterpolatingParam id="1842" interp="linr"  time="-9999999/1" value="1" leadInLength="0/1"  name="opacity"/>
             <InterpolatingParam id="1843" interp="linr"  time="0/1" value="0" leadInLength="0/1"  name="cursorOpacity"/>
             <InterpolatingParam id="1844" interp="linr"  time="0/1" value="0" leadInLength="0/1"  name="cursorScale"/>
            </Parameters>
            <Attributes>
             <Attribute id="1845" value="" name="ident"/>
            </Attributes>
            <MetaData>
             <entry key="AutoAppliedSmartFocus" val="False"/>
             <entry key="WinSubProjectDisplayName" val=""/>
            </MetaData>
            <ExtraData>
             <Entry key="ZoomPanBin">
              <ZoomPanBin id="1846"  >
               <ZoomPanKeyframes>
                <ZoomPanKeyframe id="1847" timeRangeEnd="-9999999/1" timeRangeDuration="0/1" interpolaterName="linr"  />
               </ZoomPanKeyframes>
              </ZoomPanBin>
             </Entry>
             <Entry key="CursorEffectBin">
              <CursorEffectBin id="1848"  >
               <CursorEffectKeyframes>
               </CursorEffectKeyframes>
              </CursorEffectBin>
             </Entry>
            </ExtraData>
           </ScreenVMFile>
           <ScreenVMFile id="1849" start="9042" duration="643" scalar="1/1" mediaStart="15904/1" mediaDuration="643/1" trackNumber="0" src="6" >
            <Transformer>
             <VectorParam id="1850"  name="translation">
              <InterpolatingParam id="1851" interp="linr"  time="-9999999/1" value="0" leadInLength="0/1"  />
              <InterpolatingParam id="1852" interp="linr"  time="-9999999/1" value="0" leadInLength="0/1"  />
              <InterpolatingParam id="1853" interp="linr"  time="-9999999/1" value="0" leadInLength="0/1"  />
             </VectorParam>
             <VectorParam id="1854"  name="rotation">
              <InterpolatingParam id="1855" interp="linr"  time="-9999999/1" value="0" leadInLength="0/1"  />
              <InterpolatingParam id="1856" interp="linr"  time="-9999999/1" value="0" leadInLength="0/1"  />
              <InterpolatingParam id="1857" interp="linr"  time="-9999999/1" value="0" leadInLength="0/1"  />
             </VectorParam>
             <VectorParam id="1858"  name="shear">
              <InterpolatingParam id="1859" interp="linr"  time="-9999999/1" value="0" leadInLength="0/1"  />
              <InterpolatingParam id="1860" interp="linr"  time="-9999999/1" value="0" leadInLength="0/1"  />
              <InterpolatingParam id="1861" interp="linr"  time="-9999999/1" value="0" leadInLength="0/1"  />
             </VectorParam>
             <VectorParam id="1862"  name="scale">
              <InterpolatingParam id="1863" interp="linr"  time="-9999999/1" value="1" leadInLength="0/1"  />
              <InterpolatingParam id="1864" interp="linr"  time="-9999999/1" value="1" leadInLength="0/1"  />
              <InterpolatingParam id="1865" interp="linr"  time="-9999999/1" value="1" leadInLength="0/1"  />
             </VectorParam>
             <VectorParam id="1866"  name="anchor">
              <InterpolatingParam id="1867" interp="linr"  time="0/1" value="0" leadInLength="0/1"  />
              <InterpolatingParam id="1868" interp="linr"  time="0/1" value="0" leadInLength="0/1"  />
              <InterpolatingParam id="1869" interp="linr"  time="0/1" value="0" leadInLength="0/1"  />
             </VectorParam>
            </Transformer>
            <Parameters>
             <VectorParam id="1870"  name="sourceCrop">
              <InterpolatingParam id="1871" interp="linr"  time="0/1" value="0" leadInLength="0/1"  />
              <InterpolatingParam id="1872" interp="linr"  time="0/1" value="0" leadInLength="0/1"  />
              <InterpolatingParam id="1873" interp="linr"  time="0/1" value="0" leadInLength="0/1"  />
              <InterpolatingParam id="1874" interp="linr"  time="0/1" value="0" leadInLength="0/1"  />
             </VectorParam>
             <VectorParam id="1875"  name="geometryCrop">
              <InterpolatingParam id="1876" interp="linr"  time="-9999999/1" value="0" leadInLength="0/1"  />
              <InterpolatingParam id="1877" interp="linr"  time="-9999999/1" value="0" leadInLength="0/1"  />
              <InterpolatingParam id="1878" interp="linr"  time="-9999999/1" value="0" leadInLength="0/1"  />
              <InterpolatingParam id="1879" interp="linr"  time="-9999999/1" value="0" leadInLength="0/1"  />
             </VectorParam>
             <InterpolatingParam id="1880" interp="linr"  time="-9999999/1" value="1" leadInLength="0/1"  name="opacity"/>
             <InterpolatingParam id="1881" interp="linr"  time="0/1" value="0" leadInLength="0/1"  name="cursorOpacity"/>
             <InterpolatingParam id="1882" interp="linr"  time="0/1" value="0" leadInLength="0/1"  name="cursorScale"/>
            </Parameters>
            <Attributes>
             <Attribute id="1883" value="" name="ident"/>
            </Attributes>
            <MetaData>
             <entry key="AutoAppliedSmartFocus" val="False"/>
             <entry key="WinSubProjectDisplayName" val=""/>
            </MetaData>
            <ExtraData>
             <Entry key="ZoomPanBin">
              <ZoomPanBin id="1884"  >
               <ZoomPanKeyframes>
                <ZoomPanKeyframe id="1885" timeRangeEnd="-9999999/1" timeRangeDuration="0/1" interpolaterName="linr"  />
               </ZoomPanKeyframes>
              </ZoomPanBin>
             </Entry>
             <Entry key="CursorEffectBin">
              <CursorEffectBin id="1886"  >
               <CursorEffectKeyframes>
               </CursorEffectKeyframes>
              </CursorEffectBin>
             </Entry>
            </ExtraData>
           </ScreenVMFile>
           <ScreenVMFile id="1887" start="9685" duration="247" scalar="1/1" mediaStart="16556/1" mediaDuration="247/1" trackNumber="0" src="6" >
            <Transformer>
             <VectorParam id="1888"  name="translation">
              <InterpolatingParam id="1889" interp="linr"  time="-9999999/1" value="0" leadInLength="0/1"  />
              <InterpolatingParam id="1890" interp="linr"  time="-9999999/1" value="0" leadInLength="0/1"  />
              <InterpolatingParam id="1891" interp="linr"  time="-9999999/1" value="0" leadInLength="0/1"  />
             </VectorParam>
             <VectorParam id="1892"  name="rotation">
              <InterpolatingParam id="1893" interp="linr"  time="-9999999/1" value="0" leadInLength="0/1"  />
              <InterpolatingParam id="1894" interp="linr"  time="-9999999/1" value="0" leadInLength="0/1"  />
              <InterpolatingParam id="1895" interp="linr"  time="-9999999/1" value="0" leadInLength="0/1"  />
             </VectorParam>
             <VectorParam id="1896"  name="shear">
              <InterpolatingParam id="1897" interp="linr"  time="-9999999/1" value="0" leadInLength="0/1"  />
              <InterpolatingParam id="1898" interp="linr"  time="-9999999/1" value="0" leadInLength="0/1"  />
              <InterpolatingParam id="1899" interp="linr"  time="-9999999/1" value="0" leadInLength="0/1"  />
             </VectorParam>
             <VectorParam id="1900"  name="scale">
              <InterpolatingParam id="1901" interp="linr"  time="-9999999/1" value="1" leadInLength="0/1"  />
              <InterpolatingParam id="1902" interp="linr"  time="-9999999/1" value="1" leadInLength="0/1"  />
              <InterpolatingParam id="1903" interp="linr"  time="-9999999/1" value="1" leadInLength="0/1"  />
             </VectorParam>
             <VectorParam id="1904"  name="anchor">
              <InterpolatingParam id="1905" interp="linr"  time="0/1" value="0" leadInLength="0/1"  />
              <InterpolatingParam id="1906" interp="linr"  time="0/1" value="0" leadInLength="0/1"  />
              <InterpolatingParam id="1907" interp="linr"  time="0/1" value="0" leadInLength="0/1"  />
             </VectorParam>
            </Transformer>
            <Parameters>
             <VectorParam id="1908"  name="sourceCrop">
              <InterpolatingParam id="1909" interp="linr"  time="0/1" value="0" leadInLength="0/1"  />
              <InterpolatingParam id="1910" interp="linr"  time="0/1" value="0" leadInLength="0/1"  />
              <InterpolatingParam id="1911" interp="linr"  time="0/1" value="0" leadInLength="0/1"  />
              <InterpolatingParam id="1912" interp="linr"  time="0/1" value="0" leadInLength="0/1"  />
             </VectorParam>
             <VectorParam id="1913"  name="geometryCrop">
              <InterpolatingParam id="1914" interp="linr"  time="-9999999/1" value="0" leadInLength="0/1"  />
              <InterpolatingParam id="1915" interp="linr"  time="-9999999/1" value="0" leadInLength="0/1"  />
              <InterpolatingParam id="1916" interp="linr"  time="-9999999/1" value="0" leadInLength="0/1"  />
              <InterpolatingParam id="1917" interp="linr"  time="-9999999/1" value="0" leadInLength="0/1"  />
             </VectorParam>
             <InterpolatingParam id="1918" interp="linr"  time="-9999999/1" value="1" leadInLength="0/1"  name="opacity"/>
             <InterpolatingParam id="1919" interp="linr"  time="0/1" value="0" leadInLength="0/1"  name="cursorOpacity"/>
             <InterpolatingParam id="1920" interp="linr"  time="0/1" value="0" leadInLength="0/1"  name="cursorScale"/>
            </Parameters>
            <Attributes>
             <Attribute id="1921" value="" name="ident"/>
            </Attributes>
            <MetaData>
             <entry key="AutoAppliedSmartFocus" val="False"/>
             <entry key="WinSubProjectDisplayName" val=""/>
            </MetaData>
            <ExtraData>
             <Entry key="ZoomPanBin">
              <ZoomPanBin id="1922"  >
               <ZoomPanKeyframes>
                <ZoomPanKeyframe id="1923" timeRangeEnd="-9999999/1" timeRangeDuration="0/1" interpolaterName="linr"  />
               </ZoomPanKeyframes>
              </ZoomPanBin>
             </Entry>
             <Entry key="CursorEffectBin">
              <CursorEffectBin id="1924"  >
               <CursorEffectKeyframes>
               </CursorEffectKeyframes>
              </CursorEffectBin>
             </Entry>
            </ExtraData>
           </ScreenVMFile>
           <ScreenVMFile id="1925" start="9932" duration="198" scalar="1/1" mediaStart="16813/1" mediaDuration="198/1" trackNumber="0" src="6" >
            <Transformer>
             <VectorParam id="1926"  name="translation">
              <InterpolatingParam id="1927" interp="linr"  time="-9999999/1" value="0" leadInLength="0/1"  />
              <InterpolatingParam id="1928" interp="linr"  time="-9999999/1" value="0" leadInLength="0/1"  />
              <InterpolatingParam id="1929" interp="linr"  time="-9999999/1" value="0" leadInLength="0/1"  />
             </VectorParam>
             <VectorParam id="1930"  name="rotation">
              <InterpolatingParam id="1931" interp="linr"  time="-9999999/1" value="0" leadInLength="0/1"  />
              <InterpolatingParam id="1932" interp="linr"  time="-9999999/1" value="0" leadInLength="0/1"  />
              <InterpolatingParam id="1933" interp="linr"  time="-9999999/1" value="0" leadInLength="0/1"  />
             </VectorParam>
             <VectorParam id="1934"  name="shear">
              <InterpolatingParam id="1935" interp="linr"  time="-9999999/1" value="0" leadInLength="0/1"  />
              <InterpolatingParam id="1936" interp="linr"  time="-9999999/1" value="0" leadInLength="0/1"  />
              <InterpolatingParam id="1937" interp="linr"  time="-9999999/1" value="0" leadInLength="0/1"  />
             </VectorParam>
             <VectorParam id="1938"  name="scale">
              <InterpolatingParam id="1939" interp="linr"  time="-9999999/1" value="1" leadInLength="0/1"  />
              <InterpolatingParam id="1940" interp="linr"  time="-9999999/1" value="1" leadInLength="0/1"  />
              <InterpolatingParam id="1941" interp="linr"  time="-9999999/1" value="1" leadInLength="0/1"  />
             </VectorParam>
             <VectorParam id="1942"  name="anchor">
              <InterpolatingParam id="1943" interp="linr"  time="0/1" value="0" leadInLength="0/1"  />
              <InterpolatingParam id="1944" interp="linr"  time="0/1" value="0" leadInLength="0/1"  />
              <InterpolatingParam id="1945" interp="linr"  time="0/1" value="0" leadInLength="0/1"  />
             </VectorParam>
            </Transformer>
            <Parameters>
             <VectorParam id="1946"  name="sourceCrop">
              <InterpolatingParam id="1947" interp="linr"  time="0/1" value="0" leadInLength="0/1"  />
              <InterpolatingParam id="1948" interp="linr"  time="0/1" value="0" leadInLength="0/1"  />
              <InterpolatingParam id="1949" interp="linr"  time="0/1" value="0" leadInLength="0/1"  />
              <InterpolatingParam id="1950" interp="linr"  time="0/1" value="0" leadInLength="0/1"  />
             </VectorParam>
             <VectorParam id="1951"  name="geometryCrop">
              <InterpolatingParam id="1952" interp="linr"  time="-9999999/1" value="0" leadInLength="0/1"  />
              <InterpolatingParam id="1953" interp="linr"  time="-9999999/1" value="0" leadInLength="0/1"  />
              <InterpolatingParam id="1954" interp="linr"  time="-9999999/1" value="0" leadInLength="0/1"  />
              <InterpolatingParam id="1955" interp="linr"  time="-9999999/1" value="0" leadInLength="0/1"  />
             </VectorParam>
             <InterpolatingParam id="1956" interp="linr"  time="-9999999/1" value="1" leadInLength="0/1"  name="opacity"/>
             <InterpolatingParam id="1957" interp="linr"  time="0/1" value="0" leadInLength="0/1"  name="cursorOpacity"/>
             <InterpolatingParam id="1958" interp="linr"  time="0/1" value="0" leadInLength="0/1"  name="cursorScale"/>
            </Parameters>
            <Attributes>
             <Attribute id="1959" value="" name="ident"/>
            </Attributes>
            <MetaData>
             <entry key="AutoAppliedSmartFocus" val="False"/>
             <entry key="WinSubProjectDisplayName" val=""/>
            </MetaData>
            <ExtraData>
             <Entry key="ZoomPanBin">
              <ZoomPanBin id="1960"  >
               <ZoomPanKeyframes>
                <ZoomPanKeyframe id="1961" timeRangeEnd="-9999999/1" timeRangeDuration="0/1" interpolaterName="linr"  />
               </ZoomPanKeyframes>
              </ZoomPanBin>
             </Entry>
             <Entry key="CursorEffectBin">
              <CursorEffectBin id="1962"  >
               <CursorEffectKeyframes>
               </CursorEffectKeyframes>
              </CursorEffectBin>
             </Entry>
            </ExtraData>
           </ScreenVMFile>
           <ScreenVMFile id="1963" start="10130" duration="5" scalar="1/1" mediaStart="18689/1" mediaDuration="5/1" trackNumber="0" src="6" >
            <Transformer>
             <VectorParam id="1964"  name="translation">
              <InterpolatingParam id="1965" interp="linr"  time="-9999999/1" value="0" leadInLength="0/1"  />
              <InterpolatingParam id="1966" interp="linr"  time="-9999999/1" value="0" leadInLength="0/1"  />
              <InterpolatingParam id="1967" interp="linr"  time="-9999999/1" value="0" leadInLength="0/1"  />
             </VectorParam>
             <VectorParam id="1968"  name="rotation">
              <InterpolatingParam id="1969" interp="linr"  time="-9999999/1" value="0" leadInLength="0/1"  />
              <InterpolatingParam id="1970" interp="linr"  time="-9999999/1" value="0" leadInLength="0/1"  />
              <InterpolatingParam id="1971" interp="linr"  time="-9999999/1" value="0" leadInLength="0/1"  />
             </VectorParam>
             <VectorParam id="1972"  name="shear">
              <InterpolatingParam id="1973" interp="linr"  time="-9999999/1" value="0" leadInLength="0/1"  />
              <InterpolatingParam id="1974" interp="linr"  time="-9999999/1" value="0" leadInLength="0/1"  />
              <InterpolatingParam id="1975" interp="linr"  time="-9999999/1" value="0" leadInLength="0/1"  />
             </VectorParam>
             <VectorParam id="1976"  name="scale">
              <InterpolatingParam id="1977" interp="linr"  time="-9999999/1" value="1" leadInLength="0/1"  />
              <InterpolatingParam id="1978" interp="linr"  time="-9999999/1" value="1" leadInLength="0/1"  />
              <InterpolatingParam id="1979" interp="linr"  time="-9999999/1" value="1" leadInLength="0/1"  />
             </VectorParam>
             <VectorParam id="1980"  name="anchor">
              <InterpolatingParam id="1981" interp="linr"  time="0/1" value="0" leadInLength="0/1"  />
              <InterpolatingParam id="1982" interp="linr"  time="0/1" value="0" leadInLength="0/1"  />
              <InterpolatingParam id="1983" interp="linr"  time="0/1" value="0" leadInLength="0/1"  />
             </VectorParam>
            </Transformer>
            <Parameters>
             <VectorParam id="1984"  name="sourceCrop">
              <InterpolatingParam id="1985" interp="linr"  time="0/1" value="0" leadInLength="0/1"  />
              <InterpolatingParam id="1986" interp="linr"  time="0/1" value="0" leadInLength="0/1"  />
              <InterpolatingParam id="1987" interp="linr"  time="0/1" value="0" leadInLength="0/1"  />
              <InterpolatingParam id="1988" interp="linr"  time="0/1" value="0" leadInLength="0/1"  />
             </VectorParam>
             <VectorParam id="1989"  name="geometryCrop">
              <InterpolatingParam id="1990" interp="linr"  time="-9999999/1" value="0" leadInLength="0/1"  />
              <InterpolatingParam id="1991" interp="linr"  time="-9999999/1" value="0" leadInLength="0/1"  />
              <InterpolatingParam id="1992" interp="linr"  time="-9999999/1" value="0" leadInLength="0/1"  />
              <InterpolatingParam id="1993" interp="linr"  time="-9999999/1" value="0" leadInLength="0/1"  />
             </VectorParam>
             <InterpolatingParam id="1994" interp="linr"  time="-9999999/1" value="1" leadInLength="0/1"  name="opacity"/>
             <InterpolatingParam id="1995" interp="linr"  time="0/1" value="0" leadInLength="0/1"  name="cursorOpacity"/>
             <InterpolatingParam id="1996" interp="linr"  time="0/1" value="0" leadInLength="0/1"  name="cursorScale"/>
            </Parameters>
            <Attributes>
             <Attribute id="1997" value="" name="ident"/>
            </Attributes>
            <MetaData>
             <entry key="AutoAppliedSmartFocus" val="False"/>
             <entry key="WinSubProjectDisplayName" val=""/>
            </MetaData>
            <ExtraData>
             <Entry key="ZoomPanBin">
              <ZoomPanBin id="1998"  >
               <ZoomPanKeyframes>
                <ZoomPanKeyframe id="1999" timeRangeEnd="-9999999/1" timeRangeDuration="0/1" interpolaterName="linr"  />
               </ZoomPanKeyframes>
              </ZoomPanBin>
             </Entry>
             <Entry key="CursorEffectBin">
              <CursorEffectBin id="2000"  >
               <CursorEffectKeyframes>
               </CursorEffectKeyframes>
              </CursorEffectBin>
             </Entry>
            </ExtraData>
           </ScreenVMFile>
           <ScreenVMFile id="2001" start="10135" duration="471" scalar="1/1" mediaStart="18713/1" mediaDuration="471/1" trackNumber="0" src="6" >
            <Transformer>
             <VectorParam id="2002"  name="translation">
              <InterpolatingParam id="2003" interp="linr"  time="-9999999/1" value="0" leadInLength="0/1"  />
              <InterpolatingParam id="2004" interp="linr"  time="-9999999/1" value="0" leadInLength="0/1"  />
              <InterpolatingParam id="2005" interp="linr"  time="-9999999/1" value="0" leadInLength="0/1"  />
             </VectorParam>
             <VectorParam id="2006"  name="rotation">
              <InterpolatingParam id="2007" interp="linr"  time="-9999999/1" value="0" leadInLength="0/1"  />
              <InterpolatingParam id="2008" interp="linr"  time="-9999999/1" value="0" leadInLength="0/1"  />
              <InterpolatingParam id="2009" interp="linr"  time="-9999999/1" value="0" leadInLength="0/1"  />
             </VectorParam>
             <VectorParam id="2010"  name="shear">
              <InterpolatingParam id="2011" interp="linr"  time="-9999999/1" value="0" leadInLength="0/1"  />
              <InterpolatingParam id="2012" interp="linr"  time="-9999999/1" value="0" leadInLength="0/1"  />
              <InterpolatingParam id="2013" interp="linr"  time="-9999999/1" value="0" leadInLength="0/1"  />
             </VectorParam>
             <VectorParam id="2014"  name="scale">
              <InterpolatingParam id="2015" interp="linr"  time="-9999999/1" value="1" leadInLength="0/1"  />
              <InterpolatingParam id="2016" interp="linr"  time="-9999999/1" value="1" leadInLength="0/1"  />
              <InterpolatingParam id="2017" interp="linr"  time="-9999999/1" value="1" leadInLength="0/1"  />
             </VectorParam>
             <VectorParam id="2018"  name="anchor">
              <InterpolatingParam id="2019" interp="linr"  time="0/1" value="0" leadInLength="0/1"  />
              <InterpolatingParam id="2020" interp="linr"  time="0/1" value="0" leadInLength="0/1"  />
              <InterpolatingParam id="2021" interp="linr"  time="0/1" value="0" leadInLength="0/1"  />
             </VectorParam>
            </Transformer>
            <Parameters>
             <VectorParam id="2022"  name="sourceCrop">
              <InterpolatingParam id="2023" interp="linr"  time="0/1" value="0" leadInLength="0/1"  />
              <InterpolatingParam id="2024" interp="linr"  time="0/1" value="0" leadInLength="0/1"  />
              <InterpolatingParam id="2025" interp="linr"  time="0/1" value="0" leadInLength="0/1"  />
              <InterpolatingParam id="2026" interp="linr"  time="0/1" value="0" leadInLength="0/1"  />
             </VectorParam>
             <VectorParam id="2027"  name="geometryCrop">
              <InterpolatingParam id="2028" interp="linr"  time="-9999999/1" value="0" leadInLength="0/1"  />
              <InterpolatingParam id="2029" interp="linr"  time="-9999999/1" value="0" leadInLength="0/1"  />
              <InterpolatingParam id="2030" interp="linr"  time="-9999999/1" value="0" leadInLength="0/1"  />
              <InterpolatingParam id="2031" interp="linr"  time="-9999999/1" value="0" leadInLength="0/1"  />
             </VectorParam>
             <InterpolatingParam id="2032" interp="linr"  time="-9999999/1" value="1" leadInLength="0/1"  name="opacity"/>
             <InterpolatingParam id="2033" interp="linr"  time="0/1" value="0" leadInLength="0/1"  name="cursorOpacity"/>
             <InterpolatingParam id="2034" interp="linr"  time="0/1" value="0" leadInLength="0/1"  name="cursorScale"/>
            </Parameters>
            <Attributes>
             <Attribute id="2035" value="" name="ident"/>
            </Attributes>
            <MetaData>
             <entry key="AutoAppliedSmartFocus" val="False"/>
             <entry key="WinSubProjectDisplayName" val=""/>
            </MetaData>
            <ExtraData>
             <Entry key="ZoomPanBin">
              <ZoomPanBin id="2036"  >
               <ZoomPanKeyframes>
                <ZoomPanKeyframe id="2037" timeRangeEnd="-9999999/1" timeRangeDuration="0/1" interpolaterName="linr"  />
               </ZoomPanKeyframes>
              </ZoomPanBin>
             </Entry>
             <Entry key="CursorEffectBin">
              <CursorEffectBin id="2038"  >
               <CursorEffectKeyframes>
               </CursorEffectKeyframes>
              </CursorEffectBin>
             </Entry>
            </ExtraData>
           </ScreenVMFile>
           <ScreenVMFile id="2039" start="10606" duration="2" scalar="1/1" mediaStart="19248/1" mediaDuration="2/1" trackNumber="0" src="6" >
            <Transformer>
             <VectorParam id="2040"  name="translation">
              <InterpolatingParam id="2041" interp="linr"  time="-9999999/1" value="0" leadInLength="0/1"  />
              <InterpolatingParam id="2042" interp="linr"  time="-9999999/1" value="0" leadInLength="0/1"  />
              <InterpolatingParam id="2043" interp="linr"  time="-9999999/1" value="0" leadInLength="0/1"  />
             </VectorParam>
             <VectorParam id="2044"  name="rotation">
              <InterpolatingParam id="2045" interp="linr"  time="-9999999/1" value="0" leadInLength="0/1"  />
              <InterpolatingParam id="2046" interp="linr"  time="-9999999/1" value="0" leadInLength="0/1"  />
              <InterpolatingParam id="2047" interp="linr"  time="-9999999/1" value="0" leadInLength="0/1"  />
             </VectorParam>
             <VectorParam id="2048"  name="shear">
              <InterpolatingParam id="2049" interp="linr"  time="-9999999/1" value="0" leadInLength="0/1"  />
              <InterpolatingParam id="2050" interp="linr"  time="-9999999/1" value="0" leadInLength="0/1"  />
              <InterpolatingParam id="2051" interp="linr"  time="-9999999/1" value="0" leadInLength="0/1"  />
             </VectorParam>
             <VectorParam id="2052"  name="scale">
              <InterpolatingParam id="2053" interp="linr"  time="-9999999/1" value="1" leadInLength="0/1"  />
              <InterpolatingParam id="2054" interp="linr"  time="-9999999/1" value="1" leadInLength="0/1"  />
              <InterpolatingParam id="2055" interp="linr"  time="-9999999/1" value="1" leadInLength="0/1"  />
             </VectorParam>
             <VectorParam id="2056"  name="anchor">
              <InterpolatingParam id="2057" interp="linr"  time="0/1" value="0" leadInLength="0/1"  />
              <InterpolatingParam id="2058" interp="linr"  time="0/1" value="0" leadInLength="0/1"  />
              <InterpolatingParam id="2059" interp="linr"  time="0/1" value="0" leadInLength="0/1"  />
             </VectorParam>
            </Transformer>
            <Parameters>
             <VectorParam id="2060"  name="sourceCrop">
              <InterpolatingParam id="2061" interp="linr"  time="0/1" value="0" leadInLength="0/1"  />
              <InterpolatingParam id="2062" interp="linr"  time="0/1" value="0" leadInLength="0/1"  />
              <InterpolatingParam id="2063" interp="linr"  time="0/1" value="0" leadInLength="0/1"  />
              <InterpolatingParam id="2064" interp="linr"  time="0/1" value="0" leadInLength="0/1"  />
             </VectorParam>
             <VectorParam id="2065"  name="geometryCrop">
              <InterpolatingParam id="2066" interp="linr"  time="-9999999/1" value="0" leadInLength="0/1"  />
              <InterpolatingParam id="2067" interp="linr"  time="-9999999/1" value="0" leadInLength="0/1"  />
              <InterpolatingParam id="2068" interp="linr"  time="-9999999/1" value="0" leadInLength="0/1"  />
              <InterpolatingParam id="2069" interp="linr"  time="-9999999/1" value="0" leadInLength="0/1"  />
             </VectorParam>
             <InterpolatingParam id="2070" interp="linr"  time="-9999999/1" value="1" leadInLength="0/1"  name="opacity"/>
             <InterpolatingParam id="2071" interp="linr"  time="0/1" value="0" leadInLength="0/1"  name="cursorOpacity"/>
             <InterpolatingParam id="2072" interp="linr"  time="0/1" value="0" leadInLength="0/1"  name="cursorScale"/>
            </Parameters>
            <Attributes>
             <Attribute id="2073" value="" name="ident"/>
            </Attributes>
            <MetaData>
             <entry key="AutoAppliedSmartFocus" val="False"/>
             <entry key="WinSubProjectDisplayName" val=""/>
            </MetaData>
            <ExtraData>
             <Entry key="ZoomPanBin">
              <ZoomPanBin id="2074"  >
               <ZoomPanKeyframes>
                <ZoomPanKeyframe id="2075" timeRangeEnd="-9999999/1" timeRangeDuration="0/1" interpolaterName="linr"  />
               </ZoomPanKeyframes>
              </ZoomPanBin>
             </Entry>
             <Entry key="CursorEffectBin">
              <CursorEffectBin id="2076"  >
               <CursorEffectKeyframes>
               </CursorEffectKeyframes>
              </CursorEffectBin>
             </Entry>
            </ExtraData>
           </ScreenVMFile>
           <ScreenVMFile id="2077" start="10608" duration="209" scalar="1/1" mediaStart="19794/1" mediaDuration="209/1" trackNumber="0" src="6" >
            <Transformer>
             <VectorParam id="2078"  name="translation">
              <InterpolatingParam id="2079" interp="linr"  time="-9999999/1" value="0" leadInLength="0/1"  />
              <InterpolatingParam id="2080" interp="linr"  time="-9999999/1" value="0" leadInLength="0/1"  />
              <InterpolatingParam id="2081" interp="linr"  time="-9999999/1" value="0" leadInLength="0/1"  />
             </VectorParam>
             <VectorParam id="2082"  name="rotation">
              <InterpolatingParam id="2083" interp="linr"  time="-9999999/1" value="0" leadInLength="0/1"  />
              <InterpolatingParam id="2084" interp="linr"  time="-9999999/1" value="0" leadInLength="0/1"  />
              <InterpolatingParam id="2085" interp="linr"  time="-9999999/1" value="0" leadInLength="0/1"  />
             </VectorParam>
             <VectorParam id="2086"  name="shear">
              <InterpolatingParam id="2087" interp="linr"  time="-9999999/1" value="0" leadInLength="0/1"  />
              <InterpolatingParam id="2088" interp="linr"  time="-9999999/1" value="0" leadInLength="0/1"  />
              <InterpolatingParam id="2089" interp="linr"  time="-9999999/1" value="0" leadInLength="0/1"  />
             </VectorParam>
             <VectorParam id="2090"  name="scale">
              <InterpolatingParam id="2091" interp="linr"  time="-9999999/1" value="1" leadInLength="0/1"  />
              <InterpolatingParam id="2092" interp="linr"  time="-9999999/1" value="1" leadInLength="0/1"  />
              <InterpolatingParam id="2093" interp="linr"  time="-9999999/1" value="1" leadInLength="0/1"  />
             </VectorParam>
             <VectorParam id="2094"  name="anchor">
              <InterpolatingParam id="2095" interp="linr"  time="0/1" value="0" leadInLength="0/1"  />
              <InterpolatingParam id="2096" interp="linr"  time="0/1" value="0" leadInLength="0/1"  />
              <InterpolatingParam id="2097" interp="linr"  time="0/1" value="0" leadInLength="0/1"  />
             </VectorParam>
            </Transformer>
            <Parameters>
             <VectorParam id="2098"  name="sourceCrop">
              <InterpolatingParam id="2099" interp="linr"  time="0/1" value="0" leadInLength="0/1"  />
              <InterpolatingParam id="2100" interp="linr"  time="0/1" value="0" leadInLength="0/1"  />
              <InterpolatingParam id="2101" interp="linr"  time="0/1" value="0" leadInLength="0/1"  />
              <InterpolatingParam id="2102" interp="linr"  time="0/1" value="0" leadInLength="0/1"  />
             </VectorParam>
             <VectorParam id="2103"  name="geometryCrop">
              <InterpolatingParam id="2104" interp="linr"  time="-9999999/1" value="0" leadInLength="0/1"  />
              <InterpolatingParam id="2105" interp="linr"  time="-9999999/1" value="0" leadInLength="0/1"  />
              <InterpolatingParam id="2106" interp="linr"  time="-9999999/1" value="0" leadInLength="0/1"  />
              <InterpolatingParam id="2107" interp="linr"  time="-9999999/1" value="0" leadInLength="0/1"  />
             </VectorParam>
             <InterpolatingParam id="2108" interp="linr"  time="-9999999/1" value="1" leadInLength="0/1"  name="opacity"/>
             <InterpolatingParam id="2109" interp="linr"  time="0/1" value="0" leadInLength="0/1"  name="cursorOpacity"/>
             <InterpolatingParam id="2110" interp="linr"  time="0/1" value="0" leadInLength="0/1"  name="cursorScale"/>
            </Parameters>
            <Attributes>
             <Attribute id="2111" value="" name="ident"/>
            </Attributes>
            <MetaData>
             <entry key="AutoAppliedSmartFocus" val="False"/>
             <entry key="WinSubProjectDisplayName" val=""/>
            </MetaData>
            <ExtraData>
             <Entry key="ZoomPanBin">
              <ZoomPanBin id="2112"  >
               <ZoomPanKeyframes>
                <ZoomPanKeyframe id="2113" timeRangeEnd="-9999999/1" timeRangeDuration="0/1" interpolaterName="linr"  />
               </ZoomPanKeyframes>
              </ZoomPanBin>
             </Entry>
             <Entry key="CursorEffectBin">
              <CursorEffectBin id="2114"  >
               <CursorEffectKeyframes>
               </CursorEffectKeyframes>
              </CursorEffectBin>
             </Entry>
            </ExtraData>
           </ScreenVMFile>
           <ScreenVMFile id="2115" start="10817" duration="169" scalar="1/1" mediaStart="20123/1" mediaDuration="169/1" trackNumber="0" src="6" >
            <Transformer>
             <VectorParam id="2116"  name="translation">
              <InterpolatingParam id="2117" interp="linr"  time="-9999999/1" value="0" leadInLength="0/1"  />
              <InterpolatingParam id="2118" interp="linr"  time="-9999999/1" value="0" leadInLength="0/1"  />
              <InterpolatingParam id="2119" interp="linr"  time="-9999999/1" value="0" leadInLength="0/1"  />
             </VectorParam>
             <VectorParam id="2120"  name="rotation">
              <InterpolatingParam id="2121" interp="linr"  time="-9999999/1" value="0" leadInLength="0/1"  />
              <InterpolatingParam id="2122" interp="linr"  time="-9999999/1" value="0" leadInLength="0/1"  />
              <InterpolatingParam id="2123" interp="linr"  time="-9999999/1" value="0" leadInLength="0/1"  />
             </VectorParam>
             <VectorParam id="2124"  name="shear">
              <InterpolatingParam id="2125" interp="linr"  time="-9999999/1" value="0" leadInLength="0/1"  />
              <InterpolatingParam id="2126" interp="linr"  time="-9999999/1" value="0" leadInLength="0/1"  />
              <InterpolatingParam id="2127" interp="linr"  time="-9999999/1" value="0" leadInLength="0/1"  />
             </VectorParam>
             <VectorParam id="2128"  name="scale">
              <InterpolatingParam id="2129" interp="linr"  time="-9999999/1" value="1" leadInLength="0/1"  />
              <InterpolatingParam id="2130" interp="linr"  time="-9999999/1" value="1" leadInLength="0/1"  />
              <InterpolatingParam id="2131" interp="linr"  time="-9999999/1" value="1" leadInLength="0/1"  />
             </VectorParam>
             <VectorParam id="2132"  name="anchor">
              <InterpolatingParam id="2133" interp="linr"  time="0/1" value="0" leadInLength="0/1"  />
              <InterpolatingParam id="2134" interp="linr"  time="0/1" value="0" leadInLength="0/1"  />
              <InterpolatingParam id="2135" interp="linr"  time="0/1" value="0" leadInLength="0/1"  />
             </VectorParam>
            </Transformer>
            <Parameters>
             <VectorParam id="2136"  name="sourceCrop">
              <InterpolatingParam id="2137" interp="linr"  time="0/1" value="0" leadInLength="0/1"  />
              <InterpolatingParam id="2138" interp="linr"  time="0/1" value="0" leadInLength="0/1"  />
              <InterpolatingParam id="2139" interp="linr"  time="0/1" value="0" leadInLength="0/1"  />
              <InterpolatingParam id="2140" interp="linr"  time="0/1" value="0" leadInLength="0/1"  />
             </VectorParam>
             <VectorParam id="2141"  name="geometryCrop">
              <InterpolatingParam id="2142" interp="linr"  time="-9999999/1" value="0" leadInLength="0/1"  />
              <InterpolatingParam id="2143" interp="linr"  time="-9999999/1" value="0" leadInLength="0/1"  />
              <InterpolatingParam id="2144" interp="linr"  time="-9999999/1" value="0" leadInLength="0/1"  />
              <InterpolatingParam id="2145" interp="linr"  time="-9999999/1" value="0" leadInLength="0/1"  />
             </VectorParam>
             <InterpolatingParam id="2146" interp="linr"  time="-9999999/1" value="1" leadInLength="0/1"  name="opacity"/>
             <InterpolatingParam id="2147" interp="linr"  time="0/1" value="0" leadInLength="0/1"  name="cursorOpacity"/>
             <InterpolatingParam id="2148" interp="linr"  time="0/1" value="0" leadInLength="0/1"  name="cursorScale"/>
            </Parameters>
            <Attributes>
             <Attribute id="2149" value="" name="ident"/>
            </Attributes>
            <MetaData>
             <entry key="AutoAppliedSmartFocus" val="False"/>
             <entry key="WinSubProjectDisplayName" val=""/>
            </MetaData>
            <ExtraData>
             <Entry key="ZoomPanBin">
              <ZoomPanBin id="2150"  >
               <ZoomPanKeyframes>
                <ZoomPanKeyframe id="2151" timeRangeEnd="-9999999/1" timeRangeDuration="0/1" interpolaterName="linr"  />
               </ZoomPanKeyframes>
              </ZoomPanBin>
             </Entry>
             <Entry key="CursorEffectBin">
              <CursorEffectBin id="2152"  >
               <CursorEffectKeyframes>
               </CursorEffectKeyframes>
              </CursorEffectBin>
             </Entry>
            </ExtraData>
           </ScreenVMFile>
           <ScreenVMFile id="2153" start="10986" duration="33" scalar="1/1" mediaStart="20300/1" mediaDuration="33/1" trackNumber="0" src="6" >
            <Transformer>
             <VectorParam id="2154"  name="translation">
              <InterpolatingParam id="2155" interp="linr"  time="-9999999/1" value="0" leadInLength="0/1"  />
              <InterpolatingParam id="2156" interp="linr"  time="-9999999/1" value="0" leadInLength="0/1"  />
              <InterpolatingParam id="2157" interp="linr"  time="-9999999/1" value="0" leadInLength="0/1"  />
             </VectorParam>
             <VectorParam id="2158"  name="rotation">
              <InterpolatingParam id="2159" interp="linr"  time="-9999999/1" value="0" leadInLength="0/1"  />
              <InterpolatingParam id="2160" interp="linr"  time="-9999999/1" value="0" leadInLength="0/1"  />
              <InterpolatingParam id="2161" interp="linr"  time="-9999999/1" value="0" leadInLength="0/1"  />
             </VectorParam>
             <VectorParam id="2162"  name="shear">
              <InterpolatingParam id="2163" interp="linr"  time="-9999999/1" value="0" leadInLength="0/1"  />
              <InterpolatingParam id="2164" interp="linr"  time="-9999999/1" value="0" leadInLength="0/1"  />
              <InterpolatingParam id="2165" interp="linr"  time="-9999999/1" value="0" leadInLength="0/1"  />
             </VectorParam>
             <VectorParam id="2166"  name="scale">
              <InterpolatingParam id="2167" interp="linr"  time="-9999999/1" value="1" leadInLength="0/1"  />
              <InterpolatingParam id="2168" interp="linr"  time="-9999999/1" value="1" leadInLength="0/1"  />
              <InterpolatingParam id="2169" interp="linr"  time="-9999999/1" value="1" leadInLength="0/1"  />
             </VectorParam>
             <VectorParam id="2170"  name="anchor">
              <InterpolatingParam id="2171" interp="linr"  time="0/1" value="0" leadInLength="0/1"  />
              <InterpolatingParam id="2172" interp="linr"  time="0/1" value="0" leadInLength="0/1"  />
              <InterpolatingParam id="2173" interp="linr"  time="0/1" value="0" leadInLength="0/1"  />
             </VectorParam>
            </Transformer>
            <Parameters>
             <VectorParam id="2174"  name="sourceCrop">
              <InterpolatingParam id="2175" interp="linr"  time="0/1" value="0" leadInLength="0/1"  />
              <InterpolatingParam id="2176" interp="linr"  time="0/1" value="0" leadInLength="0/1"  />
              <InterpolatingParam id="2177" interp="linr"  time="0/1" value="0" leadInLength="0/1"  />
              <InterpolatingParam id="2178" interp="linr"  time="0/1" value="0" leadInLength="0/1"  />
             </VectorParam>
             <VectorParam id="2179"  name="geometryCrop">
              <InterpolatingParam id="2180" interp="linr"  time="-9999999/1" value="0" leadInLength="0/1"  />
              <InterpolatingParam id="2181" interp="linr"  time="-9999999/1" value="0" leadInLength="0/1"  />
              <InterpolatingParam id="2182" interp="linr"  time="-9999999/1" value="0" leadInLength="0/1"  />
              <InterpolatingParam id="2183" interp="linr"  time="-9999999/1" value="0" leadInLength="0/1"  />
             </VectorParam>
             <InterpolatingParam id="2184" interp="linr"  time="-9999999/1" value="1" leadInLength="0/1"  name="opacity"/>
             <InterpolatingParam id="2185" interp="linr"  time="0/1" value="0" leadInLength="0/1"  name="cursorOpacity"/>
             <InterpolatingParam id="2186" interp="linr"  time="0/1" value="0" leadInLength="0/1"  name="cursorScale"/>
            </Parameters>
            <Attributes>
             <Attribute id="2187" value="" name="ident"/>
            </Attributes>
            <MetaData>
             <entry key="AutoAppliedSmartFocus" val="False"/>
             <entry key="WinSubProjectDisplayName" val=""/>
            </MetaData>
            <ExtraData>
             <Entry key="ZoomPanBin">
              <ZoomPanBin id="2188"  >
               <ZoomPanKeyframes>
                <ZoomPanKeyframe id="2189" timeRangeEnd="-9999999/1" timeRangeDuration="0/1" interpolaterName="linr"  />
               </ZoomPanKeyframes>
              </ZoomPanBin>
             </Entry>
             <Entry key="CursorEffectBin">
              <CursorEffectBin id="2190"  >
               <CursorEffectKeyframes>
               </CursorEffectKeyframes>
              </CursorEffectBin>
             </Entry>
            </ExtraData>
           </ScreenVMFile>
           <ScreenVMFile id="2191" start="11019" duration="22" scalar="1/1" mediaStart="20342/1" mediaDuration="22/1" trackNumber="0" src="6" >
            <Transformer>
             <VectorParam id="2192"  name="translation">
              <InterpolatingParam id="2193" interp="linr"  time="-9999999/1" value="0" leadInLength="0/1"  />
              <InterpolatingParam id="2194" interp="linr"  time="-9999999/1" value="0" leadInLength="0/1"  />
              <InterpolatingParam id="2195" interp="linr"  time="-9999999/1" value="0" leadInLength="0/1"  />
             </VectorParam>
             <VectorParam id="2196"  name="rotation">
              <InterpolatingParam id="2197" interp="linr"  time="-9999999/1" value="0" leadInLength="0/1"  />
              <InterpolatingParam id="2198" interp="linr"  time="-9999999/1" value="0" leadInLength="0/1"  />
              <InterpolatingParam id="2199" interp="linr"  time="-9999999/1" value="0" leadInLength="0/1"  />
             </VectorParam>
             <VectorParam id="2200"  name="shear">
              <InterpolatingParam id="2201" interp="linr"  time="-9999999/1" value="0" leadInLength="0/1"  />
              <InterpolatingParam id="2202" interp="linr"  time="-9999999/1" value="0" leadInLength="0/1"  />
              <InterpolatingParam id="2203" interp="linr"  time="-9999999/1" value="0" leadInLength="0/1"  />
             </VectorParam>
             <VectorParam id="2204"  name="scale">
              <InterpolatingParam id="2205" interp="linr"  time="-9999999/1" value="1" leadInLength="0/1"  />
              <InterpolatingParam id="2206" interp="linr"  time="-9999999/1" value="1" leadInLength="0/1"  />
              <InterpolatingParam id="2207" interp="linr"  time="-9999999/1" value="1" leadInLength="0/1"  />
             </VectorParam>
             <VectorParam id="2208"  name="anchor">
              <InterpolatingParam id="2209" interp="linr"  time="0/1" value="0" leadInLength="0/1"  />
              <InterpolatingParam id="2210" interp="linr"  time="0/1" value="0" leadInLength="0/1"  />
              <InterpolatingParam id="2211" interp="linr"  time="0/1" value="0" leadInLength="0/1"  />
             </VectorParam>
            </Transformer>
            <Parameters>
             <VectorParam id="2212"  name="sourceCrop">
              <InterpolatingParam id="2213" interp="linr"  time="0/1" value="0" leadInLength="0/1"  />
              <InterpolatingParam id="2214" interp="linr"  time="0/1" value="0" leadInLength="0/1"  />
              <InterpolatingParam id="2215" interp="linr"  time="0/1" value="0" leadInLength="0/1"  />
              <InterpolatingParam id="2216" interp="linr"  time="0/1" value="0" leadInLength="0/1"  />
             </VectorParam>
             <VectorParam id="2217"  name="geometryCrop">
              <InterpolatingParam id="2218" interp="linr"  time="-9999999/1" value="0" leadInLength="0/1"  />
              <InterpolatingParam id="2219" interp="linr"  time="-9999999/1" value="0" leadInLength="0/1"  />
              <InterpolatingParam id="2220" interp="linr"  time="-9999999/1" value="0" leadInLength="0/1"  />
              <InterpolatingParam id="2221" interp="linr"  time="-9999999/1" value="0" leadInLength="0/1"  />
             </VectorParam>
             <InterpolatingParam id="2222" interp="linr"  time="-9999999/1" value="1" leadInLength="0/1"  name="opacity"/>
             <InterpolatingParam id="2223" interp="linr"  time="0/1" value="0" leadInLength="0/1"  name="cursorOpacity"/>
             <InterpolatingParam id="2224" interp="linr"  time="0/1" value="0" leadInLength="0/1"  name="cursorScale"/>
            </Parameters>
            <Attributes>
             <Attribute id="2225" value="" name="ident"/>
            </Attributes>
            <MetaData>
             <entry key="AutoAppliedSmartFocus" val="False"/>
             <entry key="WinSubProjectDisplayName" val=""/>
            </MetaData>
            <ExtraData>
             <Entry key="ZoomPanBin">
              <ZoomPanBin id="2226"  >
               <ZoomPanKeyframes>
                <ZoomPanKeyframe id="2227" timeRangeEnd="-9999999/1" timeRangeDuration="0/1" interpolaterName="linr"  />
               </ZoomPanKeyframes>
              </ZoomPanBin>
             </Entry>
             <Entry key="CursorEffectBin">
              <CursorEffectBin id="2228"  >
               <CursorEffectKeyframes>
               </CursorEffectKeyframes>
              </CursorEffectBin>
             </Entry>
            </ExtraData>
           </ScreenVMFile>
           <ScreenVMFile id="2229" start="11041" duration="115" scalar="1/1" mediaStart="20473/1" mediaDuration="115/1" trackNumber="0" src="6" >
            <Transformer>
             <VectorParam id="2230"  name="translation">
              <InterpolatingParam id="2231" interp="linr"  time="-9999999/1" value="0" leadInLength="0/1"  />
              <InterpolatingParam id="2232" interp="linr"  time="-9999999/1" value="0" leadInLength="0/1"  />
              <InterpolatingParam id="2233" interp="linr"  time="-9999999/1" value="0" leadInLength="0/1"  />
             </VectorParam>
             <VectorParam id="2234"  name="rotation">
              <InterpolatingParam id="2235" interp="linr"  time="-9999999/1" value="0" leadInLength="0/1"  />
              <InterpolatingParam id="2236" interp="linr"  time="-9999999/1" value="0" leadInLength="0/1"  />
              <InterpolatingParam id="2237" interp="linr"  time="-9999999/1" value="0" leadInLength="0/1"  />
             </VectorParam>
             <VectorParam id="2238"  name="shear">
              <InterpolatingParam id="2239" interp="linr"  time="-9999999/1" value="0" leadInLength="0/1"  />
              <InterpolatingParam id="2240" interp="linr"  time="-9999999/1" value="0" leadInLength="0/1"  />
              <InterpolatingParam id="2241" interp="linr"  time="-9999999/1" value="0" leadInLength="0/1"  />
             </VectorParam>
             <VectorParam id="2242"  name="scale">
              <InterpolatingParam id="2243" interp="linr"  time="-9999999/1" value="1" leadInLength="0/1"  />
              <InterpolatingParam id="2244" interp="linr"  time="-9999999/1" value="1" leadInLength="0/1"  />
              <InterpolatingParam id="2245" interp="linr"  time="-9999999/1" value="1" leadInLength="0/1"  />
             </VectorParam>
             <VectorParam id="2246"  name="anchor">
              <InterpolatingParam id="2247" interp="linr"  time="0/1" value="0" leadInLength="0/1"  />
              <InterpolatingParam id="2248" interp="linr"  time="0/1" value="0" leadInLength="0/1"  />
              <InterpolatingParam id="2249" interp="linr"  time="0/1" value="0" leadInLength="0/1"  />
             </VectorParam>
            </Transformer>
            <Parameters>
             <VectorParam id="2250"  name="sourceCrop">
              <InterpolatingParam id="2251" interp="linr"  time="0/1" value="0" leadInLength="0/1"  />
              <InterpolatingParam id="2252" interp="linr"  time="0/1" value="0" leadInLength="0/1"  />
              <InterpolatingParam id="2253" interp="linr"  time="0/1" value="0" leadInLength="0/1"  />
              <InterpolatingParam id="2254" interp="linr"  time="0/1" value="0" leadInLength="0/1"  />
             </VectorParam>
             <VectorParam id="2255"  name="geometryCrop">
              <InterpolatingParam id="2256" interp="linr"  time="-9999999/1" value="0" leadInLength="0/1"  />
              <InterpolatingParam id="2257" interp="linr"  time="-9999999/1" value="0" leadInLength="0/1"  />
              <InterpolatingParam id="2258" interp="linr"  time="-9999999/1" value="0" leadInLength="0/1"  />
              <InterpolatingParam id="2259" interp="linr"  time="-9999999/1" value="0" leadInLength="0/1"  />
             </VectorParam>
             <InterpolatingParam id="2260" interp="linr"  time="-9999999/1" value="1" leadInLength="0/1"  name="opacity"/>
             <InterpolatingParam id="2261" interp="linr"  time="0/1" value="0" leadInLength="0/1"  name="cursorOpacity"/>
             <InterpolatingParam id="2262" interp="linr"  time="0/1" value="0" leadInLength="0/1"  name="cursorScale"/>
            </Parameters>
            <Attributes>
             <Attribute id="2263" value="" name="ident"/>
            </Attributes>
            <MetaData>
             <entry key="AutoAppliedSmartFocus" val="False"/>
             <entry key="WinSubProjectDisplayName" val=""/>
            </MetaData>
            <ExtraData>
             <Entry key="ZoomPanBin">
              <ZoomPanBin id="2264"  >
               <ZoomPanKeyframes>
                <ZoomPanKeyframe id="2265" timeRangeEnd="-9999999/1" timeRangeDuration="0/1" interpolaterName="linr"  />
               </ZoomPanKeyframes>
              </ZoomPanBin>
             </Entry>
             <Entry key="CursorEffectBin">
              <CursorEffectBin id="2266"  >
               <CursorEffectKeyframes>
               </CursorEffectKeyframes>
              </CursorEffectBin>
             </Entry>
            </ExtraData>
           </ScreenVMFile>
           <ScreenVMFile id="2267" start="11156" duration="112" scalar="1/1" mediaStart="20954/1" mediaDuration="112/1" trackNumber="0" src="6" >
            <Transformer>
             <VectorParam id="2268"  name="translation">
              <InterpolatingParam id="2269" interp="linr"  time="-9999999/1" value="0" leadInLength="0/1"  />
              <InterpolatingParam id="2270" interp="linr"  time="-9999999/1" value="0" leadInLength="0/1"  />
              <InterpolatingParam id="2271" interp="linr"  time="-9999999/1" value="0" leadInLength="0/1"  />
             </VectorParam>
             <VectorParam id="2272"  name="rotation">
              <InterpolatingParam id="2273" interp="linr"  time="-9999999/1" value="0" leadInLength="0/1"  />
              <InterpolatingParam id="2274" interp="linr"  time="-9999999/1" value="0" leadInLength="0/1"  />
              <InterpolatingParam id="2275" interp="linr"  time="-9999999/1" value="0" leadInLength="0/1"  />
             </VectorParam>
             <VectorParam id="2276"  name="shear">
              <InterpolatingParam id="2277" interp="linr"  time="-9999999/1" value="0" leadInLength="0/1"  />
              <InterpolatingParam id="2278" interp="linr"  time="-9999999/1" value="0" leadInLength="0/1"  />
              <InterpolatingParam id="2279" interp="linr"  time="-9999999/1" value="0" leadInLength="0/1"  />
             </VectorParam>
             <VectorParam id="2280"  name="scale">
              <InterpolatingParam id="2281" interp="linr"  time="-9999999/1" value="1" leadInLength="0/1"  />
              <InterpolatingParam id="2282" interp="linr"  time="-9999999/1" value="1" leadInLength="0/1"  />
              <InterpolatingParam id="2283" interp="linr"  time="-9999999/1" value="1" leadInLength="0/1"  />
             </VectorParam>
             <VectorParam id="2284"  name="anchor">
              <InterpolatingParam id="2285" interp="linr"  time="0/1" value="0" leadInLength="0/1"  />
              <InterpolatingParam id="2286" interp="linr"  time="0/1" value="0" leadInLength="0/1"  />
              <InterpolatingParam id="2287" interp="linr"  time="0/1" value="0" leadInLength="0/1"  />
             </VectorParam>
            </Transformer>
            <Parameters>
             <VectorParam id="2288"  name="sourceCrop">
              <InterpolatingParam id="2289" interp="linr"  time="0/1" value="0" leadInLength="0/1"  />
              <InterpolatingParam id="2290" interp="linr"  time="0/1" value="0" leadInLength="0/1"  />
              <InterpolatingParam id="2291" interp="linr"  time="0/1" value="0" leadInLength="0/1"  />
              <InterpolatingParam id="2292" interp="linr"  time="0/1" value="0" leadInLength="0/1"  />
             </VectorParam>
             <VectorParam id="2293"  name="geometryCrop">
              <InterpolatingParam id="2294" interp="linr"  time="-9999999/1" value="0" leadInLength="0/1"  />
              <InterpolatingParam id="2295" interp="linr"  time="-9999999/1" value="0" leadInLength="0/1"  />
              <InterpolatingParam id="2296" interp="linr"  time="-9999999/1" value="0" leadInLength="0/1"  />
              <InterpolatingParam id="2297" interp="linr"  time="-9999999/1" value="0" leadInLength="0/1"  />
             </VectorParam>
             <InterpolatingParam id="2298" interp="linr"  time="-9999999/1" value="1" leadInLength="0/1"  name="opacity"/>
             <InterpolatingParam id="2299" interp="linr"  time="0/1" value="0" leadInLength="0/1"  name="cursorOpacity"/>
             <InterpolatingParam id="2300" interp="linr"  time="0/1" value="0" leadInLength="0/1"  name="cursorScale"/>
            </Parameters>
            <Attributes>
             <Attribute id="2301" value="" name="ident"/>
            </Attributes>
            <MetaData>
             <entry key="AutoAppliedSmartFocus" val="False"/>
             <entry key="WinSubProjectDisplayName" val=""/>
            </MetaData>
            <ExtraData>
             <Entry key="ZoomPanBin">
              <ZoomPanBin id="2302"  >
               <ZoomPanKeyframes>
                <ZoomPanKeyframe id="2303" timeRangeEnd="-9999999/1" timeRangeDuration="0/1" interpolaterName="linr"  />
               </ZoomPanKeyframes>
              </ZoomPanBin>
             </Entry>
             <Entry key="CursorEffectBin">
              <CursorEffectBin id="2304"  >
               <CursorEffectKeyframes>
               </CursorEffectKeyframes>
              </CursorEffectBin>
             </Entry>
            </ExtraData>
           </ScreenVMFile>
           <ScreenVMFile id="2305" start="11268" duration="66" scalar="1/1" mediaStart="21075/1" mediaDuration="66/1" trackNumber="0" src="6" >
            <Transformer>
             <VectorParam id="2306"  name="translation">
              <InterpolatingParam id="2307" interp="linr"  time="-9999999/1" value="0" leadInLength="0/1"  />
              <InterpolatingParam id="2308" interp="linr"  time="-9999999/1" value="0" leadInLength="0/1"  />
              <InterpolatingParam id="2309" interp="linr"  time="-9999999/1" value="0" leadInLength="0/1"  />
             </VectorParam>
             <VectorParam id="2310"  name="rotation">
              <InterpolatingParam id="2311" interp="linr"  time="-9999999/1" value="0" leadInLength="0/1"  />
              <InterpolatingParam id="2312" interp="linr"  time="-9999999/1" value="0" leadInLength="0/1"  />
              <InterpolatingParam id="2313" interp="linr"  time="-9999999/1" value="0" leadInLength="0/1"  />
             </VectorParam>
             <VectorParam id="2314"  name="shear">
              <InterpolatingParam id="2315" interp="linr"  time="-9999999/1" value="0" leadInLength="0/1"  />
              <InterpolatingParam id="2316" interp="linr"  time="-9999999/1" value="0" leadInLength="0/1"  />
              <InterpolatingParam id="2317" interp="linr"  time="-9999999/1" value="0" leadInLength="0/1"  />
             </VectorParam>
             <VectorParam id="2318"  name="scale">
              <InterpolatingParam id="2319" interp="linr"  time="-9999999/1" value="1" leadInLength="0/1"  />
              <InterpolatingParam id="2320" interp="linr"  time="-9999999/1" value="1" leadInLength="0/1"  />
              <InterpolatingParam id="2321" interp="linr"  time="-9999999/1" value="1" leadInLength="0/1"  />
             </VectorParam>
             <VectorParam id="2322"  name="anchor">
              <InterpolatingParam id="2323" interp="linr"  time="0/1" value="0" leadInLength="0/1"  />
              <InterpolatingParam id="2324" interp="linr"  time="0/1" value="0" leadInLength="0/1"  />
              <InterpolatingParam id="2325" interp="linr"  time="0/1" value="0" leadInLength="0/1"  />
             </VectorParam>
            </Transformer>
            <Parameters>
             <VectorParam id="2326"  name="sourceCrop">
              <InterpolatingParam id="2327" interp="linr"  time="0/1" value="0" leadInLength="0/1"  />
              <InterpolatingParam id="2328" interp="linr"  time="0/1" value="0" leadInLength="0/1"  />
              <InterpolatingParam id="2329" interp="linr"  time="0/1" value="0" leadInLength="0/1"  />
              <InterpolatingParam id="2330" interp="linr"  time="0/1" value="0" leadInLength="0/1"  />
             </VectorParam>
             <VectorParam id="2331"  name="geometryCrop">
              <InterpolatingParam id="2332" interp="linr"  time="-9999999/1" value="0" leadInLength="0/1"  />
              <InterpolatingParam id="2333" interp="linr"  time="-9999999/1" value="0" leadInLength="0/1"  />
              <InterpolatingParam id="2334" interp="linr"  time="-9999999/1" value="0" leadInLength="0/1"  />
              <InterpolatingParam id="2335" interp="linr"  time="-9999999/1" value="0" leadInLength="0/1"  />
             </VectorParam>
             <InterpolatingParam id="2336" interp="linr"  time="-9999999/1" value="1" leadInLength="0/1"  name="opacity"/>
             <InterpolatingParam id="2337" interp="linr"  time="0/1" value="0" leadInLength="0/1"  name="cursorOpacity"/>
             <InterpolatingParam id="2338" interp="linr"  time="0/1" value="0" leadInLength="0/1"  name="cursorScale"/>
            </Parameters>
            <Attributes>
             <Attribute id="2339" value="" name="ident"/>
            </Attributes>
            <MetaData>
             <entry key="AutoAppliedSmartFocus" val="False"/>
             <entry key="WinSubProjectDisplayName" val=""/>
            </MetaData>
            <ExtraData>
             <Entry key="ZoomPanBin">
              <ZoomPanBin id="2340"  >
               <ZoomPanKeyframes>
                <ZoomPanKeyframe id="2341" timeRangeEnd="-9999999/1" timeRangeDuration="0/1" interpolaterName="linr"  />
               </ZoomPanKeyframes>
              </ZoomPanBin>
             </Entry>
             <Entry key="CursorEffectBin">
              <CursorEffectBin id="2342"  >
               <CursorEffectKeyframes>
               </CursorEffectKeyframes>
              </CursorEffectBin>
             </Entry>
            </ExtraData>
           </ScreenVMFile>
           <ScreenVMFile id="2343" start="11334" duration="52" scalar="1/1" mediaStart="21179/1" mediaDuration="52/1" trackNumber="0" src="6" >
            <Transformer>
             <VectorParam id="2344"  name="translation">
              <InterpolatingParam id="2345" interp="linr"  time="-9999999/1" value="0" leadInLength="0/1"  />
              <InterpolatingParam id="2346" interp="linr"  time="-9999999/1" value="0" leadInLength="0/1"  />
              <InterpolatingParam id="2347" interp="linr"  time="-9999999/1" value="0" leadInLength="0/1"  />
             </VectorParam>
             <VectorParam id="2348"  name="rotation">
              <InterpolatingParam id="2349" interp="linr"  time="-9999999/1" value="0" leadInLength="0/1"  />
              <InterpolatingParam id="2350" interp="linr"  time="-9999999/1" value="0" leadInLength="0/1"  />
              <InterpolatingParam id="2351" interp="linr"  time="-9999999/1" value="0" leadInLength="0/1"  />
             </VectorParam>
             <VectorParam id="2352"  name="shear">
              <InterpolatingParam id="2353" interp="linr"  time="-9999999/1" value="0" leadInLength="0/1"  />
              <InterpolatingParam id="2354" interp="linr"  time="-9999999/1" value="0" leadInLength="0/1"  />
              <InterpolatingParam id="2355" interp="linr"  time="-9999999/1" value="0" leadInLength="0/1"  />
             </VectorParam>
             <VectorParam id="2356"  name="scale">
              <InterpolatingParam id="2357" interp="linr"  time="-9999999/1" value="1" leadInLength="0/1"  />
              <InterpolatingParam id="2358" interp="linr"  time="-9999999/1" value="1" leadInLength="0/1"  />
              <InterpolatingParam id="2359" interp="linr"  time="-9999999/1" value="1" leadInLength="0/1"  />
             </VectorParam>
             <VectorParam id="2360"  name="anchor">
              <InterpolatingParam id="2361" interp="linr"  time="0/1" value="0" leadInLength="0/1"  />
              <InterpolatingParam id="2362" interp="linr"  time="0/1" value="0" leadInLength="0/1"  />
              <InterpolatingParam id="2363" interp="linr"  time="0/1" value="0" leadInLength="0/1"  />
             </VectorParam>
            </Transformer>
            <Parameters>
             <VectorParam id="2364"  name="sourceCrop">
              <InterpolatingParam id="2365" interp="linr"  time="0/1" value="0" leadInLength="0/1"  />
              <InterpolatingParam id="2366" interp="linr"  time="0/1" value="0" leadInLength="0/1"  />
              <InterpolatingParam id="2367" interp="linr"  time="0/1" value="0" leadInLength="0/1"  />
              <InterpolatingParam id="2368" interp="linr"  time="0/1" value="0" leadInLength="0/1"  />
             </VectorParam>
             <VectorParam id="2369"  name="geometryCrop">
              <InterpolatingParam id="2370" interp="linr"  time="-9999999/1" value="0" leadInLength="0/1"  />
              <InterpolatingParam id="2371" interp="linr"  time="-9999999/1" value="0" leadInLength="0/1"  />
              <InterpolatingParam id="2372" interp="linr"  time="-9999999/1" value="0" leadInLength="0/1"  />
              <InterpolatingParam id="2373" interp="linr"  time="-9999999/1" value="0" leadInLength="0/1"  />
             </VectorParam>
             <InterpolatingParam id="2374" interp="linr"  time="-9999999/1" value="1" leadInLength="0/1"  name="opacity"/>
             <InterpolatingParam id="2375" interp="linr"  time="0/1" value="0" leadInLength="0/1"  name="cursorOpacity"/>
             <InterpolatingParam id="2376" interp="linr"  time="0/1" value="0" leadInLength="0/1"  name="cursorScale"/>
            </Parameters>
            <Attributes>
             <Attribute id="2377" value="" name="ident"/>
            </Attributes>
            <MetaData>
             <entry key="AutoAppliedSmartFocus" val="False"/>
             <entry key="WinSubProjectDisplayName" val=""/>
            </MetaData>
            <ExtraData>
             <Entry key="ZoomPanBin">
              <ZoomPanBin id="2378"  >
               <ZoomPanKeyframes>
                <ZoomPanKeyframe id="2379" timeRangeEnd="-9999999/1" timeRangeDuration="0/1" interpolaterName="linr"  />
               </ZoomPanKeyframes>
              </ZoomPanBin>
             </Entry>
             <Entry key="CursorEffectBin">
              <CursorEffectBin id="2380"  >
               <CursorEffectKeyframes>
               </CursorEffectKeyframes>
              </CursorEffectBin>
             </Entry>
            </ExtraData>
           </ScreenVMFile>
           <ScreenVMFile id="2381" start="11386" duration="50" scalar="1/1" mediaStart="21271/1" mediaDuration="50/1" trackNumber="0" src="6" >
            <Transformer>
             <VectorParam id="2382"  name="translation">
              <InterpolatingParam id="2383" interp="linr"  time="-9999999/1" value="0" leadInLength="0/1"  />
              <InterpolatingParam id="2384" interp="linr"  time="-9999999/1" value="0" leadInLength="0/1"  />
              <InterpolatingParam id="2385" interp="linr"  time="-9999999/1" value="0" leadInLength="0/1"  />
             </VectorParam>
             <VectorParam id="2386"  name="rotation">
              <InterpolatingParam id="2387" interp="linr"  time="-9999999/1" value="0" leadInLength="0/1"  />
              <InterpolatingParam id="2388" interp="linr"  time="-9999999/1" value="0" leadInLength="0/1"  />
              <InterpolatingParam id="2389" interp="linr"  time="-9999999/1" value="0" leadInLength="0/1"  />
             </VectorParam>
             <VectorParam id="2390"  name="shear">
              <InterpolatingParam id="2391" interp="linr"  time="-9999999/1" value="0" leadInLength="0/1"  />
              <InterpolatingParam id="2392" interp="linr"  time="-9999999/1" value="0" leadInLength="0/1"  />
              <InterpolatingParam id="2393" interp="linr"  time="-9999999/1" value="0" leadInLength="0/1"  />
             </VectorParam>
             <VectorParam id="2394"  name="scale">
              <InterpolatingParam id="2395" interp="linr"  time="-9999999/1" value="1" leadInLength="0/1"  />
              <InterpolatingParam id="2396" interp="linr"  time="-9999999/1" value="1" leadInLength="0/1"  />
              <InterpolatingParam id="2397" interp="linr"  time="-9999999/1" value="1" leadInLength="0/1"  />
             </VectorParam>
             <VectorParam id="2398"  name="anchor">
              <InterpolatingParam id="2399" interp="linr"  time="0/1" value="0" leadInLength="0/1"  />
              <InterpolatingParam id="2400" interp="linr"  time="0/1" value="0" leadInLength="0/1"  />
              <InterpolatingParam id="2401" interp="linr"  time="0/1" value="0" leadInLength="0/1"  />
             </VectorParam>
            </Transformer>
            <Parameters>
             <VectorParam id="2402"  name="sourceCrop">
              <InterpolatingParam id="2403" interp="linr"  time="0/1" value="0" leadInLength="0/1"  />
              <InterpolatingParam id="2404" interp="linr"  time="0/1" value="0" leadInLength="0/1"  />
              <InterpolatingParam id="2405" interp="linr"  time="0/1" value="0" leadInLength="0/1"  />
              <InterpolatingParam id="2406" interp="linr"  time="0/1" value="0" leadInLength="0/1"  />
             </VectorParam>
             <VectorParam id="2407"  name="geometryCrop">
              <InterpolatingParam id="2408" interp="linr"  time="-9999999/1" value="0" leadInLength="0/1"  />
              <InterpolatingParam id="2409" interp="linr"  time="-9999999/1" value="0" leadInLength="0/1"  />
              <InterpolatingParam id="2410" interp="linr"  time="-9999999/1" value="0" leadInLength="0/1"  />
              <InterpolatingParam id="2411" interp="linr"  time="-9999999/1" value="0" leadInLength="0/1"  />
             </VectorParam>
             <InterpolatingParam id="2412" interp="linr"  time="-9999999/1" value="1" leadInLength="0/1"  name="opacity"/>
             <InterpolatingParam id="2413" interp="linr"  time="0/1" value="0" leadInLength="0/1"  name="cursorOpacity"/>
             <InterpolatingParam id="2414" interp="linr"  time="0/1" value="0" leadInLength="0/1"  name="cursorScale"/>
            </Parameters>
            <Attributes>
             <Attribute id="2415" value="" name="ident"/>
            </Attributes>
            <MetaData>
             <entry key="AutoAppliedSmartFocus" val="False"/>
             <entry key="WinSubProjectDisplayName" val=""/>
            </MetaData>
            <ExtraData>
             <Entry key="ZoomPanBin">
              <ZoomPanBin id="2416"  >
               <ZoomPanKeyframes>
                <ZoomPanKeyframe id="2417" timeRangeEnd="-9999999/1" timeRangeDuration="0/1" interpolaterName="linr"  />
               </ZoomPanKeyframes>
              </ZoomPanBin>
             </Entry>
             <Entry key="CursorEffectBin">
              <CursorEffectBin id="2418"  >
               <CursorEffectKeyframes>
               </CursorEffectKeyframes>
              </CursorEffectBin>
             </Entry>
            </ExtraData>
           </ScreenVMFile>
           <ScreenVMFile id="2419" start="11436" duration="114" scalar="1/1" mediaStart="21401/1" mediaDuration="114/1" trackNumber="0" src="6" >
            <Transformer>
             <VectorParam id="2420"  name="translation">
              <InterpolatingParam id="2421" interp="linr"  time="-9999999/1" value="0" leadInLength="0/1"  />
              <InterpolatingParam id="2422" interp="linr"  time="-9999999/1" value="0" leadInLength="0/1"  />
              <InterpolatingParam id="2423" interp="linr"  time="-9999999/1" value="0" leadInLength="0/1"  />
             </VectorParam>
             <VectorParam id="2424"  name="rotation">
              <InterpolatingParam id="2425" interp="linr"  time="-9999999/1" value="0" leadInLength="0/1"  />
              <InterpolatingParam id="2426" interp="linr"  time="-9999999/1" value="0" leadInLength="0/1"  />
              <InterpolatingParam id="2427" interp="linr"  time="-9999999/1" value="0" leadInLength="0/1"  />
             </VectorParam>
             <VectorParam id="2428"  name="shear">
              <InterpolatingParam id="2429" interp="linr"  time="-9999999/1" value="0" leadInLength="0/1"  />
              <InterpolatingParam id="2430" interp="linr"  time="-9999999/1" value="0" leadInLength="0/1"  />
              <InterpolatingParam id="2431" interp="linr"  time="-9999999/1" value="0" leadInLength="0/1"  />
             </VectorParam>
             <VectorParam id="2432"  name="scale">
              <InterpolatingParam id="2433" interp="linr"  time="-9999999/1" value="1" leadInLength="0/1"  />
              <InterpolatingParam id="2434" interp="linr"  time="-9999999/1" value="1" leadInLength="0/1"  />
              <InterpolatingParam id="2435" interp="linr"  time="-9999999/1" value="1" leadInLength="0/1"  />
             </VectorParam>
             <VectorParam id="2436"  name="anchor">
              <InterpolatingParam id="2437" interp="linr"  time="0/1" value="0" leadInLength="0/1"  />
              <InterpolatingParam id="2438" interp="linr"  time="0/1" value="0" leadInLength="0/1"  />
              <InterpolatingParam id="2439" interp="linr"  time="0/1" value="0" leadInLength="0/1"  />
             </VectorParam>
            </Transformer>
            <Parameters>
             <VectorParam id="2440"  name="sourceCrop">
              <InterpolatingParam id="2441" interp="linr"  time="0/1" value="0" leadInLength="0/1"  />
              <InterpolatingParam id="2442" interp="linr"  time="0/1" value="0" leadInLength="0/1"  />
              <InterpolatingParam id="2443" interp="linr"  time="0/1" value="0" leadInLength="0/1"  />
              <InterpolatingParam id="2444" interp="linr"  time="0/1" value="0" leadInLength="0/1"  />
             </VectorParam>
             <VectorParam id="2445"  name="geometryCrop">
              <InterpolatingParam id="2446" interp="linr"  time="-9999999/1" value="0" leadInLength="0/1"  />
              <InterpolatingParam id="2447" interp="linr"  time="-9999999/1" value="0" leadInLength="0/1"  />
              <InterpolatingParam id="2448" interp="linr"  time="-9999999/1" value="0" leadInLength="0/1"  />
              <InterpolatingParam id="2449" interp="linr"  time="-9999999/1" value="0" leadInLength="0/1"  />
             </VectorParam>
             <InterpolatingParam id="2450" interp="linr"  time="-9999999/1" value="1" leadInLength="0/1"  name="opacity"/>
             <InterpolatingParam id="2451" interp="linr"  time="0/1" value="0" leadInLength="0/1"  name="cursorOpacity"/>
             <InterpolatingParam id="2452" interp="linr"  time="0/1" value="0" leadInLength="0/1"  name="cursorScale"/>
            </Parameters>
            <Attributes>
             <Attribute id="2453" value="" name="ident"/>
            </Attributes>
            <MetaData>
             <entry key="AutoAppliedSmartFocus" val="False"/>
             <entry key="WinSubProjectDisplayName" val=""/>
            </MetaData>
            <ExtraData>
             <Entry key="ZoomPanBin">
              <ZoomPanBin id="2454"  >
               <ZoomPanKeyframes>
                <ZoomPanKeyframe id="2455" timeRangeEnd="-9999999/1" timeRangeDuration="0/1" interpolaterName="linr"  />
               </ZoomPanKeyframes>
              </ZoomPanBin>
             </Entry>
             <Entry key="CursorEffectBin">
              <CursorEffectBin id="2456"  >
               <CursorEffectKeyframes>
               </CursorEffectKeyframes>
              </CursorEffectBin>
             </Entry>
            </ExtraData>
           </ScreenVMFile>
           <ScreenVMFile id="2457" start="11550" duration="5" scalar="1/1" mediaStart="21666/1" mediaDuration="5/1" trackNumber="0" src="6" >
            <Transformer>
             <VectorParam id="2458"  name="translation">
              <InterpolatingParam id="2459" interp="linr"  time="-9999999/1" value="0" leadInLength="0/1"  />
              <InterpolatingParam id="2460" interp="linr"  time="-9999999/1" value="0" leadInLength="0/1"  />
              <InterpolatingParam id="2461" interp="linr"  time="-9999999/1" value="0" leadInLength="0/1"  />
             </VectorParam>
             <VectorParam id="2462"  name="rotation">
              <InterpolatingParam id="2463" interp="linr"  time="-9999999/1" value="0" leadInLength="0/1"  />
              <InterpolatingParam id="2464" interp="linr"  time="-9999999/1" value="0" leadInLength="0/1"  />
              <InterpolatingParam id="2465" interp="linr"  time="-9999999/1" value="0" leadInLength="0/1"  />
             </VectorParam>
             <VectorParam id="2466"  name="shear">
              <InterpolatingParam id="2467" interp="linr"  time="-9999999/1" value="0" leadInLength="0/1"  />
              <InterpolatingParam id="2468" interp="linr"  time="-9999999/1" value="0" leadInLength="0/1"  />
              <InterpolatingParam id="2469" interp="linr"  time="-9999999/1" value="0" leadInLength="0/1"  />
             </VectorParam>
             <VectorParam id="2470"  name="scale">
              <InterpolatingParam id="2471" interp="linr"  time="-9999999/1" value="1" leadInLength="0/1"  />
              <InterpolatingParam id="2472" interp="linr"  time="-9999999/1" value="1" leadInLength="0/1"  />
              <InterpolatingParam id="2473" interp="linr"  time="-9999999/1" value="1" leadInLength="0/1"  />
             </VectorParam>
             <VectorParam id="2474"  name="anchor">
              <InterpolatingParam id="2475" interp="linr"  time="0/1" value="0" leadInLength="0/1"  />
              <InterpolatingParam id="2476" interp="linr"  time="0/1" value="0" leadInLength="0/1"  />
              <InterpolatingParam id="2477" interp="linr"  time="0/1" value="0" leadInLength="0/1"  />
             </VectorParam>
            </Transformer>
            <Parameters>
             <VectorParam id="2478"  name="sourceCrop">
              <InterpolatingParam id="2479" interp="linr"  time="0/1" value="0" leadInLength="0/1"  />
              <InterpolatingParam id="2480" interp="linr"  time="0/1" value="0" leadInLength="0/1"  />
              <InterpolatingParam id="2481" interp="linr"  time="0/1" value="0" leadInLength="0/1"  />
              <InterpolatingParam id="2482" interp="linr"  time="0/1" value="0" leadInLength="0/1"  />
             </VectorParam>
             <VectorParam id="2483"  name="geometryCrop">
              <InterpolatingParam id="2484" interp="linr"  time="-9999999/1" value="0" leadInLength="0/1"  />
              <InterpolatingParam id="2485" interp="linr"  time="-9999999/1" value="0" leadInLength="0/1"  />
              <InterpolatingParam id="2486" interp="linr"  time="-9999999/1" value="0" leadInLength="0/1"  />
              <InterpolatingParam id="2487" interp="linr"  time="-9999999/1" value="0" leadInLength="0/1"  />
             </VectorParam>
             <InterpolatingParam id="2488" interp="linr"  time="-9999999/1" value="1" leadInLength="0/1"  name="opacity"/>
             <InterpolatingParam id="2489" interp="linr"  time="0/1" value="0" leadInLength="0/1"  name="cursorOpacity"/>
             <InterpolatingParam id="2490" interp="linr"  time="0/1" value="0" leadInLength="0/1"  name="cursorScale"/>
            </Parameters>
            <Attributes>
             <Attribute id="2491" value="" name="ident"/>
            </Attributes>
            <MetaData>
             <entry key="AutoAppliedSmartFocus" val="False"/>
             <entry key="WinSubProjectDisplayName" val=""/>
            </MetaData>
            <ExtraData>
             <Entry key="ZoomPanBin">
              <ZoomPanBin id="2492"  >
               <ZoomPanKeyframes>
                <ZoomPanKeyframe id="2493" timeRangeEnd="-9999999/1" timeRangeDuration="0/1" interpolaterName="linr"  />
               </ZoomPanKeyframes>
              </ZoomPanBin>
             </Entry>
             <Entry key="CursorEffectBin">
              <CursorEffectBin id="2494"  >
               <CursorEffectKeyframes>
               </CursorEffectKeyframes>
              </CursorEffectBin>
             </Entry>
            </ExtraData>
           </ScreenVMFile>
           <ScreenVMFile id="2495" start="11555" duration="99" scalar="1/1" mediaStart="22254/1" mediaDuration="99/1" trackNumber="0" src="6" >
            <Transformer>
             <VectorParam id="2496"  name="translation">
              <InterpolatingParam id="2497" interp="linr"  time="-9999999/1" value="0" leadInLength="0/1"  />
              <InterpolatingParam id="2498" interp="linr"  time="-9999999/1" value="0" leadInLength="0/1"  />
              <InterpolatingParam id="2499" interp="linr"  time="-9999999/1" value="0" leadInLength="0/1"  />
             </VectorParam>
             <VectorParam id="2500"  name="rotation">
              <InterpolatingParam id="2501" interp="linr"  time="-9999999/1" value="0" leadInLength="0/1"  />
              <InterpolatingParam id="2502" interp="linr"  time="-9999999/1" value="0" leadInLength="0/1"  />
              <InterpolatingParam id="2503" interp="linr"  time="-9999999/1" value="0" leadInLength="0/1"  />
             </VectorParam>
             <VectorParam id="2504"  name="shear">
              <InterpolatingParam id="2505" interp="linr"  time="-9999999/1" value="0" leadInLength="0/1"  />
              <InterpolatingParam id="2506" interp="linr"  time="-9999999/1" value="0" leadInLength="0/1"  />
              <InterpolatingParam id="2507" interp="linr"  time="-9999999/1" value="0" leadInLength="0/1"  />
             </VectorParam>
             <VectorParam id="2508"  name="scale">
              <InterpolatingParam id="2509" interp="linr"  time="-9999999/1" value="1" leadInLength="0/1"  />
              <InterpolatingParam id="2510" interp="linr"  time="-9999999/1" value="1" leadInLength="0/1"  />
              <InterpolatingParam id="2511" interp="linr"  time="-9999999/1" value="1" leadInLength="0/1"  />
             </VectorParam>
             <VectorParam id="2512"  name="anchor">
              <InterpolatingParam id="2513" interp="linr"  time="0/1" value="0" leadInLength="0/1"  />
              <InterpolatingParam id="2514" interp="linr"  time="0/1" value="0" leadInLength="0/1"  />
              <InterpolatingParam id="2515" interp="linr"  time="0/1" value="0" leadInLength="0/1"  />
             </VectorParam>
            </Transformer>
            <Parameters>
             <VectorParam id="2516"  name="sourceCrop">
              <InterpolatingParam id="2517" interp="linr"  time="0/1" value="0" leadInLength="0/1"  />
              <InterpolatingParam id="2518" interp="linr"  time="0/1" value="0" leadInLength="0/1"  />
              <InterpolatingParam id="2519" interp="linr"  time="0/1" value="0" leadInLength="0/1"  />
              <InterpolatingParam id="2520" interp="linr"  time="0/1" value="0" leadInLength="0/1"  />
             </VectorParam>
             <VectorParam id="2521"  name="geometryCrop">
              <InterpolatingParam id="2522" interp="linr"  time="-9999999/1" value="0" leadInLength="0/1"  />
              <InterpolatingParam id="2523" interp="linr"  time="-9999999/1" value="0" leadInLength="0/1"  />
              <InterpolatingParam id="2524" interp="linr"  time="-9999999/1" value="0" leadInLength="0/1"  />
              <InterpolatingParam id="2525" interp="linr"  time="-9999999/1" value="0" leadInLength="0/1"  />
             </VectorParam>
             <InterpolatingParam id="2526" interp="linr"  time="-9999999/1" value="1" leadInLength="0/1"  name="opacity"/>
             <InterpolatingParam id="2527" interp="linr"  time="0/1" value="0" leadInLength="0/1"  name="cursorOpacity"/>
             <InterpolatingParam id="2528" interp="linr"  time="0/1" value="0" leadInLength="0/1"  name="cursorScale"/>
            </Parameters>
            <Attributes>
             <Attribute id="2529" value="" name="ident"/>
            </Attributes>
            <MetaData>
             <entry key="AutoAppliedSmartFocus" val="False"/>
             <entry key="WinSubProjectDisplayName" val=""/>
            </MetaData>
            <ExtraData>
             <Entry key="ZoomPanBin">
              <ZoomPanBin id="2530"  >
               <ZoomPanKeyframes>
                <ZoomPanKeyframe id="2531" timeRangeEnd="-9999999/1" timeRangeDuration="0/1" interpolaterName="linr"  />
               </ZoomPanKeyframes>
              </ZoomPanBin>
             </Entry>
             <Entry key="CursorEffectBin">
              <CursorEffectBin id="2532"  >
               <CursorEffectKeyframes>
               </CursorEffectKeyframes>
              </CursorEffectBin>
             </Entry>
            </ExtraData>
           </ScreenVMFile>
           <ScreenVMFile id="2533" start="11654" duration="1" scalar="1/1" mediaStart="22394/1" mediaDuration="1/1" trackNumber="0" src="6" >
            <Transformer>
             <VectorParam id="2534"  name="translation">
              <InterpolatingParam id="2535" interp="linr"  time="-9999999/1" value="0" leadInLength="0/1"  />
              <InterpolatingParam id="2536" interp="linr"  time="-9999999/1" value="0" leadInLength="0/1"  />
              <InterpolatingParam id="2537" interp="linr"  time="-9999999/1" value="0" leadInLength="0/1"  />
             </VectorParam>
             <VectorParam id="2538"  name="rotation">
              <InterpolatingParam id="2539" interp="linr"  time="-9999999/1" value="0" leadInLength="0/1"  />
              <InterpolatingParam id="2540" interp="linr"  time="-9999999/1" value="0" leadInLength="0/1"  />
              <InterpolatingParam id="2541" interp="linr"  time="-9999999/1" value="0" leadInLength="0/1"  />
             </VectorParam>
             <VectorParam id="2542"  name="shear">
              <InterpolatingParam id="2543" interp="linr"  time="-9999999/1" value="0" leadInLength="0/1"  />
              <InterpolatingParam id="2544" interp="linr"  time="-9999999/1" value="0" leadInLength="0/1"  />
              <InterpolatingParam id="2545" interp="linr"  time="-9999999/1" value="0" leadInLength="0/1"  />
             </VectorParam>
             <VectorParam id="2546"  name="scale">
              <InterpolatingParam id="2547" interp="linr"  time="-9999999/1" value="1" leadInLength="0/1"  />
              <InterpolatingParam id="2548" interp="linr"  time="-9999999/1" value="1" leadInLength="0/1"  />
              <InterpolatingParam id="2549" interp="linr"  time="-9999999/1" value="1" leadInLength="0/1"  />
             </VectorParam>
             <VectorParam id="2550"  name="anchor">
              <InterpolatingParam id="2551" interp="linr"  time="0/1" value="0" leadInLength="0/1"  />
              <InterpolatingParam id="2552" interp="linr"  time="0/1" value="0" leadInLength="0/1"  />
              <InterpolatingParam id="2553" interp="linr"  time="0/1" value="0" leadInLength="0/1"  />
             </VectorParam>
            </Transformer>
            <Parameters>
             <VectorParam id="2554"  name="sourceCrop">
              <InterpolatingParam id="2555" interp="linr"  time="0/1" value="0" leadInLength="0/1"  />
              <InterpolatingParam id="2556" interp="linr"  time="0/1" value="0" leadInLength="0/1"  />
              <InterpolatingParam id="2557" interp="linr"  time="0/1" value="0" leadInLength="0/1"  />
              <InterpolatingParam id="2558" interp="linr"  time="0/1" value="0" leadInLength="0/1"  />
             </VectorParam>
             <VectorParam id="2559"  name="geometryCrop">
              <InterpolatingParam id="2560" interp="linr"  time="-9999999/1" value="0" leadInLength="0/1"  />
              <InterpolatingParam id="2561" interp="linr"  time="-9999999/1" value="0" leadInLength="0/1"  />
              <InterpolatingParam id="2562" interp="linr"  time="-9999999/1" value="0" leadInLength="0/1"  />
              <InterpolatingParam id="2563" interp="linr"  time="-9999999/1" value="0" leadInLength="0/1"  />
             </VectorParam>
             <InterpolatingParam id="2564" interp="linr"  time="-9999999/1" value="1" leadInLength="0/1"  name="opacity"/>
             <InterpolatingParam id="2565" interp="linr"  time="0/1" value="0" leadInLength="0/1"  name="cursorOpacity"/>
             <InterpolatingParam id="2566" interp="linr"  time="0/1" value="0" leadInLength="0/1"  name="cursorScale"/>
            </Parameters>
            <Attributes>
             <Attribute id="2567" value="" name="ident"/>
            </Attributes>
            <MetaData>
             <entry key="AutoAppliedSmartFocus" val="False"/>
             <entry key="WinSubProjectDisplayName" val=""/>
            </MetaData>
            <ExtraData>
             <Entry key="ZoomPanBin">
              <ZoomPanBin id="2568"  >
               <ZoomPanKeyframes>
                <ZoomPanKeyframe id="2569" timeRangeEnd="-9999999/1" timeRangeDuration="0/1" interpolaterName="linr"  />
               </ZoomPanKeyframes>
              </ZoomPanBin>
             </Entry>
             <Entry key="CursorEffectBin">
              <CursorEffectBin id="2570"  >
               <CursorEffectKeyframes>
               </CursorEffectKeyframes>
              </CursorEffectBin>
             </Entry>
            </ExtraData>
           </ScreenVMFile>
           <ScreenVMFile id="2571" start="11655" duration="63" scalar="1/1" mediaStart="22415/1" mediaDuration="63/1" trackNumber="0" src="6" >
            <Transformer>
             <VectorParam id="2572"  name="translation">
              <InterpolatingParam id="2573" interp="linr"  time="-9999999/1" value="0" leadInLength="0/1"  />
              <InterpolatingParam id="2574" interp="linr"  time="-9999999/1" value="0" leadInLength="0/1"  />
              <InterpolatingParam id="2575" interp="linr"  time="-9999999/1" value="0" leadInLength="0/1"  />
             </VectorParam>
             <VectorParam id="2576"  name="rotation">
              <InterpolatingParam id="2577" interp="linr"  time="-9999999/1" value="0" leadInLength="0/1"  />
              <InterpolatingParam id="2578" interp="linr"  time="-9999999/1" value="0" leadInLength="0/1"  />
              <InterpolatingParam id="2579" interp="linr"  time="-9999999/1" value="0" leadInLength="0/1"  />
             </VectorParam>
             <VectorParam id="2580"  name="shear">
              <InterpolatingParam id="2581" interp="linr"  time="-9999999/1" value="0" leadInLength="0/1"  />
              <InterpolatingParam id="2582" interp="linr"  time="-9999999/1" value="0" leadInLength="0/1"  />
              <InterpolatingParam id="2583" interp="linr"  time="-9999999/1" value="0" leadInLength="0/1"  />
             </VectorParam>
             <VectorParam id="2584"  name="scale">
              <InterpolatingParam id="2585" interp="linr"  time="-9999999/1" value="1" leadInLength="0/1"  />
              <InterpolatingParam id="2586" interp="linr"  time="-9999999/1" value="1" leadInLength="0/1"  />
              <InterpolatingParam id="2587" interp="linr"  time="-9999999/1" value="1" leadInLength="0/1"  />
             </VectorParam>
             <VectorParam id="2588"  name="anchor">
              <InterpolatingParam id="2589" interp="linr"  time="0/1" value="0" leadInLength="0/1"  />
              <InterpolatingParam id="2590" interp="linr"  time="0/1" value="0" leadInLength="0/1"  />
              <InterpolatingParam id="2591" interp="linr"  time="0/1" value="0" leadInLength="0/1"  />
             </VectorParam>
            </Transformer>
            <Parameters>
             <VectorParam id="2592"  name="sourceCrop">
              <InterpolatingParam id="2593" interp="linr"  time="0/1" value="0" leadInLength="0/1"  />
              <InterpolatingParam id="2594" interp="linr"  time="0/1" value="0" leadInLength="0/1"  />
              <InterpolatingParam id="2595" interp="linr"  time="0/1" value="0" leadInLength="0/1"  />
              <InterpolatingParam id="2596" interp="linr"  time="0/1" value="0" leadInLength="0/1"  />
             </VectorParam>
             <VectorParam id="2597"  name="geometryCrop">
              <InterpolatingParam id="2598" interp="linr"  time="-9999999/1" value="0" leadInLength="0/1"  />
              <InterpolatingParam id="2599" interp="linr"  time="-9999999/1" value="0" leadInLength="0/1"  />
              <InterpolatingParam id="2600" interp="linr"  time="-9999999/1" value="0" leadInLength="0/1"  />
              <InterpolatingParam id="2601" interp="linr"  time="-9999999/1" value="0" leadInLength="0/1"  />
             </VectorParam>
             <InterpolatingParam id="2602" interp="linr"  time="-9999999/1" value="1" leadInLength="0/1"  name="opacity"/>
             <InterpolatingParam id="2603" interp="linr"  time="0/1" value="0" leadInLength="0/1"  name="cursorOpacity"/>
             <InterpolatingParam id="2604" interp="linr"  time="0/1" value="0" leadInLength="0/1"  name="cursorScale"/>
            </Parameters>
            <Attributes>
             <Attribute id="2605" value="" name="ident"/>
            </Attributes>
            <MetaData>
             <entry key="AutoAppliedSmartFocus" val="False"/>
             <entry key="WinSubProjectDisplayName" val=""/>
            </MetaData>
            <ExtraData>
             <Entry key="ZoomPanBin">
              <ZoomPanBin id="2606"  >
               <ZoomPanKeyframes>
                <ZoomPanKeyframe id="2607" timeRangeEnd="-9999999/1" timeRangeDuration="0/1" interpolaterName="linr"  />
               </ZoomPanKeyframes>
              </ZoomPanBin>
             </Entry>
             <Entry key="CursorEffectBin">
              <CursorEffectBin id="2608"  >
               <CursorEffectKeyframes>
               </CursorEffectKeyframes>
              </CursorEffectBin>
             </Entry>
            </ExtraData>
           </ScreenVMFile>
           <ScreenVMFile id="2609" start="11718" duration="51" scalar="1/1" mediaStart="22490/1" mediaDuration="51/1" trackNumber="0" src="6" >
            <Transformer>
             <VectorParam id="2610"  name="translation">
              <InterpolatingParam id="2611" interp="linr"  time="-9999999/1" value="0" leadInLength="0/1"  />
              <InterpolatingParam id="2612" interp="linr"  time="-9999999/1" value="0" leadInLength="0/1"  />
              <InterpolatingParam id="2613" interp="linr"  time="-9999999/1" value="0" leadInLength="0/1"  />
             </VectorParam>
             <VectorParam id="2614"  name="rotation">
              <InterpolatingParam id="2615" interp="linr"  time="-9999999/1" value="0" leadInLength="0/1"  />
              <InterpolatingParam id="2616" interp="linr"  time="-9999999/1" value="0" leadInLength="0/1"  />
              <InterpolatingParam id="2617" interp="linr"  time="-9999999/1" value="0" leadInLength="0/1"  />
             </VectorParam>
             <VectorParam id="2618"  name="shear">
              <InterpolatingParam id="2619" interp="linr"  time="-9999999/1" value="0" leadInLength="0/1"  />
              <InterpolatingParam id="2620" interp="linr"  time="-9999999/1" value="0" leadInLength="0/1"  />
              <InterpolatingParam id="2621" interp="linr"  time="-9999999/1" value="0" leadInLength="0/1"  />
             </VectorParam>
             <VectorParam id="2622"  name="scale">
              <InterpolatingParam id="2623" interp="linr"  time="-9999999/1" value="1" leadInLength="0/1"  />
              <InterpolatingParam id="2624" interp="linr"  time="-9999999/1" value="1" leadInLength="0/1"  />
              <InterpolatingParam id="2625" interp="linr"  time="-9999999/1" value="1" leadInLength="0/1"  />
             </VectorParam>
             <VectorParam id="2626"  name="anchor">
              <InterpolatingParam id="2627" interp="linr"  time="0/1" value="0" leadInLength="0/1"  />
              <InterpolatingParam id="2628" interp="linr"  time="0/1" value="0" leadInLength="0/1"  />
              <InterpolatingParam id="2629" interp="linr"  time="0/1" value="0" leadInLength="0/1"  />
             </VectorParam>
            </Transformer>
            <Parameters>
             <VectorParam id="2630"  name="sourceCrop">
              <InterpolatingParam id="2631" interp="linr"  time="0/1" value="0" leadInLength="0/1"  />
              <InterpolatingParam id="2632" interp="linr"  time="0/1" value="0" leadInLength="0/1"  />
              <InterpolatingParam id="2633" interp="linr"  time="0/1" value="0" leadInLength="0/1"  />
              <InterpolatingParam id="2634" interp="linr"  time="0/1" value="0" leadInLength="0/1"  />
             </VectorParam>
             <VectorParam id="2635"  name="geometryCrop">
              <InterpolatingParam id="2636" interp="linr"  time="-9999999/1" value="0" leadInLength="0/1"  />
              <InterpolatingParam id="2637" interp="linr"  time="-9999999/1" value="0" leadInLength="0/1"  />
              <InterpolatingParam id="2638" interp="linr"  time="-9999999/1" value="0" leadInLength="0/1"  />
              <InterpolatingParam id="2639" interp="linr"  time="-9999999/1" value="0" leadInLength="0/1"  />
             </VectorParam>
             <InterpolatingParam id="2640" interp="linr"  time="-9999999/1" value="1" leadInLength="0/1"  name="opacity"/>
             <InterpolatingParam id="2641" interp="linr"  time="0/1" value="0" leadInLength="0/1"  name="cursorOpacity"/>
             <InterpolatingParam id="2642" interp="linr"  time="0/1" value="0" leadInLength="0/1"  name="cursorScale"/>
            </Parameters>
            <Attributes>
             <Attribute id="2643" value="" name="ident"/>
            </Attributes>
            <MetaData>
             <entry key="AutoAppliedSmartFocus" val="False"/>
             <entry key="WinSubProjectDisplayName" val=""/>
            </MetaData>
            <ExtraData>
             <Entry key="ZoomPanBin">
              <ZoomPanBin id="2644"  >
               <ZoomPanKeyframes>
                <ZoomPanKeyframe id="2645" timeRangeEnd="-9999999/1" timeRangeDuration="0/1" interpolaterName="linr"  />
               </ZoomPanKeyframes>
              </ZoomPanBin>
             </Entry>
             <Entry key="CursorEffectBin">
              <CursorEffectBin id="2646"  >
               <CursorEffectKeyframes>
               </CursorEffectKeyframes>
              </CursorEffectBin>
             </Entry>
            </ExtraData>
           </ScreenVMFile>
           <ScreenVMFile id="2647" start="11769" duration="278" scalar="1/1" mediaStart="22869/1" mediaDuration="278/1" trackNumber="0" src="6" >
            <Transformer>
             <VectorParam id="2648"  name="translation">
              <InterpolatingParam id="2649" interp="linr"  time="-9999999/1" value="0" leadInLength="0/1"  />
              <InterpolatingParam id="2650" interp="linr"  time="-9999999/1" value="0" leadInLength="0/1"  />
              <InterpolatingParam id="2651" interp="linr"  time="-9999999/1" value="0" leadInLength="0/1"  />
             </VectorParam>
             <VectorParam id="2652"  name="rotation">
              <InterpolatingParam id="2653" interp="linr"  time="-9999999/1" value="0" leadInLength="0/1"  />
              <InterpolatingParam id="2654" interp="linr"  time="-9999999/1" value="0" leadInLength="0/1"  />
              <InterpolatingParam id="2655" interp="linr"  time="-9999999/1" value="0" leadInLength="0/1"  />
             </VectorParam>
             <VectorParam id="2656"  name="shear">
              <InterpolatingParam id="2657" interp="linr"  time="-9999999/1" value="0" leadInLength="0/1"  />
              <InterpolatingParam id="2658" interp="linr"  time="-9999999/1" value="0" leadInLength="0/1"  />
              <InterpolatingParam id="2659" interp="linr"  time="-9999999/1" value="0" leadInLength="0/1"  />
             </VectorParam>
             <VectorParam id="2660"  name="scale">
              <InterpolatingParam id="2661" interp="linr"  time="-9999999/1" value="1" leadInLength="0/1"  />
              <InterpolatingParam id="2662" interp="linr"  time="-9999999/1" value="1" leadInLength="0/1"  />
              <InterpolatingParam id="2663" interp="linr"  time="-9999999/1" value="1" leadInLength="0/1"  />
             </VectorParam>
             <VectorParam id="2664"  name="anchor">
              <InterpolatingParam id="2665" interp="linr"  time="0/1" value="0" leadInLength="0/1"  />
              <InterpolatingParam id="2666" interp="linr"  time="0/1" value="0" leadInLength="0/1"  />
              <InterpolatingParam id="2667" interp="linr"  time="0/1" value="0" leadInLength="0/1"  />
             </VectorParam>
            </Transformer>
            <Parameters>
             <VectorParam id="2668"  name="sourceCrop">
              <InterpolatingParam id="2669" interp="linr"  time="0/1" value="0" leadInLength="0/1"  />
              <InterpolatingParam id="2670" interp="linr"  time="0/1" value="0" leadInLength="0/1"  />
              <InterpolatingParam id="2671" interp="linr"  time="0/1" value="0" leadInLength="0/1"  />
              <InterpolatingParam id="2672" interp="linr"  time="0/1" value="0" leadInLength="0/1"  />
             </VectorParam>
             <VectorParam id="2673"  name="geometryCrop">
              <InterpolatingParam id="2674" interp="linr"  time="-9999999/1" value="0" leadInLength="0/1"  />
              <InterpolatingParam id="2675" interp="linr"  time="-9999999/1" value="0" leadInLength="0/1"  />
              <InterpolatingParam id="2676" interp="linr"  time="-9999999/1" value="0" leadInLength="0/1"  />
              <InterpolatingParam id="2677" interp="linr"  time="-9999999/1" value="0" leadInLength="0/1"  />
             </VectorParam>
             <InterpolatingParam id="2678" interp="linr"  time="-9999999/1" value="1" leadInLength="0/1"  name="opacity"/>
             <InterpolatingParam id="2679" interp="linr"  time="0/1" value="0" leadInLength="0/1"  name="cursorOpacity"/>
             <InterpolatingParam id="2680" interp="linr"  time="0/1" value="0" leadInLength="0/1"  name="cursorScale"/>
            </Parameters>
            <Attributes>
             <Attribute id="2681" value="" name="ident"/>
            </Attributes>
            <MetaData>
             <entry key="AutoAppliedSmartFocus" val="False"/>
             <entry key="WinSubProjectDisplayName" val=""/>
            </MetaData>
            <ExtraData>
             <Entry key="ZoomPanBin">
              <ZoomPanBin id="2682"  >
               <ZoomPanKeyframes>
                <ZoomPanKeyframe id="2683" timeRangeEnd="-9999999/1" timeRangeDuration="0/1" interpolaterName="linr"  />
               </ZoomPanKeyframes>
              </ZoomPanBin>
             </Entry>
             <Entry key="CursorEffectBin">
              <CursorEffectBin id="2684"  >
               <CursorEffectKeyframes>
               </CursorEffectKeyframes>
              </CursorEffectBin>
             </Entry>
            </ExtraData>
           </ScreenVMFile>
           <ScreenVMFile id="2685" start="12047" duration="32" scalar="1/1" mediaStart="23385/1" mediaDuration="32/1" trackNumber="0" src="6" >
            <Transformer>
             <VectorParam id="2686"  name="translation">
              <InterpolatingParam id="2687" interp="linr"  time="-9999999/1" value="0" leadInLength="0/1"  />
              <InterpolatingParam id="2688" interp="linr"  time="-9999999/1" value="0" leadInLength="0/1"  />
              <InterpolatingParam id="2689" interp="linr"  time="-9999999/1" value="0" leadInLength="0/1"  />
             </VectorParam>
             <VectorParam id="2690"  name="rotation">
              <InterpolatingParam id="2691" interp="linr"  time="-9999999/1" value="0" leadInLength="0/1"  />
              <InterpolatingParam id="2692" interp="linr"  time="-9999999/1" value="0" leadInLength="0/1"  />
              <InterpolatingParam id="2693" interp="linr"  time="-9999999/1" value="0" leadInLength="0/1"  />
             </VectorParam>
             <VectorParam id="2694"  name="shear">
              <InterpolatingParam id="2695" interp="linr"  time="-9999999/1" value="0" leadInLength="0/1"  />
              <InterpolatingParam id="2696" interp="linr"  time="-9999999/1" value="0" leadInLength="0/1"  />
              <InterpolatingParam id="2697" interp="linr"  time="-9999999/1" value="0" leadInLength="0/1"  />
             </VectorParam>
             <VectorParam id="2698"  name="scale">
              <InterpolatingParam id="2699" interp="linr"  time="-9999999/1" value="1" leadInLength="0/1"  />
              <InterpolatingParam id="2700" interp="linr"  time="-9999999/1" value="1" leadInLength="0/1"  />
              <InterpolatingParam id="2701" interp="linr"  time="-9999999/1" value="1" leadInLength="0/1"  />
             </VectorParam>
             <VectorParam id="2702"  name="anchor">
              <InterpolatingParam id="2703" interp="linr"  time="0/1" value="0" leadInLength="0/1"  />
              <InterpolatingParam id="2704" interp="linr"  time="0/1" value="0" leadInLength="0/1"  />
              <InterpolatingParam id="2705" interp="linr"  time="0/1" value="0" leadInLength="0/1"  />
             </VectorParam>
            </Transformer>
            <Parameters>
             <VectorParam id="2706"  name="sourceCrop">
              <InterpolatingParam id="2707" interp="linr"  time="0/1" value="0" leadInLength="0/1"  />
              <InterpolatingParam id="2708" interp="linr"  time="0/1" value="0" leadInLength="0/1"  />
              <InterpolatingParam id="2709" interp="linr"  time="0/1" value="0" leadInLength="0/1"  />
              <InterpolatingParam id="2710" interp="linr"  time="0/1" value="0" leadInLength="0/1"  />
             </VectorParam>
             <VectorParam id="2711"  name="geometryCrop">
              <InterpolatingParam id="2712" interp="linr"  time="-9999999/1" value="0" leadInLength="0/1"  />
              <InterpolatingParam id="2713" interp="linr"  time="-9999999/1" value="0" leadInLength="0/1"  />
              <InterpolatingParam id="2714" interp="linr"  time="-9999999/1" value="0" leadInLength="0/1"  />
              <InterpolatingParam id="2715" interp="linr"  time="-9999999/1" value="0" leadInLength="0/1"  />
             </VectorParam>
             <InterpolatingParam id="2716" interp="linr"  time="-9999999/1" value="1" leadInLength="0/1"  name="opacity"/>
             <InterpolatingParam id="2717" interp="linr"  time="0/1" value="0" leadInLength="0/1"  name="cursorOpacity"/>
             <InterpolatingParam id="2718" interp="linr"  time="0/1" value="0" leadInLength="0/1"  name="cursorScale"/>
            </Parameters>
            <Attributes>
             <Attribute id="2719" value="" name="ident"/>
            </Attributes>
            <MetaData>
             <entry key="AutoAppliedSmartFocus" val="False"/>
             <entry key="WinSubProjectDisplayName" val=""/>
            </MetaData>
            <ExtraData>
             <Entry key="ZoomPanBin">
              <ZoomPanBin id="2720"  >
               <ZoomPanKeyframes>
                <ZoomPanKeyframe id="2721" timeRangeEnd="-9999999/1" timeRangeDuration="0/1" interpolaterName="linr"  />
               </ZoomPanKeyframes>
              </ZoomPanBin>
             </Entry>
             <Entry key="CursorEffectBin">
              <CursorEffectBin id="2722"  >
               <CursorEffectKeyframes>
               </CursorEffectKeyframes>
              </CursorEffectBin>
             </Entry>
            </ExtraData>
           </ScreenVMFile>
           <ScreenVMFile id="2723" start="12079" duration="55" scalar="1/1" mediaStart="23463/1" mediaDuration="55/1" trackNumber="0" src="6" >
            <Transformer>
             <VectorParam id="2724"  name="translation">
              <InterpolatingParam id="2725" interp="linr"  time="-9999999/1" value="0" leadInLength="0/1"  />
              <InterpolatingParam id="2726" interp="linr"  time="-9999999/1" value="0" leadInLength="0/1"  />
              <InterpolatingParam id="2727" interp="linr"  time="-9999999/1" value="0" leadInLength="0/1"  />
             </VectorParam>
             <VectorParam id="2728"  name="rotation">
              <InterpolatingParam id="2729" interp="linr"  time="-9999999/1" value="0" leadInLength="0/1"  />
              <InterpolatingParam id="2730" interp="linr"  time="-9999999/1" value="0" leadInLength="0/1"  />
              <InterpolatingParam id="2731" interp="linr"  time="-9999999/1" value="0" leadInLength="0/1"  />
             </VectorParam>
             <VectorParam id="2732"  name="shear">
              <InterpolatingParam id="2733" interp="linr"  time="-9999999/1" value="0" leadInLength="0/1"  />
              <InterpolatingParam id="2734" interp="linr"  time="-9999999/1" value="0" leadInLength="0/1"  />
              <InterpolatingParam id="2735" interp="linr"  time="-9999999/1" value="0" leadInLength="0/1"  />
             </VectorParam>
             <VectorParam id="2736"  name="scale">
              <InterpolatingParam id="2737" interp="linr"  time="-9999999/1" value="1" leadInLength="0/1"  />
              <InterpolatingParam id="2738" interp="linr"  time="-9999999/1" value="1" leadInLength="0/1"  />
              <InterpolatingParam id="2739" interp="linr"  time="-9999999/1" value="1" leadInLength="0/1"  />
             </VectorParam>
             <VectorParam id="2740"  name="anchor">
              <InterpolatingParam id="2741" interp="linr"  time="0/1" value="0" leadInLength="0/1"  />
              <InterpolatingParam id="2742" interp="linr"  time="0/1" value="0" leadInLength="0/1"  />
              <InterpolatingParam id="2743" interp="linr"  time="0/1" value="0" leadInLength="0/1"  />
             </VectorParam>
            </Transformer>
            <Parameters>
             <VectorParam id="2744"  name="sourceCrop">
              <InterpolatingParam id="2745" interp="linr"  time="0/1" value="0" leadInLength="0/1"  />
              <InterpolatingParam id="2746" interp="linr"  time="0/1" value="0" leadInLength="0/1"  />
              <InterpolatingParam id="2747" interp="linr"  time="0/1" value="0" leadInLength="0/1"  />
              <InterpolatingParam id="2748" interp="linr"  time="0/1" value="0" leadInLength="0/1"  />
             </VectorParam>
             <VectorParam id="2749"  name="geometryCrop">
              <InterpolatingParam id="2750" interp="linr"  time="-9999999/1" value="0" leadInLength="0/1"  />
              <InterpolatingParam id="2751" interp="linr"  time="-9999999/1" value="0" leadInLength="0/1"  />
              <InterpolatingParam id="2752" interp="linr"  time="-9999999/1" value="0" leadInLength="0/1"  />
              <InterpolatingParam id="2753" interp="linr"  time="-9999999/1" value="0" leadInLength="0/1"  />
             </VectorParam>
             <InterpolatingParam id="2754" interp="linr"  time="-9999999/1" value="1" leadInLength="0/1"  name="opacity"/>
             <InterpolatingParam id="2755" interp="linr"  time="0/1" value="0" leadInLength="0/1"  name="cursorOpacity"/>
             <InterpolatingParam id="2756" interp="linr"  time="0/1" value="0" leadInLength="0/1"  name="cursorScale"/>
            </Parameters>
            <Attributes>
             <Attribute id="2757" value="" name="ident"/>
            </Attributes>
            <MetaData>
             <entry key="AutoAppliedSmartFocus" val="False"/>
             <entry key="WinSubProjectDisplayName" val=""/>
            </MetaData>
            <ExtraData>
             <Entry key="ZoomPanBin">
              <ZoomPanBin id="2758"  >
               <ZoomPanKeyframes>
                <ZoomPanKeyframe id="2759" timeRangeEnd="-9999999/1" timeRangeDuration="0/1" interpolaterName="linr"  />
               </ZoomPanKeyframes>
              </ZoomPanBin>
             </Entry>
             <Entry key="CursorEffectBin">
              <CursorEffectBin id="2760"  >
               <CursorEffectKeyframes>
               </CursorEffectKeyframes>
              </CursorEffectBin>
             </Entry>
            </ExtraData>
           </ScreenVMFile>
           <ScreenVMFile id="2761" start="12134" duration="417" scalar="1/1" mediaStart="25254/1" mediaDuration="417/1" trackNumber="0" src="6" >
            <Transformer>
             <VectorParam id="2762"  name="translation">
              <InterpolatingParam id="2763" interp="linr"  time="-9999999/1" value="0" leadInLength="0/1"  />
              <InterpolatingParam id="2764" interp="linr"  time="-9999999/1" value="0" leadInLength="0/1"  />
              <InterpolatingParam id="2765" interp="linr"  time="-9999999/1" value="0" leadInLength="0/1"  />
             </VectorParam>
             <VectorParam id="2766"  name="rotation">
              <InterpolatingParam id="2767" interp="linr"  time="-9999999/1" value="0" leadInLength="0/1"  />
              <InterpolatingParam id="2768" interp="linr"  time="-9999999/1" value="0" leadInLength="0/1"  />
              <InterpolatingParam id="2769" interp="linr"  time="-9999999/1" value="0" leadInLength="0/1"  />
             </VectorParam>
             <VectorParam id="2770"  name="shear">
              <InterpolatingParam id="2771" interp="linr"  time="-9999999/1" value="0" leadInLength="0/1"  />
              <InterpolatingParam id="2772" interp="linr"  time="-9999999/1" value="0" leadInLength="0/1"  />
              <InterpolatingParam id="2773" interp="linr"  time="-9999999/1" value="0" leadInLength="0/1"  />
             </VectorParam>
             <VectorParam id="2774"  name="scale">
              <InterpolatingParam id="2775" interp="linr"  time="-9999999/1" value="1" leadInLength="0/1"  />
              <InterpolatingParam id="2776" interp="linr"  time="-9999999/1" value="1" leadInLength="0/1"  />
              <InterpolatingParam id="2777" interp="linr"  time="-9999999/1" value="1" leadInLength="0/1"  />
             </VectorParam>
             <VectorParam id="2778"  name="anchor">
              <InterpolatingParam id="2779" interp="linr"  time="0/1" value="0" leadInLength="0/1"  />
              <InterpolatingParam id="2780" interp="linr"  time="0/1" value="0" leadInLength="0/1"  />
              <InterpolatingParam id="2781" interp="linr"  time="0/1" value="0" leadInLength="0/1"  />
             </VectorParam>
            </Transformer>
            <Parameters>
             <VectorParam id="2782"  name="sourceCrop">
              <InterpolatingParam id="2783" interp="linr"  time="0/1" value="0" leadInLength="0/1"  />
              <InterpolatingParam id="2784" interp="linr"  time="0/1" value="0" leadInLength="0/1"  />
              <InterpolatingParam id="2785" interp="linr"  time="0/1" value="0" leadInLength="0/1"  />
              <InterpolatingParam id="2786" interp="linr"  time="0/1" value="0" leadInLength="0/1"  />
             </VectorParam>
             <VectorParam id="2787"  name="geometryCrop">
              <InterpolatingParam id="2788" interp="linr"  time="-9999999/1" value="0" leadInLength="0/1"  />
              <InterpolatingParam id="2789" interp="linr"  time="-9999999/1" value="0" leadInLength="0/1"  />
              <InterpolatingParam id="2790" interp="linr"  time="-9999999/1" value="0" leadInLength="0/1"  />
              <InterpolatingParam id="2791" interp="linr"  time="-9999999/1" value="0" leadInLength="0/1"  />
             </VectorParam>
             <InterpolatingParam id="2792" interp="linr"  time="-9999999/1" value="1" leadInLength="0/1"  name="opacity"/>
             <InterpolatingParam id="2793" interp="linr"  time="0/1" value="0" leadInLength="0/1"  name="cursorOpacity"/>
             <InterpolatingParam id="2794" interp="linr"  time="0/1" value="0" leadInLength="0/1"  name="cursorScale"/>
            </Parameters>
            <Attributes>
             <Attribute id="2795" value="" name="ident"/>
            </Attributes>
            <MetaData>
             <entry key="AutoAppliedSmartFocus" val="False"/>
             <entry key="WinSubProjectDisplayName" val=""/>
            </MetaData>
            <ExtraData>
             <Entry key="ZoomPanBin">
              <ZoomPanBin id="2796"  >
               <ZoomPanKeyframes>
                <ZoomPanKeyframe id="2797" timeRangeEnd="-9999999/1" timeRangeDuration="0/1" interpolaterName="linr"  />
               </ZoomPanKeyframes>
              </ZoomPanBin>
             </Entry>
             <Entry key="CursorEffectBin">
              <CursorEffectBin id="2798"  >
               <CursorEffectKeyframes>
               </CursorEffectKeyframes>
              </CursorEffectBin>
             </Entry>
            </ExtraData>
           </ScreenVMFile>
           <ScreenVMFile id="2799" start="12551" duration="10" scalar="1/1" mediaStart="26793/1" mediaDuration="10/1" trackNumber="0" src="6" >
            <Transformer>
             <VectorParam id="2800"  name="translation">
              <InterpolatingParam id="2801" interp="linr"  time="-9999999/1" value="0" leadInLength="0/1"  />
              <InterpolatingParam id="2802" interp="linr"  time="-9999999/1" value="0" leadInLength="0/1"  />
              <InterpolatingParam id="2803" interp="linr"  time="-9999999/1" value="0" leadInLength="0/1"  />
             </VectorParam>
             <VectorParam id="2804"  name="rotation">
              <InterpolatingParam id="2805" interp="linr"  time="-9999999/1" value="0" leadInLength="0/1"  />
              <InterpolatingParam id="2806" interp="linr"  time="-9999999/1" value="0" leadInLength="0/1"  />
              <InterpolatingParam id="2807" interp="linr"  time="-9999999/1" value="0" leadInLength="0/1"  />
             </VectorParam>
             <VectorParam id="2808"  name="shear">
              <InterpolatingParam id="2809" interp="linr"  time="-9999999/1" value="0" leadInLength="0/1"  />
              <InterpolatingParam id="2810" interp="linr"  time="-9999999/1" value="0" leadInLength="0/1"  />
              <InterpolatingParam id="2811" interp="linr"  time="-9999999/1" value="0" leadInLength="0/1"  />
             </VectorParam>
             <VectorParam id="2812"  name="scale">
              <InterpolatingParam id="2813" interp="linr"  time="-9999999/1" value="1" leadInLength="0/1"  />
              <InterpolatingParam id="2814" interp="linr"  time="-9999999/1" value="1" leadInLength="0/1"  />
              <InterpolatingParam id="2815" interp="linr"  time="-9999999/1" value="1" leadInLength="0/1"  />
             </VectorParam>
             <VectorParam id="2816"  name="anchor">
              <InterpolatingParam id="2817" interp="linr"  time="0/1" value="0" leadInLength="0/1"  />
              <InterpolatingParam id="2818" interp="linr"  time="0/1" value="0" leadInLength="0/1"  />
              <InterpolatingParam id="2819" interp="linr"  time="0/1" value="0" leadInLength="0/1"  />
             </VectorParam>
            </Transformer>
            <Parameters>
             <VectorParam id="2820"  name="sourceCrop">
              <InterpolatingParam id="2821" interp="linr"  time="0/1" value="0" leadInLength="0/1"  />
              <InterpolatingParam id="2822" interp="linr"  time="0/1" value="0" leadInLength="0/1"  />
              <InterpolatingParam id="2823" interp="linr"  time="0/1" value="0" leadInLength="0/1"  />
              <InterpolatingParam id="2824" interp="linr"  time="0/1" value="0" leadInLength="0/1"  />
             </VectorParam>
             <VectorParam id="2825"  name="geometryCrop">
              <InterpolatingParam id="2826" interp="linr"  time="-9999999/1" value="0" leadInLength="0/1"  />
              <InterpolatingParam id="2827" interp="linr"  time="-9999999/1" value="0" leadInLength="0/1"  />
              <InterpolatingParam id="2828" interp="linr"  time="-9999999/1" value="0" leadInLength="0/1"  />
              <InterpolatingParam id="2829" interp="linr"  time="-9999999/1" value="0" leadInLength="0/1"  />
             </VectorParam>
             <InterpolatingParam id="2830" interp="linr"  time="-9999999/1" value="1" leadInLength="0/1"  name="opacity"/>
             <InterpolatingParam id="2831" interp="linr"  time="0/1" value="0" leadInLength="0/1"  name="cursorOpacity"/>
             <InterpolatingParam id="2832" interp="linr"  time="0/1" value="0" leadInLength="0/1"  name="cursorScale"/>
            </Parameters>
            <Attributes>
             <Attribute id="2833" value="" name="ident"/>
            </Attributes>
            <MetaData>
             <entry key="AutoAppliedSmartFocus" val="False"/>
             <entry key="WinSubProjectDisplayName" val=""/>
            </MetaData>
            <ExtraData>
             <Entry key="ZoomPanBin">
              <ZoomPanBin id="2834"  >
               <ZoomPanKeyframes>
                <ZoomPanKeyframe id="2835" timeRangeEnd="-9999999/1" timeRangeDuration="0/1" interpolaterName="linr"  />
               </ZoomPanKeyframes>
              </ZoomPanBin>
             </Entry>
             <Entry key="CursorEffectBin">
              <CursorEffectBin id="2836"  >
               <CursorEffectKeyframes>
               </CursorEffectKeyframes>
              </CursorEffectBin>
             </Entry>
            </ExtraData>
           </ScreenVMFile>
          </Medias>
         </GenericTrack>
        </StitchedMedia>
        <StitchedMedia id="2837" start="5671" duration="327" scalar="1/1" mediaStart="647/1" mediaDuration="327/1" minMediaStart="0/1" >
         <Transformer>
          <VectorParam id="2838"  name="translation">
           <InterpolatingParam id="2839" interp="linr"  >
            <Keyframes>
            <Keyframe id="2840"  time="-9999999/1" value="3.4680591731730234e-011" leadInLength="0/1"  />
            <Keyframe id="2841"  time="109/1" value="-611.69956151707845" leadInLength="1/1"  interpolater="leadin-linr"  />
            <Keyframe id="2842"  time="182/1" value="-645.05710593770414" leadInLength="30/1"  interpolater="leadin-linr"  />
            <Keyframe id="2843"  time="647/1" value="1.4401753863542864e-010" leadInLength="26/1"  interpolater="leadin-linr"  />
            </Keyframes>
           </InterpolatingParam>
           <InterpolatingParam id="2844" interp="linr"  >
            <Keyframes>
            <Keyframe id="2845"  time="-9999999/1" value="-5.71750054708294e-012" leadInLength="0/1"  />
            <Keyframe id="2846"  time="109/1" value="323.84101829181969" leadInLength="1/1"  interpolater="leadin-linr"  />
            <Keyframe id="2847"  time="182/1" value="355.38228136439108" leadInLength="30/1"  interpolater="leadin-linr"  />
            <Keyframe id="2848"  time="647/1" value="8.3548940239881118e-012" leadInLength="26/1"  interpolater="leadin-linr"  />
            </Keyframes>
           </InterpolatingParam>
           <InterpolatingParam id="2849" interp="linr"  >
            <Keyframes>
            <Keyframe id="2850"  time="-9999999/1" value="0" leadInLength="0/1"  />
            <Keyframe id="2851"  time="109/1" value="0" leadInLength="1/1"  interpolater="leadin-linr"  />
            <Keyframe id="2852"  time="182/1" value="0" leadInLength="30/1"  interpolater="leadin-linr"  />
            <Keyframe id="2853"  time="647/1" value="0" leadInLength="26/1"  interpolater="leadin-linr"  />
            </Keyframes>
           </InterpolatingParam>
          </VectorParam>
          <VectorParam id="2854"  name="rotation">
           <InterpolatingParam id="2855" interp="linr"  >
            <Keyframes>
            <Keyframe id="2856"  time="-9999999/1" value="0" leadInLength="0/1"  />
            <Keyframe id="2857"  time="109/1" value="0" leadInLength="1/1"  interpolater="leadin-linr"  />
            <Keyframe id="2858"  time="182/1" value="0" leadInLength="30/1"  interpolater="leadin-linr"  />
            <Keyframe id="2859"  time="647/1" value="0" leadInLength="26/1"  interpolater="leadin-linr"  />
            </Keyframes>
           </InterpolatingParam>
           <InterpolatingParam id="2860" interp="linr"  >
            <Keyframes>
            <Keyframe id="2861"  time="-9999999/1" value="0" leadInLength="0/1"  />
            <Keyframe id="2862"  time="109/1" value="0" leadInLength="1/1"  interpolater="leadin-linr"  />
            <Keyframe id="2863"  time="182/1" value="0" leadInLength="30/1"  interpolater="leadin-linr"  />
            <Keyframe id="2864"  time="647/1" value="0" leadInLength="26/1"  interpolater="leadin-linr"  />
            </Keyframes>
           </InterpolatingParam>
           <InterpolatingParam id="2865" interp="linr"  >
            <Keyframes>
            <Keyframe id="2866"  time="-9999999/1" value="0" leadInLength="0/1"  />
            <Keyframe id="2867"  time="109/1" value="0" leadInLength="1/1"  interpolater="leadin-linr"  />
            <Keyframe id="2868"  time="182/1" value="0" leadInLength="30/1"  interpolater="leadin-linr"  />
            <Keyframe id="2869"  time="647/1" value="0" leadInLength="26/1"  interpolater="leadin-linr"  />
            </Keyframes>
           </InterpolatingParam>
          </VectorParam>
          <VectorParam id="2870"  name="shear">
           <InterpolatingParam id="2871" interp="linr"  >
            <Keyframes>
            <Keyframe id="2872"  time="-9999999/1" value="0" leadInLength="0/1"  />
            <Keyframe id="2873"  time="109/1" value="0" leadInLength="1/1"  interpolater="leadin-linr"  />
            <Keyframe id="2874"  time="182/1" value="0" leadInLength="30/1"  interpolater="leadin-linr"  />
            <Keyframe id="2875"  time="647/1" value="0" leadInLength="26/1"  interpolater="leadin-linr"  />
            </Keyframes>
           </InterpolatingParam>
           <InterpolatingParam id="2876" interp="linr"  >
            <Keyframes>
            <Keyframe id="2877"  time="-9999999/1" value="0" leadInLength="0/1"  />
            <Keyframe id="2878"  time="109/1" value="0" leadInLength="1/1"  interpolater="leadin-linr"  />
            <Keyframe id="2879"  time="182/1" value="0" leadInLength="30/1"  interpolater="leadin-linr"  />
            <Keyframe id="2880"  time="647/1" value="0" leadInLength="26/1"  interpolater="leadin-linr"  />
            </Keyframes>
           </InterpolatingParam>
           <InterpolatingParam id="2881" interp="linr"  >
            <Keyframes>
            <Keyframe id="2882"  time="-9999999/1" value="0" leadInLength="0/1"  />
            <Keyframe id="2883"  time="109/1" value="0" leadInLength="1/1"  interpolater="leadin-linr"  />
            <Keyframe id="2884"  time="182/1" value="0" leadInLength="30/1"  interpolater="leadin-linr"  />
            <Keyframe id="2885"  time="647/1" value="0" leadInLength="26/1"  interpolater="leadin-linr"  />
            </Keyframes>
           </InterpolatingParam>
          </VectorParam>
          <VectorParam id="2886"  name="scale">
           <InterpolatingParam id="2887" interp="linr"  >
            <Keyframes>
            <Keyframe id="2888"  time="-9999999/1" value="0.70833333333333337" leadInLength="0/1"  />
            <Keyframe id="2889"  time="109/1" value="1.3455206678003764" leadInLength="1/1"  interpolater="leadin-linr"  />
            <Keyframe id="2890"  time="182/1" value="1.4082330348079739" leadInLength="30/1"  interpolater="leadin-linr"  />
            <Keyframe id="2891"  time="647/1" value="0.70833333333333359" leadInLength="26/1"  interpolater="leadin-linr"  />
            </Keyframes>
           </InterpolatingParam>
           <InterpolatingParam id="2892" interp="linr"  >
            <Keyframes>
            <Keyframe id="2893"  time="-9999999/1" value="0.70833333333333337" leadInLength="0/1"  />
            <Keyframe id="2894"  time="109/1" value="1.3455207000697711" leadInLength="1/1"  interpolater="leadin-linr"  />
            <Keyframe id="2895"  time="182/1" value="1.4082329582216824" leadInLength="30/1"  interpolater="leadin-linr"  />
            <Keyframe id="2896"  time="647/1" value="0.70833329481085727" leadInLength="26/1"  interpolater="leadin-linr"  />
            </Keyframes>
           </InterpolatingParam>
           <InterpolatingParam id="2897" interp="linr"  >
            <Keyframes>
            <Keyframe id="2898"  time="-9999999/1" value="1" leadInLength="0/1"  />
            <Keyframe id="2899"  time="109/1" value="0.99999999999999989" leadInLength="1/1"  interpolater="leadin-linr"  />
            <Keyframe id="2900"  time="182/1" value="0.99999999999999978" leadInLength="30/1"  interpolater="leadin-linr"  />
            <Keyframe id="2901"  time="647/1" value="0.99999999999999967" leadInLength="26/1"  interpolater="leadin-linr"  />
            </Keyframes>
           </InterpolatingParam>
          </VectorParam>
          <VectorParam id="2902"  name="anchor">
           <InterpolatingParam id="2903" interp="linr"  time="0/1" value="0" leadInLength="0/1"  />
           <InterpolatingParam id="2904" interp="linr"  time="0/1" value="0" leadInLength="0/1"  />
           <InterpolatingParam id="2905" interp="linr"  time="0/1" value="0" leadInLength="0/1"  />
          </VectorParam>
         </Transformer>
         <Parameters>
          <VectorParam id="2906"  name="sourceCrop">
           <InterpolatingParam id="2907" interp="linr"  time="0/1" value="0" leadInLength="0/1"  />
           <InterpolatingParam id="2908" interp="linr"  time="0/1" value="0" leadInLength="0/1"  />
           <InterpolatingParam id="2909" interp="linr"  time="0/1" value="0" leadInLength="0/1"  />
           <InterpolatingParam id="2910" interp="linr"  time="0/1" value="0" leadInLength="0/1"  />
          </VectorParam>
          <VectorParam id="2911"  name="geometryCrop">
           <InterpolatingParam id="2912" interp="linr"  >
            <Keyframes>
            <Keyframe id="2913"  time="-9999999/1" value="0" leadInLength="0/1"  />
            <Keyframe id="2914"  time="109/1" value="0" leadInLength="1/1"  interpolater="leadin-linr"  />
            <Keyframe id="2915"  time="182/1" value="0" leadInLength="30/1"  interpolater="leadin-linr"  />
            <Keyframe id="2916"  time="647/1" value="0" leadInLength="26/1"  interpolater="leadin-linr"  />
            </Keyframes>
           </InterpolatingParam>
           <InterpolatingParam id="2917" interp="linr"  >
            <Keyframes>
            <Keyframe id="2918"  time="-9999999/1" value="0" leadInLength="0/1"  />
            <Keyframe id="2919"  time="109/1" value="0" leadInLength="1/1"  interpolater="leadin-linr"  />
            <Keyframe id="2920"  time="182/1" value="0" leadInLength="30/1"  interpolater="leadin-linr"  />
            <Keyframe id="2921"  time="647/1" value="0" leadInLength="26/1"  interpolater="leadin-linr"  />
            </Keyframes>
           </InterpolatingParam>
           <InterpolatingParam id="2922" interp="linr"  >
            <Keyframes>
            <Keyframe id="2923"  time="-9999999/1" value="0" leadInLength="0/1"  />
            <Keyframe id="2924"  time="109/1" value="0" leadInLength="1/1"  interpolater="leadin-linr"  />
            <Keyframe id="2925"  time="182/1" value="0" leadInLength="30/1"  interpolater="leadin-linr"  />
            <Keyframe id="2926"  time="647/1" value="0" leadInLength="26/1"  interpolater="leadin-linr"  />
            </Keyframes>
           </InterpolatingParam>
           <InterpolatingParam id="2927" interp="linr"  >
            <Keyframes>
            <Keyframe id="2928"  time="-9999999/1" value="0" leadInLength="0/1"  />
            <Keyframe id="2929"  time="109/1" value="0" leadInLength="1/1"  interpolater="leadin-linr"  />
            <Keyframe id="2930"  time="182/1" value="0" leadInLength="30/1"  interpolater="leadin-linr"  />
            <Keyframe id="2931"  time="647/1" value="0" leadInLength="26/1"  interpolater="leadin-linr"  />
            </Keyframes>
           </InterpolatingParam>
          </VectorParam>
          <InterpolatingParam id="2932" interp="linr"  name="opacity">
           <Keyframes>
           <Keyframe id="2933"  time="-9999999/1" value="1" leadInLength="0/1"  />
           <Keyframe id="2934"  time="109/1" value="1" leadInLength="1/1"  interpolater="leadin-linr"  />
           <Keyframe id="2935"  time="182/1" value="1" leadInLength="30/1"  interpolater="leadin-linr"  />
           <Keyframe id="2936"  time="647/1" value="1" leadInLength="26/1"  interpolater="leadin-linr"  />
           </Keyframes>
          </InterpolatingParam>
          <InterpolatingParam id="2937" interp="linr"  time="0/1" value="1" leadInLength="0/1"  name="cursorOpacity"/>
          <InterpolatingParam id="2938" interp="linr"  time="0/1" value="1" leadInLength="0/1"  name="cursorScale"/>
          <Parameter id="2939"  name="captions"/>
         </Parameters>
         <Effects>
          <GenericEffect id="2940" name = "CursorBaseEffectName" >
           <Parameters>
           <InterpolatingParam id="2941" interp="linr"  time="-9999999/1" value="1" leadInLength="0/1"   name="cursorSize"/>
           <InterpolatingParam id="2942" interp="linr"  time="-9999999/1" value="0" leadInLength="0/1"   name="highlightBlurRadius"/>
           <InterpolatingParam id="2943" interp="linr"  time="-9999999/1" value="0" leadInLength="0/1"   name="highlightColorBlue"/>
           <InterpolatingParam id="2944" interp="linr"  time="-9999999/1" value="255" leadInLength="0/1"   name="highlightColorGreen"/>
           <InterpolatingParam id="2945" interp="linr"  time="-9999999/1" value="255" leadInLength="0/1"   name="highlightColorRed"/>
           <InterpolatingParam id="2946" interp="linr"  time="-9999999/1" value="5" leadInLength="0/1"   name="highlightFeatherSize"/>
           <InterpolatingParam id="2947" interp="linr"  time="-9999999/1" value="2" leadInLength="0/1"   name="highlightMagnification"/>
           <InterpolatingParam id="2948" interp="linr"  time="-9999999/1" value="1" leadInLength="0/1"   name="highlightOpacity"/>
           <InterpolatingParam id="2949" interp="linr"  time="-9999999/1" value="45" leadInLength="0/1"   name="highlightSize"/>
           <Parameter id="2950"   name="highlightType">
            <Keyframes>
            <Keyframe id="2951"  time="-9999999/1" value="0" leadInLength="0/1"  />
            </Keyframes>
           </Parameter>
           <InterpolatingParam id="2952" interp="linr"  time="-9999999/1" value="0" leadInLength="0/1"   name="leftClickColorBlue"/>
           <InterpolatingParam id="2953" interp="linr"  time="-9999999/1" value="0" leadInLength="0/1"   name="leftClickColorGreen"/>
           <InterpolatingParam id="2954" interp="linr"  time="-9999999/1" value="255" leadInLength="0/1"   name="leftClickColorRed"/>
           <InterpolatingParam id="2955" interp="linr"  time="-9999999/1" value="0.80000000000000004" leadInLength="0/1"   name="leftClickDuration"/>
           <InterpolatingParam id="2956" interp="linr"  time="-9999999/1" value="20" leadInLength="0/1"   name="leftClickSize"/>
           <Parameter id="2957"   name="leftClickSoundFilename">
            <Keyframes>
            <Keyframe id="2958"  time="-9999999/1" value="" leadInLength="0/1"  />
            </Keyframes>
           </Parameter>
           <InterpolatingParam id="2959" interp="linr"  time="-9999999/1" value="1" leadInLength="0/1"   name="leftClickSoundVolume"/>
           <Parameter id="2960"   name="leftClickType">
            <Keyframes>
            <Keyframe id="2961"  time="-9999999/1" value="0" leadInLength="0/1"  />
            </Keyframes>
           </Parameter>
           <InterpolatingParam id="2962" interp="linr"  time="-9999999/1" value="1" leadInLength="0/1"   name="opacity"/>
           <InterpolatingParam id="2963" interp="linr"  time="-9999999/1" value="255" leadInLength="0/1"   name="rightClickColorBlue"/>
           <InterpolatingParam id="2964" interp="linr"  time="-9999999/1" value="0" leadInLength="0/1"   name="rightClickColorGreen"/>
           <InterpolatingParam id="2965" interp="linr"  time="-9999999/1" value="0" leadInLength="0/1"   name="rightClickColorRed"/>
           <InterpolatingParam id="2966" interp="linr"  time="-9999999/1" value="0.80000000000000004" leadInLength="0/1"   name="rightClickDuration"/>
           <InterpolatingParam id="2967" interp="linr"  time="-9999999/1" value="20" leadInLength="0/1"   name="rightClickSize"/>
           <Parameter id="2968"   name="rightClickSoundFilename">
            <Keyframes>
            <Keyframe id="2969"  time="-9999999/1" value="" leadInLength="0/1"  />
            </Keyframes>
           </Parameter>
           <InterpolatingParam id="2970" interp="linr"  time="-9999999/1" value="1" leadInLength="0/1"   name="rightClickSoundVolume"/>
           <Parameter id="2971"   name="rightClickType">
            <Keyframes>
            <Keyframe id="2972"  time="-9999999/1" value="0" leadInLength="0/1"  />
            </Keyframes>
           </Parameter>
           </Parameters>
          </GenericEffect>
         </Effects>
         <Attributes>
          <Attribute id="2973" value="" name="ident"/>
         </Attributes>
         <MetaData>
          <entry key="AutoAppliedSmartFocus" val="False"/>
          <entry key="WinSubProjectDisplayName" val=""/>
         </MetaData>
         <ExtraData>
          <Entry key="ZoomPanBin">
           <ZoomPanBin id="2974"  >
            <ZoomPanKeyframes>
             <ZoomPanKeyframe id="2975" timeRangeEnd="-9999999/1" timeRangeDuration="0/1" interpolaterName="linr"  />
             <ZoomPanKeyframe id="2976" timeRangeEnd="109/1" timeRangeDuration="1/1" interpolaterName="linr"  />
             <ZoomPanKeyframe id="2977" timeRangeEnd="182/1" timeRangeDuration="30/1" interpolaterName="linr"  />
             <ZoomPanKeyframe id="2978" timeRangeEnd="647/1" timeRangeDuration="26/1" interpolaterName="linr"  />
            </ZoomPanKeyframes>
           </ZoomPanBin>
          </Entry>
          <Entry key="CursorEffectBin">
           <CursorEffectBin id="2979"  >
            <CursorEffectKeyframes>
             <CursorEffectKeyframe id="2980" timeRangeEnd="-9999999/1" timeRangeDuration="0/1" interpolaterName=""  />
            </CursorEffectKeyframes>
           </CursorEffectBin>
          </Entry>
         </ExtraData>
         <GenericTrack id="2981"  >
          <Attributes>
           <Attribute id="2982" value="" name="ident"/>
           <Attribute id="2983" value="0" name="audioMuted"/>
           <Attribute id="2984" value="0" name="videoHidden"/>
          </Attributes>
          <MetaData>
           <entry key="IsLocked" val="False"/>
           <entry key="WinTrackHeight" val="0"/>
          </MetaData>
          <Medias>
           <ScreenVMFile id="2985" start="0" duration="638" scalar="1/1" mediaStart="0/1" mediaDuration="638/1" trackNumber="0" src="7" >
            <Transformer>
             <VectorParam id="2986"  name="translation">
              <InterpolatingParam id="2987" interp="linr"  time="-9999999/1" value="0" leadInLength="0/1"  />
              <InterpolatingParam id="2988" interp="linr"  time="-9999999/1" value="0" leadInLength="0/1"  />
              <InterpolatingParam id="2989" interp="linr"  time="-9999999/1" value="0" leadInLength="0/1"  />
             </VectorParam>
             <VectorParam id="2990"  name="rotation">
              <InterpolatingParam id="2991" interp="linr"  time="-9999999/1" value="0" leadInLength="0/1"  />
              <InterpolatingParam id="2992" interp="linr"  time="-9999999/1" value="0" leadInLength="0/1"  />
              <InterpolatingParam id="2993" interp="linr"  time="-9999999/1" value="0" leadInLength="0/1"  />
             </VectorParam>
             <VectorParam id="2994"  name="shear">
              <InterpolatingParam id="2995" interp="linr"  time="-9999999/1" value="0" leadInLength="0/1"  />
              <InterpolatingParam id="2996" interp="linr"  time="-9999999/1" value="0" leadInLength="0/1"  />
              <InterpolatingParam id="2997" interp="linr"  time="-9999999/1" value="0" leadInLength="0/1"  />
             </VectorParam>
             <VectorParam id="2998"  name="scale">
              <InterpolatingParam id="2999" interp="linr"  time="-9999999/1" value="1" leadInLength="0/1"  />
              <InterpolatingParam id="3000" interp="linr"  time="-9999999/1" value="1" leadInLength="0/1"  />
              <InterpolatingParam id="3001" interp="linr"  time="-9999999/1" value="1" leadInLength="0/1"  />
             </VectorParam>
             <VectorParam id="3002"  name="anchor">
              <InterpolatingParam id="3003" interp="linr"  time="0/1" value="0" leadInLength="0/1"  />
              <InterpolatingParam id="3004" interp="linr"  time="0/1" value="0" leadInLength="0/1"  />
              <InterpolatingParam id="3005" interp="linr"  time="0/1" value="0" leadInLength="0/1"  />
             </VectorParam>
            </Transformer>
            <Parameters>
             <VectorParam id="3006"  name="sourceCrop">
              <InterpolatingParam id="3007" interp="linr"  time="0/1" value="0" leadInLength="0/1"  />
              <InterpolatingParam id="3008" interp="linr"  time="0/1" value="0" leadInLength="0/1"  />
              <InterpolatingParam id="3009" interp="linr"  time="0/1" value="0" leadInLength="0/1"  />
              <InterpolatingParam id="3010" interp="linr"  time="0/1" value="0" leadInLength="0/1"  />
             </VectorParam>
             <VectorParam id="3011"  name="geometryCrop">
              <InterpolatingParam id="3012" interp="linr"  time="-9999999/1" value="0" leadInLength="0/1"  />
              <InterpolatingParam id="3013" interp="linr"  time="-9999999/1" value="0" leadInLength="0/1"  />
              <InterpolatingParam id="3014" interp="linr"  time="-9999999/1" value="0" leadInLength="0/1"  />
              <InterpolatingParam id="3015" interp="linr"  time="-9999999/1" value="0" leadInLength="0/1"  />
             </VectorParam>
             <InterpolatingParam id="3016" interp="linr"  time="-9999999/1" value="1" leadInLength="0/1"  name="opacity"/>
             <InterpolatingParam id="3017" interp="linr"  time="0/1" value="0" leadInLength="0/1"  name="cursorOpacity"/>
             <InterpolatingParam id="3018" interp="linr"  time="0/1" value="0" leadInLength="0/1"  name="cursorScale"/>
            </Parameters>
            <Attributes>
             <Attribute id="3019" value="" name="ident"/>
            </Attributes>
            <MetaData>
             <entry key="AutoAppliedSmartFocus" val="False"/>
             <entry key="WinSubProjectDisplayName" val=""/>
            </MetaData>
            <ExtraData>
             <Entry key="ZoomPanBin">
              <ZoomPanBin id="3020"  >
               <ZoomPanKeyframes>
               </ZoomPanKeyframes>
              </ZoomPanBin>
             </Entry>
             <Entry key="CursorEffectBin">
              <CursorEffectBin id="3021"  >
               <CursorEffectKeyframes>
               </CursorEffectKeyframes>
              </CursorEffectBin>
             </Entry>
            </ExtraData>
           </ScreenVMFile>
           <ScreenVMFile id="3022" start="638" duration="80" scalar="1/1" mediaStart="1033/1" mediaDuration="80/1" trackNumber="0" src="7" >
            <Transformer>
             <VectorParam id="3023"  name="translation">
              <InterpolatingParam id="3024" interp="linr"  time="-9999999/1" value="0" leadInLength="0/1"  />
              <InterpolatingParam id="3025" interp="linr"  time="-9999999/1" value="0" leadInLength="0/1"  />
              <InterpolatingParam id="3026" interp="linr"  time="-9999999/1" value="0" leadInLength="0/1"  />
             </VectorParam>
             <VectorParam id="3027"  name="rotation">
              <InterpolatingParam id="3028" interp="linr"  time="-9999999/1" value="0" leadInLength="0/1"  />
              <InterpolatingParam id="3029" interp="linr"  time="-9999999/1" value="0" leadInLength="0/1"  />
              <InterpolatingParam id="3030" interp="linr"  time="-9999999/1" value="0" leadInLength="0/1"  />
             </VectorParam>
             <VectorParam id="3031"  name="shear">
              <InterpolatingParam id="3032" interp="linr"  time="-9999999/1" value="0" leadInLength="0/1"  />
              <InterpolatingParam id="3033" interp="linr"  time="-9999999/1" value="0" leadInLength="0/1"  />
              <InterpolatingParam id="3034" interp="linr"  time="-9999999/1" value="0" leadInLength="0/1"  />
             </VectorParam>
             <VectorParam id="3035"  name="scale">
              <InterpolatingParam id="3036" interp="linr"  time="-9999999/1" value="1" leadInLength="0/1"  />
              <InterpolatingParam id="3037" interp="linr"  time="-9999999/1" value="1" leadInLength="0/1"  />
              <InterpolatingParam id="3038" interp="linr"  time="-9999999/1" value="1" leadInLength="0/1"  />
             </VectorParam>
             <VectorParam id="3039"  name="anchor">
              <InterpolatingParam id="3040" interp="linr"  time="0/1" value="0" leadInLength="0/1"  />
              <InterpolatingParam id="3041" interp="linr"  time="0/1" value="0" leadInLength="0/1"  />
              <InterpolatingParam id="3042" interp="linr"  time="0/1" value="0" leadInLength="0/1"  />
             </VectorParam>
            </Transformer>
            <Parameters>
             <VectorParam id="3043"  name="sourceCrop">
              <InterpolatingParam id="3044" interp="linr"  time="0/1" value="0" leadInLength="0/1"  />
              <InterpolatingParam id="3045" interp="linr"  time="0/1" value="0" leadInLength="0/1"  />
              <InterpolatingParam id="3046" interp="linr"  time="0/1" value="0" leadInLength="0/1"  />
              <InterpolatingParam id="3047" interp="linr"  time="0/1" value="0" leadInLength="0/1"  />
             </VectorParam>
             <VectorParam id="3048"  name="geometryCrop">
              <InterpolatingParam id="3049" interp="linr"  time="-9999999/1" value="0" leadInLength="0/1"  />
              <InterpolatingParam id="3050" interp="linr"  time="-9999999/1" value="0" leadInLength="0/1"  />
              <InterpolatingParam id="3051" interp="linr"  time="-9999999/1" value="0" leadInLength="0/1"  />
              <InterpolatingParam id="3052" interp="linr"  time="-9999999/1" value="0" leadInLength="0/1"  />
             </VectorParam>
             <InterpolatingParam id="3053" interp="linr"  time="-9999999/1" value="1" leadInLength="0/1"  name="opacity"/>
             <InterpolatingParam id="3054" interp="linr"  time="0/1" value="0" leadInLength="0/1"  name="cursorOpacity"/>
             <InterpolatingParam id="3055" interp="linr"  time="0/1" value="0" leadInLength="0/1"  name="cursorScale"/>
            </Parameters>
            <Attributes>
             <Attribute id="3056" value="" name="ident"/>
            </Attributes>
            <MetaData>
             <entry key="AutoAppliedSmartFocus" val="False"/>
             <entry key="WinSubProjectDisplayName" val=""/>
            </MetaData>
            <ExtraData>
             <Entry key="ZoomPanBin">
              <ZoomPanBin id="3057"  >
               <ZoomPanKeyframes>
               </ZoomPanKeyframes>
              </ZoomPanBin>
             </Entry>
             <Entry key="CursorEffectBin">
              <CursorEffectBin id="3058"  >
               <CursorEffectKeyframes>
               </CursorEffectKeyframes>
              </CursorEffectBin>
             </Entry>
            </ExtraData>
           </ScreenVMFile>
           <ScreenVMFile id="3059" start="718" duration="115" scalar="1/1" mediaStart="1123/1" mediaDuration="115/1" trackNumber="0" src="7" >
            <Transformer>
             <VectorParam id="3060"  name="translation">
              <InterpolatingParam id="3061" interp="linr"  time="-9999999/1" value="0" leadInLength="0/1"  />
              <InterpolatingParam id="3062" interp="linr"  time="-9999999/1" value="0" leadInLength="0/1"  />
              <InterpolatingParam id="3063" interp="linr"  time="-9999999/1" value="0" leadInLength="0/1"  />
             </VectorParam>
             <VectorParam id="3064"  name="rotation">
              <InterpolatingParam id="3065" interp="linr"  time="-9999999/1" value="0" leadInLength="0/1"  />
              <InterpolatingParam id="3066" interp="linr"  time="-9999999/1" value="0" leadInLength="0/1"  />
              <InterpolatingParam id="3067" interp="linr"  time="-9999999/1" value="0" leadInLength="0/1"  />
             </VectorParam>
             <VectorParam id="3068"  name="shear">
              <InterpolatingParam id="3069" interp="linr"  time="-9999999/1" value="0" leadInLength="0/1"  />
              <InterpolatingParam id="3070" interp="linr"  time="-9999999/1" value="0" leadInLength="0/1"  />
              <InterpolatingParam id="3071" interp="linr"  time="-9999999/1" value="0" leadInLength="0/1"  />
             </VectorParam>
             <VectorParam id="3072"  name="scale">
              <InterpolatingParam id="3073" interp="linr"  time="-9999999/1" value="1" leadInLength="0/1"  />
              <InterpolatingParam id="3074" interp="linr"  time="-9999999/1" value="1" leadInLength="0/1"  />
              <InterpolatingParam id="3075" interp="linr"  time="-9999999/1" value="1" leadInLength="0/1"  />
             </VectorParam>
             <VectorParam id="3076"  name="anchor">
              <InterpolatingParam id="3077" interp="linr"  time="0/1" value="0" leadInLength="0/1"  />
              <InterpolatingParam id="3078" interp="linr"  time="0/1" value="0" leadInLength="0/1"  />
              <InterpolatingParam id="3079" interp="linr"  time="0/1" value="0" leadInLength="0/1"  />
             </VectorParam>
            </Transformer>
            <Parameters>
             <VectorParam id="3080"  name="sourceCrop">
              <InterpolatingParam id="3081" interp="linr"  time="0/1" value="0" leadInLength="0/1"  />
              <InterpolatingParam id="3082" interp="linr"  time="0/1" value="0" leadInLength="0/1"  />
              <InterpolatingParam id="3083" interp="linr"  time="0/1" value="0" leadInLength="0/1"  />
              <InterpolatingParam id="3084" interp="linr"  time="0/1" value="0" leadInLength="0/1"  />
             </VectorParam>
             <VectorParam id="3085"  name="geometryCrop">
              <InterpolatingParam id="3086" interp="linr"  time="-9999999/1" value="0" leadInLength="0/1"  />
              <InterpolatingParam id="3087" interp="linr"  time="-9999999/1" value="0" leadInLength="0/1"  />
              <InterpolatingParam id="3088" interp="linr"  time="-9999999/1" value="0" leadInLength="0/1"  />
              <InterpolatingParam id="3089" interp="linr"  time="-9999999/1" value="0" leadInLength="0/1"  />
             </VectorParam>
             <InterpolatingParam id="3090" interp="linr"  time="-9999999/1" value="1" leadInLength="0/1"  name="opacity"/>
             <InterpolatingParam id="3091" interp="linr"  time="0/1" value="0" leadInLength="0/1"  name="cursorOpacity"/>
             <InterpolatingParam id="3092" interp="linr"  time="0/1" value="0" leadInLength="0/1"  name="cursorScale"/>
            </Parameters>
            <Attributes>
             <Attribute id="3093" value="" name="ident"/>
            </Attributes>
            <MetaData>
             <entry key="AutoAppliedSmartFocus" val="False"/>
             <entry key="WinSubProjectDisplayName" val=""/>
            </MetaData>
            <ExtraData>
             <Entry key="ZoomPanBin">
              <ZoomPanBin id="3094"  >
               <ZoomPanKeyframes>
               </ZoomPanKeyframes>
              </ZoomPanBin>
             </Entry>
             <Entry key="CursorEffectBin">
              <CursorEffectBin id="3095"  >
               <CursorEffectKeyframes>
               </CursorEffectKeyframes>
              </CursorEffectBin>
             </Entry>
            </ExtraData>
           </ScreenVMFile>
           <ScreenVMFile id="3096" start="833" duration="21" scalar="1/1" mediaStart="1255/1" mediaDuration="21/1" trackNumber="0" src="7" >
            <Transformer>
             <VectorParam id="3097"  name="translation">
              <InterpolatingParam id="3098" interp="linr"  time="-9999999/1" value="0" leadInLength="0/1"  />
              <InterpolatingParam id="3099" interp="linr"  time="-9999999/1" value="0" leadInLength="0/1"  />
              <InterpolatingParam id="3100" interp="linr"  time="-9999999/1" value="0" leadInLength="0/1"  />
             </VectorParam>
             <VectorParam id="3101"  name="rotation">
              <InterpolatingParam id="3102" interp="linr"  time="-9999999/1" value="0" leadInLength="0/1"  />
              <InterpolatingParam id="3103" interp="linr"  time="-9999999/1" value="0" leadInLength="0/1"  />
              <InterpolatingParam id="3104" interp="linr"  time="-9999999/1" value="0" leadInLength="0/1"  />
             </VectorParam>
             <VectorParam id="3105"  name="shear">
              <InterpolatingParam id="3106" interp="linr"  time="-9999999/1" value="0" leadInLength="0/1"  />
              <InterpolatingParam id="3107" interp="linr"  time="-9999999/1" value="0" leadInLength="0/1"  />
              <InterpolatingParam id="3108" interp="linr"  time="-9999999/1" value="0" leadInLength="0/1"  />
             </VectorParam>
             <VectorParam id="3109"  name="scale">
              <InterpolatingParam id="3110" interp="linr"  time="-9999999/1" value="1" leadInLength="0/1"  />
              <InterpolatingParam id="3111" interp="linr"  time="-9999999/1" value="1" leadInLength="0/1"  />
              <InterpolatingParam id="3112" interp="linr"  time="-9999999/1" value="1" leadInLength="0/1"  />
             </VectorParam>
             <VectorParam id="3113"  name="anchor">
              <InterpolatingParam id="3114" interp="linr"  time="0/1" value="0" leadInLength="0/1"  />
              <InterpolatingParam id="3115" interp="linr"  time="0/1" value="0" leadInLength="0/1"  />
              <InterpolatingParam id="3116" interp="linr"  time="0/1" value="0" leadInLength="0/1"  />
             </VectorParam>
            </Transformer>
            <Parameters>
             <VectorParam id="3117"  name="sourceCrop">
              <InterpolatingParam id="3118" interp="linr"  time="0/1" value="0" leadInLength="0/1"  />
              <InterpolatingParam id="3119" interp="linr"  time="0/1" value="0" leadInLength="0/1"  />
              <InterpolatingParam id="3120" interp="linr"  time="0/1" value="0" leadInLength="0/1"  />
              <InterpolatingParam id="3121" interp="linr"  time="0/1" value="0" leadInLength="0/1"  />
             </VectorParam>
             <VectorParam id="3122"  name="geometryCrop">
              <InterpolatingParam id="3123" interp="linr"  time="-9999999/1" value="0" leadInLength="0/1"  />
              <InterpolatingParam id="3124" interp="linr"  time="-9999999/1" value="0" leadInLength="0/1"  />
              <InterpolatingParam id="3125" interp="linr"  time="-9999999/1" value="0" leadInLength="0/1"  />
              <InterpolatingParam id="3126" interp="linr"  time="-9999999/1" value="0" leadInLength="0/1"  />
             </VectorParam>
             <InterpolatingParam id="3127" interp="linr"  time="-9999999/1" value="1" leadInLength="0/1"  name="opacity"/>
             <InterpolatingParam id="3128" interp="linr"  time="0/1" value="0" leadInLength="0/1"  name="cursorOpacity"/>
             <InterpolatingParam id="3129" interp="linr"  time="0/1" value="0" leadInLength="0/1"  name="cursorScale"/>
            </Parameters>
            <Attributes>
             <Attribute id="3130" value="" name="ident"/>
            </Attributes>
            <MetaData>
             <entry key="AutoAppliedSmartFocus" val="False"/>
             <entry key="WinSubProjectDisplayName" val=""/>
            </MetaData>
            <ExtraData>
             <Entry key="ZoomPanBin">
              <ZoomPanBin id="3131"  >
               <ZoomPanKeyframes>
               </ZoomPanKeyframes>
              </ZoomPanBin>
             </Entry>
             <Entry key="CursorEffectBin">
              <CursorEffectBin id="3132"  >
               <CursorEffectKeyframes>
               </CursorEffectKeyframes>
              </CursorEffectBin>
             </Entry>
            </ExtraData>
           </ScreenVMFile>
           <ScreenVMFile id="3133" start="854" duration="48" scalar="1/1" mediaStart="2025/1" mediaDuration="48/1" trackNumber="0" src="7" >
            <Transformer>
             <VectorParam id="3134"  name="translation">
              <InterpolatingParam id="3135" interp="linr"  time="-9999999/1" value="0" leadInLength="0/1"  />
              <InterpolatingParam id="3136" interp="linr"  time="-9999999/1" value="0" leadInLength="0/1"  />
              <InterpolatingParam id="3137" interp="linr"  time="-9999999/1" value="0" leadInLength="0/1"  />
             </VectorParam>
             <VectorParam id="3138"  name="rotation">
              <InterpolatingParam id="3139" interp="linr"  time="-9999999/1" value="0" leadInLength="0/1"  />
              <InterpolatingParam id="3140" interp="linr"  time="-9999999/1" value="0" leadInLength="0/1"  />
              <InterpolatingParam id="3141" interp="linr"  time="-9999999/1" value="0" leadInLength="0/1"  />
             </VectorParam>
             <VectorParam id="3142"  name="shear">
              <InterpolatingParam id="3143" interp="linr"  time="-9999999/1" value="0" leadInLength="0/1"  />
              <InterpolatingParam id="3144" interp="linr"  time="-9999999/1" value="0" leadInLength="0/1"  />
              <InterpolatingParam id="3145" interp="linr"  time="-9999999/1" value="0" leadInLength="0/1"  />
             </VectorParam>
             <VectorParam id="3146"  name="scale">
              <InterpolatingParam id="3147" interp="linr"  time="-9999999/1" value="1" leadInLength="0/1"  />
              <InterpolatingParam id="3148" interp="linr"  time="-9999999/1" value="1" leadInLength="0/1"  />
              <InterpolatingParam id="3149" interp="linr"  time="-9999999/1" value="1" leadInLength="0/1"  />
             </VectorParam>
             <VectorParam id="3150"  name="anchor">
              <InterpolatingParam id="3151" interp="linr"  time="0/1" value="0" leadInLength="0/1"  />
              <InterpolatingParam id="3152" interp="linr"  time="0/1" value="0" leadInLength="0/1"  />
              <InterpolatingParam id="3153" interp="linr"  time="0/1" value="0" leadInLength="0/1"  />
             </VectorParam>
            </Transformer>
            <Parameters>
             <VectorParam id="3154"  name="sourceCrop">
              <InterpolatingParam id="3155" interp="linr"  time="0/1" value="0" leadInLength="0/1"  />
              <InterpolatingParam id="3156" interp="linr"  time="0/1" value="0" leadInLength="0/1"  />
              <InterpolatingParam id="3157" interp="linr"  time="0/1" value="0" leadInLength="0/1"  />
              <InterpolatingParam id="3158" interp="linr"  time="0/1" value="0" leadInLength="0/1"  />
             </VectorParam>
             <VectorParam id="3159"  name="geometryCrop">
              <InterpolatingParam id="3160" interp="linr"  time="-9999999/1" value="0" leadInLength="0/1"  />
              <InterpolatingParam id="3161" interp="linr"  time="-9999999/1" value="0" leadInLength="0/1"  />
              <InterpolatingParam id="3162" interp="linr"  time="-9999999/1" value="0" leadInLength="0/1"  />
              <InterpolatingParam id="3163" interp="linr"  time="-9999999/1" value="0" leadInLength="0/1"  />
             </VectorParam>
             <InterpolatingParam id="3164" interp="linr"  time="-9999999/1" value="1" leadInLength="0/1"  name="opacity"/>
             <InterpolatingParam id="3165" interp="linr"  time="0/1" value="0" leadInLength="0/1"  name="cursorOpacity"/>
             <InterpolatingParam id="3166" interp="linr"  time="0/1" value="0" leadInLength="0/1"  name="cursorScale"/>
            </Parameters>
            <Attributes>
             <Attribute id="3167" value="" name="ident"/>
            </Attributes>
            <MetaData>
             <entry key="AutoAppliedSmartFocus" val="False"/>
             <entry key="WinSubProjectDisplayName" val=""/>
            </MetaData>
            <ExtraData>
             <Entry key="ZoomPanBin">
              <ZoomPanBin id="3168"  >
               <ZoomPanKeyframes>
               </ZoomPanKeyframes>
              </ZoomPanBin>
             </Entry>
             <Entry key="CursorEffectBin">
              <CursorEffectBin id="3169"  >
               <CursorEffectKeyframes>
               </CursorEffectKeyframes>
              </CursorEffectBin>
             </Entry>
            </ExtraData>
           </ScreenVMFile>
           <ScreenVMFile id="3170" start="902" duration="3346" scalar="1/1" mediaStart="2081/1" mediaDuration="3346/1" trackNumber="0" src="7" >
            <Transformer>
             <VectorParam id="3171"  name="translation">
              <InterpolatingParam id="3172" interp="linr"  time="-9999999/1" value="0" leadInLength="0/1"  />
              <InterpolatingParam id="3173" interp="linr"  time="-9999999/1" value="0" leadInLength="0/1"  />
              <InterpolatingParam id="3174" interp="linr"  time="-9999999/1" value="0" leadInLength="0/1"  />
             </VectorParam>
             <VectorParam id="3175"  name="rotation">
              <InterpolatingParam id="3176" interp="linr"  time="-9999999/1" value="0" leadInLength="0/1"  />
              <InterpolatingParam id="3177" interp="linr"  time="-9999999/1" value="0" leadInLength="0/1"  />
              <InterpolatingParam id="3178" interp="linr"  time="-9999999/1" value="0" leadInLength="0/1"  />
             </VectorParam>
             <VectorParam id="3179"  name="shear">
              <InterpolatingParam id="3180" interp="linr"  time="-9999999/1" value="0" leadInLength="0/1"  />
              <InterpolatingParam id="3181" interp="linr"  time="-9999999/1" value="0" leadInLength="0/1"  />
              <InterpolatingParam id="3182" interp="linr"  time="-9999999/1" value="0" leadInLength="0/1"  />
             </VectorParam>
             <VectorParam id="3183"  name="scale">
              <InterpolatingParam id="3184" interp="linr"  time="-9999999/1" value="1" leadInLength="0/1"  />
              <InterpolatingParam id="3185" interp="linr"  time="-9999999/1" value="1" leadInLength="0/1"  />
              <InterpolatingParam id="3186" interp="linr"  time="-9999999/1" value="1" leadInLength="0/1"  />
             </VectorParam>
             <VectorParam id="3187"  name="anchor">
              <InterpolatingParam id="3188" interp="linr"  time="0/1" value="0" leadInLength="0/1"  />
              <InterpolatingParam id="3189" interp="linr"  time="0/1" value="0" leadInLength="0/1"  />
              <InterpolatingParam id="3190" interp="linr"  time="0/1" value="0" leadInLength="0/1"  />
             </VectorParam>
            </Transformer>
            <Parameters>
             <VectorParam id="3191"  name="sourceCrop">
              <InterpolatingParam id="3192" interp="linr"  time="0/1" value="0" leadInLength="0/1"  />
              <InterpolatingParam id="3193" interp="linr"  time="0/1" value="0" leadInLength="0/1"  />
              <InterpolatingParam id="3194" interp="linr"  time="0/1" value="0" leadInLength="0/1"  />
              <InterpolatingParam id="3195" interp="linr"  time="0/1" value="0" leadInLength="0/1"  />
             </VectorParam>
             <VectorParam id="3196"  name="geometryCrop">
              <InterpolatingParam id="3197" interp="linr"  time="-9999999/1" value="0" leadInLength="0/1"  />
              <InterpolatingParam id="3198" interp="linr"  time="-9999999/1" value="0" leadInLength="0/1"  />
              <InterpolatingParam id="3199" interp="linr"  time="-9999999/1" value="0" leadInLength="0/1"  />
              <InterpolatingParam id="3200" interp="linr"  time="-9999999/1" value="0" leadInLength="0/1"  />
             </VectorParam>
             <InterpolatingParam id="3201" interp="linr"  time="-9999999/1" value="1" leadInLength="0/1"  name="opacity"/>
             <InterpolatingParam id="3202" interp="linr"  time="0/1" value="0" leadInLength="0/1"  name="cursorOpacity"/>
             <InterpolatingParam id="3203" interp="linr"  time="0/1" value="0" leadInLength="0/1"  name="cursorScale"/>
            </Parameters>
            <Attributes>
             <Attribute id="3204" value="" name="ident"/>
            </Attributes>
            <MetaData>
             <entry key="AutoAppliedSmartFocus" val="False"/>
             <entry key="WinSubProjectDisplayName" val=""/>
            </MetaData>
            <ExtraData>
             <Entry key="ZoomPanBin">
              <ZoomPanBin id="3205"  >
               <ZoomPanKeyframes>
               </ZoomPanKeyframes>
              </ZoomPanBin>
             </Entry>
             <Entry key="CursorEffectBin">
              <CursorEffectBin id="3206"  >
               <CursorEffectKeyframes>
               </CursorEffectKeyframes>
              </CursorEffectBin>
             </Entry>
            </ExtraData>
           </ScreenVMFile>
          </Medias>
         </GenericTrack>
        </StitchedMedia>
       </Medias>
      </GenericTrack>
      <GenericTrack id="3207"  >
       <Attributes>
        <Attribute id="3208" value="" name="ident"/>
        <Attribute id="3209" value="0" name="audioMuted"/>
        <Attribute id="3210" value="0" name="videoHidden"/>
       </Attributes>
       <MetaData>
        <entry key="IsLocked" val="False"/>
        <entry key="WinTrackHeight" val="62"/>
       </MetaData>
       <Medias>
        <IMFile id="3211" start="4" duration="150" scalar="1/1" mediaStart="0/1" mediaDuration="1/1" trackNumber="0" src="17" trimStartSum="0/1" >
         <Transformer>
          <VectorParam id="3212"  name="translation">
           <InterpolatingParam id="3213" interp="linr"  time="-9999999/1" value="9.4085695687249478e-011" leadInLength="0/1"  />
           <InterpolatingParam id="3214" interp="linr"  time="-9999999/1" value="1.0300555498812007" leadInLength="0/1"  />
           <InterpolatingParam id="3215" interp="linr"  time="-9999999/1" value="0" leadInLength="0/1"  />
          </VectorParam>
          <VectorParam id="3216"  name="rotation">
           <InterpolatingParam id="3217" interp="linr"  time="-9999999/1" value="0" leadInLength="0/1"  />
           <InterpolatingParam id="3218" interp="linr"  time="-9999999/1" value="0" leadInLength="0/1"  />
           <InterpolatingParam id="3219" interp="linr"  time="-9999999/1" value="0" leadInLength="0/1"  />
          </VectorParam>
          <VectorParam id="3220"  name="shear">
           <InterpolatingParam id="3221" interp="linr"  time="-9999999/1" value="0" leadInLength="0/1"  />
           <InterpolatingParam id="3222" interp="linr"  time="-9999999/1" value="0" leadInLength="0/1"  />
           <InterpolatingParam id="3223" interp="linr"  time="-9999999/1" value="0" leadInLength="0/1"  />
          </VectorParam>
          <VectorParam id="3224"  name="scale">
           <InterpolatingParam id="3225" interp="linr"  time="-9999999/1" value="1.076801266824843" leadInLength="0/1"  />
           <InterpolatingParam id="3226" interp="linr"  time="-9999999/1" value="1.0465596048108128" leadInLength="0/1"  />
           <InterpolatingParam id="3227" interp="linr"  time="-9999999/1" value="1" leadInLength="0/1"  />
          </VectorParam>
          <VectorParam id="3228"  name="anchor">
           <InterpolatingParam id="3229" interp="linr"  time="0/1" value="0" leadInLength="0/1"  />
           <InterpolatingParam id="3230" interp="linr"  time="0/1" value="0" leadInLength="0/1"  />
           <InterpolatingParam id="3231" interp="linr"  time="0/1" value="0" leadInLength="0/1"  />
          </VectorParam>
         </Transformer>
         <Parameters>
          <VectorParam id="3232"  name="sourceCrop">
           <InterpolatingParam id="3233" interp="linr"  time="0/1" value="0" leadInLength="0/1"  />
           <InterpolatingParam id="3234" interp="linr"  time="0/1" value="0" leadInLength="0/1"  />
           <InterpolatingParam id="3235" interp="linr"  time="0/1" value="0" leadInLength="0/1"  />
           <InterpolatingParam id="3236" interp="linr"  time="0/1" value="0" leadInLength="0/1"  />
          </VectorParam>
          <VectorParam id="3237"  name="geometryCrop">
           <InterpolatingParam id="3238" interp="linr"  time="-9999999/1" value="0" leadInLength="0/1"  />
           <InterpolatingParam id="3239" interp="linr"  time="-9999999/1" value="0" leadInLength="0/1"  />
           <InterpolatingParam id="3240" interp="linr"  time="-9999999/1" value="0" leadInLength="0/1"  />
           <InterpolatingParam id="3241" interp="linr"  time="-9999999/1" value="0" leadInLength="0/1"  />
          </VectorParam>
          <InterpolatingParam id="3242" interp="linr"  time="-9999999/1" value="1" leadInLength="0/1"  name="opacity"/>
         </Parameters>
         <Attributes>
          <Attribute id="3243" value="" name="ident"/>
         </Attributes>
         <MetaData>
          <entry key="WinSubProjectDisplayName" val=""/>
         </MetaData>
         <ExtraData>
          <Entry key="ZoomPanBin">
           <ZoomPanBin id="3244"  >
            <ZoomPanKeyframes>
             <ZoomPanKeyframe id="3245" timeRangeEnd="-9999999/1" timeRangeDuration="0/1" interpolaterName="linr"  />
            </ZoomPanKeyframes>
           </ZoomPanBin>
          </Entry>
         </ExtraData>
        </IMFile>
        <Group id="3246" start="278" duration="105" scalar="1" mediaStart="315" mediaDuration="105" baseWidthAttr="0" baseHeightAttr="0"  >
         <Parameters>
          <VectorParam id="3247"  name="sourceCrop">
           <InterpolatingParam id="3248" interp="linr"  time="0/1" value="0" leadInLength="0/1"  />
           <InterpolatingParam id="3249" interp="linr"  time="0/1" value="0" leadInLength="0/1"  />
           <InterpolatingParam id="3250" interp="linr"  time="0/1" value="0" leadInLength="0/1"  />
           <InterpolatingParam id="3251" interp="linr"  time="0/1" value="0" leadInLength="0/1"  />
          </VectorParam>
          <VectorParam id="3252"  name="geometryCrop">
           <InterpolatingParam id="3253" interp="linr"  time="-9999999/1" value="0" leadInLength="0/1"  interpolater="leadin-eioe"  />
           <InterpolatingParam id="3254" interp="linr"  time="-9999999/1" value="0" leadInLength="0/1"  interpolater="leadin-eioe"  />
           <InterpolatingParam id="3255" interp="linr"  time="-9999999/1" value="0" leadInLength="0/1"  interpolater="leadin-eioe"  />
           <InterpolatingParam id="3256" interp="linr"  time="-9999999/1" value="0" leadInLength="0/1"  interpolater="leadin-eioe"  />
          </VectorParam>
          <InterpolatingParam id="3257" interp="linr"  time="-9999999/1" value="1" leadInLength="0/1"  name="opacity"/>
          <Parameter id="3258"  name="captions"/>
          <InterpolatingParam id="3259" interp="linr"  time="0/1" value="1" leadInLength="0/1"  name="volume"/>
         </Parameters>
         <Transformer>
          <VectorParam id="3260"  name="translation">
           <InterpolatingParam id="3261" interp="linr"  time="-9999999/1" value="-26.427831357197952" leadInLength="0/1"  />
           <InterpolatingParam id="3262" interp="linr"  time="-9999999/1" value="-5.4999999999960201" leadInLength="0/1"  />
           <InterpolatingParam id="3263" interp="linr"  time="-9999999/1" value="0" leadInLength="0/1"  />
          </VectorParam>
          <VectorParam id="3264"  name="rotation">
           <InterpolatingParam id="3265" interp="linr"  time="-9999999/1" value="0" leadInLength="0/1"  />
           <InterpolatingParam id="3266" interp="linr"  time="-9999999/1" value="0" leadInLength="0/1"  />
           <InterpolatingParam id="3267" interp="linr"  time="-9999999/1" value="0" leadInLength="0/1"  />
          </VectorParam>
          <VectorParam id="3268"  name="shear">
           <InterpolatingParam id="3269" interp="linr"  time="-9999999/1" value="0" leadInLength="0/1"  />
           <InterpolatingParam id="3270" interp="linr"  time="-9999999/1" value="0" leadInLength="0/1"  />
           <InterpolatingParam id="3271" interp="linr"  time="-9999999/1" value="0" leadInLength="0/1"  />
          </VectorParam>
          <VectorParam id="3272"  name="scale">
           <InterpolatingParam id="3273" interp="linr"  time="-9999999/1" value="1" leadInLength="0/1"  />
           <InterpolatingParam id="3274" interp="linr"  time="-9999999/1" value="1" leadInLength="0/1"  />
           <InterpolatingParam id="3275" interp="linr"  time="-9999999/1" value="1" leadInLength="0/1"  />
          </VectorParam>
          <VectorParam id="3276"  name="anchor">
           <InterpolatingParam id="3277" interp="linr"  time="0/1" value="0.5" leadInLength="0/1"  />
           <InterpolatingParam id="3278" interp="linr"  time="0/1" value="0.5" leadInLength="0/1"  />
           <InterpolatingParam id="3279" interp="linr"  time="0/1" value="0" leadInLength="0/1"  />
          </VectorParam>
         </Transformer>
         <GenericMixer id="3280"  >
          <MetaData>
          </MetaData>
          <Tracks>
           <GenericTrack id="3281"  >
            <Attributes>
             <Attribute id="3282" value="" name="ident"/>
             <Attribute id="3283" value="0" name="audioMuted"/>
             <Attribute id="3284" value="0" name="videoHidden"/>
            </Attributes>
            <MetaData>
             <entry key="IsLocked" val="False"/>
             <entry key="WinTrackHeight" val="0"/>
            </MetaData>
            <Medias>
             <VMFile id="3285" start="0" duration="600" scalar="1/1" mediaStart="0/1" mediaDuration="600/1" trackNumber="0" src="9" >
              <Transformer>
               <VectorParam id="3286"  name="translation">
                <InterpolatingParam id="3287" interp="linr"  time="-9999999/1" value="0.49999999988145821" leadInLength="0/1"  />
                <InterpolatingParam id="3288" interp="linr"  time="-9999999/1" value="0.49999999999391775" leadInLength="0/1"  />
                <InterpolatingParam id="3289" interp="linr"  time="-9999999/1" value="0" leadInLength="0/1"  />
               </VectorParam>
               <VectorParam id="3290"  name="rotation">
                <InterpolatingParam id="3291" interp="linr"  time="-9999999/1" value="0" leadInLength="0/1"  />
                <InterpolatingParam id="3292" interp="linr"  time="-9999999/1" value="0" leadInLength="0/1"  />
                <InterpolatingParam id="3293" interp="linr"  time="-9999999/1" value="0" leadInLength="0/1"  />
               </VectorParam>
               <VectorParam id="3294"  name="shear">
                <InterpolatingParam id="3295" interp="linr"  time="-9999999/1" value="0" leadInLength="0/1"  />
                <InterpolatingParam id="3296" interp="linr"  time="-9999999/1" value="0" leadInLength="0/1"  />
                <InterpolatingParam id="3297" interp="linr"  time="-9999999/1" value="0" leadInLength="0/1"  />
               </VectorParam>
               <VectorParam id="3298"  name="scale">
                <InterpolatingParam id="3299" interp="linr"  time="-9999999/1" value="1" leadInLength="0/1"  />
                <InterpolatingParam id="3300" interp="linr"  time="-9999999/1" value="1" leadInLength="0/1"  />
                <InterpolatingParam id="3301" interp="linr"  time="-9999999/1" value="1" leadInLength="0/1"  />
               </VectorParam>
               <VectorParam id="3302"  name="anchor">
                <InterpolatingParam id="3303" interp="linr"  time="0/1" value="0" leadInLength="0/1"  />
                <InterpolatingParam id="3304" interp="linr"  time="0/1" value="0" leadInLength="0/1"  />
                <InterpolatingParam id="3305" interp="linr"  time="0/1" value="0" leadInLength="0/1"  />
               </VectorParam>
              </Transformer>
              <Parameters>
               <VectorParam id="3306"  name="sourceCrop">
                <InterpolatingParam id="3307" interp="linr"  time="0/1" value="0" leadInLength="0/1"  />
                <InterpolatingParam id="3308" interp="linr"  time="0/1" value="0" leadInLength="0/1"  />
                <InterpolatingParam id="3309" interp="linr"  time="0/1" value="0" leadInLength="0/1"  />
                <InterpolatingParam id="3310" interp="linr"  time="0/1" value="0" leadInLength="0/1"  />
               </VectorParam>
               <VectorParam id="3311"  name="geometryCrop">
                <InterpolatingParam id="3312" interp="linr"  time="-9999999/1" value="0" leadInLength="0/1"  interpolater="leadin-eioe"  />
                <InterpolatingParam id="3313" interp="linr"  time="-9999999/1" value="0" leadInLength="0/1"  interpolater="leadin-eioe"  />
                <InterpolatingParam id="3314" interp="linr"  time="-9999999/1" value="0" leadInLength="0/1"  interpolater="leadin-eioe"  />
                <InterpolatingParam id="3315" interp="linr"  time="-9999999/1" value="0" leadInLength="0/1"  interpolater="leadin-eioe"  />
               </VectorParam>
               <InterpolatingParam id="3316" interp="linr"  time="-9999999/1" value="1" leadInLength="0/1"  name="opacity"/>
              </Parameters>
              <Attributes>
               <Attribute id="3317" value="" name="ident"/>
              </Attributes>
              <MetaData>
               <entry key="WinSubProjectDisplayName" val=""/>
              </MetaData>
              <ExtraData>
               <Entry key="ZoomPanBin">
                <ZoomPanBin id="3318"  >
                 <ZoomPanKeyframes>
                  <ZoomPanKeyframe id="3319" timeRangeEnd="-9999999/1" timeRangeDuration="0/1" interpolaterName="linr"  />
                 </ZoomPanKeyframes>
                </ZoomPanBin>
               </Entry>
              </ExtraData>
             </VMFile>
            </Medias>
           </GenericTrack>
           <GenericTrack id="3320"  >
            <Attributes>
             <Attribute id="3321" value="" name="ident"/>
             <Attribute id="3322" value="0" name="audioMuted"/>
             <Attribute id="3323" value="0" name="videoHidden"/>
            </Attributes>
            <MetaData>
             <entry key="IsLocked" val="False"/>
             <entry key="WinTrackHeight" val="0"/>
            </MetaData>
            <Medias>
             <UnifiedMedia id="3324"  >
              <AudioTransition id="3325" start="30" duration="30" >
               <Parameters>
                <InterpolatingParam id="3326" interp="linr"  time="0/1" value="1" leadInLength="0/1"  name="volume"/>
                <Parameter id="3327"  name="captions"/>
               </Parameters>
               <Effects>
                <GenericEffect id="3328" name = "AudioTransition" >
                 <Parameters>
                 <Parameter id="3329"   name="audioEdgeModType">
                  <Keyframes>
                  <Keyframe id="3330"  time="0/1" value="0" leadInLength="0/1"  />
                  </Keyframes>
                 </Parameter>
                 <Parameter id="3331"   name="audioTransitionType">
                  <Keyframes>
                  <Keyframe id="3332"  time="0/1" value="" leadInLength="0/1"  />
                  </Keyframes>
                 </Parameter>
                 </Parameters>
                 <MetaData>
                 </MetaData>
                </GenericEffect>
               </Effects>
               <Attributes>
                <Attribute id="3333" value="" name="ident"/>
                <Attribute id="3334" value="0" name="sampleRate"/>
                <Attribute id="3335" value="0" name="bitDepth"/>
                <Attribute id="3336" value="1" name="gain"/>
                <Attribute id="3337" value="0" name="mixToMono"/>
               </Attributes>
              </AudioTransition>
              <ImageTransition id="3338" start="30" duration="30" >
               <Transformer>
                <VectorParam id="3339"  name="translation">
                 <InterpolatingParam id="3340" interp="linr"  time="0/1" value="0" leadInLength="0/1"  />
                 <InterpolatingParam id="3341" interp="linr"  time="0/1" value="0" leadInLength="0/1"  />
                 <InterpolatingParam id="3342" interp="linr"  time="0/1" value="0" leadInLength="0/1"  />
                </VectorParam>
                <VectorParam id="3343"  name="rotation">
                 <InterpolatingParam id="3344" interp="linr"  time="0/1" value="0" leadInLength="0/1"  />
                 <InterpolatingParam id="3345" interp="linr"  time="0/1" value="0" leadInLength="0/1"  />
                 <InterpolatingParam id="3346" interp="linr"  time="0/1" value="0" leadInLength="0/1"  />
                </VectorParam>
                <VectorParam id="3347"  name="shear">
                 <InterpolatingParam id="3348" interp="linr"  time="0/1" value="0" leadInLength="0/1"  />
                 <InterpolatingParam id="3349" interp="linr"  time="0/1" value="0" leadInLength="0/1"  />
                 <InterpolatingParam id="3350" interp="linr"  time="0/1" value="0" leadInLength="0/1"  />
                </VectorParam>
                <VectorParam id="3351"  name="scale">
                 <InterpolatingParam id="3352" interp="linr"  time="0/1" value="1" leadInLength="0/1"  />
                 <InterpolatingParam id="3353" interp="linr"  time="0/1" value="1" leadInLength="0/1"  />
                 <InterpolatingParam id="3354" interp="linr"  time="0/1" value="1" leadInLength="0/1"  />
                </VectorParam>
                <VectorParam id="3355"  name="anchor">
                 <InterpolatingParam id="3356" interp="linr"  time="0/1" value="0" leadInLength="0/1"  />
                 <InterpolatingParam id="3357" interp="linr"  time="0/1" value="0" leadInLength="0/1"  />
                 <InterpolatingParam id="3358" interp="linr"  time="0/1" value="0" leadInLength="0/1"  />
                </VectorParam>
               </Transformer>
               <Parameters>
                <VectorParam id="3359"  name="sourceCrop">
                 <InterpolatingParam id="3360" interp="linr"  time="0/1" value="0" leadInLength="0/1"  />
                 <InterpolatingParam id="3361" interp="linr"  time="0/1" value="0" leadInLength="0/1"  />
                 <InterpolatingParam id="3362" interp="linr"  time="0/1" value="0" leadInLength="0/1"  />
                 <InterpolatingParam id="3363" interp="linr"  time="0/1" value="0" leadInLength="0/1"  />
                </VectorParam>
                <VectorParam id="3364"  name="geometryCrop">
                 <InterpolatingParam id="3365" interp="linr"  time="0/1" value="0" leadInLength="0/1"  />
                 <InterpolatingParam id="3366" interp="linr"  time="0/1" value="0" leadInLength="0/1"  />
                 <InterpolatingParam id="3367" interp="linr"  time="0/1" value="0" leadInLength="0/1"  />
                 <InterpolatingParam id="3368" interp="linr"  time="0/1" value="0" leadInLength="0/1"  />
                </VectorParam>
                <InterpolatingParam id="3369" interp="linr"  time="0/1" value="1" leadInLength="0/1"  name="opacity"/>
               </Parameters>
               <Effects>
                <GenericEffect id="3370" name = "VisualTransition" >
                 <Parameters>
                 <InterpolatingParam id="3371" interp="linr"  time="0/1" value="0.5" leadInLength="0/1"   name="leftFramePercentage"/>
                 <InterpolatingParam id="3372" interp="linr"  time="0/1" value="0.5" leadInLength="0/1"   name="rightFramePercentage"/>
                 <Parameter id="3373"   name="visualEdgeModType">
                  <Keyframes>
                  <Keyframe id="3374"  time="0/1" value="1" leadInLength="0/1"  />
                  </Keyframes>
                 </Parameter>
                 <Parameter id="3375"   name="visualTransitionType">
                  <Keyframes>
                  <Keyframe id="3376"  time="0/1" value="Fade" leadInLength="0/1"  />
                  </Keyframes>
                 </Parameter>
                 </Parameters>
                 <MetaData>
                 </MetaData>
                </GenericEffect>
               </Effects>
               <Attributes>
                <Attribute id="3377" value="" name="ident"/>
               </Attributes>
               <ExtraData>
                <Entry key="ZoomPanBin">
                 <ZoomPanBin id="3378"  >
                  <ZoomPanKeyframes>
                  </ZoomPanKeyframes>
                 </ZoomPanBin>
                </Entry>
               </ExtraData>
              </ImageTransition>
              <MetaData>
               <entry key="WinSubProjectDisplayName" val=""/>
              </MetaData>
             </UnifiedMedia>
             <Callout id="3379" start="60" duration="543" scalar="1/1" mediaStart="-90/1" mediaDuration="543/1" >
              <Transformer>
               <VectorParam id="3380"  name="translation">
                <InterpolatingParam id="3381" interp="linr"  time="-9999999/1" value="-17.55458486052018" leadInLength="0/1"  />
                <InterpolatingParam id="3382" interp="linr"  time="-9999999/1" value="206.03788685750811" leadInLength="0/1"  />
                <InterpolatingParam id="3383" interp="linr"  time="-9999999/1" value="0" leadInLength="0/1"  />
               </VectorParam>
               <VectorParam id="3384"  name="rotation">
                <InterpolatingParam id="3385" interp="linr"  time="-9999999/1" value="0" leadInLength="0/1"  />
                <InterpolatingParam id="3386" interp="linr"  time="-9999999/1" value="0" leadInLength="0/1"  />
                <InterpolatingParam id="3387" interp="linr"  time="-9999999/1" value="0" leadInLength="0/1"  />
               </VectorParam>
               <VectorParam id="3388"  name="shear">
                <InterpolatingParam id="3389" interp="linr"  time="-9999999/1" value="0" leadInLength="0/1"  />
                <InterpolatingParam id="3390" interp="linr"  time="-9999999/1" value="0" leadInLength="0/1"  />
                <InterpolatingParam id="3391" interp="linr"  time="-9999999/1" value="0" leadInLength="0/1"  />
               </VectorParam>
               <VectorParam id="3392"  name="scale">
                <InterpolatingParam id="3393" interp="linr"  time="-9999999/1" value="2.6083366666667009" leadInLength="0/1"  />
                <InterpolatingParam id="3394" interp="linr"  time="-9999999/1" value="1" leadInLength="0/1"  />
                <InterpolatingParam id="3395" interp="linr"  time="-9999999/1" value="1" leadInLength="0/1"  />
               </VectorParam>
               <VectorParam id="3396"  name="anchor">
                <InterpolatingParam id="3397" interp="linr"  time="0/1" value="0" leadInLength="0/1"  />
                <InterpolatingParam id="3398" interp="linr"  time="0/1" value="0" leadInLength="0/1"  />
                <InterpolatingParam id="3399" interp="linr"  time="0/1" value="0" leadInLength="0/1"  />
               </VectorParam>
              </Transformer>
              <Parameters>
               <VectorParam id="3400"  name="sourceCrop">
                <InterpolatingParam id="3401" interp="linr"  time="0/1" value="0" leadInLength="0/1"  />
                <InterpolatingParam id="3402" interp="linr"  time="0/1" value="0" leadInLength="0/1"  />
                <InterpolatingParam id="3403" interp="linr"  time="0/1" value="0" leadInLength="0/1"  />
                <InterpolatingParam id="3404" interp="linr"  time="0/1" value="0" leadInLength="0/1"  />
               </VectorParam>
               <VectorParam id="3405"  name="geometryCrop">
                <InterpolatingParam id="3406" interp="linr"  time="-9999999/1" value="0" leadInLength="0/1"  interpolater="leadin-eioe"  />
                <InterpolatingParam id="3407" interp="linr"  time="-9999999/1" value="0" leadInLength="0/1"  interpolater="leadin-eioe"  />
                <InterpolatingParam id="3408" interp="linr"  time="-9999999/1" value="0" leadInLength="0/1"  interpolater="leadin-eioe"  />
                <InterpolatingParam id="3409" interp="linr"  time="-9999999/1" value="0" leadInLength="0/1"  interpolater="leadin-eioe"  />
               </VectorParam>
               <InterpolatingParam id="3410" interp="linr"  time="-9999999/1" value="1" leadInLength="0/1"  name="opacity"/>
              </Parameters>
              <Attributes>
               <Attribute id="3411"  name="vectorNode">
                <VectorNode id="3412" kind="TypeWinText"  >
                 <DoubleParameters>
                  <InterpolatingParam id="3413" interp="linr"  time="0/1" value="5" leadInLength="0/1"  name="Style"/>
                  <InterpolatingParam id="3414" interp="linr"  time="0/1" value="320" leadInLength="0/1"  name="height"/>
                  <InterpolatingParam id="3415" interp="linr"  time="0/1" value="0" leadInLength="0/1"  name="textDropShadow"/>
                  <InterpolatingParam id="3416" interp="linr"  time="0/1" value="0" leadInLength="0/1"  name="textIgnoresOpacity"/>
                  <InterpolatingParam id="3417" interp="linr"  time="0/1" value="1" leadInLength="0/1"  name="textRectHeight"/>
                  <InterpolatingParam id="3418" interp="linr"  time="0/1" value="1" leadInLength="0/1"  name="textRectWidth"/>
                  <InterpolatingParam id="3419" interp="linr"  time="0/1" value="0" leadInLength="0/1"  name="textRectX"/>
                  <InterpolatingParam id="3420" interp="linr"  time="0/1" value="0" leadInLength="0/1"  name="textRectY"/>
                  <InterpolatingParam id="3421" interp="linr"  time="0/1" value="0" leadInLength="0/1"  name="textVerticalAlign"/>
                  <InterpolatingParam id="3422" interp="linr"  time="0/1" value="480" leadInLength="0/1"  name="width"/>
                 </DoubleParameters>
                 <StringParameters>
                  <Parameter id="3423"  name="filename">
                   <Keyframes>
                   <Keyframe id="3424"  time="0/1" value="C:\Program Files (x86)\TechSmith\Camtasia Studio 8\Media\Studio\Callouts\trans_100x100.xml" leadInLength="0/1"  />
                   </Keyframes>
                  </Parameter>
                  <Parameter id="3425"  name="name">
                   <Keyframes>
                   <Keyframe id="3426"  time="0/1" value="Text Callout" leadInLength="0/1"  />
                   </Keyframes>
                  </Parameter>
                  <Parameter id="3427"  name="text">
                   <Keyframes>
                   <Keyframe id="3428"  time="0/1" value="{\rtf1\ansi\ansicpg1252\deff0\deflang1033{\fonttbl{\f0\fswiss\fprq2\fcharset0 Impact;}}&#xD;&#xa;{\colortbl ;\red218\green182\blue1;}&#xD;&#xa;\viewkind4\uc1\pard\qc\cf1\f0\fs130 Complete guide to build IOT Things from scratch to market\par&#xD;&#xa;}&#xD;&#xa;" leadInLength="0/1"  />
                   </Keyframes>
                  </Parameter>
                  <Parameter id="3429"  name="xmlContent">
                   <Keyframes>
                   <Keyframe id="3430"  time="0/1" value="﻿&lt;?xml version=&quot;1.0&quot;?&gt;&#xa;&#xa;&lt;Overlay version=&quot;1.0.1&quot;&gt;&#xa;&#xa;&lt;Overlay_Filename&gt;trans_100x100.png&lt;/Overlay_Filename&gt;&#xa;&lt;Overlay_Name&gt;Text Callout&lt;/Overlay_Name&gt;&#xa;&lt;Overlay_XGrow&gt;0&lt;/Overlay_XGrow&gt;&#xa;&lt;Overlay_YGrow&gt;0&lt;/Overlay_YGrow&gt;&#xa;&lt;Text_Top&gt;0&lt;/Text_Top&gt;&#xa;&lt;Text_Left&gt;0&lt;/Text_Left&gt;&#xa;&lt;Text_Bottom&gt;0&lt;/Text_Bottom&gt;&#xa;&lt;Text_Right&gt;0&lt;/Text_Right&gt;&#xa;&lt;Vector_Grow&gt;0&lt;/Vector_Grow&gt;&#xa;&lt;CanRotate_90&gt;0&lt;/CanRotate_90&gt;&#xa;&lt;CanRotate_180&gt;0&lt;/CanRotate_180&gt;&#xa;&lt;CanRotate_270&gt;0&lt;/CanRotate_270&gt;&#xa;&lt;CanFlip_X&gt;0&lt;/CanFlip_X&gt;&#xa;&lt;CanFlip_X90&gt;0&lt;/CanFlip_X90&gt;&#xa;&lt;CanFlip_X180&gt;0&lt;/CanFlip_X180&gt;&#xa;&lt;CanFlip_X270&gt;0&lt;/CanFlip_X270&gt;&#xa;&lt;Fill_Color&gt;0&lt;/Fill_Color&gt;&#xa;&lt;Border_Color&gt;0&lt;/Border_Color&gt;&#xa;&lt;Style&gt;5&lt;/Style&gt;&#xa;&lt;/Overlay&gt;" leadInLength="0/1"  />
                   </Keyframes>
                  </Parameter>
                 </StringParameters>
                </VectorNode>
               </Attribute>
              </Attributes>
              <MetaData>
               <entry key="WinSubProjectDisplayName" val=""/>
              </MetaData>
              <LeftEdgeMods length="0/1" groupName="OpacityFade">
               <EdgeMod parameter="3410">
                <FadeInFunc id="3431"  />
               </EdgeMod>
              </LeftEdgeMods>
              <RightEdgeMods length="0/1" groupName="OpacityFade">
               <EdgeMod parameter="3410">
                <FadeOutFunc id="3432"  />
               </EdgeMod>
              </RightEdgeMods>
              <ExtraData>
               <Entry key="ZoomPanBin">
                <ZoomPanBin id="3433"  >
                 <ZoomPanKeyframes>
                  <ZoomPanKeyframe id="3434" timeRangeEnd="-9999999/1" timeRangeDuration="0/1" interpolaterName="linr"  />
                 </ZoomPanKeyframes>
                </ZoomPanBin>
               </Entry>
              </ExtraData>
             </Callout>
             <UnifiedMedia id="3435"  >
              <AudioTransition id="3436" start="603" duration="30" >
               <Parameters>
                <InterpolatingParam id="3437" interp="linr"  time="0/1" value="1" leadInLength="0/1"  name="volume"/>
                <Parameter id="3438"  name="captions"/>
               </Parameters>
               <Effects>
                <GenericEffect id="3439" name = "AudioTransition" >
                 <Parameters>
                 <Parameter id="3440"   name="audioEdgeModType">
                  <Keyframes>
                  <Keyframe id="3441"  time="0/1" value="0" leadInLength="0/1"  />
                  </Keyframes>
                 </Parameter>
                 <Parameter id="3442"   name="audioTransitionType">
                  <Keyframes>
                  <Keyframe id="3443"  time="0/1" value="" leadInLength="0/1"  />
                  </Keyframes>
                 </Parameter>
                 </Parameters>
                 <MetaData>
                 </MetaData>
                </GenericEffect>
               </Effects>
               <Attributes>
                <Attribute id="3444" value="" name="ident"/>
                <Attribute id="3445" value="0" name="sampleRate"/>
                <Attribute id="3446" value="0" name="bitDepth"/>
                <Attribute id="3447" value="1" name="gain"/>
                <Attribute id="3448" value="0" name="mixToMono"/>
               </Attributes>
              </AudioTransition>
              <ImageTransition id="3449" start="603" duration="30" >
               <Transformer>
                <VectorParam id="3450"  name="translation">
                 <InterpolatingParam id="3451" interp="linr"  time="0/1" value="0" leadInLength="0/1"  />
                 <InterpolatingParam id="3452" interp="linr"  time="0/1" value="0" leadInLength="0/1"  />
                 <InterpolatingParam id="3453" interp="linr"  time="0/1" value="0" leadInLength="0/1"  />
                </VectorParam>
                <VectorParam id="3454"  name="rotation">
                 <InterpolatingParam id="3455" interp="linr"  time="0/1" value="0" leadInLength="0/1"  />
                 <InterpolatingParam id="3456" interp="linr"  time="0/1" value="0" leadInLength="0/1"  />
                 <InterpolatingParam id="3457" interp="linr"  time="0/1" value="0" leadInLength="0/1"  />
                </VectorParam>
                <VectorParam id="3458"  name="shear">
                 <InterpolatingParam id="3459" interp="linr"  time="0/1" value="0" leadInLength="0/1"  />
                 <InterpolatingParam id="3460" interp="linr"  time="0/1" value="0" leadInLength="0/1"  />
                 <InterpolatingParam id="3461" interp="linr"  time="0/1" value="0" leadInLength="0/1"  />
                </VectorParam>
                <VectorParam id="3462"  name="scale">
                 <InterpolatingParam id="3463" interp="linr"  time="0/1" value="1" leadInLength="0/1"  />
                 <InterpolatingParam id="3464" interp="linr"  time="0/1" value="1" leadInLength="0/1"  />
                 <InterpolatingParam id="3465" interp="linr"  time="0/1" value="1" leadInLength="0/1"  />
                </VectorParam>
                <VectorParam id="3466"  name="anchor">
                 <InterpolatingParam id="3467" interp="linr"  time="0/1" value="0" leadInLength="0/1"  />
                 <InterpolatingParam id="3468" interp="linr"  time="0/1" value="0" leadInLength="0/1"  />
                 <InterpolatingParam id="3469" interp="linr"  time="0/1" value="0" leadInLength="0/1"  />
                </VectorParam>
               </Transformer>
               <Parameters>
                <VectorParam id="3470"  name="sourceCrop">
                 <InterpolatingParam id="3471" interp="linr"  time="0/1" value="0" leadInLength="0/1"  />
                 <InterpolatingParam id="3472" interp="linr"  time="0/1" value="0" leadInLength="0/1"  />
                 <InterpolatingParam id="3473" interp="linr"  time="0/1" value="0" leadInLength="0/1"  />
                 <InterpolatingParam id="3474" interp="linr"  time="0/1" value="0" leadInLength="0/1"  />
                </VectorParam>
                <VectorParam id="3475"  name="geometryCrop">
                 <InterpolatingParam id="3476" interp="linr"  time="0/1" value="0" leadInLength="0/1"  />
                 <InterpolatingParam id="3477" interp="linr"  time="0/1" value="0" leadInLength="0/1"  />
                 <InterpolatingParam id="3478" interp="linr"  time="0/1" value="0" leadInLength="0/1"  />
                 <InterpolatingParam id="3479" interp="linr"  time="0/1" value="0" leadInLength="0/1"  />
                </VectorParam>
                <InterpolatingParam id="3480" interp="linr"  time="0/1" value="1" leadInLength="0/1"  name="opacity"/>
               </Parameters>
               <Effects>
                <GenericEffect id="3481" name = "VisualTransition" >
                 <Parameters>
                 <InterpolatingParam id="3482" interp="linr"  time="0/1" value="0.5" leadInLength="0/1"   name="leftFramePercentage"/>
                 <InterpolatingParam id="3483" interp="linr"  time="0/1" value="0.5" leadInLength="0/1"   name="rightFramePercentage"/>
                 <Parameter id="3484"   name="visualEdgeModType">
                  <Keyframes>
                  <Keyframe id="3485"  time="0/1" value="2" leadInLength="0/1"  />
                  </Keyframes>
                 </Parameter>
                 <Parameter id="3486"   name="visualTransitionType">
                  <Keyframes>
                  <Keyframe id="3487"  time="0/1" value="Fade" leadInLength="0/1"  />
                  </Keyframes>
                 </Parameter>
                 </Parameters>
                 <MetaData>
                 </MetaData>
                </GenericEffect>
               </Effects>
               <Attributes>
                <Attribute id="3488" value="" name="ident"/>
               </Attributes>
               <ExtraData>
                <Entry key="ZoomPanBin">
                 <ZoomPanBin id="3489"  >
                  <ZoomPanKeyframes>
                  </ZoomPanKeyframes>
                 </ZoomPanBin>
                </Entry>
               </ExtraData>
              </ImageTransition>
              <MetaData>
               <entry key="WinSubProjectDisplayName" val=""/>
              </MetaData>
             </UnifiedMedia>
            </Medias>
           </GenericTrack>
          </Tracks>
         </GenericMixer>
         <MetaData>
          <entry key="IsGroupExpanded" val="False"/>
          <entry key="WinGroupOrigin" val="Asset"/>
          <entry key="WinSubProjectDisplayName" val="Animated Title"/>
         </MetaData>
         <ExtraData>
          <Entry key="ZoomPanBin">
           <ZoomPanBin id="3490"  >
            <ZoomPanKeyframes>
             <ZoomPanKeyframe id="3491" timeRangeEnd="-9999999/1" timeRangeDuration="0/1" interpolaterName="linr"  />
            </ZoomPanKeyframes>
           </ZoomPanBin>
          </Entry>
         </ExtraData>
        </Group>
        <Group id="3492" start="383" duration="39" scalar="1" mediaStart="430" mediaDuration="39" baseWidthAttr="0" baseHeightAttr="0"  >
         <Parameters>
          <VectorParam id="3493"  name="sourceCrop">
           <InterpolatingParam id="3494" interp="linr"  time="0/1" value="0" leadInLength="0/1"  />
           <InterpolatingParam id="3495" interp="linr"  time="0/1" value="0" leadInLength="0/1"  />
           <InterpolatingParam id="3496" interp="linr"  time="0/1" value="0" leadInLength="0/1"  />
           <InterpolatingParam id="3497" interp="linr"  time="0/1" value="0" leadInLength="0/1"  />
          </VectorParam>
          <VectorParam id="3498"  name="geometryCrop">
           <InterpolatingParam id="3499" interp="linr"  time="-9999999/1" value="0" leadInLength="0/1"  interpolater="leadin-eioe"  />
           <InterpolatingParam id="3500" interp="linr"  time="-9999999/1" value="0" leadInLength="0/1"  interpolater="leadin-eioe"  />
           <InterpolatingParam id="3501" interp="linr"  time="-9999999/1" value="0" leadInLength="0/1"  interpolater="leadin-eioe"  />
           <InterpolatingParam id="3502" interp="linr"  time="-9999999/1" value="0" leadInLength="0/1"  interpolater="leadin-eioe"  />
          </VectorParam>
          <InterpolatingParam id="3503" interp="linr"  time="-9999999/1" value="1" leadInLength="0/1"  name="opacity"/>
          <Parameter id="3504"  name="captions"/>
          <InterpolatingParam id="3505" interp="linr"  time="0/1" value="1" leadInLength="0/1"  name="volume"/>
         </Parameters>
         <Transformer>
          <VectorParam id="3506"  name="translation">
           <InterpolatingParam id="3507" interp="linr"  time="-9999999/1" value="-26.427831357183287" leadInLength="0/1"  />
           <InterpolatingParam id="3508" interp="linr"  time="-9999999/1" value="-5.4999999999966454" leadInLength="0/1"  />
           <InterpolatingParam id="3509" interp="linr"  time="-9999999/1" value="0" leadInLength="0/1"  />
          </VectorParam>
          <VectorParam id="3510"  name="rotation">
           <InterpolatingParam id="3511" interp="linr"  time="-9999999/1" value="0" leadInLength="0/1"  />
           <InterpolatingParam id="3512" interp="linr"  time="-9999999/1" value="0" leadInLength="0/1"  />
           <InterpolatingParam id="3513" interp="linr"  time="-9999999/1" value="0" leadInLength="0/1"  />
          </VectorParam>
          <VectorParam id="3514"  name="shear">
           <InterpolatingParam id="3515" interp="linr"  time="-9999999/1" value="0" leadInLength="0/1"  />
           <InterpolatingParam id="3516" interp="linr"  time="-9999999/1" value="0" leadInLength="0/1"  />
           <InterpolatingParam id="3517" interp="linr"  time="-9999999/1" value="0" leadInLength="0/1"  />
          </VectorParam>
          <VectorParam id="3518"  name="scale">
           <InterpolatingParam id="3519" interp="linr"  time="-9999999/1" value="1" leadInLength="0/1"  />
           <InterpolatingParam id="3520" interp="linr"  time="-9999999/1" value="1" leadInLength="0/1"  />
           <InterpolatingParam id="3521" interp="linr"  time="-9999999/1" value="1" leadInLength="0/1"  />
          </VectorParam>
          <VectorParam id="3522"  name="anchor">
           <InterpolatingParam id="3523" interp="linr"  time="0/1" value="0.5" leadInLength="0/1"  />
           <InterpolatingParam id="3524" interp="linr"  time="0/1" value="0.5" leadInLength="0/1"  />
           <InterpolatingParam id="3525" interp="linr"  time="0/1" value="0" leadInLength="0/1"  />
          </VectorParam>
         </Transformer>
         <GenericMixer id="3526"  >
          <MetaData>
          </MetaData>
          <Tracks>
           <GenericTrack id="3527"  >
            <Attributes>
             <Attribute id="3528" value="" name="ident"/>
             <Attribute id="3529" value="0" name="audioMuted"/>
             <Attribute id="3530" value="0" name="videoHidden"/>
            </Attributes>
            <MetaData>
             <entry key="IsLocked" val="False"/>
             <entry key="WinTrackHeight" val="0"/>
            </MetaData>
            <Medias>
             <VMFile id="3531" start="0" duration="600" scalar="1/1" mediaStart="0/1" mediaDuration="600/1" trackNumber="0" src="9" >
              <Transformer>
               <VectorParam id="3532"  name="translation">
                <InterpolatingParam id="3533" interp="linr"  time="-9999999/1" value="0.49999999988145821" leadInLength="0/1"  />
                <InterpolatingParam id="3534" interp="linr"  time="-9999999/1" value="0.49999999999391775" leadInLength="0/1"  />
                <InterpolatingParam id="3535" interp="linr"  time="-9999999/1" value="0" leadInLength="0/1"  />
               </VectorParam>
               <VectorParam id="3536"  name="rotation">
                <InterpolatingParam id="3537" interp="linr"  time="-9999999/1" value="0" leadInLength="0/1"  />
                <InterpolatingParam id="3538" interp="linr"  time="-9999999/1" value="0" leadInLength="0/1"  />
                <InterpolatingParam id="3539" interp="linr"  time="-9999999/1" value="0" leadInLength="0/1"  />
               </VectorParam>
               <VectorParam id="3540"  name="shear">
                <InterpolatingParam id="3541" interp="linr"  time="-9999999/1" value="0" leadInLength="0/1"  />
                <InterpolatingParam id="3542" interp="linr"  time="-9999999/1" value="0" leadInLength="0/1"  />
                <InterpolatingParam id="3543" interp="linr"  time="-9999999/1" value="0" leadInLength="0/1"  />
               </VectorParam>
               <VectorParam id="3544"  name="scale">
                <InterpolatingParam id="3545" interp="linr"  time="-9999999/1" value="1" leadInLength="0/1"  />
                <InterpolatingParam id="3546" interp="linr"  time="-9999999/1" value="1" leadInLength="0/1"  />
                <InterpolatingParam id="3547" interp="linr"  time="-9999999/1" value="1" leadInLength="0/1"  />
               </VectorParam>
               <VectorParam id="3548"  name="anchor">
                <InterpolatingParam id="3549" interp="linr"  time="0/1" value="0" leadInLength="0/1"  />
                <InterpolatingParam id="3550" interp="linr"  time="0/1" value="0" leadInLength="0/1"  />
                <InterpolatingParam id="3551" interp="linr"  time="0/1" value="0" leadInLength="0/1"  />
               </VectorParam>
              </Transformer>
              <Parameters>
               <VectorParam id="3552"  name="sourceCrop">
                <InterpolatingParam id="3553" interp="linr"  time="0/1" value="0" leadInLength="0/1"  />
                <InterpolatingParam id="3554" interp="linr"  time="0/1" value="0" leadInLength="0/1"  />
                <InterpolatingParam id="3555" interp="linr"  time="0/1" value="0" leadInLength="0/1"  />
                <InterpolatingParam id="3556" interp="linr"  time="0/1" value="0" leadInLength="0/1"  />
               </VectorParam>
               <VectorParam id="3557"  name="geometryCrop">
                <InterpolatingParam id="3558" interp="linr"  time="-9999999/1" value="0" leadInLength="0/1"  interpolater="leadin-eioe"  />
                <InterpolatingParam id="3559" interp="linr"  time="-9999999/1" value="0" leadInLength="0/1"  interpolater="leadin-eioe"  />
                <InterpolatingParam id="3560" interp="linr"  time="-9999999/1" value="0" leadInLength="0/1"  interpolater="leadin-eioe"  />
                <InterpolatingParam id="3561" interp="linr"  time="-9999999/1" value="0" leadInLength="0/1"  interpolater="leadin-eioe"  />
               </VectorParam>
               <InterpolatingParam id="3562" interp="linr"  time="-9999999/1" value="1" leadInLength="0/1"  name="opacity"/>
              </Parameters>
              <Attributes>
               <Attribute id="3563" value="" name="ident"/>
              </Attributes>
              <MetaData>
               <entry key="WinSubProjectDisplayName" val=""/>
              </MetaData>
              <ExtraData>
               <Entry key="ZoomPanBin">
                <ZoomPanBin id="3564"  >
                 <ZoomPanKeyframes>
                  <ZoomPanKeyframe id="3565" timeRangeEnd="-9999999/1" timeRangeDuration="0/1" interpolaterName="linr"  />
                 </ZoomPanKeyframes>
                </ZoomPanBin>
               </Entry>
              </ExtraData>
             </VMFile>
            </Medias>
           </GenericTrack>
           <GenericTrack id="3566"  >
            <Attributes>
             <Attribute id="3567" value="" name="ident"/>
             <Attribute id="3568" value="0" name="audioMuted"/>
             <Attribute id="3569" value="0" name="videoHidden"/>
            </Attributes>
            <MetaData>
             <entry key="IsLocked" val="False"/>
             <entry key="WinTrackHeight" val="0"/>
            </MetaData>
            <Medias>
             <UnifiedMedia id="3570"  >
              <AudioTransition id="3571" start="30" duration="30" >
               <Parameters>
                <InterpolatingParam id="3572" interp="linr"  time="0/1" value="1" leadInLength="0/1"  name="volume"/>
                <Parameter id="3573"  name="captions"/>
               </Parameters>
               <Effects>
                <GenericEffect id="3574" name = "AudioTransition" >
                 <Parameters>
                 <Parameter id="3575"   name="audioEdgeModType">
                  <Keyframes>
                  <Keyframe id="3576"  time="0/1" value="0" leadInLength="0/1"  />
                  </Keyframes>
                 </Parameter>
                 <Parameter id="3577"   name="audioTransitionType">
                  <Keyframes>
                  <Keyframe id="3578"  time="0/1" value="" leadInLength="0/1"  />
                  </Keyframes>
                 </Parameter>
                 </Parameters>
                 <MetaData>
                 </MetaData>
                </GenericEffect>
               </Effects>
               <Attributes>
                <Attribute id="3579" value="" name="ident"/>
                <Attribute id="3580" value="0" name="sampleRate"/>
                <Attribute id="3581" value="0" name="bitDepth"/>
                <Attribute id="3582" value="1" name="gain"/>
                <Attribute id="3583" value="0" name="mixToMono"/>
               </Attributes>
              </AudioTransition>
              <ImageTransition id="3584" start="30" duration="30" >
               <Transformer>
                <VectorParam id="3585"  name="translation">
                 <InterpolatingParam id="3586" interp="linr"  time="0/1" value="0" leadInLength="0/1"  />
                 <InterpolatingParam id="3587" interp="linr"  time="0/1" value="0" leadInLength="0/1"  />
                 <InterpolatingParam id="3588" interp="linr"  time="0/1" value="0" leadInLength="0/1"  />
                </VectorParam>
                <VectorParam id="3589"  name="rotation">
                 <InterpolatingParam id="3590" interp="linr"  time="0/1" value="0" leadInLength="0/1"  />
                 <InterpolatingParam id="3591" interp="linr"  time="0/1" value="0" leadInLength="0/1"  />
                 <InterpolatingParam id="3592" interp="linr"  time="0/1" value="0" leadInLength="0/1"  />
                </VectorParam>
                <VectorParam id="3593"  name="shear">
                 <InterpolatingParam id="3594" interp="linr"  time="0/1" value="0" leadInLength="0/1"  />
                 <InterpolatingParam id="3595" interp="linr"  time="0/1" value="0" leadInLength="0/1"  />
                 <InterpolatingParam id="3596" interp="linr"  time="0/1" value="0" leadInLength="0/1"  />
                </VectorParam>
                <VectorParam id="3597"  name="scale">
                 <InterpolatingParam id="3598" interp="linr"  time="0/1" value="1" leadInLength="0/1"  />
                 <InterpolatingParam id="3599" interp="linr"  time="0/1" value="1" leadInLength="0/1"  />
                 <InterpolatingParam id="3600" interp="linr"  time="0/1" value="1" leadInLength="0/1"  />
                </VectorParam>
                <VectorParam id="3601"  name="anchor">
                 <InterpolatingParam id="3602" interp="linr"  time="0/1" value="0" leadInLength="0/1"  />
                 <InterpolatingParam id="3603" interp="linr"  time="0/1" value="0" leadInLength="0/1"  />
                 <InterpolatingParam id="3604" interp="linr"  time="0/1" value="0" leadInLength="0/1"  />
                </VectorParam>
               </Transformer>
               <Parameters>
                <VectorParam id="3605"  name="sourceCrop">
                 <InterpolatingParam id="3606" interp="linr"  time="0/1" value="0" leadInLength="0/1"  />
                 <InterpolatingParam id="3607" interp="linr"  time="0/1" value="0" leadInLength="0/1"  />
                 <InterpolatingParam id="3608" interp="linr"  time="0/1" value="0" leadInLength="0/1"  />
                 <InterpolatingParam id="3609" interp="linr"  time="0/1" value="0" leadInLength="0/1"  />
                </VectorParam>
                <VectorParam id="3610"  name="geometryCrop">
                 <InterpolatingParam id="3611" interp="linr"  time="0/1" value="0" leadInLength="0/1"  />
                 <InterpolatingParam id="3612" interp="linr"  time="0/1" value="0" leadInLength="0/1"  />
                 <InterpolatingParam id="3613" interp="linr"  time="0/1" value="0" leadInLength="0/1"  />
                 <InterpolatingParam id="3614" interp="linr"  time="0/1" value="0" leadInLength="0/1"  />
                </VectorParam>
                <InterpolatingParam id="3615" interp="linr"  time="0/1" value="1" leadInLength="0/1"  name="opacity"/>
               </Parameters>
               <Effects>
                <GenericEffect id="3616" name = "VisualTransition" >
                 <Parameters>
                 <InterpolatingParam id="3617" interp="linr"  time="0/1" value="0.5" leadInLength="0/1"   name="leftFramePercentage"/>
                 <InterpolatingParam id="3618" interp="linr"  time="0/1" value="0.5" leadInLength="0/1"   name="rightFramePercentage"/>
                 <Parameter id="3619"   name="visualEdgeModType">
                  <Keyframes>
                  <Keyframe id="3620"  time="0/1" value="1" leadInLength="0/1"  />
                  </Keyframes>
                 </Parameter>
                 <Parameter id="3621"   name="visualTransitionType">
                  <Keyframes>
                  <Keyframe id="3622"  time="0/1" value="Fade" leadInLength="0/1"  />
                  </Keyframes>
                 </Parameter>
                 </Parameters>
                 <MetaData>
                 </MetaData>
                </GenericEffect>
               </Effects>
               <Attributes>
                <Attribute id="3623" value="" name="ident"/>
               </Attributes>
               <ExtraData>
                <Entry key="ZoomPanBin">
                 <ZoomPanBin id="3624"  >
                  <ZoomPanKeyframes>
                  </ZoomPanKeyframes>
                 </ZoomPanBin>
                </Entry>
               </ExtraData>
              </ImageTransition>
              <MetaData>
               <entry key="WinSubProjectDisplayName" val=""/>
              </MetaData>
             </UnifiedMedia>
             <Callout id="3625" start="60" duration="543" scalar="1/1" mediaStart="-90/1" mediaDuration="543/1" >
              <Transformer>
               <VectorParam id="3626"  name="translation">
                <InterpolatingParam id="3627" interp="linr"  time="-9999999/1" value="-17.55458486052018" leadInLength="0/1"  />
                <InterpolatingParam id="3628" interp="linr"  time="-9999999/1" value="206.03788685750811" leadInLength="0/1"  />
                <InterpolatingParam id="3629" interp="linr"  time="-9999999/1" value="0" leadInLength="0/1"  />
               </VectorParam>
               <VectorParam id="3630"  name="rotation">
                <InterpolatingParam id="3631" interp="linr"  time="-9999999/1" value="0" leadInLength="0/1"  />
                <InterpolatingParam id="3632" interp="linr"  time="-9999999/1" value="0" leadInLength="0/1"  />
                <InterpolatingParam id="3633" interp="linr"  time="-9999999/1" value="0" leadInLength="0/1"  />
               </VectorParam>
               <VectorParam id="3634"  name="shear">
                <InterpolatingParam id="3635" interp="linr"  time="-9999999/1" value="0" leadInLength="0/1"  />
                <InterpolatingParam id="3636" interp="linr"  time="-9999999/1" value="0" leadInLength="0/1"  />
                <InterpolatingParam id="3637" interp="linr"  time="-9999999/1" value="0" leadInLength="0/1"  />
               </VectorParam>
               <VectorParam id="3638"  name="scale">
                <InterpolatingParam id="3639" interp="linr"  time="-9999999/1" value="2.6083366666667009" leadInLength="0/1"  />
                <InterpolatingParam id="3640" interp="linr"  time="-9999999/1" value="1" leadInLength="0/1"  />
                <InterpolatingParam id="3641" interp="linr"  time="-9999999/1" value="1" leadInLength="0/1"  />
               </VectorParam>
               <VectorParam id="3642"  name="anchor">
                <InterpolatingParam id="3643" interp="linr"  time="0/1" value="0" leadInLength="0/1"  />
                <InterpolatingParam id="3644" interp="linr"  time="0/1" value="0" leadInLength="0/1"  />
                <InterpolatingParam id="3645" interp="linr"  time="0/1" value="0" leadInLength="0/1"  />
               </VectorParam>
              </Transformer>
              <Parameters>
               <VectorParam id="3646"  name="sourceCrop">
                <InterpolatingParam id="3647" interp="linr"  time="0/1" value="0" leadInLength="0/1"  />
                <InterpolatingParam id="3648" interp="linr"  time="0/1" value="0" leadInLength="0/1"  />
                <InterpolatingParam id="3649" interp="linr"  time="0/1" value="0" leadInLength="0/1"  />
                <InterpolatingParam id="3650" interp="linr"  time="0/1" value="0" leadInLength="0/1"  />
               </VectorParam>
               <VectorParam id="3651"  name="geometryCrop">
                <InterpolatingParam id="3652" interp="linr"  time="-9999999/1" value="0" leadInLength="0/1"  interpolater="leadin-eioe"  />
                <InterpolatingParam id="3653" interp="linr"  time="-9999999/1" value="0" leadInLength="0/1"  interpolater="leadin-eioe"  />
                <InterpolatingParam id="3654" interp="linr"  time="-9999999/1" value="0" leadInLength="0/1"  interpolater="leadin-eioe"  />
                <InterpolatingParam id="3655" interp="linr"  time="-9999999/1" value="0" leadInLength="0/1"  interpolater="leadin-eioe"  />
               </VectorParam>
               <InterpolatingParam id="3656" interp="linr"  time="-9999999/1" value="1" leadInLength="0/1"  name="opacity"/>
              </Parameters>
              <Attributes>
               <Attribute id="3657"  name="vectorNode">
                <VectorNode id="3658" kind="TypeWinText"  >
                 <DoubleParameters>
                  <InterpolatingParam id="3659" interp="linr"  time="0/1" value="5" leadInLength="0/1"  name="Style"/>
                  <InterpolatingParam id="3660" interp="linr"  time="0/1" value="320" leadInLength="0/1"  name="height"/>
                  <InterpolatingParam id="3661" interp="linr"  time="0/1" value="0" leadInLength="0/1"  name="textDropShadow"/>
                  <InterpolatingParam id="3662" interp="linr"  time="0/1" value="0" leadInLength="0/1"  name="textIgnoresOpacity"/>
                  <InterpolatingParam id="3663" interp="linr"  time="0/1" value="1" leadInLength="0/1"  name="textRectHeight"/>
                  <InterpolatingParam id="3664" interp="linr"  time="0/1" value="1" leadInLength="0/1"  name="textRectWidth"/>
                  <InterpolatingParam id="3665" interp="linr"  time="0/1" value="0" leadInLength="0/1"  name="textRectX"/>
                  <InterpolatingParam id="3666" interp="linr"  time="0/1" value="0" leadInLength="0/1"  name="textRectY"/>
                  <InterpolatingParam id="3667" interp="linr"  time="0/1" value="0" leadInLength="0/1"  name="textVerticalAlign"/>
                  <InterpolatingParam id="3668" interp="linr"  time="0/1" value="480" leadInLength="0/1"  name="width"/>
                 </DoubleParameters>
                 <StringParameters>
                  <Parameter id="3669"  name="filename">
                   <Keyframes>
                   <Keyframe id="3670"  time="0/1" value="C:\Program Files (x86)\TechSmith\Camtasia Studio 8\Media\Studio\Callouts\trans_100x100.xml" leadInLength="0/1"  />
                   </Keyframes>
                  </Parameter>
                  <Parameter id="3671"  name="name">
                   <Keyframes>
                   <Keyframe id="3672"  time="0/1" value="Text Callout" leadInLength="0/1"  />
                   </Keyframes>
                  </Parameter>
                  <Parameter id="3673"  name="text">
                   <Keyframes>
                   <Keyframe id="3674"  time="0/1" value="{\rtf1\ansi\ansicpg1252\deff0\deflang1033{\fonttbl{\f0\fswiss\fprq2\fcharset0 Impact;}}&#xD;&#xa;{\colortbl ;\red218\green182\blue1;}&#xD;&#xa;\viewkind4\uc1\pard\qc\cf1\f0\fs130 Complete guide to build IOT Things from scratch to market\par&#xD;&#xa;}&#xD;&#xa;" leadInLength="0/1"  />
                   </Keyframes>
                  </Parameter>
                  <Parameter id="3675"  name="xmlContent">
                   <Keyframes>
                   <Keyframe id="3676"  time="0/1" value="﻿&lt;?xml version=&quot;1.0&quot;?&gt;&#xa;&#xa;&lt;Overlay version=&quot;1.0.1&quot;&gt;&#xa;&#xa;&lt;Overlay_Filename&gt;trans_100x100.png&lt;/Overlay_Filename&gt;&#xa;&lt;Overlay_Name&gt;Text Callout&lt;/Overlay_Name&gt;&#xa;&lt;Overlay_XGrow&gt;0&lt;/Overlay_XGrow&gt;&#xa;&lt;Overlay_YGrow&gt;0&lt;/Overlay_YGrow&gt;&#xa;&lt;Text_Top&gt;0&lt;/Text_Top&gt;&#xa;&lt;Text_Left&gt;0&lt;/Text_Left&gt;&#xa;&lt;Text_Bottom&gt;0&lt;/Text_Bottom&gt;&#xa;&lt;Text_Right&gt;0&lt;/Text_Right&gt;&#xa;&lt;Vector_Grow&gt;0&lt;/Vector_Grow&gt;&#xa;&lt;CanRotate_90&gt;0&lt;/CanRotate_90&gt;&#xa;&lt;CanRotate_180&gt;0&lt;/CanRotate_180&gt;&#xa;&lt;CanRotate_270&gt;0&lt;/CanRotate_270&gt;&#xa;&lt;CanFlip_X&gt;0&lt;/CanFlip_X&gt;&#xa;&lt;CanFlip_X90&gt;0&lt;/CanFlip_X90&gt;&#xa;&lt;CanFlip_X180&gt;0&lt;/CanFlip_X180&gt;&#xa;&lt;CanFlip_X270&gt;0&lt;/CanFlip_X270&gt;&#xa;&lt;Fill_Color&gt;0&lt;/Fill_Color&gt;&#xa;&lt;Border_Color&gt;0&lt;/Border_Color&gt;&#xa;&lt;Style&gt;5&lt;/Style&gt;&#xa;&lt;/Overlay&gt;" leadInLength="0/1"  />
                   </Keyframes>
                  </Parameter>
                 </StringParameters>
                </VectorNode>
               </Attribute>
              </Attributes>
              <MetaData>
               <entry key="WinSubProjectDisplayName" val=""/>
              </MetaData>
              <LeftEdgeMods length="0/1" groupName="OpacityFade">
               <EdgeMod parameter="3656">
                <FadeInFunc id="3431"  />
               </EdgeMod>
              </LeftEdgeMods>
              <RightEdgeMods length="0/1" groupName="OpacityFade">
               <EdgeMod parameter="3656">
                <FadeOutFunc id="3677"  />
               </EdgeMod>
              </RightEdgeMods>
              <ExtraData>
               <Entry key="ZoomPanBin">
                <ZoomPanBin id="3678"  >
                 <ZoomPanKeyframes>
                  <ZoomPanKeyframe id="3679" timeRangeEnd="-9999999/1" timeRangeDuration="0/1" interpolaterName="linr"  />
                 </ZoomPanKeyframes>
                </ZoomPanBin>
               </Entry>
              </ExtraData>
             </Callout>
             <UnifiedMedia id="3680"  >
              <AudioTransition id="3681" start="603" duration="30" >
               <Parameters>
                <InterpolatingParam id="3682" interp="linr"  time="0/1" value="1" leadInLength="0/1"  name="volume"/>
                <Parameter id="3683"  name="captions"/>
               </Parameters>
               <Effects>
                <GenericEffect id="3684" name = "AudioTransition" >
                 <Parameters>
                 <Parameter id="3685"   name="audioEdgeModType">
                  <Keyframes>
                  <Keyframe id="3686"  time="0/1" value="0" leadInLength="0/1"  />
                  </Keyframes>
                 </Parameter>
                 <Parameter id="3687"   name="audioTransitionType">
                  <Keyframes>
                  <Keyframe id="3688"  time="0/1" value="" leadInLength="0/1"  />
                  </Keyframes>
                 </Parameter>
                 </Parameters>
                 <MetaData>
                 </MetaData>
                </GenericEffect>
               </Effects>
               <Attributes>
                <Attribute id="3689" value="" name="ident"/>
                <Attribute id="3690" value="0" name="sampleRate"/>
                <Attribute id="3691" value="0" name="bitDepth"/>
                <Attribute id="3692" value="1" name="gain"/>
                <Attribute id="3693" value="0" name="mixToMono"/>
               </Attributes>
              </AudioTransition>
              <ImageTransition id="3694" start="603" duration="30" >
               <Transformer>
                <VectorParam id="3695"  name="translation">
                 <InterpolatingParam id="3696" interp="linr"  time="0/1" value="0" leadInLength="0/1"  />
                 <InterpolatingParam id="3697" interp="linr"  time="0/1" value="0" leadInLength="0/1"  />
                 <InterpolatingParam id="3698" interp="linr"  time="0/1" value="0" leadInLength="0/1"  />
                </VectorParam>
                <VectorParam id="3699"  name="rotation">
                 <InterpolatingParam id="3700" interp="linr"  time="0/1" value="0" leadInLength="0/1"  />
                 <InterpolatingParam id="3701" interp="linr"  time="0/1" value="0" leadInLength="0/1"  />
                 <InterpolatingParam id="3702" interp="linr"  time="0/1" value="0" leadInLength="0/1"  />
                </VectorParam>
                <VectorParam id="3703"  name="shear">
                 <InterpolatingParam id="3704" interp="linr"  time="0/1" value="0" leadInLength="0/1"  />
                 <InterpolatingParam id="3705" interp="linr"  time="0/1" value="0" leadInLength="0/1"  />
                 <InterpolatingParam id="3706" interp="linr"  time="0/1" value="0" leadInLength="0/1"  />
                </VectorParam>
                <VectorParam id="3707"  name="scale">
                 <InterpolatingParam id="3708" interp="linr"  time="0/1" value="1" leadInLength="0/1"  />
                 <InterpolatingParam id="3709" interp="linr"  time="0/1" value="1" leadInLength="0/1"  />
                 <InterpolatingParam id="3710" interp="linr"  time="0/1" value="1" leadInLength="0/1"  />
                </VectorParam>
                <VectorParam id="3711"  name="anchor">
                 <InterpolatingParam id="3712" interp="linr"  time="0/1" value="0" leadInLength="0/1"  />
                 <InterpolatingParam id="3713" interp="linr"  time="0/1" value="0" leadInLength="0/1"  />
                 <InterpolatingParam id="3714" interp="linr"  time="0/1" value="0" leadInLength="0/1"  />
                </VectorParam>
               </Transformer>
               <Parameters>
                <VectorParam id="3715"  name="sourceCrop">
                 <InterpolatingParam id="3716" interp="linr"  time="0/1" value="0" leadInLength="0/1"  />
                 <InterpolatingParam id="3717" interp="linr"  time="0/1" value="0" leadInLength="0/1"  />
                 <InterpolatingParam id="3718" interp="linr"  time="0/1" value="0" leadInLength="0/1"  />
                 <InterpolatingParam id="3719" interp="linr"  time="0/1" value="0" leadInLength="0/1"  />
                </VectorParam>
                <VectorParam id="3720"  name="geometryCrop">
                 <InterpolatingParam id="3721" interp="linr"  time="0/1" value="0" leadInLength="0/1"  />
                 <InterpolatingParam id="3722" interp="linr"  time="0/1" value="0" leadInLength="0/1"  />
                 <InterpolatingParam id="3723" interp="linr"  time="0/1" value="0" leadInLength="0/1"  />
                 <InterpolatingParam id="3724" interp="linr"  time="0/1" value="0" leadInLength="0/1"  />
                </VectorParam>
                <InterpolatingParam id="3725" interp="linr"  time="0/1" value="1" leadInLength="0/1"  name="opacity"/>
               </Parameters>
               <Effects>
                <GenericEffect id="3726" name = "VisualTransition" >
                 <Parameters>
                 <InterpolatingParam id="3727" interp="linr"  time="0/1" value="0.5" leadInLength="0/1"   name="leftFramePercentage"/>
                 <InterpolatingParam id="3728" interp="linr"  time="0/1" value="0.5" leadInLength="0/1"   name="rightFramePercentage"/>
                 <Parameter id="3729"   name="visualEdgeModType">
                  <Keyframes>
                  <Keyframe id="3730"  time="0/1" value="2" leadInLength="0/1"  />
                  </Keyframes>
                 </Parameter>
                 <Parameter id="3731"   name="visualTransitionType">
                  <Keyframes>
                  <Keyframe id="3732"  time="0/1" value="Fade" leadInLength="0/1"  />
                  </Keyframes>
                 </Parameter>
                 </Parameters>
                 <MetaData>
                 </MetaData>
                </GenericEffect>
               </Effects>
               <Attributes>
                <Attribute id="3733" value="" name="ident"/>
               </Attributes>
               <ExtraData>
                <Entry key="ZoomPanBin">
                 <ZoomPanBin id="3734"  >
                  <ZoomPanKeyframes>
                  </ZoomPanKeyframes>
                 </ZoomPanBin>
                </Entry>
               </ExtraData>
              </ImageTransition>
              <MetaData>
               <entry key="WinSubProjectDisplayName" val=""/>
              </MetaData>
             </UnifiedMedia>
            </Medias>
           </GenericTrack>
          </Tracks>
         </GenericMixer>
         <MetaData>
          <entry key="IsGroupExpanded" val="False"/>
          <entry key="WinGroupOrigin" val="Asset"/>
          <entry key="WinSubProjectDisplayName" val="Animated Title"/>
         </MetaData>
         <ExtraData>
          <Entry key="ZoomPanBin">
           <ZoomPanBin id="3735"  >
            <ZoomPanKeyframes>
             <ZoomPanKeyframe id="3736" timeRangeEnd="-9999999/1" timeRangeDuration="0/1" interpolaterName="linr"  />
            </ZoomPanKeyframes>
           </ZoomPanBin>
          </Entry>
         </ExtraData>
        </Group>
        <Group id="3737" start="422" duration="109" scalar="1" mediaStart="477" mediaDuration="109" baseWidthAttr="0" baseHeightAttr="0"  >
         <Parameters>
          <VectorParam id="3738"  name="sourceCrop">
           <InterpolatingParam id="3739" interp="linr"  time="0/1" value="0" leadInLength="0/1"  />
           <InterpolatingParam id="3740" interp="linr"  time="0/1" value="0" leadInLength="0/1"  />
           <InterpolatingParam id="3741" interp="linr"  time="0/1" value="0" leadInLength="0/1"  />
           <InterpolatingParam id="3742" interp="linr"  time="0/1" value="0" leadInLength="0/1"  />
          </VectorParam>
          <VectorParam id="3743"  name="geometryCrop">
           <InterpolatingParam id="3744" interp="linr"  time="-9999999/1" value="0" leadInLength="0/1"  interpolater="leadin-eioe"  />
           <InterpolatingParam id="3745" interp="linr"  time="-9999999/1" value="0" leadInLength="0/1"  interpolater="leadin-eioe"  />
           <InterpolatingParam id="3746" interp="linr"  time="-9999999/1" value="0" leadInLength="0/1"  interpolater="leadin-eioe"  />
           <InterpolatingParam id="3747" interp="linr"  time="-9999999/1" value="0" leadInLength="0/1"  interpolater="leadin-eioe"  />
          </VectorParam>
          <InterpolatingParam id="3748" interp="linr"  time="-9999999/1" value="1" leadInLength="0/1"  name="opacity"/>
          <Parameter id="3749"  name="captions"/>
          <InterpolatingParam id="3750" interp="linr"  time="0/1" value="1" leadInLength="0/1"  name="volume"/>
         </Parameters>
         <Transformer>
          <VectorParam id="3751"  name="translation">
           <InterpolatingParam id="3752" interp="linr"  time="-9999999/1" value="-26.427831357183287" leadInLength="0/1"  />
           <InterpolatingParam id="3753" interp="linr"  time="-9999999/1" value="-5.4999999999966454" leadInLength="0/1"  />
           <InterpolatingParam id="3754" interp="linr"  time="-9999999/1" value="0" leadInLength="0/1"  />
          </VectorParam>
          <VectorParam id="3755"  name="rotation">
           <InterpolatingParam id="3756" interp="linr"  time="-9999999/1" value="0" leadInLength="0/1"  />
           <InterpolatingParam id="3757" interp="linr"  time="-9999999/1" value="0" leadInLength="0/1"  />
           <InterpolatingParam id="3758" interp="linr"  time="-9999999/1" value="0" leadInLength="0/1"  />
          </VectorParam>
          <VectorParam id="3759"  name="shear">
           <InterpolatingParam id="3760" interp="linr"  time="-9999999/1" value="0" leadInLength="0/1"  />
           <InterpolatingParam id="3761" interp="linr"  time="-9999999/1" value="0" leadInLength="0/1"  />
           <InterpolatingParam id="3762" interp="linr"  time="-9999999/1" value="0" leadInLength="0/1"  />
          </VectorParam>
          <VectorParam id="3763"  name="scale">
           <InterpolatingParam id="3764" interp="linr"  time="-9999999/1" value="1" leadInLength="0/1"  />
           <InterpolatingParam id="3765" interp="linr"  time="-9999999/1" value="1" leadInLength="0/1"  />
           <InterpolatingParam id="3766" interp="linr"  time="-9999999/1" value="1" leadInLength="0/1"  />
          </VectorParam>
          <VectorParam id="3767"  name="anchor">
           <InterpolatingParam id="3768" interp="linr"  time="0/1" value="0.5" leadInLength="0/1"  />
           <InterpolatingParam id="3769" interp="linr"  time="0/1" value="0.5" leadInLength="0/1"  />
           <InterpolatingParam id="3770" interp="linr"  time="0/1" value="0" leadInLength="0/1"  />
          </VectorParam>
         </Transformer>
         <GenericMixer id="3771"  >
          <MetaData>
          </MetaData>
          <Tracks>
           <GenericTrack id="3772"  >
            <Attributes>
             <Attribute id="3773" value="" name="ident"/>
             <Attribute id="3774" value="0" name="audioMuted"/>
             <Attribute id="3775" value="0" name="videoHidden"/>
            </Attributes>
            <MetaData>
             <entry key="IsLocked" val="False"/>
             <entry key="WinTrackHeight" val="0"/>
            </MetaData>
            <Medias>
             <VMFile id="3776" start="0" duration="600" scalar="1/1" mediaStart="0/1" mediaDuration="600/1" trackNumber="0" src="9" >
              <Transformer>
               <VectorParam id="3777"  name="translation">
                <InterpolatingParam id="3778" interp="linr"  time="-9999999/1" value="0.49999999988145821" leadInLength="0/1"  />
                <InterpolatingParam id="3779" interp="linr"  time="-9999999/1" value="0.49999999999391775" leadInLength="0/1"  />
                <InterpolatingParam id="3780" interp="linr"  time="-9999999/1" value="0" leadInLength="0/1"  />
               </VectorParam>
               <VectorParam id="3781"  name="rotation">
                <InterpolatingParam id="3782" interp="linr"  time="-9999999/1" value="0" leadInLength="0/1"  />
                <InterpolatingParam id="3783" interp="linr"  time="-9999999/1" value="0" leadInLength="0/1"  />
                <InterpolatingParam id="3784" interp="linr"  time="-9999999/1" value="0" leadInLength="0/1"  />
               </VectorParam>
               <VectorParam id="3785"  name="shear">
                <InterpolatingParam id="3786" interp="linr"  time="-9999999/1" value="0" leadInLength="0/1"  />
                <InterpolatingParam id="3787" interp="linr"  time="-9999999/1" value="0" leadInLength="0/1"  />
                <InterpolatingParam id="3788" interp="linr"  time="-9999999/1" value="0" leadInLength="0/1"  />
               </VectorParam>
               <VectorParam id="3789"  name="scale">
                <InterpolatingParam id="3790" interp="linr"  time="-9999999/1" value="1" leadInLength="0/1"  />
                <InterpolatingParam id="3791" interp="linr"  time="-9999999/1" value="1" leadInLength="0/1"  />
                <InterpolatingParam id="3792" interp="linr"  time="-9999999/1" value="1" leadInLength="0/1"  />
               </VectorParam>
               <VectorParam id="3793"  name="anchor">
                <InterpolatingParam id="3794" interp="linr"  time="0/1" value="0" leadInLength="0/1"  />
                <InterpolatingParam id="3795" interp="linr"  time="0/1" value="0" leadInLength="0/1"  />
                <InterpolatingParam id="3796" interp="linr"  time="0/1" value="0" leadInLength="0/1"  />
               </VectorParam>
              </Transformer>
              <Parameters>
               <VectorParam id="3797"  name="sourceCrop">
                <InterpolatingParam id="3798" interp="linr"  time="0/1" value="0" leadInLength="0/1"  />
                <InterpolatingParam id="3799" interp="linr"  time="0/1" value="0" leadInLength="0/1"  />
                <InterpolatingParam id="3800" interp="linr"  time="0/1" value="0" leadInLength="0/1"  />
                <InterpolatingParam id="3801" interp="linr"  time="0/1" value="0" leadInLength="0/1"  />
               </VectorParam>
               <VectorParam id="3802"  name="geometryCrop">
                <InterpolatingParam id="3803" interp="linr"  time="-9999999/1" value="0" leadInLength="0/1"  interpolater="leadin-eioe"  />
                <InterpolatingParam id="3804" interp="linr"  time="-9999999/1" value="0" leadInLength="0/1"  interpolater="leadin-eioe"  />
                <InterpolatingParam id="3805" interp="linr"  time="-9999999/1" value="0" leadInLength="0/1"  interpolater="leadin-eioe"  />
                <InterpolatingParam id="3806" interp="linr"  time="-9999999/1" value="0" leadInLength="0/1"  interpolater="leadin-eioe"  />
               </VectorParam>
               <InterpolatingParam id="3807" interp="linr"  time="-9999999/1" value="1" leadInLength="0/1"  name="opacity"/>
              </Parameters>
              <Attributes>
               <Attribute id="3808" value="" name="ident"/>
              </Attributes>
              <MetaData>
               <entry key="WinSubProjectDisplayName" val=""/>
              </MetaData>
              <ExtraData>
               <Entry key="ZoomPanBin">
                <ZoomPanBin id="3809"  >
                 <ZoomPanKeyframes>
                  <ZoomPanKeyframe id="3810" timeRangeEnd="-9999999/1" timeRangeDuration="0/1" interpolaterName="linr"  />
                 </ZoomPanKeyframes>
                </ZoomPanBin>
               </Entry>
              </ExtraData>
             </VMFile>
            </Medias>
           </GenericTrack>
           <GenericTrack id="3811"  >
            <Attributes>
             <Attribute id="3812" value="" name="ident"/>
             <Attribute id="3813" value="0" name="audioMuted"/>
             <Attribute id="3814" value="0" name="videoHidden"/>
            </Attributes>
            <MetaData>
             <entry key="IsLocked" val="False"/>
             <entry key="WinTrackHeight" val="0"/>
            </MetaData>
            <Medias>
             <UnifiedMedia id="3815"  >
              <AudioTransition id="3816" start="30" duration="30" >
               <Parameters>
                <InterpolatingParam id="3817" interp="linr"  time="0/1" value="1" leadInLength="0/1"  name="volume"/>
                <Parameter id="3818"  name="captions"/>
               </Parameters>
               <Effects>
                <GenericEffect id="3819" name = "AudioTransition" >
                 <Parameters>
                 <Parameter id="3820"   name="audioEdgeModType">
                  <Keyframes>
                  <Keyframe id="3821"  time="0/1" value="0" leadInLength="0/1"  />
                  </Keyframes>
                 </Parameter>
                 <Parameter id="3822"   name="audioTransitionType">
                  <Keyframes>
                  <Keyframe id="3823"  time="0/1" value="" leadInLength="0/1"  />
                  </Keyframes>
                 </Parameter>
                 </Parameters>
                 <MetaData>
                 </MetaData>
                </GenericEffect>
               </Effects>
               <Attributes>
                <Attribute id="3824" value="" name="ident"/>
                <Attribute id="3825" value="0" name="sampleRate"/>
                <Attribute id="3826" value="0" name="bitDepth"/>
                <Attribute id="3827" value="1" name="gain"/>
                <Attribute id="3828" value="0" name="mixToMono"/>
               </Attributes>
              </AudioTransition>
              <ImageTransition id="3829" start="30" duration="30" >
               <Transformer>
                <VectorParam id="3830"  name="translation">
                 <InterpolatingParam id="3831" interp="linr"  time="0/1" value="0" leadInLength="0/1"  />
                 <InterpolatingParam id="3832" interp="linr"  time="0/1" value="0" leadInLength="0/1"  />
                 <InterpolatingParam id="3833" interp="linr"  time="0/1" value="0" leadInLength="0/1"  />
                </VectorParam>
                <VectorParam id="3834"  name="rotation">
                 <InterpolatingParam id="3835" interp="linr"  time="0/1" value="0" leadInLength="0/1"  />
                 <InterpolatingParam id="3836" interp="linr"  time="0/1" value="0" leadInLength="0/1"  />
                 <InterpolatingParam id="3837" interp="linr"  time="0/1" value="0" leadInLength="0/1"  />
                </VectorParam>
                <VectorParam id="3838"  name="shear">
                 <InterpolatingParam id="3839" interp="linr"  time="0/1" value="0" leadInLength="0/1"  />
                 <InterpolatingParam id="3840" interp="linr"  time="0/1" value="0" leadInLength="0/1"  />
                 <InterpolatingParam id="3841" interp="linr"  time="0/1" value="0" leadInLength="0/1"  />
                </VectorParam>
                <VectorParam id="3842"  name="scale">
                 <InterpolatingParam id="3843" interp="linr"  time="0/1" value="1" leadInLength="0/1"  />
                 <InterpolatingParam id="3844" interp="linr"  time="0/1" value="1" leadInLength="0/1"  />
                 <InterpolatingParam id="3845" interp="linr"  time="0/1" value="1" leadInLength="0/1"  />
                </VectorParam>
                <VectorParam id="3846"  name="anchor">
                 <InterpolatingParam id="3847" interp="linr"  time="0/1" value="0" leadInLength="0/1"  />
                 <InterpolatingParam id="3848" interp="linr"  time="0/1" value="0" leadInLength="0/1"  />
                 <InterpolatingParam id="3849" interp="linr"  time="0/1" value="0" leadInLength="0/1"  />
                </VectorParam>
               </Transformer>
               <Parameters>
                <VectorParam id="3850"  name="sourceCrop">
                 <InterpolatingParam id="3851" interp="linr"  time="0/1" value="0" leadInLength="0/1"  />
                 <InterpolatingParam id="3852" interp="linr"  time="0/1" value="0" leadInLength="0/1"  />
                 <InterpolatingParam id="3853" interp="linr"  time="0/1" value="0" leadInLength="0/1"  />
                 <InterpolatingParam id="3854" interp="linr"  time="0/1" value="0" leadInLength="0/1"  />
                </VectorParam>
                <VectorParam id="3855"  name="geometryCrop">
                 <InterpolatingParam id="3856" interp="linr"  time="0/1" value="0" leadInLength="0/1"  />
                 <InterpolatingParam id="3857" interp="linr"  time="0/1" value="0" leadInLength="0/1"  />
                 <InterpolatingParam id="3858" interp="linr"  time="0/1" value="0" leadInLength="0/1"  />
                 <InterpolatingParam id="3859" interp="linr"  time="0/1" value="0" leadInLength="0/1"  />
                </VectorParam>
                <InterpolatingParam id="3860" interp="linr"  time="0/1" value="1" leadInLength="0/1"  name="opacity"/>
               </Parameters>
               <Effects>
                <GenericEffect id="3861" name = "VisualTransition" >
                 <Parameters>
                 <InterpolatingParam id="3862" interp="linr"  time="0/1" value="0.5" leadInLength="0/1"   name="leftFramePercentage"/>
                 <InterpolatingParam id="3863" interp="linr"  time="0/1" value="0.5" leadInLength="0/1"   name="rightFramePercentage"/>
                 <Parameter id="3864"   name="visualEdgeModType">
                  <Keyframes>
                  <Keyframe id="3865"  time="0/1" value="1" leadInLength="0/1"  />
                  </Keyframes>
                 </Parameter>
                 <Parameter id="3866"   name="visualTransitionType">
                  <Keyframes>
                  <Keyframe id="3867"  time="0/1" value="Fade" leadInLength="0/1"  />
                  </Keyframes>
                 </Parameter>
                 </Parameters>
                 <MetaData>
                 </MetaData>
                </GenericEffect>
               </Effects>
               <Attributes>
                <Attribute id="3868" value="" name="ident"/>
               </Attributes>
               <ExtraData>
                <Entry key="ZoomPanBin">
                 <ZoomPanBin id="3869"  >
                  <ZoomPanKeyframes>
                  </ZoomPanKeyframes>
                 </ZoomPanBin>
                </Entry>
               </ExtraData>
              </ImageTransition>
              <MetaData>
               <entry key="WinSubProjectDisplayName" val=""/>
              </MetaData>
             </UnifiedMedia>
             <Callout id="3870" start="60" duration="543" scalar="1/1" mediaStart="-90/1" mediaDuration="543/1" >
              <Transformer>
               <VectorParam id="3871"  name="translation">
                <InterpolatingParam id="3872" interp="linr"  time="-9999999/1" value="-17.55458486052018" leadInLength="0/1"  />
                <InterpolatingParam id="3873" interp="linr"  time="-9999999/1" value="206.03788685750811" leadInLength="0/1"  />
                <InterpolatingParam id="3874" interp="linr"  time="-9999999/1" value="0" leadInLength="0/1"  />
               </VectorParam>
               <VectorParam id="3875"  name="rotation">
                <InterpolatingParam id="3876" interp="linr"  time="-9999999/1" value="0" leadInLength="0/1"  />
                <InterpolatingParam id="3877" interp="linr"  time="-9999999/1" value="0" leadInLength="0/1"  />
                <InterpolatingParam id="3878" interp="linr"  time="-9999999/1" value="0" leadInLength="0/1"  />
               </VectorParam>
               <VectorParam id="3879"  name="shear">
                <InterpolatingParam id="3880" interp="linr"  time="-9999999/1" value="0" leadInLength="0/1"  />
                <InterpolatingParam id="3881" interp="linr"  time="-9999999/1" value="0" leadInLength="0/1"  />
                <InterpolatingParam id="3882" interp="linr"  time="-9999999/1" value="0" leadInLength="0/1"  />
               </VectorParam>
               <VectorParam id="3883"  name="scale">
                <InterpolatingParam id="3884" interp="linr"  time="-9999999/1" value="2.6083366666667009" leadInLength="0/1"  />
                <InterpolatingParam id="3885" interp="linr"  time="-9999999/1" value="1" leadInLength="0/1"  />
                <InterpolatingParam id="3886" interp="linr"  time="-9999999/1" value="1" leadInLength="0/1"  />
               </VectorParam>
               <VectorParam id="3887"  name="anchor">
                <InterpolatingParam id="3888" interp="linr"  time="0/1" value="0" leadInLength="0/1"  />
                <InterpolatingParam id="3889" interp="linr"  time="0/1" value="0" leadInLength="0/1"  />
                <InterpolatingParam id="3890" interp="linr"  time="0/1" value="0" leadInLength="0/1"  />
               </VectorParam>
              </Transformer>
              <Parameters>
               <VectorParam id="3891"  name="sourceCrop">
                <InterpolatingParam id="3892" interp="linr"  time="0/1" value="0" leadInLength="0/1"  />
                <InterpolatingParam id="3893" interp="linr"  time="0/1" value="0" leadInLength="0/1"  />
                <InterpolatingParam id="3894" interp="linr"  time="0/1" value="0" leadInLength="0/1"  />
                <InterpolatingParam id="3895" interp="linr"  time="0/1" value="0" leadInLength="0/1"  />
               </VectorParam>
               <VectorParam id="3896"  name="geometryCrop">
                <InterpolatingParam id="3897" interp="linr"  time="-9999999/1" value="0" leadInLength="0/1"  interpolater="leadin-eioe"  />
                <InterpolatingParam id="3898" interp="linr"  time="-9999999/1" value="0" leadInLength="0/1"  interpolater="leadin-eioe"  />
                <InterpolatingParam id="3899" interp="linr"  time="-9999999/1" value="0" leadInLength="0/1"  interpolater="leadin-eioe"  />
                <InterpolatingParam id="3900" interp="linr"  time="-9999999/1" value="0" leadInLength="0/1"  interpolater="leadin-eioe"  />
               </VectorParam>
               <InterpolatingParam id="3901" interp="linr"  time="-9999999/1" value="1" leadInLength="0/1"  name="opacity"/>
              </Parameters>
              <Attributes>
               <Attribute id="3902"  name="vectorNode">
                <VectorNode id="3903" kind="TypeWinText"  >
                 <DoubleParameters>
                  <InterpolatingParam id="3904" interp="linr"  time="0/1" value="5" leadInLength="0/1"  name="Style"/>
                  <InterpolatingParam id="3905" interp="linr"  time="0/1" value="320" leadInLength="0/1"  name="height"/>
                  <InterpolatingParam id="3906" interp="linr"  time="0/1" value="0" leadInLength="0/1"  name="textDropShadow"/>
                  <InterpolatingParam id="3907" interp="linr"  time="0/1" value="0" leadInLength="0/1"  name="textIgnoresOpacity"/>
                  <InterpolatingParam id="3908" interp="linr"  time="0/1" value="1" leadInLength="0/1"  name="textRectHeight"/>
                  <InterpolatingParam id="3909" interp="linr"  time="0/1" value="1" leadInLength="0/1"  name="textRectWidth"/>
                  <InterpolatingParam id="3910" interp="linr"  time="0/1" value="0" leadInLength="0/1"  name="textRectX"/>
                  <InterpolatingParam id="3911" interp="linr"  time="0/1" value="0" leadInLength="0/1"  name="textRectY"/>
                  <InterpolatingParam id="3912" interp="linr"  time="0/1" value="0" leadInLength="0/1"  name="textVerticalAlign"/>
                  <InterpolatingParam id="3913" interp="linr"  time="0/1" value="480" leadInLength="0/1"  name="width"/>
                 </DoubleParameters>
                 <StringParameters>
                  <Parameter id="3914"  name="filename">
                   <Keyframes>
                   <Keyframe id="3915"  time="0/1" value="C:\Program Files (x86)\TechSmith\Camtasia Studio 8\Media\Studio\Callouts\trans_100x100.xml" leadInLength="0/1"  />
                   </Keyframes>
                  </Parameter>
                  <Parameter id="3916"  name="name">
                   <Keyframes>
                   <Keyframe id="3917"  time="0/1" value="Text Callout" leadInLength="0/1"  />
                   </Keyframes>
                  </Parameter>
                  <Parameter id="3918"  name="text">
                   <Keyframes>
                   <Keyframe id="3919"  time="0/1" value="{\rtf1\ansi\ansicpg1252\deff0\deflang1033{\fonttbl{\f0\fswiss\fprq2\fcharset0 Impact;}}&#xD;&#xa;{\colortbl ;\red218\green182\blue1;}&#xD;&#xa;\viewkind4\uc1\pard\qc\cf1\f0\fs130 Complete guide to build IOT Things from scratch to market\par&#xD;&#xa;}&#xD;&#xa;" leadInLength="0/1"  />
                   </Keyframes>
                  </Parameter>
                  <Parameter id="3920"  name="xmlContent">
                   <Keyframes>
                   <Keyframe id="3921"  time="0/1" value="﻿&lt;?xml version=&quot;1.0&quot;?&gt;&#xa;&#xa;&lt;Overlay version=&quot;1.0.1&quot;&gt;&#xa;&#xa;&lt;Overlay_Filename&gt;trans_100x100.png&lt;/Overlay_Filename&gt;&#xa;&lt;Overlay_Name&gt;Text Callout&lt;/Overlay_Name&gt;&#xa;&lt;Overlay_XGrow&gt;0&lt;/Overlay_XGrow&gt;&#xa;&lt;Overlay_YGrow&gt;0&lt;/Overlay_YGrow&gt;&#xa;&lt;Text_Top&gt;0&lt;/Text_Top&gt;&#xa;&lt;Text_Left&gt;0&lt;/Text_Left&gt;&#xa;&lt;Text_Bottom&gt;0&lt;/Text_Bottom&gt;&#xa;&lt;Text_Right&gt;0&lt;/Text_Right&gt;&#xa;&lt;Vector_Grow&gt;0&lt;/Vector_Grow&gt;&#xa;&lt;CanRotate_90&gt;0&lt;/CanRotate_90&gt;&#xa;&lt;CanRotate_180&gt;0&lt;/CanRotate_180&gt;&#xa;&lt;CanRotate_270&gt;0&lt;/CanRotate_270&gt;&#xa;&lt;CanFlip_X&gt;0&lt;/CanFlip_X&gt;&#xa;&lt;CanFlip_X90&gt;0&lt;/CanFlip_X90&gt;&#xa;&lt;CanFlip_X180&gt;0&lt;/CanFlip_X180&gt;&#xa;&lt;CanFlip_X270&gt;0&lt;/CanFlip_X270&gt;&#xa;&lt;Fill_Color&gt;0&lt;/Fill_Color&gt;&#xa;&lt;Border_Color&gt;0&lt;/Border_Color&gt;&#xa;&lt;Style&gt;5&lt;/Style&gt;&#xa;&lt;/Overlay&gt;" leadInLength="0/1"  />
                   </Keyframes>
                  </Parameter>
                 </StringParameters>
                </VectorNode>
               </Attribute>
              </Attributes>
              <MetaData>
               <entry key="WinSubProjectDisplayName" val=""/>
              </MetaData>
              <LeftEdgeMods length="0/1" groupName="OpacityFade">
               <EdgeMod parameter="3901">
                <FadeInFunc id="3431"  />
               </EdgeMod>
              </LeftEdgeMods>
              <RightEdgeMods length="0/1" groupName="OpacityFade">
               <EdgeMod parameter="3901">
                <FadeOutFunc id="3922"  />
               </EdgeMod>
              </RightEdgeMods>
              <ExtraData>
               <Entry key="ZoomPanBin">
                <ZoomPanBin id="3923"  >
                 <ZoomPanKeyframes>
                  <ZoomPanKeyframe id="3924" timeRangeEnd="-9999999/1" timeRangeDuration="0/1" interpolaterName="linr"  />
                 </ZoomPanKeyframes>
                </ZoomPanBin>
               </Entry>
              </ExtraData>
             </Callout>
             <UnifiedMedia id="3925"  >
              <AudioTransition id="3926" start="603" duration="30" >
               <Parameters>
                <InterpolatingParam id="3927" interp="linr"  time="0/1" value="1" leadInLength="0/1"  name="volume"/>
                <Parameter id="3928"  name="captions"/>
               </Parameters>
               <Effects>
                <GenericEffect id="3929" name = "AudioTransition" >
                 <Parameters>
                 <Parameter id="3930"   name="audioEdgeModType">
                  <Keyframes>
                  <Keyframe id="3931"  time="0/1" value="0" leadInLength="0/1"  />
                  </Keyframes>
                 </Parameter>
                 <Parameter id="3932"   name="audioTransitionType">
                  <Keyframes>
                  <Keyframe id="3933"  time="0/1" value="" leadInLength="0/1"  />
                  </Keyframes>
                 </Parameter>
                 </Parameters>
                 <MetaData>
                 </MetaData>
                </GenericEffect>
               </Effects>
               <Attributes>
                <Attribute id="3934" value="" name="ident"/>
                <Attribute id="3935" value="0" name="sampleRate"/>
                <Attribute id="3936" value="0" name="bitDepth"/>
                <Attribute id="3937" value="1" name="gain"/>
                <Attribute id="3938" value="0" name="mixToMono"/>
               </Attributes>
              </AudioTransition>
              <ImageTransition id="3939" start="603" duration="30" >
               <Transformer>
                <VectorParam id="3940"  name="translation">
                 <InterpolatingParam id="3941" interp="linr"  time="0/1" value="0" leadInLength="0/1"  />
                 <InterpolatingParam id="3942" interp="linr"  time="0/1" value="0" leadInLength="0/1"  />
                 <InterpolatingParam id="3943" interp="linr"  time="0/1" value="0" leadInLength="0/1"  />
                </VectorParam>
                <VectorParam id="3944"  name="rotation">
                 <InterpolatingParam id="3945" interp="linr"  time="0/1" value="0" leadInLength="0/1"  />
                 <InterpolatingParam id="3946" interp="linr"  time="0/1" value="0" leadInLength="0/1"  />
                 <InterpolatingParam id="3947" interp="linr"  time="0/1" value="0" leadInLength="0/1"  />
                </VectorParam>
                <VectorParam id="3948"  name="shear">
                 <InterpolatingParam id="3949" interp="linr"  time="0/1" value="0" leadInLength="0/1"  />
                 <InterpolatingParam id="3950" interp="linr"  time="0/1" value="0" leadInLength="0/1"  />
                 <InterpolatingParam id="3951" interp="linr"  time="0/1" value="0" leadInLength="0/1"  />
                </VectorParam>
                <VectorParam id="3952"  name="scale">
                 <InterpolatingParam id="3953" interp="linr"  time="0/1" value="1" leadInLength="0/1"  />
                 <InterpolatingParam id="3954" interp="linr"  time="0/1" value="1" leadInLength="0/1"  />
                 <InterpolatingParam id="3955" interp="linr"  time="0/1" value="1" leadInLength="0/1"  />
                </VectorParam>
                <VectorParam id="3956"  name="anchor">
                 <InterpolatingParam id="3957" interp="linr"  time="0/1" value="0" leadInLength="0/1"  />
                 <InterpolatingParam id="3958" interp="linr"  time="0/1" value="0" leadInLength="0/1"  />
                 <InterpolatingParam id="3959" interp="linr"  time="0/1" value="0" leadInLength="0/1"  />
                </VectorParam>
               </Transformer>
               <Parameters>
                <VectorParam id="3960"  name="sourceCrop">
                 <InterpolatingParam id="3961" interp="linr"  time="0/1" value="0" leadInLength="0/1"  />
                 <InterpolatingParam id="3962" interp="linr"  time="0/1" value="0" leadInLength="0/1"  />
                 <InterpolatingParam id="3963" interp="linr"  time="0/1" value="0" leadInLength="0/1"  />
                 <InterpolatingParam id="3964" interp="linr"  time="0/1" value="0" leadInLength="0/1"  />
                </VectorParam>
                <VectorParam id="3965"  name="geometryCrop">
                 <InterpolatingParam id="3966" interp="linr"  time="0/1" value="0" leadInLength="0/1"  />
                 <InterpolatingParam id="3967" interp="linr"  time="0/1" value="0" leadInLength="0/1"  />
                 <InterpolatingParam id="3968" interp="linr"  time="0/1" value="0" leadInLength="0/1"  />
                 <InterpolatingParam id="3969" interp="linr"  time="0/1" value="0" leadInLength="0/1"  />
                </VectorParam>
                <InterpolatingParam id="3970" interp="linr"  time="0/1" value="1" leadInLength="0/1"  name="opacity"/>
               </Parameters>
               <Effects>
                <GenericEffect id="3971" name = "VisualTransition" >
                 <Parameters>
                 <InterpolatingParam id="3972" interp="linr"  time="0/1" value="0.5" leadInLength="0/1"   name="leftFramePercentage"/>
                 <InterpolatingParam id="3973" interp="linr"  time="0/1" value="0.5" leadInLength="0/1"   name="rightFramePercentage"/>
                 <Parameter id="3974"   name="visualEdgeModType">
                  <Keyframes>
                  <Keyframe id="3975"  time="0/1" value="2" leadInLength="0/1"  />
                  </Keyframes>
                 </Parameter>
                 <Parameter id="3976"   name="visualTransitionType">
                  <Keyframes>
                  <Keyframe id="3977"  time="0/1" value="Fade" leadInLength="0/1"  />
                  </Keyframes>
                 </Parameter>
                 </Parameters>
                 <MetaData>
                 </MetaData>
                </GenericEffect>
               </Effects>
               <Attributes>
                <Attribute id="3978" value="" name="ident"/>
               </Attributes>
               <ExtraData>
                <Entry key="ZoomPanBin">
                 <ZoomPanBin id="3979"  >
                  <ZoomPanKeyframes>
                  </ZoomPanKeyframes>
                 </ZoomPanBin>
                </Entry>
               </ExtraData>
              </ImageTransition>
              <MetaData>
               <entry key="WinSubProjectDisplayName" val=""/>
              </MetaData>
             </UnifiedMedia>
            </Medias>
           </GenericTrack>
          </Tracks>
         </GenericMixer>
         <MetaData>
          <entry key="IsGroupExpanded" val="False"/>
          <entry key="WinGroupOrigin" val="Asset"/>
          <entry key="WinSubProjectDisplayName" val="Animated Title"/>
         </MetaData>
         <ExtraData>
          <Entry key="ZoomPanBin">
           <ZoomPanBin id="3980"  >
            <ZoomPanKeyframes>
             <ZoomPanKeyframe id="3981" timeRangeEnd="-9999999/1" timeRangeDuration="0/1" interpolaterName="linr"  />
            </ZoomPanKeyframes>
           </ZoomPanBin>
          </Entry>
         </ExtraData>
        </Group>
        <Group id="3982" start="531" duration="40" scalar="1" mediaStart="593" mediaDuration="40" baseWidthAttr="0" baseHeightAttr="0"  >
         <Parameters>
          <VectorParam id="3983"  name="sourceCrop">
           <InterpolatingParam id="3984" interp="linr"  time="0/1" value="0" leadInLength="0/1"  />
           <InterpolatingParam id="3985" interp="linr"  time="0/1" value="0" leadInLength="0/1"  />
           <InterpolatingParam id="3986" interp="linr"  time="0/1" value="0" leadInLength="0/1"  />
           <InterpolatingParam id="3987" interp="linr"  time="0/1" value="0" leadInLength="0/1"  />
          </VectorParam>
          <VectorParam id="3988"  name="geometryCrop">
           <InterpolatingParam id="3989" interp="linr"  time="-9999999/1" value="0" leadInLength="0/1"  interpolater="leadin-eioe"  />
           <InterpolatingParam id="3990" interp="linr"  time="-9999999/1" value="0" leadInLength="0/1"  interpolater="leadin-eioe"  />
           <InterpolatingParam id="3991" interp="linr"  time="-9999999/1" value="0" leadInLength="0/1"  interpolater="leadin-eioe"  />
           <InterpolatingParam id="3992" interp="linr"  time="-9999999/1" value="0" leadInLength="0/1"  interpolater="leadin-eioe"  />
          </VectorParam>
          <InterpolatingParam id="3993" interp="linr"  time="-9999999/1" value="1" leadInLength="0/1"  name="opacity"/>
          <Parameter id="3994"  name="captions"/>
          <InterpolatingParam id="3995" interp="linr"  time="0/1" value="1" leadInLength="0/1"  name="volume"/>
         </Parameters>
         <Transformer>
          <VectorParam id="3996"  name="translation">
           <InterpolatingParam id="3997" interp="linr"  time="-9999999/1" value="-26.427831357183287" leadInLength="0/1"  />
           <InterpolatingParam id="3998" interp="linr"  time="-9999999/1" value="-5.4999999999966454" leadInLength="0/1"  />
           <InterpolatingParam id="3999" interp="linr"  time="-9999999/1" value="0" leadInLength="0/1"  />
          </VectorParam>
          <VectorParam id="4000"  name="rotation">
           <InterpolatingParam id="4001" interp="linr"  time="-9999999/1" value="0" leadInLength="0/1"  />
           <InterpolatingParam id="4002" interp="linr"  time="-9999999/1" value="0" leadInLength="0/1"  />
           <InterpolatingParam id="4003" interp="linr"  time="-9999999/1" value="0" leadInLength="0/1"  />
          </VectorParam>
          <VectorParam id="4004"  name="shear">
           <InterpolatingParam id="4005" interp="linr"  time="-9999999/1" value="0" leadInLength="0/1"  />
           <InterpolatingParam id="4006" interp="linr"  time="-9999999/1" value="0" leadInLength="0/1"  />
           <InterpolatingParam id="4007" interp="linr"  time="-9999999/1" value="0" leadInLength="0/1"  />
          </VectorParam>
          <VectorParam id="4008"  name="scale">
           <InterpolatingParam id="4009" interp="linr"  time="-9999999/1" value="1" leadInLength="0/1"  />
           <InterpolatingParam id="4010" interp="linr"  time="-9999999/1" value="1" leadInLength="0/1"  />
           <InterpolatingParam id="4011" interp="linr"  time="-9999999/1" value="1" leadInLength="0/1"  />
          </VectorParam>
          <VectorParam id="4012"  name="anchor">
           <InterpolatingParam id="4013" interp="linr"  time="0/1" value="0.5" leadInLength="0/1"  />
           <InterpolatingParam id="4014" interp="linr"  time="0/1" value="0.5" leadInLength="0/1"  />
           <InterpolatingParam id="4015" interp="linr"  time="0/1" value="0" leadInLength="0/1"  />
          </VectorParam>
         </Transformer>
         <GenericMixer id="4016"  >
          <MetaData>
          </MetaData>
          <Tracks>
           <GenericTrack id="4017"  >
            <Attributes>
             <Attribute id="4018" value="" name="ident"/>
             <Attribute id="4019" value="0" name="audioMuted"/>
             <Attribute id="4020" value="0" name="videoHidden"/>
            </Attributes>
            <MetaData>
             <entry key="IsLocked" val="False"/>
             <entry key="WinTrackHeight" val="0"/>
            </MetaData>
            <Medias>
             <VMFile id="4021" start="0" duration="600" scalar="1/1" mediaStart="0/1" mediaDuration="600/1" trackNumber="0" src="9" >
              <Transformer>
               <VectorParam id="4022"  name="translation">
                <InterpolatingParam id="4023" interp="linr"  time="-9999999/1" value="0.49999999988145821" leadInLength="0/1"  />
                <InterpolatingParam id="4024" interp="linr"  time="-9999999/1" value="0.49999999999391775" leadInLength="0/1"  />
                <InterpolatingParam id="4025" interp="linr"  time="-9999999/1" value="0" leadInLength="0/1"  />
               </VectorParam>
               <VectorParam id="4026"  name="rotation">
                <InterpolatingParam id="4027" interp="linr"  time="-9999999/1" value="0" leadInLength="0/1"  />
                <InterpolatingParam id="4028" interp="linr"  time="-9999999/1" value="0" leadInLength="0/1"  />
                <InterpolatingParam id="4029" interp="linr"  time="-9999999/1" value="0" leadInLength="0/1"  />
               </VectorParam>
               <VectorParam id="4030"  name="shear">
                <InterpolatingParam id="4031" interp="linr"  time="-9999999/1" value="0" leadInLength="0/1"  />
                <InterpolatingParam id="4032" interp="linr"  time="-9999999/1" value="0" leadInLength="0/1"  />
                <InterpolatingParam id="4033" interp="linr"  time="-9999999/1" value="0" leadInLength="0/1"  />
               </VectorParam>
               <VectorParam id="4034"  name="scale">
                <InterpolatingParam id="4035" interp="linr"  time="-9999999/1" value="1" leadInLength="0/1"  />
                <InterpolatingParam id="4036" interp="linr"  time="-9999999/1" value="1" leadInLength="0/1"  />
                <InterpolatingParam id="4037" interp="linr"  time="-9999999/1" value="1" leadInLength="0/1"  />
               </VectorParam>
               <VectorParam id="4038"  name="anchor">
                <InterpolatingParam id="4039" interp="linr"  time="0/1" value="0" leadInLength="0/1"  />
                <InterpolatingParam id="4040" interp="linr"  time="0/1" value="0" leadInLength="0/1"  />
                <InterpolatingParam id="4041" interp="linr"  time="0/1" value="0" leadInLength="0/1"  />
               </VectorParam>
              </Transformer>
              <Parameters>
               <VectorParam id="4042"  name="sourceCrop">
                <InterpolatingParam id="4043" interp="linr"  time="0/1" value="0" leadInLength="0/1"  />
                <InterpolatingParam id="4044" interp="linr"  time="0/1" value="0" leadInLength="0/1"  />
                <InterpolatingParam id="4045" interp="linr"  time="0/1" value="0" leadInLength="0/1"  />
                <InterpolatingParam id="4046" interp="linr"  time="0/1" value="0" leadInLength="0/1"  />
               </VectorParam>
               <VectorParam id="4047"  name="geometryCrop">
                <InterpolatingParam id="4048" interp="linr"  time="-9999999/1" value="0" leadInLength="0/1"  interpolater="leadin-eioe"  />
                <InterpolatingParam id="4049" interp="linr"  time="-9999999/1" value="0" leadInLength="0/1"  interpolater="leadin-eioe"  />
                <InterpolatingParam id="4050" interp="linr"  time="-9999999/1" value="0" leadInLength="0/1"  interpolater="leadin-eioe"  />
                <InterpolatingParam id="4051" interp="linr"  time="-9999999/1" value="0" leadInLength="0/1"  interpolater="leadin-eioe"  />
               </VectorParam>
               <InterpolatingParam id="4052" interp="linr"  time="-9999999/1" value="1" leadInLength="0/1"  name="opacity"/>
              </Parameters>
              <Attributes>
               <Attribute id="4053" value="" name="ident"/>
              </Attributes>
              <MetaData>
               <entry key="WinSubProjectDisplayName" val=""/>
              </MetaData>
              <ExtraData>
               <Entry key="ZoomPanBin">
                <ZoomPanBin id="4054"  >
                 <ZoomPanKeyframes>
                  <ZoomPanKeyframe id="4055" timeRangeEnd="-9999999/1" timeRangeDuration="0/1" interpolaterName="linr"  />
                 </ZoomPanKeyframes>
                </ZoomPanBin>
               </Entry>
              </ExtraData>
             </VMFile>
            </Medias>
           </GenericTrack>
           <GenericTrack id="4056"  >
            <Attributes>
             <Attribute id="4057" value="" name="ident"/>
             <Attribute id="4058" value="0" name="audioMuted"/>
             <Attribute id="4059" value="0" name="videoHidden"/>
            </Attributes>
            <MetaData>
             <entry key="IsLocked" val="False"/>
             <entry key="WinTrackHeight" val="0"/>
            </MetaData>
            <Medias>
             <UnifiedMedia id="4060"  >
              <AudioTransition id="4061" start="30" duration="30" >
               <Parameters>
                <InterpolatingParam id="4062" interp="linr"  time="0/1" value="1" leadInLength="0/1"  name="volume"/>
                <Parameter id="4063"  name="captions"/>
               </Parameters>
               <Effects>
                <GenericEffect id="4064" name = "AudioTransition" >
                 <Parameters>
                 <Parameter id="4065"   name="audioEdgeModType">
                  <Keyframes>
                  <Keyframe id="4066"  time="0/1" value="0" leadInLength="0/1"  />
                  </Keyframes>
                 </Parameter>
                 <Parameter id="4067"   name="audioTransitionType">
                  <Keyframes>
                  <Keyframe id="4068"  time="0/1" value="" leadInLength="0/1"  />
                  </Keyframes>
                 </Parameter>
                 </Parameters>
                 <MetaData>
                 </MetaData>
                </GenericEffect>
               </Effects>
               <Attributes>
                <Attribute id="4069" value="" name="ident"/>
                <Attribute id="4070" value="0" name="sampleRate"/>
                <Attribute id="4071" value="0" name="bitDepth"/>
                <Attribute id="4072" value="1" name="gain"/>
                <Attribute id="4073" value="0" name="mixToMono"/>
               </Attributes>
              </AudioTransition>
              <ImageTransition id="4074" start="30" duration="30" >
               <Transformer>
                <VectorParam id="4075"  name="translation">
                 <InterpolatingParam id="4076" interp="linr"  time="0/1" value="0" leadInLength="0/1"  />
                 <InterpolatingParam id="4077" interp="linr"  time="0/1" value="0" leadInLength="0/1"  />
                 <InterpolatingParam id="4078" interp="linr"  time="0/1" value="0" leadInLength="0/1"  />
                </VectorParam>
                <VectorParam id="4079"  name="rotation">
                 <InterpolatingParam id="4080" interp="linr"  time="0/1" value="0" leadInLength="0/1"  />
                 <InterpolatingParam id="4081" interp="linr"  time="0/1" value="0" leadInLength="0/1"  />
                 <InterpolatingParam id="4082" interp="linr"  time="0/1" value="0" leadInLength="0/1"  />
                </VectorParam>
                <VectorParam id="4083"  name="shear">
                 <InterpolatingParam id="4084" interp="linr"  time="0/1" value="0" leadInLength="0/1"  />
                 <InterpolatingParam id="4085" interp="linr"  time="0/1" value="0" leadInLength="0/1"  />
                 <InterpolatingParam id="4086" interp="linr"  time="0/1" value="0" leadInLength="0/1"  />
                </VectorParam>
                <VectorParam id="4087"  name="scale">
                 <InterpolatingParam id="4088" interp="linr"  time="0/1" value="1" leadInLength="0/1"  />
                 <InterpolatingParam id="4089" interp="linr"  time="0/1" value="1" leadInLength="0/1"  />
                 <InterpolatingParam id="4090" interp="linr"  time="0/1" value="1" leadInLength="0/1"  />
                </VectorParam>
                <VectorParam id="4091"  name="anchor">
                 <InterpolatingParam id="4092" interp="linr"  time="0/1" value="0" leadInLength="0/1"  />
                 <InterpolatingParam id="4093" interp="linr"  time="0/1" value="0" leadInLength="0/1"  />
                 <InterpolatingParam id="4094" interp="linr"  time="0/1" value="0" leadInLength="0/1"  />
                </VectorParam>
               </Transformer>
               <Parameters>
                <VectorParam id="4095"  name="sourceCrop">
                 <InterpolatingParam id="4096" interp="linr"  time="0/1" value="0" leadInLength="0/1"  />
                 <InterpolatingParam id="4097" interp="linr"  time="0/1" value="0" leadInLength="0/1"  />
                 <InterpolatingParam id="4098" interp="linr"  time="0/1" value="0" leadInLength="0/1"  />
                 <InterpolatingParam id="4099" interp="linr"  time="0/1" value="0" leadInLength="0/1"  />
                </VectorParam>
                <VectorParam id="4100"  name="geometryCrop">
                 <InterpolatingParam id="4101" interp="linr"  time="0/1" value="0" leadInLength="0/1"  />
                 <InterpolatingParam id="4102" interp="linr"  time="0/1" value="0" leadInLength="0/1"  />
                 <InterpolatingParam id="4103" interp="linr"  time="0/1" value="0" leadInLength="0/1"  />
                 <InterpolatingParam id="4104" interp="linr"  time="0/1" value="0" leadInLength="0/1"  />
                </VectorParam>
                <InterpolatingParam id="4105" interp="linr"  time="0/1" value="1" leadInLength="0/1"  name="opacity"/>
               </Parameters>
               <Effects>
                <GenericEffect id="4106" name = "VisualTransition" >
                 <Parameters>
                 <InterpolatingParam id="4107" interp="linr"  time="0/1" value="0.5" leadInLength="0/1"   name="leftFramePercentage"/>
                 <InterpolatingParam id="4108" interp="linr"  time="0/1" value="0.5" leadInLength="0/1"   name="rightFramePercentage"/>
                 <Parameter id="4109"   name="visualEdgeModType">
                  <Keyframes>
                  <Keyframe id="4110"  time="0/1" value="1" leadInLength="0/1"  />
                  </Keyframes>
                 </Parameter>
                 <Parameter id="4111"   name="visualTransitionType">
                  <Keyframes>
                  <Keyframe id="4112"  time="0/1" value="Fade" leadInLength="0/1"  />
                  </Keyframes>
                 </Parameter>
                 </Parameters>
                 <MetaData>
                 </MetaData>
                </GenericEffect>
               </Effects>
               <Attributes>
                <Attribute id="4113" value="" name="ident"/>
               </Attributes>
               <ExtraData>
                <Entry key="ZoomPanBin">
                 <ZoomPanBin id="4114"  >
                  <ZoomPanKeyframes>
                  </ZoomPanKeyframes>
                 </ZoomPanBin>
                </Entry>
               </ExtraData>
              </ImageTransition>
              <MetaData>
               <entry key="WinSubProjectDisplayName" val=""/>
              </MetaData>
             </UnifiedMedia>
             <Callout id="4115" start="60" duration="573" scalar="1/1" mediaStart="-90/1" mediaDuration="573/1" >
              <Transformer>
               <VectorParam id="4116"  name="translation">
                <InterpolatingParam id="4117" interp="linr"  time="-9999999/1" value="-17.55458486052018" leadInLength="0/1"  />
                <InterpolatingParam id="4118" interp="linr"  time="-9999999/1" value="206.03788685750811" leadInLength="0/1"  />
                <InterpolatingParam id="4119" interp="linr"  time="-9999999/1" value="0" leadInLength="0/1"  />
               </VectorParam>
               <VectorParam id="4120"  name="rotation">
                <InterpolatingParam id="4121" interp="linr"  time="-9999999/1" value="0" leadInLength="0/1"  />
                <InterpolatingParam id="4122" interp="linr"  time="-9999999/1" value="0" leadInLength="0/1"  />
                <InterpolatingParam id="4123" interp="linr"  time="-9999999/1" value="0" leadInLength="0/1"  />
               </VectorParam>
               <VectorParam id="4124"  name="shear">
                <InterpolatingParam id="4125" interp="linr"  time="-9999999/1" value="0" leadInLength="0/1"  />
                <InterpolatingParam id="4126" interp="linr"  time="-9999999/1" value="0" leadInLength="0/1"  />
                <InterpolatingParam id="4127" interp="linr"  time="-9999999/1" value="0" leadInLength="0/1"  />
               </VectorParam>
               <VectorParam id="4128"  name="scale">
                <InterpolatingParam id="4129" interp="linr"  time="-9999999/1" value="2.6083366666667009" leadInLength="0/1"  />
                <InterpolatingParam id="4130" interp="linr"  time="-9999999/1" value="1" leadInLength="0/1"  />
                <InterpolatingParam id="4131" interp="linr"  time="-9999999/1" value="1" leadInLength="0/1"  />
               </VectorParam>
               <VectorParam id="4132"  name="anchor">
                <InterpolatingParam id="4133" interp="linr"  time="0/1" value="0" leadInLength="0/1"  />
                <InterpolatingParam id="4134" interp="linr"  time="0/1" value="0" leadInLength="0/1"  />
                <InterpolatingParam id="4135" interp="linr"  time="0/1" value="0" leadInLength="0/1"  />
               </VectorParam>
              </Transformer>
              <Parameters>
               <VectorParam id="4136"  name="sourceCrop">
                <InterpolatingParam id="4137" interp="linr"  time="0/1" value="0" leadInLength="0/1"  />
                <InterpolatingParam id="4138" interp="linr"  time="0/1" value="0" leadInLength="0/1"  />
                <InterpolatingParam id="4139" interp="linr"  time="0/1" value="0" leadInLength="0/1"  />
                <InterpolatingParam id="4140" interp="linr"  time="0/1" value="0" leadInLength="0/1"  />
               </VectorParam>
               <VectorParam id="4141"  name="geometryCrop">
                <InterpolatingParam id="4142" interp="linr"  time="-9999999/1" value="0" leadInLength="0/1"  interpolater="leadin-eioe"  />
                <InterpolatingParam id="4143" interp="linr"  time="-9999999/1" value="0" leadInLength="0/1"  interpolater="leadin-eioe"  />
                <InterpolatingParam id="4144" interp="linr"  time="-9999999/1" value="0" leadInLength="0/1"  interpolater="leadin-eioe"  />
                <InterpolatingParam id="4145" interp="linr"  time="-9999999/1" value="0" leadInLength="0/1"  interpolater="leadin-eioe"  />
               </VectorParam>
               <InterpolatingParam id="4146" interp="linr"  time="-9999999/1" value="1" leadInLength="0/1"  name="opacity"/>
              </Parameters>
              <Attributes>
               <Attribute id="4147"  name="vectorNode">
                <VectorNode id="4148" kind="TypeWinText"  >
                 <DoubleParameters>
                  <InterpolatingParam id="4149" interp="linr"  time="0/1" value="5" leadInLength="0/1"  name="Style"/>
                  <InterpolatingParam id="4150" interp="linr"  time="0/1" value="320" leadInLength="0/1"  name="height"/>
                  <InterpolatingParam id="4151" interp="linr"  time="0/1" value="0" leadInLength="0/1"  name="textDropShadow"/>
                  <InterpolatingParam id="4152" interp="linr"  time="0/1" value="0" leadInLength="0/1"  name="textIgnoresOpacity"/>
                  <InterpolatingParam id="4153" interp="linr"  time="0/1" value="1" leadInLength="0/1"  name="textRectHeight"/>
                  <InterpolatingParam id="4154" interp="linr"  time="0/1" value="1" leadInLength="0/1"  name="textRectWidth"/>
                  <InterpolatingParam id="4155" interp="linr"  time="0/1" value="0" leadInLength="0/1"  name="textRectX"/>
                  <InterpolatingParam id="4156" interp="linr"  time="0/1" value="0" leadInLength="0/1"  name="textRectY"/>
                  <InterpolatingParam id="4157" interp="linr"  time="0/1" value="0" leadInLength="0/1"  name="textVerticalAlign"/>
                  <InterpolatingParam id="4158" interp="linr"  time="0/1" value="480" leadInLength="0/1"  name="width"/>
                 </DoubleParameters>
                 <StringParameters>
                  <Parameter id="4159"  name="filename">
                   <Keyframes>
                   <Keyframe id="4160"  time="0/1" value="C:\Program Files (x86)\TechSmith\Camtasia Studio 8\Media\Studio\Callouts\trans_100x100.xml" leadInLength="0/1"  />
                   </Keyframes>
                  </Parameter>
                  <Parameter id="4161"  name="name">
                   <Keyframes>
                   <Keyframe id="4162"  time="0/1" value="Text Callout" leadInLength="0/1"  />
                   </Keyframes>
                  </Parameter>
                  <Parameter id="4163"  name="text">
                   <Keyframes>
                   <Keyframe id="4164"  time="0/1" value="{\rtf1\ansi\ansicpg1252\deff0\deflang1033{\fonttbl{\f0\fswiss\fprq2\fcharset0 Impact;}}&#xD;&#xa;{\colortbl ;\red218\green182\blue1;}&#xD;&#xa;\viewkind4\uc1\pard\qc\cf1\f0\fs130 Complete guide to build IOT Things from scratch to market\par&#xD;&#xa;}&#xD;&#xa;" leadInLength="0/1"  />
                   </Keyframes>
                  </Parameter>
                  <Parameter id="4165"  name="xmlContent">
                   <Keyframes>
                   <Keyframe id="4166"  time="0/1" value="﻿&lt;?xml version=&quot;1.0&quot;?&gt;&#xa;&#xa;&lt;Overlay version=&quot;1.0.1&quot;&gt;&#xa;&#xa;&lt;Overlay_Filename&gt;trans_100x100.png&lt;/Overlay_Filename&gt;&#xa;&lt;Overlay_Name&gt;Text Callout&lt;/Overlay_Name&gt;&#xa;&lt;Overlay_XGrow&gt;0&lt;/Overlay_XGrow&gt;&#xa;&lt;Overlay_YGrow&gt;0&lt;/Overlay_YGrow&gt;&#xa;&lt;Text_Top&gt;0&lt;/Text_Top&gt;&#xa;&lt;Text_Left&gt;0&lt;/Text_Left&gt;&#xa;&lt;Text_Bottom&gt;0&lt;/Text_Bottom&gt;&#xa;&lt;Text_Right&gt;0&lt;/Text_Right&gt;&#xa;&lt;Vector_Grow&gt;0&lt;/Vector_Grow&gt;&#xa;&lt;CanRotate_90&gt;0&lt;/CanRotate_90&gt;&#xa;&lt;CanRotate_180&gt;0&lt;/CanRotate_180&gt;&#xa;&lt;CanRotate_270&gt;0&lt;/CanRotate_270&gt;&#xa;&lt;CanFlip_X&gt;0&lt;/CanFlip_X&gt;&#xa;&lt;CanFlip_X90&gt;0&lt;/CanFlip_X90&gt;&#xa;&lt;CanFlip_X180&gt;0&lt;/CanFlip_X180&gt;&#xa;&lt;CanFlip_X270&gt;0&lt;/CanFlip_X270&gt;&#xa;&lt;Fill_Color&gt;0&lt;/Fill_Color&gt;&#xa;&lt;Border_Color&gt;0&lt;/Border_Color&gt;&#xa;&lt;Style&gt;5&lt;/Style&gt;&#xa;&lt;/Overlay&gt;" leadInLength="0/1"  />
                   </Keyframes>
                  </Parameter>
                 </StringParameters>
                </VectorNode>
               </Attribute>
              </Attributes>
              <MetaData>
               <entry key="WinSubProjectDisplayName" val=""/>
              </MetaData>
              <LeftEdgeMods length="0/1" groupName="OpacityFade">
               <EdgeMod parameter="4146">
                <FadeInFunc id="3431"  />
               </EdgeMod>
              </LeftEdgeMods>
              <RightEdgeMods length="0/1" groupName="OpacityFade">
               <EdgeMod parameter="4146">
                <FadeOutFunc id="3432"  />
               </EdgeMod>
              </RightEdgeMods>
              <ExtraData>
               <Entry key="ZoomPanBin">
                <ZoomPanBin id="4167"  >
                 <ZoomPanKeyframes>
                  <ZoomPanKeyframe id="4168" timeRangeEnd="-9999999/1" timeRangeDuration="0/1" interpolaterName="linr"  />
                 </ZoomPanKeyframes>
                </ZoomPanBin>
               </Entry>
              </ExtraData>
             </Callout>
            </Medias>
           </GenericTrack>
          </Tracks>
         </GenericMixer>
         <MetaData>
          <entry key="IsGroupExpanded" val="False"/>
          <entry key="WinGroupOrigin" val="Asset"/>
          <entry key="WinSubProjectDisplayName" val="Animated Title"/>
         </MetaData>
         <ExtraData>
          <Entry key="ZoomPanBin">
           <ZoomPanBin id="4169"  >
            <ZoomPanKeyframes>
             <ZoomPanKeyframe id="4170" timeRangeEnd="-9999999/1" timeRangeDuration="0/1" interpolaterName="linr"  />
            </ZoomPanKeyframes>
           </ZoomPanBin>
          </Entry>
         </ExtraData>
        </Group>
        <StitchedMedia id="4171" start="822" duration="407" scalar="1/1" mediaStart="2022/1" mediaDuration="407/1" minMediaStart="0/1" >
         <Transformer>
          <VectorParam id="4172"  name="translation">
           <InterpolatingParam id="4173" interp="linr"  time="-9999999/1" value="550.6861021121648" leadInLength="0/1"  />
           <InterpolatingParam id="4174" interp="linr"  time="-9999999/1" value="-284.96433712274268" leadInLength="0/1"  />
           <InterpolatingParam id="4175" interp="linr"  time="-9999999/1" value="0" leadInLength="0/1"  />
          </VectorParam>
          <VectorParam id="4176"  name="rotation">
           <InterpolatingParam id="4177" interp="linr"  time="-9999999/1" value="0" leadInLength="0/1"  />
           <InterpolatingParam id="4178" interp="linr"  time="-9999999/1" value="0" leadInLength="0/1"  />
           <InterpolatingParam id="4179" interp="linr"  time="-9999999/1" value="0" leadInLength="0/1"  />
          </VectorParam>
          <VectorParam id="4180"  name="shear">
           <InterpolatingParam id="4181" interp="linr"  time="-9999999/1" value="0" leadInLength="0/1"  />
           <InterpolatingParam id="4182" interp="linr"  time="-9999999/1" value="0" leadInLength="0/1"  />
           <InterpolatingParam id="4183" interp="linr"  time="-9999999/1" value="0" leadInLength="0/1"  />
          </VectorParam>
          <VectorParam id="4184"  name="scale">
           <InterpolatingParam id="4185" interp="linr"  time="-9999999/1" value="0.4833689550663649" leadInLength="0/1"  />
           <InterpolatingParam id="4186" interp="linr"  time="-9999999/1" value="0.48336895506636463" leadInLength="0/1"  />
           <InterpolatingParam id="4187" interp="linr"  time="-9999999/1" value="1" leadInLength="0/1"  />
          </VectorParam>
          <VectorParam id="4188"  name="anchor">
           <InterpolatingParam id="4189" interp="linr"  time="0/1" value="0" leadInLength="0/1"  />
           <InterpolatingParam id="4190" interp="linr"  time="0/1" value="0" leadInLength="0/1"  />
           <InterpolatingParam id="4191" interp="linr"  time="0/1" value="0" leadInLength="0/1"  />
          </VectorParam>
         </Transformer>
         <Parameters>
          <VectorParam id="4192"  name="sourceCrop">
           <InterpolatingParam id="4193" interp="linr"  time="0/1" value="0" leadInLength="0/1"  />
           <InterpolatingParam id="4194" interp="linr"  time="0/1" value="0" leadInLength="0/1"  />
           <InterpolatingParam id="4195" interp="linr"  time="0/1" value="0" leadInLength="0/1"  />
           <InterpolatingParam id="4196" interp="linr"  time="0/1" value="0" leadInLength="0/1"  />
          </VectorParam>
          <VectorParam id="4197"  name="geometryCrop">
           <InterpolatingParam id="4198" interp="linr"  time="-9999999/1" value="117.05676243868615" leadInLength="0/1"  />
           <InterpolatingParam id="4199" interp="linr"  time="-9999999/1" value="20.182200420083603" leadInLength="0/1"  />
           <InterpolatingParam id="4200" interp="linr"  time="-9999999/1" value="52.473721093287622" leadInLength="0/1"  />
           <InterpolatingParam id="4201" interp="linr"  time="-9999999/1" value="84.765241766371901" leadInLength="0/1"  />
          </VectorParam>
          <InterpolatingParam id="4202" interp="linr"  time="-9999999/1" value="1" leadInLength="0/1"  name="opacity"/>
          <InterpolatingParam id="4203" interp="linr"  time="0/1" value="1" leadInLength="0/1"  name="cursorOpacity"/>
          <InterpolatingParam id="4204" interp="linr"  time="0/1" value="1" leadInLength="0/1"  name="cursorScale"/>
          <InterpolatingParam id="4205" interp="linr"  time="0/1" value="1" leadInLength="0/1"  name="volume"/>
          <Parameter id="4206"  name="captions"/>
         </Parameters>
         <Effects>
          <GenericEffect id="4207" name = "NoiseReduction" >
           <Parameters>
           <InterpolatingParam id="4208" interp="linr"  time="0/1" value="27.599999999999998" leadInLength="0/1"   name="denoiserAmount"/>
           <InterpolatingParam id="4209" interp="linr"  time="0/1" value="2.2799999999999994" leadInLength="0/1"   name="denoiserThreshold"/>
           <Parameter id="4210"   name="noiseProfile">
            <Keyframes>
            <Keyframe id="4211"  time="0/1" value="FBAAAAIAAABErAAAAQIAAIuAXcLAdUXCbhhQwkNiWMLGrkPCYbw9wi4HRMLyc0rC3rVLwvgvUMJy&#xD;&#xa;0VDCdNhPwsHtVcKAul7CQJJhwmbgaMLs42zCuXRzwhY0cMJuBm3CqOtswksGb8KlYGnClIdkwu1L&#xD;&#xa;Z8IxRmrCbghuwk/pc8JLP3DCTRtvwq15d8K+v3PCijJuwl/8csKvYXzCKR17wtxTcMLkkXHCgXV4&#xD;&#xa;wvi4fML8BoHCp51+wstvf8JdBYPCaOOBwhD7fsLQwn7CsjiCwh4xgsKxRYPC2PSEwoY4hcLtQ4bC&#xD;&#xa;OhaIwiC+hcLB6YTCfd+Gwt2hicK/mInCw+qHwl2TisJxBYzCDaGJwtK8iMLtFIrCd2uLwrenjMKI&#xD;&#xa;+o3CG8qQwnquj8KcLI/C4O+RwgNSk8Jws5LCDwOVwiS7lsIZ6JbCBtSWwgkvlsKHmpPC1hSTwkar&#xD;&#xa;ksIL7JXCmD6ZwsB0mMK8Y5nCuAaXwk9/lMJjjJXC1zGXwmvClcLrWJbCdN6YwkGvm8K3+ZzCasGa&#xD;&#xa;wtq8m8KwMKDCqv+gws5BnsINL5/CwDykwiSxpMLo76LCCtmhwmbfocIaTaPC2Jmjwi5OocI6/6HC&#xD;&#xa;38OlwhH8o8IkJKPCeRGkwg7ZpcJar6nCyU6pwnmuq8Il6qjCSuuowue/p8KnWKjCVTuqwsaqrcKF&#xD;&#xa;+q3CF6aswmq/rcLhnazCeGetwkXsrsJ/sq7CfAWswvY5q8KUXq7CgnutwsanrcIOlLDCvnyuwtzw&#xD;&#xa;q8JxPavCj+itwo5ErsJLhqzCJwauwlzkq8KfUazC4tqvwlOYs8Ks57HCzqCwwuCGr8Ihs6zCj1us&#xD;&#xa;wgyNrMKyT6/C1VKtwtmeq8IC4qvCNqCrwniFqsK+V6vCGCiswkQ8qsI9fKzCB4CwwnZirsIqEqzC&#xD;&#xa;uwauwmImrcKmLq/CrcqwwtLirsLqRrDCstmuwvbksMJim7LCagywwhzLssL6yLTCxj+zwnl9s8IP&#xD;&#xa;VrPCsE2ywhaPssLk4bXCPqSywrCFssL+xbTCNjy0wnbYtMJYR7fCGMS0wk9ZtMLdX7jCCj22wn8s&#xD;&#xa;s8IYFbXCumi2wvjUt8J9aLbCwOi0wmuitsJN8LTCFrG3wukwuMIcxbnC0D27wpqevML+zbvCZj67&#xD;&#xa;wrrAu8JyebrCeJW4wp7SuMISprrCfPK6wmhhusJpTbrCXVu8wvTmvMIQQb7Ckr+8wsgxu8LMPbzC&#xD;&#xa;jFy/wtD+wcKyb73Cane8woCOv8IGtMPCDqHBwkMwvcJ+GrvCkn6+wpU9wcKOQMDC0BzAwvi/vsLC&#xD;&#xa;nMDCeq3CwtkHwsK5pMLC4tXAwrZOwMJk1MHCMMa/wm6ivsKIXMDCrly+woAyvsIZLsDCwdDBwgZI&#xD;&#xa;w8IYS8LC8UXBwok+u8KAmLvCGjPAwvLavcJ5g8DClp/FwuyixMISscDCRkC+wkjnv8L988LCLcjB&#xD;&#xa;wmmLwMIFTMLC+mzCwnx3wsIIhcTC0ZvGwpZ/xcJO+7/CJP+/wkcBwcJAUcDCLLq8woigu8JQoMDC&#xD;&#xa;BxjCwmz0wMIobsTC3OHHwrrww8JilL/CVVK+wqNWwcKwtr/Cw3S/wlGBwMJyUL3CSny6wqQwu8Jf&#xD;&#xa;K7zC5sq/wm5dwcJhLb/CaOzAwr+jxcJE8cLCH6G+wpYTwcJglsTCvU7DwtaZxMJlp8TCGbbAwrqy&#xD;&#xa;wMJSa8XCpabHwjCMxMIgLMPCYnnBwhu4xcJsQMbClkLDwlwew8JkN8XCScjFwnCEwsIhPMPCFIHF&#xD;&#xa;wvTZxcLAcsLCLvfDwrTvwsLum8PCD6vCwkJlw8IMcMbCe17HwgouyMKPisXClnPGwsIXx8LNcMjC&#xD;&#xa;ws/Iwrgex8JrjcbCDhLGwlVcw8I0EcPC0t3DwnedxMKoMMTCatjFwgwhxsJ+2MXCirTGwvq+xsI7&#xD;&#xa;sc3C51DgwoYc68IIzevC2Hnqwnxb6sKYQO/CNivwwioS7MLYKOfC1s3mwrAV6MLSNeXCR5zlwoG6&#xD;&#xa;7MLOQ/HCp3buwtVD88ImyvXCgPn2wo0h98L38PXCuSP4wnw8+cLGbPfC2ID4wjTQ+cI8/vfCmPn4&#xD;&#xa;wrqT9sJGHPXCDvj2wiJW9sJ44fjCzr35woZH98LiR/fCrkz5wicY+MIEUvbC4jP5wqjG+sJgevvC&#xD;&#xa;vCz5woR29cI+mPXCBPL1wnza98LykvvCIOn4wsov98JgLPjCs/n1wsCn9cIA9/jChMf4wtQz+sIa&#xD;&#xa;y/vCst/6wuYE+cIYt/fCJTv2wlIJ98JccffCFiP3wgbi98I4x/jCosX3wkp59cIGIPfC6jP3wvb4&#xD;&#xa;+MKo7/jCljj4wpi1+cLQIfnCxmf2wmZQ98JYiPvCRJb4wpoU+cJSB/rCsDr5wszq+cLCWfvCYv35&#xD;&#xa;wrTH+MKgQfjC6EX2wo6P9sISHPbCggv3wuLg+MLvZ/fCYm30wtYh9sLP//TCPOHywqYY9cJYGPXC&#xD;&#xa;RH73wpw9+sJUwPnCQGf5wv75+MLWMPjCxJ/6wm7N+MKk+vbCjPz3wsi798IaUfrCtHv6wnaU+ML+&#xD;&#xa;7PfC6mb3wmwB9cIdTfjCTGL4wsJt98Jwg/bCruz1wqb99cLG//XCIHP1wsCJ98LMOPjC1IP4wmBL&#xD;&#xa;+cL0mfnC/IH1wmZL9cKgEPfCVJn5wtYO+MI9EfjCw0z3wjJj98LKYPnCiOj5wioy9sJGv/PCJp/3&#xD;&#xa;wmRX+MKUW/bCUPj2wqqB98IOEPfC9DT4wnZi+MJ+V/fCrAX4wgZ++MKGlvfCYjj3wjhC+cIM3vXC&#xD;&#xa;+r71wgYa+cIQSPrCZiMEw7aAXcL0dUXCbhhQwlRiWMKyrkPCbrw9wmIHRMJRdErCzbVLwsYuUMIH&#xD;&#xa;0FDCOdhPwtHtVcIoul7CoZFhwuDfaMJ+42zCaXNzwuEzcMJqBm3CtOlswpsEb8LxX2nCvYdkwqlM&#xD;&#xa;Z8J/RmrC2wduwpvpc8KFQHDClxtvwl94d8IjwHPC3jFuwkn8csKQYXzCRhx7wgtUcMJxkXHC5nN4&#xD;&#xa;wny3fMIZCIHCUp5+wnlwf8KpBIPCmOOBwgL+fsKIxX7CRDuCwhQygsLeRYPCmfOEwgs5hcI/RIbC&#xD;&#xa;5xeIwr6/hcKL6oTCA+GGwkuhicLDmYnCHu6HwmuVisJHB4zCJaOJwmfAiMJDGYrCw2+Lwq2pjMLO&#xD;&#xa;+Y3CLcyQwjWuj8JxKY/C6e6RwlJQk8J2rJLCKfuUwki0lsLk4ZbCl9GWwoQrlsLHlZPCQxCTws6p&#xD;&#xa;ksKj5JXC9zmZwgZxmMIEX5nCQwGXwu16lMIghZXCyS2Xwj/BlcKiWJbCHeKYwhyzm8J4/5zC2MSa&#xD;&#xa;wjW+m8JKKKDCEP+gwoRGnsLOMJ/CATykwqqzpMJG9KLCMNmhwovnocKwSqPCc5Sjwu1DocIT8qHC&#xD;&#xa;wMGlwlwCpMIQKKPC5xOkwlzfpcLlqqnCrEOpwmKqq8LA6qjC8POowvnQp8J2g6jCzIGqwiLyrcL9&#xD;&#xa;Nq7CLfWswjz6rcIevKzCK2KtwkO+rsItt67CjC6swrWIq8Juq67CQ4utwrLxrcLVA7HCPtGuwhYn&#xD;&#xa;rMJ2aavCI/Ctwp1VrsJhgazCkhKuwossrMLEjqzCqAewwm25s8J507HC1Fiwwiwxr8Lno6zCh1qs&#xD;&#xa;wuLArMIlgq/CX6utwsjjq8LAEqzCkyWswgzGqsIyXavCGSyswpJKqsIQkKzCnKSwwh17rsL9EazC&#xD;&#xa;lvatwpgwrcIXdK/CBf6wwjjlrsKOZLDCOuyuwvb9sMIHvbLCiF2wwoo0s8JNBLXC38izwsrrs8Kj&#xD;&#xa;tbPC+IWywtzwssIuKrbC07KywqxossJmubTC/1q0whj5tMIbYrfCju60wvYgtMIMnbjCjwa3whz8&#xD;&#xa;s8LPSbXCDZG2wob8t8JgT7bCxCq1wo4Kt8KDQrXC4Dm4wiSfuMIAL7rCupC7wkZMvcLaiLzCRma7&#xD;&#xa;woYqvMIAGrvCYuq4wmYDucKWrbrCxmu7woXxusIV5LrCHgu9wrDdvcJOoL7CGhy9wpxWu8LE37zC&#xD;&#xa;v6HAwvYjw8JG8b3C2hu9wiOGv8KR9MPC7N7Bwl7FvcLcYLvCiMK+wlxYwcJ7k7/CjBbAwmhovsLG&#xD;&#xa;TsDCr4zCwuw/wsJO+MLCAivBwhY6wMK2ysHC4Pm/wpgIv8JiZsDCPqK+wn2zvsLuXMDCnavBwuBJ&#xD;&#xa;w8JAN8LC5AnBwk0/u8JCq7vCum3AwhAfvsLZlMDC6pLFwnSzxMLOm8DCtiq+wmDQv8Kc2cLCorLB&#xD;&#xa;wuI+wMKl8sHCzkjCwn52wsKOtMTCXLTGwu6bxcJ27r/CviHAwgz2wMIAPsDCDM68wkq/u8Jds8DC&#xD;&#xa;viTCwpIMwcIkWMTC5vXHwvfUw8Lqd7/CIx2+wtR0wcIImL/CviO/wp5PwMI2YL3CxHe6wiIHu8IU&#xD;&#xa;+7vC7rW/woitwcKYL7/CIsfAwuWixcLUzsLCV2S+wsj3wMKIecTC0F3DwubLxMI80sTCaMrAwmSZ&#xD;&#xa;wMKgcMXCnKjHwkB5xML0LsPCLK/BwjvrxcKkWsbCFnjDwqASw8I2C8XCjH7FwhBJwsKgYcPCXoXF&#xD;&#xa;wlT1xcIUk8LC4j7EwmxJw8LzocPCrMrCwpRfw8LWPcbCkzLHwgAbyMLepsXCpJDGwjgQx8JtMMjC&#xD;&#xa;6HXIwk4dx8Ke1MbCgUXGwq4tw8Iw5sLCDaDDws58xMJdCMTCzMvFwiwkxsLExsXCBsHGwhu8xsJq&#xD;&#xa;v83C60zgwlD+6sKt7OrCLqDqwpEh6cLU+ezCssHxwpGl7sIgJunCFGHnwtq46MLCz+XCToHmwl69&#xD;&#xa;7cK8y/TCALDwwhiA8sJwWvjCtj35wvSt+cLk0vfCSOv0wtVr9sI3EPfCRPX1wqIT98IPwPfC4Mr4&#xD;&#xa;wqDn+MI+EfjCduj3wjg298JhyPbCfPv2wrK79sIK0/XCoZ/1woeg9cIGVPbCnt32wqzT98K4UPnC&#xD;&#xa;CFD5whwF+cK8hfjChNn5wgqP+sKk+/fCNnD1wiVL98LeufrCSDb7wvpD+cKqovbCAu/2wqqj+MKM&#xD;&#xa;ZvnCOrn3wvzn9cL0FffCowf3wjxy88IinfXCiCr6wnhI+cI8OfbCLl74wpSJ+sK+PvnC6mv5wphm&#xD;&#xa;+MJOYPbC6JD1whjU98IkjPfCMFn4wiwz+cIKpfnC2oX8wjhp/MJqDvjCrtz2whCq+cJeAffCCFP4&#xD;&#xa;wnT9+8Jk3f3CrNH7wjKn9sL6hvTCuOz2wiCt+sLmnPjCWpD3wprB+MJagvfC7jL3wkCm+MKwu/nC&#xD;&#xa;NI73wv55+MIIjPrCtY/3wmy09sKqLPbCcnL1woAi98IMMfnCfC36wvjt+cKUavrChuT5wk47+cJy&#xD;&#xa;xvnCpmb5wkBo+sKSkvjC6sb0whBy9cIEt/bCger3whpB98JIWvTCPEv2wqSF+cLwifvCBh36wr64&#xD;&#xa;+sLQ2/vC6J35wiwb+MKkqPjCG973wpyR98LujffCx7L2woR/9cLuvfXCkCD0wjv49sK2gPvCft74&#xD;&#xa;wg4O98ILIffCbnD2wld89cLM8vbChRX4wrwP+cJaMfjCSLT3wmLH+MJspfXCypv1wpUG98LVNPbC&#xD;&#xa;AgX2wk4k+cI63fXCC0UA" leadInLength="0/1"  />
            </Keyframes>
           </Parameter>
           </Parameters>
           <MetaData>
            <entry key="effectIndex" val="0"/>
           </MetaData>
          </GenericEffect>
         </Effects>
         <Attributes>
          <Attribute id="4212" value="" name="ident"/>
          <Attribute id="4213" value="0" name="mixToMono"/>
         </Attributes>
         <MetaData>
          <entry key="WinSubProjectDisplayName" val=""/>
         </MetaData>
         <ExtraData>
          <Entry key="ZoomPanBin">
           <ZoomPanBin id="4214"  >
            <ZoomPanKeyframes>
             <ZoomPanKeyframe id="4215" timeRangeEnd="-9999999/1" timeRangeDuration="0/1" interpolaterName="linr"  />
            </ZoomPanKeyframes>
           </ZoomPanBin>
          </Entry>
          <Entry key="CursorEffectBin">
           <CursorEffectBin id="4216"  >
            <CursorEffectKeyframes>
            </CursorEffectKeyframes>
           </CursorEffectBin>
          </Entry>
         </ExtraData>
         <GenericTrack id="4217"  >
          <Attributes>
           <Attribute id="4218" value="" name="ident"/>
           <Attribute id="4219" value="0" name="audioMuted"/>
           <Attribute id="4220" value="0" name="videoHidden"/>
          </Attributes>
          <MetaData>
           <entry key="IsLocked" val="False"/>
           <entry key="WinTrackHeight" val="0"/>
          </MetaData>
          <Medias>
           <UnifiedMedia id="4221"  >
            <AMFile id="4222" start="0" duration="849" scalar="1/1" mediaStart="0/1" mediaDuration="849/1" trackNumber="2" src="5" channelNumber="0,1" >
             <Parameters>
              <InterpolatingParam id="4223" interp="linr"  time="0/1" value="1" leadInLength="0/1"  name="volume"/>
              <Parameter id="4224"  name="captions"/>
             </Parameters>
             <Attributes>
              <Attribute id="4225" value="" name="ident"/>
              <Attribute id="4226" value="44100" name="sampleRate"/>
              <Attribute id="4227" value="16" name="bitDepth"/>
              <Attribute id="4228" value="1" name="gain"/>
              <Attribute id="4229" value="0" name="mixToMono"/>
             </Attributes>
            </AMFile>
            <VMFile id="4230" start="0" duration="849" scalar="1/1" mediaStart="0/1" mediaDuration="849/1" trackNumber="1" src="5" >
             <Transformer>
              <VectorParam id="4231"  name="translation">
               <InterpolatingParam id="4232" interp="linr"  time="-9999999/1" value="0" leadInLength="0/1"  />
               <InterpolatingParam id="4233" interp="linr"  time="-9999999/1" value="0" leadInLength="0/1"  />
               <InterpolatingParam id="4234" interp="linr"  time="-9999999/1" value="0" leadInLength="0/1"  />
              </VectorParam>
              <VectorParam id="4235"  name="rotation">
               <InterpolatingParam id="4236" interp="linr"  time="-9999999/1" value="0" leadInLength="0/1"  />
               <InterpolatingParam id="4237" interp="linr"  time="-9999999/1" value="0" leadInLength="0/1"  />
               <InterpolatingParam id="4238" interp="linr"  time="-9999999/1" value="0" leadInLength="0/1"  />
              </VectorParam>
              <VectorParam id="4239"  name="shear">
               <InterpolatingParam id="4240" interp="linr"  time="-9999999/1" value="0" leadInLength="0/1"  />
               <InterpolatingParam id="4241" interp="linr"  time="-9999999/1" value="0" leadInLength="0/1"  />
               <InterpolatingParam id="4242" interp="linr"  time="-9999999/1" value="0" leadInLength="0/1"  />
              </VectorParam>
              <VectorParam id="4243"  name="scale">
               <InterpolatingParam id="4244" interp="linr"  time="-9999999/1" value="1" leadInLength="0/1"  />
               <InterpolatingParam id="4245" interp="linr"  time="-9999999/1" value="1" leadInLength="0/1"  />
               <InterpolatingParam id="4246" interp="linr"  time="-9999999/1" value="1" leadInLength="0/1"  />
              </VectorParam>
              <VectorParam id="4247"  name="anchor">
               <InterpolatingParam id="4248" interp="linr"  time="0/1" value="0" leadInLength="0/1"  />
               <InterpolatingParam id="4249" interp="linr"  time="0/1" value="0" leadInLength="0/1"  />
               <InterpolatingParam id="4250" interp="linr"  time="0/1" value="0" leadInLength="0/1"  />
              </VectorParam>
             </Transformer>
             <Parameters>
              <VectorParam id="4251"  name="sourceCrop">
               <InterpolatingParam id="4252" interp="linr"  time="0/1" value="0" leadInLength="0/1"  />
               <InterpolatingParam id="4253" interp="linr"  time="0/1" value="0" leadInLength="0/1"  />
               <InterpolatingParam id="4254" interp="linr"  time="0/1" value="0" leadInLength="0/1"  />
               <InterpolatingParam id="4255" interp="linr"  time="0/1" value="0" leadInLength="0/1"  />
              </VectorParam>
              <VectorParam id="4256"  name="geometryCrop">
               <InterpolatingParam id="4257" interp="linr"  time="-9999999/1" value="0" leadInLength="0/1"  />
               <InterpolatingParam id="4258" interp="linr"  time="-9999999/1" value="0" leadInLength="0/1"  />
               <InterpolatingParam id="4259" interp="linr"  time="-9999999/1" value="0" leadInLength="0/1"  />
               <InterpolatingParam id="4260" interp="linr"  time="-9999999/1" value="0" leadInLength="0/1"  />
              </VectorParam>
              <InterpolatingParam id="4261" interp="linr"  time="-9999999/1" value="1" leadInLength="0/1"  name="opacity"/>
             </Parameters>
             <Attributes>
              <Attribute id="4262" value="" name="ident"/>
             </Attributes>
             <ExtraData>
              <Entry key="ZoomPanBin">
               <ZoomPanBin id="4263"  >
                <ZoomPanKeyframes>
                 <ZoomPanKeyframe id="4264" timeRangeEnd="-9999999/1" timeRangeDuration="0/1" interpolaterName="linr"  />
                </ZoomPanKeyframes>
               </ZoomPanBin>
              </Entry>
             </ExtraData>
            </VMFile>
            <MetaData>
             <entry key="WinSubProjectDisplayName" val=""/>
            </MetaData>
           </UnifiedMedia>
           <UnifiedMedia id="4265"  >
            <AMFile id="4266" start="849" duration="102" scalar="1/1" mediaStart="855/1" mediaDuration="102/1" trackNumber="2" src="5" channelNumber="0,1" >
             <Parameters>
              <InterpolatingParam id="4267" interp="linr"  time="0/1" value="1" leadInLength="0/1"  name="volume"/>
              <Parameter id="4268"  name="captions"/>
             </Parameters>
             <Attributes>
              <Attribute id="4269" value="" name="ident"/>
              <Attribute id="4270" value="44100" name="sampleRate"/>
              <Attribute id="4271" value="16" name="bitDepth"/>
              <Attribute id="4272" value="1" name="gain"/>
              <Attribute id="4273" value="0" name="mixToMono"/>
             </Attributes>
            </AMFile>
            <VMFile id="4274" start="849" duration="102" scalar="1/1" mediaStart="855/1" mediaDuration="102/1" trackNumber="1" src="5" >
             <Transformer>
              <VectorParam id="4275"  name="translation">
               <InterpolatingParam id="4276" interp="linr"  time="-9999999/1" value="0" leadInLength="0/1"  />
               <InterpolatingParam id="4277" interp="linr"  time="-9999999/1" value="0" leadInLength="0/1"  />
               <InterpolatingParam id="4278" interp="linr"  time="-9999999/1" value="0" leadInLength="0/1"  />
              </VectorParam>
              <VectorParam id="4279"  name="rotation">
               <InterpolatingParam id="4280" interp="linr"  time="-9999999/1" value="0" leadInLength="0/1"  />
               <InterpolatingParam id="4281" interp="linr"  time="-9999999/1" value="0" leadInLength="0/1"  />
               <InterpolatingParam id="4282" interp="linr"  time="-9999999/1" value="0" leadInLength="0/1"  />
              </VectorParam>
              <VectorParam id="4283"  name="shear">
               <InterpolatingParam id="4284" interp="linr"  time="-9999999/1" value="0" leadInLength="0/1"  />
               <InterpolatingParam id="4285" interp="linr"  time="-9999999/1" value="0" leadInLength="0/1"  />
               <InterpolatingParam id="4286" interp="linr"  time="-9999999/1" value="0" leadInLength="0/1"  />
              </VectorParam>
              <VectorParam id="4287"  name="scale">
               <InterpolatingParam id="4288" interp="linr"  time="-9999999/1" value="1" leadInLength="0/1"  />
               <InterpolatingParam id="4289" interp="linr"  time="-9999999/1" value="1" leadInLength="0/1"  />
               <InterpolatingParam id="4290" interp="linr"  time="-9999999/1" value="1" leadInLength="0/1"  />
              </VectorParam>
              <VectorParam id="4291"  name="anchor">
               <InterpolatingParam id="4292" interp="linr"  time="0/1" value="0" leadInLength="0/1"  />
               <InterpolatingParam id="4293" interp="linr"  time="0/1" value="0" leadInLength="0/1"  />
               <InterpolatingParam id="4294" interp="linr"  time="0/1" value="0" leadInLength="0/1"  />
              </VectorParam>
             </Transformer>
             <Parameters>
              <VectorParam id="4295"  name="sourceCrop">
               <InterpolatingParam id="4296" interp="linr"  time="0/1" value="0" leadInLength="0/1"  />
               <InterpolatingParam id="4297" interp="linr"  time="0/1" value="0" leadInLength="0/1"  />
               <InterpolatingParam id="4298" interp="linr"  time="0/1" value="0" leadInLength="0/1"  />
               <InterpolatingParam id="4299" interp="linr"  time="0/1" value="0" leadInLength="0/1"  />
              </VectorParam>
              <VectorParam id="4300"  name="geometryCrop">
               <InterpolatingParam id="4301" interp="linr"  time="-9999999/1" value="0" leadInLength="0/1"  />
               <InterpolatingParam id="4302" interp="linr"  time="-9999999/1" value="0" leadInLength="0/1"  />
               <InterpolatingParam id="4303" interp="linr"  time="-9999999/1" value="0" leadInLength="0/1"  />
               <InterpolatingParam id="4304" interp="linr"  time="-9999999/1" value="0" leadInLength="0/1"  />
              </VectorParam>
              <InterpolatingParam id="4305" interp="linr"  time="-9999999/1" value="1" leadInLength="0/1"  name="opacity"/>
             </Parameters>
             <Attributes>
              <Attribute id="4306" value="" name="ident"/>
             </Attributes>
             <ExtraData>
              <Entry key="ZoomPanBin">
               <ZoomPanBin id="4307"  >
                <ZoomPanKeyframes>
                 <ZoomPanKeyframe id="4308" timeRangeEnd="-9999999/1" timeRangeDuration="0/1" interpolaterName="linr"  />
                </ZoomPanKeyframes>
               </ZoomPanBin>
              </Entry>
             </ExtraData>
            </VMFile>
            <MetaData>
             <entry key="WinSubProjectDisplayName" val=""/>
            </MetaData>
           </UnifiedMedia>
           <UnifiedMedia id="4309"  >
            <AMFile id="4310" start="951" duration="555" scalar="1/1" mediaStart="1925/1" mediaDuration="555/1" trackNumber="2" src="5" channelNumber="0,1" >
             <Parameters>
              <InterpolatingParam id="4311" interp="linr"  time="0/1" value="1" leadInLength="0/1"  name="volume"/>
              <Parameter id="4312"  name="captions"/>
             </Parameters>
             <Attributes>
              <Attribute id="4313" value="" name="ident"/>
              <Attribute id="4314" value="44100" name="sampleRate"/>
              <Attribute id="4315" value="16" name="bitDepth"/>
              <Attribute id="4316" value="1" name="gain"/>
              <Attribute id="4317" value="0" name="mixToMono"/>
             </Attributes>
            </AMFile>
            <VMFile id="4318" start="951" duration="555" scalar="1/1" mediaStart="1925/1" mediaDuration="555/1" trackNumber="1" src="5" >
             <Transformer>
              <VectorParam id="4319"  name="translation">
               <InterpolatingParam id="4320" interp="linr"  time="-9999999/1" value="0" leadInLength="0/1"  />
               <InterpolatingParam id="4321" interp="linr"  time="-9999999/1" value="0" leadInLength="0/1"  />
               <InterpolatingParam id="4322" interp="linr"  time="-9999999/1" value="0" leadInLength="0/1"  />
              </VectorParam>
              <VectorParam id="4323"  name="rotation">
               <InterpolatingParam id="4324" interp="linr"  time="-9999999/1" value="0" leadInLength="0/1"  />
               <InterpolatingParam id="4325" interp="linr"  time="-9999999/1" value="0" leadInLength="0/1"  />
               <InterpolatingParam id="4326" interp="linr"  time="-9999999/1" value="0" leadInLength="0/1"  />
              </VectorParam>
              <VectorParam id="4327"  name="shear">
               <InterpolatingParam id="4328" interp="linr"  time="-9999999/1" value="0" leadInLength="0/1"  />
               <InterpolatingParam id="4329" interp="linr"  time="-9999999/1" value="0" leadInLength="0/1"  />
               <InterpolatingParam id="4330" interp="linr"  time="-9999999/1" value="0" leadInLength="0/1"  />
              </VectorParam>
              <VectorParam id="4331"  name="scale">
               <InterpolatingParam id="4332" interp="linr"  time="-9999999/1" value="1" leadInLength="0/1"  />
               <InterpolatingParam id="4333" interp="linr"  time="-9999999/1" value="1" leadInLength="0/1"  />
               <InterpolatingParam id="4334" interp="linr"  time="-9999999/1" value="1" leadInLength="0/1"  />
              </VectorParam>
              <VectorParam id="4335"  name="anchor">
               <InterpolatingParam id="4336" interp="linr"  time="0/1" value="0" leadInLength="0/1"  />
               <InterpolatingParam id="4337" interp="linr"  time="0/1" value="0" leadInLength="0/1"  />
               <InterpolatingParam id="4338" interp="linr"  time="0/1" value="0" leadInLength="0/1"  />
              </VectorParam>
             </Transformer>
             <Parameters>
              <VectorParam id="4339"  name="sourceCrop">
               <InterpolatingParam id="4340" interp="linr"  time="0/1" value="0" leadInLength="0/1"  />
               <InterpolatingParam id="4341" interp="linr"  time="0/1" value="0" leadInLength="0/1"  />
               <InterpolatingParam id="4342" interp="linr"  time="0/1" value="0" leadInLength="0/1"  />
               <InterpolatingParam id="4343" interp="linr"  time="0/1" value="0" leadInLength="0/1"  />
              </VectorParam>
              <VectorParam id="4344"  name="geometryCrop">
               <InterpolatingParam id="4345" interp="linr"  time="-9999999/1" value="0" leadInLength="0/1"  />
               <InterpolatingParam id="4346" interp="linr"  time="-9999999/1" value="0" leadInLength="0/1"  />
               <InterpolatingParam id="4347" interp="linr"  time="-9999999/1" value="0" leadInLength="0/1"  />
               <InterpolatingParam id="4348" interp="linr"  time="-9999999/1" value="0" leadInLength="0/1"  />
              </VectorParam>
              <InterpolatingParam id="4349" interp="linr"  time="-9999999/1" value="1" leadInLength="0/1"  name="opacity"/>
             </Parameters>
             <Attributes>
              <Attribute id="4350" value="" name="ident"/>
             </Attributes>
             <ExtraData>
              <Entry key="ZoomPanBin">
               <ZoomPanBin id="4351"  >
                <ZoomPanKeyframes>
                 <ZoomPanKeyframe id="4352" timeRangeEnd="-9999999/1" timeRangeDuration="0/1" interpolaterName="linr"  />
                </ZoomPanKeyframes>
               </ZoomPanBin>
              </Entry>
             </ExtraData>
            </VMFile>
            <MetaData>
             <entry key="WinSubProjectDisplayName" val=""/>
            </MetaData>
           </UnifiedMedia>
           <UnifiedMedia id="4353"  >
            <AMFile id="4354" start="1506" duration="339" scalar="1/1" mediaStart="6640/1" mediaDuration="339/1" trackNumber="2" src="5" channelNumber="0,1" >
             <Parameters>
              <InterpolatingParam id="4355" interp="linr"  time="0/1" value="1" leadInLength="0/1"  name="volume"/>
              <Parameter id="4356"  name="captions"/>
             </Parameters>
             <Attributes>
              <Attribute id="4357" value="" name="ident"/>
              <Attribute id="4358" value="44100" name="sampleRate"/>
              <Attribute id="4359" value="16" name="bitDepth"/>
              <Attribute id="4360" value="1" name="gain"/>
              <Attribute id="4361" value="0" name="mixToMono"/>
             </Attributes>
            </AMFile>
            <VMFile id="4362" start="1506" duration="339" scalar="1/1" mediaStart="6640/1" mediaDuration="339/1" trackNumber="1" src="5" >
             <Transformer>
              <VectorParam id="4363"  name="translation">
               <InterpolatingParam id="4364" interp="linr"  time="-9999999/1" value="0" leadInLength="0/1"  />
               <InterpolatingParam id="4365" interp="linr"  time="-9999999/1" value="0" leadInLength="0/1"  />
               <InterpolatingParam id="4366" interp="linr"  time="-9999999/1" value="0" leadInLength="0/1"  />
              </VectorParam>
              <VectorParam id="4367"  name="rotation">
               <InterpolatingParam id="4368" interp="linr"  time="-9999999/1" value="0" leadInLength="0/1"  />
               <InterpolatingParam id="4369" interp="linr"  time="-9999999/1" value="0" leadInLength="0/1"  />
               <InterpolatingParam id="4370" interp="linr"  time="-9999999/1" value="0" leadInLength="0/1"  />
              </VectorParam>
              <VectorParam id="4371"  name="shear">
               <InterpolatingParam id="4372" interp="linr"  time="-9999999/1" value="0" leadInLength="0/1"  />
               <InterpolatingParam id="4373" interp="linr"  time="-9999999/1" value="0" leadInLength="0/1"  />
               <InterpolatingParam id="4374" interp="linr"  time="-9999999/1" value="0" leadInLength="0/1"  />
              </VectorParam>
              <VectorParam id="4375"  name="scale">
               <InterpolatingParam id="4376" interp="linr"  time="-9999999/1" value="1" leadInLength="0/1"  />
               <InterpolatingParam id="4377" interp="linr"  time="-9999999/1" value="1" leadInLength="0/1"  />
               <InterpolatingParam id="4378" interp="linr"  time="-9999999/1" value="1" leadInLength="0/1"  />
              </VectorParam>
              <VectorParam id="4379"  name="anchor">
               <InterpolatingParam id="4380" interp="linr"  time="0/1" value="0" leadInLength="0/1"  />
               <InterpolatingParam id="4381" interp="linr"  time="0/1" value="0" leadInLength="0/1"  />
               <InterpolatingParam id="4382" interp="linr"  time="0/1" value="0" leadInLength="0/1"  />
              </VectorParam>
             </Transformer>
             <Parameters>
              <VectorParam id="4383"  name="sourceCrop">
               <InterpolatingParam id="4384" interp="linr"  time="0/1" value="0" leadInLength="0/1"  />
               <InterpolatingParam id="4385" interp="linr"  time="0/1" value="0" leadInLength="0/1"  />
               <InterpolatingParam id="4386" interp="linr"  time="0/1" value="0" leadInLength="0/1"  />
               <InterpolatingParam id="4387" interp="linr"  time="0/1" value="0" leadInLength="0/1"  />
              </VectorParam>
              <VectorParam id="4388"  name="geometryCrop">
               <InterpolatingParam id="4389" interp="linr"  time="-9999999/1" value="0" leadInLength="0/1"  />
               <InterpolatingParam id="4390" interp="linr"  time="-9999999/1" value="0" leadInLength="0/1"  />
               <InterpolatingParam id="4391" interp="linr"  time="-9999999/1" value="0" leadInLength="0/1"  />
               <InterpolatingParam id="4392" interp="linr"  time="-9999999/1" value="0" leadInLength="0/1"  />
              </VectorParam>
              <InterpolatingParam id="4393" interp="linr"  time="-9999999/1" value="1" leadInLength="0/1"  name="opacity"/>
             </Parameters>
             <Attributes>
              <Attribute id="4394" value="" name="ident"/>
             </Attributes>
             <ExtraData>
              <Entry key="ZoomPanBin">
               <ZoomPanBin id="4395"  >
                <ZoomPanKeyframes>
                 <ZoomPanKeyframe id="4396" timeRangeEnd="-9999999/1" timeRangeDuration="0/1" interpolaterName="linr"  />
                </ZoomPanKeyframes>
               </ZoomPanBin>
              </Entry>
             </ExtraData>
            </VMFile>
            <MetaData>
             <entry key="WinSubProjectDisplayName" val=""/>
            </MetaData>
           </UnifiedMedia>
           <UnifiedMedia id="4397"  >
            <AMFile id="4398" start="1845" duration="97" scalar="1/1" mediaStart="7028/1" mediaDuration="97/1" trackNumber="2" src="5" channelNumber="0,1" >
             <Parameters>
              <InterpolatingParam id="4399" interp="linr"  time="0/1" value="1" leadInLength="0/1"  name="volume"/>
              <Parameter id="4400"  name="captions"/>
             </Parameters>
             <Attributes>
              <Attribute id="4401" value="" name="ident"/>
              <Attribute id="4402" value="44100" name="sampleRate"/>
              <Attribute id="4403" value="16" name="bitDepth"/>
              <Attribute id="4404" value="1" name="gain"/>
              <Attribute id="4405" value="0" name="mixToMono"/>
             </Attributes>
            </AMFile>
            <VMFile id="4406" start="1845" duration="97" scalar="1/1" mediaStart="7028/1" mediaDuration="97/1" trackNumber="1" src="5" >
             <Transformer>
              <VectorParam id="4407"  name="translation">
               <InterpolatingParam id="4408" interp="linr"  time="-9999999/1" value="0" leadInLength="0/1"  />
               <InterpolatingParam id="4409" interp="linr"  time="-9999999/1" value="0" leadInLength="0/1"  />
               <InterpolatingParam id="4410" interp="linr"  time="-9999999/1" value="0" leadInLength="0/1"  />
              </VectorParam>
              <VectorParam id="4411"  name="rotation">
               <InterpolatingParam id="4412" interp="linr"  time="-9999999/1" value="0" leadInLength="0/1"  />
               <InterpolatingParam id="4413" interp="linr"  time="-9999999/1" value="0" leadInLength="0/1"  />
               <InterpolatingParam id="4414" interp="linr"  time="-9999999/1" value="0" leadInLength="0/1"  />
              </VectorParam>
              <VectorParam id="4415"  name="shear">
               <InterpolatingParam id="4416" interp="linr"  time="-9999999/1" value="0" leadInLength="0/1"  />
               <InterpolatingParam id="4417" interp="linr"  time="-9999999/1" value="0" leadInLength="0/1"  />
               <InterpolatingParam id="4418" interp="linr"  time="-9999999/1" value="0" leadInLength="0/1"  />
              </VectorParam>
              <VectorParam id="4419"  name="scale">
               <InterpolatingParam id="4420" interp="linr"  time="-9999999/1" value="1" leadInLength="0/1"  />
               <InterpolatingParam id="4421" interp="linr"  time="-9999999/1" value="1" leadInLength="0/1"  />
               <InterpolatingParam id="4422" interp="linr"  time="-9999999/1" value="1" leadInLength="0/1"  />
              </VectorParam>
              <VectorParam id="4423"  name="anchor">
               <InterpolatingParam id="4424" interp="linr"  time="0/1" value="0" leadInLength="0/1"  />
               <InterpolatingParam id="4425" interp="linr"  time="0/1" value="0" leadInLength="0/1"  />
               <InterpolatingParam id="4426" interp="linr"  time="0/1" value="0" leadInLength="0/1"  />
              </VectorParam>
             </Transformer>
             <Parameters>
              <VectorParam id="4427"  name="sourceCrop">
               <InterpolatingParam id="4428" interp="linr"  time="0/1" value="0" leadInLength="0/1"  />
               <InterpolatingParam id="4429" interp="linr"  time="0/1" value="0" leadInLength="0/1"  />
               <InterpolatingParam id="4430" interp="linr"  time="0/1" value="0" leadInLength="0/1"  />
               <InterpolatingParam id="4431" interp="linr"  time="0/1" value="0" leadInLength="0/1"  />
              </VectorParam>
              <VectorParam id="4432"  name="geometryCrop">
               <InterpolatingParam id="4433" interp="linr"  time="-9999999/1" value="0" leadInLength="0/1"  />
               <InterpolatingParam id="4434" interp="linr"  time="-9999999/1" value="0" leadInLength="0/1"  />
               <InterpolatingParam id="4435" interp="linr"  time="-9999999/1" value="0" leadInLength="0/1"  />
               <InterpolatingParam id="4436" interp="linr"  time="-9999999/1" value="0" leadInLength="0/1"  />
              </VectorParam>
              <InterpolatingParam id="4437" interp="linr"  time="-9999999/1" value="1" leadInLength="0/1"  name="opacity"/>
             </Parameters>
             <Attributes>
              <Attribute id="4438" value="" name="ident"/>
             </Attributes>
             <ExtraData>
              <Entry key="ZoomPanBin">
               <ZoomPanBin id="4439"  >
                <ZoomPanKeyframes>
                 <ZoomPanKeyframe id="4440" timeRangeEnd="-9999999/1" timeRangeDuration="0/1" interpolaterName="linr"  />
                </ZoomPanKeyframes>
               </ZoomPanBin>
              </Entry>
             </ExtraData>
            </VMFile>
            <MetaData>
             <entry key="WinSubProjectDisplayName" val=""/>
            </MetaData>
           </UnifiedMedia>
           <UnifiedMedia id="4441"  >
            <AMFile id="4442" start="1942" duration="135" scalar="1/1" mediaStart="7173/1" mediaDuration="135/1" trackNumber="2" src="5" channelNumber="0,1" >
             <Parameters>
              <InterpolatingParam id="4443" interp="linr"  time="0/1" value="1" leadInLength="0/1"  name="volume"/>
              <Parameter id="4444"  name="captions"/>
             </Parameters>
             <Attributes>
              <Attribute id="4445" value="" name="ident"/>
              <Attribute id="4446" value="44100" name="sampleRate"/>
              <Attribute id="4447" value="16" name="bitDepth"/>
              <Attribute id="4448" value="1" name="gain"/>
              <Attribute id="4449" value="0" name="mixToMono"/>
             </Attributes>
            </AMFile>
            <VMFile id="4450" start="1942" duration="135" scalar="1/1" mediaStart="7173/1" mediaDuration="135/1" trackNumber="1" src="5" >
             <Transformer>
              <VectorParam id="4451"  name="translation">
               <InterpolatingParam id="4452" interp="linr"  time="-9999999/1" value="0" leadInLength="0/1"  />
               <InterpolatingParam id="4453" interp="linr"  time="-9999999/1" value="0" leadInLength="0/1"  />
               <InterpolatingParam id="4454" interp="linr"  time="-9999999/1" value="0" leadInLength="0/1"  />
              </VectorParam>
              <VectorParam id="4455"  name="rotation">
               <InterpolatingParam id="4456" interp="linr"  time="-9999999/1" value="0" leadInLength="0/1"  />
               <InterpolatingParam id="4457" interp="linr"  time="-9999999/1" value="0" leadInLength="0/1"  />
               <InterpolatingParam id="4458" interp="linr"  time="-9999999/1" value="0" leadInLength="0/1"  />
              </VectorParam>
              <VectorParam id="4459"  name="shear">
               <InterpolatingParam id="4460" interp="linr"  time="-9999999/1" value="0" leadInLength="0/1"  />
               <InterpolatingParam id="4461" interp="linr"  time="-9999999/1" value="0" leadInLength="0/1"  />
               <InterpolatingParam id="4462" interp="linr"  time="-9999999/1" value="0" leadInLength="0/1"  />
              </VectorParam>
              <VectorParam id="4463"  name="scale">
               <InterpolatingParam id="4464" interp="linr"  time="-9999999/1" value="1" leadInLength="0/1"  />
               <InterpolatingParam id="4465" interp="linr"  time="-9999999/1" value="1" leadInLength="0/1"  />
               <InterpolatingParam id="4466" interp="linr"  time="-9999999/1" value="1" leadInLength="0/1"  />
              </VectorParam>
              <VectorParam id="4467"  name="anchor">
               <InterpolatingParam id="4468" interp="linr"  time="0/1" value="0" leadInLength="0/1"  />
               <InterpolatingParam id="4469" interp="linr"  time="0/1" value="0" leadInLength="0/1"  />
               <InterpolatingParam id="4470" interp="linr"  time="0/1" value="0" leadInLength="0/1"  />
              </VectorParam>
             </Transformer>
             <Parameters>
              <VectorParam id="4471"  name="sourceCrop">
               <InterpolatingParam id="4472" interp="linr"  time="0/1" value="0" leadInLength="0/1"  />
               <InterpolatingParam id="4473" interp="linr"  time="0/1" value="0" leadInLength="0/1"  />
               <InterpolatingParam id="4474" interp="linr"  time="0/1" value="0" leadInLength="0/1"  />
               <InterpolatingParam id="4475" interp="linr"  time="0/1" value="0" leadInLength="0/1"  />
              </VectorParam>
              <VectorParam id="4476"  name="geometryCrop">
               <InterpolatingParam id="4477" interp="linr"  time="-9999999/1" value="0" leadInLength="0/1"  />
               <InterpolatingParam id="4478" interp="linr"  time="-9999999/1" value="0" leadInLength="0/1"  />
               <InterpolatingParam id="4479" interp="linr"  time="-9999999/1" value="0" leadInLength="0/1"  />
               <InterpolatingParam id="4480" interp="linr"  time="-9999999/1" value="0" leadInLength="0/1"  />
              </VectorParam>
              <InterpolatingParam id="4481" interp="linr"  time="-9999999/1" value="1" leadInLength="0/1"  name="opacity"/>
             </Parameters>
             <Attributes>
              <Attribute id="4482" value="" name="ident"/>
             </Attributes>
             <ExtraData>
              <Entry key="ZoomPanBin">
               <ZoomPanBin id="4483"  >
                <ZoomPanKeyframes>
                 <ZoomPanKeyframe id="4484" timeRangeEnd="-9999999/1" timeRangeDuration="0/1" interpolaterName="linr"  />
                </ZoomPanKeyframes>
               </ZoomPanBin>
              </Entry>
             </ExtraData>
            </VMFile>
            <MetaData>
             <entry key="WinSubProjectDisplayName" val=""/>
            </MetaData>
           </UnifiedMedia>
           <UnifiedMedia id="4485"  >
            <AMFile id="4486" start="2077" duration="76" scalar="1/1" mediaStart="7314/1" mediaDuration="76/1" trackNumber="2" src="5" channelNumber="0,1" >
             <Parameters>
              <InterpolatingParam id="4487" interp="linr"  time="0/1" value="1" leadInLength="0/1"  name="volume"/>
              <Parameter id="4488"  name="captions"/>
             </Parameters>
             <Attributes>
              <Attribute id="4489" value="" name="ident"/>
              <Attribute id="4490" value="44100" name="sampleRate"/>
              <Attribute id="4491" value="16" name="bitDepth"/>
              <Attribute id="4492" value="1" name="gain"/>
              <Attribute id="4493" value="0" name="mixToMono"/>
             </Attributes>
            </AMFile>
            <VMFile id="4494" start="2077" duration="76" scalar="1/1" mediaStart="7314/1" mediaDuration="76/1" trackNumber="1" src="5" >
             <Transformer>
              <VectorParam id="4495"  name="translation">
               <InterpolatingParam id="4496" interp="linr"  time="-9999999/1" value="0" leadInLength="0/1"  />
               <InterpolatingParam id="4497" interp="linr"  time="-9999999/1" value="0" leadInLength="0/1"  />
               <InterpolatingParam id="4498" interp="linr"  time="-9999999/1" value="0" leadInLength="0/1"  />
              </VectorParam>
              <VectorParam id="4499"  name="rotation">
               <InterpolatingParam id="4500" interp="linr"  time="-9999999/1" value="0" leadInLength="0/1"  />
               <InterpolatingParam id="4501" interp="linr"  time="-9999999/1" value="0" leadInLength="0/1"  />
               <InterpolatingParam id="4502" interp="linr"  time="-9999999/1" value="0" leadInLength="0/1"  />
              </VectorParam>
              <VectorParam id="4503"  name="shear">
               <InterpolatingParam id="4504" interp="linr"  time="-9999999/1" value="0" leadInLength="0/1"  />
               <InterpolatingParam id="4505" interp="linr"  time="-9999999/1" value="0" leadInLength="0/1"  />
               <InterpolatingParam id="4506" interp="linr"  time="-9999999/1" value="0" leadInLength="0/1"  />
              </VectorParam>
              <VectorParam id="4507"  name="scale">
               <InterpolatingParam id="4508" interp="linr"  time="-9999999/1" value="1" leadInLength="0/1"  />
               <InterpolatingParam id="4509" interp="linr"  time="-9999999/1" value="1" leadInLength="0/1"  />
               <InterpolatingParam id="4510" interp="linr"  time="-9999999/1" value="1" leadInLength="0/1"  />
              </VectorParam>
              <VectorParam id="4511"  name="anchor">
               <InterpolatingParam id="4512" interp="linr"  time="0/1" value="0" leadInLength="0/1"  />
               <InterpolatingParam id="4513" interp="linr"  time="0/1" value="0" leadInLength="0/1"  />
               <InterpolatingParam id="4514" interp="linr"  time="0/1" value="0" leadInLength="0/1"  />
              </VectorParam>
             </Transformer>
             <Parameters>
              <VectorParam id="4515"  name="sourceCrop">
               <InterpolatingParam id="4516" interp="linr"  time="0/1" value="0" leadInLength="0/1"  />
               <InterpolatingParam id="4517" interp="linr"  time="0/1" value="0" leadInLength="0/1"  />
               <InterpolatingParam id="4518" interp="linr"  time="0/1" value="0" leadInLength="0/1"  />
               <InterpolatingParam id="4519" interp="linr"  time="0/1" value="0" leadInLength="0/1"  />
              </VectorParam>
              <VectorParam id="4520"  name="geometryCrop">
               <InterpolatingParam id="4521" interp="linr"  time="-9999999/1" value="0" leadInLength="0/1"  />
               <InterpolatingParam id="4522" interp="linr"  time="-9999999/1" value="0" leadInLength="0/1"  />
               <InterpolatingParam id="4523" interp="linr"  time="-9999999/1" value="0" leadInLength="0/1"  />
               <InterpolatingParam id="4524" interp="linr"  time="-9999999/1" value="0" leadInLength="0/1"  />
              </VectorParam>
              <InterpolatingParam id="4525" interp="linr"  time="-9999999/1" value="1" leadInLength="0/1"  name="opacity"/>
             </Parameters>
             <Attributes>
              <Attribute id="4526" value="" name="ident"/>
             </Attributes>
             <ExtraData>
              <Entry key="ZoomPanBin">
               <ZoomPanBin id="4527"  >
                <ZoomPanKeyframes>
                 <ZoomPanKeyframe id="4528" timeRangeEnd="-9999999/1" timeRangeDuration="0/1" interpolaterName="linr"  />
                </ZoomPanKeyframes>
               </ZoomPanBin>
              </Entry>
             </ExtraData>
            </VMFile>
            <MetaData>
             <entry key="WinSubProjectDisplayName" val=""/>
            </MetaData>
           </UnifiedMedia>
           <UnifiedMedia id="4529"  >
            <AMFile id="4530" start="2153" duration="82" scalar="1/1" mediaStart="7397/1" mediaDuration="82/1" trackNumber="2" src="5" channelNumber="0,1" >
             <Parameters>
              <InterpolatingParam id="4531" interp="linr"  time="0/1" value="1" leadInLength="0/1"  name="volume"/>
              <Parameter id="4532"  name="captions"/>
             </Parameters>
             <Attributes>
              <Attribute id="4533" value="" name="ident"/>
              <Attribute id="4534" value="44100" name="sampleRate"/>
              <Attribute id="4535" value="16" name="bitDepth"/>
              <Attribute id="4536" value="1" name="gain"/>
              <Attribute id="4537" value="0" name="mixToMono"/>
             </Attributes>
            </AMFile>
            <VMFile id="4538" start="2153" duration="82" scalar="1/1" mediaStart="7397/1" mediaDuration="82/1" trackNumber="1" src="5" >
             <Transformer>
              <VectorParam id="4539"  name="translation">
               <InterpolatingParam id="4540" interp="linr"  time="-9999999/1" value="0" leadInLength="0/1"  />
               <InterpolatingParam id="4541" interp="linr"  time="-9999999/1" value="0" leadInLength="0/1"  />
               <InterpolatingParam id="4542" interp="linr"  time="-9999999/1" value="0" leadInLength="0/1"  />
              </VectorParam>
              <VectorParam id="4543"  name="rotation">
               <InterpolatingParam id="4544" interp="linr"  time="-9999999/1" value="0" leadInLength="0/1"  />
               <InterpolatingParam id="4545" interp="linr"  time="-9999999/1" value="0" leadInLength="0/1"  />
               <InterpolatingParam id="4546" interp="linr"  time="-9999999/1" value="0" leadInLength="0/1"  />
              </VectorParam>
              <VectorParam id="4547"  name="shear">
               <InterpolatingParam id="4548" interp="linr"  time="-9999999/1" value="0" leadInLength="0/1"  />
               <InterpolatingParam id="4549" interp="linr"  time="-9999999/1" value="0" leadInLength="0/1"  />
               <InterpolatingParam id="4550" interp="linr"  time="-9999999/1" value="0" leadInLength="0/1"  />
              </VectorParam>
              <VectorParam id="4551"  name="scale">
               <InterpolatingParam id="4552" interp="linr"  time="-9999999/1" value="1" leadInLength="0/1"  />
               <InterpolatingParam id="4553" interp="linr"  time="-9999999/1" value="1" leadInLength="0/1"  />
               <InterpolatingParam id="4554" interp="linr"  time="-9999999/1" value="1" leadInLength="0/1"  />
              </VectorParam>
              <VectorParam id="4555"  name="anchor">
               <InterpolatingParam id="4556" interp="linr"  time="0/1" value="0" leadInLength="0/1"  />
               <InterpolatingParam id="4557" interp="linr"  time="0/1" value="0" leadInLength="0/1"  />
               <InterpolatingParam id="4558" interp="linr"  time="0/1" value="0" leadInLength="0/1"  />
              </VectorParam>
             </Transformer>
             <Parameters>
              <VectorParam id="4559"  name="sourceCrop">
               <InterpolatingParam id="4560" interp="linr"  time="0/1" value="0" leadInLength="0/1"  />
               <InterpolatingParam id="4561" interp="linr"  time="0/1" value="0" leadInLength="0/1"  />
               <InterpolatingParam id="4562" interp="linr"  time="0/1" value="0" leadInLength="0/1"  />
               <InterpolatingParam id="4563" interp="linr"  time="0/1" value="0" leadInLength="0/1"  />
              </VectorParam>
              <VectorParam id="4564"  name="geometryCrop">
               <InterpolatingParam id="4565" interp="linr"  time="-9999999/1" value="0" leadInLength="0/1"  />
               <InterpolatingParam id="4566" interp="linr"  time="-9999999/1" value="0" leadInLength="0/1"  />
               <InterpolatingParam id="4567" interp="linr"  time="-9999999/1" value="0" leadInLength="0/1"  />
               <InterpolatingParam id="4568" interp="linr"  time="-9999999/1" value="0" leadInLength="0/1"  />
              </VectorParam>
              <InterpolatingParam id="4569" interp="linr"  time="-9999999/1" value="1" leadInLength="0/1"  name="opacity"/>
             </Parameters>
             <Attributes>
              <Attribute id="4570" value="" name="ident"/>
             </Attributes>
             <ExtraData>
              <Entry key="ZoomPanBin">
               <ZoomPanBin id="4571"  >
                <ZoomPanKeyframes>
                 <ZoomPanKeyframe id="4572" timeRangeEnd="-9999999/1" timeRangeDuration="0/1" interpolaterName="linr"  />
                </ZoomPanKeyframes>
               </ZoomPanBin>
              </Entry>
             </ExtraData>
            </VMFile>
            <MetaData>
             <entry key="WinSubProjectDisplayName" val=""/>
            </MetaData>
           </UnifiedMedia>
           <UnifiedMedia id="4573"  >
            <AMFile id="4574" start="2235" duration="94" scalar="1/1" mediaStart="7492/1" mediaDuration="94/1" trackNumber="2" src="5" channelNumber="0,1" >
             <Parameters>
              <InterpolatingParam id="4575" interp="linr"  time="0/1" value="1" leadInLength="0/1"  name="volume"/>
              <Parameter id="4576"  name="captions"/>
             </Parameters>
             <Attributes>
              <Attribute id="4577" value="" name="ident"/>
              <Attribute id="4578" value="44100" name="sampleRate"/>
              <Attribute id="4579" value="16" name="bitDepth"/>
              <Attribute id="4580" value="1" name="gain"/>
              <Attribute id="4581" value="0" name="mixToMono"/>
             </Attributes>
            </AMFile>
            <VMFile id="4582" start="2235" duration="94" scalar="1/1" mediaStart="7492/1" mediaDuration="94/1" trackNumber="1" src="5" >
             <Transformer>
              <VectorParam id="4583"  name="translation">
               <InterpolatingParam id="4584" interp="linr"  time="-9999999/1" value="0" leadInLength="0/1"  />
               <InterpolatingParam id="4585" interp="linr"  time="-9999999/1" value="0" leadInLength="0/1"  />
               <InterpolatingParam id="4586" interp="linr"  time="-9999999/1" value="0" leadInLength="0/1"  />
              </VectorParam>
              <VectorParam id="4587"  name="rotation">
               <InterpolatingParam id="4588" interp="linr"  time="-9999999/1" value="0" leadInLength="0/1"  />
               <InterpolatingParam id="4589" interp="linr"  time="-9999999/1" value="0" leadInLength="0/1"  />
               <InterpolatingParam id="4590" interp="linr"  time="-9999999/1" value="0" leadInLength="0/1"  />
              </VectorParam>
              <VectorParam id="4591"  name="shear">
               <InterpolatingParam id="4592" interp="linr"  time="-9999999/1" value="0" leadInLength="0/1"  />
               <InterpolatingParam id="4593" interp="linr"  time="-9999999/1" value="0" leadInLength="0/1"  />
               <InterpolatingParam id="4594" interp="linr"  time="-9999999/1" value="0" leadInLength="0/1"  />
              </VectorParam>
              <VectorParam id="4595"  name="scale">
               <InterpolatingParam id="4596" interp="linr"  time="-9999999/1" value="1" leadInLength="0/1"  />
               <InterpolatingParam id="4597" interp="linr"  time="-9999999/1" value="1" leadInLength="0/1"  />
               <InterpolatingParam id="4598" interp="linr"  time="-9999999/1" value="1" leadInLength="0/1"  />
              </VectorParam>
              <VectorParam id="4599"  name="anchor">
               <InterpolatingParam id="4600" interp="linr"  time="0/1" value="0" leadInLength="0/1"  />
               <InterpolatingParam id="4601" interp="linr"  time="0/1" value="0" leadInLength="0/1"  />
               <InterpolatingParam id="4602" interp="linr"  time="0/1" value="0" leadInLength="0/1"  />
              </VectorParam>
             </Transformer>
             <Parameters>
              <VectorParam id="4603"  name="sourceCrop">
               <InterpolatingParam id="4604" interp="linr"  time="0/1" value="0" leadInLength="0/1"  />
               <InterpolatingParam id="4605" interp="linr"  time="0/1" value="0" leadInLength="0/1"  />
               <InterpolatingParam id="4606" interp="linr"  time="0/1" value="0" leadInLength="0/1"  />
               <InterpolatingParam id="4607" interp="linr"  time="0/1" value="0" leadInLength="0/1"  />
              </VectorParam>
              <VectorParam id="4608"  name="geometryCrop">
               <InterpolatingParam id="4609" interp="linr"  time="-9999999/1" value="0" leadInLength="0/1"  />
               <InterpolatingParam id="4610" interp="linr"  time="-9999999/1" value="0" leadInLength="0/1"  />
               <InterpolatingParam id="4611" interp="linr"  time="-9999999/1" value="0" leadInLength="0/1"  />
               <InterpolatingParam id="4612" interp="linr"  time="-9999999/1" value="0" leadInLength="0/1"  />
              </VectorParam>
              <InterpolatingParam id="4613" interp="linr"  time="-9999999/1" value="1" leadInLength="0/1"  name="opacity"/>
             </Parameters>
             <Attributes>
              <Attribute id="4614" value="" name="ident"/>
             </Attributes>
             <ExtraData>
              <Entry key="ZoomPanBin">
               <ZoomPanBin id="4615"  >
                <ZoomPanKeyframes>
                 <ZoomPanKeyframe id="4616" timeRangeEnd="-9999999/1" timeRangeDuration="0/1" interpolaterName="linr"  />
                </ZoomPanKeyframes>
               </ZoomPanBin>
              </Entry>
             </ExtraData>
            </VMFile>
            <MetaData>
             <entry key="WinSubProjectDisplayName" val=""/>
            </MetaData>
           </UnifiedMedia>
           <UnifiedMedia id="4617"  >
            <AMFile id="4618" start="2329" duration="30" scalar="1/1" mediaStart="7605/1" mediaDuration="30/1" trackNumber="2" src="5" channelNumber="0,1" >
             <Parameters>
              <InterpolatingParam id="4619" interp="linr"  time="0/1" value="1" leadInLength="0/1"  name="volume"/>
              <Parameter id="4620"  name="captions"/>
             </Parameters>
             <Attributes>
              <Attribute id="4621" value="" name="ident"/>
              <Attribute id="4622" value="44100" name="sampleRate"/>
              <Attribute id="4623" value="16" name="bitDepth"/>
              <Attribute id="4624" value="1" name="gain"/>
              <Attribute id="4625" value="0" name="mixToMono"/>
             </Attributes>
            </AMFile>
            <VMFile id="4626" start="2329" duration="30" scalar="1/1" mediaStart="7605/1" mediaDuration="30/1" trackNumber="1" src="5" >
             <Transformer>
              <VectorParam id="4627"  name="translation">
               <InterpolatingParam id="4628" interp="linr"  time="-9999999/1" value="0" leadInLength="0/1"  />
               <InterpolatingParam id="4629" interp="linr"  time="-9999999/1" value="0" leadInLength="0/1"  />
               <InterpolatingParam id="4630" interp="linr"  time="-9999999/1" value="0" leadInLength="0/1"  />
              </VectorParam>
              <VectorParam id="4631"  name="rotation">
               <InterpolatingParam id="4632" interp="linr"  time="-9999999/1" value="0" leadInLength="0/1"  />
               <InterpolatingParam id="4633" interp="linr"  time="-9999999/1" value="0" leadInLength="0/1"  />
               <InterpolatingParam id="4634" interp="linr"  time="-9999999/1" value="0" leadInLength="0/1"  />
              </VectorParam>
              <VectorParam id="4635"  name="shear">
               <InterpolatingParam id="4636" interp="linr"  time="-9999999/1" value="0" leadInLength="0/1"  />
               <InterpolatingParam id="4637" interp="linr"  time="-9999999/1" value="0" leadInLength="0/1"  />
               <InterpolatingParam id="4638" interp="linr"  time="-9999999/1" value="0" leadInLength="0/1"  />
              </VectorParam>
              <VectorParam id="4639"  name="scale">
               <InterpolatingParam id="4640" interp="linr"  time="-9999999/1" value="1" leadInLength="0/1"  />
               <InterpolatingParam id="4641" interp="linr"  time="-9999999/1" value="1" leadInLength="0/1"  />
               <InterpolatingParam id="4642" interp="linr"  time="-9999999/1" value="1" leadInLength="0/1"  />
              </VectorParam>
              <VectorParam id="4643"  name="anchor">
               <InterpolatingParam id="4644" interp="linr"  time="0/1" value="0" leadInLength="0/1"  />
               <InterpolatingParam id="4645" interp="linr"  time="0/1" value="0" leadInLength="0/1"  />
               <InterpolatingParam id="4646" interp="linr"  time="0/1" value="0" leadInLength="0/1"  />
              </VectorParam>
             </Transformer>
             <Parameters>
              <VectorParam id="4647"  name="sourceCrop">
               <InterpolatingParam id="4648" interp="linr"  time="0/1" value="0" leadInLength="0/1"  />
               <InterpolatingParam id="4649" interp="linr"  time="0/1" value="0" leadInLength="0/1"  />
               <InterpolatingParam id="4650" interp="linr"  time="0/1" value="0" leadInLength="0/1"  />
               <InterpolatingParam id="4651" interp="linr"  time="0/1" value="0" leadInLength="0/1"  />
              </VectorParam>
              <VectorParam id="4652"  name="geometryCrop">
               <InterpolatingParam id="4653" interp="linr"  time="-9999999/1" value="0" leadInLength="0/1"  />
               <InterpolatingParam id="4654" interp="linr"  time="-9999999/1" value="0" leadInLength="0/1"  />
               <InterpolatingParam id="4655" interp="linr"  time="-9999999/1" value="0" leadInLength="0/1"  />
               <InterpolatingParam id="4656" interp="linr"  time="-9999999/1" value="0" leadInLength="0/1"  />
              </VectorParam>
              <InterpolatingParam id="4657" interp="linr"  time="-9999999/1" value="1" leadInLength="0/1"  name="opacity"/>
             </Parameters>
             <Attributes>
              <Attribute id="4658" value="" name="ident"/>
             </Attributes>
             <ExtraData>
              <Entry key="ZoomPanBin">
               <ZoomPanBin id="4659"  >
                <ZoomPanKeyframes>
                 <ZoomPanKeyframe id="4660" timeRangeEnd="-9999999/1" timeRangeDuration="0/1" interpolaterName="linr"  />
                </ZoomPanKeyframes>
               </ZoomPanBin>
              </Entry>
             </ExtraData>
            </VMFile>
            <MetaData>
             <entry key="WinSubProjectDisplayName" val=""/>
            </MetaData>
           </UnifiedMedia>
           <UnifiedMedia id="4661"  >
            <AMFile id="4662" start="2359" duration="15" scalar="1/1" mediaStart="7643/1" mediaDuration="15/1" trackNumber="2" src="5" channelNumber="0,1" >
             <Parameters>
              <InterpolatingParam id="4663" interp="linr"  time="0/1" value="1" leadInLength="0/1"  name="volume"/>
              <Parameter id="4664"  name="captions"/>
             </Parameters>
             <Attributes>
              <Attribute id="4665" value="" name="ident"/>
              <Attribute id="4666" value="44100" name="sampleRate"/>
              <Attribute id="4667" value="16" name="bitDepth"/>
              <Attribute id="4668" value="1" name="gain"/>
              <Attribute id="4669" value="0" name="mixToMono"/>
             </Attributes>
            </AMFile>
            <VMFile id="4670" start="2359" duration="15" scalar="1/1" mediaStart="7643/1" mediaDuration="15/1" trackNumber="1" src="5" >
             <Transformer>
              <VectorParam id="4671"  name="translation">
               <InterpolatingParam id="4672" interp="linr"  time="-9999999/1" value="0" leadInLength="0/1"  />
               <InterpolatingParam id="4673" interp="linr"  time="-9999999/1" value="0" leadInLength="0/1"  />
               <InterpolatingParam id="4674" interp="linr"  time="-9999999/1" value="0" leadInLength="0/1"  />
              </VectorParam>
              <VectorParam id="4675"  name="rotation">
               <InterpolatingParam id="4676" interp="linr"  time="-9999999/1" value="0" leadInLength="0/1"  />
               <InterpolatingParam id="4677" interp="linr"  time="-9999999/1" value="0" leadInLength="0/1"  />
               <InterpolatingParam id="4678" interp="linr"  time="-9999999/1" value="0" leadInLength="0/1"  />
              </VectorParam>
              <VectorParam id="4679"  name="shear">
               <InterpolatingParam id="4680" interp="linr"  time="-9999999/1" value="0" leadInLength="0/1"  />
               <InterpolatingParam id="4681" interp="linr"  time="-9999999/1" value="0" leadInLength="0/1"  />
               <InterpolatingParam id="4682" interp="linr"  time="-9999999/1" value="0" leadInLength="0/1"  />
              </VectorParam>
              <VectorParam id="4683"  name="scale">
               <InterpolatingParam id="4684" interp="linr"  time="-9999999/1" value="1" leadInLength="0/1"  />
               <InterpolatingParam id="4685" interp="linr"  time="-9999999/1" value="1" leadInLength="0/1"  />
               <InterpolatingParam id="4686" interp="linr"  time="-9999999/1" value="1" leadInLength="0/1"  />
              </VectorParam>
              <VectorParam id="4687"  name="anchor">
               <InterpolatingParam id="4688" interp="linr"  time="0/1" value="0" leadInLength="0/1"  />
               <InterpolatingParam id="4689" interp="linr"  time="0/1" value="0" leadInLength="0/1"  />
               <InterpolatingParam id="4690" interp="linr"  time="0/1" value="0" leadInLength="0/1"  />
              </VectorParam>
             </Transformer>
             <Parameters>
              <VectorParam id="4691"  name="sourceCrop">
               <InterpolatingParam id="4692" interp="linr"  time="0/1" value="0" leadInLength="0/1"  />
               <InterpolatingParam id="4693" interp="linr"  time="0/1" value="0" leadInLength="0/1"  />
               <InterpolatingParam id="4694" interp="linr"  time="0/1" value="0" leadInLength="0/1"  />
               <InterpolatingParam id="4695" interp="linr"  time="0/1" value="0" leadInLength="0/1"  />
              </VectorParam>
              <VectorParam id="4696"  name="geometryCrop">
               <InterpolatingParam id="4697" interp="linr"  time="-9999999/1" value="0" leadInLength="0/1"  />
               <InterpolatingParam id="4698" interp="linr"  time="-9999999/1" value="0" leadInLength="0/1"  />
               <InterpolatingParam id="4699" interp="linr"  time="-9999999/1" value="0" leadInLength="0/1"  />
               <InterpolatingParam id="4700" interp="linr"  time="-9999999/1" value="0" leadInLength="0/1"  />
              </VectorParam>
              <InterpolatingParam id="4701" interp="linr"  time="-9999999/1" value="1" leadInLength="0/1"  name="opacity"/>
             </Parameters>
             <Attributes>
              <Attribute id="4702" value="" name="ident"/>
             </Attributes>
             <ExtraData>
              <Entry key="ZoomPanBin">
               <ZoomPanBin id="4703"  >
                <ZoomPanKeyframes>
                 <ZoomPanKeyframe id="4704" timeRangeEnd="-9999999/1" timeRangeDuration="0/1" interpolaterName="linr"  />
                </ZoomPanKeyframes>
               </ZoomPanBin>
              </Entry>
             </ExtraData>
            </VMFile>
            <MetaData>
             <entry key="WinSubProjectDisplayName" val=""/>
            </MetaData>
           </UnifiedMedia>
           <UnifiedMedia id="4705"  >
            <AMFile id="4706" start="2374" duration="7" scalar="1/1" mediaStart="7693/1" mediaDuration="7/1" trackNumber="2" src="5" channelNumber="0,1" >
             <Parameters>
              <InterpolatingParam id="4707" interp="linr"  time="0/1" value="1" leadInLength="0/1"  name="volume"/>
              <Parameter id="4708"  name="captions"/>
             </Parameters>
             <Attributes>
              <Attribute id="4709" value="" name="ident"/>
              <Attribute id="4710" value="44100" name="sampleRate"/>
              <Attribute id="4711" value="16" name="bitDepth"/>
              <Attribute id="4712" value="1" name="gain"/>
              <Attribute id="4713" value="0" name="mixToMono"/>
             </Attributes>
            </AMFile>
            <VMFile id="4714" start="2374" duration="7" scalar="1/1" mediaStart="7693/1" mediaDuration="7/1" trackNumber="1" src="5" >
             <Transformer>
              <VectorParam id="4715"  name="translation">
               <InterpolatingParam id="4716" interp="linr"  time="-9999999/1" value="0" leadInLength="0/1"  />
               <InterpolatingParam id="4717" interp="linr"  time="-9999999/1" value="0" leadInLength="0/1"  />
               <InterpolatingParam id="4718" interp="linr"  time="-9999999/1" value="0" leadInLength="0/1"  />
              </VectorParam>
              <VectorParam id="4719"  name="rotation">
               <InterpolatingParam id="4720" interp="linr"  time="-9999999/1" value="0" leadInLength="0/1"  />
               <InterpolatingParam id="4721" interp="linr"  time="-9999999/1" value="0" leadInLength="0/1"  />
               <InterpolatingParam id="4722" interp="linr"  time="-9999999/1" value="0" leadInLength="0/1"  />
              </VectorParam>
              <VectorParam id="4723"  name="shear">
               <InterpolatingParam id="4724" interp="linr"  time="-9999999/1" value="0" leadInLength="0/1"  />
               <InterpolatingParam id="4725" interp="linr"  time="-9999999/1" value="0" leadInLength="0/1"  />
               <InterpolatingParam id="4726" interp="linr"  time="-9999999/1" value="0" leadInLength="0/1"  />
              </VectorParam>
              <VectorParam id="4727"  name="scale">
               <InterpolatingParam id="4728" interp="linr"  time="-9999999/1" value="1" leadInLength="0/1"  />
               <InterpolatingParam id="4729" interp="linr"  time="-9999999/1" value="1" leadInLength="0/1"  />
               <InterpolatingParam id="4730" interp="linr"  time="-9999999/1" value="1" leadInLength="0/1"  />
              </VectorParam>
              <VectorParam id="4731"  name="anchor">
               <InterpolatingParam id="4732" interp="linr"  time="0/1" value="0" leadInLength="0/1"  />
               <InterpolatingParam id="4733" interp="linr"  time="0/1" value="0" leadInLength="0/1"  />
               <InterpolatingParam id="4734" interp="linr"  time="0/1" value="0" leadInLength="0/1"  />
              </VectorParam>
             </Transformer>
             <Parameters>
              <VectorParam id="4735"  name="sourceCrop">
               <InterpolatingParam id="4736" interp="linr"  time="0/1" value="0" leadInLength="0/1"  />
               <InterpolatingParam id="4737" interp="linr"  time="0/1" value="0" leadInLength="0/1"  />
               <InterpolatingParam id="4738" interp="linr"  time="0/1" value="0" leadInLength="0/1"  />
               <InterpolatingParam id="4739" interp="linr"  time="0/1" value="0" leadInLength="0/1"  />
              </VectorParam>
              <VectorParam id="4740"  name="geometryCrop">
               <InterpolatingParam id="4741" interp="linr"  time="-9999999/1" value="0" leadInLength="0/1"  />
               <InterpolatingParam id="4742" interp="linr"  time="-9999999/1" value="0" leadInLength="0/1"  />
               <InterpolatingParam id="4743" interp="linr"  time="-9999999/1" value="0" leadInLength="0/1"  />
               <InterpolatingParam id="4744" interp="linr"  time="-9999999/1" value="0" leadInLength="0/1"  />
              </VectorParam>
              <InterpolatingParam id="4745" interp="linr"  time="-9999999/1" value="1" leadInLength="0/1"  name="opacity"/>
             </Parameters>
             <Attributes>
              <Attribute id="4746" value="" name="ident"/>
             </Attributes>
             <ExtraData>
              <Entry key="ZoomPanBin">
               <ZoomPanBin id="4747"  >
                <ZoomPanKeyframes>
                 <ZoomPanKeyframe id="4748" timeRangeEnd="-9999999/1" timeRangeDuration="0/1" interpolaterName="linr"  />
                </ZoomPanKeyframes>
               </ZoomPanBin>
              </Entry>
             </ExtraData>
            </VMFile>
            <MetaData>
             <entry key="WinSubProjectDisplayName" val=""/>
            </MetaData>
           </UnifiedMedia>
           <UnifiedMedia id="4749"  >
            <AMFile id="4750" start="2381" duration="25" scalar="1/1" mediaStart="7704/1" mediaDuration="25/1" trackNumber="2" src="5" channelNumber="0,1" >
             <Parameters>
              <InterpolatingParam id="4751" interp="linr"  time="0/1" value="1" leadInLength="0/1"  name="volume"/>
              <Parameter id="4752"  name="captions"/>
             </Parameters>
             <Attributes>
              <Attribute id="4753" value="" name="ident"/>
              <Attribute id="4754" value="44100" name="sampleRate"/>
              <Attribute id="4755" value="16" name="bitDepth"/>
              <Attribute id="4756" value="1" name="gain"/>
              <Attribute id="4757" value="0" name="mixToMono"/>
             </Attributes>
            </AMFile>
            <VMFile id="4758" start="2381" duration="25" scalar="1/1" mediaStart="7704/1" mediaDuration="25/1" trackNumber="1" src="5" >
             <Transformer>
              <VectorParam id="4759"  name="translation">
               <InterpolatingParam id="4760" interp="linr"  time="-9999999/1" value="0" leadInLength="0/1"  />
               <InterpolatingParam id="4761" interp="linr"  time="-9999999/1" value="0" leadInLength="0/1"  />
               <InterpolatingParam id="4762" interp="linr"  time="-9999999/1" value="0" leadInLength="0/1"  />
              </VectorParam>
              <VectorParam id="4763"  name="rotation">
               <InterpolatingParam id="4764" interp="linr"  time="-9999999/1" value="0" leadInLength="0/1"  />
               <InterpolatingParam id="4765" interp="linr"  time="-9999999/1" value="0" leadInLength="0/1"  />
               <InterpolatingParam id="4766" interp="linr"  time="-9999999/1" value="0" leadInLength="0/1"  />
              </VectorParam>
              <VectorParam id="4767"  name="shear">
               <InterpolatingParam id="4768" interp="linr"  time="-9999999/1" value="0" leadInLength="0/1"  />
               <InterpolatingParam id="4769" interp="linr"  time="-9999999/1" value="0" leadInLength="0/1"  />
               <InterpolatingParam id="4770" interp="linr"  time="-9999999/1" value="0" leadInLength="0/1"  />
              </VectorParam>
              <VectorParam id="4771"  name="scale">
               <InterpolatingParam id="4772" interp="linr"  time="-9999999/1" value="1" leadInLength="0/1"  />
               <InterpolatingParam id="4773" interp="linr"  time="-9999999/1" value="1" leadInLength="0/1"  />
               <InterpolatingParam id="4774" interp="linr"  time="-9999999/1" value="1" leadInLength="0/1"  />
              </VectorParam>
              <VectorParam id="4775"  name="anchor">
               <InterpolatingParam id="4776" interp="linr"  time="0/1" value="0" leadInLength="0/1"  />
               <InterpolatingParam id="4777" interp="linr"  time="0/1" value="0" leadInLength="0/1"  />
               <InterpolatingParam id="4778" interp="linr"  time="0/1" value="0" leadInLength="0/1"  />
              </VectorParam>
             </Transformer>
             <Parameters>
              <VectorParam id="4779"  name="sourceCrop">
               <InterpolatingParam id="4780" interp="linr"  time="0/1" value="0" leadInLength="0/1"  />
               <InterpolatingParam id="4781" interp="linr"  time="0/1" value="0" leadInLength="0/1"  />
               <InterpolatingParam id="4782" interp="linr"  time="0/1" value="0" leadInLength="0/1"  />
               <InterpolatingParam id="4783" interp="linr"  time="0/1" value="0" leadInLength="0/1"  />
              </VectorParam>
              <VectorParam id="4784"  name="geometryCrop">
               <InterpolatingParam id="4785" interp="linr"  time="-9999999/1" value="0" leadInLength="0/1"  />
               <InterpolatingParam id="4786" interp="linr"  time="-9999999/1" value="0" leadInLength="0/1"  />
               <InterpolatingParam id="4787" interp="linr"  time="-9999999/1" value="0" leadInLength="0/1"  />
               <InterpolatingParam id="4788" interp="linr"  time="-9999999/1" value="0" leadInLength="0/1"  />
              </VectorParam>
              <InterpolatingParam id="4789" interp="linr"  time="-9999999/1" value="1" leadInLength="0/1"  name="opacity"/>
             </Parameters>
             <Attributes>
              <Attribute id="4790" value="" name="ident"/>
             </Attributes>
             <ExtraData>
              <Entry key="ZoomPanBin">
               <ZoomPanBin id="4791"  >
                <ZoomPanKeyframes>
                 <ZoomPanKeyframe id="4792" timeRangeEnd="-9999999/1" timeRangeDuration="0/1" interpolaterName="linr"  />
                </ZoomPanKeyframes>
               </ZoomPanBin>
              </Entry>
             </ExtraData>
            </VMFile>
            <MetaData>
             <entry key="WinSubProjectDisplayName" val=""/>
            </MetaData>
           </UnifiedMedia>
           <UnifiedMedia id="4793"  >
            <AMFile id="4794" start="2406" duration="21" scalar="1/1" mediaStart="7733/1" mediaDuration="21/1" trackNumber="2" src="5" channelNumber="0,1" >
             <Parameters>
              <InterpolatingParam id="4795" interp="linr"  time="0/1" value="1" leadInLength="0/1"  name="volume"/>
              <Parameter id="4796"  name="captions"/>
             </Parameters>
             <Attributes>
              <Attribute id="4797" value="" name="ident"/>
              <Attribute id="4798" value="44100" name="sampleRate"/>
              <Attribute id="4799" value="16" name="bitDepth"/>
              <Attribute id="4800" value="1" name="gain"/>
              <Attribute id="4801" value="0" name="mixToMono"/>
             </Attributes>
            </AMFile>
            <VMFile id="4802" start="2406" duration="21" scalar="1/1" mediaStart="7733/1" mediaDuration="21/1" trackNumber="1" src="5" >
             <Transformer>
              <VectorParam id="4803"  name="translation">
               <InterpolatingParam id="4804" interp="linr"  time="-9999999/1" value="0" leadInLength="0/1"  />
               <InterpolatingParam id="4805" interp="linr"  time="-9999999/1" value="0" leadInLength="0/1"  />
               <InterpolatingParam id="4806" interp="linr"  time="-9999999/1" value="0" leadInLength="0/1"  />
              </VectorParam>
              <VectorParam id="4807"  name="rotation">
               <InterpolatingParam id="4808" interp="linr"  time="-9999999/1" value="0" leadInLength="0/1"  />
               <InterpolatingParam id="4809" interp="linr"  time="-9999999/1" value="0" leadInLength="0/1"  />
               <InterpolatingParam id="4810" interp="linr"  time="-9999999/1" value="0" leadInLength="0/1"  />
              </VectorParam>
              <VectorParam id="4811"  name="shear">
               <InterpolatingParam id="4812" interp="linr"  time="-9999999/1" value="0" leadInLength="0/1"  />
               <InterpolatingParam id="4813" interp="linr"  time="-9999999/1" value="0" leadInLength="0/1"  />
               <InterpolatingParam id="4814" interp="linr"  time="-9999999/1" value="0" leadInLength="0/1"  />
              </VectorParam>
              <VectorParam id="4815"  name="scale">
               <InterpolatingParam id="4816" interp="linr"  time="-9999999/1" value="1" leadInLength="0/1"  />
               <InterpolatingParam id="4817" interp="linr"  time="-9999999/1" value="1" leadInLength="0/1"  />
               <InterpolatingParam id="4818" interp="linr"  time="-9999999/1" value="1" leadInLength="0/1"  />
              </VectorParam>
              <VectorParam id="4819"  name="anchor">
               <InterpolatingParam id="4820" interp="linr"  time="0/1" value="0" leadInLength="0/1"  />
               <InterpolatingParam id="4821" interp="linr"  time="0/1" value="0" leadInLength="0/1"  />
               <InterpolatingParam id="4822" interp="linr"  time="0/1" value="0" leadInLength="0/1"  />
              </VectorParam>
             </Transformer>
             <Parameters>
              <VectorParam id="4823"  name="sourceCrop">
               <InterpolatingParam id="4824" interp="linr"  time="0/1" value="0" leadInLength="0/1"  />
               <InterpolatingParam id="4825" interp="linr"  time="0/1" value="0" leadInLength="0/1"  />
               <InterpolatingParam id="4826" interp="linr"  time="0/1" value="0" leadInLength="0/1"  />
               <InterpolatingParam id="4827" interp="linr"  time="0/1" value="0" leadInLength="0/1"  />
              </VectorParam>
              <VectorParam id="4828"  name="geometryCrop">
               <InterpolatingParam id="4829" interp="linr"  time="-9999999/1" value="0" leadInLength="0/1"  />
               <InterpolatingParam id="4830" interp="linr"  time="-9999999/1" value="0" leadInLength="0/1"  />
               <InterpolatingParam id="4831" interp="linr"  time="-9999999/1" value="0" leadInLength="0/1"  />
               <InterpolatingParam id="4832" interp="linr"  time="-9999999/1" value="0" leadInLength="0/1"  />
              </VectorParam>
              <InterpolatingParam id="4833" interp="linr"  time="-9999999/1" value="1" leadInLength="0/1"  name="opacity"/>
             </Parameters>
             <Attributes>
              <Attribute id="4834" value="" name="ident"/>
             </Attributes>
             <ExtraData>
              <Entry key="ZoomPanBin">
               <ZoomPanBin id="4835"  >
                <ZoomPanKeyframes>
                 <ZoomPanKeyframe id="4836" timeRangeEnd="-9999999/1" timeRangeDuration="0/1" interpolaterName="linr"  />
                </ZoomPanKeyframes>
               </ZoomPanBin>
              </Entry>
             </ExtraData>
            </VMFile>
            <MetaData>
             <entry key="WinSubProjectDisplayName" val=""/>
            </MetaData>
           </UnifiedMedia>
           <UnifiedMedia id="4837"  >
            <AMFile id="4838" start="2427" duration="2" scalar="1/1" mediaStart="7759/1" mediaDuration="2/1" trackNumber="2" src="5" channelNumber="0,1" >
             <Parameters>
              <InterpolatingParam id="4839" interp="linr"  time="0/1" value="1" leadInLength="0/1"  name="volume"/>
              <Parameter id="4840"  name="captions"/>
             </Parameters>
             <Attributes>
              <Attribute id="4841" value="" name="ident"/>
              <Attribute id="4842" value="44100" name="sampleRate"/>
              <Attribute id="4843" value="16" name="bitDepth"/>
              <Attribute id="4844" value="1" name="gain"/>
              <Attribute id="4845" value="0" name="mixToMono"/>
             </Attributes>
            </AMFile>
            <VMFile id="4846" start="2427" duration="2" scalar="1/1" mediaStart="7759/1" mediaDuration="2/1" trackNumber="1" src="5" >
             <Transformer>
              <VectorParam id="4847"  name="translation">
               <InterpolatingParam id="4848" interp="linr"  time="-9999999/1" value="0" leadInLength="0/1"  />
               <InterpolatingParam id="4849" interp="linr"  time="-9999999/1" value="0" leadInLength="0/1"  />
               <InterpolatingParam id="4850" interp="linr"  time="-9999999/1" value="0" leadInLength="0/1"  />
              </VectorParam>
              <VectorParam id="4851"  name="rotation">
               <InterpolatingParam id="4852" interp="linr"  time="-9999999/1" value="0" leadInLength="0/1"  />
               <InterpolatingParam id="4853" interp="linr"  time="-9999999/1" value="0" leadInLength="0/1"  />
               <InterpolatingParam id="4854" interp="linr"  time="-9999999/1" value="0" leadInLength="0/1"  />
              </VectorParam>
              <VectorParam id="4855"  name="shear">
               <InterpolatingParam id="4856" interp="linr"  time="-9999999/1" value="0" leadInLength="0/1"  />
               <InterpolatingParam id="4857" interp="linr"  time="-9999999/1" value="0" leadInLength="0/1"  />
               <InterpolatingParam id="4858" interp="linr"  time="-9999999/1" value="0" leadInLength="0/1"  />
              </VectorParam>
              <VectorParam id="4859"  name="scale">
               <InterpolatingParam id="4860" interp="linr"  time="-9999999/1" value="1" leadInLength="0/1"  />
               <InterpolatingParam id="4861" interp="linr"  time="-9999999/1" value="1" leadInLength="0/1"  />
               <InterpolatingParam id="4862" interp="linr"  time="-9999999/1" value="1" leadInLength="0/1"  />
              </VectorParam>
              <VectorParam id="4863"  name="anchor">
               <InterpolatingParam id="4864" interp="linr"  time="0/1" value="0" leadInLength="0/1"  />
               <InterpolatingParam id="4865" interp="linr"  time="0/1" value="0" leadInLength="0/1"  />
               <InterpolatingParam id="4866" interp="linr"  time="0/1" value="0" leadInLength="0/1"  />
              </VectorParam>
             </Transformer>
             <Parameters>
              <VectorParam id="4867"  name="sourceCrop">
               <InterpolatingParam id="4868" interp="linr"  time="0/1" value="0" leadInLength="0/1"  />
               <InterpolatingParam id="4869" interp="linr"  time="0/1" value="0" leadInLength="0/1"  />
               <InterpolatingParam id="4870" interp="linr"  time="0/1" value="0" leadInLength="0/1"  />
               <InterpolatingParam id="4871" interp="linr"  time="0/1" value="0" leadInLength="0/1"  />
              </VectorParam>
              <VectorParam id="4872"  name="geometryCrop">
               <InterpolatingParam id="4873" interp="linr"  time="-9999999/1" value="0" leadInLength="0/1"  />
               <InterpolatingParam id="4874" interp="linr"  time="-9999999/1" value="0" leadInLength="0/1"  />
               <InterpolatingParam id="4875" interp="linr"  time="-9999999/1" value="0" leadInLength="0/1"  />
               <InterpolatingParam id="4876" interp="linr"  time="-9999999/1" value="0" leadInLength="0/1"  />
              </VectorParam>
              <InterpolatingParam id="4877" interp="linr"  time="-9999999/1" value="1" leadInLength="0/1"  name="opacity"/>
             </Parameters>
             <Attributes>
              <Attribute id="4878" value="" name="ident"/>
             </Attributes>
             <ExtraData>
              <Entry key="ZoomPanBin">
               <ZoomPanBin id="4879"  >
                <ZoomPanKeyframes>
                 <ZoomPanKeyframe id="4880" timeRangeEnd="-9999999/1" timeRangeDuration="0/1" interpolaterName="linr"  />
                </ZoomPanKeyframes>
               </ZoomPanBin>
              </Entry>
             </ExtraData>
            </VMFile>
            <MetaData>
             <entry key="WinSubProjectDisplayName" val=""/>
            </MetaData>
           </UnifiedMedia>
           <UnifiedMedia id="4881"  >
            <AMFile id="4882" start="2429" duration="2818" scalar="1/1" mediaStart="7780/1" mediaDuration="2818/1" trackNumber="2" src="5" channelNumber="0,1" >
             <Parameters>
              <InterpolatingParam id="4883" interp="linr"  time="0/1" value="1" leadInLength="0/1"  name="volume"/>
              <Parameter id="4884"  name="captions"/>
             </Parameters>
             <Attributes>
              <Attribute id="4885" value="" name="ident"/>
              <Attribute id="4886" value="44100" name="sampleRate"/>
              <Attribute id="4887" value="16" name="bitDepth"/>
              <Attribute id="4888" value="1" name="gain"/>
              <Attribute id="4889" value="0" name="mixToMono"/>
             </Attributes>
            </AMFile>
            <VMFile id="4890" start="2429" duration="2818" scalar="1/1" mediaStart="7780/1" mediaDuration="2818/1" trackNumber="1" src="5" >
             <Transformer>
              <VectorParam id="4891"  name="translation">
               <InterpolatingParam id="4892" interp="linr"  time="-9999999/1" value="0" leadInLength="0/1"  />
               <InterpolatingParam id="4893" interp="linr"  time="-9999999/1" value="0" leadInLength="0/1"  />
               <InterpolatingParam id="4894" interp="linr"  time="-9999999/1" value="0" leadInLength="0/1"  />
              </VectorParam>
              <VectorParam id="4895"  name="rotation">
               <InterpolatingParam id="4896" interp="linr"  time="-9999999/1" value="0" leadInLength="0/1"  />
               <InterpolatingParam id="4897" interp="linr"  time="-9999999/1" value="0" leadInLength="0/1"  />
               <InterpolatingParam id="4898" interp="linr"  time="-9999999/1" value="0" leadInLength="0/1"  />
              </VectorParam>
              <VectorParam id="4899"  name="shear">
               <InterpolatingParam id="4900" interp="linr"  time="-9999999/1" value="0" leadInLength="0/1"  />
               <InterpolatingParam id="4901" interp="linr"  time="-9999999/1" value="0" leadInLength="0/1"  />
               <InterpolatingParam id="4902" interp="linr"  time="-9999999/1" value="0" leadInLength="0/1"  />
              </VectorParam>
              <VectorParam id="4903"  name="scale">
               <InterpolatingParam id="4904" interp="linr"  time="-9999999/1" value="1" leadInLength="0/1"  />
               <InterpolatingParam id="4905" interp="linr"  time="-9999999/1" value="1" leadInLength="0/1"  />
               <InterpolatingParam id="4906" interp="linr"  time="-9999999/1" value="1" leadInLength="0/1"  />
              </VectorParam>
              <VectorParam id="4907"  name="anchor">
               <InterpolatingParam id="4908" interp="linr"  time="0/1" value="0" leadInLength="0/1"  />
               <InterpolatingParam id="4909" interp="linr"  time="0/1" value="0" leadInLength="0/1"  />
               <InterpolatingParam id="4910" interp="linr"  time="0/1" value="0" leadInLength="0/1"  />
              </VectorParam>
             </Transformer>
             <Parameters>
              <VectorParam id="4911"  name="sourceCrop">
               <InterpolatingParam id="4912" interp="linr"  time="0/1" value="0" leadInLength="0/1"  />
               <InterpolatingParam id="4913" interp="linr"  time="0/1" value="0" leadInLength="0/1"  />
               <InterpolatingParam id="4914" interp="linr"  time="0/1" value="0" leadInLength="0/1"  />
               <InterpolatingParam id="4915" interp="linr"  time="0/1" value="0" leadInLength="0/1"  />
              </VectorParam>
              <VectorParam id="4916"  name="geometryCrop">
               <InterpolatingParam id="4917" interp="linr"  time="-9999999/1" value="0" leadInLength="0/1"  />
               <InterpolatingParam id="4918" interp="linr"  time="-9999999/1" value="0" leadInLength="0/1"  />
               <InterpolatingParam id="4919" interp="linr"  time="-9999999/1" value="0" leadInLength="0/1"  />
               <InterpolatingParam id="4920" interp="linr"  time="-9999999/1" value="0" leadInLength="0/1"  />
              </VectorParam>
              <InterpolatingParam id="4921" interp="linr"  time="-9999999/1" value="1" leadInLength="0/1"  name="opacity"/>
             </Parameters>
             <Attributes>
              <Attribute id="4922" value="" name="ident"/>
             </Attributes>
             <ExtraData>
              <Entry key="ZoomPanBin">
               <ZoomPanBin id="4923"  >
                <ZoomPanKeyframes>
                 <ZoomPanKeyframe id="4924" timeRangeEnd="-9999999/1" timeRangeDuration="0/1" interpolaterName="linr"  />
                </ZoomPanKeyframes>
               </ZoomPanBin>
              </Entry>
             </ExtraData>
            </VMFile>
            <MetaData>
             <entry key="WinSubProjectDisplayName" val=""/>
            </MetaData>
           </UnifiedMedia>
          </Medias>
         </GenericTrack>
        </StitchedMedia>
        <StitchedMedia id="4925" start="1229" duration="4442" scalar="1/1" mediaStart="7881/1" mediaDuration="4442/1" minMediaStart="0/1" >
         <Transformer>
          <VectorParam id="4926"  name="translation">
           <InterpolatingParam id="4927" interp="linr"  >
            <Keyframes>
            <Keyframe id="4928"  time="-9999999/1" value="595.69721115547543" leadInLength="0/1"  />
            <Keyframe id="4929"  time="8547/1" value="1939.4223778687367" leadInLength="30/1"  interpolater="leadin-linr"  />
            <Keyframe id="4930"  time="9092/1" value="595.69721115547543" leadInLength="30/1"  interpolater="leadin-linr"  />
            <Keyframe id="4931"  time="9120/1" value="892.87673903006259" leadInLength="28/1"  interpolater="leadin-linr"  />
            <Keyframe id="4932"  time="9526/1" value="595.6972111554752" leadInLength="30/1"  interpolater="leadin-linr"  />
            <Keyframe id="4933"  time="9609/1" value="1217.7745372562426" leadInLength="30/1"  interpolater="leadin-linr"  />
            <Keyframe id="4934"  time="10083/1" value="595.69721115547497" leadInLength="30/1"  interpolater="leadin-linr"  />
            <Keyframe id="4935"  time="10450/1" value="2498.0878553527441" leadInLength="30/1"  interpolater="leadin-linr"  />
            <Keyframe id="4936"  time="10921/1" value="595.69721115547509" leadInLength="30/1"  interpolater="leadin-linr"  />
            <Keyframe id="4937"  time="10922/1" value="595.6972111554752" leadInLength="1/1"  interpolater="leadin-linr"  />
            <Keyframe id="4938"  time="10947/1" value="1198.0003616749598" leadInLength="25/1"  interpolater="leadin-linr"  />
            <Keyframe id="4939"  time="11436/1" value="916.92555809920032" leadInLength="14/1"  interpolater="leadin-linr"  />
            <Keyframe id="4940"  time="11451/1" value="595.69721115547532" leadInLength="15/1"  interpolater="leadin-linr"  />
            <Keyframe id="4941"  time="11494/1" value="420.15244426691464" leadInLength="30/1"  interpolater="leadin-linr"  />
            <Keyframe id="4942"  time="11768/1" value="913.43698324318655" leadInLength="14/1"  interpolater="leadin-linr"  />
            <Keyframe id="4943"  time="11792/1" value="1957.4390915313795" leadInLength="23/1"  interpolater="leadin-linr"  />
            <Keyframe id="4944"  time="12078/1" value="1821.264903493789" leadInLength="14/1"  interpolater="leadin-linr"  />
            <Keyframe id="4945"  time="12106/1" value="595.69721115547463" leadInLength="27/1"  interpolater="leadin-linr"  />
            <Keyframe id="4946"  time="12192/1" value="522.66480588257207" leadInLength="30/1"  interpolater="leadin-linr"  />
            </Keyframes>
           </InterpolatingParam>
           <InterpolatingParam id="4947" interp="linr"  >
            <Keyframes>
            <Keyframe id="4948"  time="-9999999/1" value="-304.89328769057846" leadInLength="0/1"  />
            <Keyframe id="4949"  time="8547/1" value="-929.28298765266698" leadInLength="30/1"  interpolater="leadin-linr"  />
            <Keyframe id="4950"  time="9092/1" value="-304.89329956513382" leadInLength="30/1"  interpolater="leadin-linr"  />
            <Keyframe id="4951"  time="9120/1" value="-1037.4511205425256" leadInLength="28/1"  interpolater="leadin-linr"  />
            <Keyframe id="4952"  time="9526/1" value="-304.89338659085581" leadInLength="30/1"  interpolater="leadin-linr"  />
            <Keyframe id="4953"  time="9609/1" value="-249.25595303229363" leadInLength="30/1"  interpolater="leadin-linr"  />
            <Keyframe id="4954"  time="10083/1" value="-304.89336072624667" leadInLength="30/1"  interpolater="leadin-linr"  />
            <Keyframe id="4955"  time="10450/1" value="-1016.2892002203523" leadInLength="30/1"  interpolater="leadin-linr"  />
            <Keyframe id="4956"  time="10921/1" value="-304.89334885574328" leadInLength="30/1"  interpolater="leadin-linr"  />
            <Keyframe id="4957"  time="10922/1" value="-304.89334885574317" leadInLength="1/1"  interpolater="leadin-linr"  />
            <Keyframe id="4958"  time="10947/1" value="-904.55279310136405" leadInLength="25/1"  interpolater="leadin-linr"  />
            <Keyframe id="4959"  time="11436/1" value="-624.71169274522276" leadInLength="14/1"  interpolater="leadin-linr"  />
            <Keyframe id="4960"  time="11451/1" value="-304.89329233820399" leadInLength="15/1"  interpolater="leadin-linr"  />
            <Keyframe id="4961"  time="11494/1" value="-1065.6412405445496" leadInLength="30/1"  interpolater="leadin-linr"  />
            <Keyframe id="4962"  time="11768/1" value="-291.16775096597576" leadInLength="14/1"  interpolater="leadin-linr"  />
            <Keyframe id="4963"  time="11792/1" value="-246.0696332079151" leadInLength="23/1"  interpolater="leadin-linr"  />
            <Keyframe id="4964"  time="12078/1" value="-251.95199321035537" leadInLength="14/1"  interpolater="leadin-linr"  />
            <Keyframe id="4965"  time="12106/1" value="-304.89323323231764" leadInLength="27/1"  interpolater="leadin-linr"  />
            <Keyframe id="4966"  time="12192/1" value="-257.15348105058479" leadInLength="30/1"  interpolater="leadin-linr"  />
            </Keyframes>
           </InterpolatingParam>
           <InterpolatingParam id="4967" interp="linr"  >
            <Keyframes>
            <Keyframe id="4968"  time="-9999999/1" value="0" leadInLength="0/1"  />
            <Keyframe id="4969"  time="8547/1" value="0" leadInLength="30/1"  interpolater="leadin-linr"  />
            <Keyframe id="4970"  time="9092/1" value="0" leadInLength="30/1"  interpolater="leadin-linr"  />
            <Keyframe id="4971"  time="9120/1" value="0" leadInLength="28/1"  interpolater="leadin-linr"  />
            <Keyframe id="4972"  time="9526/1" value="0" leadInLength="30/1"  interpolater="leadin-linr"  />
            <Keyframe id="4973"  time="9609/1" value="0" leadInLength="30/1"  interpolater="leadin-linr"  />
            <Keyframe id="4974"  time="10083/1" value="0" leadInLength="30/1"  interpolater="leadin-linr"  />
            <Keyframe id="4975"  time="10450/1" value="0" leadInLength="30/1"  interpolater="leadin-linr"  />
            <Keyframe id="4976"  time="10921/1" value="0" leadInLength="30/1"  interpolater="leadin-linr"  />
            <Keyframe id="4977"  time="10922/1" value="0" leadInLength="1/1"  interpolater="leadin-linr"  />
            <Keyframe id="4978"  time="10947/1" value="0" leadInLength="25/1"  interpolater="leadin-linr"  />
            <Keyframe id="4979"  time="11436/1" value="0" leadInLength="14/1"  interpolater="leadin-linr"  />
            <Keyframe id="4980"  time="11451/1" value="0" leadInLength="15/1"  interpolater="leadin-linr"  />
            <Keyframe id="4981"  time="11494/1" value="0" leadInLength="30/1"  interpolater="leadin-linr"  />
            <Keyframe id="4982"  time="11768/1" value="0" leadInLength="14/1"  interpolater="leadin-linr"  />
            <Keyframe id="4983"  time="11792/1" value="0" leadInLength="23/1"  interpolater="leadin-linr"  />
            <Keyframe id="4984"  time="12078/1" value="0" leadInLength="14/1"  interpolater="leadin-linr"  />
            <Keyframe id="4985"  time="12106/1" value="0" leadInLength="27/1"  interpolater="leadin-linr"  />
            <Keyframe id="4986"  time="12192/1" value="0" leadInLength="30/1"  interpolater="leadin-linr"  />
            </Keyframes>
           </InterpolatingParam>
          </VectorParam>
          <VectorParam id="4987"  name="rotation">
           <InterpolatingParam id="4988" interp="linr"  >
            <Keyframes>
            <Keyframe id="4989"  time="-9999999/1" value="0" leadInLength="0/1"  />
            <Keyframe id="4990"  time="8547/1" value="0" leadInLength="30/1"  interpolater="leadin-linr"  />
            <Keyframe id="4991"  time="9092/1" value="0" leadInLength="30/1"  interpolater="leadin-linr"  />
            <Keyframe id="4992"  time="9120/1" value="0" leadInLength="28/1"  interpolater="leadin-linr"  />
            <Keyframe id="4993"  time="9526/1" value="0" leadInLength="30/1"  interpolater="leadin-linr"  />
            <Keyframe id="4994"  time="9609/1" value="0" leadInLength="30/1"  interpolater="leadin-linr"  />
            <Keyframe id="4995"  time="10083/1" value="0" leadInLength="30/1"  interpolater="leadin-linr"  />
            <Keyframe id="4996"  time="10450/1" value="0" leadInLength="30/1"  interpolater="leadin-linr"  />
            <Keyframe id="4997"  time="10921/1" value="0" leadInLength="30/1"  interpolater="leadin-linr"  />
            <Keyframe id="4998"  time="10922/1" value="0" leadInLength="1/1"  interpolater="leadin-linr"  />
            <Keyframe id="4999"  time="10947/1" value="0" leadInLength="25/1"  interpolater="leadin-linr"  />
            <Keyframe id="5000"  time="11436/1" value="0" leadInLength="14/1"  interpolater="leadin-linr"  />
            <Keyframe id="5001"  time="11451/1" value="0" leadInLength="15/1"  interpolater="leadin-linr"  />
            <Keyframe id="5002"  time="11494/1" value="0" leadInLength="30/1"  interpolater="leadin-linr"  />
            <Keyframe id="5003"  time="11768/1" value="0" leadInLength="14/1"  interpolater="leadin-linr"  />
            <Keyframe id="5004"  time="11792/1" value="0" leadInLength="23/1"  interpolater="leadin-linr"  />
            <Keyframe id="5005"  time="12078/1" value="0" leadInLength="14/1"  interpolater="leadin-linr"  />
            <Keyframe id="5006"  time="12106/1" value="0" leadInLength="27/1"  interpolater="leadin-linr"  />
            <Keyframe id="5007"  time="12192/1" value="0" leadInLength="30/1"  interpolater="leadin-linr"  />
            </Keyframes>
           </InterpolatingParam>
           <InterpolatingParam id="5008" interp="linr"  >
            <Keyframes>
            <Keyframe id="5009"  time="-9999999/1" value="0" leadInLength="0/1"  />
            <Keyframe id="5010"  time="8547/1" value="0" leadInLength="30/1"  interpolater="leadin-linr"  />
            <Keyframe id="5011"  time="9092/1" value="0" leadInLength="30/1"  interpolater="leadin-linr"  />
            <Keyframe id="5012"  time="9120/1" value="0" leadInLength="28/1"  interpolater="leadin-linr"  />
            <Keyframe id="5013"  time="9526/1" value="0" leadInLength="30/1"  interpolater="leadin-linr"  />
            <Keyframe id="5014"  time="9609/1" value="0" leadInLength="30/1"  interpolater="leadin-linr"  />
            <Keyframe id="5015"  time="10083/1" value="0" leadInLength="30/1"  interpolater="leadin-linr"  />
            <Keyframe id="5016"  time="10450/1" value="0" leadInLength="30/1"  interpolater="leadin-linr"  />
            <Keyframe id="5017"  time="10921/1" value="0" leadInLength="30/1"  interpolater="leadin-linr"  />
            <Keyframe id="5018"  time="10922/1" value="0" leadInLength="1/1"  interpolater="leadin-linr"  />
            <Keyframe id="5019"  time="10947/1" value="0" leadInLength="25/1"  interpolater="leadin-linr"  />
            <Keyframe id="5020"  time="11436/1" value="0" leadInLength="14/1"  interpolater="leadin-linr"  />
            <Keyframe id="5021"  time="11451/1" value="0" leadInLength="15/1"  interpolater="leadin-linr"  />
            <Keyframe id="5022"  time="11494/1" value="0" leadInLength="30/1"  interpolater="leadin-linr"  />
            <Keyframe id="5023"  time="11768/1" value="0" leadInLength="14/1"  interpolater="leadin-linr"  />
            <Keyframe id="5024"  time="11792/1" value="0" leadInLength="23/1"  interpolater="leadin-linr"  />
            <Keyframe id="5025"  time="12078/1" value="0" leadInLength="14/1"  interpolater="leadin-linr"  />
            <Keyframe id="5026"  time="12106/1" value="0" leadInLength="27/1"  interpolater="leadin-linr"  />
            <Keyframe id="5027"  time="12192/1" value="0" leadInLength="30/1"  interpolater="leadin-linr"  />
            </Keyframes>
           </InterpolatingParam>
           <InterpolatingParam id="5028" interp="linr"  >
            <Keyframes>
            <Keyframe id="5029"  time="-9999999/1" value="0" leadInLength="0/1"  />
            <Keyframe id="5030"  time="8547/1" value="0" leadInLength="30/1"  interpolater="leadin-linr"  />
            <Keyframe id="5031"  time="9092/1" value="0" leadInLength="30/1"  interpolater="leadin-linr"  />
            <Keyframe id="5032"  time="9120/1" value="0" leadInLength="28/1"  interpolater="leadin-linr"  />
            <Keyframe id="5033"  time="9526/1" value="0" leadInLength="30/1"  interpolater="leadin-linr"  />
            <Keyframe id="5034"  time="9609/1" value="0" leadInLength="30/1"  interpolater="leadin-linr"  />
            <Keyframe id="5035"  time="10083/1" value="0" leadInLength="30/1"  interpolater="leadin-linr"  />
            <Keyframe id="5036"  time="10450/1" value="0" leadInLength="30/1"  interpolater="leadin-linr"  />
            <Keyframe id="5037"  time="10921/1" value="0" leadInLength="30/1"  interpolater="leadin-linr"  />
            <Keyframe id="5038"  time="10922/1" value="0" leadInLength="1/1"  interpolater="leadin-linr"  />
            <Keyframe id="5039"  time="10947/1" value="0" leadInLength="25/1"  interpolater="leadin-linr"  />
            <Keyframe id="5040"  time="11436/1" value="0" leadInLength="14/1"  interpolater="leadin-linr"  />
            <Keyframe id="5041"  time="11451/1" value="0" leadInLength="15/1"  interpolater="leadin-linr"  />
            <Keyframe id="5042"  time="11494/1" value="0" leadInLength="30/1"  interpolater="leadin-linr"  />
            <Keyframe id="5043"  time="11768/1" value="0" leadInLength="14/1"  interpolater="leadin-linr"  />
            <Keyframe id="5044"  time="11792/1" value="0" leadInLength="23/1"  interpolater="leadin-linr"  />
            <Keyframe id="5045"  time="12078/1" value="0" leadInLength="14/1"  interpolater="leadin-linr"  />
            <Keyframe id="5046"  time="12106/1" value="0" leadInLength="27/1"  interpolater="leadin-linr"  />
            <Keyframe id="5047"  time="12192/1" value="0" leadInLength="30/1"  interpolater="leadin-linr"  />
            </Keyframes>
           </InterpolatingParam>
          </VectorParam>
          <VectorParam id="5048"  name="shear">
           <InterpolatingParam id="5049" interp="linr"  >
            <Keyframes>
            <Keyframe id="5050"  time="-9999999/1" value="0" leadInLength="0/1"  />
            <Keyframe id="5051"  time="8547/1" value="0" leadInLength="30/1"  interpolater="leadin-linr"  />
            <Keyframe id="5052"  time="9092/1" value="0" leadInLength="30/1"  interpolater="leadin-linr"  />
            <Keyframe id="5053"  time="9120/1" value="0" leadInLength="28/1"  interpolater="leadin-linr"  />
            <Keyframe id="5054"  time="9526/1" value="0" leadInLength="30/1"  interpolater="leadin-linr"  />
            <Keyframe id="5055"  time="9609/1" value="0" leadInLength="30/1"  interpolater="leadin-linr"  />
            <Keyframe id="5056"  time="10083/1" value="0" leadInLength="30/1"  interpolater="leadin-linr"  />
            <Keyframe id="5057"  time="10450/1" value="0" leadInLength="30/1"  interpolater="leadin-linr"  />
            <Keyframe id="5058"  time="10921/1" value="0" leadInLength="30/1"  interpolater="leadin-linr"  />
            <Keyframe id="5059"  time="10922/1" value="0" leadInLength="1/1"  interpolater="leadin-linr"  />
            <Keyframe id="5060"  time="10947/1" value="0" leadInLength="25/1"  interpolater="leadin-linr"  />
            <Keyframe id="5061"  time="11436/1" value="0" leadInLength="14/1"  interpolater="leadin-linr"  />
            <Keyframe id="5062"  time="11451/1" value="0" leadInLength="15/1"  interpolater="leadin-linr"  />
            <Keyframe id="5063"  time="11494/1" value="0" leadInLength="30/1"  interpolater="leadin-linr"  />
            <Keyframe id="5064"  time="11768/1" value="0" leadInLength="14/1"  interpolater="leadin-linr"  />
            <Keyframe id="5065"  time="11792/1" value="0" leadInLength="23/1"  interpolater="leadin-linr"  />
            <Keyframe id="5066"  time="12078/1" value="0" leadInLength="14/1"  interpolater="leadin-linr"  />
            <Keyframe id="5067"  time="12106/1" value="0" leadInLength="27/1"  interpolater="leadin-linr"  />
            <Keyframe id="5068"  time="12192/1" value="0" leadInLength="30/1"  interpolater="leadin-linr"  />
            </Keyframes>
           </InterpolatingParam>
           <InterpolatingParam id="5069" interp="linr"  >
            <Keyframes>
            <Keyframe id="5070"  time="-9999999/1" value="0" leadInLength="0/1"  />
            <Keyframe id="5071"  time="8547/1" value="0" leadInLength="30/1"  interpolater="leadin-linr"  />
            <Keyframe id="5072"  time="9092/1" value="0" leadInLength="30/1"  interpolater="leadin-linr"  />
            <Keyframe id="5073"  time="9120/1" value="0" leadInLength="28/1"  interpolater="leadin-linr"  />
            <Keyframe id="5074"  time="9526/1" value="0" leadInLength="30/1"  interpolater="leadin-linr"  />
            <Keyframe id="5075"  time="9609/1" value="0" leadInLength="30/1"  interpolater="leadin-linr"  />
            <Keyframe id="5076"  time="10083/1" value="0" leadInLength="30/1"  interpolater="leadin-linr"  />
            <Keyframe id="5077"  time="10450/1" value="0" leadInLength="30/1"  interpolater="leadin-linr"  />
            <Keyframe id="5078"  time="10921/1" value="0" leadInLength="30/1"  interpolater="leadin-linr"  />
            <Keyframe id="5079"  time="10922/1" value="0" leadInLength="1/1"  interpolater="leadin-linr"  />
            <Keyframe id="5080"  time="10947/1" value="0" leadInLength="25/1"  interpolater="leadin-linr"  />
            <Keyframe id="5081"  time="11436/1" value="0" leadInLength="14/1"  interpolater="leadin-linr"  />
            <Keyframe id="5082"  time="11451/1" value="0" leadInLength="15/1"  interpolater="leadin-linr"  />
            <Keyframe id="5083"  time="11494/1" value="0" leadInLength="30/1"  interpolater="leadin-linr"  />
            <Keyframe id="5084"  time="11768/1" value="0" leadInLength="14/1"  interpolater="leadin-linr"  />
            <Keyframe id="5085"  time="11792/1" value="0" leadInLength="23/1"  interpolater="leadin-linr"  />
            <Keyframe id="5086"  time="12078/1" value="0" leadInLength="14/1"  interpolater="leadin-linr"  />
            <Keyframe id="5087"  time="12106/1" value="0" leadInLength="27/1"  interpolater="leadin-linr"  />
            <Keyframe id="5088"  time="12192/1" value="0" leadInLength="30/1"  interpolater="leadin-linr"  />
            </Keyframes>
           </InterpolatingParam>
           <InterpolatingParam id="5089" interp="linr"  >
            <Keyframes>
            <Keyframe id="5090"  time="-9999999/1" value="0" leadInLength="0/1"  />
            <Keyframe id="5091"  time="8547/1" value="0" leadInLength="30/1"  interpolater="leadin-linr"  />
            <Keyframe id="5092"  time="9092/1" value="0" leadInLength="30/1"  interpolater="leadin-linr"  />
            <Keyframe id="5093"  time="9120/1" value="0" leadInLength="28/1"  interpolater="leadin-linr"  />
            <Keyframe id="5094"  time="9526/1" value="0" leadInLength="30/1"  interpolater="leadin-linr"  />
            <Keyframe id="5095"  time="9609/1" value="0" leadInLength="30/1"  interpolater="leadin-linr"  />
            <Keyframe id="5096"  time="10083/1" value="0" leadInLength="30/1"  interpolater="leadin-linr"  />
            <Keyframe id="5097"  time="10450/1" value="0" leadInLength="30/1"  interpolater="leadin-linr"  />
            <Keyframe id="5098"  time="10921/1" value="0" leadInLength="30/1"  interpolater="leadin-linr"  />
            <Keyframe id="5099"  time="10922/1" value="0" leadInLength="1/1"  interpolater="leadin-linr"  />
            <Keyframe id="5100"  time="10947/1" value="0" leadInLength="25/1"  interpolater="leadin-linr"  />
            <Keyframe id="5101"  time="11436/1" value="0" leadInLength="14/1"  interpolater="leadin-linr"  />
            <Keyframe id="5102"  time="11451/1" value="0" leadInLength="15/1"  interpolater="leadin-linr"  />
            <Keyframe id="5103"  time="11494/1" value="0" leadInLength="30/1"  interpolater="leadin-linr"  />
            <Keyframe id="5104"  time="11768/1" value="0" leadInLength="14/1"  interpolater="leadin-linr"  />
            <Keyframe id="5105"  time="11792/1" value="0" leadInLength="23/1"  interpolater="leadin-linr"  />
            <Keyframe id="5106"  time="12078/1" value="0" leadInLength="14/1"  interpolater="leadin-linr"  />
            <Keyframe id="5107"  time="12106/1" value="0" leadInLength="27/1"  interpolater="leadin-linr"  />
            <Keyframe id="5108"  time="12192/1" value="0" leadInLength="30/1"  interpolater="leadin-linr"  />
            </Keyframes>
           </InterpolatingParam>
          </VectorParam>
          <VectorParam id="5109"  name="scale">
           <InterpolatingParam id="5110" interp="linr"  >
            <Keyframes>
            <Keyframe id="5111"  time="-9999999/1" value="0.32099514563184561" leadInLength="0/1"  />
            <Keyframe id="5112"  time="8547/1" value="0.77704093914764338" leadInLength="30/1"  interpolater="leadin-linr"  />
            <Keyframe id="5113"  time="9092/1" value="0.32099514563184567" leadInLength="30/1"  interpolater="leadin-linr"  />
            <Keyframe id="5114"  time="9120/1" value="0.81055966672611279" leadInLength="28/1"  interpolater="leadin-linr"  />
            <Keyframe id="5115"  time="9526/1" value="0.32099514563184589" leadInLength="30/1"  interpolater="leadin-linr"  />
            <Keyframe id="5116"  time="9609/1" value="0.64703818746250097" leadInLength="30/1"  interpolater="leadin-linr"  />
            <Keyframe id="5117"  time="10083/1" value="0.32099514563184595" leadInLength="30/1"  interpolater="leadin-linr"  />
            <Keyframe id="5118"  time="10450/1" value="0.81919143745097645" leadInLength="30/1"  interpolater="leadin-linr"  />
            <Keyframe id="5119"  time="10921/1" value="0.32099514563184584" leadInLength="30/1"  interpolater="leadin-linr"  />
            <Keyframe id="5120"  time="10922/1" value="0.32099514563184589" leadInLength="1/1"  interpolater="leadin-linr"  />
            <Keyframe id="5121"  time="10947/1" value="0.70334622355812682" leadInLength="25/1"  interpolater="leadin-linr"  />
            <Keyframe id="5122"  time="11436/1" value="0.52491572052586255" leadInLength="14/1"  interpolater="leadin-linr"  />
            <Keyframe id="5123"  time="11451/1" value="0.32099514563184617" leadInLength="15/1"  interpolater="leadin-linr"  />
            <Keyframe id="5124"  time="11494/1" value="0.85280612648007326" leadInLength="30/1"  interpolater="leadin-linr"  />
            <Keyframe id="5125"  time="11768/1" value="0.4009458756192768" leadInLength="14/1"  interpolater="leadin-linr"  />
            <Keyframe id="5126"  time="11792/1" value="0.6636411312922631" leadInLength="23/1"  interpolater="leadin-linr"  />
            <Keyframe id="5127"  time="12078/1" value="0.6293765327262214" leadInLength="14/1"  interpolater="leadin-linr"  />
            <Keyframe id="5128"  time="12106/1" value="0.32099514563184606" leadInLength="27/1"  interpolater="leadin-linr"  />
            <Keyframe id="5129"  time="12192/1" value="0.59907771037472601" leadInLength="30/1"  interpolater="leadin-linr"  />
            </Keyframes>
           </InterpolatingParam>
           <InterpolatingParam id="5130" interp="linr"  >
            <Keyframes>
            <Keyframe id="5131"  time="-9999999/1" value="0.32099514563159554" leadInLength="0/1"  />
            <Keyframe id="5132"  time="8547/1" value="0.77704099220703982" leadInLength="30/1"  interpolater="leadin-linr"  />
            <Keyframe id="5133"  time="9092/1" value="0.32099515813332014" leadInLength="30/1"  interpolater="leadin-linr"  />
            <Keyframe id="5134"  time="9120/1" value="0.81055992965229173" leadInLength="28/1"  interpolater="leadin-linr"  />
            <Keyframe id="5135"  time="9526/1" value="0.32099524975499738" leadInLength="30/1"  interpolater="leadin-linr"  />
            <Keyframe id="5136"  time="9609/1" value="0.64703834245688618" leadInLength="30/1"  interpolater="leadin-linr"  />
            <Keyframe id="5137"  time="10083/1" value="0.32099522252444063" leadInLength="30/1"  interpolater="leadin-linr"  />
            <Keyframe id="5138"  time="10450/1" value="0.8191916017898806" leadInLength="30/1"  interpolater="leadin-linr"  />
            <Keyframe id="5139"  time="10921/1" value="0.32099521002703857" leadInLength="30/1"  interpolater="leadin-linr"  />
            <Keyframe id="5140"  time="10922/1" value="0.32099521002703857" leadInLength="1/1"  interpolater="leadin-linr"  />
            <Keyframe id="5141"  time="10947/1" value="0.70334623427912579" leadInLength="25/1"  interpolater="leadin-linr"  />
            <Keyframe id="5142"  time="11436/1" value="0.52491572852707258" leadInLength="14/1"  interpolater="leadin-linr"  />
            <Keyframe id="5143"  time="11451/1" value="0.32099515052472594" leadInLength="15/1"  interpolater="leadin-linr"  />
            <Keyframe id="5144"  time="11494/1" value="0.85280606319787278" leadInLength="30/1"  interpolater="leadin-linr"  />
            <Keyframe id="5145"  time="11768/1" value="0.40094582969935749" leadInLength="14/1"  interpolater="leadin-linr"  />
            <Keyframe id="5146"  time="11792/1" value="0.66364101275615528" leadInLength="23/1"  interpolater="leadin-linr"  />
            <Keyframe id="5147"  time="12078/1" value="0.62937642031027696" leadInLength="14/1"  interpolater="leadin-linr"  />
            <Keyframe id="5148"  time="12106/1" value="0.32099508829737172" leadInLength="27/1"  interpolater="leadin-linr"  />
            <Keyframe id="5149"  time="12192/1" value="0.5990775186738535" leadInLength="30/1"  interpolater="leadin-linr"  />
            </Keyframes>
           </InterpolatingParam>
           <InterpolatingParam id="5150" interp="linr"  >
            <Keyframes>
            <Keyframe id="5151"  time="-9999999/1" value="1" leadInLength="0/1"  />
            <Keyframe id="5152"  time="8547/1" value="0.99999999999999978" leadInLength="30/1"  interpolater="leadin-linr"  />
            <Keyframe id="5153"  time="9092/1" value="1" leadInLength="30/1"  interpolater="leadin-linr"  />
            <Keyframe id="5154"  time="9120/1" value="0.99999999999999989" leadInLength="28/1"  interpolater="leadin-linr"  />
            <Keyframe id="5155"  time="9526/1" value="0.99999999999999978" leadInLength="30/1"  interpolater="leadin-linr"  />
            <Keyframe id="5156"  time="9609/1" value="0.99999999999999978" leadInLength="30/1"  interpolater="leadin-linr"  />
            <Keyframe id="5157"  time="10083/1" value="1" leadInLength="30/1"  interpolater="leadin-linr"  />
            <Keyframe id="5158"  time="10450/1" value="0.99999999999999989" leadInLength="30/1"  interpolater="leadin-linr"  />
            <Keyframe id="5159"  time="10921/1" value="0.99999999999999989" leadInLength="30/1"  interpolater="leadin-linr"  />
            <Keyframe id="5160"  time="10922/1" value="0.99999999999999989" leadInLength="1/1"  interpolater="leadin-linr"  />
            <Keyframe id="5161"  time="10947/1" value="0.99999999999999978" leadInLength="25/1"  interpolater="leadin-linr"  />
            <Keyframe id="5162"  time="11436/1" value="0.99999999999999978" leadInLength="14/1"  interpolater="leadin-linr"  />
            <Keyframe id="5163"  time="11451/1" value="0.99999999999999978" leadInLength="15/1"  interpolater="leadin-linr"  />
            <Keyframe id="5164"  time="11494/1" value="0.99999999999999933" leadInLength="30/1"  interpolater="leadin-linr"  />
            <Keyframe id="5165"  time="11768/1" value="0.99999999999999911" leadInLength="14/1"  interpolater="leadin-linr"  />
            <Keyframe id="5166"  time="11792/1" value="0.99999999999999911" leadInLength="23/1"  interpolater="leadin-linr"  />
            <Keyframe id="5167"  time="12078/1" value="0.99999999999999911" leadInLength="14/1"  interpolater="leadin-linr"  />
            <Keyframe id="5168"  time="12106/1" value="0.99999999999999867" leadInLength="27/1"  interpolater="leadin-linr"  />
            <Keyframe id="5169"  time="12192/1" value="0.99999999999999867" leadInLength="30/1"  interpolater="leadin-linr"  />
            </Keyframes>
           </InterpolatingParam>
          </VectorParam>
          <VectorParam id="5170"  name="anchor">
           <InterpolatingParam id="5171" interp="linr"  time="0/1" value="0" leadInLength="0/1"  />
           <InterpolatingParam id="5172" interp="linr"  time="0/1" value="0" leadInLength="0/1"  />
           <InterpolatingParam id="5173" interp="linr"  time="0/1" value="0" leadInLength="0/1"  />
          </VectorParam>
         </Transformer>
         <Parameters>
          <VectorParam id="5174"  name="sourceCrop">
           <InterpolatingParam id="5175" interp="linr"  time="0/1" value="0" leadInLength="0/1"  />
           <InterpolatingParam id="5176" interp="linr"  time="0/1" value="0" leadInLength="0/1"  />
           <InterpolatingParam id="5177" interp="linr"  time="0/1" value="0" leadInLength="0/1"  />
           <InterpolatingParam id="5178" interp="linr"  time="0/1" value="0" leadInLength="0/1"  />
          </VectorParam>
          <VectorParam id="5179"  name="geometryCrop">
           <InterpolatingParam id="5180" interp="linr"  >
            <Keyframes>
            <Keyframe id="5181"  time="-9999999/1" value="57.37051792691193" leadInLength="0/1"  />
            <Keyframe id="5182"  time="8547/1" value="57.37051792691193" leadInLength="30/1"  interpolater="leadin-linr"  />
            <Keyframe id="5183"  time="9092/1" value="57.37051792691193" leadInLength="30/1"  interpolater="leadin-linr"  />
            <Keyframe id="5184"  time="9120/1" value="57.37051792691193" leadInLength="28/1"  interpolater="leadin-linr"  />
            <Keyframe id="5185"  time="9526/1" value="57.37051792691193" leadInLength="30/1"  interpolater="leadin-linr"  />
            <Keyframe id="5186"  time="9609/1" value="57.37051792691193" leadInLength="30/1"  interpolater="leadin-linr"  />
            <Keyframe id="5187"  time="10083/1" value="57.37051792691193" leadInLength="30/1"  interpolater="leadin-linr"  />
            <Keyframe id="5188"  time="10450/1" value="57.37051792691193" leadInLength="30/1"  interpolater="leadin-linr"  />
            <Keyframe id="5189"  time="10921/1" value="57.37051792691193" leadInLength="30/1"  interpolater="leadin-linr"  />
            <Keyframe id="5190"  time="10922/1" value="57.37051792691193" leadInLength="1/1"  interpolater="leadin-linr"  />
            <Keyframe id="5191"  time="10947/1" value="57.37051792691193" leadInLength="25/1"  interpolater="leadin-linr"  />
            <Keyframe id="5192"  time="11436/1" value="57.37051792691193" leadInLength="14/1"  interpolater="leadin-linr"  />
            <Keyframe id="5193"  time="11451/1" value="57.37051792691193" leadInLength="15/1"  interpolater="leadin-linr"  />
            <Keyframe id="5194"  time="11494/1" value="57.37051792691193" leadInLength="30/1"  interpolater="leadin-linr"  />
            <Keyframe id="5195"  time="11768/1" value="57.37051792691193" leadInLength="14/1"  interpolater="leadin-linr"  />
            <Keyframe id="5196"  time="11792/1" value="57.37051792691193" leadInLength="23/1"  interpolater="leadin-linr"  />
            <Keyframe id="5197"  time="12078/1" value="57.37051792691193" leadInLength="14/1"  interpolater="leadin-linr"  />
            <Keyframe id="5198"  time="12106/1" value="57.37051792691193" leadInLength="27/1"  interpolater="leadin-linr"  />
            <Keyframe id="5199"  time="12192/1" value="57.37051792691193" leadInLength="30/1"  interpolater="leadin-linr"  />
            </Keyframes>
           </InterpolatingParam>
           <InterpolatingParam id="5200" interp="linr"  >
            <Keyframes>
            <Keyframe id="5201"  time="-9999999/1" value="0" leadInLength="0/1"  />
            <Keyframe id="5202"  time="8547/1" value="0" leadInLength="30/1"  interpolater="leadin-linr"  />
            <Keyframe id="5203"  time="9092/1" value="0" leadInLength="30/1"  interpolater="leadin-linr"  />
            <Keyframe id="5204"  time="9120/1" value="0" leadInLength="28/1"  interpolater="leadin-linr"  />
            <Keyframe id="5205"  time="9526/1" value="0" leadInLength="30/1"  interpolater="leadin-linr"  />
            <Keyframe id="5206"  time="9609/1" value="0" leadInLength="30/1"  interpolater="leadin-linr"  />
            <Keyframe id="5207"  time="10083/1" value="0" leadInLength="30/1"  interpolater="leadin-linr"  />
            <Keyframe id="5208"  time="10450/1" value="0" leadInLength="30/1"  interpolater="leadin-linr"  />
            <Keyframe id="5209"  time="10921/1" value="0" leadInLength="30/1"  interpolater="leadin-linr"  />
            <Keyframe id="5210"  time="10922/1" value="0" leadInLength="1/1"  interpolater="leadin-linr"  />
            <Keyframe id="5211"  time="10947/1" value="0" leadInLength="25/1"  interpolater="leadin-linr"  />
            <Keyframe id="5212"  time="11436/1" value="0" leadInLength="14/1"  interpolater="leadin-linr"  />
            <Keyframe id="5213"  time="11451/1" value="0" leadInLength="15/1"  interpolater="leadin-linr"  />
            <Keyframe id="5214"  time="11494/1" value="0" leadInLength="30/1"  interpolater="leadin-linr"  />
            <Keyframe id="5215"  time="11768/1" value="0" leadInLength="14/1"  interpolater="leadin-linr"  />
            <Keyframe id="5216"  time="11792/1" value="0" leadInLength="23/1"  interpolater="leadin-linr"  />
            <Keyframe id="5217"  time="12078/1" value="0" leadInLength="14/1"  interpolater="leadin-linr"  />
            <Keyframe id="5218"  time="12106/1" value="0" leadInLength="27/1"  interpolater="leadin-linr"  />
            <Keyframe id="5219"  time="12192/1" value="0" leadInLength="30/1"  interpolater="leadin-linr"  />
            </Keyframes>
           </InterpolatingParam>
           <InterpolatingParam id="5220" interp="linr"  >
            <Keyframes>
            <Keyframe id="5221"  time="-9999999/1" value="57.370517929513483" leadInLength="0/1"  />
            <Keyframe id="5222"  time="8547/1" value="57.370517929513483" leadInLength="30/1"  interpolater="leadin-linr"  />
            <Keyframe id="5223"  time="9092/1" value="57.370517929513483" leadInLength="30/1"  interpolater="leadin-linr"  />
            <Keyframe id="5224"  time="9120/1" value="57.370517929513483" leadInLength="28/1"  interpolater="leadin-linr"  />
            <Keyframe id="5225"  time="9526/1" value="57.370517929513483" leadInLength="30/1"  interpolater="leadin-linr"  />
            <Keyframe id="5226"  time="9609/1" value="57.370517929513483" leadInLength="30/1"  interpolater="leadin-linr"  />
            <Keyframe id="5227"  time="10083/1" value="57.370517929513483" leadInLength="30/1"  interpolater="leadin-linr"  />
            <Keyframe id="5228"  time="10450/1" value="57.370517929513483" leadInLength="30/1"  interpolater="leadin-linr"  />
            <Keyframe id="5229"  time="10921/1" value="57.370517929513483" leadInLength="30/1"  interpolater="leadin-linr"  />
            <Keyframe id="5230"  time="10922/1" value="57.370517929513483" leadInLength="1/1"  interpolater="leadin-linr"  />
            <Keyframe id="5231"  time="10947/1" value="57.370517929513483" leadInLength="25/1"  interpolater="leadin-linr"  />
            <Keyframe id="5232"  time="11436/1" value="57.370517929513483" leadInLength="14/1"  interpolater="leadin-linr"  />
            <Keyframe id="5233"  time="11451/1" value="57.370517929513483" leadInLength="15/1"  interpolater="leadin-linr"  />
            <Keyframe id="5234"  time="11494/1" value="57.370517929513483" leadInLength="30/1"  interpolater="leadin-linr"  />
            <Keyframe id="5235"  time="11768/1" value="57.370517929513483" leadInLength="14/1"  interpolater="leadin-linr"  />
            <Keyframe id="5236"  time="11792/1" value="57.370517929513483" leadInLength="23/1"  interpolater="leadin-linr"  />
            <Keyframe id="5237"  time="12078/1" value="57.370517929513483" leadInLength="14/1"  interpolater="leadin-linr"  />
            <Keyframe id="5238"  time="12106/1" value="57.370517929513483" leadInLength="27/1"  interpolater="leadin-linr"  />
            <Keyframe id="5239"  time="12192/1" value="57.370517929513483" leadInLength="30/1"  interpolater="leadin-linr"  />
            </Keyframes>
           </InterpolatingParam>
           <InterpolatingParam id="5240" interp="linr"  >
            <Keyframes>
            <Keyframe id="5241"  time="-9999999/1" value="68.844621513631637" leadInLength="0/1"  />
            <Keyframe id="5242"  time="8547/1" value="68.844621513631637" leadInLength="30/1"  interpolater="leadin-linr"  />
            <Keyframe id="5243"  time="9092/1" value="68.844621513631637" leadInLength="30/1"  interpolater="leadin-linr"  />
            <Keyframe id="5244"  time="9120/1" value="68.844621513631637" leadInLength="28/1"  interpolater="leadin-linr"  />
            <Keyframe id="5245"  time="9526/1" value="68.844621513631637" leadInLength="30/1"  interpolater="leadin-linr"  />
            <Keyframe id="5246"  time="9609/1" value="68.844621513631637" leadInLength="30/1"  interpolater="leadin-linr"  />
            <Keyframe id="5247"  time="10083/1" value="68.844621513631637" leadInLength="30/1"  interpolater="leadin-linr"  />
            <Keyframe id="5248"  time="10450/1" value="68.844621513631637" leadInLength="30/1"  interpolater="leadin-linr"  />
            <Keyframe id="5249"  time="10921/1" value="68.844621513631637" leadInLength="30/1"  interpolater="leadin-linr"  />
            <Keyframe id="5250"  time="10922/1" value="68.844621513631637" leadInLength="1/1"  interpolater="leadin-linr"  />
            <Keyframe id="5251"  time="10947/1" value="68.844621513631637" leadInLength="25/1"  interpolater="leadin-linr"  />
            <Keyframe id="5252"  time="11436/1" value="68.844621513631637" leadInLength="14/1"  interpolater="leadin-linr"  />
            <Keyframe id="5253"  time="11451/1" value="68.844621513631637" leadInLength="15/1"  interpolater="leadin-linr"  />
            <Keyframe id="5254"  time="11494/1" value="68.844621513631637" leadInLength="30/1"  interpolater="leadin-linr"  />
            <Keyframe id="5255"  time="11768/1" value="68.844621513631637" leadInLength="14/1"  interpolater="leadin-linr"  />
            <Keyframe id="5256"  time="11792/1" value="68.844621513631637" leadInLength="23/1"  interpolater="leadin-linr"  />
            <Keyframe id="5257"  time="12078/1" value="68.844621513631637" leadInLength="14/1"  interpolater="leadin-linr"  />
            <Keyframe id="5258"  time="12106/1" value="68.844621513631637" leadInLength="27/1"  interpolater="leadin-linr"  />
            <Keyframe id="5259"  time="12192/1" value="68.844621513631637" leadInLength="30/1"  interpolater="leadin-linr"  />
            </Keyframes>
           </InterpolatingParam>
          </VectorParam>
          <InterpolatingParam id="5260" interp="linr"  name="opacity">
           <Keyframes>
           <Keyframe id="5261"  time="-9999999/1" value="1" leadInLength="0/1"  />
           <Keyframe id="5262"  time="8547/1" value="1" leadInLength="30/1"  interpolater="leadin-linr"  />
           <Keyframe id="5263"  time="9092/1" value="1" leadInLength="30/1"  interpolater="leadin-linr"  />
           <Keyframe id="5264"  time="9120/1" value="1" leadInLength="28/1"  interpolater="leadin-linr"  />
           <Keyframe id="5265"  time="9526/1" value="1" leadInLength="30/1"  interpolater="leadin-linr"  />
           <Keyframe id="5266"  time="9609/1" value="1" leadInLength="30/1"  interpolater="leadin-linr"  />
           <Keyframe id="5267"  time="10083/1" value="1" leadInLength="30/1"  interpolater="leadin-linr"  />
           <Keyframe id="5268"  time="10450/1" value="1" leadInLength="30/1"  interpolater="leadin-linr"  />
           <Keyframe id="5269"  time="10921/1" value="1" leadInLength="30/1"  interpolater="leadin-linr"  />
           <Keyframe id="5270"  time="10922/1" value="1" leadInLength="1/1"  interpolater="leadin-linr"  />
           <Keyframe id="5271"  time="10947/1" value="1" leadInLength="25/1"  interpolater="leadin-linr"  />
           <Keyframe id="5272"  time="11436/1" value="1" leadInLength="14/1"  interpolater="leadin-linr"  />
           <Keyframe id="5273"  time="11451/1" value="1" leadInLength="15/1"  interpolater="leadin-linr"  />
           <Keyframe id="5274"  time="11494/1" value="1" leadInLength="30/1"  interpolater="leadin-linr"  />
           <Keyframe id="5275"  time="11768/1" value="1" leadInLength="14/1"  interpolater="leadin-linr"  />
           <Keyframe id="5276"  time="11792/1" value="1" leadInLength="23/1"  interpolater="leadin-linr"  />
           <Keyframe id="5277"  time="12078/1" value="1" leadInLength="14/1"  interpolater="leadin-linr"  />
           <Keyframe id="5278"  time="12106/1" value="1" leadInLength="27/1"  interpolater="leadin-linr"  />
           <Keyframe id="5279"  time="12192/1" value="1" leadInLength="30/1"  interpolater="leadin-linr"  />
           </Keyframes>
          </InterpolatingParam>
          <InterpolatingParam id="5280" interp="linr"  time="0/1" value="1" leadInLength="0/1"  name="cursorOpacity"/>
          <InterpolatingParam id="5281" interp="linr"  time="0/1" value="1" leadInLength="0/1"  name="cursorScale"/>
          <InterpolatingParam id="5282" interp="linr"  time="0/1" value="1" leadInLength="0/1"  name="volume"/>
          <Parameter id="5283"  name="captions"/>
         </Parameters>
         <Effects>
          <GenericEffect id="5284" name = "NoiseReduction" >
           <Parameters>
           <InterpolatingParam id="5285" interp="linr"  time="0/1" value="27.599999999999998" leadInLength="0/1"   name="denoiserAmount"/>
           <InterpolatingParam id="5286" interp="linr"  time="0/1" value="2.2799999999999994" leadInLength="0/1"   name="denoiserThreshold"/>
           <Parameter id="5287"   name="noiseProfile">
            <Keyframes>
            <Keyframe id="5288"  time="0/1" value="FBAAAAIAAABErAAAAQIAAJSJT8IYkD/CUp5Mwr8tUMKnek3C1EZHwgPZTMJzR1PCy3pOwobbTcJi&#xD;&#xa;/EXC8ohEwuKAUcLYU1vCCy1mwgunasJckWjCrpBrwuC7Z8Jq4F7CTgpgwvvSZMJi+GTCiPBkwjjT&#xD;&#xa;ZcLa22fCPRhqwtyga8LALXHCZ5VzwpWlcsLqqHPCaYFywrg7d8I5P3nCNKh5wlwzeMKnXHfCZYt4&#xD;&#xa;wpx8eMJpVXXCfbx9wkwwgsK/4H/CaiB/wkARgsL7MYjCaKCIwuG5hMINI4bC8viDwpg3hcL5DIbC&#xD;&#xa;3pSJwh0Hi8LFjYjCk8iIwninicL0N43CgSaLwk76i8K1iY7CDGaPwsg4i8K22YLCyL5+wgI/hsKA&#xD;&#xa;6ZDCaLqTwooUlcIYSpfC9GCUwj+xlsIuupfCgCGUwup7lMJyyJXC8/WWwqQzm8Ih0JvCHKeawlIB&#xD;&#xa;msKVh5nCsJGXwrorl8KqTpvCasOawnionMKy7Z3Cfn2ewn1NoMK81aLCbNmfwv76ncKXsJ/CfvKg&#xD;&#xa;ws+tn8I5fKDC2pegwmbUoMJYuqHCxLmjwubCoMK6F5/CInCgwlr+oMJ/eKDC/9OhwrylosLWm6HC&#xD;&#xa;Eb6hwoosocKknKLCjMGiwkucoMJCeaDCWsmgwnQDocKPB6PCq5GlwsuQoML7BZ/CpH6iwjSGoMKc&#xD;&#xa;WKHCqCukwpf5osJwJaLCGwmgwlC6n8L4FaLCPCqlwiSWocLjgKXC4/qkwpeLpMKefKXCrkulwtED&#xD;&#xa;o8Lgb6DCuniiwq1LpcJAGaXC5E+lwge9o8Izl6LC3iOmwnHRpMKgvqDCKrKewgiyocLx86PChsil&#xD;&#xa;wkFPpsIJ06XCsNekwp39pMJyuqTCl1ynwtlqpsIWtKLCIyehwqaNocKUp6LC18mjwvBAo8LMz6LC&#xD;&#xa;azOlwtQzp8JGDajC3cKlwtJYpMJ0oabCHJinwiojpcLJrKTCFlikwvyqo8Lo3KXCAWGowh4mqcJe&#xD;&#xa;OaXCo0+lwqhGpsKlkabCLOqlwsvVpcIzq6bCbRWnwiztp8LAZ6jCLyCqwnT4p8LCfaXCmg2owhDG&#xD;&#xa;p8JKj6bCT82qwmOHrMIlk6vCIQKrwmWBq8LRO6zCSpeswmhaq8KGT6zCBqqrwstsqcIwH6vCZoer&#xD;&#xa;wvsFqsLY0anCjFirwkw8rMLwTa7Cn7WtwjUersJ7X63CVautwm4UsMJmrq3CgqCtwrUMr8L8TK7C&#xD;&#xa;OqWtwnj6sMJeJbLCdi2zwsRCtsKS+7LCUEaxwur/scJVWrHC9auywgi1tcJSSrfC5zK4wsT2t8IV&#xD;&#xa;/bLCLDm0wiwsuMJQKrnClDu4wiJztsIskLfC+O64wvOAucKAp7jCfo+2wlThtcKBdLXCREO2wjiv&#xD;&#xa;ucJ0KbnCiNa3wg8nuMLKKrnCij66wtrYt8Iyw7rC0NO8wtn5u8JQ6bjCQ4+3woMIt8J6a7fCEJO6&#xD;&#xa;wnu8usLtxrfCjMu2wrxbusL6ebzCRFS8wlkju8JvWrrCtTG7whKPuMKYprbCm6O2wpartcJevrbC&#xD;&#xa;5pi3wnR0t8K1p7nCSym6wi73t8J2WbnCklm5wq/nt8JqrrfCJB+7wpViusIcQLvCX/i6woJ9ucLb&#xD;&#xa;17fCaY+4wsLBt8KfT7jCWEG6wpR7vMJAVbzCWjO7wkcxvMJww7vCe7q6wqXEuMIWhLbCd0+2wop3&#xD;&#xa;t8IDy7fCiDC4whaJucJ+QLrCA+q4wlTqt8Jj7bbCqja3whbktcJAAbnCxKS8wlx2u8LSe7rCyOy7&#xD;&#xa;wleIvMJ5NLnCijS3wu/NvMKkCcHCFWS9wjNTvcJ9FLvCKoS7wkDwvsImKr/Chre8wsCxusLXBLvC&#xD;&#xa;Dq28wka8usLfGrzChp6/wqoGv8IMr7rC2HW4whWcvMJgML3CqhO+wrkMvsJuTr/C0JC9wjofvMKt&#xD;&#xa;eMPC+5/Kwsg4yMIBtMbCJH7Lwsae08JcB9HColbOwgo7ysIq88rChnzOwhqd0MJYO9LCkDfQwlPj&#xD;&#xa;z8IcWtDCpg/RwqhV08Ik/NbCl63Xwnp+3cJczNvCoCTcwvx32MIAYNzCVS3fwm7c2cLEg9fCGG7d&#xD;&#xa;wm1+28K9wtLC6I3Twqdf1cL+UtrC8hnbwnY+2MJ0hdrCEsHdwgzw28LBRdzCNiPdwhyQ28JE69jC&#xD;&#xa;FgDXwgDA2cJjCtzCkxzYwilb2ML3Kd/CQA3iwtZm5MKCQunCdx/pwvwE6cJqTuDClu/hwkoD38LG&#xD;&#xa;+t7C/bTcwl8U48L4zOTC1MrjwsRo4cLxfNnC2ancwveq6cLPKPPC19r1wnGg9sIuEfnCUKb6wift&#xD;&#xa;98L/zPbCZAz1wqob9MIyNPXClh/2wjmQ9MKcj/fCwLL3wmxr98KDrPfCWBj5wlDt+MIUXfjCp/b3&#xD;&#xa;wnwV9sKGWfnCApH5wuBK9sJMsvbCVoX4wipt+8LggfjCUur3wsAg+sK6GPnCnJ/3wjF298KyN/fC&#xD;&#xa;eiH7wva2+cJvtfbCQML3wkr4+MI0GvbCylL2wvs+98L24/jCfs/5wric+sIKsvbCcuT2wgSV98Io&#xD;&#xa;rPbCDK/3wlwy+sII1vnCrLj3wh9g+MJo5vjCqq32woAH9sLUjvbCTOr0wnSh9sIqVfjCfCf3wkAR&#xD;&#xa;+cL0PfvCvp/6whCB9sLe5PbC5Bn4wkpb98JgIPXClC33wqJw9cJEEPTCdET2wjwr9sK4ePXCiOj2&#xD;&#xa;wrCJ+8Kmp/bCPDL2wuQJ98KyS/fCUnj3woip+MKuUvnCQNr4wlQj+MI28ffCEFX4wlx49cJGKfbC&#xD;&#xa;BNr5wiB8+cKGwvbCfQsDw7WJT8KCkD/CyJ5MwsQtUML9ek3CzEZHwjPZTMKcR1PC2HpOwr3bTcKq&#xD;&#xa;/EXCAYlEwjCBUcLvU1vCkCxmwnmoasL6kGjCAI9rwsK6Z8IR4F7CeAlgwtrRZMIZ+GTCePBkwlDT&#xD;&#xa;ZcJQ3GfC+RdqwrCha8LuLXHCNJRzwqylcsJkqXPCYIJywkU7d8KgPXnCO6Z5whIyeMIMW3fCMIl4&#xD;&#xa;wlJ6eMJOVXXCQ7x9wtIxgsLH4H/C+R5/wgoPgsJnLojCPJ6Iwgu6hMKeI4bCVfqDwjA4hcIEC4bC&#xD;&#xa;05OJwh0Ii8K9jojCSceIwv6licLKNY3CbCWLwor4i8IniI7CrGWPwsw6i8J02oLCy8J+wjpAhsI0&#xD;&#xa;6ZDCz72TwlkYlcKgS5fC5GKUwvS1lsJVv5fCLiSUwl1+lMLuzJXCzPeWwuowm8L6yZvC0qqawsQJ&#xD;&#xa;msLDhJnChI6XwpAml8LWSpvCIcWawsGqnMK/8J3CdnuewhlVoMKE3aLCntyfwqUBnsKftZ/Cee6g&#xD;&#xa;wsSqn8KHfqDChJ2gwjjRoMLGsqHCoLKjwp/AoMJsFZ/C9mqgwt/8oMIOeaDCMt2hwk2rosKVnaHC&#xD;&#xa;g8ShwswtocL3maLCx8Ciwp6hoMLBe6DCJsKgwsj/oMIEA6PCKoqlwvqPoML5CJ/Cr3qiwjuJoMKs&#xD;&#xa;WqHCWTGkwiIFo8JKKaLClwegwuqvn8IUFaLCTy+lwl6aocJniqXCrgWlwqGNpMIQdKXCjkulwqYL&#xD;&#xa;o8IkbaDCN3KiwsVIpcK4F6XCtEylwlmxo8Jgk6LCUCumwn7epMLtzaDCOLqewvy1ocLY7qPCEsWl&#xD;&#xa;wqdPpsIs0aXCDdCkwh7+pMIntKTCeE6nwhJupsKvuaLC9Sahwg+HocLmpKLCdMejwvhDo8KW0aLC&#xD;&#xa;IzWlwgIpp8KcDKjCIL6lws5UpML+pqbCC52nwnEfpcJupaTCWFGkwhOlo8KE3qXCVlmowqQqqcIM&#xD;&#xa;PaXCLU+lwmlOpsJRhKbCytGlwlPLpcKGqabCfxOnwmThp8LZWajCrh2qwmQAqML3hqXCbyGowj7O&#xD;&#xa;p8KzmKbCE9WqwvOJrMJDoqvCARarwgppq8ItPqzC1Ziswl9Kq8KYNazCPtCrwh6WqcLoI6vCJI2r&#xD;&#xa;wlYOqsJu8KnC/oirwvRWrMIUQa7CKLetwi0nrsKyia3C4tOtwpxBsMJM2a3C+rCtwqsLr8J+X67C&#xD;&#xa;r56twhszscLKmLLCaJOzwqxptsJfN7PC4F6xwiOrscK7jbHCFGOzwnfmtcI5ZrfCFIu4wvhTuMKA&#xD;&#xa;LbPClF+0wnFZuMLIK7nCqCW4wvBktsL3gbfC2Pe4wp2XucIdsbjCDpi2wgXatcJRbrXCvEm2wmnS&#xD;&#xa;ucJEP7nCrfC3wnFAuML5N7nCIEm6wrDGt8LcxLrCos68wpDvu8JQ9LjC7J63wsUrt8K7eLfCEpe6&#xD;&#xa;wk/BusL66LfCIAe3wp57usIrcbzCbUO8wrsUu8IScbrCVii7wqiDuMLSpLbC9K+2ws/NtcKu5LbC&#xD;&#xa;ncK3wqSBt8Lfu7nCwFC6wurgt8LURLnCZEm5wjrpt8JHqbfC1hy7wl5nusKyG7vCNrO6wvCGucK9&#xD;&#xa;3rfCiVu4wk5xt8KJJLjCCRG6wqKNvMK8XrzCMBm7wp87vMLo1rvCcKe6wkrWuMLSrbbCWme2wpp9&#xD;&#xa;t8J42bfCaBa4wo9kucLcI7rCV964wkzct8KOB7fCQlO3wo0TtsJOI7nC6Li8wsRJu8K4XLrCpBW8&#xD;&#xa;wg2mvMI0PrnC21O3wuzcvMJt+cDC4029wmpbvcIMKrvCXnK7woz4vsK2CL/CYtW8woq7usJMKbvC&#xD;&#xa;Urm8wlecusL6CLzCEYi/wrgbv8I+27rC4YC4wqKbvMKKVL3CFVy+wuNHvsKafL/C0Ja9wroXvML4&#xD;&#xa;YsPCmHzKwpwZyMJFmsbClonLwjjJ08LQy9DCrM7NwuAEysJc4srCxoLOwg+t0MKEN9LCBc3PwliM&#xD;&#xa;z8LtlNDC2HfRwm/F0sKtQtbCyebWwrDJ3MJdLdvCtNfbwqFe2cKndNzCknbfwlxo2sKIHtjCda/e&#xD;&#xa;wqS428JTWdLCNJHTwj/j1cLuydrCNwnbwhAw2MLGvtrCBBfewpz028LxWNzCsDDdwvT928JaMdnC&#xD;&#xa;EqHWwtzA2cKnY9zC3AzYwl852ML9Hd/CPm7jwhcF6MJaEezCjD3rwiN16cKOQODCmXfhwnjo3sJh&#xD;&#xa;i9/Cakjdwu7w4sLgsuTCBJbjwvSQ4cIVm9nCkbHcwjAR6sJM7vTCS2f2wtzU9sIe1PjCXmX2wjaV&#xD;&#xa;9cLb0vbCSzr1wg+b9ML+bfXCRA72wmid9cKi6vbC9vz3wrr/9MLN/vPCXSn1wrHR9sLIwvfCBt/2&#xD;&#xa;wlFA98KUgPnCysf6wiRW+cKeyfjC1n/3wqL/9sLMrPjCGuX6wpaU+cI5O/fCmnL1wm3U9MJRGfXC&#xD;&#xa;Nr/1wmb19sJgwPXCZg31wg5798L2R/bCvgv4wqaU+MLAufjCQ7H3wpkF+MKgm/fClJ33wppa+cKG&#xD;&#xa;g/jCZPD5wvCJ+sJO8/nCmXf2wjLu9sJu1PfC5g/5wvLc+cI09vnCiV73wtCp98KvsvfCsG75wriM&#xD;&#xa;+cJe+PbCldP3wgyw9cKeOvXCtEP3wlqE+MIYt/XCtcn2wviN9sIKvfbCbO74wqiB+sIINvjCbK/6&#xD;&#xa;whCq+8Lk+/nCcn/3wqky98KoCffCcOD1wmL09cKs5fXCrEL3wsoQ98JaJfjC4Gf5wrBt+cLQGPrC&#xD;&#xa;JH34wqI49sI8NvfCxfQB" leadInLength="0/1"  />
            </Keyframes>
           </Parameter>
           </Parameters>
           <MetaData>
            <entry key="effectIndex" val="0"/>
           </MetaData>
          </GenericEffect>
         </Effects>
         <Attributes>
          <Attribute id="5289" value="" name="ident"/>
          <Attribute id="5290" value="0" name="mixToMono"/>
         </Attributes>
         <MetaData>
          <entry key="WinSubProjectDisplayName" val=""/>
         </MetaData>
         <ExtraData>
          <Entry key="ZoomPanBin">
           <ZoomPanBin id="5291"  >
            <ZoomPanKeyframes>
             <ZoomPanKeyframe id="5292" timeRangeEnd="-9999999/1" timeRangeDuration="0/1" interpolaterName="linr"  />
             <ZoomPanKeyframe id="5293" timeRangeEnd="8547/1" timeRangeDuration="30/1" interpolaterName="linr"  />
             <ZoomPanKeyframe id="5294" timeRangeEnd="9092/1" timeRangeDuration="30/1" interpolaterName="linr"  />
             <ZoomPanKeyframe id="5295" timeRangeEnd="9120/1" timeRangeDuration="28/1" interpolaterName="linr"  />
             <ZoomPanKeyframe id="5296" timeRangeEnd="9526/1" timeRangeDuration="30/1" interpolaterName="linr"  />
             <ZoomPanKeyframe id="5297" timeRangeEnd="9609/1" timeRangeDuration="30/1" interpolaterName="linr"  />
             <ZoomPanKeyframe id="5298" timeRangeEnd="10083/1" timeRangeDuration="30/1" interpolaterName="linr"  />
             <ZoomPanKeyframe id="5299" timeRangeEnd="10450/1" timeRangeDuration="30/1" interpolaterName="linr"  />
             <ZoomPanKeyframe id="5300" timeRangeEnd="10921/1" timeRangeDuration="30/1" interpolaterName="linr"  />
             <ZoomPanKeyframe id="5301" timeRangeEnd="10922/1" timeRangeDuration="1/1" interpolaterName="linr"  />
             <ZoomPanKeyframe id="5302" timeRangeEnd="10947/1" timeRangeDuration="25/1" interpolaterName="linr"  />
             <ZoomPanKeyframe id="5303" timeRangeEnd="11436/1" timeRangeDuration="14/1" interpolaterName="linr"  />
             <ZoomPanKeyframe id="5304" timeRangeEnd="11451/1" timeRangeDuration="15/1" interpolaterName="linr"  />
             <ZoomPanKeyframe id="5305" timeRangeEnd="11494/1" timeRangeDuration="30/1" interpolaterName="linr"  />
             <ZoomPanKeyframe id="5306" timeRangeEnd="11768/1" timeRangeDuration="14/1" interpolaterName="linr"  />
             <ZoomPanKeyframe id="5307" timeRangeEnd="11792/1" timeRangeDuration="23/1" interpolaterName="linr"  />
             <ZoomPanKeyframe id="5308" timeRangeEnd="12078/1" timeRangeDuration="14/1" interpolaterName="linr"  />
             <ZoomPanKeyframe id="5309" timeRangeEnd="12106/1" timeRangeDuration="27/1" interpolaterName="linr"  />
             <ZoomPanKeyframe id="5310" timeRangeEnd="12192/1" timeRangeDuration="30/1" interpolaterName="linr"  />
            </ZoomPanKeyframes>
           </ZoomPanBin>
          </Entry>
          <Entry key="CursorEffectBin">
           <CursorEffectBin id="5311"  >
            <CursorEffectKeyframes>
            </CursorEffectKeyframes>
           </CursorEffectBin>
          </Entry>
         </ExtraData>
         <GenericTrack id="5312"  >
          <Attributes>
           <Attribute id="5313" value="" name="ident"/>
           <Attribute id="5314" value="0" name="audioMuted"/>
           <Attribute id="5315" value="0" name="videoHidden"/>
          </Attributes>
          <MetaData>
           <entry key="IsLocked" val="False"/>
           <entry key="WinTrackHeight" val="0"/>
          </MetaData>
          <Medias>
           <UnifiedMedia id="5316"  >
            <AMFile id="5317" start="0" duration="5475" scalar="1/1" mediaStart="0/1" mediaDuration="5475/1" trackNumber="2" src="6" channelNumber="0,1" >
             <Parameters>
              <InterpolatingParam id="5318" interp="linr"  time="0/1" value="1" leadInLength="0/1"  name="volume"/>
              <Parameter id="5319"  name="captions"/>
             </Parameters>
             <Attributes>
              <Attribute id="5320" value="" name="ident"/>
              <Attribute id="5321" value="44100" name="sampleRate"/>
              <Attribute id="5322" value="16" name="bitDepth"/>
              <Attribute id="5323" value="1" name="gain"/>
              <Attribute id="5324" value="0" name="mixToMono"/>
             </Attributes>
            </AMFile>
            <VMFile id="5325" start="0" duration="5475" scalar="1/1" mediaStart="0/1" mediaDuration="5475/1" trackNumber="1" src="6" >
             <Transformer>
              <VectorParam id="5326"  name="translation">
               <InterpolatingParam id="5327" interp="linr"  time="-9999999/1" value="0" leadInLength="0/1"  />
               <InterpolatingParam id="5328" interp="linr"  time="-9999999/1" value="0" leadInLength="0/1"  />
               <InterpolatingParam id="5329" interp="linr"  time="-9999999/1" value="0" leadInLength="0/1"  />
              </VectorParam>
              <VectorParam id="5330"  name="rotation">
               <InterpolatingParam id="5331" interp="linr"  time="-9999999/1" value="0" leadInLength="0/1"  />
               <InterpolatingParam id="5332" interp="linr"  time="-9999999/1" value="0" leadInLength="0/1"  />
               <InterpolatingParam id="5333" interp="linr"  time="-9999999/1" value="0" leadInLength="0/1"  />
              </VectorParam>
              <VectorParam id="5334"  name="shear">
               <InterpolatingParam id="5335" interp="linr"  time="-9999999/1" value="0" leadInLength="0/1"  />
               <InterpolatingParam id="5336" interp="linr"  time="-9999999/1" value="0" leadInLength="0/1"  />
               <InterpolatingParam id="5337" interp="linr"  time="-9999999/1" value="0" leadInLength="0/1"  />
              </VectorParam>
              <VectorParam id="5338"  name="scale">
               <InterpolatingParam id="5339" interp="linr"  time="-9999999/1" value="1" leadInLength="0/1"  />
               <InterpolatingParam id="5340" interp="linr"  time="-9999999/1" value="1" leadInLength="0/1"  />
               <InterpolatingParam id="5341" interp="linr"  time="-9999999/1" value="1" leadInLength="0/1"  />
              </VectorParam>
              <VectorParam id="5342"  name="anchor">
               <InterpolatingParam id="5343" interp="linr"  time="0/1" value="0" leadInLength="0/1"  />
               <InterpolatingParam id="5344" interp="linr"  time="0/1" value="0" leadInLength="0/1"  />
               <InterpolatingParam id="5345" interp="linr"  time="0/1" value="0" leadInLength="0/1"  />
              </VectorParam>
             </Transformer>
             <Parameters>
              <VectorParam id="5346"  name="sourceCrop">
               <InterpolatingParam id="5347" interp="linr"  time="0/1" value="0" leadInLength="0/1"  />
               <InterpolatingParam id="5348" interp="linr"  time="0/1" value="0" leadInLength="0/1"  />
               <InterpolatingParam id="5349" interp="linr"  time="0/1" value="0" leadInLength="0/1"  />
               <InterpolatingParam id="5350" interp="linr"  time="0/1" value="0" leadInLength="0/1"  />
              </VectorParam>
              <VectorParam id="5351"  name="geometryCrop">
               <InterpolatingParam id="5352" interp="linr"  time="-9999999/1" value="0" leadInLength="0/1"  />
               <InterpolatingParam id="5353" interp="linr"  time="-9999999/1" value="0" leadInLength="0/1"  />
               <InterpolatingParam id="5354" interp="linr"  time="-9999999/1" value="0" leadInLength="0/1"  />
               <InterpolatingParam id="5355" interp="linr"  time="-9999999/1" value="0" leadInLength="0/1"  />
              </VectorParam>
              <InterpolatingParam id="5356" interp="linr"  time="-9999999/1" value="1" leadInLength="0/1"  name="opacity"/>
             </Parameters>
             <Attributes>
              <Attribute id="5357" value="" name="ident"/>
             </Attributes>
             <ExtraData>
              <Entry key="ZoomPanBin">
               <ZoomPanBin id="5358"  >
                <ZoomPanKeyframes>
                 <ZoomPanKeyframe id="5359" timeRangeEnd="-9999999/1" timeRangeDuration="0/1" interpolaterName="linr"  />
                </ZoomPanKeyframes>
               </ZoomPanBin>
              </Entry>
             </ExtraData>
            </VMFile>
            <MetaData>
             <entry key="WinSubProjectDisplayName" val=""/>
            </MetaData>
           </UnifiedMedia>
           <UnifiedMedia id="5360"  >
            <AMFile id="5361" start="5475" duration="2382" scalar="1/1" mediaStart="9607/1" mediaDuration="2382/1" trackNumber="2" src="6" channelNumber="0,1" >
             <Parameters>
              <InterpolatingParam id="5362" interp="linr"  time="0/1" value="1" leadInLength="0/1"  name="volume"/>
              <Parameter id="5363"  name="captions"/>
             </Parameters>
             <Attributes>
              <Attribute id="5364" value="" name="ident"/>
              <Attribute id="5365" value="44100" name="sampleRate"/>
              <Attribute id="5366" value="16" name="bitDepth"/>
              <Attribute id="5367" value="1" name="gain"/>
              <Attribute id="5368" value="0" name="mixToMono"/>
             </Attributes>
            </AMFile>
            <VMFile id="5369" start="5475" duration="2382" scalar="1/1" mediaStart="9607/1" mediaDuration="2382/1" trackNumber="1" src="6" >
             <Transformer>
              <VectorParam id="5370"  name="translation">
               <InterpolatingParam id="5371" interp="linr"  time="-9999999/1" value="0" leadInLength="0/1"  />
               <InterpolatingParam id="5372" interp="linr"  time="-9999999/1" value="0" leadInLength="0/1"  />
               <InterpolatingParam id="5373" interp="linr"  time="-9999999/1" value="0" leadInLength="0/1"  />
              </VectorParam>
              <VectorParam id="5374"  name="rotation">
               <InterpolatingParam id="5375" interp="linr"  time="-9999999/1" value="0" leadInLength="0/1"  />
               <InterpolatingParam id="5376" interp="linr"  time="-9999999/1" value="0" leadInLength="0/1"  />
               <InterpolatingParam id="5377" interp="linr"  time="-9999999/1" value="0" leadInLength="0/1"  />
              </VectorParam>
              <VectorParam id="5378"  name="shear">
               <InterpolatingParam id="5379" interp="linr"  time="-9999999/1" value="0" leadInLength="0/1"  />
               <InterpolatingParam id="5380" interp="linr"  time="-9999999/1" value="0" leadInLength="0/1"  />
               <InterpolatingParam id="5381" interp="linr"  time="-9999999/1" value="0" leadInLength="0/1"  />
              </VectorParam>
              <VectorParam id="5382"  name="scale">
               <InterpolatingParam id="5383" interp="linr"  time="-9999999/1" value="1" leadInLength="0/1"  />
               <InterpolatingParam id="5384" interp="linr"  time="-9999999/1" value="1" leadInLength="0/1"  />
               <InterpolatingParam id="5385" interp="linr"  time="-9999999/1" value="1" leadInLength="0/1"  />
              </VectorParam>
              <VectorParam id="5386"  name="anchor">
               <InterpolatingParam id="5387" interp="linr"  time="0/1" value="0" leadInLength="0/1"  />
               <InterpolatingParam id="5388" interp="linr"  time="0/1" value="0" leadInLength="0/1"  />
               <InterpolatingParam id="5389" interp="linr"  time="0/1" value="0" leadInLength="0/1"  />
              </VectorParam>
             </Transformer>
             <Parameters>
              <VectorParam id="5390"  name="sourceCrop">
               <InterpolatingParam id="5391" interp="linr"  time="0/1" value="0" leadInLength="0/1"  />
               <InterpolatingParam id="5392" interp="linr"  time="0/1" value="0" leadInLength="0/1"  />
               <InterpolatingParam id="5393" interp="linr"  time="0/1" value="0" leadInLength="0/1"  />
               <InterpolatingParam id="5394" interp="linr"  time="0/1" value="0" leadInLength="0/1"  />
              </VectorParam>
              <VectorParam id="5395"  name="geometryCrop">
               <InterpolatingParam id="5396" interp="linr"  time="-9999999/1" value="0" leadInLength="0/1"  />
               <InterpolatingParam id="5397" interp="linr"  time="-9999999/1" value="0" leadInLength="0/1"  />
               <InterpolatingParam id="5398" interp="linr"  time="-9999999/1" value="0" leadInLength="0/1"  />
               <InterpolatingParam id="5399" interp="linr"  time="-9999999/1" value="0" leadInLength="0/1"  />
              </VectorParam>
              <InterpolatingParam id="5400" interp="linr"  time="-9999999/1" value="1" leadInLength="0/1"  name="opacity"/>
             </Parameters>
             <Attributes>
              <Attribute id="5401" value="" name="ident"/>
             </Attributes>
             <ExtraData>
              <Entry key="ZoomPanBin">
               <ZoomPanBin id="5402"  >
                <ZoomPanKeyframes>
                 <ZoomPanKeyframe id="5403" timeRangeEnd="-9999999/1" timeRangeDuration="0/1" interpolaterName="linr"  />
                </ZoomPanKeyframes>
               </ZoomPanBin>
              </Entry>
             </ExtraData>
            </VMFile>
            <MetaData>
             <entry key="WinSubProjectDisplayName" val=""/>
            </MetaData>
           </UnifiedMedia>
           <UnifiedMedia id="5404"  >
            <AMFile id="5405" start="7857" duration="82" scalar="1/1" mediaStart="12444/1" mediaDuration="82/1" trackNumber="2" src="6" channelNumber="0,1" >
             <Parameters>
              <InterpolatingParam id="5406" interp="linr"  time="0/1" value="1" leadInLength="0/1"  name="volume"/>
              <Parameter id="5407"  name="captions"/>
             </Parameters>
             <Attributes>
              <Attribute id="5408" value="" name="ident"/>
              <Attribute id="5409" value="44100" name="sampleRate"/>
              <Attribute id="5410" value="16" name="bitDepth"/>
              <Attribute id="5411" value="1" name="gain"/>
              <Attribute id="5412" value="0" name="mixToMono"/>
             </Attributes>
            </AMFile>
            <VMFile id="5413" start="7857" duration="82" scalar="1/1" mediaStart="12444/1" mediaDuration="82/1" trackNumber="1" src="6" >
             <Transformer>
              <VectorParam id="5414"  name="translation">
               <InterpolatingParam id="5415" interp="linr"  time="-9999999/1" value="0" leadInLength="0/1"  />
               <InterpolatingParam id="5416" interp="linr"  time="-9999999/1" value="0" leadInLength="0/1"  />
               <InterpolatingParam id="5417" interp="linr"  time="-9999999/1" value="0" leadInLength="0/1"  />
              </VectorParam>
              <VectorParam id="5418"  name="rotation">
               <InterpolatingParam id="5419" interp="linr"  time="-9999999/1" value="0" leadInLength="0/1"  />
               <InterpolatingParam id="5420" interp="linr"  time="-9999999/1" value="0" leadInLength="0/1"  />
               <InterpolatingParam id="5421" interp="linr"  time="-9999999/1" value="0" leadInLength="0/1"  />
              </VectorParam>
              <VectorParam id="5422"  name="shear">
               <InterpolatingParam id="5423" interp="linr"  time="-9999999/1" value="0" leadInLength="0/1"  />
               <InterpolatingParam id="5424" interp="linr"  time="-9999999/1" value="0" leadInLength="0/1"  />
               <InterpolatingParam id="5425" interp="linr"  time="-9999999/1" value="0" leadInLength="0/1"  />
              </VectorParam>
              <VectorParam id="5426"  name="scale">
               <InterpolatingParam id="5427" interp="linr"  time="-9999999/1" value="1" leadInLength="0/1"  />
               <InterpolatingParam id="5428" interp="linr"  time="-9999999/1" value="1" leadInLength="0/1"  />
               <InterpolatingParam id="5429" interp="linr"  time="-9999999/1" value="1" leadInLength="0/1"  />
              </VectorParam>
              <VectorParam id="5430"  name="anchor">
               <InterpolatingParam id="5431" interp="linr"  time="0/1" value="0" leadInLength="0/1"  />
               <InterpolatingParam id="5432" interp="linr"  time="0/1" value="0" leadInLength="0/1"  />
               <InterpolatingParam id="5433" interp="linr"  time="0/1" value="0" leadInLength="0/1"  />
              </VectorParam>
             </Transformer>
             <Parameters>
              <VectorParam id="5434"  name="sourceCrop">
               <InterpolatingParam id="5435" interp="linr"  time="0/1" value="0" leadInLength="0/1"  />
               <InterpolatingParam id="5436" interp="linr"  time="0/1" value="0" leadInLength="0/1"  />
               <InterpolatingParam id="5437" interp="linr"  time="0/1" value="0" leadInLength="0/1"  />
               <InterpolatingParam id="5438" interp="linr"  time="0/1" value="0" leadInLength="0/1"  />
              </VectorParam>
              <VectorParam id="5439"  name="geometryCrop">
               <InterpolatingParam id="5440" interp="linr"  time="-9999999/1" value="0" leadInLength="0/1"  />
               <InterpolatingParam id="5441" interp="linr"  time="-9999999/1" value="0" leadInLength="0/1"  />
               <InterpolatingParam id="5442" interp="linr"  time="-9999999/1" value="0" leadInLength="0/1"  />
               <InterpolatingParam id="5443" interp="linr"  time="-9999999/1" value="0" leadInLength="0/1"  />
              </VectorParam>
              <InterpolatingParam id="5444" interp="linr"  time="-9999999/1" value="1" leadInLength="0/1"  name="opacity"/>
             </Parameters>
             <Attributes>
              <Attribute id="5445" value="" name="ident"/>
             </Attributes>
             <ExtraData>
              <Entry key="ZoomPanBin">
               <ZoomPanBin id="5446"  >
                <ZoomPanKeyframes>
                 <ZoomPanKeyframe id="5447" timeRangeEnd="-9999999/1" timeRangeDuration="0/1" interpolaterName="linr"  />
                </ZoomPanKeyframes>
               </ZoomPanBin>
              </Entry>
             </ExtraData>
            </VMFile>
            <MetaData>
             <entry key="WinSubProjectDisplayName" val=""/>
            </MetaData>
           </UnifiedMedia>
           <UnifiedMedia id="5448"  >
            <AMFile id="5449" start="7939" duration="99" scalar="1/1" mediaStart="12630/1" mediaDuration="99/1" trackNumber="2" src="6" channelNumber="0,1" >
             <Parameters>
              <InterpolatingParam id="5450" interp="linr"  time="0/1" value="1" leadInLength="0/1"  name="volume"/>
              <Parameter id="5451"  name="captions"/>
             </Parameters>
             <Attributes>
              <Attribute id="5452" value="" name="ident"/>
              <Attribute id="5453" value="44100" name="sampleRate"/>
              <Attribute id="5454" value="16" name="bitDepth"/>
              <Attribute id="5455" value="1" name="gain"/>
              <Attribute id="5456" value="0" name="mixToMono"/>
             </Attributes>
            </AMFile>
            <VMFile id="5457" start="7939" duration="99" scalar="1/1" mediaStart="12630/1" mediaDuration="99/1" trackNumber="1" src="6" >
             <Transformer>
              <VectorParam id="5458"  name="translation">
               <InterpolatingParam id="5459" interp="linr"  time="-9999999/1" value="0" leadInLength="0/1"  />
               <InterpolatingParam id="5460" interp="linr"  time="-9999999/1" value="0" leadInLength="0/1"  />
               <InterpolatingParam id="5461" interp="linr"  time="-9999999/1" value="0" leadInLength="0/1"  />
              </VectorParam>
              <VectorParam id="5462"  name="rotation">
               <InterpolatingParam id="5463" interp="linr"  time="-9999999/1" value="0" leadInLength="0/1"  />
               <InterpolatingParam id="5464" interp="linr"  time="-9999999/1" value="0" leadInLength="0/1"  />
               <InterpolatingParam id="5465" interp="linr"  time="-9999999/1" value="0" leadInLength="0/1"  />
              </VectorParam>
              <VectorParam id="5466"  name="shear">
               <InterpolatingParam id="5467" interp="linr"  time="-9999999/1" value="0" leadInLength="0/1"  />
               <InterpolatingParam id="5468" interp="linr"  time="-9999999/1" value="0" leadInLength="0/1"  />
               <InterpolatingParam id="5469" interp="linr"  time="-9999999/1" value="0" leadInLength="0/1"  />
              </VectorParam>
              <VectorParam id="5470"  name="scale">
               <InterpolatingParam id="5471" interp="linr"  time="-9999999/1" value="1" leadInLength="0/1"  />
               <InterpolatingParam id="5472" interp="linr"  time="-9999999/1" value="1" leadInLength="0/1"  />
               <InterpolatingParam id="5473" interp="linr"  time="-9999999/1" value="1" leadInLength="0/1"  />
              </VectorParam>
              <VectorParam id="5474"  name="anchor">
               <InterpolatingParam id="5475" interp="linr"  time="0/1" value="0" leadInLength="0/1"  />
               <InterpolatingParam id="5476" interp="linr"  time="0/1" value="0" leadInLength="0/1"  />
               <InterpolatingParam id="5477" interp="linr"  time="0/1" value="0" leadInLength="0/1"  />
              </VectorParam>
             </Transformer>
             <Parameters>
              <VectorParam id="5478"  name="sourceCrop">
               <InterpolatingParam id="5479" interp="linr"  time="0/1" value="0" leadInLength="0/1"  />
               <InterpolatingParam id="5480" interp="linr"  time="0/1" value="0" leadInLength="0/1"  />
               <InterpolatingParam id="5481" interp="linr"  time="0/1" value="0" leadInLength="0/1"  />
               <InterpolatingParam id="5482" interp="linr"  time="0/1" value="0" leadInLength="0/1"  />
              </VectorParam>
              <VectorParam id="5483"  name="geometryCrop">
               <InterpolatingParam id="5484" interp="linr"  time="-9999999/1" value="0" leadInLength="0/1"  />
               <InterpolatingParam id="5485" interp="linr"  time="-9999999/1" value="0" leadInLength="0/1"  />
               <InterpolatingParam id="5486" interp="linr"  time="-9999999/1" value="0" leadInLength="0/1"  />
               <InterpolatingParam id="5487" interp="linr"  time="-9999999/1" value="0" leadInLength="0/1"  />
              </VectorParam>
              <InterpolatingParam id="5488" interp="linr"  time="-9999999/1" value="1" leadInLength="0/1"  name="opacity"/>
             </Parameters>
             <Attributes>
              <Attribute id="5489" value="" name="ident"/>
             </Attributes>
             <ExtraData>
              <Entry key="ZoomPanBin">
               <ZoomPanBin id="5490"  >
                <ZoomPanKeyframes>
                 <ZoomPanKeyframe id="5491" timeRangeEnd="-9999999/1" timeRangeDuration="0/1" interpolaterName="linr"  />
                </ZoomPanKeyframes>
               </ZoomPanBin>
              </Entry>
             </ExtraData>
            </VMFile>
            <MetaData>
             <entry key="WinSubProjectDisplayName" val=""/>
            </MetaData>
           </UnifiedMedia>
           <UnifiedMedia id="5492"  >
            <AMFile id="5493" start="8038" duration="127" scalar="1/1" mediaStart="12735/1" mediaDuration="127/1" trackNumber="2" src="6" channelNumber="0,1" >
             <Parameters>
              <InterpolatingParam id="5494" interp="linr"  time="0/1" value="1" leadInLength="0/1"  name="volume"/>
              <Parameter id="5495"  name="captions"/>
             </Parameters>
             <Attributes>
              <Attribute id="5496" value="" name="ident"/>
              <Attribute id="5497" value="44100" name="sampleRate"/>
              <Attribute id="5498" value="16" name="bitDepth"/>
              <Attribute id="5499" value="1" name="gain"/>
              <Attribute id="5500" value="0" name="mixToMono"/>
             </Attributes>
            </AMFile>
            <VMFile id="5501" start="8038" duration="127" scalar="1/1" mediaStart="12735/1" mediaDuration="127/1" trackNumber="1" src="6" >
             <Transformer>
              <VectorParam id="5502"  name="translation">
               <InterpolatingParam id="5503" interp="linr"  time="-9999999/1" value="0" leadInLength="0/1"  />
               <InterpolatingParam id="5504" interp="linr"  time="-9999999/1" value="0" leadInLength="0/1"  />
               <InterpolatingParam id="5505" interp="linr"  time="-9999999/1" value="0" leadInLength="0/1"  />
              </VectorParam>
              <VectorParam id="5506"  name="rotation">
               <InterpolatingParam id="5507" interp="linr"  time="-9999999/1" value="0" leadInLength="0/1"  />
               <InterpolatingParam id="5508" interp="linr"  time="-9999999/1" value="0" leadInLength="0/1"  />
               <InterpolatingParam id="5509" interp="linr"  time="-9999999/1" value="0" leadInLength="0/1"  />
              </VectorParam>
              <VectorParam id="5510"  name="shear">
               <InterpolatingParam id="5511" interp="linr"  time="-9999999/1" value="0" leadInLength="0/1"  />
               <InterpolatingParam id="5512" interp="linr"  time="-9999999/1" value="0" leadInLength="0/1"  />
               <InterpolatingParam id="5513" interp="linr"  time="-9999999/1" value="0" leadInLength="0/1"  />
              </VectorParam>
              <VectorParam id="5514"  name="scale">
               <InterpolatingParam id="5515" interp="linr"  time="-9999999/1" value="1" leadInLength="0/1"  />
               <InterpolatingParam id="5516" interp="linr"  time="-9999999/1" value="1" leadInLength="0/1"  />
               <InterpolatingParam id="5517" interp="linr"  time="-9999999/1" value="1" leadInLength="0/1"  />
              </VectorParam>
              <VectorParam id="5518"  name="anchor">
               <InterpolatingParam id="5519" interp="linr"  time="0/1" value="0" leadInLength="0/1"  />
               <InterpolatingParam id="5520" interp="linr"  time="0/1" value="0" leadInLength="0/1"  />
               <InterpolatingParam id="5521" interp="linr"  time="0/1" value="0" leadInLength="0/1"  />
              </VectorParam>
             </Transformer>
             <Parameters>
              <VectorParam id="5522"  name="sourceCrop">
               <InterpolatingParam id="5523" interp="linr"  time="0/1" value="0" leadInLength="0/1"  />
               <InterpolatingParam id="5524" interp="linr"  time="0/1" value="0" leadInLength="0/1"  />
               <InterpolatingParam id="5525" interp="linr"  time="0/1" value="0" leadInLength="0/1"  />
               <InterpolatingParam id="5526" interp="linr"  time="0/1" value="0" leadInLength="0/1"  />
              </VectorParam>
              <VectorParam id="5527"  name="geometryCrop">
               <InterpolatingParam id="5528" interp="linr"  time="-9999999/1" value="0" leadInLength="0/1"  />
               <InterpolatingParam id="5529" interp="linr"  time="-9999999/1" value="0" leadInLength="0/1"  />
               <InterpolatingParam id="5530" interp="linr"  time="-9999999/1" value="0" leadInLength="0/1"  />
               <InterpolatingParam id="5531" interp="linr"  time="-9999999/1" value="0" leadInLength="0/1"  />
              </VectorParam>
              <InterpolatingParam id="5532" interp="linr"  time="-9999999/1" value="1" leadInLength="0/1"  name="opacity"/>
             </Parameters>
             <Attributes>
              <Attribute id="5533" value="" name="ident"/>
             </Attributes>
             <ExtraData>
              <Entry key="ZoomPanBin">
               <ZoomPanBin id="5534"  >
                <ZoomPanKeyframes>
                 <ZoomPanKeyframe id="5535" timeRangeEnd="-9999999/1" timeRangeDuration="0/1" interpolaterName="linr"  />
                </ZoomPanKeyframes>
               </ZoomPanBin>
              </Entry>
             </ExtraData>
            </VMFile>
            <MetaData>
             <entry key="WinSubProjectDisplayName" val=""/>
            </MetaData>
           </UnifiedMedia>
           <UnifiedMedia id="5536"  >
            <AMFile id="5537" start="8165" duration="195" scalar="1/1" mediaStart="12953/1" mediaDuration="195/1" trackNumber="2" src="6" channelNumber="0,1" >
             <Parameters>
              <InterpolatingParam id="5538" interp="linr"  time="0/1" value="1" leadInLength="0/1"  name="volume"/>
              <Parameter id="5539"  name="captions"/>
             </Parameters>
             <Attributes>
              <Attribute id="5540" value="" name="ident"/>
              <Attribute id="5541" value="44100" name="sampleRate"/>
              <Attribute id="5542" value="16" name="bitDepth"/>
              <Attribute id="5543" value="1" name="gain"/>
              <Attribute id="5544" value="0" name="mixToMono"/>
             </Attributes>
            </AMFile>
            <VMFile id="5545" start="8165" duration="195" scalar="1/1" mediaStart="12953/1" mediaDuration="195/1" trackNumber="1" src="6" >
             <Transformer>
              <VectorParam id="5546"  name="translation">
               <InterpolatingParam id="5547" interp="linr"  time="-9999999/1" value="0" leadInLength="0/1"  />
               <InterpolatingParam id="5548" interp="linr"  time="-9999999/1" value="0" leadInLength="0/1"  />
               <InterpolatingParam id="5549" interp="linr"  time="-9999999/1" value="0" leadInLength="0/1"  />
              </VectorParam>
              <VectorParam id="5550"  name="rotation">
               <InterpolatingParam id="5551" interp="linr"  time="-9999999/1" value="0" leadInLength="0/1"  />
               <InterpolatingParam id="5552" interp="linr"  time="-9999999/1" value="0" leadInLength="0/1"  />
               <InterpolatingParam id="5553" interp="linr"  time="-9999999/1" value="0" leadInLength="0/1"  />
              </VectorParam>
              <VectorParam id="5554"  name="shear">
               <InterpolatingParam id="5555" interp="linr"  time="-9999999/1" value="0" leadInLength="0/1"  />
               <InterpolatingParam id="5556" interp="linr"  time="-9999999/1" value="0" leadInLength="0/1"  />
               <InterpolatingParam id="5557" interp="linr"  time="-9999999/1" value="0" leadInLength="0/1"  />
              </VectorParam>
              <VectorParam id="5558"  name="scale">
               <InterpolatingParam id="5559" interp="linr"  time="-9999999/1" value="1" leadInLength="0/1"  />
               <InterpolatingParam id="5560" interp="linr"  time="-9999999/1" value="1" leadInLength="0/1"  />
               <InterpolatingParam id="5561" interp="linr"  time="-9999999/1" value="1" leadInLength="0/1"  />
              </VectorParam>
              <VectorParam id="5562"  name="anchor">
               <InterpolatingParam id="5563" interp="linr"  time="0/1" value="0" leadInLength="0/1"  />
               <InterpolatingParam id="5564" interp="linr"  time="0/1" value="0" leadInLength="0/1"  />
               <InterpolatingParam id="5565" interp="linr"  time="0/1" value="0" leadInLength="0/1"  />
              </VectorParam>
             </Transformer>
             <Parameters>
              <VectorParam id="5566"  name="sourceCrop">
               <InterpolatingParam id="5567" interp="linr"  time="0/1" value="0" leadInLength="0/1"  />
               <InterpolatingParam id="5568" interp="linr"  time="0/1" value="0" leadInLength="0/1"  />
               <InterpolatingParam id="5569" interp="linr"  time="0/1" value="0" leadInLength="0/1"  />
               <InterpolatingParam id="5570" interp="linr"  time="0/1" value="0" leadInLength="0/1"  />
              </VectorParam>
              <VectorParam id="5571"  name="geometryCrop">
               <InterpolatingParam id="5572" interp="linr"  time="-9999999/1" value="0" leadInLength="0/1"  />
               <InterpolatingParam id="5573" interp="linr"  time="-9999999/1" value="0" leadInLength="0/1"  />
               <InterpolatingParam id="5574" interp="linr"  time="-9999999/1" value="0" leadInLength="0/1"  />
               <InterpolatingParam id="5575" interp="linr"  time="-9999999/1" value="0" leadInLength="0/1"  />
              </VectorParam>
              <InterpolatingParam id="5576" interp="linr"  time="-9999999/1" value="1" leadInLength="0/1"  name="opacity"/>
             </Parameters>
             <Attributes>
              <Attribute id="5577" value="" name="ident"/>
             </Attributes>
             <ExtraData>
              <Entry key="ZoomPanBin">
               <ZoomPanBin id="5578"  >
                <ZoomPanKeyframes>
                 <ZoomPanKeyframe id="5579" timeRangeEnd="-9999999/1" timeRangeDuration="0/1" interpolaterName="linr"  />
                </ZoomPanKeyframes>
               </ZoomPanBin>
              </Entry>
             </ExtraData>
            </VMFile>
            <MetaData>
             <entry key="WinSubProjectDisplayName" val=""/>
            </MetaData>
           </UnifiedMedia>
           <UnifiedMedia id="5580"  >
            <AMFile id="5581" start="8360" duration="34" scalar="1/1" mediaStart="13648/1" mediaDuration="34/1" trackNumber="2" src="6" channelNumber="0,1" >
             <Parameters>
              <InterpolatingParam id="5582" interp="linr"  time="0/1" value="1" leadInLength="0/1"  name="volume"/>
              <Parameter id="5583"  name="captions"/>
             </Parameters>
             <Attributes>
              <Attribute id="5584" value="" name="ident"/>
              <Attribute id="5585" value="44100" name="sampleRate"/>
              <Attribute id="5586" value="16" name="bitDepth"/>
              <Attribute id="5587" value="1" name="gain"/>
              <Attribute id="5588" value="0" name="mixToMono"/>
             </Attributes>
            </AMFile>
            <VMFile id="5589" start="8360" duration="34" scalar="1/1" mediaStart="13648/1" mediaDuration="34/1" trackNumber="1" src="6" >
             <Transformer>
              <VectorParam id="5590"  name="translation">
               <InterpolatingParam id="5591" interp="linr"  time="-9999999/1" value="0" leadInLength="0/1"  />
               <InterpolatingParam id="5592" interp="linr"  time="-9999999/1" value="0" leadInLength="0/1"  />
               <InterpolatingParam id="5593" interp="linr"  time="-9999999/1" value="0" leadInLength="0/1"  />
              </VectorParam>
              <VectorParam id="5594"  name="rotation">
               <InterpolatingParam id="5595" interp="linr"  time="-9999999/1" value="0" leadInLength="0/1"  />
               <InterpolatingParam id="5596" interp="linr"  time="-9999999/1" value="0" leadInLength="0/1"  />
               <InterpolatingParam id="5597" interp="linr"  time="-9999999/1" value="0" leadInLength="0/1"  />
              </VectorParam>
              <VectorParam id="5598"  name="shear">
               <InterpolatingParam id="5599" interp="linr"  time="-9999999/1" value="0" leadInLength="0/1"  />
               <InterpolatingParam id="5600" interp="linr"  time="-9999999/1" value="0" leadInLength="0/1"  />
               <InterpolatingParam id="5601" interp="linr"  time="-9999999/1" value="0" leadInLength="0/1"  />
              </VectorParam>
              <VectorParam id="5602"  name="scale">
               <InterpolatingParam id="5603" interp="linr"  time="-9999999/1" value="1" leadInLength="0/1"  />
               <InterpolatingParam id="5604" interp="linr"  time="-9999999/1" value="1" leadInLength="0/1"  />
               <InterpolatingParam id="5605" interp="linr"  time="-9999999/1" value="1" leadInLength="0/1"  />
              </VectorParam>
              <VectorParam id="5606"  name="anchor">
               <InterpolatingParam id="5607" interp="linr"  time="0/1" value="0" leadInLength="0/1"  />
               <InterpolatingParam id="5608" interp="linr"  time="0/1" value="0" leadInLength="0/1"  />
               <InterpolatingParam id="5609" interp="linr"  time="0/1" value="0" leadInLength="0/1"  />
              </VectorParam>
             </Transformer>
             <Parameters>
              <VectorParam id="5610"  name="sourceCrop">
               <InterpolatingParam id="5611" interp="linr"  time="0/1" value="0" leadInLength="0/1"  />
               <InterpolatingParam id="5612" interp="linr"  time="0/1" value="0" leadInLength="0/1"  />
               <InterpolatingParam id="5613" interp="linr"  time="0/1" value="0" leadInLength="0/1"  />
               <InterpolatingParam id="5614" interp="linr"  time="0/1" value="0" leadInLength="0/1"  />
              </VectorParam>
              <VectorParam id="5615"  name="geometryCrop">
               <InterpolatingParam id="5616" interp="linr"  time="-9999999/1" value="0" leadInLength="0/1"  />
               <InterpolatingParam id="5617" interp="linr"  time="-9999999/1" value="0" leadInLength="0/1"  />
               <InterpolatingParam id="5618" interp="linr"  time="-9999999/1" value="0" leadInLength="0/1"  />
               <InterpolatingParam id="5619" interp="linr"  time="-9999999/1" value="0" leadInLength="0/1"  />
              </VectorParam>
              <InterpolatingParam id="5620" interp="linr"  time="-9999999/1" value="1" leadInLength="0/1"  name="opacity"/>
             </Parameters>
             <Attributes>
              <Attribute id="5621" value="" name="ident"/>
             </Attributes>
             <ExtraData>
              <Entry key="ZoomPanBin">
               <ZoomPanBin id="5622"  >
                <ZoomPanKeyframes>
                 <ZoomPanKeyframe id="5623" timeRangeEnd="-9999999/1" timeRangeDuration="0/1" interpolaterName="linr"  />
                </ZoomPanKeyframes>
               </ZoomPanBin>
              </Entry>
             </ExtraData>
            </VMFile>
            <MetaData>
             <entry key="WinSubProjectDisplayName" val=""/>
            </MetaData>
           </UnifiedMedia>
           <UnifiedMedia id="5624"  >
            <AMFile id="5625" start="8394" duration="1" scalar="1/1" mediaStart="14026/1" mediaDuration="1/1" trackNumber="2" src="6" channelNumber="0,1" >
             <Parameters>
              <InterpolatingParam id="5626" interp="linr"  time="0/1" value="1" leadInLength="0/1"  name="volume"/>
              <Parameter id="5627"  name="captions"/>
             </Parameters>
             <Attributes>
              <Attribute id="5628" value="" name="ident"/>
              <Attribute id="5629" value="44100" name="sampleRate"/>
              <Attribute id="5630" value="16" name="bitDepth"/>
              <Attribute id="5631" value="1" name="gain"/>
              <Attribute id="5632" value="0" name="mixToMono"/>
             </Attributes>
            </AMFile>
            <VMFile id="5633" start="8394" duration="1" scalar="1/1" mediaStart="14026/1" mediaDuration="1/1" trackNumber="1" src="6" >
             <Transformer>
              <VectorParam id="5634"  name="translation">
               <InterpolatingParam id="5635" interp="linr"  time="-9999999/1" value="0" leadInLength="0/1"  />
               <InterpolatingParam id="5636" interp="linr"  time="-9999999/1" value="0" leadInLength="0/1"  />
               <InterpolatingParam id="5637" interp="linr"  time="-9999999/1" value="0" leadInLength="0/1"  />
              </VectorParam>
              <VectorParam id="5638"  name="rotation">
               <InterpolatingParam id="5639" interp="linr"  time="-9999999/1" value="0" leadInLength="0/1"  />
               <InterpolatingParam id="5640" interp="linr"  time="-9999999/1" value="0" leadInLength="0/1"  />
               <InterpolatingParam id="5641" interp="linr"  time="-9999999/1" value="0" leadInLength="0/1"  />
              </VectorParam>
              <VectorParam id="5642"  name="shear">
               <InterpolatingParam id="5643" interp="linr"  time="-9999999/1" value="0" leadInLength="0/1"  />
               <InterpolatingParam id="5644" interp="linr"  time="-9999999/1" value="0" leadInLength="0/1"  />
               <InterpolatingParam id="5645" interp="linr"  time="-9999999/1" value="0" leadInLength="0/1"  />
              </VectorParam>
              <VectorParam id="5646"  name="scale">
               <InterpolatingParam id="5647" interp="linr"  time="-9999999/1" value="1" leadInLength="0/1"  />
               <InterpolatingParam id="5648" interp="linr"  time="-9999999/1" value="1" leadInLength="0/1"  />
               <InterpolatingParam id="5649" interp="linr"  time="-9999999/1" value="1" leadInLength="0/1"  />
              </VectorParam>
              <VectorParam id="5650"  name="anchor">
               <InterpolatingParam id="5651" interp="linr"  time="0/1" value="0" leadInLength="0/1"  />
               <InterpolatingParam id="5652" interp="linr"  time="0/1" value="0" leadInLength="0/1"  />
               <InterpolatingParam id="5653" interp="linr"  time="0/1" value="0" leadInLength="0/1"  />
              </VectorParam>
             </Transformer>
             <Parameters>
              <VectorParam id="5654"  name="sourceCrop">
               <InterpolatingParam id="5655" interp="linr"  time="0/1" value="0" leadInLength="0/1"  />
               <InterpolatingParam id="5656" interp="linr"  time="0/1" value="0" leadInLength="0/1"  />
               <InterpolatingParam id="5657" interp="linr"  time="0/1" value="0" leadInLength="0/1"  />
               <InterpolatingParam id="5658" interp="linr"  time="0/1" value="0" leadInLength="0/1"  />
              </VectorParam>
              <VectorParam id="5659"  name="geometryCrop">
               <InterpolatingParam id="5660" interp="linr"  time="-9999999/1" value="0" leadInLength="0/1"  />
               <InterpolatingParam id="5661" interp="linr"  time="-9999999/1" value="0" leadInLength="0/1"  />
               <InterpolatingParam id="5662" interp="linr"  time="-9999999/1" value="0" leadInLength="0/1"  />
               <InterpolatingParam id="5663" interp="linr"  time="-9999999/1" value="0" leadInLength="0/1"  />
              </VectorParam>
              <InterpolatingParam id="5664" interp="linr"  time="-9999999/1" value="1" leadInLength="0/1"  name="opacity"/>
             </Parameters>
             <Attributes>
              <Attribute id="5665" value="" name="ident"/>
             </Attributes>
             <ExtraData>
              <Entry key="ZoomPanBin">
               <ZoomPanBin id="5666"  >
                <ZoomPanKeyframes>
                 <ZoomPanKeyframe id="5667" timeRangeEnd="-9999999/1" timeRangeDuration="0/1" interpolaterName="linr"  />
                </ZoomPanKeyframes>
               </ZoomPanBin>
              </Entry>
             </ExtraData>
            </VMFile>
            <MetaData>
             <entry key="WinSubProjectDisplayName" val=""/>
            </MetaData>
           </UnifiedMedia>
           <UnifiedMedia id="5668"  >
            <AMFile id="5669" start="8395" duration="519" scalar="1/1" mediaStart="14067/1" mediaDuration="519/1" trackNumber="2" src="6" channelNumber="0,1" >
             <Parameters>
              <InterpolatingParam id="5670" interp="linr"  time="0/1" value="1" leadInLength="0/1"  name="volume"/>
              <Parameter id="5671"  name="captions"/>
             </Parameters>
             <Attributes>
              <Attribute id="5672" value="" name="ident"/>
              <Attribute id="5673" value="44100" name="sampleRate"/>
              <Attribute id="5674" value="16" name="bitDepth"/>
              <Attribute id="5675" value="1" name="gain"/>
              <Attribute id="5676" value="0" name="mixToMono"/>
             </Attributes>
            </AMFile>
            <VMFile id="5677" start="8395" duration="519" scalar="1/1" mediaStart="14067/1" mediaDuration="519/1" trackNumber="1" src="6" >
             <Transformer>
              <VectorParam id="5678"  name="translation">
               <InterpolatingParam id="5679" interp="linr"  time="-9999999/1" value="0" leadInLength="0/1"  />
               <InterpolatingParam id="5680" interp="linr"  time="-9999999/1" value="0" leadInLength="0/1"  />
               <InterpolatingParam id="5681" interp="linr"  time="-9999999/1" value="0" leadInLength="0/1"  />
              </VectorParam>
              <VectorParam id="5682"  name="rotation">
               <InterpolatingParam id="5683" interp="linr"  time="-9999999/1" value="0" leadInLength="0/1"  />
               <InterpolatingParam id="5684" interp="linr"  time="-9999999/1" value="0" leadInLength="0/1"  />
               <InterpolatingParam id="5685" interp="linr"  time="-9999999/1" value="0" leadInLength="0/1"  />
              </VectorParam>
              <VectorParam id="5686"  name="shear">
               <InterpolatingParam id="5687" interp="linr"  time="-9999999/1" value="0" leadInLength="0/1"  />
               <InterpolatingParam id="5688" interp="linr"  time="-9999999/1" value="0" leadInLength="0/1"  />
               <InterpolatingParam id="5689" interp="linr"  time="-9999999/1" value="0" leadInLength="0/1"  />
              </VectorParam>
              <VectorParam id="5690"  name="scale">
               <InterpolatingParam id="5691" interp="linr"  time="-9999999/1" value="1" leadInLength="0/1"  />
               <InterpolatingParam id="5692" interp="linr"  time="-9999999/1" value="1" leadInLength="0/1"  />
               <InterpolatingParam id="5693" interp="linr"  time="-9999999/1" value="1" leadInLength="0/1"  />
              </VectorParam>
              <VectorParam id="5694"  name="anchor">
               <InterpolatingParam id="5695" interp="linr"  time="0/1" value="0" leadInLength="0/1"  />
               <InterpolatingParam id="5696" interp="linr"  time="0/1" value="0" leadInLength="0/1"  />
               <InterpolatingParam id="5697" interp="linr"  time="0/1" value="0" leadInLength="0/1"  />
              </VectorParam>
             </Transformer>
             <Parameters>
              <VectorParam id="5698"  name="sourceCrop">
               <InterpolatingParam id="5699" interp="linr"  time="0/1" value="0" leadInLength="0/1"  />
               <InterpolatingParam id="5700" interp="linr"  time="0/1" value="0" leadInLength="0/1"  />
               <InterpolatingParam id="5701" interp="linr"  time="0/1" value="0" leadInLength="0/1"  />
               <InterpolatingParam id="5702" interp="linr"  time="0/1" value="0" leadInLength="0/1"  />
              </VectorParam>
              <VectorParam id="5703"  name="geometryCrop">
               <InterpolatingParam id="5704" interp="linr"  time="-9999999/1" value="0" leadInLength="0/1"  />
               <InterpolatingParam id="5705" interp="linr"  time="-9999999/1" value="0" leadInLength="0/1"  />
               <InterpolatingParam id="5706" interp="linr"  time="-9999999/1" value="0" leadInLength="0/1"  />
               <InterpolatingParam id="5707" interp="linr"  time="-9999999/1" value="0" leadInLength="0/1"  />
              </VectorParam>
              <InterpolatingParam id="5708" interp="linr"  time="-9999999/1" value="1" leadInLength="0/1"  name="opacity"/>
             </Parameters>
             <Attributes>
              <Attribute id="5709" value="" name="ident"/>
             </Attributes>
             <ExtraData>
              <Entry key="ZoomPanBin">
               <ZoomPanBin id="5710"  >
                <ZoomPanKeyframes>
                 <ZoomPanKeyframe id="5711" timeRangeEnd="-9999999/1" timeRangeDuration="0/1" interpolaterName="linr"  />
                </ZoomPanKeyframes>
               </ZoomPanBin>
              </Entry>
             </ExtraData>
            </VMFile>
            <MetaData>
             <entry key="WinSubProjectDisplayName" val=""/>
            </MetaData>
           </UnifiedMedia>
           <UnifiedMedia id="5712"  >
            <AMFile id="5713" start="8914" duration="124" scalar="1/1" mediaStart="14593/1" mediaDuration="124/1" trackNumber="2" src="6" channelNumber="0,1" >
             <Parameters>
              <InterpolatingParam id="5714" interp="linr"  time="0/1" value="1" leadInLength="0/1"  name="volume"/>
              <Parameter id="5715"  name="captions"/>
             </Parameters>
             <Attributes>
              <Attribute id="5716" value="" name="ident"/>
              <Attribute id="5717" value="44100" name="sampleRate"/>
              <Attribute id="5718" value="16" name="bitDepth"/>
              <Attribute id="5719" value="1" name="gain"/>
              <Attribute id="5720" value="0" name="mixToMono"/>
             </Attributes>
            </AMFile>
            <VMFile id="5721" start="8914" duration="124" scalar="1/1" mediaStart="14593/1" mediaDuration="124/1" trackNumber="1" src="6" >
             <Transformer>
              <VectorParam id="5722"  name="translation">
               <InterpolatingParam id="5723" interp="linr"  time="-9999999/1" value="0" leadInLength="0/1"  />
               <InterpolatingParam id="5724" interp="linr"  time="-9999999/1" value="0" leadInLength="0/1"  />
               <InterpolatingParam id="5725" interp="linr"  time="-9999999/1" value="0" leadInLength="0/1"  />
              </VectorParam>
              <VectorParam id="5726"  name="rotation">
               <InterpolatingParam id="5727" interp="linr"  time="-9999999/1" value="0" leadInLength="0/1"  />
               <InterpolatingParam id="5728" interp="linr"  time="-9999999/1" value="0" leadInLength="0/1"  />
               <InterpolatingParam id="5729" interp="linr"  time="-9999999/1" value="0" leadInLength="0/1"  />
              </VectorParam>
              <VectorParam id="5730"  name="shear">
               <InterpolatingParam id="5731" interp="linr"  time="-9999999/1" value="0" leadInLength="0/1"  />
               <InterpolatingParam id="5732" interp="linr"  time="-9999999/1" value="0" leadInLength="0/1"  />
               <InterpolatingParam id="5733" interp="linr"  time="-9999999/1" value="0" leadInLength="0/1"  />
              </VectorParam>
              <VectorParam id="5734"  name="scale">
               <InterpolatingParam id="5735" interp="linr"  time="-9999999/1" value="1" leadInLength="0/1"  />
               <InterpolatingParam id="5736" interp="linr"  time="-9999999/1" value="1" leadInLength="0/1"  />
               <InterpolatingParam id="5737" interp="linr"  time="-9999999/1" value="1" leadInLength="0/1"  />
              </VectorParam>
              <VectorParam id="5738"  name="anchor">
               <InterpolatingParam id="5739" interp="linr"  time="0/1" value="0" leadInLength="0/1"  />
               <InterpolatingParam id="5740" interp="linr"  time="0/1" value="0" leadInLength="0/1"  />
               <InterpolatingParam id="5741" interp="linr"  time="0/1" value="0" leadInLength="0/1"  />
              </VectorParam>
             </Transformer>
             <Parameters>
              <VectorParam id="5742"  name="sourceCrop">
               <InterpolatingParam id="5743" interp="linr"  time="0/1" value="0" leadInLength="0/1"  />
               <InterpolatingParam id="5744" interp="linr"  time="0/1" value="0" leadInLength="0/1"  />
               <InterpolatingParam id="5745" interp="linr"  time="0/1" value="0" leadInLength="0/1"  />
               <InterpolatingParam id="5746" interp="linr"  time="0/1" value="0" leadInLength="0/1"  />
              </VectorParam>
              <VectorParam id="5747"  name="geometryCrop">
               <InterpolatingParam id="5748" interp="linr"  time="-9999999/1" value="0" leadInLength="0/1"  />
               <InterpolatingParam id="5749" interp="linr"  time="-9999999/1" value="0" leadInLength="0/1"  />
               <InterpolatingParam id="5750" interp="linr"  time="-9999999/1" value="0" leadInLength="0/1"  />
               <InterpolatingParam id="5751" interp="linr"  time="-9999999/1" value="0" leadInLength="0/1"  />
              </VectorParam>
              <InterpolatingParam id="5752" interp="linr"  time="-9999999/1" value="1" leadInLength="0/1"  name="opacity"/>
             </Parameters>
             <Attributes>
              <Attribute id="5753" value="" name="ident"/>
             </Attributes>
             <ExtraData>
              <Entry key="ZoomPanBin">
               <ZoomPanBin id="5754"  >
                <ZoomPanKeyframes>
                 <ZoomPanKeyframe id="5755" timeRangeEnd="-9999999/1" timeRangeDuration="0/1" interpolaterName="linr"  />
                </ZoomPanKeyframes>
               </ZoomPanBin>
              </Entry>
             </ExtraData>
            </VMFile>
            <MetaData>
             <entry key="WinSubProjectDisplayName" val=""/>
            </MetaData>
           </UnifiedMedia>
           <UnifiedMedia id="5756"  >
            <AMFile id="5757" start="9038" duration="4" scalar="1/1" mediaStart="15728/1" mediaDuration="4/1" trackNumber="2" src="6" channelNumber="0,1" >
             <Parameters>
              <InterpolatingParam id="5758" interp="linr"  time="0/1" value="1" leadInLength="0/1"  name="volume"/>
              <Parameter id="5759"  name="captions"/>
             </Parameters>
             <Attributes>
              <Attribute id="5760" value="" name="ident"/>
              <Attribute id="5761" value="44100" name="sampleRate"/>
              <Attribute id="5762" value="16" name="bitDepth"/>
              <Attribute id="5763" value="1" name="gain"/>
              <Attribute id="5764" value="0" name="mixToMono"/>
             </Attributes>
            </AMFile>
            <VMFile id="5765" start="9038" duration="4" scalar="1/1" mediaStart="15728/1" mediaDuration="4/1" trackNumber="1" src="6" >
             <Transformer>
              <VectorParam id="5766"  name="translation">
               <InterpolatingParam id="5767" interp="linr"  time="-9999999/1" value="0" leadInLength="0/1"  />
               <InterpolatingParam id="5768" interp="linr"  time="-9999999/1" value="0" leadInLength="0/1"  />
               <InterpolatingParam id="5769" interp="linr"  time="-9999999/1" value="0" leadInLength="0/1"  />
              </VectorParam>
              <VectorParam id="5770"  name="rotation">
               <InterpolatingParam id="5771" interp="linr"  time="-9999999/1" value="0" leadInLength="0/1"  />
               <InterpolatingParam id="5772" interp="linr"  time="-9999999/1" value="0" leadInLength="0/1"  />
               <InterpolatingParam id="5773" interp="linr"  time="-9999999/1" value="0" leadInLength="0/1"  />
              </VectorParam>
              <VectorParam id="5774"  name="shear">
               <InterpolatingParam id="5775" interp="linr"  time="-9999999/1" value="0" leadInLength="0/1"  />
               <InterpolatingParam id="5776" interp="linr"  time="-9999999/1" value="0" leadInLength="0/1"  />
               <InterpolatingParam id="5777" interp="linr"  time="-9999999/1" value="0" leadInLength="0/1"  />
              </VectorParam>
              <VectorParam id="5778"  name="scale">
               <InterpolatingParam id="5779" interp="linr"  time="-9999999/1" value="1" leadInLength="0/1"  />
               <InterpolatingParam id="5780" interp="linr"  time="-9999999/1" value="1" leadInLength="0/1"  />
               <InterpolatingParam id="5781" interp="linr"  time="-9999999/1" value="1" leadInLength="0/1"  />
              </VectorParam>
              <VectorParam id="5782"  name="anchor">
               <InterpolatingParam id="5783" interp="linr"  time="0/1" value="0" leadInLength="0/1"  />
               <InterpolatingParam id="5784" interp="linr"  time="0/1" value="0" leadInLength="0/1"  />
               <InterpolatingParam id="5785" interp="linr"  time="0/1" value="0" leadInLength="0/1"  />
              </VectorParam>
             </Transformer>
             <Parameters>
              <VectorParam id="5786"  name="sourceCrop">
               <InterpolatingParam id="5787" interp="linr"  time="0/1" value="0" leadInLength="0/1"  />
               <InterpolatingParam id="5788" interp="linr"  time="0/1" value="0" leadInLength="0/1"  />
               <InterpolatingParam id="5789" interp="linr"  time="0/1" value="0" leadInLength="0/1"  />
               <InterpolatingParam id="5790" interp="linr"  time="0/1" value="0" leadInLength="0/1"  />
              </VectorParam>
              <VectorParam id="5791"  name="geometryCrop">
               <InterpolatingParam id="5792" interp="linr"  time="-9999999/1" value="0" leadInLength="0/1"  />
               <InterpolatingParam id="5793" interp="linr"  time="-9999999/1" value="0" leadInLength="0/1"  />
               <InterpolatingParam id="5794" interp="linr"  time="-9999999/1" value="0" leadInLength="0/1"  />
               <InterpolatingParam id="5795" interp="linr"  time="-9999999/1" value="0" leadInLength="0/1"  />
              </VectorParam>
              <InterpolatingParam id="5796" interp="linr"  time="-9999999/1" value="1" leadInLength="0/1"  name="opacity"/>
             </Parameters>
             <Attributes>
              <Attribute id="5797" value="" name="ident"/>
             </Attributes>
             <ExtraData>
              <Entry key="ZoomPanBin">
               <ZoomPanBin id="5798"  >
                <ZoomPanKeyframes>
                 <ZoomPanKeyframe id="5799" timeRangeEnd="-9999999/1" timeRangeDuration="0/1" interpolaterName="linr"  />
                </ZoomPanKeyframes>
               </ZoomPanBin>
              </Entry>
             </ExtraData>
            </VMFile>
            <MetaData>
             <entry key="WinSubProjectDisplayName" val=""/>
            </MetaData>
           </UnifiedMedia>
           <UnifiedMedia id="5800"  >
            <AMFile id="5801" start="9042" duration="643" scalar="1/1" mediaStart="15904/1" mediaDuration="643/1" trackNumber="2" src="6" channelNumber="0,1" >
             <Parameters>
              <InterpolatingParam id="5802" interp="linr"  time="0/1" value="1" leadInLength="0/1"  name="volume"/>
              <Parameter id="5803"  name="captions"/>
             </Parameters>
             <Attributes>
              <Attribute id="5804" value="" name="ident"/>
              <Attribute id="5805" value="44100" name="sampleRate"/>
              <Attribute id="5806" value="16" name="bitDepth"/>
              <Attribute id="5807" value="1" name="gain"/>
              <Attribute id="5808" value="0" name="mixToMono"/>
             </Attributes>
            </AMFile>
            <VMFile id="5809" start="9042" duration="643" scalar="1/1" mediaStart="15904/1" mediaDuration="643/1" trackNumber="1" src="6" >
             <Transformer>
              <VectorParam id="5810"  name="translation">
               <InterpolatingParam id="5811" interp="linr"  time="-9999999/1" value="0" leadInLength="0/1"  />
               <InterpolatingParam id="5812" interp="linr"  time="-9999999/1" value="0" leadInLength="0/1"  />
               <InterpolatingParam id="5813" interp="linr"  time="-9999999/1" value="0" leadInLength="0/1"  />
              </VectorParam>
              <VectorParam id="5814"  name="rotation">
               <InterpolatingParam id="5815" interp="linr"  time="-9999999/1" value="0" leadInLength="0/1"  />
               <InterpolatingParam id="5816" interp="linr"  time="-9999999/1" value="0" leadInLength="0/1"  />
               <InterpolatingParam id="5817" interp="linr"  time="-9999999/1" value="0" leadInLength="0/1"  />
              </VectorParam>
              <VectorParam id="5818"  name="shear">
               <InterpolatingParam id="5819" interp="linr"  time="-9999999/1" value="0" leadInLength="0/1"  />
               <InterpolatingParam id="5820" interp="linr"  time="-9999999/1" value="0" leadInLength="0/1"  />
               <InterpolatingParam id="5821" interp="linr"  time="-9999999/1" value="0" leadInLength="0/1"  />
              </VectorParam>
              <VectorParam id="5822"  name="scale">
               <InterpolatingParam id="5823" interp="linr"  time="-9999999/1" value="1" leadInLength="0/1"  />
               <InterpolatingParam id="5824" interp="linr"  time="-9999999/1" value="1" leadInLength="0/1"  />
               <InterpolatingParam id="5825" interp="linr"  time="-9999999/1" value="1" leadInLength="0/1"  />
              </VectorParam>
              <VectorParam id="5826"  name="anchor">
               <InterpolatingParam id="5827" interp="linr"  time="0/1" value="0" leadInLength="0/1"  />
               <InterpolatingParam id="5828" interp="linr"  time="0/1" value="0" leadInLength="0/1"  />
               <InterpolatingParam id="5829" interp="linr"  time="0/1" value="0" leadInLength="0/1"  />
              </VectorParam>
             </Transformer>
             <Parameters>
              <VectorParam id="5830"  name="sourceCrop">
               <InterpolatingParam id="5831" interp="linr"  time="0/1" value="0" leadInLength="0/1"  />
               <InterpolatingParam id="5832" interp="linr"  time="0/1" value="0" leadInLength="0/1"  />
               <InterpolatingParam id="5833" interp="linr"  time="0/1" value="0" leadInLength="0/1"  />
               <InterpolatingParam id="5834" interp="linr"  time="0/1" value="0" leadInLength="0/1"  />
              </VectorParam>
              <VectorParam id="5835"  name="geometryCrop">
               <InterpolatingParam id="5836" interp="linr"  time="-9999999/1" value="0" leadInLength="0/1"  />
               <InterpolatingParam id="5837" interp="linr"  time="-9999999/1" value="0" leadInLength="0/1"  />
               <InterpolatingParam id="5838" interp="linr"  time="-9999999/1" value="0" leadInLength="0/1"  />
               <InterpolatingParam id="5839" interp="linr"  time="-9999999/1" value="0" leadInLength="0/1"  />
              </VectorParam>
              <InterpolatingParam id="5840" interp="linr"  time="-9999999/1" value="1" leadInLength="0/1"  name="opacity"/>
             </Parameters>
             <Attributes>
              <Attribute id="5841" value="" name="ident"/>
             </Attributes>
             <ExtraData>
              <Entry key="ZoomPanBin">
               <ZoomPanBin id="5842"  >
                <ZoomPanKeyframes>
                 <ZoomPanKeyframe id="5843" timeRangeEnd="-9999999/1" timeRangeDuration="0/1" interpolaterName="linr"  />
                </ZoomPanKeyframes>
               </ZoomPanBin>
              </Entry>
             </ExtraData>
            </VMFile>
            <MetaData>
             <entry key="WinSubProjectDisplayName" val=""/>
            </MetaData>
           </UnifiedMedia>
           <UnifiedMedia id="5844"  >
            <AMFile id="5845" start="9685" duration="247" scalar="1/1" mediaStart="16556/1" mediaDuration="247/1" trackNumber="2" src="6" channelNumber="0,1" >
             <Parameters>
              <InterpolatingParam id="5846" interp="linr"  time="0/1" value="1" leadInLength="0/1"  name="volume"/>
              <Parameter id="5847"  name="captions"/>
             </Parameters>
             <Attributes>
              <Attribute id="5848" value="" name="ident"/>
              <Attribute id="5849" value="44100" name="sampleRate"/>
              <Attribute id="5850" value="16" name="bitDepth"/>
              <Attribute id="5851" value="1" name="gain"/>
              <Attribute id="5852" value="0" name="mixToMono"/>
             </Attributes>
            </AMFile>
            <VMFile id="5853" start="9685" duration="247" scalar="1/1" mediaStart="16556/1" mediaDuration="247/1" trackNumber="1" src="6" >
             <Transformer>
              <VectorParam id="5854"  name="translation">
               <InterpolatingParam id="5855" interp="linr"  time="-9999999/1" value="0" leadInLength="0/1"  />
               <InterpolatingParam id="5856" interp="linr"  time="-9999999/1" value="0" leadInLength="0/1"  />
               <InterpolatingParam id="5857" interp="linr"  time="-9999999/1" value="0" leadInLength="0/1"  />
              </VectorParam>
              <VectorParam id="5858"  name="rotation">
               <InterpolatingParam id="5859" interp="linr"  time="-9999999/1" value="0" leadInLength="0/1"  />
               <InterpolatingParam id="5860" interp="linr"  time="-9999999/1" value="0" leadInLength="0/1"  />
               <InterpolatingParam id="5861" interp="linr"  time="-9999999/1" value="0" leadInLength="0/1"  />
              </VectorParam>
              <VectorParam id="5862"  name="shear">
               <InterpolatingParam id="5863" interp="linr"  time="-9999999/1" value="0" leadInLength="0/1"  />
               <InterpolatingParam id="5864" interp="linr"  time="-9999999/1" value="0" leadInLength="0/1"  />
               <InterpolatingParam id="5865" interp="linr"  time="-9999999/1" value="0" leadInLength="0/1"  />
              </VectorParam>
              <VectorParam id="5866"  name="scale">
               <InterpolatingParam id="5867" interp="linr"  time="-9999999/1" value="1" leadInLength="0/1"  />
               <InterpolatingParam id="5868" interp="linr"  time="-9999999/1" value="1" leadInLength="0/1"  />
               <InterpolatingParam id="5869" interp="linr"  time="-9999999/1" value="1" leadInLength="0/1"  />
              </VectorParam>
              <VectorParam id="5870"  name="anchor">
               <InterpolatingParam id="5871" interp="linr"  time="0/1" value="0" leadInLength="0/1"  />
               <InterpolatingParam id="5872" interp="linr"  time="0/1" value="0" leadInLength="0/1"  />
               <InterpolatingParam id="5873" interp="linr"  time="0/1" value="0" leadInLength="0/1"  />
              </VectorParam>
             </Transformer>
             <Parameters>
              <VectorParam id="5874"  name="sourceCrop">
               <InterpolatingParam id="5875" interp="linr"  time="0/1" value="0" leadInLength="0/1"  />
               <InterpolatingParam id="5876" interp="linr"  time="0/1" value="0" leadInLength="0/1"  />
               <InterpolatingParam id="5877" interp="linr"  time="0/1" value="0" leadInLength="0/1"  />
               <InterpolatingParam id="5878" interp="linr"  time="0/1" value="0" leadInLength="0/1"  />
              </VectorParam>
              <VectorParam id="5879"  name="geometryCrop">
               <InterpolatingParam id="5880" interp="linr"  time="-9999999/1" value="0" leadInLength="0/1"  />
               <InterpolatingParam id="5881" interp="linr"  time="-9999999/1" value="0" leadInLength="0/1"  />
               <InterpolatingParam id="5882" interp="linr"  time="-9999999/1" value="0" leadInLength="0/1"  />
               <InterpolatingParam id="5883" interp="linr"  time="-9999999/1" value="0" leadInLength="0/1"  />
              </VectorParam>
              <InterpolatingParam id="5884" interp="linr"  time="-9999999/1" value="1" leadInLength="0/1"  name="opacity"/>
             </Parameters>
             <Attributes>
              <Attribute id="5885" value="" name="ident"/>
             </Attributes>
             <ExtraData>
              <Entry key="ZoomPanBin">
               <ZoomPanBin id="5886"  >
                <ZoomPanKeyframes>
                 <ZoomPanKeyframe id="5887" timeRangeEnd="-9999999/1" timeRangeDuration="0/1" interpolaterName="linr"  />
                </ZoomPanKeyframes>
               </ZoomPanBin>
              </Entry>
             </ExtraData>
            </VMFile>
            <MetaData>
             <entry key="WinSubProjectDisplayName" val=""/>
            </MetaData>
           </UnifiedMedia>
           <UnifiedMedia id="5888"  >
            <AMFile id="5889" start="9932" duration="198" scalar="1/1" mediaStart="16813/1" mediaDuration="198/1" trackNumber="2" src="6" channelNumber="0,1" >
             <Parameters>
              <InterpolatingParam id="5890" interp="linr"  time="0/1" value="1" leadInLength="0/1"  name="volume"/>
              <Parameter id="5891"  name="captions"/>
             </Parameters>
             <Attributes>
              <Attribute id="5892" value="" name="ident"/>
              <Attribute id="5893" value="44100" name="sampleRate"/>
              <Attribute id="5894" value="16" name="bitDepth"/>
              <Attribute id="5895" value="1" name="gain"/>
              <Attribute id="5896" value="0" name="mixToMono"/>
             </Attributes>
            </AMFile>
            <VMFile id="5897" start="9932" duration="198" scalar="1/1" mediaStart="16813/1" mediaDuration="198/1" trackNumber="1" src="6" >
             <Transformer>
              <VectorParam id="5898"  name="translation">
               <InterpolatingParam id="5899" interp="linr"  time="-9999999/1" value="0" leadInLength="0/1"  />
               <InterpolatingParam id="5900" interp="linr"  time="-9999999/1" value="0" leadInLength="0/1"  />
               <InterpolatingParam id="5901" interp="linr"  time="-9999999/1" value="0" leadInLength="0/1"  />
              </VectorParam>
              <VectorParam id="5902"  name="rotation">
               <InterpolatingParam id="5903" interp="linr"  time="-9999999/1" value="0" leadInLength="0/1"  />
               <InterpolatingParam id="5904" interp="linr"  time="-9999999/1" value="0" leadInLength="0/1"  />
               <InterpolatingParam id="5905" interp="linr"  time="-9999999/1" value="0" leadInLength="0/1"  />
              </VectorParam>
              <VectorParam id="5906"  name="shear">
               <InterpolatingParam id="5907" interp="linr"  time="-9999999/1" value="0" leadInLength="0/1"  />
               <InterpolatingParam id="5908" interp="linr"  time="-9999999/1" value="0" leadInLength="0/1"  />
               <InterpolatingParam id="5909" interp="linr"  time="-9999999/1" value="0" leadInLength="0/1"  />
              </VectorParam>
              <VectorParam id="5910"  name="scale">
               <InterpolatingParam id="5911" interp="linr"  time="-9999999/1" value="1" leadInLength="0/1"  />
               <InterpolatingParam id="5912" interp="linr"  time="-9999999/1" value="1" leadInLength="0/1"  />
               <InterpolatingParam id="5913" interp="linr"  time="-9999999/1" value="1" leadInLength="0/1"  />
              </VectorParam>
              <VectorParam id="5914"  name="anchor">
               <InterpolatingParam id="5915" interp="linr"  time="0/1" value="0" leadInLength="0/1"  />
               <InterpolatingParam id="5916" interp="linr"  time="0/1" value="0" leadInLength="0/1"  />
               <InterpolatingParam id="5917" interp="linr"  time="0/1" value="0" leadInLength="0/1"  />
              </VectorParam>
             </Transformer>
             <Parameters>
              <VectorParam id="5918"  name="sourceCrop">
               <InterpolatingParam id="5919" interp="linr"  time="0/1" value="0" leadInLength="0/1"  />
               <InterpolatingParam id="5920" interp="linr"  time="0/1" value="0" leadInLength="0/1"  />
               <InterpolatingParam id="5921" interp="linr"  time="0/1" value="0" leadInLength="0/1"  />
               <InterpolatingParam id="5922" interp="linr"  time="0/1" value="0" leadInLength="0/1"  />
              </VectorParam>
              <VectorParam id="5923"  name="geometryCrop">
               <InterpolatingParam id="5924" interp="linr"  time="-9999999/1" value="0" leadInLength="0/1"  />
               <InterpolatingParam id="5925" interp="linr"  time="-9999999/1" value="0" leadInLength="0/1"  />
               <InterpolatingParam id="5926" interp="linr"  time="-9999999/1" value="0" leadInLength="0/1"  />
               <InterpolatingParam id="5927" interp="linr"  time="-9999999/1" value="0" leadInLength="0/1"  />
              </VectorParam>
              <InterpolatingParam id="5928" interp="linr"  time="-9999999/1" value="1" leadInLength="0/1"  name="opacity"/>
             </Parameters>
             <Attributes>
              <Attribute id="5929" value="" name="ident"/>
             </Attributes>
             <ExtraData>
              <Entry key="ZoomPanBin">
               <ZoomPanBin id="5930"  >
                <ZoomPanKeyframes>
                 <ZoomPanKeyframe id="5931" timeRangeEnd="-9999999/1" timeRangeDuration="0/1" interpolaterName="linr"  />
                </ZoomPanKeyframes>
               </ZoomPanBin>
              </Entry>
             </ExtraData>
            </VMFile>
            <MetaData>
             <entry key="WinSubProjectDisplayName" val=""/>
            </MetaData>
           </UnifiedMedia>
           <UnifiedMedia id="5932"  >
            <AMFile id="5933" start="10130" duration="5" scalar="1/1" mediaStart="18689/1" mediaDuration="5/1" trackNumber="2" src="6" channelNumber="0,1" >
             <Parameters>
              <InterpolatingParam id="5934" interp="linr"  time="0/1" value="1" leadInLength="0/1"  name="volume"/>
              <Parameter id="5935"  name="captions"/>
             </Parameters>
             <Attributes>
              <Attribute id="5936" value="" name="ident"/>
              <Attribute id="5937" value="44100" name="sampleRate"/>
              <Attribute id="5938" value="16" name="bitDepth"/>
              <Attribute id="5939" value="1" name="gain"/>
              <Attribute id="5940" value="0" name="mixToMono"/>
             </Attributes>
            </AMFile>
            <VMFile id="5941" start="10130" duration="5" scalar="1/1" mediaStart="18689/1" mediaDuration="5/1" trackNumber="1" src="6" >
             <Transformer>
              <VectorParam id="5942"  name="translation">
               <InterpolatingParam id="5943" interp="linr"  time="-9999999/1" value="0" leadInLength="0/1"  />
               <InterpolatingParam id="5944" interp="linr"  time="-9999999/1" value="0" leadInLength="0/1"  />
               <InterpolatingParam id="5945" interp="linr"  time="-9999999/1" value="0" leadInLength="0/1"  />
              </VectorParam>
              <VectorParam id="5946"  name="rotation">
               <InterpolatingParam id="5947" interp="linr"  time="-9999999/1" value="0" leadInLength="0/1"  />
               <InterpolatingParam id="5948" interp="linr"  time="-9999999/1" value="0" leadInLength="0/1"  />
               <InterpolatingParam id="5949" interp="linr"  time="-9999999/1" value="0" leadInLength="0/1"  />
              </VectorParam>
              <VectorParam id="5950"  name="shear">
               <InterpolatingParam id="5951" interp="linr"  time="-9999999/1" value="0" leadInLength="0/1"  />
               <InterpolatingParam id="5952" interp="linr"  time="-9999999/1" value="0" leadInLength="0/1"  />
               <InterpolatingParam id="5953" interp="linr"  time="-9999999/1" value="0" leadInLength="0/1"  />
              </VectorParam>
              <VectorParam id="5954"  name="scale">
               <InterpolatingParam id="5955" interp="linr"  time="-9999999/1" value="1" leadInLength="0/1"  />
               <InterpolatingParam id="5956" interp="linr"  time="-9999999/1" value="1" leadInLength="0/1"  />
               <InterpolatingParam id="5957" interp="linr"  time="-9999999/1" value="1" leadInLength="0/1"  />
              </VectorParam>
              <VectorParam id="5958"  name="anchor">
               <InterpolatingParam id="5959" interp="linr"  time="0/1" value="0" leadInLength="0/1"  />
               <InterpolatingParam id="5960" interp="linr"  time="0/1" value="0" leadInLength="0/1"  />
               <InterpolatingParam id="5961" interp="linr"  time="0/1" value="0" leadInLength="0/1"  />
              </VectorParam>
             </Transformer>
             <Parameters>
              <VectorParam id="5962"  name="sourceCrop">
               <InterpolatingParam id="5963" interp="linr"  time="0/1" value="0" leadInLength="0/1"  />
               <InterpolatingParam id="5964" interp="linr"  time="0/1" value="0" leadInLength="0/1"  />
               <InterpolatingParam id="5965" interp="linr"  time="0/1" value="0" leadInLength="0/1"  />
               <InterpolatingParam id="5966" interp="linr"  time="0/1" value="0" leadInLength="0/1"  />
              </VectorParam>
              <VectorParam id="5967"  name="geometryCrop">
               <InterpolatingParam id="5968" interp="linr"  time="-9999999/1" value="0" leadInLength="0/1"  />
               <InterpolatingParam id="5969" interp="linr"  time="-9999999/1" value="0" leadInLength="0/1"  />
               <InterpolatingParam id="5970" interp="linr"  time="-9999999/1" value="0" leadInLength="0/1"  />
               <InterpolatingParam id="5971" interp="linr"  time="-9999999/1" value="0" leadInLength="0/1"  />
              </VectorParam>
              <InterpolatingParam id="5972" interp="linr"  time="-9999999/1" value="1" leadInLength="0/1"  name="opacity"/>
             </Parameters>
             <Attributes>
              <Attribute id="5973" value="" name="ident"/>
             </Attributes>
             <ExtraData>
              <Entry key="ZoomPanBin">
               <ZoomPanBin id="5974"  >
                <ZoomPanKeyframes>
                 <ZoomPanKeyframe id="5975" timeRangeEnd="-9999999/1" timeRangeDuration="0/1" interpolaterName="linr"  />
                </ZoomPanKeyframes>
               </ZoomPanBin>
              </Entry>
             </ExtraData>
            </VMFile>
            <MetaData>
             <entry key="WinSubProjectDisplayName" val=""/>
            </MetaData>
           </UnifiedMedia>
           <UnifiedMedia id="5976"  >
            <AMFile id="5977" start="10135" duration="471" scalar="1/1" mediaStart="18713/1" mediaDuration="471/1" trackNumber="2" src="6" channelNumber="0,1" >
             <Parameters>
              <InterpolatingParam id="5978" interp="linr"  time="0/1" value="1" leadInLength="0/1"  name="volume"/>
              <Parameter id="5979"  name="captions"/>
             </Parameters>
             <Attributes>
              <Attribute id="5980" value="" name="ident"/>
              <Attribute id="5981" value="44100" name="sampleRate"/>
              <Attribute id="5982" value="16" name="bitDepth"/>
              <Attribute id="5983" value="1" name="gain"/>
              <Attribute id="5984" value="0" name="mixToMono"/>
             </Attributes>
            </AMFile>
            <VMFile id="5985" start="10135" duration="471" scalar="1/1" mediaStart="18713/1" mediaDuration="471/1" trackNumber="1" src="6" >
             <Transformer>
              <VectorParam id="5986"  name="translation">
               <InterpolatingParam id="5987" interp="linr"  time="-9999999/1" value="0" leadInLength="0/1"  />
               <InterpolatingParam id="5988" interp="linr"  time="-9999999/1" value="0" leadInLength="0/1"  />
               <InterpolatingParam id="5989" interp="linr"  time="-9999999/1" value="0" leadInLength="0/1"  />
              </VectorParam>
              <VectorParam id="5990"  name="rotation">
               <InterpolatingParam id="5991" interp="linr"  time="-9999999/1" value="0" leadInLength="0/1"  />
               <InterpolatingParam id="5992" interp="linr"  time="-9999999/1" value="0" leadInLength="0/1"  />
               <InterpolatingParam id="5993" interp="linr"  time="-9999999/1" value="0" leadInLength="0/1"  />
              </VectorParam>
              <VectorParam id="5994"  name="shear">
               <InterpolatingParam id="5995" interp="linr"  time="-9999999/1" value="0" leadInLength="0/1"  />
               <InterpolatingParam id="5996" interp="linr"  time="-9999999/1" value="0" leadInLength="0/1"  />
               <InterpolatingParam id="5997" interp="linr"  time="-9999999/1" value="0" leadInLength="0/1"  />
              </VectorParam>
              <VectorParam id="5998"  name="scale">
               <InterpolatingParam id="5999" interp="linr"  time="-9999999/1" value="1" leadInLength="0/1"  />
               <InterpolatingParam id="6000" interp="linr"  time="-9999999/1" value="1" leadInLength="0/1"  />
               <InterpolatingParam id="6001" interp="linr"  time="-9999999/1" value="1" leadInLength="0/1"  />
              </VectorParam>
              <VectorParam id="6002"  name="anchor">
               <InterpolatingParam id="6003" interp="linr"  time="0/1" value="0" leadInLength="0/1"  />
               <InterpolatingParam id="6004" interp="linr"  time="0/1" value="0" leadInLength="0/1"  />
               <InterpolatingParam id="6005" interp="linr"  time="0/1" value="0" leadInLength="0/1"  />
              </VectorParam>
             </Transformer>
             <Parameters>
              <VectorParam id="6006"  name="sourceCrop">
               <InterpolatingParam id="6007" interp="linr"  time="0/1" value="0" leadInLength="0/1"  />
               <InterpolatingParam id="6008" interp="linr"  time="0/1" value="0" leadInLength="0/1"  />
               <InterpolatingParam id="6009" interp="linr"  time="0/1" value="0" leadInLength="0/1"  />
               <InterpolatingParam id="6010" interp="linr"  time="0/1" value="0" leadInLength="0/1"  />
              </VectorParam>
              <VectorParam id="6011"  name="geometryCrop">
               <InterpolatingParam id="6012" interp="linr"  time="-9999999/1" value="0" leadInLength="0/1"  />
               <InterpolatingParam id="6013" interp="linr"  time="-9999999/1" value="0" leadInLength="0/1"  />
               <InterpolatingParam id="6014" interp="linr"  time="-9999999/1" value="0" leadInLength="0/1"  />
               <InterpolatingParam id="6015" interp="linr"  time="-9999999/1" value="0" leadInLength="0/1"  />
              </VectorParam>
              <InterpolatingParam id="6016" interp="linr"  time="-9999999/1" value="1" leadInLength="0/1"  name="opacity"/>
             </Parameters>
             <Attributes>
              <Attribute id="6017" value="" name="ident"/>
             </Attributes>
             <ExtraData>
              <Entry key="ZoomPanBin">
               <ZoomPanBin id="6018"  >
                <ZoomPanKeyframes>
                 <ZoomPanKeyframe id="6019" timeRangeEnd="-9999999/1" timeRangeDuration="0/1" interpolaterName="linr"  />
                </ZoomPanKeyframes>
               </ZoomPanBin>
              </Entry>
             </ExtraData>
            </VMFile>
            <MetaData>
             <entry key="WinSubProjectDisplayName" val=""/>
            </MetaData>
           </UnifiedMedia>
           <UnifiedMedia id="6020"  >
            <AMFile id="6021" start="10606" duration="2" scalar="1/1" mediaStart="19248/1" mediaDuration="2/1" trackNumber="2" src="6" channelNumber="0,1" >
             <Parameters>
              <InterpolatingParam id="6022" interp="linr"  time="0/1" value="1" leadInLength="0/1"  name="volume"/>
              <Parameter id="6023"  name="captions"/>
             </Parameters>
             <Attributes>
              <Attribute id="6024" value="" name="ident"/>
              <Attribute id="6025" value="44100" name="sampleRate"/>
              <Attribute id="6026" value="16" name="bitDepth"/>
              <Attribute id="6027" value="1" name="gain"/>
              <Attribute id="6028" value="0" name="mixToMono"/>
             </Attributes>
            </AMFile>
            <VMFile id="6029" start="10606" duration="2" scalar="1/1" mediaStart="19248/1" mediaDuration="2/1" trackNumber="1" src="6" >
             <Transformer>
              <VectorParam id="6030"  name="translation">
               <InterpolatingParam id="6031" interp="linr"  time="-9999999/1" value="0" leadInLength="0/1"  />
               <InterpolatingParam id="6032" interp="linr"  time="-9999999/1" value="0" leadInLength="0/1"  />
               <InterpolatingParam id="6033" interp="linr"  time="-9999999/1" value="0" leadInLength="0/1"  />
              </VectorParam>
              <VectorParam id="6034"  name="rotation">
               <InterpolatingParam id="6035" interp="linr"  time="-9999999/1" value="0" leadInLength="0/1"  />
               <InterpolatingParam id="6036" interp="linr"  time="-9999999/1" value="0" leadInLength="0/1"  />
               <InterpolatingParam id="6037" interp="linr"  time="-9999999/1" value="0" leadInLength="0/1"  />
              </VectorParam>
              <VectorParam id="6038"  name="shear">
               <InterpolatingParam id="6039" interp="linr"  time="-9999999/1" value="0" leadInLength="0/1"  />
               <InterpolatingParam id="6040" interp="linr"  time="-9999999/1" value="0" leadInLength="0/1"  />
               <InterpolatingParam id="6041" interp="linr"  time="-9999999/1" value="0" leadInLength="0/1"  />
              </VectorParam>
              <VectorParam id="6042"  name="scale">
               <InterpolatingParam id="6043" interp="linr"  time="-9999999/1" value="1" leadInLength="0/1"  />
               <InterpolatingParam id="6044" interp="linr"  time="-9999999/1" value="1" leadInLength="0/1"  />
               <InterpolatingParam id="6045" interp="linr"  time="-9999999/1" value="1" leadInLength="0/1"  />
              </VectorParam>
              <VectorParam id="6046"  name="anchor">
               <InterpolatingParam id="6047" interp="linr"  time="0/1" value="0" leadInLength="0/1"  />
               <InterpolatingParam id="6048" interp="linr"  time="0/1" value="0" leadInLength="0/1"  />
               <InterpolatingParam id="6049" interp="linr"  time="0/1" value="0" leadInLength="0/1"  />
              </VectorParam>
             </Transformer>
             <Parameters>
              <VectorParam id="6050"  name="sourceCrop">
               <InterpolatingParam id="6051" interp="linr"  time="0/1" value="0" leadInLength="0/1"  />
               <InterpolatingParam id="6052" interp="linr"  time="0/1" value="0" leadInLength="0/1"  />
               <InterpolatingParam id="6053" interp="linr"  time="0/1" value="0" leadInLength="0/1"  />
               <InterpolatingParam id="6054" interp="linr"  time="0/1" value="0" leadInLength="0/1"  />
              </VectorParam>
              <VectorParam id="6055"  name="geometryCrop">
               <InterpolatingParam id="6056" interp="linr"  time="-9999999/1" value="0" leadInLength="0/1"  />
               <InterpolatingParam id="6057" interp="linr"  time="-9999999/1" value="0" leadInLength="0/1"  />
               <InterpolatingParam id="6058" interp="linr"  time="-9999999/1" value="0" leadInLength="0/1"  />
               <InterpolatingParam id="6059" interp="linr"  time="-9999999/1" value="0" leadInLength="0/1"  />
              </VectorParam>
              <InterpolatingParam id="6060" interp="linr"  time="-9999999/1" value="1" leadInLength="0/1"  name="opacity"/>
             </Parameters>
             <Attributes>
              <Attribute id="6061" value="" name="ident"/>
             </Attributes>
             <ExtraData>
              <Entry key="ZoomPanBin">
               <ZoomPanBin id="6062"  >
                <ZoomPanKeyframes>
                 <ZoomPanKeyframe id="6063" timeRangeEnd="-9999999/1" timeRangeDuration="0/1" interpolaterName="linr"  />
                </ZoomPanKeyframes>
               </ZoomPanBin>
              </Entry>
             </ExtraData>
            </VMFile>
            <MetaData>
             <entry key="WinSubProjectDisplayName" val=""/>
            </MetaData>
           </UnifiedMedia>
           <UnifiedMedia id="6064"  >
            <AMFile id="6065" start="10608" duration="209" scalar="1/1" mediaStart="19794/1" mediaDuration="209/1" trackNumber="2" src="6" channelNumber="0,1" >
             <Parameters>
              <InterpolatingParam id="6066" interp="linr"  time="0/1" value="1" leadInLength="0/1"  name="volume"/>
              <Parameter id="6067"  name="captions"/>
             </Parameters>
             <Attributes>
              <Attribute id="6068" value="" name="ident"/>
              <Attribute id="6069" value="44100" name="sampleRate"/>
              <Attribute id="6070" value="16" name="bitDepth"/>
              <Attribute id="6071" value="1" name="gain"/>
              <Attribute id="6072" value="0" name="mixToMono"/>
             </Attributes>
            </AMFile>
            <VMFile id="6073" start="10608" duration="209" scalar="1/1" mediaStart="19794/1" mediaDuration="209/1" trackNumber="1" src="6" >
             <Transformer>
              <VectorParam id="6074"  name="translation">
               <InterpolatingParam id="6075" interp="linr"  time="-9999999/1" value="0" leadInLength="0/1"  />
               <InterpolatingParam id="6076" interp="linr"  time="-9999999/1" value="0" leadInLength="0/1"  />
               <InterpolatingParam id="6077" interp="linr"  time="-9999999/1" value="0" leadInLength="0/1"  />
              </VectorParam>
              <VectorParam id="6078"  name="rotation">
               <InterpolatingParam id="6079" interp="linr"  time="-9999999/1" value="0" leadInLength="0/1"  />
               <InterpolatingParam id="6080" interp="linr"  time="-9999999/1" value="0" leadInLength="0/1"  />
               <InterpolatingParam id="6081" interp="linr"  time="-9999999/1" value="0" leadInLength="0/1"  />
              </VectorParam>
              <VectorParam id="6082"  name="shear">
               <InterpolatingParam id="6083" interp="linr"  time="-9999999/1" value="0" leadInLength="0/1"  />
               <InterpolatingParam id="6084" interp="linr"  time="-9999999/1" value="0" leadInLength="0/1"  />
               <InterpolatingParam id="6085" interp="linr"  time="-9999999/1" value="0" leadInLength="0/1"  />
              </VectorParam>
              <VectorParam id="6086"  name="scale">
               <InterpolatingParam id="6087" interp="linr"  time="-9999999/1" value="1" leadInLength="0/1"  />
               <InterpolatingParam id="6088" interp="linr"  time="-9999999/1" value="1" leadInLength="0/1"  />
               <InterpolatingParam id="6089" interp="linr"  time="-9999999/1" value="1" leadInLength="0/1"  />
              </VectorParam>
              <VectorParam id="6090"  name="anchor">
               <InterpolatingParam id="6091" interp="linr"  time="0/1" value="0" leadInLength="0/1"  />
               <InterpolatingParam id="6092" interp="linr"  time="0/1" value="0" leadInLength="0/1"  />
               <InterpolatingParam id="6093" interp="linr"  time="0/1" value="0" leadInLength="0/1"  />
              </VectorParam>
             </Transformer>
             <Parameters>
              <VectorParam id="6094"  name="sourceCrop">
               <InterpolatingParam id="6095" interp="linr"  time="0/1" value="0" leadInLength="0/1"  />
               <InterpolatingParam id="6096" interp="linr"  time="0/1" value="0" leadInLength="0/1"  />
               <InterpolatingParam id="6097" interp="linr"  time="0/1" value="0" leadInLength="0/1"  />
               <InterpolatingParam id="6098" interp="linr"  time="0/1" value="0" leadInLength="0/1"  />
              </VectorParam>
              <VectorParam id="6099"  name="geometryCrop">
               <InterpolatingParam id="6100" interp="linr"  time="-9999999/1" value="0" leadInLength="0/1"  />
               <InterpolatingParam id="6101" interp="linr"  time="-9999999/1" value="0" leadInLength="0/1"  />
               <InterpolatingParam id="6102" interp="linr"  time="-9999999/1" value="0" leadInLength="0/1"  />
               <InterpolatingParam id="6103" interp="linr"  time="-9999999/1" value="0" leadInLength="0/1"  />
              </VectorParam>
              <InterpolatingParam id="6104" interp="linr"  time="-9999999/1" value="1" leadInLength="0/1"  name="opacity"/>
             </Parameters>
             <Attributes>
              <Attribute id="6105" value="" name="ident"/>
             </Attributes>
             <ExtraData>
              <Entry key="ZoomPanBin">
               <ZoomPanBin id="6106"  >
                <ZoomPanKeyframes>
                 <ZoomPanKeyframe id="6107" timeRangeEnd="-9999999/1" timeRangeDuration="0/1" interpolaterName="linr"  />
                </ZoomPanKeyframes>
               </ZoomPanBin>
              </Entry>
             </ExtraData>
            </VMFile>
            <MetaData>
             <entry key="WinSubProjectDisplayName" val=""/>
            </MetaData>
           </UnifiedMedia>
           <UnifiedMedia id="6108"  >
            <AMFile id="6109" start="10817" duration="169" scalar="1/1" mediaStart="20123/1" mediaDuration="169/1" trackNumber="2" src="6" channelNumber="0,1" >
             <Parameters>
              <InterpolatingParam id="6110" interp="linr"  time="0/1" value="1" leadInLength="0/1"  name="volume"/>
              <Parameter id="6111"  name="captions"/>
             </Parameters>
             <Attributes>
              <Attribute id="6112" value="" name="ident"/>
              <Attribute id="6113" value="44100" name="sampleRate"/>
              <Attribute id="6114" value="16" name="bitDepth"/>
              <Attribute id="6115" value="1" name="gain"/>
              <Attribute id="6116" value="0" name="mixToMono"/>
             </Attributes>
            </AMFile>
            <VMFile id="6117" start="10817" duration="169" scalar="1/1" mediaStart="20123/1" mediaDuration="169/1" trackNumber="1" src="6" >
             <Transformer>
              <VectorParam id="6118"  name="translation">
               <InterpolatingParam id="6119" interp="linr"  time="-9999999/1" value="0" leadInLength="0/1"  />
               <InterpolatingParam id="6120" interp="linr"  time="-9999999/1" value="0" leadInLength="0/1"  />
               <InterpolatingParam id="6121" interp="linr"  time="-9999999/1" value="0" leadInLength="0/1"  />
              </VectorParam>
              <VectorParam id="6122"  name="rotation">
               <InterpolatingParam id="6123" interp="linr"  time="-9999999/1" value="0" leadInLength="0/1"  />
               <InterpolatingParam id="6124" interp="linr"  time="-9999999/1" value="0" leadInLength="0/1"  />
               <InterpolatingParam id="6125" interp="linr"  time="-9999999/1" value="0" leadInLength="0/1"  />
              </VectorParam>
              <VectorParam id="6126"  name="shear">
               <InterpolatingParam id="6127" interp="linr"  time="-9999999/1" value="0" leadInLength="0/1"  />
               <InterpolatingParam id="6128" interp="linr"  time="-9999999/1" value="0" leadInLength="0/1"  />
               <InterpolatingParam id="6129" interp="linr"  time="-9999999/1" value="0" leadInLength="0/1"  />
              </VectorParam>
              <VectorParam id="6130"  name="scale">
               <InterpolatingParam id="6131" interp="linr"  time="-9999999/1" value="1" leadInLength="0/1"  />
               <InterpolatingParam id="6132" interp="linr"  time="-9999999/1" value="1" leadInLength="0/1"  />
               <InterpolatingParam id="6133" interp="linr"  time="-9999999/1" value="1" leadInLength="0/1"  />
              </VectorParam>
              <VectorParam id="6134"  name="anchor">
               <InterpolatingParam id="6135" interp="linr"  time="0/1" value="0" leadInLength="0/1"  />
               <InterpolatingParam id="6136" interp="linr"  time="0/1" value="0" leadInLength="0/1"  />
               <InterpolatingParam id="6137" interp="linr"  time="0/1" value="0" leadInLength="0/1"  />
              </VectorParam>
             </Transformer>
             <Parameters>
              <VectorParam id="6138"  name="sourceCrop">
               <InterpolatingParam id="6139" interp="linr"  time="0/1" value="0" leadInLength="0/1"  />
               <InterpolatingParam id="6140" interp="linr"  time="0/1" value="0" leadInLength="0/1"  />
               <InterpolatingParam id="6141" interp="linr"  time="0/1" value="0" leadInLength="0/1"  />
               <InterpolatingParam id="6142" interp="linr"  time="0/1" value="0" leadInLength="0/1"  />
              </VectorParam>
              <VectorParam id="6143"  name="geometryCrop">
               <InterpolatingParam id="6144" interp="linr"  time="-9999999/1" value="0" leadInLength="0/1"  />
               <InterpolatingParam id="6145" interp="linr"  time="-9999999/1" value="0" leadInLength="0/1"  />
               <InterpolatingParam id="6146" interp="linr"  time="-9999999/1" value="0" leadInLength="0/1"  />
               <InterpolatingParam id="6147" interp="linr"  time="-9999999/1" value="0" leadInLength="0/1"  />
              </VectorParam>
              <InterpolatingParam id="6148" interp="linr"  time="-9999999/1" value="1" leadInLength="0/1"  name="opacity"/>
             </Parameters>
             <Attributes>
              <Attribute id="6149" value="" name="ident"/>
             </Attributes>
             <ExtraData>
              <Entry key="ZoomPanBin">
               <ZoomPanBin id="6150"  >
                <ZoomPanKeyframes>
                 <ZoomPanKeyframe id="6151" timeRangeEnd="-9999999/1" timeRangeDuration="0/1" interpolaterName="linr"  />
                </ZoomPanKeyframes>
               </ZoomPanBin>
              </Entry>
             </ExtraData>
            </VMFile>
            <MetaData>
             <entry key="WinSubProjectDisplayName" val=""/>
            </MetaData>
           </UnifiedMedia>
           <UnifiedMedia id="6152"  >
            <AMFile id="6153" start="10986" duration="33" scalar="1/1" mediaStart="20300/1" mediaDuration="33/1" trackNumber="2" src="6" channelNumber="0,1" >
             <Parameters>
              <InterpolatingParam id="6154" interp="linr"  time="0/1" value="1" leadInLength="0/1"  name="volume"/>
              <Parameter id="6155"  name="captions"/>
             </Parameters>
             <Attributes>
              <Attribute id="6156" value="" name="ident"/>
              <Attribute id="6157" value="44100" name="sampleRate"/>
              <Attribute id="6158" value="16" name="bitDepth"/>
              <Attribute id="6159" value="1" name="gain"/>
              <Attribute id="6160" value="0" name="mixToMono"/>
             </Attributes>
            </AMFile>
            <VMFile id="6161" start="10986" duration="33" scalar="1/1" mediaStart="20300/1" mediaDuration="33/1" trackNumber="1" src="6" >
             <Transformer>
              <VectorParam id="6162"  name="translation">
               <InterpolatingParam id="6163" interp="linr"  time="-9999999/1" value="0" leadInLength="0/1"  />
               <InterpolatingParam id="6164" interp="linr"  time="-9999999/1" value="0" leadInLength="0/1"  />
               <InterpolatingParam id="6165" interp="linr"  time="-9999999/1" value="0" leadInLength="0/1"  />
              </VectorParam>
              <VectorParam id="6166"  name="rotation">
               <InterpolatingParam id="6167" interp="linr"  time="-9999999/1" value="0" leadInLength="0/1"  />
               <InterpolatingParam id="6168" interp="linr"  time="-9999999/1" value="0" leadInLength="0/1"  />
               <InterpolatingParam id="6169" interp="linr"  time="-9999999/1" value="0" leadInLength="0/1"  />
              </VectorParam>
              <VectorParam id="6170"  name="shear">
               <InterpolatingParam id="6171" interp="linr"  time="-9999999/1" value="0" leadInLength="0/1"  />
               <InterpolatingParam id="6172" interp="linr"  time="-9999999/1" value="0" leadInLength="0/1"  />
               <InterpolatingParam id="6173" interp="linr"  time="-9999999/1" value="0" leadInLength="0/1"  />
              </VectorParam>
              <VectorParam id="6174"  name="scale">
               <InterpolatingParam id="6175" interp="linr"  time="-9999999/1" value="1" leadInLength="0/1"  />
               <InterpolatingParam id="6176" interp="linr"  time="-9999999/1" value="1" leadInLength="0/1"  />
               <InterpolatingParam id="6177" interp="linr"  time="-9999999/1" value="1" leadInLength="0/1"  />
              </VectorParam>
              <VectorParam id="6178"  name="anchor">
               <InterpolatingParam id="6179" interp="linr"  time="0/1" value="0" leadInLength="0/1"  />
               <InterpolatingParam id="6180" interp="linr"  time="0/1" value="0" leadInLength="0/1"  />
               <InterpolatingParam id="6181" interp="linr"  time="0/1" value="0" leadInLength="0/1"  />
              </VectorParam>
             </Transformer>
             <Parameters>
              <VectorParam id="6182"  name="sourceCrop">
               <InterpolatingParam id="6183" interp="linr"  time="0/1" value="0" leadInLength="0/1"  />
               <InterpolatingParam id="6184" interp="linr"  time="0/1" value="0" leadInLength="0/1"  />
               <InterpolatingParam id="6185" interp="linr"  time="0/1" value="0" leadInLength="0/1"  />
               <InterpolatingParam id="6186" interp="linr"  time="0/1" value="0" leadInLength="0/1"  />
              </VectorParam>
              <VectorParam id="6187"  name="geometryCrop">
               <InterpolatingParam id="6188" interp="linr"  time="-9999999/1" value="0" leadInLength="0/1"  />
               <InterpolatingParam id="6189" interp="linr"  time="-9999999/1" value="0" leadInLength="0/1"  />
               <InterpolatingParam id="6190" interp="linr"  time="-9999999/1" value="0" leadInLength="0/1"  />
               <InterpolatingParam id="6191" interp="linr"  time="-9999999/1" value="0" leadInLength="0/1"  />
              </VectorParam>
              <InterpolatingParam id="6192" interp="linr"  time="-9999999/1" value="1" leadInLength="0/1"  name="opacity"/>
             </Parameters>
             <Attributes>
              <Attribute id="6193" value="" name="ident"/>
             </Attributes>
             <ExtraData>
              <Entry key="ZoomPanBin">
               <ZoomPanBin id="6194"  >
                <ZoomPanKeyframes>
                 <ZoomPanKeyframe id="6195" timeRangeEnd="-9999999/1" timeRangeDuration="0/1" interpolaterName="linr"  />
                </ZoomPanKeyframes>
               </ZoomPanBin>
              </Entry>
             </ExtraData>
            </VMFile>
            <MetaData>
             <entry key="WinSubProjectDisplayName" val=""/>
            </MetaData>
           </UnifiedMedia>
           <UnifiedMedia id="6196"  >
            <AMFile id="6197" start="11019" duration="22" scalar="1/1" mediaStart="20342/1" mediaDuration="22/1" trackNumber="2" src="6" channelNumber="0,1" >
             <Parameters>
              <InterpolatingParam id="6198" interp="linr"  time="0/1" value="1" leadInLength="0/1"  name="volume"/>
              <Parameter id="6199"  name="captions"/>
             </Parameters>
             <Attributes>
              <Attribute id="6200" value="" name="ident"/>
              <Attribute id="6201" value="44100" name="sampleRate"/>
              <Attribute id="6202" value="16" name="bitDepth"/>
              <Attribute id="6203" value="1" name="gain"/>
              <Attribute id="6204" value="0" name="mixToMono"/>
             </Attributes>
            </AMFile>
            <VMFile id="6205" start="11019" duration="22" scalar="1/1" mediaStart="20342/1" mediaDuration="22/1" trackNumber="1" src="6" >
             <Transformer>
              <VectorParam id="6206"  name="translation">
               <InterpolatingParam id="6207" interp="linr"  time="-9999999/1" value="0" leadInLength="0/1"  />
               <InterpolatingParam id="6208" interp="linr"  time="-9999999/1" value="0" leadInLength="0/1"  />
               <InterpolatingParam id="6209" interp="linr"  time="-9999999/1" value="0" leadInLength="0/1"  />
              </VectorParam>
              <VectorParam id="6210"  name="rotation">
               <InterpolatingParam id="6211" interp="linr"  time="-9999999/1" value="0" leadInLength="0/1"  />
               <InterpolatingParam id="6212" interp="linr"  time="-9999999/1" value="0" leadInLength="0/1"  />
               <InterpolatingParam id="6213" interp="linr"  time="-9999999/1" value="0" leadInLength="0/1"  />
              </VectorParam>
              <VectorParam id="6214"  name="shear">
               <InterpolatingParam id="6215" interp="linr"  time="-9999999/1" value="0" leadInLength="0/1"  />
               <InterpolatingParam id="6216" interp="linr"  time="-9999999/1" value="0" leadInLength="0/1"  />
               <InterpolatingParam id="6217" interp="linr"  time="-9999999/1" value="0" leadInLength="0/1"  />
              </VectorParam>
              <VectorParam id="6218"  name="scale">
               <InterpolatingParam id="6219" interp="linr"  time="-9999999/1" value="1" leadInLength="0/1"  />
               <InterpolatingParam id="6220" interp="linr"  time="-9999999/1" value="1" leadInLength="0/1"  />
               <InterpolatingParam id="6221" interp="linr"  time="-9999999/1" value="1" leadInLength="0/1"  />
              </VectorParam>
              <VectorParam id="6222"  name="anchor">
               <InterpolatingParam id="6223" interp="linr"  time="0/1" value="0" leadInLength="0/1"  />
               <InterpolatingParam id="6224" interp="linr"  time="0/1" value="0" leadInLength="0/1"  />
               <InterpolatingParam id="6225" interp="linr"  time="0/1" value="0" leadInLength="0/1"  />
              </VectorParam>
             </Transformer>
             <Parameters>
              <VectorParam id="6226"  name="sourceCrop">
               <InterpolatingParam id="6227" interp="linr"  time="0/1" value="0" leadInLength="0/1"  />
               <InterpolatingParam id="6228" interp="linr"  time="0/1" value="0" leadInLength="0/1"  />
               <InterpolatingParam id="6229" interp="linr"  time="0/1" value="0" leadInLength="0/1"  />
               <InterpolatingParam id="6230" interp="linr"  time="0/1" value="0" leadInLength="0/1"  />
              </VectorParam>
              <VectorParam id="6231"  name="geometryCrop">
               <InterpolatingParam id="6232" interp="linr"  time="-9999999/1" value="0" leadInLength="0/1"  />
               <InterpolatingParam id="6233" interp="linr"  time="-9999999/1" value="0" leadInLength="0/1"  />
               <InterpolatingParam id="6234" interp="linr"  time="-9999999/1" value="0" leadInLength="0/1"  />
               <InterpolatingParam id="6235" interp="linr"  time="-9999999/1" value="0" leadInLength="0/1"  />
              </VectorParam>
              <InterpolatingParam id="6236" interp="linr"  time="-9999999/1" value="1" leadInLength="0/1"  name="opacity"/>
             </Parameters>
             <Attributes>
              <Attribute id="6237" value="" name="ident"/>
             </Attributes>
             <ExtraData>
              <Entry key="ZoomPanBin">
               <ZoomPanBin id="6238"  >
                <ZoomPanKeyframes>
                 <ZoomPanKeyframe id="6239" timeRangeEnd="-9999999/1" timeRangeDuration="0/1" interpolaterName="linr"  />
                </ZoomPanKeyframes>
               </ZoomPanBin>
              </Entry>
             </ExtraData>
            </VMFile>
            <MetaData>
             <entry key="WinSubProjectDisplayName" val=""/>
            </MetaData>
           </UnifiedMedia>
           <UnifiedMedia id="6240"  >
            <AMFile id="6241" start="11041" duration="115" scalar="1/1" mediaStart="20473/1" mediaDuration="115/1" trackNumber="2" src="6" channelNumber="0,1" >
             <Parameters>
              <InterpolatingParam id="6242" interp="linr"  time="0/1" value="1" leadInLength="0/1"  name="volume"/>
              <Parameter id="6243"  name="captions"/>
             </Parameters>
             <Attributes>
              <Attribute id="6244" value="" name="ident"/>
              <Attribute id="6245" value="44100" name="sampleRate"/>
              <Attribute id="6246" value="16" name="bitDepth"/>
              <Attribute id="6247" value="1" name="gain"/>
              <Attribute id="6248" value="0" name="mixToMono"/>
             </Attributes>
            </AMFile>
            <VMFile id="6249" start="11041" duration="115" scalar="1/1" mediaStart="20473/1" mediaDuration="115/1" trackNumber="1" src="6" >
             <Transformer>
              <VectorParam id="6250"  name="translation">
               <InterpolatingParam id="6251" interp="linr"  time="-9999999/1" value="0" leadInLength="0/1"  />
               <InterpolatingParam id="6252" interp="linr"  time="-9999999/1" value="0" leadInLength="0/1"  />
               <InterpolatingParam id="6253" interp="linr"  time="-9999999/1" value="0" leadInLength="0/1"  />
              </VectorParam>
              <VectorParam id="6254"  name="rotation">
               <InterpolatingParam id="6255" interp="linr"  time="-9999999/1" value="0" leadInLength="0/1"  />
               <InterpolatingParam id="6256" interp="linr"  time="-9999999/1" value="0" leadInLength="0/1"  />
               <InterpolatingParam id="6257" interp="linr"  time="-9999999/1" value="0" leadInLength="0/1"  />
              </VectorParam>
              <VectorParam id="6258"  name="shear">
               <InterpolatingParam id="6259" interp="linr"  time="-9999999/1" value="0" leadInLength="0/1"  />
               <InterpolatingParam id="6260" interp="linr"  time="-9999999/1" value="0" leadInLength="0/1"  />
               <InterpolatingParam id="6261" interp="linr"  time="-9999999/1" value="0" leadInLength="0/1"  />
              </VectorParam>
              <VectorParam id="6262"  name="scale">
               <InterpolatingParam id="6263" interp="linr"  time="-9999999/1" value="1" leadInLength="0/1"  />
               <InterpolatingParam id="6264" interp="linr"  time="-9999999/1" value="1" leadInLength="0/1"  />
               <InterpolatingParam id="6265" interp="linr"  time="-9999999/1" value="1" leadInLength="0/1"  />
              </VectorParam>
              <VectorParam id="6266"  name="anchor">
               <InterpolatingParam id="6267" interp="linr"  time="0/1" value="0" leadInLength="0/1"  />
               <InterpolatingParam id="6268" interp="linr"  time="0/1" value="0" leadInLength="0/1"  />
               <InterpolatingParam id="6269" interp="linr"  time="0/1" value="0" leadInLength="0/1"  />
              </VectorParam>
             </Transformer>
             <Parameters>
              <VectorParam id="6270"  name="sourceCrop">
               <InterpolatingParam id="6271" interp="linr"  time="0/1" value="0" leadInLength="0/1"  />
               <InterpolatingParam id="6272" interp="linr"  time="0/1" value="0" leadInLength="0/1"  />
               <InterpolatingParam id="6273" interp="linr"  time="0/1" value="0" leadInLength="0/1"  />
               <InterpolatingParam id="6274" interp="linr"  time="0/1" value="0" leadInLength="0/1"  />
              </VectorParam>
              <VectorParam id="6275"  name="geometryCrop">
               <InterpolatingParam id="6276" interp="linr"  time="-9999999/1" value="0" leadInLength="0/1"  />
               <InterpolatingParam id="6277" interp="linr"  time="-9999999/1" value="0" leadInLength="0/1"  />
               <InterpolatingParam id="6278" interp="linr"  time="-9999999/1" value="0" leadInLength="0/1"  />
               <InterpolatingParam id="6279" interp="linr"  time="-9999999/1" value="0" leadInLength="0/1"  />
              </VectorParam>
              <InterpolatingParam id="6280" interp="linr"  time="-9999999/1" value="1" leadInLength="0/1"  name="opacity"/>
             </Parameters>
             <Attributes>
              <Attribute id="6281" value="" name="ident"/>
             </Attributes>
             <ExtraData>
              <Entry key="ZoomPanBin">
               <ZoomPanBin id="6282"  >
                <ZoomPanKeyframes>
                 <ZoomPanKeyframe id="6283" timeRangeEnd="-9999999/1" timeRangeDuration="0/1" interpolaterName="linr"  />
                </ZoomPanKeyframes>
               </ZoomPanBin>
              </Entry>
             </ExtraData>
            </VMFile>
            <MetaData>
             <entry key="WinSubProjectDisplayName" val=""/>
            </MetaData>
           </UnifiedMedia>
           <UnifiedMedia id="6284"  >
            <AMFile id="6285" start="11156" duration="112" scalar="1/1" mediaStart="20954/1" mediaDuration="112/1" trackNumber="2" src="6" channelNumber="0,1" >
             <Parameters>
              <InterpolatingParam id="6286" interp="linr"  time="0/1" value="1" leadInLength="0/1"  name="volume"/>
              <Parameter id="6287"  name="captions"/>
             </Parameters>
             <Attributes>
              <Attribute id="6288" value="" name="ident"/>
              <Attribute id="6289" value="44100" name="sampleRate"/>
              <Attribute id="6290" value="16" name="bitDepth"/>
              <Attribute id="6291" value="1" name="gain"/>
              <Attribute id="6292" value="0" name="mixToMono"/>
             </Attributes>
            </AMFile>
            <VMFile id="6293" start="11156" duration="112" scalar="1/1" mediaStart="20954/1" mediaDuration="112/1" trackNumber="1" src="6" >
             <Transformer>
              <VectorParam id="6294"  name="translation">
               <InterpolatingParam id="6295" interp="linr"  time="-9999999/1" value="0" leadInLength="0/1"  />
               <InterpolatingParam id="6296" interp="linr"  time="-9999999/1" value="0" leadInLength="0/1"  />
               <InterpolatingParam id="6297" interp="linr"  time="-9999999/1" value="0" leadInLength="0/1"  />
              </VectorParam>
              <VectorParam id="6298"  name="rotation">
               <InterpolatingParam id="6299" interp="linr"  time="-9999999/1" value="0" leadInLength="0/1"  />
               <InterpolatingParam id="6300" interp="linr"  time="-9999999/1" value="0" leadInLength="0/1"  />
               <InterpolatingParam id="6301" interp="linr"  time="-9999999/1" value="0" leadInLength="0/1"  />
              </VectorParam>
              <VectorParam id="6302"  name="shear">
               <InterpolatingParam id="6303" interp="linr"  time="-9999999/1" value="0" leadInLength="0/1"  />
               <InterpolatingParam id="6304" interp="linr"  time="-9999999/1" value="0" leadInLength="0/1"  />
               <InterpolatingParam id="6305" interp="linr"  time="-9999999/1" value="0" leadInLength="0/1"  />
              </VectorParam>
              <VectorParam id="6306"  name="scale">
               <InterpolatingParam id="6307" interp="linr"  time="-9999999/1" value="1" leadInLength="0/1"  />
               <InterpolatingParam id="6308" interp="linr"  time="-9999999/1" value="1" leadInLength="0/1"  />
               <InterpolatingParam id="6309" interp="linr"  time="-9999999/1" value="1" leadInLength="0/1"  />
              </VectorParam>
              <VectorParam id="6310"  name="anchor">
               <InterpolatingParam id="6311" interp="linr"  time="0/1" value="0" leadInLength="0/1"  />
               <InterpolatingParam id="6312" interp="linr"  time="0/1" value="0" leadInLength="0/1"  />
               <InterpolatingParam id="6313" interp="linr"  time="0/1" value="0" leadInLength="0/1"  />
              </VectorParam>
             </Transformer>
             <Parameters>
              <VectorParam id="6314"  name="sourceCrop">
               <InterpolatingParam id="6315" interp="linr"  time="0/1" value="0" leadInLength="0/1"  />
               <InterpolatingParam id="6316" interp="linr"  time="0/1" value="0" leadInLength="0/1"  />
               <InterpolatingParam id="6317" interp="linr"  time="0/1" value="0" leadInLength="0/1"  />
               <InterpolatingParam id="6318" interp="linr"  time="0/1" value="0" leadInLength="0/1"  />
              </VectorParam>
              <VectorParam id="6319"  name="geometryCrop">
               <InterpolatingParam id="6320" interp="linr"  time="-9999999/1" value="0" leadInLength="0/1"  />
               <InterpolatingParam id="6321" interp="linr"  time="-9999999/1" value="0" leadInLength="0/1"  />
               <InterpolatingParam id="6322" interp="linr"  time="-9999999/1" value="0" leadInLength="0/1"  />
               <InterpolatingParam id="6323" interp="linr"  time="-9999999/1" value="0" leadInLength="0/1"  />
              </VectorParam>
              <InterpolatingParam id="6324" interp="linr"  time="-9999999/1" value="1" leadInLength="0/1"  name="opacity"/>
             </Parameters>
             <Attributes>
              <Attribute id="6325" value="" name="ident"/>
             </Attributes>
             <ExtraData>
              <Entry key="ZoomPanBin">
               <ZoomPanBin id="6326"  >
                <ZoomPanKeyframes>
                 <ZoomPanKeyframe id="6327" timeRangeEnd="-9999999/1" timeRangeDuration="0/1" interpolaterName="linr"  />
                </ZoomPanKeyframes>
               </ZoomPanBin>
              </Entry>
             </ExtraData>
            </VMFile>
            <MetaData>
             <entry key="WinSubProjectDisplayName" val=""/>
            </MetaData>
           </UnifiedMedia>
           <UnifiedMedia id="6328"  >
            <AMFile id="6329" start="11268" duration="66" scalar="1/1" mediaStart="21075/1" mediaDuration="66/1" trackNumber="2" src="6" channelNumber="0,1" >
             <Parameters>
              <InterpolatingParam id="6330" interp="linr"  time="0/1" value="1" leadInLength="0/1"  name="volume"/>
              <Parameter id="6331"  name="captions"/>
             </Parameters>
             <Attributes>
              <Attribute id="6332" value="" name="ident"/>
              <Attribute id="6333" value="44100" name="sampleRate"/>
              <Attribute id="6334" value="16" name="bitDepth"/>
              <Attribute id="6335" value="1" name="gain"/>
              <Attribute id="6336" value="0" name="mixToMono"/>
             </Attributes>
            </AMFile>
            <VMFile id="6337" start="11268" duration="66" scalar="1/1" mediaStart="21075/1" mediaDuration="66/1" trackNumber="1" src="6" >
             <Transformer>
              <VectorParam id="6338"  name="translation">
               <InterpolatingParam id="6339" interp="linr"  time="-9999999/1" value="0" leadInLength="0/1"  />
               <InterpolatingParam id="6340" interp="linr"  time="-9999999/1" value="0" leadInLength="0/1"  />
               <InterpolatingParam id="6341" interp="linr"  time="-9999999/1" value="0" leadInLength="0/1"  />
              </VectorParam>
              <VectorParam id="6342"  name="rotation">
               <InterpolatingParam id="6343" interp="linr"  time="-9999999/1" value="0" leadInLength="0/1"  />
               <InterpolatingParam id="6344" interp="linr"  time="-9999999/1" value="0" leadInLength="0/1"  />
               <InterpolatingParam id="6345" interp="linr"  time="-9999999/1" value="0" leadInLength="0/1"  />
              </VectorParam>
              <VectorParam id="6346"  name="shear">
               <InterpolatingParam id="6347" interp="linr"  time="-9999999/1" value="0" leadInLength="0/1"  />
               <InterpolatingParam id="6348" interp="linr"  time="-9999999/1" value="0" leadInLength="0/1"  />
               <InterpolatingParam id="6349" interp="linr"  time="-9999999/1" value="0" leadInLength="0/1"  />
              </VectorParam>
              <VectorParam id="6350"  name="scale">
               <InterpolatingParam id="6351" interp="linr"  time="-9999999/1" value="1" leadInLength="0/1"  />
               <InterpolatingParam id="6352" interp="linr"  time="-9999999/1" value="1" leadInLength="0/1"  />
               <InterpolatingParam id="6353" interp="linr"  time="-9999999/1" value="1" leadInLength="0/1"  />
              </VectorParam>
              <VectorParam id="6354"  name="anchor">
               <InterpolatingParam id="6355" interp="linr"  time="0/1" value="0" leadInLength="0/1"  />
               <InterpolatingParam id="6356" interp="linr"  time="0/1" value="0" leadInLength="0/1"  />
               <InterpolatingParam id="6357" interp="linr"  time="0/1" value="0" leadInLength="0/1"  />
              </VectorParam>
             </Transformer>
             <Parameters>
              <VectorParam id="6358"  name="sourceCrop">
               <InterpolatingParam id="6359" interp="linr"  time="0/1" value="0" leadInLength="0/1"  />
               <InterpolatingParam id="6360" interp="linr"  time="0/1" value="0" leadInLength="0/1"  />
               <InterpolatingParam id="6361" interp="linr"  time="0/1" value="0" leadInLength="0/1"  />
               <InterpolatingParam id="6362" interp="linr"  time="0/1" value="0" leadInLength="0/1"  />
              </VectorParam>
              <VectorParam id="6363"  name="geometryCrop">
               <InterpolatingParam id="6364" interp="linr"  time="-9999999/1" value="0" leadInLength="0/1"  />
               <InterpolatingParam id="6365" interp="linr"  time="-9999999/1" value="0" leadInLength="0/1"  />
               <InterpolatingParam id="6366" interp="linr"  time="-9999999/1" value="0" leadInLength="0/1"  />
               <InterpolatingParam id="6367" interp="linr"  time="-9999999/1" value="0" leadInLength="0/1"  />
              </VectorParam>
              <InterpolatingParam id="6368" interp="linr"  time="-9999999/1" value="1" leadInLength="0/1"  name="opacity"/>
             </Parameters>
             <Attributes>
              <Attribute id="6369" value="" name="ident"/>
             </Attributes>
             <ExtraData>
              <Entry key="ZoomPanBin">
               <ZoomPanBin id="6370"  >
                <ZoomPanKeyframes>
                 <ZoomPanKeyframe id="6371" timeRangeEnd="-9999999/1" timeRangeDuration="0/1" interpolaterName="linr"  />
                </ZoomPanKeyframes>
               </ZoomPanBin>
              </Entry>
             </ExtraData>
            </VMFile>
            <MetaData>
             <entry key="WinSubProjectDisplayName" val=""/>
            </MetaData>
           </UnifiedMedia>
           <UnifiedMedia id="6372"  >
            <AMFile id="6373" start="11334" duration="52" scalar="1/1" mediaStart="21179/1" mediaDuration="52/1" trackNumber="2" src="6" channelNumber="0,1" >
             <Parameters>
              <InterpolatingParam id="6374" interp="linr"  time="0/1" value="1" leadInLength="0/1"  name="volume"/>
              <Parameter id="6375"  name="captions"/>
             </Parameters>
             <Attributes>
              <Attribute id="6376" value="" name="ident"/>
              <Attribute id="6377" value="44100" name="sampleRate"/>
              <Attribute id="6378" value="16" name="bitDepth"/>
              <Attribute id="6379" value="1" name="gain"/>
              <Attribute id="6380" value="0" name="mixToMono"/>
             </Attributes>
            </AMFile>
            <VMFile id="6381" start="11334" duration="52" scalar="1/1" mediaStart="21179/1" mediaDuration="52/1" trackNumber="1" src="6" >
             <Transformer>
              <VectorParam id="6382"  name="translation">
               <InterpolatingParam id="6383" interp="linr"  time="-9999999/1" value="0" leadInLength="0/1"  />
               <InterpolatingParam id="6384" interp="linr"  time="-9999999/1" value="0" leadInLength="0/1"  />
               <InterpolatingParam id="6385" interp="linr"  time="-9999999/1" value="0" leadInLength="0/1"  />
              </VectorParam>
              <VectorParam id="6386"  name="rotation">
               <InterpolatingParam id="6387" interp="linr"  time="-9999999/1" value="0" leadInLength="0/1"  />
               <InterpolatingParam id="6388" interp="linr"  time="-9999999/1" value="0" leadInLength="0/1"  />
               <InterpolatingParam id="6389" interp="linr"  time="-9999999/1" value="0" leadInLength="0/1"  />
              </VectorParam>
              <VectorParam id="6390"  name="shear">
               <InterpolatingParam id="6391" interp="linr"  time="-9999999/1" value="0" leadInLength="0/1"  />
               <InterpolatingParam id="6392" interp="linr"  time="-9999999/1" value="0" leadInLength="0/1"  />
               <InterpolatingParam id="6393" interp="linr"  time="-9999999/1" value="0" leadInLength="0/1"  />
              </VectorParam>
              <VectorParam id="6394"  name="scale">
               <InterpolatingParam id="6395" interp="linr"  time="-9999999/1" value="1" leadInLength="0/1"  />
               <InterpolatingParam id="6396" interp="linr"  time="-9999999/1" value="1" leadInLength="0/1"  />
               <InterpolatingParam id="6397" interp="linr"  time="-9999999/1" value="1" leadInLength="0/1"  />
              </VectorParam>
              <VectorParam id="6398"  name="anchor">
               <InterpolatingParam id="6399" interp="linr"  time="0/1" value="0" leadInLength="0/1"  />
               <InterpolatingParam id="6400" interp="linr"  time="0/1" value="0" leadInLength="0/1"  />
               <InterpolatingParam id="6401" interp="linr"  time="0/1" value="0" leadInLength="0/1"  />
              </VectorParam>
             </Transformer>
             <Parameters>
              <VectorParam id="6402"  name="sourceCrop">
               <InterpolatingParam id="6403" interp="linr"  time="0/1" value="0" leadInLength="0/1"  />
               <InterpolatingParam id="6404" interp="linr"  time="0/1" value="0" leadInLength="0/1"  />
               <InterpolatingParam id="6405" interp="linr"  time="0/1" value="0" leadInLength="0/1"  />
               <InterpolatingParam id="6406" interp="linr"  time="0/1" value="0" leadInLength="0/1"  />
              </VectorParam>
              <VectorParam id="6407"  name="geometryCrop">
               <InterpolatingParam id="6408" interp="linr"  time="-9999999/1" value="0" leadInLength="0/1"  />
               <InterpolatingParam id="6409" interp="linr"  time="-9999999/1" value="0" leadInLength="0/1"  />
               <InterpolatingParam id="6410" interp="linr"  time="-9999999/1" value="0" leadInLength="0/1"  />
               <InterpolatingParam id="6411" interp="linr"  time="-9999999/1" value="0" leadInLength="0/1"  />
              </VectorParam>
              <InterpolatingParam id="6412" interp="linr"  time="-9999999/1" value="1" leadInLength="0/1"  name="opacity"/>
             </Parameters>
             <Attributes>
              <Attribute id="6413" value="" name="ident"/>
             </Attributes>
             <ExtraData>
              <Entry key="ZoomPanBin">
               <ZoomPanBin id="6414"  >
                <ZoomPanKeyframes>
                 <ZoomPanKeyframe id="6415" timeRangeEnd="-9999999/1" timeRangeDuration="0/1" interpolaterName="linr"  />
                </ZoomPanKeyframes>
               </ZoomPanBin>
              </Entry>
             </ExtraData>
            </VMFile>
            <MetaData>
             <entry key="WinSubProjectDisplayName" val=""/>
            </MetaData>
           </UnifiedMedia>
           <UnifiedMedia id="6416"  >
            <AMFile id="6417" start="11386" duration="50" scalar="1/1" mediaStart="21271/1" mediaDuration="50/1" trackNumber="2" src="6" channelNumber="0,1" >
             <Parameters>
              <InterpolatingParam id="6418" interp="linr"  time="0/1" value="1" leadInLength="0/1"  name="volume"/>
              <Parameter id="6419"  name="captions"/>
             </Parameters>
             <Attributes>
              <Attribute id="6420" value="" name="ident"/>
              <Attribute id="6421" value="44100" name="sampleRate"/>
              <Attribute id="6422" value="16" name="bitDepth"/>
              <Attribute id="6423" value="1" name="gain"/>
              <Attribute id="6424" value="0" name="mixToMono"/>
             </Attributes>
            </AMFile>
            <VMFile id="6425" start="11386" duration="50" scalar="1/1" mediaStart="21271/1" mediaDuration="50/1" trackNumber="1" src="6" >
             <Transformer>
              <VectorParam id="6426"  name="translation">
               <InterpolatingParam id="6427" interp="linr"  time="-9999999/1" value="0" leadInLength="0/1"  />
               <InterpolatingParam id="6428" interp="linr"  time="-9999999/1" value="0" leadInLength="0/1"  />
               <InterpolatingParam id="6429" interp="linr"  time="-9999999/1" value="0" leadInLength="0/1"  />
              </VectorParam>
              <VectorParam id="6430"  name="rotation">
               <InterpolatingParam id="6431" interp="linr"  time="-9999999/1" value="0" leadInLength="0/1"  />
               <InterpolatingParam id="6432" interp="linr"  time="-9999999/1" value="0" leadInLength="0/1"  />
               <InterpolatingParam id="6433" interp="linr"  time="-9999999/1" value="0" leadInLength="0/1"  />
              </VectorParam>
              <VectorParam id="6434"  name="shear">
               <InterpolatingParam id="6435" interp="linr"  time="-9999999/1" value="0" leadInLength="0/1"  />
               <InterpolatingParam id="6436" interp="linr"  time="-9999999/1" value="0" leadInLength="0/1"  />
               <InterpolatingParam id="6437" interp="linr"  time="-9999999/1" value="0" leadInLength="0/1"  />
              </VectorParam>
              <VectorParam id="6438"  name="scale">
               <InterpolatingParam id="6439" interp="linr"  time="-9999999/1" value="1" leadInLength="0/1"  />
               <InterpolatingParam id="6440" interp="linr"  time="-9999999/1" value="1" leadInLength="0/1"  />
               <InterpolatingParam id="6441" interp="linr"  time="-9999999/1" value="1" leadInLength="0/1"  />
              </VectorParam>
              <VectorParam id="6442"  name="anchor">
               <InterpolatingParam id="6443" interp="linr"  time="0/1" value="0" leadInLength="0/1"  />
               <InterpolatingParam id="6444" interp="linr"  time="0/1" value="0" leadInLength="0/1"  />
               <InterpolatingParam id="6445" interp="linr"  time="0/1" value="0" leadInLength="0/1"  />
              </VectorParam>
             </Transformer>
             <Parameters>
              <VectorParam id="6446"  name="sourceCrop">
               <InterpolatingParam id="6447" interp="linr"  time="0/1" value="0" leadInLength="0/1"  />
               <InterpolatingParam id="6448" interp="linr"  time="0/1" value="0" leadInLength="0/1"  />
               <InterpolatingParam id="6449" interp="linr"  time="0/1" value="0" leadInLength="0/1"  />
               <InterpolatingParam id="6450" interp="linr"  time="0/1" value="0" leadInLength="0/1"  />
              </VectorParam>
              <VectorParam id="6451"  name="geometryCrop">
               <InterpolatingParam id="6452" interp="linr"  time="-9999999/1" value="0" leadInLength="0/1"  />
               <InterpolatingParam id="6453" interp="linr"  time="-9999999/1" value="0" leadInLength="0/1"  />
               <InterpolatingParam id="6454" interp="linr"  time="-9999999/1" value="0" leadInLength="0/1"  />
               <InterpolatingParam id="6455" interp="linr"  time="-9999999/1" value="0" leadInLength="0/1"  />
              </VectorParam>
              <InterpolatingParam id="6456" interp="linr"  time="-9999999/1" value="1" leadInLength="0/1"  name="opacity"/>
             </Parameters>
             <Attributes>
              <Attribute id="6457" value="" name="ident"/>
             </Attributes>
             <ExtraData>
              <Entry key="ZoomPanBin">
               <ZoomPanBin id="6458"  >
                <ZoomPanKeyframes>
                 <ZoomPanKeyframe id="6459" timeRangeEnd="-9999999/1" timeRangeDuration="0/1" interpolaterName="linr"  />
                </ZoomPanKeyframes>
               </ZoomPanBin>
              </Entry>
             </ExtraData>
            </VMFile>
            <MetaData>
             <entry key="WinSubProjectDisplayName" val=""/>
            </MetaData>
           </UnifiedMedia>
           <UnifiedMedia id="6460"  >
            <AMFile id="6461" start="11436" duration="114" scalar="1/1" mediaStart="21401/1" mediaDuration="114/1" trackNumber="2" src="6" channelNumber="0,1" >
             <Parameters>
              <InterpolatingParam id="6462" interp="linr"  time="0/1" value="1" leadInLength="0/1"  name="volume"/>
              <Parameter id="6463"  name="captions"/>
             </Parameters>
             <Attributes>
              <Attribute id="6464" value="" name="ident"/>
              <Attribute id="6465" value="44100" name="sampleRate"/>
              <Attribute id="6466" value="16" name="bitDepth"/>
              <Attribute id="6467" value="1" name="gain"/>
              <Attribute id="6468" value="0" name="mixToMono"/>
             </Attributes>
            </AMFile>
            <VMFile id="6469" start="11436" duration="114" scalar="1/1" mediaStart="21401/1" mediaDuration="114/1" trackNumber="1" src="6" >
             <Transformer>
              <VectorParam id="6470"  name="translation">
               <InterpolatingParam id="6471" interp="linr"  time="-9999999/1" value="0" leadInLength="0/1"  />
               <InterpolatingParam id="6472" interp="linr"  time="-9999999/1" value="0" leadInLength="0/1"  />
               <InterpolatingParam id="6473" interp="linr"  time="-9999999/1" value="0" leadInLength="0/1"  />
              </VectorParam>
              <VectorParam id="6474"  name="rotation">
               <InterpolatingParam id="6475" interp="linr"  time="-9999999/1" value="0" leadInLength="0/1"  />
               <InterpolatingParam id="6476" interp="linr"  time="-9999999/1" value="0" leadInLength="0/1"  />
               <InterpolatingParam id="6477" interp="linr"  time="-9999999/1" value="0" leadInLength="0/1"  />
              </VectorParam>
              <VectorParam id="6478"  name="shear">
               <InterpolatingParam id="6479" interp="linr"  time="-9999999/1" value="0" leadInLength="0/1"  />
               <InterpolatingParam id="6480" interp="linr"  time="-9999999/1" value="0" leadInLength="0/1"  />
               <InterpolatingParam id="6481" interp="linr"  time="-9999999/1" value="0" leadInLength="0/1"  />
              </VectorParam>
              <VectorParam id="6482"  name="scale">
               <InterpolatingParam id="6483" interp="linr"  time="-9999999/1" value="1" leadInLength="0/1"  />
               <InterpolatingParam id="6484" interp="linr"  time="-9999999/1" value="1" leadInLength="0/1"  />
               <InterpolatingParam id="6485" interp="linr"  time="-9999999/1" value="1" leadInLength="0/1"  />
              </VectorParam>
              <VectorParam id="6486"  name="anchor">
               <InterpolatingParam id="6487" interp="linr"  time="0/1" value="0" leadInLength="0/1"  />
               <InterpolatingParam id="6488" interp="linr"  time="0/1" value="0" leadInLength="0/1"  />
               <InterpolatingParam id="6489" interp="linr"  time="0/1" value="0" leadInLength="0/1"  />
              </VectorParam>
             </Transformer>
             <Parameters>
              <VectorParam id="6490"  name="sourceCrop">
               <InterpolatingParam id="6491" interp="linr"  time="0/1" value="0" leadInLength="0/1"  />
               <InterpolatingParam id="6492" interp="linr"  time="0/1" value="0" leadInLength="0/1"  />
               <InterpolatingParam id="6493" interp="linr"  time="0/1" value="0" leadInLength="0/1"  />
               <InterpolatingParam id="6494" interp="linr"  time="0/1" value="0" leadInLength="0/1"  />
              </VectorParam>
              <VectorParam id="6495"  name="geometryCrop">
               <InterpolatingParam id="6496" interp="linr"  time="-9999999/1" value="0" leadInLength="0/1"  />
               <InterpolatingParam id="6497" interp="linr"  time="-9999999/1" value="0" leadInLength="0/1"  />
               <InterpolatingParam id="6498" interp="linr"  time="-9999999/1" value="0" leadInLength="0/1"  />
               <InterpolatingParam id="6499" interp="linr"  time="-9999999/1" value="0" leadInLength="0/1"  />
              </VectorParam>
              <InterpolatingParam id="6500" interp="linr"  time="-9999999/1" value="1" leadInLength="0/1"  name="opacity"/>
             </Parameters>
             <Attributes>
              <Attribute id="6501" value="" name="ident"/>
             </Attributes>
             <ExtraData>
              <Entry key="ZoomPanBin">
               <ZoomPanBin id="6502"  >
                <ZoomPanKeyframes>
                 <ZoomPanKeyframe id="6503" timeRangeEnd="-9999999/1" timeRangeDuration="0/1" interpolaterName="linr"  />
                </ZoomPanKeyframes>
               </ZoomPanBin>
              </Entry>
             </ExtraData>
            </VMFile>
            <MetaData>
             <entry key="WinSubProjectDisplayName" val=""/>
            </MetaData>
           </UnifiedMedia>
           <UnifiedMedia id="6504"  >
            <AMFile id="6505" start="11550" duration="5" scalar="1/1" mediaStart="21666/1" mediaDuration="5/1" trackNumber="2" src="6" channelNumber="0,1" >
             <Parameters>
              <InterpolatingParam id="6506" interp="linr"  time="0/1" value="1" leadInLength="0/1"  name="volume"/>
              <Parameter id="6507"  name="captions"/>
             </Parameters>
             <Attributes>
              <Attribute id="6508" value="" name="ident"/>
              <Attribute id="6509" value="44100" name="sampleRate"/>
              <Attribute id="6510" value="16" name="bitDepth"/>
              <Attribute id="6511" value="1" name="gain"/>
              <Attribute id="6512" value="0" name="mixToMono"/>
             </Attributes>
            </AMFile>
            <VMFile id="6513" start="11550" duration="5" scalar="1/1" mediaStart="21666/1" mediaDuration="5/1" trackNumber="1" src="6" >
             <Transformer>
              <VectorParam id="6514"  name="translation">
               <InterpolatingParam id="6515" interp="linr"  time="-9999999/1" value="0" leadInLength="0/1"  />
               <InterpolatingParam id="6516" interp="linr"  time="-9999999/1" value="0" leadInLength="0/1"  />
               <InterpolatingParam id="6517" interp="linr"  time="-9999999/1" value="0" leadInLength="0/1"  />
              </VectorParam>
              <VectorParam id="6518"  name="rotation">
               <InterpolatingParam id="6519" interp="linr"  time="-9999999/1" value="0" leadInLength="0/1"  />
               <InterpolatingParam id="6520" interp="linr"  time="-9999999/1" value="0" leadInLength="0/1"  />
               <InterpolatingParam id="6521" interp="linr"  time="-9999999/1" value="0" leadInLength="0/1"  />
              </VectorParam>
              <VectorParam id="6522"  name="shear">
               <InterpolatingParam id="6523" interp="linr"  time="-9999999/1" value="0" leadInLength="0/1"  />
               <InterpolatingParam id="6524" interp="linr"  time="-9999999/1" value="0" leadInLength="0/1"  />
               <InterpolatingParam id="6525" interp="linr"  time="-9999999/1" value="0" leadInLength="0/1"  />
              </VectorParam>
              <VectorParam id="6526"  name="scale">
               <InterpolatingParam id="6527" interp="linr"  time="-9999999/1" value="1" leadInLength="0/1"  />
               <InterpolatingParam id="6528" interp="linr"  time="-9999999/1" value="1" leadInLength="0/1"  />
               <InterpolatingParam id="6529" interp="linr"  time="-9999999/1" value="1" leadInLength="0/1"  />
              </VectorParam>
              <VectorParam id="6530"  name="anchor">
               <InterpolatingParam id="6531" interp="linr"  time="0/1" value="0" leadInLength="0/1"  />
               <InterpolatingParam id="6532" interp="linr"  time="0/1" value="0" leadInLength="0/1"  />
               <InterpolatingParam id="6533" interp="linr"  time="0/1" value="0" leadInLength="0/1"  />
              </VectorParam>
             </Transformer>
             <Parameters>
              <VectorParam id="6534"  name="sourceCrop">
               <InterpolatingParam id="6535" interp="linr"  time="0/1" value="0" leadInLength="0/1"  />
               <InterpolatingParam id="6536" interp="linr"  time="0/1" value="0" leadInLength="0/1"  />
               <InterpolatingParam id="6537" interp="linr"  time="0/1" value="0" leadInLength="0/1"  />
               <InterpolatingParam id="6538" interp="linr"  time="0/1" value="0" leadInLength="0/1"  />
              </VectorParam>
              <VectorParam id="6539"  name="geometryCrop">
               <InterpolatingParam id="6540" interp="linr"  time="-9999999/1" value="0" leadInLength="0/1"  />
               <InterpolatingParam id="6541" interp="linr"  time="-9999999/1" value="0" leadInLength="0/1"  />
               <InterpolatingParam id="6542" interp="linr"  time="-9999999/1" value="0" leadInLength="0/1"  />
               <InterpolatingParam id="6543" interp="linr"  time="-9999999/1" value="0" leadInLength="0/1"  />
              </VectorParam>
              <InterpolatingParam id="6544" interp="linr"  time="-9999999/1" value="1" leadInLength="0/1"  name="opacity"/>
             </Parameters>
             <Attributes>
              <Attribute id="6545" value="" name="ident"/>
             </Attributes>
             <ExtraData>
              <Entry key="ZoomPanBin">
               <ZoomPanBin id="6546"  >
                <ZoomPanKeyframes>
                 <ZoomPanKeyframe id="6547" timeRangeEnd="-9999999/1" timeRangeDuration="0/1" interpolaterName="linr"  />
                </ZoomPanKeyframes>
               </ZoomPanBin>
              </Entry>
             </ExtraData>
            </VMFile>
            <MetaData>
             <entry key="WinSubProjectDisplayName" val=""/>
            </MetaData>
           </UnifiedMedia>
           <UnifiedMedia id="6548"  >
            <AMFile id="6549" start="11555" duration="99" scalar="1/1" mediaStart="22254/1" mediaDuration="99/1" trackNumber="2" src="6" channelNumber="0,1" >
             <Parameters>
              <InterpolatingParam id="6550" interp="linr"  time="0/1" value="1" leadInLength="0/1"  name="volume"/>
              <Parameter id="6551"  name="captions"/>
             </Parameters>
             <Attributes>
              <Attribute id="6552" value="" name="ident"/>
              <Attribute id="6553" value="44100" name="sampleRate"/>
              <Attribute id="6554" value="16" name="bitDepth"/>
              <Attribute id="6555" value="1" name="gain"/>
              <Attribute id="6556" value="0" name="mixToMono"/>
             </Attributes>
            </AMFile>
            <VMFile id="6557" start="11555" duration="99" scalar="1/1" mediaStart="22254/1" mediaDuration="99/1" trackNumber="1" src="6" >
             <Transformer>
              <VectorParam id="6558"  name="translation">
               <InterpolatingParam id="6559" interp="linr"  time="-9999999/1" value="0" leadInLength="0/1"  />
               <InterpolatingParam id="6560" interp="linr"  time="-9999999/1" value="0" leadInLength="0/1"  />
               <InterpolatingParam id="6561" interp="linr"  time="-9999999/1" value="0" leadInLength="0/1"  />
              </VectorParam>
              <VectorParam id="6562"  name="rotation">
               <InterpolatingParam id="6563" interp="linr"  time="-9999999/1" value="0" leadInLength="0/1"  />
               <InterpolatingParam id="6564" interp="linr"  time="-9999999/1" value="0" leadInLength="0/1"  />
               <InterpolatingParam id="6565" interp="linr"  time="-9999999/1" value="0" leadInLength="0/1"  />
              </VectorParam>
              <VectorParam id="6566"  name="shear">
               <InterpolatingParam id="6567" interp="linr"  time="-9999999/1" value="0" leadInLength="0/1"  />
               <InterpolatingParam id="6568" interp="linr"  time="-9999999/1" value="0" leadInLength="0/1"  />
               <InterpolatingParam id="6569" interp="linr"  time="-9999999/1" value="0" leadInLength="0/1"  />
              </VectorParam>
              <VectorParam id="6570"  name="scale">
               <InterpolatingParam id="6571" interp="linr"  time="-9999999/1" value="1" leadInLength="0/1"  />
               <InterpolatingParam id="6572" interp="linr"  time="-9999999/1" value="1" leadInLength="0/1"  />
               <InterpolatingParam id="6573" interp="linr"  time="-9999999/1" value="1" leadInLength="0/1"  />
              </VectorParam>
              <VectorParam id="6574"  name="anchor">
               <InterpolatingParam id="6575" interp="linr"  time="0/1" value="0" leadInLength="0/1"  />
               <InterpolatingParam id="6576" interp="linr"  time="0/1" value="0" leadInLength="0/1"  />
               <InterpolatingParam id="6577" interp="linr"  time="0/1" value="0" leadInLength="0/1"  />
              </VectorParam>
             </Transformer>
             <Parameters>
              <VectorParam id="6578"  name="sourceCrop">
               <InterpolatingParam id="6579" interp="linr"  time="0/1" value="0" leadInLength="0/1"  />
               <InterpolatingParam id="6580" interp="linr"  time="0/1" value="0" leadInLength="0/1"  />
               <InterpolatingParam id="6581" interp="linr"  time="0/1" value="0" leadInLength="0/1"  />
               <InterpolatingParam id="6582" interp="linr"  time="0/1" value="0" leadInLength="0/1"  />
              </VectorParam>
              <VectorParam id="6583"  name="geometryCrop">
               <InterpolatingParam id="6584" interp="linr"  time="-9999999/1" value="0" leadInLength="0/1"  />
               <InterpolatingParam id="6585" interp="linr"  time="-9999999/1" value="0" leadInLength="0/1"  />
               <InterpolatingParam id="6586" interp="linr"  time="-9999999/1" value="0" leadInLength="0/1"  />
               <InterpolatingParam id="6587" interp="linr"  time="-9999999/1" value="0" leadInLength="0/1"  />
              </VectorParam>
              <InterpolatingParam id="6588" interp="linr"  time="-9999999/1" value="1" leadInLength="0/1"  name="opacity"/>
             </Parameters>
             <Attributes>
              <Attribute id="6589" value="" name="ident"/>
             </Attributes>
             <ExtraData>
              <Entry key="ZoomPanBin">
               <ZoomPanBin id="6590"  >
                <ZoomPanKeyframes>
                 <ZoomPanKeyframe id="6591" timeRangeEnd="-9999999/1" timeRangeDuration="0/1" interpolaterName="linr"  />
                </ZoomPanKeyframes>
               </ZoomPanBin>
              </Entry>
             </ExtraData>
            </VMFile>
            <MetaData>
             <entry key="WinSubProjectDisplayName" val=""/>
            </MetaData>
           </UnifiedMedia>
           <UnifiedMedia id="6592"  >
            <AMFile id="6593" start="11654" duration="1" scalar="1/1" mediaStart="22394/1" mediaDuration="1/1" trackNumber="2" src="6" channelNumber="0,1" >
             <Parameters>
              <InterpolatingParam id="6594" interp="linr"  time="0/1" value="1" leadInLength="0/1"  name="volume"/>
              <Parameter id="6595"  name="captions"/>
             </Parameters>
             <Attributes>
              <Attribute id="6596" value="" name="ident"/>
              <Attribute id="6597" value="44100" name="sampleRate"/>
              <Attribute id="6598" value="16" name="bitDepth"/>
              <Attribute id="6599" value="1" name="gain"/>
              <Attribute id="6600" value="0" name="mixToMono"/>
             </Attributes>
            </AMFile>
            <VMFile id="6601" start="11654" duration="1" scalar="1/1" mediaStart="22394/1" mediaDuration="1/1" trackNumber="1" src="6" >
             <Transformer>
              <VectorParam id="6602"  name="translation">
               <InterpolatingParam id="6603" interp="linr"  time="-9999999/1" value="0" leadInLength="0/1"  />
               <InterpolatingParam id="6604" interp="linr"  time="-9999999/1" value="0" leadInLength="0/1"  />
               <InterpolatingParam id="6605" interp="linr"  time="-9999999/1" value="0" leadInLength="0/1"  />
              </VectorParam>
              <VectorParam id="6606"  name="rotation">
               <InterpolatingParam id="6607" interp="linr"  time="-9999999/1" value="0" leadInLength="0/1"  />
               <InterpolatingParam id="6608" interp="linr"  time="-9999999/1" value="0" leadInLength="0/1"  />
               <InterpolatingParam id="6609" interp="linr"  time="-9999999/1" value="0" leadInLength="0/1"  />
              </VectorParam>
              <VectorParam id="6610"  name="shear">
               <InterpolatingParam id="6611" interp="linr"  time="-9999999/1" value="0" leadInLength="0/1"  />
               <InterpolatingParam id="6612" interp="linr"  time="-9999999/1" value="0" leadInLength="0/1"  />
               <InterpolatingParam id="6613" interp="linr"  time="-9999999/1" value="0" leadInLength="0/1"  />
              </VectorParam>
              <VectorParam id="6614"  name="scale">
               <InterpolatingParam id="6615" interp="linr"  time="-9999999/1" value="1" leadInLength="0/1"  />
               <InterpolatingParam id="6616" interp="linr"  time="-9999999/1" value="1" leadInLength="0/1"  />
               <InterpolatingParam id="6617" interp="linr"  time="-9999999/1" value="1" leadInLength="0/1"  />
              </VectorParam>
              <VectorParam id="6618"  name="anchor">
               <InterpolatingParam id="6619" interp="linr"  time="0/1" value="0" leadInLength="0/1"  />
               <InterpolatingParam id="6620" interp="linr"  time="0/1" value="0" leadInLength="0/1"  />
               <InterpolatingParam id="6621" interp="linr"  time="0/1" value="0" leadInLength="0/1"  />
              </VectorParam>
             </Transformer>
             <Parameters>
              <VectorParam id="6622"  name="sourceCrop">
               <InterpolatingParam id="6623" interp="linr"  time="0/1" value="0" leadInLength="0/1"  />
               <InterpolatingParam id="6624" interp="linr"  time="0/1" value="0" leadInLength="0/1"  />
               <InterpolatingParam id="6625" interp="linr"  time="0/1" value="0" leadInLength="0/1"  />
               <InterpolatingParam id="6626" interp="linr"  time="0/1" value="0" leadInLength="0/1"  />
              </VectorParam>
              <VectorParam id="6627"  name="geometryCrop">
               <InterpolatingParam id="6628" interp="linr"  time="-9999999/1" value="0" leadInLength="0/1"  />
               <InterpolatingParam id="6629" interp="linr"  time="-9999999/1" value="0" leadInLength="0/1"  />
               <InterpolatingParam id="6630" interp="linr"  time="-9999999/1" value="0" leadInLength="0/1"  />
               <InterpolatingParam id="6631" interp="linr"  time="-9999999/1" value="0" leadInLength="0/1"  />
              </VectorParam>
              <InterpolatingParam id="6632" interp="linr"  time="-9999999/1" value="1" leadInLength="0/1"  name="opacity"/>
             </Parameters>
             <Attributes>
              <Attribute id="6633" value="" name="ident"/>
             </Attributes>
             <ExtraData>
              <Entry key="ZoomPanBin">
               <ZoomPanBin id="6634"  >
                <ZoomPanKeyframes>
                 <ZoomPanKeyframe id="6635" timeRangeEnd="-9999999/1" timeRangeDuration="0/1" interpolaterName="linr"  />
                </ZoomPanKeyframes>
               </ZoomPanBin>
              </Entry>
             </ExtraData>
            </VMFile>
            <MetaData>
             <entry key="WinSubProjectDisplayName" val=""/>
            </MetaData>
           </UnifiedMedia>
           <UnifiedMedia id="6636"  >
            <AMFile id="6637" start="11655" duration="63" scalar="1/1" mediaStart="22415/1" mediaDuration="63/1" trackNumber="2" src="6" channelNumber="0,1" >
             <Parameters>
              <InterpolatingParam id="6638" interp="linr"  time="0/1" value="1" leadInLength="0/1"  name="volume"/>
              <Parameter id="6639"  name="captions"/>
             </Parameters>
             <Attributes>
              <Attribute id="6640" value="" name="ident"/>
              <Attribute id="6641" value="44100" name="sampleRate"/>
              <Attribute id="6642" value="16" name="bitDepth"/>
              <Attribute id="6643" value="1" name="gain"/>
              <Attribute id="6644" value="0" name="mixToMono"/>
             </Attributes>
            </AMFile>
            <VMFile id="6645" start="11655" duration="63" scalar="1/1" mediaStart="22415/1" mediaDuration="63/1" trackNumber="1" src="6" >
             <Transformer>
              <VectorParam id="6646"  name="translation">
               <InterpolatingParam id="6647" interp="linr"  time="-9999999/1" value="0" leadInLength="0/1"  />
               <InterpolatingParam id="6648" interp="linr"  time="-9999999/1" value="0" leadInLength="0/1"  />
               <InterpolatingParam id="6649" interp="linr"  time="-9999999/1" value="0" leadInLength="0/1"  />
              </VectorParam>
              <VectorParam id="6650"  name="rotation">
               <InterpolatingParam id="6651" interp="linr"  time="-9999999/1" value="0" leadInLength="0/1"  />
               <InterpolatingParam id="6652" interp="linr"  time="-9999999/1" value="0" leadInLength="0/1"  />
               <InterpolatingParam id="6653" interp="linr"  time="-9999999/1" value="0" leadInLength="0/1"  />
              </VectorParam>
              <VectorParam id="6654"  name="shear">
               <InterpolatingParam id="6655" interp="linr"  time="-9999999/1" value="0" leadInLength="0/1"  />
               <InterpolatingParam id="6656" interp="linr"  time="-9999999/1" value="0" leadInLength="0/1"  />
               <InterpolatingParam id="6657" interp="linr"  time="-9999999/1" value="0" leadInLength="0/1"  />
              </VectorParam>
              <VectorParam id="6658"  name="scale">
               <InterpolatingParam id="6659" interp="linr"  time="-9999999/1" value="1" leadInLength="0/1"  />
               <InterpolatingParam id="6660" interp="linr"  time="-9999999/1" value="1" leadInLength="0/1"  />
               <InterpolatingParam id="6661" interp="linr"  time="-9999999/1" value="1" leadInLength="0/1"  />
              </VectorParam>
              <VectorParam id="6662"  name="anchor">
               <InterpolatingParam id="6663" interp="linr"  time="0/1" value="0" leadInLength="0/1"  />
               <InterpolatingParam id="6664" interp="linr"  time="0/1" value="0" leadInLength="0/1"  />
               <InterpolatingParam id="6665" interp="linr"  time="0/1" value="0" leadInLength="0/1"  />
              </VectorParam>
             </Transformer>
             <Parameters>
              <VectorParam id="6666"  name="sourceCrop">
               <InterpolatingParam id="6667" interp="linr"  time="0/1" value="0" leadInLength="0/1"  />
               <InterpolatingParam id="6668" interp="linr"  time="0/1" value="0" leadInLength="0/1"  />
               <InterpolatingParam id="6669" interp="linr"  time="0/1" value="0" leadInLength="0/1"  />
               <InterpolatingParam id="6670" interp="linr"  time="0/1" value="0" leadInLength="0/1"  />
              </VectorParam>
              <VectorParam id="6671"  name="geometryCrop">
               <InterpolatingParam id="6672" interp="linr"  time="-9999999/1" value="0" leadInLength="0/1"  />
               <InterpolatingParam id="6673" interp="linr"  time="-9999999/1" value="0" leadInLength="0/1"  />
               <InterpolatingParam id="6674" interp="linr"  time="-9999999/1" value="0" leadInLength="0/1"  />
               <InterpolatingParam id="6675" interp="linr"  time="-9999999/1" value="0" leadInLength="0/1"  />
              </VectorParam>
              <InterpolatingParam id="6676" interp="linr"  time="-9999999/1" value="1" leadInLength="0/1"  name="opacity"/>
             </Parameters>
             <Attributes>
              <Attribute id="6677" value="" name="ident"/>
             </Attributes>
             <ExtraData>
              <Entry key="ZoomPanBin">
               <ZoomPanBin id="6678"  >
                <ZoomPanKeyframes>
                 <ZoomPanKeyframe id="6679" timeRangeEnd="-9999999/1" timeRangeDuration="0/1" interpolaterName="linr"  />
                </ZoomPanKeyframes>
               </ZoomPanBin>
              </Entry>
             </ExtraData>
            </VMFile>
            <MetaData>
             <entry key="WinSubProjectDisplayName" val=""/>
            </MetaData>
           </UnifiedMedia>
           <UnifiedMedia id="6680"  >
            <AMFile id="6681" start="11718" duration="51" scalar="1/1" mediaStart="22490/1" mediaDuration="51/1" trackNumber="2" src="6" channelNumber="0,1" >
             <Parameters>
              <InterpolatingParam id="6682" interp="linr"  time="0/1" value="1" leadInLength="0/1"  name="volume"/>
              <Parameter id="6683"  name="captions"/>
             </Parameters>
             <Attributes>
              <Attribute id="6684" value="" name="ident"/>
              <Attribute id="6685" value="44100" name="sampleRate"/>
              <Attribute id="6686" value="16" name="bitDepth"/>
              <Attribute id="6687" value="1" name="gain"/>
              <Attribute id="6688" value="0" name="mixToMono"/>
             </Attributes>
            </AMFile>
            <VMFile id="6689" start="11718" duration="51" scalar="1/1" mediaStart="22490/1" mediaDuration="51/1" trackNumber="1" src="6" >
             <Transformer>
              <VectorParam id="6690"  name="translation">
               <InterpolatingParam id="6691" interp="linr"  time="-9999999/1" value="0" leadInLength="0/1"  />
               <InterpolatingParam id="6692" interp="linr"  time="-9999999/1" value="0" leadInLength="0/1"  />
               <InterpolatingParam id="6693" interp="linr"  time="-9999999/1" value="0" leadInLength="0/1"  />
              </VectorParam>
              <VectorParam id="6694"  name="rotation">
               <InterpolatingParam id="6695" interp="linr"  time="-9999999/1" value="0" leadInLength="0/1"  />
               <InterpolatingParam id="6696" interp="linr"  time="-9999999/1" value="0" leadInLength="0/1"  />
               <InterpolatingParam id="6697" interp="linr"  time="-9999999/1" value="0" leadInLength="0/1"  />
              </VectorParam>
              <VectorParam id="6698"  name="shear">
               <InterpolatingParam id="6699" interp="linr"  time="-9999999/1" value="0" leadInLength="0/1"  />
               <InterpolatingParam id="6700" interp="linr"  time="-9999999/1" value="0" leadInLength="0/1"  />
               <InterpolatingParam id="6701" interp="linr"  time="-9999999/1" value="0" leadInLength="0/1"  />
              </VectorParam>
              <VectorParam id="6702"  name="scale">
               <InterpolatingParam id="6703" interp="linr"  time="-9999999/1" value="1" leadInLength="0/1"  />
               <InterpolatingParam id="6704" interp="linr"  time="-9999999/1" value="1" leadInLength="0/1"  />
               <InterpolatingParam id="6705" interp="linr"  time="-9999999/1" value="1" leadInLength="0/1"  />
              </VectorParam>
              <VectorParam id="6706"  name="anchor">
               <InterpolatingParam id="6707" interp="linr"  time="0/1" value="0" leadInLength="0/1"  />
               <InterpolatingParam id="6708" interp="linr"  time="0/1" value="0" leadInLength="0/1"  />
               <InterpolatingParam id="6709" interp="linr"  time="0/1" value="0" leadInLength="0/1"  />
              </VectorParam>
             </Transformer>
             <Parameters>
              <VectorParam id="6710"  name="sourceCrop">
               <InterpolatingParam id="6711" interp="linr"  time="0/1" value="0" leadInLength="0/1"  />
               <InterpolatingParam id="6712" interp="linr"  time="0/1" value="0" leadInLength="0/1"  />
               <InterpolatingParam id="6713" interp="linr"  time="0/1" value="0" leadInLength="0/1"  />
               <InterpolatingParam id="6714" interp="linr"  time="0/1" value="0" leadInLength="0/1"  />
              </VectorParam>
              <VectorParam id="6715"  name="geometryCrop">
               <InterpolatingParam id="6716" interp="linr"  time="-9999999/1" value="0" leadInLength="0/1"  />
               <InterpolatingParam id="6717" interp="linr"  time="-9999999/1" value="0" leadInLength="0/1"  />
               <InterpolatingParam id="6718" interp="linr"  time="-9999999/1" value="0" leadInLength="0/1"  />
               <InterpolatingParam id="6719" interp="linr"  time="-9999999/1" value="0" leadInLength="0/1"  />
              </VectorParam>
              <InterpolatingParam id="6720" interp="linr"  time="-9999999/1" value="1" leadInLength="0/1"  name="opacity"/>
             </Parameters>
             <Attributes>
              <Attribute id="6721" value="" name="ident"/>
             </Attributes>
             <ExtraData>
              <Entry key="ZoomPanBin">
               <ZoomPanBin id="6722"  >
                <ZoomPanKeyframes>
                 <ZoomPanKeyframe id="6723" timeRangeEnd="-9999999/1" timeRangeDuration="0/1" interpolaterName="linr"  />
                </ZoomPanKeyframes>
               </ZoomPanBin>
              </Entry>
             </ExtraData>
            </VMFile>
            <MetaData>
             <entry key="WinSubProjectDisplayName" val=""/>
            </MetaData>
           </UnifiedMedia>
           <UnifiedMedia id="6724"  >
            <AMFile id="6725" start="11769" duration="278" scalar="1/1" mediaStart="22869/1" mediaDuration="278/1" trackNumber="2" src="6" channelNumber="0,1" >
             <Parameters>
              <InterpolatingParam id="6726" interp="linr"  time="0/1" value="1" leadInLength="0/1"  name="volume"/>
              <Parameter id="6727"  name="captions"/>
             </Parameters>
             <Attributes>
              <Attribute id="6728" value="" name="ident"/>
              <Attribute id="6729" value="44100" name="sampleRate"/>
              <Attribute id="6730" value="16" name="bitDepth"/>
              <Attribute id="6731" value="1" name="gain"/>
              <Attribute id="6732" value="0" name="mixToMono"/>
             </Attributes>
            </AMFile>
            <VMFile id="6733" start="11769" duration="278" scalar="1/1" mediaStart="22869/1" mediaDuration="278/1" trackNumber="1" src="6" >
             <Transformer>
              <VectorParam id="6734"  name="translation">
               <InterpolatingParam id="6735" interp="linr"  time="-9999999/1" value="0" leadInLength="0/1"  />
               <InterpolatingParam id="6736" interp="linr"  time="-9999999/1" value="0" leadInLength="0/1"  />
               <InterpolatingParam id="6737" interp="linr"  time="-9999999/1" value="0" leadInLength="0/1"  />
              </VectorParam>
              <VectorParam id="6738"  name="rotation">
               <InterpolatingParam id="6739" interp="linr"  time="-9999999/1" value="0" leadInLength="0/1"  />
               <InterpolatingParam id="6740" interp="linr"  time="-9999999/1" value="0" leadInLength="0/1"  />
               <InterpolatingParam id="6741" interp="linr"  time="-9999999/1" value="0" leadInLength="0/1"  />
              </VectorParam>
              <VectorParam id="6742"  name="shear">
               <InterpolatingParam id="6743" interp="linr"  time="-9999999/1" value="0" leadInLength="0/1"  />
               <InterpolatingParam id="6744" interp="linr"  time="-9999999/1" value="0" leadInLength="0/1"  />
               <InterpolatingParam id="6745" interp="linr"  time="-9999999/1" value="0" leadInLength="0/1"  />
              </VectorParam>
              <VectorParam id="6746"  name="scale">
               <InterpolatingParam id="6747" interp="linr"  time="-9999999/1" value="1" leadInLength="0/1"  />
               <InterpolatingParam id="6748" interp="linr"  time="-9999999/1" value="1" leadInLength="0/1"  />
               <InterpolatingParam id="6749" interp="linr"  time="-9999999/1" value="1" leadInLength="0/1"  />
              </VectorParam>
              <VectorParam id="6750"  name="anchor">
               <InterpolatingParam id="6751" interp="linr"  time="0/1" value="0" leadInLength="0/1"  />
               <InterpolatingParam id="6752" interp="linr"  time="0/1" value="0" leadInLength="0/1"  />
               <InterpolatingParam id="6753" interp="linr"  time="0/1" value="0" leadInLength="0/1"  />
              </VectorParam>
             </Transformer>
             <Parameters>
              <VectorParam id="6754"  name="sourceCrop">
               <InterpolatingParam id="6755" interp="linr"  time="0/1" value="0" leadInLength="0/1"  />
               <InterpolatingParam id="6756" interp="linr"  time="0/1" value="0" leadInLength="0/1"  />
               <InterpolatingParam id="6757" interp="linr"  time="0/1" value="0" leadInLength="0/1"  />
               <InterpolatingParam id="6758" interp="linr"  time="0/1" value="0" leadInLength="0/1"  />
              </VectorParam>
              <VectorParam id="6759"  name="geometryCrop">
               <InterpolatingParam id="6760" interp="linr"  time="-9999999/1" value="0" leadInLength="0/1"  />
               <InterpolatingParam id="6761" interp="linr"  time="-9999999/1" value="0" leadInLength="0/1"  />
               <InterpolatingParam id="6762" interp="linr"  time="-9999999/1" value="0" leadInLength="0/1"  />
               <InterpolatingParam id="6763" interp="linr"  time="-9999999/1" value="0" leadInLength="0/1"  />
              </VectorParam>
              <InterpolatingParam id="6764" interp="linr"  time="-9999999/1" value="1" leadInLength="0/1"  name="opacity"/>
             </Parameters>
             <Attributes>
              <Attribute id="6765" value="" name="ident"/>
             </Attributes>
             <ExtraData>
              <Entry key="ZoomPanBin">
               <ZoomPanBin id="6766"  >
                <ZoomPanKeyframes>
                 <ZoomPanKeyframe id="6767" timeRangeEnd="-9999999/1" timeRangeDuration="0/1" interpolaterName="linr"  />
                </ZoomPanKeyframes>
               </ZoomPanBin>
              </Entry>
             </ExtraData>
            </VMFile>
            <MetaData>
             <entry key="WinSubProjectDisplayName" val=""/>
            </MetaData>
           </UnifiedMedia>
           <UnifiedMedia id="6768"  >
            <AMFile id="6769" start="12047" duration="32" scalar="1/1" mediaStart="23385/1" mediaDuration="32/1" trackNumber="2" src="6" channelNumber="0,1" >
             <Parameters>
              <InterpolatingParam id="6770" interp="linr"  time="0/1" value="1" leadInLength="0/1"  name="volume"/>
              <Parameter id="6771"  name="captions"/>
             </Parameters>
             <Attributes>
              <Attribute id="6772" value="" name="ident"/>
              <Attribute id="6773" value="44100" name="sampleRate"/>
              <Attribute id="6774" value="16" name="bitDepth"/>
              <Attribute id="6775" value="1" name="gain"/>
              <Attribute id="6776" value="0" name="mixToMono"/>
             </Attributes>
            </AMFile>
            <VMFile id="6777" start="12047" duration="32" scalar="1/1" mediaStart="23385/1" mediaDuration="32/1" trackNumber="1" src="6" >
             <Transformer>
              <VectorParam id="6778"  name="translation">
               <InterpolatingParam id="6779" interp="linr"  time="-9999999/1" value="0" leadInLength="0/1"  />
               <InterpolatingParam id="6780" interp="linr"  time="-9999999/1" value="0" leadInLength="0/1"  />
               <InterpolatingParam id="6781" interp="linr"  time="-9999999/1" value="0" leadInLength="0/1"  />
              </VectorParam>
              <VectorParam id="6782"  name="rotation">
               <InterpolatingParam id="6783" interp="linr"  time="-9999999/1" value="0" leadInLength="0/1"  />
               <InterpolatingParam id="6784" interp="linr"  time="-9999999/1" value="0" leadInLength="0/1"  />
               <InterpolatingParam id="6785" interp="linr"  time="-9999999/1" value="0" leadInLength="0/1"  />
              </VectorParam>
              <VectorParam id="6786"  name="shear">
               <InterpolatingParam id="6787" interp="linr"  time="-9999999/1" value="0" leadInLength="0/1"  />
               <InterpolatingParam id="6788" interp="linr"  time="-9999999/1" value="0" leadInLength="0/1"  />
               <InterpolatingParam id="6789" interp="linr"  time="-9999999/1" value="0" leadInLength="0/1"  />
              </VectorParam>
              <VectorParam id="6790"  name="scale">
               <InterpolatingParam id="6791" interp="linr"  time="-9999999/1" value="1" leadInLength="0/1"  />
               <InterpolatingParam id="6792" interp="linr"  time="-9999999/1" value="1" leadInLength="0/1"  />
               <InterpolatingParam id="6793" interp="linr"  time="-9999999/1" value="1" leadInLength="0/1"  />
              </VectorParam>
              <VectorParam id="6794"  name="anchor">
               <InterpolatingParam id="6795" interp="linr"  time="0/1" value="0" leadInLength="0/1"  />
               <InterpolatingParam id="6796" interp="linr"  time="0/1" value="0" leadInLength="0/1"  />
               <InterpolatingParam id="6797" interp="linr"  time="0/1" value="0" leadInLength="0/1"  />
              </VectorParam>
             </Transformer>
             <Parameters>
              <VectorParam id="6798"  name="sourceCrop">
               <InterpolatingParam id="6799" interp="linr"  time="0/1" value="0" leadInLength="0/1"  />
               <InterpolatingParam id="6800" interp="linr"  time="0/1" value="0" leadInLength="0/1"  />
               <InterpolatingParam id="6801" interp="linr"  time="0/1" value="0" leadInLength="0/1"  />
               <InterpolatingParam id="6802" interp="linr"  time="0/1" value="0" leadInLength="0/1"  />
              </VectorParam>
              <VectorParam id="6803"  name="geometryCrop">
               <InterpolatingParam id="6804" interp="linr"  time="-9999999/1" value="0" leadInLength="0/1"  />
               <InterpolatingParam id="6805" interp="linr"  time="-9999999/1" value="0" leadInLength="0/1"  />
               <InterpolatingParam id="6806" interp="linr"  time="-9999999/1" value="0" leadInLength="0/1"  />
               <InterpolatingParam id="6807" interp="linr"  time="-9999999/1" value="0" leadInLength="0/1"  />
              </VectorParam>
              <InterpolatingParam id="6808" interp="linr"  time="-9999999/1" value="1" leadInLength="0/1"  name="opacity"/>
             </Parameters>
             <Attributes>
              <Attribute id="6809" value="" name="ident"/>
             </Attributes>
             <ExtraData>
              <Entry key="ZoomPanBin">
               <ZoomPanBin id="6810"  >
                <ZoomPanKeyframes>
                 <ZoomPanKeyframe id="6811" timeRangeEnd="-9999999/1" timeRangeDuration="0/1" interpolaterName="linr"  />
                </ZoomPanKeyframes>
               </ZoomPanBin>
              </Entry>
             </ExtraData>
            </VMFile>
            <MetaData>
             <entry key="WinSubProjectDisplayName" val=""/>
            </MetaData>
           </UnifiedMedia>
           <UnifiedMedia id="6812"  >
            <AMFile id="6813" start="12079" duration="55" scalar="1/1" mediaStart="23463/1" mediaDuration="55/1" trackNumber="2" src="6" channelNumber="0,1" >
             <Parameters>
              <InterpolatingParam id="6814" interp="linr"  time="0/1" value="1" leadInLength="0/1"  name="volume"/>
              <Parameter id="6815"  name="captions"/>
             </Parameters>
             <Attributes>
              <Attribute id="6816" value="" name="ident"/>
              <Attribute id="6817" value="44100" name="sampleRate"/>
              <Attribute id="6818" value="16" name="bitDepth"/>
              <Attribute id="6819" value="1" name="gain"/>
              <Attribute id="6820" value="0" name="mixToMono"/>
             </Attributes>
            </AMFile>
            <VMFile id="6821" start="12079" duration="55" scalar="1/1" mediaStart="23463/1" mediaDuration="55/1" trackNumber="1" src="6" >
             <Transformer>
              <VectorParam id="6822"  name="translation">
               <InterpolatingParam id="6823" interp="linr"  time="-9999999/1" value="0" leadInLength="0/1"  />
               <InterpolatingParam id="6824" interp="linr"  time="-9999999/1" value="0" leadInLength="0/1"  />
               <InterpolatingParam id="6825" interp="linr"  time="-9999999/1" value="0" leadInLength="0/1"  />
              </VectorParam>
              <VectorParam id="6826"  name="rotation">
               <InterpolatingParam id="6827" interp="linr"  time="-9999999/1" value="0" leadInLength="0/1"  />
               <InterpolatingParam id="6828" interp="linr"  time="-9999999/1" value="0" leadInLength="0/1"  />
               <InterpolatingParam id="6829" interp="linr"  time="-9999999/1" value="0" leadInLength="0/1"  />
              </VectorParam>
              <VectorParam id="6830"  name="shear">
               <InterpolatingParam id="6831" interp="linr"  time="-9999999/1" value="0" leadInLength="0/1"  />
               <InterpolatingParam id="6832" interp="linr"  time="-9999999/1" value="0" leadInLength="0/1"  />
               <InterpolatingParam id="6833" interp="linr"  time="-9999999/1" value="0" leadInLength="0/1"  />
              </VectorParam>
              <VectorParam id="6834"  name="scale">
               <InterpolatingParam id="6835" interp="linr"  time="-9999999/1" value="1" leadInLength="0/1"  />
               <InterpolatingParam id="6836" interp="linr"  time="-9999999/1" value="1" leadInLength="0/1"  />
               <InterpolatingParam id="6837" interp="linr"  time="-9999999/1" value="1" leadInLength="0/1"  />
              </VectorParam>
              <VectorParam id="6838"  name="anchor">
               <InterpolatingParam id="6839" interp="linr"  time="0/1" value="0" leadInLength="0/1"  />
               <InterpolatingParam id="6840" interp="linr"  time="0/1" value="0" leadInLength="0/1"  />
               <InterpolatingParam id="6841" interp="linr"  time="0/1" value="0" leadInLength="0/1"  />
              </VectorParam>
             </Transformer>
             <Parameters>
              <VectorParam id="6842"  name="sourceCrop">
               <InterpolatingParam id="6843" interp="linr"  time="0/1" value="0" leadInLength="0/1"  />
               <InterpolatingParam id="6844" interp="linr"  time="0/1" value="0" leadInLength="0/1"  />
               <InterpolatingParam id="6845" interp="linr"  time="0/1" value="0" leadInLength="0/1"  />
               <InterpolatingParam id="6846" interp="linr"  time="0/1" value="0" leadInLength="0/1"  />
              </VectorParam>
              <VectorParam id="6847"  name="geometryCrop">
               <InterpolatingParam id="6848" interp="linr"  time="-9999999/1" value="0" leadInLength="0/1"  />
               <InterpolatingParam id="6849" interp="linr"  time="-9999999/1" value="0" leadInLength="0/1"  />
               <InterpolatingParam id="6850" interp="linr"  time="-9999999/1" value="0" leadInLength="0/1"  />
               <InterpolatingParam id="6851" interp="linr"  time="-9999999/1" value="0" leadInLength="0/1"  />
              </VectorParam>
              <InterpolatingParam id="6852" interp="linr"  time="-9999999/1" value="1" leadInLength="0/1"  name="opacity"/>
             </Parameters>
             <Attributes>
              <Attribute id="6853" value="" name="ident"/>
             </Attributes>
             <ExtraData>
              <Entry key="ZoomPanBin">
               <ZoomPanBin id="6854"  >
                <ZoomPanKeyframes>
                 <ZoomPanKeyframe id="6855" timeRangeEnd="-9999999/1" timeRangeDuration="0/1" interpolaterName="linr"  />
                </ZoomPanKeyframes>
               </ZoomPanBin>
              </Entry>
             </ExtraData>
            </VMFile>
            <MetaData>
             <entry key="WinSubProjectDisplayName" val=""/>
            </MetaData>
           </UnifiedMedia>
           <UnifiedMedia id="6856"  >
            <AMFile id="6857" start="12134" duration="1539" scalar="1/1" mediaStart="25254/1" mediaDuration="1539/1" trackNumber="2" src="6" channelNumber="0,1" >
             <Parameters>
              <InterpolatingParam id="6858" interp="linr"  time="0/1" value="1" leadInLength="0/1"  name="volume"/>
              <Parameter id="6859"  name="captions"/>
             </Parameters>
             <Attributes>
              <Attribute id="6860" value="" name="ident"/>
              <Attribute id="6861" value="44100" name="sampleRate"/>
              <Attribute id="6862" value="16" name="bitDepth"/>
              <Attribute id="6863" value="1" name="gain"/>
              <Attribute id="6864" value="0" name="mixToMono"/>
             </Attributes>
            </AMFile>
            <VMFile id="6865" start="12134" duration="1539" scalar="1/1" mediaStart="25254/1" mediaDuration="1539/1" trackNumber="1" src="6" >
             <Transformer>
              <VectorParam id="6866"  name="translation">
               <InterpolatingParam id="6867" interp="linr"  time="-9999999/1" value="0" leadInLength="0/1"  />
               <InterpolatingParam id="6868" interp="linr"  time="-9999999/1" value="0" leadInLength="0/1"  />
               <InterpolatingParam id="6869" interp="linr"  time="-9999999/1" value="0" leadInLength="0/1"  />
              </VectorParam>
              <VectorParam id="6870"  name="rotation">
               <InterpolatingParam id="6871" interp="linr"  time="-9999999/1" value="0" leadInLength="0/1"  />
               <InterpolatingParam id="6872" interp="linr"  time="-9999999/1" value="0" leadInLength="0/1"  />
               <InterpolatingParam id="6873" interp="linr"  time="-9999999/1" value="0" leadInLength="0/1"  />
              </VectorParam>
              <VectorParam id="6874"  name="shear">
               <InterpolatingParam id="6875" interp="linr"  time="-9999999/1" value="0" leadInLength="0/1"  />
               <InterpolatingParam id="6876" interp="linr"  time="-9999999/1" value="0" leadInLength="0/1"  />
               <InterpolatingParam id="6877" interp="linr"  time="-9999999/1" value="0" leadInLength="0/1"  />
              </VectorParam>
              <VectorParam id="6878"  name="scale">
               <InterpolatingParam id="6879" interp="linr"  time="-9999999/1" value="1" leadInLength="0/1"  />
               <InterpolatingParam id="6880" interp="linr"  time="-9999999/1" value="1" leadInLength="0/1"  />
               <InterpolatingParam id="6881" interp="linr"  time="-9999999/1" value="1" leadInLength="0/1"  />
              </VectorParam>
              <VectorParam id="6882"  name="anchor">
               <InterpolatingParam id="6883" interp="linr"  time="0/1" value="0" leadInLength="0/1"  />
               <InterpolatingParam id="6884" interp="linr"  time="0/1" value="0" leadInLength="0/1"  />
               <InterpolatingParam id="6885" interp="linr"  time="0/1" value="0" leadInLength="0/1"  />
              </VectorParam>
             </Transformer>
             <Parameters>
              <VectorParam id="6886"  name="sourceCrop">
               <InterpolatingParam id="6887" interp="linr"  time="0/1" value="0" leadInLength="0/1"  />
               <InterpolatingParam id="6888" interp="linr"  time="0/1" value="0" leadInLength="0/1"  />
               <InterpolatingParam id="6889" interp="linr"  time="0/1" value="0" leadInLength="0/1"  />
               <InterpolatingParam id="6890" interp="linr"  time="0/1" value="0" leadInLength="0/1"  />
              </VectorParam>
              <VectorParam id="6891"  name="geometryCrop">
               <InterpolatingParam id="6892" interp="linr"  time="-9999999/1" value="0" leadInLength="0/1"  />
               <InterpolatingParam id="6893" interp="linr"  time="-9999999/1" value="0" leadInLength="0/1"  />
               <InterpolatingParam id="6894" interp="linr"  time="-9999999/1" value="0" leadInLength="0/1"  />
               <InterpolatingParam id="6895" interp="linr"  time="-9999999/1" value="0" leadInLength="0/1"  />
              </VectorParam>
              <InterpolatingParam id="6896" interp="linr"  time="-9999999/1" value="1" leadInLength="0/1"  name="opacity"/>
             </Parameters>
             <Attributes>
              <Attribute id="6897" value="" name="ident"/>
             </Attributes>
             <ExtraData>
              <Entry key="ZoomPanBin">
               <ZoomPanBin id="6898"  >
                <ZoomPanKeyframes>
                 <ZoomPanKeyframe id="6899" timeRangeEnd="-9999999/1" timeRangeDuration="0/1" interpolaterName="linr"  />
                </ZoomPanKeyframes>
               </ZoomPanBin>
              </Entry>
             </ExtraData>
            </VMFile>
            <MetaData>
             <entry key="WinSubProjectDisplayName" val=""/>
            </MetaData>
           </UnifiedMedia>
          </Medias>
         </GenericTrack>
        </StitchedMedia>
        <StitchedMedia id="6900" start="5671" duration="327" scalar="1/1" mediaStart="647/1" mediaDuration="327/1" minMediaStart="0/1" >
         <Transformer>
          <VectorParam id="6901"  name="translation">
           <InterpolatingParam id="6902" interp="linr"  >
            <Keyframes>
            <Keyframe id="6903"  time="-9999999/1" value="600.00000000003467" leadInLength="0/1"  />
            <Keyframe id="6904"  time="109/1" value="528.03559238441676" leadInLength="1/1"  interpolater="leadin-linr"  />
            <Keyframe id="6905"  time="182/1" value="547.79911178199143" leadInLength="30/1"  interpolater="leadin-linr"  />
            <Keyframe id="6906"  time="647/1" value="590.145448618807" leadInLength="26/1"  interpolater="leadin-linr"  />
            </Keyframes>
           </InterpolatingParam>
           <InterpolatingParam id="6907" interp="linr"  >
            <Keyframes>
            <Keyframe id="6908"  time="-9999999/1" value="-300.00000000000574" leadInLength="0/1"  />
            <Keyframe id="6909"  time="109/1" value="-246.02657232596579" leadInLength="1/1"  interpolater="leadin-linr"  />
            <Keyframe id="6910"  time="182/1" value="-241.04579505890979" leadInLength="30/1"  interpolater="leadin-linr"  />
            <Keyframe id="6911"  time="647/1" value="-304.60817370727642" leadInLength="26/1"  interpolater="leadin-linr"  />
            </Keyframes>
           </InterpolatingParam>
           <InterpolatingParam id="6912" interp="linr"  >
            <Keyframes>
            <Keyframe id="6913"  time="-9999999/1" value="0" leadInLength="0/1"  />
            <Keyframe id="6914"  time="109/1" value="0" leadInLength="1/1"  interpolater="leadin-linr"  />
            <Keyframe id="6915"  time="182/1" value="0" leadInLength="30/1"  interpolater="leadin-linr"  />
            <Keyframe id="6916"  time="647/1" value="0" leadInLength="26/1"  interpolater="leadin-linr"  />
            </Keyframes>
           </InterpolatingParam>
          </VectorParam>
          <VectorParam id="6917"  name="rotation">
           <InterpolatingParam id="6918" interp="linr"  >
            <Keyframes>
            <Keyframe id="6919"  time="-9999999/1" value="0" leadInLength="0/1"  />
            <Keyframe id="6920"  time="109/1" value="0" leadInLength="1/1"  interpolater="leadin-linr"  />
            <Keyframe id="6921"  time="182/1" value="0" leadInLength="30/1"  interpolater="leadin-linr"  />
            <Keyframe id="6922"  time="647/1" value="0" leadInLength="26/1"  interpolater="leadin-linr"  />
            </Keyframes>
           </InterpolatingParam>
           <InterpolatingParam id="6923" interp="linr"  >
            <Keyframes>
            <Keyframe id="6924"  time="-9999999/1" value="0" leadInLength="0/1"  />
            <Keyframe id="6925"  time="109/1" value="0" leadInLength="1/1"  interpolater="leadin-linr"  />
            <Keyframe id="6926"  time="182/1" value="0" leadInLength="30/1"  interpolater="leadin-linr"  />
            <Keyframe id="6927"  time="647/1" value="0" leadInLength="26/1"  interpolater="leadin-linr"  />
            </Keyframes>
           </InterpolatingParam>
           <InterpolatingParam id="6928" interp="linr"  >
            <Keyframes>
            <Keyframe id="6929"  time="-9999999/1" value="0" leadInLength="0/1"  />
            <Keyframe id="6930"  time="109/1" value="0" leadInLength="1/1"  interpolater="leadin-linr"  />
            <Keyframe id="6931"  time="182/1" value="0" leadInLength="30/1"  interpolater="leadin-linr"  />
            <Keyframe id="6932"  time="647/1" value="0" leadInLength="26/1"  interpolater="leadin-linr"  />
            </Keyframes>
           </InterpolatingParam>
          </VectorParam>
          <VectorParam id="6933"  name="shear">
           <InterpolatingParam id="6934" interp="linr"  >
            <Keyframes>
            <Keyframe id="6935"  time="-9999999/1" value="0" leadInLength="0/1"  />
            <Keyframe id="6936"  time="109/1" value="0" leadInLength="1/1"  interpolater="leadin-linr"  />
            <Keyframe id="6937"  time="182/1" value="0" leadInLength="30/1"  interpolater="leadin-linr"  />
            <Keyframe id="6938"  time="647/1" value="0" leadInLength="26/1"  interpolater="leadin-linr"  />
            </Keyframes>
           </InterpolatingParam>
           <InterpolatingParam id="6939" interp="linr"  >
            <Keyframes>
            <Keyframe id="6940"  time="-9999999/1" value="0" leadInLength="0/1"  />
            <Keyframe id="6941"  time="109/1" value="0" leadInLength="1/1"  interpolater="leadin-linr"  />
            <Keyframe id="6942"  time="182/1" value="0" leadInLength="30/1"  interpolater="leadin-linr"  />
            <Keyframe id="6943"  time="647/1" value="0" leadInLength="26/1"  interpolater="leadin-linr"  />
            </Keyframes>
           </InterpolatingParam>
           <InterpolatingParam id="6944" interp="linr"  >
            <Keyframes>
            <Keyframe id="6945"  time="-9999999/1" value="0" leadInLength="0/1"  />
            <Keyframe id="6946"  time="109/1" value="0" leadInLength="1/1"  interpolater="leadin-linr"  />
            <Keyframe id="6947"  time="182/1" value="0" leadInLength="30/1"  interpolater="leadin-linr"  />
            <Keyframe id="6948"  time="647/1" value="0" leadInLength="26/1"  interpolater="leadin-linr"  />
            </Keyframes>
           </InterpolatingParam>
          </VectorParam>
          <VectorParam id="6949"  name="scale">
           <InterpolatingParam id="6950" interp="linr"  >
            <Keyframes>
            <Keyframe id="6951"  time="-9999999/1" value="0.25" leadInLength="0/1"  />
            <Keyframe id="6952"  time="109/1" value="0.47488964745895645" leadInLength="1/1"  interpolater="leadin-linr"  />
            <Keyframe id="6953"  time="182/1" value="0.4970234240498731" leadInLength="30/1"  interpolater="leadin-linr"  />
            <Keyframe id="6954"  time="647/1" value="0.34688995848107668" leadInLength="26/1"  interpolater="leadin-linr"  />
            </Keyframes>
           </InterpolatingParam>
           <InterpolatingParam id="6955" interp="linr"  >
            <Keyframes>
            <Keyframe id="6956"  time="-9999999/1" value="0.25" leadInLength="0/1"  />
            <Keyframe id="6957"  time="109/1" value="0.47488965884815465" leadInLength="1/1"  interpolater="leadin-linr"  />
            <Keyframe id="6958"  time="182/1" value="0.49702339701941739" leadInLength="30/1"  interpolater="leadin-linr"  />
            <Keyframe id="6959"  time="647/1" value="0.34688993961558001" leadInLength="26/1"  interpolater="leadin-linr"  />
            </Keyframes>
           </InterpolatingParam>
           <InterpolatingParam id="6960" interp="linr"  >
            <Keyframes>
            <Keyframe id="6961"  time="-9999999/1" value="1" leadInLength="0/1"  />
            <Keyframe id="6962"  time="109/1" value="1" leadInLength="1/1"  interpolater="leadin-linr"  />
            <Keyframe id="6963"  time="182/1" value="0.99999999999999978" leadInLength="30/1"  interpolater="leadin-linr"  />
            <Keyframe id="6964"  time="647/1" value="0.99999999999999967" leadInLength="26/1"  interpolater="leadin-linr"  />
            </Keyframes>
           </InterpolatingParam>
          </VectorParam>
          <VectorParam id="6965"  name="anchor">
           <InterpolatingParam id="6966" interp="linr"  time="0/1" value="0" leadInLength="0/1"  />
           <InterpolatingParam id="6967" interp="linr"  time="0/1" value="0" leadInLength="0/1"  />
           <InterpolatingParam id="6968" interp="linr"  time="0/1" value="0" leadInLength="0/1"  />
          </VectorParam>
         </Transformer>
         <Parameters>
          <VectorParam id="6969"  name="sourceCrop">
           <InterpolatingParam id="6970" interp="linr"  time="0/1" value="0" leadInLength="0/1"  />
           <InterpolatingParam id="6971" interp="linr"  time="0/1" value="0" leadInLength="0/1"  />
           <InterpolatingParam id="6972" interp="linr"  time="0/1" value="0" leadInLength="0/1"  />
           <InterpolatingParam id="6973" interp="linr"  time="0/1" value="0" leadInLength="0/1"  />
          </VectorParam>
          <VectorParam id="6974"  name="geometryCrop">
           <InterpolatingParam id="6975" interp="linr"  >
            <Keyframes>
            <Keyframe id="6976"  time="-9999999/1" value="0" leadInLength="0/1"  />
            <Keyframe id="6977"  time="109/1" value="0" leadInLength="1/1"  interpolater="leadin-linr"  />
            <Keyframe id="6978"  time="182/1" value="0" leadInLength="30/1"  interpolater="leadin-linr"  />
            <Keyframe id="6979"  time="647/1" value="51.633466136798688" leadInLength="26/1"  interpolater="leadin-linr"  />
            </Keyframes>
           </InterpolatingParam>
           <InterpolatingParam id="6980" interp="linr"  >
            <Keyframes>
            <Keyframe id="6981"  time="-9999999/1" value="0" leadInLength="0/1"  />
            <Keyframe id="6982"  time="109/1" value="0" leadInLength="1/1"  interpolater="leadin-linr"  />
            <Keyframe id="6983"  time="182/1" value="0" leadInLength="30/1"  interpolater="leadin-linr"  />
            <Keyframe id="6984"  time="647/1" value="0" leadInLength="26/1"  interpolater="leadin-linr"  />
            </Keyframes>
           </InterpolatingParam>
           <InterpolatingParam id="6985" interp="linr"  >
            <Keyframes>
            <Keyframe id="6986"  time="-9999999/1" value="0" leadInLength="0/1"  />
            <Keyframe id="6987"  time="109/1" value="0" leadInLength="1/1"  interpolater="leadin-linr"  />
            <Keyframe id="6988"  time="182/1" value="0" leadInLength="30/1"  interpolater="leadin-linr"  />
            <Keyframe id="6989"  time="647/1" value="51.633466134069465" leadInLength="26/1"  interpolater="leadin-linr"  />
            </Keyframes>
           </InterpolatingParam>
           <InterpolatingParam id="6990" interp="linr"  >
            <Keyframes>
            <Keyframe id="6991"  time="-9999999/1" value="0" leadInLength="0/1"  />
            <Keyframe id="6992"  time="109/1" value="0" leadInLength="1/1"  interpolater="leadin-linr"  />
            <Keyframe id="6993"  time="182/1" value="0" leadInLength="30/1"  interpolater="leadin-linr"  />
            <Keyframe id="6994"  time="647/1" value="80.31872946737181" leadInLength="26/1"  interpolater="leadin-linr"  />
            </Keyframes>
           </InterpolatingParam>
          </VectorParam>
          <InterpolatingParam id="6995" interp="linr"  name="opacity">
           <Keyframes>
           <Keyframe id="6996"  time="-9999999/1" value="1" leadInLength="0/1"  />
           <Keyframe id="6997"  time="109/1" value="1" leadInLength="1/1"  interpolater="leadin-linr"  />
           <Keyframe id="6998"  time="182/1" value="1" leadInLength="30/1"  interpolater="leadin-linr"  />
           <Keyframe id="6999"  time="647/1" value="1" leadInLength="26/1"  interpolater="leadin-linr"  />
           </Keyframes>
          </InterpolatingParam>
          <InterpolatingParam id="7000" interp="linr"  time="0/1" value="1" leadInLength="0/1"  name="cursorOpacity"/>
          <InterpolatingParam id="7001" interp="linr"  time="0/1" value="1" leadInLength="0/1"  name="cursorScale"/>
          <InterpolatingParam id="7002" interp="linr"  time="0/1" value="1" leadInLength="0/1"  name="volume"/>
          <Parameter id="7003"  name="captions"/>
         </Parameters>
         <Effects>
          <GenericEffect id="7004" name = "WinCompression" >
           <Parameters>
           <InterpolatingParam id="7005" interp="linr"  time="0/1" value="0" leadInLength="0/1"   name="attack"/>
           <InterpolatingParam id="7006" interp="linr"  time="0/1" value="9" leadInLength="0/1"   name="gain"/>
           <Parameter id="7007"   name="preset">
            <Keyframes>
            <Keyframe id="7008"  time="0/1" value="1" leadInLength="0/1"  />
            </Keyframes>
           </Parameter>
           <InterpolatingParam id="7009" interp="linr"  time="0/1" value="10" leadInLength="0/1"   name="ratio"/>
           <InterpolatingParam id="7010" interp="linr"  time="0/1" value="3500" leadInLength="0/1"   name="release"/>
           <InterpolatingParam id="7011" interp="linr"  time="0/1" value="-20" leadInLength="0/1"   name="threshold"/>
           </Parameters>
           <MetaData>
            <entry key="effectIndex" val="0"/>
           </MetaData>
          </GenericEffect>
          <GenericEffect id="7012" name = "NoiseReduction" >
           <Parameters>
           <InterpolatingParam id="7013" interp="linr"  time="0/1" value="27.599999999999998" leadInLength="0/1"   name="denoiserAmount"/>
           <InterpolatingParam id="7014" interp="linr"  time="0/1" value="2.2799999999999994" leadInLength="0/1"   name="denoiserThreshold"/>
           <Parameter id="7015"   name="noiseProfile">
            <Keyframes>
            <Keyframe id="7016"  time="0/1" value="FBAAAAIAAABErAAAAQIAANLxa8JxKVHC/flNwjBKS8JfAUbCDDVEwhiAScJKkkzCb/BKwiwpTcKV&#xD;&#xa;Tk7CRxNRwnR5YMKTC2jC0eFlwkITa8LPem3CKJt0wshvcMI4sGrC6xxrwkVbbML1YWLCMZBdwndS&#xD;&#xa;ZMJoKWjCzrhuwgLfdMK6V3PCac13wgSad8I3+njCInp9wmzjecKZGHjC1At6whIGfcJqG3zCzyF/&#xD;&#xa;wgVYgsKYnYDCHEKAwsl1gsJJP4TCMnqFwukFhsIg64bCZPqFwurvh8L9VIrCVhSJwu43isLt+IzC&#xD;&#xa;gF2MwjbPjMKjVY3C3sCLwicMisJ+RonCbOONwpe9kMK6i5LCQgyVwo6OlcLSupXCG36Xwh/HmcKB&#xD;&#xa;SprCp9uYwhqkmMIEupnCLUeYws3AmMJ+xZrC0cubwkcGmcK2+ZjCAI+awrd4nMKA1Z3CuK6ewngf&#xD;&#xa;nsIGmJ7CoN2gwsbCo8In+6PCHA6lwsfXpMKv1qXC6Gynws/3p8KtfqbC0ielwhe5psJXBKnCjzOo&#xD;&#xa;wmhHp8KHEKfCslynwkFWqMLIFqvCTWOtwqRKrcKy7avC+iCtwpO/rsIo+q3CSMmvwoFEr8IIDa3C&#xD;&#xa;2PavwowDssKlQbLCDJOxwjxKsMIoE6zCRqCrwgoLsMJ9fK/Cl8WxwhtvssKXdbLCM1SzwjD5ssK6&#xD;&#xa;O7HCoHG0wg9jtcLKzLPCDh6zwuDls8IykbTC0lCzwqofs8KDeLTCKDS2wpWVtsJIC7bCn1W1wiYV&#xD;&#xa;tsJc7bTCule2wi7ZuMJDFrfC/NO1wudYucKNU7rCmVm3wiJ5tcIFj7fC/uq3whDjtsI40rXCjGa4&#xD;&#xa;wou9t8I6v7fCa0O5wqzMucLTK7vC4K66wmclt8Ky77XCnqS3wugcucKStrjCIPG5wu8pu8LA8LrC&#xD;&#xa;l5m4wmKIuMIYv7jCcKK6whpcvMKOGr3CfWe8whbausKYbbvC7qm8wgTjvsL+N8DCXtq9woR+u8Lw&#xD;&#xa;BL3CGg++wrZhvMJ0WLzCDJ+9wsZLvMJGkbvCFnG8wk6ju8K41brC3pm6wnJCvsKSScHCu1nAwkCk&#xD;&#xa;vsIoEL3CpGK8wnjqvsJoc77CGli+wpCjv8IQ1r7CUKi9wqkxv8JqmcDCM3zAwnvFwMIlH7/C2I+/&#xD;&#xa;wuSYwMI+qb/CYLrAwmY5wsIcjMPCeMrCwjb5v8JooL/CQs7BwkDqwsKi7cPCQrPEwtgFxcIUdsPC&#xD;&#xa;dm3CwiirwcKQ38HCZUbDwlqyw8IAg8HC6hjAwr5Av8JuPL3C8Gi9wqhowcIAJ8TCzwHEwu5gwsLo&#xD;&#xa;QMLCx+7AwrvywsJ+LMXC8ljEwvZdxMLkcsXCym3HwuP3xcJa0cTCMsbEwo4jxMIcO8LCytvAwmjH&#xD;&#xa;w8KZJcXCV0fEwiIFwMKaCcDCu9TCwihjxcKUE8fCqL3EwmeIxMLzjcXCDf3FwpJ8xcIU0cTC/4vG&#xD;&#xa;wnYgyMK4o8XCUjPFwggexcJI38TCvKXEwsypxcKEoMbCTBTGwpFYxMIOS8LCWs2+wtChvcII5MLC&#xD;&#xa;BDbFwqwlxsI9bsXCavnGwj0bxcJMhcXCnB3GwvEVxcKzSsXCkgDFwjYpxML60cLCALPFwm0Fx8LW&#xD;&#xa;H8TCCErEwpEOyMKEf8bCQsHIwusjycIML8LCX3y+wsW7w8LgpsTCzgbFwhYCx8IZMcbC/VXEwmYS&#xD;&#xa;xcLeTMfC69XFwrb1xMJCCsbC4BTGwgZ0xMIQtMbCLCHHwp5WxsKwm8XCnwDFwtVwxML8VsfC9OLJ&#xD;&#xa;wnp0xsLqM8PC8ErGwkR9xsKrgcbCMIjFwgDOxMI05cXC7/zEwkbtxcJ2MsXCtHDEwhBKxcJCx8PC&#xD;&#xa;8LDDwuETxsKYaMfC+I3IwmkIycKQvsjC4/HFwpf0x8LS/MnC3BXIwuA2x8J8QcfCMmrEwrmKx8IQ&#xD;&#xa;UtDCSqHiwoYi9sJClfjC4qH4wkpt+MJGEPjC+pn5wjj898KRGfbCFQj4woCc98Iat/XCfEn0wqjK&#xD;&#xa;9cITxPXC2sf2wqyH9sID/PbCmJH2wvci+MJWRvjC2I/3wmju98LGpfbCHIH1wk7O9sK0mfXC1v30&#xD;&#xa;wvjD98KkWPjCShn3wsQt98JOyvjCyLL3wg4t98LuP/bCfar0wutu9cKfOfXC3pb1wsQR9sIWvPfC&#xD;&#xa;FvP3wmZe9sJc/PTCK4H1wujJ9MJaAPbCRrb3wibL98JCavjCUtj3wuZa98IHmvfCJMT2wlAk9sJ2&#xD;&#xa;+/XCbKX2wstj9sKOVvbCFSX2woTc9sIeFvfCN//2woFG98LiIvbC8uj2wilz9sLCV/fC/BX3wlqC&#xD;&#xa;9cL6LPfCGRr4wghL+MI3R/jCQDP5wpTj98K7tPfC5MP3wnzU9sIAN/jC5hj3wlRq98IcuffCkOT2&#xD;&#xa;wjTv9cKLb/bCTej2wr6s98KYCfnCeJL6wvay+cKiwvbCOYf3wuLe98KuSvXCSIL3wuBq+sKoi/nC&#xD;&#xa;CPr5wgSG+cJiIvjC/Yz3wm3E98LQTPjCQpb4whi0+cJy8/jCAGL5wgJH+cI24fnCrNj5ws3398Jk&#xD;&#xa;wPjCfGf5wndL+MIjdPfC9O31wk7M9sLwzfXCneX0wuRu98IW6fnCPET6wiQf+MLlOffCedb3wgRF&#xD;&#xa;+MJQXvfCaDf2wh8v+MJwMfrCJPz5wjZ6+cIes/fC2T/2wlGw98KiMfjCNJ/4wjq2+MLC7PnC0zf4&#xD;&#xa;wkxJ+MKpjPfC+6/2wpw0+MLgMPjC8kf4wuA0+MIKM/rCYn36wkxy+sKuA/nC5cn2wmgs+cJM7PrC&#xD;&#xa;pCr5wthp+MKu8/bCGHYBw1rxa8KEKVHCDvtNwj9LS8JSAUbCLDREwth/ScK2kkzCoPBKwgopTcLC&#xD;&#xa;TU7ChBJRwrp5YMImDGjCM+JlwrESa8Joe23CEJx0wrNwcMLbsWrClh1rwhtbbMKgYWLC7JBdwkRT&#xD;&#xa;ZMKNKWjCcLpuws/gdMLTVnPCrst3wsWXd8LA+XjC2Ht9wr7kecJuGnjCAAt6wo0EfcJ0G3zCfCN/&#xD;&#xa;wpFZgsK1nIDCFUKAwrp0gsI0PoTCCHmFwqYFhsLJ64bCVvyFwqzwh8JiU4rCmxOJwnY4isKi+YzC&#xD;&#xa;xVyMwvXMjMLCVY3CdMGLwloLisKWRInCauKNwm+9kMLqi5LCihCVwq2QlcLeuJXCO32XwibFmcL1&#xD;&#xa;SJrCqt6YwtaomMIEtpnCKkWYwoy9mMLmxJrCZsybwv8KmcIG/pjCSY2awiZ7nMLO1J3CK6iewk8c&#xD;&#xa;nsKemZ7CCtugwsLBo8Ia+aPCewqlwqvUpMJd16XConKnwh3/p8KyhKbCtSSlwkOypsLMA6nCbDio&#xD;&#xa;wvdHp8IYFafClEunwpdQqMKQEavCrnCtwhRfrcL2DazCElutwjDnrsIdCa7C2smvwqxhr8L0Nq3C&#xD;&#xa;VCawwvwpssIXRrLCLGexwqBAsMKTLqzCvterwvA4sMIEsq/C2h6ywjENs8LlELPCcDS0wmRgs8Kc&#xD;&#xa;FbHCKVG0wvSxtcLwMbTC6oSzwrAGtMLKwrTCLbOzwiORs8LGvLTCsry2wgDUtsICPrbCJpm1wrcm&#xD;&#xa;tsLNs7TCCDq2wmI4ucIxmLfCXyG2whyMucJqk7rC8tK3wrM+tsJpQrjCB2e4wlI9t8JbV7bCAAe5&#xD;&#xa;wjYVuML9IbjCW325wjLtucIwIbvC57a6wuHMt8KaL7bC7Wq3wgNvucLGkLnCyPe6wsBiu8IKkbrC&#xD;&#xa;fyG4wveLuMKgKrnCqMa6wsqHvMKM/LzCGIm8wqLdusKIaLvCLFW8wnYRv8JcZ8DCBNG9wm8yvMIY&#xD;&#xa;3L3Clm6+whTXvMLSzLzC9Ny9wrStvMK+jbvCzYm8wpIevML1SLvCev26wq51vsL7i8HCWBTBwt6d&#xD;&#xa;v8Kmpb3COB29whhcv8KOq77CI2O+wjfiv8LKLb/CKKS+wkDFv8J2IsHC3pXAwr9uwMI0yr7CkqK/&#xD;&#xa;wmY6wcLA0MDCDfbAwtrtwcIcdsPCJf7CwjgvwMJz+r/CeR3Cwm5IwsI7ZsPCrXbFwlQ5xcIMHsPC&#xD;&#xa;OvTCwhohwsLCzcHCIBnDwssYw8IlfcHCmqLAwnPHv8JoS73C+Fi9wh6TwcIgycPCCJXDwtNLw8LY&#xD;&#xa;asPCklTBwnL7wsJCJMXClnbEwiBoxMLwU8XCsVHHwvTnxcJ2BMXCi7fEwrwexMISLMLCttrAwi+/&#xD;&#xa;w8J6V8XCIHnEwqzsv8Lo4r/CpNXCwqi/xcKOX8fCIqjEwlVJxMJaScXCvtfFwuJ2xcIu0MTC7orG&#xD;&#xa;wnxWyML6tcXC4BfFwmQ+xcJ2NcXCFMbEwre7xcLCrMbCdiDGwiaFxMIjaMLC4dG+wq+TvcKErMLC&#xD;&#xa;hR7FwoI9xsJBs8XCvhrHwqgzxcLcpMXC8AXGwsAexcIKacXCBwrFwqgnxMIe4MLCIMDFwkoJx8K+&#xD;&#xa;HcTCLh3EwnzAx8L4KsbCl5DIwiTzyMIQO8LCiKe+wnvew8LhxsTCNuPEwgL/xsIHb8bCRmTEwpDl&#xD;&#xa;xMIyFMfCpLPFwlfWxMJo7cXCfBPGwnqgxMKr3MbC+SjHwuh+xsIkzMXCogLFwvh4xMIaWMfC667J&#xD;&#xa;whIUxsLA+cLCvCTGwvJExsJ+WsbCbKDFwsTtxMKcu8XClsXEwvCvxcKCEsXChoPEwoZwxcJGysPC&#xD;&#xa;CKjDwqQnxsKor8fCNWzIwhSzyML0jMjCrN7FwqzEx8KeC8rCdOrHwr0dx8LaZMfCJlTEwtCox8Ic&#xD;&#xa;39DCThvjwoAT9sLyn/bCaO/1wsjA9sL2RPjCrIf4winV9sIO5fTCZMj0wj+g9MI6dPXC6j74wmRl&#xD;&#xa;+sLiRfjCZL33ws7r9sLASvbCliz5wqTi+MIo4PjC0BX6wqyJ+cKNQ/jCiFb4whCB98L2SfjCLKP4&#xD;&#xa;wgg6+cLOr/jCFO32wq6z+MIYZfnCDGX5woYK+MIeHPbCJJn2wnoF9sJQTPbCkzn2wj6H9sJIBvnC&#xD;&#xa;3/P3wkUd+MLu+vjCZHj3wpqa9sIQLffC4C76wuw298IQDPbCj+v3wlbd+MJm5fjC9Cn3wrGs9sL4&#xD;&#xa;tfbChvb2wtYk98I9JvfCzFz4wrxr+sJ4ufnCNlz4woog98K34fbCOEn5wuKT+sJWSPfCFGz2wvG4&#xD;&#xa;9sJY7/fCcA73wm6V98IOlvnC5AD7wvTH+cKAn/fC1tz3wnTB9cK8mPbCxiz3wn5s+MKqZ/nCTm/4&#xD;&#xa;whN998K8q/fCkBL3wtCf98L+WPfCqi73wt8K98Kr//XCIhf2wh/i9cKeAvbCk/b3wpAR9sLszfXC&#xD;&#xa;4Rn3wg5R+MLS6PfCCMb5wvA++sJUyPnCwh76wt4P+cKY/vbCaJf3wuN19sLDm/TCFKz0wr6Q9sJU&#xD;&#xa;svfC/Mf5wl66+MKArPjC9nz5wmQC+sI2pfnCDrr3wqI298KRPPjC3kH5wjTV+MIS0PfCKAn4wnB7&#xD;&#xa;+MKGcvfCiAD4woC3+MKaNPjC/TT4wpIu+cKAjfrCCkv6wrJj+MIOyPjCFnD5wmj/98JONfnCNEv7&#xD;&#xa;wsqC+cLg1/jCqn/4wmqz98JcTfjCG4j2wmYd+MLuT/nCzHf5wmbj+sL45PnCQqD4wlZ8+MKkG/bC&#xD;&#xa;Vp70woJT9sLScPfCF+UC" leadInLength="0/1"  />
            </Keyframes>
           </Parameter>
           </Parameters>
           <MetaData>
            <entry key="effectIndex" val="1"/>
           </MetaData>
          </GenericEffect>
         </Effects>
         <Attributes>
          <Attribute id="7017" value="" name="ident"/>
          <Attribute id="7018" value="0" name="mixToMono"/>
         </Attributes>
         <MetaData>
          <entry key="WinSubProjectDisplayName" val=""/>
         </MetaData>
         <ExtraData>
          <Entry key="ZoomPanBin">
           <ZoomPanBin id="7019"  >
            <ZoomPanKeyframes>
             <ZoomPanKeyframe id="7020" timeRangeEnd="-9999999/1" timeRangeDuration="0/1" interpolaterName="linr"  />
             <ZoomPanKeyframe id="7021" timeRangeEnd="109/1" timeRangeDuration="1/1" interpolaterName="linr"  />
             <ZoomPanKeyframe id="7022" timeRangeEnd="182/1" timeRangeDuration="30/1" interpolaterName="linr"  />
             <ZoomPanKeyframe id="7023" timeRangeEnd="647/1" timeRangeDuration="26/1" interpolaterName="linr"  />
            </ZoomPanKeyframes>
           </ZoomPanBin>
          </Entry>
          <Entry key="CursorEffectBin">
           <CursorEffectBin id="7024"  >
            <CursorEffectKeyframes>
            </CursorEffectKeyframes>
           </CursorEffectBin>
          </Entry>
         </ExtraData>
         <GenericTrack id="7025"  >
          <Attributes>
           <Attribute id="7026" value="" name="ident"/>
           <Attribute id="7027" value="0" name="audioMuted"/>
           <Attribute id="7028" value="0" name="videoHidden"/>
          </Attributes>
          <MetaData>
           <entry key="IsLocked" val="False"/>
           <entry key="WinTrackHeight" val="0"/>
          </MetaData>
          <Medias>
           <UnifiedMedia id="7029"  >
            <AMFile id="7030" start="0" duration="638" scalar="1/1" mediaStart="0/1" mediaDuration="638/1" trackNumber="2" src="7" channelNumber="0,1" >
             <Parameters>
              <InterpolatingParam id="7031" interp="linr"  time="0/1" value="1" leadInLength="0/1"  name="volume"/>
              <Parameter id="7032"  name="captions"/>
             </Parameters>
             <Attributes>
              <Attribute id="7033" value="" name="ident"/>
              <Attribute id="7034" value="44100" name="sampleRate"/>
              <Attribute id="7035" value="16" name="bitDepth"/>
              <Attribute id="7036" value="1" name="gain"/>
              <Attribute id="7037" value="0" name="mixToMono"/>
             </Attributes>
            </AMFile>
            <VMFile id="7038" start="0" duration="638" scalar="1/1" mediaStart="0/1" mediaDuration="638/1" trackNumber="1" src="7" >
             <Transformer>
              <VectorParam id="7039"  name="translation">
               <InterpolatingParam id="7040" interp="linr"  time="-9999999/1" value="0" leadInLength="0/1"  />
               <InterpolatingParam id="7041" interp="linr"  time="-9999999/1" value="0" leadInLength="0/1"  />
               <InterpolatingParam id="7042" interp="linr"  time="-9999999/1" value="0" leadInLength="0/1"  />
              </VectorParam>
              <VectorParam id="7043"  name="rotation">
               <InterpolatingParam id="7044" interp="linr"  time="-9999999/1" value="0" leadInLength="0/1"  />
               <InterpolatingParam id="7045" interp="linr"  time="-9999999/1" value="0" leadInLength="0/1"  />
               <InterpolatingParam id="7046" interp="linr"  time="-9999999/1" value="0" leadInLength="0/1"  />
              </VectorParam>
              <VectorParam id="7047"  name="shear">
               <InterpolatingParam id="7048" interp="linr"  time="-9999999/1" value="0" leadInLength="0/1"  />
               <InterpolatingParam id="7049" interp="linr"  time="-9999999/1" value="0" leadInLength="0/1"  />
               <InterpolatingParam id="7050" interp="linr"  time="-9999999/1" value="0" leadInLength="0/1"  />
              </VectorParam>
              <VectorParam id="7051"  name="scale">
               <InterpolatingParam id="7052" interp="linr"  time="-9999999/1" value="1" leadInLength="0/1"  />
               <InterpolatingParam id="7053" interp="linr"  time="-9999999/1" value="1" leadInLength="0/1"  />
               <InterpolatingParam id="7054" interp="linr"  time="-9999999/1" value="1" leadInLength="0/1"  />
              </VectorParam>
              <VectorParam id="7055"  name="anchor">
               <InterpolatingParam id="7056" interp="linr"  time="0/1" value="0" leadInLength="0/1"  />
               <InterpolatingParam id="7057" interp="linr"  time="0/1" value="0" leadInLength="0/1"  />
               <InterpolatingParam id="7058" interp="linr"  time="0/1" value="0" leadInLength="0/1"  />
              </VectorParam>
             </Transformer>
             <Parameters>
              <VectorParam id="7059"  name="sourceCrop">
               <InterpolatingParam id="7060" interp="linr"  time="0/1" value="0" leadInLength="0/1"  />
               <InterpolatingParam id="7061" interp="linr"  time="0/1" value="0" leadInLength="0/1"  />
               <InterpolatingParam id="7062" interp="linr"  time="0/1" value="0" leadInLength="0/1"  />
               <InterpolatingParam id="7063" interp="linr"  time="0/1" value="0" leadInLength="0/1"  />
              </VectorParam>
              <VectorParam id="7064"  name="geometryCrop">
               <InterpolatingParam id="7065" interp="linr"  time="-9999999/1" value="0" leadInLength="0/1"  />
               <InterpolatingParam id="7066" interp="linr"  time="-9999999/1" value="0" leadInLength="0/1"  />
               <InterpolatingParam id="7067" interp="linr"  time="-9999999/1" value="0" leadInLength="0/1"  />
               <InterpolatingParam id="7068" interp="linr"  time="-9999999/1" value="0" leadInLength="0/1"  />
              </VectorParam>
              <InterpolatingParam id="7069" interp="linr"  time="-9999999/1" value="1" leadInLength="0/1"  name="opacity"/>
             </Parameters>
             <Attributes>
              <Attribute id="7070" value="" name="ident"/>
             </Attributes>
             <ExtraData>
              <Entry key="ZoomPanBin">
               <ZoomPanBin id="7071"  >
                <ZoomPanKeyframes>
                </ZoomPanKeyframes>
               </ZoomPanBin>
              </Entry>
             </ExtraData>
            </VMFile>
            <MetaData>
             <entry key="WinSubProjectDisplayName" val=""/>
            </MetaData>
           </UnifiedMedia>
           <UnifiedMedia id="7072"  >
            <AMFile id="7073" start="638" duration="80" scalar="1/1" mediaStart="1033/1" mediaDuration="80/1" trackNumber="2" src="7" channelNumber="0,1" >
             <Parameters>
              <InterpolatingParam id="7074" interp="linr"  time="0/1" value="1" leadInLength="0/1"  name="volume"/>
              <Parameter id="7075"  name="captions"/>
             </Parameters>
             <Attributes>
              <Attribute id="7076" value="" name="ident"/>
              <Attribute id="7077" value="44100" name="sampleRate"/>
              <Attribute id="7078" value="16" name="bitDepth"/>
              <Attribute id="7079" value="1" name="gain"/>
              <Attribute id="7080" value="0" name="mixToMono"/>
             </Attributes>
            </AMFile>
            <VMFile id="7081" start="638" duration="80" scalar="1/1" mediaStart="1033/1" mediaDuration="80/1" trackNumber="1" src="7" >
             <Transformer>
              <VectorParam id="7082"  name="translation">
               <InterpolatingParam id="7083" interp="linr"  time="-9999999/1" value="0" leadInLength="0/1"  />
               <InterpolatingParam id="7084" interp="linr"  time="-9999999/1" value="0" leadInLength="0/1"  />
               <InterpolatingParam id="7085" interp="linr"  time="-9999999/1" value="0" leadInLength="0/1"  />
              </VectorParam>
              <VectorParam id="7086"  name="rotation">
               <InterpolatingParam id="7087" interp="linr"  time="-9999999/1" value="0" leadInLength="0/1"  />
               <InterpolatingParam id="7088" interp="linr"  time="-9999999/1" value="0" leadInLength="0/1"  />
               <InterpolatingParam id="7089" interp="linr"  time="-9999999/1" value="0" leadInLength="0/1"  />
              </VectorParam>
              <VectorParam id="7090"  name="shear">
               <InterpolatingParam id="7091" interp="linr"  time="-9999999/1" value="0" leadInLength="0/1"  />
               <InterpolatingParam id="7092" interp="linr"  time="-9999999/1" value="0" leadInLength="0/1"  />
               <InterpolatingParam id="7093" interp="linr"  time="-9999999/1" value="0" leadInLength="0/1"  />
              </VectorParam>
              <VectorParam id="7094"  name="scale">
               <InterpolatingParam id="7095" interp="linr"  time="-9999999/1" value="1" leadInLength="0/1"  />
               <InterpolatingParam id="7096" interp="linr"  time="-9999999/1" value="1" leadInLength="0/1"  />
               <InterpolatingParam id="7097" interp="linr"  time="-9999999/1" value="1" leadInLength="0/1"  />
              </VectorParam>
              <VectorParam id="7098"  name="anchor">
               <InterpolatingParam id="7099" interp="linr"  time="0/1" value="0" leadInLength="0/1"  />
               <InterpolatingParam id="7100" interp="linr"  time="0/1" value="0" leadInLength="0/1"  />
               <InterpolatingParam id="7101" interp="linr"  time="0/1" value="0" leadInLength="0/1"  />
              </VectorParam>
             </Transformer>
             <Parameters>
              <VectorParam id="7102"  name="sourceCrop">
               <InterpolatingParam id="7103" interp="linr"  time="0/1" value="0" leadInLength="0/1"  />
               <InterpolatingParam id="7104" interp="linr"  time="0/1" value="0" leadInLength="0/1"  />
               <InterpolatingParam id="7105" interp="linr"  time="0/1" value="0" leadInLength="0/1"  />
               <InterpolatingParam id="7106" interp="linr"  time="0/1" value="0" leadInLength="0/1"  />
              </VectorParam>
              <VectorParam id="7107"  name="geometryCrop">
               <InterpolatingParam id="7108" interp="linr"  time="-9999999/1" value="0" leadInLength="0/1"  />
               <InterpolatingParam id="7109" interp="linr"  time="-9999999/1" value="0" leadInLength="0/1"  />
               <InterpolatingParam id="7110" interp="linr"  time="-9999999/1" value="0" leadInLength="0/1"  />
               <InterpolatingParam id="7111" interp="linr"  time="-9999999/1" value="0" leadInLength="0/1"  />
              </VectorParam>
              <InterpolatingParam id="7112" interp="linr"  time="-9999999/1" value="1" leadInLength="0/1"  name="opacity"/>
             </Parameters>
             <Attributes>
              <Attribute id="7113" value="" name="ident"/>
             </Attributes>
             <ExtraData>
              <Entry key="ZoomPanBin">
               <ZoomPanBin id="7114"  >
                <ZoomPanKeyframes>
                </ZoomPanKeyframes>
               </ZoomPanBin>
              </Entry>
             </ExtraData>
            </VMFile>
            <MetaData>
             <entry key="WinSubProjectDisplayName" val=""/>
            </MetaData>
           </UnifiedMedia>
           <UnifiedMedia id="7115"  >
            <AMFile id="7116" start="718" duration="115" scalar="1/1" mediaStart="1123/1" mediaDuration="115/1" trackNumber="2" src="7" channelNumber="0,1" >
             <Parameters>
              <InterpolatingParam id="7117" interp="linr"  time="0/1" value="1" leadInLength="0/1"  name="volume"/>
              <Parameter id="7118"  name="captions"/>
             </Parameters>
             <Attributes>
              <Attribute id="7119" value="" name="ident"/>
              <Attribute id="7120" value="44100" name="sampleRate"/>
              <Attribute id="7121" value="16" name="bitDepth"/>
              <Attribute id="7122" value="1" name="gain"/>
              <Attribute id="7123" value="0" name="mixToMono"/>
             </Attributes>
            </AMFile>
            <VMFile id="7124" start="718" duration="115" scalar="1/1" mediaStart="1123/1" mediaDuration="115/1" trackNumber="1" src="7" >
             <Transformer>
              <VectorParam id="7125"  name="translation">
               <InterpolatingParam id="7126" interp="linr"  time="-9999999/1" value="0" leadInLength="0/1"  />
               <InterpolatingParam id="7127" interp="linr"  time="-9999999/1" value="0" leadInLength="0/1"  />
               <InterpolatingParam id="7128" interp="linr"  time="-9999999/1" value="0" leadInLength="0/1"  />
              </VectorParam>
              <VectorParam id="7129"  name="rotation">
               <InterpolatingParam id="7130" interp="linr"  time="-9999999/1" value="0" leadInLength="0/1"  />
               <InterpolatingParam id="7131" interp="linr"  time="-9999999/1" value="0" leadInLength="0/1"  />
               <InterpolatingParam id="7132" interp="linr"  time="-9999999/1" value="0" leadInLength="0/1"  />
              </VectorParam>
              <VectorParam id="7133"  name="shear">
               <InterpolatingParam id="7134" interp="linr"  time="-9999999/1" value="0" leadInLength="0/1"  />
               <InterpolatingParam id="7135" interp="linr"  time="-9999999/1" value="0" leadInLength="0/1"  />
               <InterpolatingParam id="7136" interp="linr"  time="-9999999/1" value="0" leadInLength="0/1"  />
              </VectorParam>
              <VectorParam id="7137"  name="scale">
               <InterpolatingParam id="7138" interp="linr"  time="-9999999/1" value="1" leadInLength="0/1"  />
               <InterpolatingParam id="7139" interp="linr"  time="-9999999/1" value="1" leadInLength="0/1"  />
               <InterpolatingParam id="7140" interp="linr"  time="-9999999/1" value="1" leadInLength="0/1"  />
              </VectorParam>
              <VectorParam id="7141"  name="anchor">
               <InterpolatingParam id="7142" interp="linr"  time="0/1" value="0" leadInLength="0/1"  />
               <InterpolatingParam id="7143" interp="linr"  time="0/1" value="0" leadInLength="0/1"  />
               <InterpolatingParam id="7144" interp="linr"  time="0/1" value="0" leadInLength="0/1"  />
              </VectorParam>
             </Transformer>
             <Parameters>
              <VectorParam id="7145"  name="sourceCrop">
               <InterpolatingParam id="7146" interp="linr"  time="0/1" value="0" leadInLength="0/1"  />
               <InterpolatingParam id="7147" interp="linr"  time="0/1" value="0" leadInLength="0/1"  />
               <InterpolatingParam id="7148" interp="linr"  time="0/1" value="0" leadInLength="0/1"  />
               <InterpolatingParam id="7149" interp="linr"  time="0/1" value="0" leadInLength="0/1"  />
              </VectorParam>
              <VectorParam id="7150"  name="geometryCrop">
               <InterpolatingParam id="7151" interp="linr"  time="-9999999/1" value="0" leadInLength="0/1"  />
               <InterpolatingParam id="7152" interp="linr"  time="-9999999/1" value="0" leadInLength="0/1"  />
               <InterpolatingParam id="7153" interp="linr"  time="-9999999/1" value="0" leadInLength="0/1"  />
               <InterpolatingParam id="7154" interp="linr"  time="-9999999/1" value="0" leadInLength="0/1"  />
              </VectorParam>
              <InterpolatingParam id="7155" interp="linr"  time="-9999999/1" value="1" leadInLength="0/1"  name="opacity"/>
             </Parameters>
             <Attributes>
              <Attribute id="7156" value="" name="ident"/>
             </Attributes>
             <ExtraData>
              <Entry key="ZoomPanBin">
               <ZoomPanBin id="7157"  >
                <ZoomPanKeyframes>
                </ZoomPanKeyframes>
               </ZoomPanBin>
              </Entry>
             </ExtraData>
            </VMFile>
            <MetaData>
             <entry key="WinSubProjectDisplayName" val=""/>
            </MetaData>
           </UnifiedMedia>
           <UnifiedMedia id="7158"  >
            <AMFile id="7159" start="833" duration="21" scalar="1/1" mediaStart="1255/1" mediaDuration="21/1" trackNumber="2" src="7" channelNumber="0,1" >
             <Parameters>
              <InterpolatingParam id="7160" interp="linr"  time="0/1" value="1" leadInLength="0/1"  name="volume"/>
              <Parameter id="7161"  name="captions"/>
             </Parameters>
             <Attributes>
              <Attribute id="7162" value="" name="ident"/>
              <Attribute id="7163" value="44100" name="sampleRate"/>
              <Attribute id="7164" value="16" name="bitDepth"/>
              <Attribute id="7165" value="1" name="gain"/>
              <Attribute id="7166" value="0" name="mixToMono"/>
             </Attributes>
            </AMFile>
            <VMFile id="7167" start="833" duration="21" scalar="1/1" mediaStart="1255/1" mediaDuration="21/1" trackNumber="1" src="7" >
             <Transformer>
              <VectorParam id="7168"  name="translation">
               <InterpolatingParam id="7169" interp="linr"  time="-9999999/1" value="0" leadInLength="0/1"  />
               <InterpolatingParam id="7170" interp="linr"  time="-9999999/1" value="0" leadInLength="0/1"  />
               <InterpolatingParam id="7171" interp="linr"  time="-9999999/1" value="0" leadInLength="0/1"  />
              </VectorParam>
              <VectorParam id="7172"  name="rotation">
               <InterpolatingParam id="7173" interp="linr"  time="-9999999/1" value="0" leadInLength="0/1"  />
               <InterpolatingParam id="7174" interp="linr"  time="-9999999/1" value="0" leadInLength="0/1"  />
               <InterpolatingParam id="7175" interp="linr"  time="-9999999/1" value="0" leadInLength="0/1"  />
              </VectorParam>
              <VectorParam id="7176"  name="shear">
               <InterpolatingParam id="7177" interp="linr"  time="-9999999/1" value="0" leadInLength="0/1"  />
               <InterpolatingParam id="7178" interp="linr"  time="-9999999/1" value="0" leadInLength="0/1"  />
               <InterpolatingParam id="7179" interp="linr"  time="-9999999/1" value="0" leadInLength="0/1"  />
              </VectorParam>
              <VectorParam id="7180"  name="scale">
               <InterpolatingParam id="7181" interp="linr"  time="-9999999/1" value="1" leadInLength="0/1"  />
               <InterpolatingParam id="7182" interp="linr"  time="-9999999/1" value="1" leadInLength="0/1"  />
               <InterpolatingParam id="7183" interp="linr"  time="-9999999/1" value="1" leadInLength="0/1"  />
              </VectorParam>
              <VectorParam id="7184"  name="anchor">
               <InterpolatingParam id="7185" interp="linr"  time="0/1" value="0" leadInLength="0/1"  />
               <InterpolatingParam id="7186" interp="linr"  time="0/1" value="0" leadInLength="0/1"  />
               <InterpolatingParam id="7187" interp="linr"  time="0/1" value="0" leadInLength="0/1"  />
              </VectorParam>
             </Transformer>
             <Parameters>
              <VectorParam id="7188"  name="sourceCrop">
               <InterpolatingParam id="7189" interp="linr"  time="0/1" value="0" leadInLength="0/1"  />
               <InterpolatingParam id="7190" interp="linr"  time="0/1" value="0" leadInLength="0/1"  />
               <InterpolatingParam id="7191" interp="linr"  time="0/1" value="0" leadInLength="0/1"  />
               <InterpolatingParam id="7192" interp="linr"  time="0/1" value="0" leadInLength="0/1"  />
              </VectorParam>
              <VectorParam id="7193"  name="geometryCrop">
               <InterpolatingParam id="7194" interp="linr"  time="-9999999/1" value="0" leadInLength="0/1"  />
               <InterpolatingParam id="7195" interp="linr"  time="-9999999/1" value="0" leadInLength="0/1"  />
               <InterpolatingParam id="7196" interp="linr"  time="-9999999/1" value="0" leadInLength="0/1"  />
               <InterpolatingParam id="7197" interp="linr"  time="-9999999/1" value="0" leadInLength="0/1"  />
              </VectorParam>
              <InterpolatingParam id="7198" interp="linr"  time="-9999999/1" value="1" leadInLength="0/1"  name="opacity"/>
             </Parameters>
             <Attributes>
              <Attribute id="7199" value="" name="ident"/>
             </Attributes>
             <ExtraData>
              <Entry key="ZoomPanBin">
               <ZoomPanBin id="7200"  >
                <ZoomPanKeyframes>
                </ZoomPanKeyframes>
               </ZoomPanBin>
              </Entry>
             </ExtraData>
            </VMFile>
            <MetaData>
             <entry key="WinSubProjectDisplayName" val=""/>
            </MetaData>
           </UnifiedMedia>
           <UnifiedMedia id="7201"  >
            <AMFile id="7202" start="854" duration="48" scalar="1/1" mediaStart="2025/1" mediaDuration="48/1" trackNumber="2" src="7" channelNumber="0,1" >
             <Parameters>
              <InterpolatingParam id="7203" interp="linr"  time="0/1" value="1" leadInLength="0/1"  name="volume"/>
              <Parameter id="7204"  name="captions"/>
             </Parameters>
             <Attributes>
              <Attribute id="7205" value="" name="ident"/>
              <Attribute id="7206" value="44100" name="sampleRate"/>
              <Attribute id="7207" value="16" name="bitDepth"/>
              <Attribute id="7208" value="1" name="gain"/>
              <Attribute id="7209" value="0" name="mixToMono"/>
             </Attributes>
            </AMFile>
            <VMFile id="7210" start="854" duration="48" scalar="1/1" mediaStart="2025/1" mediaDuration="48/1" trackNumber="1" src="7" >
             <Transformer>
              <VectorParam id="7211"  name="translation">
               <InterpolatingParam id="7212" interp="linr"  time="-9999999/1" value="0" leadInLength="0/1"  />
               <InterpolatingParam id="7213" interp="linr"  time="-9999999/1" value="0" leadInLength="0/1"  />
               <InterpolatingParam id="7214" interp="linr"  time="-9999999/1" value="0" leadInLength="0/1"  />
              </VectorParam>
              <VectorParam id="7215"  name="rotation">
               <InterpolatingParam id="7216" interp="linr"  time="-9999999/1" value="0" leadInLength="0/1"  />
               <InterpolatingParam id="7217" interp="linr"  time="-9999999/1" value="0" leadInLength="0/1"  />
               <InterpolatingParam id="7218" interp="linr"  time="-9999999/1" value="0" leadInLength="0/1"  />
              </VectorParam>
              <VectorParam id="7219"  name="shear">
               <InterpolatingParam id="7220" interp="linr"  time="-9999999/1" value="0" leadInLength="0/1"  />
               <InterpolatingParam id="7221" interp="linr"  time="-9999999/1" value="0" leadInLength="0/1"  />
               <InterpolatingParam id="7222" interp="linr"  time="-9999999/1" value="0" leadInLength="0/1"  />
              </VectorParam>
              <VectorParam id="7223"  name="scale">
               <InterpolatingParam id="7224" interp="linr"  time="-9999999/1" value="1" leadInLength="0/1"  />
               <InterpolatingParam id="7225" interp="linr"  time="-9999999/1" value="1" leadInLength="0/1"  />
               <InterpolatingParam id="7226" interp="linr"  time="-9999999/1" value="1" leadInLength="0/1"  />
              </VectorParam>
              <VectorParam id="7227"  name="anchor">
               <InterpolatingParam id="7228" interp="linr"  time="0/1" value="0" leadInLength="0/1"  />
               <InterpolatingParam id="7229" interp="linr"  time="0/1" value="0" leadInLength="0/1"  />
               <InterpolatingParam id="7230" interp="linr"  time="0/1" value="0" leadInLength="0/1"  />
              </VectorParam>
             </Transformer>
             <Parameters>
              <VectorParam id="7231"  name="sourceCrop">
               <InterpolatingParam id="7232" interp="linr"  time="0/1" value="0" leadInLength="0/1"  />
               <InterpolatingParam id="7233" interp="linr"  time="0/1" value="0" leadInLength="0/1"  />
               <InterpolatingParam id="7234" interp="linr"  time="0/1" value="0" leadInLength="0/1"  />
               <InterpolatingParam id="7235" interp="linr"  time="0/1" value="0" leadInLength="0/1"  />
              </VectorParam>
              <VectorParam id="7236"  name="geometryCrop">
               <InterpolatingParam id="7237" interp="linr"  time="-9999999/1" value="0" leadInLength="0/1"  />
               <InterpolatingParam id="7238" interp="linr"  time="-9999999/1" value="0" leadInLength="0/1"  />
               <InterpolatingParam id="7239" interp="linr"  time="-9999999/1" value="0" leadInLength="0/1"  />
               <InterpolatingParam id="7240" interp="linr"  time="-9999999/1" value="0" leadInLength="0/1"  />
              </VectorParam>
              <InterpolatingParam id="7241" interp="linr"  time="-9999999/1" value="1" leadInLength="0/1"  name="opacity"/>
             </Parameters>
             <Attributes>
              <Attribute id="7242" value="" name="ident"/>
             </Attributes>
             <ExtraData>
              <Entry key="ZoomPanBin">
               <ZoomPanBin id="7243"  >
                <ZoomPanKeyframes>
                </ZoomPanKeyframes>
               </ZoomPanBin>
              </Entry>
             </ExtraData>
            </VMFile>
            <MetaData>
             <entry key="WinSubProjectDisplayName" val=""/>
            </MetaData>
           </UnifiedMedia>
           <UnifiedMedia id="7244"  >
            <AMFile id="7245" start="902" duration="3330" scalar="1/1" mediaStart="2081/1" mediaDuration="3330/1" trackNumber="2" src="7" channelNumber="0,1" >
             <Parameters>
              <InterpolatingParam id="7246" interp="linr"  time="0/1" value="1" leadInLength="0/1"  name="volume"/>
              <Parameter id="7247"  name="captions"/>
             </Parameters>
             <Attributes>
              <Attribute id="7248" value="" name="ident"/>
              <Attribute id="7249" value="44100" name="sampleRate"/>
              <Attribute id="7250" value="16" name="bitDepth"/>
              <Attribute id="7251" value="1" name="gain"/>
              <Attribute id="7252" value="0" name="mixToMono"/>
             </Attributes>
            </AMFile>
            <VMFile id="7253" start="902" duration="3330" scalar="1/1" mediaStart="2081/1" mediaDuration="3330/1" trackNumber="1" src="7" >
             <Transformer>
              <VectorParam id="7254"  name="translation">
               <InterpolatingParam id="7255" interp="linr"  time="-9999999/1" value="0" leadInLength="0/1"  />
               <InterpolatingParam id="7256" interp="linr"  time="-9999999/1" value="0" leadInLength="0/1"  />
               <InterpolatingParam id="7257" interp="linr"  time="-9999999/1" value="0" leadInLength="0/1"  />
              </VectorParam>
              <VectorParam id="7258"  name="rotation">
               <InterpolatingParam id="7259" interp="linr"  time="-9999999/1" value="0" leadInLength="0/1"  />
               <InterpolatingParam id="7260" interp="linr"  time="-9999999/1" value="0" leadInLength="0/1"  />
               <InterpolatingParam id="7261" interp="linr"  time="-9999999/1" value="0" leadInLength="0/1"  />
              </VectorParam>
              <VectorParam id="7262"  name="shear">
               <InterpolatingParam id="7263" interp="linr"  time="-9999999/1" value="0" leadInLength="0/1"  />
               <InterpolatingParam id="7264" interp="linr"  time="-9999999/1" value="0" leadInLength="0/1"  />
               <InterpolatingParam id="7265" interp="linr"  time="-9999999/1" value="0" leadInLength="0/1"  />
              </VectorParam>
              <VectorParam id="7266"  name="scale">
               <InterpolatingParam id="7267" interp="linr"  time="-9999999/1" value="1" leadInLength="0/1"  />
               <InterpolatingParam id="7268" interp="linr"  time="-9999999/1" value="1" leadInLength="0/1"  />
               <InterpolatingParam id="7269" interp="linr"  time="-9999999/1" value="1" leadInLength="0/1"  />
              </VectorParam>
              <VectorParam id="7270"  name="anchor">
               <InterpolatingParam id="7271" interp="linr"  time="0/1" value="0" leadInLength="0/1"  />
               <InterpolatingParam id="7272" interp="linr"  time="0/1" value="0" leadInLength="0/1"  />
               <InterpolatingParam id="7273" interp="linr"  time="0/1" value="0" leadInLength="0/1"  />
              </VectorParam>
             </Transformer>
             <Parameters>
              <VectorParam id="7274"  name="sourceCrop">
               <InterpolatingParam id="7275" interp="linr"  time="0/1" value="0" leadInLength="0/1"  />
               <InterpolatingParam id="7276" interp="linr"  time="0/1" value="0" leadInLength="0/1"  />
               <InterpolatingParam id="7277" interp="linr"  time="0/1" value="0" leadInLength="0/1"  />
               <InterpolatingParam id="7278" interp="linr"  time="0/1" value="0" leadInLength="0/1"  />
              </VectorParam>
              <VectorParam id="7279"  name="geometryCrop">
               <InterpolatingParam id="7280" interp="linr"  time="-9999999/1" value="0" leadInLength="0/1"  />
               <InterpolatingParam id="7281" interp="linr"  time="-9999999/1" value="0" leadInLength="0/1"  />
               <InterpolatingParam id="7282" interp="linr"  time="-9999999/1" value="0" leadInLength="0/1"  />
               <InterpolatingParam id="7283" interp="linr"  time="-9999999/1" value="0" leadInLength="0/1"  />
              </VectorParam>
              <InterpolatingParam id="7284" interp="linr"  time="-9999999/1" value="1" leadInLength="0/1"  name="opacity"/>
             </Parameters>
             <Attributes>
              <Attribute id="7285" value="" name="ident"/>
             </Attributes>
             <ExtraData>
              <Entry key="ZoomPanBin">
               <ZoomPanBin id="7286"  >
                <ZoomPanKeyframes>
                </ZoomPanKeyframes>
               </ZoomPanBin>
              </Entry>
             </ExtraData>
            </VMFile>
            <MetaData>
             <entry key="WinSubProjectDisplayName" val=""/>
            </MetaData>
           </UnifiedMedia>
          </Medias>
         </GenericTrack>
        </StitchedMedia>
        <StitchedMedia id="7287" start="5998" duration="643" scalar="1/1" mediaStart="3920/1" mediaDuration="643/1" minMediaStart="0/1" >
         <Transformer>
          <VectorParam id="7288"  name="translation">
           <InterpolatingParam id="7289" interp="linr"  time="-9999999/1" value="2.351980542259525" leadInLength="0/1"  interpolater="leadin-linr"  />
           <InterpolatingParam id="7290" interp="linr"  time="-9999999/1" value="-20.389694966472462" leadInLength="0/1"  interpolater="leadin-linr"  />
           <InterpolatingParam id="7291" interp="linr"  time="-9999999/1" value="0" leadInLength="0/1"  interpolater="leadin-linr"  />
          </VectorParam>
          <VectorParam id="7292"  name="rotation">
           <InterpolatingParam id="7293" interp="linr"  time="-9999999/1" value="0" leadInLength="0/1"  interpolater="leadin-linr"  />
           <InterpolatingParam id="7294" interp="linr"  time="-9999999/1" value="0" leadInLength="0/1"  interpolater="leadin-linr"  />
           <InterpolatingParam id="7295" interp="linr"  time="-9999999/1" value="0" leadInLength="0/1"  interpolater="leadin-linr"  />
          </VectorParam>
          <VectorParam id="7296"  name="shear">
           <InterpolatingParam id="7297" interp="linr"  time="-9999999/1" value="0" leadInLength="0/1"  interpolater="leadin-linr"  />
           <InterpolatingParam id="7298" interp="linr"  time="-9999999/1" value="0" leadInLength="0/1"  interpolater="leadin-linr"  />
           <InterpolatingParam id="7299" interp="linr"  time="-9999999/1" value="0" leadInLength="0/1"  interpolater="leadin-linr"  />
          </VectorParam>
          <VectorParam id="7300"  name="scale">
           <InterpolatingParam id="7301" interp="linr"  time="-9999999/1" value="0.81992655026808048" leadInLength="0/1"  interpolater="leadin-linr"  />
           <InterpolatingParam id="7302" interp="linr"  time="-9999999/1" value="0.81992650567664316" leadInLength="0/1"  interpolater="leadin-linr"  />
           <InterpolatingParam id="7303" interp="linr"  time="-9999999/1" value="0.99999999999999967" leadInLength="0/1"  interpolater="leadin-linr"  />
          </VectorParam>
          <VectorParam id="7304"  name="anchor">
           <InterpolatingParam id="7305" interp="linr"  time="0/1" value="0" leadInLength="0/1"  />
           <InterpolatingParam id="7306" interp="linr"  time="0/1" value="0" leadInLength="0/1"  />
           <InterpolatingParam id="7307" interp="linr"  time="0/1" value="0" leadInLength="0/1"  />
          </VectorParam>
         </Transformer>
         <Parameters>
          <VectorParam id="7308"  name="sourceCrop">
           <InterpolatingParam id="7309" interp="linr"  time="0/1" value="0" leadInLength="0/1"  />
           <InterpolatingParam id="7310" interp="linr"  time="0/1" value="0" leadInLength="0/1"  />
           <InterpolatingParam id="7311" interp="linr"  time="0/1" value="0" leadInLength="0/1"  />
           <InterpolatingParam id="7312" interp="linr"  time="0/1" value="0" leadInLength="0/1"  />
          </VectorParam>
          <VectorParam id="7313"  name="geometryCrop">
           <InterpolatingParam id="7314" interp="linr"  time="-9999999/1" value="57.370517928546917" leadInLength="0/1"  interpolater="leadin-linr"  />
           <InterpolatingParam id="7315" interp="linr"  time="-9999999/1" value="0" leadInLength="0/1"  interpolater="leadin-linr"  />
           <InterpolatingParam id="7316" interp="linr"  time="-9999999/1" value="63.107569720944866" leadInLength="0/1"  interpolater="leadin-linr"  />
           <InterpolatingParam id="7317" interp="linr"  time="-9999999/1" value="91.792833677383953" leadInLength="0/1"  interpolater="leadin-linr"  />
          </VectorParam>
          <InterpolatingParam id="7318" interp="linr"  time="-9999999/1" value="1" leadInLength="0/1"  interpolater="leadin-linr"  name="opacity"/>
          <InterpolatingParam id="7319" interp="linr"  time="0/1" value="1" leadInLength="0/1"  name="cursorOpacity"/>
          <InterpolatingParam id="7320" interp="linr"  time="0/1" value="1" leadInLength="0/1"  name="cursorScale"/>
          <InterpolatingParam id="7321" interp="linr"  name="volume">
           <Keyframes>
           <Keyframe id="7322"  time="0/1" value="1" leadInLength="0/1"  />
           <Keyframe id="7323"  time="3920/1" value="1" leadInLength="0/1"  />
           </Keyframes>
          </InterpolatingParam>
          <Parameter id="7324"  name="captions"/>
         </Parameters>
         <Effects>
          <GenericEffect id="7325" name = "WinCompression" >
           <Parameters>
           <InterpolatingParam id="7326" interp="linr"  time="0/1" value="0" leadInLength="0/1"   name="attack"/>
           <InterpolatingParam id="7327" interp="linr"  time="0/1" value="9" leadInLength="0/1"   name="gain"/>
           <Parameter id="7328"   name="preset">
            <Keyframes>
            <Keyframe id="7329"  time="0/1" value="1" leadInLength="0/1"  />
            </Keyframes>
           </Parameter>
           <InterpolatingParam id="7330" interp="linr"  time="0/1" value="10" leadInLength="0/1"   name="ratio"/>
           <InterpolatingParam id="7331" interp="linr"  time="0/1" value="3500" leadInLength="0/1"   name="release"/>
           <InterpolatingParam id="7332" interp="linr"  time="0/1" value="-20" leadInLength="0/1"   name="threshold"/>
           </Parameters>
           <MetaData>
            <entry key="effectIndex" val="0"/>
           </MetaData>
          </GenericEffect>
          <GenericEffect id="7333" name = "NoiseReduction" >
           <Parameters>
           <InterpolatingParam id="7334" interp="linr"  time="0/1" value="27.599999999999998" leadInLength="0/1"   name="denoiserAmount"/>
           <InterpolatingParam id="7335" interp="linr"  time="0/1" value="2.2799999999999994" leadInLength="0/1"   name="denoiserThreshold"/>
           <Parameter id="7336"   name="noiseProfile">
            <Keyframes>
            <Keyframe id="7337"  time="0/1" value="FBAAAAIAAABErAAAAQIAANLxa8JxKVHC/flNwjBKS8JfAUbCDDVEwhiAScJKkkzCb/BKwiwpTcKV&#xD;&#xa;Tk7CRxNRwnR5YMKTC2jC0eFlwkITa8LPem3CKJt0wshvcMI4sGrC6xxrwkVbbML1YWLCMZBdwndS&#xD;&#xa;ZMJoKWjCzrhuwgLfdMK6V3PCac13wgSad8I3+njCInp9wmzjecKZGHjC1At6whIGfcJqG3zCzyF/&#xD;&#xa;wgVYgsKYnYDCHEKAwsl1gsJJP4TCMnqFwukFhsIg64bCZPqFwurvh8L9VIrCVhSJwu43isLt+IzC&#xD;&#xa;gF2MwjbPjMKjVY3C3sCLwicMisJ+RonCbOONwpe9kMK6i5LCQgyVwo6OlcLSupXCG36Xwh/HmcKB&#xD;&#xa;SprCp9uYwhqkmMIEupnCLUeYws3AmMJ+xZrC0cubwkcGmcK2+ZjCAI+awrd4nMKA1Z3CuK6ewngf&#xD;&#xa;nsIGmJ7CoN2gwsbCo8In+6PCHA6lwsfXpMKv1qXC6Gynws/3p8KtfqbC0ielwhe5psJXBKnCjzOo&#xD;&#xa;wmhHp8KHEKfCslynwkFWqMLIFqvCTWOtwqRKrcKy7avC+iCtwpO/rsIo+q3CSMmvwoFEr8IIDa3C&#xD;&#xa;2PavwowDssKlQbLCDJOxwjxKsMIoE6zCRqCrwgoLsMJ9fK/Cl8WxwhtvssKXdbLCM1SzwjD5ssK6&#xD;&#xa;O7HCoHG0wg9jtcLKzLPCDh6zwuDls8IykbTC0lCzwqofs8KDeLTCKDS2wpWVtsJIC7bCn1W1wiYV&#xD;&#xa;tsJc7bTCule2wi7ZuMJDFrfC/NO1wudYucKNU7rCmVm3wiJ5tcIFj7fC/uq3whDjtsI40rXCjGa4&#xD;&#xa;wou9t8I6v7fCa0O5wqzMucLTK7vC4K66wmclt8Ky77XCnqS3wugcucKStrjCIPG5wu8pu8LA8LrC&#xD;&#xa;l5m4wmKIuMIYv7jCcKK6whpcvMKOGr3CfWe8whbausKYbbvC7qm8wgTjvsL+N8DCXtq9woR+u8Lw&#xD;&#xa;BL3CGg++wrZhvMJ0WLzCDJ+9wsZLvMJGkbvCFnG8wk6ju8K41brC3pm6wnJCvsKSScHCu1nAwkCk&#xD;&#xa;vsIoEL3CpGK8wnjqvsJoc77CGli+wpCjv8IQ1r7CUKi9wqkxv8JqmcDCM3zAwnvFwMIlH7/C2I+/&#xD;&#xa;wuSYwMI+qb/CYLrAwmY5wsIcjMPCeMrCwjb5v8JooL/CQs7BwkDqwsKi7cPCQrPEwtgFxcIUdsPC&#xD;&#xa;dm3CwiirwcKQ38HCZUbDwlqyw8IAg8HC6hjAwr5Av8JuPL3C8Gi9wqhowcIAJ8TCzwHEwu5gwsLo&#xD;&#xa;QMLCx+7AwrvywsJ+LMXC8ljEwvZdxMLkcsXCym3HwuP3xcJa0cTCMsbEwo4jxMIcO8LCytvAwmjH&#xD;&#xa;w8KZJcXCV0fEwiIFwMKaCcDCu9TCwihjxcKUE8fCqL3EwmeIxMLzjcXCDf3FwpJ8xcIU0cTC/4vG&#xD;&#xa;wnYgyMK4o8XCUjPFwggexcJI38TCvKXEwsypxcKEoMbCTBTGwpFYxMIOS8LCWs2+wtChvcII5MLC&#xD;&#xa;BDbFwqwlxsI9bsXCavnGwj0bxcJMhcXCnB3GwvEVxcKzSsXCkgDFwjYpxML60cLCALPFwm0Fx8LW&#xD;&#xa;H8TCCErEwpEOyMKEf8bCQsHIwusjycIML8LCX3y+wsW7w8LgpsTCzgbFwhYCx8IZMcbC/VXEwmYS&#xD;&#xa;xcLeTMfC69XFwrb1xMJCCsbC4BTGwgZ0xMIQtMbCLCHHwp5WxsKwm8XCnwDFwtVwxML8VsfC9OLJ&#xD;&#xa;wnp0xsLqM8PC8ErGwkR9xsKrgcbCMIjFwgDOxMI05cXC7/zEwkbtxcJ2MsXCtHDEwhBKxcJCx8PC&#xD;&#xa;8LDDwuETxsKYaMfC+I3IwmkIycKQvsjC4/HFwpf0x8LS/MnC3BXIwuA2x8J8QcfCMmrEwrmKx8IQ&#xD;&#xa;UtDCSqHiwoYi9sJClfjC4qH4wkpt+MJGEPjC+pn5wjj898KRGfbCFQj4woCc98Iat/XCfEn0wqjK&#xD;&#xa;9cITxPXC2sf2wqyH9sID/PbCmJH2wvci+MJWRvjC2I/3wmju98LGpfbCHIH1wk7O9sK0mfXC1v30&#xD;&#xa;wvjD98KkWPjCShn3wsQt98JOyvjCyLL3wg4t98LuP/bCfar0wutu9cKfOfXC3pb1wsQR9sIWvPfC&#xD;&#xa;FvP3wmZe9sJc/PTCK4H1wujJ9MJaAPbCRrb3wibL98JCavjCUtj3wuZa98IHmvfCJMT2wlAk9sJ2&#xD;&#xa;+/XCbKX2wstj9sKOVvbCFSX2woTc9sIeFvfCN//2woFG98LiIvbC8uj2wilz9sLCV/fC/BX3wlqC&#xD;&#xa;9cL6LPfCGRr4wghL+MI3R/jCQDP5wpTj98K7tPfC5MP3wnzU9sIAN/jC5hj3wlRq98IcuffCkOT2&#xD;&#xa;wjTv9cKLb/bCTej2wr6s98KYCfnCeJL6wvay+cKiwvbCOYf3wuLe98KuSvXCSIL3wuBq+sKoi/nC&#xD;&#xa;CPr5wgSG+cJiIvjC/Yz3wm3E98LQTPjCQpb4whi0+cJy8/jCAGL5wgJH+cI24fnCrNj5ws3398Jk&#xD;&#xa;wPjCfGf5wndL+MIjdPfC9O31wk7M9sLwzfXCneX0wuRu98IW6fnCPET6wiQf+MLlOffCedb3wgRF&#xD;&#xa;+MJQXvfCaDf2wh8v+MJwMfrCJPz5wjZ6+cIes/fC2T/2wlGw98KiMfjCNJ/4wjq2+MLC7PnC0zf4&#xD;&#xa;wkxJ+MKpjPfC+6/2wpw0+MLgMPjC8kf4wuA0+MIKM/rCYn36wkxy+sKuA/nC5cn2wmgs+cJM7PrC&#xD;&#xa;pCr5wthp+MKu8/bCGHYBw1rxa8KEKVHCDvtNwj9LS8JSAUbCLDREwth/ScK2kkzCoPBKwgopTcLC&#xD;&#xa;TU7ChBJRwrp5YMImDGjCM+JlwrESa8Joe23CEJx0wrNwcMLbsWrClh1rwhtbbMKgYWLC7JBdwkRT&#xD;&#xa;ZMKNKWjCcLpuws/gdMLTVnPCrst3wsWXd8LA+XjC2Ht9wr7kecJuGnjCAAt6wo0EfcJ0G3zCfCN/&#xD;&#xa;wpFZgsK1nIDCFUKAwrp0gsI0PoTCCHmFwqYFhsLJ64bCVvyFwqzwh8JiU4rCmxOJwnY4isKi+YzC&#xD;&#xa;xVyMwvXMjMLCVY3CdMGLwloLisKWRInCauKNwm+9kMLqi5LCihCVwq2QlcLeuJXCO32XwibFmcL1&#xD;&#xa;SJrCqt6YwtaomMIEtpnCKkWYwoy9mMLmxJrCZsybwv8KmcIG/pjCSY2awiZ7nMLO1J3CK6iewk8c&#xD;&#xa;nsKemZ7CCtugwsLBo8Ia+aPCewqlwqvUpMJd16XConKnwh3/p8KyhKbCtSSlwkOypsLMA6nCbDio&#xD;&#xa;wvdHp8IYFafClEunwpdQqMKQEavCrnCtwhRfrcL2DazCElutwjDnrsIdCa7C2smvwqxhr8L0Nq3C&#xD;&#xa;VCawwvwpssIXRrLCLGexwqBAsMKTLqzCvterwvA4sMIEsq/C2h6ywjENs8LlELPCcDS0wmRgs8Kc&#xD;&#xa;FbHCKVG0wvSxtcLwMbTC6oSzwrAGtMLKwrTCLbOzwiORs8LGvLTCsry2wgDUtsICPrbCJpm1wrcm&#xD;&#xa;tsLNs7TCCDq2wmI4ucIxmLfCXyG2whyMucJqk7rC8tK3wrM+tsJpQrjCB2e4wlI9t8JbV7bCAAe5&#xD;&#xa;wjYVuML9IbjCW325wjLtucIwIbvC57a6wuHMt8KaL7bC7Wq3wgNvucLGkLnCyPe6wsBiu8IKkbrC&#xD;&#xa;fyG4wveLuMKgKrnCqMa6wsqHvMKM/LzCGIm8wqLdusKIaLvCLFW8wnYRv8JcZ8DCBNG9wm8yvMIY&#xD;&#xa;3L3Clm6+whTXvMLSzLzC9Ny9wrStvMK+jbvCzYm8wpIevML1SLvCev26wq51vsL7i8HCWBTBwt6d&#xD;&#xa;v8Kmpb3COB29whhcv8KOq77CI2O+wjfiv8LKLb/CKKS+wkDFv8J2IsHC3pXAwr9uwMI0yr7CkqK/&#xD;&#xa;wmY6wcLA0MDCDfbAwtrtwcIcdsPCJf7CwjgvwMJz+r/CeR3Cwm5IwsI7ZsPCrXbFwlQ5xcIMHsPC&#xD;&#xa;OvTCwhohwsLCzcHCIBnDwssYw8IlfcHCmqLAwnPHv8JoS73C+Fi9wh6TwcIgycPCCJXDwtNLw8LY&#xD;&#xa;asPCklTBwnL7wsJCJMXClnbEwiBoxMLwU8XCsVHHwvTnxcJ2BMXCi7fEwrwexMISLMLCttrAwi+/&#xD;&#xa;w8J6V8XCIHnEwqzsv8Lo4r/CpNXCwqi/xcKOX8fCIqjEwlVJxMJaScXCvtfFwuJ2xcIu0MTC7orG&#xD;&#xa;wnxWyML6tcXC4BfFwmQ+xcJ2NcXCFMbEwre7xcLCrMbCdiDGwiaFxMIjaMLC4dG+wq+TvcKErMLC&#xD;&#xa;hR7FwoI9xsJBs8XCvhrHwqgzxcLcpMXC8AXGwsAexcIKacXCBwrFwqgnxMIe4MLCIMDFwkoJx8K+&#xD;&#xa;HcTCLh3EwnzAx8L4KsbCl5DIwiTzyMIQO8LCiKe+wnvew8LhxsTCNuPEwgL/xsIHb8bCRmTEwpDl&#xD;&#xa;xMIyFMfCpLPFwlfWxMJo7cXCfBPGwnqgxMKr3MbC+SjHwuh+xsIkzMXCogLFwvh4xMIaWMfC667J&#xD;&#xa;whIUxsLA+cLCvCTGwvJExsJ+WsbCbKDFwsTtxMKcu8XClsXEwvCvxcKCEsXChoPEwoZwxcJGysPC&#xD;&#xa;CKjDwqQnxsKor8fCNWzIwhSzyML0jMjCrN7FwqzEx8KeC8rCdOrHwr0dx8LaZMfCJlTEwtCox8Ic&#xD;&#xa;39DCThvjwoAT9sLyn/bCaO/1wsjA9sL2RPjCrIf4winV9sIO5fTCZMj0wj+g9MI6dPXC6j74wmRl&#xD;&#xa;+sLiRfjCZL33ws7r9sLASvbCliz5wqTi+MIo4PjC0BX6wqyJ+cKNQ/jCiFb4whCB98L2SfjCLKP4&#xD;&#xa;wgg6+cLOr/jCFO32wq6z+MIYZfnCDGX5woYK+MIeHPbCJJn2wnoF9sJQTPbCkzn2wj6H9sJIBvnC&#xD;&#xa;3/P3wkUd+MLu+vjCZHj3wpqa9sIQLffC4C76wuw298IQDPbCj+v3wlbd+MJm5fjC9Cn3wrGs9sL4&#xD;&#xa;tfbChvb2wtYk98I9JvfCzFz4wrxr+sJ4ufnCNlz4woog98K34fbCOEn5wuKT+sJWSPfCFGz2wvG4&#xD;&#xa;9sJY7/fCcA73wm6V98IOlvnC5AD7wvTH+cKAn/fC1tz3wnTB9cK8mPbCxiz3wn5s+MKqZ/nCTm/4&#xD;&#xa;whN998K8q/fCkBL3wtCf98L+WPfCqi73wt8K98Kr//XCIhf2wh/i9cKeAvbCk/b3wpAR9sLszfXC&#xD;&#xa;4Rn3wg5R+MLS6PfCCMb5wvA++sJUyPnCwh76wt4P+cKY/vbCaJf3wuN19sLDm/TCFKz0wr6Q9sJU&#xD;&#xa;svfC/Mf5wl66+MKArPjC9nz5wmQC+sI2pfnCDrr3wqI298KRPPjC3kH5wjTV+MIS0PfCKAn4wnB7&#xD;&#xa;+MKGcvfCiAD4woC3+MKaNPjC/TT4wpIu+cKAjfrCCkv6wrJj+MIOyPjCFnD5wmj/98JONfnCNEv7&#xD;&#xa;wsqC+cLg1/jCqn/4wmqz98JcTfjCG4j2wmYd+MLuT/nCzHf5wmbj+sL45PnCQqD4wlZ8+MKkG/bC&#xD;&#xa;Vp70woJT9sLScPfCF+UC" leadInLength="0/1"  />
            </Keyframes>
           </Parameter>
           </Parameters>
           <MetaData>
            <entry key="effectIndex" val="1"/>
           </MetaData>
          </GenericEffect>
         </Effects>
         <Attributes>
          <Attribute id="7338" value="" name="ident"/>
          <Attribute id="7339" value="0" name="mixToMono"/>
         </Attributes>
         <MetaData>
          <entry key="WinSubProjectDisplayName" val=""/>
         </MetaData>
         <ExtraData>
          <Entry key="ZoomPanBin">
           <ZoomPanBin id="7340"  >
            <ZoomPanKeyframes>
             <ZoomPanKeyframe id="7341" timeRangeEnd="-9999999/1" timeRangeDuration="0/1" interpolaterName="linr"  />
            </ZoomPanKeyframes>
           </ZoomPanBin>
          </Entry>
          <Entry key="CursorEffectBin">
           <CursorEffectBin id="7342"  >
            <CursorEffectKeyframes>
            </CursorEffectKeyframes>
           </CursorEffectBin>
          </Entry>
         </ExtraData>
         <GenericTrack id="7343"  >
          <Attributes>
           <Attribute id="7344" value="" name="ident"/>
           <Attribute id="7345" value="0" name="audioMuted"/>
           <Attribute id="7346" value="0" name="videoHidden"/>
          </Attributes>
          <MetaData>
           <entry key="IsLocked" val="False"/>
           <entry key="WinTrackHeight" val="0"/>
          </MetaData>
          <Medias>
           <UnifiedMedia id="7347"  >
            <AMFile id="7348" start="0" duration="4060" scalar="1/1" mediaStart="0/1" mediaDuration="4060/1" trackNumber="2" src="7" channelNumber="0,1" >
             <Parameters>
              <InterpolatingParam id="7349" interp="linr"  time="0/1" value="1" leadInLength="0/1"  name="volume"/>
              <Parameter id="7350"  name="captions"/>
             </Parameters>
             <Attributes>
              <Attribute id="7351" value="" name="ident"/>
              <Attribute id="7352" value="44100" name="sampleRate"/>
              <Attribute id="7353" value="16" name="bitDepth"/>
              <Attribute id="7354" value="1" name="gain"/>
              <Attribute id="7355" value="0" name="mixToMono"/>
             </Attributes>
            </AMFile>
            <VMFile id="7356" start="0" duration="4060" scalar="1/1" mediaStart="0/1" mediaDuration="4060/1" trackNumber="1" src="7" >
             <Transformer>
              <VectorParam id="7357"  name="translation">
               <InterpolatingParam id="7358" interp="linr"  time="-9999999/1" value="0" leadInLength="0/1"  />
               <InterpolatingParam id="7359" interp="linr"  time="-9999999/1" value="0" leadInLength="0/1"  />
               <InterpolatingParam id="7360" interp="linr"  time="-9999999/1" value="0" leadInLength="0/1"  />
              </VectorParam>
              <VectorParam id="7361"  name="rotation">
               <InterpolatingParam id="7362" interp="linr"  time="-9999999/1" value="0" leadInLength="0/1"  />
               <InterpolatingParam id="7363" interp="linr"  time="-9999999/1" value="0" leadInLength="0/1"  />
               <InterpolatingParam id="7364" interp="linr"  time="-9999999/1" value="0" leadInLength="0/1"  />
              </VectorParam>
              <VectorParam id="7365"  name="shear">
               <InterpolatingParam id="7366" interp="linr"  time="-9999999/1" value="0" leadInLength="0/1"  />
               <InterpolatingParam id="7367" interp="linr"  time="-9999999/1" value="0" leadInLength="0/1"  />
               <InterpolatingParam id="7368" interp="linr"  time="-9999999/1" value="0" leadInLength="0/1"  />
              </VectorParam>
              <VectorParam id="7369"  name="scale">
               <InterpolatingParam id="7370" interp="linr"  time="-9999999/1" value="1" leadInLength="0/1"  />
               <InterpolatingParam id="7371" interp="linr"  time="-9999999/1" value="1" leadInLength="0/1"  />
               <InterpolatingParam id="7372" interp="linr"  time="-9999999/1" value="1" leadInLength="0/1"  />
              </VectorParam>
              <VectorParam id="7373"  name="anchor">
               <InterpolatingParam id="7374" interp="linr"  time="0/1" value="0" leadInLength="0/1"  />
               <InterpolatingParam id="7375" interp="linr"  time="0/1" value="0" leadInLength="0/1"  />
               <InterpolatingParam id="7376" interp="linr"  time="0/1" value="0" leadInLength="0/1"  />
              </VectorParam>
             </Transformer>
             <Parameters>
              <VectorParam id="7377"  name="sourceCrop">
               <InterpolatingParam id="7378" interp="linr"  time="0/1" value="0" leadInLength="0/1"  />
               <InterpolatingParam id="7379" interp="linr"  time="0/1" value="0" leadInLength="0/1"  />
               <InterpolatingParam id="7380" interp="linr"  time="0/1" value="0" leadInLength="0/1"  />
               <InterpolatingParam id="7381" interp="linr"  time="0/1" value="0" leadInLength="0/1"  />
              </VectorParam>
              <VectorParam id="7382"  name="geometryCrop">
               <InterpolatingParam id="7383" interp="linr"  time="-9999999/1" value="0" leadInLength="0/1"  />
               <InterpolatingParam id="7384" interp="linr"  time="-9999999/1" value="0" leadInLength="0/1"  />
               <InterpolatingParam id="7385" interp="linr"  time="-9999999/1" value="0" leadInLength="0/1"  />
               <InterpolatingParam id="7386" interp="linr"  time="-9999999/1" value="0" leadInLength="0/1"  />
              </VectorParam>
              <InterpolatingParam id="7387" interp="linr"  time="-9999999/1" value="1" leadInLength="0/1"  name="opacity"/>
             </Parameters>
             <Attributes>
              <Attribute id="7388" value="" name="ident"/>
             </Attributes>
             <ExtraData>
              <Entry key="ZoomPanBin">
               <ZoomPanBin id="7389"  >
                <ZoomPanKeyframes>
                </ZoomPanKeyframes>
               </ZoomPanBin>
              </Entry>
             </ExtraData>
            </VMFile>
            <MetaData>
             <entry key="WinSubProjectDisplayName" val=""/>
            </MetaData>
           </UnifiedMedia>
           <UnifiedMedia id="7390"  >
            <AMFile id="7391" start="4060" duration="220" scalar="1/1" mediaStart="4411/1" mediaDuration="220/1" trackNumber="2" src="7" channelNumber="0,1" >
             <Parameters>
              <InterpolatingParam id="7392" interp="linr"  time="0/1" value="1" leadInLength="0/1"  name="volume"/>
              <Parameter id="7393"  name="captions"/>
             </Parameters>
             <Attributes>
              <Attribute id="7394" value="" name="ident"/>
              <Attribute id="7395" value="44100" name="sampleRate"/>
              <Attribute id="7396" value="16" name="bitDepth"/>
              <Attribute id="7397" value="1" name="gain"/>
              <Attribute id="7398" value="0" name="mixToMono"/>
             </Attributes>
            </AMFile>
            <VMFile id="7399" start="4060" duration="220" scalar="1/1" mediaStart="4411/1" mediaDuration="220/1" trackNumber="1" src="7" >
             <Transformer>
              <VectorParam id="7400"  name="translation">
               <InterpolatingParam id="7401" interp="linr"  time="-9999999/1" value="0" leadInLength="0/1"  />
               <InterpolatingParam id="7402" interp="linr"  time="-9999999/1" value="0" leadInLength="0/1"  />
               <InterpolatingParam id="7403" interp="linr"  time="-9999999/1" value="0" leadInLength="0/1"  />
              </VectorParam>
              <VectorParam id="7404"  name="rotation">
               <InterpolatingParam id="7405" interp="linr"  time="-9999999/1" value="0" leadInLength="0/1"  />
               <InterpolatingParam id="7406" interp="linr"  time="-9999999/1" value="0" leadInLength="0/1"  />
               <InterpolatingParam id="7407" interp="linr"  time="-9999999/1" value="0" leadInLength="0/1"  />
              </VectorParam>
              <VectorParam id="7408"  name="shear">
               <InterpolatingParam id="7409" interp="linr"  time="-9999999/1" value="0" leadInLength="0/1"  />
               <InterpolatingParam id="7410" interp="linr"  time="-9999999/1" value="0" leadInLength="0/1"  />
               <InterpolatingParam id="7411" interp="linr"  time="-9999999/1" value="0" leadInLength="0/1"  />
              </VectorParam>
              <VectorParam id="7412"  name="scale">
               <InterpolatingParam id="7413" interp="linr"  time="-9999999/1" value="1" leadInLength="0/1"  />
               <InterpolatingParam id="7414" interp="linr"  time="-9999999/1" value="1" leadInLength="0/1"  />
               <InterpolatingParam id="7415" interp="linr"  time="-9999999/1" value="1" leadInLength="0/1"  />
              </VectorParam>
              <VectorParam id="7416"  name="anchor">
               <InterpolatingParam id="7417" interp="linr"  time="0/1" value="0" leadInLength="0/1"  />
               <InterpolatingParam id="7418" interp="linr"  time="0/1" value="0" leadInLength="0/1"  />
               <InterpolatingParam id="7419" interp="linr"  time="0/1" value="0" leadInLength="0/1"  />
              </VectorParam>
             </Transformer>
             <Parameters>
              <VectorParam id="7420"  name="sourceCrop">
               <InterpolatingParam id="7421" interp="linr"  time="0/1" value="0" leadInLength="0/1"  />
               <InterpolatingParam id="7422" interp="linr"  time="0/1" value="0" leadInLength="0/1"  />
               <InterpolatingParam id="7423" interp="linr"  time="0/1" value="0" leadInLength="0/1"  />
               <InterpolatingParam id="7424" interp="linr"  time="0/1" value="0" leadInLength="0/1"  />
              </VectorParam>
              <VectorParam id="7425"  name="geometryCrop">
               <InterpolatingParam id="7426" interp="linr"  time="-9999999/1" value="0" leadInLength="0/1"  />
               <InterpolatingParam id="7427" interp="linr"  time="-9999999/1" value="0" leadInLength="0/1"  />
               <InterpolatingParam id="7428" interp="linr"  time="-9999999/1" value="0" leadInLength="0/1"  />
               <InterpolatingParam id="7429" interp="linr"  time="-9999999/1" value="0" leadInLength="0/1"  />
              </VectorParam>
              <InterpolatingParam id="7430" interp="linr"  time="-9999999/1" value="1" leadInLength="0/1"  name="opacity"/>
             </Parameters>
             <Attributes>
              <Attribute id="7431" value="" name="ident"/>
             </Attributes>
             <ExtraData>
              <Entry key="ZoomPanBin">
               <ZoomPanBin id="7432"  >
                <ZoomPanKeyframes>
                </ZoomPanKeyframes>
               </ZoomPanBin>
              </Entry>
             </ExtraData>
            </VMFile>
            <MetaData>
             <entry key="WinSubProjectDisplayName" val=""/>
            </MetaData>
           </UnifiedMedia>
           <UnifiedMedia id="7433"  >
            <AMFile id="7434" start="4280" duration="161" scalar="1/1" mediaStart="4650/1" mediaDuration="161/1" trackNumber="2" src="7" channelNumber="0,1" >
             <Parameters>
              <InterpolatingParam id="7435" interp="linr"  time="0/1" value="1" leadInLength="0/1"  name="volume"/>
              <Parameter id="7436"  name="captions"/>
             </Parameters>
             <Attributes>
              <Attribute id="7437" value="" name="ident"/>
              <Attribute id="7438" value="44100" name="sampleRate"/>
              <Attribute id="7439" value="16" name="bitDepth"/>
              <Attribute id="7440" value="1" name="gain"/>
              <Attribute id="7441" value="0" name="mixToMono"/>
             </Attributes>
            </AMFile>
            <VMFile id="7442" start="4280" duration="161" scalar="1/1" mediaStart="4650/1" mediaDuration="161/1" trackNumber="1" src="7" >
             <Transformer>
              <VectorParam id="7443"  name="translation">
               <InterpolatingParam id="7444" interp="linr"  time="-9999999/1" value="0" leadInLength="0/1"  />
               <InterpolatingParam id="7445" interp="linr"  time="-9999999/1" value="0" leadInLength="0/1"  />
               <InterpolatingParam id="7446" interp="linr"  time="-9999999/1" value="0" leadInLength="0/1"  />
              </VectorParam>
              <VectorParam id="7447"  name="rotation">
               <InterpolatingParam id="7448" interp="linr"  time="-9999999/1" value="0" leadInLength="0/1"  />
               <InterpolatingParam id="7449" interp="linr"  time="-9999999/1" value="0" leadInLength="0/1"  />
               <InterpolatingParam id="7450" interp="linr"  time="-9999999/1" value="0" leadInLength="0/1"  />
              </VectorParam>
              <VectorParam id="7451"  name="shear">
               <InterpolatingParam id="7452" interp="linr"  time="-9999999/1" value="0" leadInLength="0/1"  />
               <InterpolatingParam id="7453" interp="linr"  time="-9999999/1" value="0" leadInLength="0/1"  />
               <InterpolatingParam id="7454" interp="linr"  time="-9999999/1" value="0" leadInLength="0/1"  />
              </VectorParam>
              <VectorParam id="7455"  name="scale">
               <InterpolatingParam id="7456" interp="linr"  time="-9999999/1" value="1" leadInLength="0/1"  />
               <InterpolatingParam id="7457" interp="linr"  time="-9999999/1" value="1" leadInLength="0/1"  />
               <InterpolatingParam id="7458" interp="linr"  time="-9999999/1" value="1" leadInLength="0/1"  />
              </VectorParam>
              <VectorParam id="7459"  name="anchor">
               <InterpolatingParam id="7460" interp="linr"  time="0/1" value="0" leadInLength="0/1"  />
               <InterpolatingParam id="7461" interp="linr"  time="0/1" value="0" leadInLength="0/1"  />
               <InterpolatingParam id="7462" interp="linr"  time="0/1" value="0" leadInLength="0/1"  />
              </VectorParam>
             </Transformer>
             <Parameters>
              <VectorParam id="7463"  name="sourceCrop">
               <InterpolatingParam id="7464" interp="linr"  time="0/1" value="0" leadInLength="0/1"  />
               <InterpolatingParam id="7465" interp="linr"  time="0/1" value="0" leadInLength="0/1"  />
               <InterpolatingParam id="7466" interp="linr"  time="0/1" value="0" leadInLength="0/1"  />
               <InterpolatingParam id="7467" interp="linr"  time="0/1" value="0" leadInLength="0/1"  />
              </VectorParam>
              <VectorParam id="7468"  name="geometryCrop">
               <InterpolatingParam id="7469" interp="linr"  time="-9999999/1" value="0" leadInLength="0/1"  />
               <InterpolatingParam id="7470" interp="linr"  time="-9999999/1" value="0" leadInLength="0/1"  />
               <InterpolatingParam id="7471" interp="linr"  time="-9999999/1" value="0" leadInLength="0/1"  />
               <InterpolatingParam id="7472" interp="linr"  time="-9999999/1" value="0" leadInLength="0/1"  />
              </VectorParam>
              <InterpolatingParam id="7473" interp="linr"  time="-9999999/1" value="1" leadInLength="0/1"  name="opacity"/>
             </Parameters>
             <Attributes>
              <Attribute id="7474" value="" name="ident"/>
             </Attributes>
             <ExtraData>
              <Entry key="ZoomPanBin">
               <ZoomPanBin id="7475"  >
                <ZoomPanKeyframes>
                </ZoomPanKeyframes>
               </ZoomPanBin>
              </Entry>
             </ExtraData>
            </VMFile>
            <MetaData>
             <entry key="WinSubProjectDisplayName" val=""/>
            </MetaData>
           </UnifiedMedia>
           <UnifiedMedia id="7476"  >
            <AMFile id="7477" start="4441" duration="87" scalar="1/1" mediaStart="4823/1" mediaDuration="87/1" trackNumber="2" src="7" channelNumber="0,1" >
             <Parameters>
              <InterpolatingParam id="7478" interp="linr"  time="0/1" value="1" leadInLength="0/1"  name="volume"/>
              <Parameter id="7479"  name="captions"/>
             </Parameters>
             <Attributes>
              <Attribute id="7480" value="" name="ident"/>
              <Attribute id="7481" value="44100" name="sampleRate"/>
              <Attribute id="7482" value="16" name="bitDepth"/>
              <Attribute id="7483" value="1" name="gain"/>
              <Attribute id="7484" value="0" name="mixToMono"/>
             </Attributes>
            </AMFile>
            <VMFile id="7485" start="4441" duration="87" scalar="1/1" mediaStart="4823/1" mediaDuration="87/1" trackNumber="1" src="7" >
             <Transformer>
              <VectorParam id="7486"  name="translation">
               <InterpolatingParam id="7487" interp="linr"  time="-9999999/1" value="0" leadInLength="0/1"  />
               <InterpolatingParam id="7488" interp="linr"  time="-9999999/1" value="0" leadInLength="0/1"  />
               <InterpolatingParam id="7489" interp="linr"  time="-9999999/1" value="0" leadInLength="0/1"  />
              </VectorParam>
              <VectorParam id="7490"  name="rotation">
               <InterpolatingParam id="7491" interp="linr"  time="-9999999/1" value="0" leadInLength="0/1"  />
               <InterpolatingParam id="7492" interp="linr"  time="-9999999/1" value="0" leadInLength="0/1"  />
               <InterpolatingParam id="7493" interp="linr"  time="-9999999/1" value="0" leadInLength="0/1"  />
              </VectorParam>
              <VectorParam id="7494"  name="shear">
               <InterpolatingParam id="7495" interp="linr"  time="-9999999/1" value="0" leadInLength="0/1"  />
               <InterpolatingParam id="7496" interp="linr"  time="-9999999/1" value="0" leadInLength="0/1"  />
               <InterpolatingParam id="7497" interp="linr"  time="-9999999/1" value="0" leadInLength="0/1"  />
              </VectorParam>
              <VectorParam id="7498"  name="scale">
               <InterpolatingParam id="7499" interp="linr"  time="-9999999/1" value="1" leadInLength="0/1"  />
               <InterpolatingParam id="7500" interp="linr"  time="-9999999/1" value="1" leadInLength="0/1"  />
               <InterpolatingParam id="7501" interp="linr"  time="-9999999/1" value="1" leadInLength="0/1"  />
              </VectorParam>
              <VectorParam id="7502"  name="anchor">
               <InterpolatingParam id="7503" interp="linr"  time="0/1" value="0" leadInLength="0/1"  />
               <InterpolatingParam id="7504" interp="linr"  time="0/1" value="0" leadInLength="0/1"  />
               <InterpolatingParam id="7505" interp="linr"  time="0/1" value="0" leadInLength="0/1"  />
              </VectorParam>
             </Transformer>
             <Parameters>
              <VectorParam id="7506"  name="sourceCrop">
               <InterpolatingParam id="7507" interp="linr"  time="0/1" value="0" leadInLength="0/1"  />
               <InterpolatingParam id="7508" interp="linr"  time="0/1" value="0" leadInLength="0/1"  />
               <InterpolatingParam id="7509" interp="linr"  time="0/1" value="0" leadInLength="0/1"  />
               <InterpolatingParam id="7510" interp="linr"  time="0/1" value="0" leadInLength="0/1"  />
              </VectorParam>
              <VectorParam id="7511"  name="geometryCrop">
               <InterpolatingParam id="7512" interp="linr"  time="-9999999/1" value="0" leadInLength="0/1"  />
               <InterpolatingParam id="7513" interp="linr"  time="-9999999/1" value="0" leadInLength="0/1"  />
               <InterpolatingParam id="7514" interp="linr"  time="-9999999/1" value="0" leadInLength="0/1"  />
               <InterpolatingParam id="7515" interp="linr"  time="-9999999/1" value="0" leadInLength="0/1"  />
              </VectorParam>
              <InterpolatingParam id="7516" interp="linr"  time="-9999999/1" value="1" leadInLength="0/1"  name="opacity"/>
             </Parameters>
             <Attributes>
              <Attribute id="7517" value="" name="ident"/>
             </Attributes>
             <ExtraData>
              <Entry key="ZoomPanBin">
               <ZoomPanBin id="7518"  >
                <ZoomPanKeyframes>
                </ZoomPanKeyframes>
               </ZoomPanBin>
              </Entry>
             </ExtraData>
            </VMFile>
            <MetaData>
             <entry key="WinSubProjectDisplayName" val=""/>
            </MetaData>
           </UnifiedMedia>
           <UnifiedMedia id="7519"  >
            <AMFile id="7520" start="4528" duration="17" scalar="1/1" mediaStart="4935/1" mediaDuration="17/1" trackNumber="2" src="7" channelNumber="0,1" >
             <Parameters>
              <InterpolatingParam id="7521" interp="linr"  time="0/1" value="1" leadInLength="0/1"  name="volume"/>
              <Parameter id="7522"  name="captions"/>
             </Parameters>
             <Attributes>
              <Attribute id="7523" value="" name="ident"/>
              <Attribute id="7524" value="44100" name="sampleRate"/>
              <Attribute id="7525" value="16" name="bitDepth"/>
              <Attribute id="7526" value="1" name="gain"/>
              <Attribute id="7527" value="0" name="mixToMono"/>
             </Attributes>
            </AMFile>
            <VMFile id="7528" start="4528" duration="17" scalar="1/1" mediaStart="4935/1" mediaDuration="17/1" trackNumber="1" src="7" >
             <Transformer>
              <VectorParam id="7529"  name="translation">
               <InterpolatingParam id="7530" interp="linr"  time="-9999999/1" value="0" leadInLength="0/1"  />
               <InterpolatingParam id="7531" interp="linr"  time="-9999999/1" value="0" leadInLength="0/1"  />
               <InterpolatingParam id="7532" interp="linr"  time="-9999999/1" value="0" leadInLength="0/1"  />
              </VectorParam>
              <VectorParam id="7533"  name="rotation">
               <InterpolatingParam id="7534" interp="linr"  time="-9999999/1" value="0" leadInLength="0/1"  />
               <InterpolatingParam id="7535" interp="linr"  time="-9999999/1" value="0" leadInLength="0/1"  />
               <InterpolatingParam id="7536" interp="linr"  time="-9999999/1" value="0" leadInLength="0/1"  />
              </VectorParam>
              <VectorParam id="7537"  name="shear">
               <InterpolatingParam id="7538" interp="linr"  time="-9999999/1" value="0" leadInLength="0/1"  />
               <InterpolatingParam id="7539" interp="linr"  time="-9999999/1" value="0" leadInLength="0/1"  />
               <InterpolatingParam id="7540" interp="linr"  time="-9999999/1" value="0" leadInLength="0/1"  />
              </VectorParam>
              <VectorParam id="7541"  name="scale">
               <InterpolatingParam id="7542" interp="linr"  time="-9999999/1" value="1" leadInLength="0/1"  />
               <InterpolatingParam id="7543" interp="linr"  time="-9999999/1" value="1" leadInLength="0/1"  />
               <InterpolatingParam id="7544" interp="linr"  time="-9999999/1" value="1" leadInLength="0/1"  />
              </VectorParam>
              <VectorParam id="7545"  name="anchor">
               <InterpolatingParam id="7546" interp="linr"  time="0/1" value="0" leadInLength="0/1"  />
               <InterpolatingParam id="7547" interp="linr"  time="0/1" value="0" leadInLength="0/1"  />
               <InterpolatingParam id="7548" interp="linr"  time="0/1" value="0" leadInLength="0/1"  />
              </VectorParam>
             </Transformer>
             <Parameters>
              <VectorParam id="7549"  name="sourceCrop">
               <InterpolatingParam id="7550" interp="linr"  time="0/1" value="0" leadInLength="0/1"  />
               <InterpolatingParam id="7551" interp="linr"  time="0/1" value="0" leadInLength="0/1"  />
               <InterpolatingParam id="7552" interp="linr"  time="0/1" value="0" leadInLength="0/1"  />
               <InterpolatingParam id="7553" interp="linr"  time="0/1" value="0" leadInLength="0/1"  />
              </VectorParam>
              <VectorParam id="7554"  name="geometryCrop">
               <InterpolatingParam id="7555" interp="linr"  time="-9999999/1" value="0" leadInLength="0/1"  />
               <InterpolatingParam id="7556" interp="linr"  time="-9999999/1" value="0" leadInLength="0/1"  />
               <InterpolatingParam id="7557" interp="linr"  time="-9999999/1" value="0" leadInLength="0/1"  />
               <InterpolatingParam id="7558" interp="linr"  time="-9999999/1" value="0" leadInLength="0/1"  />
              </VectorParam>
              <InterpolatingParam id="7559" interp="linr"  time="-9999999/1" value="1" leadInLength="0/1"  name="opacity"/>
             </Parameters>
             <Attributes>
              <Attribute id="7560" value="" name="ident"/>
             </Attributes>
             <ExtraData>
              <Entry key="ZoomPanBin">
               <ZoomPanBin id="7561"  >
                <ZoomPanKeyframes>
                </ZoomPanKeyframes>
               </ZoomPanBin>
              </Entry>
             </ExtraData>
            </VMFile>
            <MetaData>
             <entry key="WinSubProjectDisplayName" val=""/>
            </MetaData>
           </UnifiedMedia>
           <UnifiedMedia id="7562"  >
            <AMFile id="7563" start="4545" duration="452" scalar="1/1" mediaStart="4959/1" mediaDuration="452/1" trackNumber="2" src="7" channelNumber="0,1" >
             <Parameters>
              <InterpolatingParam id="7564" interp="linr"  time="0/1" value="1" leadInLength="0/1"  name="volume"/>
              <Parameter id="7565"  name="captions"/>
             </Parameters>
             <Attributes>
              <Attribute id="7566" value="" name="ident"/>
              <Attribute id="7567" value="44100" name="sampleRate"/>
              <Attribute id="7568" value="16" name="bitDepth"/>
              <Attribute id="7569" value="1" name="gain"/>
              <Attribute id="7570" value="0" name="mixToMono"/>
             </Attributes>
            </AMFile>
            <VMFile id="7571" start="4545" duration="452" scalar="1/1" mediaStart="4959/1" mediaDuration="452/1" trackNumber="1" src="7" >
             <Transformer>
              <VectorParam id="7572"  name="translation">
               <InterpolatingParam id="7573" interp="linr"  time="-9999999/1" value="0" leadInLength="0/1"  />
               <InterpolatingParam id="7574" interp="linr"  time="-9999999/1" value="0" leadInLength="0/1"  />
               <InterpolatingParam id="7575" interp="linr"  time="-9999999/1" value="0" leadInLength="0/1"  />
              </VectorParam>
              <VectorParam id="7576"  name="rotation">
               <InterpolatingParam id="7577" interp="linr"  time="-9999999/1" value="0" leadInLength="0/1"  />
               <InterpolatingParam id="7578" interp="linr"  time="-9999999/1" value="0" leadInLength="0/1"  />
               <InterpolatingParam id="7579" interp="linr"  time="-9999999/1" value="0" leadInLength="0/1"  />
              </VectorParam>
              <VectorParam id="7580"  name="shear">
               <InterpolatingParam id="7581" interp="linr"  time="-9999999/1" value="0" leadInLength="0/1"  />
               <InterpolatingParam id="7582" interp="linr"  time="-9999999/1" value="0" leadInLength="0/1"  />
               <InterpolatingParam id="7583" interp="linr"  time="-9999999/1" value="0" leadInLength="0/1"  />
              </VectorParam>
              <VectorParam id="7584"  name="scale">
               <InterpolatingParam id="7585" interp="linr"  time="-9999999/1" value="1" leadInLength="0/1"  />
               <InterpolatingParam id="7586" interp="linr"  time="-9999999/1" value="1" leadInLength="0/1"  />
               <InterpolatingParam id="7587" interp="linr"  time="-9999999/1" value="1" leadInLength="0/1"  />
              </VectorParam>
              <VectorParam id="7588"  name="anchor">
               <InterpolatingParam id="7589" interp="linr"  time="0/1" value="0" leadInLength="0/1"  />
               <InterpolatingParam id="7590" interp="linr"  time="0/1" value="0" leadInLength="0/1"  />
               <InterpolatingParam id="7591" interp="linr"  time="0/1" value="0" leadInLength="0/1"  />
              </VectorParam>
             </Transformer>
             <Parameters>
              <VectorParam id="7592"  name="sourceCrop">
               <InterpolatingParam id="7593" interp="linr"  time="0/1" value="0" leadInLength="0/1"  />
               <InterpolatingParam id="7594" interp="linr"  time="0/1" value="0" leadInLength="0/1"  />
               <InterpolatingParam id="7595" interp="linr"  time="0/1" value="0" leadInLength="0/1"  />
               <InterpolatingParam id="7596" interp="linr"  time="0/1" value="0" leadInLength="0/1"  />
              </VectorParam>
              <VectorParam id="7597"  name="geometryCrop">
               <InterpolatingParam id="7598" interp="linr"  time="-9999999/1" value="0" leadInLength="0/1"  />
               <InterpolatingParam id="7599" interp="linr"  time="-9999999/1" value="0" leadInLength="0/1"  />
               <InterpolatingParam id="7600" interp="linr"  time="-9999999/1" value="0" leadInLength="0/1"  />
               <InterpolatingParam id="7601" interp="linr"  time="-9999999/1" value="0" leadInLength="0/1"  />
              </VectorParam>
              <InterpolatingParam id="7602" interp="linr"  time="-9999999/1" value="1" leadInLength="0/1"  name="opacity"/>
             </Parameters>
             <Attributes>
              <Attribute id="7603" value="" name="ident"/>
             </Attributes>
             <ExtraData>
              <Entry key="ZoomPanBin">
               <ZoomPanBin id="7604"  >
                <ZoomPanKeyframes>
                </ZoomPanKeyframes>
               </ZoomPanBin>
              </Entry>
             </ExtraData>
            </VMFile>
            <MetaData>
             <entry key="WinSubProjectDisplayName" val=""/>
            </MetaData>
           </UnifiedMedia>
          </Medias>
         </GenericTrack>
        </StitchedMedia>
       </Medias>
      </GenericTrack>
      <GenericTrack id="7605"  >
       <Attributes>
        <Attribute id="7606" value="" name="ident"/>
        <Attribute id="7607" value="0" name="audioMuted"/>
        <Attribute id="7608" value="0" name="videoHidden"/>
       </Attributes>
       <MetaData>
        <entry key="IsLocked" val="False"/>
        <entry key="WinTrackHeight" val="62"/>
       </MetaData>
       <Medias>
        <StitchedMedia id="7609" start="4" duration="818" scalar="1/1" mediaStart="668/1" mediaDuration="818/1" minMediaStart="0/1" >
         <Transformer>
          <VectorParam id="7610"  name="translation">
           <InterpolatingParam id="7611" interp="linr"  >
            <Keyframes>
            <Keyframe id="7612"  time="-9999999/1" value="-61.304330560911751" leadInLength="0/1"  />
            <Keyframe id="7613"  time="942/1" value="330.88368525045399" leadInLength="15/1"  interpolater="leadin-linr"  />
            <Keyframe id="7614"  time="945/1" value="333.20930232515025" leadInLength="3/1"  interpolater="leadin-linr"  />
            <Keyframe id="7615"  time="1250/1" value="533.96612601759352" leadInLength="30/1"  interpolater="leadin-linr"  />
            </Keyframes>
           </InterpolatingParam>
           <InterpolatingParam id="7616" interp="linr"  >
            <Keyframes>
            <Keyframe id="7617"  time="-9999999/1" value="-103.11755174870272" leadInLength="0/1"  />
            <Keyframe id="7618"  time="942/1" value="-162.45941195481566" leadInLength="15/1"  interpolater="leadin-linr"  />
            <Keyframe id="7619"  time="945/1" value="-170.21254516803666" leadInLength="3/1"  interpolater="leadin-linr"  />
            <Keyframe id="7620"  time="1250/1" value="-302.82408178153281" leadInLength="30/1"  interpolater="leadin-linr"  />
            </Keyframes>
           </InterpolatingParam>
           <InterpolatingParam id="7621" interp="linr"  >
            <Keyframes>
            <Keyframe id="7622"  time="-9999999/1" value="3.4106051316482886e-010" leadInLength="0/1"  />
            <Keyframe id="7623"  time="942/1" value="1.7053025658241443e-010" leadInLength="15/1"  interpolater="leadin-linr"  />
            <Keyframe id="7624"  time="945/1" value="0" leadInLength="3/1"  interpolater="leadin-linr"  />
            <Keyframe id="7625"  time="1250/1" value="0" leadInLength="30/1"  interpolater="leadin-linr"  />
            </Keyframes>
           </InterpolatingParam>
          </VectorParam>
          <VectorParam id="7626"  name="rotation">
           <InterpolatingParam id="7627" interp="linr"  >
            <Keyframes>
            <Keyframe id="7628"  time="-9999999/1" value="0" leadInLength="0/1"  />
            <Keyframe id="7629"  time="942/1" value="0" leadInLength="15/1"  interpolater="leadin-linr"  />
            <Keyframe id="7630"  time="945/1" value="0" leadInLength="3/1"  interpolater="leadin-linr"  />
            <Keyframe id="7631"  time="1250/1" value="0" leadInLength="30/1"  interpolater="leadin-linr"  />
            </Keyframes>
           </InterpolatingParam>
           <InterpolatingParam id="7632" interp="linr"  >
            <Keyframes>
            <Keyframe id="7633"  time="-9999999/1" value="0" leadInLength="0/1"  />
            <Keyframe id="7634"  time="942/1" value="0" leadInLength="15/1"  interpolater="leadin-linr"  />
            <Keyframe id="7635"  time="945/1" value="0" leadInLength="3/1"  interpolater="leadin-linr"  />
            <Keyframe id="7636"  time="1250/1" value="0" leadInLength="30/1"  interpolater="leadin-linr"  />
            </Keyframes>
           </InterpolatingParam>
           <InterpolatingParam id="7637" interp="linr"  >
            <Keyframes>
            <Keyframe id="7638"  time="-9999999/1" value="0" leadInLength="0/1"  />
            <Keyframe id="7639"  time="942/1" value="0" leadInLength="15/1"  interpolater="leadin-linr"  />
            <Keyframe id="7640"  time="945/1" value="0" leadInLength="3/1"  interpolater="leadin-linr"  />
            <Keyframe id="7641"  time="1250/1" value="0" leadInLength="30/1"  interpolater="leadin-linr"  />
            </Keyframes>
           </InterpolatingParam>
          </VectorParam>
          <VectorParam id="7642"  name="shear">
           <InterpolatingParam id="7643" interp="linr"  >
            <Keyframes>
            <Keyframe id="7644"  time="-9999999/1" value="0" leadInLength="0/1"  />
            <Keyframe id="7645"  time="942/1" value="0" leadInLength="15/1"  interpolater="leadin-linr"  />
            <Keyframe id="7646"  time="945/1" value="0" leadInLength="3/1"  interpolater="leadin-linr"  />
            <Keyframe id="7647"  time="1250/1" value="0" leadInLength="30/1"  interpolater="leadin-linr"  />
            </Keyframes>
           </InterpolatingParam>
           <InterpolatingParam id="7648" interp="linr"  >
            <Keyframes>
            <Keyframe id="7649"  time="-9999999/1" value="0" leadInLength="0/1"  />
            <Keyframe id="7650"  time="942/1" value="0" leadInLength="15/1"  interpolater="leadin-linr"  />
            <Keyframe id="7651"  time="945/1" value="0" leadInLength="3/1"  interpolater="leadin-linr"  />
            <Keyframe id="7652"  time="1250/1" value="0" leadInLength="30/1"  interpolater="leadin-linr"  />
            </Keyframes>
           </InterpolatingParam>
           <InterpolatingParam id="7653" interp="linr"  >
            <Keyframes>
            <Keyframe id="7654"  time="-9999999/1" value="0" leadInLength="0/1"  />
            <Keyframe id="7655"  time="942/1" value="0" leadInLength="15/1"  interpolater="leadin-linr"  />
            <Keyframe id="7656"  time="945/1" value="0" leadInLength="3/1"  interpolater="leadin-linr"  />
            <Keyframe id="7657"  time="1250/1" value="0" leadInLength="30/1"  interpolater="leadin-linr"  />
            </Keyframes>
           </InterpolatingParam>
          </VectorParam>
          <VectorParam id="7658"  name="scale">
           <InterpolatingParam id="7659" interp="linr"  >
            <Keyframes>
            <Keyframe id="7660"  time="-9999999/1" value="1.0163639318205533" leadInLength="0/1"  />
            <Keyframe id="7661"  time="942/1" value="1.1297820670228367" leadInLength="15/1"  interpolater="leadin-linr"  />
            <Keyframe id="7662"  time="945/1" value="1.0837209302332342" leadInLength="3/1"  interpolater="leadin-linr"  />
            <Keyframe id="7663"  time="1250/1" value="0.51874374539704649" leadInLength="30/1"  interpolater="leadin-linr"  />
            </Keyframes>
           </InterpolatingParam>
           <InterpolatingParam id="7664" interp="linr"  >
            <Keyframes>
            <Keyframe id="7665"  time="-9999999/1" value="1.0163639318205528" leadInLength="0/1"  />
            <Keyframe id="7666"  time="942/1" value="1.1297820670228367" leadInLength="15/1"  interpolater="leadin-linr"  />
            <Keyframe id="7667"  time="945/1" value="1.0837209302332342" leadInLength="3/1"  interpolater="leadin-linr"  />
            <Keyframe id="7668"  time="1250/1" value="0.51874374539704615" leadInLength="30/1"  interpolater="leadin-linr"  />
            </Keyframes>
           </InterpolatingParam>
           <InterpolatingParam id="7669" interp="linr"  >
            <Keyframes>
            <Keyframe id="7670"  time="-9999999/1" value="1" leadInLength="0/1"  />
            <Keyframe id="7671"  time="942/1" value="1" leadInLength="15/1"  interpolater="leadin-linr"  />
            <Keyframe id="7672"  time="945/1" value="1" leadInLength="3/1"  interpolater="leadin-linr"  />
            <Keyframe id="7673"  time="1250/1" value="1" leadInLength="30/1"  interpolater="leadin-linr"  />
            </Keyframes>
           </InterpolatingParam>
          </VectorParam>
          <VectorParam id="7674"  name="anchor">
           <InterpolatingParam id="7675" interp="linr"  time="0/1" value="0" leadInLength="0/1"  />
           <InterpolatingParam id="7676" interp="linr"  time="0/1" value="0" leadInLength="0/1"  />
           <InterpolatingParam id="7677" interp="linr"  time="0/1" value="0" leadInLength="0/1"  />
          </VectorParam>
         </Transformer>
         <Parameters>
          <VectorParam id="7678"  name="sourceCrop">
           <InterpolatingParam id="7679" interp="linr"  time="0/1" value="0" leadInLength="0/1"  />
           <InterpolatingParam id="7680" interp="linr"  time="0/1" value="0" leadInLength="0/1"  />
           <InterpolatingParam id="7681" interp="linr"  time="0/1" value="0" leadInLength="0/1"  />
           <InterpolatingParam id="7682" interp="linr"  time="0/1" value="0" leadInLength="0/1"  />
          </VectorParam>
          <VectorParam id="7683"  name="geometryCrop">
           <InterpolatingParam id="7684" interp="linr"  >
            <Keyframes>
            <Keyframe id="7685"  time="-9999999/1" value="96.776943580678591" leadInLength="0/1"  />
            <Keyframe id="7686"  time="942/1" value="76.842894443138235" leadInLength="15/1"  interpolater="leadin-linr"  />
            <Keyframe id="7687"  time="945/1" value="56.908845305597879" leadInLength="3/1"  interpolater="leadin-linr"  />
            <Keyframe id="7688"  time="1250/1" value="127.18436839557856" leadInLength="30/1"  interpolater="leadin-linr"  />
            </Keyframes>
           </InterpolatingParam>
           <InterpolatingParam id="7689" interp="linr"  >
            <Keyframes>
            <Keyframe id="7690"  time="-9999999/1" value="33.432035055240618" leadInLength="0/1"  />
            <Keyframe id="7691"  time="942/1" value="16.716017527620309" leadInLength="15/1"  interpolater="leadin-linr"  />
            <Keyframe id="7692"  time="945/1" value="0" leadInLength="3/1"  interpolater="leadin-linr"  />
            <Keyframe id="7693"  time="1250/1" value="44.899777282215524" leadInLength="30/1"  interpolater="leadin-linr"  />
            </Keyframes>
           </InterpolatingParam>
           <InterpolatingParam id="7694" interp="linr"  >
            <Keyframes>
            <Keyframe id="7695"  time="-9999999/1" value="21.114969508961678" leadInLength="0/1"  />
            <Keyframe id="7696"  time="942/1" value="23.130369182297528" leadInLength="15/1"  interpolater="leadin-linr"  />
            <Keyframe id="7697"  time="945/1" value="25.145768855633378" leadInLength="3/1"  interpolater="leadin-linr"  />
            <Keyframe id="7698"  time="1250/1" value="38.485523385680665" leadInLength="30/1"  interpolater="leadin-linr"  />
            </Keyframes>
           </InterpolatingParam>
           <InterpolatingParam id="7699" interp="linr"  >
            <Keyframes>
            <Keyframe id="7700"  time="-9999999/1" value="68.844621513751576" leadInLength="0/1"  />
            <Keyframe id="7701"  time="942/1" value="68.844621513848423" leadInLength="15/1"  interpolater="leadin-linr"  />
            <Keyframe id="7702"  time="945/1" value="68.84462151394527" leadInLength="3/1"  interpolater="leadin-linr"  />
            <Keyframe id="7703"  time="1250/1" value="129.78003354106232" leadInLength="30/1"  interpolater="leadin-linr"  />
            </Keyframes>
           </InterpolatingParam>
          </VectorParam>
          <InterpolatingParam id="7704" interp="linr"  name="opacity">
           <Keyframes>
           <Keyframe id="7705"  time="-9999999/1" value="1" leadInLength="0/1"  />
           <Keyframe id="7706"  time="942/1" value="1" leadInLength="15/1"  interpolater="leadin-linr"  />
           <Keyframe id="7707"  time="945/1" value="1" leadInLength="3/1"  interpolater="leadin-linr"  />
           <Keyframe id="7708"  time="1250/1" value="1" leadInLength="30/1"  interpolater="leadin-linr"  />
           </Keyframes>
          </InterpolatingParam>
          <InterpolatingParam id="7709" interp="linr"  time="0/1" value="1" leadInLength="0/1"  name="cursorOpacity"/>
          <InterpolatingParam id="7710" interp="linr"  time="0/1" value="1" leadInLength="0/1"  name="cursorScale"/>
          <InterpolatingParam id="7711" interp="linr"  time="0/1" value="1" leadInLength="0/1"  name="volume"/>
          <Parameter id="7712"  name="captions"/>
         </Parameters>
         <Effects>
          <GenericEffect id="7713" name = "NoiseReduction" >
           <Parameters>
           <InterpolatingParam id="7714" interp="linr"  time="0/1" value="27.599999999999998" leadInLength="0/1"   name="denoiserAmount"/>
           <InterpolatingParam id="7715" interp="linr"  time="0/1" value="2.2799999999999994" leadInLength="0/1"   name="denoiserThreshold"/>
           <Parameter id="7716"   name="noiseProfile">
            <Keyframes>
            <Keyframe id="7717"  time="0/1" value="FBAAAAIAAABErAAAAQIAAIuAXcLAdUXCbhhQwkNiWMLGrkPCYbw9wi4HRMLyc0rC3rVLwvgvUMJy&#xD;&#xa;0VDCdNhPwsHtVcKAul7CQJJhwmbgaMLs42zCuXRzwhY0cMJuBm3CqOtswksGb8KlYGnClIdkwu1L&#xD;&#xa;Z8IxRmrCbghuwk/pc8JLP3DCTRtvwq15d8K+v3PCijJuwl/8csKvYXzCKR17wtxTcMLkkXHCgXV4&#xD;&#xa;wvi4fML8BoHCp51+wstvf8JdBYPCaOOBwhD7fsLQwn7CsjiCwh4xgsKxRYPC2PSEwoY4hcLtQ4bC&#xD;&#xa;OhaIwiC+hcLB6YTCfd+Gwt2hicK/mInCw+qHwl2TisJxBYzCDaGJwtK8iMLtFIrCd2uLwrenjMKI&#xD;&#xa;+o3CG8qQwnquj8KcLI/C4O+RwgNSk8Jws5LCDwOVwiS7lsIZ6JbCBtSWwgkvlsKHmpPC1hSTwkar&#xD;&#xa;ksIL7JXCmD6ZwsB0mMK8Y5nCuAaXwk9/lMJjjJXC1zGXwmvClcLrWJbCdN6YwkGvm8K3+ZzCasGa&#xD;&#xa;wtq8m8KwMKDCqv+gws5BnsINL5/CwDykwiSxpMLo76LCCtmhwmbfocIaTaPC2Jmjwi5OocI6/6HC&#xD;&#xa;38OlwhH8o8IkJKPCeRGkwg7ZpcJar6nCyU6pwnmuq8Il6qjCSuuowue/p8KnWKjCVTuqwsaqrcKF&#xD;&#xa;+q3CF6aswmq/rcLhnazCeGetwkXsrsJ/sq7CfAWswvY5q8KUXq7CgnutwsanrcIOlLDCvnyuwtzw&#xD;&#xa;q8JxPavCj+itwo5ErsJLhqzCJwauwlzkq8KfUazC4tqvwlOYs8Ks57HCzqCwwuCGr8Ihs6zCj1us&#xD;&#xa;wgyNrMKyT6/C1VKtwtmeq8IC4qvCNqCrwniFqsK+V6vCGCiswkQ8qsI9fKzCB4CwwnZirsIqEqzC&#xD;&#xa;uwauwmImrcKmLq/CrcqwwtLirsLqRrDCstmuwvbksMJim7LCagywwhzLssL6yLTCxj+zwnl9s8IP&#xD;&#xa;VrPCsE2ywhaPssLk4bXCPqSywrCFssL+xbTCNjy0wnbYtMJYR7fCGMS0wk9ZtMLdX7jCCj22wn8s&#xD;&#xa;s8IYFbXCumi2wvjUt8J9aLbCwOi0wmuitsJN8LTCFrG3wukwuMIcxbnC0D27wpqevML+zbvCZj67&#xD;&#xa;wrrAu8JyebrCeJW4wp7SuMISprrCfPK6wmhhusJpTbrCXVu8wvTmvMIQQb7Ckr+8wsgxu8LMPbzC&#xD;&#xa;jFy/wtD+wcKyb73Cane8woCOv8IGtMPCDqHBwkMwvcJ+GrvCkn6+wpU9wcKOQMDC0BzAwvi/vsLC&#xD;&#xa;nMDCeq3CwtkHwsK5pMLC4tXAwrZOwMJk1MHCMMa/wm6ivsKIXMDCrly+woAyvsIZLsDCwdDBwgZI&#xD;&#xa;w8IYS8LC8UXBwok+u8KAmLvCGjPAwvLavcJ5g8DClp/FwuyixMISscDCRkC+wkjnv8L988LCLcjB&#xD;&#xa;wmmLwMIFTMLC+mzCwnx3wsIIhcTC0ZvGwpZ/xcJO+7/CJP+/wkcBwcJAUcDCLLq8woigu8JQoMDC&#xD;&#xa;BxjCwmz0wMIobsTC3OHHwrrww8JilL/CVVK+wqNWwcKwtr/Cw3S/wlGBwMJyUL3CSny6wqQwu8Jf&#xD;&#xa;K7zC5sq/wm5dwcJhLb/CaOzAwr+jxcJE8cLCH6G+wpYTwcJglsTCvU7DwtaZxMJlp8TCGbbAwrqy&#xD;&#xa;wMJSa8XCpabHwjCMxMIgLMPCYnnBwhu4xcJsQMbClkLDwlwew8JkN8XCScjFwnCEwsIhPMPCFIHF&#xD;&#xa;wvTZxcLAcsLCLvfDwrTvwsLum8PCD6vCwkJlw8IMcMbCe17HwgouyMKPisXClnPGwsIXx8LNcMjC&#xD;&#xa;ws/Iwrgex8JrjcbCDhLGwlVcw8I0EcPC0t3DwnedxMKoMMTCatjFwgwhxsJ+2MXCirTGwvq+xsI7&#xD;&#xa;sc3C51DgwoYc68IIzevC2Hnqwnxb6sKYQO/CNivwwioS7MLYKOfC1s3mwrAV6MLSNeXCR5zlwoG6&#xD;&#xa;7MLOQ/HCp3buwtVD88ImyvXCgPn2wo0h98L38PXCuSP4wnw8+cLGbPfC2ID4wjTQ+cI8/vfCmPn4&#xD;&#xa;wrqT9sJGHPXCDvj2wiJW9sJ44fjCzr35woZH98LiR/fCrkz5wicY+MIEUvbC4jP5wqjG+sJgevvC&#xD;&#xa;vCz5woR29cI+mPXCBPL1wnza98LykvvCIOn4wsov98JgLPjCs/n1wsCn9cIA9/jChMf4wtQz+sIa&#xD;&#xa;y/vCst/6wuYE+cIYt/fCJTv2wlIJ98JccffCFiP3wgbi98I4x/jCosX3wkp59cIGIPfC6jP3wvb4&#xD;&#xa;+MKo7/jCljj4wpi1+cLQIfnCxmf2wmZQ98JYiPvCRJb4wpoU+cJSB/rCsDr5wszq+cLCWfvCYv35&#xD;&#xa;wrTH+MKgQfjC6EX2wo6P9sISHPbCggv3wuLg+MLvZ/fCYm30wtYh9sLP//TCPOHywqYY9cJYGPXC&#xD;&#xa;RH73wpw9+sJUwPnCQGf5wv75+MLWMPjCxJ/6wm7N+MKk+vbCjPz3wsi798IaUfrCtHv6wnaU+ML+&#xD;&#xa;7PfC6mb3wmwB9cIdTfjCTGL4wsJt98Jwg/bCruz1wqb99cLG//XCIHP1wsCJ98LMOPjC1IP4wmBL&#xD;&#xa;+cL0mfnC/IH1wmZL9cKgEPfCVJn5wtYO+MI9EfjCw0z3wjJj98LKYPnCiOj5wioy9sJGv/PCJp/3&#xD;&#xa;wmRX+MKUW/bCUPj2wqqB98IOEPfC9DT4wnZi+MJ+V/fCrAX4wgZ++MKGlvfCYjj3wjhC+cIM3vXC&#xD;&#xa;+r71wgYa+cIQSPrCZiMEw7aAXcL0dUXCbhhQwlRiWMKyrkPCbrw9wmIHRMJRdErCzbVLwsYuUMIH&#xD;&#xa;0FDCOdhPwtHtVcIoul7CoZFhwuDfaMJ+42zCaXNzwuEzcMJqBm3CtOlswpsEb8LxX2nCvYdkwqlM&#xD;&#xa;Z8J/RmrC2wduwpvpc8KFQHDClxtvwl94d8IjwHPC3jFuwkn8csKQYXzCRhx7wgtUcMJxkXHC5nN4&#xD;&#xa;wny3fMIZCIHCUp5+wnlwf8KpBIPCmOOBwgL+fsKIxX7CRDuCwhQygsLeRYPCmfOEwgs5hcI/RIbC&#xD;&#xa;5xeIwr6/hcKL6oTCA+GGwkuhicLDmYnCHu6HwmuVisJHB4zCJaOJwmfAiMJDGYrCw2+Lwq2pjMLO&#xD;&#xa;+Y3CLcyQwjWuj8JxKY/C6e6RwlJQk8J2rJLCKfuUwki0lsLk4ZbCl9GWwoQrlsLHlZPCQxCTws6p&#xD;&#xa;ksKj5JXC9zmZwgZxmMIEX5nCQwGXwu16lMIghZXCyS2Xwj/BlcKiWJbCHeKYwhyzm8J4/5zC2MSa&#xD;&#xa;wjW+m8JKKKDCEP+gwoRGnsLOMJ/CATykwqqzpMJG9KLCMNmhwovnocKwSqPCc5Sjwu1DocIT8qHC&#xD;&#xa;wMGlwlwCpMIQKKPC5xOkwlzfpcLlqqnCrEOpwmKqq8LA6qjC8POowvnQp8J2g6jCzIGqwiLyrcL9&#xD;&#xa;Nq7CLfWswjz6rcIevKzCK2KtwkO+rsItt67CjC6swrWIq8Juq67CQ4utwrLxrcLVA7HCPtGuwhYn&#xD;&#xa;rMJ2aavCI/Ctwp1VrsJhgazCkhKuwossrMLEjqzCqAewwm25s8J507HC1Fiwwiwxr8Lno6zCh1qs&#xD;&#xa;wuLArMIlgq/CX6utwsjjq8LAEqzCkyWswgzGqsIyXavCGSyswpJKqsIQkKzCnKSwwh17rsL9EazC&#xD;&#xa;lvatwpgwrcIXdK/CBf6wwjjlrsKOZLDCOuyuwvb9sMIHvbLCiF2wwoo0s8JNBLXC38izwsrrs8Kj&#xD;&#xa;tbPC+IWywtzwssIuKrbC07KywqxossJmubTC/1q0whj5tMIbYrfCju60wvYgtMIMnbjCjwa3whz8&#xD;&#xa;s8LPSbXCDZG2wob8t8JgT7bCxCq1wo4Kt8KDQrXC4Dm4wiSfuMIAL7rCupC7wkZMvcLaiLzCRma7&#xD;&#xa;woYqvMIAGrvCYuq4wmYDucKWrbrCxmu7woXxusIV5LrCHgu9wrDdvcJOoL7CGhy9wpxWu8LE37zC&#xD;&#xa;v6HAwvYjw8JG8b3C2hu9wiOGv8KR9MPC7N7Bwl7FvcLcYLvCiMK+wlxYwcJ7k7/CjBbAwmhovsLG&#xD;&#xa;TsDCr4zCwuw/wsJO+MLCAivBwhY6wMK2ysHC4Pm/wpgIv8JiZsDCPqK+wn2zvsLuXMDCnavBwuBJ&#xD;&#xa;w8JAN8LC5AnBwk0/u8JCq7vCum3AwhAfvsLZlMDC6pLFwnSzxMLOm8DCtiq+wmDQv8Kc2cLCorLB&#xD;&#xa;wuI+wMKl8sHCzkjCwn52wsKOtMTCXLTGwu6bxcJ27r/CviHAwgz2wMIAPsDCDM68wkq/u8Jds8DC&#xD;&#xa;viTCwpIMwcIkWMTC5vXHwvfUw8Lqd7/CIx2+wtR0wcIImL/CviO/wp5PwMI2YL3CxHe6wiIHu8IU&#xD;&#xa;+7vC7rW/woitwcKYL7/CIsfAwuWixcLUzsLCV2S+wsj3wMKIecTC0F3DwubLxMI80sTCaMrAwmSZ&#xD;&#xa;wMKgcMXCnKjHwkB5xML0LsPCLK/BwjvrxcKkWsbCFnjDwqASw8I2C8XCjH7FwhBJwsKgYcPCXoXF&#xD;&#xa;wlT1xcIUk8LC4j7EwmxJw8LzocPCrMrCwpRfw8LWPcbCkzLHwgAbyMLepsXCpJDGwjgQx8JtMMjC&#xD;&#xa;6HXIwk4dx8Ke1MbCgUXGwq4tw8Iw5sLCDaDDws58xMJdCMTCzMvFwiwkxsLExsXCBsHGwhu8xsJq&#xD;&#xa;v83C60zgwlD+6sKt7OrCLqDqwpEh6cLU+ezCssHxwpGl7sIgJunCFGHnwtq46MLCz+XCToHmwl69&#xD;&#xa;7cK8y/TCALDwwhiA8sJwWvjCtj35wvSt+cLk0vfCSOv0wtVr9sI3EPfCRPX1wqIT98IPwPfC4Mr4&#xD;&#xa;wqDn+MI+EfjCduj3wjg298JhyPbCfPv2wrK79sIK0/XCoZ/1woeg9cIGVPbCnt32wqzT98K4UPnC&#xD;&#xa;CFD5whwF+cK8hfjChNn5wgqP+sKk+/fCNnD1wiVL98LeufrCSDb7wvpD+cKqovbCAu/2wqqj+MKM&#xD;&#xa;ZvnCOrn3wvzn9cL0FffCowf3wjxy88IinfXCiCr6wnhI+cI8OfbCLl74wpSJ+sK+PvnC6mv5wphm&#xD;&#xa;+MJOYPbC6JD1whjU98IkjPfCMFn4wiwz+cIKpfnC2oX8wjhp/MJqDvjCrtz2whCq+cJeAffCCFP4&#xD;&#xa;wnT9+8Jk3f3CrNH7wjKn9sL6hvTCuOz2wiCt+sLmnPjCWpD3wprB+MJagvfC7jL3wkCm+MKwu/nC&#xD;&#xa;NI73wv55+MIIjPrCtY/3wmy09sKqLPbCcnL1woAi98IMMfnCfC36wvjt+cKUavrChuT5wk47+cJy&#xD;&#xa;xvnCpmb5wkBo+sKSkvjC6sb0whBy9cIEt/bCger3whpB98JIWvTCPEv2wqSF+cLwifvCBh36wr64&#xD;&#xa;+sLQ2/vC6J35wiwb+MKkqPjCG973wpyR98LujffCx7L2woR/9cLuvfXCkCD0wjv49sK2gPvCft74&#xD;&#xa;wg4O98ILIffCbnD2wld89cLM8vbChRX4wrwP+cJaMfjCSLT3wmLH+MJspfXCypv1wpUG98LVNPbC&#xD;&#xa;AgX2wk4k+cI63fXCC0UA" leadInLength="0/1"  />
            </Keyframes>
           </Parameter>
           </Parameters>
           <MetaData>
            <entry key="effectIndex" val="0"/>
           </MetaData>
          </GenericEffect>
          <GenericEffect id="7718" name = "DropShadow" >
           <Parameters>
           <InterpolatingParam id="7719" interp="linr"  time="0/1" value="315" leadInLength="0/1"   name="angle"/>
           <InterpolatingParam id="7720" interp="linr"  time="0/1" value="5" leadInLength="0/1"   name="blur"/>
           <Parameter id="7721"   name="enabled">
            <Keyframes>
            <Keyframe id="7722"  time="0/1" value="1" leadInLength="0/1"  />
            </Keyframes>
           </Parameter>
           <InterpolatingParam id="7723" interp="linr"  time="0/1" value="10" leadInLength="0/1"   name="offset"/>
           <InterpolatingParam id="7724" interp="linr"  time="0/1" value="0.77000000000000002" leadInLength="0/1"   name="opacity"/>
           </Parameters>
          </GenericEffect>
          <GenericEffect id="7725" name = "Colorize" >
           <Parameters>
           <InterpolatingParam id="7726" interp="linr"  time="0/1" value="0.75" leadInLength="0/1"   name="amount"/>
           <InterpolatingParam id="7727" interp="linr"  time="0/1" value="255" leadInLength="0/1"   name="color-alpha"/>
           <InterpolatingParam id="7728" interp="linr"  time="0/1" value="0" leadInLength="0/1"   name="color-blue"/>
           <InterpolatingParam id="7729" interp="linr"  time="0/1" value="127" leadInLength="0/1"   name="color-green"/>
           <InterpolatingParam id="7730" interp="linr"  time="0/1" value="255" leadInLength="0/1"   name="color-red"/>
           <Parameter id="7731"   name="enabled">
            <Keyframes>
            <Keyframe id="7732"  time="0/1" value="0" leadInLength="0/1"  />
            </Keyframes>
           </Parameter>
           <Parameter id="7733"   name="mode">
            <Keyframes>
            <Keyframe id="7734"  time="0/1" value="0" leadInLength="0/1"  />
            </Keyframes>
           </Parameter>
           </Parameters>
          </GenericEffect>
          <GenericEffect id="7735" name = "Border" >
           <Parameters>
           <InterpolatingParam id="7736" interp="linr"  time="0/1" value="255" leadInLength="0/1"   name="color-alpha"/>
           <InterpolatingParam id="7737" interp="linr"  time="0/1" value="0" leadInLength="0/1"   name="color-blue"/>
           <InterpolatingParam id="7738" interp="linr"  time="0/1" value="0" leadInLength="0/1"   name="color-green"/>
           <InterpolatingParam id="7739" interp="linr"  time="0/1" value="0" leadInLength="0/1"   name="color-red"/>
           <Parameter id="7740"   name="enabled">
            <Keyframes>
            <Keyframe id="7741"  time="0/1" value="0" leadInLength="0/1"  />
            </Keyframes>
           </Parameter>
           <InterpolatingParam id="7742" interp="linr"  time="0/1" value="1" leadInLength="0/1"   name="width"/>
           </Parameters>
          </GenericEffect>
          <GenericEffect id="7743" name = "ChromaKey" >
           <Parameters>
           <InterpolatingParam id="7744" interp="linr"  time="0/1" value="0" leadInLength="0/1"   name="clrCompensation"/>
           <InterpolatingParam id="7745" interp="linr"  time="0/1" value="255" leadInLength="0/1"   name="color-alpha"/>
           <InterpolatingParam id="7746" interp="linr"  time="0/1" value="0" leadInLength="0/1"   name="color-blue"/>
           <InterpolatingParam id="7747" interp="linr"  time="0/1" value="255" leadInLength="0/1"   name="color-green"/>
           <InterpolatingParam id="7748" interp="linr"  time="0/1" value="0" leadInLength="0/1"   name="color-red"/>
           <InterpolatingParam id="7749" interp="linr"  time="0/1" value="0.10000000000000001" leadInLength="0/1"   name="defringe"/>
           <Parameter id="7750"   name="enabled">
            <Keyframes>
            <Keyframe id="7751"  time="0/1" value="1" leadInLength="0/1"  />
            </Keyframes>
           </Parameter>
           <InterpolatingParam id="7752" interp="linr"  time="0/1" value="0" leadInLength="0/1"   name="invertEffect"/>
           <InterpolatingParam id="7753" interp="linr"  time="0/1" value="0.13" leadInLength="0/1"   name="softness"/>
           <InterpolatingParam id="7754" interp="linr"  time="0/1" value="0.10000000000000001" leadInLength="0/1"   name="tolerance"/>
           </Parameters>
          </GenericEffect>
         </Effects>
         <Attributes>
          <Attribute id="7755" value="" name="ident"/>
          <Attribute id="7756" value="0" name="mixToMono"/>
         </Attributes>
         <MetaData>
          <entry key="WinSubProjectDisplayName" val=""/>
         </MetaData>
         <ExtraData>
          <Entry key="ZoomPanBin">
           <ZoomPanBin id="7757"  >
            <ZoomPanKeyframes>
             <ZoomPanKeyframe id="7758" timeRangeEnd="-9999999/1" timeRangeDuration="0/1" interpolaterName="linr"  />
             <ZoomPanKeyframe id="7759" timeRangeEnd="942/1" timeRangeDuration="15/1" interpolaterName="linr"  />
             <ZoomPanKeyframe id="7760" timeRangeEnd="945/1" timeRangeDuration="3/1" interpolaterName="linr"  />
             <ZoomPanKeyframe id="7761" timeRangeEnd="1250/1" timeRangeDuration="30/1" interpolaterName="linr"  />
            </ZoomPanKeyframes>
           </ZoomPanBin>
          </Entry>
          <Entry key="CursorEffectBin">
           <CursorEffectBin id="7762"  >
            <CursorEffectKeyframes>
            </CursorEffectKeyframes>
           </CursorEffectBin>
          </Entry>
         </ExtraData>
         <GenericTrack id="7763"  >
          <Attributes>
           <Attribute id="7764" value="" name="ident"/>
           <Attribute id="7765" value="0" name="audioMuted"/>
           <Attribute id="7766" value="0" name="videoHidden"/>
          </Attributes>
          <MetaData>
           <entry key="IsLocked" val="False"/>
           <entry key="WinTrackHeight" val="0"/>
          </MetaData>
          <Medias>
           <UnifiedMedia id="7767"  >
            <AMFile id="7768" start="0" duration="849" scalar="1/1" mediaStart="0/1" mediaDuration="849/1" trackNumber="2" src="5" channelNumber="0,1" >
             <Parameters>
              <InterpolatingParam id="7769" interp="linr"  time="0/1" value="1" leadInLength="0/1"  name="volume"/>
              <Parameter id="7770"  name="captions"/>
             </Parameters>
             <Attributes>
              <Attribute id="7771" value="" name="ident"/>
              <Attribute id="7772" value="44100" name="sampleRate"/>
              <Attribute id="7773" value="16" name="bitDepth"/>
              <Attribute id="7774" value="1" name="gain"/>
              <Attribute id="7775" value="0" name="mixToMono"/>
             </Attributes>
            </AMFile>
            <VMFile id="7776" start="0" duration="849" scalar="1/1" mediaStart="0/1" mediaDuration="849/1" trackNumber="1" src="5" >
             <Transformer>
              <VectorParam id="7777"  name="translation">
               <InterpolatingParam id="7778" interp="linr"  time="-9999999/1" value="0" leadInLength="0/1"  />
               <InterpolatingParam id="7779" interp="linr"  time="-9999999/1" value="0" leadInLength="0/1"  />
               <InterpolatingParam id="7780" interp="linr"  time="-9999999/1" value="0" leadInLength="0/1"  />
              </VectorParam>
              <VectorParam id="7781"  name="rotation">
               <InterpolatingParam id="7782" interp="linr"  time="-9999999/1" value="0" leadInLength="0/1"  />
               <InterpolatingParam id="7783" interp="linr"  time="-9999999/1" value="0" leadInLength="0/1"  />
               <InterpolatingParam id="7784" interp="linr"  time="-9999999/1" value="0" leadInLength="0/1"  />
              </VectorParam>
              <VectorParam id="7785"  name="shear">
               <InterpolatingParam id="7786" interp="linr"  time="-9999999/1" value="0" leadInLength="0/1"  />
               <InterpolatingParam id="7787" interp="linr"  time="-9999999/1" value="0" leadInLength="0/1"  />
               <InterpolatingParam id="7788" interp="linr"  time="-9999999/1" value="0" leadInLength="0/1"  />
              </VectorParam>
              <VectorParam id="7789"  name="scale">
               <InterpolatingParam id="7790" interp="linr"  time="-9999999/1" value="1" leadInLength="0/1"  />
               <InterpolatingParam id="7791" interp="linr"  time="-9999999/1" value="1" leadInLength="0/1"  />
               <InterpolatingParam id="7792" interp="linr"  time="-9999999/1" value="1" leadInLength="0/1"  />
              </VectorParam>
              <VectorParam id="7793"  name="anchor">
               <InterpolatingParam id="7794" interp="linr"  time="0/1" value="0" leadInLength="0/1"  />
               <InterpolatingParam id="7795" interp="linr"  time="0/1" value="0" leadInLength="0/1"  />
               <InterpolatingParam id="7796" interp="linr"  time="0/1" value="0" leadInLength="0/1"  />
              </VectorParam>
             </Transformer>
             <Parameters>
              <VectorParam id="7797"  name="sourceCrop">
               <InterpolatingParam id="7798" interp="linr"  time="0/1" value="0" leadInLength="0/1"  />
               <InterpolatingParam id="7799" interp="linr"  time="0/1" value="0" leadInLength="0/1"  />
               <InterpolatingParam id="7800" interp="linr"  time="0/1" value="0" leadInLength="0/1"  />
               <InterpolatingParam id="7801" interp="linr"  time="0/1" value="0" leadInLength="0/1"  />
              </VectorParam>
              <VectorParam id="7802"  name="geometryCrop">
               <InterpolatingParam id="7803" interp="linr"  time="-9999999/1" value="0" leadInLength="0/1"  />
               <InterpolatingParam id="7804" interp="linr"  time="-9999999/1" value="0" leadInLength="0/1"  />
               <InterpolatingParam id="7805" interp="linr"  time="-9999999/1" value="0" leadInLength="0/1"  />
               <InterpolatingParam id="7806" interp="linr"  time="-9999999/1" value="0" leadInLength="0/1"  />
              </VectorParam>
              <InterpolatingParam id="7807" interp="linr"  time="-9999999/1" value="1" leadInLength="0/1"  name="opacity"/>
             </Parameters>
             <Attributes>
              <Attribute id="7808" value="" name="ident"/>
             </Attributes>
             <ExtraData>
              <Entry key="ZoomPanBin">
               <ZoomPanBin id="7809"  >
                <ZoomPanKeyframes>
                 <ZoomPanKeyframe id="7810" timeRangeEnd="-9999999/1" timeRangeDuration="0/1" interpolaterName="linr"  />
                </ZoomPanKeyframes>
               </ZoomPanBin>
              </Entry>
             </ExtraData>
            </VMFile>
            <MetaData>
             <entry key="WinSubProjectDisplayName" val=""/>
            </MetaData>
           </UnifiedMedia>
           <UnifiedMedia id="7811"  >
            <AMFile id="7812" start="849" duration="93" scalar="1/1" mediaStart="855/1" mediaDuration="93/1" trackNumber="2" src="5" channelNumber="0,1" >
             <Parameters>
              <InterpolatingParam id="7813" interp="linr"  time="0/1" value="1" leadInLength="0/1"  name="volume"/>
              <Parameter id="7814"  name="captions"/>
             </Parameters>
             <Attributes>
              <Attribute id="7815" value="" name="ident"/>
              <Attribute id="7816" value="44100" name="sampleRate"/>
              <Attribute id="7817" value="16" name="bitDepth"/>
              <Attribute id="7818" value="1" name="gain"/>
              <Attribute id="7819" value="0" name="mixToMono"/>
             </Attributes>
            </AMFile>
            <VMFile id="7820" start="849" duration="93" scalar="1/1" mediaStart="855/1" mediaDuration="93/1" trackNumber="1" src="5" >
             <Transformer>
              <VectorParam id="7821"  name="translation">
               <InterpolatingParam id="7822" interp="linr"  time="-9999999/1" value="0" leadInLength="0/1"  />
               <InterpolatingParam id="7823" interp="linr"  time="-9999999/1" value="0" leadInLength="0/1"  />
               <InterpolatingParam id="7824" interp="linr"  time="-9999999/1" value="0" leadInLength="0/1"  />
              </VectorParam>
              <VectorParam id="7825"  name="rotation">
               <InterpolatingParam id="7826" interp="linr"  time="-9999999/1" value="0" leadInLength="0/1"  />
               <InterpolatingParam id="7827" interp="linr"  time="-9999999/1" value="0" leadInLength="0/1"  />
               <InterpolatingParam id="7828" interp="linr"  time="-9999999/1" value="0" leadInLength="0/1"  />
              </VectorParam>
              <VectorParam id="7829"  name="shear">
               <InterpolatingParam id="7830" interp="linr"  time="-9999999/1" value="0" leadInLength="0/1"  />
               <InterpolatingParam id="7831" interp="linr"  time="-9999999/1" value="0" leadInLength="0/1"  />
               <InterpolatingParam id="7832" interp="linr"  time="-9999999/1" value="0" leadInLength="0/1"  />
              </VectorParam>
              <VectorParam id="7833"  name="scale">
               <InterpolatingParam id="7834" interp="linr"  time="-9999999/1" value="1" leadInLength="0/1"  />
               <InterpolatingParam id="7835" interp="linr"  time="-9999999/1" value="1" leadInLength="0/1"  />
               <InterpolatingParam id="7836" interp="linr"  time="-9999999/1" value="1" leadInLength="0/1"  />
              </VectorParam>
              <VectorParam id="7837"  name="anchor">
               <InterpolatingParam id="7838" interp="linr"  time="0/1" value="0" leadInLength="0/1"  />
               <InterpolatingParam id="7839" interp="linr"  time="0/1" value="0" leadInLength="0/1"  />
               <InterpolatingParam id="7840" interp="linr"  time="0/1" value="0" leadInLength="0/1"  />
              </VectorParam>
             </Transformer>
             <Parameters>
              <VectorParam id="7841"  name="sourceCrop">
               <InterpolatingParam id="7842" interp="linr"  time="0/1" value="0" leadInLength="0/1"  />
               <InterpolatingParam id="7843" interp="linr"  time="0/1" value="0" leadInLength="0/1"  />
               <InterpolatingParam id="7844" interp="linr"  time="0/1" value="0" leadInLength="0/1"  />
               <InterpolatingParam id="7845" interp="linr"  time="0/1" value="0" leadInLength="0/1"  />
              </VectorParam>
              <VectorParam id="7846"  name="geometryCrop">
               <InterpolatingParam id="7847" interp="linr"  time="-9999999/1" value="0" leadInLength="0/1"  />
               <InterpolatingParam id="7848" interp="linr"  time="-9999999/1" value="0" leadInLength="0/1"  />
               <InterpolatingParam id="7849" interp="linr"  time="-9999999/1" value="0" leadInLength="0/1"  />
               <InterpolatingParam id="7850" interp="linr"  time="-9999999/1" value="0" leadInLength="0/1"  />
              </VectorParam>
              <InterpolatingParam id="7851" interp="linr"  time="-9999999/1" value="1" leadInLength="0/1"  name="opacity"/>
             </Parameters>
             <Attributes>
              <Attribute id="7852" value="" name="ident"/>
             </Attributes>
             <ExtraData>
              <Entry key="ZoomPanBin">
               <ZoomPanBin id="7853"  >
                <ZoomPanKeyframes>
                 <ZoomPanKeyframe id="7854" timeRangeEnd="-9999999/1" timeRangeDuration="0/1" interpolaterName="linr"  />
                </ZoomPanKeyframes>
               </ZoomPanBin>
              </Entry>
             </ExtraData>
            </VMFile>
            <MetaData>
             <entry key="WinSubProjectDisplayName" val=""/>
            </MetaData>
           </UnifiedMedia>
           <UnifiedMedia id="7855"  >
            <AMFile id="7856" start="942" duration="105" scalar="1/1" mediaStart="1953/1" mediaDuration="105/1" trackNumber="2" src="5" channelNumber="0,1" >
             <Parameters>
              <InterpolatingParam id="7857" interp="linr"  time="0/1" value="1" leadInLength="0/1"  name="volume"/>
              <Parameter id="7858"  name="captions"/>
             </Parameters>
             <Attributes>
              <Attribute id="7859" value="" name="ident"/>
              <Attribute id="7860" value="44100" name="sampleRate"/>
              <Attribute id="7861" value="16" name="bitDepth"/>
              <Attribute id="7862" value="1" name="gain"/>
              <Attribute id="7863" value="0" name="mixToMono"/>
             </Attributes>
            </AMFile>
            <VMFile id="7864" start="942" duration="105" scalar="1/1" mediaStart="1953/1" mediaDuration="105/1" trackNumber="1" src="5" >
             <Transformer>
              <VectorParam id="7865"  name="translation">
               <InterpolatingParam id="7866" interp="linr"  time="-9999999/1" value="0" leadInLength="0/1"  />
               <InterpolatingParam id="7867" interp="linr"  time="-9999999/1" value="0" leadInLength="0/1"  />
               <InterpolatingParam id="7868" interp="linr"  time="-9999999/1" value="0" leadInLength="0/1"  />
              </VectorParam>
              <VectorParam id="7869"  name="rotation">
               <InterpolatingParam id="7870" interp="linr"  time="-9999999/1" value="0" leadInLength="0/1"  />
               <InterpolatingParam id="7871" interp="linr"  time="-9999999/1" value="0" leadInLength="0/1"  />
               <InterpolatingParam id="7872" interp="linr"  time="-9999999/1" value="0" leadInLength="0/1"  />
              </VectorParam>
              <VectorParam id="7873"  name="shear">
               <InterpolatingParam id="7874" interp="linr"  time="-9999999/1" value="0" leadInLength="0/1"  />
               <InterpolatingParam id="7875" interp="linr"  time="-9999999/1" value="0" leadInLength="0/1"  />
               <InterpolatingParam id="7876" interp="linr"  time="-9999999/1" value="0" leadInLength="0/1"  />
              </VectorParam>
              <VectorParam id="7877"  name="scale">
               <InterpolatingParam id="7878" interp="linr"  time="-9999999/1" value="1" leadInLength="0/1"  />
               <InterpolatingParam id="7879" interp="linr"  time="-9999999/1" value="1" leadInLength="0/1"  />
               <InterpolatingParam id="7880" interp="linr"  time="-9999999/1" value="1" leadInLength="0/1"  />
              </VectorParam>
              <VectorParam id="7881"  name="anchor">
               <InterpolatingParam id="7882" interp="linr"  time="0/1" value="0" leadInLength="0/1"  />
               <InterpolatingParam id="7883" interp="linr"  time="0/1" value="0" leadInLength="0/1"  />
               <InterpolatingParam id="7884" interp="linr"  time="0/1" value="0" leadInLength="0/1"  />
              </VectorParam>
             </Transformer>
             <Parameters>
              <VectorParam id="7885"  name="sourceCrop">
               <InterpolatingParam id="7886" interp="linr"  time="0/1" value="0" leadInLength="0/1"  />
               <InterpolatingParam id="7887" interp="linr"  time="0/1" value="0" leadInLength="0/1"  />
               <InterpolatingParam id="7888" interp="linr"  time="0/1" value="0" leadInLength="0/1"  />
               <InterpolatingParam id="7889" interp="linr"  time="0/1" value="0" leadInLength="0/1"  />
              </VectorParam>
              <VectorParam id="7890"  name="geometryCrop">
               <InterpolatingParam id="7891" interp="linr"  time="-9999999/1" value="0" leadInLength="0/1"  />
               <InterpolatingParam id="7892" interp="linr"  time="-9999999/1" value="0" leadInLength="0/1"  />
               <InterpolatingParam id="7893" interp="linr"  time="-9999999/1" value="0" leadInLength="0/1"  />
               <InterpolatingParam id="7894" interp="linr"  time="-9999999/1" value="0" leadInLength="0/1"  />
              </VectorParam>
              <InterpolatingParam id="7895" interp="linr"  time="-9999999/1" value="1" leadInLength="0/1"  name="opacity"/>
             </Parameters>
             <Attributes>
              <Attribute id="7896" value="" name="ident"/>
             </Attributes>
             <ExtraData>
              <Entry key="ZoomPanBin">
               <ZoomPanBin id="7897"  >
                <ZoomPanKeyframes>
                 <ZoomPanKeyframe id="7898" timeRangeEnd="-9999999/1" timeRangeDuration="0/1" interpolaterName="linr"  />
                </ZoomPanKeyframes>
               </ZoomPanBin>
              </Entry>
             </ExtraData>
            </VMFile>
            <MetaData>
             <entry key="WinSubProjectDisplayName" val=""/>
            </MetaData>
           </UnifiedMedia>
           <UnifiedMedia id="7899"  >
            <AMFile id="7900" start="1047" duration="39" scalar="1/1" mediaStart="2068/1" mediaDuration="39/1" trackNumber="2" src="5" channelNumber="0,1" >
             <Parameters>
              <InterpolatingParam id="7901" interp="linr"  time="0/1" value="1" leadInLength="0/1"  name="volume"/>
              <Parameter id="7902"  name="captions"/>
             </Parameters>
             <Attributes>
              <Attribute id="7903" value="" name="ident"/>
              <Attribute id="7904" value="44100" name="sampleRate"/>
              <Attribute id="7905" value="16" name="bitDepth"/>
              <Attribute id="7906" value="1" name="gain"/>
              <Attribute id="7907" value="0" name="mixToMono"/>
             </Attributes>
            </AMFile>
            <VMFile id="7908" start="1047" duration="39" scalar="1/1" mediaStart="2068/1" mediaDuration="39/1" trackNumber="1" src="5" >
             <Transformer>
              <VectorParam id="7909"  name="translation">
               <InterpolatingParam id="7910" interp="linr"  time="-9999999/1" value="0" leadInLength="0/1"  />
               <InterpolatingParam id="7911" interp="linr"  time="-9999999/1" value="0" leadInLength="0/1"  />
               <InterpolatingParam id="7912" interp="linr"  time="-9999999/1" value="0" leadInLength="0/1"  />
              </VectorParam>
              <VectorParam id="7913"  name="rotation">
               <InterpolatingParam id="7914" interp="linr"  time="-9999999/1" value="0" leadInLength="0/1"  />
               <InterpolatingParam id="7915" interp="linr"  time="-9999999/1" value="0" leadInLength="0/1"  />
               <InterpolatingParam id="7916" interp="linr"  time="-9999999/1" value="0" leadInLength="0/1"  />
              </VectorParam>
              <VectorParam id="7917"  name="shear">
               <InterpolatingParam id="7918" interp="linr"  time="-9999999/1" value="0" leadInLength="0/1"  />
               <InterpolatingParam id="7919" interp="linr"  time="-9999999/1" value="0" leadInLength="0/1"  />
               <InterpolatingParam id="7920" interp="linr"  time="-9999999/1" value="0" leadInLength="0/1"  />
              </VectorParam>
              <VectorParam id="7921"  name="scale">
               <InterpolatingParam id="7922" interp="linr"  time="-9999999/1" value="1" leadInLength="0/1"  />
               <InterpolatingParam id="7923" interp="linr"  time="-9999999/1" value="1" leadInLength="0/1"  />
               <InterpolatingParam id="7924" interp="linr"  time="-9999999/1" value="1" leadInLength="0/1"  />
              </VectorParam>
              <VectorParam id="7925"  name="anchor">
               <InterpolatingParam id="7926" interp="linr"  time="0/1" value="0" leadInLength="0/1"  />
               <InterpolatingParam id="7927" interp="linr"  time="0/1" value="0" leadInLength="0/1"  />
               <InterpolatingParam id="7928" interp="linr"  time="0/1" value="0" leadInLength="0/1"  />
              </VectorParam>
             </Transformer>
             <Parameters>
              <VectorParam id="7929"  name="sourceCrop">
               <InterpolatingParam id="7930" interp="linr"  time="0/1" value="0" leadInLength="0/1"  />
               <InterpolatingParam id="7931" interp="linr"  time="0/1" value="0" leadInLength="0/1"  />
               <InterpolatingParam id="7932" interp="linr"  time="0/1" value="0" leadInLength="0/1"  />
               <InterpolatingParam id="7933" interp="linr"  time="0/1" value="0" leadInLength="0/1"  />
              </VectorParam>
              <VectorParam id="7934"  name="geometryCrop">
               <InterpolatingParam id="7935" interp="linr"  time="-9999999/1" value="0" leadInLength="0/1"  />
               <InterpolatingParam id="7936" interp="linr"  time="-9999999/1" value="0" leadInLength="0/1"  />
               <InterpolatingParam id="7937" interp="linr"  time="-9999999/1" value="0" leadInLength="0/1"  />
               <InterpolatingParam id="7938" interp="linr"  time="-9999999/1" value="0" leadInLength="0/1"  />
              </VectorParam>
              <InterpolatingParam id="7939" interp="linr"  time="-9999999/1" value="1" leadInLength="0/1"  name="opacity"/>
             </Parameters>
             <Attributes>
              <Attribute id="7940" value="" name="ident"/>
             </Attributes>
             <ExtraData>
              <Entry key="ZoomPanBin">
               <ZoomPanBin id="7941"  >
                <ZoomPanKeyframes>
                 <ZoomPanKeyframe id="7942" timeRangeEnd="-9999999/1" timeRangeDuration="0/1" interpolaterName="linr"  />
                </ZoomPanKeyframes>
               </ZoomPanBin>
              </Entry>
             </ExtraData>
            </VMFile>
            <MetaData>
             <entry key="WinSubProjectDisplayName" val=""/>
            </MetaData>
           </UnifiedMedia>
           <UnifiedMedia id="7943"  >
            <AMFile id="7944" start="1086" duration="109" scalar="1/1" mediaStart="2163/1" mediaDuration="109/1" trackNumber="2" src="5" channelNumber="0,1" >
             <Parameters>
              <InterpolatingParam id="7945" interp="linr"  time="0/1" value="1" leadInLength="0/1"  name="volume"/>
              <Parameter id="7946"  name="captions"/>
             </Parameters>
             <Attributes>
              <Attribute id="7947" value="" name="ident"/>
              <Attribute id="7948" value="44100" name="sampleRate"/>
              <Attribute id="7949" value="16" name="bitDepth"/>
              <Attribute id="7950" value="1" name="gain"/>
              <Attribute id="7951" value="0" name="mixToMono"/>
             </Attributes>
            </AMFile>
            <VMFile id="7952" start="1086" duration="109" scalar="1/1" mediaStart="2163/1" mediaDuration="109/1" trackNumber="1" src="5" >
             <Transformer>
              <VectorParam id="7953"  name="translation">
               <InterpolatingParam id="7954" interp="linr"  time="-9999999/1" value="0" leadInLength="0/1"  />
               <InterpolatingParam id="7955" interp="linr"  time="-9999999/1" value="0" leadInLength="0/1"  />
               <InterpolatingParam id="7956" interp="linr"  time="-9999999/1" value="0" leadInLength="0/1"  />
              </VectorParam>
              <VectorParam id="7957"  name="rotation">
               <InterpolatingParam id="7958" interp="linr"  time="-9999999/1" value="0" leadInLength="0/1"  />
               <InterpolatingParam id="7959" interp="linr"  time="-9999999/1" value="0" leadInLength="0/1"  />
               <InterpolatingParam id="7960" interp="linr"  time="-9999999/1" value="0" leadInLength="0/1"  />
              </VectorParam>
              <VectorParam id="7961"  name="shear">
               <InterpolatingParam id="7962" interp="linr"  time="-9999999/1" value="0" leadInLength="0/1"  />
               <InterpolatingParam id="7963" interp="linr"  time="-9999999/1" value="0" leadInLength="0/1"  />
               <InterpolatingParam id="7964" interp="linr"  time="-9999999/1" value="0" leadInLength="0/1"  />
              </VectorParam>
              <VectorParam id="7965"  name="scale">
               <InterpolatingParam id="7966" interp="linr"  time="-9999999/1" value="1" leadInLength="0/1"  />
               <InterpolatingParam id="7967" interp="linr"  time="-9999999/1" value="1" leadInLength="0/1"  />
               <InterpolatingParam id="7968" interp="linr"  time="-9999999/1" value="1" leadInLength="0/1"  />
              </VectorParam>
              <VectorParam id="7969"  name="anchor">
               <InterpolatingParam id="7970" interp="linr"  time="0/1" value="0" leadInLength="0/1"  />
               <InterpolatingParam id="7971" interp="linr"  time="0/1" value="0" leadInLength="0/1"  />
               <InterpolatingParam id="7972" interp="linr"  time="0/1" value="0" leadInLength="0/1"  />
              </VectorParam>
             </Transformer>
             <Parameters>
              <VectorParam id="7973"  name="sourceCrop">
               <InterpolatingParam id="7974" interp="linr"  time="0/1" value="0" leadInLength="0/1"  />
               <InterpolatingParam id="7975" interp="linr"  time="0/1" value="0" leadInLength="0/1"  />
               <InterpolatingParam id="7976" interp="linr"  time="0/1" value="0" leadInLength="0/1"  />
               <InterpolatingParam id="7977" interp="linr"  time="0/1" value="0" leadInLength="0/1"  />
              </VectorParam>
              <VectorParam id="7978"  name="geometryCrop">
               <InterpolatingParam id="7979" interp="linr"  time="-9999999/1" value="0" leadInLength="0/1"  />
               <InterpolatingParam id="7980" interp="linr"  time="-9999999/1" value="0" leadInLength="0/1"  />
               <InterpolatingParam id="7981" interp="linr"  time="-9999999/1" value="0" leadInLength="0/1"  />
               <InterpolatingParam id="7982" interp="linr"  time="-9999999/1" value="0" leadInLength="0/1"  />
              </VectorParam>
              <InterpolatingParam id="7983" interp="linr"  time="-9999999/1" value="1" leadInLength="0/1"  name="opacity"/>
             </Parameters>
             <Attributes>
              <Attribute id="7984" value="" name="ident"/>
             </Attributes>
             <ExtraData>
              <Entry key="ZoomPanBin">
               <ZoomPanBin id="7985"  >
                <ZoomPanKeyframes>
                 <ZoomPanKeyframe id="7986" timeRangeEnd="-9999999/1" timeRangeDuration="0/1" interpolaterName="linr"  />
                </ZoomPanKeyframes>
               </ZoomPanBin>
              </Entry>
             </ExtraData>
            </VMFile>
            <MetaData>
             <entry key="WinSubProjectDisplayName" val=""/>
            </MetaData>
           </UnifiedMedia>
           <UnifiedMedia id="7987"  >
            <AMFile id="7988" start="1195" duration="38" scalar="1/1" mediaStart="2279/1" mediaDuration="38/1" trackNumber="2" src="5" channelNumber="0,1" >
             <Parameters>
              <InterpolatingParam id="7989" interp="linr"  time="0/1" value="1" leadInLength="0/1"  name="volume"/>
              <Parameter id="7990"  name="captions"/>
             </Parameters>
             <Attributes>
              <Attribute id="7991" value="" name="ident"/>
              <Attribute id="7992" value="44100" name="sampleRate"/>
              <Attribute id="7993" value="16" name="bitDepth"/>
              <Attribute id="7994" value="1" name="gain"/>
              <Attribute id="7995" value="0" name="mixToMono"/>
             </Attributes>
            </AMFile>
            <VMFile id="7996" start="1195" duration="38" scalar="1/1" mediaStart="2279/1" mediaDuration="38/1" trackNumber="1" src="5" >
             <Transformer>
              <VectorParam id="7997"  name="translation">
               <InterpolatingParam id="7998" interp="linr"  time="-9999999/1" value="0" leadInLength="0/1"  />
               <InterpolatingParam id="7999" interp="linr"  time="-9999999/1" value="0" leadInLength="0/1"  />
               <InterpolatingParam id="8000" interp="linr"  time="-9999999/1" value="0" leadInLength="0/1"  />
              </VectorParam>
              <VectorParam id="8001"  name="rotation">
               <InterpolatingParam id="8002" interp="linr"  time="-9999999/1" value="0" leadInLength="0/1"  />
               <InterpolatingParam id="8003" interp="linr"  time="-9999999/1" value="0" leadInLength="0/1"  />
               <InterpolatingParam id="8004" interp="linr"  time="-9999999/1" value="0" leadInLength="0/1"  />
              </VectorParam>
              <VectorParam id="8005"  name="shear">
               <InterpolatingParam id="8006" interp="linr"  time="-9999999/1" value="0" leadInLength="0/1"  />
               <InterpolatingParam id="8007" interp="linr"  time="-9999999/1" value="0" leadInLength="0/1"  />
               <InterpolatingParam id="8008" interp="linr"  time="-9999999/1" value="0" leadInLength="0/1"  />
              </VectorParam>
              <VectorParam id="8009"  name="scale">
               <InterpolatingParam id="8010" interp="linr"  time="-9999999/1" value="1" leadInLength="0/1"  />
               <InterpolatingParam id="8011" interp="linr"  time="-9999999/1" value="1" leadInLength="0/1"  />
               <InterpolatingParam id="8012" interp="linr"  time="-9999999/1" value="1" leadInLength="0/1"  />
              </VectorParam>
              <VectorParam id="8013"  name="anchor">
               <InterpolatingParam id="8014" interp="linr"  time="0/1" value="0" leadInLength="0/1"  />
               <InterpolatingParam id="8015" interp="linr"  time="0/1" value="0" leadInLength="0/1"  />
               <InterpolatingParam id="8016" interp="linr"  time="0/1" value="0" leadInLength="0/1"  />
              </VectorParam>
             </Transformer>
             <Parameters>
              <VectorParam id="8017"  name="sourceCrop">
               <InterpolatingParam id="8018" interp="linr"  time="0/1" value="0" leadInLength="0/1"  />
               <InterpolatingParam id="8019" interp="linr"  time="0/1" value="0" leadInLength="0/1"  />
               <InterpolatingParam id="8020" interp="linr"  time="0/1" value="0" leadInLength="0/1"  />
               <InterpolatingParam id="8021" interp="linr"  time="0/1" value="0" leadInLength="0/1"  />
              </VectorParam>
              <VectorParam id="8022"  name="geometryCrop">
               <InterpolatingParam id="8023" interp="linr"  time="-9999999/1" value="0" leadInLength="0/1"  />
               <InterpolatingParam id="8024" interp="linr"  time="-9999999/1" value="0" leadInLength="0/1"  />
               <InterpolatingParam id="8025" interp="linr"  time="-9999999/1" value="0" leadInLength="0/1"  />
               <InterpolatingParam id="8026" interp="linr"  time="-9999999/1" value="0" leadInLength="0/1"  />
              </VectorParam>
              <InterpolatingParam id="8027" interp="linr"  time="-9999999/1" value="1" leadInLength="0/1"  name="opacity"/>
             </Parameters>
             <Attributes>
              <Attribute id="8028" value="" name="ident"/>
             </Attributes>
             <ExtraData>
              <Entry key="ZoomPanBin">
               <ZoomPanBin id="8029"  >
                <ZoomPanKeyframes>
                 <ZoomPanKeyframe id="8030" timeRangeEnd="-9999999/1" timeRangeDuration="0/1" interpolaterName="linr"  />
                </ZoomPanKeyframes>
               </ZoomPanBin>
              </Entry>
             </ExtraData>
            </VMFile>
            <MetaData>
             <entry key="WinSubProjectDisplayName" val=""/>
            </MetaData>
           </UnifiedMedia>
           <UnifiedMedia id="8031"  >
            <AMFile id="8032" start="1233" duration="1" scalar="1/1" mediaStart="2421/1" mediaDuration="1/1" trackNumber="2" src="5" channelNumber="0,1" >
             <Parameters>
              <InterpolatingParam id="8033" interp="linr"  time="0/1" value="1" leadInLength="0/1"  name="volume"/>
              <Parameter id="8034"  name="captions"/>
             </Parameters>
             <Attributes>
              <Attribute id="8035" value="" name="ident"/>
              <Attribute id="8036" value="44100" name="sampleRate"/>
              <Attribute id="8037" value="16" name="bitDepth"/>
              <Attribute id="8038" value="1" name="gain"/>
              <Attribute id="8039" value="0" name="mixToMono"/>
             </Attributes>
            </AMFile>
            <VMFile id="8040" start="1233" duration="1" scalar="1/1" mediaStart="2421/1" mediaDuration="1/1" trackNumber="1" src="5" >
             <Transformer>
              <VectorParam id="8041"  name="translation">
               <InterpolatingParam id="8042" interp="linr"  time="-9999999/1" value="0" leadInLength="0/1"  />
               <InterpolatingParam id="8043" interp="linr"  time="-9999999/1" value="0" leadInLength="0/1"  />
               <InterpolatingParam id="8044" interp="linr"  time="-9999999/1" value="0" leadInLength="0/1"  />
              </VectorParam>
              <VectorParam id="8045"  name="rotation">
               <InterpolatingParam id="8046" interp="linr"  time="-9999999/1" value="0" leadInLength="0/1"  />
               <InterpolatingParam id="8047" interp="linr"  time="-9999999/1" value="0" leadInLength="0/1"  />
               <InterpolatingParam id="8048" interp="linr"  time="-9999999/1" value="0" leadInLength="0/1"  />
              </VectorParam>
              <VectorParam id="8049"  name="shear">
               <InterpolatingParam id="8050" interp="linr"  time="-9999999/1" value="0" leadInLength="0/1"  />
               <InterpolatingParam id="8051" interp="linr"  time="-9999999/1" value="0" leadInLength="0/1"  />
               <InterpolatingParam id="8052" interp="linr"  time="-9999999/1" value="0" leadInLength="0/1"  />
              </VectorParam>
              <VectorParam id="8053"  name="scale">
               <InterpolatingParam id="8054" interp="linr"  time="-9999999/1" value="1" leadInLength="0/1"  />
               <InterpolatingParam id="8055" interp="linr"  time="-9999999/1" value="1" leadInLength="0/1"  />
               <InterpolatingParam id="8056" interp="linr"  time="-9999999/1" value="1" leadInLength="0/1"  />
              </VectorParam>
              <VectorParam id="8057"  name="anchor">
               <InterpolatingParam id="8058" interp="linr"  time="0/1" value="0" leadInLength="0/1"  />
               <InterpolatingParam id="8059" interp="linr"  time="0/1" value="0" leadInLength="0/1"  />
               <InterpolatingParam id="8060" interp="linr"  time="0/1" value="0" leadInLength="0/1"  />
              </VectorParam>
             </Transformer>
             <Parameters>
              <VectorParam id="8061"  name="sourceCrop">
               <InterpolatingParam id="8062" interp="linr"  time="0/1" value="0" leadInLength="0/1"  />
               <InterpolatingParam id="8063" interp="linr"  time="0/1" value="0" leadInLength="0/1"  />
               <InterpolatingParam id="8064" interp="linr"  time="0/1" value="0" leadInLength="0/1"  />
               <InterpolatingParam id="8065" interp="linr"  time="0/1" value="0" leadInLength="0/1"  />
              </VectorParam>
              <VectorParam id="8066"  name="geometryCrop">
               <InterpolatingParam id="8067" interp="linr"  time="-9999999/1" value="0" leadInLength="0/1"  />
               <InterpolatingParam id="8068" interp="linr"  time="-9999999/1" value="0" leadInLength="0/1"  />
               <InterpolatingParam id="8069" interp="linr"  time="-9999999/1" value="0" leadInLength="0/1"  />
               <InterpolatingParam id="8070" interp="linr"  time="-9999999/1" value="0" leadInLength="0/1"  />
              </VectorParam>
              <InterpolatingParam id="8071" interp="linr"  time="-9999999/1" value="1" leadInLength="0/1"  name="opacity"/>
             </Parameters>
             <Attributes>
              <Attribute id="8072" value="" name="ident"/>
             </Attributes>
             <ExtraData>
              <Entry key="ZoomPanBin">
               <ZoomPanBin id="8073"  >
                <ZoomPanKeyframes>
                 <ZoomPanKeyframe id="8074" timeRangeEnd="-9999999/1" timeRangeDuration="0/1" interpolaterName="linr"  />
                </ZoomPanKeyframes>
               </ZoomPanBin>
              </Entry>
             </ExtraData>
            </VMFile>
            <MetaData>
             <entry key="WinSubProjectDisplayName" val=""/>
            </MetaData>
           </UnifiedMedia>
           <UnifiedMedia id="8075"  >
            <AMFile id="8076" start="1234" duration="1" scalar="1/1" mediaStart="2477/1" mediaDuration="1/1" trackNumber="2" src="5" channelNumber="0,1" >
             <Parameters>
              <InterpolatingParam id="8077" interp="linr"  time="0/1" value="1" leadInLength="0/1"  name="volume"/>
              <Parameter id="8078"  name="captions"/>
             </Parameters>
             <Attributes>
              <Attribute id="8079" value="" name="ident"/>
              <Attribute id="8080" value="44100" name="sampleRate"/>
              <Attribute id="8081" value="16" name="bitDepth"/>
              <Attribute id="8082" value="1" name="gain"/>
              <Attribute id="8083" value="0" name="mixToMono"/>
             </Attributes>
            </AMFile>
            <VMFile id="8084" start="1234" duration="1" scalar="1/1" mediaStart="2477/1" mediaDuration="1/1" trackNumber="1" src="5" >
             <Transformer>
              <VectorParam id="8085"  name="translation">
               <InterpolatingParam id="8086" interp="linr"  time="-9999999/1" value="0" leadInLength="0/1"  />
               <InterpolatingParam id="8087" interp="linr"  time="-9999999/1" value="0" leadInLength="0/1"  />
               <InterpolatingParam id="8088" interp="linr"  time="-9999999/1" value="0" leadInLength="0/1"  />
              </VectorParam>
              <VectorParam id="8089"  name="rotation">
               <InterpolatingParam id="8090" interp="linr"  time="-9999999/1" value="0" leadInLength="0/1"  />
               <InterpolatingParam id="8091" interp="linr"  time="-9999999/1" value="0" leadInLength="0/1"  />
               <InterpolatingParam id="8092" interp="linr"  time="-9999999/1" value="0" leadInLength="0/1"  />
              </VectorParam>
              <VectorParam id="8093"  name="shear">
               <InterpolatingParam id="8094" interp="linr"  time="-9999999/1" value="0" leadInLength="0/1"  />
               <InterpolatingParam id="8095" interp="linr"  time="-9999999/1" value="0" leadInLength="0/1"  />
               <InterpolatingParam id="8096" interp="linr"  time="-9999999/1" value="0" leadInLength="0/1"  />
              </VectorParam>
              <VectorParam id="8097"  name="scale">
               <InterpolatingParam id="8098" interp="linr"  time="-9999999/1" value="1" leadInLength="0/1"  />
               <InterpolatingParam id="8099" interp="linr"  time="-9999999/1" value="1" leadInLength="0/1"  />
               <InterpolatingParam id="8100" interp="linr"  time="-9999999/1" value="1" leadInLength="0/1"  />
              </VectorParam>
              <VectorParam id="8101"  name="anchor">
               <InterpolatingParam id="8102" interp="linr"  time="0/1" value="0" leadInLength="0/1"  />
               <InterpolatingParam id="8103" interp="linr"  time="0/1" value="0" leadInLength="0/1"  />
               <InterpolatingParam id="8104" interp="linr"  time="0/1" value="0" leadInLength="0/1"  />
              </VectorParam>
             </Transformer>
             <Parameters>
              <VectorParam id="8105"  name="sourceCrop">
               <InterpolatingParam id="8106" interp="linr"  time="0/1" value="0" leadInLength="0/1"  />
               <InterpolatingParam id="8107" interp="linr"  time="0/1" value="0" leadInLength="0/1"  />
               <InterpolatingParam id="8108" interp="linr"  time="0/1" value="0" leadInLength="0/1"  />
               <InterpolatingParam id="8109" interp="linr"  time="0/1" value="0" leadInLength="0/1"  />
              </VectorParam>
              <VectorParam id="8110"  name="geometryCrop">
               <InterpolatingParam id="8111" interp="linr"  time="-9999999/1" value="0" leadInLength="0/1"  />
               <InterpolatingParam id="8112" interp="linr"  time="-9999999/1" value="0" leadInLength="0/1"  />
               <InterpolatingParam id="8113" interp="linr"  time="-9999999/1" value="0" leadInLength="0/1"  />
               <InterpolatingParam id="8114" interp="linr"  time="-9999999/1" value="0" leadInLength="0/1"  />
              </VectorParam>
              <InterpolatingParam id="8115" interp="linr"  time="-9999999/1" value="1" leadInLength="0/1"  name="opacity"/>
             </Parameters>
             <Attributes>
              <Attribute id="8116" value="" name="ident"/>
             </Attributes>
             <ExtraData>
              <Entry key="ZoomPanBin">
               <ZoomPanBin id="8117"  >
                <ZoomPanKeyframes>
                 <ZoomPanKeyframe id="8118" timeRangeEnd="-9999999/1" timeRangeDuration="0/1" interpolaterName="linr"  />
                </ZoomPanKeyframes>
               </ZoomPanBin>
              </Entry>
             </ExtraData>
            </VMFile>
            <MetaData>
             <entry key="WinSubProjectDisplayName" val=""/>
            </MetaData>
           </UnifiedMedia>
           <UnifiedMedia id="8119"  >
            <AMFile id="8120" start="1235" duration="80" scalar="1/1" mediaStart="6646/1" mediaDuration="80/1" trackNumber="2" src="5" channelNumber="0,1" >
             <Parameters>
              <InterpolatingParam id="8121" interp="linr"  time="0/1" value="1" leadInLength="0/1"  name="volume"/>
              <Parameter id="8122"  name="captions"/>
             </Parameters>
             <Attributes>
              <Attribute id="8123" value="" name="ident"/>
              <Attribute id="8124" value="44100" name="sampleRate"/>
              <Attribute id="8125" value="16" name="bitDepth"/>
              <Attribute id="8126" value="1" name="gain"/>
              <Attribute id="8127" value="0" name="mixToMono"/>
             </Attributes>
            </AMFile>
            <VMFile id="8128" start="1235" duration="80" scalar="1/1" mediaStart="6646/1" mediaDuration="80/1" trackNumber="1" src="5" >
             <Transformer>
              <VectorParam id="8129"  name="translation">
               <InterpolatingParam id="8130" interp="linr"  time="-9999999/1" value="0" leadInLength="0/1"  />
               <InterpolatingParam id="8131" interp="linr"  time="-9999999/1" value="0" leadInLength="0/1"  />
               <InterpolatingParam id="8132" interp="linr"  time="-9999999/1" value="0" leadInLength="0/1"  />
              </VectorParam>
              <VectorParam id="8133"  name="rotation">
               <InterpolatingParam id="8134" interp="linr"  time="-9999999/1" value="0" leadInLength="0/1"  />
               <InterpolatingParam id="8135" interp="linr"  time="-9999999/1" value="0" leadInLength="0/1"  />
               <InterpolatingParam id="8136" interp="linr"  time="-9999999/1" value="0" leadInLength="0/1"  />
              </VectorParam>
              <VectorParam id="8137"  name="shear">
               <InterpolatingParam id="8138" interp="linr"  time="-9999999/1" value="0" leadInLength="0/1"  />
               <InterpolatingParam id="8139" interp="linr"  time="-9999999/1" value="0" leadInLength="0/1"  />
               <InterpolatingParam id="8140" interp="linr"  time="-9999999/1" value="0" leadInLength="0/1"  />
              </VectorParam>
              <VectorParam id="8141"  name="scale">
               <InterpolatingParam id="8142" interp="linr"  time="-9999999/1" value="1" leadInLength="0/1"  />
               <InterpolatingParam id="8143" interp="linr"  time="-9999999/1" value="1" leadInLength="0/1"  />
               <InterpolatingParam id="8144" interp="linr"  time="-9999999/1" value="1" leadInLength="0/1"  />
              </VectorParam>
              <VectorParam id="8145"  name="anchor">
               <InterpolatingParam id="8146" interp="linr"  time="0/1" value="0" leadInLength="0/1"  />
               <InterpolatingParam id="8147" interp="linr"  time="0/1" value="0" leadInLength="0/1"  />
               <InterpolatingParam id="8148" interp="linr"  time="0/1" value="0" leadInLength="0/1"  />
              </VectorParam>
             </Transformer>
             <Parameters>
              <VectorParam id="8149"  name="sourceCrop">
               <InterpolatingParam id="8150" interp="linr"  time="0/1" value="0" leadInLength="0/1"  />
               <InterpolatingParam id="8151" interp="linr"  time="0/1" value="0" leadInLength="0/1"  />
               <InterpolatingParam id="8152" interp="linr"  time="0/1" value="0" leadInLength="0/1"  />
               <InterpolatingParam id="8153" interp="linr"  time="0/1" value="0" leadInLength="0/1"  />
              </VectorParam>
              <VectorParam id="8154"  name="geometryCrop">
               <InterpolatingParam id="8155" interp="linr"  time="-9999999/1" value="0" leadInLength="0/1"  />
               <InterpolatingParam id="8156" interp="linr"  time="-9999999/1" value="0" leadInLength="0/1"  />
               <InterpolatingParam id="8157" interp="linr"  time="-9999999/1" value="0" leadInLength="0/1"  />
               <InterpolatingParam id="8158" interp="linr"  time="-9999999/1" value="0" leadInLength="0/1"  />
              </VectorParam>
              <InterpolatingParam id="8159" interp="linr"  time="-9999999/1" value="1" leadInLength="0/1"  name="opacity"/>
             </Parameters>
             <Attributes>
              <Attribute id="8160" value="" name="ident"/>
             </Attributes>
             <ExtraData>
              <Entry key="ZoomPanBin">
               <ZoomPanBin id="8161"  >
                <ZoomPanKeyframes>
                 <ZoomPanKeyframe id="8162" timeRangeEnd="-9999999/1" timeRangeDuration="0/1" interpolaterName="linr"  />
                </ZoomPanKeyframes>
               </ZoomPanBin>
              </Entry>
             </ExtraData>
            </VMFile>
            <MetaData>
             <entry key="WinSubProjectDisplayName" val=""/>
            </MetaData>
           </UnifiedMedia>
           <UnifiedMedia id="8163"  >
            <AMFile id="8164" start="1315" duration="73" scalar="1/1" mediaStart="6737/1" mediaDuration="73/1" trackNumber="2" src="5" channelNumber="0,1" >
             <Parameters>
              <InterpolatingParam id="8165" interp="linr"  time="0/1" value="1" leadInLength="0/1"  name="volume"/>
              <Parameter id="8166"  name="captions"/>
             </Parameters>
             <Attributes>
              <Attribute id="8167" value="" name="ident"/>
              <Attribute id="8168" value="44100" name="sampleRate"/>
              <Attribute id="8169" value="16" name="bitDepth"/>
              <Attribute id="8170" value="1" name="gain"/>
              <Attribute id="8171" value="0" name="mixToMono"/>
             </Attributes>
            </AMFile>
            <VMFile id="8172" start="1315" duration="73" scalar="1/1" mediaStart="6737/1" mediaDuration="73/1" trackNumber="1" src="5" >
             <Transformer>
              <VectorParam id="8173"  name="translation">
               <InterpolatingParam id="8174" interp="linr"  time="-9999999/1" value="0" leadInLength="0/1"  />
               <InterpolatingParam id="8175" interp="linr"  time="-9999999/1" value="0" leadInLength="0/1"  />
               <InterpolatingParam id="8176" interp="linr"  time="-9999999/1" value="0" leadInLength="0/1"  />
              </VectorParam>
              <VectorParam id="8177"  name="rotation">
               <InterpolatingParam id="8178" interp="linr"  time="-9999999/1" value="0" leadInLength="0/1"  />
               <InterpolatingParam id="8179" interp="linr"  time="-9999999/1" value="0" leadInLength="0/1"  />
               <InterpolatingParam id="8180" interp="linr"  time="-9999999/1" value="0" leadInLength="0/1"  />
              </VectorParam>
              <VectorParam id="8181"  name="shear">
               <InterpolatingParam id="8182" interp="linr"  time="-9999999/1" value="0" leadInLength="0/1"  />
               <InterpolatingParam id="8183" interp="linr"  time="-9999999/1" value="0" leadInLength="0/1"  />
               <InterpolatingParam id="8184" interp="linr"  time="-9999999/1" value="0" leadInLength="0/1"  />
              </VectorParam>
              <VectorParam id="8185"  name="scale">
               <InterpolatingParam id="8186" interp="linr"  time="-9999999/1" value="1" leadInLength="0/1"  />
               <InterpolatingParam id="8187" interp="linr"  time="-9999999/1" value="1" leadInLength="0/1"  />
               <InterpolatingParam id="8188" interp="linr"  time="-9999999/1" value="1" leadInLength="0/1"  />
              </VectorParam>
              <VectorParam id="8189"  name="anchor">
               <InterpolatingParam id="8190" interp="linr"  time="0/1" value="0" leadInLength="0/1"  />
               <InterpolatingParam id="8191" interp="linr"  time="0/1" value="0" leadInLength="0/1"  />
               <InterpolatingParam id="8192" interp="linr"  time="0/1" value="0" leadInLength="0/1"  />
              </VectorParam>
             </Transformer>
             <Parameters>
              <VectorParam id="8193"  name="sourceCrop">
               <InterpolatingParam id="8194" interp="linr"  time="0/1" value="0" leadInLength="0/1"  />
               <InterpolatingParam id="8195" interp="linr"  time="0/1" value="0" leadInLength="0/1"  />
               <InterpolatingParam id="8196" interp="linr"  time="0/1" value="0" leadInLength="0/1"  />
               <InterpolatingParam id="8197" interp="linr"  time="0/1" value="0" leadInLength="0/1"  />
              </VectorParam>
              <VectorParam id="8198"  name="geometryCrop">
               <InterpolatingParam id="8199" interp="linr"  time="-9999999/1" value="0" leadInLength="0/1"  />
               <InterpolatingParam id="8200" interp="linr"  time="-9999999/1" value="0" leadInLength="0/1"  />
               <InterpolatingParam id="8201" interp="linr"  time="-9999999/1" value="0" leadInLength="0/1"  />
               <InterpolatingParam id="8202" interp="linr"  time="-9999999/1" value="0" leadInLength="0/1"  />
              </VectorParam>
              <InterpolatingParam id="8203" interp="linr"  time="-9999999/1" value="1" leadInLength="0/1"  name="opacity"/>
             </Parameters>
             <Attributes>
              <Attribute id="8204" value="" name="ident"/>
             </Attributes>
             <ExtraData>
              <Entry key="ZoomPanBin">
               <ZoomPanBin id="8205"  >
                <ZoomPanKeyframes>
                 <ZoomPanKeyframe id="8206" timeRangeEnd="-9999999/1" timeRangeDuration="0/1" interpolaterName="linr"  />
                </ZoomPanKeyframes>
               </ZoomPanBin>
              </Entry>
             </ExtraData>
            </VMFile>
            <MetaData>
             <entry key="WinSubProjectDisplayName" val=""/>
            </MetaData>
           </UnifiedMedia>
           <UnifiedMedia id="8207"  >
            <AMFile id="8208" start="1388" duration="51" scalar="1/1" mediaStart="6822/1" mediaDuration="51/1" trackNumber="2" src="5" channelNumber="0,1" >
             <Parameters>
              <InterpolatingParam id="8209" interp="linr"  time="0/1" value="1" leadInLength="0/1"  name="volume"/>
              <Parameter id="8210"  name="captions"/>
             </Parameters>
             <Attributes>
              <Attribute id="8211" value="" name="ident"/>
              <Attribute id="8212" value="44100" name="sampleRate"/>
              <Attribute id="8213" value="16" name="bitDepth"/>
              <Attribute id="8214" value="1" name="gain"/>
              <Attribute id="8215" value="0" name="mixToMono"/>
             </Attributes>
            </AMFile>
            <VMFile id="8216" start="1388" duration="51" scalar="1/1" mediaStart="6822/1" mediaDuration="51/1" trackNumber="1" src="5" >
             <Transformer>
              <VectorParam id="8217"  name="translation">
               <InterpolatingParam id="8218" interp="linr"  time="-9999999/1" value="0" leadInLength="0/1"  />
               <InterpolatingParam id="8219" interp="linr"  time="-9999999/1" value="0" leadInLength="0/1"  />
               <InterpolatingParam id="8220" interp="linr"  time="-9999999/1" value="0" leadInLength="0/1"  />
              </VectorParam>
              <VectorParam id="8221"  name="rotation">
               <InterpolatingParam id="8222" interp="linr"  time="-9999999/1" value="0" leadInLength="0/1"  />
               <InterpolatingParam id="8223" interp="linr"  time="-9999999/1" value="0" leadInLength="0/1"  />
               <InterpolatingParam id="8224" interp="linr"  time="-9999999/1" value="0" leadInLength="0/1"  />
              </VectorParam>
              <VectorParam id="8225"  name="shear">
               <InterpolatingParam id="8226" interp="linr"  time="-9999999/1" value="0" leadInLength="0/1"  />
               <InterpolatingParam id="8227" interp="linr"  time="-9999999/1" value="0" leadInLength="0/1"  />
               <InterpolatingParam id="8228" interp="linr"  time="-9999999/1" value="0" leadInLength="0/1"  />
              </VectorParam>
              <VectorParam id="8229"  name="scale">
               <InterpolatingParam id="8230" interp="linr"  time="-9999999/1" value="1" leadInLength="0/1"  />
               <InterpolatingParam id="8231" interp="linr"  time="-9999999/1" value="1" leadInLength="0/1"  />
               <InterpolatingParam id="8232" interp="linr"  time="-9999999/1" value="1" leadInLength="0/1"  />
              </VectorParam>
              <VectorParam id="8233"  name="anchor">
               <InterpolatingParam id="8234" interp="linr"  time="0/1" value="0" leadInLength="0/1"  />
               <InterpolatingParam id="8235" interp="linr"  time="0/1" value="0" leadInLength="0/1"  />
               <InterpolatingParam id="8236" interp="linr"  time="0/1" value="0" leadInLength="0/1"  />
              </VectorParam>
             </Transformer>
             <Parameters>
              <VectorParam id="8237"  name="sourceCrop">
               <InterpolatingParam id="8238" interp="linr"  time="0/1" value="0" leadInLength="0/1"  />
               <InterpolatingParam id="8239" interp="linr"  time="0/1" value="0" leadInLength="0/1"  />
               <InterpolatingParam id="8240" interp="linr"  time="0/1" value="0" leadInLength="0/1"  />
               <InterpolatingParam id="8241" interp="linr"  time="0/1" value="0" leadInLength="0/1"  />
              </VectorParam>
              <VectorParam id="8242"  name="geometryCrop">
               <InterpolatingParam id="8243" interp="linr"  time="-9999999/1" value="0" leadInLength="0/1"  />
               <InterpolatingParam id="8244" interp="linr"  time="-9999999/1" value="0" leadInLength="0/1"  />
               <InterpolatingParam id="8245" interp="linr"  time="-9999999/1" value="0" leadInLength="0/1"  />
               <InterpolatingParam id="8246" interp="linr"  time="-9999999/1" value="0" leadInLength="0/1"  />
              </VectorParam>
              <InterpolatingParam id="8247" interp="linr"  time="-9999999/1" value="1" leadInLength="0/1"  name="opacity"/>
             </Parameters>
             <Attributes>
              <Attribute id="8248" value="" name="ident"/>
             </Attributes>
             <ExtraData>
              <Entry key="ZoomPanBin">
               <ZoomPanBin id="8249"  >
                <ZoomPanKeyframes>
                 <ZoomPanKeyframe id="8250" timeRangeEnd="-9999999/1" timeRangeDuration="0/1" interpolaterName="linr"  />
                </ZoomPanKeyframes>
               </ZoomPanBin>
              </Entry>
             </ExtraData>
            </VMFile>
            <MetaData>
             <entry key="WinSubProjectDisplayName" val=""/>
            </MetaData>
           </UnifiedMedia>
           <UnifiedMedia id="8251"  >
            <AMFile id="8252" start="1439" duration="96" scalar="1/1" mediaStart="6883/1" mediaDuration="96/1" trackNumber="2" src="5" channelNumber="0,1" >
             <Parameters>
              <InterpolatingParam id="8253" interp="linr"  time="0/1" value="1" leadInLength="0/1"  name="volume"/>
              <Parameter id="8254"  name="captions"/>
             </Parameters>
             <Attributes>
              <Attribute id="8255" value="" name="ident"/>
              <Attribute id="8256" value="44100" name="sampleRate"/>
              <Attribute id="8257" value="16" name="bitDepth"/>
              <Attribute id="8258" value="1" name="gain"/>
              <Attribute id="8259" value="0" name="mixToMono"/>
             </Attributes>
            </AMFile>
            <VMFile id="8260" start="1439" duration="96" scalar="1/1" mediaStart="6883/1" mediaDuration="96/1" trackNumber="1" src="5" >
             <Transformer>
              <VectorParam id="8261"  name="translation">
               <InterpolatingParam id="8262" interp="linr"  time="-9999999/1" value="0" leadInLength="0/1"  />
               <InterpolatingParam id="8263" interp="linr"  time="-9999999/1" value="0" leadInLength="0/1"  />
               <InterpolatingParam id="8264" interp="linr"  time="-9999999/1" value="0" leadInLength="0/1"  />
              </VectorParam>
              <VectorParam id="8265"  name="rotation">
               <InterpolatingParam id="8266" interp="linr"  time="-9999999/1" value="0" leadInLength="0/1"  />
               <InterpolatingParam id="8267" interp="linr"  time="-9999999/1" value="0" leadInLength="0/1"  />
               <InterpolatingParam id="8268" interp="linr"  time="-9999999/1" value="0" leadInLength="0/1"  />
              </VectorParam>
              <VectorParam id="8269"  name="shear">
               <InterpolatingParam id="8270" interp="linr"  time="-9999999/1" value="0" leadInLength="0/1"  />
               <InterpolatingParam id="8271" interp="linr"  time="-9999999/1" value="0" leadInLength="0/1"  />
               <InterpolatingParam id="8272" interp="linr"  time="-9999999/1" value="0" leadInLength="0/1"  />
              </VectorParam>
              <VectorParam id="8273"  name="scale">
               <InterpolatingParam id="8274" interp="linr"  time="-9999999/1" value="1" leadInLength="0/1"  />
               <InterpolatingParam id="8275" interp="linr"  time="-9999999/1" value="1" leadInLength="0/1"  />
               <InterpolatingParam id="8276" interp="linr"  time="-9999999/1" value="1" leadInLength="0/1"  />
              </VectorParam>
              <VectorParam id="8277"  name="anchor">
               <InterpolatingParam id="8278" interp="linr"  time="0/1" value="0" leadInLength="0/1"  />
               <InterpolatingParam id="8279" interp="linr"  time="0/1" value="0" leadInLength="0/1"  />
               <InterpolatingParam id="8280" interp="linr"  time="0/1" value="0" leadInLength="0/1"  />
              </VectorParam>
             </Transformer>
             <Parameters>
              <VectorParam id="8281"  name="sourceCrop">
               <InterpolatingParam id="8282" interp="linr"  time="0/1" value="0" leadInLength="0/1"  />
               <InterpolatingParam id="8283" interp="linr"  time="0/1" value="0" leadInLength="0/1"  />
               <InterpolatingParam id="8284" interp="linr"  time="0/1" value="0" leadInLength="0/1"  />
               <InterpolatingParam id="8285" interp="linr"  time="0/1" value="0" leadInLength="0/1"  />
              </VectorParam>
              <VectorParam id="8286"  name="geometryCrop">
               <InterpolatingParam id="8287" interp="linr"  time="-9999999/1" value="0" leadInLength="0/1"  />
               <InterpolatingParam id="8288" interp="linr"  time="-9999999/1" value="0" leadInLength="0/1"  />
               <InterpolatingParam id="8289" interp="linr"  time="-9999999/1" value="0" leadInLength="0/1"  />
               <InterpolatingParam id="8290" interp="linr"  time="-9999999/1" value="0" leadInLength="0/1"  />
              </VectorParam>
              <InterpolatingParam id="8291" interp="linr"  time="-9999999/1" value="1" leadInLength="0/1"  name="opacity"/>
             </Parameters>
             <Attributes>
              <Attribute id="8292" value="" name="ident"/>
             </Attributes>
             <ExtraData>
              <Entry key="ZoomPanBin">
               <ZoomPanBin id="8293"  >
                <ZoomPanKeyframes>
                 <ZoomPanKeyframe id="8294" timeRangeEnd="-9999999/1" timeRangeDuration="0/1" interpolaterName="linr"  />
                </ZoomPanKeyframes>
               </ZoomPanBin>
              </Entry>
             </ExtraData>
            </VMFile>
            <MetaData>
             <entry key="WinSubProjectDisplayName" val=""/>
            </MetaData>
           </UnifiedMedia>
           <UnifiedMedia id="8295"  >
            <AMFile id="8296" start="1535" duration="97" scalar="1/1" mediaStart="7028/1" mediaDuration="97/1" trackNumber="2" src="5" channelNumber="0,1" >
             <Parameters>
              <InterpolatingParam id="8297" interp="linr"  time="0/1" value="1" leadInLength="0/1"  name="volume"/>
              <Parameter id="8298"  name="captions"/>
             </Parameters>
             <Attributes>
              <Attribute id="8299" value="" name="ident"/>
              <Attribute id="8300" value="44100" name="sampleRate"/>
              <Attribute id="8301" value="16" name="bitDepth"/>
              <Attribute id="8302" value="1" name="gain"/>
              <Attribute id="8303" value="0" name="mixToMono"/>
             </Attributes>
            </AMFile>
            <VMFile id="8304" start="1535" duration="97" scalar="1/1" mediaStart="7028/1" mediaDuration="97/1" trackNumber="1" src="5" >
             <Transformer>
              <VectorParam id="8305"  name="translation">
               <InterpolatingParam id="8306" interp="linr"  time="-9999999/1" value="0" leadInLength="0/1"  />
               <InterpolatingParam id="8307" interp="linr"  time="-9999999/1" value="0" leadInLength="0/1"  />
               <InterpolatingParam id="8308" interp="linr"  time="-9999999/1" value="0" leadInLength="0/1"  />
              </VectorParam>
              <VectorParam id="8309"  name="rotation">
               <InterpolatingParam id="8310" interp="linr"  time="-9999999/1" value="0" leadInLength="0/1"  />
               <InterpolatingParam id="8311" interp="linr"  time="-9999999/1" value="0" leadInLength="0/1"  />
               <InterpolatingParam id="8312" interp="linr"  time="-9999999/1" value="0" leadInLength="0/1"  />
              </VectorParam>
              <VectorParam id="8313"  name="shear">
               <InterpolatingParam id="8314" interp="linr"  time="-9999999/1" value="0" leadInLength="0/1"  />
               <InterpolatingParam id="8315" interp="linr"  time="-9999999/1" value="0" leadInLength="0/1"  />
               <InterpolatingParam id="8316" interp="linr"  time="-9999999/1" value="0" leadInLength="0/1"  />
              </VectorParam>
              <VectorParam id="8317"  name="scale">
               <InterpolatingParam id="8318" interp="linr"  time="-9999999/1" value="1" leadInLength="0/1"  />
               <InterpolatingParam id="8319" interp="linr"  time="-9999999/1" value="1" leadInLength="0/1"  />
               <InterpolatingParam id="8320" interp="linr"  time="-9999999/1" value="1" leadInLength="0/1"  />
              </VectorParam>
              <VectorParam id="8321"  name="anchor">
               <InterpolatingParam id="8322" interp="linr"  time="0/1" value="0" leadInLength="0/1"  />
               <InterpolatingParam id="8323" interp="linr"  time="0/1" value="0" leadInLength="0/1"  />
               <InterpolatingParam id="8324" interp="linr"  time="0/1" value="0" leadInLength="0/1"  />
              </VectorParam>
             </Transformer>
             <Parameters>
              <VectorParam id="8325"  name="sourceCrop">
               <InterpolatingParam id="8326" interp="linr"  time="0/1" value="0" leadInLength="0/1"  />
               <InterpolatingParam id="8327" interp="linr"  time="0/1" value="0" leadInLength="0/1"  />
               <InterpolatingParam id="8328" interp="linr"  time="0/1" value="0" leadInLength="0/1"  />
               <InterpolatingParam id="8329" interp="linr"  time="0/1" value="0" leadInLength="0/1"  />
              </VectorParam>
              <VectorParam id="8330"  name="geometryCrop">
               <InterpolatingParam id="8331" interp="linr"  time="-9999999/1" value="0" leadInLength="0/1"  />
               <InterpolatingParam id="8332" interp="linr"  time="-9999999/1" value="0" leadInLength="0/1"  />
               <InterpolatingParam id="8333" interp="linr"  time="-9999999/1" value="0" leadInLength="0/1"  />
               <InterpolatingParam id="8334" interp="linr"  time="-9999999/1" value="0" leadInLength="0/1"  />
              </VectorParam>
              <InterpolatingParam id="8335" interp="linr"  time="-9999999/1" value="1" leadInLength="0/1"  name="opacity"/>
             </Parameters>
             <Attributes>
              <Attribute id="8336" value="" name="ident"/>
             </Attributes>
             <ExtraData>
              <Entry key="ZoomPanBin">
               <ZoomPanBin id="8337"  >
                <ZoomPanKeyframes>
                 <ZoomPanKeyframe id="8338" timeRangeEnd="-9999999/1" timeRangeDuration="0/1" interpolaterName="linr"  />
                </ZoomPanKeyframes>
               </ZoomPanBin>
              </Entry>
             </ExtraData>
            </VMFile>
            <MetaData>
             <entry key="WinSubProjectDisplayName" val=""/>
            </MetaData>
           </UnifiedMedia>
           <UnifiedMedia id="8339"  >
            <AMFile id="8340" start="1632" duration="3425" scalar="1/1" mediaStart="7173/1" mediaDuration="3425/1" trackNumber="2" src="5" channelNumber="0,1" >
             <Parameters>
              <InterpolatingParam id="8341" interp="linr"  time="0/1" value="1" leadInLength="0/1"  name="volume"/>
              <Parameter id="8342"  name="captions"/>
             </Parameters>
             <Attributes>
              <Attribute id="8343" value="" name="ident"/>
              <Attribute id="8344" value="44100" name="sampleRate"/>
              <Attribute id="8345" value="16" name="bitDepth"/>
              <Attribute id="8346" value="1" name="gain"/>
              <Attribute id="8347" value="0" name="mixToMono"/>
             </Attributes>
            </AMFile>
            <VMFile id="8348" start="1632" duration="3425" scalar="1/1" mediaStart="7173/1" mediaDuration="3425/1" trackNumber="1" src="5" >
             <Transformer>
              <VectorParam id="8349"  name="translation">
               <InterpolatingParam id="8350" interp="linr"  time="-9999999/1" value="0" leadInLength="0/1"  />
               <InterpolatingParam id="8351" interp="linr"  time="-9999999/1" value="0" leadInLength="0/1"  />
               <InterpolatingParam id="8352" interp="linr"  time="-9999999/1" value="0" leadInLength="0/1"  />
              </VectorParam>
              <VectorParam id="8353"  name="rotation">
               <InterpolatingParam id="8354" interp="linr"  time="-9999999/1" value="0" leadInLength="0/1"  />
               <InterpolatingParam id="8355" interp="linr"  time="-9999999/1" value="0" leadInLength="0/1"  />
               <InterpolatingParam id="8356" interp="linr"  time="-9999999/1" value="0" leadInLength="0/1"  />
              </VectorParam>
              <VectorParam id="8357"  name="shear">
               <InterpolatingParam id="8358" interp="linr"  time="-9999999/1" value="0" leadInLength="0/1"  />
               <InterpolatingParam id="8359" interp="linr"  time="-9999999/1" value="0" leadInLength="0/1"  />
               <InterpolatingParam id="8360" interp="linr"  time="-9999999/1" value="0" leadInLength="0/1"  />
              </VectorParam>
              <VectorParam id="8361"  name="scale">
               <InterpolatingParam id="8362" interp="linr"  time="-9999999/1" value="1" leadInLength="0/1"  />
               <InterpolatingParam id="8363" interp="linr"  time="-9999999/1" value="1" leadInLength="0/1"  />
               <InterpolatingParam id="8364" interp="linr"  time="-9999999/1" value="1" leadInLength="0/1"  />
              </VectorParam>
              <VectorParam id="8365"  name="anchor">
               <InterpolatingParam id="8366" interp="linr"  time="0/1" value="0" leadInLength="0/1"  />
               <InterpolatingParam id="8367" interp="linr"  time="0/1" value="0" leadInLength="0/1"  />
               <InterpolatingParam id="8368" interp="linr"  time="0/1" value="0" leadInLength="0/1"  />
              </VectorParam>
             </Transformer>
             <Parameters>
              <VectorParam id="8369"  name="sourceCrop">
               <InterpolatingParam id="8370" interp="linr"  time="0/1" value="0" leadInLength="0/1"  />
               <InterpolatingParam id="8371" interp="linr"  time="0/1" value="0" leadInLength="0/1"  />
               <InterpolatingParam id="8372" interp="linr"  time="0/1" value="0" leadInLength="0/1"  />
               <InterpolatingParam id="8373" interp="linr"  time="0/1" value="0" leadInLength="0/1"  />
              </VectorParam>
              <VectorParam id="8374"  name="geometryCrop">
               <InterpolatingParam id="8375" interp="linr"  time="-9999999/1" value="0" leadInLength="0/1"  />
               <InterpolatingParam id="8376" interp="linr"  time="-9999999/1" value="0" leadInLength="0/1"  />
               <InterpolatingParam id="8377" interp="linr"  time="-9999999/1" value="0" leadInLength="0/1"  />
               <InterpolatingParam id="8378" interp="linr"  time="-9999999/1" value="0" leadInLength="0/1"  />
              </VectorParam>
              <InterpolatingParam id="8379" interp="linr"  time="-9999999/1" value="1" leadInLength="0/1"  name="opacity"/>
             </Parameters>
             <Attributes>
              <Attribute id="8380" value="" name="ident"/>
             </Attributes>
             <ExtraData>
              <Entry key="ZoomPanBin">
               <ZoomPanBin id="8381"  >
                <ZoomPanKeyframes>
                 <ZoomPanKeyframe id="8382" timeRangeEnd="-9999999/1" timeRangeDuration="0/1" interpolaterName="linr"  />
                </ZoomPanKeyframes>
               </ZoomPanBin>
              </Entry>
             </ExtraData>
            </VMFile>
            <MetaData>
             <entry key="WinSubProjectDisplayName" val=""/>
            </MetaData>
           </UnifiedMedia>
          </Medias>
         </GenericTrack>
        </StitchedMedia>
        <StitchedMedia id="8383" start="5998" duration="643" scalar="1/1" mediaStart="201/1" mediaDuration="643/1" minMediaStart="0/1" >
         <Transformer>
          <VectorParam id="8384"  name="translation">
           <InterpolatingParam id="8385" interp="linr"  time="0/1" value="0" leadInLength="0/1"  />
           <InterpolatingParam id="8386" interp="linr"  time="0/1" value="0" leadInLength="0/1"  />
           <InterpolatingParam id="8387" interp="linr"  time="0/1" value="0" leadInLength="0/1"  />
          </VectorParam>
          <VectorParam id="8388"  name="rotation">
           <InterpolatingParam id="8389" interp="linr"  time="0/1" value="0" leadInLength="0/1"  />
           <InterpolatingParam id="8390" interp="linr"  time="0/1" value="0" leadInLength="0/1"  />
           <InterpolatingParam id="8391" interp="linr"  time="0/1" value="0" leadInLength="0/1"  />
          </VectorParam>
          <VectorParam id="8392"  name="shear">
           <InterpolatingParam id="8393" interp="linr"  time="0/1" value="0" leadInLength="0/1"  />
           <InterpolatingParam id="8394" interp="linr"  time="0/1" value="0" leadInLength="0/1"  />
           <InterpolatingParam id="8395" interp="linr"  time="0/1" value="0" leadInLength="0/1"  />
          </VectorParam>
          <VectorParam id="8396"  name="scale">
           <InterpolatingParam id="8397" interp="linr"  time="0/1" value="1" leadInLength="0/1"  />
           <InterpolatingParam id="8398" interp="linr"  time="0/1" value="1" leadInLength="0/1"  />
           <InterpolatingParam id="8399" interp="linr"  time="0/1" value="1" leadInLength="0/1"  />
          </VectorParam>
          <VectorParam id="8400"  name="anchor">
           <InterpolatingParam id="8401" interp="linr"  time="0/1" value="0" leadInLength="0/1"  />
           <InterpolatingParam id="8402" interp="linr"  time="0/1" value="0" leadInLength="0/1"  />
           <InterpolatingParam id="8403" interp="linr"  time="0/1" value="0" leadInLength="0/1"  />
          </VectorParam>
         </Transformer>
         <Parameters>
          <InterpolatingParam id="8404" interp="linr"  time="0/1" value="1" leadInLength="0/1"  name="cursorOpacity"/>
          <InterpolatingParam id="8405" interp="linr"  time="0/1" value="1" leadInLength="0/1"  name="cursorScale"/>
          <InterpolatingParam id="8406" interp="linr"  name="volume">
           <Keyframes>
           <Keyframe id="8407"  time="0/1" value="0.12406947890818858" leadInLength="0/1"  />
           <Keyframe id="8408"  time="644/1" value="0.12406947890818858" leadInLength="0/1"  />
           <Keyframe id="8409"  time="657/1" value="0.22332506203473942" leadInLength="0/1"  />
           </Keyframes>
          </InterpolatingParam>
          <Parameter id="8410"  name="captions"/>
         </Parameters>
         <Attributes>
          <Attribute id="8411" value="" name="ident"/>
          <Attribute id="8412" value="0" name="mixToMono"/>
         </Attributes>
         <MetaData>
          <entry key="WinSubProjectDisplayName" val=""/>
         </MetaData>
         <ExtraData>
          <Entry key="ZoomPanBin">
           <ZoomPanBin id="8413"  >
            <ZoomPanKeyframes>
            </ZoomPanKeyframes>
           </ZoomPanBin>
          </Entry>
          <Entry key="CursorEffectBin">
           <CursorEffectBin id="8414"  >
            <CursorEffectKeyframes>
            </CursorEffectKeyframes>
           </CursorEffectBin>
          </Entry>
         </ExtraData>
         <GenericTrack id="8415"  >
          <Attributes>
           <Attribute id="8416" value="" name="ident"/>
           <Attribute id="8417" value="0" name="audioMuted"/>
           <Attribute id="8418" value="0" name="videoHidden"/>
          </Attributes>
          <MetaData>
           <entry key="IsLocked" val="False"/>
           <entry key="WinTrackHeight" val="0"/>
          </MetaData>
          <Medias>
           <AMFile id="8419" start="0" duration="561" scalar="1/1" mediaStart="0/1" mediaDuration="561/1" trackNumber="0" src="14" channelNumber="0,1" >
            <Parameters>
             <InterpolatingParam id="8420" interp="linr"  time="0/1" value="1" leadInLength="0/1"  name="volume"/>
             <Parameter id="8421"  name="captions"/>
            </Parameters>
            <Attributes>
             <Attribute id="8422" value="" name="ident"/>
             <Attribute id="8423" value="44100" name="sampleRate"/>
             <Attribute id="8424" value="0" name="bitDepth"/>
             <Attribute id="8425" value="1" name="gain"/>
             <Attribute id="8426" value="0" name="mixToMono"/>
            </Attributes>
            <MetaData>
             <entry key="WinSubProjectDisplayName" val=""/>
            </MetaData>
           </AMFile>
           <AMFile id="8427" start="561" duration="161" scalar="1/1" mediaStart="580/1" mediaDuration="161/1" trackNumber="0" src="14" channelNumber="0,1" >
            <Parameters>
             <InterpolatingParam id="8428" interp="linr"  time="0/1" value="1" leadInLength="0/1"  name="volume"/>
             <Parameter id="8429"  name="captions"/>
            </Parameters>
            <Attributes>
             <Attribute id="8430" value="" name="ident"/>
             <Attribute id="8431" value="44100" name="sampleRate"/>
             <Attribute id="8432" value="0" name="bitDepth"/>
             <Attribute id="8433" value="1" name="gain"/>
             <Attribute id="8434" value="0" name="mixToMono"/>
            </Attributes>
            <MetaData>
             <entry key="WinSubProjectDisplayName" val=""/>
            </MetaData>
           </AMFile>
           <AMFile id="8435" start="722" duration="87" scalar="1/1" mediaStart="753/1" mediaDuration="87/1" trackNumber="0" src="14" channelNumber="0,1" >
            <Parameters>
             <InterpolatingParam id="8436" interp="linr"  time="0/1" value="1" leadInLength="0/1"  name="volume"/>
             <Parameter id="8437"  name="captions"/>
            </Parameters>
            <Attributes>
             <Attribute id="8438" value="" name="ident"/>
             <Attribute id="8439" value="44100" name="sampleRate"/>
             <Attribute id="8440" value="0" name="bitDepth"/>
             <Attribute id="8441" value="1" name="gain"/>
             <Attribute id="8442" value="0" name="mixToMono"/>
            </Attributes>
            <MetaData>
             <entry key="WinSubProjectDisplayName" val=""/>
            </MetaData>
           </AMFile>
           <AMFile id="8443" start="809" duration="17" scalar="1/1" mediaStart="865/1" mediaDuration="17/1" trackNumber="0" src="14" channelNumber="0,1" >
            <Parameters>
             <InterpolatingParam id="8444" interp="linr"  time="0/1" value="1" leadInLength="0/1"  name="volume"/>
             <Parameter id="8445"  name="captions"/>
            </Parameters>
            <Attributes>
             <Attribute id="8446" value="" name="ident"/>
             <Attribute id="8447" value="44100" name="sampleRate"/>
             <Attribute id="8448" value="0" name="bitDepth"/>
             <Attribute id="8449" value="1" name="gain"/>
             <Attribute id="8450" value="0" name="mixToMono"/>
            </Attributes>
            <MetaData>
             <entry key="WinSubProjectDisplayName" val=""/>
            </MetaData>
           </AMFile>
           <AMFile id="8451" start="826" duration="38" scalar="1/1" mediaStart="889/1" mediaDuration="38/1" trackNumber="0" src="14" channelNumber="0,1" >
            <Parameters>
             <InterpolatingParam id="8452" interp="linr"  time="0/1" value="1" leadInLength="0/1"  name="volume"/>
             <Parameter id="8453"  name="captions"/>
            </Parameters>
            <Attributes>
             <Attribute id="8454" value="" name="ident"/>
             <Attribute id="8455" value="44100" name="sampleRate"/>
             <Attribute id="8456" value="0" name="bitDepth"/>
             <Attribute id="8457" value="1" name="gain"/>
             <Attribute id="8458" value="0" name="mixToMono"/>
            </Attributes>
            <MetaData>
             <entry key="WinSubProjectDisplayName" val=""/>
            </MetaData>
           </AMFile>
          </Medias>
         </GenericTrack>
        </StitchedMedia>
       </Medias>
      </GenericTrack>
      <GenericTrack id="8459"  >
       <Attributes>
        <Attribute id="8460" value="" name="ident"/>
        <Attribute id="8461" value="0" name="audioMuted"/>
        <Attribute id="8462" value="0" name="videoHidden"/>
       </Attributes>
       <MetaData>
        <entry key="IsLocked" val="False"/>
        <entry key="WinTrackHeight" val="62"/>
       </MetaData>
       <Medias>
        <StitchedMedia id="8463" start="4" duration="3804" scalar="1/1" mediaStart="0/1" mediaDuration="3804/1" minMediaStart="0/1" >
         <Transformer>
          <VectorParam id="8464"  name="translation">
           <InterpolatingParam id="8465" interp="linr"  time="0/1" value="0" leadInLength="0/1"  />
           <InterpolatingParam id="8466" interp="linr"  time="0/1" value="0" leadInLength="0/1"  />
           <InterpolatingParam id="8467" interp="linr"  time="0/1" value="0" leadInLength="0/1"  />
          </VectorParam>
          <VectorParam id="8468"  name="rotation">
           <InterpolatingParam id="8469" interp="linr"  time="0/1" value="0" leadInLength="0/1"  />
           <InterpolatingParam id="8470" interp="linr"  time="0/1" value="0" leadInLength="0/1"  />
           <InterpolatingParam id="8471" interp="linr"  time="0/1" value="0" leadInLength="0/1"  />
          </VectorParam>
          <VectorParam id="8472"  name="shear">
           <InterpolatingParam id="8473" interp="linr"  time="0/1" value="0" leadInLength="0/1"  />
           <InterpolatingParam id="8474" interp="linr"  time="0/1" value="0" leadInLength="0/1"  />
           <InterpolatingParam id="8475" interp="linr"  time="0/1" value="0" leadInLength="0/1"  />
          </VectorParam>
          <VectorParam id="8476"  name="scale">
           <InterpolatingParam id="8477" interp="linr"  time="0/1" value="1" leadInLength="0/1"  />
           <InterpolatingParam id="8478" interp="linr"  time="0/1" value="1" leadInLength="0/1"  />
           <InterpolatingParam id="8479" interp="linr"  time="0/1" value="1" leadInLength="0/1"  />
          </VectorParam>
          <VectorParam id="8480"  name="anchor">
           <InterpolatingParam id="8481" interp="linr"  time="0/1" value="0" leadInLength="0/1"  />
           <InterpolatingParam id="8482" interp="linr"  time="0/1" value="0" leadInLength="0/1"  />
           <InterpolatingParam id="8483" interp="linr"  time="0/1" value="0" leadInLength="0/1"  />
          </VectorParam>
         </Transformer>
         <Parameters>
          <InterpolatingParam id="8484" interp="linr"  time="0/1" value="1" leadInLength="0/1"  name="cursorOpacity"/>
          <InterpolatingParam id="8485" interp="linr"  time="0/1" value="1" leadInLength="0/1"  name="cursorScale"/>
          <InterpolatingParam id="8486" interp="linr"  name="volume">
           <Keyframes>
           <Keyframe id="8487"  time="0/1" value="0.27295285359801486" leadInLength="0/1"  />
           <Keyframe id="8488"  time="252/1" value="0.27295285359801486" leadInLength="0/1"  />
           <Keyframe id="8489"  time="259/1" value="0.18675721561969438" leadInLength="0/1"  />
           <Keyframe id="8490"  time="533/2" value="0.15541334726394149" leadInLength="0/1"  />
           <Keyframe id="8491"  time="276/1" value="0.13033825257933918" leadInLength="0/1"  />
           <Keyframe id="8492"  time="277/1" value="0.12406947890818858" leadInLength="0/1"  />
           </Keyframes>
          </InterpolatingParam>
          <Parameter id="8493"  name="captions"/>
         </Parameters>
         <Attributes>
          <Attribute id="8494" value="" name="ident"/>
          <Attribute id="8495" value="0" name="mixToMono"/>
         </Attributes>
         <MetaData>
          <entry key="WinSubProjectDisplayName" val=""/>
         </MetaData>
         <ExtraData>
          <Entry key="ZoomPanBin">
           <ZoomPanBin id="8496"  >
            <ZoomPanKeyframes>
            </ZoomPanKeyframes>
           </ZoomPanBin>
          </Entry>
          <Entry key="CursorEffectBin">
           <CursorEffectBin id="8497"  >
            <CursorEffectKeyframes>
            </CursorEffectKeyframes>
           </CursorEffectBin>
          </Entry>
         </ExtraData>
         <GenericTrack id="8498"  >
          <Attributes>
           <Attribute id="8499" value="" name="ident"/>
           <Attribute id="8500" value="0" name="audioMuted"/>
           <Attribute id="8501" value="0" name="videoHidden"/>
          </Attributes>
          <MetaData>
           <entry key="IsLocked" val="False"/>
           <entry key="WinTrackHeight" val="0"/>
          </MetaData>
          <Medias>
           <AMFile id="8502" start="0" duration="274" scalar="1/1" mediaStart="0/1" mediaDuration="274/1" trackNumber="0" src="8" channelNumber="0,1" >
            <Parameters>
             <InterpolatingParam id="8503" interp="linr"  time="0/1" value="1" leadInLength="0/1"  name="volume"/>
             <Parameter id="8504"  name="captions"/>
            </Parameters>
            <Attributes>
             <Attribute id="8505" value="" name="ident"/>
             <Attribute id="8506" value="44100" name="sampleRate"/>
             <Attribute id="8507" value="0" name="bitDepth"/>
             <Attribute id="8508" value="1" name="gain"/>
             <Attribute id="8509" value="0" name="mixToMono"/>
            </Attributes>
            <MetaData>
             <entry key="WinSubProjectDisplayName" val=""/>
            </MetaData>
           </AMFile>
           <AMFile id="8510" start="274" duration="105" scalar="1/1" mediaStart="311/1" mediaDuration="105/1" trackNumber="0" src="8" channelNumber="0,1" >
            <Parameters>
             <InterpolatingParam id="8511" interp="linr"  time="0/1" value="1" leadInLength="0/1"  name="volume"/>
             <Parameter id="8512"  name="captions"/>
            </Parameters>
            <Attributes>
             <Attribute id="8513" value="" name="ident"/>
             <Attribute id="8514" value="44100" name="sampleRate"/>
             <Attribute id="8515" value="0" name="bitDepth"/>
             <Attribute id="8516" value="1" name="gain"/>
             <Attribute id="8517" value="0" name="mixToMono"/>
            </Attributes>
            <MetaData>
             <entry key="WinSubProjectDisplayName" val=""/>
            </MetaData>
           </AMFile>
           <AMFile id="8518" start="379" duration="39" scalar="1/1" mediaStart="426/1" mediaDuration="39/1" trackNumber="0" src="8" channelNumber="0,1" >
            <Parameters>
             <InterpolatingParam id="8519" interp="linr"  time="0/1" value="1" leadInLength="0/1"  name="volume"/>
             <Parameter id="8520"  name="captions"/>
            </Parameters>
            <Attributes>
             <Attribute id="8521" value="" name="ident"/>
             <Attribute id="8522" value="44100" name="sampleRate"/>
             <Attribute id="8523" value="0" name="bitDepth"/>
             <Attribute id="8524" value="1" name="gain"/>
             <Attribute id="8525" value="0" name="mixToMono"/>
            </Attributes>
            <MetaData>
             <entry key="WinSubProjectDisplayName" val=""/>
            </MetaData>
           </AMFile>
           <AMFile id="8526" start="418" duration="109" scalar="1/1" mediaStart="521/1" mediaDuration="109/1" trackNumber="0" src="8" channelNumber="0,1" >
            <Parameters>
             <InterpolatingParam id="8527" interp="linr"  time="0/1" value="1" leadInLength="0/1"  name="volume"/>
             <Parameter id="8528"  name="captions"/>
            </Parameters>
            <Attributes>
             <Attribute id="8529" value="" name="ident"/>
             <Attribute id="8530" value="44100" name="sampleRate"/>
             <Attribute id="8531" value="0" name="bitDepth"/>
             <Attribute id="8532" value="1" name="gain"/>
             <Attribute id="8533" value="0" name="mixToMono"/>
            </Attributes>
            <MetaData>
             <entry key="WinSubProjectDisplayName" val=""/>
            </MetaData>
           </AMFile>
           <AMFile id="8534" start="527" duration="38" scalar="1/1" mediaStart="637/1" mediaDuration="38/1" trackNumber="0" src="8" channelNumber="0,1" >
            <Parameters>
             <InterpolatingParam id="8535" interp="linr"  time="0/1" value="1" leadInLength="0/1"  name="volume"/>
             <Parameter id="8536"  name="captions"/>
            </Parameters>
            <Attributes>
             <Attribute id="8537" value="" name="ident"/>
             <Attribute id="8538" value="44100" name="sampleRate"/>
             <Attribute id="8539" value="0" name="bitDepth"/>
             <Attribute id="8540" value="1" name="gain"/>
             <Attribute id="8541" value="0" name="mixToMono"/>
            </Attributes>
            <MetaData>
             <entry key="WinSubProjectDisplayName" val=""/>
            </MetaData>
           </AMFile>
           <AMFile id="8542" start="565" duration="1" scalar="1/1" mediaStart="779/1" mediaDuration="1/1" trackNumber="0" src="8" channelNumber="0,1" >
            <Parameters>
             <InterpolatingParam id="8543" interp="linr"  time="0/1" value="1" leadInLength="0/1"  name="volume"/>
             <Parameter id="8544"  name="captions"/>
            </Parameters>
            <Attributes>
             <Attribute id="8545" value="" name="ident"/>
             <Attribute id="8546" value="44100" name="sampleRate"/>
             <Attribute id="8547" value="0" name="bitDepth"/>
             <Attribute id="8548" value="1" name="gain"/>
             <Attribute id="8549" value="0" name="mixToMono"/>
            </Attributes>
            <MetaData>
             <entry key="WinSubProjectDisplayName" val=""/>
            </MetaData>
           </AMFile>
           <AMFile id="8550" start="566" duration="1" scalar="1/1" mediaStart="835/1" mediaDuration="1/1" trackNumber="0" src="8" channelNumber="0,1" >
            <Parameters>
             <InterpolatingParam id="8551" interp="linr"  time="0/1" value="1" leadInLength="0/1"  name="volume"/>
             <Parameter id="8552"  name="captions"/>
            </Parameters>
            <Attributes>
             <Attribute id="8553" value="" name="ident"/>
             <Attribute id="8554" value="44100" name="sampleRate"/>
             <Attribute id="8555" value="0" name="bitDepth"/>
             <Attribute id="8556" value="1" name="gain"/>
             <Attribute id="8557" value="0" name="mixToMono"/>
            </Attributes>
            <MetaData>
             <entry key="WinSubProjectDisplayName" val=""/>
            </MetaData>
           </AMFile>
           <AMFile id="8558" start="567" duration="80" scalar="1/1" mediaStart="844/1" mediaDuration="80/1" trackNumber="0" src="8" channelNumber="0,1" >
            <Parameters>
             <InterpolatingParam id="8559" interp="linr"  time="0/1" value="1" leadInLength="0/1"  name="volume"/>
             <Parameter id="8560"  name="captions"/>
            </Parameters>
            <Attributes>
             <Attribute id="8561" value="" name="ident"/>
             <Attribute id="8562" value="44100" name="sampleRate"/>
             <Attribute id="8563" value="0" name="bitDepth"/>
             <Attribute id="8564" value="1" name="gain"/>
             <Attribute id="8565" value="0" name="mixToMono"/>
            </Attributes>
            <MetaData>
             <entry key="WinSubProjectDisplayName" val=""/>
            </MetaData>
           </AMFile>
           <AMFile id="8566" start="647" duration="73" scalar="1/1" mediaStart="935/1" mediaDuration="73/1" trackNumber="0" src="8" channelNumber="0,1" >
            <Parameters>
             <InterpolatingParam id="8567" interp="linr"  time="0/1" value="1" leadInLength="0/1"  name="volume"/>
             <Parameter id="8568"  name="captions"/>
            </Parameters>
            <Attributes>
             <Attribute id="8569" value="" name="ident"/>
             <Attribute id="8570" value="44100" name="sampleRate"/>
             <Attribute id="8571" value="0" name="bitDepth"/>
             <Attribute id="8572" value="1" name="gain"/>
             <Attribute id="8573" value="0" name="mixToMono"/>
            </Attributes>
            <MetaData>
             <entry key="WinSubProjectDisplayName" val=""/>
            </MetaData>
           </AMFile>
           <AMFile id="8574" start="720" duration="51" scalar="1/1" mediaStart="1020/1" mediaDuration="51/1" trackNumber="0" src="8" channelNumber="0,1" >
            <Parameters>
             <InterpolatingParam id="8575" interp="linr"  time="0/1" value="1" leadInLength="0/1"  name="volume"/>
             <Parameter id="8576"  name="captions"/>
            </Parameters>
            <Attributes>
             <Attribute id="8577" value="" name="ident"/>
             <Attribute id="8578" value="44100" name="sampleRate"/>
             <Attribute id="8579" value="0" name="bitDepth"/>
             <Attribute id="8580" value="1" name="gain"/>
             <Attribute id="8581" value="0" name="mixToMono"/>
            </Attributes>
            <MetaData>
             <entry key="WinSubProjectDisplayName" val=""/>
            </MetaData>
           </AMFile>
           <AMFile id="8582" start="771" duration="47" scalar="1/1" mediaStart="1081/1" mediaDuration="47/1" trackNumber="0" src="8" channelNumber="0,1" >
            <Parameters>
             <InterpolatingParam id="8583" interp="linr"  time="0/1" value="1" leadInLength="0/1"  name="volume"/>
             <Parameter id="8584"  name="captions"/>
            </Parameters>
            <Attributes>
             <Attribute id="8585" value="" name="ident"/>
             <Attribute id="8586" value="44100" name="sampleRate"/>
             <Attribute id="8587" value="0" name="bitDepth"/>
             <Attribute id="8588" value="1" name="gain"/>
             <Attribute id="8589" value="0" name="mixToMono"/>
            </Attributes>
            <MetaData>
             <entry key="WinSubProjectDisplayName" val=""/>
            </MetaData>
           </AMFile>
           <AMFile id="8590" start="818" duration="55" scalar="1/1" mediaStart="1333/1" mediaDuration="55/1" trackNumber="0" src="8" channelNumber="0,1" >
            <Parameters>
             <InterpolatingParam id="8591" interp="linr"  time="0/1" value="1" leadInLength="0/1"  name="volume"/>
             <Parameter id="8592"  name="captions"/>
            </Parameters>
            <Attributes>
             <Attribute id="8593" value="" name="ident"/>
             <Attribute id="8594" value="44100" name="sampleRate"/>
             <Attribute id="8595" value="0" name="bitDepth"/>
             <Attribute id="8596" value="1" name="gain"/>
             <Attribute id="8597" value="0" name="mixToMono"/>
            </Attributes>
            <MetaData>
             <entry key="WinSubProjectDisplayName" val=""/>
            </MetaData>
           </AMFile>
           <AMFile id="8598" start="873" duration="76" scalar="1/1" mediaStart="1394/1" mediaDuration="76/1" trackNumber="0" src="8" channelNumber="0,1" >
            <Parameters>
             <InterpolatingParam id="8599" interp="linr"  time="0/1" value="1" leadInLength="0/1"  name="volume"/>
             <Parameter id="8600"  name="captions"/>
            </Parameters>
            <Attributes>
             <Attribute id="8601" value="" name="ident"/>
             <Attribute id="8602" value="44100" name="sampleRate"/>
             <Attribute id="8603" value="0" name="bitDepth"/>
             <Attribute id="8604" value="1" name="gain"/>
             <Attribute id="8605" value="0" name="mixToMono"/>
            </Attributes>
            <MetaData>
             <entry key="WinSubProjectDisplayName" val=""/>
            </MetaData>
           </AMFile>
           <AMFile id="8606" start="949" duration="82" scalar="1/1" mediaStart="1477/1" mediaDuration="82/1" trackNumber="0" src="8" channelNumber="0,1" >
            <Parameters>
             <InterpolatingParam id="8607" interp="linr"  time="0/1" value="1" leadInLength="0/1"  name="volume"/>
             <Parameter id="8608"  name="captions"/>
            </Parameters>
            <Attributes>
             <Attribute id="8609" value="" name="ident"/>
             <Attribute id="8610" value="44100" name="sampleRate"/>
             <Attribute id="8611" value="0" name="bitDepth"/>
             <Attribute id="8612" value="1" name="gain"/>
             <Attribute id="8613" value="0" name="mixToMono"/>
            </Attributes>
            <MetaData>
             <entry key="WinSubProjectDisplayName" val=""/>
            </MetaData>
           </AMFile>
           <AMFile id="8614" start="1031" duration="94" scalar="1/1" mediaStart="1572/1" mediaDuration="94/1" trackNumber="0" src="8" channelNumber="0,1" >
            <Parameters>
             <InterpolatingParam id="8615" interp="linr"  time="0/1" value="1" leadInLength="0/1"  name="volume"/>
             <Parameter id="8616"  name="captions"/>
            </Parameters>
            <Attributes>
             <Attribute id="8617" value="" name="ident"/>
             <Attribute id="8618" value="44100" name="sampleRate"/>
             <Attribute id="8619" value="0" name="bitDepth"/>
             <Attribute id="8620" value="1" name="gain"/>
             <Attribute id="8621" value="0" name="mixToMono"/>
            </Attributes>
            <MetaData>
             <entry key="WinSubProjectDisplayName" val=""/>
            </MetaData>
           </AMFile>
           <AMFile id="8622" start="1125" duration="30" scalar="1/1" mediaStart="1685/1" mediaDuration="30/1" trackNumber="0" src="8" channelNumber="0,1" >
            <Parameters>
             <InterpolatingParam id="8623" interp="linr"  time="0/1" value="1" leadInLength="0/1"  name="volume"/>
             <Parameter id="8624"  name="captions"/>
            </Parameters>
            <Attributes>
             <Attribute id="8625" value="" name="ident"/>
             <Attribute id="8626" value="44100" name="sampleRate"/>
             <Attribute id="8627" value="0" name="bitDepth"/>
             <Attribute id="8628" value="1" name="gain"/>
             <Attribute id="8629" value="0" name="mixToMono"/>
            </Attributes>
            <MetaData>
             <entry key="WinSubProjectDisplayName" val=""/>
            </MetaData>
           </AMFile>
           <AMFile id="8630" start="1155" duration="15" scalar="1/1" mediaStart="1723/1" mediaDuration="15/1" trackNumber="0" src="8" channelNumber="0,1" >
            <Parameters>
             <InterpolatingParam id="8631" interp="linr"  time="0/1" value="1" leadInLength="0/1"  name="volume"/>
             <Parameter id="8632"  name="captions"/>
            </Parameters>
            <Attributes>
             <Attribute id="8633" value="" name="ident"/>
             <Attribute id="8634" value="44100" name="sampleRate"/>
             <Attribute id="8635" value="0" name="bitDepth"/>
             <Attribute id="8636" value="1" name="gain"/>
             <Attribute id="8637" value="0" name="mixToMono"/>
            </Attributes>
            <MetaData>
             <entry key="WinSubProjectDisplayName" val=""/>
            </MetaData>
           </AMFile>
           <AMFile id="8638" start="1170" duration="7" scalar="1/1" mediaStart="1773/1" mediaDuration="7/1" trackNumber="0" src="8" channelNumber="0,1" >
            <Parameters>
             <InterpolatingParam id="8639" interp="linr"  time="0/1" value="1" leadInLength="0/1"  name="volume"/>
             <Parameter id="8640"  name="captions"/>
            </Parameters>
            <Attributes>
             <Attribute id="8641" value="" name="ident"/>
             <Attribute id="8642" value="44100" name="sampleRate"/>
             <Attribute id="8643" value="0" name="bitDepth"/>
             <Attribute id="8644" value="1" name="gain"/>
             <Attribute id="8645" value="0" name="mixToMono"/>
            </Attributes>
            <MetaData>
             <entry key="WinSubProjectDisplayName" val=""/>
            </MetaData>
           </AMFile>
           <AMFile id="8646" start="1177" duration="25" scalar="1/1" mediaStart="1784/1" mediaDuration="25/1" trackNumber="0" src="8" channelNumber="0,1" >
            <Parameters>
             <InterpolatingParam id="8647" interp="linr"  time="0/1" value="1" leadInLength="0/1"  name="volume"/>
             <Parameter id="8648"  name="captions"/>
            </Parameters>
            <Attributes>
             <Attribute id="8649" value="" name="ident"/>
             <Attribute id="8650" value="44100" name="sampleRate"/>
             <Attribute id="8651" value="0" name="bitDepth"/>
             <Attribute id="8652" value="1" name="gain"/>
             <Attribute id="8653" value="0" name="mixToMono"/>
            </Attributes>
            <MetaData>
             <entry key="WinSubProjectDisplayName" val=""/>
            </MetaData>
           </AMFile>
           <AMFile id="8654" start="1202" duration="21" scalar="1/1" mediaStart="1813/1" mediaDuration="21/1" trackNumber="0" src="8" channelNumber="0,1" >
            <Parameters>
             <InterpolatingParam id="8655" interp="linr"  time="0/1" value="1" leadInLength="0/1"  name="volume"/>
             <Parameter id="8656"  name="captions"/>
            </Parameters>
            <Attributes>
             <Attribute id="8657" value="" name="ident"/>
             <Attribute id="8658" value="44100" name="sampleRate"/>
             <Attribute id="8659" value="0" name="bitDepth"/>
             <Attribute id="8660" value="1" name="gain"/>
             <Attribute id="8661" value="0" name="mixToMono"/>
            </Attributes>
            <MetaData>
             <entry key="WinSubProjectDisplayName" val=""/>
            </MetaData>
           </AMFile>
           <AMFile id="8662" start="1223" duration="2" scalar="1/1" mediaStart="1839/1" mediaDuration="2/1" trackNumber="0" src="8" channelNumber="0,1" >
            <Parameters>
             <InterpolatingParam id="8663" interp="linr"  time="0/1" value="1" leadInLength="0/1"  name="volume"/>
             <Parameter id="8664"  name="captions"/>
            </Parameters>
            <Attributes>
             <Attribute id="8665" value="" name="ident"/>
             <Attribute id="8666" value="44100" name="sampleRate"/>
             <Attribute id="8667" value="0" name="bitDepth"/>
             <Attribute id="8668" value="1" name="gain"/>
             <Attribute id="8669" value="0" name="mixToMono"/>
            </Attributes>
            <MetaData>
             <entry key="WinSubProjectDisplayName" val=""/>
            </MetaData>
           </AMFile>
           <AMFile id="8670" start="1225" duration="58" scalar="1/1" mediaStart="2243/1" mediaDuration="58/1" trackNumber="0" src="8" channelNumber="0,1" >
            <Parameters>
             <InterpolatingParam id="8671" interp="linr"  time="0/1" value="1" leadInLength="0/1"  name="volume"/>
             <Parameter id="8672"  name="captions"/>
            </Parameters>
            <Attributes>
             <Attribute id="8673" value="" name="ident"/>
             <Attribute id="8674" value="44100" name="sampleRate"/>
             <Attribute id="8675" value="0" name="bitDepth"/>
             <Attribute id="8676" value="1" name="gain"/>
             <Attribute id="8677" value="0" name="mixToMono"/>
            </Attributes>
            <MetaData>
             <entry key="WinSubProjectDisplayName" val=""/>
            </MetaData>
           </AMFile>
           <AMFile id="8678" start="1283" duration="99" scalar="1/1" mediaStart="2405/1" mediaDuration="99/1" trackNumber="0" src="8" channelNumber="0,1" >
            <Parameters>
             <InterpolatingParam id="8679" interp="linr"  time="0/1" value="1" leadInLength="0/1"  name="volume"/>
             <Parameter id="8680"  name="captions"/>
            </Parameters>
            <Attributes>
             <Attribute id="8681" value="" name="ident"/>
             <Attribute id="8682" value="44100" name="sampleRate"/>
             <Attribute id="8683" value="0" name="bitDepth"/>
             <Attribute id="8684" value="1" name="gain"/>
             <Attribute id="8685" value="0" name="mixToMono"/>
            </Attributes>
            <MetaData>
             <entry key="WinSubProjectDisplayName" val=""/>
            </MetaData>
           </AMFile>
           <AMFile id="8686" start="1382" duration="322" scalar="1/1" mediaStart="2510/1" mediaDuration="322/1" trackNumber="0" src="8" channelNumber="0,1" >
            <Parameters>
             <InterpolatingParam id="8687" interp="linr"  time="0/1" value="1" leadInLength="0/1"  name="volume"/>
             <Parameter id="8688"  name="captions"/>
            </Parameters>
            <Attributes>
             <Attribute id="8689" value="" name="ident"/>
             <Attribute id="8690" value="44100" name="sampleRate"/>
             <Attribute id="8691" value="0" name="bitDepth"/>
             <Attribute id="8692" value="1" name="gain"/>
             <Attribute id="8693" value="0" name="mixToMono"/>
            </Attributes>
            <MetaData>
             <entry key="WinSubProjectDisplayName" val=""/>
            </MetaData>
           </AMFile>
           <AMFile id="8694" start="1704" duration="34" scalar="1/1" mediaStart="3145/1" mediaDuration="34/1" trackNumber="0" src="8" channelNumber="0,1" >
            <Parameters>
             <InterpolatingParam id="8695" interp="linr"  time="0/1" value="1" leadInLength="0/1"  name="volume"/>
             <Parameter id="8696"  name="captions"/>
            </Parameters>
            <Attributes>
             <Attribute id="8697" value="" name="ident"/>
             <Attribute id="8698" value="44100" name="sampleRate"/>
             <Attribute id="8699" value="0" name="bitDepth"/>
             <Attribute id="8700" value="1" name="gain"/>
             <Attribute id="8701" value="0" name="mixToMono"/>
            </Attributes>
            <MetaData>
             <entry key="WinSubProjectDisplayName" val=""/>
            </MetaData>
           </AMFile>
           <AMFile id="8702" start="1738" duration="520" scalar="1/1" mediaStart="3205/1" mediaDuration="520/1" trackNumber="0" src="8" channelNumber="0,1" >
            <Parameters>
             <InterpolatingParam id="8703" interp="linr"  time="0/1" value="1" leadInLength="0/1"  name="volume"/>
             <Parameter id="8704"  name="captions"/>
            </Parameters>
            <Attributes>
             <Attribute id="8705" value="" name="ident"/>
             <Attribute id="8706" value="44100" name="sampleRate"/>
             <Attribute id="8707" value="0" name="bitDepth"/>
             <Attribute id="8708" value="1" name="gain"/>
             <Attribute id="8709" value="0" name="mixToMono"/>
            </Attributes>
            <MetaData>
             <entry key="WinSubProjectDisplayName" val=""/>
            </MetaData>
           </AMFile>
           <AMFile id="8710" start="2258" duration="771" scalar="1/1" mediaStart="3732/1" mediaDuration="771/1" trackNumber="0" src="8" channelNumber="0,1" >
            <Parameters>
             <InterpolatingParam id="8711" interp="linr"  time="0/1" value="1" leadInLength="0/1"  name="volume"/>
             <Parameter id="8712"  name="captions"/>
            </Parameters>
            <Attributes>
             <Attribute id="8713" value="" name="ident"/>
             <Attribute id="8714" value="44100" name="sampleRate"/>
             <Attribute id="8715" value="0" name="bitDepth"/>
             <Attribute id="8716" value="1" name="gain"/>
             <Attribute id="8717" value="0" name="mixToMono"/>
            </Attributes>
            <MetaData>
             <entry key="WinSubProjectDisplayName" val=""/>
            </MetaData>
           </AMFile>
           <AMFile id="8718" start="3029" duration="247" scalar="1/1" mediaStart="4512/1" mediaDuration="247/1" trackNumber="0" src="8" channelNumber="0,1" >
            <Parameters>
             <InterpolatingParam id="8719" interp="linr"  time="0/1" value="1" leadInLength="0/1"  name="volume"/>
             <Parameter id="8720"  name="captions"/>
            </Parameters>
            <Attributes>
             <Attribute id="8721" value="" name="ident"/>
             <Attribute id="8722" value="44100" name="sampleRate"/>
             <Attribute id="8723" value="0" name="bitDepth"/>
             <Attribute id="8724" value="1" name="gain"/>
             <Attribute id="8725" value="0" name="mixToMono"/>
            </Attributes>
            <MetaData>
             <entry key="WinSubProjectDisplayName" val=""/>
            </MetaData>
           </AMFile>
           <AMFile id="8726" start="3276" duration="203" scalar="1/1" mediaStart="4769/1" mediaDuration="203/1" trackNumber="0" src="8" channelNumber="0,1" >
            <Parameters>
             <InterpolatingParam id="8727" interp="linr"  time="0/1" value="1" leadInLength="0/1"  name="volume"/>
             <Parameter id="8728"  name="captions"/>
            </Parameters>
            <Attributes>
             <Attribute id="8729" value="" name="ident"/>
             <Attribute id="8730" value="44100" name="sampleRate"/>
             <Attribute id="8731" value="0" name="bitDepth"/>
             <Attribute id="8732" value="1" name="gain"/>
             <Attribute id="8733" value="0" name="mixToMono"/>
            </Attributes>
            <MetaData>
             <entry key="WinSubProjectDisplayName" val=""/>
            </MetaData>
           </AMFile>
           <AMFile id="8734" start="3479" duration="325" scalar="1/1" mediaStart="4991/1" mediaDuration="325/1" trackNumber="0" src="8" channelNumber="0,1" >
            <Parameters>
             <InterpolatingParam id="8735" interp="linr"  time="0/1" value="1" leadInLength="0/1"  name="volume"/>
             <Parameter id="8736"  name="captions"/>
            </Parameters>
            <Attributes>
             <Attribute id="8737" value="" name="ident"/>
             <Attribute id="8738" value="44100" name="sampleRate"/>
             <Attribute id="8739" value="0" name="bitDepth"/>
             <Attribute id="8740" value="1" name="gain"/>
             <Attribute id="8741" value="0" name="mixToMono"/>
            </Attributes>
            <MetaData>
             <entry key="WinSubProjectDisplayName" val=""/>
            </MetaData>
           </AMFile>
          </Medias>
         </GenericTrack>
        </StitchedMedia>
        <Group id="8742" start="5998" duration="600" scalar="1" mediaStart="0" mediaDuration="600" baseWidthAttr="0" baseHeightAttr="0"  >
         <Parameters>
          <VectorParam id="8743"  name="sourceCrop">
           <InterpolatingParam id="8744" interp="linr"  time="0/1" value="0" leadInLength="0/1"  />
           <InterpolatingParam id="8745" interp="linr"  time="0/1" value="0" leadInLength="0/1"  />
           <InterpolatingParam id="8746" interp="linr"  time="0/1" value="0" leadInLength="0/1"  />
           <InterpolatingParam id="8747" interp="linr"  time="0/1" value="0" leadInLength="0/1"  />
          </VectorParam>
          <VectorParam id="8748"  name="geometryCrop">
           <InterpolatingParam id="8749" interp="linr"  time="-9999999/1" value="0" leadInLength="0/1"  interpolater="leadin-eioe"  />
           <InterpolatingParam id="8750" interp="linr"  time="-9999999/1" value="0" leadInLength="0/1"  interpolater="leadin-eioe"  />
           <InterpolatingParam id="8751" interp="linr"  time="-9999999/1" value="0" leadInLength="0/1"  interpolater="leadin-eioe"  />
           <InterpolatingParam id="8752" interp="linr"  time="-9999999/1" value="0" leadInLength="0/1"  interpolater="leadin-eioe"  />
          </VectorParam>
          <InterpolatingParam id="8753" interp="linr"  time="-9999999/1" value="1" leadInLength="0/1"  name="opacity"/>
          <Parameter id="8754"  name="captions"/>
          <InterpolatingParam id="8755" interp="linr"  time="0/1" value="1" leadInLength="0/1"  name="volume"/>
         </Parameters>
         <Transformer>
          <VectorParam id="8756"  name="translation">
           <InterpolatingParam id="8757" interp="linr"  time="-9999999/1" value="-429.2430278881717" leadInLength="0/1"  />
           <InterpolatingParam id="8758" interp="linr"  time="-9999999/1" value="16.357664634826165" leadInLength="0/1"  />
           <InterpolatingParam id="8759" interp="linr"  time="-9999999/1" value="-3.4106051316488567e-010" leadInLength="0/1"  />
          </VectorParam>
          <VectorParam id="8760"  name="rotation">
           <InterpolatingParam id="8761" interp="linr"  time="-9999999/1" value="0" leadInLength="0/1"  />
           <InterpolatingParam id="8762" interp="linr"  time="-9999999/1" value="0" leadInLength="0/1"  />
           <InterpolatingParam id="8763" interp="linr"  time="-9999999/1" value="0" leadInLength="0/1"  />
          </VectorParam>
          <VectorParam id="8764"  name="shear">
           <InterpolatingParam id="8765" interp="linr"  time="-9999999/1" value="0" leadInLength="0/1"  />
           <InterpolatingParam id="8766" interp="linr"  time="-9999999/1" value="0" leadInLength="0/1"  />
           <InterpolatingParam id="8767" interp="linr"  time="-9999999/1" value="0" leadInLength="0/1"  />
          </VectorParam>
          <VectorParam id="8768"  name="scale">
           <InterpolatingParam id="8769" interp="linr"  time="-9999999/1" value="0.3918077689246709" leadInLength="0/1"  />
           <InterpolatingParam id="8770" interp="linr"  time="-9999999/1" value="0.3603996967596465" leadInLength="0/1"  />
           <InterpolatingParam id="8771" interp="linr"  time="-9999999/1" value="1" leadInLength="0/1"  />
          </VectorParam>
          <VectorParam id="8772"  name="anchor">
           <InterpolatingParam id="8773" interp="linr"  time="0/1" value="0" leadInLength="0/1"  />
           <InterpolatingParam id="8774" interp="linr"  time="0/1" value="0" leadInLength="0/1"  />
           <InterpolatingParam id="8775" interp="linr"  time="0/1" value="0" leadInLength="0/1"  />
          </VectorParam>
         </Transformer>
         <GenericMixer id="8776"  >
          <MetaData>
          </MetaData>
          <Tracks>
           <GenericTrack id="8777"  >
            <Attributes>
             <Attribute id="8778" value="" name="ident"/>
             <Attribute id="8779" value="0" name="audioMuted"/>
             <Attribute id="8780" value="0" name="videoHidden"/>
            </Attributes>
            <MetaData>
             <entry key="IsLocked" val="False"/>
             <entry key="WinTrackHeight" val="0"/>
            </MetaData>
            <Medias>
             <VMFile id="8781" start="0" duration="600" scalar="1/1" mediaStart="0/1" mediaDuration="600/1" trackNumber="0" src="16" >
              <Transformer>
               <VectorParam id="8782"  name="translation">
                <InterpolatingParam id="8783" interp="linr"  time="-9999999/1" value="-51.248808389004516" leadInLength="0/1"  />
                <InterpolatingParam id="8784" interp="linr"  time="-9999999/1" value="1.0065264177683275e-009" leadInLength="0/1"  />
                <InterpolatingParam id="8785" interp="linr"  time="-9999999/1" value="0" leadInLength="0/1"  />
               </VectorParam>
               <VectorParam id="8786"  name="rotation">
                <InterpolatingParam id="8787" interp="linr"  time="-9999999/1" value="0" leadInLength="0/1"  />
                <InterpolatingParam id="8788" interp="linr"  time="-9999999/1" value="0" leadInLength="0/1"  />
                <InterpolatingParam id="8789" interp="linr"  time="-9999999/1" value="0" leadInLength="0/1"  />
               </VectorParam>
               <VectorParam id="8790"  name="shear">
                <InterpolatingParam id="8791" interp="linr"  time="-9999999/1" value="0" leadInLength="0/1"  />
                <InterpolatingParam id="8792" interp="linr"  time="-9999999/1" value="0" leadInLength="0/1"  />
                <InterpolatingParam id="8793" interp="linr"  time="-9999999/1" value="0" leadInLength="0/1"  />
               </VectorParam>
               <VectorParam id="8794"  name="scale">
                <InterpolatingParam id="8795" interp="linr"  time="-9999999/1" value="0.91992373689278362" leadInLength="0/1"  />
                <InterpolatingParam id="8796" interp="linr"  time="-9999999/1" value="1" leadInLength="0/1"  />
                <InterpolatingParam id="8797" interp="linr"  time="-9999999/1" value="1" leadInLength="0/1"  />
               </VectorParam>
               <VectorParam id="8798"  name="anchor">
                <InterpolatingParam id="8799" interp="linr"  time="0/1" value="0" leadInLength="0/1"  />
                <InterpolatingParam id="8800" interp="linr"  time="0/1" value="0" leadInLength="0/1"  />
                <InterpolatingParam id="8801" interp="linr"  time="0/1" value="0" leadInLength="0/1"  />
               </VectorParam>
              </Transformer>
              <Parameters>
               <VectorParam id="8802"  name="sourceCrop">
                <InterpolatingParam id="8803" interp="linr"  time="0/1" value="0" leadInLength="0/1"  />
                <InterpolatingParam id="8804" interp="linr"  time="0/1" value="0" leadInLength="0/1"  />
                <InterpolatingParam id="8805" interp="linr"  time="0/1" value="0" leadInLength="0/1"  />
                <InterpolatingParam id="8806" interp="linr"  time="0/1" value="0" leadInLength="0/1"  />
               </VectorParam>
               <VectorParam id="8807"  name="geometryCrop">
                <InterpolatingParam id="8808" interp="linr"  time="-9999999/1" value="0" leadInLength="0/1"  interpolater="leadin-eioe"  />
                <InterpolatingParam id="8809" interp="linr"  time="-9999999/1" value="0" leadInLength="0/1"  interpolater="leadin-eioe"  />
                <InterpolatingParam id="8810" interp="linr"  time="-9999999/1" value="0" leadInLength="0/1"  interpolater="leadin-eioe"  />
                <InterpolatingParam id="8811" interp="linr"  time="-9999999/1" value="0" leadInLength="0/1"  interpolater="leadin-eioe"  />
               </VectorParam>
               <InterpolatingParam id="8812" interp="linr"  time="-9999999/1" value="1" leadInLength="0/1"  name="opacity"/>
              </Parameters>
              <Attributes>
               <Attribute id="8813" value="" name="ident"/>
              </Attributes>
              <MetaData>
               <entry key="WinSubProjectDisplayName" val=""/>
              </MetaData>
              <ExtraData>
               <Entry key="ZoomPanBin">
                <ZoomPanBin id="8814"  >
                 <ZoomPanKeyframes>
                  <ZoomPanKeyframe id="8815" timeRangeEnd="-9999999/1" timeRangeDuration="0/1" interpolaterName="linr"  />
                 </ZoomPanKeyframes>
                </ZoomPanBin>
               </Entry>
              </ExtraData>
             </VMFile>
            </Medias>
           </GenericTrack>
           <GenericTrack id="8816"  >
            <Attributes>
             <Attribute id="8817" value="" name="ident"/>
             <Attribute id="8818" value="0" name="audioMuted"/>
             <Attribute id="8819" value="0" name="videoHidden"/>
            </Attributes>
            <MetaData>
             <entry key="IsLocked" val="False"/>
             <entry key="WinTrackHeight" val="0"/>
            </MetaData>
            <Medias>
             <UnifiedMedia id="8820"  >
              <AudioTransition id="8821" start="30" duration="30" >
               <Parameters>
                <InterpolatingParam id="8822" interp="linr"  time="0/1" value="1" leadInLength="0/1"  name="volume"/>
                <Parameter id="8823"  name="captions"/>
               </Parameters>
               <Effects>
                <GenericEffect id="8824" name = "AudioTransition" >
                 <Parameters>
                 <Parameter id="8825"   name="audioEdgeModType">
                  <Keyframes>
                  <Keyframe id="8826"  time="0/1" value="0" leadInLength="0/1"  />
                  </Keyframes>
                 </Parameter>
                 <Parameter id="8827"   name="audioTransitionType">
                  <Keyframes>
                  <Keyframe id="8828"  time="0/1" value="" leadInLength="0/1"  />
                  </Keyframes>
                 </Parameter>
                 </Parameters>
                 <MetaData>
                 </MetaData>
                </GenericEffect>
               </Effects>
               <Attributes>
                <Attribute id="8829" value="" name="ident"/>
                <Attribute id="8830" value="0" name="sampleRate"/>
                <Attribute id="8831" value="0" name="bitDepth"/>
                <Attribute id="8832" value="1" name="gain"/>
                <Attribute id="8833" value="0" name="mixToMono"/>
               </Attributes>
              </AudioTransition>
              <ImageTransition id="8834" start="30" duration="30" >
               <Transformer>
                <VectorParam id="8835"  name="translation">
                 <InterpolatingParam id="8836" interp="linr"  time="0/1" value="0" leadInLength="0/1"  />
                 <InterpolatingParam id="8837" interp="linr"  time="0/1" value="0" leadInLength="0/1"  />
                 <InterpolatingParam id="8838" interp="linr"  time="0/1" value="0" leadInLength="0/1"  />
                </VectorParam>
                <VectorParam id="8839"  name="rotation">
                 <InterpolatingParam id="8840" interp="linr"  time="0/1" value="0" leadInLength="0/1"  />
                 <InterpolatingParam id="8841" interp="linr"  time="0/1" value="0" leadInLength="0/1"  />
                 <InterpolatingParam id="8842" interp="linr"  time="0/1" value="0" leadInLength="0/1"  />
                </VectorParam>
                <VectorParam id="8843"  name="shear">
                 <InterpolatingParam id="8844" interp="linr"  time="0/1" value="0" leadInLength="0/1"  />
                 <InterpolatingParam id="8845" interp="linr"  time="0/1" value="0" leadInLength="0/1"  />
                 <InterpolatingParam id="8846" interp="linr"  time="0/1" value="0" leadInLength="0/1"  />
                </VectorParam>
                <VectorParam id="8847"  name="scale">
                 <InterpolatingParam id="8848" interp="linr"  time="0/1" value="1" leadInLength="0/1"  />
                 <InterpolatingParam id="8849" interp="linr"  time="0/1" value="1" leadInLength="0/1"  />
                 <InterpolatingParam id="8850" interp="linr"  time="0/1" value="1" leadInLength="0/1"  />
                </VectorParam>
                <VectorParam id="8851"  name="anchor">
                 <InterpolatingParam id="8852" interp="linr"  time="0/1" value="0" leadInLength="0/1"  />
                 <InterpolatingParam id="8853" interp="linr"  time="0/1" value="0" leadInLength="0/1"  />
                 <InterpolatingParam id="8854" interp="linr"  time="0/1" value="0" leadInLength="0/1"  />
                </VectorParam>
               </Transformer>
               <Parameters>
                <VectorParam id="8855"  name="sourceCrop">
                 <InterpolatingParam id="8856" interp="linr"  time="0/1" value="0" leadInLength="0/1"  />
                 <InterpolatingParam id="8857" interp="linr"  time="0/1" value="0" leadInLength="0/1"  />
                 <InterpolatingParam id="8858" interp="linr"  time="0/1" value="0" leadInLength="0/1"  />
                 <InterpolatingParam id="8859" interp="linr"  time="0/1" value="0" leadInLength="0/1"  />
                </VectorParam>
                <VectorParam id="8860"  name="geometryCrop">
                 <InterpolatingParam id="8861" interp="linr"  time="0/1" value="0" leadInLength="0/1"  />
                 <InterpolatingParam id="8862" interp="linr"  time="0/1" value="0" leadInLength="0/1"  />
                 <InterpolatingParam id="8863" interp="linr"  time="0/1" value="0" leadInLength="0/1"  />
                 <InterpolatingParam id="8864" interp="linr"  time="0/1" value="0" leadInLength="0/1"  />
                </VectorParam>
                <InterpolatingParam id="8865" interp="linr"  time="0/1" value="1" leadInLength="0/1"  name="opacity"/>
               </Parameters>
               <Effects>
                <GenericEffect id="8866" name = "VisualTransition" >
                 <Parameters>
                 <InterpolatingParam id="8867" interp="linr"  time="0/1" value="0.5" leadInLength="0/1"   name="leftFramePercentage"/>
                 <InterpolatingParam id="8868" interp="linr"  time="0/1" value="0.5" leadInLength="0/1"   name="rightFramePercentage"/>
                 <Parameter id="8869"   name="visualEdgeModType">
                  <Keyframes>
                  <Keyframe id="8870"  time="0/1" value="1" leadInLength="0/1"  />
                  </Keyframes>
                 </Parameter>
                 <Parameter id="8871"   name="visualTransitionType">
                  <Keyframes>
                  <Keyframe id="8872"  time="0/1" value="Fade" leadInLength="0/1"  />
                  </Keyframes>
                 </Parameter>
                 </Parameters>
                 <MetaData>
                 </MetaData>
                </GenericEffect>
               </Effects>
               <Attributes>
                <Attribute id="8873" value="" name="ident"/>
               </Attributes>
               <ExtraData>
                <Entry key="ZoomPanBin">
                 <ZoomPanBin id="8874"  >
                  <ZoomPanKeyframes>
                  </ZoomPanKeyframes>
                 </ZoomPanBin>
                </Entry>
               </ExtraData>
              </ImageTransition>
              <MetaData>
               <entry key="WinSubProjectDisplayName" val=""/>
              </MetaData>
             </UnifiedMedia>
             <Callout id="8875" start="60" duration="510" scalar="1/1" mediaStart="-58/1" mediaDuration="510/1" >
              <Transformer>
               <VectorParam id="8876"  name="translation">
                <InterpolatingParam id="8877" interp="linr"  time="-9999999/1" value="-65.891325071647316" leadInLength="0/1"  />
                <InterpolatingParam id="8878" interp="linr"  time="-9999999/1" value="-11.938935803182417" leadInLength="0/1"  />
                <InterpolatingParam id="8879" interp="linr"  time="-9999999/1" value="0" leadInLength="0/1"  />
               </VectorParam>
               <VectorParam id="8880"  name="rotation">
                <InterpolatingParam id="8881" interp="linr"  time="-9999999/1" value="0" leadInLength="0/1"  />
                <InterpolatingParam id="8882" interp="linr"  time="-9999999/1" value="0" leadInLength="0/1"  />
                <InterpolatingParam id="8883" interp="linr"  time="-9999999/1" value="0" leadInLength="0/1"  />
               </VectorParam>
               <VectorParam id="8884"  name="shear">
                <InterpolatingParam id="8885" interp="linr"  time="-9999999/1" value="0" leadInLength="0/1"  />
                <InterpolatingParam id="8886" interp="linr"  time="-9999999/1" value="0" leadInLength="0/1"  />
                <InterpolatingParam id="8887" interp="linr"  time="-9999999/1" value="0" leadInLength="0/1"  />
               </VectorParam>
               <VectorParam id="8888"  name="scale">
                <InterpolatingParam id="8889" interp="linr"  time="-9999999/1" value="3.5881792183048113" leadInLength="0/1"  />
                <InterpolatingParam id="8890" interp="linr"  time="-9999999/1" value="1.928583896119233" leadInLength="0/1"  />
                <InterpolatingParam id="8891" interp="linr"  time="-9999999/1" value="1" leadInLength="0/1"  />
               </VectorParam>
               <VectorParam id="8892"  name="anchor">
                <InterpolatingParam id="8893" interp="linr"  time="0/1" value="0" leadInLength="0/1"  />
                <InterpolatingParam id="8894" interp="linr"  time="0/1" value="0" leadInLength="0/1"  />
                <InterpolatingParam id="8895" interp="linr"  time="0/1" value="0" leadInLength="0/1"  />
               </VectorParam>
              </Transformer>
              <Parameters>
               <VectorParam id="8896"  name="sourceCrop">
                <InterpolatingParam id="8897" interp="linr"  time="0/1" value="0" leadInLength="0/1"  />
                <InterpolatingParam id="8898" interp="linr"  time="0/1" value="0" leadInLength="0/1"  />
                <InterpolatingParam id="8899" interp="linr"  time="0/1" value="0" leadInLength="0/1"  />
                <InterpolatingParam id="8900" interp="linr"  time="0/1" value="0" leadInLength="0/1"  />
               </VectorParam>
               <VectorParam id="8901"  name="geometryCrop">
                <InterpolatingParam id="8902" interp="linr"  time="-9999999/1" value="0" leadInLength="0/1"  interpolater="leadin-eioe"  />
                <InterpolatingParam id="8903" interp="linr"  time="-9999999/1" value="0" leadInLength="0/1"  interpolater="leadin-eioe"  />
                <InterpolatingParam id="8904" interp="linr"  time="-9999999/1" value="0" leadInLength="0/1"  interpolater="leadin-eioe"  />
                <InterpolatingParam id="8905" interp="linr"  time="-9999999/1" value="0" leadInLength="0/1"  interpolater="leadin-eioe"  />
               </VectorParam>
               <InterpolatingParam id="8906" interp="linr"  time="-9999999/1" value="1" leadInLength="0/1"  name="opacity"/>
              </Parameters>
              <Attributes>
               <Attribute id="8907"  name="vectorNode">
                <VectorNode id="8908" kind="TypeWinText"  >
                 <DoubleParameters>
                  <InterpolatingParam id="8909" interp="linr"  time="0/1" value="5" leadInLength="0/1"  name="Style"/>
                  <InterpolatingParam id="8910" interp="linr"  time="0/1" value="180" leadInLength="0/1"  name="height"/>
                  <InterpolatingParam id="8911" interp="linr"  time="0/1" value="0" leadInLength="0/1"  name="textDropShadow"/>
                  <InterpolatingParam id="8912" interp="linr"  time="0/1" value="0" leadInLength="0/1"  name="textIgnoresOpacity"/>
                  <InterpolatingParam id="8913" interp="linr"  time="0/1" value="1" leadInLength="0/1"  name="textRectHeight"/>
                  <InterpolatingParam id="8914" interp="linr"  time="0/1" value="1" leadInLength="0/1"  name="textRectWidth"/>
                  <InterpolatingParam id="8915" interp="linr"  time="0/1" value="0" leadInLength="0/1"  name="textRectX"/>
                  <InterpolatingParam id="8916" interp="linr"  time="0/1" value="0" leadInLength="0/1"  name="textRectY"/>
                  <InterpolatingParam id="8917" interp="linr"  time="0/1" value="0" leadInLength="0/1"  name="textVerticalAlign"/>
                  <InterpolatingParam id="8918" interp="linr"  time="0/1" value="320" leadInLength="0/1"  name="width"/>
                 </DoubleParameters>
                 <StringParameters>
                  <Parameter id="8919"  name="filename">
                   <Keyframes>
                   <Keyframe id="8920"  time="0/1" value="C:\Program Files (x86)\TechSmith\Camtasia Studio 8\Media\Studio\Callouts\trans_100x100.xml" leadInLength="0/1"  />
                   </Keyframes>
                  </Parameter>
                  <Parameter id="8921"  name="name">
                   <Keyframes>
                   <Keyframe id="8922"  time="0/1" value="Text" leadInLength="0/1"  />
                   </Keyframes>
                  </Parameter>
                  <Parameter id="8923"  name="text">
                   <Keyframes>
                   <Keyframe id="8924"  time="0/1" value="{\rtf1\ansi\ansicpg1252\deff0\deflang1033{\fonttbl{\f0\fswiss\fprq2\fcharset0 Arial;}}&#xD;&#xa;{\colortbl ;\red0\green0\blue0;}&#xD;&#xa;\viewkind4\uc1\pard\qc\cf1\f0\fs144  I have over 2000+ students enrolled in my courses on Udemy\fs32\par&#xD;&#xa;}&#xD;&#xa;" leadInLength="0/1"  />
                   </Keyframes>
                  </Parameter>
                  <Parameter id="8925"  name="xmlContent">
                   <Keyframes>
                   <Keyframe id="8926"  time="0/1" value="﻿&lt;?xml version=&quot;1.0&quot;?&gt;&#xa;&#xa;&lt;Overlay version=&quot;1.0.1&quot;&gt;&#xa;&#xa;&lt;Overlay_Filename&gt;trans_100x100.png&lt;/Overlay_Filename&gt;&#xa;&lt;Overlay_Name&gt;Text&lt;/Overlay_Name&gt;&#xa;&lt;Text_Top&gt;0&lt;/Text_Top&gt;&#xa;&lt;Text_Left&gt;0&lt;/Text_Left&gt;&#xa;&lt;Text_Bottom&gt;0&lt;/Text_Bottom&gt;&#xa;&lt;Text_Right&gt;0&lt;/Text_Right&gt;&#xa;&lt;Fill_Color&gt;0&lt;/Fill_Color&gt;&#xa;&lt;Border_Color&gt;0&lt;/Border_Color&gt;&#xa;&lt;Style&gt;5&lt;/Style&gt;&#xa;&lt;/Overlay&gt;&gt;&#xD;&#xa;&lt;/Overlay&gt;" leadInLength="0/1"  />
                   </Keyframes>
                  </Parameter>
                 </StringParameters>
                </VectorNode>
               </Attribute>
              </Attributes>
              <MetaData>
               <entry key="WinSubProjectDisplayName" val=""/>
              </MetaData>
              <LeftEdgeMods length="0/1" groupName="OpacityFade">
               <EdgeMod parameter="8906">
                <FadeInFunc id="3431"  />
               </EdgeMod>
              </LeftEdgeMods>
              <RightEdgeMods length="0/1" groupName="OpacityFade">
               <EdgeMod parameter="8906">
                <FadeOutFunc id="3922"  />
               </EdgeMod>
              </RightEdgeMods>
              <ExtraData>
               <Entry key="ZoomPanBin">
                <ZoomPanBin id="8927"  >
                 <ZoomPanKeyframes>
                  <ZoomPanKeyframe id="8928" timeRangeEnd="-9999999/1" timeRangeDuration="0/1" interpolaterName="linr"  />
                 </ZoomPanKeyframes>
                </ZoomPanBin>
               </Entry>
              </ExtraData>
             </Callout>
             <UnifiedMedia id="8929"  >
              <AudioTransition id="8930" start="570" duration="30" >
               <Parameters>
                <InterpolatingParam id="8931" interp="linr"  time="0/1" value="1" leadInLength="0/1"  name="volume"/>
                <Parameter id="8932"  name="captions"/>
               </Parameters>
               <Effects>
                <GenericEffect id="8933" name = "AudioTransition" >
                 <Parameters>
                 <Parameter id="8934"   name="audioEdgeModType">
                  <Keyframes>
                  <Keyframe id="8935"  time="0/1" value="0" leadInLength="0/1"  />
                  </Keyframes>
                 </Parameter>
                 <Parameter id="8936"   name="audioTransitionType">
                  <Keyframes>
                  <Keyframe id="8937"  time="0/1" value="" leadInLength="0/1"  />
                  </Keyframes>
                 </Parameter>
                 </Parameters>
                 <MetaData>
                 </MetaData>
                </GenericEffect>
               </Effects>
               <Attributes>
                <Attribute id="8938" value="" name="ident"/>
                <Attribute id="8939" value="0" name="sampleRate"/>
                <Attribute id="8940" value="0" name="bitDepth"/>
                <Attribute id="8941" value="1" name="gain"/>
                <Attribute id="8942" value="0" name="mixToMono"/>
               </Attributes>
              </AudioTransition>
              <ImageTransition id="8943" start="570" duration="30" >
               <Transformer>
                <VectorParam id="8944"  name="translation">
                 <InterpolatingParam id="8945" interp="linr"  time="0/1" value="0" leadInLength="0/1"  />
                 <InterpolatingParam id="8946" interp="linr"  time="0/1" value="0" leadInLength="0/1"  />
                 <InterpolatingParam id="8947" interp="linr"  time="0/1" value="0" leadInLength="0/1"  />
                </VectorParam>
                <VectorParam id="8948"  name="rotation">
                 <InterpolatingParam id="8949" interp="linr"  time="0/1" value="0" leadInLength="0/1"  />
                 <InterpolatingParam id="8950" interp="linr"  time="0/1" value="0" leadInLength="0/1"  />
                 <InterpolatingParam id="8951" interp="linr"  time="0/1" value="0" leadInLength="0/1"  />
                </VectorParam>
                <VectorParam id="8952"  name="shear">
                 <InterpolatingParam id="8953" interp="linr"  time="0/1" value="0" leadInLength="0/1"  />
                 <InterpolatingParam id="8954" interp="linr"  time="0/1" value="0" leadInLength="0/1"  />
                 <InterpolatingParam id="8955" interp="linr"  time="0/1" value="0" leadInLength="0/1"  />
                </VectorParam>
                <VectorParam id="8956"  name="scale">
                 <InterpolatingParam id="8957" interp="linr"  time="0/1" value="1" leadInLength="0/1"  />
                 <InterpolatingParam id="8958" interp="linr"  time="0/1" value="1" leadInLength="0/1"  />
                 <InterpolatingParam id="8959" interp="linr"  time="0/1" value="1" leadInLength="0/1"  />
                </VectorParam>
                <VectorParam id="8960"  name="anchor">
                 <InterpolatingParam id="8961" interp="linr"  time="0/1" value="0" leadInLength="0/1"  />
                 <InterpolatingParam id="8962" interp="linr"  time="0/1" value="0" leadInLength="0/1"  />
                 <InterpolatingParam id="8963" interp="linr"  time="0/1" value="0" leadInLength="0/1"  />
                </VectorParam>
               </Transformer>
               <Parameters>
                <VectorParam id="8964"  name="sourceCrop">
                 <InterpolatingParam id="8965" interp="linr"  time="0/1" value="0" leadInLength="0/1"  />
                 <InterpolatingParam id="8966" interp="linr"  time="0/1" value="0" leadInLength="0/1"  />
                 <InterpolatingParam id="8967" interp="linr"  time="0/1" value="0" leadInLength="0/1"  />
                 <InterpolatingParam id="8968" interp="linr"  time="0/1" value="0" leadInLength="0/1"  />
                </VectorParam>
                <VectorParam id="8969"  name="geometryCrop">
                 <InterpolatingParam id="8970" interp="linr"  time="0/1" value="0" leadInLength="0/1"  />
                 <InterpolatingParam id="8971" interp="linr"  time="0/1" value="0" leadInLength="0/1"  />
                 <InterpolatingParam id="8972" interp="linr"  time="0/1" value="0" leadInLength="0/1"  />
                 <InterpolatingParam id="8973" interp="linr"  time="0/1" value="0" leadInLength="0/1"  />
                </VectorParam>
                <InterpolatingParam id="8974" interp="linr"  time="0/1" value="1" leadInLength="0/1"  name="opacity"/>
               </Parameters>
               <Effects>
                <GenericEffect id="8975" name = "VisualTransition" >
                 <Parameters>
                 <InterpolatingParam id="8976" interp="linr"  time="0/1" value="0.5" leadInLength="0/1"   name="leftFramePercentage"/>
                 <InterpolatingParam id="8977" interp="linr"  time="0/1" value="0.5" leadInLength="0/1"   name="rightFramePercentage"/>
                 <Parameter id="8978"   name="visualEdgeModType">
                  <Keyframes>
                  <Keyframe id="8979"  time="0/1" value="2" leadInLength="0/1"  />
                  </Keyframes>
                 </Parameter>
                 <Parameter id="8980"   name="visualTransitionType">
                  <Keyframes>
                  <Keyframe id="8981"  time="0/1" value="Fade" leadInLength="0/1"  />
                  </Keyframes>
                 </Parameter>
                 </Parameters>
                 <MetaData>
                 </MetaData>
                </GenericEffect>
               </Effects>
               <Attributes>
                <Attribute id="8982" value="" name="ident"/>
               </Attributes>
               <ExtraData>
                <Entry key="ZoomPanBin">
                 <ZoomPanBin id="8983"  >
                  <ZoomPanKeyframes>
                  </ZoomPanKeyframes>
                 </ZoomPanBin>
                </Entry>
               </ExtraData>
              </ImageTransition>
              <MetaData>
               <entry key="WinSubProjectDisplayName" val=""/>
              </MetaData>
             </UnifiedMedia>
            </Medias>
           </GenericTrack>
          </Tracks>
         </GenericMixer>
         <MetaData>
          <entry key="IsGroupExpanded" val="False"/>
          <entry key="WinGroupOrigin" val="Asset"/>
          <entry key="WinSubProjectDisplayName" val="Animated Title"/>
         </MetaData>
         <ExtraData>
          <Entry key="ZoomPanBin">
           <ZoomPanBin id="8984"  >
            <ZoomPanKeyframes>
             <ZoomPanKeyframe id="8985" timeRangeEnd="-9999999/1" timeRangeDuration="0/1" interpolaterName="linr"  />
            </ZoomPanKeyframes>
           </ZoomPanBin>
          </Entry>
         </ExtraData>
        </Group>
       </Medias>
      </GenericTrack>
      <GenericTrack id="8986"  >
       <Attributes>
        <Attribute id="8987" value="" name="ident"/>
        <Attribute id="8988" value="0" name="audioMuted"/>
        <Attribute id="8989" value="0" name="videoHidden"/>
       </Attributes>
       <MetaData>
        <entry key="IsLocked" val="False"/>
        <entry key="WinTrackHeight" val="62"/>
       </MetaData>
       <Medias>
        <IMFile id="8990" start="159" duration="119" scalar="1/1" mediaStart="0/1" mediaDuration="1/1" trackNumber="0" src="11" trimStartSum="0/1" >
         <Transformer>
          <VectorParam id="8991"  name="translation">
           <InterpolatingParam id="8992" interp="linr"  time="-9999999/1" value="-305.33158827819648" leadInLength="0/1"  />
           <InterpolatingParam id="8993" interp="linr"  time="-9999999/1" value="-239.52191235079181" leadInLength="0/1"  />
           <InterpolatingParam id="8994" interp="linr"  time="-9999999/1" value="0" leadInLength="0/1"  />
          </VectorParam>
          <VectorParam id="8995"  name="rotation">
           <InterpolatingParam id="8996" interp="linr"  time="-9999999/1" value="0" leadInLength="0/1"  />
           <InterpolatingParam id="8997" interp="linr"  time="-9999999/1" value="0" leadInLength="0/1"  />
           <InterpolatingParam id="8998" interp="linr"  time="-9999999/1" value="0" leadInLength="0/1"  />
          </VectorParam>
          <VectorParam id="8999"  name="shear">
           <InterpolatingParam id="9000" interp="linr"  time="-9999999/1" value="0" leadInLength="0/1"  />
           <InterpolatingParam id="9001" interp="linr"  time="-9999999/1" value="0" leadInLength="0/1"  />
           <InterpolatingParam id="9002" interp="linr"  time="-9999999/1" value="0" leadInLength="0/1"  />
          </VectorParam>
          <VectorParam id="9003"  name="scale">
           <InterpolatingParam id="9004" interp="linr"  time="-9999999/1" value="0.9024701195223519" leadInLength="0/1"  />
           <InterpolatingParam id="9005" interp="linr"  time="-9999999/1" value="1" leadInLength="0/1"  />
           <InterpolatingParam id="9006" interp="linr"  time="-9999999/1" value="1" leadInLength="0/1"  />
          </VectorParam>
          <VectorParam id="9007"  name="anchor">
           <InterpolatingParam id="9008" interp="linr"  time="0/1" value="0" leadInLength="0/1"  />
           <InterpolatingParam id="9009" interp="linr"  time="0/1" value="0" leadInLength="0/1"  />
           <InterpolatingParam id="9010" interp="linr"  time="0/1" value="0" leadInLength="0/1"  />
          </VectorParam>
         </Transformer>
         <Parameters>
          <VectorParam id="9011"  name="sourceCrop">
           <InterpolatingParam id="9012" interp="linr"  time="0/1" value="0" leadInLength="0/1"  />
           <InterpolatingParam id="9013" interp="linr"  time="0/1" value="0" leadInLength="0/1"  />
           <InterpolatingParam id="9014" interp="linr"  time="0/1" value="0" leadInLength="0/1"  />
           <InterpolatingParam id="9015" interp="linr"  time="0/1" value="0" leadInLength="0/1"  />
          </VectorParam>
          <VectorParam id="9016"  name="geometryCrop">
           <InterpolatingParam id="9017" interp="linr"  time="-9999999/1" value="0" leadInLength="0/1"  />
           <InterpolatingParam id="9018" interp="linr"  time="-9999999/1" value="0" leadInLength="0/1"  />
           <InterpolatingParam id="9019" interp="linr"  time="-9999999/1" value="0" leadInLength="0/1"  />
           <InterpolatingParam id="9020" interp="linr"  time="-9999999/1" value="0" leadInLength="0/1"  />
          </VectorParam>
          <InterpolatingParam id="9021" interp="linr"  time="-9999999/1" value="1" leadInLength="0/1"  name="opacity"/>
         </Parameters>
         <Effects>
          <GenericEffect id="9022" name = "TextEffect" >
           <Parameters>
           <Parameter id="9023"   name="text">
            <Keyframes>
            <Keyframe id="9024"  time="0/1" value="{\rtf1\ansi\ansicpg1252\deff0\deflang1033{\fonttbl{\f0\fswiss\fprq2\fcharset0 Impact;}}&#xD;&#xa;{\colortbl ;\red218\green182\blue1;}&#xD;&#xa;\viewkind4\uc1\pard\qc\cf1\f0\fs96 Junaid Ahmed\fs144\par&#xD;&#xa;}&#xD;&#xa;" leadInLength="0/1"  />
            </Keyframes>
           </Parameter>
           <InterpolatingParam id="9025" interp="linr"  time="0/1" value="0" leadInLength="0/1"   name="textDimensionTime"/>
           <Parameter id="9026"   name="textDropShadow">
            <Keyframes>
            <Keyframe id="9027"  time="0/1" value="0" leadInLength="0/1"  />
            </Keyframes>
           </Parameter>
           <Parameter id="9028"   name="textIgnoresOpacity">
            <Keyframes>
            <Keyframe id="9029"  time="0/1" value="0" leadInLength="0/1"  />
            </Keyframes>
           </Parameter>
           <InterpolatingParam id="9030" interp="linr"  time="0/1" value="1" leadInLength="0/1"   name="textRectHeight"/>
           <InterpolatingParam id="9031" interp="linr"  time="0/1" value="1" leadInLength="0/1"   name="textRectWidth"/>
           <InterpolatingParam id="9032" interp="linr"  time="0/1" value="0" leadInLength="0/1"   name="textRectX"/>
           <InterpolatingParam id="9033" interp="linr"  time="0/1" value="0" leadInLength="0/1"   name="textRectY"/>
           <Parameter id="9034"   name="textVerticalAlign">
            <Keyframes>
            <Keyframe id="9035"  time="0/1" value="0" leadInLength="0/1"  />
            </Keyframes>
           </Parameter>
           </Parameters>
          </GenericEffect>
         </Effects>
         <Attributes>
          <Attribute id="9036" value="" name="ident"/>
         </Attributes>
         <MetaData>
          <entry key="WinSubProjectDisplayName" val=""/>
         </MetaData>
         <ExtraData>
          <Entry key="ZoomPanBin">
           <ZoomPanBin id="9037"  >
            <ZoomPanKeyframes>
             <ZoomPanKeyframe id="9038" timeRangeEnd="-9999999/1" timeRangeDuration="0/1" interpolaterName="linr"  />
            </ZoomPanKeyframes>
           </ZoomPanBin>
          </Entry>
         </ExtraData>
        </IMFile>
        <UnifiedMedia id="9039"  >
         <AudioTransition id="9040" start="296" duration="30" >
          <Parameters>
           <InterpolatingParam id="9041" interp="linr"  time="0/1" value="1" leadInLength="0/1"  name="volume"/>
           <Parameter id="9042"  name="captions"/>
          </Parameters>
          <Effects>
           <GenericEffect id="9043" name = "AudioTransition" >
            <Parameters>
            <Parameter id="9044"   name="audioEdgeModType">
             <Keyframes>
             <Keyframe id="9045"  time="0/1" value="0" leadInLength="0/1"  />
             </Keyframes>
            </Parameter>
            <Parameter id="9046"   name="audioTransitionType">
             <Keyframes>
             <Keyframe id="9047"  time="0/1" value="" leadInLength="0/1"  />
             </Keyframes>
            </Parameter>
            </Parameters>
            <MetaData>
            </MetaData>
           </GenericEffect>
          </Effects>
          <Attributes>
           <Attribute id="9048" value="" name="ident"/>
           <Attribute id="9049" value="0" name="sampleRate"/>
           <Attribute id="9050" value="0" name="bitDepth"/>
           <Attribute id="9051" value="1" name="gain"/>
           <Attribute id="9052" value="0" name="mixToMono"/>
          </Attributes>
         </AudioTransition>
         <ImageTransition id="9053" start="296" duration="30" >
          <Transformer>
           <VectorParam id="9054"  name="translation">
            <InterpolatingParam id="9055" interp="linr"  time="0/1" value="0" leadInLength="0/1"  />
            <InterpolatingParam id="9056" interp="linr"  time="0/1" value="0" leadInLength="0/1"  />
            <InterpolatingParam id="9057" interp="linr"  time="0/1" value="0" leadInLength="0/1"  />
           </VectorParam>
           <VectorParam id="9058"  name="rotation">
            <InterpolatingParam id="9059" interp="linr"  time="0/1" value="0" leadInLength="0/1"  />
            <InterpolatingParam id="9060" interp="linr"  time="0/1" value="0" leadInLength="0/1"  />
            <InterpolatingParam id="9061" interp="linr"  time="0/1" value="0" leadInLength="0/1"  />
           </VectorParam>
           <VectorParam id="9062"  name="shear">
            <InterpolatingParam id="9063" interp="linr"  time="0/1" value="0" leadInLength="0/1"  />
            <InterpolatingParam id="9064" interp="linr"  time="0/1" value="0" leadInLength="0/1"  />
            <InterpolatingParam id="9065" interp="linr"  time="0/1" value="0" leadInLength="0/1"  />
           </VectorParam>
           <VectorParam id="9066"  name="scale">
            <InterpolatingParam id="9067" interp="linr"  time="0/1" value="1" leadInLength="0/1"  />
            <InterpolatingParam id="9068" interp="linr"  time="0/1" value="1" leadInLength="0/1"  />
            <InterpolatingParam id="9069" interp="linr"  time="0/1" value="1" leadInLength="0/1"  />
           </VectorParam>
           <VectorParam id="9070"  name="anchor">
            <InterpolatingParam id="9071" interp="linr"  time="0/1" value="0" leadInLength="0/1"  />
            <InterpolatingParam id="9072" interp="linr"  time="0/1" value="0" leadInLength="0/1"  />
            <InterpolatingParam id="9073" interp="linr"  time="0/1" value="0" leadInLength="0/1"  />
           </VectorParam>
          </Transformer>
          <Parameters>
           <VectorParam id="9074"  name="sourceCrop">
            <InterpolatingParam id="9075" interp="linr"  time="0/1" value="0" leadInLength="0/1"  />
            <InterpolatingParam id="9076" interp="linr"  time="0/1" value="0" leadInLength="0/1"  />
            <InterpolatingParam id="9077" interp="linr"  time="0/1" value="0" leadInLength="0/1"  />
            <InterpolatingParam id="9078" interp="linr"  time="0/1" value="0" leadInLength="0/1"  />
           </VectorParam>
           <VectorParam id="9079"  name="geometryCrop">
            <InterpolatingParam id="9080" interp="linr"  time="0/1" value="0" leadInLength="0/1"  />
            <InterpolatingParam id="9081" interp="linr"  time="0/1" value="0" leadInLength="0/1"  />
            <InterpolatingParam id="9082" interp="linr"  time="0/1" value="0" leadInLength="0/1"  />
            <InterpolatingParam id="9083" interp="linr"  time="0/1" value="0" leadInLength="0/1"  />
           </VectorParam>
           <InterpolatingParam id="9084" interp="linr"  time="0/1" value="1" leadInLength="0/1"  name="opacity"/>
          </Parameters>
          <Effects>
           <GenericEffect id="9085" name = "VisualTransition" >
            <Parameters>
            <InterpolatingParam id="9086" interp="linr"  time="0/1" value="0.5" leadInLength="0/1"   name="leftFramePercentage"/>
            <InterpolatingParam id="9087" interp="linr"  time="0/1" value="0.5" leadInLength="0/1"   name="rightFramePercentage"/>
            <Parameter id="9088"   name="visualEdgeModType">
             <Keyframes>
             <Keyframe id="9089"  time="0/1" value="1" leadInLength="0/1"  />
             </Keyframes>
            </Parameter>
            <Parameter id="9090"   name="visualTransitionType">
             <Keyframes>
             <Keyframe id="9091"  time="0/1" value="RandomDissolve" leadInLength="0/1"  />
             </Keyframes>
            </Parameter>
            </Parameters>
            <MetaData>
            </MetaData>
           </GenericEffect>
          </Effects>
          <Attributes>
           <Attribute id="9092" value="" name="ident"/>
          </Attributes>
          <ExtraData>
           <Entry key="ZoomPanBin">
            <ZoomPanBin id="9093"  >
             <ZoomPanKeyframes>
             </ZoomPanKeyframes>
            </ZoomPanBin>
           </Entry>
          </ExtraData>
         </ImageTransition>
         <MetaData>
          <entry key="WinSubProjectDisplayName" val=""/>
         </MetaData>
        </UnifiedMedia>
        <IMFile id="9094" start="326" duration="57" scalar="1/1" mediaStart="0/1" mediaDuration="1/1" trackNumber="0" src="13" trimStartSum="30/1" >
         <Transformer>
          <VectorParam id="9095"  name="translation">
           <InterpolatingParam id="9096" interp="linr"  time="-9999999/1" value="-372.90836653313346" leadInLength="0/1"  />
           <InterpolatingParam id="9097" interp="linr"  time="-9999999/1" value="-127.66932270906165" leadInLength="0/1"  />
           <InterpolatingParam id="9098" interp="linr"  time="-9999999/1" value="0" leadInLength="0/1"  />
          </VectorParam>
          <VectorParam id="9099"  name="rotation">
           <InterpolatingParam id="9100" interp="linr"  time="-9999999/1" value="0" leadInLength="0/1"  />
           <InterpolatingParam id="9101" interp="linr"  time="-9999999/1" value="0" leadInLength="0/1"  />
           <InterpolatingParam id="9102" interp="linr"  time="-9999999/1" value="0" leadInLength="0/1"  />
          </VectorParam>
          <VectorParam id="9103"  name="shear">
           <InterpolatingParam id="9104" interp="linr"  time="-9999999/1" value="0" leadInLength="0/1"  />
           <InterpolatingParam id="9105" interp="linr"  time="-9999999/1" value="0" leadInLength="0/1"  />
           <InterpolatingParam id="9106" interp="linr"  time="-9999999/1" value="0" leadInLength="0/1"  />
          </VectorParam>
          <VectorParam id="9107"  name="scale">
           <InterpolatingParam id="9108" interp="linr"  time="-9999999/1" value="0.80582286239884537" leadInLength="0/1"  />
           <InterpolatingParam id="9109" interp="linr"  time="-9999999/1" value="1.8812903446711935" leadInLength="0/1"  />
           <InterpolatingParam id="9110" interp="linr"  time="-9999999/1" value="1" leadInLength="0/1"  />
          </VectorParam>
          <VectorParam id="9111"  name="anchor">
           <InterpolatingParam id="9112" interp="linr"  time="0/1" value="0" leadInLength="0/1"  />
           <InterpolatingParam id="9113" interp="linr"  time="0/1" value="0" leadInLength="0/1"  />
           <InterpolatingParam id="9114" interp="linr"  time="0/1" value="0" leadInLength="0/1"  />
          </VectorParam>
         </Transformer>
         <Parameters>
          <VectorParam id="9115"  name="sourceCrop">
           <InterpolatingParam id="9116" interp="linr"  time="0/1" value="0" leadInLength="0/1"  />
           <InterpolatingParam id="9117" interp="linr"  time="0/1" value="0" leadInLength="0/1"  />
           <InterpolatingParam id="9118" interp="linr"  time="0/1" value="0" leadInLength="0/1"  />
           <InterpolatingParam id="9119" interp="linr"  time="0/1" value="0" leadInLength="0/1"  />
          </VectorParam>
          <VectorParam id="9120"  name="geometryCrop">
           <InterpolatingParam id="9121" interp="linr"  time="-9999999/1" value="0" leadInLength="0/1"  interpolater="leadin-eioe"  />
           <InterpolatingParam id="9122" interp="linr"  time="-9999999/1" value="0" leadInLength="0/1"  interpolater="leadin-eioe"  />
           <InterpolatingParam id="9123" interp="linr"  time="-9999999/1" value="0" leadInLength="0/1"  interpolater="leadin-eioe"  />
           <InterpolatingParam id="9124" interp="linr"  time="-9999999/1" value="0" leadInLength="0/1"  interpolater="leadin-eioe"  />
          </VectorParam>
          <InterpolatingParam id="9125" interp="linr"  time="-9999999/1" value="1" leadInLength="0/1"  name="opacity"/>
         </Parameters>
         <Effects>
          <GenericEffect id="9126" name = "DropShadow" >
           <Parameters>
           <InterpolatingParam id="9127" interp="linr"  time="0/1" value="315" leadInLength="0/1"   name="angle"/>
           <InterpolatingParam id="9128" interp="linr"  time="0/1" value="5" leadInLength="0/1"   name="blur"/>
           <Parameter id="9129"   name="enabled">
            <Keyframes>
            <Keyframe id="9130"  time="0/1" value="1" leadInLength="0/1"  />
            </Keyframes>
           </Parameter>
           <InterpolatingParam id="9131" interp="linr"  time="0/1" value="10" leadInLength="0/1"   name="offset"/>
           <InterpolatingParam id="9132" interp="linr"  time="0/1" value="0.75" leadInLength="0/1"   name="opacity"/>
           </Parameters>
          </GenericEffect>
          <GenericEffect id="9133" name = "TextEffect" >
           <Parameters>
           <Parameter id="9134"   name="text">
            <Keyframes>
            <Keyframe id="9135"  time="0/1" value="{\rtf1\ansi\ansicpg1252\deff0\deflang1033{\fonttbl{\f0\fswiss\fprq2\fcharset0 Impact;}}&#xD;&#xa;{\colortbl ;\red218\green182\blue1;}&#xD;&#xa;\viewkind4\uc1\pard\qc\cf1\f0\fs72 What is IOT ?\par&#xD;&#xa;\fs52 How big is the market?\par&#xD;&#xa;What we will do  in the course\par&#xD;&#xa;The products we will Build\par&#xD;&#xa;Course Structure and more\fs72\par&#xD;&#xa;\par&#xD;&#xa; \par&#xD;&#xa;}&#xD;&#xa;" leadInLength="0/1"  />
            </Keyframes>
           </Parameter>
           <InterpolatingParam id="9136" interp="linr"  time="0/1" value="30" leadInLength="0/1"   name="textDimensionTime"/>
           <Parameter id="9137"   name="textDropShadow">
            <Keyframes>
            <Keyframe id="9138"  time="0/1" value="0" leadInLength="0/1"  />
            </Keyframes>
           </Parameter>
           <Parameter id="9139"   name="textIgnoresOpacity">
            <Keyframes>
            <Keyframe id="9140"  time="0/1" value="0" leadInLength="0/1"  />
            </Keyframes>
           </Parameter>
           <InterpolatingParam id="9141" interp="linr"  time="0/1" value="0.63200000000000001" leadInLength="0/1"   name="textRectHeight"/>
           <InterpolatingParam id="9142" interp="linr"  time="0/1" value="0.85538461538461541" leadInLength="0/1"   name="textRectWidth"/>
           <InterpolatingParam id="9143" interp="linr"  time="0/1" value="0.069230769230769235" leadInLength="0/1"   name="textRectX"/>
           <InterpolatingParam id="9144" interp="linr"  time="0/1" value="0.188" leadInLength="0/1"   name="textRectY"/>
           <Parameter id="9145"   name="textVerticalAlign">
            <Keyframes>
            <Keyframe id="9146"  time="0/1" value="0" leadInLength="0/1"  />
            </Keyframes>
           </Parameter>
           </Parameters>
          </GenericEffect>
         </Effects>
         <Attributes>
          <Attribute id="9147" value="" name="ident"/>
         </Attributes>
         <MetaData>
          <entry key="WinSubProjectDisplayName" val=""/>
         </MetaData>
         <ExtraData>
          <Entry key="ZoomPanBin">
           <ZoomPanBin id="9148"  >
            <ZoomPanKeyframes>
             <ZoomPanKeyframe id="9149" timeRangeEnd="-9999999/1" timeRangeDuration="0/1" interpolaterName="linr"  />
            </ZoomPanKeyframes>
           </ZoomPanBin>
          </Entry>
         </ExtraData>
        </IMFile>
        <IMFile id="9150" start="383" duration="39" scalar="1/1" mediaStart="0/1" mediaDuration="1/1" trackNumber="0" src="13" trimStartSum="97/1" >
         <Transformer>
          <VectorParam id="9151"  name="translation">
           <InterpolatingParam id="9152" interp="linr"  time="-9999999/1" value="-372.90836653313346" leadInLength="0/1"  />
           <InterpolatingParam id="9153" interp="linr"  time="-9999999/1" value="-127.66932270906165" leadInLength="0/1"  />
           <InterpolatingParam id="9154" interp="linr"  time="-9999999/1" value="0" leadInLength="0/1"  />
          </VectorParam>
          <VectorParam id="9155"  name="rotation">
           <InterpolatingParam id="9156" interp="linr"  time="-9999999/1" value="0" leadInLength="0/1"  />
           <InterpolatingParam id="9157" interp="linr"  time="-9999999/1" value="0" leadInLength="0/1"  />
           <InterpolatingParam id="9158" interp="linr"  time="-9999999/1" value="0" leadInLength="0/1"  />
          </VectorParam>
          <VectorParam id="9159"  name="shear">
           <InterpolatingParam id="9160" interp="linr"  time="-9999999/1" value="0" leadInLength="0/1"  />
           <InterpolatingParam id="9161" interp="linr"  time="-9999999/1" value="0" leadInLength="0/1"  />
           <InterpolatingParam id="9162" interp="linr"  time="-9999999/1" value="0" leadInLength="0/1"  />
          </VectorParam>
          <VectorParam id="9163"  name="scale">
           <InterpolatingParam id="9164" interp="linr"  time="-9999999/1" value="0.80582286239884537" leadInLength="0/1"  />
           <InterpolatingParam id="9165" interp="linr"  time="-9999999/1" value="1.8812903446711935" leadInLength="0/1"  />
           <InterpolatingParam id="9166" interp="linr"  time="-9999999/1" value="1" leadInLength="0/1"  />
          </VectorParam>
          <VectorParam id="9167"  name="anchor">
           <InterpolatingParam id="9168" interp="linr"  time="0/1" value="0" leadInLength="0/1"  />
           <InterpolatingParam id="9169" interp="linr"  time="0/1" value="0" leadInLength="0/1"  />
           <InterpolatingParam id="9170" interp="linr"  time="0/1" value="0" leadInLength="0/1"  />
          </VectorParam>
         </Transformer>
         <Parameters>
          <VectorParam id="9171"  name="sourceCrop">
           <InterpolatingParam id="9172" interp="linr"  time="0/1" value="0" leadInLength="0/1"  />
           <InterpolatingParam id="9173" interp="linr"  time="0/1" value="0" leadInLength="0/1"  />
           <InterpolatingParam id="9174" interp="linr"  time="0/1" value="0" leadInLength="0/1"  />
           <InterpolatingParam id="9175" interp="linr"  time="0/1" value="0" leadInLength="0/1"  />
          </VectorParam>
          <VectorParam id="9176"  name="geometryCrop">
           <InterpolatingParam id="9177" interp="linr"  time="-9999999/1" value="0" leadInLength="0/1"  interpolater="leadin-eioe"  />
           <InterpolatingParam id="9178" interp="linr"  time="-9999999/1" value="0" leadInLength="0/1"  interpolater="leadin-eioe"  />
           <InterpolatingParam id="9179" interp="linr"  time="-9999999/1" value="0" leadInLength="0/1"  interpolater="leadin-eioe"  />
           <InterpolatingParam id="9180" interp="linr"  time="-9999999/1" value="0" leadInLength="0/1"  interpolater="leadin-eioe"  />
          </VectorParam>
          <InterpolatingParam id="9181" interp="linr"  time="-9999999/1" value="1" leadInLength="0/1"  name="opacity"/>
         </Parameters>
         <Effects>
          <GenericEffect id="9182" name = "DropShadow" >
           <Parameters>
           <InterpolatingParam id="9183" interp="linr"  time="0/1" value="315" leadInLength="0/1"   name="angle"/>
           <InterpolatingParam id="9184" interp="linr"  time="0/1" value="5" leadInLength="0/1"   name="blur"/>
           <Parameter id="9185"   name="enabled">
            <Keyframes>
            <Keyframe id="9186"  time="0/1" value="1" leadInLength="0/1"  />
            </Keyframes>
           </Parameter>
           <InterpolatingParam id="9187" interp="linr"  time="0/1" value="10" leadInLength="0/1"   name="offset"/>
           <InterpolatingParam id="9188" interp="linr"  time="0/1" value="0.75" leadInLength="0/1"   name="opacity"/>
           </Parameters>
          </GenericEffect>
          <GenericEffect id="9189" name = "TextEffect" >
           <Parameters>
           <Parameter id="9190"   name="text">
            <Keyframes>
            <Keyframe id="9191"  time="0/1" value="{\rtf1\ansi\ansicpg1252\deff0\deflang1033{\fonttbl{\f0\fswiss\fprq2\fcharset0 Impact;}}&#xD;&#xa;{\colortbl ;\red218\green182\blue1;}&#xD;&#xa;\viewkind4\uc1\pard\qc\cf1\f0\fs72 What is IOT ?\par&#xD;&#xa;\fs52 How big is the market?\par&#xD;&#xa;What we will do  in the course\par&#xD;&#xa;The products we will Build\par&#xD;&#xa;Course Structure and more\fs72\par&#xD;&#xa;\par&#xD;&#xa; \par&#xD;&#xa;}&#xD;&#xa;" leadInLength="0/1"  />
            </Keyframes>
           </Parameter>
           <InterpolatingParam id="9192" interp="linr"  time="0/1" value="30" leadInLength="0/1"   name="textDimensionTime"/>
           <Parameter id="9193"   name="textDropShadow">
            <Keyframes>
            <Keyframe id="9194"  time="0/1" value="0" leadInLength="0/1"  />
            </Keyframes>
           </Parameter>
           <Parameter id="9195"   name="textIgnoresOpacity">
            <Keyframes>
            <Keyframe id="9196"  time="0/1" value="0" leadInLength="0/1"  />
            </Keyframes>
           </Parameter>
           <InterpolatingParam id="9197" interp="linr"  time="0/1" value="0.63200000000000001" leadInLength="0/1"   name="textRectHeight"/>
           <InterpolatingParam id="9198" interp="linr"  time="0/1" value="0.85538461538461541" leadInLength="0/1"   name="textRectWidth"/>
           <InterpolatingParam id="9199" interp="linr"  time="0/1" value="0.069230769230769235" leadInLength="0/1"   name="textRectX"/>
           <InterpolatingParam id="9200" interp="linr"  time="0/1" value="0.188" leadInLength="0/1"   name="textRectY"/>
           <Parameter id="9201"   name="textVerticalAlign">
            <Keyframes>
            <Keyframe id="9202"  time="0/1" value="0" leadInLength="0/1"  />
            </Keyframes>
           </Parameter>
           </Parameters>
          </GenericEffect>
         </Effects>
         <Attributes>
          <Attribute id="9203" value="" name="ident"/>
         </Attributes>
         <MetaData>
          <entry key="WinSubProjectDisplayName" val=""/>
         </MetaData>
         <ExtraData>
          <Entry key="ZoomPanBin">
           <ZoomPanBin id="9204"  >
            <ZoomPanKeyframes>
             <ZoomPanKeyframe id="9205" timeRangeEnd="-9999999/1" timeRangeDuration="0/1" interpolaterName="linr"  />
            </ZoomPanKeyframes>
           </ZoomPanBin>
          </Entry>
         </ExtraData>
        </IMFile>
        <IMFile id="9206" start="422" duration="109" scalar="1/1" mediaStart="0/1" mediaDuration="1/1" trackNumber="0" src="13" trimStartSum="144/1" >
         <Transformer>
          <VectorParam id="9207"  name="translation">
           <InterpolatingParam id="9208" interp="linr"  time="-9999999/1" value="-372.90836653313346" leadInLength="0/1"  />
           <InterpolatingParam id="9209" interp="linr"  time="-9999999/1" value="-127.66932270906165" leadInLength="0/1"  />
           <InterpolatingParam id="9210" interp="linr"  time="-9999999/1" value="0" leadInLength="0/1"  />
          </VectorParam>
          <VectorParam id="9211"  name="rotation">
           <InterpolatingParam id="9212" interp="linr"  time="-9999999/1" value="0" leadInLength="0/1"  />
           <InterpolatingParam id="9213" interp="linr"  time="-9999999/1" value="0" leadInLength="0/1"  />
           <InterpolatingParam id="9214" interp="linr"  time="-9999999/1" value="0" leadInLength="0/1"  />
          </VectorParam>
          <VectorParam id="9215"  name="shear">
           <InterpolatingParam id="9216" interp="linr"  time="-9999999/1" value="0" leadInLength="0/1"  />
           <InterpolatingParam id="9217" interp="linr"  time="-9999999/1" value="0" leadInLength="0/1"  />
           <InterpolatingParam id="9218" interp="linr"  time="-9999999/1" value="0" leadInLength="0/1"  />
          </VectorParam>
          <VectorParam id="9219"  name="scale">
           <InterpolatingParam id="9220" interp="linr"  time="-9999999/1" value="0.80582286239884537" leadInLength="0/1"  />
           <InterpolatingParam id="9221" interp="linr"  time="-9999999/1" value="1.8812903446711935" leadInLength="0/1"  />
           <InterpolatingParam id="9222" interp="linr"  time="-9999999/1" value="1" leadInLength="0/1"  />
          </VectorParam>
          <VectorParam id="9223"  name="anchor">
           <InterpolatingParam id="9224" interp="linr"  time="0/1" value="0" leadInLength="0/1"  />
           <InterpolatingParam id="9225" interp="linr"  time="0/1" value="0" leadInLength="0/1"  />
           <InterpolatingParam id="9226" interp="linr"  time="0/1" value="0" leadInLength="0/1"  />
          </VectorParam>
         </Transformer>
         <Parameters>
          <VectorParam id="9227"  name="sourceCrop">
           <InterpolatingParam id="9228" interp="linr"  time="0/1" value="0" leadInLength="0/1"  />
           <InterpolatingParam id="9229" interp="linr"  time="0/1" value="0" leadInLength="0/1"  />
           <InterpolatingParam id="9230" interp="linr"  time="0/1" value="0" leadInLength="0/1"  />
           <InterpolatingParam id="9231" interp="linr"  time="0/1" value="0" leadInLength="0/1"  />
          </VectorParam>
          <VectorParam id="9232"  name="geometryCrop">
           <InterpolatingParam id="9233" interp="linr"  time="-9999999/1" value="0" leadInLength="0/1"  interpolater="leadin-eioe"  />
           <InterpolatingParam id="9234" interp="linr"  time="-9999999/1" value="0" leadInLength="0/1"  interpolater="leadin-eioe"  />
           <InterpolatingParam id="9235" interp="linr"  time="-9999999/1" value="0" leadInLength="0/1"  interpolater="leadin-eioe"  />
           <InterpolatingParam id="9236" interp="linr"  time="-9999999/1" value="0" leadInLength="0/1"  interpolater="leadin-eioe"  />
          </VectorParam>
          <InterpolatingParam id="9237" interp="linr"  time="-9999999/1" value="1" leadInLength="0/1"  name="opacity"/>
         </Parameters>
         <Effects>
          <GenericEffect id="9238" name = "DropShadow" >
           <Parameters>
           <InterpolatingParam id="9239" interp="linr"  time="0/1" value="315" leadInLength="0/1"   name="angle"/>
           <InterpolatingParam id="9240" interp="linr"  time="0/1" value="5" leadInLength="0/1"   name="blur"/>
           <Parameter id="9241"   name="enabled">
            <Keyframes>
            <Keyframe id="9242"  time="0/1" value="1" leadInLength="0/1"  />
            </Keyframes>
           </Parameter>
           <InterpolatingParam id="9243" interp="linr"  time="0/1" value="10" leadInLength="0/1"   name="offset"/>
           <InterpolatingParam id="9244" interp="linr"  time="0/1" value="0.75" leadInLength="0/1"   name="opacity"/>
           </Parameters>
          </GenericEffect>
          <GenericEffect id="9245" name = "TextEffect" >
           <Parameters>
           <Parameter id="9246"   name="text">
            <Keyframes>
            <Keyframe id="9247"  time="0/1" value="{\rtf1\ansi\ansicpg1252\deff0\deflang1033{\fonttbl{\f0\fswiss\fprq2\fcharset0 Impact;}}&#xD;&#xa;{\colortbl ;\red218\green182\blue1;}&#xD;&#xa;\viewkind4\uc1\pard\qc\cf1\f0\fs72 What is IOT ?\par&#xD;&#xa;\fs52 How big is the market?\par&#xD;&#xa;What we will do  in the course\par&#xD;&#xa;The products we will Build\par&#xD;&#xa;Course Structure and more\fs72\par&#xD;&#xa;\par&#xD;&#xa; \par&#xD;&#xa;}&#xD;&#xa;" leadInLength="0/1"  />
            </Keyframes>
           </Parameter>
           <InterpolatingParam id="9248" interp="linr"  time="0/1" value="30" leadInLength="0/1"   name="textDimensionTime"/>
           <Parameter id="9249"   name="textDropShadow">
            <Keyframes>
            <Keyframe id="9250"  time="0/1" value="0" leadInLength="0/1"  />
            </Keyframes>
           </Parameter>
           <Parameter id="9251"   name="textIgnoresOpacity">
            <Keyframes>
            <Keyframe id="9252"  time="0/1" value="0" leadInLength="0/1"  />
            </Keyframes>
           </Parameter>
           <InterpolatingParam id="9253" interp="linr"  time="0/1" value="0.63200000000000001" leadInLength="0/1"   name="textRectHeight"/>
           <InterpolatingParam id="9254" interp="linr"  time="0/1" value="0.85538461538461541" leadInLength="0/1"   name="textRectWidth"/>
           <InterpolatingParam id="9255" interp="linr"  time="0/1" value="0.069230769230769235" leadInLength="0/1"   name="textRectX"/>
           <InterpolatingParam id="9256" interp="linr"  time="0/1" value="0.188" leadInLength="0/1"   name="textRectY"/>
           <Parameter id="9257"   name="textVerticalAlign">
            <Keyframes>
            <Keyframe id="9258"  time="0/1" value="0" leadInLength="0/1"  />
            </Keyframes>
           </Parameter>
           </Parameters>
          </GenericEffect>
         </Effects>
         <Attributes>
          <Attribute id="9259" value="" name="ident"/>
         </Attributes>
         <MetaData>
          <entry key="WinSubProjectDisplayName" val=""/>
         </MetaData>
         <ExtraData>
          <Entry key="ZoomPanBin">
           <ZoomPanBin id="9260"  >
            <ZoomPanKeyframes>
             <ZoomPanKeyframe id="9261" timeRangeEnd="-9999999/1" timeRangeDuration="0/1" interpolaterName="linr"  />
            </ZoomPanKeyframes>
           </ZoomPanBin>
          </Entry>
         </ExtraData>
        </IMFile>
        <IMFile id="9262" start="531" duration="40" scalar="1/1" mediaStart="0/1" mediaDuration="1/1" trackNumber="0" src="13" trimStartSum="260/1" >
         <Transformer>
          <VectorParam id="9263"  name="translation">
           <InterpolatingParam id="9264" interp="linr"  time="-9999999/1" value="-372.90836653313346" leadInLength="0/1"  />
           <InterpolatingParam id="9265" interp="linr"  time="-9999999/1" value="-127.66932270906165" leadInLength="0/1"  />
           <InterpolatingParam id="9266" interp="linr"  time="-9999999/1" value="0" leadInLength="0/1"  />
          </VectorParam>
          <VectorParam id="9267"  name="rotation">
           <InterpolatingParam id="9268" interp="linr"  time="-9999999/1" value="0" leadInLength="0/1"  />
           <InterpolatingParam id="9269" interp="linr"  time="-9999999/1" value="0" leadInLength="0/1"  />
           <InterpolatingParam id="9270" interp="linr"  time="-9999999/1" value="0" leadInLength="0/1"  />
          </VectorParam>
          <VectorParam id="9271"  name="shear">
           <InterpolatingParam id="9272" interp="linr"  time="-9999999/1" value="0" leadInLength="0/1"  />
           <InterpolatingParam id="9273" interp="linr"  time="-9999999/1" value="0" leadInLength="0/1"  />
           <InterpolatingParam id="9274" interp="linr"  time="-9999999/1" value="0" leadInLength="0/1"  />
          </VectorParam>
          <VectorParam id="9275"  name="scale">
           <InterpolatingParam id="9276" interp="linr"  time="-9999999/1" value="0.80582286239884537" leadInLength="0/1"  />
           <InterpolatingParam id="9277" interp="linr"  time="-9999999/1" value="1.8812903446711935" leadInLength="0/1"  />
           <InterpolatingParam id="9278" interp="linr"  time="-9999999/1" value="1" leadInLength="0/1"  />
          </VectorParam>
          <VectorParam id="9279"  name="anchor">
           <InterpolatingParam id="9280" interp="linr"  time="0/1" value="0" leadInLength="0/1"  />
           <InterpolatingParam id="9281" interp="linr"  time="0/1" value="0" leadInLength="0/1"  />
           <InterpolatingParam id="9282" interp="linr"  time="0/1" value="0" leadInLength="0/1"  />
          </VectorParam>
         </Transformer>
         <Parameters>
          <VectorParam id="9283"  name="sourceCrop">
           <InterpolatingParam id="9284" interp="linr"  time="0/1" value="0" leadInLength="0/1"  />
           <InterpolatingParam id="9285" interp="linr"  time="0/1" value="0" leadInLength="0/1"  />
           <InterpolatingParam id="9286" interp="linr"  time="0/1" value="0" leadInLength="0/1"  />
           <InterpolatingParam id="9287" interp="linr"  time="0/1" value="0" leadInLength="0/1"  />
          </VectorParam>
          <VectorParam id="9288"  name="geometryCrop">
           <InterpolatingParam id="9289" interp="linr"  time="-9999999/1" value="0" leadInLength="0/1"  interpolater="leadin-eioe"  />
           <InterpolatingParam id="9290" interp="linr"  time="-9999999/1" value="0" leadInLength="0/1"  interpolater="leadin-eioe"  />
           <InterpolatingParam id="9291" interp="linr"  time="-9999999/1" value="0" leadInLength="0/1"  interpolater="leadin-eioe"  />
           <InterpolatingParam id="9292" interp="linr"  time="-9999999/1" value="0" leadInLength="0/1"  interpolater="leadin-eioe"  />
          </VectorParam>
          <InterpolatingParam id="9293" interp="linr"  time="-9999999/1" value="1" leadInLength="0/1"  name="opacity"/>
         </Parameters>
         <Effects>
          <GenericEffect id="9294" name = "DropShadow" >
           <Parameters>
           <InterpolatingParam id="9295" interp="linr"  time="0/1" value="315" leadInLength="0/1"   name="angle"/>
           <InterpolatingParam id="9296" interp="linr"  time="0/1" value="5" leadInLength="0/1"   name="blur"/>
           <Parameter id="9297"   name="enabled">
            <Keyframes>
            <Keyframe id="9298"  time="0/1" value="1" leadInLength="0/1"  />
            </Keyframes>
           </Parameter>
           <InterpolatingParam id="9299" interp="linr"  time="0/1" value="10" leadInLength="0/1"   name="offset"/>
           <InterpolatingParam id="9300" interp="linr"  time="0/1" value="0.75" leadInLength="0/1"   name="opacity"/>
           </Parameters>
          </GenericEffect>
          <GenericEffect id="9301" name = "TextEffect" >
           <Parameters>
           <Parameter id="9302"   name="text">
            <Keyframes>
            <Keyframe id="9303"  time="0/1" value="{\rtf1\ansi\ansicpg1252\deff0\deflang1033{\fonttbl{\f0\fswiss\fprq2\fcharset0 Impact;}}&#xD;&#xa;{\colortbl ;\red218\green182\blue1;}&#xD;&#xa;\viewkind4\uc1\pard\qc\cf1\f0\fs72 What is IOT ?\par&#xD;&#xa;\fs52 How big is the market?\par&#xD;&#xa;What we will do  in the course\par&#xD;&#xa;The products we will Build\par&#xD;&#xa;Course Structure and more\fs72\par&#xD;&#xa;\par&#xD;&#xa; \par&#xD;&#xa;}&#xD;&#xa;" leadInLength="0/1"  />
            </Keyframes>
           </Parameter>
           <InterpolatingParam id="9304" interp="linr"  time="0/1" value="30" leadInLength="0/1"   name="textDimensionTime"/>
           <Parameter id="9305"   name="textDropShadow">
            <Keyframes>
            <Keyframe id="9306"  time="0/1" value="0" leadInLength="0/1"  />
            </Keyframes>
           </Parameter>
           <Parameter id="9307"   name="textIgnoresOpacity">
            <Keyframes>
            <Keyframe id="9308"  time="0/1" value="0" leadInLength="0/1"  />
            </Keyframes>
           </Parameter>
           <InterpolatingParam id="9309" interp="linr"  time="0/1" value="0.63200000000000001" leadInLength="0/1"   name="textRectHeight"/>
           <InterpolatingParam id="9310" interp="linr"  time="0/1" value="0.85538461538461541" leadInLength="0/1"   name="textRectWidth"/>
           <InterpolatingParam id="9311" interp="linr"  time="0/1" value="0.069230769230769235" leadInLength="0/1"   name="textRectX"/>
           <InterpolatingParam id="9312" interp="linr"  time="0/1" value="0.188" leadInLength="0/1"   name="textRectY"/>
           <Parameter id="9313"   name="textVerticalAlign">
            <Keyframes>
            <Keyframe id="9314"  time="0/1" value="0" leadInLength="0/1"  />
            </Keyframes>
           </Parameter>
           </Parameters>
          </GenericEffect>
         </Effects>
         <Attributes>
          <Attribute id="9315" value="" name="ident"/>
         </Attributes>
         <MetaData>
          <entry key="WinSubProjectDisplayName" val=""/>
         </MetaData>
         <ExtraData>
          <Entry key="ZoomPanBin">
           <ZoomPanBin id="9316"  >
            <ZoomPanKeyframes>
             <ZoomPanKeyframe id="9317" timeRangeEnd="-9999999/1" timeRangeDuration="0/1" interpolaterName="linr"  />
            </ZoomPanKeyframes>
           </ZoomPanBin>
          </Entry>
         </ExtraData>
        </IMFile>
        <Callout id="9318" start="1511" duration="197" scalar="1/1" mediaStart="0/1" mediaDuration="197/1" >
         <Transformer>
          <VectorParam id="9319"  name="translation">
           <InterpolatingParam id="9320" interp="linr"  time="-9999999/1" value="420.23904382465645" leadInLength="0/1"  />
           <InterpolatingParam id="9321" interp="linr"  time="-9999999/1" value="-336.43061088988094" leadInLength="0/1"  />
           <InterpolatingParam id="9322" interp="linr"  time="-9999999/1" value="0" leadInLength="0/1"  />
          </VectorParam>
          <VectorParam id="9323"  name="rotation">
           <InterpolatingParam id="9324" interp="linr"  time="-9999999/1" value="0" leadInLength="0/1"  />
           <InterpolatingParam id="9325" interp="linr"  time="-9999999/1" value="0" leadInLength="0/1"  />
           <InterpolatingParam id="9326" interp="linr"  time="-9999999/1" value="0" leadInLength="0/1"  />
          </VectorParam>
          <VectorParam id="9327"  name="shear">
           <InterpolatingParam id="9328" interp="linr"  time="-9999999/1" value="0" leadInLength="0/1"  />
           <InterpolatingParam id="9329" interp="linr"  time="-9999999/1" value="0" leadInLength="0/1"  />
           <InterpolatingParam id="9330" interp="linr"  time="-9999999/1" value="0" leadInLength="0/1"  />
          </VectorParam>
          <VectorParam id="9331"  name="scale">
           <InterpolatingParam id="9332" interp="linr"  time="-9999999/1" value="0.56128427466652653" leadInLength="0/1"  />
           <InterpolatingParam id="9333" interp="linr"  time="-9999999/1" value="0.26003024937298952" leadInLength="0/1"  />
           <InterpolatingParam id="9334" interp="linr"  time="-9999999/1" value="1" leadInLength="0/1"  />
          </VectorParam>
          <VectorParam id="9335"  name="anchor">
           <InterpolatingParam id="9336" interp="linr"  time="0/1" value="0" leadInLength="0/1"  />
           <InterpolatingParam id="9337" interp="linr"  time="0/1" value="0" leadInLength="0/1"  />
           <InterpolatingParam id="9338" interp="linr"  time="0/1" value="0" leadInLength="0/1"  />
          </VectorParam>
         </Transformer>
         <Parameters>
          <VectorParam id="9339"  name="sourceCrop">
           <InterpolatingParam id="9340" interp="linr"  time="0/1" value="0" leadInLength="0/1"  />
           <InterpolatingParam id="9341" interp="linr"  time="0/1" value="0" leadInLength="0/1"  />
           <InterpolatingParam id="9342" interp="linr"  time="0/1" value="0" leadInLength="0/1"  />
           <InterpolatingParam id="9343" interp="linr"  time="0/1" value="0" leadInLength="0/1"  />
          </VectorParam>
          <VectorParam id="9344"  name="geometryCrop">
           <InterpolatingParam id="9345" interp="linr"  time="-9999999/1" value="0" leadInLength="0/1"  />
           <InterpolatingParam id="9346" interp="linr"  time="-9999999/1" value="0" leadInLength="0/1"  />
           <InterpolatingParam id="9347" interp="linr"  time="-9999999/1" value="0" leadInLength="0/1"  />
           <InterpolatingParam id="9348" interp="linr"  time="-9999999/1" value="0" leadInLength="0/1"  />
          </VectorParam>
          <InterpolatingParam id="9349" interp="linr"  time="-9999999/1" value="1" leadInLength="0/1"  name="opacity"/>
         </Parameters>
         <Attributes>
          <Attribute id="9350"  name="vectorNode">
           <VectorNode id="9351" kind="TypeWinBlur"  >
            <DoubleParameters>
             <InterpolatingParam id="9352" interp="linr"  time="0/1" value="1" leadInLength="0/1"  name="Intensity"/>
             <InterpolatingParam id="9353" interp="linr"  time="0/1" value="180" leadInLength="0/1"  name="height"/>
             <InterpolatingParam id="9354" interp="linr"  time="0/1" value="340" leadInLength="0/1"  name="width"/>
            </DoubleParameters>
            <StringParameters>
             <Parameter id="9355"  name="filename">
              <Keyframes>
              <Keyframe id="9356"  time="0/1" value="D:\Media\Studio\Callouts\blur_100x100.xml" leadInLength="0/1"  />
              </Keyframes>
             </Parameter>
             <Parameter id="9357"  name="name">
              <Keyframes>
              <Keyframe id="9358"  time="0/1" value="Blur" leadInLength="0/1"  />
              </Keyframes>
             </Parameter>
             <Parameter id="9359"  name="xmlContent">
              <Keyframes>
              <Keyframe id="9360"  time="0/1" value="﻿&lt;?xml version=&quot;1.0&quot;?&gt;&#xa;&#xa;&lt;Overlay version=&quot;1.0.1&quot;&gt;&#xa;&#xa;&lt;Overlay_Filename&gt;blur_100x100.png&lt;/Overlay_Filename&gt;&#xa;&lt;Overlay_Name&gt;Blur&lt;/Overlay_Name&gt;&#xa;&lt;Text_Top&gt;0&lt;/Text_Top&gt;&#xa;&lt;Text_Left&gt;0&lt;/Text_Left&gt;&#xa;&lt;Text_Bottom&gt;0&lt;/Text_Bottom&gt;&#xa;&lt;Text_Right&gt;0&lt;/Text_Right&gt;&#xa;&lt;Fill_Color&gt;0&lt;/Fill_Color&gt;&#xa;&lt;Border_Color&gt;0&lt;/Border_Color&gt;&#xa;&lt;/Overlay&gt;" leadInLength="0/1"  />
              </Keyframes>
             </Parameter>
            </StringParameters>
           </VectorNode>
          </Attribute>
         </Attributes>
         <MetaData>
          <entry key="WinSubProjectDisplayName" val=""/>
         </MetaData>
         <LeftEdgeMods length="30/1" groupName="OpacityFade">
          <EdgeMod parameter="9352">
           <FadeInFunc id="9361"  />
          </EdgeMod>
         </LeftEdgeMods>
         <ExtraData>
          <Entry key="ZoomPanBin">
           <ZoomPanBin id="9362"  >
            <ZoomPanKeyframes>
             <ZoomPanKeyframe id="9363" timeRangeEnd="-9999999/1" timeRangeDuration="0/1" interpolaterName="linr"  />
            </ZoomPanKeyframes>
           </ZoomPanBin>
          </Entry>
         </ExtraData>
        </Callout>
        <Callout id="9364" start="1708" duration="34" scalar="1/1" mediaStart="510/1" mediaDuration="34/1" >
         <Transformer>
          <VectorParam id="9365"  name="translation">
           <InterpolatingParam id="9366" interp="linr"  time="-9999999/1" value="420.23904382465645" leadInLength="0/1"  />
           <InterpolatingParam id="9367" interp="linr"  time="-9999999/1" value="-336.43061088988094" leadInLength="0/1"  />
           <InterpolatingParam id="9368" interp="linr"  time="-9999999/1" value="0" leadInLength="0/1"  />
          </VectorParam>
          <VectorParam id="9369"  name="rotation">
           <InterpolatingParam id="9370" interp="linr"  time="-9999999/1" value="0" leadInLength="0/1"  />
           <InterpolatingParam id="9371" interp="linr"  time="-9999999/1" value="0" leadInLength="0/1"  />
           <InterpolatingParam id="9372" interp="linr"  time="-9999999/1" value="0" leadInLength="0/1"  />
          </VectorParam>
          <VectorParam id="9373"  name="shear">
           <InterpolatingParam id="9374" interp="linr"  time="-9999999/1" value="0" leadInLength="0/1"  />
           <InterpolatingParam id="9375" interp="linr"  time="-9999999/1" value="0" leadInLength="0/1"  />
           <InterpolatingParam id="9376" interp="linr"  time="-9999999/1" value="0" leadInLength="0/1"  />
          </VectorParam>
          <VectorParam id="9377"  name="scale">
           <InterpolatingParam id="9378" interp="linr"  time="-9999999/1" value="0.56128427466652653" leadInLength="0/1"  />
           <InterpolatingParam id="9379" interp="linr"  time="-9999999/1" value="0.26003024937298952" leadInLength="0/1"  />
           <InterpolatingParam id="9380" interp="linr"  time="-9999999/1" value="1" leadInLength="0/1"  />
          </VectorParam>
          <VectorParam id="9381"  name="anchor">
           <InterpolatingParam id="9382" interp="linr"  time="0/1" value="0" leadInLength="0/1"  />
           <InterpolatingParam id="9383" interp="linr"  time="0/1" value="0" leadInLength="0/1"  />
           <InterpolatingParam id="9384" interp="linr"  time="0/1" value="0" leadInLength="0/1"  />
          </VectorParam>
         </Transformer>
         <Parameters>
          <VectorParam id="9385"  name="sourceCrop">
           <InterpolatingParam id="9386" interp="linr"  time="0/1" value="0" leadInLength="0/1"  />
           <InterpolatingParam id="9387" interp="linr"  time="0/1" value="0" leadInLength="0/1"  />
           <InterpolatingParam id="9388" interp="linr"  time="0/1" value="0" leadInLength="0/1"  />
           <InterpolatingParam id="9389" interp="linr"  time="0/1" value="0" leadInLength="0/1"  />
          </VectorParam>
          <VectorParam id="9390"  name="geometryCrop">
           <InterpolatingParam id="9391" interp="linr"  time="-9999999/1" value="0" leadInLength="0/1"  />
           <InterpolatingParam id="9392" interp="linr"  time="-9999999/1" value="0" leadInLength="0/1"  />
           <InterpolatingParam id="9393" interp="linr"  time="-9999999/1" value="0" leadInLength="0/1"  />
           <InterpolatingParam id="9394" interp="linr"  time="-9999999/1" value="0" leadInLength="0/1"  />
          </VectorParam>
          <InterpolatingParam id="9395" interp="linr"  time="-9999999/1" value="1" leadInLength="0/1"  name="opacity"/>
         </Parameters>
         <Attributes>
          <Attribute id="9396"  name="vectorNode">
           <VectorNode id="9397" kind="TypeWinBlur"  >
            <DoubleParameters>
             <InterpolatingParam id="9398" interp="linr"  time="0/1" value="1" leadInLength="0/1"  name="Intensity"/>
             <InterpolatingParam id="9399" interp="linr"  time="0/1" value="180" leadInLength="0/1"  name="height"/>
             <InterpolatingParam id="9400" interp="linr"  time="0/1" value="340" leadInLength="0/1"  name="width"/>
            </DoubleParameters>
            <StringParameters>
             <Parameter id="9401"  name="filename">
              <Keyframes>
              <Keyframe id="9402"  time="0/1" value="D:\Media\Studio\Callouts\blur_100x100.xml" leadInLength="0/1"  />
              </Keyframes>
             </Parameter>
             <Parameter id="9403"  name="name">
              <Keyframes>
              <Keyframe id="9404"  time="0/1" value="Blur" leadInLength="0/1"  />
              </Keyframes>
             </Parameter>
             <Parameter id="9405"  name="xmlContent">
              <Keyframes>
              <Keyframe id="9406"  time="0/1" value="﻿&lt;?xml version=&quot;1.0&quot;?&gt;&#xa;&#xa;&lt;Overlay version=&quot;1.0.1&quot;&gt;&#xa;&#xa;&lt;Overlay_Filename&gt;blur_100x100.png&lt;/Overlay_Filename&gt;&#xa;&lt;Overlay_Name&gt;Blur&lt;/Overlay_Name&gt;&#xa;&lt;Text_Top&gt;0&lt;/Text_Top&gt;&#xa;&lt;Text_Left&gt;0&lt;/Text_Left&gt;&#xa;&lt;Text_Bottom&gt;0&lt;/Text_Bottom&gt;&#xa;&lt;Text_Right&gt;0&lt;/Text_Right&gt;&#xa;&lt;Fill_Color&gt;0&lt;/Fill_Color&gt;&#xa;&lt;Border_Color&gt;0&lt;/Border_Color&gt;&#xa;&lt;/Overlay&gt;" leadInLength="0/1"  />
              </Keyframes>
             </Parameter>
            </StringParameters>
           </VectorNode>
          </Attribute>
         </Attributes>
         <MetaData>
          <entry key="WinSubProjectDisplayName" val=""/>
         </MetaData>
         <ExtraData>
          <Entry key="ZoomPanBin">
           <ZoomPanBin id="9407"  >
            <ZoomPanKeyframes>
             <ZoomPanKeyframe id="9408" timeRangeEnd="-9999999/1" timeRangeDuration="0/1" interpolaterName="linr"  />
            </ZoomPanKeyframes>
           </ZoomPanBin>
          </Entry>
         </ExtraData>
        </Callout>
        <Callout id="9409" start="1742" duration="99" scalar="1/1" mediaStart="570/1" mediaDuration="99/1" >
         <Transformer>
          <VectorParam id="9410"  name="translation">
           <InterpolatingParam id="9411" interp="linr"  time="-9999999/1" value="420.23904382465645" leadInLength="0/1"  />
           <InterpolatingParam id="9412" interp="linr"  time="-9999999/1" value="-336.43061088988094" leadInLength="0/1"  />
           <InterpolatingParam id="9413" interp="linr"  time="-9999999/1" value="0" leadInLength="0/1"  />
          </VectorParam>
          <VectorParam id="9414"  name="rotation">
           <InterpolatingParam id="9415" interp="linr"  time="-9999999/1" value="0" leadInLength="0/1"  />
           <InterpolatingParam id="9416" interp="linr"  time="-9999999/1" value="0" leadInLength="0/1"  />
           <InterpolatingParam id="9417" interp="linr"  time="-9999999/1" value="0" leadInLength="0/1"  />
          </VectorParam>
          <VectorParam id="9418"  name="shear">
           <InterpolatingParam id="9419" interp="linr"  time="-9999999/1" value="0" leadInLength="0/1"  />
           <InterpolatingParam id="9420" interp="linr"  time="-9999999/1" value="0" leadInLength="0/1"  />
           <InterpolatingParam id="9421" interp="linr"  time="-9999999/1" value="0" leadInLength="0/1"  />
          </VectorParam>
          <VectorParam id="9422"  name="scale">
           <InterpolatingParam id="9423" interp="linr"  time="-9999999/1" value="0.56128427466652653" leadInLength="0/1"  />
           <InterpolatingParam id="9424" interp="linr"  time="-9999999/1" value="0.26003024937298952" leadInLength="0/1"  />
           <InterpolatingParam id="9425" interp="linr"  time="-9999999/1" value="1" leadInLength="0/1"  />
          </VectorParam>
          <VectorParam id="9426"  name="anchor">
           <InterpolatingParam id="9427" interp="linr"  time="0/1" value="0" leadInLength="0/1"  />
           <InterpolatingParam id="9428" interp="linr"  time="0/1" value="0" leadInLength="0/1"  />
           <InterpolatingParam id="9429" interp="linr"  time="0/1" value="0" leadInLength="0/1"  />
          </VectorParam>
         </Transformer>
         <Parameters>
          <VectorParam id="9430"  name="sourceCrop">
           <InterpolatingParam id="9431" interp="linr"  time="0/1" value="0" leadInLength="0/1"  />
           <InterpolatingParam id="9432" interp="linr"  time="0/1" value="0" leadInLength="0/1"  />
           <InterpolatingParam id="9433" interp="linr"  time="0/1" value="0" leadInLength="0/1"  />
           <InterpolatingParam id="9434" interp="linr"  time="0/1" value="0" leadInLength="0/1"  />
          </VectorParam>
          <VectorParam id="9435"  name="geometryCrop">
           <InterpolatingParam id="9436" interp="linr"  time="-9999999/1" value="0" leadInLength="0/1"  />
           <InterpolatingParam id="9437" interp="linr"  time="-9999999/1" value="0" leadInLength="0/1"  />
           <InterpolatingParam id="9438" interp="linr"  time="-9999999/1" value="0" leadInLength="0/1"  />
           <InterpolatingParam id="9439" interp="linr"  time="-9999999/1" value="0" leadInLength="0/1"  />
          </VectorParam>
          <InterpolatingParam id="9440" interp="linr"  time="-9999999/1" value="1" leadInLength="0/1"  name="opacity"/>
         </Parameters>
         <Attributes>
          <Attribute id="9441"  name="vectorNode">
           <VectorNode id="9442" kind="TypeWinBlur"  >
            <DoubleParameters>
             <InterpolatingParam id="9443" interp="linr"  time="0/1" value="1" leadInLength="0/1"  name="Intensity"/>
             <InterpolatingParam id="9444" interp="linr"  time="0/1" value="180" leadInLength="0/1"  name="height"/>
             <InterpolatingParam id="9445" interp="linr"  time="0/1" value="340" leadInLength="0/1"  name="width"/>
            </DoubleParameters>
            <StringParameters>
             <Parameter id="9446"  name="filename">
              <Keyframes>
              <Keyframe id="9447"  time="0/1" value="D:\Media\Studio\Callouts\blur_100x100.xml" leadInLength="0/1"  />
              </Keyframes>
             </Parameter>
             <Parameter id="9448"  name="name">
              <Keyframes>
              <Keyframe id="9449"  time="0/1" value="Blur" leadInLength="0/1"  />
              </Keyframes>
             </Parameter>
             <Parameter id="9450"  name="xmlContent">
              <Keyframes>
              <Keyframe id="9451"  time="0/1" value="﻿&lt;?xml version=&quot;1.0&quot;?&gt;&#xa;&#xa;&lt;Overlay version=&quot;1.0.1&quot;&gt;&#xa;&#xa;&lt;Overlay_Filename&gt;blur_100x100.png&lt;/Overlay_Filename&gt;&#xa;&lt;Overlay_Name&gt;Blur&lt;/Overlay_Name&gt;&#xa;&lt;Text_Top&gt;0&lt;/Text_Top&gt;&#xa;&lt;Text_Left&gt;0&lt;/Text_Left&gt;&#xa;&lt;Text_Bottom&gt;0&lt;/Text_Bottom&gt;&#xa;&lt;Text_Right&gt;0&lt;/Text_Right&gt;&#xa;&lt;Fill_Color&gt;0&lt;/Fill_Color&gt;&#xa;&lt;Border_Color&gt;0&lt;/Border_Color&gt;&#xa;&lt;/Overlay&gt;" leadInLength="0/1"  />
              </Keyframes>
             </Parameter>
            </StringParameters>
           </VectorNode>
          </Attribute>
         </Attributes>
         <MetaData>
          <entry key="WinSubProjectDisplayName" val=""/>
         </MetaData>
         <RightEdgeMods length="30/1" groupName="OpacityFade">
          <EdgeMod parameter="9443">
           <FadeOutFunc id="9452"  />
          </EdgeMod>
         </RightEdgeMods>
         <ExtraData>
          <Entry key="ZoomPanBin">
           <ZoomPanBin id="9453"  >
            <ZoomPanKeyframes>
             <ZoomPanKeyframe id="9454" timeRangeEnd="-9999999/1" timeRangeDuration="0/1" interpolaterName="linr"  />
            </ZoomPanKeyframes>
           </ZoomPanBin>
          </Entry>
         </ExtraData>
        </Callout>
        <VMFile id="9455" start="5998" duration="600" scalar="1/1" mediaStart="0/1" mediaDuration="600/1" trackNumber="0" src="16" >
         <Transformer>
          <VectorParam id="9456"  name="translation">
           <InterpolatingParam id="9457" interp="linr"  time="-9999999/1" value="450.91633466145964" leadInLength="0/1"  />
           <InterpolatingParam id="9458" interp="linr"  time="-9999999/1" value="17.241993715201499" leadInLength="0/1"  />
           <InterpolatingParam id="9459" interp="linr"  time="-9999999/1" value="0" leadInLength="0/1"  />
          </VectorParam>
          <VectorParam id="9460"  name="rotation">
           <InterpolatingParam id="9461" interp="linr"  time="-9999999/1" value="0" leadInLength="0/1"  />
           <InterpolatingParam id="9462" interp="linr"  time="-9999999/1" value="0" leadInLength="0/1"  />
           <InterpolatingParam id="9463" interp="linr"  time="-9999999/1" value="0" leadInLength="0/1"  />
          </VectorParam>
          <VectorParam id="9464"  name="shear">
           <InterpolatingParam id="9465" interp="linr"  time="-9999999/1" value="0" leadInLength="0/1"  />
           <InterpolatingParam id="9466" interp="linr"  time="-9999999/1" value="0" leadInLength="0/1"  />
           <InterpolatingParam id="9467" interp="linr"  time="-9999999/1" value="0" leadInLength="0/1"  />
          </VectorParam>
          <VectorParam id="9468"  name="scale">
           <InterpolatingParam id="9469" interp="linr"  time="-9999999/1" value="0.35794322709117249" leadInLength="0/1"  />
           <InterpolatingParam id="9470" interp="linr"  time="-9999999/1" value="0.35794322709117249" leadInLength="0/1"  />
           <InterpolatingParam id="9471" interp="linr"  time="-9999999/1" value="1" leadInLength="0/1"  />
          </VectorParam>
          <VectorParam id="9472"  name="anchor">
           <InterpolatingParam id="9473" interp="linr"  time="0/1" value="0" leadInLength="0/1"  />
           <InterpolatingParam id="9474" interp="linr"  time="0/1" value="0" leadInLength="0/1"  />
           <InterpolatingParam id="9475" interp="linr"  time="0/1" value="0" leadInLength="0/1"  />
          </VectorParam>
         </Transformer>
         <Parameters>
          <VectorParam id="9476"  name="sourceCrop">
           <InterpolatingParam id="9477" interp="linr"  time="0/1" value="0" leadInLength="0/1"  />
           <InterpolatingParam id="9478" interp="linr"  time="0/1" value="0" leadInLength="0/1"  />
           <InterpolatingParam id="9479" interp="linr"  time="0/1" value="0" leadInLength="0/1"  />
           <InterpolatingParam id="9480" interp="linr"  time="0/1" value="0" leadInLength="0/1"  />
          </VectorParam>
          <VectorParam id="9481"  name="geometryCrop">
           <InterpolatingParam id="9482" interp="linr"  time="-9999999/1" value="0" leadInLength="0/1"  />
           <InterpolatingParam id="9483" interp="linr"  time="-9999999/1" value="0" leadInLength="0/1"  />
           <InterpolatingParam id="9484" interp="linr"  time="-9999999/1" value="0" leadInLength="0/1"  />
           <InterpolatingParam id="9485" interp="linr"  time="-9999999/1" value="0" leadInLength="0/1"  />
          </VectorParam>
          <InterpolatingParam id="9486" interp="linr"  time="-9999999/1" value="1" leadInLength="0/1"  name="opacity"/>
         </Parameters>
         <Attributes>
          <Attribute id="9487" value="" name="ident"/>
         </Attributes>
         <MetaData>
          <entry key="WinSubProjectDisplayName" val=""/>
         </MetaData>
         <ExtraData>
          <Entry key="ZoomPanBin">
           <ZoomPanBin id="9488"  >
            <ZoomPanKeyframes>
             <ZoomPanKeyframe id="9489" timeRangeEnd="-9999999/1" timeRangeDuration="0/1" interpolaterName="linr"  />
            </ZoomPanKeyframes>
           </ZoomPanBin>
          </Entry>
         </ExtraData>
        </VMFile>
       </Medias>
      </GenericTrack>
      <GenericTrack id="9490"  >
       <Attributes>
        <Attribute id="9491" value="" name="ident"/>
        <Attribute id="9492" value="0" name="audioMuted"/>
        <Attribute id="9493" value="0" name="videoHidden"/>
       </Attributes>
       <MetaData>
        <entry key="IsLocked" val="False"/>
        <entry key="WinTrackHeight" val="62"/>
       </MetaData>
       <Medias>
        <Callout id="9494" start="0" duration="150" scalar="1/1" mediaStart="0/1" mediaDuration="150/1" >
         <Transformer>
          <VectorParam id="9495"  name="translation">
           <InterpolatingParam id="9496" interp="linr"  time="-9999999/1" value="8.6055776896946039" leadInLength="0/1"  />
           <InterpolatingParam id="9497" interp="linr"  time="-9999999/1" value="239.52191235062557" leadInLength="0/1"  />
           <InterpolatingParam id="9498" interp="linr"  time="-9999999/1" value="0" leadInLength="0/1"  />
          </VectorParam>
          <VectorParam id="9499"  name="rotation">
           <InterpolatingParam id="9500" interp="linr"  time="-9999999/1" value="0" leadInLength="0/1"  />
           <InterpolatingParam id="9501" interp="linr"  time="-9999999/1" value="0" leadInLength="0/1"  />
           <InterpolatingParam id="9502" interp="linr"  time="-9999999/1" value="0" leadInLength="0/1"  />
          </VectorParam>
          <VectorParam id="9503"  name="shear">
           <InterpolatingParam id="9504" interp="linr"  time="-9999999/1" value="0" leadInLength="0/1"  />
           <InterpolatingParam id="9505" interp="linr"  time="-9999999/1" value="0" leadInLength="0/1"  />
           <InterpolatingParam id="9506" interp="linr"  time="-9999999/1" value="0" leadInLength="0/1"  />
          </VectorParam>
          <VectorParam id="9507"  name="scale">
           <InterpolatingParam id="9508" interp="linr"  time="-9999999/1" value="2.8645418326720264" leadInLength="0/1"  />
           <InterpolatingParam id="9509" interp="linr"  time="-9999999/1" value="1.1912350597606542" leadInLength="0/1"  />
           <InterpolatingParam id="9510" interp="linr"  time="-9999999/1" value="1" leadInLength="0/1"  />
          </VectorParam>
          <VectorParam id="9511"  name="anchor">
           <InterpolatingParam id="9512" interp="linr"  time="0/1" value="0" leadInLength="0/1"  />
           <InterpolatingParam id="9513" interp="linr"  time="0/1" value="0" leadInLength="0/1"  />
           <InterpolatingParam id="9514" interp="linr"  time="0/1" value="0" leadInLength="0/1"  />
          </VectorParam>
         </Transformer>
         <Parameters>
          <VectorParam id="9515"  name="sourceCrop">
           <InterpolatingParam id="9516" interp="linr"  time="0/1" value="0" leadInLength="0/1"  />
           <InterpolatingParam id="9517" interp="linr"  time="0/1" value="0" leadInLength="0/1"  />
           <InterpolatingParam id="9518" interp="linr"  time="0/1" value="0" leadInLength="0/1"  />
           <InterpolatingParam id="9519" interp="linr"  time="0/1" value="0" leadInLength="0/1"  />
          </VectorParam>
          <VectorParam id="9520"  name="geometryCrop">
           <InterpolatingParam id="9521" interp="linr"  time="-9999999/1" value="0" leadInLength="0/1"  />
           <InterpolatingParam id="9522" interp="linr"  time="-9999999/1" value="0" leadInLength="0/1"  />
           <InterpolatingParam id="9523" interp="linr"  time="-9999999/1" value="0" leadInLength="0/1"  />
           <InterpolatingParam id="9524" interp="linr"  time="-9999999/1" value="0" leadInLength="0/1"  />
          </VectorParam>
          <InterpolatingParam id="9525" interp="linr"  time="-9999999/1" value="1" leadInLength="0/1"  name="opacity"/>
         </Parameters>
         <Attributes>
          <Attribute id="9526"  name="vectorNode">
           <VectorNode id="9527" kind="TypeWinText"  >
            <DoubleParameters>
             <InterpolatingParam id="9528" interp="linr"  time="0/1" value="5" leadInLength="0/1"  name="Style"/>
             <InterpolatingParam id="9529" interp="linr"  time="0/1" value="0" leadInLength="0/1"  name="dimensionTime"/>
             <InterpolatingParam id="9530" interp="linr"  time="0/1" value="180" leadInLength="0/1"  name="height"/>
             <InterpolatingParam id="9531" interp="linr"  time="0/1" value="0" leadInLength="0/1"  name="textDropShadow"/>
             <InterpolatingParam id="9532" interp="linr"  time="0/1" value="0" leadInLength="0/1"  name="textIgnoresOpacity"/>
             <InterpolatingParam id="9533" interp="linr"  time="0/1" value="1" leadInLength="0/1"  name="textRectHeight"/>
             <InterpolatingParam id="9534" interp="linr"  time="0/1" value="1" leadInLength="0/1"  name="textRectWidth"/>
             <InterpolatingParam id="9535" interp="linr"  time="0/1" value="0" leadInLength="0/1"  name="textRectX"/>
             <InterpolatingParam id="9536" interp="linr"  time="0/1" value="0" leadInLength="0/1"  name="textRectY"/>
             <InterpolatingParam id="9537" interp="linr"  time="0/1" value="0" leadInLength="0/1"  name="textVerticalAlign"/>
             <InterpolatingParam id="9538" interp="linr"  time="0/1" value="340" leadInLength="0/1"  name="width"/>
            </DoubleParameters>
            <StringParameters>
             <Parameter id="9539"  name="filename">
              <Keyframes>
              <Keyframe id="9540"  time="0/1" value="D:\Media\Studio\Callouts\trans_100x100.xml" leadInLength="0/1"  />
              </Keyframes>
             </Parameter>
             <Parameter id="9541"  name="name">
              <Keyframes>
              <Keyframe id="9542"  time="0/1" value="Text" leadInLength="0/1"  />
              </Keyframes>
             </Parameter>
             <Parameter id="9543"  name="text">
              <Keyframes>
              <Keyframe id="9544"  time="0/1" value="{\rtf1\ansi\ansicpg1252\deff0\deflang1033{\fonttbl{\f0\fswiss\fprq2\fcharset0 Impact;}{\f1\fswiss\fprq2\fcharset0 Arial;}}&#xD;&#xa;{\colortbl ;\red245\green244\blue69;}&#xD;&#xa;\viewkind4\uc1\pard\qc\cf1\f0\fs130 Complete guide to build IOT Things from scratch to market\par&#xD;&#xa;\b\f1\fs56\par&#xD;&#xa;}&#xD;&#xa;" leadInLength="0/1"  />
              </Keyframes>
             </Parameter>
             <Parameter id="9545"  name="xmlContent">
              <Keyframes>
              <Keyframe id="9546"  time="0/1" value="﻿&lt;?xml version=&quot;1.0&quot;?&gt;&#xa;&#xa;&lt;Overlay version=&quot;1.0.1&quot;&gt;&#xa;&#xa;&lt;Overlay_Filename&gt;trans_100x100.png&lt;/Overlay_Filename&gt;&#xa;&lt;Overlay_Name&gt;Text&lt;/Overlay_Name&gt;&#xa;&lt;Text_Top&gt;0&lt;/Text_Top&gt;&#xa;&lt;Text_Left&gt;0&lt;/Text_Left&gt;&#xa;&lt;Text_Bottom&gt;0&lt;/Text_Bottom&gt;&#xa;&lt;Text_Right&gt;0&lt;/Text_Right&gt;&#xa;&lt;Fill_Color&gt;0&lt;/Fill_Color&gt;&#xa;&lt;Border_Color&gt;0&lt;/Border_Color&gt;&#xa;&lt;Style&gt;5&lt;/Style&gt;&#xa;&lt;/Overlay&gt;" leadInLength="0/1"  />
              </Keyframes>
             </Parameter>
            </StringParameters>
           </VectorNode>
          </Attribute>
         </Attributes>
         <MetaData>
          <entry key="WinSubProjectDisplayName" val=""/>
         </MetaData>
         <LeftEdgeMods length="0/1" groupName="OpacityFade">
          <EdgeMod parameter="9525">
           <FadeInFunc id="9361"  />
          </EdgeMod>
         </LeftEdgeMods>
         <RightEdgeMods length="0/1" groupName="OpacityFade">
          <EdgeMod parameter="9525">
           <FadeOutFunc id="9547"  />
          </EdgeMod>
         </RightEdgeMods>
         <ExtraData>
          <Entry key="ZoomPanBin">
           <ZoomPanBin id="9548"  >
            <ZoomPanKeyframes>
             <ZoomPanKeyframe id="9549" timeRangeEnd="-9999999/1" timeRangeDuration="0/1" interpolaterName="linr"  />
            </ZoomPanKeyframes>
           </ZoomPanBin>
          </Entry>
         </ExtraData>
        </Callout>
        <Callout id="9550" start="6077" duration="521" scalar="1/1" mediaStart="-50/1" mediaDuration="521/1" >
         <Transformer>
          <VectorParam id="9551"  name="translation">
           <InterpolatingParam id="9552" interp="linr"  time="-9999999/1" value="450.91633466153655" leadInLength="0/1"  />
           <InterpolatingParam id="9553" interp="linr"  time="-9999999/1" value="17.241993715513008" leadInLength="0/1"  />
           <InterpolatingParam id="9554" interp="linr"  time="-9999999/1" value="-3.410605131648287e-010" leadInLength="0/1"  />
          </VectorParam>
          <VectorParam id="9555"  name="rotation">
           <InterpolatingParam id="9556" interp="linr"  time="-9999999/1" value="0" leadInLength="0/1"  />
           <InterpolatingParam id="9557" interp="linr"  time="-9999999/1" value="0" leadInLength="0/1"  />
           <InterpolatingParam id="9558" interp="linr"  time="-9999999/1" value="0" leadInLength="0/1"  />
          </VectorParam>
          <VectorParam id="9559"  name="shear">
           <InterpolatingParam id="9560" interp="linr"  time="-9999999/1" value="0" leadInLength="0/1"  />
           <InterpolatingParam id="9561" interp="linr"  time="-9999999/1" value="0" leadInLength="0/1"  />
           <InterpolatingParam id="9562" interp="linr"  time="-9999999/1" value="0" leadInLength="0/1"  />
          </VectorParam>
          <VectorParam id="9563"  name="scale">
           <InterpolatingParam id="9564" interp="linr"  time="-9999999/1" value="1.1645183969995991" leadInLength="0/1"  />
           <InterpolatingParam id="9565" interp="linr"  time="-9999999/1" value="1.431772908367823" leadInLength="0/1"  />
           <InterpolatingParam id="9566" interp="linr"  time="-9999999/1" value="1" leadInLength="0/1"  />
          </VectorParam>
          <VectorParam id="9567"  name="anchor">
           <InterpolatingParam id="9568" interp="linr"  time="0/1" value="0" leadInLength="0/1"  />
           <InterpolatingParam id="9569" interp="linr"  time="0/1" value="0" leadInLength="0/1"  />
           <InterpolatingParam id="9570" interp="linr"  time="0/1" value="0" leadInLength="0/1"  />
          </VectorParam>
         </Transformer>
         <Parameters>
          <VectorParam id="9571"  name="sourceCrop">
           <InterpolatingParam id="9572" interp="linr"  time="0/1" value="0" leadInLength="0/1"  />
           <InterpolatingParam id="9573" interp="linr"  time="0/1" value="0" leadInLength="0/1"  />
           <InterpolatingParam id="9574" interp="linr"  time="0/1" value="0" leadInLength="0/1"  />
           <InterpolatingParam id="9575" interp="linr"  time="0/1" value="0" leadInLength="0/1"  />
          </VectorParam>
          <VectorParam id="9576"  name="geometryCrop">
           <InterpolatingParam id="9577" interp="linr"  time="-9999999/1" value="0" leadInLength="0/1"  />
           <InterpolatingParam id="9578" interp="linr"  time="-9999999/1" value="0" leadInLength="0/1"  />
           <InterpolatingParam id="9579" interp="linr"  time="-9999999/1" value="0" leadInLength="0/1"  />
           <InterpolatingParam id="9580" interp="linr"  time="-9999999/1" value="0" leadInLength="0/1"  />
          </VectorParam>
          <InterpolatingParam id="9581" interp="linr"  time="-9999999/1" value="1" leadInLength="0/1"  name="opacity"/>
         </Parameters>
         <Attributes>
          <Attribute id="9582"  name="vectorNode">
           <VectorNode id="9583" kind="TypeWinText"  >
            <DoubleParameters>
             <InterpolatingParam id="9584" interp="linr"  time="0/1" value="5" leadInLength="0/1"  name="Style"/>
             <InterpolatingParam id="9585" interp="linr"  time="0/1" value="0" leadInLength="0/1"  name="dimensionTime"/>
             <InterpolatingParam id="9586" interp="linr"  time="0/1" value="180" leadInLength="0/1"  name="height"/>
             <InterpolatingParam id="9587" interp="linr"  time="0/1" value="0" leadInLength="0/1"  name="textDropShadow"/>
             <InterpolatingParam id="9588" interp="linr"  time="0/1" value="0" leadInLength="0/1"  name="textIgnoresOpacity"/>
             <InterpolatingParam id="9589" interp="linr"  time="0/1" value="1" leadInLength="0/1"  name="textRectHeight"/>
             <InterpolatingParam id="9590" interp="linr"  time="0/1" value="1" leadInLength="0/1"  name="textRectWidth"/>
             <InterpolatingParam id="9591" interp="linr"  time="0/1" value="0" leadInLength="0/1"  name="textRectX"/>
             <InterpolatingParam id="9592" interp="linr"  time="0/1" value="0" leadInLength="0/1"  name="textRectY"/>
             <InterpolatingParam id="9593" interp="linr"  time="0/1" value="0" leadInLength="0/1"  name="textVerticalAlign"/>
             <InterpolatingParam id="9594" interp="linr"  time="0/1" value="340" leadInLength="0/1"  name="width"/>
            </DoubleParameters>
            <StringParameters>
             <Parameter id="9595"  name="filename">
              <Keyframes>
              <Keyframe id="9596"  time="0/1" value="D:\Media\Studio\Callouts\trans_100x100.xml" leadInLength="0/1"  />
              </Keyframes>
             </Parameter>
             <Parameter id="9597"  name="name">
              <Keyframes>
              <Keyframe id="9598"  time="0/1" value="Text" leadInLength="0/1"  />
              </Keyframes>
             </Parameter>
             <Parameter id="9599"  name="text">
              <Keyframes>
              <Keyframe id="9600"  time="0/1" value="{\rtf1\ansi\ansicpg1252\deff0\deflang1033{\fonttbl{\f0\fswiss\fprq2\fcharset0 Arial;}}&#xD;&#xa;{\colortbl ;\red0\green0\blue0;}&#xD;&#xa;\viewkind4\uc1\pard\qc\cf1\b\f0\fs56 T\fs36 arget Audience:\par&#xD;&#xa;\par&#xD;&#xa;1) DYI Enthusiasts, Engineers\par&#xD;&#xa;2) IOT beginners, \par&#xD;&#xa;3) Curious Professionals \par&#xD;&#xa;4) College Students\par&#xD;&#xa;5) Anyone who wants to create IOT products\par&#xD;&#xa;\fs32\par&#xD;&#xa;}&#xD;&#xa;" leadInLength="0/1"  />
              </Keyframes>
             </Parameter>
             <Parameter id="9601"  name="xmlContent">
              <Keyframes>
              <Keyframe id="9602"  time="0/1" value="﻿&lt;?xml version=&quot;1.0&quot;?&gt;&#xa;&#xa;&lt;Overlay version=&quot;1.0.1&quot;&gt;&#xa;&#xa;&lt;Overlay_Filename&gt;trans_100x100.png&lt;/Overlay_Filename&gt;&#xa;&lt;Overlay_Name&gt;Text&lt;/Overlay_Name&gt;&#xa;&lt;Text_Top&gt;0&lt;/Text_Top&gt;&#xa;&lt;Text_Left&gt;0&lt;/Text_Left&gt;&#xa;&lt;Text_Bottom&gt;0&lt;/Text_Bottom&gt;&#xa;&lt;Text_Right&gt;0&lt;/Text_Right&gt;&#xa;&lt;Fill_Color&gt;0&lt;/Fill_Color&gt;&#xa;&lt;Border_Color&gt;0&lt;/Border_Color&gt;&#xa;&lt;Style&gt;5&lt;/Style&gt;&#xa;&lt;/Overlay&gt;" leadInLength="0/1"  />
              </Keyframes>
             </Parameter>
            </StringParameters>
           </VectorNode>
          </Attribute>
         </Attributes>
         <MetaData>
          <entry key="WinSubProjectDisplayName" val=""/>
         </MetaData>
         <LeftEdgeMods length="0/1" groupName="OpacityFade">
          <EdgeMod parameter="9581">
           <FadeInFunc id="9361"  />
          </EdgeMod>
         </LeftEdgeMods>
         <RightEdgeMods length="0/1" groupName="OpacityFade">
          <EdgeMod parameter="9581">
           <FadeOutFunc id="9603"  />
          </EdgeMod>
         </RightEdgeMods>
         <ExtraData>
          <Entry key="ZoomPanBin">
           <ZoomPanBin id="9604"  >
            <ZoomPanKeyframes>
             <ZoomPanKeyframe id="9605" timeRangeEnd="-9999999/1" timeRangeDuration="0/1" interpolaterName="linr"  />
            </ZoomPanKeyframes>
           </ZoomPanBin>
          </Entry>
         </ExtraData>
        </Callout>
       </Medias>
      </GenericTrack>
      <GenericTrack id="9606"  >
       <Attributes>
        <Attribute id="9607" value="" name="ident"/>
        <Attribute id="9608" value="0" name="audioMuted"/>
        <Attribute id="9609" value="0" name="videoHidden"/>
       </Attributes>
       <MetaData>
        <entry key="IsLocked" val="False"/>
        <entry key="WinTrackHeight" val="62"/>
       </MetaData>
       <Medias>
       </Medias>
      </GenericTrack>
     </Tracks>
    </GenericMixer>
   <CaptionAttributes id="9610"  >
    <Attribute id="9611" value="1" name="captionsEnabled"/>
    <Attribute id="9612" value="Arial" name="captionsFontName"/>
    <Attribute id="9613" value="28" name="captionsFontSize"/>
    <Attribute id="9614" value="(0,0,0,255)" name="captionsBackgroundColor"/>
    <Attribute id="9615" value="(255,255,255,255)" name="captionsForegroundColor"/>
    <Attribute id="9616" value="en" name="lang"/>
    <Attribute id="9617" value="0" name="captionsAlignment"/>
    <Attribute id="9618" value="1" name="captionsDefaultFontSize"/>
    <Attribute id="9619" value="0.5" name="captionsOpacity"/>
    <Attribute id="9620" value="1" name="captionsBackgroundEnabled"/>
    <Attribute id="9621" value="1" name="captionsBackgroundOnlyAroundText"/>
   </CaptionAttributes>
   <Parameters>
    <VectorParam id="9622"  name="eyePosition">
     <InterpolatingParam id="9623" interp="linr"  time="0/1" value="0" leadInLength="0/1"  />
     <InterpolatingParam id="9624" interp="linr"  time="0/1" value="0" leadInLength="0/1"  />
     <InterpolatingParam id="9625" interp="linr"  time="0/1" value="3000" leadInLength="0/1"  />
    </VectorParam>
    <VectorParam id="9626"  name="eyeLookAtPosition">
     <InterpolatingParam id="9627" interp="linr"  time="0/1" value="0" leadInLength="0/1"  />
     <InterpolatingParam id="9628" interp="linr"  time="0/1" value="0" leadInLength="0/1"  />
     <InterpolatingParam id="9629" interp="linr"  time="0/1" value="0" leadInLength="0/1"  />
    </VectorParam>
    <VectorParam id="9630"  name="eyeUpVector">
     <InterpolatingParam id="9631" interp="linr"  time="0/1" value="0" leadInLength="0/1"  />
     <InterpolatingParam id="9632" interp="linr"  time="0/1" value="1" leadInLength="0/1"  />
     <InterpolatingParam id="9633" interp="linr"  time="0/1" value="0" leadInLength="0/1"  />
    </VectorParam>
    <InterpolatingParam id="9634" interp="linr"  time="0/1" value="0.23885785" leadInLength="0/1"  name="fov"/>
    <InterpolatingParam id="9635" interp="linr"  time="0/1" value="1.5" leadInLength="0/1"  name="nearClipDistance"/>
    <InterpolatingParam id="9636" interp="linr"  time="0/1" value="6000" leadInLength="0/1"  name="farClipDistance"/>
   </Parameters>
  </Timeline>
 </Project>
</GoProject>
</CSMLData>

</Project_Data>
