<?xml version="1.0"?>
<Project_Data Version="8.00">
<Project_Settings>
<ProfileName></ProfileName>
<ProjectWidth>1280</ProjectWidth>
<ProjectHeight>720</ProjectHeight>
<IsCustomProject>1</IsCustomProject>
<SavedProjectSettings>1</SavedProjectSettings>
<LastFlashTemplate>-1</LastFlashTemplate>
</Project_Settings>


<AutoSaveFile>C:\Users\Junaid\AppData\Local\TechSmith\Camtasia Studio\8.0\Auto-Saves\proto to product PCB fritzing1136cf0b.autosave.camproj</AutoSaveFile>

<ProjectID>3622FD65-E52A-4E22-82C7-F1FF22482D67</ProjectID>

<PowerPointProject>0</PowerPointProject>

<PowerPointFilename></PowerPointFilename>


<Project_Notes>
</Project_Notes>

<Project_MetaData>
<Project_MetaData_Object>
<FieldArrayKey>8</FieldArrayKey>
<Value>proto to product PCB fritzing</Value>
</Project_MetaData_Object>
<Project_MetaData_Object>
<FieldArrayKey>13</FieldArrayKey>
<Value>2016-02-01 12:15:35 AM</Value>
</Project_MetaData_Object>
<Project_MetaData_Object>
<FieldArrayKey>16</FieldArrayKey>
<Value>ENU</Value>
</Project_MetaData_Object>
</Project_MetaData>

<CSMLData>
<GoProject id="1" version="3.0" >
 <Project id="2" editRate="30/1" version="3.0" >
  <Author></Author>
  <Comment></Comment>
  <System></System>
  <SourceBin id="3"  >
    <Source id="4" src="C:\Users\Junaid\Desktop\IOT RECO\Fritizing.trec" lastMod="20160131T191214" rect="(0,0,1920,1080)" >
      <SourceTrack range="(0,34419)" type="0" editRate="30/1" trackRect="(0,0,1920,1080)" sampleRate="0/1" bitDepth="0" numChannels="0" filename="Fritizing.trec!Strack0.tsc2" metaData="Fritizing.trec;" />
      <SourceTrack range="(0,50606080)" type="2" editRate="44100/1" trackRect="(0,0,0,0)" sampleRate="44100/1" bitDepth="16" numChannels="2" filename="Fritizing.trec!Maudio1.mp4" metaData="" />
    </Source>
  </SourceBin>
  <Timeline id="5"  >
   <Attributes>
    <Attribute id="6" value="1280" name="width"/>
    <Attribute id="7" value="720" name="height"/>
    <Attribute id="8" value="(0,0,0,255)" name="backgroundColor"/>
   </Attributes>
    <GenericMixer id="9"  name="Unified Mixer">
     <MetaData>
      <entry key="MixerType" val="TimelineMixer"/>
     </MetaData>
     <Tracks>
      <GenericTrack id="10"  >
       <Attributes>
        <Attribute id="11" value="" name="ident"/>
        <Attribute id="12" value="0" name="audioMuted"/>
        <Attribute id="13" value="0" name="videoHidden"/>
       </Attributes>
       <MetaData>
        <entry key="IsLocked" val="False"/>
        <entry key="WinTrackHeight" val="62"/>
       </MetaData>
       <Medias>
        <StitchedMedia id="14" start="0" duration="20713" scalar="1/1" mediaStart="0/1" mediaDuration="20713/1" minMediaStart="0/1" >
         <Transformer>
          <VectorParam id="15"  name="translation">
           <InterpolatingParam id="16" interp="linr"  time="-9999999/1" value="1.9455353801553988e-010" leadInLength="0/1"  interpolater="leadin-linr"  />
           <InterpolatingParam id="17" interp="linr"  time="-9999999/1" value="-13.625498007957773" leadInLength="0/1"  interpolater="leadin-linr"  />
           <InterpolatingParam id="18" interp="linr"  time="-9999999/1" value="0" leadInLength="0/1"  interpolater="leadin-linr"  />
          </VectorParam>
          <VectorParam id="19"  name="rotation">
           <InterpolatingParam id="20" interp="linr"  time="-9999999/1" value="0" leadInLength="0/1"  interpolater="leadin-linr"  />
           <InterpolatingParam id="21" interp="linr"  time="-9999999/1" value="0" leadInLength="0/1"  interpolater="leadin-linr"  />
           <InterpolatingParam id="22" interp="linr"  time="-9999999/1" value="0" leadInLength="0/1"  interpolater="leadin-linr"  />
          </VectorParam>
          <VectorParam id="23"  name="shear">
           <InterpolatingParam id="24" interp="linr"  time="-9999999/1" value="0" leadInLength="0/1"  interpolater="leadin-linr"  />
           <InterpolatingParam id="25" interp="linr"  time="-9999999/1" value="0" leadInLength="0/1"  interpolater="leadin-linr"  />
           <InterpolatingParam id="26" interp="linr"  time="-9999999/1" value="0" leadInLength="0/1"  interpolater="leadin-linr"  />
          </VectorParam>
          <VectorParam id="27"  name="scale">
           <InterpolatingParam id="28" interp="linr"  time="-9999999/1" value="0.66666666666666663" leadInLength="0/1"  interpolater="leadin-linr"  />
           <InterpolatingParam id="29" interp="linr"  time="-9999999/1" value="0.66666666666666663" leadInLength="0/1"  interpolater="leadin-linr"  />
           <InterpolatingParam id="30" interp="linr"  time="-9999999/1" value="1" leadInLength="0/1"  interpolater="leadin-linr"  />
          </VectorParam>
          <VectorParam id="31"  name="anchor">
           <InterpolatingParam id="32" interp="linr"  time="0/1" value="0" leadInLength="0/1"  />
           <InterpolatingParam id="33" interp="linr"  time="0/1" value="0" leadInLength="0/1"  />
           <InterpolatingParam id="34" interp="linr"  time="0/1" value="0" leadInLength="0/1"  />
          </VectorParam>
         </Transformer>
         <Parameters>
          <VectorParam id="35"  name="sourceCrop">
           <InterpolatingParam id="36" interp="linr"  time="0/1" value="0" leadInLength="0/1"  />
           <InterpolatingParam id="37" interp="linr"  time="0/1" value="0" leadInLength="0/1"  />
           <InterpolatingParam id="38" interp="linr"  time="0/1" value="0" leadInLength="0/1"  />
           <InterpolatingParam id="39" interp="linr"  time="0/1" value="0" leadInLength="0/1"  />
          </VectorParam>
          <VectorParam id="40"  name="geometryCrop">
           <InterpolatingParam id="41" interp="linr"  time="-9999999/1" value="0" leadInLength="0/1"  interpolater="leadin-linr"  />
           <InterpolatingParam id="42" interp="linr"  time="-9999999/1" value="0" leadInLength="0/1"  interpolater="leadin-linr"  />
           <InterpolatingParam id="43" interp="linr"  time="-9999999/1" value="0" leadInLength="0/1"  interpolater="leadin-linr"  />
           <InterpolatingParam id="44" interp="linr"  time="-9999999/1" value="40.876494023748535" leadInLength="0/1"  interpolater="leadin-linr"  />
          </VectorParam>
          <InterpolatingParam id="45" interp="linr"  time="-9999999/1" value="1" leadInLength="0/1"  interpolater="leadin-linr"  name="opacity"/>
          <InterpolatingParam id="46" interp="linr"  time="0/1" value="1" leadInLength="0/1"  name="cursorOpacity"/>
          <InterpolatingParam id="47" interp="linr"  time="0/1" value="1" leadInLength="0/1"  name="cursorScale"/>
          <InterpolatingParam id="48" interp="linr"  time="0/1" value="1" leadInLength="0/1"  name="volume"/>
          <Parameter id="49"  name="captions"/>
         </Parameters>
         <Effects>
          <GenericEffect id="50" name = "CursorBaseEffectName" >
           <Parameters>
           <InterpolatingParam id="51" interp="linr"  time="-9999999/1" value="1" leadInLength="0/1"   name="cursorSize"/>
           <InterpolatingParam id="52" interp="linr"  time="-9999999/1" value="0" leadInLength="0/1"   name="highlightBlurRadius"/>
           <InterpolatingParam id="53" interp="linr"  time="-9999999/1" value="0" leadInLength="0/1"   name="highlightColorBlue"/>
           <InterpolatingParam id="54" interp="linr"  time="-9999999/1" value="255" leadInLength="0/1"   name="highlightColorGreen"/>
           <InterpolatingParam id="55" interp="linr"  time="-9999999/1" value="255" leadInLength="0/1"   name="highlightColorRed"/>
           <InterpolatingParam id="56" interp="linr"  time="-9999999/1" value="5" leadInLength="0/1"   name="highlightFeatherSize"/>
           <InterpolatingParam id="57" interp="linr"  time="-9999999/1" value="2" leadInLength="0/1"   name="highlightMagnification"/>
           <InterpolatingParam id="58" interp="linr"  time="-9999999/1" value="60" leadInLength="0/1"   name="highlightOpacity"/>
           <InterpolatingParam id="59" interp="linr"  time="-9999999/1" value="45" leadInLength="0/1"   name="highlightSize"/>
           <Parameter id="60"   name="highlightType">
            <Keyframes>
            <Keyframe id="61"  time="-9999999/1" value="4" leadInLength="0/1"  />
            </Keyframes>
           </Parameter>
           <InterpolatingParam id="62" interp="linr"  time="-9999999/1" value="0" leadInLength="0/1"   name="leftClickColorBlue"/>
           <InterpolatingParam id="63" interp="linr"  time="-9999999/1" value="0" leadInLength="0/1"   name="leftClickColorGreen"/>
           <InterpolatingParam id="64" interp="linr"  time="-9999999/1" value="255" leadInLength="0/1"   name="leftClickColorRed"/>
           <InterpolatingParam id="65" interp="linr"  time="-9999999/1" value="0.80000000000000004" leadInLength="0/1"   name="leftClickDuration"/>
           <InterpolatingParam id="66" interp="linr"  time="-9999999/1" value="20" leadInLength="0/1"   name="leftClickSize"/>
           <Parameter id="67"   name="leftClickSoundFilename">
            <Keyframes>
            <Keyframe id="68"  time="-9999999/1" value="" leadInLength="0/1"  />
            </Keyframes>
           </Parameter>
           <InterpolatingParam id="69" interp="linr"  time="-9999999/1" value="1" leadInLength="0/1"   name="leftClickSoundVolume"/>
           <Parameter id="70"   name="leftClickType">
            <Keyframes>
            <Keyframe id="71"  time="-9999999/1" value="0" leadInLength="0/1"  />
            </Keyframes>
           </Parameter>
           <InterpolatingParam id="72" interp="linr"  time="-9999999/1" value="1" leadInLength="0/1"   name="opacity"/>
           <InterpolatingParam id="73" interp="linr"  time="-9999999/1" value="255" leadInLength="0/1"   name="rightClickColorBlue"/>
           <InterpolatingParam id="74" interp="linr"  time="-9999999/1" value="0" leadInLength="0/1"   name="rightClickColorGreen"/>
           <InterpolatingParam id="75" interp="linr"  time="-9999999/1" value="0" leadInLength="0/1"   name="rightClickColorRed"/>
           <InterpolatingParam id="76" interp="linr"  time="-9999999/1" value="0.80000000000000004" leadInLength="0/1"   name="rightClickDuration"/>
           <InterpolatingParam id="77" interp="linr"  time="-9999999/1" value="20" leadInLength="0/1"   name="rightClickSize"/>
           <Parameter id="78"   name="rightClickSoundFilename">
            <Keyframes>
            <Keyframe id="79"  time="-9999999/1" value="" leadInLength="0/1"  />
            </Keyframes>
           </Parameter>
           <InterpolatingParam id="80" interp="linr"  time="-9999999/1" value="1" leadInLength="0/1"   name="rightClickSoundVolume"/>
           <Parameter id="81"   name="rightClickType">
            <Keyframes>
            <Keyframe id="82"  time="-9999999/1" value="0" leadInLength="0/1"  />
            </Keyframes>
           </Parameter>
           </Parameters>
           <MetaData>
            <entry key="effectIndex" val="0"/>
           </MetaData>
          </GenericEffect>
          <GenericEffect id="83" name = "NoiseReduction" >
           <Parameters>
           <InterpolatingParam id="84" interp="linr"  time="0/1" value="27.599999999999998" leadInLength="0/1"   name="denoiserAmount"/>
           <InterpolatingParam id="85" interp="linr"  time="0/1" value="2.2799999999999994" leadInLength="0/1"   name="denoiserThreshold"/>
           <Parameter id="86"   name="noiseProfile">
            <Keyframes>
            <Keyframe id="87"  time="0/1" value="FBAAAAIAAABErAAAAQIAABajNsJh8CbCrT06whN/QsJI7k3CvTNPwvxqTsK3NFTCKm5ewrbUWsLS&#xD;&#xa;/1jC5g1bwvWmZMLptWzCyBJrwshFc8IPXHXCcJd6wtL3eMJ5d23C1H9uwg2cdMIHVnvCrVN+wuDV&#xD;&#xa;e8I9IH3Ch9R9whOHgMKPh4HCLWSDwltyg8LwY4TCOKWGwlzOiMJwUYfCcFeIwtQRisJP6IjC1amH&#xD;&#xa;wjN4hsK6aYbCTj6Lwsx/jsIxg5DCHG2PwlCtksIgTpTC2MKSwh+YlMLvp5TC7RSTwoa6l8IagJrC&#xD;&#xa;xnuXwn1Al8JIj5zCZDibwj/HnMIsdJ7C+l+ewhEHocJ4jqDCSJmdwrYIl8LhvpbC/AmdwhHnocLt&#xD;&#xa;g6DC9k+fwqBQnsL1XJ3CL3Kdwghwn8JRfqLC0i2iwvuuo8JLmZ7Com2cwnMsnsIdqqPCEI6mwq5K&#xD;&#xa;qMJsyqbCbqSmwpocqcKSEKrCsBeqwhhCqsIncanCemSpwg/GqsLlmajCdnamwj6LoMIu6KXCSmqr&#xD;&#xa;wlwprMLulK7CsW6vwhKDrcLL3a3CuyGuws5LrcLcEK/CAR+wwka8rsLKJK7CRw6vwhRjrMJnQKvC&#xD;&#xa;wPKqwhZbq8IzA6zCd8+twuDXrcIiKqvC5F6owtB9q8LfHq/CQzCxwsFursI5xKzCc1OtwtpusMJw&#xD;&#xa;Rq/CkYmvwr1Hr8K/hrHCesi1wgfls8I4pK7C3oawwuzasMI2e7DCDPGxwjIiscLbS6/CX/Gxwv6i&#xD;&#xa;sMKIuqzCK1itwul/rcKs0qvCAlqnwhFKqMJ7lavCIkOpwtEqp8L0/6bCEJSmwlJzpsIrPaTC4f6h&#xD;&#xa;wjuKosLkDp/CdF6dwmDXncK7GqLCQNyhwuIbncIh6Z3ChCuewnepnMJc8ZzC93qfwsmOpMJdKajC&#xD;&#xa;AcGowqC6qsKQjqzC/kiswkhFq8JoU6vCz6+rwuB0rcKP467CDrSswkoLrcIfdbDC5KyxwiWXrsL6&#xD;&#xa;1K7CY8Gxwja5tMJlhrPCqPOuwgccsMIl1bXCYFG0wl6QscIPhbHCW3azwuILs8J9KrTCXu6ywhOi&#xD;&#xa;s8JJlbHCnlixwuH4scJHkrTCWwq0wum/scKwPbPC6M2ywii9ssIMx7PCEtyywjGXs8ICxrTCWHGy&#xD;&#xa;wid8tsIsDbnCvDO2wnaHtcJuB7TCFt+zwkNRtsLAMrPCeDC0wlEhtcKXyrXC/mi2wiF4tcKWfrfC&#xD;&#xa;+rC6wlgzt8IuqLbCSYu4whjlucKESrrC4Ee3wioztsK1yLLCDGqzwqBUtMJaA7fCnLe5wjDgucJw&#xD;&#xa;x7jCCxG2wpR5s8I6qbTCct+0wmOMtMK06LXCTbWzwupYs8LKnrjCLHq8wh4/u8KljrnCSCO6wmr3&#xD;&#xa;ucIfULfCBmW2wm2nscJUTLPC3n+4wtghusIbMbrCBya6wvZ8uMJYkbjCcau5wtAkusLS6LfCzv+2&#xD;&#xa;wki4tsL3xbfCQBK2wkIctsI477nCXNq5wmJrucK2LLfC4am2wnuaucLCerbCzmmzwhO2s8LPT7bC&#xD;&#xa;yYu2wvaBt8I0+LbCRs21wjhOtsIseLnCkl63wvRRtsK0UbbCdCO2wh6Gt8IczLjCkLK3wqnXtsJQ&#xD;&#xa;d7vCiKG8wqL7u8LHt7nCB5O2wrwkt8Ky27TC8tCxwnjIucL4NrvCmsG6wq9HusKsBLjC4sy3woKy&#xD;&#xa;ucICa7vCss+6wt2kusIiaLvC5BG8wneUusJwk7zCPCq/wrCnu8JWL7nCTli5wnaIusIlRLzCvu25&#xD;&#xa;wjcouML3YbXCgMq3wjJNvcJq+7/Cj6i8wgDKvMKa5rvC7qm4wmJ/u8LG1L7CXK29wnggvMKwUbvC&#xD;&#xa;Eb24wsjKucKGc7jC7na4womDt8ImfrnCCum8wiX9u8K0TbnC8hu4wurjtcIFnbfCduK7wi4LvcJ6&#xD;&#xa;3b7CXNm+wvC1vMJcJr3CONC8wp0JvMJ6PLzCDHy8whvDusKhVLvChIO4wmOwtMJQDbrCJnC8wn4i&#xD;&#xa;vsJ0M8DCtSLAwjgRvcL6SLzColS7wlUOusJcULnClk+4wnDHvMJGs73CBAbAwqpQwcLeqL/CyL++&#xD;&#xa;wk5zv8IOw8HC6p3Awk+nu8LQIsDCljvIwuggx8LtLsPCIgK/wuB7wcKsXsXCBtLHwpGJxMJIycTC&#xD;&#xa;oMbJwpyNyMJ1jsPC2d/Fwj6yyMK2scvC5tLMwkuCz8LmUNPC+vrPwiQ5y8Kkw8nCl0bGwmLbxMI+&#xD;&#xa;VcPCzsvBwiPQxsLITc3C6ifMwugWzcKKPsvCxAvGwsR1wsJO78HCKyjGwm6Ux8Ke683CpRjKwjwJ&#xD;&#xa;ysIIzMXCc3y/wnl4wsJHK8bC5hDIwqF/ysJeysvCaMXLwmL2y8K5Jc3CWJjNwjXZzMJ/w8vCBMnQ&#xD;&#xa;wv9vz8Kt087CnlXMwlbByMLCQsrCDLvRwjSoz8IIm83C2CzKwkj/y8IPxdjCVlDrwq7M9sJmPvbC&#xD;&#xa;NFL2wsKL+MJKnvjCikD5wpbD+sJWg/rCEOz4wrZ398L+3/rChFn9wqK3+cJaavrCdwD3wjVh+MKO&#xD;&#xa;0/nCNoP6wnjx9sLfGvbCgLn3wjQs98JI4/fCukn4wlq++cLKFPjCuND3wkFL98L1SfbCJkP3wlho&#xD;&#xa;+8LU/frCBpv2whKX9sIKtfjCJnL5wuSp+sJou/nCASj4wpSe+MLGb/fCTYP1wiZU9sJ0wPjCIpf5&#xD;&#xa;wmzH+cLaifnCkif5wmYW+cI0dvnCRov5wp6S+sIYZPnC8Pb3worp+MLMifnCyIn2woYb9sLbR/jC&#xD;&#xa;UM74wjzP9sKnyffChXwDw4eiNsII8CbCyD06wkB/QsLO7U3CvDNPwpRqTsJVNFTCDW1ewu/TWsL6&#xD;&#xa;/1jCGw5bwgqoZMIStmzC1RBrwp5Dc8LNWnXCA5R6wqr3eMK3d23CC39uwhWadMKCVXvCXlR+wp7W&#xD;&#xa;e8JhH33CqNN9wm2HgMJIh4HCjGWDwu1yg8KEY4TC8KSGwq3NiMJUT4fCHFeIwjESisKa54jCcqqH&#xD;&#xa;wlN4hsImaobCbj2LwqCAjsLJgJDCqmuPwv6nksI9SpTClsOSwruelMJmqZTCMBSTwn21l8JUgJrC&#xD;&#xa;EnyXwqw/l8JsjZzCmTKbwjvBnMIYcp7C616ewggIocI4hqDCLJ2dwi4Wl8LUw5bCQw+dwtjrocKU&#xD;&#xa;iaDCHVSfwgdLnsKyWZ3CJHOdwrdwn8KWfKLCIi2iwsi5o8Jro57C3G2cwuwhnsJPoKPChYamwkpg&#xD;&#xa;qMJu9KbCT7OmwvInqcKIBKrC2x+qwm6NqsKzqanCAmWpwpbRqsJipKjC7o+mwpmMoMK97qXCmIKr&#xD;&#xa;wqpqrMLe9K7CfK2vwpaprcJx3q3CXz+uwmKVrcJioq/CJtSwwgw2r8JXaK7CsgWvwsmBrMLWaqvC&#xD;&#xa;vy2rwhujq8IGb6zCSvKtwlTrrcLPQKvCwKeowpMFrMIvw6/CfsOxwqjXrsIQ8azCr4CtwqdOsMKO&#xD;&#xa;gK/CJ6evwq4or8LYP7HCcHG1wiQwtMKk5K7CBniwwm1BscJ4KLHCiU6ywsibscLi46/Coj2ywiiN&#xD;&#xa;sMJRqqzCf3qtwmnprcIPJqzCoK6nwgCaqMLffqvCeD6pwk8tp8JrBqfCRp2mwgBmpsIWKaTCzfGh&#xD;&#xa;wrZ+osKhDZ/C0WCdwrTencKsGKLCh9OhwlcRncKo5Z3C0yaewtWtnML99ZzCkI2fwkKvpMJqN6jC&#xD;&#xa;KNOowpnWqsIZoazCWjyswu8xq8LTXqvCqOCrwmKYrcIb/K7CAAOtwlGfrcJGv7DCoZmxwiq/rsKW&#xD;&#xa;Oa/CFEeywqjmtMIQW7PC/Tuvwip7sMLY5rXCaEG0wnC3scLA67HCdWSzwr4ds8LOTLTCLBCzwvMS&#xD;&#xa;tMIiurHCTJOxwv8bssJg4rTC2VG0wquhscL5VLPCI2mzwuxBs8Ji4bPCwfSywrCds8K/xrTCr6uy&#xD;&#xa;wvKdtsIKTbnCc3+2wklBtcK1QrTC9lq0wv52tsKmoLPC7Am1wjrKtcKjArbCB9y2wkAKtsI13rfC&#xD;&#xa;Pg27wmRQt8JYwrbCRt64ws74ucK+xLrCiLG3wugFtsJacrLCNTyzwvxQtMJyE7fCuPG5wt46usJM&#xD;&#xa;PrnCLBe2wmSFs8KPsbTCkZC0wiE9tMLM6LXC4za0wqzFs8J43rjCir+8wjSUu8JWd7nCoBa6wqyP&#xD;&#xa;ucIc8LbCiCi2wlHescKqPbPCyCK4wi7DucJ4GLrCaoC6wo5pucI0RrnCbg26wiRausKGBrjCfEq3&#xD;&#xa;wh8Ut8K4QrjCyXy2wtyotsJ84bnC2Hu5wnQ7ucIEKrfC3My2wiXXucLPibbC6ouzwtkEtMKF37bC&#xD;&#xa;ZPK2wgnot8Jpg7fC6vu1wnl0tsLOrrnCJJ23wvSQtsIugrbCQTW2wjCFt8Ln37jC2Jq3wjTWtsJ9&#xD;&#xa;ZbvCZnS8wkLku8Ilr7nC7KS2wockt8JIubTCPsCxwtHHucJfObvCbbe6wjYWusJe2LfC7qi3wiGW&#xD;&#xa;ucKlObvCvq26wtqqusIyX7vC/vq7woWTusLtmbzCtVy/wjx/u8KgBrnC5ma5wgGnusIuQ7zCCvO5&#xD;&#xa;wjsfuMLCUbXCZMq3wldCvcLCBsDCU7a8wuzhvMLcIrzC6M64wnebu8JL2r7CjMK9wggUvMKm/7rC&#xD;&#xa;gZm4wsLFucLicrjCrmq4wjB5t8Jxk7nCMPC8wkb4u8LyZbnC0Sy4wqzotcI20rfClhC8wozwvMIs&#xD;&#xa;2L7C/Je+wga6vMK8FL3CUKy8wtECvMIQaLzCFJS8whKsusJUY7vCyoe4wq6ftMJvEbrCpVi8wugI&#xD;&#xa;vsIMKMDCdiTAwnkhvcJoI7zC+i67wmoYusKtJ7nC+iK4wn7YvMIwur3COATAwt1LwcLbc7/CRM2+&#xD;&#xa;whOZv8LkhcHCMI3AwrTOu8LCJMDCahvIwvg5x8IwVcPCgBm/wiqYwcK8hcXCWL3Hwrl8xMLMn8TC&#xD;&#xa;WiHKwoSfyMK2WMPCPMDFwjSAyMJciMvCKx7NwmcJ0MI6ItTCgBPQwmLxysK0jMnCtFfGwhC5xMK3&#xD;&#xa;JsPCpLjBwtydxsL4j83CYv3LwiYpzcJNpMvCojbGwsN6wsKA/sHCPDLGwgmbx8IwLc7CFs7Jwui4&#xD;&#xa;ycKElsXCZI6/wu+VwsLGKMbCnj7IwvSHysJAz8vCzGLLwjhCy8I6oszCFDrNwnZkzMIKZcvChpTQ&#xD;&#xa;wpq4z8L8Js/Cp47MwirRyMIcN8rCsKfRwjp1z8K4Ns3C+hjKwppOzMK0mNjCyqTqwtcF9sKuMPrC&#xD;&#xa;Bgv5wsJ6+MJ4j/fCuCz0wkM59MKmMPbCzkn2wjyj9sJYAvnCvrD5wtI4+sKUE/zCQHn7wrop+8IS&#xD;&#xa;7vnC0Yr3wm549cIoyPfC1GP3wl289cJ43fXCPPD0woig9cKuVvnCxEP4wtgo+MLM0vfCwGL4wj7G&#xD;&#xa;+MKYhfzCAmX6wsLH+MIGJ/TCGNTywozq9sI00/jC3lD7wj4E+cIIifnCcs/6wqYb+MJwmffCSG/4&#xD;&#xa;wvzb+MJwjfbC/lb3wiZp98KwcPnCooj3wtrI98LUjvrCqO34wjag9sLYGvfC+Tn4wq3698KUo/fC&#xD;&#xa;exX3wppS+MI05PjCK4sC" leadInLength="0/1"  />
            </Keyframes>
           </Parameter>
           </Parameters>
           <MetaData>
            <entry key="effectIndex" val="1"/>
           </MetaData>
          </GenericEffect>
         </Effects>
         <Attributes>
          <Attribute id="88" value="" name="ident"/>
          <Attribute id="89" value="0" name="mixToMono"/>
         </Attributes>
         <MetaData>
          <entry key="AutoAppliedSmartFocus" val="False"/>
          <entry key="WinSubProjectDisplayName" val=""/>
         </MetaData>
         <ExtraData>
          <Entry key="ZoomPanBin">
           <ZoomPanBin id="90"  >
            <ZoomPanKeyframes>
             <ZoomPanKeyframe id="91" timeRangeEnd="-9999999/1" timeRangeDuration="0/1" interpolaterName="linr"  />
            </ZoomPanKeyframes>
           </ZoomPanBin>
          </Entry>
          <Entry key="CursorEffectBin">
           <CursorEffectBin id="92"  >
            <CursorEffectKeyframes>
             <CursorEffectKeyframe id="93" timeRangeEnd="-9999999/1" timeRangeDuration="0/1" interpolaterName=""  />
            </CursorEffectKeyframes>
           </CursorEffectBin>
          </Entry>
         </ExtraData>
         <GenericTrack id="94"  >
          <Attributes>
           <Attribute id="95" value="" name="ident"/>
           <Attribute id="96" value="0" name="audioMuted"/>
           <Attribute id="97" value="0" name="videoHidden"/>
          </Attributes>
          <MetaData>
           <entry key="IsLocked" val="False"/>
           <entry key="WinTrackHeight" val="0"/>
          </MetaData>
          <Medias>
           <UnifiedMedia id="98"  >
            <AMFile id="99" start="0" duration="635" scalar="1/1" mediaStart="0/1" mediaDuration="635/1" trackNumber="1" src="4" channelNumber="0,1" >
             <Parameters>
              <InterpolatingParam id="100" interp="linr"  time="0/1" value="1" leadInLength="0/1"  name="volume"/>
              <Parameter id="101"  name="captions"/>
             </Parameters>
             <Attributes>
              <Attribute id="102" value="" name="ident"/>
              <Attribute id="103" value="44100" name="sampleRate"/>
              <Attribute id="104" value="16" name="bitDepth"/>
              <Attribute id="105" value="1" name="gain"/>
              <Attribute id="106" value="0" name="mixToMono"/>
             </Attributes>
            </AMFile>
            <ScreenVMFile id="107" start="0" duration="635" scalar="1/1" mediaStart="0/1" mediaDuration="635/1" trackNumber="0" src="4" >
             <Transformer>
              <VectorParam id="108"  name="translation">
               <InterpolatingParam id="109" interp="linr"  time="-9999999/1" value="0" leadInLength="0/1"  />
               <InterpolatingParam id="110" interp="linr"  time="-9999999/1" value="0" leadInLength="0/1"  />
               <InterpolatingParam id="111" interp="linr"  time="-9999999/1" value="0" leadInLength="0/1"  />
              </VectorParam>
              <VectorParam id="112"  name="rotation">
               <InterpolatingParam id="113" interp="linr"  time="-9999999/1" value="0" leadInLength="0/1"  />
               <InterpolatingParam id="114" interp="linr"  time="-9999999/1" value="0" leadInLength="0/1"  />
               <InterpolatingParam id="115" interp="linr"  time="-9999999/1" value="0" leadInLength="0/1"  />
              </VectorParam>
              <VectorParam id="116"  name="shear">
               <InterpolatingParam id="117" interp="linr"  time="-9999999/1" value="0" leadInLength="0/1"  />
               <InterpolatingParam id="118" interp="linr"  time="-9999999/1" value="0" leadInLength="0/1"  />
               <InterpolatingParam id="119" interp="linr"  time="-9999999/1" value="0" leadInLength="0/1"  />
              </VectorParam>
              <VectorParam id="120"  name="scale">
               <InterpolatingParam id="121" interp="linr"  time="-9999999/1" value="1" leadInLength="0/1"  />
               <InterpolatingParam id="122" interp="linr"  time="-9999999/1" value="1" leadInLength="0/1"  />
               <InterpolatingParam id="123" interp="linr"  time="-9999999/1" value="1" leadInLength="0/1"  />
              </VectorParam>
              <VectorParam id="124"  name="anchor">
               <InterpolatingParam id="125" interp="linr"  time="0/1" value="0" leadInLength="0/1"  />
               <InterpolatingParam id="126" interp="linr"  time="0/1" value="0" leadInLength="0/1"  />
               <InterpolatingParam id="127" interp="linr"  time="0/1" value="0" leadInLength="0/1"  />
              </VectorParam>
             </Transformer>
             <Parameters>
              <VectorParam id="128"  name="sourceCrop">
               <InterpolatingParam id="129" interp="linr"  time="0/1" value="0" leadInLength="0/1"  />
               <InterpolatingParam id="130" interp="linr"  time="0/1" value="0" leadInLength="0/1"  />
               <InterpolatingParam id="131" interp="linr"  time="0/1" value="0" leadInLength="0/1"  />
               <InterpolatingParam id="132" interp="linr"  time="0/1" value="0" leadInLength="0/1"  />
              </VectorParam>
              <VectorParam id="133"  name="geometryCrop">
               <InterpolatingParam id="134" interp="linr"  time="-9999999/1" value="0" leadInLength="0/1"  />
               <InterpolatingParam id="135" interp="linr"  time="-9999999/1" value="0" leadInLength="0/1"  />
               <InterpolatingParam id="136" interp="linr"  time="-9999999/1" value="0" leadInLength="0/1"  />
               <InterpolatingParam id="137" interp="linr"  time="-9999999/1" value="0" leadInLength="0/1"  />
              </VectorParam>
              <InterpolatingParam id="138" interp="linr"  time="-9999999/1" value="1" leadInLength="0/1"  name="opacity"/>
              <InterpolatingParam id="139" interp="linr"  time="0/1" value="0" leadInLength="0/1"  name="cursorOpacity"/>
              <InterpolatingParam id="140" interp="linr"  time="0/1" value="0" leadInLength="0/1"  name="cursorScale"/>
             </Parameters>
             <Attributes>
              <Attribute id="141" value="" name="ident"/>
             </Attributes>
             <ExtraData>
              <Entry key="ZoomPanBin">
               <ZoomPanBin id="142"  >
                <ZoomPanKeyframes>
                 <ZoomPanKeyframe id="143" timeRangeEnd="-9999999/1" timeRangeDuration="0/1" interpolaterName=""  />
                </ZoomPanKeyframes>
               </ZoomPanBin>
              </Entry>
              <Entry key="CursorEffectBin">
               <CursorEffectBin id="144"  >
                <CursorEffectKeyframes>
                </CursorEffectKeyframes>
               </CursorEffectBin>
              </Entry>
             </ExtraData>
            </ScreenVMFile>
            <MetaData>
             <entry key="AutoAppliedSmartFocus" val="False"/>
             <entry key="WinSubProjectDisplayName" val=""/>
            </MetaData>
           </UnifiedMedia>
           <UnifiedMedia id="145"  >
            <AMFile id="146" start="635" duration="715" scalar="1/1" mediaStart="657/1" mediaDuration="715/1" trackNumber="1" src="4" channelNumber="0,1" >
             <Parameters>
              <InterpolatingParam id="147" interp="linr"  time="0/1" value="1" leadInLength="0/1"  name="volume"/>
              <Parameter id="148"  name="captions"/>
             </Parameters>
             <Attributes>
              <Attribute id="149" value="" name="ident"/>
              <Attribute id="150" value="44100" name="sampleRate"/>
              <Attribute id="151" value="16" name="bitDepth"/>
              <Attribute id="152" value="1" name="gain"/>
              <Attribute id="153" value="0" name="mixToMono"/>
             </Attributes>
            </AMFile>
            <ScreenVMFile id="154" start="635" duration="715" scalar="1/1" mediaStart="657/1" mediaDuration="715/1" trackNumber="0" src="4" >
             <Transformer>
              <VectorParam id="155"  name="translation">
               <InterpolatingParam id="156" interp="linr"  time="-9999999/1" value="0" leadInLength="0/1"  />
               <InterpolatingParam id="157" interp="linr"  time="-9999999/1" value="0" leadInLength="0/1"  />
               <InterpolatingParam id="158" interp="linr"  time="-9999999/1" value="0" leadInLength="0/1"  />
              </VectorParam>
              <VectorParam id="159"  name="rotation">
               <InterpolatingParam id="160" interp="linr"  time="-9999999/1" value="0" leadInLength="0/1"  />
               <InterpolatingParam id="161" interp="linr"  time="-9999999/1" value="0" leadInLength="0/1"  />
               <InterpolatingParam id="162" interp="linr"  time="-9999999/1" value="0" leadInLength="0/1"  />
              </VectorParam>
              <VectorParam id="163"  name="shear">
               <InterpolatingParam id="164" interp="linr"  time="-9999999/1" value="0" leadInLength="0/1"  />
               <InterpolatingParam id="165" interp="linr"  time="-9999999/1" value="0" leadInLength="0/1"  />
               <InterpolatingParam id="166" interp="linr"  time="-9999999/1" value="0" leadInLength="0/1"  />
              </VectorParam>
              <VectorParam id="167"  name="scale">
               <InterpolatingParam id="168" interp="linr"  time="-9999999/1" value="1" leadInLength="0/1"  />
               <InterpolatingParam id="169" interp="linr"  time="-9999999/1" value="1" leadInLength="0/1"  />
               <InterpolatingParam id="170" interp="linr"  time="-9999999/1" value="1" leadInLength="0/1"  />
              </VectorParam>
              <VectorParam id="171"  name="anchor">
               <InterpolatingParam id="172" interp="linr"  time="0/1" value="0" leadInLength="0/1"  />
               <InterpolatingParam id="173" interp="linr"  time="0/1" value="0" leadInLength="0/1"  />
               <InterpolatingParam id="174" interp="linr"  time="0/1" value="0" leadInLength="0/1"  />
              </VectorParam>
             </Transformer>
             <Parameters>
              <VectorParam id="175"  name="sourceCrop">
               <InterpolatingParam id="176" interp="linr"  time="0/1" value="0" leadInLength="0/1"  />
               <InterpolatingParam id="177" interp="linr"  time="0/1" value="0" leadInLength="0/1"  />
               <InterpolatingParam id="178" interp="linr"  time="0/1" value="0" leadInLength="0/1"  />
               <InterpolatingParam id="179" interp="linr"  time="0/1" value="0" leadInLength="0/1"  />
              </VectorParam>
              <VectorParam id="180"  name="geometryCrop">
               <InterpolatingParam id="181" interp="linr"  time="-9999999/1" value="0" leadInLength="0/1"  />
               <InterpolatingParam id="182" interp="linr"  time="-9999999/1" value="0" leadInLength="0/1"  />
               <InterpolatingParam id="183" interp="linr"  time="-9999999/1" value="0" leadInLength="0/1"  />
               <InterpolatingParam id="184" interp="linr"  time="-9999999/1" value="0" leadInLength="0/1"  />
              </VectorParam>
              <InterpolatingParam id="185" interp="linr"  time="-9999999/1" value="1" leadInLength="0/1"  name="opacity"/>
              <InterpolatingParam id="186" interp="linr"  time="0/1" value="0" leadInLength="0/1"  name="cursorOpacity"/>
              <InterpolatingParam id="187" interp="linr"  time="0/1" value="0" leadInLength="0/1"  name="cursorScale"/>
             </Parameters>
             <Attributes>
              <Attribute id="188" value="" name="ident"/>
             </Attributes>
             <ExtraData>
              <Entry key="ZoomPanBin">
               <ZoomPanBin id="189"  >
                <ZoomPanKeyframes>
                 <ZoomPanKeyframe id="190" timeRangeEnd="-9999999/1" timeRangeDuration="0/1" interpolaterName=""  />
                </ZoomPanKeyframes>
               </ZoomPanBin>
              </Entry>
              <Entry key="CursorEffectBin">
               <CursorEffectBin id="191"  >
                <CursorEffectKeyframes>
                </CursorEffectKeyframes>
               </CursorEffectBin>
              </Entry>
             </ExtraData>
            </ScreenVMFile>
            <MetaData>
             <entry key="AutoAppliedSmartFocus" val="False"/>
             <entry key="WinSubProjectDisplayName" val=""/>
            </MetaData>
           </UnifiedMedia>
           <UnifiedMedia id="192"  >
            <AMFile id="193" start="1350" duration="120" scalar="1/1" mediaStart="1390/1" mediaDuration="120/1" trackNumber="1" src="4" channelNumber="0,1" >
             <Parameters>
              <InterpolatingParam id="194" interp="linr"  time="0/1" value="1" leadInLength="0/1"  name="volume"/>
              <Parameter id="195"  name="captions"/>
             </Parameters>
             <Attributes>
              <Attribute id="196" value="" name="ident"/>
              <Attribute id="197" value="44100" name="sampleRate"/>
              <Attribute id="198" value="16" name="bitDepth"/>
              <Attribute id="199" value="1" name="gain"/>
              <Attribute id="200" value="0" name="mixToMono"/>
             </Attributes>
            </AMFile>
            <ScreenVMFile id="201" start="1350" duration="120" scalar="1/1" mediaStart="1390/1" mediaDuration="120/1" trackNumber="0" src="4" >
             <Transformer>
              <VectorParam id="202"  name="translation">
               <InterpolatingParam id="203" interp="linr"  time="-9999999/1" value="0" leadInLength="0/1"  />
               <InterpolatingParam id="204" interp="linr"  time="-9999999/1" value="0" leadInLength="0/1"  />
               <InterpolatingParam id="205" interp="linr"  time="-9999999/1" value="0" leadInLength="0/1"  />
              </VectorParam>
              <VectorParam id="206"  name="rotation">
               <InterpolatingParam id="207" interp="linr"  time="-9999999/1" value="0" leadInLength="0/1"  />
               <InterpolatingParam id="208" interp="linr"  time="-9999999/1" value="0" leadInLength="0/1"  />
               <InterpolatingParam id="209" interp="linr"  time="-9999999/1" value="0" leadInLength="0/1"  />
              </VectorParam>
              <VectorParam id="210"  name="shear">
               <InterpolatingParam id="211" interp="linr"  time="-9999999/1" value="0" leadInLength="0/1"  />
               <InterpolatingParam id="212" interp="linr"  time="-9999999/1" value="0" leadInLength="0/1"  />
               <InterpolatingParam id="213" interp="linr"  time="-9999999/1" value="0" leadInLength="0/1"  />
              </VectorParam>
              <VectorParam id="214"  name="scale">
               <InterpolatingParam id="215" interp="linr"  time="-9999999/1" value="1" leadInLength="0/1"  />
               <InterpolatingParam id="216" interp="linr"  time="-9999999/1" value="1" leadInLength="0/1"  />
               <InterpolatingParam id="217" interp="linr"  time="-9999999/1" value="1" leadInLength="0/1"  />
              </VectorParam>
              <VectorParam id="218"  name="anchor">
               <InterpolatingParam id="219" interp="linr"  time="0/1" value="0" leadInLength="0/1"  />
               <InterpolatingParam id="220" interp="linr"  time="0/1" value="0" leadInLength="0/1"  />
               <InterpolatingParam id="221" interp="linr"  time="0/1" value="0" leadInLength="0/1"  />
              </VectorParam>
             </Transformer>
             <Parameters>
              <VectorParam id="222"  name="sourceCrop">
               <InterpolatingParam id="223" interp="linr"  time="0/1" value="0" leadInLength="0/1"  />
               <InterpolatingParam id="224" interp="linr"  time="0/1" value="0" leadInLength="0/1"  />
               <InterpolatingParam id="225" interp="linr"  time="0/1" value="0" leadInLength="0/1"  />
               <InterpolatingParam id="226" interp="linr"  time="0/1" value="0" leadInLength="0/1"  />
              </VectorParam>
              <VectorParam id="227"  name="geometryCrop">
               <InterpolatingParam id="228" interp="linr"  time="-9999999/1" value="0" leadInLength="0/1"  />
               <InterpolatingParam id="229" interp="linr"  time="-9999999/1" value="0" leadInLength="0/1"  />
               <InterpolatingParam id="230" interp="linr"  time="-9999999/1" value="0" leadInLength="0/1"  />
               <InterpolatingParam id="231" interp="linr"  time="-9999999/1" value="0" leadInLength="0/1"  />
              </VectorParam>
              <InterpolatingParam id="232" interp="linr"  time="-9999999/1" value="1" leadInLength="0/1"  name="opacity"/>
              <InterpolatingParam id="233" interp="linr"  time="0/1" value="0" leadInLength="0/1"  name="cursorOpacity"/>
              <InterpolatingParam id="234" interp="linr"  time="0/1" value="0" leadInLength="0/1"  name="cursorScale"/>
             </Parameters>
             <Attributes>
              <Attribute id="235" value="" name="ident"/>
             </Attributes>
             <ExtraData>
              <Entry key="ZoomPanBin">
               <ZoomPanBin id="236"  >
                <ZoomPanKeyframes>
                 <ZoomPanKeyframe id="237" timeRangeEnd="-9999999/1" timeRangeDuration="0/1" interpolaterName=""  />
                </ZoomPanKeyframes>
               </ZoomPanBin>
              </Entry>
              <Entry key="CursorEffectBin">
               <CursorEffectBin id="238"  >
                <CursorEffectKeyframes>
                </CursorEffectKeyframes>
               </CursorEffectBin>
              </Entry>
             </ExtraData>
            </ScreenVMFile>
            <MetaData>
             <entry key="AutoAppliedSmartFocus" val="False"/>
             <entry key="WinSubProjectDisplayName" val=""/>
            </MetaData>
           </UnifiedMedia>
           <UnifiedMedia id="239"  >
            <AMFile id="240" start="1470" duration="2" scalar="1/1" mediaStart="1550/1" mediaDuration="2/1" trackNumber="1" src="4" channelNumber="0,1" >
             <Parameters>
              <InterpolatingParam id="241" interp="linr"  time="0/1" value="1" leadInLength="0/1"  name="volume"/>
              <Parameter id="242"  name="captions"/>
             </Parameters>
             <Attributes>
              <Attribute id="243" value="" name="ident"/>
              <Attribute id="244" value="44100" name="sampleRate"/>
              <Attribute id="245" value="16" name="bitDepth"/>
              <Attribute id="246" value="1" name="gain"/>
              <Attribute id="247" value="0" name="mixToMono"/>
             </Attributes>
            </AMFile>
            <ScreenVMFile id="248" start="1470" duration="2" scalar="1/1" mediaStart="1550/1" mediaDuration="2/1" trackNumber="0" src="4" >
             <Transformer>
              <VectorParam id="249"  name="translation">
               <InterpolatingParam id="250" interp="linr"  time="-9999999/1" value="0" leadInLength="0/1"  />
               <InterpolatingParam id="251" interp="linr"  time="-9999999/1" value="0" leadInLength="0/1"  />
               <InterpolatingParam id="252" interp="linr"  time="-9999999/1" value="0" leadInLength="0/1"  />
              </VectorParam>
              <VectorParam id="253"  name="rotation">
               <InterpolatingParam id="254" interp="linr"  time="-9999999/1" value="0" leadInLength="0/1"  />
               <InterpolatingParam id="255" interp="linr"  time="-9999999/1" value="0" leadInLength="0/1"  />
               <InterpolatingParam id="256" interp="linr"  time="-9999999/1" value="0" leadInLength="0/1"  />
              </VectorParam>
              <VectorParam id="257"  name="shear">
               <InterpolatingParam id="258" interp="linr"  time="-9999999/1" value="0" leadInLength="0/1"  />
               <InterpolatingParam id="259" interp="linr"  time="-9999999/1" value="0" leadInLength="0/1"  />
               <InterpolatingParam id="260" interp="linr"  time="-9999999/1" value="0" leadInLength="0/1"  />
              </VectorParam>
              <VectorParam id="261"  name="scale">
               <InterpolatingParam id="262" interp="linr"  time="-9999999/1" value="1" leadInLength="0/1"  />
               <InterpolatingParam id="263" interp="linr"  time="-9999999/1" value="1" leadInLength="0/1"  />
               <InterpolatingParam id="264" interp="linr"  time="-9999999/1" value="1" leadInLength="0/1"  />
              </VectorParam>
              <VectorParam id="265"  name="anchor">
               <InterpolatingParam id="266" interp="linr"  time="0/1" value="0" leadInLength="0/1"  />
               <InterpolatingParam id="267" interp="linr"  time="0/1" value="0" leadInLength="0/1"  />
               <InterpolatingParam id="268" interp="linr"  time="0/1" value="0" leadInLength="0/1"  />
              </VectorParam>
             </Transformer>
             <Parameters>
              <VectorParam id="269"  name="sourceCrop">
               <InterpolatingParam id="270" interp="linr"  time="0/1" value="0" leadInLength="0/1"  />
               <InterpolatingParam id="271" interp="linr"  time="0/1" value="0" leadInLength="0/1"  />
               <InterpolatingParam id="272" interp="linr"  time="0/1" value="0" leadInLength="0/1"  />
               <InterpolatingParam id="273" interp="linr"  time="0/1" value="0" leadInLength="0/1"  />
              </VectorParam>
              <VectorParam id="274"  name="geometryCrop">
               <InterpolatingParam id="275" interp="linr"  time="-9999999/1" value="0" leadInLength="0/1"  />
               <InterpolatingParam id="276" interp="linr"  time="-9999999/1" value="0" leadInLength="0/1"  />
               <InterpolatingParam id="277" interp="linr"  time="-9999999/1" value="0" leadInLength="0/1"  />
               <InterpolatingParam id="278" interp="linr"  time="-9999999/1" value="0" leadInLength="0/1"  />
              </VectorParam>
              <InterpolatingParam id="279" interp="linr"  time="-9999999/1" value="1" leadInLength="0/1"  name="opacity"/>
              <InterpolatingParam id="280" interp="linr"  time="0/1" value="0" leadInLength="0/1"  name="cursorOpacity"/>
              <InterpolatingParam id="281" interp="linr"  time="0/1" value="0" leadInLength="0/1"  name="cursorScale"/>
             </Parameters>
             <Attributes>
              <Attribute id="282" value="" name="ident"/>
             </Attributes>
             <ExtraData>
              <Entry key="ZoomPanBin">
               <ZoomPanBin id="283"  >
                <ZoomPanKeyframes>
                 <ZoomPanKeyframe id="284" timeRangeEnd="-9999999/1" timeRangeDuration="0/1" interpolaterName=""  />
                </ZoomPanKeyframes>
               </ZoomPanBin>
              </Entry>
              <Entry key="CursorEffectBin">
               <CursorEffectBin id="285"  >
                <CursorEffectKeyframes>
                </CursorEffectKeyframes>
               </CursorEffectBin>
              </Entry>
             </ExtraData>
            </ScreenVMFile>
            <MetaData>
             <entry key="AutoAppliedSmartFocus" val="False"/>
             <entry key="WinSubProjectDisplayName" val=""/>
            </MetaData>
           </UnifiedMedia>
           <UnifiedMedia id="286"  >
            <AMFile id="287" start="1472" duration="74" scalar="1/1" mediaStart="1879/1" mediaDuration="74/1" trackNumber="1" src="4" channelNumber="0,1" >
             <Parameters>
              <InterpolatingParam id="288" interp="linr"  time="0/1" value="1" leadInLength="0/1"  name="volume"/>
              <Parameter id="289"  name="captions"/>
             </Parameters>
             <Attributes>
              <Attribute id="290" value="" name="ident"/>
              <Attribute id="291" value="44100" name="sampleRate"/>
              <Attribute id="292" value="16" name="bitDepth"/>
              <Attribute id="293" value="1" name="gain"/>
              <Attribute id="294" value="0" name="mixToMono"/>
             </Attributes>
            </AMFile>
            <ScreenVMFile id="295" start="1472" duration="74" scalar="1/1" mediaStart="1879/1" mediaDuration="74/1" trackNumber="0" src="4" >
             <Transformer>
              <VectorParam id="296"  name="translation">
               <InterpolatingParam id="297" interp="linr"  time="-9999999/1" value="0" leadInLength="0/1"  />
               <InterpolatingParam id="298" interp="linr"  time="-9999999/1" value="0" leadInLength="0/1"  />
               <InterpolatingParam id="299" interp="linr"  time="-9999999/1" value="0" leadInLength="0/1"  />
              </VectorParam>
              <VectorParam id="300"  name="rotation">
               <InterpolatingParam id="301" interp="linr"  time="-9999999/1" value="0" leadInLength="0/1"  />
               <InterpolatingParam id="302" interp="linr"  time="-9999999/1" value="0" leadInLength="0/1"  />
               <InterpolatingParam id="303" interp="linr"  time="-9999999/1" value="0" leadInLength="0/1"  />
              </VectorParam>
              <VectorParam id="304"  name="shear">
               <InterpolatingParam id="305" interp="linr"  time="-9999999/1" value="0" leadInLength="0/1"  />
               <InterpolatingParam id="306" interp="linr"  time="-9999999/1" value="0" leadInLength="0/1"  />
               <InterpolatingParam id="307" interp="linr"  time="-9999999/1" value="0" leadInLength="0/1"  />
              </VectorParam>
              <VectorParam id="308"  name="scale">
               <InterpolatingParam id="309" interp="linr"  time="-9999999/1" value="1" leadInLength="0/1"  />
               <InterpolatingParam id="310" interp="linr"  time="-9999999/1" value="1" leadInLength="0/1"  />
               <InterpolatingParam id="311" interp="linr"  time="-9999999/1" value="1" leadInLength="0/1"  />
              </VectorParam>
              <VectorParam id="312"  name="anchor">
               <InterpolatingParam id="313" interp="linr"  time="0/1" value="0" leadInLength="0/1"  />
               <InterpolatingParam id="314" interp="linr"  time="0/1" value="0" leadInLength="0/1"  />
               <InterpolatingParam id="315" interp="linr"  time="0/1" value="0" leadInLength="0/1"  />
              </VectorParam>
             </Transformer>
             <Parameters>
              <VectorParam id="316"  name="sourceCrop">
               <InterpolatingParam id="317" interp="linr"  time="0/1" value="0" leadInLength="0/1"  />
               <InterpolatingParam id="318" interp="linr"  time="0/1" value="0" leadInLength="0/1"  />
               <InterpolatingParam id="319" interp="linr"  time="0/1" value="0" leadInLength="0/1"  />
               <InterpolatingParam id="320" interp="linr"  time="0/1" value="0" leadInLength="0/1"  />
              </VectorParam>
              <VectorParam id="321"  name="geometryCrop">
               <InterpolatingParam id="322" interp="linr"  time="-9999999/1" value="0" leadInLength="0/1"  />
               <InterpolatingParam id="323" interp="linr"  time="-9999999/1" value="0" leadInLength="0/1"  />
               <InterpolatingParam id="324" interp="linr"  time="-9999999/1" value="0" leadInLength="0/1"  />
               <InterpolatingParam id="325" interp="linr"  time="-9999999/1" value="0" leadInLength="0/1"  />
              </VectorParam>
              <InterpolatingParam id="326" interp="linr"  time="-9999999/1" value="1" leadInLength="0/1"  name="opacity"/>
              <InterpolatingParam id="327" interp="linr"  time="0/1" value="0" leadInLength="0/1"  name="cursorOpacity"/>
              <InterpolatingParam id="328" interp="linr"  time="0/1" value="0" leadInLength="0/1"  name="cursorScale"/>
             </Parameters>
             <Attributes>
              <Attribute id="329" value="" name="ident"/>
             </Attributes>
             <ExtraData>
              <Entry key="ZoomPanBin">
               <ZoomPanBin id="330"  >
                <ZoomPanKeyframes>
                 <ZoomPanKeyframe id="331" timeRangeEnd="-9999999/1" timeRangeDuration="0/1" interpolaterName=""  />
                </ZoomPanKeyframes>
               </ZoomPanBin>
              </Entry>
              <Entry key="CursorEffectBin">
               <CursorEffectBin id="332"  >
                <CursorEffectKeyframes>
                </CursorEffectKeyframes>
               </CursorEffectBin>
              </Entry>
             </ExtraData>
            </ScreenVMFile>
            <MetaData>
             <entry key="AutoAppliedSmartFocus" val="False"/>
             <entry key="WinSubProjectDisplayName" val=""/>
            </MetaData>
           </UnifiedMedia>
           <UnifiedMedia id="333"  >
            <AMFile id="334" start="1546" duration="122" scalar="1/1" mediaStart="1960/1" mediaDuration="122/1" trackNumber="1" src="4" channelNumber="0,1" >
             <Parameters>
              <InterpolatingParam id="335" interp="linr"  time="0/1" value="1" leadInLength="0/1"  name="volume"/>
              <Parameter id="336"  name="captions"/>
             </Parameters>
             <Attributes>
              <Attribute id="337" value="" name="ident"/>
              <Attribute id="338" value="44100" name="sampleRate"/>
              <Attribute id="339" value="16" name="bitDepth"/>
              <Attribute id="340" value="1" name="gain"/>
              <Attribute id="341" value="0" name="mixToMono"/>
             </Attributes>
            </AMFile>
            <ScreenVMFile id="342" start="1546" duration="122" scalar="1/1" mediaStart="1960/1" mediaDuration="122/1" trackNumber="0" src="4" >
             <Transformer>
              <VectorParam id="343"  name="translation">
               <InterpolatingParam id="344" interp="linr"  time="-9999999/1" value="0" leadInLength="0/1"  />
               <InterpolatingParam id="345" interp="linr"  time="-9999999/1" value="0" leadInLength="0/1"  />
               <InterpolatingParam id="346" interp="linr"  time="-9999999/1" value="0" leadInLength="0/1"  />
              </VectorParam>
              <VectorParam id="347"  name="rotation">
               <InterpolatingParam id="348" interp="linr"  time="-9999999/1" value="0" leadInLength="0/1"  />
               <InterpolatingParam id="349" interp="linr"  time="-9999999/1" value="0" leadInLength="0/1"  />
               <InterpolatingParam id="350" interp="linr"  time="-9999999/1" value="0" leadInLength="0/1"  />
              </VectorParam>
              <VectorParam id="351"  name="shear">
               <InterpolatingParam id="352" interp="linr"  time="-9999999/1" value="0" leadInLength="0/1"  />
               <InterpolatingParam id="353" interp="linr"  time="-9999999/1" value="0" leadInLength="0/1"  />
               <InterpolatingParam id="354" interp="linr"  time="-9999999/1" value="0" leadInLength="0/1"  />
              </VectorParam>
              <VectorParam id="355"  name="scale">
               <InterpolatingParam id="356" interp="linr"  time="-9999999/1" value="1" leadInLength="0/1"  />
               <InterpolatingParam id="357" interp="linr"  time="-9999999/1" value="1" leadInLength="0/1"  />
               <InterpolatingParam id="358" interp="linr"  time="-9999999/1" value="1" leadInLength="0/1"  />
              </VectorParam>
              <VectorParam id="359"  name="anchor">
               <InterpolatingParam id="360" interp="linr"  time="0/1" value="0" leadInLength="0/1"  />
               <InterpolatingParam id="361" interp="linr"  time="0/1" value="0" leadInLength="0/1"  />
               <InterpolatingParam id="362" interp="linr"  time="0/1" value="0" leadInLength="0/1"  />
              </VectorParam>
             </Transformer>
             <Parameters>
              <VectorParam id="363"  name="sourceCrop">
               <InterpolatingParam id="364" interp="linr"  time="0/1" value="0" leadInLength="0/1"  />
               <InterpolatingParam id="365" interp="linr"  time="0/1" value="0" leadInLength="0/1"  />
               <InterpolatingParam id="366" interp="linr"  time="0/1" value="0" leadInLength="0/1"  />
               <InterpolatingParam id="367" interp="linr"  time="0/1" value="0" leadInLength="0/1"  />
              </VectorParam>
              <VectorParam id="368"  name="geometryCrop">
               <InterpolatingParam id="369" interp="linr"  time="-9999999/1" value="0" leadInLength="0/1"  />
               <InterpolatingParam id="370" interp="linr"  time="-9999999/1" value="0" leadInLength="0/1"  />
               <InterpolatingParam id="371" interp="linr"  time="-9999999/1" value="0" leadInLength="0/1"  />
               <InterpolatingParam id="372" interp="linr"  time="-9999999/1" value="0" leadInLength="0/1"  />
              </VectorParam>
              <InterpolatingParam id="373" interp="linr"  time="-9999999/1" value="1" leadInLength="0/1"  name="opacity"/>
              <InterpolatingParam id="374" interp="linr"  time="0/1" value="0" leadInLength="0/1"  name="cursorOpacity"/>
              <InterpolatingParam id="375" interp="linr"  time="0/1" value="0" leadInLength="0/1"  name="cursorScale"/>
             </Parameters>
             <Attributes>
              <Attribute id="376" value="" name="ident"/>
             </Attributes>
             <ExtraData>
              <Entry key="ZoomPanBin">
               <ZoomPanBin id="377"  >
                <ZoomPanKeyframes>
                 <ZoomPanKeyframe id="378" timeRangeEnd="-9999999/1" timeRangeDuration="0/1" interpolaterName=""  />
                </ZoomPanKeyframes>
               </ZoomPanBin>
              </Entry>
              <Entry key="CursorEffectBin">
               <CursorEffectBin id="379"  >
                <CursorEffectKeyframes>
                </CursorEffectKeyframes>
               </CursorEffectBin>
              </Entry>
             </ExtraData>
            </ScreenVMFile>
            <MetaData>
             <entry key="AutoAppliedSmartFocus" val="False"/>
             <entry key="WinSubProjectDisplayName" val=""/>
            </MetaData>
           </UnifiedMedia>
           <UnifiedMedia id="380"  >
            <AMFile id="381" start="1668" duration="1857" scalar="1/1" mediaStart="2093/1" mediaDuration="1857/1" trackNumber="1" src="4" channelNumber="0,1" >
             <Parameters>
              <InterpolatingParam id="382" interp="linr"  time="0/1" value="1" leadInLength="0/1"  name="volume"/>
              <Parameter id="383"  name="captions"/>
             </Parameters>
             <Attributes>
              <Attribute id="384" value="" name="ident"/>
              <Attribute id="385" value="44100" name="sampleRate"/>
              <Attribute id="386" value="16" name="bitDepth"/>
              <Attribute id="387" value="1" name="gain"/>
              <Attribute id="388" value="0" name="mixToMono"/>
             </Attributes>
            </AMFile>
            <ScreenVMFile id="389" start="1668" duration="1857" scalar="1/1" mediaStart="2093/1" mediaDuration="1857/1" trackNumber="0" src="4" >
             <Transformer>
              <VectorParam id="390"  name="translation">
               <InterpolatingParam id="391" interp="linr"  time="-9999999/1" value="0" leadInLength="0/1"  />
               <InterpolatingParam id="392" interp="linr"  time="-9999999/1" value="0" leadInLength="0/1"  />
               <InterpolatingParam id="393" interp="linr"  time="-9999999/1" value="0" leadInLength="0/1"  />
              </VectorParam>
              <VectorParam id="394"  name="rotation">
               <InterpolatingParam id="395" interp="linr"  time="-9999999/1" value="0" leadInLength="0/1"  />
               <InterpolatingParam id="396" interp="linr"  time="-9999999/1" value="0" leadInLength="0/1"  />
               <InterpolatingParam id="397" interp="linr"  time="-9999999/1" value="0" leadInLength="0/1"  />
              </VectorParam>
              <VectorParam id="398"  name="shear">
               <InterpolatingParam id="399" interp="linr"  time="-9999999/1" value="0" leadInLength="0/1"  />
               <InterpolatingParam id="400" interp="linr"  time="-9999999/1" value="0" leadInLength="0/1"  />
               <InterpolatingParam id="401" interp="linr"  time="-9999999/1" value="0" leadInLength="0/1"  />
              </VectorParam>
              <VectorParam id="402"  name="scale">
               <InterpolatingParam id="403" interp="linr"  time="-9999999/1" value="1" leadInLength="0/1"  />
               <InterpolatingParam id="404" interp="linr"  time="-9999999/1" value="1" leadInLength="0/1"  />
               <InterpolatingParam id="405" interp="linr"  time="-9999999/1" value="1" leadInLength="0/1"  />
              </VectorParam>
              <VectorParam id="406"  name="anchor">
               <InterpolatingParam id="407" interp="linr"  time="0/1" value="0" leadInLength="0/1"  />
               <InterpolatingParam id="408" interp="linr"  time="0/1" value="0" leadInLength="0/1"  />
               <InterpolatingParam id="409" interp="linr"  time="0/1" value="0" leadInLength="0/1"  />
              </VectorParam>
             </Transformer>
             <Parameters>
              <VectorParam id="410"  name="sourceCrop">
               <InterpolatingParam id="411" interp="linr"  time="0/1" value="0" leadInLength="0/1"  />
               <InterpolatingParam id="412" interp="linr"  time="0/1" value="0" leadInLength="0/1"  />
               <InterpolatingParam id="413" interp="linr"  time="0/1" value="0" leadInLength="0/1"  />
               <InterpolatingParam id="414" interp="linr"  time="0/1" value="0" leadInLength="0/1"  />
              </VectorParam>
              <VectorParam id="415"  name="geometryCrop">
               <InterpolatingParam id="416" interp="linr"  time="-9999999/1" value="0" leadInLength="0/1"  />
               <InterpolatingParam id="417" interp="linr"  time="-9999999/1" value="0" leadInLength="0/1"  />
               <InterpolatingParam id="418" interp="linr"  time="-9999999/1" value="0" leadInLength="0/1"  />
               <InterpolatingParam id="419" interp="linr"  time="-9999999/1" value="0" leadInLength="0/1"  />
              </VectorParam>
              <InterpolatingParam id="420" interp="linr"  time="-9999999/1" value="1" leadInLength="0/1"  name="opacity"/>
              <InterpolatingParam id="421" interp="linr"  time="0/1" value="0" leadInLength="0/1"  name="cursorOpacity"/>
              <InterpolatingParam id="422" interp="linr"  time="0/1" value="0" leadInLength="0/1"  name="cursorScale"/>
             </Parameters>
             <Attributes>
              <Attribute id="423" value="" name="ident"/>
             </Attributes>
             <ExtraData>
              <Entry key="ZoomPanBin">
               <ZoomPanBin id="424"  >
                <ZoomPanKeyframes>
                 <ZoomPanKeyframe id="425" timeRangeEnd="-9999999/1" timeRangeDuration="0/1" interpolaterName=""  />
                </ZoomPanKeyframes>
               </ZoomPanBin>
              </Entry>
              <Entry key="CursorEffectBin">
               <CursorEffectBin id="426"  >
                <CursorEffectKeyframes>
                </CursorEffectKeyframes>
               </CursorEffectBin>
              </Entry>
             </ExtraData>
            </ScreenVMFile>
            <MetaData>
             <entry key="AutoAppliedSmartFocus" val="False"/>
             <entry key="WinSubProjectDisplayName" val=""/>
            </MetaData>
           </UnifiedMedia>
           <UnifiedMedia id="427"  >
            <AMFile id="428" start="3525" duration="753" scalar="1/1" mediaStart="4024/1" mediaDuration="753/1" trackNumber="1" src="4" channelNumber="0,1" >
             <Parameters>
              <InterpolatingParam id="429" interp="linr"  time="0/1" value="1" leadInLength="0/1"  name="volume"/>
              <Parameter id="430"  name="captions"/>
             </Parameters>
             <Attributes>
              <Attribute id="431" value="" name="ident"/>
              <Attribute id="432" value="44100" name="sampleRate"/>
              <Attribute id="433" value="16" name="bitDepth"/>
              <Attribute id="434" value="1" name="gain"/>
              <Attribute id="435" value="0" name="mixToMono"/>
             </Attributes>
            </AMFile>
            <ScreenVMFile id="436" start="3525" duration="753" scalar="1/1" mediaStart="4024/1" mediaDuration="753/1" trackNumber="0" src="4" >
             <Transformer>
              <VectorParam id="437"  name="translation">
               <InterpolatingParam id="438" interp="linr"  time="-9999999/1" value="0" leadInLength="0/1"  />
               <InterpolatingParam id="439" interp="linr"  time="-9999999/1" value="0" leadInLength="0/1"  />
               <InterpolatingParam id="440" interp="linr"  time="-9999999/1" value="0" leadInLength="0/1"  />
              </VectorParam>
              <VectorParam id="441"  name="rotation">
               <InterpolatingParam id="442" interp="linr"  time="-9999999/1" value="0" leadInLength="0/1"  />
               <InterpolatingParam id="443" interp="linr"  time="-9999999/1" value="0" leadInLength="0/1"  />
               <InterpolatingParam id="444" interp="linr"  time="-9999999/1" value="0" leadInLength="0/1"  />
              </VectorParam>
              <VectorParam id="445"  name="shear">
               <InterpolatingParam id="446" interp="linr"  time="-9999999/1" value="0" leadInLength="0/1"  />
               <InterpolatingParam id="447" interp="linr"  time="-9999999/1" value="0" leadInLength="0/1"  />
               <InterpolatingParam id="448" interp="linr"  time="-9999999/1" value="0" leadInLength="0/1"  />
              </VectorParam>
              <VectorParam id="449"  name="scale">
               <InterpolatingParam id="450" interp="linr"  time="-9999999/1" value="1" leadInLength="0/1"  />
               <InterpolatingParam id="451" interp="linr"  time="-9999999/1" value="1" leadInLength="0/1"  />
               <InterpolatingParam id="452" interp="linr"  time="-9999999/1" value="1" leadInLength="0/1"  />
              </VectorParam>
              <VectorParam id="453"  name="anchor">
               <InterpolatingParam id="454" interp="linr"  time="0/1" value="0" leadInLength="0/1"  />
               <InterpolatingParam id="455" interp="linr"  time="0/1" value="0" leadInLength="0/1"  />
               <InterpolatingParam id="456" interp="linr"  time="0/1" value="0" leadInLength="0/1"  />
              </VectorParam>
             </Transformer>
             <Parameters>
              <VectorParam id="457"  name="sourceCrop">
               <InterpolatingParam id="458" interp="linr"  time="0/1" value="0" leadInLength="0/1"  />
               <InterpolatingParam id="459" interp="linr"  time="0/1" value="0" leadInLength="0/1"  />
               <InterpolatingParam id="460" interp="linr"  time="0/1" value="0" leadInLength="0/1"  />
               <InterpolatingParam id="461" interp="linr"  time="0/1" value="0" leadInLength="0/1"  />
              </VectorParam>
              <VectorParam id="462"  name="geometryCrop">
               <InterpolatingParam id="463" interp="linr"  time="-9999999/1" value="0" leadInLength="0/1"  />
               <InterpolatingParam id="464" interp="linr"  time="-9999999/1" value="0" leadInLength="0/1"  />
               <InterpolatingParam id="465" interp="linr"  time="-9999999/1" value="0" leadInLength="0/1"  />
               <InterpolatingParam id="466" interp="linr"  time="-9999999/1" value="0" leadInLength="0/1"  />
              </VectorParam>
              <InterpolatingParam id="467" interp="linr"  time="-9999999/1" value="1" leadInLength="0/1"  name="opacity"/>
              <InterpolatingParam id="468" interp="linr"  time="0/1" value="0" leadInLength="0/1"  name="cursorOpacity"/>
              <InterpolatingParam id="469" interp="linr"  time="0/1" value="0" leadInLength="0/1"  name="cursorScale"/>
             </Parameters>
             <Attributes>
              <Attribute id="470" value="" name="ident"/>
             </Attributes>
             <ExtraData>
              <Entry key="ZoomPanBin">
               <ZoomPanBin id="471"  >
                <ZoomPanKeyframes>
                 <ZoomPanKeyframe id="472" timeRangeEnd="-9999999/1" timeRangeDuration="0/1" interpolaterName=""  />
                </ZoomPanKeyframes>
               </ZoomPanBin>
              </Entry>
              <Entry key="CursorEffectBin">
               <CursorEffectBin id="473"  >
                <CursorEffectKeyframes>
                </CursorEffectKeyframes>
               </CursorEffectBin>
              </Entry>
             </ExtraData>
            </ScreenVMFile>
            <MetaData>
             <entry key="AutoAppliedSmartFocus" val="False"/>
             <entry key="WinSubProjectDisplayName" val=""/>
            </MetaData>
           </UnifiedMedia>
           <UnifiedMedia id="474"  >
            <AMFile id="475" start="4278" duration="740" scalar="1/1" mediaStart="4796/1" mediaDuration="740/1" trackNumber="1" src="4" channelNumber="0,1" >
             <Parameters>
              <InterpolatingParam id="476" interp="linr"  time="0/1" value="1" leadInLength="0/1"  name="volume"/>
              <Parameter id="477"  name="captions"/>
             </Parameters>
             <Attributes>
              <Attribute id="478" value="" name="ident"/>
              <Attribute id="479" value="44100" name="sampleRate"/>
              <Attribute id="480" value="16" name="bitDepth"/>
              <Attribute id="481" value="1" name="gain"/>
              <Attribute id="482" value="0" name="mixToMono"/>
             </Attributes>
            </AMFile>
            <ScreenVMFile id="483" start="4278" duration="740" scalar="1/1" mediaStart="4796/1" mediaDuration="740/1" trackNumber="0" src="4" >
             <Transformer>
              <VectorParam id="484"  name="translation">
               <InterpolatingParam id="485" interp="linr"  time="-9999999/1" value="0" leadInLength="0/1"  />
               <InterpolatingParam id="486" interp="linr"  time="-9999999/1" value="0" leadInLength="0/1"  />
               <InterpolatingParam id="487" interp="linr"  time="-9999999/1" value="0" leadInLength="0/1"  />
              </VectorParam>
              <VectorParam id="488"  name="rotation">
               <InterpolatingParam id="489" interp="linr"  time="-9999999/1" value="0" leadInLength="0/1"  />
               <InterpolatingParam id="490" interp="linr"  time="-9999999/1" value="0" leadInLength="0/1"  />
               <InterpolatingParam id="491" interp="linr"  time="-9999999/1" value="0" leadInLength="0/1"  />
              </VectorParam>
              <VectorParam id="492"  name="shear">
               <InterpolatingParam id="493" interp="linr"  time="-9999999/1" value="0" leadInLength="0/1"  />
               <InterpolatingParam id="494" interp="linr"  time="-9999999/1" value="0" leadInLength="0/1"  />
               <InterpolatingParam id="495" interp="linr"  time="-9999999/1" value="0" leadInLength="0/1"  />
              </VectorParam>
              <VectorParam id="496"  name="scale">
               <InterpolatingParam id="497" interp="linr"  time="-9999999/1" value="1" leadInLength="0/1"  />
               <InterpolatingParam id="498" interp="linr"  time="-9999999/1" value="1" leadInLength="0/1"  />
               <InterpolatingParam id="499" interp="linr"  time="-9999999/1" value="1" leadInLength="0/1"  />
              </VectorParam>
              <VectorParam id="500"  name="anchor">
               <InterpolatingParam id="501" interp="linr"  time="0/1" value="0" leadInLength="0/1"  />
               <InterpolatingParam id="502" interp="linr"  time="0/1" value="0" leadInLength="0/1"  />
               <InterpolatingParam id="503" interp="linr"  time="0/1" value="0" leadInLength="0/1"  />
              </VectorParam>
             </Transformer>
             <Parameters>
              <VectorParam id="504"  name="sourceCrop">
               <InterpolatingParam id="505" interp="linr"  time="0/1" value="0" leadInLength="0/1"  />
               <InterpolatingParam id="506" interp="linr"  time="0/1" value="0" leadInLength="0/1"  />
               <InterpolatingParam id="507" interp="linr"  time="0/1" value="0" leadInLength="0/1"  />
               <InterpolatingParam id="508" interp="linr"  time="0/1" value="0" leadInLength="0/1"  />
              </VectorParam>
              <VectorParam id="509"  name="geometryCrop">
               <InterpolatingParam id="510" interp="linr"  time="-9999999/1" value="0" leadInLength="0/1"  />
               <InterpolatingParam id="511" interp="linr"  time="-9999999/1" value="0" leadInLength="0/1"  />
               <InterpolatingParam id="512" interp="linr"  time="-9999999/1" value="0" leadInLength="0/1"  />
               <InterpolatingParam id="513" interp="linr"  time="-9999999/1" value="0" leadInLength="0/1"  />
              </VectorParam>
              <InterpolatingParam id="514" interp="linr"  time="-9999999/1" value="1" leadInLength="0/1"  name="opacity"/>
              <InterpolatingParam id="515" interp="linr"  time="0/1" value="0" leadInLength="0/1"  name="cursorOpacity"/>
              <InterpolatingParam id="516" interp="linr"  time="0/1" value="0" leadInLength="0/1"  name="cursorScale"/>
             </Parameters>
             <Attributes>
              <Attribute id="517" value="" name="ident"/>
             </Attributes>
             <ExtraData>
              <Entry key="ZoomPanBin">
               <ZoomPanBin id="518"  >
                <ZoomPanKeyframes>
                 <ZoomPanKeyframe id="519" timeRangeEnd="-9999999/1" timeRangeDuration="0/1" interpolaterName=""  />
                </ZoomPanKeyframes>
               </ZoomPanBin>
              </Entry>
              <Entry key="CursorEffectBin">
               <CursorEffectBin id="520"  >
                <CursorEffectKeyframes>
                </CursorEffectKeyframes>
               </CursorEffectBin>
              </Entry>
             </ExtraData>
            </ScreenVMFile>
            <MetaData>
             <entry key="AutoAppliedSmartFocus" val="False"/>
             <entry key="WinSubProjectDisplayName" val=""/>
            </MetaData>
           </UnifiedMedia>
           <UnifiedMedia id="521"  >
            <AMFile id="522" start="5018" duration="2459" scalar="1/1" mediaStart="5607/1" mediaDuration="2459/1" trackNumber="1" src="4" channelNumber="0,1" >
             <Parameters>
              <InterpolatingParam id="523" interp="linr"  time="0/1" value="1" leadInLength="0/1"  name="volume"/>
              <Parameter id="524"  name="captions"/>
             </Parameters>
             <Attributes>
              <Attribute id="525" value="" name="ident"/>
              <Attribute id="526" value="44100" name="sampleRate"/>
              <Attribute id="527" value="16" name="bitDepth"/>
              <Attribute id="528" value="1" name="gain"/>
              <Attribute id="529" value="0" name="mixToMono"/>
             </Attributes>
            </AMFile>
            <ScreenVMFile id="530" start="5018" duration="2459" scalar="1/1" mediaStart="5607/1" mediaDuration="2459/1" trackNumber="0" src="4" >
             <Transformer>
              <VectorParam id="531"  name="translation">
               <InterpolatingParam id="532" interp="linr"  time="-9999999/1" value="0" leadInLength="0/1"  />
               <InterpolatingParam id="533" interp="linr"  time="-9999999/1" value="0" leadInLength="0/1"  />
               <InterpolatingParam id="534" interp="linr"  time="-9999999/1" value="0" leadInLength="0/1"  />
              </VectorParam>
              <VectorParam id="535"  name="rotation">
               <InterpolatingParam id="536" interp="linr"  time="-9999999/1" value="0" leadInLength="0/1"  />
               <InterpolatingParam id="537" interp="linr"  time="-9999999/1" value="0" leadInLength="0/1"  />
               <InterpolatingParam id="538" interp="linr"  time="-9999999/1" value="0" leadInLength="0/1"  />
              </VectorParam>
              <VectorParam id="539"  name="shear">
               <InterpolatingParam id="540" interp="linr"  time="-9999999/1" value="0" leadInLength="0/1"  />
               <InterpolatingParam id="541" interp="linr"  time="-9999999/1" value="0" leadInLength="0/1"  />
               <InterpolatingParam id="542" interp="linr"  time="-9999999/1" value="0" leadInLength="0/1"  />
              </VectorParam>
              <VectorParam id="543"  name="scale">
               <InterpolatingParam id="544" interp="linr"  time="-9999999/1" value="1" leadInLength="0/1"  />
               <InterpolatingParam id="545" interp="linr"  time="-9999999/1" value="1" leadInLength="0/1"  />
               <InterpolatingParam id="546" interp="linr"  time="-9999999/1" value="1" leadInLength="0/1"  />
              </VectorParam>
              <VectorParam id="547"  name="anchor">
               <InterpolatingParam id="548" interp="linr"  time="0/1" value="0" leadInLength="0/1"  />
               <InterpolatingParam id="549" interp="linr"  time="0/1" value="0" leadInLength="0/1"  />
               <InterpolatingParam id="550" interp="linr"  time="0/1" value="0" leadInLength="0/1"  />
              </VectorParam>
             </Transformer>
             <Parameters>
              <VectorParam id="551"  name="sourceCrop">
               <InterpolatingParam id="552" interp="linr"  time="0/1" value="0" leadInLength="0/1"  />
               <InterpolatingParam id="553" interp="linr"  time="0/1" value="0" leadInLength="0/1"  />
               <InterpolatingParam id="554" interp="linr"  time="0/1" value="0" leadInLength="0/1"  />
               <InterpolatingParam id="555" interp="linr"  time="0/1" value="0" leadInLength="0/1"  />
              </VectorParam>
              <VectorParam id="556"  name="geometryCrop">
               <InterpolatingParam id="557" interp="linr"  time="-9999999/1" value="0" leadInLength="0/1"  />
               <InterpolatingParam id="558" interp="linr"  time="-9999999/1" value="0" leadInLength="0/1"  />
               <InterpolatingParam id="559" interp="linr"  time="-9999999/1" value="0" leadInLength="0/1"  />
               <InterpolatingParam id="560" interp="linr"  time="-9999999/1" value="0" leadInLength="0/1"  />
              </VectorParam>
              <InterpolatingParam id="561" interp="linr"  time="-9999999/1" value="1" leadInLength="0/1"  name="opacity"/>
              <InterpolatingParam id="562" interp="linr"  time="0/1" value="0" leadInLength="0/1"  name="cursorOpacity"/>
              <InterpolatingParam id="563" interp="linr"  time="0/1" value="0" leadInLength="0/1"  name="cursorScale"/>
             </Parameters>
             <Attributes>
              <Attribute id="564" value="" name="ident"/>
             </Attributes>
             <ExtraData>
              <Entry key="ZoomPanBin">
               <ZoomPanBin id="565"  >
                <ZoomPanKeyframes>
                 <ZoomPanKeyframe id="566" timeRangeEnd="-9999999/1" timeRangeDuration="0/1" interpolaterName=""  />
                </ZoomPanKeyframes>
               </ZoomPanBin>
              </Entry>
              <Entry key="CursorEffectBin">
               <CursorEffectBin id="567"  >
                <CursorEffectKeyframes>
                </CursorEffectKeyframes>
               </CursorEffectBin>
              </Entry>
             </ExtraData>
            </ScreenVMFile>
            <MetaData>
             <entry key="AutoAppliedSmartFocus" val="False"/>
             <entry key="WinSubProjectDisplayName" val=""/>
            </MetaData>
           </UnifiedMedia>
           <UnifiedMedia id="568"  >
            <AMFile id="569" start="7477" duration="2065" scalar="1/1" mediaStart="8090/1" mediaDuration="2065/1" trackNumber="1" src="4" channelNumber="0,1" >
             <Parameters>
              <InterpolatingParam id="570" interp="linr"  time="0/1" value="1" leadInLength="0/1"  name="volume"/>
              <Parameter id="571"  name="captions"/>
             </Parameters>
             <Attributes>
              <Attribute id="572" value="" name="ident"/>
              <Attribute id="573" value="44100" name="sampleRate"/>
              <Attribute id="574" value="16" name="bitDepth"/>
              <Attribute id="575" value="1" name="gain"/>
              <Attribute id="576" value="0" name="mixToMono"/>
             </Attributes>
            </AMFile>
            <ScreenVMFile id="577" start="7477" duration="2065" scalar="1/1" mediaStart="8090/1" mediaDuration="2065/1" trackNumber="0" src="4" >
             <Transformer>
              <VectorParam id="578"  name="translation">
               <InterpolatingParam id="579" interp="linr"  time="-9999999/1" value="0" leadInLength="0/1"  />
               <InterpolatingParam id="580" interp="linr"  time="-9999999/1" value="0" leadInLength="0/1"  />
               <InterpolatingParam id="581" interp="linr"  time="-9999999/1" value="0" leadInLength="0/1"  />
              </VectorParam>
              <VectorParam id="582"  name="rotation">
               <InterpolatingParam id="583" interp="linr"  time="-9999999/1" value="0" leadInLength="0/1"  />
               <InterpolatingParam id="584" interp="linr"  time="-9999999/1" value="0" leadInLength="0/1"  />
               <InterpolatingParam id="585" interp="linr"  time="-9999999/1" value="0" leadInLength="0/1"  />
              </VectorParam>
              <VectorParam id="586"  name="shear">
               <InterpolatingParam id="587" interp="linr"  time="-9999999/1" value="0" leadInLength="0/1"  />
               <InterpolatingParam id="588" interp="linr"  time="-9999999/1" value="0" leadInLength="0/1"  />
               <InterpolatingParam id="589" interp="linr"  time="-9999999/1" value="0" leadInLength="0/1"  />
              </VectorParam>
              <VectorParam id="590"  name="scale">
               <InterpolatingParam id="591" interp="linr"  time="-9999999/1" value="1" leadInLength="0/1"  />
               <InterpolatingParam id="592" interp="linr"  time="-9999999/1" value="1" leadInLength="0/1"  />
               <InterpolatingParam id="593" interp="linr"  time="-9999999/1" value="1" leadInLength="0/1"  />
              </VectorParam>
              <VectorParam id="594"  name="anchor">
               <InterpolatingParam id="595" interp="linr"  time="0/1" value="0" leadInLength="0/1"  />
               <InterpolatingParam id="596" interp="linr"  time="0/1" value="0" leadInLength="0/1"  />
               <InterpolatingParam id="597" interp="linr"  time="0/1" value="0" leadInLength="0/1"  />
              </VectorParam>
             </Transformer>
             <Parameters>
              <VectorParam id="598"  name="sourceCrop">
               <InterpolatingParam id="599" interp="linr"  time="0/1" value="0" leadInLength="0/1"  />
               <InterpolatingParam id="600" interp="linr"  time="0/1" value="0" leadInLength="0/1"  />
               <InterpolatingParam id="601" interp="linr"  time="0/1" value="0" leadInLength="0/1"  />
               <InterpolatingParam id="602" interp="linr"  time="0/1" value="0" leadInLength="0/1"  />
              </VectorParam>
              <VectorParam id="603"  name="geometryCrop">
               <InterpolatingParam id="604" interp="linr"  time="-9999999/1" value="0" leadInLength="0/1"  />
               <InterpolatingParam id="605" interp="linr"  time="-9999999/1" value="0" leadInLength="0/1"  />
               <InterpolatingParam id="606" interp="linr"  time="-9999999/1" value="0" leadInLength="0/1"  />
               <InterpolatingParam id="607" interp="linr"  time="-9999999/1" value="0" leadInLength="0/1"  />
              </VectorParam>
              <InterpolatingParam id="608" interp="linr"  time="-9999999/1" value="1" leadInLength="0/1"  name="opacity"/>
              <InterpolatingParam id="609" interp="linr"  time="0/1" value="0" leadInLength="0/1"  name="cursorOpacity"/>
              <InterpolatingParam id="610" interp="linr"  time="0/1" value="0" leadInLength="0/1"  name="cursorScale"/>
             </Parameters>
             <Attributes>
              <Attribute id="611" value="" name="ident"/>
             </Attributes>
             <ExtraData>
              <Entry key="ZoomPanBin">
               <ZoomPanBin id="612"  >
                <ZoomPanKeyframes>
                 <ZoomPanKeyframe id="613" timeRangeEnd="-9999999/1" timeRangeDuration="0/1" interpolaterName=""  />
                </ZoomPanKeyframes>
               </ZoomPanBin>
              </Entry>
              <Entry key="CursorEffectBin">
               <CursorEffectBin id="614"  >
                <CursorEffectKeyframes>
                </CursorEffectKeyframes>
               </CursorEffectBin>
              </Entry>
             </ExtraData>
            </ScreenVMFile>
            <MetaData>
             <entry key="AutoAppliedSmartFocus" val="False"/>
             <entry key="WinSubProjectDisplayName" val=""/>
            </MetaData>
           </UnifiedMedia>
           <UnifiedMedia id="615"  >
            <AMFile id="616" start="9542" duration="160" scalar="1/1" mediaStart="10254/1" mediaDuration="160/1" trackNumber="1" src="4" channelNumber="0,1" >
             <Parameters>
              <InterpolatingParam id="617" interp="linr"  time="0/1" value="1" leadInLength="0/1"  name="volume"/>
              <Parameter id="618"  name="captions"/>
             </Parameters>
             <Attributes>
              <Attribute id="619" value="" name="ident"/>
              <Attribute id="620" value="44100" name="sampleRate"/>
              <Attribute id="621" value="16" name="bitDepth"/>
              <Attribute id="622" value="1" name="gain"/>
              <Attribute id="623" value="0" name="mixToMono"/>
             </Attributes>
            </AMFile>
            <ScreenVMFile id="624" start="9542" duration="160" scalar="1/1" mediaStart="10254/1" mediaDuration="160/1" trackNumber="0" src="4" >
             <Transformer>
              <VectorParam id="625"  name="translation">
               <InterpolatingParam id="626" interp="linr"  time="-9999999/1" value="0" leadInLength="0/1"  />
               <InterpolatingParam id="627" interp="linr"  time="-9999999/1" value="0" leadInLength="0/1"  />
               <InterpolatingParam id="628" interp="linr"  time="-9999999/1" value="0" leadInLength="0/1"  />
              </VectorParam>
              <VectorParam id="629"  name="rotation">
               <InterpolatingParam id="630" interp="linr"  time="-9999999/1" value="0" leadInLength="0/1"  />
               <InterpolatingParam id="631" interp="linr"  time="-9999999/1" value="0" leadInLength="0/1"  />
               <InterpolatingParam id="632" interp="linr"  time="-9999999/1" value="0" leadInLength="0/1"  />
              </VectorParam>
              <VectorParam id="633"  name="shear">
               <InterpolatingParam id="634" interp="linr"  time="-9999999/1" value="0" leadInLength="0/1"  />
               <InterpolatingParam id="635" interp="linr"  time="-9999999/1" value="0" leadInLength="0/1"  />
               <InterpolatingParam id="636" interp="linr"  time="-9999999/1" value="0" leadInLength="0/1"  />
              </VectorParam>
              <VectorParam id="637"  name="scale">
               <InterpolatingParam id="638" interp="linr"  time="-9999999/1" value="1" leadInLength="0/1"  />
               <InterpolatingParam id="639" interp="linr"  time="-9999999/1" value="1" leadInLength="0/1"  />
               <InterpolatingParam id="640" interp="linr"  time="-9999999/1" value="1" leadInLength="0/1"  />
              </VectorParam>
              <VectorParam id="641"  name="anchor">
               <InterpolatingParam id="642" interp="linr"  time="0/1" value="0" leadInLength="0/1"  />
               <InterpolatingParam id="643" interp="linr"  time="0/1" value="0" leadInLength="0/1"  />
               <InterpolatingParam id="644" interp="linr"  time="0/1" value="0" leadInLength="0/1"  />
              </VectorParam>
             </Transformer>
             <Parameters>
              <VectorParam id="645"  name="sourceCrop">
               <InterpolatingParam id="646" interp="linr"  time="0/1" value="0" leadInLength="0/1"  />
               <InterpolatingParam id="647" interp="linr"  time="0/1" value="0" leadInLength="0/1"  />
               <InterpolatingParam id="648" interp="linr"  time="0/1" value="0" leadInLength="0/1"  />
               <InterpolatingParam id="649" interp="linr"  time="0/1" value="0" leadInLength="0/1"  />
              </VectorParam>
              <VectorParam id="650"  name="geometryCrop">
               <InterpolatingParam id="651" interp="linr"  time="-9999999/1" value="0" leadInLength="0/1"  />
               <InterpolatingParam id="652" interp="linr"  time="-9999999/1" value="0" leadInLength="0/1"  />
               <InterpolatingParam id="653" interp="linr"  time="-9999999/1" value="0" leadInLength="0/1"  />
               <InterpolatingParam id="654" interp="linr"  time="-9999999/1" value="0" leadInLength="0/1"  />
              </VectorParam>
              <InterpolatingParam id="655" interp="linr"  time="-9999999/1" value="1" leadInLength="0/1"  name="opacity"/>
              <InterpolatingParam id="656" interp="linr"  time="0/1" value="0" leadInLength="0/1"  name="cursorOpacity"/>
              <InterpolatingParam id="657" interp="linr"  time="0/1" value="0" leadInLength="0/1"  name="cursorScale"/>
             </Parameters>
             <Attributes>
              <Attribute id="658" value="" name="ident"/>
             </Attributes>
             <ExtraData>
              <Entry key="ZoomPanBin">
               <ZoomPanBin id="659"  >
                <ZoomPanKeyframes>
                 <ZoomPanKeyframe id="660" timeRangeEnd="-9999999/1" timeRangeDuration="0/1" interpolaterName=""  />
                </ZoomPanKeyframes>
               </ZoomPanBin>
              </Entry>
              <Entry key="CursorEffectBin">
               <CursorEffectBin id="661"  >
                <CursorEffectKeyframes>
                </CursorEffectKeyframes>
               </CursorEffectBin>
              </Entry>
             </ExtraData>
            </ScreenVMFile>
            <MetaData>
             <entry key="AutoAppliedSmartFocus" val="False"/>
             <entry key="WinSubProjectDisplayName" val=""/>
            </MetaData>
           </UnifiedMedia>
           <UnifiedMedia id="662"  >
            <AMFile id="663" start="9702" duration="248" scalar="1/1" mediaStart="10708/1" mediaDuration="248/1" trackNumber="1" src="4" channelNumber="0,1" >
             <Parameters>
              <InterpolatingParam id="664" interp="linr"  time="0/1" value="1" leadInLength="0/1"  name="volume"/>
              <Parameter id="665"  name="captions"/>
             </Parameters>
             <Attributes>
              <Attribute id="666" value="" name="ident"/>
              <Attribute id="667" value="44100" name="sampleRate"/>
              <Attribute id="668" value="16" name="bitDepth"/>
              <Attribute id="669" value="1" name="gain"/>
              <Attribute id="670" value="0" name="mixToMono"/>
             </Attributes>
            </AMFile>
            <ScreenVMFile id="671" start="9702" duration="248" scalar="1/1" mediaStart="10708/1" mediaDuration="248/1" trackNumber="0" src="4" >
             <Transformer>
              <VectorParam id="672"  name="translation">
               <InterpolatingParam id="673" interp="linr"  time="-9999999/1" value="0" leadInLength="0/1"  />
               <InterpolatingParam id="674" interp="linr"  time="-9999999/1" value="0" leadInLength="0/1"  />
               <InterpolatingParam id="675" interp="linr"  time="-9999999/1" value="0" leadInLength="0/1"  />
              </VectorParam>
              <VectorParam id="676"  name="rotation">
               <InterpolatingParam id="677" interp="linr"  time="-9999999/1" value="0" leadInLength="0/1"  />
               <InterpolatingParam id="678" interp="linr"  time="-9999999/1" value="0" leadInLength="0/1"  />
               <InterpolatingParam id="679" interp="linr"  time="-9999999/1" value="0" leadInLength="0/1"  />
              </VectorParam>
              <VectorParam id="680"  name="shear">
               <InterpolatingParam id="681" interp="linr"  time="-9999999/1" value="0" leadInLength="0/1"  />
               <InterpolatingParam id="682" interp="linr"  time="-9999999/1" value="0" leadInLength="0/1"  />
               <InterpolatingParam id="683" interp="linr"  time="-9999999/1" value="0" leadInLength="0/1"  />
              </VectorParam>
              <VectorParam id="684"  name="scale">
               <InterpolatingParam id="685" interp="linr"  time="-9999999/1" value="1" leadInLength="0/1"  />
               <InterpolatingParam id="686" interp="linr"  time="-9999999/1" value="1" leadInLength="0/1"  />
               <InterpolatingParam id="687" interp="linr"  time="-9999999/1" value="1" leadInLength="0/1"  />
              </VectorParam>
              <VectorParam id="688"  name="anchor">
               <InterpolatingParam id="689" interp="linr"  time="0/1" value="0" leadInLength="0/1"  />
               <InterpolatingParam id="690" interp="linr"  time="0/1" value="0" leadInLength="0/1"  />
               <InterpolatingParam id="691" interp="linr"  time="0/1" value="0" leadInLength="0/1"  />
              </VectorParam>
             </Transformer>
             <Parameters>
              <VectorParam id="692"  name="sourceCrop">
               <InterpolatingParam id="693" interp="linr"  time="0/1" value="0" leadInLength="0/1"  />
               <InterpolatingParam id="694" interp="linr"  time="0/1" value="0" leadInLength="0/1"  />
               <InterpolatingParam id="695" interp="linr"  time="0/1" value="0" leadInLength="0/1"  />
               <InterpolatingParam id="696" interp="linr"  time="0/1" value="0" leadInLength="0/1"  />
              </VectorParam>
              <VectorParam id="697"  name="geometryCrop">
               <InterpolatingParam id="698" interp="linr"  time="-9999999/1" value="0" leadInLength="0/1"  />
               <InterpolatingParam id="699" interp="linr"  time="-9999999/1" value="0" leadInLength="0/1"  />
               <InterpolatingParam id="700" interp="linr"  time="-9999999/1" value="0" leadInLength="0/1"  />
               <InterpolatingParam id="701" interp="linr"  time="-9999999/1" value="0" leadInLength="0/1"  />
              </VectorParam>
              <InterpolatingParam id="702" interp="linr"  time="-9999999/1" value="1" leadInLength="0/1"  name="opacity"/>
              <InterpolatingParam id="703" interp="linr"  time="0/1" value="0" leadInLength="0/1"  name="cursorOpacity"/>
              <InterpolatingParam id="704" interp="linr"  time="0/1" value="0" leadInLength="0/1"  name="cursorScale"/>
             </Parameters>
             <Attributes>
              <Attribute id="705" value="" name="ident"/>
             </Attributes>
             <ExtraData>
              <Entry key="ZoomPanBin">
               <ZoomPanBin id="706"  >
                <ZoomPanKeyframes>
                 <ZoomPanKeyframe id="707" timeRangeEnd="-9999999/1" timeRangeDuration="0/1" interpolaterName=""  />
                </ZoomPanKeyframes>
               </ZoomPanBin>
              </Entry>
              <Entry key="CursorEffectBin">
               <CursorEffectBin id="708"  >
                <CursorEffectKeyframes>
                </CursorEffectKeyframes>
               </CursorEffectBin>
              </Entry>
             </ExtraData>
            </ScreenVMFile>
            <MetaData>
             <entry key="AutoAppliedSmartFocus" val="False"/>
             <entry key="WinSubProjectDisplayName" val=""/>
            </MetaData>
           </UnifiedMedia>
           <UnifiedMedia id="709"  >
            <AMFile id="710" start="9950" duration="301" scalar="1/1" mediaStart="11201/1" mediaDuration="301/1" trackNumber="1" src="4" channelNumber="0,1" >
             <Parameters>
              <InterpolatingParam id="711" interp="linr"  time="0/1" value="1" leadInLength="0/1"  name="volume"/>
              <Parameter id="712"  name="captions"/>
             </Parameters>
             <Attributes>
              <Attribute id="713" value="" name="ident"/>
              <Attribute id="714" value="44100" name="sampleRate"/>
              <Attribute id="715" value="16" name="bitDepth"/>
              <Attribute id="716" value="1" name="gain"/>
              <Attribute id="717" value="0" name="mixToMono"/>
             </Attributes>
            </AMFile>
            <ScreenVMFile id="718" start="9950" duration="301" scalar="1/1" mediaStart="11201/1" mediaDuration="301/1" trackNumber="0" src="4" >
             <Transformer>
              <VectorParam id="719"  name="translation">
               <InterpolatingParam id="720" interp="linr"  time="-9999999/1" value="0" leadInLength="0/1"  />
               <InterpolatingParam id="721" interp="linr"  time="-9999999/1" value="0" leadInLength="0/1"  />
               <InterpolatingParam id="722" interp="linr"  time="-9999999/1" value="0" leadInLength="0/1"  />
              </VectorParam>
              <VectorParam id="723"  name="rotation">
               <InterpolatingParam id="724" interp="linr"  time="-9999999/1" value="0" leadInLength="0/1"  />
               <InterpolatingParam id="725" interp="linr"  time="-9999999/1" value="0" leadInLength="0/1"  />
               <InterpolatingParam id="726" interp="linr"  time="-9999999/1" value="0" leadInLength="0/1"  />
              </VectorParam>
              <VectorParam id="727"  name="shear">
               <InterpolatingParam id="728" interp="linr"  time="-9999999/1" value="0" leadInLength="0/1"  />
               <InterpolatingParam id="729" interp="linr"  time="-9999999/1" value="0" leadInLength="0/1"  />
               <InterpolatingParam id="730" interp="linr"  time="-9999999/1" value="0" leadInLength="0/1"  />
              </VectorParam>
              <VectorParam id="731"  name="scale">
               <InterpolatingParam id="732" interp="linr"  time="-9999999/1" value="1" leadInLength="0/1"  />
               <InterpolatingParam id="733" interp="linr"  time="-9999999/1" value="1" leadInLength="0/1"  />
               <InterpolatingParam id="734" interp="linr"  time="-9999999/1" value="1" leadInLength="0/1"  />
              </VectorParam>
              <VectorParam id="735"  name="anchor">
               <InterpolatingParam id="736" interp="linr"  time="0/1" value="0" leadInLength="0/1"  />
               <InterpolatingParam id="737" interp="linr"  time="0/1" value="0" leadInLength="0/1"  />
               <InterpolatingParam id="738" interp="linr"  time="0/1" value="0" leadInLength="0/1"  />
              </VectorParam>
             </Transformer>
             <Parameters>
              <VectorParam id="739"  name="sourceCrop">
               <InterpolatingParam id="740" interp="linr"  time="0/1" value="0" leadInLength="0/1"  />
               <InterpolatingParam id="741" interp="linr"  time="0/1" value="0" leadInLength="0/1"  />
               <InterpolatingParam id="742" interp="linr"  time="0/1" value="0" leadInLength="0/1"  />
               <InterpolatingParam id="743" interp="linr"  time="0/1" value="0" leadInLength="0/1"  />
              </VectorParam>
              <VectorParam id="744"  name="geometryCrop">
               <InterpolatingParam id="745" interp="linr"  time="-9999999/1" value="0" leadInLength="0/1"  />
               <InterpolatingParam id="746" interp="linr"  time="-9999999/1" value="0" leadInLength="0/1"  />
               <InterpolatingParam id="747" interp="linr"  time="-9999999/1" value="0" leadInLength="0/1"  />
               <InterpolatingParam id="748" interp="linr"  time="-9999999/1" value="0" leadInLength="0/1"  />
              </VectorParam>
              <InterpolatingParam id="749" interp="linr"  time="-9999999/1" value="1" leadInLength="0/1"  name="opacity"/>
              <InterpolatingParam id="750" interp="linr"  time="0/1" value="0" leadInLength="0/1"  name="cursorOpacity"/>
              <InterpolatingParam id="751" interp="linr"  time="0/1" value="0" leadInLength="0/1"  name="cursorScale"/>
             </Parameters>
             <Attributes>
              <Attribute id="752" value="" name="ident"/>
             </Attributes>
             <ExtraData>
              <Entry key="ZoomPanBin">
               <ZoomPanBin id="753"  >
                <ZoomPanKeyframes>
                 <ZoomPanKeyframe id="754" timeRangeEnd="-9999999/1" timeRangeDuration="0/1" interpolaterName=""  />
                </ZoomPanKeyframes>
               </ZoomPanBin>
              </Entry>
              <Entry key="CursorEffectBin">
               <CursorEffectBin id="755"  >
                <CursorEffectKeyframes>
                </CursorEffectKeyframes>
               </CursorEffectBin>
              </Entry>
             </ExtraData>
            </ScreenVMFile>
            <MetaData>
             <entry key="AutoAppliedSmartFocus" val="False"/>
             <entry key="WinSubProjectDisplayName" val=""/>
            </MetaData>
           </UnifiedMedia>
           <UnifiedMedia id="756"  >
            <AMFile id="757" start="10251" duration="634" scalar="1/1" mediaStart="11616/1" mediaDuration="634/1" trackNumber="1" src="4" channelNumber="0,1" >
             <Parameters>
              <InterpolatingParam id="758" interp="linr"  time="0/1" value="1" leadInLength="0/1"  name="volume"/>
              <Parameter id="759"  name="captions"/>
             </Parameters>
             <Attributes>
              <Attribute id="760" value="" name="ident"/>
              <Attribute id="761" value="44100" name="sampleRate"/>
              <Attribute id="762" value="16" name="bitDepth"/>
              <Attribute id="763" value="1" name="gain"/>
              <Attribute id="764" value="0" name="mixToMono"/>
             </Attributes>
            </AMFile>
            <ScreenVMFile id="765" start="10251" duration="634" scalar="1/1" mediaStart="11616/1" mediaDuration="634/1" trackNumber="0" src="4" >
             <Transformer>
              <VectorParam id="766"  name="translation">
               <InterpolatingParam id="767" interp="linr"  time="-9999999/1" value="0" leadInLength="0/1"  />
               <InterpolatingParam id="768" interp="linr"  time="-9999999/1" value="0" leadInLength="0/1"  />
               <InterpolatingParam id="769" interp="linr"  time="-9999999/1" value="0" leadInLength="0/1"  />
              </VectorParam>
              <VectorParam id="770"  name="rotation">
               <InterpolatingParam id="771" interp="linr"  time="-9999999/1" value="0" leadInLength="0/1"  />
               <InterpolatingParam id="772" interp="linr"  time="-9999999/1" value="0" leadInLength="0/1"  />
               <InterpolatingParam id="773" interp="linr"  time="-9999999/1" value="0" leadInLength="0/1"  />
              </VectorParam>
              <VectorParam id="774"  name="shear">
               <InterpolatingParam id="775" interp="linr"  time="-9999999/1" value="0" leadInLength="0/1"  />
               <InterpolatingParam id="776" interp="linr"  time="-9999999/1" value="0" leadInLength="0/1"  />
               <InterpolatingParam id="777" interp="linr"  time="-9999999/1" value="0" leadInLength="0/1"  />
              </VectorParam>
              <VectorParam id="778"  name="scale">
               <InterpolatingParam id="779" interp="linr"  time="-9999999/1" value="1" leadInLength="0/1"  />
               <InterpolatingParam id="780" interp="linr"  time="-9999999/1" value="1" leadInLength="0/1"  />
               <InterpolatingParam id="781" interp="linr"  time="-9999999/1" value="1" leadInLength="0/1"  />
              </VectorParam>
              <VectorParam id="782"  name="anchor">
               <InterpolatingParam id="783" interp="linr"  time="0/1" value="0" leadInLength="0/1"  />
               <InterpolatingParam id="784" interp="linr"  time="0/1" value="0" leadInLength="0/1"  />
               <InterpolatingParam id="785" interp="linr"  time="0/1" value="0" leadInLength="0/1"  />
              </VectorParam>
             </Transformer>
             <Parameters>
              <VectorParam id="786"  name="sourceCrop">
               <InterpolatingParam id="787" interp="linr"  time="0/1" value="0" leadInLength="0/1"  />
               <InterpolatingParam id="788" interp="linr"  time="0/1" value="0" leadInLength="0/1"  />
               <InterpolatingParam id="789" interp="linr"  time="0/1" value="0" leadInLength="0/1"  />
               <InterpolatingParam id="790" interp="linr"  time="0/1" value="0" leadInLength="0/1"  />
              </VectorParam>
              <VectorParam id="791"  name="geometryCrop">
               <InterpolatingParam id="792" interp="linr"  time="-9999999/1" value="0" leadInLength="0/1"  />
               <InterpolatingParam id="793" interp="linr"  time="-9999999/1" value="0" leadInLength="0/1"  />
               <InterpolatingParam id="794" interp="linr"  time="-9999999/1" value="0" leadInLength="0/1"  />
               <InterpolatingParam id="795" interp="linr"  time="-9999999/1" value="0" leadInLength="0/1"  />
              </VectorParam>
              <InterpolatingParam id="796" interp="linr"  time="-9999999/1" value="1" leadInLength="0/1"  name="opacity"/>
              <InterpolatingParam id="797" interp="linr"  time="0/1" value="0" leadInLength="0/1"  name="cursorOpacity"/>
              <InterpolatingParam id="798" interp="linr"  time="0/1" value="0" leadInLength="0/1"  name="cursorScale"/>
             </Parameters>
             <Attributes>
              <Attribute id="799" value="" name="ident"/>
             </Attributes>
             <ExtraData>
              <Entry key="ZoomPanBin">
               <ZoomPanBin id="800"  >
                <ZoomPanKeyframes>
                 <ZoomPanKeyframe id="801" timeRangeEnd="-9999999/1" timeRangeDuration="0/1" interpolaterName=""  />
                </ZoomPanKeyframes>
               </ZoomPanBin>
              </Entry>
              <Entry key="CursorEffectBin">
               <CursorEffectBin id="802"  >
                <CursorEffectKeyframes>
                </CursorEffectKeyframes>
               </CursorEffectBin>
              </Entry>
             </ExtraData>
            </ScreenVMFile>
            <MetaData>
             <entry key="AutoAppliedSmartFocus" val="False"/>
             <entry key="WinSubProjectDisplayName" val=""/>
            </MetaData>
           </UnifiedMedia>
           <UnifiedMedia id="803"  >
            <AMFile id="804" start="10885" duration="760" scalar="1/1" mediaStart="12410/1" mediaDuration="760/1" trackNumber="1" src="4" channelNumber="0,1" >
             <Parameters>
              <InterpolatingParam id="805" interp="linr"  time="0/1" value="1" leadInLength="0/1"  name="volume"/>
              <Parameter id="806"  name="captions"/>
             </Parameters>
             <Attributes>
              <Attribute id="807" value="" name="ident"/>
              <Attribute id="808" value="44100" name="sampleRate"/>
              <Attribute id="809" value="16" name="bitDepth"/>
              <Attribute id="810" value="1" name="gain"/>
              <Attribute id="811" value="0" name="mixToMono"/>
             </Attributes>
            </AMFile>
            <ScreenVMFile id="812" start="10885" duration="760" scalar="1/1" mediaStart="12410/1" mediaDuration="760/1" trackNumber="0" src="4" >
             <Transformer>
              <VectorParam id="813"  name="translation">
               <InterpolatingParam id="814" interp="linr"  time="-9999999/1" value="0" leadInLength="0/1"  />
               <InterpolatingParam id="815" interp="linr"  time="-9999999/1" value="0" leadInLength="0/1"  />
               <InterpolatingParam id="816" interp="linr"  time="-9999999/1" value="0" leadInLength="0/1"  />
              </VectorParam>
              <VectorParam id="817"  name="rotation">
               <InterpolatingParam id="818" interp="linr"  time="-9999999/1" value="0" leadInLength="0/1"  />
               <InterpolatingParam id="819" interp="linr"  time="-9999999/1" value="0" leadInLength="0/1"  />
               <InterpolatingParam id="820" interp="linr"  time="-9999999/1" value="0" leadInLength="0/1"  />
              </VectorParam>
              <VectorParam id="821"  name="shear">
               <InterpolatingParam id="822" interp="linr"  time="-9999999/1" value="0" leadInLength="0/1"  />
               <InterpolatingParam id="823" interp="linr"  time="-9999999/1" value="0" leadInLength="0/1"  />
               <InterpolatingParam id="824" interp="linr"  time="-9999999/1" value="0" leadInLength="0/1"  />
              </VectorParam>
              <VectorParam id="825"  name="scale">
               <InterpolatingParam id="826" interp="linr"  time="-9999999/1" value="1" leadInLength="0/1"  />
               <InterpolatingParam id="827" interp="linr"  time="-9999999/1" value="1" leadInLength="0/1"  />
               <InterpolatingParam id="828" interp="linr"  time="-9999999/1" value="1" leadInLength="0/1"  />
              </VectorParam>
              <VectorParam id="829"  name="anchor">
               <InterpolatingParam id="830" interp="linr"  time="0/1" value="0" leadInLength="0/1"  />
               <InterpolatingParam id="831" interp="linr"  time="0/1" value="0" leadInLength="0/1"  />
               <InterpolatingParam id="832" interp="linr"  time="0/1" value="0" leadInLength="0/1"  />
              </VectorParam>
             </Transformer>
             <Parameters>
              <VectorParam id="833"  name="sourceCrop">
               <InterpolatingParam id="834" interp="linr"  time="0/1" value="0" leadInLength="0/1"  />
               <InterpolatingParam id="835" interp="linr"  time="0/1" value="0" leadInLength="0/1"  />
               <InterpolatingParam id="836" interp="linr"  time="0/1" value="0" leadInLength="0/1"  />
               <InterpolatingParam id="837" interp="linr"  time="0/1" value="0" leadInLength="0/1"  />
              </VectorParam>
              <VectorParam id="838"  name="geometryCrop">
               <InterpolatingParam id="839" interp="linr"  time="-9999999/1" value="0" leadInLength="0/1"  />
               <InterpolatingParam id="840" interp="linr"  time="-9999999/1" value="0" leadInLength="0/1"  />
               <InterpolatingParam id="841" interp="linr"  time="-9999999/1" value="0" leadInLength="0/1"  />
               <InterpolatingParam id="842" interp="linr"  time="-9999999/1" value="0" leadInLength="0/1"  />
              </VectorParam>
              <InterpolatingParam id="843" interp="linr"  time="-9999999/1" value="1" leadInLength="0/1"  name="opacity"/>
              <InterpolatingParam id="844" interp="linr"  time="0/1" value="0" leadInLength="0/1"  name="cursorOpacity"/>
              <InterpolatingParam id="845" interp="linr"  time="0/1" value="0" leadInLength="0/1"  name="cursorScale"/>
             </Parameters>
             <Attributes>
              <Attribute id="846" value="" name="ident"/>
             </Attributes>
             <ExtraData>
              <Entry key="ZoomPanBin">
               <ZoomPanBin id="847"  >
                <ZoomPanKeyframes>
                 <ZoomPanKeyframe id="848" timeRangeEnd="-9999999/1" timeRangeDuration="0/1" interpolaterName=""  />
                </ZoomPanKeyframes>
               </ZoomPanBin>
              </Entry>
              <Entry key="CursorEffectBin">
               <CursorEffectBin id="849"  >
                <CursorEffectKeyframes>
                </CursorEffectKeyframes>
               </CursorEffectBin>
              </Entry>
             </ExtraData>
            </ScreenVMFile>
            <MetaData>
             <entry key="AutoAppliedSmartFocus" val="False"/>
             <entry key="WinSubProjectDisplayName" val=""/>
            </MetaData>
           </UnifiedMedia>
           <UnifiedMedia id="850"  >
            <AMFile id="851" start="11645" duration="696" scalar="1/1" mediaStart="15047/1" mediaDuration="696/1" trackNumber="1" src="4" channelNumber="0,1" >
             <Parameters>
              <InterpolatingParam id="852" interp="linr"  time="0/1" value="1" leadInLength="0/1"  name="volume"/>
              <Parameter id="853"  name="captions"/>
             </Parameters>
             <Attributes>
              <Attribute id="854" value="" name="ident"/>
              <Attribute id="855" value="44100" name="sampleRate"/>
              <Attribute id="856" value="16" name="bitDepth"/>
              <Attribute id="857" value="1" name="gain"/>
              <Attribute id="858" value="0" name="mixToMono"/>
             </Attributes>
            </AMFile>
            <ScreenVMFile id="859" start="11645" duration="696" scalar="1/1" mediaStart="15047/1" mediaDuration="696/1" trackNumber="0" src="4" >
             <Transformer>
              <VectorParam id="860"  name="translation">
               <InterpolatingParam id="861" interp="linr"  time="-9999999/1" value="0" leadInLength="0/1"  />
               <InterpolatingParam id="862" interp="linr"  time="-9999999/1" value="0" leadInLength="0/1"  />
               <InterpolatingParam id="863" interp="linr"  time="-9999999/1" value="0" leadInLength="0/1"  />
              </VectorParam>
              <VectorParam id="864"  name="rotation">
               <InterpolatingParam id="865" interp="linr"  time="-9999999/1" value="0" leadInLength="0/1"  />
               <InterpolatingParam id="866" interp="linr"  time="-9999999/1" value="0" leadInLength="0/1"  />
               <InterpolatingParam id="867" interp="linr"  time="-9999999/1" value="0" leadInLength="0/1"  />
              </VectorParam>
              <VectorParam id="868"  name="shear">
               <InterpolatingParam id="869" interp="linr"  time="-9999999/1" value="0" leadInLength="0/1"  />
               <InterpolatingParam id="870" interp="linr"  time="-9999999/1" value="0" leadInLength="0/1"  />
               <InterpolatingParam id="871" interp="linr"  time="-9999999/1" value="0" leadInLength="0/1"  />
              </VectorParam>
              <VectorParam id="872"  name="scale">
               <InterpolatingParam id="873" interp="linr"  time="-9999999/1" value="1" leadInLength="0/1"  />
               <InterpolatingParam id="874" interp="linr"  time="-9999999/1" value="1" leadInLength="0/1"  />
               <InterpolatingParam id="875" interp="linr"  time="-9999999/1" value="1" leadInLength="0/1"  />
              </VectorParam>
              <VectorParam id="876"  name="anchor">
               <InterpolatingParam id="877" interp="linr"  time="0/1" value="0" leadInLength="0/1"  />
               <InterpolatingParam id="878" interp="linr"  time="0/1" value="0" leadInLength="0/1"  />
               <InterpolatingParam id="879" interp="linr"  time="0/1" value="0" leadInLength="0/1"  />
              </VectorParam>
             </Transformer>
             <Parameters>
              <VectorParam id="880"  name="sourceCrop">
               <InterpolatingParam id="881" interp="linr"  time="0/1" value="0" leadInLength="0/1"  />
               <InterpolatingParam id="882" interp="linr"  time="0/1" value="0" leadInLength="0/1"  />
               <InterpolatingParam id="883" interp="linr"  time="0/1" value="0" leadInLength="0/1"  />
               <InterpolatingParam id="884" interp="linr"  time="0/1" value="0" leadInLength="0/1"  />
              </VectorParam>
              <VectorParam id="885"  name="geometryCrop">
               <InterpolatingParam id="886" interp="linr"  time="-9999999/1" value="0" leadInLength="0/1"  />
               <InterpolatingParam id="887" interp="linr"  time="-9999999/1" value="0" leadInLength="0/1"  />
               <InterpolatingParam id="888" interp="linr"  time="-9999999/1" value="0" leadInLength="0/1"  />
               <InterpolatingParam id="889" interp="linr"  time="-9999999/1" value="0" leadInLength="0/1"  />
              </VectorParam>
              <InterpolatingParam id="890" interp="linr"  time="-9999999/1" value="1" leadInLength="0/1"  name="opacity"/>
              <InterpolatingParam id="891" interp="linr"  time="0/1" value="0" leadInLength="0/1"  name="cursorOpacity"/>
              <InterpolatingParam id="892" interp="linr"  time="0/1" value="0" leadInLength="0/1"  name="cursorScale"/>
             </Parameters>
             <Attributes>
              <Attribute id="893" value="" name="ident"/>
             </Attributes>
             <ExtraData>
              <Entry key="ZoomPanBin">
               <ZoomPanBin id="894"  >
                <ZoomPanKeyframes>
                 <ZoomPanKeyframe id="895" timeRangeEnd="-9999999/1" timeRangeDuration="0/1" interpolaterName=""  />
                </ZoomPanKeyframes>
               </ZoomPanBin>
              </Entry>
              <Entry key="CursorEffectBin">
               <CursorEffectBin id="896"  >
                <CursorEffectKeyframes>
                </CursorEffectKeyframes>
               </CursorEffectBin>
              </Entry>
             </ExtraData>
            </ScreenVMFile>
            <MetaData>
             <entry key="AutoAppliedSmartFocus" val="False"/>
             <entry key="WinSubProjectDisplayName" val=""/>
            </MetaData>
           </UnifiedMedia>
           <UnifiedMedia id="897"  >
            <AMFile id="898" start="12341" duration="2" scalar="1/1" mediaStart="15983/1" mediaDuration="2/1" trackNumber="1" src="4" channelNumber="0,1" >
             <Parameters>
              <InterpolatingParam id="899" interp="linr"  time="0/1" value="1" leadInLength="0/1"  name="volume"/>
              <Parameter id="900"  name="captions"/>
             </Parameters>
             <Attributes>
              <Attribute id="901" value="" name="ident"/>
              <Attribute id="902" value="44100" name="sampleRate"/>
              <Attribute id="903" value="16" name="bitDepth"/>
              <Attribute id="904" value="1" name="gain"/>
              <Attribute id="905" value="0" name="mixToMono"/>
             </Attributes>
            </AMFile>
            <ScreenVMFile id="906" start="12341" duration="2" scalar="1/1" mediaStart="15983/1" mediaDuration="2/1" trackNumber="0" src="4" >
             <Transformer>
              <VectorParam id="907"  name="translation">
               <InterpolatingParam id="908" interp="linr"  time="-9999999/1" value="0" leadInLength="0/1"  />
               <InterpolatingParam id="909" interp="linr"  time="-9999999/1" value="0" leadInLength="0/1"  />
               <InterpolatingParam id="910" interp="linr"  time="-9999999/1" value="0" leadInLength="0/1"  />
              </VectorParam>
              <VectorParam id="911"  name="rotation">
               <InterpolatingParam id="912" interp="linr"  time="-9999999/1" value="0" leadInLength="0/1"  />
               <InterpolatingParam id="913" interp="linr"  time="-9999999/1" value="0" leadInLength="0/1"  />
               <InterpolatingParam id="914" interp="linr"  time="-9999999/1" value="0" leadInLength="0/1"  />
              </VectorParam>
              <VectorParam id="915"  name="shear">
               <InterpolatingParam id="916" interp="linr"  time="-9999999/1" value="0" leadInLength="0/1"  />
               <InterpolatingParam id="917" interp="linr"  time="-9999999/1" value="0" leadInLength="0/1"  />
               <InterpolatingParam id="918" interp="linr"  time="-9999999/1" value="0" leadInLength="0/1"  />
              </VectorParam>
              <VectorParam id="919"  name="scale">
               <InterpolatingParam id="920" interp="linr"  time="-9999999/1" value="1" leadInLength="0/1"  />
               <InterpolatingParam id="921" interp="linr"  time="-9999999/1" value="1" leadInLength="0/1"  />
               <InterpolatingParam id="922" interp="linr"  time="-9999999/1" value="1" leadInLength="0/1"  />
              </VectorParam>
              <VectorParam id="923"  name="anchor">
               <InterpolatingParam id="924" interp="linr"  time="0/1" value="0" leadInLength="0/1"  />
               <InterpolatingParam id="925" interp="linr"  time="0/1" value="0" leadInLength="0/1"  />
               <InterpolatingParam id="926" interp="linr"  time="0/1" value="0" leadInLength="0/1"  />
              </VectorParam>
             </Transformer>
             <Parameters>
              <VectorParam id="927"  name="sourceCrop">
               <InterpolatingParam id="928" interp="linr"  time="0/1" value="0" leadInLength="0/1"  />
               <InterpolatingParam id="929" interp="linr"  time="0/1" value="0" leadInLength="0/1"  />
               <InterpolatingParam id="930" interp="linr"  time="0/1" value="0" leadInLength="0/1"  />
               <InterpolatingParam id="931" interp="linr"  time="0/1" value="0" leadInLength="0/1"  />
              </VectorParam>
              <VectorParam id="932"  name="geometryCrop">
               <InterpolatingParam id="933" interp="linr"  time="-9999999/1" value="0" leadInLength="0/1"  />
               <InterpolatingParam id="934" interp="linr"  time="-9999999/1" value="0" leadInLength="0/1"  />
               <InterpolatingParam id="935" interp="linr"  time="-9999999/1" value="0" leadInLength="0/1"  />
               <InterpolatingParam id="936" interp="linr"  time="-9999999/1" value="0" leadInLength="0/1"  />
              </VectorParam>
              <InterpolatingParam id="937" interp="linr"  time="-9999999/1" value="1" leadInLength="0/1"  name="opacity"/>
              <InterpolatingParam id="938" interp="linr"  time="0/1" value="0" leadInLength="0/1"  name="cursorOpacity"/>
              <InterpolatingParam id="939" interp="linr"  time="0/1" value="0" leadInLength="0/1"  name="cursorScale"/>
             </Parameters>
             <Attributes>
              <Attribute id="940" value="" name="ident"/>
             </Attributes>
             <ExtraData>
              <Entry key="ZoomPanBin">
               <ZoomPanBin id="941"  >
                <ZoomPanKeyframes>
                 <ZoomPanKeyframe id="942" timeRangeEnd="-9999999/1" timeRangeDuration="0/1" interpolaterName=""  />
                </ZoomPanKeyframes>
               </ZoomPanBin>
              </Entry>
              <Entry key="CursorEffectBin">
               <CursorEffectBin id="943"  >
                <CursorEffectKeyframes>
                </CursorEffectKeyframes>
               </CursorEffectBin>
              </Entry>
             </ExtraData>
            </ScreenVMFile>
            <MetaData>
             <entry key="AutoAppliedSmartFocus" val="False"/>
             <entry key="WinSubProjectDisplayName" val=""/>
            </MetaData>
           </UnifiedMedia>
           <UnifiedMedia id="944"  >
            <AMFile id="945" start="12343" duration="640" scalar="1/1" mediaStart="16012/1" mediaDuration="640/1" trackNumber="1" src="4" channelNumber="0,1" >
             <Parameters>
              <InterpolatingParam id="946" interp="linr"  time="0/1" value="1" leadInLength="0/1"  name="volume"/>
              <Parameter id="947"  name="captions"/>
             </Parameters>
             <Attributes>
              <Attribute id="948" value="" name="ident"/>
              <Attribute id="949" value="44100" name="sampleRate"/>
              <Attribute id="950" value="16" name="bitDepth"/>
              <Attribute id="951" value="1" name="gain"/>
              <Attribute id="952" value="0" name="mixToMono"/>
             </Attributes>
            </AMFile>
            <ScreenVMFile id="953" start="12343" duration="640" scalar="1/1" mediaStart="16012/1" mediaDuration="640/1" trackNumber="0" src="4" >
             <Transformer>
              <VectorParam id="954"  name="translation">
               <InterpolatingParam id="955" interp="linr"  time="-9999999/1" value="0" leadInLength="0/1"  />
               <InterpolatingParam id="956" interp="linr"  time="-9999999/1" value="0" leadInLength="0/1"  />
               <InterpolatingParam id="957" interp="linr"  time="-9999999/1" value="0" leadInLength="0/1"  />
              </VectorParam>
              <VectorParam id="958"  name="rotation">
               <InterpolatingParam id="959" interp="linr"  time="-9999999/1" value="0" leadInLength="0/1"  />
               <InterpolatingParam id="960" interp="linr"  time="-9999999/1" value="0" leadInLength="0/1"  />
               <InterpolatingParam id="961" interp="linr"  time="-9999999/1" value="0" leadInLength="0/1"  />
              </VectorParam>
              <VectorParam id="962"  name="shear">
               <InterpolatingParam id="963" interp="linr"  time="-9999999/1" value="0" leadInLength="0/1"  />
               <InterpolatingParam id="964" interp="linr"  time="-9999999/1" value="0" leadInLength="0/1"  />
               <InterpolatingParam id="965" interp="linr"  time="-9999999/1" value="0" leadInLength="0/1"  />
              </VectorParam>
              <VectorParam id="966"  name="scale">
               <InterpolatingParam id="967" interp="linr"  time="-9999999/1" value="1" leadInLength="0/1"  />
               <InterpolatingParam id="968" interp="linr"  time="-9999999/1" value="1" leadInLength="0/1"  />
               <InterpolatingParam id="969" interp="linr"  time="-9999999/1" value="1" leadInLength="0/1"  />
              </VectorParam>
              <VectorParam id="970"  name="anchor">
               <InterpolatingParam id="971" interp="linr"  time="0/1" value="0" leadInLength="0/1"  />
               <InterpolatingParam id="972" interp="linr"  time="0/1" value="0" leadInLength="0/1"  />
               <InterpolatingParam id="973" interp="linr"  time="0/1" value="0" leadInLength="0/1"  />
              </VectorParam>
             </Transformer>
             <Parameters>
              <VectorParam id="974"  name="sourceCrop">
               <InterpolatingParam id="975" interp="linr"  time="0/1" value="0" leadInLength="0/1"  />
               <InterpolatingParam id="976" interp="linr"  time="0/1" value="0" leadInLength="0/1"  />
               <InterpolatingParam id="977" interp="linr"  time="0/1" value="0" leadInLength="0/1"  />
               <InterpolatingParam id="978" interp="linr"  time="0/1" value="0" leadInLength="0/1"  />
              </VectorParam>
              <VectorParam id="979"  name="geometryCrop">
               <InterpolatingParam id="980" interp="linr"  time="-9999999/1" value="0" leadInLength="0/1"  />
               <InterpolatingParam id="981" interp="linr"  time="-9999999/1" value="0" leadInLength="0/1"  />
               <InterpolatingParam id="982" interp="linr"  time="-9999999/1" value="0" leadInLength="0/1"  />
               <InterpolatingParam id="983" interp="linr"  time="-9999999/1" value="0" leadInLength="0/1"  />
              </VectorParam>
              <InterpolatingParam id="984" interp="linr"  time="-9999999/1" value="1" leadInLength="0/1"  name="opacity"/>
              <InterpolatingParam id="985" interp="linr"  time="0/1" value="0" leadInLength="0/1"  name="cursorOpacity"/>
              <InterpolatingParam id="986" interp="linr"  time="0/1" value="0" leadInLength="0/1"  name="cursorScale"/>
             </Parameters>
             <Attributes>
              <Attribute id="987" value="" name="ident"/>
             </Attributes>
             <ExtraData>
              <Entry key="ZoomPanBin">
               <ZoomPanBin id="988"  >
                <ZoomPanKeyframes>
                 <ZoomPanKeyframe id="989" timeRangeEnd="-9999999/1" timeRangeDuration="0/1" interpolaterName=""  />
                </ZoomPanKeyframes>
               </ZoomPanBin>
              </Entry>
              <Entry key="CursorEffectBin">
               <CursorEffectBin id="990"  >
                <CursorEffectKeyframes>
                </CursorEffectKeyframes>
               </CursorEffectBin>
              </Entry>
             </ExtraData>
            </ScreenVMFile>
            <MetaData>
             <entry key="AutoAppliedSmartFocus" val="False"/>
             <entry key="WinSubProjectDisplayName" val=""/>
            </MetaData>
           </UnifiedMedia>
           <UnifiedMedia id="991"  >
            <AMFile id="992" start="12983" duration="1299" scalar="1/1" mediaStart="17188/1" mediaDuration="1299/1" trackNumber="1" src="4" channelNumber="0,1" >
             <Parameters>
              <InterpolatingParam id="993" interp="linr"  time="0/1" value="1" leadInLength="0/1"  name="volume"/>
              <Parameter id="994"  name="captions"/>
             </Parameters>
             <Attributes>
              <Attribute id="995" value="" name="ident"/>
              <Attribute id="996" value="44100" name="sampleRate"/>
              <Attribute id="997" value="16" name="bitDepth"/>
              <Attribute id="998" value="1" name="gain"/>
              <Attribute id="999" value="0" name="mixToMono"/>
             </Attributes>
            </AMFile>
            <ScreenVMFile id="1000" start="12983" duration="1299" scalar="1/1" mediaStart="17188/1" mediaDuration="1299/1" trackNumber="0" src="4" >
             <Transformer>
              <VectorParam id="1001"  name="translation">
               <InterpolatingParam id="1002" interp="linr"  time="-9999999/1" value="0" leadInLength="0/1"  />
               <InterpolatingParam id="1003" interp="linr"  time="-9999999/1" value="0" leadInLength="0/1"  />
               <InterpolatingParam id="1004" interp="linr"  time="-9999999/1" value="0" leadInLength="0/1"  />
              </VectorParam>
              <VectorParam id="1005"  name="rotation">
               <InterpolatingParam id="1006" interp="linr"  time="-9999999/1" value="0" leadInLength="0/1"  />
               <InterpolatingParam id="1007" interp="linr"  time="-9999999/1" value="0" leadInLength="0/1"  />
               <InterpolatingParam id="1008" interp="linr"  time="-9999999/1" value="0" leadInLength="0/1"  />
              </VectorParam>
              <VectorParam id="1009"  name="shear">
               <InterpolatingParam id="1010" interp="linr"  time="-9999999/1" value="0" leadInLength="0/1"  />
               <InterpolatingParam id="1011" interp="linr"  time="-9999999/1" value="0" leadInLength="0/1"  />
               <InterpolatingParam id="1012" interp="linr"  time="-9999999/1" value="0" leadInLength="0/1"  />
              </VectorParam>
              <VectorParam id="1013"  name="scale">
               <InterpolatingParam id="1014" interp="linr"  time="-9999999/1" value="1" leadInLength="0/1"  />
               <InterpolatingParam id="1015" interp="linr"  time="-9999999/1" value="1" leadInLength="0/1"  />
               <InterpolatingParam id="1016" interp="linr"  time="-9999999/1" value="1" leadInLength="0/1"  />
              </VectorParam>
              <VectorParam id="1017"  name="anchor">
               <InterpolatingParam id="1018" interp="linr"  time="0/1" value="0" leadInLength="0/1"  />
               <InterpolatingParam id="1019" interp="linr"  time="0/1" value="0" leadInLength="0/1"  />
               <InterpolatingParam id="1020" interp="linr"  time="0/1" value="0" leadInLength="0/1"  />
              </VectorParam>
             </Transformer>
             <Parameters>
              <VectorParam id="1021"  name="sourceCrop">
               <InterpolatingParam id="1022" interp="linr"  time="0/1" value="0" leadInLength="0/1"  />
               <InterpolatingParam id="1023" interp="linr"  time="0/1" value="0" leadInLength="0/1"  />
               <InterpolatingParam id="1024" interp="linr"  time="0/1" value="0" leadInLength="0/1"  />
               <InterpolatingParam id="1025" interp="linr"  time="0/1" value="0" leadInLength="0/1"  />
              </VectorParam>
              <VectorParam id="1026"  name="geometryCrop">
               <InterpolatingParam id="1027" interp="linr"  time="-9999999/1" value="0" leadInLength="0/1"  />
               <InterpolatingParam id="1028" interp="linr"  time="-9999999/1" value="0" leadInLength="0/1"  />
               <InterpolatingParam id="1029" interp="linr"  time="-9999999/1" value="0" leadInLength="0/1"  />
               <InterpolatingParam id="1030" interp="linr"  time="-9999999/1" value="0" leadInLength="0/1"  />
              </VectorParam>
              <InterpolatingParam id="1031" interp="linr"  time="-9999999/1" value="1" leadInLength="0/1"  name="opacity"/>
              <InterpolatingParam id="1032" interp="linr"  time="0/1" value="0" leadInLength="0/1"  name="cursorOpacity"/>
              <InterpolatingParam id="1033" interp="linr"  time="0/1" value="0" leadInLength="0/1"  name="cursorScale"/>
             </Parameters>
             <Attributes>
              <Attribute id="1034" value="" name="ident"/>
             </Attributes>
             <ExtraData>
              <Entry key="ZoomPanBin">
               <ZoomPanBin id="1035"  >
                <ZoomPanKeyframes>
                 <ZoomPanKeyframe id="1036" timeRangeEnd="-9999999/1" timeRangeDuration="0/1" interpolaterName=""  />
                </ZoomPanKeyframes>
               </ZoomPanBin>
              </Entry>
              <Entry key="CursorEffectBin">
               <CursorEffectBin id="1037"  >
                <CursorEffectKeyframes>
                </CursorEffectKeyframes>
               </CursorEffectBin>
              </Entry>
             </ExtraData>
            </ScreenVMFile>
            <MetaData>
             <entry key="AutoAppliedSmartFocus" val="False"/>
             <entry key="WinSubProjectDisplayName" val=""/>
            </MetaData>
           </UnifiedMedia>
           <UnifiedMedia id="1038"  >
            <AMFile id="1039" start="14282" duration="375" scalar="1/1" mediaStart="19157/1" mediaDuration="375/1" trackNumber="1" src="4" channelNumber="0,1" >
             <Parameters>
              <InterpolatingParam id="1040" interp="linr"  time="0/1" value="1" leadInLength="0/1"  name="volume"/>
              <Parameter id="1041"  name="captions"/>
             </Parameters>
             <Attributes>
              <Attribute id="1042" value="" name="ident"/>
              <Attribute id="1043" value="44100" name="sampleRate"/>
              <Attribute id="1044" value="16" name="bitDepth"/>
              <Attribute id="1045" value="1" name="gain"/>
              <Attribute id="1046" value="0" name="mixToMono"/>
             </Attributes>
            </AMFile>
            <ScreenVMFile id="1047" start="14282" duration="375" scalar="1/1" mediaStart="19157/1" mediaDuration="375/1" trackNumber="0" src="4" >
             <Transformer>
              <VectorParam id="1048"  name="translation">
               <InterpolatingParam id="1049" interp="linr"  time="-9999999/1" value="0" leadInLength="0/1"  />
               <InterpolatingParam id="1050" interp="linr"  time="-9999999/1" value="0" leadInLength="0/1"  />
               <InterpolatingParam id="1051" interp="linr"  time="-9999999/1" value="0" leadInLength="0/1"  />
              </VectorParam>
              <VectorParam id="1052"  name="rotation">
               <InterpolatingParam id="1053" interp="linr"  time="-9999999/1" value="0" leadInLength="0/1"  />
               <InterpolatingParam id="1054" interp="linr"  time="-9999999/1" value="0" leadInLength="0/1"  />
               <InterpolatingParam id="1055" interp="linr"  time="-9999999/1" value="0" leadInLength="0/1"  />
              </VectorParam>
              <VectorParam id="1056"  name="shear">
               <InterpolatingParam id="1057" interp="linr"  time="-9999999/1" value="0" leadInLength="0/1"  />
               <InterpolatingParam id="1058" interp="linr"  time="-9999999/1" value="0" leadInLength="0/1"  />
               <InterpolatingParam id="1059" interp="linr"  time="-9999999/1" value="0" leadInLength="0/1"  />
              </VectorParam>
              <VectorParam id="1060"  name="scale">
               <InterpolatingParam id="1061" interp="linr"  time="-9999999/1" value="1" leadInLength="0/1"  />
               <InterpolatingParam id="1062" interp="linr"  time="-9999999/1" value="1" leadInLength="0/1"  />
               <InterpolatingParam id="1063" interp="linr"  time="-9999999/1" value="1" leadInLength="0/1"  />
              </VectorParam>
              <VectorParam id="1064"  name="anchor">
               <InterpolatingParam id="1065" interp="linr"  time="0/1" value="0" leadInLength="0/1"  />
               <InterpolatingParam id="1066" interp="linr"  time="0/1" value="0" leadInLength="0/1"  />
               <InterpolatingParam id="1067" interp="linr"  time="0/1" value="0" leadInLength="0/1"  />
              </VectorParam>
             </Transformer>
             <Parameters>
              <VectorParam id="1068"  name="sourceCrop">
               <InterpolatingParam id="1069" interp="linr"  time="0/1" value="0" leadInLength="0/1"  />
               <InterpolatingParam id="1070" interp="linr"  time="0/1" value="0" leadInLength="0/1"  />
               <InterpolatingParam id="1071" interp="linr"  time="0/1" value="0" leadInLength="0/1"  />
               <InterpolatingParam id="1072" interp="linr"  time="0/1" value="0" leadInLength="0/1"  />
              </VectorParam>
              <VectorParam id="1073"  name="geometryCrop">
               <InterpolatingParam id="1074" interp="linr"  time="-9999999/1" value="0" leadInLength="0/1"  />
               <InterpolatingParam id="1075" interp="linr"  time="-9999999/1" value="0" leadInLength="0/1"  />
               <InterpolatingParam id="1076" interp="linr"  time="-9999999/1" value="0" leadInLength="0/1"  />
               <InterpolatingParam id="1077" interp="linr"  time="-9999999/1" value="0" leadInLength="0/1"  />
              </VectorParam>
              <InterpolatingParam id="1078" interp="linr"  time="-9999999/1" value="1" leadInLength="0/1"  name="opacity"/>
              <InterpolatingParam id="1079" interp="linr"  time="0/1" value="0" leadInLength="0/1"  name="cursorOpacity"/>
              <InterpolatingParam id="1080" interp="linr"  time="0/1" value="0" leadInLength="0/1"  name="cursorScale"/>
             </Parameters>
             <Attributes>
              <Attribute id="1081" value="" name="ident"/>
             </Attributes>
             <ExtraData>
              <Entry key="ZoomPanBin">
               <ZoomPanBin id="1082"  >
                <ZoomPanKeyframes>
                 <ZoomPanKeyframe id="1083" timeRangeEnd="-9999999/1" timeRangeDuration="0/1" interpolaterName=""  />
                </ZoomPanKeyframes>
               </ZoomPanBin>
              </Entry>
              <Entry key="CursorEffectBin">
               <CursorEffectBin id="1084"  >
                <CursorEffectKeyframes>
                </CursorEffectKeyframes>
               </CursorEffectBin>
              </Entry>
             </ExtraData>
            </ScreenVMFile>
            <MetaData>
             <entry key="AutoAppliedSmartFocus" val="False"/>
             <entry key="WinSubProjectDisplayName" val=""/>
            </MetaData>
           </UnifiedMedia>
           <UnifiedMedia id="1085"  >
            <AMFile id="1086" start="14657" duration="2964" scalar="1/1" mediaStart="19744/1" mediaDuration="2964/1" trackNumber="1" src="4" channelNumber="0,1" >
             <Parameters>
              <InterpolatingParam id="1087" interp="linr"  time="0/1" value="1" leadInLength="0/1"  name="volume"/>
              <Parameter id="1088"  name="captions"/>
             </Parameters>
             <Attributes>
              <Attribute id="1089" value="" name="ident"/>
              <Attribute id="1090" value="44100" name="sampleRate"/>
              <Attribute id="1091" value="16" name="bitDepth"/>
              <Attribute id="1092" value="1" name="gain"/>
              <Attribute id="1093" value="0" name="mixToMono"/>
             </Attributes>
            </AMFile>
            <ScreenVMFile id="1094" start="14657" duration="2964" scalar="1/1" mediaStart="19744/1" mediaDuration="2964/1" trackNumber="0" src="4" >
             <Transformer>
              <VectorParam id="1095"  name="translation">
               <InterpolatingParam id="1096" interp="linr"  time="-9999999/1" value="0" leadInLength="0/1"  />
               <InterpolatingParam id="1097" interp="linr"  time="-9999999/1" value="0" leadInLength="0/1"  />
               <InterpolatingParam id="1098" interp="linr"  time="-9999999/1" value="0" leadInLength="0/1"  />
              </VectorParam>
              <VectorParam id="1099"  name="rotation">
               <InterpolatingParam id="1100" interp="linr"  time="-9999999/1" value="0" leadInLength="0/1"  />
               <InterpolatingParam id="1101" interp="linr"  time="-9999999/1" value="0" leadInLength="0/1"  />
               <InterpolatingParam id="1102" interp="linr"  time="-9999999/1" value="0" leadInLength="0/1"  />
              </VectorParam>
              <VectorParam id="1103"  name="shear">
               <InterpolatingParam id="1104" interp="linr"  time="-9999999/1" value="0" leadInLength="0/1"  />
               <InterpolatingParam id="1105" interp="linr"  time="-9999999/1" value="0" leadInLength="0/1"  />
               <InterpolatingParam id="1106" interp="linr"  time="-9999999/1" value="0" leadInLength="0/1"  />
              </VectorParam>
              <VectorParam id="1107"  name="scale">
               <InterpolatingParam id="1108" interp="linr"  time="-9999999/1" value="1" leadInLength="0/1"  />
               <InterpolatingParam id="1109" interp="linr"  time="-9999999/1" value="1" leadInLength="0/1"  />
               <InterpolatingParam id="1110" interp="linr"  time="-9999999/1" value="1" leadInLength="0/1"  />
              </VectorParam>
              <VectorParam id="1111"  name="anchor">
               <InterpolatingParam id="1112" interp="linr"  time="0/1" value="0" leadInLength="0/1"  />
               <InterpolatingParam id="1113" interp="linr"  time="0/1" value="0" leadInLength="0/1"  />
               <InterpolatingParam id="1114" interp="linr"  time="0/1" value="0" leadInLength="0/1"  />
              </VectorParam>
             </Transformer>
             <Parameters>
              <VectorParam id="1115"  name="sourceCrop">
               <InterpolatingParam id="1116" interp="linr"  time="0/1" value="0" leadInLength="0/1"  />
               <InterpolatingParam id="1117" interp="linr"  time="0/1" value="0" leadInLength="0/1"  />
               <InterpolatingParam id="1118" interp="linr"  time="0/1" value="0" leadInLength="0/1"  />
               <InterpolatingParam id="1119" interp="linr"  time="0/1" value="0" leadInLength="0/1"  />
              </VectorParam>
              <VectorParam id="1120"  name="geometryCrop">
               <InterpolatingParam id="1121" interp="linr"  time="-9999999/1" value="0" leadInLength="0/1"  />
               <InterpolatingParam id="1122" interp="linr"  time="-9999999/1" value="0" leadInLength="0/1"  />
               <InterpolatingParam id="1123" interp="linr"  time="-9999999/1" value="0" leadInLength="0/1"  />
               <InterpolatingParam id="1124" interp="linr"  time="-9999999/1" value="0" leadInLength="0/1"  />
              </VectorParam>
              <InterpolatingParam id="1125" interp="linr"  time="-9999999/1" value="1" leadInLength="0/1"  name="opacity"/>
              <InterpolatingParam id="1126" interp="linr"  time="0/1" value="0" leadInLength="0/1"  name="cursorOpacity"/>
              <InterpolatingParam id="1127" interp="linr"  time="0/1" value="0" leadInLength="0/1"  name="cursorScale"/>
             </Parameters>
             <Attributes>
              <Attribute id="1128" value="" name="ident"/>
             </Attributes>
             <ExtraData>
              <Entry key="ZoomPanBin">
               <ZoomPanBin id="1129"  >
                <ZoomPanKeyframes>
                 <ZoomPanKeyframe id="1130" timeRangeEnd="-9999999/1" timeRangeDuration="0/1" interpolaterName=""  />
                </ZoomPanKeyframes>
               </ZoomPanBin>
              </Entry>
              <Entry key="CursorEffectBin">
               <CursorEffectBin id="1131"  >
                <CursorEffectKeyframes>
                </CursorEffectKeyframes>
               </CursorEffectBin>
              </Entry>
             </ExtraData>
            </ScreenVMFile>
            <MetaData>
             <entry key="AutoAppliedSmartFocus" val="False"/>
             <entry key="WinSubProjectDisplayName" val=""/>
            </MetaData>
           </UnifiedMedia>
           <UnifiedMedia id="1132"  >
            <AMFile id="1133" start="17621" duration="903" scalar="1/1" mediaStart="22725/1" mediaDuration="903/1" trackNumber="1" src="4" channelNumber="0,1" >
             <Parameters>
              <InterpolatingParam id="1134" interp="linr"  time="0/1" value="1" leadInLength="0/1"  name="volume"/>
              <Parameter id="1135"  name="captions"/>
             </Parameters>
             <Attributes>
              <Attribute id="1136" value="" name="ident"/>
              <Attribute id="1137" value="44100" name="sampleRate"/>
              <Attribute id="1138" value="16" name="bitDepth"/>
              <Attribute id="1139" value="1" name="gain"/>
              <Attribute id="1140" value="0" name="mixToMono"/>
             </Attributes>
            </AMFile>
            <ScreenVMFile id="1141" start="17621" duration="903" scalar="1/1" mediaStart="22725/1" mediaDuration="903/1" trackNumber="0" src="4" >
             <Transformer>
              <VectorParam id="1142"  name="translation">
               <InterpolatingParam id="1143" interp="linr"  time="-9999999/1" value="0" leadInLength="0/1"  />
               <InterpolatingParam id="1144" interp="linr"  time="-9999999/1" value="0" leadInLength="0/1"  />
               <InterpolatingParam id="1145" interp="linr"  time="-9999999/1" value="0" leadInLength="0/1"  />
              </VectorParam>
              <VectorParam id="1146"  name="rotation">
               <InterpolatingParam id="1147" interp="linr"  time="-9999999/1" value="0" leadInLength="0/1"  />
               <InterpolatingParam id="1148" interp="linr"  time="-9999999/1" value="0" leadInLength="0/1"  />
               <InterpolatingParam id="1149" interp="linr"  time="-9999999/1" value="0" leadInLength="0/1"  />
              </VectorParam>
              <VectorParam id="1150"  name="shear">
               <InterpolatingParam id="1151" interp="linr"  time="-9999999/1" value="0" leadInLength="0/1"  />
               <InterpolatingParam id="1152" interp="linr"  time="-9999999/1" value="0" leadInLength="0/1"  />
               <InterpolatingParam id="1153" interp="linr"  time="-9999999/1" value="0" leadInLength="0/1"  />
              </VectorParam>
              <VectorParam id="1154"  name="scale">
               <InterpolatingParam id="1155" interp="linr"  time="-9999999/1" value="1" leadInLength="0/1"  />
               <InterpolatingParam id="1156" interp="linr"  time="-9999999/1" value="1" leadInLength="0/1"  />
               <InterpolatingParam id="1157" interp="linr"  time="-9999999/1" value="1" leadInLength="0/1"  />
              </VectorParam>
              <VectorParam id="1158"  name="anchor">
               <InterpolatingParam id="1159" interp="linr"  time="0/1" value="0" leadInLength="0/1"  />
               <InterpolatingParam id="1160" interp="linr"  time="0/1" value="0" leadInLength="0/1"  />
               <InterpolatingParam id="1161" interp="linr"  time="0/1" value="0" leadInLength="0/1"  />
              </VectorParam>
             </Transformer>
             <Parameters>
              <VectorParam id="1162"  name="sourceCrop">
               <InterpolatingParam id="1163" interp="linr"  time="0/1" value="0" leadInLength="0/1"  />
               <InterpolatingParam id="1164" interp="linr"  time="0/1" value="0" leadInLength="0/1"  />
               <InterpolatingParam id="1165" interp="linr"  time="0/1" value="0" leadInLength="0/1"  />
               <InterpolatingParam id="1166" interp="linr"  time="0/1" value="0" leadInLength="0/1"  />
              </VectorParam>
              <VectorParam id="1167"  name="geometryCrop">
               <InterpolatingParam id="1168" interp="linr"  time="-9999999/1" value="0" leadInLength="0/1"  />
               <InterpolatingParam id="1169" interp="linr"  time="-9999999/1" value="0" leadInLength="0/1"  />
               <InterpolatingParam id="1170" interp="linr"  time="-9999999/1" value="0" leadInLength="0/1"  />
               <InterpolatingParam id="1171" interp="linr"  time="-9999999/1" value="0" leadInLength="0/1"  />
              </VectorParam>
              <InterpolatingParam id="1172" interp="linr"  time="-9999999/1" value="1" leadInLength="0/1"  name="opacity"/>
              <InterpolatingParam id="1173" interp="linr"  time="0/1" value="0" leadInLength="0/1"  name="cursorOpacity"/>
              <InterpolatingParam id="1174" interp="linr"  time="0/1" value="0" leadInLength="0/1"  name="cursorScale"/>
             </Parameters>
             <Attributes>
              <Attribute id="1175" value="" name="ident"/>
             </Attributes>
             <ExtraData>
              <Entry key="ZoomPanBin">
               <ZoomPanBin id="1176"  >
                <ZoomPanKeyframes>
                 <ZoomPanKeyframe id="1177" timeRangeEnd="-9999999/1" timeRangeDuration="0/1" interpolaterName=""  />
                </ZoomPanKeyframes>
               </ZoomPanBin>
              </Entry>
              <Entry key="CursorEffectBin">
               <CursorEffectBin id="1178"  >
                <CursorEffectKeyframes>
                </CursorEffectKeyframes>
               </CursorEffectBin>
              </Entry>
             </ExtraData>
            </ScreenVMFile>
            <MetaData>
             <entry key="AutoAppliedSmartFocus" val="False"/>
             <entry key="WinSubProjectDisplayName" val=""/>
            </MetaData>
           </UnifiedMedia>
           <UnifiedMedia id="1179"  >
            <AMFile id="1180" start="18524" duration="123" scalar="1/1" mediaStart="24240/1" mediaDuration="123/1" trackNumber="1" src="4" channelNumber="0,1" >
             <Parameters>
              <InterpolatingParam id="1181" interp="linr"  time="0/1" value="1" leadInLength="0/1"  name="volume"/>
              <Parameter id="1182"  name="captions"/>
             </Parameters>
             <Attributes>
              <Attribute id="1183" value="" name="ident"/>
              <Attribute id="1184" value="44100" name="sampleRate"/>
              <Attribute id="1185" value="16" name="bitDepth"/>
              <Attribute id="1186" value="1" name="gain"/>
              <Attribute id="1187" value="0" name="mixToMono"/>
             </Attributes>
            </AMFile>
            <ScreenVMFile id="1188" start="18524" duration="123" scalar="1/1" mediaStart="24240/1" mediaDuration="123/1" trackNumber="0" src="4" >
             <Transformer>
              <VectorParam id="1189"  name="translation">
               <InterpolatingParam id="1190" interp="linr"  time="-9999999/1" value="0" leadInLength="0/1"  />
               <InterpolatingParam id="1191" interp="linr"  time="-9999999/1" value="0" leadInLength="0/1"  />
               <InterpolatingParam id="1192" interp="linr"  time="-9999999/1" value="0" leadInLength="0/1"  />
              </VectorParam>
              <VectorParam id="1193"  name="rotation">
               <InterpolatingParam id="1194" interp="linr"  time="-9999999/1" value="0" leadInLength="0/1"  />
               <InterpolatingParam id="1195" interp="linr"  time="-9999999/1" value="0" leadInLength="0/1"  />
               <InterpolatingParam id="1196" interp="linr"  time="-9999999/1" value="0" leadInLength="0/1"  />
              </VectorParam>
              <VectorParam id="1197"  name="shear">
               <InterpolatingParam id="1198" interp="linr"  time="-9999999/1" value="0" leadInLength="0/1"  />
               <InterpolatingParam id="1199" interp="linr"  time="-9999999/1" value="0" leadInLength="0/1"  />
               <InterpolatingParam id="1200" interp="linr"  time="-9999999/1" value="0" leadInLength="0/1"  />
              </VectorParam>
              <VectorParam id="1201"  name="scale">
               <InterpolatingParam id="1202" interp="linr"  time="-9999999/1" value="1" leadInLength="0/1"  />
               <InterpolatingParam id="1203" interp="linr"  time="-9999999/1" value="1" leadInLength="0/1"  />
               <InterpolatingParam id="1204" interp="linr"  time="-9999999/1" value="1" leadInLength="0/1"  />
              </VectorParam>
              <VectorParam id="1205"  name="anchor">
               <InterpolatingParam id="1206" interp="linr"  time="0/1" value="0" leadInLength="0/1"  />
               <InterpolatingParam id="1207" interp="linr"  time="0/1" value="0" leadInLength="0/1"  />
               <InterpolatingParam id="1208" interp="linr"  time="0/1" value="0" leadInLength="0/1"  />
              </VectorParam>
             </Transformer>
             <Parameters>
              <VectorParam id="1209"  name="sourceCrop">
               <InterpolatingParam id="1210" interp="linr"  time="0/1" value="0" leadInLength="0/1"  />
               <InterpolatingParam id="1211" interp="linr"  time="0/1" value="0" leadInLength="0/1"  />
               <InterpolatingParam id="1212" interp="linr"  time="0/1" value="0" leadInLength="0/1"  />
               <InterpolatingParam id="1213" interp="linr"  time="0/1" value="0" leadInLength="0/1"  />
              </VectorParam>
              <VectorParam id="1214"  name="geometryCrop">
               <InterpolatingParam id="1215" interp="linr"  time="-9999999/1" value="0" leadInLength="0/1"  />
               <InterpolatingParam id="1216" interp="linr"  time="-9999999/1" value="0" leadInLength="0/1"  />
               <InterpolatingParam id="1217" interp="linr"  time="-9999999/1" value="0" leadInLength="0/1"  />
               <InterpolatingParam id="1218" interp="linr"  time="-9999999/1" value="0" leadInLength="0/1"  />
              </VectorParam>
              <InterpolatingParam id="1219" interp="linr"  time="-9999999/1" value="1" leadInLength="0/1"  name="opacity"/>
              <InterpolatingParam id="1220" interp="linr"  time="0/1" value="0" leadInLength="0/1"  name="cursorOpacity"/>
              <InterpolatingParam id="1221" interp="linr"  time="0/1" value="0" leadInLength="0/1"  name="cursorScale"/>
             </Parameters>
             <Attributes>
              <Attribute id="1222" value="" name="ident"/>
             </Attributes>
             <ExtraData>
              <Entry key="ZoomPanBin">
               <ZoomPanBin id="1223"  >
                <ZoomPanKeyframes>
                 <ZoomPanKeyframe id="1224" timeRangeEnd="-9999999/1" timeRangeDuration="0/1" interpolaterName=""  />
                </ZoomPanKeyframes>
               </ZoomPanBin>
              </Entry>
              <Entry key="CursorEffectBin">
               <CursorEffectBin id="1225"  >
                <CursorEffectKeyframes>
                </CursorEffectKeyframes>
               </CursorEffectBin>
              </Entry>
             </ExtraData>
            </ScreenVMFile>
            <MetaData>
             <entry key="AutoAppliedSmartFocus" val="False"/>
             <entry key="WinSubProjectDisplayName" val=""/>
            </MetaData>
           </UnifiedMedia>
           <UnifiedMedia id="1226"  >
            <AMFile id="1227" start="18647" duration="71" scalar="1/1" mediaStart="24378/1" mediaDuration="71/1" trackNumber="1" src="4" channelNumber="0,1" >
             <Parameters>
              <InterpolatingParam id="1228" interp="linr"  time="0/1" value="1" leadInLength="0/1"  name="volume"/>
              <Parameter id="1229"  name="captions"/>
             </Parameters>
             <Attributes>
              <Attribute id="1230" value="" name="ident"/>
              <Attribute id="1231" value="44100" name="sampleRate"/>
              <Attribute id="1232" value="16" name="bitDepth"/>
              <Attribute id="1233" value="1" name="gain"/>
              <Attribute id="1234" value="0" name="mixToMono"/>
             </Attributes>
            </AMFile>
            <ScreenVMFile id="1235" start="18647" duration="71" scalar="1/1" mediaStart="24378/1" mediaDuration="71/1" trackNumber="0" src="4" >
             <Transformer>
              <VectorParam id="1236"  name="translation">
               <InterpolatingParam id="1237" interp="linr"  time="-9999999/1" value="0" leadInLength="0/1"  />
               <InterpolatingParam id="1238" interp="linr"  time="-9999999/1" value="0" leadInLength="0/1"  />
               <InterpolatingParam id="1239" interp="linr"  time="-9999999/1" value="0" leadInLength="0/1"  />
              </VectorParam>
              <VectorParam id="1240"  name="rotation">
               <InterpolatingParam id="1241" interp="linr"  time="-9999999/1" value="0" leadInLength="0/1"  />
               <InterpolatingParam id="1242" interp="linr"  time="-9999999/1" value="0" leadInLength="0/1"  />
               <InterpolatingParam id="1243" interp="linr"  time="-9999999/1" value="0" leadInLength="0/1"  />
              </VectorParam>
              <VectorParam id="1244"  name="shear">
               <InterpolatingParam id="1245" interp="linr"  time="-9999999/1" value="0" leadInLength="0/1"  />
               <InterpolatingParam id="1246" interp="linr"  time="-9999999/1" value="0" leadInLength="0/1"  />
               <InterpolatingParam id="1247" interp="linr"  time="-9999999/1" value="0" leadInLength="0/1"  />
              </VectorParam>
              <VectorParam id="1248"  name="scale">
               <InterpolatingParam id="1249" interp="linr"  time="-9999999/1" value="1" leadInLength="0/1"  />
               <InterpolatingParam id="1250" interp="linr"  time="-9999999/1" value="1" leadInLength="0/1"  />
               <InterpolatingParam id="1251" interp="linr"  time="-9999999/1" value="1" leadInLength="0/1"  />
              </VectorParam>
              <VectorParam id="1252"  name="anchor">
               <InterpolatingParam id="1253" interp="linr"  time="0/1" value="0" leadInLength="0/1"  />
               <InterpolatingParam id="1254" interp="linr"  time="0/1" value="0" leadInLength="0/1"  />
               <InterpolatingParam id="1255" interp="linr"  time="0/1" value="0" leadInLength="0/1"  />
              </VectorParam>
             </Transformer>
             <Parameters>
              <VectorParam id="1256"  name="sourceCrop">
               <InterpolatingParam id="1257" interp="linr"  time="0/1" value="0" leadInLength="0/1"  />
               <InterpolatingParam id="1258" interp="linr"  time="0/1" value="0" leadInLength="0/1"  />
               <InterpolatingParam id="1259" interp="linr"  time="0/1" value="0" leadInLength="0/1"  />
               <InterpolatingParam id="1260" interp="linr"  time="0/1" value="0" leadInLength="0/1"  />
              </VectorParam>
              <VectorParam id="1261"  name="geometryCrop">
               <InterpolatingParam id="1262" interp="linr"  time="-9999999/1" value="0" leadInLength="0/1"  />
               <InterpolatingParam id="1263" interp="linr"  time="-9999999/1" value="0" leadInLength="0/1"  />
               <InterpolatingParam id="1264" interp="linr"  time="-9999999/1" value="0" leadInLength="0/1"  />
               <InterpolatingParam id="1265" interp="linr"  time="-9999999/1" value="0" leadInLength="0/1"  />
              </VectorParam>
              <InterpolatingParam id="1266" interp="linr"  time="-9999999/1" value="1" leadInLength="0/1"  name="opacity"/>
              <InterpolatingParam id="1267" interp="linr"  time="0/1" value="0" leadInLength="0/1"  name="cursorOpacity"/>
              <InterpolatingParam id="1268" interp="linr"  time="0/1" value="0" leadInLength="0/1"  name="cursorScale"/>
             </Parameters>
             <Attributes>
              <Attribute id="1269" value="" name="ident"/>
             </Attributes>
             <ExtraData>
              <Entry key="ZoomPanBin">
               <ZoomPanBin id="1270"  >
                <ZoomPanKeyframes>
                 <ZoomPanKeyframe id="1271" timeRangeEnd="-9999999/1" timeRangeDuration="0/1" interpolaterName=""  />
                </ZoomPanKeyframes>
               </ZoomPanBin>
              </Entry>
              <Entry key="CursorEffectBin">
               <CursorEffectBin id="1272"  >
                <CursorEffectKeyframes>
                </CursorEffectKeyframes>
               </CursorEffectBin>
              </Entry>
             </ExtraData>
            </ScreenVMFile>
            <MetaData>
             <entry key="AutoAppliedSmartFocus" val="False"/>
             <entry key="WinSubProjectDisplayName" val=""/>
            </MetaData>
           </UnifiedMedia>
           <UnifiedMedia id="1273"  >
            <AMFile id="1274" start="18718" duration="524" scalar="1/1" mediaStart="24589/1" mediaDuration="524/1" trackNumber="1" src="4" channelNumber="0,1" >
             <Parameters>
              <InterpolatingParam id="1275" interp="linr"  time="0/1" value="1" leadInLength="0/1"  name="volume"/>
              <Parameter id="1276"  name="captions"/>
             </Parameters>
             <Attributes>
              <Attribute id="1277" value="" name="ident"/>
              <Attribute id="1278" value="44100" name="sampleRate"/>
              <Attribute id="1279" value="16" name="bitDepth"/>
              <Attribute id="1280" value="1" name="gain"/>
              <Attribute id="1281" value="0" name="mixToMono"/>
             </Attributes>
            </AMFile>
            <ScreenVMFile id="1282" start="18718" duration="524" scalar="1/1" mediaStart="24589/1" mediaDuration="524/1" trackNumber="0" src="4" >
             <Transformer>
              <VectorParam id="1283"  name="translation">
               <InterpolatingParam id="1284" interp="linr"  time="-9999999/1" value="0" leadInLength="0/1"  />
               <InterpolatingParam id="1285" interp="linr"  time="-9999999/1" value="0" leadInLength="0/1"  />
               <InterpolatingParam id="1286" interp="linr"  time="-9999999/1" value="0" leadInLength="0/1"  />
              </VectorParam>
              <VectorParam id="1287"  name="rotation">
               <InterpolatingParam id="1288" interp="linr"  time="-9999999/1" value="0" leadInLength="0/1"  />
               <InterpolatingParam id="1289" interp="linr"  time="-9999999/1" value="0" leadInLength="0/1"  />
               <InterpolatingParam id="1290" interp="linr"  time="-9999999/1" value="0" leadInLength="0/1"  />
              </VectorParam>
              <VectorParam id="1291"  name="shear">
               <InterpolatingParam id="1292" interp="linr"  time="-9999999/1" value="0" leadInLength="0/1"  />
               <InterpolatingParam id="1293" interp="linr"  time="-9999999/1" value="0" leadInLength="0/1"  />
               <InterpolatingParam id="1294" interp="linr"  time="-9999999/1" value="0" leadInLength="0/1"  />
              </VectorParam>
              <VectorParam id="1295"  name="scale">
               <InterpolatingParam id="1296" interp="linr"  time="-9999999/1" value="1" leadInLength="0/1"  />
               <InterpolatingParam id="1297" interp="linr"  time="-9999999/1" value="1" leadInLength="0/1"  />
               <InterpolatingParam id="1298" interp="linr"  time="-9999999/1" value="1" leadInLength="0/1"  />
              </VectorParam>
              <VectorParam id="1299"  name="anchor">
               <InterpolatingParam id="1300" interp="linr"  time="0/1" value="0" leadInLength="0/1"  />
               <InterpolatingParam id="1301" interp="linr"  time="0/1" value="0" leadInLength="0/1"  />
               <InterpolatingParam id="1302" interp="linr"  time="0/1" value="0" leadInLength="0/1"  />
              </VectorParam>
             </Transformer>
             <Parameters>
              <VectorParam id="1303"  name="sourceCrop">
               <InterpolatingParam id="1304" interp="linr"  time="0/1" value="0" leadInLength="0/1"  />
               <InterpolatingParam id="1305" interp="linr"  time="0/1" value="0" leadInLength="0/1"  />
               <InterpolatingParam id="1306" interp="linr"  time="0/1" value="0" leadInLength="0/1"  />
               <InterpolatingParam id="1307" interp="linr"  time="0/1" value="0" leadInLength="0/1"  />
              </VectorParam>
              <VectorParam id="1308"  name="geometryCrop">
               <InterpolatingParam id="1309" interp="linr"  time="-9999999/1" value="0" leadInLength="0/1"  />
               <InterpolatingParam id="1310" interp="linr"  time="-9999999/1" value="0" leadInLength="0/1"  />
               <InterpolatingParam id="1311" interp="linr"  time="-9999999/1" value="0" leadInLength="0/1"  />
               <InterpolatingParam id="1312" interp="linr"  time="-9999999/1" value="0" leadInLength="0/1"  />
              </VectorParam>
              <InterpolatingParam id="1313" interp="linr"  time="-9999999/1" value="1" leadInLength="0/1"  name="opacity"/>
              <InterpolatingParam id="1314" interp="linr"  time="0/1" value="0" leadInLength="0/1"  name="cursorOpacity"/>
              <InterpolatingParam id="1315" interp="linr"  time="0/1" value="0" leadInLength="0/1"  name="cursorScale"/>
             </Parameters>
             <Attributes>
              <Attribute id="1316" value="" name="ident"/>
             </Attributes>
             <ExtraData>
              <Entry key="ZoomPanBin">
               <ZoomPanBin id="1317"  >
                <ZoomPanKeyframes>
                 <ZoomPanKeyframe id="1318" timeRangeEnd="-9999999/1" timeRangeDuration="0/1" interpolaterName=""  />
                </ZoomPanKeyframes>
               </ZoomPanBin>
              </Entry>
              <Entry key="CursorEffectBin">
               <CursorEffectBin id="1319"  >
                <CursorEffectKeyframes>
                </CursorEffectKeyframes>
               </CursorEffectBin>
              </Entry>
             </ExtraData>
            </ScreenVMFile>
            <MetaData>
             <entry key="AutoAppliedSmartFocus" val="False"/>
             <entry key="WinSubProjectDisplayName" val=""/>
            </MetaData>
           </UnifiedMedia>
           <UnifiedMedia id="1320"  >
            <AMFile id="1321" start="19242" duration="261" scalar="1/1" mediaStart="25269/1" mediaDuration="261/1" trackNumber="1" src="4" channelNumber="0,1" >
             <Parameters>
              <InterpolatingParam id="1322" interp="linr"  time="0/1" value="1" leadInLength="0/1"  name="volume"/>
              <Parameter id="1323"  name="captions"/>
             </Parameters>
             <Attributes>
              <Attribute id="1324" value="" name="ident"/>
              <Attribute id="1325" value="44100" name="sampleRate"/>
              <Attribute id="1326" value="16" name="bitDepth"/>
              <Attribute id="1327" value="1" name="gain"/>
              <Attribute id="1328" value="0" name="mixToMono"/>
             </Attributes>
            </AMFile>
            <ScreenVMFile id="1329" start="19242" duration="261" scalar="1/1" mediaStart="25269/1" mediaDuration="261/1" trackNumber="0" src="4" >
             <Transformer>
              <VectorParam id="1330"  name="translation">
               <InterpolatingParam id="1331" interp="linr"  time="-9999999/1" value="0" leadInLength="0/1"  />
               <InterpolatingParam id="1332" interp="linr"  time="-9999999/1" value="0" leadInLength="0/1"  />
               <InterpolatingParam id="1333" interp="linr"  time="-9999999/1" value="0" leadInLength="0/1"  />
              </VectorParam>
              <VectorParam id="1334"  name="rotation">
               <InterpolatingParam id="1335" interp="linr"  time="-9999999/1" value="0" leadInLength="0/1"  />
               <InterpolatingParam id="1336" interp="linr"  time="-9999999/1" value="0" leadInLength="0/1"  />
               <InterpolatingParam id="1337" interp="linr"  time="-9999999/1" value="0" leadInLength="0/1"  />
              </VectorParam>
              <VectorParam id="1338"  name="shear">
               <InterpolatingParam id="1339" interp="linr"  time="-9999999/1" value="0" leadInLength="0/1"  />
               <InterpolatingParam id="1340" interp="linr"  time="-9999999/1" value="0" leadInLength="0/1"  />
               <InterpolatingParam id="1341" interp="linr"  time="-9999999/1" value="0" leadInLength="0/1"  />
              </VectorParam>
              <VectorParam id="1342"  name="scale">
               <InterpolatingParam id="1343" interp="linr"  time="-9999999/1" value="1" leadInLength="0/1"  />
               <InterpolatingParam id="1344" interp="linr"  time="-9999999/1" value="1" leadInLength="0/1"  />
               <InterpolatingParam id="1345" interp="linr"  time="-9999999/1" value="1" leadInLength="0/1"  />
              </VectorParam>
              <VectorParam id="1346"  name="anchor">
               <InterpolatingParam id="1347" interp="linr"  time="0/1" value="0" leadInLength="0/1"  />
               <InterpolatingParam id="1348" interp="linr"  time="0/1" value="0" leadInLength="0/1"  />
               <InterpolatingParam id="1349" interp="linr"  time="0/1" value="0" leadInLength="0/1"  />
              </VectorParam>
             </Transformer>
             <Parameters>
              <VectorParam id="1350"  name="sourceCrop">
               <InterpolatingParam id="1351" interp="linr"  time="0/1" value="0" leadInLength="0/1"  />
               <InterpolatingParam id="1352" interp="linr"  time="0/1" value="0" leadInLength="0/1"  />
               <InterpolatingParam id="1353" interp="linr"  time="0/1" value="0" leadInLength="0/1"  />
               <InterpolatingParam id="1354" interp="linr"  time="0/1" value="0" leadInLength="0/1"  />
              </VectorParam>
              <VectorParam id="1355"  name="geometryCrop">
               <InterpolatingParam id="1356" interp="linr"  time="-9999999/1" value="0" leadInLength="0/1"  />
               <InterpolatingParam id="1357" interp="linr"  time="-9999999/1" value="0" leadInLength="0/1"  />
               <InterpolatingParam id="1358" interp="linr"  time="-9999999/1" value="0" leadInLength="0/1"  />
               <InterpolatingParam id="1359" interp="linr"  time="-9999999/1" value="0" leadInLength="0/1"  />
              </VectorParam>
              <InterpolatingParam id="1360" interp="linr"  time="-9999999/1" value="1" leadInLength="0/1"  name="opacity"/>
              <InterpolatingParam id="1361" interp="linr"  time="0/1" value="0" leadInLength="0/1"  name="cursorOpacity"/>
              <InterpolatingParam id="1362" interp="linr"  time="0/1" value="0" leadInLength="0/1"  name="cursorScale"/>
             </Parameters>
             <Attributes>
              <Attribute id="1363" value="" name="ident"/>
             </Attributes>
             <ExtraData>
              <Entry key="ZoomPanBin">
               <ZoomPanBin id="1364"  >
                <ZoomPanKeyframes>
                 <ZoomPanKeyframe id="1365" timeRangeEnd="-9999999/1" timeRangeDuration="0/1" interpolaterName=""  />
                </ZoomPanKeyframes>
               </ZoomPanBin>
              </Entry>
              <Entry key="CursorEffectBin">
               <CursorEffectBin id="1366"  >
                <CursorEffectKeyframes>
                </CursorEffectKeyframes>
               </CursorEffectBin>
              </Entry>
             </ExtraData>
            </ScreenVMFile>
            <MetaData>
             <entry key="AutoAppliedSmartFocus" val="False"/>
             <entry key="WinSubProjectDisplayName" val=""/>
            </MetaData>
           </UnifiedMedia>
           <UnifiedMedia id="1367"  >
            <AMFile id="1368" start="19503" duration="1019" scalar="1/1" mediaStart="25580/1" mediaDuration="1019/1" trackNumber="1" src="4" channelNumber="0,1" >
             <Parameters>
              <InterpolatingParam id="1369" interp="linr"  time="0/1" value="1" leadInLength="0/1"  name="volume"/>
              <Parameter id="1370"  name="captions"/>
             </Parameters>
             <Attributes>
              <Attribute id="1371" value="" name="ident"/>
              <Attribute id="1372" value="44100" name="sampleRate"/>
              <Attribute id="1373" value="16" name="bitDepth"/>
              <Attribute id="1374" value="1" name="gain"/>
              <Attribute id="1375" value="0" name="mixToMono"/>
             </Attributes>
            </AMFile>
            <ScreenVMFile id="1376" start="19503" duration="1019" scalar="1/1" mediaStart="25580/1" mediaDuration="1019/1" trackNumber="0" src="4" >
             <Transformer>
              <VectorParam id="1377"  name="translation">
               <InterpolatingParam id="1378" interp="linr"  time="-9999999/1" value="0" leadInLength="0/1"  />
               <InterpolatingParam id="1379" interp="linr"  time="-9999999/1" value="0" leadInLength="0/1"  />
               <InterpolatingParam id="1380" interp="linr"  time="-9999999/1" value="0" leadInLength="0/1"  />
              </VectorParam>
              <VectorParam id="1381"  name="rotation">
               <InterpolatingParam id="1382" interp="linr"  time="-9999999/1" value="0" leadInLength="0/1"  />
               <InterpolatingParam id="1383" interp="linr"  time="-9999999/1" value="0" leadInLength="0/1"  />
               <InterpolatingParam id="1384" interp="linr"  time="-9999999/1" value="0" leadInLength="0/1"  />
              </VectorParam>
              <VectorParam id="1385"  name="shear">
               <InterpolatingParam id="1386" interp="linr"  time="-9999999/1" value="0" leadInLength="0/1"  />
               <InterpolatingParam id="1387" interp="linr"  time="-9999999/1" value="0" leadInLength="0/1"  />
               <InterpolatingParam id="1388" interp="linr"  time="-9999999/1" value="0" leadInLength="0/1"  />
              </VectorParam>
              <VectorParam id="1389"  name="scale">
               <InterpolatingParam id="1390" interp="linr"  time="-9999999/1" value="1" leadInLength="0/1"  />
               <InterpolatingParam id="1391" interp="linr"  time="-9999999/1" value="1" leadInLength="0/1"  />
               <InterpolatingParam id="1392" interp="linr"  time="-9999999/1" value="1" leadInLength="0/1"  />
              </VectorParam>
              <VectorParam id="1393"  name="anchor">
               <InterpolatingParam id="1394" interp="linr"  time="0/1" value="0" leadInLength="0/1"  />
               <InterpolatingParam id="1395" interp="linr"  time="0/1" value="0" leadInLength="0/1"  />
               <InterpolatingParam id="1396" interp="linr"  time="0/1" value="0" leadInLength="0/1"  />
              </VectorParam>
             </Transformer>
             <Parameters>
              <VectorParam id="1397"  name="sourceCrop">
               <InterpolatingParam id="1398" interp="linr"  time="0/1" value="0" leadInLength="0/1"  />
               <InterpolatingParam id="1399" interp="linr"  time="0/1" value="0" leadInLength="0/1"  />
               <InterpolatingParam id="1400" interp="linr"  time="0/1" value="0" leadInLength="0/1"  />
               <InterpolatingParam id="1401" interp="linr"  time="0/1" value="0" leadInLength="0/1"  />
              </VectorParam>
              <VectorParam id="1402"  name="geometryCrop">
               <InterpolatingParam id="1403" interp="linr"  time="-9999999/1" value="0" leadInLength="0/1"  />
               <InterpolatingParam id="1404" interp="linr"  time="-9999999/1" value="0" leadInLength="0/1"  />
               <InterpolatingParam id="1405" interp="linr"  time="-9999999/1" value="0" leadInLength="0/1"  />
               <InterpolatingParam id="1406" interp="linr"  time="-9999999/1" value="0" leadInLength="0/1"  />
              </VectorParam>
              <InterpolatingParam id="1407" interp="linr"  time="-9999999/1" value="1" leadInLength="0/1"  name="opacity"/>
              <InterpolatingParam id="1408" interp="linr"  time="0/1" value="0" leadInLength="0/1"  name="cursorOpacity"/>
              <InterpolatingParam id="1409" interp="linr"  time="0/1" value="0" leadInLength="0/1"  name="cursorScale"/>
             </Parameters>
             <Attributes>
              <Attribute id="1410" value="" name="ident"/>
             </Attributes>
             <ExtraData>
              <Entry key="ZoomPanBin">
               <ZoomPanBin id="1411"  >
                <ZoomPanKeyframes>
                 <ZoomPanKeyframe id="1412" timeRangeEnd="-9999999/1" timeRangeDuration="0/1" interpolaterName=""  />
                </ZoomPanKeyframes>
               </ZoomPanBin>
              </Entry>
              <Entry key="CursorEffectBin">
               <CursorEffectBin id="1413"  >
                <CursorEffectKeyframes>
                </CursorEffectKeyframes>
               </CursorEffectBin>
              </Entry>
             </ExtraData>
            </ScreenVMFile>
            <MetaData>
             <entry key="AutoAppliedSmartFocus" val="False"/>
             <entry key="WinSubProjectDisplayName" val=""/>
            </MetaData>
           </UnifiedMedia>
           <UnifiedMedia id="1414"  >
            <AMFile id="1415" start="20522" duration="19" scalar="1/1" mediaStart="26869/1" mediaDuration="19/1" trackNumber="1" src="4" channelNumber="0,1" >
             <Parameters>
              <InterpolatingParam id="1416" interp="linr"  time="0/1" value="1" leadInLength="0/1"  name="volume"/>
              <Parameter id="1417"  name="captions"/>
             </Parameters>
             <Attributes>
              <Attribute id="1418" value="" name="ident"/>
              <Attribute id="1419" value="44100" name="sampleRate"/>
              <Attribute id="1420" value="16" name="bitDepth"/>
              <Attribute id="1421" value="1" name="gain"/>
              <Attribute id="1422" value="0" name="mixToMono"/>
             </Attributes>
            </AMFile>
            <ScreenVMFile id="1423" start="20522" duration="19" scalar="1/1" mediaStart="26869/1" mediaDuration="19/1" trackNumber="0" src="4" >
             <Transformer>
              <VectorParam id="1424"  name="translation">
               <InterpolatingParam id="1425" interp="linr"  time="-9999999/1" value="0" leadInLength="0/1"  />
               <InterpolatingParam id="1426" interp="linr"  time="-9999999/1" value="0" leadInLength="0/1"  />
               <InterpolatingParam id="1427" interp="linr"  time="-9999999/1" value="0" leadInLength="0/1"  />
              </VectorParam>
              <VectorParam id="1428"  name="rotation">
               <InterpolatingParam id="1429" interp="linr"  time="-9999999/1" value="0" leadInLength="0/1"  />
               <InterpolatingParam id="1430" interp="linr"  time="-9999999/1" value="0" leadInLength="0/1"  />
               <InterpolatingParam id="1431" interp="linr"  time="-9999999/1" value="0" leadInLength="0/1"  />
              </VectorParam>
              <VectorParam id="1432"  name="shear">
               <InterpolatingParam id="1433" interp="linr"  time="-9999999/1" value="0" leadInLength="0/1"  />
               <InterpolatingParam id="1434" interp="linr"  time="-9999999/1" value="0" leadInLength="0/1"  />
               <InterpolatingParam id="1435" interp="linr"  time="-9999999/1" value="0" leadInLength="0/1"  />
              </VectorParam>
              <VectorParam id="1436"  name="scale">
               <InterpolatingParam id="1437" interp="linr"  time="-9999999/1" value="1" leadInLength="0/1"  />
               <InterpolatingParam id="1438" interp="linr"  time="-9999999/1" value="1" leadInLength="0/1"  />
               <InterpolatingParam id="1439" interp="linr"  time="-9999999/1" value="1" leadInLength="0/1"  />
              </VectorParam>
              <VectorParam id="1440"  name="anchor">
               <InterpolatingParam id="1441" interp="linr"  time="0/1" value="0" leadInLength="0/1"  />
               <InterpolatingParam id="1442" interp="linr"  time="0/1" value="0" leadInLength="0/1"  />
               <InterpolatingParam id="1443" interp="linr"  time="0/1" value="0" leadInLength="0/1"  />
              </VectorParam>
             </Transformer>
             <Parameters>
              <VectorParam id="1444"  name="sourceCrop">
               <InterpolatingParam id="1445" interp="linr"  time="0/1" value="0" leadInLength="0/1"  />
               <InterpolatingParam id="1446" interp="linr"  time="0/1" value="0" leadInLength="0/1"  />
               <InterpolatingParam id="1447" interp="linr"  time="0/1" value="0" leadInLength="0/1"  />
               <InterpolatingParam id="1448" interp="linr"  time="0/1" value="0" leadInLength="0/1"  />
              </VectorParam>
              <VectorParam id="1449"  name="geometryCrop">
               <InterpolatingParam id="1450" interp="linr"  time="-9999999/1" value="0" leadInLength="0/1"  />
               <InterpolatingParam id="1451" interp="linr"  time="-9999999/1" value="0" leadInLength="0/1"  />
               <InterpolatingParam id="1452" interp="linr"  time="-9999999/1" value="0" leadInLength="0/1"  />
               <InterpolatingParam id="1453" interp="linr"  time="-9999999/1" value="0" leadInLength="0/1"  />
              </VectorParam>
              <InterpolatingParam id="1454" interp="linr"  time="-9999999/1" value="1" leadInLength="0/1"  name="opacity"/>
              <InterpolatingParam id="1455" interp="linr"  time="0/1" value="0" leadInLength="0/1"  name="cursorOpacity"/>
              <InterpolatingParam id="1456" interp="linr"  time="0/1" value="0" leadInLength="0/1"  name="cursorScale"/>
             </Parameters>
             <Attributes>
              <Attribute id="1457" value="" name="ident"/>
             </Attributes>
             <ExtraData>
              <Entry key="ZoomPanBin">
               <ZoomPanBin id="1458"  >
                <ZoomPanKeyframes>
                 <ZoomPanKeyframe id="1459" timeRangeEnd="-9999999/1" timeRangeDuration="0/1" interpolaterName=""  />
                </ZoomPanKeyframes>
               </ZoomPanBin>
              </Entry>
              <Entry key="CursorEffectBin">
               <CursorEffectBin id="1460"  >
                <CursorEffectKeyframes>
                </CursorEffectKeyframes>
               </CursorEffectBin>
              </Entry>
             </ExtraData>
            </ScreenVMFile>
            <MetaData>
             <entry key="AutoAppliedSmartFocus" val="False"/>
             <entry key="WinSubProjectDisplayName" val=""/>
            </MetaData>
           </UnifiedMedia>
           <UnifiedMedia id="1461"  >
            <AMFile id="1462" start="20541" duration="162" scalar="1/1" mediaStart="27108/1" mediaDuration="162/1" trackNumber="1" src="4" channelNumber="0,1" >
             <Parameters>
              <InterpolatingParam id="1463" interp="linr"  time="0/1" value="1" leadInLength="0/1"  name="volume"/>
              <Parameter id="1464"  name="captions"/>
             </Parameters>
             <Attributes>
              <Attribute id="1465" value="" name="ident"/>
              <Attribute id="1466" value="44100" name="sampleRate"/>
              <Attribute id="1467" value="16" name="bitDepth"/>
              <Attribute id="1468" value="1" name="gain"/>
              <Attribute id="1469" value="0" name="mixToMono"/>
             </Attributes>
            </AMFile>
            <ScreenVMFile id="1470" start="20541" duration="162" scalar="1/1" mediaStart="27108/1" mediaDuration="162/1" trackNumber="0" src="4" >
             <Transformer>
              <VectorParam id="1471"  name="translation">
               <InterpolatingParam id="1472" interp="linr"  time="-9999999/1" value="0" leadInLength="0/1"  />
               <InterpolatingParam id="1473" interp="linr"  time="-9999999/1" value="0" leadInLength="0/1"  />
               <InterpolatingParam id="1474" interp="linr"  time="-9999999/1" value="0" leadInLength="0/1"  />
              </VectorParam>
              <VectorParam id="1475"  name="rotation">
               <InterpolatingParam id="1476" interp="linr"  time="-9999999/1" value="0" leadInLength="0/1"  />
               <InterpolatingParam id="1477" interp="linr"  time="-9999999/1" value="0" leadInLength="0/1"  />
               <InterpolatingParam id="1478" interp="linr"  time="-9999999/1" value="0" leadInLength="0/1"  />
              </VectorParam>
              <VectorParam id="1479"  name="shear">
               <InterpolatingParam id="1480" interp="linr"  time="-9999999/1" value="0" leadInLength="0/1"  />
               <InterpolatingParam id="1481" interp="linr"  time="-9999999/1" value="0" leadInLength="0/1"  />
               <InterpolatingParam id="1482" interp="linr"  time="-9999999/1" value="0" leadInLength="0/1"  />
              </VectorParam>
              <VectorParam id="1483"  name="scale">
               <InterpolatingParam id="1484" interp="linr"  time="-9999999/1" value="1" leadInLength="0/1"  />
               <InterpolatingParam id="1485" interp="linr"  time="-9999999/1" value="1" leadInLength="0/1"  />
               <InterpolatingParam id="1486" interp="linr"  time="-9999999/1" value="1" leadInLength="0/1"  />
              </VectorParam>
              <VectorParam id="1487"  name="anchor">
               <InterpolatingParam id="1488" interp="linr"  time="0/1" value="0" leadInLength="0/1"  />
               <InterpolatingParam id="1489" interp="linr"  time="0/1" value="0" leadInLength="0/1"  />
               <InterpolatingParam id="1490" interp="linr"  time="0/1" value="0" leadInLength="0/1"  />
              </VectorParam>
             </Transformer>
             <Parameters>
              <VectorParam id="1491"  name="sourceCrop">
               <InterpolatingParam id="1492" interp="linr"  time="0/1" value="0" leadInLength="0/1"  />
               <InterpolatingParam id="1493" interp="linr"  time="0/1" value="0" leadInLength="0/1"  />
               <InterpolatingParam id="1494" interp="linr"  time="0/1" value="0" leadInLength="0/1"  />
               <InterpolatingParam id="1495" interp="linr"  time="0/1" value="0" leadInLength="0/1"  />
              </VectorParam>
              <VectorParam id="1496"  name="geometryCrop">
               <InterpolatingParam id="1497" interp="linr"  time="-9999999/1" value="0" leadInLength="0/1"  />
               <InterpolatingParam id="1498" interp="linr"  time="-9999999/1" value="0" leadInLength="0/1"  />
               <InterpolatingParam id="1499" interp="linr"  time="-9999999/1" value="0" leadInLength="0/1"  />
               <InterpolatingParam id="1500" interp="linr"  time="-9999999/1" value="0" leadInLength="0/1"  />
              </VectorParam>
              <InterpolatingParam id="1501" interp="linr"  time="-9999999/1" value="1" leadInLength="0/1"  name="opacity"/>
              <InterpolatingParam id="1502" interp="linr"  time="0/1" value="0" leadInLength="0/1"  name="cursorOpacity"/>
              <InterpolatingParam id="1503" interp="linr"  time="0/1" value="0" leadInLength="0/1"  name="cursorScale"/>
             </Parameters>
             <Attributes>
              <Attribute id="1504" value="" name="ident"/>
             </Attributes>
             <ExtraData>
              <Entry key="ZoomPanBin">
               <ZoomPanBin id="1505"  >
                <ZoomPanKeyframes>
                 <ZoomPanKeyframe id="1506" timeRangeEnd="-9999999/1" timeRangeDuration="0/1" interpolaterName=""  />
                </ZoomPanKeyframes>
               </ZoomPanBin>
              </Entry>
              <Entry key="CursorEffectBin">
               <CursorEffectBin id="1507"  >
                <CursorEffectKeyframes>
                </CursorEffectKeyframes>
               </CursorEffectBin>
              </Entry>
             </ExtraData>
            </ScreenVMFile>
            <MetaData>
             <entry key="AutoAppliedSmartFocus" val="False"/>
             <entry key="WinSubProjectDisplayName" val=""/>
            </MetaData>
           </UnifiedMedia>
           <UnifiedMedia id="1508"  >
            <AMFile id="1509" start="20703" duration="2232" scalar="1/1" mediaStart="32187/1" mediaDuration="2232/1" trackNumber="1" src="4" channelNumber="0,1" >
             <Parameters>
              <InterpolatingParam id="1510" interp="linr"  time="0/1" value="1" leadInLength="0/1"  name="volume"/>
              <Parameter id="1511"  name="captions"/>
             </Parameters>
             <Attributes>
              <Attribute id="1512" value="" name="ident"/>
              <Attribute id="1513" value="44100" name="sampleRate"/>
              <Attribute id="1514" value="16" name="bitDepth"/>
              <Attribute id="1515" value="1" name="gain"/>
              <Attribute id="1516" value="0" name="mixToMono"/>
             </Attributes>
            </AMFile>
            <ScreenVMFile id="1517" start="20703" duration="2232" scalar="1/1" mediaStart="32187/1" mediaDuration="2232/1" trackNumber="0" src="4" >
             <Transformer>
              <VectorParam id="1518"  name="translation">
               <InterpolatingParam id="1519" interp="linr"  time="-9999999/1" value="0" leadInLength="0/1"  />
               <InterpolatingParam id="1520" interp="linr"  time="-9999999/1" value="0" leadInLength="0/1"  />
               <InterpolatingParam id="1521" interp="linr"  time="-9999999/1" value="0" leadInLength="0/1"  />
              </VectorParam>
              <VectorParam id="1522"  name="rotation">
               <InterpolatingParam id="1523" interp="linr"  time="-9999999/1" value="0" leadInLength="0/1"  />
               <InterpolatingParam id="1524" interp="linr"  time="-9999999/1" value="0" leadInLength="0/1"  />
               <InterpolatingParam id="1525" interp="linr"  time="-9999999/1" value="0" leadInLength="0/1"  />
              </VectorParam>
              <VectorParam id="1526"  name="shear">
               <InterpolatingParam id="1527" interp="linr"  time="-9999999/1" value="0" leadInLength="0/1"  />
               <InterpolatingParam id="1528" interp="linr"  time="-9999999/1" value="0" leadInLength="0/1"  />
               <InterpolatingParam id="1529" interp="linr"  time="-9999999/1" value="0" leadInLength="0/1"  />
              </VectorParam>
              <VectorParam id="1530"  name="scale">
               <InterpolatingParam id="1531" interp="linr"  time="-9999999/1" value="1" leadInLength="0/1"  />
               <InterpolatingParam id="1532" interp="linr"  time="-9999999/1" value="1" leadInLength="0/1"  />
               <InterpolatingParam id="1533" interp="linr"  time="-9999999/1" value="1" leadInLength="0/1"  />
              </VectorParam>
              <VectorParam id="1534"  name="anchor">
               <InterpolatingParam id="1535" interp="linr"  time="0/1" value="0" leadInLength="0/1"  />
               <InterpolatingParam id="1536" interp="linr"  time="0/1" value="0" leadInLength="0/1"  />
               <InterpolatingParam id="1537" interp="linr"  time="0/1" value="0" leadInLength="0/1"  />
              </VectorParam>
             </Transformer>
             <Parameters>
              <VectorParam id="1538"  name="sourceCrop">
               <InterpolatingParam id="1539" interp="linr"  time="0/1" value="0" leadInLength="0/1"  />
               <InterpolatingParam id="1540" interp="linr"  time="0/1" value="0" leadInLength="0/1"  />
               <InterpolatingParam id="1541" interp="linr"  time="0/1" value="0" leadInLength="0/1"  />
               <InterpolatingParam id="1542" interp="linr"  time="0/1" value="0" leadInLength="0/1"  />
              </VectorParam>
              <VectorParam id="1543"  name="geometryCrop">
               <InterpolatingParam id="1544" interp="linr"  time="-9999999/1" value="0" leadInLength="0/1"  />
               <InterpolatingParam id="1545" interp="linr"  time="-9999999/1" value="0" leadInLength="0/1"  />
               <InterpolatingParam id="1546" interp="linr"  time="-9999999/1" value="0" leadInLength="0/1"  />
               <InterpolatingParam id="1547" interp="linr"  time="-9999999/1" value="0" leadInLength="0/1"  />
              </VectorParam>
              <InterpolatingParam id="1548" interp="linr"  time="-9999999/1" value="1" leadInLength="0/1"  name="opacity"/>
              <InterpolatingParam id="1549" interp="linr"  time="0/1" value="0" leadInLength="0/1"  name="cursorOpacity"/>
              <InterpolatingParam id="1550" interp="linr"  time="0/1" value="0" leadInLength="0/1"  name="cursorScale"/>
             </Parameters>
             <Attributes>
              <Attribute id="1551" value="" name="ident"/>
             </Attributes>
             <ExtraData>
              <Entry key="ZoomPanBin">
               <ZoomPanBin id="1552"  >
                <ZoomPanKeyframes>
                 <ZoomPanKeyframe id="1553" timeRangeEnd="-9999999/1" timeRangeDuration="0/1" interpolaterName=""  />
                </ZoomPanKeyframes>
               </ZoomPanBin>
              </Entry>
              <Entry key="CursorEffectBin">
               <CursorEffectBin id="1554"  >
                <CursorEffectKeyframes>
                </CursorEffectKeyframes>
               </CursorEffectBin>
              </Entry>
             </ExtraData>
            </ScreenVMFile>
            <MetaData>
             <entry key="AutoAppliedSmartFocus" val="False"/>
             <entry key="WinSubProjectDisplayName" val=""/>
            </MetaData>
           </UnifiedMedia>
          </Medias>
         </GenericTrack>
        </StitchedMedia>
        <StitchedMedia id="1555" start="20713" duration="1947" scalar="1/1" mediaStart="20713/1" mediaDuration="1947/1" minMediaStart="0/1" >
         <Transformer>
          <VectorParam id="1556"  name="translation">
           <InterpolatingParam id="1557" interp="linr"  >
            <Keyframes>
            <Keyframe id="1558"  time="-9999999/1" value="1.9455353801553988e-010" leadInLength="0/1"  interpolater="leadin-linr"  />
            <Keyframe id="1559"  time="20838/1" value="140.05586123694604" leadInLength="30/1"  interpolater="leadin-linr"  />
            <Keyframe id="1560"  time="22256/1" value="5.6843418860808015e-014" leadInLength="30/1"  interpolater="leadin-linr"  />
            </Keyframes>
           </InterpolatingParam>
           <InterpolatingParam id="1561" interp="linr"  >
            <Keyframes>
            <Keyframe id="1562"  time="-9999999/1" value="-13.625498007957773" leadInLength="0/1"  interpolater="leadin-linr"  />
            <Keyframe id="1563"  time="20838/1" value="-108.55415556993222" leadInLength="30/1"  interpolater="leadin-linr"  />
            <Keyframe id="1564"  time="22256/1" value="-11.294827867413096" leadInLength="30/1"  interpolater="leadin-linr"  />
            </Keyframes>
           </InterpolatingParam>
           <InterpolatingParam id="1565" interp="linr"  >
            <Keyframes>
            <Keyframe id="1566"  time="-9999999/1" value="0" leadInLength="0/1"  interpolater="leadin-linr"  />
            <Keyframe id="1567"  time="20838/1" value="0" leadInLength="30/1"  interpolater="leadin-linr"  />
            <Keyframe id="1568"  time="22256/1" value="0" leadInLength="30/1"  interpolater="leadin-linr"  />
            </Keyframes>
           </InterpolatingParam>
          </VectorParam>
          <VectorParam id="1569"  name="rotation">
           <InterpolatingParam id="1570" interp="linr"  >
            <Keyframes>
            <Keyframe id="1571"  time="-9999999/1" value="0" leadInLength="0/1"  interpolater="leadin-linr"  />
            <Keyframe id="1572"  time="20838/1" value="0" leadInLength="30/1"  interpolater="leadin-linr"  />
            <Keyframe id="1573"  time="22256/1" value="0" leadInLength="30/1"  interpolater="leadin-linr"  />
            </Keyframes>
           </InterpolatingParam>
           <InterpolatingParam id="1574" interp="linr"  >
            <Keyframes>
            <Keyframe id="1575"  time="-9999999/1" value="0" leadInLength="0/1"  interpolater="leadin-linr"  />
            <Keyframe id="1576"  time="20838/1" value="0" leadInLength="30/1"  interpolater="leadin-linr"  />
            <Keyframe id="1577"  time="22256/1" value="0" leadInLength="30/1"  interpolater="leadin-linr"  />
            </Keyframes>
           </InterpolatingParam>
           <InterpolatingParam id="1578" interp="linr"  >
            <Keyframes>
            <Keyframe id="1579"  time="-9999999/1" value="0" leadInLength="0/1"  interpolater="leadin-linr"  />
            <Keyframe id="1580"  time="20838/1" value="0" leadInLength="30/1"  interpolater="leadin-linr"  />
            <Keyframe id="1581"  time="22256/1" value="0" leadInLength="30/1"  interpolater="leadin-linr"  />
            </Keyframes>
           </InterpolatingParam>
          </VectorParam>
          <VectorParam id="1582"  name="shear">
           <InterpolatingParam id="1583" interp="linr"  >
            <Keyframes>
            <Keyframe id="1584"  time="-9999999/1" value="0" leadInLength="0/1"  interpolater="leadin-linr"  />
            <Keyframe id="1585"  time="20838/1" value="0" leadInLength="30/1"  interpolater="leadin-linr"  />
            <Keyframe id="1586"  time="22256/1" value="0" leadInLength="30/1"  interpolater="leadin-linr"  />
            </Keyframes>
           </InterpolatingParam>
           <InterpolatingParam id="1587" interp="linr"  >
            <Keyframes>
            <Keyframe id="1588"  time="-9999999/1" value="0" leadInLength="0/1"  interpolater="leadin-linr"  />
            <Keyframe id="1589"  time="20838/1" value="0" leadInLength="30/1"  interpolater="leadin-linr"  />
            <Keyframe id="1590"  time="22256/1" value="0" leadInLength="30/1"  interpolater="leadin-linr"  />
            </Keyframes>
           </InterpolatingParam>
           <InterpolatingParam id="1591" interp="linr"  >
            <Keyframes>
            <Keyframe id="1592"  time="-9999999/1" value="0" leadInLength="0/1"  interpolater="leadin-linr"  />
            <Keyframe id="1593"  time="20838/1" value="0" leadInLength="30/1"  interpolater="leadin-linr"  />
            <Keyframe id="1594"  time="22256/1" value="0" leadInLength="30/1"  interpolater="leadin-linr"  />
            </Keyframes>
           </InterpolatingParam>
          </VectorParam>
          <VectorParam id="1595"  name="scale">
           <InterpolatingParam id="1596" interp="linr"  >
            <Keyframes>
            <Keyframe id="1597"  time="-9999999/1" value="0.66666666666666663" leadInLength="0/1"  interpolater="leadin-linr"  />
            <Keyframe id="1598"  time="20838/1" value="0.8676923282413832" leadInLength="30/1"  interpolater="leadin-linr"  />
            <Keyframe id="1599"  time="22256/1" value="0.66666666666666663" leadInLength="30/1"  interpolater="leadin-linr"  />
            </Keyframes>
           </InterpolatingParam>
           <InterpolatingParam id="1600" interp="linr"  >
            <Keyframes>
            <Keyframe id="1601"  time="-9999999/1" value="0.66666666666666663" leadInLength="0/1"  interpolater="leadin-linr"  />
            <Keyframe id="1602"  time="20838/1" value="0.86769287754700286" leadInLength="30/1"  interpolater="leadin-linr"  />
            <Keyframe id="1603"  time="22256/1" value="0.66666708870998126" leadInLength="30/1"  interpolater="leadin-linr"  />
            </Keyframes>
           </InterpolatingParam>
           <InterpolatingParam id="1604" interp="linr"  >
            <Keyframes>
            <Keyframe id="1605"  time="-9999999/1" value="1" leadInLength="0/1"  interpolater="leadin-linr"  />
            <Keyframe id="1606"  time="20838/1" value="0.99999999999999944" leadInLength="30/1"  interpolater="leadin-linr"  />
            <Keyframe id="1607"  time="22256/1" value="0.99999999999999933" leadInLength="30/1"  interpolater="leadin-linr"  />
            </Keyframes>
           </InterpolatingParam>
          </VectorParam>
          <VectorParam id="1608"  name="anchor">
           <InterpolatingParam id="1609" interp="linr"  time="0/1" value="0" leadInLength="0/1"  />
           <InterpolatingParam id="1610" interp="linr"  time="0/1" value="0" leadInLength="0/1"  />
           <InterpolatingParam id="1611" interp="linr"  time="0/1" value="0" leadInLength="0/1"  />
          </VectorParam>
         </Transformer>
         <Parameters>
          <VectorParam id="1612"  name="sourceCrop">
           <InterpolatingParam id="1613" interp="linr"  time="0/1" value="0" leadInLength="0/1"  />
           <InterpolatingParam id="1614" interp="linr"  time="0/1" value="0" leadInLength="0/1"  />
           <InterpolatingParam id="1615" interp="linr"  time="0/1" value="0" leadInLength="0/1"  />
           <InterpolatingParam id="1616" interp="linr"  time="0/1" value="0" leadInLength="0/1"  />
          </VectorParam>
          <VectorParam id="1617"  name="geometryCrop">
           <InterpolatingParam id="1618" interp="linr"  >
            <Keyframes>
            <Keyframe id="1619"  time="-9999999/1" value="0" leadInLength="0/1"  interpolater="leadin-linr"  />
            <Keyframe id="1620"  time="20838/1" value="0" leadInLength="30/1"  interpolater="leadin-linr"  />
            <Keyframe id="1621"  time="22256/1" value="0" leadInLength="30/1"  interpolater="leadin-linr"  />
            </Keyframes>
           </InterpolatingParam>
           <InterpolatingParam id="1622" interp="linr"  >
            <Keyframes>
            <Keyframe id="1623"  time="-9999999/1" value="0" leadInLength="0/1"  interpolater="leadin-linr"  />
            <Keyframe id="1624"  time="20838/1" value="0" leadInLength="30/1"  interpolater="leadin-linr"  />
            <Keyframe id="1625"  time="22256/1" value="0" leadInLength="30/1"  interpolater="leadin-linr"  />
            </Keyframes>
           </InterpolatingParam>
           <InterpolatingParam id="1626" interp="linr"  >
            <Keyframes>
            <Keyframe id="1627"  time="-9999999/1" value="0" leadInLength="0/1"  interpolater="leadin-linr"  />
            <Keyframe id="1628"  time="20838/1" value="0" leadInLength="30/1"  interpolater="leadin-linr"  />
            <Keyframe id="1629"  time="22256/1" value="0" leadInLength="30/1"  interpolater="leadin-linr"  />
            </Keyframes>
           </InterpolatingParam>
           <InterpolatingParam id="1630" interp="linr"  >
            <Keyframes>
            <Keyframe id="1631"  time="-9999999/1" value="40.876494023748535" leadInLength="0/1"  interpolater="leadin-linr"  />
            <Keyframe id="1632"  time="20838/1" value="40.876494023748535" leadInLength="30/1"  interpolater="leadin-linr"  />
            <Keyframe id="1633"  time="22256/1" value="40.876494023748535" leadInLength="30/1"  interpolater="leadin-linr"  />
            </Keyframes>
           </InterpolatingParam>
          </VectorParam>
          <InterpolatingParam id="1634" interp="linr"  name="opacity">
           <Keyframes>
           <Keyframe id="1635"  time="-9999999/1" value="1" leadInLength="0/1"  interpolater="leadin-linr"  />
           <Keyframe id="1636"  time="20838/1" value="1" leadInLength="30/1"  interpolater="leadin-linr"  />
           <Keyframe id="1637"  time="22256/1" value="1" leadInLength="30/1"  interpolater="leadin-linr"  />
           </Keyframes>
          </InterpolatingParam>
          <InterpolatingParam id="1638" interp="linr"  time="0/1" value="1" leadInLength="0/1"  name="cursorOpacity"/>
          <InterpolatingParam id="1639" interp="linr"  time="0/1" value="1" leadInLength="0/1"  name="cursorScale"/>
          <InterpolatingParam id="1640" interp="linr"  time="0/1" value="1" leadInLength="0/1"  name="volume"/>
          <Parameter id="1641"  name="captions"/>
         </Parameters>
         <Effects>
          <GenericEffect id="1642" name = "CursorBaseEffectName" >
           <Parameters>
           <InterpolatingParam id="1643" interp="linr"  time="-9999999/1" value="1" leadInLength="0/1"   name="cursorSize"/>
           <InterpolatingParam id="1644" interp="linr"  time="-9999999/1" value="0" leadInLength="0/1"   name="highlightBlurRadius"/>
           <InterpolatingParam id="1645" interp="linr"  time="-9999999/1" value="0" leadInLength="0/1"   name="highlightColorBlue"/>
           <InterpolatingParam id="1646" interp="linr"  time="-9999999/1" value="255" leadInLength="0/1"   name="highlightColorGreen"/>
           <InterpolatingParam id="1647" interp="linr"  time="-9999999/1" value="255" leadInLength="0/1"   name="highlightColorRed"/>
           <InterpolatingParam id="1648" interp="linr"  time="-9999999/1" value="5" leadInLength="0/1"   name="highlightFeatherSize"/>
           <InterpolatingParam id="1649" interp="linr"  time="-9999999/1" value="2" leadInLength="0/1"   name="highlightMagnification"/>
           <InterpolatingParam id="1650" interp="linr"  time="-9999999/1" value="60" leadInLength="0/1"   name="highlightOpacity"/>
           <InterpolatingParam id="1651" interp="linr"  time="-9999999/1" value="45" leadInLength="0/1"   name="highlightSize"/>
           <Parameter id="1652"   name="highlightType">
            <Keyframes>
            <Keyframe id="1653"  time="-9999999/1" value="4" leadInLength="0/1"  />
            </Keyframes>
           </Parameter>
           <InterpolatingParam id="1654" interp="linr"  time="-9999999/1" value="0" leadInLength="0/1"   name="leftClickColorBlue"/>
           <InterpolatingParam id="1655" interp="linr"  time="-9999999/1" value="0" leadInLength="0/1"   name="leftClickColorGreen"/>
           <InterpolatingParam id="1656" interp="linr"  time="-9999999/1" value="255" leadInLength="0/1"   name="leftClickColorRed"/>
           <InterpolatingParam id="1657" interp="linr"  time="-9999999/1" value="0.80000000000000004" leadInLength="0/1"   name="leftClickDuration"/>
           <InterpolatingParam id="1658" interp="linr"  time="-9999999/1" value="20" leadInLength="0/1"   name="leftClickSize"/>
           <Parameter id="1659"   name="leftClickSoundFilename">
            <Keyframes>
            <Keyframe id="1660"  time="-9999999/1" value="" leadInLength="0/1"  />
            </Keyframes>
           </Parameter>
           <InterpolatingParam id="1661" interp="linr"  time="-9999999/1" value="1" leadInLength="0/1"   name="leftClickSoundVolume"/>
           <Parameter id="1662"   name="leftClickType">
            <Keyframes>
            <Keyframe id="1663"  time="-9999999/1" value="0" leadInLength="0/1"  />
            </Keyframes>
           </Parameter>
           <InterpolatingParam id="1664" interp="linr"  time="-9999999/1" value="1" leadInLength="0/1"   name="opacity"/>
           <InterpolatingParam id="1665" interp="linr"  time="-9999999/1" value="255" leadInLength="0/1"   name="rightClickColorBlue"/>
           <InterpolatingParam id="1666" interp="linr"  time="-9999999/1" value="0" leadInLength="0/1"   name="rightClickColorGreen"/>
           <InterpolatingParam id="1667" interp="linr"  time="-9999999/1" value="0" leadInLength="0/1"   name="rightClickColorRed"/>
           <InterpolatingParam id="1668" interp="linr"  time="-9999999/1" value="0.80000000000000004" leadInLength="0/1"   name="rightClickDuration"/>
           <InterpolatingParam id="1669" interp="linr"  time="-9999999/1" value="20" leadInLength="0/1"   name="rightClickSize"/>
           <Parameter id="1670"   name="rightClickSoundFilename">
            <Keyframes>
            <Keyframe id="1671"  time="-9999999/1" value="" leadInLength="0/1"  />
            </Keyframes>
           </Parameter>
           <InterpolatingParam id="1672" interp="linr"  time="-9999999/1" value="1" leadInLength="0/1"   name="rightClickSoundVolume"/>
           <Parameter id="1673"   name="rightClickType">
            <Keyframes>
            <Keyframe id="1674"  time="-9999999/1" value="0" leadInLength="0/1"  />
            </Keyframes>
           </Parameter>
           </Parameters>
           <MetaData>
            <entry key="effectIndex" val="0"/>
           </MetaData>
          </GenericEffect>
          <GenericEffect id="1675" name = "NoiseReduction" >
           <Parameters>
           <InterpolatingParam id="1676" interp="linr"  time="0/1" value="27.599999999999998" leadInLength="0/1"   name="denoiserAmount"/>
           <InterpolatingParam id="1677" interp="linr"  time="0/1" value="2.2799999999999994" leadInLength="0/1"   name="denoiserThreshold"/>
           <Parameter id="1678"   name="noiseProfile">
            <Keyframes>
            <Keyframe id="1679"  time="0/1" value="FBAAAAIAAABErAAAAQIAABajNsJh8CbCrT06whN/QsJI7k3CvTNPwvxqTsK3NFTCKm5ewrbUWsLS&#xD;&#xa;/1jC5g1bwvWmZMLptWzCyBJrwshFc8IPXHXCcJd6wtL3eMJ5d23C1H9uwg2cdMIHVnvCrVN+wuDV&#xD;&#xa;e8I9IH3Ch9R9whOHgMKPh4HCLWSDwltyg8LwY4TCOKWGwlzOiMJwUYfCcFeIwtQRisJP6IjC1amH&#xD;&#xa;wjN4hsK6aYbCTj6Lwsx/jsIxg5DCHG2PwlCtksIgTpTC2MKSwh+YlMLvp5TC7RSTwoa6l8IagJrC&#xD;&#xa;xnuXwn1Al8JIj5zCZDibwj/HnMIsdJ7C+l+ewhEHocJ4jqDCSJmdwrYIl8LhvpbC/AmdwhHnocLt&#xD;&#xa;g6DC9k+fwqBQnsL1XJ3CL3Kdwghwn8JRfqLC0i2iwvuuo8JLmZ7Com2cwnMsnsIdqqPCEI6mwq5K&#xD;&#xa;qMJsyqbCbqSmwpocqcKSEKrCsBeqwhhCqsIncanCemSpwg/GqsLlmajCdnamwj6LoMIu6KXCSmqr&#xD;&#xa;wlwprMLulK7CsW6vwhKDrcLL3a3CuyGuws5LrcLcEK/CAR+wwka8rsLKJK7CRw6vwhRjrMJnQKvC&#xD;&#xa;wPKqwhZbq8IzA6zCd8+twuDXrcIiKqvC5F6owtB9q8LfHq/CQzCxwsFursI5xKzCc1OtwtpusMJw&#xD;&#xa;Rq/CkYmvwr1Hr8K/hrHCesi1wgfls8I4pK7C3oawwuzasMI2e7DCDPGxwjIiscLbS6/CX/Gxwv6i&#xD;&#xa;sMKIuqzCK1itwul/rcKs0qvCAlqnwhFKqMJ7lavCIkOpwtEqp8L0/6bCEJSmwlJzpsIrPaTC4f6h&#xD;&#xa;wjuKosLkDp/CdF6dwmDXncK7GqLCQNyhwuIbncIh6Z3ChCuewnepnMJc8ZzC93qfwsmOpMJdKajC&#xD;&#xa;AcGowqC6qsKQjqzC/kiswkhFq8JoU6vCz6+rwuB0rcKP467CDrSswkoLrcIfdbDC5KyxwiWXrsL6&#xD;&#xa;1K7CY8Gxwja5tMJlhrPCqPOuwgccsMIl1bXCYFG0wl6QscIPhbHCW3azwuILs8J9KrTCXu6ywhOi&#xD;&#xa;s8JJlbHCnlixwuH4scJHkrTCWwq0wum/scKwPbPC6M2ywii9ssIMx7PCEtyywjGXs8ICxrTCWHGy&#xD;&#xa;wid8tsIsDbnCvDO2wnaHtcJuB7TCFt+zwkNRtsLAMrPCeDC0wlEhtcKXyrXC/mi2wiF4tcKWfrfC&#xD;&#xa;+rC6wlgzt8IuqLbCSYu4whjlucKESrrC4Ee3wioztsK1yLLCDGqzwqBUtMJaA7fCnLe5wjDgucJw&#xD;&#xa;x7jCCxG2wpR5s8I6qbTCct+0wmOMtMK06LXCTbWzwupYs8LKnrjCLHq8wh4/u8KljrnCSCO6wmr3&#xD;&#xa;ucIfULfCBmW2wm2nscJUTLPC3n+4wtghusIbMbrCBya6wvZ8uMJYkbjCcau5wtAkusLS6LfCzv+2&#xD;&#xa;wki4tsL3xbfCQBK2wkIctsI477nCXNq5wmJrucK2LLfC4am2wnuaucLCerbCzmmzwhO2s8LPT7bC&#xD;&#xa;yYu2wvaBt8I0+LbCRs21wjhOtsIseLnCkl63wvRRtsK0UbbCdCO2wh6Gt8IczLjCkLK3wqnXtsJQ&#xD;&#xa;d7vCiKG8wqL7u8LHt7nCB5O2wrwkt8Ky27TC8tCxwnjIucL4NrvCmsG6wq9HusKsBLjC4sy3woKy&#xD;&#xa;ucICa7vCss+6wt2kusIiaLvC5BG8wneUusJwk7zCPCq/wrCnu8JWL7nCTli5wnaIusIlRLzCvu25&#xD;&#xa;wjcouML3YbXCgMq3wjJNvcJq+7/Cj6i8wgDKvMKa5rvC7qm4wmJ/u8LG1L7CXK29wnggvMKwUbvC&#xD;&#xa;Eb24wsjKucKGc7jC7na4womDt8ImfrnCCum8wiX9u8K0TbnC8hu4wurjtcIFnbfCduK7wi4LvcJ6&#xD;&#xa;3b7CXNm+wvC1vMJcJr3CONC8wp0JvMJ6PLzCDHy8whvDusKhVLvChIO4wmOwtMJQDbrCJnC8wn4i&#xD;&#xa;vsJ0M8DCtSLAwjgRvcL6SLzColS7wlUOusJcULnClk+4wnDHvMJGs73CBAbAwqpQwcLeqL/CyL++&#xD;&#xa;wk5zv8IOw8HC6p3Awk+nu8LQIsDCljvIwuggx8LtLsPCIgK/wuB7wcKsXsXCBtLHwpGJxMJIycTC&#xD;&#xa;oMbJwpyNyMJ1jsPC2d/Fwj6yyMK2scvC5tLMwkuCz8LmUNPC+vrPwiQ5y8Kkw8nCl0bGwmLbxMI+&#xD;&#xa;VcPCzsvBwiPQxsLITc3C6ifMwugWzcKKPsvCxAvGwsR1wsJO78HCKyjGwm6Ux8Ke683CpRjKwjwJ&#xD;&#xa;ysIIzMXCc3y/wnl4wsJHK8bC5hDIwqF/ysJeysvCaMXLwmL2y8K5Jc3CWJjNwjXZzMJ/w8vCBMnQ&#xD;&#xa;wv9vz8Kt087CnlXMwlbByMLCQsrCDLvRwjSoz8IIm83C2CzKwkj/y8IPxdjCVlDrwq7M9sJmPvbC&#xD;&#xa;NFL2wsKL+MJKnvjCikD5wpbD+sJWg/rCEOz4wrZ398L+3/rChFn9wqK3+cJaavrCdwD3wjVh+MKO&#xD;&#xa;0/nCNoP6wnjx9sLfGvbCgLn3wjQs98JI4/fCukn4wlq++cLKFPjCuND3wkFL98L1SfbCJkP3wlho&#xD;&#xa;+8LU/frCBpv2whKX9sIKtfjCJnL5wuSp+sJou/nCASj4wpSe+MLGb/fCTYP1wiZU9sJ0wPjCIpf5&#xD;&#xa;wmzH+cLaifnCkif5wmYW+cI0dvnCRov5wp6S+sIYZPnC8Pb3worp+MLMifnCyIn2woYb9sLbR/jC&#xD;&#xa;UM74wjzP9sKnyffChXwDw4eiNsII8CbCyD06wkB/QsLO7U3CvDNPwpRqTsJVNFTCDW1ewu/TWsL6&#xD;&#xa;/1jCGw5bwgqoZMIStmzC1RBrwp5Dc8LNWnXCA5R6wqr3eMK3d23CC39uwhWadMKCVXvCXlR+wp7W&#xD;&#xa;e8JhH33CqNN9wm2HgMJIh4HCjGWDwu1yg8KEY4TC8KSGwq3NiMJUT4fCHFeIwjESisKa54jCcqqH&#xD;&#xa;wlN4hsImaobCbj2LwqCAjsLJgJDCqmuPwv6nksI9SpTClsOSwruelMJmqZTCMBSTwn21l8JUgJrC&#xD;&#xa;EnyXwqw/l8JsjZzCmTKbwjvBnMIYcp7C616ewggIocI4hqDCLJ2dwi4Wl8LUw5bCQw+dwtjrocKU&#xD;&#xa;iaDCHVSfwgdLnsKyWZ3CJHOdwrdwn8KWfKLCIi2iwsi5o8Jro57C3G2cwuwhnsJPoKPChYamwkpg&#xD;&#xa;qMJu9KbCT7OmwvInqcKIBKrC2x+qwm6NqsKzqanCAmWpwpbRqsJipKjC7o+mwpmMoMK97qXCmIKr&#xD;&#xa;wqpqrMLe9K7CfK2vwpaprcJx3q3CXz+uwmKVrcJioq/CJtSwwgw2r8JXaK7CsgWvwsmBrMLWaqvC&#xD;&#xa;vy2rwhujq8IGb6zCSvKtwlTrrcLPQKvCwKeowpMFrMIvw6/CfsOxwqjXrsIQ8azCr4CtwqdOsMKO&#xD;&#xa;gK/CJ6evwq4or8LYP7HCcHG1wiQwtMKk5K7CBniwwm1BscJ4KLHCiU6ywsibscLi46/Coj2ywiiN&#xD;&#xa;sMJRqqzCf3qtwmnprcIPJqzCoK6nwgCaqMLffqvCeD6pwk8tp8JrBqfCRp2mwgBmpsIWKaTCzfGh&#xD;&#xa;wrZ+osKhDZ/C0WCdwrTencKsGKLCh9OhwlcRncKo5Z3C0yaewtWtnML99ZzCkI2fwkKvpMJqN6jC&#xD;&#xa;KNOowpnWqsIZoazCWjyswu8xq8LTXqvCqOCrwmKYrcIb/K7CAAOtwlGfrcJGv7DCoZmxwiq/rsKW&#xD;&#xa;Oa/CFEeywqjmtMIQW7PC/Tuvwip7sMLY5rXCaEG0wnC3scLA67HCdWSzwr4ds8LOTLTCLBCzwvMS&#xD;&#xa;tMIiurHCTJOxwv8bssJg4rTC2VG0wquhscL5VLPCI2mzwuxBs8Ji4bPCwfSywrCds8K/xrTCr6uy&#xD;&#xa;wvKdtsIKTbnCc3+2wklBtcK1QrTC9lq0wv52tsKmoLPC7Am1wjrKtcKjArbCB9y2wkAKtsI13rfC&#xD;&#xa;Pg27wmRQt8JYwrbCRt64ws74ucK+xLrCiLG3wugFtsJacrLCNTyzwvxQtMJyE7fCuPG5wt46usJM&#xD;&#xa;PrnCLBe2wmSFs8KPsbTCkZC0wiE9tMLM6LXC4za0wqzFs8J43rjCir+8wjSUu8JWd7nCoBa6wqyP&#xD;&#xa;ucIc8LbCiCi2wlHescKqPbPCyCK4wi7DucJ4GLrCaoC6wo5pucI0RrnCbg26wiRausKGBrjCfEq3&#xD;&#xa;wh8Ut8K4QrjCyXy2wtyotsJ84bnC2Hu5wnQ7ucIEKrfC3My2wiXXucLPibbC6ouzwtkEtMKF37bC&#xD;&#xa;ZPK2wgnot8Jpg7fC6vu1wnl0tsLOrrnCJJ23wvSQtsIugrbCQTW2wjCFt8Ln37jC2Jq3wjTWtsJ9&#xD;&#xa;ZbvCZnS8wkLku8Ilr7nC7KS2wockt8JIubTCPsCxwtHHucJfObvCbbe6wjYWusJe2LfC7qi3wiGW&#xD;&#xa;ucKlObvCvq26wtqqusIyX7vC/vq7woWTusLtmbzCtVy/wjx/u8KgBrnC5ma5wgGnusIuQ7zCCvO5&#xD;&#xa;wjsfuMLCUbXCZMq3wldCvcLCBsDCU7a8wuzhvMLcIrzC6M64wnebu8JL2r7CjMK9wggUvMKm/7rC&#xD;&#xa;gZm4wsLFucLicrjCrmq4wjB5t8Jxk7nCMPC8wkb4u8LyZbnC0Sy4wqzotcI20rfClhC8wozwvMIs&#xD;&#xa;2L7C/Je+wga6vMK8FL3CUKy8wtECvMIQaLzCFJS8whKsusJUY7vCyoe4wq6ftMJvEbrCpVi8wugI&#xD;&#xa;vsIMKMDCdiTAwnkhvcJoI7zC+i67wmoYusKtJ7nC+iK4wn7YvMIwur3COATAwt1LwcLbc7/CRM2+&#xD;&#xa;whOZv8LkhcHCMI3AwrTOu8LCJMDCahvIwvg5x8IwVcPCgBm/wiqYwcK8hcXCWL3Hwrl8xMLMn8TC&#xD;&#xa;WiHKwoSfyMK2WMPCPMDFwjSAyMJciMvCKx7NwmcJ0MI6ItTCgBPQwmLxysK0jMnCtFfGwhC5xMK3&#xD;&#xa;JsPCpLjBwtydxsL4j83CYv3LwiYpzcJNpMvCojbGwsN6wsKA/sHCPDLGwgmbx8IwLc7CFs7Jwui4&#xD;&#xa;ycKElsXCZI6/wu+VwsLGKMbCnj7IwvSHysJAz8vCzGLLwjhCy8I6oszCFDrNwnZkzMIKZcvChpTQ&#xD;&#xa;wpq4z8L8Js/Cp47MwirRyMIcN8rCsKfRwjp1z8K4Ns3C+hjKwppOzMK0mNjCyqTqwtcF9sKuMPrC&#xD;&#xa;Bgv5wsJ6+MJ4j/fCuCz0wkM59MKmMPbCzkn2wjyj9sJYAvnCvrD5wtI4+sKUE/zCQHn7wrop+8IS&#xD;&#xa;7vnC0Yr3wm549cIoyPfC1GP3wl289cJ43fXCPPD0woig9cKuVvnCxEP4wtgo+MLM0vfCwGL4wj7G&#xD;&#xa;+MKYhfzCAmX6wsLH+MIGJ/TCGNTywozq9sI00/jC3lD7wj4E+cIIifnCcs/6wqYb+MJwmffCSG/4&#xD;&#xa;wvzb+MJwjfbC/lb3wiZp98KwcPnCooj3wtrI98LUjvrCqO34wjag9sLYGvfC+Tn4wq3698KUo/fC&#xD;&#xa;exX3wppS+MI05PjCK4sC" leadInLength="0/1"  />
            </Keyframes>
           </Parameter>
           </Parameters>
           <MetaData>
            <entry key="effectIndex" val="1"/>
           </MetaData>
          </GenericEffect>
         </Effects>
         <Attributes>
          <Attribute id="1680" value="" name="ident"/>
          <Attribute id="1681" value="0" name="mixToMono"/>
         </Attributes>
         <MetaData>
          <entry key="AutoAppliedSmartFocus" val="False"/>
          <entry key="WinSubProjectDisplayName" val=""/>
         </MetaData>
         <ExtraData>
          <Entry key="ZoomPanBin">
           <ZoomPanBin id="1682"  >
            <ZoomPanKeyframes>
             <ZoomPanKeyframe id="1683" timeRangeEnd="-9999999/1" timeRangeDuration="0/1" interpolaterName="linr"  />
             <ZoomPanKeyframe id="1684" timeRangeEnd="20838/1" timeRangeDuration="30/1" interpolaterName="linr"  />
             <ZoomPanKeyframe id="1685" timeRangeEnd="22256/1" timeRangeDuration="30/1" interpolaterName="linr"  />
            </ZoomPanKeyframes>
           </ZoomPanBin>
          </Entry>
          <Entry key="CursorEffectBin">
           <CursorEffectBin id="1686"  >
            <CursorEffectKeyframes>
             <CursorEffectKeyframe id="1687" timeRangeEnd="-9999999/1" timeRangeDuration="0/1" interpolaterName=""  />
            </CursorEffectKeyframes>
           </CursorEffectBin>
          </Entry>
         </ExtraData>
         <GenericTrack id="1688"  >
          <Attributes>
           <Attribute id="1689" value="" name="ident"/>
           <Attribute id="1690" value="0" name="audioMuted"/>
           <Attribute id="1691" value="0" name="videoHidden"/>
          </Attributes>
          <MetaData>
           <entry key="IsLocked" val="False"/>
           <entry key="WinTrackHeight" val="0"/>
          </MetaData>
          <Medias>
           <UnifiedMedia id="1692"  >
            <AMFile id="1693" start="0" duration="635" scalar="1/1" mediaStart="0/1" mediaDuration="635/1" trackNumber="1" src="4" channelNumber="0,1" >
             <Parameters>
              <InterpolatingParam id="1694" interp="linr"  time="0/1" value="1" leadInLength="0/1"  name="volume"/>
              <Parameter id="1695"  name="captions"/>
             </Parameters>
             <Attributes>
              <Attribute id="1696" value="" name="ident"/>
              <Attribute id="1697" value="44100" name="sampleRate"/>
              <Attribute id="1698" value="16" name="bitDepth"/>
              <Attribute id="1699" value="1" name="gain"/>
              <Attribute id="1700" value="0" name="mixToMono"/>
             </Attributes>
            </AMFile>
            <ScreenVMFile id="1701" start="0" duration="635" scalar="1/1" mediaStart="0/1" mediaDuration="635/1" trackNumber="0" src="4" >
             <Transformer>
              <VectorParam id="1702"  name="translation">
               <InterpolatingParam id="1703" interp="linr"  time="-9999999/1" value="0" leadInLength="0/1"  />
               <InterpolatingParam id="1704" interp="linr"  time="-9999999/1" value="0" leadInLength="0/1"  />
               <InterpolatingParam id="1705" interp="linr"  time="-9999999/1" value="0" leadInLength="0/1"  />
              </VectorParam>
              <VectorParam id="1706"  name="rotation">
               <InterpolatingParam id="1707" interp="linr"  time="-9999999/1" value="0" leadInLength="0/1"  />
               <InterpolatingParam id="1708" interp="linr"  time="-9999999/1" value="0" leadInLength="0/1"  />
               <InterpolatingParam id="1709" interp="linr"  time="-9999999/1" value="0" leadInLength="0/1"  />
              </VectorParam>
              <VectorParam id="1710"  name="shear">
               <InterpolatingParam id="1711" interp="linr"  time="-9999999/1" value="0" leadInLength="0/1"  />
               <InterpolatingParam id="1712" interp="linr"  time="-9999999/1" value="0" leadInLength="0/1"  />
               <InterpolatingParam id="1713" interp="linr"  time="-9999999/1" value="0" leadInLength="0/1"  />
              </VectorParam>
              <VectorParam id="1714"  name="scale">
               <InterpolatingParam id="1715" interp="linr"  time="-9999999/1" value="1" leadInLength="0/1"  />
               <InterpolatingParam id="1716" interp="linr"  time="-9999999/1" value="1" leadInLength="0/1"  />
               <InterpolatingParam id="1717" interp="linr"  time="-9999999/1" value="1" leadInLength="0/1"  />
              </VectorParam>
              <VectorParam id="1718"  name="anchor">
               <InterpolatingParam id="1719" interp="linr"  time="0/1" value="0" leadInLength="0/1"  />
               <InterpolatingParam id="1720" interp="linr"  time="0/1" value="0" leadInLength="0/1"  />
               <InterpolatingParam id="1721" interp="linr"  time="0/1" value="0" leadInLength="0/1"  />
              </VectorParam>
             </Transformer>
             <Parameters>
              <VectorParam id="1722"  name="sourceCrop">
               <InterpolatingParam id="1723" interp="linr"  time="0/1" value="0" leadInLength="0/1"  />
               <InterpolatingParam id="1724" interp="linr"  time="0/1" value="0" leadInLength="0/1"  />
               <InterpolatingParam id="1725" interp="linr"  time="0/1" value="0" leadInLength="0/1"  />
               <InterpolatingParam id="1726" interp="linr"  time="0/1" value="0" leadInLength="0/1"  />
              </VectorParam>
              <VectorParam id="1727"  name="geometryCrop">
               <InterpolatingParam id="1728" interp="linr"  time="-9999999/1" value="0" leadInLength="0/1"  />
               <InterpolatingParam id="1729" interp="linr"  time="-9999999/1" value="0" leadInLength="0/1"  />
               <InterpolatingParam id="1730" interp="linr"  time="-9999999/1" value="0" leadInLength="0/1"  />
               <InterpolatingParam id="1731" interp="linr"  time="-9999999/1" value="0" leadInLength="0/1"  />
              </VectorParam>
              <InterpolatingParam id="1732" interp="linr"  time="-9999999/1" value="1" leadInLength="0/1"  name="opacity"/>
              <InterpolatingParam id="1733" interp="linr"  time="0/1" value="0" leadInLength="0/1"  name="cursorOpacity"/>
              <InterpolatingParam id="1734" interp="linr"  time="0/1" value="0" leadInLength="0/1"  name="cursorScale"/>
             </Parameters>
             <Attributes>
              <Attribute id="1735" value="" name="ident"/>
             </Attributes>
             <ExtraData>
              <Entry key="ZoomPanBin">
               <ZoomPanBin id="1736"  >
                <ZoomPanKeyframes>
                 <ZoomPanKeyframe id="1737" timeRangeEnd="-9999999/1" timeRangeDuration="0/1" interpolaterName=""  />
                </ZoomPanKeyframes>
               </ZoomPanBin>
              </Entry>
              <Entry key="CursorEffectBin">
               <CursorEffectBin id="1738"  >
                <CursorEffectKeyframes>
                </CursorEffectKeyframes>
               </CursorEffectBin>
              </Entry>
             </ExtraData>
            </ScreenVMFile>
            <MetaData>
             <entry key="AutoAppliedSmartFocus" val="False"/>
             <entry key="WinSubProjectDisplayName" val=""/>
            </MetaData>
           </UnifiedMedia>
           <UnifiedMedia id="1739"  >
            <AMFile id="1740" start="635" duration="715" scalar="1/1" mediaStart="657/1" mediaDuration="715/1" trackNumber="1" src="4" channelNumber="0,1" >
             <Parameters>
              <InterpolatingParam id="1741" interp="linr"  time="0/1" value="1" leadInLength="0/1"  name="volume"/>
              <Parameter id="1742"  name="captions"/>
             </Parameters>
             <Attributes>
              <Attribute id="1743" value="" name="ident"/>
              <Attribute id="1744" value="44100" name="sampleRate"/>
              <Attribute id="1745" value="16" name="bitDepth"/>
              <Attribute id="1746" value="1" name="gain"/>
              <Attribute id="1747" value="0" name="mixToMono"/>
             </Attributes>
            </AMFile>
            <ScreenVMFile id="1748" start="635" duration="715" scalar="1/1" mediaStart="657/1" mediaDuration="715/1" trackNumber="0" src="4" >
             <Transformer>
              <VectorParam id="1749"  name="translation">
               <InterpolatingParam id="1750" interp="linr"  time="-9999999/1" value="0" leadInLength="0/1"  />
               <InterpolatingParam id="1751" interp="linr"  time="-9999999/1" value="0" leadInLength="0/1"  />
               <InterpolatingParam id="1752" interp="linr"  time="-9999999/1" value="0" leadInLength="0/1"  />
              </VectorParam>
              <VectorParam id="1753"  name="rotation">
               <InterpolatingParam id="1754" interp="linr"  time="-9999999/1" value="0" leadInLength="0/1"  />
               <InterpolatingParam id="1755" interp="linr"  time="-9999999/1" value="0" leadInLength="0/1"  />
               <InterpolatingParam id="1756" interp="linr"  time="-9999999/1" value="0" leadInLength="0/1"  />
              </VectorParam>
              <VectorParam id="1757"  name="shear">
               <InterpolatingParam id="1758" interp="linr"  time="-9999999/1" value="0" leadInLength="0/1"  />
               <InterpolatingParam id="1759" interp="linr"  time="-9999999/1" value="0" leadInLength="0/1"  />
               <InterpolatingParam id="1760" interp="linr"  time="-9999999/1" value="0" leadInLength="0/1"  />
              </VectorParam>
              <VectorParam id="1761"  name="scale">
               <InterpolatingParam id="1762" interp="linr"  time="-9999999/1" value="1" leadInLength="0/1"  />
               <InterpolatingParam id="1763" interp="linr"  time="-9999999/1" value="1" leadInLength="0/1"  />
               <InterpolatingParam id="1764" interp="linr"  time="-9999999/1" value="1" leadInLength="0/1"  />
              </VectorParam>
              <VectorParam id="1765"  name="anchor">
               <InterpolatingParam id="1766" interp="linr"  time="0/1" value="0" leadInLength="0/1"  />
               <InterpolatingParam id="1767" interp="linr"  time="0/1" value="0" leadInLength="0/1"  />
               <InterpolatingParam id="1768" interp="linr"  time="0/1" value="0" leadInLength="0/1"  />
              </VectorParam>
             </Transformer>
             <Parameters>
              <VectorParam id="1769"  name="sourceCrop">
               <InterpolatingParam id="1770" interp="linr"  time="0/1" value="0" leadInLength="0/1"  />
               <InterpolatingParam id="1771" interp="linr"  time="0/1" value="0" leadInLength="0/1"  />
               <InterpolatingParam id="1772" interp="linr"  time="0/1" value="0" leadInLength="0/1"  />
               <InterpolatingParam id="1773" interp="linr"  time="0/1" value="0" leadInLength="0/1"  />
              </VectorParam>
              <VectorParam id="1774"  name="geometryCrop">
               <InterpolatingParam id="1775" interp="linr"  time="-9999999/1" value="0" leadInLength="0/1"  />
               <InterpolatingParam id="1776" interp="linr"  time="-9999999/1" value="0" leadInLength="0/1"  />
               <InterpolatingParam id="1777" interp="linr"  time="-9999999/1" value="0" leadInLength="0/1"  />
               <InterpolatingParam id="1778" interp="linr"  time="-9999999/1" value="0" leadInLength="0/1"  />
              </VectorParam>
              <InterpolatingParam id="1779" interp="linr"  time="-9999999/1" value="1" leadInLength="0/1"  name="opacity"/>
              <InterpolatingParam id="1780" interp="linr"  time="0/1" value="0" leadInLength="0/1"  name="cursorOpacity"/>
              <InterpolatingParam id="1781" interp="linr"  time="0/1" value="0" leadInLength="0/1"  name="cursorScale"/>
             </Parameters>
             <Attributes>
              <Attribute id="1782" value="" name="ident"/>
             </Attributes>
             <ExtraData>
              <Entry key="ZoomPanBin">
               <ZoomPanBin id="1783"  >
                <ZoomPanKeyframes>
                 <ZoomPanKeyframe id="1784" timeRangeEnd="-9999999/1" timeRangeDuration="0/1" interpolaterName=""  />
                </ZoomPanKeyframes>
               </ZoomPanBin>
              </Entry>
              <Entry key="CursorEffectBin">
               <CursorEffectBin id="1785"  >
                <CursorEffectKeyframes>
                </CursorEffectKeyframes>
               </CursorEffectBin>
              </Entry>
             </ExtraData>
            </ScreenVMFile>
            <MetaData>
             <entry key="AutoAppliedSmartFocus" val="False"/>
             <entry key="WinSubProjectDisplayName" val=""/>
            </MetaData>
           </UnifiedMedia>
           <UnifiedMedia id="1786"  >
            <AMFile id="1787" start="1350" duration="120" scalar="1/1" mediaStart="1390/1" mediaDuration="120/1" trackNumber="1" src="4" channelNumber="0,1" >
             <Parameters>
              <InterpolatingParam id="1788" interp="linr"  time="0/1" value="1" leadInLength="0/1"  name="volume"/>
              <Parameter id="1789"  name="captions"/>
             </Parameters>
             <Attributes>
              <Attribute id="1790" value="" name="ident"/>
              <Attribute id="1791" value="44100" name="sampleRate"/>
              <Attribute id="1792" value="16" name="bitDepth"/>
              <Attribute id="1793" value="1" name="gain"/>
              <Attribute id="1794" value="0" name="mixToMono"/>
             </Attributes>
            </AMFile>
            <ScreenVMFile id="1795" start="1350" duration="120" scalar="1/1" mediaStart="1390/1" mediaDuration="120/1" trackNumber="0" src="4" >
             <Transformer>
              <VectorParam id="1796"  name="translation">
               <InterpolatingParam id="1797" interp="linr"  time="-9999999/1" value="0" leadInLength="0/1"  />
               <InterpolatingParam id="1798" interp="linr"  time="-9999999/1" value="0" leadInLength="0/1"  />
               <InterpolatingParam id="1799" interp="linr"  time="-9999999/1" value="0" leadInLength="0/1"  />
              </VectorParam>
              <VectorParam id="1800"  name="rotation">
               <InterpolatingParam id="1801" interp="linr"  time="-9999999/1" value="0" leadInLength="0/1"  />
               <InterpolatingParam id="1802" interp="linr"  time="-9999999/1" value="0" leadInLength="0/1"  />
               <InterpolatingParam id="1803" interp="linr"  time="-9999999/1" value="0" leadInLength="0/1"  />
              </VectorParam>
              <VectorParam id="1804"  name="shear">
               <InterpolatingParam id="1805" interp="linr"  time="-9999999/1" value="0" leadInLength="0/1"  />
               <InterpolatingParam id="1806" interp="linr"  time="-9999999/1" value="0" leadInLength="0/1"  />
               <InterpolatingParam id="1807" interp="linr"  time="-9999999/1" value="0" leadInLength="0/1"  />
              </VectorParam>
              <VectorParam id="1808"  name="scale">
               <InterpolatingParam id="1809" interp="linr"  time="-9999999/1" value="1" leadInLength="0/1"  />
               <InterpolatingParam id="1810" interp="linr"  time="-9999999/1" value="1" leadInLength="0/1"  />
               <InterpolatingParam id="1811" interp="linr"  time="-9999999/1" value="1" leadInLength="0/1"  />
              </VectorParam>
              <VectorParam id="1812"  name="anchor">
               <InterpolatingParam id="1813" interp="linr"  time="0/1" value="0" leadInLength="0/1"  />
               <InterpolatingParam id="1814" interp="linr"  time="0/1" value="0" leadInLength="0/1"  />
               <InterpolatingParam id="1815" interp="linr"  time="0/1" value="0" leadInLength="0/1"  />
              </VectorParam>
             </Transformer>
             <Parameters>
              <VectorParam id="1816"  name="sourceCrop">
               <InterpolatingParam id="1817" interp="linr"  time="0/1" value="0" leadInLength="0/1"  />
               <InterpolatingParam id="1818" interp="linr"  time="0/1" value="0" leadInLength="0/1"  />
               <InterpolatingParam id="1819" interp="linr"  time="0/1" value="0" leadInLength="0/1"  />
               <InterpolatingParam id="1820" interp="linr"  time="0/1" value="0" leadInLength="0/1"  />
              </VectorParam>
              <VectorParam id="1821"  name="geometryCrop">
               <InterpolatingParam id="1822" interp="linr"  time="-9999999/1" value="0" leadInLength="0/1"  />
               <InterpolatingParam id="1823" interp="linr"  time="-9999999/1" value="0" leadInLength="0/1"  />
               <InterpolatingParam id="1824" interp="linr"  time="-9999999/1" value="0" leadInLength="0/1"  />
               <InterpolatingParam id="1825" interp="linr"  time="-9999999/1" value="0" leadInLength="0/1"  />
              </VectorParam>
              <InterpolatingParam id="1826" interp="linr"  time="-9999999/1" value="1" leadInLength="0/1"  name="opacity"/>
              <InterpolatingParam id="1827" interp="linr"  time="0/1" value="0" leadInLength="0/1"  name="cursorOpacity"/>
              <InterpolatingParam id="1828" interp="linr"  time="0/1" value="0" leadInLength="0/1"  name="cursorScale"/>
             </Parameters>
             <Attributes>
              <Attribute id="1829" value="" name="ident"/>
             </Attributes>
             <ExtraData>
              <Entry key="ZoomPanBin">
               <ZoomPanBin id="1830"  >
                <ZoomPanKeyframes>
                 <ZoomPanKeyframe id="1831" timeRangeEnd="-9999999/1" timeRangeDuration="0/1" interpolaterName=""  />
                </ZoomPanKeyframes>
               </ZoomPanBin>
              </Entry>
              <Entry key="CursorEffectBin">
               <CursorEffectBin id="1832"  >
                <CursorEffectKeyframes>
                </CursorEffectKeyframes>
               </CursorEffectBin>
              </Entry>
             </ExtraData>
            </ScreenVMFile>
            <MetaData>
             <entry key="AutoAppliedSmartFocus" val="False"/>
             <entry key="WinSubProjectDisplayName" val=""/>
            </MetaData>
           </UnifiedMedia>
           <UnifiedMedia id="1833"  >
            <AMFile id="1834" start="1470" duration="2" scalar="1/1" mediaStart="1550/1" mediaDuration="2/1" trackNumber="1" src="4" channelNumber="0,1" >
             <Parameters>
              <InterpolatingParam id="1835" interp="linr"  time="0/1" value="1" leadInLength="0/1"  name="volume"/>
              <Parameter id="1836"  name="captions"/>
             </Parameters>
             <Attributes>
              <Attribute id="1837" value="" name="ident"/>
              <Attribute id="1838" value="44100" name="sampleRate"/>
              <Attribute id="1839" value="16" name="bitDepth"/>
              <Attribute id="1840" value="1" name="gain"/>
              <Attribute id="1841" value="0" name="mixToMono"/>
             </Attributes>
            </AMFile>
            <ScreenVMFile id="1842" start="1470" duration="2" scalar="1/1" mediaStart="1550/1" mediaDuration="2/1" trackNumber="0" src="4" >
             <Transformer>
              <VectorParam id="1843"  name="translation">
               <InterpolatingParam id="1844" interp="linr"  time="-9999999/1" value="0" leadInLength="0/1"  />
               <InterpolatingParam id="1845" interp="linr"  time="-9999999/1" value="0" leadInLength="0/1"  />
               <InterpolatingParam id="1846" interp="linr"  time="-9999999/1" value="0" leadInLength="0/1"  />
              </VectorParam>
              <VectorParam id="1847"  name="rotation">
               <InterpolatingParam id="1848" interp="linr"  time="-9999999/1" value="0" leadInLength="0/1"  />
               <InterpolatingParam id="1849" interp="linr"  time="-9999999/1" value="0" leadInLength="0/1"  />
               <InterpolatingParam id="1850" interp="linr"  time="-9999999/1" value="0" leadInLength="0/1"  />
              </VectorParam>
              <VectorParam id="1851"  name="shear">
               <InterpolatingParam id="1852" interp="linr"  time="-9999999/1" value="0" leadInLength="0/1"  />
               <InterpolatingParam id="1853" interp="linr"  time="-9999999/1" value="0" leadInLength="0/1"  />
               <InterpolatingParam id="1854" interp="linr"  time="-9999999/1" value="0" leadInLength="0/1"  />
              </VectorParam>
              <VectorParam id="1855"  name="scale">
               <InterpolatingParam id="1856" interp="linr"  time="-9999999/1" value="1" leadInLength="0/1"  />
               <InterpolatingParam id="1857" interp="linr"  time="-9999999/1" value="1" leadInLength="0/1"  />
               <InterpolatingParam id="1858" interp="linr"  time="-9999999/1" value="1" leadInLength="0/1"  />
              </VectorParam>
              <VectorParam id="1859"  name="anchor">
               <InterpolatingParam id="1860" interp="linr"  time="0/1" value="0" leadInLength="0/1"  />
               <InterpolatingParam id="1861" interp="linr"  time="0/1" value="0" leadInLength="0/1"  />
               <InterpolatingParam id="1862" interp="linr"  time="0/1" value="0" leadInLength="0/1"  />
              </VectorParam>
             </Transformer>
             <Parameters>
              <VectorParam id="1863"  name="sourceCrop">
               <InterpolatingParam id="1864" interp="linr"  time="0/1" value="0" leadInLength="0/1"  />
               <InterpolatingParam id="1865" interp="linr"  time="0/1" value="0" leadInLength="0/1"  />
               <InterpolatingParam id="1866" interp="linr"  time="0/1" value="0" leadInLength="0/1"  />
               <InterpolatingParam id="1867" interp="linr"  time="0/1" value="0" leadInLength="0/1"  />
              </VectorParam>
              <VectorParam id="1868"  name="geometryCrop">
               <InterpolatingParam id="1869" interp="linr"  time="-9999999/1" value="0" leadInLength="0/1"  />
               <InterpolatingParam id="1870" interp="linr"  time="-9999999/1" value="0" leadInLength="0/1"  />
               <InterpolatingParam id="1871" interp="linr"  time="-9999999/1" value="0" leadInLength="0/1"  />
               <InterpolatingParam id="1872" interp="linr"  time="-9999999/1" value="0" leadInLength="0/1"  />
              </VectorParam>
              <InterpolatingParam id="1873" interp="linr"  time="-9999999/1" value="1" leadInLength="0/1"  name="opacity"/>
              <InterpolatingParam id="1874" interp="linr"  time="0/1" value="0" leadInLength="0/1"  name="cursorOpacity"/>
              <InterpolatingParam id="1875" interp="linr"  time="0/1" value="0" leadInLength="0/1"  name="cursorScale"/>
             </Parameters>
             <Attributes>
              <Attribute id="1876" value="" name="ident"/>
             </Attributes>
             <ExtraData>
              <Entry key="ZoomPanBin">
               <ZoomPanBin id="1877"  >
                <ZoomPanKeyframes>
                 <ZoomPanKeyframe id="1878" timeRangeEnd="-9999999/1" timeRangeDuration="0/1" interpolaterName=""  />
                </ZoomPanKeyframes>
               </ZoomPanBin>
              </Entry>
              <Entry key="CursorEffectBin">
               <CursorEffectBin id="1879"  >
                <CursorEffectKeyframes>
                </CursorEffectKeyframes>
               </CursorEffectBin>
              </Entry>
             </ExtraData>
            </ScreenVMFile>
            <MetaData>
             <entry key="AutoAppliedSmartFocus" val="False"/>
             <entry key="WinSubProjectDisplayName" val=""/>
            </MetaData>
           </UnifiedMedia>
           <UnifiedMedia id="1880"  >
            <AMFile id="1881" start="1472" duration="74" scalar="1/1" mediaStart="1879/1" mediaDuration="74/1" trackNumber="1" src="4" channelNumber="0,1" >
             <Parameters>
              <InterpolatingParam id="1882" interp="linr"  time="0/1" value="1" leadInLength="0/1"  name="volume"/>
              <Parameter id="1883"  name="captions"/>
             </Parameters>
             <Attributes>
              <Attribute id="1884" value="" name="ident"/>
              <Attribute id="1885" value="44100" name="sampleRate"/>
              <Attribute id="1886" value="16" name="bitDepth"/>
              <Attribute id="1887" value="1" name="gain"/>
              <Attribute id="1888" value="0" name="mixToMono"/>
             </Attributes>
            </AMFile>
            <ScreenVMFile id="1889" start="1472" duration="74" scalar="1/1" mediaStart="1879/1" mediaDuration="74/1" trackNumber="0" src="4" >
             <Transformer>
              <VectorParam id="1890"  name="translation">
               <InterpolatingParam id="1891" interp="linr"  time="-9999999/1" value="0" leadInLength="0/1"  />
               <InterpolatingParam id="1892" interp="linr"  time="-9999999/1" value="0" leadInLength="0/1"  />
               <InterpolatingParam id="1893" interp="linr"  time="-9999999/1" value="0" leadInLength="0/1"  />
              </VectorParam>
              <VectorParam id="1894"  name="rotation">
               <InterpolatingParam id="1895" interp="linr"  time="-9999999/1" value="0" leadInLength="0/1"  />
               <InterpolatingParam id="1896" interp="linr"  time="-9999999/1" value="0" leadInLength="0/1"  />
               <InterpolatingParam id="1897" interp="linr"  time="-9999999/1" value="0" leadInLength="0/1"  />
              </VectorParam>
              <VectorParam id="1898"  name="shear">
               <InterpolatingParam id="1899" interp="linr"  time="-9999999/1" value="0" leadInLength="0/1"  />
               <InterpolatingParam id="1900" interp="linr"  time="-9999999/1" value="0" leadInLength="0/1"  />
               <InterpolatingParam id="1901" interp="linr"  time="-9999999/1" value="0" leadInLength="0/1"  />
              </VectorParam>
              <VectorParam id="1902"  name="scale">
               <InterpolatingParam id="1903" interp="linr"  time="-9999999/1" value="1" leadInLength="0/1"  />
               <InterpolatingParam id="1904" interp="linr"  time="-9999999/1" value="1" leadInLength="0/1"  />
               <InterpolatingParam id="1905" interp="linr"  time="-9999999/1" value="1" leadInLength="0/1"  />
              </VectorParam>
              <VectorParam id="1906"  name="anchor">
               <InterpolatingParam id="1907" interp="linr"  time="0/1" value="0" leadInLength="0/1"  />
               <InterpolatingParam id="1908" interp="linr"  time="0/1" value="0" leadInLength="0/1"  />
               <InterpolatingParam id="1909" interp="linr"  time="0/1" value="0" leadInLength="0/1"  />
              </VectorParam>
             </Transformer>
             <Parameters>
              <VectorParam id="1910"  name="sourceCrop">
               <InterpolatingParam id="1911" interp="linr"  time="0/1" value="0" leadInLength="0/1"  />
               <InterpolatingParam id="1912" interp="linr"  time="0/1" value="0" leadInLength="0/1"  />
               <InterpolatingParam id="1913" interp="linr"  time="0/1" value="0" leadInLength="0/1"  />
               <InterpolatingParam id="1914" interp="linr"  time="0/1" value="0" leadInLength="0/1"  />
              </VectorParam>
              <VectorParam id="1915"  name="geometryCrop">
               <InterpolatingParam id="1916" interp="linr"  time="-9999999/1" value="0" leadInLength="0/1"  />
               <InterpolatingParam id="1917" interp="linr"  time="-9999999/1" value="0" leadInLength="0/1"  />
               <InterpolatingParam id="1918" interp="linr"  time="-9999999/1" value="0" leadInLength="0/1"  />
               <InterpolatingParam id="1919" interp="linr"  time="-9999999/1" value="0" leadInLength="0/1"  />
              </VectorParam>
              <InterpolatingParam id="1920" interp="linr"  time="-9999999/1" value="1" leadInLength="0/1"  name="opacity"/>
              <InterpolatingParam id="1921" interp="linr"  time="0/1" value="0" leadInLength="0/1"  name="cursorOpacity"/>
              <InterpolatingParam id="1922" interp="linr"  time="0/1" value="0" leadInLength="0/1"  name="cursorScale"/>
             </Parameters>
             <Attributes>
              <Attribute id="1923" value="" name="ident"/>
             </Attributes>
             <ExtraData>
              <Entry key="ZoomPanBin">
               <ZoomPanBin id="1924"  >
                <ZoomPanKeyframes>
                 <ZoomPanKeyframe id="1925" timeRangeEnd="-9999999/1" timeRangeDuration="0/1" interpolaterName=""  />
                </ZoomPanKeyframes>
               </ZoomPanBin>
              </Entry>
              <Entry key="CursorEffectBin">
               <CursorEffectBin id="1926"  >
                <CursorEffectKeyframes>
                </CursorEffectKeyframes>
               </CursorEffectBin>
              </Entry>
             </ExtraData>
            </ScreenVMFile>
            <MetaData>
             <entry key="AutoAppliedSmartFocus" val="False"/>
             <entry key="WinSubProjectDisplayName" val=""/>
            </MetaData>
           </UnifiedMedia>
           <UnifiedMedia id="1927"  >
            <AMFile id="1928" start="1546" duration="122" scalar="1/1" mediaStart="1960/1" mediaDuration="122/1" trackNumber="1" src="4" channelNumber="0,1" >
             <Parameters>
              <InterpolatingParam id="1929" interp="linr"  time="0/1" value="1" leadInLength="0/1"  name="volume"/>
              <Parameter id="1930"  name="captions"/>
             </Parameters>
             <Attributes>
              <Attribute id="1931" value="" name="ident"/>
              <Attribute id="1932" value="44100" name="sampleRate"/>
              <Attribute id="1933" value="16" name="bitDepth"/>
              <Attribute id="1934" value="1" name="gain"/>
              <Attribute id="1935" value="0" name="mixToMono"/>
             </Attributes>
            </AMFile>
            <ScreenVMFile id="1936" start="1546" duration="122" scalar="1/1" mediaStart="1960/1" mediaDuration="122/1" trackNumber="0" src="4" >
             <Transformer>
              <VectorParam id="1937"  name="translation">
               <InterpolatingParam id="1938" interp="linr"  time="-9999999/1" value="0" leadInLength="0/1"  />
               <InterpolatingParam id="1939" interp="linr"  time="-9999999/1" value="0" leadInLength="0/1"  />
               <InterpolatingParam id="1940" interp="linr"  time="-9999999/1" value="0" leadInLength="0/1"  />
              </VectorParam>
              <VectorParam id="1941"  name="rotation">
               <InterpolatingParam id="1942" interp="linr"  time="-9999999/1" value="0" leadInLength="0/1"  />
               <InterpolatingParam id="1943" interp="linr"  time="-9999999/1" value="0" leadInLength="0/1"  />
               <InterpolatingParam id="1944" interp="linr"  time="-9999999/1" value="0" leadInLength="0/1"  />
              </VectorParam>
              <VectorParam id="1945"  name="shear">
               <InterpolatingParam id="1946" interp="linr"  time="-9999999/1" value="0" leadInLength="0/1"  />
               <InterpolatingParam id="1947" interp="linr"  time="-9999999/1" value="0" leadInLength="0/1"  />
               <InterpolatingParam id="1948" interp="linr"  time="-9999999/1" value="0" leadInLength="0/1"  />
              </VectorParam>
              <VectorParam id="1949"  name="scale">
               <InterpolatingParam id="1950" interp="linr"  time="-9999999/1" value="1" leadInLength="0/1"  />
               <InterpolatingParam id="1951" interp="linr"  time="-9999999/1" value="1" leadInLength="0/1"  />
               <InterpolatingParam id="1952" interp="linr"  time="-9999999/1" value="1" leadInLength="0/1"  />
              </VectorParam>
              <VectorParam id="1953"  name="anchor">
               <InterpolatingParam id="1954" interp="linr"  time="0/1" value="0" leadInLength="0/1"  />
               <InterpolatingParam id="1955" interp="linr"  time="0/1" value="0" leadInLength="0/1"  />
               <InterpolatingParam id="1956" interp="linr"  time="0/1" value="0" leadInLength="0/1"  />
              </VectorParam>
             </Transformer>
             <Parameters>
              <VectorParam id="1957"  name="sourceCrop">
               <InterpolatingParam id="1958" interp="linr"  time="0/1" value="0" leadInLength="0/1"  />
               <InterpolatingParam id="1959" interp="linr"  time="0/1" value="0" leadInLength="0/1"  />
               <InterpolatingParam id="1960" interp="linr"  time="0/1" value="0" leadInLength="0/1"  />
               <InterpolatingParam id="1961" interp="linr"  time="0/1" value="0" leadInLength="0/1"  />
              </VectorParam>
              <VectorParam id="1962"  name="geometryCrop">
               <InterpolatingParam id="1963" interp="linr"  time="-9999999/1" value="0" leadInLength="0/1"  />
               <InterpolatingParam id="1964" interp="linr"  time="-9999999/1" value="0" leadInLength="0/1"  />
               <InterpolatingParam id="1965" interp="linr"  time="-9999999/1" value="0" leadInLength="0/1"  />
               <InterpolatingParam id="1966" interp="linr"  time="-9999999/1" value="0" leadInLength="0/1"  />
              </VectorParam>
              <InterpolatingParam id="1967" interp="linr"  time="-9999999/1" value="1" leadInLength="0/1"  name="opacity"/>
              <InterpolatingParam id="1968" interp="linr"  time="0/1" value="0" leadInLength="0/1"  name="cursorOpacity"/>
              <InterpolatingParam id="1969" interp="linr"  time="0/1" value="0" leadInLength="0/1"  name="cursorScale"/>
             </Parameters>
             <Attributes>
              <Attribute id="1970" value="" name="ident"/>
             </Attributes>
             <ExtraData>
              <Entry key="ZoomPanBin">
               <ZoomPanBin id="1971"  >
                <ZoomPanKeyframes>
                 <ZoomPanKeyframe id="1972" timeRangeEnd="-9999999/1" timeRangeDuration="0/1" interpolaterName=""  />
                </ZoomPanKeyframes>
               </ZoomPanBin>
              </Entry>
              <Entry key="CursorEffectBin">
               <CursorEffectBin id="1973"  >
                <CursorEffectKeyframes>
                </CursorEffectKeyframes>
               </CursorEffectBin>
              </Entry>
             </ExtraData>
            </ScreenVMFile>
            <MetaData>
             <entry key="AutoAppliedSmartFocus" val="False"/>
             <entry key="WinSubProjectDisplayName" val=""/>
            </MetaData>
           </UnifiedMedia>
           <UnifiedMedia id="1974"  >
            <AMFile id="1975" start="1668" duration="1857" scalar="1/1" mediaStart="2093/1" mediaDuration="1857/1" trackNumber="1" src="4" channelNumber="0,1" >
             <Parameters>
              <InterpolatingParam id="1976" interp="linr"  time="0/1" value="1" leadInLength="0/1"  name="volume"/>
              <Parameter id="1977"  name="captions"/>
             </Parameters>
             <Attributes>
              <Attribute id="1978" value="" name="ident"/>
              <Attribute id="1979" value="44100" name="sampleRate"/>
              <Attribute id="1980" value="16" name="bitDepth"/>
              <Attribute id="1981" value="1" name="gain"/>
              <Attribute id="1982" value="0" name="mixToMono"/>
             </Attributes>
            </AMFile>
            <ScreenVMFile id="1983" start="1668" duration="1857" scalar="1/1" mediaStart="2093/1" mediaDuration="1857/1" trackNumber="0" src="4" >
             <Transformer>
              <VectorParam id="1984"  name="translation">
               <InterpolatingParam id="1985" interp="linr"  time="-9999999/1" value="0" leadInLength="0/1"  />
               <InterpolatingParam id="1986" interp="linr"  time="-9999999/1" value="0" leadInLength="0/1"  />
               <InterpolatingParam id="1987" interp="linr"  time="-9999999/1" value="0" leadInLength="0/1"  />
              </VectorParam>
              <VectorParam id="1988"  name="rotation">
               <InterpolatingParam id="1989" interp="linr"  time="-9999999/1" value="0" leadInLength="0/1"  />
               <InterpolatingParam id="1990" interp="linr"  time="-9999999/1" value="0" leadInLength="0/1"  />
               <InterpolatingParam id="1991" interp="linr"  time="-9999999/1" value="0" leadInLength="0/1"  />
              </VectorParam>
              <VectorParam id="1992"  name="shear">
               <InterpolatingParam id="1993" interp="linr"  time="-9999999/1" value="0" leadInLength="0/1"  />
               <InterpolatingParam id="1994" interp="linr"  time="-9999999/1" value="0" leadInLength="0/1"  />
               <InterpolatingParam id="1995" interp="linr"  time="-9999999/1" value="0" leadInLength="0/1"  />
              </VectorParam>
              <VectorParam id="1996"  name="scale">
               <InterpolatingParam id="1997" interp="linr"  time="-9999999/1" value="1" leadInLength="0/1"  />
               <InterpolatingParam id="1998" interp="linr"  time="-9999999/1" value="1" leadInLength="0/1"  />
               <InterpolatingParam id="1999" interp="linr"  time="-9999999/1" value="1" leadInLength="0/1"  />
              </VectorParam>
              <VectorParam id="2000"  name="anchor">
               <InterpolatingParam id="2001" interp="linr"  time="0/1" value="0" leadInLength="0/1"  />
               <InterpolatingParam id="2002" interp="linr"  time="0/1" value="0" leadInLength="0/1"  />
               <InterpolatingParam id="2003" interp="linr"  time="0/1" value="0" leadInLength="0/1"  />
              </VectorParam>
             </Transformer>
             <Parameters>
              <VectorParam id="2004"  name="sourceCrop">
               <InterpolatingParam id="2005" interp="linr"  time="0/1" value="0" leadInLength="0/1"  />
               <InterpolatingParam id="2006" interp="linr"  time="0/1" value="0" leadInLength="0/1"  />
               <InterpolatingParam id="2007" interp="linr"  time="0/1" value="0" leadInLength="0/1"  />
               <InterpolatingParam id="2008" interp="linr"  time="0/1" value="0" leadInLength="0/1"  />
              </VectorParam>
              <VectorParam id="2009"  name="geometryCrop">
               <InterpolatingParam id="2010" interp="linr"  time="-9999999/1" value="0" leadInLength="0/1"  />
               <InterpolatingParam id="2011" interp="linr"  time="-9999999/1" value="0" leadInLength="0/1"  />
               <InterpolatingParam id="2012" interp="linr"  time="-9999999/1" value="0" leadInLength="0/1"  />
               <InterpolatingParam id="2013" interp="linr"  time="-9999999/1" value="0" leadInLength="0/1"  />
              </VectorParam>
              <InterpolatingParam id="2014" interp="linr"  time="-9999999/1" value="1" leadInLength="0/1"  name="opacity"/>
              <InterpolatingParam id="2015" interp="linr"  time="0/1" value="0" leadInLength="0/1"  name="cursorOpacity"/>
              <InterpolatingParam id="2016" interp="linr"  time="0/1" value="0" leadInLength="0/1"  name="cursorScale"/>
             </Parameters>
             <Attributes>
              <Attribute id="2017" value="" name="ident"/>
             </Attributes>
             <ExtraData>
              <Entry key="ZoomPanBin">
               <ZoomPanBin id="2018"  >
                <ZoomPanKeyframes>
                 <ZoomPanKeyframe id="2019" timeRangeEnd="-9999999/1" timeRangeDuration="0/1" interpolaterName=""  />
                </ZoomPanKeyframes>
               </ZoomPanBin>
              </Entry>
              <Entry key="CursorEffectBin">
               <CursorEffectBin id="2020"  >
                <CursorEffectKeyframes>
                </CursorEffectKeyframes>
               </CursorEffectBin>
              </Entry>
             </ExtraData>
            </ScreenVMFile>
            <MetaData>
             <entry key="AutoAppliedSmartFocus" val="False"/>
             <entry key="WinSubProjectDisplayName" val=""/>
            </MetaData>
           </UnifiedMedia>
           <UnifiedMedia id="2021"  >
            <AMFile id="2022" start="3525" duration="753" scalar="1/1" mediaStart="4024/1" mediaDuration="753/1" trackNumber="1" src="4" channelNumber="0,1" >
             <Parameters>
              <InterpolatingParam id="2023" interp="linr"  time="0/1" value="1" leadInLength="0/1"  name="volume"/>
              <Parameter id="2024"  name="captions"/>
             </Parameters>
             <Attributes>
              <Attribute id="2025" value="" name="ident"/>
              <Attribute id="2026" value="44100" name="sampleRate"/>
              <Attribute id="2027" value="16" name="bitDepth"/>
              <Attribute id="2028" value="1" name="gain"/>
              <Attribute id="2029" value="0" name="mixToMono"/>
             </Attributes>
            </AMFile>
            <ScreenVMFile id="2030" start="3525" duration="753" scalar="1/1" mediaStart="4024/1" mediaDuration="753/1" trackNumber="0" src="4" >
             <Transformer>
              <VectorParam id="2031"  name="translation">
               <InterpolatingParam id="2032" interp="linr"  time="-9999999/1" value="0" leadInLength="0/1"  />
               <InterpolatingParam id="2033" interp="linr"  time="-9999999/1" value="0" leadInLength="0/1"  />
               <InterpolatingParam id="2034" interp="linr"  time="-9999999/1" value="0" leadInLength="0/1"  />
              </VectorParam>
              <VectorParam id="2035"  name="rotation">
               <InterpolatingParam id="2036" interp="linr"  time="-9999999/1" value="0" leadInLength="0/1"  />
               <InterpolatingParam id="2037" interp="linr"  time="-9999999/1" value="0" leadInLength="0/1"  />
               <InterpolatingParam id="2038" interp="linr"  time="-9999999/1" value="0" leadInLength="0/1"  />
              </VectorParam>
              <VectorParam id="2039"  name="shear">
               <InterpolatingParam id="2040" interp="linr"  time="-9999999/1" value="0" leadInLength="0/1"  />
               <InterpolatingParam id="2041" interp="linr"  time="-9999999/1" value="0" leadInLength="0/1"  />
               <InterpolatingParam id="2042" interp="linr"  time="-9999999/1" value="0" leadInLength="0/1"  />
              </VectorParam>
              <VectorParam id="2043"  name="scale">
               <InterpolatingParam id="2044" interp="linr"  time="-9999999/1" value="1" leadInLength="0/1"  />
               <InterpolatingParam id="2045" interp="linr"  time="-9999999/1" value="1" leadInLength="0/1"  />
               <InterpolatingParam id="2046" interp="linr"  time="-9999999/1" value="1" leadInLength="0/1"  />
              </VectorParam>
              <VectorParam id="2047"  name="anchor">
               <InterpolatingParam id="2048" interp="linr"  time="0/1" value="0" leadInLength="0/1"  />
               <InterpolatingParam id="2049" interp="linr"  time="0/1" value="0" leadInLength="0/1"  />
               <InterpolatingParam id="2050" interp="linr"  time="0/1" value="0" leadInLength="0/1"  />
              </VectorParam>
             </Transformer>
             <Parameters>
              <VectorParam id="2051"  name="sourceCrop">
               <InterpolatingParam id="2052" interp="linr"  time="0/1" value="0" leadInLength="0/1"  />
               <InterpolatingParam id="2053" interp="linr"  time="0/1" value="0" leadInLength="0/1"  />
               <InterpolatingParam id="2054" interp="linr"  time="0/1" value="0" leadInLength="0/1"  />
               <InterpolatingParam id="2055" interp="linr"  time="0/1" value="0" leadInLength="0/1"  />
              </VectorParam>
              <VectorParam id="2056"  name="geometryCrop">
               <InterpolatingParam id="2057" interp="linr"  time="-9999999/1" value="0" leadInLength="0/1"  />
               <InterpolatingParam id="2058" interp="linr"  time="-9999999/1" value="0" leadInLength="0/1"  />
               <InterpolatingParam id="2059" interp="linr"  time="-9999999/1" value="0" leadInLength="0/1"  />
               <InterpolatingParam id="2060" interp="linr"  time="-9999999/1" value="0" leadInLength="0/1"  />
              </VectorParam>
              <InterpolatingParam id="2061" interp="linr"  time="-9999999/1" value="1" leadInLength="0/1"  name="opacity"/>
              <InterpolatingParam id="2062" interp="linr"  time="0/1" value="0" leadInLength="0/1"  name="cursorOpacity"/>
              <InterpolatingParam id="2063" interp="linr"  time="0/1" value="0" leadInLength="0/1"  name="cursorScale"/>
             </Parameters>
             <Attributes>
              <Attribute id="2064" value="" name="ident"/>
             </Attributes>
             <ExtraData>
              <Entry key="ZoomPanBin">
               <ZoomPanBin id="2065"  >
                <ZoomPanKeyframes>
                 <ZoomPanKeyframe id="2066" timeRangeEnd="-9999999/1" timeRangeDuration="0/1" interpolaterName=""  />
                </ZoomPanKeyframes>
               </ZoomPanBin>
              </Entry>
              <Entry key="CursorEffectBin">
               <CursorEffectBin id="2067"  >
                <CursorEffectKeyframes>
                </CursorEffectKeyframes>
               </CursorEffectBin>
              </Entry>
             </ExtraData>
            </ScreenVMFile>
            <MetaData>
             <entry key="AutoAppliedSmartFocus" val="False"/>
             <entry key="WinSubProjectDisplayName" val=""/>
            </MetaData>
           </UnifiedMedia>
           <UnifiedMedia id="2068"  >
            <AMFile id="2069" start="4278" duration="740" scalar="1/1" mediaStart="4796/1" mediaDuration="740/1" trackNumber="1" src="4" channelNumber="0,1" >
             <Parameters>
              <InterpolatingParam id="2070" interp="linr"  time="0/1" value="1" leadInLength="0/1"  name="volume"/>
              <Parameter id="2071"  name="captions"/>
             </Parameters>
             <Attributes>
              <Attribute id="2072" value="" name="ident"/>
              <Attribute id="2073" value="44100" name="sampleRate"/>
              <Attribute id="2074" value="16" name="bitDepth"/>
              <Attribute id="2075" value="1" name="gain"/>
              <Attribute id="2076" value="0" name="mixToMono"/>
             </Attributes>
            </AMFile>
            <ScreenVMFile id="2077" start="4278" duration="740" scalar="1/1" mediaStart="4796/1" mediaDuration="740/1" trackNumber="0" src="4" >
             <Transformer>
              <VectorParam id="2078"  name="translation">
               <InterpolatingParam id="2079" interp="linr"  time="-9999999/1" value="0" leadInLength="0/1"  />
               <InterpolatingParam id="2080" interp="linr"  time="-9999999/1" value="0" leadInLength="0/1"  />
               <InterpolatingParam id="2081" interp="linr"  time="-9999999/1" value="0" leadInLength="0/1"  />
              </VectorParam>
              <VectorParam id="2082"  name="rotation">
               <InterpolatingParam id="2083" interp="linr"  time="-9999999/1" value="0" leadInLength="0/1"  />
               <InterpolatingParam id="2084" interp="linr"  time="-9999999/1" value="0" leadInLength="0/1"  />
               <InterpolatingParam id="2085" interp="linr"  time="-9999999/1" value="0" leadInLength="0/1"  />
              </VectorParam>
              <VectorParam id="2086"  name="shear">
               <InterpolatingParam id="2087" interp="linr"  time="-9999999/1" value="0" leadInLength="0/1"  />
               <InterpolatingParam id="2088" interp="linr"  time="-9999999/1" value="0" leadInLength="0/1"  />
               <InterpolatingParam id="2089" interp="linr"  time="-9999999/1" value="0" leadInLength="0/1"  />
              </VectorParam>
              <VectorParam id="2090"  name="scale">
               <InterpolatingParam id="2091" interp="linr"  time="-9999999/1" value="1" leadInLength="0/1"  />
               <InterpolatingParam id="2092" interp="linr"  time="-9999999/1" value="1" leadInLength="0/1"  />
               <InterpolatingParam id="2093" interp="linr"  time="-9999999/1" value="1" leadInLength="0/1"  />
              </VectorParam>
              <VectorParam id="2094"  name="anchor">
               <InterpolatingParam id="2095" interp="linr"  time="0/1" value="0" leadInLength="0/1"  />
               <InterpolatingParam id="2096" interp="linr"  time="0/1" value="0" leadInLength="0/1"  />
               <InterpolatingParam id="2097" interp="linr"  time="0/1" value="0" leadInLength="0/1"  />
              </VectorParam>
             </Transformer>
             <Parameters>
              <VectorParam id="2098"  name="sourceCrop">
               <InterpolatingParam id="2099" interp="linr"  time="0/1" value="0" leadInLength="0/1"  />
               <InterpolatingParam id="2100" interp="linr"  time="0/1" value="0" leadInLength="0/1"  />
               <InterpolatingParam id="2101" interp="linr"  time="0/1" value="0" leadInLength="0/1"  />
               <InterpolatingParam id="2102" interp="linr"  time="0/1" value="0" leadInLength="0/1"  />
              </VectorParam>
              <VectorParam id="2103"  name="geometryCrop">
               <InterpolatingParam id="2104" interp="linr"  time="-9999999/1" value="0" leadInLength="0/1"  />
               <InterpolatingParam id="2105" interp="linr"  time="-9999999/1" value="0" leadInLength="0/1"  />
               <InterpolatingParam id="2106" interp="linr"  time="-9999999/1" value="0" leadInLength="0/1"  />
               <InterpolatingParam id="2107" interp="linr"  time="-9999999/1" value="0" leadInLength="0/1"  />
              </VectorParam>
              <InterpolatingParam id="2108" interp="linr"  time="-9999999/1" value="1" leadInLength="0/1"  name="opacity"/>
              <InterpolatingParam id="2109" interp="linr"  time="0/1" value="0" leadInLength="0/1"  name="cursorOpacity"/>
              <InterpolatingParam id="2110" interp="linr"  time="0/1" value="0" leadInLength="0/1"  name="cursorScale"/>
             </Parameters>
             <Attributes>
              <Attribute id="2111" value="" name="ident"/>
             </Attributes>
             <ExtraData>
              <Entry key="ZoomPanBin">
               <ZoomPanBin id="2112"  >
                <ZoomPanKeyframes>
                 <ZoomPanKeyframe id="2113" timeRangeEnd="-9999999/1" timeRangeDuration="0/1" interpolaterName=""  />
                </ZoomPanKeyframes>
               </ZoomPanBin>
              </Entry>
              <Entry key="CursorEffectBin">
               <CursorEffectBin id="2114"  >
                <CursorEffectKeyframes>
                </CursorEffectKeyframes>
               </CursorEffectBin>
              </Entry>
             </ExtraData>
            </ScreenVMFile>
            <MetaData>
             <entry key="AutoAppliedSmartFocus" val="False"/>
             <entry key="WinSubProjectDisplayName" val=""/>
            </MetaData>
           </UnifiedMedia>
           <UnifiedMedia id="2115"  >
            <AMFile id="2116" start="5018" duration="2459" scalar="1/1" mediaStart="5607/1" mediaDuration="2459/1" trackNumber="1" src="4" channelNumber="0,1" >
             <Parameters>
              <InterpolatingParam id="2117" interp="linr"  time="0/1" value="1" leadInLength="0/1"  name="volume"/>
              <Parameter id="2118"  name="captions"/>
             </Parameters>
             <Attributes>
              <Attribute id="2119" value="" name="ident"/>
              <Attribute id="2120" value="44100" name="sampleRate"/>
              <Attribute id="2121" value="16" name="bitDepth"/>
              <Attribute id="2122" value="1" name="gain"/>
              <Attribute id="2123" value="0" name="mixToMono"/>
             </Attributes>
            </AMFile>
            <ScreenVMFile id="2124" start="5018" duration="2459" scalar="1/1" mediaStart="5607/1" mediaDuration="2459/1" trackNumber="0" src="4" >
             <Transformer>
              <VectorParam id="2125"  name="translation">
               <InterpolatingParam id="2126" interp="linr"  time="-9999999/1" value="0" leadInLength="0/1"  />
               <InterpolatingParam id="2127" interp="linr"  time="-9999999/1" value="0" leadInLength="0/1"  />
               <InterpolatingParam id="2128" interp="linr"  time="-9999999/1" value="0" leadInLength="0/1"  />
              </VectorParam>
              <VectorParam id="2129"  name="rotation">
               <InterpolatingParam id="2130" interp="linr"  time="-9999999/1" value="0" leadInLength="0/1"  />
               <InterpolatingParam id="2131" interp="linr"  time="-9999999/1" value="0" leadInLength="0/1"  />
               <InterpolatingParam id="2132" interp="linr"  time="-9999999/1" value="0" leadInLength="0/1"  />
              </VectorParam>
              <VectorParam id="2133"  name="shear">
               <InterpolatingParam id="2134" interp="linr"  time="-9999999/1" value="0" leadInLength="0/1"  />
               <InterpolatingParam id="2135" interp="linr"  time="-9999999/1" value="0" leadInLength="0/1"  />
               <InterpolatingParam id="2136" interp="linr"  time="-9999999/1" value="0" leadInLength="0/1"  />
              </VectorParam>
              <VectorParam id="2137"  name="scale">
               <InterpolatingParam id="2138" interp="linr"  time="-9999999/1" value="1" leadInLength="0/1"  />
               <InterpolatingParam id="2139" interp="linr"  time="-9999999/1" value="1" leadInLength="0/1"  />
               <InterpolatingParam id="2140" interp="linr"  time="-9999999/1" value="1" leadInLength="0/1"  />
              </VectorParam>
              <VectorParam id="2141"  name="anchor">
               <InterpolatingParam id="2142" interp="linr"  time="0/1" value="0" leadInLength="0/1"  />
               <InterpolatingParam id="2143" interp="linr"  time="0/1" value="0" leadInLength="0/1"  />
               <InterpolatingParam id="2144" interp="linr"  time="0/1" value="0" leadInLength="0/1"  />
              </VectorParam>
             </Transformer>
             <Parameters>
              <VectorParam id="2145"  name="sourceCrop">
               <InterpolatingParam id="2146" interp="linr"  time="0/1" value="0" leadInLength="0/1"  />
               <InterpolatingParam id="2147" interp="linr"  time="0/1" value="0" leadInLength="0/1"  />
               <InterpolatingParam id="2148" interp="linr"  time="0/1" value="0" leadInLength="0/1"  />
               <InterpolatingParam id="2149" interp="linr"  time="0/1" value="0" leadInLength="0/1"  />
              </VectorParam>
              <VectorParam id="2150"  name="geometryCrop">
               <InterpolatingParam id="2151" interp="linr"  time="-9999999/1" value="0" leadInLength="0/1"  />
               <InterpolatingParam id="2152" interp="linr"  time="-9999999/1" value="0" leadInLength="0/1"  />
               <InterpolatingParam id="2153" interp="linr"  time="-9999999/1" value="0" leadInLength="0/1"  />
               <InterpolatingParam id="2154" interp="linr"  time="-9999999/1" value="0" leadInLength="0/1"  />
              </VectorParam>
              <InterpolatingParam id="2155" interp="linr"  time="-9999999/1" value="1" leadInLength="0/1"  name="opacity"/>
              <InterpolatingParam id="2156" interp="linr"  time="0/1" value="0" leadInLength="0/1"  name="cursorOpacity"/>
              <InterpolatingParam id="2157" interp="linr"  time="0/1" value="0" leadInLength="0/1"  name="cursorScale"/>
             </Parameters>
             <Attributes>
              <Attribute id="2158" value="" name="ident"/>
             </Attributes>
             <ExtraData>
              <Entry key="ZoomPanBin">
               <ZoomPanBin id="2159"  >
                <ZoomPanKeyframes>
                 <ZoomPanKeyframe id="2160" timeRangeEnd="-9999999/1" timeRangeDuration="0/1" interpolaterName=""  />
                </ZoomPanKeyframes>
               </ZoomPanBin>
              </Entry>
              <Entry key="CursorEffectBin">
               <CursorEffectBin id="2161"  >
                <CursorEffectKeyframes>
                </CursorEffectKeyframes>
               </CursorEffectBin>
              </Entry>
             </ExtraData>
            </ScreenVMFile>
            <MetaData>
             <entry key="AutoAppliedSmartFocus" val="False"/>
             <entry key="WinSubProjectDisplayName" val=""/>
            </MetaData>
           </UnifiedMedia>
           <UnifiedMedia id="2162"  >
            <AMFile id="2163" start="7477" duration="2065" scalar="1/1" mediaStart="8090/1" mediaDuration="2065/1" trackNumber="1" src="4" channelNumber="0,1" >
             <Parameters>
              <InterpolatingParam id="2164" interp="linr"  time="0/1" value="1" leadInLength="0/1"  name="volume"/>
              <Parameter id="2165"  name="captions"/>
             </Parameters>
             <Attributes>
              <Attribute id="2166" value="" name="ident"/>
              <Attribute id="2167" value="44100" name="sampleRate"/>
              <Attribute id="2168" value="16" name="bitDepth"/>
              <Attribute id="2169" value="1" name="gain"/>
              <Attribute id="2170" value="0" name="mixToMono"/>
             </Attributes>
            </AMFile>
            <ScreenVMFile id="2171" start="7477" duration="2065" scalar="1/1" mediaStart="8090/1" mediaDuration="2065/1" trackNumber="0" src="4" >
             <Transformer>
              <VectorParam id="2172"  name="translation">
               <InterpolatingParam id="2173" interp="linr"  time="-9999999/1" value="0" leadInLength="0/1"  />
               <InterpolatingParam id="2174" interp="linr"  time="-9999999/1" value="0" leadInLength="0/1"  />
               <InterpolatingParam id="2175" interp="linr"  time="-9999999/1" value="0" leadInLength="0/1"  />
              </VectorParam>
              <VectorParam id="2176"  name="rotation">
               <InterpolatingParam id="2177" interp="linr"  time="-9999999/1" value="0" leadInLength="0/1"  />
               <InterpolatingParam id="2178" interp="linr"  time="-9999999/1" value="0" leadInLength="0/1"  />
               <InterpolatingParam id="2179" interp="linr"  time="-9999999/1" value="0" leadInLength="0/1"  />
              </VectorParam>
              <VectorParam id="2180"  name="shear">
               <InterpolatingParam id="2181" interp="linr"  time="-9999999/1" value="0" leadInLength="0/1"  />
               <InterpolatingParam id="2182" interp="linr"  time="-9999999/1" value="0" leadInLength="0/1"  />
               <InterpolatingParam id="2183" interp="linr"  time="-9999999/1" value="0" leadInLength="0/1"  />
              </VectorParam>
              <VectorParam id="2184"  name="scale">
               <InterpolatingParam id="2185" interp="linr"  time="-9999999/1" value="1" leadInLength="0/1"  />
               <InterpolatingParam id="2186" interp="linr"  time="-9999999/1" value="1" leadInLength="0/1"  />
               <InterpolatingParam id="2187" interp="linr"  time="-9999999/1" value="1" leadInLength="0/1"  />
              </VectorParam>
              <VectorParam id="2188"  name="anchor">
               <InterpolatingParam id="2189" interp="linr"  time="0/1" value="0" leadInLength="0/1"  />
               <InterpolatingParam id="2190" interp="linr"  time="0/1" value="0" leadInLength="0/1"  />
               <InterpolatingParam id="2191" interp="linr"  time="0/1" value="0" leadInLength="0/1"  />
              </VectorParam>
             </Transformer>
             <Parameters>
              <VectorParam id="2192"  name="sourceCrop">
               <InterpolatingParam id="2193" interp="linr"  time="0/1" value="0" leadInLength="0/1"  />
               <InterpolatingParam id="2194" interp="linr"  time="0/1" value="0" leadInLength="0/1"  />
               <InterpolatingParam id="2195" interp="linr"  time="0/1" value="0" leadInLength="0/1"  />
               <InterpolatingParam id="2196" interp="linr"  time="0/1" value="0" leadInLength="0/1"  />
              </VectorParam>
              <VectorParam id="2197"  name="geometryCrop">
               <InterpolatingParam id="2198" interp="linr"  time="-9999999/1" value="0" leadInLength="0/1"  />
               <InterpolatingParam id="2199" interp="linr"  time="-9999999/1" value="0" leadInLength="0/1"  />
               <InterpolatingParam id="2200" interp="linr"  time="-9999999/1" value="0" leadInLength="0/1"  />
               <InterpolatingParam id="2201" interp="linr"  time="-9999999/1" value="0" leadInLength="0/1"  />
              </VectorParam>
              <InterpolatingParam id="2202" interp="linr"  time="-9999999/1" value="1" leadInLength="0/1"  name="opacity"/>
              <InterpolatingParam id="2203" interp="linr"  time="0/1" value="0" leadInLength="0/1"  name="cursorOpacity"/>
              <InterpolatingParam id="2204" interp="linr"  time="0/1" value="0" leadInLength="0/1"  name="cursorScale"/>
             </Parameters>
             <Attributes>
              <Attribute id="2205" value="" name="ident"/>
             </Attributes>
             <ExtraData>
              <Entry key="ZoomPanBin">
               <ZoomPanBin id="2206"  >
                <ZoomPanKeyframes>
                 <ZoomPanKeyframe id="2207" timeRangeEnd="-9999999/1" timeRangeDuration="0/1" interpolaterName=""  />
                </ZoomPanKeyframes>
               </ZoomPanBin>
              </Entry>
              <Entry key="CursorEffectBin">
               <CursorEffectBin id="2208"  >
                <CursorEffectKeyframes>
                </CursorEffectKeyframes>
               </CursorEffectBin>
              </Entry>
             </ExtraData>
            </ScreenVMFile>
            <MetaData>
             <entry key="AutoAppliedSmartFocus" val="False"/>
             <entry key="WinSubProjectDisplayName" val=""/>
            </MetaData>
           </UnifiedMedia>
           <UnifiedMedia id="2209"  >
            <AMFile id="2210" start="9542" duration="160" scalar="1/1" mediaStart="10254/1" mediaDuration="160/1" trackNumber="1" src="4" channelNumber="0,1" >
             <Parameters>
              <InterpolatingParam id="2211" interp="linr"  time="0/1" value="1" leadInLength="0/1"  name="volume"/>
              <Parameter id="2212"  name="captions"/>
             </Parameters>
             <Attributes>
              <Attribute id="2213" value="" name="ident"/>
              <Attribute id="2214" value="44100" name="sampleRate"/>
              <Attribute id="2215" value="16" name="bitDepth"/>
              <Attribute id="2216" value="1" name="gain"/>
              <Attribute id="2217" value="0" name="mixToMono"/>
             </Attributes>
            </AMFile>
            <ScreenVMFile id="2218" start="9542" duration="160" scalar="1/1" mediaStart="10254/1" mediaDuration="160/1" trackNumber="0" src="4" >
             <Transformer>
              <VectorParam id="2219"  name="translation">
               <InterpolatingParam id="2220" interp="linr"  time="-9999999/1" value="0" leadInLength="0/1"  />
               <InterpolatingParam id="2221" interp="linr"  time="-9999999/1" value="0" leadInLength="0/1"  />
               <InterpolatingParam id="2222" interp="linr"  time="-9999999/1" value="0" leadInLength="0/1"  />
              </VectorParam>
              <VectorParam id="2223"  name="rotation">
               <InterpolatingParam id="2224" interp="linr"  time="-9999999/1" value="0" leadInLength="0/1"  />
               <InterpolatingParam id="2225" interp="linr"  time="-9999999/1" value="0" leadInLength="0/1"  />
               <InterpolatingParam id="2226" interp="linr"  time="-9999999/1" value="0" leadInLength="0/1"  />
              </VectorParam>
              <VectorParam id="2227"  name="shear">
               <InterpolatingParam id="2228" interp="linr"  time="-9999999/1" value="0" leadInLength="0/1"  />
               <InterpolatingParam id="2229" interp="linr"  time="-9999999/1" value="0" leadInLength="0/1"  />
               <InterpolatingParam id="2230" interp="linr"  time="-9999999/1" value="0" leadInLength="0/1"  />
              </VectorParam>
              <VectorParam id="2231"  name="scale">
               <InterpolatingParam id="2232" interp="linr"  time="-9999999/1" value="1" leadInLength="0/1"  />
               <InterpolatingParam id="2233" interp="linr"  time="-9999999/1" value="1" leadInLength="0/1"  />
               <InterpolatingParam id="2234" interp="linr"  time="-9999999/1" value="1" leadInLength="0/1"  />
              </VectorParam>
              <VectorParam id="2235"  name="anchor">
               <InterpolatingParam id="2236" interp="linr"  time="0/1" value="0" leadInLength="0/1"  />
               <InterpolatingParam id="2237" interp="linr"  time="0/1" value="0" leadInLength="0/1"  />
               <InterpolatingParam id="2238" interp="linr"  time="0/1" value="0" leadInLength="0/1"  />
              </VectorParam>
             </Transformer>
             <Parameters>
              <VectorParam id="2239"  name="sourceCrop">
               <InterpolatingParam id="2240" interp="linr"  time="0/1" value="0" leadInLength="0/1"  />
               <InterpolatingParam id="2241" interp="linr"  time="0/1" value="0" leadInLength="0/1"  />
               <InterpolatingParam id="2242" interp="linr"  time="0/1" value="0" leadInLength="0/1"  />
               <InterpolatingParam id="2243" interp="linr"  time="0/1" value="0" leadInLength="0/1"  />
              </VectorParam>
              <VectorParam id="2244"  name="geometryCrop">
               <InterpolatingParam id="2245" interp="linr"  time="-9999999/1" value="0" leadInLength="0/1"  />
               <InterpolatingParam id="2246" interp="linr"  time="-9999999/1" value="0" leadInLength="0/1"  />
               <InterpolatingParam id="2247" interp="linr"  time="-9999999/1" value="0" leadInLength="0/1"  />
               <InterpolatingParam id="2248" interp="linr"  time="-9999999/1" value="0" leadInLength="0/1"  />
              </VectorParam>
              <InterpolatingParam id="2249" interp="linr"  time="-9999999/1" value="1" leadInLength="0/1"  name="opacity"/>
              <InterpolatingParam id="2250" interp="linr"  time="0/1" value="0" leadInLength="0/1"  name="cursorOpacity"/>
              <InterpolatingParam id="2251" interp="linr"  time="0/1" value="0" leadInLength="0/1"  name="cursorScale"/>
             </Parameters>
             <Attributes>
              <Attribute id="2252" value="" name="ident"/>
             </Attributes>
             <ExtraData>
              <Entry key="ZoomPanBin">
               <ZoomPanBin id="2253"  >
                <ZoomPanKeyframes>
                 <ZoomPanKeyframe id="2254" timeRangeEnd="-9999999/1" timeRangeDuration="0/1" interpolaterName=""  />
                </ZoomPanKeyframes>
               </ZoomPanBin>
              </Entry>
              <Entry key="CursorEffectBin">
               <CursorEffectBin id="2255"  >
                <CursorEffectKeyframes>
                </CursorEffectKeyframes>
               </CursorEffectBin>
              </Entry>
             </ExtraData>
            </ScreenVMFile>
            <MetaData>
             <entry key="AutoAppliedSmartFocus" val="False"/>
             <entry key="WinSubProjectDisplayName" val=""/>
            </MetaData>
           </UnifiedMedia>
           <UnifiedMedia id="2256"  >
            <AMFile id="2257" start="9702" duration="248" scalar="1/1" mediaStart="10708/1" mediaDuration="248/1" trackNumber="1" src="4" channelNumber="0,1" >
             <Parameters>
              <InterpolatingParam id="2258" interp="linr"  time="0/1" value="1" leadInLength="0/1"  name="volume"/>
              <Parameter id="2259"  name="captions"/>
             </Parameters>
             <Attributes>
              <Attribute id="2260" value="" name="ident"/>
              <Attribute id="2261" value="44100" name="sampleRate"/>
              <Attribute id="2262" value="16" name="bitDepth"/>
              <Attribute id="2263" value="1" name="gain"/>
              <Attribute id="2264" value="0" name="mixToMono"/>
             </Attributes>
            </AMFile>
            <ScreenVMFile id="2265" start="9702" duration="248" scalar="1/1" mediaStart="10708/1" mediaDuration="248/1" trackNumber="0" src="4" >
             <Transformer>
              <VectorParam id="2266"  name="translation">
               <InterpolatingParam id="2267" interp="linr"  time="-9999999/1" value="0" leadInLength="0/1"  />
               <InterpolatingParam id="2268" interp="linr"  time="-9999999/1" value="0" leadInLength="0/1"  />
               <InterpolatingParam id="2269" interp="linr"  time="-9999999/1" value="0" leadInLength="0/1"  />
              </VectorParam>
              <VectorParam id="2270"  name="rotation">
               <InterpolatingParam id="2271" interp="linr"  time="-9999999/1" value="0" leadInLength="0/1"  />
               <InterpolatingParam id="2272" interp="linr"  time="-9999999/1" value="0" leadInLength="0/1"  />
               <InterpolatingParam id="2273" interp="linr"  time="-9999999/1" value="0" leadInLength="0/1"  />
              </VectorParam>
              <VectorParam id="2274"  name="shear">
               <InterpolatingParam id="2275" interp="linr"  time="-9999999/1" value="0" leadInLength="0/1"  />
               <InterpolatingParam id="2276" interp="linr"  time="-9999999/1" value="0" leadInLength="0/1"  />
               <InterpolatingParam id="2277" interp="linr"  time="-9999999/1" value="0" leadInLength="0/1"  />
              </VectorParam>
              <VectorParam id="2278"  name="scale">
               <InterpolatingParam id="2279" interp="linr"  time="-9999999/1" value="1" leadInLength="0/1"  />
               <InterpolatingParam id="2280" interp="linr"  time="-9999999/1" value="1" leadInLength="0/1"  />
               <InterpolatingParam id="2281" interp="linr"  time="-9999999/1" value="1" leadInLength="0/1"  />
              </VectorParam>
              <VectorParam id="2282"  name="anchor">
               <InterpolatingParam id="2283" interp="linr"  time="0/1" value="0" leadInLength="0/1"  />
               <InterpolatingParam id="2284" interp="linr"  time="0/1" value="0" leadInLength="0/1"  />
               <InterpolatingParam id="2285" interp="linr"  time="0/1" value="0" leadInLength="0/1"  />
              </VectorParam>
             </Transformer>
             <Parameters>
              <VectorParam id="2286"  name="sourceCrop">
               <InterpolatingParam id="2287" interp="linr"  time="0/1" value="0" leadInLength="0/1"  />
               <InterpolatingParam id="2288" interp="linr"  time="0/1" value="0" leadInLength="0/1"  />
               <InterpolatingParam id="2289" interp="linr"  time="0/1" value="0" leadInLength="0/1"  />
               <InterpolatingParam id="2290" interp="linr"  time="0/1" value="0" leadInLength="0/1"  />
              </VectorParam>
              <VectorParam id="2291"  name="geometryCrop">
               <InterpolatingParam id="2292" interp="linr"  time="-9999999/1" value="0" leadInLength="0/1"  />
               <InterpolatingParam id="2293" interp="linr"  time="-9999999/1" value="0" leadInLength="0/1"  />
               <InterpolatingParam id="2294" interp="linr"  time="-9999999/1" value="0" leadInLength="0/1"  />
               <InterpolatingParam id="2295" interp="linr"  time="-9999999/1" value="0" leadInLength="0/1"  />
              </VectorParam>
              <InterpolatingParam id="2296" interp="linr"  time="-9999999/1" value="1" leadInLength="0/1"  name="opacity"/>
              <InterpolatingParam id="2297" interp="linr"  time="0/1" value="0" leadInLength="0/1"  name="cursorOpacity"/>
              <InterpolatingParam id="2298" interp="linr"  time="0/1" value="0" leadInLength="0/1"  name="cursorScale"/>
             </Parameters>
             <Attributes>
              <Attribute id="2299" value="" name="ident"/>
             </Attributes>
             <ExtraData>
              <Entry key="ZoomPanBin">
               <ZoomPanBin id="2300"  >
                <ZoomPanKeyframes>
                 <ZoomPanKeyframe id="2301" timeRangeEnd="-9999999/1" timeRangeDuration="0/1" interpolaterName=""  />
                </ZoomPanKeyframes>
               </ZoomPanBin>
              </Entry>
              <Entry key="CursorEffectBin">
               <CursorEffectBin id="2302"  >
                <CursorEffectKeyframes>
                </CursorEffectKeyframes>
               </CursorEffectBin>
              </Entry>
             </ExtraData>
            </ScreenVMFile>
            <MetaData>
             <entry key="AutoAppliedSmartFocus" val="False"/>
             <entry key="WinSubProjectDisplayName" val=""/>
            </MetaData>
           </UnifiedMedia>
           <UnifiedMedia id="2303"  >
            <AMFile id="2304" start="9950" duration="301" scalar="1/1" mediaStart="11201/1" mediaDuration="301/1" trackNumber="1" src="4" channelNumber="0,1" >
             <Parameters>
              <InterpolatingParam id="2305" interp="linr"  time="0/1" value="1" leadInLength="0/1"  name="volume"/>
              <Parameter id="2306"  name="captions"/>
             </Parameters>
             <Attributes>
              <Attribute id="2307" value="" name="ident"/>
              <Attribute id="2308" value="44100" name="sampleRate"/>
              <Attribute id="2309" value="16" name="bitDepth"/>
              <Attribute id="2310" value="1" name="gain"/>
              <Attribute id="2311" value="0" name="mixToMono"/>
             </Attributes>
            </AMFile>
            <ScreenVMFile id="2312" start="9950" duration="301" scalar="1/1" mediaStart="11201/1" mediaDuration="301/1" trackNumber="0" src="4" >
             <Transformer>
              <VectorParam id="2313"  name="translation">
               <InterpolatingParam id="2314" interp="linr"  time="-9999999/1" value="0" leadInLength="0/1"  />
               <InterpolatingParam id="2315" interp="linr"  time="-9999999/1" value="0" leadInLength="0/1"  />
               <InterpolatingParam id="2316" interp="linr"  time="-9999999/1" value="0" leadInLength="0/1"  />
              </VectorParam>
              <VectorParam id="2317"  name="rotation">
               <InterpolatingParam id="2318" interp="linr"  time="-9999999/1" value="0" leadInLength="0/1"  />
               <InterpolatingParam id="2319" interp="linr"  time="-9999999/1" value="0" leadInLength="0/1"  />
               <InterpolatingParam id="2320" interp="linr"  time="-9999999/1" value="0" leadInLength="0/1"  />
              </VectorParam>
              <VectorParam id="2321"  name="shear">
               <InterpolatingParam id="2322" interp="linr"  time="-9999999/1" value="0" leadInLength="0/1"  />
               <InterpolatingParam id="2323" interp="linr"  time="-9999999/1" value="0" leadInLength="0/1"  />
               <InterpolatingParam id="2324" interp="linr"  time="-9999999/1" value="0" leadInLength="0/1"  />
              </VectorParam>
              <VectorParam id="2325"  name="scale">
               <InterpolatingParam id="2326" interp="linr"  time="-9999999/1" value="1" leadInLength="0/1"  />
               <InterpolatingParam id="2327" interp="linr"  time="-9999999/1" value="1" leadInLength="0/1"  />
               <InterpolatingParam id="2328" interp="linr"  time="-9999999/1" value="1" leadInLength="0/1"  />
              </VectorParam>
              <VectorParam id="2329"  name="anchor">
               <InterpolatingParam id="2330" interp="linr"  time="0/1" value="0" leadInLength="0/1"  />
               <InterpolatingParam id="2331" interp="linr"  time="0/1" value="0" leadInLength="0/1"  />
               <InterpolatingParam id="2332" interp="linr"  time="0/1" value="0" leadInLength="0/1"  />
              </VectorParam>
             </Transformer>
             <Parameters>
              <VectorParam id="2333"  name="sourceCrop">
               <InterpolatingParam id="2334" interp="linr"  time="0/1" value="0" leadInLength="0/1"  />
               <InterpolatingParam id="2335" interp="linr"  time="0/1" value="0" leadInLength="0/1"  />
               <InterpolatingParam id="2336" interp="linr"  time="0/1" value="0" leadInLength="0/1"  />
               <InterpolatingParam id="2337" interp="linr"  time="0/1" value="0" leadInLength="0/1"  />
              </VectorParam>
              <VectorParam id="2338"  name="geometryCrop">
               <InterpolatingParam id="2339" interp="linr"  time="-9999999/1" value="0" leadInLength="0/1"  />
               <InterpolatingParam id="2340" interp="linr"  time="-9999999/1" value="0" leadInLength="0/1"  />
               <InterpolatingParam id="2341" interp="linr"  time="-9999999/1" value="0" leadInLength="0/1"  />
               <InterpolatingParam id="2342" interp="linr"  time="-9999999/1" value="0" leadInLength="0/1"  />
              </VectorParam>
              <InterpolatingParam id="2343" interp="linr"  time="-9999999/1" value="1" leadInLength="0/1"  name="opacity"/>
              <InterpolatingParam id="2344" interp="linr"  time="0/1" value="0" leadInLength="0/1"  name="cursorOpacity"/>
              <InterpolatingParam id="2345" interp="linr"  time="0/1" value="0" leadInLength="0/1"  name="cursorScale"/>
             </Parameters>
             <Attributes>
              <Attribute id="2346" value="" name="ident"/>
             </Attributes>
             <ExtraData>
              <Entry key="ZoomPanBin">
               <ZoomPanBin id="2347"  >
                <ZoomPanKeyframes>
                 <ZoomPanKeyframe id="2348" timeRangeEnd="-9999999/1" timeRangeDuration="0/1" interpolaterName=""  />
                </ZoomPanKeyframes>
               </ZoomPanBin>
              </Entry>
              <Entry key="CursorEffectBin">
               <CursorEffectBin id="2349"  >
                <CursorEffectKeyframes>
                </CursorEffectKeyframes>
               </CursorEffectBin>
              </Entry>
             </ExtraData>
            </ScreenVMFile>
            <MetaData>
             <entry key="AutoAppliedSmartFocus" val="False"/>
             <entry key="WinSubProjectDisplayName" val=""/>
            </MetaData>
           </UnifiedMedia>
           <UnifiedMedia id="2350"  >
            <AMFile id="2351" start="10251" duration="634" scalar="1/1" mediaStart="11616/1" mediaDuration="634/1" trackNumber="1" src="4" channelNumber="0,1" >
             <Parameters>
              <InterpolatingParam id="2352" interp="linr"  time="0/1" value="1" leadInLength="0/1"  name="volume"/>
              <Parameter id="2353"  name="captions"/>
             </Parameters>
             <Attributes>
              <Attribute id="2354" value="" name="ident"/>
              <Attribute id="2355" value="44100" name="sampleRate"/>
              <Attribute id="2356" value="16" name="bitDepth"/>
              <Attribute id="2357" value="1" name="gain"/>
              <Attribute id="2358" value="0" name="mixToMono"/>
             </Attributes>
            </AMFile>
            <ScreenVMFile id="2359" start="10251" duration="634" scalar="1/1" mediaStart="11616/1" mediaDuration="634/1" trackNumber="0" src="4" >
             <Transformer>
              <VectorParam id="2360"  name="translation">
               <InterpolatingParam id="2361" interp="linr"  time="-9999999/1" value="0" leadInLength="0/1"  />
               <InterpolatingParam id="2362" interp="linr"  time="-9999999/1" value="0" leadInLength="0/1"  />
               <InterpolatingParam id="2363" interp="linr"  time="-9999999/1" value="0" leadInLength="0/1"  />
              </VectorParam>
              <VectorParam id="2364"  name="rotation">
               <InterpolatingParam id="2365" interp="linr"  time="-9999999/1" value="0" leadInLength="0/1"  />
               <InterpolatingParam id="2366" interp="linr"  time="-9999999/1" value="0" leadInLength="0/1"  />
               <InterpolatingParam id="2367" interp="linr"  time="-9999999/1" value="0" leadInLength="0/1"  />
              </VectorParam>
              <VectorParam id="2368"  name="shear">
               <InterpolatingParam id="2369" interp="linr"  time="-9999999/1" value="0" leadInLength="0/1"  />
               <InterpolatingParam id="2370" interp="linr"  time="-9999999/1" value="0" leadInLength="0/1"  />
               <InterpolatingParam id="2371" interp="linr"  time="-9999999/1" value="0" leadInLength="0/1"  />
              </VectorParam>
              <VectorParam id="2372"  name="scale">
               <InterpolatingParam id="2373" interp="linr"  time="-9999999/1" value="1" leadInLength="0/1"  />
               <InterpolatingParam id="2374" interp="linr"  time="-9999999/1" value="1" leadInLength="0/1"  />
               <InterpolatingParam id="2375" interp="linr"  time="-9999999/1" value="1" leadInLength="0/1"  />
              </VectorParam>
              <VectorParam id="2376"  name="anchor">
               <InterpolatingParam id="2377" interp="linr"  time="0/1" value="0" leadInLength="0/1"  />
               <InterpolatingParam id="2378" interp="linr"  time="0/1" value="0" leadInLength="0/1"  />
               <InterpolatingParam id="2379" interp="linr"  time="0/1" value="0" leadInLength="0/1"  />
              </VectorParam>
             </Transformer>
             <Parameters>
              <VectorParam id="2380"  name="sourceCrop">
               <InterpolatingParam id="2381" interp="linr"  time="0/1" value="0" leadInLength="0/1"  />
               <InterpolatingParam id="2382" interp="linr"  time="0/1" value="0" leadInLength="0/1"  />
               <InterpolatingParam id="2383" interp="linr"  time="0/1" value="0" leadInLength="0/1"  />
               <InterpolatingParam id="2384" interp="linr"  time="0/1" value="0" leadInLength="0/1"  />
              </VectorParam>
              <VectorParam id="2385"  name="geometryCrop">
               <InterpolatingParam id="2386" interp="linr"  time="-9999999/1" value="0" leadInLength="0/1"  />
               <InterpolatingParam id="2387" interp="linr"  time="-9999999/1" value="0" leadInLength="0/1"  />
               <InterpolatingParam id="2388" interp="linr"  time="-9999999/1" value="0" leadInLength="0/1"  />
               <InterpolatingParam id="2389" interp="linr"  time="-9999999/1" value="0" leadInLength="0/1"  />
              </VectorParam>
              <InterpolatingParam id="2390" interp="linr"  time="-9999999/1" value="1" leadInLength="0/1"  name="opacity"/>
              <InterpolatingParam id="2391" interp="linr"  time="0/1" value="0" leadInLength="0/1"  name="cursorOpacity"/>
              <InterpolatingParam id="2392" interp="linr"  time="0/1" value="0" leadInLength="0/1"  name="cursorScale"/>
             </Parameters>
             <Attributes>
              <Attribute id="2393" value="" name="ident"/>
             </Attributes>
             <ExtraData>
              <Entry key="ZoomPanBin">
               <ZoomPanBin id="2394"  >
                <ZoomPanKeyframes>
                 <ZoomPanKeyframe id="2395" timeRangeEnd="-9999999/1" timeRangeDuration="0/1" interpolaterName=""  />
                </ZoomPanKeyframes>
               </ZoomPanBin>
              </Entry>
              <Entry key="CursorEffectBin">
               <CursorEffectBin id="2396"  >
                <CursorEffectKeyframes>
                </CursorEffectKeyframes>
               </CursorEffectBin>
              </Entry>
             </ExtraData>
            </ScreenVMFile>
            <MetaData>
             <entry key="AutoAppliedSmartFocus" val="False"/>
             <entry key="WinSubProjectDisplayName" val=""/>
            </MetaData>
           </UnifiedMedia>
           <UnifiedMedia id="2397"  >
            <AMFile id="2398" start="10885" duration="760" scalar="1/1" mediaStart="12410/1" mediaDuration="760/1" trackNumber="1" src="4" channelNumber="0,1" >
             <Parameters>
              <InterpolatingParam id="2399" interp="linr"  time="0/1" value="1" leadInLength="0/1"  name="volume"/>
              <Parameter id="2400"  name="captions"/>
             </Parameters>
             <Attributes>
              <Attribute id="2401" value="" name="ident"/>
              <Attribute id="2402" value="44100" name="sampleRate"/>
              <Attribute id="2403" value="16" name="bitDepth"/>
              <Attribute id="2404" value="1" name="gain"/>
              <Attribute id="2405" value="0" name="mixToMono"/>
             </Attributes>
            </AMFile>
            <ScreenVMFile id="2406" start="10885" duration="760" scalar="1/1" mediaStart="12410/1" mediaDuration="760/1" trackNumber="0" src="4" >
             <Transformer>
              <VectorParam id="2407"  name="translation">
               <InterpolatingParam id="2408" interp="linr"  time="-9999999/1" value="0" leadInLength="0/1"  />
               <InterpolatingParam id="2409" interp="linr"  time="-9999999/1" value="0" leadInLength="0/1"  />
               <InterpolatingParam id="2410" interp="linr"  time="-9999999/1" value="0" leadInLength="0/1"  />
              </VectorParam>
              <VectorParam id="2411"  name="rotation">
               <InterpolatingParam id="2412" interp="linr"  time="-9999999/1" value="0" leadInLength="0/1"  />
               <InterpolatingParam id="2413" interp="linr"  time="-9999999/1" value="0" leadInLength="0/1"  />
               <InterpolatingParam id="2414" interp="linr"  time="-9999999/1" value="0" leadInLength="0/1"  />
              </VectorParam>
              <VectorParam id="2415"  name="shear">
               <InterpolatingParam id="2416" interp="linr"  time="-9999999/1" value="0" leadInLength="0/1"  />
               <InterpolatingParam id="2417" interp="linr"  time="-9999999/1" value="0" leadInLength="0/1"  />
               <InterpolatingParam id="2418" interp="linr"  time="-9999999/1" value="0" leadInLength="0/1"  />
              </VectorParam>
              <VectorParam id="2419"  name="scale">
               <InterpolatingParam id="2420" interp="linr"  time="-9999999/1" value="1" leadInLength="0/1"  />
               <InterpolatingParam id="2421" interp="linr"  time="-9999999/1" value="1" leadInLength="0/1"  />
               <InterpolatingParam id="2422" interp="linr"  time="-9999999/1" value="1" leadInLength="0/1"  />
              </VectorParam>
              <VectorParam id="2423"  name="anchor">
               <InterpolatingParam id="2424" interp="linr"  time="0/1" value="0" leadInLength="0/1"  />
               <InterpolatingParam id="2425" interp="linr"  time="0/1" value="0" leadInLength="0/1"  />
               <InterpolatingParam id="2426" interp="linr"  time="0/1" value="0" leadInLength="0/1"  />
              </VectorParam>
             </Transformer>
             <Parameters>
              <VectorParam id="2427"  name="sourceCrop">
               <InterpolatingParam id="2428" interp="linr"  time="0/1" value="0" leadInLength="0/1"  />
               <InterpolatingParam id="2429" interp="linr"  time="0/1" value="0" leadInLength="0/1"  />
               <InterpolatingParam id="2430" interp="linr"  time="0/1" value="0" leadInLength="0/1"  />
               <InterpolatingParam id="2431" interp="linr"  time="0/1" value="0" leadInLength="0/1"  />
              </VectorParam>
              <VectorParam id="2432"  name="geometryCrop">
               <InterpolatingParam id="2433" interp="linr"  time="-9999999/1" value="0" leadInLength="0/1"  />
               <InterpolatingParam id="2434" interp="linr"  time="-9999999/1" value="0" leadInLength="0/1"  />
               <InterpolatingParam id="2435" interp="linr"  time="-9999999/1" value="0" leadInLength="0/1"  />
               <InterpolatingParam id="2436" interp="linr"  time="-9999999/1" value="0" leadInLength="0/1"  />
              </VectorParam>
              <InterpolatingParam id="2437" interp="linr"  time="-9999999/1" value="1" leadInLength="0/1"  name="opacity"/>
              <InterpolatingParam id="2438" interp="linr"  time="0/1" value="0" leadInLength="0/1"  name="cursorOpacity"/>
              <InterpolatingParam id="2439" interp="linr"  time="0/1" value="0" leadInLength="0/1"  name="cursorScale"/>
             </Parameters>
             <Attributes>
              <Attribute id="2440" value="" name="ident"/>
             </Attributes>
             <ExtraData>
              <Entry key="ZoomPanBin">
               <ZoomPanBin id="2441"  >
                <ZoomPanKeyframes>
                 <ZoomPanKeyframe id="2442" timeRangeEnd="-9999999/1" timeRangeDuration="0/1" interpolaterName=""  />
                </ZoomPanKeyframes>
               </ZoomPanBin>
              </Entry>
              <Entry key="CursorEffectBin">
               <CursorEffectBin id="2443"  >
                <CursorEffectKeyframes>
                </CursorEffectKeyframes>
               </CursorEffectBin>
              </Entry>
             </ExtraData>
            </ScreenVMFile>
            <MetaData>
             <entry key="AutoAppliedSmartFocus" val="False"/>
             <entry key="WinSubProjectDisplayName" val=""/>
            </MetaData>
           </UnifiedMedia>
           <UnifiedMedia id="2444"  >
            <AMFile id="2445" start="11645" duration="696" scalar="1/1" mediaStart="15047/1" mediaDuration="696/1" trackNumber="1" src="4" channelNumber="0,1" >
             <Parameters>
              <InterpolatingParam id="2446" interp="linr"  time="0/1" value="1" leadInLength="0/1"  name="volume"/>
              <Parameter id="2447"  name="captions"/>
             </Parameters>
             <Attributes>
              <Attribute id="2448" value="" name="ident"/>
              <Attribute id="2449" value="44100" name="sampleRate"/>
              <Attribute id="2450" value="16" name="bitDepth"/>
              <Attribute id="2451" value="1" name="gain"/>
              <Attribute id="2452" value="0" name="mixToMono"/>
             </Attributes>
            </AMFile>
            <ScreenVMFile id="2453" start="11645" duration="696" scalar="1/1" mediaStart="15047/1" mediaDuration="696/1" trackNumber="0" src="4" >
             <Transformer>
              <VectorParam id="2454"  name="translation">
               <InterpolatingParam id="2455" interp="linr"  time="-9999999/1" value="0" leadInLength="0/1"  />
               <InterpolatingParam id="2456" interp="linr"  time="-9999999/1" value="0" leadInLength="0/1"  />
               <InterpolatingParam id="2457" interp="linr"  time="-9999999/1" value="0" leadInLength="0/1"  />
              </VectorParam>
              <VectorParam id="2458"  name="rotation">
               <InterpolatingParam id="2459" interp="linr"  time="-9999999/1" value="0" leadInLength="0/1"  />
               <InterpolatingParam id="2460" interp="linr"  time="-9999999/1" value="0" leadInLength="0/1"  />
               <InterpolatingParam id="2461" interp="linr"  time="-9999999/1" value="0" leadInLength="0/1"  />
              </VectorParam>
              <VectorParam id="2462"  name="shear">
               <InterpolatingParam id="2463" interp="linr"  time="-9999999/1" value="0" leadInLength="0/1"  />
               <InterpolatingParam id="2464" interp="linr"  time="-9999999/1" value="0" leadInLength="0/1"  />
               <InterpolatingParam id="2465" interp="linr"  time="-9999999/1" value="0" leadInLength="0/1"  />
              </VectorParam>
              <VectorParam id="2466"  name="scale">
               <InterpolatingParam id="2467" interp="linr"  time="-9999999/1" value="1" leadInLength="0/1"  />
               <InterpolatingParam id="2468" interp="linr"  time="-9999999/1" value="1" leadInLength="0/1"  />
               <InterpolatingParam id="2469" interp="linr"  time="-9999999/1" value="1" leadInLength="0/1"  />
              </VectorParam>
              <VectorParam id="2470"  name="anchor">
               <InterpolatingParam id="2471" interp="linr"  time="0/1" value="0" leadInLength="0/1"  />
               <InterpolatingParam id="2472" interp="linr"  time="0/1" value="0" leadInLength="0/1"  />
               <InterpolatingParam id="2473" interp="linr"  time="0/1" value="0" leadInLength="0/1"  />
              </VectorParam>
             </Transformer>
             <Parameters>
              <VectorParam id="2474"  name="sourceCrop">
               <InterpolatingParam id="2475" interp="linr"  time="0/1" value="0" leadInLength="0/1"  />
               <InterpolatingParam id="2476" interp="linr"  time="0/1" value="0" leadInLength="0/1"  />
               <InterpolatingParam id="2477" interp="linr"  time="0/1" value="0" leadInLength="0/1"  />
               <InterpolatingParam id="2478" interp="linr"  time="0/1" value="0" leadInLength="0/1"  />
              </VectorParam>
              <VectorParam id="2479"  name="geometryCrop">
               <InterpolatingParam id="2480" interp="linr"  time="-9999999/1" value="0" leadInLength="0/1"  />
               <InterpolatingParam id="2481" interp="linr"  time="-9999999/1" value="0" leadInLength="0/1"  />
               <InterpolatingParam id="2482" interp="linr"  time="-9999999/1" value="0" leadInLength="0/1"  />
               <InterpolatingParam id="2483" interp="linr"  time="-9999999/1" value="0" leadInLength="0/1"  />
              </VectorParam>
              <InterpolatingParam id="2484" interp="linr"  time="-9999999/1" value="1" leadInLength="0/1"  name="opacity"/>
              <InterpolatingParam id="2485" interp="linr"  time="0/1" value="0" leadInLength="0/1"  name="cursorOpacity"/>
              <InterpolatingParam id="2486" interp="linr"  time="0/1" value="0" leadInLength="0/1"  name="cursorScale"/>
             </Parameters>
             <Attributes>
              <Attribute id="2487" value="" name="ident"/>
             </Attributes>
             <ExtraData>
              <Entry key="ZoomPanBin">
               <ZoomPanBin id="2488"  >
                <ZoomPanKeyframes>
                 <ZoomPanKeyframe id="2489" timeRangeEnd="-9999999/1" timeRangeDuration="0/1" interpolaterName=""  />
                </ZoomPanKeyframes>
               </ZoomPanBin>
              </Entry>
              <Entry key="CursorEffectBin">
               <CursorEffectBin id="2490"  >
                <CursorEffectKeyframes>
                </CursorEffectKeyframes>
               </CursorEffectBin>
              </Entry>
             </ExtraData>
            </ScreenVMFile>
            <MetaData>
             <entry key="AutoAppliedSmartFocus" val="False"/>
             <entry key="WinSubProjectDisplayName" val=""/>
            </MetaData>
           </UnifiedMedia>
           <UnifiedMedia id="2491"  >
            <AMFile id="2492" start="12341" duration="2" scalar="1/1" mediaStart="15983/1" mediaDuration="2/1" trackNumber="1" src="4" channelNumber="0,1" >
             <Parameters>
              <InterpolatingParam id="2493" interp="linr"  time="0/1" value="1" leadInLength="0/1"  name="volume"/>
              <Parameter id="2494"  name="captions"/>
             </Parameters>
             <Attributes>
              <Attribute id="2495" value="" name="ident"/>
              <Attribute id="2496" value="44100" name="sampleRate"/>
              <Attribute id="2497" value="16" name="bitDepth"/>
              <Attribute id="2498" value="1" name="gain"/>
              <Attribute id="2499" value="0" name="mixToMono"/>
             </Attributes>
            </AMFile>
            <ScreenVMFile id="2500" start="12341" duration="2" scalar="1/1" mediaStart="15983/1" mediaDuration="2/1" trackNumber="0" src="4" >
             <Transformer>
              <VectorParam id="2501"  name="translation">
               <InterpolatingParam id="2502" interp="linr"  time="-9999999/1" value="0" leadInLength="0/1"  />
               <InterpolatingParam id="2503" interp="linr"  time="-9999999/1" value="0" leadInLength="0/1"  />
               <InterpolatingParam id="2504" interp="linr"  time="-9999999/1" value="0" leadInLength="0/1"  />
              </VectorParam>
              <VectorParam id="2505"  name="rotation">
               <InterpolatingParam id="2506" interp="linr"  time="-9999999/1" value="0" leadInLength="0/1"  />
               <InterpolatingParam id="2507" interp="linr"  time="-9999999/1" value="0" leadInLength="0/1"  />
               <InterpolatingParam id="2508" interp="linr"  time="-9999999/1" value="0" leadInLength="0/1"  />
              </VectorParam>
              <VectorParam id="2509"  name="shear">
               <InterpolatingParam id="2510" interp="linr"  time="-9999999/1" value="0" leadInLength="0/1"  />
               <InterpolatingParam id="2511" interp="linr"  time="-9999999/1" value="0" leadInLength="0/1"  />
               <InterpolatingParam id="2512" interp="linr"  time="-9999999/1" value="0" leadInLength="0/1"  />
              </VectorParam>
              <VectorParam id="2513"  name="scale">
               <InterpolatingParam id="2514" interp="linr"  time="-9999999/1" value="1" leadInLength="0/1"  />
               <InterpolatingParam id="2515" interp="linr"  time="-9999999/1" value="1" leadInLength="0/1"  />
               <InterpolatingParam id="2516" interp="linr"  time="-9999999/1" value="1" leadInLength="0/1"  />
              </VectorParam>
              <VectorParam id="2517"  name="anchor">
               <InterpolatingParam id="2518" interp="linr"  time="0/1" value="0" leadInLength="0/1"  />
               <InterpolatingParam id="2519" interp="linr"  time="0/1" value="0" leadInLength="0/1"  />
               <InterpolatingParam id="2520" interp="linr"  time="0/1" value="0" leadInLength="0/1"  />
              </VectorParam>
             </Transformer>
             <Parameters>
              <VectorParam id="2521"  name="sourceCrop">
               <InterpolatingParam id="2522" interp="linr"  time="0/1" value="0" leadInLength="0/1"  />
               <InterpolatingParam id="2523" interp="linr"  time="0/1" value="0" leadInLength="0/1"  />
               <InterpolatingParam id="2524" interp="linr"  time="0/1" value="0" leadInLength="0/1"  />
               <InterpolatingParam id="2525" interp="linr"  time="0/1" value="0" leadInLength="0/1"  />
              </VectorParam>
              <VectorParam id="2526"  name="geometryCrop">
               <InterpolatingParam id="2527" interp="linr"  time="-9999999/1" value="0" leadInLength="0/1"  />
               <InterpolatingParam id="2528" interp="linr"  time="-9999999/1" value="0" leadInLength="0/1"  />
               <InterpolatingParam id="2529" interp="linr"  time="-9999999/1" value="0" leadInLength="0/1"  />
               <InterpolatingParam id="2530" interp="linr"  time="-9999999/1" value="0" leadInLength="0/1"  />
              </VectorParam>
              <InterpolatingParam id="2531" interp="linr"  time="-9999999/1" value="1" leadInLength="0/1"  name="opacity"/>
              <InterpolatingParam id="2532" interp="linr"  time="0/1" value="0" leadInLength="0/1"  name="cursorOpacity"/>
              <InterpolatingParam id="2533" interp="linr"  time="0/1" value="0" leadInLength="0/1"  name="cursorScale"/>
             </Parameters>
             <Attributes>
              <Attribute id="2534" value="" name="ident"/>
             </Attributes>
             <ExtraData>
              <Entry key="ZoomPanBin">
               <ZoomPanBin id="2535"  >
                <ZoomPanKeyframes>
                 <ZoomPanKeyframe id="2536" timeRangeEnd="-9999999/1" timeRangeDuration="0/1" interpolaterName=""  />
                </ZoomPanKeyframes>
               </ZoomPanBin>
              </Entry>
              <Entry key="CursorEffectBin">
               <CursorEffectBin id="2537"  >
                <CursorEffectKeyframes>
                </CursorEffectKeyframes>
               </CursorEffectBin>
              </Entry>
             </ExtraData>
            </ScreenVMFile>
            <MetaData>
             <entry key="AutoAppliedSmartFocus" val="False"/>
             <entry key="WinSubProjectDisplayName" val=""/>
            </MetaData>
           </UnifiedMedia>
           <UnifiedMedia id="2538"  >
            <AMFile id="2539" start="12343" duration="640" scalar="1/1" mediaStart="16012/1" mediaDuration="640/1" trackNumber="1" src="4" channelNumber="0,1" >
             <Parameters>
              <InterpolatingParam id="2540" interp="linr"  time="0/1" value="1" leadInLength="0/1"  name="volume"/>
              <Parameter id="2541"  name="captions"/>
             </Parameters>
             <Attributes>
              <Attribute id="2542" value="" name="ident"/>
              <Attribute id="2543" value="44100" name="sampleRate"/>
              <Attribute id="2544" value="16" name="bitDepth"/>
              <Attribute id="2545" value="1" name="gain"/>
              <Attribute id="2546" value="0" name="mixToMono"/>
             </Attributes>
            </AMFile>
            <ScreenVMFile id="2547" start="12343" duration="640" scalar="1/1" mediaStart="16012/1" mediaDuration="640/1" trackNumber="0" src="4" >
             <Transformer>
              <VectorParam id="2548"  name="translation">
               <InterpolatingParam id="2549" interp="linr"  time="-9999999/1" value="0" leadInLength="0/1"  />
               <InterpolatingParam id="2550" interp="linr"  time="-9999999/1" value="0" leadInLength="0/1"  />
               <InterpolatingParam id="2551" interp="linr"  time="-9999999/1" value="0" leadInLength="0/1"  />
              </VectorParam>
              <VectorParam id="2552"  name="rotation">
               <InterpolatingParam id="2553" interp="linr"  time="-9999999/1" value="0" leadInLength="0/1"  />
               <InterpolatingParam id="2554" interp="linr"  time="-9999999/1" value="0" leadInLength="0/1"  />
               <InterpolatingParam id="2555" interp="linr"  time="-9999999/1" value="0" leadInLength="0/1"  />
              </VectorParam>
              <VectorParam id="2556"  name="shear">
               <InterpolatingParam id="2557" interp="linr"  time="-9999999/1" value="0" leadInLength="0/1"  />
               <InterpolatingParam id="2558" interp="linr"  time="-9999999/1" value="0" leadInLength="0/1"  />
               <InterpolatingParam id="2559" interp="linr"  time="-9999999/1" value="0" leadInLength="0/1"  />
              </VectorParam>
              <VectorParam id="2560"  name="scale">
               <InterpolatingParam id="2561" interp="linr"  time="-9999999/1" value="1" leadInLength="0/1"  />
               <InterpolatingParam id="2562" interp="linr"  time="-9999999/1" value="1" leadInLength="0/1"  />
               <InterpolatingParam id="2563" interp="linr"  time="-9999999/1" value="1" leadInLength="0/1"  />
              </VectorParam>
              <VectorParam id="2564"  name="anchor">
               <InterpolatingParam id="2565" interp="linr"  time="0/1" value="0" leadInLength="0/1"  />
               <InterpolatingParam id="2566" interp="linr"  time="0/1" value="0" leadInLength="0/1"  />
               <InterpolatingParam id="2567" interp="linr"  time="0/1" value="0" leadInLength="0/1"  />
              </VectorParam>
             </Transformer>
             <Parameters>
              <VectorParam id="2568"  name="sourceCrop">
               <InterpolatingParam id="2569" interp="linr"  time="0/1" value="0" leadInLength="0/1"  />
               <InterpolatingParam id="2570" interp="linr"  time="0/1" value="0" leadInLength="0/1"  />
               <InterpolatingParam id="2571" interp="linr"  time="0/1" value="0" leadInLength="0/1"  />
               <InterpolatingParam id="2572" interp="linr"  time="0/1" value="0" leadInLength="0/1"  />
              </VectorParam>
              <VectorParam id="2573"  name="geometryCrop">
               <InterpolatingParam id="2574" interp="linr"  time="-9999999/1" value="0" leadInLength="0/1"  />
               <InterpolatingParam id="2575" interp="linr"  time="-9999999/1" value="0" leadInLength="0/1"  />
               <InterpolatingParam id="2576" interp="linr"  time="-9999999/1" value="0" leadInLength="0/1"  />
               <InterpolatingParam id="2577" interp="linr"  time="-9999999/1" value="0" leadInLength="0/1"  />
              </VectorParam>
              <InterpolatingParam id="2578" interp="linr"  time="-9999999/1" value="1" leadInLength="0/1"  name="opacity"/>
              <InterpolatingParam id="2579" interp="linr"  time="0/1" value="0" leadInLength="0/1"  name="cursorOpacity"/>
              <InterpolatingParam id="2580" interp="linr"  time="0/1" value="0" leadInLength="0/1"  name="cursorScale"/>
             </Parameters>
             <Attributes>
              <Attribute id="2581" value="" name="ident"/>
             </Attributes>
             <ExtraData>
              <Entry key="ZoomPanBin">
               <ZoomPanBin id="2582"  >
                <ZoomPanKeyframes>
                 <ZoomPanKeyframe id="2583" timeRangeEnd="-9999999/1" timeRangeDuration="0/1" interpolaterName=""  />
                </ZoomPanKeyframes>
               </ZoomPanBin>
              </Entry>
              <Entry key="CursorEffectBin">
               <CursorEffectBin id="2584"  >
                <CursorEffectKeyframes>
                </CursorEffectKeyframes>
               </CursorEffectBin>
              </Entry>
             </ExtraData>
            </ScreenVMFile>
            <MetaData>
             <entry key="AutoAppliedSmartFocus" val="False"/>
             <entry key="WinSubProjectDisplayName" val=""/>
            </MetaData>
           </UnifiedMedia>
           <UnifiedMedia id="2585"  >
            <AMFile id="2586" start="12983" duration="1299" scalar="1/1" mediaStart="17188/1" mediaDuration="1299/1" trackNumber="1" src="4" channelNumber="0,1" >
             <Parameters>
              <InterpolatingParam id="2587" interp="linr"  time="0/1" value="1" leadInLength="0/1"  name="volume"/>
              <Parameter id="2588"  name="captions"/>
             </Parameters>
             <Attributes>
              <Attribute id="2589" value="" name="ident"/>
              <Attribute id="2590" value="44100" name="sampleRate"/>
              <Attribute id="2591" value="16" name="bitDepth"/>
              <Attribute id="2592" value="1" name="gain"/>
              <Attribute id="2593" value="0" name="mixToMono"/>
             </Attributes>
            </AMFile>
            <ScreenVMFile id="2594" start="12983" duration="1299" scalar="1/1" mediaStart="17188/1" mediaDuration="1299/1" trackNumber="0" src="4" >
             <Transformer>
              <VectorParam id="2595"  name="translation">
               <InterpolatingParam id="2596" interp="linr"  time="-9999999/1" value="0" leadInLength="0/1"  />
               <InterpolatingParam id="2597" interp="linr"  time="-9999999/1" value="0" leadInLength="0/1"  />
               <InterpolatingParam id="2598" interp="linr"  time="-9999999/1" value="0" leadInLength="0/1"  />
              </VectorParam>
              <VectorParam id="2599"  name="rotation">
               <InterpolatingParam id="2600" interp="linr"  time="-9999999/1" value="0" leadInLength="0/1"  />
               <InterpolatingParam id="2601" interp="linr"  time="-9999999/1" value="0" leadInLength="0/1"  />
               <InterpolatingParam id="2602" interp="linr"  time="-9999999/1" value="0" leadInLength="0/1"  />
              </VectorParam>
              <VectorParam id="2603"  name="shear">
               <InterpolatingParam id="2604" interp="linr"  time="-9999999/1" value="0" leadInLength="0/1"  />
               <InterpolatingParam id="2605" interp="linr"  time="-9999999/1" value="0" leadInLength="0/1"  />
               <InterpolatingParam id="2606" interp="linr"  time="-9999999/1" value="0" leadInLength="0/1"  />
              </VectorParam>
              <VectorParam id="2607"  name="scale">
               <InterpolatingParam id="2608" interp="linr"  time="-9999999/1" value="1" leadInLength="0/1"  />
               <InterpolatingParam id="2609" interp="linr"  time="-9999999/1" value="1" leadInLength="0/1"  />
               <InterpolatingParam id="2610" interp="linr"  time="-9999999/1" value="1" leadInLength="0/1"  />
              </VectorParam>
              <VectorParam id="2611"  name="anchor">
               <InterpolatingParam id="2612" interp="linr"  time="0/1" value="0" leadInLength="0/1"  />
               <InterpolatingParam id="2613" interp="linr"  time="0/1" value="0" leadInLength="0/1"  />
               <InterpolatingParam id="2614" interp="linr"  time="0/1" value="0" leadInLength="0/1"  />
              </VectorParam>
             </Transformer>
             <Parameters>
              <VectorParam id="2615"  name="sourceCrop">
               <InterpolatingParam id="2616" interp="linr"  time="0/1" value="0" leadInLength="0/1"  />
               <InterpolatingParam id="2617" interp="linr"  time="0/1" value="0" leadInLength="0/1"  />
               <InterpolatingParam id="2618" interp="linr"  time="0/1" value="0" leadInLength="0/1"  />
               <InterpolatingParam id="2619" interp="linr"  time="0/1" value="0" leadInLength="0/1"  />
              </VectorParam>
              <VectorParam id="2620"  name="geometryCrop">
               <InterpolatingParam id="2621" interp="linr"  time="-9999999/1" value="0" leadInLength="0/1"  />
               <InterpolatingParam id="2622" interp="linr"  time="-9999999/1" value="0" leadInLength="0/1"  />
               <InterpolatingParam id="2623" interp="linr"  time="-9999999/1" value="0" leadInLength="0/1"  />
               <InterpolatingParam id="2624" interp="linr"  time="-9999999/1" value="0" leadInLength="0/1"  />
              </VectorParam>
              <InterpolatingParam id="2625" interp="linr"  time="-9999999/1" value="1" leadInLength="0/1"  name="opacity"/>
              <InterpolatingParam id="2626" interp="linr"  time="0/1" value="0" leadInLength="0/1"  name="cursorOpacity"/>
              <InterpolatingParam id="2627" interp="linr"  time="0/1" value="0" leadInLength="0/1"  name="cursorScale"/>
             </Parameters>
             <Attributes>
              <Attribute id="2628" value="" name="ident"/>
             </Attributes>
             <ExtraData>
              <Entry key="ZoomPanBin">
               <ZoomPanBin id="2629"  >
                <ZoomPanKeyframes>
                 <ZoomPanKeyframe id="2630" timeRangeEnd="-9999999/1" timeRangeDuration="0/1" interpolaterName=""  />
                </ZoomPanKeyframes>
               </ZoomPanBin>
              </Entry>
              <Entry key="CursorEffectBin">
               <CursorEffectBin id="2631"  >
                <CursorEffectKeyframes>
                </CursorEffectKeyframes>
               </CursorEffectBin>
              </Entry>
             </ExtraData>
            </ScreenVMFile>
            <MetaData>
             <entry key="AutoAppliedSmartFocus" val="False"/>
             <entry key="WinSubProjectDisplayName" val=""/>
            </MetaData>
           </UnifiedMedia>
           <UnifiedMedia id="2632"  >
            <AMFile id="2633" start="14282" duration="375" scalar="1/1" mediaStart="19157/1" mediaDuration="375/1" trackNumber="1" src="4" channelNumber="0,1" >
             <Parameters>
              <InterpolatingParam id="2634" interp="linr"  time="0/1" value="1" leadInLength="0/1"  name="volume"/>
              <Parameter id="2635"  name="captions"/>
             </Parameters>
             <Attributes>
              <Attribute id="2636" value="" name="ident"/>
              <Attribute id="2637" value="44100" name="sampleRate"/>
              <Attribute id="2638" value="16" name="bitDepth"/>
              <Attribute id="2639" value="1" name="gain"/>
              <Attribute id="2640" value="0" name="mixToMono"/>
             </Attributes>
            </AMFile>
            <ScreenVMFile id="2641" start="14282" duration="375" scalar="1/1" mediaStart="19157/1" mediaDuration="375/1" trackNumber="0" src="4" >
             <Transformer>
              <VectorParam id="2642"  name="translation">
               <InterpolatingParam id="2643" interp="linr"  time="-9999999/1" value="0" leadInLength="0/1"  />
               <InterpolatingParam id="2644" interp="linr"  time="-9999999/1" value="0" leadInLength="0/1"  />
               <InterpolatingParam id="2645" interp="linr"  time="-9999999/1" value="0" leadInLength="0/1"  />
              </VectorParam>
              <VectorParam id="2646"  name="rotation">
               <InterpolatingParam id="2647" interp="linr"  time="-9999999/1" value="0" leadInLength="0/1"  />
               <InterpolatingParam id="2648" interp="linr"  time="-9999999/1" value="0" leadInLength="0/1"  />
               <InterpolatingParam id="2649" interp="linr"  time="-9999999/1" value="0" leadInLength="0/1"  />
              </VectorParam>
              <VectorParam id="2650"  name="shear">
               <InterpolatingParam id="2651" interp="linr"  time="-9999999/1" value="0" leadInLength="0/1"  />
               <InterpolatingParam id="2652" interp="linr"  time="-9999999/1" value="0" leadInLength="0/1"  />
               <InterpolatingParam id="2653" interp="linr"  time="-9999999/1" value="0" leadInLength="0/1"  />
              </VectorParam>
              <VectorParam id="2654"  name="scale">
               <InterpolatingParam id="2655" interp="linr"  time="-9999999/1" value="1" leadInLength="0/1"  />
               <InterpolatingParam id="2656" interp="linr"  time="-9999999/1" value="1" leadInLength="0/1"  />
               <InterpolatingParam id="2657" interp="linr"  time="-9999999/1" value="1" leadInLength="0/1"  />
              </VectorParam>
              <VectorParam id="2658"  name="anchor">
               <InterpolatingParam id="2659" interp="linr"  time="0/1" value="0" leadInLength="0/1"  />
               <InterpolatingParam id="2660" interp="linr"  time="0/1" value="0" leadInLength="0/1"  />
               <InterpolatingParam id="2661" interp="linr"  time="0/1" value="0" leadInLength="0/1"  />
              </VectorParam>
             </Transformer>
             <Parameters>
              <VectorParam id="2662"  name="sourceCrop">
               <InterpolatingParam id="2663" interp="linr"  time="0/1" value="0" leadInLength="0/1"  />
               <InterpolatingParam id="2664" interp="linr"  time="0/1" value="0" leadInLength="0/1"  />
               <InterpolatingParam id="2665" interp="linr"  time="0/1" value="0" leadInLength="0/1"  />
               <InterpolatingParam id="2666" interp="linr"  time="0/1" value="0" leadInLength="0/1"  />
              </VectorParam>
              <VectorParam id="2667"  name="geometryCrop">
               <InterpolatingParam id="2668" interp="linr"  time="-9999999/1" value="0" leadInLength="0/1"  />
               <InterpolatingParam id="2669" interp="linr"  time="-9999999/1" value="0" leadInLength="0/1"  />
               <InterpolatingParam id="2670" interp="linr"  time="-9999999/1" value="0" leadInLength="0/1"  />
               <InterpolatingParam id="2671" interp="linr"  time="-9999999/1" value="0" leadInLength="0/1"  />
              </VectorParam>
              <InterpolatingParam id="2672" interp="linr"  time="-9999999/1" value="1" leadInLength="0/1"  name="opacity"/>
              <InterpolatingParam id="2673" interp="linr"  time="0/1" value="0" leadInLength="0/1"  name="cursorOpacity"/>
              <InterpolatingParam id="2674" interp="linr"  time="0/1" value="0" leadInLength="0/1"  name="cursorScale"/>
             </Parameters>
             <Attributes>
              <Attribute id="2675" value="" name="ident"/>
             </Attributes>
             <ExtraData>
              <Entry key="ZoomPanBin">
               <ZoomPanBin id="2676"  >
                <ZoomPanKeyframes>
                 <ZoomPanKeyframe id="2677" timeRangeEnd="-9999999/1" timeRangeDuration="0/1" interpolaterName=""  />
                </ZoomPanKeyframes>
               </ZoomPanBin>
              </Entry>
              <Entry key="CursorEffectBin">
               <CursorEffectBin id="2678"  >
                <CursorEffectKeyframes>
                </CursorEffectKeyframes>
               </CursorEffectBin>
              </Entry>
             </ExtraData>
            </ScreenVMFile>
            <MetaData>
             <entry key="AutoAppliedSmartFocus" val="False"/>
             <entry key="WinSubProjectDisplayName" val=""/>
            </MetaData>
           </UnifiedMedia>
           <UnifiedMedia id="2679"  >
            <AMFile id="2680" start="14657" duration="2964" scalar="1/1" mediaStart="19744/1" mediaDuration="2964/1" trackNumber="1" src="4" channelNumber="0,1" >
             <Parameters>
              <InterpolatingParam id="2681" interp="linr"  time="0/1" value="1" leadInLength="0/1"  name="volume"/>
              <Parameter id="2682"  name="captions"/>
             </Parameters>
             <Attributes>
              <Attribute id="2683" value="" name="ident"/>
              <Attribute id="2684" value="44100" name="sampleRate"/>
              <Attribute id="2685" value="16" name="bitDepth"/>
              <Attribute id="2686" value="1" name="gain"/>
              <Attribute id="2687" value="0" name="mixToMono"/>
             </Attributes>
            </AMFile>
            <ScreenVMFile id="2688" start="14657" duration="2964" scalar="1/1" mediaStart="19744/1" mediaDuration="2964/1" trackNumber="0" src="4" >
             <Transformer>
              <VectorParam id="2689"  name="translation">
               <InterpolatingParam id="2690" interp="linr"  time="-9999999/1" value="0" leadInLength="0/1"  />
               <InterpolatingParam id="2691" interp="linr"  time="-9999999/1" value="0" leadInLength="0/1"  />
               <InterpolatingParam id="2692" interp="linr"  time="-9999999/1" value="0" leadInLength="0/1"  />
              </VectorParam>
              <VectorParam id="2693"  name="rotation">
               <InterpolatingParam id="2694" interp="linr"  time="-9999999/1" value="0" leadInLength="0/1"  />
               <InterpolatingParam id="2695" interp="linr"  time="-9999999/1" value="0" leadInLength="0/1"  />
               <InterpolatingParam id="2696" interp="linr"  time="-9999999/1" value="0" leadInLength="0/1"  />
              </VectorParam>
              <VectorParam id="2697"  name="shear">
               <InterpolatingParam id="2698" interp="linr"  time="-9999999/1" value="0" leadInLength="0/1"  />
               <InterpolatingParam id="2699" interp="linr"  time="-9999999/1" value="0" leadInLength="0/1"  />
               <InterpolatingParam id="2700" interp="linr"  time="-9999999/1" value="0" leadInLength="0/1"  />
              </VectorParam>
              <VectorParam id="2701"  name="scale">
               <InterpolatingParam id="2702" interp="linr"  time="-9999999/1" value="1" leadInLength="0/1"  />
               <InterpolatingParam id="2703" interp="linr"  time="-9999999/1" value="1" leadInLength="0/1"  />
               <InterpolatingParam id="2704" interp="linr"  time="-9999999/1" value="1" leadInLength="0/1"  />
              </VectorParam>
              <VectorParam id="2705"  name="anchor">
               <InterpolatingParam id="2706" interp="linr"  time="0/1" value="0" leadInLength="0/1"  />
               <InterpolatingParam id="2707" interp="linr"  time="0/1" value="0" leadInLength="0/1"  />
               <InterpolatingParam id="2708" interp="linr"  time="0/1" value="0" leadInLength="0/1"  />
              </VectorParam>
             </Transformer>
             <Parameters>
              <VectorParam id="2709"  name="sourceCrop">
               <InterpolatingParam id="2710" interp="linr"  time="0/1" value="0" leadInLength="0/1"  />
               <InterpolatingParam id="2711" interp="linr"  time="0/1" value="0" leadInLength="0/1"  />
               <InterpolatingParam id="2712" interp="linr"  time="0/1" value="0" leadInLength="0/1"  />
               <InterpolatingParam id="2713" interp="linr"  time="0/1" value="0" leadInLength="0/1"  />
              </VectorParam>
              <VectorParam id="2714"  name="geometryCrop">
               <InterpolatingParam id="2715" interp="linr"  time="-9999999/1" value="0" leadInLength="0/1"  />
               <InterpolatingParam id="2716" interp="linr"  time="-9999999/1" value="0" leadInLength="0/1"  />
               <InterpolatingParam id="2717" interp="linr"  time="-9999999/1" value="0" leadInLength="0/1"  />
               <InterpolatingParam id="2718" interp="linr"  time="-9999999/1" value="0" leadInLength="0/1"  />
              </VectorParam>
              <InterpolatingParam id="2719" interp="linr"  time="-9999999/1" value="1" leadInLength="0/1"  name="opacity"/>
              <InterpolatingParam id="2720" interp="linr"  time="0/1" value="0" leadInLength="0/1"  name="cursorOpacity"/>
              <InterpolatingParam id="2721" interp="linr"  time="0/1" value="0" leadInLength="0/1"  name="cursorScale"/>
             </Parameters>
             <Attributes>
              <Attribute id="2722" value="" name="ident"/>
             </Attributes>
             <ExtraData>
              <Entry key="ZoomPanBin">
               <ZoomPanBin id="2723"  >
                <ZoomPanKeyframes>
                 <ZoomPanKeyframe id="2724" timeRangeEnd="-9999999/1" timeRangeDuration="0/1" interpolaterName=""  />
                </ZoomPanKeyframes>
               </ZoomPanBin>
              </Entry>
              <Entry key="CursorEffectBin">
               <CursorEffectBin id="2725"  >
                <CursorEffectKeyframes>
                </CursorEffectKeyframes>
               </CursorEffectBin>
              </Entry>
             </ExtraData>
            </ScreenVMFile>
            <MetaData>
             <entry key="AutoAppliedSmartFocus" val="False"/>
             <entry key="WinSubProjectDisplayName" val=""/>
            </MetaData>
           </UnifiedMedia>
           <UnifiedMedia id="2726"  >
            <AMFile id="2727" start="17621" duration="903" scalar="1/1" mediaStart="22725/1" mediaDuration="903/1" trackNumber="1" src="4" channelNumber="0,1" >
             <Parameters>
              <InterpolatingParam id="2728" interp="linr"  time="0/1" value="1" leadInLength="0/1"  name="volume"/>
              <Parameter id="2729"  name="captions"/>
             </Parameters>
             <Attributes>
              <Attribute id="2730" value="" name="ident"/>
              <Attribute id="2731" value="44100" name="sampleRate"/>
              <Attribute id="2732" value="16" name="bitDepth"/>
              <Attribute id="2733" value="1" name="gain"/>
              <Attribute id="2734" value="0" name="mixToMono"/>
             </Attributes>
            </AMFile>
            <ScreenVMFile id="2735" start="17621" duration="903" scalar="1/1" mediaStart="22725/1" mediaDuration="903/1" trackNumber="0" src="4" >
             <Transformer>
              <VectorParam id="2736"  name="translation">
               <InterpolatingParam id="2737" interp="linr"  time="-9999999/1" value="0" leadInLength="0/1"  />
               <InterpolatingParam id="2738" interp="linr"  time="-9999999/1" value="0" leadInLength="0/1"  />
               <InterpolatingParam id="2739" interp="linr"  time="-9999999/1" value="0" leadInLength="0/1"  />
              </VectorParam>
              <VectorParam id="2740"  name="rotation">
               <InterpolatingParam id="2741" interp="linr"  time="-9999999/1" value="0" leadInLength="0/1"  />
               <InterpolatingParam id="2742" interp="linr"  time="-9999999/1" value="0" leadInLength="0/1"  />
               <InterpolatingParam id="2743" interp="linr"  time="-9999999/1" value="0" leadInLength="0/1"  />
              </VectorParam>
              <VectorParam id="2744"  name="shear">
               <InterpolatingParam id="2745" interp="linr"  time="-9999999/1" value="0" leadInLength="0/1"  />
               <InterpolatingParam id="2746" interp="linr"  time="-9999999/1" value="0" leadInLength="0/1"  />
               <InterpolatingParam id="2747" interp="linr"  time="-9999999/1" value="0" leadInLength="0/1"  />
              </VectorParam>
              <VectorParam id="2748"  name="scale">
               <InterpolatingParam id="2749" interp="linr"  time="-9999999/1" value="1" leadInLength="0/1"  />
               <InterpolatingParam id="2750" interp="linr"  time="-9999999/1" value="1" leadInLength="0/1"  />
               <InterpolatingParam id="2751" interp="linr"  time="-9999999/1" value="1" leadInLength="0/1"  />
              </VectorParam>
              <VectorParam id="2752"  name="anchor">
               <InterpolatingParam id="2753" interp="linr"  time="0/1" value="0" leadInLength="0/1"  />
               <InterpolatingParam id="2754" interp="linr"  time="0/1" value="0" leadInLength="0/1"  />
               <InterpolatingParam id="2755" interp="linr"  time="0/1" value="0" leadInLength="0/1"  />
              </VectorParam>
             </Transformer>
             <Parameters>
              <VectorParam id="2756"  name="sourceCrop">
               <InterpolatingParam id="2757" interp="linr"  time="0/1" value="0" leadInLength="0/1"  />
               <InterpolatingParam id="2758" interp="linr"  time="0/1" value="0" leadInLength="0/1"  />
               <InterpolatingParam id="2759" interp="linr"  time="0/1" value="0" leadInLength="0/1"  />
               <InterpolatingParam id="2760" interp="linr"  time="0/1" value="0" leadInLength="0/1"  />
              </VectorParam>
              <VectorParam id="2761"  name="geometryCrop">
               <InterpolatingParam id="2762" interp="linr"  time="-9999999/1" value="0" leadInLength="0/1"  />
               <InterpolatingParam id="2763" interp="linr"  time="-9999999/1" value="0" leadInLength="0/1"  />
               <InterpolatingParam id="2764" interp="linr"  time="-9999999/1" value="0" leadInLength="0/1"  />
               <InterpolatingParam id="2765" interp="linr"  time="-9999999/1" value="0" leadInLength="0/1"  />
              </VectorParam>
              <InterpolatingParam id="2766" interp="linr"  time="-9999999/1" value="1" leadInLength="0/1"  name="opacity"/>
              <InterpolatingParam id="2767" interp="linr"  time="0/1" value="0" leadInLength="0/1"  name="cursorOpacity"/>
              <InterpolatingParam id="2768" interp="linr"  time="0/1" value="0" leadInLength="0/1"  name="cursorScale"/>
             </Parameters>
             <Attributes>
              <Attribute id="2769" value="" name="ident"/>
             </Attributes>
             <ExtraData>
              <Entry key="ZoomPanBin">
               <ZoomPanBin id="2770"  >
                <ZoomPanKeyframes>
                 <ZoomPanKeyframe id="2771" timeRangeEnd="-9999999/1" timeRangeDuration="0/1" interpolaterName=""  />
                </ZoomPanKeyframes>
               </ZoomPanBin>
              </Entry>
              <Entry key="CursorEffectBin">
               <CursorEffectBin id="2772"  >
                <CursorEffectKeyframes>
                </CursorEffectKeyframes>
               </CursorEffectBin>
              </Entry>
             </ExtraData>
            </ScreenVMFile>
            <MetaData>
             <entry key="AutoAppliedSmartFocus" val="False"/>
             <entry key="WinSubProjectDisplayName" val=""/>
            </MetaData>
           </UnifiedMedia>
           <UnifiedMedia id="2773"  >
            <AMFile id="2774" start="18524" duration="123" scalar="1/1" mediaStart="24240/1" mediaDuration="123/1" trackNumber="1" src="4" channelNumber="0,1" >
             <Parameters>
              <InterpolatingParam id="2775" interp="linr"  time="0/1" value="1" leadInLength="0/1"  name="volume"/>
              <Parameter id="2776"  name="captions"/>
             </Parameters>
             <Attributes>
              <Attribute id="2777" value="" name="ident"/>
              <Attribute id="2778" value="44100" name="sampleRate"/>
              <Attribute id="2779" value="16" name="bitDepth"/>
              <Attribute id="2780" value="1" name="gain"/>
              <Attribute id="2781" value="0" name="mixToMono"/>
             </Attributes>
            </AMFile>
            <ScreenVMFile id="2782" start="18524" duration="123" scalar="1/1" mediaStart="24240/1" mediaDuration="123/1" trackNumber="0" src="4" >
             <Transformer>
              <VectorParam id="2783"  name="translation">
               <InterpolatingParam id="2784" interp="linr"  time="-9999999/1" value="0" leadInLength="0/1"  />
               <InterpolatingParam id="2785" interp="linr"  time="-9999999/1" value="0" leadInLength="0/1"  />
               <InterpolatingParam id="2786" interp="linr"  time="-9999999/1" value="0" leadInLength="0/1"  />
              </VectorParam>
              <VectorParam id="2787"  name="rotation">
               <InterpolatingParam id="2788" interp="linr"  time="-9999999/1" value="0" leadInLength="0/1"  />
               <InterpolatingParam id="2789" interp="linr"  time="-9999999/1" value="0" leadInLength="0/1"  />
               <InterpolatingParam id="2790" interp="linr"  time="-9999999/1" value="0" leadInLength="0/1"  />
              </VectorParam>
              <VectorParam id="2791"  name="shear">
               <InterpolatingParam id="2792" interp="linr"  time="-9999999/1" value="0" leadInLength="0/1"  />
               <InterpolatingParam id="2793" interp="linr"  time="-9999999/1" value="0" leadInLength="0/1"  />
               <InterpolatingParam id="2794" interp="linr"  time="-9999999/1" value="0" leadInLength="0/1"  />
              </VectorParam>
              <VectorParam id="2795"  name="scale">
               <InterpolatingParam id="2796" interp="linr"  time="-9999999/1" value="1" leadInLength="0/1"  />
               <InterpolatingParam id="2797" interp="linr"  time="-9999999/1" value="1" leadInLength="0/1"  />
               <InterpolatingParam id="2798" interp="linr"  time="-9999999/1" value="1" leadInLength="0/1"  />
              </VectorParam>
              <VectorParam id="2799"  name="anchor">
               <InterpolatingParam id="2800" interp="linr"  time="0/1" value="0" leadInLength="0/1"  />
               <InterpolatingParam id="2801" interp="linr"  time="0/1" value="0" leadInLength="0/1"  />
               <InterpolatingParam id="2802" interp="linr"  time="0/1" value="0" leadInLength="0/1"  />
              </VectorParam>
             </Transformer>
             <Parameters>
              <VectorParam id="2803"  name="sourceCrop">
               <InterpolatingParam id="2804" interp="linr"  time="0/1" value="0" leadInLength="0/1"  />
               <InterpolatingParam id="2805" interp="linr"  time="0/1" value="0" leadInLength="0/1"  />
               <InterpolatingParam id="2806" interp="linr"  time="0/1" value="0" leadInLength="0/1"  />
               <InterpolatingParam id="2807" interp="linr"  time="0/1" value="0" leadInLength="0/1"  />
              </VectorParam>
              <VectorParam id="2808"  name="geometryCrop">
               <InterpolatingParam id="2809" interp="linr"  time="-9999999/1" value="0" leadInLength="0/1"  />
               <InterpolatingParam id="2810" interp="linr"  time="-9999999/1" value="0" leadInLength="0/1"  />
               <InterpolatingParam id="2811" interp="linr"  time="-9999999/1" value="0" leadInLength="0/1"  />
               <InterpolatingParam id="2812" interp="linr"  time="-9999999/1" value="0" leadInLength="0/1"  />
              </VectorParam>
              <InterpolatingParam id="2813" interp="linr"  time="-9999999/1" value="1" leadInLength="0/1"  name="opacity"/>
              <InterpolatingParam id="2814" interp="linr"  time="0/1" value="0" leadInLength="0/1"  name="cursorOpacity"/>
              <InterpolatingParam id="2815" interp="linr"  time="0/1" value="0" leadInLength="0/1"  name="cursorScale"/>
             </Parameters>
             <Attributes>
              <Attribute id="2816" value="" name="ident"/>
             </Attributes>
             <ExtraData>
              <Entry key="ZoomPanBin">
               <ZoomPanBin id="2817"  >
                <ZoomPanKeyframes>
                 <ZoomPanKeyframe id="2818" timeRangeEnd="-9999999/1" timeRangeDuration="0/1" interpolaterName=""  />
                </ZoomPanKeyframes>
               </ZoomPanBin>
              </Entry>
              <Entry key="CursorEffectBin">
               <CursorEffectBin id="2819"  >
                <CursorEffectKeyframes>
                </CursorEffectKeyframes>
               </CursorEffectBin>
              </Entry>
             </ExtraData>
            </ScreenVMFile>
            <MetaData>
             <entry key="AutoAppliedSmartFocus" val="False"/>
             <entry key="WinSubProjectDisplayName" val=""/>
            </MetaData>
           </UnifiedMedia>
           <UnifiedMedia id="2820"  >
            <AMFile id="2821" start="18647" duration="71" scalar="1/1" mediaStart="24378/1" mediaDuration="71/1" trackNumber="1" src="4" channelNumber="0,1" >
             <Parameters>
              <InterpolatingParam id="2822" interp="linr"  time="0/1" value="1" leadInLength="0/1"  name="volume"/>
              <Parameter id="2823"  name="captions"/>
             </Parameters>
             <Attributes>
              <Attribute id="2824" value="" name="ident"/>
              <Attribute id="2825" value="44100" name="sampleRate"/>
              <Attribute id="2826" value="16" name="bitDepth"/>
              <Attribute id="2827" value="1" name="gain"/>
              <Attribute id="2828" value="0" name="mixToMono"/>
             </Attributes>
            </AMFile>
            <ScreenVMFile id="2829" start="18647" duration="71" scalar="1/1" mediaStart="24378/1" mediaDuration="71/1" trackNumber="0" src="4" >
             <Transformer>
              <VectorParam id="2830"  name="translation">
               <InterpolatingParam id="2831" interp="linr"  time="-9999999/1" value="0" leadInLength="0/1"  />
               <InterpolatingParam id="2832" interp="linr"  time="-9999999/1" value="0" leadInLength="0/1"  />
               <InterpolatingParam id="2833" interp="linr"  time="-9999999/1" value="0" leadInLength="0/1"  />
              </VectorParam>
              <VectorParam id="2834"  name="rotation">
               <InterpolatingParam id="2835" interp="linr"  time="-9999999/1" value="0" leadInLength="0/1"  />
               <InterpolatingParam id="2836" interp="linr"  time="-9999999/1" value="0" leadInLength="0/1"  />
               <InterpolatingParam id="2837" interp="linr"  time="-9999999/1" value="0" leadInLength="0/1"  />
              </VectorParam>
              <VectorParam id="2838"  name="shear">
               <InterpolatingParam id="2839" interp="linr"  time="-9999999/1" value="0" leadInLength="0/1"  />
               <InterpolatingParam id="2840" interp="linr"  time="-9999999/1" value="0" leadInLength="0/1"  />
               <InterpolatingParam id="2841" interp="linr"  time="-9999999/1" value="0" leadInLength="0/1"  />
              </VectorParam>
              <VectorParam id="2842"  name="scale">
               <InterpolatingParam id="2843" interp="linr"  time="-9999999/1" value="1" leadInLength="0/1"  />
               <InterpolatingParam id="2844" interp="linr"  time="-9999999/1" value="1" leadInLength="0/1"  />
               <InterpolatingParam id="2845" interp="linr"  time="-9999999/1" value="1" leadInLength="0/1"  />
              </VectorParam>
              <VectorParam id="2846"  name="anchor">
               <InterpolatingParam id="2847" interp="linr"  time="0/1" value="0" leadInLength="0/1"  />
               <InterpolatingParam id="2848" interp="linr"  time="0/1" value="0" leadInLength="0/1"  />
               <InterpolatingParam id="2849" interp="linr"  time="0/1" value="0" leadInLength="0/1"  />
              </VectorParam>
             </Transformer>
             <Parameters>
              <VectorParam id="2850"  name="sourceCrop">
               <InterpolatingParam id="2851" interp="linr"  time="0/1" value="0" leadInLength="0/1"  />
               <InterpolatingParam id="2852" interp="linr"  time="0/1" value="0" leadInLength="0/1"  />
               <InterpolatingParam id="2853" interp="linr"  time="0/1" value="0" leadInLength="0/1"  />
               <InterpolatingParam id="2854" interp="linr"  time="0/1" value="0" leadInLength="0/1"  />
              </VectorParam>
              <VectorParam id="2855"  name="geometryCrop">
               <InterpolatingParam id="2856" interp="linr"  time="-9999999/1" value="0" leadInLength="0/1"  />
               <InterpolatingParam id="2857" interp="linr"  time="-9999999/1" value="0" leadInLength="0/1"  />
               <InterpolatingParam id="2858" interp="linr"  time="-9999999/1" value="0" leadInLength="0/1"  />
               <InterpolatingParam id="2859" interp="linr"  time="-9999999/1" value="0" leadInLength="0/1"  />
              </VectorParam>
              <InterpolatingParam id="2860" interp="linr"  time="-9999999/1" value="1" leadInLength="0/1"  name="opacity"/>
              <InterpolatingParam id="2861" interp="linr"  time="0/1" value="0" leadInLength="0/1"  name="cursorOpacity"/>
              <InterpolatingParam id="2862" interp="linr"  time="0/1" value="0" leadInLength="0/1"  name="cursorScale"/>
             </Parameters>
             <Attributes>
              <Attribute id="2863" value="" name="ident"/>
             </Attributes>
             <ExtraData>
              <Entry key="ZoomPanBin">
               <ZoomPanBin id="2864"  >
                <ZoomPanKeyframes>
                 <ZoomPanKeyframe id="2865" timeRangeEnd="-9999999/1" timeRangeDuration="0/1" interpolaterName=""  />
                </ZoomPanKeyframes>
               </ZoomPanBin>
              </Entry>
              <Entry key="CursorEffectBin">
               <CursorEffectBin id="2866"  >
                <CursorEffectKeyframes>
                </CursorEffectKeyframes>
               </CursorEffectBin>
              </Entry>
             </ExtraData>
            </ScreenVMFile>
            <MetaData>
             <entry key="AutoAppliedSmartFocus" val="False"/>
             <entry key="WinSubProjectDisplayName" val=""/>
            </MetaData>
           </UnifiedMedia>
           <UnifiedMedia id="2867"  >
            <AMFile id="2868" start="18718" duration="524" scalar="1/1" mediaStart="24589/1" mediaDuration="524/1" trackNumber="1" src="4" channelNumber="0,1" >
             <Parameters>
              <InterpolatingParam id="2869" interp="linr"  time="0/1" value="1" leadInLength="0/1"  name="volume"/>
              <Parameter id="2870"  name="captions"/>
             </Parameters>
             <Attributes>
              <Attribute id="2871" value="" name="ident"/>
              <Attribute id="2872" value="44100" name="sampleRate"/>
              <Attribute id="2873" value="16" name="bitDepth"/>
              <Attribute id="2874" value="1" name="gain"/>
              <Attribute id="2875" value="0" name="mixToMono"/>
             </Attributes>
            </AMFile>
            <ScreenVMFile id="2876" start="18718" duration="524" scalar="1/1" mediaStart="24589/1" mediaDuration="524/1" trackNumber="0" src="4" >
             <Transformer>
              <VectorParam id="2877"  name="translation">
               <InterpolatingParam id="2878" interp="linr"  time="-9999999/1" value="0" leadInLength="0/1"  />
               <InterpolatingParam id="2879" interp="linr"  time="-9999999/1" value="0" leadInLength="0/1"  />
               <InterpolatingParam id="2880" interp="linr"  time="-9999999/1" value="0" leadInLength="0/1"  />
              </VectorParam>
              <VectorParam id="2881"  name="rotation">
               <InterpolatingParam id="2882" interp="linr"  time="-9999999/1" value="0" leadInLength="0/1"  />
               <InterpolatingParam id="2883" interp="linr"  time="-9999999/1" value="0" leadInLength="0/1"  />
               <InterpolatingParam id="2884" interp="linr"  time="-9999999/1" value="0" leadInLength="0/1"  />
              </VectorParam>
              <VectorParam id="2885"  name="shear">
               <InterpolatingParam id="2886" interp="linr"  time="-9999999/1" value="0" leadInLength="0/1"  />
               <InterpolatingParam id="2887" interp="linr"  time="-9999999/1" value="0" leadInLength="0/1"  />
               <InterpolatingParam id="2888" interp="linr"  time="-9999999/1" value="0" leadInLength="0/1"  />
              </VectorParam>
              <VectorParam id="2889"  name="scale">
               <InterpolatingParam id="2890" interp="linr"  time="-9999999/1" value="1" leadInLength="0/1"  />
               <InterpolatingParam id="2891" interp="linr"  time="-9999999/1" value="1" leadInLength="0/1"  />
               <InterpolatingParam id="2892" interp="linr"  time="-9999999/1" value="1" leadInLength="0/1"  />
              </VectorParam>
              <VectorParam id="2893"  name="anchor">
               <InterpolatingParam id="2894" interp="linr"  time="0/1" value="0" leadInLength="0/1"  />
               <InterpolatingParam id="2895" interp="linr"  time="0/1" value="0" leadInLength="0/1"  />
               <InterpolatingParam id="2896" interp="linr"  time="0/1" value="0" leadInLength="0/1"  />
              </VectorParam>
             </Transformer>
             <Parameters>
              <VectorParam id="2897"  name="sourceCrop">
               <InterpolatingParam id="2898" interp="linr"  time="0/1" value="0" leadInLength="0/1"  />
               <InterpolatingParam id="2899" interp="linr"  time="0/1" value="0" leadInLength="0/1"  />
               <InterpolatingParam id="2900" interp="linr"  time="0/1" value="0" leadInLength="0/1"  />
               <InterpolatingParam id="2901" interp="linr"  time="0/1" value="0" leadInLength="0/1"  />
              </VectorParam>
              <VectorParam id="2902"  name="geometryCrop">
               <InterpolatingParam id="2903" interp="linr"  time="-9999999/1" value="0" leadInLength="0/1"  />
               <InterpolatingParam id="2904" interp="linr"  time="-9999999/1" value="0" leadInLength="0/1"  />
               <InterpolatingParam id="2905" interp="linr"  time="-9999999/1" value="0" leadInLength="0/1"  />
               <InterpolatingParam id="2906" interp="linr"  time="-9999999/1" value="0" leadInLength="0/1"  />
              </VectorParam>
              <InterpolatingParam id="2907" interp="linr"  time="-9999999/1" value="1" leadInLength="0/1"  name="opacity"/>
              <InterpolatingParam id="2908" interp="linr"  time="0/1" value="0" leadInLength="0/1"  name="cursorOpacity"/>
              <InterpolatingParam id="2909" interp="linr"  time="0/1" value="0" leadInLength="0/1"  name="cursorScale"/>
             </Parameters>
             <Attributes>
              <Attribute id="2910" value="" name="ident"/>
             </Attributes>
             <ExtraData>
              <Entry key="ZoomPanBin">
               <ZoomPanBin id="2911"  >
                <ZoomPanKeyframes>
                 <ZoomPanKeyframe id="2912" timeRangeEnd="-9999999/1" timeRangeDuration="0/1" interpolaterName=""  />
                </ZoomPanKeyframes>
               </ZoomPanBin>
              </Entry>
              <Entry key="CursorEffectBin">
               <CursorEffectBin id="2913"  >
                <CursorEffectKeyframes>
                </CursorEffectKeyframes>
               </CursorEffectBin>
              </Entry>
             </ExtraData>
            </ScreenVMFile>
            <MetaData>
             <entry key="AutoAppliedSmartFocus" val="False"/>
             <entry key="WinSubProjectDisplayName" val=""/>
            </MetaData>
           </UnifiedMedia>
           <UnifiedMedia id="2914"  >
            <AMFile id="2915" start="19242" duration="261" scalar="1/1" mediaStart="25269/1" mediaDuration="261/1" trackNumber="1" src="4" channelNumber="0,1" >
             <Parameters>
              <InterpolatingParam id="2916" interp="linr"  time="0/1" value="1" leadInLength="0/1"  name="volume"/>
              <Parameter id="2917"  name="captions"/>
             </Parameters>
             <Attributes>
              <Attribute id="2918" value="" name="ident"/>
              <Attribute id="2919" value="44100" name="sampleRate"/>
              <Attribute id="2920" value="16" name="bitDepth"/>
              <Attribute id="2921" value="1" name="gain"/>
              <Attribute id="2922" value="0" name="mixToMono"/>
             </Attributes>
            </AMFile>
            <ScreenVMFile id="2923" start="19242" duration="261" scalar="1/1" mediaStart="25269/1" mediaDuration="261/1" trackNumber="0" src="4" >
             <Transformer>
              <VectorParam id="2924"  name="translation">
               <InterpolatingParam id="2925" interp="linr"  time="-9999999/1" value="0" leadInLength="0/1"  />
               <InterpolatingParam id="2926" interp="linr"  time="-9999999/1" value="0" leadInLength="0/1"  />
               <InterpolatingParam id="2927" interp="linr"  time="-9999999/1" value="0" leadInLength="0/1"  />
              </VectorParam>
              <VectorParam id="2928"  name="rotation">
               <InterpolatingParam id="2929" interp="linr"  time="-9999999/1" value="0" leadInLength="0/1"  />
               <InterpolatingParam id="2930" interp="linr"  time="-9999999/1" value="0" leadInLength="0/1"  />
               <InterpolatingParam id="2931" interp="linr"  time="-9999999/1" value="0" leadInLength="0/1"  />
              </VectorParam>
              <VectorParam id="2932"  name="shear">
               <InterpolatingParam id="2933" interp="linr"  time="-9999999/1" value="0" leadInLength="0/1"  />
               <InterpolatingParam id="2934" interp="linr"  time="-9999999/1" value="0" leadInLength="0/1"  />
               <InterpolatingParam id="2935" interp="linr"  time="-9999999/1" value="0" leadInLength="0/1"  />
              </VectorParam>
              <VectorParam id="2936"  name="scale">
               <InterpolatingParam id="2937" interp="linr"  time="-9999999/1" value="1" leadInLength="0/1"  />
               <InterpolatingParam id="2938" interp="linr"  time="-9999999/1" value="1" leadInLength="0/1"  />
               <InterpolatingParam id="2939" interp="linr"  time="-9999999/1" value="1" leadInLength="0/1"  />
              </VectorParam>
              <VectorParam id="2940"  name="anchor">
               <InterpolatingParam id="2941" interp="linr"  time="0/1" value="0" leadInLength="0/1"  />
               <InterpolatingParam id="2942" interp="linr"  time="0/1" value="0" leadInLength="0/1"  />
               <InterpolatingParam id="2943" interp="linr"  time="0/1" value="0" leadInLength="0/1"  />
              </VectorParam>
             </Transformer>
             <Parameters>
              <VectorParam id="2944"  name="sourceCrop">
               <InterpolatingParam id="2945" interp="linr"  time="0/1" value="0" leadInLength="0/1"  />
               <InterpolatingParam id="2946" interp="linr"  time="0/1" value="0" leadInLength="0/1"  />
               <InterpolatingParam id="2947" interp="linr"  time="0/1" value="0" leadInLength="0/1"  />
               <InterpolatingParam id="2948" interp="linr"  time="0/1" value="0" leadInLength="0/1"  />
              </VectorParam>
              <VectorParam id="2949"  name="geometryCrop">
               <InterpolatingParam id="2950" interp="linr"  time="-9999999/1" value="0" leadInLength="0/1"  />
               <InterpolatingParam id="2951" interp="linr"  time="-9999999/1" value="0" leadInLength="0/1"  />
               <InterpolatingParam id="2952" interp="linr"  time="-9999999/1" value="0" leadInLength="0/1"  />
               <InterpolatingParam id="2953" interp="linr"  time="-9999999/1" value="0" leadInLength="0/1"  />
              </VectorParam>
              <InterpolatingParam id="2954" interp="linr"  time="-9999999/1" value="1" leadInLength="0/1"  name="opacity"/>
              <InterpolatingParam id="2955" interp="linr"  time="0/1" value="0" leadInLength="0/1"  name="cursorOpacity"/>
              <InterpolatingParam id="2956" interp="linr"  time="0/1" value="0" leadInLength="0/1"  name="cursorScale"/>
             </Parameters>
             <Attributes>
              <Attribute id="2957" value="" name="ident"/>
             </Attributes>
             <ExtraData>
              <Entry key="ZoomPanBin">
               <ZoomPanBin id="2958"  >
                <ZoomPanKeyframes>
                 <ZoomPanKeyframe id="2959" timeRangeEnd="-9999999/1" timeRangeDuration="0/1" interpolaterName=""  />
                </ZoomPanKeyframes>
               </ZoomPanBin>
              </Entry>
              <Entry key="CursorEffectBin">
               <CursorEffectBin id="2960"  >
                <CursorEffectKeyframes>
                </CursorEffectKeyframes>
               </CursorEffectBin>
              </Entry>
             </ExtraData>
            </ScreenVMFile>
            <MetaData>
             <entry key="AutoAppliedSmartFocus" val="False"/>
             <entry key="WinSubProjectDisplayName" val=""/>
            </MetaData>
           </UnifiedMedia>
           <UnifiedMedia id="2961"  >
            <AMFile id="2962" start="19503" duration="1019" scalar="1/1" mediaStart="25580/1" mediaDuration="1019/1" trackNumber="1" src="4" channelNumber="0,1" >
             <Parameters>
              <InterpolatingParam id="2963" interp="linr"  time="0/1" value="1" leadInLength="0/1"  name="volume"/>
              <Parameter id="2964"  name="captions"/>
             </Parameters>
             <Attributes>
              <Attribute id="2965" value="" name="ident"/>
              <Attribute id="2966" value="44100" name="sampleRate"/>
              <Attribute id="2967" value="16" name="bitDepth"/>
              <Attribute id="2968" value="1" name="gain"/>
              <Attribute id="2969" value="0" name="mixToMono"/>
             </Attributes>
            </AMFile>
            <ScreenVMFile id="2970" start="19503" duration="1019" scalar="1/1" mediaStart="25580/1" mediaDuration="1019/1" trackNumber="0" src="4" >
             <Transformer>
              <VectorParam id="2971"  name="translation">
               <InterpolatingParam id="2972" interp="linr"  time="-9999999/1" value="0" leadInLength="0/1"  />
               <InterpolatingParam id="2973" interp="linr"  time="-9999999/1" value="0" leadInLength="0/1"  />
               <InterpolatingParam id="2974" interp="linr"  time="-9999999/1" value="0" leadInLength="0/1"  />
              </VectorParam>
              <VectorParam id="2975"  name="rotation">
               <InterpolatingParam id="2976" interp="linr"  time="-9999999/1" value="0" leadInLength="0/1"  />
               <InterpolatingParam id="2977" interp="linr"  time="-9999999/1" value="0" leadInLength="0/1"  />
               <InterpolatingParam id="2978" interp="linr"  time="-9999999/1" value="0" leadInLength="0/1"  />
              </VectorParam>
              <VectorParam id="2979"  name="shear">
               <InterpolatingParam id="2980" interp="linr"  time="-9999999/1" value="0" leadInLength="0/1"  />
               <InterpolatingParam id="2981" interp="linr"  time="-9999999/1" value="0" leadInLength="0/1"  />
               <InterpolatingParam id="2982" interp="linr"  time="-9999999/1" value="0" leadInLength="0/1"  />
              </VectorParam>
              <VectorParam id="2983"  name="scale">
               <InterpolatingParam id="2984" interp="linr"  time="-9999999/1" value="1" leadInLength="0/1"  />
               <InterpolatingParam id="2985" interp="linr"  time="-9999999/1" value="1" leadInLength="0/1"  />
               <InterpolatingParam id="2986" interp="linr"  time="-9999999/1" value="1" leadInLength="0/1"  />
              </VectorParam>
              <VectorParam id="2987"  name="anchor">
               <InterpolatingParam id="2988" interp="linr"  time="0/1" value="0" leadInLength="0/1"  />
               <InterpolatingParam id="2989" interp="linr"  time="0/1" value="0" leadInLength="0/1"  />
               <InterpolatingParam id="2990" interp="linr"  time="0/1" value="0" leadInLength="0/1"  />
              </VectorParam>
             </Transformer>
             <Parameters>
              <VectorParam id="2991"  name="sourceCrop">
               <InterpolatingParam id="2992" interp="linr"  time="0/1" value="0" leadInLength="0/1"  />
               <InterpolatingParam id="2993" interp="linr"  time="0/1" value="0" leadInLength="0/1"  />
               <InterpolatingParam id="2994" interp="linr"  time="0/1" value="0" leadInLength="0/1"  />
               <InterpolatingParam id="2995" interp="linr"  time="0/1" value="0" leadInLength="0/1"  />
              </VectorParam>
              <VectorParam id="2996"  name="geometryCrop">
               <InterpolatingParam id="2997" interp="linr"  time="-9999999/1" value="0" leadInLength="0/1"  />
               <InterpolatingParam id="2998" interp="linr"  time="-9999999/1" value="0" leadInLength="0/1"  />
               <InterpolatingParam id="2999" interp="linr"  time="-9999999/1" value="0" leadInLength="0/1"  />
               <InterpolatingParam id="3000" interp="linr"  time="-9999999/1" value="0" leadInLength="0/1"  />
              </VectorParam>
              <InterpolatingParam id="3001" interp="linr"  time="-9999999/1" value="1" leadInLength="0/1"  name="opacity"/>
              <InterpolatingParam id="3002" interp="linr"  time="0/1" value="0" leadInLength="0/1"  name="cursorOpacity"/>
              <InterpolatingParam id="3003" interp="linr"  time="0/1" value="0" leadInLength="0/1"  name="cursorScale"/>
             </Parameters>
             <Attributes>
              <Attribute id="3004" value="" name="ident"/>
             </Attributes>
             <ExtraData>
              <Entry key="ZoomPanBin">
               <ZoomPanBin id="3005"  >
                <ZoomPanKeyframes>
                 <ZoomPanKeyframe id="3006" timeRangeEnd="-9999999/1" timeRangeDuration="0/1" interpolaterName=""  />
                </ZoomPanKeyframes>
               </ZoomPanBin>
              </Entry>
              <Entry key="CursorEffectBin">
               <CursorEffectBin id="3007"  >
                <CursorEffectKeyframes>
                </CursorEffectKeyframes>
               </CursorEffectBin>
              </Entry>
             </ExtraData>
            </ScreenVMFile>
            <MetaData>
             <entry key="AutoAppliedSmartFocus" val="False"/>
             <entry key="WinSubProjectDisplayName" val=""/>
            </MetaData>
           </UnifiedMedia>
           <UnifiedMedia id="3008"  >
            <AMFile id="3009" start="20522" duration="19" scalar="1/1" mediaStart="26869/1" mediaDuration="19/1" trackNumber="1" src="4" channelNumber="0,1" >
             <Parameters>
              <InterpolatingParam id="3010" interp="linr"  time="0/1" value="1" leadInLength="0/1"  name="volume"/>
              <Parameter id="3011"  name="captions"/>
             </Parameters>
             <Attributes>
              <Attribute id="3012" value="" name="ident"/>
              <Attribute id="3013" value="44100" name="sampleRate"/>
              <Attribute id="3014" value="16" name="bitDepth"/>
              <Attribute id="3015" value="1" name="gain"/>
              <Attribute id="3016" value="0" name="mixToMono"/>
             </Attributes>
            </AMFile>
            <ScreenVMFile id="3017" start="20522" duration="19" scalar="1/1" mediaStart="26869/1" mediaDuration="19/1" trackNumber="0" src="4" >
             <Transformer>
              <VectorParam id="3018"  name="translation">
               <InterpolatingParam id="3019" interp="linr"  time="-9999999/1" value="0" leadInLength="0/1"  />
               <InterpolatingParam id="3020" interp="linr"  time="-9999999/1" value="0" leadInLength="0/1"  />
               <InterpolatingParam id="3021" interp="linr"  time="-9999999/1" value="0" leadInLength="0/1"  />
              </VectorParam>
              <VectorParam id="3022"  name="rotation">
               <InterpolatingParam id="3023" interp="linr"  time="-9999999/1" value="0" leadInLength="0/1"  />
               <InterpolatingParam id="3024" interp="linr"  time="-9999999/1" value="0" leadInLength="0/1"  />
               <InterpolatingParam id="3025" interp="linr"  time="-9999999/1" value="0" leadInLength="0/1"  />
              </VectorParam>
              <VectorParam id="3026"  name="shear">
               <InterpolatingParam id="3027" interp="linr"  time="-9999999/1" value="0" leadInLength="0/1"  />
               <InterpolatingParam id="3028" interp="linr"  time="-9999999/1" value="0" leadInLength="0/1"  />
               <InterpolatingParam id="3029" interp="linr"  time="-9999999/1" value="0" leadInLength="0/1"  />
              </VectorParam>
              <VectorParam id="3030"  name="scale">
               <InterpolatingParam id="3031" interp="linr"  time="-9999999/1" value="1" leadInLength="0/1"  />
               <InterpolatingParam id="3032" interp="linr"  time="-9999999/1" value="1" leadInLength="0/1"  />
               <InterpolatingParam id="3033" interp="linr"  time="-9999999/1" value="1" leadInLength="0/1"  />
              </VectorParam>
              <VectorParam id="3034"  name="anchor">
               <InterpolatingParam id="3035" interp="linr"  time="0/1" value="0" leadInLength="0/1"  />
               <InterpolatingParam id="3036" interp="linr"  time="0/1" value="0" leadInLength="0/1"  />
               <InterpolatingParam id="3037" interp="linr"  time="0/1" value="0" leadInLength="0/1"  />
              </VectorParam>
             </Transformer>
             <Parameters>
              <VectorParam id="3038"  name="sourceCrop">
               <InterpolatingParam id="3039" interp="linr"  time="0/1" value="0" leadInLength="0/1"  />
               <InterpolatingParam id="3040" interp="linr"  time="0/1" value="0" leadInLength="0/1"  />
               <InterpolatingParam id="3041" interp="linr"  time="0/1" value="0" leadInLength="0/1"  />
               <InterpolatingParam id="3042" interp="linr"  time="0/1" value="0" leadInLength="0/1"  />
              </VectorParam>
              <VectorParam id="3043"  name="geometryCrop">
               <InterpolatingParam id="3044" interp="linr"  time="-9999999/1" value="0" leadInLength="0/1"  />
               <InterpolatingParam id="3045" interp="linr"  time="-9999999/1" value="0" leadInLength="0/1"  />
               <InterpolatingParam id="3046" interp="linr"  time="-9999999/1" value="0" leadInLength="0/1"  />
               <InterpolatingParam id="3047" interp="linr"  time="-9999999/1" value="0" leadInLength="0/1"  />
              </VectorParam>
              <InterpolatingParam id="3048" interp="linr"  time="-9999999/1" value="1" leadInLength="0/1"  name="opacity"/>
              <InterpolatingParam id="3049" interp="linr"  time="0/1" value="0" leadInLength="0/1"  name="cursorOpacity"/>
              <InterpolatingParam id="3050" interp="linr"  time="0/1" value="0" leadInLength="0/1"  name="cursorScale"/>
             </Parameters>
             <Attributes>
              <Attribute id="3051" value="" name="ident"/>
             </Attributes>
             <ExtraData>
              <Entry key="ZoomPanBin">
               <ZoomPanBin id="3052"  >
                <ZoomPanKeyframes>
                 <ZoomPanKeyframe id="3053" timeRangeEnd="-9999999/1" timeRangeDuration="0/1" interpolaterName=""  />
                </ZoomPanKeyframes>
               </ZoomPanBin>
              </Entry>
              <Entry key="CursorEffectBin">
               <CursorEffectBin id="3054"  >
                <CursorEffectKeyframes>
                </CursorEffectKeyframes>
               </CursorEffectBin>
              </Entry>
             </ExtraData>
            </ScreenVMFile>
            <MetaData>
             <entry key="AutoAppliedSmartFocus" val="False"/>
             <entry key="WinSubProjectDisplayName" val=""/>
            </MetaData>
           </UnifiedMedia>
           <UnifiedMedia id="3055"  >
            <AMFile id="3056" start="20541" duration="162" scalar="1/1" mediaStart="27108/1" mediaDuration="162/1" trackNumber="1" src="4" channelNumber="0,1" >
             <Parameters>
              <InterpolatingParam id="3057" interp="linr"  time="0/1" value="1" leadInLength="0/1"  name="volume"/>
              <Parameter id="3058"  name="captions"/>
             </Parameters>
             <Attributes>
              <Attribute id="3059" value="" name="ident"/>
              <Attribute id="3060" value="44100" name="sampleRate"/>
              <Attribute id="3061" value="16" name="bitDepth"/>
              <Attribute id="3062" value="1" name="gain"/>
              <Attribute id="3063" value="0" name="mixToMono"/>
             </Attributes>
            </AMFile>
            <ScreenVMFile id="3064" start="20541" duration="162" scalar="1/1" mediaStart="27108/1" mediaDuration="162/1" trackNumber="0" src="4" >
             <Transformer>
              <VectorParam id="3065"  name="translation">
               <InterpolatingParam id="3066" interp="linr"  time="-9999999/1" value="0" leadInLength="0/1"  />
               <InterpolatingParam id="3067" interp="linr"  time="-9999999/1" value="0" leadInLength="0/1"  />
               <InterpolatingParam id="3068" interp="linr"  time="-9999999/1" value="0" leadInLength="0/1"  />
              </VectorParam>
              <VectorParam id="3069"  name="rotation">
               <InterpolatingParam id="3070" interp="linr"  time="-9999999/1" value="0" leadInLength="0/1"  />
               <InterpolatingParam id="3071" interp="linr"  time="-9999999/1" value="0" leadInLength="0/1"  />
               <InterpolatingParam id="3072" interp="linr"  time="-9999999/1" value="0" leadInLength="0/1"  />
              </VectorParam>
              <VectorParam id="3073"  name="shear">
               <InterpolatingParam id="3074" interp="linr"  time="-9999999/1" value="0" leadInLength="0/1"  />
               <InterpolatingParam id="3075" interp="linr"  time="-9999999/1" value="0" leadInLength="0/1"  />
               <InterpolatingParam id="3076" interp="linr"  time="-9999999/1" value="0" leadInLength="0/1"  />
              </VectorParam>
              <VectorParam id="3077"  name="scale">
               <InterpolatingParam id="3078" interp="linr"  time="-9999999/1" value="1" leadInLength="0/1"  />
               <InterpolatingParam id="3079" interp="linr"  time="-9999999/1" value="1" leadInLength="0/1"  />
               <InterpolatingParam id="3080" interp="linr"  time="-9999999/1" value="1" leadInLength="0/1"  />
              </VectorParam>
              <VectorParam id="3081"  name="anchor">
               <InterpolatingParam id="3082" interp="linr"  time="0/1" value="0" leadInLength="0/1"  />
               <InterpolatingParam id="3083" interp="linr"  time="0/1" value="0" leadInLength="0/1"  />
               <InterpolatingParam id="3084" interp="linr"  time="0/1" value="0" leadInLength="0/1"  />
              </VectorParam>
             </Transformer>
             <Parameters>
              <VectorParam id="3085"  name="sourceCrop">
               <InterpolatingParam id="3086" interp="linr"  time="0/1" value="0" leadInLength="0/1"  />
               <InterpolatingParam id="3087" interp="linr"  time="0/1" value="0" leadInLength="0/1"  />
               <InterpolatingParam id="3088" interp="linr"  time="0/1" value="0" leadInLength="0/1"  />
               <InterpolatingParam id="3089" interp="linr"  time="0/1" value="0" leadInLength="0/1"  />
              </VectorParam>
              <VectorParam id="3090"  name="geometryCrop">
               <InterpolatingParam id="3091" interp="linr"  time="-9999999/1" value="0" leadInLength="0/1"  />
               <InterpolatingParam id="3092" interp="linr"  time="-9999999/1" value="0" leadInLength="0/1"  />
               <InterpolatingParam id="3093" interp="linr"  time="-9999999/1" value="0" leadInLength="0/1"  />
               <InterpolatingParam id="3094" interp="linr"  time="-9999999/1" value="0" leadInLength="0/1"  />
              </VectorParam>
              <InterpolatingParam id="3095" interp="linr"  time="-9999999/1" value="1" leadInLength="0/1"  name="opacity"/>
              <InterpolatingParam id="3096" interp="linr"  time="0/1" value="0" leadInLength="0/1"  name="cursorOpacity"/>
              <InterpolatingParam id="3097" interp="linr"  time="0/1" value="0" leadInLength="0/1"  name="cursorScale"/>
             </Parameters>
             <Attributes>
              <Attribute id="3098" value="" name="ident"/>
             </Attributes>
             <ExtraData>
              <Entry key="ZoomPanBin">
               <ZoomPanBin id="3099"  >
                <ZoomPanKeyframes>
                 <ZoomPanKeyframe id="3100" timeRangeEnd="-9999999/1" timeRangeDuration="0/1" interpolaterName=""  />
                </ZoomPanKeyframes>
               </ZoomPanBin>
              </Entry>
              <Entry key="CursorEffectBin">
               <CursorEffectBin id="3101"  >
                <CursorEffectKeyframes>
                </CursorEffectKeyframes>
               </CursorEffectBin>
              </Entry>
             </ExtraData>
            </ScreenVMFile>
            <MetaData>
             <entry key="AutoAppliedSmartFocus" val="False"/>
             <entry key="WinSubProjectDisplayName" val=""/>
            </MetaData>
           </UnifiedMedia>
           <UnifiedMedia id="3102"  >
            <AMFile id="3103" start="20703" duration="1316" scalar="1/1" mediaStart="32187/1" mediaDuration="1316/1" trackNumber="1" src="4" channelNumber="0,1" >
             <Parameters>
              <InterpolatingParam id="3104" interp="linr"  time="0/1" value="1" leadInLength="0/1"  name="volume"/>
              <Parameter id="3105"  name="captions"/>
             </Parameters>
             <Attributes>
              <Attribute id="3106" value="" name="ident"/>
              <Attribute id="3107" value="44100" name="sampleRate"/>
              <Attribute id="3108" value="16" name="bitDepth"/>
              <Attribute id="3109" value="1" name="gain"/>
              <Attribute id="3110" value="0" name="mixToMono"/>
             </Attributes>
            </AMFile>
            <ScreenVMFile id="3111" start="20703" duration="1316" scalar="1/1" mediaStart="32187/1" mediaDuration="1316/1" trackNumber="0" src="4" >
             <Transformer>
              <VectorParam id="3112"  name="translation">
               <InterpolatingParam id="3113" interp="linr"  time="-9999999/1" value="0" leadInLength="0/1"  />
               <InterpolatingParam id="3114" interp="linr"  time="-9999999/1" value="0" leadInLength="0/1"  />
               <InterpolatingParam id="3115" interp="linr"  time="-9999999/1" value="0" leadInLength="0/1"  />
              </VectorParam>
              <VectorParam id="3116"  name="rotation">
               <InterpolatingParam id="3117" interp="linr"  time="-9999999/1" value="0" leadInLength="0/1"  />
               <InterpolatingParam id="3118" interp="linr"  time="-9999999/1" value="0" leadInLength="0/1"  />
               <InterpolatingParam id="3119" interp="linr"  time="-9999999/1" value="0" leadInLength="0/1"  />
              </VectorParam>
              <VectorParam id="3120"  name="shear">
               <InterpolatingParam id="3121" interp="linr"  time="-9999999/1" value="0" leadInLength="0/1"  />
               <InterpolatingParam id="3122" interp="linr"  time="-9999999/1" value="0" leadInLength="0/1"  />
               <InterpolatingParam id="3123" interp="linr"  time="-9999999/1" value="0" leadInLength="0/1"  />
              </VectorParam>
              <VectorParam id="3124"  name="scale">
               <InterpolatingParam id="3125" interp="linr"  time="-9999999/1" value="1" leadInLength="0/1"  />
               <InterpolatingParam id="3126" interp="linr"  time="-9999999/1" value="1" leadInLength="0/1"  />
               <InterpolatingParam id="3127" interp="linr"  time="-9999999/1" value="1" leadInLength="0/1"  />
              </VectorParam>
              <VectorParam id="3128"  name="anchor">
               <InterpolatingParam id="3129" interp="linr"  time="0/1" value="0" leadInLength="0/1"  />
               <InterpolatingParam id="3130" interp="linr"  time="0/1" value="0" leadInLength="0/1"  />
               <InterpolatingParam id="3131" interp="linr"  time="0/1" value="0" leadInLength="0/1"  />
              </VectorParam>
             </Transformer>
             <Parameters>
              <VectorParam id="3132"  name="sourceCrop">
               <InterpolatingParam id="3133" interp="linr"  time="0/1" value="0" leadInLength="0/1"  />
               <InterpolatingParam id="3134" interp="linr"  time="0/1" value="0" leadInLength="0/1"  />
               <InterpolatingParam id="3135" interp="linr"  time="0/1" value="0" leadInLength="0/1"  />
               <InterpolatingParam id="3136" interp="linr"  time="0/1" value="0" leadInLength="0/1"  />
              </VectorParam>
              <VectorParam id="3137"  name="geometryCrop">
               <InterpolatingParam id="3138" interp="linr"  time="-9999999/1" value="0" leadInLength="0/1"  />
               <InterpolatingParam id="3139" interp="linr"  time="-9999999/1" value="0" leadInLength="0/1"  />
               <InterpolatingParam id="3140" interp="linr"  time="-9999999/1" value="0" leadInLength="0/1"  />
               <InterpolatingParam id="3141" interp="linr"  time="-9999999/1" value="0" leadInLength="0/1"  />
              </VectorParam>
              <InterpolatingParam id="3142" interp="linr"  time="-9999999/1" value="1" leadInLength="0/1"  name="opacity"/>
              <InterpolatingParam id="3143" interp="linr"  time="0/1" value="0" leadInLength="0/1"  name="cursorOpacity"/>
              <InterpolatingParam id="3144" interp="linr"  time="0/1" value="0" leadInLength="0/1"  name="cursorScale"/>
             </Parameters>
             <Attributes>
              <Attribute id="3145" value="" name="ident"/>
             </Attributes>
             <ExtraData>
              <Entry key="ZoomPanBin">
               <ZoomPanBin id="3146"  >
                <ZoomPanKeyframes>
                 <ZoomPanKeyframe id="3147" timeRangeEnd="-9999999/1" timeRangeDuration="0/1" interpolaterName=""  />
                </ZoomPanKeyframes>
               </ZoomPanBin>
              </Entry>
              <Entry key="CursorEffectBin">
               <CursorEffectBin id="3148"  >
                <CursorEffectKeyframes>
                </CursorEffectKeyframes>
               </CursorEffectBin>
              </Entry>
             </ExtraData>
            </ScreenVMFile>
            <MetaData>
             <entry key="AutoAppliedSmartFocus" val="False"/>
             <entry key="WinSubProjectDisplayName" val=""/>
            </MetaData>
           </UnifiedMedia>
           <UnifiedMedia id="3149"  >
            <AMFile id="3150" start="22019" duration="55" scalar="1/1" mediaStart="33626/1" mediaDuration="55/1" trackNumber="1" src="4" channelNumber="0,1" >
             <Parameters>
              <InterpolatingParam id="3151" interp="linr"  time="0/1" value="1" leadInLength="0/1"  name="volume"/>
              <Parameter id="3152"  name="captions"/>
             </Parameters>
             <Attributes>
              <Attribute id="3153" value="" name="ident"/>
              <Attribute id="3154" value="44100" name="sampleRate"/>
              <Attribute id="3155" value="16" name="bitDepth"/>
              <Attribute id="3156" value="1" name="gain"/>
              <Attribute id="3157" value="0" name="mixToMono"/>
             </Attributes>
            </AMFile>
            <ScreenVMFile id="3158" start="22019" duration="55" scalar="1/1" mediaStart="33626/1" mediaDuration="55/1" trackNumber="0" src="4" >
             <Transformer>
              <VectorParam id="3159"  name="translation">
               <InterpolatingParam id="3160" interp="linr"  time="-9999999/1" value="0" leadInLength="0/1"  />
               <InterpolatingParam id="3161" interp="linr"  time="-9999999/1" value="0" leadInLength="0/1"  />
               <InterpolatingParam id="3162" interp="linr"  time="-9999999/1" value="0" leadInLength="0/1"  />
              </VectorParam>
              <VectorParam id="3163"  name="rotation">
               <InterpolatingParam id="3164" interp="linr"  time="-9999999/1" value="0" leadInLength="0/1"  />
               <InterpolatingParam id="3165" interp="linr"  time="-9999999/1" value="0" leadInLength="0/1"  />
               <InterpolatingParam id="3166" interp="linr"  time="-9999999/1" value="0" leadInLength="0/1"  />
              </VectorParam>
              <VectorParam id="3167"  name="shear">
               <InterpolatingParam id="3168" interp="linr"  time="-9999999/1" value="0" leadInLength="0/1"  />
               <InterpolatingParam id="3169" interp="linr"  time="-9999999/1" value="0" leadInLength="0/1"  />
               <InterpolatingParam id="3170" interp="linr"  time="-9999999/1" value="0" leadInLength="0/1"  />
              </VectorParam>
              <VectorParam id="3171"  name="scale">
               <InterpolatingParam id="3172" interp="linr"  time="-9999999/1" value="1" leadInLength="0/1"  />
               <InterpolatingParam id="3173" interp="linr"  time="-9999999/1" value="1" leadInLength="0/1"  />
               <InterpolatingParam id="3174" interp="linr"  time="-9999999/1" value="1" leadInLength="0/1"  />
              </VectorParam>
              <VectorParam id="3175"  name="anchor">
               <InterpolatingParam id="3176" interp="linr"  time="0/1" value="0" leadInLength="0/1"  />
               <InterpolatingParam id="3177" interp="linr"  time="0/1" value="0" leadInLength="0/1"  />
               <InterpolatingParam id="3178" interp="linr"  time="0/1" value="0" leadInLength="0/1"  />
              </VectorParam>
             </Transformer>
             <Parameters>
              <VectorParam id="3179"  name="sourceCrop">
               <InterpolatingParam id="3180" interp="linr"  time="0/1" value="0" leadInLength="0/1"  />
               <InterpolatingParam id="3181" interp="linr"  time="0/1" value="0" leadInLength="0/1"  />
               <InterpolatingParam id="3182" interp="linr"  time="0/1" value="0" leadInLength="0/1"  />
               <InterpolatingParam id="3183" interp="linr"  time="0/1" value="0" leadInLength="0/1"  />
              </VectorParam>
              <VectorParam id="3184"  name="geometryCrop">
               <InterpolatingParam id="3185" interp="linr"  time="-9999999/1" value="0" leadInLength="0/1"  />
               <InterpolatingParam id="3186" interp="linr"  time="-9999999/1" value="0" leadInLength="0/1"  />
               <InterpolatingParam id="3187" interp="linr"  time="-9999999/1" value="0" leadInLength="0/1"  />
               <InterpolatingParam id="3188" interp="linr"  time="-9999999/1" value="0" leadInLength="0/1"  />
              </VectorParam>
              <InterpolatingParam id="3189" interp="linr"  time="-9999999/1" value="1" leadInLength="0/1"  name="opacity"/>
              <InterpolatingParam id="3190" interp="linr"  time="0/1" value="0" leadInLength="0/1"  name="cursorOpacity"/>
              <InterpolatingParam id="3191" interp="linr"  time="0/1" value="0" leadInLength="0/1"  name="cursorScale"/>
             </Parameters>
             <Attributes>
              <Attribute id="3192" value="" name="ident"/>
             </Attributes>
             <ExtraData>
              <Entry key="ZoomPanBin">
               <ZoomPanBin id="3193"  >
                <ZoomPanKeyframes>
                 <ZoomPanKeyframe id="3194" timeRangeEnd="-9999999/1" timeRangeDuration="0/1" interpolaterName=""  />
                </ZoomPanKeyframes>
               </ZoomPanBin>
              </Entry>
              <Entry key="CursorEffectBin">
               <CursorEffectBin id="3195"  >
                <CursorEffectKeyframes>
                </CursorEffectKeyframes>
               </CursorEffectBin>
              </Entry>
             </ExtraData>
            </ScreenVMFile>
            <MetaData>
             <entry key="AutoAppliedSmartFocus" val="False"/>
             <entry key="WinSubProjectDisplayName" val=""/>
            </MetaData>
           </UnifiedMedia>
           <UnifiedMedia id="3196"  >
            <AMFile id="3197" start="22074" duration="120" scalar="1/1" mediaStart="33709/1" mediaDuration="120/1" trackNumber="1" src="4" channelNumber="0,1" >
             <Parameters>
              <InterpolatingParam id="3198" interp="linr"  time="0/1" value="1" leadInLength="0/1"  name="volume"/>
              <Parameter id="3199"  name="captions"/>
             </Parameters>
             <Attributes>
              <Attribute id="3200" value="" name="ident"/>
              <Attribute id="3201" value="44100" name="sampleRate"/>
              <Attribute id="3202" value="16" name="bitDepth"/>
              <Attribute id="3203" value="1" name="gain"/>
              <Attribute id="3204" value="0" name="mixToMono"/>
             </Attributes>
            </AMFile>
            <ScreenVMFile id="3205" start="22074" duration="120" scalar="1/1" mediaStart="33709/1" mediaDuration="120/1" trackNumber="0" src="4" >
             <Transformer>
              <VectorParam id="3206"  name="translation">
               <InterpolatingParam id="3207" interp="linr"  time="-9999999/1" value="0" leadInLength="0/1"  />
               <InterpolatingParam id="3208" interp="linr"  time="-9999999/1" value="0" leadInLength="0/1"  />
               <InterpolatingParam id="3209" interp="linr"  time="-9999999/1" value="0" leadInLength="0/1"  />
              </VectorParam>
              <VectorParam id="3210"  name="rotation">
               <InterpolatingParam id="3211" interp="linr"  time="-9999999/1" value="0" leadInLength="0/1"  />
               <InterpolatingParam id="3212" interp="linr"  time="-9999999/1" value="0" leadInLength="0/1"  />
               <InterpolatingParam id="3213" interp="linr"  time="-9999999/1" value="0" leadInLength="0/1"  />
              </VectorParam>
              <VectorParam id="3214"  name="shear">
               <InterpolatingParam id="3215" interp="linr"  time="-9999999/1" value="0" leadInLength="0/1"  />
               <InterpolatingParam id="3216" interp="linr"  time="-9999999/1" value="0" leadInLength="0/1"  />
               <InterpolatingParam id="3217" interp="linr"  time="-9999999/1" value="0" leadInLength="0/1"  />
              </VectorParam>
              <VectorParam id="3218"  name="scale">
               <InterpolatingParam id="3219" interp="linr"  time="-9999999/1" value="1" leadInLength="0/1"  />
               <InterpolatingParam id="3220" interp="linr"  time="-9999999/1" value="1" leadInLength="0/1"  />
               <InterpolatingParam id="3221" interp="linr"  time="-9999999/1" value="1" leadInLength="0/1"  />
              </VectorParam>
              <VectorParam id="3222"  name="anchor">
               <InterpolatingParam id="3223" interp="linr"  time="0/1" value="0" leadInLength="0/1"  />
               <InterpolatingParam id="3224" interp="linr"  time="0/1" value="0" leadInLength="0/1"  />
               <InterpolatingParam id="3225" interp="linr"  time="0/1" value="0" leadInLength="0/1"  />
              </VectorParam>
             </Transformer>
             <Parameters>
              <VectorParam id="3226"  name="sourceCrop">
               <InterpolatingParam id="3227" interp="linr"  time="0/1" value="0" leadInLength="0/1"  />
               <InterpolatingParam id="3228" interp="linr"  time="0/1" value="0" leadInLength="0/1"  />
               <InterpolatingParam id="3229" interp="linr"  time="0/1" value="0" leadInLength="0/1"  />
               <InterpolatingParam id="3230" interp="linr"  time="0/1" value="0" leadInLength="0/1"  />
              </VectorParam>
              <VectorParam id="3231"  name="geometryCrop">
               <InterpolatingParam id="3232" interp="linr"  time="-9999999/1" value="0" leadInLength="0/1"  />
               <InterpolatingParam id="3233" interp="linr"  time="-9999999/1" value="0" leadInLength="0/1"  />
               <InterpolatingParam id="3234" interp="linr"  time="-9999999/1" value="0" leadInLength="0/1"  />
               <InterpolatingParam id="3235" interp="linr"  time="-9999999/1" value="0" leadInLength="0/1"  />
              </VectorParam>
              <InterpolatingParam id="3236" interp="linr"  time="-9999999/1" value="1" leadInLength="0/1"  name="opacity"/>
              <InterpolatingParam id="3237" interp="linr"  time="0/1" value="0" leadInLength="0/1"  name="cursorOpacity"/>
              <InterpolatingParam id="3238" interp="linr"  time="0/1" value="0" leadInLength="0/1"  name="cursorScale"/>
             </Parameters>
             <Attributes>
              <Attribute id="3239" value="" name="ident"/>
             </Attributes>
             <ExtraData>
              <Entry key="ZoomPanBin">
               <ZoomPanBin id="3240"  >
                <ZoomPanKeyframes>
                 <ZoomPanKeyframe id="3241" timeRangeEnd="-9999999/1" timeRangeDuration="0/1" interpolaterName=""  />
                </ZoomPanKeyframes>
               </ZoomPanBin>
              </Entry>
              <Entry key="CursorEffectBin">
               <CursorEffectBin id="3242"  >
                <CursorEffectKeyframes>
                </CursorEffectKeyframes>
               </CursorEffectBin>
              </Entry>
             </ExtraData>
            </ScreenVMFile>
            <MetaData>
             <entry key="AutoAppliedSmartFocus" val="False"/>
             <entry key="WinSubProjectDisplayName" val=""/>
            </MetaData>
           </UnifiedMedia>
           <UnifiedMedia id="3243"  >
            <AMFile id="3244" start="22194" duration="356" scalar="1/1" mediaStart="33857/1" mediaDuration="356/1" trackNumber="1" src="4" channelNumber="0,1" >
             <Parameters>
              <InterpolatingParam id="3245" interp="linr"  time="0/1" value="1" leadInLength="0/1"  name="volume"/>
              <Parameter id="3246"  name="captions"/>
             </Parameters>
             <Attributes>
              <Attribute id="3247" value="" name="ident"/>
              <Attribute id="3248" value="44100" name="sampleRate"/>
              <Attribute id="3249" value="16" name="bitDepth"/>
              <Attribute id="3250" value="1" name="gain"/>
              <Attribute id="3251" value="0" name="mixToMono"/>
             </Attributes>
            </AMFile>
            <ScreenVMFile id="3252" start="22194" duration="356" scalar="1/1" mediaStart="33857/1" mediaDuration="356/1" trackNumber="0" src="4" >
             <Transformer>
              <VectorParam id="3253"  name="translation">
               <InterpolatingParam id="3254" interp="linr"  time="-9999999/1" value="0" leadInLength="0/1"  />
               <InterpolatingParam id="3255" interp="linr"  time="-9999999/1" value="0" leadInLength="0/1"  />
               <InterpolatingParam id="3256" interp="linr"  time="-9999999/1" value="0" leadInLength="0/1"  />
              </VectorParam>
              <VectorParam id="3257"  name="rotation">
               <InterpolatingParam id="3258" interp="linr"  time="-9999999/1" value="0" leadInLength="0/1"  />
               <InterpolatingParam id="3259" interp="linr"  time="-9999999/1" value="0" leadInLength="0/1"  />
               <InterpolatingParam id="3260" interp="linr"  time="-9999999/1" value="0" leadInLength="0/1"  />
              </VectorParam>
              <VectorParam id="3261"  name="shear">
               <InterpolatingParam id="3262" interp="linr"  time="-9999999/1" value="0" leadInLength="0/1"  />
               <InterpolatingParam id="3263" interp="linr"  time="-9999999/1" value="0" leadInLength="0/1"  />
               <InterpolatingParam id="3264" interp="linr"  time="-9999999/1" value="0" leadInLength="0/1"  />
              </VectorParam>
              <VectorParam id="3265"  name="scale">
               <InterpolatingParam id="3266" interp="linr"  time="-9999999/1" value="1" leadInLength="0/1"  />
               <InterpolatingParam id="3267" interp="linr"  time="-9999999/1" value="1" leadInLength="0/1"  />
               <InterpolatingParam id="3268" interp="linr"  time="-9999999/1" value="1" leadInLength="0/1"  />
              </VectorParam>
              <VectorParam id="3269"  name="anchor">
               <InterpolatingParam id="3270" interp="linr"  time="0/1" value="0" leadInLength="0/1"  />
               <InterpolatingParam id="3271" interp="linr"  time="0/1" value="0" leadInLength="0/1"  />
               <InterpolatingParam id="3272" interp="linr"  time="0/1" value="0" leadInLength="0/1"  />
              </VectorParam>
             </Transformer>
             <Parameters>
              <VectorParam id="3273"  name="sourceCrop">
               <InterpolatingParam id="3274" interp="linr"  time="0/1" value="0" leadInLength="0/1"  />
               <InterpolatingParam id="3275" interp="linr"  time="0/1" value="0" leadInLength="0/1"  />
               <InterpolatingParam id="3276" interp="linr"  time="0/1" value="0" leadInLength="0/1"  />
               <InterpolatingParam id="3277" interp="linr"  time="0/1" value="0" leadInLength="0/1"  />
              </VectorParam>
              <VectorParam id="3278"  name="geometryCrop">
               <InterpolatingParam id="3279" interp="linr"  time="-9999999/1" value="0" leadInLength="0/1"  />
               <InterpolatingParam id="3280" interp="linr"  time="-9999999/1" value="0" leadInLength="0/1"  />
               <InterpolatingParam id="3281" interp="linr"  time="-9999999/1" value="0" leadInLength="0/1"  />
               <InterpolatingParam id="3282" interp="linr"  time="-9999999/1" value="0" leadInLength="0/1"  />
              </VectorParam>
              <InterpolatingParam id="3283" interp="linr"  time="-9999999/1" value="1" leadInLength="0/1"  name="opacity"/>
              <InterpolatingParam id="3284" interp="linr"  time="0/1" value="0" leadInLength="0/1"  name="cursorOpacity"/>
              <InterpolatingParam id="3285" interp="linr"  time="0/1" value="0" leadInLength="0/1"  name="cursorScale"/>
             </Parameters>
             <Attributes>
              <Attribute id="3286" value="" name="ident"/>
             </Attributes>
             <ExtraData>
              <Entry key="ZoomPanBin">
               <ZoomPanBin id="3287"  >
                <ZoomPanKeyframes>
                 <ZoomPanKeyframe id="3288" timeRangeEnd="-9999999/1" timeRangeDuration="0/1" interpolaterName=""  />
                </ZoomPanKeyframes>
               </ZoomPanBin>
              </Entry>
              <Entry key="CursorEffectBin">
               <CursorEffectBin id="3289"  >
                <CursorEffectKeyframes>
                </CursorEffectKeyframes>
               </CursorEffectBin>
              </Entry>
             </ExtraData>
            </ScreenVMFile>
            <MetaData>
             <entry key="AutoAppliedSmartFocus" val="False"/>
             <entry key="WinSubProjectDisplayName" val=""/>
            </MetaData>
           </UnifiedMedia>
           <UnifiedMedia id="3290"  >
            <AMFile id="3291" start="22550" duration="84" scalar="1/1" mediaStart="34226/1" mediaDuration="84/1" trackNumber="1" src="4" channelNumber="0,1" >
             <Parameters>
              <InterpolatingParam id="3292" interp="linr"  time="0/1" value="1" leadInLength="0/1"  name="volume"/>
              <Parameter id="3293"  name="captions"/>
             </Parameters>
             <Attributes>
              <Attribute id="3294" value="" name="ident"/>
              <Attribute id="3295" value="44100" name="sampleRate"/>
              <Attribute id="3296" value="16" name="bitDepth"/>
              <Attribute id="3297" value="1" name="gain"/>
              <Attribute id="3298" value="0" name="mixToMono"/>
             </Attributes>
            </AMFile>
            <ScreenVMFile id="3299" start="22550" duration="84" scalar="1/1" mediaStart="34226/1" mediaDuration="84/1" trackNumber="0" src="4" >
             <Transformer>
              <VectorParam id="3300"  name="translation">
               <InterpolatingParam id="3301" interp="linr"  time="-9999999/1" value="0" leadInLength="0/1"  />
               <InterpolatingParam id="3302" interp="linr"  time="-9999999/1" value="0" leadInLength="0/1"  />
               <InterpolatingParam id="3303" interp="linr"  time="-9999999/1" value="0" leadInLength="0/1"  />
              </VectorParam>
              <VectorParam id="3304"  name="rotation">
               <InterpolatingParam id="3305" interp="linr"  time="-9999999/1" value="0" leadInLength="0/1"  />
               <InterpolatingParam id="3306" interp="linr"  time="-9999999/1" value="0" leadInLength="0/1"  />
               <InterpolatingParam id="3307" interp="linr"  time="-9999999/1" value="0" leadInLength="0/1"  />
              </VectorParam>
              <VectorParam id="3308"  name="shear">
               <InterpolatingParam id="3309" interp="linr"  time="-9999999/1" value="0" leadInLength="0/1"  />
               <InterpolatingParam id="3310" interp="linr"  time="-9999999/1" value="0" leadInLength="0/1"  />
               <InterpolatingParam id="3311" interp="linr"  time="-9999999/1" value="0" leadInLength="0/1"  />
              </VectorParam>
              <VectorParam id="3312"  name="scale">
               <InterpolatingParam id="3313" interp="linr"  time="-9999999/1" value="1" leadInLength="0/1"  />
               <InterpolatingParam id="3314" interp="linr"  time="-9999999/1" value="1" leadInLength="0/1"  />
               <InterpolatingParam id="3315" interp="linr"  time="-9999999/1" value="1" leadInLength="0/1"  />
              </VectorParam>
              <VectorParam id="3316"  name="anchor">
               <InterpolatingParam id="3317" interp="linr"  time="0/1" value="0" leadInLength="0/1"  />
               <InterpolatingParam id="3318" interp="linr"  time="0/1" value="0" leadInLength="0/1"  />
               <InterpolatingParam id="3319" interp="linr"  time="0/1" value="0" leadInLength="0/1"  />
              </VectorParam>
             </Transformer>
             <Parameters>
              <VectorParam id="3320"  name="sourceCrop">
               <InterpolatingParam id="3321" interp="linr"  time="0/1" value="0" leadInLength="0/1"  />
               <InterpolatingParam id="3322" interp="linr"  time="0/1" value="0" leadInLength="0/1"  />
               <InterpolatingParam id="3323" interp="linr"  time="0/1" value="0" leadInLength="0/1"  />
               <InterpolatingParam id="3324" interp="linr"  time="0/1" value="0" leadInLength="0/1"  />
              </VectorParam>
              <VectorParam id="3325"  name="geometryCrop">
               <InterpolatingParam id="3326" interp="linr"  time="-9999999/1" value="0" leadInLength="0/1"  />
               <InterpolatingParam id="3327" interp="linr"  time="-9999999/1" value="0" leadInLength="0/1"  />
               <InterpolatingParam id="3328" interp="linr"  time="-9999999/1" value="0" leadInLength="0/1"  />
               <InterpolatingParam id="3329" interp="linr"  time="-9999999/1" value="0" leadInLength="0/1"  />
              </VectorParam>
              <InterpolatingParam id="3330" interp="linr"  time="-9999999/1" value="1" leadInLength="0/1"  name="opacity"/>
              <InterpolatingParam id="3331" interp="linr"  time="0/1" value="0" leadInLength="0/1"  name="cursorOpacity"/>
              <InterpolatingParam id="3332" interp="linr"  time="0/1" value="0" leadInLength="0/1"  name="cursorScale"/>
             </Parameters>
             <Attributes>
              <Attribute id="3333" value="" name="ident"/>
             </Attributes>
             <ExtraData>
              <Entry key="ZoomPanBin">
               <ZoomPanBin id="3334"  >
                <ZoomPanKeyframes>
                 <ZoomPanKeyframe id="3335" timeRangeEnd="-9999999/1" timeRangeDuration="0/1" interpolaterName=""  />
                </ZoomPanKeyframes>
               </ZoomPanBin>
              </Entry>
              <Entry key="CursorEffectBin">
               <CursorEffectBin id="3336"  >
                <CursorEffectKeyframes>
                </CursorEffectKeyframes>
               </CursorEffectBin>
              </Entry>
             </ExtraData>
            </ScreenVMFile>
            <MetaData>
             <entry key="AutoAppliedSmartFocus" val="False"/>
             <entry key="WinSubProjectDisplayName" val=""/>
            </MetaData>
           </UnifiedMedia>
           <UnifiedMedia id="3337"  >
            <AMFile id="3338" start="22634" duration="94" scalar="1/1" mediaStart="34325/1" mediaDuration="94/1" trackNumber="1" src="4" channelNumber="0,1" >
             <Parameters>
              <InterpolatingParam id="3339" interp="linr"  time="0/1" value="1" leadInLength="0/1"  name="volume"/>
              <Parameter id="3340"  name="captions"/>
             </Parameters>
             <Attributes>
              <Attribute id="3341" value="" name="ident"/>
              <Attribute id="3342" value="44100" name="sampleRate"/>
              <Attribute id="3343" value="16" name="bitDepth"/>
              <Attribute id="3344" value="1" name="gain"/>
              <Attribute id="3345" value="0" name="mixToMono"/>
             </Attributes>
            </AMFile>
            <ScreenVMFile id="3346" start="22634" duration="94" scalar="1/1" mediaStart="34325/1" mediaDuration="94/1" trackNumber="0" src="4" >
             <Transformer>
              <VectorParam id="3347"  name="translation">
               <InterpolatingParam id="3348" interp="linr"  time="-9999999/1" value="0" leadInLength="0/1"  />
               <InterpolatingParam id="3349" interp="linr"  time="-9999999/1" value="0" leadInLength="0/1"  />
               <InterpolatingParam id="3350" interp="linr"  time="-9999999/1" value="0" leadInLength="0/1"  />
              </VectorParam>
              <VectorParam id="3351"  name="rotation">
               <InterpolatingParam id="3352" interp="linr"  time="-9999999/1" value="0" leadInLength="0/1"  />
               <InterpolatingParam id="3353" interp="linr"  time="-9999999/1" value="0" leadInLength="0/1"  />
               <InterpolatingParam id="3354" interp="linr"  time="-9999999/1" value="0" leadInLength="0/1"  />
              </VectorParam>
              <VectorParam id="3355"  name="shear">
               <InterpolatingParam id="3356" interp="linr"  time="-9999999/1" value="0" leadInLength="0/1"  />
               <InterpolatingParam id="3357" interp="linr"  time="-9999999/1" value="0" leadInLength="0/1"  />
               <InterpolatingParam id="3358" interp="linr"  time="-9999999/1" value="0" leadInLength="0/1"  />
              </VectorParam>
              <VectorParam id="3359"  name="scale">
               <InterpolatingParam id="3360" interp="linr"  time="-9999999/1" value="1" leadInLength="0/1"  />
               <InterpolatingParam id="3361" interp="linr"  time="-9999999/1" value="1" leadInLength="0/1"  />
               <InterpolatingParam id="3362" interp="linr"  time="-9999999/1" value="1" leadInLength="0/1"  />
              </VectorParam>
              <VectorParam id="3363"  name="anchor">
               <InterpolatingParam id="3364" interp="linr"  time="0/1" value="0" leadInLength="0/1"  />
               <InterpolatingParam id="3365" interp="linr"  time="0/1" value="0" leadInLength="0/1"  />
               <InterpolatingParam id="3366" interp="linr"  time="0/1" value="0" leadInLength="0/1"  />
              </VectorParam>
             </Transformer>
             <Parameters>
              <VectorParam id="3367"  name="sourceCrop">
               <InterpolatingParam id="3368" interp="linr"  time="0/1" value="0" leadInLength="0/1"  />
               <InterpolatingParam id="3369" interp="linr"  time="0/1" value="0" leadInLength="0/1"  />
               <InterpolatingParam id="3370" interp="linr"  time="0/1" value="0" leadInLength="0/1"  />
               <InterpolatingParam id="3371" interp="linr"  time="0/1" value="0" leadInLength="0/1"  />
              </VectorParam>
              <VectorParam id="3372"  name="geometryCrop">
               <InterpolatingParam id="3373" interp="linr"  time="-9999999/1" value="0" leadInLength="0/1"  />
               <InterpolatingParam id="3374" interp="linr"  time="-9999999/1" value="0" leadInLength="0/1"  />
               <InterpolatingParam id="3375" interp="linr"  time="-9999999/1" value="0" leadInLength="0/1"  />
               <InterpolatingParam id="3376" interp="linr"  time="-9999999/1" value="0" leadInLength="0/1"  />
              </VectorParam>
              <InterpolatingParam id="3377" interp="linr"  time="-9999999/1" value="1" leadInLength="0/1"  name="opacity"/>
              <InterpolatingParam id="3378" interp="linr"  time="0/1" value="0" leadInLength="0/1"  name="cursorOpacity"/>
              <InterpolatingParam id="3379" interp="linr"  time="0/1" value="0" leadInLength="0/1"  name="cursorScale"/>
             </Parameters>
             <Attributes>
              <Attribute id="3380" value="" name="ident"/>
             </Attributes>
             <ExtraData>
              <Entry key="ZoomPanBin">
               <ZoomPanBin id="3381"  >
                <ZoomPanKeyframes>
                 <ZoomPanKeyframe id="3382" timeRangeEnd="-9999999/1" timeRangeDuration="0/1" interpolaterName=""  />
                </ZoomPanKeyframes>
               </ZoomPanBin>
              </Entry>
              <Entry key="CursorEffectBin">
               <CursorEffectBin id="3383"  >
                <CursorEffectKeyframes>
                </CursorEffectKeyframes>
               </CursorEffectBin>
              </Entry>
             </ExtraData>
            </ScreenVMFile>
            <MetaData>
             <entry key="AutoAppliedSmartFocus" val="False"/>
             <entry key="WinSubProjectDisplayName" val=""/>
            </MetaData>
           </UnifiedMedia>
          </Medias>
         </GenericTrack>
        </StitchedMedia>
       </Medias>
      </GenericTrack>
      <GenericTrack id="3384"  >
       <Attributes>
        <Attribute id="3385" value="" name="ident"/>
        <Attribute id="3386" value="0" name="audioMuted"/>
        <Attribute id="3387" value="0" name="videoHidden"/>
       </Attributes>
       <MetaData>
        <entry key="IsLocked" val="False"/>
        <entry key="WinTrackHeight" val="62"/>
       </MetaData>
       <Medias>
        <Callout id="3388" start="3891" duration="339" scalar="1/1" mediaStart="0/1" mediaDuration="339/1" >
         <Transformer>
          <VectorParam id="3389"  name="translation">
           <InterpolatingParam id="3390" interp="linr"  time="-9999999/1" value="-339.92031872504094" leadInLength="0/1"  />
           <InterpolatingParam id="3391" interp="linr"  time="-9999999/1" value="4.3027888445710545" leadInLength="0/1"  />
           <InterpolatingParam id="3392" interp="linr"  time="-9999999/1" value="0" leadInLength="0/1"  />
          </VectorParam>
          <VectorParam id="3393"  name="rotation">
           <InterpolatingParam id="3394" interp="linr"  time="-9999999/1" value="0" leadInLength="0/1"  />
           <InterpolatingParam id="3395" interp="linr"  time="-9999999/1" value="0" leadInLength="0/1"  />
           <InterpolatingParam id="3396" interp="linr"  time="-9999999/1" value="0" leadInLength="0/1"  />
          </VectorParam>
          <VectorParam id="3397"  name="shear">
           <InterpolatingParam id="3398" interp="linr"  time="-9999999/1" value="0" leadInLength="0/1"  />
           <InterpolatingParam id="3399" interp="linr"  time="-9999999/1" value="0" leadInLength="0/1"  />
           <InterpolatingParam id="3400" interp="linr"  time="-9999999/1" value="0" leadInLength="0/1"  />
          </VectorParam>
          <VectorParam id="3401"  name="scale">
           <InterpolatingParam id="3402" interp="linr"  time="-9999999/1" value="0.99999999999999978" leadInLength="0/1"  />
           <InterpolatingParam id="3403" interp="linr"  time="-9999999/1" value="0.32003237268009516" leadInLength="0/1"  />
           <InterpolatingParam id="3404" interp="linr"  time="-9999999/1" value="1" leadInLength="0/1"  />
          </VectorParam>
          <VectorParam id="3405"  name="anchor">
           <InterpolatingParam id="3406" interp="linr"  time="0/1" value="0" leadInLength="0/1"  />
           <InterpolatingParam id="3407" interp="linr"  time="0/1" value="0" leadInLength="0/1"  />
           <InterpolatingParam id="3408" interp="linr"  time="0/1" value="0" leadInLength="0/1"  />
          </VectorParam>
         </Transformer>
         <Parameters>
          <VectorParam id="3409"  name="sourceCrop">
           <InterpolatingParam id="3410" interp="linr"  time="0/1" value="0" leadInLength="0/1"  />
           <InterpolatingParam id="3411" interp="linr"  time="0/1" value="0" leadInLength="0/1"  />
           <InterpolatingParam id="3412" interp="linr"  time="0/1" value="0" leadInLength="0/1"  />
           <InterpolatingParam id="3413" interp="linr"  time="0/1" value="0" leadInLength="0/1"  />
          </VectorParam>
          <VectorParam id="3414"  name="geometryCrop">
           <InterpolatingParam id="3415" interp="linr"  time="-9999999/1" value="0" leadInLength="0/1"  />
           <InterpolatingParam id="3416" interp="linr"  time="-9999999/1" value="0" leadInLength="0/1"  />
           <InterpolatingParam id="3417" interp="linr"  time="-9999999/1" value="0" leadInLength="0/1"  />
           <InterpolatingParam id="3418" interp="linr"  time="-9999999/1" value="0" leadInLength="0/1"  />
          </VectorParam>
          <InterpolatingParam id="3419" interp="linr"  time="-9999999/1" value="1" leadInLength="0/1"  name="opacity"/>
         </Parameters>
         <Attributes>
          <Attribute id="3420"  name="vectorNode">
           <VectorNode id="3421" kind="TypeWinSimple"  >
            <DoubleParameters>
             <InterpolatingParam id="3422" interp="linr"  time="0/1" value="-1" leadInLength="0/1"  name="CutoutPercentage"/>
             <InterpolatingParam id="3423" interp="linr"  time="0/1" value="-1" leadInLength="0/1"  name="RoundedRectRadius"/>
             <InterpolatingParam id="3424" interp="linr"  time="0/1" value="4" leadInLength="0/1"  name="Style"/>
             <InterpolatingParam id="3425" interp="linr"  time="0/1" value="155" leadInLength="0/1"  name="borderColorBlue"/>
             <InterpolatingParam id="3426" interp="linr"  time="0/1" value="133" leadInLength="0/1"  name="borderColorGreen"/>
             <InterpolatingParam id="3427" interp="linr"  time="0/1" value="49" leadInLength="0/1"  name="borderColorRed"/>
             <InterpolatingParam id="3428" interp="linr"  time="0/1" value="0" leadInLength="0/1"  name="borderState"/>
             <InterpolatingParam id="3429" interp="linr"  time="0/1" value="3" leadInLength="0/1"  name="borderWidth"/>
             <InterpolatingParam id="3430" interp="linr"  time="0/1" value="0" leadInLength="0/1"  name="dimensionTime"/>
             <InterpolatingParam id="3431" interp="linr"  time="0/1" value="255" leadInLength="0/1"  name="fillColorBlue"/>
             <InterpolatingParam id="3432" interp="linr"  time="0/1" value="255" leadInLength="0/1"  name="fillColorGreen"/>
             <InterpolatingParam id="3433" interp="linr"  time="0/1" value="255" leadInLength="0/1"  name="fillColorRed"/>
             <InterpolatingParam id="3434" interp="linr"  time="0/1" value="1" leadInLength="0/1"  name="fillState"/>
             <InterpolatingParam id="3435" interp="linr"  time="0/1" value="0" leadInLength="0/1"  name="flipOnXAxis"/>
             <InterpolatingParam id="3436" interp="linr"  time="0/1" value="0" leadInLength="0/1"  name="flipOnYAxis"/>
             <InterpolatingParam id="3437" interp="linr"  time="0/1" value="232.02416918429003" leadInLength="0/1"  name="height"/>
             <InterpolatingParam id="3438" interp="linr"  time="0/1" value="0" leadInLength="0/1"  name="textDropShadow"/>
             <InterpolatingParam id="3439" interp="linr"  time="0/1" value="0" leadInLength="0/1"  name="textIgnoresOpacity"/>
             <InterpolatingParam id="3440" interp="linr"  time="0/1" value="0.875" leadInLength="0/1"  name="textRectHeight"/>
             <InterpolatingParam id="3441" interp="linr"  time="0/1" value="0.90936555891238668" leadInLength="0/1"  name="textRectWidth"/>
             <InterpolatingParam id="3442" interp="linr"  time="0/1" value="0.045317220543806644" leadInLength="0/1"  name="textRectX"/>
             <InterpolatingParam id="3443" interp="linr"  time="0/1" value="0.0625" leadInLength="0/1"  name="textRectY"/>
             <InterpolatingParam id="3444" interp="linr"  time="0/1" value="0" leadInLength="0/1"  name="textVerticalAlign"/>
             <InterpolatingParam id="3445" interp="linr"  time="0/1" value="320" leadInLength="0/1"  name="width"/>
            </DoubleParameters>
            <StringParameters>
             <Parameter id="3446"  name="VectorPath">
              <Keyframes>
              <Keyframe id="3447"  time="0/1" value="M0,0h331v240H0V0z" leadInLength="0/1"  />
              </Keyframes>
             </Parameter>
             <Parameter id="3448"  name="filename">
              <Keyframes>
              <Keyframe id="3449"  time="0/1" value="D:\Media\Studio\Callouts\rectanglewithtext.xml" leadInLength="0/1"  />
              </Keyframes>
             </Parameter>
             <Parameter id="3450"  name="name">
              <Keyframes>
              <Keyframe id="3451"  time="0/1" value="Simple Rectangle" leadInLength="0/1"  />
              </Keyframes>
             </Parameter>
             <Parameter id="3452"  name="text">
              <Keyframes>
              <Keyframe id="3453"  time="0/1" value="{\rtf1\ansi\ansicpg1252\deff0\deflang1033{\fonttbl{\f0\fswiss\fprq2\fcharset0 Arial;}}&#xD;&#xa;{\colortbl ;\red0\green0\blue0;\red255\green255\blue255;}&#xD;&#xa;\viewkind4\uc1\pard\qc\cf1\f0\fs32  Iphone /Android/Browser Application\cf2\par&#xD;&#xa;}&#xD;&#xa;" leadInLength="0/1"  />
              </Keyframes>
             </Parameter>
             <Parameter id="3454"  name="xmlContent">
              <Keyframes>
              <Keyframe id="3455"  time="0/1" value="﻿&lt;?xml version=&quot;1.0&quot;?&gt;&#xa;&#xa;&lt;Overlay version=&quot;1.0.1&quot;&gt;&#xa;&#xa;&lt;Overlay_Filename&gt;rectanglewithtext.png&lt;/Overlay_Filename&gt;&#xa;&lt;Overlay_Name&gt;Simple Rectangle&lt;/Overlay_Name&gt;&#xa;&lt;Text_Top&gt;15&lt;/Text_Top&gt;&#xa;&lt;Text_Left&gt;15&lt;/Text_Left&gt;&#xa;&lt;Text_Bottom&gt;15&lt;/Text_Bottom&gt;&#xa;&lt;Text_Right&gt;15&lt;/Text_Right&gt;&#xa;&lt;Fill_Color&gt;1&lt;/Fill_Color&gt;&#xa;&lt;Border_Color&gt;1&lt;/Border_Color&gt;&#xa;&lt;Initial_Fill_Color&gt;0xff9b8531&lt;/Initial_Fill_Color&gt;&#xa;&lt;Initial_Border_Color&gt;0xff9b8531&lt;/Initial_Border_Color&gt;&#xa;&lt;VectorProps&gt;&#xa;&lt;figure&gt;&#xa;&lt;svg&gt;M0,0h331v240H0V0z&lt;/svg&gt;&#xa;&lt;/figure&gt;&#xa;&lt;seamY&gt;-1&lt;/seamY&gt;&#xa;&lt;shapeWidth&gt;331&lt;/shapeWidth&gt;&#xa;&lt;shapeHeight&gt;240&lt;/shapeHeight&gt;&#xa;&lt;/VectorProps&gt;&#xa;&lt;Style&gt;4&lt;/Style&gt;&#xa;&lt;UseDefaultSpec&gt;1&lt;/UseDefaultSpec&gt;   &#xa;&lt;/Overlay&gt;" leadInLength="0/1"  />
              </Keyframes>
             </Parameter>
            </StringParameters>
           </VectorNode>
          </Attribute>
         </Attributes>
         <MetaData>
          <entry key="WinSubProjectDisplayName" val=""/>
         </MetaData>
         <LeftEdgeMods length="0/1" groupName="OpacityFade">
          <EdgeMod parameter="3419">
           <FadeInFunc id="3456"  />
          </EdgeMod>
         </LeftEdgeMods>
         <RightEdgeMods length="0/1" groupName="OpacityFade">
          <EdgeMod parameter="3419">
           <FadeOutFunc id="3457"  />
          </EdgeMod>
         </RightEdgeMods>
         <ExtraData>
          <Entry key="ZoomPanBin">
           <ZoomPanBin id="3458"  >
            <ZoomPanKeyframes>
             <ZoomPanKeyframe id="3459" timeRangeEnd="-9999999/1" timeRangeDuration="0/1" interpolaterName="linr"  />
            </ZoomPanKeyframes>
           </ZoomPanBin>
          </Entry>
         </ExtraData>
        </Callout>
        <Callout id="3460" start="20713" duration="1306" scalar="1/1" mediaStart="-66/1" mediaDuration="1306/1" >
         <Transformer>
          <VectorParam id="3461"  name="translation">
           <InterpolatingParam id="3462" interp="linr"  >
            <Keyframes>
            <Keyframe id="3463"  time="-9999999/1" value="461.83266932253514" leadInLength="0/1"  />
            <Keyframe id="3464"  time="59/1" value="741.14885739029774" leadInLength="30/1"  interpolater="leadin-linr"  />
            </Keyframes>
           </InterpolatingParam>
           <InterpolatingParam id="3465" interp="linr"  >
            <Keyframes>
            <Keyframe id="3466"  time="-9999999/1" value="-293.30677290844181" leadInLength="0/1"  />
            <Keyframe id="3467"  time="59/1" value="-472.57033089155476" leadInLength="30/1"  interpolater="leadin-linr"  />
            </Keyframes>
           </InterpolatingParam>
           <InterpolatingParam id="3468" interp="linr"  >
            <Keyframes>
            <Keyframe id="3469"  time="-9999999/1" value="0" leadInLength="0/1"  />
            <Keyframe id="3470"  time="59/1" value="0" leadInLength="30/1"  interpolater="leadin-linr"  />
            </Keyframes>
           </InterpolatingParam>
          </VectorParam>
          <VectorParam id="3471"  name="rotation">
           <InterpolatingParam id="3472" interp="linr"  >
            <Keyframes>
            <Keyframe id="3473"  time="-9999999/1" value="0" leadInLength="0/1"  />
            <Keyframe id="3474"  time="59/1" value="0" leadInLength="30/1"  interpolater="leadin-linr"  />
            </Keyframes>
           </InterpolatingParam>
           <InterpolatingParam id="3475" interp="linr"  >
            <Keyframes>
            <Keyframe id="3476"  time="-9999999/1" value="0" leadInLength="0/1"  />
            <Keyframe id="3477"  time="59/1" value="0" leadInLength="30/1"  interpolater="leadin-linr"  />
            </Keyframes>
           </InterpolatingParam>
           <InterpolatingParam id="3478" interp="linr"  >
            <Keyframes>
            <Keyframe id="3479"  time="-9999999/1" value="0" leadInLength="0/1"  />
            <Keyframe id="3480"  time="59/1" value="0" leadInLength="30/1"  interpolater="leadin-linr"  />
            </Keyframes>
           </InterpolatingParam>
          </VectorParam>
          <VectorParam id="3481"  name="shear">
           <InterpolatingParam id="3482" interp="linr"  >
            <Keyframes>
            <Keyframe id="3483"  time="-9999999/1" value="0" leadInLength="0/1"  />
            <Keyframe id="3484"  time="59/1" value="0" leadInLength="30/1"  interpolater="leadin-linr"  />
            </Keyframes>
           </InterpolatingParam>
           <InterpolatingParam id="3485" interp="linr"  >
            <Keyframes>
            <Keyframe id="3486"  time="-9999999/1" value="0" leadInLength="0/1"  />
            <Keyframe id="3487"  time="59/1" value="0" leadInLength="30/1"  interpolater="leadin-linr"  />
            </Keyframes>
           </InterpolatingParam>
           <InterpolatingParam id="3488" interp="linr"  >
            <Keyframes>
            <Keyframe id="3489"  time="-9999999/1" value="0" leadInLength="0/1"  />
            <Keyframe id="3490"  time="59/1" value="0" leadInLength="30/1"  interpolater="leadin-linr"  />
            </Keyframes>
           </InterpolatingParam>
          </VectorParam>
          <VectorParam id="3491"  name="scale">
           <InterpolatingParam id="3492" interp="linr"  >
            <Keyframes>
            <Keyframe id="3493"  time="-9999999/1" value="1.0717131474093351" leadInLength="0/1"  />
            <Keyframe id="3494"  time="59/1" value="1.3948759141237592" leadInLength="30/1"  interpolater="leadin-linr"  />
            </Keyframes>
           </InterpolatingParam>
           <InterpolatingParam id="3495" interp="linr"  >
            <Keyframes>
            <Keyframe id="3496"  time="-9999999/1" value="0.64143426294889849" leadInLength="0/1"  />
            <Keyframe id="3497"  time="59/1" value="0.83485191206305542" leadInLength="30/1"  interpolater="leadin-linr"  />
            </Keyframes>
           </InterpolatingParam>
           <InterpolatingParam id="3498" interp="linr"  >
            <Keyframes>
            <Keyframe id="3499"  time="-9999999/1" value="1" leadInLength="0/1"  />
            <Keyframe id="3500"  time="59/1" value="0.99999999999999933" leadInLength="30/1"  interpolater="leadin-linr"  />
            </Keyframes>
           </InterpolatingParam>
          </VectorParam>
          <VectorParam id="3501"  name="anchor">
           <InterpolatingParam id="3502" interp="linr"  time="0/1" value="0" leadInLength="0/1"  />
           <InterpolatingParam id="3503" interp="linr"  time="0/1" value="0" leadInLength="0/1"  />
           <InterpolatingParam id="3504" interp="linr"  time="0/1" value="0" leadInLength="0/1"  />
          </VectorParam>
         </Transformer>
         <Parameters>
          <VectorParam id="3505"  name="sourceCrop">
           <InterpolatingParam id="3506" interp="linr"  time="0/1" value="0" leadInLength="0/1"  />
           <InterpolatingParam id="3507" interp="linr"  time="0/1" value="0" leadInLength="0/1"  />
           <InterpolatingParam id="3508" interp="linr"  time="0/1" value="0" leadInLength="0/1"  />
           <InterpolatingParam id="3509" interp="linr"  time="0/1" value="0" leadInLength="0/1"  />
          </VectorParam>
          <VectorParam id="3510"  name="geometryCrop">
           <InterpolatingParam id="3511" interp="linr"  >
            <Keyframes>
            <Keyframe id="3512"  time="-9999999/1" value="0" leadInLength="0/1"  />
            <Keyframe id="3513"  time="59/1" value="0" leadInLength="30/1"  interpolater="leadin-linr"  />
            </Keyframes>
           </InterpolatingParam>
           <InterpolatingParam id="3514" interp="linr"  >
            <Keyframes>
            <Keyframe id="3515"  time="-9999999/1" value="0" leadInLength="0/1"  />
            <Keyframe id="3516"  time="59/1" value="0" leadInLength="30/1"  interpolater="leadin-linr"  />
            </Keyframes>
           </InterpolatingParam>
           <InterpolatingParam id="3517" interp="linr"  >
            <Keyframes>
            <Keyframe id="3518"  time="-9999999/1" value="0" leadInLength="0/1"  />
            <Keyframe id="3519"  time="59/1" value="0" leadInLength="30/1"  interpolater="leadin-linr"  />
            </Keyframes>
           </InterpolatingParam>
           <InterpolatingParam id="3520" interp="linr"  >
            <Keyframes>
            <Keyframe id="3521"  time="-9999999/1" value="0" leadInLength="0/1"  />
            <Keyframe id="3522"  time="59/1" value="0" leadInLength="30/1"  interpolater="leadin-linr"  />
            </Keyframes>
           </InterpolatingParam>
          </VectorParam>
          <InterpolatingParam id="3523" interp="linr"  name="opacity">
           <Keyframes>
           <Keyframe id="3524"  time="-9999999/1" value="1" leadInLength="0/1"  />
           <Keyframe id="3525"  time="59/1" value="1" leadInLength="30/1"  interpolater="leadin-linr"  />
           </Keyframes>
          </InterpolatingParam>
         </Parameters>
         <Attributes>
          <Attribute id="3526"  name="vectorNode">
           <VectorNode id="3527" kind="TypeWinBlur"  >
            <DoubleParameters>
             <InterpolatingParam id="3528" interp="linr"  time="0/1" value="1" leadInLength="0/1"  name="Intensity"/>
             <InterpolatingParam id="3529" interp="linr"  time="0/1" value="180" leadInLength="0/1"  name="height"/>
             <InterpolatingParam id="3530" interp="linr"  time="0/1" value="320" leadInLength="0/1"  name="width"/>
            </DoubleParameters>
            <StringParameters>
             <Parameter id="3531"  name="filename">
              <Keyframes>
              <Keyframe id="3532"  time="0/1" value="D:\Media\Studio\Callouts\blur_100x100.xml" leadInLength="0/1"  />
              </Keyframes>
             </Parameter>
             <Parameter id="3533"  name="name">
              <Keyframes>
              <Keyframe id="3534"  time="0/1" value="Blur" leadInLength="0/1"  />
              </Keyframes>
             </Parameter>
             <Parameter id="3535"  name="xmlContent">
              <Keyframes>
              <Keyframe id="3536"  time="0/1" value="﻿&lt;?xml version=&quot;1.0&quot;?&gt;&#xa;&#xa;&lt;Overlay version=&quot;1.0.1&quot;&gt;&#xa;&#xa;&lt;Overlay_Filename&gt;blur_100x100.png&lt;/Overlay_Filename&gt;&#xa;&lt;Overlay_Name&gt;Blur&lt;/Overlay_Name&gt;&#xa;&lt;Text_Top&gt;0&lt;/Text_Top&gt;&#xa;&lt;Text_Left&gt;0&lt;/Text_Left&gt;&#xa;&lt;Text_Bottom&gt;0&lt;/Text_Bottom&gt;&#xa;&lt;Text_Right&gt;0&lt;/Text_Right&gt;&#xa;&lt;Fill_Color&gt;0&lt;/Fill_Color&gt;&#xa;&lt;Border_Color&gt;0&lt;/Border_Color&gt;&#xa;&lt;/Overlay&gt;" leadInLength="0/1"  />
              </Keyframes>
             </Parameter>
            </StringParameters>
           </VectorNode>
          </Attribute>
         </Attributes>
         <MetaData>
          <entry key="WinSubProjectDisplayName" val=""/>
         </MetaData>
         <LeftEdgeMods length="30/1" groupName="OpacityFade">
          <EdgeMod parameter="3528">
           <FadeInFunc id="3456"  />
          </EdgeMod>
         </LeftEdgeMods>
         <ExtraData>
          <Entry key="ZoomPanBin">
           <ZoomPanBin id="3537"  >
            <ZoomPanKeyframes>
             <ZoomPanKeyframe id="3538" timeRangeEnd="-9999999/1" timeRangeDuration="0/1" interpolaterName="linr"  />
             <ZoomPanKeyframe id="3539" timeRangeEnd="59/1" timeRangeDuration="30/1" interpolaterName="linr"  />
            </ZoomPanKeyframes>
           </ZoomPanBin>
          </Entry>
         </ExtraData>
        </Callout>
        <Callout id="3540" start="22019" duration="55" scalar="1/1" mediaStart="1363/1" mediaDuration="55/1" >
         <Transformer>
          <VectorParam id="3541"  name="translation">
           <InterpolatingParam id="3542" interp="linr"  >
            <Keyframes>
            <Keyframe id="3543"  time="-9999999/1" value="461.83266932253514" leadInLength="0/1"  />
            <Keyframe id="3544"  time="59/1" value="741.14885739029774" leadInLength="30/1"  interpolater="leadin-linr"  />
            </Keyframes>
           </InterpolatingParam>
           <InterpolatingParam id="3545" interp="linr"  >
            <Keyframes>
            <Keyframe id="3546"  time="-9999999/1" value="-293.30677290844181" leadInLength="0/1"  />
            <Keyframe id="3547"  time="59/1" value="-472.57033089155476" leadInLength="30/1"  interpolater="leadin-linr"  />
            </Keyframes>
           </InterpolatingParam>
           <InterpolatingParam id="3548" interp="linr"  >
            <Keyframes>
            <Keyframe id="3549"  time="-9999999/1" value="0" leadInLength="0/1"  />
            <Keyframe id="3550"  time="59/1" value="0" leadInLength="30/1"  interpolater="leadin-linr"  />
            </Keyframes>
           </InterpolatingParam>
          </VectorParam>
          <VectorParam id="3551"  name="rotation">
           <InterpolatingParam id="3552" interp="linr"  >
            <Keyframes>
            <Keyframe id="3553"  time="-9999999/1" value="0" leadInLength="0/1"  />
            <Keyframe id="3554"  time="59/1" value="0" leadInLength="30/1"  interpolater="leadin-linr"  />
            </Keyframes>
           </InterpolatingParam>
           <InterpolatingParam id="3555" interp="linr"  >
            <Keyframes>
            <Keyframe id="3556"  time="-9999999/1" value="0" leadInLength="0/1"  />
            <Keyframe id="3557"  time="59/1" value="0" leadInLength="30/1"  interpolater="leadin-linr"  />
            </Keyframes>
           </InterpolatingParam>
           <InterpolatingParam id="3558" interp="linr"  >
            <Keyframes>
            <Keyframe id="3559"  time="-9999999/1" value="0" leadInLength="0/1"  />
            <Keyframe id="3560"  time="59/1" value="0" leadInLength="30/1"  interpolater="leadin-linr"  />
            </Keyframes>
           </InterpolatingParam>
          </VectorParam>
          <VectorParam id="3561"  name="shear">
           <InterpolatingParam id="3562" interp="linr"  >
            <Keyframes>
            <Keyframe id="3563"  time="-9999999/1" value="0" leadInLength="0/1"  />
            <Keyframe id="3564"  time="59/1" value="0" leadInLength="30/1"  interpolater="leadin-linr"  />
            </Keyframes>
           </InterpolatingParam>
           <InterpolatingParam id="3565" interp="linr"  >
            <Keyframes>
            <Keyframe id="3566"  time="-9999999/1" value="0" leadInLength="0/1"  />
            <Keyframe id="3567"  time="59/1" value="0" leadInLength="30/1"  interpolater="leadin-linr"  />
            </Keyframes>
           </InterpolatingParam>
           <InterpolatingParam id="3568" interp="linr"  >
            <Keyframes>
            <Keyframe id="3569"  time="-9999999/1" value="0" leadInLength="0/1"  />
            <Keyframe id="3570"  time="59/1" value="0" leadInLength="30/1"  interpolater="leadin-linr"  />
            </Keyframes>
           </InterpolatingParam>
          </VectorParam>
          <VectorParam id="3571"  name="scale">
           <InterpolatingParam id="3572" interp="linr"  >
            <Keyframes>
            <Keyframe id="3573"  time="-9999999/1" value="1.0717131474093351" leadInLength="0/1"  />
            <Keyframe id="3574"  time="59/1" value="1.3948759141237592" leadInLength="30/1"  interpolater="leadin-linr"  />
            </Keyframes>
           </InterpolatingParam>
           <InterpolatingParam id="3575" interp="linr"  >
            <Keyframes>
            <Keyframe id="3576"  time="-9999999/1" value="0.64143426294889849" leadInLength="0/1"  />
            <Keyframe id="3577"  time="59/1" value="0.83485191206305542" leadInLength="30/1"  interpolater="leadin-linr"  />
            </Keyframes>
           </InterpolatingParam>
           <InterpolatingParam id="3578" interp="linr"  >
            <Keyframes>
            <Keyframe id="3579"  time="-9999999/1" value="1" leadInLength="0/1"  />
            <Keyframe id="3580"  time="59/1" value="0.99999999999999933" leadInLength="30/1"  interpolater="leadin-linr"  />
            </Keyframes>
           </InterpolatingParam>
          </VectorParam>
          <VectorParam id="3581"  name="anchor">
           <InterpolatingParam id="3582" interp="linr"  time="0/1" value="0" leadInLength="0/1"  />
           <InterpolatingParam id="3583" interp="linr"  time="0/1" value="0" leadInLength="0/1"  />
           <InterpolatingParam id="3584" interp="linr"  time="0/1" value="0" leadInLength="0/1"  />
          </VectorParam>
         </Transformer>
         <Parameters>
          <VectorParam id="3585"  name="sourceCrop">
           <InterpolatingParam id="3586" interp="linr"  time="0/1" value="0" leadInLength="0/1"  />
           <InterpolatingParam id="3587" interp="linr"  time="0/1" value="0" leadInLength="0/1"  />
           <InterpolatingParam id="3588" interp="linr"  time="0/1" value="0" leadInLength="0/1"  />
           <InterpolatingParam id="3589" interp="linr"  time="0/1" value="0" leadInLength="0/1"  />
          </VectorParam>
          <VectorParam id="3590"  name="geometryCrop">
           <InterpolatingParam id="3591" interp="linr"  >
            <Keyframes>
            <Keyframe id="3592"  time="-9999999/1" value="0" leadInLength="0/1"  />
            <Keyframe id="3593"  time="59/1" value="0" leadInLength="30/1"  interpolater="leadin-linr"  />
            </Keyframes>
           </InterpolatingParam>
           <InterpolatingParam id="3594" interp="linr"  >
            <Keyframes>
            <Keyframe id="3595"  time="-9999999/1" value="0" leadInLength="0/1"  />
            <Keyframe id="3596"  time="59/1" value="0" leadInLength="30/1"  interpolater="leadin-linr"  />
            </Keyframes>
           </InterpolatingParam>
           <InterpolatingParam id="3597" interp="linr"  >
            <Keyframes>
            <Keyframe id="3598"  time="-9999999/1" value="0" leadInLength="0/1"  />
            <Keyframe id="3599"  time="59/1" value="0" leadInLength="30/1"  interpolater="leadin-linr"  />
            </Keyframes>
           </InterpolatingParam>
           <InterpolatingParam id="3600" interp="linr"  >
            <Keyframes>
            <Keyframe id="3601"  time="-9999999/1" value="0" leadInLength="0/1"  />
            <Keyframe id="3602"  time="59/1" value="0" leadInLength="30/1"  interpolater="leadin-linr"  />
            </Keyframes>
           </InterpolatingParam>
          </VectorParam>
          <InterpolatingParam id="3603" interp="linr"  name="opacity">
           <Keyframes>
           <Keyframe id="3604"  time="-9999999/1" value="1" leadInLength="0/1"  />
           <Keyframe id="3605"  time="59/1" value="1" leadInLength="30/1"  interpolater="leadin-linr"  />
           </Keyframes>
          </InterpolatingParam>
         </Parameters>
         <Attributes>
          <Attribute id="3606"  name="vectorNode">
           <VectorNode id="3607" kind="TypeWinBlur"  >
            <DoubleParameters>
             <InterpolatingParam id="3608" interp="linr"  time="0/1" value="1" leadInLength="0/1"  name="Intensity"/>
             <InterpolatingParam id="3609" interp="linr"  time="0/1" value="180" leadInLength="0/1"  name="height"/>
             <InterpolatingParam id="3610" interp="linr"  time="0/1" value="320" leadInLength="0/1"  name="width"/>
            </DoubleParameters>
            <StringParameters>
             <Parameter id="3611"  name="filename">
              <Keyframes>
              <Keyframe id="3612"  time="0/1" value="D:\Media\Studio\Callouts\blur_100x100.xml" leadInLength="0/1"  />
              </Keyframes>
             </Parameter>
             <Parameter id="3613"  name="name">
              <Keyframes>
              <Keyframe id="3614"  time="0/1" value="Blur" leadInLength="0/1"  />
              </Keyframes>
             </Parameter>
             <Parameter id="3615"  name="xmlContent">
              <Keyframes>
              <Keyframe id="3616"  time="0/1" value="﻿&lt;?xml version=&quot;1.0&quot;?&gt;&#xa;&#xa;&lt;Overlay version=&quot;1.0.1&quot;&gt;&#xa;&#xa;&lt;Overlay_Filename&gt;blur_100x100.png&lt;/Overlay_Filename&gt;&#xa;&lt;Overlay_Name&gt;Blur&lt;/Overlay_Name&gt;&#xa;&lt;Text_Top&gt;0&lt;/Text_Top&gt;&#xa;&lt;Text_Left&gt;0&lt;/Text_Left&gt;&#xa;&lt;Text_Bottom&gt;0&lt;/Text_Bottom&gt;&#xa;&lt;Text_Right&gt;0&lt;/Text_Right&gt;&#xa;&lt;Fill_Color&gt;0&lt;/Fill_Color&gt;&#xa;&lt;Border_Color&gt;0&lt;/Border_Color&gt;&#xa;&lt;/Overlay&gt;" leadInLength="0/1"  />
              </Keyframes>
             </Parameter>
            </StringParameters>
           </VectorNode>
          </Attribute>
         </Attributes>
         <MetaData>
          <entry key="WinSubProjectDisplayName" val=""/>
         </MetaData>
         <ExtraData>
          <Entry key="ZoomPanBin">
           <ZoomPanBin id="3617"  >
            <ZoomPanKeyframes>
             <ZoomPanKeyframe id="3618" timeRangeEnd="-9999999/1" timeRangeDuration="0/1" interpolaterName="linr"  />
             <ZoomPanKeyframe id="3619" timeRangeEnd="59/1" timeRangeDuration="30/1" interpolaterName="linr"  />
            </ZoomPanKeyframes>
           </ZoomPanBin>
          </Entry>
         </ExtraData>
        </Callout>
        <Callout id="3620" start="22074" duration="120" scalar="1/1" mediaStart="1446/1" mediaDuration="120/1" >
         <Transformer>
          <VectorParam id="3621"  name="translation">
           <InterpolatingParam id="3622" interp="linr"  >
            <Keyframes>
            <Keyframe id="3623"  time="-9999999/1" value="461.83266932253514" leadInLength="0/1"  />
            <Keyframe id="3624"  time="59/1" value="741.14885739029774" leadInLength="30/1"  interpolater="leadin-linr"  />
            </Keyframes>
           </InterpolatingParam>
           <InterpolatingParam id="3625" interp="linr"  >
            <Keyframes>
            <Keyframe id="3626"  time="-9999999/1" value="-293.30677290844181" leadInLength="0/1"  />
            <Keyframe id="3627"  time="59/1" value="-472.57033089155476" leadInLength="30/1"  interpolater="leadin-linr"  />
            </Keyframes>
           </InterpolatingParam>
           <InterpolatingParam id="3628" interp="linr"  >
            <Keyframes>
            <Keyframe id="3629"  time="-9999999/1" value="0" leadInLength="0/1"  />
            <Keyframe id="3630"  time="59/1" value="0" leadInLength="30/1"  interpolater="leadin-linr"  />
            </Keyframes>
           </InterpolatingParam>
          </VectorParam>
          <VectorParam id="3631"  name="rotation">
           <InterpolatingParam id="3632" interp="linr"  >
            <Keyframes>
            <Keyframe id="3633"  time="-9999999/1" value="0" leadInLength="0/1"  />
            <Keyframe id="3634"  time="59/1" value="0" leadInLength="30/1"  interpolater="leadin-linr"  />
            </Keyframes>
           </InterpolatingParam>
           <InterpolatingParam id="3635" interp="linr"  >
            <Keyframes>
            <Keyframe id="3636"  time="-9999999/1" value="0" leadInLength="0/1"  />
            <Keyframe id="3637"  time="59/1" value="0" leadInLength="30/1"  interpolater="leadin-linr"  />
            </Keyframes>
           </InterpolatingParam>
           <InterpolatingParam id="3638" interp="linr"  >
            <Keyframes>
            <Keyframe id="3639"  time="-9999999/1" value="0" leadInLength="0/1"  />
            <Keyframe id="3640"  time="59/1" value="0" leadInLength="30/1"  interpolater="leadin-linr"  />
            </Keyframes>
           </InterpolatingParam>
          </VectorParam>
          <VectorParam id="3641"  name="shear">
           <InterpolatingParam id="3642" interp="linr"  >
            <Keyframes>
            <Keyframe id="3643"  time="-9999999/1" value="0" leadInLength="0/1"  />
            <Keyframe id="3644"  time="59/1" value="0" leadInLength="30/1"  interpolater="leadin-linr"  />
            </Keyframes>
           </InterpolatingParam>
           <InterpolatingParam id="3645" interp="linr"  >
            <Keyframes>
            <Keyframe id="3646"  time="-9999999/1" value="0" leadInLength="0/1"  />
            <Keyframe id="3647"  time="59/1" value="0" leadInLength="30/1"  interpolater="leadin-linr"  />
            </Keyframes>
           </InterpolatingParam>
           <InterpolatingParam id="3648" interp="linr"  >
            <Keyframes>
            <Keyframe id="3649"  time="-9999999/1" value="0" leadInLength="0/1"  />
            <Keyframe id="3650"  time="59/1" value="0" leadInLength="30/1"  interpolater="leadin-linr"  />
            </Keyframes>
           </InterpolatingParam>
          </VectorParam>
          <VectorParam id="3651"  name="scale">
           <InterpolatingParam id="3652" interp="linr"  >
            <Keyframes>
            <Keyframe id="3653"  time="-9999999/1" value="1.0717131474093351" leadInLength="0/1"  />
            <Keyframe id="3654"  time="59/1" value="1.3948759141237592" leadInLength="30/1"  interpolater="leadin-linr"  />
            </Keyframes>
           </InterpolatingParam>
           <InterpolatingParam id="3655" interp="linr"  >
            <Keyframes>
            <Keyframe id="3656"  time="-9999999/1" value="0.64143426294889849" leadInLength="0/1"  />
            <Keyframe id="3657"  time="59/1" value="0.83485191206305542" leadInLength="30/1"  interpolater="leadin-linr"  />
            </Keyframes>
           </InterpolatingParam>
           <InterpolatingParam id="3658" interp="linr"  >
            <Keyframes>
            <Keyframe id="3659"  time="-9999999/1" value="1" leadInLength="0/1"  />
            <Keyframe id="3660"  time="59/1" value="0.99999999999999933" leadInLength="30/1"  interpolater="leadin-linr"  />
            </Keyframes>
           </InterpolatingParam>
          </VectorParam>
          <VectorParam id="3661"  name="anchor">
           <InterpolatingParam id="3662" interp="linr"  time="0/1" value="0" leadInLength="0/1"  />
           <InterpolatingParam id="3663" interp="linr"  time="0/1" value="0" leadInLength="0/1"  />
           <InterpolatingParam id="3664" interp="linr"  time="0/1" value="0" leadInLength="0/1"  />
          </VectorParam>
         </Transformer>
         <Parameters>
          <VectorParam id="3665"  name="sourceCrop">
           <InterpolatingParam id="3666" interp="linr"  time="0/1" value="0" leadInLength="0/1"  />
           <InterpolatingParam id="3667" interp="linr"  time="0/1" value="0" leadInLength="0/1"  />
           <InterpolatingParam id="3668" interp="linr"  time="0/1" value="0" leadInLength="0/1"  />
           <InterpolatingParam id="3669" interp="linr"  time="0/1" value="0" leadInLength="0/1"  />
          </VectorParam>
          <VectorParam id="3670"  name="geometryCrop">
           <InterpolatingParam id="3671" interp="linr"  >
            <Keyframes>
            <Keyframe id="3672"  time="-9999999/1" value="0" leadInLength="0/1"  />
            <Keyframe id="3673"  time="59/1" value="0" leadInLength="30/1"  interpolater="leadin-linr"  />
            </Keyframes>
           </InterpolatingParam>
           <InterpolatingParam id="3674" interp="linr"  >
            <Keyframes>
            <Keyframe id="3675"  time="-9999999/1" value="0" leadInLength="0/1"  />
            <Keyframe id="3676"  time="59/1" value="0" leadInLength="30/1"  interpolater="leadin-linr"  />
            </Keyframes>
           </InterpolatingParam>
           <InterpolatingParam id="3677" interp="linr"  >
            <Keyframes>
            <Keyframe id="3678"  time="-9999999/1" value="0" leadInLength="0/1"  />
            <Keyframe id="3679"  time="59/1" value="0" leadInLength="30/1"  interpolater="leadin-linr"  />
            </Keyframes>
           </InterpolatingParam>
           <InterpolatingParam id="3680" interp="linr"  >
            <Keyframes>
            <Keyframe id="3681"  time="-9999999/1" value="0" leadInLength="0/1"  />
            <Keyframe id="3682"  time="59/1" value="0" leadInLength="30/1"  interpolater="leadin-linr"  />
            </Keyframes>
           </InterpolatingParam>
          </VectorParam>
          <InterpolatingParam id="3683" interp="linr"  name="opacity">
           <Keyframes>
           <Keyframe id="3684"  time="-9999999/1" value="1" leadInLength="0/1"  />
           <Keyframe id="3685"  time="59/1" value="1" leadInLength="30/1"  interpolater="leadin-linr"  />
           </Keyframes>
          </InterpolatingParam>
         </Parameters>
         <Attributes>
          <Attribute id="3686"  name="vectorNode">
           <VectorNode id="3687" kind="TypeWinBlur"  >
            <DoubleParameters>
             <InterpolatingParam id="3688" interp="linr"  time="0/1" value="1" leadInLength="0/1"  name="Intensity"/>
             <InterpolatingParam id="3689" interp="linr"  time="0/1" value="180" leadInLength="0/1"  name="height"/>
             <InterpolatingParam id="3690" interp="linr"  time="0/1" value="320" leadInLength="0/1"  name="width"/>
            </DoubleParameters>
            <StringParameters>
             <Parameter id="3691"  name="filename">
              <Keyframes>
              <Keyframe id="3692"  time="0/1" value="D:\Media\Studio\Callouts\blur_100x100.xml" leadInLength="0/1"  />
              </Keyframes>
             </Parameter>
             <Parameter id="3693"  name="name">
              <Keyframes>
              <Keyframe id="3694"  time="0/1" value="Blur" leadInLength="0/1"  />
              </Keyframes>
             </Parameter>
             <Parameter id="3695"  name="xmlContent">
              <Keyframes>
              <Keyframe id="3696"  time="0/1" value="﻿&lt;?xml version=&quot;1.0&quot;?&gt;&#xa;&#xa;&lt;Overlay version=&quot;1.0.1&quot;&gt;&#xa;&#xa;&lt;Overlay_Filename&gt;blur_100x100.png&lt;/Overlay_Filename&gt;&#xa;&lt;Overlay_Name&gt;Blur&lt;/Overlay_Name&gt;&#xa;&lt;Text_Top&gt;0&lt;/Text_Top&gt;&#xa;&lt;Text_Left&gt;0&lt;/Text_Left&gt;&#xa;&lt;Text_Bottom&gt;0&lt;/Text_Bottom&gt;&#xa;&lt;Text_Right&gt;0&lt;/Text_Right&gt;&#xa;&lt;Fill_Color&gt;0&lt;/Fill_Color&gt;&#xa;&lt;Border_Color&gt;0&lt;/Border_Color&gt;&#xa;&lt;/Overlay&gt;" leadInLength="0/1"  />
              </Keyframes>
             </Parameter>
            </StringParameters>
           </VectorNode>
          </Attribute>
         </Attributes>
         <MetaData>
          <entry key="WinSubProjectDisplayName" val=""/>
         </MetaData>
         <ExtraData>
          <Entry key="ZoomPanBin">
           <ZoomPanBin id="3697"  >
            <ZoomPanKeyframes>
             <ZoomPanKeyframe id="3698" timeRangeEnd="-9999999/1" timeRangeDuration="0/1" interpolaterName="linr"  />
             <ZoomPanKeyframe id="3699" timeRangeEnd="59/1" timeRangeDuration="30/1" interpolaterName="linr"  />
            </ZoomPanKeyframes>
           </ZoomPanBin>
          </Entry>
         </ExtraData>
        </Callout>
        <Callout id="3700" start="22194" duration="356" scalar="1/1" mediaStart="1594/1" mediaDuration="356/1" >
         <Transformer>
          <VectorParam id="3701"  name="translation">
           <InterpolatingParam id="3702" interp="linr"  >
            <Keyframes>
            <Keyframe id="3703"  time="-9999999/1" value="461.83266932253514" leadInLength="0/1"  />
            <Keyframe id="3704"  time="59/1" value="741.14885739029774" leadInLength="30/1"  interpolater="leadin-linr"  />
            <Keyframe id="3705"  time="1656/1" value="461.83266932234056" leadInLength="30/1"  interpolater="leadin-linr"  />
            </Keyframes>
           </InterpolatingParam>
           <InterpolatingParam id="3706" interp="linr"  >
            <Keyframes>
            <Keyframe id="3707"  time="-9999999/1" value="-293.30677290844181" leadInLength="0/1"  />
            <Keyframe id="3708"  time="59/1" value="-472.57033089155476" leadInLength="30/1"  interpolater="leadin-linr"  />
            <Keyframe id="3709"  time="1656/1" value="-290.97627982431533" leadInLength="30/1"  interpolater="leadin-linr"  />
            </Keyframes>
           </InterpolatingParam>
           <InterpolatingParam id="3710" interp="linr"  >
            <Keyframes>
            <Keyframe id="3711"  time="-9999999/1" value="0" leadInLength="0/1"  />
            <Keyframe id="3712"  time="59/1" value="0" leadInLength="30/1"  interpolater="leadin-linr"  />
            <Keyframe id="3713"  time="1656/1" value="0" leadInLength="30/1"  interpolater="leadin-linr"  />
            </Keyframes>
           </InterpolatingParam>
          </VectorParam>
          <VectorParam id="3714"  name="rotation">
           <InterpolatingParam id="3715" interp="linr"  >
            <Keyframes>
            <Keyframe id="3716"  time="-9999999/1" value="0" leadInLength="0/1"  />
            <Keyframe id="3717"  time="59/1" value="0" leadInLength="30/1"  interpolater="leadin-linr"  />
            <Keyframe id="3718"  time="1656/1" value="0" leadInLength="30/1"  interpolater="leadin-linr"  />
            </Keyframes>
           </InterpolatingParam>
           <InterpolatingParam id="3719" interp="linr"  >
            <Keyframes>
            <Keyframe id="3720"  time="-9999999/1" value="0" leadInLength="0/1"  />
            <Keyframe id="3721"  time="59/1" value="0" leadInLength="30/1"  interpolater="leadin-linr"  />
            <Keyframe id="3722"  time="1656/1" value="0" leadInLength="30/1"  interpolater="leadin-linr"  />
            </Keyframes>
           </InterpolatingParam>
           <InterpolatingParam id="3723" interp="linr"  >
            <Keyframes>
            <Keyframe id="3724"  time="-9999999/1" value="0" leadInLength="0/1"  />
            <Keyframe id="3725"  time="59/1" value="0" leadInLength="30/1"  interpolater="leadin-linr"  />
            <Keyframe id="3726"  time="1656/1" value="0" leadInLength="30/1"  interpolater="leadin-linr"  />
            </Keyframes>
           </InterpolatingParam>
          </VectorParam>
          <VectorParam id="3727"  name="shear">
           <InterpolatingParam id="3728" interp="linr"  >
            <Keyframes>
            <Keyframe id="3729"  time="-9999999/1" value="0" leadInLength="0/1"  />
            <Keyframe id="3730"  time="59/1" value="0" leadInLength="30/1"  interpolater="leadin-linr"  />
            <Keyframe id="3731"  time="1656/1" value="0" leadInLength="30/1"  interpolater="leadin-linr"  />
            </Keyframes>
           </InterpolatingParam>
           <InterpolatingParam id="3732" interp="linr"  >
            <Keyframes>
            <Keyframe id="3733"  time="-9999999/1" value="0" leadInLength="0/1"  />
            <Keyframe id="3734"  time="59/1" value="0" leadInLength="30/1"  interpolater="leadin-linr"  />
            <Keyframe id="3735"  time="1656/1" value="0" leadInLength="30/1"  interpolater="leadin-linr"  />
            </Keyframes>
           </InterpolatingParam>
           <InterpolatingParam id="3736" interp="linr"  >
            <Keyframes>
            <Keyframe id="3737"  time="-9999999/1" value="0" leadInLength="0/1"  />
            <Keyframe id="3738"  time="59/1" value="0" leadInLength="30/1"  interpolater="leadin-linr"  />
            <Keyframe id="3739"  time="1656/1" value="0" leadInLength="30/1"  interpolater="leadin-linr"  />
            </Keyframes>
           </InterpolatingParam>
          </VectorParam>
          <VectorParam id="3740"  name="scale">
           <InterpolatingParam id="3741" interp="linr"  >
            <Keyframes>
            <Keyframe id="3742"  time="-9999999/1" value="1.0717131474093351" leadInLength="0/1"  />
            <Keyframe id="3743"  time="59/1" value="1.3948759141237592" leadInLength="30/1"  interpolater="leadin-linr"  />
            <Keyframe id="3744"  time="1656/1" value="1.0717131474093344" leadInLength="30/1"  interpolater="leadin-linr"  />
            </Keyframes>
           </InterpolatingParam>
           <InterpolatingParam id="3745" interp="linr"  >
            <Keyframes>
            <Keyframe id="3746"  time="-9999999/1" value="0.64143426294889849" leadInLength="0/1"  />
            <Keyframe id="3747"  time="59/1" value="0.83485191206305542" leadInLength="30/1"  interpolater="leadin-linr"  />
            <Keyframe id="3748"  time="1656/1" value="0.64143466901846169" leadInLength="30/1"  interpolater="leadin-linr"  />
            </Keyframes>
           </InterpolatingParam>
           <InterpolatingParam id="3749" interp="linr"  >
            <Keyframes>
            <Keyframe id="3750"  time="-9999999/1" value="1" leadInLength="0/1"  />
            <Keyframe id="3751"  time="59/1" value="0.99999999999999933" leadInLength="30/1"  interpolater="leadin-linr"  />
            <Keyframe id="3752"  time="1656/1" value="0.99999999999999933" leadInLength="30/1"  interpolater="leadin-linr"  />
            </Keyframes>
           </InterpolatingParam>
          </VectorParam>
          <VectorParam id="3753"  name="anchor">
           <InterpolatingParam id="3754" interp="linr"  time="0/1" value="0" leadInLength="0/1"  />
           <InterpolatingParam id="3755" interp="linr"  time="0/1" value="0" leadInLength="0/1"  />
           <InterpolatingParam id="3756" interp="linr"  time="0/1" value="0" leadInLength="0/1"  />
          </VectorParam>
         </Transformer>
         <Parameters>
          <VectorParam id="3757"  name="sourceCrop">
           <InterpolatingParam id="3758" interp="linr"  time="0/1" value="0" leadInLength="0/1"  />
           <InterpolatingParam id="3759" interp="linr"  time="0/1" value="0" leadInLength="0/1"  />
           <InterpolatingParam id="3760" interp="linr"  time="0/1" value="0" leadInLength="0/1"  />
           <InterpolatingParam id="3761" interp="linr"  time="0/1" value="0" leadInLength="0/1"  />
          </VectorParam>
          <VectorParam id="3762"  name="geometryCrop">
           <InterpolatingParam id="3763" interp="linr"  >
            <Keyframes>
            <Keyframe id="3764"  time="-9999999/1" value="0" leadInLength="0/1"  />
            <Keyframe id="3765"  time="59/1" value="0" leadInLength="30/1"  interpolater="leadin-linr"  />
            <Keyframe id="3766"  time="1656/1" value="0" leadInLength="30/1"  interpolater="leadin-linr"  />
            </Keyframes>
           </InterpolatingParam>
           <InterpolatingParam id="3767" interp="linr"  >
            <Keyframes>
            <Keyframe id="3768"  time="-9999999/1" value="0" leadInLength="0/1"  />
            <Keyframe id="3769"  time="59/1" value="0" leadInLength="30/1"  interpolater="leadin-linr"  />
            <Keyframe id="3770"  time="1656/1" value="0" leadInLength="30/1"  interpolater="leadin-linr"  />
            </Keyframes>
           </InterpolatingParam>
           <InterpolatingParam id="3771" interp="linr"  >
            <Keyframes>
            <Keyframe id="3772"  time="-9999999/1" value="0" leadInLength="0/1"  />
            <Keyframe id="3773"  time="59/1" value="0" leadInLength="30/1"  interpolater="leadin-linr"  />
            <Keyframe id="3774"  time="1656/1" value="0" leadInLength="30/1"  interpolater="leadin-linr"  />
            </Keyframes>
           </InterpolatingParam>
           <InterpolatingParam id="3775" interp="linr"  >
            <Keyframes>
            <Keyframe id="3776"  time="-9999999/1" value="0" leadInLength="0/1"  />
            <Keyframe id="3777"  time="59/1" value="0" leadInLength="30/1"  interpolater="leadin-linr"  />
            <Keyframe id="3778"  time="1656/1" value="0" leadInLength="30/1"  interpolater="leadin-linr"  />
            </Keyframes>
           </InterpolatingParam>
          </VectorParam>
          <InterpolatingParam id="3779" interp="linr"  name="opacity">
           <Keyframes>
           <Keyframe id="3780"  time="-9999999/1" value="1" leadInLength="0/1"  />
           <Keyframe id="3781"  time="59/1" value="1" leadInLength="30/1"  interpolater="leadin-linr"  />
           <Keyframe id="3782"  time="1656/1" value="1" leadInLength="30/1"  interpolater="leadin-linr"  />
           </Keyframes>
          </InterpolatingParam>
         </Parameters>
         <Attributes>
          <Attribute id="3783"  name="vectorNode">
           <VectorNode id="3784" kind="TypeWinBlur"  >
            <DoubleParameters>
             <InterpolatingParam id="3785" interp="linr"  time="0/1" value="1" leadInLength="0/1"  name="Intensity"/>
             <InterpolatingParam id="3786" interp="linr"  time="0/1" value="180" leadInLength="0/1"  name="height"/>
             <InterpolatingParam id="3787" interp="linr"  time="0/1" value="320" leadInLength="0/1"  name="width"/>
            </DoubleParameters>
            <StringParameters>
             <Parameter id="3788"  name="filename">
              <Keyframes>
              <Keyframe id="3789"  time="0/1" value="D:\Media\Studio\Callouts\blur_100x100.xml" leadInLength="0/1"  />
              </Keyframes>
             </Parameter>
             <Parameter id="3790"  name="name">
              <Keyframes>
              <Keyframe id="3791"  time="0/1" value="Blur" leadInLength="0/1"  />
              </Keyframes>
             </Parameter>
             <Parameter id="3792"  name="xmlContent">
              <Keyframes>
              <Keyframe id="3793"  time="0/1" value="﻿&lt;?xml version=&quot;1.0&quot;?&gt;&#xa;&#xa;&lt;Overlay version=&quot;1.0.1&quot;&gt;&#xa;&#xa;&lt;Overlay_Filename&gt;blur_100x100.png&lt;/Overlay_Filename&gt;&#xa;&lt;Overlay_Name&gt;Blur&lt;/Overlay_Name&gt;&#xa;&lt;Text_Top&gt;0&lt;/Text_Top&gt;&#xa;&lt;Text_Left&gt;0&lt;/Text_Left&gt;&#xa;&lt;Text_Bottom&gt;0&lt;/Text_Bottom&gt;&#xa;&lt;Text_Right&gt;0&lt;/Text_Right&gt;&#xa;&lt;Fill_Color&gt;0&lt;/Fill_Color&gt;&#xa;&lt;Border_Color&gt;0&lt;/Border_Color&gt;&#xa;&lt;/Overlay&gt;" leadInLength="0/1"  />
              </Keyframes>
             </Parameter>
            </StringParameters>
           </VectorNode>
          </Attribute>
         </Attributes>
         <MetaData>
          <entry key="WinSubProjectDisplayName" val=""/>
         </MetaData>
         <ExtraData>
          <Entry key="ZoomPanBin">
           <ZoomPanBin id="3794"  >
            <ZoomPanKeyframes>
             <ZoomPanKeyframe id="3795" timeRangeEnd="-9999999/1" timeRangeDuration="0/1" interpolaterName="linr"  />
             <ZoomPanKeyframe id="3796" timeRangeEnd="59/1" timeRangeDuration="30/1" interpolaterName="linr"  />
             <ZoomPanKeyframe id="3797" timeRangeEnd="1656/1" timeRangeDuration="30/1" interpolaterName="linr"  />
            </ZoomPanKeyframes>
           </ZoomPanBin>
          </Entry>
         </ExtraData>
        </Callout>
        <Callout id="3798" start="22550" duration="84" scalar="1/1" mediaStart="1963/1" mediaDuration="84/1" >
         <Transformer>
          <VectorParam id="3799"  name="translation">
           <InterpolatingParam id="3800" interp="linr"  >
            <Keyframes>
            <Keyframe id="3801"  time="-9999999/1" value="461.83266932253514" leadInLength="0/1"  />
            <Keyframe id="3802"  time="59/1" value="741.14885739029774" leadInLength="30/1"  interpolater="leadin-linr"  />
            <Keyframe id="3803"  time="1656/1" value="461.83266932234056" leadInLength="30/1"  interpolater="leadin-linr"  />
            </Keyframes>
           </InterpolatingParam>
           <InterpolatingParam id="3804" interp="linr"  >
            <Keyframes>
            <Keyframe id="3805"  time="-9999999/1" value="-293.30677290844181" leadInLength="0/1"  />
            <Keyframe id="3806"  time="59/1" value="-472.57033089155476" leadInLength="30/1"  interpolater="leadin-linr"  />
            <Keyframe id="3807"  time="1656/1" value="-290.97627982431533" leadInLength="30/1"  interpolater="leadin-linr"  />
            </Keyframes>
           </InterpolatingParam>
           <InterpolatingParam id="3808" interp="linr"  >
            <Keyframes>
            <Keyframe id="3809"  time="-9999999/1" value="0" leadInLength="0/1"  />
            <Keyframe id="3810"  time="59/1" value="0" leadInLength="30/1"  interpolater="leadin-linr"  />
            <Keyframe id="3811"  time="1656/1" value="0" leadInLength="30/1"  interpolater="leadin-linr"  />
            </Keyframes>
           </InterpolatingParam>
          </VectorParam>
          <VectorParam id="3812"  name="rotation">
           <InterpolatingParam id="3813" interp="linr"  >
            <Keyframes>
            <Keyframe id="3814"  time="-9999999/1" value="0" leadInLength="0/1"  />
            <Keyframe id="3815"  time="59/1" value="0" leadInLength="30/1"  interpolater="leadin-linr"  />
            <Keyframe id="3816"  time="1656/1" value="0" leadInLength="30/1"  interpolater="leadin-linr"  />
            </Keyframes>
           </InterpolatingParam>
           <InterpolatingParam id="3817" interp="linr"  >
            <Keyframes>
            <Keyframe id="3818"  time="-9999999/1" value="0" leadInLength="0/1"  />
            <Keyframe id="3819"  time="59/1" value="0" leadInLength="30/1"  interpolater="leadin-linr"  />
            <Keyframe id="3820"  time="1656/1" value="0" leadInLength="30/1"  interpolater="leadin-linr"  />
            </Keyframes>
           </InterpolatingParam>
           <InterpolatingParam id="3821" interp="linr"  >
            <Keyframes>
            <Keyframe id="3822"  time="-9999999/1" value="0" leadInLength="0/1"  />
            <Keyframe id="3823"  time="59/1" value="0" leadInLength="30/1"  interpolater="leadin-linr"  />
            <Keyframe id="3824"  time="1656/1" value="0" leadInLength="30/1"  interpolater="leadin-linr"  />
            </Keyframes>
           </InterpolatingParam>
          </VectorParam>
          <VectorParam id="3825"  name="shear">
           <InterpolatingParam id="3826" interp="linr"  >
            <Keyframes>
            <Keyframe id="3827"  time="-9999999/1" value="0" leadInLength="0/1"  />
            <Keyframe id="3828"  time="59/1" value="0" leadInLength="30/1"  interpolater="leadin-linr"  />
            <Keyframe id="3829"  time="1656/1" value="0" leadInLength="30/1"  interpolater="leadin-linr"  />
            </Keyframes>
           </InterpolatingParam>
           <InterpolatingParam id="3830" interp="linr"  >
            <Keyframes>
            <Keyframe id="3831"  time="-9999999/1" value="0" leadInLength="0/1"  />
            <Keyframe id="3832"  time="59/1" value="0" leadInLength="30/1"  interpolater="leadin-linr"  />
            <Keyframe id="3833"  time="1656/1" value="0" leadInLength="30/1"  interpolater="leadin-linr"  />
            </Keyframes>
           </InterpolatingParam>
           <InterpolatingParam id="3834" interp="linr"  >
            <Keyframes>
            <Keyframe id="3835"  time="-9999999/1" value="0" leadInLength="0/1"  />
            <Keyframe id="3836"  time="59/1" value="0" leadInLength="30/1"  interpolater="leadin-linr"  />
            <Keyframe id="3837"  time="1656/1" value="0" leadInLength="30/1"  interpolater="leadin-linr"  />
            </Keyframes>
           </InterpolatingParam>
          </VectorParam>
          <VectorParam id="3838"  name="scale">
           <InterpolatingParam id="3839" interp="linr"  >
            <Keyframes>
            <Keyframe id="3840"  time="-9999999/1" value="1.0717131474093351" leadInLength="0/1"  />
            <Keyframe id="3841"  time="59/1" value="1.3948759141237592" leadInLength="30/1"  interpolater="leadin-linr"  />
            <Keyframe id="3842"  time="1656/1" value="1.0717131474093344" leadInLength="30/1"  interpolater="leadin-linr"  />
            </Keyframes>
           </InterpolatingParam>
           <InterpolatingParam id="3843" interp="linr"  >
            <Keyframes>
            <Keyframe id="3844"  time="-9999999/1" value="0.64143426294889849" leadInLength="0/1"  />
            <Keyframe id="3845"  time="59/1" value="0.83485191206305542" leadInLength="30/1"  interpolater="leadin-linr"  />
            <Keyframe id="3846"  time="1656/1" value="0.64143466901846169" leadInLength="30/1"  interpolater="leadin-linr"  />
            </Keyframes>
           </InterpolatingParam>
           <InterpolatingParam id="3847" interp="linr"  >
            <Keyframes>
            <Keyframe id="3848"  time="-9999999/1" value="1" leadInLength="0/1"  />
            <Keyframe id="3849"  time="59/1" value="0.99999999999999933" leadInLength="30/1"  interpolater="leadin-linr"  />
            <Keyframe id="3850"  time="1656/1" value="0.99999999999999933" leadInLength="30/1"  interpolater="leadin-linr"  />
            </Keyframes>
           </InterpolatingParam>
          </VectorParam>
          <VectorParam id="3851"  name="anchor">
           <InterpolatingParam id="3852" interp="linr"  time="0/1" value="0" leadInLength="0/1"  />
           <InterpolatingParam id="3853" interp="linr"  time="0/1" value="0" leadInLength="0/1"  />
           <InterpolatingParam id="3854" interp="linr"  time="0/1" value="0" leadInLength="0/1"  />
          </VectorParam>
         </Transformer>
         <Parameters>
          <VectorParam id="3855"  name="sourceCrop">
           <InterpolatingParam id="3856" interp="linr"  time="0/1" value="0" leadInLength="0/1"  />
           <InterpolatingParam id="3857" interp="linr"  time="0/1" value="0" leadInLength="0/1"  />
           <InterpolatingParam id="3858" interp="linr"  time="0/1" value="0" leadInLength="0/1"  />
           <InterpolatingParam id="3859" interp="linr"  time="0/1" value="0" leadInLength="0/1"  />
          </VectorParam>
          <VectorParam id="3860"  name="geometryCrop">
           <InterpolatingParam id="3861" interp="linr"  >
            <Keyframes>
            <Keyframe id="3862"  time="-9999999/1" value="0" leadInLength="0/1"  />
            <Keyframe id="3863"  time="59/1" value="0" leadInLength="30/1"  interpolater="leadin-linr"  />
            <Keyframe id="3864"  time="1656/1" value="0" leadInLength="30/1"  interpolater="leadin-linr"  />
            </Keyframes>
           </InterpolatingParam>
           <InterpolatingParam id="3865" interp="linr"  >
            <Keyframes>
            <Keyframe id="3866"  time="-9999999/1" value="0" leadInLength="0/1"  />
            <Keyframe id="3867"  time="59/1" value="0" leadInLength="30/1"  interpolater="leadin-linr"  />
            <Keyframe id="3868"  time="1656/1" value="0" leadInLength="30/1"  interpolater="leadin-linr"  />
            </Keyframes>
           </InterpolatingParam>
           <InterpolatingParam id="3869" interp="linr"  >
            <Keyframes>
            <Keyframe id="3870"  time="-9999999/1" value="0" leadInLength="0/1"  />
            <Keyframe id="3871"  time="59/1" value="0" leadInLength="30/1"  interpolater="leadin-linr"  />
            <Keyframe id="3872"  time="1656/1" value="0" leadInLength="30/1"  interpolater="leadin-linr"  />
            </Keyframes>
           </InterpolatingParam>
           <InterpolatingParam id="3873" interp="linr"  >
            <Keyframes>
            <Keyframe id="3874"  time="-9999999/1" value="0" leadInLength="0/1"  />
            <Keyframe id="3875"  time="59/1" value="0" leadInLength="30/1"  interpolater="leadin-linr"  />
            <Keyframe id="3876"  time="1656/1" value="0" leadInLength="30/1"  interpolater="leadin-linr"  />
            </Keyframes>
           </InterpolatingParam>
          </VectorParam>
          <InterpolatingParam id="3877" interp="linr"  name="opacity">
           <Keyframes>
           <Keyframe id="3878"  time="-9999999/1" value="1" leadInLength="0/1"  />
           <Keyframe id="3879"  time="59/1" value="1" leadInLength="30/1"  interpolater="leadin-linr"  />
           <Keyframe id="3880"  time="1656/1" value="1" leadInLength="30/1"  interpolater="leadin-linr"  />
           </Keyframes>
          </InterpolatingParam>
         </Parameters>
         <Attributes>
          <Attribute id="3881"  name="vectorNode">
           <VectorNode id="3882" kind="TypeWinBlur"  >
            <DoubleParameters>
             <InterpolatingParam id="3883" interp="linr"  time="0/1" value="1" leadInLength="0/1"  name="Intensity"/>
             <InterpolatingParam id="3884" interp="linr"  time="0/1" value="180" leadInLength="0/1"  name="height"/>
             <InterpolatingParam id="3885" interp="linr"  time="0/1" value="320" leadInLength="0/1"  name="width"/>
            </DoubleParameters>
            <StringParameters>
             <Parameter id="3886"  name="filename">
              <Keyframes>
              <Keyframe id="3887"  time="0/1" value="D:\Media\Studio\Callouts\blur_100x100.xml" leadInLength="0/1"  />
              </Keyframes>
             </Parameter>
             <Parameter id="3888"  name="name">
              <Keyframes>
              <Keyframe id="3889"  time="0/1" value="Blur" leadInLength="0/1"  />
              </Keyframes>
             </Parameter>
             <Parameter id="3890"  name="xmlContent">
              <Keyframes>
              <Keyframe id="3891"  time="0/1" value="﻿&lt;?xml version=&quot;1.0&quot;?&gt;&#xa;&#xa;&lt;Overlay version=&quot;1.0.1&quot;&gt;&#xa;&#xa;&lt;Overlay_Filename&gt;blur_100x100.png&lt;/Overlay_Filename&gt;&#xa;&lt;Overlay_Name&gt;Blur&lt;/Overlay_Name&gt;&#xa;&lt;Text_Top&gt;0&lt;/Text_Top&gt;&#xa;&lt;Text_Left&gt;0&lt;/Text_Left&gt;&#xa;&lt;Text_Bottom&gt;0&lt;/Text_Bottom&gt;&#xa;&lt;Text_Right&gt;0&lt;/Text_Right&gt;&#xa;&lt;Fill_Color&gt;0&lt;/Fill_Color&gt;&#xa;&lt;Border_Color&gt;0&lt;/Border_Color&gt;&#xa;&lt;/Overlay&gt;" leadInLength="0/1"  />
              </Keyframes>
             </Parameter>
            </StringParameters>
           </VectorNode>
          </Attribute>
         </Attributes>
         <MetaData>
          <entry key="WinSubProjectDisplayName" val=""/>
         </MetaData>
         <ExtraData>
          <Entry key="ZoomPanBin">
           <ZoomPanBin id="3892"  >
            <ZoomPanKeyframes>
             <ZoomPanKeyframe id="3893" timeRangeEnd="-9999999/1" timeRangeDuration="0/1" interpolaterName="linr"  />
             <ZoomPanKeyframe id="3894" timeRangeEnd="59/1" timeRangeDuration="30/1" interpolaterName="linr"  />
             <ZoomPanKeyframe id="3895" timeRangeEnd="1656/1" timeRangeDuration="30/1" interpolaterName="linr"  />
            </ZoomPanKeyframes>
           </ZoomPanBin>
          </Entry>
         </ExtraData>
        </Callout>
        <Callout id="3896" start="22634" duration="26" scalar="1/1" mediaStart="2062/1" mediaDuration="26/1" >
         <Transformer>
          <VectorParam id="3897"  name="translation">
           <InterpolatingParam id="3898" interp="linr"  >
            <Keyframes>
            <Keyframe id="3899"  time="-9999999/1" value="461.83266932253514" leadInLength="0/1"  />
            <Keyframe id="3900"  time="59/1" value="741.14885739029774" leadInLength="30/1"  interpolater="leadin-linr"  />
            <Keyframe id="3901"  time="1656/1" value="461.83266932234056" leadInLength="30/1"  interpolater="leadin-linr"  />
            </Keyframes>
           </InterpolatingParam>
           <InterpolatingParam id="3902" interp="linr"  >
            <Keyframes>
            <Keyframe id="3903"  time="-9999999/1" value="-293.30677290844181" leadInLength="0/1"  />
            <Keyframe id="3904"  time="59/1" value="-472.57033089155476" leadInLength="30/1"  interpolater="leadin-linr"  />
            <Keyframe id="3905"  time="1656/1" value="-290.97627982431533" leadInLength="30/1"  interpolater="leadin-linr"  />
            </Keyframes>
           </InterpolatingParam>
           <InterpolatingParam id="3906" interp="linr"  >
            <Keyframes>
            <Keyframe id="3907"  time="-9999999/1" value="0" leadInLength="0/1"  />
            <Keyframe id="3908"  time="59/1" value="0" leadInLength="30/1"  interpolater="leadin-linr"  />
            <Keyframe id="3909"  time="1656/1" value="0" leadInLength="30/1"  interpolater="leadin-linr"  />
            </Keyframes>
           </InterpolatingParam>
          </VectorParam>
          <VectorParam id="3910"  name="rotation">
           <InterpolatingParam id="3911" interp="linr"  >
            <Keyframes>
            <Keyframe id="3912"  time="-9999999/1" value="0" leadInLength="0/1"  />
            <Keyframe id="3913"  time="59/1" value="0" leadInLength="30/1"  interpolater="leadin-linr"  />
            <Keyframe id="3914"  time="1656/1" value="0" leadInLength="30/1"  interpolater="leadin-linr"  />
            </Keyframes>
           </InterpolatingParam>
           <InterpolatingParam id="3915" interp="linr"  >
            <Keyframes>
            <Keyframe id="3916"  time="-9999999/1" value="0" leadInLength="0/1"  />
            <Keyframe id="3917"  time="59/1" value="0" leadInLength="30/1"  interpolater="leadin-linr"  />
            <Keyframe id="3918"  time="1656/1" value="0" leadInLength="30/1"  interpolater="leadin-linr"  />
            </Keyframes>
           </InterpolatingParam>
           <InterpolatingParam id="3919" interp="linr"  >
            <Keyframes>
            <Keyframe id="3920"  time="-9999999/1" value="0" leadInLength="0/1"  />
            <Keyframe id="3921"  time="59/1" value="0" leadInLength="30/1"  interpolater="leadin-linr"  />
            <Keyframe id="3922"  time="1656/1" value="0" leadInLength="30/1"  interpolater="leadin-linr"  />
            </Keyframes>
           </InterpolatingParam>
          </VectorParam>
          <VectorParam id="3923"  name="shear">
           <InterpolatingParam id="3924" interp="linr"  >
            <Keyframes>
            <Keyframe id="3925"  time="-9999999/1" value="0" leadInLength="0/1"  />
            <Keyframe id="3926"  time="59/1" value="0" leadInLength="30/1"  interpolater="leadin-linr"  />
            <Keyframe id="3927"  time="1656/1" value="0" leadInLength="30/1"  interpolater="leadin-linr"  />
            </Keyframes>
           </InterpolatingParam>
           <InterpolatingParam id="3928" interp="linr"  >
            <Keyframes>
            <Keyframe id="3929"  time="-9999999/1" value="0" leadInLength="0/1"  />
            <Keyframe id="3930"  time="59/1" value="0" leadInLength="30/1"  interpolater="leadin-linr"  />
            <Keyframe id="3931"  time="1656/1" value="0" leadInLength="30/1"  interpolater="leadin-linr"  />
            </Keyframes>
           </InterpolatingParam>
           <InterpolatingParam id="3932" interp="linr"  >
            <Keyframes>
            <Keyframe id="3933"  time="-9999999/1" value="0" leadInLength="0/1"  />
            <Keyframe id="3934"  time="59/1" value="0" leadInLength="30/1"  interpolater="leadin-linr"  />
            <Keyframe id="3935"  time="1656/1" value="0" leadInLength="30/1"  interpolater="leadin-linr"  />
            </Keyframes>
           </InterpolatingParam>
          </VectorParam>
          <VectorParam id="3936"  name="scale">
           <InterpolatingParam id="3937" interp="linr"  >
            <Keyframes>
            <Keyframe id="3938"  time="-9999999/1" value="1.0717131474093351" leadInLength="0/1"  />
            <Keyframe id="3939"  time="59/1" value="1.3948759141237592" leadInLength="30/1"  interpolater="leadin-linr"  />
            <Keyframe id="3940"  time="1656/1" value="1.0717131474093344" leadInLength="30/1"  interpolater="leadin-linr"  />
            </Keyframes>
           </InterpolatingParam>
           <InterpolatingParam id="3941" interp="linr"  >
            <Keyframes>
            <Keyframe id="3942"  time="-9999999/1" value="0.64143426294889849" leadInLength="0/1"  />
            <Keyframe id="3943"  time="59/1" value="0.83485191206305542" leadInLength="30/1"  interpolater="leadin-linr"  />
            <Keyframe id="3944"  time="1656/1" value="0.64143466901846169" leadInLength="30/1"  interpolater="leadin-linr"  />
            </Keyframes>
           </InterpolatingParam>
           <InterpolatingParam id="3945" interp="linr"  >
            <Keyframes>
            <Keyframe id="3946"  time="-9999999/1" value="1" leadInLength="0/1"  />
            <Keyframe id="3947"  time="59/1" value="0.99999999999999933" leadInLength="30/1"  interpolater="leadin-linr"  />
            <Keyframe id="3948"  time="1656/1" value="0.99999999999999933" leadInLength="30/1"  interpolater="leadin-linr"  />
            </Keyframes>
           </InterpolatingParam>
          </VectorParam>
          <VectorParam id="3949"  name="anchor">
           <InterpolatingParam id="3950" interp="linr"  time="0/1" value="0" leadInLength="0/1"  />
           <InterpolatingParam id="3951" interp="linr"  time="0/1" value="0" leadInLength="0/1"  />
           <InterpolatingParam id="3952" interp="linr"  time="0/1" value="0" leadInLength="0/1"  />
          </VectorParam>
         </Transformer>
         <Parameters>
          <VectorParam id="3953"  name="sourceCrop">
           <InterpolatingParam id="3954" interp="linr"  time="0/1" value="0" leadInLength="0/1"  />
           <InterpolatingParam id="3955" interp="linr"  time="0/1" value="0" leadInLength="0/1"  />
           <InterpolatingParam id="3956" interp="linr"  time="0/1" value="0" leadInLength="0/1"  />
           <InterpolatingParam id="3957" interp="linr"  time="0/1" value="0" leadInLength="0/1"  />
          </VectorParam>
          <VectorParam id="3958"  name="geometryCrop">
           <InterpolatingParam id="3959" interp="linr"  >
            <Keyframes>
            <Keyframe id="3960"  time="-9999999/1" value="0" leadInLength="0/1"  />
            <Keyframe id="3961"  time="59/1" value="0" leadInLength="30/1"  interpolater="leadin-linr"  />
            <Keyframe id="3962"  time="1656/1" value="0" leadInLength="30/1"  interpolater="leadin-linr"  />
            </Keyframes>
           </InterpolatingParam>
           <InterpolatingParam id="3963" interp="linr"  >
            <Keyframes>
            <Keyframe id="3964"  time="-9999999/1" value="0" leadInLength="0/1"  />
            <Keyframe id="3965"  time="59/1" value="0" leadInLength="30/1"  interpolater="leadin-linr"  />
            <Keyframe id="3966"  time="1656/1" value="0" leadInLength="30/1"  interpolater="leadin-linr"  />
            </Keyframes>
           </InterpolatingParam>
           <InterpolatingParam id="3967" interp="linr"  >
            <Keyframes>
            <Keyframe id="3968"  time="-9999999/1" value="0" leadInLength="0/1"  />
            <Keyframe id="3969"  time="59/1" value="0" leadInLength="30/1"  interpolater="leadin-linr"  />
            <Keyframe id="3970"  time="1656/1" value="0" leadInLength="30/1"  interpolater="leadin-linr"  />
            </Keyframes>
           </InterpolatingParam>
           <InterpolatingParam id="3971" interp="linr"  >
            <Keyframes>
            <Keyframe id="3972"  time="-9999999/1" value="0" leadInLength="0/1"  />
            <Keyframe id="3973"  time="59/1" value="0" leadInLength="30/1"  interpolater="leadin-linr"  />
            <Keyframe id="3974"  time="1656/1" value="0" leadInLength="30/1"  interpolater="leadin-linr"  />
            </Keyframes>
           </InterpolatingParam>
          </VectorParam>
          <InterpolatingParam id="3975" interp="linr"  name="opacity">
           <Keyframes>
           <Keyframe id="3976"  time="-9999999/1" value="1" leadInLength="0/1"  />
           <Keyframe id="3977"  time="59/1" value="1" leadInLength="30/1"  interpolater="leadin-linr"  />
           <Keyframe id="3978"  time="1656/1" value="1" leadInLength="30/1"  interpolater="leadin-linr"  />
           </Keyframes>
          </InterpolatingParam>
         </Parameters>
         <Attributes>
          <Attribute id="3979"  name="vectorNode">
           <VectorNode id="3980" kind="TypeWinBlur"  >
            <DoubleParameters>
             <InterpolatingParam id="3981" interp="linr"  time="0/1" value="1" leadInLength="0/1"  name="Intensity"/>
             <InterpolatingParam id="3982" interp="linr"  time="0/1" value="180" leadInLength="0/1"  name="height"/>
             <InterpolatingParam id="3983" interp="linr"  time="0/1" value="320" leadInLength="0/1"  name="width"/>
            </DoubleParameters>
            <StringParameters>
             <Parameter id="3984"  name="filename">
              <Keyframes>
              <Keyframe id="3985"  time="0/1" value="D:\Media\Studio\Callouts\blur_100x100.xml" leadInLength="0/1"  />
              </Keyframes>
             </Parameter>
             <Parameter id="3986"  name="name">
              <Keyframes>
              <Keyframe id="3987"  time="0/1" value="Blur" leadInLength="0/1"  />
              </Keyframes>
             </Parameter>
             <Parameter id="3988"  name="xmlContent">
              <Keyframes>
              <Keyframe id="3989"  time="0/1" value="﻿&lt;?xml version=&quot;1.0&quot;?&gt;&#xa;&#xa;&lt;Overlay version=&quot;1.0.1&quot;&gt;&#xa;&#xa;&lt;Overlay_Filename&gt;blur_100x100.png&lt;/Overlay_Filename&gt;&#xa;&lt;Overlay_Name&gt;Blur&lt;/Overlay_Name&gt;&#xa;&lt;Text_Top&gt;0&lt;/Text_Top&gt;&#xa;&lt;Text_Left&gt;0&lt;/Text_Left&gt;&#xa;&lt;Text_Bottom&gt;0&lt;/Text_Bottom&gt;&#xa;&lt;Text_Right&gt;0&lt;/Text_Right&gt;&#xa;&lt;Fill_Color&gt;0&lt;/Fill_Color&gt;&#xa;&lt;Border_Color&gt;0&lt;/Border_Color&gt;&#xa;&lt;/Overlay&gt;" leadInLength="0/1"  />
              </Keyframes>
             </Parameter>
            </StringParameters>
           </VectorNode>
          </Attribute>
         </Attributes>
         <MetaData>
          <entry key="WinSubProjectDisplayName" val=""/>
         </MetaData>
         <RightEdgeMods length="26/1" groupName="OpacityFade">
          <EdgeMod parameter="3981">
           <FadeOutFunc id="3457"  />
          </EdgeMod>
         </RightEdgeMods>
         <ExtraData>
          <Entry key="ZoomPanBin">
           <ZoomPanBin id="3990"  >
            <ZoomPanKeyframes>
             <ZoomPanKeyframe id="3991" timeRangeEnd="-9999999/1" timeRangeDuration="0/1" interpolaterName="linr"  />
             <ZoomPanKeyframe id="3992" timeRangeEnd="59/1" timeRangeDuration="30/1" interpolaterName="linr"  />
             <ZoomPanKeyframe id="3993" timeRangeEnd="1656/1" timeRangeDuration="30/1" interpolaterName="linr"  />
            </ZoomPanKeyframes>
           </ZoomPanBin>
          </Entry>
         </ExtraData>
        </Callout>
       </Medias>
      </GenericTrack>
      <GenericTrack id="3994"  >
       <Attributes>
        <Attribute id="3995" value="" name="ident"/>
        <Attribute id="3996" value="0" name="audioMuted"/>
        <Attribute id="3997" value="0" name="videoHidden"/>
       </Attributes>
       <MetaData>
        <entry key="IsLocked" val="False"/>
        <entry key="WinTrackHeight" val="62"/>
       </MetaData>
       <Medias>
       </Medias>
      </GenericTrack>
     </Tracks>
    </GenericMixer>
   <CaptionAttributes id="3998"  >
    <Attribute id="3999" value="1" name="captionsEnabled"/>
    <Attribute id="4000" value="Arial" name="captionsFontName"/>
    <Attribute id="4001" value="28" name="captionsFontSize"/>
    <Attribute id="4002" value="(0,0,0,255)" name="captionsBackgroundColor"/>
    <Attribute id="4003" value="(255,255,255,255)" name="captionsForegroundColor"/>
    <Attribute id="4004" value="en" name="lang"/>
    <Attribute id="4005" value="0" name="captionsAlignment"/>
    <Attribute id="4006" value="1" name="captionsDefaultFontSize"/>
    <Attribute id="4007" value="0.5" name="captionsOpacity"/>
    <Attribute id="4008" value="1" name="captionsBackgroundEnabled"/>
    <Attribute id="4009" value="1" name="captionsBackgroundOnlyAroundText"/>
   </CaptionAttributes>
   <Parameters>
    <VectorParam id="4010"  name="eyePosition">
     <InterpolatingParam id="4011" interp="linr"  time="0/1" value="0" leadInLength="0/1"  />
     <InterpolatingParam id="4012" interp="linr"  time="0/1" value="0" leadInLength="0/1"  />
     <InterpolatingParam id="4013" interp="linr"  time="0/1" value="3000" leadInLength="0/1"  />
    </VectorParam>
    <VectorParam id="4014"  name="eyeLookAtPosition">
     <InterpolatingParam id="4015" interp="linr"  time="0/1" value="0" leadInLength="0/1"  />
     <InterpolatingParam id="4016" interp="linr"  time="0/1" value="0" leadInLength="0/1"  />
     <InterpolatingParam id="4017" interp="linr"  time="0/1" value="0" leadInLength="0/1"  />
    </VectorParam>
    <VectorParam id="4018"  name="eyeUpVector">
     <InterpolatingParam id="4019" interp="linr"  time="0/1" value="0" leadInLength="0/1"  />
     <InterpolatingParam id="4020" interp="linr"  time="0/1" value="1" leadInLength="0/1"  />
     <InterpolatingParam id="4021" interp="linr"  time="0/1" value="0" leadInLength="0/1"  />
    </VectorParam>
    <InterpolatingParam id="4022" interp="linr"  time="0/1" value="0.23885785" leadInLength="0/1"  name="fov"/>
    <InterpolatingParam id="4023" interp="linr"  time="0/1" value="1.5" leadInLength="0/1"  name="nearClipDistance"/>
    <InterpolatingParam id="4024" interp="linr"  time="0/1" value="6000" leadInLength="0/1"  name="farClipDistance"/>
   </Parameters>
  </Timeline>
 </Project>
</GoProject>
</CSMLData>

</Project_Data>
