<?xml version="1.0"?>
<Project_Data Version="8.00">
<Project_Settings>
<ProfileName></ProfileName>
<ProjectWidth>1404</ProjectWidth>
<ProjectHeight>720</ProjectHeight>
<IsCustomProject>1</IsCustomProject>
<SavedProjectSettings>1</SavedProjectSettings>
<LastFlashTemplate>-1</LastFlashTemplate>
</Project_Settings>


<AutoSaveFile>C:\Users\Junaid\AppData\Local\TechSmith\Camtasia Studio\8.0\Auto-Saves\Temboo Make a call19b15d9.autosave.camproj</AutoSaveFile>

<ProjectID>3622FD65-E52A-4E22-82C7-F1FF22482D67</ProjectID>

<PowerPointProject>0</PowerPointProject>

<PowerPointFilename></PowerPointFilename>


<Project_Notes>
</Project_Notes>

<Project_MetaData>
<Project_MetaData_Object>
<FieldArrayKey>8</FieldArrayKey>
<Value>Temboo Make a call</Value>
</Project_MetaData_Object>
<Project_MetaData_Object>
<FieldArrayKey>13</FieldArrayKey>
<Value>2016-01-29 12:06:20 AM</Value>
</Project_MetaData_Object>
<Project_MetaData_Object>
<FieldArrayKey>16</FieldArrayKey>
<Value>ENU</Value>
</Project_MetaData_Object>
</Project_MetaData>

<CSMLData>
<GoProject id="1" version="3.0" >
 <Project id="2" editRate="30/1" version="3.0" >
  <Author></Author>
  <Comment></Comment>
  <System></System>
  <SourceBin id="3"  >
    <Source id="4" src="C:\Users\Junaid\Desktop\IOT RECO\Temboo Make Call.trec" lastMod="20160128T185302" rect="(0,0,1920,984)" >
      <SourceTrack range="(0,19694)" type="0" editRate="30/1" trackRect="(0,0,1920,984)" sampleRate="0/1" bitDepth="0" numChannels="0" filename="Temboo Make Call.trec!Strack0.tsc2" metaData="Temboo Make Call.trec;" />
      <SourceTrack range="(0,19687000)" type="0" editRate="30000/1" trackRect="(0,0,640,480)" sampleRate="0/1" bitDepth="0" numChannels="0" filename="Temboo Make Call.trec!Cvideo1.mp4" metaData="" />
      <SourceTrack range="(0,28923904)" type="2" editRate="44100/1" trackRect="(0,0,0,0)" sampleRate="44100/1" bitDepth="16" numChannels="2" filename="Temboo Make Call.trec!Maudio2.mp4" metaData="" />
    </Source>
  </SourceBin>
  <Timeline id="5"  >
   <Attributes>
    <Attribute id="6" value="1404" name="width"/>
    <Attribute id="7" value="720" name="height"/>
    <Attribute id="8" value="(0,0,0,255)" name="backgroundColor"/>
   </Attributes>
    <GenericMixer id="9"  name="Unified Mixer">
     <MetaData>
      <entry key="MixerType" val="TimelineMixer"/>
     </MetaData>
     <Tracks>
      <GenericTrack id="10"  >
       <Attributes>
        <Attribute id="11" value="" name="ident"/>
        <Attribute id="12" value="0" name="audioMuted"/>
        <Attribute id="13" value="0" name="videoHidden"/>
       </Attributes>
       <MetaData>
        <entry key="IsLocked" val="False"/>
        <entry key="WinTrackHeight" val="62"/>
       </MetaData>
       <Medias>
        <StitchedMedia id="14" start="0" duration="10595" scalar="1/1" mediaStart="0/1" mediaDuration="10595/1" minMediaStart="0/1" >
         <Transformer>
          <VectorParam id="15"  name="translation">
           <InterpolatingParam id="16" interp="linr"  time="-9999999/1" value="622.00000000029308" leadInLength="0/1"  interpolater="leadin-linr"  />
           <InterpolatingParam id="17" interp="linr"  time="-9999999/1" value="-299.99999999990757" leadInLength="0/1"  interpolater="leadin-linr"  />
           <InterpolatingParam id="18" interp="linr"  time="-9999999/1" value="0" leadInLength="0/1"  interpolater="leadin-linr"  />
          </VectorParam>
          <VectorParam id="19"  name="rotation">
           <InterpolatingParam id="20" interp="linr"  time="-9999999/1" value="0" leadInLength="0/1"  interpolater="leadin-linr"  />
           <InterpolatingParam id="21" interp="linr"  time="-9999999/1" value="0" leadInLength="0/1"  interpolater="leadin-linr"  />
           <InterpolatingParam id="22" interp="linr"  time="-9999999/1" value="0" leadInLength="0/1"  interpolater="leadin-linr"  />
          </VectorParam>
          <VectorParam id="23"  name="shear">
           <InterpolatingParam id="24" interp="linr"  time="-9999999/1" value="0" leadInLength="0/1"  interpolater="leadin-linr"  />
           <InterpolatingParam id="25" interp="linr"  time="-9999999/1" value="0" leadInLength="0/1"  interpolater="leadin-linr"  />
           <InterpolatingParam id="26" interp="linr"  time="-9999999/1" value="0" leadInLength="0/1"  interpolater="leadin-linr"  />
          </VectorParam>
          <VectorParam id="27"  name="scale">
           <InterpolatingParam id="28" interp="linr"  time="-9999999/1" value="0.25" leadInLength="0/1"  interpolater="leadin-linr"  />
           <InterpolatingParam id="29" interp="linr"  time="-9999999/1" value="0.25" leadInLength="0/1"  interpolater="leadin-linr"  />
           <InterpolatingParam id="30" interp="linr"  time="-9999999/1" value="1" leadInLength="0/1"  interpolater="leadin-linr"  />
          </VectorParam>
          <VectorParam id="31"  name="anchor">
           <InterpolatingParam id="32" interp="linr"  time="0/1" value="0" leadInLength="0/1"  />
           <InterpolatingParam id="33" interp="linr"  time="0/1" value="0" leadInLength="0/1"  />
           <InterpolatingParam id="34" interp="linr"  time="0/1" value="0" leadInLength="0/1"  />
          </VectorParam>
         </Transformer>
         <Parameters>
          <VectorParam id="35"  name="sourceCrop">
           <InterpolatingParam id="36" interp="linr"  time="0/1" value="0" leadInLength="0/1"  />
           <InterpolatingParam id="37" interp="linr"  time="0/1" value="0" leadInLength="0/1"  />
           <InterpolatingParam id="38" interp="linr"  time="0/1" value="0" leadInLength="0/1"  />
           <InterpolatingParam id="39" interp="linr"  time="0/1" value="0" leadInLength="0/1"  />
          </VectorParam>
          <VectorParam id="40"  name="geometryCrop">
           <InterpolatingParam id="41" interp="linr"  time="-9999999/1" value="0" leadInLength="0/1"  interpolater="leadin-linr"  />
           <InterpolatingParam id="42" interp="linr"  time="-9999999/1" value="0" leadInLength="0/1"  interpolater="leadin-linr"  />
           <InterpolatingParam id="43" interp="linr"  time="-9999999/1" value="0" leadInLength="0/1"  interpolater="leadin-linr"  />
           <InterpolatingParam id="44" interp="linr"  time="-9999999/1" value="0" leadInLength="0/1"  interpolater="leadin-linr"  />
          </VectorParam>
          <InterpolatingParam id="45" interp="linr"  time="-9999999/1" value="1" leadInLength="0/1"  interpolater="leadin-linr"  name="opacity"/>
          <InterpolatingParam id="46" interp="linr"  time="0/1" value="1" leadInLength="0/1"  name="cursorOpacity"/>
          <InterpolatingParam id="47" interp="linr"  time="0/1" value="1" leadInLength="0/1"  name="cursorScale"/>
          <InterpolatingParam id="48" interp="linr"  time="0/1" value="1" leadInLength="0/1"  name="volume"/>
          <Parameter id="49"  name="captions"/>
         </Parameters>
         <Effects>
          <GenericEffect id="50" name = "NoiseReduction" >
           <Parameters>
           <InterpolatingParam id="51" interp="linr"  time="0/1" value="22" leadInLength="0/1"   name="denoiserAmount"/>
           <InterpolatingParam id="52" interp="linr"  time="0/1" value="0.60000000000000053" leadInLength="0/1"   name="denoiserThreshold"/>
           <Parameter id="53"   name="noiseProfile">
            <Keyframes>
            <Keyframe id="54"  time="0/1" value="FBAAAAIAAABErAAAAQIAAEKuB8KhDOXBR70KwgitLMIzWD7CjrNHwkpSUMLM50vC6MdQwkWTVcLA&#xD;&#xa;8lfC4xZVwiJrWMILM1fCqzxVwuxUW8LxfVrCIqZcwjH4X8JpBV3CK29bwqFUWsI9WVnC0npWwk69&#xD;&#xa;WMJ1mlPCyl5RwhWlU8K1DljCr6pYwolpWsIu/VjC041ZwtNcV8LVMlXCvC9VwrCGW8JxtF7CQjFg&#xD;&#xa;wkSmYMJz91vCmfNVwlsWWMIZCl7C4ltfwgQgWsLeZV3CpmRgwgfAZMJBEmXCMOhkwvI0YcJ2FV7C&#xD;&#xa;GNJiwiyFZsLzsWLCvydnwiIoasLhZW3CzOBxwrYwb8LILmjCKIhowkiOZ8KLiWnCDtpnwks+acKV&#xD;&#xa;S27Cd1dpwtehZMIGimXCaapgwhpTXsIqs1zCEEFXwmelV8JqcVzCyNJdwn2RYsK4eV/Cdi1gwjN+&#xD;&#xa;ZsKqNGnCnVNjwqOrYsIOSGDC7NdkwrqsY8LyGWLCCF1owpUDasLOZ2jCdxZpwi5NasKtfGrCsRBo&#xD;&#xa;wr5SZMJqo2LCUhZkwkIRZcJE92LCOvtgwnukXsIhNl/CuthewoMLYcKG0GLC46VlwoJWacKuL23C&#xD;&#xa;pndqwqS3ZMLT8mDCHbVfwhTtXcIb613CuLpfwsdBYsLU9V/CkONgwsYKYMKOPGHCBENawvuqV8Iq&#xD;&#xa;RlTCkfNUwmBiVsLqFFTCsv9Twr60VMImoFPCkONWwsR2VMLYklPCYltUwqhwUcKCmFHCVu1Nwk4S&#xD;&#xa;TsILX1LCDsRSwvYoTsLUbkbCLjpIwnYTSMLw8UzCfCBQws56UcIr2U/C5itMwtNcTcLi7FHCoBBR&#xD;&#xa;wggpUMI1UlDC84dWwojlU8JG1VDCnDFPwk9NTsLxpU7CdkRQws/ZUMLy3FLCNoxWwuQXVsLbaVTC&#xD;&#xa;wjVVwje5UsISoU/C6J9Nwvh8TsLgYlHCb2JNwkfWS8Ki5U3COj1QwtLdS8L6pkzCazpOwvRCScIS&#xD;&#xa;HEfCK5hIwmrVSsKYqlTCUx1Zwn83U8IaR1LCdBxRwtGtTMIWPUzCVsNPwjw5TsJMp0nCfDpPwujR&#xD;&#xa;VsL2RlfCXEFWwlHkVcIWiFfCXldWwlVfVsI1MlzCcTRfwtS9XcIsnlzCcvhcwn82XMK+1F3CCt9d&#xD;&#xa;wg5dZ8KLz2zCOGprwonIasKNT2zCmSZvwuBAcMKWlW7CcK5xwgQKdsISa3bCEzF0wmK0c8Jgw3bC&#xD;&#xa;xPR3why0dcLlx3TCTI9ywuENc8Kfw3XCDWN5wrXVe8KwrnrCUTh3wmFjd8Kz/nnCkpN1wgGUdMJ9&#xD;&#xa;1XrCWvx+wlp2f8KHIX3Cl+B7woU6e8L0rXzCeCuAwlWJgMJMq33ChV96whDmesINmH3CFLt7wsLy&#xD;&#xa;gMKg4YDCDZh8wg1CdsKV83nCZPB8wj+MfcKkcoDCkLqCwtO8gcIm4ILCobuCwj5rgcKAlIDCSeiA&#xD;&#xa;wvRTgcK6loHCZuaBwmU7gsISAYLChpuBwhdCgsKnpIHCaTmDwvJnhMLG+YXCjQyGwu1shMJQyILC&#xD;&#xa;dSODwqB/gsI+yoDCqa2AwhN7gsJ5T4PC5LmDwgMsg8LFBYHCo9yBwrx0hMIlKIPCQAKDwrsQgMJ8&#xD;&#xa;IoDCrAKEwgjshcIYM4bCr0yDwqxlgsLZPoPCYtOEwsGahsLVTIbCXLSGwoTUhsJsIYbCVv+Fwopq&#xD;&#xa;g8IAR4XCHHSGwqJxh8LdmYfCZXqHwlSph8IoPobCK+OHwrJ6hsJecoXCjvGFwvWyhMIMuITCXSGF&#xD;&#xa;wkrehMIOAoPCuHiDwv7rhsJGp4TC9K6DwvVxgcLS7oHC/J6GwhAYh8L9RoXCBwKHwugoh8LGU4fC&#xD;&#xa;7Q2Iwlk1h8K7LYXCANGDwryxhMImQofCrYGFwreJg8JMZIXCTJGGwlXXhsIylYbCyYqHwje3h8JK&#xD;&#xa;9IfChFWEwpUzg8IBPIPCmpyEwiyVhcJekYPCTWKDwnbUhcK5T4bChDeEwgSrg8IsjYXCgQeHwiVK&#xD;&#xa;h8KxvYbCFqeHwoxsiMLst4fCBUOGwvsThsLpuofCoPKFwpvbgcLJ2oDCoSKFwru3hcIoF4bC/QCG&#xD;&#xa;wlO3hsIXMInCuhOHwhIghcITd4PCj6+DwkUuhcK1T4bChjKGwoIfiMJMAIfCobqDwhStg8KxdYXC&#xD;&#xa;SJmHwr6whsKlLIXCWCiFwo5VhsL0q4XCAQiFwvx1hMIfIoXCuDCGwliThcJejoXClW6Fwiv+hMLQ&#xD;&#xa;74bClpuEwni2gsINCoXCuE6GwqEbhcK6DIXCH6uEwm5QhMJkA4PCzz+EwjaIhMLvp4XCGW+Hwpcv&#xD;&#xa;hsJPUoPCfb+Ewp93hsJE2IXC8bCFwiF5hcJ6WYbC7LiGwu9BhMJc+ITCl0SGwtUohMKMUILCf7SB&#xD;&#xa;wukpg8JN8ITC0TGFwtTcg8INSILCjf+Dwo+nhMKVvoXCKdGFwmcnhsIpZIXC4N6Ewttng8Le1ILC&#xD;&#xa;Lg2FwtB3hsJ5rYbCBvmGwuKLiMJqNYjCK3SHwj98hcJiKofCb3aJwqPkicJNjonCZsuIwnArisJy&#xD;&#xa;rYvCBuSKwpA3isI31InCLnCLwkjqisK8bonCBb2KwufCjMLD5ozCWiaNwr7sjsIzoI/CzaePwrIK&#xD;&#xa;kMIz2Y7CSkSOwkSbkcI2OZPCfbCSwhxyksL+/JLCIMOSwmeVksLhLJTChe2TwkJEk8JYppXCbiWW&#xD;&#xa;wmdKlcJH+ZTCfFCUwuJilMLeEZXCpYuWwgT/lcIMFJbCepqVwu4WlcIV4pbCK6iTwp1LkcKYBpTC&#xD;&#xa;/hCYwjYNmcI3cpbC6wGjwqx1DMI4JefBnD78wWeV7cF4/uzBnJAAwoXeDML20RjCknIawpBJGcLZ&#xD;&#xa;shnCGIUbwn5zH8IWbCXC/ggpwiGJK8KNRy/Cryoxwn2NMcLe1DHCXDsuwpo6L8KsZS7CJMItwkQF&#xD;&#xa;LcK2ECzCONguwmtgOMIY0jvCjLA/wi3jQcI3aUHCpwE/whL7PcKc1DrC/po9wim8PMJWNjbCNGU2&#xD;&#xa;wqG5OMLpYzXCSW03wlP9NcJhGzrChf1EwjhCQsKeFkPCZQ1BwtVFPsJWWUPCWyZHwmAwTsJ07E3C&#xD;&#xa;jB9OwkSgUcKKN1rCTF9hwrnwYMLckmTC6Ddmwp79ZMLHRmTCCWliwp9rYMLnE2PCNhNlwlgYZsJf&#xD;&#xa;4mXCsNBkwpwAYMLDP1jCuZNYwnkDXcLlrVXCLORQwhOkVMKTN1fCY3BXwhFDVcJpKVbCVE1Ywsbn&#xD;&#xa;W8K7017CdU5fwvyQX8ID2VvCa01awtAWWcJcwljCNDlYwowmVsK5ZFTCvGlYwkkzYMJUimHCFGJh&#xD;&#xa;wiUFYcJ2GlrC4ZBZwjxNV8Ljs1bCWDdWwoKQUsJGFE3CtiZNwlONTsLLhU/CM2RRwkuJVMKUu1PC&#xD;&#xa;FGRSwkAgUsIcklDCq4BRwp7rUMIGuU7CDsVHwm6eRcKxHk3CMX1PwgzXU8K++lLCNjJPwpndTcLW&#xD;&#xa;D0/CQRpWwlhBUsLWj07C4JVLwlxdTMIoZ0jCEBVJwhVyR8IufUTC+1hFwtEgScIu+krC/M9GwoJa&#xD;&#xa;SMLYaEPCrnpBwqriQcIecUHClHtAwiYqOcKwIz7C2GJAwoQ0QsIgJETC4FZLwuzPTMIKJknCTvBK&#xD;&#xa;wu7sS8JzeUrCpMBMwlbMSMLiRUbCT5JIwrOPS8IaIkvCMIxGwn34RsKIBErCsXFOwj8cUcLdK0/C&#xD;&#xa;hvxPwvimS8L5p0vCrdlNwkn4SMICMkzCJtxMwj48S8JLdEzCIU5MwgBpTcL1zE7CtqlPwrOaS8Lq&#xD;&#xa;/EbCEUZLwqDsT8Jhu1bC8eNWwqawVsJxKlbCWq9UwkkXUsJGJFDCvYxSwo6CUML7dlHCiVhZwtfF&#xD;&#xa;VsJqwFDCHKROwpjYUsJQOlXCuiRYwnpUW8IsGlfCpMJdwkKtYcKoUWLCoUVowmayZsInDWXCpqBj&#xD;&#xa;wuo8ZsLciG3Cj5xvwoMAb8Lz0m/C8CFuwg/cbMKeLW/CmuxvwpZZcsLxJ3LCfqJxwtl+b8JCWW7C&#xD;&#xa;qVJ0wkuzdsL4lnjC9jp2wh+Dd8L1vnfCe2x3wm1sc8IhtG/CgJdzwqkzcsKTUXTC3Xh3wuvxdMKa&#xD;&#xa;w3XCOOZ1wj68eMI2EHzCKDR+wsO1d8LNs3fCp2Z+woXLgMJFu37CXPN9wjznfcKap4DCp6eBwmmW&#xD;&#xa;fsLcgIDC4ouCwkxjf8I/vnrCQXF+wgKqgMLrfYDCy4GAwlB8gsJNZ4HCrMKAwq7hgcKKpIHCZ3aB&#xD;&#xa;wuIkgsKYooHC642Bwo0cg8Il0YLCaQaDwm15g8LDc4PCErmCwhQShMKDWIPCTYuBwitGg8LGG4TC&#xD;&#xa;+QaEwihrhcK64oTClHqDwoKQgsJ5a4PCmtyEwlmPg8IoVoLC7uSCwhregsKBroPCUTeGwrnShcIJ&#xD;&#xa;U4PCuQiFwmZohMJViIPCkU2CwqBGhMIA3YXCYriGwoUSh8LbrYbCTXeGwsMfhsKriYbCCL6Gwnx7&#xD;&#xa;hcJc0IbC10KIwr7JhsLbyoXCmZqFwmzShcKbzYXCXeCFwqZohsJRK4bClxSFwgMYhcJy+obCVreF&#xD;&#xa;wm/XhMKmaoDCiMiAwhw4hcKv6IPCz4qEwky2hcJQTITCkROEwjeqhcIaiYXCah6Hwt1Bh8KrPoXC&#xD;&#xa;PtqDwjZOhsIOiYbCr/CGwlqohcKUfILC6f6AwhHqg8JrMoXCYHaEwvnkhcJ0uIXCGlKJwhg5iMJV&#xD;&#xa;b4XCM3mEwordhsL2YIfCuuWFwsbyhMK2+YPC/+GEwgoFg8ItG4LCx6GCwhXig8LUyYbCm7KHwjgt&#xD;&#xa;iMJtaYfCSBqHwu4DicILz4jCB6+Fwp1vhcIurIbCwr6GwodIh8J81IfC4xmGwr6qhsKUXIXCnw2F&#xD;&#xa;wmU0h8JCW4bCpgeEwl/Mg8Jgw4XCqKuGwnayhsIsR4XC3vqDwozzhMJDD4bCOtyGwrwrh8KYzYbC&#xD;&#xa;ZoiGwpkDiMKbMIfCKq6Hwo7+iMJPu4jCBGWGwt5ShsJGfYbCuheHwoiWhsJqwIXCA2eGwiGKh8IT&#xD;&#xa;zYfCyKOIwtG7h8JHp4bCNXiGwg6Ph8KMx4jCrr+HwnSuhcIEYIXC116GwtQ/h8IeMYfCLlqGwmyJ&#xD;&#xa;hMI+AYbCdneHwiNriMIcCIbC1riGwgqkh8JxE4fCH9yEwqMMgsJqWYTC7NaEwq/JhcLkPoTC9RSF&#xD;&#xa;wn16icKleIjCTA2Iwgz3hcKgsYTCwPqFwoHHhsJsz4bC4gGHwlnNhsKlFIfCIwWGwkKihML8UYTC&#xD;&#xa;1WaHwkF4h8L0DIjCL1mGwpNuh8JiTYbC7CmGwqBliMK/OorCqGuKwsxzisK6KojCPnOHwv5GisIV&#xD;&#xa;KozCPhiMwvuQisJhUozCOQiPwj2QjsK2e43CTS2MwhaNjsKcr47CuKKOwiAEkMLYBZDCAzGTwiCa&#xD;&#xa;k8Loy5DCe4GQws93j8LFG5DCcJqRwiNfk8Jhu5LCihmTwjQZksJcvJHCJW6UwilnlsJOHZfCAduU&#xD;&#xa;wrDRk8LGlJTCBSaXwjWFlcKG4JPCoOaVwvCllsKHzZPCLe+TwsKblcJbe5XCbMOVwkHLlcImrpXC&#xD;&#xa;AtWVwqzHlcIG+ZXCRO6i" leadInLength="0/1"  />
            </Keyframes>
           </Parameter>
           </Parameters>
           <MetaData>
            <entry key="effectIndex" val="0"/>
           </MetaData>
          </GenericEffect>
         </Effects>
         <Attributes>
          <Attribute id="55" value="" name="ident"/>
          <Attribute id="56" value="0" name="mixToMono"/>
         </Attributes>
         <MetaData>
          <entry key="WinSubProjectDisplayName" val=""/>
         </MetaData>
         <ExtraData>
          <Entry key="ZoomPanBin">
           <ZoomPanBin id="57"  >
            <ZoomPanKeyframes>
             <ZoomPanKeyframe id="58" timeRangeEnd="-9999999/1" timeRangeDuration="0/1" interpolaterName="linr"  />
            </ZoomPanKeyframes>
           </ZoomPanBin>
          </Entry>
          <Entry key="CursorEffectBin">
           <CursorEffectBin id="59"  >
            <CursorEffectKeyframes>
            </CursorEffectKeyframes>
           </CursorEffectBin>
          </Entry>
         </ExtraData>
         <GenericTrack id="60"  >
          <Attributes>
           <Attribute id="61" value="" name="ident"/>
           <Attribute id="62" value="0" name="audioMuted"/>
           <Attribute id="63" value="0" name="videoHidden"/>
          </Attributes>
          <MetaData>
           <entry key="IsLocked" val="False"/>
           <entry key="WinTrackHeight" val="0"/>
          </MetaData>
          <Medias>
           <UnifiedMedia id="64"  >
            <AMFile id="65" start="0" duration="753" scalar="1/1" mediaStart="0/1" mediaDuration="753/1" trackNumber="2" src="4" channelNumber="0,1" >
             <Parameters>
              <InterpolatingParam id="66" interp="linr"  time="0/1" value="1" leadInLength="0/1"  name="volume"/>
              <Parameter id="67"  name="captions"/>
             </Parameters>
             <Attributes>
              <Attribute id="68" value="" name="ident"/>
              <Attribute id="69" value="44100" name="sampleRate"/>
              <Attribute id="70" value="16" name="bitDepth"/>
              <Attribute id="71" value="1" name="gain"/>
              <Attribute id="72" value="0" name="mixToMono"/>
             </Attributes>
            </AMFile>
            <VMFile id="73" start="0" duration="753" scalar="1/1" mediaStart="0/1" mediaDuration="753/1" trackNumber="1" src="4" >
             <Transformer>
              <VectorParam id="74"  name="translation">
               <InterpolatingParam id="75" interp="linr"  time="-9999999/1" value="0" leadInLength="0/1"  />
               <InterpolatingParam id="76" interp="linr"  time="-9999999/1" value="0" leadInLength="0/1"  />
               <InterpolatingParam id="77" interp="linr"  time="-9999999/1" value="0" leadInLength="0/1"  />
              </VectorParam>
              <VectorParam id="78"  name="rotation">
               <InterpolatingParam id="79" interp="linr"  time="-9999999/1" value="0" leadInLength="0/1"  />
               <InterpolatingParam id="80" interp="linr"  time="-9999999/1" value="0" leadInLength="0/1"  />
               <InterpolatingParam id="81" interp="linr"  time="-9999999/1" value="0" leadInLength="0/1"  />
              </VectorParam>
              <VectorParam id="82"  name="shear">
               <InterpolatingParam id="83" interp="linr"  time="-9999999/1" value="0" leadInLength="0/1"  />
               <InterpolatingParam id="84" interp="linr"  time="-9999999/1" value="0" leadInLength="0/1"  />
               <InterpolatingParam id="85" interp="linr"  time="-9999999/1" value="0" leadInLength="0/1"  />
              </VectorParam>
              <VectorParam id="86"  name="scale">
               <InterpolatingParam id="87" interp="linr"  time="-9999999/1" value="1" leadInLength="0/1"  />
               <InterpolatingParam id="88" interp="linr"  time="-9999999/1" value="1" leadInLength="0/1"  />
               <InterpolatingParam id="89" interp="linr"  time="-9999999/1" value="1" leadInLength="0/1"  />
              </VectorParam>
              <VectorParam id="90"  name="anchor">
               <InterpolatingParam id="91" interp="linr"  time="0/1" value="0" leadInLength="0/1"  />
               <InterpolatingParam id="92" interp="linr"  time="0/1" value="0" leadInLength="0/1"  />
               <InterpolatingParam id="93" interp="linr"  time="0/1" value="0" leadInLength="0/1"  />
              </VectorParam>
             </Transformer>
             <Parameters>
              <VectorParam id="94"  name="sourceCrop">
               <InterpolatingParam id="95" interp="linr"  time="0/1" value="0" leadInLength="0/1"  />
               <InterpolatingParam id="96" interp="linr"  time="0/1" value="0" leadInLength="0/1"  />
               <InterpolatingParam id="97" interp="linr"  time="0/1" value="0" leadInLength="0/1"  />
               <InterpolatingParam id="98" interp="linr"  time="0/1" value="0" leadInLength="0/1"  />
              </VectorParam>
              <VectorParam id="99"  name="geometryCrop">
               <InterpolatingParam id="100" interp="linr"  time="-9999999/1" value="0" leadInLength="0/1"  />
               <InterpolatingParam id="101" interp="linr"  time="-9999999/1" value="0" leadInLength="0/1"  />
               <InterpolatingParam id="102" interp="linr"  time="-9999999/1" value="0" leadInLength="0/1"  />
               <InterpolatingParam id="103" interp="linr"  time="-9999999/1" value="0" leadInLength="0/1"  />
              </VectorParam>
              <InterpolatingParam id="104" interp="linr"  time="-9999999/1" value="1" leadInLength="0/1"  name="opacity"/>
             </Parameters>
             <Attributes>
              <Attribute id="105" value="" name="ident"/>
             </Attributes>
             <ExtraData>
              <Entry key="ZoomPanBin">
               <ZoomPanBin id="106"  >
                <ZoomPanKeyframes>
                 <ZoomPanKeyframe id="107" timeRangeEnd="-9999999/1" timeRangeDuration="0/1" interpolaterName=""  />
                </ZoomPanKeyframes>
               </ZoomPanBin>
              </Entry>
             </ExtraData>
            </VMFile>
            <MetaData>
             <entry key="WinSubProjectDisplayName" val=""/>
            </MetaData>
           </UnifiedMedia>
           <UnifiedMedia id="108"  >
            <AMFile id="109" start="753" duration="1376" scalar="1/1" mediaStart="821/1" mediaDuration="1376/1" trackNumber="2" src="4" channelNumber="0,1" >
             <Parameters>
              <InterpolatingParam id="110" interp="linr"  time="0/1" value="1" leadInLength="0/1"  name="volume"/>
              <Parameter id="111"  name="captions"/>
             </Parameters>
             <Attributes>
              <Attribute id="112" value="" name="ident"/>
              <Attribute id="113" value="44100" name="sampleRate"/>
              <Attribute id="114" value="16" name="bitDepth"/>
              <Attribute id="115" value="1" name="gain"/>
              <Attribute id="116" value="0" name="mixToMono"/>
             </Attributes>
            </AMFile>
            <VMFile id="117" start="753" duration="1376" scalar="1/1" mediaStart="821/1" mediaDuration="1376/1" trackNumber="1" src="4" >
             <Transformer>
              <VectorParam id="118"  name="translation">
               <InterpolatingParam id="119" interp="linr"  time="-9999999/1" value="0" leadInLength="0/1"  />
               <InterpolatingParam id="120" interp="linr"  time="-9999999/1" value="0" leadInLength="0/1"  />
               <InterpolatingParam id="121" interp="linr"  time="-9999999/1" value="0" leadInLength="0/1"  />
              </VectorParam>
              <VectorParam id="122"  name="rotation">
               <InterpolatingParam id="123" interp="linr"  time="-9999999/1" value="0" leadInLength="0/1"  />
               <InterpolatingParam id="124" interp="linr"  time="-9999999/1" value="0" leadInLength="0/1"  />
               <InterpolatingParam id="125" interp="linr"  time="-9999999/1" value="0" leadInLength="0/1"  />
              </VectorParam>
              <VectorParam id="126"  name="shear">
               <InterpolatingParam id="127" interp="linr"  time="-9999999/1" value="0" leadInLength="0/1"  />
               <InterpolatingParam id="128" interp="linr"  time="-9999999/1" value="0" leadInLength="0/1"  />
               <InterpolatingParam id="129" interp="linr"  time="-9999999/1" value="0" leadInLength="0/1"  />
              </VectorParam>
              <VectorParam id="130"  name="scale">
               <InterpolatingParam id="131" interp="linr"  time="-9999999/1" value="1" leadInLength="0/1"  />
               <InterpolatingParam id="132" interp="linr"  time="-9999999/1" value="1" leadInLength="0/1"  />
               <InterpolatingParam id="133" interp="linr"  time="-9999999/1" value="1" leadInLength="0/1"  />
              </VectorParam>
              <VectorParam id="134"  name="anchor">
               <InterpolatingParam id="135" interp="linr"  time="0/1" value="0" leadInLength="0/1"  />
               <InterpolatingParam id="136" interp="linr"  time="0/1" value="0" leadInLength="0/1"  />
               <InterpolatingParam id="137" interp="linr"  time="0/1" value="0" leadInLength="0/1"  />
              </VectorParam>
             </Transformer>
             <Parameters>
              <VectorParam id="138"  name="sourceCrop">
               <InterpolatingParam id="139" interp="linr"  time="0/1" value="0" leadInLength="0/1"  />
               <InterpolatingParam id="140" interp="linr"  time="0/1" value="0" leadInLength="0/1"  />
               <InterpolatingParam id="141" interp="linr"  time="0/1" value="0" leadInLength="0/1"  />
               <InterpolatingParam id="142" interp="linr"  time="0/1" value="0" leadInLength="0/1"  />
              </VectorParam>
              <VectorParam id="143"  name="geometryCrop">
               <InterpolatingParam id="144" interp="linr"  time="-9999999/1" value="0" leadInLength="0/1"  />
               <InterpolatingParam id="145" interp="linr"  time="-9999999/1" value="0" leadInLength="0/1"  />
               <InterpolatingParam id="146" interp="linr"  time="-9999999/1" value="0" leadInLength="0/1"  />
               <InterpolatingParam id="147" interp="linr"  time="-9999999/1" value="0" leadInLength="0/1"  />
              </VectorParam>
              <InterpolatingParam id="148" interp="linr"  time="-9999999/1" value="1" leadInLength="0/1"  name="opacity"/>
             </Parameters>
             <Attributes>
              <Attribute id="149" value="" name="ident"/>
             </Attributes>
             <ExtraData>
              <Entry key="ZoomPanBin">
               <ZoomPanBin id="150"  >
                <ZoomPanKeyframes>
                 <ZoomPanKeyframe id="151" timeRangeEnd="-9999999/1" timeRangeDuration="0/1" interpolaterName=""  />
                </ZoomPanKeyframes>
               </ZoomPanBin>
              </Entry>
             </ExtraData>
            </VMFile>
            <MetaData>
             <entry key="WinSubProjectDisplayName" val=""/>
            </MetaData>
           </UnifiedMedia>
           <UnifiedMedia id="152"  >
            <AMFile id="153" start="2129" duration="803" scalar="1/1" mediaStart="2235/1" mediaDuration="803/1" trackNumber="2" src="4" channelNumber="0,1" >
             <Parameters>
              <InterpolatingParam id="154" interp="linr"  time="0/1" value="1" leadInLength="0/1"  name="volume"/>
              <Parameter id="155"  name="captions"/>
             </Parameters>
             <Attributes>
              <Attribute id="156" value="" name="ident"/>
              <Attribute id="157" value="44100" name="sampleRate"/>
              <Attribute id="158" value="16" name="bitDepth"/>
              <Attribute id="159" value="1" name="gain"/>
              <Attribute id="160" value="0" name="mixToMono"/>
             </Attributes>
            </AMFile>
            <VMFile id="161" start="2129" duration="803" scalar="1/1" mediaStart="2235/1" mediaDuration="803/1" trackNumber="1" src="4" >
             <Transformer>
              <VectorParam id="162"  name="translation">
               <InterpolatingParam id="163" interp="linr"  time="-9999999/1" value="0" leadInLength="0/1"  />
               <InterpolatingParam id="164" interp="linr"  time="-9999999/1" value="0" leadInLength="0/1"  />
               <InterpolatingParam id="165" interp="linr"  time="-9999999/1" value="0" leadInLength="0/1"  />
              </VectorParam>
              <VectorParam id="166"  name="rotation">
               <InterpolatingParam id="167" interp="linr"  time="-9999999/1" value="0" leadInLength="0/1"  />
               <InterpolatingParam id="168" interp="linr"  time="-9999999/1" value="0" leadInLength="0/1"  />
               <InterpolatingParam id="169" interp="linr"  time="-9999999/1" value="0" leadInLength="0/1"  />
              </VectorParam>
              <VectorParam id="170"  name="shear">
               <InterpolatingParam id="171" interp="linr"  time="-9999999/1" value="0" leadInLength="0/1"  />
               <InterpolatingParam id="172" interp="linr"  time="-9999999/1" value="0" leadInLength="0/1"  />
               <InterpolatingParam id="173" interp="linr"  time="-9999999/1" value="0" leadInLength="0/1"  />
              </VectorParam>
              <VectorParam id="174"  name="scale">
               <InterpolatingParam id="175" interp="linr"  time="-9999999/1" value="1" leadInLength="0/1"  />
               <InterpolatingParam id="176" interp="linr"  time="-9999999/1" value="1" leadInLength="0/1"  />
               <InterpolatingParam id="177" interp="linr"  time="-9999999/1" value="1" leadInLength="0/1"  />
              </VectorParam>
              <VectorParam id="178"  name="anchor">
               <InterpolatingParam id="179" interp="linr"  time="0/1" value="0" leadInLength="0/1"  />
               <InterpolatingParam id="180" interp="linr"  time="0/1" value="0" leadInLength="0/1"  />
               <InterpolatingParam id="181" interp="linr"  time="0/1" value="0" leadInLength="0/1"  />
              </VectorParam>
             </Transformer>
             <Parameters>
              <VectorParam id="182"  name="sourceCrop">
               <InterpolatingParam id="183" interp="linr"  time="0/1" value="0" leadInLength="0/1"  />
               <InterpolatingParam id="184" interp="linr"  time="0/1" value="0" leadInLength="0/1"  />
               <InterpolatingParam id="185" interp="linr"  time="0/1" value="0" leadInLength="0/1"  />
               <InterpolatingParam id="186" interp="linr"  time="0/1" value="0" leadInLength="0/1"  />
              </VectorParam>
              <VectorParam id="187"  name="geometryCrop">
               <InterpolatingParam id="188" interp="linr"  time="-9999999/1" value="0" leadInLength="0/1"  />
               <InterpolatingParam id="189" interp="linr"  time="-9999999/1" value="0" leadInLength="0/1"  />
               <InterpolatingParam id="190" interp="linr"  time="-9999999/1" value="0" leadInLength="0/1"  />
               <InterpolatingParam id="191" interp="linr"  time="-9999999/1" value="0" leadInLength="0/1"  />
              </VectorParam>
              <InterpolatingParam id="192" interp="linr"  time="-9999999/1" value="1" leadInLength="0/1"  name="opacity"/>
             </Parameters>
             <Attributes>
              <Attribute id="193" value="" name="ident"/>
             </Attributes>
             <ExtraData>
              <Entry key="ZoomPanBin">
               <ZoomPanBin id="194"  >
                <ZoomPanKeyframes>
                 <ZoomPanKeyframe id="195" timeRangeEnd="-9999999/1" timeRangeDuration="0/1" interpolaterName=""  />
                </ZoomPanKeyframes>
               </ZoomPanBin>
              </Entry>
             </ExtraData>
            </VMFile>
            <MetaData>
             <entry key="WinSubProjectDisplayName" val=""/>
            </MetaData>
           </UnifiedMedia>
           <UnifiedMedia id="196"  >
            <AMFile id="197" start="2932" duration="518" scalar="1/1" mediaStart="3458/1" mediaDuration="518/1" trackNumber="2" src="4" channelNumber="0,1" >
             <Parameters>
              <InterpolatingParam id="198" interp="linr"  time="0/1" value="1" leadInLength="0/1"  name="volume"/>
              <Parameter id="199"  name="captions"/>
             </Parameters>
             <Attributes>
              <Attribute id="200" value="" name="ident"/>
              <Attribute id="201" value="44100" name="sampleRate"/>
              <Attribute id="202" value="16" name="bitDepth"/>
              <Attribute id="203" value="1" name="gain"/>
              <Attribute id="204" value="0" name="mixToMono"/>
             </Attributes>
            </AMFile>
            <VMFile id="205" start="2932" duration="518" scalar="1/1" mediaStart="3458/1" mediaDuration="518/1" trackNumber="1" src="4" >
             <Transformer>
              <VectorParam id="206"  name="translation">
               <InterpolatingParam id="207" interp="linr"  time="-9999999/1" value="0" leadInLength="0/1"  />
               <InterpolatingParam id="208" interp="linr"  time="-9999999/1" value="0" leadInLength="0/1"  />
               <InterpolatingParam id="209" interp="linr"  time="-9999999/1" value="0" leadInLength="0/1"  />
              </VectorParam>
              <VectorParam id="210"  name="rotation">
               <InterpolatingParam id="211" interp="linr"  time="-9999999/1" value="0" leadInLength="0/1"  />
               <InterpolatingParam id="212" interp="linr"  time="-9999999/1" value="0" leadInLength="0/1"  />
               <InterpolatingParam id="213" interp="linr"  time="-9999999/1" value="0" leadInLength="0/1"  />
              </VectorParam>
              <VectorParam id="214"  name="shear">
               <InterpolatingParam id="215" interp="linr"  time="-9999999/1" value="0" leadInLength="0/1"  />
               <InterpolatingParam id="216" interp="linr"  time="-9999999/1" value="0" leadInLength="0/1"  />
               <InterpolatingParam id="217" interp="linr"  time="-9999999/1" value="0" leadInLength="0/1"  />
              </VectorParam>
              <VectorParam id="218"  name="scale">
               <InterpolatingParam id="219" interp="linr"  time="-9999999/1" value="1" leadInLength="0/1"  />
               <InterpolatingParam id="220" interp="linr"  time="-9999999/1" value="1" leadInLength="0/1"  />
               <InterpolatingParam id="221" interp="linr"  time="-9999999/1" value="1" leadInLength="0/1"  />
              </VectorParam>
              <VectorParam id="222"  name="anchor">
               <InterpolatingParam id="223" interp="linr"  time="0/1" value="0" leadInLength="0/1"  />
               <InterpolatingParam id="224" interp="linr"  time="0/1" value="0" leadInLength="0/1"  />
               <InterpolatingParam id="225" interp="linr"  time="0/1" value="0" leadInLength="0/1"  />
              </VectorParam>
             </Transformer>
             <Parameters>
              <VectorParam id="226"  name="sourceCrop">
               <InterpolatingParam id="227" interp="linr"  time="0/1" value="0" leadInLength="0/1"  />
               <InterpolatingParam id="228" interp="linr"  time="0/1" value="0" leadInLength="0/1"  />
               <InterpolatingParam id="229" interp="linr"  time="0/1" value="0" leadInLength="0/1"  />
               <InterpolatingParam id="230" interp="linr"  time="0/1" value="0" leadInLength="0/1"  />
              </VectorParam>
              <VectorParam id="231"  name="geometryCrop">
               <InterpolatingParam id="232" interp="linr"  time="-9999999/1" value="0" leadInLength="0/1"  />
               <InterpolatingParam id="233" interp="linr"  time="-9999999/1" value="0" leadInLength="0/1"  />
               <InterpolatingParam id="234" interp="linr"  time="-9999999/1" value="0" leadInLength="0/1"  />
               <InterpolatingParam id="235" interp="linr"  time="-9999999/1" value="0" leadInLength="0/1"  />
              </VectorParam>
              <InterpolatingParam id="236" interp="linr"  time="-9999999/1" value="1" leadInLength="0/1"  name="opacity"/>
             </Parameters>
             <Attributes>
              <Attribute id="237" value="" name="ident"/>
             </Attributes>
             <ExtraData>
              <Entry key="ZoomPanBin">
               <ZoomPanBin id="238"  >
                <ZoomPanKeyframes>
                 <ZoomPanKeyframe id="239" timeRangeEnd="-9999999/1" timeRangeDuration="0/1" interpolaterName=""  />
                </ZoomPanKeyframes>
               </ZoomPanBin>
              </Entry>
             </ExtraData>
            </VMFile>
            <MetaData>
             <entry key="WinSubProjectDisplayName" val=""/>
            </MetaData>
           </UnifiedMedia>
           <UnifiedMedia id="240"  >
            <AMFile id="241" start="3450" duration="954" scalar="1/1" mediaStart="4994/1" mediaDuration="954/1" trackNumber="2" src="4" channelNumber="0,1" >
             <Parameters>
              <InterpolatingParam id="242" interp="linr"  time="0/1" value="1" leadInLength="0/1"  name="volume"/>
              <Parameter id="243"  name="captions"/>
             </Parameters>
             <Attributes>
              <Attribute id="244" value="" name="ident"/>
              <Attribute id="245" value="44100" name="sampleRate"/>
              <Attribute id="246" value="16" name="bitDepth"/>
              <Attribute id="247" value="1" name="gain"/>
              <Attribute id="248" value="0" name="mixToMono"/>
             </Attributes>
            </AMFile>
            <VMFile id="249" start="3450" duration="954" scalar="1/1" mediaStart="4994/1" mediaDuration="954/1" trackNumber="1" src="4" >
             <Transformer>
              <VectorParam id="250"  name="translation">
               <InterpolatingParam id="251" interp="linr"  time="-9999999/1" value="0" leadInLength="0/1"  />
               <InterpolatingParam id="252" interp="linr"  time="-9999999/1" value="0" leadInLength="0/1"  />
               <InterpolatingParam id="253" interp="linr"  time="-9999999/1" value="0" leadInLength="0/1"  />
              </VectorParam>
              <VectorParam id="254"  name="rotation">
               <InterpolatingParam id="255" interp="linr"  time="-9999999/1" value="0" leadInLength="0/1"  />
               <InterpolatingParam id="256" interp="linr"  time="-9999999/1" value="0" leadInLength="0/1"  />
               <InterpolatingParam id="257" interp="linr"  time="-9999999/1" value="0" leadInLength="0/1"  />
              </VectorParam>
              <VectorParam id="258"  name="shear">
               <InterpolatingParam id="259" interp="linr"  time="-9999999/1" value="0" leadInLength="0/1"  />
               <InterpolatingParam id="260" interp="linr"  time="-9999999/1" value="0" leadInLength="0/1"  />
               <InterpolatingParam id="261" interp="linr"  time="-9999999/1" value="0" leadInLength="0/1"  />
              </VectorParam>
              <VectorParam id="262"  name="scale">
               <InterpolatingParam id="263" interp="linr"  time="-9999999/1" value="1" leadInLength="0/1"  />
               <InterpolatingParam id="264" interp="linr"  time="-9999999/1" value="1" leadInLength="0/1"  />
               <InterpolatingParam id="265" interp="linr"  time="-9999999/1" value="1" leadInLength="0/1"  />
              </VectorParam>
              <VectorParam id="266"  name="anchor">
               <InterpolatingParam id="267" interp="linr"  time="0/1" value="0" leadInLength="0/1"  />
               <InterpolatingParam id="268" interp="linr"  time="0/1" value="0" leadInLength="0/1"  />
               <InterpolatingParam id="269" interp="linr"  time="0/1" value="0" leadInLength="0/1"  />
              </VectorParam>
             </Transformer>
             <Parameters>
              <VectorParam id="270"  name="sourceCrop">
               <InterpolatingParam id="271" interp="linr"  time="0/1" value="0" leadInLength="0/1"  />
               <InterpolatingParam id="272" interp="linr"  time="0/1" value="0" leadInLength="0/1"  />
               <InterpolatingParam id="273" interp="linr"  time="0/1" value="0" leadInLength="0/1"  />
               <InterpolatingParam id="274" interp="linr"  time="0/1" value="0" leadInLength="0/1"  />
              </VectorParam>
              <VectorParam id="275"  name="geometryCrop">
               <InterpolatingParam id="276" interp="linr"  time="-9999999/1" value="0" leadInLength="0/1"  />
               <InterpolatingParam id="277" interp="linr"  time="-9999999/1" value="0" leadInLength="0/1"  />
               <InterpolatingParam id="278" interp="linr"  time="-9999999/1" value="0" leadInLength="0/1"  />
               <InterpolatingParam id="279" interp="linr"  time="-9999999/1" value="0" leadInLength="0/1"  />
              </VectorParam>
              <InterpolatingParam id="280" interp="linr"  time="-9999999/1" value="1" leadInLength="0/1"  name="opacity"/>
             </Parameters>
             <Attributes>
              <Attribute id="281" value="" name="ident"/>
             </Attributes>
             <ExtraData>
              <Entry key="ZoomPanBin">
               <ZoomPanBin id="282"  >
                <ZoomPanKeyframes>
                 <ZoomPanKeyframe id="283" timeRangeEnd="-9999999/1" timeRangeDuration="0/1" interpolaterName=""  />
                </ZoomPanKeyframes>
               </ZoomPanBin>
              </Entry>
             </ExtraData>
            </VMFile>
            <MetaData>
             <entry key="WinSubProjectDisplayName" val=""/>
            </MetaData>
           </UnifiedMedia>
           <UnifiedMedia id="284"  >
            <AMFile id="285" start="4404" duration="443" scalar="1/1" mediaStart="6053/1" mediaDuration="443/1" trackNumber="2" src="4" channelNumber="0,1" >
             <Parameters>
              <InterpolatingParam id="286" interp="linr"  time="0/1" value="1" leadInLength="0/1"  name="volume"/>
              <Parameter id="287"  name="captions"/>
             </Parameters>
             <Attributes>
              <Attribute id="288" value="" name="ident"/>
              <Attribute id="289" value="44100" name="sampleRate"/>
              <Attribute id="290" value="16" name="bitDepth"/>
              <Attribute id="291" value="1" name="gain"/>
              <Attribute id="292" value="0" name="mixToMono"/>
             </Attributes>
            </AMFile>
            <VMFile id="293" start="4404" duration="443" scalar="1/1" mediaStart="6053/1" mediaDuration="443/1" trackNumber="1" src="4" >
             <Transformer>
              <VectorParam id="294"  name="translation">
               <InterpolatingParam id="295" interp="linr"  time="-9999999/1" value="0" leadInLength="0/1"  />
               <InterpolatingParam id="296" interp="linr"  time="-9999999/1" value="0" leadInLength="0/1"  />
               <InterpolatingParam id="297" interp="linr"  time="-9999999/1" value="0" leadInLength="0/1"  />
              </VectorParam>
              <VectorParam id="298"  name="rotation">
               <InterpolatingParam id="299" interp="linr"  time="-9999999/1" value="0" leadInLength="0/1"  />
               <InterpolatingParam id="300" interp="linr"  time="-9999999/1" value="0" leadInLength="0/1"  />
               <InterpolatingParam id="301" interp="linr"  time="-9999999/1" value="0" leadInLength="0/1"  />
              </VectorParam>
              <VectorParam id="302"  name="shear">
               <InterpolatingParam id="303" interp="linr"  time="-9999999/1" value="0" leadInLength="0/1"  />
               <InterpolatingParam id="304" interp="linr"  time="-9999999/1" value="0" leadInLength="0/1"  />
               <InterpolatingParam id="305" interp="linr"  time="-9999999/1" value="0" leadInLength="0/1"  />
              </VectorParam>
              <VectorParam id="306"  name="scale">
               <InterpolatingParam id="307" interp="linr"  time="-9999999/1" value="1" leadInLength="0/1"  />
               <InterpolatingParam id="308" interp="linr"  time="-9999999/1" value="1" leadInLength="0/1"  />
               <InterpolatingParam id="309" interp="linr"  time="-9999999/1" value="1" leadInLength="0/1"  />
              </VectorParam>
              <VectorParam id="310"  name="anchor">
               <InterpolatingParam id="311" interp="linr"  time="0/1" value="0" leadInLength="0/1"  />
               <InterpolatingParam id="312" interp="linr"  time="0/1" value="0" leadInLength="0/1"  />
               <InterpolatingParam id="313" interp="linr"  time="0/1" value="0" leadInLength="0/1"  />
              </VectorParam>
             </Transformer>
             <Parameters>
              <VectorParam id="314"  name="sourceCrop">
               <InterpolatingParam id="315" interp="linr"  time="0/1" value="0" leadInLength="0/1"  />
               <InterpolatingParam id="316" interp="linr"  time="0/1" value="0" leadInLength="0/1"  />
               <InterpolatingParam id="317" interp="linr"  time="0/1" value="0" leadInLength="0/1"  />
               <InterpolatingParam id="318" interp="linr"  time="0/1" value="0" leadInLength="0/1"  />
              </VectorParam>
              <VectorParam id="319"  name="geometryCrop">
               <InterpolatingParam id="320" interp="linr"  time="-9999999/1" value="0" leadInLength="0/1"  />
               <InterpolatingParam id="321" interp="linr"  time="-9999999/1" value="0" leadInLength="0/1"  />
               <InterpolatingParam id="322" interp="linr"  time="-9999999/1" value="0" leadInLength="0/1"  />
               <InterpolatingParam id="323" interp="linr"  time="-9999999/1" value="0" leadInLength="0/1"  />
              </VectorParam>
              <InterpolatingParam id="324" interp="linr"  time="-9999999/1" value="1" leadInLength="0/1"  name="opacity"/>
             </Parameters>
             <Attributes>
              <Attribute id="325" value="" name="ident"/>
             </Attributes>
             <ExtraData>
              <Entry key="ZoomPanBin">
               <ZoomPanBin id="326"  >
                <ZoomPanKeyframes>
                 <ZoomPanKeyframe id="327" timeRangeEnd="-9999999/1" timeRangeDuration="0/1" interpolaterName=""  />
                </ZoomPanKeyframes>
               </ZoomPanBin>
              </Entry>
             </ExtraData>
            </VMFile>
            <MetaData>
             <entry key="WinSubProjectDisplayName" val=""/>
            </MetaData>
           </UnifiedMedia>
           <UnifiedMedia id="328"  >
            <AMFile id="329" start="4847" duration="162" scalar="1/1" mediaStart="6920/1" mediaDuration="162/1" trackNumber="2" src="4" channelNumber="0,1" >
             <Parameters>
              <InterpolatingParam id="330" interp="linr"  time="0/1" value="1" leadInLength="0/1"  name="volume"/>
              <Parameter id="331"  name="captions"/>
             </Parameters>
             <Attributes>
              <Attribute id="332" value="" name="ident"/>
              <Attribute id="333" value="44100" name="sampleRate"/>
              <Attribute id="334" value="16" name="bitDepth"/>
              <Attribute id="335" value="1" name="gain"/>
              <Attribute id="336" value="0" name="mixToMono"/>
             </Attributes>
            </AMFile>
            <VMFile id="337" start="4847" duration="162" scalar="1/1" mediaStart="6920/1" mediaDuration="162/1" trackNumber="1" src="4" >
             <Transformer>
              <VectorParam id="338"  name="translation">
               <InterpolatingParam id="339" interp="linr"  time="-9999999/1" value="0" leadInLength="0/1"  />
               <InterpolatingParam id="340" interp="linr"  time="-9999999/1" value="0" leadInLength="0/1"  />
               <InterpolatingParam id="341" interp="linr"  time="-9999999/1" value="0" leadInLength="0/1"  />
              </VectorParam>
              <VectorParam id="342"  name="rotation">
               <InterpolatingParam id="343" interp="linr"  time="-9999999/1" value="0" leadInLength="0/1"  />
               <InterpolatingParam id="344" interp="linr"  time="-9999999/1" value="0" leadInLength="0/1"  />
               <InterpolatingParam id="345" interp="linr"  time="-9999999/1" value="0" leadInLength="0/1"  />
              </VectorParam>
              <VectorParam id="346"  name="shear">
               <InterpolatingParam id="347" interp="linr"  time="-9999999/1" value="0" leadInLength="0/1"  />
               <InterpolatingParam id="348" interp="linr"  time="-9999999/1" value="0" leadInLength="0/1"  />
               <InterpolatingParam id="349" interp="linr"  time="-9999999/1" value="0" leadInLength="0/1"  />
              </VectorParam>
              <VectorParam id="350"  name="scale">
               <InterpolatingParam id="351" interp="linr"  time="-9999999/1" value="1" leadInLength="0/1"  />
               <InterpolatingParam id="352" interp="linr"  time="-9999999/1" value="1" leadInLength="0/1"  />
               <InterpolatingParam id="353" interp="linr"  time="-9999999/1" value="1" leadInLength="0/1"  />
              </VectorParam>
              <VectorParam id="354"  name="anchor">
               <InterpolatingParam id="355" interp="linr"  time="0/1" value="0" leadInLength="0/1"  />
               <InterpolatingParam id="356" interp="linr"  time="0/1" value="0" leadInLength="0/1"  />
               <InterpolatingParam id="357" interp="linr"  time="0/1" value="0" leadInLength="0/1"  />
              </VectorParam>
             </Transformer>
             <Parameters>
              <VectorParam id="358"  name="sourceCrop">
               <InterpolatingParam id="359" interp="linr"  time="0/1" value="0" leadInLength="0/1"  />
               <InterpolatingParam id="360" interp="linr"  time="0/1" value="0" leadInLength="0/1"  />
               <InterpolatingParam id="361" interp="linr"  time="0/1" value="0" leadInLength="0/1"  />
               <InterpolatingParam id="362" interp="linr"  time="0/1" value="0" leadInLength="0/1"  />
              </VectorParam>
              <VectorParam id="363"  name="geometryCrop">
               <InterpolatingParam id="364" interp="linr"  time="-9999999/1" value="0" leadInLength="0/1"  />
               <InterpolatingParam id="365" interp="linr"  time="-9999999/1" value="0" leadInLength="0/1"  />
               <InterpolatingParam id="366" interp="linr"  time="-9999999/1" value="0" leadInLength="0/1"  />
               <InterpolatingParam id="367" interp="linr"  time="-9999999/1" value="0" leadInLength="0/1"  />
              </VectorParam>
              <InterpolatingParam id="368" interp="linr"  time="-9999999/1" value="1" leadInLength="0/1"  name="opacity"/>
             </Parameters>
             <Attributes>
              <Attribute id="369" value="" name="ident"/>
             </Attributes>
             <ExtraData>
              <Entry key="ZoomPanBin">
               <ZoomPanBin id="370"  >
                <ZoomPanKeyframes>
                 <ZoomPanKeyframe id="371" timeRangeEnd="-9999999/1" timeRangeDuration="0/1" interpolaterName=""  />
                </ZoomPanKeyframes>
               </ZoomPanBin>
              </Entry>
             </ExtraData>
            </VMFile>
            <MetaData>
             <entry key="WinSubProjectDisplayName" val=""/>
            </MetaData>
           </UnifiedMedia>
           <UnifiedMedia id="372"  >
            <AMFile id="373" start="5009" duration="58" scalar="1/1" mediaStart="7393/1" mediaDuration="58/1" trackNumber="2" src="4" channelNumber="0,1" >
             <Parameters>
              <InterpolatingParam id="374" interp="linr"  time="0/1" value="1" leadInLength="0/1"  name="volume"/>
              <Parameter id="375"  name="captions"/>
             </Parameters>
             <Attributes>
              <Attribute id="376" value="" name="ident"/>
              <Attribute id="377" value="44100" name="sampleRate"/>
              <Attribute id="378" value="16" name="bitDepth"/>
              <Attribute id="379" value="1" name="gain"/>
              <Attribute id="380" value="0" name="mixToMono"/>
             </Attributes>
            </AMFile>
            <VMFile id="381" start="5009" duration="58" scalar="1/1" mediaStart="7393/1" mediaDuration="58/1" trackNumber="1" src="4" >
             <Transformer>
              <VectorParam id="382"  name="translation">
               <InterpolatingParam id="383" interp="linr"  time="-9999999/1" value="0" leadInLength="0/1"  />
               <InterpolatingParam id="384" interp="linr"  time="-9999999/1" value="0" leadInLength="0/1"  />
               <InterpolatingParam id="385" interp="linr"  time="-9999999/1" value="0" leadInLength="0/1"  />
              </VectorParam>
              <VectorParam id="386"  name="rotation">
               <InterpolatingParam id="387" interp="linr"  time="-9999999/1" value="0" leadInLength="0/1"  />
               <InterpolatingParam id="388" interp="linr"  time="-9999999/1" value="0" leadInLength="0/1"  />
               <InterpolatingParam id="389" interp="linr"  time="-9999999/1" value="0" leadInLength="0/1"  />
              </VectorParam>
              <VectorParam id="390"  name="shear">
               <InterpolatingParam id="391" interp="linr"  time="-9999999/1" value="0" leadInLength="0/1"  />
               <InterpolatingParam id="392" interp="linr"  time="-9999999/1" value="0" leadInLength="0/1"  />
               <InterpolatingParam id="393" interp="linr"  time="-9999999/1" value="0" leadInLength="0/1"  />
              </VectorParam>
              <VectorParam id="394"  name="scale">
               <InterpolatingParam id="395" interp="linr"  time="-9999999/1" value="1" leadInLength="0/1"  />
               <InterpolatingParam id="396" interp="linr"  time="-9999999/1" value="1" leadInLength="0/1"  />
               <InterpolatingParam id="397" interp="linr"  time="-9999999/1" value="1" leadInLength="0/1"  />
              </VectorParam>
              <VectorParam id="398"  name="anchor">
               <InterpolatingParam id="399" interp="linr"  time="0/1" value="0" leadInLength="0/1"  />
               <InterpolatingParam id="400" interp="linr"  time="0/1" value="0" leadInLength="0/1"  />
               <InterpolatingParam id="401" interp="linr"  time="0/1" value="0" leadInLength="0/1"  />
              </VectorParam>
             </Transformer>
             <Parameters>
              <VectorParam id="402"  name="sourceCrop">
               <InterpolatingParam id="403" interp="linr"  time="0/1" value="0" leadInLength="0/1"  />
               <InterpolatingParam id="404" interp="linr"  time="0/1" value="0" leadInLength="0/1"  />
               <InterpolatingParam id="405" interp="linr"  time="0/1" value="0" leadInLength="0/1"  />
               <InterpolatingParam id="406" interp="linr"  time="0/1" value="0" leadInLength="0/1"  />
              </VectorParam>
              <VectorParam id="407"  name="geometryCrop">
               <InterpolatingParam id="408" interp="linr"  time="-9999999/1" value="0" leadInLength="0/1"  />
               <InterpolatingParam id="409" interp="linr"  time="-9999999/1" value="0" leadInLength="0/1"  />
               <InterpolatingParam id="410" interp="linr"  time="-9999999/1" value="0" leadInLength="0/1"  />
               <InterpolatingParam id="411" interp="linr"  time="-9999999/1" value="0" leadInLength="0/1"  />
              </VectorParam>
              <InterpolatingParam id="412" interp="linr"  time="-9999999/1" value="1" leadInLength="0/1"  name="opacity"/>
             </Parameters>
             <Attributes>
              <Attribute id="413" value="" name="ident"/>
             </Attributes>
             <ExtraData>
              <Entry key="ZoomPanBin">
               <ZoomPanBin id="414"  >
                <ZoomPanKeyframes>
                 <ZoomPanKeyframe id="415" timeRangeEnd="-9999999/1" timeRangeDuration="0/1" interpolaterName=""  />
                </ZoomPanKeyframes>
               </ZoomPanBin>
              </Entry>
             </ExtraData>
            </VMFile>
            <MetaData>
             <entry key="WinSubProjectDisplayName" val=""/>
            </MetaData>
           </UnifiedMedia>
           <UnifiedMedia id="416"  >
            <AMFile id="417" start="5067" duration="700" scalar="1/1" mediaStart="7474/1" mediaDuration="700/1" trackNumber="2" src="4" channelNumber="0,1" >
             <Parameters>
              <InterpolatingParam id="418" interp="linr"  time="0/1" value="1" leadInLength="0/1"  name="volume"/>
              <Parameter id="419"  name="captions"/>
             </Parameters>
             <Attributes>
              <Attribute id="420" value="" name="ident"/>
              <Attribute id="421" value="44100" name="sampleRate"/>
              <Attribute id="422" value="16" name="bitDepth"/>
              <Attribute id="423" value="1" name="gain"/>
              <Attribute id="424" value="0" name="mixToMono"/>
             </Attributes>
            </AMFile>
            <VMFile id="425" start="5067" duration="700" scalar="1/1" mediaStart="7474/1" mediaDuration="700/1" trackNumber="1" src="4" >
             <Transformer>
              <VectorParam id="426"  name="translation">
               <InterpolatingParam id="427" interp="linr"  time="-9999999/1" value="0" leadInLength="0/1"  />
               <InterpolatingParam id="428" interp="linr"  time="-9999999/1" value="0" leadInLength="0/1"  />
               <InterpolatingParam id="429" interp="linr"  time="-9999999/1" value="0" leadInLength="0/1"  />
              </VectorParam>
              <VectorParam id="430"  name="rotation">
               <InterpolatingParam id="431" interp="linr"  time="-9999999/1" value="0" leadInLength="0/1"  />
               <InterpolatingParam id="432" interp="linr"  time="-9999999/1" value="0" leadInLength="0/1"  />
               <InterpolatingParam id="433" interp="linr"  time="-9999999/1" value="0" leadInLength="0/1"  />
              </VectorParam>
              <VectorParam id="434"  name="shear">
               <InterpolatingParam id="435" interp="linr"  time="-9999999/1" value="0" leadInLength="0/1"  />
               <InterpolatingParam id="436" interp="linr"  time="-9999999/1" value="0" leadInLength="0/1"  />
               <InterpolatingParam id="437" interp="linr"  time="-9999999/1" value="0" leadInLength="0/1"  />
              </VectorParam>
              <VectorParam id="438"  name="scale">
               <InterpolatingParam id="439" interp="linr"  time="-9999999/1" value="1" leadInLength="0/1"  />
               <InterpolatingParam id="440" interp="linr"  time="-9999999/1" value="1" leadInLength="0/1"  />
               <InterpolatingParam id="441" interp="linr"  time="-9999999/1" value="1" leadInLength="0/1"  />
              </VectorParam>
              <VectorParam id="442"  name="anchor">
               <InterpolatingParam id="443" interp="linr"  time="0/1" value="0" leadInLength="0/1"  />
               <InterpolatingParam id="444" interp="linr"  time="0/1" value="0" leadInLength="0/1"  />
               <InterpolatingParam id="445" interp="linr"  time="0/1" value="0" leadInLength="0/1"  />
              </VectorParam>
             </Transformer>
             <Parameters>
              <VectorParam id="446"  name="sourceCrop">
               <InterpolatingParam id="447" interp="linr"  time="0/1" value="0" leadInLength="0/1"  />
               <InterpolatingParam id="448" interp="linr"  time="0/1" value="0" leadInLength="0/1"  />
               <InterpolatingParam id="449" interp="linr"  time="0/1" value="0" leadInLength="0/1"  />
               <InterpolatingParam id="450" interp="linr"  time="0/1" value="0" leadInLength="0/1"  />
              </VectorParam>
              <VectorParam id="451"  name="geometryCrop">
               <InterpolatingParam id="452" interp="linr"  time="-9999999/1" value="0" leadInLength="0/1"  />
               <InterpolatingParam id="453" interp="linr"  time="-9999999/1" value="0" leadInLength="0/1"  />
               <InterpolatingParam id="454" interp="linr"  time="-9999999/1" value="0" leadInLength="0/1"  />
               <InterpolatingParam id="455" interp="linr"  time="-9999999/1" value="0" leadInLength="0/1"  />
              </VectorParam>
              <InterpolatingParam id="456" interp="linr"  time="-9999999/1" value="1" leadInLength="0/1"  name="opacity"/>
             </Parameters>
             <Attributes>
              <Attribute id="457" value="" name="ident"/>
             </Attributes>
             <ExtraData>
              <Entry key="ZoomPanBin">
               <ZoomPanBin id="458"  >
                <ZoomPanKeyframes>
                 <ZoomPanKeyframe id="459" timeRangeEnd="-9999999/1" timeRangeDuration="0/1" interpolaterName=""  />
                </ZoomPanKeyframes>
               </ZoomPanBin>
              </Entry>
             </ExtraData>
            </VMFile>
            <MetaData>
             <entry key="WinSubProjectDisplayName" val=""/>
            </MetaData>
           </UnifiedMedia>
           <UnifiedMedia id="460"  >
            <AMFile id="461" start="5767" duration="75" scalar="1/1" mediaStart="8190/1" mediaDuration="75/1" trackNumber="2" src="4" channelNumber="0,1" >
             <Parameters>
              <InterpolatingParam id="462" interp="linr"  time="0/1" value="1" leadInLength="0/1"  name="volume"/>
              <Parameter id="463"  name="captions"/>
             </Parameters>
             <Attributes>
              <Attribute id="464" value="" name="ident"/>
              <Attribute id="465" value="44100" name="sampleRate"/>
              <Attribute id="466" value="16" name="bitDepth"/>
              <Attribute id="467" value="1" name="gain"/>
              <Attribute id="468" value="0" name="mixToMono"/>
             </Attributes>
            </AMFile>
            <VMFile id="469" start="5767" duration="75" scalar="1/1" mediaStart="8190/1" mediaDuration="75/1" trackNumber="1" src="4" >
             <Transformer>
              <VectorParam id="470"  name="translation">
               <InterpolatingParam id="471" interp="linr"  time="-9999999/1" value="0" leadInLength="0/1"  />
               <InterpolatingParam id="472" interp="linr"  time="-9999999/1" value="0" leadInLength="0/1"  />
               <InterpolatingParam id="473" interp="linr"  time="-9999999/1" value="0" leadInLength="0/1"  />
              </VectorParam>
              <VectorParam id="474"  name="rotation">
               <InterpolatingParam id="475" interp="linr"  time="-9999999/1" value="0" leadInLength="0/1"  />
               <InterpolatingParam id="476" interp="linr"  time="-9999999/1" value="0" leadInLength="0/1"  />
               <InterpolatingParam id="477" interp="linr"  time="-9999999/1" value="0" leadInLength="0/1"  />
              </VectorParam>
              <VectorParam id="478"  name="shear">
               <InterpolatingParam id="479" interp="linr"  time="-9999999/1" value="0" leadInLength="0/1"  />
               <InterpolatingParam id="480" interp="linr"  time="-9999999/1" value="0" leadInLength="0/1"  />
               <InterpolatingParam id="481" interp="linr"  time="-9999999/1" value="0" leadInLength="0/1"  />
              </VectorParam>
              <VectorParam id="482"  name="scale">
               <InterpolatingParam id="483" interp="linr"  time="-9999999/1" value="1" leadInLength="0/1"  />
               <InterpolatingParam id="484" interp="linr"  time="-9999999/1" value="1" leadInLength="0/1"  />
               <InterpolatingParam id="485" interp="linr"  time="-9999999/1" value="1" leadInLength="0/1"  />
              </VectorParam>
              <VectorParam id="486"  name="anchor">
               <InterpolatingParam id="487" interp="linr"  time="0/1" value="0" leadInLength="0/1"  />
               <InterpolatingParam id="488" interp="linr"  time="0/1" value="0" leadInLength="0/1"  />
               <InterpolatingParam id="489" interp="linr"  time="0/1" value="0" leadInLength="0/1"  />
              </VectorParam>
             </Transformer>
             <Parameters>
              <VectorParam id="490"  name="sourceCrop">
               <InterpolatingParam id="491" interp="linr"  time="0/1" value="0" leadInLength="0/1"  />
               <InterpolatingParam id="492" interp="linr"  time="0/1" value="0" leadInLength="0/1"  />
               <InterpolatingParam id="493" interp="linr"  time="0/1" value="0" leadInLength="0/1"  />
               <InterpolatingParam id="494" interp="linr"  time="0/1" value="0" leadInLength="0/1"  />
              </VectorParam>
              <VectorParam id="495"  name="geometryCrop">
               <InterpolatingParam id="496" interp="linr"  time="-9999999/1" value="0" leadInLength="0/1"  />
               <InterpolatingParam id="497" interp="linr"  time="-9999999/1" value="0" leadInLength="0/1"  />
               <InterpolatingParam id="498" interp="linr"  time="-9999999/1" value="0" leadInLength="0/1"  />
               <InterpolatingParam id="499" interp="linr"  time="-9999999/1" value="0" leadInLength="0/1"  />
              </VectorParam>
              <InterpolatingParam id="500" interp="linr"  time="-9999999/1" value="1" leadInLength="0/1"  name="opacity"/>
             </Parameters>
             <Attributes>
              <Attribute id="501" value="" name="ident"/>
             </Attributes>
             <ExtraData>
              <Entry key="ZoomPanBin">
               <ZoomPanBin id="502"  >
                <ZoomPanKeyframes>
                 <ZoomPanKeyframe id="503" timeRangeEnd="-9999999/1" timeRangeDuration="0/1" interpolaterName=""  />
                </ZoomPanKeyframes>
               </ZoomPanBin>
              </Entry>
             </ExtraData>
            </VMFile>
            <MetaData>
             <entry key="WinSubProjectDisplayName" val=""/>
            </MetaData>
           </UnifiedMedia>
           <UnifiedMedia id="504"  >
            <AMFile id="505" start="5842" duration="94" scalar="1/1" mediaStart="8287/1" mediaDuration="94/1" trackNumber="2" src="4" channelNumber="0,1" >
             <Parameters>
              <InterpolatingParam id="506" interp="linr"  time="0/1" value="1" leadInLength="0/1"  name="volume"/>
              <Parameter id="507"  name="captions"/>
             </Parameters>
             <Attributes>
              <Attribute id="508" value="" name="ident"/>
              <Attribute id="509" value="44100" name="sampleRate"/>
              <Attribute id="510" value="16" name="bitDepth"/>
              <Attribute id="511" value="1" name="gain"/>
              <Attribute id="512" value="0" name="mixToMono"/>
             </Attributes>
            </AMFile>
            <VMFile id="513" start="5842" duration="94" scalar="1/1" mediaStart="8287/1" mediaDuration="94/1" trackNumber="1" src="4" >
             <Transformer>
              <VectorParam id="514"  name="translation">
               <InterpolatingParam id="515" interp="linr"  time="-9999999/1" value="0" leadInLength="0/1"  />
               <InterpolatingParam id="516" interp="linr"  time="-9999999/1" value="0" leadInLength="0/1"  />
               <InterpolatingParam id="517" interp="linr"  time="-9999999/1" value="0" leadInLength="0/1"  />
              </VectorParam>
              <VectorParam id="518"  name="rotation">
               <InterpolatingParam id="519" interp="linr"  time="-9999999/1" value="0" leadInLength="0/1"  />
               <InterpolatingParam id="520" interp="linr"  time="-9999999/1" value="0" leadInLength="0/1"  />
               <InterpolatingParam id="521" interp="linr"  time="-9999999/1" value="0" leadInLength="0/1"  />
              </VectorParam>
              <VectorParam id="522"  name="shear">
               <InterpolatingParam id="523" interp="linr"  time="-9999999/1" value="0" leadInLength="0/1"  />
               <InterpolatingParam id="524" interp="linr"  time="-9999999/1" value="0" leadInLength="0/1"  />
               <InterpolatingParam id="525" interp="linr"  time="-9999999/1" value="0" leadInLength="0/1"  />
              </VectorParam>
              <VectorParam id="526"  name="scale">
               <InterpolatingParam id="527" interp="linr"  time="-9999999/1" value="1" leadInLength="0/1"  />
               <InterpolatingParam id="528" interp="linr"  time="-9999999/1" value="1" leadInLength="0/1"  />
               <InterpolatingParam id="529" interp="linr"  time="-9999999/1" value="1" leadInLength="0/1"  />
              </VectorParam>
              <VectorParam id="530"  name="anchor">
               <InterpolatingParam id="531" interp="linr"  time="0/1" value="0" leadInLength="0/1"  />
               <InterpolatingParam id="532" interp="linr"  time="0/1" value="0" leadInLength="0/1"  />
               <InterpolatingParam id="533" interp="linr"  time="0/1" value="0" leadInLength="0/1"  />
              </VectorParam>
             </Transformer>
             <Parameters>
              <VectorParam id="534"  name="sourceCrop">
               <InterpolatingParam id="535" interp="linr"  time="0/1" value="0" leadInLength="0/1"  />
               <InterpolatingParam id="536" interp="linr"  time="0/1" value="0" leadInLength="0/1"  />
               <InterpolatingParam id="537" interp="linr"  time="0/1" value="0" leadInLength="0/1"  />
               <InterpolatingParam id="538" interp="linr"  time="0/1" value="0" leadInLength="0/1"  />
              </VectorParam>
              <VectorParam id="539"  name="geometryCrop">
               <InterpolatingParam id="540" interp="linr"  time="-9999999/1" value="0" leadInLength="0/1"  />
               <InterpolatingParam id="541" interp="linr"  time="-9999999/1" value="0" leadInLength="0/1"  />
               <InterpolatingParam id="542" interp="linr"  time="-9999999/1" value="0" leadInLength="0/1"  />
               <InterpolatingParam id="543" interp="linr"  time="-9999999/1" value="0" leadInLength="0/1"  />
              </VectorParam>
              <InterpolatingParam id="544" interp="linr"  time="-9999999/1" value="1" leadInLength="0/1"  name="opacity"/>
             </Parameters>
             <Attributes>
              <Attribute id="545" value="" name="ident"/>
             </Attributes>
             <ExtraData>
              <Entry key="ZoomPanBin">
               <ZoomPanBin id="546"  >
                <ZoomPanKeyframes>
                 <ZoomPanKeyframe id="547" timeRangeEnd="-9999999/1" timeRangeDuration="0/1" interpolaterName=""  />
                </ZoomPanKeyframes>
               </ZoomPanBin>
              </Entry>
             </ExtraData>
            </VMFile>
            <MetaData>
             <entry key="WinSubProjectDisplayName" val=""/>
            </MetaData>
           </UnifiedMedia>
           <UnifiedMedia id="548"  >
            <AMFile id="549" start="5936" duration="735" scalar="1/1" mediaStart="8402/1" mediaDuration="735/1" trackNumber="2" src="4" channelNumber="0,1" >
             <Parameters>
              <InterpolatingParam id="550" interp="linr"  time="0/1" value="1" leadInLength="0/1"  name="volume"/>
              <Parameter id="551"  name="captions"/>
             </Parameters>
             <Attributes>
              <Attribute id="552" value="" name="ident"/>
              <Attribute id="553" value="44100" name="sampleRate"/>
              <Attribute id="554" value="16" name="bitDepth"/>
              <Attribute id="555" value="1" name="gain"/>
              <Attribute id="556" value="0" name="mixToMono"/>
             </Attributes>
            </AMFile>
            <VMFile id="557" start="5936" duration="735" scalar="1/1" mediaStart="8402/1" mediaDuration="735/1" trackNumber="1" src="4" >
             <Transformer>
              <VectorParam id="558"  name="translation">
               <InterpolatingParam id="559" interp="linr"  time="-9999999/1" value="0" leadInLength="0/1"  />
               <InterpolatingParam id="560" interp="linr"  time="-9999999/1" value="0" leadInLength="0/1"  />
               <InterpolatingParam id="561" interp="linr"  time="-9999999/1" value="0" leadInLength="0/1"  />
              </VectorParam>
              <VectorParam id="562"  name="rotation">
               <InterpolatingParam id="563" interp="linr"  time="-9999999/1" value="0" leadInLength="0/1"  />
               <InterpolatingParam id="564" interp="linr"  time="-9999999/1" value="0" leadInLength="0/1"  />
               <InterpolatingParam id="565" interp="linr"  time="-9999999/1" value="0" leadInLength="0/1"  />
              </VectorParam>
              <VectorParam id="566"  name="shear">
               <InterpolatingParam id="567" interp="linr"  time="-9999999/1" value="0" leadInLength="0/1"  />
               <InterpolatingParam id="568" interp="linr"  time="-9999999/1" value="0" leadInLength="0/1"  />
               <InterpolatingParam id="569" interp="linr"  time="-9999999/1" value="0" leadInLength="0/1"  />
              </VectorParam>
              <VectorParam id="570"  name="scale">
               <InterpolatingParam id="571" interp="linr"  time="-9999999/1" value="1" leadInLength="0/1"  />
               <InterpolatingParam id="572" interp="linr"  time="-9999999/1" value="1" leadInLength="0/1"  />
               <InterpolatingParam id="573" interp="linr"  time="-9999999/1" value="1" leadInLength="0/1"  />
              </VectorParam>
              <VectorParam id="574"  name="anchor">
               <InterpolatingParam id="575" interp="linr"  time="0/1" value="0" leadInLength="0/1"  />
               <InterpolatingParam id="576" interp="linr"  time="0/1" value="0" leadInLength="0/1"  />
               <InterpolatingParam id="577" interp="linr"  time="0/1" value="0" leadInLength="0/1"  />
              </VectorParam>
             </Transformer>
             <Parameters>
              <VectorParam id="578"  name="sourceCrop">
               <InterpolatingParam id="579" interp="linr"  time="0/1" value="0" leadInLength="0/1"  />
               <InterpolatingParam id="580" interp="linr"  time="0/1" value="0" leadInLength="0/1"  />
               <InterpolatingParam id="581" interp="linr"  time="0/1" value="0" leadInLength="0/1"  />
               <InterpolatingParam id="582" interp="linr"  time="0/1" value="0" leadInLength="0/1"  />
              </VectorParam>
              <VectorParam id="583"  name="geometryCrop">
               <InterpolatingParam id="584" interp="linr"  time="-9999999/1" value="0" leadInLength="0/1"  />
               <InterpolatingParam id="585" interp="linr"  time="-9999999/1" value="0" leadInLength="0/1"  />
               <InterpolatingParam id="586" interp="linr"  time="-9999999/1" value="0" leadInLength="0/1"  />
               <InterpolatingParam id="587" interp="linr"  time="-9999999/1" value="0" leadInLength="0/1"  />
              </VectorParam>
              <InterpolatingParam id="588" interp="linr"  time="-9999999/1" value="1" leadInLength="0/1"  name="opacity"/>
             </Parameters>
             <Attributes>
              <Attribute id="589" value="" name="ident"/>
             </Attributes>
             <ExtraData>
              <Entry key="ZoomPanBin">
               <ZoomPanBin id="590"  >
                <ZoomPanKeyframes>
                 <ZoomPanKeyframe id="591" timeRangeEnd="-9999999/1" timeRangeDuration="0/1" interpolaterName=""  />
                </ZoomPanKeyframes>
               </ZoomPanBin>
              </Entry>
             </ExtraData>
            </VMFile>
            <MetaData>
             <entry key="WinSubProjectDisplayName" val=""/>
            </MetaData>
           </UnifiedMedia>
           <UnifiedMedia id="592"  >
            <AMFile id="593" start="6671" duration="851" scalar="1/1" mediaStart="9226/1" mediaDuration="851/1" trackNumber="2" src="4" channelNumber="0,1" >
             <Parameters>
              <InterpolatingParam id="594" interp="linr"  time="0/1" value="1" leadInLength="0/1"  name="volume"/>
              <Parameter id="595"  name="captions"/>
             </Parameters>
             <Attributes>
              <Attribute id="596" value="" name="ident"/>
              <Attribute id="597" value="44100" name="sampleRate"/>
              <Attribute id="598" value="16" name="bitDepth"/>
              <Attribute id="599" value="1" name="gain"/>
              <Attribute id="600" value="0" name="mixToMono"/>
             </Attributes>
            </AMFile>
            <VMFile id="601" start="6671" duration="851" scalar="1/1" mediaStart="9226/1" mediaDuration="851/1" trackNumber="1" src="4" >
             <Transformer>
              <VectorParam id="602"  name="translation">
               <InterpolatingParam id="603" interp="linr"  time="-9999999/1" value="0" leadInLength="0/1"  />
               <InterpolatingParam id="604" interp="linr"  time="-9999999/1" value="0" leadInLength="0/1"  />
               <InterpolatingParam id="605" interp="linr"  time="-9999999/1" value="0" leadInLength="0/1"  />
              </VectorParam>
              <VectorParam id="606"  name="rotation">
               <InterpolatingParam id="607" interp="linr"  time="-9999999/1" value="0" leadInLength="0/1"  />
               <InterpolatingParam id="608" interp="linr"  time="-9999999/1" value="0" leadInLength="0/1"  />
               <InterpolatingParam id="609" interp="linr"  time="-9999999/1" value="0" leadInLength="0/1"  />
              </VectorParam>
              <VectorParam id="610"  name="shear">
               <InterpolatingParam id="611" interp="linr"  time="-9999999/1" value="0" leadInLength="0/1"  />
               <InterpolatingParam id="612" interp="linr"  time="-9999999/1" value="0" leadInLength="0/1"  />
               <InterpolatingParam id="613" interp="linr"  time="-9999999/1" value="0" leadInLength="0/1"  />
              </VectorParam>
              <VectorParam id="614"  name="scale">
               <InterpolatingParam id="615" interp="linr"  time="-9999999/1" value="1" leadInLength="0/1"  />
               <InterpolatingParam id="616" interp="linr"  time="-9999999/1" value="1" leadInLength="0/1"  />
               <InterpolatingParam id="617" interp="linr"  time="-9999999/1" value="1" leadInLength="0/1"  />
              </VectorParam>
              <VectorParam id="618"  name="anchor">
               <InterpolatingParam id="619" interp="linr"  time="0/1" value="0" leadInLength="0/1"  />
               <InterpolatingParam id="620" interp="linr"  time="0/1" value="0" leadInLength="0/1"  />
               <InterpolatingParam id="621" interp="linr"  time="0/1" value="0" leadInLength="0/1"  />
              </VectorParam>
             </Transformer>
             <Parameters>
              <VectorParam id="622"  name="sourceCrop">
               <InterpolatingParam id="623" interp="linr"  time="0/1" value="0" leadInLength="0/1"  />
               <InterpolatingParam id="624" interp="linr"  time="0/1" value="0" leadInLength="0/1"  />
               <InterpolatingParam id="625" interp="linr"  time="0/1" value="0" leadInLength="0/1"  />
               <InterpolatingParam id="626" interp="linr"  time="0/1" value="0" leadInLength="0/1"  />
              </VectorParam>
              <VectorParam id="627"  name="geometryCrop">
               <InterpolatingParam id="628" interp="linr"  time="-9999999/1" value="0" leadInLength="0/1"  />
               <InterpolatingParam id="629" interp="linr"  time="-9999999/1" value="0" leadInLength="0/1"  />
               <InterpolatingParam id="630" interp="linr"  time="-9999999/1" value="0" leadInLength="0/1"  />
               <InterpolatingParam id="631" interp="linr"  time="-9999999/1" value="0" leadInLength="0/1"  />
              </VectorParam>
              <InterpolatingParam id="632" interp="linr"  time="-9999999/1" value="1" leadInLength="0/1"  name="opacity"/>
             </Parameters>
             <Attributes>
              <Attribute id="633" value="" name="ident"/>
             </Attributes>
             <ExtraData>
              <Entry key="ZoomPanBin">
               <ZoomPanBin id="634"  >
                <ZoomPanKeyframes>
                 <ZoomPanKeyframe id="635" timeRangeEnd="-9999999/1" timeRangeDuration="0/1" interpolaterName=""  />
                </ZoomPanKeyframes>
               </ZoomPanBin>
              </Entry>
             </ExtraData>
            </VMFile>
            <MetaData>
             <entry key="WinSubProjectDisplayName" val=""/>
            </MetaData>
           </UnifiedMedia>
           <UnifiedMedia id="636"  >
            <AMFile id="637" start="7522" duration="174" scalar="1/1" mediaStart="10119/1" mediaDuration="174/1" trackNumber="2" src="4" channelNumber="0,1" >
             <Parameters>
              <InterpolatingParam id="638" interp="linr"  time="0/1" value="1" leadInLength="0/1"  name="volume"/>
              <Parameter id="639"  name="captions"/>
             </Parameters>
             <Attributes>
              <Attribute id="640" value="" name="ident"/>
              <Attribute id="641" value="44100" name="sampleRate"/>
              <Attribute id="642" value="16" name="bitDepth"/>
              <Attribute id="643" value="1" name="gain"/>
              <Attribute id="644" value="0" name="mixToMono"/>
             </Attributes>
            </AMFile>
            <VMFile id="645" start="7522" duration="174" scalar="1/1" mediaStart="10119/1" mediaDuration="174/1" trackNumber="1" src="4" >
             <Transformer>
              <VectorParam id="646"  name="translation">
               <InterpolatingParam id="647" interp="linr"  time="-9999999/1" value="0" leadInLength="0/1"  />
               <InterpolatingParam id="648" interp="linr"  time="-9999999/1" value="0" leadInLength="0/1"  />
               <InterpolatingParam id="649" interp="linr"  time="-9999999/1" value="0" leadInLength="0/1"  />
              </VectorParam>
              <VectorParam id="650"  name="rotation">
               <InterpolatingParam id="651" interp="linr"  time="-9999999/1" value="0" leadInLength="0/1"  />
               <InterpolatingParam id="652" interp="linr"  time="-9999999/1" value="0" leadInLength="0/1"  />
               <InterpolatingParam id="653" interp="linr"  time="-9999999/1" value="0" leadInLength="0/1"  />
              </VectorParam>
              <VectorParam id="654"  name="shear">
               <InterpolatingParam id="655" interp="linr"  time="-9999999/1" value="0" leadInLength="0/1"  />
               <InterpolatingParam id="656" interp="linr"  time="-9999999/1" value="0" leadInLength="0/1"  />
               <InterpolatingParam id="657" interp="linr"  time="-9999999/1" value="0" leadInLength="0/1"  />
              </VectorParam>
              <VectorParam id="658"  name="scale">
               <InterpolatingParam id="659" interp="linr"  time="-9999999/1" value="1" leadInLength="0/1"  />
               <InterpolatingParam id="660" interp="linr"  time="-9999999/1" value="1" leadInLength="0/1"  />
               <InterpolatingParam id="661" interp="linr"  time="-9999999/1" value="1" leadInLength="0/1"  />
              </VectorParam>
              <VectorParam id="662"  name="anchor">
               <InterpolatingParam id="663" interp="linr"  time="0/1" value="0" leadInLength="0/1"  />
               <InterpolatingParam id="664" interp="linr"  time="0/1" value="0" leadInLength="0/1"  />
               <InterpolatingParam id="665" interp="linr"  time="0/1" value="0" leadInLength="0/1"  />
              </VectorParam>
             </Transformer>
             <Parameters>
              <VectorParam id="666"  name="sourceCrop">
               <InterpolatingParam id="667" interp="linr"  time="0/1" value="0" leadInLength="0/1"  />
               <InterpolatingParam id="668" interp="linr"  time="0/1" value="0" leadInLength="0/1"  />
               <InterpolatingParam id="669" interp="linr"  time="0/1" value="0" leadInLength="0/1"  />
               <InterpolatingParam id="670" interp="linr"  time="0/1" value="0" leadInLength="0/1"  />
              </VectorParam>
              <VectorParam id="671"  name="geometryCrop">
               <InterpolatingParam id="672" interp="linr"  time="-9999999/1" value="0" leadInLength="0/1"  />
               <InterpolatingParam id="673" interp="linr"  time="-9999999/1" value="0" leadInLength="0/1"  />
               <InterpolatingParam id="674" interp="linr"  time="-9999999/1" value="0" leadInLength="0/1"  />
               <InterpolatingParam id="675" interp="linr"  time="-9999999/1" value="0" leadInLength="0/1"  />
              </VectorParam>
              <InterpolatingParam id="676" interp="linr"  time="-9999999/1" value="1" leadInLength="0/1"  name="opacity"/>
             </Parameters>
             <Attributes>
              <Attribute id="677" value="" name="ident"/>
             </Attributes>
             <ExtraData>
              <Entry key="ZoomPanBin">
               <ZoomPanBin id="678"  >
                <ZoomPanKeyframes>
                 <ZoomPanKeyframe id="679" timeRangeEnd="-9999999/1" timeRangeDuration="0/1" interpolaterName=""  />
                </ZoomPanKeyframes>
               </ZoomPanBin>
              </Entry>
             </ExtraData>
            </VMFile>
            <MetaData>
             <entry key="WinSubProjectDisplayName" val=""/>
            </MetaData>
           </UnifiedMedia>
           <UnifiedMedia id="680"  >
            <AMFile id="681" start="7696" duration="9356" scalar="1/1" mediaStart="10320/1" mediaDuration="9356/1" trackNumber="2" src="4" channelNumber="0,1" >
             <Parameters>
              <InterpolatingParam id="682" interp="linr"  time="0/1" value="1" leadInLength="0/1"  name="volume"/>
              <Parameter id="683"  name="captions"/>
             </Parameters>
             <Attributes>
              <Attribute id="684" value="" name="ident"/>
              <Attribute id="685" value="44100" name="sampleRate"/>
              <Attribute id="686" value="16" name="bitDepth"/>
              <Attribute id="687" value="1" name="gain"/>
              <Attribute id="688" value="0" name="mixToMono"/>
             </Attributes>
            </AMFile>
            <VMFile id="689" start="7696" duration="9356" scalar="1/1" mediaStart="10320/1" mediaDuration="9356/1" trackNumber="1" src="4" >
             <Transformer>
              <VectorParam id="690"  name="translation">
               <InterpolatingParam id="691" interp="linr"  time="-9999999/1" value="0" leadInLength="0/1"  />
               <InterpolatingParam id="692" interp="linr"  time="-9999999/1" value="0" leadInLength="0/1"  />
               <InterpolatingParam id="693" interp="linr"  time="-9999999/1" value="0" leadInLength="0/1"  />
              </VectorParam>
              <VectorParam id="694"  name="rotation">
               <InterpolatingParam id="695" interp="linr"  time="-9999999/1" value="0" leadInLength="0/1"  />
               <InterpolatingParam id="696" interp="linr"  time="-9999999/1" value="0" leadInLength="0/1"  />
               <InterpolatingParam id="697" interp="linr"  time="-9999999/1" value="0" leadInLength="0/1"  />
              </VectorParam>
              <VectorParam id="698"  name="shear">
               <InterpolatingParam id="699" interp="linr"  time="-9999999/1" value="0" leadInLength="0/1"  />
               <InterpolatingParam id="700" interp="linr"  time="-9999999/1" value="0" leadInLength="0/1"  />
               <InterpolatingParam id="701" interp="linr"  time="-9999999/1" value="0" leadInLength="0/1"  />
              </VectorParam>
              <VectorParam id="702"  name="scale">
               <InterpolatingParam id="703" interp="linr"  time="-9999999/1" value="1" leadInLength="0/1"  />
               <InterpolatingParam id="704" interp="linr"  time="-9999999/1" value="1" leadInLength="0/1"  />
               <InterpolatingParam id="705" interp="linr"  time="-9999999/1" value="1" leadInLength="0/1"  />
              </VectorParam>
              <VectorParam id="706"  name="anchor">
               <InterpolatingParam id="707" interp="linr"  time="0/1" value="0" leadInLength="0/1"  />
               <InterpolatingParam id="708" interp="linr"  time="0/1" value="0" leadInLength="0/1"  />
               <InterpolatingParam id="709" interp="linr"  time="0/1" value="0" leadInLength="0/1"  />
              </VectorParam>
             </Transformer>
             <Parameters>
              <VectorParam id="710"  name="sourceCrop">
               <InterpolatingParam id="711" interp="linr"  time="0/1" value="0" leadInLength="0/1"  />
               <InterpolatingParam id="712" interp="linr"  time="0/1" value="0" leadInLength="0/1"  />
               <InterpolatingParam id="713" interp="linr"  time="0/1" value="0" leadInLength="0/1"  />
               <InterpolatingParam id="714" interp="linr"  time="0/1" value="0" leadInLength="0/1"  />
              </VectorParam>
              <VectorParam id="715"  name="geometryCrop">
               <InterpolatingParam id="716" interp="linr"  time="-9999999/1" value="0" leadInLength="0/1"  />
               <InterpolatingParam id="717" interp="linr"  time="-9999999/1" value="0" leadInLength="0/1"  />
               <InterpolatingParam id="718" interp="linr"  time="-9999999/1" value="0" leadInLength="0/1"  />
               <InterpolatingParam id="719" interp="linr"  time="-9999999/1" value="0" leadInLength="0/1"  />
              </VectorParam>
              <InterpolatingParam id="720" interp="linr"  time="-9999999/1" value="1" leadInLength="0/1"  name="opacity"/>
             </Parameters>
             <Attributes>
              <Attribute id="721" value="" name="ident"/>
             </Attributes>
             <ExtraData>
              <Entry key="ZoomPanBin">
               <ZoomPanBin id="722"  >
                <ZoomPanKeyframes>
                 <ZoomPanKeyframe id="723" timeRangeEnd="-9999999/1" timeRangeDuration="0/1" interpolaterName=""  />
                </ZoomPanKeyframes>
               </ZoomPanBin>
              </Entry>
             </ExtraData>
            </VMFile>
            <MetaData>
             <entry key="WinSubProjectDisplayName" val=""/>
            </MetaData>
           </UnifiedMedia>
          </Medias>
         </GenericTrack>
        </StitchedMedia>
        <StitchedMedia id="724" start="10595" duration="4239" scalar="1/1" mediaStart="10595/1" mediaDuration="4239/1" minMediaStart="0/1" >
         <Transformer>
          <VectorParam id="725"  name="translation">
           <InterpolatingParam id="726" interp="linr"  time="-9999999/1" value="-6.2539773359987416e-011" leadInLength="0/1"  interpolater="leadin-linr"  />
           <InterpolatingParam id="727" interp="linr"  time="-9999999/1" value="-33.833024017254765" leadInLength="0/1"  interpolater="leadin-linr"  />
           <InterpolatingParam id="728" interp="linr"  time="-9999999/1" value="0" leadInLength="0/1"  interpolater="leadin-linr"  />
          </VectorParam>
          <VectorParam id="729"  name="rotation">
           <InterpolatingParam id="730" interp="linr"  time="-9999999/1" value="0" leadInLength="0/1"  interpolater="leadin-linr"  />
           <InterpolatingParam id="731" interp="linr"  time="-9999999/1" value="0" leadInLength="0/1"  interpolater="leadin-linr"  />
           <InterpolatingParam id="732" interp="linr"  time="-9999999/1" value="0" leadInLength="0/1"  interpolater="leadin-linr"  />
          </VectorParam>
          <VectorParam id="733"  name="shear">
           <InterpolatingParam id="734" interp="linr"  time="-9999999/1" value="0" leadInLength="0/1"  interpolater="leadin-linr"  />
           <InterpolatingParam id="735" interp="linr"  time="-9999999/1" value="0" leadInLength="0/1"  interpolater="leadin-linr"  />
           <InterpolatingParam id="736" interp="linr"  time="-9999999/1" value="0" leadInLength="0/1"  interpolater="leadin-linr"  />
          </VectorParam>
          <VectorParam id="737"  name="scale">
           <InterpolatingParam id="738" interp="linr"  time="-9999999/1" value="0.73124999999999996" leadInLength="0/1"  interpolater="leadin-linr"  />
           <InterpolatingParam id="739" interp="linr"  time="-9999999/1" value="0.73147865853651772" leadInLength="0/1"  interpolater="leadin-linr"  />
           <InterpolatingParam id="740" interp="linr"  time="-9999999/1" value="1" leadInLength="0/1"  interpolater="leadin-linr"  />
          </VectorParam>
          <VectorParam id="741"  name="anchor">
           <InterpolatingParam id="742" interp="linr"  time="0/1" value="0" leadInLength="0/1"  />
           <InterpolatingParam id="743" interp="linr"  time="0/1" value="0" leadInLength="0/1"  />
           <InterpolatingParam id="744" interp="linr"  time="0/1" value="0" leadInLength="0/1"  />
          </VectorParam>
         </Transformer>
         <Parameters>
          <VectorParam id="745"  name="sourceCrop">
           <InterpolatingParam id="746" interp="linr"  time="0/1" value="0" leadInLength="0/1"  />
           <InterpolatingParam id="747" interp="linr"  time="0/1" value="0" leadInLength="0/1"  />
           <InterpolatingParam id="748" interp="linr"  time="0/1" value="0" leadInLength="0/1"  />
           <InterpolatingParam id="749" interp="linr"  time="0/1" value="0" leadInLength="0/1"  />
          </VectorParam>
          <VectorParam id="750"  name="geometryCrop">
           <InterpolatingParam id="751" interp="linr"  time="-9999999/1" value="0" leadInLength="0/1"  interpolater="leadin-linr"  />
           <InterpolatingParam id="752" interp="linr"  time="-9999999/1" value="0" leadInLength="0/1"  interpolater="leadin-linr"  />
           <InterpolatingParam id="753" interp="linr"  time="-9999999/1" value="0" leadInLength="0/1"  interpolater="leadin-linr"  />
           <InterpolatingParam id="754" interp="linr"  time="-9999999/1" value="46.099122132518403" leadInLength="0/1"  interpolater="leadin-linr"  />
          </VectorParam>
          <InterpolatingParam id="755" interp="linr"  time="-9999999/1" value="1" leadInLength="0/1"  interpolater="leadin-linr"  name="opacity"/>
          <InterpolatingParam id="756" interp="linr"  time="0/1" value="1" leadInLength="0/1"  name="cursorOpacity"/>
          <InterpolatingParam id="757" interp="linr"  time="0/1" value="1" leadInLength="0/1"  name="cursorScale"/>
          <Parameter id="758"  name="captions"/>
         </Parameters>
         <Effects>
          <GenericEffect id="759" name = "CursorBaseEffectName" >
           <Parameters>
           <InterpolatingParam id="760" interp="linr"  time="-9999999/1" value="1" leadInLength="0/1"   name="cursorSize"/>
           <InterpolatingParam id="761" interp="linr"  time="-9999999/1" value="0" leadInLength="0/1"   name="highlightBlurRadius"/>
           <InterpolatingParam id="762" interp="linr"  time="-9999999/1" value="0" leadInLength="0/1"   name="highlightColorBlue"/>
           <InterpolatingParam id="763" interp="linr"  time="-9999999/1" value="255" leadInLength="0/1"   name="highlightColorGreen"/>
           <InterpolatingParam id="764" interp="linr"  time="-9999999/1" value="255" leadInLength="0/1"   name="highlightColorRed"/>
           <InterpolatingParam id="765" interp="linr"  time="-9999999/1" value="5" leadInLength="0/1"   name="highlightFeatherSize"/>
           <InterpolatingParam id="766" interp="linr"  time="-9999999/1" value="2" leadInLength="0/1"   name="highlightMagnification"/>
           <InterpolatingParam id="767" interp="linr"  time="-9999999/1" value="60" leadInLength="0/1"   name="highlightOpacity"/>
           <InterpolatingParam id="768" interp="linr"  time="-9999999/1" value="45" leadInLength="0/1"   name="highlightSize"/>
           <Parameter id="769"   name="highlightType">
            <Keyframes>
            <Keyframe id="770"  time="-9999999/1" value="4" leadInLength="0/1"  />
            </Keyframes>
           </Parameter>
           <InterpolatingParam id="771" interp="linr"  time="-9999999/1" value="0" leadInLength="0/1"   name="leftClickColorBlue"/>
           <InterpolatingParam id="772" interp="linr"  time="-9999999/1" value="0" leadInLength="0/1"   name="leftClickColorGreen"/>
           <InterpolatingParam id="773" interp="linr"  time="-9999999/1" value="255" leadInLength="0/1"   name="leftClickColorRed"/>
           <InterpolatingParam id="774" interp="linr"  time="-9999999/1" value="0.80000000000000004" leadInLength="0/1"   name="leftClickDuration"/>
           <InterpolatingParam id="775" interp="linr"  time="-9999999/1" value="20" leadInLength="0/1"   name="leftClickSize"/>
           <Parameter id="776"   name="leftClickSoundFilename">
            <Keyframes>
            <Keyframe id="777"  time="-9999999/1" value="" leadInLength="0/1"  />
            </Keyframes>
           </Parameter>
           <InterpolatingParam id="778" interp="linr"  time="-9999999/1" value="1" leadInLength="0/1"   name="leftClickSoundVolume"/>
           <Parameter id="779"   name="leftClickType">
            <Keyframes>
            <Keyframe id="780"  time="-9999999/1" value="0" leadInLength="0/1"  />
            </Keyframes>
           </Parameter>
           <InterpolatingParam id="781" interp="linr"  time="-9999999/1" value="1" leadInLength="0/1"   name="opacity"/>
           <InterpolatingParam id="782" interp="linr"  time="-9999999/1" value="255" leadInLength="0/1"   name="rightClickColorBlue"/>
           <InterpolatingParam id="783" interp="linr"  time="-9999999/1" value="0" leadInLength="0/1"   name="rightClickColorGreen"/>
           <InterpolatingParam id="784" interp="linr"  time="-9999999/1" value="0" leadInLength="0/1"   name="rightClickColorRed"/>
           <InterpolatingParam id="785" interp="linr"  time="-9999999/1" value="0.80000000000000004" leadInLength="0/1"   name="rightClickDuration"/>
           <InterpolatingParam id="786" interp="linr"  time="-9999999/1" value="20" leadInLength="0/1"   name="rightClickSize"/>
           <Parameter id="787"   name="rightClickSoundFilename">
            <Keyframes>
            <Keyframe id="788"  time="-9999999/1" value="" leadInLength="0/1"  />
            </Keyframes>
           </Parameter>
           <InterpolatingParam id="789" interp="linr"  time="-9999999/1" value="1" leadInLength="0/1"   name="rightClickSoundVolume"/>
           <Parameter id="790"   name="rightClickType">
            <Keyframes>
            <Keyframe id="791"  time="-9999999/1" value="0" leadInLength="0/1"  />
            </Keyframes>
           </Parameter>
           </Parameters>
          </GenericEffect>
         </Effects>
         <Attributes>
          <Attribute id="792" value="" name="ident"/>
         </Attributes>
         <MetaData>
          <entry key="AutoAppliedSmartFocus" val="False"/>
          <entry key="WinSubProjectDisplayName" val=""/>
         </MetaData>
         <ExtraData>
          <Entry key="ZoomPanBin">
           <ZoomPanBin id="793"  >
            <ZoomPanKeyframes>
             <ZoomPanKeyframe id="794" timeRangeEnd="-9999999/1" timeRangeDuration="0/1" interpolaterName="linr"  />
            </ZoomPanKeyframes>
           </ZoomPanBin>
          </Entry>
          <Entry key="CursorEffectBin">
           <CursorEffectBin id="795"  >
            <CursorEffectKeyframes>
             <CursorEffectKeyframe id="796" timeRangeEnd="-9999999/1" timeRangeDuration="0/1" interpolaterName=""  />
            </CursorEffectKeyframes>
           </CursorEffectBin>
          </Entry>
         </ExtraData>
         <GenericTrack id="797"  >
          <Attributes>
           <Attribute id="798" value="" name="ident"/>
           <Attribute id="799" value="0" name="audioMuted"/>
           <Attribute id="800" value="0" name="videoHidden"/>
          </Attributes>
          <MetaData>
           <entry key="IsLocked" val="False"/>
           <entry key="WinTrackHeight" val="0"/>
          </MetaData>
          <Medias>
           <ScreenVMFile id="801" start="0" duration="753" scalar="1/1" mediaStart="0/1" mediaDuration="753/1" trackNumber="0" src="4" >
            <Transformer>
             <VectorParam id="802"  name="translation">
              <InterpolatingParam id="803" interp="linr"  time="-9999999/1" value="0" leadInLength="0/1"  />
              <InterpolatingParam id="804" interp="linr"  time="-9999999/1" value="0" leadInLength="0/1"  />
              <InterpolatingParam id="805" interp="linr"  time="-9999999/1" value="0" leadInLength="0/1"  />
             </VectorParam>
             <VectorParam id="806"  name="rotation">
              <InterpolatingParam id="807" interp="linr"  time="-9999999/1" value="0" leadInLength="0/1"  />
              <InterpolatingParam id="808" interp="linr"  time="-9999999/1" value="0" leadInLength="0/1"  />
              <InterpolatingParam id="809" interp="linr"  time="-9999999/1" value="0" leadInLength="0/1"  />
             </VectorParam>
             <VectorParam id="810"  name="shear">
              <InterpolatingParam id="811" interp="linr"  time="-9999999/1" value="0" leadInLength="0/1"  />
              <InterpolatingParam id="812" interp="linr"  time="-9999999/1" value="0" leadInLength="0/1"  />
              <InterpolatingParam id="813" interp="linr"  time="-9999999/1" value="0" leadInLength="0/1"  />
             </VectorParam>
             <VectorParam id="814"  name="scale">
              <InterpolatingParam id="815" interp="linr"  time="-9999999/1" value="1" leadInLength="0/1"  />
              <InterpolatingParam id="816" interp="linr"  time="-9999999/1" value="1" leadInLength="0/1"  />
              <InterpolatingParam id="817" interp="linr"  time="-9999999/1" value="1" leadInLength="0/1"  />
             </VectorParam>
             <VectorParam id="818"  name="anchor">
              <InterpolatingParam id="819" interp="linr"  time="0/1" value="0" leadInLength="0/1"  />
              <InterpolatingParam id="820" interp="linr"  time="0/1" value="0" leadInLength="0/1"  />
              <InterpolatingParam id="821" interp="linr"  time="0/1" value="0" leadInLength="0/1"  />
             </VectorParam>
            </Transformer>
            <Parameters>
             <VectorParam id="822"  name="sourceCrop">
              <InterpolatingParam id="823" interp="linr"  time="0/1" value="0" leadInLength="0/1"  />
              <InterpolatingParam id="824" interp="linr"  time="0/1" value="0" leadInLength="0/1"  />
              <InterpolatingParam id="825" interp="linr"  time="0/1" value="0" leadInLength="0/1"  />
              <InterpolatingParam id="826" interp="linr"  time="0/1" value="0" leadInLength="0/1"  />
             </VectorParam>
             <VectorParam id="827"  name="geometryCrop">
              <InterpolatingParam id="828" interp="linr"  time="-9999999/1" value="0" leadInLength="0/1"  />
              <InterpolatingParam id="829" interp="linr"  time="-9999999/1" value="0" leadInLength="0/1"  />
              <InterpolatingParam id="830" interp="linr"  time="-9999999/1" value="0" leadInLength="0/1"  />
              <InterpolatingParam id="831" interp="linr"  time="-9999999/1" value="0" leadInLength="0/1"  />
             </VectorParam>
             <InterpolatingParam id="832" interp="linr"  time="-9999999/1" value="1" leadInLength="0/1"  name="opacity"/>
             <InterpolatingParam id="833" interp="linr"  time="0/1" value="0" leadInLength="0/1"  name="cursorOpacity"/>
             <InterpolatingParam id="834" interp="linr"  time="0/1" value="0" leadInLength="0/1"  name="cursorScale"/>
            </Parameters>
            <Attributes>
             <Attribute id="835" value="" name="ident"/>
            </Attributes>
            <MetaData>
             <entry key="AutoAppliedSmartFocus" val="False"/>
             <entry key="WinSubProjectDisplayName" val=""/>
            </MetaData>
            <ExtraData>
             <Entry key="ZoomPanBin">
              <ZoomPanBin id="836"  >
               <ZoomPanKeyframes>
                <ZoomPanKeyframe id="837" timeRangeEnd="-9999999/1" timeRangeDuration="0/1" interpolaterName=""  />
               </ZoomPanKeyframes>
              </ZoomPanBin>
             </Entry>
             <Entry key="CursorEffectBin">
              <CursorEffectBin id="838"  >
               <CursorEffectKeyframes>
               </CursorEffectKeyframes>
              </CursorEffectBin>
             </Entry>
            </ExtraData>
           </ScreenVMFile>
           <ScreenVMFile id="839" start="753" duration="1376" scalar="1/1" mediaStart="821/1" mediaDuration="1376/1" trackNumber="0" src="4" >
            <Transformer>
             <VectorParam id="840"  name="translation">
              <InterpolatingParam id="841" interp="linr"  time="-9999999/1" value="0" leadInLength="0/1"  />
              <InterpolatingParam id="842" interp="linr"  time="-9999999/1" value="0" leadInLength="0/1"  />
              <InterpolatingParam id="843" interp="linr"  time="-9999999/1" value="0" leadInLength="0/1"  />
             </VectorParam>
             <VectorParam id="844"  name="rotation">
              <InterpolatingParam id="845" interp="linr"  time="-9999999/1" value="0" leadInLength="0/1"  />
              <InterpolatingParam id="846" interp="linr"  time="-9999999/1" value="0" leadInLength="0/1"  />
              <InterpolatingParam id="847" interp="linr"  time="-9999999/1" value="0" leadInLength="0/1"  />
             </VectorParam>
             <VectorParam id="848"  name="shear">
              <InterpolatingParam id="849" interp="linr"  time="-9999999/1" value="0" leadInLength="0/1"  />
              <InterpolatingParam id="850" interp="linr"  time="-9999999/1" value="0" leadInLength="0/1"  />
              <InterpolatingParam id="851" interp="linr"  time="-9999999/1" value="0" leadInLength="0/1"  />
             </VectorParam>
             <VectorParam id="852"  name="scale">
              <InterpolatingParam id="853" interp="linr"  time="-9999999/1" value="1" leadInLength="0/1"  />
              <InterpolatingParam id="854" interp="linr"  time="-9999999/1" value="1" leadInLength="0/1"  />
              <InterpolatingParam id="855" interp="linr"  time="-9999999/1" value="1" leadInLength="0/1"  />
             </VectorParam>
             <VectorParam id="856"  name="anchor">
              <InterpolatingParam id="857" interp="linr"  time="0/1" value="0" leadInLength="0/1"  />
              <InterpolatingParam id="858" interp="linr"  time="0/1" value="0" leadInLength="0/1"  />
              <InterpolatingParam id="859" interp="linr"  time="0/1" value="0" leadInLength="0/1"  />
             </VectorParam>
            </Transformer>
            <Parameters>
             <VectorParam id="860"  name="sourceCrop">
              <InterpolatingParam id="861" interp="linr"  time="0/1" value="0" leadInLength="0/1"  />
              <InterpolatingParam id="862" interp="linr"  time="0/1" value="0" leadInLength="0/1"  />
              <InterpolatingParam id="863" interp="linr"  time="0/1" value="0" leadInLength="0/1"  />
              <InterpolatingParam id="864" interp="linr"  time="0/1" value="0" leadInLength="0/1"  />
             </VectorParam>
             <VectorParam id="865"  name="geometryCrop">
              <InterpolatingParam id="866" interp="linr"  time="-9999999/1" value="0" leadInLength="0/1"  />
              <InterpolatingParam id="867" interp="linr"  time="-9999999/1" value="0" leadInLength="0/1"  />
              <InterpolatingParam id="868" interp="linr"  time="-9999999/1" value="0" leadInLength="0/1"  />
              <InterpolatingParam id="869" interp="linr"  time="-9999999/1" value="0" leadInLength="0/1"  />
             </VectorParam>
             <InterpolatingParam id="870" interp="linr"  time="-9999999/1" value="1" leadInLength="0/1"  name="opacity"/>
             <InterpolatingParam id="871" interp="linr"  time="0/1" value="0" leadInLength="0/1"  name="cursorOpacity"/>
             <InterpolatingParam id="872" interp="linr"  time="0/1" value="0" leadInLength="0/1"  name="cursorScale"/>
            </Parameters>
            <Attributes>
             <Attribute id="873" value="" name="ident"/>
            </Attributes>
            <MetaData>
             <entry key="AutoAppliedSmartFocus" val="False"/>
             <entry key="WinSubProjectDisplayName" val=""/>
            </MetaData>
            <ExtraData>
             <Entry key="ZoomPanBin">
              <ZoomPanBin id="874"  >
               <ZoomPanKeyframes>
                <ZoomPanKeyframe id="875" timeRangeEnd="-9999999/1" timeRangeDuration="0/1" interpolaterName=""  />
               </ZoomPanKeyframes>
              </ZoomPanBin>
             </Entry>
             <Entry key="CursorEffectBin">
              <CursorEffectBin id="876"  >
               <CursorEffectKeyframes>
               </CursorEffectKeyframes>
              </CursorEffectBin>
             </Entry>
            </ExtraData>
           </ScreenVMFile>
           <ScreenVMFile id="877" start="2129" duration="803" scalar="1/1" mediaStart="2235/1" mediaDuration="803/1" trackNumber="0" src="4" >
            <Transformer>
             <VectorParam id="878"  name="translation">
              <InterpolatingParam id="879" interp="linr"  time="-9999999/1" value="0" leadInLength="0/1"  />
              <InterpolatingParam id="880" interp="linr"  time="-9999999/1" value="0" leadInLength="0/1"  />
              <InterpolatingParam id="881" interp="linr"  time="-9999999/1" value="0" leadInLength="0/1"  />
             </VectorParam>
             <VectorParam id="882"  name="rotation">
              <InterpolatingParam id="883" interp="linr"  time="-9999999/1" value="0" leadInLength="0/1"  />
              <InterpolatingParam id="884" interp="linr"  time="-9999999/1" value="0" leadInLength="0/1"  />
              <InterpolatingParam id="885" interp="linr"  time="-9999999/1" value="0" leadInLength="0/1"  />
             </VectorParam>
             <VectorParam id="886"  name="shear">
              <InterpolatingParam id="887" interp="linr"  time="-9999999/1" value="0" leadInLength="0/1"  />
              <InterpolatingParam id="888" interp="linr"  time="-9999999/1" value="0" leadInLength="0/1"  />
              <InterpolatingParam id="889" interp="linr"  time="-9999999/1" value="0" leadInLength="0/1"  />
             </VectorParam>
             <VectorParam id="890"  name="scale">
              <InterpolatingParam id="891" interp="linr"  time="-9999999/1" value="1" leadInLength="0/1"  />
              <InterpolatingParam id="892" interp="linr"  time="-9999999/1" value="1" leadInLength="0/1"  />
              <InterpolatingParam id="893" interp="linr"  time="-9999999/1" value="1" leadInLength="0/1"  />
             </VectorParam>
             <VectorParam id="894"  name="anchor">
              <InterpolatingParam id="895" interp="linr"  time="0/1" value="0" leadInLength="0/1"  />
              <InterpolatingParam id="896" interp="linr"  time="0/1" value="0" leadInLength="0/1"  />
              <InterpolatingParam id="897" interp="linr"  time="0/1" value="0" leadInLength="0/1"  />
             </VectorParam>
            </Transformer>
            <Parameters>
             <VectorParam id="898"  name="sourceCrop">
              <InterpolatingParam id="899" interp="linr"  time="0/1" value="0" leadInLength="0/1"  />
              <InterpolatingParam id="900" interp="linr"  time="0/1" value="0" leadInLength="0/1"  />
              <InterpolatingParam id="901" interp="linr"  time="0/1" value="0" leadInLength="0/1"  />
              <InterpolatingParam id="902" interp="linr"  time="0/1" value="0" leadInLength="0/1"  />
             </VectorParam>
             <VectorParam id="903"  name="geometryCrop">
              <InterpolatingParam id="904" interp="linr"  time="-9999999/1" value="0" leadInLength="0/1"  />
              <InterpolatingParam id="905" interp="linr"  time="-9999999/1" value="0" leadInLength="0/1"  />
              <InterpolatingParam id="906" interp="linr"  time="-9999999/1" value="0" leadInLength="0/1"  />
              <InterpolatingParam id="907" interp="linr"  time="-9999999/1" value="0" leadInLength="0/1"  />
             </VectorParam>
             <InterpolatingParam id="908" interp="linr"  time="-9999999/1" value="1" leadInLength="0/1"  name="opacity"/>
             <InterpolatingParam id="909" interp="linr"  time="0/1" value="0" leadInLength="0/1"  name="cursorOpacity"/>
             <InterpolatingParam id="910" interp="linr"  time="0/1" value="0" leadInLength="0/1"  name="cursorScale"/>
            </Parameters>
            <Attributes>
             <Attribute id="911" value="" name="ident"/>
            </Attributes>
            <MetaData>
             <entry key="AutoAppliedSmartFocus" val="False"/>
             <entry key="WinSubProjectDisplayName" val=""/>
            </MetaData>
            <ExtraData>
             <Entry key="ZoomPanBin">
              <ZoomPanBin id="912"  >
               <ZoomPanKeyframes>
                <ZoomPanKeyframe id="913" timeRangeEnd="-9999999/1" timeRangeDuration="0/1" interpolaterName=""  />
               </ZoomPanKeyframes>
              </ZoomPanBin>
             </Entry>
             <Entry key="CursorEffectBin">
              <CursorEffectBin id="914"  >
               <CursorEffectKeyframes>
               </CursorEffectKeyframes>
              </CursorEffectBin>
             </Entry>
            </ExtraData>
           </ScreenVMFile>
           <ScreenVMFile id="915" start="2932" duration="518" scalar="1/1" mediaStart="3458/1" mediaDuration="518/1" trackNumber="0" src="4" >
            <Transformer>
             <VectorParam id="916"  name="translation">
              <InterpolatingParam id="917" interp="linr"  time="-9999999/1" value="0" leadInLength="0/1"  />
              <InterpolatingParam id="918" interp="linr"  time="-9999999/1" value="0" leadInLength="0/1"  />
              <InterpolatingParam id="919" interp="linr"  time="-9999999/1" value="0" leadInLength="0/1"  />
             </VectorParam>
             <VectorParam id="920"  name="rotation">
              <InterpolatingParam id="921" interp="linr"  time="-9999999/1" value="0" leadInLength="0/1"  />
              <InterpolatingParam id="922" interp="linr"  time="-9999999/1" value="0" leadInLength="0/1"  />
              <InterpolatingParam id="923" interp="linr"  time="-9999999/1" value="0" leadInLength="0/1"  />
             </VectorParam>
             <VectorParam id="924"  name="shear">
              <InterpolatingParam id="925" interp="linr"  time="-9999999/1" value="0" leadInLength="0/1"  />
              <InterpolatingParam id="926" interp="linr"  time="-9999999/1" value="0" leadInLength="0/1"  />
              <InterpolatingParam id="927" interp="linr"  time="-9999999/1" value="0" leadInLength="0/1"  />
             </VectorParam>
             <VectorParam id="928"  name="scale">
              <InterpolatingParam id="929" interp="linr"  time="-9999999/1" value="1" leadInLength="0/1"  />
              <InterpolatingParam id="930" interp="linr"  time="-9999999/1" value="1" leadInLength="0/1"  />
              <InterpolatingParam id="931" interp="linr"  time="-9999999/1" value="1" leadInLength="0/1"  />
             </VectorParam>
             <VectorParam id="932"  name="anchor">
              <InterpolatingParam id="933" interp="linr"  time="0/1" value="0" leadInLength="0/1"  />
              <InterpolatingParam id="934" interp="linr"  time="0/1" value="0" leadInLength="0/1"  />
              <InterpolatingParam id="935" interp="linr"  time="0/1" value="0" leadInLength="0/1"  />
             </VectorParam>
            </Transformer>
            <Parameters>
             <VectorParam id="936"  name="sourceCrop">
              <InterpolatingParam id="937" interp="linr"  time="0/1" value="0" leadInLength="0/1"  />
              <InterpolatingParam id="938" interp="linr"  time="0/1" value="0" leadInLength="0/1"  />
              <InterpolatingParam id="939" interp="linr"  time="0/1" value="0" leadInLength="0/1"  />
              <InterpolatingParam id="940" interp="linr"  time="0/1" value="0" leadInLength="0/1"  />
             </VectorParam>
             <VectorParam id="941"  name="geometryCrop">
              <InterpolatingParam id="942" interp="linr"  time="-9999999/1" value="0" leadInLength="0/1"  />
              <InterpolatingParam id="943" interp="linr"  time="-9999999/1" value="0" leadInLength="0/1"  />
              <InterpolatingParam id="944" interp="linr"  time="-9999999/1" value="0" leadInLength="0/1"  />
              <InterpolatingParam id="945" interp="linr"  time="-9999999/1" value="0" leadInLength="0/1"  />
             </VectorParam>
             <InterpolatingParam id="946" interp="linr"  time="-9999999/1" value="1" leadInLength="0/1"  name="opacity"/>
             <InterpolatingParam id="947" interp="linr"  time="0/1" value="0" leadInLength="0/1"  name="cursorOpacity"/>
             <InterpolatingParam id="948" interp="linr"  time="0/1" value="0" leadInLength="0/1"  name="cursorScale"/>
            </Parameters>
            <Attributes>
             <Attribute id="949" value="" name="ident"/>
            </Attributes>
            <MetaData>
             <entry key="AutoAppliedSmartFocus" val="False"/>
             <entry key="WinSubProjectDisplayName" val=""/>
            </MetaData>
            <ExtraData>
             <Entry key="ZoomPanBin">
              <ZoomPanBin id="950"  >
               <ZoomPanKeyframes>
                <ZoomPanKeyframe id="951" timeRangeEnd="-9999999/1" timeRangeDuration="0/1" interpolaterName=""  />
               </ZoomPanKeyframes>
              </ZoomPanBin>
             </Entry>
             <Entry key="CursorEffectBin">
              <CursorEffectBin id="952"  >
               <CursorEffectKeyframes>
               </CursorEffectKeyframes>
              </CursorEffectBin>
             </Entry>
            </ExtraData>
           </ScreenVMFile>
           <ScreenVMFile id="953" start="3450" duration="954" scalar="1/1" mediaStart="4994/1" mediaDuration="954/1" trackNumber="0" src="4" >
            <Transformer>
             <VectorParam id="954"  name="translation">
              <InterpolatingParam id="955" interp="linr"  time="-9999999/1" value="0" leadInLength="0/1"  />
              <InterpolatingParam id="956" interp="linr"  time="-9999999/1" value="0" leadInLength="0/1"  />
              <InterpolatingParam id="957" interp="linr"  time="-9999999/1" value="0" leadInLength="0/1"  />
             </VectorParam>
             <VectorParam id="958"  name="rotation">
              <InterpolatingParam id="959" interp="linr"  time="-9999999/1" value="0" leadInLength="0/1"  />
              <InterpolatingParam id="960" interp="linr"  time="-9999999/1" value="0" leadInLength="0/1"  />
              <InterpolatingParam id="961" interp="linr"  time="-9999999/1" value="0" leadInLength="0/1"  />
             </VectorParam>
             <VectorParam id="962"  name="shear">
              <InterpolatingParam id="963" interp="linr"  time="-9999999/1" value="0" leadInLength="0/1"  />
              <InterpolatingParam id="964" interp="linr"  time="-9999999/1" value="0" leadInLength="0/1"  />
              <InterpolatingParam id="965" interp="linr"  time="-9999999/1" value="0" leadInLength="0/1"  />
             </VectorParam>
             <VectorParam id="966"  name="scale">
              <InterpolatingParam id="967" interp="linr"  time="-9999999/1" value="1" leadInLength="0/1"  />
              <InterpolatingParam id="968" interp="linr"  time="-9999999/1" value="1" leadInLength="0/1"  />
              <InterpolatingParam id="969" interp="linr"  time="-9999999/1" value="1" leadInLength="0/1"  />
             </VectorParam>
             <VectorParam id="970"  name="anchor">
              <InterpolatingParam id="971" interp="linr"  time="0/1" value="0" leadInLength="0/1"  />
              <InterpolatingParam id="972" interp="linr"  time="0/1" value="0" leadInLength="0/1"  />
              <InterpolatingParam id="973" interp="linr"  time="0/1" value="0" leadInLength="0/1"  />
             </VectorParam>
            </Transformer>
            <Parameters>
             <VectorParam id="974"  name="sourceCrop">
              <InterpolatingParam id="975" interp="linr"  time="0/1" value="0" leadInLength="0/1"  />
              <InterpolatingParam id="976" interp="linr"  time="0/1" value="0" leadInLength="0/1"  />
              <InterpolatingParam id="977" interp="linr"  time="0/1" value="0" leadInLength="0/1"  />
              <InterpolatingParam id="978" interp="linr"  time="0/1" value="0" leadInLength="0/1"  />
             </VectorParam>
             <VectorParam id="979"  name="geometryCrop">
              <InterpolatingParam id="980" interp="linr"  time="-9999999/1" value="0" leadInLength="0/1"  />
              <InterpolatingParam id="981" interp="linr"  time="-9999999/1" value="0" leadInLength="0/1"  />
              <InterpolatingParam id="982" interp="linr"  time="-9999999/1" value="0" leadInLength="0/1"  />
              <InterpolatingParam id="983" interp="linr"  time="-9999999/1" value="0" leadInLength="0/1"  />
             </VectorParam>
             <InterpolatingParam id="984" interp="linr"  time="-9999999/1" value="1" leadInLength="0/1"  name="opacity"/>
             <InterpolatingParam id="985" interp="linr"  time="0/1" value="0" leadInLength="0/1"  name="cursorOpacity"/>
             <InterpolatingParam id="986" interp="linr"  time="0/1" value="0" leadInLength="0/1"  name="cursorScale"/>
            </Parameters>
            <Attributes>
             <Attribute id="987" value="" name="ident"/>
            </Attributes>
            <MetaData>
             <entry key="AutoAppliedSmartFocus" val="False"/>
             <entry key="WinSubProjectDisplayName" val=""/>
            </MetaData>
            <ExtraData>
             <Entry key="ZoomPanBin">
              <ZoomPanBin id="988"  >
               <ZoomPanKeyframes>
                <ZoomPanKeyframe id="989" timeRangeEnd="-9999999/1" timeRangeDuration="0/1" interpolaterName=""  />
               </ZoomPanKeyframes>
              </ZoomPanBin>
             </Entry>
             <Entry key="CursorEffectBin">
              <CursorEffectBin id="990"  >
               <CursorEffectKeyframes>
               </CursorEffectKeyframes>
              </CursorEffectBin>
             </Entry>
            </ExtraData>
           </ScreenVMFile>
           <ScreenVMFile id="991" start="4404" duration="443" scalar="1/1" mediaStart="6053/1" mediaDuration="443/1" trackNumber="0" src="4" >
            <Transformer>
             <VectorParam id="992"  name="translation">
              <InterpolatingParam id="993" interp="linr"  time="-9999999/1" value="0" leadInLength="0/1"  />
              <InterpolatingParam id="994" interp="linr"  time="-9999999/1" value="0" leadInLength="0/1"  />
              <InterpolatingParam id="995" interp="linr"  time="-9999999/1" value="0" leadInLength="0/1"  />
             </VectorParam>
             <VectorParam id="996"  name="rotation">
              <InterpolatingParam id="997" interp="linr"  time="-9999999/1" value="0" leadInLength="0/1"  />
              <InterpolatingParam id="998" interp="linr"  time="-9999999/1" value="0" leadInLength="0/1"  />
              <InterpolatingParam id="999" interp="linr"  time="-9999999/1" value="0" leadInLength="0/1"  />
             </VectorParam>
             <VectorParam id="1000"  name="shear">
              <InterpolatingParam id="1001" interp="linr"  time="-9999999/1" value="0" leadInLength="0/1"  />
              <InterpolatingParam id="1002" interp="linr"  time="-9999999/1" value="0" leadInLength="0/1"  />
              <InterpolatingParam id="1003" interp="linr"  time="-9999999/1" value="0" leadInLength="0/1"  />
             </VectorParam>
             <VectorParam id="1004"  name="scale">
              <InterpolatingParam id="1005" interp="linr"  time="-9999999/1" value="1" leadInLength="0/1"  />
              <InterpolatingParam id="1006" interp="linr"  time="-9999999/1" value="1" leadInLength="0/1"  />
              <InterpolatingParam id="1007" interp="linr"  time="-9999999/1" value="1" leadInLength="0/1"  />
             </VectorParam>
             <VectorParam id="1008"  name="anchor">
              <InterpolatingParam id="1009" interp="linr"  time="0/1" value="0" leadInLength="0/1"  />
              <InterpolatingParam id="1010" interp="linr"  time="0/1" value="0" leadInLength="0/1"  />
              <InterpolatingParam id="1011" interp="linr"  time="0/1" value="0" leadInLength="0/1"  />
             </VectorParam>
            </Transformer>
            <Parameters>
             <VectorParam id="1012"  name="sourceCrop">
              <InterpolatingParam id="1013" interp="linr"  time="0/1" value="0" leadInLength="0/1"  />
              <InterpolatingParam id="1014" interp="linr"  time="0/1" value="0" leadInLength="0/1"  />
              <InterpolatingParam id="1015" interp="linr"  time="0/1" value="0" leadInLength="0/1"  />
              <InterpolatingParam id="1016" interp="linr"  time="0/1" value="0" leadInLength="0/1"  />
             </VectorParam>
             <VectorParam id="1017"  name="geometryCrop">
              <InterpolatingParam id="1018" interp="linr"  time="-9999999/1" value="0" leadInLength="0/1"  />
              <InterpolatingParam id="1019" interp="linr"  time="-9999999/1" value="0" leadInLength="0/1"  />
              <InterpolatingParam id="1020" interp="linr"  time="-9999999/1" value="0" leadInLength="0/1"  />
              <InterpolatingParam id="1021" interp="linr"  time="-9999999/1" value="0" leadInLength="0/1"  />
             </VectorParam>
             <InterpolatingParam id="1022" interp="linr"  time="-9999999/1" value="1" leadInLength="0/1"  name="opacity"/>
             <InterpolatingParam id="1023" interp="linr"  time="0/1" value="0" leadInLength="0/1"  name="cursorOpacity"/>
             <InterpolatingParam id="1024" interp="linr"  time="0/1" value="0" leadInLength="0/1"  name="cursorScale"/>
            </Parameters>
            <Attributes>
             <Attribute id="1025" value="" name="ident"/>
            </Attributes>
            <MetaData>
             <entry key="AutoAppliedSmartFocus" val="False"/>
             <entry key="WinSubProjectDisplayName" val=""/>
            </MetaData>
            <ExtraData>
             <Entry key="ZoomPanBin">
              <ZoomPanBin id="1026"  >
               <ZoomPanKeyframes>
                <ZoomPanKeyframe id="1027" timeRangeEnd="-9999999/1" timeRangeDuration="0/1" interpolaterName=""  />
               </ZoomPanKeyframes>
              </ZoomPanBin>
             </Entry>
             <Entry key="CursorEffectBin">
              <CursorEffectBin id="1028"  >
               <CursorEffectKeyframes>
               </CursorEffectKeyframes>
              </CursorEffectBin>
             </Entry>
            </ExtraData>
           </ScreenVMFile>
           <ScreenVMFile id="1029" start="4847" duration="162" scalar="1/1" mediaStart="6920/1" mediaDuration="162/1" trackNumber="0" src="4" >
            <Transformer>
             <VectorParam id="1030"  name="translation">
              <InterpolatingParam id="1031" interp="linr"  time="-9999999/1" value="0" leadInLength="0/1"  />
              <InterpolatingParam id="1032" interp="linr"  time="-9999999/1" value="0" leadInLength="0/1"  />
              <InterpolatingParam id="1033" interp="linr"  time="-9999999/1" value="0" leadInLength="0/1"  />
             </VectorParam>
             <VectorParam id="1034"  name="rotation">
              <InterpolatingParam id="1035" interp="linr"  time="-9999999/1" value="0" leadInLength="0/1"  />
              <InterpolatingParam id="1036" interp="linr"  time="-9999999/1" value="0" leadInLength="0/1"  />
              <InterpolatingParam id="1037" interp="linr"  time="-9999999/1" value="0" leadInLength="0/1"  />
             </VectorParam>
             <VectorParam id="1038"  name="shear">
              <InterpolatingParam id="1039" interp="linr"  time="-9999999/1" value="0" leadInLength="0/1"  />
              <InterpolatingParam id="1040" interp="linr"  time="-9999999/1" value="0" leadInLength="0/1"  />
              <InterpolatingParam id="1041" interp="linr"  time="-9999999/1" value="0" leadInLength="0/1"  />
             </VectorParam>
             <VectorParam id="1042"  name="scale">
              <InterpolatingParam id="1043" interp="linr"  time="-9999999/1" value="1" leadInLength="0/1"  />
              <InterpolatingParam id="1044" interp="linr"  time="-9999999/1" value="1" leadInLength="0/1"  />
              <InterpolatingParam id="1045" interp="linr"  time="-9999999/1" value="1" leadInLength="0/1"  />
             </VectorParam>
             <VectorParam id="1046"  name="anchor">
              <InterpolatingParam id="1047" interp="linr"  time="0/1" value="0" leadInLength="0/1"  />
              <InterpolatingParam id="1048" interp="linr"  time="0/1" value="0" leadInLength="0/1"  />
              <InterpolatingParam id="1049" interp="linr"  time="0/1" value="0" leadInLength="0/1"  />
             </VectorParam>
            </Transformer>
            <Parameters>
             <VectorParam id="1050"  name="sourceCrop">
              <InterpolatingParam id="1051" interp="linr"  time="0/1" value="0" leadInLength="0/1"  />
              <InterpolatingParam id="1052" interp="linr"  time="0/1" value="0" leadInLength="0/1"  />
              <InterpolatingParam id="1053" interp="linr"  time="0/1" value="0" leadInLength="0/1"  />
              <InterpolatingParam id="1054" interp="linr"  time="0/1" value="0" leadInLength="0/1"  />
             </VectorParam>
             <VectorParam id="1055"  name="geometryCrop">
              <InterpolatingParam id="1056" interp="linr"  time="-9999999/1" value="0" leadInLength="0/1"  />
              <InterpolatingParam id="1057" interp="linr"  time="-9999999/1" value="0" leadInLength="0/1"  />
              <InterpolatingParam id="1058" interp="linr"  time="-9999999/1" value="0" leadInLength="0/1"  />
              <InterpolatingParam id="1059" interp="linr"  time="-9999999/1" value="0" leadInLength="0/1"  />
             </VectorParam>
             <InterpolatingParam id="1060" interp="linr"  time="-9999999/1" value="1" leadInLength="0/1"  name="opacity"/>
             <InterpolatingParam id="1061" interp="linr"  time="0/1" value="0" leadInLength="0/1"  name="cursorOpacity"/>
             <InterpolatingParam id="1062" interp="linr"  time="0/1" value="0" leadInLength="0/1"  name="cursorScale"/>
            </Parameters>
            <Attributes>
             <Attribute id="1063" value="" name="ident"/>
            </Attributes>
            <MetaData>
             <entry key="AutoAppliedSmartFocus" val="False"/>
             <entry key="WinSubProjectDisplayName" val=""/>
            </MetaData>
            <ExtraData>
             <Entry key="ZoomPanBin">
              <ZoomPanBin id="1064"  >
               <ZoomPanKeyframes>
                <ZoomPanKeyframe id="1065" timeRangeEnd="-9999999/1" timeRangeDuration="0/1" interpolaterName=""  />
               </ZoomPanKeyframes>
              </ZoomPanBin>
             </Entry>
             <Entry key="CursorEffectBin">
              <CursorEffectBin id="1066"  >
               <CursorEffectKeyframes>
               </CursorEffectKeyframes>
              </CursorEffectBin>
             </Entry>
            </ExtraData>
           </ScreenVMFile>
           <ScreenVMFile id="1067" start="5009" duration="58" scalar="1/1" mediaStart="7393/1" mediaDuration="58/1" trackNumber="0" src="4" >
            <Transformer>
             <VectorParam id="1068"  name="translation">
              <InterpolatingParam id="1069" interp="linr"  time="-9999999/1" value="0" leadInLength="0/1"  />
              <InterpolatingParam id="1070" interp="linr"  time="-9999999/1" value="0" leadInLength="0/1"  />
              <InterpolatingParam id="1071" interp="linr"  time="-9999999/1" value="0" leadInLength="0/1"  />
             </VectorParam>
             <VectorParam id="1072"  name="rotation">
              <InterpolatingParam id="1073" interp="linr"  time="-9999999/1" value="0" leadInLength="0/1"  />
              <InterpolatingParam id="1074" interp="linr"  time="-9999999/1" value="0" leadInLength="0/1"  />
              <InterpolatingParam id="1075" interp="linr"  time="-9999999/1" value="0" leadInLength="0/1"  />
             </VectorParam>
             <VectorParam id="1076"  name="shear">
              <InterpolatingParam id="1077" interp="linr"  time="-9999999/1" value="0" leadInLength="0/1"  />
              <InterpolatingParam id="1078" interp="linr"  time="-9999999/1" value="0" leadInLength="0/1"  />
              <InterpolatingParam id="1079" interp="linr"  time="-9999999/1" value="0" leadInLength="0/1"  />
             </VectorParam>
             <VectorParam id="1080"  name="scale">
              <InterpolatingParam id="1081" interp="linr"  time="-9999999/1" value="1" leadInLength="0/1"  />
              <InterpolatingParam id="1082" interp="linr"  time="-9999999/1" value="1" leadInLength="0/1"  />
              <InterpolatingParam id="1083" interp="linr"  time="-9999999/1" value="1" leadInLength="0/1"  />
             </VectorParam>
             <VectorParam id="1084"  name="anchor">
              <InterpolatingParam id="1085" interp="linr"  time="0/1" value="0" leadInLength="0/1"  />
              <InterpolatingParam id="1086" interp="linr"  time="0/1" value="0" leadInLength="0/1"  />
              <InterpolatingParam id="1087" interp="linr"  time="0/1" value="0" leadInLength="0/1"  />
             </VectorParam>
            </Transformer>
            <Parameters>
             <VectorParam id="1088"  name="sourceCrop">
              <InterpolatingParam id="1089" interp="linr"  time="0/1" value="0" leadInLength="0/1"  />
              <InterpolatingParam id="1090" interp="linr"  time="0/1" value="0" leadInLength="0/1"  />
              <InterpolatingParam id="1091" interp="linr"  time="0/1" value="0" leadInLength="0/1"  />
              <InterpolatingParam id="1092" interp="linr"  time="0/1" value="0" leadInLength="0/1"  />
             </VectorParam>
             <VectorParam id="1093"  name="geometryCrop">
              <InterpolatingParam id="1094" interp="linr"  time="-9999999/1" value="0" leadInLength="0/1"  />
              <InterpolatingParam id="1095" interp="linr"  time="-9999999/1" value="0" leadInLength="0/1"  />
              <InterpolatingParam id="1096" interp="linr"  time="-9999999/1" value="0" leadInLength="0/1"  />
              <InterpolatingParam id="1097" interp="linr"  time="-9999999/1" value="0" leadInLength="0/1"  />
             </VectorParam>
             <InterpolatingParam id="1098" interp="linr"  time="-9999999/1" value="1" leadInLength="0/1"  name="opacity"/>
             <InterpolatingParam id="1099" interp="linr"  time="0/1" value="0" leadInLength="0/1"  name="cursorOpacity"/>
             <InterpolatingParam id="1100" interp="linr"  time="0/1" value="0" leadInLength="0/1"  name="cursorScale"/>
            </Parameters>
            <Attributes>
             <Attribute id="1101" value="" name="ident"/>
            </Attributes>
            <MetaData>
             <entry key="AutoAppliedSmartFocus" val="False"/>
             <entry key="WinSubProjectDisplayName" val=""/>
            </MetaData>
            <ExtraData>
             <Entry key="ZoomPanBin">
              <ZoomPanBin id="1102"  >
               <ZoomPanKeyframes>
                <ZoomPanKeyframe id="1103" timeRangeEnd="-9999999/1" timeRangeDuration="0/1" interpolaterName=""  />
               </ZoomPanKeyframes>
              </ZoomPanBin>
             </Entry>
             <Entry key="CursorEffectBin">
              <CursorEffectBin id="1104"  >
               <CursorEffectKeyframes>
               </CursorEffectKeyframes>
              </CursorEffectBin>
             </Entry>
            </ExtraData>
           </ScreenVMFile>
           <ScreenVMFile id="1105" start="5067" duration="700" scalar="1/1" mediaStart="7474/1" mediaDuration="700/1" trackNumber="0" src="4" >
            <Transformer>
             <VectorParam id="1106"  name="translation">
              <InterpolatingParam id="1107" interp="linr"  time="-9999999/1" value="0" leadInLength="0/1"  />
              <InterpolatingParam id="1108" interp="linr"  time="-9999999/1" value="0" leadInLength="0/1"  />
              <InterpolatingParam id="1109" interp="linr"  time="-9999999/1" value="0" leadInLength="0/1"  />
             </VectorParam>
             <VectorParam id="1110"  name="rotation">
              <InterpolatingParam id="1111" interp="linr"  time="-9999999/1" value="0" leadInLength="0/1"  />
              <InterpolatingParam id="1112" interp="linr"  time="-9999999/1" value="0" leadInLength="0/1"  />
              <InterpolatingParam id="1113" interp="linr"  time="-9999999/1" value="0" leadInLength="0/1"  />
             </VectorParam>
             <VectorParam id="1114"  name="shear">
              <InterpolatingParam id="1115" interp="linr"  time="-9999999/1" value="0" leadInLength="0/1"  />
              <InterpolatingParam id="1116" interp="linr"  time="-9999999/1" value="0" leadInLength="0/1"  />
              <InterpolatingParam id="1117" interp="linr"  time="-9999999/1" value="0" leadInLength="0/1"  />
             </VectorParam>
             <VectorParam id="1118"  name="scale">
              <InterpolatingParam id="1119" interp="linr"  time="-9999999/1" value="1" leadInLength="0/1"  />
              <InterpolatingParam id="1120" interp="linr"  time="-9999999/1" value="1" leadInLength="0/1"  />
              <InterpolatingParam id="1121" interp="linr"  time="-9999999/1" value="1" leadInLength="0/1"  />
             </VectorParam>
             <VectorParam id="1122"  name="anchor">
              <InterpolatingParam id="1123" interp="linr"  time="0/1" value="0" leadInLength="0/1"  />
              <InterpolatingParam id="1124" interp="linr"  time="0/1" value="0" leadInLength="0/1"  />
              <InterpolatingParam id="1125" interp="linr"  time="0/1" value="0" leadInLength="0/1"  />
             </VectorParam>
            </Transformer>
            <Parameters>
             <VectorParam id="1126"  name="sourceCrop">
              <InterpolatingParam id="1127" interp="linr"  time="0/1" value="0" leadInLength="0/1"  />
              <InterpolatingParam id="1128" interp="linr"  time="0/1" value="0" leadInLength="0/1"  />
              <InterpolatingParam id="1129" interp="linr"  time="0/1" value="0" leadInLength="0/1"  />
              <InterpolatingParam id="1130" interp="linr"  time="0/1" value="0" leadInLength="0/1"  />
             </VectorParam>
             <VectorParam id="1131"  name="geometryCrop">
              <InterpolatingParam id="1132" interp="linr"  time="-9999999/1" value="0" leadInLength="0/1"  />
              <InterpolatingParam id="1133" interp="linr"  time="-9999999/1" value="0" leadInLength="0/1"  />
              <InterpolatingParam id="1134" interp="linr"  time="-9999999/1" value="0" leadInLength="0/1"  />
              <InterpolatingParam id="1135" interp="linr"  time="-9999999/1" value="0" leadInLength="0/1"  />
             </VectorParam>
             <InterpolatingParam id="1136" interp="linr"  time="-9999999/1" value="1" leadInLength="0/1"  name="opacity"/>
             <InterpolatingParam id="1137" interp="linr"  time="0/1" value="0" leadInLength="0/1"  name="cursorOpacity"/>
             <InterpolatingParam id="1138" interp="linr"  time="0/1" value="0" leadInLength="0/1"  name="cursorScale"/>
            </Parameters>
            <Attributes>
             <Attribute id="1139" value="" name="ident"/>
            </Attributes>
            <MetaData>
             <entry key="AutoAppliedSmartFocus" val="False"/>
             <entry key="WinSubProjectDisplayName" val=""/>
            </MetaData>
            <ExtraData>
             <Entry key="ZoomPanBin">
              <ZoomPanBin id="1140"  >
               <ZoomPanKeyframes>
                <ZoomPanKeyframe id="1141" timeRangeEnd="-9999999/1" timeRangeDuration="0/1" interpolaterName=""  />
               </ZoomPanKeyframes>
              </ZoomPanBin>
             </Entry>
             <Entry key="CursorEffectBin">
              <CursorEffectBin id="1142"  >
               <CursorEffectKeyframes>
               </CursorEffectKeyframes>
              </CursorEffectBin>
             </Entry>
            </ExtraData>
           </ScreenVMFile>
           <ScreenVMFile id="1143" start="5767" duration="75" scalar="1/1" mediaStart="8190/1" mediaDuration="75/1" trackNumber="0" src="4" >
            <Transformer>
             <VectorParam id="1144"  name="translation">
              <InterpolatingParam id="1145" interp="linr"  time="-9999999/1" value="0" leadInLength="0/1"  />
              <InterpolatingParam id="1146" interp="linr"  time="-9999999/1" value="0" leadInLength="0/1"  />
              <InterpolatingParam id="1147" interp="linr"  time="-9999999/1" value="0" leadInLength="0/1"  />
             </VectorParam>
             <VectorParam id="1148"  name="rotation">
              <InterpolatingParam id="1149" interp="linr"  time="-9999999/1" value="0" leadInLength="0/1"  />
              <InterpolatingParam id="1150" interp="linr"  time="-9999999/1" value="0" leadInLength="0/1"  />
              <InterpolatingParam id="1151" interp="linr"  time="-9999999/1" value="0" leadInLength="0/1"  />
             </VectorParam>
             <VectorParam id="1152"  name="shear">
              <InterpolatingParam id="1153" interp="linr"  time="-9999999/1" value="0" leadInLength="0/1"  />
              <InterpolatingParam id="1154" interp="linr"  time="-9999999/1" value="0" leadInLength="0/1"  />
              <InterpolatingParam id="1155" interp="linr"  time="-9999999/1" value="0" leadInLength="0/1"  />
             </VectorParam>
             <VectorParam id="1156"  name="scale">
              <InterpolatingParam id="1157" interp="linr"  time="-9999999/1" value="1" leadInLength="0/1"  />
              <InterpolatingParam id="1158" interp="linr"  time="-9999999/1" value="1" leadInLength="0/1"  />
              <InterpolatingParam id="1159" interp="linr"  time="-9999999/1" value="1" leadInLength="0/1"  />
             </VectorParam>
             <VectorParam id="1160"  name="anchor">
              <InterpolatingParam id="1161" interp="linr"  time="0/1" value="0" leadInLength="0/1"  />
              <InterpolatingParam id="1162" interp="linr"  time="0/1" value="0" leadInLength="0/1"  />
              <InterpolatingParam id="1163" interp="linr"  time="0/1" value="0" leadInLength="0/1"  />
             </VectorParam>
            </Transformer>
            <Parameters>
             <VectorParam id="1164"  name="sourceCrop">
              <InterpolatingParam id="1165" interp="linr"  time="0/1" value="0" leadInLength="0/1"  />
              <InterpolatingParam id="1166" interp="linr"  time="0/1" value="0" leadInLength="0/1"  />
              <InterpolatingParam id="1167" interp="linr"  time="0/1" value="0" leadInLength="0/1"  />
              <InterpolatingParam id="1168" interp="linr"  time="0/1" value="0" leadInLength="0/1"  />
             </VectorParam>
             <VectorParam id="1169"  name="geometryCrop">
              <InterpolatingParam id="1170" interp="linr"  time="-9999999/1" value="0" leadInLength="0/1"  />
              <InterpolatingParam id="1171" interp="linr"  time="-9999999/1" value="0" leadInLength="0/1"  />
              <InterpolatingParam id="1172" interp="linr"  time="-9999999/1" value="0" leadInLength="0/1"  />
              <InterpolatingParam id="1173" interp="linr"  time="-9999999/1" value="0" leadInLength="0/1"  />
             </VectorParam>
             <InterpolatingParam id="1174" interp="linr"  time="-9999999/1" value="1" leadInLength="0/1"  name="opacity"/>
             <InterpolatingParam id="1175" interp="linr"  time="0/1" value="0" leadInLength="0/1"  name="cursorOpacity"/>
             <InterpolatingParam id="1176" interp="linr"  time="0/1" value="0" leadInLength="0/1"  name="cursorScale"/>
            </Parameters>
            <Attributes>
             <Attribute id="1177" value="" name="ident"/>
            </Attributes>
            <MetaData>
             <entry key="AutoAppliedSmartFocus" val="False"/>
             <entry key="WinSubProjectDisplayName" val=""/>
            </MetaData>
            <ExtraData>
             <Entry key="ZoomPanBin">
              <ZoomPanBin id="1178"  >
               <ZoomPanKeyframes>
                <ZoomPanKeyframe id="1179" timeRangeEnd="-9999999/1" timeRangeDuration="0/1" interpolaterName=""  />
               </ZoomPanKeyframes>
              </ZoomPanBin>
             </Entry>
             <Entry key="CursorEffectBin">
              <CursorEffectBin id="1180"  >
               <CursorEffectKeyframes>
               </CursorEffectKeyframes>
              </CursorEffectBin>
             </Entry>
            </ExtraData>
           </ScreenVMFile>
           <ScreenVMFile id="1181" start="5842" duration="94" scalar="1/1" mediaStart="8287/1" mediaDuration="94/1" trackNumber="0" src="4" >
            <Transformer>
             <VectorParam id="1182"  name="translation">
              <InterpolatingParam id="1183" interp="linr"  time="-9999999/1" value="0" leadInLength="0/1"  />
              <InterpolatingParam id="1184" interp="linr"  time="-9999999/1" value="0" leadInLength="0/1"  />
              <InterpolatingParam id="1185" interp="linr"  time="-9999999/1" value="0" leadInLength="0/1"  />
             </VectorParam>
             <VectorParam id="1186"  name="rotation">
              <InterpolatingParam id="1187" interp="linr"  time="-9999999/1" value="0" leadInLength="0/1"  />
              <InterpolatingParam id="1188" interp="linr"  time="-9999999/1" value="0" leadInLength="0/1"  />
              <InterpolatingParam id="1189" interp="linr"  time="-9999999/1" value="0" leadInLength="0/1"  />
             </VectorParam>
             <VectorParam id="1190"  name="shear">
              <InterpolatingParam id="1191" interp="linr"  time="-9999999/1" value="0" leadInLength="0/1"  />
              <InterpolatingParam id="1192" interp="linr"  time="-9999999/1" value="0" leadInLength="0/1"  />
              <InterpolatingParam id="1193" interp="linr"  time="-9999999/1" value="0" leadInLength="0/1"  />
             </VectorParam>
             <VectorParam id="1194"  name="scale">
              <InterpolatingParam id="1195" interp="linr"  time="-9999999/1" value="1" leadInLength="0/1"  />
              <InterpolatingParam id="1196" interp="linr"  time="-9999999/1" value="1" leadInLength="0/1"  />
              <InterpolatingParam id="1197" interp="linr"  time="-9999999/1" value="1" leadInLength="0/1"  />
             </VectorParam>
             <VectorParam id="1198"  name="anchor">
              <InterpolatingParam id="1199" interp="linr"  time="0/1" value="0" leadInLength="0/1"  />
              <InterpolatingParam id="1200" interp="linr"  time="0/1" value="0" leadInLength="0/1"  />
              <InterpolatingParam id="1201" interp="linr"  time="0/1" value="0" leadInLength="0/1"  />
             </VectorParam>
            </Transformer>
            <Parameters>
             <VectorParam id="1202"  name="sourceCrop">
              <InterpolatingParam id="1203" interp="linr"  time="0/1" value="0" leadInLength="0/1"  />
              <InterpolatingParam id="1204" interp="linr"  time="0/1" value="0" leadInLength="0/1"  />
              <InterpolatingParam id="1205" interp="linr"  time="0/1" value="0" leadInLength="0/1"  />
              <InterpolatingParam id="1206" interp="linr"  time="0/1" value="0" leadInLength="0/1"  />
             </VectorParam>
             <VectorParam id="1207"  name="geometryCrop">
              <InterpolatingParam id="1208" interp="linr"  time="-9999999/1" value="0" leadInLength="0/1"  />
              <InterpolatingParam id="1209" interp="linr"  time="-9999999/1" value="0" leadInLength="0/1"  />
              <InterpolatingParam id="1210" interp="linr"  time="-9999999/1" value="0" leadInLength="0/1"  />
              <InterpolatingParam id="1211" interp="linr"  time="-9999999/1" value="0" leadInLength="0/1"  />
             </VectorParam>
             <InterpolatingParam id="1212" interp="linr"  time="-9999999/1" value="1" leadInLength="0/1"  name="opacity"/>
             <InterpolatingParam id="1213" interp="linr"  time="0/1" value="0" leadInLength="0/1"  name="cursorOpacity"/>
             <InterpolatingParam id="1214" interp="linr"  time="0/1" value="0" leadInLength="0/1"  name="cursorScale"/>
            </Parameters>
            <Attributes>
             <Attribute id="1215" value="" name="ident"/>
            </Attributes>
            <MetaData>
             <entry key="AutoAppliedSmartFocus" val="False"/>
             <entry key="WinSubProjectDisplayName" val=""/>
            </MetaData>
            <ExtraData>
             <Entry key="ZoomPanBin">
              <ZoomPanBin id="1216"  >
               <ZoomPanKeyframes>
                <ZoomPanKeyframe id="1217" timeRangeEnd="-9999999/1" timeRangeDuration="0/1" interpolaterName=""  />
               </ZoomPanKeyframes>
              </ZoomPanBin>
             </Entry>
             <Entry key="CursorEffectBin">
              <CursorEffectBin id="1218"  >
               <CursorEffectKeyframes>
               </CursorEffectKeyframes>
              </CursorEffectBin>
             </Entry>
            </ExtraData>
           </ScreenVMFile>
           <ScreenVMFile id="1219" start="5936" duration="735" scalar="1/1" mediaStart="8402/1" mediaDuration="735/1" trackNumber="0" src="4" >
            <Transformer>
             <VectorParam id="1220"  name="translation">
              <InterpolatingParam id="1221" interp="linr"  time="-9999999/1" value="0" leadInLength="0/1"  />
              <InterpolatingParam id="1222" interp="linr"  time="-9999999/1" value="0" leadInLength="0/1"  />
              <InterpolatingParam id="1223" interp="linr"  time="-9999999/1" value="0" leadInLength="0/1"  />
             </VectorParam>
             <VectorParam id="1224"  name="rotation">
              <InterpolatingParam id="1225" interp="linr"  time="-9999999/1" value="0" leadInLength="0/1"  />
              <InterpolatingParam id="1226" interp="linr"  time="-9999999/1" value="0" leadInLength="0/1"  />
              <InterpolatingParam id="1227" interp="linr"  time="-9999999/1" value="0" leadInLength="0/1"  />
             </VectorParam>
             <VectorParam id="1228"  name="shear">
              <InterpolatingParam id="1229" interp="linr"  time="-9999999/1" value="0" leadInLength="0/1"  />
              <InterpolatingParam id="1230" interp="linr"  time="-9999999/1" value="0" leadInLength="0/1"  />
              <InterpolatingParam id="1231" interp="linr"  time="-9999999/1" value="0" leadInLength="0/1"  />
             </VectorParam>
             <VectorParam id="1232"  name="scale">
              <InterpolatingParam id="1233" interp="linr"  time="-9999999/1" value="1" leadInLength="0/1"  />
              <InterpolatingParam id="1234" interp="linr"  time="-9999999/1" value="1" leadInLength="0/1"  />
              <InterpolatingParam id="1235" interp="linr"  time="-9999999/1" value="1" leadInLength="0/1"  />
             </VectorParam>
             <VectorParam id="1236"  name="anchor">
              <InterpolatingParam id="1237" interp="linr"  time="0/1" value="0" leadInLength="0/1"  />
              <InterpolatingParam id="1238" interp="linr"  time="0/1" value="0" leadInLength="0/1"  />
              <InterpolatingParam id="1239" interp="linr"  time="0/1" value="0" leadInLength="0/1"  />
             </VectorParam>
            </Transformer>
            <Parameters>
             <VectorParam id="1240"  name="sourceCrop">
              <InterpolatingParam id="1241" interp="linr"  time="0/1" value="0" leadInLength="0/1"  />
              <InterpolatingParam id="1242" interp="linr"  time="0/1" value="0" leadInLength="0/1"  />
              <InterpolatingParam id="1243" interp="linr"  time="0/1" value="0" leadInLength="0/1"  />
              <InterpolatingParam id="1244" interp="linr"  time="0/1" value="0" leadInLength="0/1"  />
             </VectorParam>
             <VectorParam id="1245"  name="geometryCrop">
              <InterpolatingParam id="1246" interp="linr"  time="-9999999/1" value="0" leadInLength="0/1"  />
              <InterpolatingParam id="1247" interp="linr"  time="-9999999/1" value="0" leadInLength="0/1"  />
              <InterpolatingParam id="1248" interp="linr"  time="-9999999/1" value="0" leadInLength="0/1"  />
              <InterpolatingParam id="1249" interp="linr"  time="-9999999/1" value="0" leadInLength="0/1"  />
             </VectorParam>
             <InterpolatingParam id="1250" interp="linr"  time="-9999999/1" value="1" leadInLength="0/1"  name="opacity"/>
             <InterpolatingParam id="1251" interp="linr"  time="0/1" value="0" leadInLength="0/1"  name="cursorOpacity"/>
             <InterpolatingParam id="1252" interp="linr"  time="0/1" value="0" leadInLength="0/1"  name="cursorScale"/>
            </Parameters>
            <Attributes>
             <Attribute id="1253" value="" name="ident"/>
            </Attributes>
            <MetaData>
             <entry key="AutoAppliedSmartFocus" val="False"/>
             <entry key="WinSubProjectDisplayName" val=""/>
            </MetaData>
            <ExtraData>
             <Entry key="ZoomPanBin">
              <ZoomPanBin id="1254"  >
               <ZoomPanKeyframes>
                <ZoomPanKeyframe id="1255" timeRangeEnd="-9999999/1" timeRangeDuration="0/1" interpolaterName=""  />
               </ZoomPanKeyframes>
              </ZoomPanBin>
             </Entry>
             <Entry key="CursorEffectBin">
              <CursorEffectBin id="1256"  >
               <CursorEffectKeyframes>
               </CursorEffectKeyframes>
              </CursorEffectBin>
             </Entry>
            </ExtraData>
           </ScreenVMFile>
           <ScreenVMFile id="1257" start="6671" duration="851" scalar="1/1" mediaStart="9226/1" mediaDuration="851/1" trackNumber="0" src="4" >
            <Transformer>
             <VectorParam id="1258"  name="translation">
              <InterpolatingParam id="1259" interp="linr"  time="-9999999/1" value="0" leadInLength="0/1"  />
              <InterpolatingParam id="1260" interp="linr"  time="-9999999/1" value="0" leadInLength="0/1"  />
              <InterpolatingParam id="1261" interp="linr"  time="-9999999/1" value="0" leadInLength="0/1"  />
             </VectorParam>
             <VectorParam id="1262"  name="rotation">
              <InterpolatingParam id="1263" interp="linr"  time="-9999999/1" value="0" leadInLength="0/1"  />
              <InterpolatingParam id="1264" interp="linr"  time="-9999999/1" value="0" leadInLength="0/1"  />
              <InterpolatingParam id="1265" interp="linr"  time="-9999999/1" value="0" leadInLength="0/1"  />
             </VectorParam>
             <VectorParam id="1266"  name="shear">
              <InterpolatingParam id="1267" interp="linr"  time="-9999999/1" value="0" leadInLength="0/1"  />
              <InterpolatingParam id="1268" interp="linr"  time="-9999999/1" value="0" leadInLength="0/1"  />
              <InterpolatingParam id="1269" interp="linr"  time="-9999999/1" value="0" leadInLength="0/1"  />
             </VectorParam>
             <VectorParam id="1270"  name="scale">
              <InterpolatingParam id="1271" interp="linr"  time="-9999999/1" value="1" leadInLength="0/1"  />
              <InterpolatingParam id="1272" interp="linr"  time="-9999999/1" value="1" leadInLength="0/1"  />
              <InterpolatingParam id="1273" interp="linr"  time="-9999999/1" value="1" leadInLength="0/1"  />
             </VectorParam>
             <VectorParam id="1274"  name="anchor">
              <InterpolatingParam id="1275" interp="linr"  time="0/1" value="0" leadInLength="0/1"  />
              <InterpolatingParam id="1276" interp="linr"  time="0/1" value="0" leadInLength="0/1"  />
              <InterpolatingParam id="1277" interp="linr"  time="0/1" value="0" leadInLength="0/1"  />
             </VectorParam>
            </Transformer>
            <Parameters>
             <VectorParam id="1278"  name="sourceCrop">
              <InterpolatingParam id="1279" interp="linr"  time="0/1" value="0" leadInLength="0/1"  />
              <InterpolatingParam id="1280" interp="linr"  time="0/1" value="0" leadInLength="0/1"  />
              <InterpolatingParam id="1281" interp="linr"  time="0/1" value="0" leadInLength="0/1"  />
              <InterpolatingParam id="1282" interp="linr"  time="0/1" value="0" leadInLength="0/1"  />
             </VectorParam>
             <VectorParam id="1283"  name="geometryCrop">
              <InterpolatingParam id="1284" interp="linr"  time="-9999999/1" value="0" leadInLength="0/1"  />
              <InterpolatingParam id="1285" interp="linr"  time="-9999999/1" value="0" leadInLength="0/1"  />
              <InterpolatingParam id="1286" interp="linr"  time="-9999999/1" value="0" leadInLength="0/1"  />
              <InterpolatingParam id="1287" interp="linr"  time="-9999999/1" value="0" leadInLength="0/1"  />
             </VectorParam>
             <InterpolatingParam id="1288" interp="linr"  time="-9999999/1" value="1" leadInLength="0/1"  name="opacity"/>
             <InterpolatingParam id="1289" interp="linr"  time="0/1" value="0" leadInLength="0/1"  name="cursorOpacity"/>
             <InterpolatingParam id="1290" interp="linr"  time="0/1" value="0" leadInLength="0/1"  name="cursorScale"/>
            </Parameters>
            <Attributes>
             <Attribute id="1291" value="" name="ident"/>
            </Attributes>
            <MetaData>
             <entry key="AutoAppliedSmartFocus" val="False"/>
             <entry key="WinSubProjectDisplayName" val=""/>
            </MetaData>
            <ExtraData>
             <Entry key="ZoomPanBin">
              <ZoomPanBin id="1292"  >
               <ZoomPanKeyframes>
                <ZoomPanKeyframe id="1293" timeRangeEnd="-9999999/1" timeRangeDuration="0/1" interpolaterName=""  />
               </ZoomPanKeyframes>
              </ZoomPanBin>
             </Entry>
             <Entry key="CursorEffectBin">
              <CursorEffectBin id="1294"  >
               <CursorEffectKeyframes>
               </CursorEffectKeyframes>
              </CursorEffectBin>
             </Entry>
            </ExtraData>
           </ScreenVMFile>
           <ScreenVMFile id="1295" start="7522" duration="174" scalar="1/1" mediaStart="10119/1" mediaDuration="174/1" trackNumber="0" src="4" >
            <Transformer>
             <VectorParam id="1296"  name="translation">
              <InterpolatingParam id="1297" interp="linr"  time="-9999999/1" value="0" leadInLength="0/1"  />
              <InterpolatingParam id="1298" interp="linr"  time="-9999999/1" value="0" leadInLength="0/1"  />
              <InterpolatingParam id="1299" interp="linr"  time="-9999999/1" value="0" leadInLength="0/1"  />
             </VectorParam>
             <VectorParam id="1300"  name="rotation">
              <InterpolatingParam id="1301" interp="linr"  time="-9999999/1" value="0" leadInLength="0/1"  />
              <InterpolatingParam id="1302" interp="linr"  time="-9999999/1" value="0" leadInLength="0/1"  />
              <InterpolatingParam id="1303" interp="linr"  time="-9999999/1" value="0" leadInLength="0/1"  />
             </VectorParam>
             <VectorParam id="1304"  name="shear">
              <InterpolatingParam id="1305" interp="linr"  time="-9999999/1" value="0" leadInLength="0/1"  />
              <InterpolatingParam id="1306" interp="linr"  time="-9999999/1" value="0" leadInLength="0/1"  />
              <InterpolatingParam id="1307" interp="linr"  time="-9999999/1" value="0" leadInLength="0/1"  />
             </VectorParam>
             <VectorParam id="1308"  name="scale">
              <InterpolatingParam id="1309" interp="linr"  time="-9999999/1" value="1" leadInLength="0/1"  />
              <InterpolatingParam id="1310" interp="linr"  time="-9999999/1" value="1" leadInLength="0/1"  />
              <InterpolatingParam id="1311" interp="linr"  time="-9999999/1" value="1" leadInLength="0/1"  />
             </VectorParam>
             <VectorParam id="1312"  name="anchor">
              <InterpolatingParam id="1313" interp="linr"  time="0/1" value="0" leadInLength="0/1"  />
              <InterpolatingParam id="1314" interp="linr"  time="0/1" value="0" leadInLength="0/1"  />
              <InterpolatingParam id="1315" interp="linr"  time="0/1" value="0" leadInLength="0/1"  />
             </VectorParam>
            </Transformer>
            <Parameters>
             <VectorParam id="1316"  name="sourceCrop">
              <InterpolatingParam id="1317" interp="linr"  time="0/1" value="0" leadInLength="0/1"  />
              <InterpolatingParam id="1318" interp="linr"  time="0/1" value="0" leadInLength="0/1"  />
              <InterpolatingParam id="1319" interp="linr"  time="0/1" value="0" leadInLength="0/1"  />
              <InterpolatingParam id="1320" interp="linr"  time="0/1" value="0" leadInLength="0/1"  />
             </VectorParam>
             <VectorParam id="1321"  name="geometryCrop">
              <InterpolatingParam id="1322" interp="linr"  time="-9999999/1" value="0" leadInLength="0/1"  />
              <InterpolatingParam id="1323" interp="linr"  time="-9999999/1" value="0" leadInLength="0/1"  />
              <InterpolatingParam id="1324" interp="linr"  time="-9999999/1" value="0" leadInLength="0/1"  />
              <InterpolatingParam id="1325" interp="linr"  time="-9999999/1" value="0" leadInLength="0/1"  />
             </VectorParam>
             <InterpolatingParam id="1326" interp="linr"  time="-9999999/1" value="1" leadInLength="0/1"  name="opacity"/>
             <InterpolatingParam id="1327" interp="linr"  time="0/1" value="0" leadInLength="0/1"  name="cursorOpacity"/>
             <InterpolatingParam id="1328" interp="linr"  time="0/1" value="0" leadInLength="0/1"  name="cursorScale"/>
            </Parameters>
            <Attributes>
             <Attribute id="1329" value="" name="ident"/>
            </Attributes>
            <MetaData>
             <entry key="AutoAppliedSmartFocus" val="False"/>
             <entry key="WinSubProjectDisplayName" val=""/>
            </MetaData>
            <ExtraData>
             <Entry key="ZoomPanBin">
              <ZoomPanBin id="1330"  >
               <ZoomPanKeyframes>
                <ZoomPanKeyframe id="1331" timeRangeEnd="-9999999/1" timeRangeDuration="0/1" interpolaterName=""  />
               </ZoomPanKeyframes>
              </ZoomPanBin>
             </Entry>
             <Entry key="CursorEffectBin">
              <CursorEffectBin id="1332"  >
               <CursorEffectKeyframes>
               </CursorEffectKeyframes>
              </CursorEffectBin>
             </Entry>
            </ExtraData>
           </ScreenVMFile>
           <ScreenVMFile id="1333" start="7696" duration="3860" scalar="1/1" mediaStart="10320/1" mediaDuration="3860/1" trackNumber="0" src="4" >
            <Transformer>
             <VectorParam id="1334"  name="translation">
              <InterpolatingParam id="1335" interp="linr"  time="-9999999/1" value="0" leadInLength="0/1"  />
              <InterpolatingParam id="1336" interp="linr"  time="-9999999/1" value="0" leadInLength="0/1"  />
              <InterpolatingParam id="1337" interp="linr"  time="-9999999/1" value="0" leadInLength="0/1"  />
             </VectorParam>
             <VectorParam id="1338"  name="rotation">
              <InterpolatingParam id="1339" interp="linr"  time="-9999999/1" value="0" leadInLength="0/1"  />
              <InterpolatingParam id="1340" interp="linr"  time="-9999999/1" value="0" leadInLength="0/1"  />
              <InterpolatingParam id="1341" interp="linr"  time="-9999999/1" value="0" leadInLength="0/1"  />
             </VectorParam>
             <VectorParam id="1342"  name="shear">
              <InterpolatingParam id="1343" interp="linr"  time="-9999999/1" value="0" leadInLength="0/1"  />
              <InterpolatingParam id="1344" interp="linr"  time="-9999999/1" value="0" leadInLength="0/1"  />
              <InterpolatingParam id="1345" interp="linr"  time="-9999999/1" value="0" leadInLength="0/1"  />
             </VectorParam>
             <VectorParam id="1346"  name="scale">
              <InterpolatingParam id="1347" interp="linr"  time="-9999999/1" value="1" leadInLength="0/1"  />
              <InterpolatingParam id="1348" interp="linr"  time="-9999999/1" value="1" leadInLength="0/1"  />
              <InterpolatingParam id="1349" interp="linr"  time="-9999999/1" value="1" leadInLength="0/1"  />
             </VectorParam>
             <VectorParam id="1350"  name="anchor">
              <InterpolatingParam id="1351" interp="linr"  time="0/1" value="0" leadInLength="0/1"  />
              <InterpolatingParam id="1352" interp="linr"  time="0/1" value="0" leadInLength="0/1"  />
              <InterpolatingParam id="1353" interp="linr"  time="0/1" value="0" leadInLength="0/1"  />
             </VectorParam>
            </Transformer>
            <Parameters>
             <VectorParam id="1354"  name="sourceCrop">
              <InterpolatingParam id="1355" interp="linr"  time="0/1" value="0" leadInLength="0/1"  />
              <InterpolatingParam id="1356" interp="linr"  time="0/1" value="0" leadInLength="0/1"  />
              <InterpolatingParam id="1357" interp="linr"  time="0/1" value="0" leadInLength="0/1"  />
              <InterpolatingParam id="1358" interp="linr"  time="0/1" value="0" leadInLength="0/1"  />
             </VectorParam>
             <VectorParam id="1359"  name="geometryCrop">
              <InterpolatingParam id="1360" interp="linr"  time="-9999999/1" value="0" leadInLength="0/1"  />
              <InterpolatingParam id="1361" interp="linr"  time="-9999999/1" value="0" leadInLength="0/1"  />
              <InterpolatingParam id="1362" interp="linr"  time="-9999999/1" value="0" leadInLength="0/1"  />
              <InterpolatingParam id="1363" interp="linr"  time="-9999999/1" value="0" leadInLength="0/1"  />
             </VectorParam>
             <InterpolatingParam id="1364" interp="linr"  time="-9999999/1" value="1" leadInLength="0/1"  name="opacity"/>
             <InterpolatingParam id="1365" interp="linr"  time="0/1" value="0" leadInLength="0/1"  name="cursorOpacity"/>
             <InterpolatingParam id="1366" interp="linr"  time="0/1" value="0" leadInLength="0/1"  name="cursorScale"/>
            </Parameters>
            <Attributes>
             <Attribute id="1367" value="" name="ident"/>
            </Attributes>
            <MetaData>
             <entry key="AutoAppliedSmartFocus" val="False"/>
             <entry key="WinSubProjectDisplayName" val=""/>
            </MetaData>
            <ExtraData>
             <Entry key="ZoomPanBin">
              <ZoomPanBin id="1368"  >
               <ZoomPanKeyframes>
                <ZoomPanKeyframe id="1369" timeRangeEnd="-9999999/1" timeRangeDuration="0/1" interpolaterName=""  />
               </ZoomPanKeyframes>
              </ZoomPanBin>
             </Entry>
             <Entry key="CursorEffectBin">
              <CursorEffectBin id="1370"  >
               <CursorEffectKeyframes>
               </CursorEffectKeyframes>
              </CursorEffectBin>
             </Entry>
            </ExtraData>
           </ScreenVMFile>
           <ScreenVMFile id="1371" start="11556" duration="117" scalar="1/1" mediaStart="15698/1" mediaDuration="117/1" trackNumber="0" src="4" >
            <Transformer>
             <VectorParam id="1372"  name="translation">
              <InterpolatingParam id="1373" interp="linr"  time="-9999999/1" value="0" leadInLength="0/1"  />
              <InterpolatingParam id="1374" interp="linr"  time="-9999999/1" value="0" leadInLength="0/1"  />
              <InterpolatingParam id="1375" interp="linr"  time="-9999999/1" value="0" leadInLength="0/1"  />
             </VectorParam>
             <VectorParam id="1376"  name="rotation">
              <InterpolatingParam id="1377" interp="linr"  time="-9999999/1" value="0" leadInLength="0/1"  />
              <InterpolatingParam id="1378" interp="linr"  time="-9999999/1" value="0" leadInLength="0/1"  />
              <InterpolatingParam id="1379" interp="linr"  time="-9999999/1" value="0" leadInLength="0/1"  />
             </VectorParam>
             <VectorParam id="1380"  name="shear">
              <InterpolatingParam id="1381" interp="linr"  time="-9999999/1" value="0" leadInLength="0/1"  />
              <InterpolatingParam id="1382" interp="linr"  time="-9999999/1" value="0" leadInLength="0/1"  />
              <InterpolatingParam id="1383" interp="linr"  time="-9999999/1" value="0" leadInLength="0/1"  />
             </VectorParam>
             <VectorParam id="1384"  name="scale">
              <InterpolatingParam id="1385" interp="linr"  time="-9999999/1" value="1" leadInLength="0/1"  />
              <InterpolatingParam id="1386" interp="linr"  time="-9999999/1" value="1" leadInLength="0/1"  />
              <InterpolatingParam id="1387" interp="linr"  time="-9999999/1" value="1" leadInLength="0/1"  />
             </VectorParam>
             <VectorParam id="1388"  name="anchor">
              <InterpolatingParam id="1389" interp="linr"  time="0/1" value="0" leadInLength="0/1"  />
              <InterpolatingParam id="1390" interp="linr"  time="0/1" value="0" leadInLength="0/1"  />
              <InterpolatingParam id="1391" interp="linr"  time="0/1" value="0" leadInLength="0/1"  />
             </VectorParam>
            </Transformer>
            <Parameters>
             <VectorParam id="1392"  name="sourceCrop">
              <InterpolatingParam id="1393" interp="linr"  time="0/1" value="0" leadInLength="0/1"  />
              <InterpolatingParam id="1394" interp="linr"  time="0/1" value="0" leadInLength="0/1"  />
              <InterpolatingParam id="1395" interp="linr"  time="0/1" value="0" leadInLength="0/1"  />
              <InterpolatingParam id="1396" interp="linr"  time="0/1" value="0" leadInLength="0/1"  />
             </VectorParam>
             <VectorParam id="1397"  name="geometryCrop">
              <InterpolatingParam id="1398" interp="linr"  time="-9999999/1" value="0" leadInLength="0/1"  />
              <InterpolatingParam id="1399" interp="linr"  time="-9999999/1" value="0" leadInLength="0/1"  />
              <InterpolatingParam id="1400" interp="linr"  time="-9999999/1" value="0" leadInLength="0/1"  />
              <InterpolatingParam id="1401" interp="linr"  time="-9999999/1" value="0" leadInLength="0/1"  />
             </VectorParam>
             <InterpolatingParam id="1402" interp="linr"  time="-9999999/1" value="1" leadInLength="0/1"  name="opacity"/>
             <InterpolatingParam id="1403" interp="linr"  time="0/1" value="0" leadInLength="0/1"  name="cursorOpacity"/>
             <InterpolatingParam id="1404" interp="linr"  time="0/1" value="0" leadInLength="0/1"  name="cursorScale"/>
            </Parameters>
            <Attributes>
             <Attribute id="1405" value="" name="ident"/>
            </Attributes>
            <MetaData>
             <entry key="AutoAppliedSmartFocus" val="False"/>
             <entry key="WinSubProjectDisplayName" val=""/>
            </MetaData>
            <ExtraData>
             <Entry key="ZoomPanBin">
              <ZoomPanBin id="1406"  >
               <ZoomPanKeyframes>
                <ZoomPanKeyframe id="1407" timeRangeEnd="-9999999/1" timeRangeDuration="0/1" interpolaterName=""  />
               </ZoomPanKeyframes>
              </ZoomPanBin>
             </Entry>
             <Entry key="CursorEffectBin">
              <CursorEffectBin id="1408"  >
               <CursorEffectKeyframes>
               </CursorEffectKeyframes>
              </CursorEffectBin>
             </Entry>
            </ExtraData>
           </ScreenVMFile>
           <ScreenVMFile id="1409" start="11673" duration="3159" scalar="1/1" mediaStart="16069/1" mediaDuration="3159/1" trackNumber="0" src="4" >
            <Transformer>
             <VectorParam id="1410"  name="translation">
              <InterpolatingParam id="1411" interp="linr"  time="-9999999/1" value="0" leadInLength="0/1"  />
              <InterpolatingParam id="1412" interp="linr"  time="-9999999/1" value="0" leadInLength="0/1"  />
              <InterpolatingParam id="1413" interp="linr"  time="-9999999/1" value="0" leadInLength="0/1"  />
             </VectorParam>
             <VectorParam id="1414"  name="rotation">
              <InterpolatingParam id="1415" interp="linr"  time="-9999999/1" value="0" leadInLength="0/1"  />
              <InterpolatingParam id="1416" interp="linr"  time="-9999999/1" value="0" leadInLength="0/1"  />
              <InterpolatingParam id="1417" interp="linr"  time="-9999999/1" value="0" leadInLength="0/1"  />
             </VectorParam>
             <VectorParam id="1418"  name="shear">
              <InterpolatingParam id="1419" interp="linr"  time="-9999999/1" value="0" leadInLength="0/1"  />
              <InterpolatingParam id="1420" interp="linr"  time="-9999999/1" value="0" leadInLength="0/1"  />
              <InterpolatingParam id="1421" interp="linr"  time="-9999999/1" value="0" leadInLength="0/1"  />
             </VectorParam>
             <VectorParam id="1422"  name="scale">
              <InterpolatingParam id="1423" interp="linr"  time="-9999999/1" value="1" leadInLength="0/1"  />
              <InterpolatingParam id="1424" interp="linr"  time="-9999999/1" value="1" leadInLength="0/1"  />
              <InterpolatingParam id="1425" interp="linr"  time="-9999999/1" value="1" leadInLength="0/1"  />
             </VectorParam>
             <VectorParam id="1426"  name="anchor">
              <InterpolatingParam id="1427" interp="linr"  time="0/1" value="0" leadInLength="0/1"  />
              <InterpolatingParam id="1428" interp="linr"  time="0/1" value="0" leadInLength="0/1"  />
              <InterpolatingParam id="1429" interp="linr"  time="0/1" value="0" leadInLength="0/1"  />
             </VectorParam>
            </Transformer>
            <Parameters>
             <VectorParam id="1430"  name="sourceCrop">
              <InterpolatingParam id="1431" interp="linr"  time="0/1" value="0" leadInLength="0/1"  />
              <InterpolatingParam id="1432" interp="linr"  time="0/1" value="0" leadInLength="0/1"  />
              <InterpolatingParam id="1433" interp="linr"  time="0/1" value="0" leadInLength="0/1"  />
              <InterpolatingParam id="1434" interp="linr"  time="0/1" value="0" leadInLength="0/1"  />
             </VectorParam>
             <VectorParam id="1435"  name="geometryCrop">
              <InterpolatingParam id="1436" interp="linr"  time="-9999999/1" value="0" leadInLength="0/1"  />
              <InterpolatingParam id="1437" interp="linr"  time="-9999999/1" value="0" leadInLength="0/1"  />
              <InterpolatingParam id="1438" interp="linr"  time="-9999999/1" value="0" leadInLength="0/1"  />
              <InterpolatingParam id="1439" interp="linr"  time="-9999999/1" value="0" leadInLength="0/1"  />
             </VectorParam>
             <InterpolatingParam id="1440" interp="linr"  time="-9999999/1" value="1" leadInLength="0/1"  name="opacity"/>
             <InterpolatingParam id="1441" interp="linr"  time="0/1" value="0" leadInLength="0/1"  name="cursorOpacity"/>
             <InterpolatingParam id="1442" interp="linr"  time="0/1" value="0" leadInLength="0/1"  name="cursorScale"/>
            </Parameters>
            <Attributes>
             <Attribute id="1443" value="" name="ident"/>
            </Attributes>
            <MetaData>
             <entry key="AutoAppliedSmartFocus" val="False"/>
             <entry key="WinSubProjectDisplayName" val=""/>
            </MetaData>
            <ExtraData>
             <Entry key="ZoomPanBin">
              <ZoomPanBin id="1444"  >
               <ZoomPanKeyframes>
                <ZoomPanKeyframe id="1445" timeRangeEnd="-9999999/1" timeRangeDuration="0/1" interpolaterName=""  />
               </ZoomPanKeyframes>
              </ZoomPanBin>
             </Entry>
             <Entry key="CursorEffectBin">
              <CursorEffectBin id="1446"  >
               <CursorEffectKeyframes>
               </CursorEffectKeyframes>
              </CursorEffectBin>
             </Entry>
            </ExtraData>
           </ScreenVMFile>
           <ScreenVMFile id="1447" start="14832" duration="176" scalar="1/1" mediaStart="19518/1" mediaDuration="176/1" trackNumber="0" src="4" >
            <Transformer>
             <VectorParam id="1448"  name="translation">
              <InterpolatingParam id="1449" interp="linr"  time="-9999999/1" value="0" leadInLength="0/1"  />
              <InterpolatingParam id="1450" interp="linr"  time="-9999999/1" value="0" leadInLength="0/1"  />
              <InterpolatingParam id="1451" interp="linr"  time="-9999999/1" value="0" leadInLength="0/1"  />
             </VectorParam>
             <VectorParam id="1452"  name="rotation">
              <InterpolatingParam id="1453" interp="linr"  time="-9999999/1" value="0" leadInLength="0/1"  />
              <InterpolatingParam id="1454" interp="linr"  time="-9999999/1" value="0" leadInLength="0/1"  />
              <InterpolatingParam id="1455" interp="linr"  time="-9999999/1" value="0" leadInLength="0/1"  />
             </VectorParam>
             <VectorParam id="1456"  name="shear">
              <InterpolatingParam id="1457" interp="linr"  time="-9999999/1" value="0" leadInLength="0/1"  />
              <InterpolatingParam id="1458" interp="linr"  time="-9999999/1" value="0" leadInLength="0/1"  />
              <InterpolatingParam id="1459" interp="linr"  time="-9999999/1" value="0" leadInLength="0/1"  />
             </VectorParam>
             <VectorParam id="1460"  name="scale">
              <InterpolatingParam id="1461" interp="linr"  time="-9999999/1" value="1" leadInLength="0/1"  />
              <InterpolatingParam id="1462" interp="linr"  time="-9999999/1" value="1" leadInLength="0/1"  />
              <InterpolatingParam id="1463" interp="linr"  time="-9999999/1" value="1" leadInLength="0/1"  />
             </VectorParam>
             <VectorParam id="1464"  name="anchor">
              <InterpolatingParam id="1465" interp="linr"  time="0/1" value="0" leadInLength="0/1"  />
              <InterpolatingParam id="1466" interp="linr"  time="0/1" value="0" leadInLength="0/1"  />
              <InterpolatingParam id="1467" interp="linr"  time="0/1" value="0" leadInLength="0/1"  />
             </VectorParam>
            </Transformer>
            <Parameters>
             <VectorParam id="1468"  name="sourceCrop">
              <InterpolatingParam id="1469" interp="linr"  time="0/1" value="0" leadInLength="0/1"  />
              <InterpolatingParam id="1470" interp="linr"  time="0/1" value="0" leadInLength="0/1"  />
              <InterpolatingParam id="1471" interp="linr"  time="0/1" value="0" leadInLength="0/1"  />
              <InterpolatingParam id="1472" interp="linr"  time="0/1" value="0" leadInLength="0/1"  />
             </VectorParam>
             <VectorParam id="1473"  name="geometryCrop">
              <InterpolatingParam id="1474" interp="linr"  time="-9999999/1" value="0" leadInLength="0/1"  />
              <InterpolatingParam id="1475" interp="linr"  time="-9999999/1" value="0" leadInLength="0/1"  />
              <InterpolatingParam id="1476" interp="linr"  time="-9999999/1" value="0" leadInLength="0/1"  />
              <InterpolatingParam id="1477" interp="linr"  time="-9999999/1" value="0" leadInLength="0/1"  />
             </VectorParam>
             <InterpolatingParam id="1478" interp="linr"  time="-9999999/1" value="1" leadInLength="0/1"  name="opacity"/>
             <InterpolatingParam id="1479" interp="linr"  time="0/1" value="0" leadInLength="0/1"  name="cursorOpacity"/>
             <InterpolatingParam id="1480" interp="linr"  time="0/1" value="0" leadInLength="0/1"  name="cursorScale"/>
            </Parameters>
            <Attributes>
             <Attribute id="1481" value="" name="ident"/>
            </Attributes>
            <MetaData>
             <entry key="AutoAppliedSmartFocus" val="False"/>
             <entry key="WinSubProjectDisplayName" val=""/>
            </MetaData>
            <ExtraData>
             <Entry key="ZoomPanBin">
              <ZoomPanBin id="1482"  >
               <ZoomPanKeyframes>
                <ZoomPanKeyframe id="1483" timeRangeEnd="-9999999/1" timeRangeDuration="0/1" interpolaterName=""  />
               </ZoomPanKeyframes>
              </ZoomPanBin>
             </Entry>
             <Entry key="CursorEffectBin">
              <CursorEffectBin id="1484"  >
               <CursorEffectKeyframes>
               </CursorEffectKeyframes>
              </CursorEffectBin>
             </Entry>
            </ExtraData>
           </ScreenVMFile>
          </Medias>
         </GenericTrack>
        </StitchedMedia>
       </Medias>
      </GenericTrack>
      <GenericTrack id="1485"  >
       <Attributes>
        <Attribute id="1486" value="" name="ident"/>
        <Attribute id="1487" value="0" name="audioMuted"/>
        <Attribute id="1488" value="0" name="videoHidden"/>
       </Attributes>
       <MetaData>
        <entry key="IsLocked" val="False"/>
        <entry key="WinTrackHeight" val="62"/>
       </MetaData>
       <Medias>
        <StitchedMedia id="1489" start="0" duration="10595" scalar="1/1" mediaStart="0/1" mediaDuration="10595/1" minMediaStart="0/1" >
         <Transformer>
          <VectorParam id="1490"  name="translation">
           <InterpolatingParam id="1491" interp="linr"  time="-9999999/1" value="-6.2539773359987416e-011" leadInLength="0/1"  interpolater="leadin-linr"  />
           <InterpolatingParam id="1492" interp="linr"  time="-9999999/1" value="-33.833024017254765" leadInLength="0/1"  interpolater="leadin-linr"  />
           <InterpolatingParam id="1493" interp="linr"  time="-9999999/1" value="0" leadInLength="0/1"  interpolater="leadin-linr"  />
          </VectorParam>
          <VectorParam id="1494"  name="rotation">
           <InterpolatingParam id="1495" interp="linr"  time="-9999999/1" value="0" leadInLength="0/1"  interpolater="leadin-linr"  />
           <InterpolatingParam id="1496" interp="linr"  time="-9999999/1" value="0" leadInLength="0/1"  interpolater="leadin-linr"  />
           <InterpolatingParam id="1497" interp="linr"  time="-9999999/1" value="0" leadInLength="0/1"  interpolater="leadin-linr"  />
          </VectorParam>
          <VectorParam id="1498"  name="shear">
           <InterpolatingParam id="1499" interp="linr"  time="-9999999/1" value="0" leadInLength="0/1"  interpolater="leadin-linr"  />
           <InterpolatingParam id="1500" interp="linr"  time="-9999999/1" value="0" leadInLength="0/1"  interpolater="leadin-linr"  />
           <InterpolatingParam id="1501" interp="linr"  time="-9999999/1" value="0" leadInLength="0/1"  interpolater="leadin-linr"  />
          </VectorParam>
          <VectorParam id="1502"  name="scale">
           <InterpolatingParam id="1503" interp="linr"  time="-9999999/1" value="0.73124999999999996" leadInLength="0/1"  interpolater="leadin-linr"  />
           <InterpolatingParam id="1504" interp="linr"  time="-9999999/1" value="0.73147865853651772" leadInLength="0/1"  interpolater="leadin-linr"  />
           <InterpolatingParam id="1505" interp="linr"  time="-9999999/1" value="1" leadInLength="0/1"  interpolater="leadin-linr"  />
          </VectorParam>
          <VectorParam id="1506"  name="anchor">
           <InterpolatingParam id="1507" interp="linr"  time="0/1" value="0" leadInLength="0/1"  />
           <InterpolatingParam id="1508" interp="linr"  time="0/1" value="0" leadInLength="0/1"  />
           <InterpolatingParam id="1509" interp="linr"  time="0/1" value="0" leadInLength="0/1"  />
          </VectorParam>
         </Transformer>
         <Parameters>
          <VectorParam id="1510"  name="sourceCrop">
           <InterpolatingParam id="1511" interp="linr"  time="0/1" value="0" leadInLength="0/1"  />
           <InterpolatingParam id="1512" interp="linr"  time="0/1" value="0" leadInLength="0/1"  />
           <InterpolatingParam id="1513" interp="linr"  time="0/1" value="0" leadInLength="0/1"  />
           <InterpolatingParam id="1514" interp="linr"  time="0/1" value="0" leadInLength="0/1"  />
          </VectorParam>
          <VectorParam id="1515"  name="geometryCrop">
           <InterpolatingParam id="1516" interp="linr"  time="-9999999/1" value="0" leadInLength="0/1"  interpolater="leadin-linr"  />
           <InterpolatingParam id="1517" interp="linr"  time="-9999999/1" value="0" leadInLength="0/1"  interpolater="leadin-linr"  />
           <InterpolatingParam id="1518" interp="linr"  time="-9999999/1" value="0" leadInLength="0/1"  interpolater="leadin-linr"  />
           <InterpolatingParam id="1519" interp="linr"  time="-9999999/1" value="46.099122132518403" leadInLength="0/1"  interpolater="leadin-linr"  />
          </VectorParam>
          <InterpolatingParam id="1520" interp="linr"  time="-9999999/1" value="1" leadInLength="0/1"  interpolater="leadin-linr"  name="opacity"/>
          <InterpolatingParam id="1521" interp="linr"  time="0/1" value="1" leadInLength="0/1"  name="cursorOpacity"/>
          <InterpolatingParam id="1522" interp="linr"  time="0/1" value="1" leadInLength="0/1"  name="cursorScale"/>
          <Parameter id="1523"  name="captions"/>
         </Parameters>
         <Effects>
          <GenericEffect id="1524" name = "CursorBaseEffectName" >
           <Parameters>
           <InterpolatingParam id="1525" interp="linr"  time="-9999999/1" value="1" leadInLength="0/1"   name="cursorSize"/>
           <InterpolatingParam id="1526" interp="linr"  time="-9999999/1" value="0" leadInLength="0/1"   name="highlightBlurRadius"/>
           <InterpolatingParam id="1527" interp="linr"  time="-9999999/1" value="0" leadInLength="0/1"   name="highlightColorBlue"/>
           <InterpolatingParam id="1528" interp="linr"  time="-9999999/1" value="255" leadInLength="0/1"   name="highlightColorGreen"/>
           <InterpolatingParam id="1529" interp="linr"  time="-9999999/1" value="255" leadInLength="0/1"   name="highlightColorRed"/>
           <InterpolatingParam id="1530" interp="linr"  time="-9999999/1" value="5" leadInLength="0/1"   name="highlightFeatherSize"/>
           <InterpolatingParam id="1531" interp="linr"  time="-9999999/1" value="2" leadInLength="0/1"   name="highlightMagnification"/>
           <InterpolatingParam id="1532" interp="linr"  time="-9999999/1" value="60" leadInLength="0/1"   name="highlightOpacity"/>
           <InterpolatingParam id="1533" interp="linr"  time="-9999999/1" value="45" leadInLength="0/1"   name="highlightSize"/>
           <Parameter id="1534"   name="highlightType">
            <Keyframes>
            <Keyframe id="1535"  time="-9999999/1" value="4" leadInLength="0/1"  />
            </Keyframes>
           </Parameter>
           <InterpolatingParam id="1536" interp="linr"  time="-9999999/1" value="0" leadInLength="0/1"   name="leftClickColorBlue"/>
           <InterpolatingParam id="1537" interp="linr"  time="-9999999/1" value="0" leadInLength="0/1"   name="leftClickColorGreen"/>
           <InterpolatingParam id="1538" interp="linr"  time="-9999999/1" value="255" leadInLength="0/1"   name="leftClickColorRed"/>
           <InterpolatingParam id="1539" interp="linr"  time="-9999999/1" value="0.80000000000000004" leadInLength="0/1"   name="leftClickDuration"/>
           <InterpolatingParam id="1540" interp="linr"  time="-9999999/1" value="20" leadInLength="0/1"   name="leftClickSize"/>
           <Parameter id="1541"   name="leftClickSoundFilename">
            <Keyframes>
            <Keyframe id="1542"  time="-9999999/1" value="" leadInLength="0/1"  />
            </Keyframes>
           </Parameter>
           <InterpolatingParam id="1543" interp="linr"  time="-9999999/1" value="1" leadInLength="0/1"   name="leftClickSoundVolume"/>
           <Parameter id="1544"   name="leftClickType">
            <Keyframes>
            <Keyframe id="1545"  time="-9999999/1" value="0" leadInLength="0/1"  />
            </Keyframes>
           </Parameter>
           <InterpolatingParam id="1546" interp="linr"  time="-9999999/1" value="1" leadInLength="0/1"   name="opacity"/>
           <InterpolatingParam id="1547" interp="linr"  time="-9999999/1" value="255" leadInLength="0/1"   name="rightClickColorBlue"/>
           <InterpolatingParam id="1548" interp="linr"  time="-9999999/1" value="0" leadInLength="0/1"   name="rightClickColorGreen"/>
           <InterpolatingParam id="1549" interp="linr"  time="-9999999/1" value="0" leadInLength="0/1"   name="rightClickColorRed"/>
           <InterpolatingParam id="1550" interp="linr"  time="-9999999/1" value="0.80000000000000004" leadInLength="0/1"   name="rightClickDuration"/>
           <InterpolatingParam id="1551" interp="linr"  time="-9999999/1" value="20" leadInLength="0/1"   name="rightClickSize"/>
           <Parameter id="1552"   name="rightClickSoundFilename">
            <Keyframes>
            <Keyframe id="1553"  time="-9999999/1" value="" leadInLength="0/1"  />
            </Keyframes>
           </Parameter>
           <InterpolatingParam id="1554" interp="linr"  time="-9999999/1" value="1" leadInLength="0/1"   name="rightClickSoundVolume"/>
           <Parameter id="1555"   name="rightClickType">
            <Keyframes>
            <Keyframe id="1556"  time="-9999999/1" value="0" leadInLength="0/1"  />
            </Keyframes>
           </Parameter>
           </Parameters>
          </GenericEffect>
         </Effects>
         <Attributes>
          <Attribute id="1557" value="" name="ident"/>
         </Attributes>
         <MetaData>
          <entry key="AutoAppliedSmartFocus" val="False"/>
          <entry key="WinSubProjectDisplayName" val=""/>
         </MetaData>
         <ExtraData>
          <Entry key="ZoomPanBin">
           <ZoomPanBin id="1558"  >
            <ZoomPanKeyframes>
             <ZoomPanKeyframe id="1559" timeRangeEnd="-9999999/1" timeRangeDuration="0/1" interpolaterName="linr"  />
            </ZoomPanKeyframes>
           </ZoomPanBin>
          </Entry>
          <Entry key="CursorEffectBin">
           <CursorEffectBin id="1560"  >
            <CursorEffectKeyframes>
             <CursorEffectKeyframe id="1561" timeRangeEnd="-9999999/1" timeRangeDuration="0/1" interpolaterName=""  />
            </CursorEffectKeyframes>
           </CursorEffectBin>
          </Entry>
         </ExtraData>
         <GenericTrack id="1562"  >
          <Attributes>
           <Attribute id="1563" value="" name="ident"/>
           <Attribute id="1564" value="0" name="audioMuted"/>
           <Attribute id="1565" value="0" name="videoHidden"/>
          </Attributes>
          <MetaData>
           <entry key="IsLocked" val="False"/>
           <entry key="WinTrackHeight" val="0"/>
          </MetaData>
          <Medias>
           <ScreenVMFile id="1566" start="0" duration="753" scalar="1/1" mediaStart="0/1" mediaDuration="753/1" trackNumber="0" src="4" >
            <Transformer>
             <VectorParam id="1567"  name="translation">
              <InterpolatingParam id="1568" interp="linr"  time="-9999999/1" value="0" leadInLength="0/1"  />
              <InterpolatingParam id="1569" interp="linr"  time="-9999999/1" value="0" leadInLength="0/1"  />
              <InterpolatingParam id="1570" interp="linr"  time="-9999999/1" value="0" leadInLength="0/1"  />
             </VectorParam>
             <VectorParam id="1571"  name="rotation">
              <InterpolatingParam id="1572" interp="linr"  time="-9999999/1" value="0" leadInLength="0/1"  />
              <InterpolatingParam id="1573" interp="linr"  time="-9999999/1" value="0" leadInLength="0/1"  />
              <InterpolatingParam id="1574" interp="linr"  time="-9999999/1" value="0" leadInLength="0/1"  />
             </VectorParam>
             <VectorParam id="1575"  name="shear">
              <InterpolatingParam id="1576" interp="linr"  time="-9999999/1" value="0" leadInLength="0/1"  />
              <InterpolatingParam id="1577" interp="linr"  time="-9999999/1" value="0" leadInLength="0/1"  />
              <InterpolatingParam id="1578" interp="linr"  time="-9999999/1" value="0" leadInLength="0/1"  />
             </VectorParam>
             <VectorParam id="1579"  name="scale">
              <InterpolatingParam id="1580" interp="linr"  time="-9999999/1" value="1" leadInLength="0/1"  />
              <InterpolatingParam id="1581" interp="linr"  time="-9999999/1" value="1" leadInLength="0/1"  />
              <InterpolatingParam id="1582" interp="linr"  time="-9999999/1" value="1" leadInLength="0/1"  />
             </VectorParam>
             <VectorParam id="1583"  name="anchor">
              <InterpolatingParam id="1584" interp="linr"  time="0/1" value="0" leadInLength="0/1"  />
              <InterpolatingParam id="1585" interp="linr"  time="0/1" value="0" leadInLength="0/1"  />
              <InterpolatingParam id="1586" interp="linr"  time="0/1" value="0" leadInLength="0/1"  />
             </VectorParam>
            </Transformer>
            <Parameters>
             <VectorParam id="1587"  name="sourceCrop">
              <InterpolatingParam id="1588" interp="linr"  time="0/1" value="0" leadInLength="0/1"  />
              <InterpolatingParam id="1589" interp="linr"  time="0/1" value="0" leadInLength="0/1"  />
              <InterpolatingParam id="1590" interp="linr"  time="0/1" value="0" leadInLength="0/1"  />
              <InterpolatingParam id="1591" interp="linr"  time="0/1" value="0" leadInLength="0/1"  />
             </VectorParam>
             <VectorParam id="1592"  name="geometryCrop">
              <InterpolatingParam id="1593" interp="linr"  time="-9999999/1" value="0" leadInLength="0/1"  />
              <InterpolatingParam id="1594" interp="linr"  time="-9999999/1" value="0" leadInLength="0/1"  />
              <InterpolatingParam id="1595" interp="linr"  time="-9999999/1" value="0" leadInLength="0/1"  />
              <InterpolatingParam id="1596" interp="linr"  time="-9999999/1" value="0" leadInLength="0/1"  />
             </VectorParam>
             <InterpolatingParam id="1597" interp="linr"  time="-9999999/1" value="1" leadInLength="0/1"  name="opacity"/>
             <InterpolatingParam id="1598" interp="linr"  time="0/1" value="0" leadInLength="0/1"  name="cursorOpacity"/>
             <InterpolatingParam id="1599" interp="linr"  time="0/1" value="0" leadInLength="0/1"  name="cursorScale"/>
            </Parameters>
            <Attributes>
             <Attribute id="1600" value="" name="ident"/>
            </Attributes>
            <MetaData>
             <entry key="AutoAppliedSmartFocus" val="False"/>
             <entry key="WinSubProjectDisplayName" val=""/>
            </MetaData>
            <ExtraData>
             <Entry key="ZoomPanBin">
              <ZoomPanBin id="1601"  >
               <ZoomPanKeyframes>
                <ZoomPanKeyframe id="1602" timeRangeEnd="-9999999/1" timeRangeDuration="0/1" interpolaterName=""  />
               </ZoomPanKeyframes>
              </ZoomPanBin>
             </Entry>
             <Entry key="CursorEffectBin">
              <CursorEffectBin id="1603"  >
               <CursorEffectKeyframes>
               </CursorEffectKeyframes>
              </CursorEffectBin>
             </Entry>
            </ExtraData>
           </ScreenVMFile>
           <ScreenVMFile id="1604" start="753" duration="1376" scalar="1/1" mediaStart="821/1" mediaDuration="1376/1" trackNumber="0" src="4" >
            <Transformer>
             <VectorParam id="1605"  name="translation">
              <InterpolatingParam id="1606" interp="linr"  time="-9999999/1" value="0" leadInLength="0/1"  />
              <InterpolatingParam id="1607" interp="linr"  time="-9999999/1" value="0" leadInLength="0/1"  />
              <InterpolatingParam id="1608" interp="linr"  time="-9999999/1" value="0" leadInLength="0/1"  />
             </VectorParam>
             <VectorParam id="1609"  name="rotation">
              <InterpolatingParam id="1610" interp="linr"  time="-9999999/1" value="0" leadInLength="0/1"  />
              <InterpolatingParam id="1611" interp="linr"  time="-9999999/1" value="0" leadInLength="0/1"  />
              <InterpolatingParam id="1612" interp="linr"  time="-9999999/1" value="0" leadInLength="0/1"  />
             </VectorParam>
             <VectorParam id="1613"  name="shear">
              <InterpolatingParam id="1614" interp="linr"  time="-9999999/1" value="0" leadInLength="0/1"  />
              <InterpolatingParam id="1615" interp="linr"  time="-9999999/1" value="0" leadInLength="0/1"  />
              <InterpolatingParam id="1616" interp="linr"  time="-9999999/1" value="0" leadInLength="0/1"  />
             </VectorParam>
             <VectorParam id="1617"  name="scale">
              <InterpolatingParam id="1618" interp="linr"  time="-9999999/1" value="1" leadInLength="0/1"  />
              <InterpolatingParam id="1619" interp="linr"  time="-9999999/1" value="1" leadInLength="0/1"  />
              <InterpolatingParam id="1620" interp="linr"  time="-9999999/1" value="1" leadInLength="0/1"  />
             </VectorParam>
             <VectorParam id="1621"  name="anchor">
              <InterpolatingParam id="1622" interp="linr"  time="0/1" value="0" leadInLength="0/1"  />
              <InterpolatingParam id="1623" interp="linr"  time="0/1" value="0" leadInLength="0/1"  />
              <InterpolatingParam id="1624" interp="linr"  time="0/1" value="0" leadInLength="0/1"  />
             </VectorParam>
            </Transformer>
            <Parameters>
             <VectorParam id="1625"  name="sourceCrop">
              <InterpolatingParam id="1626" interp="linr"  time="0/1" value="0" leadInLength="0/1"  />
              <InterpolatingParam id="1627" interp="linr"  time="0/1" value="0" leadInLength="0/1"  />
              <InterpolatingParam id="1628" interp="linr"  time="0/1" value="0" leadInLength="0/1"  />
              <InterpolatingParam id="1629" interp="linr"  time="0/1" value="0" leadInLength="0/1"  />
             </VectorParam>
             <VectorParam id="1630"  name="geometryCrop">
              <InterpolatingParam id="1631" interp="linr"  time="-9999999/1" value="0" leadInLength="0/1"  />
              <InterpolatingParam id="1632" interp="linr"  time="-9999999/1" value="0" leadInLength="0/1"  />
              <InterpolatingParam id="1633" interp="linr"  time="-9999999/1" value="0" leadInLength="0/1"  />
              <InterpolatingParam id="1634" interp="linr"  time="-9999999/1" value="0" leadInLength="0/1"  />
             </VectorParam>
             <InterpolatingParam id="1635" interp="linr"  time="-9999999/1" value="1" leadInLength="0/1"  name="opacity"/>
             <InterpolatingParam id="1636" interp="linr"  time="0/1" value="0" leadInLength="0/1"  name="cursorOpacity"/>
             <InterpolatingParam id="1637" interp="linr"  time="0/1" value="0" leadInLength="0/1"  name="cursorScale"/>
            </Parameters>
            <Attributes>
             <Attribute id="1638" value="" name="ident"/>
            </Attributes>
            <MetaData>
             <entry key="AutoAppliedSmartFocus" val="False"/>
             <entry key="WinSubProjectDisplayName" val=""/>
            </MetaData>
            <ExtraData>
             <Entry key="ZoomPanBin">
              <ZoomPanBin id="1639"  >
               <ZoomPanKeyframes>
                <ZoomPanKeyframe id="1640" timeRangeEnd="-9999999/1" timeRangeDuration="0/1" interpolaterName=""  />
               </ZoomPanKeyframes>
              </ZoomPanBin>
             </Entry>
             <Entry key="CursorEffectBin">
              <CursorEffectBin id="1641"  >
               <CursorEffectKeyframes>
               </CursorEffectKeyframes>
              </CursorEffectBin>
             </Entry>
            </ExtraData>
           </ScreenVMFile>
           <ScreenVMFile id="1642" start="2129" duration="803" scalar="1/1" mediaStart="2235/1" mediaDuration="803/1" trackNumber="0" src="4" >
            <Transformer>
             <VectorParam id="1643"  name="translation">
              <InterpolatingParam id="1644" interp="linr"  time="-9999999/1" value="0" leadInLength="0/1"  />
              <InterpolatingParam id="1645" interp="linr"  time="-9999999/1" value="0" leadInLength="0/1"  />
              <InterpolatingParam id="1646" interp="linr"  time="-9999999/1" value="0" leadInLength="0/1"  />
             </VectorParam>
             <VectorParam id="1647"  name="rotation">
              <InterpolatingParam id="1648" interp="linr"  time="-9999999/1" value="0" leadInLength="0/1"  />
              <InterpolatingParam id="1649" interp="linr"  time="-9999999/1" value="0" leadInLength="0/1"  />
              <InterpolatingParam id="1650" interp="linr"  time="-9999999/1" value="0" leadInLength="0/1"  />
             </VectorParam>
             <VectorParam id="1651"  name="shear">
              <InterpolatingParam id="1652" interp="linr"  time="-9999999/1" value="0" leadInLength="0/1"  />
              <InterpolatingParam id="1653" interp="linr"  time="-9999999/1" value="0" leadInLength="0/1"  />
              <InterpolatingParam id="1654" interp="linr"  time="-9999999/1" value="0" leadInLength="0/1"  />
             </VectorParam>
             <VectorParam id="1655"  name="scale">
              <InterpolatingParam id="1656" interp="linr"  time="-9999999/1" value="1" leadInLength="0/1"  />
              <InterpolatingParam id="1657" interp="linr"  time="-9999999/1" value="1" leadInLength="0/1"  />
              <InterpolatingParam id="1658" interp="linr"  time="-9999999/1" value="1" leadInLength="0/1"  />
             </VectorParam>
             <VectorParam id="1659"  name="anchor">
              <InterpolatingParam id="1660" interp="linr"  time="0/1" value="0" leadInLength="0/1"  />
              <InterpolatingParam id="1661" interp="linr"  time="0/1" value="0" leadInLength="0/1"  />
              <InterpolatingParam id="1662" interp="linr"  time="0/1" value="0" leadInLength="0/1"  />
             </VectorParam>
            </Transformer>
            <Parameters>
             <VectorParam id="1663"  name="sourceCrop">
              <InterpolatingParam id="1664" interp="linr"  time="0/1" value="0" leadInLength="0/1"  />
              <InterpolatingParam id="1665" interp="linr"  time="0/1" value="0" leadInLength="0/1"  />
              <InterpolatingParam id="1666" interp="linr"  time="0/1" value="0" leadInLength="0/1"  />
              <InterpolatingParam id="1667" interp="linr"  time="0/1" value="0" leadInLength="0/1"  />
             </VectorParam>
             <VectorParam id="1668"  name="geometryCrop">
              <InterpolatingParam id="1669" interp="linr"  time="-9999999/1" value="0" leadInLength="0/1"  />
              <InterpolatingParam id="1670" interp="linr"  time="-9999999/1" value="0" leadInLength="0/1"  />
              <InterpolatingParam id="1671" interp="linr"  time="-9999999/1" value="0" leadInLength="0/1"  />
              <InterpolatingParam id="1672" interp="linr"  time="-9999999/1" value="0" leadInLength="0/1"  />
             </VectorParam>
             <InterpolatingParam id="1673" interp="linr"  time="-9999999/1" value="1" leadInLength="0/1"  name="opacity"/>
             <InterpolatingParam id="1674" interp="linr"  time="0/1" value="0" leadInLength="0/1"  name="cursorOpacity"/>
             <InterpolatingParam id="1675" interp="linr"  time="0/1" value="0" leadInLength="0/1"  name="cursorScale"/>
            </Parameters>
            <Attributes>
             <Attribute id="1676" value="" name="ident"/>
            </Attributes>
            <MetaData>
             <entry key="AutoAppliedSmartFocus" val="False"/>
             <entry key="WinSubProjectDisplayName" val=""/>
            </MetaData>
            <ExtraData>
             <Entry key="ZoomPanBin">
              <ZoomPanBin id="1677"  >
               <ZoomPanKeyframes>
                <ZoomPanKeyframe id="1678" timeRangeEnd="-9999999/1" timeRangeDuration="0/1" interpolaterName=""  />
               </ZoomPanKeyframes>
              </ZoomPanBin>
             </Entry>
             <Entry key="CursorEffectBin">
              <CursorEffectBin id="1679"  >
               <CursorEffectKeyframes>
               </CursorEffectKeyframes>
              </CursorEffectBin>
             </Entry>
            </ExtraData>
           </ScreenVMFile>
           <ScreenVMFile id="1680" start="2932" duration="518" scalar="1/1" mediaStart="3458/1" mediaDuration="518/1" trackNumber="0" src="4" >
            <Transformer>
             <VectorParam id="1681"  name="translation">
              <InterpolatingParam id="1682" interp="linr"  time="-9999999/1" value="0" leadInLength="0/1"  />
              <InterpolatingParam id="1683" interp="linr"  time="-9999999/1" value="0" leadInLength="0/1"  />
              <InterpolatingParam id="1684" interp="linr"  time="-9999999/1" value="0" leadInLength="0/1"  />
             </VectorParam>
             <VectorParam id="1685"  name="rotation">
              <InterpolatingParam id="1686" interp="linr"  time="-9999999/1" value="0" leadInLength="0/1"  />
              <InterpolatingParam id="1687" interp="linr"  time="-9999999/1" value="0" leadInLength="0/1"  />
              <InterpolatingParam id="1688" interp="linr"  time="-9999999/1" value="0" leadInLength="0/1"  />
             </VectorParam>
             <VectorParam id="1689"  name="shear">
              <InterpolatingParam id="1690" interp="linr"  time="-9999999/1" value="0" leadInLength="0/1"  />
              <InterpolatingParam id="1691" interp="linr"  time="-9999999/1" value="0" leadInLength="0/1"  />
              <InterpolatingParam id="1692" interp="linr"  time="-9999999/1" value="0" leadInLength="0/1"  />
             </VectorParam>
             <VectorParam id="1693"  name="scale">
              <InterpolatingParam id="1694" interp="linr"  time="-9999999/1" value="1" leadInLength="0/1"  />
              <InterpolatingParam id="1695" interp="linr"  time="-9999999/1" value="1" leadInLength="0/1"  />
              <InterpolatingParam id="1696" interp="linr"  time="-9999999/1" value="1" leadInLength="0/1"  />
             </VectorParam>
             <VectorParam id="1697"  name="anchor">
              <InterpolatingParam id="1698" interp="linr"  time="0/1" value="0" leadInLength="0/1"  />
              <InterpolatingParam id="1699" interp="linr"  time="0/1" value="0" leadInLength="0/1"  />
              <InterpolatingParam id="1700" interp="linr"  time="0/1" value="0" leadInLength="0/1"  />
             </VectorParam>
            </Transformer>
            <Parameters>
             <VectorParam id="1701"  name="sourceCrop">
              <InterpolatingParam id="1702" interp="linr"  time="0/1" value="0" leadInLength="0/1"  />
              <InterpolatingParam id="1703" interp="linr"  time="0/1" value="0" leadInLength="0/1"  />
              <InterpolatingParam id="1704" interp="linr"  time="0/1" value="0" leadInLength="0/1"  />
              <InterpolatingParam id="1705" interp="linr"  time="0/1" value="0" leadInLength="0/1"  />
             </VectorParam>
             <VectorParam id="1706"  name="geometryCrop">
              <InterpolatingParam id="1707" interp="linr"  time="-9999999/1" value="0" leadInLength="0/1"  />
              <InterpolatingParam id="1708" interp="linr"  time="-9999999/1" value="0" leadInLength="0/1"  />
              <InterpolatingParam id="1709" interp="linr"  time="-9999999/1" value="0" leadInLength="0/1"  />
              <InterpolatingParam id="1710" interp="linr"  time="-9999999/1" value="0" leadInLength="0/1"  />
             </VectorParam>
             <InterpolatingParam id="1711" interp="linr"  time="-9999999/1" value="1" leadInLength="0/1"  name="opacity"/>
             <InterpolatingParam id="1712" interp="linr"  time="0/1" value="0" leadInLength="0/1"  name="cursorOpacity"/>
             <InterpolatingParam id="1713" interp="linr"  time="0/1" value="0" leadInLength="0/1"  name="cursorScale"/>
            </Parameters>
            <Attributes>
             <Attribute id="1714" value="" name="ident"/>
            </Attributes>
            <MetaData>
             <entry key="AutoAppliedSmartFocus" val="False"/>
             <entry key="WinSubProjectDisplayName" val=""/>
            </MetaData>
            <ExtraData>
             <Entry key="ZoomPanBin">
              <ZoomPanBin id="1715"  >
               <ZoomPanKeyframes>
                <ZoomPanKeyframe id="1716" timeRangeEnd="-9999999/1" timeRangeDuration="0/1" interpolaterName=""  />
               </ZoomPanKeyframes>
              </ZoomPanBin>
             </Entry>
             <Entry key="CursorEffectBin">
              <CursorEffectBin id="1717"  >
               <CursorEffectKeyframes>
               </CursorEffectKeyframes>
              </CursorEffectBin>
             </Entry>
            </ExtraData>
           </ScreenVMFile>
           <ScreenVMFile id="1718" start="3450" duration="954" scalar="1/1" mediaStart="4994/1" mediaDuration="954/1" trackNumber="0" src="4" >
            <Transformer>
             <VectorParam id="1719"  name="translation">
              <InterpolatingParam id="1720" interp="linr"  time="-9999999/1" value="0" leadInLength="0/1"  />
              <InterpolatingParam id="1721" interp="linr"  time="-9999999/1" value="0" leadInLength="0/1"  />
              <InterpolatingParam id="1722" interp="linr"  time="-9999999/1" value="0" leadInLength="0/1"  />
             </VectorParam>
             <VectorParam id="1723"  name="rotation">
              <InterpolatingParam id="1724" interp="linr"  time="-9999999/1" value="0" leadInLength="0/1"  />
              <InterpolatingParam id="1725" interp="linr"  time="-9999999/1" value="0" leadInLength="0/1"  />
              <InterpolatingParam id="1726" interp="linr"  time="-9999999/1" value="0" leadInLength="0/1"  />
             </VectorParam>
             <VectorParam id="1727"  name="shear">
              <InterpolatingParam id="1728" interp="linr"  time="-9999999/1" value="0" leadInLength="0/1"  />
              <InterpolatingParam id="1729" interp="linr"  time="-9999999/1" value="0" leadInLength="0/1"  />
              <InterpolatingParam id="1730" interp="linr"  time="-9999999/1" value="0" leadInLength="0/1"  />
             </VectorParam>
             <VectorParam id="1731"  name="scale">
              <InterpolatingParam id="1732" interp="linr"  time="-9999999/1" value="1" leadInLength="0/1"  />
              <InterpolatingParam id="1733" interp="linr"  time="-9999999/1" value="1" leadInLength="0/1"  />
              <InterpolatingParam id="1734" interp="linr"  time="-9999999/1" value="1" leadInLength="0/1"  />
             </VectorParam>
             <VectorParam id="1735"  name="anchor">
              <InterpolatingParam id="1736" interp="linr"  time="0/1" value="0" leadInLength="0/1"  />
              <InterpolatingParam id="1737" interp="linr"  time="0/1" value="0" leadInLength="0/1"  />
              <InterpolatingParam id="1738" interp="linr"  time="0/1" value="0" leadInLength="0/1"  />
             </VectorParam>
            </Transformer>
            <Parameters>
             <VectorParam id="1739"  name="sourceCrop">
              <InterpolatingParam id="1740" interp="linr"  time="0/1" value="0" leadInLength="0/1"  />
              <InterpolatingParam id="1741" interp="linr"  time="0/1" value="0" leadInLength="0/1"  />
              <InterpolatingParam id="1742" interp="linr"  time="0/1" value="0" leadInLength="0/1"  />
              <InterpolatingParam id="1743" interp="linr"  time="0/1" value="0" leadInLength="0/1"  />
             </VectorParam>
             <VectorParam id="1744"  name="geometryCrop">
              <InterpolatingParam id="1745" interp="linr"  time="-9999999/1" value="0" leadInLength="0/1"  />
              <InterpolatingParam id="1746" interp="linr"  time="-9999999/1" value="0" leadInLength="0/1"  />
              <InterpolatingParam id="1747" interp="linr"  time="-9999999/1" value="0" leadInLength="0/1"  />
              <InterpolatingParam id="1748" interp="linr"  time="-9999999/1" value="0" leadInLength="0/1"  />
             </VectorParam>
             <InterpolatingParam id="1749" interp="linr"  time="-9999999/1" value="1" leadInLength="0/1"  name="opacity"/>
             <InterpolatingParam id="1750" interp="linr"  time="0/1" value="0" leadInLength="0/1"  name="cursorOpacity"/>
             <InterpolatingParam id="1751" interp="linr"  time="0/1" value="0" leadInLength="0/1"  name="cursorScale"/>
            </Parameters>
            <Attributes>
             <Attribute id="1752" value="" name="ident"/>
            </Attributes>
            <MetaData>
             <entry key="AutoAppliedSmartFocus" val="False"/>
             <entry key="WinSubProjectDisplayName" val=""/>
            </MetaData>
            <ExtraData>
             <Entry key="ZoomPanBin">
              <ZoomPanBin id="1753"  >
               <ZoomPanKeyframes>
                <ZoomPanKeyframe id="1754" timeRangeEnd="-9999999/1" timeRangeDuration="0/1" interpolaterName=""  />
               </ZoomPanKeyframes>
              </ZoomPanBin>
             </Entry>
             <Entry key="CursorEffectBin">
              <CursorEffectBin id="1755"  >
               <CursorEffectKeyframes>
               </CursorEffectKeyframes>
              </CursorEffectBin>
             </Entry>
            </ExtraData>
           </ScreenVMFile>
           <ScreenVMFile id="1756" start="4404" duration="443" scalar="1/1" mediaStart="6053/1" mediaDuration="443/1" trackNumber="0" src="4" >
            <Transformer>
             <VectorParam id="1757"  name="translation">
              <InterpolatingParam id="1758" interp="linr"  time="-9999999/1" value="0" leadInLength="0/1"  />
              <InterpolatingParam id="1759" interp="linr"  time="-9999999/1" value="0" leadInLength="0/1"  />
              <InterpolatingParam id="1760" interp="linr"  time="-9999999/1" value="0" leadInLength="0/1"  />
             </VectorParam>
             <VectorParam id="1761"  name="rotation">
              <InterpolatingParam id="1762" interp="linr"  time="-9999999/1" value="0" leadInLength="0/1"  />
              <InterpolatingParam id="1763" interp="linr"  time="-9999999/1" value="0" leadInLength="0/1"  />
              <InterpolatingParam id="1764" interp="linr"  time="-9999999/1" value="0" leadInLength="0/1"  />
             </VectorParam>
             <VectorParam id="1765"  name="shear">
              <InterpolatingParam id="1766" interp="linr"  time="-9999999/1" value="0" leadInLength="0/1"  />
              <InterpolatingParam id="1767" interp="linr"  time="-9999999/1" value="0" leadInLength="0/1"  />
              <InterpolatingParam id="1768" interp="linr"  time="-9999999/1" value="0" leadInLength="0/1"  />
             </VectorParam>
             <VectorParam id="1769"  name="scale">
              <InterpolatingParam id="1770" interp="linr"  time="-9999999/1" value="1" leadInLength="0/1"  />
              <InterpolatingParam id="1771" interp="linr"  time="-9999999/1" value="1" leadInLength="0/1"  />
              <InterpolatingParam id="1772" interp="linr"  time="-9999999/1" value="1" leadInLength="0/1"  />
             </VectorParam>
             <VectorParam id="1773"  name="anchor">
              <InterpolatingParam id="1774" interp="linr"  time="0/1" value="0" leadInLength="0/1"  />
              <InterpolatingParam id="1775" interp="linr"  time="0/1" value="0" leadInLength="0/1"  />
              <InterpolatingParam id="1776" interp="linr"  time="0/1" value="0" leadInLength="0/1"  />
             </VectorParam>
            </Transformer>
            <Parameters>
             <VectorParam id="1777"  name="sourceCrop">
              <InterpolatingParam id="1778" interp="linr"  time="0/1" value="0" leadInLength="0/1"  />
              <InterpolatingParam id="1779" interp="linr"  time="0/1" value="0" leadInLength="0/1"  />
              <InterpolatingParam id="1780" interp="linr"  time="0/1" value="0" leadInLength="0/1"  />
              <InterpolatingParam id="1781" interp="linr"  time="0/1" value="0" leadInLength="0/1"  />
             </VectorParam>
             <VectorParam id="1782"  name="geometryCrop">
              <InterpolatingParam id="1783" interp="linr"  time="-9999999/1" value="0" leadInLength="0/1"  />
              <InterpolatingParam id="1784" interp="linr"  time="-9999999/1" value="0" leadInLength="0/1"  />
              <InterpolatingParam id="1785" interp="linr"  time="-9999999/1" value="0" leadInLength="0/1"  />
              <InterpolatingParam id="1786" interp="linr"  time="-9999999/1" value="0" leadInLength="0/1"  />
             </VectorParam>
             <InterpolatingParam id="1787" interp="linr"  time="-9999999/1" value="1" leadInLength="0/1"  name="opacity"/>
             <InterpolatingParam id="1788" interp="linr"  time="0/1" value="0" leadInLength="0/1"  name="cursorOpacity"/>
             <InterpolatingParam id="1789" interp="linr"  time="0/1" value="0" leadInLength="0/1"  name="cursorScale"/>
            </Parameters>
            <Attributes>
             <Attribute id="1790" value="" name="ident"/>
            </Attributes>
            <MetaData>
             <entry key="AutoAppliedSmartFocus" val="False"/>
             <entry key="WinSubProjectDisplayName" val=""/>
            </MetaData>
            <ExtraData>
             <Entry key="ZoomPanBin">
              <ZoomPanBin id="1791"  >
               <ZoomPanKeyframes>
                <ZoomPanKeyframe id="1792" timeRangeEnd="-9999999/1" timeRangeDuration="0/1" interpolaterName=""  />
               </ZoomPanKeyframes>
              </ZoomPanBin>
             </Entry>
             <Entry key="CursorEffectBin">
              <CursorEffectBin id="1793"  >
               <CursorEffectKeyframes>
               </CursorEffectKeyframes>
              </CursorEffectBin>
             </Entry>
            </ExtraData>
           </ScreenVMFile>
           <ScreenVMFile id="1794" start="4847" duration="162" scalar="1/1" mediaStart="6920/1" mediaDuration="162/1" trackNumber="0" src="4" >
            <Transformer>
             <VectorParam id="1795"  name="translation">
              <InterpolatingParam id="1796" interp="linr"  time="-9999999/1" value="0" leadInLength="0/1"  />
              <InterpolatingParam id="1797" interp="linr"  time="-9999999/1" value="0" leadInLength="0/1"  />
              <InterpolatingParam id="1798" interp="linr"  time="-9999999/1" value="0" leadInLength="0/1"  />
             </VectorParam>
             <VectorParam id="1799"  name="rotation">
              <InterpolatingParam id="1800" interp="linr"  time="-9999999/1" value="0" leadInLength="0/1"  />
              <InterpolatingParam id="1801" interp="linr"  time="-9999999/1" value="0" leadInLength="0/1"  />
              <InterpolatingParam id="1802" interp="linr"  time="-9999999/1" value="0" leadInLength="0/1"  />
             </VectorParam>
             <VectorParam id="1803"  name="shear">
              <InterpolatingParam id="1804" interp="linr"  time="-9999999/1" value="0" leadInLength="0/1"  />
              <InterpolatingParam id="1805" interp="linr"  time="-9999999/1" value="0" leadInLength="0/1"  />
              <InterpolatingParam id="1806" interp="linr"  time="-9999999/1" value="0" leadInLength="0/1"  />
             </VectorParam>
             <VectorParam id="1807"  name="scale">
              <InterpolatingParam id="1808" interp="linr"  time="-9999999/1" value="1" leadInLength="0/1"  />
              <InterpolatingParam id="1809" interp="linr"  time="-9999999/1" value="1" leadInLength="0/1"  />
              <InterpolatingParam id="1810" interp="linr"  time="-9999999/1" value="1" leadInLength="0/1"  />
             </VectorParam>
             <VectorParam id="1811"  name="anchor">
              <InterpolatingParam id="1812" interp="linr"  time="0/1" value="0" leadInLength="0/1"  />
              <InterpolatingParam id="1813" interp="linr"  time="0/1" value="0" leadInLength="0/1"  />
              <InterpolatingParam id="1814" interp="linr"  time="0/1" value="0" leadInLength="0/1"  />
             </VectorParam>
            </Transformer>
            <Parameters>
             <VectorParam id="1815"  name="sourceCrop">
              <InterpolatingParam id="1816" interp="linr"  time="0/1" value="0" leadInLength="0/1"  />
              <InterpolatingParam id="1817" interp="linr"  time="0/1" value="0" leadInLength="0/1"  />
              <InterpolatingParam id="1818" interp="linr"  time="0/1" value="0" leadInLength="0/1"  />
              <InterpolatingParam id="1819" interp="linr"  time="0/1" value="0" leadInLength="0/1"  />
             </VectorParam>
             <VectorParam id="1820"  name="geometryCrop">
              <InterpolatingParam id="1821" interp="linr"  time="-9999999/1" value="0" leadInLength="0/1"  />
              <InterpolatingParam id="1822" interp="linr"  time="-9999999/1" value="0" leadInLength="0/1"  />
              <InterpolatingParam id="1823" interp="linr"  time="-9999999/1" value="0" leadInLength="0/1"  />
              <InterpolatingParam id="1824" interp="linr"  time="-9999999/1" value="0" leadInLength="0/1"  />
             </VectorParam>
             <InterpolatingParam id="1825" interp="linr"  time="-9999999/1" value="1" leadInLength="0/1"  name="opacity"/>
             <InterpolatingParam id="1826" interp="linr"  time="0/1" value="0" leadInLength="0/1"  name="cursorOpacity"/>
             <InterpolatingParam id="1827" interp="linr"  time="0/1" value="0" leadInLength="0/1"  name="cursorScale"/>
            </Parameters>
            <Attributes>
             <Attribute id="1828" value="" name="ident"/>
            </Attributes>
            <MetaData>
             <entry key="AutoAppliedSmartFocus" val="False"/>
             <entry key="WinSubProjectDisplayName" val=""/>
            </MetaData>
            <ExtraData>
             <Entry key="ZoomPanBin">
              <ZoomPanBin id="1829"  >
               <ZoomPanKeyframes>
                <ZoomPanKeyframe id="1830" timeRangeEnd="-9999999/1" timeRangeDuration="0/1" interpolaterName=""  />
               </ZoomPanKeyframes>
              </ZoomPanBin>
             </Entry>
             <Entry key="CursorEffectBin">
              <CursorEffectBin id="1831"  >
               <CursorEffectKeyframes>
               </CursorEffectKeyframes>
              </CursorEffectBin>
             </Entry>
            </ExtraData>
           </ScreenVMFile>
           <ScreenVMFile id="1832" start="5009" duration="58" scalar="1/1" mediaStart="7393/1" mediaDuration="58/1" trackNumber="0" src="4" >
            <Transformer>
             <VectorParam id="1833"  name="translation">
              <InterpolatingParam id="1834" interp="linr"  time="-9999999/1" value="0" leadInLength="0/1"  />
              <InterpolatingParam id="1835" interp="linr"  time="-9999999/1" value="0" leadInLength="0/1"  />
              <InterpolatingParam id="1836" interp="linr"  time="-9999999/1" value="0" leadInLength="0/1"  />
             </VectorParam>
             <VectorParam id="1837"  name="rotation">
              <InterpolatingParam id="1838" interp="linr"  time="-9999999/1" value="0" leadInLength="0/1"  />
              <InterpolatingParam id="1839" interp="linr"  time="-9999999/1" value="0" leadInLength="0/1"  />
              <InterpolatingParam id="1840" interp="linr"  time="-9999999/1" value="0" leadInLength="0/1"  />
             </VectorParam>
             <VectorParam id="1841"  name="shear">
              <InterpolatingParam id="1842" interp="linr"  time="-9999999/1" value="0" leadInLength="0/1"  />
              <InterpolatingParam id="1843" interp="linr"  time="-9999999/1" value="0" leadInLength="0/1"  />
              <InterpolatingParam id="1844" interp="linr"  time="-9999999/1" value="0" leadInLength="0/1"  />
             </VectorParam>
             <VectorParam id="1845"  name="scale">
              <InterpolatingParam id="1846" interp="linr"  time="-9999999/1" value="1" leadInLength="0/1"  />
              <InterpolatingParam id="1847" interp="linr"  time="-9999999/1" value="1" leadInLength="0/1"  />
              <InterpolatingParam id="1848" interp="linr"  time="-9999999/1" value="1" leadInLength="0/1"  />
             </VectorParam>
             <VectorParam id="1849"  name="anchor">
              <InterpolatingParam id="1850" interp="linr"  time="0/1" value="0" leadInLength="0/1"  />
              <InterpolatingParam id="1851" interp="linr"  time="0/1" value="0" leadInLength="0/1"  />
              <InterpolatingParam id="1852" interp="linr"  time="0/1" value="0" leadInLength="0/1"  />
             </VectorParam>
            </Transformer>
            <Parameters>
             <VectorParam id="1853"  name="sourceCrop">
              <InterpolatingParam id="1854" interp="linr"  time="0/1" value="0" leadInLength="0/1"  />
              <InterpolatingParam id="1855" interp="linr"  time="0/1" value="0" leadInLength="0/1"  />
              <InterpolatingParam id="1856" interp="linr"  time="0/1" value="0" leadInLength="0/1"  />
              <InterpolatingParam id="1857" interp="linr"  time="0/1" value="0" leadInLength="0/1"  />
             </VectorParam>
             <VectorParam id="1858"  name="geometryCrop">
              <InterpolatingParam id="1859" interp="linr"  time="-9999999/1" value="0" leadInLength="0/1"  />
              <InterpolatingParam id="1860" interp="linr"  time="-9999999/1" value="0" leadInLength="0/1"  />
              <InterpolatingParam id="1861" interp="linr"  time="-9999999/1" value="0" leadInLength="0/1"  />
              <InterpolatingParam id="1862" interp="linr"  time="-9999999/1" value="0" leadInLength="0/1"  />
             </VectorParam>
             <InterpolatingParam id="1863" interp="linr"  time="-9999999/1" value="1" leadInLength="0/1"  name="opacity"/>
             <InterpolatingParam id="1864" interp="linr"  time="0/1" value="0" leadInLength="0/1"  name="cursorOpacity"/>
             <InterpolatingParam id="1865" interp="linr"  time="0/1" value="0" leadInLength="0/1"  name="cursorScale"/>
            </Parameters>
            <Attributes>
             <Attribute id="1866" value="" name="ident"/>
            </Attributes>
            <MetaData>
             <entry key="AutoAppliedSmartFocus" val="False"/>
             <entry key="WinSubProjectDisplayName" val=""/>
            </MetaData>
            <ExtraData>
             <Entry key="ZoomPanBin">
              <ZoomPanBin id="1867"  >
               <ZoomPanKeyframes>
                <ZoomPanKeyframe id="1868" timeRangeEnd="-9999999/1" timeRangeDuration="0/1" interpolaterName=""  />
               </ZoomPanKeyframes>
              </ZoomPanBin>
             </Entry>
             <Entry key="CursorEffectBin">
              <CursorEffectBin id="1869"  >
               <CursorEffectKeyframes>
               </CursorEffectKeyframes>
              </CursorEffectBin>
             </Entry>
            </ExtraData>
           </ScreenVMFile>
           <ScreenVMFile id="1870" start="5067" duration="700" scalar="1/1" mediaStart="7474/1" mediaDuration="700/1" trackNumber="0" src="4" >
            <Transformer>
             <VectorParam id="1871"  name="translation">
              <InterpolatingParam id="1872" interp="linr"  time="-9999999/1" value="0" leadInLength="0/1"  />
              <InterpolatingParam id="1873" interp="linr"  time="-9999999/1" value="0" leadInLength="0/1"  />
              <InterpolatingParam id="1874" interp="linr"  time="-9999999/1" value="0" leadInLength="0/1"  />
             </VectorParam>
             <VectorParam id="1875"  name="rotation">
              <InterpolatingParam id="1876" interp="linr"  time="-9999999/1" value="0" leadInLength="0/1"  />
              <InterpolatingParam id="1877" interp="linr"  time="-9999999/1" value="0" leadInLength="0/1"  />
              <InterpolatingParam id="1878" interp="linr"  time="-9999999/1" value="0" leadInLength="0/1"  />
             </VectorParam>
             <VectorParam id="1879"  name="shear">
              <InterpolatingParam id="1880" interp="linr"  time="-9999999/1" value="0" leadInLength="0/1"  />
              <InterpolatingParam id="1881" interp="linr"  time="-9999999/1" value="0" leadInLength="0/1"  />
              <InterpolatingParam id="1882" interp="linr"  time="-9999999/1" value="0" leadInLength="0/1"  />
             </VectorParam>
             <VectorParam id="1883"  name="scale">
              <InterpolatingParam id="1884" interp="linr"  time="-9999999/1" value="1" leadInLength="0/1"  />
              <InterpolatingParam id="1885" interp="linr"  time="-9999999/1" value="1" leadInLength="0/1"  />
              <InterpolatingParam id="1886" interp="linr"  time="-9999999/1" value="1" leadInLength="0/1"  />
             </VectorParam>
             <VectorParam id="1887"  name="anchor">
              <InterpolatingParam id="1888" interp="linr"  time="0/1" value="0" leadInLength="0/1"  />
              <InterpolatingParam id="1889" interp="linr"  time="0/1" value="0" leadInLength="0/1"  />
              <InterpolatingParam id="1890" interp="linr"  time="0/1" value="0" leadInLength="0/1"  />
             </VectorParam>
            </Transformer>
            <Parameters>
             <VectorParam id="1891"  name="sourceCrop">
              <InterpolatingParam id="1892" interp="linr"  time="0/1" value="0" leadInLength="0/1"  />
              <InterpolatingParam id="1893" interp="linr"  time="0/1" value="0" leadInLength="0/1"  />
              <InterpolatingParam id="1894" interp="linr"  time="0/1" value="0" leadInLength="0/1"  />
              <InterpolatingParam id="1895" interp="linr"  time="0/1" value="0" leadInLength="0/1"  />
             </VectorParam>
             <VectorParam id="1896"  name="geometryCrop">
              <InterpolatingParam id="1897" interp="linr"  time="-9999999/1" value="0" leadInLength="0/1"  />
              <InterpolatingParam id="1898" interp="linr"  time="-9999999/1" value="0" leadInLength="0/1"  />
              <InterpolatingParam id="1899" interp="linr"  time="-9999999/1" value="0" leadInLength="0/1"  />
              <InterpolatingParam id="1900" interp="linr"  time="-9999999/1" value="0" leadInLength="0/1"  />
             </VectorParam>
             <InterpolatingParam id="1901" interp="linr"  time="-9999999/1" value="1" leadInLength="0/1"  name="opacity"/>
             <InterpolatingParam id="1902" interp="linr"  time="0/1" value="0" leadInLength="0/1"  name="cursorOpacity"/>
             <InterpolatingParam id="1903" interp="linr"  time="0/1" value="0" leadInLength="0/1"  name="cursorScale"/>
            </Parameters>
            <Attributes>
             <Attribute id="1904" value="" name="ident"/>
            </Attributes>
            <MetaData>
             <entry key="AutoAppliedSmartFocus" val="False"/>
             <entry key="WinSubProjectDisplayName" val=""/>
            </MetaData>
            <ExtraData>
             <Entry key="ZoomPanBin">
              <ZoomPanBin id="1905"  >
               <ZoomPanKeyframes>
                <ZoomPanKeyframe id="1906" timeRangeEnd="-9999999/1" timeRangeDuration="0/1" interpolaterName=""  />
               </ZoomPanKeyframes>
              </ZoomPanBin>
             </Entry>
             <Entry key="CursorEffectBin">
              <CursorEffectBin id="1907"  >
               <CursorEffectKeyframes>
               </CursorEffectKeyframes>
              </CursorEffectBin>
             </Entry>
            </ExtraData>
           </ScreenVMFile>
           <ScreenVMFile id="1908" start="5767" duration="75" scalar="1/1" mediaStart="8190/1" mediaDuration="75/1" trackNumber="0" src="4" >
            <Transformer>
             <VectorParam id="1909"  name="translation">
              <InterpolatingParam id="1910" interp="linr"  time="-9999999/1" value="0" leadInLength="0/1"  />
              <InterpolatingParam id="1911" interp="linr"  time="-9999999/1" value="0" leadInLength="0/1"  />
              <InterpolatingParam id="1912" interp="linr"  time="-9999999/1" value="0" leadInLength="0/1"  />
             </VectorParam>
             <VectorParam id="1913"  name="rotation">
              <InterpolatingParam id="1914" interp="linr"  time="-9999999/1" value="0" leadInLength="0/1"  />
              <InterpolatingParam id="1915" interp="linr"  time="-9999999/1" value="0" leadInLength="0/1"  />
              <InterpolatingParam id="1916" interp="linr"  time="-9999999/1" value="0" leadInLength="0/1"  />
             </VectorParam>
             <VectorParam id="1917"  name="shear">
              <InterpolatingParam id="1918" interp="linr"  time="-9999999/1" value="0" leadInLength="0/1"  />
              <InterpolatingParam id="1919" interp="linr"  time="-9999999/1" value="0" leadInLength="0/1"  />
              <InterpolatingParam id="1920" interp="linr"  time="-9999999/1" value="0" leadInLength="0/1"  />
             </VectorParam>
             <VectorParam id="1921"  name="scale">
              <InterpolatingParam id="1922" interp="linr"  time="-9999999/1" value="1" leadInLength="0/1"  />
              <InterpolatingParam id="1923" interp="linr"  time="-9999999/1" value="1" leadInLength="0/1"  />
              <InterpolatingParam id="1924" interp="linr"  time="-9999999/1" value="1" leadInLength="0/1"  />
             </VectorParam>
             <VectorParam id="1925"  name="anchor">
              <InterpolatingParam id="1926" interp="linr"  time="0/1" value="0" leadInLength="0/1"  />
              <InterpolatingParam id="1927" interp="linr"  time="0/1" value="0" leadInLength="0/1"  />
              <InterpolatingParam id="1928" interp="linr"  time="0/1" value="0" leadInLength="0/1"  />
             </VectorParam>
            </Transformer>
            <Parameters>
             <VectorParam id="1929"  name="sourceCrop">
              <InterpolatingParam id="1930" interp="linr"  time="0/1" value="0" leadInLength="0/1"  />
              <InterpolatingParam id="1931" interp="linr"  time="0/1" value="0" leadInLength="0/1"  />
              <InterpolatingParam id="1932" interp="linr"  time="0/1" value="0" leadInLength="0/1"  />
              <InterpolatingParam id="1933" interp="linr"  time="0/1" value="0" leadInLength="0/1"  />
             </VectorParam>
             <VectorParam id="1934"  name="geometryCrop">
              <InterpolatingParam id="1935" interp="linr"  time="-9999999/1" value="0" leadInLength="0/1"  />
              <InterpolatingParam id="1936" interp="linr"  time="-9999999/1" value="0" leadInLength="0/1"  />
              <InterpolatingParam id="1937" interp="linr"  time="-9999999/1" value="0" leadInLength="0/1"  />
              <InterpolatingParam id="1938" interp="linr"  time="-9999999/1" value="0" leadInLength="0/1"  />
             </VectorParam>
             <InterpolatingParam id="1939" interp="linr"  time="-9999999/1" value="1" leadInLength="0/1"  name="opacity"/>
             <InterpolatingParam id="1940" interp="linr"  time="0/1" value="0" leadInLength="0/1"  name="cursorOpacity"/>
             <InterpolatingParam id="1941" interp="linr"  time="0/1" value="0" leadInLength="0/1"  name="cursorScale"/>
            </Parameters>
            <Attributes>
             <Attribute id="1942" value="" name="ident"/>
            </Attributes>
            <MetaData>
             <entry key="AutoAppliedSmartFocus" val="False"/>
             <entry key="WinSubProjectDisplayName" val=""/>
            </MetaData>
            <ExtraData>
             <Entry key="ZoomPanBin">
              <ZoomPanBin id="1943"  >
               <ZoomPanKeyframes>
                <ZoomPanKeyframe id="1944" timeRangeEnd="-9999999/1" timeRangeDuration="0/1" interpolaterName=""  />
               </ZoomPanKeyframes>
              </ZoomPanBin>
             </Entry>
             <Entry key="CursorEffectBin">
              <CursorEffectBin id="1945"  >
               <CursorEffectKeyframes>
               </CursorEffectKeyframes>
              </CursorEffectBin>
             </Entry>
            </ExtraData>
           </ScreenVMFile>
           <ScreenVMFile id="1946" start="5842" duration="94" scalar="1/1" mediaStart="8287/1" mediaDuration="94/1" trackNumber="0" src="4" >
            <Transformer>
             <VectorParam id="1947"  name="translation">
              <InterpolatingParam id="1948" interp="linr"  time="-9999999/1" value="0" leadInLength="0/1"  />
              <InterpolatingParam id="1949" interp="linr"  time="-9999999/1" value="0" leadInLength="0/1"  />
              <InterpolatingParam id="1950" interp="linr"  time="-9999999/1" value="0" leadInLength="0/1"  />
             </VectorParam>
             <VectorParam id="1951"  name="rotation">
              <InterpolatingParam id="1952" interp="linr"  time="-9999999/1" value="0" leadInLength="0/1"  />
              <InterpolatingParam id="1953" interp="linr"  time="-9999999/1" value="0" leadInLength="0/1"  />
              <InterpolatingParam id="1954" interp="linr"  time="-9999999/1" value="0" leadInLength="0/1"  />
             </VectorParam>
             <VectorParam id="1955"  name="shear">
              <InterpolatingParam id="1956" interp="linr"  time="-9999999/1" value="0" leadInLength="0/1"  />
              <InterpolatingParam id="1957" interp="linr"  time="-9999999/1" value="0" leadInLength="0/1"  />
              <InterpolatingParam id="1958" interp="linr"  time="-9999999/1" value="0" leadInLength="0/1"  />
             </VectorParam>
             <VectorParam id="1959"  name="scale">
              <InterpolatingParam id="1960" interp="linr"  time="-9999999/1" value="1" leadInLength="0/1"  />
              <InterpolatingParam id="1961" interp="linr"  time="-9999999/1" value="1" leadInLength="0/1"  />
              <InterpolatingParam id="1962" interp="linr"  time="-9999999/1" value="1" leadInLength="0/1"  />
             </VectorParam>
             <VectorParam id="1963"  name="anchor">
              <InterpolatingParam id="1964" interp="linr"  time="0/1" value="0" leadInLength="0/1"  />
              <InterpolatingParam id="1965" interp="linr"  time="0/1" value="0" leadInLength="0/1"  />
              <InterpolatingParam id="1966" interp="linr"  time="0/1" value="0" leadInLength="0/1"  />
             </VectorParam>
            </Transformer>
            <Parameters>
             <VectorParam id="1967"  name="sourceCrop">
              <InterpolatingParam id="1968" interp="linr"  time="0/1" value="0" leadInLength="0/1"  />
              <InterpolatingParam id="1969" interp="linr"  time="0/1" value="0" leadInLength="0/1"  />
              <InterpolatingParam id="1970" interp="linr"  time="0/1" value="0" leadInLength="0/1"  />
              <InterpolatingParam id="1971" interp="linr"  time="0/1" value="0" leadInLength="0/1"  />
             </VectorParam>
             <VectorParam id="1972"  name="geometryCrop">
              <InterpolatingParam id="1973" interp="linr"  time="-9999999/1" value="0" leadInLength="0/1"  />
              <InterpolatingParam id="1974" interp="linr"  time="-9999999/1" value="0" leadInLength="0/1"  />
              <InterpolatingParam id="1975" interp="linr"  time="-9999999/1" value="0" leadInLength="0/1"  />
              <InterpolatingParam id="1976" interp="linr"  time="-9999999/1" value="0" leadInLength="0/1"  />
             </VectorParam>
             <InterpolatingParam id="1977" interp="linr"  time="-9999999/1" value="1" leadInLength="0/1"  name="opacity"/>
             <InterpolatingParam id="1978" interp="linr"  time="0/1" value="0" leadInLength="0/1"  name="cursorOpacity"/>
             <InterpolatingParam id="1979" interp="linr"  time="0/1" value="0" leadInLength="0/1"  name="cursorScale"/>
            </Parameters>
            <Attributes>
             <Attribute id="1980" value="" name="ident"/>
            </Attributes>
            <MetaData>
             <entry key="AutoAppliedSmartFocus" val="False"/>
             <entry key="WinSubProjectDisplayName" val=""/>
            </MetaData>
            <ExtraData>
             <Entry key="ZoomPanBin">
              <ZoomPanBin id="1981"  >
               <ZoomPanKeyframes>
                <ZoomPanKeyframe id="1982" timeRangeEnd="-9999999/1" timeRangeDuration="0/1" interpolaterName=""  />
               </ZoomPanKeyframes>
              </ZoomPanBin>
             </Entry>
             <Entry key="CursorEffectBin">
              <CursorEffectBin id="1983"  >
               <CursorEffectKeyframes>
               </CursorEffectKeyframes>
              </CursorEffectBin>
             </Entry>
            </ExtraData>
           </ScreenVMFile>
           <ScreenVMFile id="1984" start="5936" duration="735" scalar="1/1" mediaStart="8402/1" mediaDuration="735/1" trackNumber="0" src="4" >
            <Transformer>
             <VectorParam id="1985"  name="translation">
              <InterpolatingParam id="1986" interp="linr"  time="-9999999/1" value="0" leadInLength="0/1"  />
              <InterpolatingParam id="1987" interp="linr"  time="-9999999/1" value="0" leadInLength="0/1"  />
              <InterpolatingParam id="1988" interp="linr"  time="-9999999/1" value="0" leadInLength="0/1"  />
             </VectorParam>
             <VectorParam id="1989"  name="rotation">
              <InterpolatingParam id="1990" interp="linr"  time="-9999999/1" value="0" leadInLength="0/1"  />
              <InterpolatingParam id="1991" interp="linr"  time="-9999999/1" value="0" leadInLength="0/1"  />
              <InterpolatingParam id="1992" interp="linr"  time="-9999999/1" value="0" leadInLength="0/1"  />
             </VectorParam>
             <VectorParam id="1993"  name="shear">
              <InterpolatingParam id="1994" interp="linr"  time="-9999999/1" value="0" leadInLength="0/1"  />
              <InterpolatingParam id="1995" interp="linr"  time="-9999999/1" value="0" leadInLength="0/1"  />
              <InterpolatingParam id="1996" interp="linr"  time="-9999999/1" value="0" leadInLength="0/1"  />
             </VectorParam>
             <VectorParam id="1997"  name="scale">
              <InterpolatingParam id="1998" interp="linr"  time="-9999999/1" value="1" leadInLength="0/1"  />
              <InterpolatingParam id="1999" interp="linr"  time="-9999999/1" value="1" leadInLength="0/1"  />
              <InterpolatingParam id="2000" interp="linr"  time="-9999999/1" value="1" leadInLength="0/1"  />
             </VectorParam>
             <VectorParam id="2001"  name="anchor">
              <InterpolatingParam id="2002" interp="linr"  time="0/1" value="0" leadInLength="0/1"  />
              <InterpolatingParam id="2003" interp="linr"  time="0/1" value="0" leadInLength="0/1"  />
              <InterpolatingParam id="2004" interp="linr"  time="0/1" value="0" leadInLength="0/1"  />
             </VectorParam>
            </Transformer>
            <Parameters>
             <VectorParam id="2005"  name="sourceCrop">
              <InterpolatingParam id="2006" interp="linr"  time="0/1" value="0" leadInLength="0/1"  />
              <InterpolatingParam id="2007" interp="linr"  time="0/1" value="0" leadInLength="0/1"  />
              <InterpolatingParam id="2008" interp="linr"  time="0/1" value="0" leadInLength="0/1"  />
              <InterpolatingParam id="2009" interp="linr"  time="0/1" value="0" leadInLength="0/1"  />
             </VectorParam>
             <VectorParam id="2010"  name="geometryCrop">
              <InterpolatingParam id="2011" interp="linr"  time="-9999999/1" value="0" leadInLength="0/1"  />
              <InterpolatingParam id="2012" interp="linr"  time="-9999999/1" value="0" leadInLength="0/1"  />
              <InterpolatingParam id="2013" interp="linr"  time="-9999999/1" value="0" leadInLength="0/1"  />
              <InterpolatingParam id="2014" interp="linr"  time="-9999999/1" value="0" leadInLength="0/1"  />
             </VectorParam>
             <InterpolatingParam id="2015" interp="linr"  time="-9999999/1" value="1" leadInLength="0/1"  name="opacity"/>
             <InterpolatingParam id="2016" interp="linr"  time="0/1" value="0" leadInLength="0/1"  name="cursorOpacity"/>
             <InterpolatingParam id="2017" interp="linr"  time="0/1" value="0" leadInLength="0/1"  name="cursorScale"/>
            </Parameters>
            <Attributes>
             <Attribute id="2018" value="" name="ident"/>
            </Attributes>
            <MetaData>
             <entry key="AutoAppliedSmartFocus" val="False"/>
             <entry key="WinSubProjectDisplayName" val=""/>
            </MetaData>
            <ExtraData>
             <Entry key="ZoomPanBin">
              <ZoomPanBin id="2019"  >
               <ZoomPanKeyframes>
                <ZoomPanKeyframe id="2020" timeRangeEnd="-9999999/1" timeRangeDuration="0/1" interpolaterName=""  />
               </ZoomPanKeyframes>
              </ZoomPanBin>
             </Entry>
             <Entry key="CursorEffectBin">
              <CursorEffectBin id="2021"  >
               <CursorEffectKeyframes>
               </CursorEffectKeyframes>
              </CursorEffectBin>
             </Entry>
            </ExtraData>
           </ScreenVMFile>
           <ScreenVMFile id="2022" start="6671" duration="851" scalar="1/1" mediaStart="9226/1" mediaDuration="851/1" trackNumber="0" src="4" >
            <Transformer>
             <VectorParam id="2023"  name="translation">
              <InterpolatingParam id="2024" interp="linr"  time="-9999999/1" value="0" leadInLength="0/1"  />
              <InterpolatingParam id="2025" interp="linr"  time="-9999999/1" value="0" leadInLength="0/1"  />
              <InterpolatingParam id="2026" interp="linr"  time="-9999999/1" value="0" leadInLength="0/1"  />
             </VectorParam>
             <VectorParam id="2027"  name="rotation">
              <InterpolatingParam id="2028" interp="linr"  time="-9999999/1" value="0" leadInLength="0/1"  />
              <InterpolatingParam id="2029" interp="linr"  time="-9999999/1" value="0" leadInLength="0/1"  />
              <InterpolatingParam id="2030" interp="linr"  time="-9999999/1" value="0" leadInLength="0/1"  />
             </VectorParam>
             <VectorParam id="2031"  name="shear">
              <InterpolatingParam id="2032" interp="linr"  time="-9999999/1" value="0" leadInLength="0/1"  />
              <InterpolatingParam id="2033" interp="linr"  time="-9999999/1" value="0" leadInLength="0/1"  />
              <InterpolatingParam id="2034" interp="linr"  time="-9999999/1" value="0" leadInLength="0/1"  />
             </VectorParam>
             <VectorParam id="2035"  name="scale">
              <InterpolatingParam id="2036" interp="linr"  time="-9999999/1" value="1" leadInLength="0/1"  />
              <InterpolatingParam id="2037" interp="linr"  time="-9999999/1" value="1" leadInLength="0/1"  />
              <InterpolatingParam id="2038" interp="linr"  time="-9999999/1" value="1" leadInLength="0/1"  />
             </VectorParam>
             <VectorParam id="2039"  name="anchor">
              <InterpolatingParam id="2040" interp="linr"  time="0/1" value="0" leadInLength="0/1"  />
              <InterpolatingParam id="2041" interp="linr"  time="0/1" value="0" leadInLength="0/1"  />
              <InterpolatingParam id="2042" interp="linr"  time="0/1" value="0" leadInLength="0/1"  />
             </VectorParam>
            </Transformer>
            <Parameters>
             <VectorParam id="2043"  name="sourceCrop">
              <InterpolatingParam id="2044" interp="linr"  time="0/1" value="0" leadInLength="0/1"  />
              <InterpolatingParam id="2045" interp="linr"  time="0/1" value="0" leadInLength="0/1"  />
              <InterpolatingParam id="2046" interp="linr"  time="0/1" value="0" leadInLength="0/1"  />
              <InterpolatingParam id="2047" interp="linr"  time="0/1" value="0" leadInLength="0/1"  />
             </VectorParam>
             <VectorParam id="2048"  name="geometryCrop">
              <InterpolatingParam id="2049" interp="linr"  time="-9999999/1" value="0" leadInLength="0/1"  />
              <InterpolatingParam id="2050" interp="linr"  time="-9999999/1" value="0" leadInLength="0/1"  />
              <InterpolatingParam id="2051" interp="linr"  time="-9999999/1" value="0" leadInLength="0/1"  />
              <InterpolatingParam id="2052" interp="linr"  time="-9999999/1" value="0" leadInLength="0/1"  />
             </VectorParam>
             <InterpolatingParam id="2053" interp="linr"  time="-9999999/1" value="1" leadInLength="0/1"  name="opacity"/>
             <InterpolatingParam id="2054" interp="linr"  time="0/1" value="0" leadInLength="0/1"  name="cursorOpacity"/>
             <InterpolatingParam id="2055" interp="linr"  time="0/1" value="0" leadInLength="0/1"  name="cursorScale"/>
            </Parameters>
            <Attributes>
             <Attribute id="2056" value="" name="ident"/>
            </Attributes>
            <MetaData>
             <entry key="AutoAppliedSmartFocus" val="False"/>
             <entry key="WinSubProjectDisplayName" val=""/>
            </MetaData>
            <ExtraData>
             <Entry key="ZoomPanBin">
              <ZoomPanBin id="2057"  >
               <ZoomPanKeyframes>
                <ZoomPanKeyframe id="2058" timeRangeEnd="-9999999/1" timeRangeDuration="0/1" interpolaterName=""  />
               </ZoomPanKeyframes>
              </ZoomPanBin>
             </Entry>
             <Entry key="CursorEffectBin">
              <CursorEffectBin id="2059"  >
               <CursorEffectKeyframes>
               </CursorEffectKeyframes>
              </CursorEffectBin>
             </Entry>
            </ExtraData>
           </ScreenVMFile>
           <ScreenVMFile id="2060" start="7522" duration="174" scalar="1/1" mediaStart="10119/1" mediaDuration="174/1" trackNumber="0" src="4" >
            <Transformer>
             <VectorParam id="2061"  name="translation">
              <InterpolatingParam id="2062" interp="linr"  time="-9999999/1" value="0" leadInLength="0/1"  />
              <InterpolatingParam id="2063" interp="linr"  time="-9999999/1" value="0" leadInLength="0/1"  />
              <InterpolatingParam id="2064" interp="linr"  time="-9999999/1" value="0" leadInLength="0/1"  />
             </VectorParam>
             <VectorParam id="2065"  name="rotation">
              <InterpolatingParam id="2066" interp="linr"  time="-9999999/1" value="0" leadInLength="0/1"  />
              <InterpolatingParam id="2067" interp="linr"  time="-9999999/1" value="0" leadInLength="0/1"  />
              <InterpolatingParam id="2068" interp="linr"  time="-9999999/1" value="0" leadInLength="0/1"  />
             </VectorParam>
             <VectorParam id="2069"  name="shear">
              <InterpolatingParam id="2070" interp="linr"  time="-9999999/1" value="0" leadInLength="0/1"  />
              <InterpolatingParam id="2071" interp="linr"  time="-9999999/1" value="0" leadInLength="0/1"  />
              <InterpolatingParam id="2072" interp="linr"  time="-9999999/1" value="0" leadInLength="0/1"  />
             </VectorParam>
             <VectorParam id="2073"  name="scale">
              <InterpolatingParam id="2074" interp="linr"  time="-9999999/1" value="1" leadInLength="0/1"  />
              <InterpolatingParam id="2075" interp="linr"  time="-9999999/1" value="1" leadInLength="0/1"  />
              <InterpolatingParam id="2076" interp="linr"  time="-9999999/1" value="1" leadInLength="0/1"  />
             </VectorParam>
             <VectorParam id="2077"  name="anchor">
              <InterpolatingParam id="2078" interp="linr"  time="0/1" value="0" leadInLength="0/1"  />
              <InterpolatingParam id="2079" interp="linr"  time="0/1" value="0" leadInLength="0/1"  />
              <InterpolatingParam id="2080" interp="linr"  time="0/1" value="0" leadInLength="0/1"  />
             </VectorParam>
            </Transformer>
            <Parameters>
             <VectorParam id="2081"  name="sourceCrop">
              <InterpolatingParam id="2082" interp="linr"  time="0/1" value="0" leadInLength="0/1"  />
              <InterpolatingParam id="2083" interp="linr"  time="0/1" value="0" leadInLength="0/1"  />
              <InterpolatingParam id="2084" interp="linr"  time="0/1" value="0" leadInLength="0/1"  />
              <InterpolatingParam id="2085" interp="linr"  time="0/1" value="0" leadInLength="0/1"  />
             </VectorParam>
             <VectorParam id="2086"  name="geometryCrop">
              <InterpolatingParam id="2087" interp="linr"  time="-9999999/1" value="0" leadInLength="0/1"  />
              <InterpolatingParam id="2088" interp="linr"  time="-9999999/1" value="0" leadInLength="0/1"  />
              <InterpolatingParam id="2089" interp="linr"  time="-9999999/1" value="0" leadInLength="0/1"  />
              <InterpolatingParam id="2090" interp="linr"  time="-9999999/1" value="0" leadInLength="0/1"  />
             </VectorParam>
             <InterpolatingParam id="2091" interp="linr"  time="-9999999/1" value="1" leadInLength="0/1"  name="opacity"/>
             <InterpolatingParam id="2092" interp="linr"  time="0/1" value="0" leadInLength="0/1"  name="cursorOpacity"/>
             <InterpolatingParam id="2093" interp="linr"  time="0/1" value="0" leadInLength="0/1"  name="cursorScale"/>
            </Parameters>
            <Attributes>
             <Attribute id="2094" value="" name="ident"/>
            </Attributes>
            <MetaData>
             <entry key="AutoAppliedSmartFocus" val="False"/>
             <entry key="WinSubProjectDisplayName" val=""/>
            </MetaData>
            <ExtraData>
             <Entry key="ZoomPanBin">
              <ZoomPanBin id="2095"  >
               <ZoomPanKeyframes>
                <ZoomPanKeyframe id="2096" timeRangeEnd="-9999999/1" timeRangeDuration="0/1" interpolaterName=""  />
               </ZoomPanKeyframes>
              </ZoomPanBin>
             </Entry>
             <Entry key="CursorEffectBin">
              <CursorEffectBin id="2097"  >
               <CursorEffectKeyframes>
               </CursorEffectKeyframes>
              </CursorEffectBin>
             </Entry>
            </ExtraData>
           </ScreenVMFile>
           <ScreenVMFile id="2098" start="7696" duration="9374" scalar="1/1" mediaStart="10320/1" mediaDuration="9374/1" trackNumber="0" src="4" >
            <Transformer>
             <VectorParam id="2099"  name="translation">
              <InterpolatingParam id="2100" interp="linr"  time="-9999999/1" value="0" leadInLength="0/1"  />
              <InterpolatingParam id="2101" interp="linr"  time="-9999999/1" value="0" leadInLength="0/1"  />
              <InterpolatingParam id="2102" interp="linr"  time="-9999999/1" value="0" leadInLength="0/1"  />
             </VectorParam>
             <VectorParam id="2103"  name="rotation">
              <InterpolatingParam id="2104" interp="linr"  time="-9999999/1" value="0" leadInLength="0/1"  />
              <InterpolatingParam id="2105" interp="linr"  time="-9999999/1" value="0" leadInLength="0/1"  />
              <InterpolatingParam id="2106" interp="linr"  time="-9999999/1" value="0" leadInLength="0/1"  />
             </VectorParam>
             <VectorParam id="2107"  name="shear">
              <InterpolatingParam id="2108" interp="linr"  time="-9999999/1" value="0" leadInLength="0/1"  />
              <InterpolatingParam id="2109" interp="linr"  time="-9999999/1" value="0" leadInLength="0/1"  />
              <InterpolatingParam id="2110" interp="linr"  time="-9999999/1" value="0" leadInLength="0/1"  />
             </VectorParam>
             <VectorParam id="2111"  name="scale">
              <InterpolatingParam id="2112" interp="linr"  time="-9999999/1" value="1" leadInLength="0/1"  />
              <InterpolatingParam id="2113" interp="linr"  time="-9999999/1" value="1" leadInLength="0/1"  />
              <InterpolatingParam id="2114" interp="linr"  time="-9999999/1" value="1" leadInLength="0/1"  />
             </VectorParam>
             <VectorParam id="2115"  name="anchor">
              <InterpolatingParam id="2116" interp="linr"  time="0/1" value="0" leadInLength="0/1"  />
              <InterpolatingParam id="2117" interp="linr"  time="0/1" value="0" leadInLength="0/1"  />
              <InterpolatingParam id="2118" interp="linr"  time="0/1" value="0" leadInLength="0/1"  />
             </VectorParam>
            </Transformer>
            <Parameters>
             <VectorParam id="2119"  name="sourceCrop">
              <InterpolatingParam id="2120" interp="linr"  time="0/1" value="0" leadInLength="0/1"  />
              <InterpolatingParam id="2121" interp="linr"  time="0/1" value="0" leadInLength="0/1"  />
              <InterpolatingParam id="2122" interp="linr"  time="0/1" value="0" leadInLength="0/1"  />
              <InterpolatingParam id="2123" interp="linr"  time="0/1" value="0" leadInLength="0/1"  />
             </VectorParam>
             <VectorParam id="2124"  name="geometryCrop">
              <InterpolatingParam id="2125" interp="linr"  time="-9999999/1" value="0" leadInLength="0/1"  />
              <InterpolatingParam id="2126" interp="linr"  time="-9999999/1" value="0" leadInLength="0/1"  />
              <InterpolatingParam id="2127" interp="linr"  time="-9999999/1" value="0" leadInLength="0/1"  />
              <InterpolatingParam id="2128" interp="linr"  time="-9999999/1" value="0" leadInLength="0/1"  />
             </VectorParam>
             <InterpolatingParam id="2129" interp="linr"  time="-9999999/1" value="1" leadInLength="0/1"  name="opacity"/>
             <InterpolatingParam id="2130" interp="linr"  time="0/1" value="0" leadInLength="0/1"  name="cursorOpacity"/>
             <InterpolatingParam id="2131" interp="linr"  time="0/1" value="0" leadInLength="0/1"  name="cursorScale"/>
            </Parameters>
            <Attributes>
             <Attribute id="2132" value="" name="ident"/>
            </Attributes>
            <MetaData>
             <entry key="AutoAppliedSmartFocus" val="False"/>
             <entry key="WinSubProjectDisplayName" val=""/>
            </MetaData>
            <ExtraData>
             <Entry key="ZoomPanBin">
              <ZoomPanBin id="2133"  >
               <ZoomPanKeyframes>
                <ZoomPanKeyframe id="2134" timeRangeEnd="-9999999/1" timeRangeDuration="0/1" interpolaterName=""  />
               </ZoomPanKeyframes>
              </ZoomPanBin>
             </Entry>
             <Entry key="CursorEffectBin">
              <CursorEffectBin id="2135"  >
               <CursorEffectKeyframes>
               </CursorEffectKeyframes>
              </CursorEffectBin>
             </Entry>
            </ExtraData>
           </ScreenVMFile>
          </Medias>
         </GenericTrack>
        </StitchedMedia>
        <StitchedMedia id="2136" start="10595" duration="4239" scalar="1/1" mediaStart="10595/1" mediaDuration="4239/1" minMediaStart="0/1" >
         <Transformer>
          <VectorParam id="2137"  name="translation">
           <InterpolatingParam id="2138" interp="linr"  time="-9999999/1" value="444.96724890895132" leadInLength="0/1"  interpolater="leadin-linr"  />
           <InterpolatingParam id="2139" interp="linr"  time="-9999999/1" value="-167.2254366812239" leadInLength="0/1"  interpolater="leadin-linr"  />
           <InterpolatingParam id="2140" interp="linr"  time="-9999999/1" value="0" leadInLength="0/1"  interpolater="leadin-linr"  />
          </VectorParam>
          <VectorParam id="2141"  name="rotation">
           <InterpolatingParam id="2142" interp="linr"  time="-9999999/1" value="0" leadInLength="0/1"  interpolater="leadin-linr"  />
           <InterpolatingParam id="2143" interp="linr"  time="-9999999/1" value="0" leadInLength="0/1"  interpolater="leadin-linr"  />
           <InterpolatingParam id="2144" interp="linr"  time="-9999999/1" value="0" leadInLength="0/1"  interpolater="leadin-linr"  />
          </VectorParam>
          <VectorParam id="2145"  name="shear">
           <InterpolatingParam id="2146" interp="linr"  time="-9999999/1" value="0" leadInLength="0/1"  interpolater="leadin-linr"  />
           <InterpolatingParam id="2147" interp="linr"  time="-9999999/1" value="0" leadInLength="0/1"  interpolater="leadin-linr"  />
           <InterpolatingParam id="2148" interp="linr"  time="-9999999/1" value="0" leadInLength="0/1"  interpolater="leadin-linr"  />
          </VectorParam>
          <VectorParam id="2149"  name="scale">
           <InterpolatingParam id="2150" interp="linr"  time="-9999999/1" value="0.8032273471609781" leadInLength="0/1"  interpolater="leadin-linr"  />
           <InterpolatingParam id="2151" interp="linr"  time="-9999999/1" value="0.80322734716097799" leadInLength="0/1"  interpolater="leadin-linr"  />
           <InterpolatingParam id="2152" interp="linr"  time="-9999999/1" value="1" leadInLength="0/1"  interpolater="leadin-linr"  />
          </VectorParam>
          <VectorParam id="2153"  name="anchor">
           <InterpolatingParam id="2154" interp="linr"  time="0/1" value="0" leadInLength="0/1"  />
           <InterpolatingParam id="2155" interp="linr"  time="0/1" value="0" leadInLength="0/1"  />
           <InterpolatingParam id="2156" interp="linr"  time="0/1" value="0" leadInLength="0/1"  />
          </VectorParam>
         </Transformer>
         <Parameters>
          <VectorParam id="2157"  name="sourceCrop">
           <InterpolatingParam id="2158" interp="linr"  time="0/1" value="0" leadInLength="0/1"  />
           <InterpolatingParam id="2159" interp="linr"  time="0/1" value="0" leadInLength="0/1"  />
           <InterpolatingParam id="2160" interp="linr"  time="0/1" value="0" leadInLength="0/1"  />
           <InterpolatingParam id="2161" interp="linr"  time="0/1" value="0" leadInLength="0/1"  />
          </VectorParam>
          <VectorParam id="2162"  name="geometryCrop">
           <InterpolatingParam id="2163" interp="linr"  time="-9999999/1" value="0" leadInLength="0/1"  interpolater="leadin-linr"  />
           <InterpolatingParam id="2164" interp="linr"  time="-9999999/1" value="0" leadInLength="0/1"  interpolater="leadin-linr"  />
           <InterpolatingParam id="2165" interp="linr"  time="-9999999/1" value="0" leadInLength="0/1"  interpolater="leadin-linr"  />
           <InterpolatingParam id="2166" interp="linr"  time="-9999999/1" value="0" leadInLength="0/1"  interpolater="leadin-linr"  />
          </VectorParam>
          <InterpolatingParam id="2167" interp="linr"  time="-9999999/1" value="1" leadInLength="0/1"  interpolater="leadin-linr"  name="opacity"/>
          <InterpolatingParam id="2168" interp="linr"  time="0/1" value="1" leadInLength="0/1"  name="cursorOpacity"/>
          <InterpolatingParam id="2169" interp="linr"  time="0/1" value="1" leadInLength="0/1"  name="cursorScale"/>
          <InterpolatingParam id="2170" interp="linr"  time="0/1" value="1" leadInLength="0/1"  name="volume"/>
          <Parameter id="2171"  name="captions"/>
         </Parameters>
         <Effects>
          <GenericEffect id="2172" name = "NoiseReduction" >
           <Parameters>
           <InterpolatingParam id="2173" interp="linr"  time="0/1" value="22" leadInLength="0/1"   name="denoiserAmount"/>
           <InterpolatingParam id="2174" interp="linr"  time="0/1" value="0.60000000000000053" leadInLength="0/1"   name="denoiserThreshold"/>
           <Parameter id="2175"   name="noiseProfile">
            <Keyframes>
            <Keyframe id="2176"  time="0/1" value="FBAAAAIAAABErAAAAQIAAEKuB8KhDOXBR70KwgitLMIzWD7CjrNHwkpSUMLM50vC6MdQwkWTVcLA&#xD;&#xa;8lfC4xZVwiJrWMILM1fCqzxVwuxUW8LxfVrCIqZcwjH4X8JpBV3CK29bwqFUWsI9WVnC0npWwk69&#xD;&#xa;WMJ1mlPCyl5RwhWlU8K1DljCr6pYwolpWsIu/VjC041ZwtNcV8LVMlXCvC9VwrCGW8JxtF7CQjFg&#xD;&#xa;wkSmYMJz91vCmfNVwlsWWMIZCl7C4ltfwgQgWsLeZV3CpmRgwgfAZMJBEmXCMOhkwvI0YcJ2FV7C&#xD;&#xa;GNJiwiyFZsLzsWLCvydnwiIoasLhZW3CzOBxwrYwb8LILmjCKIhowkiOZ8KLiWnCDtpnwks+acKV&#xD;&#xa;S27Cd1dpwtehZMIGimXCaapgwhpTXsIqs1zCEEFXwmelV8JqcVzCyNJdwn2RYsK4eV/Cdi1gwjN+&#xD;&#xa;ZsKqNGnCnVNjwqOrYsIOSGDC7NdkwrqsY8LyGWLCCF1owpUDasLOZ2jCdxZpwi5NasKtfGrCsRBo&#xD;&#xa;wr5SZMJqo2LCUhZkwkIRZcJE92LCOvtgwnukXsIhNl/CuthewoMLYcKG0GLC46VlwoJWacKuL23C&#xD;&#xa;pndqwqS3ZMLT8mDCHbVfwhTtXcIb613CuLpfwsdBYsLU9V/CkONgwsYKYMKOPGHCBENawvuqV8Iq&#xD;&#xa;RlTCkfNUwmBiVsLqFFTCsv9Twr60VMImoFPCkONWwsR2VMLYklPCYltUwqhwUcKCmFHCVu1Nwk4S&#xD;&#xa;TsILX1LCDsRSwvYoTsLUbkbCLjpIwnYTSMLw8UzCfCBQws56UcIr2U/C5itMwtNcTcLi7FHCoBBR&#xD;&#xa;wggpUMI1UlDC84dWwojlU8JG1VDCnDFPwk9NTsLxpU7CdkRQws/ZUMLy3FLCNoxWwuQXVsLbaVTC&#xD;&#xa;wjVVwje5UsISoU/C6J9Nwvh8TsLgYlHCb2JNwkfWS8Ki5U3COj1QwtLdS8L6pkzCazpOwvRCScIS&#xD;&#xa;HEfCK5hIwmrVSsKYqlTCUx1Zwn83U8IaR1LCdBxRwtGtTMIWPUzCVsNPwjw5TsJMp0nCfDpPwujR&#xD;&#xa;VsL2RlfCXEFWwlHkVcIWiFfCXldWwlVfVsI1MlzCcTRfwtS9XcIsnlzCcvhcwn82XMK+1F3CCt9d&#xD;&#xa;wg5dZ8KLz2zCOGprwonIasKNT2zCmSZvwuBAcMKWlW7CcK5xwgQKdsISa3bCEzF0wmK0c8Jgw3bC&#xD;&#xa;xPR3why0dcLlx3TCTI9ywuENc8Kfw3XCDWN5wrXVe8KwrnrCUTh3wmFjd8Kz/nnCkpN1wgGUdMJ9&#xD;&#xa;1XrCWvx+wlp2f8KHIX3Cl+B7woU6e8L0rXzCeCuAwlWJgMJMq33ChV96whDmesINmH3CFLt7wsLy&#xD;&#xa;gMKg4YDCDZh8wg1CdsKV83nCZPB8wj+MfcKkcoDCkLqCwtO8gcIm4ILCobuCwj5rgcKAlIDCSeiA&#xD;&#xa;wvRTgcK6loHCZuaBwmU7gsISAYLChpuBwhdCgsKnpIHCaTmDwvJnhMLG+YXCjQyGwu1shMJQyILC&#xD;&#xa;dSODwqB/gsI+yoDCqa2AwhN7gsJ5T4PC5LmDwgMsg8LFBYHCo9yBwrx0hMIlKIPCQAKDwrsQgMJ8&#xD;&#xa;IoDCrAKEwgjshcIYM4bCr0yDwqxlgsLZPoPCYtOEwsGahsLVTIbCXLSGwoTUhsJsIYbCVv+Fwopq&#xD;&#xa;g8IAR4XCHHSGwqJxh8LdmYfCZXqHwlSph8IoPobCK+OHwrJ6hsJecoXCjvGFwvWyhMIMuITCXSGF&#xD;&#xa;wkrehMIOAoPCuHiDwv7rhsJGp4TC9K6DwvVxgcLS7oHC/J6GwhAYh8L9RoXCBwKHwugoh8LGU4fC&#xD;&#xa;7Q2Iwlk1h8K7LYXCANGDwryxhMImQofCrYGFwreJg8JMZIXCTJGGwlXXhsIylYbCyYqHwje3h8JK&#xD;&#xa;9IfChFWEwpUzg8IBPIPCmpyEwiyVhcJekYPCTWKDwnbUhcK5T4bChDeEwgSrg8IsjYXCgQeHwiVK&#xD;&#xa;h8KxvYbCFqeHwoxsiMLst4fCBUOGwvsThsLpuofCoPKFwpvbgcLJ2oDCoSKFwru3hcIoF4bC/QCG&#xD;&#xa;wlO3hsIXMInCuhOHwhIghcITd4PCj6+DwkUuhcK1T4bChjKGwoIfiMJMAIfCobqDwhStg8KxdYXC&#xD;&#xa;SJmHwr6whsKlLIXCWCiFwo5VhsL0q4XCAQiFwvx1hMIfIoXCuDCGwliThcJejoXClW6Fwiv+hMLQ&#xD;&#xa;74bClpuEwni2gsINCoXCuE6GwqEbhcK6DIXCH6uEwm5QhMJkA4PCzz+EwjaIhMLvp4XCGW+Hwpcv&#xD;&#xa;hsJPUoPCfb+Ewp93hsJE2IXC8bCFwiF5hcJ6WYbC7LiGwu9BhMJc+ITCl0SGwtUohMKMUILCf7SB&#xD;&#xa;wukpg8JN8ITC0TGFwtTcg8INSILCjf+Dwo+nhMKVvoXCKdGFwmcnhsIpZIXC4N6Ewttng8Le1ILC&#xD;&#xa;Lg2FwtB3hsJ5rYbCBvmGwuKLiMJqNYjCK3SHwj98hcJiKofCb3aJwqPkicJNjonCZsuIwnArisJy&#xD;&#xa;rYvCBuSKwpA3isI31InCLnCLwkjqisK8bonCBb2KwufCjMLD5ozCWiaNwr7sjsIzoI/CzaePwrIK&#xD;&#xa;kMIz2Y7CSkSOwkSbkcI2OZPCfbCSwhxyksL+/JLCIMOSwmeVksLhLJTChe2TwkJEk8JYppXCbiWW&#xD;&#xa;wmdKlcJH+ZTCfFCUwuJilMLeEZXCpYuWwgT/lcIMFJbCepqVwu4WlcIV4pbCK6iTwp1LkcKYBpTC&#xD;&#xa;/hCYwjYNmcI3cpbC6wGjwqx1DMI4JefBnD78wWeV7cF4/uzBnJAAwoXeDML20RjCknIawpBJGcLZ&#xD;&#xa;shnCGIUbwn5zH8IWbCXC/ggpwiGJK8KNRy/Cryoxwn2NMcLe1DHCXDsuwpo6L8KsZS7CJMItwkQF&#xD;&#xa;LcK2ECzCONguwmtgOMIY0jvCjLA/wi3jQcI3aUHCpwE/whL7PcKc1DrC/po9wim8PMJWNjbCNGU2&#xD;&#xa;wqG5OMLpYzXCSW03wlP9NcJhGzrChf1EwjhCQsKeFkPCZQ1BwtVFPsJWWUPCWyZHwmAwTsJ07E3C&#xD;&#xa;jB9OwkSgUcKKN1rCTF9hwrnwYMLckmTC6Ddmwp79ZMLHRmTCCWliwp9rYMLnE2PCNhNlwlgYZsJf&#xD;&#xa;4mXCsNBkwpwAYMLDP1jCuZNYwnkDXcLlrVXCLORQwhOkVMKTN1fCY3BXwhFDVcJpKVbCVE1Ywsbn&#xD;&#xa;W8K7017CdU5fwvyQX8ID2VvCa01awtAWWcJcwljCNDlYwowmVsK5ZFTCvGlYwkkzYMJUimHCFGJh&#xD;&#xa;wiUFYcJ2GlrC4ZBZwjxNV8Ljs1bCWDdWwoKQUsJGFE3CtiZNwlONTsLLhU/CM2RRwkuJVMKUu1PC&#xD;&#xa;FGRSwkAgUsIcklDCq4BRwp7rUMIGuU7CDsVHwm6eRcKxHk3CMX1PwgzXU8K++lLCNjJPwpndTcLW&#xD;&#xa;D0/CQRpWwlhBUsLWj07C4JVLwlxdTMIoZ0jCEBVJwhVyR8IufUTC+1hFwtEgScIu+krC/M9GwoJa&#xD;&#xa;SMLYaEPCrnpBwqriQcIecUHClHtAwiYqOcKwIz7C2GJAwoQ0QsIgJETC4FZLwuzPTMIKJknCTvBK&#xD;&#xa;wu7sS8JzeUrCpMBMwlbMSMLiRUbCT5JIwrOPS8IaIkvCMIxGwn34RsKIBErCsXFOwj8cUcLdK0/C&#xD;&#xa;hvxPwvimS8L5p0vCrdlNwkn4SMICMkzCJtxMwj48S8JLdEzCIU5MwgBpTcL1zE7CtqlPwrOaS8Lq&#xD;&#xa;/EbCEUZLwqDsT8Jhu1bC8eNWwqawVsJxKlbCWq9UwkkXUsJGJFDCvYxSwo6CUML7dlHCiVhZwtfF&#xD;&#xa;VsJqwFDCHKROwpjYUsJQOlXCuiRYwnpUW8IsGlfCpMJdwkKtYcKoUWLCoUVowmayZsInDWXCpqBj&#xD;&#xa;wuo8ZsLciG3Cj5xvwoMAb8Lz0m/C8CFuwg/cbMKeLW/CmuxvwpZZcsLxJ3LCfqJxwtl+b8JCWW7C&#xD;&#xa;qVJ0wkuzdsL4lnjC9jp2wh+Dd8L1vnfCe2x3wm1sc8IhtG/CgJdzwqkzcsKTUXTC3Xh3wuvxdMKa&#xD;&#xa;w3XCOOZ1wj68eMI2EHzCKDR+wsO1d8LNs3fCp2Z+woXLgMJFu37CXPN9wjznfcKap4DCp6eBwmmW&#xD;&#xa;fsLcgIDC4ouCwkxjf8I/vnrCQXF+wgKqgMLrfYDCy4GAwlB8gsJNZ4HCrMKAwq7hgcKKpIHCZ3aB&#xD;&#xa;wuIkgsKYooHC642Bwo0cg8Il0YLCaQaDwm15g8LDc4PCErmCwhQShMKDWIPCTYuBwitGg8LGG4TC&#xD;&#xa;+QaEwihrhcK64oTClHqDwoKQgsJ5a4PCmtyEwlmPg8IoVoLC7uSCwhregsKBroPCUTeGwrnShcIJ&#xD;&#xa;U4PCuQiFwmZohMJViIPCkU2CwqBGhMIA3YXCYriGwoUSh8LbrYbCTXeGwsMfhsKriYbCCL6Gwnx7&#xD;&#xa;hcJc0IbC10KIwr7JhsLbyoXCmZqFwmzShcKbzYXCXeCFwqZohsJRK4bClxSFwgMYhcJy+obCVreF&#xD;&#xa;wm/XhMKmaoDCiMiAwhw4hcKv6IPCz4qEwky2hcJQTITCkROEwjeqhcIaiYXCah6Hwt1Bh8KrPoXC&#xD;&#xa;PtqDwjZOhsIOiYbCr/CGwlqohcKUfILC6f6AwhHqg8JrMoXCYHaEwvnkhcJ0uIXCGlKJwhg5iMJV&#xD;&#xa;b4XCM3mEwordhsL2YIfCuuWFwsbyhMK2+YPC/+GEwgoFg8ItG4LCx6GCwhXig8LUyYbCm7KHwjgt&#xD;&#xa;iMJtaYfCSBqHwu4DicILz4jCB6+Fwp1vhcIurIbCwr6GwodIh8J81IfC4xmGwr6qhsKUXIXCnw2F&#xD;&#xa;wmU0h8JCW4bCpgeEwl/Mg8Jgw4XCqKuGwnayhsIsR4XC3vqDwozzhMJDD4bCOtyGwrwrh8KYzYbC&#xD;&#xa;ZoiGwpkDiMKbMIfCKq6Hwo7+iMJPu4jCBGWGwt5ShsJGfYbCuheHwoiWhsJqwIXCA2eGwiGKh8IT&#xD;&#xa;zYfCyKOIwtG7h8JHp4bCNXiGwg6Ph8KMx4jCrr+HwnSuhcIEYIXC116GwtQ/h8IeMYfCLlqGwmyJ&#xD;&#xa;hMI+AYbCdneHwiNriMIcCIbC1riGwgqkh8JxE4fCH9yEwqMMgsJqWYTC7NaEwq/JhcLkPoTC9RSF&#xD;&#xa;wn16icKleIjCTA2Iwgz3hcKgsYTCwPqFwoHHhsJsz4bC4gGHwlnNhsKlFIfCIwWGwkKihML8UYTC&#xD;&#xa;1WaHwkF4h8L0DIjCL1mGwpNuh8JiTYbC7CmGwqBliMK/OorCqGuKwsxzisK6KojCPnOHwv5GisIV&#xD;&#xa;KozCPhiMwvuQisJhUozCOQiPwj2QjsK2e43CTS2MwhaNjsKcr47CuKKOwiAEkMLYBZDCAzGTwiCa&#xD;&#xa;k8Loy5DCe4GQws93j8LFG5DCcJqRwiNfk8Jhu5LCihmTwjQZksJcvJHCJW6UwilnlsJOHZfCAduU&#xD;&#xa;wrDRk8LGlJTCBSaXwjWFlcKG4JPCoOaVwvCllsKHzZPCLe+TwsKblcJbe5XCbMOVwkHLlcImrpXC&#xD;&#xa;AtWVwqzHlcIG+ZXCRO6i" leadInLength="0/1"  />
            </Keyframes>
           </Parameter>
           </Parameters>
           <MetaData>
            <entry key="effectIndex" val="0"/>
           </MetaData>
          </GenericEffect>
         </Effects>
         <Attributes>
          <Attribute id="2177" value="" name="ident"/>
          <Attribute id="2178" value="0" name="mixToMono"/>
         </Attributes>
         <MetaData>
          <entry key="WinSubProjectDisplayName" val=""/>
         </MetaData>
         <ExtraData>
          <Entry key="ZoomPanBin">
           <ZoomPanBin id="2179"  >
            <ZoomPanKeyframes>
             <ZoomPanKeyframe id="2180" timeRangeEnd="-9999999/1" timeRangeDuration="0/1" interpolaterName="linr"  />
            </ZoomPanKeyframes>
           </ZoomPanBin>
          </Entry>
          <Entry key="CursorEffectBin">
           <CursorEffectBin id="2181"  >
            <CursorEffectKeyframes>
            </CursorEffectKeyframes>
           </CursorEffectBin>
          </Entry>
         </ExtraData>
         <GenericTrack id="2182"  >
          <Attributes>
           <Attribute id="2183" value="" name="ident"/>
           <Attribute id="2184" value="0" name="audioMuted"/>
           <Attribute id="2185" value="0" name="videoHidden"/>
          </Attributes>
          <MetaData>
           <entry key="IsLocked" val="False"/>
           <entry key="WinTrackHeight" val="0"/>
          </MetaData>
          <Medias>
           <UnifiedMedia id="2186"  >
            <AMFile id="2187" start="0" duration="753" scalar="1/1" mediaStart="0/1" mediaDuration="753/1" trackNumber="2" src="4" channelNumber="0,1" >
             <Parameters>
              <InterpolatingParam id="2188" interp="linr"  time="0/1" value="1" leadInLength="0/1"  name="volume"/>
              <Parameter id="2189"  name="captions"/>
             </Parameters>
             <Attributes>
              <Attribute id="2190" value="" name="ident"/>
              <Attribute id="2191" value="44100" name="sampleRate"/>
              <Attribute id="2192" value="16" name="bitDepth"/>
              <Attribute id="2193" value="1" name="gain"/>
              <Attribute id="2194" value="0" name="mixToMono"/>
             </Attributes>
            </AMFile>
            <VMFile id="2195" start="0" duration="753" scalar="1/1" mediaStart="0/1" mediaDuration="753/1" trackNumber="1" src="4" >
             <Transformer>
              <VectorParam id="2196"  name="translation">
               <InterpolatingParam id="2197" interp="linr"  time="-9999999/1" value="0" leadInLength="0/1"  />
               <InterpolatingParam id="2198" interp="linr"  time="-9999999/1" value="0" leadInLength="0/1"  />
               <InterpolatingParam id="2199" interp="linr"  time="-9999999/1" value="0" leadInLength="0/1"  />
              </VectorParam>
              <VectorParam id="2200"  name="rotation">
               <InterpolatingParam id="2201" interp="linr"  time="-9999999/1" value="0" leadInLength="0/1"  />
               <InterpolatingParam id="2202" interp="linr"  time="-9999999/1" value="0" leadInLength="0/1"  />
               <InterpolatingParam id="2203" interp="linr"  time="-9999999/1" value="0" leadInLength="0/1"  />
              </VectorParam>
              <VectorParam id="2204"  name="shear">
               <InterpolatingParam id="2205" interp="linr"  time="-9999999/1" value="0" leadInLength="0/1"  />
               <InterpolatingParam id="2206" interp="linr"  time="-9999999/1" value="0" leadInLength="0/1"  />
               <InterpolatingParam id="2207" interp="linr"  time="-9999999/1" value="0" leadInLength="0/1"  />
              </VectorParam>
              <VectorParam id="2208"  name="scale">
               <InterpolatingParam id="2209" interp="linr"  time="-9999999/1" value="1" leadInLength="0/1"  />
               <InterpolatingParam id="2210" interp="linr"  time="-9999999/1" value="1" leadInLength="0/1"  />
               <InterpolatingParam id="2211" interp="linr"  time="-9999999/1" value="1" leadInLength="0/1"  />
              </VectorParam>
              <VectorParam id="2212"  name="anchor">
               <InterpolatingParam id="2213" interp="linr"  time="0/1" value="0" leadInLength="0/1"  />
               <InterpolatingParam id="2214" interp="linr"  time="0/1" value="0" leadInLength="0/1"  />
               <InterpolatingParam id="2215" interp="linr"  time="0/1" value="0" leadInLength="0/1"  />
              </VectorParam>
             </Transformer>
             <Parameters>
              <VectorParam id="2216"  name="sourceCrop">
               <InterpolatingParam id="2217" interp="linr"  time="0/1" value="0" leadInLength="0/1"  />
               <InterpolatingParam id="2218" interp="linr"  time="0/1" value="0" leadInLength="0/1"  />
               <InterpolatingParam id="2219" interp="linr"  time="0/1" value="0" leadInLength="0/1"  />
               <InterpolatingParam id="2220" interp="linr"  time="0/1" value="0" leadInLength="0/1"  />
              </VectorParam>
              <VectorParam id="2221"  name="geometryCrop">
               <InterpolatingParam id="2222" interp="linr"  time="-9999999/1" value="0" leadInLength="0/1"  />
               <InterpolatingParam id="2223" interp="linr"  time="-9999999/1" value="0" leadInLength="0/1"  />
               <InterpolatingParam id="2224" interp="linr"  time="-9999999/1" value="0" leadInLength="0/1"  />
               <InterpolatingParam id="2225" interp="linr"  time="-9999999/1" value="0" leadInLength="0/1"  />
              </VectorParam>
              <InterpolatingParam id="2226" interp="linr"  time="-9999999/1" value="1" leadInLength="0/1"  name="opacity"/>
             </Parameters>
             <Attributes>
              <Attribute id="2227" value="" name="ident"/>
             </Attributes>
             <ExtraData>
              <Entry key="ZoomPanBin">
               <ZoomPanBin id="2228"  >
                <ZoomPanKeyframes>
                 <ZoomPanKeyframe id="2229" timeRangeEnd="-9999999/1" timeRangeDuration="0/1" interpolaterName=""  />
                </ZoomPanKeyframes>
               </ZoomPanBin>
              </Entry>
             </ExtraData>
            </VMFile>
            <MetaData>
             <entry key="WinSubProjectDisplayName" val=""/>
            </MetaData>
           </UnifiedMedia>
           <UnifiedMedia id="2230"  >
            <AMFile id="2231" start="753" duration="1376" scalar="1/1" mediaStart="821/1" mediaDuration="1376/1" trackNumber="2" src="4" channelNumber="0,1" >
             <Parameters>
              <InterpolatingParam id="2232" interp="linr"  time="0/1" value="1" leadInLength="0/1"  name="volume"/>
              <Parameter id="2233"  name="captions"/>
             </Parameters>
             <Attributes>
              <Attribute id="2234" value="" name="ident"/>
              <Attribute id="2235" value="44100" name="sampleRate"/>
              <Attribute id="2236" value="16" name="bitDepth"/>
              <Attribute id="2237" value="1" name="gain"/>
              <Attribute id="2238" value="0" name="mixToMono"/>
             </Attributes>
            </AMFile>
            <VMFile id="2239" start="753" duration="1376" scalar="1/1" mediaStart="821/1" mediaDuration="1376/1" trackNumber="1" src="4" >
             <Transformer>
              <VectorParam id="2240"  name="translation">
               <InterpolatingParam id="2241" interp="linr"  time="-9999999/1" value="0" leadInLength="0/1"  />
               <InterpolatingParam id="2242" interp="linr"  time="-9999999/1" value="0" leadInLength="0/1"  />
               <InterpolatingParam id="2243" interp="linr"  time="-9999999/1" value="0" leadInLength="0/1"  />
              </VectorParam>
              <VectorParam id="2244"  name="rotation">
               <InterpolatingParam id="2245" interp="linr"  time="-9999999/1" value="0" leadInLength="0/1"  />
               <InterpolatingParam id="2246" interp="linr"  time="-9999999/1" value="0" leadInLength="0/1"  />
               <InterpolatingParam id="2247" interp="linr"  time="-9999999/1" value="0" leadInLength="0/1"  />
              </VectorParam>
              <VectorParam id="2248"  name="shear">
               <InterpolatingParam id="2249" interp="linr"  time="-9999999/1" value="0" leadInLength="0/1"  />
               <InterpolatingParam id="2250" interp="linr"  time="-9999999/1" value="0" leadInLength="0/1"  />
               <InterpolatingParam id="2251" interp="linr"  time="-9999999/1" value="0" leadInLength="0/1"  />
              </VectorParam>
              <VectorParam id="2252"  name="scale">
               <InterpolatingParam id="2253" interp="linr"  time="-9999999/1" value="1" leadInLength="0/1"  />
               <InterpolatingParam id="2254" interp="linr"  time="-9999999/1" value="1" leadInLength="0/1"  />
               <InterpolatingParam id="2255" interp="linr"  time="-9999999/1" value="1" leadInLength="0/1"  />
              </VectorParam>
              <VectorParam id="2256"  name="anchor">
               <InterpolatingParam id="2257" interp="linr"  time="0/1" value="0" leadInLength="0/1"  />
               <InterpolatingParam id="2258" interp="linr"  time="0/1" value="0" leadInLength="0/1"  />
               <InterpolatingParam id="2259" interp="linr"  time="0/1" value="0" leadInLength="0/1"  />
              </VectorParam>
             </Transformer>
             <Parameters>
              <VectorParam id="2260"  name="sourceCrop">
               <InterpolatingParam id="2261" interp="linr"  time="0/1" value="0" leadInLength="0/1"  />
               <InterpolatingParam id="2262" interp="linr"  time="0/1" value="0" leadInLength="0/1"  />
               <InterpolatingParam id="2263" interp="linr"  time="0/1" value="0" leadInLength="0/1"  />
               <InterpolatingParam id="2264" interp="linr"  time="0/1" value="0" leadInLength="0/1"  />
              </VectorParam>
              <VectorParam id="2265"  name="geometryCrop">
               <InterpolatingParam id="2266" interp="linr"  time="-9999999/1" value="0" leadInLength="0/1"  />
               <InterpolatingParam id="2267" interp="linr"  time="-9999999/1" value="0" leadInLength="0/1"  />
               <InterpolatingParam id="2268" interp="linr"  time="-9999999/1" value="0" leadInLength="0/1"  />
               <InterpolatingParam id="2269" interp="linr"  time="-9999999/1" value="0" leadInLength="0/1"  />
              </VectorParam>
              <InterpolatingParam id="2270" interp="linr"  time="-9999999/1" value="1" leadInLength="0/1"  name="opacity"/>
             </Parameters>
             <Attributes>
              <Attribute id="2271" value="" name="ident"/>
             </Attributes>
             <ExtraData>
              <Entry key="ZoomPanBin">
               <ZoomPanBin id="2272"  >
                <ZoomPanKeyframes>
                 <ZoomPanKeyframe id="2273" timeRangeEnd="-9999999/1" timeRangeDuration="0/1" interpolaterName=""  />
                </ZoomPanKeyframes>
               </ZoomPanBin>
              </Entry>
             </ExtraData>
            </VMFile>
            <MetaData>
             <entry key="WinSubProjectDisplayName" val=""/>
            </MetaData>
           </UnifiedMedia>
           <UnifiedMedia id="2274"  >
            <AMFile id="2275" start="2129" duration="803" scalar="1/1" mediaStart="2235/1" mediaDuration="803/1" trackNumber="2" src="4" channelNumber="0,1" >
             <Parameters>
              <InterpolatingParam id="2276" interp="linr"  time="0/1" value="1" leadInLength="0/1"  name="volume"/>
              <Parameter id="2277"  name="captions"/>
             </Parameters>
             <Attributes>
              <Attribute id="2278" value="" name="ident"/>
              <Attribute id="2279" value="44100" name="sampleRate"/>
              <Attribute id="2280" value="16" name="bitDepth"/>
              <Attribute id="2281" value="1" name="gain"/>
              <Attribute id="2282" value="0" name="mixToMono"/>
             </Attributes>
            </AMFile>
            <VMFile id="2283" start="2129" duration="803" scalar="1/1" mediaStart="2235/1" mediaDuration="803/1" trackNumber="1" src="4" >
             <Transformer>
              <VectorParam id="2284"  name="translation">
               <InterpolatingParam id="2285" interp="linr"  time="-9999999/1" value="0" leadInLength="0/1"  />
               <InterpolatingParam id="2286" interp="linr"  time="-9999999/1" value="0" leadInLength="0/1"  />
               <InterpolatingParam id="2287" interp="linr"  time="-9999999/1" value="0" leadInLength="0/1"  />
              </VectorParam>
              <VectorParam id="2288"  name="rotation">
               <InterpolatingParam id="2289" interp="linr"  time="-9999999/1" value="0" leadInLength="0/1"  />
               <InterpolatingParam id="2290" interp="linr"  time="-9999999/1" value="0" leadInLength="0/1"  />
               <InterpolatingParam id="2291" interp="linr"  time="-9999999/1" value="0" leadInLength="0/1"  />
              </VectorParam>
              <VectorParam id="2292"  name="shear">
               <InterpolatingParam id="2293" interp="linr"  time="-9999999/1" value="0" leadInLength="0/1"  />
               <InterpolatingParam id="2294" interp="linr"  time="-9999999/1" value="0" leadInLength="0/1"  />
               <InterpolatingParam id="2295" interp="linr"  time="-9999999/1" value="0" leadInLength="0/1"  />
              </VectorParam>
              <VectorParam id="2296"  name="scale">
               <InterpolatingParam id="2297" interp="linr"  time="-9999999/1" value="1" leadInLength="0/1"  />
               <InterpolatingParam id="2298" interp="linr"  time="-9999999/1" value="1" leadInLength="0/1"  />
               <InterpolatingParam id="2299" interp="linr"  time="-9999999/1" value="1" leadInLength="0/1"  />
              </VectorParam>
              <VectorParam id="2300"  name="anchor">
               <InterpolatingParam id="2301" interp="linr"  time="0/1" value="0" leadInLength="0/1"  />
               <InterpolatingParam id="2302" interp="linr"  time="0/1" value="0" leadInLength="0/1"  />
               <InterpolatingParam id="2303" interp="linr"  time="0/1" value="0" leadInLength="0/1"  />
              </VectorParam>
             </Transformer>
             <Parameters>
              <VectorParam id="2304"  name="sourceCrop">
               <InterpolatingParam id="2305" interp="linr"  time="0/1" value="0" leadInLength="0/1"  />
               <InterpolatingParam id="2306" interp="linr"  time="0/1" value="0" leadInLength="0/1"  />
               <InterpolatingParam id="2307" interp="linr"  time="0/1" value="0" leadInLength="0/1"  />
               <InterpolatingParam id="2308" interp="linr"  time="0/1" value="0" leadInLength="0/1"  />
              </VectorParam>
              <VectorParam id="2309"  name="geometryCrop">
               <InterpolatingParam id="2310" interp="linr"  time="-9999999/1" value="0" leadInLength="0/1"  />
               <InterpolatingParam id="2311" interp="linr"  time="-9999999/1" value="0" leadInLength="0/1"  />
               <InterpolatingParam id="2312" interp="linr"  time="-9999999/1" value="0" leadInLength="0/1"  />
               <InterpolatingParam id="2313" interp="linr"  time="-9999999/1" value="0" leadInLength="0/1"  />
              </VectorParam>
              <InterpolatingParam id="2314" interp="linr"  time="-9999999/1" value="1" leadInLength="0/1"  name="opacity"/>
             </Parameters>
             <Attributes>
              <Attribute id="2315" value="" name="ident"/>
             </Attributes>
             <ExtraData>
              <Entry key="ZoomPanBin">
               <ZoomPanBin id="2316"  >
                <ZoomPanKeyframes>
                 <ZoomPanKeyframe id="2317" timeRangeEnd="-9999999/1" timeRangeDuration="0/1" interpolaterName=""  />
                </ZoomPanKeyframes>
               </ZoomPanBin>
              </Entry>
             </ExtraData>
            </VMFile>
            <MetaData>
             <entry key="WinSubProjectDisplayName" val=""/>
            </MetaData>
           </UnifiedMedia>
           <UnifiedMedia id="2318"  >
            <AMFile id="2319" start="2932" duration="518" scalar="1/1" mediaStart="3458/1" mediaDuration="518/1" trackNumber="2" src="4" channelNumber="0,1" >
             <Parameters>
              <InterpolatingParam id="2320" interp="linr"  time="0/1" value="1" leadInLength="0/1"  name="volume"/>
              <Parameter id="2321"  name="captions"/>
             </Parameters>
             <Attributes>
              <Attribute id="2322" value="" name="ident"/>
              <Attribute id="2323" value="44100" name="sampleRate"/>
              <Attribute id="2324" value="16" name="bitDepth"/>
              <Attribute id="2325" value="1" name="gain"/>
              <Attribute id="2326" value="0" name="mixToMono"/>
             </Attributes>
            </AMFile>
            <VMFile id="2327" start="2932" duration="518" scalar="1/1" mediaStart="3458/1" mediaDuration="518/1" trackNumber="1" src="4" >
             <Transformer>
              <VectorParam id="2328"  name="translation">
               <InterpolatingParam id="2329" interp="linr"  time="-9999999/1" value="0" leadInLength="0/1"  />
               <InterpolatingParam id="2330" interp="linr"  time="-9999999/1" value="0" leadInLength="0/1"  />
               <InterpolatingParam id="2331" interp="linr"  time="-9999999/1" value="0" leadInLength="0/1"  />
              </VectorParam>
              <VectorParam id="2332"  name="rotation">
               <InterpolatingParam id="2333" interp="linr"  time="-9999999/1" value="0" leadInLength="0/1"  />
               <InterpolatingParam id="2334" interp="linr"  time="-9999999/1" value="0" leadInLength="0/1"  />
               <InterpolatingParam id="2335" interp="linr"  time="-9999999/1" value="0" leadInLength="0/1"  />
              </VectorParam>
              <VectorParam id="2336"  name="shear">
               <InterpolatingParam id="2337" interp="linr"  time="-9999999/1" value="0" leadInLength="0/1"  />
               <InterpolatingParam id="2338" interp="linr"  time="-9999999/1" value="0" leadInLength="0/1"  />
               <InterpolatingParam id="2339" interp="linr"  time="-9999999/1" value="0" leadInLength="0/1"  />
              </VectorParam>
              <VectorParam id="2340"  name="scale">
               <InterpolatingParam id="2341" interp="linr"  time="-9999999/1" value="1" leadInLength="0/1"  />
               <InterpolatingParam id="2342" interp="linr"  time="-9999999/1" value="1" leadInLength="0/1"  />
               <InterpolatingParam id="2343" interp="linr"  time="-9999999/1" value="1" leadInLength="0/1"  />
              </VectorParam>
              <VectorParam id="2344"  name="anchor">
               <InterpolatingParam id="2345" interp="linr"  time="0/1" value="0" leadInLength="0/1"  />
               <InterpolatingParam id="2346" interp="linr"  time="0/1" value="0" leadInLength="0/1"  />
               <InterpolatingParam id="2347" interp="linr"  time="0/1" value="0" leadInLength="0/1"  />
              </VectorParam>
             </Transformer>
             <Parameters>
              <VectorParam id="2348"  name="sourceCrop">
               <InterpolatingParam id="2349" interp="linr"  time="0/1" value="0" leadInLength="0/1"  />
               <InterpolatingParam id="2350" interp="linr"  time="0/1" value="0" leadInLength="0/1"  />
               <InterpolatingParam id="2351" interp="linr"  time="0/1" value="0" leadInLength="0/1"  />
               <InterpolatingParam id="2352" interp="linr"  time="0/1" value="0" leadInLength="0/1"  />
              </VectorParam>
              <VectorParam id="2353"  name="geometryCrop">
               <InterpolatingParam id="2354" interp="linr"  time="-9999999/1" value="0" leadInLength="0/1"  />
               <InterpolatingParam id="2355" interp="linr"  time="-9999999/1" value="0" leadInLength="0/1"  />
               <InterpolatingParam id="2356" interp="linr"  time="-9999999/1" value="0" leadInLength="0/1"  />
               <InterpolatingParam id="2357" interp="linr"  time="-9999999/1" value="0" leadInLength="0/1"  />
              </VectorParam>
              <InterpolatingParam id="2358" interp="linr"  time="-9999999/1" value="1" leadInLength="0/1"  name="opacity"/>
             </Parameters>
             <Attributes>
              <Attribute id="2359" value="" name="ident"/>
             </Attributes>
             <ExtraData>
              <Entry key="ZoomPanBin">
               <ZoomPanBin id="2360"  >
                <ZoomPanKeyframes>
                 <ZoomPanKeyframe id="2361" timeRangeEnd="-9999999/1" timeRangeDuration="0/1" interpolaterName=""  />
                </ZoomPanKeyframes>
               </ZoomPanBin>
              </Entry>
             </ExtraData>
            </VMFile>
            <MetaData>
             <entry key="WinSubProjectDisplayName" val=""/>
            </MetaData>
           </UnifiedMedia>
           <UnifiedMedia id="2362"  >
            <AMFile id="2363" start="3450" duration="954" scalar="1/1" mediaStart="4994/1" mediaDuration="954/1" trackNumber="2" src="4" channelNumber="0,1" >
             <Parameters>
              <InterpolatingParam id="2364" interp="linr"  time="0/1" value="1" leadInLength="0/1"  name="volume"/>
              <Parameter id="2365"  name="captions"/>
             </Parameters>
             <Attributes>
              <Attribute id="2366" value="" name="ident"/>
              <Attribute id="2367" value="44100" name="sampleRate"/>
              <Attribute id="2368" value="16" name="bitDepth"/>
              <Attribute id="2369" value="1" name="gain"/>
              <Attribute id="2370" value="0" name="mixToMono"/>
             </Attributes>
            </AMFile>
            <VMFile id="2371" start="3450" duration="954" scalar="1/1" mediaStart="4994/1" mediaDuration="954/1" trackNumber="1" src="4" >
             <Transformer>
              <VectorParam id="2372"  name="translation">
               <InterpolatingParam id="2373" interp="linr"  time="-9999999/1" value="0" leadInLength="0/1"  />
               <InterpolatingParam id="2374" interp="linr"  time="-9999999/1" value="0" leadInLength="0/1"  />
               <InterpolatingParam id="2375" interp="linr"  time="-9999999/1" value="0" leadInLength="0/1"  />
              </VectorParam>
              <VectorParam id="2376"  name="rotation">
               <InterpolatingParam id="2377" interp="linr"  time="-9999999/1" value="0" leadInLength="0/1"  />
               <InterpolatingParam id="2378" interp="linr"  time="-9999999/1" value="0" leadInLength="0/1"  />
               <InterpolatingParam id="2379" interp="linr"  time="-9999999/1" value="0" leadInLength="0/1"  />
              </VectorParam>
              <VectorParam id="2380"  name="shear">
               <InterpolatingParam id="2381" interp="linr"  time="-9999999/1" value="0" leadInLength="0/1"  />
               <InterpolatingParam id="2382" interp="linr"  time="-9999999/1" value="0" leadInLength="0/1"  />
               <InterpolatingParam id="2383" interp="linr"  time="-9999999/1" value="0" leadInLength="0/1"  />
              </VectorParam>
              <VectorParam id="2384"  name="scale">
               <InterpolatingParam id="2385" interp="linr"  time="-9999999/1" value="1" leadInLength="0/1"  />
               <InterpolatingParam id="2386" interp="linr"  time="-9999999/1" value="1" leadInLength="0/1"  />
               <InterpolatingParam id="2387" interp="linr"  time="-9999999/1" value="1" leadInLength="0/1"  />
              </VectorParam>
              <VectorParam id="2388"  name="anchor">
               <InterpolatingParam id="2389" interp="linr"  time="0/1" value="0" leadInLength="0/1"  />
               <InterpolatingParam id="2390" interp="linr"  time="0/1" value="0" leadInLength="0/1"  />
               <InterpolatingParam id="2391" interp="linr"  time="0/1" value="0" leadInLength="0/1"  />
              </VectorParam>
             </Transformer>
             <Parameters>
              <VectorParam id="2392"  name="sourceCrop">
               <InterpolatingParam id="2393" interp="linr"  time="0/1" value="0" leadInLength="0/1"  />
               <InterpolatingParam id="2394" interp="linr"  time="0/1" value="0" leadInLength="0/1"  />
               <InterpolatingParam id="2395" interp="linr"  time="0/1" value="0" leadInLength="0/1"  />
               <InterpolatingParam id="2396" interp="linr"  time="0/1" value="0" leadInLength="0/1"  />
              </VectorParam>
              <VectorParam id="2397"  name="geometryCrop">
               <InterpolatingParam id="2398" interp="linr"  time="-9999999/1" value="0" leadInLength="0/1"  />
               <InterpolatingParam id="2399" interp="linr"  time="-9999999/1" value="0" leadInLength="0/1"  />
               <InterpolatingParam id="2400" interp="linr"  time="-9999999/1" value="0" leadInLength="0/1"  />
               <InterpolatingParam id="2401" interp="linr"  time="-9999999/1" value="0" leadInLength="0/1"  />
              </VectorParam>
              <InterpolatingParam id="2402" interp="linr"  time="-9999999/1" value="1" leadInLength="0/1"  name="opacity"/>
             </Parameters>
             <Attributes>
              <Attribute id="2403" value="" name="ident"/>
             </Attributes>
             <ExtraData>
              <Entry key="ZoomPanBin">
               <ZoomPanBin id="2404"  >
                <ZoomPanKeyframes>
                 <ZoomPanKeyframe id="2405" timeRangeEnd="-9999999/1" timeRangeDuration="0/1" interpolaterName=""  />
                </ZoomPanKeyframes>
               </ZoomPanBin>
              </Entry>
             </ExtraData>
            </VMFile>
            <MetaData>
             <entry key="WinSubProjectDisplayName" val=""/>
            </MetaData>
           </UnifiedMedia>
           <UnifiedMedia id="2406"  >
            <AMFile id="2407" start="4404" duration="443" scalar="1/1" mediaStart="6053/1" mediaDuration="443/1" trackNumber="2" src="4" channelNumber="0,1" >
             <Parameters>
              <InterpolatingParam id="2408" interp="linr"  time="0/1" value="1" leadInLength="0/1"  name="volume"/>
              <Parameter id="2409"  name="captions"/>
             </Parameters>
             <Attributes>
              <Attribute id="2410" value="" name="ident"/>
              <Attribute id="2411" value="44100" name="sampleRate"/>
              <Attribute id="2412" value="16" name="bitDepth"/>
              <Attribute id="2413" value="1" name="gain"/>
              <Attribute id="2414" value="0" name="mixToMono"/>
             </Attributes>
            </AMFile>
            <VMFile id="2415" start="4404" duration="443" scalar="1/1" mediaStart="6053/1" mediaDuration="443/1" trackNumber="1" src="4" >
             <Transformer>
              <VectorParam id="2416"  name="translation">
               <InterpolatingParam id="2417" interp="linr"  time="-9999999/1" value="0" leadInLength="0/1"  />
               <InterpolatingParam id="2418" interp="linr"  time="-9999999/1" value="0" leadInLength="0/1"  />
               <InterpolatingParam id="2419" interp="linr"  time="-9999999/1" value="0" leadInLength="0/1"  />
              </VectorParam>
              <VectorParam id="2420"  name="rotation">
               <InterpolatingParam id="2421" interp="linr"  time="-9999999/1" value="0" leadInLength="0/1"  />
               <InterpolatingParam id="2422" interp="linr"  time="-9999999/1" value="0" leadInLength="0/1"  />
               <InterpolatingParam id="2423" interp="linr"  time="-9999999/1" value="0" leadInLength="0/1"  />
              </VectorParam>
              <VectorParam id="2424"  name="shear">
               <InterpolatingParam id="2425" interp="linr"  time="-9999999/1" value="0" leadInLength="0/1"  />
               <InterpolatingParam id="2426" interp="linr"  time="-9999999/1" value="0" leadInLength="0/1"  />
               <InterpolatingParam id="2427" interp="linr"  time="-9999999/1" value="0" leadInLength="0/1"  />
              </VectorParam>
              <VectorParam id="2428"  name="scale">
               <InterpolatingParam id="2429" interp="linr"  time="-9999999/1" value="1" leadInLength="0/1"  />
               <InterpolatingParam id="2430" interp="linr"  time="-9999999/1" value="1" leadInLength="0/1"  />
               <InterpolatingParam id="2431" interp="linr"  time="-9999999/1" value="1" leadInLength="0/1"  />
              </VectorParam>
              <VectorParam id="2432"  name="anchor">
               <InterpolatingParam id="2433" interp="linr"  time="0/1" value="0" leadInLength="0/1"  />
               <InterpolatingParam id="2434" interp="linr"  time="0/1" value="0" leadInLength="0/1"  />
               <InterpolatingParam id="2435" interp="linr"  time="0/1" value="0" leadInLength="0/1"  />
              </VectorParam>
             </Transformer>
             <Parameters>
              <VectorParam id="2436"  name="sourceCrop">
               <InterpolatingParam id="2437" interp="linr"  time="0/1" value="0" leadInLength="0/1"  />
               <InterpolatingParam id="2438" interp="linr"  time="0/1" value="0" leadInLength="0/1"  />
               <InterpolatingParam id="2439" interp="linr"  time="0/1" value="0" leadInLength="0/1"  />
               <InterpolatingParam id="2440" interp="linr"  time="0/1" value="0" leadInLength="0/1"  />
              </VectorParam>
              <VectorParam id="2441"  name="geometryCrop">
               <InterpolatingParam id="2442" interp="linr"  time="-9999999/1" value="0" leadInLength="0/1"  />
               <InterpolatingParam id="2443" interp="linr"  time="-9999999/1" value="0" leadInLength="0/1"  />
               <InterpolatingParam id="2444" interp="linr"  time="-9999999/1" value="0" leadInLength="0/1"  />
               <InterpolatingParam id="2445" interp="linr"  time="-9999999/1" value="0" leadInLength="0/1"  />
              </VectorParam>
              <InterpolatingParam id="2446" interp="linr"  time="-9999999/1" value="1" leadInLength="0/1"  name="opacity"/>
             </Parameters>
             <Attributes>
              <Attribute id="2447" value="" name="ident"/>
             </Attributes>
             <ExtraData>
              <Entry key="ZoomPanBin">
               <ZoomPanBin id="2448"  >
                <ZoomPanKeyframes>
                 <ZoomPanKeyframe id="2449" timeRangeEnd="-9999999/1" timeRangeDuration="0/1" interpolaterName=""  />
                </ZoomPanKeyframes>
               </ZoomPanBin>
              </Entry>
             </ExtraData>
            </VMFile>
            <MetaData>
             <entry key="WinSubProjectDisplayName" val=""/>
            </MetaData>
           </UnifiedMedia>
           <UnifiedMedia id="2450"  >
            <AMFile id="2451" start="4847" duration="162" scalar="1/1" mediaStart="6920/1" mediaDuration="162/1" trackNumber="2" src="4" channelNumber="0,1" >
             <Parameters>
              <InterpolatingParam id="2452" interp="linr"  time="0/1" value="1" leadInLength="0/1"  name="volume"/>
              <Parameter id="2453"  name="captions"/>
             </Parameters>
             <Attributes>
              <Attribute id="2454" value="" name="ident"/>
              <Attribute id="2455" value="44100" name="sampleRate"/>
              <Attribute id="2456" value="16" name="bitDepth"/>
              <Attribute id="2457" value="1" name="gain"/>
              <Attribute id="2458" value="0" name="mixToMono"/>
             </Attributes>
            </AMFile>
            <VMFile id="2459" start="4847" duration="162" scalar="1/1" mediaStart="6920/1" mediaDuration="162/1" trackNumber="1" src="4" >
             <Transformer>
              <VectorParam id="2460"  name="translation">
               <InterpolatingParam id="2461" interp="linr"  time="-9999999/1" value="0" leadInLength="0/1"  />
               <InterpolatingParam id="2462" interp="linr"  time="-9999999/1" value="0" leadInLength="0/1"  />
               <InterpolatingParam id="2463" interp="linr"  time="-9999999/1" value="0" leadInLength="0/1"  />
              </VectorParam>
              <VectorParam id="2464"  name="rotation">
               <InterpolatingParam id="2465" interp="linr"  time="-9999999/1" value="0" leadInLength="0/1"  />
               <InterpolatingParam id="2466" interp="linr"  time="-9999999/1" value="0" leadInLength="0/1"  />
               <InterpolatingParam id="2467" interp="linr"  time="-9999999/1" value="0" leadInLength="0/1"  />
              </VectorParam>
              <VectorParam id="2468"  name="shear">
               <InterpolatingParam id="2469" interp="linr"  time="-9999999/1" value="0" leadInLength="0/1"  />
               <InterpolatingParam id="2470" interp="linr"  time="-9999999/1" value="0" leadInLength="0/1"  />
               <InterpolatingParam id="2471" interp="linr"  time="-9999999/1" value="0" leadInLength="0/1"  />
              </VectorParam>
              <VectorParam id="2472"  name="scale">
               <InterpolatingParam id="2473" interp="linr"  time="-9999999/1" value="1" leadInLength="0/1"  />
               <InterpolatingParam id="2474" interp="linr"  time="-9999999/1" value="1" leadInLength="0/1"  />
               <InterpolatingParam id="2475" interp="linr"  time="-9999999/1" value="1" leadInLength="0/1"  />
              </VectorParam>
              <VectorParam id="2476"  name="anchor">
               <InterpolatingParam id="2477" interp="linr"  time="0/1" value="0" leadInLength="0/1"  />
               <InterpolatingParam id="2478" interp="linr"  time="0/1" value="0" leadInLength="0/1"  />
               <InterpolatingParam id="2479" interp="linr"  time="0/1" value="0" leadInLength="0/1"  />
              </VectorParam>
             </Transformer>
             <Parameters>
              <VectorParam id="2480"  name="sourceCrop">
               <InterpolatingParam id="2481" interp="linr"  time="0/1" value="0" leadInLength="0/1"  />
               <InterpolatingParam id="2482" interp="linr"  time="0/1" value="0" leadInLength="0/1"  />
               <InterpolatingParam id="2483" interp="linr"  time="0/1" value="0" leadInLength="0/1"  />
               <InterpolatingParam id="2484" interp="linr"  time="0/1" value="0" leadInLength="0/1"  />
              </VectorParam>
              <VectorParam id="2485"  name="geometryCrop">
               <InterpolatingParam id="2486" interp="linr"  time="-9999999/1" value="0" leadInLength="0/1"  />
               <InterpolatingParam id="2487" interp="linr"  time="-9999999/1" value="0" leadInLength="0/1"  />
               <InterpolatingParam id="2488" interp="linr"  time="-9999999/1" value="0" leadInLength="0/1"  />
               <InterpolatingParam id="2489" interp="linr"  time="-9999999/1" value="0" leadInLength="0/1"  />
              </VectorParam>
              <InterpolatingParam id="2490" interp="linr"  time="-9999999/1" value="1" leadInLength="0/1"  name="opacity"/>
             </Parameters>
             <Attributes>
              <Attribute id="2491" value="" name="ident"/>
             </Attributes>
             <ExtraData>
              <Entry key="ZoomPanBin">
               <ZoomPanBin id="2492"  >
                <ZoomPanKeyframes>
                 <ZoomPanKeyframe id="2493" timeRangeEnd="-9999999/1" timeRangeDuration="0/1" interpolaterName=""  />
                </ZoomPanKeyframes>
               </ZoomPanBin>
              </Entry>
             </ExtraData>
            </VMFile>
            <MetaData>
             <entry key="WinSubProjectDisplayName" val=""/>
            </MetaData>
           </UnifiedMedia>
           <UnifiedMedia id="2494"  >
            <AMFile id="2495" start="5009" duration="58" scalar="1/1" mediaStart="7393/1" mediaDuration="58/1" trackNumber="2" src="4" channelNumber="0,1" >
             <Parameters>
              <InterpolatingParam id="2496" interp="linr"  time="0/1" value="1" leadInLength="0/1"  name="volume"/>
              <Parameter id="2497"  name="captions"/>
             </Parameters>
             <Attributes>
              <Attribute id="2498" value="" name="ident"/>
              <Attribute id="2499" value="44100" name="sampleRate"/>
              <Attribute id="2500" value="16" name="bitDepth"/>
              <Attribute id="2501" value="1" name="gain"/>
              <Attribute id="2502" value="0" name="mixToMono"/>
             </Attributes>
            </AMFile>
            <VMFile id="2503" start="5009" duration="58" scalar="1/1" mediaStart="7393/1" mediaDuration="58/1" trackNumber="1" src="4" >
             <Transformer>
              <VectorParam id="2504"  name="translation">
               <InterpolatingParam id="2505" interp="linr"  time="-9999999/1" value="0" leadInLength="0/1"  />
               <InterpolatingParam id="2506" interp="linr"  time="-9999999/1" value="0" leadInLength="0/1"  />
               <InterpolatingParam id="2507" interp="linr"  time="-9999999/1" value="0" leadInLength="0/1"  />
              </VectorParam>
              <VectorParam id="2508"  name="rotation">
               <InterpolatingParam id="2509" interp="linr"  time="-9999999/1" value="0" leadInLength="0/1"  />
               <InterpolatingParam id="2510" interp="linr"  time="-9999999/1" value="0" leadInLength="0/1"  />
               <InterpolatingParam id="2511" interp="linr"  time="-9999999/1" value="0" leadInLength="0/1"  />
              </VectorParam>
              <VectorParam id="2512"  name="shear">
               <InterpolatingParam id="2513" interp="linr"  time="-9999999/1" value="0" leadInLength="0/1"  />
               <InterpolatingParam id="2514" interp="linr"  time="-9999999/1" value="0" leadInLength="0/1"  />
               <InterpolatingParam id="2515" interp="linr"  time="-9999999/1" value="0" leadInLength="0/1"  />
              </VectorParam>
              <VectorParam id="2516"  name="scale">
               <InterpolatingParam id="2517" interp="linr"  time="-9999999/1" value="1" leadInLength="0/1"  />
               <InterpolatingParam id="2518" interp="linr"  time="-9999999/1" value="1" leadInLength="0/1"  />
               <InterpolatingParam id="2519" interp="linr"  time="-9999999/1" value="1" leadInLength="0/1"  />
              </VectorParam>
              <VectorParam id="2520"  name="anchor">
               <InterpolatingParam id="2521" interp="linr"  time="0/1" value="0" leadInLength="0/1"  />
               <InterpolatingParam id="2522" interp="linr"  time="0/1" value="0" leadInLength="0/1"  />
               <InterpolatingParam id="2523" interp="linr"  time="0/1" value="0" leadInLength="0/1"  />
              </VectorParam>
             </Transformer>
             <Parameters>
              <VectorParam id="2524"  name="sourceCrop">
               <InterpolatingParam id="2525" interp="linr"  time="0/1" value="0" leadInLength="0/1"  />
               <InterpolatingParam id="2526" interp="linr"  time="0/1" value="0" leadInLength="0/1"  />
               <InterpolatingParam id="2527" interp="linr"  time="0/1" value="0" leadInLength="0/1"  />
               <InterpolatingParam id="2528" interp="linr"  time="0/1" value="0" leadInLength="0/1"  />
              </VectorParam>
              <VectorParam id="2529"  name="geometryCrop">
               <InterpolatingParam id="2530" interp="linr"  time="-9999999/1" value="0" leadInLength="0/1"  />
               <InterpolatingParam id="2531" interp="linr"  time="-9999999/1" value="0" leadInLength="0/1"  />
               <InterpolatingParam id="2532" interp="linr"  time="-9999999/1" value="0" leadInLength="0/1"  />
               <InterpolatingParam id="2533" interp="linr"  time="-9999999/1" value="0" leadInLength="0/1"  />
              </VectorParam>
              <InterpolatingParam id="2534" interp="linr"  time="-9999999/1" value="1" leadInLength="0/1"  name="opacity"/>
             </Parameters>
             <Attributes>
              <Attribute id="2535" value="" name="ident"/>
             </Attributes>
             <ExtraData>
              <Entry key="ZoomPanBin">
               <ZoomPanBin id="2536"  >
                <ZoomPanKeyframes>
                 <ZoomPanKeyframe id="2537" timeRangeEnd="-9999999/1" timeRangeDuration="0/1" interpolaterName=""  />
                </ZoomPanKeyframes>
               </ZoomPanBin>
              </Entry>
             </ExtraData>
            </VMFile>
            <MetaData>
             <entry key="WinSubProjectDisplayName" val=""/>
            </MetaData>
           </UnifiedMedia>
           <UnifiedMedia id="2538"  >
            <AMFile id="2539" start="5067" duration="700" scalar="1/1" mediaStart="7474/1" mediaDuration="700/1" trackNumber="2" src="4" channelNumber="0,1" >
             <Parameters>
              <InterpolatingParam id="2540" interp="linr"  time="0/1" value="1" leadInLength="0/1"  name="volume"/>
              <Parameter id="2541"  name="captions"/>
             </Parameters>
             <Attributes>
              <Attribute id="2542" value="" name="ident"/>
              <Attribute id="2543" value="44100" name="sampleRate"/>
              <Attribute id="2544" value="16" name="bitDepth"/>
              <Attribute id="2545" value="1" name="gain"/>
              <Attribute id="2546" value="0" name="mixToMono"/>
             </Attributes>
            </AMFile>
            <VMFile id="2547" start="5067" duration="700" scalar="1/1" mediaStart="7474/1" mediaDuration="700/1" trackNumber="1" src="4" >
             <Transformer>
              <VectorParam id="2548"  name="translation">
               <InterpolatingParam id="2549" interp="linr"  time="-9999999/1" value="0" leadInLength="0/1"  />
               <InterpolatingParam id="2550" interp="linr"  time="-9999999/1" value="0" leadInLength="0/1"  />
               <InterpolatingParam id="2551" interp="linr"  time="-9999999/1" value="0" leadInLength="0/1"  />
              </VectorParam>
              <VectorParam id="2552"  name="rotation">
               <InterpolatingParam id="2553" interp="linr"  time="-9999999/1" value="0" leadInLength="0/1"  />
               <InterpolatingParam id="2554" interp="linr"  time="-9999999/1" value="0" leadInLength="0/1"  />
               <InterpolatingParam id="2555" interp="linr"  time="-9999999/1" value="0" leadInLength="0/1"  />
              </VectorParam>
              <VectorParam id="2556"  name="shear">
               <InterpolatingParam id="2557" interp="linr"  time="-9999999/1" value="0" leadInLength="0/1"  />
               <InterpolatingParam id="2558" interp="linr"  time="-9999999/1" value="0" leadInLength="0/1"  />
               <InterpolatingParam id="2559" interp="linr"  time="-9999999/1" value="0" leadInLength="0/1"  />
              </VectorParam>
              <VectorParam id="2560"  name="scale">
               <InterpolatingParam id="2561" interp="linr"  time="-9999999/1" value="1" leadInLength="0/1"  />
               <InterpolatingParam id="2562" interp="linr"  time="-9999999/1" value="1" leadInLength="0/1"  />
               <InterpolatingParam id="2563" interp="linr"  time="-9999999/1" value="1" leadInLength="0/1"  />
              </VectorParam>
              <VectorParam id="2564"  name="anchor">
               <InterpolatingParam id="2565" interp="linr"  time="0/1" value="0" leadInLength="0/1"  />
               <InterpolatingParam id="2566" interp="linr"  time="0/1" value="0" leadInLength="0/1"  />
               <InterpolatingParam id="2567" interp="linr"  time="0/1" value="0" leadInLength="0/1"  />
              </VectorParam>
             </Transformer>
             <Parameters>
              <VectorParam id="2568"  name="sourceCrop">
               <InterpolatingParam id="2569" interp="linr"  time="0/1" value="0" leadInLength="0/1"  />
               <InterpolatingParam id="2570" interp="linr"  time="0/1" value="0" leadInLength="0/1"  />
               <InterpolatingParam id="2571" interp="linr"  time="0/1" value="0" leadInLength="0/1"  />
               <InterpolatingParam id="2572" interp="linr"  time="0/1" value="0" leadInLength="0/1"  />
              </VectorParam>
              <VectorParam id="2573"  name="geometryCrop">
               <InterpolatingParam id="2574" interp="linr"  time="-9999999/1" value="0" leadInLength="0/1"  />
               <InterpolatingParam id="2575" interp="linr"  time="-9999999/1" value="0" leadInLength="0/1"  />
               <InterpolatingParam id="2576" interp="linr"  time="-9999999/1" value="0" leadInLength="0/1"  />
               <InterpolatingParam id="2577" interp="linr"  time="-9999999/1" value="0" leadInLength="0/1"  />
              </VectorParam>
              <InterpolatingParam id="2578" interp="linr"  time="-9999999/1" value="1" leadInLength="0/1"  name="opacity"/>
             </Parameters>
             <Attributes>
              <Attribute id="2579" value="" name="ident"/>
             </Attributes>
             <ExtraData>
              <Entry key="ZoomPanBin">
               <ZoomPanBin id="2580"  >
                <ZoomPanKeyframes>
                 <ZoomPanKeyframe id="2581" timeRangeEnd="-9999999/1" timeRangeDuration="0/1" interpolaterName=""  />
                </ZoomPanKeyframes>
               </ZoomPanBin>
              </Entry>
             </ExtraData>
            </VMFile>
            <MetaData>
             <entry key="WinSubProjectDisplayName" val=""/>
            </MetaData>
           </UnifiedMedia>
           <UnifiedMedia id="2582"  >
            <AMFile id="2583" start="5767" duration="75" scalar="1/1" mediaStart="8190/1" mediaDuration="75/1" trackNumber="2" src="4" channelNumber="0,1" >
             <Parameters>
              <InterpolatingParam id="2584" interp="linr"  time="0/1" value="1" leadInLength="0/1"  name="volume"/>
              <Parameter id="2585"  name="captions"/>
             </Parameters>
             <Attributes>
              <Attribute id="2586" value="" name="ident"/>
              <Attribute id="2587" value="44100" name="sampleRate"/>
              <Attribute id="2588" value="16" name="bitDepth"/>
              <Attribute id="2589" value="1" name="gain"/>
              <Attribute id="2590" value="0" name="mixToMono"/>
             </Attributes>
            </AMFile>
            <VMFile id="2591" start="5767" duration="75" scalar="1/1" mediaStart="8190/1" mediaDuration="75/1" trackNumber="1" src="4" >
             <Transformer>
              <VectorParam id="2592"  name="translation">
               <InterpolatingParam id="2593" interp="linr"  time="-9999999/1" value="0" leadInLength="0/1"  />
               <InterpolatingParam id="2594" interp="linr"  time="-9999999/1" value="0" leadInLength="0/1"  />
               <InterpolatingParam id="2595" interp="linr"  time="-9999999/1" value="0" leadInLength="0/1"  />
              </VectorParam>
              <VectorParam id="2596"  name="rotation">
               <InterpolatingParam id="2597" interp="linr"  time="-9999999/1" value="0" leadInLength="0/1"  />
               <InterpolatingParam id="2598" interp="linr"  time="-9999999/1" value="0" leadInLength="0/1"  />
               <InterpolatingParam id="2599" interp="linr"  time="-9999999/1" value="0" leadInLength="0/1"  />
              </VectorParam>
              <VectorParam id="2600"  name="shear">
               <InterpolatingParam id="2601" interp="linr"  time="-9999999/1" value="0" leadInLength="0/1"  />
               <InterpolatingParam id="2602" interp="linr"  time="-9999999/1" value="0" leadInLength="0/1"  />
               <InterpolatingParam id="2603" interp="linr"  time="-9999999/1" value="0" leadInLength="0/1"  />
              </VectorParam>
              <VectorParam id="2604"  name="scale">
               <InterpolatingParam id="2605" interp="linr"  time="-9999999/1" value="1" leadInLength="0/1"  />
               <InterpolatingParam id="2606" interp="linr"  time="-9999999/1" value="1" leadInLength="0/1"  />
               <InterpolatingParam id="2607" interp="linr"  time="-9999999/1" value="1" leadInLength="0/1"  />
              </VectorParam>
              <VectorParam id="2608"  name="anchor">
               <InterpolatingParam id="2609" interp="linr"  time="0/1" value="0" leadInLength="0/1"  />
               <InterpolatingParam id="2610" interp="linr"  time="0/1" value="0" leadInLength="0/1"  />
               <InterpolatingParam id="2611" interp="linr"  time="0/1" value="0" leadInLength="0/1"  />
              </VectorParam>
             </Transformer>
             <Parameters>
              <VectorParam id="2612"  name="sourceCrop">
               <InterpolatingParam id="2613" interp="linr"  time="0/1" value="0" leadInLength="0/1"  />
               <InterpolatingParam id="2614" interp="linr"  time="0/1" value="0" leadInLength="0/1"  />
               <InterpolatingParam id="2615" interp="linr"  time="0/1" value="0" leadInLength="0/1"  />
               <InterpolatingParam id="2616" interp="linr"  time="0/1" value="0" leadInLength="0/1"  />
              </VectorParam>
              <VectorParam id="2617"  name="geometryCrop">
               <InterpolatingParam id="2618" interp="linr"  time="-9999999/1" value="0" leadInLength="0/1"  />
               <InterpolatingParam id="2619" interp="linr"  time="-9999999/1" value="0" leadInLength="0/1"  />
               <InterpolatingParam id="2620" interp="linr"  time="-9999999/1" value="0" leadInLength="0/1"  />
               <InterpolatingParam id="2621" interp="linr"  time="-9999999/1" value="0" leadInLength="0/1"  />
              </VectorParam>
              <InterpolatingParam id="2622" interp="linr"  time="-9999999/1" value="1" leadInLength="0/1"  name="opacity"/>
             </Parameters>
             <Attributes>
              <Attribute id="2623" value="" name="ident"/>
             </Attributes>
             <ExtraData>
              <Entry key="ZoomPanBin">
               <ZoomPanBin id="2624"  >
                <ZoomPanKeyframes>
                 <ZoomPanKeyframe id="2625" timeRangeEnd="-9999999/1" timeRangeDuration="0/1" interpolaterName=""  />
                </ZoomPanKeyframes>
               </ZoomPanBin>
              </Entry>
             </ExtraData>
            </VMFile>
            <MetaData>
             <entry key="WinSubProjectDisplayName" val=""/>
            </MetaData>
           </UnifiedMedia>
           <UnifiedMedia id="2626"  >
            <AMFile id="2627" start="5842" duration="94" scalar="1/1" mediaStart="8287/1" mediaDuration="94/1" trackNumber="2" src="4" channelNumber="0,1" >
             <Parameters>
              <InterpolatingParam id="2628" interp="linr"  time="0/1" value="1" leadInLength="0/1"  name="volume"/>
              <Parameter id="2629"  name="captions"/>
             </Parameters>
             <Attributes>
              <Attribute id="2630" value="" name="ident"/>
              <Attribute id="2631" value="44100" name="sampleRate"/>
              <Attribute id="2632" value="16" name="bitDepth"/>
              <Attribute id="2633" value="1" name="gain"/>
              <Attribute id="2634" value="0" name="mixToMono"/>
             </Attributes>
            </AMFile>
            <VMFile id="2635" start="5842" duration="94" scalar="1/1" mediaStart="8287/1" mediaDuration="94/1" trackNumber="1" src="4" >
             <Transformer>
              <VectorParam id="2636"  name="translation">
               <InterpolatingParam id="2637" interp="linr"  time="-9999999/1" value="0" leadInLength="0/1"  />
               <InterpolatingParam id="2638" interp="linr"  time="-9999999/1" value="0" leadInLength="0/1"  />
               <InterpolatingParam id="2639" interp="linr"  time="-9999999/1" value="0" leadInLength="0/1"  />
              </VectorParam>
              <VectorParam id="2640"  name="rotation">
               <InterpolatingParam id="2641" interp="linr"  time="-9999999/1" value="0" leadInLength="0/1"  />
               <InterpolatingParam id="2642" interp="linr"  time="-9999999/1" value="0" leadInLength="0/1"  />
               <InterpolatingParam id="2643" interp="linr"  time="-9999999/1" value="0" leadInLength="0/1"  />
              </VectorParam>
              <VectorParam id="2644"  name="shear">
               <InterpolatingParam id="2645" interp="linr"  time="-9999999/1" value="0" leadInLength="0/1"  />
               <InterpolatingParam id="2646" interp="linr"  time="-9999999/1" value="0" leadInLength="0/1"  />
               <InterpolatingParam id="2647" interp="linr"  time="-9999999/1" value="0" leadInLength="0/1"  />
              </VectorParam>
              <VectorParam id="2648"  name="scale">
               <InterpolatingParam id="2649" interp="linr"  time="-9999999/1" value="1" leadInLength="0/1"  />
               <InterpolatingParam id="2650" interp="linr"  time="-9999999/1" value="1" leadInLength="0/1"  />
               <InterpolatingParam id="2651" interp="linr"  time="-9999999/1" value="1" leadInLength="0/1"  />
              </VectorParam>
              <VectorParam id="2652"  name="anchor">
               <InterpolatingParam id="2653" interp="linr"  time="0/1" value="0" leadInLength="0/1"  />
               <InterpolatingParam id="2654" interp="linr"  time="0/1" value="0" leadInLength="0/1"  />
               <InterpolatingParam id="2655" interp="linr"  time="0/1" value="0" leadInLength="0/1"  />
              </VectorParam>
             </Transformer>
             <Parameters>
              <VectorParam id="2656"  name="sourceCrop">
               <InterpolatingParam id="2657" interp="linr"  time="0/1" value="0" leadInLength="0/1"  />
               <InterpolatingParam id="2658" interp="linr"  time="0/1" value="0" leadInLength="0/1"  />
               <InterpolatingParam id="2659" interp="linr"  time="0/1" value="0" leadInLength="0/1"  />
               <InterpolatingParam id="2660" interp="linr"  time="0/1" value="0" leadInLength="0/1"  />
              </VectorParam>
              <VectorParam id="2661"  name="geometryCrop">
               <InterpolatingParam id="2662" interp="linr"  time="-9999999/1" value="0" leadInLength="0/1"  />
               <InterpolatingParam id="2663" interp="linr"  time="-9999999/1" value="0" leadInLength="0/1"  />
               <InterpolatingParam id="2664" interp="linr"  time="-9999999/1" value="0" leadInLength="0/1"  />
               <InterpolatingParam id="2665" interp="linr"  time="-9999999/1" value="0" leadInLength="0/1"  />
              </VectorParam>
              <InterpolatingParam id="2666" interp="linr"  time="-9999999/1" value="1" leadInLength="0/1"  name="opacity"/>
             </Parameters>
             <Attributes>
              <Attribute id="2667" value="" name="ident"/>
             </Attributes>
             <ExtraData>
              <Entry key="ZoomPanBin">
               <ZoomPanBin id="2668"  >
                <ZoomPanKeyframes>
                 <ZoomPanKeyframe id="2669" timeRangeEnd="-9999999/1" timeRangeDuration="0/1" interpolaterName=""  />
                </ZoomPanKeyframes>
               </ZoomPanBin>
              </Entry>
             </ExtraData>
            </VMFile>
            <MetaData>
             <entry key="WinSubProjectDisplayName" val=""/>
            </MetaData>
           </UnifiedMedia>
           <UnifiedMedia id="2670"  >
            <AMFile id="2671" start="5936" duration="735" scalar="1/1" mediaStart="8402/1" mediaDuration="735/1" trackNumber="2" src="4" channelNumber="0,1" >
             <Parameters>
              <InterpolatingParam id="2672" interp="linr"  time="0/1" value="1" leadInLength="0/1"  name="volume"/>
              <Parameter id="2673"  name="captions"/>
             </Parameters>
             <Attributes>
              <Attribute id="2674" value="" name="ident"/>
              <Attribute id="2675" value="44100" name="sampleRate"/>
              <Attribute id="2676" value="16" name="bitDepth"/>
              <Attribute id="2677" value="1" name="gain"/>
              <Attribute id="2678" value="0" name="mixToMono"/>
             </Attributes>
            </AMFile>
            <VMFile id="2679" start="5936" duration="735" scalar="1/1" mediaStart="8402/1" mediaDuration="735/1" trackNumber="1" src="4" >
             <Transformer>
              <VectorParam id="2680"  name="translation">
               <InterpolatingParam id="2681" interp="linr"  time="-9999999/1" value="0" leadInLength="0/1"  />
               <InterpolatingParam id="2682" interp="linr"  time="-9999999/1" value="0" leadInLength="0/1"  />
               <InterpolatingParam id="2683" interp="linr"  time="-9999999/1" value="0" leadInLength="0/1"  />
              </VectorParam>
              <VectorParam id="2684"  name="rotation">
               <InterpolatingParam id="2685" interp="linr"  time="-9999999/1" value="0" leadInLength="0/1"  />
               <InterpolatingParam id="2686" interp="linr"  time="-9999999/1" value="0" leadInLength="0/1"  />
               <InterpolatingParam id="2687" interp="linr"  time="-9999999/1" value="0" leadInLength="0/1"  />
              </VectorParam>
              <VectorParam id="2688"  name="shear">
               <InterpolatingParam id="2689" interp="linr"  time="-9999999/1" value="0" leadInLength="0/1"  />
               <InterpolatingParam id="2690" interp="linr"  time="-9999999/1" value="0" leadInLength="0/1"  />
               <InterpolatingParam id="2691" interp="linr"  time="-9999999/1" value="0" leadInLength="0/1"  />
              </VectorParam>
              <VectorParam id="2692"  name="scale">
               <InterpolatingParam id="2693" interp="linr"  time="-9999999/1" value="1" leadInLength="0/1"  />
               <InterpolatingParam id="2694" interp="linr"  time="-9999999/1" value="1" leadInLength="0/1"  />
               <InterpolatingParam id="2695" interp="linr"  time="-9999999/1" value="1" leadInLength="0/1"  />
              </VectorParam>
              <VectorParam id="2696"  name="anchor">
               <InterpolatingParam id="2697" interp="linr"  time="0/1" value="0" leadInLength="0/1"  />
               <InterpolatingParam id="2698" interp="linr"  time="0/1" value="0" leadInLength="0/1"  />
               <InterpolatingParam id="2699" interp="linr"  time="0/1" value="0" leadInLength="0/1"  />
              </VectorParam>
             </Transformer>
             <Parameters>
              <VectorParam id="2700"  name="sourceCrop">
               <InterpolatingParam id="2701" interp="linr"  time="0/1" value="0" leadInLength="0/1"  />
               <InterpolatingParam id="2702" interp="linr"  time="0/1" value="0" leadInLength="0/1"  />
               <InterpolatingParam id="2703" interp="linr"  time="0/1" value="0" leadInLength="0/1"  />
               <InterpolatingParam id="2704" interp="linr"  time="0/1" value="0" leadInLength="0/1"  />
              </VectorParam>
              <VectorParam id="2705"  name="geometryCrop">
               <InterpolatingParam id="2706" interp="linr"  time="-9999999/1" value="0" leadInLength="0/1"  />
               <InterpolatingParam id="2707" interp="linr"  time="-9999999/1" value="0" leadInLength="0/1"  />
               <InterpolatingParam id="2708" interp="linr"  time="-9999999/1" value="0" leadInLength="0/1"  />
               <InterpolatingParam id="2709" interp="linr"  time="-9999999/1" value="0" leadInLength="0/1"  />
              </VectorParam>
              <InterpolatingParam id="2710" interp="linr"  time="-9999999/1" value="1" leadInLength="0/1"  name="opacity"/>
             </Parameters>
             <Attributes>
              <Attribute id="2711" value="" name="ident"/>
             </Attributes>
             <ExtraData>
              <Entry key="ZoomPanBin">
               <ZoomPanBin id="2712"  >
                <ZoomPanKeyframes>
                 <ZoomPanKeyframe id="2713" timeRangeEnd="-9999999/1" timeRangeDuration="0/1" interpolaterName=""  />
                </ZoomPanKeyframes>
               </ZoomPanBin>
              </Entry>
             </ExtraData>
            </VMFile>
            <MetaData>
             <entry key="WinSubProjectDisplayName" val=""/>
            </MetaData>
           </UnifiedMedia>
           <UnifiedMedia id="2714"  >
            <AMFile id="2715" start="6671" duration="851" scalar="1/1" mediaStart="9226/1" mediaDuration="851/1" trackNumber="2" src="4" channelNumber="0,1" >
             <Parameters>
              <InterpolatingParam id="2716" interp="linr"  time="0/1" value="1" leadInLength="0/1"  name="volume"/>
              <Parameter id="2717"  name="captions"/>
             </Parameters>
             <Attributes>
              <Attribute id="2718" value="" name="ident"/>
              <Attribute id="2719" value="44100" name="sampleRate"/>
              <Attribute id="2720" value="16" name="bitDepth"/>
              <Attribute id="2721" value="1" name="gain"/>
              <Attribute id="2722" value="0" name="mixToMono"/>
             </Attributes>
            </AMFile>
            <VMFile id="2723" start="6671" duration="851" scalar="1/1" mediaStart="9226/1" mediaDuration="851/1" trackNumber="1" src="4" >
             <Transformer>
              <VectorParam id="2724"  name="translation">
               <InterpolatingParam id="2725" interp="linr"  time="-9999999/1" value="0" leadInLength="0/1"  />
               <InterpolatingParam id="2726" interp="linr"  time="-9999999/1" value="0" leadInLength="0/1"  />
               <InterpolatingParam id="2727" interp="linr"  time="-9999999/1" value="0" leadInLength="0/1"  />
              </VectorParam>
              <VectorParam id="2728"  name="rotation">
               <InterpolatingParam id="2729" interp="linr"  time="-9999999/1" value="0" leadInLength="0/1"  />
               <InterpolatingParam id="2730" interp="linr"  time="-9999999/1" value="0" leadInLength="0/1"  />
               <InterpolatingParam id="2731" interp="linr"  time="-9999999/1" value="0" leadInLength="0/1"  />
              </VectorParam>
              <VectorParam id="2732"  name="shear">
               <InterpolatingParam id="2733" interp="linr"  time="-9999999/1" value="0" leadInLength="0/1"  />
               <InterpolatingParam id="2734" interp="linr"  time="-9999999/1" value="0" leadInLength="0/1"  />
               <InterpolatingParam id="2735" interp="linr"  time="-9999999/1" value="0" leadInLength="0/1"  />
              </VectorParam>
              <VectorParam id="2736"  name="scale">
               <InterpolatingParam id="2737" interp="linr"  time="-9999999/1" value="1" leadInLength="0/1"  />
               <InterpolatingParam id="2738" interp="linr"  time="-9999999/1" value="1" leadInLength="0/1"  />
               <InterpolatingParam id="2739" interp="linr"  time="-9999999/1" value="1" leadInLength="0/1"  />
              </VectorParam>
              <VectorParam id="2740"  name="anchor">
               <InterpolatingParam id="2741" interp="linr"  time="0/1" value="0" leadInLength="0/1"  />
               <InterpolatingParam id="2742" interp="linr"  time="0/1" value="0" leadInLength="0/1"  />
               <InterpolatingParam id="2743" interp="linr"  time="0/1" value="0" leadInLength="0/1"  />
              </VectorParam>
             </Transformer>
             <Parameters>
              <VectorParam id="2744"  name="sourceCrop">
               <InterpolatingParam id="2745" interp="linr"  time="0/1" value="0" leadInLength="0/1"  />
               <InterpolatingParam id="2746" interp="linr"  time="0/1" value="0" leadInLength="0/1"  />
               <InterpolatingParam id="2747" interp="linr"  time="0/1" value="0" leadInLength="0/1"  />
               <InterpolatingParam id="2748" interp="linr"  time="0/1" value="0" leadInLength="0/1"  />
              </VectorParam>
              <VectorParam id="2749"  name="geometryCrop">
               <InterpolatingParam id="2750" interp="linr"  time="-9999999/1" value="0" leadInLength="0/1"  />
               <InterpolatingParam id="2751" interp="linr"  time="-9999999/1" value="0" leadInLength="0/1"  />
               <InterpolatingParam id="2752" interp="linr"  time="-9999999/1" value="0" leadInLength="0/1"  />
               <InterpolatingParam id="2753" interp="linr"  time="-9999999/1" value="0" leadInLength="0/1"  />
              </VectorParam>
              <InterpolatingParam id="2754" interp="linr"  time="-9999999/1" value="1" leadInLength="0/1"  name="opacity"/>
             </Parameters>
             <Attributes>
              <Attribute id="2755" value="" name="ident"/>
             </Attributes>
             <ExtraData>
              <Entry key="ZoomPanBin">
               <ZoomPanBin id="2756"  >
                <ZoomPanKeyframes>
                 <ZoomPanKeyframe id="2757" timeRangeEnd="-9999999/1" timeRangeDuration="0/1" interpolaterName=""  />
                </ZoomPanKeyframes>
               </ZoomPanBin>
              </Entry>
             </ExtraData>
            </VMFile>
            <MetaData>
             <entry key="WinSubProjectDisplayName" val=""/>
            </MetaData>
           </UnifiedMedia>
           <UnifiedMedia id="2758"  >
            <AMFile id="2759" start="7522" duration="174" scalar="1/1" mediaStart="10119/1" mediaDuration="174/1" trackNumber="2" src="4" channelNumber="0,1" >
             <Parameters>
              <InterpolatingParam id="2760" interp="linr"  time="0/1" value="1" leadInLength="0/1"  name="volume"/>
              <Parameter id="2761"  name="captions"/>
             </Parameters>
             <Attributes>
              <Attribute id="2762" value="" name="ident"/>
              <Attribute id="2763" value="44100" name="sampleRate"/>
              <Attribute id="2764" value="16" name="bitDepth"/>
              <Attribute id="2765" value="1" name="gain"/>
              <Attribute id="2766" value="0" name="mixToMono"/>
             </Attributes>
            </AMFile>
            <VMFile id="2767" start="7522" duration="174" scalar="1/1" mediaStart="10119/1" mediaDuration="174/1" trackNumber="1" src="4" >
             <Transformer>
              <VectorParam id="2768"  name="translation">
               <InterpolatingParam id="2769" interp="linr"  time="-9999999/1" value="0" leadInLength="0/1"  />
               <InterpolatingParam id="2770" interp="linr"  time="-9999999/1" value="0" leadInLength="0/1"  />
               <InterpolatingParam id="2771" interp="linr"  time="-9999999/1" value="0" leadInLength="0/1"  />
              </VectorParam>
              <VectorParam id="2772"  name="rotation">
               <InterpolatingParam id="2773" interp="linr"  time="-9999999/1" value="0" leadInLength="0/1"  />
               <InterpolatingParam id="2774" interp="linr"  time="-9999999/1" value="0" leadInLength="0/1"  />
               <InterpolatingParam id="2775" interp="linr"  time="-9999999/1" value="0" leadInLength="0/1"  />
              </VectorParam>
              <VectorParam id="2776"  name="shear">
               <InterpolatingParam id="2777" interp="linr"  time="-9999999/1" value="0" leadInLength="0/1"  />
               <InterpolatingParam id="2778" interp="linr"  time="-9999999/1" value="0" leadInLength="0/1"  />
               <InterpolatingParam id="2779" interp="linr"  time="-9999999/1" value="0" leadInLength="0/1"  />
              </VectorParam>
              <VectorParam id="2780"  name="scale">
               <InterpolatingParam id="2781" interp="linr"  time="-9999999/1" value="1" leadInLength="0/1"  />
               <InterpolatingParam id="2782" interp="linr"  time="-9999999/1" value="1" leadInLength="0/1"  />
               <InterpolatingParam id="2783" interp="linr"  time="-9999999/1" value="1" leadInLength="0/1"  />
              </VectorParam>
              <VectorParam id="2784"  name="anchor">
               <InterpolatingParam id="2785" interp="linr"  time="0/1" value="0" leadInLength="0/1"  />
               <InterpolatingParam id="2786" interp="linr"  time="0/1" value="0" leadInLength="0/1"  />
               <InterpolatingParam id="2787" interp="linr"  time="0/1" value="0" leadInLength="0/1"  />
              </VectorParam>
             </Transformer>
             <Parameters>
              <VectorParam id="2788"  name="sourceCrop">
               <InterpolatingParam id="2789" interp="linr"  time="0/1" value="0" leadInLength="0/1"  />
               <InterpolatingParam id="2790" interp="linr"  time="0/1" value="0" leadInLength="0/1"  />
               <InterpolatingParam id="2791" interp="linr"  time="0/1" value="0" leadInLength="0/1"  />
               <InterpolatingParam id="2792" interp="linr"  time="0/1" value="0" leadInLength="0/1"  />
              </VectorParam>
              <VectorParam id="2793"  name="geometryCrop">
               <InterpolatingParam id="2794" interp="linr"  time="-9999999/1" value="0" leadInLength="0/1"  />
               <InterpolatingParam id="2795" interp="linr"  time="-9999999/1" value="0" leadInLength="0/1"  />
               <InterpolatingParam id="2796" interp="linr"  time="-9999999/1" value="0" leadInLength="0/1"  />
               <InterpolatingParam id="2797" interp="linr"  time="-9999999/1" value="0" leadInLength="0/1"  />
              </VectorParam>
              <InterpolatingParam id="2798" interp="linr"  time="-9999999/1" value="1" leadInLength="0/1"  name="opacity"/>
             </Parameters>
             <Attributes>
              <Attribute id="2799" value="" name="ident"/>
             </Attributes>
             <ExtraData>
              <Entry key="ZoomPanBin">
               <ZoomPanBin id="2800"  >
                <ZoomPanKeyframes>
                 <ZoomPanKeyframe id="2801" timeRangeEnd="-9999999/1" timeRangeDuration="0/1" interpolaterName=""  />
                </ZoomPanKeyframes>
               </ZoomPanBin>
              </Entry>
             </ExtraData>
            </VMFile>
            <MetaData>
             <entry key="WinSubProjectDisplayName" val=""/>
            </MetaData>
           </UnifiedMedia>
           <UnifiedMedia id="2802"  >
            <AMFile id="2803" start="7696" duration="3860" scalar="1/1" mediaStart="10320/1" mediaDuration="3860/1" trackNumber="2" src="4" channelNumber="0,1" >
             <Parameters>
              <InterpolatingParam id="2804" interp="linr"  time="0/1" value="1" leadInLength="0/1"  name="volume"/>
              <Parameter id="2805"  name="captions"/>
             </Parameters>
             <Attributes>
              <Attribute id="2806" value="" name="ident"/>
              <Attribute id="2807" value="44100" name="sampleRate"/>
              <Attribute id="2808" value="16" name="bitDepth"/>
              <Attribute id="2809" value="1" name="gain"/>
              <Attribute id="2810" value="0" name="mixToMono"/>
             </Attributes>
            </AMFile>
            <VMFile id="2811" start="7696" duration="3860" scalar="1/1" mediaStart="10320/1" mediaDuration="3860/1" trackNumber="1" src="4" >
             <Transformer>
              <VectorParam id="2812"  name="translation">
               <InterpolatingParam id="2813" interp="linr"  time="-9999999/1" value="0" leadInLength="0/1"  />
               <InterpolatingParam id="2814" interp="linr"  time="-9999999/1" value="0" leadInLength="0/1"  />
               <InterpolatingParam id="2815" interp="linr"  time="-9999999/1" value="0" leadInLength="0/1"  />
              </VectorParam>
              <VectorParam id="2816"  name="rotation">
               <InterpolatingParam id="2817" interp="linr"  time="-9999999/1" value="0" leadInLength="0/1"  />
               <InterpolatingParam id="2818" interp="linr"  time="-9999999/1" value="0" leadInLength="0/1"  />
               <InterpolatingParam id="2819" interp="linr"  time="-9999999/1" value="0" leadInLength="0/1"  />
              </VectorParam>
              <VectorParam id="2820"  name="shear">
               <InterpolatingParam id="2821" interp="linr"  time="-9999999/1" value="0" leadInLength="0/1"  />
               <InterpolatingParam id="2822" interp="linr"  time="-9999999/1" value="0" leadInLength="0/1"  />
               <InterpolatingParam id="2823" interp="linr"  time="-9999999/1" value="0" leadInLength="0/1"  />
              </VectorParam>
              <VectorParam id="2824"  name="scale">
               <InterpolatingParam id="2825" interp="linr"  time="-9999999/1" value="1" leadInLength="0/1"  />
               <InterpolatingParam id="2826" interp="linr"  time="-9999999/1" value="1" leadInLength="0/1"  />
               <InterpolatingParam id="2827" interp="linr"  time="-9999999/1" value="1" leadInLength="0/1"  />
              </VectorParam>
              <VectorParam id="2828"  name="anchor">
               <InterpolatingParam id="2829" interp="linr"  time="0/1" value="0" leadInLength="0/1"  />
               <InterpolatingParam id="2830" interp="linr"  time="0/1" value="0" leadInLength="0/1"  />
               <InterpolatingParam id="2831" interp="linr"  time="0/1" value="0" leadInLength="0/1"  />
              </VectorParam>
             </Transformer>
             <Parameters>
              <VectorParam id="2832"  name="sourceCrop">
               <InterpolatingParam id="2833" interp="linr"  time="0/1" value="0" leadInLength="0/1"  />
               <InterpolatingParam id="2834" interp="linr"  time="0/1" value="0" leadInLength="0/1"  />
               <InterpolatingParam id="2835" interp="linr"  time="0/1" value="0" leadInLength="0/1"  />
               <InterpolatingParam id="2836" interp="linr"  time="0/1" value="0" leadInLength="0/1"  />
              </VectorParam>
              <VectorParam id="2837"  name="geometryCrop">
               <InterpolatingParam id="2838" interp="linr"  time="-9999999/1" value="0" leadInLength="0/1"  />
               <InterpolatingParam id="2839" interp="linr"  time="-9999999/1" value="0" leadInLength="0/1"  />
               <InterpolatingParam id="2840" interp="linr"  time="-9999999/1" value="0" leadInLength="0/1"  />
               <InterpolatingParam id="2841" interp="linr"  time="-9999999/1" value="0" leadInLength="0/1"  />
              </VectorParam>
              <InterpolatingParam id="2842" interp="linr"  time="-9999999/1" value="1" leadInLength="0/1"  name="opacity"/>
             </Parameters>
             <Attributes>
              <Attribute id="2843" value="" name="ident"/>
             </Attributes>
             <ExtraData>
              <Entry key="ZoomPanBin">
               <ZoomPanBin id="2844"  >
                <ZoomPanKeyframes>
                 <ZoomPanKeyframe id="2845" timeRangeEnd="-9999999/1" timeRangeDuration="0/1" interpolaterName=""  />
                </ZoomPanKeyframes>
               </ZoomPanBin>
              </Entry>
             </ExtraData>
            </VMFile>
            <MetaData>
             <entry key="WinSubProjectDisplayName" val=""/>
            </MetaData>
           </UnifiedMedia>
           <UnifiedMedia id="2846"  >
            <AMFile id="2847" start="11556" duration="117" scalar="1/1" mediaStart="15698/1" mediaDuration="117/1" trackNumber="2" src="4" channelNumber="0,1" >
             <Parameters>
              <InterpolatingParam id="2848" interp="linr"  time="0/1" value="1" leadInLength="0/1"  name="volume"/>
              <Parameter id="2849"  name="captions"/>
             </Parameters>
             <Attributes>
              <Attribute id="2850" value="" name="ident"/>
              <Attribute id="2851" value="44100" name="sampleRate"/>
              <Attribute id="2852" value="16" name="bitDepth"/>
              <Attribute id="2853" value="1" name="gain"/>
              <Attribute id="2854" value="0" name="mixToMono"/>
             </Attributes>
            </AMFile>
            <VMFile id="2855" start="11556" duration="117" scalar="1/1" mediaStart="15698/1" mediaDuration="117/1" trackNumber="1" src="4" >
             <Transformer>
              <VectorParam id="2856"  name="translation">
               <InterpolatingParam id="2857" interp="linr"  time="-9999999/1" value="0" leadInLength="0/1"  />
               <InterpolatingParam id="2858" interp="linr"  time="-9999999/1" value="0" leadInLength="0/1"  />
               <InterpolatingParam id="2859" interp="linr"  time="-9999999/1" value="0" leadInLength="0/1"  />
              </VectorParam>
              <VectorParam id="2860"  name="rotation">
               <InterpolatingParam id="2861" interp="linr"  time="-9999999/1" value="0" leadInLength="0/1"  />
               <InterpolatingParam id="2862" interp="linr"  time="-9999999/1" value="0" leadInLength="0/1"  />
               <InterpolatingParam id="2863" interp="linr"  time="-9999999/1" value="0" leadInLength="0/1"  />
              </VectorParam>
              <VectorParam id="2864"  name="shear">
               <InterpolatingParam id="2865" interp="linr"  time="-9999999/1" value="0" leadInLength="0/1"  />
               <InterpolatingParam id="2866" interp="linr"  time="-9999999/1" value="0" leadInLength="0/1"  />
               <InterpolatingParam id="2867" interp="linr"  time="-9999999/1" value="0" leadInLength="0/1"  />
              </VectorParam>
              <VectorParam id="2868"  name="scale">
               <InterpolatingParam id="2869" interp="linr"  time="-9999999/1" value="1" leadInLength="0/1"  />
               <InterpolatingParam id="2870" interp="linr"  time="-9999999/1" value="1" leadInLength="0/1"  />
               <InterpolatingParam id="2871" interp="linr"  time="-9999999/1" value="1" leadInLength="0/1"  />
              </VectorParam>
              <VectorParam id="2872"  name="anchor">
               <InterpolatingParam id="2873" interp="linr"  time="0/1" value="0" leadInLength="0/1"  />
               <InterpolatingParam id="2874" interp="linr"  time="0/1" value="0" leadInLength="0/1"  />
               <InterpolatingParam id="2875" interp="linr"  time="0/1" value="0" leadInLength="0/1"  />
              </VectorParam>
             </Transformer>
             <Parameters>
              <VectorParam id="2876"  name="sourceCrop">
               <InterpolatingParam id="2877" interp="linr"  time="0/1" value="0" leadInLength="0/1"  />
               <InterpolatingParam id="2878" interp="linr"  time="0/1" value="0" leadInLength="0/1"  />
               <InterpolatingParam id="2879" interp="linr"  time="0/1" value="0" leadInLength="0/1"  />
               <InterpolatingParam id="2880" interp="linr"  time="0/1" value="0" leadInLength="0/1"  />
              </VectorParam>
              <VectorParam id="2881"  name="geometryCrop">
               <InterpolatingParam id="2882" interp="linr"  time="-9999999/1" value="0" leadInLength="0/1"  />
               <InterpolatingParam id="2883" interp="linr"  time="-9999999/1" value="0" leadInLength="0/1"  />
               <InterpolatingParam id="2884" interp="linr"  time="-9999999/1" value="0" leadInLength="0/1"  />
               <InterpolatingParam id="2885" interp="linr"  time="-9999999/1" value="0" leadInLength="0/1"  />
              </VectorParam>
              <InterpolatingParam id="2886" interp="linr"  time="-9999999/1" value="1" leadInLength="0/1"  name="opacity"/>
             </Parameters>
             <Attributes>
              <Attribute id="2887" value="" name="ident"/>
             </Attributes>
             <ExtraData>
              <Entry key="ZoomPanBin">
               <ZoomPanBin id="2888"  >
                <ZoomPanKeyframes>
                 <ZoomPanKeyframe id="2889" timeRangeEnd="-9999999/1" timeRangeDuration="0/1" interpolaterName=""  />
                </ZoomPanKeyframes>
               </ZoomPanBin>
              </Entry>
             </ExtraData>
            </VMFile>
            <MetaData>
             <entry key="WinSubProjectDisplayName" val=""/>
            </MetaData>
           </UnifiedMedia>
           <UnifiedMedia id="2890"  >
            <AMFile id="2891" start="11673" duration="3159" scalar="1/1" mediaStart="16069/1" mediaDuration="3159/1" trackNumber="2" src="4" channelNumber="0,1" >
             <Parameters>
              <InterpolatingParam id="2892" interp="linr"  time="0/1" value="1" leadInLength="0/1"  name="volume"/>
              <Parameter id="2893"  name="captions"/>
             </Parameters>
             <Attributes>
              <Attribute id="2894" value="" name="ident"/>
              <Attribute id="2895" value="44100" name="sampleRate"/>
              <Attribute id="2896" value="16" name="bitDepth"/>
              <Attribute id="2897" value="1" name="gain"/>
              <Attribute id="2898" value="0" name="mixToMono"/>
             </Attributes>
            </AMFile>
            <VMFile id="2899" start="11673" duration="3159" scalar="1/1" mediaStart="16069/1" mediaDuration="3159/1" trackNumber="1" src="4" >
             <Transformer>
              <VectorParam id="2900"  name="translation">
               <InterpolatingParam id="2901" interp="linr"  time="-9999999/1" value="0" leadInLength="0/1"  />
               <InterpolatingParam id="2902" interp="linr"  time="-9999999/1" value="0" leadInLength="0/1"  />
               <InterpolatingParam id="2903" interp="linr"  time="-9999999/1" value="0" leadInLength="0/1"  />
              </VectorParam>
              <VectorParam id="2904"  name="rotation">
               <InterpolatingParam id="2905" interp="linr"  time="-9999999/1" value="0" leadInLength="0/1"  />
               <InterpolatingParam id="2906" interp="linr"  time="-9999999/1" value="0" leadInLength="0/1"  />
               <InterpolatingParam id="2907" interp="linr"  time="-9999999/1" value="0" leadInLength="0/1"  />
              </VectorParam>
              <VectorParam id="2908"  name="shear">
               <InterpolatingParam id="2909" interp="linr"  time="-9999999/1" value="0" leadInLength="0/1"  />
               <InterpolatingParam id="2910" interp="linr"  time="-9999999/1" value="0" leadInLength="0/1"  />
               <InterpolatingParam id="2911" interp="linr"  time="-9999999/1" value="0" leadInLength="0/1"  />
              </VectorParam>
              <VectorParam id="2912"  name="scale">
               <InterpolatingParam id="2913" interp="linr"  time="-9999999/1" value="1" leadInLength="0/1"  />
               <InterpolatingParam id="2914" interp="linr"  time="-9999999/1" value="1" leadInLength="0/1"  />
               <InterpolatingParam id="2915" interp="linr"  time="-9999999/1" value="1" leadInLength="0/1"  />
              </VectorParam>
              <VectorParam id="2916"  name="anchor">
               <InterpolatingParam id="2917" interp="linr"  time="0/1" value="0" leadInLength="0/1"  />
               <InterpolatingParam id="2918" interp="linr"  time="0/1" value="0" leadInLength="0/1"  />
               <InterpolatingParam id="2919" interp="linr"  time="0/1" value="0" leadInLength="0/1"  />
              </VectorParam>
             </Transformer>
             <Parameters>
              <VectorParam id="2920"  name="sourceCrop">
               <InterpolatingParam id="2921" interp="linr"  time="0/1" value="0" leadInLength="0/1"  />
               <InterpolatingParam id="2922" interp="linr"  time="0/1" value="0" leadInLength="0/1"  />
               <InterpolatingParam id="2923" interp="linr"  time="0/1" value="0" leadInLength="0/1"  />
               <InterpolatingParam id="2924" interp="linr"  time="0/1" value="0" leadInLength="0/1"  />
              </VectorParam>
              <VectorParam id="2925"  name="geometryCrop">
               <InterpolatingParam id="2926" interp="linr"  time="-9999999/1" value="0" leadInLength="0/1"  />
               <InterpolatingParam id="2927" interp="linr"  time="-9999999/1" value="0" leadInLength="0/1"  />
               <InterpolatingParam id="2928" interp="linr"  time="-9999999/1" value="0" leadInLength="0/1"  />
               <InterpolatingParam id="2929" interp="linr"  time="-9999999/1" value="0" leadInLength="0/1"  />
              </VectorParam>
              <InterpolatingParam id="2930" interp="linr"  time="-9999999/1" value="1" leadInLength="0/1"  name="opacity"/>
             </Parameters>
             <Attributes>
              <Attribute id="2931" value="" name="ident"/>
             </Attributes>
             <ExtraData>
              <Entry key="ZoomPanBin">
               <ZoomPanBin id="2932"  >
                <ZoomPanKeyframes>
                 <ZoomPanKeyframe id="2933" timeRangeEnd="-9999999/1" timeRangeDuration="0/1" interpolaterName=""  />
                </ZoomPanKeyframes>
               </ZoomPanBin>
              </Entry>
             </ExtraData>
            </VMFile>
            <MetaData>
             <entry key="WinSubProjectDisplayName" val=""/>
            </MetaData>
           </UnifiedMedia>
           <UnifiedMedia id="2934"  >
            <AMFile id="2935" start="14832" duration="158" scalar="1/1" mediaStart="19518/1" mediaDuration="158/1" trackNumber="2" src="4" channelNumber="0,1" >
             <Parameters>
              <InterpolatingParam id="2936" interp="linr"  time="0/1" value="1" leadInLength="0/1"  name="volume"/>
              <Parameter id="2937"  name="captions"/>
             </Parameters>
             <Attributes>
              <Attribute id="2938" value="" name="ident"/>
              <Attribute id="2939" value="44100" name="sampleRate"/>
              <Attribute id="2940" value="16" name="bitDepth"/>
              <Attribute id="2941" value="1" name="gain"/>
              <Attribute id="2942" value="0" name="mixToMono"/>
             </Attributes>
            </AMFile>
            <VMFile id="2943" start="14832" duration="158" scalar="1/1" mediaStart="19518/1" mediaDuration="158/1" trackNumber="1" src="4" >
             <Transformer>
              <VectorParam id="2944"  name="translation">
               <InterpolatingParam id="2945" interp="linr"  time="-9999999/1" value="0" leadInLength="0/1"  />
               <InterpolatingParam id="2946" interp="linr"  time="-9999999/1" value="0" leadInLength="0/1"  />
               <InterpolatingParam id="2947" interp="linr"  time="-9999999/1" value="0" leadInLength="0/1"  />
              </VectorParam>
              <VectorParam id="2948"  name="rotation">
               <InterpolatingParam id="2949" interp="linr"  time="-9999999/1" value="0" leadInLength="0/1"  />
               <InterpolatingParam id="2950" interp="linr"  time="-9999999/1" value="0" leadInLength="0/1"  />
               <InterpolatingParam id="2951" interp="linr"  time="-9999999/1" value="0" leadInLength="0/1"  />
              </VectorParam>
              <VectorParam id="2952"  name="shear">
               <InterpolatingParam id="2953" interp="linr"  time="-9999999/1" value="0" leadInLength="0/1"  />
               <InterpolatingParam id="2954" interp="linr"  time="-9999999/1" value="0" leadInLength="0/1"  />
               <InterpolatingParam id="2955" interp="linr"  time="-9999999/1" value="0" leadInLength="0/1"  />
              </VectorParam>
              <VectorParam id="2956"  name="scale">
               <InterpolatingParam id="2957" interp="linr"  time="-9999999/1" value="1" leadInLength="0/1"  />
               <InterpolatingParam id="2958" interp="linr"  time="-9999999/1" value="1" leadInLength="0/1"  />
               <InterpolatingParam id="2959" interp="linr"  time="-9999999/1" value="1" leadInLength="0/1"  />
              </VectorParam>
              <VectorParam id="2960"  name="anchor">
               <InterpolatingParam id="2961" interp="linr"  time="0/1" value="0" leadInLength="0/1"  />
               <InterpolatingParam id="2962" interp="linr"  time="0/1" value="0" leadInLength="0/1"  />
               <InterpolatingParam id="2963" interp="linr"  time="0/1" value="0" leadInLength="0/1"  />
              </VectorParam>
             </Transformer>
             <Parameters>
              <VectorParam id="2964"  name="sourceCrop">
               <InterpolatingParam id="2965" interp="linr"  time="0/1" value="0" leadInLength="0/1"  />
               <InterpolatingParam id="2966" interp="linr"  time="0/1" value="0" leadInLength="0/1"  />
               <InterpolatingParam id="2967" interp="linr"  time="0/1" value="0" leadInLength="0/1"  />
               <InterpolatingParam id="2968" interp="linr"  time="0/1" value="0" leadInLength="0/1"  />
              </VectorParam>
              <VectorParam id="2969"  name="geometryCrop">
               <InterpolatingParam id="2970" interp="linr"  time="-9999999/1" value="0" leadInLength="0/1"  />
               <InterpolatingParam id="2971" interp="linr"  time="-9999999/1" value="0" leadInLength="0/1"  />
               <InterpolatingParam id="2972" interp="linr"  time="-9999999/1" value="0" leadInLength="0/1"  />
               <InterpolatingParam id="2973" interp="linr"  time="-9999999/1" value="0" leadInLength="0/1"  />
              </VectorParam>
              <InterpolatingParam id="2974" interp="linr"  time="-9999999/1" value="1" leadInLength="0/1"  name="opacity"/>
             </Parameters>
             <Attributes>
              <Attribute id="2975" value="" name="ident"/>
             </Attributes>
             <ExtraData>
              <Entry key="ZoomPanBin">
               <ZoomPanBin id="2976"  >
                <ZoomPanKeyframes>
                 <ZoomPanKeyframe id="2977" timeRangeEnd="-9999999/1" timeRangeDuration="0/1" interpolaterName=""  />
                </ZoomPanKeyframes>
               </ZoomPanBin>
              </Entry>
             </ExtraData>
            </VMFile>
            <MetaData>
             <entry key="WinSubProjectDisplayName" val=""/>
            </MetaData>
           </UnifiedMedia>
          </Medias>
         </GenericTrack>
        </StitchedMedia>
       </Medias>
      </GenericTrack>
      <GenericTrack id="2978"  >
       <Attributes>
        <Attribute id="2979" value="" name="ident"/>
        <Attribute id="2980" value="0" name="audioMuted"/>
        <Attribute id="2981" value="0" name="videoHidden"/>
       </Attributes>
       <MetaData>
        <entry key="IsLocked" val="False"/>
        <entry key="WinTrackHeight" val="62"/>
       </MetaData>
       <Medias>
       </Medias>
      </GenericTrack>
     </Tracks>
    </GenericMixer>
   <CaptionAttributes id="2982"  >
    <Attribute id="2983" value="1" name="captionsEnabled"/>
    <Attribute id="2984" value="Arial" name="captionsFontName"/>
    <Attribute id="2985" value="28" name="captionsFontSize"/>
    <Attribute id="2986" value="(0,0,0,255)" name="captionsBackgroundColor"/>
    <Attribute id="2987" value="(255,255,255,255)" name="captionsForegroundColor"/>
    <Attribute id="2988" value="en" name="lang"/>
    <Attribute id="2989" value="0" name="captionsAlignment"/>
    <Attribute id="2990" value="1" name="captionsDefaultFontSize"/>
    <Attribute id="2991" value="0.5" name="captionsOpacity"/>
    <Attribute id="2992" value="1" name="captionsBackgroundEnabled"/>
    <Attribute id="2993" value="1" name="captionsBackgroundOnlyAroundText"/>
   </CaptionAttributes>
   <Parameters>
    <VectorParam id="2994"  name="eyePosition">
     <InterpolatingParam id="2995" interp="linr"  time="0/1" value="0" leadInLength="0/1"  />
     <InterpolatingParam id="2996" interp="linr"  time="0/1" value="0" leadInLength="0/1"  />
     <InterpolatingParam id="2997" interp="linr"  time="0/1" value="3000" leadInLength="0/1"  />
    </VectorParam>
    <VectorParam id="2998"  name="eyeLookAtPosition">
     <InterpolatingParam id="2999" interp="linr"  time="0/1" value="0" leadInLength="0/1"  />
     <InterpolatingParam id="3000" interp="linr"  time="0/1" value="0" leadInLength="0/1"  />
     <InterpolatingParam id="3001" interp="linr"  time="0/1" value="0" leadInLength="0/1"  />
    </VectorParam>
    <VectorParam id="3002"  name="eyeUpVector">
     <InterpolatingParam id="3003" interp="linr"  time="0/1" value="0" leadInLength="0/1"  />
     <InterpolatingParam id="3004" interp="linr"  time="0/1" value="1" leadInLength="0/1"  />
     <InterpolatingParam id="3005" interp="linr"  time="0/1" value="0" leadInLength="0/1"  />
    </VectorParam>
    <InterpolatingParam id="3006" interp="linr"  time="0/1" value="0.23885785" leadInLength="0/1"  name="fov"/>
    <InterpolatingParam id="3007" interp="linr"  time="0/1" value="1.5" leadInLength="0/1"  name="nearClipDistance"/>
    <InterpolatingParam id="3008" interp="linr"  time="0/1" value="6000" leadInLength="0/1"  name="farClipDistance"/>
   </Parameters>
  </Timeline>
 </Project>
</GoProject>
</CSMLData>

</Project_Data>
