<?xml version="1.0"?>
<Project_Data Version="8.00">
<Project_Settings>
<ProfileName></ProfileName>
<ProjectWidth>1280</ProjectWidth>
<ProjectHeight>720</ProjectHeight>
<IsCustomProject>1</IsCustomProject>
<SavedProjectSettings>1</SavedProjectSettings>
<LastFlashTemplate>-1</LastFlashTemplate>
</Project_Settings>


<AutoSaveFile>C:\Users\Junaid\AppData\Local\TechSmith\Camtasia Studio\8.0\Auto-Saves\use cases iot what all can be done 114c595d5.autosave.camproj</AutoSaveFile>

<ProjectID>3622FD65-E52A-4E22-82C7-F1FF22482D67</ProjectID>

<PowerPointProject>0</PowerPointProject>

<PowerPointFilename></PowerPointFilename>


<Project_Notes>
</Project_Notes>

<Project_MetaData>
<Project_MetaData_Object>
<FieldArrayKey>8</FieldArrayKey>
<Value>use cases iot what all can be done 1</Value>
</Project_MetaData_Object>
<Project_MetaData_Object>
<FieldArrayKey>13</FieldArrayKey>
<Value>2016-02-01 05:06:47 PM</Value>
</Project_MetaData_Object>
<Project_MetaData_Object>
<FieldArrayKey>16</FieldArrayKey>
<Value>ENU</Value>
</Project_MetaData_Object>
</Project_MetaData>

<CSMLData>
<GoProject id="1" version="3.0" >
 <Project id="2" editRate="30/1" version="3.0" >
  <Author></Author>
  <Comment></Comment>
  <System></System>
  <SourceBin id="3"  >
    <Source id="4" src="C:\Users\Junaid\Desktop\IOT RECO\Use cases Iot.trec" lastMod="20160201T113609" rect="(0,0,1920,1080)" >
      <SourceTrack range="(0,16337)" type="0" editRate="30/1" trackRect="(0,0,1920,1080)" sampleRate="0/1" bitDepth="0" numChannels="0" filename="Use cases Iot.trec!Strack0.tsc2" metaData="Use cases Iot.trec;" />
      <SourceTrack range="(0,24013824)" type="2" editRate="44100/1" trackRect="(0,0,0,0)" sampleRate="44100/1" bitDepth="16" numChannels="2" filename="Use cases Iot.trec!Maudio1.mp4" metaData="" />
    </Source>
  </SourceBin>
  <Timeline id="5"  >
   <Attributes>
    <Attribute id="6" value="1280" name="width"/>
    <Attribute id="7" value="720" name="height"/>
    <Attribute id="8" value="(0,0,0,255)" name="backgroundColor"/>
   </Attributes>
    <GenericMixer id="9"  name="Unified Mixer">
     <MetaData>
      <entry key="MixerType" val="TimelineMixer"/>
     </MetaData>
     <Tracks>
      <GenericTrack id="10"  >
       <Attributes>
        <Attribute id="11" value="" name="ident"/>
        <Attribute id="12" value="0" name="audioMuted"/>
        <Attribute id="13" value="0" name="videoHidden"/>
       </Attributes>
       <MetaData>
        <entry key="IsLocked" val="False"/>
        <entry key="WinTrackHeight" val="62"/>
       </MetaData>
       <Medias>
        <StitchedMedia id="14" start="0" duration="8181" scalar="1/1" mediaStart="35/1" mediaDuration="8181/1" minMediaStart="0/1" >
         <Transformer>
          <VectorParam id="15"  name="translation">
           <InterpolatingParam id="16" interp="linr"  time="-9999999/1" value="0" leadInLength="0/1"  interpolater="leadin-linr"  />
           <InterpolatingParam id="17" interp="linr"  time="-9999999/1" value="0" leadInLength="0/1"  interpolater="leadin-linr"  />
           <InterpolatingParam id="18" interp="linr"  time="-9999999/1" value="0" leadInLength="0/1"  interpolater="leadin-linr"  />
          </VectorParam>
          <VectorParam id="19"  name="rotation">
           <InterpolatingParam id="20" interp="linr"  time="-9999999/1" value="0" leadInLength="0/1"  interpolater="leadin-linr"  />
           <InterpolatingParam id="21" interp="linr"  time="-9999999/1" value="0" leadInLength="0/1"  interpolater="leadin-linr"  />
           <InterpolatingParam id="22" interp="linr"  time="-9999999/1" value="0" leadInLength="0/1"  interpolater="leadin-linr"  />
          </VectorParam>
          <VectorParam id="23"  name="shear">
           <InterpolatingParam id="24" interp="linr"  time="-9999999/1" value="0" leadInLength="0/1"  interpolater="leadin-linr"  />
           <InterpolatingParam id="25" interp="linr"  time="-9999999/1" value="0" leadInLength="0/1"  interpolater="leadin-linr"  />
           <InterpolatingParam id="26" interp="linr"  time="-9999999/1" value="0" leadInLength="0/1"  interpolater="leadin-linr"  />
          </VectorParam>
          <VectorParam id="27"  name="scale">
           <InterpolatingParam id="28" interp="linr"  time="-9999999/1" value="0.66666666666666663" leadInLength="0/1"  interpolater="leadin-linr"  />
           <InterpolatingParam id="29" interp="linr"  time="-9999999/1" value="0.66666666666666663" leadInLength="0/1"  interpolater="leadin-linr"  />
           <InterpolatingParam id="30" interp="linr"  time="-9999999/1" value="1" leadInLength="0/1"  interpolater="leadin-linr"  />
          </VectorParam>
          <VectorParam id="31"  name="anchor">
           <InterpolatingParam id="32" interp="linr"  time="0/1" value="0" leadInLength="0/1"  />
           <InterpolatingParam id="33" interp="linr"  time="0/1" value="0" leadInLength="0/1"  />
           <InterpolatingParam id="34" interp="linr"  time="0/1" value="0" leadInLength="0/1"  />
          </VectorParam>
         </Transformer>
         <Parameters>
          <VectorParam id="35"  name="sourceCrop">
           <InterpolatingParam id="36" interp="linr"  time="0/1" value="0" leadInLength="0/1"  />
           <InterpolatingParam id="37" interp="linr"  time="0/1" value="0" leadInLength="0/1"  />
           <InterpolatingParam id="38" interp="linr"  time="0/1" value="0" leadInLength="0/1"  />
           <InterpolatingParam id="39" interp="linr"  time="0/1" value="0" leadInLength="0/1"  />
          </VectorParam>
          <VectorParam id="40"  name="geometryCrop">
           <InterpolatingParam id="41" interp="linr"  time="-9999999/1" value="0" leadInLength="0/1"  interpolater="leadin-linr"  />
           <InterpolatingParam id="42" interp="linr"  time="-9999999/1" value="0" leadInLength="0/1"  interpolater="leadin-linr"  />
           <InterpolatingParam id="43" interp="linr"  time="-9999999/1" value="0" leadInLength="0/1"  interpolater="leadin-linr"  />
           <InterpolatingParam id="44" interp="linr"  time="-9999999/1" value="0" leadInLength="0/1"  interpolater="leadin-linr"  />
          </VectorParam>
          <InterpolatingParam id="45" interp="linr"  time="-9999999/1" value="1" leadInLength="0/1"  interpolater="leadin-linr"  name="opacity"/>
          <InterpolatingParam id="46" interp="linr"  time="0/1" value="1" leadInLength="0/1"  name="cursorOpacity"/>
          <InterpolatingParam id="47" interp="linr"  time="0/1" value="1" leadInLength="0/1"  name="cursorScale"/>
          <InterpolatingParam id="48" interp="linr"  time="0/1" value="1" leadInLength="0/1"  name="volume"/>
          <Parameter id="49"  name="captions"/>
         </Parameters>
         <Effects>
          <GenericEffect id="50" name = "CursorBaseEffectName" >
           <Parameters>
           <InterpolatingParam id="51" interp="linr"  time="-9999999/1" value="1" leadInLength="0/1"   name="cursorSize"/>
           <InterpolatingParam id="52" interp="linr"  time="-9999999/1" value="0" leadInLength="0/1"   name="highlightBlurRadius"/>
           <InterpolatingParam id="53" interp="linr"  time="-9999999/1" value="0" leadInLength="0/1"   name="highlightColorBlue"/>
           <InterpolatingParam id="54" interp="linr"  time="-9999999/1" value="255" leadInLength="0/1"   name="highlightColorGreen"/>
           <InterpolatingParam id="55" interp="linr"  time="-9999999/1" value="255" leadInLength="0/1"   name="highlightColorRed"/>
           <InterpolatingParam id="56" interp="linr"  time="-9999999/1" value="5" leadInLength="0/1"   name="highlightFeatherSize"/>
           <InterpolatingParam id="57" interp="linr"  time="-9999999/1" value="2" leadInLength="0/1"   name="highlightMagnification"/>
           <InterpolatingParam id="58" interp="linr"  time="-9999999/1" value="1" leadInLength="0/1"   name="highlightOpacity"/>
           <InterpolatingParam id="59" interp="linr"  time="-9999999/1" value="45" leadInLength="0/1"   name="highlightSize"/>
           <Parameter id="60"   name="highlightType">
            <Keyframes>
            <Keyframe id="61"  time="-9999999/1" value="0" leadInLength="0/1"  />
            </Keyframes>
           </Parameter>
           <InterpolatingParam id="62" interp="linr"  time="-9999999/1" value="0" leadInLength="0/1"   name="leftClickColorBlue"/>
           <InterpolatingParam id="63" interp="linr"  time="-9999999/1" value="0" leadInLength="0/1"   name="leftClickColorGreen"/>
           <InterpolatingParam id="64" interp="linr"  time="-9999999/1" value="255" leadInLength="0/1"   name="leftClickColorRed"/>
           <InterpolatingParam id="65" interp="linr"  time="-9999999/1" value="0.80000000000000004" leadInLength="0/1"   name="leftClickDuration"/>
           <InterpolatingParam id="66" interp="linr"  time="-9999999/1" value="20" leadInLength="0/1"   name="leftClickSize"/>
           <Parameter id="67"   name="leftClickSoundFilename">
            <Keyframes>
            <Keyframe id="68"  time="-9999999/1" value="" leadInLength="0/1"  />
            </Keyframes>
           </Parameter>
           <InterpolatingParam id="69" interp="linr"  time="-9999999/1" value="1" leadInLength="0/1"   name="leftClickSoundVolume"/>
           <Parameter id="70"   name="leftClickType">
            <Keyframes>
            <Keyframe id="71"  time="-9999999/1" value="0" leadInLength="0/1"  />
            </Keyframes>
           </Parameter>
           <InterpolatingParam id="72" interp="linr"  time="-9999999/1" value="1" leadInLength="0/1"   name="opacity"/>
           <InterpolatingParam id="73" interp="linr"  time="-9999999/1" value="255" leadInLength="0/1"   name="rightClickColorBlue"/>
           <InterpolatingParam id="74" interp="linr"  time="-9999999/1" value="0" leadInLength="0/1"   name="rightClickColorGreen"/>
           <InterpolatingParam id="75" interp="linr"  time="-9999999/1" value="0" leadInLength="0/1"   name="rightClickColorRed"/>
           <InterpolatingParam id="76" interp="linr"  time="-9999999/1" value="0.80000000000000004" leadInLength="0/1"   name="rightClickDuration"/>
           <InterpolatingParam id="77" interp="linr"  time="-9999999/1" value="20" leadInLength="0/1"   name="rightClickSize"/>
           <Parameter id="78"   name="rightClickSoundFilename">
            <Keyframes>
            <Keyframe id="79"  time="-9999999/1" value="" leadInLength="0/1"  />
            </Keyframes>
           </Parameter>
           <InterpolatingParam id="80" interp="linr"  time="-9999999/1" value="1" leadInLength="0/1"   name="rightClickSoundVolume"/>
           <Parameter id="81"   name="rightClickType">
            <Keyframes>
            <Keyframe id="82"  time="-9999999/1" value="0" leadInLength="0/1"  />
            </Keyframes>
           </Parameter>
           </Parameters>
           <MetaData>
            <entry key="effectIndex" val="0"/>
           </MetaData>
          </GenericEffect>
          <GenericEffect id="83" name = "NoiseReduction" >
           <Parameters>
           <InterpolatingParam id="84" interp="linr"  time="0/1" value="27.599999999999998" leadInLength="0/1"   name="denoiserAmount"/>
           <InterpolatingParam id="85" interp="linr"  time="0/1" value="2.2799999999999994" leadInLength="0/1"   name="denoiserThreshold"/>
           <Parameter id="86"   name="noiseProfile">
            <Keyframes>
            <Keyframe id="87"  time="0/1" value="FBAAAAIAAABErAAAAQIAAOUFb8Kl3VTCrzJHwqT6VcKkK2/CVfFpwkypaMJOK3HC0Xt7wrSMe8Lh&#xD;&#xa;BHzCUs6BwvIWh8JfMIrCxFGMwoDkkMLSO43C1V2KwpwjicIT1IbCOHOFwrUKhsK4+obCKgmLwpX0&#xD;&#xa;i8IiBYvCLB2JwlJ9icKzgo3CI8SLwpkWh8LPOYvCHnySwmIRlcKoMZTCUYOQwgK+jMJw5YvCmE+O&#xD;&#xa;wv1OjsJ4cJDCpJqQwrqgjMJwPo7CfIOOwsmqisIHn4jC63mJwu0iicLvm4jCWlWMwgqmhsKGQoXC&#xD;&#xa;sxuLwtXljMK9/YjCrreIwn7UisJolo/CXSqVwgEsmsKw05/Ca66gwvKIn8KchKDCf5SjwmDPpsL7&#xD;&#xa;0KTCPG2hwnwamMJae5LCNx6UwlArnsIArKTCzv2kwiKkqcJAAqnCBU6rwuWgrsJeJavCXlmrwjrY&#xD;&#xa;rMJYvKvCwNuqwkHwq8Jg66nCcgGmwpaqpsKu86jCwKKowjBvq8LMsa3C0xGrwoU7qMKEcqnCM7+u&#xD;&#xa;wl9grMI+oKrClOuowoQpqcIAOqrCaPiuwj9irsIZIa3CWQ2twkBursIVZrDC9MKvwoy8scLm7bLC&#xD;&#xa;HMC0wrGDtMItj7LCK56uwlSErcKHAK/Cok+uwrGXr8KUkq/C7GOwwsRxscK36bHC6Uqzwg3EssK+&#xD;&#xa;zLLCaO+0wsj3tMJ3eLTCtma0wrF9tcL/ibXChH22wvIOt8Knj7TCNjy0wjnNt8L9/bnCqiy4wn4d&#xD;&#xa;t8KalLnCoQK5wvD2uMICLbjCNPy2wna1uML6FLjCRDK1wqzotcIC47bCuMq2wlaEuMKVObTCnqm1&#xD;&#xa;wpa0t8KiTLTCga6wwqQvs8KVVrbCMe63wq5QuMLvlbfCs3G2wlSitsKIY7bCMh+3wgKRt8LVobnC&#xD;&#xa;2Va4wi3OtcJvULTChduzwj8Ct8L6l7bCk/Wzwn4ctsK6zrbCO1a3wj6EssKGwbPCRAS4wsneuMJs&#xD;&#xa;zbbC+u+4wrZzu8IsO7rCXNO5wtvuuMIri7bCX8+1wtqyt8KSXbvCwM+6woILusJ2s7rCpnC7wowS&#xD;&#xa;usIAvrrCUyC8wsaEu8IY4b3CyAW/wioVwcKqLcPCNiq+whksvsJ+krzCP9q7wpwwvMI47L3Coh69&#xD;&#xa;wqZdvcL5yL3CBs27wk5gvMIG/7/CyNW/wvOuvcLS37/CHHzDwnf5wMKMkb/CxrW9wnyjvsLrcMHC&#xD;&#xa;8I/BwiJSv8IyYb/CPHnAwhoJwcL2iMDC2ofCwmAtwMLtI73C8me/wh5Rw8IMAsPCGpLAwgL6wcKK&#xD;&#xa;6MTCBsXDwiOnwcK0t8LCev7CwvRyw8LKH8TCDG/EwnRewsLnVr/CcyzCwpHQw8IC6cTCZ/rCwjzI&#xD;&#xa;w8ImMMXCJF/DwkAIusIQkbzCPJ7GwtqCxsJ05sTCvDTFwrRhxcL4S8bCIp7EwrgHxcJuC8XCHqPF&#xD;&#xa;wtKCxcLOs8PCwoXCwsCiwsIqV8XCqRbFwgyJxcJxcMTCMofGwgqMxcJTM8XC3769wh6nu8L1oMLC&#xD;&#xa;YCfEwimlw8I4r8LC6JvBwp7swsLcgsLCPpLEwlBIysI19srC0z3GwtzRwsIl7cLCRorDwgocxMJ2&#xD;&#xa;A8XCBqnDwp75xsL01sbC8ITGwvayxcIWh8PCfoDBwqLKxMLoOMfCiLXGwnmSx8JGvcfCVtPFwjmY&#xD;&#xa;xMIY98XC1gvJwnDYx8J6BcbCNNTEwpLbxcKsC8XCR77FwleqxsJuMMbC5DPGwkJuyMKe6MrCetnI&#xD;&#xa;wrNoxsJm4sDCOJbDwpqtw8LsTMTCEd/GwmpFx8KdbsbCq0HHwr4MyMKEXsjCTWjHwsdYxMLOtMPC&#xD;&#xa;x8zGwqa7xsKn6sXCCMzFwscLxsLi0cTCKjnGwlhXyMKk+MbCydjGwglsw8IsssPC3v/GwoJ1x8Ic&#xD;&#xa;acrC3mfbwhzN98JIdPnCrKb4wti79cJGY/fCKtn5wiQh+MJg7vnCAMr5wlb99sLK6vjCeiD7wmKK&#xD;&#xa;+cLmGvfCZtz1wnpN+cLYcfnC1H37wpju+cKGD/rCVjr8wjjZ+cIwdPnCuCH1wkyy9sKkBPnCeqH5&#xD;&#xa;wpiz+sJYofjCUT/3wkmu98L+U/rCorT7wn6/+sJIs/rC0rn3wkqG9sKbH/jClmf4wnZd9sJy/PfC&#xD;&#xa;vNr4wh6M+cIEJfbCeJfzwmgJ9cIwcfjC5r36wvDj+MIigPjCJqb4whDj+MJWs/nCgjb2wlCk9cLm&#xD;&#xa;oPTCC3v1wjZ6+cL2wvrCY9v3wnaG9cLfRPjCILX6wiKB+cJtHffCHGD1wqI39sIwBPbCgT74wo6v&#xD;&#xa;98Lo+ffCWAb3wuqd9sL4bPjCfjT5wqbs9sJCjfjCEhz5wnrT98KXGvbCvgb0woSB88LmffjCVuv3&#xD;&#xa;wva1+MJqD/jCa3D3woY2+cIGj/jC2zP2wnh/9MLOgvjC2O75wu899sLwgPbCxkL5wtrx9sIui/bC&#xD;&#xa;3M35wgKl+ML8pvnCPBf5wgxA98LUb/jCBGn2wlPE9cIeN/bC9Av5wnAK/cIiKfrC/n73wjo888JO&#xD;&#xa;T/PCj3X2wkA898L4MPbC1gL3whez9sIcyvXCY1P4wgL0+sIGt/fCYl/3wkgc9sJMRvjCFDv2wgs5&#xD;&#xa;9sI0lPfCJj74wiiw9sJhDfjCYFX7wgBb/cJQt/3ChHH6wrwt+cIwCfrCxkD3wnOf9cKajvfCqjj2&#xD;&#xa;wmA/9sK73vTCjWH1wobT9sLS+ffCRPj5woCO+MKQXfjCAff2wsAQ+MLUHfrCDI75wjpK98JezvfC&#xD;&#xa;Qv/4wg4E+MKIQvjCOQIEwxAHb8IR3lTCoTJHwrX6VcLbLG/CMPNpwnyqaMJdLHHCzXl7wtWIe8Lw&#xD;&#xa;/3vCa8uBwtMTh8KWLYrCjFCMwiDjkMKyOo3CDV6KwoAkicJk0obCXnKFwkQKhsKT+obCrgeLwjD0&#xD;&#xa;i8JIBYvCyxyJwld9icLogI3CCcaLwgkah8IkOovCZXqSwrsRlcK6MJTCKIGQwnm9jMKJ5YvCL1CO&#xD;&#xa;wjhMjsL5bZDC1pmQwkWgjMKMPY7C9oeOwpWuisKZoIjC/HuJwo8iicJvnIjCgleMwl6mhsJmQ4XC&#xD;&#xa;/ByLwsbjjMIc/YjCxrmIwp7WisI5lo/CYC+Vwkw0msKB3J/C/rigws+Jn8KBfaDC9JKjwn/WpsJf&#xD;&#xa;3aTCD2+hwoUYmMKceJLCVR2UwsAlnsISrqTCUhClwlXCqcLhKqnCmGGrwjm0rsK3K6vCxmirwvvn&#xD;&#xa;rMKOs6vCBPCqwu4OrMLZCqrCiPilwuq5psJO86jCP5Kows9pq8Kd263C5jerwppSqMIalKnC+8eu&#xD;&#xa;wu6JrMK1sKrCovmowsA9qcK6FarC28quwniBrsLIJq3C1getwrBkrsJCd7DCN/yvwtr3scKCObPC&#xD;&#xa;HNu0wsWktMKKurLCMK2uwjRZrcIq0K7CzmGuwlLAr8K+A7DCIKmwwi7vscIPOLLCfJSzwgy8ssJl&#xD;&#xa;I7PCnfG0wmj1tMLXw7TCPau0woL2tcKc+rXCyOq2wv+Wt8Kc57TCfA21woxsuMKmrbnCTRC4wuTA&#xD;&#xa;t8LF+rnC76O5wiv0ucJEobjCqUG3wpDkuMKX7bfC7W21wu+otsKpYrfCOue2whCIuMImsbTCh8q1&#xD;&#xa;wg8TuMIntLTCjRixwlq5s8J727bC/zi4wsKQuMLHprfC0Gm2wseqtsJbRLbC2yC3wpYct8LMRbnC&#xD;&#xa;xIG4wuRItsLv3LTCpfuzwt5Ht8LslbbChO+zwiAotsKCBbfC3p23wkots8LYe7TCp0K4wu8mucKc&#xD;&#xa;LrfC6Ja4wu6Ou8LUGrrCAIO5wl76uMLgtLbCdKm2wvlDuMIPUrvC6o66wgcqusKOmbrCAKO7wl2A&#xD;&#xa;usKkuLvCNQ+9wsT9u8J+i77CKDLAwhowwsKeYsPC2cK9wuwbvcKUObzC8FK8wtgIvMJA1b3CB129&#xD;&#xa;wlRnvcKsa77Ccm+8wnpGvcI+PMDChp6/wo5zvcIe87/CCSfEwlIRwsJO/b/CJmq+wi6Av8I2u8LC&#xD;&#xa;Fv/CwuL9v8Id+77CTmfAwkX3wMK42MDCqoXCwszZwMIm1rzCeBS/wpV+w8LgBcPCtGTBwhLmwsKE&#xD;&#xa;JMbC8E/EwpYzwsKyrMLCZh7DwigVw8JGBsTCMjLEwnoYwsLoZr/C60/Cwktow8I2s8TCyibDwqXW&#xD;&#xa;w8LM0cXCw/zDwpAxusKIuLzCGKLGwjrwxcJaXMTC6KfEwquoxcLKLMbC/CPFwqj1xMLnF8XCz77F&#xD;&#xa;wgpzxcKOPMPCIAvCwoumwsJK2MXCipTFwlqZxcJeRMTC/IXGwmDnxcLvIMXCeqe9wvyTu8Ieu8LC&#xD;&#xa;/kjEwv/Hw8IIzsLCRMbBwqT9wsIBbsLCgIHEwshhysL2IcvC/mHGwqjRwsJA0cLC8ojDwqTzw8Ky&#xD;&#xa;0sTCsIXDwrDzxsKcK8fC3L7GwgbpxcLwd8PCQLrBwpBGxcIKjMfCWMPGwnZsx8JRzMfCa+zFwoah&#xD;&#xa;xMIqn8XCyMXIwt7Vx8K0E8bCFBrFwlQOxsKTAMXCBYfFwiiTxsKYBcbCU/bFwnFHyMJKdcrCr5rI&#xD;&#xa;wiKIxsI++cDCnK/Dwkmzw8IYIcTCKpXGwsIex8Iwg8bCiQDHwmg2yMIQwcjCQoDHwpwQxMI1isPC&#xD;&#xa;J7/Gwm52xsJQ0cXCuNfFwg1UxsIVTMXCylnGwmiPyMLGIsfCKKPGwm9iw8Lt7MPCaGfHwojHx8Iu&#xD;&#xa;fMrCiyjbwni+9cKervnCZ231ws7/9cJA0fjCECD4whLr88JZ7/XCriP4wsoJ98JjwvfCIgX4wm0N&#xD;&#xa;9sIWX/bCFEH5wuWR98Lmn/fCcmz4wp3I9cIVTPTCmJL1wg7h9sIZr/fCvMv5wvx++sI2j/fC4Eb1&#xD;&#xa;wvOw88JaHvfCRhr5wiQ5+MLnP/XCs8H1wgjE+MLS1fzCsH78wqTW+8IAwfrCdHX5wujD+sI4afnC&#xD;&#xa;EnX4wmJh+ML+UvfCLBn5wkw1+8L+pvnCprr4wlwq+cLSCfrCXvv5wtq6+MIOsfnCyDT7wgzF+MIw&#xD;&#xa;MPjCqkf5wiic9sLci/XCRpn1wu569MIALPfCUPv4wjTd+sKINPzCJFj3wtkk9sLKkfbC+mD4whds&#xD;&#xa;98JeT/bC4GX5wmJD9sLlJPXCmiT0wqOX9MLmtPbC1jP4whj798IuTvnCeFD6wroI+cLslPfCyJb4&#xD;&#xa;wozY+MJ8SPrCHH35wpoi+sLEEffCLrPzwkyF9sLePPbCq7j2wliL+MJdzffCLfn1wmT098J2YfjC&#xD;&#xa;WRf4wvai+ML0VPXCs5X1wsZe+MIBzffC8nH4wokc+MKKmPfCanj3wupG+MKg9vfCpiT5wu5J+cLe&#xD;&#xa;lPnCLKn3wiMW+MLkBvjC/Yn3wsrg98KidffCMFT3wmB79sJe3fbC9mz4wko7+MIyQvfC7QP1wk6G&#xD;&#xa;9sJKl/nCPq/6wtR7+MIoXPjCWu/5wlS0+MLKyPXCqIrywvXN88IqEPXCJB32wnqI9sJot/bCE8v2&#xD;&#xa;wkAw98K6MfjCGnv5woYy+sIS5PzCuuP4wtW69sIU5vnCqu75wkqi9cLmRvbCGjD2wnHV9sJ//fTC&#xD;&#xa;tij1wvab9cKn+PPCRtYA" leadInLength="0/1"  />
            </Keyframes>
           </Parameter>
           </Parameters>
           <MetaData>
            <entry key="effectIndex" val="1"/>
           </MetaData>
          </GenericEffect>
         </Effects>
         <Attributes>
          <Attribute id="88" value="" name="ident"/>
          <Attribute id="89" value="0" name="mixToMono"/>
         </Attributes>
         <MetaData>
          <entry key="AutoAppliedSmartFocus" val="False"/>
          <entry key="WinSubProjectDisplayName" val=""/>
         </MetaData>
         <ExtraData>
          <Entry key="ZoomPanBin">
           <ZoomPanBin id="90"  >
            <ZoomPanKeyframes>
             <ZoomPanKeyframe id="91" timeRangeEnd="-9999999/1" timeRangeDuration="0/1" interpolaterName="linr"  />
            </ZoomPanKeyframes>
           </ZoomPanBin>
          </Entry>
          <Entry key="CursorEffectBin">
           <CursorEffectBin id="92"  >
            <CursorEffectKeyframes>
             <CursorEffectKeyframe id="93" timeRangeEnd="-9999999/1" timeRangeDuration="0/1" interpolaterName=""  />
            </CursorEffectKeyframes>
           </CursorEffectBin>
          </Entry>
         </ExtraData>
         <GenericTrack id="94"  >
          <Attributes>
           <Attribute id="95" value="" name="ident"/>
           <Attribute id="96" value="0" name="audioMuted"/>
           <Attribute id="97" value="0" name="videoHidden"/>
          </Attributes>
          <MetaData>
           <entry key="IsLocked" val="False"/>
           <entry key="WinTrackHeight" val="0"/>
          </MetaData>
          <Medias>
           <UnifiedMedia id="98"  >
            <AMFile id="99" start="0" duration="21" scalar="1/1" mediaStart="0/1" mediaDuration="21/1" trackNumber="1" src="4" channelNumber="0,1" >
             <Parameters>
              <InterpolatingParam id="100" interp="linr"  time="0/1" value="1" leadInLength="0/1"  name="volume"/>
              <Parameter id="101"  name="captions"/>
             </Parameters>
             <Attributes>
              <Attribute id="102" value="" name="ident"/>
              <Attribute id="103" value="44100" name="sampleRate"/>
              <Attribute id="104" value="16" name="bitDepth"/>
              <Attribute id="105" value="1" name="gain"/>
              <Attribute id="106" value="0" name="mixToMono"/>
             </Attributes>
            </AMFile>
            <ScreenVMFile id="107" start="0" duration="21" scalar="1/1" mediaStart="0/1" mediaDuration="21/1" trackNumber="0" src="4" >
             <Transformer>
              <VectorParam id="108"  name="translation">
               <InterpolatingParam id="109" interp="linr"  time="-9999999/1" value="0" leadInLength="0/1"  />
               <InterpolatingParam id="110" interp="linr"  time="-9999999/1" value="0" leadInLength="0/1"  />
               <InterpolatingParam id="111" interp="linr"  time="-9999999/1" value="0" leadInLength="0/1"  />
              </VectorParam>
              <VectorParam id="112"  name="rotation">
               <InterpolatingParam id="113" interp="linr"  time="-9999999/1" value="0" leadInLength="0/1"  />
               <InterpolatingParam id="114" interp="linr"  time="-9999999/1" value="0" leadInLength="0/1"  />
               <InterpolatingParam id="115" interp="linr"  time="-9999999/1" value="0" leadInLength="0/1"  />
              </VectorParam>
              <VectorParam id="116"  name="shear">
               <InterpolatingParam id="117" interp="linr"  time="-9999999/1" value="0" leadInLength="0/1"  />
               <InterpolatingParam id="118" interp="linr"  time="-9999999/1" value="0" leadInLength="0/1"  />
               <InterpolatingParam id="119" interp="linr"  time="-9999999/1" value="0" leadInLength="0/1"  />
              </VectorParam>
              <VectorParam id="120"  name="scale">
               <InterpolatingParam id="121" interp="linr"  time="-9999999/1" value="1" leadInLength="0/1"  />
               <InterpolatingParam id="122" interp="linr"  time="-9999999/1" value="1" leadInLength="0/1"  />
               <InterpolatingParam id="123" interp="linr"  time="-9999999/1" value="1" leadInLength="0/1"  />
              </VectorParam>
              <VectorParam id="124"  name="anchor">
               <InterpolatingParam id="125" interp="linr"  time="0/1" value="0" leadInLength="0/1"  />
               <InterpolatingParam id="126" interp="linr"  time="0/1" value="0" leadInLength="0/1"  />
               <InterpolatingParam id="127" interp="linr"  time="0/1" value="0" leadInLength="0/1"  />
              </VectorParam>
             </Transformer>
             <Parameters>
              <VectorParam id="128"  name="sourceCrop">
               <InterpolatingParam id="129" interp="linr"  time="0/1" value="0" leadInLength="0/1"  />
               <InterpolatingParam id="130" interp="linr"  time="0/1" value="0" leadInLength="0/1"  />
               <InterpolatingParam id="131" interp="linr"  time="0/1" value="0" leadInLength="0/1"  />
               <InterpolatingParam id="132" interp="linr"  time="0/1" value="0" leadInLength="0/1"  />
              </VectorParam>
              <VectorParam id="133"  name="geometryCrop">
               <InterpolatingParam id="134" interp="linr"  time="-9999999/1" value="0" leadInLength="0/1"  />
               <InterpolatingParam id="135" interp="linr"  time="-9999999/1" value="0" leadInLength="0/1"  />
               <InterpolatingParam id="136" interp="linr"  time="-9999999/1" value="0" leadInLength="0/1"  />
               <InterpolatingParam id="137" interp="linr"  time="-9999999/1" value="0" leadInLength="0/1"  />
              </VectorParam>
              <InterpolatingParam id="138" interp="linr"  time="-9999999/1" value="1" leadInLength="0/1"  name="opacity"/>
              <InterpolatingParam id="139" interp="linr"  time="0/1" value="0" leadInLength="0/1"  name="cursorOpacity"/>
              <InterpolatingParam id="140" interp="linr"  time="0/1" value="0" leadInLength="0/1"  name="cursorScale"/>
             </Parameters>
             <Attributes>
              <Attribute id="141" value="" name="ident"/>
             </Attributes>
             <ExtraData>
              <Entry key="ZoomPanBin">
               <ZoomPanBin id="142"  >
                <ZoomPanKeyframes>
                 <ZoomPanKeyframe id="143" timeRangeEnd="-9999999/1" timeRangeDuration="0/1" interpolaterName=""  />
                </ZoomPanKeyframes>
               </ZoomPanBin>
              </Entry>
              <Entry key="CursorEffectBin">
               <CursorEffectBin id="144"  >
                <CursorEffectKeyframes>
                </CursorEffectKeyframes>
               </CursorEffectBin>
              </Entry>
             </ExtraData>
            </ScreenVMFile>
            <MetaData>
             <entry key="AutoAppliedSmartFocus" val="False"/>
             <entry key="WinSubProjectDisplayName" val=""/>
            </MetaData>
           </UnifiedMedia>
           <UnifiedMedia id="145"  >
            <AMFile id="146" start="21" duration="493" scalar="1/1" mediaStart="251/1" mediaDuration="493/1" trackNumber="1" src="4" channelNumber="0,1" >
             <Parameters>
              <InterpolatingParam id="147" interp="linr"  time="0/1" value="1" leadInLength="0/1"  name="volume"/>
              <Parameter id="148"  name="captions"/>
             </Parameters>
             <Attributes>
              <Attribute id="149" value="" name="ident"/>
              <Attribute id="150" value="44100" name="sampleRate"/>
              <Attribute id="151" value="16" name="bitDepth"/>
              <Attribute id="152" value="1" name="gain"/>
              <Attribute id="153" value="0" name="mixToMono"/>
             </Attributes>
            </AMFile>
            <ScreenVMFile id="154" start="21" duration="493" scalar="1/1" mediaStart="251/1" mediaDuration="493/1" trackNumber="0" src="4" >
             <Transformer>
              <VectorParam id="155"  name="translation">
               <InterpolatingParam id="156" interp="linr"  time="-9999999/1" value="0" leadInLength="0/1"  />
               <InterpolatingParam id="157" interp="linr"  time="-9999999/1" value="0" leadInLength="0/1"  />
               <InterpolatingParam id="158" interp="linr"  time="-9999999/1" value="0" leadInLength="0/1"  />
              </VectorParam>
              <VectorParam id="159"  name="rotation">
               <InterpolatingParam id="160" interp="linr"  time="-9999999/1" value="0" leadInLength="0/1"  />
               <InterpolatingParam id="161" interp="linr"  time="-9999999/1" value="0" leadInLength="0/1"  />
               <InterpolatingParam id="162" interp="linr"  time="-9999999/1" value="0" leadInLength="0/1"  />
              </VectorParam>
              <VectorParam id="163"  name="shear">
               <InterpolatingParam id="164" interp="linr"  time="-9999999/1" value="0" leadInLength="0/1"  />
               <InterpolatingParam id="165" interp="linr"  time="-9999999/1" value="0" leadInLength="0/1"  />
               <InterpolatingParam id="166" interp="linr"  time="-9999999/1" value="0" leadInLength="0/1"  />
              </VectorParam>
              <VectorParam id="167"  name="scale">
               <InterpolatingParam id="168" interp="linr"  time="-9999999/1" value="1" leadInLength="0/1"  />
               <InterpolatingParam id="169" interp="linr"  time="-9999999/1" value="1" leadInLength="0/1"  />
               <InterpolatingParam id="170" interp="linr"  time="-9999999/1" value="1" leadInLength="0/1"  />
              </VectorParam>
              <VectorParam id="171"  name="anchor">
               <InterpolatingParam id="172" interp="linr"  time="0/1" value="0" leadInLength="0/1"  />
               <InterpolatingParam id="173" interp="linr"  time="0/1" value="0" leadInLength="0/1"  />
               <InterpolatingParam id="174" interp="linr"  time="0/1" value="0" leadInLength="0/1"  />
              </VectorParam>
             </Transformer>
             <Parameters>
              <VectorParam id="175"  name="sourceCrop">
               <InterpolatingParam id="176" interp="linr"  time="0/1" value="0" leadInLength="0/1"  />
               <InterpolatingParam id="177" interp="linr"  time="0/1" value="0" leadInLength="0/1"  />
               <InterpolatingParam id="178" interp="linr"  time="0/1" value="0" leadInLength="0/1"  />
               <InterpolatingParam id="179" interp="linr"  time="0/1" value="0" leadInLength="0/1"  />
              </VectorParam>
              <VectorParam id="180"  name="geometryCrop">
               <InterpolatingParam id="181" interp="linr"  time="-9999999/1" value="0" leadInLength="0/1"  />
               <InterpolatingParam id="182" interp="linr"  time="-9999999/1" value="0" leadInLength="0/1"  />
               <InterpolatingParam id="183" interp="linr"  time="-9999999/1" value="0" leadInLength="0/1"  />
               <InterpolatingParam id="184" interp="linr"  time="-9999999/1" value="0" leadInLength="0/1"  />
              </VectorParam>
              <InterpolatingParam id="185" interp="linr"  time="-9999999/1" value="1" leadInLength="0/1"  name="opacity"/>
              <InterpolatingParam id="186" interp="linr"  time="0/1" value="0" leadInLength="0/1"  name="cursorOpacity"/>
              <InterpolatingParam id="187" interp="linr"  time="0/1" value="0" leadInLength="0/1"  name="cursorScale"/>
             </Parameters>
             <Attributes>
              <Attribute id="188" value="" name="ident"/>
             </Attributes>
             <ExtraData>
              <Entry key="ZoomPanBin">
               <ZoomPanBin id="189"  >
                <ZoomPanKeyframes>
                 <ZoomPanKeyframe id="190" timeRangeEnd="-9999999/1" timeRangeDuration="0/1" interpolaterName=""  />
                </ZoomPanKeyframes>
               </ZoomPanBin>
              </Entry>
              <Entry key="CursorEffectBin">
               <CursorEffectBin id="191"  >
                <CursorEffectKeyframes>
                </CursorEffectKeyframes>
               </CursorEffectBin>
              </Entry>
             </ExtraData>
            </ScreenVMFile>
            <MetaData>
             <entry key="AutoAppliedSmartFocus" val="False"/>
             <entry key="WinSubProjectDisplayName" val=""/>
            </MetaData>
           </UnifiedMedia>
           <UnifiedMedia id="192"  >
            <AMFile id="193" start="514" duration="403" scalar="1/1" mediaStart="890/1" mediaDuration="403/1" trackNumber="1" src="4" channelNumber="0,1" >
             <Parameters>
              <InterpolatingParam id="194" interp="linr"  time="0/1" value="1" leadInLength="0/1"  name="volume"/>
              <Parameter id="195"  name="captions"/>
             </Parameters>
             <Attributes>
              <Attribute id="196" value="" name="ident"/>
              <Attribute id="197" value="44100" name="sampleRate"/>
              <Attribute id="198" value="16" name="bitDepth"/>
              <Attribute id="199" value="1" name="gain"/>
              <Attribute id="200" value="0" name="mixToMono"/>
             </Attributes>
            </AMFile>
            <ScreenVMFile id="201" start="514" duration="403" scalar="1/1" mediaStart="890/1" mediaDuration="403/1" trackNumber="0" src="4" >
             <Transformer>
              <VectorParam id="202"  name="translation">
               <InterpolatingParam id="203" interp="linr"  time="-9999999/1" value="0" leadInLength="0/1"  />
               <InterpolatingParam id="204" interp="linr"  time="-9999999/1" value="0" leadInLength="0/1"  />
               <InterpolatingParam id="205" interp="linr"  time="-9999999/1" value="0" leadInLength="0/1"  />
              </VectorParam>
              <VectorParam id="206"  name="rotation">
               <InterpolatingParam id="207" interp="linr"  time="-9999999/1" value="0" leadInLength="0/1"  />
               <InterpolatingParam id="208" interp="linr"  time="-9999999/1" value="0" leadInLength="0/1"  />
               <InterpolatingParam id="209" interp="linr"  time="-9999999/1" value="0" leadInLength="0/1"  />
              </VectorParam>
              <VectorParam id="210"  name="shear">
               <InterpolatingParam id="211" interp="linr"  time="-9999999/1" value="0" leadInLength="0/1"  />
               <InterpolatingParam id="212" interp="linr"  time="-9999999/1" value="0" leadInLength="0/1"  />
               <InterpolatingParam id="213" interp="linr"  time="-9999999/1" value="0" leadInLength="0/1"  />
              </VectorParam>
              <VectorParam id="214"  name="scale">
               <InterpolatingParam id="215" interp="linr"  time="-9999999/1" value="1" leadInLength="0/1"  />
               <InterpolatingParam id="216" interp="linr"  time="-9999999/1" value="1" leadInLength="0/1"  />
               <InterpolatingParam id="217" interp="linr"  time="-9999999/1" value="1" leadInLength="0/1"  />
              </VectorParam>
              <VectorParam id="218"  name="anchor">
               <InterpolatingParam id="219" interp="linr"  time="0/1" value="0" leadInLength="0/1"  />
               <InterpolatingParam id="220" interp="linr"  time="0/1" value="0" leadInLength="0/1"  />
               <InterpolatingParam id="221" interp="linr"  time="0/1" value="0" leadInLength="0/1"  />
              </VectorParam>
             </Transformer>
             <Parameters>
              <VectorParam id="222"  name="sourceCrop">
               <InterpolatingParam id="223" interp="linr"  time="0/1" value="0" leadInLength="0/1"  />
               <InterpolatingParam id="224" interp="linr"  time="0/1" value="0" leadInLength="0/1"  />
               <InterpolatingParam id="225" interp="linr"  time="0/1" value="0" leadInLength="0/1"  />
               <InterpolatingParam id="226" interp="linr"  time="0/1" value="0" leadInLength="0/1"  />
              </VectorParam>
              <VectorParam id="227"  name="geometryCrop">
               <InterpolatingParam id="228" interp="linr"  time="-9999999/1" value="0" leadInLength="0/1"  />
               <InterpolatingParam id="229" interp="linr"  time="-9999999/1" value="0" leadInLength="0/1"  />
               <InterpolatingParam id="230" interp="linr"  time="-9999999/1" value="0" leadInLength="0/1"  />
               <InterpolatingParam id="231" interp="linr"  time="-9999999/1" value="0" leadInLength="0/1"  />
              </VectorParam>
              <InterpolatingParam id="232" interp="linr"  time="-9999999/1" value="1" leadInLength="0/1"  name="opacity"/>
              <InterpolatingParam id="233" interp="linr"  time="0/1" value="0" leadInLength="0/1"  name="cursorOpacity"/>
              <InterpolatingParam id="234" interp="linr"  time="0/1" value="0" leadInLength="0/1"  name="cursorScale"/>
             </Parameters>
             <Attributes>
              <Attribute id="235" value="" name="ident"/>
             </Attributes>
             <ExtraData>
              <Entry key="ZoomPanBin">
               <ZoomPanBin id="236"  >
                <ZoomPanKeyframes>
                 <ZoomPanKeyframe id="237" timeRangeEnd="-9999999/1" timeRangeDuration="0/1" interpolaterName=""  />
                </ZoomPanKeyframes>
               </ZoomPanBin>
              </Entry>
              <Entry key="CursorEffectBin">
               <CursorEffectBin id="238"  >
                <CursorEffectKeyframes>
                </CursorEffectKeyframes>
               </CursorEffectBin>
              </Entry>
             </ExtraData>
            </ScreenVMFile>
            <MetaData>
             <entry key="AutoAppliedSmartFocus" val="False"/>
             <entry key="WinSubProjectDisplayName" val=""/>
            </MetaData>
           </UnifiedMedia>
           <UnifiedMedia id="239"  >
            <AMFile id="240" start="917" duration="66" scalar="1/1" mediaStart="1442/1" mediaDuration="66/1" trackNumber="1" src="4" channelNumber="0,1" >
             <Parameters>
              <InterpolatingParam id="241" interp="linr"  time="0/1" value="1" leadInLength="0/1"  name="volume"/>
              <Parameter id="242"  name="captions"/>
             </Parameters>
             <Attributes>
              <Attribute id="243" value="" name="ident"/>
              <Attribute id="244" value="44100" name="sampleRate"/>
              <Attribute id="245" value="16" name="bitDepth"/>
              <Attribute id="246" value="1" name="gain"/>
              <Attribute id="247" value="0" name="mixToMono"/>
             </Attributes>
            </AMFile>
            <ScreenVMFile id="248" start="917" duration="66" scalar="1/1" mediaStart="1442/1" mediaDuration="66/1" trackNumber="0" src="4" >
             <Transformer>
              <VectorParam id="249"  name="translation">
               <InterpolatingParam id="250" interp="linr"  time="-9999999/1" value="0" leadInLength="0/1"  />
               <InterpolatingParam id="251" interp="linr"  time="-9999999/1" value="0" leadInLength="0/1"  />
               <InterpolatingParam id="252" interp="linr"  time="-9999999/1" value="0" leadInLength="0/1"  />
              </VectorParam>
              <VectorParam id="253"  name="rotation">
               <InterpolatingParam id="254" interp="linr"  time="-9999999/1" value="0" leadInLength="0/1"  />
               <InterpolatingParam id="255" interp="linr"  time="-9999999/1" value="0" leadInLength="0/1"  />
               <InterpolatingParam id="256" interp="linr"  time="-9999999/1" value="0" leadInLength="0/1"  />
              </VectorParam>
              <VectorParam id="257"  name="shear">
               <InterpolatingParam id="258" interp="linr"  time="-9999999/1" value="0" leadInLength="0/1"  />
               <InterpolatingParam id="259" interp="linr"  time="-9999999/1" value="0" leadInLength="0/1"  />
               <InterpolatingParam id="260" interp="linr"  time="-9999999/1" value="0" leadInLength="0/1"  />
              </VectorParam>
              <VectorParam id="261"  name="scale">
               <InterpolatingParam id="262" interp="linr"  time="-9999999/1" value="1" leadInLength="0/1"  />
               <InterpolatingParam id="263" interp="linr"  time="-9999999/1" value="1" leadInLength="0/1"  />
               <InterpolatingParam id="264" interp="linr"  time="-9999999/1" value="1" leadInLength="0/1"  />
              </VectorParam>
              <VectorParam id="265"  name="anchor">
               <InterpolatingParam id="266" interp="linr"  time="0/1" value="0" leadInLength="0/1"  />
               <InterpolatingParam id="267" interp="linr"  time="0/1" value="0" leadInLength="0/1"  />
               <InterpolatingParam id="268" interp="linr"  time="0/1" value="0" leadInLength="0/1"  />
              </VectorParam>
             </Transformer>
             <Parameters>
              <VectorParam id="269"  name="sourceCrop">
               <InterpolatingParam id="270" interp="linr"  time="0/1" value="0" leadInLength="0/1"  />
               <InterpolatingParam id="271" interp="linr"  time="0/1" value="0" leadInLength="0/1"  />
               <InterpolatingParam id="272" interp="linr"  time="0/1" value="0" leadInLength="0/1"  />
               <InterpolatingParam id="273" interp="linr"  time="0/1" value="0" leadInLength="0/1"  />
              </VectorParam>
              <VectorParam id="274"  name="geometryCrop">
               <InterpolatingParam id="275" interp="linr"  time="-9999999/1" value="0" leadInLength="0/1"  />
               <InterpolatingParam id="276" interp="linr"  time="-9999999/1" value="0" leadInLength="0/1"  />
               <InterpolatingParam id="277" interp="linr"  time="-9999999/1" value="0" leadInLength="0/1"  />
               <InterpolatingParam id="278" interp="linr"  time="-9999999/1" value="0" leadInLength="0/1"  />
              </VectorParam>
              <InterpolatingParam id="279" interp="linr"  time="-9999999/1" value="1" leadInLength="0/1"  name="opacity"/>
              <InterpolatingParam id="280" interp="linr"  time="0/1" value="0" leadInLength="0/1"  name="cursorOpacity"/>
              <InterpolatingParam id="281" interp="linr"  time="0/1" value="0" leadInLength="0/1"  name="cursorScale"/>
             </Parameters>
             <Attributes>
              <Attribute id="282" value="" name="ident"/>
             </Attributes>
             <ExtraData>
              <Entry key="ZoomPanBin">
               <ZoomPanBin id="283"  >
                <ZoomPanKeyframes>
                 <ZoomPanKeyframe id="284" timeRangeEnd="-9999999/1" timeRangeDuration="0/1" interpolaterName=""  />
                </ZoomPanKeyframes>
               </ZoomPanBin>
              </Entry>
              <Entry key="CursorEffectBin">
               <CursorEffectBin id="285"  >
                <CursorEffectKeyframes>
                </CursorEffectKeyframes>
               </CursorEffectBin>
              </Entry>
             </ExtraData>
            </ScreenVMFile>
            <MetaData>
             <entry key="AutoAppliedSmartFocus" val="False"/>
             <entry key="WinSubProjectDisplayName" val=""/>
            </MetaData>
           </UnifiedMedia>
           <UnifiedMedia id="286"  >
            <AMFile id="287" start="983" duration="128" scalar="1/1" mediaStart="1518/1" mediaDuration="128/1" trackNumber="1" src="4" channelNumber="0,1" >
             <Parameters>
              <InterpolatingParam id="288" interp="linr"  time="0/1" value="1" leadInLength="0/1"  name="volume"/>
              <Parameter id="289"  name="captions"/>
             </Parameters>
             <Attributes>
              <Attribute id="290" value="" name="ident"/>
              <Attribute id="291" value="44100" name="sampleRate"/>
              <Attribute id="292" value="16" name="bitDepth"/>
              <Attribute id="293" value="1" name="gain"/>
              <Attribute id="294" value="0" name="mixToMono"/>
             </Attributes>
            </AMFile>
            <ScreenVMFile id="295" start="983" duration="128" scalar="1/1" mediaStart="1518/1" mediaDuration="128/1" trackNumber="0" src="4" >
             <Transformer>
              <VectorParam id="296"  name="translation">
               <InterpolatingParam id="297" interp="linr"  time="-9999999/1" value="0" leadInLength="0/1"  />
               <InterpolatingParam id="298" interp="linr"  time="-9999999/1" value="0" leadInLength="0/1"  />
               <InterpolatingParam id="299" interp="linr"  time="-9999999/1" value="0" leadInLength="0/1"  />
              </VectorParam>
              <VectorParam id="300"  name="rotation">
               <InterpolatingParam id="301" interp="linr"  time="-9999999/1" value="0" leadInLength="0/1"  />
               <InterpolatingParam id="302" interp="linr"  time="-9999999/1" value="0" leadInLength="0/1"  />
               <InterpolatingParam id="303" interp="linr"  time="-9999999/1" value="0" leadInLength="0/1"  />
              </VectorParam>
              <VectorParam id="304"  name="shear">
               <InterpolatingParam id="305" interp="linr"  time="-9999999/1" value="0" leadInLength="0/1"  />
               <InterpolatingParam id="306" interp="linr"  time="-9999999/1" value="0" leadInLength="0/1"  />
               <InterpolatingParam id="307" interp="linr"  time="-9999999/1" value="0" leadInLength="0/1"  />
              </VectorParam>
              <VectorParam id="308"  name="scale">
               <InterpolatingParam id="309" interp="linr"  time="-9999999/1" value="1" leadInLength="0/1"  />
               <InterpolatingParam id="310" interp="linr"  time="-9999999/1" value="1" leadInLength="0/1"  />
               <InterpolatingParam id="311" interp="linr"  time="-9999999/1" value="1" leadInLength="0/1"  />
              </VectorParam>
              <VectorParam id="312"  name="anchor">
               <InterpolatingParam id="313" interp="linr"  time="0/1" value="0" leadInLength="0/1"  />
               <InterpolatingParam id="314" interp="linr"  time="0/1" value="0" leadInLength="0/1"  />
               <InterpolatingParam id="315" interp="linr"  time="0/1" value="0" leadInLength="0/1"  />
              </VectorParam>
             </Transformer>
             <Parameters>
              <VectorParam id="316"  name="sourceCrop">
               <InterpolatingParam id="317" interp="linr"  time="0/1" value="0" leadInLength="0/1"  />
               <InterpolatingParam id="318" interp="linr"  time="0/1" value="0" leadInLength="0/1"  />
               <InterpolatingParam id="319" interp="linr"  time="0/1" value="0" leadInLength="0/1"  />
               <InterpolatingParam id="320" interp="linr"  time="0/1" value="0" leadInLength="0/1"  />
              </VectorParam>
              <VectorParam id="321"  name="geometryCrop">
               <InterpolatingParam id="322" interp="linr"  time="-9999999/1" value="0" leadInLength="0/1"  />
               <InterpolatingParam id="323" interp="linr"  time="-9999999/1" value="0" leadInLength="0/1"  />
               <InterpolatingParam id="324" interp="linr"  time="-9999999/1" value="0" leadInLength="0/1"  />
               <InterpolatingParam id="325" interp="linr"  time="-9999999/1" value="0" leadInLength="0/1"  />
              </VectorParam>
              <InterpolatingParam id="326" interp="linr"  time="-9999999/1" value="1" leadInLength="0/1"  name="opacity"/>
              <InterpolatingParam id="327" interp="linr"  time="0/1" value="0" leadInLength="0/1"  name="cursorOpacity"/>
              <InterpolatingParam id="328" interp="linr"  time="0/1" value="0" leadInLength="0/1"  name="cursorScale"/>
             </Parameters>
             <Attributes>
              <Attribute id="329" value="" name="ident"/>
             </Attributes>
             <ExtraData>
              <Entry key="ZoomPanBin">
               <ZoomPanBin id="330"  >
                <ZoomPanKeyframes>
                 <ZoomPanKeyframe id="331" timeRangeEnd="-9999999/1" timeRangeDuration="0/1" interpolaterName=""  />
                </ZoomPanKeyframes>
               </ZoomPanBin>
              </Entry>
              <Entry key="CursorEffectBin">
               <CursorEffectBin id="332"  >
                <CursorEffectKeyframes>
                </CursorEffectKeyframes>
               </CursorEffectBin>
              </Entry>
             </ExtraData>
            </ScreenVMFile>
            <MetaData>
             <entry key="AutoAppliedSmartFocus" val="False"/>
             <entry key="WinSubProjectDisplayName" val=""/>
            </MetaData>
           </UnifiedMedia>
           <UnifiedMedia id="333"  >
            <AMFile id="334" start="1111" duration="45" scalar="1/1" mediaStart="1660/1" mediaDuration="45/1" trackNumber="1" src="4" channelNumber="0,1" >
             <Parameters>
              <InterpolatingParam id="335" interp="linr"  time="0/1" value="1" leadInLength="0/1"  name="volume"/>
              <Parameter id="336"  name="captions"/>
             </Parameters>
             <Attributes>
              <Attribute id="337" value="" name="ident"/>
              <Attribute id="338" value="44100" name="sampleRate"/>
              <Attribute id="339" value="16" name="bitDepth"/>
              <Attribute id="340" value="1" name="gain"/>
              <Attribute id="341" value="0" name="mixToMono"/>
             </Attributes>
            </AMFile>
            <ScreenVMFile id="342" start="1111" duration="45" scalar="1/1" mediaStart="1660/1" mediaDuration="45/1" trackNumber="0" src="4" >
             <Transformer>
              <VectorParam id="343"  name="translation">
               <InterpolatingParam id="344" interp="linr"  time="-9999999/1" value="0" leadInLength="0/1"  />
               <InterpolatingParam id="345" interp="linr"  time="-9999999/1" value="0" leadInLength="0/1"  />
               <InterpolatingParam id="346" interp="linr"  time="-9999999/1" value="0" leadInLength="0/1"  />
              </VectorParam>
              <VectorParam id="347"  name="rotation">
               <InterpolatingParam id="348" interp="linr"  time="-9999999/1" value="0" leadInLength="0/1"  />
               <InterpolatingParam id="349" interp="linr"  time="-9999999/1" value="0" leadInLength="0/1"  />
               <InterpolatingParam id="350" interp="linr"  time="-9999999/1" value="0" leadInLength="0/1"  />
              </VectorParam>
              <VectorParam id="351"  name="shear">
               <InterpolatingParam id="352" interp="linr"  time="-9999999/1" value="0" leadInLength="0/1"  />
               <InterpolatingParam id="353" interp="linr"  time="-9999999/1" value="0" leadInLength="0/1"  />
               <InterpolatingParam id="354" interp="linr"  time="-9999999/1" value="0" leadInLength="0/1"  />
              </VectorParam>
              <VectorParam id="355"  name="scale">
               <InterpolatingParam id="356" interp="linr"  time="-9999999/1" value="1" leadInLength="0/1"  />
               <InterpolatingParam id="357" interp="linr"  time="-9999999/1" value="1" leadInLength="0/1"  />
               <InterpolatingParam id="358" interp="linr"  time="-9999999/1" value="1" leadInLength="0/1"  />
              </VectorParam>
              <VectorParam id="359"  name="anchor">
               <InterpolatingParam id="360" interp="linr"  time="0/1" value="0" leadInLength="0/1"  />
               <InterpolatingParam id="361" interp="linr"  time="0/1" value="0" leadInLength="0/1"  />
               <InterpolatingParam id="362" interp="linr"  time="0/1" value="0" leadInLength="0/1"  />
              </VectorParam>
             </Transformer>
             <Parameters>
              <VectorParam id="363"  name="sourceCrop">
               <InterpolatingParam id="364" interp="linr"  time="0/1" value="0" leadInLength="0/1"  />
               <InterpolatingParam id="365" interp="linr"  time="0/1" value="0" leadInLength="0/1"  />
               <InterpolatingParam id="366" interp="linr"  time="0/1" value="0" leadInLength="0/1"  />
               <InterpolatingParam id="367" interp="linr"  time="0/1" value="0" leadInLength="0/1"  />
              </VectorParam>
              <VectorParam id="368"  name="geometryCrop">
               <InterpolatingParam id="369" interp="linr"  time="-9999999/1" value="0" leadInLength="0/1"  />
               <InterpolatingParam id="370" interp="linr"  time="-9999999/1" value="0" leadInLength="0/1"  />
               <InterpolatingParam id="371" interp="linr"  time="-9999999/1" value="0" leadInLength="0/1"  />
               <InterpolatingParam id="372" interp="linr"  time="-9999999/1" value="0" leadInLength="0/1"  />
              </VectorParam>
              <InterpolatingParam id="373" interp="linr"  time="-9999999/1" value="1" leadInLength="0/1"  name="opacity"/>
              <InterpolatingParam id="374" interp="linr"  time="0/1" value="0" leadInLength="0/1"  name="cursorOpacity"/>
              <InterpolatingParam id="375" interp="linr"  time="0/1" value="0" leadInLength="0/1"  name="cursorScale"/>
             </Parameters>
             <Attributes>
              <Attribute id="376" value="" name="ident"/>
             </Attributes>
             <ExtraData>
              <Entry key="ZoomPanBin">
               <ZoomPanBin id="377"  >
                <ZoomPanKeyframes>
                 <ZoomPanKeyframe id="378" timeRangeEnd="-9999999/1" timeRangeDuration="0/1" interpolaterName=""  />
                </ZoomPanKeyframes>
               </ZoomPanBin>
              </Entry>
              <Entry key="CursorEffectBin">
               <CursorEffectBin id="379"  >
                <CursorEffectKeyframes>
                </CursorEffectKeyframes>
               </CursorEffectBin>
              </Entry>
             </ExtraData>
            </ScreenVMFile>
            <MetaData>
             <entry key="AutoAppliedSmartFocus" val="False"/>
             <entry key="WinSubProjectDisplayName" val=""/>
            </MetaData>
           </UnifiedMedia>
           <UnifiedMedia id="380"  >
            <AMFile id="381" start="1156" duration="62" scalar="1/1" mediaStart="1752/1" mediaDuration="62/1" trackNumber="1" src="4" channelNumber="0,1" >
             <Parameters>
              <InterpolatingParam id="382" interp="linr"  time="0/1" value="1" leadInLength="0/1"  name="volume"/>
              <Parameter id="383"  name="captions"/>
             </Parameters>
             <Attributes>
              <Attribute id="384" value="" name="ident"/>
              <Attribute id="385" value="44100" name="sampleRate"/>
              <Attribute id="386" value="16" name="bitDepth"/>
              <Attribute id="387" value="1" name="gain"/>
              <Attribute id="388" value="0" name="mixToMono"/>
             </Attributes>
            </AMFile>
            <ScreenVMFile id="389" start="1156" duration="62" scalar="1/1" mediaStart="1752/1" mediaDuration="62/1" trackNumber="0" src="4" >
             <Transformer>
              <VectorParam id="390"  name="translation">
               <InterpolatingParam id="391" interp="linr"  time="-9999999/1" value="0" leadInLength="0/1"  />
               <InterpolatingParam id="392" interp="linr"  time="-9999999/1" value="0" leadInLength="0/1"  />
               <InterpolatingParam id="393" interp="linr"  time="-9999999/1" value="0" leadInLength="0/1"  />
              </VectorParam>
              <VectorParam id="394"  name="rotation">
               <InterpolatingParam id="395" interp="linr"  time="-9999999/1" value="0" leadInLength="0/1"  />
               <InterpolatingParam id="396" interp="linr"  time="-9999999/1" value="0" leadInLength="0/1"  />
               <InterpolatingParam id="397" interp="linr"  time="-9999999/1" value="0" leadInLength="0/1"  />
              </VectorParam>
              <VectorParam id="398"  name="shear">
               <InterpolatingParam id="399" interp="linr"  time="-9999999/1" value="0" leadInLength="0/1"  />
               <InterpolatingParam id="400" interp="linr"  time="-9999999/1" value="0" leadInLength="0/1"  />
               <InterpolatingParam id="401" interp="linr"  time="-9999999/1" value="0" leadInLength="0/1"  />
              </VectorParam>
              <VectorParam id="402"  name="scale">
               <InterpolatingParam id="403" interp="linr"  time="-9999999/1" value="1" leadInLength="0/1"  />
               <InterpolatingParam id="404" interp="linr"  time="-9999999/1" value="1" leadInLength="0/1"  />
               <InterpolatingParam id="405" interp="linr"  time="-9999999/1" value="1" leadInLength="0/1"  />
              </VectorParam>
              <VectorParam id="406"  name="anchor">
               <InterpolatingParam id="407" interp="linr"  time="0/1" value="0" leadInLength="0/1"  />
               <InterpolatingParam id="408" interp="linr"  time="0/1" value="0" leadInLength="0/1"  />
               <InterpolatingParam id="409" interp="linr"  time="0/1" value="0" leadInLength="0/1"  />
              </VectorParam>
             </Transformer>
             <Parameters>
              <VectorParam id="410"  name="sourceCrop">
               <InterpolatingParam id="411" interp="linr"  time="0/1" value="0" leadInLength="0/1"  />
               <InterpolatingParam id="412" interp="linr"  time="0/1" value="0" leadInLength="0/1"  />
               <InterpolatingParam id="413" interp="linr"  time="0/1" value="0" leadInLength="0/1"  />
               <InterpolatingParam id="414" interp="linr"  time="0/1" value="0" leadInLength="0/1"  />
              </VectorParam>
              <VectorParam id="415"  name="geometryCrop">
               <InterpolatingParam id="416" interp="linr"  time="-9999999/1" value="0" leadInLength="0/1"  />
               <InterpolatingParam id="417" interp="linr"  time="-9999999/1" value="0" leadInLength="0/1"  />
               <InterpolatingParam id="418" interp="linr"  time="-9999999/1" value="0" leadInLength="0/1"  />
               <InterpolatingParam id="419" interp="linr"  time="-9999999/1" value="0" leadInLength="0/1"  />
              </VectorParam>
              <InterpolatingParam id="420" interp="linr"  time="-9999999/1" value="1" leadInLength="0/1"  name="opacity"/>
              <InterpolatingParam id="421" interp="linr"  time="0/1" value="0" leadInLength="0/1"  name="cursorOpacity"/>
              <InterpolatingParam id="422" interp="linr"  time="0/1" value="0" leadInLength="0/1"  name="cursorScale"/>
             </Parameters>
             <Attributes>
              <Attribute id="423" value="" name="ident"/>
             </Attributes>
             <ExtraData>
              <Entry key="ZoomPanBin">
               <ZoomPanBin id="424"  >
                <ZoomPanKeyframes>
                 <ZoomPanKeyframe id="425" timeRangeEnd="-9999999/1" timeRangeDuration="0/1" interpolaterName=""  />
                </ZoomPanKeyframes>
               </ZoomPanBin>
              </Entry>
              <Entry key="CursorEffectBin">
               <CursorEffectBin id="426"  >
                <CursorEffectKeyframes>
                </CursorEffectKeyframes>
               </CursorEffectBin>
              </Entry>
             </ExtraData>
            </ScreenVMFile>
            <MetaData>
             <entry key="AutoAppliedSmartFocus" val="False"/>
             <entry key="WinSubProjectDisplayName" val=""/>
            </MetaData>
           </UnifiedMedia>
           <UnifiedMedia id="427"  >
            <AMFile id="428" start="1218" duration="65" scalar="1/1" mediaStart="1835/1" mediaDuration="65/1" trackNumber="1" src="4" channelNumber="0,1" >
             <Parameters>
              <InterpolatingParam id="429" interp="linr"  time="0/1" value="1" leadInLength="0/1"  name="volume"/>
              <Parameter id="430"  name="captions"/>
             </Parameters>
             <Attributes>
              <Attribute id="431" value="" name="ident"/>
              <Attribute id="432" value="44100" name="sampleRate"/>
              <Attribute id="433" value="16" name="bitDepth"/>
              <Attribute id="434" value="1" name="gain"/>
              <Attribute id="435" value="0" name="mixToMono"/>
             </Attributes>
            </AMFile>
            <ScreenVMFile id="436" start="1218" duration="65" scalar="1/1" mediaStart="1835/1" mediaDuration="65/1" trackNumber="0" src="4" >
             <Transformer>
              <VectorParam id="437"  name="translation">
               <InterpolatingParam id="438" interp="linr"  time="-9999999/1" value="0" leadInLength="0/1"  />
               <InterpolatingParam id="439" interp="linr"  time="-9999999/1" value="0" leadInLength="0/1"  />
               <InterpolatingParam id="440" interp="linr"  time="-9999999/1" value="0" leadInLength="0/1"  />
              </VectorParam>
              <VectorParam id="441"  name="rotation">
               <InterpolatingParam id="442" interp="linr"  time="-9999999/1" value="0" leadInLength="0/1"  />
               <InterpolatingParam id="443" interp="linr"  time="-9999999/1" value="0" leadInLength="0/1"  />
               <InterpolatingParam id="444" interp="linr"  time="-9999999/1" value="0" leadInLength="0/1"  />
              </VectorParam>
              <VectorParam id="445"  name="shear">
               <InterpolatingParam id="446" interp="linr"  time="-9999999/1" value="0" leadInLength="0/1"  />
               <InterpolatingParam id="447" interp="linr"  time="-9999999/1" value="0" leadInLength="0/1"  />
               <InterpolatingParam id="448" interp="linr"  time="-9999999/1" value="0" leadInLength="0/1"  />
              </VectorParam>
              <VectorParam id="449"  name="scale">
               <InterpolatingParam id="450" interp="linr"  time="-9999999/1" value="1" leadInLength="0/1"  />
               <InterpolatingParam id="451" interp="linr"  time="-9999999/1" value="1" leadInLength="0/1"  />
               <InterpolatingParam id="452" interp="linr"  time="-9999999/1" value="1" leadInLength="0/1"  />
              </VectorParam>
              <VectorParam id="453"  name="anchor">
               <InterpolatingParam id="454" interp="linr"  time="0/1" value="0" leadInLength="0/1"  />
               <InterpolatingParam id="455" interp="linr"  time="0/1" value="0" leadInLength="0/1"  />
               <InterpolatingParam id="456" interp="linr"  time="0/1" value="0" leadInLength="0/1"  />
              </VectorParam>
             </Transformer>
             <Parameters>
              <VectorParam id="457"  name="sourceCrop">
               <InterpolatingParam id="458" interp="linr"  time="0/1" value="0" leadInLength="0/1"  />
               <InterpolatingParam id="459" interp="linr"  time="0/1" value="0" leadInLength="0/1"  />
               <InterpolatingParam id="460" interp="linr"  time="0/1" value="0" leadInLength="0/1"  />
               <InterpolatingParam id="461" interp="linr"  time="0/1" value="0" leadInLength="0/1"  />
              </VectorParam>
              <VectorParam id="462"  name="geometryCrop">
               <InterpolatingParam id="463" interp="linr"  time="-9999999/1" value="0" leadInLength="0/1"  />
               <InterpolatingParam id="464" interp="linr"  time="-9999999/1" value="0" leadInLength="0/1"  />
               <InterpolatingParam id="465" interp="linr"  time="-9999999/1" value="0" leadInLength="0/1"  />
               <InterpolatingParam id="466" interp="linr"  time="-9999999/1" value="0" leadInLength="0/1"  />
              </VectorParam>
              <InterpolatingParam id="467" interp="linr"  time="-9999999/1" value="1" leadInLength="0/1"  name="opacity"/>
              <InterpolatingParam id="468" interp="linr"  time="0/1" value="0" leadInLength="0/1"  name="cursorOpacity"/>
              <InterpolatingParam id="469" interp="linr"  time="0/1" value="0" leadInLength="0/1"  name="cursorScale"/>
             </Parameters>
             <Attributes>
              <Attribute id="470" value="" name="ident"/>
             </Attributes>
             <ExtraData>
              <Entry key="ZoomPanBin">
               <ZoomPanBin id="471"  >
                <ZoomPanKeyframes>
                 <ZoomPanKeyframe id="472" timeRangeEnd="-9999999/1" timeRangeDuration="0/1" interpolaterName=""  />
                </ZoomPanKeyframes>
               </ZoomPanBin>
              </Entry>
              <Entry key="CursorEffectBin">
               <CursorEffectBin id="473"  >
                <CursorEffectKeyframes>
                </CursorEffectKeyframes>
               </CursorEffectBin>
              </Entry>
             </ExtraData>
            </ScreenVMFile>
            <MetaData>
             <entry key="AutoAppliedSmartFocus" val="False"/>
             <entry key="WinSubProjectDisplayName" val=""/>
            </MetaData>
           </UnifiedMedia>
           <UnifiedMedia id="474"  >
            <AMFile id="475" start="1283" duration="235" scalar="1/1" mediaStart="1930/1" mediaDuration="235/1" trackNumber="1" src="4" channelNumber="0,1" >
             <Parameters>
              <InterpolatingParam id="476" interp="linr"  time="0/1" value="1" leadInLength="0/1"  name="volume"/>
              <Parameter id="477"  name="captions"/>
             </Parameters>
             <Attributes>
              <Attribute id="478" value="" name="ident"/>
              <Attribute id="479" value="44100" name="sampleRate"/>
              <Attribute id="480" value="16" name="bitDepth"/>
              <Attribute id="481" value="1" name="gain"/>
              <Attribute id="482" value="0" name="mixToMono"/>
             </Attributes>
            </AMFile>
            <ScreenVMFile id="483" start="1283" duration="235" scalar="1/1" mediaStart="1930/1" mediaDuration="235/1" trackNumber="0" src="4" >
             <Transformer>
              <VectorParam id="484"  name="translation">
               <InterpolatingParam id="485" interp="linr"  time="-9999999/1" value="0" leadInLength="0/1"  />
               <InterpolatingParam id="486" interp="linr"  time="-9999999/1" value="0" leadInLength="0/1"  />
               <InterpolatingParam id="487" interp="linr"  time="-9999999/1" value="0" leadInLength="0/1"  />
              </VectorParam>
              <VectorParam id="488"  name="rotation">
               <InterpolatingParam id="489" interp="linr"  time="-9999999/1" value="0" leadInLength="0/1"  />
               <InterpolatingParam id="490" interp="linr"  time="-9999999/1" value="0" leadInLength="0/1"  />
               <InterpolatingParam id="491" interp="linr"  time="-9999999/1" value="0" leadInLength="0/1"  />
              </VectorParam>
              <VectorParam id="492"  name="shear">
               <InterpolatingParam id="493" interp="linr"  time="-9999999/1" value="0" leadInLength="0/1"  />
               <InterpolatingParam id="494" interp="linr"  time="-9999999/1" value="0" leadInLength="0/1"  />
               <InterpolatingParam id="495" interp="linr"  time="-9999999/1" value="0" leadInLength="0/1"  />
              </VectorParam>
              <VectorParam id="496"  name="scale">
               <InterpolatingParam id="497" interp="linr"  time="-9999999/1" value="1" leadInLength="0/1"  />
               <InterpolatingParam id="498" interp="linr"  time="-9999999/1" value="1" leadInLength="0/1"  />
               <InterpolatingParam id="499" interp="linr"  time="-9999999/1" value="1" leadInLength="0/1"  />
              </VectorParam>
              <VectorParam id="500"  name="anchor">
               <InterpolatingParam id="501" interp="linr"  time="0/1" value="0" leadInLength="0/1"  />
               <InterpolatingParam id="502" interp="linr"  time="0/1" value="0" leadInLength="0/1"  />
               <InterpolatingParam id="503" interp="linr"  time="0/1" value="0" leadInLength="0/1"  />
              </VectorParam>
             </Transformer>
             <Parameters>
              <VectorParam id="504"  name="sourceCrop">
               <InterpolatingParam id="505" interp="linr"  time="0/1" value="0" leadInLength="0/1"  />
               <InterpolatingParam id="506" interp="linr"  time="0/1" value="0" leadInLength="0/1"  />
               <InterpolatingParam id="507" interp="linr"  time="0/1" value="0" leadInLength="0/1"  />
               <InterpolatingParam id="508" interp="linr"  time="0/1" value="0" leadInLength="0/1"  />
              </VectorParam>
              <VectorParam id="509"  name="geometryCrop">
               <InterpolatingParam id="510" interp="linr"  time="-9999999/1" value="0" leadInLength="0/1"  />
               <InterpolatingParam id="511" interp="linr"  time="-9999999/1" value="0" leadInLength="0/1"  />
               <InterpolatingParam id="512" interp="linr"  time="-9999999/1" value="0" leadInLength="0/1"  />
               <InterpolatingParam id="513" interp="linr"  time="-9999999/1" value="0" leadInLength="0/1"  />
              </VectorParam>
              <InterpolatingParam id="514" interp="linr"  time="-9999999/1" value="1" leadInLength="0/1"  name="opacity"/>
              <InterpolatingParam id="515" interp="linr"  time="0/1" value="0" leadInLength="0/1"  name="cursorOpacity"/>
              <InterpolatingParam id="516" interp="linr"  time="0/1" value="0" leadInLength="0/1"  name="cursorScale"/>
             </Parameters>
             <Attributes>
              <Attribute id="517" value="" name="ident"/>
             </Attributes>
             <ExtraData>
              <Entry key="ZoomPanBin">
               <ZoomPanBin id="518"  >
                <ZoomPanKeyframes>
                 <ZoomPanKeyframe id="519" timeRangeEnd="-9999999/1" timeRangeDuration="0/1" interpolaterName=""  />
                </ZoomPanKeyframes>
               </ZoomPanBin>
              </Entry>
              <Entry key="CursorEffectBin">
               <CursorEffectBin id="520"  >
                <CursorEffectKeyframes>
                </CursorEffectKeyframes>
               </CursorEffectBin>
              </Entry>
             </ExtraData>
            </ScreenVMFile>
            <MetaData>
             <entry key="AutoAppliedSmartFocus" val="False"/>
             <entry key="WinSubProjectDisplayName" val=""/>
            </MetaData>
           </UnifiedMedia>
           <UnifiedMedia id="521"  >
            <AMFile id="522" start="1518" duration="263" scalar="1/1" mediaStart="2189/1" mediaDuration="263/1" trackNumber="1" src="4" channelNumber="0,1" >
             <Parameters>
              <InterpolatingParam id="523" interp="linr"  time="0/1" value="1" leadInLength="0/1"  name="volume"/>
              <Parameter id="524"  name="captions"/>
             </Parameters>
             <Attributes>
              <Attribute id="525" value="" name="ident"/>
              <Attribute id="526" value="44100" name="sampleRate"/>
              <Attribute id="527" value="16" name="bitDepth"/>
              <Attribute id="528" value="1" name="gain"/>
              <Attribute id="529" value="0" name="mixToMono"/>
             </Attributes>
            </AMFile>
            <ScreenVMFile id="530" start="1518" duration="263" scalar="1/1" mediaStart="2189/1" mediaDuration="263/1" trackNumber="0" src="4" >
             <Transformer>
              <VectorParam id="531"  name="translation">
               <InterpolatingParam id="532" interp="linr"  time="-9999999/1" value="0" leadInLength="0/1"  />
               <InterpolatingParam id="533" interp="linr"  time="-9999999/1" value="0" leadInLength="0/1"  />
               <InterpolatingParam id="534" interp="linr"  time="-9999999/1" value="0" leadInLength="0/1"  />
              </VectorParam>
              <VectorParam id="535"  name="rotation">
               <InterpolatingParam id="536" interp="linr"  time="-9999999/1" value="0" leadInLength="0/1"  />
               <InterpolatingParam id="537" interp="linr"  time="-9999999/1" value="0" leadInLength="0/1"  />
               <InterpolatingParam id="538" interp="linr"  time="-9999999/1" value="0" leadInLength="0/1"  />
              </VectorParam>
              <VectorParam id="539"  name="shear">
               <InterpolatingParam id="540" interp="linr"  time="-9999999/1" value="0" leadInLength="0/1"  />
               <InterpolatingParam id="541" interp="linr"  time="-9999999/1" value="0" leadInLength="0/1"  />
               <InterpolatingParam id="542" interp="linr"  time="-9999999/1" value="0" leadInLength="0/1"  />
              </VectorParam>
              <VectorParam id="543"  name="scale">
               <InterpolatingParam id="544" interp="linr"  time="-9999999/1" value="1" leadInLength="0/1"  />
               <InterpolatingParam id="545" interp="linr"  time="-9999999/1" value="1" leadInLength="0/1"  />
               <InterpolatingParam id="546" interp="linr"  time="-9999999/1" value="1" leadInLength="0/1"  />
              </VectorParam>
              <VectorParam id="547"  name="anchor">
               <InterpolatingParam id="548" interp="linr"  time="0/1" value="0" leadInLength="0/1"  />
               <InterpolatingParam id="549" interp="linr"  time="0/1" value="0" leadInLength="0/1"  />
               <InterpolatingParam id="550" interp="linr"  time="0/1" value="0" leadInLength="0/1"  />
              </VectorParam>
             </Transformer>
             <Parameters>
              <VectorParam id="551"  name="sourceCrop">
               <InterpolatingParam id="552" interp="linr"  time="0/1" value="0" leadInLength="0/1"  />
               <InterpolatingParam id="553" interp="linr"  time="0/1" value="0" leadInLength="0/1"  />
               <InterpolatingParam id="554" interp="linr"  time="0/1" value="0" leadInLength="0/1"  />
               <InterpolatingParam id="555" interp="linr"  time="0/1" value="0" leadInLength="0/1"  />
              </VectorParam>
              <VectorParam id="556"  name="geometryCrop">
               <InterpolatingParam id="557" interp="linr"  time="-9999999/1" value="0" leadInLength="0/1"  />
               <InterpolatingParam id="558" interp="linr"  time="-9999999/1" value="0" leadInLength="0/1"  />
               <InterpolatingParam id="559" interp="linr"  time="-9999999/1" value="0" leadInLength="0/1"  />
               <InterpolatingParam id="560" interp="linr"  time="-9999999/1" value="0" leadInLength="0/1"  />
              </VectorParam>
              <InterpolatingParam id="561" interp="linr"  time="-9999999/1" value="1" leadInLength="0/1"  name="opacity"/>
              <InterpolatingParam id="562" interp="linr"  time="0/1" value="0" leadInLength="0/1"  name="cursorOpacity"/>
              <InterpolatingParam id="563" interp="linr"  time="0/1" value="0" leadInLength="0/1"  name="cursorScale"/>
             </Parameters>
             <Attributes>
              <Attribute id="564" value="" name="ident"/>
             </Attributes>
             <ExtraData>
              <Entry key="ZoomPanBin">
               <ZoomPanBin id="565"  >
                <ZoomPanKeyframes>
                 <ZoomPanKeyframe id="566" timeRangeEnd="-9999999/1" timeRangeDuration="0/1" interpolaterName=""  />
                </ZoomPanKeyframes>
               </ZoomPanBin>
              </Entry>
              <Entry key="CursorEffectBin">
               <CursorEffectBin id="567"  >
                <CursorEffectKeyframes>
                </CursorEffectKeyframes>
               </CursorEffectBin>
              </Entry>
             </ExtraData>
            </ScreenVMFile>
            <MetaData>
             <entry key="AutoAppliedSmartFocus" val="False"/>
             <entry key="WinSubProjectDisplayName" val=""/>
            </MetaData>
           </UnifiedMedia>
           <UnifiedMedia id="568"  >
            <AMFile id="569" start="1781" duration="1242" scalar="1/1" mediaStart="3465/1" mediaDuration="1242/1" trackNumber="1" src="4" channelNumber="0,1" >
             <Parameters>
              <InterpolatingParam id="570" interp="linr"  time="0/1" value="1" leadInLength="0/1"  name="volume"/>
              <Parameter id="571"  name="captions"/>
             </Parameters>
             <Attributes>
              <Attribute id="572" value="" name="ident"/>
              <Attribute id="573" value="44100" name="sampleRate"/>
              <Attribute id="574" value="16" name="bitDepth"/>
              <Attribute id="575" value="1" name="gain"/>
              <Attribute id="576" value="0" name="mixToMono"/>
             </Attributes>
            </AMFile>
            <ScreenVMFile id="577" start="1781" duration="1242" scalar="1/1" mediaStart="3465/1" mediaDuration="1242/1" trackNumber="0" src="4" >
             <Transformer>
              <VectorParam id="578"  name="translation">
               <InterpolatingParam id="579" interp="linr"  time="-9999999/1" value="0" leadInLength="0/1"  />
               <InterpolatingParam id="580" interp="linr"  time="-9999999/1" value="0" leadInLength="0/1"  />
               <InterpolatingParam id="581" interp="linr"  time="-9999999/1" value="0" leadInLength="0/1"  />
              </VectorParam>
              <VectorParam id="582"  name="rotation">
               <InterpolatingParam id="583" interp="linr"  time="-9999999/1" value="0" leadInLength="0/1"  />
               <InterpolatingParam id="584" interp="linr"  time="-9999999/1" value="0" leadInLength="0/1"  />
               <InterpolatingParam id="585" interp="linr"  time="-9999999/1" value="0" leadInLength="0/1"  />
              </VectorParam>
              <VectorParam id="586"  name="shear">
               <InterpolatingParam id="587" interp="linr"  time="-9999999/1" value="0" leadInLength="0/1"  />
               <InterpolatingParam id="588" interp="linr"  time="-9999999/1" value="0" leadInLength="0/1"  />
               <InterpolatingParam id="589" interp="linr"  time="-9999999/1" value="0" leadInLength="0/1"  />
              </VectorParam>
              <VectorParam id="590"  name="scale">
               <InterpolatingParam id="591" interp="linr"  time="-9999999/1" value="1" leadInLength="0/1"  />
               <InterpolatingParam id="592" interp="linr"  time="-9999999/1" value="1" leadInLength="0/1"  />
               <InterpolatingParam id="593" interp="linr"  time="-9999999/1" value="1" leadInLength="0/1"  />
              </VectorParam>
              <VectorParam id="594"  name="anchor">
               <InterpolatingParam id="595" interp="linr"  time="0/1" value="0" leadInLength="0/1"  />
               <InterpolatingParam id="596" interp="linr"  time="0/1" value="0" leadInLength="0/1"  />
               <InterpolatingParam id="597" interp="linr"  time="0/1" value="0" leadInLength="0/1"  />
              </VectorParam>
             </Transformer>
             <Parameters>
              <VectorParam id="598"  name="sourceCrop">
               <InterpolatingParam id="599" interp="linr"  time="0/1" value="0" leadInLength="0/1"  />
               <InterpolatingParam id="600" interp="linr"  time="0/1" value="0" leadInLength="0/1"  />
               <InterpolatingParam id="601" interp="linr"  time="0/1" value="0" leadInLength="0/1"  />
               <InterpolatingParam id="602" interp="linr"  time="0/1" value="0" leadInLength="0/1"  />
              </VectorParam>
              <VectorParam id="603"  name="geometryCrop">
               <InterpolatingParam id="604" interp="linr"  time="-9999999/1" value="0" leadInLength="0/1"  />
               <InterpolatingParam id="605" interp="linr"  time="-9999999/1" value="0" leadInLength="0/1"  />
               <InterpolatingParam id="606" interp="linr"  time="-9999999/1" value="0" leadInLength="0/1"  />
               <InterpolatingParam id="607" interp="linr"  time="-9999999/1" value="0" leadInLength="0/1"  />
              </VectorParam>
              <InterpolatingParam id="608" interp="linr"  time="-9999999/1" value="1" leadInLength="0/1"  name="opacity"/>
              <InterpolatingParam id="609" interp="linr"  time="0/1" value="0" leadInLength="0/1"  name="cursorOpacity"/>
              <InterpolatingParam id="610" interp="linr"  time="0/1" value="0" leadInLength="0/1"  name="cursorScale"/>
             </Parameters>
             <Attributes>
              <Attribute id="611" value="" name="ident"/>
             </Attributes>
             <ExtraData>
              <Entry key="ZoomPanBin">
               <ZoomPanBin id="612"  >
                <ZoomPanKeyframes>
                 <ZoomPanKeyframe id="613" timeRangeEnd="-9999999/1" timeRangeDuration="0/1" interpolaterName=""  />
                </ZoomPanKeyframes>
               </ZoomPanBin>
              </Entry>
              <Entry key="CursorEffectBin">
               <CursorEffectBin id="614"  >
                <CursorEffectKeyframes>
                </CursorEffectKeyframes>
               </CursorEffectBin>
              </Entry>
             </ExtraData>
            </ScreenVMFile>
            <MetaData>
             <entry key="AutoAppliedSmartFocus" val="False"/>
             <entry key="WinSubProjectDisplayName" val=""/>
            </MetaData>
           </UnifiedMedia>
           <UnifiedMedia id="615"  >
            <AMFile id="616" start="3023" duration="527" scalar="1/1" mediaStart="4736/1" mediaDuration="527/1" trackNumber="1" src="4" channelNumber="0,1" >
             <Parameters>
              <InterpolatingParam id="617" interp="linr"  time="0/1" value="1" leadInLength="0/1"  name="volume"/>
              <Parameter id="618"  name="captions"/>
             </Parameters>
             <Attributes>
              <Attribute id="619" value="" name="ident"/>
              <Attribute id="620" value="44100" name="sampleRate"/>
              <Attribute id="621" value="16" name="bitDepth"/>
              <Attribute id="622" value="1" name="gain"/>
              <Attribute id="623" value="0" name="mixToMono"/>
             </Attributes>
            </AMFile>
            <ScreenVMFile id="624" start="3023" duration="527" scalar="1/1" mediaStart="4736/1" mediaDuration="527/1" trackNumber="0" src="4" >
             <Transformer>
              <VectorParam id="625"  name="translation">
               <InterpolatingParam id="626" interp="linr"  time="-9999999/1" value="0" leadInLength="0/1"  />
               <InterpolatingParam id="627" interp="linr"  time="-9999999/1" value="0" leadInLength="0/1"  />
               <InterpolatingParam id="628" interp="linr"  time="-9999999/1" value="0" leadInLength="0/1"  />
              </VectorParam>
              <VectorParam id="629"  name="rotation">
               <InterpolatingParam id="630" interp="linr"  time="-9999999/1" value="0" leadInLength="0/1"  />
               <InterpolatingParam id="631" interp="linr"  time="-9999999/1" value="0" leadInLength="0/1"  />
               <InterpolatingParam id="632" interp="linr"  time="-9999999/1" value="0" leadInLength="0/1"  />
              </VectorParam>
              <VectorParam id="633"  name="shear">
               <InterpolatingParam id="634" interp="linr"  time="-9999999/1" value="0" leadInLength="0/1"  />
               <InterpolatingParam id="635" interp="linr"  time="-9999999/1" value="0" leadInLength="0/1"  />
               <InterpolatingParam id="636" interp="linr"  time="-9999999/1" value="0" leadInLength="0/1"  />
              </VectorParam>
              <VectorParam id="637"  name="scale">
               <InterpolatingParam id="638" interp="linr"  time="-9999999/1" value="1" leadInLength="0/1"  />
               <InterpolatingParam id="639" interp="linr"  time="-9999999/1" value="1" leadInLength="0/1"  />
               <InterpolatingParam id="640" interp="linr"  time="-9999999/1" value="1" leadInLength="0/1"  />
              </VectorParam>
              <VectorParam id="641"  name="anchor">
               <InterpolatingParam id="642" interp="linr"  time="0/1" value="0" leadInLength="0/1"  />
               <InterpolatingParam id="643" interp="linr"  time="0/1" value="0" leadInLength="0/1"  />
               <InterpolatingParam id="644" interp="linr"  time="0/1" value="0" leadInLength="0/1"  />
              </VectorParam>
             </Transformer>
             <Parameters>
              <VectorParam id="645"  name="sourceCrop">
               <InterpolatingParam id="646" interp="linr"  time="0/1" value="0" leadInLength="0/1"  />
               <InterpolatingParam id="647" interp="linr"  time="0/1" value="0" leadInLength="0/1"  />
               <InterpolatingParam id="648" interp="linr"  time="0/1" value="0" leadInLength="0/1"  />
               <InterpolatingParam id="649" interp="linr"  time="0/1" value="0" leadInLength="0/1"  />
              </VectorParam>
              <VectorParam id="650"  name="geometryCrop">
               <InterpolatingParam id="651" interp="linr"  time="-9999999/1" value="0" leadInLength="0/1"  />
               <InterpolatingParam id="652" interp="linr"  time="-9999999/1" value="0" leadInLength="0/1"  />
               <InterpolatingParam id="653" interp="linr"  time="-9999999/1" value="0" leadInLength="0/1"  />
               <InterpolatingParam id="654" interp="linr"  time="-9999999/1" value="0" leadInLength="0/1"  />
              </VectorParam>
              <InterpolatingParam id="655" interp="linr"  time="-9999999/1" value="1" leadInLength="0/1"  name="opacity"/>
              <InterpolatingParam id="656" interp="linr"  time="0/1" value="0" leadInLength="0/1"  name="cursorOpacity"/>
              <InterpolatingParam id="657" interp="linr"  time="0/1" value="0" leadInLength="0/1"  name="cursorScale"/>
             </Parameters>
             <Attributes>
              <Attribute id="658" value="" name="ident"/>
             </Attributes>
             <ExtraData>
              <Entry key="ZoomPanBin">
               <ZoomPanBin id="659"  >
                <ZoomPanKeyframes>
                 <ZoomPanKeyframe id="660" timeRangeEnd="-9999999/1" timeRangeDuration="0/1" interpolaterName=""  />
                </ZoomPanKeyframes>
               </ZoomPanBin>
              </Entry>
              <Entry key="CursorEffectBin">
               <CursorEffectBin id="661"  >
                <CursorEffectKeyframes>
                </CursorEffectKeyframes>
               </CursorEffectBin>
              </Entry>
             </ExtraData>
            </ScreenVMFile>
            <MetaData>
             <entry key="AutoAppliedSmartFocus" val="False"/>
             <entry key="WinSubProjectDisplayName" val=""/>
            </MetaData>
           </UnifiedMedia>
           <UnifiedMedia id="662"  >
            <AMFile id="663" start="3550" duration="89" scalar="1/1" mediaStart="5283/1" mediaDuration="89/1" trackNumber="1" src="4" channelNumber="0,1" >
             <Parameters>
              <InterpolatingParam id="664" interp="linr"  time="0/1" value="1" leadInLength="0/1"  name="volume"/>
              <Parameter id="665"  name="captions"/>
             </Parameters>
             <Attributes>
              <Attribute id="666" value="" name="ident"/>
              <Attribute id="667" value="44100" name="sampleRate"/>
              <Attribute id="668" value="16" name="bitDepth"/>
              <Attribute id="669" value="1" name="gain"/>
              <Attribute id="670" value="0" name="mixToMono"/>
             </Attributes>
            </AMFile>
            <ScreenVMFile id="671" start="3550" duration="89" scalar="1/1" mediaStart="5283/1" mediaDuration="89/1" trackNumber="0" src="4" >
             <Transformer>
              <VectorParam id="672"  name="translation">
               <InterpolatingParam id="673" interp="linr"  time="-9999999/1" value="0" leadInLength="0/1"  />
               <InterpolatingParam id="674" interp="linr"  time="-9999999/1" value="0" leadInLength="0/1"  />
               <InterpolatingParam id="675" interp="linr"  time="-9999999/1" value="0" leadInLength="0/1"  />
              </VectorParam>
              <VectorParam id="676"  name="rotation">
               <InterpolatingParam id="677" interp="linr"  time="-9999999/1" value="0" leadInLength="0/1"  />
               <InterpolatingParam id="678" interp="linr"  time="-9999999/1" value="0" leadInLength="0/1"  />
               <InterpolatingParam id="679" interp="linr"  time="-9999999/1" value="0" leadInLength="0/1"  />
              </VectorParam>
              <VectorParam id="680"  name="shear">
               <InterpolatingParam id="681" interp="linr"  time="-9999999/1" value="0" leadInLength="0/1"  />
               <InterpolatingParam id="682" interp="linr"  time="-9999999/1" value="0" leadInLength="0/1"  />
               <InterpolatingParam id="683" interp="linr"  time="-9999999/1" value="0" leadInLength="0/1"  />
              </VectorParam>
              <VectorParam id="684"  name="scale">
               <InterpolatingParam id="685" interp="linr"  time="-9999999/1" value="1" leadInLength="0/1"  />
               <InterpolatingParam id="686" interp="linr"  time="-9999999/1" value="1" leadInLength="0/1"  />
               <InterpolatingParam id="687" interp="linr"  time="-9999999/1" value="1" leadInLength="0/1"  />
              </VectorParam>
              <VectorParam id="688"  name="anchor">
               <InterpolatingParam id="689" interp="linr"  time="0/1" value="0" leadInLength="0/1"  />
               <InterpolatingParam id="690" interp="linr"  time="0/1" value="0" leadInLength="0/1"  />
               <InterpolatingParam id="691" interp="linr"  time="0/1" value="0" leadInLength="0/1"  />
              </VectorParam>
             </Transformer>
             <Parameters>
              <VectorParam id="692"  name="sourceCrop">
               <InterpolatingParam id="693" interp="linr"  time="0/1" value="0" leadInLength="0/1"  />
               <InterpolatingParam id="694" interp="linr"  time="0/1" value="0" leadInLength="0/1"  />
               <InterpolatingParam id="695" interp="linr"  time="0/1" value="0" leadInLength="0/1"  />
               <InterpolatingParam id="696" interp="linr"  time="0/1" value="0" leadInLength="0/1"  />
              </VectorParam>
              <VectorParam id="697"  name="geometryCrop">
               <InterpolatingParam id="698" interp="linr"  time="-9999999/1" value="0" leadInLength="0/1"  />
               <InterpolatingParam id="699" interp="linr"  time="-9999999/1" value="0" leadInLength="0/1"  />
               <InterpolatingParam id="700" interp="linr"  time="-9999999/1" value="0" leadInLength="0/1"  />
               <InterpolatingParam id="701" interp="linr"  time="-9999999/1" value="0" leadInLength="0/1"  />
              </VectorParam>
              <InterpolatingParam id="702" interp="linr"  time="-9999999/1" value="1" leadInLength="0/1"  name="opacity"/>
              <InterpolatingParam id="703" interp="linr"  time="0/1" value="0" leadInLength="0/1"  name="cursorOpacity"/>
              <InterpolatingParam id="704" interp="linr"  time="0/1" value="0" leadInLength="0/1"  name="cursorScale"/>
             </Parameters>
             <Attributes>
              <Attribute id="705" value="" name="ident"/>
             </Attributes>
             <ExtraData>
              <Entry key="ZoomPanBin">
               <ZoomPanBin id="706"  >
                <ZoomPanKeyframes>
                 <ZoomPanKeyframe id="707" timeRangeEnd="-9999999/1" timeRangeDuration="0/1" interpolaterName=""  />
                </ZoomPanKeyframes>
               </ZoomPanBin>
              </Entry>
              <Entry key="CursorEffectBin">
               <CursorEffectBin id="708"  >
                <CursorEffectKeyframes>
                </CursorEffectKeyframes>
               </CursorEffectBin>
              </Entry>
             </ExtraData>
            </ScreenVMFile>
            <MetaData>
             <entry key="AutoAppliedSmartFocus" val="False"/>
             <entry key="WinSubProjectDisplayName" val=""/>
            </MetaData>
           </UnifiedMedia>
           <UnifiedMedia id="709"  >
            <AMFile id="710" start="3639" duration="1" scalar="1/1" mediaStart="5387/1" mediaDuration="1/1" trackNumber="1" src="4" channelNumber="0,1" >
             <Parameters>
              <InterpolatingParam id="711" interp="linr"  time="0/1" value="1" leadInLength="0/1"  name="volume"/>
              <Parameter id="712"  name="captions"/>
             </Parameters>
             <Attributes>
              <Attribute id="713" value="" name="ident"/>
              <Attribute id="714" value="44100" name="sampleRate"/>
              <Attribute id="715" value="16" name="bitDepth"/>
              <Attribute id="716" value="1" name="gain"/>
              <Attribute id="717" value="0" name="mixToMono"/>
             </Attributes>
            </AMFile>
            <ScreenVMFile id="718" start="3639" duration="1" scalar="1/1" mediaStart="5387/1" mediaDuration="1/1" trackNumber="0" src="4" >
             <Transformer>
              <VectorParam id="719"  name="translation">
               <InterpolatingParam id="720" interp="linr"  time="-9999999/1" value="0" leadInLength="0/1"  />
               <InterpolatingParam id="721" interp="linr"  time="-9999999/1" value="0" leadInLength="0/1"  />
               <InterpolatingParam id="722" interp="linr"  time="-9999999/1" value="0" leadInLength="0/1"  />
              </VectorParam>
              <VectorParam id="723"  name="rotation">
               <InterpolatingParam id="724" interp="linr"  time="-9999999/1" value="0" leadInLength="0/1"  />
               <InterpolatingParam id="725" interp="linr"  time="-9999999/1" value="0" leadInLength="0/1"  />
               <InterpolatingParam id="726" interp="linr"  time="-9999999/1" value="0" leadInLength="0/1"  />
              </VectorParam>
              <VectorParam id="727"  name="shear">
               <InterpolatingParam id="728" interp="linr"  time="-9999999/1" value="0" leadInLength="0/1"  />
               <InterpolatingParam id="729" interp="linr"  time="-9999999/1" value="0" leadInLength="0/1"  />
               <InterpolatingParam id="730" interp="linr"  time="-9999999/1" value="0" leadInLength="0/1"  />
              </VectorParam>
              <VectorParam id="731"  name="scale">
               <InterpolatingParam id="732" interp="linr"  time="-9999999/1" value="1" leadInLength="0/1"  />
               <InterpolatingParam id="733" interp="linr"  time="-9999999/1" value="1" leadInLength="0/1"  />
               <InterpolatingParam id="734" interp="linr"  time="-9999999/1" value="1" leadInLength="0/1"  />
              </VectorParam>
              <VectorParam id="735"  name="anchor">
               <InterpolatingParam id="736" interp="linr"  time="0/1" value="0" leadInLength="0/1"  />
               <InterpolatingParam id="737" interp="linr"  time="0/1" value="0" leadInLength="0/1"  />
               <InterpolatingParam id="738" interp="linr"  time="0/1" value="0" leadInLength="0/1"  />
              </VectorParam>
             </Transformer>
             <Parameters>
              <VectorParam id="739"  name="sourceCrop">
               <InterpolatingParam id="740" interp="linr"  time="0/1" value="0" leadInLength="0/1"  />
               <InterpolatingParam id="741" interp="linr"  time="0/1" value="0" leadInLength="0/1"  />
               <InterpolatingParam id="742" interp="linr"  time="0/1" value="0" leadInLength="0/1"  />
               <InterpolatingParam id="743" interp="linr"  time="0/1" value="0" leadInLength="0/1"  />
              </VectorParam>
              <VectorParam id="744"  name="geometryCrop">
               <InterpolatingParam id="745" interp="linr"  time="-9999999/1" value="0" leadInLength="0/1"  />
               <InterpolatingParam id="746" interp="linr"  time="-9999999/1" value="0" leadInLength="0/1"  />
               <InterpolatingParam id="747" interp="linr"  time="-9999999/1" value="0" leadInLength="0/1"  />
               <InterpolatingParam id="748" interp="linr"  time="-9999999/1" value="0" leadInLength="0/1"  />
              </VectorParam>
              <InterpolatingParam id="749" interp="linr"  time="-9999999/1" value="1" leadInLength="0/1"  name="opacity"/>
              <InterpolatingParam id="750" interp="linr"  time="0/1" value="0" leadInLength="0/1"  name="cursorOpacity"/>
              <InterpolatingParam id="751" interp="linr"  time="0/1" value="0" leadInLength="0/1"  name="cursorScale"/>
             </Parameters>
             <Attributes>
              <Attribute id="752" value="" name="ident"/>
             </Attributes>
             <ExtraData>
              <Entry key="ZoomPanBin">
               <ZoomPanBin id="753"  >
                <ZoomPanKeyframes>
                 <ZoomPanKeyframe id="754" timeRangeEnd="-9999999/1" timeRangeDuration="0/1" interpolaterName=""  />
                </ZoomPanKeyframes>
               </ZoomPanBin>
              </Entry>
              <Entry key="CursorEffectBin">
               <CursorEffectBin id="755"  >
                <CursorEffectKeyframes>
                </CursorEffectKeyframes>
               </CursorEffectBin>
              </Entry>
             </ExtraData>
            </ScreenVMFile>
            <MetaData>
             <entry key="AutoAppliedSmartFocus" val="False"/>
             <entry key="WinSubProjectDisplayName" val=""/>
            </MetaData>
           </UnifiedMedia>
           <UnifiedMedia id="756"  >
            <AMFile id="757" start="3640" duration="1173" scalar="1/1" mediaStart="5947/1" mediaDuration="1173/1" trackNumber="1" src="4" channelNumber="0,1" >
             <Parameters>
              <InterpolatingParam id="758" interp="linr"  time="0/1" value="1" leadInLength="0/1"  name="volume"/>
              <Parameter id="759"  name="captions"/>
             </Parameters>
             <Attributes>
              <Attribute id="760" value="" name="ident"/>
              <Attribute id="761" value="44100" name="sampleRate"/>
              <Attribute id="762" value="16" name="bitDepth"/>
              <Attribute id="763" value="1" name="gain"/>
              <Attribute id="764" value="0" name="mixToMono"/>
             </Attributes>
            </AMFile>
            <ScreenVMFile id="765" start="3640" duration="1173" scalar="1/1" mediaStart="5947/1" mediaDuration="1173/1" trackNumber="0" src="4" >
             <Transformer>
              <VectorParam id="766"  name="translation">
               <InterpolatingParam id="767" interp="linr"  time="-9999999/1" value="0" leadInLength="0/1"  />
               <InterpolatingParam id="768" interp="linr"  time="-9999999/1" value="0" leadInLength="0/1"  />
               <InterpolatingParam id="769" interp="linr"  time="-9999999/1" value="0" leadInLength="0/1"  />
              </VectorParam>
              <VectorParam id="770"  name="rotation">
               <InterpolatingParam id="771" interp="linr"  time="-9999999/1" value="0" leadInLength="0/1"  />
               <InterpolatingParam id="772" interp="linr"  time="-9999999/1" value="0" leadInLength="0/1"  />
               <InterpolatingParam id="773" interp="linr"  time="-9999999/1" value="0" leadInLength="0/1"  />
              </VectorParam>
              <VectorParam id="774"  name="shear">
               <InterpolatingParam id="775" interp="linr"  time="-9999999/1" value="0" leadInLength="0/1"  />
               <InterpolatingParam id="776" interp="linr"  time="-9999999/1" value="0" leadInLength="0/1"  />
               <InterpolatingParam id="777" interp="linr"  time="-9999999/1" value="0" leadInLength="0/1"  />
              </VectorParam>
              <VectorParam id="778"  name="scale">
               <InterpolatingParam id="779" interp="linr"  time="-9999999/1" value="1" leadInLength="0/1"  />
               <InterpolatingParam id="780" interp="linr"  time="-9999999/1" value="1" leadInLength="0/1"  />
               <InterpolatingParam id="781" interp="linr"  time="-9999999/1" value="1" leadInLength="0/1"  />
              </VectorParam>
              <VectorParam id="782"  name="anchor">
               <InterpolatingParam id="783" interp="linr"  time="0/1" value="0" leadInLength="0/1"  />
               <InterpolatingParam id="784" interp="linr"  time="0/1" value="0" leadInLength="0/1"  />
               <InterpolatingParam id="785" interp="linr"  time="0/1" value="0" leadInLength="0/1"  />
              </VectorParam>
             </Transformer>
             <Parameters>
              <VectorParam id="786"  name="sourceCrop">
               <InterpolatingParam id="787" interp="linr"  time="0/1" value="0" leadInLength="0/1"  />
               <InterpolatingParam id="788" interp="linr"  time="0/1" value="0" leadInLength="0/1"  />
               <InterpolatingParam id="789" interp="linr"  time="0/1" value="0" leadInLength="0/1"  />
               <InterpolatingParam id="790" interp="linr"  time="0/1" value="0" leadInLength="0/1"  />
              </VectorParam>
              <VectorParam id="791"  name="geometryCrop">
               <InterpolatingParam id="792" interp="linr"  time="-9999999/1" value="0" leadInLength="0/1"  />
               <InterpolatingParam id="793" interp="linr"  time="-9999999/1" value="0" leadInLength="0/1"  />
               <InterpolatingParam id="794" interp="linr"  time="-9999999/1" value="0" leadInLength="0/1"  />
               <InterpolatingParam id="795" interp="linr"  time="-9999999/1" value="0" leadInLength="0/1"  />
              </VectorParam>
              <InterpolatingParam id="796" interp="linr"  time="-9999999/1" value="1" leadInLength="0/1"  name="opacity"/>
              <InterpolatingParam id="797" interp="linr"  time="0/1" value="0" leadInLength="0/1"  name="cursorOpacity"/>
              <InterpolatingParam id="798" interp="linr"  time="0/1" value="0" leadInLength="0/1"  name="cursorScale"/>
             </Parameters>
             <Attributes>
              <Attribute id="799" value="" name="ident"/>
             </Attributes>
             <ExtraData>
              <Entry key="ZoomPanBin">
               <ZoomPanBin id="800"  >
                <ZoomPanKeyframes>
                 <ZoomPanKeyframe id="801" timeRangeEnd="-9999999/1" timeRangeDuration="0/1" interpolaterName=""  />
                </ZoomPanKeyframes>
               </ZoomPanBin>
              </Entry>
              <Entry key="CursorEffectBin">
               <CursorEffectBin id="802"  >
                <CursorEffectKeyframes>
                </CursorEffectKeyframes>
               </CursorEffectBin>
              </Entry>
             </ExtraData>
            </ScreenVMFile>
            <MetaData>
             <entry key="AutoAppliedSmartFocus" val="False"/>
             <entry key="WinSubProjectDisplayName" val=""/>
            </MetaData>
           </UnifiedMedia>
           <UnifiedMedia id="803"  >
            <AMFile id="804" start="4813" duration="190" scalar="1/1" mediaStart="7141/1" mediaDuration="190/1" trackNumber="1" src="4" channelNumber="0,1" >
             <Parameters>
              <InterpolatingParam id="805" interp="linr"  time="0/1" value="1" leadInLength="0/1"  name="volume"/>
              <Parameter id="806"  name="captions"/>
             </Parameters>
             <Attributes>
              <Attribute id="807" value="" name="ident"/>
              <Attribute id="808" value="44100" name="sampleRate"/>
              <Attribute id="809" value="16" name="bitDepth"/>
              <Attribute id="810" value="1" name="gain"/>
              <Attribute id="811" value="0" name="mixToMono"/>
             </Attributes>
            </AMFile>
            <ScreenVMFile id="812" start="4813" duration="190" scalar="1/1" mediaStart="7141/1" mediaDuration="190/1" trackNumber="0" src="4" >
             <Transformer>
              <VectorParam id="813"  name="translation">
               <InterpolatingParam id="814" interp="linr"  time="-9999999/1" value="0" leadInLength="0/1"  />
               <InterpolatingParam id="815" interp="linr"  time="-9999999/1" value="0" leadInLength="0/1"  />
               <InterpolatingParam id="816" interp="linr"  time="-9999999/1" value="0" leadInLength="0/1"  />
              </VectorParam>
              <VectorParam id="817"  name="rotation">
               <InterpolatingParam id="818" interp="linr"  time="-9999999/1" value="0" leadInLength="0/1"  />
               <InterpolatingParam id="819" interp="linr"  time="-9999999/1" value="0" leadInLength="0/1"  />
               <InterpolatingParam id="820" interp="linr"  time="-9999999/1" value="0" leadInLength="0/1"  />
              </VectorParam>
              <VectorParam id="821"  name="shear">
               <InterpolatingParam id="822" interp="linr"  time="-9999999/1" value="0" leadInLength="0/1"  />
               <InterpolatingParam id="823" interp="linr"  time="-9999999/1" value="0" leadInLength="0/1"  />
               <InterpolatingParam id="824" interp="linr"  time="-9999999/1" value="0" leadInLength="0/1"  />
              </VectorParam>
              <VectorParam id="825"  name="scale">
               <InterpolatingParam id="826" interp="linr"  time="-9999999/1" value="1" leadInLength="0/1"  />
               <InterpolatingParam id="827" interp="linr"  time="-9999999/1" value="1" leadInLength="0/1"  />
               <InterpolatingParam id="828" interp="linr"  time="-9999999/1" value="1" leadInLength="0/1"  />
              </VectorParam>
              <VectorParam id="829"  name="anchor">
               <InterpolatingParam id="830" interp="linr"  time="0/1" value="0" leadInLength="0/1"  />
               <InterpolatingParam id="831" interp="linr"  time="0/1" value="0" leadInLength="0/1"  />
               <InterpolatingParam id="832" interp="linr"  time="0/1" value="0" leadInLength="0/1"  />
              </VectorParam>
             </Transformer>
             <Parameters>
              <VectorParam id="833"  name="sourceCrop">
               <InterpolatingParam id="834" interp="linr"  time="0/1" value="0" leadInLength="0/1"  />
               <InterpolatingParam id="835" interp="linr"  time="0/1" value="0" leadInLength="0/1"  />
               <InterpolatingParam id="836" interp="linr"  time="0/1" value="0" leadInLength="0/1"  />
               <InterpolatingParam id="837" interp="linr"  time="0/1" value="0" leadInLength="0/1"  />
              </VectorParam>
              <VectorParam id="838"  name="geometryCrop">
               <InterpolatingParam id="839" interp="linr"  time="-9999999/1" value="0" leadInLength="0/1"  />
               <InterpolatingParam id="840" interp="linr"  time="-9999999/1" value="0" leadInLength="0/1"  />
               <InterpolatingParam id="841" interp="linr"  time="-9999999/1" value="0" leadInLength="0/1"  />
               <InterpolatingParam id="842" interp="linr"  time="-9999999/1" value="0" leadInLength="0/1"  />
              </VectorParam>
              <InterpolatingParam id="843" interp="linr"  time="-9999999/1" value="1" leadInLength="0/1"  name="opacity"/>
              <InterpolatingParam id="844" interp="linr"  time="0/1" value="0" leadInLength="0/1"  name="cursorOpacity"/>
              <InterpolatingParam id="845" interp="linr"  time="0/1" value="0" leadInLength="0/1"  name="cursorScale"/>
             </Parameters>
             <Attributes>
              <Attribute id="846" value="" name="ident"/>
             </Attributes>
             <ExtraData>
              <Entry key="ZoomPanBin">
               <ZoomPanBin id="847"  >
                <ZoomPanKeyframes>
                 <ZoomPanKeyframe id="848" timeRangeEnd="-9999999/1" timeRangeDuration="0/1" interpolaterName=""  />
                </ZoomPanKeyframes>
               </ZoomPanBin>
              </Entry>
              <Entry key="CursorEffectBin">
               <CursorEffectBin id="849"  >
                <CursorEffectKeyframes>
                </CursorEffectKeyframes>
               </CursorEffectBin>
              </Entry>
             </ExtraData>
            </ScreenVMFile>
            <MetaData>
             <entry key="AutoAppliedSmartFocus" val="False"/>
             <entry key="WinSubProjectDisplayName" val=""/>
            </MetaData>
           </UnifiedMedia>
           <UnifiedMedia id="850"  >
            <AMFile id="851" start="5003" duration="355" scalar="1/1" mediaStart="7359/1" mediaDuration="355/1" trackNumber="1" src="4" channelNumber="0,1" >
             <Parameters>
              <InterpolatingParam id="852" interp="linr"  time="0/1" value="1" leadInLength="0/1"  name="volume"/>
              <Parameter id="853"  name="captions"/>
             </Parameters>
             <Attributes>
              <Attribute id="854" value="" name="ident"/>
              <Attribute id="855" value="44100" name="sampleRate"/>
              <Attribute id="856" value="16" name="bitDepth"/>
              <Attribute id="857" value="1" name="gain"/>
              <Attribute id="858" value="0" name="mixToMono"/>
             </Attributes>
            </AMFile>
            <ScreenVMFile id="859" start="5003" duration="355" scalar="1/1" mediaStart="7359/1" mediaDuration="355/1" trackNumber="0" src="4" >
             <Transformer>
              <VectorParam id="860"  name="translation">
               <InterpolatingParam id="861" interp="linr"  time="-9999999/1" value="0" leadInLength="0/1"  />
               <InterpolatingParam id="862" interp="linr"  time="-9999999/1" value="0" leadInLength="0/1"  />
               <InterpolatingParam id="863" interp="linr"  time="-9999999/1" value="0" leadInLength="0/1"  />
              </VectorParam>
              <VectorParam id="864"  name="rotation">
               <InterpolatingParam id="865" interp="linr"  time="-9999999/1" value="0" leadInLength="0/1"  />
               <InterpolatingParam id="866" interp="linr"  time="-9999999/1" value="0" leadInLength="0/1"  />
               <InterpolatingParam id="867" interp="linr"  time="-9999999/1" value="0" leadInLength="0/1"  />
              </VectorParam>
              <VectorParam id="868"  name="shear">
               <InterpolatingParam id="869" interp="linr"  time="-9999999/1" value="0" leadInLength="0/1"  />
               <InterpolatingParam id="870" interp="linr"  time="-9999999/1" value="0" leadInLength="0/1"  />
               <InterpolatingParam id="871" interp="linr"  time="-9999999/1" value="0" leadInLength="0/1"  />
              </VectorParam>
              <VectorParam id="872"  name="scale">
               <InterpolatingParam id="873" interp="linr"  time="-9999999/1" value="1" leadInLength="0/1"  />
               <InterpolatingParam id="874" interp="linr"  time="-9999999/1" value="1" leadInLength="0/1"  />
               <InterpolatingParam id="875" interp="linr"  time="-9999999/1" value="1" leadInLength="0/1"  />
              </VectorParam>
              <VectorParam id="876"  name="anchor">
               <InterpolatingParam id="877" interp="linr"  time="0/1" value="0" leadInLength="0/1"  />
               <InterpolatingParam id="878" interp="linr"  time="0/1" value="0" leadInLength="0/1"  />
               <InterpolatingParam id="879" interp="linr"  time="0/1" value="0" leadInLength="0/1"  />
              </VectorParam>
             </Transformer>
             <Parameters>
              <VectorParam id="880"  name="sourceCrop">
               <InterpolatingParam id="881" interp="linr"  time="0/1" value="0" leadInLength="0/1"  />
               <InterpolatingParam id="882" interp="linr"  time="0/1" value="0" leadInLength="0/1"  />
               <InterpolatingParam id="883" interp="linr"  time="0/1" value="0" leadInLength="0/1"  />
               <InterpolatingParam id="884" interp="linr"  time="0/1" value="0" leadInLength="0/1"  />
              </VectorParam>
              <VectorParam id="885"  name="geometryCrop">
               <InterpolatingParam id="886" interp="linr"  time="-9999999/1" value="0" leadInLength="0/1"  />
               <InterpolatingParam id="887" interp="linr"  time="-9999999/1" value="0" leadInLength="0/1"  />
               <InterpolatingParam id="888" interp="linr"  time="-9999999/1" value="0" leadInLength="0/1"  />
               <InterpolatingParam id="889" interp="linr"  time="-9999999/1" value="0" leadInLength="0/1"  />
              </VectorParam>
              <InterpolatingParam id="890" interp="linr"  time="-9999999/1" value="1" leadInLength="0/1"  name="opacity"/>
              <InterpolatingParam id="891" interp="linr"  time="0/1" value="0" leadInLength="0/1"  name="cursorOpacity"/>
              <InterpolatingParam id="892" interp="linr"  time="0/1" value="0" leadInLength="0/1"  name="cursorScale"/>
             </Parameters>
             <Attributes>
              <Attribute id="893" value="" name="ident"/>
             </Attributes>
             <ExtraData>
              <Entry key="ZoomPanBin">
               <ZoomPanBin id="894"  >
                <ZoomPanKeyframes>
                 <ZoomPanKeyframe id="895" timeRangeEnd="-9999999/1" timeRangeDuration="0/1" interpolaterName=""  />
                </ZoomPanKeyframes>
               </ZoomPanBin>
              </Entry>
              <Entry key="CursorEffectBin">
               <CursorEffectBin id="896"  >
                <CursorEffectKeyframes>
                </CursorEffectKeyframes>
               </CursorEffectBin>
              </Entry>
             </ExtraData>
            </ScreenVMFile>
            <MetaData>
             <entry key="AutoAppliedSmartFocus" val="False"/>
             <entry key="WinSubProjectDisplayName" val=""/>
            </MetaData>
           </UnifiedMedia>
           <UnifiedMedia id="897"  >
            <AMFile id="898" start="5358" duration="74" scalar="1/1" mediaStart="7733/1" mediaDuration="74/1" trackNumber="1" src="4" channelNumber="0,1" >
             <Parameters>
              <InterpolatingParam id="899" interp="linr"  time="0/1" value="1" leadInLength="0/1"  name="volume"/>
              <Parameter id="900"  name="captions"/>
             </Parameters>
             <Attributes>
              <Attribute id="901" value="" name="ident"/>
              <Attribute id="902" value="44100" name="sampleRate"/>
              <Attribute id="903" value="16" name="bitDepth"/>
              <Attribute id="904" value="1" name="gain"/>
              <Attribute id="905" value="0" name="mixToMono"/>
             </Attributes>
            </AMFile>
            <ScreenVMFile id="906" start="5358" duration="74" scalar="1/1" mediaStart="7733/1" mediaDuration="74/1" trackNumber="0" src="4" >
             <Transformer>
              <VectorParam id="907"  name="translation">
               <InterpolatingParam id="908" interp="linr"  time="-9999999/1" value="0" leadInLength="0/1"  />
               <InterpolatingParam id="909" interp="linr"  time="-9999999/1" value="0" leadInLength="0/1"  />
               <InterpolatingParam id="910" interp="linr"  time="-9999999/1" value="0" leadInLength="0/1"  />
              </VectorParam>
              <VectorParam id="911"  name="rotation">
               <InterpolatingParam id="912" interp="linr"  time="-9999999/1" value="0" leadInLength="0/1"  />
               <InterpolatingParam id="913" interp="linr"  time="-9999999/1" value="0" leadInLength="0/1"  />
               <InterpolatingParam id="914" interp="linr"  time="-9999999/1" value="0" leadInLength="0/1"  />
              </VectorParam>
              <VectorParam id="915"  name="shear">
               <InterpolatingParam id="916" interp="linr"  time="-9999999/1" value="0" leadInLength="0/1"  />
               <InterpolatingParam id="917" interp="linr"  time="-9999999/1" value="0" leadInLength="0/1"  />
               <InterpolatingParam id="918" interp="linr"  time="-9999999/1" value="0" leadInLength="0/1"  />
              </VectorParam>
              <VectorParam id="919"  name="scale">
               <InterpolatingParam id="920" interp="linr"  time="-9999999/1" value="1" leadInLength="0/1"  />
               <InterpolatingParam id="921" interp="linr"  time="-9999999/1" value="1" leadInLength="0/1"  />
               <InterpolatingParam id="922" interp="linr"  time="-9999999/1" value="1" leadInLength="0/1"  />
              </VectorParam>
              <VectorParam id="923"  name="anchor">
               <InterpolatingParam id="924" interp="linr"  time="0/1" value="0" leadInLength="0/1"  />
               <InterpolatingParam id="925" interp="linr"  time="0/1" value="0" leadInLength="0/1"  />
               <InterpolatingParam id="926" interp="linr"  time="0/1" value="0" leadInLength="0/1"  />
              </VectorParam>
             </Transformer>
             <Parameters>
              <VectorParam id="927"  name="sourceCrop">
               <InterpolatingParam id="928" interp="linr"  time="0/1" value="0" leadInLength="0/1"  />
               <InterpolatingParam id="929" interp="linr"  time="0/1" value="0" leadInLength="0/1"  />
               <InterpolatingParam id="930" interp="linr"  time="0/1" value="0" leadInLength="0/1"  />
               <InterpolatingParam id="931" interp="linr"  time="0/1" value="0" leadInLength="0/1"  />
              </VectorParam>
              <VectorParam id="932"  name="geometryCrop">
               <InterpolatingParam id="933" interp="linr"  time="-9999999/1" value="0" leadInLength="0/1"  />
               <InterpolatingParam id="934" interp="linr"  time="-9999999/1" value="0" leadInLength="0/1"  />
               <InterpolatingParam id="935" interp="linr"  time="-9999999/1" value="0" leadInLength="0/1"  />
               <InterpolatingParam id="936" interp="linr"  time="-9999999/1" value="0" leadInLength="0/1"  />
              </VectorParam>
              <InterpolatingParam id="937" interp="linr"  time="-9999999/1" value="1" leadInLength="0/1"  name="opacity"/>
              <InterpolatingParam id="938" interp="linr"  time="0/1" value="0" leadInLength="0/1"  name="cursorOpacity"/>
              <InterpolatingParam id="939" interp="linr"  time="0/1" value="0" leadInLength="0/1"  name="cursorScale"/>
             </Parameters>
             <Attributes>
              <Attribute id="940" value="" name="ident"/>
             </Attributes>
             <ExtraData>
              <Entry key="ZoomPanBin">
               <ZoomPanBin id="941"  >
                <ZoomPanKeyframes>
                 <ZoomPanKeyframe id="942" timeRangeEnd="-9999999/1" timeRangeDuration="0/1" interpolaterName=""  />
                </ZoomPanKeyframes>
               </ZoomPanBin>
              </Entry>
              <Entry key="CursorEffectBin">
               <CursorEffectBin id="943"  >
                <CursorEffectKeyframes>
                </CursorEffectKeyframes>
               </CursorEffectBin>
              </Entry>
             </ExtraData>
            </ScreenVMFile>
            <MetaData>
             <entry key="AutoAppliedSmartFocus" val="False"/>
             <entry key="WinSubProjectDisplayName" val=""/>
            </MetaData>
           </UnifiedMedia>
           <UnifiedMedia id="944"  >
            <AMFile id="945" start="5432" duration="458" scalar="1/1" mediaStart="9686/1" mediaDuration="458/1" trackNumber="1" src="4" channelNumber="0,1" >
             <Parameters>
              <InterpolatingParam id="946" interp="linr"  time="0/1" value="1" leadInLength="0/1"  name="volume"/>
              <Parameter id="947"  name="captions"/>
             </Parameters>
             <Attributes>
              <Attribute id="948" value="" name="ident"/>
              <Attribute id="949" value="44100" name="sampleRate"/>
              <Attribute id="950" value="16" name="bitDepth"/>
              <Attribute id="951" value="1" name="gain"/>
              <Attribute id="952" value="0" name="mixToMono"/>
             </Attributes>
            </AMFile>
            <ScreenVMFile id="953" start="5432" duration="458" scalar="1/1" mediaStart="9686/1" mediaDuration="458/1" trackNumber="0" src="4" >
             <Transformer>
              <VectorParam id="954"  name="translation">
               <InterpolatingParam id="955" interp="linr"  time="-9999999/1" value="0" leadInLength="0/1"  />
               <InterpolatingParam id="956" interp="linr"  time="-9999999/1" value="0" leadInLength="0/1"  />
               <InterpolatingParam id="957" interp="linr"  time="-9999999/1" value="0" leadInLength="0/1"  />
              </VectorParam>
              <VectorParam id="958"  name="rotation">
               <InterpolatingParam id="959" interp="linr"  time="-9999999/1" value="0" leadInLength="0/1"  />
               <InterpolatingParam id="960" interp="linr"  time="-9999999/1" value="0" leadInLength="0/1"  />
               <InterpolatingParam id="961" interp="linr"  time="-9999999/1" value="0" leadInLength="0/1"  />
              </VectorParam>
              <VectorParam id="962"  name="shear">
               <InterpolatingParam id="963" interp="linr"  time="-9999999/1" value="0" leadInLength="0/1"  />
               <InterpolatingParam id="964" interp="linr"  time="-9999999/1" value="0" leadInLength="0/1"  />
               <InterpolatingParam id="965" interp="linr"  time="-9999999/1" value="0" leadInLength="0/1"  />
              </VectorParam>
              <VectorParam id="966"  name="scale">
               <InterpolatingParam id="967" interp="linr"  time="-9999999/1" value="1" leadInLength="0/1"  />
               <InterpolatingParam id="968" interp="linr"  time="-9999999/1" value="1" leadInLength="0/1"  />
               <InterpolatingParam id="969" interp="linr"  time="-9999999/1" value="1" leadInLength="0/1"  />
              </VectorParam>
              <VectorParam id="970"  name="anchor">
               <InterpolatingParam id="971" interp="linr"  time="0/1" value="0" leadInLength="0/1"  />
               <InterpolatingParam id="972" interp="linr"  time="0/1" value="0" leadInLength="0/1"  />
               <InterpolatingParam id="973" interp="linr"  time="0/1" value="0" leadInLength="0/1"  />
              </VectorParam>
             </Transformer>
             <Parameters>
              <VectorParam id="974"  name="sourceCrop">
               <InterpolatingParam id="975" interp="linr"  time="0/1" value="0" leadInLength="0/1"  />
               <InterpolatingParam id="976" interp="linr"  time="0/1" value="0" leadInLength="0/1"  />
               <InterpolatingParam id="977" interp="linr"  time="0/1" value="0" leadInLength="0/1"  />
               <InterpolatingParam id="978" interp="linr"  time="0/1" value="0" leadInLength="0/1"  />
              </VectorParam>
              <VectorParam id="979"  name="geometryCrop">
               <InterpolatingParam id="980" interp="linr"  time="-9999999/1" value="0" leadInLength="0/1"  />
               <InterpolatingParam id="981" interp="linr"  time="-9999999/1" value="0" leadInLength="0/1"  />
               <InterpolatingParam id="982" interp="linr"  time="-9999999/1" value="0" leadInLength="0/1"  />
               <InterpolatingParam id="983" interp="linr"  time="-9999999/1" value="0" leadInLength="0/1"  />
              </VectorParam>
              <InterpolatingParam id="984" interp="linr"  time="-9999999/1" value="1" leadInLength="0/1"  name="opacity"/>
              <InterpolatingParam id="985" interp="linr"  time="0/1" value="0" leadInLength="0/1"  name="cursorOpacity"/>
              <InterpolatingParam id="986" interp="linr"  time="0/1" value="0" leadInLength="0/1"  name="cursorScale"/>
             </Parameters>
             <Attributes>
              <Attribute id="987" value="" name="ident"/>
             </Attributes>
             <ExtraData>
              <Entry key="ZoomPanBin">
               <ZoomPanBin id="988"  >
                <ZoomPanKeyframes>
                 <ZoomPanKeyframe id="989" timeRangeEnd="-9999999/1" timeRangeDuration="0/1" interpolaterName=""  />
                </ZoomPanKeyframes>
               </ZoomPanBin>
              </Entry>
              <Entry key="CursorEffectBin">
               <CursorEffectBin id="990"  >
                <CursorEffectKeyframes>
                </CursorEffectKeyframes>
               </CursorEffectBin>
              </Entry>
             </ExtraData>
            </ScreenVMFile>
            <MetaData>
             <entry key="AutoAppliedSmartFocus" val="False"/>
             <entry key="WinSubProjectDisplayName" val=""/>
            </MetaData>
           </UnifiedMedia>
           <UnifiedMedia id="991"  >
            <AMFile id="992" start="5890" duration="329" scalar="1/1" mediaStart="10327/1" mediaDuration="329/1" trackNumber="1" src="4" channelNumber="0,1" >
             <Parameters>
              <InterpolatingParam id="993" interp="linr"  time="0/1" value="1" leadInLength="0/1"  name="volume"/>
              <Parameter id="994"  name="captions"/>
             </Parameters>
             <Attributes>
              <Attribute id="995" value="" name="ident"/>
              <Attribute id="996" value="44100" name="sampleRate"/>
              <Attribute id="997" value="16" name="bitDepth"/>
              <Attribute id="998" value="1" name="gain"/>
              <Attribute id="999" value="0" name="mixToMono"/>
             </Attributes>
            </AMFile>
            <ScreenVMFile id="1000" start="5890" duration="329" scalar="1/1" mediaStart="10327/1" mediaDuration="329/1" trackNumber="0" src="4" >
             <Transformer>
              <VectorParam id="1001"  name="translation">
               <InterpolatingParam id="1002" interp="linr"  time="-9999999/1" value="0" leadInLength="0/1"  />
               <InterpolatingParam id="1003" interp="linr"  time="-9999999/1" value="0" leadInLength="0/1"  />
               <InterpolatingParam id="1004" interp="linr"  time="-9999999/1" value="0" leadInLength="0/1"  />
              </VectorParam>
              <VectorParam id="1005"  name="rotation">
               <InterpolatingParam id="1006" interp="linr"  time="-9999999/1" value="0" leadInLength="0/1"  />
               <InterpolatingParam id="1007" interp="linr"  time="-9999999/1" value="0" leadInLength="0/1"  />
               <InterpolatingParam id="1008" interp="linr"  time="-9999999/1" value="0" leadInLength="0/1"  />
              </VectorParam>
              <VectorParam id="1009"  name="shear">
               <InterpolatingParam id="1010" interp="linr"  time="-9999999/1" value="0" leadInLength="0/1"  />
               <InterpolatingParam id="1011" interp="linr"  time="-9999999/1" value="0" leadInLength="0/1"  />
               <InterpolatingParam id="1012" interp="linr"  time="-9999999/1" value="0" leadInLength="0/1"  />
              </VectorParam>
              <VectorParam id="1013"  name="scale">
               <InterpolatingParam id="1014" interp="linr"  time="-9999999/1" value="1" leadInLength="0/1"  />
               <InterpolatingParam id="1015" interp="linr"  time="-9999999/1" value="1" leadInLength="0/1"  />
               <InterpolatingParam id="1016" interp="linr"  time="-9999999/1" value="1" leadInLength="0/1"  />
              </VectorParam>
              <VectorParam id="1017"  name="anchor">
               <InterpolatingParam id="1018" interp="linr"  time="0/1" value="0" leadInLength="0/1"  />
               <InterpolatingParam id="1019" interp="linr"  time="0/1" value="0" leadInLength="0/1"  />
               <InterpolatingParam id="1020" interp="linr"  time="0/1" value="0" leadInLength="0/1"  />
              </VectorParam>
             </Transformer>
             <Parameters>
              <VectorParam id="1021"  name="sourceCrop">
               <InterpolatingParam id="1022" interp="linr"  time="0/1" value="0" leadInLength="0/1"  />
               <InterpolatingParam id="1023" interp="linr"  time="0/1" value="0" leadInLength="0/1"  />
               <InterpolatingParam id="1024" interp="linr"  time="0/1" value="0" leadInLength="0/1"  />
               <InterpolatingParam id="1025" interp="linr"  time="0/1" value="0" leadInLength="0/1"  />
              </VectorParam>
              <VectorParam id="1026"  name="geometryCrop">
               <InterpolatingParam id="1027" interp="linr"  time="-9999999/1" value="0" leadInLength="0/1"  />
               <InterpolatingParam id="1028" interp="linr"  time="-9999999/1" value="0" leadInLength="0/1"  />
               <InterpolatingParam id="1029" interp="linr"  time="-9999999/1" value="0" leadInLength="0/1"  />
               <InterpolatingParam id="1030" interp="linr"  time="-9999999/1" value="0" leadInLength="0/1"  />
              </VectorParam>
              <InterpolatingParam id="1031" interp="linr"  time="-9999999/1" value="1" leadInLength="0/1"  name="opacity"/>
              <InterpolatingParam id="1032" interp="linr"  time="0/1" value="0" leadInLength="0/1"  name="cursorOpacity"/>
              <InterpolatingParam id="1033" interp="linr"  time="0/1" value="0" leadInLength="0/1"  name="cursorScale"/>
             </Parameters>
             <Attributes>
              <Attribute id="1034" value="" name="ident"/>
             </Attributes>
             <ExtraData>
              <Entry key="ZoomPanBin">
               <ZoomPanBin id="1035"  >
                <ZoomPanKeyframes>
                 <ZoomPanKeyframe id="1036" timeRangeEnd="-9999999/1" timeRangeDuration="0/1" interpolaterName=""  />
                </ZoomPanKeyframes>
               </ZoomPanBin>
              </Entry>
              <Entry key="CursorEffectBin">
               <CursorEffectBin id="1037"  >
                <CursorEffectKeyframes>
                </CursorEffectKeyframes>
               </CursorEffectBin>
              </Entry>
             </ExtraData>
            </ScreenVMFile>
            <MetaData>
             <entry key="AutoAppliedSmartFocus" val="False"/>
             <entry key="WinSubProjectDisplayName" val=""/>
            </MetaData>
           </UnifiedMedia>
           <UnifiedMedia id="1038"  >
            <AMFile id="1039" start="6219" duration="1" scalar="1/1" mediaStart="12418/1" mediaDuration="1/1" trackNumber="1" src="4" channelNumber="0,1" >
             <Parameters>
              <InterpolatingParam id="1040" interp="linr"  time="0/1" value="1" leadInLength="0/1"  name="volume"/>
              <Parameter id="1041"  name="captions"/>
             </Parameters>
             <Attributes>
              <Attribute id="1042" value="" name="ident"/>
              <Attribute id="1043" value="44100" name="sampleRate"/>
              <Attribute id="1044" value="16" name="bitDepth"/>
              <Attribute id="1045" value="1" name="gain"/>
              <Attribute id="1046" value="0" name="mixToMono"/>
             </Attributes>
            </AMFile>
            <ScreenVMFile id="1047" start="6219" duration="1" scalar="1/1" mediaStart="12418/1" mediaDuration="1/1" trackNumber="0" src="4" >
             <Transformer>
              <VectorParam id="1048"  name="translation">
               <InterpolatingParam id="1049" interp="linr"  time="-9999999/1" value="0" leadInLength="0/1"  />
               <InterpolatingParam id="1050" interp="linr"  time="-9999999/1" value="0" leadInLength="0/1"  />
               <InterpolatingParam id="1051" interp="linr"  time="-9999999/1" value="0" leadInLength="0/1"  />
              </VectorParam>
              <VectorParam id="1052"  name="rotation">
               <InterpolatingParam id="1053" interp="linr"  time="-9999999/1" value="0" leadInLength="0/1"  />
               <InterpolatingParam id="1054" interp="linr"  time="-9999999/1" value="0" leadInLength="0/1"  />
               <InterpolatingParam id="1055" interp="linr"  time="-9999999/1" value="0" leadInLength="0/1"  />
              </VectorParam>
              <VectorParam id="1056"  name="shear">
               <InterpolatingParam id="1057" interp="linr"  time="-9999999/1" value="0" leadInLength="0/1"  />
               <InterpolatingParam id="1058" interp="linr"  time="-9999999/1" value="0" leadInLength="0/1"  />
               <InterpolatingParam id="1059" interp="linr"  time="-9999999/1" value="0" leadInLength="0/1"  />
              </VectorParam>
              <VectorParam id="1060"  name="scale">
               <InterpolatingParam id="1061" interp="linr"  time="-9999999/1" value="1" leadInLength="0/1"  />
               <InterpolatingParam id="1062" interp="linr"  time="-9999999/1" value="1" leadInLength="0/1"  />
               <InterpolatingParam id="1063" interp="linr"  time="-9999999/1" value="1" leadInLength="0/1"  />
              </VectorParam>
              <VectorParam id="1064"  name="anchor">
               <InterpolatingParam id="1065" interp="linr"  time="0/1" value="0" leadInLength="0/1"  />
               <InterpolatingParam id="1066" interp="linr"  time="0/1" value="0" leadInLength="0/1"  />
               <InterpolatingParam id="1067" interp="linr"  time="0/1" value="0" leadInLength="0/1"  />
              </VectorParam>
             </Transformer>
             <Parameters>
              <VectorParam id="1068"  name="sourceCrop">
               <InterpolatingParam id="1069" interp="linr"  time="0/1" value="0" leadInLength="0/1"  />
               <InterpolatingParam id="1070" interp="linr"  time="0/1" value="0" leadInLength="0/1"  />
               <InterpolatingParam id="1071" interp="linr"  time="0/1" value="0" leadInLength="0/1"  />
               <InterpolatingParam id="1072" interp="linr"  time="0/1" value="0" leadInLength="0/1"  />
              </VectorParam>
              <VectorParam id="1073"  name="geometryCrop">
               <InterpolatingParam id="1074" interp="linr"  time="-9999999/1" value="0" leadInLength="0/1"  />
               <InterpolatingParam id="1075" interp="linr"  time="-9999999/1" value="0" leadInLength="0/1"  />
               <InterpolatingParam id="1076" interp="linr"  time="-9999999/1" value="0" leadInLength="0/1"  />
               <InterpolatingParam id="1077" interp="linr"  time="-9999999/1" value="0" leadInLength="0/1"  />
              </VectorParam>
              <InterpolatingParam id="1078" interp="linr"  time="-9999999/1" value="1" leadInLength="0/1"  name="opacity"/>
              <InterpolatingParam id="1079" interp="linr"  time="0/1" value="0" leadInLength="0/1"  name="cursorOpacity"/>
              <InterpolatingParam id="1080" interp="linr"  time="0/1" value="0" leadInLength="0/1"  name="cursorScale"/>
             </Parameters>
             <Attributes>
              <Attribute id="1081" value="" name="ident"/>
             </Attributes>
             <ExtraData>
              <Entry key="ZoomPanBin">
               <ZoomPanBin id="1082"  >
                <ZoomPanKeyframes>
                 <ZoomPanKeyframe id="1083" timeRangeEnd="-9999999/1" timeRangeDuration="0/1" interpolaterName=""  />
                </ZoomPanKeyframes>
               </ZoomPanBin>
              </Entry>
              <Entry key="CursorEffectBin">
               <CursorEffectBin id="1084"  >
                <CursorEffectKeyframes>
                </CursorEffectKeyframes>
               </CursorEffectBin>
              </Entry>
             </ExtraData>
            </ScreenVMFile>
            <MetaData>
             <entry key="AutoAppliedSmartFocus" val="False"/>
             <entry key="WinSubProjectDisplayName" val=""/>
            </MetaData>
           </UnifiedMedia>
           <UnifiedMedia id="1085"  >
            <AMFile id="1086" start="6220" duration="371" scalar="1/1" mediaStart="12453/1" mediaDuration="371/1" trackNumber="1" src="4" channelNumber="0,1" >
             <Parameters>
              <InterpolatingParam id="1087" interp="linr"  time="0/1" value="1" leadInLength="0/1"  name="volume"/>
              <Parameter id="1088"  name="captions"/>
             </Parameters>
             <Attributes>
              <Attribute id="1089" value="" name="ident"/>
              <Attribute id="1090" value="44100" name="sampleRate"/>
              <Attribute id="1091" value="16" name="bitDepth"/>
              <Attribute id="1092" value="1" name="gain"/>
              <Attribute id="1093" value="0" name="mixToMono"/>
             </Attributes>
            </AMFile>
            <ScreenVMFile id="1094" start="6220" duration="371" scalar="1/1" mediaStart="12453/1" mediaDuration="371/1" trackNumber="0" src="4" >
             <Transformer>
              <VectorParam id="1095"  name="translation">
               <InterpolatingParam id="1096" interp="linr"  time="-9999999/1" value="0" leadInLength="0/1"  />
               <InterpolatingParam id="1097" interp="linr"  time="-9999999/1" value="0" leadInLength="0/1"  />
               <InterpolatingParam id="1098" interp="linr"  time="-9999999/1" value="0" leadInLength="0/1"  />
              </VectorParam>
              <VectorParam id="1099"  name="rotation">
               <InterpolatingParam id="1100" interp="linr"  time="-9999999/1" value="0" leadInLength="0/1"  />
               <InterpolatingParam id="1101" interp="linr"  time="-9999999/1" value="0" leadInLength="0/1"  />
               <InterpolatingParam id="1102" interp="linr"  time="-9999999/1" value="0" leadInLength="0/1"  />
              </VectorParam>
              <VectorParam id="1103"  name="shear">
               <InterpolatingParam id="1104" interp="linr"  time="-9999999/1" value="0" leadInLength="0/1"  />
               <InterpolatingParam id="1105" interp="linr"  time="-9999999/1" value="0" leadInLength="0/1"  />
               <InterpolatingParam id="1106" interp="linr"  time="-9999999/1" value="0" leadInLength="0/1"  />
              </VectorParam>
              <VectorParam id="1107"  name="scale">
               <InterpolatingParam id="1108" interp="linr"  time="-9999999/1" value="1" leadInLength="0/1"  />
               <InterpolatingParam id="1109" interp="linr"  time="-9999999/1" value="1" leadInLength="0/1"  />
               <InterpolatingParam id="1110" interp="linr"  time="-9999999/1" value="1" leadInLength="0/1"  />
              </VectorParam>
              <VectorParam id="1111"  name="anchor">
               <InterpolatingParam id="1112" interp="linr"  time="0/1" value="0" leadInLength="0/1"  />
               <InterpolatingParam id="1113" interp="linr"  time="0/1" value="0" leadInLength="0/1"  />
               <InterpolatingParam id="1114" interp="linr"  time="0/1" value="0" leadInLength="0/1"  />
              </VectorParam>
             </Transformer>
             <Parameters>
              <VectorParam id="1115"  name="sourceCrop">
               <InterpolatingParam id="1116" interp="linr"  time="0/1" value="0" leadInLength="0/1"  />
               <InterpolatingParam id="1117" interp="linr"  time="0/1" value="0" leadInLength="0/1"  />
               <InterpolatingParam id="1118" interp="linr"  time="0/1" value="0" leadInLength="0/1"  />
               <InterpolatingParam id="1119" interp="linr"  time="0/1" value="0" leadInLength="0/1"  />
              </VectorParam>
              <VectorParam id="1120"  name="geometryCrop">
               <InterpolatingParam id="1121" interp="linr"  time="-9999999/1" value="0" leadInLength="0/1"  />
               <InterpolatingParam id="1122" interp="linr"  time="-9999999/1" value="0" leadInLength="0/1"  />
               <InterpolatingParam id="1123" interp="linr"  time="-9999999/1" value="0" leadInLength="0/1"  />
               <InterpolatingParam id="1124" interp="linr"  time="-9999999/1" value="0" leadInLength="0/1"  />
              </VectorParam>
              <InterpolatingParam id="1125" interp="linr"  time="-9999999/1" value="1" leadInLength="0/1"  name="opacity"/>
              <InterpolatingParam id="1126" interp="linr"  time="0/1" value="0" leadInLength="0/1"  name="cursorOpacity"/>
              <InterpolatingParam id="1127" interp="linr"  time="0/1" value="0" leadInLength="0/1"  name="cursorScale"/>
             </Parameters>
             <Attributes>
              <Attribute id="1128" value="" name="ident"/>
             </Attributes>
             <ExtraData>
              <Entry key="ZoomPanBin">
               <ZoomPanBin id="1129"  >
                <ZoomPanKeyframes>
                 <ZoomPanKeyframe id="1130" timeRangeEnd="-9999999/1" timeRangeDuration="0/1" interpolaterName=""  />
                </ZoomPanKeyframes>
               </ZoomPanBin>
              </Entry>
              <Entry key="CursorEffectBin">
               <CursorEffectBin id="1131"  >
                <CursorEffectKeyframes>
                </CursorEffectKeyframes>
               </CursorEffectBin>
              </Entry>
             </ExtraData>
            </ScreenVMFile>
            <MetaData>
             <entry key="AutoAppliedSmartFocus" val="False"/>
             <entry key="WinSubProjectDisplayName" val=""/>
            </MetaData>
           </UnifiedMedia>
           <UnifiedMedia id="1132"  >
            <AMFile id="1133" start="6591" duration="466" scalar="1/1" mediaStart="12847/1" mediaDuration="466/1" trackNumber="1" src="4" channelNumber="0,1" >
             <Parameters>
              <InterpolatingParam id="1134" interp="linr"  time="0/1" value="1" leadInLength="0/1"  name="volume"/>
              <Parameter id="1135"  name="captions"/>
             </Parameters>
             <Attributes>
              <Attribute id="1136" value="" name="ident"/>
              <Attribute id="1137" value="44100" name="sampleRate"/>
              <Attribute id="1138" value="16" name="bitDepth"/>
              <Attribute id="1139" value="1" name="gain"/>
              <Attribute id="1140" value="0" name="mixToMono"/>
             </Attributes>
            </AMFile>
            <ScreenVMFile id="1141" start="6591" duration="466" scalar="1/1" mediaStart="12847/1" mediaDuration="466/1" trackNumber="0" src="4" >
             <Transformer>
              <VectorParam id="1142"  name="translation">
               <InterpolatingParam id="1143" interp="linr"  time="-9999999/1" value="0" leadInLength="0/1"  />
               <InterpolatingParam id="1144" interp="linr"  time="-9999999/1" value="0" leadInLength="0/1"  />
               <InterpolatingParam id="1145" interp="linr"  time="-9999999/1" value="0" leadInLength="0/1"  />
              </VectorParam>
              <VectorParam id="1146"  name="rotation">
               <InterpolatingParam id="1147" interp="linr"  time="-9999999/1" value="0" leadInLength="0/1"  />
               <InterpolatingParam id="1148" interp="linr"  time="-9999999/1" value="0" leadInLength="0/1"  />
               <InterpolatingParam id="1149" interp="linr"  time="-9999999/1" value="0" leadInLength="0/1"  />
              </VectorParam>
              <VectorParam id="1150"  name="shear">
               <InterpolatingParam id="1151" interp="linr"  time="-9999999/1" value="0" leadInLength="0/1"  />
               <InterpolatingParam id="1152" interp="linr"  time="-9999999/1" value="0" leadInLength="0/1"  />
               <InterpolatingParam id="1153" interp="linr"  time="-9999999/1" value="0" leadInLength="0/1"  />
              </VectorParam>
              <VectorParam id="1154"  name="scale">
               <InterpolatingParam id="1155" interp="linr"  time="-9999999/1" value="1" leadInLength="0/1"  />
               <InterpolatingParam id="1156" interp="linr"  time="-9999999/1" value="1" leadInLength="0/1"  />
               <InterpolatingParam id="1157" interp="linr"  time="-9999999/1" value="1" leadInLength="0/1"  />
              </VectorParam>
              <VectorParam id="1158"  name="anchor">
               <InterpolatingParam id="1159" interp="linr"  time="0/1" value="0" leadInLength="0/1"  />
               <InterpolatingParam id="1160" interp="linr"  time="0/1" value="0" leadInLength="0/1"  />
               <InterpolatingParam id="1161" interp="linr"  time="0/1" value="0" leadInLength="0/1"  />
              </VectorParam>
             </Transformer>
             <Parameters>
              <VectorParam id="1162"  name="sourceCrop">
               <InterpolatingParam id="1163" interp="linr"  time="0/1" value="0" leadInLength="0/1"  />
               <InterpolatingParam id="1164" interp="linr"  time="0/1" value="0" leadInLength="0/1"  />
               <InterpolatingParam id="1165" interp="linr"  time="0/1" value="0" leadInLength="0/1"  />
               <InterpolatingParam id="1166" interp="linr"  time="0/1" value="0" leadInLength="0/1"  />
              </VectorParam>
              <VectorParam id="1167"  name="geometryCrop">
               <InterpolatingParam id="1168" interp="linr"  time="-9999999/1" value="0" leadInLength="0/1"  />
               <InterpolatingParam id="1169" interp="linr"  time="-9999999/1" value="0" leadInLength="0/1"  />
               <InterpolatingParam id="1170" interp="linr"  time="-9999999/1" value="0" leadInLength="0/1"  />
               <InterpolatingParam id="1171" interp="linr"  time="-9999999/1" value="0" leadInLength="0/1"  />
              </VectorParam>
              <InterpolatingParam id="1172" interp="linr"  time="-9999999/1" value="1" leadInLength="0/1"  name="opacity"/>
              <InterpolatingParam id="1173" interp="linr"  time="0/1" value="0" leadInLength="0/1"  name="cursorOpacity"/>
              <InterpolatingParam id="1174" interp="linr"  time="0/1" value="0" leadInLength="0/1"  name="cursorScale"/>
             </Parameters>
             <Attributes>
              <Attribute id="1175" value="" name="ident"/>
             </Attributes>
             <ExtraData>
              <Entry key="ZoomPanBin">
               <ZoomPanBin id="1176"  >
                <ZoomPanKeyframes>
                 <ZoomPanKeyframe id="1177" timeRangeEnd="-9999999/1" timeRangeDuration="0/1" interpolaterName=""  />
                </ZoomPanKeyframes>
               </ZoomPanBin>
              </Entry>
              <Entry key="CursorEffectBin">
               <CursorEffectBin id="1178"  >
                <CursorEffectKeyframes>
                </CursorEffectKeyframes>
               </CursorEffectBin>
              </Entry>
             </ExtraData>
            </ScreenVMFile>
            <MetaData>
             <entry key="AutoAppliedSmartFocus" val="False"/>
             <entry key="WinSubProjectDisplayName" val=""/>
            </MetaData>
           </UnifiedMedia>
           <UnifiedMedia id="1179"  >
            <AMFile id="1180" start="7057" duration="482" scalar="1/1" mediaStart="14008/1" mediaDuration="482/1" trackNumber="1" src="4" channelNumber="0,1" >
             <Parameters>
              <InterpolatingParam id="1181" interp="linr"  time="0/1" value="1" leadInLength="0/1"  name="volume"/>
              <Parameter id="1182"  name="captions"/>
             </Parameters>
             <Attributes>
              <Attribute id="1183" value="" name="ident"/>
              <Attribute id="1184" value="44100" name="sampleRate"/>
              <Attribute id="1185" value="16" name="bitDepth"/>
              <Attribute id="1186" value="1" name="gain"/>
              <Attribute id="1187" value="0" name="mixToMono"/>
             </Attributes>
            </AMFile>
            <ScreenVMFile id="1188" start="7057" duration="482" scalar="1/1" mediaStart="14008/1" mediaDuration="482/1" trackNumber="0" src="4" >
             <Transformer>
              <VectorParam id="1189"  name="translation">
               <InterpolatingParam id="1190" interp="linr"  time="-9999999/1" value="0" leadInLength="0/1"  />
               <InterpolatingParam id="1191" interp="linr"  time="-9999999/1" value="0" leadInLength="0/1"  />
               <InterpolatingParam id="1192" interp="linr"  time="-9999999/1" value="0" leadInLength="0/1"  />
              </VectorParam>
              <VectorParam id="1193"  name="rotation">
               <InterpolatingParam id="1194" interp="linr"  time="-9999999/1" value="0" leadInLength="0/1"  />
               <InterpolatingParam id="1195" interp="linr"  time="-9999999/1" value="0" leadInLength="0/1"  />
               <InterpolatingParam id="1196" interp="linr"  time="-9999999/1" value="0" leadInLength="0/1"  />
              </VectorParam>
              <VectorParam id="1197"  name="shear">
               <InterpolatingParam id="1198" interp="linr"  time="-9999999/1" value="0" leadInLength="0/1"  />
               <InterpolatingParam id="1199" interp="linr"  time="-9999999/1" value="0" leadInLength="0/1"  />
               <InterpolatingParam id="1200" interp="linr"  time="-9999999/1" value="0" leadInLength="0/1"  />
              </VectorParam>
              <VectorParam id="1201"  name="scale">
               <InterpolatingParam id="1202" interp="linr"  time="-9999999/1" value="1" leadInLength="0/1"  />
               <InterpolatingParam id="1203" interp="linr"  time="-9999999/1" value="1" leadInLength="0/1"  />
               <InterpolatingParam id="1204" interp="linr"  time="-9999999/1" value="1" leadInLength="0/1"  />
              </VectorParam>
              <VectorParam id="1205"  name="anchor">
               <InterpolatingParam id="1206" interp="linr"  time="0/1" value="0" leadInLength="0/1"  />
               <InterpolatingParam id="1207" interp="linr"  time="0/1" value="0" leadInLength="0/1"  />
               <InterpolatingParam id="1208" interp="linr"  time="0/1" value="0" leadInLength="0/1"  />
              </VectorParam>
             </Transformer>
             <Parameters>
              <VectorParam id="1209"  name="sourceCrop">
               <InterpolatingParam id="1210" interp="linr"  time="0/1" value="0" leadInLength="0/1"  />
               <InterpolatingParam id="1211" interp="linr"  time="0/1" value="0" leadInLength="0/1"  />
               <InterpolatingParam id="1212" interp="linr"  time="0/1" value="0" leadInLength="0/1"  />
               <InterpolatingParam id="1213" interp="linr"  time="0/1" value="0" leadInLength="0/1"  />
              </VectorParam>
              <VectorParam id="1214"  name="geometryCrop">
               <InterpolatingParam id="1215" interp="linr"  time="-9999999/1" value="0" leadInLength="0/1"  />
               <InterpolatingParam id="1216" interp="linr"  time="-9999999/1" value="0" leadInLength="0/1"  />
               <InterpolatingParam id="1217" interp="linr"  time="-9999999/1" value="0" leadInLength="0/1"  />
               <InterpolatingParam id="1218" interp="linr"  time="-9999999/1" value="0" leadInLength="0/1"  />
              </VectorParam>
              <InterpolatingParam id="1219" interp="linr"  time="-9999999/1" value="1" leadInLength="0/1"  name="opacity"/>
              <InterpolatingParam id="1220" interp="linr"  time="0/1" value="0" leadInLength="0/1"  name="cursorOpacity"/>
              <InterpolatingParam id="1221" interp="linr"  time="0/1" value="0" leadInLength="0/1"  name="cursorScale"/>
             </Parameters>
             <Attributes>
              <Attribute id="1222" value="" name="ident"/>
             </Attributes>
             <ExtraData>
              <Entry key="ZoomPanBin">
               <ZoomPanBin id="1223"  >
                <ZoomPanKeyframes>
                 <ZoomPanKeyframe id="1224" timeRangeEnd="-9999999/1" timeRangeDuration="0/1" interpolaterName=""  />
                </ZoomPanKeyframes>
               </ZoomPanBin>
              </Entry>
              <Entry key="CursorEffectBin">
               <CursorEffectBin id="1225"  >
                <CursorEffectKeyframes>
                </CursorEffectKeyframes>
               </CursorEffectBin>
              </Entry>
             </ExtraData>
            </ScreenVMFile>
            <MetaData>
             <entry key="AutoAppliedSmartFocus" val="False"/>
             <entry key="WinSubProjectDisplayName" val=""/>
            </MetaData>
           </UnifiedMedia>
           <UnifiedMedia id="1226"  >
            <AMFile id="1227" start="7539" duration="1" scalar="1/1" mediaStart="14539/1" mediaDuration="1/1" trackNumber="1" src="4" channelNumber="0,1" >
             <Parameters>
              <InterpolatingParam id="1228" interp="linr"  time="0/1" value="1" leadInLength="0/1"  name="volume"/>
              <Parameter id="1229"  name="captions"/>
             </Parameters>
             <Attributes>
              <Attribute id="1230" value="" name="ident"/>
              <Attribute id="1231" value="44100" name="sampleRate"/>
              <Attribute id="1232" value="16" name="bitDepth"/>
              <Attribute id="1233" value="1" name="gain"/>
              <Attribute id="1234" value="0" name="mixToMono"/>
             </Attributes>
            </AMFile>
            <ScreenVMFile id="1235" start="7539" duration="1" scalar="1/1" mediaStart="14539/1" mediaDuration="1/1" trackNumber="0" src="4" >
             <Transformer>
              <VectorParam id="1236"  name="translation">
               <InterpolatingParam id="1237" interp="linr"  time="-9999999/1" value="0" leadInLength="0/1"  />
               <InterpolatingParam id="1238" interp="linr"  time="-9999999/1" value="0" leadInLength="0/1"  />
               <InterpolatingParam id="1239" interp="linr"  time="-9999999/1" value="0" leadInLength="0/1"  />
              </VectorParam>
              <VectorParam id="1240"  name="rotation">
               <InterpolatingParam id="1241" interp="linr"  time="-9999999/1" value="0" leadInLength="0/1"  />
               <InterpolatingParam id="1242" interp="linr"  time="-9999999/1" value="0" leadInLength="0/1"  />
               <InterpolatingParam id="1243" interp="linr"  time="-9999999/1" value="0" leadInLength="0/1"  />
              </VectorParam>
              <VectorParam id="1244"  name="shear">
               <InterpolatingParam id="1245" interp="linr"  time="-9999999/1" value="0" leadInLength="0/1"  />
               <InterpolatingParam id="1246" interp="linr"  time="-9999999/1" value="0" leadInLength="0/1"  />
               <InterpolatingParam id="1247" interp="linr"  time="-9999999/1" value="0" leadInLength="0/1"  />
              </VectorParam>
              <VectorParam id="1248"  name="scale">
               <InterpolatingParam id="1249" interp="linr"  time="-9999999/1" value="1" leadInLength="0/1"  />
               <InterpolatingParam id="1250" interp="linr"  time="-9999999/1" value="1" leadInLength="0/1"  />
               <InterpolatingParam id="1251" interp="linr"  time="-9999999/1" value="1" leadInLength="0/1"  />
              </VectorParam>
              <VectorParam id="1252"  name="anchor">
               <InterpolatingParam id="1253" interp="linr"  time="0/1" value="0" leadInLength="0/1"  />
               <InterpolatingParam id="1254" interp="linr"  time="0/1" value="0" leadInLength="0/1"  />
               <InterpolatingParam id="1255" interp="linr"  time="0/1" value="0" leadInLength="0/1"  />
              </VectorParam>
             </Transformer>
             <Parameters>
              <VectorParam id="1256"  name="sourceCrop">
               <InterpolatingParam id="1257" interp="linr"  time="0/1" value="0" leadInLength="0/1"  />
               <InterpolatingParam id="1258" interp="linr"  time="0/1" value="0" leadInLength="0/1"  />
               <InterpolatingParam id="1259" interp="linr"  time="0/1" value="0" leadInLength="0/1"  />
               <InterpolatingParam id="1260" interp="linr"  time="0/1" value="0" leadInLength="0/1"  />
              </VectorParam>
              <VectorParam id="1261"  name="geometryCrop">
               <InterpolatingParam id="1262" interp="linr"  time="-9999999/1" value="0" leadInLength="0/1"  />
               <InterpolatingParam id="1263" interp="linr"  time="-9999999/1" value="0" leadInLength="0/1"  />
               <InterpolatingParam id="1264" interp="linr"  time="-9999999/1" value="0" leadInLength="0/1"  />
               <InterpolatingParam id="1265" interp="linr"  time="-9999999/1" value="0" leadInLength="0/1"  />
              </VectorParam>
              <InterpolatingParam id="1266" interp="linr"  time="-9999999/1" value="1" leadInLength="0/1"  name="opacity"/>
              <InterpolatingParam id="1267" interp="linr"  time="0/1" value="0" leadInLength="0/1"  name="cursorOpacity"/>
              <InterpolatingParam id="1268" interp="linr"  time="0/1" value="0" leadInLength="0/1"  name="cursorScale"/>
             </Parameters>
             <Attributes>
              <Attribute id="1269" value="" name="ident"/>
             </Attributes>
             <ExtraData>
              <Entry key="ZoomPanBin">
               <ZoomPanBin id="1270"  >
                <ZoomPanKeyframes>
                 <ZoomPanKeyframe id="1271" timeRangeEnd="-9999999/1" timeRangeDuration="0/1" interpolaterName=""  />
                </ZoomPanKeyframes>
               </ZoomPanBin>
              </Entry>
              <Entry key="CursorEffectBin">
               <CursorEffectBin id="1272"  >
                <CursorEffectKeyframes>
                </CursorEffectKeyframes>
               </CursorEffectBin>
              </Entry>
             </ExtraData>
            </ScreenVMFile>
            <MetaData>
             <entry key="AutoAppliedSmartFocus" val="False"/>
             <entry key="WinSubProjectDisplayName" val=""/>
            </MetaData>
           </UnifiedMedia>
           <UnifiedMedia id="1273"  >
            <AMFile id="1274" start="7540" duration="393" scalar="1/1" mediaStart="15017/1" mediaDuration="393/1" trackNumber="1" src="4" channelNumber="0,1" >
             <Parameters>
              <InterpolatingParam id="1275" interp="linr"  time="0/1" value="1" leadInLength="0/1"  name="volume"/>
              <Parameter id="1276"  name="captions"/>
             </Parameters>
             <Attributes>
              <Attribute id="1277" value="" name="ident"/>
              <Attribute id="1278" value="44100" name="sampleRate"/>
              <Attribute id="1279" value="16" name="bitDepth"/>
              <Attribute id="1280" value="1" name="gain"/>
              <Attribute id="1281" value="0" name="mixToMono"/>
             </Attributes>
            </AMFile>
            <ScreenVMFile id="1282" start="7540" duration="393" scalar="1/1" mediaStart="15017/1" mediaDuration="393/1" trackNumber="0" src="4" >
             <Transformer>
              <VectorParam id="1283"  name="translation">
               <InterpolatingParam id="1284" interp="linr"  time="-9999999/1" value="0" leadInLength="0/1"  />
               <InterpolatingParam id="1285" interp="linr"  time="-9999999/1" value="0" leadInLength="0/1"  />
               <InterpolatingParam id="1286" interp="linr"  time="-9999999/1" value="0" leadInLength="0/1"  />
              </VectorParam>
              <VectorParam id="1287"  name="rotation">
               <InterpolatingParam id="1288" interp="linr"  time="-9999999/1" value="0" leadInLength="0/1"  />
               <InterpolatingParam id="1289" interp="linr"  time="-9999999/1" value="0" leadInLength="0/1"  />
               <InterpolatingParam id="1290" interp="linr"  time="-9999999/1" value="0" leadInLength="0/1"  />
              </VectorParam>
              <VectorParam id="1291"  name="shear">
               <InterpolatingParam id="1292" interp="linr"  time="-9999999/1" value="0" leadInLength="0/1"  />
               <InterpolatingParam id="1293" interp="linr"  time="-9999999/1" value="0" leadInLength="0/1"  />
               <InterpolatingParam id="1294" interp="linr"  time="-9999999/1" value="0" leadInLength="0/1"  />
              </VectorParam>
              <VectorParam id="1295"  name="scale">
               <InterpolatingParam id="1296" interp="linr"  time="-9999999/1" value="1" leadInLength="0/1"  />
               <InterpolatingParam id="1297" interp="linr"  time="-9999999/1" value="1" leadInLength="0/1"  />
               <InterpolatingParam id="1298" interp="linr"  time="-9999999/1" value="1" leadInLength="0/1"  />
              </VectorParam>
              <VectorParam id="1299"  name="anchor">
               <InterpolatingParam id="1300" interp="linr"  time="0/1" value="0" leadInLength="0/1"  />
               <InterpolatingParam id="1301" interp="linr"  time="0/1" value="0" leadInLength="0/1"  />
               <InterpolatingParam id="1302" interp="linr"  time="0/1" value="0" leadInLength="0/1"  />
              </VectorParam>
             </Transformer>
             <Parameters>
              <VectorParam id="1303"  name="sourceCrop">
               <InterpolatingParam id="1304" interp="linr"  time="0/1" value="0" leadInLength="0/1"  />
               <InterpolatingParam id="1305" interp="linr"  time="0/1" value="0" leadInLength="0/1"  />
               <InterpolatingParam id="1306" interp="linr"  time="0/1" value="0" leadInLength="0/1"  />
               <InterpolatingParam id="1307" interp="linr"  time="0/1" value="0" leadInLength="0/1"  />
              </VectorParam>
              <VectorParam id="1308"  name="geometryCrop">
               <InterpolatingParam id="1309" interp="linr"  time="-9999999/1" value="0" leadInLength="0/1"  />
               <InterpolatingParam id="1310" interp="linr"  time="-9999999/1" value="0" leadInLength="0/1"  />
               <InterpolatingParam id="1311" interp="linr"  time="-9999999/1" value="0" leadInLength="0/1"  />
               <InterpolatingParam id="1312" interp="linr"  time="-9999999/1" value="0" leadInLength="0/1"  />
              </VectorParam>
              <InterpolatingParam id="1313" interp="linr"  time="-9999999/1" value="1" leadInLength="0/1"  name="opacity"/>
              <InterpolatingParam id="1314" interp="linr"  time="0/1" value="0" leadInLength="0/1"  name="cursorOpacity"/>
              <InterpolatingParam id="1315" interp="linr"  time="0/1" value="0" leadInLength="0/1"  name="cursorScale"/>
             </Parameters>
             <Attributes>
              <Attribute id="1316" value="" name="ident"/>
             </Attributes>
             <ExtraData>
              <Entry key="ZoomPanBin">
               <ZoomPanBin id="1317"  >
                <ZoomPanKeyframes>
                 <ZoomPanKeyframe id="1318" timeRangeEnd="-9999999/1" timeRangeDuration="0/1" interpolaterName=""  />
                </ZoomPanKeyframes>
               </ZoomPanBin>
              </Entry>
              <Entry key="CursorEffectBin">
               <CursorEffectBin id="1319"  >
                <CursorEffectKeyframes>
                </CursorEffectKeyframes>
               </CursorEffectBin>
              </Entry>
             </ExtraData>
            </ScreenVMFile>
            <MetaData>
             <entry key="AutoAppliedSmartFocus" val="False"/>
             <entry key="WinSubProjectDisplayName" val=""/>
            </MetaData>
           </UnifiedMedia>
           <UnifiedMedia id="1320"  >
            <AMFile id="1321" start="7933" duration="59" scalar="1/1" mediaStart="15591/1" mediaDuration="59/1" trackNumber="1" src="4" channelNumber="0,1" >
             <Parameters>
              <InterpolatingParam id="1322" interp="linr"  time="0/1" value="1" leadInLength="0/1"  name="volume"/>
              <Parameter id="1323"  name="captions"/>
             </Parameters>
             <Attributes>
              <Attribute id="1324" value="" name="ident"/>
              <Attribute id="1325" value="44100" name="sampleRate"/>
              <Attribute id="1326" value="16" name="bitDepth"/>
              <Attribute id="1327" value="1" name="gain"/>
              <Attribute id="1328" value="0" name="mixToMono"/>
             </Attributes>
            </AMFile>
            <ScreenVMFile id="1329" start="7933" duration="59" scalar="1/1" mediaStart="15591/1" mediaDuration="59/1" trackNumber="0" src="4" >
             <Transformer>
              <VectorParam id="1330"  name="translation">
               <InterpolatingParam id="1331" interp="linr"  time="-9999999/1" value="0" leadInLength="0/1"  />
               <InterpolatingParam id="1332" interp="linr"  time="-9999999/1" value="0" leadInLength="0/1"  />
               <InterpolatingParam id="1333" interp="linr"  time="-9999999/1" value="0" leadInLength="0/1"  />
              </VectorParam>
              <VectorParam id="1334"  name="rotation">
               <InterpolatingParam id="1335" interp="linr"  time="-9999999/1" value="0" leadInLength="0/1"  />
               <InterpolatingParam id="1336" interp="linr"  time="-9999999/1" value="0" leadInLength="0/1"  />
               <InterpolatingParam id="1337" interp="linr"  time="-9999999/1" value="0" leadInLength="0/1"  />
              </VectorParam>
              <VectorParam id="1338"  name="shear">
               <InterpolatingParam id="1339" interp="linr"  time="-9999999/1" value="0" leadInLength="0/1"  />
               <InterpolatingParam id="1340" interp="linr"  time="-9999999/1" value="0" leadInLength="0/1"  />
               <InterpolatingParam id="1341" interp="linr"  time="-9999999/1" value="0" leadInLength="0/1"  />
              </VectorParam>
              <VectorParam id="1342"  name="scale">
               <InterpolatingParam id="1343" interp="linr"  time="-9999999/1" value="1" leadInLength="0/1"  />
               <InterpolatingParam id="1344" interp="linr"  time="-9999999/1" value="1" leadInLength="0/1"  />
               <InterpolatingParam id="1345" interp="linr"  time="-9999999/1" value="1" leadInLength="0/1"  />
              </VectorParam>
              <VectorParam id="1346"  name="anchor">
               <InterpolatingParam id="1347" interp="linr"  time="0/1" value="0" leadInLength="0/1"  />
               <InterpolatingParam id="1348" interp="linr"  time="0/1" value="0" leadInLength="0/1"  />
               <InterpolatingParam id="1349" interp="linr"  time="0/1" value="0" leadInLength="0/1"  />
              </VectorParam>
             </Transformer>
             <Parameters>
              <VectorParam id="1350"  name="sourceCrop">
               <InterpolatingParam id="1351" interp="linr"  time="0/1" value="0" leadInLength="0/1"  />
               <InterpolatingParam id="1352" interp="linr"  time="0/1" value="0" leadInLength="0/1"  />
               <InterpolatingParam id="1353" interp="linr"  time="0/1" value="0" leadInLength="0/1"  />
               <InterpolatingParam id="1354" interp="linr"  time="0/1" value="0" leadInLength="0/1"  />
              </VectorParam>
              <VectorParam id="1355"  name="geometryCrop">
               <InterpolatingParam id="1356" interp="linr"  time="-9999999/1" value="0" leadInLength="0/1"  />
               <InterpolatingParam id="1357" interp="linr"  time="-9999999/1" value="0" leadInLength="0/1"  />
               <InterpolatingParam id="1358" interp="linr"  time="-9999999/1" value="0" leadInLength="0/1"  />
               <InterpolatingParam id="1359" interp="linr"  time="-9999999/1" value="0" leadInLength="0/1"  />
              </VectorParam>
              <InterpolatingParam id="1360" interp="linr"  time="-9999999/1" value="1" leadInLength="0/1"  name="opacity"/>
              <InterpolatingParam id="1361" interp="linr"  time="0/1" value="0" leadInLength="0/1"  name="cursorOpacity"/>
              <InterpolatingParam id="1362" interp="linr"  time="0/1" value="0" leadInLength="0/1"  name="cursorScale"/>
             </Parameters>
             <Attributes>
              <Attribute id="1363" value="" name="ident"/>
             </Attributes>
             <ExtraData>
              <Entry key="ZoomPanBin">
               <ZoomPanBin id="1364"  >
                <ZoomPanKeyframes>
                 <ZoomPanKeyframe id="1365" timeRangeEnd="-9999999/1" timeRangeDuration="0/1" interpolaterName=""  />
                </ZoomPanKeyframes>
               </ZoomPanBin>
              </Entry>
              <Entry key="CursorEffectBin">
               <CursorEffectBin id="1366"  >
                <CursorEffectKeyframes>
                </CursorEffectKeyframes>
               </CursorEffectBin>
              </Entry>
             </ExtraData>
            </ScreenVMFile>
            <MetaData>
             <entry key="AutoAppliedSmartFocus" val="False"/>
             <entry key="WinSubProjectDisplayName" val=""/>
            </MetaData>
           </UnifiedMedia>
           <UnifiedMedia id="1367"  >
            <AMFile id="1368" start="7992" duration="95" scalar="1/1" mediaStart="15660/1" mediaDuration="95/1" trackNumber="1" src="4" channelNumber="0,1" >
             <Parameters>
              <InterpolatingParam id="1369" interp="linr"  time="0/1" value="1" leadInLength="0/1"  name="volume"/>
              <Parameter id="1370"  name="captions"/>
             </Parameters>
             <Attributes>
              <Attribute id="1371" value="" name="ident"/>
              <Attribute id="1372" value="44100" name="sampleRate"/>
              <Attribute id="1373" value="16" name="bitDepth"/>
              <Attribute id="1374" value="1" name="gain"/>
              <Attribute id="1375" value="0" name="mixToMono"/>
             </Attributes>
            </AMFile>
            <ScreenVMFile id="1376" start="7992" duration="95" scalar="1/1" mediaStart="15660/1" mediaDuration="95/1" trackNumber="0" src="4" >
             <Transformer>
              <VectorParam id="1377"  name="translation">
               <InterpolatingParam id="1378" interp="linr"  time="-9999999/1" value="0" leadInLength="0/1"  />
               <InterpolatingParam id="1379" interp="linr"  time="-9999999/1" value="0" leadInLength="0/1"  />
               <InterpolatingParam id="1380" interp="linr"  time="-9999999/1" value="0" leadInLength="0/1"  />
              </VectorParam>
              <VectorParam id="1381"  name="rotation">
               <InterpolatingParam id="1382" interp="linr"  time="-9999999/1" value="0" leadInLength="0/1"  />
               <InterpolatingParam id="1383" interp="linr"  time="-9999999/1" value="0" leadInLength="0/1"  />
               <InterpolatingParam id="1384" interp="linr"  time="-9999999/1" value="0" leadInLength="0/1"  />
              </VectorParam>
              <VectorParam id="1385"  name="shear">
               <InterpolatingParam id="1386" interp="linr"  time="-9999999/1" value="0" leadInLength="0/1"  />
               <InterpolatingParam id="1387" interp="linr"  time="-9999999/1" value="0" leadInLength="0/1"  />
               <InterpolatingParam id="1388" interp="linr"  time="-9999999/1" value="0" leadInLength="0/1"  />
              </VectorParam>
              <VectorParam id="1389"  name="scale">
               <InterpolatingParam id="1390" interp="linr"  time="-9999999/1" value="1" leadInLength="0/1"  />
               <InterpolatingParam id="1391" interp="linr"  time="-9999999/1" value="1" leadInLength="0/1"  />
               <InterpolatingParam id="1392" interp="linr"  time="-9999999/1" value="1" leadInLength="0/1"  />
              </VectorParam>
              <VectorParam id="1393"  name="anchor">
               <InterpolatingParam id="1394" interp="linr"  time="0/1" value="0" leadInLength="0/1"  />
               <InterpolatingParam id="1395" interp="linr"  time="0/1" value="0" leadInLength="0/1"  />
               <InterpolatingParam id="1396" interp="linr"  time="0/1" value="0" leadInLength="0/1"  />
              </VectorParam>
             </Transformer>
             <Parameters>
              <VectorParam id="1397"  name="sourceCrop">
               <InterpolatingParam id="1398" interp="linr"  time="0/1" value="0" leadInLength="0/1"  />
               <InterpolatingParam id="1399" interp="linr"  time="0/1" value="0" leadInLength="0/1"  />
               <InterpolatingParam id="1400" interp="linr"  time="0/1" value="0" leadInLength="0/1"  />
               <InterpolatingParam id="1401" interp="linr"  time="0/1" value="0" leadInLength="0/1"  />
              </VectorParam>
              <VectorParam id="1402"  name="geometryCrop">
               <InterpolatingParam id="1403" interp="linr"  time="-9999999/1" value="0" leadInLength="0/1"  />
               <InterpolatingParam id="1404" interp="linr"  time="-9999999/1" value="0" leadInLength="0/1"  />
               <InterpolatingParam id="1405" interp="linr"  time="-9999999/1" value="0" leadInLength="0/1"  />
               <InterpolatingParam id="1406" interp="linr"  time="-9999999/1" value="0" leadInLength="0/1"  />
              </VectorParam>
              <InterpolatingParam id="1407" interp="linr"  time="-9999999/1" value="1" leadInLength="0/1"  name="opacity"/>
              <InterpolatingParam id="1408" interp="linr"  time="0/1" value="0" leadInLength="0/1"  name="cursorOpacity"/>
              <InterpolatingParam id="1409" interp="linr"  time="0/1" value="0" leadInLength="0/1"  name="cursorScale"/>
             </Parameters>
             <Attributes>
              <Attribute id="1410" value="" name="ident"/>
             </Attributes>
             <ExtraData>
              <Entry key="ZoomPanBin">
               <ZoomPanBin id="1411"  >
                <ZoomPanKeyframes>
                 <ZoomPanKeyframe id="1412" timeRangeEnd="-9999999/1" timeRangeDuration="0/1" interpolaterName=""  />
                </ZoomPanKeyframes>
               </ZoomPanBin>
              </Entry>
              <Entry key="CursorEffectBin">
               <CursorEffectBin id="1413"  >
                <CursorEffectKeyframes>
                </CursorEffectKeyframes>
               </CursorEffectBin>
              </Entry>
             </ExtraData>
            </ScreenVMFile>
            <MetaData>
             <entry key="AutoAppliedSmartFocus" val="False"/>
             <entry key="WinSubProjectDisplayName" val=""/>
            </MetaData>
           </UnifiedMedia>
           <UnifiedMedia id="1414"  >
            <AMFile id="1415" start="8087" duration="97" scalar="1/1" mediaStart="15778/1" mediaDuration="97/1" trackNumber="1" src="4" channelNumber="0,1" >
             <Parameters>
              <InterpolatingParam id="1416" interp="linr"  time="0/1" value="1" leadInLength="0/1"  name="volume"/>
              <Parameter id="1417"  name="captions"/>
             </Parameters>
             <Attributes>
              <Attribute id="1418" value="" name="ident"/>
              <Attribute id="1419" value="44100" name="sampleRate"/>
              <Attribute id="1420" value="16" name="bitDepth"/>
              <Attribute id="1421" value="1" name="gain"/>
              <Attribute id="1422" value="0" name="mixToMono"/>
             </Attributes>
            </AMFile>
            <ScreenVMFile id="1423" start="8087" duration="97" scalar="1/1" mediaStart="15778/1" mediaDuration="97/1" trackNumber="0" src="4" >
             <Transformer>
              <VectorParam id="1424"  name="translation">
               <InterpolatingParam id="1425" interp="linr"  time="-9999999/1" value="0" leadInLength="0/1"  />
               <InterpolatingParam id="1426" interp="linr"  time="-9999999/1" value="0" leadInLength="0/1"  />
               <InterpolatingParam id="1427" interp="linr"  time="-9999999/1" value="0" leadInLength="0/1"  />
              </VectorParam>
              <VectorParam id="1428"  name="rotation">
               <InterpolatingParam id="1429" interp="linr"  time="-9999999/1" value="0" leadInLength="0/1"  />
               <InterpolatingParam id="1430" interp="linr"  time="-9999999/1" value="0" leadInLength="0/1"  />
               <InterpolatingParam id="1431" interp="linr"  time="-9999999/1" value="0" leadInLength="0/1"  />
              </VectorParam>
              <VectorParam id="1432"  name="shear">
               <InterpolatingParam id="1433" interp="linr"  time="-9999999/1" value="0" leadInLength="0/1"  />
               <InterpolatingParam id="1434" interp="linr"  time="-9999999/1" value="0" leadInLength="0/1"  />
               <InterpolatingParam id="1435" interp="linr"  time="-9999999/1" value="0" leadInLength="0/1"  />
              </VectorParam>
              <VectorParam id="1436"  name="scale">
               <InterpolatingParam id="1437" interp="linr"  time="-9999999/1" value="1" leadInLength="0/1"  />
               <InterpolatingParam id="1438" interp="linr"  time="-9999999/1" value="1" leadInLength="0/1"  />
               <InterpolatingParam id="1439" interp="linr"  time="-9999999/1" value="1" leadInLength="0/1"  />
              </VectorParam>
              <VectorParam id="1440"  name="anchor">
               <InterpolatingParam id="1441" interp="linr"  time="0/1" value="0" leadInLength="0/1"  />
               <InterpolatingParam id="1442" interp="linr"  time="0/1" value="0" leadInLength="0/1"  />
               <InterpolatingParam id="1443" interp="linr"  time="0/1" value="0" leadInLength="0/1"  />
              </VectorParam>
             </Transformer>
             <Parameters>
              <VectorParam id="1444"  name="sourceCrop">
               <InterpolatingParam id="1445" interp="linr"  time="0/1" value="0" leadInLength="0/1"  />
               <InterpolatingParam id="1446" interp="linr"  time="0/1" value="0" leadInLength="0/1"  />
               <InterpolatingParam id="1447" interp="linr"  time="0/1" value="0" leadInLength="0/1"  />
               <InterpolatingParam id="1448" interp="linr"  time="0/1" value="0" leadInLength="0/1"  />
              </VectorParam>
              <VectorParam id="1449"  name="geometryCrop">
               <InterpolatingParam id="1450" interp="linr"  time="-9999999/1" value="0" leadInLength="0/1"  />
               <InterpolatingParam id="1451" interp="linr"  time="-9999999/1" value="0" leadInLength="0/1"  />
               <InterpolatingParam id="1452" interp="linr"  time="-9999999/1" value="0" leadInLength="0/1"  />
               <InterpolatingParam id="1453" interp="linr"  time="-9999999/1" value="0" leadInLength="0/1"  />
              </VectorParam>
              <InterpolatingParam id="1454" interp="linr"  time="-9999999/1" value="1" leadInLength="0/1"  name="opacity"/>
              <InterpolatingParam id="1455" interp="linr"  time="0/1" value="0" leadInLength="0/1"  name="cursorOpacity"/>
              <InterpolatingParam id="1456" interp="linr"  time="0/1" value="0" leadInLength="0/1"  name="cursorScale"/>
             </Parameters>
             <Attributes>
              <Attribute id="1457" value="" name="ident"/>
             </Attributes>
             <ExtraData>
              <Entry key="ZoomPanBin">
               <ZoomPanBin id="1458"  >
                <ZoomPanKeyframes>
                 <ZoomPanKeyframe id="1459" timeRangeEnd="-9999999/1" timeRangeDuration="0/1" interpolaterName=""  />
                </ZoomPanKeyframes>
               </ZoomPanBin>
              </Entry>
              <Entry key="CursorEffectBin">
               <CursorEffectBin id="1460"  >
                <CursorEffectKeyframes>
                </CursorEffectKeyframes>
               </CursorEffectBin>
              </Entry>
             </ExtraData>
            </ScreenVMFile>
            <MetaData>
             <entry key="AutoAppliedSmartFocus" val="False"/>
             <entry key="WinSubProjectDisplayName" val=""/>
            </MetaData>
           </UnifiedMedia>
           <UnifiedMedia id="1461"  >
            <AMFile id="1462" start="8184" duration="450" scalar="1/1" mediaStart="15885/1" mediaDuration="450/1" trackNumber="1" src="4" channelNumber="0,1" >
             <Parameters>
              <InterpolatingParam id="1463" interp="linr"  time="0/1" value="1" leadInLength="0/1"  name="volume"/>
              <Parameter id="1464"  name="captions"/>
             </Parameters>
             <Attributes>
              <Attribute id="1465" value="" name="ident"/>
              <Attribute id="1466" value="44100" name="sampleRate"/>
              <Attribute id="1467" value="16" name="bitDepth"/>
              <Attribute id="1468" value="1" name="gain"/>
              <Attribute id="1469" value="0" name="mixToMono"/>
             </Attributes>
            </AMFile>
            <ScreenVMFile id="1470" start="8184" duration="450" scalar="1/1" mediaStart="15885/1" mediaDuration="450/1" trackNumber="0" src="4" >
             <Transformer>
              <VectorParam id="1471"  name="translation">
               <InterpolatingParam id="1472" interp="linr"  time="-9999999/1" value="0" leadInLength="0/1"  />
               <InterpolatingParam id="1473" interp="linr"  time="-9999999/1" value="0" leadInLength="0/1"  />
               <InterpolatingParam id="1474" interp="linr"  time="-9999999/1" value="0" leadInLength="0/1"  />
              </VectorParam>
              <VectorParam id="1475"  name="rotation">
               <InterpolatingParam id="1476" interp="linr"  time="-9999999/1" value="0" leadInLength="0/1"  />
               <InterpolatingParam id="1477" interp="linr"  time="-9999999/1" value="0" leadInLength="0/1"  />
               <InterpolatingParam id="1478" interp="linr"  time="-9999999/1" value="0" leadInLength="0/1"  />
              </VectorParam>
              <VectorParam id="1479"  name="shear">
               <InterpolatingParam id="1480" interp="linr"  time="-9999999/1" value="0" leadInLength="0/1"  />
               <InterpolatingParam id="1481" interp="linr"  time="-9999999/1" value="0" leadInLength="0/1"  />
               <InterpolatingParam id="1482" interp="linr"  time="-9999999/1" value="0" leadInLength="0/1"  />
              </VectorParam>
              <VectorParam id="1483"  name="scale">
               <InterpolatingParam id="1484" interp="linr"  time="-9999999/1" value="1" leadInLength="0/1"  />
               <InterpolatingParam id="1485" interp="linr"  time="-9999999/1" value="1" leadInLength="0/1"  />
               <InterpolatingParam id="1486" interp="linr"  time="-9999999/1" value="1" leadInLength="0/1"  />
              </VectorParam>
              <VectorParam id="1487"  name="anchor">
               <InterpolatingParam id="1488" interp="linr"  time="0/1" value="0" leadInLength="0/1"  />
               <InterpolatingParam id="1489" interp="linr"  time="0/1" value="0" leadInLength="0/1"  />
               <InterpolatingParam id="1490" interp="linr"  time="0/1" value="0" leadInLength="0/1"  />
              </VectorParam>
             </Transformer>
             <Parameters>
              <VectorParam id="1491"  name="sourceCrop">
               <InterpolatingParam id="1492" interp="linr"  time="0/1" value="0" leadInLength="0/1"  />
               <InterpolatingParam id="1493" interp="linr"  time="0/1" value="0" leadInLength="0/1"  />
               <InterpolatingParam id="1494" interp="linr"  time="0/1" value="0" leadInLength="0/1"  />
               <InterpolatingParam id="1495" interp="linr"  time="0/1" value="0" leadInLength="0/1"  />
              </VectorParam>
              <VectorParam id="1496"  name="geometryCrop">
               <InterpolatingParam id="1497" interp="linr"  time="-9999999/1" value="0" leadInLength="0/1"  />
               <InterpolatingParam id="1498" interp="linr"  time="-9999999/1" value="0" leadInLength="0/1"  />
               <InterpolatingParam id="1499" interp="linr"  time="-9999999/1" value="0" leadInLength="0/1"  />
               <InterpolatingParam id="1500" interp="linr"  time="-9999999/1" value="0" leadInLength="0/1"  />
              </VectorParam>
              <InterpolatingParam id="1501" interp="linr"  time="-9999999/1" value="1" leadInLength="0/1"  name="opacity"/>
              <InterpolatingParam id="1502" interp="linr"  time="0/1" value="0" leadInLength="0/1"  name="cursorOpacity"/>
              <InterpolatingParam id="1503" interp="linr"  time="0/1" value="0" leadInLength="0/1"  name="cursorScale"/>
             </Parameters>
             <Attributes>
              <Attribute id="1504" value="" name="ident"/>
             </Attributes>
             <ExtraData>
              <Entry key="ZoomPanBin">
               <ZoomPanBin id="1505"  >
                <ZoomPanKeyframes>
                 <ZoomPanKeyframe id="1506" timeRangeEnd="-9999999/1" timeRangeDuration="0/1" interpolaterName=""  />
                </ZoomPanKeyframes>
               </ZoomPanBin>
              </Entry>
              <Entry key="CursorEffectBin">
               <CursorEffectBin id="1507"  >
                <CursorEffectKeyframes>
                </CursorEffectKeyframes>
               </CursorEffectBin>
              </Entry>
             </ExtraData>
            </ScreenVMFile>
            <MetaData>
             <entry key="AutoAppliedSmartFocus" val="False"/>
             <entry key="WinSubProjectDisplayName" val=""/>
            </MetaData>
           </UnifiedMedia>
          </Medias>
         </GenericTrack>
        </StitchedMedia>
        <UnifiedMedia id="1508"  >
         <AMFile id="1509" start="8181" duration="200" scalar="1/1" mediaStart="16058/1" mediaDuration="200/1" trackNumber="1" src="4" channelNumber="0,1" >
          <Parameters>
           <InterpolatingParam id="1510" interp="linr"  name="volume">
            <Keyframes>
            <Keyframe id="1511"  time="0/1" value="1" leadInLength="0/1"  />
            <Keyframe id="1512"  time="16058/1" value="1" leadInLength="0/1"  />
            </Keyframes>
           </InterpolatingParam>
           <Parameter id="1513"  name="captions"/>
          </Parameters>
          <Effects>
           <GenericEffect id="1514" name = "NoiseReduction" >
            <Parameters>
            <InterpolatingParam id="1515" interp="linr"  time="0/1" value="27.599999999999998" leadInLength="0/1"   name="denoiserAmount"/>
            <InterpolatingParam id="1516" interp="linr"  time="0/1" value="2.2799999999999994" leadInLength="0/1"   name="denoiserThreshold"/>
            <Parameter id="1517"   name="noiseProfile">
             <Keyframes>
             <Keyframe id="1518"  time="0/1" value="FBAAAAIAAABErAAAAQIAAOUFb8Kl3VTCrzJHwqT6VcKkK2/CVfFpwkypaMJOK3HC0Xt7wrSMe8Lh&#xD;&#xa;BHzCUs6BwvIWh8JfMIrCxFGMwoDkkMLSO43C1V2KwpwjicIT1IbCOHOFwrUKhsK4+obCKgmLwpX0&#xD;&#xa;i8IiBYvCLB2JwlJ9icKzgo3CI8SLwpkWh8LPOYvCHnySwmIRlcKoMZTCUYOQwgK+jMJw5YvCmE+O&#xD;&#xa;wv1OjsJ4cJDCpJqQwrqgjMJwPo7CfIOOwsmqisIHn4jC63mJwu0iicLvm4jCWlWMwgqmhsKGQoXC&#xD;&#xa;sxuLwtXljMK9/YjCrreIwn7UisJolo/CXSqVwgEsmsKw05/Ca66gwvKIn8KchKDCf5SjwmDPpsL7&#xD;&#xa;0KTCPG2hwnwamMJae5LCNx6UwlArnsIArKTCzv2kwiKkqcJAAqnCBU6rwuWgrsJeJavCXlmrwjrY&#xD;&#xa;rMJYvKvCwNuqwkHwq8Jg66nCcgGmwpaqpsKu86jCwKKowjBvq8LMsa3C0xGrwoU7qMKEcqnCM7+u&#xD;&#xa;wl9grMI+oKrClOuowoQpqcIAOqrCaPiuwj9irsIZIa3CWQ2twkBursIVZrDC9MKvwoy8scLm7bLC&#xD;&#xa;HMC0wrGDtMItj7LCK56uwlSErcKHAK/Cok+uwrGXr8KUkq/C7GOwwsRxscK36bHC6Uqzwg3EssK+&#xD;&#xa;zLLCaO+0wsj3tMJ3eLTCtma0wrF9tcL/ibXChH22wvIOt8Knj7TCNjy0wjnNt8L9/bnCqiy4wn4d&#xD;&#xa;t8KalLnCoQK5wvD2uMICLbjCNPy2wna1uML6FLjCRDK1wqzotcIC47bCuMq2wlaEuMKVObTCnqm1&#xD;&#xa;wpa0t8KiTLTCga6wwqQvs8KVVrbCMe63wq5QuMLvlbfCs3G2wlSitsKIY7bCMh+3wgKRt8LVobnC&#xD;&#xa;2Va4wi3OtcJvULTChduzwj8Ct8L6l7bCk/Wzwn4ctsK6zrbCO1a3wj6EssKGwbPCRAS4wsneuMJs&#xD;&#xa;zbbC+u+4wrZzu8IsO7rCXNO5wtvuuMIri7bCX8+1wtqyt8KSXbvCwM+6woILusJ2s7rCpnC7wowS&#xD;&#xa;usIAvrrCUyC8wsaEu8IY4b3CyAW/wioVwcKqLcPCNiq+whksvsJ+krzCP9q7wpwwvMI47L3Coh69&#xD;&#xa;wqZdvcL5yL3CBs27wk5gvMIG/7/CyNW/wvOuvcLS37/CHHzDwnf5wMKMkb/CxrW9wnyjvsLrcMHC&#xD;&#xa;8I/BwiJSv8IyYb/CPHnAwhoJwcL2iMDC2ofCwmAtwMLtI73C8me/wh5Rw8IMAsPCGpLAwgL6wcKK&#xD;&#xa;6MTCBsXDwiOnwcK0t8LCev7CwvRyw8LKH8TCDG/EwnRewsLnVr/CcyzCwpHQw8IC6cTCZ/rCwjzI&#xD;&#xa;w8ImMMXCJF/DwkAIusIQkbzCPJ7GwtqCxsJ05sTCvDTFwrRhxcL4S8bCIp7EwrgHxcJuC8XCHqPF&#xD;&#xa;wtKCxcLOs8PCwoXCwsCiwsIqV8XCqRbFwgyJxcJxcMTCMofGwgqMxcJTM8XC3769wh6nu8L1oMLC&#xD;&#xa;YCfEwimlw8I4r8LC6JvBwp7swsLcgsLCPpLEwlBIysI19srC0z3GwtzRwsIl7cLCRorDwgocxMJ2&#xD;&#xa;A8XCBqnDwp75xsL01sbC8ITGwvayxcIWh8PCfoDBwqLKxMLoOMfCiLXGwnmSx8JGvcfCVtPFwjmY&#xD;&#xa;xMIY98XC1gvJwnDYx8J6BcbCNNTEwpLbxcKsC8XCR77FwleqxsJuMMbC5DPGwkJuyMKe6MrCetnI&#xD;&#xa;wrNoxsJm4sDCOJbDwpqtw8LsTMTCEd/GwmpFx8KdbsbCq0HHwr4MyMKEXsjCTWjHwsdYxMLOtMPC&#xD;&#xa;x8zGwqa7xsKn6sXCCMzFwscLxsLi0cTCKjnGwlhXyMKk+MbCydjGwglsw8IsssPC3v/GwoJ1x8Ic&#xD;&#xa;acrC3mfbwhzN98JIdPnCrKb4wti79cJGY/fCKtn5wiQh+MJg7vnCAMr5wlb99sLK6vjCeiD7wmKK&#xD;&#xa;+cLmGvfCZtz1wnpN+cLYcfnC1H37wpju+cKGD/rCVjr8wjjZ+cIwdPnCuCH1wkyy9sKkBPnCeqH5&#xD;&#xa;wpiz+sJYofjCUT/3wkmu98L+U/rCorT7wn6/+sJIs/rC0rn3wkqG9sKbH/jClmf4wnZd9sJy/PfC&#xD;&#xa;vNr4wh6M+cIEJfbCeJfzwmgJ9cIwcfjC5r36wvDj+MIigPjCJqb4whDj+MJWs/nCgjb2wlCk9cLm&#xD;&#xa;oPTCC3v1wjZ6+cL2wvrCY9v3wnaG9cLfRPjCILX6wiKB+cJtHffCHGD1wqI39sIwBPbCgT74wo6v&#xD;&#xa;98Lo+ffCWAb3wuqd9sL4bPjCfjT5wqbs9sJCjfjCEhz5wnrT98KXGvbCvgb0woSB88LmffjCVuv3&#xD;&#xa;wva1+MJqD/jCa3D3woY2+cIGj/jC2zP2wnh/9MLOgvjC2O75wu899sLwgPbCxkL5wtrx9sIui/bC&#xD;&#xa;3M35wgKl+ML8pvnCPBf5wgxA98LUb/jCBGn2wlPE9cIeN/bC9Av5wnAK/cIiKfrC/n73wjo888JO&#xD;&#xa;T/PCj3X2wkA898L4MPbC1gL3whez9sIcyvXCY1P4wgL0+sIGt/fCYl/3wkgc9sJMRvjCFDv2wgs5&#xD;&#xa;9sI0lPfCJj74wiiw9sJhDfjCYFX7wgBb/cJQt/3ChHH6wrwt+cIwCfrCxkD3wnOf9cKajvfCqjj2&#xD;&#xa;wmA/9sK73vTCjWH1wobT9sLS+ffCRPj5woCO+MKQXfjCAff2wsAQ+MLUHfrCDI75wjpK98JezvfC&#xD;&#xa;Qv/4wg4E+MKIQvjCOQIEwxAHb8IR3lTCoTJHwrX6VcLbLG/CMPNpwnyqaMJdLHHCzXl7wtWIe8Lw&#xD;&#xa;/3vCa8uBwtMTh8KWLYrCjFCMwiDjkMKyOo3CDV6KwoAkicJk0obCXnKFwkQKhsKT+obCrgeLwjD0&#xD;&#xa;i8JIBYvCyxyJwld9icLogI3CCcaLwgkah8IkOovCZXqSwrsRlcK6MJTCKIGQwnm9jMKJ5YvCL1CO&#xD;&#xa;wjhMjsL5bZDC1pmQwkWgjMKMPY7C9oeOwpWuisKZoIjC/HuJwo8iicJvnIjCgleMwl6mhsJmQ4XC&#xD;&#xa;/ByLwsbjjMIc/YjCxrmIwp7WisI5lo/CYC+Vwkw0msKB3J/C/rigws+Jn8KBfaDC9JKjwn/WpsJf&#xD;&#xa;3aTCD2+hwoUYmMKceJLCVR2UwsAlnsISrqTCUhClwlXCqcLhKqnCmGGrwjm0rsK3K6vCxmirwvvn&#xD;&#xa;rMKOs6vCBPCqwu4OrMLZCqrCiPilwuq5psJO86jCP5Kows9pq8Kd263C5jerwppSqMIalKnC+8eu&#xD;&#xa;wu6JrMK1sKrCovmowsA9qcK6FarC28quwniBrsLIJq3C1getwrBkrsJCd7DCN/yvwtr3scKCObPC&#xD;&#xa;HNu0wsWktMKKurLCMK2uwjRZrcIq0K7CzmGuwlLAr8K+A7DCIKmwwi7vscIPOLLCfJSzwgy8ssJl&#xD;&#xa;I7PCnfG0wmj1tMLXw7TCPau0woL2tcKc+rXCyOq2wv+Wt8Kc57TCfA21woxsuMKmrbnCTRC4wuTA&#xD;&#xa;t8LF+rnC76O5wiv0ucJEobjCqUG3wpDkuMKX7bfC7W21wu+otsKpYrfCOue2whCIuMImsbTCh8q1&#xD;&#xa;wg8TuMIntLTCjRixwlq5s8J727bC/zi4wsKQuMLHprfC0Gm2wseqtsJbRLbC2yC3wpYct8LMRbnC&#xD;&#xa;xIG4wuRItsLv3LTCpfuzwt5Ht8LslbbChO+zwiAotsKCBbfC3p23wkots8LYe7TCp0K4wu8mucKc&#xD;&#xa;LrfC6Ja4wu6Ou8LUGrrCAIO5wl76uMLgtLbCdKm2wvlDuMIPUrvC6o66wgcqusKOmbrCAKO7wl2A&#xD;&#xa;usKkuLvCNQ+9wsT9u8J+i77CKDLAwhowwsKeYsPC2cK9wuwbvcKUObzC8FK8wtgIvMJA1b3CB129&#xD;&#xa;wlRnvcKsa77Ccm+8wnpGvcI+PMDChp6/wo5zvcIe87/CCSfEwlIRwsJO/b/CJmq+wi6Av8I2u8LC&#xD;&#xa;Fv/CwuL9v8Id+77CTmfAwkX3wMK42MDCqoXCwszZwMIm1rzCeBS/wpV+w8LgBcPCtGTBwhLmwsKE&#xD;&#xa;JMbC8E/EwpYzwsKyrMLCZh7DwigVw8JGBsTCMjLEwnoYwsLoZr/C60/Cwktow8I2s8TCyibDwqXW&#xD;&#xa;w8LM0cXCw/zDwpAxusKIuLzCGKLGwjrwxcJaXMTC6KfEwquoxcLKLMbC/CPFwqj1xMLnF8XCz77F&#xD;&#xa;wgpzxcKOPMPCIAvCwoumwsJK2MXCipTFwlqZxcJeRMTC/IXGwmDnxcLvIMXCeqe9wvyTu8Ieu8LC&#xD;&#xa;/kjEwv/Hw8IIzsLCRMbBwqT9wsIBbsLCgIHEwshhysL2IcvC/mHGwqjRwsJA0cLC8ojDwqTzw8Ky&#xD;&#xa;0sTCsIXDwrDzxsKcK8fC3L7GwgbpxcLwd8PCQLrBwpBGxcIKjMfCWMPGwnZsx8JRzMfCa+zFwoah&#xD;&#xa;xMIqn8XCyMXIwt7Vx8K0E8bCFBrFwlQOxsKTAMXCBYfFwiiTxsKYBcbCU/bFwnFHyMJKdcrCr5rI&#xD;&#xa;wiKIxsI++cDCnK/Dwkmzw8IYIcTCKpXGwsIex8Iwg8bCiQDHwmg2yMIQwcjCQoDHwpwQxMI1isPC&#xD;&#xa;J7/Gwm52xsJQ0cXCuNfFwg1UxsIVTMXCylnGwmiPyMLGIsfCKKPGwm9iw8Lt7MPCaGfHwojHx8Iu&#xD;&#xa;fMrCiyjbwni+9cKervnCZ231ws7/9cJA0fjCECD4whLr88JZ7/XCriP4wsoJ98JjwvfCIgX4wm0N&#xD;&#xa;9sIWX/bCFEH5wuWR98Lmn/fCcmz4wp3I9cIVTPTCmJL1wg7h9sIZr/fCvMv5wvx++sI2j/fC4Eb1&#xD;&#xa;wvOw88JaHvfCRhr5wiQ5+MLnP/XCs8H1wgjE+MLS1fzCsH78wqTW+8IAwfrCdHX5wujD+sI4afnC&#xD;&#xa;EnX4wmJh+ML+UvfCLBn5wkw1+8L+pvnCprr4wlwq+cLSCfrCXvv5wtq6+MIOsfnCyDT7wgzF+MIw&#xD;&#xa;MPjCqkf5wiic9sLci/XCRpn1wu569MIALPfCUPv4wjTd+sKINPzCJFj3wtkk9sLKkfbC+mD4whds&#xD;&#xa;98JeT/bC4GX5wmJD9sLlJPXCmiT0wqOX9MLmtPbC1jP4whj798IuTvnCeFD6wroI+cLslPfCyJb4&#xD;&#xa;wozY+MJ8SPrCHH35wpoi+sLEEffCLrPzwkyF9sLePPbCq7j2wliL+MJdzffCLfn1wmT098J2YfjC&#xD;&#xa;WRf4wvai+ML0VPXCs5X1wsZe+MIBzffC8nH4wokc+MKKmPfCanj3wupG+MKg9vfCpiT5wu5J+cLe&#xD;&#xa;lPnCLKn3wiMW+MLkBvjC/Yn3wsrg98KidffCMFT3wmB79sJe3fbC9mz4wko7+MIyQvfC7QP1wk6G&#xD;&#xa;9sJKl/nCPq/6wtR7+MIoXPjCWu/5wlS0+MLKyPXCqIrywvXN88IqEPXCJB32wnqI9sJot/bCE8v2&#xD;&#xa;wkAw98K6MfjCGnv5woYy+sIS5PzCuuP4wtW69sIU5vnCqu75wkqi9cLmRvbCGjD2wnHV9sJ//fTC&#xD;&#xa;tij1wvab9cKn+PPCRtYA" leadInLength="0/1"  />
             </Keyframes>
            </Parameter>
            </Parameters>
            <MetaData>
             <entry key="effectIndex" val="1"/>
            </MetaData>
           </GenericEffect>
          </Effects>
          <Attributes>
           <Attribute id="1519" value="" name="ident"/>
           <Attribute id="1520" value="44100" name="sampleRate"/>
           <Attribute id="1521" value="16" name="bitDepth"/>
           <Attribute id="1522" value="1" name="gain"/>
           <Attribute id="1523" value="0" name="mixToMono"/>
          </Attributes>
         </AMFile>
         <ScreenVMFile id="1524" start="8181" duration="200" scalar="1/1" mediaStart="16058/1" mediaDuration="200/1" trackNumber="0" src="4" >
          <Transformer>
           <VectorParam id="1525"  name="translation">
            <InterpolatingParam id="1526" interp="linr"  time="-9999999/1" value="-47.330677290771767" leadInLength="0/1"  interpolater="leadin-linr"  />
            <InterpolatingParam id="1527" interp="linr"  time="-9999999/1" value="5.7370517929658185" leadInLength="0/1"  interpolater="leadin-linr"  />
            <InterpolatingParam id="1528" interp="linr"  time="-9999999/1" value="0" leadInLength="0/1"  interpolater="leadin-linr"  />
           </VectorParam>
           <VectorParam id="1529"  name="rotation">
            <InterpolatingParam id="1530" interp="linr"  time="-9999999/1" value="0" leadInLength="0/1"  interpolater="leadin-linr"  />
            <InterpolatingParam id="1531" interp="linr"  time="-9999999/1" value="0" leadInLength="0/1"  interpolater="leadin-linr"  />
            <InterpolatingParam id="1532" interp="linr"  time="-9999999/1" value="0" leadInLength="0/1"  interpolater="leadin-linr"  />
           </VectorParam>
           <VectorParam id="1533"  name="shear">
            <InterpolatingParam id="1534" interp="linr"  time="-9999999/1" value="0" leadInLength="0/1"  interpolater="leadin-linr"  />
            <InterpolatingParam id="1535" interp="linr"  time="-9999999/1" value="0" leadInLength="0/1"  interpolater="leadin-linr"  />
            <InterpolatingParam id="1536" interp="linr"  time="-9999999/1" value="0" leadInLength="0/1"  interpolater="leadin-linr"  />
           </VectorParam>
           <VectorParam id="1537"  name="scale">
            <InterpolatingParam id="1538" interp="linr"  time="-9999999/1" value="0.66666666666666663" leadInLength="0/1"  interpolater="leadin-linr"  />
            <InterpolatingParam id="1539" interp="linr"  time="-9999999/1" value="0.66666666666666663" leadInLength="0/1"  interpolater="leadin-linr"  />
            <InterpolatingParam id="1540" interp="linr"  time="-9999999/1" value="1" leadInLength="0/1"  interpolater="leadin-linr"  />
           </VectorParam>
           <VectorParam id="1541"  name="anchor">
            <InterpolatingParam id="1542" interp="linr"  time="0/1" value="0" leadInLength="0/1"  />
            <InterpolatingParam id="1543" interp="linr"  time="0/1" value="0" leadInLength="0/1"  />
            <InterpolatingParam id="1544" interp="linr"  time="0/1" value="0" leadInLength="0/1"  />
           </VectorParam>
          </Transformer>
          <Parameters>
           <VectorParam id="1545"  name="sourceCrop">
            <InterpolatingParam id="1546" interp="linr"  time="0/1" value="0" leadInLength="0/1"  />
            <InterpolatingParam id="1547" interp="linr"  time="0/1" value="0" leadInLength="0/1"  />
            <InterpolatingParam id="1548" interp="linr"  time="0/1" value="0" leadInLength="0/1"  />
            <InterpolatingParam id="1549" interp="linr"  time="0/1" value="0" leadInLength="0/1"  />
           </VectorParam>
           <VectorParam id="1550"  name="geometryCrop">
            <InterpolatingParam id="1551" interp="linr"  time="-9999999/1" value="152.74900398394027" leadInLength="0/1"  interpolater="leadin-linr"  />
            <InterpolatingParam id="1552" interp="linr"  time="-9999999/1" value="60.239043824775592" leadInLength="0/1"  interpolater="leadin-linr"  />
            <InterpolatingParam id="1553" interp="linr"  time="-9999999/1" value="0" leadInLength="0/1"  interpolater="leadin-linr"  />
            <InterpolatingParam id="1554" interp="linr"  time="-9999999/1" value="43.027888445929932" leadInLength="0/1"  interpolater="leadin-linr"  />
           </VectorParam>
           <InterpolatingParam id="1555" interp="linr"  time="-9999999/1" value="1" leadInLength="0/1"  interpolater="leadin-linr"  name="opacity"/>
           <InterpolatingParam id="1556" interp="linr"  time="0/1" value="1" leadInLength="0/1"  name="cursorOpacity"/>
           <InterpolatingParam id="1557" interp="linr"  time="0/1" value="1" leadInLength="0/1"  name="cursorScale"/>
          </Parameters>
          <Effects>
           <GenericEffect id="1558" name = "CursorBaseEffectName" >
            <Parameters>
            <InterpolatingParam id="1559" interp="linr"  time="-9999999/1" value="1" leadInLength="0/1"   name="cursorSize"/>
            <InterpolatingParam id="1560" interp="linr"  time="-9999999/1" value="0" leadInLength="0/1"   name="highlightBlurRadius"/>
            <InterpolatingParam id="1561" interp="linr"  time="-9999999/1" value="0" leadInLength="0/1"   name="highlightColorBlue"/>
            <InterpolatingParam id="1562" interp="linr"  time="-9999999/1" value="255" leadInLength="0/1"   name="highlightColorGreen"/>
            <InterpolatingParam id="1563" interp="linr"  time="-9999999/1" value="255" leadInLength="0/1"   name="highlightColorRed"/>
            <InterpolatingParam id="1564" interp="linr"  time="-9999999/1" value="5" leadInLength="0/1"   name="highlightFeatherSize"/>
            <InterpolatingParam id="1565" interp="linr"  time="-9999999/1" value="2" leadInLength="0/1"   name="highlightMagnification"/>
            <InterpolatingParam id="1566" interp="linr"  time="-9999999/1" value="1" leadInLength="0/1"   name="highlightOpacity"/>
            <InterpolatingParam id="1567" interp="linr"  time="-9999999/1" value="45" leadInLength="0/1"   name="highlightSize"/>
            <Parameter id="1568"   name="highlightType">
             <Keyframes>
             <Keyframe id="1569"  time="-9999999/1" value="0" leadInLength="0/1"  />
             </Keyframes>
            </Parameter>
            <InterpolatingParam id="1570" interp="linr"  time="-9999999/1" value="0" leadInLength="0/1"   name="leftClickColorBlue"/>
            <InterpolatingParam id="1571" interp="linr"  time="-9999999/1" value="0" leadInLength="0/1"   name="leftClickColorGreen"/>
            <InterpolatingParam id="1572" interp="linr"  time="-9999999/1" value="255" leadInLength="0/1"   name="leftClickColorRed"/>
            <InterpolatingParam id="1573" interp="linr"  time="-9999999/1" value="0.80000000000000004" leadInLength="0/1"   name="leftClickDuration"/>
            <InterpolatingParam id="1574" interp="linr"  time="-9999999/1" value="20" leadInLength="0/1"   name="leftClickSize"/>
            <Parameter id="1575"   name="leftClickSoundFilename">
             <Keyframes>
             <Keyframe id="1576"  time="-9999999/1" value="" leadInLength="0/1"  />
             </Keyframes>
            </Parameter>
            <InterpolatingParam id="1577" interp="linr"  time="-9999999/1" value="1" leadInLength="0/1"   name="leftClickSoundVolume"/>
            <Parameter id="1578"   name="leftClickType">
             <Keyframes>
             <Keyframe id="1579"  time="-9999999/1" value="0" leadInLength="0/1"  />
             </Keyframes>
            </Parameter>
            <InterpolatingParam id="1580" interp="linr"  time="-9999999/1" value="1" leadInLength="0/1"   name="opacity"/>
            <InterpolatingParam id="1581" interp="linr"  time="-9999999/1" value="255" leadInLength="0/1"   name="rightClickColorBlue"/>
            <InterpolatingParam id="1582" interp="linr"  time="-9999999/1" value="0" leadInLength="0/1"   name="rightClickColorGreen"/>
            <InterpolatingParam id="1583" interp="linr"  time="-9999999/1" value="0" leadInLength="0/1"   name="rightClickColorRed"/>
            <InterpolatingParam id="1584" interp="linr"  time="-9999999/1" value="0.80000000000000004" leadInLength="0/1"   name="rightClickDuration"/>
            <InterpolatingParam id="1585" interp="linr"  time="-9999999/1" value="20" leadInLength="0/1"   name="rightClickSize"/>
            <Parameter id="1586"   name="rightClickSoundFilename">
             <Keyframes>
             <Keyframe id="1587"  time="-9999999/1" value="" leadInLength="0/1"  />
             </Keyframes>
            </Parameter>
            <InterpolatingParam id="1588" interp="linr"  time="-9999999/1" value="1" leadInLength="0/1"   name="rightClickSoundVolume"/>
            <Parameter id="1589"   name="rightClickType">
             <Keyframes>
             <Keyframe id="1590"  time="-9999999/1" value="0" leadInLength="0/1"  />
             </Keyframes>
            </Parameter>
            </Parameters>
            <MetaData>
             <entry key="effectIndex" val="0"/>
            </MetaData>
           </GenericEffect>
          </Effects>
          <Attributes>
           <Attribute id="1591" value="" name="ident"/>
          </Attributes>
          <ExtraData>
           <Entry key="ZoomPanBin">
            <ZoomPanBin id="1592"  >
             <ZoomPanKeyframes>
              <ZoomPanKeyframe id="1593" timeRangeEnd="-9999999/1" timeRangeDuration="0/1" interpolaterName="linr"  />
             </ZoomPanKeyframes>
            </ZoomPanBin>
           </Entry>
           <Entry key="CursorEffectBin">
            <CursorEffectBin id="1594"  >
             <CursorEffectKeyframes>
              <CursorEffectKeyframe id="1595" timeRangeEnd="-9999999/1" timeRangeDuration="0/1" interpolaterName=""  />
             </CursorEffectKeyframes>
            </CursorEffectBin>
           </Entry>
          </ExtraData>
         </ScreenVMFile>
         <MetaData>
          <entry key="AutoAppliedSmartFocus" val="False"/>
          <entry key="WinSubProjectDisplayName" val=""/>
         </MetaData>
        </UnifiedMedia>
       </Medias>
      </GenericTrack>
      <GenericTrack id="1596"  >
       <Attributes>
        <Attribute id="1597" value="" name="ident"/>
        <Attribute id="1598" value="0" name="audioMuted"/>
        <Attribute id="1599" value="0" name="videoHidden"/>
       </Attributes>
       <MetaData>
        <entry key="IsLocked" val="False"/>
        <entry key="WinTrackHeight" val="62"/>
       </MetaData>
       <Medias>
       </Medias>
      </GenericTrack>
     </Tracks>
    </GenericMixer>
   <CaptionAttributes id="1600"  >
    <Attribute id="1601" value="1" name="captionsEnabled"/>
    <Attribute id="1602" value="Arial" name="captionsFontName"/>
    <Attribute id="1603" value="28" name="captionsFontSize"/>
    <Attribute id="1604" value="(0,0,0,255)" name="captionsBackgroundColor"/>
    <Attribute id="1605" value="(255,255,255,255)" name="captionsForegroundColor"/>
    <Attribute id="1606" value="en" name="lang"/>
    <Attribute id="1607" value="0" name="captionsAlignment"/>
    <Attribute id="1608" value="1" name="captionsDefaultFontSize"/>
    <Attribute id="1609" value="0.5" name="captionsOpacity"/>
    <Attribute id="1610" value="1" name="captionsBackgroundEnabled"/>
    <Attribute id="1611" value="1" name="captionsBackgroundOnlyAroundText"/>
   </CaptionAttributes>
   <Parameters>
    <VectorParam id="1612"  name="eyePosition">
     <InterpolatingParam id="1613" interp="linr"  time="0/1" value="0" leadInLength="0/1"  />
     <InterpolatingParam id="1614" interp="linr"  time="0/1" value="0" leadInLength="0/1"  />
     <InterpolatingParam id="1615" interp="linr"  time="0/1" value="3000" leadInLength="0/1"  />
    </VectorParam>
    <VectorParam id="1616"  name="eyeLookAtPosition">
     <InterpolatingParam id="1617" interp="linr"  time="0/1" value="0" leadInLength="0/1"  />
     <InterpolatingParam id="1618" interp="linr"  time="0/1" value="0" leadInLength="0/1"  />
     <InterpolatingParam id="1619" interp="linr"  time="0/1" value="0" leadInLength="0/1"  />
    </VectorParam>
    <VectorParam id="1620"  name="eyeUpVector">
     <InterpolatingParam id="1621" interp="linr"  time="0/1" value="0" leadInLength="0/1"  />
     <InterpolatingParam id="1622" interp="linr"  time="0/1" value="1" leadInLength="0/1"  />
     <InterpolatingParam id="1623" interp="linr"  time="0/1" value="0" leadInLength="0/1"  />
    </VectorParam>
    <InterpolatingParam id="1624" interp="linr"  time="0/1" value="0.23885785" leadInLength="0/1"  name="fov"/>
    <InterpolatingParam id="1625" interp="linr"  time="0/1" value="1.5" leadInLength="0/1"  name="nearClipDistance"/>
    <InterpolatingParam id="1626" interp="linr"  time="0/1" value="6000" leadInLength="0/1"  name="farClipDistance"/>
   </Parameters>
  </Timeline>
 </Project>
</GoProject>
</CSMLData>

</Project_Data>
