<?xml version="1.0"?>
<Project_Data Version="8.00">
<Project_Settings>
<ProfileName></ProfileName>
<ProjectWidth>1502</ProjectWidth>
<ProjectHeight>720</ProjectHeight>
<IsCustomProject>1</IsCustomProject>
<SavedProjectSettings>1</SavedProjectSettings>
<LastFlashTemplate>-1</LastFlashTemplate>
</Project_Settings>


<AutoSaveFile>C:\Users\Junaid\AppData\Local\TechSmith\Camtasia Studio\8.0\Auto-Saves\magic led80ffe55.autosave.camproj</AutoSaveFile>

<ProjectID>F3666007-2E93-4894-AE8A-CF7C91BD4ECB</ProjectID>

<PowerPointProject>0</PowerPointProject>

<PowerPointFilename></PowerPointFilename>


<Project_Notes>
</Project_Notes>

<Project_MetaData>
<Project_MetaData_Object>
<FieldArrayKey>8</FieldArrayKey>
<Value>magic led</Value>
</Project_MetaData_Object>
<Project_MetaData_Object>
<FieldArrayKey>13</FieldArrayKey>
<Value>2016-01-15 07:13:00 PM</Value>
</Project_MetaData_Object>
<Project_MetaData_Object>
<FieldArrayKey>16</FieldArrayKey>
<Value>ENU</Value>
</Project_MetaData_Object>
</Project_MetaData>

<CSMLData>
<GoProject id="1" version="3.0" >
 <Project id="2" editRate="30/1" version="3.0" >
  <Author></Author>
  <Comment></Comment>
  <System></System>
  <SourceBin id="3"  >
    <Source id="4" src="C:\Users\Junaid\Desktop\IOT RECO\magic led.trec" lastMod="20160115T134539" rect="(0,0,1920,920)" >
      <SourceTrack range="(0,1274)" type="0" editRate="30/1" trackRect="(0,0,1920,920)" sampleRate="0/1" bitDepth="0" numChannels="0" filename="magic led.trec!Strack0.tsc2" metaData="magic led.trec;" />
      <SourceTrack range="(0,1875968)" type="2" editRate="44100/1" trackRect="(0,0,0,0)" sampleRate="44100/1" bitDepth="16" numChannels="2" filename="magic led.trec!Maudio1.mp4" metaData="" />
    </Source>
    <Source id="5" src="C:\Users\Junaid\Desktop\IOT RECO\magic led 2.trec" lastMod="20160115T135604" rect="(0,0,1920,920)" >
      <SourceTrack range="(0,13348)" type="0" editRate="30/1" trackRect="(0,0,1920,920)" sampleRate="0/1" bitDepth="0" numChannels="0" filename="magic led 2.trec!Strack0.tsc2" metaData="magic led 2.trec;" />
      <SourceTrack range="(0,13344000)" type="0" editRate="30000/1" trackRect="(0,0,640,480)" sampleRate="0/1" bitDepth="0" numChannels="0" filename="magic led 2.trec!Cvideo1.mp4" metaData="" />
      <SourceTrack range="(0,19605504)" type="2" editRate="44100/1" trackRect="(0,0,0,0)" sampleRate="44100/1" bitDepth="16" numChannels="2" filename="magic led 2.trec!Maudio2.mp4" metaData="" />
    </Source>
    <Source id="6" src="C:\Users\Junaid\Desktop\IOT\Pics\blink led.jpg" lastMod="20160115T140020" rect="(0,0,400,563)" >
      <SourceTrack range="(0,1)" type="1" editRate="10000000/1" trackRect="(0,0,400,563)" sampleRate="0/1" bitDepth="24" numChannels="0" filename="" metaData="" />
    </Source>
    <Source id="7" src="C:\Users\Junaid\Desktop\IOT RECO\sensors led.trec" lastMod="20160116T080629" rect="(0,0,1040,776)" >
      <SourceTrack range="(0,39924)" type="0" editRate="30/1" trackRect="(0,0,1040,776)" sampleRate="0/1" bitDepth="0" numChannels="0" filename="sensors led.trec!Strack0.tsc2" metaData="sensors led.trec;" />
      <SourceTrack range="(0,39922000)" type="0" editRate="30000/1" trackRect="(0,0,640,480)" sampleRate="0/1" bitDepth="0" numChannels="0" filename="sensors led.trec!Cvideo1.mp4" metaData="" />
      <SourceTrack range="(0,58697728)" type="2" editRate="44100/1" trackRect="(0,0,0,0)" sampleRate="44100/1" bitDepth="16" numChannels="2" filename="sensors led.trec!Maudio2.mp4" metaData="" />
    </Source>
  </SourceBin>
  <Timeline id="8"  >
   <Attributes>
    <Attribute id="9" value="1502" name="width"/>
    <Attribute id="10" value="720" name="height"/>
    <Attribute id="11" value="(0,0,0,255)" name="backgroundColor"/>
   </Attributes>
    <GenericMixer id="12"  name="Unified Mixer">
     <MetaData>
      <entry key="MixerType" val="TimelineMixer"/>
     </MetaData>
     <Tracks>
      <GenericTrack id="13"  >
       <Attributes>
        <Attribute id="14" value="" name="ident"/>
        <Attribute id="15" value="0" name="audioMuted"/>
        <Attribute id="16" value="0" name="videoHidden"/>
       </Attributes>
       <MetaData>
        <entry key="IsLocked" val="False"/>
        <entry key="WinTrackHeight" val="62"/>
       </MetaData>
       <Medias>
        <UnifiedMedia id="17"  >
         <AMFile id="18" start="0" duration="1274" scalar="1/1" mediaStart="0/1" mediaDuration="1274/1" trackNumber="1" src="4" channelNumber="0,1" >
          <Parameters>
           <InterpolatingParam id="19" interp="linr"  time="0/1" value="1" leadInLength="0/1"  name="volume"/>
           <Parameter id="20"  name="captions"/>
          </Parameters>
          <Effects>
           <GenericEffect id="21" name = "NoiseReduction" >
            <Parameters>
            <InterpolatingParam id="22" interp="linr"  time="0/1" value="27.599999999999998" leadInLength="0/1"   name="denoiserAmount"/>
            <InterpolatingParam id="23" interp="linr"  time="0/1" value="2.2799999999999994" leadInLength="0/1"   name="denoiserThreshold"/>
            <Parameter id="24"   name="noiseProfile">
             <Keyframes>
             <Keyframe id="25"  time="0/1" value="FBAAAAIAAABErAAAAQIAAE5LRcLBYDDCyCs+wkJKTcJskk3C8tdIwt/NVMIczFzCfm5WwjjNU8KE&#xD;&#xa;NlzC9whhwoQfbMLOxHDCq7lzwiL7dMLe9HLCaM95wgFId8JvoXDCZrtvwvTBcMLsu3XCcmB7wqVD&#xD;&#xa;fMIo2HvCah95wp2WgMJzPoHCMvV/wpu2gsKepoPCKGiHwvQiicLmJIjCOyeEwuJRg8LCqoXCK0+H&#xD;&#xa;woSEisJO6YvCIC+QwvJRksL14pLCVTSTwhjgksK0HZLC5nWTwkW6lMJ2e5TCXouXwnekm8Iyx53C&#xD;&#xa;VkycwiT4mcImmpvCxjCdwh/un8KJmp7CpEufwrpAoMJrBaHCxxWfwvW1m8KmjpvCEr2fwhrdoMJ4&#xD;&#xa;yaHCCJmgwuRPm8LNgprC7M+gwru6n8Jod6DCevWewsRNoMLU/aTCoWGlwmaOosIcCKPC3L2nwsAU&#xD;&#xa;qsLycqvCJPKrwpB1q8JErazCNpCowrQCpsK2dafCKAKqwqxkrML7mqzCP5Cmwpqmo8K4V6rCnCup&#xD;&#xa;wqeMpcKBSqfCCsyowhzcqMJBsKvCIdmrwkNyrcLGwqrCOdGowvZ6q8I4l63Cfe+uwgEmrsKceq7C&#xD;&#xa;fJ+wwurSr8LekK3CbGGuwtiisMLeq6rCllekwnudqcJ9Z7PCgSexwkSRsMJT5q/Cs2KtwrsBsMLy&#xD;&#xa;4LHCloCuwjheqsJ02KvCZYurwlw+rMJq8a/CjnKvwuJFrcIKnKzCY9uvwpZVr8IC8a7CngOwwuxL&#xD;&#xa;scKgJa/CG9WuwmK4rsJCrbHCvYW0wiM7ssJevK/CpROxws6YscIlz7HCopCywp7ascKOdrPCrJC0&#xD;&#xa;ws1AssLworDCxQevwnzDrcK6zKrCrdeqwmxzrMKAC6/CU7utwgB8rMJOja7CydKzwofYssLherLC&#xD;&#xa;dSmxwkI3sMI7ILDCYhWwwoLJsMJcarLC7OmwwiNTr8KtM7PC0Ra1wvcXtcIvbbPCHkazwmi/tcI0&#xD;&#xa;BbHCy5KxwlCMs8J1C7TCdO2ywuN/scKi7LLChiq1wmRgs8JCgrHCU++ywiJPs8L2MbTCMr+zwkGg&#xD;&#xa;s8Jo7bHCA36zwgBAtcJay7PCUem0wrnUtMIHHbPCVmS1wqSFtcJGBbXCgTK3woh2uMJ4D7bCCaSx&#xD;&#xa;wmJ0tcKyQrbCvem1whfptMK0q7fCHOa4wrG/tcLV5rbCYya3wnwIuMKYNLXCFdW2wnFXuMJqrLLC&#xD;&#xa;JCm1wiK/tMLWcLTCIF+5wszOvMKacbrC5H+5whqyt8LIibHCuHe1wqIzvMJ9F73CZtS8wk7pu8KQ&#xD;&#xa;dLnConK5woKXucLZI7zCJDa8wpTtusJeKLnCyKa5wgbPusKgmrjC7rq3wojNucJ6rrnC+tK5wkqV&#xD;&#xa;u8I4xLzCRce7wq6CscL1YrLCVAu6wq04usKAY7vCwAC8wgW6usIUs7rC3O67whUTvMKYZbzCFDO6&#xD;&#xa;wn2VucIH3rfCLHa4wrxcuMK0IrnCu7S6wmL4u8Ker73CwEm8wvybu8IeCLrC9NuzwqTOssJ64LnC&#xD;&#xa;eIq7whI6usKFWbzC/sO5wirQucIJybnCTym7wv1uusKgyLnCEgy8wnQMu8JknLnCWIK7wq5du8Ik&#xD;&#xa;2LrCnny7wpT7vMKqQ7vCtMC8wlgXv8IlBrTCSsOtwnLJtcL0+7vC8vq8ws7wusJYerjC8VW4wpj0&#xD;&#xa;usLWyLrCpey2wryeusI19b3Cde68whh9usKpuLnCq8K5wplsucJssbvC8N29wuJBvMJrVrzComS7&#xD;&#xa;wgd3usJE+LXC1uy3wvrtucK/o7rCUsm5wroMvMI8YL3CoC2/wg5vvcIuAbvCBoi7wrxLu8KUrLvC&#xD;&#xa;Ena9wpbAvsLwEsDCTI/Awp0pv8IoUb7Cd/u7wpwqu8LYc77C4Iy8wiBbusIbI73CiHa9wtDlvsKa&#xD;&#xa;LsLC0p3Dwqplw8LqvsHCWkbBwnRswMI80L7CKH3AwjSSw8JvVsbCYuy+wj0LusIGib/CYEHCwj/n&#xD;&#xa;w8JR0MHCSu/AwlhSwcJYvMLC6QzBwkc6wcJOGMLCHrbCwiGJwMKGVMHCErHBwigvwsJ29sTC6HbC&#xD;&#xa;wvUKwcI8BcPCaKnEwnrIyMI8Bs/C/ErWwv0s28IS09XCU1rWwgzn08Jo/MvCqg7NwpelzsJlTs7C&#xD;&#xa;PsrNwgiV08Ie89PCJf7Twozn1sKo3tTCQ4/QwhIC0sISfNfC/i/cwjTZ3sLHHtvCHr3awjxi18Jq&#xD;&#xa;Q9jCoincwiTV4cIzmdnCisPUwkYa18L8u9vCthLgwpf/58LF/OvCQZLtwjD56cLa2ujCzsfiwjI+&#xD;&#xa;4sKQbuvCLpbxwk0n7MJOKuvC8bPqwsDF7cLMWPDCogbkwkAQ18KMSM/CKVnLwpCWycJiKMzC+TnN&#xD;&#xa;woX+zsIEKcvC0snIwkRyxMJ9o8fC1JLSwmyxzsIV6cfCeh7IwvZWx8I46snCBB/Pwm/P18IQL9TC&#xD;&#xa;EYPOwl7Cz8K21NPCVVnQwpIE0MJ/5tTC3Ozcwkuq4ML0Mt/CFqHjwvpN5MIAuuHCJIbkwuah8cLu&#xD;&#xa;2vjC4yz4wq7088LKh/XCnhv4wq6j9sLlcPbC+Pj1wt4x98KyQvnC3jL5wkjG+MLWQvfCQr/1wuhl&#xD;&#xa;98I7YffCOMX4wtxs9sJQifjCvPD5wv5x98KAp/fCqB/1wjQ5+cK4oPfC3ND2wux498IMovjCGM35&#xD;&#xa;wlZb+8KYwvvC0K32wl4d9sIM//nCHOn6wp7X+sII+/jCopD4woqh9sL2+/TC8Jz2wn4E9sLKmvXC&#xD;&#xa;w074wqrn9cJeI/fCgyYDw/xKRcI8YDDC7Co+wnpKTcKGlE3CptlIwvfNVMKNy1zCfm9Wwm7QU8LW&#xD;&#xa;OFzCEglhwrUgbMImxXDCd7pzwrz9dMLR9XLCLMx5wtxFd8KeonDCAr1vwjXAcMJ6uHXCnV17wp5E&#xD;&#xa;fMJI2nvCXR95wqSWgMKUQIHCp/h/wia4gsLVpoPCIWiHwp8iicI5JIjCzSaEwlRSg8LDqYXC402H&#xD;&#xa;wlyEisKe6YvCHDGQwshZksKR6ZLCOTOTwljfksLkGpLCmnKTwrS2lMLGepTCMoyXwn6km8L7wZ3C&#xD;&#xa;F0qcwoXymcIOmZvCBy+dwhTqn8IDnJ7C0lCfwmU7oMKFA6HC0hifwkKzm8Jzj5vCH76fwnPdoMI0&#xD;&#xa;y6HCOJygwqhNm8L4g5rCR9GgwknBn8L/e6DCRvaewjJQoMKT+6TCDGilwm6ZosL3EKPCTtKnwtQG&#xD;&#xa;qsIgYKvCDh2swlqpq8JI3qzCdZ6owrb2pcL3nafC6ECqwpCcrMKHwazCNqamwnK+o8LibqrCv0ip&#xD;&#xa;wuCUpcIgU6fCJ/uowpJKqcKOFqzCBOurwkRorcKS/6rCWjqpwkrbq8Kduq3CiA2vwoEcrsLZoK7C&#xD;&#xa;a46wwloGsMJB063C2X+uwqBnsMLwU6rCjjqkwi3FqcIIo7PCoimxwvzNsMKRdLDCZtqtwjxzsMLJ&#xD;&#xa;JLLCNQqvwqSoqsKQ9avCvuurwg6xrMIhV7DC+8mvwq9/rcJZ66zCIOWvwuHVr8L8Xq/CASmwwsd9&#xD;&#xa;scJ3067CLl6uwjP/rsLALrLCBxa1wrC/ssJdS7DCfZaxwlvGscLoGrLC6wezwqpvssKu7bPCUMy0&#xD;&#xa;whDIssJTcLHC3mWvwmErrsJg9qrCsCWrwgXmrMKgV6/CKCeuwsjRrMLMyq7CVMKzwmNcs8KG97LC&#xD;&#xa;Qo+xwohzsMJ0irDCfbGwwvbksMLcU7LCwhmxwuK0r8JJT7PCAiK1wh5ytcIvCLTCZbCzwqELtsKg&#xD;&#xa;N7HCk8yxwv/Ds8LpZrPCaeeywlehscJ8BLPCIGO1wnpds8Jgg7HClfGywlR3s8LGirTCSii0wv32&#xD;&#xa;s8KBSLLCCoGzwgSEtcKM3LPCpCu1wn1TtcJWtLPCr9i1wvHRtcJVd7XC5VK3wvz5t8Ic6rXCGLKx&#xD;&#xa;wsuytcLn2bbCasm2wlOmtcKZ57fCBEa5wsJQtsK5JLfC2ue2wgVzuMIPqbXCGBu3wqEVuMK2lbLC&#xD;&#xa;TGi1wn7ztMK5xbTCfb+5wur0vMKAO7rC/Ai5wvIht8Ic8LDCav60wmIdvMJ6NL3CsVy9wmBXvMKv&#xD;&#xa;p7nCZI65wsZIucLsHbzCUnO8wukuu8KebbnCKJC5wt5/usLGjbjCVr+3wtjLucI7srnC2ty5wvjE&#xD;&#xa;u8K+yLzCVNS7wtaSscLucLLCxzC6woJ9usJul7vCNFm8wrbxusImKrvC9J+8wvDHvMK0ULzCjQy6&#xD;&#xa;wuagucI0/bfCAce4wmTJuMLqR7nCBFi7wrTCvMK61L3CHje8wsqlu8KY+rnCgbSzwoGwssIj17nC&#xD;&#xa;KBW7wsK8ucJLHLzCBqu5wt4ZusKm2LnCbAa7wh1vusJ+wLnChv27wiT+usJUt7nC0J67wu9Vu8Kg&#xD;&#xa;4brCnm67wpj+vMLKcLvC/MC8wjYQv8J/67PCiqytwj3JtcJm6rvC7La8wp3/usJWuLjCeYS4wqD0&#xD;&#xa;usIKyrrCxhq3wqC8usJ/Fr7CDgu9wqasusLRtbnCDb65wh5AucIUh7vCMCS+wiV9vMKDQLzCAU67&#xD;&#xa;wlJwusLj8bXCy+m3whrhucIWpbrCjOC5wsYCvMI+WL3CnhW/wl5vvcJCBrvCTqO7wv5pu8ITibvC&#xD;&#xa;SE+9whLJvsIIEsDCypzAwjlOv8JWd77CUuK7woD9usIxSb7CdWO8wt5KusL4KL3CPGq9wiG+vsIo&#xD;&#xa;JMLCwYrDwoFWw8K8wcHCgG7BwhpZwMJflr7C60bAwo4yw8LWzMXCXLW+wkERusI8vL/Cs4HCwg+q&#xD;&#xa;w8KIWcHCQNHAwmZiwcLe7cLCTT3BwsAnwcLj08HCyOLCwvivwMJodcHCugnCwsZUwsKK7cTCwLPC&#xD;&#xa;wqg9wcK0GcPCluzEwnrIyMK+Ms/CNXrWwjg728Ja/NXCxa7WwnDB08KS0MvCuE3Nwq7ezsJ4ZM7C&#xD;&#xa;OJbNwrZl08I9y9PC+IvUwsJq18JEVNXCwtXQwgX60cJbldfCUmHcwmIL3sKHWdvCW97bwsBC2MIu&#xD;&#xa;jNjCTBXcwuD44ML9udjC7ZLUwqj51sJ939rCWizfwnWz58KixuvCEIruwjxe7MKpburCg3/iwqgH&#xD;&#xa;4sJgFurCnp3vws5w68J2QO3CKr7rwlLK7sL4KfPCXjXlwvIq18Icmc/CZpHLwhwBysKkNczCrmzN&#xD;&#xa;wi4vz8III8vCaMTIwiZZxMJCscfCaLDSwox2zsKPwsfC0wzIwhSSx8I2KsrCYhPPwmXp18K4KNTC&#xD;&#xa;Vn/OwgzJz8Kw+dPC+GLQwrZw0MJE29XCtendwtks4cJE0N/CsPTjwolt5MIR1uDCwkHkwnk18sLF&#xD;&#xa;W/jCiK74wjgu98LifffCFu75who1+cLetfnC0MH3wjyL+MItZPjCxqP4wpRf98JQ6PXCBRT2wmSj&#xD;&#xa;98Ioq/bCyn/1wl5p9sICxvjCQrb3wgJE98IFOvbCMsP2wtwt+sKsNfnCNO/6whxg+sIkOvrCtsT4&#xD;&#xa;whyu9sLotvbC1uj2wtq++MJerPjChCL3wrb+98KoofjC2uz2wmgV9sJYPvXCfBn6wmoA+sL+MPbC&#xD;&#xa;FuH2wq/n98LMd/fCyZAB" leadInLength="0/1"  />
             </Keyframes>
            </Parameter>
            </Parameters>
            <MetaData>
             <entry key="effectIndex" val="1"/>
            </MetaData>
           </GenericEffect>
          </Effects>
          <Attributes>
           <Attribute id="26" value="" name="ident"/>
           <Attribute id="27" value="44100" name="sampleRate"/>
           <Attribute id="28" value="16" name="bitDepth"/>
           <Attribute id="29" value="1" name="gain"/>
           <Attribute id="30" value="0" name="mixToMono"/>
          </Attributes>
         </AMFile>
         <ScreenVMFile id="31" start="0" duration="1274" scalar="1/1" mediaStart="0/1" mediaDuration="1274/1" trackNumber="0" src="4" >
          <Transformer>
           <VectorParam id="32"  name="translation">
            <InterpolatingParam id="33" interp="linr"  time="-9999999/1" value="0" leadInLength="0/1"  interpolater="leadin-linr"  />
            <InterpolatingParam id="34" interp="linr"  time="-9999999/1" value="0" leadInLength="0/1"  interpolater="leadin-linr"  />
            <InterpolatingParam id="35" interp="linr"  time="-9999999/1" value="0" leadInLength="0/1"  interpolater="leadin-linr"  />
           </VectorParam>
           <VectorParam id="36"  name="rotation">
            <InterpolatingParam id="37" interp="linr"  time="-9999999/1" value="0" leadInLength="0/1"  interpolater="leadin-linr"  />
            <InterpolatingParam id="38" interp="linr"  time="-9999999/1" value="0" leadInLength="0/1"  interpolater="leadin-linr"  />
            <InterpolatingParam id="39" interp="linr"  time="-9999999/1" value="0" leadInLength="0/1"  interpolater="leadin-linr"  />
           </VectorParam>
           <VectorParam id="40"  name="shear">
            <InterpolatingParam id="41" interp="linr"  time="-9999999/1" value="0" leadInLength="0/1"  interpolater="leadin-linr"  />
            <InterpolatingParam id="42" interp="linr"  time="-9999999/1" value="0" leadInLength="0/1"  interpolater="leadin-linr"  />
            <InterpolatingParam id="43" interp="linr"  time="-9999999/1" value="0" leadInLength="0/1"  interpolater="leadin-linr"  />
           </VectorParam>
           <VectorParam id="44"  name="scale">
            <InterpolatingParam id="45" interp="linr"  time="-9999999/1" value="0.78229166666666672" leadInLength="0/1"  interpolater="leadin-linr"  />
            <InterpolatingParam id="46" interp="linr"  time="-9999999/1" value="0.78229166666666672" leadInLength="0/1"  interpolater="leadin-linr"  />
            <InterpolatingParam id="47" interp="linr"  time="-9999999/1" value="1" leadInLength="0/1"  interpolater="leadin-linr"  />
           </VectorParam>
           <VectorParam id="48"  name="anchor">
            <InterpolatingParam id="49" interp="linr"  time="0/1" value="0" leadInLength="0/1"  />
            <InterpolatingParam id="50" interp="linr"  time="0/1" value="0" leadInLength="0/1"  />
            <InterpolatingParam id="51" interp="linr"  time="0/1" value="0" leadInLength="0/1"  />
           </VectorParam>
          </Transformer>
          <Parameters>
           <VectorParam id="52"  name="sourceCrop">
            <InterpolatingParam id="53" interp="linr"  time="0/1" value="0" leadInLength="0/1"  />
            <InterpolatingParam id="54" interp="linr"  time="0/1" value="0" leadInLength="0/1"  />
            <InterpolatingParam id="55" interp="linr"  time="0/1" value="0" leadInLength="0/1"  />
            <InterpolatingParam id="56" interp="linr"  time="0/1" value="0" leadInLength="0/1"  />
           </VectorParam>
           <VectorParam id="57"  name="geometryCrop">
            <InterpolatingParam id="58" interp="linr"  time="-9999999/1" value="0" leadInLength="0/1"  interpolater="leadin-linr"  />
            <InterpolatingParam id="59" interp="linr"  time="-9999999/1" value="0" leadInLength="0/1"  interpolater="leadin-linr"  />
            <InterpolatingParam id="60" interp="linr"  time="-9999999/1" value="0" leadInLength="0/1"  interpolater="leadin-linr"  />
            <InterpolatingParam id="61" interp="linr"  time="-9999999/1" value="0" leadInLength="0/1"  interpolater="leadin-linr"  />
           </VectorParam>
           <InterpolatingParam id="62" interp="linr"  time="-9999999/1" value="1" leadInLength="0/1"  interpolater="leadin-linr"  name="opacity"/>
           <InterpolatingParam id="63" interp="linr"  time="0/1" value="1" leadInLength="0/1"  name="cursorOpacity"/>
           <InterpolatingParam id="64" interp="linr"  time="0/1" value="1" leadInLength="0/1"  name="cursorScale"/>
          </Parameters>
          <Effects>
           <GenericEffect id="65" name = "CursorBaseEffectName" >
            <Parameters>
            <InterpolatingParam id="66" interp="linr"  time="-9999999/1" value="1" leadInLength="0/1"   name="cursorSize"/>
            <InterpolatingParam id="67" interp="linr"  time="-9999999/1" value="0" leadInLength="0/1"   name="highlightBlurRadius"/>
            <InterpolatingParam id="68" interp="linr"  time="-9999999/1" value="0" leadInLength="0/1"   name="highlightColorBlue"/>
            <InterpolatingParam id="69" interp="linr"  time="-9999999/1" value="255" leadInLength="0/1"   name="highlightColorGreen"/>
            <InterpolatingParam id="70" interp="linr"  time="-9999999/1" value="255" leadInLength="0/1"   name="highlightColorRed"/>
            <InterpolatingParam id="71" interp="linr"  time="-9999999/1" value="5" leadInLength="0/1"   name="highlightFeatherSize"/>
            <InterpolatingParam id="72" interp="linr"  time="-9999999/1" value="2" leadInLength="0/1"   name="highlightMagnification"/>
            <InterpolatingParam id="73" interp="linr"  time="-9999999/1" value="1" leadInLength="0/1"   name="highlightOpacity"/>
            <InterpolatingParam id="74" interp="linr"  time="-9999999/1" value="45" leadInLength="0/1"   name="highlightSize"/>
            <Parameter id="75"   name="highlightType">
             <Keyframes>
             <Keyframe id="76"  time="-9999999/1" value="0" leadInLength="0/1"  />
             </Keyframes>
            </Parameter>
            <InterpolatingParam id="77" interp="linr"  time="-9999999/1" value="0" leadInLength="0/1"   name="leftClickColorBlue"/>
            <InterpolatingParam id="78" interp="linr"  time="-9999999/1" value="0" leadInLength="0/1"   name="leftClickColorGreen"/>
            <InterpolatingParam id="79" interp="linr"  time="-9999999/1" value="255" leadInLength="0/1"   name="leftClickColorRed"/>
            <InterpolatingParam id="80" interp="linr"  time="-9999999/1" value="0.80000000000000004" leadInLength="0/1"   name="leftClickDuration"/>
            <InterpolatingParam id="81" interp="linr"  time="-9999999/1" value="20" leadInLength="0/1"   name="leftClickSize"/>
            <Parameter id="82"   name="leftClickSoundFilename">
             <Keyframes>
             <Keyframe id="83"  time="-9999999/1" value="" leadInLength="0/1"  />
             </Keyframes>
            </Parameter>
            <InterpolatingParam id="84" interp="linr"  time="-9999999/1" value="1" leadInLength="0/1"   name="leftClickSoundVolume"/>
            <Parameter id="85"   name="leftClickType">
             <Keyframes>
             <Keyframe id="86"  time="-9999999/1" value="0" leadInLength="0/1"  />
             </Keyframes>
            </Parameter>
            <InterpolatingParam id="87" interp="linr"  time="-9999999/1" value="1" leadInLength="0/1"   name="opacity"/>
            <InterpolatingParam id="88" interp="linr"  time="-9999999/1" value="255" leadInLength="0/1"   name="rightClickColorBlue"/>
            <InterpolatingParam id="89" interp="linr"  time="-9999999/1" value="0" leadInLength="0/1"   name="rightClickColorGreen"/>
            <InterpolatingParam id="90" interp="linr"  time="-9999999/1" value="0" leadInLength="0/1"   name="rightClickColorRed"/>
            <InterpolatingParam id="91" interp="linr"  time="-9999999/1" value="0.80000000000000004" leadInLength="0/1"   name="rightClickDuration"/>
            <InterpolatingParam id="92" interp="linr"  time="-9999999/1" value="20" leadInLength="0/1"   name="rightClickSize"/>
            <Parameter id="93"   name="rightClickSoundFilename">
             <Keyframes>
             <Keyframe id="94"  time="-9999999/1" value="" leadInLength="0/1"  />
             </Keyframes>
            </Parameter>
            <InterpolatingParam id="95" interp="linr"  time="-9999999/1" value="1" leadInLength="0/1"   name="rightClickSoundVolume"/>
            <Parameter id="96"   name="rightClickType">
             <Keyframes>
             <Keyframe id="97"  time="-9999999/1" value="0" leadInLength="0/1"  />
             </Keyframes>
            </Parameter>
            </Parameters>
            <MetaData>
             <entry key="effectIndex" val="0"/>
            </MetaData>
           </GenericEffect>
          </Effects>
          <Attributes>
           <Attribute id="98" value="" name="ident"/>
          </Attributes>
          <ExtraData>
           <Entry key="ZoomPanBin">
            <ZoomPanBin id="99"  >
             <ZoomPanKeyframes>
              <ZoomPanKeyframe id="100" timeRangeEnd="-9999999/1" timeRangeDuration="0/1" interpolaterName="leadin-linr"  />
             </ZoomPanKeyframes>
            </ZoomPanBin>
           </Entry>
           <Entry key="CursorEffectBin">
            <CursorEffectBin id="101"  >
             <CursorEffectKeyframes>
              <CursorEffectKeyframe id="102" timeRangeEnd="-9999999/1" timeRangeDuration="0/1" interpolaterName=""  />
             </CursorEffectKeyframes>
            </CursorEffectBin>
           </Entry>
          </ExtraData>
         </ScreenVMFile>
         <MetaData>
          <entry key="AutoAppliedSmartFocus" val="False"/>
          <entry key="WinSubProjectDisplayName" val=""/>
         </MetaData>
        </UnifiedMedia>
        <StitchedMedia id="103" start="7986" duration="4680" scalar="1/1" mediaStart="4095/1" mediaDuration="4680/1" minMediaStart="0/1" >
         <Transformer>
          <VectorParam id="104"  name="translation">
           <InterpolatingParam id="105" interp="linr"  time="-9999999/1" value="0" leadInLength="0/1"  />
           <InterpolatingParam id="106" interp="linr"  time="-9999999/1" value="0" leadInLength="0/1"  />
           <InterpolatingParam id="107" interp="linr"  time="-9999999/1" value="0" leadInLength="0/1"  />
          </VectorParam>
          <VectorParam id="108"  name="rotation">
           <InterpolatingParam id="109" interp="linr"  time="-9999999/1" value="0" leadInLength="0/1"  />
           <InterpolatingParam id="110" interp="linr"  time="-9999999/1" value="0" leadInLength="0/1"  />
           <InterpolatingParam id="111" interp="linr"  time="-9999999/1" value="0" leadInLength="0/1"  />
          </VectorParam>
          <VectorParam id="112"  name="shear">
           <InterpolatingParam id="113" interp="linr"  time="-9999999/1" value="0" leadInLength="0/1"  />
           <InterpolatingParam id="114" interp="linr"  time="-9999999/1" value="0" leadInLength="0/1"  />
           <InterpolatingParam id="115" interp="linr"  time="-9999999/1" value="0" leadInLength="0/1"  />
          </VectorParam>
          <VectorParam id="116"  name="scale">
           <InterpolatingParam id="117" interp="linr"  time="-9999999/1" value="0.78229166666666672" leadInLength="0/1"  />
           <InterpolatingParam id="118" interp="linr"  time="-9999999/1" value="0.78229166666666672" leadInLength="0/1"  />
           <InterpolatingParam id="119" interp="linr"  time="-9999999/1" value="1" leadInLength="0/1"  />
          </VectorParam>
          <VectorParam id="120"  name="anchor">
           <InterpolatingParam id="121" interp="linr"  time="0/1" value="0" leadInLength="0/1"  />
           <InterpolatingParam id="122" interp="linr"  time="0/1" value="0" leadInLength="0/1"  />
           <InterpolatingParam id="123" interp="linr"  time="0/1" value="0" leadInLength="0/1"  />
          </VectorParam>
         </Transformer>
         <Parameters>
          <VectorParam id="124"  name="sourceCrop">
           <InterpolatingParam id="125" interp="linr"  time="0/1" value="0" leadInLength="0/1"  />
           <InterpolatingParam id="126" interp="linr"  time="0/1" value="0" leadInLength="0/1"  />
           <InterpolatingParam id="127" interp="linr"  time="0/1" value="0" leadInLength="0/1"  />
           <InterpolatingParam id="128" interp="linr"  time="0/1" value="0" leadInLength="0/1"  />
          </VectorParam>
          <VectorParam id="129"  name="geometryCrop">
           <InterpolatingParam id="130" interp="linr"  time="-9999999/1" value="0" leadInLength="0/1"  />
           <InterpolatingParam id="131" interp="linr"  time="-9999999/1" value="0" leadInLength="0/1"  />
           <InterpolatingParam id="132" interp="linr"  time="-9999999/1" value="0" leadInLength="0/1"  />
           <InterpolatingParam id="133" interp="linr"  time="-9999999/1" value="0" leadInLength="0/1"  />
          </VectorParam>
          <InterpolatingParam id="134" interp="linr"  time="-9999999/1" value="1" leadInLength="0/1"  name="opacity"/>
          <InterpolatingParam id="135" interp="linr"  time="0/1" value="1" leadInLength="0/1"  name="cursorOpacity"/>
          <InterpolatingParam id="136" interp="linr"  time="0/1" value="1" leadInLength="0/1"  name="cursorScale"/>
          <Parameter id="137"  name="captions"/>
         </Parameters>
         <Effects>
          <GenericEffect id="138" name = "CursorBaseEffectName" >
           <Parameters>
           <InterpolatingParam id="139" interp="linr"  time="-9999999/1" value="1" leadInLength="0/1"   name="cursorSize"/>
           <InterpolatingParam id="140" interp="linr"  time="-9999999/1" value="0" leadInLength="0/1"   name="highlightBlurRadius"/>
           <InterpolatingParam id="141" interp="linr"  time="-9999999/1" value="0" leadInLength="0/1"   name="highlightColorBlue"/>
           <InterpolatingParam id="142" interp="linr"  time="-9999999/1" value="255" leadInLength="0/1"   name="highlightColorGreen"/>
           <InterpolatingParam id="143" interp="linr"  time="-9999999/1" value="255" leadInLength="0/1"   name="highlightColorRed"/>
           <InterpolatingParam id="144" interp="linr"  time="-9999999/1" value="5" leadInLength="0/1"   name="highlightFeatherSize"/>
           <InterpolatingParam id="145" interp="linr"  time="-9999999/1" value="2" leadInLength="0/1"   name="highlightMagnification"/>
           <InterpolatingParam id="146" interp="linr"  time="-9999999/1" value="1" leadInLength="0/1"   name="highlightOpacity"/>
           <InterpolatingParam id="147" interp="linr"  time="-9999999/1" value="45" leadInLength="0/1"   name="highlightSize"/>
           <Parameter id="148"   name="highlightType">
            <Keyframes>
            <Keyframe id="149"  time="-9999999/1" value="0" leadInLength="0/1"  />
            </Keyframes>
           </Parameter>
           <InterpolatingParam id="150" interp="linr"  time="-9999999/1" value="0" leadInLength="0/1"   name="leftClickColorBlue"/>
           <InterpolatingParam id="151" interp="linr"  time="-9999999/1" value="0" leadInLength="0/1"   name="leftClickColorGreen"/>
           <InterpolatingParam id="152" interp="linr"  time="-9999999/1" value="255" leadInLength="0/1"   name="leftClickColorRed"/>
           <InterpolatingParam id="153" interp="linr"  time="-9999999/1" value="0.80000000000000004" leadInLength="0/1"   name="leftClickDuration"/>
           <InterpolatingParam id="154" interp="linr"  time="-9999999/1" value="20" leadInLength="0/1"   name="leftClickSize"/>
           <Parameter id="155"   name="leftClickSoundFilename">
            <Keyframes>
            <Keyframe id="156"  time="-9999999/1" value="" leadInLength="0/1"  />
            </Keyframes>
           </Parameter>
           <InterpolatingParam id="157" interp="linr"  time="-9999999/1" value="1" leadInLength="0/1"   name="leftClickSoundVolume"/>
           <Parameter id="158"   name="leftClickType">
            <Keyframes>
            <Keyframe id="159"  time="-9999999/1" value="0" leadInLength="0/1"  />
            </Keyframes>
           </Parameter>
           <InterpolatingParam id="160" interp="linr"  time="-9999999/1" value="1" leadInLength="0/1"   name="opacity"/>
           <InterpolatingParam id="161" interp="linr"  time="-9999999/1" value="255" leadInLength="0/1"   name="rightClickColorBlue"/>
           <InterpolatingParam id="162" interp="linr"  time="-9999999/1" value="0" leadInLength="0/1"   name="rightClickColorGreen"/>
           <InterpolatingParam id="163" interp="linr"  time="-9999999/1" value="0" leadInLength="0/1"   name="rightClickColorRed"/>
           <InterpolatingParam id="164" interp="linr"  time="-9999999/1" value="0.80000000000000004" leadInLength="0/1"   name="rightClickDuration"/>
           <InterpolatingParam id="165" interp="linr"  time="-9999999/1" value="20" leadInLength="0/1"   name="rightClickSize"/>
           <Parameter id="166"   name="rightClickSoundFilename">
            <Keyframes>
            <Keyframe id="167"  time="-9999999/1" value="" leadInLength="0/1"  />
            </Keyframes>
           </Parameter>
           <InterpolatingParam id="168" interp="linr"  time="-9999999/1" value="1" leadInLength="0/1"   name="rightClickSoundVolume"/>
           <Parameter id="169"   name="rightClickType">
            <Keyframes>
            <Keyframe id="170"  time="-9999999/1" value="0" leadInLength="0/1"  />
            </Keyframes>
           </Parameter>
           </Parameters>
          </GenericEffect>
         </Effects>
         <Attributes>
          <Attribute id="171" value="" name="ident"/>
         </Attributes>
         <MetaData>
          <entry key="AutoAppliedSmartFocus" val="False"/>
          <entry key="WinSubProjectDisplayName" val=""/>
         </MetaData>
         <ExtraData>
          <Entry key="ZoomPanBin">
           <ZoomPanBin id="172"  >
            <ZoomPanKeyframes>
             <ZoomPanKeyframe id="173" timeRangeEnd="-9999999/1" timeRangeDuration="0/1" interpolaterName=""  />
            </ZoomPanKeyframes>
           </ZoomPanBin>
          </Entry>
          <Entry key="CursorEffectBin">
           <CursorEffectBin id="174"  >
            <CursorEffectKeyframes>
             <CursorEffectKeyframe id="175" timeRangeEnd="-9999999/1" timeRangeDuration="0/1" interpolaterName=""  />
            </CursorEffectKeyframes>
           </CursorEffectBin>
          </Entry>
         </ExtraData>
         <GenericTrack id="176"  >
          <Attributes>
           <Attribute id="177" value="" name="ident"/>
           <Attribute id="178" value="0" name="audioMuted"/>
           <Attribute id="179" value="0" name="videoHidden"/>
          </Attributes>
          <MetaData>
           <entry key="IsLocked" val="False"/>
           <entry key="WinTrackHeight" val="0"/>
          </MetaData>
          <Medias>
           <ScreenVMFile id="180" start="0" duration="18" scalar="1/1" mediaStart="0/1" mediaDuration="18/1" trackNumber="0" src="5" >
            <Transformer>
             <VectorParam id="181"  name="translation">
              <InterpolatingParam id="182" interp="linr"  time="-9999999/1" value="0" leadInLength="0/1"  />
              <InterpolatingParam id="183" interp="linr"  time="-9999999/1" value="0" leadInLength="0/1"  />
              <InterpolatingParam id="184" interp="linr"  time="-9999999/1" value="0" leadInLength="0/1"  />
             </VectorParam>
             <VectorParam id="185"  name="rotation">
              <InterpolatingParam id="186" interp="linr"  time="-9999999/1" value="0" leadInLength="0/1"  />
              <InterpolatingParam id="187" interp="linr"  time="-9999999/1" value="0" leadInLength="0/1"  />
              <InterpolatingParam id="188" interp="linr"  time="-9999999/1" value="0" leadInLength="0/1"  />
             </VectorParam>
             <VectorParam id="189"  name="shear">
              <InterpolatingParam id="190" interp="linr"  time="-9999999/1" value="0" leadInLength="0/1"  />
              <InterpolatingParam id="191" interp="linr"  time="-9999999/1" value="0" leadInLength="0/1"  />
              <InterpolatingParam id="192" interp="linr"  time="-9999999/1" value="0" leadInLength="0/1"  />
             </VectorParam>
             <VectorParam id="193"  name="scale">
              <InterpolatingParam id="194" interp="linr"  time="-9999999/1" value="1" leadInLength="0/1"  />
              <InterpolatingParam id="195" interp="linr"  time="-9999999/1" value="1" leadInLength="0/1"  />
              <InterpolatingParam id="196" interp="linr"  time="-9999999/1" value="1" leadInLength="0/1"  />
             </VectorParam>
             <VectorParam id="197"  name="anchor">
              <InterpolatingParam id="198" interp="linr"  time="0/1" value="0" leadInLength="0/1"  />
              <InterpolatingParam id="199" interp="linr"  time="0/1" value="0" leadInLength="0/1"  />
              <InterpolatingParam id="200" interp="linr"  time="0/1" value="0" leadInLength="0/1"  />
             </VectorParam>
            </Transformer>
            <Parameters>
             <VectorParam id="201"  name="sourceCrop">
              <InterpolatingParam id="202" interp="linr"  time="0/1" value="0" leadInLength="0/1"  />
              <InterpolatingParam id="203" interp="linr"  time="0/1" value="0" leadInLength="0/1"  />
              <InterpolatingParam id="204" interp="linr"  time="0/1" value="0" leadInLength="0/1"  />
              <InterpolatingParam id="205" interp="linr"  time="0/1" value="0" leadInLength="0/1"  />
             </VectorParam>
             <VectorParam id="206"  name="geometryCrop">
              <InterpolatingParam id="207" interp="linr"  time="-9999999/1" value="0" leadInLength="0/1"  />
              <InterpolatingParam id="208" interp="linr"  time="-9999999/1" value="0" leadInLength="0/1"  />
              <InterpolatingParam id="209" interp="linr"  time="-9999999/1" value="0" leadInLength="0/1"  />
              <InterpolatingParam id="210" interp="linr"  time="-9999999/1" value="0" leadInLength="0/1"  />
             </VectorParam>
             <InterpolatingParam id="211" interp="linr"  time="-9999999/1" value="1" leadInLength="0/1"  name="opacity"/>
             <InterpolatingParam id="212" interp="linr"  time="0/1" value="0" leadInLength="0/1"  name="cursorOpacity"/>
             <InterpolatingParam id="213" interp="linr"  time="0/1" value="0" leadInLength="0/1"  name="cursorScale"/>
            </Parameters>
            <Attributes>
             <Attribute id="214" value="" name="ident"/>
            </Attributes>
            <MetaData>
             <entry key="AutoAppliedSmartFocus" val="False"/>
             <entry key="WinSubProjectDisplayName" val=""/>
            </MetaData>
            <ExtraData>
             <Entry key="ZoomPanBin">
              <ZoomPanBin id="215"  >
               <ZoomPanKeyframes>
                <ZoomPanKeyframe id="216" timeRangeEnd="-9999999/1" timeRangeDuration="0/1" interpolaterName=""  />
               </ZoomPanKeyframes>
              </ZoomPanBin>
             </Entry>
             <Entry key="CursorEffectBin">
              <CursorEffectBin id="217"  >
               <CursorEffectKeyframes>
               </CursorEffectKeyframes>
              </CursorEffectBin>
             </Entry>
            </ExtraData>
           </ScreenVMFile>
           <ScreenVMFile id="218" start="18" duration="6135" scalar="1/1" mediaStart="4058/1" mediaDuration="6135/1" trackNumber="0" src="5" >
            <Transformer>
             <VectorParam id="219"  name="translation">
              <InterpolatingParam id="220" interp="linr"  time="-9999999/1" value="0" leadInLength="0/1"  />
              <InterpolatingParam id="221" interp="linr"  time="-9999999/1" value="0" leadInLength="0/1"  />
              <InterpolatingParam id="222" interp="linr"  time="-9999999/1" value="0" leadInLength="0/1"  />
             </VectorParam>
             <VectorParam id="223"  name="rotation">
              <InterpolatingParam id="224" interp="linr"  time="-9999999/1" value="0" leadInLength="0/1"  />
              <InterpolatingParam id="225" interp="linr"  time="-9999999/1" value="0" leadInLength="0/1"  />
              <InterpolatingParam id="226" interp="linr"  time="-9999999/1" value="0" leadInLength="0/1"  />
             </VectorParam>
             <VectorParam id="227"  name="shear">
              <InterpolatingParam id="228" interp="linr"  time="-9999999/1" value="0" leadInLength="0/1"  />
              <InterpolatingParam id="229" interp="linr"  time="-9999999/1" value="0" leadInLength="0/1"  />
              <InterpolatingParam id="230" interp="linr"  time="-9999999/1" value="0" leadInLength="0/1"  />
             </VectorParam>
             <VectorParam id="231"  name="scale">
              <InterpolatingParam id="232" interp="linr"  time="-9999999/1" value="1" leadInLength="0/1"  />
              <InterpolatingParam id="233" interp="linr"  time="-9999999/1" value="1" leadInLength="0/1"  />
              <InterpolatingParam id="234" interp="linr"  time="-9999999/1" value="1" leadInLength="0/1"  />
             </VectorParam>
             <VectorParam id="235"  name="anchor">
              <InterpolatingParam id="236" interp="linr"  time="0/1" value="0" leadInLength="0/1"  />
              <InterpolatingParam id="237" interp="linr"  time="0/1" value="0" leadInLength="0/1"  />
              <InterpolatingParam id="238" interp="linr"  time="0/1" value="0" leadInLength="0/1"  />
             </VectorParam>
            </Transformer>
            <Parameters>
             <VectorParam id="239"  name="sourceCrop">
              <InterpolatingParam id="240" interp="linr"  time="0/1" value="0" leadInLength="0/1"  />
              <InterpolatingParam id="241" interp="linr"  time="0/1" value="0" leadInLength="0/1"  />
              <InterpolatingParam id="242" interp="linr"  time="0/1" value="0" leadInLength="0/1"  />
              <InterpolatingParam id="243" interp="linr"  time="0/1" value="0" leadInLength="0/1"  />
             </VectorParam>
             <VectorParam id="244"  name="geometryCrop">
              <InterpolatingParam id="245" interp="linr"  time="-9999999/1" value="0" leadInLength="0/1"  />
              <InterpolatingParam id="246" interp="linr"  time="-9999999/1" value="0" leadInLength="0/1"  />
              <InterpolatingParam id="247" interp="linr"  time="-9999999/1" value="0" leadInLength="0/1"  />
              <InterpolatingParam id="248" interp="linr"  time="-9999999/1" value="0" leadInLength="0/1"  />
             </VectorParam>
             <InterpolatingParam id="249" interp="linr"  time="-9999999/1" value="1" leadInLength="0/1"  name="opacity"/>
             <InterpolatingParam id="250" interp="linr"  time="0/1" value="0" leadInLength="0/1"  name="cursorOpacity"/>
             <InterpolatingParam id="251" interp="linr"  time="0/1" value="0" leadInLength="0/1"  name="cursorScale"/>
            </Parameters>
            <Attributes>
             <Attribute id="252" value="" name="ident"/>
            </Attributes>
            <MetaData>
             <entry key="AutoAppliedSmartFocus" val="False"/>
             <entry key="WinSubProjectDisplayName" val=""/>
            </MetaData>
            <ExtraData>
             <Entry key="ZoomPanBin">
              <ZoomPanBin id="253"  >
               <ZoomPanKeyframes>
                <ZoomPanKeyframe id="254" timeRangeEnd="-9999999/1" timeRangeDuration="0/1" interpolaterName=""  />
               </ZoomPanKeyframes>
              </ZoomPanBin>
             </Entry>
             <Entry key="CursorEffectBin">
              <CursorEffectBin id="255"  >
               <CursorEffectKeyframes>
               </CursorEffectKeyframes>
              </CursorEffectBin>
             </Entry>
            </ExtraData>
           </ScreenVMFile>
           <ScreenVMFile id="256" start="6153" duration="966" scalar="1/1" mediaStart="10296/1" mediaDuration="966/1" trackNumber="0" src="5" >
            <Transformer>
             <VectorParam id="257"  name="translation">
              <InterpolatingParam id="258" interp="linr"  time="-9999999/1" value="0" leadInLength="0/1"  />
              <InterpolatingParam id="259" interp="linr"  time="-9999999/1" value="0" leadInLength="0/1"  />
              <InterpolatingParam id="260" interp="linr"  time="-9999999/1" value="0" leadInLength="0/1"  />
             </VectorParam>
             <VectorParam id="261"  name="rotation">
              <InterpolatingParam id="262" interp="linr"  time="-9999999/1" value="0" leadInLength="0/1"  />
              <InterpolatingParam id="263" interp="linr"  time="-9999999/1" value="0" leadInLength="0/1"  />
              <InterpolatingParam id="264" interp="linr"  time="-9999999/1" value="0" leadInLength="0/1"  />
             </VectorParam>
             <VectorParam id="265"  name="shear">
              <InterpolatingParam id="266" interp="linr"  time="-9999999/1" value="0" leadInLength="0/1"  />
              <InterpolatingParam id="267" interp="linr"  time="-9999999/1" value="0" leadInLength="0/1"  />
              <InterpolatingParam id="268" interp="linr"  time="-9999999/1" value="0" leadInLength="0/1"  />
             </VectorParam>
             <VectorParam id="269"  name="scale">
              <InterpolatingParam id="270" interp="linr"  time="-9999999/1" value="1" leadInLength="0/1"  />
              <InterpolatingParam id="271" interp="linr"  time="-9999999/1" value="1" leadInLength="0/1"  />
              <InterpolatingParam id="272" interp="linr"  time="-9999999/1" value="1" leadInLength="0/1"  />
             </VectorParam>
             <VectorParam id="273"  name="anchor">
              <InterpolatingParam id="274" interp="linr"  time="0/1" value="0" leadInLength="0/1"  />
              <InterpolatingParam id="275" interp="linr"  time="0/1" value="0" leadInLength="0/1"  />
              <InterpolatingParam id="276" interp="linr"  time="0/1" value="0" leadInLength="0/1"  />
             </VectorParam>
            </Transformer>
            <Parameters>
             <VectorParam id="277"  name="sourceCrop">
              <InterpolatingParam id="278" interp="linr"  time="0/1" value="0" leadInLength="0/1"  />
              <InterpolatingParam id="279" interp="linr"  time="0/1" value="0" leadInLength="0/1"  />
              <InterpolatingParam id="280" interp="linr"  time="0/1" value="0" leadInLength="0/1"  />
              <InterpolatingParam id="281" interp="linr"  time="0/1" value="0" leadInLength="0/1"  />
             </VectorParam>
             <VectorParam id="282"  name="geometryCrop">
              <InterpolatingParam id="283" interp="linr"  time="-9999999/1" value="0" leadInLength="0/1"  />
              <InterpolatingParam id="284" interp="linr"  time="-9999999/1" value="0" leadInLength="0/1"  />
              <InterpolatingParam id="285" interp="linr"  time="-9999999/1" value="0" leadInLength="0/1"  />
              <InterpolatingParam id="286" interp="linr"  time="-9999999/1" value="0" leadInLength="0/1"  />
             </VectorParam>
             <InterpolatingParam id="287" interp="linr"  time="-9999999/1" value="1" leadInLength="0/1"  name="opacity"/>
             <InterpolatingParam id="288" interp="linr"  time="0/1" value="0" leadInLength="0/1"  name="cursorOpacity"/>
             <InterpolatingParam id="289" interp="linr"  time="0/1" value="0" leadInLength="0/1"  name="cursorScale"/>
            </Parameters>
            <Attributes>
             <Attribute id="290" value="" name="ident"/>
            </Attributes>
            <MetaData>
             <entry key="AutoAppliedSmartFocus" val="False"/>
             <entry key="WinSubProjectDisplayName" val=""/>
            </MetaData>
            <ExtraData>
             <Entry key="ZoomPanBin">
              <ZoomPanBin id="291"  >
               <ZoomPanKeyframes>
                <ZoomPanKeyframe id="292" timeRangeEnd="-9999999/1" timeRangeDuration="0/1" interpolaterName=""  />
               </ZoomPanKeyframes>
              </ZoomPanBin>
             </Entry>
             <Entry key="CursorEffectBin">
              <CursorEffectBin id="293"  >
               <CursorEffectKeyframes>
               </CursorEffectKeyframes>
              </CursorEffectBin>
             </Entry>
            </ExtraData>
           </ScreenVMFile>
           <ScreenVMFile id="294" start="7119" duration="1631" scalar="1/1" mediaStart="11534/1" mediaDuration="1631/1" trackNumber="0" src="5" >
            <Transformer>
             <VectorParam id="295"  name="translation">
              <InterpolatingParam id="296" interp="linr"  time="-9999999/1" value="0" leadInLength="0/1"  />
              <InterpolatingParam id="297" interp="linr"  time="-9999999/1" value="0" leadInLength="0/1"  />
              <InterpolatingParam id="298" interp="linr"  time="-9999999/1" value="0" leadInLength="0/1"  />
             </VectorParam>
             <VectorParam id="299"  name="rotation">
              <InterpolatingParam id="300" interp="linr"  time="-9999999/1" value="0" leadInLength="0/1"  />
              <InterpolatingParam id="301" interp="linr"  time="-9999999/1" value="0" leadInLength="0/1"  />
              <InterpolatingParam id="302" interp="linr"  time="-9999999/1" value="0" leadInLength="0/1"  />
             </VectorParam>
             <VectorParam id="303"  name="shear">
              <InterpolatingParam id="304" interp="linr"  time="-9999999/1" value="0" leadInLength="0/1"  />
              <InterpolatingParam id="305" interp="linr"  time="-9999999/1" value="0" leadInLength="0/1"  />
              <InterpolatingParam id="306" interp="linr"  time="-9999999/1" value="0" leadInLength="0/1"  />
             </VectorParam>
             <VectorParam id="307"  name="scale">
              <InterpolatingParam id="308" interp="linr"  time="-9999999/1" value="1" leadInLength="0/1"  />
              <InterpolatingParam id="309" interp="linr"  time="-9999999/1" value="1" leadInLength="0/1"  />
              <InterpolatingParam id="310" interp="linr"  time="-9999999/1" value="1" leadInLength="0/1"  />
             </VectorParam>
             <VectorParam id="311"  name="anchor">
              <InterpolatingParam id="312" interp="linr"  time="0/1" value="0" leadInLength="0/1"  />
              <InterpolatingParam id="313" interp="linr"  time="0/1" value="0" leadInLength="0/1"  />
              <InterpolatingParam id="314" interp="linr"  time="0/1" value="0" leadInLength="0/1"  />
             </VectorParam>
            </Transformer>
            <Parameters>
             <VectorParam id="315"  name="sourceCrop">
              <InterpolatingParam id="316" interp="linr"  time="0/1" value="0" leadInLength="0/1"  />
              <InterpolatingParam id="317" interp="linr"  time="0/1" value="0" leadInLength="0/1"  />
              <InterpolatingParam id="318" interp="linr"  time="0/1" value="0" leadInLength="0/1"  />
              <InterpolatingParam id="319" interp="linr"  time="0/1" value="0" leadInLength="0/1"  />
             </VectorParam>
             <VectorParam id="320"  name="geometryCrop">
              <InterpolatingParam id="321" interp="linr"  time="-9999999/1" value="0" leadInLength="0/1"  />
              <InterpolatingParam id="322" interp="linr"  time="-9999999/1" value="0" leadInLength="0/1"  />
              <InterpolatingParam id="323" interp="linr"  time="-9999999/1" value="0" leadInLength="0/1"  />
              <InterpolatingParam id="324" interp="linr"  time="-9999999/1" value="0" leadInLength="0/1"  />
             </VectorParam>
             <InterpolatingParam id="325" interp="linr"  time="-9999999/1" value="1" leadInLength="0/1"  name="opacity"/>
             <InterpolatingParam id="326" interp="linr"  time="0/1" value="0" leadInLength="0/1"  name="cursorOpacity"/>
             <InterpolatingParam id="327" interp="linr"  time="0/1" value="0" leadInLength="0/1"  name="cursorScale"/>
            </Parameters>
            <Attributes>
             <Attribute id="328" value="" name="ident"/>
            </Attributes>
            <MetaData>
             <entry key="AutoAppliedSmartFocus" val="False"/>
             <entry key="WinSubProjectDisplayName" val=""/>
            </MetaData>
            <ExtraData>
             <Entry key="ZoomPanBin">
              <ZoomPanBin id="329"  >
               <ZoomPanKeyframes>
                <ZoomPanKeyframe id="330" timeRangeEnd="-9999999/1" timeRangeDuration="0/1" interpolaterName=""  />
               </ZoomPanKeyframes>
              </ZoomPanBin>
             </Entry>
             <Entry key="CursorEffectBin">
              <CursorEffectBin id="331"  >
               <CursorEffectKeyframes>
               </CursorEffectKeyframes>
              </CursorEffectBin>
             </Entry>
            </ExtraData>
           </ScreenVMFile>
           <ScreenVMFile id="332" start="8750" duration="80" scalar="1/1" mediaStart="13268/1" mediaDuration="80/1" trackNumber="0" src="5" >
            <Transformer>
             <VectorParam id="333"  name="translation">
              <InterpolatingParam id="334" interp="linr"  time="-9999999/1" value="0" leadInLength="0/1"  />
              <InterpolatingParam id="335" interp="linr"  time="-9999999/1" value="0" leadInLength="0/1"  />
              <InterpolatingParam id="336" interp="linr"  time="-9999999/1" value="0" leadInLength="0/1"  />
             </VectorParam>
             <VectorParam id="337"  name="rotation">
              <InterpolatingParam id="338" interp="linr"  time="-9999999/1" value="0" leadInLength="0/1"  />
              <InterpolatingParam id="339" interp="linr"  time="-9999999/1" value="0" leadInLength="0/1"  />
              <InterpolatingParam id="340" interp="linr"  time="-9999999/1" value="0" leadInLength="0/1"  />
             </VectorParam>
             <VectorParam id="341"  name="shear">
              <InterpolatingParam id="342" interp="linr"  time="-9999999/1" value="0" leadInLength="0/1"  />
              <InterpolatingParam id="343" interp="linr"  time="-9999999/1" value="0" leadInLength="0/1"  />
              <InterpolatingParam id="344" interp="linr"  time="-9999999/1" value="0" leadInLength="0/1"  />
             </VectorParam>
             <VectorParam id="345"  name="scale">
              <InterpolatingParam id="346" interp="linr"  time="-9999999/1" value="1" leadInLength="0/1"  />
              <InterpolatingParam id="347" interp="linr"  time="-9999999/1" value="1" leadInLength="0/1"  />
              <InterpolatingParam id="348" interp="linr"  time="-9999999/1" value="1" leadInLength="0/1"  />
             </VectorParam>
             <VectorParam id="349"  name="anchor">
              <InterpolatingParam id="350" interp="linr"  time="0/1" value="0" leadInLength="0/1"  />
              <InterpolatingParam id="351" interp="linr"  time="0/1" value="0" leadInLength="0/1"  />
              <InterpolatingParam id="352" interp="linr"  time="0/1" value="0" leadInLength="0/1"  />
             </VectorParam>
            </Transformer>
            <Parameters>
             <VectorParam id="353"  name="sourceCrop">
              <InterpolatingParam id="354" interp="linr"  time="0/1" value="0" leadInLength="0/1"  />
              <InterpolatingParam id="355" interp="linr"  time="0/1" value="0" leadInLength="0/1"  />
              <InterpolatingParam id="356" interp="linr"  time="0/1" value="0" leadInLength="0/1"  />
              <InterpolatingParam id="357" interp="linr"  time="0/1" value="0" leadInLength="0/1"  />
             </VectorParam>
             <VectorParam id="358"  name="geometryCrop">
              <InterpolatingParam id="359" interp="linr"  time="-9999999/1" value="0" leadInLength="0/1"  />
              <InterpolatingParam id="360" interp="linr"  time="-9999999/1" value="0" leadInLength="0/1"  />
              <InterpolatingParam id="361" interp="linr"  time="-9999999/1" value="0" leadInLength="0/1"  />
              <InterpolatingParam id="362" interp="linr"  time="-9999999/1" value="0" leadInLength="0/1"  />
             </VectorParam>
             <InterpolatingParam id="363" interp="linr"  time="-9999999/1" value="1" leadInLength="0/1"  name="opacity"/>
             <InterpolatingParam id="364" interp="linr"  time="0/1" value="0" leadInLength="0/1"  name="cursorOpacity"/>
             <InterpolatingParam id="365" interp="linr"  time="0/1" value="0" leadInLength="0/1"  name="cursorScale"/>
            </Parameters>
            <Attributes>
             <Attribute id="366" value="" name="ident"/>
            </Attributes>
            <MetaData>
             <entry key="AutoAppliedSmartFocus" val="False"/>
             <entry key="WinSubProjectDisplayName" val=""/>
            </MetaData>
            <ExtraData>
             <Entry key="ZoomPanBin">
              <ZoomPanBin id="367"  >
               <ZoomPanKeyframes>
                <ZoomPanKeyframe id="368" timeRangeEnd="-9999999/1" timeRangeDuration="0/1" interpolaterName=""  />
               </ZoomPanKeyframes>
              </ZoomPanBin>
             </Entry>
             <Entry key="CursorEffectBin">
              <CursorEffectBin id="369"  >
               <CursorEffectKeyframes>
               </CursorEffectKeyframes>
              </CursorEffectBin>
             </Entry>
            </ExtraData>
           </ScreenVMFile>
          </Medias>
         </GenericTrack>
        </StitchedMedia>
       </Medias>
      </GenericTrack>
      <GenericTrack id="370"  >
       <Attributes>
        <Attribute id="371" value="" name="ident"/>
        <Attribute id="372" value="0" name="audioMuted"/>
        <Attribute id="373" value="0" name="videoHidden"/>
       </Attributes>
       <MetaData>
        <entry key="IsLocked" val="False"/>
        <entry key="WinTrackHeight" val="62"/>
       </MetaData>
       <Medias>
        <StitchedMedia id="374" start="1274" duration="11392" scalar="1/1" mediaStart="0/1" mediaDuration="11392/1" minMediaStart="0/1" >
         <Transformer>
          <VectorParam id="375"  name="translation">
           <InterpolatingParam id="376" interp="linr"  time="-9999999/1" value="-45.130721157486391" leadInLength="0/1"  />
           <InterpolatingParam id="377" interp="linr"  time="-9999999/1" value="7.9179329759426764e-011" leadInLength="0/1"  />
           <InterpolatingParam id="378" interp="linr"  time="-9999999/1" value="0" leadInLength="0/1"  />
          </VectorParam>
          <VectorParam id="379"  name="rotation">
           <InterpolatingParam id="380" interp="linr"  time="-9999999/1" value="0" leadInLength="0/1"  />
           <InterpolatingParam id="381" interp="linr"  time="-9999999/1" value="0" leadInLength="0/1"  />
           <InterpolatingParam id="382" interp="linr"  time="-9999999/1" value="0" leadInLength="0/1"  />
          </VectorParam>
          <VectorParam id="383"  name="shear">
           <InterpolatingParam id="384" interp="linr"  time="-9999999/1" value="0" leadInLength="0/1"  />
           <InterpolatingParam id="385" interp="linr"  time="-9999999/1" value="0" leadInLength="0/1"  />
           <InterpolatingParam id="386" interp="linr"  time="-9999999/1" value="0" leadInLength="0/1"  />
          </VectorParam>
          <VectorParam id="387"  name="scale">
           <InterpolatingParam id="388" interp="linr"  time="-9999999/1" value="1.4387748079244753" leadInLength="0/1"  />
           <InterpolatingParam id="389" interp="linr"  time="-9999999/1" value="1.4387748079244738" leadInLength="0/1"  />
           <InterpolatingParam id="390" interp="linr"  time="-9999999/1" value="1" leadInLength="0/1"  />
          </VectorParam>
          <VectorParam id="391"  name="anchor">
           <InterpolatingParam id="392" interp="linr"  time="0/1" value="0" leadInLength="0/1"  />
           <InterpolatingParam id="393" interp="linr"  time="0/1" value="0" leadInLength="0/1"  />
           <InterpolatingParam id="394" interp="linr"  time="0/1" value="0" leadInLength="0/1"  />
          </VectorParam>
         </Transformer>
         <Parameters>
          <VectorParam id="395"  name="sourceCrop">
           <InterpolatingParam id="396" interp="linr"  time="0/1" value="0" leadInLength="0/1"  />
           <InterpolatingParam id="397" interp="linr"  time="0/1" value="0" leadInLength="0/1"  />
           <InterpolatingParam id="398" interp="linr"  time="0/1" value="0" leadInLength="0/1"  />
           <InterpolatingParam id="399" interp="linr"  time="0/1" value="0" leadInLength="0/1"  />
          </VectorParam>
          <VectorParam id="400"  name="geometryCrop">
           <InterpolatingParam id="401" interp="linr"  time="-9999999/1" value="44.13736246004845" leadInLength="0/1"  />
           <InterpolatingParam id="402" interp="linr"  time="-9999999/1" value="0" leadInLength="0/1"  />
           <InterpolatingParam id="403" interp="linr"  time="-9999999/1" value="0" leadInLength="0/1"  />
           <InterpolatingParam id="404" interp="linr"  time="-9999999/1" value="0" leadInLength="0/1"  />
          </VectorParam>
          <InterpolatingParam id="405" interp="linr"  time="-9999999/1" value="1" leadInLength="0/1"  name="opacity"/>
          <InterpolatingParam id="406" interp="linr"  time="0/1" value="1" leadInLength="0/1"  name="cursorOpacity"/>
          <InterpolatingParam id="407" interp="linr"  time="0/1" value="1" leadInLength="0/1"  name="cursorScale"/>
          <InterpolatingParam id="408" interp="linr"  time="0/1" value="1" leadInLength="0/1"  name="volume"/>
          <Parameter id="409"  name="captions"/>
         </Parameters>
         <Effects>
          <GenericEffect id="410" name = "NoiseReduction" >
           <Parameters>
           <InterpolatingParam id="411" interp="linr"  time="0/1" value="27.599999999999998" leadInLength="0/1"   name="denoiserAmount"/>
           <InterpolatingParam id="412" interp="linr"  time="0/1" value="2.2799999999999994" leadInLength="0/1"   name="denoiserThreshold"/>
           <Parameter id="413"   name="noiseProfile">
            <Keyframes>
            <Keyframe id="414"  time="0/1" value="FBAAAAIAAABErAAAAQIAAPD7XMJBFUfCNYY8wk47ScKzG07CPc1HwtLCTsJg8FTC7JZUwr2nVsJ9&#xD;&#xa;pFrCEFNewk7zYsKBs2fCu7FrwnwTc8KLT3TCenJzwsoKeMI9NXfCJl1xwlLybsJ3AHHCbepywkge&#xD;&#xa;csL18nHCfGV6wsnnfsJkqIDCj+t/wibIgMI/FYTCoW6EwuWGhsJQeIfC8W6FwoDIhcIYSYXCAFWG&#xD;&#xa;wvHniMKZsIvCggeMwjqPisJO14zC6BiPwv6WkMLEpo/CITWRwrQyksIYdZTCPDmVwmezlcIJNZbC&#xD;&#xa;k2WVwkbFlMKLVpXCnKyYwkbNmsKPzZvCYcKcwicOncIXxZzCp52awkj/mMKekZjCGt6bwhPTm8I3&#xD;&#xa;iJ7CvVOewqzXmMJFEZXCMcWXwgHZnsL3PqDCjA6iwmqKoML4cJrCzOGSwmPgkMLdS5bCVFGjwsL0&#xD;&#xa;psI3zKTCrHyiwj5PosIUYaDC9JifwpjHocK88abCZV+rwjnprMKFEqrCF4qiwqryoMJMG6XCxOel&#xD;&#xa;wsBqqMKf26nCcBeqwlZGqsJ8FanCgFGqwoxXqsIdjavCU52uwuAhrsJFaa3CC02uwiNbrsKDWa3C&#xD;&#xa;qyyuwlwxscIy0q/CcnawwmrKscIKrqzCah2nwnR1rMLSAbPCF+W1wsi/ssKuQrDCi2Cywq0ts8Ki&#xD;&#xa;T7DCfm6wwvjzsMLOpLHCP2+xwqXPsMI2e7LCQK6zwuL6s8I3+rPCiS21wq+cs8I3ArTCC/azwh4L&#xD;&#xa;s8LAv6zCrVyvwvB8tcJqwrTCjMGxwvLrssI2WLTC0sqywoDFssIVc7LC8h6ywu7cs8IANLLCifGw&#xD;&#xa;wqkVscKCxbDC2ICwwvltscJwJbHCWqyywiL6sMKIArHCksGvwkYDr8Lqv67CaEiwwk/Js8KZC7PC&#xD;&#xa;qFuxwojXscKNLrLCMtCywgH0tMKksLTCKeiywt42s8KKorXCPlK1wjCGtMLEnrTCVhazwm9YtMJU&#xD;&#xa;m7PC/+C1wrK7tMLasbLCRgOvwqIqrsKU9a/C/AGxwp5MssJuRLLCeeCywoI4s8K2nLPCVAGzwv7r&#xD;&#xa;sMIJ+LDCN1GxwsiossLsS7XCK1q4wmTCucK6ibrCx8G5wsriucKobrjCUBO3wgjytsJQFbnCqp+3&#xD;&#xa;woJju8ImHrrCRga3wuXjs8LgPLXCngC3wnYmtcJPB7fCLdW4wlj1ucLbb7fC7im4wiFKt8J6E7bC&#xD;&#xa;zAm5wjyBucLozrjC1a62wsW9tsLim7jCNEq5wvnvt8K02LLCkAi3wmTZucIeQLrCdpm8wng2vsKi&#xD;&#xa;XL3CJh+7wkjuusK0x7vCrqS8wsaOucIGVbjC36C8wtJcvMJF0rzCbQi8wtt6vMIk2bvCnPe8wlqB&#xD;&#xa;vsLuY73CkPS4wsozssKL4bPCyzG7wr6HucI87brCs0q8wtJqvMLEnb3CrnW9wpZovMJ27rzCCv+9&#xD;&#xa;wnrbvMJD5rzCMlW+wlo4vsL5Cr7CDxG/wqljv8IKCL/CDiS+wv4XvMJAmrrCvfmzwl4Ns8JyYrnC&#xD;&#xa;4hG7wgmFvMI+ErzCeJm7woS1usLYwrnCqrC5wmKNu8Lenb3CEZK7wnfKu8KuibrC/HW5wojZusIO&#xD;&#xa;ALvCy1m8wmx8u8KQD7zC0566wk6vucLeRLfCBRK1wpQJvcJqocDCRN++wjj8vsI/67zC4hi+wswh&#xD;&#xa;v8JUf7/Cky29wsfEu8I3nLvCwQu9wrGlu8K2f7vC9O++wmJwwMIMPMDCxJe9wu5OvsKKFr/CKFG9&#xD;&#xa;wkgou8KVbLjCSmi7wpRAvMKhULvCNDS7wvr9usJob77Cnmq+wp3xvcILeb7C2Li9wks3vsKu57zC&#xD;&#xa;OE+9wnhhwMJyNMDCaou/wjb7v8JIRr/CeNC9wrzgvsKu8r7Cxi+9wgzRu8IHbrzC6tm9wo6au8Kv&#xD;&#xa;rLzCdyLDwsT2xcI+qMPC9i7DwgeZw8KT7MPCh/LDwrhaw8JWccHC7wq7woE8t8IqPb7CGjjCwp5Z&#xD;&#xa;wsJ6t8HCw/jEwrCDzsL2yNrCRtvcwlh43cJ1a9vCdGbcwuP63sJEFt3CYXfZwnAf3cLhbOHCIife&#xD;&#xa;whFy2cJ+ptrCoufVwpbM08L3K9TCOVbVwg5I2cJMxNjCS9TcwuqE3cJe1trCLgLbwgmr3MKC79rC&#xD;&#xa;QqjZwr7a2sLma97CuHDcwnE72sJqq9jCqCzawjN82MLwZtrCtl/ewkos38LyzODCvB3kwtIo38J8&#xD;&#xa;e9vCHh/ZwnhX1MJyO9XCdubYwjSh2MKPpdTChkvRwnYP0sJ6RtHCFh3Uwuju0cJmSdHC9rXUwmJV&#xD;&#xa;1MLOo9TCjhrUwgId1cK6f9fCiKvWwrqd1sKDK9PC2irPwhYmzMIYi8zC+XzPwhRLz8LqYc7CvBbN&#xD;&#xa;wuIWy8JlhMvCkkPIwqOyw8IISsfCeNnOwspqzsKS6MzCWW3QwuIK08JruNfCvTrlwu748MKkHvPC&#xD;&#xa;siT1wrWs9cLCIvbCTcL1wiJ89sKSHPfCHVf1wker9cLEX/fC8n72wmed88KM7fLCnjj0wgI/98Kk&#xD;&#xa;CvnCECf5wgh0+cJACfnCdP74whAb98Jil/bCKjL4wtZB+MLk1PbCmAr3wvw2+cLuK/jCqNn4wjrb&#xD;&#xa;+sLq0vnC8Jv2wvKH9sKoVvbCLLf2wmBr+MI8yPnCgKL3wmyQ9sLh6vfChNn2wu8T+MIM7/jC3qL3&#xD;&#xa;wsJl+MIJf/fCijL1wkIx9sJUB/fCTCL4wsHe98KmrffC9l/4wlAU+cIm7vrCyp74wvYD9sLtXfjC&#xD;&#xa;lh35wgxn+MK0tfjCpQoDw/j7XMJKFUfCeIY8woA7ScKMG07C/cxHworCTsIC8FTC9pZUwtOnVsLq&#xD;&#xa;o1rC61JewnLzYsLQsmfCk7FrwhUTc8J7T3TC1HFzwpAJeMJ7NXfCNV5xwi7ybsJA/3DCV+lywp0e&#xD;&#xa;csLx8nHCwGV6wlHofsIqqIDCmOx/wkDJgMIcF4TCLnCEwiqHhsKBd4fCK26FworIhcKLSIXCEFSG&#xD;&#xa;wlfoiMIfsIvCTQiMwrSPisKg14zCUxiPwlmVkMJlp4/COjWRwos1ksLfd5TC+TyVwpy2lcLkNZbC&#xD;&#xa;zWaVwjrIlMJnV5XCq6yYwp7SmsJI0JvCGcCcwhURncImy5zChKSawqYAmcIFlpjCOOCbwoLTm8JV&#xD;&#xa;h57CBViewmXWmMIrEZXCm8SXwvzWnsIjOaDCzBGiwomPoMIsc5rCH+GSwuHgkMJFSpbCZUijwkbb&#xD;&#xa;psL0zaTCPIuiwjJfosK/Z6DC/6CfwszWocLo+6bCdlurwoznrMIWDarC9YqiwnDzoMIsGaXCe++l&#xD;&#xa;wshuqMIn6qnCfVmqwqaMqsLeOqnC7oqqwkK1qsLnt6vCEJyuwkharsKwva3CKHauwl2qrsK3o63C&#xD;&#xa;Jn6uwhRxscJ7DrDClquwwm3TscKlzqzCwT6nws97rMKU+7LCGfq1wgAHs8IftLDC26Gyws9ks8K4&#xD;&#xa;h7DCXaKwwkD8sMKay7HCcNCxwvYvscKNlrLC972zwnRCtMIerLTCHq+1wvfNs8IQF7TC/Puzwnox&#xD;&#xa;s8KQ/azCaZevws3itcKJQrXCzoOywkZ8s8K5vbTCxQSzwuYcs8Ij+LLCT4KywrortMKHK7LCvc6w&#xD;&#xa;wqlfscKiJrHCRe2wwnPmscI2kbHCat2ywoInscJmNLHCsBqwwmxdr8LIF6/CtD6wwlCps8LslbPC&#xD;&#xa;OuyxwohzssKjS7LCaOmywt8jtcLmn7TCd8iywtJhs8JYA7bCn761wr2itMIBv7TCaGyzwgvOtMJW&#xD;&#xa;W7TC3Uu2wsMztcI287LCOHOvwuWirsJ7YLDCD42xwn2JssK6Z7LCyxqzwhJFs8Lb+7PCimWzwg8j&#xD;&#xa;scKFE7HC1p2xwiDKssKkaLXCHp64wjCIusI54brCud+5wh4JusIUQbjCxP62wuost8LqQ7nCyN+3&#xD;&#xa;wrJku8KiI7rCuKS3wvhXtMJHobXC0G+3wnxDtcL/UbfCZWa4wgRKucI+Z7fCqm64wnoZuMKiiLbC&#xD;&#xa;/Fu5wo5FusLibLnCbM62wvAVt8JKarnC/Jm5wqbKt8KSWLLCNL62wmMbusI+gLrCwpy8wuKRvcKq&#xD;&#xa;dL3C2wu7wpYGu8LmQbzCwry8wh/CucKcu7jC9qy8wpAUvMJkYLzC5K27wkZavMKuHrzCuH69wi2/&#xD;&#xa;vsJIVb3Crg25wiBXssK7ELTC0pa7wgrWucIy1LrCIky8wlB/vMI2Qr3CZm29wn7DvMKQpLzCPdC9&#xD;&#xa;wmpWvcKBQb3CO5S+wornvcK2Eb7C/k+/wqtRv8JQ/L7C8Be+wt05vMK0hLrC2uSzwj/7ssIaVrnC&#xD;&#xa;lAC7wmaVvMI3M7zCBH27wp7FusL6BLrCoam5wjRbu8JRh73Crn27wtSdu8JZdbrCpIG5wuD6usI9&#xD;&#xa;ELvCUm68wlZ3u8JYGbzC6ru6whG9ucLMT7fCOyK1wqcMvcJCjsDCcsi+wojZvsIA0rzCPAe+wvcK&#xD;&#xa;v8I6Z7/C/S+9wh+5u8L8hLvCCQe9wjq/u8IXgrvC/uG+wpBzwMLuLsDCmqu9wuBzvsJDDL/CJV69&#xD;&#xa;wiFGu8LWZbjCzk67wnAqvMJqSbvCJTy7wmj9usJUcL7CRou+wvH1vcKBbL7C1JO9wplnvsIm7bzC&#xD;&#xa;giq9wvA2wMK7EcDCuIS/wk8SwMJFUb/CJgG+wtobv8K8Eb/CIkW9wqXDu8I3cLzCYuK9wpSMu8K4&#xD;&#xa;kbzCWh3Dwjj9xcKposPC72XDwm3Tw8Jg+sPChNnDwrJcw8LMlMHChxG7wr46t8JSSL7CJlPCwjxP&#xD;&#xa;wsJotsHCCO3EwoxEzsLKUdrC1KfbwmCb3MJCQ9vCmr/cwnTn3sJiKd3CiH/ZwkjG3cKAq+LCbvXe&#xD;&#xa;wh3I2cJkadrCWNnVwqcL1MKmoNTCHBvWwrs32sI7Q9nCUI3cwpxX3cKw6trCZa/bwm6M3MI0ltrC&#xD;&#xa;KojZwjxm2sJilt3CslTbwl7c2cLbFNnCQs/ZwjwB2MIogdrCkn7ewmaR38KC7eDCNcjjwhJV3sLO&#xD;&#xa;oNrCMrPYwmvK08Lkq9TCepfYwp942MIUntTCvEjRwtr/0cLdOtHCPNHTwrMk0sIsydHClvzUwnR3&#xD;&#xa;1MLEgtTCeeTTwqEx1cKK1NfC3prWwqeV1sK1eNPC6JDPwpp9zMJv5MzCWIHPwmhzz8JeGM7CxKTM&#xD;&#xa;wuIWy8J5bsvCplfIwtCpw8IQSMfC/fbOwqvWzsICBc3C5CTQwrKf08LaCdjC6FvlwuF88cJo1fTC&#xD;&#xa;vNbzwpIA9MKNRvPC3yT0wsCg9MLnw/TCzn70whI09sJCIPnCPkX5wke29cJUEPTC0w/3whbK98Ls&#xD;&#xa;gfjC9Bb2wrQc9sI9QvfC3jP4wgcC98JOtfTCxuf1wr6i9sKGR/bCjiX2wo1J+MJsavnC8873woQF&#xD;&#xa;98JiZPnC4tD5wirj+cJMeffC6mj1wh0Y98JAl/bCys32wsvy9sLe1PbCBCD5wpAv+sJ8nvjCmL75&#xD;&#xa;wpwm+MJcUvfCDjz4wh4o98KyFPjCLN35wsbd+MI8JffCYc32wggj98IGIPfC0jH2wow198Lc3PrC&#xD;&#xa;QkP5wjTO98Lq5/bCNVQC" leadInLength="0/1"  />
            </Keyframes>
           </Parameter>
           </Parameters>
           <MetaData>
            <entry key="effectIndex" val="0"/>
           </MetaData>
          </GenericEffect>
         </Effects>
         <Attributes>
          <Attribute id="415" value="" name="ident"/>
          <Attribute id="416" value="0" name="mixToMono"/>
         </Attributes>
         <MetaData>
          <entry key="WinSubProjectDisplayName" val=""/>
         </MetaData>
         <ExtraData>
          <Entry key="ZoomPanBin">
           <ZoomPanBin id="417"  >
            <ZoomPanKeyframes>
             <ZoomPanKeyframe id="418" timeRangeEnd="-9999999/1" timeRangeDuration="0/1" interpolaterName=""  />
            </ZoomPanKeyframes>
           </ZoomPanBin>
          </Entry>
          <Entry key="CursorEffectBin">
           <CursorEffectBin id="419"  >
            <CursorEffectKeyframes>
            </CursorEffectKeyframes>
           </CursorEffectBin>
          </Entry>
         </ExtraData>
         <GenericTrack id="420"  >
          <Attributes>
           <Attribute id="421" value="" name="ident"/>
           <Attribute id="422" value="0" name="audioMuted"/>
           <Attribute id="423" value="0" name="videoHidden"/>
          </Attributes>
          <MetaData>
           <entry key="IsLocked" val="False"/>
           <entry key="WinTrackHeight" val="0"/>
          </MetaData>
          <Medias>
           <UnifiedMedia id="424"  >
            <AMFile id="425" start="0" duration="2307" scalar="1/1" mediaStart="0/1" mediaDuration="2307/1" trackNumber="2" src="5" channelNumber="0,1" >
             <Parameters>
              <InterpolatingParam id="426" interp="linr"  time="0/1" value="1" leadInLength="0/1"  name="volume"/>
              <Parameter id="427"  name="captions"/>
             </Parameters>
             <Attributes>
              <Attribute id="428" value="" name="ident"/>
              <Attribute id="429" value="44100" name="sampleRate"/>
              <Attribute id="430" value="16" name="bitDepth"/>
              <Attribute id="431" value="1" name="gain"/>
              <Attribute id="432" value="0" name="mixToMono"/>
             </Attributes>
            </AMFile>
            <VMFile id="433" start="0" duration="2307" scalar="1/1" mediaStart="0/1" mediaDuration="2307/1" trackNumber="1" src="5" >
             <Transformer>
              <VectorParam id="434"  name="translation">
               <InterpolatingParam id="435" interp="linr"  time="-9999999/1" value="0" leadInLength="0/1"  />
               <InterpolatingParam id="436" interp="linr"  time="-9999999/1" value="0" leadInLength="0/1"  />
               <InterpolatingParam id="437" interp="linr"  time="-9999999/1" value="0" leadInLength="0/1"  />
              </VectorParam>
              <VectorParam id="438"  name="rotation">
               <InterpolatingParam id="439" interp="linr"  time="-9999999/1" value="0" leadInLength="0/1"  />
               <InterpolatingParam id="440" interp="linr"  time="-9999999/1" value="0" leadInLength="0/1"  />
               <InterpolatingParam id="441" interp="linr"  time="-9999999/1" value="0" leadInLength="0/1"  />
              </VectorParam>
              <VectorParam id="442"  name="shear">
               <InterpolatingParam id="443" interp="linr"  time="-9999999/1" value="0" leadInLength="0/1"  />
               <InterpolatingParam id="444" interp="linr"  time="-9999999/1" value="0" leadInLength="0/1"  />
               <InterpolatingParam id="445" interp="linr"  time="-9999999/1" value="0" leadInLength="0/1"  />
              </VectorParam>
              <VectorParam id="446"  name="scale">
               <InterpolatingParam id="447" interp="linr"  time="-9999999/1" value="1" leadInLength="0/1"  />
               <InterpolatingParam id="448" interp="linr"  time="-9999999/1" value="1" leadInLength="0/1"  />
               <InterpolatingParam id="449" interp="linr"  time="-9999999/1" value="1" leadInLength="0/1"  />
              </VectorParam>
              <VectorParam id="450"  name="anchor">
               <InterpolatingParam id="451" interp="linr"  time="0/1" value="0" leadInLength="0/1"  />
               <InterpolatingParam id="452" interp="linr"  time="0/1" value="0" leadInLength="0/1"  />
               <InterpolatingParam id="453" interp="linr"  time="0/1" value="0" leadInLength="0/1"  />
              </VectorParam>
             </Transformer>
             <Parameters>
              <VectorParam id="454"  name="sourceCrop">
               <InterpolatingParam id="455" interp="linr"  time="0/1" value="0" leadInLength="0/1"  />
               <InterpolatingParam id="456" interp="linr"  time="0/1" value="0" leadInLength="0/1"  />
               <InterpolatingParam id="457" interp="linr"  time="0/1" value="0" leadInLength="0/1"  />
               <InterpolatingParam id="458" interp="linr"  time="0/1" value="0" leadInLength="0/1"  />
              </VectorParam>
              <VectorParam id="459"  name="geometryCrop">
               <InterpolatingParam id="460" interp="linr"  time="-9999999/1" value="0" leadInLength="0/1"  />
               <InterpolatingParam id="461" interp="linr"  time="-9999999/1" value="0" leadInLength="0/1"  />
               <InterpolatingParam id="462" interp="linr"  time="-9999999/1" value="0" leadInLength="0/1"  />
               <InterpolatingParam id="463" interp="linr"  time="-9999999/1" value="0" leadInLength="0/1"  />
              </VectorParam>
              <InterpolatingParam id="464" interp="linr"  time="-9999999/1" value="1" leadInLength="0/1"  name="opacity"/>
             </Parameters>
             <Attributes>
              <Attribute id="465" value="" name="ident"/>
             </Attributes>
             <ExtraData>
              <Entry key="ZoomPanBin">
               <ZoomPanBin id="466"  >
                <ZoomPanKeyframes>
                 <ZoomPanKeyframe id="467" timeRangeEnd="-9999999/1" timeRangeDuration="0/1" interpolaterName=""  />
                </ZoomPanKeyframes>
               </ZoomPanBin>
              </Entry>
             </ExtraData>
            </VMFile>
            <MetaData>
             <entry key="WinSubProjectDisplayName" val=""/>
            </MetaData>
           </UnifiedMedia>
           <UnifiedMedia id="468"  >
            <AMFile id="469" start="2307" duration="222" scalar="1/1" mediaStart="2410/1" mediaDuration="222/1" trackNumber="2" src="5" channelNumber="0,1" >
             <Parameters>
              <InterpolatingParam id="470" interp="linr"  time="0/1" value="1" leadInLength="0/1"  name="volume"/>
              <Parameter id="471"  name="captions"/>
             </Parameters>
             <Attributes>
              <Attribute id="472" value="" name="ident"/>
              <Attribute id="473" value="44100" name="sampleRate"/>
              <Attribute id="474" value="16" name="bitDepth"/>
              <Attribute id="475" value="1" name="gain"/>
              <Attribute id="476" value="0" name="mixToMono"/>
             </Attributes>
            </AMFile>
            <VMFile id="477" start="2307" duration="222" scalar="1/1" mediaStart="2410/1" mediaDuration="222/1" trackNumber="1" src="5" >
             <Transformer>
              <VectorParam id="478"  name="translation">
               <InterpolatingParam id="479" interp="linr"  time="-9999999/1" value="0" leadInLength="0/1"  />
               <InterpolatingParam id="480" interp="linr"  time="-9999999/1" value="0" leadInLength="0/1"  />
               <InterpolatingParam id="481" interp="linr"  time="-9999999/1" value="0" leadInLength="0/1"  />
              </VectorParam>
              <VectorParam id="482"  name="rotation">
               <InterpolatingParam id="483" interp="linr"  time="-9999999/1" value="0" leadInLength="0/1"  />
               <InterpolatingParam id="484" interp="linr"  time="-9999999/1" value="0" leadInLength="0/1"  />
               <InterpolatingParam id="485" interp="linr"  time="-9999999/1" value="0" leadInLength="0/1"  />
              </VectorParam>
              <VectorParam id="486"  name="shear">
               <InterpolatingParam id="487" interp="linr"  time="-9999999/1" value="0" leadInLength="0/1"  />
               <InterpolatingParam id="488" interp="linr"  time="-9999999/1" value="0" leadInLength="0/1"  />
               <InterpolatingParam id="489" interp="linr"  time="-9999999/1" value="0" leadInLength="0/1"  />
              </VectorParam>
              <VectorParam id="490"  name="scale">
               <InterpolatingParam id="491" interp="linr"  time="-9999999/1" value="1" leadInLength="0/1"  />
               <InterpolatingParam id="492" interp="linr"  time="-9999999/1" value="1" leadInLength="0/1"  />
               <InterpolatingParam id="493" interp="linr"  time="-9999999/1" value="1" leadInLength="0/1"  />
              </VectorParam>
              <VectorParam id="494"  name="anchor">
               <InterpolatingParam id="495" interp="linr"  time="0/1" value="0" leadInLength="0/1"  />
               <InterpolatingParam id="496" interp="linr"  time="0/1" value="0" leadInLength="0/1"  />
               <InterpolatingParam id="497" interp="linr"  time="0/1" value="0" leadInLength="0/1"  />
              </VectorParam>
             </Transformer>
             <Parameters>
              <VectorParam id="498"  name="sourceCrop">
               <InterpolatingParam id="499" interp="linr"  time="0/1" value="0" leadInLength="0/1"  />
               <InterpolatingParam id="500" interp="linr"  time="0/1" value="0" leadInLength="0/1"  />
               <InterpolatingParam id="501" interp="linr"  time="0/1" value="0" leadInLength="0/1"  />
               <InterpolatingParam id="502" interp="linr"  time="0/1" value="0" leadInLength="0/1"  />
              </VectorParam>
              <VectorParam id="503"  name="geometryCrop">
               <InterpolatingParam id="504" interp="linr"  time="-9999999/1" value="0" leadInLength="0/1"  />
               <InterpolatingParam id="505" interp="linr"  time="-9999999/1" value="0" leadInLength="0/1"  />
               <InterpolatingParam id="506" interp="linr"  time="-9999999/1" value="0" leadInLength="0/1"  />
               <InterpolatingParam id="507" interp="linr"  time="-9999999/1" value="0" leadInLength="0/1"  />
              </VectorParam>
              <InterpolatingParam id="508" interp="linr"  time="-9999999/1" value="1" leadInLength="0/1"  name="opacity"/>
             </Parameters>
             <Attributes>
              <Attribute id="509" value="" name="ident"/>
             </Attributes>
             <ExtraData>
              <Entry key="ZoomPanBin">
               <ZoomPanBin id="510"  >
                <ZoomPanKeyframes>
                 <ZoomPanKeyframe id="511" timeRangeEnd="-9999999/1" timeRangeDuration="0/1" interpolaterName=""  />
                </ZoomPanKeyframes>
               </ZoomPanBin>
              </Entry>
             </ExtraData>
            </VMFile>
            <MetaData>
             <entry key="WinSubProjectDisplayName" val=""/>
            </MetaData>
           </UnifiedMedia>
           <UnifiedMedia id="512"  >
            <AMFile id="513" start="2529" duration="1899" scalar="1/1" mediaStart="2934/1" mediaDuration="1899/1" trackNumber="2" src="5" channelNumber="0,1" >
             <Parameters>
              <InterpolatingParam id="514" interp="linr"  time="0/1" value="1" leadInLength="0/1"  name="volume"/>
              <Parameter id="515"  name="captions"/>
             </Parameters>
             <Attributes>
              <Attribute id="516" value="" name="ident"/>
              <Attribute id="517" value="44100" name="sampleRate"/>
              <Attribute id="518" value="16" name="bitDepth"/>
              <Attribute id="519" value="1" name="gain"/>
              <Attribute id="520" value="0" name="mixToMono"/>
             </Attributes>
            </AMFile>
            <VMFile id="521" start="2529" duration="1899" scalar="1/1" mediaStart="2934/1" mediaDuration="1899/1" trackNumber="1" src="5" >
             <Transformer>
              <VectorParam id="522"  name="translation">
               <InterpolatingParam id="523" interp="linr"  time="-9999999/1" value="0" leadInLength="0/1"  />
               <InterpolatingParam id="524" interp="linr"  time="-9999999/1" value="0" leadInLength="0/1"  />
               <InterpolatingParam id="525" interp="linr"  time="-9999999/1" value="0" leadInLength="0/1"  />
              </VectorParam>
              <VectorParam id="526"  name="rotation">
               <InterpolatingParam id="527" interp="linr"  time="-9999999/1" value="0" leadInLength="0/1"  />
               <InterpolatingParam id="528" interp="linr"  time="-9999999/1" value="0" leadInLength="0/1"  />
               <InterpolatingParam id="529" interp="linr"  time="-9999999/1" value="0" leadInLength="0/1"  />
              </VectorParam>
              <VectorParam id="530"  name="shear">
               <InterpolatingParam id="531" interp="linr"  time="-9999999/1" value="0" leadInLength="0/1"  />
               <InterpolatingParam id="532" interp="linr"  time="-9999999/1" value="0" leadInLength="0/1"  />
               <InterpolatingParam id="533" interp="linr"  time="-9999999/1" value="0" leadInLength="0/1"  />
              </VectorParam>
              <VectorParam id="534"  name="scale">
               <InterpolatingParam id="535" interp="linr"  time="-9999999/1" value="1" leadInLength="0/1"  />
               <InterpolatingParam id="536" interp="linr"  time="-9999999/1" value="1" leadInLength="0/1"  />
               <InterpolatingParam id="537" interp="linr"  time="-9999999/1" value="1" leadInLength="0/1"  />
              </VectorParam>
              <VectorParam id="538"  name="anchor">
               <InterpolatingParam id="539" interp="linr"  time="0/1" value="0" leadInLength="0/1"  />
               <InterpolatingParam id="540" interp="linr"  time="0/1" value="0" leadInLength="0/1"  />
               <InterpolatingParam id="541" interp="linr"  time="0/1" value="0" leadInLength="0/1"  />
              </VectorParam>
             </Transformer>
             <Parameters>
              <VectorParam id="542"  name="sourceCrop">
               <InterpolatingParam id="543" interp="linr"  time="0/1" value="0" leadInLength="0/1"  />
               <InterpolatingParam id="544" interp="linr"  time="0/1" value="0" leadInLength="0/1"  />
               <InterpolatingParam id="545" interp="linr"  time="0/1" value="0" leadInLength="0/1"  />
               <InterpolatingParam id="546" interp="linr"  time="0/1" value="0" leadInLength="0/1"  />
              </VectorParam>
              <VectorParam id="547"  name="geometryCrop">
               <InterpolatingParam id="548" interp="linr"  time="-9999999/1" value="0" leadInLength="0/1"  />
               <InterpolatingParam id="549" interp="linr"  time="-9999999/1" value="0" leadInLength="0/1"  />
               <InterpolatingParam id="550" interp="linr"  time="-9999999/1" value="0" leadInLength="0/1"  />
               <InterpolatingParam id="551" interp="linr"  time="-9999999/1" value="0" leadInLength="0/1"  />
              </VectorParam>
              <InterpolatingParam id="552" interp="linr"  time="-9999999/1" value="1" leadInLength="0/1"  name="opacity"/>
             </Parameters>
             <Attributes>
              <Attribute id="553" value="" name="ident"/>
             </Attributes>
             <ExtraData>
              <Entry key="ZoomPanBin">
               <ZoomPanBin id="554"  >
                <ZoomPanKeyframes>
                 <ZoomPanKeyframe id="555" timeRangeEnd="-9999999/1" timeRangeDuration="0/1" interpolaterName=""  />
                </ZoomPanKeyframes>
               </ZoomPanBin>
              </Entry>
             </ExtraData>
            </VMFile>
            <MetaData>
             <entry key="WinSubProjectDisplayName" val=""/>
            </MetaData>
           </UnifiedMedia>
           <UnifiedMedia id="556"  >
            <AMFile id="557" start="4428" duration="4342" scalar="1/1" mediaStart="5738/1" mediaDuration="4342/1" trackNumber="2" src="5" channelNumber="0,1" >
             <Parameters>
              <InterpolatingParam id="558" interp="linr"  time="0/1" value="1" leadInLength="0/1"  name="volume"/>
              <Parameter id="559"  name="captions"/>
             </Parameters>
             <Attributes>
              <Attribute id="560" value="" name="ident"/>
              <Attribute id="561" value="44100" name="sampleRate"/>
              <Attribute id="562" value="16" name="bitDepth"/>
              <Attribute id="563" value="1" name="gain"/>
              <Attribute id="564" value="0" name="mixToMono"/>
             </Attributes>
            </AMFile>
            <VMFile id="565" start="4428" duration="4342" scalar="1/1" mediaStart="5738/1" mediaDuration="4342/1" trackNumber="1" src="5" >
             <Transformer>
              <VectorParam id="566"  name="translation">
               <InterpolatingParam id="567" interp="linr"  time="-9999999/1" value="0" leadInLength="0/1"  />
               <InterpolatingParam id="568" interp="linr"  time="-9999999/1" value="0" leadInLength="0/1"  />
               <InterpolatingParam id="569" interp="linr"  time="-9999999/1" value="0" leadInLength="0/1"  />
              </VectorParam>
              <VectorParam id="570"  name="rotation">
               <InterpolatingParam id="571" interp="linr"  time="-9999999/1" value="0" leadInLength="0/1"  />
               <InterpolatingParam id="572" interp="linr"  time="-9999999/1" value="0" leadInLength="0/1"  />
               <InterpolatingParam id="573" interp="linr"  time="-9999999/1" value="0" leadInLength="0/1"  />
              </VectorParam>
              <VectorParam id="574"  name="shear">
               <InterpolatingParam id="575" interp="linr"  time="-9999999/1" value="0" leadInLength="0/1"  />
               <InterpolatingParam id="576" interp="linr"  time="-9999999/1" value="0" leadInLength="0/1"  />
               <InterpolatingParam id="577" interp="linr"  time="-9999999/1" value="0" leadInLength="0/1"  />
              </VectorParam>
              <VectorParam id="578"  name="scale">
               <InterpolatingParam id="579" interp="linr"  time="-9999999/1" value="1" leadInLength="0/1"  />
               <InterpolatingParam id="580" interp="linr"  time="-9999999/1" value="1" leadInLength="0/1"  />
               <InterpolatingParam id="581" interp="linr"  time="-9999999/1" value="1" leadInLength="0/1"  />
              </VectorParam>
              <VectorParam id="582"  name="anchor">
               <InterpolatingParam id="583" interp="linr"  time="0/1" value="0" leadInLength="0/1"  />
               <InterpolatingParam id="584" interp="linr"  time="0/1" value="0" leadInLength="0/1"  />
               <InterpolatingParam id="585" interp="linr"  time="0/1" value="0" leadInLength="0/1"  />
              </VectorParam>
             </Transformer>
             <Parameters>
              <VectorParam id="586"  name="sourceCrop">
               <InterpolatingParam id="587" interp="linr"  time="0/1" value="0" leadInLength="0/1"  />
               <InterpolatingParam id="588" interp="linr"  time="0/1" value="0" leadInLength="0/1"  />
               <InterpolatingParam id="589" interp="linr"  time="0/1" value="0" leadInLength="0/1"  />
               <InterpolatingParam id="590" interp="linr"  time="0/1" value="0" leadInLength="0/1"  />
              </VectorParam>
              <VectorParam id="591"  name="geometryCrop">
               <InterpolatingParam id="592" interp="linr"  time="-9999999/1" value="0" leadInLength="0/1"  />
               <InterpolatingParam id="593" interp="linr"  time="-9999999/1" value="0" leadInLength="0/1"  />
               <InterpolatingParam id="594" interp="linr"  time="-9999999/1" value="0" leadInLength="0/1"  />
               <InterpolatingParam id="595" interp="linr"  time="-9999999/1" value="0" leadInLength="0/1"  />
              </VectorParam>
              <InterpolatingParam id="596" interp="linr"  time="-9999999/1" value="1" leadInLength="0/1"  name="opacity"/>
             </Parameters>
             <Attributes>
              <Attribute id="597" value="" name="ident"/>
             </Attributes>
             <ExtraData>
              <Entry key="ZoomPanBin">
               <ZoomPanBin id="598"  >
                <ZoomPanKeyframes>
                 <ZoomPanKeyframe id="599" timeRangeEnd="-9999999/1" timeRangeDuration="0/1" interpolaterName=""  />
                </ZoomPanKeyframes>
               </ZoomPanBin>
              </Entry>
             </ExtraData>
            </VMFile>
            <MetaData>
             <entry key="WinSubProjectDisplayName" val=""/>
            </MetaData>
           </UnifiedMedia>
           <UnifiedMedia id="600"  >
            <AMFile id="601" start="8770" duration="966" scalar="1/1" mediaStart="10183/1" mediaDuration="966/1" trackNumber="2" src="5" channelNumber="0,1" >
             <Parameters>
              <InterpolatingParam id="602" interp="linr"  time="0/1" value="1" leadInLength="0/1"  name="volume"/>
              <Parameter id="603"  name="captions"/>
             </Parameters>
             <Attributes>
              <Attribute id="604" value="" name="ident"/>
              <Attribute id="605" value="44100" name="sampleRate"/>
              <Attribute id="606" value="16" name="bitDepth"/>
              <Attribute id="607" value="1" name="gain"/>
              <Attribute id="608" value="0" name="mixToMono"/>
             </Attributes>
            </AMFile>
            <VMFile id="609" start="8770" duration="966" scalar="1/1" mediaStart="10183/1" mediaDuration="966/1" trackNumber="1" src="5" >
             <Transformer>
              <VectorParam id="610"  name="translation">
               <InterpolatingParam id="611" interp="linr"  time="-9999999/1" value="0" leadInLength="0/1"  />
               <InterpolatingParam id="612" interp="linr"  time="-9999999/1" value="0" leadInLength="0/1"  />
               <InterpolatingParam id="613" interp="linr"  time="-9999999/1" value="0" leadInLength="0/1"  />
              </VectorParam>
              <VectorParam id="614"  name="rotation">
               <InterpolatingParam id="615" interp="linr"  time="-9999999/1" value="0" leadInLength="0/1"  />
               <InterpolatingParam id="616" interp="linr"  time="-9999999/1" value="0" leadInLength="0/1"  />
               <InterpolatingParam id="617" interp="linr"  time="-9999999/1" value="0" leadInLength="0/1"  />
              </VectorParam>
              <VectorParam id="618"  name="shear">
               <InterpolatingParam id="619" interp="linr"  time="-9999999/1" value="0" leadInLength="0/1"  />
               <InterpolatingParam id="620" interp="linr"  time="-9999999/1" value="0" leadInLength="0/1"  />
               <InterpolatingParam id="621" interp="linr"  time="-9999999/1" value="0" leadInLength="0/1"  />
              </VectorParam>
              <VectorParam id="622"  name="scale">
               <InterpolatingParam id="623" interp="linr"  time="-9999999/1" value="1" leadInLength="0/1"  />
               <InterpolatingParam id="624" interp="linr"  time="-9999999/1" value="1" leadInLength="0/1"  />
               <InterpolatingParam id="625" interp="linr"  time="-9999999/1" value="1" leadInLength="0/1"  />
              </VectorParam>
              <VectorParam id="626"  name="anchor">
               <InterpolatingParam id="627" interp="linr"  time="0/1" value="0" leadInLength="0/1"  />
               <InterpolatingParam id="628" interp="linr"  time="0/1" value="0" leadInLength="0/1"  />
               <InterpolatingParam id="629" interp="linr"  time="0/1" value="0" leadInLength="0/1"  />
              </VectorParam>
             </Transformer>
             <Parameters>
              <VectorParam id="630"  name="sourceCrop">
               <InterpolatingParam id="631" interp="linr"  time="0/1" value="0" leadInLength="0/1"  />
               <InterpolatingParam id="632" interp="linr"  time="0/1" value="0" leadInLength="0/1"  />
               <InterpolatingParam id="633" interp="linr"  time="0/1" value="0" leadInLength="0/1"  />
               <InterpolatingParam id="634" interp="linr"  time="0/1" value="0" leadInLength="0/1"  />
              </VectorParam>
              <VectorParam id="635"  name="geometryCrop">
               <InterpolatingParam id="636" interp="linr"  time="-9999999/1" value="0" leadInLength="0/1"  />
               <InterpolatingParam id="637" interp="linr"  time="-9999999/1" value="0" leadInLength="0/1"  />
               <InterpolatingParam id="638" interp="linr"  time="-9999999/1" value="0" leadInLength="0/1"  />
               <InterpolatingParam id="639" interp="linr"  time="-9999999/1" value="0" leadInLength="0/1"  />
              </VectorParam>
              <InterpolatingParam id="640" interp="linr"  time="-9999999/1" value="1" leadInLength="0/1"  name="opacity"/>
             </Parameters>
             <Attributes>
              <Attribute id="641" value="" name="ident"/>
             </Attributes>
             <ExtraData>
              <Entry key="ZoomPanBin">
               <ZoomPanBin id="642"  >
                <ZoomPanKeyframes>
                 <ZoomPanKeyframe id="643" timeRangeEnd="-9999999/1" timeRangeDuration="0/1" interpolaterName=""  />
                </ZoomPanKeyframes>
               </ZoomPanBin>
              </Entry>
             </ExtraData>
            </VMFile>
            <MetaData>
             <entry key="WinSubProjectDisplayName" val=""/>
            </MetaData>
           </UnifiedMedia>
           <UnifiedMedia id="644"  >
            <AMFile id="645" start="9736" duration="1631" scalar="1/1" mediaStart="11421/1" mediaDuration="1631/1" trackNumber="2" src="5" channelNumber="0,1" >
             <Parameters>
              <InterpolatingParam id="646" interp="linr"  time="0/1" value="1" leadInLength="0/1"  name="volume"/>
              <Parameter id="647"  name="captions"/>
             </Parameters>
             <Attributes>
              <Attribute id="648" value="" name="ident"/>
              <Attribute id="649" value="44100" name="sampleRate"/>
              <Attribute id="650" value="16" name="bitDepth"/>
              <Attribute id="651" value="1" name="gain"/>
              <Attribute id="652" value="0" name="mixToMono"/>
             </Attributes>
            </AMFile>
            <VMFile id="653" start="9736" duration="1631" scalar="1/1" mediaStart="11421/1" mediaDuration="1631/1" trackNumber="1" src="5" >
             <Transformer>
              <VectorParam id="654"  name="translation">
               <InterpolatingParam id="655" interp="linr"  time="-9999999/1" value="0" leadInLength="0/1"  />
               <InterpolatingParam id="656" interp="linr"  time="-9999999/1" value="0" leadInLength="0/1"  />
               <InterpolatingParam id="657" interp="linr"  time="-9999999/1" value="0" leadInLength="0/1"  />
              </VectorParam>
              <VectorParam id="658"  name="rotation">
               <InterpolatingParam id="659" interp="linr"  time="-9999999/1" value="0" leadInLength="0/1"  />
               <InterpolatingParam id="660" interp="linr"  time="-9999999/1" value="0" leadInLength="0/1"  />
               <InterpolatingParam id="661" interp="linr"  time="-9999999/1" value="0" leadInLength="0/1"  />
              </VectorParam>
              <VectorParam id="662"  name="shear">
               <InterpolatingParam id="663" interp="linr"  time="-9999999/1" value="0" leadInLength="0/1"  />
               <InterpolatingParam id="664" interp="linr"  time="-9999999/1" value="0" leadInLength="0/1"  />
               <InterpolatingParam id="665" interp="linr"  time="-9999999/1" value="0" leadInLength="0/1"  />
              </VectorParam>
              <VectorParam id="666"  name="scale">
               <InterpolatingParam id="667" interp="linr"  time="-9999999/1" value="1" leadInLength="0/1"  />
               <InterpolatingParam id="668" interp="linr"  time="-9999999/1" value="1" leadInLength="0/1"  />
               <InterpolatingParam id="669" interp="linr"  time="-9999999/1" value="1" leadInLength="0/1"  />
              </VectorParam>
              <VectorParam id="670"  name="anchor">
               <InterpolatingParam id="671" interp="linr"  time="0/1" value="0" leadInLength="0/1"  />
               <InterpolatingParam id="672" interp="linr"  time="0/1" value="0" leadInLength="0/1"  />
               <InterpolatingParam id="673" interp="linr"  time="0/1" value="0" leadInLength="0/1"  />
              </VectorParam>
             </Transformer>
             <Parameters>
              <VectorParam id="674"  name="sourceCrop">
               <InterpolatingParam id="675" interp="linr"  time="0/1" value="0" leadInLength="0/1"  />
               <InterpolatingParam id="676" interp="linr"  time="0/1" value="0" leadInLength="0/1"  />
               <InterpolatingParam id="677" interp="linr"  time="0/1" value="0" leadInLength="0/1"  />
               <InterpolatingParam id="678" interp="linr"  time="0/1" value="0" leadInLength="0/1"  />
              </VectorParam>
              <VectorParam id="679"  name="geometryCrop">
               <InterpolatingParam id="680" interp="linr"  time="-9999999/1" value="0" leadInLength="0/1"  />
               <InterpolatingParam id="681" interp="linr"  time="-9999999/1" value="0" leadInLength="0/1"  />
               <InterpolatingParam id="682" interp="linr"  time="-9999999/1" value="0" leadInLength="0/1"  />
               <InterpolatingParam id="683" interp="linr"  time="-9999999/1" value="0" leadInLength="0/1"  />
              </VectorParam>
              <InterpolatingParam id="684" interp="linr"  time="-9999999/1" value="1" leadInLength="0/1"  name="opacity"/>
             </Parameters>
             <Attributes>
              <Attribute id="685" value="" name="ident"/>
             </Attributes>
             <ExtraData>
              <Entry key="ZoomPanBin">
               <ZoomPanBin id="686"  >
                <ZoomPanKeyframes>
                 <ZoomPanKeyframe id="687" timeRangeEnd="-9999999/1" timeRangeDuration="0/1" interpolaterName=""  />
                </ZoomPanKeyframes>
               </ZoomPanBin>
              </Entry>
             </ExtraData>
            </VMFile>
            <MetaData>
             <entry key="WinSubProjectDisplayName" val=""/>
            </MetaData>
           </UnifiedMedia>
           <UnifiedMedia id="688"  >
            <AMFile id="689" start="11367" duration="182" scalar="1/1" mediaStart="13155/1" mediaDuration="182/1" trackNumber="2" src="5" channelNumber="0,1" >
             <Parameters>
              <InterpolatingParam id="690" interp="linr"  time="0/1" value="1" leadInLength="0/1"  name="volume"/>
              <Parameter id="691"  name="captions"/>
             </Parameters>
             <Attributes>
              <Attribute id="692" value="" name="ident"/>
              <Attribute id="693" value="44100" name="sampleRate"/>
              <Attribute id="694" value="16" name="bitDepth"/>
              <Attribute id="695" value="1" name="gain"/>
              <Attribute id="696" value="0" name="mixToMono"/>
             </Attributes>
            </AMFile>
            <VMFile id="697" start="11367" duration="182" scalar="1/1" mediaStart="13155/1" mediaDuration="182/1" trackNumber="1" src="5" >
             <Transformer>
              <VectorParam id="698"  name="translation">
               <InterpolatingParam id="699" interp="linr"  time="-9999999/1" value="0" leadInLength="0/1"  />
               <InterpolatingParam id="700" interp="linr"  time="-9999999/1" value="0" leadInLength="0/1"  />
               <InterpolatingParam id="701" interp="linr"  time="-9999999/1" value="0" leadInLength="0/1"  />
              </VectorParam>
              <VectorParam id="702"  name="rotation">
               <InterpolatingParam id="703" interp="linr"  time="-9999999/1" value="0" leadInLength="0/1"  />
               <InterpolatingParam id="704" interp="linr"  time="-9999999/1" value="0" leadInLength="0/1"  />
               <InterpolatingParam id="705" interp="linr"  time="-9999999/1" value="0" leadInLength="0/1"  />
              </VectorParam>
              <VectorParam id="706"  name="shear">
               <InterpolatingParam id="707" interp="linr"  time="-9999999/1" value="0" leadInLength="0/1"  />
               <InterpolatingParam id="708" interp="linr"  time="-9999999/1" value="0" leadInLength="0/1"  />
               <InterpolatingParam id="709" interp="linr"  time="-9999999/1" value="0" leadInLength="0/1"  />
              </VectorParam>
              <VectorParam id="710"  name="scale">
               <InterpolatingParam id="711" interp="linr"  time="-9999999/1" value="1" leadInLength="0/1"  />
               <InterpolatingParam id="712" interp="linr"  time="-9999999/1" value="1" leadInLength="0/1"  />
               <InterpolatingParam id="713" interp="linr"  time="-9999999/1" value="1" leadInLength="0/1"  />
              </VectorParam>
              <VectorParam id="714"  name="anchor">
               <InterpolatingParam id="715" interp="linr"  time="0/1" value="0" leadInLength="0/1"  />
               <InterpolatingParam id="716" interp="linr"  time="0/1" value="0" leadInLength="0/1"  />
               <InterpolatingParam id="717" interp="linr"  time="0/1" value="0" leadInLength="0/1"  />
              </VectorParam>
             </Transformer>
             <Parameters>
              <VectorParam id="718"  name="sourceCrop">
               <InterpolatingParam id="719" interp="linr"  time="0/1" value="0" leadInLength="0/1"  />
               <InterpolatingParam id="720" interp="linr"  time="0/1" value="0" leadInLength="0/1"  />
               <InterpolatingParam id="721" interp="linr"  time="0/1" value="0" leadInLength="0/1"  />
               <InterpolatingParam id="722" interp="linr"  time="0/1" value="0" leadInLength="0/1"  />
              </VectorParam>
              <VectorParam id="723"  name="geometryCrop">
               <InterpolatingParam id="724" interp="linr"  time="-9999999/1" value="0" leadInLength="0/1"  />
               <InterpolatingParam id="725" interp="linr"  time="-9999999/1" value="0" leadInLength="0/1"  />
               <InterpolatingParam id="726" interp="linr"  time="-9999999/1" value="0" leadInLength="0/1"  />
               <InterpolatingParam id="727" interp="linr"  time="-9999999/1" value="0" leadInLength="0/1"  />
              </VectorParam>
              <InterpolatingParam id="728" interp="linr"  time="-9999999/1" value="1" leadInLength="0/1"  name="opacity"/>
             </Parameters>
             <Attributes>
              <Attribute id="729" value="" name="ident"/>
             </Attributes>
             <ExtraData>
              <Entry key="ZoomPanBin">
               <ZoomPanBin id="730"  >
                <ZoomPanKeyframes>
                 <ZoomPanKeyframe id="731" timeRangeEnd="-9999999/1" timeRangeDuration="0/1" interpolaterName=""  />
                </ZoomPanKeyframes>
               </ZoomPanBin>
              </Entry>
             </ExtraData>
            </VMFile>
            <MetaData>
             <entry key="WinSubProjectDisplayName" val=""/>
            </MetaData>
           </UnifiedMedia>
          </Medias>
         </GenericTrack>
        </StitchedMedia>
       </Medias>
      </GenericTrack>
      <GenericTrack id="732"  >
       <Attributes>
        <Attribute id="733" value="" name="ident"/>
        <Attribute id="734" value="0" name="audioMuted"/>
        <Attribute id="735" value="0" name="videoHidden"/>
       </Attributes>
       <MetaData>
        <entry key="IsLocked" val="False"/>
        <entry key="WinTrackHeight" val="62"/>
       </MetaData>
       <Medias>
        <IMFile id="736" start="3515" duration="288" scalar="1/1" mediaStart="0/1" mediaDuration="1/1" trackNumber="0" src="6" trimStartSum="0/1" >
         <Transformer>
          <VectorParam id="737"  name="translation">
           <InterpolatingParam id="738" interp="linr"  time="-9999999/1" value="-576.41593886451506" leadInLength="0/1"  />
           <InterpolatingParam id="739" interp="linr"  time="-9999999/1" value="22.456331877741682" leadInLength="0/1"  />
           <InterpolatingParam id="740" interp="linr"  time="-9999999/1" value="0" leadInLength="0/1"  />
          </VectorParam>
          <VectorParam id="741"  name="rotation">
           <InterpolatingParam id="742" interp="linr"  time="-9999999/1" value="0" leadInLength="0/1"  />
           <InterpolatingParam id="743" interp="linr"  time="-9999999/1" value="0" leadInLength="0/1"  />
           <InterpolatingParam id="744" interp="linr"  time="-9999999/1" value="0" leadInLength="0/1"  />
          </VectorParam>
          <VectorParam id="745"  name="shear">
           <InterpolatingParam id="746" interp="linr"  time="-9999999/1" value="0" leadInLength="0/1"  />
           <InterpolatingParam id="747" interp="linr"  time="-9999999/1" value="0" leadInLength="0/1"  />
           <InterpolatingParam id="748" interp="linr"  time="-9999999/1" value="0" leadInLength="0/1"  />
          </VectorParam>
          <VectorParam id="749"  name="scale">
           <InterpolatingParam id="750" interp="linr"  time="-9999999/1" value="0.87292030567722778" leadInLength="0/1"  />
           <InterpolatingParam id="751" interp="linr"  time="-9999999/1" value="1" leadInLength="0/1"  />
           <InterpolatingParam id="752" interp="linr"  time="-9999999/1" value="1" leadInLength="0/1"  />
          </VectorParam>
          <VectorParam id="753"  name="anchor">
           <InterpolatingParam id="754" interp="linr"  time="0/1" value="0" leadInLength="0/1"  />
           <InterpolatingParam id="755" interp="linr"  time="0/1" value="0" leadInLength="0/1"  />
           <InterpolatingParam id="756" interp="linr"  time="0/1" value="0" leadInLength="0/1"  />
          </VectorParam>
         </Transformer>
         <Parameters>
          <VectorParam id="757"  name="sourceCrop">
           <InterpolatingParam id="758" interp="linr"  time="0/1" value="0" leadInLength="0/1"  />
           <InterpolatingParam id="759" interp="linr"  time="0/1" value="0" leadInLength="0/1"  />
           <InterpolatingParam id="760" interp="linr"  time="0/1" value="0" leadInLength="0/1"  />
           <InterpolatingParam id="761" interp="linr"  time="0/1" value="0" leadInLength="0/1"  />
          </VectorParam>
          <VectorParam id="762"  name="geometryCrop">
           <InterpolatingParam id="763" interp="linr"  time="-9999999/1" value="0" leadInLength="0/1"  />
           <InterpolatingParam id="764" interp="linr"  time="-9999999/1" value="0" leadInLength="0/1"  />
           <InterpolatingParam id="765" interp="linr"  time="-9999999/1" value="0" leadInLength="0/1"  />
           <InterpolatingParam id="766" interp="linr"  time="-9999999/1" value="0" leadInLength="0/1"  />
          </VectorParam>
          <InterpolatingParam id="767" interp="linr"  time="-9999999/1" value="1" leadInLength="0/1"  name="opacity"/>
         </Parameters>
         <Attributes>
          <Attribute id="768" value="" name="ident"/>
         </Attributes>
         <MetaData>
          <entry key="WinSubProjectDisplayName" val=""/>
         </MetaData>
         <ExtraData>
          <Entry key="ZoomPanBin">
           <ZoomPanBin id="769"  >
            <ZoomPanKeyframes>
             <ZoomPanKeyframe id="770" timeRangeEnd="-9999999/1" timeRangeDuration="0/1" interpolaterName="linr"  />
            </ZoomPanKeyframes>
           </ZoomPanBin>
          </Entry>
         </ExtraData>
        </IMFile>
        <IMFile id="771" start="3803" duration="745" scalar="1/1" mediaStart="0/1" mediaDuration="1/1" trackNumber="0" src="6" trimStartSum="590/1" >
         <Transformer>
          <VectorParam id="772"  name="translation">
           <InterpolatingParam id="773" interp="linr"  time="-9999999/1" value="-576.41593886451506" leadInLength="0/1"  />
           <InterpolatingParam id="774" interp="linr"  time="-9999999/1" value="22.456331877741682" leadInLength="0/1"  />
           <InterpolatingParam id="775" interp="linr"  time="-9999999/1" value="0" leadInLength="0/1"  />
          </VectorParam>
          <VectorParam id="776"  name="rotation">
           <InterpolatingParam id="777" interp="linr"  time="-9999999/1" value="0" leadInLength="0/1"  />
           <InterpolatingParam id="778" interp="linr"  time="-9999999/1" value="0" leadInLength="0/1"  />
           <InterpolatingParam id="779" interp="linr"  time="-9999999/1" value="0" leadInLength="0/1"  />
          </VectorParam>
          <VectorParam id="780"  name="shear">
           <InterpolatingParam id="781" interp="linr"  time="-9999999/1" value="0" leadInLength="0/1"  />
           <InterpolatingParam id="782" interp="linr"  time="-9999999/1" value="0" leadInLength="0/1"  />
           <InterpolatingParam id="783" interp="linr"  time="-9999999/1" value="0" leadInLength="0/1"  />
          </VectorParam>
          <VectorParam id="784"  name="scale">
           <InterpolatingParam id="785" interp="linr"  time="-9999999/1" value="0.87292030567722778" leadInLength="0/1"  />
           <InterpolatingParam id="786" interp="linr"  time="-9999999/1" value="1" leadInLength="0/1"  />
           <InterpolatingParam id="787" interp="linr"  time="-9999999/1" value="1" leadInLength="0/1"  />
          </VectorParam>
          <VectorParam id="788"  name="anchor">
           <InterpolatingParam id="789" interp="linr"  time="0/1" value="0" leadInLength="0/1"  />
           <InterpolatingParam id="790" interp="linr"  time="0/1" value="0" leadInLength="0/1"  />
           <InterpolatingParam id="791" interp="linr"  time="0/1" value="0" leadInLength="0/1"  />
          </VectorParam>
         </Transformer>
         <Parameters>
          <VectorParam id="792"  name="sourceCrop">
           <InterpolatingParam id="793" interp="linr"  time="0/1" value="0" leadInLength="0/1"  />
           <InterpolatingParam id="794" interp="linr"  time="0/1" value="0" leadInLength="0/1"  />
           <InterpolatingParam id="795" interp="linr"  time="0/1" value="0" leadInLength="0/1"  />
           <InterpolatingParam id="796" interp="linr"  time="0/1" value="0" leadInLength="0/1"  />
          </VectorParam>
          <VectorParam id="797"  name="geometryCrop">
           <InterpolatingParam id="798" interp="linr"  time="-9999999/1" value="0" leadInLength="0/1"  />
           <InterpolatingParam id="799" interp="linr"  time="-9999999/1" value="0" leadInLength="0/1"  />
           <InterpolatingParam id="800" interp="linr"  time="-9999999/1" value="0" leadInLength="0/1"  />
           <InterpolatingParam id="801" interp="linr"  time="-9999999/1" value="0" leadInLength="0/1"  />
          </VectorParam>
          <InterpolatingParam id="802" interp="linr"  time="-9999999/1" value="1" leadInLength="0/1"  name="opacity"/>
         </Parameters>
         <Attributes>
          <Attribute id="803" value="" name="ident"/>
         </Attributes>
         <MetaData>
          <entry key="WinSubProjectDisplayName" val=""/>
         </MetaData>
         <ExtraData>
          <Entry key="ZoomPanBin">
           <ZoomPanBin id="804"  >
            <ZoomPanKeyframes>
             <ZoomPanKeyframe id="805" timeRangeEnd="-9999999/1" timeRangeDuration="0/1" interpolaterName="linr"  />
            </ZoomPanKeyframes>
           </ZoomPanBin>
          </Entry>
         </ExtraData>
        </IMFile>
       </Medias>
      </GenericTrack>
      <GenericTrack id="806"  >
       <Attributes>
        <Attribute id="807" value="" name="ident"/>
        <Attribute id="808" value="0" name="audioMuted"/>
        <Attribute id="809" value="0" name="videoHidden"/>
       </Attributes>
       <MetaData>
        <entry key="IsLocked" val="False"/>
        <entry key="WinTrackHeight" val="62"/>
       </MetaData>
       <Medias>
       </Medias>
      </GenericTrack>
      <GenericTrack id="810"  >
       <Attributes>
        <Attribute id="811" value="" name="ident"/>
        <Attribute id="812" value="0" name="audioMuted"/>
        <Attribute id="813" value="0" name="videoHidden"/>
       </Attributes>
       <MetaData>
        <entry key="IsLocked" val="False"/>
        <entry key="WinTrackHeight" val="62"/>
       </MetaData>
       <Medias>
       </Medias>
      </GenericTrack>
     </Tracks>
    </GenericMixer>
   <CaptionAttributes id="814"  >
    <Attribute id="815" value="1" name="captionsEnabled"/>
    <Attribute id="816" value="Arial" name="captionsFontName"/>
    <Attribute id="817" value="28" name="captionsFontSize"/>
    <Attribute id="818" value="(0,0,0,255)" name="captionsBackgroundColor"/>
    <Attribute id="819" value="(255,255,255,255)" name="captionsForegroundColor"/>
    <Attribute id="820" value="en" name="lang"/>
    <Attribute id="821" value="0" name="captionsAlignment"/>
    <Attribute id="822" value="1" name="captionsDefaultFontSize"/>
    <Attribute id="823" value="0.5" name="captionsOpacity"/>
    <Attribute id="824" value="1" name="captionsBackgroundEnabled"/>
    <Attribute id="825" value="1" name="captionsBackgroundOnlyAroundText"/>
   </CaptionAttributes>
   <Parameters>
    <VectorParam id="826"  name="eyePosition">
     <InterpolatingParam id="827" interp="linr"  time="0/1" value="0" leadInLength="0/1"  />
     <InterpolatingParam id="828" interp="linr"  time="0/1" value="0" leadInLength="0/1"  />
     <InterpolatingParam id="829" interp="linr"  time="0/1" value="3000" leadInLength="0/1"  />
    </VectorParam>
    <VectorParam id="830"  name="eyeLookAtPosition">
     <InterpolatingParam id="831" interp="linr"  time="0/1" value="0" leadInLength="0/1"  />
     <InterpolatingParam id="832" interp="linr"  time="0/1" value="0" leadInLength="0/1"  />
     <InterpolatingParam id="833" interp="linr"  time="0/1" value="0" leadInLength="0/1"  />
    </VectorParam>
    <VectorParam id="834"  name="eyeUpVector">
     <InterpolatingParam id="835" interp="linr"  time="0/1" value="0" leadInLength="0/1"  />
     <InterpolatingParam id="836" interp="linr"  time="0/1" value="1" leadInLength="0/1"  />
     <InterpolatingParam id="837" interp="linr"  time="0/1" value="0" leadInLength="0/1"  />
    </VectorParam>
    <InterpolatingParam id="838" interp="linr"  time="0/1" value="0.23885785" leadInLength="0/1"  name="fov"/>
    <InterpolatingParam id="839" interp="linr"  time="0/1" value="1.5" leadInLength="0/1"  name="nearClipDistance"/>
    <InterpolatingParam id="840" interp="linr"  time="0/1" value="6000" leadInLength="0/1"  name="farClipDistance"/>
   </Parameters>
  </Timeline>
 </Project>
</GoProject>
</CSMLData>

</Project_Data>
