<?xml version="1.0"?>
<Project_Data Version="8.00">
<Project_Settings>
<ProfileName></ProfileName>
<ProjectWidth>964</ProjectWidth>
<ProjectHeight>720</ProjectHeight>
<IsCustomProject>1</IsCustomProject>
<SavedProjectSettings>1</SavedProjectSettings>
<LastFlashTemplate>-1</LastFlashTemplate>
</Project_Settings>


<AutoSaveFile>C:\Users\Junaid\AppData\Local\TechSmith\Camtasia Studio\8.0\Auto-Saves\displays14682bcb.autosave.camproj</AutoSaveFile>

<ProjectID>F3666007-2E93-4894-AE8A-CF7C91BD4ECB</ProjectID>

<PowerPointProject>0</PowerPointProject>

<PowerPointFilename></PowerPointFilename>


<Project_Notes>
</Project_Notes>

<Project_MetaData>
<Project_MetaData_Object>
<FieldArrayKey>8</FieldArrayKey>
<Value>displays</Value>
</Project_MetaData_Object>
<Project_MetaData_Object>
<FieldArrayKey>13</FieldArrayKey>
<Value>2016-01-18 10:47:41 AM</Value>
</Project_MetaData_Object>
<Project_MetaData_Object>
<FieldArrayKey>16</FieldArrayKey>
<Value>ENU</Value>
</Project_MetaData_Object>
</Project_MetaData>

<CSMLData>
<GoProject id="1" version="3.0" >
 <Project id="2" editRate="30/1" version="3.0" >
  <Author></Author>
  <Comment></Comment>
  <System></System>
  <SourceBin id="3"  >
    <Source id="4" src="C:\Users\Junaid\Desktop\IOT RECO\Dipplays.trec" lastMod="20160118T052624" rect="(0,0,1028,768)" >
      <SourceTrack range="(0,10726)" type="0" editRate="30/1" trackRect="(0,0,1028,768)" sampleRate="0/1" bitDepth="0" numChannels="0" filename="Dipplays.trec!Strack0.tsc2" metaData="Dipplays.trec;" />
      <SourceTrack range="(0,10724000)" type="0" editRate="30000/1" trackRect="(0,0,640,480)" sampleRate="0/1" bitDepth="0" numChannels="0" filename="Dipplays.trec!Cvideo1.mp4" metaData="" />
      <SourceTrack range="(0,15768576)" type="2" editRate="44100/1" trackRect="(0,0,0,0)" sampleRate="44100/1" bitDepth="16" numChannels="2" filename="Dipplays.trec!Maudio2.mp4" metaData="" />
    </Source>
    <Source id="5" src="C:\Users\Junaid\Desktop\IOT RECO\esp8266.trec" lastMod="20160118T173800" rect="(0,0,1028,768)" >
      <SourceTrack range="(0,40642)" type="0" editRate="30/1" trackRect="(0,0,1028,768)" sampleRate="0/1" bitDepth="0" numChannels="0" filename="esp8266.trec!Strack0.tsc2" metaData="esp8266.trec;" />
      <SourceTrack range="(0,40639000)" type="0" editRate="30000/1" trackRect="(0,0,640,480)" sampleRate="0/1" bitDepth="0" numChannels="0" filename="esp8266.trec!Cvideo1.mp4" metaData="" />
      <SourceTrack range="(0,59774976)" type="2" editRate="44100/1" trackRect="(0,0,0,0)" sampleRate="44100/1" bitDepth="16" numChannels="2" filename="esp8266.trec!Maudio2.mp4" metaData="" />
    </Source>
    <Source id="6" src="C:\Users\Junaid\Desktop\IOT RECO\esp8266 2.trec" lastMod="20160118T173906" rect="(0,0,1028,768)" >
      <SourceTrack range="(0,988)" type="0" editRate="30/1" trackRect="(0,0,1028,768)" sampleRate="0/1" bitDepth="0" numChannels="0" filename="esp8266 2.trec!Strack0.tsc2" metaData="esp8266 2.trec;" />
      <SourceTrack range="(0,984000)" type="0" editRate="30000/1" trackRect="(0,0,640,480)" sampleRate="0/1" bitDepth="0" numChannels="0" filename="esp8266 2.trec!Cvideo1.mp4" metaData="" />
      <SourceTrack range="(0,1471488)" type="2" editRate="44100/1" trackRect="(0,0,0,0)" sampleRate="44100/1" bitDepth="16" numChannels="2" filename="esp8266 2.trec!Maudio2.mp4" metaData="" />
    </Source>
  </SourceBin>
  <Timeline id="7"  >
   <Attributes>
    <Attribute id="8" value="964" name="width"/>
    <Attribute id="9" value="720" name="height"/>
    <Attribute id="10" value="(0,0,0,255)" name="backgroundColor"/>
   </Attributes>
    <GenericMixer id="11"  name="Unified Mixer">
     <MetaData>
      <entry key="MixerType" val="TimelineMixer"/>
     </MetaData>
     <Tracks>
      <GenericTrack id="12"  >
       <Attributes>
        <Attribute id="13" value="" name="ident"/>
        <Attribute id="14" value="0" name="audioMuted"/>
        <Attribute id="15" value="0" name="videoHidden"/>
       </Attributes>
       <MetaData>
        <entry key="IsLocked" val="False"/>
        <entry key="WinTrackHeight" val="62"/>
       </MetaData>
       <Medias>
        <StitchedMedia id="16" start="0" duration="2959" scalar="1/1" mediaStart="0/1" mediaDuration="2959/1" minMediaStart="0/1" >
         <Transformer>
          <VectorParam id="17"  name="translation">
           <InterpolatingParam id="18" interp="linr"  time="-9999999/1" value="0" leadInLength="0/1"  interpolater="leadin-linr"  />
           <InterpolatingParam id="19" interp="linr"  time="-9999999/1" value="0" leadInLength="0/1"  interpolater="leadin-linr"  />
           <InterpolatingParam id="20" interp="linr"  time="-9999999/1" value="0" leadInLength="0/1"  interpolater="leadin-linr"  />
          </VectorParam>
          <VectorParam id="21"  name="rotation">
           <InterpolatingParam id="22" interp="linr"  time="-9999999/1" value="0" leadInLength="0/1"  interpolater="leadin-linr"  />
           <InterpolatingParam id="23" interp="linr"  time="-9999999/1" value="0" leadInLength="0/1"  interpolater="leadin-linr"  />
           <InterpolatingParam id="24" interp="linr"  time="-9999999/1" value="0" leadInLength="0/1"  interpolater="leadin-linr"  />
          </VectorParam>
          <VectorParam id="25"  name="shear">
           <InterpolatingParam id="26" interp="linr"  time="-9999999/1" value="0" leadInLength="0/1"  interpolater="leadin-linr"  />
           <InterpolatingParam id="27" interp="linr"  time="-9999999/1" value="0" leadInLength="0/1"  interpolater="leadin-linr"  />
           <InterpolatingParam id="28" interp="linr"  time="-9999999/1" value="0" leadInLength="0/1"  interpolater="leadin-linr"  />
          </VectorParam>
          <VectorParam id="29"  name="scale">
           <InterpolatingParam id="30" interp="linr"  time="-9999999/1" value="0.9375" leadInLength="0/1"  interpolater="leadin-linr"  />
           <InterpolatingParam id="31" interp="linr"  time="-9999999/1" value="0.9375" leadInLength="0/1"  interpolater="leadin-linr"  />
           <InterpolatingParam id="32" interp="linr"  time="-9999999/1" value="1" leadInLength="0/1"  interpolater="leadin-linr"  />
          </VectorParam>
          <VectorParam id="33"  name="anchor">
           <InterpolatingParam id="34" interp="linr"  time="0/1" value="0" leadInLength="0/1"  />
           <InterpolatingParam id="35" interp="linr"  time="0/1" value="0" leadInLength="0/1"  />
           <InterpolatingParam id="36" interp="linr"  time="0/1" value="0" leadInLength="0/1"  />
          </VectorParam>
         </Transformer>
         <Parameters>
          <VectorParam id="37"  name="sourceCrop">
           <InterpolatingParam id="38" interp="linr"  time="0/1" value="0" leadInLength="0/1"  />
           <InterpolatingParam id="39" interp="linr"  time="0/1" value="0" leadInLength="0/1"  />
           <InterpolatingParam id="40" interp="linr"  time="0/1" value="0" leadInLength="0/1"  />
           <InterpolatingParam id="41" interp="linr"  time="0/1" value="0" leadInLength="0/1"  />
          </VectorParam>
          <VectorParam id="42"  name="geometryCrop">
           <InterpolatingParam id="43" interp="linr"  time="-9999999/1" value="0" leadInLength="0/1"  interpolater="leadin-linr"  />
           <InterpolatingParam id="44" interp="linr"  time="-9999999/1" value="0" leadInLength="0/1"  interpolater="leadin-linr"  />
           <InterpolatingParam id="45" interp="linr"  time="-9999999/1" value="0" leadInLength="0/1"  interpolater="leadin-linr"  />
           <InterpolatingParam id="46" interp="linr"  time="-9999999/1" value="0" leadInLength="0/1"  interpolater="leadin-linr"  />
          </VectorParam>
          <InterpolatingParam id="47" interp="linr"  time="-9999999/1" value="1" leadInLength="0/1"  interpolater="leadin-linr"  name="opacity"/>
          <InterpolatingParam id="48" interp="linr"  time="0/1" value="1" leadInLength="0/1"  name="cursorOpacity"/>
          <InterpolatingParam id="49" interp="linr"  time="0/1" value="1" leadInLength="0/1"  name="cursorScale"/>
          <Parameter id="50"  name="captions"/>
         </Parameters>
         <Effects>
          <GenericEffect id="51" name = "CursorBaseEffectName" >
           <Parameters>
           <InterpolatingParam id="52" interp="linr"  time="-9999999/1" value="1" leadInLength="0/1"   name="cursorSize"/>
           <InterpolatingParam id="53" interp="linr"  time="-9999999/1" value="0" leadInLength="0/1"   name="highlightBlurRadius"/>
           <InterpolatingParam id="54" interp="linr"  time="-9999999/1" value="0" leadInLength="0/1"   name="highlightColorBlue"/>
           <InterpolatingParam id="55" interp="linr"  time="-9999999/1" value="255" leadInLength="0/1"   name="highlightColorGreen"/>
           <InterpolatingParam id="56" interp="linr"  time="-9999999/1" value="255" leadInLength="0/1"   name="highlightColorRed"/>
           <InterpolatingParam id="57" interp="linr"  time="-9999999/1" value="5" leadInLength="0/1"   name="highlightFeatherSize"/>
           <InterpolatingParam id="58" interp="linr"  time="-9999999/1" value="2" leadInLength="0/1"   name="highlightMagnification"/>
           <InterpolatingParam id="59" interp="linr"  time="-9999999/1" value="1" leadInLength="0/1"   name="highlightOpacity"/>
           <InterpolatingParam id="60" interp="linr"  time="-9999999/1" value="45" leadInLength="0/1"   name="highlightSize"/>
           <Parameter id="61"   name="highlightType">
            <Keyframes>
            <Keyframe id="62"  time="-9999999/1" value="0" leadInLength="0/1"  />
            </Keyframes>
           </Parameter>
           <InterpolatingParam id="63" interp="linr"  time="-9999999/1" value="0" leadInLength="0/1"   name="leftClickColorBlue"/>
           <InterpolatingParam id="64" interp="linr"  time="-9999999/1" value="0" leadInLength="0/1"   name="leftClickColorGreen"/>
           <InterpolatingParam id="65" interp="linr"  time="-9999999/1" value="255" leadInLength="0/1"   name="leftClickColorRed"/>
           <InterpolatingParam id="66" interp="linr"  time="-9999999/1" value="0.80000000000000004" leadInLength="0/1"   name="leftClickDuration"/>
           <InterpolatingParam id="67" interp="linr"  time="-9999999/1" value="20" leadInLength="0/1"   name="leftClickSize"/>
           <Parameter id="68"   name="leftClickSoundFilename">
            <Keyframes>
            <Keyframe id="69"  time="-9999999/1" value="" leadInLength="0/1"  />
            </Keyframes>
           </Parameter>
           <InterpolatingParam id="70" interp="linr"  time="-9999999/1" value="1" leadInLength="0/1"   name="leftClickSoundVolume"/>
           <Parameter id="71"   name="leftClickType">
            <Keyframes>
            <Keyframe id="72"  time="-9999999/1" value="0" leadInLength="0/1"  />
            </Keyframes>
           </Parameter>
           <InterpolatingParam id="73" interp="linr"  time="-9999999/1" value="1" leadInLength="0/1"   name="opacity"/>
           <InterpolatingParam id="74" interp="linr"  time="-9999999/1" value="255" leadInLength="0/1"   name="rightClickColorBlue"/>
           <InterpolatingParam id="75" interp="linr"  time="-9999999/1" value="0" leadInLength="0/1"   name="rightClickColorGreen"/>
           <InterpolatingParam id="76" interp="linr"  time="-9999999/1" value="0" leadInLength="0/1"   name="rightClickColorRed"/>
           <InterpolatingParam id="77" interp="linr"  time="-9999999/1" value="0.80000000000000004" leadInLength="0/1"   name="rightClickDuration"/>
           <InterpolatingParam id="78" interp="linr"  time="-9999999/1" value="20" leadInLength="0/1"   name="rightClickSize"/>
           <Parameter id="79"   name="rightClickSoundFilename">
            <Keyframes>
            <Keyframe id="80"  time="-9999999/1" value="" leadInLength="0/1"  />
            </Keyframes>
           </Parameter>
           <InterpolatingParam id="81" interp="linr"  time="-9999999/1" value="1" leadInLength="0/1"   name="rightClickSoundVolume"/>
           <Parameter id="82"   name="rightClickType">
            <Keyframes>
            <Keyframe id="83"  time="-9999999/1" value="0" leadInLength="0/1"  />
            </Keyframes>
           </Parameter>
           </Parameters>
          </GenericEffect>
         </Effects>
         <Attributes>
          <Attribute id="84" value="" name="ident"/>
         </Attributes>
         <MetaData>
          <entry key="AutoAppliedSmartFocus" val="False"/>
          <entry key="WinSubProjectDisplayName" val=""/>
         </MetaData>
         <ExtraData>
          <Entry key="ZoomPanBin">
           <ZoomPanBin id="85"  >
            <ZoomPanKeyframes>
             <ZoomPanKeyframe id="86" timeRangeEnd="-9999999/1" timeRangeDuration="0/1" interpolaterName="linr"  />
            </ZoomPanKeyframes>
           </ZoomPanBin>
          </Entry>
          <Entry key="CursorEffectBin">
           <CursorEffectBin id="87"  >
            <CursorEffectKeyframes>
             <CursorEffectKeyframe id="88" timeRangeEnd="-9999999/1" timeRangeDuration="0/1" interpolaterName=""  />
            </CursorEffectKeyframes>
           </CursorEffectBin>
          </Entry>
         </ExtraData>
         <GenericTrack id="89"  >
          <Attributes>
           <Attribute id="90" value="" name="ident"/>
           <Attribute id="91" value="0" name="audioMuted"/>
           <Attribute id="92" value="0" name="videoHidden"/>
          </Attributes>
          <MetaData>
           <entry key="IsLocked" val="False"/>
           <entry key="WinTrackHeight" val="0"/>
          </MetaData>
          <Medias>
           <ScreenVMFile id="93" start="0" duration="101" scalar="1/1" mediaStart="0/1" mediaDuration="101/1" trackNumber="0" src="4" >
            <Transformer>
             <VectorParam id="94"  name="translation">
              <InterpolatingParam id="95" interp="linr"  time="-9999999/1" value="0" leadInLength="0/1"  />
              <InterpolatingParam id="96" interp="linr"  time="-9999999/1" value="0" leadInLength="0/1"  />
              <InterpolatingParam id="97" interp="linr"  time="-9999999/1" value="0" leadInLength="0/1"  />
             </VectorParam>
             <VectorParam id="98"  name="rotation">
              <InterpolatingParam id="99" interp="linr"  time="-9999999/1" value="0" leadInLength="0/1"  />
              <InterpolatingParam id="100" interp="linr"  time="-9999999/1" value="0" leadInLength="0/1"  />
              <InterpolatingParam id="101" interp="linr"  time="-9999999/1" value="0" leadInLength="0/1"  />
             </VectorParam>
             <VectorParam id="102"  name="shear">
              <InterpolatingParam id="103" interp="linr"  time="-9999999/1" value="0" leadInLength="0/1"  />
              <InterpolatingParam id="104" interp="linr"  time="-9999999/1" value="0" leadInLength="0/1"  />
              <InterpolatingParam id="105" interp="linr"  time="-9999999/1" value="0" leadInLength="0/1"  />
             </VectorParam>
             <VectorParam id="106"  name="scale">
              <InterpolatingParam id="107" interp="linr"  time="-9999999/1" value="1" leadInLength="0/1"  />
              <InterpolatingParam id="108" interp="linr"  time="-9999999/1" value="1" leadInLength="0/1"  />
              <InterpolatingParam id="109" interp="linr"  time="-9999999/1" value="1" leadInLength="0/1"  />
             </VectorParam>
             <VectorParam id="110"  name="anchor">
              <InterpolatingParam id="111" interp="linr"  time="0/1" value="0" leadInLength="0/1"  />
              <InterpolatingParam id="112" interp="linr"  time="0/1" value="0" leadInLength="0/1"  />
              <InterpolatingParam id="113" interp="linr"  time="0/1" value="0" leadInLength="0/1"  />
             </VectorParam>
            </Transformer>
            <Parameters>
             <VectorParam id="114"  name="sourceCrop">
              <InterpolatingParam id="115" interp="linr"  time="0/1" value="0" leadInLength="0/1"  />
              <InterpolatingParam id="116" interp="linr"  time="0/1" value="0" leadInLength="0/1"  />
              <InterpolatingParam id="117" interp="linr"  time="0/1" value="0" leadInLength="0/1"  />
              <InterpolatingParam id="118" interp="linr"  time="0/1" value="0" leadInLength="0/1"  />
             </VectorParam>
             <VectorParam id="119"  name="geometryCrop">
              <InterpolatingParam id="120" interp="linr"  time="-9999999/1" value="0" leadInLength="0/1"  />
              <InterpolatingParam id="121" interp="linr"  time="-9999999/1" value="0" leadInLength="0/1"  />
              <InterpolatingParam id="122" interp="linr"  time="-9999999/1" value="0" leadInLength="0/1"  />
              <InterpolatingParam id="123" interp="linr"  time="-9999999/1" value="0" leadInLength="0/1"  />
             </VectorParam>
             <InterpolatingParam id="124" interp="linr"  time="-9999999/1" value="1" leadInLength="0/1"  name="opacity"/>
             <InterpolatingParam id="125" interp="linr"  time="0/1" value="0" leadInLength="0/1"  name="cursorOpacity"/>
             <InterpolatingParam id="126" interp="linr"  time="0/1" value="0" leadInLength="0/1"  name="cursorScale"/>
            </Parameters>
            <Attributes>
             <Attribute id="127" value="" name="ident"/>
            </Attributes>
            <MetaData>
             <entry key="AutoAppliedSmartFocus" val="False"/>
             <entry key="WinSubProjectDisplayName" val=""/>
            </MetaData>
            <ExtraData>
             <Entry key="ZoomPanBin">
              <ZoomPanBin id="128"  >
               <ZoomPanKeyframes>
                <ZoomPanKeyframe id="129" timeRangeEnd="-9999999/1" timeRangeDuration="0/1" interpolaterName=""  />
               </ZoomPanKeyframes>
              </ZoomPanBin>
             </Entry>
             <Entry key="CursorEffectBin">
              <CursorEffectBin id="130"  >
               <CursorEffectKeyframes>
               </CursorEffectKeyframes>
              </CursorEffectBin>
             </Entry>
            </ExtraData>
           </ScreenVMFile>
           <ScreenVMFile id="131" start="101" duration="73" scalar="1/1" mediaStart="140/1" mediaDuration="73/1" trackNumber="0" src="4" >
            <Transformer>
             <VectorParam id="132"  name="translation">
              <InterpolatingParam id="133" interp="linr"  time="-9999999/1" value="0" leadInLength="0/1"  />
              <InterpolatingParam id="134" interp="linr"  time="-9999999/1" value="0" leadInLength="0/1"  />
              <InterpolatingParam id="135" interp="linr"  time="-9999999/1" value="0" leadInLength="0/1"  />
             </VectorParam>
             <VectorParam id="136"  name="rotation">
              <InterpolatingParam id="137" interp="linr"  time="-9999999/1" value="0" leadInLength="0/1"  />
              <InterpolatingParam id="138" interp="linr"  time="-9999999/1" value="0" leadInLength="0/1"  />
              <InterpolatingParam id="139" interp="linr"  time="-9999999/1" value="0" leadInLength="0/1"  />
             </VectorParam>
             <VectorParam id="140"  name="shear">
              <InterpolatingParam id="141" interp="linr"  time="-9999999/1" value="0" leadInLength="0/1"  />
              <InterpolatingParam id="142" interp="linr"  time="-9999999/1" value="0" leadInLength="0/1"  />
              <InterpolatingParam id="143" interp="linr"  time="-9999999/1" value="0" leadInLength="0/1"  />
             </VectorParam>
             <VectorParam id="144"  name="scale">
              <InterpolatingParam id="145" interp="linr"  time="-9999999/1" value="1" leadInLength="0/1"  />
              <InterpolatingParam id="146" interp="linr"  time="-9999999/1" value="1" leadInLength="0/1"  />
              <InterpolatingParam id="147" interp="linr"  time="-9999999/1" value="1" leadInLength="0/1"  />
             </VectorParam>
             <VectorParam id="148"  name="anchor">
              <InterpolatingParam id="149" interp="linr"  time="0/1" value="0" leadInLength="0/1"  />
              <InterpolatingParam id="150" interp="linr"  time="0/1" value="0" leadInLength="0/1"  />
              <InterpolatingParam id="151" interp="linr"  time="0/1" value="0" leadInLength="0/1"  />
             </VectorParam>
            </Transformer>
            <Parameters>
             <VectorParam id="152"  name="sourceCrop">
              <InterpolatingParam id="153" interp="linr"  time="0/1" value="0" leadInLength="0/1"  />
              <InterpolatingParam id="154" interp="linr"  time="0/1" value="0" leadInLength="0/1"  />
              <InterpolatingParam id="155" interp="linr"  time="0/1" value="0" leadInLength="0/1"  />
              <InterpolatingParam id="156" interp="linr"  time="0/1" value="0" leadInLength="0/1"  />
             </VectorParam>
             <VectorParam id="157"  name="geometryCrop">
              <InterpolatingParam id="158" interp="linr"  time="-9999999/1" value="0" leadInLength="0/1"  />
              <InterpolatingParam id="159" interp="linr"  time="-9999999/1" value="0" leadInLength="0/1"  />
              <InterpolatingParam id="160" interp="linr"  time="-9999999/1" value="0" leadInLength="0/1"  />
              <InterpolatingParam id="161" interp="linr"  time="-9999999/1" value="0" leadInLength="0/1"  />
             </VectorParam>
             <InterpolatingParam id="162" interp="linr"  time="-9999999/1" value="1" leadInLength="0/1"  name="opacity"/>
             <InterpolatingParam id="163" interp="linr"  time="0/1" value="0" leadInLength="0/1"  name="cursorOpacity"/>
             <InterpolatingParam id="164" interp="linr"  time="0/1" value="0" leadInLength="0/1"  name="cursorScale"/>
            </Parameters>
            <Attributes>
             <Attribute id="165" value="" name="ident"/>
            </Attributes>
            <MetaData>
             <entry key="AutoAppliedSmartFocus" val="False"/>
             <entry key="WinSubProjectDisplayName" val=""/>
            </MetaData>
            <ExtraData>
             <Entry key="ZoomPanBin">
              <ZoomPanBin id="166"  >
               <ZoomPanKeyframes>
                <ZoomPanKeyframe id="167" timeRangeEnd="-9999999/1" timeRangeDuration="0/1" interpolaterName=""  />
               </ZoomPanKeyframes>
              </ZoomPanBin>
             </Entry>
             <Entry key="CursorEffectBin">
              <CursorEffectBin id="168"  >
               <CursorEffectKeyframes>
               </CursorEffectKeyframes>
              </CursorEffectBin>
             </Entry>
            </ExtraData>
           </ScreenVMFile>
           <ScreenVMFile id="169" start="174" duration="132" scalar="1/1" mediaStart="233/1" mediaDuration="132/1" trackNumber="0" src="4" >
            <Transformer>
             <VectorParam id="170"  name="translation">
              <InterpolatingParam id="171" interp="linr"  time="-9999999/1" value="0" leadInLength="0/1"  />
              <InterpolatingParam id="172" interp="linr"  time="-9999999/1" value="0" leadInLength="0/1"  />
              <InterpolatingParam id="173" interp="linr"  time="-9999999/1" value="0" leadInLength="0/1"  />
             </VectorParam>
             <VectorParam id="174"  name="rotation">
              <InterpolatingParam id="175" interp="linr"  time="-9999999/1" value="0" leadInLength="0/1"  />
              <InterpolatingParam id="176" interp="linr"  time="-9999999/1" value="0" leadInLength="0/1"  />
              <InterpolatingParam id="177" interp="linr"  time="-9999999/1" value="0" leadInLength="0/1"  />
             </VectorParam>
             <VectorParam id="178"  name="shear">
              <InterpolatingParam id="179" interp="linr"  time="-9999999/1" value="0" leadInLength="0/1"  />
              <InterpolatingParam id="180" interp="linr"  time="-9999999/1" value="0" leadInLength="0/1"  />
              <InterpolatingParam id="181" interp="linr"  time="-9999999/1" value="0" leadInLength="0/1"  />
             </VectorParam>
             <VectorParam id="182"  name="scale">
              <InterpolatingParam id="183" interp="linr"  time="-9999999/1" value="1" leadInLength="0/1"  />
              <InterpolatingParam id="184" interp="linr"  time="-9999999/1" value="1" leadInLength="0/1"  />
              <InterpolatingParam id="185" interp="linr"  time="-9999999/1" value="1" leadInLength="0/1"  />
             </VectorParam>
             <VectorParam id="186"  name="anchor">
              <InterpolatingParam id="187" interp="linr"  time="0/1" value="0" leadInLength="0/1"  />
              <InterpolatingParam id="188" interp="linr"  time="0/1" value="0" leadInLength="0/1"  />
              <InterpolatingParam id="189" interp="linr"  time="0/1" value="0" leadInLength="0/1"  />
             </VectorParam>
            </Transformer>
            <Parameters>
             <VectorParam id="190"  name="sourceCrop">
              <InterpolatingParam id="191" interp="linr"  time="0/1" value="0" leadInLength="0/1"  />
              <InterpolatingParam id="192" interp="linr"  time="0/1" value="0" leadInLength="0/1"  />
              <InterpolatingParam id="193" interp="linr"  time="0/1" value="0" leadInLength="0/1"  />
              <InterpolatingParam id="194" interp="linr"  time="0/1" value="0" leadInLength="0/1"  />
             </VectorParam>
             <VectorParam id="195"  name="geometryCrop">
              <InterpolatingParam id="196" interp="linr"  time="-9999999/1" value="0" leadInLength="0/1"  />
              <InterpolatingParam id="197" interp="linr"  time="-9999999/1" value="0" leadInLength="0/1"  />
              <InterpolatingParam id="198" interp="linr"  time="-9999999/1" value="0" leadInLength="0/1"  />
              <InterpolatingParam id="199" interp="linr"  time="-9999999/1" value="0" leadInLength="0/1"  />
             </VectorParam>
             <InterpolatingParam id="200" interp="linr"  time="-9999999/1" value="1" leadInLength="0/1"  name="opacity"/>
             <InterpolatingParam id="201" interp="linr"  time="0/1" value="0" leadInLength="0/1"  name="cursorOpacity"/>
             <InterpolatingParam id="202" interp="linr"  time="0/1" value="0" leadInLength="0/1"  name="cursorScale"/>
            </Parameters>
            <Attributes>
             <Attribute id="203" value="" name="ident"/>
            </Attributes>
            <MetaData>
             <entry key="AutoAppliedSmartFocus" val="False"/>
             <entry key="WinSubProjectDisplayName" val=""/>
            </MetaData>
            <ExtraData>
             <Entry key="ZoomPanBin">
              <ZoomPanBin id="204"  >
               <ZoomPanKeyframes>
                <ZoomPanKeyframe id="205" timeRangeEnd="-9999999/1" timeRangeDuration="0/1" interpolaterName=""  />
               </ZoomPanKeyframes>
              </ZoomPanBin>
             </Entry>
             <Entry key="CursorEffectBin">
              <CursorEffectBin id="206"  >
               <CursorEffectKeyframes>
               </CursorEffectKeyframes>
              </CursorEffectBin>
             </Entry>
            </ExtraData>
           </ScreenVMFile>
           <ScreenVMFile id="207" start="306" duration="92" scalar="1/1" mediaStart="383/1" mediaDuration="92/1" trackNumber="0" src="4" >
            <Transformer>
             <VectorParam id="208"  name="translation">
              <InterpolatingParam id="209" interp="linr"  time="-9999999/1" value="0" leadInLength="0/1"  />
              <InterpolatingParam id="210" interp="linr"  time="-9999999/1" value="0" leadInLength="0/1"  />
              <InterpolatingParam id="211" interp="linr"  time="-9999999/1" value="0" leadInLength="0/1"  />
             </VectorParam>
             <VectorParam id="212"  name="rotation">
              <InterpolatingParam id="213" interp="linr"  time="-9999999/1" value="0" leadInLength="0/1"  />
              <InterpolatingParam id="214" interp="linr"  time="-9999999/1" value="0" leadInLength="0/1"  />
              <InterpolatingParam id="215" interp="linr"  time="-9999999/1" value="0" leadInLength="0/1"  />
             </VectorParam>
             <VectorParam id="216"  name="shear">
              <InterpolatingParam id="217" interp="linr"  time="-9999999/1" value="0" leadInLength="0/1"  />
              <InterpolatingParam id="218" interp="linr"  time="-9999999/1" value="0" leadInLength="0/1"  />
              <InterpolatingParam id="219" interp="linr"  time="-9999999/1" value="0" leadInLength="0/1"  />
             </VectorParam>
             <VectorParam id="220"  name="scale">
              <InterpolatingParam id="221" interp="linr"  time="-9999999/1" value="1" leadInLength="0/1"  />
              <InterpolatingParam id="222" interp="linr"  time="-9999999/1" value="1" leadInLength="0/1"  />
              <InterpolatingParam id="223" interp="linr"  time="-9999999/1" value="1" leadInLength="0/1"  />
             </VectorParam>
             <VectorParam id="224"  name="anchor">
              <InterpolatingParam id="225" interp="linr"  time="0/1" value="0" leadInLength="0/1"  />
              <InterpolatingParam id="226" interp="linr"  time="0/1" value="0" leadInLength="0/1"  />
              <InterpolatingParam id="227" interp="linr"  time="0/1" value="0" leadInLength="0/1"  />
             </VectorParam>
            </Transformer>
            <Parameters>
             <VectorParam id="228"  name="sourceCrop">
              <InterpolatingParam id="229" interp="linr"  time="0/1" value="0" leadInLength="0/1"  />
              <InterpolatingParam id="230" interp="linr"  time="0/1" value="0" leadInLength="0/1"  />
              <InterpolatingParam id="231" interp="linr"  time="0/1" value="0" leadInLength="0/1"  />
              <InterpolatingParam id="232" interp="linr"  time="0/1" value="0" leadInLength="0/1"  />
             </VectorParam>
             <VectorParam id="233"  name="geometryCrop">
              <InterpolatingParam id="234" interp="linr"  time="-9999999/1" value="0" leadInLength="0/1"  />
              <InterpolatingParam id="235" interp="linr"  time="-9999999/1" value="0" leadInLength="0/1"  />
              <InterpolatingParam id="236" interp="linr"  time="-9999999/1" value="0" leadInLength="0/1"  />
              <InterpolatingParam id="237" interp="linr"  time="-9999999/1" value="0" leadInLength="0/1"  />
             </VectorParam>
             <InterpolatingParam id="238" interp="linr"  time="-9999999/1" value="1" leadInLength="0/1"  name="opacity"/>
             <InterpolatingParam id="239" interp="linr"  time="0/1" value="0" leadInLength="0/1"  name="cursorOpacity"/>
             <InterpolatingParam id="240" interp="linr"  time="0/1" value="0" leadInLength="0/1"  name="cursorScale"/>
            </Parameters>
            <Attributes>
             <Attribute id="241" value="" name="ident"/>
            </Attributes>
            <MetaData>
             <entry key="AutoAppliedSmartFocus" val="False"/>
             <entry key="WinSubProjectDisplayName" val=""/>
            </MetaData>
            <ExtraData>
             <Entry key="ZoomPanBin">
              <ZoomPanBin id="242"  >
               <ZoomPanKeyframes>
                <ZoomPanKeyframe id="243" timeRangeEnd="-9999999/1" timeRangeDuration="0/1" interpolaterName=""  />
               </ZoomPanKeyframes>
              </ZoomPanBin>
             </Entry>
             <Entry key="CursorEffectBin">
              <CursorEffectBin id="244"  >
               <CursorEffectKeyframes>
               </CursorEffectKeyframes>
              </CursorEffectBin>
             </Entry>
            </ExtraData>
           </ScreenVMFile>
           <ScreenVMFile id="245" start="398" duration="178" scalar="1/1" mediaStart="497/1" mediaDuration="178/1" trackNumber="0" src="4" >
            <Transformer>
             <VectorParam id="246"  name="translation">
              <InterpolatingParam id="247" interp="linr"  time="-9999999/1" value="0" leadInLength="0/1"  />
              <InterpolatingParam id="248" interp="linr"  time="-9999999/1" value="0" leadInLength="0/1"  />
              <InterpolatingParam id="249" interp="linr"  time="-9999999/1" value="0" leadInLength="0/1"  />
             </VectorParam>
             <VectorParam id="250"  name="rotation">
              <InterpolatingParam id="251" interp="linr"  time="-9999999/1" value="0" leadInLength="0/1"  />
              <InterpolatingParam id="252" interp="linr"  time="-9999999/1" value="0" leadInLength="0/1"  />
              <InterpolatingParam id="253" interp="linr"  time="-9999999/1" value="0" leadInLength="0/1"  />
             </VectorParam>
             <VectorParam id="254"  name="shear">
              <InterpolatingParam id="255" interp="linr"  time="-9999999/1" value="0" leadInLength="0/1"  />
              <InterpolatingParam id="256" interp="linr"  time="-9999999/1" value="0" leadInLength="0/1"  />
              <InterpolatingParam id="257" interp="linr"  time="-9999999/1" value="0" leadInLength="0/1"  />
             </VectorParam>
             <VectorParam id="258"  name="scale">
              <InterpolatingParam id="259" interp="linr"  time="-9999999/1" value="1" leadInLength="0/1"  />
              <InterpolatingParam id="260" interp="linr"  time="-9999999/1" value="1" leadInLength="0/1"  />
              <InterpolatingParam id="261" interp="linr"  time="-9999999/1" value="1" leadInLength="0/1"  />
             </VectorParam>
             <VectorParam id="262"  name="anchor">
              <InterpolatingParam id="263" interp="linr"  time="0/1" value="0" leadInLength="0/1"  />
              <InterpolatingParam id="264" interp="linr"  time="0/1" value="0" leadInLength="0/1"  />
              <InterpolatingParam id="265" interp="linr"  time="0/1" value="0" leadInLength="0/1"  />
             </VectorParam>
            </Transformer>
            <Parameters>
             <VectorParam id="266"  name="sourceCrop">
              <InterpolatingParam id="267" interp="linr"  time="0/1" value="0" leadInLength="0/1"  />
              <InterpolatingParam id="268" interp="linr"  time="0/1" value="0" leadInLength="0/1"  />
              <InterpolatingParam id="269" interp="linr"  time="0/1" value="0" leadInLength="0/1"  />
              <InterpolatingParam id="270" interp="linr"  time="0/1" value="0" leadInLength="0/1"  />
             </VectorParam>
             <VectorParam id="271"  name="geometryCrop">
              <InterpolatingParam id="272" interp="linr"  time="-9999999/1" value="0" leadInLength="0/1"  />
              <InterpolatingParam id="273" interp="linr"  time="-9999999/1" value="0" leadInLength="0/1"  />
              <InterpolatingParam id="274" interp="linr"  time="-9999999/1" value="0" leadInLength="0/1"  />
              <InterpolatingParam id="275" interp="linr"  time="-9999999/1" value="0" leadInLength="0/1"  />
             </VectorParam>
             <InterpolatingParam id="276" interp="linr"  time="-9999999/1" value="1" leadInLength="0/1"  name="opacity"/>
             <InterpolatingParam id="277" interp="linr"  time="0/1" value="0" leadInLength="0/1"  name="cursorOpacity"/>
             <InterpolatingParam id="278" interp="linr"  time="0/1" value="0" leadInLength="0/1"  name="cursorScale"/>
            </Parameters>
            <Attributes>
             <Attribute id="279" value="" name="ident"/>
            </Attributes>
            <MetaData>
             <entry key="AutoAppliedSmartFocus" val="False"/>
             <entry key="WinSubProjectDisplayName" val=""/>
            </MetaData>
            <ExtraData>
             <Entry key="ZoomPanBin">
              <ZoomPanBin id="280"  >
               <ZoomPanKeyframes>
                <ZoomPanKeyframe id="281" timeRangeEnd="-9999999/1" timeRangeDuration="0/1" interpolaterName=""  />
               </ZoomPanKeyframes>
              </ZoomPanBin>
             </Entry>
             <Entry key="CursorEffectBin">
              <CursorEffectBin id="282"  >
               <CursorEffectKeyframes>
               </CursorEffectKeyframes>
              </CursorEffectBin>
             </Entry>
            </ExtraData>
           </ScreenVMFile>
           <ScreenVMFile id="283" start="576" duration="22" scalar="1/1" mediaStart="680/1" mediaDuration="22/1" trackNumber="0" src="4" >
            <Transformer>
             <VectorParam id="284"  name="translation">
              <InterpolatingParam id="285" interp="linr"  time="-9999999/1" value="0" leadInLength="0/1"  />
              <InterpolatingParam id="286" interp="linr"  time="-9999999/1" value="0" leadInLength="0/1"  />
              <InterpolatingParam id="287" interp="linr"  time="-9999999/1" value="0" leadInLength="0/1"  />
             </VectorParam>
             <VectorParam id="288"  name="rotation">
              <InterpolatingParam id="289" interp="linr"  time="-9999999/1" value="0" leadInLength="0/1"  />
              <InterpolatingParam id="290" interp="linr"  time="-9999999/1" value="0" leadInLength="0/1"  />
              <InterpolatingParam id="291" interp="linr"  time="-9999999/1" value="0" leadInLength="0/1"  />
             </VectorParam>
             <VectorParam id="292"  name="shear">
              <InterpolatingParam id="293" interp="linr"  time="-9999999/1" value="0" leadInLength="0/1"  />
              <InterpolatingParam id="294" interp="linr"  time="-9999999/1" value="0" leadInLength="0/1"  />
              <InterpolatingParam id="295" interp="linr"  time="-9999999/1" value="0" leadInLength="0/1"  />
             </VectorParam>
             <VectorParam id="296"  name="scale">
              <InterpolatingParam id="297" interp="linr"  time="-9999999/1" value="1" leadInLength="0/1"  />
              <InterpolatingParam id="298" interp="linr"  time="-9999999/1" value="1" leadInLength="0/1"  />
              <InterpolatingParam id="299" interp="linr"  time="-9999999/1" value="1" leadInLength="0/1"  />
             </VectorParam>
             <VectorParam id="300"  name="anchor">
              <InterpolatingParam id="301" interp="linr"  time="0/1" value="0" leadInLength="0/1"  />
              <InterpolatingParam id="302" interp="linr"  time="0/1" value="0" leadInLength="0/1"  />
              <InterpolatingParam id="303" interp="linr"  time="0/1" value="0" leadInLength="0/1"  />
             </VectorParam>
            </Transformer>
            <Parameters>
             <VectorParam id="304"  name="sourceCrop">
              <InterpolatingParam id="305" interp="linr"  time="0/1" value="0" leadInLength="0/1"  />
              <InterpolatingParam id="306" interp="linr"  time="0/1" value="0" leadInLength="0/1"  />
              <InterpolatingParam id="307" interp="linr"  time="0/1" value="0" leadInLength="0/1"  />
              <InterpolatingParam id="308" interp="linr"  time="0/1" value="0" leadInLength="0/1"  />
             </VectorParam>
             <VectorParam id="309"  name="geometryCrop">
              <InterpolatingParam id="310" interp="linr"  time="-9999999/1" value="0" leadInLength="0/1"  />
              <InterpolatingParam id="311" interp="linr"  time="-9999999/1" value="0" leadInLength="0/1"  />
              <InterpolatingParam id="312" interp="linr"  time="-9999999/1" value="0" leadInLength="0/1"  />
              <InterpolatingParam id="313" interp="linr"  time="-9999999/1" value="0" leadInLength="0/1"  />
             </VectorParam>
             <InterpolatingParam id="314" interp="linr"  time="-9999999/1" value="1" leadInLength="0/1"  name="opacity"/>
             <InterpolatingParam id="315" interp="linr"  time="0/1" value="0" leadInLength="0/1"  name="cursorOpacity"/>
             <InterpolatingParam id="316" interp="linr"  time="0/1" value="0" leadInLength="0/1"  name="cursorScale"/>
            </Parameters>
            <Attributes>
             <Attribute id="317" value="" name="ident"/>
            </Attributes>
            <MetaData>
             <entry key="AutoAppliedSmartFocus" val="False"/>
             <entry key="WinSubProjectDisplayName" val=""/>
            </MetaData>
            <ExtraData>
             <Entry key="ZoomPanBin">
              <ZoomPanBin id="318"  >
               <ZoomPanKeyframes>
                <ZoomPanKeyframe id="319" timeRangeEnd="-9999999/1" timeRangeDuration="0/1" interpolaterName=""  />
               </ZoomPanKeyframes>
              </ZoomPanBin>
             </Entry>
             <Entry key="CursorEffectBin">
              <CursorEffectBin id="320"  >
               <CursorEffectKeyframes>
               </CursorEffectKeyframes>
              </CursorEffectBin>
             </Entry>
            </ExtraData>
           </ScreenVMFile>
           <ScreenVMFile id="321" start="598" duration="160" scalar="1/1" mediaStart="710/1" mediaDuration="160/1" trackNumber="0" src="4" >
            <Transformer>
             <VectorParam id="322"  name="translation">
              <InterpolatingParam id="323" interp="linr"  time="-9999999/1" value="0" leadInLength="0/1"  />
              <InterpolatingParam id="324" interp="linr"  time="-9999999/1" value="0" leadInLength="0/1"  />
              <InterpolatingParam id="325" interp="linr"  time="-9999999/1" value="0" leadInLength="0/1"  />
             </VectorParam>
             <VectorParam id="326"  name="rotation">
              <InterpolatingParam id="327" interp="linr"  time="-9999999/1" value="0" leadInLength="0/1"  />
              <InterpolatingParam id="328" interp="linr"  time="-9999999/1" value="0" leadInLength="0/1"  />
              <InterpolatingParam id="329" interp="linr"  time="-9999999/1" value="0" leadInLength="0/1"  />
             </VectorParam>
             <VectorParam id="330"  name="shear">
              <InterpolatingParam id="331" interp="linr"  time="-9999999/1" value="0" leadInLength="0/1"  />
              <InterpolatingParam id="332" interp="linr"  time="-9999999/1" value="0" leadInLength="0/1"  />
              <InterpolatingParam id="333" interp="linr"  time="-9999999/1" value="0" leadInLength="0/1"  />
             </VectorParam>
             <VectorParam id="334"  name="scale">
              <InterpolatingParam id="335" interp="linr"  time="-9999999/1" value="1" leadInLength="0/1"  />
              <InterpolatingParam id="336" interp="linr"  time="-9999999/1" value="1" leadInLength="0/1"  />
              <InterpolatingParam id="337" interp="linr"  time="-9999999/1" value="1" leadInLength="0/1"  />
             </VectorParam>
             <VectorParam id="338"  name="anchor">
              <InterpolatingParam id="339" interp="linr"  time="0/1" value="0" leadInLength="0/1"  />
              <InterpolatingParam id="340" interp="linr"  time="0/1" value="0" leadInLength="0/1"  />
              <InterpolatingParam id="341" interp="linr"  time="0/1" value="0" leadInLength="0/1"  />
             </VectorParam>
            </Transformer>
            <Parameters>
             <VectorParam id="342"  name="sourceCrop">
              <InterpolatingParam id="343" interp="linr"  time="0/1" value="0" leadInLength="0/1"  />
              <InterpolatingParam id="344" interp="linr"  time="0/1" value="0" leadInLength="0/1"  />
              <InterpolatingParam id="345" interp="linr"  time="0/1" value="0" leadInLength="0/1"  />
              <InterpolatingParam id="346" interp="linr"  time="0/1" value="0" leadInLength="0/1"  />
             </VectorParam>
             <VectorParam id="347"  name="geometryCrop">
              <InterpolatingParam id="348" interp="linr"  time="-9999999/1" value="0" leadInLength="0/1"  />
              <InterpolatingParam id="349" interp="linr"  time="-9999999/1" value="0" leadInLength="0/1"  />
              <InterpolatingParam id="350" interp="linr"  time="-9999999/1" value="0" leadInLength="0/1"  />
              <InterpolatingParam id="351" interp="linr"  time="-9999999/1" value="0" leadInLength="0/1"  />
             </VectorParam>
             <InterpolatingParam id="352" interp="linr"  time="-9999999/1" value="1" leadInLength="0/1"  name="opacity"/>
             <InterpolatingParam id="353" interp="linr"  time="0/1" value="0" leadInLength="0/1"  name="cursorOpacity"/>
             <InterpolatingParam id="354" interp="linr"  time="0/1" value="0" leadInLength="0/1"  name="cursorScale"/>
            </Parameters>
            <Attributes>
             <Attribute id="355" value="" name="ident"/>
            </Attributes>
            <MetaData>
             <entry key="AutoAppliedSmartFocus" val="False"/>
             <entry key="WinSubProjectDisplayName" val=""/>
            </MetaData>
            <ExtraData>
             <Entry key="ZoomPanBin">
              <ZoomPanBin id="356"  >
               <ZoomPanKeyframes>
                <ZoomPanKeyframe id="357" timeRangeEnd="-9999999/1" timeRangeDuration="0/1" interpolaterName=""  />
               </ZoomPanKeyframes>
              </ZoomPanBin>
             </Entry>
             <Entry key="CursorEffectBin">
              <CursorEffectBin id="358"  >
               <CursorEffectKeyframes>
               </CursorEffectKeyframes>
              </CursorEffectBin>
             </Entry>
            </ExtraData>
           </ScreenVMFile>
           <ScreenVMFile id="359" start="758" duration="87" scalar="1/1" mediaStart="885/1" mediaDuration="87/1" trackNumber="0" src="4" >
            <Transformer>
             <VectorParam id="360"  name="translation">
              <InterpolatingParam id="361" interp="linr"  time="-9999999/1" value="0" leadInLength="0/1"  />
              <InterpolatingParam id="362" interp="linr"  time="-9999999/1" value="0" leadInLength="0/1"  />
              <InterpolatingParam id="363" interp="linr"  time="-9999999/1" value="0" leadInLength="0/1"  />
             </VectorParam>
             <VectorParam id="364"  name="rotation">
              <InterpolatingParam id="365" interp="linr"  time="-9999999/1" value="0" leadInLength="0/1"  />
              <InterpolatingParam id="366" interp="linr"  time="-9999999/1" value="0" leadInLength="0/1"  />
              <InterpolatingParam id="367" interp="linr"  time="-9999999/1" value="0" leadInLength="0/1"  />
             </VectorParam>
             <VectorParam id="368"  name="shear">
              <InterpolatingParam id="369" interp="linr"  time="-9999999/1" value="0" leadInLength="0/1"  />
              <InterpolatingParam id="370" interp="linr"  time="-9999999/1" value="0" leadInLength="0/1"  />
              <InterpolatingParam id="371" interp="linr"  time="-9999999/1" value="0" leadInLength="0/1"  />
             </VectorParam>
             <VectorParam id="372"  name="scale">
              <InterpolatingParam id="373" interp="linr"  time="-9999999/1" value="1" leadInLength="0/1"  />
              <InterpolatingParam id="374" interp="linr"  time="-9999999/1" value="1" leadInLength="0/1"  />
              <InterpolatingParam id="375" interp="linr"  time="-9999999/1" value="1" leadInLength="0/1"  />
             </VectorParam>
             <VectorParam id="376"  name="anchor">
              <InterpolatingParam id="377" interp="linr"  time="0/1" value="0" leadInLength="0/1"  />
              <InterpolatingParam id="378" interp="linr"  time="0/1" value="0" leadInLength="0/1"  />
              <InterpolatingParam id="379" interp="linr"  time="0/1" value="0" leadInLength="0/1"  />
             </VectorParam>
            </Transformer>
            <Parameters>
             <VectorParam id="380"  name="sourceCrop">
              <InterpolatingParam id="381" interp="linr"  time="0/1" value="0" leadInLength="0/1"  />
              <InterpolatingParam id="382" interp="linr"  time="0/1" value="0" leadInLength="0/1"  />
              <InterpolatingParam id="383" interp="linr"  time="0/1" value="0" leadInLength="0/1"  />
              <InterpolatingParam id="384" interp="linr"  time="0/1" value="0" leadInLength="0/1"  />
             </VectorParam>
             <VectorParam id="385"  name="geometryCrop">
              <InterpolatingParam id="386" interp="linr"  time="-9999999/1" value="0" leadInLength="0/1"  />
              <InterpolatingParam id="387" interp="linr"  time="-9999999/1" value="0" leadInLength="0/1"  />
              <InterpolatingParam id="388" interp="linr"  time="-9999999/1" value="0" leadInLength="0/1"  />
              <InterpolatingParam id="389" interp="linr"  time="-9999999/1" value="0" leadInLength="0/1"  />
             </VectorParam>
             <InterpolatingParam id="390" interp="linr"  time="-9999999/1" value="1" leadInLength="0/1"  name="opacity"/>
             <InterpolatingParam id="391" interp="linr"  time="0/1" value="0" leadInLength="0/1"  name="cursorOpacity"/>
             <InterpolatingParam id="392" interp="linr"  time="0/1" value="0" leadInLength="0/1"  name="cursorScale"/>
            </Parameters>
            <Attributes>
             <Attribute id="393" value="" name="ident"/>
            </Attributes>
            <MetaData>
             <entry key="AutoAppliedSmartFocus" val="False"/>
             <entry key="WinSubProjectDisplayName" val=""/>
            </MetaData>
            <ExtraData>
             <Entry key="ZoomPanBin">
              <ZoomPanBin id="394"  >
               <ZoomPanKeyframes>
                <ZoomPanKeyframe id="395" timeRangeEnd="-9999999/1" timeRangeDuration="0/1" interpolaterName=""  />
               </ZoomPanKeyframes>
              </ZoomPanBin>
             </Entry>
             <Entry key="CursorEffectBin">
              <CursorEffectBin id="396"  >
               <CursorEffectKeyframes>
               </CursorEffectKeyframes>
              </CursorEffectBin>
             </Entry>
            </ExtraData>
           </ScreenVMFile>
           <ScreenVMFile id="397" start="845" duration="254" scalar="1/1" mediaStart="1020/1" mediaDuration="254/1" trackNumber="0" src="4" >
            <Transformer>
             <VectorParam id="398"  name="translation">
              <InterpolatingParam id="399" interp="linr"  time="-9999999/1" value="0" leadInLength="0/1"  />
              <InterpolatingParam id="400" interp="linr"  time="-9999999/1" value="0" leadInLength="0/1"  />
              <InterpolatingParam id="401" interp="linr"  time="-9999999/1" value="0" leadInLength="0/1"  />
             </VectorParam>
             <VectorParam id="402"  name="rotation">
              <InterpolatingParam id="403" interp="linr"  time="-9999999/1" value="0" leadInLength="0/1"  />
              <InterpolatingParam id="404" interp="linr"  time="-9999999/1" value="0" leadInLength="0/1"  />
              <InterpolatingParam id="405" interp="linr"  time="-9999999/1" value="0" leadInLength="0/1"  />
             </VectorParam>
             <VectorParam id="406"  name="shear">
              <InterpolatingParam id="407" interp="linr"  time="-9999999/1" value="0" leadInLength="0/1"  />
              <InterpolatingParam id="408" interp="linr"  time="-9999999/1" value="0" leadInLength="0/1"  />
              <InterpolatingParam id="409" interp="linr"  time="-9999999/1" value="0" leadInLength="0/1"  />
             </VectorParam>
             <VectorParam id="410"  name="scale">
              <InterpolatingParam id="411" interp="linr"  time="-9999999/1" value="1" leadInLength="0/1"  />
              <InterpolatingParam id="412" interp="linr"  time="-9999999/1" value="1" leadInLength="0/1"  />
              <InterpolatingParam id="413" interp="linr"  time="-9999999/1" value="1" leadInLength="0/1"  />
             </VectorParam>
             <VectorParam id="414"  name="anchor">
              <InterpolatingParam id="415" interp="linr"  time="0/1" value="0" leadInLength="0/1"  />
              <InterpolatingParam id="416" interp="linr"  time="0/1" value="0" leadInLength="0/1"  />
              <InterpolatingParam id="417" interp="linr"  time="0/1" value="0" leadInLength="0/1"  />
             </VectorParam>
            </Transformer>
            <Parameters>
             <VectorParam id="418"  name="sourceCrop">
              <InterpolatingParam id="419" interp="linr"  time="0/1" value="0" leadInLength="0/1"  />
              <InterpolatingParam id="420" interp="linr"  time="0/1" value="0" leadInLength="0/1"  />
              <InterpolatingParam id="421" interp="linr"  time="0/1" value="0" leadInLength="0/1"  />
              <InterpolatingParam id="422" interp="linr"  time="0/1" value="0" leadInLength="0/1"  />
             </VectorParam>
             <VectorParam id="423"  name="geometryCrop">
              <InterpolatingParam id="424" interp="linr"  time="-9999999/1" value="0" leadInLength="0/1"  />
              <InterpolatingParam id="425" interp="linr"  time="-9999999/1" value="0" leadInLength="0/1"  />
              <InterpolatingParam id="426" interp="linr"  time="-9999999/1" value="0" leadInLength="0/1"  />
              <InterpolatingParam id="427" interp="linr"  time="-9999999/1" value="0" leadInLength="0/1"  />
             </VectorParam>
             <InterpolatingParam id="428" interp="linr"  time="-9999999/1" value="1" leadInLength="0/1"  name="opacity"/>
             <InterpolatingParam id="429" interp="linr"  time="0/1" value="0" leadInLength="0/1"  name="cursorOpacity"/>
             <InterpolatingParam id="430" interp="linr"  time="0/1" value="0" leadInLength="0/1"  name="cursorScale"/>
            </Parameters>
            <Attributes>
             <Attribute id="431" value="" name="ident"/>
            </Attributes>
            <MetaData>
             <entry key="AutoAppliedSmartFocus" val="False"/>
             <entry key="WinSubProjectDisplayName" val=""/>
            </MetaData>
            <ExtraData>
             <Entry key="ZoomPanBin">
              <ZoomPanBin id="432"  >
               <ZoomPanKeyframes>
                <ZoomPanKeyframe id="433" timeRangeEnd="-9999999/1" timeRangeDuration="0/1" interpolaterName=""  />
               </ZoomPanKeyframes>
              </ZoomPanBin>
             </Entry>
             <Entry key="CursorEffectBin">
              <CursorEffectBin id="434"  >
               <CursorEffectKeyframes>
               </CursorEffectKeyframes>
              </CursorEffectBin>
             </Entry>
            </ExtraData>
           </ScreenVMFile>
           <ScreenVMFile id="435" start="1099" duration="60" scalar="1/1" mediaStart="1302/1" mediaDuration="60/1" trackNumber="0" src="4" >
            <Transformer>
             <VectorParam id="436"  name="translation">
              <InterpolatingParam id="437" interp="linr"  time="-9999999/1" value="0" leadInLength="0/1"  />
              <InterpolatingParam id="438" interp="linr"  time="-9999999/1" value="0" leadInLength="0/1"  />
              <InterpolatingParam id="439" interp="linr"  time="-9999999/1" value="0" leadInLength="0/1"  />
             </VectorParam>
             <VectorParam id="440"  name="rotation">
              <InterpolatingParam id="441" interp="linr"  time="-9999999/1" value="0" leadInLength="0/1"  />
              <InterpolatingParam id="442" interp="linr"  time="-9999999/1" value="0" leadInLength="0/1"  />
              <InterpolatingParam id="443" interp="linr"  time="-9999999/1" value="0" leadInLength="0/1"  />
             </VectorParam>
             <VectorParam id="444"  name="shear">
              <InterpolatingParam id="445" interp="linr"  time="-9999999/1" value="0" leadInLength="0/1"  />
              <InterpolatingParam id="446" interp="linr"  time="-9999999/1" value="0" leadInLength="0/1"  />
              <InterpolatingParam id="447" interp="linr"  time="-9999999/1" value="0" leadInLength="0/1"  />
             </VectorParam>
             <VectorParam id="448"  name="scale">
              <InterpolatingParam id="449" interp="linr"  time="-9999999/1" value="1" leadInLength="0/1"  />
              <InterpolatingParam id="450" interp="linr"  time="-9999999/1" value="1" leadInLength="0/1"  />
              <InterpolatingParam id="451" interp="linr"  time="-9999999/1" value="1" leadInLength="0/1"  />
             </VectorParam>
             <VectorParam id="452"  name="anchor">
              <InterpolatingParam id="453" interp="linr"  time="0/1" value="0" leadInLength="0/1"  />
              <InterpolatingParam id="454" interp="linr"  time="0/1" value="0" leadInLength="0/1"  />
              <InterpolatingParam id="455" interp="linr"  time="0/1" value="0" leadInLength="0/1"  />
             </VectorParam>
            </Transformer>
            <Parameters>
             <VectorParam id="456"  name="sourceCrop">
              <InterpolatingParam id="457" interp="linr"  time="0/1" value="0" leadInLength="0/1"  />
              <InterpolatingParam id="458" interp="linr"  time="0/1" value="0" leadInLength="0/1"  />
              <InterpolatingParam id="459" interp="linr"  time="0/1" value="0" leadInLength="0/1"  />
              <InterpolatingParam id="460" interp="linr"  time="0/1" value="0" leadInLength="0/1"  />
             </VectorParam>
             <VectorParam id="461"  name="geometryCrop">
              <InterpolatingParam id="462" interp="linr"  time="-9999999/1" value="0" leadInLength="0/1"  />
              <InterpolatingParam id="463" interp="linr"  time="-9999999/1" value="0" leadInLength="0/1"  />
              <InterpolatingParam id="464" interp="linr"  time="-9999999/1" value="0" leadInLength="0/1"  />
              <InterpolatingParam id="465" interp="linr"  time="-9999999/1" value="0" leadInLength="0/1"  />
             </VectorParam>
             <InterpolatingParam id="466" interp="linr"  time="-9999999/1" value="1" leadInLength="0/1"  name="opacity"/>
             <InterpolatingParam id="467" interp="linr"  time="0/1" value="0" leadInLength="0/1"  name="cursorOpacity"/>
             <InterpolatingParam id="468" interp="linr"  time="0/1" value="0" leadInLength="0/1"  name="cursorScale"/>
            </Parameters>
            <Attributes>
             <Attribute id="469" value="" name="ident"/>
            </Attributes>
            <MetaData>
             <entry key="AutoAppliedSmartFocus" val="False"/>
             <entry key="WinSubProjectDisplayName" val=""/>
            </MetaData>
            <ExtraData>
             <Entry key="ZoomPanBin">
              <ZoomPanBin id="470"  >
               <ZoomPanKeyframes>
                <ZoomPanKeyframe id="471" timeRangeEnd="-9999999/1" timeRangeDuration="0/1" interpolaterName=""  />
               </ZoomPanKeyframes>
              </ZoomPanBin>
             </Entry>
             <Entry key="CursorEffectBin">
              <CursorEffectBin id="472"  >
               <CursorEffectKeyframes>
               </CursorEffectKeyframes>
              </CursorEffectBin>
             </Entry>
            </ExtraData>
           </ScreenVMFile>
           <ScreenVMFile id="473" start="1159" duration="135" scalar="1/1" mediaStart="1370/1" mediaDuration="135/1" trackNumber="0" src="4" >
            <Transformer>
             <VectorParam id="474"  name="translation">
              <InterpolatingParam id="475" interp="linr"  time="-9999999/1" value="0" leadInLength="0/1"  />
              <InterpolatingParam id="476" interp="linr"  time="-9999999/1" value="0" leadInLength="0/1"  />
              <InterpolatingParam id="477" interp="linr"  time="-9999999/1" value="0" leadInLength="0/1"  />
             </VectorParam>
             <VectorParam id="478"  name="rotation">
              <InterpolatingParam id="479" interp="linr"  time="-9999999/1" value="0" leadInLength="0/1"  />
              <InterpolatingParam id="480" interp="linr"  time="-9999999/1" value="0" leadInLength="0/1"  />
              <InterpolatingParam id="481" interp="linr"  time="-9999999/1" value="0" leadInLength="0/1"  />
             </VectorParam>
             <VectorParam id="482"  name="shear">
              <InterpolatingParam id="483" interp="linr"  time="-9999999/1" value="0" leadInLength="0/1"  />
              <InterpolatingParam id="484" interp="linr"  time="-9999999/1" value="0" leadInLength="0/1"  />
              <InterpolatingParam id="485" interp="linr"  time="-9999999/1" value="0" leadInLength="0/1"  />
             </VectorParam>
             <VectorParam id="486"  name="scale">
              <InterpolatingParam id="487" interp="linr"  time="-9999999/1" value="1" leadInLength="0/1"  />
              <InterpolatingParam id="488" interp="linr"  time="-9999999/1" value="1" leadInLength="0/1"  />
              <InterpolatingParam id="489" interp="linr"  time="-9999999/1" value="1" leadInLength="0/1"  />
             </VectorParam>
             <VectorParam id="490"  name="anchor">
              <InterpolatingParam id="491" interp="linr"  time="0/1" value="0" leadInLength="0/1"  />
              <InterpolatingParam id="492" interp="linr"  time="0/1" value="0" leadInLength="0/1"  />
              <InterpolatingParam id="493" interp="linr"  time="0/1" value="0" leadInLength="0/1"  />
             </VectorParam>
            </Transformer>
            <Parameters>
             <VectorParam id="494"  name="sourceCrop">
              <InterpolatingParam id="495" interp="linr"  time="0/1" value="0" leadInLength="0/1"  />
              <InterpolatingParam id="496" interp="linr"  time="0/1" value="0" leadInLength="0/1"  />
              <InterpolatingParam id="497" interp="linr"  time="0/1" value="0" leadInLength="0/1"  />
              <InterpolatingParam id="498" interp="linr"  time="0/1" value="0" leadInLength="0/1"  />
             </VectorParam>
             <VectorParam id="499"  name="geometryCrop">
              <InterpolatingParam id="500" interp="linr"  time="-9999999/1" value="0" leadInLength="0/1"  />
              <InterpolatingParam id="501" interp="linr"  time="-9999999/1" value="0" leadInLength="0/1"  />
              <InterpolatingParam id="502" interp="linr"  time="-9999999/1" value="0" leadInLength="0/1"  />
              <InterpolatingParam id="503" interp="linr"  time="-9999999/1" value="0" leadInLength="0/1"  />
             </VectorParam>
             <InterpolatingParam id="504" interp="linr"  time="-9999999/1" value="1" leadInLength="0/1"  name="opacity"/>
             <InterpolatingParam id="505" interp="linr"  time="0/1" value="0" leadInLength="0/1"  name="cursorOpacity"/>
             <InterpolatingParam id="506" interp="linr"  time="0/1" value="0" leadInLength="0/1"  name="cursorScale"/>
            </Parameters>
            <Attributes>
             <Attribute id="507" value="" name="ident"/>
            </Attributes>
            <MetaData>
             <entry key="AutoAppliedSmartFocus" val="False"/>
             <entry key="WinSubProjectDisplayName" val=""/>
            </MetaData>
            <ExtraData>
             <Entry key="ZoomPanBin">
              <ZoomPanBin id="508"  >
               <ZoomPanKeyframes>
                <ZoomPanKeyframe id="509" timeRangeEnd="-9999999/1" timeRangeDuration="0/1" interpolaterName=""  />
               </ZoomPanKeyframes>
              </ZoomPanBin>
             </Entry>
             <Entry key="CursorEffectBin">
              <CursorEffectBin id="510"  >
               <CursorEffectKeyframes>
               </CursorEffectKeyframes>
              </CursorEffectBin>
             </Entry>
            </ExtraData>
           </ScreenVMFile>
           <ScreenVMFile id="511" start="1294" duration="88" scalar="1/1" mediaStart="1520/1" mediaDuration="88/1" trackNumber="0" src="4" >
            <Transformer>
             <VectorParam id="512"  name="translation">
              <InterpolatingParam id="513" interp="linr"  time="-9999999/1" value="0" leadInLength="0/1"  />
              <InterpolatingParam id="514" interp="linr"  time="-9999999/1" value="0" leadInLength="0/1"  />
              <InterpolatingParam id="515" interp="linr"  time="-9999999/1" value="0" leadInLength="0/1"  />
             </VectorParam>
             <VectorParam id="516"  name="rotation">
              <InterpolatingParam id="517" interp="linr"  time="-9999999/1" value="0" leadInLength="0/1"  />
              <InterpolatingParam id="518" interp="linr"  time="-9999999/1" value="0" leadInLength="0/1"  />
              <InterpolatingParam id="519" interp="linr"  time="-9999999/1" value="0" leadInLength="0/1"  />
             </VectorParam>
             <VectorParam id="520"  name="shear">
              <InterpolatingParam id="521" interp="linr"  time="-9999999/1" value="0" leadInLength="0/1"  />
              <InterpolatingParam id="522" interp="linr"  time="-9999999/1" value="0" leadInLength="0/1"  />
              <InterpolatingParam id="523" interp="linr"  time="-9999999/1" value="0" leadInLength="0/1"  />
             </VectorParam>
             <VectorParam id="524"  name="scale">
              <InterpolatingParam id="525" interp="linr"  time="-9999999/1" value="1" leadInLength="0/1"  />
              <InterpolatingParam id="526" interp="linr"  time="-9999999/1" value="1" leadInLength="0/1"  />
              <InterpolatingParam id="527" interp="linr"  time="-9999999/1" value="1" leadInLength="0/1"  />
             </VectorParam>
             <VectorParam id="528"  name="anchor">
              <InterpolatingParam id="529" interp="linr"  time="0/1" value="0" leadInLength="0/1"  />
              <InterpolatingParam id="530" interp="linr"  time="0/1" value="0" leadInLength="0/1"  />
              <InterpolatingParam id="531" interp="linr"  time="0/1" value="0" leadInLength="0/1"  />
             </VectorParam>
            </Transformer>
            <Parameters>
             <VectorParam id="532"  name="sourceCrop">
              <InterpolatingParam id="533" interp="linr"  time="0/1" value="0" leadInLength="0/1"  />
              <InterpolatingParam id="534" interp="linr"  time="0/1" value="0" leadInLength="0/1"  />
              <InterpolatingParam id="535" interp="linr"  time="0/1" value="0" leadInLength="0/1"  />
              <InterpolatingParam id="536" interp="linr"  time="0/1" value="0" leadInLength="0/1"  />
             </VectorParam>
             <VectorParam id="537"  name="geometryCrop">
              <InterpolatingParam id="538" interp="linr"  time="-9999999/1" value="0" leadInLength="0/1"  />
              <InterpolatingParam id="539" interp="linr"  time="-9999999/1" value="0" leadInLength="0/1"  />
              <InterpolatingParam id="540" interp="linr"  time="-9999999/1" value="0" leadInLength="0/1"  />
              <InterpolatingParam id="541" interp="linr"  time="-9999999/1" value="0" leadInLength="0/1"  />
             </VectorParam>
             <InterpolatingParam id="542" interp="linr"  time="-9999999/1" value="1" leadInLength="0/1"  name="opacity"/>
             <InterpolatingParam id="543" interp="linr"  time="0/1" value="0" leadInLength="0/1"  name="cursorOpacity"/>
             <InterpolatingParam id="544" interp="linr"  time="0/1" value="0" leadInLength="0/1"  name="cursorScale"/>
            </Parameters>
            <Attributes>
             <Attribute id="545" value="" name="ident"/>
            </Attributes>
            <MetaData>
             <entry key="AutoAppliedSmartFocus" val="False"/>
             <entry key="WinSubProjectDisplayName" val=""/>
            </MetaData>
            <ExtraData>
             <Entry key="ZoomPanBin">
              <ZoomPanBin id="546"  >
               <ZoomPanKeyframes>
                <ZoomPanKeyframe id="547" timeRangeEnd="-9999999/1" timeRangeDuration="0/1" interpolaterName=""  />
               </ZoomPanKeyframes>
              </ZoomPanBin>
             </Entry>
             <Entry key="CursorEffectBin">
              <CursorEffectBin id="548"  >
               <CursorEffectKeyframes>
               </CursorEffectKeyframes>
              </CursorEffectBin>
             </Entry>
            </ExtraData>
           </ScreenVMFile>
           <ScreenVMFile id="549" start="1382" duration="15" scalar="1/1" mediaStart="1629/1" mediaDuration="15/1" trackNumber="0" src="4" >
            <Transformer>
             <VectorParam id="550"  name="translation">
              <InterpolatingParam id="551" interp="linr"  time="-9999999/1" value="0" leadInLength="0/1"  />
              <InterpolatingParam id="552" interp="linr"  time="-9999999/1" value="0" leadInLength="0/1"  />
              <InterpolatingParam id="553" interp="linr"  time="-9999999/1" value="0" leadInLength="0/1"  />
             </VectorParam>
             <VectorParam id="554"  name="rotation">
              <InterpolatingParam id="555" interp="linr"  time="-9999999/1" value="0" leadInLength="0/1"  />
              <InterpolatingParam id="556" interp="linr"  time="-9999999/1" value="0" leadInLength="0/1"  />
              <InterpolatingParam id="557" interp="linr"  time="-9999999/1" value="0" leadInLength="0/1"  />
             </VectorParam>
             <VectorParam id="558"  name="shear">
              <InterpolatingParam id="559" interp="linr"  time="-9999999/1" value="0" leadInLength="0/1"  />
              <InterpolatingParam id="560" interp="linr"  time="-9999999/1" value="0" leadInLength="0/1"  />
              <InterpolatingParam id="561" interp="linr"  time="-9999999/1" value="0" leadInLength="0/1"  />
             </VectorParam>
             <VectorParam id="562"  name="scale">
              <InterpolatingParam id="563" interp="linr"  time="-9999999/1" value="1" leadInLength="0/1"  />
              <InterpolatingParam id="564" interp="linr"  time="-9999999/1" value="1" leadInLength="0/1"  />
              <InterpolatingParam id="565" interp="linr"  time="-9999999/1" value="1" leadInLength="0/1"  />
             </VectorParam>
             <VectorParam id="566"  name="anchor">
              <InterpolatingParam id="567" interp="linr"  time="0/1" value="0" leadInLength="0/1"  />
              <InterpolatingParam id="568" interp="linr"  time="0/1" value="0" leadInLength="0/1"  />
              <InterpolatingParam id="569" interp="linr"  time="0/1" value="0" leadInLength="0/1"  />
             </VectorParam>
            </Transformer>
            <Parameters>
             <VectorParam id="570"  name="sourceCrop">
              <InterpolatingParam id="571" interp="linr"  time="0/1" value="0" leadInLength="0/1"  />
              <InterpolatingParam id="572" interp="linr"  time="0/1" value="0" leadInLength="0/1"  />
              <InterpolatingParam id="573" interp="linr"  time="0/1" value="0" leadInLength="0/1"  />
              <InterpolatingParam id="574" interp="linr"  time="0/1" value="0" leadInLength="0/1"  />
             </VectorParam>
             <VectorParam id="575"  name="geometryCrop">
              <InterpolatingParam id="576" interp="linr"  time="-9999999/1" value="0" leadInLength="0/1"  />
              <InterpolatingParam id="577" interp="linr"  time="-9999999/1" value="0" leadInLength="0/1"  />
              <InterpolatingParam id="578" interp="linr"  time="-9999999/1" value="0" leadInLength="0/1"  />
              <InterpolatingParam id="579" interp="linr"  time="-9999999/1" value="0" leadInLength="0/1"  />
             </VectorParam>
             <InterpolatingParam id="580" interp="linr"  time="-9999999/1" value="1" leadInLength="0/1"  name="opacity"/>
             <InterpolatingParam id="581" interp="linr"  time="0/1" value="0" leadInLength="0/1"  name="cursorOpacity"/>
             <InterpolatingParam id="582" interp="linr"  time="0/1" value="0" leadInLength="0/1"  name="cursorScale"/>
            </Parameters>
            <Attributes>
             <Attribute id="583" value="" name="ident"/>
            </Attributes>
            <MetaData>
             <entry key="AutoAppliedSmartFocus" val="False"/>
             <entry key="WinSubProjectDisplayName" val=""/>
            </MetaData>
            <ExtraData>
             <Entry key="ZoomPanBin">
              <ZoomPanBin id="584"  >
               <ZoomPanKeyframes>
                <ZoomPanKeyframe id="585" timeRangeEnd="-9999999/1" timeRangeDuration="0/1" interpolaterName=""  />
               </ZoomPanKeyframes>
              </ZoomPanBin>
             </Entry>
             <Entry key="CursorEffectBin">
              <CursorEffectBin id="586"  >
               <CursorEffectKeyframes>
               </CursorEffectKeyframes>
              </CursorEffectBin>
             </Entry>
            </ExtraData>
           </ScreenVMFile>
           <ScreenVMFile id="587" start="1397" duration="1" scalar="1/1" mediaStart="1767/1" mediaDuration="1/1" trackNumber="0" src="4" >
            <Transformer>
             <VectorParam id="588"  name="translation">
              <InterpolatingParam id="589" interp="linr"  time="-9999999/1" value="0" leadInLength="0/1"  />
              <InterpolatingParam id="590" interp="linr"  time="-9999999/1" value="0" leadInLength="0/1"  />
              <InterpolatingParam id="591" interp="linr"  time="-9999999/1" value="0" leadInLength="0/1"  />
             </VectorParam>
             <VectorParam id="592"  name="rotation">
              <InterpolatingParam id="593" interp="linr"  time="-9999999/1" value="0" leadInLength="0/1"  />
              <InterpolatingParam id="594" interp="linr"  time="-9999999/1" value="0" leadInLength="0/1"  />
              <InterpolatingParam id="595" interp="linr"  time="-9999999/1" value="0" leadInLength="0/1"  />
             </VectorParam>
             <VectorParam id="596"  name="shear">
              <InterpolatingParam id="597" interp="linr"  time="-9999999/1" value="0" leadInLength="0/1"  />
              <InterpolatingParam id="598" interp="linr"  time="-9999999/1" value="0" leadInLength="0/1"  />
              <InterpolatingParam id="599" interp="linr"  time="-9999999/1" value="0" leadInLength="0/1"  />
             </VectorParam>
             <VectorParam id="600"  name="scale">
              <InterpolatingParam id="601" interp="linr"  time="-9999999/1" value="1" leadInLength="0/1"  />
              <InterpolatingParam id="602" interp="linr"  time="-9999999/1" value="1" leadInLength="0/1"  />
              <InterpolatingParam id="603" interp="linr"  time="-9999999/1" value="1" leadInLength="0/1"  />
             </VectorParam>
             <VectorParam id="604"  name="anchor">
              <InterpolatingParam id="605" interp="linr"  time="0/1" value="0" leadInLength="0/1"  />
              <InterpolatingParam id="606" interp="linr"  time="0/1" value="0" leadInLength="0/1"  />
              <InterpolatingParam id="607" interp="linr"  time="0/1" value="0" leadInLength="0/1"  />
             </VectorParam>
            </Transformer>
            <Parameters>
             <VectorParam id="608"  name="sourceCrop">
              <InterpolatingParam id="609" interp="linr"  time="0/1" value="0" leadInLength="0/1"  />
              <InterpolatingParam id="610" interp="linr"  time="0/1" value="0" leadInLength="0/1"  />
              <InterpolatingParam id="611" interp="linr"  time="0/1" value="0" leadInLength="0/1"  />
              <InterpolatingParam id="612" interp="linr"  time="0/1" value="0" leadInLength="0/1"  />
             </VectorParam>
             <VectorParam id="613"  name="geometryCrop">
              <InterpolatingParam id="614" interp="linr"  time="-9999999/1" value="0" leadInLength="0/1"  />
              <InterpolatingParam id="615" interp="linr"  time="-9999999/1" value="0" leadInLength="0/1"  />
              <InterpolatingParam id="616" interp="linr"  time="-9999999/1" value="0" leadInLength="0/1"  />
              <InterpolatingParam id="617" interp="linr"  time="-9999999/1" value="0" leadInLength="0/1"  />
             </VectorParam>
             <InterpolatingParam id="618" interp="linr"  time="-9999999/1" value="1" leadInLength="0/1"  name="opacity"/>
             <InterpolatingParam id="619" interp="linr"  time="0/1" value="0" leadInLength="0/1"  name="cursorOpacity"/>
             <InterpolatingParam id="620" interp="linr"  time="0/1" value="0" leadInLength="0/1"  name="cursorScale"/>
            </Parameters>
            <Attributes>
             <Attribute id="621" value="" name="ident"/>
            </Attributes>
            <MetaData>
             <entry key="AutoAppliedSmartFocus" val="False"/>
             <entry key="WinSubProjectDisplayName" val=""/>
            </MetaData>
            <ExtraData>
             <Entry key="ZoomPanBin">
              <ZoomPanBin id="622"  >
               <ZoomPanKeyframes>
                <ZoomPanKeyframe id="623" timeRangeEnd="-9999999/1" timeRangeDuration="0/1" interpolaterName=""  />
               </ZoomPanKeyframes>
              </ZoomPanBin>
             </Entry>
             <Entry key="CursorEffectBin">
              <CursorEffectBin id="624"  >
               <CursorEffectKeyframes>
               </CursorEffectKeyframes>
              </CursorEffectBin>
             </Entry>
            </ExtraData>
           </ScreenVMFile>
           <ScreenVMFile id="625" start="1398" duration="70" scalar="1/1" mediaStart="1885/1" mediaDuration="70/1" trackNumber="0" src="4" >
            <Transformer>
             <VectorParam id="626"  name="translation">
              <InterpolatingParam id="627" interp="linr"  time="-9999999/1" value="0" leadInLength="0/1"  />
              <InterpolatingParam id="628" interp="linr"  time="-9999999/1" value="0" leadInLength="0/1"  />
              <InterpolatingParam id="629" interp="linr"  time="-9999999/1" value="0" leadInLength="0/1"  />
             </VectorParam>
             <VectorParam id="630"  name="rotation">
              <InterpolatingParam id="631" interp="linr"  time="-9999999/1" value="0" leadInLength="0/1"  />
              <InterpolatingParam id="632" interp="linr"  time="-9999999/1" value="0" leadInLength="0/1"  />
              <InterpolatingParam id="633" interp="linr"  time="-9999999/1" value="0" leadInLength="0/1"  />
             </VectorParam>
             <VectorParam id="634"  name="shear">
              <InterpolatingParam id="635" interp="linr"  time="-9999999/1" value="0" leadInLength="0/1"  />
              <InterpolatingParam id="636" interp="linr"  time="-9999999/1" value="0" leadInLength="0/1"  />
              <InterpolatingParam id="637" interp="linr"  time="-9999999/1" value="0" leadInLength="0/1"  />
             </VectorParam>
             <VectorParam id="638"  name="scale">
              <InterpolatingParam id="639" interp="linr"  time="-9999999/1" value="1" leadInLength="0/1"  />
              <InterpolatingParam id="640" interp="linr"  time="-9999999/1" value="1" leadInLength="0/1"  />
              <InterpolatingParam id="641" interp="linr"  time="-9999999/1" value="1" leadInLength="0/1"  />
             </VectorParam>
             <VectorParam id="642"  name="anchor">
              <InterpolatingParam id="643" interp="linr"  time="0/1" value="0" leadInLength="0/1"  />
              <InterpolatingParam id="644" interp="linr"  time="0/1" value="0" leadInLength="0/1"  />
              <InterpolatingParam id="645" interp="linr"  time="0/1" value="0" leadInLength="0/1"  />
             </VectorParam>
            </Transformer>
            <Parameters>
             <VectorParam id="646"  name="sourceCrop">
              <InterpolatingParam id="647" interp="linr"  time="0/1" value="0" leadInLength="0/1"  />
              <InterpolatingParam id="648" interp="linr"  time="0/1" value="0" leadInLength="0/1"  />
              <InterpolatingParam id="649" interp="linr"  time="0/1" value="0" leadInLength="0/1"  />
              <InterpolatingParam id="650" interp="linr"  time="0/1" value="0" leadInLength="0/1"  />
             </VectorParam>
             <VectorParam id="651"  name="geometryCrop">
              <InterpolatingParam id="652" interp="linr"  time="-9999999/1" value="0" leadInLength="0/1"  />
              <InterpolatingParam id="653" interp="linr"  time="-9999999/1" value="0" leadInLength="0/1"  />
              <InterpolatingParam id="654" interp="linr"  time="-9999999/1" value="0" leadInLength="0/1"  />
              <InterpolatingParam id="655" interp="linr"  time="-9999999/1" value="0" leadInLength="0/1"  />
             </VectorParam>
             <InterpolatingParam id="656" interp="linr"  time="-9999999/1" value="1" leadInLength="0/1"  name="opacity"/>
             <InterpolatingParam id="657" interp="linr"  time="0/1" value="0" leadInLength="0/1"  name="cursorOpacity"/>
             <InterpolatingParam id="658" interp="linr"  time="0/1" value="0" leadInLength="0/1"  name="cursorScale"/>
            </Parameters>
            <Attributes>
             <Attribute id="659" value="" name="ident"/>
            </Attributes>
            <MetaData>
             <entry key="AutoAppliedSmartFocus" val="False"/>
             <entry key="WinSubProjectDisplayName" val=""/>
            </MetaData>
            <ExtraData>
             <Entry key="ZoomPanBin">
              <ZoomPanBin id="660"  >
               <ZoomPanKeyframes>
                <ZoomPanKeyframe id="661" timeRangeEnd="-9999999/1" timeRangeDuration="0/1" interpolaterName=""  />
               </ZoomPanKeyframes>
              </ZoomPanBin>
             </Entry>
             <Entry key="CursorEffectBin">
              <CursorEffectBin id="662"  >
               <CursorEffectKeyframes>
               </CursorEffectKeyframes>
              </CursorEffectBin>
             </Entry>
            </ExtraData>
           </ScreenVMFile>
           <ScreenVMFile id="663" start="1468" duration="317" scalar="1/1" mediaStart="1987/1" mediaDuration="317/1" trackNumber="0" src="4" >
            <Transformer>
             <VectorParam id="664"  name="translation">
              <InterpolatingParam id="665" interp="linr"  time="-9999999/1" value="0" leadInLength="0/1"  />
              <InterpolatingParam id="666" interp="linr"  time="-9999999/1" value="0" leadInLength="0/1"  />
              <InterpolatingParam id="667" interp="linr"  time="-9999999/1" value="0" leadInLength="0/1"  />
             </VectorParam>
             <VectorParam id="668"  name="rotation">
              <InterpolatingParam id="669" interp="linr"  time="-9999999/1" value="0" leadInLength="0/1"  />
              <InterpolatingParam id="670" interp="linr"  time="-9999999/1" value="0" leadInLength="0/1"  />
              <InterpolatingParam id="671" interp="linr"  time="-9999999/1" value="0" leadInLength="0/1"  />
             </VectorParam>
             <VectorParam id="672"  name="shear">
              <InterpolatingParam id="673" interp="linr"  time="-9999999/1" value="0" leadInLength="0/1"  />
              <InterpolatingParam id="674" interp="linr"  time="-9999999/1" value="0" leadInLength="0/1"  />
              <InterpolatingParam id="675" interp="linr"  time="-9999999/1" value="0" leadInLength="0/1"  />
             </VectorParam>
             <VectorParam id="676"  name="scale">
              <InterpolatingParam id="677" interp="linr"  time="-9999999/1" value="1" leadInLength="0/1"  />
              <InterpolatingParam id="678" interp="linr"  time="-9999999/1" value="1" leadInLength="0/1"  />
              <InterpolatingParam id="679" interp="linr"  time="-9999999/1" value="1" leadInLength="0/1"  />
             </VectorParam>
             <VectorParam id="680"  name="anchor">
              <InterpolatingParam id="681" interp="linr"  time="0/1" value="0" leadInLength="0/1"  />
              <InterpolatingParam id="682" interp="linr"  time="0/1" value="0" leadInLength="0/1"  />
              <InterpolatingParam id="683" interp="linr"  time="0/1" value="0" leadInLength="0/1"  />
             </VectorParam>
            </Transformer>
            <Parameters>
             <VectorParam id="684"  name="sourceCrop">
              <InterpolatingParam id="685" interp="linr"  time="0/1" value="0" leadInLength="0/1"  />
              <InterpolatingParam id="686" interp="linr"  time="0/1" value="0" leadInLength="0/1"  />
              <InterpolatingParam id="687" interp="linr"  time="0/1" value="0" leadInLength="0/1"  />
              <InterpolatingParam id="688" interp="linr"  time="0/1" value="0" leadInLength="0/1"  />
             </VectorParam>
             <VectorParam id="689"  name="geometryCrop">
              <InterpolatingParam id="690" interp="linr"  time="-9999999/1" value="0" leadInLength="0/1"  />
              <InterpolatingParam id="691" interp="linr"  time="-9999999/1" value="0" leadInLength="0/1"  />
              <InterpolatingParam id="692" interp="linr"  time="-9999999/1" value="0" leadInLength="0/1"  />
              <InterpolatingParam id="693" interp="linr"  time="-9999999/1" value="0" leadInLength="0/1"  />
             </VectorParam>
             <InterpolatingParam id="694" interp="linr"  time="-9999999/1" value="1" leadInLength="0/1"  name="opacity"/>
             <InterpolatingParam id="695" interp="linr"  time="0/1" value="0" leadInLength="0/1"  name="cursorOpacity"/>
             <InterpolatingParam id="696" interp="linr"  time="0/1" value="0" leadInLength="0/1"  name="cursorScale"/>
            </Parameters>
            <Attributes>
             <Attribute id="697" value="" name="ident"/>
            </Attributes>
            <MetaData>
             <entry key="AutoAppliedSmartFocus" val="False"/>
             <entry key="WinSubProjectDisplayName" val=""/>
            </MetaData>
            <ExtraData>
             <Entry key="ZoomPanBin">
              <ZoomPanBin id="698"  >
               <ZoomPanKeyframes>
                <ZoomPanKeyframe id="699" timeRangeEnd="-9999999/1" timeRangeDuration="0/1" interpolaterName=""  />
               </ZoomPanKeyframes>
              </ZoomPanBin>
             </Entry>
             <Entry key="CursorEffectBin">
              <CursorEffectBin id="700"  >
               <CursorEffectKeyframes>
               </CursorEffectKeyframes>
              </CursorEffectBin>
             </Entry>
            </ExtraData>
           </ScreenVMFile>
           <ScreenVMFile id="701" start="1785" duration="115" scalar="1/1" mediaStart="2350/1" mediaDuration="115/1" trackNumber="0" src="4" >
            <Transformer>
             <VectorParam id="702"  name="translation">
              <InterpolatingParam id="703" interp="linr"  time="-9999999/1" value="0" leadInLength="0/1"  />
              <InterpolatingParam id="704" interp="linr"  time="-9999999/1" value="0" leadInLength="0/1"  />
              <InterpolatingParam id="705" interp="linr"  time="-9999999/1" value="0" leadInLength="0/1"  />
             </VectorParam>
             <VectorParam id="706"  name="rotation">
              <InterpolatingParam id="707" interp="linr"  time="-9999999/1" value="0" leadInLength="0/1"  />
              <InterpolatingParam id="708" interp="linr"  time="-9999999/1" value="0" leadInLength="0/1"  />
              <InterpolatingParam id="709" interp="linr"  time="-9999999/1" value="0" leadInLength="0/1"  />
             </VectorParam>
             <VectorParam id="710"  name="shear">
              <InterpolatingParam id="711" interp="linr"  time="-9999999/1" value="0" leadInLength="0/1"  />
              <InterpolatingParam id="712" interp="linr"  time="-9999999/1" value="0" leadInLength="0/1"  />
              <InterpolatingParam id="713" interp="linr"  time="-9999999/1" value="0" leadInLength="0/1"  />
             </VectorParam>
             <VectorParam id="714"  name="scale">
              <InterpolatingParam id="715" interp="linr"  time="-9999999/1" value="1" leadInLength="0/1"  />
              <InterpolatingParam id="716" interp="linr"  time="-9999999/1" value="1" leadInLength="0/1"  />
              <InterpolatingParam id="717" interp="linr"  time="-9999999/1" value="1" leadInLength="0/1"  />
             </VectorParam>
             <VectorParam id="718"  name="anchor">
              <InterpolatingParam id="719" interp="linr"  time="0/1" value="0" leadInLength="0/1"  />
              <InterpolatingParam id="720" interp="linr"  time="0/1" value="0" leadInLength="0/1"  />
              <InterpolatingParam id="721" interp="linr"  time="0/1" value="0" leadInLength="0/1"  />
             </VectorParam>
            </Transformer>
            <Parameters>
             <VectorParam id="722"  name="sourceCrop">
              <InterpolatingParam id="723" interp="linr"  time="0/1" value="0" leadInLength="0/1"  />
              <InterpolatingParam id="724" interp="linr"  time="0/1" value="0" leadInLength="0/1"  />
              <InterpolatingParam id="725" interp="linr"  time="0/1" value="0" leadInLength="0/1"  />
              <InterpolatingParam id="726" interp="linr"  time="0/1" value="0" leadInLength="0/1"  />
             </VectorParam>
             <VectorParam id="727"  name="geometryCrop">
              <InterpolatingParam id="728" interp="linr"  time="-9999999/1" value="0" leadInLength="0/1"  />
              <InterpolatingParam id="729" interp="linr"  time="-9999999/1" value="0" leadInLength="0/1"  />
              <InterpolatingParam id="730" interp="linr"  time="-9999999/1" value="0" leadInLength="0/1"  />
              <InterpolatingParam id="731" interp="linr"  time="-9999999/1" value="0" leadInLength="0/1"  />
             </VectorParam>
             <InterpolatingParam id="732" interp="linr"  time="-9999999/1" value="1" leadInLength="0/1"  name="opacity"/>
             <InterpolatingParam id="733" interp="linr"  time="0/1" value="0" leadInLength="0/1"  name="cursorOpacity"/>
             <InterpolatingParam id="734" interp="linr"  time="0/1" value="0" leadInLength="0/1"  name="cursorScale"/>
            </Parameters>
            <Attributes>
             <Attribute id="735" value="" name="ident"/>
            </Attributes>
            <MetaData>
             <entry key="AutoAppliedSmartFocus" val="False"/>
             <entry key="WinSubProjectDisplayName" val=""/>
            </MetaData>
            <ExtraData>
             <Entry key="ZoomPanBin">
              <ZoomPanBin id="736"  >
               <ZoomPanKeyframes>
                <ZoomPanKeyframe id="737" timeRangeEnd="-9999999/1" timeRangeDuration="0/1" interpolaterName=""  />
               </ZoomPanKeyframes>
              </ZoomPanBin>
             </Entry>
             <Entry key="CursorEffectBin">
              <CursorEffectBin id="738"  >
               <CursorEffectKeyframes>
               </CursorEffectKeyframes>
              </CursorEffectBin>
             </Entry>
            </ExtraData>
           </ScreenVMFile>
           <ScreenVMFile id="739" start="1900" duration="198" scalar="1/1" mediaStart="2487/1" mediaDuration="198/1" trackNumber="0" src="4" >
            <Transformer>
             <VectorParam id="740"  name="translation">
              <InterpolatingParam id="741" interp="linr"  time="-9999999/1" value="0" leadInLength="0/1"  />
              <InterpolatingParam id="742" interp="linr"  time="-9999999/1" value="0" leadInLength="0/1"  />
              <InterpolatingParam id="743" interp="linr"  time="-9999999/1" value="0" leadInLength="0/1"  />
             </VectorParam>
             <VectorParam id="744"  name="rotation">
              <InterpolatingParam id="745" interp="linr"  time="-9999999/1" value="0" leadInLength="0/1"  />
              <InterpolatingParam id="746" interp="linr"  time="-9999999/1" value="0" leadInLength="0/1"  />
              <InterpolatingParam id="747" interp="linr"  time="-9999999/1" value="0" leadInLength="0/1"  />
             </VectorParam>
             <VectorParam id="748"  name="shear">
              <InterpolatingParam id="749" interp="linr"  time="-9999999/1" value="0" leadInLength="0/1"  />
              <InterpolatingParam id="750" interp="linr"  time="-9999999/1" value="0" leadInLength="0/1"  />
              <InterpolatingParam id="751" interp="linr"  time="-9999999/1" value="0" leadInLength="0/1"  />
             </VectorParam>
             <VectorParam id="752"  name="scale">
              <InterpolatingParam id="753" interp="linr"  time="-9999999/1" value="1" leadInLength="0/1"  />
              <InterpolatingParam id="754" interp="linr"  time="-9999999/1" value="1" leadInLength="0/1"  />
              <InterpolatingParam id="755" interp="linr"  time="-9999999/1" value="1" leadInLength="0/1"  />
             </VectorParam>
             <VectorParam id="756"  name="anchor">
              <InterpolatingParam id="757" interp="linr"  time="0/1" value="0" leadInLength="0/1"  />
              <InterpolatingParam id="758" interp="linr"  time="0/1" value="0" leadInLength="0/1"  />
              <InterpolatingParam id="759" interp="linr"  time="0/1" value="0" leadInLength="0/1"  />
             </VectorParam>
            </Transformer>
            <Parameters>
             <VectorParam id="760"  name="sourceCrop">
              <InterpolatingParam id="761" interp="linr"  time="0/1" value="0" leadInLength="0/1"  />
              <InterpolatingParam id="762" interp="linr"  time="0/1" value="0" leadInLength="0/1"  />
              <InterpolatingParam id="763" interp="linr"  time="0/1" value="0" leadInLength="0/1"  />
              <InterpolatingParam id="764" interp="linr"  time="0/1" value="0" leadInLength="0/1"  />
             </VectorParam>
             <VectorParam id="765"  name="geometryCrop">
              <InterpolatingParam id="766" interp="linr"  time="-9999999/1" value="0" leadInLength="0/1"  />
              <InterpolatingParam id="767" interp="linr"  time="-9999999/1" value="0" leadInLength="0/1"  />
              <InterpolatingParam id="768" interp="linr"  time="-9999999/1" value="0" leadInLength="0/1"  />
              <InterpolatingParam id="769" interp="linr"  time="-9999999/1" value="0" leadInLength="0/1"  />
             </VectorParam>
             <InterpolatingParam id="770" interp="linr"  time="-9999999/1" value="1" leadInLength="0/1"  name="opacity"/>
             <InterpolatingParam id="771" interp="linr"  time="0/1" value="0" leadInLength="0/1"  name="cursorOpacity"/>
             <InterpolatingParam id="772" interp="linr"  time="0/1" value="0" leadInLength="0/1"  name="cursorScale"/>
            </Parameters>
            <Attributes>
             <Attribute id="773" value="" name="ident"/>
            </Attributes>
            <MetaData>
             <entry key="AutoAppliedSmartFocus" val="False"/>
             <entry key="WinSubProjectDisplayName" val=""/>
            </MetaData>
            <ExtraData>
             <Entry key="ZoomPanBin">
              <ZoomPanBin id="774"  >
               <ZoomPanKeyframes>
                <ZoomPanKeyframe id="775" timeRangeEnd="-9999999/1" timeRangeDuration="0/1" interpolaterName=""  />
               </ZoomPanKeyframes>
              </ZoomPanBin>
             </Entry>
             <Entry key="CursorEffectBin">
              <CursorEffectBin id="776"  >
               <CursorEffectKeyframes>
               </CursorEffectKeyframes>
              </CursorEffectBin>
             </Entry>
            </ExtraData>
           </ScreenVMFile>
           <ScreenVMFile id="777" start="2098" duration="22" scalar="1/1" mediaStart="2702/1" mediaDuration="22/1" trackNumber="0" src="4" >
            <Transformer>
             <VectorParam id="778"  name="translation">
              <InterpolatingParam id="779" interp="linr"  time="-9999999/1" value="0" leadInLength="0/1"  />
              <InterpolatingParam id="780" interp="linr"  time="-9999999/1" value="0" leadInLength="0/1"  />
              <InterpolatingParam id="781" interp="linr"  time="-9999999/1" value="0" leadInLength="0/1"  />
             </VectorParam>
             <VectorParam id="782"  name="rotation">
              <InterpolatingParam id="783" interp="linr"  time="-9999999/1" value="0" leadInLength="0/1"  />
              <InterpolatingParam id="784" interp="linr"  time="-9999999/1" value="0" leadInLength="0/1"  />
              <InterpolatingParam id="785" interp="linr"  time="-9999999/1" value="0" leadInLength="0/1"  />
             </VectorParam>
             <VectorParam id="786"  name="shear">
              <InterpolatingParam id="787" interp="linr"  time="-9999999/1" value="0" leadInLength="0/1"  />
              <InterpolatingParam id="788" interp="linr"  time="-9999999/1" value="0" leadInLength="0/1"  />
              <InterpolatingParam id="789" interp="linr"  time="-9999999/1" value="0" leadInLength="0/1"  />
             </VectorParam>
             <VectorParam id="790"  name="scale">
              <InterpolatingParam id="791" interp="linr"  time="-9999999/1" value="1" leadInLength="0/1"  />
              <InterpolatingParam id="792" interp="linr"  time="-9999999/1" value="1" leadInLength="0/1"  />
              <InterpolatingParam id="793" interp="linr"  time="-9999999/1" value="1" leadInLength="0/1"  />
             </VectorParam>
             <VectorParam id="794"  name="anchor">
              <InterpolatingParam id="795" interp="linr"  time="0/1" value="0" leadInLength="0/1"  />
              <InterpolatingParam id="796" interp="linr"  time="0/1" value="0" leadInLength="0/1"  />
              <InterpolatingParam id="797" interp="linr"  time="0/1" value="0" leadInLength="0/1"  />
             </VectorParam>
            </Transformer>
            <Parameters>
             <VectorParam id="798"  name="sourceCrop">
              <InterpolatingParam id="799" interp="linr"  time="0/1" value="0" leadInLength="0/1"  />
              <InterpolatingParam id="800" interp="linr"  time="0/1" value="0" leadInLength="0/1"  />
              <InterpolatingParam id="801" interp="linr"  time="0/1" value="0" leadInLength="0/1"  />
              <InterpolatingParam id="802" interp="linr"  time="0/1" value="0" leadInLength="0/1"  />
             </VectorParam>
             <VectorParam id="803"  name="geometryCrop">
              <InterpolatingParam id="804" interp="linr"  time="-9999999/1" value="0" leadInLength="0/1"  />
              <InterpolatingParam id="805" interp="linr"  time="-9999999/1" value="0" leadInLength="0/1"  />
              <InterpolatingParam id="806" interp="linr"  time="-9999999/1" value="0" leadInLength="0/1"  />
              <InterpolatingParam id="807" interp="linr"  time="-9999999/1" value="0" leadInLength="0/1"  />
             </VectorParam>
             <InterpolatingParam id="808" interp="linr"  time="-9999999/1" value="1" leadInLength="0/1"  name="opacity"/>
             <InterpolatingParam id="809" interp="linr"  time="0/1" value="0" leadInLength="0/1"  name="cursorOpacity"/>
             <InterpolatingParam id="810" interp="linr"  time="0/1" value="0" leadInLength="0/1"  name="cursorScale"/>
            </Parameters>
            <Attributes>
             <Attribute id="811" value="" name="ident"/>
            </Attributes>
            <MetaData>
             <entry key="AutoAppliedSmartFocus" val="False"/>
             <entry key="WinSubProjectDisplayName" val=""/>
            </MetaData>
            <ExtraData>
             <Entry key="ZoomPanBin">
              <ZoomPanBin id="812"  >
               <ZoomPanKeyframes>
                <ZoomPanKeyframe id="813" timeRangeEnd="-9999999/1" timeRangeDuration="0/1" interpolaterName=""  />
               </ZoomPanKeyframes>
              </ZoomPanBin>
             </Entry>
             <Entry key="CursorEffectBin">
              <CursorEffectBin id="814"  >
               <CursorEffectKeyframes>
               </CursorEffectKeyframes>
              </CursorEffectBin>
             </Entry>
            </ExtraData>
           </ScreenVMFile>
           <ScreenVMFile id="815" start="2120" duration="284" scalar="1/1" mediaStart="2733/1" mediaDuration="284/1" trackNumber="0" src="4" >
            <Transformer>
             <VectorParam id="816"  name="translation">
              <InterpolatingParam id="817" interp="linr"  time="-9999999/1" value="0" leadInLength="0/1"  />
              <InterpolatingParam id="818" interp="linr"  time="-9999999/1" value="0" leadInLength="0/1"  />
              <InterpolatingParam id="819" interp="linr"  time="-9999999/1" value="0" leadInLength="0/1"  />
             </VectorParam>
             <VectorParam id="820"  name="rotation">
              <InterpolatingParam id="821" interp="linr"  time="-9999999/1" value="0" leadInLength="0/1"  />
              <InterpolatingParam id="822" interp="linr"  time="-9999999/1" value="0" leadInLength="0/1"  />
              <InterpolatingParam id="823" interp="linr"  time="-9999999/1" value="0" leadInLength="0/1"  />
             </VectorParam>
             <VectorParam id="824"  name="shear">
              <InterpolatingParam id="825" interp="linr"  time="-9999999/1" value="0" leadInLength="0/1"  />
              <InterpolatingParam id="826" interp="linr"  time="-9999999/1" value="0" leadInLength="0/1"  />
              <InterpolatingParam id="827" interp="linr"  time="-9999999/1" value="0" leadInLength="0/1"  />
             </VectorParam>
             <VectorParam id="828"  name="scale">
              <InterpolatingParam id="829" interp="linr"  time="-9999999/1" value="1" leadInLength="0/1"  />
              <InterpolatingParam id="830" interp="linr"  time="-9999999/1" value="1" leadInLength="0/1"  />
              <InterpolatingParam id="831" interp="linr"  time="-9999999/1" value="1" leadInLength="0/1"  />
             </VectorParam>
             <VectorParam id="832"  name="anchor">
              <InterpolatingParam id="833" interp="linr"  time="0/1" value="0" leadInLength="0/1"  />
              <InterpolatingParam id="834" interp="linr"  time="0/1" value="0" leadInLength="0/1"  />
              <InterpolatingParam id="835" interp="linr"  time="0/1" value="0" leadInLength="0/1"  />
             </VectorParam>
            </Transformer>
            <Parameters>
             <VectorParam id="836"  name="sourceCrop">
              <InterpolatingParam id="837" interp="linr"  time="0/1" value="0" leadInLength="0/1"  />
              <InterpolatingParam id="838" interp="linr"  time="0/1" value="0" leadInLength="0/1"  />
              <InterpolatingParam id="839" interp="linr"  time="0/1" value="0" leadInLength="0/1"  />
              <InterpolatingParam id="840" interp="linr"  time="0/1" value="0" leadInLength="0/1"  />
             </VectorParam>
             <VectorParam id="841"  name="geometryCrop">
              <InterpolatingParam id="842" interp="linr"  time="-9999999/1" value="0" leadInLength="0/1"  />
              <InterpolatingParam id="843" interp="linr"  time="-9999999/1" value="0" leadInLength="0/1"  />
              <InterpolatingParam id="844" interp="linr"  time="-9999999/1" value="0" leadInLength="0/1"  />
              <InterpolatingParam id="845" interp="linr"  time="-9999999/1" value="0" leadInLength="0/1"  />
             </VectorParam>
             <InterpolatingParam id="846" interp="linr"  time="-9999999/1" value="1" leadInLength="0/1"  name="opacity"/>
             <InterpolatingParam id="847" interp="linr"  time="0/1" value="0" leadInLength="0/1"  name="cursorOpacity"/>
             <InterpolatingParam id="848" interp="linr"  time="0/1" value="0" leadInLength="0/1"  name="cursorScale"/>
            </Parameters>
            <Attributes>
             <Attribute id="849" value="" name="ident"/>
            </Attributes>
            <MetaData>
             <entry key="AutoAppliedSmartFocus" val="False"/>
             <entry key="WinSubProjectDisplayName" val=""/>
            </MetaData>
            <ExtraData>
             <Entry key="ZoomPanBin">
              <ZoomPanBin id="850"  >
               <ZoomPanKeyframes>
                <ZoomPanKeyframe id="851" timeRangeEnd="-9999999/1" timeRangeDuration="0/1" interpolaterName=""  />
               </ZoomPanKeyframes>
              </ZoomPanBin>
             </Entry>
             <Entry key="CursorEffectBin">
              <CursorEffectBin id="852"  >
               <CursorEffectKeyframes>
               </CursorEffectKeyframes>
              </CursorEffectBin>
             </Entry>
            </ExtraData>
           </ScreenVMFile>
           <ScreenVMFile id="853" start="2404" duration="45" scalar="1/1" mediaStart="3114/1" mediaDuration="45/1" trackNumber="0" src="4" >
            <Transformer>
             <VectorParam id="854"  name="translation">
              <InterpolatingParam id="855" interp="linr"  time="-9999999/1" value="0" leadInLength="0/1"  />
              <InterpolatingParam id="856" interp="linr"  time="-9999999/1" value="0" leadInLength="0/1"  />
              <InterpolatingParam id="857" interp="linr"  time="-9999999/1" value="0" leadInLength="0/1"  />
             </VectorParam>
             <VectorParam id="858"  name="rotation">
              <InterpolatingParam id="859" interp="linr"  time="-9999999/1" value="0" leadInLength="0/1"  />
              <InterpolatingParam id="860" interp="linr"  time="-9999999/1" value="0" leadInLength="0/1"  />
              <InterpolatingParam id="861" interp="linr"  time="-9999999/1" value="0" leadInLength="0/1"  />
             </VectorParam>
             <VectorParam id="862"  name="shear">
              <InterpolatingParam id="863" interp="linr"  time="-9999999/1" value="0" leadInLength="0/1"  />
              <InterpolatingParam id="864" interp="linr"  time="-9999999/1" value="0" leadInLength="0/1"  />
              <InterpolatingParam id="865" interp="linr"  time="-9999999/1" value="0" leadInLength="0/1"  />
             </VectorParam>
             <VectorParam id="866"  name="scale">
              <InterpolatingParam id="867" interp="linr"  time="-9999999/1" value="1" leadInLength="0/1"  />
              <InterpolatingParam id="868" interp="linr"  time="-9999999/1" value="1" leadInLength="0/1"  />
              <InterpolatingParam id="869" interp="linr"  time="-9999999/1" value="1" leadInLength="0/1"  />
             </VectorParam>
             <VectorParam id="870"  name="anchor">
              <InterpolatingParam id="871" interp="linr"  time="0/1" value="0" leadInLength="0/1"  />
              <InterpolatingParam id="872" interp="linr"  time="0/1" value="0" leadInLength="0/1"  />
              <InterpolatingParam id="873" interp="linr"  time="0/1" value="0" leadInLength="0/1"  />
             </VectorParam>
            </Transformer>
            <Parameters>
             <VectorParam id="874"  name="sourceCrop">
              <InterpolatingParam id="875" interp="linr"  time="0/1" value="0" leadInLength="0/1"  />
              <InterpolatingParam id="876" interp="linr"  time="0/1" value="0" leadInLength="0/1"  />
              <InterpolatingParam id="877" interp="linr"  time="0/1" value="0" leadInLength="0/1"  />
              <InterpolatingParam id="878" interp="linr"  time="0/1" value="0" leadInLength="0/1"  />
             </VectorParam>
             <VectorParam id="879"  name="geometryCrop">
              <InterpolatingParam id="880" interp="linr"  time="-9999999/1" value="0" leadInLength="0/1"  />
              <InterpolatingParam id="881" interp="linr"  time="-9999999/1" value="0" leadInLength="0/1"  />
              <InterpolatingParam id="882" interp="linr"  time="-9999999/1" value="0" leadInLength="0/1"  />
              <InterpolatingParam id="883" interp="linr"  time="-9999999/1" value="0" leadInLength="0/1"  />
             </VectorParam>
             <InterpolatingParam id="884" interp="linr"  time="-9999999/1" value="1" leadInLength="0/1"  name="opacity"/>
             <InterpolatingParam id="885" interp="linr"  time="0/1" value="0" leadInLength="0/1"  name="cursorOpacity"/>
             <InterpolatingParam id="886" interp="linr"  time="0/1" value="0" leadInLength="0/1"  name="cursorScale"/>
            </Parameters>
            <Attributes>
             <Attribute id="887" value="" name="ident"/>
            </Attributes>
            <MetaData>
             <entry key="AutoAppliedSmartFocus" val="False"/>
             <entry key="WinSubProjectDisplayName" val=""/>
            </MetaData>
            <ExtraData>
             <Entry key="ZoomPanBin">
              <ZoomPanBin id="888"  >
               <ZoomPanKeyframes>
                <ZoomPanKeyframe id="889" timeRangeEnd="-9999999/1" timeRangeDuration="0/1" interpolaterName=""  />
               </ZoomPanKeyframes>
              </ZoomPanBin>
             </Entry>
             <Entry key="CursorEffectBin">
              <CursorEffectBin id="890"  >
               <CursorEffectKeyframes>
               </CursorEffectKeyframes>
              </CursorEffectBin>
             </Entry>
            </ExtraData>
           </ScreenVMFile>
           <ScreenVMFile id="891" start="2449" duration="432" scalar="1/1" mediaStart="3167/1" mediaDuration="432/1" trackNumber="0" src="4" >
            <Transformer>
             <VectorParam id="892"  name="translation">
              <InterpolatingParam id="893" interp="linr"  time="-9999999/1" value="0" leadInLength="0/1"  />
              <InterpolatingParam id="894" interp="linr"  time="-9999999/1" value="0" leadInLength="0/1"  />
              <InterpolatingParam id="895" interp="linr"  time="-9999999/1" value="0" leadInLength="0/1"  />
             </VectorParam>
             <VectorParam id="896"  name="rotation">
              <InterpolatingParam id="897" interp="linr"  time="-9999999/1" value="0" leadInLength="0/1"  />
              <InterpolatingParam id="898" interp="linr"  time="-9999999/1" value="0" leadInLength="0/1"  />
              <InterpolatingParam id="899" interp="linr"  time="-9999999/1" value="0" leadInLength="0/1"  />
             </VectorParam>
             <VectorParam id="900"  name="shear">
              <InterpolatingParam id="901" interp="linr"  time="-9999999/1" value="0" leadInLength="0/1"  />
              <InterpolatingParam id="902" interp="linr"  time="-9999999/1" value="0" leadInLength="0/1"  />
              <InterpolatingParam id="903" interp="linr"  time="-9999999/1" value="0" leadInLength="0/1"  />
             </VectorParam>
             <VectorParam id="904"  name="scale">
              <InterpolatingParam id="905" interp="linr"  time="-9999999/1" value="1" leadInLength="0/1"  />
              <InterpolatingParam id="906" interp="linr"  time="-9999999/1" value="1" leadInLength="0/1"  />
              <InterpolatingParam id="907" interp="linr"  time="-9999999/1" value="1" leadInLength="0/1"  />
             </VectorParam>
             <VectorParam id="908"  name="anchor">
              <InterpolatingParam id="909" interp="linr"  time="0/1" value="0" leadInLength="0/1"  />
              <InterpolatingParam id="910" interp="linr"  time="0/1" value="0" leadInLength="0/1"  />
              <InterpolatingParam id="911" interp="linr"  time="0/1" value="0" leadInLength="0/1"  />
             </VectorParam>
            </Transformer>
            <Parameters>
             <VectorParam id="912"  name="sourceCrop">
              <InterpolatingParam id="913" interp="linr"  time="0/1" value="0" leadInLength="0/1"  />
              <InterpolatingParam id="914" interp="linr"  time="0/1" value="0" leadInLength="0/1"  />
              <InterpolatingParam id="915" interp="linr"  time="0/1" value="0" leadInLength="0/1"  />
              <InterpolatingParam id="916" interp="linr"  time="0/1" value="0" leadInLength="0/1"  />
             </VectorParam>
             <VectorParam id="917"  name="geometryCrop">
              <InterpolatingParam id="918" interp="linr"  time="-9999999/1" value="0" leadInLength="0/1"  />
              <InterpolatingParam id="919" interp="linr"  time="-9999999/1" value="0" leadInLength="0/1"  />
              <InterpolatingParam id="920" interp="linr"  time="-9999999/1" value="0" leadInLength="0/1"  />
              <InterpolatingParam id="921" interp="linr"  time="-9999999/1" value="0" leadInLength="0/1"  />
             </VectorParam>
             <InterpolatingParam id="922" interp="linr"  time="-9999999/1" value="1" leadInLength="0/1"  name="opacity"/>
             <InterpolatingParam id="923" interp="linr"  time="0/1" value="0" leadInLength="0/1"  name="cursorOpacity"/>
             <InterpolatingParam id="924" interp="linr"  time="0/1" value="0" leadInLength="0/1"  name="cursorScale"/>
            </Parameters>
            <Attributes>
             <Attribute id="925" value="" name="ident"/>
            </Attributes>
            <MetaData>
             <entry key="AutoAppliedSmartFocus" val="False"/>
             <entry key="WinSubProjectDisplayName" val=""/>
            </MetaData>
            <ExtraData>
             <Entry key="ZoomPanBin">
              <ZoomPanBin id="926"  >
               <ZoomPanKeyframes>
                <ZoomPanKeyframe id="927" timeRangeEnd="-9999999/1" timeRangeDuration="0/1" interpolaterName=""  />
               </ZoomPanKeyframes>
              </ZoomPanBin>
             </Entry>
             <Entry key="CursorEffectBin">
              <CursorEffectBin id="928"  >
               <CursorEffectKeyframes>
               </CursorEffectKeyframes>
              </CursorEffectBin>
             </Entry>
            </ExtraData>
           </ScreenVMFile>
           <ScreenVMFile id="929" start="2881" duration="32" scalar="1/1" mediaStart="3638/1" mediaDuration="32/1" trackNumber="0" src="4" >
            <Transformer>
             <VectorParam id="930"  name="translation">
              <InterpolatingParam id="931" interp="linr"  time="-9999999/1" value="0" leadInLength="0/1"  />
              <InterpolatingParam id="932" interp="linr"  time="-9999999/1" value="0" leadInLength="0/1"  />
              <InterpolatingParam id="933" interp="linr"  time="-9999999/1" value="0" leadInLength="0/1"  />
             </VectorParam>
             <VectorParam id="934"  name="rotation">
              <InterpolatingParam id="935" interp="linr"  time="-9999999/1" value="0" leadInLength="0/1"  />
              <InterpolatingParam id="936" interp="linr"  time="-9999999/1" value="0" leadInLength="0/1"  />
              <InterpolatingParam id="937" interp="linr"  time="-9999999/1" value="0" leadInLength="0/1"  />
             </VectorParam>
             <VectorParam id="938"  name="shear">
              <InterpolatingParam id="939" interp="linr"  time="-9999999/1" value="0" leadInLength="0/1"  />
              <InterpolatingParam id="940" interp="linr"  time="-9999999/1" value="0" leadInLength="0/1"  />
              <InterpolatingParam id="941" interp="linr"  time="-9999999/1" value="0" leadInLength="0/1"  />
             </VectorParam>
             <VectorParam id="942"  name="scale">
              <InterpolatingParam id="943" interp="linr"  time="-9999999/1" value="1" leadInLength="0/1"  />
              <InterpolatingParam id="944" interp="linr"  time="-9999999/1" value="1" leadInLength="0/1"  />
              <InterpolatingParam id="945" interp="linr"  time="-9999999/1" value="1" leadInLength="0/1"  />
             </VectorParam>
             <VectorParam id="946"  name="anchor">
              <InterpolatingParam id="947" interp="linr"  time="0/1" value="0" leadInLength="0/1"  />
              <InterpolatingParam id="948" interp="linr"  time="0/1" value="0" leadInLength="0/1"  />
              <InterpolatingParam id="949" interp="linr"  time="0/1" value="0" leadInLength="0/1"  />
             </VectorParam>
            </Transformer>
            <Parameters>
             <VectorParam id="950"  name="sourceCrop">
              <InterpolatingParam id="951" interp="linr"  time="0/1" value="0" leadInLength="0/1"  />
              <InterpolatingParam id="952" interp="linr"  time="0/1" value="0" leadInLength="0/1"  />
              <InterpolatingParam id="953" interp="linr"  time="0/1" value="0" leadInLength="0/1"  />
              <InterpolatingParam id="954" interp="linr"  time="0/1" value="0" leadInLength="0/1"  />
             </VectorParam>
             <VectorParam id="955"  name="geometryCrop">
              <InterpolatingParam id="956" interp="linr"  time="-9999999/1" value="0" leadInLength="0/1"  />
              <InterpolatingParam id="957" interp="linr"  time="-9999999/1" value="0" leadInLength="0/1"  />
              <InterpolatingParam id="958" interp="linr"  time="-9999999/1" value="0" leadInLength="0/1"  />
              <InterpolatingParam id="959" interp="linr"  time="-9999999/1" value="0" leadInLength="0/1"  />
             </VectorParam>
             <InterpolatingParam id="960" interp="linr"  time="-9999999/1" value="1" leadInLength="0/1"  name="opacity"/>
             <InterpolatingParam id="961" interp="linr"  time="0/1" value="0" leadInLength="0/1"  name="cursorOpacity"/>
             <InterpolatingParam id="962" interp="linr"  time="0/1" value="0" leadInLength="0/1"  name="cursorScale"/>
            </Parameters>
            <Attributes>
             <Attribute id="963" value="" name="ident"/>
            </Attributes>
            <MetaData>
             <entry key="AutoAppliedSmartFocus" val="False"/>
             <entry key="WinSubProjectDisplayName" val=""/>
            </MetaData>
            <ExtraData>
             <Entry key="ZoomPanBin">
              <ZoomPanBin id="964"  >
               <ZoomPanKeyframes>
                <ZoomPanKeyframe id="965" timeRangeEnd="-9999999/1" timeRangeDuration="0/1" interpolaterName=""  />
               </ZoomPanKeyframes>
              </ZoomPanBin>
             </Entry>
             <Entry key="CursorEffectBin">
              <CursorEffectBin id="966"  >
               <CursorEffectKeyframes>
               </CursorEffectKeyframes>
              </CursorEffectBin>
             </Entry>
            </ExtraData>
           </ScreenVMFile>
           <ScreenVMFile id="967" start="2913" duration="50" scalar="1/1" mediaStart="3700/1" mediaDuration="50/1" trackNumber="0" src="4" >
            <Transformer>
             <VectorParam id="968"  name="translation">
              <InterpolatingParam id="969" interp="linr"  time="-9999999/1" value="0" leadInLength="0/1"  />
              <InterpolatingParam id="970" interp="linr"  time="-9999999/1" value="0" leadInLength="0/1"  />
              <InterpolatingParam id="971" interp="linr"  time="-9999999/1" value="0" leadInLength="0/1"  />
             </VectorParam>
             <VectorParam id="972"  name="rotation">
              <InterpolatingParam id="973" interp="linr"  time="-9999999/1" value="0" leadInLength="0/1"  />
              <InterpolatingParam id="974" interp="linr"  time="-9999999/1" value="0" leadInLength="0/1"  />
              <InterpolatingParam id="975" interp="linr"  time="-9999999/1" value="0" leadInLength="0/1"  />
             </VectorParam>
             <VectorParam id="976"  name="shear">
              <InterpolatingParam id="977" interp="linr"  time="-9999999/1" value="0" leadInLength="0/1"  />
              <InterpolatingParam id="978" interp="linr"  time="-9999999/1" value="0" leadInLength="0/1"  />
              <InterpolatingParam id="979" interp="linr"  time="-9999999/1" value="0" leadInLength="0/1"  />
             </VectorParam>
             <VectorParam id="980"  name="scale">
              <InterpolatingParam id="981" interp="linr"  time="-9999999/1" value="1" leadInLength="0/1"  />
              <InterpolatingParam id="982" interp="linr"  time="-9999999/1" value="1" leadInLength="0/1"  />
              <InterpolatingParam id="983" interp="linr"  time="-9999999/1" value="1" leadInLength="0/1"  />
             </VectorParam>
             <VectorParam id="984"  name="anchor">
              <InterpolatingParam id="985" interp="linr"  time="0/1" value="0" leadInLength="0/1"  />
              <InterpolatingParam id="986" interp="linr"  time="0/1" value="0" leadInLength="0/1"  />
              <InterpolatingParam id="987" interp="linr"  time="0/1" value="0" leadInLength="0/1"  />
             </VectorParam>
            </Transformer>
            <Parameters>
             <VectorParam id="988"  name="sourceCrop">
              <InterpolatingParam id="989" interp="linr"  time="0/1" value="0" leadInLength="0/1"  />
              <InterpolatingParam id="990" interp="linr"  time="0/1" value="0" leadInLength="0/1"  />
              <InterpolatingParam id="991" interp="linr"  time="0/1" value="0" leadInLength="0/1"  />
              <InterpolatingParam id="992" interp="linr"  time="0/1" value="0" leadInLength="0/1"  />
             </VectorParam>
             <VectorParam id="993"  name="geometryCrop">
              <InterpolatingParam id="994" interp="linr"  time="-9999999/1" value="0" leadInLength="0/1"  />
              <InterpolatingParam id="995" interp="linr"  time="-9999999/1" value="0" leadInLength="0/1"  />
              <InterpolatingParam id="996" interp="linr"  time="-9999999/1" value="0" leadInLength="0/1"  />
              <InterpolatingParam id="997" interp="linr"  time="-9999999/1" value="0" leadInLength="0/1"  />
             </VectorParam>
             <InterpolatingParam id="998" interp="linr"  time="-9999999/1" value="1" leadInLength="0/1"  name="opacity"/>
             <InterpolatingParam id="999" interp="linr"  time="0/1" value="0" leadInLength="0/1"  name="cursorOpacity"/>
             <InterpolatingParam id="1000" interp="linr"  time="0/1" value="0" leadInLength="0/1"  name="cursorScale"/>
            </Parameters>
            <Attributes>
             <Attribute id="1001" value="" name="ident"/>
            </Attributes>
            <MetaData>
             <entry key="AutoAppliedSmartFocus" val="False"/>
             <entry key="WinSubProjectDisplayName" val=""/>
            </MetaData>
            <ExtraData>
             <Entry key="ZoomPanBin">
              <ZoomPanBin id="1002"  >
               <ZoomPanKeyframes>
                <ZoomPanKeyframe id="1003" timeRangeEnd="-9999999/1" timeRangeDuration="0/1" interpolaterName=""  />
               </ZoomPanKeyframes>
              </ZoomPanBin>
             </Entry>
             <Entry key="CursorEffectBin">
              <CursorEffectBin id="1004"  >
               <CursorEffectKeyframes>
               </CursorEffectKeyframes>
              </CursorEffectBin>
             </Entry>
            </ExtraData>
           </ScreenVMFile>
           <ScreenVMFile id="1005" start="2963" duration="6337" scalar="1/1" mediaStart="4389/1" mediaDuration="6337/1" trackNumber="0" src="4" >
            <Transformer>
             <VectorParam id="1006"  name="translation">
              <InterpolatingParam id="1007" interp="linr"  time="-9999999/1" value="0" leadInLength="0/1"  />
              <InterpolatingParam id="1008" interp="linr"  time="-9999999/1" value="0" leadInLength="0/1"  />
              <InterpolatingParam id="1009" interp="linr"  time="-9999999/1" value="0" leadInLength="0/1"  />
             </VectorParam>
             <VectorParam id="1010"  name="rotation">
              <InterpolatingParam id="1011" interp="linr"  time="-9999999/1" value="0" leadInLength="0/1"  />
              <InterpolatingParam id="1012" interp="linr"  time="-9999999/1" value="0" leadInLength="0/1"  />
              <InterpolatingParam id="1013" interp="linr"  time="-9999999/1" value="0" leadInLength="0/1"  />
             </VectorParam>
             <VectorParam id="1014"  name="shear">
              <InterpolatingParam id="1015" interp="linr"  time="-9999999/1" value="0" leadInLength="0/1"  />
              <InterpolatingParam id="1016" interp="linr"  time="-9999999/1" value="0" leadInLength="0/1"  />
              <InterpolatingParam id="1017" interp="linr"  time="-9999999/1" value="0" leadInLength="0/1"  />
             </VectorParam>
             <VectorParam id="1018"  name="scale">
              <InterpolatingParam id="1019" interp="linr"  time="-9999999/1" value="1" leadInLength="0/1"  />
              <InterpolatingParam id="1020" interp="linr"  time="-9999999/1" value="1" leadInLength="0/1"  />
              <InterpolatingParam id="1021" interp="linr"  time="-9999999/1" value="1" leadInLength="0/1"  />
             </VectorParam>
             <VectorParam id="1022"  name="anchor">
              <InterpolatingParam id="1023" interp="linr"  time="0/1" value="0" leadInLength="0/1"  />
              <InterpolatingParam id="1024" interp="linr"  time="0/1" value="0" leadInLength="0/1"  />
              <InterpolatingParam id="1025" interp="linr"  time="0/1" value="0" leadInLength="0/1"  />
             </VectorParam>
            </Transformer>
            <Parameters>
             <VectorParam id="1026"  name="sourceCrop">
              <InterpolatingParam id="1027" interp="linr"  time="0/1" value="0" leadInLength="0/1"  />
              <InterpolatingParam id="1028" interp="linr"  time="0/1" value="0" leadInLength="0/1"  />
              <InterpolatingParam id="1029" interp="linr"  time="0/1" value="0" leadInLength="0/1"  />
              <InterpolatingParam id="1030" interp="linr"  time="0/1" value="0" leadInLength="0/1"  />
             </VectorParam>
             <VectorParam id="1031"  name="geometryCrop">
              <InterpolatingParam id="1032" interp="linr"  time="-9999999/1" value="0" leadInLength="0/1"  />
              <InterpolatingParam id="1033" interp="linr"  time="-9999999/1" value="0" leadInLength="0/1"  />
              <InterpolatingParam id="1034" interp="linr"  time="-9999999/1" value="0" leadInLength="0/1"  />
              <InterpolatingParam id="1035" interp="linr"  time="-9999999/1" value="0" leadInLength="0/1"  />
             </VectorParam>
             <InterpolatingParam id="1036" interp="linr"  time="-9999999/1" value="1" leadInLength="0/1"  name="opacity"/>
             <InterpolatingParam id="1037" interp="linr"  time="0/1" value="0" leadInLength="0/1"  name="cursorOpacity"/>
             <InterpolatingParam id="1038" interp="linr"  time="0/1" value="0" leadInLength="0/1"  name="cursorScale"/>
            </Parameters>
            <Attributes>
             <Attribute id="1039" value="" name="ident"/>
            </Attributes>
            <MetaData>
             <entry key="AutoAppliedSmartFocus" val="False"/>
             <entry key="WinSubProjectDisplayName" val=""/>
            </MetaData>
            <ExtraData>
             <Entry key="ZoomPanBin">
              <ZoomPanBin id="1040"  >
               <ZoomPanKeyframes>
                <ZoomPanKeyframe id="1041" timeRangeEnd="-9999999/1" timeRangeDuration="0/1" interpolaterName=""  />
               </ZoomPanKeyframes>
              </ZoomPanBin>
             </Entry>
             <Entry key="CursorEffectBin">
              <CursorEffectBin id="1042"  >
               <CursorEffectKeyframes>
               </CursorEffectKeyframes>
              </CursorEffectBin>
             </Entry>
            </ExtraData>
           </ScreenVMFile>
          </Medias>
         </GenericTrack>
        </StitchedMedia>
        <StitchedMedia id="1043" start="2959" duration="1647" scalar="1/1" mediaStart="2959/1" mediaDuration="1647/1" minMediaStart="0/1" >
         <Transformer>
          <VectorParam id="1044"  name="translation">
           <InterpolatingParam id="1045" interp="linr"  time="-9999999/1" value="0" leadInLength="0/1"  interpolater="leadin-linr"  />
           <InterpolatingParam id="1046" interp="linr"  time="-9999999/1" value="0" leadInLength="0/1"  interpolater="leadin-linr"  />
           <InterpolatingParam id="1047" interp="linr"  time="-9999999/1" value="0" leadInLength="0/1"  interpolater="leadin-linr"  />
          </VectorParam>
          <VectorParam id="1048"  name="rotation">
           <InterpolatingParam id="1049" interp="linr"  time="-9999999/1" value="0" leadInLength="0/1"  interpolater="leadin-linr"  />
           <InterpolatingParam id="1050" interp="linr"  time="-9999999/1" value="0" leadInLength="0/1"  interpolater="leadin-linr"  />
           <InterpolatingParam id="1051" interp="linr"  time="-9999999/1" value="0" leadInLength="0/1"  interpolater="leadin-linr"  />
          </VectorParam>
          <VectorParam id="1052"  name="shear">
           <InterpolatingParam id="1053" interp="linr"  time="-9999999/1" value="0" leadInLength="0/1"  interpolater="leadin-linr"  />
           <InterpolatingParam id="1054" interp="linr"  time="-9999999/1" value="0" leadInLength="0/1"  interpolater="leadin-linr"  />
           <InterpolatingParam id="1055" interp="linr"  time="-9999999/1" value="0" leadInLength="0/1"  interpolater="leadin-linr"  />
          </VectorParam>
          <VectorParam id="1056"  name="scale">
           <InterpolatingParam id="1057" interp="linr"  time="-9999999/1" value="0.9375" leadInLength="0/1"  interpolater="leadin-linr"  />
           <InterpolatingParam id="1058" interp="linr"  time="-9999999/1" value="0.9375" leadInLength="0/1"  interpolater="leadin-linr"  />
           <InterpolatingParam id="1059" interp="linr"  time="-9999999/1" value="1" leadInLength="0/1"  interpolater="leadin-linr"  />
          </VectorParam>
          <VectorParam id="1060"  name="anchor">
           <InterpolatingParam id="1061" interp="linr"  time="0/1" value="0" leadInLength="0/1"  />
           <InterpolatingParam id="1062" interp="linr"  time="0/1" value="0" leadInLength="0/1"  />
           <InterpolatingParam id="1063" interp="linr"  time="0/1" value="0" leadInLength="0/1"  />
          </VectorParam>
         </Transformer>
         <Parameters>
          <VectorParam id="1064"  name="sourceCrop">
           <InterpolatingParam id="1065" interp="linr"  time="0/1" value="0" leadInLength="0/1"  />
           <InterpolatingParam id="1066" interp="linr"  time="0/1" value="0" leadInLength="0/1"  />
           <InterpolatingParam id="1067" interp="linr"  time="0/1" value="0" leadInLength="0/1"  />
           <InterpolatingParam id="1068" interp="linr"  time="0/1" value="0" leadInLength="0/1"  />
          </VectorParam>
          <VectorParam id="1069"  name="geometryCrop">
           <InterpolatingParam id="1070" interp="linr"  time="-9999999/1" value="0" leadInLength="0/1"  interpolater="leadin-linr"  />
           <InterpolatingParam id="1071" interp="linr"  time="-9999999/1" value="0" leadInLength="0/1"  interpolater="leadin-linr"  />
           <InterpolatingParam id="1072" interp="linr"  time="-9999999/1" value="0" leadInLength="0/1"  interpolater="leadin-linr"  />
           <InterpolatingParam id="1073" interp="linr"  time="-9999999/1" value="0" leadInLength="0/1"  interpolater="leadin-linr"  />
          </VectorParam>
          <InterpolatingParam id="1074" interp="linr"  time="-9999999/1" value="1" leadInLength="0/1"  interpolater="leadin-linr"  name="opacity"/>
          <InterpolatingParam id="1075" interp="linr"  time="0/1" value="1" leadInLength="0/1"  name="cursorOpacity"/>
          <InterpolatingParam id="1076" interp="linr"  time="0/1" value="1" leadInLength="0/1"  name="cursorScale"/>
          <Parameter id="1077"  name="captions"/>
         </Parameters>
         <Effects>
          <GenericEffect id="1078" name = "CursorBaseEffectName" >
           <Parameters>
           <InterpolatingParam id="1079" interp="linr"  time="-9999999/1" value="1" leadInLength="0/1"   name="cursorSize"/>
           <InterpolatingParam id="1080" interp="linr"  time="-9999999/1" value="0" leadInLength="0/1"   name="highlightBlurRadius"/>
           <InterpolatingParam id="1081" interp="linr"  time="-9999999/1" value="0" leadInLength="0/1"   name="highlightColorBlue"/>
           <InterpolatingParam id="1082" interp="linr"  time="-9999999/1" value="255" leadInLength="0/1"   name="highlightColorGreen"/>
           <InterpolatingParam id="1083" interp="linr"  time="-9999999/1" value="255" leadInLength="0/1"   name="highlightColorRed"/>
           <InterpolatingParam id="1084" interp="linr"  time="-9999999/1" value="5" leadInLength="0/1"   name="highlightFeatherSize"/>
           <InterpolatingParam id="1085" interp="linr"  time="-9999999/1" value="2" leadInLength="0/1"   name="highlightMagnification"/>
           <InterpolatingParam id="1086" interp="linr"  time="-9999999/1" value="1" leadInLength="0/1"   name="highlightOpacity"/>
           <InterpolatingParam id="1087" interp="linr"  time="-9999999/1" value="45" leadInLength="0/1"   name="highlightSize"/>
           <Parameter id="1088"   name="highlightType">
            <Keyframes>
            <Keyframe id="1089"  time="-9999999/1" value="0" leadInLength="0/1"  />
            </Keyframes>
           </Parameter>
           <InterpolatingParam id="1090" interp="linr"  time="-9999999/1" value="0" leadInLength="0/1"   name="leftClickColorBlue"/>
           <InterpolatingParam id="1091" interp="linr"  time="-9999999/1" value="0" leadInLength="0/1"   name="leftClickColorGreen"/>
           <InterpolatingParam id="1092" interp="linr"  time="-9999999/1" value="255" leadInLength="0/1"   name="leftClickColorRed"/>
           <InterpolatingParam id="1093" interp="linr"  time="-9999999/1" value="0.80000000000000004" leadInLength="0/1"   name="leftClickDuration"/>
           <InterpolatingParam id="1094" interp="linr"  time="-9999999/1" value="20" leadInLength="0/1"   name="leftClickSize"/>
           <Parameter id="1095"   name="leftClickSoundFilename">
            <Keyframes>
            <Keyframe id="1096"  time="-9999999/1" value="" leadInLength="0/1"  />
            </Keyframes>
           </Parameter>
           <InterpolatingParam id="1097" interp="linr"  time="-9999999/1" value="1" leadInLength="0/1"   name="leftClickSoundVolume"/>
           <Parameter id="1098"   name="leftClickType">
            <Keyframes>
            <Keyframe id="1099"  time="-9999999/1" value="0" leadInLength="0/1"  />
            </Keyframes>
           </Parameter>
           <InterpolatingParam id="1100" interp="linr"  time="-9999999/1" value="1" leadInLength="0/1"   name="opacity"/>
           <InterpolatingParam id="1101" interp="linr"  time="-9999999/1" value="255" leadInLength="0/1"   name="rightClickColorBlue"/>
           <InterpolatingParam id="1102" interp="linr"  time="-9999999/1" value="0" leadInLength="0/1"   name="rightClickColorGreen"/>
           <InterpolatingParam id="1103" interp="linr"  time="-9999999/1" value="0" leadInLength="0/1"   name="rightClickColorRed"/>
           <InterpolatingParam id="1104" interp="linr"  time="-9999999/1" value="0.80000000000000004" leadInLength="0/1"   name="rightClickDuration"/>
           <InterpolatingParam id="1105" interp="linr"  time="-9999999/1" value="20" leadInLength="0/1"   name="rightClickSize"/>
           <Parameter id="1106"   name="rightClickSoundFilename">
            <Keyframes>
            <Keyframe id="1107"  time="-9999999/1" value="" leadInLength="0/1"  />
            </Keyframes>
           </Parameter>
           <InterpolatingParam id="1108" interp="linr"  time="-9999999/1" value="1" leadInLength="0/1"   name="rightClickSoundVolume"/>
           <Parameter id="1109"   name="rightClickType">
            <Keyframes>
            <Keyframe id="1110"  time="-9999999/1" value="0" leadInLength="0/1"  />
            </Keyframes>
           </Parameter>
           </Parameters>
          </GenericEffect>
         </Effects>
         <Attributes>
          <Attribute id="1111" value="" name="ident"/>
         </Attributes>
         <MetaData>
          <entry key="AutoAppliedSmartFocus" val="False"/>
          <entry key="WinSubProjectDisplayName" val=""/>
         </MetaData>
         <ExtraData>
          <Entry key="ZoomPanBin">
           <ZoomPanBin id="1112"  >
            <ZoomPanKeyframes>
             <ZoomPanKeyframe id="1113" timeRangeEnd="-9999999/1" timeRangeDuration="0/1" interpolaterName="linr"  />
            </ZoomPanKeyframes>
           </ZoomPanBin>
          </Entry>
          <Entry key="CursorEffectBin">
           <CursorEffectBin id="1114"  >
            <CursorEffectKeyframes>
             <CursorEffectKeyframe id="1115" timeRangeEnd="-9999999/1" timeRangeDuration="0/1" interpolaterName=""  />
            </CursorEffectKeyframes>
           </CursorEffectBin>
          </Entry>
         </ExtraData>
         <GenericTrack id="1116"  >
          <Attributes>
           <Attribute id="1117" value="" name="ident"/>
           <Attribute id="1118" value="0" name="audioMuted"/>
           <Attribute id="1119" value="0" name="videoHidden"/>
          </Attributes>
          <MetaData>
           <entry key="IsLocked" val="False"/>
           <entry key="WinTrackHeight" val="0"/>
          </MetaData>
          <Medias>
           <ScreenVMFile id="1120" start="0" duration="101" scalar="1/1" mediaStart="0/1" mediaDuration="101/1" trackNumber="0" src="4" >
            <Transformer>
             <VectorParam id="1121"  name="translation">
              <InterpolatingParam id="1122" interp="linr"  time="-9999999/1" value="0" leadInLength="0/1"  />
              <InterpolatingParam id="1123" interp="linr"  time="-9999999/1" value="0" leadInLength="0/1"  />
              <InterpolatingParam id="1124" interp="linr"  time="-9999999/1" value="0" leadInLength="0/1"  />
             </VectorParam>
             <VectorParam id="1125"  name="rotation">
              <InterpolatingParam id="1126" interp="linr"  time="-9999999/1" value="0" leadInLength="0/1"  />
              <InterpolatingParam id="1127" interp="linr"  time="-9999999/1" value="0" leadInLength="0/1"  />
              <InterpolatingParam id="1128" interp="linr"  time="-9999999/1" value="0" leadInLength="0/1"  />
             </VectorParam>
             <VectorParam id="1129"  name="shear">
              <InterpolatingParam id="1130" interp="linr"  time="-9999999/1" value="0" leadInLength="0/1"  />
              <InterpolatingParam id="1131" interp="linr"  time="-9999999/1" value="0" leadInLength="0/1"  />
              <InterpolatingParam id="1132" interp="linr"  time="-9999999/1" value="0" leadInLength="0/1"  />
             </VectorParam>
             <VectorParam id="1133"  name="scale">
              <InterpolatingParam id="1134" interp="linr"  time="-9999999/1" value="1" leadInLength="0/1"  />
              <InterpolatingParam id="1135" interp="linr"  time="-9999999/1" value="1" leadInLength="0/1"  />
              <InterpolatingParam id="1136" interp="linr"  time="-9999999/1" value="1" leadInLength="0/1"  />
             </VectorParam>
             <VectorParam id="1137"  name="anchor">
              <InterpolatingParam id="1138" interp="linr"  time="0/1" value="0" leadInLength="0/1"  />
              <InterpolatingParam id="1139" interp="linr"  time="0/1" value="0" leadInLength="0/1"  />
              <InterpolatingParam id="1140" interp="linr"  time="0/1" value="0" leadInLength="0/1"  />
             </VectorParam>
            </Transformer>
            <Parameters>
             <VectorParam id="1141"  name="sourceCrop">
              <InterpolatingParam id="1142" interp="linr"  time="0/1" value="0" leadInLength="0/1"  />
              <InterpolatingParam id="1143" interp="linr"  time="0/1" value="0" leadInLength="0/1"  />
              <InterpolatingParam id="1144" interp="linr"  time="0/1" value="0" leadInLength="0/1"  />
              <InterpolatingParam id="1145" interp="linr"  time="0/1" value="0" leadInLength="0/1"  />
             </VectorParam>
             <VectorParam id="1146"  name="geometryCrop">
              <InterpolatingParam id="1147" interp="linr"  time="-9999999/1" value="0" leadInLength="0/1"  />
              <InterpolatingParam id="1148" interp="linr"  time="-9999999/1" value="0" leadInLength="0/1"  />
              <InterpolatingParam id="1149" interp="linr"  time="-9999999/1" value="0" leadInLength="0/1"  />
              <InterpolatingParam id="1150" interp="linr"  time="-9999999/1" value="0" leadInLength="0/1"  />
             </VectorParam>
             <InterpolatingParam id="1151" interp="linr"  time="-9999999/1" value="1" leadInLength="0/1"  name="opacity"/>
             <InterpolatingParam id="1152" interp="linr"  time="0/1" value="0" leadInLength="0/1"  name="cursorOpacity"/>
             <InterpolatingParam id="1153" interp="linr"  time="0/1" value="0" leadInLength="0/1"  name="cursorScale"/>
            </Parameters>
            <Attributes>
             <Attribute id="1154" value="" name="ident"/>
            </Attributes>
            <MetaData>
             <entry key="AutoAppliedSmartFocus" val="False"/>
             <entry key="WinSubProjectDisplayName" val=""/>
            </MetaData>
            <ExtraData>
             <Entry key="ZoomPanBin">
              <ZoomPanBin id="1155"  >
               <ZoomPanKeyframes>
               </ZoomPanKeyframes>
              </ZoomPanBin>
             </Entry>
             <Entry key="CursorEffectBin">
              <CursorEffectBin id="1156"  >
               <CursorEffectKeyframes>
               </CursorEffectKeyframes>
              </CursorEffectBin>
             </Entry>
            </ExtraData>
           </ScreenVMFile>
           <ScreenVMFile id="1157" start="101" duration="73" scalar="1/1" mediaStart="140/1" mediaDuration="73/1" trackNumber="0" src="4" >
            <Transformer>
             <VectorParam id="1158"  name="translation">
              <InterpolatingParam id="1159" interp="linr"  time="-9999999/1" value="0" leadInLength="0/1"  />
              <InterpolatingParam id="1160" interp="linr"  time="-9999999/1" value="0" leadInLength="0/1"  />
              <InterpolatingParam id="1161" interp="linr"  time="-9999999/1" value="0" leadInLength="0/1"  />
             </VectorParam>
             <VectorParam id="1162"  name="rotation">
              <InterpolatingParam id="1163" interp="linr"  time="-9999999/1" value="0" leadInLength="0/1"  />
              <InterpolatingParam id="1164" interp="linr"  time="-9999999/1" value="0" leadInLength="0/1"  />
              <InterpolatingParam id="1165" interp="linr"  time="-9999999/1" value="0" leadInLength="0/1"  />
             </VectorParam>
             <VectorParam id="1166"  name="shear">
              <InterpolatingParam id="1167" interp="linr"  time="-9999999/1" value="0" leadInLength="0/1"  />
              <InterpolatingParam id="1168" interp="linr"  time="-9999999/1" value="0" leadInLength="0/1"  />
              <InterpolatingParam id="1169" interp="linr"  time="-9999999/1" value="0" leadInLength="0/1"  />
             </VectorParam>
             <VectorParam id="1170"  name="scale">
              <InterpolatingParam id="1171" interp="linr"  time="-9999999/1" value="1" leadInLength="0/1"  />
              <InterpolatingParam id="1172" interp="linr"  time="-9999999/1" value="1" leadInLength="0/1"  />
              <InterpolatingParam id="1173" interp="linr"  time="-9999999/1" value="1" leadInLength="0/1"  />
             </VectorParam>
             <VectorParam id="1174"  name="anchor">
              <InterpolatingParam id="1175" interp="linr"  time="0/1" value="0" leadInLength="0/1"  />
              <InterpolatingParam id="1176" interp="linr"  time="0/1" value="0" leadInLength="0/1"  />
              <InterpolatingParam id="1177" interp="linr"  time="0/1" value="0" leadInLength="0/1"  />
             </VectorParam>
            </Transformer>
            <Parameters>
             <VectorParam id="1178"  name="sourceCrop">
              <InterpolatingParam id="1179" interp="linr"  time="0/1" value="0" leadInLength="0/1"  />
              <InterpolatingParam id="1180" interp="linr"  time="0/1" value="0" leadInLength="0/1"  />
              <InterpolatingParam id="1181" interp="linr"  time="0/1" value="0" leadInLength="0/1"  />
              <InterpolatingParam id="1182" interp="linr"  time="0/1" value="0" leadInLength="0/1"  />
             </VectorParam>
             <VectorParam id="1183"  name="geometryCrop">
              <InterpolatingParam id="1184" interp="linr"  time="-9999999/1" value="0" leadInLength="0/1"  />
              <InterpolatingParam id="1185" interp="linr"  time="-9999999/1" value="0" leadInLength="0/1"  />
              <InterpolatingParam id="1186" interp="linr"  time="-9999999/1" value="0" leadInLength="0/1"  />
              <InterpolatingParam id="1187" interp="linr"  time="-9999999/1" value="0" leadInLength="0/1"  />
             </VectorParam>
             <InterpolatingParam id="1188" interp="linr"  time="-9999999/1" value="1" leadInLength="0/1"  name="opacity"/>
             <InterpolatingParam id="1189" interp="linr"  time="0/1" value="0" leadInLength="0/1"  name="cursorOpacity"/>
             <InterpolatingParam id="1190" interp="linr"  time="0/1" value="0" leadInLength="0/1"  name="cursorScale"/>
            </Parameters>
            <Attributes>
             <Attribute id="1191" value="" name="ident"/>
            </Attributes>
            <MetaData>
             <entry key="AutoAppliedSmartFocus" val="False"/>
             <entry key="WinSubProjectDisplayName" val=""/>
            </MetaData>
            <ExtraData>
             <Entry key="ZoomPanBin">
              <ZoomPanBin id="1192"  >
               <ZoomPanKeyframes>
               </ZoomPanKeyframes>
              </ZoomPanBin>
             </Entry>
             <Entry key="CursorEffectBin">
              <CursorEffectBin id="1193"  >
               <CursorEffectKeyframes>
               </CursorEffectKeyframes>
              </CursorEffectBin>
             </Entry>
            </ExtraData>
           </ScreenVMFile>
           <ScreenVMFile id="1194" start="174" duration="132" scalar="1/1" mediaStart="233/1" mediaDuration="132/1" trackNumber="0" src="4" >
            <Transformer>
             <VectorParam id="1195"  name="translation">
              <InterpolatingParam id="1196" interp="linr"  time="-9999999/1" value="0" leadInLength="0/1"  />
              <InterpolatingParam id="1197" interp="linr"  time="-9999999/1" value="0" leadInLength="0/1"  />
              <InterpolatingParam id="1198" interp="linr"  time="-9999999/1" value="0" leadInLength="0/1"  />
             </VectorParam>
             <VectorParam id="1199"  name="rotation">
              <InterpolatingParam id="1200" interp="linr"  time="-9999999/1" value="0" leadInLength="0/1"  />
              <InterpolatingParam id="1201" interp="linr"  time="-9999999/1" value="0" leadInLength="0/1"  />
              <InterpolatingParam id="1202" interp="linr"  time="-9999999/1" value="0" leadInLength="0/1"  />
             </VectorParam>
             <VectorParam id="1203"  name="shear">
              <InterpolatingParam id="1204" interp="linr"  time="-9999999/1" value="0" leadInLength="0/1"  />
              <InterpolatingParam id="1205" interp="linr"  time="-9999999/1" value="0" leadInLength="0/1"  />
              <InterpolatingParam id="1206" interp="linr"  time="-9999999/1" value="0" leadInLength="0/1"  />
             </VectorParam>
             <VectorParam id="1207"  name="scale">
              <InterpolatingParam id="1208" interp="linr"  time="-9999999/1" value="1" leadInLength="0/1"  />
              <InterpolatingParam id="1209" interp="linr"  time="-9999999/1" value="1" leadInLength="0/1"  />
              <InterpolatingParam id="1210" interp="linr"  time="-9999999/1" value="1" leadInLength="0/1"  />
             </VectorParam>
             <VectorParam id="1211"  name="anchor">
              <InterpolatingParam id="1212" interp="linr"  time="0/1" value="0" leadInLength="0/1"  />
              <InterpolatingParam id="1213" interp="linr"  time="0/1" value="0" leadInLength="0/1"  />
              <InterpolatingParam id="1214" interp="linr"  time="0/1" value="0" leadInLength="0/1"  />
             </VectorParam>
            </Transformer>
            <Parameters>
             <VectorParam id="1215"  name="sourceCrop">
              <InterpolatingParam id="1216" interp="linr"  time="0/1" value="0" leadInLength="0/1"  />
              <InterpolatingParam id="1217" interp="linr"  time="0/1" value="0" leadInLength="0/1"  />
              <InterpolatingParam id="1218" interp="linr"  time="0/1" value="0" leadInLength="0/1"  />
              <InterpolatingParam id="1219" interp="linr"  time="0/1" value="0" leadInLength="0/1"  />
             </VectorParam>
             <VectorParam id="1220"  name="geometryCrop">
              <InterpolatingParam id="1221" interp="linr"  time="-9999999/1" value="0" leadInLength="0/1"  />
              <InterpolatingParam id="1222" interp="linr"  time="-9999999/1" value="0" leadInLength="0/1"  />
              <InterpolatingParam id="1223" interp="linr"  time="-9999999/1" value="0" leadInLength="0/1"  />
              <InterpolatingParam id="1224" interp="linr"  time="-9999999/1" value="0" leadInLength="0/1"  />
             </VectorParam>
             <InterpolatingParam id="1225" interp="linr"  time="-9999999/1" value="1" leadInLength="0/1"  name="opacity"/>
             <InterpolatingParam id="1226" interp="linr"  time="0/1" value="0" leadInLength="0/1"  name="cursorOpacity"/>
             <InterpolatingParam id="1227" interp="linr"  time="0/1" value="0" leadInLength="0/1"  name="cursorScale"/>
            </Parameters>
            <Attributes>
             <Attribute id="1228" value="" name="ident"/>
            </Attributes>
            <MetaData>
             <entry key="AutoAppliedSmartFocus" val="False"/>
             <entry key="WinSubProjectDisplayName" val=""/>
            </MetaData>
            <ExtraData>
             <Entry key="ZoomPanBin">
              <ZoomPanBin id="1229"  >
               <ZoomPanKeyframes>
               </ZoomPanKeyframes>
              </ZoomPanBin>
             </Entry>
             <Entry key="CursorEffectBin">
              <CursorEffectBin id="1230"  >
               <CursorEffectKeyframes>
               </CursorEffectKeyframes>
              </CursorEffectBin>
             </Entry>
            </ExtraData>
           </ScreenVMFile>
           <ScreenVMFile id="1231" start="306" duration="92" scalar="1/1" mediaStart="383/1" mediaDuration="92/1" trackNumber="0" src="4" >
            <Transformer>
             <VectorParam id="1232"  name="translation">
              <InterpolatingParam id="1233" interp="linr"  time="-9999999/1" value="0" leadInLength="0/1"  />
              <InterpolatingParam id="1234" interp="linr"  time="-9999999/1" value="0" leadInLength="0/1"  />
              <InterpolatingParam id="1235" interp="linr"  time="-9999999/1" value="0" leadInLength="0/1"  />
             </VectorParam>
             <VectorParam id="1236"  name="rotation">
              <InterpolatingParam id="1237" interp="linr"  time="-9999999/1" value="0" leadInLength="0/1"  />
              <InterpolatingParam id="1238" interp="linr"  time="-9999999/1" value="0" leadInLength="0/1"  />
              <InterpolatingParam id="1239" interp="linr"  time="-9999999/1" value="0" leadInLength="0/1"  />
             </VectorParam>
             <VectorParam id="1240"  name="shear">
              <InterpolatingParam id="1241" interp="linr"  time="-9999999/1" value="0" leadInLength="0/1"  />
              <InterpolatingParam id="1242" interp="linr"  time="-9999999/1" value="0" leadInLength="0/1"  />
              <InterpolatingParam id="1243" interp="linr"  time="-9999999/1" value="0" leadInLength="0/1"  />
             </VectorParam>
             <VectorParam id="1244"  name="scale">
              <InterpolatingParam id="1245" interp="linr"  time="-9999999/1" value="1" leadInLength="0/1"  />
              <InterpolatingParam id="1246" interp="linr"  time="-9999999/1" value="1" leadInLength="0/1"  />
              <InterpolatingParam id="1247" interp="linr"  time="-9999999/1" value="1" leadInLength="0/1"  />
             </VectorParam>
             <VectorParam id="1248"  name="anchor">
              <InterpolatingParam id="1249" interp="linr"  time="0/1" value="0" leadInLength="0/1"  />
              <InterpolatingParam id="1250" interp="linr"  time="0/1" value="0" leadInLength="0/1"  />
              <InterpolatingParam id="1251" interp="linr"  time="0/1" value="0" leadInLength="0/1"  />
             </VectorParam>
            </Transformer>
            <Parameters>
             <VectorParam id="1252"  name="sourceCrop">
              <InterpolatingParam id="1253" interp="linr"  time="0/1" value="0" leadInLength="0/1"  />
              <InterpolatingParam id="1254" interp="linr"  time="0/1" value="0" leadInLength="0/1"  />
              <InterpolatingParam id="1255" interp="linr"  time="0/1" value="0" leadInLength="0/1"  />
              <InterpolatingParam id="1256" interp="linr"  time="0/1" value="0" leadInLength="0/1"  />
             </VectorParam>
             <VectorParam id="1257"  name="geometryCrop">
              <InterpolatingParam id="1258" interp="linr"  time="-9999999/1" value="0" leadInLength="0/1"  />
              <InterpolatingParam id="1259" interp="linr"  time="-9999999/1" value="0" leadInLength="0/1"  />
              <InterpolatingParam id="1260" interp="linr"  time="-9999999/1" value="0" leadInLength="0/1"  />
              <InterpolatingParam id="1261" interp="linr"  time="-9999999/1" value="0" leadInLength="0/1"  />
             </VectorParam>
             <InterpolatingParam id="1262" interp="linr"  time="-9999999/1" value="1" leadInLength="0/1"  name="opacity"/>
             <InterpolatingParam id="1263" interp="linr"  time="0/1" value="0" leadInLength="0/1"  name="cursorOpacity"/>
             <InterpolatingParam id="1264" interp="linr"  time="0/1" value="0" leadInLength="0/1"  name="cursorScale"/>
            </Parameters>
            <Attributes>
             <Attribute id="1265" value="" name="ident"/>
            </Attributes>
            <MetaData>
             <entry key="AutoAppliedSmartFocus" val="False"/>
             <entry key="WinSubProjectDisplayName" val=""/>
            </MetaData>
            <ExtraData>
             <Entry key="ZoomPanBin">
              <ZoomPanBin id="1266"  >
               <ZoomPanKeyframes>
               </ZoomPanKeyframes>
              </ZoomPanBin>
             </Entry>
             <Entry key="CursorEffectBin">
              <CursorEffectBin id="1267"  >
               <CursorEffectKeyframes>
               </CursorEffectKeyframes>
              </CursorEffectBin>
             </Entry>
            </ExtraData>
           </ScreenVMFile>
           <ScreenVMFile id="1268" start="398" duration="178" scalar="1/1" mediaStart="497/1" mediaDuration="178/1" trackNumber="0" src="4" >
            <Transformer>
             <VectorParam id="1269"  name="translation">
              <InterpolatingParam id="1270" interp="linr"  time="-9999999/1" value="0" leadInLength="0/1"  />
              <InterpolatingParam id="1271" interp="linr"  time="-9999999/1" value="0" leadInLength="0/1"  />
              <InterpolatingParam id="1272" interp="linr"  time="-9999999/1" value="0" leadInLength="0/1"  />
             </VectorParam>
             <VectorParam id="1273"  name="rotation">
              <InterpolatingParam id="1274" interp="linr"  time="-9999999/1" value="0" leadInLength="0/1"  />
              <InterpolatingParam id="1275" interp="linr"  time="-9999999/1" value="0" leadInLength="0/1"  />
              <InterpolatingParam id="1276" interp="linr"  time="-9999999/1" value="0" leadInLength="0/1"  />
             </VectorParam>
             <VectorParam id="1277"  name="shear">
              <InterpolatingParam id="1278" interp="linr"  time="-9999999/1" value="0" leadInLength="0/1"  />
              <InterpolatingParam id="1279" interp="linr"  time="-9999999/1" value="0" leadInLength="0/1"  />
              <InterpolatingParam id="1280" interp="linr"  time="-9999999/1" value="0" leadInLength="0/1"  />
             </VectorParam>
             <VectorParam id="1281"  name="scale">
              <InterpolatingParam id="1282" interp="linr"  time="-9999999/1" value="1" leadInLength="0/1"  />
              <InterpolatingParam id="1283" interp="linr"  time="-9999999/1" value="1" leadInLength="0/1"  />
              <InterpolatingParam id="1284" interp="linr"  time="-9999999/1" value="1" leadInLength="0/1"  />
             </VectorParam>
             <VectorParam id="1285"  name="anchor">
              <InterpolatingParam id="1286" interp="linr"  time="0/1" value="0" leadInLength="0/1"  />
              <InterpolatingParam id="1287" interp="linr"  time="0/1" value="0" leadInLength="0/1"  />
              <InterpolatingParam id="1288" interp="linr"  time="0/1" value="0" leadInLength="0/1"  />
             </VectorParam>
            </Transformer>
            <Parameters>
             <VectorParam id="1289"  name="sourceCrop">
              <InterpolatingParam id="1290" interp="linr"  time="0/1" value="0" leadInLength="0/1"  />
              <InterpolatingParam id="1291" interp="linr"  time="0/1" value="0" leadInLength="0/1"  />
              <InterpolatingParam id="1292" interp="linr"  time="0/1" value="0" leadInLength="0/1"  />
              <InterpolatingParam id="1293" interp="linr"  time="0/1" value="0" leadInLength="0/1"  />
             </VectorParam>
             <VectorParam id="1294"  name="geometryCrop">
              <InterpolatingParam id="1295" interp="linr"  time="-9999999/1" value="0" leadInLength="0/1"  />
              <InterpolatingParam id="1296" interp="linr"  time="-9999999/1" value="0" leadInLength="0/1"  />
              <InterpolatingParam id="1297" interp="linr"  time="-9999999/1" value="0" leadInLength="0/1"  />
              <InterpolatingParam id="1298" interp="linr"  time="-9999999/1" value="0" leadInLength="0/1"  />
             </VectorParam>
             <InterpolatingParam id="1299" interp="linr"  time="-9999999/1" value="1" leadInLength="0/1"  name="opacity"/>
             <InterpolatingParam id="1300" interp="linr"  time="0/1" value="0" leadInLength="0/1"  name="cursorOpacity"/>
             <InterpolatingParam id="1301" interp="linr"  time="0/1" value="0" leadInLength="0/1"  name="cursorScale"/>
            </Parameters>
            <Attributes>
             <Attribute id="1302" value="" name="ident"/>
            </Attributes>
            <MetaData>
             <entry key="AutoAppliedSmartFocus" val="False"/>
             <entry key="WinSubProjectDisplayName" val=""/>
            </MetaData>
            <ExtraData>
             <Entry key="ZoomPanBin">
              <ZoomPanBin id="1303"  >
               <ZoomPanKeyframes>
               </ZoomPanKeyframes>
              </ZoomPanBin>
             </Entry>
             <Entry key="CursorEffectBin">
              <CursorEffectBin id="1304"  >
               <CursorEffectKeyframes>
               </CursorEffectKeyframes>
              </CursorEffectBin>
             </Entry>
            </ExtraData>
           </ScreenVMFile>
           <ScreenVMFile id="1305" start="576" duration="22" scalar="1/1" mediaStart="680/1" mediaDuration="22/1" trackNumber="0" src="4" >
            <Transformer>
             <VectorParam id="1306"  name="translation">
              <InterpolatingParam id="1307" interp="linr"  time="-9999999/1" value="0" leadInLength="0/1"  />
              <InterpolatingParam id="1308" interp="linr"  time="-9999999/1" value="0" leadInLength="0/1"  />
              <InterpolatingParam id="1309" interp="linr"  time="-9999999/1" value="0" leadInLength="0/1"  />
             </VectorParam>
             <VectorParam id="1310"  name="rotation">
              <InterpolatingParam id="1311" interp="linr"  time="-9999999/1" value="0" leadInLength="0/1"  />
              <InterpolatingParam id="1312" interp="linr"  time="-9999999/1" value="0" leadInLength="0/1"  />
              <InterpolatingParam id="1313" interp="linr"  time="-9999999/1" value="0" leadInLength="0/1"  />
             </VectorParam>
             <VectorParam id="1314"  name="shear">
              <InterpolatingParam id="1315" interp="linr"  time="-9999999/1" value="0" leadInLength="0/1"  />
              <InterpolatingParam id="1316" interp="linr"  time="-9999999/1" value="0" leadInLength="0/1"  />
              <InterpolatingParam id="1317" interp="linr"  time="-9999999/1" value="0" leadInLength="0/1"  />
             </VectorParam>
             <VectorParam id="1318"  name="scale">
              <InterpolatingParam id="1319" interp="linr"  time="-9999999/1" value="1" leadInLength="0/1"  />
              <InterpolatingParam id="1320" interp="linr"  time="-9999999/1" value="1" leadInLength="0/1"  />
              <InterpolatingParam id="1321" interp="linr"  time="-9999999/1" value="1" leadInLength="0/1"  />
             </VectorParam>
             <VectorParam id="1322"  name="anchor">
              <InterpolatingParam id="1323" interp="linr"  time="0/1" value="0" leadInLength="0/1"  />
              <InterpolatingParam id="1324" interp="linr"  time="0/1" value="0" leadInLength="0/1"  />
              <InterpolatingParam id="1325" interp="linr"  time="0/1" value="0" leadInLength="0/1"  />
             </VectorParam>
            </Transformer>
            <Parameters>
             <VectorParam id="1326"  name="sourceCrop">
              <InterpolatingParam id="1327" interp="linr"  time="0/1" value="0" leadInLength="0/1"  />
              <InterpolatingParam id="1328" interp="linr"  time="0/1" value="0" leadInLength="0/1"  />
              <InterpolatingParam id="1329" interp="linr"  time="0/1" value="0" leadInLength="0/1"  />
              <InterpolatingParam id="1330" interp="linr"  time="0/1" value="0" leadInLength="0/1"  />
             </VectorParam>
             <VectorParam id="1331"  name="geometryCrop">
              <InterpolatingParam id="1332" interp="linr"  time="-9999999/1" value="0" leadInLength="0/1"  />
              <InterpolatingParam id="1333" interp="linr"  time="-9999999/1" value="0" leadInLength="0/1"  />
              <InterpolatingParam id="1334" interp="linr"  time="-9999999/1" value="0" leadInLength="0/1"  />
              <InterpolatingParam id="1335" interp="linr"  time="-9999999/1" value="0" leadInLength="0/1"  />
             </VectorParam>
             <InterpolatingParam id="1336" interp="linr"  time="-9999999/1" value="1" leadInLength="0/1"  name="opacity"/>
             <InterpolatingParam id="1337" interp="linr"  time="0/1" value="0" leadInLength="0/1"  name="cursorOpacity"/>
             <InterpolatingParam id="1338" interp="linr"  time="0/1" value="0" leadInLength="0/1"  name="cursorScale"/>
            </Parameters>
            <Attributes>
             <Attribute id="1339" value="" name="ident"/>
            </Attributes>
            <MetaData>
             <entry key="AutoAppliedSmartFocus" val="False"/>
             <entry key="WinSubProjectDisplayName" val=""/>
            </MetaData>
            <ExtraData>
             <Entry key="ZoomPanBin">
              <ZoomPanBin id="1340"  >
               <ZoomPanKeyframes>
               </ZoomPanKeyframes>
              </ZoomPanBin>
             </Entry>
             <Entry key="CursorEffectBin">
              <CursorEffectBin id="1341"  >
               <CursorEffectKeyframes>
               </CursorEffectKeyframes>
              </CursorEffectBin>
             </Entry>
            </ExtraData>
           </ScreenVMFile>
           <ScreenVMFile id="1342" start="598" duration="160" scalar="1/1" mediaStart="710/1" mediaDuration="160/1" trackNumber="0" src="4" >
            <Transformer>
             <VectorParam id="1343"  name="translation">
              <InterpolatingParam id="1344" interp="linr"  time="-9999999/1" value="0" leadInLength="0/1"  />
              <InterpolatingParam id="1345" interp="linr"  time="-9999999/1" value="0" leadInLength="0/1"  />
              <InterpolatingParam id="1346" interp="linr"  time="-9999999/1" value="0" leadInLength="0/1"  />
             </VectorParam>
             <VectorParam id="1347"  name="rotation">
              <InterpolatingParam id="1348" interp="linr"  time="-9999999/1" value="0" leadInLength="0/1"  />
              <InterpolatingParam id="1349" interp="linr"  time="-9999999/1" value="0" leadInLength="0/1"  />
              <InterpolatingParam id="1350" interp="linr"  time="-9999999/1" value="0" leadInLength="0/1"  />
             </VectorParam>
             <VectorParam id="1351"  name="shear">
              <InterpolatingParam id="1352" interp="linr"  time="-9999999/1" value="0" leadInLength="0/1"  />
              <InterpolatingParam id="1353" interp="linr"  time="-9999999/1" value="0" leadInLength="0/1"  />
              <InterpolatingParam id="1354" interp="linr"  time="-9999999/1" value="0" leadInLength="0/1"  />
             </VectorParam>
             <VectorParam id="1355"  name="scale">
              <InterpolatingParam id="1356" interp="linr"  time="-9999999/1" value="1" leadInLength="0/1"  />
              <InterpolatingParam id="1357" interp="linr"  time="-9999999/1" value="1" leadInLength="0/1"  />
              <InterpolatingParam id="1358" interp="linr"  time="-9999999/1" value="1" leadInLength="0/1"  />
             </VectorParam>
             <VectorParam id="1359"  name="anchor">
              <InterpolatingParam id="1360" interp="linr"  time="0/1" value="0" leadInLength="0/1"  />
              <InterpolatingParam id="1361" interp="linr"  time="0/1" value="0" leadInLength="0/1"  />
              <InterpolatingParam id="1362" interp="linr"  time="0/1" value="0" leadInLength="0/1"  />
             </VectorParam>
            </Transformer>
            <Parameters>
             <VectorParam id="1363"  name="sourceCrop">
              <InterpolatingParam id="1364" interp="linr"  time="0/1" value="0" leadInLength="0/1"  />
              <InterpolatingParam id="1365" interp="linr"  time="0/1" value="0" leadInLength="0/1"  />
              <InterpolatingParam id="1366" interp="linr"  time="0/1" value="0" leadInLength="0/1"  />
              <InterpolatingParam id="1367" interp="linr"  time="0/1" value="0" leadInLength="0/1"  />
             </VectorParam>
             <VectorParam id="1368"  name="geometryCrop">
              <InterpolatingParam id="1369" interp="linr"  time="-9999999/1" value="0" leadInLength="0/1"  />
              <InterpolatingParam id="1370" interp="linr"  time="-9999999/1" value="0" leadInLength="0/1"  />
              <InterpolatingParam id="1371" interp="linr"  time="-9999999/1" value="0" leadInLength="0/1"  />
              <InterpolatingParam id="1372" interp="linr"  time="-9999999/1" value="0" leadInLength="0/1"  />
             </VectorParam>
             <InterpolatingParam id="1373" interp="linr"  time="-9999999/1" value="1" leadInLength="0/1"  name="opacity"/>
             <InterpolatingParam id="1374" interp="linr"  time="0/1" value="0" leadInLength="0/1"  name="cursorOpacity"/>
             <InterpolatingParam id="1375" interp="linr"  time="0/1" value="0" leadInLength="0/1"  name="cursorScale"/>
            </Parameters>
            <Attributes>
             <Attribute id="1376" value="" name="ident"/>
            </Attributes>
            <MetaData>
             <entry key="AutoAppliedSmartFocus" val="False"/>
             <entry key="WinSubProjectDisplayName" val=""/>
            </MetaData>
            <ExtraData>
             <Entry key="ZoomPanBin">
              <ZoomPanBin id="1377"  >
               <ZoomPanKeyframes>
               </ZoomPanKeyframes>
              </ZoomPanBin>
             </Entry>
             <Entry key="CursorEffectBin">
              <CursorEffectBin id="1378"  >
               <CursorEffectKeyframes>
               </CursorEffectKeyframes>
              </CursorEffectBin>
             </Entry>
            </ExtraData>
           </ScreenVMFile>
           <ScreenVMFile id="1379" start="758" duration="87" scalar="1/1" mediaStart="885/1" mediaDuration="87/1" trackNumber="0" src="4" >
            <Transformer>
             <VectorParam id="1380"  name="translation">
              <InterpolatingParam id="1381" interp="linr"  time="-9999999/1" value="0" leadInLength="0/1"  />
              <InterpolatingParam id="1382" interp="linr"  time="-9999999/1" value="0" leadInLength="0/1"  />
              <InterpolatingParam id="1383" interp="linr"  time="-9999999/1" value="0" leadInLength="0/1"  />
             </VectorParam>
             <VectorParam id="1384"  name="rotation">
              <InterpolatingParam id="1385" interp="linr"  time="-9999999/1" value="0" leadInLength="0/1"  />
              <InterpolatingParam id="1386" interp="linr"  time="-9999999/1" value="0" leadInLength="0/1"  />
              <InterpolatingParam id="1387" interp="linr"  time="-9999999/1" value="0" leadInLength="0/1"  />
             </VectorParam>
             <VectorParam id="1388"  name="shear">
              <InterpolatingParam id="1389" interp="linr"  time="-9999999/1" value="0" leadInLength="0/1"  />
              <InterpolatingParam id="1390" interp="linr"  time="-9999999/1" value="0" leadInLength="0/1"  />
              <InterpolatingParam id="1391" interp="linr"  time="-9999999/1" value="0" leadInLength="0/1"  />
             </VectorParam>
             <VectorParam id="1392"  name="scale">
              <InterpolatingParam id="1393" interp="linr"  time="-9999999/1" value="1" leadInLength="0/1"  />
              <InterpolatingParam id="1394" interp="linr"  time="-9999999/1" value="1" leadInLength="0/1"  />
              <InterpolatingParam id="1395" interp="linr"  time="-9999999/1" value="1" leadInLength="0/1"  />
             </VectorParam>
             <VectorParam id="1396"  name="anchor">
              <InterpolatingParam id="1397" interp="linr"  time="0/1" value="0" leadInLength="0/1"  />
              <InterpolatingParam id="1398" interp="linr"  time="0/1" value="0" leadInLength="0/1"  />
              <InterpolatingParam id="1399" interp="linr"  time="0/1" value="0" leadInLength="0/1"  />
             </VectorParam>
            </Transformer>
            <Parameters>
             <VectorParam id="1400"  name="sourceCrop">
              <InterpolatingParam id="1401" interp="linr"  time="0/1" value="0" leadInLength="0/1"  />
              <InterpolatingParam id="1402" interp="linr"  time="0/1" value="0" leadInLength="0/1"  />
              <InterpolatingParam id="1403" interp="linr"  time="0/1" value="0" leadInLength="0/1"  />
              <InterpolatingParam id="1404" interp="linr"  time="0/1" value="0" leadInLength="0/1"  />
             </VectorParam>
             <VectorParam id="1405"  name="geometryCrop">
              <InterpolatingParam id="1406" interp="linr"  time="-9999999/1" value="0" leadInLength="0/1"  />
              <InterpolatingParam id="1407" interp="linr"  time="-9999999/1" value="0" leadInLength="0/1"  />
              <InterpolatingParam id="1408" interp="linr"  time="-9999999/1" value="0" leadInLength="0/1"  />
              <InterpolatingParam id="1409" interp="linr"  time="-9999999/1" value="0" leadInLength="0/1"  />
             </VectorParam>
             <InterpolatingParam id="1410" interp="linr"  time="-9999999/1" value="1" leadInLength="0/1"  name="opacity"/>
             <InterpolatingParam id="1411" interp="linr"  time="0/1" value="0" leadInLength="0/1"  name="cursorOpacity"/>
             <InterpolatingParam id="1412" interp="linr"  time="0/1" value="0" leadInLength="0/1"  name="cursorScale"/>
            </Parameters>
            <Attributes>
             <Attribute id="1413" value="" name="ident"/>
            </Attributes>
            <MetaData>
             <entry key="AutoAppliedSmartFocus" val="False"/>
             <entry key="WinSubProjectDisplayName" val=""/>
            </MetaData>
            <ExtraData>
             <Entry key="ZoomPanBin">
              <ZoomPanBin id="1414"  >
               <ZoomPanKeyframes>
               </ZoomPanKeyframes>
              </ZoomPanBin>
             </Entry>
             <Entry key="CursorEffectBin">
              <CursorEffectBin id="1415"  >
               <CursorEffectKeyframes>
               </CursorEffectKeyframes>
              </CursorEffectBin>
             </Entry>
            </ExtraData>
           </ScreenVMFile>
           <ScreenVMFile id="1416" start="845" duration="254" scalar="1/1" mediaStart="1020/1" mediaDuration="254/1" trackNumber="0" src="4" >
            <Transformer>
             <VectorParam id="1417"  name="translation">
              <InterpolatingParam id="1418" interp="linr"  time="-9999999/1" value="0" leadInLength="0/1"  />
              <InterpolatingParam id="1419" interp="linr"  time="-9999999/1" value="0" leadInLength="0/1"  />
              <InterpolatingParam id="1420" interp="linr"  time="-9999999/1" value="0" leadInLength="0/1"  />
             </VectorParam>
             <VectorParam id="1421"  name="rotation">
              <InterpolatingParam id="1422" interp="linr"  time="-9999999/1" value="0" leadInLength="0/1"  />
              <InterpolatingParam id="1423" interp="linr"  time="-9999999/1" value="0" leadInLength="0/1"  />
              <InterpolatingParam id="1424" interp="linr"  time="-9999999/1" value="0" leadInLength="0/1"  />
             </VectorParam>
             <VectorParam id="1425"  name="shear">
              <InterpolatingParam id="1426" interp="linr"  time="-9999999/1" value="0" leadInLength="0/1"  />
              <InterpolatingParam id="1427" interp="linr"  time="-9999999/1" value="0" leadInLength="0/1"  />
              <InterpolatingParam id="1428" interp="linr"  time="-9999999/1" value="0" leadInLength="0/1"  />
             </VectorParam>
             <VectorParam id="1429"  name="scale">
              <InterpolatingParam id="1430" interp="linr"  time="-9999999/1" value="1" leadInLength="0/1"  />
              <InterpolatingParam id="1431" interp="linr"  time="-9999999/1" value="1" leadInLength="0/1"  />
              <InterpolatingParam id="1432" interp="linr"  time="-9999999/1" value="1" leadInLength="0/1"  />
             </VectorParam>
             <VectorParam id="1433"  name="anchor">
              <InterpolatingParam id="1434" interp="linr"  time="0/1" value="0" leadInLength="0/1"  />
              <InterpolatingParam id="1435" interp="linr"  time="0/1" value="0" leadInLength="0/1"  />
              <InterpolatingParam id="1436" interp="linr"  time="0/1" value="0" leadInLength="0/1"  />
             </VectorParam>
            </Transformer>
            <Parameters>
             <VectorParam id="1437"  name="sourceCrop">
              <InterpolatingParam id="1438" interp="linr"  time="0/1" value="0" leadInLength="0/1"  />
              <InterpolatingParam id="1439" interp="linr"  time="0/1" value="0" leadInLength="0/1"  />
              <InterpolatingParam id="1440" interp="linr"  time="0/1" value="0" leadInLength="0/1"  />
              <InterpolatingParam id="1441" interp="linr"  time="0/1" value="0" leadInLength="0/1"  />
             </VectorParam>
             <VectorParam id="1442"  name="geometryCrop">
              <InterpolatingParam id="1443" interp="linr"  time="-9999999/1" value="0" leadInLength="0/1"  />
              <InterpolatingParam id="1444" interp="linr"  time="-9999999/1" value="0" leadInLength="0/1"  />
              <InterpolatingParam id="1445" interp="linr"  time="-9999999/1" value="0" leadInLength="0/1"  />
              <InterpolatingParam id="1446" interp="linr"  time="-9999999/1" value="0" leadInLength="0/1"  />
             </VectorParam>
             <InterpolatingParam id="1447" interp="linr"  time="-9999999/1" value="1" leadInLength="0/1"  name="opacity"/>
             <InterpolatingParam id="1448" interp="linr"  time="0/1" value="0" leadInLength="0/1"  name="cursorOpacity"/>
             <InterpolatingParam id="1449" interp="linr"  time="0/1" value="0" leadInLength="0/1"  name="cursorScale"/>
            </Parameters>
            <Attributes>
             <Attribute id="1450" value="" name="ident"/>
            </Attributes>
            <MetaData>
             <entry key="AutoAppliedSmartFocus" val="False"/>
             <entry key="WinSubProjectDisplayName" val=""/>
            </MetaData>
            <ExtraData>
             <Entry key="ZoomPanBin">
              <ZoomPanBin id="1451"  >
               <ZoomPanKeyframes>
               </ZoomPanKeyframes>
              </ZoomPanBin>
             </Entry>
             <Entry key="CursorEffectBin">
              <CursorEffectBin id="1452"  >
               <CursorEffectKeyframes>
               </CursorEffectKeyframes>
              </CursorEffectBin>
             </Entry>
            </ExtraData>
           </ScreenVMFile>
           <ScreenVMFile id="1453" start="1099" duration="60" scalar="1/1" mediaStart="1302/1" mediaDuration="60/1" trackNumber="0" src="4" >
            <Transformer>
             <VectorParam id="1454"  name="translation">
              <InterpolatingParam id="1455" interp="linr"  time="-9999999/1" value="0" leadInLength="0/1"  />
              <InterpolatingParam id="1456" interp="linr"  time="-9999999/1" value="0" leadInLength="0/1"  />
              <InterpolatingParam id="1457" interp="linr"  time="-9999999/1" value="0" leadInLength="0/1"  />
             </VectorParam>
             <VectorParam id="1458"  name="rotation">
              <InterpolatingParam id="1459" interp="linr"  time="-9999999/1" value="0" leadInLength="0/1"  />
              <InterpolatingParam id="1460" interp="linr"  time="-9999999/1" value="0" leadInLength="0/1"  />
              <InterpolatingParam id="1461" interp="linr"  time="-9999999/1" value="0" leadInLength="0/1"  />
             </VectorParam>
             <VectorParam id="1462"  name="shear">
              <InterpolatingParam id="1463" interp="linr"  time="-9999999/1" value="0" leadInLength="0/1"  />
              <InterpolatingParam id="1464" interp="linr"  time="-9999999/1" value="0" leadInLength="0/1"  />
              <InterpolatingParam id="1465" interp="linr"  time="-9999999/1" value="0" leadInLength="0/1"  />
             </VectorParam>
             <VectorParam id="1466"  name="scale">
              <InterpolatingParam id="1467" interp="linr"  time="-9999999/1" value="1" leadInLength="0/1"  />
              <InterpolatingParam id="1468" interp="linr"  time="-9999999/1" value="1" leadInLength="0/1"  />
              <InterpolatingParam id="1469" interp="linr"  time="-9999999/1" value="1" leadInLength="0/1"  />
             </VectorParam>
             <VectorParam id="1470"  name="anchor">
              <InterpolatingParam id="1471" interp="linr"  time="0/1" value="0" leadInLength="0/1"  />
              <InterpolatingParam id="1472" interp="linr"  time="0/1" value="0" leadInLength="0/1"  />
              <InterpolatingParam id="1473" interp="linr"  time="0/1" value="0" leadInLength="0/1"  />
             </VectorParam>
            </Transformer>
            <Parameters>
             <VectorParam id="1474"  name="sourceCrop">
              <InterpolatingParam id="1475" interp="linr"  time="0/1" value="0" leadInLength="0/1"  />
              <InterpolatingParam id="1476" interp="linr"  time="0/1" value="0" leadInLength="0/1"  />
              <InterpolatingParam id="1477" interp="linr"  time="0/1" value="0" leadInLength="0/1"  />
              <InterpolatingParam id="1478" interp="linr"  time="0/1" value="0" leadInLength="0/1"  />
             </VectorParam>
             <VectorParam id="1479"  name="geometryCrop">
              <InterpolatingParam id="1480" interp="linr"  time="-9999999/1" value="0" leadInLength="0/1"  />
              <InterpolatingParam id="1481" interp="linr"  time="-9999999/1" value="0" leadInLength="0/1"  />
              <InterpolatingParam id="1482" interp="linr"  time="-9999999/1" value="0" leadInLength="0/1"  />
              <InterpolatingParam id="1483" interp="linr"  time="-9999999/1" value="0" leadInLength="0/1"  />
             </VectorParam>
             <InterpolatingParam id="1484" interp="linr"  time="-9999999/1" value="1" leadInLength="0/1"  name="opacity"/>
             <InterpolatingParam id="1485" interp="linr"  time="0/1" value="0" leadInLength="0/1"  name="cursorOpacity"/>
             <InterpolatingParam id="1486" interp="linr"  time="0/1" value="0" leadInLength="0/1"  name="cursorScale"/>
            </Parameters>
            <Attributes>
             <Attribute id="1487" value="" name="ident"/>
            </Attributes>
            <MetaData>
             <entry key="AutoAppliedSmartFocus" val="False"/>
             <entry key="WinSubProjectDisplayName" val=""/>
            </MetaData>
            <ExtraData>
             <Entry key="ZoomPanBin">
              <ZoomPanBin id="1488"  >
               <ZoomPanKeyframes>
               </ZoomPanKeyframes>
              </ZoomPanBin>
             </Entry>
             <Entry key="CursorEffectBin">
              <CursorEffectBin id="1489"  >
               <CursorEffectKeyframes>
               </CursorEffectKeyframes>
              </CursorEffectBin>
             </Entry>
            </ExtraData>
           </ScreenVMFile>
           <ScreenVMFile id="1490" start="1159" duration="135" scalar="1/1" mediaStart="1370/1" mediaDuration="135/1" trackNumber="0" src="4" >
            <Transformer>
             <VectorParam id="1491"  name="translation">
              <InterpolatingParam id="1492" interp="linr"  time="-9999999/1" value="0" leadInLength="0/1"  />
              <InterpolatingParam id="1493" interp="linr"  time="-9999999/1" value="0" leadInLength="0/1"  />
              <InterpolatingParam id="1494" interp="linr"  time="-9999999/1" value="0" leadInLength="0/1"  />
             </VectorParam>
             <VectorParam id="1495"  name="rotation">
              <InterpolatingParam id="1496" interp="linr"  time="-9999999/1" value="0" leadInLength="0/1"  />
              <InterpolatingParam id="1497" interp="linr"  time="-9999999/1" value="0" leadInLength="0/1"  />
              <InterpolatingParam id="1498" interp="linr"  time="-9999999/1" value="0" leadInLength="0/1"  />
             </VectorParam>
             <VectorParam id="1499"  name="shear">
              <InterpolatingParam id="1500" interp="linr"  time="-9999999/1" value="0" leadInLength="0/1"  />
              <InterpolatingParam id="1501" interp="linr"  time="-9999999/1" value="0" leadInLength="0/1"  />
              <InterpolatingParam id="1502" interp="linr"  time="-9999999/1" value="0" leadInLength="0/1"  />
             </VectorParam>
             <VectorParam id="1503"  name="scale">
              <InterpolatingParam id="1504" interp="linr"  time="-9999999/1" value="1" leadInLength="0/1"  />
              <InterpolatingParam id="1505" interp="linr"  time="-9999999/1" value="1" leadInLength="0/1"  />
              <InterpolatingParam id="1506" interp="linr"  time="-9999999/1" value="1" leadInLength="0/1"  />
             </VectorParam>
             <VectorParam id="1507"  name="anchor">
              <InterpolatingParam id="1508" interp="linr"  time="0/1" value="0" leadInLength="0/1"  />
              <InterpolatingParam id="1509" interp="linr"  time="0/1" value="0" leadInLength="0/1"  />
              <InterpolatingParam id="1510" interp="linr"  time="0/1" value="0" leadInLength="0/1"  />
             </VectorParam>
            </Transformer>
            <Parameters>
             <VectorParam id="1511"  name="sourceCrop">
              <InterpolatingParam id="1512" interp="linr"  time="0/1" value="0" leadInLength="0/1"  />
              <InterpolatingParam id="1513" interp="linr"  time="0/1" value="0" leadInLength="0/1"  />
              <InterpolatingParam id="1514" interp="linr"  time="0/1" value="0" leadInLength="0/1"  />
              <InterpolatingParam id="1515" interp="linr"  time="0/1" value="0" leadInLength="0/1"  />
             </VectorParam>
             <VectorParam id="1516"  name="geometryCrop">
              <InterpolatingParam id="1517" interp="linr"  time="-9999999/1" value="0" leadInLength="0/1"  />
              <InterpolatingParam id="1518" interp="linr"  time="-9999999/1" value="0" leadInLength="0/1"  />
              <InterpolatingParam id="1519" interp="linr"  time="-9999999/1" value="0" leadInLength="0/1"  />
              <InterpolatingParam id="1520" interp="linr"  time="-9999999/1" value="0" leadInLength="0/1"  />
             </VectorParam>
             <InterpolatingParam id="1521" interp="linr"  time="-9999999/1" value="1" leadInLength="0/1"  name="opacity"/>
             <InterpolatingParam id="1522" interp="linr"  time="0/1" value="0" leadInLength="0/1"  name="cursorOpacity"/>
             <InterpolatingParam id="1523" interp="linr"  time="0/1" value="0" leadInLength="0/1"  name="cursorScale"/>
            </Parameters>
            <Attributes>
             <Attribute id="1524" value="" name="ident"/>
            </Attributes>
            <MetaData>
             <entry key="AutoAppliedSmartFocus" val="False"/>
             <entry key="WinSubProjectDisplayName" val=""/>
            </MetaData>
            <ExtraData>
             <Entry key="ZoomPanBin">
              <ZoomPanBin id="1525"  >
               <ZoomPanKeyframes>
               </ZoomPanKeyframes>
              </ZoomPanBin>
             </Entry>
             <Entry key="CursorEffectBin">
              <CursorEffectBin id="1526"  >
               <CursorEffectKeyframes>
               </CursorEffectKeyframes>
              </CursorEffectBin>
             </Entry>
            </ExtraData>
           </ScreenVMFile>
           <ScreenVMFile id="1527" start="1294" duration="88" scalar="1/1" mediaStart="1520/1" mediaDuration="88/1" trackNumber="0" src="4" >
            <Transformer>
             <VectorParam id="1528"  name="translation">
              <InterpolatingParam id="1529" interp="linr"  time="-9999999/1" value="0" leadInLength="0/1"  />
              <InterpolatingParam id="1530" interp="linr"  time="-9999999/1" value="0" leadInLength="0/1"  />
              <InterpolatingParam id="1531" interp="linr"  time="-9999999/1" value="0" leadInLength="0/1"  />
             </VectorParam>
             <VectorParam id="1532"  name="rotation">
              <InterpolatingParam id="1533" interp="linr"  time="-9999999/1" value="0" leadInLength="0/1"  />
              <InterpolatingParam id="1534" interp="linr"  time="-9999999/1" value="0" leadInLength="0/1"  />
              <InterpolatingParam id="1535" interp="linr"  time="-9999999/1" value="0" leadInLength="0/1"  />
             </VectorParam>
             <VectorParam id="1536"  name="shear">
              <InterpolatingParam id="1537" interp="linr"  time="-9999999/1" value="0" leadInLength="0/1"  />
              <InterpolatingParam id="1538" interp="linr"  time="-9999999/1" value="0" leadInLength="0/1"  />
              <InterpolatingParam id="1539" interp="linr"  time="-9999999/1" value="0" leadInLength="0/1"  />
             </VectorParam>
             <VectorParam id="1540"  name="scale">
              <InterpolatingParam id="1541" interp="linr"  time="-9999999/1" value="1" leadInLength="0/1"  />
              <InterpolatingParam id="1542" interp="linr"  time="-9999999/1" value="1" leadInLength="0/1"  />
              <InterpolatingParam id="1543" interp="linr"  time="-9999999/1" value="1" leadInLength="0/1"  />
             </VectorParam>
             <VectorParam id="1544"  name="anchor">
              <InterpolatingParam id="1545" interp="linr"  time="0/1" value="0" leadInLength="0/1"  />
              <InterpolatingParam id="1546" interp="linr"  time="0/1" value="0" leadInLength="0/1"  />
              <InterpolatingParam id="1547" interp="linr"  time="0/1" value="0" leadInLength="0/1"  />
             </VectorParam>
            </Transformer>
            <Parameters>
             <VectorParam id="1548"  name="sourceCrop">
              <InterpolatingParam id="1549" interp="linr"  time="0/1" value="0" leadInLength="0/1"  />
              <InterpolatingParam id="1550" interp="linr"  time="0/1" value="0" leadInLength="0/1"  />
              <InterpolatingParam id="1551" interp="linr"  time="0/1" value="0" leadInLength="0/1"  />
              <InterpolatingParam id="1552" interp="linr"  time="0/1" value="0" leadInLength="0/1"  />
             </VectorParam>
             <VectorParam id="1553"  name="geometryCrop">
              <InterpolatingParam id="1554" interp="linr"  time="-9999999/1" value="0" leadInLength="0/1"  />
              <InterpolatingParam id="1555" interp="linr"  time="-9999999/1" value="0" leadInLength="0/1"  />
              <InterpolatingParam id="1556" interp="linr"  time="-9999999/1" value="0" leadInLength="0/1"  />
              <InterpolatingParam id="1557" interp="linr"  time="-9999999/1" value="0" leadInLength="0/1"  />
             </VectorParam>
             <InterpolatingParam id="1558" interp="linr"  time="-9999999/1" value="1" leadInLength="0/1"  name="opacity"/>
             <InterpolatingParam id="1559" interp="linr"  time="0/1" value="0" leadInLength="0/1"  name="cursorOpacity"/>
             <InterpolatingParam id="1560" interp="linr"  time="0/1" value="0" leadInLength="0/1"  name="cursorScale"/>
            </Parameters>
            <Attributes>
             <Attribute id="1561" value="" name="ident"/>
            </Attributes>
            <MetaData>
             <entry key="AutoAppliedSmartFocus" val="False"/>
             <entry key="WinSubProjectDisplayName" val=""/>
            </MetaData>
            <ExtraData>
             <Entry key="ZoomPanBin">
              <ZoomPanBin id="1562"  >
               <ZoomPanKeyframes>
               </ZoomPanKeyframes>
              </ZoomPanBin>
             </Entry>
             <Entry key="CursorEffectBin">
              <CursorEffectBin id="1563"  >
               <CursorEffectKeyframes>
               </CursorEffectKeyframes>
              </CursorEffectBin>
             </Entry>
            </ExtraData>
           </ScreenVMFile>
           <ScreenVMFile id="1564" start="1382" duration="15" scalar="1/1" mediaStart="1629/1" mediaDuration="15/1" trackNumber="0" src="4" >
            <Transformer>
             <VectorParam id="1565"  name="translation">
              <InterpolatingParam id="1566" interp="linr"  time="-9999999/1" value="0" leadInLength="0/1"  />
              <InterpolatingParam id="1567" interp="linr"  time="-9999999/1" value="0" leadInLength="0/1"  />
              <InterpolatingParam id="1568" interp="linr"  time="-9999999/1" value="0" leadInLength="0/1"  />
             </VectorParam>
             <VectorParam id="1569"  name="rotation">
              <InterpolatingParam id="1570" interp="linr"  time="-9999999/1" value="0" leadInLength="0/1"  />
              <InterpolatingParam id="1571" interp="linr"  time="-9999999/1" value="0" leadInLength="0/1"  />
              <InterpolatingParam id="1572" interp="linr"  time="-9999999/1" value="0" leadInLength="0/1"  />
             </VectorParam>
             <VectorParam id="1573"  name="shear">
              <InterpolatingParam id="1574" interp="linr"  time="-9999999/1" value="0" leadInLength="0/1"  />
              <InterpolatingParam id="1575" interp="linr"  time="-9999999/1" value="0" leadInLength="0/1"  />
              <InterpolatingParam id="1576" interp="linr"  time="-9999999/1" value="0" leadInLength="0/1"  />
             </VectorParam>
             <VectorParam id="1577"  name="scale">
              <InterpolatingParam id="1578" interp="linr"  time="-9999999/1" value="1" leadInLength="0/1"  />
              <InterpolatingParam id="1579" interp="linr"  time="-9999999/1" value="1" leadInLength="0/1"  />
              <InterpolatingParam id="1580" interp="linr"  time="-9999999/1" value="1" leadInLength="0/1"  />
             </VectorParam>
             <VectorParam id="1581"  name="anchor">
              <InterpolatingParam id="1582" interp="linr"  time="0/1" value="0" leadInLength="0/1"  />
              <InterpolatingParam id="1583" interp="linr"  time="0/1" value="0" leadInLength="0/1"  />
              <InterpolatingParam id="1584" interp="linr"  time="0/1" value="0" leadInLength="0/1"  />
             </VectorParam>
            </Transformer>
            <Parameters>
             <VectorParam id="1585"  name="sourceCrop">
              <InterpolatingParam id="1586" interp="linr"  time="0/1" value="0" leadInLength="0/1"  />
              <InterpolatingParam id="1587" interp="linr"  time="0/1" value="0" leadInLength="0/1"  />
              <InterpolatingParam id="1588" interp="linr"  time="0/1" value="0" leadInLength="0/1"  />
              <InterpolatingParam id="1589" interp="linr"  time="0/1" value="0" leadInLength="0/1"  />
             </VectorParam>
             <VectorParam id="1590"  name="geometryCrop">
              <InterpolatingParam id="1591" interp="linr"  time="-9999999/1" value="0" leadInLength="0/1"  />
              <InterpolatingParam id="1592" interp="linr"  time="-9999999/1" value="0" leadInLength="0/1"  />
              <InterpolatingParam id="1593" interp="linr"  time="-9999999/1" value="0" leadInLength="0/1"  />
              <InterpolatingParam id="1594" interp="linr"  time="-9999999/1" value="0" leadInLength="0/1"  />
             </VectorParam>
             <InterpolatingParam id="1595" interp="linr"  time="-9999999/1" value="1" leadInLength="0/1"  name="opacity"/>
             <InterpolatingParam id="1596" interp="linr"  time="0/1" value="0" leadInLength="0/1"  name="cursorOpacity"/>
             <InterpolatingParam id="1597" interp="linr"  time="0/1" value="0" leadInLength="0/1"  name="cursorScale"/>
            </Parameters>
            <Attributes>
             <Attribute id="1598" value="" name="ident"/>
            </Attributes>
            <MetaData>
             <entry key="AutoAppliedSmartFocus" val="False"/>
             <entry key="WinSubProjectDisplayName" val=""/>
            </MetaData>
            <ExtraData>
             <Entry key="ZoomPanBin">
              <ZoomPanBin id="1599"  >
               <ZoomPanKeyframes>
               </ZoomPanKeyframes>
              </ZoomPanBin>
             </Entry>
             <Entry key="CursorEffectBin">
              <CursorEffectBin id="1600"  >
               <CursorEffectKeyframes>
               </CursorEffectKeyframes>
              </CursorEffectBin>
             </Entry>
            </ExtraData>
           </ScreenVMFile>
           <ScreenVMFile id="1601" start="1397" duration="1" scalar="1/1" mediaStart="1767/1" mediaDuration="1/1" trackNumber="0" src="4" >
            <Transformer>
             <VectorParam id="1602"  name="translation">
              <InterpolatingParam id="1603" interp="linr"  time="-9999999/1" value="0" leadInLength="0/1"  />
              <InterpolatingParam id="1604" interp="linr"  time="-9999999/1" value="0" leadInLength="0/1"  />
              <InterpolatingParam id="1605" interp="linr"  time="-9999999/1" value="0" leadInLength="0/1"  />
             </VectorParam>
             <VectorParam id="1606"  name="rotation">
              <InterpolatingParam id="1607" interp="linr"  time="-9999999/1" value="0" leadInLength="0/1"  />
              <InterpolatingParam id="1608" interp="linr"  time="-9999999/1" value="0" leadInLength="0/1"  />
              <InterpolatingParam id="1609" interp="linr"  time="-9999999/1" value="0" leadInLength="0/1"  />
             </VectorParam>
             <VectorParam id="1610"  name="shear">
              <InterpolatingParam id="1611" interp="linr"  time="-9999999/1" value="0" leadInLength="0/1"  />
              <InterpolatingParam id="1612" interp="linr"  time="-9999999/1" value="0" leadInLength="0/1"  />
              <InterpolatingParam id="1613" interp="linr"  time="-9999999/1" value="0" leadInLength="0/1"  />
             </VectorParam>
             <VectorParam id="1614"  name="scale">
              <InterpolatingParam id="1615" interp="linr"  time="-9999999/1" value="1" leadInLength="0/1"  />
              <InterpolatingParam id="1616" interp="linr"  time="-9999999/1" value="1" leadInLength="0/1"  />
              <InterpolatingParam id="1617" interp="linr"  time="-9999999/1" value="1" leadInLength="0/1"  />
             </VectorParam>
             <VectorParam id="1618"  name="anchor">
              <InterpolatingParam id="1619" interp="linr"  time="0/1" value="0" leadInLength="0/1"  />
              <InterpolatingParam id="1620" interp="linr"  time="0/1" value="0" leadInLength="0/1"  />
              <InterpolatingParam id="1621" interp="linr"  time="0/1" value="0" leadInLength="0/1"  />
             </VectorParam>
            </Transformer>
            <Parameters>
             <VectorParam id="1622"  name="sourceCrop">
              <InterpolatingParam id="1623" interp="linr"  time="0/1" value="0" leadInLength="0/1"  />
              <InterpolatingParam id="1624" interp="linr"  time="0/1" value="0" leadInLength="0/1"  />
              <InterpolatingParam id="1625" interp="linr"  time="0/1" value="0" leadInLength="0/1"  />
              <InterpolatingParam id="1626" interp="linr"  time="0/1" value="0" leadInLength="0/1"  />
             </VectorParam>
             <VectorParam id="1627"  name="geometryCrop">
              <InterpolatingParam id="1628" interp="linr"  time="-9999999/1" value="0" leadInLength="0/1"  />
              <InterpolatingParam id="1629" interp="linr"  time="-9999999/1" value="0" leadInLength="0/1"  />
              <InterpolatingParam id="1630" interp="linr"  time="-9999999/1" value="0" leadInLength="0/1"  />
              <InterpolatingParam id="1631" interp="linr"  time="-9999999/1" value="0" leadInLength="0/1"  />
             </VectorParam>
             <InterpolatingParam id="1632" interp="linr"  time="-9999999/1" value="1" leadInLength="0/1"  name="opacity"/>
             <InterpolatingParam id="1633" interp="linr"  time="0/1" value="0" leadInLength="0/1"  name="cursorOpacity"/>
             <InterpolatingParam id="1634" interp="linr"  time="0/1" value="0" leadInLength="0/1"  name="cursorScale"/>
            </Parameters>
            <Attributes>
             <Attribute id="1635" value="" name="ident"/>
            </Attributes>
            <MetaData>
             <entry key="AutoAppliedSmartFocus" val="False"/>
             <entry key="WinSubProjectDisplayName" val=""/>
            </MetaData>
            <ExtraData>
             <Entry key="ZoomPanBin">
              <ZoomPanBin id="1636"  >
               <ZoomPanKeyframes>
               </ZoomPanKeyframes>
              </ZoomPanBin>
             </Entry>
             <Entry key="CursorEffectBin">
              <CursorEffectBin id="1637"  >
               <CursorEffectKeyframes>
               </CursorEffectKeyframes>
              </CursorEffectBin>
             </Entry>
            </ExtraData>
           </ScreenVMFile>
           <ScreenVMFile id="1638" start="1398" duration="70" scalar="1/1" mediaStart="1885/1" mediaDuration="70/1" trackNumber="0" src="4" >
            <Transformer>
             <VectorParam id="1639"  name="translation">
              <InterpolatingParam id="1640" interp="linr"  time="-9999999/1" value="0" leadInLength="0/1"  />
              <InterpolatingParam id="1641" interp="linr"  time="-9999999/1" value="0" leadInLength="0/1"  />
              <InterpolatingParam id="1642" interp="linr"  time="-9999999/1" value="0" leadInLength="0/1"  />
             </VectorParam>
             <VectorParam id="1643"  name="rotation">
              <InterpolatingParam id="1644" interp="linr"  time="-9999999/1" value="0" leadInLength="0/1"  />
              <InterpolatingParam id="1645" interp="linr"  time="-9999999/1" value="0" leadInLength="0/1"  />
              <InterpolatingParam id="1646" interp="linr"  time="-9999999/1" value="0" leadInLength="0/1"  />
             </VectorParam>
             <VectorParam id="1647"  name="shear">
              <InterpolatingParam id="1648" interp="linr"  time="-9999999/1" value="0" leadInLength="0/1"  />
              <InterpolatingParam id="1649" interp="linr"  time="-9999999/1" value="0" leadInLength="0/1"  />
              <InterpolatingParam id="1650" interp="linr"  time="-9999999/1" value="0" leadInLength="0/1"  />
             </VectorParam>
             <VectorParam id="1651"  name="scale">
              <InterpolatingParam id="1652" interp="linr"  time="-9999999/1" value="1" leadInLength="0/1"  />
              <InterpolatingParam id="1653" interp="linr"  time="-9999999/1" value="1" leadInLength="0/1"  />
              <InterpolatingParam id="1654" interp="linr"  time="-9999999/1" value="1" leadInLength="0/1"  />
             </VectorParam>
             <VectorParam id="1655"  name="anchor">
              <InterpolatingParam id="1656" interp="linr"  time="0/1" value="0" leadInLength="0/1"  />
              <InterpolatingParam id="1657" interp="linr"  time="0/1" value="0" leadInLength="0/1"  />
              <InterpolatingParam id="1658" interp="linr"  time="0/1" value="0" leadInLength="0/1"  />
             </VectorParam>
            </Transformer>
            <Parameters>
             <VectorParam id="1659"  name="sourceCrop">
              <InterpolatingParam id="1660" interp="linr"  time="0/1" value="0" leadInLength="0/1"  />
              <InterpolatingParam id="1661" interp="linr"  time="0/1" value="0" leadInLength="0/1"  />
              <InterpolatingParam id="1662" interp="linr"  time="0/1" value="0" leadInLength="0/1"  />
              <InterpolatingParam id="1663" interp="linr"  time="0/1" value="0" leadInLength="0/1"  />
             </VectorParam>
             <VectorParam id="1664"  name="geometryCrop">
              <InterpolatingParam id="1665" interp="linr"  time="-9999999/1" value="0" leadInLength="0/1"  />
              <InterpolatingParam id="1666" interp="linr"  time="-9999999/1" value="0" leadInLength="0/1"  />
              <InterpolatingParam id="1667" interp="linr"  time="-9999999/1" value="0" leadInLength="0/1"  />
              <InterpolatingParam id="1668" interp="linr"  time="-9999999/1" value="0" leadInLength="0/1"  />
             </VectorParam>
             <InterpolatingParam id="1669" interp="linr"  time="-9999999/1" value="1" leadInLength="0/1"  name="opacity"/>
             <InterpolatingParam id="1670" interp="linr"  time="0/1" value="0" leadInLength="0/1"  name="cursorOpacity"/>
             <InterpolatingParam id="1671" interp="linr"  time="0/1" value="0" leadInLength="0/1"  name="cursorScale"/>
            </Parameters>
            <Attributes>
             <Attribute id="1672" value="" name="ident"/>
            </Attributes>
            <MetaData>
             <entry key="AutoAppliedSmartFocus" val="False"/>
             <entry key="WinSubProjectDisplayName" val=""/>
            </MetaData>
            <ExtraData>
             <Entry key="ZoomPanBin">
              <ZoomPanBin id="1673"  >
               <ZoomPanKeyframes>
               </ZoomPanKeyframes>
              </ZoomPanBin>
             </Entry>
             <Entry key="CursorEffectBin">
              <CursorEffectBin id="1674"  >
               <CursorEffectKeyframes>
               </CursorEffectKeyframes>
              </CursorEffectBin>
             </Entry>
            </ExtraData>
           </ScreenVMFile>
           <ScreenVMFile id="1675" start="1468" duration="317" scalar="1/1" mediaStart="1987/1" mediaDuration="317/1" trackNumber="0" src="4" >
            <Transformer>
             <VectorParam id="1676"  name="translation">
              <InterpolatingParam id="1677" interp="linr"  time="-9999999/1" value="0" leadInLength="0/1"  />
              <InterpolatingParam id="1678" interp="linr"  time="-9999999/1" value="0" leadInLength="0/1"  />
              <InterpolatingParam id="1679" interp="linr"  time="-9999999/1" value="0" leadInLength="0/1"  />
             </VectorParam>
             <VectorParam id="1680"  name="rotation">
              <InterpolatingParam id="1681" interp="linr"  time="-9999999/1" value="0" leadInLength="0/1"  />
              <InterpolatingParam id="1682" interp="linr"  time="-9999999/1" value="0" leadInLength="0/1"  />
              <InterpolatingParam id="1683" interp="linr"  time="-9999999/1" value="0" leadInLength="0/1"  />
             </VectorParam>
             <VectorParam id="1684"  name="shear">
              <InterpolatingParam id="1685" interp="linr"  time="-9999999/1" value="0" leadInLength="0/1"  />
              <InterpolatingParam id="1686" interp="linr"  time="-9999999/1" value="0" leadInLength="0/1"  />
              <InterpolatingParam id="1687" interp="linr"  time="-9999999/1" value="0" leadInLength="0/1"  />
             </VectorParam>
             <VectorParam id="1688"  name="scale">
              <InterpolatingParam id="1689" interp="linr"  time="-9999999/1" value="1" leadInLength="0/1"  />
              <InterpolatingParam id="1690" interp="linr"  time="-9999999/1" value="1" leadInLength="0/1"  />
              <InterpolatingParam id="1691" interp="linr"  time="-9999999/1" value="1" leadInLength="0/1"  />
             </VectorParam>
             <VectorParam id="1692"  name="anchor">
              <InterpolatingParam id="1693" interp="linr"  time="0/1" value="0" leadInLength="0/1"  />
              <InterpolatingParam id="1694" interp="linr"  time="0/1" value="0" leadInLength="0/1"  />
              <InterpolatingParam id="1695" interp="linr"  time="0/1" value="0" leadInLength="0/1"  />
             </VectorParam>
            </Transformer>
            <Parameters>
             <VectorParam id="1696"  name="sourceCrop">
              <InterpolatingParam id="1697" interp="linr"  time="0/1" value="0" leadInLength="0/1"  />
              <InterpolatingParam id="1698" interp="linr"  time="0/1" value="0" leadInLength="0/1"  />
              <InterpolatingParam id="1699" interp="linr"  time="0/1" value="0" leadInLength="0/1"  />
              <InterpolatingParam id="1700" interp="linr"  time="0/1" value="0" leadInLength="0/1"  />
             </VectorParam>
             <VectorParam id="1701"  name="geometryCrop">
              <InterpolatingParam id="1702" interp="linr"  time="-9999999/1" value="0" leadInLength="0/1"  />
              <InterpolatingParam id="1703" interp="linr"  time="-9999999/1" value="0" leadInLength="0/1"  />
              <InterpolatingParam id="1704" interp="linr"  time="-9999999/1" value="0" leadInLength="0/1"  />
              <InterpolatingParam id="1705" interp="linr"  time="-9999999/1" value="0" leadInLength="0/1"  />
             </VectorParam>
             <InterpolatingParam id="1706" interp="linr"  time="-9999999/1" value="1" leadInLength="0/1"  name="opacity"/>
             <InterpolatingParam id="1707" interp="linr"  time="0/1" value="0" leadInLength="0/1"  name="cursorOpacity"/>
             <InterpolatingParam id="1708" interp="linr"  time="0/1" value="0" leadInLength="0/1"  name="cursorScale"/>
            </Parameters>
            <Attributes>
             <Attribute id="1709" value="" name="ident"/>
            </Attributes>
            <MetaData>
             <entry key="AutoAppliedSmartFocus" val="False"/>
             <entry key="WinSubProjectDisplayName" val=""/>
            </MetaData>
            <ExtraData>
             <Entry key="ZoomPanBin">
              <ZoomPanBin id="1710"  >
               <ZoomPanKeyframes>
               </ZoomPanKeyframes>
              </ZoomPanBin>
             </Entry>
             <Entry key="CursorEffectBin">
              <CursorEffectBin id="1711"  >
               <CursorEffectKeyframes>
               </CursorEffectKeyframes>
              </CursorEffectBin>
             </Entry>
            </ExtraData>
           </ScreenVMFile>
           <ScreenVMFile id="1712" start="1785" duration="115" scalar="1/1" mediaStart="2350/1" mediaDuration="115/1" trackNumber="0" src="4" >
            <Transformer>
             <VectorParam id="1713"  name="translation">
              <InterpolatingParam id="1714" interp="linr"  time="-9999999/1" value="0" leadInLength="0/1"  />
              <InterpolatingParam id="1715" interp="linr"  time="-9999999/1" value="0" leadInLength="0/1"  />
              <InterpolatingParam id="1716" interp="linr"  time="-9999999/1" value="0" leadInLength="0/1"  />
             </VectorParam>
             <VectorParam id="1717"  name="rotation">
              <InterpolatingParam id="1718" interp="linr"  time="-9999999/1" value="0" leadInLength="0/1"  />
              <InterpolatingParam id="1719" interp="linr"  time="-9999999/1" value="0" leadInLength="0/1"  />
              <InterpolatingParam id="1720" interp="linr"  time="-9999999/1" value="0" leadInLength="0/1"  />
             </VectorParam>
             <VectorParam id="1721"  name="shear">
              <InterpolatingParam id="1722" interp="linr"  time="-9999999/1" value="0" leadInLength="0/1"  />
              <InterpolatingParam id="1723" interp="linr"  time="-9999999/1" value="0" leadInLength="0/1"  />
              <InterpolatingParam id="1724" interp="linr"  time="-9999999/1" value="0" leadInLength="0/1"  />
             </VectorParam>
             <VectorParam id="1725"  name="scale">
              <InterpolatingParam id="1726" interp="linr"  time="-9999999/1" value="1" leadInLength="0/1"  />
              <InterpolatingParam id="1727" interp="linr"  time="-9999999/1" value="1" leadInLength="0/1"  />
              <InterpolatingParam id="1728" interp="linr"  time="-9999999/1" value="1" leadInLength="0/1"  />
             </VectorParam>
             <VectorParam id="1729"  name="anchor">
              <InterpolatingParam id="1730" interp="linr"  time="0/1" value="0" leadInLength="0/1"  />
              <InterpolatingParam id="1731" interp="linr"  time="0/1" value="0" leadInLength="0/1"  />
              <InterpolatingParam id="1732" interp="linr"  time="0/1" value="0" leadInLength="0/1"  />
             </VectorParam>
            </Transformer>
            <Parameters>
             <VectorParam id="1733"  name="sourceCrop">
              <InterpolatingParam id="1734" interp="linr"  time="0/1" value="0" leadInLength="0/1"  />
              <InterpolatingParam id="1735" interp="linr"  time="0/1" value="0" leadInLength="0/1"  />
              <InterpolatingParam id="1736" interp="linr"  time="0/1" value="0" leadInLength="0/1"  />
              <InterpolatingParam id="1737" interp="linr"  time="0/1" value="0" leadInLength="0/1"  />
             </VectorParam>
             <VectorParam id="1738"  name="geometryCrop">
              <InterpolatingParam id="1739" interp="linr"  time="-9999999/1" value="0" leadInLength="0/1"  />
              <InterpolatingParam id="1740" interp="linr"  time="-9999999/1" value="0" leadInLength="0/1"  />
              <InterpolatingParam id="1741" interp="linr"  time="-9999999/1" value="0" leadInLength="0/1"  />
              <InterpolatingParam id="1742" interp="linr"  time="-9999999/1" value="0" leadInLength="0/1"  />
             </VectorParam>
             <InterpolatingParam id="1743" interp="linr"  time="-9999999/1" value="1" leadInLength="0/1"  name="opacity"/>
             <InterpolatingParam id="1744" interp="linr"  time="0/1" value="0" leadInLength="0/1"  name="cursorOpacity"/>
             <InterpolatingParam id="1745" interp="linr"  time="0/1" value="0" leadInLength="0/1"  name="cursorScale"/>
            </Parameters>
            <Attributes>
             <Attribute id="1746" value="" name="ident"/>
            </Attributes>
            <MetaData>
             <entry key="AutoAppliedSmartFocus" val="False"/>
             <entry key="WinSubProjectDisplayName" val=""/>
            </MetaData>
            <ExtraData>
             <Entry key="ZoomPanBin">
              <ZoomPanBin id="1747"  >
               <ZoomPanKeyframes>
               </ZoomPanKeyframes>
              </ZoomPanBin>
             </Entry>
             <Entry key="CursorEffectBin">
              <CursorEffectBin id="1748"  >
               <CursorEffectKeyframes>
               </CursorEffectKeyframes>
              </CursorEffectBin>
             </Entry>
            </ExtraData>
           </ScreenVMFile>
           <ScreenVMFile id="1749" start="1900" duration="198" scalar="1/1" mediaStart="2487/1" mediaDuration="198/1" trackNumber="0" src="4" >
            <Transformer>
             <VectorParam id="1750"  name="translation">
              <InterpolatingParam id="1751" interp="linr"  time="-9999999/1" value="0" leadInLength="0/1"  />
              <InterpolatingParam id="1752" interp="linr"  time="-9999999/1" value="0" leadInLength="0/1"  />
              <InterpolatingParam id="1753" interp="linr"  time="-9999999/1" value="0" leadInLength="0/1"  />
             </VectorParam>
             <VectorParam id="1754"  name="rotation">
              <InterpolatingParam id="1755" interp="linr"  time="-9999999/1" value="0" leadInLength="0/1"  />
              <InterpolatingParam id="1756" interp="linr"  time="-9999999/1" value="0" leadInLength="0/1"  />
              <InterpolatingParam id="1757" interp="linr"  time="-9999999/1" value="0" leadInLength="0/1"  />
             </VectorParam>
             <VectorParam id="1758"  name="shear">
              <InterpolatingParam id="1759" interp="linr"  time="-9999999/1" value="0" leadInLength="0/1"  />
              <InterpolatingParam id="1760" interp="linr"  time="-9999999/1" value="0" leadInLength="0/1"  />
              <InterpolatingParam id="1761" interp="linr"  time="-9999999/1" value="0" leadInLength="0/1"  />
             </VectorParam>
             <VectorParam id="1762"  name="scale">
              <InterpolatingParam id="1763" interp="linr"  time="-9999999/1" value="1" leadInLength="0/1"  />
              <InterpolatingParam id="1764" interp="linr"  time="-9999999/1" value="1" leadInLength="0/1"  />
              <InterpolatingParam id="1765" interp="linr"  time="-9999999/1" value="1" leadInLength="0/1"  />
             </VectorParam>
             <VectorParam id="1766"  name="anchor">
              <InterpolatingParam id="1767" interp="linr"  time="0/1" value="0" leadInLength="0/1"  />
              <InterpolatingParam id="1768" interp="linr"  time="0/1" value="0" leadInLength="0/1"  />
              <InterpolatingParam id="1769" interp="linr"  time="0/1" value="0" leadInLength="0/1"  />
             </VectorParam>
            </Transformer>
            <Parameters>
             <VectorParam id="1770"  name="sourceCrop">
              <InterpolatingParam id="1771" interp="linr"  time="0/1" value="0" leadInLength="0/1"  />
              <InterpolatingParam id="1772" interp="linr"  time="0/1" value="0" leadInLength="0/1"  />
              <InterpolatingParam id="1773" interp="linr"  time="0/1" value="0" leadInLength="0/1"  />
              <InterpolatingParam id="1774" interp="linr"  time="0/1" value="0" leadInLength="0/1"  />
             </VectorParam>
             <VectorParam id="1775"  name="geometryCrop">
              <InterpolatingParam id="1776" interp="linr"  time="-9999999/1" value="0" leadInLength="0/1"  />
              <InterpolatingParam id="1777" interp="linr"  time="-9999999/1" value="0" leadInLength="0/1"  />
              <InterpolatingParam id="1778" interp="linr"  time="-9999999/1" value="0" leadInLength="0/1"  />
              <InterpolatingParam id="1779" interp="linr"  time="-9999999/1" value="0" leadInLength="0/1"  />
             </VectorParam>
             <InterpolatingParam id="1780" interp="linr"  time="-9999999/1" value="1" leadInLength="0/1"  name="opacity"/>
             <InterpolatingParam id="1781" interp="linr"  time="0/1" value="0" leadInLength="0/1"  name="cursorOpacity"/>
             <InterpolatingParam id="1782" interp="linr"  time="0/1" value="0" leadInLength="0/1"  name="cursorScale"/>
            </Parameters>
            <Attributes>
             <Attribute id="1783" value="" name="ident"/>
            </Attributes>
            <MetaData>
             <entry key="AutoAppliedSmartFocus" val="False"/>
             <entry key="WinSubProjectDisplayName" val=""/>
            </MetaData>
            <ExtraData>
             <Entry key="ZoomPanBin">
              <ZoomPanBin id="1784"  >
               <ZoomPanKeyframes>
               </ZoomPanKeyframes>
              </ZoomPanBin>
             </Entry>
             <Entry key="CursorEffectBin">
              <CursorEffectBin id="1785"  >
               <CursorEffectKeyframes>
               </CursorEffectKeyframes>
              </CursorEffectBin>
             </Entry>
            </ExtraData>
           </ScreenVMFile>
           <ScreenVMFile id="1786" start="2098" duration="22" scalar="1/1" mediaStart="2702/1" mediaDuration="22/1" trackNumber="0" src="4" >
            <Transformer>
             <VectorParam id="1787"  name="translation">
              <InterpolatingParam id="1788" interp="linr"  time="-9999999/1" value="0" leadInLength="0/1"  />
              <InterpolatingParam id="1789" interp="linr"  time="-9999999/1" value="0" leadInLength="0/1"  />
              <InterpolatingParam id="1790" interp="linr"  time="-9999999/1" value="0" leadInLength="0/1"  />
             </VectorParam>
             <VectorParam id="1791"  name="rotation">
              <InterpolatingParam id="1792" interp="linr"  time="-9999999/1" value="0" leadInLength="0/1"  />
              <InterpolatingParam id="1793" interp="linr"  time="-9999999/1" value="0" leadInLength="0/1"  />
              <InterpolatingParam id="1794" interp="linr"  time="-9999999/1" value="0" leadInLength="0/1"  />
             </VectorParam>
             <VectorParam id="1795"  name="shear">
              <InterpolatingParam id="1796" interp="linr"  time="-9999999/1" value="0" leadInLength="0/1"  />
              <InterpolatingParam id="1797" interp="linr"  time="-9999999/1" value="0" leadInLength="0/1"  />
              <InterpolatingParam id="1798" interp="linr"  time="-9999999/1" value="0" leadInLength="0/1"  />
             </VectorParam>
             <VectorParam id="1799"  name="scale">
              <InterpolatingParam id="1800" interp="linr"  time="-9999999/1" value="1" leadInLength="0/1"  />
              <InterpolatingParam id="1801" interp="linr"  time="-9999999/1" value="1" leadInLength="0/1"  />
              <InterpolatingParam id="1802" interp="linr"  time="-9999999/1" value="1" leadInLength="0/1"  />
             </VectorParam>
             <VectorParam id="1803"  name="anchor">
              <InterpolatingParam id="1804" interp="linr"  time="0/1" value="0" leadInLength="0/1"  />
              <InterpolatingParam id="1805" interp="linr"  time="0/1" value="0" leadInLength="0/1"  />
              <InterpolatingParam id="1806" interp="linr"  time="0/1" value="0" leadInLength="0/1"  />
             </VectorParam>
            </Transformer>
            <Parameters>
             <VectorParam id="1807"  name="sourceCrop">
              <InterpolatingParam id="1808" interp="linr"  time="0/1" value="0" leadInLength="0/1"  />
              <InterpolatingParam id="1809" interp="linr"  time="0/1" value="0" leadInLength="0/1"  />
              <InterpolatingParam id="1810" interp="linr"  time="0/1" value="0" leadInLength="0/1"  />
              <InterpolatingParam id="1811" interp="linr"  time="0/1" value="0" leadInLength="0/1"  />
             </VectorParam>
             <VectorParam id="1812"  name="geometryCrop">
              <InterpolatingParam id="1813" interp="linr"  time="-9999999/1" value="0" leadInLength="0/1"  />
              <InterpolatingParam id="1814" interp="linr"  time="-9999999/1" value="0" leadInLength="0/1"  />
              <InterpolatingParam id="1815" interp="linr"  time="-9999999/1" value="0" leadInLength="0/1"  />
              <InterpolatingParam id="1816" interp="linr"  time="-9999999/1" value="0" leadInLength="0/1"  />
             </VectorParam>
             <InterpolatingParam id="1817" interp="linr"  time="-9999999/1" value="1" leadInLength="0/1"  name="opacity"/>
             <InterpolatingParam id="1818" interp="linr"  time="0/1" value="0" leadInLength="0/1"  name="cursorOpacity"/>
             <InterpolatingParam id="1819" interp="linr"  time="0/1" value="0" leadInLength="0/1"  name="cursorScale"/>
            </Parameters>
            <Attributes>
             <Attribute id="1820" value="" name="ident"/>
            </Attributes>
            <MetaData>
             <entry key="AutoAppliedSmartFocus" val="False"/>
             <entry key="WinSubProjectDisplayName" val=""/>
            </MetaData>
            <ExtraData>
             <Entry key="ZoomPanBin">
              <ZoomPanBin id="1821"  >
               <ZoomPanKeyframes>
               </ZoomPanKeyframes>
              </ZoomPanBin>
             </Entry>
             <Entry key="CursorEffectBin">
              <CursorEffectBin id="1822"  >
               <CursorEffectKeyframes>
               </CursorEffectKeyframes>
              </CursorEffectBin>
             </Entry>
            </ExtraData>
           </ScreenVMFile>
           <ScreenVMFile id="1823" start="2120" duration="284" scalar="1/1" mediaStart="2733/1" mediaDuration="284/1" trackNumber="0" src="4" >
            <Transformer>
             <VectorParam id="1824"  name="translation">
              <InterpolatingParam id="1825" interp="linr"  time="-9999999/1" value="0" leadInLength="0/1"  />
              <InterpolatingParam id="1826" interp="linr"  time="-9999999/1" value="0" leadInLength="0/1"  />
              <InterpolatingParam id="1827" interp="linr"  time="-9999999/1" value="0" leadInLength="0/1"  />
             </VectorParam>
             <VectorParam id="1828"  name="rotation">
              <InterpolatingParam id="1829" interp="linr"  time="-9999999/1" value="0" leadInLength="0/1"  />
              <InterpolatingParam id="1830" interp="linr"  time="-9999999/1" value="0" leadInLength="0/1"  />
              <InterpolatingParam id="1831" interp="linr"  time="-9999999/1" value="0" leadInLength="0/1"  />
             </VectorParam>
             <VectorParam id="1832"  name="shear">
              <InterpolatingParam id="1833" interp="linr"  time="-9999999/1" value="0" leadInLength="0/1"  />
              <InterpolatingParam id="1834" interp="linr"  time="-9999999/1" value="0" leadInLength="0/1"  />
              <InterpolatingParam id="1835" interp="linr"  time="-9999999/1" value="0" leadInLength="0/1"  />
             </VectorParam>
             <VectorParam id="1836"  name="scale">
              <InterpolatingParam id="1837" interp="linr"  time="-9999999/1" value="1" leadInLength="0/1"  />
              <InterpolatingParam id="1838" interp="linr"  time="-9999999/1" value="1" leadInLength="0/1"  />
              <InterpolatingParam id="1839" interp="linr"  time="-9999999/1" value="1" leadInLength="0/1"  />
             </VectorParam>
             <VectorParam id="1840"  name="anchor">
              <InterpolatingParam id="1841" interp="linr"  time="0/1" value="0" leadInLength="0/1"  />
              <InterpolatingParam id="1842" interp="linr"  time="0/1" value="0" leadInLength="0/1"  />
              <InterpolatingParam id="1843" interp="linr"  time="0/1" value="0" leadInLength="0/1"  />
             </VectorParam>
            </Transformer>
            <Parameters>
             <VectorParam id="1844"  name="sourceCrop">
              <InterpolatingParam id="1845" interp="linr"  time="0/1" value="0" leadInLength="0/1"  />
              <InterpolatingParam id="1846" interp="linr"  time="0/1" value="0" leadInLength="0/1"  />
              <InterpolatingParam id="1847" interp="linr"  time="0/1" value="0" leadInLength="0/1"  />
              <InterpolatingParam id="1848" interp="linr"  time="0/1" value="0" leadInLength="0/1"  />
             </VectorParam>
             <VectorParam id="1849"  name="geometryCrop">
              <InterpolatingParam id="1850" interp="linr"  time="-9999999/1" value="0" leadInLength="0/1"  />
              <InterpolatingParam id="1851" interp="linr"  time="-9999999/1" value="0" leadInLength="0/1"  />
              <InterpolatingParam id="1852" interp="linr"  time="-9999999/1" value="0" leadInLength="0/1"  />
              <InterpolatingParam id="1853" interp="linr"  time="-9999999/1" value="0" leadInLength="0/1"  />
             </VectorParam>
             <InterpolatingParam id="1854" interp="linr"  time="-9999999/1" value="1" leadInLength="0/1"  name="opacity"/>
             <InterpolatingParam id="1855" interp="linr"  time="0/1" value="0" leadInLength="0/1"  name="cursorOpacity"/>
             <InterpolatingParam id="1856" interp="linr"  time="0/1" value="0" leadInLength="0/1"  name="cursorScale"/>
            </Parameters>
            <Attributes>
             <Attribute id="1857" value="" name="ident"/>
            </Attributes>
            <MetaData>
             <entry key="AutoAppliedSmartFocus" val="False"/>
             <entry key="WinSubProjectDisplayName" val=""/>
            </MetaData>
            <ExtraData>
             <Entry key="ZoomPanBin">
              <ZoomPanBin id="1858"  >
               <ZoomPanKeyframes>
               </ZoomPanKeyframes>
              </ZoomPanBin>
             </Entry>
             <Entry key="CursorEffectBin">
              <CursorEffectBin id="1859"  >
               <CursorEffectKeyframes>
               </CursorEffectKeyframes>
              </CursorEffectBin>
             </Entry>
            </ExtraData>
           </ScreenVMFile>
           <ScreenVMFile id="1860" start="2404" duration="45" scalar="1/1" mediaStart="3114/1" mediaDuration="45/1" trackNumber="0" src="4" >
            <Transformer>
             <VectorParam id="1861"  name="translation">
              <InterpolatingParam id="1862" interp="linr"  time="-9999999/1" value="0" leadInLength="0/1"  />
              <InterpolatingParam id="1863" interp="linr"  time="-9999999/1" value="0" leadInLength="0/1"  />
              <InterpolatingParam id="1864" interp="linr"  time="-9999999/1" value="0" leadInLength="0/1"  />
             </VectorParam>
             <VectorParam id="1865"  name="rotation">
              <InterpolatingParam id="1866" interp="linr"  time="-9999999/1" value="0" leadInLength="0/1"  />
              <InterpolatingParam id="1867" interp="linr"  time="-9999999/1" value="0" leadInLength="0/1"  />
              <InterpolatingParam id="1868" interp="linr"  time="-9999999/1" value="0" leadInLength="0/1"  />
             </VectorParam>
             <VectorParam id="1869"  name="shear">
              <InterpolatingParam id="1870" interp="linr"  time="-9999999/1" value="0" leadInLength="0/1"  />
              <InterpolatingParam id="1871" interp="linr"  time="-9999999/1" value="0" leadInLength="0/1"  />
              <InterpolatingParam id="1872" interp="linr"  time="-9999999/1" value="0" leadInLength="0/1"  />
             </VectorParam>
             <VectorParam id="1873"  name="scale">
              <InterpolatingParam id="1874" interp="linr"  time="-9999999/1" value="1" leadInLength="0/1"  />
              <InterpolatingParam id="1875" interp="linr"  time="-9999999/1" value="1" leadInLength="0/1"  />
              <InterpolatingParam id="1876" interp="linr"  time="-9999999/1" value="1" leadInLength="0/1"  />
             </VectorParam>
             <VectorParam id="1877"  name="anchor">
              <InterpolatingParam id="1878" interp="linr"  time="0/1" value="0" leadInLength="0/1"  />
              <InterpolatingParam id="1879" interp="linr"  time="0/1" value="0" leadInLength="0/1"  />
              <InterpolatingParam id="1880" interp="linr"  time="0/1" value="0" leadInLength="0/1"  />
             </VectorParam>
            </Transformer>
            <Parameters>
             <VectorParam id="1881"  name="sourceCrop">
              <InterpolatingParam id="1882" interp="linr"  time="0/1" value="0" leadInLength="0/1"  />
              <InterpolatingParam id="1883" interp="linr"  time="0/1" value="0" leadInLength="0/1"  />
              <InterpolatingParam id="1884" interp="linr"  time="0/1" value="0" leadInLength="0/1"  />
              <InterpolatingParam id="1885" interp="linr"  time="0/1" value="0" leadInLength="0/1"  />
             </VectorParam>
             <VectorParam id="1886"  name="geometryCrop">
              <InterpolatingParam id="1887" interp="linr"  time="-9999999/1" value="0" leadInLength="0/1"  />
              <InterpolatingParam id="1888" interp="linr"  time="-9999999/1" value="0" leadInLength="0/1"  />
              <InterpolatingParam id="1889" interp="linr"  time="-9999999/1" value="0" leadInLength="0/1"  />
              <InterpolatingParam id="1890" interp="linr"  time="-9999999/1" value="0" leadInLength="0/1"  />
             </VectorParam>
             <InterpolatingParam id="1891" interp="linr"  time="-9999999/1" value="1" leadInLength="0/1"  name="opacity"/>
             <InterpolatingParam id="1892" interp="linr"  time="0/1" value="0" leadInLength="0/1"  name="cursorOpacity"/>
             <InterpolatingParam id="1893" interp="linr"  time="0/1" value="0" leadInLength="0/1"  name="cursorScale"/>
            </Parameters>
            <Attributes>
             <Attribute id="1894" value="" name="ident"/>
            </Attributes>
            <MetaData>
             <entry key="AutoAppliedSmartFocus" val="False"/>
             <entry key="WinSubProjectDisplayName" val=""/>
            </MetaData>
            <ExtraData>
             <Entry key="ZoomPanBin">
              <ZoomPanBin id="1895"  >
               <ZoomPanKeyframes>
               </ZoomPanKeyframes>
              </ZoomPanBin>
             </Entry>
             <Entry key="CursorEffectBin">
              <CursorEffectBin id="1896"  >
               <CursorEffectKeyframes>
               </CursorEffectKeyframes>
              </CursorEffectBin>
             </Entry>
            </ExtraData>
           </ScreenVMFile>
           <ScreenVMFile id="1897" start="2449" duration="432" scalar="1/1" mediaStart="3167/1" mediaDuration="432/1" trackNumber="0" src="4" >
            <Transformer>
             <VectorParam id="1898"  name="translation">
              <InterpolatingParam id="1899" interp="linr"  time="-9999999/1" value="0" leadInLength="0/1"  />
              <InterpolatingParam id="1900" interp="linr"  time="-9999999/1" value="0" leadInLength="0/1"  />
              <InterpolatingParam id="1901" interp="linr"  time="-9999999/1" value="0" leadInLength="0/1"  />
             </VectorParam>
             <VectorParam id="1902"  name="rotation">
              <InterpolatingParam id="1903" interp="linr"  time="-9999999/1" value="0" leadInLength="0/1"  />
              <InterpolatingParam id="1904" interp="linr"  time="-9999999/1" value="0" leadInLength="0/1"  />
              <InterpolatingParam id="1905" interp="linr"  time="-9999999/1" value="0" leadInLength="0/1"  />
             </VectorParam>
             <VectorParam id="1906"  name="shear">
              <InterpolatingParam id="1907" interp="linr"  time="-9999999/1" value="0" leadInLength="0/1"  />
              <InterpolatingParam id="1908" interp="linr"  time="-9999999/1" value="0" leadInLength="0/1"  />
              <InterpolatingParam id="1909" interp="linr"  time="-9999999/1" value="0" leadInLength="0/1"  />
             </VectorParam>
             <VectorParam id="1910"  name="scale">
              <InterpolatingParam id="1911" interp="linr"  time="-9999999/1" value="1" leadInLength="0/1"  />
              <InterpolatingParam id="1912" interp="linr"  time="-9999999/1" value="1" leadInLength="0/1"  />
              <InterpolatingParam id="1913" interp="linr"  time="-9999999/1" value="1" leadInLength="0/1"  />
             </VectorParam>
             <VectorParam id="1914"  name="anchor">
              <InterpolatingParam id="1915" interp="linr"  time="0/1" value="0" leadInLength="0/1"  />
              <InterpolatingParam id="1916" interp="linr"  time="0/1" value="0" leadInLength="0/1"  />
              <InterpolatingParam id="1917" interp="linr"  time="0/1" value="0" leadInLength="0/1"  />
             </VectorParam>
            </Transformer>
            <Parameters>
             <VectorParam id="1918"  name="sourceCrop">
              <InterpolatingParam id="1919" interp="linr"  time="0/1" value="0" leadInLength="0/1"  />
              <InterpolatingParam id="1920" interp="linr"  time="0/1" value="0" leadInLength="0/1"  />
              <InterpolatingParam id="1921" interp="linr"  time="0/1" value="0" leadInLength="0/1"  />
              <InterpolatingParam id="1922" interp="linr"  time="0/1" value="0" leadInLength="0/1"  />
             </VectorParam>
             <VectorParam id="1923"  name="geometryCrop">
              <InterpolatingParam id="1924" interp="linr"  time="-9999999/1" value="0" leadInLength="0/1"  />
              <InterpolatingParam id="1925" interp="linr"  time="-9999999/1" value="0" leadInLength="0/1"  />
              <InterpolatingParam id="1926" interp="linr"  time="-9999999/1" value="0" leadInLength="0/1"  />
              <InterpolatingParam id="1927" interp="linr"  time="-9999999/1" value="0" leadInLength="0/1"  />
             </VectorParam>
             <InterpolatingParam id="1928" interp="linr"  time="-9999999/1" value="1" leadInLength="0/1"  name="opacity"/>
             <InterpolatingParam id="1929" interp="linr"  time="0/1" value="0" leadInLength="0/1"  name="cursorOpacity"/>
             <InterpolatingParam id="1930" interp="linr"  time="0/1" value="0" leadInLength="0/1"  name="cursorScale"/>
            </Parameters>
            <Attributes>
             <Attribute id="1931" value="" name="ident"/>
            </Attributes>
            <MetaData>
             <entry key="AutoAppliedSmartFocus" val="False"/>
             <entry key="WinSubProjectDisplayName" val=""/>
            </MetaData>
            <ExtraData>
             <Entry key="ZoomPanBin">
              <ZoomPanBin id="1932"  >
               <ZoomPanKeyframes>
               </ZoomPanKeyframes>
              </ZoomPanBin>
             </Entry>
             <Entry key="CursorEffectBin">
              <CursorEffectBin id="1933"  >
               <CursorEffectKeyframes>
               </CursorEffectKeyframes>
              </CursorEffectBin>
             </Entry>
            </ExtraData>
           </ScreenVMFile>
           <ScreenVMFile id="1934" start="2881" duration="32" scalar="1/1" mediaStart="3638/1" mediaDuration="32/1" trackNumber="0" src="4" >
            <Transformer>
             <VectorParam id="1935"  name="translation">
              <InterpolatingParam id="1936" interp="linr"  time="-9999999/1" value="0" leadInLength="0/1"  />
              <InterpolatingParam id="1937" interp="linr"  time="-9999999/1" value="0" leadInLength="0/1"  />
              <InterpolatingParam id="1938" interp="linr"  time="-9999999/1" value="0" leadInLength="0/1"  />
             </VectorParam>
             <VectorParam id="1939"  name="rotation">
              <InterpolatingParam id="1940" interp="linr"  time="-9999999/1" value="0" leadInLength="0/1"  />
              <InterpolatingParam id="1941" interp="linr"  time="-9999999/1" value="0" leadInLength="0/1"  />
              <InterpolatingParam id="1942" interp="linr"  time="-9999999/1" value="0" leadInLength="0/1"  />
             </VectorParam>
             <VectorParam id="1943"  name="shear">
              <InterpolatingParam id="1944" interp="linr"  time="-9999999/1" value="0" leadInLength="0/1"  />
              <InterpolatingParam id="1945" interp="linr"  time="-9999999/1" value="0" leadInLength="0/1"  />
              <InterpolatingParam id="1946" interp="linr"  time="-9999999/1" value="0" leadInLength="0/1"  />
             </VectorParam>
             <VectorParam id="1947"  name="scale">
              <InterpolatingParam id="1948" interp="linr"  time="-9999999/1" value="1" leadInLength="0/1"  />
              <InterpolatingParam id="1949" interp="linr"  time="-9999999/1" value="1" leadInLength="0/1"  />
              <InterpolatingParam id="1950" interp="linr"  time="-9999999/1" value="1" leadInLength="0/1"  />
             </VectorParam>
             <VectorParam id="1951"  name="anchor">
              <InterpolatingParam id="1952" interp="linr"  time="0/1" value="0" leadInLength="0/1"  />
              <InterpolatingParam id="1953" interp="linr"  time="0/1" value="0" leadInLength="0/1"  />
              <InterpolatingParam id="1954" interp="linr"  time="0/1" value="0" leadInLength="0/1"  />
             </VectorParam>
            </Transformer>
            <Parameters>
             <VectorParam id="1955"  name="sourceCrop">
              <InterpolatingParam id="1956" interp="linr"  time="0/1" value="0" leadInLength="0/1"  />
              <InterpolatingParam id="1957" interp="linr"  time="0/1" value="0" leadInLength="0/1"  />
              <InterpolatingParam id="1958" interp="linr"  time="0/1" value="0" leadInLength="0/1"  />
              <InterpolatingParam id="1959" interp="linr"  time="0/1" value="0" leadInLength="0/1"  />
             </VectorParam>
             <VectorParam id="1960"  name="geometryCrop">
              <InterpolatingParam id="1961" interp="linr"  time="-9999999/1" value="0" leadInLength="0/1"  />
              <InterpolatingParam id="1962" interp="linr"  time="-9999999/1" value="0" leadInLength="0/1"  />
              <InterpolatingParam id="1963" interp="linr"  time="-9999999/1" value="0" leadInLength="0/1"  />
              <InterpolatingParam id="1964" interp="linr"  time="-9999999/1" value="0" leadInLength="0/1"  />
             </VectorParam>
             <InterpolatingParam id="1965" interp="linr"  time="-9999999/1" value="1" leadInLength="0/1"  name="opacity"/>
             <InterpolatingParam id="1966" interp="linr"  time="0/1" value="0" leadInLength="0/1"  name="cursorOpacity"/>
             <InterpolatingParam id="1967" interp="linr"  time="0/1" value="0" leadInLength="0/1"  name="cursorScale"/>
            </Parameters>
            <Attributes>
             <Attribute id="1968" value="" name="ident"/>
            </Attributes>
            <MetaData>
             <entry key="AutoAppliedSmartFocus" val="False"/>
             <entry key="WinSubProjectDisplayName" val=""/>
            </MetaData>
            <ExtraData>
             <Entry key="ZoomPanBin">
              <ZoomPanBin id="1969"  >
               <ZoomPanKeyframes>
               </ZoomPanKeyframes>
              </ZoomPanBin>
             </Entry>
             <Entry key="CursorEffectBin">
              <CursorEffectBin id="1970"  >
               <CursorEffectKeyframes>
               </CursorEffectKeyframes>
              </CursorEffectBin>
             </Entry>
            </ExtraData>
           </ScreenVMFile>
           <ScreenVMFile id="1971" start="2913" duration="50" scalar="1/1" mediaStart="3700/1" mediaDuration="50/1" trackNumber="0" src="4" >
            <Transformer>
             <VectorParam id="1972"  name="translation">
              <InterpolatingParam id="1973" interp="linr"  time="-9999999/1" value="0" leadInLength="0/1"  />
              <InterpolatingParam id="1974" interp="linr"  time="-9999999/1" value="0" leadInLength="0/1"  />
              <InterpolatingParam id="1975" interp="linr"  time="-9999999/1" value="0" leadInLength="0/1"  />
             </VectorParam>
             <VectorParam id="1976"  name="rotation">
              <InterpolatingParam id="1977" interp="linr"  time="-9999999/1" value="0" leadInLength="0/1"  />
              <InterpolatingParam id="1978" interp="linr"  time="-9999999/1" value="0" leadInLength="0/1"  />
              <InterpolatingParam id="1979" interp="linr"  time="-9999999/1" value="0" leadInLength="0/1"  />
             </VectorParam>
             <VectorParam id="1980"  name="shear">
              <InterpolatingParam id="1981" interp="linr"  time="-9999999/1" value="0" leadInLength="0/1"  />
              <InterpolatingParam id="1982" interp="linr"  time="-9999999/1" value="0" leadInLength="0/1"  />
              <InterpolatingParam id="1983" interp="linr"  time="-9999999/1" value="0" leadInLength="0/1"  />
             </VectorParam>
             <VectorParam id="1984"  name="scale">
              <InterpolatingParam id="1985" interp="linr"  time="-9999999/1" value="1" leadInLength="0/1"  />
              <InterpolatingParam id="1986" interp="linr"  time="-9999999/1" value="1" leadInLength="0/1"  />
              <InterpolatingParam id="1987" interp="linr"  time="-9999999/1" value="1" leadInLength="0/1"  />
             </VectorParam>
             <VectorParam id="1988"  name="anchor">
              <InterpolatingParam id="1989" interp="linr"  time="0/1" value="0" leadInLength="0/1"  />
              <InterpolatingParam id="1990" interp="linr"  time="0/1" value="0" leadInLength="0/1"  />
              <InterpolatingParam id="1991" interp="linr"  time="0/1" value="0" leadInLength="0/1"  />
             </VectorParam>
            </Transformer>
            <Parameters>
             <VectorParam id="1992"  name="sourceCrop">
              <InterpolatingParam id="1993" interp="linr"  time="0/1" value="0" leadInLength="0/1"  />
              <InterpolatingParam id="1994" interp="linr"  time="0/1" value="0" leadInLength="0/1"  />
              <InterpolatingParam id="1995" interp="linr"  time="0/1" value="0" leadInLength="0/1"  />
              <InterpolatingParam id="1996" interp="linr"  time="0/1" value="0" leadInLength="0/1"  />
             </VectorParam>
             <VectorParam id="1997"  name="geometryCrop">
              <InterpolatingParam id="1998" interp="linr"  time="-9999999/1" value="0" leadInLength="0/1"  />
              <InterpolatingParam id="1999" interp="linr"  time="-9999999/1" value="0" leadInLength="0/1"  />
              <InterpolatingParam id="2000" interp="linr"  time="-9999999/1" value="0" leadInLength="0/1"  />
              <InterpolatingParam id="2001" interp="linr"  time="-9999999/1" value="0" leadInLength="0/1"  />
             </VectorParam>
             <InterpolatingParam id="2002" interp="linr"  time="-9999999/1" value="1" leadInLength="0/1"  name="opacity"/>
             <InterpolatingParam id="2003" interp="linr"  time="0/1" value="0" leadInLength="0/1"  name="cursorOpacity"/>
             <InterpolatingParam id="2004" interp="linr"  time="0/1" value="0" leadInLength="0/1"  name="cursorScale"/>
            </Parameters>
            <Attributes>
             <Attribute id="2005" value="" name="ident"/>
            </Attributes>
            <MetaData>
             <entry key="AutoAppliedSmartFocus" val="False"/>
             <entry key="WinSubProjectDisplayName" val=""/>
            </MetaData>
            <ExtraData>
             <Entry key="ZoomPanBin">
              <ZoomPanBin id="2006"  >
               <ZoomPanKeyframes>
               </ZoomPanKeyframes>
              </ZoomPanBin>
             </Entry>
             <Entry key="CursorEffectBin">
              <CursorEffectBin id="2007"  >
               <CursorEffectKeyframes>
               </CursorEffectKeyframes>
              </CursorEffectBin>
             </Entry>
            </ExtraData>
           </ScreenVMFile>
           <ScreenVMFile id="2008" start="2963" duration="217" scalar="1/1" mediaStart="4389/1" mediaDuration="217/1" trackNumber="0" src="4" >
            <Transformer>
             <VectorParam id="2009"  name="translation">
              <InterpolatingParam id="2010" interp="linr"  time="-9999999/1" value="0" leadInLength="0/1"  />
              <InterpolatingParam id="2011" interp="linr"  time="-9999999/1" value="0" leadInLength="0/1"  />
              <InterpolatingParam id="2012" interp="linr"  time="-9999999/1" value="0" leadInLength="0/1"  />
             </VectorParam>
             <VectorParam id="2013"  name="rotation">
              <InterpolatingParam id="2014" interp="linr"  time="-9999999/1" value="0" leadInLength="0/1"  />
              <InterpolatingParam id="2015" interp="linr"  time="-9999999/1" value="0" leadInLength="0/1"  />
              <InterpolatingParam id="2016" interp="linr"  time="-9999999/1" value="0" leadInLength="0/1"  />
             </VectorParam>
             <VectorParam id="2017"  name="shear">
              <InterpolatingParam id="2018" interp="linr"  time="-9999999/1" value="0" leadInLength="0/1"  />
              <InterpolatingParam id="2019" interp="linr"  time="-9999999/1" value="0" leadInLength="0/1"  />
              <InterpolatingParam id="2020" interp="linr"  time="-9999999/1" value="0" leadInLength="0/1"  />
             </VectorParam>
             <VectorParam id="2021"  name="scale">
              <InterpolatingParam id="2022" interp="linr"  time="-9999999/1" value="1" leadInLength="0/1"  />
              <InterpolatingParam id="2023" interp="linr"  time="-9999999/1" value="1" leadInLength="0/1"  />
              <InterpolatingParam id="2024" interp="linr"  time="-9999999/1" value="1" leadInLength="0/1"  />
             </VectorParam>
             <VectorParam id="2025"  name="anchor">
              <InterpolatingParam id="2026" interp="linr"  time="0/1" value="0" leadInLength="0/1"  />
              <InterpolatingParam id="2027" interp="linr"  time="0/1" value="0" leadInLength="0/1"  />
              <InterpolatingParam id="2028" interp="linr"  time="0/1" value="0" leadInLength="0/1"  />
             </VectorParam>
            </Transformer>
            <Parameters>
             <VectorParam id="2029"  name="sourceCrop">
              <InterpolatingParam id="2030" interp="linr"  time="0/1" value="0" leadInLength="0/1"  />
              <InterpolatingParam id="2031" interp="linr"  time="0/1" value="0" leadInLength="0/1"  />
              <InterpolatingParam id="2032" interp="linr"  time="0/1" value="0" leadInLength="0/1"  />
              <InterpolatingParam id="2033" interp="linr"  time="0/1" value="0" leadInLength="0/1"  />
             </VectorParam>
             <VectorParam id="2034"  name="geometryCrop">
              <InterpolatingParam id="2035" interp="linr"  time="-9999999/1" value="0" leadInLength="0/1"  />
              <InterpolatingParam id="2036" interp="linr"  time="-9999999/1" value="0" leadInLength="0/1"  />
              <InterpolatingParam id="2037" interp="linr"  time="-9999999/1" value="0" leadInLength="0/1"  />
              <InterpolatingParam id="2038" interp="linr"  time="-9999999/1" value="0" leadInLength="0/1"  />
             </VectorParam>
             <InterpolatingParam id="2039" interp="linr"  time="-9999999/1" value="1" leadInLength="0/1"  name="opacity"/>
             <InterpolatingParam id="2040" interp="linr"  time="0/1" value="0" leadInLength="0/1"  name="cursorOpacity"/>
             <InterpolatingParam id="2041" interp="linr"  time="0/1" value="0" leadInLength="0/1"  name="cursorScale"/>
            </Parameters>
            <Attributes>
             <Attribute id="2042" value="" name="ident"/>
            </Attributes>
            <MetaData>
             <entry key="AutoAppliedSmartFocus" val="False"/>
             <entry key="WinSubProjectDisplayName" val=""/>
            </MetaData>
            <ExtraData>
             <Entry key="ZoomPanBin">
              <ZoomPanBin id="2043"  >
               <ZoomPanKeyframes>
               </ZoomPanKeyframes>
              </ZoomPanBin>
             </Entry>
             <Entry key="CursorEffectBin">
              <CursorEffectBin id="2044"  >
               <CursorEffectKeyframes>
               </CursorEffectKeyframes>
              </CursorEffectBin>
             </Entry>
            </ExtraData>
           </ScreenVMFile>
           <ScreenVMFile id="2045" start="3180" duration="1086" scalar="1/1" mediaStart="4678/1" mediaDuration="1086/1" trackNumber="0" src="4" >
            <Transformer>
             <VectorParam id="2046"  name="translation">
              <InterpolatingParam id="2047" interp="linr"  time="-9999999/1" value="0" leadInLength="0/1"  />
              <InterpolatingParam id="2048" interp="linr"  time="-9999999/1" value="0" leadInLength="0/1"  />
              <InterpolatingParam id="2049" interp="linr"  time="-9999999/1" value="0" leadInLength="0/1"  />
             </VectorParam>
             <VectorParam id="2050"  name="rotation">
              <InterpolatingParam id="2051" interp="linr"  time="-9999999/1" value="0" leadInLength="0/1"  />
              <InterpolatingParam id="2052" interp="linr"  time="-9999999/1" value="0" leadInLength="0/1"  />
              <InterpolatingParam id="2053" interp="linr"  time="-9999999/1" value="0" leadInLength="0/1"  />
             </VectorParam>
             <VectorParam id="2054"  name="shear">
              <InterpolatingParam id="2055" interp="linr"  time="-9999999/1" value="0" leadInLength="0/1"  />
              <InterpolatingParam id="2056" interp="linr"  time="-9999999/1" value="0" leadInLength="0/1"  />
              <InterpolatingParam id="2057" interp="linr"  time="-9999999/1" value="0" leadInLength="0/1"  />
             </VectorParam>
             <VectorParam id="2058"  name="scale">
              <InterpolatingParam id="2059" interp="linr"  time="-9999999/1" value="1" leadInLength="0/1"  />
              <InterpolatingParam id="2060" interp="linr"  time="-9999999/1" value="1" leadInLength="0/1"  />
              <InterpolatingParam id="2061" interp="linr"  time="-9999999/1" value="1" leadInLength="0/1"  />
             </VectorParam>
             <VectorParam id="2062"  name="anchor">
              <InterpolatingParam id="2063" interp="linr"  time="0/1" value="0" leadInLength="0/1"  />
              <InterpolatingParam id="2064" interp="linr"  time="0/1" value="0" leadInLength="0/1"  />
              <InterpolatingParam id="2065" interp="linr"  time="0/1" value="0" leadInLength="0/1"  />
             </VectorParam>
            </Transformer>
            <Parameters>
             <VectorParam id="2066"  name="sourceCrop">
              <InterpolatingParam id="2067" interp="linr"  time="0/1" value="0" leadInLength="0/1"  />
              <InterpolatingParam id="2068" interp="linr"  time="0/1" value="0" leadInLength="0/1"  />
              <InterpolatingParam id="2069" interp="linr"  time="0/1" value="0" leadInLength="0/1"  />
              <InterpolatingParam id="2070" interp="linr"  time="0/1" value="0" leadInLength="0/1"  />
             </VectorParam>
             <VectorParam id="2071"  name="geometryCrop">
              <InterpolatingParam id="2072" interp="linr"  time="-9999999/1" value="0" leadInLength="0/1"  />
              <InterpolatingParam id="2073" interp="linr"  time="-9999999/1" value="0" leadInLength="0/1"  />
              <InterpolatingParam id="2074" interp="linr"  time="-9999999/1" value="0" leadInLength="0/1"  />
              <InterpolatingParam id="2075" interp="linr"  time="-9999999/1" value="0" leadInLength="0/1"  />
             </VectorParam>
             <InterpolatingParam id="2076" interp="linr"  time="-9999999/1" value="1" leadInLength="0/1"  name="opacity"/>
             <InterpolatingParam id="2077" interp="linr"  time="0/1" value="0" leadInLength="0/1"  name="cursorOpacity"/>
             <InterpolatingParam id="2078" interp="linr"  time="0/1" value="0" leadInLength="0/1"  name="cursorScale"/>
            </Parameters>
            <Attributes>
             <Attribute id="2079" value="" name="ident"/>
            </Attributes>
            <MetaData>
             <entry key="AutoAppliedSmartFocus" val="False"/>
             <entry key="WinSubProjectDisplayName" val=""/>
            </MetaData>
            <ExtraData>
             <Entry key="ZoomPanBin">
              <ZoomPanBin id="2080"  >
               <ZoomPanKeyframes>
               </ZoomPanKeyframes>
              </ZoomPanBin>
             </Entry>
             <Entry key="CursorEffectBin">
              <CursorEffectBin id="2081"  >
               <CursorEffectKeyframes>
               </CursorEffectKeyframes>
              </CursorEffectBin>
             </Entry>
            </ExtraData>
           </ScreenVMFile>
           <ScreenVMFile id="2082" start="4266" duration="4942" scalar="1/1" mediaStart="5784/1" mediaDuration="4942/1" trackNumber="0" src="4" >
            <Transformer>
             <VectorParam id="2083"  name="translation">
              <InterpolatingParam id="2084" interp="linr"  time="-9999999/1" value="0" leadInLength="0/1"  />
              <InterpolatingParam id="2085" interp="linr"  time="-9999999/1" value="0" leadInLength="0/1"  />
              <InterpolatingParam id="2086" interp="linr"  time="-9999999/1" value="0" leadInLength="0/1"  />
             </VectorParam>
             <VectorParam id="2087"  name="rotation">
              <InterpolatingParam id="2088" interp="linr"  time="-9999999/1" value="0" leadInLength="0/1"  />
              <InterpolatingParam id="2089" interp="linr"  time="-9999999/1" value="0" leadInLength="0/1"  />
              <InterpolatingParam id="2090" interp="linr"  time="-9999999/1" value="0" leadInLength="0/1"  />
             </VectorParam>
             <VectorParam id="2091"  name="shear">
              <InterpolatingParam id="2092" interp="linr"  time="-9999999/1" value="0" leadInLength="0/1"  />
              <InterpolatingParam id="2093" interp="linr"  time="-9999999/1" value="0" leadInLength="0/1"  />
              <InterpolatingParam id="2094" interp="linr"  time="-9999999/1" value="0" leadInLength="0/1"  />
             </VectorParam>
             <VectorParam id="2095"  name="scale">
              <InterpolatingParam id="2096" interp="linr"  time="-9999999/1" value="1" leadInLength="0/1"  />
              <InterpolatingParam id="2097" interp="linr"  time="-9999999/1" value="1" leadInLength="0/1"  />
              <InterpolatingParam id="2098" interp="linr"  time="-9999999/1" value="1" leadInLength="0/1"  />
             </VectorParam>
             <VectorParam id="2099"  name="anchor">
              <InterpolatingParam id="2100" interp="linr"  time="0/1" value="0" leadInLength="0/1"  />
              <InterpolatingParam id="2101" interp="linr"  time="0/1" value="0" leadInLength="0/1"  />
              <InterpolatingParam id="2102" interp="linr"  time="0/1" value="0" leadInLength="0/1"  />
             </VectorParam>
            </Transformer>
            <Parameters>
             <VectorParam id="2103"  name="sourceCrop">
              <InterpolatingParam id="2104" interp="linr"  time="0/1" value="0" leadInLength="0/1"  />
              <InterpolatingParam id="2105" interp="linr"  time="0/1" value="0" leadInLength="0/1"  />
              <InterpolatingParam id="2106" interp="linr"  time="0/1" value="0" leadInLength="0/1"  />
              <InterpolatingParam id="2107" interp="linr"  time="0/1" value="0" leadInLength="0/1"  />
             </VectorParam>
             <VectorParam id="2108"  name="geometryCrop">
              <InterpolatingParam id="2109" interp="linr"  time="-9999999/1" value="0" leadInLength="0/1"  />
              <InterpolatingParam id="2110" interp="linr"  time="-9999999/1" value="0" leadInLength="0/1"  />
              <InterpolatingParam id="2111" interp="linr"  time="-9999999/1" value="0" leadInLength="0/1"  />
              <InterpolatingParam id="2112" interp="linr"  time="-9999999/1" value="0" leadInLength="0/1"  />
             </VectorParam>
             <InterpolatingParam id="2113" interp="linr"  time="-9999999/1" value="1" leadInLength="0/1"  name="opacity"/>
             <InterpolatingParam id="2114" interp="linr"  time="0/1" value="0" leadInLength="0/1"  name="cursorOpacity"/>
             <InterpolatingParam id="2115" interp="linr"  time="0/1" value="0" leadInLength="0/1"  name="cursorScale"/>
            </Parameters>
            <Attributes>
             <Attribute id="2116" value="" name="ident"/>
            </Attributes>
            <MetaData>
             <entry key="AutoAppliedSmartFocus" val="False"/>
             <entry key="WinSubProjectDisplayName" val=""/>
            </MetaData>
            <ExtraData>
             <Entry key="ZoomPanBin">
              <ZoomPanBin id="2117"  >
               <ZoomPanKeyframes>
               </ZoomPanKeyframes>
              </ZoomPanBin>
             </Entry>
             <Entry key="CursorEffectBin">
              <CursorEffectBin id="2118"  >
               <CursorEffectKeyframes>
               </CursorEffectKeyframes>
              </CursorEffectBin>
             </Entry>
            </ExtraData>
           </ScreenVMFile>
          </Medias>
         </GenericTrack>
        </StitchedMedia>
        <StitchedMedia id="2119" start="4606" duration="3622" scalar="1/1" mediaStart="6714/1" mediaDuration="3622/1" minMediaStart="0/1" >
         <Transformer>
          <VectorParam id="2120"  name="translation">
           <InterpolatingParam id="2121" interp="linr"  time="-9999999/1" value="0" leadInLength="0/1"  interpolater="leadin-linr"  />
           <InterpolatingParam id="2122" interp="linr"  time="-9999999/1" value="0" leadInLength="0/1"  interpolater="leadin-linr"  />
           <InterpolatingParam id="2123" interp="linr"  time="-9999999/1" value="0" leadInLength="0/1"  interpolater="leadin-linr"  />
          </VectorParam>
          <VectorParam id="2124"  name="rotation">
           <InterpolatingParam id="2125" interp="linr"  time="-9999999/1" value="0" leadInLength="0/1"  interpolater="leadin-linr"  />
           <InterpolatingParam id="2126" interp="linr"  time="-9999999/1" value="0" leadInLength="0/1"  interpolater="leadin-linr"  />
           <InterpolatingParam id="2127" interp="linr"  time="-9999999/1" value="0" leadInLength="0/1"  interpolater="leadin-linr"  />
          </VectorParam>
          <VectorParam id="2128"  name="shear">
           <InterpolatingParam id="2129" interp="linr"  time="-9999999/1" value="0" leadInLength="0/1"  interpolater="leadin-linr"  />
           <InterpolatingParam id="2130" interp="linr"  time="-9999999/1" value="0" leadInLength="0/1"  interpolater="leadin-linr"  />
           <InterpolatingParam id="2131" interp="linr"  time="-9999999/1" value="0" leadInLength="0/1"  interpolater="leadin-linr"  />
          </VectorParam>
          <VectorParam id="2132"  name="scale">
           <InterpolatingParam id="2133" interp="linr"  time="-9999999/1" value="0.9375" leadInLength="0/1"  interpolater="leadin-linr"  />
           <InterpolatingParam id="2134" interp="linr"  time="-9999999/1" value="0.9375" leadInLength="0/1"  interpolater="leadin-linr"  />
           <InterpolatingParam id="2135" interp="linr"  time="-9999999/1" value="1" leadInLength="0/1"  interpolater="leadin-linr"  />
          </VectorParam>
          <VectorParam id="2136"  name="anchor">
           <InterpolatingParam id="2137" interp="linr"  time="0/1" value="0" leadInLength="0/1"  />
           <InterpolatingParam id="2138" interp="linr"  time="0/1" value="0" leadInLength="0/1"  />
           <InterpolatingParam id="2139" interp="linr"  time="0/1" value="0" leadInLength="0/1"  />
          </VectorParam>
         </Transformer>
         <Parameters>
          <VectorParam id="2140"  name="sourceCrop">
           <InterpolatingParam id="2141" interp="linr"  time="0/1" value="0" leadInLength="0/1"  />
           <InterpolatingParam id="2142" interp="linr"  time="0/1" value="0" leadInLength="0/1"  />
           <InterpolatingParam id="2143" interp="linr"  time="0/1" value="0" leadInLength="0/1"  />
           <InterpolatingParam id="2144" interp="linr"  time="0/1" value="0" leadInLength="0/1"  />
          </VectorParam>
          <VectorParam id="2145"  name="geometryCrop">
           <InterpolatingParam id="2146" interp="linr"  time="-9999999/1" value="0" leadInLength="0/1"  interpolater="leadin-linr"  />
           <InterpolatingParam id="2147" interp="linr"  time="-9999999/1" value="0" leadInLength="0/1"  interpolater="leadin-linr"  />
           <InterpolatingParam id="2148" interp="linr"  time="-9999999/1" value="0" leadInLength="0/1"  interpolater="leadin-linr"  />
           <InterpolatingParam id="2149" interp="linr"  time="-9999999/1" value="0" leadInLength="0/1"  interpolater="leadin-linr"  />
          </VectorParam>
          <InterpolatingParam id="2150" interp="linr"  time="-9999999/1" value="1" leadInLength="0/1"  interpolater="leadin-linr"  name="opacity"/>
          <InterpolatingParam id="2151" interp="linr"  time="0/1" value="1" leadInLength="0/1"  name="cursorOpacity"/>
          <InterpolatingParam id="2152" interp="linr"  time="0/1" value="1" leadInLength="0/1"  name="cursorScale"/>
          <Parameter id="2153"  name="captions"/>
         </Parameters>
         <Effects>
          <GenericEffect id="2154" name = "CursorBaseEffectName" >
           <Parameters>
           <InterpolatingParam id="2155" interp="linr"  time="-9999999/1" value="1" leadInLength="0/1"   name="cursorSize"/>
           <InterpolatingParam id="2156" interp="linr"  time="-9999999/1" value="0" leadInLength="0/1"   name="highlightBlurRadius"/>
           <InterpolatingParam id="2157" interp="linr"  time="-9999999/1" value="0" leadInLength="0/1"   name="highlightColorBlue"/>
           <InterpolatingParam id="2158" interp="linr"  time="-9999999/1" value="255" leadInLength="0/1"   name="highlightColorGreen"/>
           <InterpolatingParam id="2159" interp="linr"  time="-9999999/1" value="255" leadInLength="0/1"   name="highlightColorRed"/>
           <InterpolatingParam id="2160" interp="linr"  time="-9999999/1" value="5" leadInLength="0/1"   name="highlightFeatherSize"/>
           <InterpolatingParam id="2161" interp="linr"  time="-9999999/1" value="2" leadInLength="0/1"   name="highlightMagnification"/>
           <InterpolatingParam id="2162" interp="linr"  time="-9999999/1" value="1" leadInLength="0/1"   name="highlightOpacity"/>
           <InterpolatingParam id="2163" interp="linr"  time="-9999999/1" value="45" leadInLength="0/1"   name="highlightSize"/>
           <Parameter id="2164"   name="highlightType">
            <Keyframes>
            <Keyframe id="2165"  time="-9999999/1" value="0" leadInLength="0/1"  />
            </Keyframes>
           </Parameter>
           <InterpolatingParam id="2166" interp="linr"  time="-9999999/1" value="0" leadInLength="0/1"   name="leftClickColorBlue"/>
           <InterpolatingParam id="2167" interp="linr"  time="-9999999/1" value="0" leadInLength="0/1"   name="leftClickColorGreen"/>
           <InterpolatingParam id="2168" interp="linr"  time="-9999999/1" value="255" leadInLength="0/1"   name="leftClickColorRed"/>
           <InterpolatingParam id="2169" interp="linr"  time="-9999999/1" value="0.80000000000000004" leadInLength="0/1"   name="leftClickDuration"/>
           <InterpolatingParam id="2170" interp="linr"  time="-9999999/1" value="20" leadInLength="0/1"   name="leftClickSize"/>
           <Parameter id="2171"   name="leftClickSoundFilename">
            <Keyframes>
            <Keyframe id="2172"  time="-9999999/1" value="" leadInLength="0/1"  />
            </Keyframes>
           </Parameter>
           <InterpolatingParam id="2173" interp="linr"  time="-9999999/1" value="1" leadInLength="0/1"   name="leftClickSoundVolume"/>
           <Parameter id="2174"   name="leftClickType">
            <Keyframes>
            <Keyframe id="2175"  time="-9999999/1" value="0" leadInLength="0/1"  />
            </Keyframes>
           </Parameter>
           <InterpolatingParam id="2176" interp="linr"  time="-9999999/1" value="1" leadInLength="0/1"   name="opacity"/>
           <InterpolatingParam id="2177" interp="linr"  time="-9999999/1" value="255" leadInLength="0/1"   name="rightClickColorBlue"/>
           <InterpolatingParam id="2178" interp="linr"  time="-9999999/1" value="0" leadInLength="0/1"   name="rightClickColorGreen"/>
           <InterpolatingParam id="2179" interp="linr"  time="-9999999/1" value="0" leadInLength="0/1"   name="rightClickColorRed"/>
           <InterpolatingParam id="2180" interp="linr"  time="-9999999/1" value="0.80000000000000004" leadInLength="0/1"   name="rightClickDuration"/>
           <InterpolatingParam id="2181" interp="linr"  time="-9999999/1" value="20" leadInLength="0/1"   name="rightClickSize"/>
           <Parameter id="2182"   name="rightClickSoundFilename">
            <Keyframes>
            <Keyframe id="2183"  time="-9999999/1" value="" leadInLength="0/1"  />
            </Keyframes>
           </Parameter>
           <InterpolatingParam id="2184" interp="linr"  time="-9999999/1" value="1" leadInLength="0/1"   name="rightClickSoundVolume"/>
           <Parameter id="2185"   name="rightClickType">
            <Keyframes>
            <Keyframe id="2186"  time="-9999999/1" value="0" leadInLength="0/1"  />
            </Keyframes>
           </Parameter>
           </Parameters>
          </GenericEffect>
         </Effects>
         <Attributes>
          <Attribute id="2187" value="" name="ident"/>
         </Attributes>
         <MetaData>
          <entry key="AutoAppliedSmartFocus" val="False"/>
          <entry key="WinSubProjectDisplayName" val=""/>
         </MetaData>
         <ExtraData>
          <Entry key="ZoomPanBin">
           <ZoomPanBin id="2188"  >
            <ZoomPanKeyframes>
             <ZoomPanKeyframe id="2189" timeRangeEnd="-9999999/1" timeRangeDuration="0/1" interpolaterName="linr"  />
            </ZoomPanKeyframes>
           </ZoomPanBin>
          </Entry>
          <Entry key="CursorEffectBin">
           <CursorEffectBin id="2190"  >
            <CursorEffectKeyframes>
             <CursorEffectKeyframe id="2191" timeRangeEnd="-9999999/1" timeRangeDuration="0/1" interpolaterName=""  />
            </CursorEffectKeyframes>
           </CursorEffectBin>
          </Entry>
         </ExtraData>
         <GenericTrack id="2192"  >
          <Attributes>
           <Attribute id="2193" value="" name="ident"/>
           <Attribute id="2194" value="0" name="audioMuted"/>
           <Attribute id="2195" value="0" name="videoHidden"/>
          </Attributes>
          <MetaData>
           <entry key="IsLocked" val="False"/>
           <entry key="WinTrackHeight" val="0"/>
          </MetaData>
          <Medias>
           <ScreenVMFile id="2196" start="0" duration="8495" scalar="1/1" mediaStart="0/1" mediaDuration="8495/1" trackNumber="0" src="4" >
            <Transformer>
             <VectorParam id="2197"  name="translation">
              <InterpolatingParam id="2198" interp="linr"  time="-9999999/1" value="0" leadInLength="0/1"  />
              <InterpolatingParam id="2199" interp="linr"  time="-9999999/1" value="0" leadInLength="0/1"  />
              <InterpolatingParam id="2200" interp="linr"  time="-9999999/1" value="0" leadInLength="0/1"  />
             </VectorParam>
             <VectorParam id="2201"  name="rotation">
              <InterpolatingParam id="2202" interp="linr"  time="-9999999/1" value="0" leadInLength="0/1"  />
              <InterpolatingParam id="2203" interp="linr"  time="-9999999/1" value="0" leadInLength="0/1"  />
              <InterpolatingParam id="2204" interp="linr"  time="-9999999/1" value="0" leadInLength="0/1"  />
             </VectorParam>
             <VectorParam id="2205"  name="shear">
              <InterpolatingParam id="2206" interp="linr"  time="-9999999/1" value="0" leadInLength="0/1"  />
              <InterpolatingParam id="2207" interp="linr"  time="-9999999/1" value="0" leadInLength="0/1"  />
              <InterpolatingParam id="2208" interp="linr"  time="-9999999/1" value="0" leadInLength="0/1"  />
             </VectorParam>
             <VectorParam id="2209"  name="scale">
              <InterpolatingParam id="2210" interp="linr"  time="-9999999/1" value="1" leadInLength="0/1"  />
              <InterpolatingParam id="2211" interp="linr"  time="-9999999/1" value="1" leadInLength="0/1"  />
              <InterpolatingParam id="2212" interp="linr"  time="-9999999/1" value="1" leadInLength="0/1"  />
             </VectorParam>
             <VectorParam id="2213"  name="anchor">
              <InterpolatingParam id="2214" interp="linr"  time="0/1" value="0" leadInLength="0/1"  />
              <InterpolatingParam id="2215" interp="linr"  time="0/1" value="0" leadInLength="0/1"  />
              <InterpolatingParam id="2216" interp="linr"  time="0/1" value="0" leadInLength="0/1"  />
             </VectorParam>
            </Transformer>
            <Parameters>
             <VectorParam id="2217"  name="sourceCrop">
              <InterpolatingParam id="2218" interp="linr"  time="0/1" value="0" leadInLength="0/1"  />
              <InterpolatingParam id="2219" interp="linr"  time="0/1" value="0" leadInLength="0/1"  />
              <InterpolatingParam id="2220" interp="linr"  time="0/1" value="0" leadInLength="0/1"  />
              <InterpolatingParam id="2221" interp="linr"  time="0/1" value="0" leadInLength="0/1"  />
             </VectorParam>
             <VectorParam id="2222"  name="geometryCrop">
              <InterpolatingParam id="2223" interp="linr"  time="-9999999/1" value="0" leadInLength="0/1"  />
              <InterpolatingParam id="2224" interp="linr"  time="-9999999/1" value="0" leadInLength="0/1"  />
              <InterpolatingParam id="2225" interp="linr"  time="-9999999/1" value="0" leadInLength="0/1"  />
              <InterpolatingParam id="2226" interp="linr"  time="-9999999/1" value="0" leadInLength="0/1"  />
             </VectorParam>
             <InterpolatingParam id="2227" interp="linr"  time="-9999999/1" value="1" leadInLength="0/1"  name="opacity"/>
             <InterpolatingParam id="2228" interp="linr"  time="0/1" value="0" leadInLength="0/1"  name="cursorOpacity"/>
             <InterpolatingParam id="2229" interp="linr"  time="0/1" value="0" leadInLength="0/1"  name="cursorScale"/>
            </Parameters>
            <Attributes>
             <Attribute id="2230" value="" name="ident"/>
            </Attributes>
            <MetaData>
             <entry key="AutoAppliedSmartFocus" val="False"/>
             <entry key="WinSubProjectDisplayName" val=""/>
            </MetaData>
            <ExtraData>
             <Entry key="ZoomPanBin">
              <ZoomPanBin id="2231"  >
               <ZoomPanKeyframes>
                <ZoomPanKeyframe id="2232" timeRangeEnd="-9999999/1" timeRangeDuration="0/1" interpolaterName=""  />
               </ZoomPanKeyframes>
              </ZoomPanBin>
             </Entry>
             <Entry key="CursorEffectBin">
              <CursorEffectBin id="2233"  >
               <CursorEffectKeyframes>
               </CursorEffectKeyframes>
              </CursorEffectBin>
             </Entry>
            </ExtraData>
           </ScreenVMFile>
           <ScreenVMFile id="2234" start="8495" duration="1386" scalar="1/1" mediaStart="8535/1" mediaDuration="1386/1" trackNumber="0" src="4" >
            <Transformer>
             <VectorParam id="2235"  name="translation">
              <InterpolatingParam id="2236" interp="linr"  time="-9999999/1" value="0" leadInLength="0/1"  />
              <InterpolatingParam id="2237" interp="linr"  time="-9999999/1" value="0" leadInLength="0/1"  />
              <InterpolatingParam id="2238" interp="linr"  time="-9999999/1" value="0" leadInLength="0/1"  />
             </VectorParam>
             <VectorParam id="2239"  name="rotation">
              <InterpolatingParam id="2240" interp="linr"  time="-9999999/1" value="0" leadInLength="0/1"  />
              <InterpolatingParam id="2241" interp="linr"  time="-9999999/1" value="0" leadInLength="0/1"  />
              <InterpolatingParam id="2242" interp="linr"  time="-9999999/1" value="0" leadInLength="0/1"  />
             </VectorParam>
             <VectorParam id="2243"  name="shear">
              <InterpolatingParam id="2244" interp="linr"  time="-9999999/1" value="0" leadInLength="0/1"  />
              <InterpolatingParam id="2245" interp="linr"  time="-9999999/1" value="0" leadInLength="0/1"  />
              <InterpolatingParam id="2246" interp="linr"  time="-9999999/1" value="0" leadInLength="0/1"  />
             </VectorParam>
             <VectorParam id="2247"  name="scale">
              <InterpolatingParam id="2248" interp="linr"  time="-9999999/1" value="1" leadInLength="0/1"  />
              <InterpolatingParam id="2249" interp="linr"  time="-9999999/1" value="1" leadInLength="0/1"  />
              <InterpolatingParam id="2250" interp="linr"  time="-9999999/1" value="1" leadInLength="0/1"  />
             </VectorParam>
             <VectorParam id="2251"  name="anchor">
              <InterpolatingParam id="2252" interp="linr"  time="0/1" value="0" leadInLength="0/1"  />
              <InterpolatingParam id="2253" interp="linr"  time="0/1" value="0" leadInLength="0/1"  />
              <InterpolatingParam id="2254" interp="linr"  time="0/1" value="0" leadInLength="0/1"  />
             </VectorParam>
            </Transformer>
            <Parameters>
             <VectorParam id="2255"  name="sourceCrop">
              <InterpolatingParam id="2256" interp="linr"  time="0/1" value="0" leadInLength="0/1"  />
              <InterpolatingParam id="2257" interp="linr"  time="0/1" value="0" leadInLength="0/1"  />
              <InterpolatingParam id="2258" interp="linr"  time="0/1" value="0" leadInLength="0/1"  />
              <InterpolatingParam id="2259" interp="linr"  time="0/1" value="0" leadInLength="0/1"  />
             </VectorParam>
             <VectorParam id="2260"  name="geometryCrop">
              <InterpolatingParam id="2261" interp="linr"  time="-9999999/1" value="0" leadInLength="0/1"  />
              <InterpolatingParam id="2262" interp="linr"  time="-9999999/1" value="0" leadInLength="0/1"  />
              <InterpolatingParam id="2263" interp="linr"  time="-9999999/1" value="0" leadInLength="0/1"  />
              <InterpolatingParam id="2264" interp="linr"  time="-9999999/1" value="0" leadInLength="0/1"  />
             </VectorParam>
             <InterpolatingParam id="2265" interp="linr"  time="-9999999/1" value="1" leadInLength="0/1"  name="opacity"/>
             <InterpolatingParam id="2266" interp="linr"  time="0/1" value="0" leadInLength="0/1"  name="cursorOpacity"/>
             <InterpolatingParam id="2267" interp="linr"  time="0/1" value="0" leadInLength="0/1"  name="cursorScale"/>
            </Parameters>
            <Attributes>
             <Attribute id="2268" value="" name="ident"/>
            </Attributes>
            <MetaData>
             <entry key="AutoAppliedSmartFocus" val="False"/>
             <entry key="WinSubProjectDisplayName" val=""/>
            </MetaData>
            <ExtraData>
             <Entry key="ZoomPanBin">
              <ZoomPanBin id="2269"  >
               <ZoomPanKeyframes>
                <ZoomPanKeyframe id="2270" timeRangeEnd="-9999999/1" timeRangeDuration="0/1" interpolaterName=""  />
               </ZoomPanKeyframes>
              </ZoomPanBin>
             </Entry>
             <Entry key="CursorEffectBin">
              <CursorEffectBin id="2271"  >
               <CursorEffectKeyframes>
               </CursorEffectKeyframes>
              </CursorEffectBin>
             </Entry>
            </ExtraData>
           </ScreenVMFile>
           <ScreenVMFile id="2272" start="9881" duration="453" scalar="1/1" mediaStart="10234/1" mediaDuration="453/1" trackNumber="0" src="4" >
            <Transformer>
             <VectorParam id="2273"  name="translation">
              <InterpolatingParam id="2274" interp="linr"  time="-9999999/1" value="0" leadInLength="0/1"  />
              <InterpolatingParam id="2275" interp="linr"  time="-9999999/1" value="0" leadInLength="0/1"  />
              <InterpolatingParam id="2276" interp="linr"  time="-9999999/1" value="0" leadInLength="0/1"  />
             </VectorParam>
             <VectorParam id="2277"  name="rotation">
              <InterpolatingParam id="2278" interp="linr"  time="-9999999/1" value="0" leadInLength="0/1"  />
              <InterpolatingParam id="2279" interp="linr"  time="-9999999/1" value="0" leadInLength="0/1"  />
              <InterpolatingParam id="2280" interp="linr"  time="-9999999/1" value="0" leadInLength="0/1"  />
             </VectorParam>
             <VectorParam id="2281"  name="shear">
              <InterpolatingParam id="2282" interp="linr"  time="-9999999/1" value="0" leadInLength="0/1"  />
              <InterpolatingParam id="2283" interp="linr"  time="-9999999/1" value="0" leadInLength="0/1"  />
              <InterpolatingParam id="2284" interp="linr"  time="-9999999/1" value="0" leadInLength="0/1"  />
             </VectorParam>
             <VectorParam id="2285"  name="scale">
              <InterpolatingParam id="2286" interp="linr"  time="-9999999/1" value="1" leadInLength="0/1"  />
              <InterpolatingParam id="2287" interp="linr"  time="-9999999/1" value="1" leadInLength="0/1"  />
              <InterpolatingParam id="2288" interp="linr"  time="-9999999/1" value="1" leadInLength="0/1"  />
             </VectorParam>
             <VectorParam id="2289"  name="anchor">
              <InterpolatingParam id="2290" interp="linr"  time="0/1" value="0" leadInLength="0/1"  />
              <InterpolatingParam id="2291" interp="linr"  time="0/1" value="0" leadInLength="0/1"  />
              <InterpolatingParam id="2292" interp="linr"  time="0/1" value="0" leadInLength="0/1"  />
             </VectorParam>
            </Transformer>
            <Parameters>
             <VectorParam id="2293"  name="sourceCrop">
              <InterpolatingParam id="2294" interp="linr"  time="0/1" value="0" leadInLength="0/1"  />
              <InterpolatingParam id="2295" interp="linr"  time="0/1" value="0" leadInLength="0/1"  />
              <InterpolatingParam id="2296" interp="linr"  time="0/1" value="0" leadInLength="0/1"  />
              <InterpolatingParam id="2297" interp="linr"  time="0/1" value="0" leadInLength="0/1"  />
             </VectorParam>
             <VectorParam id="2298"  name="geometryCrop">
              <InterpolatingParam id="2299" interp="linr"  time="-9999999/1" value="0" leadInLength="0/1"  />
              <InterpolatingParam id="2300" interp="linr"  time="-9999999/1" value="0" leadInLength="0/1"  />
              <InterpolatingParam id="2301" interp="linr"  time="-9999999/1" value="0" leadInLength="0/1"  />
              <InterpolatingParam id="2302" interp="linr"  time="-9999999/1" value="0" leadInLength="0/1"  />
             </VectorParam>
             <InterpolatingParam id="2303" interp="linr"  time="-9999999/1" value="1" leadInLength="0/1"  name="opacity"/>
             <InterpolatingParam id="2304" interp="linr"  time="0/1" value="0" leadInLength="0/1"  name="cursorOpacity"/>
             <InterpolatingParam id="2305" interp="linr"  time="0/1" value="0" leadInLength="0/1"  name="cursorScale"/>
            </Parameters>
            <Attributes>
             <Attribute id="2306" value="" name="ident"/>
            </Attributes>
            <MetaData>
             <entry key="AutoAppliedSmartFocus" val="False"/>
             <entry key="WinSubProjectDisplayName" val=""/>
            </MetaData>
            <ExtraData>
             <Entry key="ZoomPanBin">
              <ZoomPanBin id="2307"  >
               <ZoomPanKeyframes>
                <ZoomPanKeyframe id="2308" timeRangeEnd="-9999999/1" timeRangeDuration="0/1" interpolaterName=""  />
               </ZoomPanKeyframes>
              </ZoomPanBin>
             </Entry>
             <Entry key="CursorEffectBin">
              <CursorEffectBin id="2309"  >
               <CursorEffectKeyframes>
               </CursorEffectKeyframes>
              </CursorEffectBin>
             </Entry>
            </ExtraData>
           </ScreenVMFile>
           <ScreenVMFile id="2310" start="10334" duration="2" scalar="1/1" mediaStart="10724/1" mediaDuration="2/1" trackNumber="0" src="4" >
            <Transformer>
             <VectorParam id="2311"  name="translation">
              <InterpolatingParam id="2312" interp="linr"  time="-9999999/1" value="0" leadInLength="0/1"  />
              <InterpolatingParam id="2313" interp="linr"  time="-9999999/1" value="0" leadInLength="0/1"  />
              <InterpolatingParam id="2314" interp="linr"  time="-9999999/1" value="0" leadInLength="0/1"  />
             </VectorParam>
             <VectorParam id="2315"  name="rotation">
              <InterpolatingParam id="2316" interp="linr"  time="-9999999/1" value="0" leadInLength="0/1"  />
              <InterpolatingParam id="2317" interp="linr"  time="-9999999/1" value="0" leadInLength="0/1"  />
              <InterpolatingParam id="2318" interp="linr"  time="-9999999/1" value="0" leadInLength="0/1"  />
             </VectorParam>
             <VectorParam id="2319"  name="shear">
              <InterpolatingParam id="2320" interp="linr"  time="-9999999/1" value="0" leadInLength="0/1"  />
              <InterpolatingParam id="2321" interp="linr"  time="-9999999/1" value="0" leadInLength="0/1"  />
              <InterpolatingParam id="2322" interp="linr"  time="-9999999/1" value="0" leadInLength="0/1"  />
             </VectorParam>
             <VectorParam id="2323"  name="scale">
              <InterpolatingParam id="2324" interp="linr"  time="-9999999/1" value="1" leadInLength="0/1"  />
              <InterpolatingParam id="2325" interp="linr"  time="-9999999/1" value="1" leadInLength="0/1"  />
              <InterpolatingParam id="2326" interp="linr"  time="-9999999/1" value="1" leadInLength="0/1"  />
             </VectorParam>
             <VectorParam id="2327"  name="anchor">
              <InterpolatingParam id="2328" interp="linr"  time="0/1" value="0" leadInLength="0/1"  />
              <InterpolatingParam id="2329" interp="linr"  time="0/1" value="0" leadInLength="0/1"  />
              <InterpolatingParam id="2330" interp="linr"  time="0/1" value="0" leadInLength="0/1"  />
             </VectorParam>
            </Transformer>
            <Parameters>
             <VectorParam id="2331"  name="sourceCrop">
              <InterpolatingParam id="2332" interp="linr"  time="0/1" value="0" leadInLength="0/1"  />
              <InterpolatingParam id="2333" interp="linr"  time="0/1" value="0" leadInLength="0/1"  />
              <InterpolatingParam id="2334" interp="linr"  time="0/1" value="0" leadInLength="0/1"  />
              <InterpolatingParam id="2335" interp="linr"  time="0/1" value="0" leadInLength="0/1"  />
             </VectorParam>
             <VectorParam id="2336"  name="geometryCrop">
              <InterpolatingParam id="2337" interp="linr"  time="-9999999/1" value="0" leadInLength="0/1"  />
              <InterpolatingParam id="2338" interp="linr"  time="-9999999/1" value="0" leadInLength="0/1"  />
              <InterpolatingParam id="2339" interp="linr"  time="-9999999/1" value="0" leadInLength="0/1"  />
              <InterpolatingParam id="2340" interp="linr"  time="-9999999/1" value="0" leadInLength="0/1"  />
             </VectorParam>
             <InterpolatingParam id="2341" interp="linr"  time="-9999999/1" value="1" leadInLength="0/1"  name="opacity"/>
             <InterpolatingParam id="2342" interp="linr"  time="0/1" value="0" leadInLength="0/1"  name="cursorOpacity"/>
             <InterpolatingParam id="2343" interp="linr"  time="0/1" value="0" leadInLength="0/1"  name="cursorScale"/>
            </Parameters>
            <Attributes>
             <Attribute id="2344" value="" name="ident"/>
            </Attributes>
            <MetaData>
             <entry key="AutoAppliedSmartFocus" val="False"/>
             <entry key="WinSubProjectDisplayName" val=""/>
            </MetaData>
            <ExtraData>
             <Entry key="ZoomPanBin">
              <ZoomPanBin id="2345"  >
               <ZoomPanKeyframes>
                <ZoomPanKeyframe id="2346" timeRangeEnd="-9999999/1" timeRangeDuration="0/1" interpolaterName=""  />
               </ZoomPanKeyframes>
              </ZoomPanBin>
             </Entry>
             <Entry key="CursorEffectBin">
              <CursorEffectBin id="2347"  >
               <CursorEffectKeyframes>
               </CursorEffectKeyframes>
              </CursorEffectBin>
             </Entry>
            </ExtraData>
           </ScreenVMFile>
          </Medias>
         </GenericTrack>
        </StitchedMedia>
       </Medias>
      </GenericTrack>
      <GenericTrack id="2348"  >
       <Attributes>
        <Attribute id="2349" value="" name="ident"/>
        <Attribute id="2350" value="0" name="audioMuted"/>
        <Attribute id="2351" value="0" name="videoHidden"/>
       </Attributes>
       <MetaData>
        <entry key="IsLocked" val="False"/>
        <entry key="WinTrackHeight" val="62"/>
       </MetaData>
       <Medias>
        <StitchedMedia id="2352" start="0" duration="2959" scalar="1/1" mediaStart="0/1" mediaDuration="2959/1" minMediaStart="0/1" >
         <Transformer>
          <VectorParam id="2353"  name="translation">
           <InterpolatingParam id="2354" interp="linr"  time="-9999999/1" value="402" leadInLength="0/1"  interpolater="leadin-linr"  />
           <InterpolatingParam id="2355" interp="linr"  time="-9999999/1" value="-300" leadInLength="0/1"  interpolater="leadin-linr"  />
           <InterpolatingParam id="2356" interp="linr"  time="-9999999/1" value="0" leadInLength="0/1"  interpolater="leadin-linr"  />
          </VectorParam>
          <VectorParam id="2357"  name="rotation">
           <InterpolatingParam id="2358" interp="linr"  time="-9999999/1" value="0" leadInLength="0/1"  interpolater="leadin-linr"  />
           <InterpolatingParam id="2359" interp="linr"  time="-9999999/1" value="0" leadInLength="0/1"  interpolater="leadin-linr"  />
           <InterpolatingParam id="2360" interp="linr"  time="-9999999/1" value="0" leadInLength="0/1"  interpolater="leadin-linr"  />
          </VectorParam>
          <VectorParam id="2361"  name="shear">
           <InterpolatingParam id="2362" interp="linr"  time="-9999999/1" value="0" leadInLength="0/1"  interpolater="leadin-linr"  />
           <InterpolatingParam id="2363" interp="linr"  time="-9999999/1" value="0" leadInLength="0/1"  interpolater="leadin-linr"  />
           <InterpolatingParam id="2364" interp="linr"  time="-9999999/1" value="0" leadInLength="0/1"  interpolater="leadin-linr"  />
          </VectorParam>
          <VectorParam id="2365"  name="scale">
           <InterpolatingParam id="2366" interp="linr"  time="-9999999/1" value="0.25" leadInLength="0/1"  interpolater="leadin-linr"  />
           <InterpolatingParam id="2367" interp="linr"  time="-9999999/1" value="0.25" leadInLength="0/1"  interpolater="leadin-linr"  />
           <InterpolatingParam id="2368" interp="linr"  time="-9999999/1" value="1" leadInLength="0/1"  interpolater="leadin-linr"  />
          </VectorParam>
          <VectorParam id="2369"  name="anchor">
           <InterpolatingParam id="2370" interp="linr"  time="0/1" value="0" leadInLength="0/1"  />
           <InterpolatingParam id="2371" interp="linr"  time="0/1" value="0" leadInLength="0/1"  />
           <InterpolatingParam id="2372" interp="linr"  time="0/1" value="0" leadInLength="0/1"  />
          </VectorParam>
         </Transformer>
         <Parameters>
          <VectorParam id="2373"  name="sourceCrop">
           <InterpolatingParam id="2374" interp="linr"  time="0/1" value="0" leadInLength="0/1"  />
           <InterpolatingParam id="2375" interp="linr"  time="0/1" value="0" leadInLength="0/1"  />
           <InterpolatingParam id="2376" interp="linr"  time="0/1" value="0" leadInLength="0/1"  />
           <InterpolatingParam id="2377" interp="linr"  time="0/1" value="0" leadInLength="0/1"  />
          </VectorParam>
          <VectorParam id="2378"  name="geometryCrop">
           <InterpolatingParam id="2379" interp="linr"  time="-9999999/1" value="0" leadInLength="0/1"  interpolater="leadin-linr"  />
           <InterpolatingParam id="2380" interp="linr"  time="-9999999/1" value="0" leadInLength="0/1"  interpolater="leadin-linr"  />
           <InterpolatingParam id="2381" interp="linr"  time="-9999999/1" value="0" leadInLength="0/1"  interpolater="leadin-linr"  />
           <InterpolatingParam id="2382" interp="linr"  time="-9999999/1" value="0" leadInLength="0/1"  interpolater="leadin-linr"  />
          </VectorParam>
          <InterpolatingParam id="2383" interp="linr"  time="-9999999/1" value="1" leadInLength="0/1"  interpolater="leadin-linr"  name="opacity"/>
          <InterpolatingParam id="2384" interp="linr"  time="0/1" value="1" leadInLength="0/1"  name="cursorOpacity"/>
          <InterpolatingParam id="2385" interp="linr"  time="0/1" value="1" leadInLength="0/1"  name="cursorScale"/>
          <InterpolatingParam id="2386" interp="linr"  time="0/1" value="1" leadInLength="0/1"  name="volume"/>
          <Parameter id="2387"  name="captions"/>
         </Parameters>
         <Effects>
          <GenericEffect id="2388" name = "NoiseReduction" >
           <Parameters>
           <InterpolatingParam id="2389" interp="linr"  time="0/1" value="27.599999999999998" leadInLength="0/1"   name="denoiserAmount"/>
           <InterpolatingParam id="2390" interp="linr"  time="0/1" value="2.2799999999999994" leadInLength="0/1"   name="denoiserThreshold"/>
           <Parameter id="2391"   name="noiseProfile">
            <Keyframes>
            <Keyframe id="2392"  time="0/1" value="FBAAAAIAAABErAAAAQIAADIzKsKAlxvC8LIvwg19O8IK4EvCQSZLwmF7TsI7XVPCKGZXwnHlWMI8&#xD;&#xa;ClbCPj1fwvbibcJdbG/CmIBywmQIc8ILrHbCJ7Z/woevesJgM3LCI/dywqGycsLfzW/CPi51wqvD&#xD;&#xa;esIdrXfCoEN7wuMwhML4pYTC2ZiEwomoh8IoD4nCLaOHwmTjiMKBE4HCcid7wkKpgsLiCITCi3uB&#xD;&#xa;wndKf8ICQYXCYkiIwgqni8J5Zo7Cep2Swsu6lcIFZZPCzWySwngRk8LokJTCLe+TwjCClMLoWpTC&#xD;&#xa;lo+Vwoujl8KSEZfClkiZwsQumcKZXZnC+Pmawtw6mMJQW5rCzZiawhGBmMISvprC5riawlOul8I+&#xD;&#xa;CpnC5pGYwt+plMIGy5bC9wyWwvaolMKDSJPC7LeTwuKclcJZj5fCZ1KawmBCmcJkRp3CByegwury&#xD;&#xa;n8JJW6DCyeWawjy9mMKeFJfCXXGWwgLzlsJQ8ZfC276YwkMBmsJ81JjC8n2bwtokm8Lc+prC4LCc&#xD;&#xa;wtG3nsLQ1KDC6picwuBunMKkRqDCmiSbwil8mcJG45nC2ySYwibnmsI565nCFHKewjL3n8LNqZ3C&#xD;&#xa;kKuewgCUm8JyMZzCnqGdwhSZncIYcp3CahOawuOBm8KL+ZzCROCdwiiVm8IY7pzChESdwvPZnMJm&#xD;&#xa;3JrCQfybwvJvoMJ2DaHCs2KfwvxDn8Lbwp/ChBmgwpt8osL2z6DCZ8ibwu6ym8JNzpzCfBydwqyt&#xD;&#xa;ncJsuZzCi/6ewlbVncLMi5vCpzqbwtfumcL6JZjCAouZwvdknMKl46DCV/ugwnLPncImTJ/C2xag&#xD;&#xa;woYSnMLopZ3CGAiewozWnsJgoJzClvScwrqPocImf5/C95SbwpaqncJJs6HCtGajwhKYnsLyf57C&#xD;&#xa;N3WhwlybncIHiZzCelGcwr4qmcIGmJ7CYi6gwiBCoMKdZpzCDOSYwt26msJ23JzChDihwsr9n8IU&#xD;&#xa;gZvCUv2bwuexoMJHB6DCzqmewvKTncIIg53Cx+idwhniocIQC6PCdhGjwu5xosIQ0Z7CF9ifwtr5&#xD;&#xa;oMLyRKPCH6+hwroSosJsFqDC4fKewp+DncJcW6DCw+ijwud9ncIOGp7C/I6kwvl0o8LyG6PCSCOk&#xD;&#xa;wpwgpsK1L6bCsTSmwjMzpsIehKfC/qynwh4pp8KUdaPCmNekwl8vpcKUBqfCqK+owi78qsKgkKvC&#xD;&#xa;olGqwpLfrMKS7avCLRWrwhw8qMJbG6vCF86qwjY+qMJ6FafCbRWpwiLcqMIrIqjCCwGowibpqsIO&#xD;&#xa;iqzCZ8SqwumzrMKd8a3CHlyuwrpjrcIs96zCrBWwwpTDrsK6KK7C9xSuwiDyrcIFwa7CGW2wwnaP&#xD;&#xa;rcInYanCD/Oowm4ZqMK+PKrCuySpwmJnqsIlgKvCz8qswmwdqsJuyanCmm2swrbwrsJNQK7CCuus&#xD;&#xa;wpDGrcJNDrHCCFOxwjscssKI4a/C36OvwsbkrsL6la3CRmutwnUKr8Kvhq/CtMSqwigSqsJZTKvC&#xD;&#xa;vqKuwmhCrsLAIqzCqLurwqTXqsJI2arC2Z6swkAQsMLCFLHC3eKrwjtGrMKrCK/CCHyswoOFqsLk&#xD;&#xa;nqfC5BKowi5+qsLDGKvCeXyswqafr8KylKzCLG2rwnNZrsL7+rDCHSCtwloyq8JEhKvCc2erwlYs&#xD;&#xa;q8KoyqzClhWqwkJzrMIE+6rCbLypwijxrMJ4r6zCkCGtwmAQr8Jpn63CDK+uwjTIqcJcL6vC3Pew&#xD;&#xa;wlmgscJO96/COBOvwn/+rMKWHqzC3wuxwrjdssLQj7PCC8+ywtR2rsKxParCcbWswv6VscLAwrDC&#xD;&#xa;J3uwwgLZssK0DLTCFEq1wkH4ssLqsLHCToSxwvocs8LcgLDCAlCwwshCssJ2mLLCLZS0wsRxtMJo&#xD;&#xa;i7HCfx2twtZIr8JiGbHCldmxwiiPssJUsrHCm86wwvKJsML2FbLCQtOuwlxGrMKVL67CTNSzwvvM&#xD;&#xa;ssLKJbTCHii0wksQscICQLHC/SGxwnxtssLlH7HC96etwqxyr8J926/CiwGzwpAatMJUubTCE6Oz&#xD;&#xa;wi1UscL/Va/CVhOvwlU5ssLk8rTCOyy2wthHtcKyabTCj6+2wpwluMLwd7nCrqy2wjkot8J+PLnC&#xD;&#xa;EL+2wkuDt8IIirrCpoC3wktvt8IXa7nCQvu1ws+5tcLv47bCKYi1wkz6tMLCgrXCfsq0wtuKssLh&#xD;&#xa;Q7TCUdy0wvTOs8K6ALTC7Sq0wtgruMJd9rXCtzy3wiXYusL8JbnCHE64whp1tsIAkrjCNaK5wuYB&#xD;&#xa;u8IM6r3CNoS9wp4sv8IqPr3CAWe8wvCpucIOpbfCTWW4wgi+u8JSs7zCyP66wuWVvMLIBr/C4qW8&#xD;&#xa;whqauMI8PLnCxca4wr69usJ5XLfCtMC3wlbSusLUC7zCvMe7wtYvvMJSprrCb2O3wtBKu8IAbL7C&#xD;&#xa;JvC9wkxPusKSMrnCMwK9wtaNucI/sLTCrqO5wtgCvcL5orvCQWi+wkPrwMLEy77CRsG/wlhnycIw&#xD;&#xa;v8/CsdvNwsJGy8LqnMvCzGrOwk9YzsLUPs3CjtvOwic70MJmI9TCEajOwvYPzsLYYdDC4M7PwjzE&#xD;&#xa;0cIuedTCEuTSwvRg0cIWz83C6uDKwpxgysIYrMrC0SLOwvAs1MI6vtTCa+LQwvCe1cIAtuPCDXrn&#xD;&#xa;wsEn38LmxNTCWJ7Uwkrb3MKnSdnCn3rQwiknzsKWcs/CiQbWwhiM28KS49nCTu/RwtdC08L6sNnC&#xD;&#xa;anDTwq9Y1MKaH9/C2HT0wqUzKsLulxvCfrIvwrh5O8Ix2kvCJiZLwox5TsJYWFPCP2JXwh3oWMLJ&#xD;&#xa;C1bCZT1fwtPibcKlbG/CNYNywm4Jc8LOqXbCSLJ/wgGuesJiM3LCEvdywtSycsKBzW/Cvy11wp/B&#xD;&#xa;esIZq3fCPEJ7wrQuhMLBpITCYZiEwl6oh8KvDonCIaKHwnrjiMLbEoHCRCd7wqWrgsLcCYTCbXuB&#xD;&#xa;wtJKf8IsQYXC20eIwlqmi8JCZ47Cbp+Sws64lcLFX5PCZ2qSwroQk8KkkJTC8e+TwpiElMIaWJTC&#xD;&#xa;woyVwiKel8JTDJfCtESZwsQqmcJHVJnC3fKawlNAmMKcYJrCzpyawnqCmMIBv5rC8sWawqq4l8KK&#xD;&#xa;GJnCV6OYwkmslMKozZbCEhiWwvCulMKPTZPCHsCTwjOflcJ2hZfCREuawk5BmcLhQ53C/TCgwm75&#xD;&#xa;n8IKWaDC2+eawhXGmMIzHJfCV4KWwiUAl8Ka+ZfCKsKYwv38mcLUypjCkXKbwn8fm8Kl+5rCEbCc&#xD;&#xa;wmK1nsJz1aDC5JWcwmdznMJHT6DCFSmbwv2FmcKa45nCeiGYwgnsmsKh6JnC+H2ewj8EoMKgtZ3C&#xD;&#xa;orCewhCdm8JZOJzCap2dwlSancIefp3CKBmawo19m8JC+ZzCSuidwgafm8IJ/JzCW02dwkDlnMIG&#xD;&#xa;6ZrC1A+cwkJ3oMK0GqHC2mmfwgBCn8KD0Z/CyS6gwq2eosLP3qDCosKbwlOzm8JCyZzCrBWdwk6/&#xD;&#xa;ncKRu5zCVPSewtjUncK9k5vCuU+bwpwEmsIiN5jC9IyZwkx8nMJWE6HC7DKhwv7nncJ5ZJ/C7UCg&#xD;&#xa;wpo5nMLUsp3CYBGewvLknsISopzCRfacwkaSocL+dJ/CkpubwhK8ncLYx6HC22ajwueSnsLHb57C&#xD;&#xa;zXChwoWlncKCnpzC+VqcwuQnmcIGi57CiyigwmRMoMKdeJzC9d+YwlGzmsJI3JzCSzChwkjtn8K+&#xD;&#xa;cJvCBPebwqK7oMJrFaDCvKyewhKHncJHcJ3Cqd6dwprlocILH6PC9yqjwuCHosKC5Z7CfNifwusC&#xD;&#xa;ocIZVKPCAbKhwpkhosKoKaDCSAufwpWWncLea6DCgOajwjqLncJCJp7CcoCkwm5Vo8KYEaPCqyyk&#xD;&#xa;wugdpsJjSKbCqlamwtFCpsIwqqfCALqnwlonp8JjiaPCNOSkwldCpcLUCqfCyqWowvzLqsKUiavC&#xD;&#xa;ImSqwn7TrMIG5avCIjOrwu+JqMJ3QKvC1sKqwoJIqMJkJafCUjqpwibhqMKqC6jCh/anwgruqsJZ&#xD;&#xa;aazCBbiqwvq2rMI+5K3C6KSuwmKkrcIBRa3CoRuwwgi1rsJDIq7CEC2uwvgSrsJAyK7CvqOwwnnF&#xD;&#xa;rcIyX6nCPA+pwk4uqMIXRarCMDOpwrZ7qsJOfqvC1NCswhM+qsKB4qnCJZCswkwmr8KMOa7Chgqt&#xD;&#xa;wkryrcJDK7HC1ouxwmb8scLWya/Cp4uvwsL3rsKAn63C3H2twkQfr8Izja/C6smqwiITqsLwSKvC&#xD;&#xa;9pquwvhJrsKiK6zC5q+rwqTIqsL216rCk6qswpgtsMJ5LLHC7uKrwrQ+rMLx+K7CdXKswkKGqsKm&#xD;&#xa;qafCXQ6owr2AqsLjH6vCSoeswkCur8LklqzCvn2rwiZtrsJ4EbHCnhutwho0q8K9iavCCGKrwsEw&#xD;&#xa;q8IkyazC0BOqwkRzrMLu8KrCGaupwiPgrMLVoqzCUBitwsYPr8IspK3CDq6uwq7IqcKQL6vCbvyw&#xD;&#xa;wgqzscJSEbDCWCCvwm36rMJDHKzCmAuxwnPcssKEhbPC/7eywklgrsLgN6rCfsWswqKdscJ9zLDC&#xD;&#xa;HHWwwt/ussIOMbTCIEa1wqjxssJErrHCjpWxwsUos8KolrDC5Gmwwq5BssLnkLLCyJi0wmdxtMI/&#xD;&#xa;e7HCGgytwi5Er8IKG7HCpuGxwsOVssKfu7HCXcOwwtOLsMJME7LCPdGuwhxJrMIgLa7CINezwv7B&#xD;&#xa;ssJIHrTCDh20wvgGscLrQbHCFSqxwvZ+ssIyGLHCNautwq5wr8IkyK/C4P6ywkoitMLyuLTCQp6z&#xD;&#xa;wrxLscJaUq/Crgyvwg1BssLu9rTCyym2witKtcIXd7TCKtS2wok9uML8hLnC18S2wqkyt8JUXrnC&#xD;&#xa;L+G2wh56t8KMgbrCuIS3wtJst8IYdLnCPgK2wriytcKw4LbCIoC1wrn4tML/ibXCEr20wmGKssLm&#xD;&#xa;RbTCzNW0wrLOs8LtBrTC1jS0wqQuuMKs9LXCwyi3wiTMusL9QLnCk2S4wmVktsI1grjCjqi5wnry&#xD;&#xa;usIu5b3C4nG9wo4Av8J/SL3CZnO8wgjBucKGzbfCaW24ws3Pu8IPwbzCbu26wpiIvMLQFL/CDcm8&#xD;&#xa;wtbCuMJLQLnCfp24wkKeusKxQ7fCfM63wjbuusLjF7zCuOC7wpRPvMKmtrrCc2i3wkViu8IrSr7C&#xD;&#xa;mNS9wvxtusJOYrnCnCe9woWUucLzurTCjKW5wp8lvcLLp7vC3ky+wuT8wMKgwL7CMae/wiJFycLM&#xD;&#xa;is/C3BfOwi6Ey8LOgcvCakzOwlhHzsKGaM3CjtbOwqRF0MJtMNTCaXXOwobmzcI6fNDCOArQwlL0&#xD;&#xa;0cI0p9TC2MLSwonb0cJOAs7Co9TKwixoysLwssrC+GnOwiQn1MK2zNTCqgnRwjaz1cLCVuTCtEXo&#xD;&#xa;wnBz38JG09TCDLnUwoI63cIzHdnCglnQwkcOzsIax8/Ctj3Wws5u28JgVdrCQjXSwvTp0sJc9tjC&#xD;&#xa;oq7Twj5d1MI+mN/CdPz0" leadInLength="0/1"  />
            </Keyframes>
           </Parameter>
           </Parameters>
           <MetaData>
            <entry key="effectIndex" val="0"/>
           </MetaData>
          </GenericEffect>
         </Effects>
         <Attributes>
          <Attribute id="2393" value="" name="ident"/>
          <Attribute id="2394" value="0" name="mixToMono"/>
         </Attributes>
         <MetaData>
          <entry key="WinSubProjectDisplayName" val=""/>
         </MetaData>
         <ExtraData>
          <Entry key="ZoomPanBin">
           <ZoomPanBin id="2395"  >
            <ZoomPanKeyframes>
             <ZoomPanKeyframe id="2396" timeRangeEnd="-9999999/1" timeRangeDuration="0/1" interpolaterName="linr"  />
            </ZoomPanKeyframes>
           </ZoomPanBin>
          </Entry>
          <Entry key="CursorEffectBin">
           <CursorEffectBin id="2397"  >
            <CursorEffectKeyframes>
            </CursorEffectKeyframes>
           </CursorEffectBin>
          </Entry>
         </ExtraData>
         <GenericTrack id="2398"  >
          <Attributes>
           <Attribute id="2399" value="" name="ident"/>
           <Attribute id="2400" value="0" name="audioMuted"/>
           <Attribute id="2401" value="0" name="videoHidden"/>
          </Attributes>
          <MetaData>
           <entry key="IsLocked" val="False"/>
           <entry key="WinTrackHeight" val="0"/>
          </MetaData>
          <Medias>
           <UnifiedMedia id="2402"  >
            <AMFile id="2403" start="0" duration="101" scalar="1/1" mediaStart="0/1" mediaDuration="101/1" trackNumber="2" src="4" channelNumber="0,1" >
             <Parameters>
              <InterpolatingParam id="2404" interp="linr"  time="0/1" value="1" leadInLength="0/1"  name="volume"/>
              <Parameter id="2405"  name="captions"/>
             </Parameters>
             <Attributes>
              <Attribute id="2406" value="" name="ident"/>
              <Attribute id="2407" value="44100" name="sampleRate"/>
              <Attribute id="2408" value="16" name="bitDepth"/>
              <Attribute id="2409" value="1" name="gain"/>
              <Attribute id="2410" value="0" name="mixToMono"/>
             </Attributes>
            </AMFile>
            <VMFile id="2411" start="0" duration="101" scalar="1/1" mediaStart="0/1" mediaDuration="101/1" trackNumber="1" src="4" >
             <Transformer>
              <VectorParam id="2412"  name="translation">
               <InterpolatingParam id="2413" interp="linr"  time="-9999999/1" value="0" leadInLength="0/1"  />
               <InterpolatingParam id="2414" interp="linr"  time="-9999999/1" value="0" leadInLength="0/1"  />
               <InterpolatingParam id="2415" interp="linr"  time="-9999999/1" value="0" leadInLength="0/1"  />
              </VectorParam>
              <VectorParam id="2416"  name="rotation">
               <InterpolatingParam id="2417" interp="linr"  time="-9999999/1" value="0" leadInLength="0/1"  />
               <InterpolatingParam id="2418" interp="linr"  time="-9999999/1" value="0" leadInLength="0/1"  />
               <InterpolatingParam id="2419" interp="linr"  time="-9999999/1" value="0" leadInLength="0/1"  />
              </VectorParam>
              <VectorParam id="2420"  name="shear">
               <InterpolatingParam id="2421" interp="linr"  time="-9999999/1" value="0" leadInLength="0/1"  />
               <InterpolatingParam id="2422" interp="linr"  time="-9999999/1" value="0" leadInLength="0/1"  />
               <InterpolatingParam id="2423" interp="linr"  time="-9999999/1" value="0" leadInLength="0/1"  />
              </VectorParam>
              <VectorParam id="2424"  name="scale">
               <InterpolatingParam id="2425" interp="linr"  time="-9999999/1" value="1" leadInLength="0/1"  />
               <InterpolatingParam id="2426" interp="linr"  time="-9999999/1" value="1" leadInLength="0/1"  />
               <InterpolatingParam id="2427" interp="linr"  time="-9999999/1" value="1" leadInLength="0/1"  />
              </VectorParam>
              <VectorParam id="2428"  name="anchor">
               <InterpolatingParam id="2429" interp="linr"  time="0/1" value="0" leadInLength="0/1"  />
               <InterpolatingParam id="2430" interp="linr"  time="0/1" value="0" leadInLength="0/1"  />
               <InterpolatingParam id="2431" interp="linr"  time="0/1" value="0" leadInLength="0/1"  />
              </VectorParam>
             </Transformer>
             <Parameters>
              <VectorParam id="2432"  name="sourceCrop">
               <InterpolatingParam id="2433" interp="linr"  time="0/1" value="0" leadInLength="0/1"  />
               <InterpolatingParam id="2434" interp="linr"  time="0/1" value="0" leadInLength="0/1"  />
               <InterpolatingParam id="2435" interp="linr"  time="0/1" value="0" leadInLength="0/1"  />
               <InterpolatingParam id="2436" interp="linr"  time="0/1" value="0" leadInLength="0/1"  />
              </VectorParam>
              <VectorParam id="2437"  name="geometryCrop">
               <InterpolatingParam id="2438" interp="linr"  time="-9999999/1" value="0" leadInLength="0/1"  />
               <InterpolatingParam id="2439" interp="linr"  time="-9999999/1" value="0" leadInLength="0/1"  />
               <InterpolatingParam id="2440" interp="linr"  time="-9999999/1" value="0" leadInLength="0/1"  />
               <InterpolatingParam id="2441" interp="linr"  time="-9999999/1" value="0" leadInLength="0/1"  />
              </VectorParam>
              <InterpolatingParam id="2442" interp="linr"  time="-9999999/1" value="1" leadInLength="0/1"  name="opacity"/>
             </Parameters>
             <Attributes>
              <Attribute id="2443" value="" name="ident"/>
             </Attributes>
             <ExtraData>
              <Entry key="ZoomPanBin">
               <ZoomPanBin id="2444"  >
                <ZoomPanKeyframes>
                 <ZoomPanKeyframe id="2445" timeRangeEnd="-9999999/1" timeRangeDuration="0/1" interpolaterName=""  />
                </ZoomPanKeyframes>
               </ZoomPanBin>
              </Entry>
             </ExtraData>
            </VMFile>
            <MetaData>
             <entry key="WinSubProjectDisplayName" val=""/>
            </MetaData>
           </UnifiedMedia>
           <UnifiedMedia id="2446"  >
            <AMFile id="2447" start="101" duration="73" scalar="1/1" mediaStart="140/1" mediaDuration="73/1" trackNumber="2" src="4" channelNumber="0,1" >
             <Parameters>
              <InterpolatingParam id="2448" interp="linr"  time="0/1" value="1" leadInLength="0/1"  name="volume"/>
              <Parameter id="2449"  name="captions"/>
             </Parameters>
             <Attributes>
              <Attribute id="2450" value="" name="ident"/>
              <Attribute id="2451" value="44100" name="sampleRate"/>
              <Attribute id="2452" value="16" name="bitDepth"/>
              <Attribute id="2453" value="1" name="gain"/>
              <Attribute id="2454" value="0" name="mixToMono"/>
             </Attributes>
            </AMFile>
            <VMFile id="2455" start="101" duration="73" scalar="1/1" mediaStart="140/1" mediaDuration="73/1" trackNumber="1" src="4" >
             <Transformer>
              <VectorParam id="2456"  name="translation">
               <InterpolatingParam id="2457" interp="linr"  time="-9999999/1" value="0" leadInLength="0/1"  />
               <InterpolatingParam id="2458" interp="linr"  time="-9999999/1" value="0" leadInLength="0/1"  />
               <InterpolatingParam id="2459" interp="linr"  time="-9999999/1" value="0" leadInLength="0/1"  />
              </VectorParam>
              <VectorParam id="2460"  name="rotation">
               <InterpolatingParam id="2461" interp="linr"  time="-9999999/1" value="0" leadInLength="0/1"  />
               <InterpolatingParam id="2462" interp="linr"  time="-9999999/1" value="0" leadInLength="0/1"  />
               <InterpolatingParam id="2463" interp="linr"  time="-9999999/1" value="0" leadInLength="0/1"  />
              </VectorParam>
              <VectorParam id="2464"  name="shear">
               <InterpolatingParam id="2465" interp="linr"  time="-9999999/1" value="0" leadInLength="0/1"  />
               <InterpolatingParam id="2466" interp="linr"  time="-9999999/1" value="0" leadInLength="0/1"  />
               <InterpolatingParam id="2467" interp="linr"  time="-9999999/1" value="0" leadInLength="0/1"  />
              </VectorParam>
              <VectorParam id="2468"  name="scale">
               <InterpolatingParam id="2469" interp="linr"  time="-9999999/1" value="1" leadInLength="0/1"  />
               <InterpolatingParam id="2470" interp="linr"  time="-9999999/1" value="1" leadInLength="0/1"  />
               <InterpolatingParam id="2471" interp="linr"  time="-9999999/1" value="1" leadInLength="0/1"  />
              </VectorParam>
              <VectorParam id="2472"  name="anchor">
               <InterpolatingParam id="2473" interp="linr"  time="0/1" value="0" leadInLength="0/1"  />
               <InterpolatingParam id="2474" interp="linr"  time="0/1" value="0" leadInLength="0/1"  />
               <InterpolatingParam id="2475" interp="linr"  time="0/1" value="0" leadInLength="0/1"  />
              </VectorParam>
             </Transformer>
             <Parameters>
              <VectorParam id="2476"  name="sourceCrop">
               <InterpolatingParam id="2477" interp="linr"  time="0/1" value="0" leadInLength="0/1"  />
               <InterpolatingParam id="2478" interp="linr"  time="0/1" value="0" leadInLength="0/1"  />
               <InterpolatingParam id="2479" interp="linr"  time="0/1" value="0" leadInLength="0/1"  />
               <InterpolatingParam id="2480" interp="linr"  time="0/1" value="0" leadInLength="0/1"  />
              </VectorParam>
              <VectorParam id="2481"  name="geometryCrop">
               <InterpolatingParam id="2482" interp="linr"  time="-9999999/1" value="0" leadInLength="0/1"  />
               <InterpolatingParam id="2483" interp="linr"  time="-9999999/1" value="0" leadInLength="0/1"  />
               <InterpolatingParam id="2484" interp="linr"  time="-9999999/1" value="0" leadInLength="0/1"  />
               <InterpolatingParam id="2485" interp="linr"  time="-9999999/1" value="0" leadInLength="0/1"  />
              </VectorParam>
              <InterpolatingParam id="2486" interp="linr"  time="-9999999/1" value="1" leadInLength="0/1"  name="opacity"/>
             </Parameters>
             <Attributes>
              <Attribute id="2487" value="" name="ident"/>
             </Attributes>
             <ExtraData>
              <Entry key="ZoomPanBin">
               <ZoomPanBin id="2488"  >
                <ZoomPanKeyframes>
                 <ZoomPanKeyframe id="2489" timeRangeEnd="-9999999/1" timeRangeDuration="0/1" interpolaterName=""  />
                </ZoomPanKeyframes>
               </ZoomPanBin>
              </Entry>
             </ExtraData>
            </VMFile>
            <MetaData>
             <entry key="WinSubProjectDisplayName" val=""/>
            </MetaData>
           </UnifiedMedia>
           <UnifiedMedia id="2490"  >
            <AMFile id="2491" start="174" duration="132" scalar="1/1" mediaStart="233/1" mediaDuration="132/1" trackNumber="2" src="4" channelNumber="0,1" >
             <Parameters>
              <InterpolatingParam id="2492" interp="linr"  time="0/1" value="1" leadInLength="0/1"  name="volume"/>
              <Parameter id="2493"  name="captions"/>
             </Parameters>
             <Attributes>
              <Attribute id="2494" value="" name="ident"/>
              <Attribute id="2495" value="44100" name="sampleRate"/>
              <Attribute id="2496" value="16" name="bitDepth"/>
              <Attribute id="2497" value="1" name="gain"/>
              <Attribute id="2498" value="0" name="mixToMono"/>
             </Attributes>
            </AMFile>
            <VMFile id="2499" start="174" duration="132" scalar="1/1" mediaStart="233/1" mediaDuration="132/1" trackNumber="1" src="4" >
             <Transformer>
              <VectorParam id="2500"  name="translation">
               <InterpolatingParam id="2501" interp="linr"  time="-9999999/1" value="0" leadInLength="0/1"  />
               <InterpolatingParam id="2502" interp="linr"  time="-9999999/1" value="0" leadInLength="0/1"  />
               <InterpolatingParam id="2503" interp="linr"  time="-9999999/1" value="0" leadInLength="0/1"  />
              </VectorParam>
              <VectorParam id="2504"  name="rotation">
               <InterpolatingParam id="2505" interp="linr"  time="-9999999/1" value="0" leadInLength="0/1"  />
               <InterpolatingParam id="2506" interp="linr"  time="-9999999/1" value="0" leadInLength="0/1"  />
               <InterpolatingParam id="2507" interp="linr"  time="-9999999/1" value="0" leadInLength="0/1"  />
              </VectorParam>
              <VectorParam id="2508"  name="shear">
               <InterpolatingParam id="2509" interp="linr"  time="-9999999/1" value="0" leadInLength="0/1"  />
               <InterpolatingParam id="2510" interp="linr"  time="-9999999/1" value="0" leadInLength="0/1"  />
               <InterpolatingParam id="2511" interp="linr"  time="-9999999/1" value="0" leadInLength="0/1"  />
              </VectorParam>
              <VectorParam id="2512"  name="scale">
               <InterpolatingParam id="2513" interp="linr"  time="-9999999/1" value="1" leadInLength="0/1"  />
               <InterpolatingParam id="2514" interp="linr"  time="-9999999/1" value="1" leadInLength="0/1"  />
               <InterpolatingParam id="2515" interp="linr"  time="-9999999/1" value="1" leadInLength="0/1"  />
              </VectorParam>
              <VectorParam id="2516"  name="anchor">
               <InterpolatingParam id="2517" interp="linr"  time="0/1" value="0" leadInLength="0/1"  />
               <InterpolatingParam id="2518" interp="linr"  time="0/1" value="0" leadInLength="0/1"  />
               <InterpolatingParam id="2519" interp="linr"  time="0/1" value="0" leadInLength="0/1"  />
              </VectorParam>
             </Transformer>
             <Parameters>
              <VectorParam id="2520"  name="sourceCrop">
               <InterpolatingParam id="2521" interp="linr"  time="0/1" value="0" leadInLength="0/1"  />
               <InterpolatingParam id="2522" interp="linr"  time="0/1" value="0" leadInLength="0/1"  />
               <InterpolatingParam id="2523" interp="linr"  time="0/1" value="0" leadInLength="0/1"  />
               <InterpolatingParam id="2524" interp="linr"  time="0/1" value="0" leadInLength="0/1"  />
              </VectorParam>
              <VectorParam id="2525"  name="geometryCrop">
               <InterpolatingParam id="2526" interp="linr"  time="-9999999/1" value="0" leadInLength="0/1"  />
               <InterpolatingParam id="2527" interp="linr"  time="-9999999/1" value="0" leadInLength="0/1"  />
               <InterpolatingParam id="2528" interp="linr"  time="-9999999/1" value="0" leadInLength="0/1"  />
               <InterpolatingParam id="2529" interp="linr"  time="-9999999/1" value="0" leadInLength="0/1"  />
              </VectorParam>
              <InterpolatingParam id="2530" interp="linr"  time="-9999999/1" value="1" leadInLength="0/1"  name="opacity"/>
             </Parameters>
             <Attributes>
              <Attribute id="2531" value="" name="ident"/>
             </Attributes>
             <ExtraData>
              <Entry key="ZoomPanBin">
               <ZoomPanBin id="2532"  >
                <ZoomPanKeyframes>
                 <ZoomPanKeyframe id="2533" timeRangeEnd="-9999999/1" timeRangeDuration="0/1" interpolaterName=""  />
                </ZoomPanKeyframes>
               </ZoomPanBin>
              </Entry>
             </ExtraData>
            </VMFile>
            <MetaData>
             <entry key="WinSubProjectDisplayName" val=""/>
            </MetaData>
           </UnifiedMedia>
           <UnifiedMedia id="2534"  >
            <AMFile id="2535" start="306" duration="92" scalar="1/1" mediaStart="383/1" mediaDuration="92/1" trackNumber="2" src="4" channelNumber="0,1" >
             <Parameters>
              <InterpolatingParam id="2536" interp="linr"  time="0/1" value="1" leadInLength="0/1"  name="volume"/>
              <Parameter id="2537"  name="captions"/>
             </Parameters>
             <Attributes>
              <Attribute id="2538" value="" name="ident"/>
              <Attribute id="2539" value="44100" name="sampleRate"/>
              <Attribute id="2540" value="16" name="bitDepth"/>
              <Attribute id="2541" value="1" name="gain"/>
              <Attribute id="2542" value="0" name="mixToMono"/>
             </Attributes>
            </AMFile>
            <VMFile id="2543" start="306" duration="92" scalar="1/1" mediaStart="383/1" mediaDuration="92/1" trackNumber="1" src="4" >
             <Transformer>
              <VectorParam id="2544"  name="translation">
               <InterpolatingParam id="2545" interp="linr"  time="-9999999/1" value="0" leadInLength="0/1"  />
               <InterpolatingParam id="2546" interp="linr"  time="-9999999/1" value="0" leadInLength="0/1"  />
               <InterpolatingParam id="2547" interp="linr"  time="-9999999/1" value="0" leadInLength="0/1"  />
              </VectorParam>
              <VectorParam id="2548"  name="rotation">
               <InterpolatingParam id="2549" interp="linr"  time="-9999999/1" value="0" leadInLength="0/1"  />
               <InterpolatingParam id="2550" interp="linr"  time="-9999999/1" value="0" leadInLength="0/1"  />
               <InterpolatingParam id="2551" interp="linr"  time="-9999999/1" value="0" leadInLength="0/1"  />
              </VectorParam>
              <VectorParam id="2552"  name="shear">
               <InterpolatingParam id="2553" interp="linr"  time="-9999999/1" value="0" leadInLength="0/1"  />
               <InterpolatingParam id="2554" interp="linr"  time="-9999999/1" value="0" leadInLength="0/1"  />
               <InterpolatingParam id="2555" interp="linr"  time="-9999999/1" value="0" leadInLength="0/1"  />
              </VectorParam>
              <VectorParam id="2556"  name="scale">
               <InterpolatingParam id="2557" interp="linr"  time="-9999999/1" value="1" leadInLength="0/1"  />
               <InterpolatingParam id="2558" interp="linr"  time="-9999999/1" value="1" leadInLength="0/1"  />
               <InterpolatingParam id="2559" interp="linr"  time="-9999999/1" value="1" leadInLength="0/1"  />
              </VectorParam>
              <VectorParam id="2560"  name="anchor">
               <InterpolatingParam id="2561" interp="linr"  time="0/1" value="0" leadInLength="0/1"  />
               <InterpolatingParam id="2562" interp="linr"  time="0/1" value="0" leadInLength="0/1"  />
               <InterpolatingParam id="2563" interp="linr"  time="0/1" value="0" leadInLength="0/1"  />
              </VectorParam>
             </Transformer>
             <Parameters>
              <VectorParam id="2564"  name="sourceCrop">
               <InterpolatingParam id="2565" interp="linr"  time="0/1" value="0" leadInLength="0/1"  />
               <InterpolatingParam id="2566" interp="linr"  time="0/1" value="0" leadInLength="0/1"  />
               <InterpolatingParam id="2567" interp="linr"  time="0/1" value="0" leadInLength="0/1"  />
               <InterpolatingParam id="2568" interp="linr"  time="0/1" value="0" leadInLength="0/1"  />
              </VectorParam>
              <VectorParam id="2569"  name="geometryCrop">
               <InterpolatingParam id="2570" interp="linr"  time="-9999999/1" value="0" leadInLength="0/1"  />
               <InterpolatingParam id="2571" interp="linr"  time="-9999999/1" value="0" leadInLength="0/1"  />
               <InterpolatingParam id="2572" interp="linr"  time="-9999999/1" value="0" leadInLength="0/1"  />
               <InterpolatingParam id="2573" interp="linr"  time="-9999999/1" value="0" leadInLength="0/1"  />
              </VectorParam>
              <InterpolatingParam id="2574" interp="linr"  time="-9999999/1" value="1" leadInLength="0/1"  name="opacity"/>
             </Parameters>
             <Attributes>
              <Attribute id="2575" value="" name="ident"/>
             </Attributes>
             <ExtraData>
              <Entry key="ZoomPanBin">
               <ZoomPanBin id="2576"  >
                <ZoomPanKeyframes>
                 <ZoomPanKeyframe id="2577" timeRangeEnd="-9999999/1" timeRangeDuration="0/1" interpolaterName=""  />
                </ZoomPanKeyframes>
               </ZoomPanBin>
              </Entry>
             </ExtraData>
            </VMFile>
            <MetaData>
             <entry key="WinSubProjectDisplayName" val=""/>
            </MetaData>
           </UnifiedMedia>
           <UnifiedMedia id="2578"  >
            <AMFile id="2579" start="398" duration="178" scalar="1/1" mediaStart="497/1" mediaDuration="178/1" trackNumber="2" src="4" channelNumber="0,1" >
             <Parameters>
              <InterpolatingParam id="2580" interp="linr"  time="0/1" value="1" leadInLength="0/1"  name="volume"/>
              <Parameter id="2581"  name="captions"/>
             </Parameters>
             <Attributes>
              <Attribute id="2582" value="" name="ident"/>
              <Attribute id="2583" value="44100" name="sampleRate"/>
              <Attribute id="2584" value="16" name="bitDepth"/>
              <Attribute id="2585" value="1" name="gain"/>
              <Attribute id="2586" value="0" name="mixToMono"/>
             </Attributes>
            </AMFile>
            <VMFile id="2587" start="398" duration="178" scalar="1/1" mediaStart="497/1" mediaDuration="178/1" trackNumber="1" src="4" >
             <Transformer>
              <VectorParam id="2588"  name="translation">
               <InterpolatingParam id="2589" interp="linr"  time="-9999999/1" value="0" leadInLength="0/1"  />
               <InterpolatingParam id="2590" interp="linr"  time="-9999999/1" value="0" leadInLength="0/1"  />
               <InterpolatingParam id="2591" interp="linr"  time="-9999999/1" value="0" leadInLength="0/1"  />
              </VectorParam>
              <VectorParam id="2592"  name="rotation">
               <InterpolatingParam id="2593" interp="linr"  time="-9999999/1" value="0" leadInLength="0/1"  />
               <InterpolatingParam id="2594" interp="linr"  time="-9999999/1" value="0" leadInLength="0/1"  />
               <InterpolatingParam id="2595" interp="linr"  time="-9999999/1" value="0" leadInLength="0/1"  />
              </VectorParam>
              <VectorParam id="2596"  name="shear">
               <InterpolatingParam id="2597" interp="linr"  time="-9999999/1" value="0" leadInLength="0/1"  />
               <InterpolatingParam id="2598" interp="linr"  time="-9999999/1" value="0" leadInLength="0/1"  />
               <InterpolatingParam id="2599" interp="linr"  time="-9999999/1" value="0" leadInLength="0/1"  />
              </VectorParam>
              <VectorParam id="2600"  name="scale">
               <InterpolatingParam id="2601" interp="linr"  time="-9999999/1" value="1" leadInLength="0/1"  />
               <InterpolatingParam id="2602" interp="linr"  time="-9999999/1" value="1" leadInLength="0/1"  />
               <InterpolatingParam id="2603" interp="linr"  time="-9999999/1" value="1" leadInLength="0/1"  />
              </VectorParam>
              <VectorParam id="2604"  name="anchor">
               <InterpolatingParam id="2605" interp="linr"  time="0/1" value="0" leadInLength="0/1"  />
               <InterpolatingParam id="2606" interp="linr"  time="0/1" value="0" leadInLength="0/1"  />
               <InterpolatingParam id="2607" interp="linr"  time="0/1" value="0" leadInLength="0/1"  />
              </VectorParam>
             </Transformer>
             <Parameters>
              <VectorParam id="2608"  name="sourceCrop">
               <InterpolatingParam id="2609" interp="linr"  time="0/1" value="0" leadInLength="0/1"  />
               <InterpolatingParam id="2610" interp="linr"  time="0/1" value="0" leadInLength="0/1"  />
               <InterpolatingParam id="2611" interp="linr"  time="0/1" value="0" leadInLength="0/1"  />
               <InterpolatingParam id="2612" interp="linr"  time="0/1" value="0" leadInLength="0/1"  />
              </VectorParam>
              <VectorParam id="2613"  name="geometryCrop">
               <InterpolatingParam id="2614" interp="linr"  time="-9999999/1" value="0" leadInLength="0/1"  />
               <InterpolatingParam id="2615" interp="linr"  time="-9999999/1" value="0" leadInLength="0/1"  />
               <InterpolatingParam id="2616" interp="linr"  time="-9999999/1" value="0" leadInLength="0/1"  />
               <InterpolatingParam id="2617" interp="linr"  time="-9999999/1" value="0" leadInLength="0/1"  />
              </VectorParam>
              <InterpolatingParam id="2618" interp="linr"  time="-9999999/1" value="1" leadInLength="0/1"  name="opacity"/>
             </Parameters>
             <Attributes>
              <Attribute id="2619" value="" name="ident"/>
             </Attributes>
             <ExtraData>
              <Entry key="ZoomPanBin">
               <ZoomPanBin id="2620"  >
                <ZoomPanKeyframes>
                 <ZoomPanKeyframe id="2621" timeRangeEnd="-9999999/1" timeRangeDuration="0/1" interpolaterName=""  />
                </ZoomPanKeyframes>
               </ZoomPanBin>
              </Entry>
             </ExtraData>
            </VMFile>
            <MetaData>
             <entry key="WinSubProjectDisplayName" val=""/>
            </MetaData>
           </UnifiedMedia>
           <UnifiedMedia id="2622"  >
            <AMFile id="2623" start="576" duration="22" scalar="1/1" mediaStart="680/1" mediaDuration="22/1" trackNumber="2" src="4" channelNumber="0,1" >
             <Parameters>
              <InterpolatingParam id="2624" interp="linr"  time="0/1" value="1" leadInLength="0/1"  name="volume"/>
              <Parameter id="2625"  name="captions"/>
             </Parameters>
             <Attributes>
              <Attribute id="2626" value="" name="ident"/>
              <Attribute id="2627" value="44100" name="sampleRate"/>
              <Attribute id="2628" value="16" name="bitDepth"/>
              <Attribute id="2629" value="1" name="gain"/>
              <Attribute id="2630" value="0" name="mixToMono"/>
             </Attributes>
            </AMFile>
            <VMFile id="2631" start="576" duration="22" scalar="1/1" mediaStart="680/1" mediaDuration="22/1" trackNumber="1" src="4" >
             <Transformer>
              <VectorParam id="2632"  name="translation">
               <InterpolatingParam id="2633" interp="linr"  time="-9999999/1" value="0" leadInLength="0/1"  />
               <InterpolatingParam id="2634" interp="linr"  time="-9999999/1" value="0" leadInLength="0/1"  />
               <InterpolatingParam id="2635" interp="linr"  time="-9999999/1" value="0" leadInLength="0/1"  />
              </VectorParam>
              <VectorParam id="2636"  name="rotation">
               <InterpolatingParam id="2637" interp="linr"  time="-9999999/1" value="0" leadInLength="0/1"  />
               <InterpolatingParam id="2638" interp="linr"  time="-9999999/1" value="0" leadInLength="0/1"  />
               <InterpolatingParam id="2639" interp="linr"  time="-9999999/1" value="0" leadInLength="0/1"  />
              </VectorParam>
              <VectorParam id="2640"  name="shear">
               <InterpolatingParam id="2641" interp="linr"  time="-9999999/1" value="0" leadInLength="0/1"  />
               <InterpolatingParam id="2642" interp="linr"  time="-9999999/1" value="0" leadInLength="0/1"  />
               <InterpolatingParam id="2643" interp="linr"  time="-9999999/1" value="0" leadInLength="0/1"  />
              </VectorParam>
              <VectorParam id="2644"  name="scale">
               <InterpolatingParam id="2645" interp="linr"  time="-9999999/1" value="1" leadInLength="0/1"  />
               <InterpolatingParam id="2646" interp="linr"  time="-9999999/1" value="1" leadInLength="0/1"  />
               <InterpolatingParam id="2647" interp="linr"  time="-9999999/1" value="1" leadInLength="0/1"  />
              </VectorParam>
              <VectorParam id="2648"  name="anchor">
               <InterpolatingParam id="2649" interp="linr"  time="0/1" value="0" leadInLength="0/1"  />
               <InterpolatingParam id="2650" interp="linr"  time="0/1" value="0" leadInLength="0/1"  />
               <InterpolatingParam id="2651" interp="linr"  time="0/1" value="0" leadInLength="0/1"  />
              </VectorParam>
             </Transformer>
             <Parameters>
              <VectorParam id="2652"  name="sourceCrop">
               <InterpolatingParam id="2653" interp="linr"  time="0/1" value="0" leadInLength="0/1"  />
               <InterpolatingParam id="2654" interp="linr"  time="0/1" value="0" leadInLength="0/1"  />
               <InterpolatingParam id="2655" interp="linr"  time="0/1" value="0" leadInLength="0/1"  />
               <InterpolatingParam id="2656" interp="linr"  time="0/1" value="0" leadInLength="0/1"  />
              </VectorParam>
              <VectorParam id="2657"  name="geometryCrop">
               <InterpolatingParam id="2658" interp="linr"  time="-9999999/1" value="0" leadInLength="0/1"  />
               <InterpolatingParam id="2659" interp="linr"  time="-9999999/1" value="0" leadInLength="0/1"  />
               <InterpolatingParam id="2660" interp="linr"  time="-9999999/1" value="0" leadInLength="0/1"  />
               <InterpolatingParam id="2661" interp="linr"  time="-9999999/1" value="0" leadInLength="0/1"  />
              </VectorParam>
              <InterpolatingParam id="2662" interp="linr"  time="-9999999/1" value="1" leadInLength="0/1"  name="opacity"/>
             </Parameters>
             <Attributes>
              <Attribute id="2663" value="" name="ident"/>
             </Attributes>
             <ExtraData>
              <Entry key="ZoomPanBin">
               <ZoomPanBin id="2664"  >
                <ZoomPanKeyframes>
                 <ZoomPanKeyframe id="2665" timeRangeEnd="-9999999/1" timeRangeDuration="0/1" interpolaterName=""  />
                </ZoomPanKeyframes>
               </ZoomPanBin>
              </Entry>
             </ExtraData>
            </VMFile>
            <MetaData>
             <entry key="WinSubProjectDisplayName" val=""/>
            </MetaData>
           </UnifiedMedia>
           <UnifiedMedia id="2666"  >
            <AMFile id="2667" start="598" duration="160" scalar="1/1" mediaStart="710/1" mediaDuration="160/1" trackNumber="2" src="4" channelNumber="0,1" >
             <Parameters>
              <InterpolatingParam id="2668" interp="linr"  time="0/1" value="1" leadInLength="0/1"  name="volume"/>
              <Parameter id="2669"  name="captions"/>
             </Parameters>
             <Attributes>
              <Attribute id="2670" value="" name="ident"/>
              <Attribute id="2671" value="44100" name="sampleRate"/>
              <Attribute id="2672" value="16" name="bitDepth"/>
              <Attribute id="2673" value="1" name="gain"/>
              <Attribute id="2674" value="0" name="mixToMono"/>
             </Attributes>
            </AMFile>
            <VMFile id="2675" start="598" duration="160" scalar="1/1" mediaStart="710/1" mediaDuration="160/1" trackNumber="1" src="4" >
             <Transformer>
              <VectorParam id="2676"  name="translation">
               <InterpolatingParam id="2677" interp="linr"  time="-9999999/1" value="0" leadInLength="0/1"  />
               <InterpolatingParam id="2678" interp="linr"  time="-9999999/1" value="0" leadInLength="0/1"  />
               <InterpolatingParam id="2679" interp="linr"  time="-9999999/1" value="0" leadInLength="0/1"  />
              </VectorParam>
              <VectorParam id="2680"  name="rotation">
               <InterpolatingParam id="2681" interp="linr"  time="-9999999/1" value="0" leadInLength="0/1"  />
               <InterpolatingParam id="2682" interp="linr"  time="-9999999/1" value="0" leadInLength="0/1"  />
               <InterpolatingParam id="2683" interp="linr"  time="-9999999/1" value="0" leadInLength="0/1"  />
              </VectorParam>
              <VectorParam id="2684"  name="shear">
               <InterpolatingParam id="2685" interp="linr"  time="-9999999/1" value="0" leadInLength="0/1"  />
               <InterpolatingParam id="2686" interp="linr"  time="-9999999/1" value="0" leadInLength="0/1"  />
               <InterpolatingParam id="2687" interp="linr"  time="-9999999/1" value="0" leadInLength="0/1"  />
              </VectorParam>
              <VectorParam id="2688"  name="scale">
               <InterpolatingParam id="2689" interp="linr"  time="-9999999/1" value="1" leadInLength="0/1"  />
               <InterpolatingParam id="2690" interp="linr"  time="-9999999/1" value="1" leadInLength="0/1"  />
               <InterpolatingParam id="2691" interp="linr"  time="-9999999/1" value="1" leadInLength="0/1"  />
              </VectorParam>
              <VectorParam id="2692"  name="anchor">
               <InterpolatingParam id="2693" interp="linr"  time="0/1" value="0" leadInLength="0/1"  />
               <InterpolatingParam id="2694" interp="linr"  time="0/1" value="0" leadInLength="0/1"  />
               <InterpolatingParam id="2695" interp="linr"  time="0/1" value="0" leadInLength="0/1"  />
              </VectorParam>
             </Transformer>
             <Parameters>
              <VectorParam id="2696"  name="sourceCrop">
               <InterpolatingParam id="2697" interp="linr"  time="0/1" value="0" leadInLength="0/1"  />
               <InterpolatingParam id="2698" interp="linr"  time="0/1" value="0" leadInLength="0/1"  />
               <InterpolatingParam id="2699" interp="linr"  time="0/1" value="0" leadInLength="0/1"  />
               <InterpolatingParam id="2700" interp="linr"  time="0/1" value="0" leadInLength="0/1"  />
              </VectorParam>
              <VectorParam id="2701"  name="geometryCrop">
               <InterpolatingParam id="2702" interp="linr"  time="-9999999/1" value="0" leadInLength="0/1"  />
               <InterpolatingParam id="2703" interp="linr"  time="-9999999/1" value="0" leadInLength="0/1"  />
               <InterpolatingParam id="2704" interp="linr"  time="-9999999/1" value="0" leadInLength="0/1"  />
               <InterpolatingParam id="2705" interp="linr"  time="-9999999/1" value="0" leadInLength="0/1"  />
              </VectorParam>
              <InterpolatingParam id="2706" interp="linr"  time="-9999999/1" value="1" leadInLength="0/1"  name="opacity"/>
             </Parameters>
             <Attributes>
              <Attribute id="2707" value="" name="ident"/>
             </Attributes>
             <ExtraData>
              <Entry key="ZoomPanBin">
               <ZoomPanBin id="2708"  >
                <ZoomPanKeyframes>
                 <ZoomPanKeyframe id="2709" timeRangeEnd="-9999999/1" timeRangeDuration="0/1" interpolaterName=""  />
                </ZoomPanKeyframes>
               </ZoomPanBin>
              </Entry>
             </ExtraData>
            </VMFile>
            <MetaData>
             <entry key="WinSubProjectDisplayName" val=""/>
            </MetaData>
           </UnifiedMedia>
           <UnifiedMedia id="2710"  >
            <AMFile id="2711" start="758" duration="87" scalar="1/1" mediaStart="885/1" mediaDuration="87/1" trackNumber="2" src="4" channelNumber="0,1" >
             <Parameters>
              <InterpolatingParam id="2712" interp="linr"  time="0/1" value="1" leadInLength="0/1"  name="volume"/>
              <Parameter id="2713"  name="captions"/>
             </Parameters>
             <Attributes>
              <Attribute id="2714" value="" name="ident"/>
              <Attribute id="2715" value="44100" name="sampleRate"/>
              <Attribute id="2716" value="16" name="bitDepth"/>
              <Attribute id="2717" value="1" name="gain"/>
              <Attribute id="2718" value="0" name="mixToMono"/>
             </Attributes>
            </AMFile>
            <VMFile id="2719" start="758" duration="87" scalar="1/1" mediaStart="885/1" mediaDuration="87/1" trackNumber="1" src="4" >
             <Transformer>
              <VectorParam id="2720"  name="translation">
               <InterpolatingParam id="2721" interp="linr"  time="-9999999/1" value="0" leadInLength="0/1"  />
               <InterpolatingParam id="2722" interp="linr"  time="-9999999/1" value="0" leadInLength="0/1"  />
               <InterpolatingParam id="2723" interp="linr"  time="-9999999/1" value="0" leadInLength="0/1"  />
              </VectorParam>
              <VectorParam id="2724"  name="rotation">
               <InterpolatingParam id="2725" interp="linr"  time="-9999999/1" value="0" leadInLength="0/1"  />
               <InterpolatingParam id="2726" interp="linr"  time="-9999999/1" value="0" leadInLength="0/1"  />
               <InterpolatingParam id="2727" interp="linr"  time="-9999999/1" value="0" leadInLength="0/1"  />
              </VectorParam>
              <VectorParam id="2728"  name="shear">
               <InterpolatingParam id="2729" interp="linr"  time="-9999999/1" value="0" leadInLength="0/1"  />
               <InterpolatingParam id="2730" interp="linr"  time="-9999999/1" value="0" leadInLength="0/1"  />
               <InterpolatingParam id="2731" interp="linr"  time="-9999999/1" value="0" leadInLength="0/1"  />
              </VectorParam>
              <VectorParam id="2732"  name="scale">
               <InterpolatingParam id="2733" interp="linr"  time="-9999999/1" value="1" leadInLength="0/1"  />
               <InterpolatingParam id="2734" interp="linr"  time="-9999999/1" value="1" leadInLength="0/1"  />
               <InterpolatingParam id="2735" interp="linr"  time="-9999999/1" value="1" leadInLength="0/1"  />
              </VectorParam>
              <VectorParam id="2736"  name="anchor">
               <InterpolatingParam id="2737" interp="linr"  time="0/1" value="0" leadInLength="0/1"  />
               <InterpolatingParam id="2738" interp="linr"  time="0/1" value="0" leadInLength="0/1"  />
               <InterpolatingParam id="2739" interp="linr"  time="0/1" value="0" leadInLength="0/1"  />
              </VectorParam>
             </Transformer>
             <Parameters>
              <VectorParam id="2740"  name="sourceCrop">
               <InterpolatingParam id="2741" interp="linr"  time="0/1" value="0" leadInLength="0/1"  />
               <InterpolatingParam id="2742" interp="linr"  time="0/1" value="0" leadInLength="0/1"  />
               <InterpolatingParam id="2743" interp="linr"  time="0/1" value="0" leadInLength="0/1"  />
               <InterpolatingParam id="2744" interp="linr"  time="0/1" value="0" leadInLength="0/1"  />
              </VectorParam>
              <VectorParam id="2745"  name="geometryCrop">
               <InterpolatingParam id="2746" interp="linr"  time="-9999999/1" value="0" leadInLength="0/1"  />
               <InterpolatingParam id="2747" interp="linr"  time="-9999999/1" value="0" leadInLength="0/1"  />
               <InterpolatingParam id="2748" interp="linr"  time="-9999999/1" value="0" leadInLength="0/1"  />
               <InterpolatingParam id="2749" interp="linr"  time="-9999999/1" value="0" leadInLength="0/1"  />
              </VectorParam>
              <InterpolatingParam id="2750" interp="linr"  time="-9999999/1" value="1" leadInLength="0/1"  name="opacity"/>
             </Parameters>
             <Attributes>
              <Attribute id="2751" value="" name="ident"/>
             </Attributes>
             <ExtraData>
              <Entry key="ZoomPanBin">
               <ZoomPanBin id="2752"  >
                <ZoomPanKeyframes>
                 <ZoomPanKeyframe id="2753" timeRangeEnd="-9999999/1" timeRangeDuration="0/1" interpolaterName=""  />
                </ZoomPanKeyframes>
               </ZoomPanBin>
              </Entry>
             </ExtraData>
            </VMFile>
            <MetaData>
             <entry key="WinSubProjectDisplayName" val=""/>
            </MetaData>
           </UnifiedMedia>
           <UnifiedMedia id="2754"  >
            <AMFile id="2755" start="845" duration="254" scalar="1/1" mediaStart="1020/1" mediaDuration="254/1" trackNumber="2" src="4" channelNumber="0,1" >
             <Parameters>
              <InterpolatingParam id="2756" interp="linr"  time="0/1" value="1" leadInLength="0/1"  name="volume"/>
              <Parameter id="2757"  name="captions"/>
             </Parameters>
             <Attributes>
              <Attribute id="2758" value="" name="ident"/>
              <Attribute id="2759" value="44100" name="sampleRate"/>
              <Attribute id="2760" value="16" name="bitDepth"/>
              <Attribute id="2761" value="1" name="gain"/>
              <Attribute id="2762" value="0" name="mixToMono"/>
             </Attributes>
            </AMFile>
            <VMFile id="2763" start="845" duration="254" scalar="1/1" mediaStart="1020/1" mediaDuration="254/1" trackNumber="1" src="4" >
             <Transformer>
              <VectorParam id="2764"  name="translation">
               <InterpolatingParam id="2765" interp="linr"  time="-9999999/1" value="0" leadInLength="0/1"  />
               <InterpolatingParam id="2766" interp="linr"  time="-9999999/1" value="0" leadInLength="0/1"  />
               <InterpolatingParam id="2767" interp="linr"  time="-9999999/1" value="0" leadInLength="0/1"  />
              </VectorParam>
              <VectorParam id="2768"  name="rotation">
               <InterpolatingParam id="2769" interp="linr"  time="-9999999/1" value="0" leadInLength="0/1"  />
               <InterpolatingParam id="2770" interp="linr"  time="-9999999/1" value="0" leadInLength="0/1"  />
               <InterpolatingParam id="2771" interp="linr"  time="-9999999/1" value="0" leadInLength="0/1"  />
              </VectorParam>
              <VectorParam id="2772"  name="shear">
               <InterpolatingParam id="2773" interp="linr"  time="-9999999/1" value="0" leadInLength="0/1"  />
               <InterpolatingParam id="2774" interp="linr"  time="-9999999/1" value="0" leadInLength="0/1"  />
               <InterpolatingParam id="2775" interp="linr"  time="-9999999/1" value="0" leadInLength="0/1"  />
              </VectorParam>
              <VectorParam id="2776"  name="scale">
               <InterpolatingParam id="2777" interp="linr"  time="-9999999/1" value="1" leadInLength="0/1"  />
               <InterpolatingParam id="2778" interp="linr"  time="-9999999/1" value="1" leadInLength="0/1"  />
               <InterpolatingParam id="2779" interp="linr"  time="-9999999/1" value="1" leadInLength="0/1"  />
              </VectorParam>
              <VectorParam id="2780"  name="anchor">
               <InterpolatingParam id="2781" interp="linr"  time="0/1" value="0" leadInLength="0/1"  />
               <InterpolatingParam id="2782" interp="linr"  time="0/1" value="0" leadInLength="0/1"  />
               <InterpolatingParam id="2783" interp="linr"  time="0/1" value="0" leadInLength="0/1"  />
              </VectorParam>
             </Transformer>
             <Parameters>
              <VectorParam id="2784"  name="sourceCrop">
               <InterpolatingParam id="2785" interp="linr"  time="0/1" value="0" leadInLength="0/1"  />
               <InterpolatingParam id="2786" interp="linr"  time="0/1" value="0" leadInLength="0/1"  />
               <InterpolatingParam id="2787" interp="linr"  time="0/1" value="0" leadInLength="0/1"  />
               <InterpolatingParam id="2788" interp="linr"  time="0/1" value="0" leadInLength="0/1"  />
              </VectorParam>
              <VectorParam id="2789"  name="geometryCrop">
               <InterpolatingParam id="2790" interp="linr"  time="-9999999/1" value="0" leadInLength="0/1"  />
               <InterpolatingParam id="2791" interp="linr"  time="-9999999/1" value="0" leadInLength="0/1"  />
               <InterpolatingParam id="2792" interp="linr"  time="-9999999/1" value="0" leadInLength="0/1"  />
               <InterpolatingParam id="2793" interp="linr"  time="-9999999/1" value="0" leadInLength="0/1"  />
              </VectorParam>
              <InterpolatingParam id="2794" interp="linr"  time="-9999999/1" value="1" leadInLength="0/1"  name="opacity"/>
             </Parameters>
             <Attributes>
              <Attribute id="2795" value="" name="ident"/>
             </Attributes>
             <ExtraData>
              <Entry key="ZoomPanBin">
               <ZoomPanBin id="2796"  >
                <ZoomPanKeyframes>
                 <ZoomPanKeyframe id="2797" timeRangeEnd="-9999999/1" timeRangeDuration="0/1" interpolaterName=""  />
                </ZoomPanKeyframes>
               </ZoomPanBin>
              </Entry>
             </ExtraData>
            </VMFile>
            <MetaData>
             <entry key="WinSubProjectDisplayName" val=""/>
            </MetaData>
           </UnifiedMedia>
           <UnifiedMedia id="2798"  >
            <AMFile id="2799" start="1099" duration="60" scalar="1/1" mediaStart="1302/1" mediaDuration="60/1" trackNumber="2" src="4" channelNumber="0,1" >
             <Parameters>
              <InterpolatingParam id="2800" interp="linr"  time="0/1" value="1" leadInLength="0/1"  name="volume"/>
              <Parameter id="2801"  name="captions"/>
             </Parameters>
             <Attributes>
              <Attribute id="2802" value="" name="ident"/>
              <Attribute id="2803" value="44100" name="sampleRate"/>
              <Attribute id="2804" value="16" name="bitDepth"/>
              <Attribute id="2805" value="1" name="gain"/>
              <Attribute id="2806" value="0" name="mixToMono"/>
             </Attributes>
            </AMFile>
            <VMFile id="2807" start="1099" duration="60" scalar="1/1" mediaStart="1302/1" mediaDuration="60/1" trackNumber="1" src="4" >
             <Transformer>
              <VectorParam id="2808"  name="translation">
               <InterpolatingParam id="2809" interp="linr"  time="-9999999/1" value="0" leadInLength="0/1"  />
               <InterpolatingParam id="2810" interp="linr"  time="-9999999/1" value="0" leadInLength="0/1"  />
               <InterpolatingParam id="2811" interp="linr"  time="-9999999/1" value="0" leadInLength="0/1"  />
              </VectorParam>
              <VectorParam id="2812"  name="rotation">
               <InterpolatingParam id="2813" interp="linr"  time="-9999999/1" value="0" leadInLength="0/1"  />
               <InterpolatingParam id="2814" interp="linr"  time="-9999999/1" value="0" leadInLength="0/1"  />
               <InterpolatingParam id="2815" interp="linr"  time="-9999999/1" value="0" leadInLength="0/1"  />
              </VectorParam>
              <VectorParam id="2816"  name="shear">
               <InterpolatingParam id="2817" interp="linr"  time="-9999999/1" value="0" leadInLength="0/1"  />
               <InterpolatingParam id="2818" interp="linr"  time="-9999999/1" value="0" leadInLength="0/1"  />
               <InterpolatingParam id="2819" interp="linr"  time="-9999999/1" value="0" leadInLength="0/1"  />
              </VectorParam>
              <VectorParam id="2820"  name="scale">
               <InterpolatingParam id="2821" interp="linr"  time="-9999999/1" value="1" leadInLength="0/1"  />
               <InterpolatingParam id="2822" interp="linr"  time="-9999999/1" value="1" leadInLength="0/1"  />
               <InterpolatingParam id="2823" interp="linr"  time="-9999999/1" value="1" leadInLength="0/1"  />
              </VectorParam>
              <VectorParam id="2824"  name="anchor">
               <InterpolatingParam id="2825" interp="linr"  time="0/1" value="0" leadInLength="0/1"  />
               <InterpolatingParam id="2826" interp="linr"  time="0/1" value="0" leadInLength="0/1"  />
               <InterpolatingParam id="2827" interp="linr"  time="0/1" value="0" leadInLength="0/1"  />
              </VectorParam>
             </Transformer>
             <Parameters>
              <VectorParam id="2828"  name="sourceCrop">
               <InterpolatingParam id="2829" interp="linr"  time="0/1" value="0" leadInLength="0/1"  />
               <InterpolatingParam id="2830" interp="linr"  time="0/1" value="0" leadInLength="0/1"  />
               <InterpolatingParam id="2831" interp="linr"  time="0/1" value="0" leadInLength="0/1"  />
               <InterpolatingParam id="2832" interp="linr"  time="0/1" value="0" leadInLength="0/1"  />
              </VectorParam>
              <VectorParam id="2833"  name="geometryCrop">
               <InterpolatingParam id="2834" interp="linr"  time="-9999999/1" value="0" leadInLength="0/1"  />
               <InterpolatingParam id="2835" interp="linr"  time="-9999999/1" value="0" leadInLength="0/1"  />
               <InterpolatingParam id="2836" interp="linr"  time="-9999999/1" value="0" leadInLength="0/1"  />
               <InterpolatingParam id="2837" interp="linr"  time="-9999999/1" value="0" leadInLength="0/1"  />
              </VectorParam>
              <InterpolatingParam id="2838" interp="linr"  time="-9999999/1" value="1" leadInLength="0/1"  name="opacity"/>
             </Parameters>
             <Attributes>
              <Attribute id="2839" value="" name="ident"/>
             </Attributes>
             <ExtraData>
              <Entry key="ZoomPanBin">
               <ZoomPanBin id="2840"  >
                <ZoomPanKeyframes>
                 <ZoomPanKeyframe id="2841" timeRangeEnd="-9999999/1" timeRangeDuration="0/1" interpolaterName=""  />
                </ZoomPanKeyframes>
               </ZoomPanBin>
              </Entry>
             </ExtraData>
            </VMFile>
            <MetaData>
             <entry key="WinSubProjectDisplayName" val=""/>
            </MetaData>
           </UnifiedMedia>
           <UnifiedMedia id="2842"  >
            <AMFile id="2843" start="1159" duration="135" scalar="1/1" mediaStart="1370/1" mediaDuration="135/1" trackNumber="2" src="4" channelNumber="0,1" >
             <Parameters>
              <InterpolatingParam id="2844" interp="linr"  time="0/1" value="1" leadInLength="0/1"  name="volume"/>
              <Parameter id="2845"  name="captions"/>
             </Parameters>
             <Attributes>
              <Attribute id="2846" value="" name="ident"/>
              <Attribute id="2847" value="44100" name="sampleRate"/>
              <Attribute id="2848" value="16" name="bitDepth"/>
              <Attribute id="2849" value="1" name="gain"/>
              <Attribute id="2850" value="0" name="mixToMono"/>
             </Attributes>
            </AMFile>
            <VMFile id="2851" start="1159" duration="135" scalar="1/1" mediaStart="1370/1" mediaDuration="135/1" trackNumber="1" src="4" >
             <Transformer>
              <VectorParam id="2852"  name="translation">
               <InterpolatingParam id="2853" interp="linr"  time="-9999999/1" value="0" leadInLength="0/1"  />
               <InterpolatingParam id="2854" interp="linr"  time="-9999999/1" value="0" leadInLength="0/1"  />
               <InterpolatingParam id="2855" interp="linr"  time="-9999999/1" value="0" leadInLength="0/1"  />
              </VectorParam>
              <VectorParam id="2856"  name="rotation">
               <InterpolatingParam id="2857" interp="linr"  time="-9999999/1" value="0" leadInLength="0/1"  />
               <InterpolatingParam id="2858" interp="linr"  time="-9999999/1" value="0" leadInLength="0/1"  />
               <InterpolatingParam id="2859" interp="linr"  time="-9999999/1" value="0" leadInLength="0/1"  />
              </VectorParam>
              <VectorParam id="2860"  name="shear">
               <InterpolatingParam id="2861" interp="linr"  time="-9999999/1" value="0" leadInLength="0/1"  />
               <InterpolatingParam id="2862" interp="linr"  time="-9999999/1" value="0" leadInLength="0/1"  />
               <InterpolatingParam id="2863" interp="linr"  time="-9999999/1" value="0" leadInLength="0/1"  />
              </VectorParam>
              <VectorParam id="2864"  name="scale">
               <InterpolatingParam id="2865" interp="linr"  time="-9999999/1" value="1" leadInLength="0/1"  />
               <InterpolatingParam id="2866" interp="linr"  time="-9999999/1" value="1" leadInLength="0/1"  />
               <InterpolatingParam id="2867" interp="linr"  time="-9999999/1" value="1" leadInLength="0/1"  />
              </VectorParam>
              <VectorParam id="2868"  name="anchor">
               <InterpolatingParam id="2869" interp="linr"  time="0/1" value="0" leadInLength="0/1"  />
               <InterpolatingParam id="2870" interp="linr"  time="0/1" value="0" leadInLength="0/1"  />
               <InterpolatingParam id="2871" interp="linr"  time="0/1" value="0" leadInLength="0/1"  />
              </VectorParam>
             </Transformer>
             <Parameters>
              <VectorParam id="2872"  name="sourceCrop">
               <InterpolatingParam id="2873" interp="linr"  time="0/1" value="0" leadInLength="0/1"  />
               <InterpolatingParam id="2874" interp="linr"  time="0/1" value="0" leadInLength="0/1"  />
               <InterpolatingParam id="2875" interp="linr"  time="0/1" value="0" leadInLength="0/1"  />
               <InterpolatingParam id="2876" interp="linr"  time="0/1" value="0" leadInLength="0/1"  />
              </VectorParam>
              <VectorParam id="2877"  name="geometryCrop">
               <InterpolatingParam id="2878" interp="linr"  time="-9999999/1" value="0" leadInLength="0/1"  />
               <InterpolatingParam id="2879" interp="linr"  time="-9999999/1" value="0" leadInLength="0/1"  />
               <InterpolatingParam id="2880" interp="linr"  time="-9999999/1" value="0" leadInLength="0/1"  />
               <InterpolatingParam id="2881" interp="linr"  time="-9999999/1" value="0" leadInLength="0/1"  />
              </VectorParam>
              <InterpolatingParam id="2882" interp="linr"  time="-9999999/1" value="1" leadInLength="0/1"  name="opacity"/>
             </Parameters>
             <Attributes>
              <Attribute id="2883" value="" name="ident"/>
             </Attributes>
             <ExtraData>
              <Entry key="ZoomPanBin">
               <ZoomPanBin id="2884"  >
                <ZoomPanKeyframes>
                 <ZoomPanKeyframe id="2885" timeRangeEnd="-9999999/1" timeRangeDuration="0/1" interpolaterName=""  />
                </ZoomPanKeyframes>
               </ZoomPanBin>
              </Entry>
             </ExtraData>
            </VMFile>
            <MetaData>
             <entry key="WinSubProjectDisplayName" val=""/>
            </MetaData>
           </UnifiedMedia>
           <UnifiedMedia id="2886"  >
            <AMFile id="2887" start="1294" duration="88" scalar="1/1" mediaStart="1520/1" mediaDuration="88/1" trackNumber="2" src="4" channelNumber="0,1" >
             <Parameters>
              <InterpolatingParam id="2888" interp="linr"  time="0/1" value="1" leadInLength="0/1"  name="volume"/>
              <Parameter id="2889"  name="captions"/>
             </Parameters>
             <Attributes>
              <Attribute id="2890" value="" name="ident"/>
              <Attribute id="2891" value="44100" name="sampleRate"/>
              <Attribute id="2892" value="16" name="bitDepth"/>
              <Attribute id="2893" value="1" name="gain"/>
              <Attribute id="2894" value="0" name="mixToMono"/>
             </Attributes>
            </AMFile>
            <VMFile id="2895" start="1294" duration="88" scalar="1/1" mediaStart="1520/1" mediaDuration="88/1" trackNumber="1" src="4" >
             <Transformer>
              <VectorParam id="2896"  name="translation">
               <InterpolatingParam id="2897" interp="linr"  time="-9999999/1" value="0" leadInLength="0/1"  />
               <InterpolatingParam id="2898" interp="linr"  time="-9999999/1" value="0" leadInLength="0/1"  />
               <InterpolatingParam id="2899" interp="linr"  time="-9999999/1" value="0" leadInLength="0/1"  />
              </VectorParam>
              <VectorParam id="2900"  name="rotation">
               <InterpolatingParam id="2901" interp="linr"  time="-9999999/1" value="0" leadInLength="0/1"  />
               <InterpolatingParam id="2902" interp="linr"  time="-9999999/1" value="0" leadInLength="0/1"  />
               <InterpolatingParam id="2903" interp="linr"  time="-9999999/1" value="0" leadInLength="0/1"  />
              </VectorParam>
              <VectorParam id="2904"  name="shear">
               <InterpolatingParam id="2905" interp="linr"  time="-9999999/1" value="0" leadInLength="0/1"  />
               <InterpolatingParam id="2906" interp="linr"  time="-9999999/1" value="0" leadInLength="0/1"  />
               <InterpolatingParam id="2907" interp="linr"  time="-9999999/1" value="0" leadInLength="0/1"  />
              </VectorParam>
              <VectorParam id="2908"  name="scale">
               <InterpolatingParam id="2909" interp="linr"  time="-9999999/1" value="1" leadInLength="0/1"  />
               <InterpolatingParam id="2910" interp="linr"  time="-9999999/1" value="1" leadInLength="0/1"  />
               <InterpolatingParam id="2911" interp="linr"  time="-9999999/1" value="1" leadInLength="0/1"  />
              </VectorParam>
              <VectorParam id="2912"  name="anchor">
               <InterpolatingParam id="2913" interp="linr"  time="0/1" value="0" leadInLength="0/1"  />
               <InterpolatingParam id="2914" interp="linr"  time="0/1" value="0" leadInLength="0/1"  />
               <InterpolatingParam id="2915" interp="linr"  time="0/1" value="0" leadInLength="0/1"  />
              </VectorParam>
             </Transformer>
             <Parameters>
              <VectorParam id="2916"  name="sourceCrop">
               <InterpolatingParam id="2917" interp="linr"  time="0/1" value="0" leadInLength="0/1"  />
               <InterpolatingParam id="2918" interp="linr"  time="0/1" value="0" leadInLength="0/1"  />
               <InterpolatingParam id="2919" interp="linr"  time="0/1" value="0" leadInLength="0/1"  />
               <InterpolatingParam id="2920" interp="linr"  time="0/1" value="0" leadInLength="0/1"  />
              </VectorParam>
              <VectorParam id="2921"  name="geometryCrop">
               <InterpolatingParam id="2922" interp="linr"  time="-9999999/1" value="0" leadInLength="0/1"  />
               <InterpolatingParam id="2923" interp="linr"  time="-9999999/1" value="0" leadInLength="0/1"  />
               <InterpolatingParam id="2924" interp="linr"  time="-9999999/1" value="0" leadInLength="0/1"  />
               <InterpolatingParam id="2925" interp="linr"  time="-9999999/1" value="0" leadInLength="0/1"  />
              </VectorParam>
              <InterpolatingParam id="2926" interp="linr"  time="-9999999/1" value="1" leadInLength="0/1"  name="opacity"/>
             </Parameters>
             <Attributes>
              <Attribute id="2927" value="" name="ident"/>
             </Attributes>
             <ExtraData>
              <Entry key="ZoomPanBin">
               <ZoomPanBin id="2928"  >
                <ZoomPanKeyframes>
                 <ZoomPanKeyframe id="2929" timeRangeEnd="-9999999/1" timeRangeDuration="0/1" interpolaterName=""  />
                </ZoomPanKeyframes>
               </ZoomPanBin>
              </Entry>
             </ExtraData>
            </VMFile>
            <MetaData>
             <entry key="WinSubProjectDisplayName" val=""/>
            </MetaData>
           </UnifiedMedia>
           <UnifiedMedia id="2930"  >
            <AMFile id="2931" start="1382" duration="15" scalar="1/1" mediaStart="1629/1" mediaDuration="15/1" trackNumber="2" src="4" channelNumber="0,1" >
             <Parameters>
              <InterpolatingParam id="2932" interp="linr"  time="0/1" value="1" leadInLength="0/1"  name="volume"/>
              <Parameter id="2933"  name="captions"/>
             </Parameters>
             <Attributes>
              <Attribute id="2934" value="" name="ident"/>
              <Attribute id="2935" value="44100" name="sampleRate"/>
              <Attribute id="2936" value="16" name="bitDepth"/>
              <Attribute id="2937" value="1" name="gain"/>
              <Attribute id="2938" value="0" name="mixToMono"/>
             </Attributes>
            </AMFile>
            <VMFile id="2939" start="1382" duration="15" scalar="1/1" mediaStart="1629/1" mediaDuration="15/1" trackNumber="1" src="4" >
             <Transformer>
              <VectorParam id="2940"  name="translation">
               <InterpolatingParam id="2941" interp="linr"  time="-9999999/1" value="0" leadInLength="0/1"  />
               <InterpolatingParam id="2942" interp="linr"  time="-9999999/1" value="0" leadInLength="0/1"  />
               <InterpolatingParam id="2943" interp="linr"  time="-9999999/1" value="0" leadInLength="0/1"  />
              </VectorParam>
              <VectorParam id="2944"  name="rotation">
               <InterpolatingParam id="2945" interp="linr"  time="-9999999/1" value="0" leadInLength="0/1"  />
               <InterpolatingParam id="2946" interp="linr"  time="-9999999/1" value="0" leadInLength="0/1"  />
               <InterpolatingParam id="2947" interp="linr"  time="-9999999/1" value="0" leadInLength="0/1"  />
              </VectorParam>
              <VectorParam id="2948"  name="shear">
               <InterpolatingParam id="2949" interp="linr"  time="-9999999/1" value="0" leadInLength="0/1"  />
               <InterpolatingParam id="2950" interp="linr"  time="-9999999/1" value="0" leadInLength="0/1"  />
               <InterpolatingParam id="2951" interp="linr"  time="-9999999/1" value="0" leadInLength="0/1"  />
              </VectorParam>
              <VectorParam id="2952"  name="scale">
               <InterpolatingParam id="2953" interp="linr"  time="-9999999/1" value="1" leadInLength="0/1"  />
               <InterpolatingParam id="2954" interp="linr"  time="-9999999/1" value="1" leadInLength="0/1"  />
               <InterpolatingParam id="2955" interp="linr"  time="-9999999/1" value="1" leadInLength="0/1"  />
              </VectorParam>
              <VectorParam id="2956"  name="anchor">
               <InterpolatingParam id="2957" interp="linr"  time="0/1" value="0" leadInLength="0/1"  />
               <InterpolatingParam id="2958" interp="linr"  time="0/1" value="0" leadInLength="0/1"  />
               <InterpolatingParam id="2959" interp="linr"  time="0/1" value="0" leadInLength="0/1"  />
              </VectorParam>
             </Transformer>
             <Parameters>
              <VectorParam id="2960"  name="sourceCrop">
               <InterpolatingParam id="2961" interp="linr"  time="0/1" value="0" leadInLength="0/1"  />
               <InterpolatingParam id="2962" interp="linr"  time="0/1" value="0" leadInLength="0/1"  />
               <InterpolatingParam id="2963" interp="linr"  time="0/1" value="0" leadInLength="0/1"  />
               <InterpolatingParam id="2964" interp="linr"  time="0/1" value="0" leadInLength="0/1"  />
              </VectorParam>
              <VectorParam id="2965"  name="geometryCrop">
               <InterpolatingParam id="2966" interp="linr"  time="-9999999/1" value="0" leadInLength="0/1"  />
               <InterpolatingParam id="2967" interp="linr"  time="-9999999/1" value="0" leadInLength="0/1"  />
               <InterpolatingParam id="2968" interp="linr"  time="-9999999/1" value="0" leadInLength="0/1"  />
               <InterpolatingParam id="2969" interp="linr"  time="-9999999/1" value="0" leadInLength="0/1"  />
              </VectorParam>
              <InterpolatingParam id="2970" interp="linr"  time="-9999999/1" value="1" leadInLength="0/1"  name="opacity"/>
             </Parameters>
             <Attributes>
              <Attribute id="2971" value="" name="ident"/>
             </Attributes>
             <ExtraData>
              <Entry key="ZoomPanBin">
               <ZoomPanBin id="2972"  >
                <ZoomPanKeyframes>
                 <ZoomPanKeyframe id="2973" timeRangeEnd="-9999999/1" timeRangeDuration="0/1" interpolaterName=""  />
                </ZoomPanKeyframes>
               </ZoomPanBin>
              </Entry>
             </ExtraData>
            </VMFile>
            <MetaData>
             <entry key="WinSubProjectDisplayName" val=""/>
            </MetaData>
           </UnifiedMedia>
           <UnifiedMedia id="2974"  >
            <AMFile id="2975" start="1397" duration="1" scalar="1/1" mediaStart="1767/1" mediaDuration="1/1" trackNumber="2" src="4" channelNumber="0,1" >
             <Parameters>
              <InterpolatingParam id="2976" interp="linr"  time="0/1" value="1" leadInLength="0/1"  name="volume"/>
              <Parameter id="2977"  name="captions"/>
             </Parameters>
             <Attributes>
              <Attribute id="2978" value="" name="ident"/>
              <Attribute id="2979" value="44100" name="sampleRate"/>
              <Attribute id="2980" value="16" name="bitDepth"/>
              <Attribute id="2981" value="1" name="gain"/>
              <Attribute id="2982" value="0" name="mixToMono"/>
             </Attributes>
            </AMFile>
            <VMFile id="2983" start="1397" duration="1" scalar="1/1" mediaStart="1767/1" mediaDuration="1/1" trackNumber="1" src="4" >
             <Transformer>
              <VectorParam id="2984"  name="translation">
               <InterpolatingParam id="2985" interp="linr"  time="-9999999/1" value="0" leadInLength="0/1"  />
               <InterpolatingParam id="2986" interp="linr"  time="-9999999/1" value="0" leadInLength="0/1"  />
               <InterpolatingParam id="2987" interp="linr"  time="-9999999/1" value="0" leadInLength="0/1"  />
              </VectorParam>
              <VectorParam id="2988"  name="rotation">
               <InterpolatingParam id="2989" interp="linr"  time="-9999999/1" value="0" leadInLength="0/1"  />
               <InterpolatingParam id="2990" interp="linr"  time="-9999999/1" value="0" leadInLength="0/1"  />
               <InterpolatingParam id="2991" interp="linr"  time="-9999999/1" value="0" leadInLength="0/1"  />
              </VectorParam>
              <VectorParam id="2992"  name="shear">
               <InterpolatingParam id="2993" interp="linr"  time="-9999999/1" value="0" leadInLength="0/1"  />
               <InterpolatingParam id="2994" interp="linr"  time="-9999999/1" value="0" leadInLength="0/1"  />
               <InterpolatingParam id="2995" interp="linr"  time="-9999999/1" value="0" leadInLength="0/1"  />
              </VectorParam>
              <VectorParam id="2996"  name="scale">
               <InterpolatingParam id="2997" interp="linr"  time="-9999999/1" value="1" leadInLength="0/1"  />
               <InterpolatingParam id="2998" interp="linr"  time="-9999999/1" value="1" leadInLength="0/1"  />
               <InterpolatingParam id="2999" interp="linr"  time="-9999999/1" value="1" leadInLength="0/1"  />
              </VectorParam>
              <VectorParam id="3000"  name="anchor">
               <InterpolatingParam id="3001" interp="linr"  time="0/1" value="0" leadInLength="0/1"  />
               <InterpolatingParam id="3002" interp="linr"  time="0/1" value="0" leadInLength="0/1"  />
               <InterpolatingParam id="3003" interp="linr"  time="0/1" value="0" leadInLength="0/1"  />
              </VectorParam>
             </Transformer>
             <Parameters>
              <VectorParam id="3004"  name="sourceCrop">
               <InterpolatingParam id="3005" interp="linr"  time="0/1" value="0" leadInLength="0/1"  />
               <InterpolatingParam id="3006" interp="linr"  time="0/1" value="0" leadInLength="0/1"  />
               <InterpolatingParam id="3007" interp="linr"  time="0/1" value="0" leadInLength="0/1"  />
               <InterpolatingParam id="3008" interp="linr"  time="0/1" value="0" leadInLength="0/1"  />
              </VectorParam>
              <VectorParam id="3009"  name="geometryCrop">
               <InterpolatingParam id="3010" interp="linr"  time="-9999999/1" value="0" leadInLength="0/1"  />
               <InterpolatingParam id="3011" interp="linr"  time="-9999999/1" value="0" leadInLength="0/1"  />
               <InterpolatingParam id="3012" interp="linr"  time="-9999999/1" value="0" leadInLength="0/1"  />
               <InterpolatingParam id="3013" interp="linr"  time="-9999999/1" value="0" leadInLength="0/1"  />
              </VectorParam>
              <InterpolatingParam id="3014" interp="linr"  time="-9999999/1" value="1" leadInLength="0/1"  name="opacity"/>
             </Parameters>
             <Attributes>
              <Attribute id="3015" value="" name="ident"/>
             </Attributes>
             <ExtraData>
              <Entry key="ZoomPanBin">
               <ZoomPanBin id="3016"  >
                <ZoomPanKeyframes>
                 <ZoomPanKeyframe id="3017" timeRangeEnd="-9999999/1" timeRangeDuration="0/1" interpolaterName=""  />
                </ZoomPanKeyframes>
               </ZoomPanBin>
              </Entry>
             </ExtraData>
            </VMFile>
            <MetaData>
             <entry key="WinSubProjectDisplayName" val=""/>
            </MetaData>
           </UnifiedMedia>
           <UnifiedMedia id="3018"  >
            <AMFile id="3019" start="1398" duration="70" scalar="1/1" mediaStart="1885/1" mediaDuration="70/1" trackNumber="2" src="4" channelNumber="0,1" >
             <Parameters>
              <InterpolatingParam id="3020" interp="linr"  time="0/1" value="1" leadInLength="0/1"  name="volume"/>
              <Parameter id="3021"  name="captions"/>
             </Parameters>
             <Attributes>
              <Attribute id="3022" value="" name="ident"/>
              <Attribute id="3023" value="44100" name="sampleRate"/>
              <Attribute id="3024" value="16" name="bitDepth"/>
              <Attribute id="3025" value="1" name="gain"/>
              <Attribute id="3026" value="0" name="mixToMono"/>
             </Attributes>
            </AMFile>
            <VMFile id="3027" start="1398" duration="70" scalar="1/1" mediaStart="1885/1" mediaDuration="70/1" trackNumber="1" src="4" >
             <Transformer>
              <VectorParam id="3028"  name="translation">
               <InterpolatingParam id="3029" interp="linr"  time="-9999999/1" value="0" leadInLength="0/1"  />
               <InterpolatingParam id="3030" interp="linr"  time="-9999999/1" value="0" leadInLength="0/1"  />
               <InterpolatingParam id="3031" interp="linr"  time="-9999999/1" value="0" leadInLength="0/1"  />
              </VectorParam>
              <VectorParam id="3032"  name="rotation">
               <InterpolatingParam id="3033" interp="linr"  time="-9999999/1" value="0" leadInLength="0/1"  />
               <InterpolatingParam id="3034" interp="linr"  time="-9999999/1" value="0" leadInLength="0/1"  />
               <InterpolatingParam id="3035" interp="linr"  time="-9999999/1" value="0" leadInLength="0/1"  />
              </VectorParam>
              <VectorParam id="3036"  name="shear">
               <InterpolatingParam id="3037" interp="linr"  time="-9999999/1" value="0" leadInLength="0/1"  />
               <InterpolatingParam id="3038" interp="linr"  time="-9999999/1" value="0" leadInLength="0/1"  />
               <InterpolatingParam id="3039" interp="linr"  time="-9999999/1" value="0" leadInLength="0/1"  />
              </VectorParam>
              <VectorParam id="3040"  name="scale">
               <InterpolatingParam id="3041" interp="linr"  time="-9999999/1" value="1" leadInLength="0/1"  />
               <InterpolatingParam id="3042" interp="linr"  time="-9999999/1" value="1" leadInLength="0/1"  />
               <InterpolatingParam id="3043" interp="linr"  time="-9999999/1" value="1" leadInLength="0/1"  />
              </VectorParam>
              <VectorParam id="3044"  name="anchor">
               <InterpolatingParam id="3045" interp="linr"  time="0/1" value="0" leadInLength="0/1"  />
               <InterpolatingParam id="3046" interp="linr"  time="0/1" value="0" leadInLength="0/1"  />
               <InterpolatingParam id="3047" interp="linr"  time="0/1" value="0" leadInLength="0/1"  />
              </VectorParam>
             </Transformer>
             <Parameters>
              <VectorParam id="3048"  name="sourceCrop">
               <InterpolatingParam id="3049" interp="linr"  time="0/1" value="0" leadInLength="0/1"  />
               <InterpolatingParam id="3050" interp="linr"  time="0/1" value="0" leadInLength="0/1"  />
               <InterpolatingParam id="3051" interp="linr"  time="0/1" value="0" leadInLength="0/1"  />
               <InterpolatingParam id="3052" interp="linr"  time="0/1" value="0" leadInLength="0/1"  />
              </VectorParam>
              <VectorParam id="3053"  name="geometryCrop">
               <InterpolatingParam id="3054" interp="linr"  time="-9999999/1" value="0" leadInLength="0/1"  />
               <InterpolatingParam id="3055" interp="linr"  time="-9999999/1" value="0" leadInLength="0/1"  />
               <InterpolatingParam id="3056" interp="linr"  time="-9999999/1" value="0" leadInLength="0/1"  />
               <InterpolatingParam id="3057" interp="linr"  time="-9999999/1" value="0" leadInLength="0/1"  />
              </VectorParam>
              <InterpolatingParam id="3058" interp="linr"  time="-9999999/1" value="1" leadInLength="0/1"  name="opacity"/>
             </Parameters>
             <Attributes>
              <Attribute id="3059" value="" name="ident"/>
             </Attributes>
             <ExtraData>
              <Entry key="ZoomPanBin">
               <ZoomPanBin id="3060"  >
                <ZoomPanKeyframes>
                 <ZoomPanKeyframe id="3061" timeRangeEnd="-9999999/1" timeRangeDuration="0/1" interpolaterName=""  />
                </ZoomPanKeyframes>
               </ZoomPanBin>
              </Entry>
             </ExtraData>
            </VMFile>
            <MetaData>
             <entry key="WinSubProjectDisplayName" val=""/>
            </MetaData>
           </UnifiedMedia>
           <UnifiedMedia id="3062"  >
            <AMFile id="3063" start="1468" duration="317" scalar="1/1" mediaStart="1987/1" mediaDuration="317/1" trackNumber="2" src="4" channelNumber="0,1" >
             <Parameters>
              <InterpolatingParam id="3064" interp="linr"  time="0/1" value="1" leadInLength="0/1"  name="volume"/>
              <Parameter id="3065"  name="captions"/>
             </Parameters>
             <Attributes>
              <Attribute id="3066" value="" name="ident"/>
              <Attribute id="3067" value="44100" name="sampleRate"/>
              <Attribute id="3068" value="16" name="bitDepth"/>
              <Attribute id="3069" value="1" name="gain"/>
              <Attribute id="3070" value="0" name="mixToMono"/>
             </Attributes>
            </AMFile>
            <VMFile id="3071" start="1468" duration="317" scalar="1/1" mediaStart="1987/1" mediaDuration="317/1" trackNumber="1" src="4" >
             <Transformer>
              <VectorParam id="3072"  name="translation">
               <InterpolatingParam id="3073" interp="linr"  time="-9999999/1" value="0" leadInLength="0/1"  />
               <InterpolatingParam id="3074" interp="linr"  time="-9999999/1" value="0" leadInLength="0/1"  />
               <InterpolatingParam id="3075" interp="linr"  time="-9999999/1" value="0" leadInLength="0/1"  />
              </VectorParam>
              <VectorParam id="3076"  name="rotation">
               <InterpolatingParam id="3077" interp="linr"  time="-9999999/1" value="0" leadInLength="0/1"  />
               <InterpolatingParam id="3078" interp="linr"  time="-9999999/1" value="0" leadInLength="0/1"  />
               <InterpolatingParam id="3079" interp="linr"  time="-9999999/1" value="0" leadInLength="0/1"  />
              </VectorParam>
              <VectorParam id="3080"  name="shear">
               <InterpolatingParam id="3081" interp="linr"  time="-9999999/1" value="0" leadInLength="0/1"  />
               <InterpolatingParam id="3082" interp="linr"  time="-9999999/1" value="0" leadInLength="0/1"  />
               <InterpolatingParam id="3083" interp="linr"  time="-9999999/1" value="0" leadInLength="0/1"  />
              </VectorParam>
              <VectorParam id="3084"  name="scale">
               <InterpolatingParam id="3085" interp="linr"  time="-9999999/1" value="1" leadInLength="0/1"  />
               <InterpolatingParam id="3086" interp="linr"  time="-9999999/1" value="1" leadInLength="0/1"  />
               <InterpolatingParam id="3087" interp="linr"  time="-9999999/1" value="1" leadInLength="0/1"  />
              </VectorParam>
              <VectorParam id="3088"  name="anchor">
               <InterpolatingParam id="3089" interp="linr"  time="0/1" value="0" leadInLength="0/1"  />
               <InterpolatingParam id="3090" interp="linr"  time="0/1" value="0" leadInLength="0/1"  />
               <InterpolatingParam id="3091" interp="linr"  time="0/1" value="0" leadInLength="0/1"  />
              </VectorParam>
             </Transformer>
             <Parameters>
              <VectorParam id="3092"  name="sourceCrop">
               <InterpolatingParam id="3093" interp="linr"  time="0/1" value="0" leadInLength="0/1"  />
               <InterpolatingParam id="3094" interp="linr"  time="0/1" value="0" leadInLength="0/1"  />
               <InterpolatingParam id="3095" interp="linr"  time="0/1" value="0" leadInLength="0/1"  />
               <InterpolatingParam id="3096" interp="linr"  time="0/1" value="0" leadInLength="0/1"  />
              </VectorParam>
              <VectorParam id="3097"  name="geometryCrop">
               <InterpolatingParam id="3098" interp="linr"  time="-9999999/1" value="0" leadInLength="0/1"  />
               <InterpolatingParam id="3099" interp="linr"  time="-9999999/1" value="0" leadInLength="0/1"  />
               <InterpolatingParam id="3100" interp="linr"  time="-9999999/1" value="0" leadInLength="0/1"  />
               <InterpolatingParam id="3101" interp="linr"  time="-9999999/1" value="0" leadInLength="0/1"  />
              </VectorParam>
              <InterpolatingParam id="3102" interp="linr"  time="-9999999/1" value="1" leadInLength="0/1"  name="opacity"/>
             </Parameters>
             <Attributes>
              <Attribute id="3103" value="" name="ident"/>
             </Attributes>
             <ExtraData>
              <Entry key="ZoomPanBin">
               <ZoomPanBin id="3104"  >
                <ZoomPanKeyframes>
                 <ZoomPanKeyframe id="3105" timeRangeEnd="-9999999/1" timeRangeDuration="0/1" interpolaterName=""  />
                </ZoomPanKeyframes>
               </ZoomPanBin>
              </Entry>
             </ExtraData>
            </VMFile>
            <MetaData>
             <entry key="WinSubProjectDisplayName" val=""/>
            </MetaData>
           </UnifiedMedia>
           <UnifiedMedia id="3106"  >
            <AMFile id="3107" start="1785" duration="115" scalar="1/1" mediaStart="2350/1" mediaDuration="115/1" trackNumber="2" src="4" channelNumber="0,1" >
             <Parameters>
              <InterpolatingParam id="3108" interp="linr"  time="0/1" value="1" leadInLength="0/1"  name="volume"/>
              <Parameter id="3109"  name="captions"/>
             </Parameters>
             <Attributes>
              <Attribute id="3110" value="" name="ident"/>
              <Attribute id="3111" value="44100" name="sampleRate"/>
              <Attribute id="3112" value="16" name="bitDepth"/>
              <Attribute id="3113" value="1" name="gain"/>
              <Attribute id="3114" value="0" name="mixToMono"/>
             </Attributes>
            </AMFile>
            <VMFile id="3115" start="1785" duration="115" scalar="1/1" mediaStart="2350/1" mediaDuration="115/1" trackNumber="1" src="4" >
             <Transformer>
              <VectorParam id="3116"  name="translation">
               <InterpolatingParam id="3117" interp="linr"  time="-9999999/1" value="0" leadInLength="0/1"  />
               <InterpolatingParam id="3118" interp="linr"  time="-9999999/1" value="0" leadInLength="0/1"  />
               <InterpolatingParam id="3119" interp="linr"  time="-9999999/1" value="0" leadInLength="0/1"  />
              </VectorParam>
              <VectorParam id="3120"  name="rotation">
               <InterpolatingParam id="3121" interp="linr"  time="-9999999/1" value="0" leadInLength="0/1"  />
               <InterpolatingParam id="3122" interp="linr"  time="-9999999/1" value="0" leadInLength="0/1"  />
               <InterpolatingParam id="3123" interp="linr"  time="-9999999/1" value="0" leadInLength="0/1"  />
              </VectorParam>
              <VectorParam id="3124"  name="shear">
               <InterpolatingParam id="3125" interp="linr"  time="-9999999/1" value="0" leadInLength="0/1"  />
               <InterpolatingParam id="3126" interp="linr"  time="-9999999/1" value="0" leadInLength="0/1"  />
               <InterpolatingParam id="3127" interp="linr"  time="-9999999/1" value="0" leadInLength="0/1"  />
              </VectorParam>
              <VectorParam id="3128"  name="scale">
               <InterpolatingParam id="3129" interp="linr"  time="-9999999/1" value="1" leadInLength="0/1"  />
               <InterpolatingParam id="3130" interp="linr"  time="-9999999/1" value="1" leadInLength="0/1"  />
               <InterpolatingParam id="3131" interp="linr"  time="-9999999/1" value="1" leadInLength="0/1"  />
              </VectorParam>
              <VectorParam id="3132"  name="anchor">
               <InterpolatingParam id="3133" interp="linr"  time="0/1" value="0" leadInLength="0/1"  />
               <InterpolatingParam id="3134" interp="linr"  time="0/1" value="0" leadInLength="0/1"  />
               <InterpolatingParam id="3135" interp="linr"  time="0/1" value="0" leadInLength="0/1"  />
              </VectorParam>
             </Transformer>
             <Parameters>
              <VectorParam id="3136"  name="sourceCrop">
               <InterpolatingParam id="3137" interp="linr"  time="0/1" value="0" leadInLength="0/1"  />
               <InterpolatingParam id="3138" interp="linr"  time="0/1" value="0" leadInLength="0/1"  />
               <InterpolatingParam id="3139" interp="linr"  time="0/1" value="0" leadInLength="0/1"  />
               <InterpolatingParam id="3140" interp="linr"  time="0/1" value="0" leadInLength="0/1"  />
              </VectorParam>
              <VectorParam id="3141"  name="geometryCrop">
               <InterpolatingParam id="3142" interp="linr"  time="-9999999/1" value="0" leadInLength="0/1"  />
               <InterpolatingParam id="3143" interp="linr"  time="-9999999/1" value="0" leadInLength="0/1"  />
               <InterpolatingParam id="3144" interp="linr"  time="-9999999/1" value="0" leadInLength="0/1"  />
               <InterpolatingParam id="3145" interp="linr"  time="-9999999/1" value="0" leadInLength="0/1"  />
              </VectorParam>
              <InterpolatingParam id="3146" interp="linr"  time="-9999999/1" value="1" leadInLength="0/1"  name="opacity"/>
             </Parameters>
             <Attributes>
              <Attribute id="3147" value="" name="ident"/>
             </Attributes>
             <ExtraData>
              <Entry key="ZoomPanBin">
               <ZoomPanBin id="3148"  >
                <ZoomPanKeyframes>
                 <ZoomPanKeyframe id="3149" timeRangeEnd="-9999999/1" timeRangeDuration="0/1" interpolaterName=""  />
                </ZoomPanKeyframes>
               </ZoomPanBin>
              </Entry>
             </ExtraData>
            </VMFile>
            <MetaData>
             <entry key="WinSubProjectDisplayName" val=""/>
            </MetaData>
           </UnifiedMedia>
           <UnifiedMedia id="3150"  >
            <AMFile id="3151" start="1900" duration="198" scalar="1/1" mediaStart="2487/1" mediaDuration="198/1" trackNumber="2" src="4" channelNumber="0,1" >
             <Parameters>
              <InterpolatingParam id="3152" interp="linr"  time="0/1" value="1" leadInLength="0/1"  name="volume"/>
              <Parameter id="3153"  name="captions"/>
             </Parameters>
             <Attributes>
              <Attribute id="3154" value="" name="ident"/>
              <Attribute id="3155" value="44100" name="sampleRate"/>
              <Attribute id="3156" value="16" name="bitDepth"/>
              <Attribute id="3157" value="1" name="gain"/>
              <Attribute id="3158" value="0" name="mixToMono"/>
             </Attributes>
            </AMFile>
            <VMFile id="3159" start="1900" duration="198" scalar="1/1" mediaStart="2487/1" mediaDuration="198/1" trackNumber="1" src="4" >
             <Transformer>
              <VectorParam id="3160"  name="translation">
               <InterpolatingParam id="3161" interp="linr"  time="-9999999/1" value="0" leadInLength="0/1"  />
               <InterpolatingParam id="3162" interp="linr"  time="-9999999/1" value="0" leadInLength="0/1"  />
               <InterpolatingParam id="3163" interp="linr"  time="-9999999/1" value="0" leadInLength="0/1"  />
              </VectorParam>
              <VectorParam id="3164"  name="rotation">
               <InterpolatingParam id="3165" interp="linr"  time="-9999999/1" value="0" leadInLength="0/1"  />
               <InterpolatingParam id="3166" interp="linr"  time="-9999999/1" value="0" leadInLength="0/1"  />
               <InterpolatingParam id="3167" interp="linr"  time="-9999999/1" value="0" leadInLength="0/1"  />
              </VectorParam>
              <VectorParam id="3168"  name="shear">
               <InterpolatingParam id="3169" interp="linr"  time="-9999999/1" value="0" leadInLength="0/1"  />
               <InterpolatingParam id="3170" interp="linr"  time="-9999999/1" value="0" leadInLength="0/1"  />
               <InterpolatingParam id="3171" interp="linr"  time="-9999999/1" value="0" leadInLength="0/1"  />
              </VectorParam>
              <VectorParam id="3172"  name="scale">
               <InterpolatingParam id="3173" interp="linr"  time="-9999999/1" value="1" leadInLength="0/1"  />
               <InterpolatingParam id="3174" interp="linr"  time="-9999999/1" value="1" leadInLength="0/1"  />
               <InterpolatingParam id="3175" interp="linr"  time="-9999999/1" value="1" leadInLength="0/1"  />
              </VectorParam>
              <VectorParam id="3176"  name="anchor">
               <InterpolatingParam id="3177" interp="linr"  time="0/1" value="0" leadInLength="0/1"  />
               <InterpolatingParam id="3178" interp="linr"  time="0/1" value="0" leadInLength="0/1"  />
               <InterpolatingParam id="3179" interp="linr"  time="0/1" value="0" leadInLength="0/1"  />
              </VectorParam>
             </Transformer>
             <Parameters>
              <VectorParam id="3180"  name="sourceCrop">
               <InterpolatingParam id="3181" interp="linr"  time="0/1" value="0" leadInLength="0/1"  />
               <InterpolatingParam id="3182" interp="linr"  time="0/1" value="0" leadInLength="0/1"  />
               <InterpolatingParam id="3183" interp="linr"  time="0/1" value="0" leadInLength="0/1"  />
               <InterpolatingParam id="3184" interp="linr"  time="0/1" value="0" leadInLength="0/1"  />
              </VectorParam>
              <VectorParam id="3185"  name="geometryCrop">
               <InterpolatingParam id="3186" interp="linr"  time="-9999999/1" value="0" leadInLength="0/1"  />
               <InterpolatingParam id="3187" interp="linr"  time="-9999999/1" value="0" leadInLength="0/1"  />
               <InterpolatingParam id="3188" interp="linr"  time="-9999999/1" value="0" leadInLength="0/1"  />
               <InterpolatingParam id="3189" interp="linr"  time="-9999999/1" value="0" leadInLength="0/1"  />
              </VectorParam>
              <InterpolatingParam id="3190" interp="linr"  time="-9999999/1" value="1" leadInLength="0/1"  name="opacity"/>
             </Parameters>
             <Attributes>
              <Attribute id="3191" value="" name="ident"/>
             </Attributes>
             <ExtraData>
              <Entry key="ZoomPanBin">
               <ZoomPanBin id="3192"  >
                <ZoomPanKeyframes>
                 <ZoomPanKeyframe id="3193" timeRangeEnd="-9999999/1" timeRangeDuration="0/1" interpolaterName=""  />
                </ZoomPanKeyframes>
               </ZoomPanBin>
              </Entry>
             </ExtraData>
            </VMFile>
            <MetaData>
             <entry key="WinSubProjectDisplayName" val=""/>
            </MetaData>
           </UnifiedMedia>
           <UnifiedMedia id="3194"  >
            <AMFile id="3195" start="2098" duration="22" scalar="1/1" mediaStart="2702/1" mediaDuration="22/1" trackNumber="2" src="4" channelNumber="0,1" >
             <Parameters>
              <InterpolatingParam id="3196" interp="linr"  time="0/1" value="1" leadInLength="0/1"  name="volume"/>
              <Parameter id="3197"  name="captions"/>
             </Parameters>
             <Attributes>
              <Attribute id="3198" value="" name="ident"/>
              <Attribute id="3199" value="44100" name="sampleRate"/>
              <Attribute id="3200" value="16" name="bitDepth"/>
              <Attribute id="3201" value="1" name="gain"/>
              <Attribute id="3202" value="0" name="mixToMono"/>
             </Attributes>
            </AMFile>
            <VMFile id="3203" start="2098" duration="22" scalar="1/1" mediaStart="2702/1" mediaDuration="22/1" trackNumber="1" src="4" >
             <Transformer>
              <VectorParam id="3204"  name="translation">
               <InterpolatingParam id="3205" interp="linr"  time="-9999999/1" value="0" leadInLength="0/1"  />
               <InterpolatingParam id="3206" interp="linr"  time="-9999999/1" value="0" leadInLength="0/1"  />
               <InterpolatingParam id="3207" interp="linr"  time="-9999999/1" value="0" leadInLength="0/1"  />
              </VectorParam>
              <VectorParam id="3208"  name="rotation">
               <InterpolatingParam id="3209" interp="linr"  time="-9999999/1" value="0" leadInLength="0/1"  />
               <InterpolatingParam id="3210" interp="linr"  time="-9999999/1" value="0" leadInLength="0/1"  />
               <InterpolatingParam id="3211" interp="linr"  time="-9999999/1" value="0" leadInLength="0/1"  />
              </VectorParam>
              <VectorParam id="3212"  name="shear">
               <InterpolatingParam id="3213" interp="linr"  time="-9999999/1" value="0" leadInLength="0/1"  />
               <InterpolatingParam id="3214" interp="linr"  time="-9999999/1" value="0" leadInLength="0/1"  />
               <InterpolatingParam id="3215" interp="linr"  time="-9999999/1" value="0" leadInLength="0/1"  />
              </VectorParam>
              <VectorParam id="3216"  name="scale">
               <InterpolatingParam id="3217" interp="linr"  time="-9999999/1" value="1" leadInLength="0/1"  />
               <InterpolatingParam id="3218" interp="linr"  time="-9999999/1" value="1" leadInLength="0/1"  />
               <InterpolatingParam id="3219" interp="linr"  time="-9999999/1" value="1" leadInLength="0/1"  />
              </VectorParam>
              <VectorParam id="3220"  name="anchor">
               <InterpolatingParam id="3221" interp="linr"  time="0/1" value="0" leadInLength="0/1"  />
               <InterpolatingParam id="3222" interp="linr"  time="0/1" value="0" leadInLength="0/1"  />
               <InterpolatingParam id="3223" interp="linr"  time="0/1" value="0" leadInLength="0/1"  />
              </VectorParam>
             </Transformer>
             <Parameters>
              <VectorParam id="3224"  name="sourceCrop">
               <InterpolatingParam id="3225" interp="linr"  time="0/1" value="0" leadInLength="0/1"  />
               <InterpolatingParam id="3226" interp="linr"  time="0/1" value="0" leadInLength="0/1"  />
               <InterpolatingParam id="3227" interp="linr"  time="0/1" value="0" leadInLength="0/1"  />
               <InterpolatingParam id="3228" interp="linr"  time="0/1" value="0" leadInLength="0/1"  />
              </VectorParam>
              <VectorParam id="3229"  name="geometryCrop">
               <InterpolatingParam id="3230" interp="linr"  time="-9999999/1" value="0" leadInLength="0/1"  />
               <InterpolatingParam id="3231" interp="linr"  time="-9999999/1" value="0" leadInLength="0/1"  />
               <InterpolatingParam id="3232" interp="linr"  time="-9999999/1" value="0" leadInLength="0/1"  />
               <InterpolatingParam id="3233" interp="linr"  time="-9999999/1" value="0" leadInLength="0/1"  />
              </VectorParam>
              <InterpolatingParam id="3234" interp="linr"  time="-9999999/1" value="1" leadInLength="0/1"  name="opacity"/>
             </Parameters>
             <Attributes>
              <Attribute id="3235" value="" name="ident"/>
             </Attributes>
             <ExtraData>
              <Entry key="ZoomPanBin">
               <ZoomPanBin id="3236"  >
                <ZoomPanKeyframes>
                 <ZoomPanKeyframe id="3237" timeRangeEnd="-9999999/1" timeRangeDuration="0/1" interpolaterName=""  />
                </ZoomPanKeyframes>
               </ZoomPanBin>
              </Entry>
             </ExtraData>
            </VMFile>
            <MetaData>
             <entry key="WinSubProjectDisplayName" val=""/>
            </MetaData>
           </UnifiedMedia>
           <UnifiedMedia id="3238"  >
            <AMFile id="3239" start="2120" duration="284" scalar="1/1" mediaStart="2733/1" mediaDuration="284/1" trackNumber="2" src="4" channelNumber="0,1" >
             <Parameters>
              <InterpolatingParam id="3240" interp="linr"  time="0/1" value="1" leadInLength="0/1"  name="volume"/>
              <Parameter id="3241"  name="captions"/>
             </Parameters>
             <Attributes>
              <Attribute id="3242" value="" name="ident"/>
              <Attribute id="3243" value="44100" name="sampleRate"/>
              <Attribute id="3244" value="16" name="bitDepth"/>
              <Attribute id="3245" value="1" name="gain"/>
              <Attribute id="3246" value="0" name="mixToMono"/>
             </Attributes>
            </AMFile>
            <VMFile id="3247" start="2120" duration="284" scalar="1/1" mediaStart="2733/1" mediaDuration="284/1" trackNumber="1" src="4" >
             <Transformer>
              <VectorParam id="3248"  name="translation">
               <InterpolatingParam id="3249" interp="linr"  time="-9999999/1" value="0" leadInLength="0/1"  />
               <InterpolatingParam id="3250" interp="linr"  time="-9999999/1" value="0" leadInLength="0/1"  />
               <InterpolatingParam id="3251" interp="linr"  time="-9999999/1" value="0" leadInLength="0/1"  />
              </VectorParam>
              <VectorParam id="3252"  name="rotation">
               <InterpolatingParam id="3253" interp="linr"  time="-9999999/1" value="0" leadInLength="0/1"  />
               <InterpolatingParam id="3254" interp="linr"  time="-9999999/1" value="0" leadInLength="0/1"  />
               <InterpolatingParam id="3255" interp="linr"  time="-9999999/1" value="0" leadInLength="0/1"  />
              </VectorParam>
              <VectorParam id="3256"  name="shear">
               <InterpolatingParam id="3257" interp="linr"  time="-9999999/1" value="0" leadInLength="0/1"  />
               <InterpolatingParam id="3258" interp="linr"  time="-9999999/1" value="0" leadInLength="0/1"  />
               <InterpolatingParam id="3259" interp="linr"  time="-9999999/1" value="0" leadInLength="0/1"  />
              </VectorParam>
              <VectorParam id="3260"  name="scale">
               <InterpolatingParam id="3261" interp="linr"  time="-9999999/1" value="1" leadInLength="0/1"  />
               <InterpolatingParam id="3262" interp="linr"  time="-9999999/1" value="1" leadInLength="0/1"  />
               <InterpolatingParam id="3263" interp="linr"  time="-9999999/1" value="1" leadInLength="0/1"  />
              </VectorParam>
              <VectorParam id="3264"  name="anchor">
               <InterpolatingParam id="3265" interp="linr"  time="0/1" value="0" leadInLength="0/1"  />
               <InterpolatingParam id="3266" interp="linr"  time="0/1" value="0" leadInLength="0/1"  />
               <InterpolatingParam id="3267" interp="linr"  time="0/1" value="0" leadInLength="0/1"  />
              </VectorParam>
             </Transformer>
             <Parameters>
              <VectorParam id="3268"  name="sourceCrop">
               <InterpolatingParam id="3269" interp="linr"  time="0/1" value="0" leadInLength="0/1"  />
               <InterpolatingParam id="3270" interp="linr"  time="0/1" value="0" leadInLength="0/1"  />
               <InterpolatingParam id="3271" interp="linr"  time="0/1" value="0" leadInLength="0/1"  />
               <InterpolatingParam id="3272" interp="linr"  time="0/1" value="0" leadInLength="0/1"  />
              </VectorParam>
              <VectorParam id="3273"  name="geometryCrop">
               <InterpolatingParam id="3274" interp="linr"  time="-9999999/1" value="0" leadInLength="0/1"  />
               <InterpolatingParam id="3275" interp="linr"  time="-9999999/1" value="0" leadInLength="0/1"  />
               <InterpolatingParam id="3276" interp="linr"  time="-9999999/1" value="0" leadInLength="0/1"  />
               <InterpolatingParam id="3277" interp="linr"  time="-9999999/1" value="0" leadInLength="0/1"  />
              </VectorParam>
              <InterpolatingParam id="3278" interp="linr"  time="-9999999/1" value="1" leadInLength="0/1"  name="opacity"/>
             </Parameters>
             <Attributes>
              <Attribute id="3279" value="" name="ident"/>
             </Attributes>
             <ExtraData>
              <Entry key="ZoomPanBin">
               <ZoomPanBin id="3280"  >
                <ZoomPanKeyframes>
                 <ZoomPanKeyframe id="3281" timeRangeEnd="-9999999/1" timeRangeDuration="0/1" interpolaterName=""  />
                </ZoomPanKeyframes>
               </ZoomPanBin>
              </Entry>
             </ExtraData>
            </VMFile>
            <MetaData>
             <entry key="WinSubProjectDisplayName" val=""/>
            </MetaData>
           </UnifiedMedia>
           <UnifiedMedia id="3282"  >
            <AMFile id="3283" start="2404" duration="45" scalar="1/1" mediaStart="3114/1" mediaDuration="45/1" trackNumber="2" src="4" channelNumber="0,1" >
             <Parameters>
              <InterpolatingParam id="3284" interp="linr"  time="0/1" value="1" leadInLength="0/1"  name="volume"/>
              <Parameter id="3285"  name="captions"/>
             </Parameters>
             <Attributes>
              <Attribute id="3286" value="" name="ident"/>
              <Attribute id="3287" value="44100" name="sampleRate"/>
              <Attribute id="3288" value="16" name="bitDepth"/>
              <Attribute id="3289" value="1" name="gain"/>
              <Attribute id="3290" value="0" name="mixToMono"/>
             </Attributes>
            </AMFile>
            <VMFile id="3291" start="2404" duration="45" scalar="1/1" mediaStart="3114/1" mediaDuration="45/1" trackNumber="1" src="4" >
             <Transformer>
              <VectorParam id="3292"  name="translation">
               <InterpolatingParam id="3293" interp="linr"  time="-9999999/1" value="0" leadInLength="0/1"  />
               <InterpolatingParam id="3294" interp="linr"  time="-9999999/1" value="0" leadInLength="0/1"  />
               <InterpolatingParam id="3295" interp="linr"  time="-9999999/1" value="0" leadInLength="0/1"  />
              </VectorParam>
              <VectorParam id="3296"  name="rotation">
               <InterpolatingParam id="3297" interp="linr"  time="-9999999/1" value="0" leadInLength="0/1"  />
               <InterpolatingParam id="3298" interp="linr"  time="-9999999/1" value="0" leadInLength="0/1"  />
               <InterpolatingParam id="3299" interp="linr"  time="-9999999/1" value="0" leadInLength="0/1"  />
              </VectorParam>
              <VectorParam id="3300"  name="shear">
               <InterpolatingParam id="3301" interp="linr"  time="-9999999/1" value="0" leadInLength="0/1"  />
               <InterpolatingParam id="3302" interp="linr"  time="-9999999/1" value="0" leadInLength="0/1"  />
               <InterpolatingParam id="3303" interp="linr"  time="-9999999/1" value="0" leadInLength="0/1"  />
              </VectorParam>
              <VectorParam id="3304"  name="scale">
               <InterpolatingParam id="3305" interp="linr"  time="-9999999/1" value="1" leadInLength="0/1"  />
               <InterpolatingParam id="3306" interp="linr"  time="-9999999/1" value="1" leadInLength="0/1"  />
               <InterpolatingParam id="3307" interp="linr"  time="-9999999/1" value="1" leadInLength="0/1"  />
              </VectorParam>
              <VectorParam id="3308"  name="anchor">
               <InterpolatingParam id="3309" interp="linr"  time="0/1" value="0" leadInLength="0/1"  />
               <InterpolatingParam id="3310" interp="linr"  time="0/1" value="0" leadInLength="0/1"  />
               <InterpolatingParam id="3311" interp="linr"  time="0/1" value="0" leadInLength="0/1"  />
              </VectorParam>
             </Transformer>
             <Parameters>
              <VectorParam id="3312"  name="sourceCrop">
               <InterpolatingParam id="3313" interp="linr"  time="0/1" value="0" leadInLength="0/1"  />
               <InterpolatingParam id="3314" interp="linr"  time="0/1" value="0" leadInLength="0/1"  />
               <InterpolatingParam id="3315" interp="linr"  time="0/1" value="0" leadInLength="0/1"  />
               <InterpolatingParam id="3316" interp="linr"  time="0/1" value="0" leadInLength="0/1"  />
              </VectorParam>
              <VectorParam id="3317"  name="geometryCrop">
               <InterpolatingParam id="3318" interp="linr"  time="-9999999/1" value="0" leadInLength="0/1"  />
               <InterpolatingParam id="3319" interp="linr"  time="-9999999/1" value="0" leadInLength="0/1"  />
               <InterpolatingParam id="3320" interp="linr"  time="-9999999/1" value="0" leadInLength="0/1"  />
               <InterpolatingParam id="3321" interp="linr"  time="-9999999/1" value="0" leadInLength="0/1"  />
              </VectorParam>
              <InterpolatingParam id="3322" interp="linr"  time="-9999999/1" value="1" leadInLength="0/1"  name="opacity"/>
             </Parameters>
             <Attributes>
              <Attribute id="3323" value="" name="ident"/>
             </Attributes>
             <ExtraData>
              <Entry key="ZoomPanBin">
               <ZoomPanBin id="3324"  >
                <ZoomPanKeyframes>
                 <ZoomPanKeyframe id="3325" timeRangeEnd="-9999999/1" timeRangeDuration="0/1" interpolaterName=""  />
                </ZoomPanKeyframes>
               </ZoomPanBin>
              </Entry>
             </ExtraData>
            </VMFile>
            <MetaData>
             <entry key="WinSubProjectDisplayName" val=""/>
            </MetaData>
           </UnifiedMedia>
           <UnifiedMedia id="3326"  >
            <AMFile id="3327" start="2449" duration="432" scalar="1/1" mediaStart="3167/1" mediaDuration="432/1" trackNumber="2" src="4" channelNumber="0,1" >
             <Parameters>
              <InterpolatingParam id="3328" interp="linr"  time="0/1" value="1" leadInLength="0/1"  name="volume"/>
              <Parameter id="3329"  name="captions"/>
             </Parameters>
             <Attributes>
              <Attribute id="3330" value="" name="ident"/>
              <Attribute id="3331" value="44100" name="sampleRate"/>
              <Attribute id="3332" value="16" name="bitDepth"/>
              <Attribute id="3333" value="1" name="gain"/>
              <Attribute id="3334" value="0" name="mixToMono"/>
             </Attributes>
            </AMFile>
            <VMFile id="3335" start="2449" duration="432" scalar="1/1" mediaStart="3167/1" mediaDuration="432/1" trackNumber="1" src="4" >
             <Transformer>
              <VectorParam id="3336"  name="translation">
               <InterpolatingParam id="3337" interp="linr"  time="-9999999/1" value="0" leadInLength="0/1"  />
               <InterpolatingParam id="3338" interp="linr"  time="-9999999/1" value="0" leadInLength="0/1"  />
               <InterpolatingParam id="3339" interp="linr"  time="-9999999/1" value="0" leadInLength="0/1"  />
              </VectorParam>
              <VectorParam id="3340"  name="rotation">
               <InterpolatingParam id="3341" interp="linr"  time="-9999999/1" value="0" leadInLength="0/1"  />
               <InterpolatingParam id="3342" interp="linr"  time="-9999999/1" value="0" leadInLength="0/1"  />
               <InterpolatingParam id="3343" interp="linr"  time="-9999999/1" value="0" leadInLength="0/1"  />
              </VectorParam>
              <VectorParam id="3344"  name="shear">
               <InterpolatingParam id="3345" interp="linr"  time="-9999999/1" value="0" leadInLength="0/1"  />
               <InterpolatingParam id="3346" interp="linr"  time="-9999999/1" value="0" leadInLength="0/1"  />
               <InterpolatingParam id="3347" interp="linr"  time="-9999999/1" value="0" leadInLength="0/1"  />
              </VectorParam>
              <VectorParam id="3348"  name="scale">
               <InterpolatingParam id="3349" interp="linr"  time="-9999999/1" value="1" leadInLength="0/1"  />
               <InterpolatingParam id="3350" interp="linr"  time="-9999999/1" value="1" leadInLength="0/1"  />
               <InterpolatingParam id="3351" interp="linr"  time="-9999999/1" value="1" leadInLength="0/1"  />
              </VectorParam>
              <VectorParam id="3352"  name="anchor">
               <InterpolatingParam id="3353" interp="linr"  time="0/1" value="0" leadInLength="0/1"  />
               <InterpolatingParam id="3354" interp="linr"  time="0/1" value="0" leadInLength="0/1"  />
               <InterpolatingParam id="3355" interp="linr"  time="0/1" value="0" leadInLength="0/1"  />
              </VectorParam>
             </Transformer>
             <Parameters>
              <VectorParam id="3356"  name="sourceCrop">
               <InterpolatingParam id="3357" interp="linr"  time="0/1" value="0" leadInLength="0/1"  />
               <InterpolatingParam id="3358" interp="linr"  time="0/1" value="0" leadInLength="0/1"  />
               <InterpolatingParam id="3359" interp="linr"  time="0/1" value="0" leadInLength="0/1"  />
               <InterpolatingParam id="3360" interp="linr"  time="0/1" value="0" leadInLength="0/1"  />
              </VectorParam>
              <VectorParam id="3361"  name="geometryCrop">
               <InterpolatingParam id="3362" interp="linr"  time="-9999999/1" value="0" leadInLength="0/1"  />
               <InterpolatingParam id="3363" interp="linr"  time="-9999999/1" value="0" leadInLength="0/1"  />
               <InterpolatingParam id="3364" interp="linr"  time="-9999999/1" value="0" leadInLength="0/1"  />
               <InterpolatingParam id="3365" interp="linr"  time="-9999999/1" value="0" leadInLength="0/1"  />
              </VectorParam>
              <InterpolatingParam id="3366" interp="linr"  time="-9999999/1" value="1" leadInLength="0/1"  name="opacity"/>
             </Parameters>
             <Attributes>
              <Attribute id="3367" value="" name="ident"/>
             </Attributes>
             <ExtraData>
              <Entry key="ZoomPanBin">
               <ZoomPanBin id="3368"  >
                <ZoomPanKeyframes>
                 <ZoomPanKeyframe id="3369" timeRangeEnd="-9999999/1" timeRangeDuration="0/1" interpolaterName=""  />
                </ZoomPanKeyframes>
               </ZoomPanBin>
              </Entry>
             </ExtraData>
            </VMFile>
            <MetaData>
             <entry key="WinSubProjectDisplayName" val=""/>
            </MetaData>
           </UnifiedMedia>
           <UnifiedMedia id="3370"  >
            <AMFile id="3371" start="2881" duration="32" scalar="1/1" mediaStart="3638/1" mediaDuration="32/1" trackNumber="2" src="4" channelNumber="0,1" >
             <Parameters>
              <InterpolatingParam id="3372" interp="linr"  time="0/1" value="1" leadInLength="0/1"  name="volume"/>
              <Parameter id="3373"  name="captions"/>
             </Parameters>
             <Attributes>
              <Attribute id="3374" value="" name="ident"/>
              <Attribute id="3375" value="44100" name="sampleRate"/>
              <Attribute id="3376" value="16" name="bitDepth"/>
              <Attribute id="3377" value="1" name="gain"/>
              <Attribute id="3378" value="0" name="mixToMono"/>
             </Attributes>
            </AMFile>
            <VMFile id="3379" start="2881" duration="32" scalar="1/1" mediaStart="3638/1" mediaDuration="32/1" trackNumber="1" src="4" >
             <Transformer>
              <VectorParam id="3380"  name="translation">
               <InterpolatingParam id="3381" interp="linr"  time="-9999999/1" value="0" leadInLength="0/1"  />
               <InterpolatingParam id="3382" interp="linr"  time="-9999999/1" value="0" leadInLength="0/1"  />
               <InterpolatingParam id="3383" interp="linr"  time="-9999999/1" value="0" leadInLength="0/1"  />
              </VectorParam>
              <VectorParam id="3384"  name="rotation">
               <InterpolatingParam id="3385" interp="linr"  time="-9999999/1" value="0" leadInLength="0/1"  />
               <InterpolatingParam id="3386" interp="linr"  time="-9999999/1" value="0" leadInLength="0/1"  />
               <InterpolatingParam id="3387" interp="linr"  time="-9999999/1" value="0" leadInLength="0/1"  />
              </VectorParam>
              <VectorParam id="3388"  name="shear">
               <InterpolatingParam id="3389" interp="linr"  time="-9999999/1" value="0" leadInLength="0/1"  />
               <InterpolatingParam id="3390" interp="linr"  time="-9999999/1" value="0" leadInLength="0/1"  />
               <InterpolatingParam id="3391" interp="linr"  time="-9999999/1" value="0" leadInLength="0/1"  />
              </VectorParam>
              <VectorParam id="3392"  name="scale">
               <InterpolatingParam id="3393" interp="linr"  time="-9999999/1" value="1" leadInLength="0/1"  />
               <InterpolatingParam id="3394" interp="linr"  time="-9999999/1" value="1" leadInLength="0/1"  />
               <InterpolatingParam id="3395" interp="linr"  time="-9999999/1" value="1" leadInLength="0/1"  />
              </VectorParam>
              <VectorParam id="3396"  name="anchor">
               <InterpolatingParam id="3397" interp="linr"  time="0/1" value="0" leadInLength="0/1"  />
               <InterpolatingParam id="3398" interp="linr"  time="0/1" value="0" leadInLength="0/1"  />
               <InterpolatingParam id="3399" interp="linr"  time="0/1" value="0" leadInLength="0/1"  />
              </VectorParam>
             </Transformer>
             <Parameters>
              <VectorParam id="3400"  name="sourceCrop">
               <InterpolatingParam id="3401" interp="linr"  time="0/1" value="0" leadInLength="0/1"  />
               <InterpolatingParam id="3402" interp="linr"  time="0/1" value="0" leadInLength="0/1"  />
               <InterpolatingParam id="3403" interp="linr"  time="0/1" value="0" leadInLength="0/1"  />
               <InterpolatingParam id="3404" interp="linr"  time="0/1" value="0" leadInLength="0/1"  />
              </VectorParam>
              <VectorParam id="3405"  name="geometryCrop">
               <InterpolatingParam id="3406" interp="linr"  time="-9999999/1" value="0" leadInLength="0/1"  />
               <InterpolatingParam id="3407" interp="linr"  time="-9999999/1" value="0" leadInLength="0/1"  />
               <InterpolatingParam id="3408" interp="linr"  time="-9999999/1" value="0" leadInLength="0/1"  />
               <InterpolatingParam id="3409" interp="linr"  time="-9999999/1" value="0" leadInLength="0/1"  />
              </VectorParam>
              <InterpolatingParam id="3410" interp="linr"  time="-9999999/1" value="1" leadInLength="0/1"  name="opacity"/>
             </Parameters>
             <Attributes>
              <Attribute id="3411" value="" name="ident"/>
             </Attributes>
             <ExtraData>
              <Entry key="ZoomPanBin">
               <ZoomPanBin id="3412"  >
                <ZoomPanKeyframes>
                 <ZoomPanKeyframe id="3413" timeRangeEnd="-9999999/1" timeRangeDuration="0/1" interpolaterName=""  />
                </ZoomPanKeyframes>
               </ZoomPanBin>
              </Entry>
             </ExtraData>
            </VMFile>
            <MetaData>
             <entry key="WinSubProjectDisplayName" val=""/>
            </MetaData>
           </UnifiedMedia>
           <UnifiedMedia id="3414"  >
            <AMFile id="3415" start="2913" duration="50" scalar="1/1" mediaStart="3700/1" mediaDuration="50/1" trackNumber="2" src="4" channelNumber="0,1" >
             <Parameters>
              <InterpolatingParam id="3416" interp="linr"  time="0/1" value="1" leadInLength="0/1"  name="volume"/>
              <Parameter id="3417"  name="captions"/>
             </Parameters>
             <Attributes>
              <Attribute id="3418" value="" name="ident"/>
              <Attribute id="3419" value="44100" name="sampleRate"/>
              <Attribute id="3420" value="16" name="bitDepth"/>
              <Attribute id="3421" value="1" name="gain"/>
              <Attribute id="3422" value="0" name="mixToMono"/>
             </Attributes>
            </AMFile>
            <VMFile id="3423" start="2913" duration="50" scalar="1/1" mediaStart="3700/1" mediaDuration="50/1" trackNumber="1" src="4" >
             <Transformer>
              <VectorParam id="3424"  name="translation">
               <InterpolatingParam id="3425" interp="linr"  time="-9999999/1" value="0" leadInLength="0/1"  />
               <InterpolatingParam id="3426" interp="linr"  time="-9999999/1" value="0" leadInLength="0/1"  />
               <InterpolatingParam id="3427" interp="linr"  time="-9999999/1" value="0" leadInLength="0/1"  />
              </VectorParam>
              <VectorParam id="3428"  name="rotation">
               <InterpolatingParam id="3429" interp="linr"  time="-9999999/1" value="0" leadInLength="0/1"  />
               <InterpolatingParam id="3430" interp="linr"  time="-9999999/1" value="0" leadInLength="0/1"  />
               <InterpolatingParam id="3431" interp="linr"  time="-9999999/1" value="0" leadInLength="0/1"  />
              </VectorParam>
              <VectorParam id="3432"  name="shear">
               <InterpolatingParam id="3433" interp="linr"  time="-9999999/1" value="0" leadInLength="0/1"  />
               <InterpolatingParam id="3434" interp="linr"  time="-9999999/1" value="0" leadInLength="0/1"  />
               <InterpolatingParam id="3435" interp="linr"  time="-9999999/1" value="0" leadInLength="0/1"  />
              </VectorParam>
              <VectorParam id="3436"  name="scale">
               <InterpolatingParam id="3437" interp="linr"  time="-9999999/1" value="1" leadInLength="0/1"  />
               <InterpolatingParam id="3438" interp="linr"  time="-9999999/1" value="1" leadInLength="0/1"  />
               <InterpolatingParam id="3439" interp="linr"  time="-9999999/1" value="1" leadInLength="0/1"  />
              </VectorParam>
              <VectorParam id="3440"  name="anchor">
               <InterpolatingParam id="3441" interp="linr"  time="0/1" value="0" leadInLength="0/1"  />
               <InterpolatingParam id="3442" interp="linr"  time="0/1" value="0" leadInLength="0/1"  />
               <InterpolatingParam id="3443" interp="linr"  time="0/1" value="0" leadInLength="0/1"  />
              </VectorParam>
             </Transformer>
             <Parameters>
              <VectorParam id="3444"  name="sourceCrop">
               <InterpolatingParam id="3445" interp="linr"  time="0/1" value="0" leadInLength="0/1"  />
               <InterpolatingParam id="3446" interp="linr"  time="0/1" value="0" leadInLength="0/1"  />
               <InterpolatingParam id="3447" interp="linr"  time="0/1" value="0" leadInLength="0/1"  />
               <InterpolatingParam id="3448" interp="linr"  time="0/1" value="0" leadInLength="0/1"  />
              </VectorParam>
              <VectorParam id="3449"  name="geometryCrop">
               <InterpolatingParam id="3450" interp="linr"  time="-9999999/1" value="0" leadInLength="0/1"  />
               <InterpolatingParam id="3451" interp="linr"  time="-9999999/1" value="0" leadInLength="0/1"  />
               <InterpolatingParam id="3452" interp="linr"  time="-9999999/1" value="0" leadInLength="0/1"  />
               <InterpolatingParam id="3453" interp="linr"  time="-9999999/1" value="0" leadInLength="0/1"  />
              </VectorParam>
              <InterpolatingParam id="3454" interp="linr"  time="-9999999/1" value="1" leadInLength="0/1"  name="opacity"/>
             </Parameters>
             <Attributes>
              <Attribute id="3455" value="" name="ident"/>
             </Attributes>
             <ExtraData>
              <Entry key="ZoomPanBin">
               <ZoomPanBin id="3456"  >
                <ZoomPanKeyframes>
                 <ZoomPanKeyframe id="3457" timeRangeEnd="-9999999/1" timeRangeDuration="0/1" interpolaterName=""  />
                </ZoomPanKeyframes>
               </ZoomPanBin>
              </Entry>
             </ExtraData>
            </VMFile>
            <MetaData>
             <entry key="WinSubProjectDisplayName" val=""/>
            </MetaData>
           </UnifiedMedia>
           <UnifiedMedia id="3458"  >
            <AMFile id="3459" start="2963" duration="6335" scalar="1/1" mediaStart="4389/1" mediaDuration="6335/1" trackNumber="2" src="4" channelNumber="0,1" >
             <Parameters>
              <InterpolatingParam id="3460" interp="linr"  time="0/1" value="1" leadInLength="0/1"  name="volume"/>
              <Parameter id="3461"  name="captions"/>
             </Parameters>
             <Attributes>
              <Attribute id="3462" value="" name="ident"/>
              <Attribute id="3463" value="44100" name="sampleRate"/>
              <Attribute id="3464" value="16" name="bitDepth"/>
              <Attribute id="3465" value="1" name="gain"/>
              <Attribute id="3466" value="0" name="mixToMono"/>
             </Attributes>
            </AMFile>
            <VMFile id="3467" start="2963" duration="6335" scalar="1/1" mediaStart="4389/1" mediaDuration="6335/1" trackNumber="1" src="4" >
             <Transformer>
              <VectorParam id="3468"  name="translation">
               <InterpolatingParam id="3469" interp="linr"  time="-9999999/1" value="0" leadInLength="0/1"  />
               <InterpolatingParam id="3470" interp="linr"  time="-9999999/1" value="0" leadInLength="0/1"  />
               <InterpolatingParam id="3471" interp="linr"  time="-9999999/1" value="0" leadInLength="0/1"  />
              </VectorParam>
              <VectorParam id="3472"  name="rotation">
               <InterpolatingParam id="3473" interp="linr"  time="-9999999/1" value="0" leadInLength="0/1"  />
               <InterpolatingParam id="3474" interp="linr"  time="-9999999/1" value="0" leadInLength="0/1"  />
               <InterpolatingParam id="3475" interp="linr"  time="-9999999/1" value="0" leadInLength="0/1"  />
              </VectorParam>
              <VectorParam id="3476"  name="shear">
               <InterpolatingParam id="3477" interp="linr"  time="-9999999/1" value="0" leadInLength="0/1"  />
               <InterpolatingParam id="3478" interp="linr"  time="-9999999/1" value="0" leadInLength="0/1"  />
               <InterpolatingParam id="3479" interp="linr"  time="-9999999/1" value="0" leadInLength="0/1"  />
              </VectorParam>
              <VectorParam id="3480"  name="scale">
               <InterpolatingParam id="3481" interp="linr"  time="-9999999/1" value="1" leadInLength="0/1"  />
               <InterpolatingParam id="3482" interp="linr"  time="-9999999/1" value="1" leadInLength="0/1"  />
               <InterpolatingParam id="3483" interp="linr"  time="-9999999/1" value="1" leadInLength="0/1"  />
              </VectorParam>
              <VectorParam id="3484"  name="anchor">
               <InterpolatingParam id="3485" interp="linr"  time="0/1" value="0" leadInLength="0/1"  />
               <InterpolatingParam id="3486" interp="linr"  time="0/1" value="0" leadInLength="0/1"  />
               <InterpolatingParam id="3487" interp="linr"  time="0/1" value="0" leadInLength="0/1"  />
              </VectorParam>
             </Transformer>
             <Parameters>
              <VectorParam id="3488"  name="sourceCrop">
               <InterpolatingParam id="3489" interp="linr"  time="0/1" value="0" leadInLength="0/1"  />
               <InterpolatingParam id="3490" interp="linr"  time="0/1" value="0" leadInLength="0/1"  />
               <InterpolatingParam id="3491" interp="linr"  time="0/1" value="0" leadInLength="0/1"  />
               <InterpolatingParam id="3492" interp="linr"  time="0/1" value="0" leadInLength="0/1"  />
              </VectorParam>
              <VectorParam id="3493"  name="geometryCrop">
               <InterpolatingParam id="3494" interp="linr"  time="-9999999/1" value="0" leadInLength="0/1"  />
               <InterpolatingParam id="3495" interp="linr"  time="-9999999/1" value="0" leadInLength="0/1"  />
               <InterpolatingParam id="3496" interp="linr"  time="-9999999/1" value="0" leadInLength="0/1"  />
               <InterpolatingParam id="3497" interp="linr"  time="-9999999/1" value="0" leadInLength="0/1"  />
              </VectorParam>
              <InterpolatingParam id="3498" interp="linr"  time="-9999999/1" value="1" leadInLength="0/1"  name="opacity"/>
             </Parameters>
             <Attributes>
              <Attribute id="3499" value="" name="ident"/>
             </Attributes>
             <ExtraData>
              <Entry key="ZoomPanBin">
               <ZoomPanBin id="3500"  >
                <ZoomPanKeyframes>
                 <ZoomPanKeyframe id="3501" timeRangeEnd="-9999999/1" timeRangeDuration="0/1" interpolaterName=""  />
                </ZoomPanKeyframes>
               </ZoomPanBin>
              </Entry>
             </ExtraData>
            </VMFile>
            <MetaData>
             <entry key="WinSubProjectDisplayName" val=""/>
            </MetaData>
           </UnifiedMedia>
          </Medias>
         </GenericTrack>
        </StitchedMedia>
        <StitchedMedia id="3502" start="2959" duration="1647" scalar="1/1" mediaStart="2959/1" mediaDuration="1647/1" minMediaStart="0/1" >
         <Transformer>
          <VectorParam id="3503"  name="translation">
           <InterpolatingParam id="3504" interp="linr"  time="-9999999/1" value="-1.7450199203865964" leadInLength="0/1"  interpolater="leadin-linr"  />
           <InterpolatingParam id="3505" interp="linr"  time="-9999999/1" value="2.8087649401869612" leadInLength="0/1"  interpolater="leadin-linr"  />
           <InterpolatingParam id="3506" interp="linr"  time="-9999999/1" value="0" leadInLength="0/1"  interpolater="leadin-linr"  />
          </VectorParam>
          <VectorParam id="3507"  name="rotation">
           <InterpolatingParam id="3508" interp="linr"  time="-9999999/1" value="0" leadInLength="0/1"  interpolater="leadin-linr"  />
           <InterpolatingParam id="3509" interp="linr"  time="-9999999/1" value="0" leadInLength="0/1"  interpolater="leadin-linr"  />
           <InterpolatingParam id="3510" interp="linr"  time="-9999999/1" value="0" leadInLength="0/1"  interpolater="leadin-linr"  />
          </VectorParam>
          <VectorParam id="3511"  name="shear">
           <InterpolatingParam id="3512" interp="linr"  time="-9999999/1" value="0" leadInLength="0/1"  interpolater="leadin-linr"  />
           <InterpolatingParam id="3513" interp="linr"  time="-9999999/1" value="0" leadInLength="0/1"  interpolater="leadin-linr"  />
           <InterpolatingParam id="3514" interp="linr"  time="-9999999/1" value="0" leadInLength="0/1"  interpolater="leadin-linr"  />
          </VectorParam>
          <VectorParam id="3515"  name="scale">
           <InterpolatingParam id="3516" interp="linr"  time="-9999999/1" value="1.5117031872514488" leadInLength="0/1"  interpolater="leadin-linr"  />
           <InterpolatingParam id="3517" interp="linr"  time="-9999999/1" value="1.5117031872514484" leadInLength="0/1"  interpolater="leadin-linr"  />
           <InterpolatingParam id="3518" interp="linr"  time="-9999999/1" value="1" leadInLength="0/1"  interpolater="leadin-linr"  />
          </VectorParam>
          <VectorParam id="3519"  name="anchor">
           <InterpolatingParam id="3520" interp="linr"  time="0/1" value="0" leadInLength="0/1"  />
           <InterpolatingParam id="3521" interp="linr"  time="0/1" value="0" leadInLength="0/1"  />
           <InterpolatingParam id="3522" interp="linr"  time="0/1" value="0" leadInLength="0/1"  />
          </VectorParam>
         </Transformer>
         <Parameters>
          <VectorParam id="3523"  name="sourceCrop">
           <InterpolatingParam id="3524" interp="linr"  time="0/1" value="0" leadInLength="0/1"  />
           <InterpolatingParam id="3525" interp="linr"  time="0/1" value="0" leadInLength="0/1"  />
           <InterpolatingParam id="3526" interp="linr"  time="0/1" value="0" leadInLength="0/1"  />
           <InterpolatingParam id="3527" interp="linr"  time="0/1" value="0" leadInLength="0/1"  />
          </VectorParam>
          <VectorParam id="3528"  name="geometryCrop">
           <InterpolatingParam id="3529" interp="linr"  time="-9999999/1" value="0" leadInLength="0/1"  interpolater="leadin-linr"  />
           <InterpolatingParam id="3530" interp="linr"  time="-9999999/1" value="0" leadInLength="0/1"  interpolater="leadin-linr"  />
           <InterpolatingParam id="3531" interp="linr"  time="-9999999/1" value="0" leadInLength="0/1"  interpolater="leadin-linr"  />
           <InterpolatingParam id="3532" interp="linr"  time="-9999999/1" value="0" leadInLength="0/1"  interpolater="leadin-linr"  />
          </VectorParam>
          <InterpolatingParam id="3533" interp="linr"  time="-9999999/1" value="1" leadInLength="0/1"  interpolater="leadin-linr"  name="opacity"/>
          <InterpolatingParam id="3534" interp="linr"  time="0/1" value="1" leadInLength="0/1"  name="cursorOpacity"/>
          <InterpolatingParam id="3535" interp="linr"  time="0/1" value="1" leadInLength="0/1"  name="cursorScale"/>
          <InterpolatingParam id="3536" interp="linr"  time="0/1" value="1" leadInLength="0/1"  name="volume"/>
          <Parameter id="3537"  name="captions"/>
         </Parameters>
         <Effects>
          <GenericEffect id="3538" name = "NoiseReduction" >
           <Parameters>
           <InterpolatingParam id="3539" interp="linr"  time="0/1" value="27.599999999999998" leadInLength="0/1"   name="denoiserAmount"/>
           <InterpolatingParam id="3540" interp="linr"  time="0/1" value="2.2799999999999994" leadInLength="0/1"   name="denoiserThreshold"/>
           <Parameter id="3541"   name="noiseProfile">
            <Keyframes>
            <Keyframe id="3542"  time="0/1" value="FBAAAAIAAABErAAAAQIAADIzKsKAlxvC8LIvwg19O8IK4EvCQSZLwmF7TsI7XVPCKGZXwnHlWMI8&#xD;&#xa;ClbCPj1fwvbibcJdbG/CmIBywmQIc8ILrHbCJ7Z/woevesJgM3LCI/dywqGycsLfzW/CPi51wqvD&#xD;&#xa;esIdrXfCoEN7wuMwhML4pYTC2ZiEwomoh8IoD4nCLaOHwmTjiMKBE4HCcid7wkKpgsLiCITCi3uB&#xD;&#xa;wndKf8ICQYXCYkiIwgqni8J5Zo7Cep2Swsu6lcIFZZPCzWySwngRk8LokJTCLe+TwjCClMLoWpTC&#xD;&#xa;lo+Vwoujl8KSEZfClkiZwsQumcKZXZnC+Pmawtw6mMJQW5rCzZiawhGBmMISvprC5riawlOul8I+&#xD;&#xa;CpnC5pGYwt+plMIGy5bC9wyWwvaolMKDSJPC7LeTwuKclcJZj5fCZ1KawmBCmcJkRp3CByegwury&#xD;&#xa;n8JJW6DCyeWawjy9mMKeFJfCXXGWwgLzlsJQ8ZfC276YwkMBmsJ81JjC8n2bwtokm8Lc+prC4LCc&#xD;&#xa;wtG3nsLQ1KDC6picwuBunMKkRqDCmiSbwil8mcJG45nC2ySYwibnmsI565nCFHKewjL3n8LNqZ3C&#xD;&#xa;kKuewgCUm8JyMZzCnqGdwhSZncIYcp3CahOawuOBm8KL+ZzCROCdwiiVm8IY7pzChESdwvPZnMJm&#xD;&#xa;3JrCQfybwvJvoMJ2DaHCs2KfwvxDn8Lbwp/ChBmgwpt8osL2z6DCZ8ibwu6ym8JNzpzCfBydwqyt&#xD;&#xa;ncJsuZzCi/6ewlbVncLMi5vCpzqbwtfumcL6JZjCAouZwvdknMKl46DCV/ugwnLPncImTJ/C2xag&#xD;&#xa;woYSnMLopZ3CGAiewozWnsJgoJzClvScwrqPocImf5/C95SbwpaqncJJs6HCtGajwhKYnsLyf57C&#xD;&#xa;N3WhwlybncIHiZzCelGcwr4qmcIGmJ7CYi6gwiBCoMKdZpzCDOSYwt26msJ23JzChDihwsr9n8IU&#xD;&#xa;gZvCUv2bwuexoMJHB6DCzqmewvKTncIIg53Cx+idwhniocIQC6PCdhGjwu5xosIQ0Z7CF9ifwtr5&#xD;&#xa;oMLyRKPCH6+hwroSosJsFqDC4fKewp+DncJcW6DCw+ijwud9ncIOGp7C/I6kwvl0o8LyG6PCSCOk&#xD;&#xa;wpwgpsK1L6bCsTSmwjMzpsIehKfC/qynwh4pp8KUdaPCmNekwl8vpcKUBqfCqK+owi78qsKgkKvC&#xD;&#xa;olGqwpLfrMKS7avCLRWrwhw8qMJbG6vCF86qwjY+qMJ6FafCbRWpwiLcqMIrIqjCCwGowibpqsIO&#xD;&#xa;iqzCZ8SqwumzrMKd8a3CHlyuwrpjrcIs96zCrBWwwpTDrsK6KK7C9xSuwiDyrcIFwa7CGW2wwnaP&#xD;&#xa;rcInYanCD/Oowm4ZqMK+PKrCuySpwmJnqsIlgKvCz8qswmwdqsJuyanCmm2swrbwrsJNQK7CCuus&#xD;&#xa;wpDGrcJNDrHCCFOxwjscssKI4a/C36OvwsbkrsL6la3CRmutwnUKr8Kvhq/CtMSqwigSqsJZTKvC&#xD;&#xa;vqKuwmhCrsLAIqzCqLurwqTXqsJI2arC2Z6swkAQsMLCFLHC3eKrwjtGrMKrCK/CCHyswoOFqsLk&#xD;&#xa;nqfC5BKowi5+qsLDGKvCeXyswqafr8KylKzCLG2rwnNZrsL7+rDCHSCtwloyq8JEhKvCc2erwlYs&#xD;&#xa;q8KoyqzClhWqwkJzrMIE+6rCbLypwijxrMJ4r6zCkCGtwmAQr8Jpn63CDK+uwjTIqcJcL6vC3Pew&#xD;&#xa;wlmgscJO96/COBOvwn/+rMKWHqzC3wuxwrjdssLQj7PCC8+ywtR2rsKxParCcbWswv6VscLAwrDC&#xD;&#xa;J3uwwgLZssK0DLTCFEq1wkH4ssLqsLHCToSxwvocs8LcgLDCAlCwwshCssJ2mLLCLZS0wsRxtMJo&#xD;&#xa;i7HCfx2twtZIr8JiGbHCldmxwiiPssJUsrHCm86wwvKJsML2FbLCQtOuwlxGrMKVL67CTNSzwvvM&#xD;&#xa;ssLKJbTCHii0wksQscICQLHC/SGxwnxtssLlH7HC96etwqxyr8J926/CiwGzwpAatMJUubTCE6Oz&#xD;&#xa;wi1UscL/Va/CVhOvwlU5ssLk8rTCOyy2wthHtcKyabTCj6+2wpwluMLwd7nCrqy2wjkot8J+PLnC&#xD;&#xa;EL+2wkuDt8IIirrCpoC3wktvt8IXa7nCQvu1ws+5tcLv47bCKYi1wkz6tMLCgrXCfsq0wtuKssLh&#xD;&#xa;Q7TCUdy0wvTOs8K6ALTC7Sq0wtgruMJd9rXCtzy3wiXYusL8JbnCHE64whp1tsIAkrjCNaK5wuYB&#xD;&#xa;u8IM6r3CNoS9wp4sv8IqPr3CAWe8wvCpucIOpbfCTWW4wgi+u8JSs7zCyP66wuWVvMLIBr/C4qW8&#xD;&#xa;whqauMI8PLnCxca4wr69usJ5XLfCtMC3wlbSusLUC7zCvMe7wtYvvMJSprrCb2O3wtBKu8IAbL7C&#xD;&#xa;JvC9wkxPusKSMrnCMwK9wtaNucI/sLTCrqO5wtgCvcL5orvCQWi+wkPrwMLEy77CRsG/wlhnycIw&#xD;&#xa;v8/CsdvNwsJGy8LqnMvCzGrOwk9YzsLUPs3CjtvOwic70MJmI9TCEajOwvYPzsLYYdDC4M7PwjzE&#xD;&#xa;0cIuedTCEuTSwvRg0cIWz83C6uDKwpxgysIYrMrC0SLOwvAs1MI6vtTCa+LQwvCe1cIAtuPCDXrn&#xD;&#xa;wsEn38LmxNTCWJ7Uwkrb3MKnSdnCn3rQwiknzsKWcs/CiQbWwhiM28KS49nCTu/RwtdC08L6sNnC&#xD;&#xa;anDTwq9Y1MKaH9/C2HT0wqUzKsLulxvCfrIvwrh5O8Ix2kvCJiZLwox5TsJYWFPCP2JXwh3oWMLJ&#xD;&#xa;C1bCZT1fwtPibcKlbG/CNYNywm4Jc8LOqXbCSLJ/wgGuesJiM3LCEvdywtSycsKBzW/Cvy11wp/B&#xD;&#xa;esIZq3fCPEJ7wrQuhMLBpITCYZiEwl6oh8KvDonCIaKHwnrjiMLbEoHCRCd7wqWrgsLcCYTCbXuB&#xD;&#xa;wtJKf8IsQYXC20eIwlqmi8JCZ47Cbp+Sws64lcLFX5PCZ2qSwroQk8KkkJTC8e+TwpiElMIaWJTC&#xD;&#xa;woyVwiKel8JTDJfCtESZwsQqmcJHVJnC3fKawlNAmMKcYJrCzpyawnqCmMIBv5rC8sWawqq4l8KK&#xD;&#xa;GJnCV6OYwkmslMKozZbCEhiWwvCulMKPTZPCHsCTwjOflcJ2hZfCREuawk5BmcLhQ53C/TCgwm75&#xD;&#xa;n8IKWaDC2+eawhXGmMIzHJfCV4KWwiUAl8Ka+ZfCKsKYwv38mcLUypjCkXKbwn8fm8Kl+5rCEbCc&#xD;&#xa;wmK1nsJz1aDC5JWcwmdznMJHT6DCFSmbwv2FmcKa45nCeiGYwgnsmsKh6JnC+H2ewj8EoMKgtZ3C&#xD;&#xa;orCewhCdm8JZOJzCap2dwlSancIefp3CKBmawo19m8JC+ZzCSuidwgafm8IJ/JzCW02dwkDlnMIG&#xD;&#xa;6ZrC1A+cwkJ3oMK0GqHC2mmfwgBCn8KD0Z/CyS6gwq2eosLP3qDCosKbwlOzm8JCyZzCrBWdwk6/&#xD;&#xa;ncKRu5zCVPSewtjUncK9k5vCuU+bwpwEmsIiN5jC9IyZwkx8nMJWE6HC7DKhwv7nncJ5ZJ/C7UCg&#xD;&#xa;wpo5nMLUsp3CYBGewvLknsISopzCRfacwkaSocL+dJ/CkpubwhK8ncLYx6HC22ajwueSnsLHb57C&#xD;&#xa;zXChwoWlncKCnpzC+VqcwuQnmcIGi57CiyigwmRMoMKdeJzC9d+YwlGzmsJI3JzCSzChwkjtn8K+&#xD;&#xa;cJvCBPebwqK7oMJrFaDCvKyewhKHncJHcJ3Cqd6dwprlocILH6PC9yqjwuCHosKC5Z7CfNifwusC&#xD;&#xa;ocIZVKPCAbKhwpkhosKoKaDCSAufwpWWncLea6DCgOajwjqLncJCJp7CcoCkwm5Vo8KYEaPCqyyk&#xD;&#xa;wugdpsJjSKbCqlamwtFCpsIwqqfCALqnwlonp8JjiaPCNOSkwldCpcLUCqfCyqWowvzLqsKUiavC&#xD;&#xa;ImSqwn7TrMIG5avCIjOrwu+JqMJ3QKvC1sKqwoJIqMJkJafCUjqpwibhqMKqC6jCh/anwgruqsJZ&#xD;&#xa;aazCBbiqwvq2rMI+5K3C6KSuwmKkrcIBRa3CoRuwwgi1rsJDIq7CEC2uwvgSrsJAyK7CvqOwwnnF&#xD;&#xa;rcIyX6nCPA+pwk4uqMIXRarCMDOpwrZ7qsJOfqvC1NCswhM+qsKB4qnCJZCswkwmr8KMOa7Chgqt&#xD;&#xa;wkryrcJDK7HC1ouxwmb8scLWya/Cp4uvwsL3rsKAn63C3H2twkQfr8Izja/C6smqwiITqsLwSKvC&#xD;&#xa;9pquwvhJrsKiK6zC5q+rwqTIqsL216rCk6qswpgtsMJ5LLHC7uKrwrQ+rMLx+K7CdXKswkKGqsKm&#xD;&#xa;qafCXQ6owr2AqsLjH6vCSoeswkCur8LklqzCvn2rwiZtrsJ4EbHCnhutwho0q8K9iavCCGKrwsEw&#xD;&#xa;q8IkyazC0BOqwkRzrMLu8KrCGaupwiPgrMLVoqzCUBitwsYPr8IspK3CDq6uwq7IqcKQL6vCbvyw&#xD;&#xa;wgqzscJSEbDCWCCvwm36rMJDHKzCmAuxwnPcssKEhbPC/7eywklgrsLgN6rCfsWswqKdscJ9zLDC&#xD;&#xa;HHWwwt/ussIOMbTCIEa1wqjxssJErrHCjpWxwsUos8KolrDC5Gmwwq5BssLnkLLCyJi0wmdxtMI/&#xD;&#xa;e7HCGgytwi5Er8IKG7HCpuGxwsOVssKfu7HCXcOwwtOLsMJME7LCPdGuwhxJrMIgLa7CINezwv7B&#xD;&#xa;ssJIHrTCDh20wvgGscLrQbHCFSqxwvZ+ssIyGLHCNautwq5wr8IkyK/C4P6ywkoitMLyuLTCQp6z&#xD;&#xa;wrxLscJaUq/Crgyvwg1BssLu9rTCyym2witKtcIXd7TCKtS2wok9uML8hLnC18S2wqkyt8JUXrnC&#xD;&#xa;L+G2wh56t8KMgbrCuIS3wtJst8IYdLnCPgK2wriytcKw4LbCIoC1wrn4tML/ibXCEr20wmGKssLm&#xD;&#xa;RbTCzNW0wrLOs8LtBrTC1jS0wqQuuMKs9LXCwyi3wiTMusL9QLnCk2S4wmVktsI1grjCjqi5wnry&#xD;&#xa;usIu5b3C4nG9wo4Av8J/SL3CZnO8wgjBucKGzbfCaW24ws3Pu8IPwbzCbu26wpiIvMLQFL/CDcm8&#xD;&#xa;wtbCuMJLQLnCfp24wkKeusKxQ7fCfM63wjbuusLjF7zCuOC7wpRPvMKmtrrCc2i3wkViu8IrSr7C&#xD;&#xa;mNS9wvxtusJOYrnCnCe9woWUucLzurTCjKW5wp8lvcLLp7vC3ky+wuT8wMKgwL7CMae/wiJFycLM&#xD;&#xa;is/C3BfOwi6Ey8LOgcvCakzOwlhHzsKGaM3CjtbOwqRF0MJtMNTCaXXOwobmzcI6fNDCOArQwlL0&#xD;&#xa;0cI0p9TC2MLSwonb0cJOAs7Co9TKwixoysLwssrC+GnOwiQn1MK2zNTCqgnRwjaz1cLCVuTCtEXo&#xD;&#xa;wnBz38JG09TCDLnUwoI63cIzHdnCglnQwkcOzsIax8/Ctj3Wws5u28JgVdrCQjXSwvTp0sJc9tjC&#xD;&#xa;oq7Twj5d1MI+mN/CdPz0" leadInLength="0/1"  />
            </Keyframes>
           </Parameter>
           </Parameters>
           <MetaData>
            <entry key="effectIndex" val="0"/>
           </MetaData>
          </GenericEffect>
         </Effects>
         <Attributes>
          <Attribute id="3543" value="" name="ident"/>
          <Attribute id="3544" value="0" name="mixToMono"/>
         </Attributes>
         <MetaData>
          <entry key="WinSubProjectDisplayName" val=""/>
         </MetaData>
         <ExtraData>
          <Entry key="ZoomPanBin">
           <ZoomPanBin id="3545"  >
            <ZoomPanKeyframes>
             <ZoomPanKeyframe id="3546" timeRangeEnd="-9999999/1" timeRangeDuration="0/1" interpolaterName="linr"  />
            </ZoomPanKeyframes>
           </ZoomPanBin>
          </Entry>
          <Entry key="CursorEffectBin">
           <CursorEffectBin id="3547"  >
            <CursorEffectKeyframes>
            </CursorEffectKeyframes>
           </CursorEffectBin>
          </Entry>
         </ExtraData>
         <GenericTrack id="3548"  >
          <Attributes>
           <Attribute id="3549" value="" name="ident"/>
           <Attribute id="3550" value="0" name="audioMuted"/>
           <Attribute id="3551" value="0" name="videoHidden"/>
          </Attributes>
          <MetaData>
           <entry key="IsLocked" val="False"/>
           <entry key="WinTrackHeight" val="0"/>
          </MetaData>
          <Medias>
           <UnifiedMedia id="3552"  >
            <AMFile id="3553" start="0" duration="101" scalar="1/1" mediaStart="0/1" mediaDuration="101/1" trackNumber="2" src="4" channelNumber="0,1" >
             <Parameters>
              <InterpolatingParam id="3554" interp="linr"  time="0/1" value="1" leadInLength="0/1"  name="volume"/>
              <Parameter id="3555"  name="captions"/>
             </Parameters>
             <Attributes>
              <Attribute id="3556" value="" name="ident"/>
              <Attribute id="3557" value="44100" name="sampleRate"/>
              <Attribute id="3558" value="16" name="bitDepth"/>
              <Attribute id="3559" value="1" name="gain"/>
              <Attribute id="3560" value="0" name="mixToMono"/>
             </Attributes>
            </AMFile>
            <VMFile id="3561" start="0" duration="101" scalar="1/1" mediaStart="0/1" mediaDuration="101/1" trackNumber="1" src="4" >
             <Transformer>
              <VectorParam id="3562"  name="translation">
               <InterpolatingParam id="3563" interp="linr"  time="-9999999/1" value="0" leadInLength="0/1"  />
               <InterpolatingParam id="3564" interp="linr"  time="-9999999/1" value="0" leadInLength="0/1"  />
               <InterpolatingParam id="3565" interp="linr"  time="-9999999/1" value="0" leadInLength="0/1"  />
              </VectorParam>
              <VectorParam id="3566"  name="rotation">
               <InterpolatingParam id="3567" interp="linr"  time="-9999999/1" value="0" leadInLength="0/1"  />
               <InterpolatingParam id="3568" interp="linr"  time="-9999999/1" value="0" leadInLength="0/1"  />
               <InterpolatingParam id="3569" interp="linr"  time="-9999999/1" value="0" leadInLength="0/1"  />
              </VectorParam>
              <VectorParam id="3570"  name="shear">
               <InterpolatingParam id="3571" interp="linr"  time="-9999999/1" value="0" leadInLength="0/1"  />
               <InterpolatingParam id="3572" interp="linr"  time="-9999999/1" value="0" leadInLength="0/1"  />
               <InterpolatingParam id="3573" interp="linr"  time="-9999999/1" value="0" leadInLength="0/1"  />
              </VectorParam>
              <VectorParam id="3574"  name="scale">
               <InterpolatingParam id="3575" interp="linr"  time="-9999999/1" value="1" leadInLength="0/1"  />
               <InterpolatingParam id="3576" interp="linr"  time="-9999999/1" value="1" leadInLength="0/1"  />
               <InterpolatingParam id="3577" interp="linr"  time="-9999999/1" value="1" leadInLength="0/1"  />
              </VectorParam>
              <VectorParam id="3578"  name="anchor">
               <InterpolatingParam id="3579" interp="linr"  time="0/1" value="0" leadInLength="0/1"  />
               <InterpolatingParam id="3580" interp="linr"  time="0/1" value="0" leadInLength="0/1"  />
               <InterpolatingParam id="3581" interp="linr"  time="0/1" value="0" leadInLength="0/1"  />
              </VectorParam>
             </Transformer>
             <Parameters>
              <VectorParam id="3582"  name="sourceCrop">
               <InterpolatingParam id="3583" interp="linr"  time="0/1" value="0" leadInLength="0/1"  />
               <InterpolatingParam id="3584" interp="linr"  time="0/1" value="0" leadInLength="0/1"  />
               <InterpolatingParam id="3585" interp="linr"  time="0/1" value="0" leadInLength="0/1"  />
               <InterpolatingParam id="3586" interp="linr"  time="0/1" value="0" leadInLength="0/1"  />
              </VectorParam>
              <VectorParam id="3587"  name="geometryCrop">
               <InterpolatingParam id="3588" interp="linr"  time="-9999999/1" value="0" leadInLength="0/1"  />
               <InterpolatingParam id="3589" interp="linr"  time="-9999999/1" value="0" leadInLength="0/1"  />
               <InterpolatingParam id="3590" interp="linr"  time="-9999999/1" value="0" leadInLength="0/1"  />
               <InterpolatingParam id="3591" interp="linr"  time="-9999999/1" value="0" leadInLength="0/1"  />
              </VectorParam>
              <InterpolatingParam id="3592" interp="linr"  time="-9999999/1" value="1" leadInLength="0/1"  name="opacity"/>
             </Parameters>
             <Attributes>
              <Attribute id="3593" value="" name="ident"/>
             </Attributes>
             <ExtraData>
              <Entry key="ZoomPanBin">
               <ZoomPanBin id="3594"  >
                <ZoomPanKeyframes>
                </ZoomPanKeyframes>
               </ZoomPanBin>
              </Entry>
             </ExtraData>
            </VMFile>
            <MetaData>
             <entry key="WinSubProjectDisplayName" val=""/>
            </MetaData>
           </UnifiedMedia>
           <UnifiedMedia id="3595"  >
            <AMFile id="3596" start="101" duration="73" scalar="1/1" mediaStart="140/1" mediaDuration="73/1" trackNumber="2" src="4" channelNumber="0,1" >
             <Parameters>
              <InterpolatingParam id="3597" interp="linr"  time="0/1" value="1" leadInLength="0/1"  name="volume"/>
              <Parameter id="3598"  name="captions"/>
             </Parameters>
             <Attributes>
              <Attribute id="3599" value="" name="ident"/>
              <Attribute id="3600" value="44100" name="sampleRate"/>
              <Attribute id="3601" value="16" name="bitDepth"/>
              <Attribute id="3602" value="1" name="gain"/>
              <Attribute id="3603" value="0" name="mixToMono"/>
             </Attributes>
            </AMFile>
            <VMFile id="3604" start="101" duration="73" scalar="1/1" mediaStart="140/1" mediaDuration="73/1" trackNumber="1" src="4" >
             <Transformer>
              <VectorParam id="3605"  name="translation">
               <InterpolatingParam id="3606" interp="linr"  time="-9999999/1" value="0" leadInLength="0/1"  />
               <InterpolatingParam id="3607" interp="linr"  time="-9999999/1" value="0" leadInLength="0/1"  />
               <InterpolatingParam id="3608" interp="linr"  time="-9999999/1" value="0" leadInLength="0/1"  />
              </VectorParam>
              <VectorParam id="3609"  name="rotation">
               <InterpolatingParam id="3610" interp="linr"  time="-9999999/1" value="0" leadInLength="0/1"  />
               <InterpolatingParam id="3611" interp="linr"  time="-9999999/1" value="0" leadInLength="0/1"  />
               <InterpolatingParam id="3612" interp="linr"  time="-9999999/1" value="0" leadInLength="0/1"  />
              </VectorParam>
              <VectorParam id="3613"  name="shear">
               <InterpolatingParam id="3614" interp="linr"  time="-9999999/1" value="0" leadInLength="0/1"  />
               <InterpolatingParam id="3615" interp="linr"  time="-9999999/1" value="0" leadInLength="0/1"  />
               <InterpolatingParam id="3616" interp="linr"  time="-9999999/1" value="0" leadInLength="0/1"  />
              </VectorParam>
              <VectorParam id="3617"  name="scale">
               <InterpolatingParam id="3618" interp="linr"  time="-9999999/1" value="1" leadInLength="0/1"  />
               <InterpolatingParam id="3619" interp="linr"  time="-9999999/1" value="1" leadInLength="0/1"  />
               <InterpolatingParam id="3620" interp="linr"  time="-9999999/1" value="1" leadInLength="0/1"  />
              </VectorParam>
              <VectorParam id="3621"  name="anchor">
               <InterpolatingParam id="3622" interp="linr"  time="0/1" value="0" leadInLength="0/1"  />
               <InterpolatingParam id="3623" interp="linr"  time="0/1" value="0" leadInLength="0/1"  />
               <InterpolatingParam id="3624" interp="linr"  time="0/1" value="0" leadInLength="0/1"  />
              </VectorParam>
             </Transformer>
             <Parameters>
              <VectorParam id="3625"  name="sourceCrop">
               <InterpolatingParam id="3626" interp="linr"  time="0/1" value="0" leadInLength="0/1"  />
               <InterpolatingParam id="3627" interp="linr"  time="0/1" value="0" leadInLength="0/1"  />
               <InterpolatingParam id="3628" interp="linr"  time="0/1" value="0" leadInLength="0/1"  />
               <InterpolatingParam id="3629" interp="linr"  time="0/1" value="0" leadInLength="0/1"  />
              </VectorParam>
              <VectorParam id="3630"  name="geometryCrop">
               <InterpolatingParam id="3631" interp="linr"  time="-9999999/1" value="0" leadInLength="0/1"  />
               <InterpolatingParam id="3632" interp="linr"  time="-9999999/1" value="0" leadInLength="0/1"  />
               <InterpolatingParam id="3633" interp="linr"  time="-9999999/1" value="0" leadInLength="0/1"  />
               <InterpolatingParam id="3634" interp="linr"  time="-9999999/1" value="0" leadInLength="0/1"  />
              </VectorParam>
              <InterpolatingParam id="3635" interp="linr"  time="-9999999/1" value="1" leadInLength="0/1"  name="opacity"/>
             </Parameters>
             <Attributes>
              <Attribute id="3636" value="" name="ident"/>
             </Attributes>
             <ExtraData>
              <Entry key="ZoomPanBin">
               <ZoomPanBin id="3637"  >
                <ZoomPanKeyframes>
                </ZoomPanKeyframes>
               </ZoomPanBin>
              </Entry>
             </ExtraData>
            </VMFile>
            <MetaData>
             <entry key="WinSubProjectDisplayName" val=""/>
            </MetaData>
           </UnifiedMedia>
           <UnifiedMedia id="3638"  >
            <AMFile id="3639" start="174" duration="132" scalar="1/1" mediaStart="233/1" mediaDuration="132/1" trackNumber="2" src="4" channelNumber="0,1" >
             <Parameters>
              <InterpolatingParam id="3640" interp="linr"  time="0/1" value="1" leadInLength="0/1"  name="volume"/>
              <Parameter id="3641"  name="captions"/>
             </Parameters>
             <Attributes>
              <Attribute id="3642" value="" name="ident"/>
              <Attribute id="3643" value="44100" name="sampleRate"/>
              <Attribute id="3644" value="16" name="bitDepth"/>
              <Attribute id="3645" value="1" name="gain"/>
              <Attribute id="3646" value="0" name="mixToMono"/>
             </Attributes>
            </AMFile>
            <VMFile id="3647" start="174" duration="132" scalar="1/1" mediaStart="233/1" mediaDuration="132/1" trackNumber="1" src="4" >
             <Transformer>
              <VectorParam id="3648"  name="translation">
               <InterpolatingParam id="3649" interp="linr"  time="-9999999/1" value="0" leadInLength="0/1"  />
               <InterpolatingParam id="3650" interp="linr"  time="-9999999/1" value="0" leadInLength="0/1"  />
               <InterpolatingParam id="3651" interp="linr"  time="-9999999/1" value="0" leadInLength="0/1"  />
              </VectorParam>
              <VectorParam id="3652"  name="rotation">
               <InterpolatingParam id="3653" interp="linr"  time="-9999999/1" value="0" leadInLength="0/1"  />
               <InterpolatingParam id="3654" interp="linr"  time="-9999999/1" value="0" leadInLength="0/1"  />
               <InterpolatingParam id="3655" interp="linr"  time="-9999999/1" value="0" leadInLength="0/1"  />
              </VectorParam>
              <VectorParam id="3656"  name="shear">
               <InterpolatingParam id="3657" interp="linr"  time="-9999999/1" value="0" leadInLength="0/1"  />
               <InterpolatingParam id="3658" interp="linr"  time="-9999999/1" value="0" leadInLength="0/1"  />
               <InterpolatingParam id="3659" interp="linr"  time="-9999999/1" value="0" leadInLength="0/1"  />
              </VectorParam>
              <VectorParam id="3660"  name="scale">
               <InterpolatingParam id="3661" interp="linr"  time="-9999999/1" value="1" leadInLength="0/1"  />
               <InterpolatingParam id="3662" interp="linr"  time="-9999999/1" value="1" leadInLength="0/1"  />
               <InterpolatingParam id="3663" interp="linr"  time="-9999999/1" value="1" leadInLength="0/1"  />
              </VectorParam>
              <VectorParam id="3664"  name="anchor">
               <InterpolatingParam id="3665" interp="linr"  time="0/1" value="0" leadInLength="0/1"  />
               <InterpolatingParam id="3666" interp="linr"  time="0/1" value="0" leadInLength="0/1"  />
               <InterpolatingParam id="3667" interp="linr"  time="0/1" value="0" leadInLength="0/1"  />
              </VectorParam>
             </Transformer>
             <Parameters>
              <VectorParam id="3668"  name="sourceCrop">
               <InterpolatingParam id="3669" interp="linr"  time="0/1" value="0" leadInLength="0/1"  />
               <InterpolatingParam id="3670" interp="linr"  time="0/1" value="0" leadInLength="0/1"  />
               <InterpolatingParam id="3671" interp="linr"  time="0/1" value="0" leadInLength="0/1"  />
               <InterpolatingParam id="3672" interp="linr"  time="0/1" value="0" leadInLength="0/1"  />
              </VectorParam>
              <VectorParam id="3673"  name="geometryCrop">
               <InterpolatingParam id="3674" interp="linr"  time="-9999999/1" value="0" leadInLength="0/1"  />
               <InterpolatingParam id="3675" interp="linr"  time="-9999999/1" value="0" leadInLength="0/1"  />
               <InterpolatingParam id="3676" interp="linr"  time="-9999999/1" value="0" leadInLength="0/1"  />
               <InterpolatingParam id="3677" interp="linr"  time="-9999999/1" value="0" leadInLength="0/1"  />
              </VectorParam>
              <InterpolatingParam id="3678" interp="linr"  time="-9999999/1" value="1" leadInLength="0/1"  name="opacity"/>
             </Parameters>
             <Attributes>
              <Attribute id="3679" value="" name="ident"/>
             </Attributes>
             <ExtraData>
              <Entry key="ZoomPanBin">
               <ZoomPanBin id="3680"  >
                <ZoomPanKeyframes>
                </ZoomPanKeyframes>
               </ZoomPanBin>
              </Entry>
             </ExtraData>
            </VMFile>
            <MetaData>
             <entry key="WinSubProjectDisplayName" val=""/>
            </MetaData>
           </UnifiedMedia>
           <UnifiedMedia id="3681"  >
            <AMFile id="3682" start="306" duration="92" scalar="1/1" mediaStart="383/1" mediaDuration="92/1" trackNumber="2" src="4" channelNumber="0,1" >
             <Parameters>
              <InterpolatingParam id="3683" interp="linr"  time="0/1" value="1" leadInLength="0/1"  name="volume"/>
              <Parameter id="3684"  name="captions"/>
             </Parameters>
             <Attributes>
              <Attribute id="3685" value="" name="ident"/>
              <Attribute id="3686" value="44100" name="sampleRate"/>
              <Attribute id="3687" value="16" name="bitDepth"/>
              <Attribute id="3688" value="1" name="gain"/>
              <Attribute id="3689" value="0" name="mixToMono"/>
             </Attributes>
            </AMFile>
            <VMFile id="3690" start="306" duration="92" scalar="1/1" mediaStart="383/1" mediaDuration="92/1" trackNumber="1" src="4" >
             <Transformer>
              <VectorParam id="3691"  name="translation">
               <InterpolatingParam id="3692" interp="linr"  time="-9999999/1" value="0" leadInLength="0/1"  />
               <InterpolatingParam id="3693" interp="linr"  time="-9999999/1" value="0" leadInLength="0/1"  />
               <InterpolatingParam id="3694" interp="linr"  time="-9999999/1" value="0" leadInLength="0/1"  />
              </VectorParam>
              <VectorParam id="3695"  name="rotation">
               <InterpolatingParam id="3696" interp="linr"  time="-9999999/1" value="0" leadInLength="0/1"  />
               <InterpolatingParam id="3697" interp="linr"  time="-9999999/1" value="0" leadInLength="0/1"  />
               <InterpolatingParam id="3698" interp="linr"  time="-9999999/1" value="0" leadInLength="0/1"  />
              </VectorParam>
              <VectorParam id="3699"  name="shear">
               <InterpolatingParam id="3700" interp="linr"  time="-9999999/1" value="0" leadInLength="0/1"  />
               <InterpolatingParam id="3701" interp="linr"  time="-9999999/1" value="0" leadInLength="0/1"  />
               <InterpolatingParam id="3702" interp="linr"  time="-9999999/1" value="0" leadInLength="0/1"  />
              </VectorParam>
              <VectorParam id="3703"  name="scale">
               <InterpolatingParam id="3704" interp="linr"  time="-9999999/1" value="1" leadInLength="0/1"  />
               <InterpolatingParam id="3705" interp="linr"  time="-9999999/1" value="1" leadInLength="0/1"  />
               <InterpolatingParam id="3706" interp="linr"  time="-9999999/1" value="1" leadInLength="0/1"  />
              </VectorParam>
              <VectorParam id="3707"  name="anchor">
               <InterpolatingParam id="3708" interp="linr"  time="0/1" value="0" leadInLength="0/1"  />
               <InterpolatingParam id="3709" interp="linr"  time="0/1" value="0" leadInLength="0/1"  />
               <InterpolatingParam id="3710" interp="linr"  time="0/1" value="0" leadInLength="0/1"  />
              </VectorParam>
             </Transformer>
             <Parameters>
              <VectorParam id="3711"  name="sourceCrop">
               <InterpolatingParam id="3712" interp="linr"  time="0/1" value="0" leadInLength="0/1"  />
               <InterpolatingParam id="3713" interp="linr"  time="0/1" value="0" leadInLength="0/1"  />
               <InterpolatingParam id="3714" interp="linr"  time="0/1" value="0" leadInLength="0/1"  />
               <InterpolatingParam id="3715" interp="linr"  time="0/1" value="0" leadInLength="0/1"  />
              </VectorParam>
              <VectorParam id="3716"  name="geometryCrop">
               <InterpolatingParam id="3717" interp="linr"  time="-9999999/1" value="0" leadInLength="0/1"  />
               <InterpolatingParam id="3718" interp="linr"  time="-9999999/1" value="0" leadInLength="0/1"  />
               <InterpolatingParam id="3719" interp="linr"  time="-9999999/1" value="0" leadInLength="0/1"  />
               <InterpolatingParam id="3720" interp="linr"  time="-9999999/1" value="0" leadInLength="0/1"  />
              </VectorParam>
              <InterpolatingParam id="3721" interp="linr"  time="-9999999/1" value="1" leadInLength="0/1"  name="opacity"/>
             </Parameters>
             <Attributes>
              <Attribute id="3722" value="" name="ident"/>
             </Attributes>
             <ExtraData>
              <Entry key="ZoomPanBin">
               <ZoomPanBin id="3723"  >
                <ZoomPanKeyframes>
                </ZoomPanKeyframes>
               </ZoomPanBin>
              </Entry>
             </ExtraData>
            </VMFile>
            <MetaData>
             <entry key="WinSubProjectDisplayName" val=""/>
            </MetaData>
           </UnifiedMedia>
           <UnifiedMedia id="3724"  >
            <AMFile id="3725" start="398" duration="178" scalar="1/1" mediaStart="497/1" mediaDuration="178/1" trackNumber="2" src="4" channelNumber="0,1" >
             <Parameters>
              <InterpolatingParam id="3726" interp="linr"  time="0/1" value="1" leadInLength="0/1"  name="volume"/>
              <Parameter id="3727"  name="captions"/>
             </Parameters>
             <Attributes>
              <Attribute id="3728" value="" name="ident"/>
              <Attribute id="3729" value="44100" name="sampleRate"/>
              <Attribute id="3730" value="16" name="bitDepth"/>
              <Attribute id="3731" value="1" name="gain"/>
              <Attribute id="3732" value="0" name="mixToMono"/>
             </Attributes>
            </AMFile>
            <VMFile id="3733" start="398" duration="178" scalar="1/1" mediaStart="497/1" mediaDuration="178/1" trackNumber="1" src="4" >
             <Transformer>
              <VectorParam id="3734"  name="translation">
               <InterpolatingParam id="3735" interp="linr"  time="-9999999/1" value="0" leadInLength="0/1"  />
               <InterpolatingParam id="3736" interp="linr"  time="-9999999/1" value="0" leadInLength="0/1"  />
               <InterpolatingParam id="3737" interp="linr"  time="-9999999/1" value="0" leadInLength="0/1"  />
              </VectorParam>
              <VectorParam id="3738"  name="rotation">
               <InterpolatingParam id="3739" interp="linr"  time="-9999999/1" value="0" leadInLength="0/1"  />
               <InterpolatingParam id="3740" interp="linr"  time="-9999999/1" value="0" leadInLength="0/1"  />
               <InterpolatingParam id="3741" interp="linr"  time="-9999999/1" value="0" leadInLength="0/1"  />
              </VectorParam>
              <VectorParam id="3742"  name="shear">
               <InterpolatingParam id="3743" interp="linr"  time="-9999999/1" value="0" leadInLength="0/1"  />
               <InterpolatingParam id="3744" interp="linr"  time="-9999999/1" value="0" leadInLength="0/1"  />
               <InterpolatingParam id="3745" interp="linr"  time="-9999999/1" value="0" leadInLength="0/1"  />
              </VectorParam>
              <VectorParam id="3746"  name="scale">
               <InterpolatingParam id="3747" interp="linr"  time="-9999999/1" value="1" leadInLength="0/1"  />
               <InterpolatingParam id="3748" interp="linr"  time="-9999999/1" value="1" leadInLength="0/1"  />
               <InterpolatingParam id="3749" interp="linr"  time="-9999999/1" value="1" leadInLength="0/1"  />
              </VectorParam>
              <VectorParam id="3750"  name="anchor">
               <InterpolatingParam id="3751" interp="linr"  time="0/1" value="0" leadInLength="0/1"  />
               <InterpolatingParam id="3752" interp="linr"  time="0/1" value="0" leadInLength="0/1"  />
               <InterpolatingParam id="3753" interp="linr"  time="0/1" value="0" leadInLength="0/1"  />
              </VectorParam>
             </Transformer>
             <Parameters>
              <VectorParam id="3754"  name="sourceCrop">
               <InterpolatingParam id="3755" interp="linr"  time="0/1" value="0" leadInLength="0/1"  />
               <InterpolatingParam id="3756" interp="linr"  time="0/1" value="0" leadInLength="0/1"  />
               <InterpolatingParam id="3757" interp="linr"  time="0/1" value="0" leadInLength="0/1"  />
               <InterpolatingParam id="3758" interp="linr"  time="0/1" value="0" leadInLength="0/1"  />
              </VectorParam>
              <VectorParam id="3759"  name="geometryCrop">
               <InterpolatingParam id="3760" interp="linr"  time="-9999999/1" value="0" leadInLength="0/1"  />
               <InterpolatingParam id="3761" interp="linr"  time="-9999999/1" value="0" leadInLength="0/1"  />
               <InterpolatingParam id="3762" interp="linr"  time="-9999999/1" value="0" leadInLength="0/1"  />
               <InterpolatingParam id="3763" interp="linr"  time="-9999999/1" value="0" leadInLength="0/1"  />
              </VectorParam>
              <InterpolatingParam id="3764" interp="linr"  time="-9999999/1" value="1" leadInLength="0/1"  name="opacity"/>
             </Parameters>
             <Attributes>
              <Attribute id="3765" value="" name="ident"/>
             </Attributes>
             <ExtraData>
              <Entry key="ZoomPanBin">
               <ZoomPanBin id="3766"  >
                <ZoomPanKeyframes>
                </ZoomPanKeyframes>
               </ZoomPanBin>
              </Entry>
             </ExtraData>
            </VMFile>
            <MetaData>
             <entry key="WinSubProjectDisplayName" val=""/>
            </MetaData>
           </UnifiedMedia>
           <UnifiedMedia id="3767"  >
            <AMFile id="3768" start="576" duration="22" scalar="1/1" mediaStart="680/1" mediaDuration="22/1" trackNumber="2" src="4" channelNumber="0,1" >
             <Parameters>
              <InterpolatingParam id="3769" interp="linr"  time="0/1" value="1" leadInLength="0/1"  name="volume"/>
              <Parameter id="3770"  name="captions"/>
             </Parameters>
             <Attributes>
              <Attribute id="3771" value="" name="ident"/>
              <Attribute id="3772" value="44100" name="sampleRate"/>
              <Attribute id="3773" value="16" name="bitDepth"/>
              <Attribute id="3774" value="1" name="gain"/>
              <Attribute id="3775" value="0" name="mixToMono"/>
             </Attributes>
            </AMFile>
            <VMFile id="3776" start="576" duration="22" scalar="1/1" mediaStart="680/1" mediaDuration="22/1" trackNumber="1" src="4" >
             <Transformer>
              <VectorParam id="3777"  name="translation">
               <InterpolatingParam id="3778" interp="linr"  time="-9999999/1" value="0" leadInLength="0/1"  />
               <InterpolatingParam id="3779" interp="linr"  time="-9999999/1" value="0" leadInLength="0/1"  />
               <InterpolatingParam id="3780" interp="linr"  time="-9999999/1" value="0" leadInLength="0/1"  />
              </VectorParam>
              <VectorParam id="3781"  name="rotation">
               <InterpolatingParam id="3782" interp="linr"  time="-9999999/1" value="0" leadInLength="0/1"  />
               <InterpolatingParam id="3783" interp="linr"  time="-9999999/1" value="0" leadInLength="0/1"  />
               <InterpolatingParam id="3784" interp="linr"  time="-9999999/1" value="0" leadInLength="0/1"  />
              </VectorParam>
              <VectorParam id="3785"  name="shear">
               <InterpolatingParam id="3786" interp="linr"  time="-9999999/1" value="0" leadInLength="0/1"  />
               <InterpolatingParam id="3787" interp="linr"  time="-9999999/1" value="0" leadInLength="0/1"  />
               <InterpolatingParam id="3788" interp="linr"  time="-9999999/1" value="0" leadInLength="0/1"  />
              </VectorParam>
              <VectorParam id="3789"  name="scale">
               <InterpolatingParam id="3790" interp="linr"  time="-9999999/1" value="1" leadInLength="0/1"  />
               <InterpolatingParam id="3791" interp="linr"  time="-9999999/1" value="1" leadInLength="0/1"  />
               <InterpolatingParam id="3792" interp="linr"  time="-9999999/1" value="1" leadInLength="0/1"  />
              </VectorParam>
              <VectorParam id="3793"  name="anchor">
               <InterpolatingParam id="3794" interp="linr"  time="0/1" value="0" leadInLength="0/1"  />
               <InterpolatingParam id="3795" interp="linr"  time="0/1" value="0" leadInLength="0/1"  />
               <InterpolatingParam id="3796" interp="linr"  time="0/1" value="0" leadInLength="0/1"  />
              </VectorParam>
             </Transformer>
             <Parameters>
              <VectorParam id="3797"  name="sourceCrop">
               <InterpolatingParam id="3798" interp="linr"  time="0/1" value="0" leadInLength="0/1"  />
               <InterpolatingParam id="3799" interp="linr"  time="0/1" value="0" leadInLength="0/1"  />
               <InterpolatingParam id="3800" interp="linr"  time="0/1" value="0" leadInLength="0/1"  />
               <InterpolatingParam id="3801" interp="linr"  time="0/1" value="0" leadInLength="0/1"  />
              </VectorParam>
              <VectorParam id="3802"  name="geometryCrop">
               <InterpolatingParam id="3803" interp="linr"  time="-9999999/1" value="0" leadInLength="0/1"  />
               <InterpolatingParam id="3804" interp="linr"  time="-9999999/1" value="0" leadInLength="0/1"  />
               <InterpolatingParam id="3805" interp="linr"  time="-9999999/1" value="0" leadInLength="0/1"  />
               <InterpolatingParam id="3806" interp="linr"  time="-9999999/1" value="0" leadInLength="0/1"  />
              </VectorParam>
              <InterpolatingParam id="3807" interp="linr"  time="-9999999/1" value="1" leadInLength="0/1"  name="opacity"/>
             </Parameters>
             <Attributes>
              <Attribute id="3808" value="" name="ident"/>
             </Attributes>
             <ExtraData>
              <Entry key="ZoomPanBin">
               <ZoomPanBin id="3809"  >
                <ZoomPanKeyframes>
                </ZoomPanKeyframes>
               </ZoomPanBin>
              </Entry>
             </ExtraData>
            </VMFile>
            <MetaData>
             <entry key="WinSubProjectDisplayName" val=""/>
            </MetaData>
           </UnifiedMedia>
           <UnifiedMedia id="3810"  >
            <AMFile id="3811" start="598" duration="160" scalar="1/1" mediaStart="710/1" mediaDuration="160/1" trackNumber="2" src="4" channelNumber="0,1" >
             <Parameters>
              <InterpolatingParam id="3812" interp="linr"  time="0/1" value="1" leadInLength="0/1"  name="volume"/>
              <Parameter id="3813"  name="captions"/>
             </Parameters>
             <Attributes>
              <Attribute id="3814" value="" name="ident"/>
              <Attribute id="3815" value="44100" name="sampleRate"/>
              <Attribute id="3816" value="16" name="bitDepth"/>
              <Attribute id="3817" value="1" name="gain"/>
              <Attribute id="3818" value="0" name="mixToMono"/>
             </Attributes>
            </AMFile>
            <VMFile id="3819" start="598" duration="160" scalar="1/1" mediaStart="710/1" mediaDuration="160/1" trackNumber="1" src="4" >
             <Transformer>
              <VectorParam id="3820"  name="translation">
               <InterpolatingParam id="3821" interp="linr"  time="-9999999/1" value="0" leadInLength="0/1"  />
               <InterpolatingParam id="3822" interp="linr"  time="-9999999/1" value="0" leadInLength="0/1"  />
               <InterpolatingParam id="3823" interp="linr"  time="-9999999/1" value="0" leadInLength="0/1"  />
              </VectorParam>
              <VectorParam id="3824"  name="rotation">
               <InterpolatingParam id="3825" interp="linr"  time="-9999999/1" value="0" leadInLength="0/1"  />
               <InterpolatingParam id="3826" interp="linr"  time="-9999999/1" value="0" leadInLength="0/1"  />
               <InterpolatingParam id="3827" interp="linr"  time="-9999999/1" value="0" leadInLength="0/1"  />
              </VectorParam>
              <VectorParam id="3828"  name="shear">
               <InterpolatingParam id="3829" interp="linr"  time="-9999999/1" value="0" leadInLength="0/1"  />
               <InterpolatingParam id="3830" interp="linr"  time="-9999999/1" value="0" leadInLength="0/1"  />
               <InterpolatingParam id="3831" interp="linr"  time="-9999999/1" value="0" leadInLength="0/1"  />
              </VectorParam>
              <VectorParam id="3832"  name="scale">
               <InterpolatingParam id="3833" interp="linr"  time="-9999999/1" value="1" leadInLength="0/1"  />
               <InterpolatingParam id="3834" interp="linr"  time="-9999999/1" value="1" leadInLength="0/1"  />
               <InterpolatingParam id="3835" interp="linr"  time="-9999999/1" value="1" leadInLength="0/1"  />
              </VectorParam>
              <VectorParam id="3836"  name="anchor">
               <InterpolatingParam id="3837" interp="linr"  time="0/1" value="0" leadInLength="0/1"  />
               <InterpolatingParam id="3838" interp="linr"  time="0/1" value="0" leadInLength="0/1"  />
               <InterpolatingParam id="3839" interp="linr"  time="0/1" value="0" leadInLength="0/1"  />
              </VectorParam>
             </Transformer>
             <Parameters>
              <VectorParam id="3840"  name="sourceCrop">
               <InterpolatingParam id="3841" interp="linr"  time="0/1" value="0" leadInLength="0/1"  />
               <InterpolatingParam id="3842" interp="linr"  time="0/1" value="0" leadInLength="0/1"  />
               <InterpolatingParam id="3843" interp="linr"  time="0/1" value="0" leadInLength="0/1"  />
               <InterpolatingParam id="3844" interp="linr"  time="0/1" value="0" leadInLength="0/1"  />
              </VectorParam>
              <VectorParam id="3845"  name="geometryCrop">
               <InterpolatingParam id="3846" interp="linr"  time="-9999999/1" value="0" leadInLength="0/1"  />
               <InterpolatingParam id="3847" interp="linr"  time="-9999999/1" value="0" leadInLength="0/1"  />
               <InterpolatingParam id="3848" interp="linr"  time="-9999999/1" value="0" leadInLength="0/1"  />
               <InterpolatingParam id="3849" interp="linr"  time="-9999999/1" value="0" leadInLength="0/1"  />
              </VectorParam>
              <InterpolatingParam id="3850" interp="linr"  time="-9999999/1" value="1" leadInLength="0/1"  name="opacity"/>
             </Parameters>
             <Attributes>
              <Attribute id="3851" value="" name="ident"/>
             </Attributes>
             <ExtraData>
              <Entry key="ZoomPanBin">
               <ZoomPanBin id="3852"  >
                <ZoomPanKeyframes>
                </ZoomPanKeyframes>
               </ZoomPanBin>
              </Entry>
             </ExtraData>
            </VMFile>
            <MetaData>
             <entry key="WinSubProjectDisplayName" val=""/>
            </MetaData>
           </UnifiedMedia>
           <UnifiedMedia id="3853"  >
            <AMFile id="3854" start="758" duration="87" scalar="1/1" mediaStart="885/1" mediaDuration="87/1" trackNumber="2" src="4" channelNumber="0,1" >
             <Parameters>
              <InterpolatingParam id="3855" interp="linr"  time="0/1" value="1" leadInLength="0/1"  name="volume"/>
              <Parameter id="3856"  name="captions"/>
             </Parameters>
             <Attributes>
              <Attribute id="3857" value="" name="ident"/>
              <Attribute id="3858" value="44100" name="sampleRate"/>
              <Attribute id="3859" value="16" name="bitDepth"/>
              <Attribute id="3860" value="1" name="gain"/>
              <Attribute id="3861" value="0" name="mixToMono"/>
             </Attributes>
            </AMFile>
            <VMFile id="3862" start="758" duration="87" scalar="1/1" mediaStart="885/1" mediaDuration="87/1" trackNumber="1" src="4" >
             <Transformer>
              <VectorParam id="3863"  name="translation">
               <InterpolatingParam id="3864" interp="linr"  time="-9999999/1" value="0" leadInLength="0/1"  />
               <InterpolatingParam id="3865" interp="linr"  time="-9999999/1" value="0" leadInLength="0/1"  />
               <InterpolatingParam id="3866" interp="linr"  time="-9999999/1" value="0" leadInLength="0/1"  />
              </VectorParam>
              <VectorParam id="3867"  name="rotation">
               <InterpolatingParam id="3868" interp="linr"  time="-9999999/1" value="0" leadInLength="0/1"  />
               <InterpolatingParam id="3869" interp="linr"  time="-9999999/1" value="0" leadInLength="0/1"  />
               <InterpolatingParam id="3870" interp="linr"  time="-9999999/1" value="0" leadInLength="0/1"  />
              </VectorParam>
              <VectorParam id="3871"  name="shear">
               <InterpolatingParam id="3872" interp="linr"  time="-9999999/1" value="0" leadInLength="0/1"  />
               <InterpolatingParam id="3873" interp="linr"  time="-9999999/1" value="0" leadInLength="0/1"  />
               <InterpolatingParam id="3874" interp="linr"  time="-9999999/1" value="0" leadInLength="0/1"  />
              </VectorParam>
              <VectorParam id="3875"  name="scale">
               <InterpolatingParam id="3876" interp="linr"  time="-9999999/1" value="1" leadInLength="0/1"  />
               <InterpolatingParam id="3877" interp="linr"  time="-9999999/1" value="1" leadInLength="0/1"  />
               <InterpolatingParam id="3878" interp="linr"  time="-9999999/1" value="1" leadInLength="0/1"  />
              </VectorParam>
              <VectorParam id="3879"  name="anchor">
               <InterpolatingParam id="3880" interp="linr"  time="0/1" value="0" leadInLength="0/1"  />
               <InterpolatingParam id="3881" interp="linr"  time="0/1" value="0" leadInLength="0/1"  />
               <InterpolatingParam id="3882" interp="linr"  time="0/1" value="0" leadInLength="0/1"  />
              </VectorParam>
             </Transformer>
             <Parameters>
              <VectorParam id="3883"  name="sourceCrop">
               <InterpolatingParam id="3884" interp="linr"  time="0/1" value="0" leadInLength="0/1"  />
               <InterpolatingParam id="3885" interp="linr"  time="0/1" value="0" leadInLength="0/1"  />
               <InterpolatingParam id="3886" interp="linr"  time="0/1" value="0" leadInLength="0/1"  />
               <InterpolatingParam id="3887" interp="linr"  time="0/1" value="0" leadInLength="0/1"  />
              </VectorParam>
              <VectorParam id="3888"  name="geometryCrop">
               <InterpolatingParam id="3889" interp="linr"  time="-9999999/1" value="0" leadInLength="0/1"  />
               <InterpolatingParam id="3890" interp="linr"  time="-9999999/1" value="0" leadInLength="0/1"  />
               <InterpolatingParam id="3891" interp="linr"  time="-9999999/1" value="0" leadInLength="0/1"  />
               <InterpolatingParam id="3892" interp="linr"  time="-9999999/1" value="0" leadInLength="0/1"  />
              </VectorParam>
              <InterpolatingParam id="3893" interp="linr"  time="-9999999/1" value="1" leadInLength="0/1"  name="opacity"/>
             </Parameters>
             <Attributes>
              <Attribute id="3894" value="" name="ident"/>
             </Attributes>
             <ExtraData>
              <Entry key="ZoomPanBin">
               <ZoomPanBin id="3895"  >
                <ZoomPanKeyframes>
                </ZoomPanKeyframes>
               </ZoomPanBin>
              </Entry>
             </ExtraData>
            </VMFile>
            <MetaData>
             <entry key="WinSubProjectDisplayName" val=""/>
            </MetaData>
           </UnifiedMedia>
           <UnifiedMedia id="3896"  >
            <AMFile id="3897" start="845" duration="254" scalar="1/1" mediaStart="1020/1" mediaDuration="254/1" trackNumber="2" src="4" channelNumber="0,1" >
             <Parameters>
              <InterpolatingParam id="3898" interp="linr"  time="0/1" value="1" leadInLength="0/1"  name="volume"/>
              <Parameter id="3899"  name="captions"/>
             </Parameters>
             <Attributes>
              <Attribute id="3900" value="" name="ident"/>
              <Attribute id="3901" value="44100" name="sampleRate"/>
              <Attribute id="3902" value="16" name="bitDepth"/>
              <Attribute id="3903" value="1" name="gain"/>
              <Attribute id="3904" value="0" name="mixToMono"/>
             </Attributes>
            </AMFile>
            <VMFile id="3905" start="845" duration="254" scalar="1/1" mediaStart="1020/1" mediaDuration="254/1" trackNumber="1" src="4" >
             <Transformer>
              <VectorParam id="3906"  name="translation">
               <InterpolatingParam id="3907" interp="linr"  time="-9999999/1" value="0" leadInLength="0/1"  />
               <InterpolatingParam id="3908" interp="linr"  time="-9999999/1" value="0" leadInLength="0/1"  />
               <InterpolatingParam id="3909" interp="linr"  time="-9999999/1" value="0" leadInLength="0/1"  />
              </VectorParam>
              <VectorParam id="3910"  name="rotation">
               <InterpolatingParam id="3911" interp="linr"  time="-9999999/1" value="0" leadInLength="0/1"  />
               <InterpolatingParam id="3912" interp="linr"  time="-9999999/1" value="0" leadInLength="0/1"  />
               <InterpolatingParam id="3913" interp="linr"  time="-9999999/1" value="0" leadInLength="0/1"  />
              </VectorParam>
              <VectorParam id="3914"  name="shear">
               <InterpolatingParam id="3915" interp="linr"  time="-9999999/1" value="0" leadInLength="0/1"  />
               <InterpolatingParam id="3916" interp="linr"  time="-9999999/1" value="0" leadInLength="0/1"  />
               <InterpolatingParam id="3917" interp="linr"  time="-9999999/1" value="0" leadInLength="0/1"  />
              </VectorParam>
              <VectorParam id="3918"  name="scale">
               <InterpolatingParam id="3919" interp="linr"  time="-9999999/1" value="1" leadInLength="0/1"  />
               <InterpolatingParam id="3920" interp="linr"  time="-9999999/1" value="1" leadInLength="0/1"  />
               <InterpolatingParam id="3921" interp="linr"  time="-9999999/1" value="1" leadInLength="0/1"  />
              </VectorParam>
              <VectorParam id="3922"  name="anchor">
               <InterpolatingParam id="3923" interp="linr"  time="0/1" value="0" leadInLength="0/1"  />
               <InterpolatingParam id="3924" interp="linr"  time="0/1" value="0" leadInLength="0/1"  />
               <InterpolatingParam id="3925" interp="linr"  time="0/1" value="0" leadInLength="0/1"  />
              </VectorParam>
             </Transformer>
             <Parameters>
              <VectorParam id="3926"  name="sourceCrop">
               <InterpolatingParam id="3927" interp="linr"  time="0/1" value="0" leadInLength="0/1"  />
               <InterpolatingParam id="3928" interp="linr"  time="0/1" value="0" leadInLength="0/1"  />
               <InterpolatingParam id="3929" interp="linr"  time="0/1" value="0" leadInLength="0/1"  />
               <InterpolatingParam id="3930" interp="linr"  time="0/1" value="0" leadInLength="0/1"  />
              </VectorParam>
              <VectorParam id="3931"  name="geometryCrop">
               <InterpolatingParam id="3932" interp="linr"  time="-9999999/1" value="0" leadInLength="0/1"  />
               <InterpolatingParam id="3933" interp="linr"  time="-9999999/1" value="0" leadInLength="0/1"  />
               <InterpolatingParam id="3934" interp="linr"  time="-9999999/1" value="0" leadInLength="0/1"  />
               <InterpolatingParam id="3935" interp="linr"  time="-9999999/1" value="0" leadInLength="0/1"  />
              </VectorParam>
              <InterpolatingParam id="3936" interp="linr"  time="-9999999/1" value="1" leadInLength="0/1"  name="opacity"/>
             </Parameters>
             <Attributes>
              <Attribute id="3937" value="" name="ident"/>
             </Attributes>
             <ExtraData>
              <Entry key="ZoomPanBin">
               <ZoomPanBin id="3938"  >
                <ZoomPanKeyframes>
                </ZoomPanKeyframes>
               </ZoomPanBin>
              </Entry>
             </ExtraData>
            </VMFile>
            <MetaData>
             <entry key="WinSubProjectDisplayName" val=""/>
            </MetaData>
           </UnifiedMedia>
           <UnifiedMedia id="3939"  >
            <AMFile id="3940" start="1099" duration="60" scalar="1/1" mediaStart="1302/1" mediaDuration="60/1" trackNumber="2" src="4" channelNumber="0,1" >
             <Parameters>
              <InterpolatingParam id="3941" interp="linr"  time="0/1" value="1" leadInLength="0/1"  name="volume"/>
              <Parameter id="3942"  name="captions"/>
             </Parameters>
             <Attributes>
              <Attribute id="3943" value="" name="ident"/>
              <Attribute id="3944" value="44100" name="sampleRate"/>
              <Attribute id="3945" value="16" name="bitDepth"/>
              <Attribute id="3946" value="1" name="gain"/>
              <Attribute id="3947" value="0" name="mixToMono"/>
             </Attributes>
            </AMFile>
            <VMFile id="3948" start="1099" duration="60" scalar="1/1" mediaStart="1302/1" mediaDuration="60/1" trackNumber="1" src="4" >
             <Transformer>
              <VectorParam id="3949"  name="translation">
               <InterpolatingParam id="3950" interp="linr"  time="-9999999/1" value="0" leadInLength="0/1"  />
               <InterpolatingParam id="3951" interp="linr"  time="-9999999/1" value="0" leadInLength="0/1"  />
               <InterpolatingParam id="3952" interp="linr"  time="-9999999/1" value="0" leadInLength="0/1"  />
              </VectorParam>
              <VectorParam id="3953"  name="rotation">
               <InterpolatingParam id="3954" interp="linr"  time="-9999999/1" value="0" leadInLength="0/1"  />
               <InterpolatingParam id="3955" interp="linr"  time="-9999999/1" value="0" leadInLength="0/1"  />
               <InterpolatingParam id="3956" interp="linr"  time="-9999999/1" value="0" leadInLength="0/1"  />
              </VectorParam>
              <VectorParam id="3957"  name="shear">
               <InterpolatingParam id="3958" interp="linr"  time="-9999999/1" value="0" leadInLength="0/1"  />
               <InterpolatingParam id="3959" interp="linr"  time="-9999999/1" value="0" leadInLength="0/1"  />
               <InterpolatingParam id="3960" interp="linr"  time="-9999999/1" value="0" leadInLength="0/1"  />
              </VectorParam>
              <VectorParam id="3961"  name="scale">
               <InterpolatingParam id="3962" interp="linr"  time="-9999999/1" value="1" leadInLength="0/1"  />
               <InterpolatingParam id="3963" interp="linr"  time="-9999999/1" value="1" leadInLength="0/1"  />
               <InterpolatingParam id="3964" interp="linr"  time="-9999999/1" value="1" leadInLength="0/1"  />
              </VectorParam>
              <VectorParam id="3965"  name="anchor">
               <InterpolatingParam id="3966" interp="linr"  time="0/1" value="0" leadInLength="0/1"  />
               <InterpolatingParam id="3967" interp="linr"  time="0/1" value="0" leadInLength="0/1"  />
               <InterpolatingParam id="3968" interp="linr"  time="0/1" value="0" leadInLength="0/1"  />
              </VectorParam>
             </Transformer>
             <Parameters>
              <VectorParam id="3969"  name="sourceCrop">
               <InterpolatingParam id="3970" interp="linr"  time="0/1" value="0" leadInLength="0/1"  />
               <InterpolatingParam id="3971" interp="linr"  time="0/1" value="0" leadInLength="0/1"  />
               <InterpolatingParam id="3972" interp="linr"  time="0/1" value="0" leadInLength="0/1"  />
               <InterpolatingParam id="3973" interp="linr"  time="0/1" value="0" leadInLength="0/1"  />
              </VectorParam>
              <VectorParam id="3974"  name="geometryCrop">
               <InterpolatingParam id="3975" interp="linr"  time="-9999999/1" value="0" leadInLength="0/1"  />
               <InterpolatingParam id="3976" interp="linr"  time="-9999999/1" value="0" leadInLength="0/1"  />
               <InterpolatingParam id="3977" interp="linr"  time="-9999999/1" value="0" leadInLength="0/1"  />
               <InterpolatingParam id="3978" interp="linr"  time="-9999999/1" value="0" leadInLength="0/1"  />
              </VectorParam>
              <InterpolatingParam id="3979" interp="linr"  time="-9999999/1" value="1" leadInLength="0/1"  name="opacity"/>
             </Parameters>
             <Attributes>
              <Attribute id="3980" value="" name="ident"/>
             </Attributes>
             <ExtraData>
              <Entry key="ZoomPanBin">
               <ZoomPanBin id="3981"  >
                <ZoomPanKeyframes>
                </ZoomPanKeyframes>
               </ZoomPanBin>
              </Entry>
             </ExtraData>
            </VMFile>
            <MetaData>
             <entry key="WinSubProjectDisplayName" val=""/>
            </MetaData>
           </UnifiedMedia>
           <UnifiedMedia id="3982"  >
            <AMFile id="3983" start="1159" duration="135" scalar="1/1" mediaStart="1370/1" mediaDuration="135/1" trackNumber="2" src="4" channelNumber="0,1" >
             <Parameters>
              <InterpolatingParam id="3984" interp="linr"  time="0/1" value="1" leadInLength="0/1"  name="volume"/>
              <Parameter id="3985"  name="captions"/>
             </Parameters>
             <Attributes>
              <Attribute id="3986" value="" name="ident"/>
              <Attribute id="3987" value="44100" name="sampleRate"/>
              <Attribute id="3988" value="16" name="bitDepth"/>
              <Attribute id="3989" value="1" name="gain"/>
              <Attribute id="3990" value="0" name="mixToMono"/>
             </Attributes>
            </AMFile>
            <VMFile id="3991" start="1159" duration="135" scalar="1/1" mediaStart="1370/1" mediaDuration="135/1" trackNumber="1" src="4" >
             <Transformer>
              <VectorParam id="3992"  name="translation">
               <InterpolatingParam id="3993" interp="linr"  time="-9999999/1" value="0" leadInLength="0/1"  />
               <InterpolatingParam id="3994" interp="linr"  time="-9999999/1" value="0" leadInLength="0/1"  />
               <InterpolatingParam id="3995" interp="linr"  time="-9999999/1" value="0" leadInLength="0/1"  />
              </VectorParam>
              <VectorParam id="3996"  name="rotation">
               <InterpolatingParam id="3997" interp="linr"  time="-9999999/1" value="0" leadInLength="0/1"  />
               <InterpolatingParam id="3998" interp="linr"  time="-9999999/1" value="0" leadInLength="0/1"  />
               <InterpolatingParam id="3999" interp="linr"  time="-9999999/1" value="0" leadInLength="0/1"  />
              </VectorParam>
              <VectorParam id="4000"  name="shear">
               <InterpolatingParam id="4001" interp="linr"  time="-9999999/1" value="0" leadInLength="0/1"  />
               <InterpolatingParam id="4002" interp="linr"  time="-9999999/1" value="0" leadInLength="0/1"  />
               <InterpolatingParam id="4003" interp="linr"  time="-9999999/1" value="0" leadInLength="0/1"  />
              </VectorParam>
              <VectorParam id="4004"  name="scale">
               <InterpolatingParam id="4005" interp="linr"  time="-9999999/1" value="1" leadInLength="0/1"  />
               <InterpolatingParam id="4006" interp="linr"  time="-9999999/1" value="1" leadInLength="0/1"  />
               <InterpolatingParam id="4007" interp="linr"  time="-9999999/1" value="1" leadInLength="0/1"  />
              </VectorParam>
              <VectorParam id="4008"  name="anchor">
               <InterpolatingParam id="4009" interp="linr"  time="0/1" value="0" leadInLength="0/1"  />
               <InterpolatingParam id="4010" interp="linr"  time="0/1" value="0" leadInLength="0/1"  />
               <InterpolatingParam id="4011" interp="linr"  time="0/1" value="0" leadInLength="0/1"  />
              </VectorParam>
             </Transformer>
             <Parameters>
              <VectorParam id="4012"  name="sourceCrop">
               <InterpolatingParam id="4013" interp="linr"  time="0/1" value="0" leadInLength="0/1"  />
               <InterpolatingParam id="4014" interp="linr"  time="0/1" value="0" leadInLength="0/1"  />
               <InterpolatingParam id="4015" interp="linr"  time="0/1" value="0" leadInLength="0/1"  />
               <InterpolatingParam id="4016" interp="linr"  time="0/1" value="0" leadInLength="0/1"  />
              </VectorParam>
              <VectorParam id="4017"  name="geometryCrop">
               <InterpolatingParam id="4018" interp="linr"  time="-9999999/1" value="0" leadInLength="0/1"  />
               <InterpolatingParam id="4019" interp="linr"  time="-9999999/1" value="0" leadInLength="0/1"  />
               <InterpolatingParam id="4020" interp="linr"  time="-9999999/1" value="0" leadInLength="0/1"  />
               <InterpolatingParam id="4021" interp="linr"  time="-9999999/1" value="0" leadInLength="0/1"  />
              </VectorParam>
              <InterpolatingParam id="4022" interp="linr"  time="-9999999/1" value="1" leadInLength="0/1"  name="opacity"/>
             </Parameters>
             <Attributes>
              <Attribute id="4023" value="" name="ident"/>
             </Attributes>
             <ExtraData>
              <Entry key="ZoomPanBin">
               <ZoomPanBin id="4024"  >
                <ZoomPanKeyframes>
                </ZoomPanKeyframes>
               </ZoomPanBin>
              </Entry>
             </ExtraData>
            </VMFile>
            <MetaData>
             <entry key="WinSubProjectDisplayName" val=""/>
            </MetaData>
           </UnifiedMedia>
           <UnifiedMedia id="4025"  >
            <AMFile id="4026" start="1294" duration="88" scalar="1/1" mediaStart="1520/1" mediaDuration="88/1" trackNumber="2" src="4" channelNumber="0,1" >
             <Parameters>
              <InterpolatingParam id="4027" interp="linr"  time="0/1" value="1" leadInLength="0/1"  name="volume"/>
              <Parameter id="4028"  name="captions"/>
             </Parameters>
             <Attributes>
              <Attribute id="4029" value="" name="ident"/>
              <Attribute id="4030" value="44100" name="sampleRate"/>
              <Attribute id="4031" value="16" name="bitDepth"/>
              <Attribute id="4032" value="1" name="gain"/>
              <Attribute id="4033" value="0" name="mixToMono"/>
             </Attributes>
            </AMFile>
            <VMFile id="4034" start="1294" duration="88" scalar="1/1" mediaStart="1520/1" mediaDuration="88/1" trackNumber="1" src="4" >
             <Transformer>
              <VectorParam id="4035"  name="translation">
               <InterpolatingParam id="4036" interp="linr"  time="-9999999/1" value="0" leadInLength="0/1"  />
               <InterpolatingParam id="4037" interp="linr"  time="-9999999/1" value="0" leadInLength="0/1"  />
               <InterpolatingParam id="4038" interp="linr"  time="-9999999/1" value="0" leadInLength="0/1"  />
              </VectorParam>
              <VectorParam id="4039"  name="rotation">
               <InterpolatingParam id="4040" interp="linr"  time="-9999999/1" value="0" leadInLength="0/1"  />
               <InterpolatingParam id="4041" interp="linr"  time="-9999999/1" value="0" leadInLength="0/1"  />
               <InterpolatingParam id="4042" interp="linr"  time="-9999999/1" value="0" leadInLength="0/1"  />
              </VectorParam>
              <VectorParam id="4043"  name="shear">
               <InterpolatingParam id="4044" interp="linr"  time="-9999999/1" value="0" leadInLength="0/1"  />
               <InterpolatingParam id="4045" interp="linr"  time="-9999999/1" value="0" leadInLength="0/1"  />
               <InterpolatingParam id="4046" interp="linr"  time="-9999999/1" value="0" leadInLength="0/1"  />
              </VectorParam>
              <VectorParam id="4047"  name="scale">
               <InterpolatingParam id="4048" interp="linr"  time="-9999999/1" value="1" leadInLength="0/1"  />
               <InterpolatingParam id="4049" interp="linr"  time="-9999999/1" value="1" leadInLength="0/1"  />
               <InterpolatingParam id="4050" interp="linr"  time="-9999999/1" value="1" leadInLength="0/1"  />
              </VectorParam>
              <VectorParam id="4051"  name="anchor">
               <InterpolatingParam id="4052" interp="linr"  time="0/1" value="0" leadInLength="0/1"  />
               <InterpolatingParam id="4053" interp="linr"  time="0/1" value="0" leadInLength="0/1"  />
               <InterpolatingParam id="4054" interp="linr"  time="0/1" value="0" leadInLength="0/1"  />
              </VectorParam>
             </Transformer>
             <Parameters>
              <VectorParam id="4055"  name="sourceCrop">
               <InterpolatingParam id="4056" interp="linr"  time="0/1" value="0" leadInLength="0/1"  />
               <InterpolatingParam id="4057" interp="linr"  time="0/1" value="0" leadInLength="0/1"  />
               <InterpolatingParam id="4058" interp="linr"  time="0/1" value="0" leadInLength="0/1"  />
               <InterpolatingParam id="4059" interp="linr"  time="0/1" value="0" leadInLength="0/1"  />
              </VectorParam>
              <VectorParam id="4060"  name="geometryCrop">
               <InterpolatingParam id="4061" interp="linr"  time="-9999999/1" value="0" leadInLength="0/1"  />
               <InterpolatingParam id="4062" interp="linr"  time="-9999999/1" value="0" leadInLength="0/1"  />
               <InterpolatingParam id="4063" interp="linr"  time="-9999999/1" value="0" leadInLength="0/1"  />
               <InterpolatingParam id="4064" interp="linr"  time="-9999999/1" value="0" leadInLength="0/1"  />
              </VectorParam>
              <InterpolatingParam id="4065" interp="linr"  time="-9999999/1" value="1" leadInLength="0/1"  name="opacity"/>
             </Parameters>
             <Attributes>
              <Attribute id="4066" value="" name="ident"/>
             </Attributes>
             <ExtraData>
              <Entry key="ZoomPanBin">
               <ZoomPanBin id="4067"  >
                <ZoomPanKeyframes>
                </ZoomPanKeyframes>
               </ZoomPanBin>
              </Entry>
             </ExtraData>
            </VMFile>
            <MetaData>
             <entry key="WinSubProjectDisplayName" val=""/>
            </MetaData>
           </UnifiedMedia>
           <UnifiedMedia id="4068"  >
            <AMFile id="4069" start="1382" duration="15" scalar="1/1" mediaStart="1629/1" mediaDuration="15/1" trackNumber="2" src="4" channelNumber="0,1" >
             <Parameters>
              <InterpolatingParam id="4070" interp="linr"  time="0/1" value="1" leadInLength="0/1"  name="volume"/>
              <Parameter id="4071"  name="captions"/>
             </Parameters>
             <Attributes>
              <Attribute id="4072" value="" name="ident"/>
              <Attribute id="4073" value="44100" name="sampleRate"/>
              <Attribute id="4074" value="16" name="bitDepth"/>
              <Attribute id="4075" value="1" name="gain"/>
              <Attribute id="4076" value="0" name="mixToMono"/>
             </Attributes>
            </AMFile>
            <VMFile id="4077" start="1382" duration="15" scalar="1/1" mediaStart="1629/1" mediaDuration="15/1" trackNumber="1" src="4" >
             <Transformer>
              <VectorParam id="4078"  name="translation">
               <InterpolatingParam id="4079" interp="linr"  time="-9999999/1" value="0" leadInLength="0/1"  />
               <InterpolatingParam id="4080" interp="linr"  time="-9999999/1" value="0" leadInLength="0/1"  />
               <InterpolatingParam id="4081" interp="linr"  time="-9999999/1" value="0" leadInLength="0/1"  />
              </VectorParam>
              <VectorParam id="4082"  name="rotation">
               <InterpolatingParam id="4083" interp="linr"  time="-9999999/1" value="0" leadInLength="0/1"  />
               <InterpolatingParam id="4084" interp="linr"  time="-9999999/1" value="0" leadInLength="0/1"  />
               <InterpolatingParam id="4085" interp="linr"  time="-9999999/1" value="0" leadInLength="0/1"  />
              </VectorParam>
              <VectorParam id="4086"  name="shear">
               <InterpolatingParam id="4087" interp="linr"  time="-9999999/1" value="0" leadInLength="0/1"  />
               <InterpolatingParam id="4088" interp="linr"  time="-9999999/1" value="0" leadInLength="0/1"  />
               <InterpolatingParam id="4089" interp="linr"  time="-9999999/1" value="0" leadInLength="0/1"  />
              </VectorParam>
              <VectorParam id="4090"  name="scale">
               <InterpolatingParam id="4091" interp="linr"  time="-9999999/1" value="1" leadInLength="0/1"  />
               <InterpolatingParam id="4092" interp="linr"  time="-9999999/1" value="1" leadInLength="0/1"  />
               <InterpolatingParam id="4093" interp="linr"  time="-9999999/1" value="1" leadInLength="0/1"  />
              </VectorParam>
              <VectorParam id="4094"  name="anchor">
               <InterpolatingParam id="4095" interp="linr"  time="0/1" value="0" leadInLength="0/1"  />
               <InterpolatingParam id="4096" interp="linr"  time="0/1" value="0" leadInLength="0/1"  />
               <InterpolatingParam id="4097" interp="linr"  time="0/1" value="0" leadInLength="0/1"  />
              </VectorParam>
             </Transformer>
             <Parameters>
              <VectorParam id="4098"  name="sourceCrop">
               <InterpolatingParam id="4099" interp="linr"  time="0/1" value="0" leadInLength="0/1"  />
               <InterpolatingParam id="4100" interp="linr"  time="0/1" value="0" leadInLength="0/1"  />
               <InterpolatingParam id="4101" interp="linr"  time="0/1" value="0" leadInLength="0/1"  />
               <InterpolatingParam id="4102" interp="linr"  time="0/1" value="0" leadInLength="0/1"  />
              </VectorParam>
              <VectorParam id="4103"  name="geometryCrop">
               <InterpolatingParam id="4104" interp="linr"  time="-9999999/1" value="0" leadInLength="0/1"  />
               <InterpolatingParam id="4105" interp="linr"  time="-9999999/1" value="0" leadInLength="0/1"  />
               <InterpolatingParam id="4106" interp="linr"  time="-9999999/1" value="0" leadInLength="0/1"  />
               <InterpolatingParam id="4107" interp="linr"  time="-9999999/1" value="0" leadInLength="0/1"  />
              </VectorParam>
              <InterpolatingParam id="4108" interp="linr"  time="-9999999/1" value="1" leadInLength="0/1"  name="opacity"/>
             </Parameters>
             <Attributes>
              <Attribute id="4109" value="" name="ident"/>
             </Attributes>
             <ExtraData>
              <Entry key="ZoomPanBin">
               <ZoomPanBin id="4110"  >
                <ZoomPanKeyframes>
                </ZoomPanKeyframes>
               </ZoomPanBin>
              </Entry>
             </ExtraData>
            </VMFile>
            <MetaData>
             <entry key="WinSubProjectDisplayName" val=""/>
            </MetaData>
           </UnifiedMedia>
           <UnifiedMedia id="4111"  >
            <AMFile id="4112" start="1397" duration="1" scalar="1/1" mediaStart="1767/1" mediaDuration="1/1" trackNumber="2" src="4" channelNumber="0,1" >
             <Parameters>
              <InterpolatingParam id="4113" interp="linr"  time="0/1" value="1" leadInLength="0/1"  name="volume"/>
              <Parameter id="4114"  name="captions"/>
             </Parameters>
             <Attributes>
              <Attribute id="4115" value="" name="ident"/>
              <Attribute id="4116" value="44100" name="sampleRate"/>
              <Attribute id="4117" value="16" name="bitDepth"/>
              <Attribute id="4118" value="1" name="gain"/>
              <Attribute id="4119" value="0" name="mixToMono"/>
             </Attributes>
            </AMFile>
            <VMFile id="4120" start="1397" duration="1" scalar="1/1" mediaStart="1767/1" mediaDuration="1/1" trackNumber="1" src="4" >
             <Transformer>
              <VectorParam id="4121"  name="translation">
               <InterpolatingParam id="4122" interp="linr"  time="-9999999/1" value="0" leadInLength="0/1"  />
               <InterpolatingParam id="4123" interp="linr"  time="-9999999/1" value="0" leadInLength="0/1"  />
               <InterpolatingParam id="4124" interp="linr"  time="-9999999/1" value="0" leadInLength="0/1"  />
              </VectorParam>
              <VectorParam id="4125"  name="rotation">
               <InterpolatingParam id="4126" interp="linr"  time="-9999999/1" value="0" leadInLength="0/1"  />
               <InterpolatingParam id="4127" interp="linr"  time="-9999999/1" value="0" leadInLength="0/1"  />
               <InterpolatingParam id="4128" interp="linr"  time="-9999999/1" value="0" leadInLength="0/1"  />
              </VectorParam>
              <VectorParam id="4129"  name="shear">
               <InterpolatingParam id="4130" interp="linr"  time="-9999999/1" value="0" leadInLength="0/1"  />
               <InterpolatingParam id="4131" interp="linr"  time="-9999999/1" value="0" leadInLength="0/1"  />
               <InterpolatingParam id="4132" interp="linr"  time="-9999999/1" value="0" leadInLength="0/1"  />
              </VectorParam>
              <VectorParam id="4133"  name="scale">
               <InterpolatingParam id="4134" interp="linr"  time="-9999999/1" value="1" leadInLength="0/1"  />
               <InterpolatingParam id="4135" interp="linr"  time="-9999999/1" value="1" leadInLength="0/1"  />
               <InterpolatingParam id="4136" interp="linr"  time="-9999999/1" value="1" leadInLength="0/1"  />
              </VectorParam>
              <VectorParam id="4137"  name="anchor">
               <InterpolatingParam id="4138" interp="linr"  time="0/1" value="0" leadInLength="0/1"  />
               <InterpolatingParam id="4139" interp="linr"  time="0/1" value="0" leadInLength="0/1"  />
               <InterpolatingParam id="4140" interp="linr"  time="0/1" value="0" leadInLength="0/1"  />
              </VectorParam>
             </Transformer>
             <Parameters>
              <VectorParam id="4141"  name="sourceCrop">
               <InterpolatingParam id="4142" interp="linr"  time="0/1" value="0" leadInLength="0/1"  />
               <InterpolatingParam id="4143" interp="linr"  time="0/1" value="0" leadInLength="0/1"  />
               <InterpolatingParam id="4144" interp="linr"  time="0/1" value="0" leadInLength="0/1"  />
               <InterpolatingParam id="4145" interp="linr"  time="0/1" value="0" leadInLength="0/1"  />
              </VectorParam>
              <VectorParam id="4146"  name="geometryCrop">
               <InterpolatingParam id="4147" interp="linr"  time="-9999999/1" value="0" leadInLength="0/1"  />
               <InterpolatingParam id="4148" interp="linr"  time="-9999999/1" value="0" leadInLength="0/1"  />
               <InterpolatingParam id="4149" interp="linr"  time="-9999999/1" value="0" leadInLength="0/1"  />
               <InterpolatingParam id="4150" interp="linr"  time="-9999999/1" value="0" leadInLength="0/1"  />
              </VectorParam>
              <InterpolatingParam id="4151" interp="linr"  time="-9999999/1" value="1" leadInLength="0/1"  name="opacity"/>
             </Parameters>
             <Attributes>
              <Attribute id="4152" value="" name="ident"/>
             </Attributes>
             <ExtraData>
              <Entry key="ZoomPanBin">
               <ZoomPanBin id="4153"  >
                <ZoomPanKeyframes>
                </ZoomPanKeyframes>
               </ZoomPanBin>
              </Entry>
             </ExtraData>
            </VMFile>
            <MetaData>
             <entry key="WinSubProjectDisplayName" val=""/>
            </MetaData>
           </UnifiedMedia>
           <UnifiedMedia id="4154"  >
            <AMFile id="4155" start="1398" duration="70" scalar="1/1" mediaStart="1885/1" mediaDuration="70/1" trackNumber="2" src="4" channelNumber="0,1" >
             <Parameters>
              <InterpolatingParam id="4156" interp="linr"  time="0/1" value="1" leadInLength="0/1"  name="volume"/>
              <Parameter id="4157"  name="captions"/>
             </Parameters>
             <Attributes>
              <Attribute id="4158" value="" name="ident"/>
              <Attribute id="4159" value="44100" name="sampleRate"/>
              <Attribute id="4160" value="16" name="bitDepth"/>
              <Attribute id="4161" value="1" name="gain"/>
              <Attribute id="4162" value="0" name="mixToMono"/>
             </Attributes>
            </AMFile>
            <VMFile id="4163" start="1398" duration="70" scalar="1/1" mediaStart="1885/1" mediaDuration="70/1" trackNumber="1" src="4" >
             <Transformer>
              <VectorParam id="4164"  name="translation">
               <InterpolatingParam id="4165" interp="linr"  time="-9999999/1" value="0" leadInLength="0/1"  />
               <InterpolatingParam id="4166" interp="linr"  time="-9999999/1" value="0" leadInLength="0/1"  />
               <InterpolatingParam id="4167" interp="linr"  time="-9999999/1" value="0" leadInLength="0/1"  />
              </VectorParam>
              <VectorParam id="4168"  name="rotation">
               <InterpolatingParam id="4169" interp="linr"  time="-9999999/1" value="0" leadInLength="0/1"  />
               <InterpolatingParam id="4170" interp="linr"  time="-9999999/1" value="0" leadInLength="0/1"  />
               <InterpolatingParam id="4171" interp="linr"  time="-9999999/1" value="0" leadInLength="0/1"  />
              </VectorParam>
              <VectorParam id="4172"  name="shear">
               <InterpolatingParam id="4173" interp="linr"  time="-9999999/1" value="0" leadInLength="0/1"  />
               <InterpolatingParam id="4174" interp="linr"  time="-9999999/1" value="0" leadInLength="0/1"  />
               <InterpolatingParam id="4175" interp="linr"  time="-9999999/1" value="0" leadInLength="0/1"  />
              </VectorParam>
              <VectorParam id="4176"  name="scale">
               <InterpolatingParam id="4177" interp="linr"  time="-9999999/1" value="1" leadInLength="0/1"  />
               <InterpolatingParam id="4178" interp="linr"  time="-9999999/1" value="1" leadInLength="0/1"  />
               <InterpolatingParam id="4179" interp="linr"  time="-9999999/1" value="1" leadInLength="0/1"  />
              </VectorParam>
              <VectorParam id="4180"  name="anchor">
               <InterpolatingParam id="4181" interp="linr"  time="0/1" value="0" leadInLength="0/1"  />
               <InterpolatingParam id="4182" interp="linr"  time="0/1" value="0" leadInLength="0/1"  />
               <InterpolatingParam id="4183" interp="linr"  time="0/1" value="0" leadInLength="0/1"  />
              </VectorParam>
             </Transformer>
             <Parameters>
              <VectorParam id="4184"  name="sourceCrop">
               <InterpolatingParam id="4185" interp="linr"  time="0/1" value="0" leadInLength="0/1"  />
               <InterpolatingParam id="4186" interp="linr"  time="0/1" value="0" leadInLength="0/1"  />
               <InterpolatingParam id="4187" interp="linr"  time="0/1" value="0" leadInLength="0/1"  />
               <InterpolatingParam id="4188" interp="linr"  time="0/1" value="0" leadInLength="0/1"  />
              </VectorParam>
              <VectorParam id="4189"  name="geometryCrop">
               <InterpolatingParam id="4190" interp="linr"  time="-9999999/1" value="0" leadInLength="0/1"  />
               <InterpolatingParam id="4191" interp="linr"  time="-9999999/1" value="0" leadInLength="0/1"  />
               <InterpolatingParam id="4192" interp="linr"  time="-9999999/1" value="0" leadInLength="0/1"  />
               <InterpolatingParam id="4193" interp="linr"  time="-9999999/1" value="0" leadInLength="0/1"  />
              </VectorParam>
              <InterpolatingParam id="4194" interp="linr"  time="-9999999/1" value="1" leadInLength="0/1"  name="opacity"/>
             </Parameters>
             <Attributes>
              <Attribute id="4195" value="" name="ident"/>
             </Attributes>
             <ExtraData>
              <Entry key="ZoomPanBin">
               <ZoomPanBin id="4196"  >
                <ZoomPanKeyframes>
                </ZoomPanKeyframes>
               </ZoomPanBin>
              </Entry>
             </ExtraData>
            </VMFile>
            <MetaData>
             <entry key="WinSubProjectDisplayName" val=""/>
            </MetaData>
           </UnifiedMedia>
           <UnifiedMedia id="4197"  >
            <AMFile id="4198" start="1468" duration="317" scalar="1/1" mediaStart="1987/1" mediaDuration="317/1" trackNumber="2" src="4" channelNumber="0,1" >
             <Parameters>
              <InterpolatingParam id="4199" interp="linr"  time="0/1" value="1" leadInLength="0/1"  name="volume"/>
              <Parameter id="4200"  name="captions"/>
             </Parameters>
             <Attributes>
              <Attribute id="4201" value="" name="ident"/>
              <Attribute id="4202" value="44100" name="sampleRate"/>
              <Attribute id="4203" value="16" name="bitDepth"/>
              <Attribute id="4204" value="1" name="gain"/>
              <Attribute id="4205" value="0" name="mixToMono"/>
             </Attributes>
            </AMFile>
            <VMFile id="4206" start="1468" duration="317" scalar="1/1" mediaStart="1987/1" mediaDuration="317/1" trackNumber="1" src="4" >
             <Transformer>
              <VectorParam id="4207"  name="translation">
               <InterpolatingParam id="4208" interp="linr"  time="-9999999/1" value="0" leadInLength="0/1"  />
               <InterpolatingParam id="4209" interp="linr"  time="-9999999/1" value="0" leadInLength="0/1"  />
               <InterpolatingParam id="4210" interp="linr"  time="-9999999/1" value="0" leadInLength="0/1"  />
              </VectorParam>
              <VectorParam id="4211"  name="rotation">
               <InterpolatingParam id="4212" interp="linr"  time="-9999999/1" value="0" leadInLength="0/1"  />
               <InterpolatingParam id="4213" interp="linr"  time="-9999999/1" value="0" leadInLength="0/1"  />
               <InterpolatingParam id="4214" interp="linr"  time="-9999999/1" value="0" leadInLength="0/1"  />
              </VectorParam>
              <VectorParam id="4215"  name="shear">
               <InterpolatingParam id="4216" interp="linr"  time="-9999999/1" value="0" leadInLength="0/1"  />
               <InterpolatingParam id="4217" interp="linr"  time="-9999999/1" value="0" leadInLength="0/1"  />
               <InterpolatingParam id="4218" interp="linr"  time="-9999999/1" value="0" leadInLength="0/1"  />
              </VectorParam>
              <VectorParam id="4219"  name="scale">
               <InterpolatingParam id="4220" interp="linr"  time="-9999999/1" value="1" leadInLength="0/1"  />
               <InterpolatingParam id="4221" interp="linr"  time="-9999999/1" value="1" leadInLength="0/1"  />
               <InterpolatingParam id="4222" interp="linr"  time="-9999999/1" value="1" leadInLength="0/1"  />
              </VectorParam>
              <VectorParam id="4223"  name="anchor">
               <InterpolatingParam id="4224" interp="linr"  time="0/1" value="0" leadInLength="0/1"  />
               <InterpolatingParam id="4225" interp="linr"  time="0/1" value="0" leadInLength="0/1"  />
               <InterpolatingParam id="4226" interp="linr"  time="0/1" value="0" leadInLength="0/1"  />
              </VectorParam>
             </Transformer>
             <Parameters>
              <VectorParam id="4227"  name="sourceCrop">
               <InterpolatingParam id="4228" interp="linr"  time="0/1" value="0" leadInLength="0/1"  />
               <InterpolatingParam id="4229" interp="linr"  time="0/1" value="0" leadInLength="0/1"  />
               <InterpolatingParam id="4230" interp="linr"  time="0/1" value="0" leadInLength="0/1"  />
               <InterpolatingParam id="4231" interp="linr"  time="0/1" value="0" leadInLength="0/1"  />
              </VectorParam>
              <VectorParam id="4232"  name="geometryCrop">
               <InterpolatingParam id="4233" interp="linr"  time="-9999999/1" value="0" leadInLength="0/1"  />
               <InterpolatingParam id="4234" interp="linr"  time="-9999999/1" value="0" leadInLength="0/1"  />
               <InterpolatingParam id="4235" interp="linr"  time="-9999999/1" value="0" leadInLength="0/1"  />
               <InterpolatingParam id="4236" interp="linr"  time="-9999999/1" value="0" leadInLength="0/1"  />
              </VectorParam>
              <InterpolatingParam id="4237" interp="linr"  time="-9999999/1" value="1" leadInLength="0/1"  name="opacity"/>
             </Parameters>
             <Attributes>
              <Attribute id="4238" value="" name="ident"/>
             </Attributes>
             <ExtraData>
              <Entry key="ZoomPanBin">
               <ZoomPanBin id="4239"  >
                <ZoomPanKeyframes>
                </ZoomPanKeyframes>
               </ZoomPanBin>
              </Entry>
             </ExtraData>
            </VMFile>
            <MetaData>
             <entry key="WinSubProjectDisplayName" val=""/>
            </MetaData>
           </UnifiedMedia>
           <UnifiedMedia id="4240"  >
            <AMFile id="4241" start="1785" duration="115" scalar="1/1" mediaStart="2350/1" mediaDuration="115/1" trackNumber="2" src="4" channelNumber="0,1" >
             <Parameters>
              <InterpolatingParam id="4242" interp="linr"  time="0/1" value="1" leadInLength="0/1"  name="volume"/>
              <Parameter id="4243"  name="captions"/>
             </Parameters>
             <Attributes>
              <Attribute id="4244" value="" name="ident"/>
              <Attribute id="4245" value="44100" name="sampleRate"/>
              <Attribute id="4246" value="16" name="bitDepth"/>
              <Attribute id="4247" value="1" name="gain"/>
              <Attribute id="4248" value="0" name="mixToMono"/>
             </Attributes>
            </AMFile>
            <VMFile id="4249" start="1785" duration="115" scalar="1/1" mediaStart="2350/1" mediaDuration="115/1" trackNumber="1" src="4" >
             <Transformer>
              <VectorParam id="4250"  name="translation">
               <InterpolatingParam id="4251" interp="linr"  time="-9999999/1" value="0" leadInLength="0/1"  />
               <InterpolatingParam id="4252" interp="linr"  time="-9999999/1" value="0" leadInLength="0/1"  />
               <InterpolatingParam id="4253" interp="linr"  time="-9999999/1" value="0" leadInLength="0/1"  />
              </VectorParam>
              <VectorParam id="4254"  name="rotation">
               <InterpolatingParam id="4255" interp="linr"  time="-9999999/1" value="0" leadInLength="0/1"  />
               <InterpolatingParam id="4256" interp="linr"  time="-9999999/1" value="0" leadInLength="0/1"  />
               <InterpolatingParam id="4257" interp="linr"  time="-9999999/1" value="0" leadInLength="0/1"  />
              </VectorParam>
              <VectorParam id="4258"  name="shear">
               <InterpolatingParam id="4259" interp="linr"  time="-9999999/1" value="0" leadInLength="0/1"  />
               <InterpolatingParam id="4260" interp="linr"  time="-9999999/1" value="0" leadInLength="0/1"  />
               <InterpolatingParam id="4261" interp="linr"  time="-9999999/1" value="0" leadInLength="0/1"  />
              </VectorParam>
              <VectorParam id="4262"  name="scale">
               <InterpolatingParam id="4263" interp="linr"  time="-9999999/1" value="1" leadInLength="0/1"  />
               <InterpolatingParam id="4264" interp="linr"  time="-9999999/1" value="1" leadInLength="0/1"  />
               <InterpolatingParam id="4265" interp="linr"  time="-9999999/1" value="1" leadInLength="0/1"  />
              </VectorParam>
              <VectorParam id="4266"  name="anchor">
               <InterpolatingParam id="4267" interp="linr"  time="0/1" value="0" leadInLength="0/1"  />
               <InterpolatingParam id="4268" interp="linr"  time="0/1" value="0" leadInLength="0/1"  />
               <InterpolatingParam id="4269" interp="linr"  time="0/1" value="0" leadInLength="0/1"  />
              </VectorParam>
             </Transformer>
             <Parameters>
              <VectorParam id="4270"  name="sourceCrop">
               <InterpolatingParam id="4271" interp="linr"  time="0/1" value="0" leadInLength="0/1"  />
               <InterpolatingParam id="4272" interp="linr"  time="0/1" value="0" leadInLength="0/1"  />
               <InterpolatingParam id="4273" interp="linr"  time="0/1" value="0" leadInLength="0/1"  />
               <InterpolatingParam id="4274" interp="linr"  time="0/1" value="0" leadInLength="0/1"  />
              </VectorParam>
              <VectorParam id="4275"  name="geometryCrop">
               <InterpolatingParam id="4276" interp="linr"  time="-9999999/1" value="0" leadInLength="0/1"  />
               <InterpolatingParam id="4277" interp="linr"  time="-9999999/1" value="0" leadInLength="0/1"  />
               <InterpolatingParam id="4278" interp="linr"  time="-9999999/1" value="0" leadInLength="0/1"  />
               <InterpolatingParam id="4279" interp="linr"  time="-9999999/1" value="0" leadInLength="0/1"  />
              </VectorParam>
              <InterpolatingParam id="4280" interp="linr"  time="-9999999/1" value="1" leadInLength="0/1"  name="opacity"/>
             </Parameters>
             <Attributes>
              <Attribute id="4281" value="" name="ident"/>
             </Attributes>
             <ExtraData>
              <Entry key="ZoomPanBin">
               <ZoomPanBin id="4282"  >
                <ZoomPanKeyframes>
                </ZoomPanKeyframes>
               </ZoomPanBin>
              </Entry>
             </ExtraData>
            </VMFile>
            <MetaData>
             <entry key="WinSubProjectDisplayName" val=""/>
            </MetaData>
           </UnifiedMedia>
           <UnifiedMedia id="4283"  >
            <AMFile id="4284" start="1900" duration="198" scalar="1/1" mediaStart="2487/1" mediaDuration="198/1" trackNumber="2" src="4" channelNumber="0,1" >
             <Parameters>
              <InterpolatingParam id="4285" interp="linr"  time="0/1" value="1" leadInLength="0/1"  name="volume"/>
              <Parameter id="4286"  name="captions"/>
             </Parameters>
             <Attributes>
              <Attribute id="4287" value="" name="ident"/>
              <Attribute id="4288" value="44100" name="sampleRate"/>
              <Attribute id="4289" value="16" name="bitDepth"/>
              <Attribute id="4290" value="1" name="gain"/>
              <Attribute id="4291" value="0" name="mixToMono"/>
             </Attributes>
            </AMFile>
            <VMFile id="4292" start="1900" duration="198" scalar="1/1" mediaStart="2487/1" mediaDuration="198/1" trackNumber="1" src="4" >
             <Transformer>
              <VectorParam id="4293"  name="translation">
               <InterpolatingParam id="4294" interp="linr"  time="-9999999/1" value="0" leadInLength="0/1"  />
               <InterpolatingParam id="4295" interp="linr"  time="-9999999/1" value="0" leadInLength="0/1"  />
               <InterpolatingParam id="4296" interp="linr"  time="-9999999/1" value="0" leadInLength="0/1"  />
              </VectorParam>
              <VectorParam id="4297"  name="rotation">
               <InterpolatingParam id="4298" interp="linr"  time="-9999999/1" value="0" leadInLength="0/1"  />
               <InterpolatingParam id="4299" interp="linr"  time="-9999999/1" value="0" leadInLength="0/1"  />
               <InterpolatingParam id="4300" interp="linr"  time="-9999999/1" value="0" leadInLength="0/1"  />
              </VectorParam>
              <VectorParam id="4301"  name="shear">
               <InterpolatingParam id="4302" interp="linr"  time="-9999999/1" value="0" leadInLength="0/1"  />
               <InterpolatingParam id="4303" interp="linr"  time="-9999999/1" value="0" leadInLength="0/1"  />
               <InterpolatingParam id="4304" interp="linr"  time="-9999999/1" value="0" leadInLength="0/1"  />
              </VectorParam>
              <VectorParam id="4305"  name="scale">
               <InterpolatingParam id="4306" interp="linr"  time="-9999999/1" value="1" leadInLength="0/1"  />
               <InterpolatingParam id="4307" interp="linr"  time="-9999999/1" value="1" leadInLength="0/1"  />
               <InterpolatingParam id="4308" interp="linr"  time="-9999999/1" value="1" leadInLength="0/1"  />
              </VectorParam>
              <VectorParam id="4309"  name="anchor">
               <InterpolatingParam id="4310" interp="linr"  time="0/1" value="0" leadInLength="0/1"  />
               <InterpolatingParam id="4311" interp="linr"  time="0/1" value="0" leadInLength="0/1"  />
               <InterpolatingParam id="4312" interp="linr"  time="0/1" value="0" leadInLength="0/1"  />
              </VectorParam>
             </Transformer>
             <Parameters>
              <VectorParam id="4313"  name="sourceCrop">
               <InterpolatingParam id="4314" interp="linr"  time="0/1" value="0" leadInLength="0/1"  />
               <InterpolatingParam id="4315" interp="linr"  time="0/1" value="0" leadInLength="0/1"  />
               <InterpolatingParam id="4316" interp="linr"  time="0/1" value="0" leadInLength="0/1"  />
               <InterpolatingParam id="4317" interp="linr"  time="0/1" value="0" leadInLength="0/1"  />
              </VectorParam>
              <VectorParam id="4318"  name="geometryCrop">
               <InterpolatingParam id="4319" interp="linr"  time="-9999999/1" value="0" leadInLength="0/1"  />
               <InterpolatingParam id="4320" interp="linr"  time="-9999999/1" value="0" leadInLength="0/1"  />
               <InterpolatingParam id="4321" interp="linr"  time="-9999999/1" value="0" leadInLength="0/1"  />
               <InterpolatingParam id="4322" interp="linr"  time="-9999999/1" value="0" leadInLength="0/1"  />
              </VectorParam>
              <InterpolatingParam id="4323" interp="linr"  time="-9999999/1" value="1" leadInLength="0/1"  name="opacity"/>
             </Parameters>
             <Attributes>
              <Attribute id="4324" value="" name="ident"/>
             </Attributes>
             <ExtraData>
              <Entry key="ZoomPanBin">
               <ZoomPanBin id="4325"  >
                <ZoomPanKeyframes>
                </ZoomPanKeyframes>
               </ZoomPanBin>
              </Entry>
             </ExtraData>
            </VMFile>
            <MetaData>
             <entry key="WinSubProjectDisplayName" val=""/>
            </MetaData>
           </UnifiedMedia>
           <UnifiedMedia id="4326"  >
            <AMFile id="4327" start="2098" duration="22" scalar="1/1" mediaStart="2702/1" mediaDuration="22/1" trackNumber="2" src="4" channelNumber="0,1" >
             <Parameters>
              <InterpolatingParam id="4328" interp="linr"  time="0/1" value="1" leadInLength="0/1"  name="volume"/>
              <Parameter id="4329"  name="captions"/>
             </Parameters>
             <Attributes>
              <Attribute id="4330" value="" name="ident"/>
              <Attribute id="4331" value="44100" name="sampleRate"/>
              <Attribute id="4332" value="16" name="bitDepth"/>
              <Attribute id="4333" value="1" name="gain"/>
              <Attribute id="4334" value="0" name="mixToMono"/>
             </Attributes>
            </AMFile>
            <VMFile id="4335" start="2098" duration="22" scalar="1/1" mediaStart="2702/1" mediaDuration="22/1" trackNumber="1" src="4" >
             <Transformer>
              <VectorParam id="4336"  name="translation">
               <InterpolatingParam id="4337" interp="linr"  time="-9999999/1" value="0" leadInLength="0/1"  />
               <InterpolatingParam id="4338" interp="linr"  time="-9999999/1" value="0" leadInLength="0/1"  />
               <InterpolatingParam id="4339" interp="linr"  time="-9999999/1" value="0" leadInLength="0/1"  />
              </VectorParam>
              <VectorParam id="4340"  name="rotation">
               <InterpolatingParam id="4341" interp="linr"  time="-9999999/1" value="0" leadInLength="0/1"  />
               <InterpolatingParam id="4342" interp="linr"  time="-9999999/1" value="0" leadInLength="0/1"  />
               <InterpolatingParam id="4343" interp="linr"  time="-9999999/1" value="0" leadInLength="0/1"  />
              </VectorParam>
              <VectorParam id="4344"  name="shear">
               <InterpolatingParam id="4345" interp="linr"  time="-9999999/1" value="0" leadInLength="0/1"  />
               <InterpolatingParam id="4346" interp="linr"  time="-9999999/1" value="0" leadInLength="0/1"  />
               <InterpolatingParam id="4347" interp="linr"  time="-9999999/1" value="0" leadInLength="0/1"  />
              </VectorParam>
              <VectorParam id="4348"  name="scale">
               <InterpolatingParam id="4349" interp="linr"  time="-9999999/1" value="1" leadInLength="0/1"  />
               <InterpolatingParam id="4350" interp="linr"  time="-9999999/1" value="1" leadInLength="0/1"  />
               <InterpolatingParam id="4351" interp="linr"  time="-9999999/1" value="1" leadInLength="0/1"  />
              </VectorParam>
              <VectorParam id="4352"  name="anchor">
               <InterpolatingParam id="4353" interp="linr"  time="0/1" value="0" leadInLength="0/1"  />
               <InterpolatingParam id="4354" interp="linr"  time="0/1" value="0" leadInLength="0/1"  />
               <InterpolatingParam id="4355" interp="linr"  time="0/1" value="0" leadInLength="0/1"  />
              </VectorParam>
             </Transformer>
             <Parameters>
              <VectorParam id="4356"  name="sourceCrop">
               <InterpolatingParam id="4357" interp="linr"  time="0/1" value="0" leadInLength="0/1"  />
               <InterpolatingParam id="4358" interp="linr"  time="0/1" value="0" leadInLength="0/1"  />
               <InterpolatingParam id="4359" interp="linr"  time="0/1" value="0" leadInLength="0/1"  />
               <InterpolatingParam id="4360" interp="linr"  time="0/1" value="0" leadInLength="0/1"  />
              </VectorParam>
              <VectorParam id="4361"  name="geometryCrop">
               <InterpolatingParam id="4362" interp="linr"  time="-9999999/1" value="0" leadInLength="0/1"  />
               <InterpolatingParam id="4363" interp="linr"  time="-9999999/1" value="0" leadInLength="0/1"  />
               <InterpolatingParam id="4364" interp="linr"  time="-9999999/1" value="0" leadInLength="0/1"  />
               <InterpolatingParam id="4365" interp="linr"  time="-9999999/1" value="0" leadInLength="0/1"  />
              </VectorParam>
              <InterpolatingParam id="4366" interp="linr"  time="-9999999/1" value="1" leadInLength="0/1"  name="opacity"/>
             </Parameters>
             <Attributes>
              <Attribute id="4367" value="" name="ident"/>
             </Attributes>
             <ExtraData>
              <Entry key="ZoomPanBin">
               <ZoomPanBin id="4368"  >
                <ZoomPanKeyframes>
                </ZoomPanKeyframes>
               </ZoomPanBin>
              </Entry>
             </ExtraData>
            </VMFile>
            <MetaData>
             <entry key="WinSubProjectDisplayName" val=""/>
            </MetaData>
           </UnifiedMedia>
           <UnifiedMedia id="4369"  >
            <AMFile id="4370" start="2120" duration="284" scalar="1/1" mediaStart="2733/1" mediaDuration="284/1" trackNumber="2" src="4" channelNumber="0,1" >
             <Parameters>
              <InterpolatingParam id="4371" interp="linr"  time="0/1" value="1" leadInLength="0/1"  name="volume"/>
              <Parameter id="4372"  name="captions"/>
             </Parameters>
             <Attributes>
              <Attribute id="4373" value="" name="ident"/>
              <Attribute id="4374" value="44100" name="sampleRate"/>
              <Attribute id="4375" value="16" name="bitDepth"/>
              <Attribute id="4376" value="1" name="gain"/>
              <Attribute id="4377" value="0" name="mixToMono"/>
             </Attributes>
            </AMFile>
            <VMFile id="4378" start="2120" duration="284" scalar="1/1" mediaStart="2733/1" mediaDuration="284/1" trackNumber="1" src="4" >
             <Transformer>
              <VectorParam id="4379"  name="translation">
               <InterpolatingParam id="4380" interp="linr"  time="-9999999/1" value="0" leadInLength="0/1"  />
               <InterpolatingParam id="4381" interp="linr"  time="-9999999/1" value="0" leadInLength="0/1"  />
               <InterpolatingParam id="4382" interp="linr"  time="-9999999/1" value="0" leadInLength="0/1"  />
              </VectorParam>
              <VectorParam id="4383"  name="rotation">
               <InterpolatingParam id="4384" interp="linr"  time="-9999999/1" value="0" leadInLength="0/1"  />
               <InterpolatingParam id="4385" interp="linr"  time="-9999999/1" value="0" leadInLength="0/1"  />
               <InterpolatingParam id="4386" interp="linr"  time="-9999999/1" value="0" leadInLength="0/1"  />
              </VectorParam>
              <VectorParam id="4387"  name="shear">
               <InterpolatingParam id="4388" interp="linr"  time="-9999999/1" value="0" leadInLength="0/1"  />
               <InterpolatingParam id="4389" interp="linr"  time="-9999999/1" value="0" leadInLength="0/1"  />
               <InterpolatingParam id="4390" interp="linr"  time="-9999999/1" value="0" leadInLength="0/1"  />
              </VectorParam>
              <VectorParam id="4391"  name="scale">
               <InterpolatingParam id="4392" interp="linr"  time="-9999999/1" value="1" leadInLength="0/1"  />
               <InterpolatingParam id="4393" interp="linr"  time="-9999999/1" value="1" leadInLength="0/1"  />
               <InterpolatingParam id="4394" interp="linr"  time="-9999999/1" value="1" leadInLength="0/1"  />
              </VectorParam>
              <VectorParam id="4395"  name="anchor">
               <InterpolatingParam id="4396" interp="linr"  time="0/1" value="0" leadInLength="0/1"  />
               <InterpolatingParam id="4397" interp="linr"  time="0/1" value="0" leadInLength="0/1"  />
               <InterpolatingParam id="4398" interp="linr"  time="0/1" value="0" leadInLength="0/1"  />
              </VectorParam>
             </Transformer>
             <Parameters>
              <VectorParam id="4399"  name="sourceCrop">
               <InterpolatingParam id="4400" interp="linr"  time="0/1" value="0" leadInLength="0/1"  />
               <InterpolatingParam id="4401" interp="linr"  time="0/1" value="0" leadInLength="0/1"  />
               <InterpolatingParam id="4402" interp="linr"  time="0/1" value="0" leadInLength="0/1"  />
               <InterpolatingParam id="4403" interp="linr"  time="0/1" value="0" leadInLength="0/1"  />
              </VectorParam>
              <VectorParam id="4404"  name="geometryCrop">
               <InterpolatingParam id="4405" interp="linr"  time="-9999999/1" value="0" leadInLength="0/1"  />
               <InterpolatingParam id="4406" interp="linr"  time="-9999999/1" value="0" leadInLength="0/1"  />
               <InterpolatingParam id="4407" interp="linr"  time="-9999999/1" value="0" leadInLength="0/1"  />
               <InterpolatingParam id="4408" interp="linr"  time="-9999999/1" value="0" leadInLength="0/1"  />
              </VectorParam>
              <InterpolatingParam id="4409" interp="linr"  time="-9999999/1" value="1" leadInLength="0/1"  name="opacity"/>
             </Parameters>
             <Attributes>
              <Attribute id="4410" value="" name="ident"/>
             </Attributes>
             <ExtraData>
              <Entry key="ZoomPanBin">
               <ZoomPanBin id="4411"  >
                <ZoomPanKeyframes>
                </ZoomPanKeyframes>
               </ZoomPanBin>
              </Entry>
             </ExtraData>
            </VMFile>
            <MetaData>
             <entry key="WinSubProjectDisplayName" val=""/>
            </MetaData>
           </UnifiedMedia>
           <UnifiedMedia id="4412"  >
            <AMFile id="4413" start="2404" duration="45" scalar="1/1" mediaStart="3114/1" mediaDuration="45/1" trackNumber="2" src="4" channelNumber="0,1" >
             <Parameters>
              <InterpolatingParam id="4414" interp="linr"  time="0/1" value="1" leadInLength="0/1"  name="volume"/>
              <Parameter id="4415"  name="captions"/>
             </Parameters>
             <Attributes>
              <Attribute id="4416" value="" name="ident"/>
              <Attribute id="4417" value="44100" name="sampleRate"/>
              <Attribute id="4418" value="16" name="bitDepth"/>
              <Attribute id="4419" value="1" name="gain"/>
              <Attribute id="4420" value="0" name="mixToMono"/>
             </Attributes>
            </AMFile>
            <VMFile id="4421" start="2404" duration="45" scalar="1/1" mediaStart="3114/1" mediaDuration="45/1" trackNumber="1" src="4" >
             <Transformer>
              <VectorParam id="4422"  name="translation">
               <InterpolatingParam id="4423" interp="linr"  time="-9999999/1" value="0" leadInLength="0/1"  />
               <InterpolatingParam id="4424" interp="linr"  time="-9999999/1" value="0" leadInLength="0/1"  />
               <InterpolatingParam id="4425" interp="linr"  time="-9999999/1" value="0" leadInLength="0/1"  />
              </VectorParam>
              <VectorParam id="4426"  name="rotation">
               <InterpolatingParam id="4427" interp="linr"  time="-9999999/1" value="0" leadInLength="0/1"  />
               <InterpolatingParam id="4428" interp="linr"  time="-9999999/1" value="0" leadInLength="0/1"  />
               <InterpolatingParam id="4429" interp="linr"  time="-9999999/1" value="0" leadInLength="0/1"  />
              </VectorParam>
              <VectorParam id="4430"  name="shear">
               <InterpolatingParam id="4431" interp="linr"  time="-9999999/1" value="0" leadInLength="0/1"  />
               <InterpolatingParam id="4432" interp="linr"  time="-9999999/1" value="0" leadInLength="0/1"  />
               <InterpolatingParam id="4433" interp="linr"  time="-9999999/1" value="0" leadInLength="0/1"  />
              </VectorParam>
              <VectorParam id="4434"  name="scale">
               <InterpolatingParam id="4435" interp="linr"  time="-9999999/1" value="1" leadInLength="0/1"  />
               <InterpolatingParam id="4436" interp="linr"  time="-9999999/1" value="1" leadInLength="0/1"  />
               <InterpolatingParam id="4437" interp="linr"  time="-9999999/1" value="1" leadInLength="0/1"  />
              </VectorParam>
              <VectorParam id="4438"  name="anchor">
               <InterpolatingParam id="4439" interp="linr"  time="0/1" value="0" leadInLength="0/1"  />
               <InterpolatingParam id="4440" interp="linr"  time="0/1" value="0" leadInLength="0/1"  />
               <InterpolatingParam id="4441" interp="linr"  time="0/1" value="0" leadInLength="0/1"  />
              </VectorParam>
             </Transformer>
             <Parameters>
              <VectorParam id="4442"  name="sourceCrop">
               <InterpolatingParam id="4443" interp="linr"  time="0/1" value="0" leadInLength="0/1"  />
               <InterpolatingParam id="4444" interp="linr"  time="0/1" value="0" leadInLength="0/1"  />
               <InterpolatingParam id="4445" interp="linr"  time="0/1" value="0" leadInLength="0/1"  />
               <InterpolatingParam id="4446" interp="linr"  time="0/1" value="0" leadInLength="0/1"  />
              </VectorParam>
              <VectorParam id="4447"  name="geometryCrop">
               <InterpolatingParam id="4448" interp="linr"  time="-9999999/1" value="0" leadInLength="0/1"  />
               <InterpolatingParam id="4449" interp="linr"  time="-9999999/1" value="0" leadInLength="0/1"  />
               <InterpolatingParam id="4450" interp="linr"  time="-9999999/1" value="0" leadInLength="0/1"  />
               <InterpolatingParam id="4451" interp="linr"  time="-9999999/1" value="0" leadInLength="0/1"  />
              </VectorParam>
              <InterpolatingParam id="4452" interp="linr"  time="-9999999/1" value="1" leadInLength="0/1"  name="opacity"/>
             </Parameters>
             <Attributes>
              <Attribute id="4453" value="" name="ident"/>
             </Attributes>
             <ExtraData>
              <Entry key="ZoomPanBin">
               <ZoomPanBin id="4454"  >
                <ZoomPanKeyframes>
                </ZoomPanKeyframes>
               </ZoomPanBin>
              </Entry>
             </ExtraData>
            </VMFile>
            <MetaData>
             <entry key="WinSubProjectDisplayName" val=""/>
            </MetaData>
           </UnifiedMedia>
           <UnifiedMedia id="4455"  >
            <AMFile id="4456" start="2449" duration="432" scalar="1/1" mediaStart="3167/1" mediaDuration="432/1" trackNumber="2" src="4" channelNumber="0,1" >
             <Parameters>
              <InterpolatingParam id="4457" interp="linr"  time="0/1" value="1" leadInLength="0/1"  name="volume"/>
              <Parameter id="4458"  name="captions"/>
             </Parameters>
             <Attributes>
              <Attribute id="4459" value="" name="ident"/>
              <Attribute id="4460" value="44100" name="sampleRate"/>
              <Attribute id="4461" value="16" name="bitDepth"/>
              <Attribute id="4462" value="1" name="gain"/>
              <Attribute id="4463" value="0" name="mixToMono"/>
             </Attributes>
            </AMFile>
            <VMFile id="4464" start="2449" duration="432" scalar="1/1" mediaStart="3167/1" mediaDuration="432/1" trackNumber="1" src="4" >
             <Transformer>
              <VectorParam id="4465"  name="translation">
               <InterpolatingParam id="4466" interp="linr"  time="-9999999/1" value="0" leadInLength="0/1"  />
               <InterpolatingParam id="4467" interp="linr"  time="-9999999/1" value="0" leadInLength="0/1"  />
               <InterpolatingParam id="4468" interp="linr"  time="-9999999/1" value="0" leadInLength="0/1"  />
              </VectorParam>
              <VectorParam id="4469"  name="rotation">
               <InterpolatingParam id="4470" interp="linr"  time="-9999999/1" value="0" leadInLength="0/1"  />
               <InterpolatingParam id="4471" interp="linr"  time="-9999999/1" value="0" leadInLength="0/1"  />
               <InterpolatingParam id="4472" interp="linr"  time="-9999999/1" value="0" leadInLength="0/1"  />
              </VectorParam>
              <VectorParam id="4473"  name="shear">
               <InterpolatingParam id="4474" interp="linr"  time="-9999999/1" value="0" leadInLength="0/1"  />
               <InterpolatingParam id="4475" interp="linr"  time="-9999999/1" value="0" leadInLength="0/1"  />
               <InterpolatingParam id="4476" interp="linr"  time="-9999999/1" value="0" leadInLength="0/1"  />
              </VectorParam>
              <VectorParam id="4477"  name="scale">
               <InterpolatingParam id="4478" interp="linr"  time="-9999999/1" value="1" leadInLength="0/1"  />
               <InterpolatingParam id="4479" interp="linr"  time="-9999999/1" value="1" leadInLength="0/1"  />
               <InterpolatingParam id="4480" interp="linr"  time="-9999999/1" value="1" leadInLength="0/1"  />
              </VectorParam>
              <VectorParam id="4481"  name="anchor">
               <InterpolatingParam id="4482" interp="linr"  time="0/1" value="0" leadInLength="0/1"  />
               <InterpolatingParam id="4483" interp="linr"  time="0/1" value="0" leadInLength="0/1"  />
               <InterpolatingParam id="4484" interp="linr"  time="0/1" value="0" leadInLength="0/1"  />
              </VectorParam>
             </Transformer>
             <Parameters>
              <VectorParam id="4485"  name="sourceCrop">
               <InterpolatingParam id="4486" interp="linr"  time="0/1" value="0" leadInLength="0/1"  />
               <InterpolatingParam id="4487" interp="linr"  time="0/1" value="0" leadInLength="0/1"  />
               <InterpolatingParam id="4488" interp="linr"  time="0/1" value="0" leadInLength="0/1"  />
               <InterpolatingParam id="4489" interp="linr"  time="0/1" value="0" leadInLength="0/1"  />
              </VectorParam>
              <VectorParam id="4490"  name="geometryCrop">
               <InterpolatingParam id="4491" interp="linr"  time="-9999999/1" value="0" leadInLength="0/1"  />
               <InterpolatingParam id="4492" interp="linr"  time="-9999999/1" value="0" leadInLength="0/1"  />
               <InterpolatingParam id="4493" interp="linr"  time="-9999999/1" value="0" leadInLength="0/1"  />
               <InterpolatingParam id="4494" interp="linr"  time="-9999999/1" value="0" leadInLength="0/1"  />
              </VectorParam>
              <InterpolatingParam id="4495" interp="linr"  time="-9999999/1" value="1" leadInLength="0/1"  name="opacity"/>
             </Parameters>
             <Attributes>
              <Attribute id="4496" value="" name="ident"/>
             </Attributes>
             <ExtraData>
              <Entry key="ZoomPanBin">
               <ZoomPanBin id="4497"  >
                <ZoomPanKeyframes>
                </ZoomPanKeyframes>
               </ZoomPanBin>
              </Entry>
             </ExtraData>
            </VMFile>
            <MetaData>
             <entry key="WinSubProjectDisplayName" val=""/>
            </MetaData>
           </UnifiedMedia>
           <UnifiedMedia id="4498"  >
            <AMFile id="4499" start="2881" duration="32" scalar="1/1" mediaStart="3638/1" mediaDuration="32/1" trackNumber="2" src="4" channelNumber="0,1" >
             <Parameters>
              <InterpolatingParam id="4500" interp="linr"  time="0/1" value="1" leadInLength="0/1"  name="volume"/>
              <Parameter id="4501"  name="captions"/>
             </Parameters>
             <Attributes>
              <Attribute id="4502" value="" name="ident"/>
              <Attribute id="4503" value="44100" name="sampleRate"/>
              <Attribute id="4504" value="16" name="bitDepth"/>
              <Attribute id="4505" value="1" name="gain"/>
              <Attribute id="4506" value="0" name="mixToMono"/>
             </Attributes>
            </AMFile>
            <VMFile id="4507" start="2881" duration="32" scalar="1/1" mediaStart="3638/1" mediaDuration="32/1" trackNumber="1" src="4" >
             <Transformer>
              <VectorParam id="4508"  name="translation">
               <InterpolatingParam id="4509" interp="linr"  time="-9999999/1" value="0" leadInLength="0/1"  />
               <InterpolatingParam id="4510" interp="linr"  time="-9999999/1" value="0" leadInLength="0/1"  />
               <InterpolatingParam id="4511" interp="linr"  time="-9999999/1" value="0" leadInLength="0/1"  />
              </VectorParam>
              <VectorParam id="4512"  name="rotation">
               <InterpolatingParam id="4513" interp="linr"  time="-9999999/1" value="0" leadInLength="0/1"  />
               <InterpolatingParam id="4514" interp="linr"  time="-9999999/1" value="0" leadInLength="0/1"  />
               <InterpolatingParam id="4515" interp="linr"  time="-9999999/1" value="0" leadInLength="0/1"  />
              </VectorParam>
              <VectorParam id="4516"  name="shear">
               <InterpolatingParam id="4517" interp="linr"  time="-9999999/1" value="0" leadInLength="0/1"  />
               <InterpolatingParam id="4518" interp="linr"  time="-9999999/1" value="0" leadInLength="0/1"  />
               <InterpolatingParam id="4519" interp="linr"  time="-9999999/1" value="0" leadInLength="0/1"  />
              </VectorParam>
              <VectorParam id="4520"  name="scale">
               <InterpolatingParam id="4521" interp="linr"  time="-9999999/1" value="1" leadInLength="0/1"  />
               <InterpolatingParam id="4522" interp="linr"  time="-9999999/1" value="1" leadInLength="0/1"  />
               <InterpolatingParam id="4523" interp="linr"  time="-9999999/1" value="1" leadInLength="0/1"  />
              </VectorParam>
              <VectorParam id="4524"  name="anchor">
               <InterpolatingParam id="4525" interp="linr"  time="0/1" value="0" leadInLength="0/1"  />
               <InterpolatingParam id="4526" interp="linr"  time="0/1" value="0" leadInLength="0/1"  />
               <InterpolatingParam id="4527" interp="linr"  time="0/1" value="0" leadInLength="0/1"  />
              </VectorParam>
             </Transformer>
             <Parameters>
              <VectorParam id="4528"  name="sourceCrop">
               <InterpolatingParam id="4529" interp="linr"  time="0/1" value="0" leadInLength="0/1"  />
               <InterpolatingParam id="4530" interp="linr"  time="0/1" value="0" leadInLength="0/1"  />
               <InterpolatingParam id="4531" interp="linr"  time="0/1" value="0" leadInLength="0/1"  />
               <InterpolatingParam id="4532" interp="linr"  time="0/1" value="0" leadInLength="0/1"  />
              </VectorParam>
              <VectorParam id="4533"  name="geometryCrop">
               <InterpolatingParam id="4534" interp="linr"  time="-9999999/1" value="0" leadInLength="0/1"  />
               <InterpolatingParam id="4535" interp="linr"  time="-9999999/1" value="0" leadInLength="0/1"  />
               <InterpolatingParam id="4536" interp="linr"  time="-9999999/1" value="0" leadInLength="0/1"  />
               <InterpolatingParam id="4537" interp="linr"  time="-9999999/1" value="0" leadInLength="0/1"  />
              </VectorParam>
              <InterpolatingParam id="4538" interp="linr"  time="-9999999/1" value="1" leadInLength="0/1"  name="opacity"/>
             </Parameters>
             <Attributes>
              <Attribute id="4539" value="" name="ident"/>
             </Attributes>
             <ExtraData>
              <Entry key="ZoomPanBin">
               <ZoomPanBin id="4540"  >
                <ZoomPanKeyframes>
                </ZoomPanKeyframes>
               </ZoomPanBin>
              </Entry>
             </ExtraData>
            </VMFile>
            <MetaData>
             <entry key="WinSubProjectDisplayName" val=""/>
            </MetaData>
           </UnifiedMedia>
           <UnifiedMedia id="4541"  >
            <AMFile id="4542" start="2913" duration="50" scalar="1/1" mediaStart="3700/1" mediaDuration="50/1" trackNumber="2" src="4" channelNumber="0,1" >
             <Parameters>
              <InterpolatingParam id="4543" interp="linr"  time="0/1" value="1" leadInLength="0/1"  name="volume"/>
              <Parameter id="4544"  name="captions"/>
             </Parameters>
             <Attributes>
              <Attribute id="4545" value="" name="ident"/>
              <Attribute id="4546" value="44100" name="sampleRate"/>
              <Attribute id="4547" value="16" name="bitDepth"/>
              <Attribute id="4548" value="1" name="gain"/>
              <Attribute id="4549" value="0" name="mixToMono"/>
             </Attributes>
            </AMFile>
            <VMFile id="4550" start="2913" duration="50" scalar="1/1" mediaStart="3700/1" mediaDuration="50/1" trackNumber="1" src="4" >
             <Transformer>
              <VectorParam id="4551"  name="translation">
               <InterpolatingParam id="4552" interp="linr"  time="-9999999/1" value="0" leadInLength="0/1"  />
               <InterpolatingParam id="4553" interp="linr"  time="-9999999/1" value="0" leadInLength="0/1"  />
               <InterpolatingParam id="4554" interp="linr"  time="-9999999/1" value="0" leadInLength="0/1"  />
              </VectorParam>
              <VectorParam id="4555"  name="rotation">
               <InterpolatingParam id="4556" interp="linr"  time="-9999999/1" value="0" leadInLength="0/1"  />
               <InterpolatingParam id="4557" interp="linr"  time="-9999999/1" value="0" leadInLength="0/1"  />
               <InterpolatingParam id="4558" interp="linr"  time="-9999999/1" value="0" leadInLength="0/1"  />
              </VectorParam>
              <VectorParam id="4559"  name="shear">
               <InterpolatingParam id="4560" interp="linr"  time="-9999999/1" value="0" leadInLength="0/1"  />
               <InterpolatingParam id="4561" interp="linr"  time="-9999999/1" value="0" leadInLength="0/1"  />
               <InterpolatingParam id="4562" interp="linr"  time="-9999999/1" value="0" leadInLength="0/1"  />
              </VectorParam>
              <VectorParam id="4563"  name="scale">
               <InterpolatingParam id="4564" interp="linr"  time="-9999999/1" value="1" leadInLength="0/1"  />
               <InterpolatingParam id="4565" interp="linr"  time="-9999999/1" value="1" leadInLength="0/1"  />
               <InterpolatingParam id="4566" interp="linr"  time="-9999999/1" value="1" leadInLength="0/1"  />
              </VectorParam>
              <VectorParam id="4567"  name="anchor">
               <InterpolatingParam id="4568" interp="linr"  time="0/1" value="0" leadInLength="0/1"  />
               <InterpolatingParam id="4569" interp="linr"  time="0/1" value="0" leadInLength="0/1"  />
               <InterpolatingParam id="4570" interp="linr"  time="0/1" value="0" leadInLength="0/1"  />
              </VectorParam>
             </Transformer>
             <Parameters>
              <VectorParam id="4571"  name="sourceCrop">
               <InterpolatingParam id="4572" interp="linr"  time="0/1" value="0" leadInLength="0/1"  />
               <InterpolatingParam id="4573" interp="linr"  time="0/1" value="0" leadInLength="0/1"  />
               <InterpolatingParam id="4574" interp="linr"  time="0/1" value="0" leadInLength="0/1"  />
               <InterpolatingParam id="4575" interp="linr"  time="0/1" value="0" leadInLength="0/1"  />
              </VectorParam>
              <VectorParam id="4576"  name="geometryCrop">
               <InterpolatingParam id="4577" interp="linr"  time="-9999999/1" value="0" leadInLength="0/1"  />
               <InterpolatingParam id="4578" interp="linr"  time="-9999999/1" value="0" leadInLength="0/1"  />
               <InterpolatingParam id="4579" interp="linr"  time="-9999999/1" value="0" leadInLength="0/1"  />
               <InterpolatingParam id="4580" interp="linr"  time="-9999999/1" value="0" leadInLength="0/1"  />
              </VectorParam>
              <InterpolatingParam id="4581" interp="linr"  time="-9999999/1" value="1" leadInLength="0/1"  name="opacity"/>
             </Parameters>
             <Attributes>
              <Attribute id="4582" value="" name="ident"/>
             </Attributes>
             <ExtraData>
              <Entry key="ZoomPanBin">
               <ZoomPanBin id="4583"  >
                <ZoomPanKeyframes>
                </ZoomPanKeyframes>
               </ZoomPanBin>
              </Entry>
             </ExtraData>
            </VMFile>
            <MetaData>
             <entry key="WinSubProjectDisplayName" val=""/>
            </MetaData>
           </UnifiedMedia>
           <UnifiedMedia id="4584"  >
            <AMFile id="4585" start="2963" duration="217" scalar="1/1" mediaStart="4389/1" mediaDuration="217/1" trackNumber="2" src="4" channelNumber="0,1" >
             <Parameters>
              <InterpolatingParam id="4586" interp="linr"  time="0/1" value="1" leadInLength="0/1"  name="volume"/>
              <Parameter id="4587"  name="captions"/>
             </Parameters>
             <Attributes>
              <Attribute id="4588" value="" name="ident"/>
              <Attribute id="4589" value="44100" name="sampleRate"/>
              <Attribute id="4590" value="16" name="bitDepth"/>
              <Attribute id="4591" value="1" name="gain"/>
              <Attribute id="4592" value="0" name="mixToMono"/>
             </Attributes>
            </AMFile>
            <VMFile id="4593" start="2963" duration="217" scalar="1/1" mediaStart="4389/1" mediaDuration="217/1" trackNumber="1" src="4" >
             <Transformer>
              <VectorParam id="4594"  name="translation">
               <InterpolatingParam id="4595" interp="linr"  time="-9999999/1" value="0" leadInLength="0/1"  />
               <InterpolatingParam id="4596" interp="linr"  time="-9999999/1" value="0" leadInLength="0/1"  />
               <InterpolatingParam id="4597" interp="linr"  time="-9999999/1" value="0" leadInLength="0/1"  />
              </VectorParam>
              <VectorParam id="4598"  name="rotation">
               <InterpolatingParam id="4599" interp="linr"  time="-9999999/1" value="0" leadInLength="0/1"  />
               <InterpolatingParam id="4600" interp="linr"  time="-9999999/1" value="0" leadInLength="0/1"  />
               <InterpolatingParam id="4601" interp="linr"  time="-9999999/1" value="0" leadInLength="0/1"  />
              </VectorParam>
              <VectorParam id="4602"  name="shear">
               <InterpolatingParam id="4603" interp="linr"  time="-9999999/1" value="0" leadInLength="0/1"  />
               <InterpolatingParam id="4604" interp="linr"  time="-9999999/1" value="0" leadInLength="0/1"  />
               <InterpolatingParam id="4605" interp="linr"  time="-9999999/1" value="0" leadInLength="0/1"  />
              </VectorParam>
              <VectorParam id="4606"  name="scale">
               <InterpolatingParam id="4607" interp="linr"  time="-9999999/1" value="1" leadInLength="0/1"  />
               <InterpolatingParam id="4608" interp="linr"  time="-9999999/1" value="1" leadInLength="0/1"  />
               <InterpolatingParam id="4609" interp="linr"  time="-9999999/1" value="1" leadInLength="0/1"  />
              </VectorParam>
              <VectorParam id="4610"  name="anchor">
               <InterpolatingParam id="4611" interp="linr"  time="0/1" value="0" leadInLength="0/1"  />
               <InterpolatingParam id="4612" interp="linr"  time="0/1" value="0" leadInLength="0/1"  />
               <InterpolatingParam id="4613" interp="linr"  time="0/1" value="0" leadInLength="0/1"  />
              </VectorParam>
             </Transformer>
             <Parameters>
              <VectorParam id="4614"  name="sourceCrop">
               <InterpolatingParam id="4615" interp="linr"  time="0/1" value="0" leadInLength="0/1"  />
               <InterpolatingParam id="4616" interp="linr"  time="0/1" value="0" leadInLength="0/1"  />
               <InterpolatingParam id="4617" interp="linr"  time="0/1" value="0" leadInLength="0/1"  />
               <InterpolatingParam id="4618" interp="linr"  time="0/1" value="0" leadInLength="0/1"  />
              </VectorParam>
              <VectorParam id="4619"  name="geometryCrop">
               <InterpolatingParam id="4620" interp="linr"  time="-9999999/1" value="0" leadInLength="0/1"  />
               <InterpolatingParam id="4621" interp="linr"  time="-9999999/1" value="0" leadInLength="0/1"  />
               <InterpolatingParam id="4622" interp="linr"  time="-9999999/1" value="0" leadInLength="0/1"  />
               <InterpolatingParam id="4623" interp="linr"  time="-9999999/1" value="0" leadInLength="0/1"  />
              </VectorParam>
              <InterpolatingParam id="4624" interp="linr"  time="-9999999/1" value="1" leadInLength="0/1"  name="opacity"/>
             </Parameters>
             <Attributes>
              <Attribute id="4625" value="" name="ident"/>
             </Attributes>
             <ExtraData>
              <Entry key="ZoomPanBin">
               <ZoomPanBin id="4626"  >
                <ZoomPanKeyframes>
                </ZoomPanKeyframes>
               </ZoomPanBin>
              </Entry>
             </ExtraData>
            </VMFile>
            <MetaData>
             <entry key="WinSubProjectDisplayName" val=""/>
            </MetaData>
           </UnifiedMedia>
           <UnifiedMedia id="4627"  >
            <AMFile id="4628" start="3180" duration="1086" scalar="1/1" mediaStart="4678/1" mediaDuration="1086/1" trackNumber="2" src="4" channelNumber="0,1" >
             <Parameters>
              <InterpolatingParam id="4629" interp="linr"  time="0/1" value="1" leadInLength="0/1"  name="volume"/>
              <Parameter id="4630"  name="captions"/>
             </Parameters>
             <Attributes>
              <Attribute id="4631" value="" name="ident"/>
              <Attribute id="4632" value="44100" name="sampleRate"/>
              <Attribute id="4633" value="16" name="bitDepth"/>
              <Attribute id="4634" value="1" name="gain"/>
              <Attribute id="4635" value="0" name="mixToMono"/>
             </Attributes>
            </AMFile>
            <VMFile id="4636" start="3180" duration="1086" scalar="1/1" mediaStart="4678/1" mediaDuration="1086/1" trackNumber="1" src="4" >
             <Transformer>
              <VectorParam id="4637"  name="translation">
               <InterpolatingParam id="4638" interp="linr"  time="-9999999/1" value="0" leadInLength="0/1"  />
               <InterpolatingParam id="4639" interp="linr"  time="-9999999/1" value="0" leadInLength="0/1"  />
               <InterpolatingParam id="4640" interp="linr"  time="-9999999/1" value="0" leadInLength="0/1"  />
              </VectorParam>
              <VectorParam id="4641"  name="rotation">
               <InterpolatingParam id="4642" interp="linr"  time="-9999999/1" value="0" leadInLength="0/1"  />
               <InterpolatingParam id="4643" interp="linr"  time="-9999999/1" value="0" leadInLength="0/1"  />
               <InterpolatingParam id="4644" interp="linr"  time="-9999999/1" value="0" leadInLength="0/1"  />
              </VectorParam>
              <VectorParam id="4645"  name="shear">
               <InterpolatingParam id="4646" interp="linr"  time="-9999999/1" value="0" leadInLength="0/1"  />
               <InterpolatingParam id="4647" interp="linr"  time="-9999999/1" value="0" leadInLength="0/1"  />
               <InterpolatingParam id="4648" interp="linr"  time="-9999999/1" value="0" leadInLength="0/1"  />
              </VectorParam>
              <VectorParam id="4649"  name="scale">
               <InterpolatingParam id="4650" interp="linr"  time="-9999999/1" value="1" leadInLength="0/1"  />
               <InterpolatingParam id="4651" interp="linr"  time="-9999999/1" value="1" leadInLength="0/1"  />
               <InterpolatingParam id="4652" interp="linr"  time="-9999999/1" value="1" leadInLength="0/1"  />
              </VectorParam>
              <VectorParam id="4653"  name="anchor">
               <InterpolatingParam id="4654" interp="linr"  time="0/1" value="0" leadInLength="0/1"  />
               <InterpolatingParam id="4655" interp="linr"  time="0/1" value="0" leadInLength="0/1"  />
               <InterpolatingParam id="4656" interp="linr"  time="0/1" value="0" leadInLength="0/1"  />
              </VectorParam>
             </Transformer>
             <Parameters>
              <VectorParam id="4657"  name="sourceCrop">
               <InterpolatingParam id="4658" interp="linr"  time="0/1" value="0" leadInLength="0/1"  />
               <InterpolatingParam id="4659" interp="linr"  time="0/1" value="0" leadInLength="0/1"  />
               <InterpolatingParam id="4660" interp="linr"  time="0/1" value="0" leadInLength="0/1"  />
               <InterpolatingParam id="4661" interp="linr"  time="0/1" value="0" leadInLength="0/1"  />
              </VectorParam>
              <VectorParam id="4662"  name="geometryCrop">
               <InterpolatingParam id="4663" interp="linr"  time="-9999999/1" value="0" leadInLength="0/1"  />
               <InterpolatingParam id="4664" interp="linr"  time="-9999999/1" value="0" leadInLength="0/1"  />
               <InterpolatingParam id="4665" interp="linr"  time="-9999999/1" value="0" leadInLength="0/1"  />
               <InterpolatingParam id="4666" interp="linr"  time="-9999999/1" value="0" leadInLength="0/1"  />
              </VectorParam>
              <InterpolatingParam id="4667" interp="linr"  time="-9999999/1" value="1" leadInLength="0/1"  name="opacity"/>
             </Parameters>
             <Attributes>
              <Attribute id="4668" value="" name="ident"/>
             </Attributes>
             <ExtraData>
              <Entry key="ZoomPanBin">
               <ZoomPanBin id="4669"  >
                <ZoomPanKeyframes>
                </ZoomPanKeyframes>
               </ZoomPanBin>
              </Entry>
             </ExtraData>
            </VMFile>
            <MetaData>
             <entry key="WinSubProjectDisplayName" val=""/>
            </MetaData>
           </UnifiedMedia>
           <UnifiedMedia id="4670"  >
            <AMFile id="4671" start="4266" duration="4940" scalar="1/1" mediaStart="5784/1" mediaDuration="4940/1" trackNumber="2" src="4" channelNumber="0,1" >
             <Parameters>
              <InterpolatingParam id="4672" interp="linr"  time="0/1" value="1" leadInLength="0/1"  name="volume"/>
              <Parameter id="4673"  name="captions"/>
             </Parameters>
             <Attributes>
              <Attribute id="4674" value="" name="ident"/>
              <Attribute id="4675" value="44100" name="sampleRate"/>
              <Attribute id="4676" value="16" name="bitDepth"/>
              <Attribute id="4677" value="1" name="gain"/>
              <Attribute id="4678" value="0" name="mixToMono"/>
             </Attributes>
            </AMFile>
            <VMFile id="4679" start="4266" duration="4940" scalar="1/1" mediaStart="5784/1" mediaDuration="4940/1" trackNumber="1" src="4" >
             <Transformer>
              <VectorParam id="4680"  name="translation">
               <InterpolatingParam id="4681" interp="linr"  time="-9999999/1" value="0" leadInLength="0/1"  />
               <InterpolatingParam id="4682" interp="linr"  time="-9999999/1" value="0" leadInLength="0/1"  />
               <InterpolatingParam id="4683" interp="linr"  time="-9999999/1" value="0" leadInLength="0/1"  />
              </VectorParam>
              <VectorParam id="4684"  name="rotation">
               <InterpolatingParam id="4685" interp="linr"  time="-9999999/1" value="0" leadInLength="0/1"  />
               <InterpolatingParam id="4686" interp="linr"  time="-9999999/1" value="0" leadInLength="0/1"  />
               <InterpolatingParam id="4687" interp="linr"  time="-9999999/1" value="0" leadInLength="0/1"  />
              </VectorParam>
              <VectorParam id="4688"  name="shear">
               <InterpolatingParam id="4689" interp="linr"  time="-9999999/1" value="0" leadInLength="0/1"  />
               <InterpolatingParam id="4690" interp="linr"  time="-9999999/1" value="0" leadInLength="0/1"  />
               <InterpolatingParam id="4691" interp="linr"  time="-9999999/1" value="0" leadInLength="0/1"  />
              </VectorParam>
              <VectorParam id="4692"  name="scale">
               <InterpolatingParam id="4693" interp="linr"  time="-9999999/1" value="1" leadInLength="0/1"  />
               <InterpolatingParam id="4694" interp="linr"  time="-9999999/1" value="1" leadInLength="0/1"  />
               <InterpolatingParam id="4695" interp="linr"  time="-9999999/1" value="1" leadInLength="0/1"  />
              </VectorParam>
              <VectorParam id="4696"  name="anchor">
               <InterpolatingParam id="4697" interp="linr"  time="0/1" value="0" leadInLength="0/1"  />
               <InterpolatingParam id="4698" interp="linr"  time="0/1" value="0" leadInLength="0/1"  />
               <InterpolatingParam id="4699" interp="linr"  time="0/1" value="0" leadInLength="0/1"  />
              </VectorParam>
             </Transformer>
             <Parameters>
              <VectorParam id="4700"  name="sourceCrop">
               <InterpolatingParam id="4701" interp="linr"  time="0/1" value="0" leadInLength="0/1"  />
               <InterpolatingParam id="4702" interp="linr"  time="0/1" value="0" leadInLength="0/1"  />
               <InterpolatingParam id="4703" interp="linr"  time="0/1" value="0" leadInLength="0/1"  />
               <InterpolatingParam id="4704" interp="linr"  time="0/1" value="0" leadInLength="0/1"  />
              </VectorParam>
              <VectorParam id="4705"  name="geometryCrop">
               <InterpolatingParam id="4706" interp="linr"  time="-9999999/1" value="0" leadInLength="0/1"  />
               <InterpolatingParam id="4707" interp="linr"  time="-9999999/1" value="0" leadInLength="0/1"  />
               <InterpolatingParam id="4708" interp="linr"  time="-9999999/1" value="0" leadInLength="0/1"  />
               <InterpolatingParam id="4709" interp="linr"  time="-9999999/1" value="0" leadInLength="0/1"  />
              </VectorParam>
              <InterpolatingParam id="4710" interp="linr"  time="-9999999/1" value="1" leadInLength="0/1"  name="opacity"/>
             </Parameters>
             <Attributes>
              <Attribute id="4711" value="" name="ident"/>
             </Attributes>
             <ExtraData>
              <Entry key="ZoomPanBin">
               <ZoomPanBin id="4712"  >
                <ZoomPanKeyframes>
                </ZoomPanKeyframes>
               </ZoomPanBin>
              </Entry>
             </ExtraData>
            </VMFile>
            <MetaData>
             <entry key="WinSubProjectDisplayName" val=""/>
            </MetaData>
           </UnifiedMedia>
          </Medias>
         </GenericTrack>
        </StitchedMedia>
        <StitchedMedia id="4713" start="4606" duration="3620" scalar="1/1" mediaStart="6714/1" mediaDuration="3620/1" minMediaStart="0/1" >
         <Transformer>
          <VectorParam id="4714"  name="translation">
           <InterpolatingParam id="4715" interp="linr"  time="-9999999/1" value="213.39442231060002" leadInLength="0/1"  interpolater="leadin-linr"  />
           <InterpolatingParam id="4716" interp="linr"  time="-9999999/1" value="-158.54581673299921" leadInLength="0/1"  interpolater="leadin-linr"  />
           <InterpolatingParam id="4717" interp="linr"  time="-9999999/1" value="0" leadInLength="0/1"  interpolater="leadin-linr"  />
          </VectorParam>
          <VectorParam id="4718"  name="rotation">
           <InterpolatingParam id="4719" interp="linr"  time="-9999999/1" value="0" leadInLength="0/1"  interpolater="leadin-linr"  />
           <InterpolatingParam id="4720" interp="linr"  time="-9999999/1" value="0" leadInLength="0/1"  interpolater="leadin-linr"  />
           <InterpolatingParam id="4721" interp="linr"  time="-9999999/1" value="0" leadInLength="0/1"  interpolater="leadin-linr"  />
          </VectorParam>
          <VectorParam id="4722"  name="shear">
           <InterpolatingParam id="4723" interp="linr"  time="-9999999/1" value="0" leadInLength="0/1"  interpolater="leadin-linr"  />
           <InterpolatingParam id="4724" interp="linr"  time="-9999999/1" value="0" leadInLength="0/1"  interpolater="leadin-linr"  />
           <InterpolatingParam id="4725" interp="linr"  time="-9999999/1" value="0" leadInLength="0/1"  interpolater="leadin-linr"  />
          </VectorParam>
          <VectorParam id="4726"  name="scale">
           <InterpolatingParam id="4727" interp="linr"  time="-9999999/1" value="0.83939243027936827" leadInLength="0/1"  interpolater="leadin-linr"  />
           <InterpolatingParam id="4728" interp="linr"  time="-9999999/1" value="0.83939243027936794" leadInLength="0/1"  interpolater="leadin-linr"  />
           <InterpolatingParam id="4729" interp="linr"  time="-9999999/1" value="1" leadInLength="0/1"  interpolater="leadin-linr"  />
          </VectorParam>
          <VectorParam id="4730"  name="anchor">
           <InterpolatingParam id="4731" interp="linr"  time="0/1" value="0" leadInLength="0/1"  />
           <InterpolatingParam id="4732" interp="linr"  time="0/1" value="0" leadInLength="0/1"  />
           <InterpolatingParam id="4733" interp="linr"  time="0/1" value="0" leadInLength="0/1"  />
          </VectorParam>
         </Transformer>
         <Parameters>
          <VectorParam id="4734"  name="sourceCrop">
           <InterpolatingParam id="4735" interp="linr"  time="0/1" value="0" leadInLength="0/1"  />
           <InterpolatingParam id="4736" interp="linr"  time="0/1" value="0" leadInLength="0/1"  />
           <InterpolatingParam id="4737" interp="linr"  time="0/1" value="0" leadInLength="0/1"  />
           <InterpolatingParam id="4738" interp="linr"  time="0/1" value="0" leadInLength="0/1"  />
          </VectorParam>
          <VectorParam id="4739"  name="geometryCrop">
           <InterpolatingParam id="4740" interp="linr"  time="-9999999/1" value="0" leadInLength="0/1"  interpolater="leadin-linr"  />
           <InterpolatingParam id="4741" interp="linr"  time="-9999999/1" value="0" leadInLength="0/1"  interpolater="leadin-linr"  />
           <InterpolatingParam id="4742" interp="linr"  time="-9999999/1" value="0" leadInLength="0/1"  interpolater="leadin-linr"  />
           <InterpolatingParam id="4743" interp="linr"  time="-9999999/1" value="0" leadInLength="0/1"  interpolater="leadin-linr"  />
          </VectorParam>
          <InterpolatingParam id="4744" interp="linr"  time="-9999999/1" value="1" leadInLength="0/1"  interpolater="leadin-linr"  name="opacity"/>
          <InterpolatingParam id="4745" interp="linr"  time="0/1" value="1" leadInLength="0/1"  name="cursorOpacity"/>
          <InterpolatingParam id="4746" interp="linr"  time="0/1" value="1" leadInLength="0/1"  name="cursorScale"/>
          <InterpolatingParam id="4747" interp="linr"  name="volume">
           <Keyframes>
           <Keyframe id="4748"  time="0/1" value="1" leadInLength="0/1"  />
           <Keyframe id="4749"  time="6714/1" value="1" leadInLength="0/1"  />
           </Keyframes>
          </InterpolatingParam>
          <Parameter id="4750"  name="captions"/>
         </Parameters>
         <Effects>
          <GenericEffect id="4751" name = "NoiseReduction" >
           <Parameters>
           <InterpolatingParam id="4752" interp="linr"  time="0/1" value="27.599999999999998" leadInLength="0/1"   name="denoiserAmount"/>
           <InterpolatingParam id="4753" interp="linr"  time="0/1" value="2.2799999999999994" leadInLength="0/1"   name="denoiserThreshold"/>
           <Parameter id="4754"   name="noiseProfile">
            <Keyframes>
            <Keyframe id="4755"  time="0/1" value="FBAAAAIAAABErAAAAQIAADIzKsKAlxvC8LIvwg19O8IK4EvCQSZLwmF7TsI7XVPCKGZXwnHlWMI8&#xD;&#xa;ClbCPj1fwvbibcJdbG/CmIBywmQIc8ILrHbCJ7Z/woevesJgM3LCI/dywqGycsLfzW/CPi51wqvD&#xD;&#xa;esIdrXfCoEN7wuMwhML4pYTC2ZiEwomoh8IoD4nCLaOHwmTjiMKBE4HCcid7wkKpgsLiCITCi3uB&#xD;&#xa;wndKf8ICQYXCYkiIwgqni8J5Zo7Cep2Swsu6lcIFZZPCzWySwngRk8LokJTCLe+TwjCClMLoWpTC&#xD;&#xa;lo+Vwoujl8KSEZfClkiZwsQumcKZXZnC+Pmawtw6mMJQW5rCzZiawhGBmMISvprC5riawlOul8I+&#xD;&#xa;CpnC5pGYwt+plMIGy5bC9wyWwvaolMKDSJPC7LeTwuKclcJZj5fCZ1KawmBCmcJkRp3CByegwury&#xD;&#xa;n8JJW6DCyeWawjy9mMKeFJfCXXGWwgLzlsJQ8ZfC276YwkMBmsJ81JjC8n2bwtokm8Lc+prC4LCc&#xD;&#xa;wtG3nsLQ1KDC6picwuBunMKkRqDCmiSbwil8mcJG45nC2ySYwibnmsI565nCFHKewjL3n8LNqZ3C&#xD;&#xa;kKuewgCUm8JyMZzCnqGdwhSZncIYcp3CahOawuOBm8KL+ZzCROCdwiiVm8IY7pzChESdwvPZnMJm&#xD;&#xa;3JrCQfybwvJvoMJ2DaHCs2KfwvxDn8Lbwp/ChBmgwpt8osL2z6DCZ8ibwu6ym8JNzpzCfBydwqyt&#xD;&#xa;ncJsuZzCi/6ewlbVncLMi5vCpzqbwtfumcL6JZjCAouZwvdknMKl46DCV/ugwnLPncImTJ/C2xag&#xD;&#xa;woYSnMLopZ3CGAiewozWnsJgoJzClvScwrqPocImf5/C95SbwpaqncJJs6HCtGajwhKYnsLyf57C&#xD;&#xa;N3WhwlybncIHiZzCelGcwr4qmcIGmJ7CYi6gwiBCoMKdZpzCDOSYwt26msJ23JzChDihwsr9n8IU&#xD;&#xa;gZvCUv2bwuexoMJHB6DCzqmewvKTncIIg53Cx+idwhniocIQC6PCdhGjwu5xosIQ0Z7CF9ifwtr5&#xD;&#xa;oMLyRKPCH6+hwroSosJsFqDC4fKewp+DncJcW6DCw+ijwud9ncIOGp7C/I6kwvl0o8LyG6PCSCOk&#xD;&#xa;wpwgpsK1L6bCsTSmwjMzpsIehKfC/qynwh4pp8KUdaPCmNekwl8vpcKUBqfCqK+owi78qsKgkKvC&#xD;&#xa;olGqwpLfrMKS7avCLRWrwhw8qMJbG6vCF86qwjY+qMJ6FafCbRWpwiLcqMIrIqjCCwGowibpqsIO&#xD;&#xa;iqzCZ8SqwumzrMKd8a3CHlyuwrpjrcIs96zCrBWwwpTDrsK6KK7C9xSuwiDyrcIFwa7CGW2wwnaP&#xD;&#xa;rcInYanCD/Oowm4ZqMK+PKrCuySpwmJnqsIlgKvCz8qswmwdqsJuyanCmm2swrbwrsJNQK7CCuus&#xD;&#xa;wpDGrcJNDrHCCFOxwjscssKI4a/C36OvwsbkrsL6la3CRmutwnUKr8Kvhq/CtMSqwigSqsJZTKvC&#xD;&#xa;vqKuwmhCrsLAIqzCqLurwqTXqsJI2arC2Z6swkAQsMLCFLHC3eKrwjtGrMKrCK/CCHyswoOFqsLk&#xD;&#xa;nqfC5BKowi5+qsLDGKvCeXyswqafr8KylKzCLG2rwnNZrsL7+rDCHSCtwloyq8JEhKvCc2erwlYs&#xD;&#xa;q8KoyqzClhWqwkJzrMIE+6rCbLypwijxrMJ4r6zCkCGtwmAQr8Jpn63CDK+uwjTIqcJcL6vC3Pew&#xD;&#xa;wlmgscJO96/COBOvwn/+rMKWHqzC3wuxwrjdssLQj7PCC8+ywtR2rsKxParCcbWswv6VscLAwrDC&#xD;&#xa;J3uwwgLZssK0DLTCFEq1wkH4ssLqsLHCToSxwvocs8LcgLDCAlCwwshCssJ2mLLCLZS0wsRxtMJo&#xD;&#xa;i7HCfx2twtZIr8JiGbHCldmxwiiPssJUsrHCm86wwvKJsML2FbLCQtOuwlxGrMKVL67CTNSzwvvM&#xD;&#xa;ssLKJbTCHii0wksQscICQLHC/SGxwnxtssLlH7HC96etwqxyr8J926/CiwGzwpAatMJUubTCE6Oz&#xD;&#xa;wi1UscL/Va/CVhOvwlU5ssLk8rTCOyy2wthHtcKyabTCj6+2wpwluMLwd7nCrqy2wjkot8J+PLnC&#xD;&#xa;EL+2wkuDt8IIirrCpoC3wktvt8IXa7nCQvu1ws+5tcLv47bCKYi1wkz6tMLCgrXCfsq0wtuKssLh&#xD;&#xa;Q7TCUdy0wvTOs8K6ALTC7Sq0wtgruMJd9rXCtzy3wiXYusL8JbnCHE64whp1tsIAkrjCNaK5wuYB&#xD;&#xa;u8IM6r3CNoS9wp4sv8IqPr3CAWe8wvCpucIOpbfCTWW4wgi+u8JSs7zCyP66wuWVvMLIBr/C4qW8&#xD;&#xa;whqauMI8PLnCxca4wr69usJ5XLfCtMC3wlbSusLUC7zCvMe7wtYvvMJSprrCb2O3wtBKu8IAbL7C&#xD;&#xa;JvC9wkxPusKSMrnCMwK9wtaNucI/sLTCrqO5wtgCvcL5orvCQWi+wkPrwMLEy77CRsG/wlhnycIw&#xD;&#xa;v8/CsdvNwsJGy8LqnMvCzGrOwk9YzsLUPs3CjtvOwic70MJmI9TCEajOwvYPzsLYYdDC4M7PwjzE&#xD;&#xa;0cIuedTCEuTSwvRg0cIWz83C6uDKwpxgysIYrMrC0SLOwvAs1MI6vtTCa+LQwvCe1cIAtuPCDXrn&#xD;&#xa;wsEn38LmxNTCWJ7Uwkrb3MKnSdnCn3rQwiknzsKWcs/CiQbWwhiM28KS49nCTu/RwtdC08L6sNnC&#xD;&#xa;anDTwq9Y1MKaH9/C2HT0wqUzKsLulxvCfrIvwrh5O8Ix2kvCJiZLwox5TsJYWFPCP2JXwh3oWMLJ&#xD;&#xa;C1bCZT1fwtPibcKlbG/CNYNywm4Jc8LOqXbCSLJ/wgGuesJiM3LCEvdywtSycsKBzW/Cvy11wp/B&#xD;&#xa;esIZq3fCPEJ7wrQuhMLBpITCYZiEwl6oh8KvDonCIaKHwnrjiMLbEoHCRCd7wqWrgsLcCYTCbXuB&#xD;&#xa;wtJKf8IsQYXC20eIwlqmi8JCZ47Cbp+Sws64lcLFX5PCZ2qSwroQk8KkkJTC8e+TwpiElMIaWJTC&#xD;&#xa;woyVwiKel8JTDJfCtESZwsQqmcJHVJnC3fKawlNAmMKcYJrCzpyawnqCmMIBv5rC8sWawqq4l8KK&#xD;&#xa;GJnCV6OYwkmslMKozZbCEhiWwvCulMKPTZPCHsCTwjOflcJ2hZfCREuawk5BmcLhQ53C/TCgwm75&#xD;&#xa;n8IKWaDC2+eawhXGmMIzHJfCV4KWwiUAl8Ka+ZfCKsKYwv38mcLUypjCkXKbwn8fm8Kl+5rCEbCc&#xD;&#xa;wmK1nsJz1aDC5JWcwmdznMJHT6DCFSmbwv2FmcKa45nCeiGYwgnsmsKh6JnC+H2ewj8EoMKgtZ3C&#xD;&#xa;orCewhCdm8JZOJzCap2dwlSancIefp3CKBmawo19m8JC+ZzCSuidwgafm8IJ/JzCW02dwkDlnMIG&#xD;&#xa;6ZrC1A+cwkJ3oMK0GqHC2mmfwgBCn8KD0Z/CyS6gwq2eosLP3qDCosKbwlOzm8JCyZzCrBWdwk6/&#xD;&#xa;ncKRu5zCVPSewtjUncK9k5vCuU+bwpwEmsIiN5jC9IyZwkx8nMJWE6HC7DKhwv7nncJ5ZJ/C7UCg&#xD;&#xa;wpo5nMLUsp3CYBGewvLknsISopzCRfacwkaSocL+dJ/CkpubwhK8ncLYx6HC22ajwueSnsLHb57C&#xD;&#xa;zXChwoWlncKCnpzC+VqcwuQnmcIGi57CiyigwmRMoMKdeJzC9d+YwlGzmsJI3JzCSzChwkjtn8K+&#xD;&#xa;cJvCBPebwqK7oMJrFaDCvKyewhKHncJHcJ3Cqd6dwprlocILH6PC9yqjwuCHosKC5Z7CfNifwusC&#xD;&#xa;ocIZVKPCAbKhwpkhosKoKaDCSAufwpWWncLea6DCgOajwjqLncJCJp7CcoCkwm5Vo8KYEaPCqyyk&#xD;&#xa;wugdpsJjSKbCqlamwtFCpsIwqqfCALqnwlonp8JjiaPCNOSkwldCpcLUCqfCyqWowvzLqsKUiavC&#xD;&#xa;ImSqwn7TrMIG5avCIjOrwu+JqMJ3QKvC1sKqwoJIqMJkJafCUjqpwibhqMKqC6jCh/anwgruqsJZ&#xD;&#xa;aazCBbiqwvq2rMI+5K3C6KSuwmKkrcIBRa3CoRuwwgi1rsJDIq7CEC2uwvgSrsJAyK7CvqOwwnnF&#xD;&#xa;rcIyX6nCPA+pwk4uqMIXRarCMDOpwrZ7qsJOfqvC1NCswhM+qsKB4qnCJZCswkwmr8KMOa7Chgqt&#xD;&#xa;wkryrcJDK7HC1ouxwmb8scLWya/Cp4uvwsL3rsKAn63C3H2twkQfr8Izja/C6smqwiITqsLwSKvC&#xD;&#xa;9pquwvhJrsKiK6zC5q+rwqTIqsL216rCk6qswpgtsMJ5LLHC7uKrwrQ+rMLx+K7CdXKswkKGqsKm&#xD;&#xa;qafCXQ6owr2AqsLjH6vCSoeswkCur8LklqzCvn2rwiZtrsJ4EbHCnhutwho0q8K9iavCCGKrwsEw&#xD;&#xa;q8IkyazC0BOqwkRzrMLu8KrCGaupwiPgrMLVoqzCUBitwsYPr8IspK3CDq6uwq7IqcKQL6vCbvyw&#xD;&#xa;wgqzscJSEbDCWCCvwm36rMJDHKzCmAuxwnPcssKEhbPC/7eywklgrsLgN6rCfsWswqKdscJ9zLDC&#xD;&#xa;HHWwwt/ussIOMbTCIEa1wqjxssJErrHCjpWxwsUos8KolrDC5Gmwwq5BssLnkLLCyJi0wmdxtMI/&#xD;&#xa;e7HCGgytwi5Er8IKG7HCpuGxwsOVssKfu7HCXcOwwtOLsMJME7LCPdGuwhxJrMIgLa7CINezwv7B&#xD;&#xa;ssJIHrTCDh20wvgGscLrQbHCFSqxwvZ+ssIyGLHCNautwq5wr8IkyK/C4P6ywkoitMLyuLTCQp6z&#xD;&#xa;wrxLscJaUq/Crgyvwg1BssLu9rTCyym2witKtcIXd7TCKtS2wok9uML8hLnC18S2wqkyt8JUXrnC&#xD;&#xa;L+G2wh56t8KMgbrCuIS3wtJst8IYdLnCPgK2wriytcKw4LbCIoC1wrn4tML/ibXCEr20wmGKssLm&#xD;&#xa;RbTCzNW0wrLOs8LtBrTC1jS0wqQuuMKs9LXCwyi3wiTMusL9QLnCk2S4wmVktsI1grjCjqi5wnry&#xD;&#xa;usIu5b3C4nG9wo4Av8J/SL3CZnO8wgjBucKGzbfCaW24ws3Pu8IPwbzCbu26wpiIvMLQFL/CDcm8&#xD;&#xa;wtbCuMJLQLnCfp24wkKeusKxQ7fCfM63wjbuusLjF7zCuOC7wpRPvMKmtrrCc2i3wkViu8IrSr7C&#xD;&#xa;mNS9wvxtusJOYrnCnCe9woWUucLzurTCjKW5wp8lvcLLp7vC3ky+wuT8wMKgwL7CMae/wiJFycLM&#xD;&#xa;is/C3BfOwi6Ey8LOgcvCakzOwlhHzsKGaM3CjtbOwqRF0MJtMNTCaXXOwobmzcI6fNDCOArQwlL0&#xD;&#xa;0cI0p9TC2MLSwonb0cJOAs7Co9TKwixoysLwssrC+GnOwiQn1MK2zNTCqgnRwjaz1cLCVuTCtEXo&#xD;&#xa;wnBz38JG09TCDLnUwoI63cIzHdnCglnQwkcOzsIax8/Ctj3Wws5u28JgVdrCQjXSwvTp0sJc9tjC&#xD;&#xa;oq7Twj5d1MI+mN/CdPz0" leadInLength="0/1"  />
            </Keyframes>
           </Parameter>
           </Parameters>
           <MetaData>
            <entry key="effectIndex" val="0"/>
           </MetaData>
          </GenericEffect>
         </Effects>
         <Attributes>
          <Attribute id="4756" value="" name="ident"/>
          <Attribute id="4757" value="0" name="mixToMono"/>
         </Attributes>
         <MetaData>
          <entry key="WinSubProjectDisplayName" val=""/>
         </MetaData>
         <ExtraData>
          <Entry key="ZoomPanBin">
           <ZoomPanBin id="4758"  >
            <ZoomPanKeyframes>
             <ZoomPanKeyframe id="4759" timeRangeEnd="-9999999/1" timeRangeDuration="0/1" interpolaterName="linr"  />
            </ZoomPanKeyframes>
           </ZoomPanBin>
          </Entry>
          <Entry key="CursorEffectBin">
           <CursorEffectBin id="4760"  >
            <CursorEffectKeyframes>
            </CursorEffectKeyframes>
           </CursorEffectBin>
          </Entry>
         </ExtraData>
         <GenericTrack id="4761"  >
          <Attributes>
           <Attribute id="4762" value="" name="ident"/>
           <Attribute id="4763" value="0" name="audioMuted"/>
           <Attribute id="4764" value="0" name="videoHidden"/>
          </Attributes>
          <MetaData>
           <entry key="IsLocked" val="False"/>
           <entry key="WinTrackHeight" val="0"/>
          </MetaData>
          <Medias>
           <UnifiedMedia id="4765"  >
            <AMFile id="4766" start="0" duration="8495" scalar="1/1" mediaStart="0/1" mediaDuration="8495/1" trackNumber="2" src="4" channelNumber="0,1" >
             <Parameters>
              <InterpolatingParam id="4767" interp="linr"  time="0/1" value="1" leadInLength="0/1"  name="volume"/>
              <Parameter id="4768"  name="captions"/>
             </Parameters>
             <Attributes>
              <Attribute id="4769" value="" name="ident"/>
              <Attribute id="4770" value="44100" name="sampleRate"/>
              <Attribute id="4771" value="16" name="bitDepth"/>
              <Attribute id="4772" value="1" name="gain"/>
              <Attribute id="4773" value="0" name="mixToMono"/>
             </Attributes>
            </AMFile>
            <VMFile id="4774" start="0" duration="8495" scalar="1/1" mediaStart="0/1" mediaDuration="8495/1" trackNumber="1" src="4" >
             <Transformer>
              <VectorParam id="4775"  name="translation">
               <InterpolatingParam id="4776" interp="linr"  time="-9999999/1" value="0" leadInLength="0/1"  />
               <InterpolatingParam id="4777" interp="linr"  time="-9999999/1" value="0" leadInLength="0/1"  />
               <InterpolatingParam id="4778" interp="linr"  time="-9999999/1" value="0" leadInLength="0/1"  />
              </VectorParam>
              <VectorParam id="4779"  name="rotation">
               <InterpolatingParam id="4780" interp="linr"  time="-9999999/1" value="0" leadInLength="0/1"  />
               <InterpolatingParam id="4781" interp="linr"  time="-9999999/1" value="0" leadInLength="0/1"  />
               <InterpolatingParam id="4782" interp="linr"  time="-9999999/1" value="0" leadInLength="0/1"  />
              </VectorParam>
              <VectorParam id="4783"  name="shear">
               <InterpolatingParam id="4784" interp="linr"  time="-9999999/1" value="0" leadInLength="0/1"  />
               <InterpolatingParam id="4785" interp="linr"  time="-9999999/1" value="0" leadInLength="0/1"  />
               <InterpolatingParam id="4786" interp="linr"  time="-9999999/1" value="0" leadInLength="0/1"  />
              </VectorParam>
              <VectorParam id="4787"  name="scale">
               <InterpolatingParam id="4788" interp="linr"  time="-9999999/1" value="1" leadInLength="0/1"  />
               <InterpolatingParam id="4789" interp="linr"  time="-9999999/1" value="1" leadInLength="0/1"  />
               <InterpolatingParam id="4790" interp="linr"  time="-9999999/1" value="1" leadInLength="0/1"  />
              </VectorParam>
              <VectorParam id="4791"  name="anchor">
               <InterpolatingParam id="4792" interp="linr"  time="0/1" value="0" leadInLength="0/1"  />
               <InterpolatingParam id="4793" interp="linr"  time="0/1" value="0" leadInLength="0/1"  />
               <InterpolatingParam id="4794" interp="linr"  time="0/1" value="0" leadInLength="0/1"  />
              </VectorParam>
             </Transformer>
             <Parameters>
              <VectorParam id="4795"  name="sourceCrop">
               <InterpolatingParam id="4796" interp="linr"  time="0/1" value="0" leadInLength="0/1"  />
               <InterpolatingParam id="4797" interp="linr"  time="0/1" value="0" leadInLength="0/1"  />
               <InterpolatingParam id="4798" interp="linr"  time="0/1" value="0" leadInLength="0/1"  />
               <InterpolatingParam id="4799" interp="linr"  time="0/1" value="0" leadInLength="0/1"  />
              </VectorParam>
              <VectorParam id="4800"  name="geometryCrop">
               <InterpolatingParam id="4801" interp="linr"  time="-9999999/1" value="0" leadInLength="0/1"  />
               <InterpolatingParam id="4802" interp="linr"  time="-9999999/1" value="0" leadInLength="0/1"  />
               <InterpolatingParam id="4803" interp="linr"  time="-9999999/1" value="0" leadInLength="0/1"  />
               <InterpolatingParam id="4804" interp="linr"  time="-9999999/1" value="0" leadInLength="0/1"  />
              </VectorParam>
              <InterpolatingParam id="4805" interp="linr"  time="-9999999/1" value="1" leadInLength="0/1"  name="opacity"/>
             </Parameters>
             <Attributes>
              <Attribute id="4806" value="" name="ident"/>
             </Attributes>
             <ExtraData>
              <Entry key="ZoomPanBin">
               <ZoomPanBin id="4807"  >
                <ZoomPanKeyframes>
                 <ZoomPanKeyframe id="4808" timeRangeEnd="-9999999/1" timeRangeDuration="0/1" interpolaterName=""  />
                </ZoomPanKeyframes>
               </ZoomPanBin>
              </Entry>
             </ExtraData>
            </VMFile>
            <MetaData>
             <entry key="WinSubProjectDisplayName" val=""/>
            </MetaData>
           </UnifiedMedia>
           <UnifiedMedia id="4809"  >
            <AMFile id="4810" start="8495" duration="1386" scalar="1/1" mediaStart="8535/1" mediaDuration="1386/1" trackNumber="2" src="4" channelNumber="0,1" >
             <Parameters>
              <InterpolatingParam id="4811" interp="linr"  time="0/1" value="1" leadInLength="0/1"  name="volume"/>
              <Parameter id="4812"  name="captions"/>
             </Parameters>
             <Attributes>
              <Attribute id="4813" value="" name="ident"/>
              <Attribute id="4814" value="44100" name="sampleRate"/>
              <Attribute id="4815" value="16" name="bitDepth"/>
              <Attribute id="4816" value="1" name="gain"/>
              <Attribute id="4817" value="0" name="mixToMono"/>
             </Attributes>
            </AMFile>
            <VMFile id="4818" start="8495" duration="1386" scalar="1/1" mediaStart="8535/1" mediaDuration="1386/1" trackNumber="1" src="4" >
             <Transformer>
              <VectorParam id="4819"  name="translation">
               <InterpolatingParam id="4820" interp="linr"  time="-9999999/1" value="0" leadInLength="0/1"  />
               <InterpolatingParam id="4821" interp="linr"  time="-9999999/1" value="0" leadInLength="0/1"  />
               <InterpolatingParam id="4822" interp="linr"  time="-9999999/1" value="0" leadInLength="0/1"  />
              </VectorParam>
              <VectorParam id="4823"  name="rotation">
               <InterpolatingParam id="4824" interp="linr"  time="-9999999/1" value="0" leadInLength="0/1"  />
               <InterpolatingParam id="4825" interp="linr"  time="-9999999/1" value="0" leadInLength="0/1"  />
               <InterpolatingParam id="4826" interp="linr"  time="-9999999/1" value="0" leadInLength="0/1"  />
              </VectorParam>
              <VectorParam id="4827"  name="shear">
               <InterpolatingParam id="4828" interp="linr"  time="-9999999/1" value="0" leadInLength="0/1"  />
               <InterpolatingParam id="4829" interp="linr"  time="-9999999/1" value="0" leadInLength="0/1"  />
               <InterpolatingParam id="4830" interp="linr"  time="-9999999/1" value="0" leadInLength="0/1"  />
              </VectorParam>
              <VectorParam id="4831"  name="scale">
               <InterpolatingParam id="4832" interp="linr"  time="-9999999/1" value="1" leadInLength="0/1"  />
               <InterpolatingParam id="4833" interp="linr"  time="-9999999/1" value="1" leadInLength="0/1"  />
               <InterpolatingParam id="4834" interp="linr"  time="-9999999/1" value="1" leadInLength="0/1"  />
              </VectorParam>
              <VectorParam id="4835"  name="anchor">
               <InterpolatingParam id="4836" interp="linr"  time="0/1" value="0" leadInLength="0/1"  />
               <InterpolatingParam id="4837" interp="linr"  time="0/1" value="0" leadInLength="0/1"  />
               <InterpolatingParam id="4838" interp="linr"  time="0/1" value="0" leadInLength="0/1"  />
              </VectorParam>
             </Transformer>
             <Parameters>
              <VectorParam id="4839"  name="sourceCrop">
               <InterpolatingParam id="4840" interp="linr"  time="0/1" value="0" leadInLength="0/1"  />
               <InterpolatingParam id="4841" interp="linr"  time="0/1" value="0" leadInLength="0/1"  />
               <InterpolatingParam id="4842" interp="linr"  time="0/1" value="0" leadInLength="0/1"  />
               <InterpolatingParam id="4843" interp="linr"  time="0/1" value="0" leadInLength="0/1"  />
              </VectorParam>
              <VectorParam id="4844"  name="geometryCrop">
               <InterpolatingParam id="4845" interp="linr"  time="-9999999/1" value="0" leadInLength="0/1"  />
               <InterpolatingParam id="4846" interp="linr"  time="-9999999/1" value="0" leadInLength="0/1"  />
               <InterpolatingParam id="4847" interp="linr"  time="-9999999/1" value="0" leadInLength="0/1"  />
               <InterpolatingParam id="4848" interp="linr"  time="-9999999/1" value="0" leadInLength="0/1"  />
              </VectorParam>
              <InterpolatingParam id="4849" interp="linr"  time="-9999999/1" value="1" leadInLength="0/1"  name="opacity"/>
             </Parameters>
             <Attributes>
              <Attribute id="4850" value="" name="ident"/>
             </Attributes>
             <ExtraData>
              <Entry key="ZoomPanBin">
               <ZoomPanBin id="4851"  >
                <ZoomPanKeyframes>
                 <ZoomPanKeyframe id="4852" timeRangeEnd="-9999999/1" timeRangeDuration="0/1" interpolaterName=""  />
                </ZoomPanKeyframes>
               </ZoomPanBin>
              </Entry>
             </ExtraData>
            </VMFile>
            <MetaData>
             <entry key="WinSubProjectDisplayName" val=""/>
            </MetaData>
           </UnifiedMedia>
           <UnifiedMedia id="4853"  >
            <AMFile id="4854" start="9881" duration="490" scalar="1/1" mediaStart="10234/1" mediaDuration="490/1" trackNumber="2" src="4" channelNumber="0,1" >
             <Parameters>
              <InterpolatingParam id="4855" interp="linr"  time="0/1" value="1" leadInLength="0/1"  name="volume"/>
              <Parameter id="4856"  name="captions"/>
             </Parameters>
             <Attributes>
              <Attribute id="4857" value="" name="ident"/>
              <Attribute id="4858" value="44100" name="sampleRate"/>
              <Attribute id="4859" value="16" name="bitDepth"/>
              <Attribute id="4860" value="1" name="gain"/>
              <Attribute id="4861" value="0" name="mixToMono"/>
             </Attributes>
            </AMFile>
            <VMFile id="4862" start="9881" duration="490" scalar="1/1" mediaStart="10234/1" mediaDuration="490/1" trackNumber="1" src="4" >
             <Transformer>
              <VectorParam id="4863"  name="translation">
               <InterpolatingParam id="4864" interp="linr"  time="-9999999/1" value="0" leadInLength="0/1"  />
               <InterpolatingParam id="4865" interp="linr"  time="-9999999/1" value="0" leadInLength="0/1"  />
               <InterpolatingParam id="4866" interp="linr"  time="-9999999/1" value="0" leadInLength="0/1"  />
              </VectorParam>
              <VectorParam id="4867"  name="rotation">
               <InterpolatingParam id="4868" interp="linr"  time="-9999999/1" value="0" leadInLength="0/1"  />
               <InterpolatingParam id="4869" interp="linr"  time="-9999999/1" value="0" leadInLength="0/1"  />
               <InterpolatingParam id="4870" interp="linr"  time="-9999999/1" value="0" leadInLength="0/1"  />
              </VectorParam>
              <VectorParam id="4871"  name="shear">
               <InterpolatingParam id="4872" interp="linr"  time="-9999999/1" value="0" leadInLength="0/1"  />
               <InterpolatingParam id="4873" interp="linr"  time="-9999999/1" value="0" leadInLength="0/1"  />
               <InterpolatingParam id="4874" interp="linr"  time="-9999999/1" value="0" leadInLength="0/1"  />
              </VectorParam>
              <VectorParam id="4875"  name="scale">
               <InterpolatingParam id="4876" interp="linr"  time="-9999999/1" value="1" leadInLength="0/1"  />
               <InterpolatingParam id="4877" interp="linr"  time="-9999999/1" value="1" leadInLength="0/1"  />
               <InterpolatingParam id="4878" interp="linr"  time="-9999999/1" value="1" leadInLength="0/1"  />
              </VectorParam>
              <VectorParam id="4879"  name="anchor">
               <InterpolatingParam id="4880" interp="linr"  time="0/1" value="0" leadInLength="0/1"  />
               <InterpolatingParam id="4881" interp="linr"  time="0/1" value="0" leadInLength="0/1"  />
               <InterpolatingParam id="4882" interp="linr"  time="0/1" value="0" leadInLength="0/1"  />
              </VectorParam>
             </Transformer>
             <Parameters>
              <VectorParam id="4883"  name="sourceCrop">
               <InterpolatingParam id="4884" interp="linr"  time="0/1" value="0" leadInLength="0/1"  />
               <InterpolatingParam id="4885" interp="linr"  time="0/1" value="0" leadInLength="0/1"  />
               <InterpolatingParam id="4886" interp="linr"  time="0/1" value="0" leadInLength="0/1"  />
               <InterpolatingParam id="4887" interp="linr"  time="0/1" value="0" leadInLength="0/1"  />
              </VectorParam>
              <VectorParam id="4888"  name="geometryCrop">
               <InterpolatingParam id="4889" interp="linr"  time="-9999999/1" value="0" leadInLength="0/1"  />
               <InterpolatingParam id="4890" interp="linr"  time="-9999999/1" value="0" leadInLength="0/1"  />
               <InterpolatingParam id="4891" interp="linr"  time="-9999999/1" value="0" leadInLength="0/1"  />
               <InterpolatingParam id="4892" interp="linr"  time="-9999999/1" value="0" leadInLength="0/1"  />
              </VectorParam>
              <InterpolatingParam id="4893" interp="linr"  time="-9999999/1" value="1" leadInLength="0/1"  name="opacity"/>
             </Parameters>
             <Attributes>
              <Attribute id="4894" value="" name="ident"/>
             </Attributes>
             <ExtraData>
              <Entry key="ZoomPanBin">
               <ZoomPanBin id="4895"  >
                <ZoomPanKeyframes>
                 <ZoomPanKeyframe id="4896" timeRangeEnd="-9999999/1" timeRangeDuration="0/1" interpolaterName=""  />
                </ZoomPanKeyframes>
               </ZoomPanBin>
              </Entry>
             </ExtraData>
            </VMFile>
            <MetaData>
             <entry key="WinSubProjectDisplayName" val=""/>
            </MetaData>
           </UnifiedMedia>
          </Medias>
         </GenericTrack>
        </StitchedMedia>
       </Medias>
      </GenericTrack>
      <GenericTrack id="4897"  >
       <Attributes>
        <Attribute id="4898" value="" name="ident"/>
        <Attribute id="4899" value="0" name="audioMuted"/>
        <Attribute id="4900" value="0" name="videoHidden"/>
       </Attributes>
       <MetaData>
        <entry key="IsLocked" val="False"/>
        <entry key="WinTrackHeight" val="62"/>
       </MetaData>
       <Medias>
       </Medias>
      </GenericTrack>
     </Tracks>
    </GenericMixer>
   <CaptionAttributes id="4901"  >
    <Attribute id="4902" value="1" name="captionsEnabled"/>
    <Attribute id="4903" value="Arial" name="captionsFontName"/>
    <Attribute id="4904" value="26" name="captionsFontSize"/>
    <Attribute id="4905" value="(0,0,0,255)" name="captionsBackgroundColor"/>
    <Attribute id="4906" value="(255,255,255,255)" name="captionsForegroundColor"/>
    <Attribute id="4907" value="en" name="lang"/>
    <Attribute id="4908" value="0" name="captionsAlignment"/>
    <Attribute id="4909" value="1" name="captionsDefaultFontSize"/>
    <Attribute id="4910" value="0.5" name="captionsOpacity"/>
    <Attribute id="4911" value="1" name="captionsBackgroundEnabled"/>
    <Attribute id="4912" value="1" name="captionsBackgroundOnlyAroundText"/>
   </CaptionAttributes>
   <Parameters>
    <VectorParam id="4913"  name="eyePosition">
     <InterpolatingParam id="4914" interp="linr"  time="0/1" value="0" leadInLength="0/1"  />
     <InterpolatingParam id="4915" interp="linr"  time="0/1" value="0" leadInLength="0/1"  />
     <InterpolatingParam id="4916" interp="linr"  time="0/1" value="3000" leadInLength="0/1"  />
    </VectorParam>
    <VectorParam id="4917"  name="eyeLookAtPosition">
     <InterpolatingParam id="4918" interp="linr"  time="0/1" value="0" leadInLength="0/1"  />
     <InterpolatingParam id="4919" interp="linr"  time="0/1" value="0" leadInLength="0/1"  />
     <InterpolatingParam id="4920" interp="linr"  time="0/1" value="0" leadInLength="0/1"  />
    </VectorParam>
    <VectorParam id="4921"  name="eyeUpVector">
     <InterpolatingParam id="4922" interp="linr"  time="0/1" value="0" leadInLength="0/1"  />
     <InterpolatingParam id="4923" interp="linr"  time="0/1" value="1" leadInLength="0/1"  />
     <InterpolatingParam id="4924" interp="linr"  time="0/1" value="0" leadInLength="0/1"  />
    </VectorParam>
    <InterpolatingParam id="4925" interp="linr"  time="0/1" value="0.23885785" leadInLength="0/1"  name="fov"/>
    <InterpolatingParam id="4926" interp="linr"  time="0/1" value="1.5" leadInLength="0/1"  name="nearClipDistance"/>
    <InterpolatingParam id="4927" interp="linr"  time="0/1" value="6000" leadInLength="0/1"  name="farClipDistance"/>
   </Parameters>
  </Timeline>
 </Project>
</GoProject>
</CSMLData>

</Project_Data>
