<?xml version="1.0"?>
<Project_Data Version="8.00">
<Project_Settings>
<ProfileName></ProfileName>
<ProjectWidth>960</ProjectWidth>
<ProjectHeight>720</ProjectHeight>
<IsCustomProject>1</IsCustomProject>
<SavedProjectSettings>1</SavedProjectSettings>
<LastFlashTemplate>-1</LastFlashTemplate>
</Project_Settings>


<AutoSaveFile>C:\Users\Junaid\AppData\Local\TechSmith\Camtasia Studio\8.0\Auto-Saves\IOT Levelsb771d3c.autosave.camproj</AutoSaveFile>

<ProjectID>3622FD65-E52A-4E22-82C7-F1FF22482D67</ProjectID>

<PowerPointProject>0</PowerPointProject>

<PowerPointFilename></PowerPointFilename>


<Project_Notes>
</Project_Notes>

<Project_MetaData>
<Project_MetaData_Object>
<FieldArrayKey>8</FieldArrayKey>
<Value>IOT Levels</Value>
</Project_MetaData_Object>
<Project_MetaData_Object>
<FieldArrayKey>13</FieldArrayKey>
<Value>2016-01-30 10:19:23 PM</Value>
</Project_MetaData_Object>
<Project_MetaData_Object>
<FieldArrayKey>16</FieldArrayKey>
<Value>ENU</Value>
</Project_MetaData_Object>
</Project_MetaData>

<CSMLData>
<GoProject id="1" version="3.0" >
 <Project id="2" editRate="30/1" version="3.0" >
  <Author></Author>
  <Comment></Comment>
  <System></System>
  <SourceBin id="3"  >
    <Source id="4" src="C:\Users\Junaid\Desktop\IOT RECO\IOT LEVELS.trec" lastMod="20160130T164853" rect="(0,0,1024,768)" >
      <SourceTrack range="(0,8395)" type="0" editRate="30/1" trackRect="(0,0,1024,768)" sampleRate="0/1" bitDepth="0" numChannels="0" filename="IOT LEVELS.trec!Strack0.tsc2" metaData="IOT LEVELS.trec;" />
      <SourceTrack range="(0,12327936)" type="2" editRate="44100/1" trackRect="(0,0,0,0)" sampleRate="44100/1" bitDepth="16" numChannels="2" filename="IOT LEVELS.trec!Maudio1.mp4" metaData="" />
    </Source>
  </SourceBin>
  <Timeline id="5"  >
   <Attributes>
    <Attribute id="6" value="960" name="width"/>
    <Attribute id="7" value="720" name="height"/>
    <Attribute id="8" value="(0,0,0,255)" name="backgroundColor"/>
   </Attributes>
    <GenericMixer id="9"  name="Unified Mixer">
     <MetaData>
      <entry key="MixerType" val="TimelineMixer"/>
     </MetaData>
     <Tracks>
      <GenericTrack id="10"  >
       <Attributes>
        <Attribute id="11" value="" name="ident"/>
        <Attribute id="12" value="0" name="audioMuted"/>
        <Attribute id="13" value="0" name="videoHidden"/>
       </Attributes>
       <MetaData>
        <entry key="IsLocked" val="False"/>
        <entry key="WinTrackHeight" val="62"/>
       </MetaData>
       <Medias>
        <StitchedMedia id="14" start="0" duration="7219" scalar="1/1" mediaStart="25/1" mediaDuration="7219/1" minMediaStart="0/1" >
         <Transformer>
          <VectorParam id="15"  name="translation">
           <InterpolatingParam id="16" interp="linr"  time="-9999999/1" value="2.0564904492968825e-012" leadInLength="0/1"  interpolater="leadin-linr"  />
           <InterpolatingParam id="17" interp="linr"  time="-9999999/1" value="3.709033080667723e-011" leadInLength="0/1"  interpolater="leadin-linr"  />
           <InterpolatingParam id="18" interp="linr"  time="-9999999/1" value="0" leadInLength="0/1"  interpolater="leadin-linr"  />
          </VectorParam>
          <VectorParam id="19"  name="rotation">
           <InterpolatingParam id="20" interp="linr"  time="-9999999/1" value="0" leadInLength="0/1"  interpolater="leadin-linr"  />
           <InterpolatingParam id="21" interp="linr"  time="-9999999/1" value="0" leadInLength="0/1"  interpolater="leadin-linr"  />
           <InterpolatingParam id="22" interp="linr"  time="-9999999/1" value="0" leadInLength="0/1"  interpolater="leadin-linr"  />
          </VectorParam>
          <VectorParam id="23"  name="shear">
           <InterpolatingParam id="24" interp="linr"  time="-9999999/1" value="0" leadInLength="0/1"  interpolater="leadin-linr"  />
           <InterpolatingParam id="25" interp="linr"  time="-9999999/1" value="0" leadInLength="0/1"  interpolater="leadin-linr"  />
           <InterpolatingParam id="26" interp="linr"  time="-9999999/1" value="0" leadInLength="0/1"  interpolater="leadin-linr"  />
          </VectorParam>
          <VectorParam id="27"  name="scale">
           <InterpolatingParam id="28" interp="linr"  time="-9999999/1" value="0.9375" leadInLength="0/1"  interpolater="leadin-linr"  />
           <InterpolatingParam id="29" interp="linr"  time="-9999999/1" value="0.9375" leadInLength="0/1"  interpolater="leadin-linr"  />
           <InterpolatingParam id="30" interp="linr"  time="-9999999/1" value="1" leadInLength="0/1"  interpolater="leadin-linr"  />
          </VectorParam>
          <VectorParam id="31"  name="anchor">
           <InterpolatingParam id="32" interp="linr"  time="0/1" value="0" leadInLength="0/1"  />
           <InterpolatingParam id="33" interp="linr"  time="0/1" value="0" leadInLength="0/1"  />
           <InterpolatingParam id="34" interp="linr"  time="0/1" value="0" leadInLength="0/1"  />
          </VectorParam>
         </Transformer>
         <Parameters>
          <VectorParam id="35"  name="sourceCrop">
           <InterpolatingParam id="36" interp="linr"  time="0/1" value="0" leadInLength="0/1"  />
           <InterpolatingParam id="37" interp="linr"  time="0/1" value="0" leadInLength="0/1"  />
           <InterpolatingParam id="38" interp="linr"  time="0/1" value="0" leadInLength="0/1"  />
           <InterpolatingParam id="39" interp="linr"  time="0/1" value="0" leadInLength="0/1"  />
          </VectorParam>
          <VectorParam id="40"  name="geometryCrop">
           <InterpolatingParam id="41" interp="linr"  time="-9999999/1" value="0" leadInLength="0/1"  interpolater="leadin-linr"  />
           <InterpolatingParam id="42" interp="linr"  time="-9999999/1" value="0" leadInLength="0/1"  interpolater="leadin-linr"  />
           <InterpolatingParam id="43" interp="linr"  time="-9999999/1" value="0" leadInLength="0/1"  interpolater="leadin-linr"  />
           <InterpolatingParam id="44" interp="linr"  time="-9999999/1" value="0" leadInLength="0/1"  interpolater="leadin-linr"  />
          </VectorParam>
          <InterpolatingParam id="45" interp="linr"  time="-9999999/1" value="1" leadInLength="0/1"  interpolater="leadin-linr"  name="opacity"/>
          <InterpolatingParam id="46" interp="linr"  time="0/1" value="1" leadInLength="0/1"  name="cursorOpacity"/>
          <InterpolatingParam id="47" interp="linr"  time="0/1" value="1" leadInLength="0/1"  name="cursorScale"/>
          <InterpolatingParam id="48" interp="linr"  time="0/1" value="1" leadInLength="0/1"  name="volume"/>
          <Parameter id="49"  name="captions"/>
         </Parameters>
         <Effects>
          <GenericEffect id="50" name = "CursorBaseEffectName" >
           <Parameters>
           <InterpolatingParam id="51" interp="linr"  time="-9999999/1" value="1" leadInLength="0/1"   name="cursorSize"/>
           <InterpolatingParam id="52" interp="linr"  time="-9999999/1" value="0" leadInLength="0/1"   name="highlightBlurRadius"/>
           <InterpolatingParam id="53" interp="linr"  time="-9999999/1" value="0" leadInLength="0/1"   name="highlightColorBlue"/>
           <InterpolatingParam id="54" interp="linr"  time="-9999999/1" value="255" leadInLength="0/1"   name="highlightColorGreen"/>
           <InterpolatingParam id="55" interp="linr"  time="-9999999/1" value="255" leadInLength="0/1"   name="highlightColorRed"/>
           <InterpolatingParam id="56" interp="linr"  time="-9999999/1" value="5" leadInLength="0/1"   name="highlightFeatherSize"/>
           <InterpolatingParam id="57" interp="linr"  time="-9999999/1" value="2" leadInLength="0/1"   name="highlightMagnification"/>
           <InterpolatingParam id="58" interp="linr"  time="-9999999/1" value="1" leadInLength="0/1"   name="highlightOpacity"/>
           <InterpolatingParam id="59" interp="linr"  time="-9999999/1" value="45" leadInLength="0/1"   name="highlightSize"/>
           <Parameter id="60"   name="highlightType">
            <Keyframes>
            <Keyframe id="61"  time="-9999999/1" value="0" leadInLength="0/1"  />
            </Keyframes>
           </Parameter>
           <InterpolatingParam id="62" interp="linr"  time="-9999999/1" value="0" leadInLength="0/1"   name="leftClickColorBlue"/>
           <InterpolatingParam id="63" interp="linr"  time="-9999999/1" value="0" leadInLength="0/1"   name="leftClickColorGreen"/>
           <InterpolatingParam id="64" interp="linr"  time="-9999999/1" value="255" leadInLength="0/1"   name="leftClickColorRed"/>
           <InterpolatingParam id="65" interp="linr"  time="-9999999/1" value="0.80000000000000004" leadInLength="0/1"   name="leftClickDuration"/>
           <InterpolatingParam id="66" interp="linr"  time="-9999999/1" value="20" leadInLength="0/1"   name="leftClickSize"/>
           <Parameter id="67"   name="leftClickSoundFilename">
            <Keyframes>
            <Keyframe id="68"  time="-9999999/1" value="" leadInLength="0/1"  />
            </Keyframes>
           </Parameter>
           <InterpolatingParam id="69" interp="linr"  time="-9999999/1" value="1" leadInLength="0/1"   name="leftClickSoundVolume"/>
           <Parameter id="70"   name="leftClickType">
            <Keyframes>
            <Keyframe id="71"  time="-9999999/1" value="0" leadInLength="0/1"  />
            </Keyframes>
           </Parameter>
           <InterpolatingParam id="72" interp="linr"  time="-9999999/1" value="1" leadInLength="0/1"   name="opacity"/>
           <InterpolatingParam id="73" interp="linr"  time="-9999999/1" value="255" leadInLength="0/1"   name="rightClickColorBlue"/>
           <InterpolatingParam id="74" interp="linr"  time="-9999999/1" value="0" leadInLength="0/1"   name="rightClickColorGreen"/>
           <InterpolatingParam id="75" interp="linr"  time="-9999999/1" value="0" leadInLength="0/1"   name="rightClickColorRed"/>
           <InterpolatingParam id="76" interp="linr"  time="-9999999/1" value="0.80000000000000004" leadInLength="0/1"   name="rightClickDuration"/>
           <InterpolatingParam id="77" interp="linr"  time="-9999999/1" value="20" leadInLength="0/1"   name="rightClickSize"/>
           <Parameter id="78"   name="rightClickSoundFilename">
            <Keyframes>
            <Keyframe id="79"  time="-9999999/1" value="" leadInLength="0/1"  />
            </Keyframes>
           </Parameter>
           <InterpolatingParam id="80" interp="linr"  time="-9999999/1" value="1" leadInLength="0/1"   name="rightClickSoundVolume"/>
           <Parameter id="81"   name="rightClickType">
            <Keyframes>
            <Keyframe id="82"  time="-9999999/1" value="0" leadInLength="0/1"  />
            </Keyframes>
           </Parameter>
           </Parameters>
           <MetaData>
            <entry key="effectIndex" val="0"/>
           </MetaData>
          </GenericEffect>
          <GenericEffect id="83" name = "NoiseReduction" >
           <Parameters>
           <InterpolatingParam id="84" interp="linr"  time="0/1" value="35.600000000000001" leadInLength="0/1"   name="denoiserAmount"/>
           <InterpolatingParam id="85" interp="linr"  time="0/1" value="4.6799999999999997" leadInLength="0/1"   name="denoiserThreshold"/>
           <Parameter id="86"   name="noiseProfile">
            <Keyframes>
            <Keyframe id="87"  time="0/1" value="FBAAAAIAAABErAAAAQIAAOlJLsK4ciHCwKBHwlO9WcKH9E/CBh5Nwn2PU8L7SVXCIOBUwnicV8JN&#xD;&#xa;Q1bCoDtVwqTbXsJhRWfCgeRuwg71b8KSYXPCbaR4wvHLdMKGn3XCu2RzwmW6dMLvkW7CR+5vwkiy&#xD;&#xa;ccI7qHTCMzR0wi2IbsImInbCZCOEwnachMJQmYLCYaCCwr52hMIMZoTCgEqCwv6Vg8KzEoLCAMiC&#xD;&#xa;wkHGg8IFwoHCslCCws74hMIuRYXCitWBwgu2g8LPxofC7Z6KwoSqjMKVpI/CH1uOwh/djMKD0Y/C&#xD;&#xa;VQmPwnAYkMLFOpPCRGmXwmkUmcK0dJfCfnyYwvaAmcJAdpvC5/qUwkeVk8LKRZbCRRmbwq8bncLp&#xD;&#xa;GZnCY1KXwiX6lMKeT5HCBBOOwkd/j8KWAJDCbJ2MwpbZjcKAApHCYqySwp9zksLxaJLCHB6UwhYv&#xD;&#xa;k8I/wZPCN5+TwvVplMImSpbCZJyXwhqzl8KYR5rC7GWcwqlAnMLSM5zCHf+dwgTrn8Jri6HCYC6h&#xD;&#xa;wljJn8KagaDCLp2hwtj6n8JaPJ7C8FKdwv4ZncIwnJ3CPpShwhrXoMJoSJ/CM6ifwgY9n8KAGqDC&#xD;&#xa;MPCiwgSipsJIP6bCuuSlwm9RpcJ7A6LCSVuiwjbAncIB25nC+UebwtjJncLWPZvCQvWdwlfaoML4&#xD;&#xa;hKLCehylwkm8pcK8rabCN4mowie7p8IwxabCWhiows5AqcKdLazCxAytwiExqsLL3avCTSmswgOE&#xD;&#xa;qsLSn6jCr/unwrJJqsJjUKnCYBGnwvl3p8KnrKnCnkmqwgQ/qsLnW6jCtT6nwumtpcJCi6XCUs2h&#xD;&#xa;wvvGocJuKqPCFAGmwpTMpMIQu6PCt5mkwmUMosKybqDCbiKhwg6jnsL7u53CTFyewt/7ocIC1aLC&#xD;&#xa;+9uiwvzTo8K5Z6fCkfqmwnQ0qMK5lqbCgYOowhy9psJ286TCOg+lwqpaqMKO/KbC7cyiwscmocIz&#xD;&#xa;cKHCG9miwqteo8LHaJ/Cj36gwlpCo8KilqbCLPimwkrkpcLReaPCn/GgwgwCocK0r6HCo7OhwuJa&#xD;&#xa;ocIs+6DCc7mgwkDJoMLlN5/Cx6GgwoxIosJETqbCgnKpwpGeqcJPZKnCyjinwvsSpcLoZKPCFzSk&#xD;&#xa;wsTbo8IizaLCtmGkwtbKosKLBKLCeCilwg7LpcIYXaTCZP6kwsS8qMJLeqvCTl+uwkj2rsIc2qzC&#xD;&#xa;xSOtwvvqqsJ65qzCDX6vwgx8ssLq5LTCTumvwj5mrcIi2KzC69CtwpaCrsImoqzC0D6uwn/AscLA&#xD;&#xa;07PCp7W0wgQgssJuubDCjiCxwuaYtMLy1bLCrq2wwhBissLc/rTCLMK0wsk4ssKGYbHCoTyzwlsd&#xD;&#xa;tML9WbPCSLCwwiZSr8LHsK7CQUCywkyrs8LG67TC9Hm0wk+JsMIZVLPCSZOywrI+sMLStq7Cvf6z&#xD;&#xa;wmRXtcLcTLLCAZWzwvI+tsI9D7XCqa21wicbtcJ6hrTCQgSzwm8oscJSuK3C+zyuwtSjr8J52a/C&#xD;&#xa;aeGswmg/sMJo2q/CFgivwiUrsMIh3K7CnAqvwtbrrcJg8q7CpsawwoNArMJEfKvC4HCtwryWqcIU&#xD;&#xa;RKvC+G+uwiSSr8I3urHCODmzwgCftMJmirLCuqOvwjNKscJRxrDCr/Ovwsopr8IjBbDC1VmwwsgI&#xD;&#xa;ssLSWrPCKgKzwik/tMIv/bTCIoe1wnZVtsLsw7XCvtm1wheis8IpJrXCf8a1wi/cs8KPJLXCitCz&#xD;&#xa;wvyVssJJGbPCukG1wvdSscJIsrDCXg60wiORtMKXKLLCWSmwwmAKssK2brTC0hm2wkiPs8KMuLXC&#xD;&#xa;CGWzwlI3sMKAc7LCkxyywrh9s8IOcrTCuli1wsh4tMLUTrPCuYSxwjmzsMJUhbPCTYKzwqRMssK2&#xD;&#xa;4LLCQXm0wvY9s8IFMrHCR0a0wgSztMINnrfC2HS4whQftMKM1LDCTKCpwoq2pcLB26zC/niywiLf&#xD;&#xa;s8JeZLTCSzuzwiHutMJAr7PC5Ly0wvWAs8KETrTCrcO0whYptMIqiLTCYiizwrr7rsIU67DCz4Wy&#xD;&#xa;wtRYssKeXbHC6Aq0wsABtcJ4RLPCiXm1wkJptcJcMbHC0ji0wn74tcKzwbLC5E2ywmgktsI6lLfC&#xD;&#xa;HeO2wg3ftcLNXrPCTEK0wvxxtcIVnLXCErWywpahs8L5VrfC5IW5wmqnvMIwQbvC8C24wrRgvML+&#xD;&#xa;27vCvx+4wsiyt8KmDrrCCvW9wgKCu8IohLXC+WW0wg4yt8LqYbjCeBq3wkRKt8L8s7nCqqa7wq4t&#xD;&#xa;ucKEtbnC2L24wiQ6uMJoC7fCQEG5wtJcucKOS7TCzRG1wkUYusI4/rvCUGK5wkEzuML8z7fCCuW4&#xD;&#xa;wgrjt8KpgrjClT25wiARtcJGk7XCWh63wp9muMLaabfCW/y6wjRRvcKwgL/C+1nAwoT/xMKsVsPC&#xD;&#xa;+PC+wgahv8LgRcHCXi6/wlCev8JYzMHCMkjHwhbLxcJgrsXCVg7Jwuy6ysIkCMfCmj/HwqjnzsLQ&#xD;&#xa;N9bCNoLawhT+1cLs2tTCiIjYwvQS2cL28tfCotTawkLq1cI0ZdXCDmTUwkaX08ImvNTC/C3SwltV&#xD;&#xa;1MKgMNfC+DvawhBq1sJor9bC0M7hwjR76sJCXdrCO1jSwhhc1cLfzuHC4NDzwsaa+MIkvvzCct/7&#xD;&#xa;wqCs+cL2EvnCTmT5wocF+MLa9fjCiLH7wqqa+cIex/bC0If2wpcV+MLoVffCAjH4wtjV9cJUj/jC&#xD;&#xa;+qz7wsi5+sLAzfTCeHsAw91JLsKgciHCraBHwsi9WcIj9U/Cuh5NwsmPU8JySlXCCuBUwi2cV8Kp&#xD;&#xa;QlbCZTtVwibcXsIARWfCgOFuwpLzb8JxX3PCKqN4wjTNdMINn3XCpmNzwn+6dMLdkm7C2+5vwsez&#xD;&#xa;ccJWqXTCXjN0wlCHbsJlInbC/yOEwjadhMIlmYLCdKCCwiB2hMJjZYTC00mCwhWWg8LWEYLCUMaC&#xD;&#xa;wrTEg8JXwYHCRVCCwrj5hMIQRYXCv9SBwr+1g8KtxofC/J+KwlGpjMJ0o4/COVyOwtjejML30o/C&#xD;&#xa;AA2Pwj0fkMKKO5PCCGOXwv0RmcIoc5fCaHmYwlKBmcK/fZvC0P2UwnSWk8IpQpbC9xebwvQcncLi&#xD;&#xa;G5nCgFSXwmf6lMJ8U5HCzhWOwip/j8K+AJDCY56MwszYjcLKAZHCd6ySwtxxksJhZpLCJR+Uwuk0&#xD;&#xa;k8IjxJPC/5uTwoxklMJwQZbCzZaXwka0l8I6S5rCxmicwrdAnMI1NZzC6P6dwoLwn8LojqHCHiuh&#xD;&#xa;wnrIn8IueaDC8pKhwhz6n8LPO57Cv06dwp8encIOm53CM46hwqbboMJ1VJ/C5q+fwog2n8KsGKDC&#xD;&#xa;NeqiwpicpsI2PabCJOWlwrBSpcK8AqLChViiwi++ncJn2ZnCHEibwkvJncKUQ5vCCfmdwhTdoMJj&#xD;&#xa;oqLCH0elwtXvpcJw2KbCIquowsrMp8LCw6bChDSowrprqcJWMqzCbMaswiYiqsKu8avCd0mswi6p&#xD;&#xa;qsJcw6jCwzeowvldqsJWQqnC+BqnwoOWp8Lw5qnCPl+qwqY4qsKDc6jCLzynwsippcJpoKXCHtih&#xD;&#xa;wiXLocIILKPCghWmwgbhpMLnvaPCnZukwoIaosIucKDCCSehwtCnnsIKwp3CvWSewo7+ocL92KLC&#xD;&#xa;+N2iwqLLo8ISa6fCIAmnwsw6qMKti6bCDnWowoy1psKZ66TChBelwjpeqMKw+abCQciiwskcocJN&#xD;&#xa;ZqHCEdSiwo9eo8JGbp/CHIGgwtBCo8KgnqbChP+mwirupcIqgaPCfvOgwtgPocJW0qHCyeWhwsx9&#xD;&#xa;ocJe/aDCoKugwiLIoMJSQ5/Ct6igwnBVosLaa6bCDJupwineqcKMianC9jinwpoTpcI7VqPCqiSk&#xD;&#xa;wtrdo8JA2qLC1F2kwoTCosIPEqLC9UKlwn3EpcLYV6TC6PKkwpjBqMJflqvC8HquwuTprsK91azC&#xD;&#xa;DjOtwuYZq8Kf9KzCw7yvwtTLssKoL7XCpxCwwvKorcKENq3CThmuwobSrsJl8KzCQjGuwvYMssJf&#xD;&#xa;rrPCLqu0wswwssKrG7HCsmCxwjKPtMIuDLPCQACxwhi+ssJknrXCKDm1wpqhssJKr7HCiCuzwhUZ&#xD;&#xa;tMK8WrPCe9mwwqJdr8LJja7CWiKywm7Ds8JpV7XCpWC0wkeMsMJSabPCFq2ywuZgsMIJ6q7CdDa0&#xD;&#xa;wkePtcIYf7LCDKmzwvZatsIMKrXCK6K1wtfWtMJmY7TC+SazwphLscLqwq3CRWauwrr7r8Jnx6/C&#xD;&#xa;zP2swmNcsMICILDCHmCvwjMtsMLQ367CNiyvwjrwrcIK3a7CRsqwwqhSrMKyhKvCTW2twtCSqcLM&#xD;&#xa;Q6vCZXquwgyHr8LEq7HC/EuzwjaStMIihbLCW5avwudBscJhv7DCSu+vwq8vr8KICLDCHEiwwsj6&#xD;&#xa;scIcYrPCKAKzwkJQtMK2KbXC4rC1wqd8tsLi07XCR861wmeas8LAILXC5re1woS4s8J8FrXCediz&#xD;&#xa;wimHssIsDbPCkEG1wmZRscK0srDCaPCzwm6EtMIyF7LCzh6wwsr4scL4Z7TCz1C2wk+js8I137XC&#xD;&#xa;CoKzwmlCsMI0erLCfjmywniNs8LWa7TCg1+1wv9utMKNRrPCo4yxwgy5sMKpgrPCCo+zwrtnssLp&#xD;&#xa;87LCapC0wqVRs8IiRbHCAVO0wmy8tMLvr7fCYU64wkYFtMK4zrDCVq6pwoPBpcJq3qzCupCywrfq&#xD;&#xa;s8LZTbTC2FGzwhzctMJukbPCCpG0wo1us8KMRLTCfdO0wtYttMLairTC/Bqzwn39rsK++rDCYqiy&#xD;&#xa;wnBrssJmarHCMgu0wtT/tMLqR7PCyHW1wn12tcJ3QLHCxUO0wjbptcJDorLCFCiywsoUtsKEbrfC&#xD;&#xa;L7+2wrrztcJbfLPCtXW0whKItcIjnLXC16eywoCgs8J5SrfCBF65wqh0vMLDHbvC0zG4wpJtvMIy&#xD;&#xa;BrzCaBi4wo6Dt8J43rnCjSW+wva+u8LahbXCBmC0wjxDt8JAe7jC2gy3wrhOt8KJ+rnCT8W7wq4z&#xD;&#xa;ucJCfLnCbY24wlk7uMJw57bC9hy5wpI/ucJ8L7TCB/y0wrJDusL+BLzCCEW5wvsmuMKW4LfC2964&#xD;&#xa;wnL2t8KGabjCuyW5wsoRtcI2ibXCrA23whp3uMKnfLfC2vK6wnlJvcICRL/Cjn/AwoodxcJhisPC&#xD;&#xa;JPS+wsSEv8L4LMHCWwS/woSBv8ImusHCckTHwpTIxcIITsXCyoTIwpPKysIkAsfCMt3Gwl54zsJz&#xD;&#xa;tNbCBYPawtne1cLu6dTC32rYwhZ52MLGEdjC2HnbwjM81sLMkNXC0gjUwiZM08LLktTC9IvRwgKc&#xD;&#xa;08JoldbCA8/ZwoZA1sKFnNbC9xTiwi5E68It5drCVvLSwuzg1cKu8OHCrNTzwuRe9cKipfXCUxL1&#xD;&#xa;wn5M9sK6NffCzI34wrIr+sK0WPXCCov2wog7+sImF/jC4Fz5wjzK+ML8WffCyCX7wirl+cJZ0vfC&#xD;&#xa;TMP3wmoI9sLyhPTC8wwD" leadInLength="0/1"  />
            </Keyframes>
           </Parameter>
           </Parameters>
           <MetaData>
            <entry key="effectIndex" val="1"/>
           </MetaData>
          </GenericEffect>
         </Effects>
         <Attributes>
          <Attribute id="88" value="" name="ident"/>
          <Attribute id="89" value="0" name="mixToMono"/>
         </Attributes>
         <MetaData>
          <entry key="AutoAppliedSmartFocus" val="False"/>
          <entry key="WinSubProjectDisplayName" val=""/>
         </MetaData>
         <ExtraData>
          <Entry key="ZoomPanBin">
           <ZoomPanBin id="90"  >
            <ZoomPanKeyframes>
             <ZoomPanKeyframe id="91" timeRangeEnd="-9999999/1" timeRangeDuration="0/1" interpolaterName="linr"  />
            </ZoomPanKeyframes>
           </ZoomPanBin>
          </Entry>
          <Entry key="CursorEffectBin">
           <CursorEffectBin id="92"  >
            <CursorEffectKeyframes>
             <CursorEffectKeyframe id="93" timeRangeEnd="-9999999/1" timeRangeDuration="0/1" interpolaterName=""  />
            </CursorEffectKeyframes>
           </CursorEffectBin>
          </Entry>
         </ExtraData>
         <GenericTrack id="94"  >
          <Attributes>
           <Attribute id="95" value="" name="ident"/>
           <Attribute id="96" value="0" name="audioMuted"/>
           <Attribute id="97" value="0" name="videoHidden"/>
          </Attributes>
          <MetaData>
           <entry key="IsLocked" val="False"/>
           <entry key="WinTrackHeight" val="0"/>
          </MetaData>
          <Medias>
           <UnifiedMedia id="98"  >
            <AMFile id="99" start="0" duration="389" scalar="1/1" mediaStart="0/1" mediaDuration="389/1" trackNumber="1" src="4" channelNumber="0,1" >
             <Parameters>
              <InterpolatingParam id="100" interp="linr"  time="0/1" value="1" leadInLength="0/1"  name="volume"/>
              <Parameter id="101"  name="captions"/>
             </Parameters>
             <Attributes>
              <Attribute id="102" value="" name="ident"/>
              <Attribute id="103" value="44100" name="sampleRate"/>
              <Attribute id="104" value="16" name="bitDepth"/>
              <Attribute id="105" value="1" name="gain"/>
              <Attribute id="106" value="0" name="mixToMono"/>
             </Attributes>
            </AMFile>
            <ScreenVMFile id="107" start="0" duration="389" scalar="1/1" mediaStart="0/1" mediaDuration="389/1" trackNumber="0" src="4" >
             <Transformer>
              <VectorParam id="108"  name="translation">
               <InterpolatingParam id="109" interp="linr"  time="-9999999/1" value="0" leadInLength="0/1"  />
               <InterpolatingParam id="110" interp="linr"  time="-9999999/1" value="0" leadInLength="0/1"  />
               <InterpolatingParam id="111" interp="linr"  time="-9999999/1" value="0" leadInLength="0/1"  />
              </VectorParam>
              <VectorParam id="112"  name="rotation">
               <InterpolatingParam id="113" interp="linr"  time="-9999999/1" value="0" leadInLength="0/1"  />
               <InterpolatingParam id="114" interp="linr"  time="-9999999/1" value="0" leadInLength="0/1"  />
               <InterpolatingParam id="115" interp="linr"  time="-9999999/1" value="0" leadInLength="0/1"  />
              </VectorParam>
              <VectorParam id="116"  name="shear">
               <InterpolatingParam id="117" interp="linr"  time="-9999999/1" value="0" leadInLength="0/1"  />
               <InterpolatingParam id="118" interp="linr"  time="-9999999/1" value="0" leadInLength="0/1"  />
               <InterpolatingParam id="119" interp="linr"  time="-9999999/1" value="0" leadInLength="0/1"  />
              </VectorParam>
              <VectorParam id="120"  name="scale">
               <InterpolatingParam id="121" interp="linr"  time="-9999999/1" value="1" leadInLength="0/1"  />
               <InterpolatingParam id="122" interp="linr"  time="-9999999/1" value="1" leadInLength="0/1"  />
               <InterpolatingParam id="123" interp="linr"  time="-9999999/1" value="1" leadInLength="0/1"  />
              </VectorParam>
              <VectorParam id="124"  name="anchor">
               <InterpolatingParam id="125" interp="linr"  time="0/1" value="0" leadInLength="0/1"  />
               <InterpolatingParam id="126" interp="linr"  time="0/1" value="0" leadInLength="0/1"  />
               <InterpolatingParam id="127" interp="linr"  time="0/1" value="0" leadInLength="0/1"  />
              </VectorParam>
             </Transformer>
             <Parameters>
              <VectorParam id="128"  name="sourceCrop">
               <InterpolatingParam id="129" interp="linr"  time="0/1" value="0" leadInLength="0/1"  />
               <InterpolatingParam id="130" interp="linr"  time="0/1" value="0" leadInLength="0/1"  />
               <InterpolatingParam id="131" interp="linr"  time="0/1" value="0" leadInLength="0/1"  />
               <InterpolatingParam id="132" interp="linr"  time="0/1" value="0" leadInLength="0/1"  />
              </VectorParam>
              <VectorParam id="133"  name="geometryCrop">
               <InterpolatingParam id="134" interp="linr"  time="-9999999/1" value="0" leadInLength="0/1"  />
               <InterpolatingParam id="135" interp="linr"  time="-9999999/1" value="0" leadInLength="0/1"  />
               <InterpolatingParam id="136" interp="linr"  time="-9999999/1" value="0" leadInLength="0/1"  />
               <InterpolatingParam id="137" interp="linr"  time="-9999999/1" value="0" leadInLength="0/1"  />
              </VectorParam>
              <InterpolatingParam id="138" interp="linr"  time="-9999999/1" value="1" leadInLength="0/1"  name="opacity"/>
              <InterpolatingParam id="139" interp="linr"  time="0/1" value="0" leadInLength="0/1"  name="cursorOpacity"/>
              <InterpolatingParam id="140" interp="linr"  time="0/1" value="0" leadInLength="0/1"  name="cursorScale"/>
             </Parameters>
             <Attributes>
              <Attribute id="141" value="" name="ident"/>
             </Attributes>
             <ExtraData>
              <Entry key="ZoomPanBin">
               <ZoomPanBin id="142"  >
                <ZoomPanKeyframes>
                 <ZoomPanKeyframe id="143" timeRangeEnd="-9999999/1" timeRangeDuration="0/1" interpolaterName=""  />
                </ZoomPanKeyframes>
               </ZoomPanBin>
              </Entry>
              <Entry key="CursorEffectBin">
               <CursorEffectBin id="144"  >
                <CursorEffectKeyframes>
                </CursorEffectKeyframes>
               </CursorEffectBin>
              </Entry>
             </ExtraData>
            </ScreenVMFile>
            <MetaData>
             <entry key="AutoAppliedSmartFocus" val="False"/>
             <entry key="WinSubProjectDisplayName" val=""/>
            </MetaData>
           </UnifiedMedia>
           <UnifiedMedia id="145"  >
            <AMFile id="146" start="389" duration="494" scalar="1/1" mediaStart="479/1" mediaDuration="494/1" trackNumber="1" src="4" channelNumber="0,1" >
             <Parameters>
              <InterpolatingParam id="147" interp="linr"  time="0/1" value="1" leadInLength="0/1"  name="volume"/>
              <Parameter id="148"  name="captions"/>
             </Parameters>
             <Attributes>
              <Attribute id="149" value="" name="ident"/>
              <Attribute id="150" value="44100" name="sampleRate"/>
              <Attribute id="151" value="16" name="bitDepth"/>
              <Attribute id="152" value="1" name="gain"/>
              <Attribute id="153" value="0" name="mixToMono"/>
             </Attributes>
            </AMFile>
            <ScreenVMFile id="154" start="389" duration="494" scalar="1/1" mediaStart="479/1" mediaDuration="494/1" trackNumber="0" src="4" >
             <Transformer>
              <VectorParam id="155"  name="translation">
               <InterpolatingParam id="156" interp="linr"  time="-9999999/1" value="0" leadInLength="0/1"  />
               <InterpolatingParam id="157" interp="linr"  time="-9999999/1" value="0" leadInLength="0/1"  />
               <InterpolatingParam id="158" interp="linr"  time="-9999999/1" value="0" leadInLength="0/1"  />
              </VectorParam>
              <VectorParam id="159"  name="rotation">
               <InterpolatingParam id="160" interp="linr"  time="-9999999/1" value="0" leadInLength="0/1"  />
               <InterpolatingParam id="161" interp="linr"  time="-9999999/1" value="0" leadInLength="0/1"  />
               <InterpolatingParam id="162" interp="linr"  time="-9999999/1" value="0" leadInLength="0/1"  />
              </VectorParam>
              <VectorParam id="163"  name="shear">
               <InterpolatingParam id="164" interp="linr"  time="-9999999/1" value="0" leadInLength="0/1"  />
               <InterpolatingParam id="165" interp="linr"  time="-9999999/1" value="0" leadInLength="0/1"  />
               <InterpolatingParam id="166" interp="linr"  time="-9999999/1" value="0" leadInLength="0/1"  />
              </VectorParam>
              <VectorParam id="167"  name="scale">
               <InterpolatingParam id="168" interp="linr"  time="-9999999/1" value="1" leadInLength="0/1"  />
               <InterpolatingParam id="169" interp="linr"  time="-9999999/1" value="1" leadInLength="0/1"  />
               <InterpolatingParam id="170" interp="linr"  time="-9999999/1" value="1" leadInLength="0/1"  />
              </VectorParam>
              <VectorParam id="171"  name="anchor">
               <InterpolatingParam id="172" interp="linr"  time="0/1" value="0" leadInLength="0/1"  />
               <InterpolatingParam id="173" interp="linr"  time="0/1" value="0" leadInLength="0/1"  />
               <InterpolatingParam id="174" interp="linr"  time="0/1" value="0" leadInLength="0/1"  />
              </VectorParam>
             </Transformer>
             <Parameters>
              <VectorParam id="175"  name="sourceCrop">
               <InterpolatingParam id="176" interp="linr"  time="0/1" value="0" leadInLength="0/1"  />
               <InterpolatingParam id="177" interp="linr"  time="0/1" value="0" leadInLength="0/1"  />
               <InterpolatingParam id="178" interp="linr"  time="0/1" value="0" leadInLength="0/1"  />
               <InterpolatingParam id="179" interp="linr"  time="0/1" value="0" leadInLength="0/1"  />
              </VectorParam>
              <VectorParam id="180"  name="geometryCrop">
               <InterpolatingParam id="181" interp="linr"  time="-9999999/1" value="0" leadInLength="0/1"  />
               <InterpolatingParam id="182" interp="linr"  time="-9999999/1" value="0" leadInLength="0/1"  />
               <InterpolatingParam id="183" interp="linr"  time="-9999999/1" value="0" leadInLength="0/1"  />
               <InterpolatingParam id="184" interp="linr"  time="-9999999/1" value="0" leadInLength="0/1"  />
              </VectorParam>
              <InterpolatingParam id="185" interp="linr"  time="-9999999/1" value="1" leadInLength="0/1"  name="opacity"/>
              <InterpolatingParam id="186" interp="linr"  time="0/1" value="0" leadInLength="0/1"  name="cursorOpacity"/>
              <InterpolatingParam id="187" interp="linr"  time="0/1" value="0" leadInLength="0/1"  name="cursorScale"/>
             </Parameters>
             <Attributes>
              <Attribute id="188" value="" name="ident"/>
             </Attributes>
             <ExtraData>
              <Entry key="ZoomPanBin">
               <ZoomPanBin id="189"  >
                <ZoomPanKeyframes>
                 <ZoomPanKeyframe id="190" timeRangeEnd="-9999999/1" timeRangeDuration="0/1" interpolaterName=""  />
                </ZoomPanKeyframes>
               </ZoomPanBin>
              </Entry>
              <Entry key="CursorEffectBin">
               <CursorEffectBin id="191"  >
                <CursorEffectKeyframes>
                </CursorEffectKeyframes>
               </CursorEffectBin>
              </Entry>
             </ExtraData>
            </ScreenVMFile>
            <MetaData>
             <entry key="AutoAppliedSmartFocus" val="False"/>
             <entry key="WinSubProjectDisplayName" val=""/>
            </MetaData>
           </UnifiedMedia>
           <UnifiedMedia id="192"  >
            <AMFile id="193" start="883" duration="253" scalar="1/1" mediaStart="996/1" mediaDuration="253/1" trackNumber="1" src="4" channelNumber="0,1" >
             <Parameters>
              <InterpolatingParam id="194" interp="linr"  time="0/1" value="1" leadInLength="0/1"  name="volume"/>
              <Parameter id="195"  name="captions"/>
             </Parameters>
             <Attributes>
              <Attribute id="196" value="" name="ident"/>
              <Attribute id="197" value="44100" name="sampleRate"/>
              <Attribute id="198" value="16" name="bitDepth"/>
              <Attribute id="199" value="1" name="gain"/>
              <Attribute id="200" value="0" name="mixToMono"/>
             </Attributes>
            </AMFile>
            <ScreenVMFile id="201" start="883" duration="253" scalar="1/1" mediaStart="996/1" mediaDuration="253/1" trackNumber="0" src="4" >
             <Transformer>
              <VectorParam id="202"  name="translation">
               <InterpolatingParam id="203" interp="linr"  time="-9999999/1" value="0" leadInLength="0/1"  />
               <InterpolatingParam id="204" interp="linr"  time="-9999999/1" value="0" leadInLength="0/1"  />
               <InterpolatingParam id="205" interp="linr"  time="-9999999/1" value="0" leadInLength="0/1"  />
              </VectorParam>
              <VectorParam id="206"  name="rotation">
               <InterpolatingParam id="207" interp="linr"  time="-9999999/1" value="0" leadInLength="0/1"  />
               <InterpolatingParam id="208" interp="linr"  time="-9999999/1" value="0" leadInLength="0/1"  />
               <InterpolatingParam id="209" interp="linr"  time="-9999999/1" value="0" leadInLength="0/1"  />
              </VectorParam>
              <VectorParam id="210"  name="shear">
               <InterpolatingParam id="211" interp="linr"  time="-9999999/1" value="0" leadInLength="0/1"  />
               <InterpolatingParam id="212" interp="linr"  time="-9999999/1" value="0" leadInLength="0/1"  />
               <InterpolatingParam id="213" interp="linr"  time="-9999999/1" value="0" leadInLength="0/1"  />
              </VectorParam>
              <VectorParam id="214"  name="scale">
               <InterpolatingParam id="215" interp="linr"  time="-9999999/1" value="1" leadInLength="0/1"  />
               <InterpolatingParam id="216" interp="linr"  time="-9999999/1" value="1" leadInLength="0/1"  />
               <InterpolatingParam id="217" interp="linr"  time="-9999999/1" value="1" leadInLength="0/1"  />
              </VectorParam>
              <VectorParam id="218"  name="anchor">
               <InterpolatingParam id="219" interp="linr"  time="0/1" value="0" leadInLength="0/1"  />
               <InterpolatingParam id="220" interp="linr"  time="0/1" value="0" leadInLength="0/1"  />
               <InterpolatingParam id="221" interp="linr"  time="0/1" value="0" leadInLength="0/1"  />
              </VectorParam>
             </Transformer>
             <Parameters>
              <VectorParam id="222"  name="sourceCrop">
               <InterpolatingParam id="223" interp="linr"  time="0/1" value="0" leadInLength="0/1"  />
               <InterpolatingParam id="224" interp="linr"  time="0/1" value="0" leadInLength="0/1"  />
               <InterpolatingParam id="225" interp="linr"  time="0/1" value="0" leadInLength="0/1"  />
               <InterpolatingParam id="226" interp="linr"  time="0/1" value="0" leadInLength="0/1"  />
              </VectorParam>
              <VectorParam id="227"  name="geometryCrop">
               <InterpolatingParam id="228" interp="linr"  time="-9999999/1" value="0" leadInLength="0/1"  />
               <InterpolatingParam id="229" interp="linr"  time="-9999999/1" value="0" leadInLength="0/1"  />
               <InterpolatingParam id="230" interp="linr"  time="-9999999/1" value="0" leadInLength="0/1"  />
               <InterpolatingParam id="231" interp="linr"  time="-9999999/1" value="0" leadInLength="0/1"  />
              </VectorParam>
              <InterpolatingParam id="232" interp="linr"  time="-9999999/1" value="1" leadInLength="0/1"  name="opacity"/>
              <InterpolatingParam id="233" interp="linr"  time="0/1" value="0" leadInLength="0/1"  name="cursorOpacity"/>
              <InterpolatingParam id="234" interp="linr"  time="0/1" value="0" leadInLength="0/1"  name="cursorScale"/>
             </Parameters>
             <Attributes>
              <Attribute id="235" value="" name="ident"/>
             </Attributes>
             <ExtraData>
              <Entry key="ZoomPanBin">
               <ZoomPanBin id="236"  >
                <ZoomPanKeyframes>
                 <ZoomPanKeyframe id="237" timeRangeEnd="-9999999/1" timeRangeDuration="0/1" interpolaterName=""  />
                </ZoomPanKeyframes>
               </ZoomPanBin>
              </Entry>
              <Entry key="CursorEffectBin">
               <CursorEffectBin id="238"  >
                <CursorEffectKeyframes>
                </CursorEffectKeyframes>
               </CursorEffectBin>
              </Entry>
             </ExtraData>
            </ScreenVMFile>
            <MetaData>
             <entry key="AutoAppliedSmartFocus" val="False"/>
             <entry key="WinSubProjectDisplayName" val=""/>
            </MetaData>
           </UnifiedMedia>
           <UnifiedMedia id="239"  >
            <AMFile id="240" start="1136" duration="330" scalar="1/1" mediaStart="1340/1" mediaDuration="330/1" trackNumber="1" src="4" channelNumber="0,1" >
             <Parameters>
              <InterpolatingParam id="241" interp="linr"  time="0/1" value="1" leadInLength="0/1"  name="volume"/>
              <Parameter id="242"  name="captions"/>
             </Parameters>
             <Attributes>
              <Attribute id="243" value="" name="ident"/>
              <Attribute id="244" value="44100" name="sampleRate"/>
              <Attribute id="245" value="16" name="bitDepth"/>
              <Attribute id="246" value="1" name="gain"/>
              <Attribute id="247" value="0" name="mixToMono"/>
             </Attributes>
            </AMFile>
            <ScreenVMFile id="248" start="1136" duration="330" scalar="1/1" mediaStart="1340/1" mediaDuration="330/1" trackNumber="0" src="4" >
             <Transformer>
              <VectorParam id="249"  name="translation">
               <InterpolatingParam id="250" interp="linr"  time="-9999999/1" value="0" leadInLength="0/1"  />
               <InterpolatingParam id="251" interp="linr"  time="-9999999/1" value="0" leadInLength="0/1"  />
               <InterpolatingParam id="252" interp="linr"  time="-9999999/1" value="0" leadInLength="0/1"  />
              </VectorParam>
              <VectorParam id="253"  name="rotation">
               <InterpolatingParam id="254" interp="linr"  time="-9999999/1" value="0" leadInLength="0/1"  />
               <InterpolatingParam id="255" interp="linr"  time="-9999999/1" value="0" leadInLength="0/1"  />
               <InterpolatingParam id="256" interp="linr"  time="-9999999/1" value="0" leadInLength="0/1"  />
              </VectorParam>
              <VectorParam id="257"  name="shear">
               <InterpolatingParam id="258" interp="linr"  time="-9999999/1" value="0" leadInLength="0/1"  />
               <InterpolatingParam id="259" interp="linr"  time="-9999999/1" value="0" leadInLength="0/1"  />
               <InterpolatingParam id="260" interp="linr"  time="-9999999/1" value="0" leadInLength="0/1"  />
              </VectorParam>
              <VectorParam id="261"  name="scale">
               <InterpolatingParam id="262" interp="linr"  time="-9999999/1" value="1" leadInLength="0/1"  />
               <InterpolatingParam id="263" interp="linr"  time="-9999999/1" value="1" leadInLength="0/1"  />
               <InterpolatingParam id="264" interp="linr"  time="-9999999/1" value="1" leadInLength="0/1"  />
              </VectorParam>
              <VectorParam id="265"  name="anchor">
               <InterpolatingParam id="266" interp="linr"  time="0/1" value="0" leadInLength="0/1"  />
               <InterpolatingParam id="267" interp="linr"  time="0/1" value="0" leadInLength="0/1"  />
               <InterpolatingParam id="268" interp="linr"  time="0/1" value="0" leadInLength="0/1"  />
              </VectorParam>
             </Transformer>
             <Parameters>
              <VectorParam id="269"  name="sourceCrop">
               <InterpolatingParam id="270" interp="linr"  time="0/1" value="0" leadInLength="0/1"  />
               <InterpolatingParam id="271" interp="linr"  time="0/1" value="0" leadInLength="0/1"  />
               <InterpolatingParam id="272" interp="linr"  time="0/1" value="0" leadInLength="0/1"  />
               <InterpolatingParam id="273" interp="linr"  time="0/1" value="0" leadInLength="0/1"  />
              </VectorParam>
              <VectorParam id="274"  name="geometryCrop">
               <InterpolatingParam id="275" interp="linr"  time="-9999999/1" value="0" leadInLength="0/1"  />
               <InterpolatingParam id="276" interp="linr"  time="-9999999/1" value="0" leadInLength="0/1"  />
               <InterpolatingParam id="277" interp="linr"  time="-9999999/1" value="0" leadInLength="0/1"  />
               <InterpolatingParam id="278" interp="linr"  time="-9999999/1" value="0" leadInLength="0/1"  />
              </VectorParam>
              <InterpolatingParam id="279" interp="linr"  time="-9999999/1" value="1" leadInLength="0/1"  name="opacity"/>
              <InterpolatingParam id="280" interp="linr"  time="0/1" value="0" leadInLength="0/1"  name="cursorOpacity"/>
              <InterpolatingParam id="281" interp="linr"  time="0/1" value="0" leadInLength="0/1"  name="cursorScale"/>
             </Parameters>
             <Attributes>
              <Attribute id="282" value="" name="ident"/>
             </Attributes>
             <ExtraData>
              <Entry key="ZoomPanBin">
               <ZoomPanBin id="283"  >
                <ZoomPanKeyframes>
                 <ZoomPanKeyframe id="284" timeRangeEnd="-9999999/1" timeRangeDuration="0/1" interpolaterName=""  />
                </ZoomPanKeyframes>
               </ZoomPanBin>
              </Entry>
              <Entry key="CursorEffectBin">
               <CursorEffectBin id="285"  >
                <CursorEffectKeyframes>
                </CursorEffectKeyframes>
               </CursorEffectBin>
              </Entry>
             </ExtraData>
            </ScreenVMFile>
            <MetaData>
             <entry key="AutoAppliedSmartFocus" val="False"/>
             <entry key="WinSubProjectDisplayName" val=""/>
            </MetaData>
           </UnifiedMedia>
           <UnifiedMedia id="286"  >
            <AMFile id="287" start="1466" duration="117" scalar="1/1" mediaStart="1707/1" mediaDuration="117/1" trackNumber="1" src="4" channelNumber="0,1" >
             <Parameters>
              <InterpolatingParam id="288" interp="linr"  time="0/1" value="1" leadInLength="0/1"  name="volume"/>
              <Parameter id="289"  name="captions"/>
             </Parameters>
             <Attributes>
              <Attribute id="290" value="" name="ident"/>
              <Attribute id="291" value="44100" name="sampleRate"/>
              <Attribute id="292" value="16" name="bitDepth"/>
              <Attribute id="293" value="1" name="gain"/>
              <Attribute id="294" value="0" name="mixToMono"/>
             </Attributes>
            </AMFile>
            <ScreenVMFile id="295" start="1466" duration="117" scalar="1/1" mediaStart="1707/1" mediaDuration="117/1" trackNumber="0" src="4" >
             <Transformer>
              <VectorParam id="296"  name="translation">
               <InterpolatingParam id="297" interp="linr"  time="-9999999/1" value="0" leadInLength="0/1"  />
               <InterpolatingParam id="298" interp="linr"  time="-9999999/1" value="0" leadInLength="0/1"  />
               <InterpolatingParam id="299" interp="linr"  time="-9999999/1" value="0" leadInLength="0/1"  />
              </VectorParam>
              <VectorParam id="300"  name="rotation">
               <InterpolatingParam id="301" interp="linr"  time="-9999999/1" value="0" leadInLength="0/1"  />
               <InterpolatingParam id="302" interp="linr"  time="-9999999/1" value="0" leadInLength="0/1"  />
               <InterpolatingParam id="303" interp="linr"  time="-9999999/1" value="0" leadInLength="0/1"  />
              </VectorParam>
              <VectorParam id="304"  name="shear">
               <InterpolatingParam id="305" interp="linr"  time="-9999999/1" value="0" leadInLength="0/1"  />
               <InterpolatingParam id="306" interp="linr"  time="-9999999/1" value="0" leadInLength="0/1"  />
               <InterpolatingParam id="307" interp="linr"  time="-9999999/1" value="0" leadInLength="0/1"  />
              </VectorParam>
              <VectorParam id="308"  name="scale">
               <InterpolatingParam id="309" interp="linr"  time="-9999999/1" value="1" leadInLength="0/1"  />
               <InterpolatingParam id="310" interp="linr"  time="-9999999/1" value="1" leadInLength="0/1"  />
               <InterpolatingParam id="311" interp="linr"  time="-9999999/1" value="1" leadInLength="0/1"  />
              </VectorParam>
              <VectorParam id="312"  name="anchor">
               <InterpolatingParam id="313" interp="linr"  time="0/1" value="0" leadInLength="0/1"  />
               <InterpolatingParam id="314" interp="linr"  time="0/1" value="0" leadInLength="0/1"  />
               <InterpolatingParam id="315" interp="linr"  time="0/1" value="0" leadInLength="0/1"  />
              </VectorParam>
             </Transformer>
             <Parameters>
              <VectorParam id="316"  name="sourceCrop">
               <InterpolatingParam id="317" interp="linr"  time="0/1" value="0" leadInLength="0/1"  />
               <InterpolatingParam id="318" interp="linr"  time="0/1" value="0" leadInLength="0/1"  />
               <InterpolatingParam id="319" interp="linr"  time="0/1" value="0" leadInLength="0/1"  />
               <InterpolatingParam id="320" interp="linr"  time="0/1" value="0" leadInLength="0/1"  />
              </VectorParam>
              <VectorParam id="321"  name="geometryCrop">
               <InterpolatingParam id="322" interp="linr"  time="-9999999/1" value="0" leadInLength="0/1"  />
               <InterpolatingParam id="323" interp="linr"  time="-9999999/1" value="0" leadInLength="0/1"  />
               <InterpolatingParam id="324" interp="linr"  time="-9999999/1" value="0" leadInLength="0/1"  />
               <InterpolatingParam id="325" interp="linr"  time="-9999999/1" value="0" leadInLength="0/1"  />
              </VectorParam>
              <InterpolatingParam id="326" interp="linr"  time="-9999999/1" value="1" leadInLength="0/1"  name="opacity"/>
              <InterpolatingParam id="327" interp="linr"  time="0/1" value="0" leadInLength="0/1"  name="cursorOpacity"/>
              <InterpolatingParam id="328" interp="linr"  time="0/1" value="0" leadInLength="0/1"  name="cursorScale"/>
             </Parameters>
             <Attributes>
              <Attribute id="329" value="" name="ident"/>
             </Attributes>
             <ExtraData>
              <Entry key="ZoomPanBin">
               <ZoomPanBin id="330"  >
                <ZoomPanKeyframes>
                 <ZoomPanKeyframe id="331" timeRangeEnd="-9999999/1" timeRangeDuration="0/1" interpolaterName=""  />
                </ZoomPanKeyframes>
               </ZoomPanBin>
              </Entry>
              <Entry key="CursorEffectBin">
               <CursorEffectBin id="332"  >
                <CursorEffectKeyframes>
                </CursorEffectKeyframes>
               </CursorEffectBin>
              </Entry>
             </ExtraData>
            </ScreenVMFile>
            <MetaData>
             <entry key="AutoAppliedSmartFocus" val="False"/>
             <entry key="WinSubProjectDisplayName" val=""/>
            </MetaData>
           </UnifiedMedia>
           <UnifiedMedia id="333"  >
            <AMFile id="334" start="1583" duration="144" scalar="1/1" mediaStart="1951/1" mediaDuration="144/1" trackNumber="1" src="4" channelNumber="0,1" >
             <Parameters>
              <InterpolatingParam id="335" interp="linr"  time="0/1" value="1" leadInLength="0/1"  name="volume"/>
              <Parameter id="336"  name="captions"/>
             </Parameters>
             <Attributes>
              <Attribute id="337" value="" name="ident"/>
              <Attribute id="338" value="44100" name="sampleRate"/>
              <Attribute id="339" value="16" name="bitDepth"/>
              <Attribute id="340" value="1" name="gain"/>
              <Attribute id="341" value="0" name="mixToMono"/>
             </Attributes>
            </AMFile>
            <ScreenVMFile id="342" start="1583" duration="144" scalar="1/1" mediaStart="1951/1" mediaDuration="144/1" trackNumber="0" src="4" >
             <Transformer>
              <VectorParam id="343"  name="translation">
               <InterpolatingParam id="344" interp="linr"  time="-9999999/1" value="0" leadInLength="0/1"  />
               <InterpolatingParam id="345" interp="linr"  time="-9999999/1" value="0" leadInLength="0/1"  />
               <InterpolatingParam id="346" interp="linr"  time="-9999999/1" value="0" leadInLength="0/1"  />
              </VectorParam>
              <VectorParam id="347"  name="rotation">
               <InterpolatingParam id="348" interp="linr"  time="-9999999/1" value="0" leadInLength="0/1"  />
               <InterpolatingParam id="349" interp="linr"  time="-9999999/1" value="0" leadInLength="0/1"  />
               <InterpolatingParam id="350" interp="linr"  time="-9999999/1" value="0" leadInLength="0/1"  />
              </VectorParam>
              <VectorParam id="351"  name="shear">
               <InterpolatingParam id="352" interp="linr"  time="-9999999/1" value="0" leadInLength="0/1"  />
               <InterpolatingParam id="353" interp="linr"  time="-9999999/1" value="0" leadInLength="0/1"  />
               <InterpolatingParam id="354" interp="linr"  time="-9999999/1" value="0" leadInLength="0/1"  />
              </VectorParam>
              <VectorParam id="355"  name="scale">
               <InterpolatingParam id="356" interp="linr"  time="-9999999/1" value="1" leadInLength="0/1"  />
               <InterpolatingParam id="357" interp="linr"  time="-9999999/1" value="1" leadInLength="0/1"  />
               <InterpolatingParam id="358" interp="linr"  time="-9999999/1" value="1" leadInLength="0/1"  />
              </VectorParam>
              <VectorParam id="359"  name="anchor">
               <InterpolatingParam id="360" interp="linr"  time="0/1" value="0" leadInLength="0/1"  />
               <InterpolatingParam id="361" interp="linr"  time="0/1" value="0" leadInLength="0/1"  />
               <InterpolatingParam id="362" interp="linr"  time="0/1" value="0" leadInLength="0/1"  />
              </VectorParam>
             </Transformer>
             <Parameters>
              <VectorParam id="363"  name="sourceCrop">
               <InterpolatingParam id="364" interp="linr"  time="0/1" value="0" leadInLength="0/1"  />
               <InterpolatingParam id="365" interp="linr"  time="0/1" value="0" leadInLength="0/1"  />
               <InterpolatingParam id="366" interp="linr"  time="0/1" value="0" leadInLength="0/1"  />
               <InterpolatingParam id="367" interp="linr"  time="0/1" value="0" leadInLength="0/1"  />
              </VectorParam>
              <VectorParam id="368"  name="geometryCrop">
               <InterpolatingParam id="369" interp="linr"  time="-9999999/1" value="0" leadInLength="0/1"  />
               <InterpolatingParam id="370" interp="linr"  time="-9999999/1" value="0" leadInLength="0/1"  />
               <InterpolatingParam id="371" interp="linr"  time="-9999999/1" value="0" leadInLength="0/1"  />
               <InterpolatingParam id="372" interp="linr"  time="-9999999/1" value="0" leadInLength="0/1"  />
              </VectorParam>
              <InterpolatingParam id="373" interp="linr"  time="-9999999/1" value="1" leadInLength="0/1"  name="opacity"/>
              <InterpolatingParam id="374" interp="linr"  time="0/1" value="0" leadInLength="0/1"  name="cursorOpacity"/>
              <InterpolatingParam id="375" interp="linr"  time="0/1" value="0" leadInLength="0/1"  name="cursorScale"/>
             </Parameters>
             <Attributes>
              <Attribute id="376" value="" name="ident"/>
             </Attributes>
             <ExtraData>
              <Entry key="ZoomPanBin">
               <ZoomPanBin id="377"  >
                <ZoomPanKeyframes>
                 <ZoomPanKeyframe id="378" timeRangeEnd="-9999999/1" timeRangeDuration="0/1" interpolaterName=""  />
                </ZoomPanKeyframes>
               </ZoomPanBin>
              </Entry>
              <Entry key="CursorEffectBin">
               <CursorEffectBin id="379"  >
                <CursorEffectKeyframes>
                </CursorEffectKeyframes>
               </CursorEffectBin>
              </Entry>
             </ExtraData>
            </ScreenVMFile>
            <MetaData>
             <entry key="AutoAppliedSmartFocus" val="False"/>
             <entry key="WinSubProjectDisplayName" val=""/>
            </MetaData>
           </UnifiedMedia>
           <UnifiedMedia id="380"  >
            <AMFile id="381" start="1727" duration="576" scalar="1/1" mediaStart="2121/1" mediaDuration="576/1" trackNumber="1" src="4" channelNumber="0,1" >
             <Parameters>
              <InterpolatingParam id="382" interp="linr"  time="0/1" value="1" leadInLength="0/1"  name="volume"/>
              <Parameter id="383"  name="captions"/>
             </Parameters>
             <Attributes>
              <Attribute id="384" value="" name="ident"/>
              <Attribute id="385" value="44100" name="sampleRate"/>
              <Attribute id="386" value="16" name="bitDepth"/>
              <Attribute id="387" value="1" name="gain"/>
              <Attribute id="388" value="0" name="mixToMono"/>
             </Attributes>
            </AMFile>
            <ScreenVMFile id="389" start="1727" duration="576" scalar="1/1" mediaStart="2121/1" mediaDuration="576/1" trackNumber="0" src="4" >
             <Transformer>
              <VectorParam id="390"  name="translation">
               <InterpolatingParam id="391" interp="linr"  time="-9999999/1" value="0" leadInLength="0/1"  />
               <InterpolatingParam id="392" interp="linr"  time="-9999999/1" value="0" leadInLength="0/1"  />
               <InterpolatingParam id="393" interp="linr"  time="-9999999/1" value="0" leadInLength="0/1"  />
              </VectorParam>
              <VectorParam id="394"  name="rotation">
               <InterpolatingParam id="395" interp="linr"  time="-9999999/1" value="0" leadInLength="0/1"  />
               <InterpolatingParam id="396" interp="linr"  time="-9999999/1" value="0" leadInLength="0/1"  />
               <InterpolatingParam id="397" interp="linr"  time="-9999999/1" value="0" leadInLength="0/1"  />
              </VectorParam>
              <VectorParam id="398"  name="shear">
               <InterpolatingParam id="399" interp="linr"  time="-9999999/1" value="0" leadInLength="0/1"  />
               <InterpolatingParam id="400" interp="linr"  time="-9999999/1" value="0" leadInLength="0/1"  />
               <InterpolatingParam id="401" interp="linr"  time="-9999999/1" value="0" leadInLength="0/1"  />
              </VectorParam>
              <VectorParam id="402"  name="scale">
               <InterpolatingParam id="403" interp="linr"  time="-9999999/1" value="1" leadInLength="0/1"  />
               <InterpolatingParam id="404" interp="linr"  time="-9999999/1" value="1" leadInLength="0/1"  />
               <InterpolatingParam id="405" interp="linr"  time="-9999999/1" value="1" leadInLength="0/1"  />
              </VectorParam>
              <VectorParam id="406"  name="anchor">
               <InterpolatingParam id="407" interp="linr"  time="0/1" value="0" leadInLength="0/1"  />
               <InterpolatingParam id="408" interp="linr"  time="0/1" value="0" leadInLength="0/1"  />
               <InterpolatingParam id="409" interp="linr"  time="0/1" value="0" leadInLength="0/1"  />
              </VectorParam>
             </Transformer>
             <Parameters>
              <VectorParam id="410"  name="sourceCrop">
               <InterpolatingParam id="411" interp="linr"  time="0/1" value="0" leadInLength="0/1"  />
               <InterpolatingParam id="412" interp="linr"  time="0/1" value="0" leadInLength="0/1"  />
               <InterpolatingParam id="413" interp="linr"  time="0/1" value="0" leadInLength="0/1"  />
               <InterpolatingParam id="414" interp="linr"  time="0/1" value="0" leadInLength="0/1"  />
              </VectorParam>
              <VectorParam id="415"  name="geometryCrop">
               <InterpolatingParam id="416" interp="linr"  time="-9999999/1" value="0" leadInLength="0/1"  />
               <InterpolatingParam id="417" interp="linr"  time="-9999999/1" value="0" leadInLength="0/1"  />
               <InterpolatingParam id="418" interp="linr"  time="-9999999/1" value="0" leadInLength="0/1"  />
               <InterpolatingParam id="419" interp="linr"  time="-9999999/1" value="0" leadInLength="0/1"  />
              </VectorParam>
              <InterpolatingParam id="420" interp="linr"  time="-9999999/1" value="1" leadInLength="0/1"  name="opacity"/>
              <InterpolatingParam id="421" interp="linr"  time="0/1" value="0" leadInLength="0/1"  name="cursorOpacity"/>
              <InterpolatingParam id="422" interp="linr"  time="0/1" value="0" leadInLength="0/1"  name="cursorScale"/>
             </Parameters>
             <Attributes>
              <Attribute id="423" value="" name="ident"/>
             </Attributes>
             <ExtraData>
              <Entry key="ZoomPanBin">
               <ZoomPanBin id="424"  >
                <ZoomPanKeyframes>
                 <ZoomPanKeyframe id="425" timeRangeEnd="-9999999/1" timeRangeDuration="0/1" interpolaterName=""  />
                </ZoomPanKeyframes>
               </ZoomPanBin>
              </Entry>
              <Entry key="CursorEffectBin">
               <CursorEffectBin id="426"  >
                <CursorEffectKeyframes>
                </CursorEffectKeyframes>
               </CursorEffectBin>
              </Entry>
             </ExtraData>
            </ScreenVMFile>
            <MetaData>
             <entry key="AutoAppliedSmartFocus" val="False"/>
             <entry key="WinSubProjectDisplayName" val=""/>
            </MetaData>
           </UnifiedMedia>
           <UnifiedMedia id="427"  >
            <AMFile id="428" start="2303" duration="1005" scalar="1/1" mediaStart="2722/1" mediaDuration="1005/1" trackNumber="1" src="4" channelNumber="0,1" >
             <Parameters>
              <InterpolatingParam id="429" interp="linr"  time="0/1" value="1" leadInLength="0/1"  name="volume"/>
              <Parameter id="430"  name="captions"/>
             </Parameters>
             <Attributes>
              <Attribute id="431" value="" name="ident"/>
              <Attribute id="432" value="44100" name="sampleRate"/>
              <Attribute id="433" value="16" name="bitDepth"/>
              <Attribute id="434" value="1" name="gain"/>
              <Attribute id="435" value="0" name="mixToMono"/>
             </Attributes>
            </AMFile>
            <ScreenVMFile id="436" start="2303" duration="1005" scalar="1/1" mediaStart="2722/1" mediaDuration="1005/1" trackNumber="0" src="4" >
             <Transformer>
              <VectorParam id="437"  name="translation">
               <InterpolatingParam id="438" interp="linr"  time="-9999999/1" value="0" leadInLength="0/1"  />
               <InterpolatingParam id="439" interp="linr"  time="-9999999/1" value="0" leadInLength="0/1"  />
               <InterpolatingParam id="440" interp="linr"  time="-9999999/1" value="0" leadInLength="0/1"  />
              </VectorParam>
              <VectorParam id="441"  name="rotation">
               <InterpolatingParam id="442" interp="linr"  time="-9999999/1" value="0" leadInLength="0/1"  />
               <InterpolatingParam id="443" interp="linr"  time="-9999999/1" value="0" leadInLength="0/1"  />
               <InterpolatingParam id="444" interp="linr"  time="-9999999/1" value="0" leadInLength="0/1"  />
              </VectorParam>
              <VectorParam id="445"  name="shear">
               <InterpolatingParam id="446" interp="linr"  time="-9999999/1" value="0" leadInLength="0/1"  />
               <InterpolatingParam id="447" interp="linr"  time="-9999999/1" value="0" leadInLength="0/1"  />
               <InterpolatingParam id="448" interp="linr"  time="-9999999/1" value="0" leadInLength="0/1"  />
              </VectorParam>
              <VectorParam id="449"  name="scale">
               <InterpolatingParam id="450" interp="linr"  time="-9999999/1" value="1" leadInLength="0/1"  />
               <InterpolatingParam id="451" interp="linr"  time="-9999999/1" value="1" leadInLength="0/1"  />
               <InterpolatingParam id="452" interp="linr"  time="-9999999/1" value="1" leadInLength="0/1"  />
              </VectorParam>
              <VectorParam id="453"  name="anchor">
               <InterpolatingParam id="454" interp="linr"  time="0/1" value="0" leadInLength="0/1"  />
               <InterpolatingParam id="455" interp="linr"  time="0/1" value="0" leadInLength="0/1"  />
               <InterpolatingParam id="456" interp="linr"  time="0/1" value="0" leadInLength="0/1"  />
              </VectorParam>
             </Transformer>
             <Parameters>
              <VectorParam id="457"  name="sourceCrop">
               <InterpolatingParam id="458" interp="linr"  time="0/1" value="0" leadInLength="0/1"  />
               <InterpolatingParam id="459" interp="linr"  time="0/1" value="0" leadInLength="0/1"  />
               <InterpolatingParam id="460" interp="linr"  time="0/1" value="0" leadInLength="0/1"  />
               <InterpolatingParam id="461" interp="linr"  time="0/1" value="0" leadInLength="0/1"  />
              </VectorParam>
              <VectorParam id="462"  name="geometryCrop">
               <InterpolatingParam id="463" interp="linr"  time="-9999999/1" value="0" leadInLength="0/1"  />
               <InterpolatingParam id="464" interp="linr"  time="-9999999/1" value="0" leadInLength="0/1"  />
               <InterpolatingParam id="465" interp="linr"  time="-9999999/1" value="0" leadInLength="0/1"  />
               <InterpolatingParam id="466" interp="linr"  time="-9999999/1" value="0" leadInLength="0/1"  />
              </VectorParam>
              <InterpolatingParam id="467" interp="linr"  time="-9999999/1" value="1" leadInLength="0/1"  name="opacity"/>
              <InterpolatingParam id="468" interp="linr"  time="0/1" value="0" leadInLength="0/1"  name="cursorOpacity"/>
              <InterpolatingParam id="469" interp="linr"  time="0/1" value="0" leadInLength="0/1"  name="cursorScale"/>
             </Parameters>
             <Attributes>
              <Attribute id="470" value="" name="ident"/>
             </Attributes>
             <ExtraData>
              <Entry key="ZoomPanBin">
               <ZoomPanBin id="471"  >
                <ZoomPanKeyframes>
                 <ZoomPanKeyframe id="472" timeRangeEnd="-9999999/1" timeRangeDuration="0/1" interpolaterName=""  />
                </ZoomPanKeyframes>
               </ZoomPanBin>
              </Entry>
              <Entry key="CursorEffectBin">
               <CursorEffectBin id="473"  >
                <CursorEffectKeyframes>
                </CursorEffectKeyframes>
               </CursorEffectBin>
              </Entry>
             </ExtraData>
            </ScreenVMFile>
            <MetaData>
             <entry key="AutoAppliedSmartFocus" val="False"/>
             <entry key="WinSubProjectDisplayName" val=""/>
            </MetaData>
           </UnifiedMedia>
           <UnifiedMedia id="474"  >
            <AMFile id="475" start="3308" duration="60" scalar="1/1" mediaStart="3743/1" mediaDuration="60/1" trackNumber="1" src="4" channelNumber="0,1" >
             <Parameters>
              <InterpolatingParam id="476" interp="linr"  time="0/1" value="1" leadInLength="0/1"  name="volume"/>
              <Parameter id="477"  name="captions"/>
             </Parameters>
             <Attributes>
              <Attribute id="478" value="" name="ident"/>
              <Attribute id="479" value="44100" name="sampleRate"/>
              <Attribute id="480" value="16" name="bitDepth"/>
              <Attribute id="481" value="1" name="gain"/>
              <Attribute id="482" value="0" name="mixToMono"/>
             </Attributes>
            </AMFile>
            <ScreenVMFile id="483" start="3308" duration="60" scalar="1/1" mediaStart="3743/1" mediaDuration="60/1" trackNumber="0" src="4" >
             <Transformer>
              <VectorParam id="484"  name="translation">
               <InterpolatingParam id="485" interp="linr"  time="-9999999/1" value="0" leadInLength="0/1"  />
               <InterpolatingParam id="486" interp="linr"  time="-9999999/1" value="0" leadInLength="0/1"  />
               <InterpolatingParam id="487" interp="linr"  time="-9999999/1" value="0" leadInLength="0/1"  />
              </VectorParam>
              <VectorParam id="488"  name="rotation">
               <InterpolatingParam id="489" interp="linr"  time="-9999999/1" value="0" leadInLength="0/1"  />
               <InterpolatingParam id="490" interp="linr"  time="-9999999/1" value="0" leadInLength="0/1"  />
               <InterpolatingParam id="491" interp="linr"  time="-9999999/1" value="0" leadInLength="0/1"  />
              </VectorParam>
              <VectorParam id="492"  name="shear">
               <InterpolatingParam id="493" interp="linr"  time="-9999999/1" value="0" leadInLength="0/1"  />
               <InterpolatingParam id="494" interp="linr"  time="-9999999/1" value="0" leadInLength="0/1"  />
               <InterpolatingParam id="495" interp="linr"  time="-9999999/1" value="0" leadInLength="0/1"  />
              </VectorParam>
              <VectorParam id="496"  name="scale">
               <InterpolatingParam id="497" interp="linr"  time="-9999999/1" value="1" leadInLength="0/1"  />
               <InterpolatingParam id="498" interp="linr"  time="-9999999/1" value="1" leadInLength="0/1"  />
               <InterpolatingParam id="499" interp="linr"  time="-9999999/1" value="1" leadInLength="0/1"  />
              </VectorParam>
              <VectorParam id="500"  name="anchor">
               <InterpolatingParam id="501" interp="linr"  time="0/1" value="0" leadInLength="0/1"  />
               <InterpolatingParam id="502" interp="linr"  time="0/1" value="0" leadInLength="0/1"  />
               <InterpolatingParam id="503" interp="linr"  time="0/1" value="0" leadInLength="0/1"  />
              </VectorParam>
             </Transformer>
             <Parameters>
              <VectorParam id="504"  name="sourceCrop">
               <InterpolatingParam id="505" interp="linr"  time="0/1" value="0" leadInLength="0/1"  />
               <InterpolatingParam id="506" interp="linr"  time="0/1" value="0" leadInLength="0/1"  />
               <InterpolatingParam id="507" interp="linr"  time="0/1" value="0" leadInLength="0/1"  />
               <InterpolatingParam id="508" interp="linr"  time="0/1" value="0" leadInLength="0/1"  />
              </VectorParam>
              <VectorParam id="509"  name="geometryCrop">
               <InterpolatingParam id="510" interp="linr"  time="-9999999/1" value="0" leadInLength="0/1"  />
               <InterpolatingParam id="511" interp="linr"  time="-9999999/1" value="0" leadInLength="0/1"  />
               <InterpolatingParam id="512" interp="linr"  time="-9999999/1" value="0" leadInLength="0/1"  />
               <InterpolatingParam id="513" interp="linr"  time="-9999999/1" value="0" leadInLength="0/1"  />
              </VectorParam>
              <InterpolatingParam id="514" interp="linr"  time="-9999999/1" value="1" leadInLength="0/1"  name="opacity"/>
              <InterpolatingParam id="515" interp="linr"  time="0/1" value="0" leadInLength="0/1"  name="cursorOpacity"/>
              <InterpolatingParam id="516" interp="linr"  time="0/1" value="0" leadInLength="0/1"  name="cursorScale"/>
             </Parameters>
             <Attributes>
              <Attribute id="517" value="" name="ident"/>
             </Attributes>
             <ExtraData>
              <Entry key="ZoomPanBin">
               <ZoomPanBin id="518"  >
                <ZoomPanKeyframes>
                 <ZoomPanKeyframe id="519" timeRangeEnd="-9999999/1" timeRangeDuration="0/1" interpolaterName=""  />
                </ZoomPanKeyframes>
               </ZoomPanBin>
              </Entry>
              <Entry key="CursorEffectBin">
               <CursorEffectBin id="520"  >
                <CursorEffectKeyframes>
                </CursorEffectKeyframes>
               </CursorEffectBin>
              </Entry>
             </ExtraData>
            </ScreenVMFile>
            <MetaData>
             <entry key="AutoAppliedSmartFocus" val="False"/>
             <entry key="WinSubProjectDisplayName" val=""/>
            </MetaData>
           </UnifiedMedia>
           <UnifiedMedia id="521"  >
            <AMFile id="522" start="3368" duration="48" scalar="1/1" mediaStart="3818/1" mediaDuration="48/1" trackNumber="1" src="4" channelNumber="0,1" >
             <Parameters>
              <InterpolatingParam id="523" interp="linr"  time="0/1" value="1" leadInLength="0/1"  name="volume"/>
              <Parameter id="524"  name="captions"/>
             </Parameters>
             <Attributes>
              <Attribute id="525" value="" name="ident"/>
              <Attribute id="526" value="44100" name="sampleRate"/>
              <Attribute id="527" value="16" name="bitDepth"/>
              <Attribute id="528" value="1" name="gain"/>
              <Attribute id="529" value="0" name="mixToMono"/>
             </Attributes>
            </AMFile>
            <ScreenVMFile id="530" start="3368" duration="48" scalar="1/1" mediaStart="3818/1" mediaDuration="48/1" trackNumber="0" src="4" >
             <Transformer>
              <VectorParam id="531"  name="translation">
               <InterpolatingParam id="532" interp="linr"  time="-9999999/1" value="0" leadInLength="0/1"  />
               <InterpolatingParam id="533" interp="linr"  time="-9999999/1" value="0" leadInLength="0/1"  />
               <InterpolatingParam id="534" interp="linr"  time="-9999999/1" value="0" leadInLength="0/1"  />
              </VectorParam>
              <VectorParam id="535"  name="rotation">
               <InterpolatingParam id="536" interp="linr"  time="-9999999/1" value="0" leadInLength="0/1"  />
               <InterpolatingParam id="537" interp="linr"  time="-9999999/1" value="0" leadInLength="0/1"  />
               <InterpolatingParam id="538" interp="linr"  time="-9999999/1" value="0" leadInLength="0/1"  />
              </VectorParam>
              <VectorParam id="539"  name="shear">
               <InterpolatingParam id="540" interp="linr"  time="-9999999/1" value="0" leadInLength="0/1"  />
               <InterpolatingParam id="541" interp="linr"  time="-9999999/1" value="0" leadInLength="0/1"  />
               <InterpolatingParam id="542" interp="linr"  time="-9999999/1" value="0" leadInLength="0/1"  />
              </VectorParam>
              <VectorParam id="543"  name="scale">
               <InterpolatingParam id="544" interp="linr"  time="-9999999/1" value="1" leadInLength="0/1"  />
               <InterpolatingParam id="545" interp="linr"  time="-9999999/1" value="1" leadInLength="0/1"  />
               <InterpolatingParam id="546" interp="linr"  time="-9999999/1" value="1" leadInLength="0/1"  />
              </VectorParam>
              <VectorParam id="547"  name="anchor">
               <InterpolatingParam id="548" interp="linr"  time="0/1" value="0" leadInLength="0/1"  />
               <InterpolatingParam id="549" interp="linr"  time="0/1" value="0" leadInLength="0/1"  />
               <InterpolatingParam id="550" interp="linr"  time="0/1" value="0" leadInLength="0/1"  />
              </VectorParam>
             </Transformer>
             <Parameters>
              <VectorParam id="551"  name="sourceCrop">
               <InterpolatingParam id="552" interp="linr"  time="0/1" value="0" leadInLength="0/1"  />
               <InterpolatingParam id="553" interp="linr"  time="0/1" value="0" leadInLength="0/1"  />
               <InterpolatingParam id="554" interp="linr"  time="0/1" value="0" leadInLength="0/1"  />
               <InterpolatingParam id="555" interp="linr"  time="0/1" value="0" leadInLength="0/1"  />
              </VectorParam>
              <VectorParam id="556"  name="geometryCrop">
               <InterpolatingParam id="557" interp="linr"  time="-9999999/1" value="0" leadInLength="0/1"  />
               <InterpolatingParam id="558" interp="linr"  time="-9999999/1" value="0" leadInLength="0/1"  />
               <InterpolatingParam id="559" interp="linr"  time="-9999999/1" value="0" leadInLength="0/1"  />
               <InterpolatingParam id="560" interp="linr"  time="-9999999/1" value="0" leadInLength="0/1"  />
              </VectorParam>
              <InterpolatingParam id="561" interp="linr"  time="-9999999/1" value="1" leadInLength="0/1"  name="opacity"/>
              <InterpolatingParam id="562" interp="linr"  time="0/1" value="0" leadInLength="0/1"  name="cursorOpacity"/>
              <InterpolatingParam id="563" interp="linr"  time="0/1" value="0" leadInLength="0/1"  name="cursorScale"/>
             </Parameters>
             <Attributes>
              <Attribute id="564" value="" name="ident"/>
             </Attributes>
             <ExtraData>
              <Entry key="ZoomPanBin">
               <ZoomPanBin id="565"  >
                <ZoomPanKeyframes>
                 <ZoomPanKeyframe id="566" timeRangeEnd="-9999999/1" timeRangeDuration="0/1" interpolaterName=""  />
                </ZoomPanKeyframes>
               </ZoomPanBin>
              </Entry>
              <Entry key="CursorEffectBin">
               <CursorEffectBin id="567"  >
                <CursorEffectKeyframes>
                </CursorEffectKeyframes>
               </CursorEffectBin>
              </Entry>
             </ExtraData>
            </ScreenVMFile>
            <MetaData>
             <entry key="AutoAppliedSmartFocus" val="False"/>
             <entry key="WinSubProjectDisplayName" val=""/>
            </MetaData>
           </UnifiedMedia>
           <UnifiedMedia id="568"  >
            <AMFile id="569" start="3416" duration="277" scalar="1/1" mediaStart="4221/1" mediaDuration="277/1" trackNumber="1" src="4" channelNumber="0,1" >
             <Parameters>
              <InterpolatingParam id="570" interp="linr"  time="0/1" value="1" leadInLength="0/1"  name="volume"/>
              <Parameter id="571"  name="captions"/>
             </Parameters>
             <Attributes>
              <Attribute id="572" value="" name="ident"/>
              <Attribute id="573" value="44100" name="sampleRate"/>
              <Attribute id="574" value="16" name="bitDepth"/>
              <Attribute id="575" value="1" name="gain"/>
              <Attribute id="576" value="0" name="mixToMono"/>
             </Attributes>
            </AMFile>
            <ScreenVMFile id="577" start="3416" duration="277" scalar="1/1" mediaStart="4221/1" mediaDuration="277/1" trackNumber="0" src="4" >
             <Transformer>
              <VectorParam id="578"  name="translation">
               <InterpolatingParam id="579" interp="linr"  time="-9999999/1" value="0" leadInLength="0/1"  />
               <InterpolatingParam id="580" interp="linr"  time="-9999999/1" value="0" leadInLength="0/1"  />
               <InterpolatingParam id="581" interp="linr"  time="-9999999/1" value="0" leadInLength="0/1"  />
              </VectorParam>
              <VectorParam id="582"  name="rotation">
               <InterpolatingParam id="583" interp="linr"  time="-9999999/1" value="0" leadInLength="0/1"  />
               <InterpolatingParam id="584" interp="linr"  time="-9999999/1" value="0" leadInLength="0/1"  />
               <InterpolatingParam id="585" interp="linr"  time="-9999999/1" value="0" leadInLength="0/1"  />
              </VectorParam>
              <VectorParam id="586"  name="shear">
               <InterpolatingParam id="587" interp="linr"  time="-9999999/1" value="0" leadInLength="0/1"  />
               <InterpolatingParam id="588" interp="linr"  time="-9999999/1" value="0" leadInLength="0/1"  />
               <InterpolatingParam id="589" interp="linr"  time="-9999999/1" value="0" leadInLength="0/1"  />
              </VectorParam>
              <VectorParam id="590"  name="scale">
               <InterpolatingParam id="591" interp="linr"  time="-9999999/1" value="1" leadInLength="0/1"  />
               <InterpolatingParam id="592" interp="linr"  time="-9999999/1" value="1" leadInLength="0/1"  />
               <InterpolatingParam id="593" interp="linr"  time="-9999999/1" value="1" leadInLength="0/1"  />
              </VectorParam>
              <VectorParam id="594"  name="anchor">
               <InterpolatingParam id="595" interp="linr"  time="0/1" value="0" leadInLength="0/1"  />
               <InterpolatingParam id="596" interp="linr"  time="0/1" value="0" leadInLength="0/1"  />
               <InterpolatingParam id="597" interp="linr"  time="0/1" value="0" leadInLength="0/1"  />
              </VectorParam>
             </Transformer>
             <Parameters>
              <VectorParam id="598"  name="sourceCrop">
               <InterpolatingParam id="599" interp="linr"  time="0/1" value="0" leadInLength="0/1"  />
               <InterpolatingParam id="600" interp="linr"  time="0/1" value="0" leadInLength="0/1"  />
               <InterpolatingParam id="601" interp="linr"  time="0/1" value="0" leadInLength="0/1"  />
               <InterpolatingParam id="602" interp="linr"  time="0/1" value="0" leadInLength="0/1"  />
              </VectorParam>
              <VectorParam id="603"  name="geometryCrop">
               <InterpolatingParam id="604" interp="linr"  time="-9999999/1" value="0" leadInLength="0/1"  />
               <InterpolatingParam id="605" interp="linr"  time="-9999999/1" value="0" leadInLength="0/1"  />
               <InterpolatingParam id="606" interp="linr"  time="-9999999/1" value="0" leadInLength="0/1"  />
               <InterpolatingParam id="607" interp="linr"  time="-9999999/1" value="0" leadInLength="0/1"  />
              </VectorParam>
              <InterpolatingParam id="608" interp="linr"  time="-9999999/1" value="1" leadInLength="0/1"  name="opacity"/>
              <InterpolatingParam id="609" interp="linr"  time="0/1" value="0" leadInLength="0/1"  name="cursorOpacity"/>
              <InterpolatingParam id="610" interp="linr"  time="0/1" value="0" leadInLength="0/1"  name="cursorScale"/>
             </Parameters>
             <Attributes>
              <Attribute id="611" value="" name="ident"/>
             </Attributes>
             <ExtraData>
              <Entry key="ZoomPanBin">
               <ZoomPanBin id="612"  >
                <ZoomPanKeyframes>
                 <ZoomPanKeyframe id="613" timeRangeEnd="-9999999/1" timeRangeDuration="0/1" interpolaterName=""  />
                </ZoomPanKeyframes>
               </ZoomPanBin>
              </Entry>
              <Entry key="CursorEffectBin">
               <CursorEffectBin id="614"  >
                <CursorEffectKeyframes>
                </CursorEffectKeyframes>
               </CursorEffectBin>
              </Entry>
             </ExtraData>
            </ScreenVMFile>
            <MetaData>
             <entry key="AutoAppliedSmartFocus" val="False"/>
             <entry key="WinSubProjectDisplayName" val=""/>
            </MetaData>
           </UnifiedMedia>
           <UnifiedMedia id="615"  >
            <AMFile id="616" start="3693" duration="52" scalar="1/1" mediaStart="4519/1" mediaDuration="52/1" trackNumber="1" src="4" channelNumber="0,1" >
             <Parameters>
              <InterpolatingParam id="617" interp="linr"  time="0/1" value="1" leadInLength="0/1"  name="volume"/>
              <Parameter id="618"  name="captions"/>
             </Parameters>
             <Attributes>
              <Attribute id="619" value="" name="ident"/>
              <Attribute id="620" value="44100" name="sampleRate"/>
              <Attribute id="621" value="16" name="bitDepth"/>
              <Attribute id="622" value="1" name="gain"/>
              <Attribute id="623" value="0" name="mixToMono"/>
             </Attributes>
            </AMFile>
            <ScreenVMFile id="624" start="3693" duration="52" scalar="1/1" mediaStart="4519/1" mediaDuration="52/1" trackNumber="0" src="4" >
             <Transformer>
              <VectorParam id="625"  name="translation">
               <InterpolatingParam id="626" interp="linr"  time="-9999999/1" value="0" leadInLength="0/1"  />
               <InterpolatingParam id="627" interp="linr"  time="-9999999/1" value="0" leadInLength="0/1"  />
               <InterpolatingParam id="628" interp="linr"  time="-9999999/1" value="0" leadInLength="0/1"  />
              </VectorParam>
              <VectorParam id="629"  name="rotation">
               <InterpolatingParam id="630" interp="linr"  time="-9999999/1" value="0" leadInLength="0/1"  />
               <InterpolatingParam id="631" interp="linr"  time="-9999999/1" value="0" leadInLength="0/1"  />
               <InterpolatingParam id="632" interp="linr"  time="-9999999/1" value="0" leadInLength="0/1"  />
              </VectorParam>
              <VectorParam id="633"  name="shear">
               <InterpolatingParam id="634" interp="linr"  time="-9999999/1" value="0" leadInLength="0/1"  />
               <InterpolatingParam id="635" interp="linr"  time="-9999999/1" value="0" leadInLength="0/1"  />
               <InterpolatingParam id="636" interp="linr"  time="-9999999/1" value="0" leadInLength="0/1"  />
              </VectorParam>
              <VectorParam id="637"  name="scale">
               <InterpolatingParam id="638" interp="linr"  time="-9999999/1" value="1" leadInLength="0/1"  />
               <InterpolatingParam id="639" interp="linr"  time="-9999999/1" value="1" leadInLength="0/1"  />
               <InterpolatingParam id="640" interp="linr"  time="-9999999/1" value="1" leadInLength="0/1"  />
              </VectorParam>
              <VectorParam id="641"  name="anchor">
               <InterpolatingParam id="642" interp="linr"  time="0/1" value="0" leadInLength="0/1"  />
               <InterpolatingParam id="643" interp="linr"  time="0/1" value="0" leadInLength="0/1"  />
               <InterpolatingParam id="644" interp="linr"  time="0/1" value="0" leadInLength="0/1"  />
              </VectorParam>
             </Transformer>
             <Parameters>
              <VectorParam id="645"  name="sourceCrop">
               <InterpolatingParam id="646" interp="linr"  time="0/1" value="0" leadInLength="0/1"  />
               <InterpolatingParam id="647" interp="linr"  time="0/1" value="0" leadInLength="0/1"  />
               <InterpolatingParam id="648" interp="linr"  time="0/1" value="0" leadInLength="0/1"  />
               <InterpolatingParam id="649" interp="linr"  time="0/1" value="0" leadInLength="0/1"  />
              </VectorParam>
              <VectorParam id="650"  name="geometryCrop">
               <InterpolatingParam id="651" interp="linr"  time="-9999999/1" value="0" leadInLength="0/1"  />
               <InterpolatingParam id="652" interp="linr"  time="-9999999/1" value="0" leadInLength="0/1"  />
               <InterpolatingParam id="653" interp="linr"  time="-9999999/1" value="0" leadInLength="0/1"  />
               <InterpolatingParam id="654" interp="linr"  time="-9999999/1" value="0" leadInLength="0/1"  />
              </VectorParam>
              <InterpolatingParam id="655" interp="linr"  time="-9999999/1" value="1" leadInLength="0/1"  name="opacity"/>
              <InterpolatingParam id="656" interp="linr"  time="0/1" value="0" leadInLength="0/1"  name="cursorOpacity"/>
              <InterpolatingParam id="657" interp="linr"  time="0/1" value="0" leadInLength="0/1"  name="cursorScale"/>
             </Parameters>
             <Attributes>
              <Attribute id="658" value="" name="ident"/>
             </Attributes>
             <ExtraData>
              <Entry key="ZoomPanBin">
               <ZoomPanBin id="659"  >
                <ZoomPanKeyframes>
                 <ZoomPanKeyframe id="660" timeRangeEnd="-9999999/1" timeRangeDuration="0/1" interpolaterName=""  />
                </ZoomPanKeyframes>
               </ZoomPanBin>
              </Entry>
              <Entry key="CursorEffectBin">
               <CursorEffectBin id="661"  >
                <CursorEffectKeyframes>
                </CursorEffectKeyframes>
               </CursorEffectBin>
              </Entry>
             </ExtraData>
            </ScreenVMFile>
            <MetaData>
             <entry key="AutoAppliedSmartFocus" val="False"/>
             <entry key="WinSubProjectDisplayName" val=""/>
            </MetaData>
           </UnifiedMedia>
           <UnifiedMedia id="662"  >
            <AMFile id="663" start="3745" duration="314" scalar="1/1" mediaStart="4584/1" mediaDuration="314/1" trackNumber="1" src="4" channelNumber="0,1" >
             <Parameters>
              <InterpolatingParam id="664" interp="linr"  time="0/1" value="1" leadInLength="0/1"  name="volume"/>
              <Parameter id="665"  name="captions"/>
             </Parameters>
             <Attributes>
              <Attribute id="666" value="" name="ident"/>
              <Attribute id="667" value="44100" name="sampleRate"/>
              <Attribute id="668" value="16" name="bitDepth"/>
              <Attribute id="669" value="1" name="gain"/>
              <Attribute id="670" value="0" name="mixToMono"/>
             </Attributes>
            </AMFile>
            <ScreenVMFile id="671" start="3745" duration="314" scalar="1/1" mediaStart="4584/1" mediaDuration="314/1" trackNumber="0" src="4" >
             <Transformer>
              <VectorParam id="672"  name="translation">
               <InterpolatingParam id="673" interp="linr"  time="-9999999/1" value="0" leadInLength="0/1"  />
               <InterpolatingParam id="674" interp="linr"  time="-9999999/1" value="0" leadInLength="0/1"  />
               <InterpolatingParam id="675" interp="linr"  time="-9999999/1" value="0" leadInLength="0/1"  />
              </VectorParam>
              <VectorParam id="676"  name="rotation">
               <InterpolatingParam id="677" interp="linr"  time="-9999999/1" value="0" leadInLength="0/1"  />
               <InterpolatingParam id="678" interp="linr"  time="-9999999/1" value="0" leadInLength="0/1"  />
               <InterpolatingParam id="679" interp="linr"  time="-9999999/1" value="0" leadInLength="0/1"  />
              </VectorParam>
              <VectorParam id="680"  name="shear">
               <InterpolatingParam id="681" interp="linr"  time="-9999999/1" value="0" leadInLength="0/1"  />
               <InterpolatingParam id="682" interp="linr"  time="-9999999/1" value="0" leadInLength="0/1"  />
               <InterpolatingParam id="683" interp="linr"  time="-9999999/1" value="0" leadInLength="0/1"  />
              </VectorParam>
              <VectorParam id="684"  name="scale">
               <InterpolatingParam id="685" interp="linr"  time="-9999999/1" value="1" leadInLength="0/1"  />
               <InterpolatingParam id="686" interp="linr"  time="-9999999/1" value="1" leadInLength="0/1"  />
               <InterpolatingParam id="687" interp="linr"  time="-9999999/1" value="1" leadInLength="0/1"  />
              </VectorParam>
              <VectorParam id="688"  name="anchor">
               <InterpolatingParam id="689" interp="linr"  time="0/1" value="0" leadInLength="0/1"  />
               <InterpolatingParam id="690" interp="linr"  time="0/1" value="0" leadInLength="0/1"  />
               <InterpolatingParam id="691" interp="linr"  time="0/1" value="0" leadInLength="0/1"  />
              </VectorParam>
             </Transformer>
             <Parameters>
              <VectorParam id="692"  name="sourceCrop">
               <InterpolatingParam id="693" interp="linr"  time="0/1" value="0" leadInLength="0/1"  />
               <InterpolatingParam id="694" interp="linr"  time="0/1" value="0" leadInLength="0/1"  />
               <InterpolatingParam id="695" interp="linr"  time="0/1" value="0" leadInLength="0/1"  />
               <InterpolatingParam id="696" interp="linr"  time="0/1" value="0" leadInLength="0/1"  />
              </VectorParam>
              <VectorParam id="697"  name="geometryCrop">
               <InterpolatingParam id="698" interp="linr"  time="-9999999/1" value="0" leadInLength="0/1"  />
               <InterpolatingParam id="699" interp="linr"  time="-9999999/1" value="0" leadInLength="0/1"  />
               <InterpolatingParam id="700" interp="linr"  time="-9999999/1" value="0" leadInLength="0/1"  />
               <InterpolatingParam id="701" interp="linr"  time="-9999999/1" value="0" leadInLength="0/1"  />
              </VectorParam>
              <InterpolatingParam id="702" interp="linr"  time="-9999999/1" value="1" leadInLength="0/1"  name="opacity"/>
              <InterpolatingParam id="703" interp="linr"  time="0/1" value="0" leadInLength="0/1"  name="cursorOpacity"/>
              <InterpolatingParam id="704" interp="linr"  time="0/1" value="0" leadInLength="0/1"  name="cursorScale"/>
             </Parameters>
             <Attributes>
              <Attribute id="705" value="" name="ident"/>
             </Attributes>
             <ExtraData>
              <Entry key="ZoomPanBin">
               <ZoomPanBin id="706"  >
                <ZoomPanKeyframes>
                 <ZoomPanKeyframe id="707" timeRangeEnd="-9999999/1" timeRangeDuration="0/1" interpolaterName=""  />
                </ZoomPanKeyframes>
               </ZoomPanBin>
              </Entry>
              <Entry key="CursorEffectBin">
               <CursorEffectBin id="708"  >
                <CursorEffectKeyframes>
                </CursorEffectKeyframes>
               </CursorEffectBin>
              </Entry>
             </ExtraData>
            </ScreenVMFile>
            <MetaData>
             <entry key="AutoAppliedSmartFocus" val="False"/>
             <entry key="WinSubProjectDisplayName" val=""/>
            </MetaData>
           </UnifiedMedia>
           <UnifiedMedia id="709"  >
            <AMFile id="710" start="4059" duration="356" scalar="1/1" mediaStart="4922/1" mediaDuration="356/1" trackNumber="1" src="4" channelNumber="0,1" >
             <Parameters>
              <InterpolatingParam id="711" interp="linr"  time="0/1" value="1" leadInLength="0/1"  name="volume"/>
              <Parameter id="712"  name="captions"/>
             </Parameters>
             <Attributes>
              <Attribute id="713" value="" name="ident"/>
              <Attribute id="714" value="44100" name="sampleRate"/>
              <Attribute id="715" value="16" name="bitDepth"/>
              <Attribute id="716" value="1" name="gain"/>
              <Attribute id="717" value="0" name="mixToMono"/>
             </Attributes>
            </AMFile>
            <ScreenVMFile id="718" start="4059" duration="356" scalar="1/1" mediaStart="4922/1" mediaDuration="356/1" trackNumber="0" src="4" >
             <Transformer>
              <VectorParam id="719"  name="translation">
               <InterpolatingParam id="720" interp="linr"  time="-9999999/1" value="0" leadInLength="0/1"  />
               <InterpolatingParam id="721" interp="linr"  time="-9999999/1" value="0" leadInLength="0/1"  />
               <InterpolatingParam id="722" interp="linr"  time="-9999999/1" value="0" leadInLength="0/1"  />
              </VectorParam>
              <VectorParam id="723"  name="rotation">
               <InterpolatingParam id="724" interp="linr"  time="-9999999/1" value="0" leadInLength="0/1"  />
               <InterpolatingParam id="725" interp="linr"  time="-9999999/1" value="0" leadInLength="0/1"  />
               <InterpolatingParam id="726" interp="linr"  time="-9999999/1" value="0" leadInLength="0/1"  />
              </VectorParam>
              <VectorParam id="727"  name="shear">
               <InterpolatingParam id="728" interp="linr"  time="-9999999/1" value="0" leadInLength="0/1"  />
               <InterpolatingParam id="729" interp="linr"  time="-9999999/1" value="0" leadInLength="0/1"  />
               <InterpolatingParam id="730" interp="linr"  time="-9999999/1" value="0" leadInLength="0/1"  />
              </VectorParam>
              <VectorParam id="731"  name="scale">
               <InterpolatingParam id="732" interp="linr"  time="-9999999/1" value="1" leadInLength="0/1"  />
               <InterpolatingParam id="733" interp="linr"  time="-9999999/1" value="1" leadInLength="0/1"  />
               <InterpolatingParam id="734" interp="linr"  time="-9999999/1" value="1" leadInLength="0/1"  />
              </VectorParam>
              <VectorParam id="735"  name="anchor">
               <InterpolatingParam id="736" interp="linr"  time="0/1" value="0" leadInLength="0/1"  />
               <InterpolatingParam id="737" interp="linr"  time="0/1" value="0" leadInLength="0/1"  />
               <InterpolatingParam id="738" interp="linr"  time="0/1" value="0" leadInLength="0/1"  />
              </VectorParam>
             </Transformer>
             <Parameters>
              <VectorParam id="739"  name="sourceCrop">
               <InterpolatingParam id="740" interp="linr"  time="0/1" value="0" leadInLength="0/1"  />
               <InterpolatingParam id="741" interp="linr"  time="0/1" value="0" leadInLength="0/1"  />
               <InterpolatingParam id="742" interp="linr"  time="0/1" value="0" leadInLength="0/1"  />
               <InterpolatingParam id="743" interp="linr"  time="0/1" value="0" leadInLength="0/1"  />
              </VectorParam>
              <VectorParam id="744"  name="geometryCrop">
               <InterpolatingParam id="745" interp="linr"  time="-9999999/1" value="0" leadInLength="0/1"  />
               <InterpolatingParam id="746" interp="linr"  time="-9999999/1" value="0" leadInLength="0/1"  />
               <InterpolatingParam id="747" interp="linr"  time="-9999999/1" value="0" leadInLength="0/1"  />
               <InterpolatingParam id="748" interp="linr"  time="-9999999/1" value="0" leadInLength="0/1"  />
              </VectorParam>
              <InterpolatingParam id="749" interp="linr"  time="-9999999/1" value="1" leadInLength="0/1"  name="opacity"/>
              <InterpolatingParam id="750" interp="linr"  time="0/1" value="0" leadInLength="0/1"  name="cursorOpacity"/>
              <InterpolatingParam id="751" interp="linr"  time="0/1" value="0" leadInLength="0/1"  name="cursorScale"/>
             </Parameters>
             <Attributes>
              <Attribute id="752" value="" name="ident"/>
             </Attributes>
             <ExtraData>
              <Entry key="ZoomPanBin">
               <ZoomPanBin id="753"  >
                <ZoomPanKeyframes>
                 <ZoomPanKeyframe id="754" timeRangeEnd="-9999999/1" timeRangeDuration="0/1" interpolaterName=""  />
                </ZoomPanKeyframes>
               </ZoomPanBin>
              </Entry>
              <Entry key="CursorEffectBin">
               <CursorEffectBin id="755"  >
                <CursorEffectKeyframes>
                </CursorEffectKeyframes>
               </CursorEffectBin>
              </Entry>
             </ExtraData>
            </ScreenVMFile>
            <MetaData>
             <entry key="AutoAppliedSmartFocus" val="False"/>
             <entry key="WinSubProjectDisplayName" val=""/>
            </MetaData>
           </UnifiedMedia>
           <UnifiedMedia id="756"  >
            <AMFile id="757" start="4415" duration="26" scalar="1/1" mediaStart="5305/1" mediaDuration="26/1" trackNumber="1" src="4" channelNumber="0,1" >
             <Parameters>
              <InterpolatingParam id="758" interp="linr"  time="0/1" value="1" leadInLength="0/1"  name="volume"/>
              <Parameter id="759"  name="captions"/>
             </Parameters>
             <Attributes>
              <Attribute id="760" value="" name="ident"/>
              <Attribute id="761" value="44100" name="sampleRate"/>
              <Attribute id="762" value="16" name="bitDepth"/>
              <Attribute id="763" value="1" name="gain"/>
              <Attribute id="764" value="0" name="mixToMono"/>
             </Attributes>
            </AMFile>
            <ScreenVMFile id="765" start="4415" duration="26" scalar="1/1" mediaStart="5305/1" mediaDuration="26/1" trackNumber="0" src="4" >
             <Transformer>
              <VectorParam id="766"  name="translation">
               <InterpolatingParam id="767" interp="linr"  time="-9999999/1" value="0" leadInLength="0/1"  />
               <InterpolatingParam id="768" interp="linr"  time="-9999999/1" value="0" leadInLength="0/1"  />
               <InterpolatingParam id="769" interp="linr"  time="-9999999/1" value="0" leadInLength="0/1"  />
              </VectorParam>
              <VectorParam id="770"  name="rotation">
               <InterpolatingParam id="771" interp="linr"  time="-9999999/1" value="0" leadInLength="0/1"  />
               <InterpolatingParam id="772" interp="linr"  time="-9999999/1" value="0" leadInLength="0/1"  />
               <InterpolatingParam id="773" interp="linr"  time="-9999999/1" value="0" leadInLength="0/1"  />
              </VectorParam>
              <VectorParam id="774"  name="shear">
               <InterpolatingParam id="775" interp="linr"  time="-9999999/1" value="0" leadInLength="0/1"  />
               <InterpolatingParam id="776" interp="linr"  time="-9999999/1" value="0" leadInLength="0/1"  />
               <InterpolatingParam id="777" interp="linr"  time="-9999999/1" value="0" leadInLength="0/1"  />
              </VectorParam>
              <VectorParam id="778"  name="scale">
               <InterpolatingParam id="779" interp="linr"  time="-9999999/1" value="1" leadInLength="0/1"  />
               <InterpolatingParam id="780" interp="linr"  time="-9999999/1" value="1" leadInLength="0/1"  />
               <InterpolatingParam id="781" interp="linr"  time="-9999999/1" value="1" leadInLength="0/1"  />
              </VectorParam>
              <VectorParam id="782"  name="anchor">
               <InterpolatingParam id="783" interp="linr"  time="0/1" value="0" leadInLength="0/1"  />
               <InterpolatingParam id="784" interp="linr"  time="0/1" value="0" leadInLength="0/1"  />
               <InterpolatingParam id="785" interp="linr"  time="0/1" value="0" leadInLength="0/1"  />
              </VectorParam>
             </Transformer>
             <Parameters>
              <VectorParam id="786"  name="sourceCrop">
               <InterpolatingParam id="787" interp="linr"  time="0/1" value="0" leadInLength="0/1"  />
               <InterpolatingParam id="788" interp="linr"  time="0/1" value="0" leadInLength="0/1"  />
               <InterpolatingParam id="789" interp="linr"  time="0/1" value="0" leadInLength="0/1"  />
               <InterpolatingParam id="790" interp="linr"  time="0/1" value="0" leadInLength="0/1"  />
              </VectorParam>
              <VectorParam id="791"  name="geometryCrop">
               <InterpolatingParam id="792" interp="linr"  time="-9999999/1" value="0" leadInLength="0/1"  />
               <InterpolatingParam id="793" interp="linr"  time="-9999999/1" value="0" leadInLength="0/1"  />
               <InterpolatingParam id="794" interp="linr"  time="-9999999/1" value="0" leadInLength="0/1"  />
               <InterpolatingParam id="795" interp="linr"  time="-9999999/1" value="0" leadInLength="0/1"  />
              </VectorParam>
              <InterpolatingParam id="796" interp="linr"  time="-9999999/1" value="1" leadInLength="0/1"  name="opacity"/>
              <InterpolatingParam id="797" interp="linr"  time="0/1" value="0" leadInLength="0/1"  name="cursorOpacity"/>
              <InterpolatingParam id="798" interp="linr"  time="0/1" value="0" leadInLength="0/1"  name="cursorScale"/>
             </Parameters>
             <Attributes>
              <Attribute id="799" value="" name="ident"/>
             </Attributes>
             <ExtraData>
              <Entry key="ZoomPanBin">
               <ZoomPanBin id="800"  >
                <ZoomPanKeyframes>
                 <ZoomPanKeyframe id="801" timeRangeEnd="-9999999/1" timeRangeDuration="0/1" interpolaterName=""  />
                </ZoomPanKeyframes>
               </ZoomPanBin>
              </Entry>
              <Entry key="CursorEffectBin">
               <CursorEffectBin id="802"  >
                <CursorEffectKeyframes>
                </CursorEffectKeyframes>
               </CursorEffectBin>
              </Entry>
             </ExtraData>
            </ScreenVMFile>
            <MetaData>
             <entry key="AutoAppliedSmartFocus" val="False"/>
             <entry key="WinSubProjectDisplayName" val=""/>
            </MetaData>
           </UnifiedMedia>
           <UnifiedMedia id="803"  >
            <AMFile id="804" start="4441" duration="408" scalar="1/1" mediaStart="5338/1" mediaDuration="408/1" trackNumber="1" src="4" channelNumber="0,1" >
             <Parameters>
              <InterpolatingParam id="805" interp="linr"  time="0/1" value="1" leadInLength="0/1"  name="volume"/>
              <Parameter id="806"  name="captions"/>
             </Parameters>
             <Attributes>
              <Attribute id="807" value="" name="ident"/>
              <Attribute id="808" value="44100" name="sampleRate"/>
              <Attribute id="809" value="16" name="bitDepth"/>
              <Attribute id="810" value="1" name="gain"/>
              <Attribute id="811" value="0" name="mixToMono"/>
             </Attributes>
            </AMFile>
            <ScreenVMFile id="812" start="4441" duration="408" scalar="1/1" mediaStart="5338/1" mediaDuration="408/1" trackNumber="0" src="4" >
             <Transformer>
              <VectorParam id="813"  name="translation">
               <InterpolatingParam id="814" interp="linr"  time="-9999999/1" value="0" leadInLength="0/1"  />
               <InterpolatingParam id="815" interp="linr"  time="-9999999/1" value="0" leadInLength="0/1"  />
               <InterpolatingParam id="816" interp="linr"  time="-9999999/1" value="0" leadInLength="0/1"  />
              </VectorParam>
              <VectorParam id="817"  name="rotation">
               <InterpolatingParam id="818" interp="linr"  time="-9999999/1" value="0" leadInLength="0/1"  />
               <InterpolatingParam id="819" interp="linr"  time="-9999999/1" value="0" leadInLength="0/1"  />
               <InterpolatingParam id="820" interp="linr"  time="-9999999/1" value="0" leadInLength="0/1"  />
              </VectorParam>
              <VectorParam id="821"  name="shear">
               <InterpolatingParam id="822" interp="linr"  time="-9999999/1" value="0" leadInLength="0/1"  />
               <InterpolatingParam id="823" interp="linr"  time="-9999999/1" value="0" leadInLength="0/1"  />
               <InterpolatingParam id="824" interp="linr"  time="-9999999/1" value="0" leadInLength="0/1"  />
              </VectorParam>
              <VectorParam id="825"  name="scale">
               <InterpolatingParam id="826" interp="linr"  time="-9999999/1" value="1" leadInLength="0/1"  />
               <InterpolatingParam id="827" interp="linr"  time="-9999999/1" value="1" leadInLength="0/1"  />
               <InterpolatingParam id="828" interp="linr"  time="-9999999/1" value="1" leadInLength="0/1"  />
              </VectorParam>
              <VectorParam id="829"  name="anchor">
               <InterpolatingParam id="830" interp="linr"  time="0/1" value="0" leadInLength="0/1"  />
               <InterpolatingParam id="831" interp="linr"  time="0/1" value="0" leadInLength="0/1"  />
               <InterpolatingParam id="832" interp="linr"  time="0/1" value="0" leadInLength="0/1"  />
              </VectorParam>
             </Transformer>
             <Parameters>
              <VectorParam id="833"  name="sourceCrop">
               <InterpolatingParam id="834" interp="linr"  time="0/1" value="0" leadInLength="0/1"  />
               <InterpolatingParam id="835" interp="linr"  time="0/1" value="0" leadInLength="0/1"  />
               <InterpolatingParam id="836" interp="linr"  time="0/1" value="0" leadInLength="0/1"  />
               <InterpolatingParam id="837" interp="linr"  time="0/1" value="0" leadInLength="0/1"  />
              </VectorParam>
              <VectorParam id="838"  name="geometryCrop">
               <InterpolatingParam id="839" interp="linr"  time="-9999999/1" value="0" leadInLength="0/1"  />
               <InterpolatingParam id="840" interp="linr"  time="-9999999/1" value="0" leadInLength="0/1"  />
               <InterpolatingParam id="841" interp="linr"  time="-9999999/1" value="0" leadInLength="0/1"  />
               <InterpolatingParam id="842" interp="linr"  time="-9999999/1" value="0" leadInLength="0/1"  />
              </VectorParam>
              <InterpolatingParam id="843" interp="linr"  time="-9999999/1" value="1" leadInLength="0/1"  name="opacity"/>
              <InterpolatingParam id="844" interp="linr"  time="0/1" value="0" leadInLength="0/1"  name="cursorOpacity"/>
              <InterpolatingParam id="845" interp="linr"  time="0/1" value="0" leadInLength="0/1"  name="cursorScale"/>
             </Parameters>
             <Attributes>
              <Attribute id="846" value="" name="ident"/>
             </Attributes>
             <ExtraData>
              <Entry key="ZoomPanBin">
               <ZoomPanBin id="847"  >
                <ZoomPanKeyframes>
                 <ZoomPanKeyframe id="848" timeRangeEnd="-9999999/1" timeRangeDuration="0/1" interpolaterName=""  />
                </ZoomPanKeyframes>
               </ZoomPanBin>
              </Entry>
              <Entry key="CursorEffectBin">
               <CursorEffectBin id="849"  >
                <CursorEffectKeyframes>
                </CursorEffectKeyframes>
               </CursorEffectBin>
              </Entry>
             </ExtraData>
            </ScreenVMFile>
            <MetaData>
             <entry key="AutoAppliedSmartFocus" val="False"/>
             <entry key="WinSubProjectDisplayName" val=""/>
            </MetaData>
           </UnifiedMedia>
           <UnifiedMedia id="850"  >
            <AMFile id="851" start="4849" duration="235" scalar="1/1" mediaStart="5854/1" mediaDuration="235/1" trackNumber="1" src="4" channelNumber="0,1" >
             <Parameters>
              <InterpolatingParam id="852" interp="linr"  time="0/1" value="1" leadInLength="0/1"  name="volume"/>
              <Parameter id="853"  name="captions"/>
             </Parameters>
             <Attributes>
              <Attribute id="854" value="" name="ident"/>
              <Attribute id="855" value="44100" name="sampleRate"/>
              <Attribute id="856" value="16" name="bitDepth"/>
              <Attribute id="857" value="1" name="gain"/>
              <Attribute id="858" value="0" name="mixToMono"/>
             </Attributes>
            </AMFile>
            <ScreenVMFile id="859" start="4849" duration="235" scalar="1/1" mediaStart="5854/1" mediaDuration="235/1" trackNumber="0" src="4" >
             <Transformer>
              <VectorParam id="860"  name="translation">
               <InterpolatingParam id="861" interp="linr"  time="-9999999/1" value="0" leadInLength="0/1"  />
               <InterpolatingParam id="862" interp="linr"  time="-9999999/1" value="0" leadInLength="0/1"  />
               <InterpolatingParam id="863" interp="linr"  time="-9999999/1" value="0" leadInLength="0/1"  />
              </VectorParam>
              <VectorParam id="864"  name="rotation">
               <InterpolatingParam id="865" interp="linr"  time="-9999999/1" value="0" leadInLength="0/1"  />
               <InterpolatingParam id="866" interp="linr"  time="-9999999/1" value="0" leadInLength="0/1"  />
               <InterpolatingParam id="867" interp="linr"  time="-9999999/1" value="0" leadInLength="0/1"  />
              </VectorParam>
              <VectorParam id="868"  name="shear">
               <InterpolatingParam id="869" interp="linr"  time="-9999999/1" value="0" leadInLength="0/1"  />
               <InterpolatingParam id="870" interp="linr"  time="-9999999/1" value="0" leadInLength="0/1"  />
               <InterpolatingParam id="871" interp="linr"  time="-9999999/1" value="0" leadInLength="0/1"  />
              </VectorParam>
              <VectorParam id="872"  name="scale">
               <InterpolatingParam id="873" interp="linr"  time="-9999999/1" value="1" leadInLength="0/1"  />
               <InterpolatingParam id="874" interp="linr"  time="-9999999/1" value="1" leadInLength="0/1"  />
               <InterpolatingParam id="875" interp="linr"  time="-9999999/1" value="1" leadInLength="0/1"  />
              </VectorParam>
              <VectorParam id="876"  name="anchor">
               <InterpolatingParam id="877" interp="linr"  time="0/1" value="0" leadInLength="0/1"  />
               <InterpolatingParam id="878" interp="linr"  time="0/1" value="0" leadInLength="0/1"  />
               <InterpolatingParam id="879" interp="linr"  time="0/1" value="0" leadInLength="0/1"  />
              </VectorParam>
             </Transformer>
             <Parameters>
              <VectorParam id="880"  name="sourceCrop">
               <InterpolatingParam id="881" interp="linr"  time="0/1" value="0" leadInLength="0/1"  />
               <InterpolatingParam id="882" interp="linr"  time="0/1" value="0" leadInLength="0/1"  />
               <InterpolatingParam id="883" interp="linr"  time="0/1" value="0" leadInLength="0/1"  />
               <InterpolatingParam id="884" interp="linr"  time="0/1" value="0" leadInLength="0/1"  />
              </VectorParam>
              <VectorParam id="885"  name="geometryCrop">
               <InterpolatingParam id="886" interp="linr"  time="-9999999/1" value="0" leadInLength="0/1"  />
               <InterpolatingParam id="887" interp="linr"  time="-9999999/1" value="0" leadInLength="0/1"  />
               <InterpolatingParam id="888" interp="linr"  time="-9999999/1" value="0" leadInLength="0/1"  />
               <InterpolatingParam id="889" interp="linr"  time="-9999999/1" value="0" leadInLength="0/1"  />
              </VectorParam>
              <InterpolatingParam id="890" interp="linr"  time="-9999999/1" value="1" leadInLength="0/1"  name="opacity"/>
              <InterpolatingParam id="891" interp="linr"  time="0/1" value="0" leadInLength="0/1"  name="cursorOpacity"/>
              <InterpolatingParam id="892" interp="linr"  time="0/1" value="0" leadInLength="0/1"  name="cursorScale"/>
             </Parameters>
             <Attributes>
              <Attribute id="893" value="" name="ident"/>
             </Attributes>
             <ExtraData>
              <Entry key="ZoomPanBin">
               <ZoomPanBin id="894"  >
                <ZoomPanKeyframes>
                 <ZoomPanKeyframe id="895" timeRangeEnd="-9999999/1" timeRangeDuration="0/1" interpolaterName=""  />
                </ZoomPanKeyframes>
               </ZoomPanBin>
              </Entry>
              <Entry key="CursorEffectBin">
               <CursorEffectBin id="896"  >
                <CursorEffectKeyframes>
                </CursorEffectKeyframes>
               </CursorEffectBin>
              </Entry>
             </ExtraData>
            </ScreenVMFile>
            <MetaData>
             <entry key="AutoAppliedSmartFocus" val="False"/>
             <entry key="WinSubProjectDisplayName" val=""/>
            </MetaData>
           </UnifiedMedia>
           <UnifiedMedia id="897"  >
            <AMFile id="898" start="5084" duration="591" scalar="1/1" mediaStart="6103/1" mediaDuration="591/1" trackNumber="1" src="4" channelNumber="0,1" >
             <Parameters>
              <InterpolatingParam id="899" interp="linr"  time="0/1" value="1" leadInLength="0/1"  name="volume"/>
              <Parameter id="900"  name="captions"/>
             </Parameters>
             <Attributes>
              <Attribute id="901" value="" name="ident"/>
              <Attribute id="902" value="44100" name="sampleRate"/>
              <Attribute id="903" value="16" name="bitDepth"/>
              <Attribute id="904" value="1" name="gain"/>
              <Attribute id="905" value="0" name="mixToMono"/>
             </Attributes>
            </AMFile>
            <ScreenVMFile id="906" start="5084" duration="591" scalar="1/1" mediaStart="6103/1" mediaDuration="591/1" trackNumber="0" src="4" >
             <Transformer>
              <VectorParam id="907"  name="translation">
               <InterpolatingParam id="908" interp="linr"  time="-9999999/1" value="0" leadInLength="0/1"  />
               <InterpolatingParam id="909" interp="linr"  time="-9999999/1" value="0" leadInLength="0/1"  />
               <InterpolatingParam id="910" interp="linr"  time="-9999999/1" value="0" leadInLength="0/1"  />
              </VectorParam>
              <VectorParam id="911"  name="rotation">
               <InterpolatingParam id="912" interp="linr"  time="-9999999/1" value="0" leadInLength="0/1"  />
               <InterpolatingParam id="913" interp="linr"  time="-9999999/1" value="0" leadInLength="0/1"  />
               <InterpolatingParam id="914" interp="linr"  time="-9999999/1" value="0" leadInLength="0/1"  />
              </VectorParam>
              <VectorParam id="915"  name="shear">
               <InterpolatingParam id="916" interp="linr"  time="-9999999/1" value="0" leadInLength="0/1"  />
               <InterpolatingParam id="917" interp="linr"  time="-9999999/1" value="0" leadInLength="0/1"  />
               <InterpolatingParam id="918" interp="linr"  time="-9999999/1" value="0" leadInLength="0/1"  />
              </VectorParam>
              <VectorParam id="919"  name="scale">
               <InterpolatingParam id="920" interp="linr"  time="-9999999/1" value="1" leadInLength="0/1"  />
               <InterpolatingParam id="921" interp="linr"  time="-9999999/1" value="1" leadInLength="0/1"  />
               <InterpolatingParam id="922" interp="linr"  time="-9999999/1" value="1" leadInLength="0/1"  />
              </VectorParam>
              <VectorParam id="923"  name="anchor">
               <InterpolatingParam id="924" interp="linr"  time="0/1" value="0" leadInLength="0/1"  />
               <InterpolatingParam id="925" interp="linr"  time="0/1" value="0" leadInLength="0/1"  />
               <InterpolatingParam id="926" interp="linr"  time="0/1" value="0" leadInLength="0/1"  />
              </VectorParam>
             </Transformer>
             <Parameters>
              <VectorParam id="927"  name="sourceCrop">
               <InterpolatingParam id="928" interp="linr"  time="0/1" value="0" leadInLength="0/1"  />
               <InterpolatingParam id="929" interp="linr"  time="0/1" value="0" leadInLength="0/1"  />
               <InterpolatingParam id="930" interp="linr"  time="0/1" value="0" leadInLength="0/1"  />
               <InterpolatingParam id="931" interp="linr"  time="0/1" value="0" leadInLength="0/1"  />
              </VectorParam>
              <VectorParam id="932"  name="geometryCrop">
               <InterpolatingParam id="933" interp="linr"  time="-9999999/1" value="0" leadInLength="0/1"  />
               <InterpolatingParam id="934" interp="linr"  time="-9999999/1" value="0" leadInLength="0/1"  />
               <InterpolatingParam id="935" interp="linr"  time="-9999999/1" value="0" leadInLength="0/1"  />
               <InterpolatingParam id="936" interp="linr"  time="-9999999/1" value="0" leadInLength="0/1"  />
              </VectorParam>
              <InterpolatingParam id="937" interp="linr"  time="-9999999/1" value="1" leadInLength="0/1"  name="opacity"/>
              <InterpolatingParam id="938" interp="linr"  time="0/1" value="0" leadInLength="0/1"  name="cursorOpacity"/>
              <InterpolatingParam id="939" interp="linr"  time="0/1" value="0" leadInLength="0/1"  name="cursorScale"/>
             </Parameters>
             <Attributes>
              <Attribute id="940" value="" name="ident"/>
             </Attributes>
             <ExtraData>
              <Entry key="ZoomPanBin">
               <ZoomPanBin id="941"  >
                <ZoomPanKeyframes>
                 <ZoomPanKeyframe id="942" timeRangeEnd="-9999999/1" timeRangeDuration="0/1" interpolaterName=""  />
                </ZoomPanKeyframes>
               </ZoomPanBin>
              </Entry>
              <Entry key="CursorEffectBin">
               <CursorEffectBin id="943"  >
                <CursorEffectKeyframes>
                </CursorEffectKeyframes>
               </CursorEffectBin>
              </Entry>
             </ExtraData>
            </ScreenVMFile>
            <MetaData>
             <entry key="AutoAppliedSmartFocus" val="False"/>
             <entry key="WinSubProjectDisplayName" val=""/>
            </MetaData>
           </UnifiedMedia>
           <UnifiedMedia id="944"  >
            <AMFile id="945" start="5675" duration="226" scalar="1/1" mediaStart="6728/1" mediaDuration="226/1" trackNumber="1" src="4" channelNumber="0,1" >
             <Parameters>
              <InterpolatingParam id="946" interp="linr"  time="0/1" value="1" leadInLength="0/1"  name="volume"/>
              <Parameter id="947"  name="captions"/>
             </Parameters>
             <Attributes>
              <Attribute id="948" value="" name="ident"/>
              <Attribute id="949" value="44100" name="sampleRate"/>
              <Attribute id="950" value="16" name="bitDepth"/>
              <Attribute id="951" value="1" name="gain"/>
              <Attribute id="952" value="0" name="mixToMono"/>
             </Attributes>
            </AMFile>
            <ScreenVMFile id="953" start="5675" duration="226" scalar="1/1" mediaStart="6728/1" mediaDuration="226/1" trackNumber="0" src="4" >
             <Transformer>
              <VectorParam id="954"  name="translation">
               <InterpolatingParam id="955" interp="linr"  time="-9999999/1" value="0" leadInLength="0/1"  />
               <InterpolatingParam id="956" interp="linr"  time="-9999999/1" value="0" leadInLength="0/1"  />
               <InterpolatingParam id="957" interp="linr"  time="-9999999/1" value="0" leadInLength="0/1"  />
              </VectorParam>
              <VectorParam id="958"  name="rotation">
               <InterpolatingParam id="959" interp="linr"  time="-9999999/1" value="0" leadInLength="0/1"  />
               <InterpolatingParam id="960" interp="linr"  time="-9999999/1" value="0" leadInLength="0/1"  />
               <InterpolatingParam id="961" interp="linr"  time="-9999999/1" value="0" leadInLength="0/1"  />
              </VectorParam>
              <VectorParam id="962"  name="shear">
               <InterpolatingParam id="963" interp="linr"  time="-9999999/1" value="0" leadInLength="0/1"  />
               <InterpolatingParam id="964" interp="linr"  time="-9999999/1" value="0" leadInLength="0/1"  />
               <InterpolatingParam id="965" interp="linr"  time="-9999999/1" value="0" leadInLength="0/1"  />
              </VectorParam>
              <VectorParam id="966"  name="scale">
               <InterpolatingParam id="967" interp="linr"  time="-9999999/1" value="1" leadInLength="0/1"  />
               <InterpolatingParam id="968" interp="linr"  time="-9999999/1" value="1" leadInLength="0/1"  />
               <InterpolatingParam id="969" interp="linr"  time="-9999999/1" value="1" leadInLength="0/1"  />
              </VectorParam>
              <VectorParam id="970"  name="anchor">
               <InterpolatingParam id="971" interp="linr"  time="0/1" value="0" leadInLength="0/1"  />
               <InterpolatingParam id="972" interp="linr"  time="0/1" value="0" leadInLength="0/1"  />
               <InterpolatingParam id="973" interp="linr"  time="0/1" value="0" leadInLength="0/1"  />
              </VectorParam>
             </Transformer>
             <Parameters>
              <VectorParam id="974"  name="sourceCrop">
               <InterpolatingParam id="975" interp="linr"  time="0/1" value="0" leadInLength="0/1"  />
               <InterpolatingParam id="976" interp="linr"  time="0/1" value="0" leadInLength="0/1"  />
               <InterpolatingParam id="977" interp="linr"  time="0/1" value="0" leadInLength="0/1"  />
               <InterpolatingParam id="978" interp="linr"  time="0/1" value="0" leadInLength="0/1"  />
              </VectorParam>
              <VectorParam id="979"  name="geometryCrop">
               <InterpolatingParam id="980" interp="linr"  time="-9999999/1" value="0" leadInLength="0/1"  />
               <InterpolatingParam id="981" interp="linr"  time="-9999999/1" value="0" leadInLength="0/1"  />
               <InterpolatingParam id="982" interp="linr"  time="-9999999/1" value="0" leadInLength="0/1"  />
               <InterpolatingParam id="983" interp="linr"  time="-9999999/1" value="0" leadInLength="0/1"  />
              </VectorParam>
              <InterpolatingParam id="984" interp="linr"  time="-9999999/1" value="1" leadInLength="0/1"  name="opacity"/>
              <InterpolatingParam id="985" interp="linr"  time="0/1" value="0" leadInLength="0/1"  name="cursorOpacity"/>
              <InterpolatingParam id="986" interp="linr"  time="0/1" value="0" leadInLength="0/1"  name="cursorScale"/>
             </Parameters>
             <Attributes>
              <Attribute id="987" value="" name="ident"/>
             </Attributes>
             <ExtraData>
              <Entry key="ZoomPanBin">
               <ZoomPanBin id="988"  >
                <ZoomPanKeyframes>
                 <ZoomPanKeyframe id="989" timeRangeEnd="-9999999/1" timeRangeDuration="0/1" interpolaterName=""  />
                </ZoomPanKeyframes>
               </ZoomPanBin>
              </Entry>
              <Entry key="CursorEffectBin">
               <CursorEffectBin id="990"  >
                <CursorEffectKeyframes>
                </CursorEffectKeyframes>
               </CursorEffectBin>
              </Entry>
             </ExtraData>
            </ScreenVMFile>
            <MetaData>
             <entry key="AutoAppliedSmartFocus" val="False"/>
             <entry key="WinSubProjectDisplayName" val=""/>
            </MetaData>
           </UnifiedMedia>
           <UnifiedMedia id="991"  >
            <AMFile id="992" start="5901" duration="564" scalar="1/1" mediaStart="6994/1" mediaDuration="564/1" trackNumber="1" src="4" channelNumber="0,1" >
             <Parameters>
              <InterpolatingParam id="993" interp="linr"  time="0/1" value="1" leadInLength="0/1"  name="volume"/>
              <Parameter id="994"  name="captions"/>
             </Parameters>
             <Attributes>
              <Attribute id="995" value="" name="ident"/>
              <Attribute id="996" value="44100" name="sampleRate"/>
              <Attribute id="997" value="16" name="bitDepth"/>
              <Attribute id="998" value="1" name="gain"/>
              <Attribute id="999" value="0" name="mixToMono"/>
             </Attributes>
            </AMFile>
            <ScreenVMFile id="1000" start="5901" duration="564" scalar="1/1" mediaStart="6994/1" mediaDuration="564/1" trackNumber="0" src="4" >
             <Transformer>
              <VectorParam id="1001"  name="translation">
               <InterpolatingParam id="1002" interp="linr"  time="-9999999/1" value="0" leadInLength="0/1"  />
               <InterpolatingParam id="1003" interp="linr"  time="-9999999/1" value="0" leadInLength="0/1"  />
               <InterpolatingParam id="1004" interp="linr"  time="-9999999/1" value="0" leadInLength="0/1"  />
              </VectorParam>
              <VectorParam id="1005"  name="rotation">
               <InterpolatingParam id="1006" interp="linr"  time="-9999999/1" value="0" leadInLength="0/1"  />
               <InterpolatingParam id="1007" interp="linr"  time="-9999999/1" value="0" leadInLength="0/1"  />
               <InterpolatingParam id="1008" interp="linr"  time="-9999999/1" value="0" leadInLength="0/1"  />
              </VectorParam>
              <VectorParam id="1009"  name="shear">
               <InterpolatingParam id="1010" interp="linr"  time="-9999999/1" value="0" leadInLength="0/1"  />
               <InterpolatingParam id="1011" interp="linr"  time="-9999999/1" value="0" leadInLength="0/1"  />
               <InterpolatingParam id="1012" interp="linr"  time="-9999999/1" value="0" leadInLength="0/1"  />
              </VectorParam>
              <VectorParam id="1013"  name="scale">
               <InterpolatingParam id="1014" interp="linr"  time="-9999999/1" value="1" leadInLength="0/1"  />
               <InterpolatingParam id="1015" interp="linr"  time="-9999999/1" value="1" leadInLength="0/1"  />
               <InterpolatingParam id="1016" interp="linr"  time="-9999999/1" value="1" leadInLength="0/1"  />
              </VectorParam>
              <VectorParam id="1017"  name="anchor">
               <InterpolatingParam id="1018" interp="linr"  time="0/1" value="0" leadInLength="0/1"  />
               <InterpolatingParam id="1019" interp="linr"  time="0/1" value="0" leadInLength="0/1"  />
               <InterpolatingParam id="1020" interp="linr"  time="0/1" value="0" leadInLength="0/1"  />
              </VectorParam>
             </Transformer>
             <Parameters>
              <VectorParam id="1021"  name="sourceCrop">
               <InterpolatingParam id="1022" interp="linr"  time="0/1" value="0" leadInLength="0/1"  />
               <InterpolatingParam id="1023" interp="linr"  time="0/1" value="0" leadInLength="0/1"  />
               <InterpolatingParam id="1024" interp="linr"  time="0/1" value="0" leadInLength="0/1"  />
               <InterpolatingParam id="1025" interp="linr"  time="0/1" value="0" leadInLength="0/1"  />
              </VectorParam>
              <VectorParam id="1026"  name="geometryCrop">
               <InterpolatingParam id="1027" interp="linr"  time="-9999999/1" value="0" leadInLength="0/1"  />
               <InterpolatingParam id="1028" interp="linr"  time="-9999999/1" value="0" leadInLength="0/1"  />
               <InterpolatingParam id="1029" interp="linr"  time="-9999999/1" value="0" leadInLength="0/1"  />
               <InterpolatingParam id="1030" interp="linr"  time="-9999999/1" value="0" leadInLength="0/1"  />
              </VectorParam>
              <InterpolatingParam id="1031" interp="linr"  time="-9999999/1" value="1" leadInLength="0/1"  name="opacity"/>
              <InterpolatingParam id="1032" interp="linr"  time="0/1" value="0" leadInLength="0/1"  name="cursorOpacity"/>
              <InterpolatingParam id="1033" interp="linr"  time="0/1" value="0" leadInLength="0/1"  name="cursorScale"/>
             </Parameters>
             <Attributes>
              <Attribute id="1034" value="" name="ident"/>
             </Attributes>
             <ExtraData>
              <Entry key="ZoomPanBin">
               <ZoomPanBin id="1035"  >
                <ZoomPanKeyframes>
                 <ZoomPanKeyframe id="1036" timeRangeEnd="-9999999/1" timeRangeDuration="0/1" interpolaterName=""  />
                </ZoomPanKeyframes>
               </ZoomPanBin>
              </Entry>
              <Entry key="CursorEffectBin">
               <CursorEffectBin id="1037"  >
                <CursorEffectKeyframes>
                </CursorEffectKeyframes>
               </CursorEffectBin>
              </Entry>
             </ExtraData>
            </ScreenVMFile>
            <MetaData>
             <entry key="AutoAppliedSmartFocus" val="False"/>
             <entry key="WinSubProjectDisplayName" val=""/>
            </MetaData>
           </UnifiedMedia>
           <UnifiedMedia id="1038"  >
            <AMFile id="1039" start="6465" duration="796" scalar="1/1" mediaStart="7590/1" mediaDuration="796/1" trackNumber="1" src="4" channelNumber="0,1" >
             <Parameters>
              <InterpolatingParam id="1040" interp="linr"  time="0/1" value="1" leadInLength="0/1"  name="volume"/>
              <Parameter id="1041"  name="captions"/>
             </Parameters>
             <Attributes>
              <Attribute id="1042" value="" name="ident"/>
              <Attribute id="1043" value="44100" name="sampleRate"/>
              <Attribute id="1044" value="16" name="bitDepth"/>
              <Attribute id="1045" value="1" name="gain"/>
              <Attribute id="1046" value="0" name="mixToMono"/>
             </Attributes>
            </AMFile>
            <ScreenVMFile id="1047" start="6465" duration="796" scalar="1/1" mediaStart="7590/1" mediaDuration="796/1" trackNumber="0" src="4" >
             <Transformer>
              <VectorParam id="1048"  name="translation">
               <InterpolatingParam id="1049" interp="linr"  time="-9999999/1" value="0" leadInLength="0/1"  />
               <InterpolatingParam id="1050" interp="linr"  time="-9999999/1" value="0" leadInLength="0/1"  />
               <InterpolatingParam id="1051" interp="linr"  time="-9999999/1" value="0" leadInLength="0/1"  />
              </VectorParam>
              <VectorParam id="1052"  name="rotation">
               <InterpolatingParam id="1053" interp="linr"  time="-9999999/1" value="0" leadInLength="0/1"  />
               <InterpolatingParam id="1054" interp="linr"  time="-9999999/1" value="0" leadInLength="0/1"  />
               <InterpolatingParam id="1055" interp="linr"  time="-9999999/1" value="0" leadInLength="0/1"  />
              </VectorParam>
              <VectorParam id="1056"  name="shear">
               <InterpolatingParam id="1057" interp="linr"  time="-9999999/1" value="0" leadInLength="0/1"  />
               <InterpolatingParam id="1058" interp="linr"  time="-9999999/1" value="0" leadInLength="0/1"  />
               <InterpolatingParam id="1059" interp="linr"  time="-9999999/1" value="0" leadInLength="0/1"  />
              </VectorParam>
              <VectorParam id="1060"  name="scale">
               <InterpolatingParam id="1061" interp="linr"  time="-9999999/1" value="1" leadInLength="0/1"  />
               <InterpolatingParam id="1062" interp="linr"  time="-9999999/1" value="1" leadInLength="0/1"  />
               <InterpolatingParam id="1063" interp="linr"  time="-9999999/1" value="1" leadInLength="0/1"  />
              </VectorParam>
              <VectorParam id="1064"  name="anchor">
               <InterpolatingParam id="1065" interp="linr"  time="0/1" value="0" leadInLength="0/1"  />
               <InterpolatingParam id="1066" interp="linr"  time="0/1" value="0" leadInLength="0/1"  />
               <InterpolatingParam id="1067" interp="linr"  time="0/1" value="0" leadInLength="0/1"  />
              </VectorParam>
             </Transformer>
             <Parameters>
              <VectorParam id="1068"  name="sourceCrop">
               <InterpolatingParam id="1069" interp="linr"  time="0/1" value="0" leadInLength="0/1"  />
               <InterpolatingParam id="1070" interp="linr"  time="0/1" value="0" leadInLength="0/1"  />
               <InterpolatingParam id="1071" interp="linr"  time="0/1" value="0" leadInLength="0/1"  />
               <InterpolatingParam id="1072" interp="linr"  time="0/1" value="0" leadInLength="0/1"  />
              </VectorParam>
              <VectorParam id="1073"  name="geometryCrop">
               <InterpolatingParam id="1074" interp="linr"  time="-9999999/1" value="0" leadInLength="0/1"  />
               <InterpolatingParam id="1075" interp="linr"  time="-9999999/1" value="0" leadInLength="0/1"  />
               <InterpolatingParam id="1076" interp="linr"  time="-9999999/1" value="0" leadInLength="0/1"  />
               <InterpolatingParam id="1077" interp="linr"  time="-9999999/1" value="0" leadInLength="0/1"  />
              </VectorParam>
              <InterpolatingParam id="1078" interp="linr"  time="-9999999/1" value="1" leadInLength="0/1"  name="opacity"/>
              <InterpolatingParam id="1079" interp="linr"  time="0/1" value="0" leadInLength="0/1"  name="cursorOpacity"/>
              <InterpolatingParam id="1080" interp="linr"  time="0/1" value="0" leadInLength="0/1"  name="cursorScale"/>
             </Parameters>
             <Attributes>
              <Attribute id="1081" value="" name="ident"/>
             </Attributes>
             <ExtraData>
              <Entry key="ZoomPanBin">
               <ZoomPanBin id="1082"  >
                <ZoomPanKeyframes>
                 <ZoomPanKeyframe id="1083" timeRangeEnd="-9999999/1" timeRangeDuration="0/1" interpolaterName=""  />
                </ZoomPanKeyframes>
               </ZoomPanBin>
              </Entry>
              <Entry key="CursorEffectBin">
               <CursorEffectBin id="1084"  >
                <CursorEffectKeyframes>
                </CursorEffectKeyframes>
               </CursorEffectBin>
              </Entry>
             </ExtraData>
            </ScreenVMFile>
            <MetaData>
             <entry key="AutoAppliedSmartFocus" val="False"/>
             <entry key="WinSubProjectDisplayName" val=""/>
            </MetaData>
           </UnifiedMedia>
          </Medias>
         </GenericTrack>
        </StitchedMedia>
       </Medias>
      </GenericTrack>
      <GenericTrack id="1085"  >
       <Attributes>
        <Attribute id="1086" value="" name="ident"/>
        <Attribute id="1087" value="0" name="audioMuted"/>
        <Attribute id="1088" value="0" name="videoHidden"/>
       </Attributes>
       <MetaData>
        <entry key="IsLocked" val="False"/>
        <entry key="WinTrackHeight" val="62"/>
       </MetaData>
       <Medias>
        <Callout id="1089" start="731" duration="127" scalar="1/1" mediaStart="0/1" mediaDuration="127/1" >
         <Transformer>
          <VectorParam id="1090"  name="translation">
           <InterpolatingParam id="1091" interp="linr"  time="-9999999/1" value="-81.035856573652438" leadInLength="0/1"  />
           <InterpolatingParam id="1092" interp="linr"  time="-9999999/1" value="93.227091633439144" leadInLength="0/1"  />
           <InterpolatingParam id="1093" interp="linr"  time="-9999999/1" value="0" leadInLength="0/1"  />
          </VectorParam>
          <VectorParam id="1094"  name="rotation">
           <InterpolatingParam id="1095" interp="linr"  time="-9999999/1" value="0" leadInLength="0/1"  />
           <InterpolatingParam id="1096" interp="linr"  time="-9999999/1" value="0" leadInLength="0/1"  />
           <InterpolatingParam id="1097" interp="linr"  time="-9999999/1" value="0" leadInLength="0/1"  />
          </VectorParam>
          <VectorParam id="1098"  name="shear">
           <InterpolatingParam id="1099" interp="linr"  time="-9999999/1" value="0" leadInLength="0/1"  />
           <InterpolatingParam id="1100" interp="linr"  time="-9999999/1" value="0" leadInLength="0/1"  />
           <InterpolatingParam id="1101" interp="linr"  time="-9999999/1" value="0" leadInLength="0/1"  />
          </VectorParam>
          <VectorParam id="1102"  name="scale">
           <InterpolatingParam id="1103" interp="linr"  time="-9999999/1" value="0.52788844621464404" leadInLength="0/1"  />
           <InterpolatingParam id="1104" interp="linr"  time="-9999999/1" value="0.3076693249102736" leadInLength="0/1"  />
           <InterpolatingParam id="1105" interp="linr"  time="-9999999/1" value="1" leadInLength="0/1"  />
          </VectorParam>
          <VectorParam id="1106"  name="anchor">
           <InterpolatingParam id="1107" interp="linr"  time="0/1" value="0" leadInLength="0/1"  />
           <InterpolatingParam id="1108" interp="linr"  time="0/1" value="0" leadInLength="0/1"  />
           <InterpolatingParam id="1109" interp="linr"  time="0/1" value="0" leadInLength="0/1"  />
          </VectorParam>
         </Transformer>
         <Parameters>
          <VectorParam id="1110"  name="sourceCrop">
           <InterpolatingParam id="1111" interp="linr"  time="0/1" value="0" leadInLength="0/1"  />
           <InterpolatingParam id="1112" interp="linr"  time="0/1" value="0" leadInLength="0/1"  />
           <InterpolatingParam id="1113" interp="linr"  time="0/1" value="0" leadInLength="0/1"  />
           <InterpolatingParam id="1114" interp="linr"  time="0/1" value="0" leadInLength="0/1"  />
          </VectorParam>
          <VectorParam id="1115"  name="geometryCrop">
           <InterpolatingParam id="1116" interp="linr"  time="-9999999/1" value="0" leadInLength="0/1"  />
           <InterpolatingParam id="1117" interp="linr"  time="-9999999/1" value="0" leadInLength="0/1"  />
           <InterpolatingParam id="1118" interp="linr"  time="-9999999/1" value="0" leadInLength="0/1"  />
           <InterpolatingParam id="1119" interp="linr"  time="-9999999/1" value="0" leadInLength="0/1"  />
          </VectorParam>
          <InterpolatingParam id="1120" interp="linr"  time="-9999999/1" value="1" leadInLength="0/1"  name="opacity"/>
         </Parameters>
         <Attributes>
          <Attribute id="1121"  name="vectorNode">
           <VectorNode id="1122" kind="TypeWinSimple"  >
            <DoubleParameters>
             <InterpolatingParam id="1123" interp="linr"  time="0/1" value="-1" leadInLength="0/1"  name="CutoutPercentage"/>
             <InterpolatingParam id="1124" interp="linr"  time="0/1" value="-1" leadInLength="0/1"  name="RoundedRectRadius"/>
             <InterpolatingParam id="1125" interp="linr"  time="0/1" value="4" leadInLength="0/1"  name="Style"/>
             <InterpolatingParam id="1126" interp="linr"  time="0/1" value="155" leadInLength="0/1"  name="borderColorBlue"/>
             <InterpolatingParam id="1127" interp="linr"  time="0/1" value="133" leadInLength="0/1"  name="borderColorGreen"/>
             <InterpolatingParam id="1128" interp="linr"  time="0/1" value="49" leadInLength="0/1"  name="borderColorRed"/>
             <InterpolatingParam id="1129" interp="linr"  time="0/1" value="0" leadInLength="0/1"  name="borderState"/>
             <InterpolatingParam id="1130" interp="linr"  time="0/1" value="3" leadInLength="0/1"  name="borderWidth"/>
             <InterpolatingParam id="1131" interp="linr"  time="0/1" value="0" leadInLength="0/1"  name="dimensionTime"/>
             <InterpolatingParam id="1132" interp="linr"  time="0/1" value="255" leadInLength="0/1"  name="fillColorBlue"/>
             <InterpolatingParam id="1133" interp="linr"  time="0/1" value="255" leadInLength="0/1"  name="fillColorGreen"/>
             <InterpolatingParam id="1134" interp="linr"  time="0/1" value="255" leadInLength="0/1"  name="fillColorRed"/>
             <InterpolatingParam id="1135" interp="linr"  time="0/1" value="1" leadInLength="0/1"  name="fillState"/>
             <InterpolatingParam id="1136" interp="linr"  time="0/1" value="0" leadInLength="0/1"  name="flipOnXAxis"/>
             <InterpolatingParam id="1137" interp="linr"  time="0/1" value="0" leadInLength="0/1"  name="flipOnYAxis"/>
             <InterpolatingParam id="1138" interp="linr"  time="0/1" value="174.01812688821752" leadInLength="0/1"  name="height"/>
             <InterpolatingParam id="1139" interp="linr"  time="0/1" value="0" leadInLength="0/1"  name="textDropShadow"/>
             <InterpolatingParam id="1140" interp="linr"  time="0/1" value="0" leadInLength="0/1"  name="textIgnoresOpacity"/>
             <InterpolatingParam id="1141" interp="linr"  time="0/1" value="0.875" leadInLength="0/1"  name="textRectHeight"/>
             <InterpolatingParam id="1142" interp="linr"  time="0/1" value="0.90936555891238668" leadInLength="0/1"  name="textRectWidth"/>
             <InterpolatingParam id="1143" interp="linr"  time="0/1" value="0.045317220543806644" leadInLength="0/1"  name="textRectX"/>
             <InterpolatingParam id="1144" interp="linr"  time="0/1" value="0.0625" leadInLength="0/1"  name="textRectY"/>
             <InterpolatingParam id="1145" interp="linr"  time="0/1" value="0" leadInLength="0/1"  name="textVerticalAlign"/>
             <InterpolatingParam id="1146" interp="linr"  time="0/1" value="240" leadInLength="0/1"  name="width"/>
            </DoubleParameters>
            <StringParameters>
             <Parameter id="1147"  name="VectorPath">
              <Keyframes>
              <Keyframe id="1148"  time="0/1" value="M0,0h331v240H0V0z" leadInLength="0/1"  />
              </Keyframes>
             </Parameter>
             <Parameter id="1149"  name="filename">
              <Keyframes>
              <Keyframe id="1150"  time="0/1" value="D:\Media\Studio\Callouts\rectanglewithtext.xml" leadInLength="0/1"  />
              </Keyframes>
             </Parameter>
             <Parameter id="1151"  name="name">
              <Keyframes>
              <Keyframe id="1152"  time="0/1" value="Simple Rectangle" leadInLength="0/1"  />
              </Keyframes>
             </Parameter>
             <Parameter id="1153"  name="text">
              <Keyframes>
              <Keyframe id="1154"  time="0/1" value="{\rtf1\ansi\ansicpg1252\deff0\deflang1033{\fonttbl{\f0\fswiss\fprq2\fcharset0 Arial;}}&#xD;&#xa;{\colortbl ;\red0\green0\blue0;\red255\green255\blue255;}&#xD;&#xa;\viewkind4\uc1\pard\qc\cf1\f0\fs24 -------&gt;   Ethernet\par&#xD;&#xa;))))   WIFI\cf2\fs32\par&#xD;&#xa;}&#xD;&#xa;" leadInLength="0/1"  />
              </Keyframes>
             </Parameter>
             <Parameter id="1155"  name="xmlContent">
              <Keyframes>
              <Keyframe id="1156"  time="0/1" value="﻿&lt;?xml version=&quot;1.0&quot;?&gt;&#xa;&#xa;&lt;Overlay version=&quot;1.0.1&quot;&gt;&#xa;&#xa;&lt;Overlay_Filename&gt;rectanglewithtext.png&lt;/Overlay_Filename&gt;&#xa;&lt;Overlay_Name&gt;Simple Rectangle&lt;/Overlay_Name&gt;&#xa;&lt;Text_Top&gt;15&lt;/Text_Top&gt;&#xa;&lt;Text_Left&gt;15&lt;/Text_Left&gt;&#xa;&lt;Text_Bottom&gt;15&lt;/Text_Bottom&gt;&#xa;&lt;Text_Right&gt;15&lt;/Text_Right&gt;&#xa;&lt;Fill_Color&gt;1&lt;/Fill_Color&gt;&#xa;&lt;Border_Color&gt;1&lt;/Border_Color&gt;&#xa;&lt;Initial_Fill_Color&gt;0xff9b8531&lt;/Initial_Fill_Color&gt;&#xa;&lt;Initial_Border_Color&gt;0xff9b8531&lt;/Initial_Border_Color&gt;&#xa;&lt;VectorProps&gt;&#xa;&lt;figure&gt;&#xa;&lt;svg&gt;M0,0h331v240H0V0z&lt;/svg&gt;&#xa;&lt;/figure&gt;&#xa;&lt;seamY&gt;-1&lt;/seamY&gt;&#xa;&lt;shapeWidth&gt;331&lt;/shapeWidth&gt;&#xa;&lt;shapeHeight&gt;240&lt;/shapeHeight&gt;&#xa;&lt;/VectorProps&gt;&#xa;&lt;Style&gt;4&lt;/Style&gt;&#xa;&lt;UseDefaultSpec&gt;1&lt;/UseDefaultSpec&gt;   &#xa;&lt;/Overlay&gt;" leadInLength="0/1"  />
              </Keyframes>
             </Parameter>
            </StringParameters>
           </VectorNode>
          </Attribute>
         </Attributes>
         <MetaData>
          <entry key="WinSubProjectDisplayName" val=""/>
         </MetaData>
         <LeftEdgeMods length="0/1" groupName="OpacityFade">
          <EdgeMod parameter="1120">
           <FadeInFunc id="1157"  />
          </EdgeMod>
         </LeftEdgeMods>
         <ExtraData>
          <Entry key="ZoomPanBin">
           <ZoomPanBin id="1158"  >
            <ZoomPanKeyframes>
             <ZoomPanKeyframe id="1159" timeRangeEnd="-9999999/1" timeRangeDuration="0/1" interpolaterName="linr"  />
            </ZoomPanKeyframes>
           </ZoomPanBin>
          </Entry>
         </ExtraData>
        </Callout>
        <Callout id="1160" start="858" duration="844" scalar="1/1" mediaStart="150/1" mediaDuration="844/1" >
         <Transformer>
          <VectorParam id="1161"  name="translation">
           <InterpolatingParam id="1162" interp="linr"  time="-9999999/1" value="-81.035856573652438" leadInLength="0/1"  />
           <InterpolatingParam id="1163" interp="linr"  time="-9999999/1" value="93.227091633439144" leadInLength="0/1"  />
           <InterpolatingParam id="1164" interp="linr"  time="-9999999/1" value="0" leadInLength="0/1"  />
          </VectorParam>
          <VectorParam id="1165"  name="rotation">
           <InterpolatingParam id="1166" interp="linr"  time="-9999999/1" value="0" leadInLength="0/1"  />
           <InterpolatingParam id="1167" interp="linr"  time="-9999999/1" value="0" leadInLength="0/1"  />
           <InterpolatingParam id="1168" interp="linr"  time="-9999999/1" value="0" leadInLength="0/1"  />
          </VectorParam>
          <VectorParam id="1169"  name="shear">
           <InterpolatingParam id="1170" interp="linr"  time="-9999999/1" value="0" leadInLength="0/1"  />
           <InterpolatingParam id="1171" interp="linr"  time="-9999999/1" value="0" leadInLength="0/1"  />
           <InterpolatingParam id="1172" interp="linr"  time="-9999999/1" value="0" leadInLength="0/1"  />
          </VectorParam>
          <VectorParam id="1173"  name="scale">
           <InterpolatingParam id="1174" interp="linr"  time="-9999999/1" value="0.52788844621464404" leadInLength="0/1"  />
           <InterpolatingParam id="1175" interp="linr"  time="-9999999/1" value="0.3076693249102736" leadInLength="0/1"  />
           <InterpolatingParam id="1176" interp="linr"  time="-9999999/1" value="1" leadInLength="0/1"  />
          </VectorParam>
          <VectorParam id="1177"  name="anchor">
           <InterpolatingParam id="1178" interp="linr"  time="0/1" value="0" leadInLength="0/1"  />
           <InterpolatingParam id="1179" interp="linr"  time="0/1" value="0" leadInLength="0/1"  />
           <InterpolatingParam id="1180" interp="linr"  time="0/1" value="0" leadInLength="0/1"  />
          </VectorParam>
         </Transformer>
         <Parameters>
          <VectorParam id="1181"  name="sourceCrop">
           <InterpolatingParam id="1182" interp="linr"  time="0/1" value="0" leadInLength="0/1"  />
           <InterpolatingParam id="1183" interp="linr"  time="0/1" value="0" leadInLength="0/1"  />
           <InterpolatingParam id="1184" interp="linr"  time="0/1" value="0" leadInLength="0/1"  />
           <InterpolatingParam id="1185" interp="linr"  time="0/1" value="0" leadInLength="0/1"  />
          </VectorParam>
          <VectorParam id="1186"  name="geometryCrop">
           <InterpolatingParam id="1187" interp="linr"  time="-9999999/1" value="0" leadInLength="0/1"  />
           <InterpolatingParam id="1188" interp="linr"  time="-9999999/1" value="0" leadInLength="0/1"  />
           <InterpolatingParam id="1189" interp="linr"  time="-9999999/1" value="0" leadInLength="0/1"  />
           <InterpolatingParam id="1190" interp="linr"  time="-9999999/1" value="0" leadInLength="0/1"  />
          </VectorParam>
          <InterpolatingParam id="1191" interp="linr"  time="-9999999/1" value="1" leadInLength="0/1"  name="opacity"/>
         </Parameters>
         <Attributes>
          <Attribute id="1192"  name="vectorNode">
           <VectorNode id="1193" kind="TypeWinSimple"  >
            <DoubleParameters>
             <InterpolatingParam id="1194" interp="linr"  time="0/1" value="-1" leadInLength="0/1"  name="CutoutPercentage"/>
             <InterpolatingParam id="1195" interp="linr"  time="0/1" value="-1" leadInLength="0/1"  name="RoundedRectRadius"/>
             <InterpolatingParam id="1196" interp="linr"  time="0/1" value="4" leadInLength="0/1"  name="Style"/>
             <InterpolatingParam id="1197" interp="linr"  time="0/1" value="155" leadInLength="0/1"  name="borderColorBlue"/>
             <InterpolatingParam id="1198" interp="linr"  time="0/1" value="133" leadInLength="0/1"  name="borderColorGreen"/>
             <InterpolatingParam id="1199" interp="linr"  time="0/1" value="49" leadInLength="0/1"  name="borderColorRed"/>
             <InterpolatingParam id="1200" interp="linr"  time="0/1" value="0" leadInLength="0/1"  name="borderState"/>
             <InterpolatingParam id="1201" interp="linr"  time="0/1" value="3" leadInLength="0/1"  name="borderWidth"/>
             <InterpolatingParam id="1202" interp="linr"  time="0/1" value="0" leadInLength="0/1"  name="dimensionTime"/>
             <InterpolatingParam id="1203" interp="linr"  time="0/1" value="255" leadInLength="0/1"  name="fillColorBlue"/>
             <InterpolatingParam id="1204" interp="linr"  time="0/1" value="255" leadInLength="0/1"  name="fillColorGreen"/>
             <InterpolatingParam id="1205" interp="linr"  time="0/1" value="255" leadInLength="0/1"  name="fillColorRed"/>
             <InterpolatingParam id="1206" interp="linr"  time="0/1" value="1" leadInLength="0/1"  name="fillState"/>
             <InterpolatingParam id="1207" interp="linr"  time="0/1" value="0" leadInLength="0/1"  name="flipOnXAxis"/>
             <InterpolatingParam id="1208" interp="linr"  time="0/1" value="0" leadInLength="0/1"  name="flipOnYAxis"/>
             <InterpolatingParam id="1209" interp="linr"  time="0/1" value="174.01812688821752" leadInLength="0/1"  name="height"/>
             <InterpolatingParam id="1210" interp="linr"  time="0/1" value="0" leadInLength="0/1"  name="textDropShadow"/>
             <InterpolatingParam id="1211" interp="linr"  time="0/1" value="0" leadInLength="0/1"  name="textIgnoresOpacity"/>
             <InterpolatingParam id="1212" interp="linr"  time="0/1" value="0.875" leadInLength="0/1"  name="textRectHeight"/>
             <InterpolatingParam id="1213" interp="linr"  time="0/1" value="0.90936555891238668" leadInLength="0/1"  name="textRectWidth"/>
             <InterpolatingParam id="1214" interp="linr"  time="0/1" value="0.045317220543806644" leadInLength="0/1"  name="textRectX"/>
             <InterpolatingParam id="1215" interp="linr"  time="0/1" value="0.0625" leadInLength="0/1"  name="textRectY"/>
             <InterpolatingParam id="1216" interp="linr"  time="0/1" value="0" leadInLength="0/1"  name="textVerticalAlign"/>
             <InterpolatingParam id="1217" interp="linr"  time="0/1" value="240" leadInLength="0/1"  name="width"/>
            </DoubleParameters>
            <StringParameters>
             <Parameter id="1218"  name="VectorPath">
              <Keyframes>
              <Keyframe id="1219"  time="0/1" value="M0,0h331v240H0V0z" leadInLength="0/1"  />
              </Keyframes>
             </Parameter>
             <Parameter id="1220"  name="filename">
              <Keyframes>
              <Keyframe id="1221"  time="0/1" value="D:\Media\Studio\Callouts\rectanglewithtext.xml" leadInLength="0/1"  />
              </Keyframes>
             </Parameter>
             <Parameter id="1222"  name="name">
              <Keyframes>
              <Keyframe id="1223"  time="0/1" value="Simple Rectangle" leadInLength="0/1"  />
              </Keyframes>
             </Parameter>
             <Parameter id="1224"  name="text">
              <Keyframes>
              <Keyframe id="1225"  time="0/1" value="{\rtf1\ansi\ansicpg1252\deff0\deflang1033{\fonttbl{\f0\fswiss\fprq2\fcharset0 Arial;}}&#xD;&#xa;{\colortbl ;\red0\green0\blue0;\red255\green255\blue255;}&#xD;&#xa;\viewkind4\uc1\pard\qc\cf1\f0\fs24 -------&gt;   Ethernet\par&#xD;&#xa;))))   WIFI\cf2\fs32\par&#xD;&#xa;}&#xD;&#xa;" leadInLength="0/1"  />
              </Keyframes>
             </Parameter>
             <Parameter id="1226"  name="xmlContent">
              <Keyframes>
              <Keyframe id="1227"  time="0/1" value="﻿&lt;?xml version=&quot;1.0&quot;?&gt;&#xa;&#xa;&lt;Overlay version=&quot;1.0.1&quot;&gt;&#xa;&#xa;&lt;Overlay_Filename&gt;rectanglewithtext.png&lt;/Overlay_Filename&gt;&#xa;&lt;Overlay_Name&gt;Simple Rectangle&lt;/Overlay_Name&gt;&#xa;&lt;Text_Top&gt;15&lt;/Text_Top&gt;&#xa;&lt;Text_Left&gt;15&lt;/Text_Left&gt;&#xa;&lt;Text_Bottom&gt;15&lt;/Text_Bottom&gt;&#xa;&lt;Text_Right&gt;15&lt;/Text_Right&gt;&#xa;&lt;Fill_Color&gt;1&lt;/Fill_Color&gt;&#xa;&lt;Border_Color&gt;1&lt;/Border_Color&gt;&#xa;&lt;Initial_Fill_Color&gt;0xff9b8531&lt;/Initial_Fill_Color&gt;&#xa;&lt;Initial_Border_Color&gt;0xff9b8531&lt;/Initial_Border_Color&gt;&#xa;&lt;VectorProps&gt;&#xa;&lt;figure&gt;&#xa;&lt;svg&gt;M0,0h331v240H0V0z&lt;/svg&gt;&#xa;&lt;/figure&gt;&#xa;&lt;seamY&gt;-1&lt;/seamY&gt;&#xa;&lt;shapeWidth&gt;331&lt;/shapeWidth&gt;&#xa;&lt;shapeHeight&gt;240&lt;/shapeHeight&gt;&#xa;&lt;/VectorProps&gt;&#xa;&lt;Style&gt;4&lt;/Style&gt;&#xa;&lt;UseDefaultSpec&gt;1&lt;/UseDefaultSpec&gt;   &#xa;&lt;/Overlay&gt;" leadInLength="0/1"  />
              </Keyframes>
             </Parameter>
            </StringParameters>
           </VectorNode>
          </Attribute>
         </Attributes>
         <MetaData>
          <entry key="WinSubProjectDisplayName" val=""/>
         </MetaData>
         <ExtraData>
          <Entry key="ZoomPanBin">
           <ZoomPanBin id="1228"  >
            <ZoomPanKeyframes>
             <ZoomPanKeyframe id="1229" timeRangeEnd="-9999999/1" timeRangeDuration="0/1" interpolaterName="linr"  />
            </ZoomPanKeyframes>
           </ZoomPanBin>
          </Entry>
         </ExtraData>
        </Callout>
        <Callout id="1230" start="1702" duration="576" scalar="1/1" mediaStart="1020/1" mediaDuration="576/1" >
         <Transformer>
          <VectorParam id="1231"  name="translation">
           <InterpolatingParam id="1232" interp="linr"  time="-9999999/1" value="-81.035856573652438" leadInLength="0/1"  />
           <InterpolatingParam id="1233" interp="linr"  time="-9999999/1" value="93.227091633439144" leadInLength="0/1"  />
           <InterpolatingParam id="1234" interp="linr"  time="-9999999/1" value="0" leadInLength="0/1"  />
          </VectorParam>
          <VectorParam id="1235"  name="rotation">
           <InterpolatingParam id="1236" interp="linr"  time="-9999999/1" value="0" leadInLength="0/1"  />
           <InterpolatingParam id="1237" interp="linr"  time="-9999999/1" value="0" leadInLength="0/1"  />
           <InterpolatingParam id="1238" interp="linr"  time="-9999999/1" value="0" leadInLength="0/1"  />
          </VectorParam>
          <VectorParam id="1239"  name="shear">
           <InterpolatingParam id="1240" interp="linr"  time="-9999999/1" value="0" leadInLength="0/1"  />
           <InterpolatingParam id="1241" interp="linr"  time="-9999999/1" value="0" leadInLength="0/1"  />
           <InterpolatingParam id="1242" interp="linr"  time="-9999999/1" value="0" leadInLength="0/1"  />
          </VectorParam>
          <VectorParam id="1243"  name="scale">
           <InterpolatingParam id="1244" interp="linr"  time="-9999999/1" value="0.52788844621464404" leadInLength="0/1"  />
           <InterpolatingParam id="1245" interp="linr"  time="-9999999/1" value="0.3076693249102736" leadInLength="0/1"  />
           <InterpolatingParam id="1246" interp="linr"  time="-9999999/1" value="1" leadInLength="0/1"  />
          </VectorParam>
          <VectorParam id="1247"  name="anchor">
           <InterpolatingParam id="1248" interp="linr"  time="0/1" value="0" leadInLength="0/1"  />
           <InterpolatingParam id="1249" interp="linr"  time="0/1" value="0" leadInLength="0/1"  />
           <InterpolatingParam id="1250" interp="linr"  time="0/1" value="0" leadInLength="0/1"  />
          </VectorParam>
         </Transformer>
         <Parameters>
          <VectorParam id="1251"  name="sourceCrop">
           <InterpolatingParam id="1252" interp="linr"  time="0/1" value="0" leadInLength="0/1"  />
           <InterpolatingParam id="1253" interp="linr"  time="0/1" value="0" leadInLength="0/1"  />
           <InterpolatingParam id="1254" interp="linr"  time="0/1" value="0" leadInLength="0/1"  />
           <InterpolatingParam id="1255" interp="linr"  time="0/1" value="0" leadInLength="0/1"  />
          </VectorParam>
          <VectorParam id="1256"  name="geometryCrop">
           <InterpolatingParam id="1257" interp="linr"  time="-9999999/1" value="0" leadInLength="0/1"  />
           <InterpolatingParam id="1258" interp="linr"  time="-9999999/1" value="0" leadInLength="0/1"  />
           <InterpolatingParam id="1259" interp="linr"  time="-9999999/1" value="0" leadInLength="0/1"  />
           <InterpolatingParam id="1260" interp="linr"  time="-9999999/1" value="0" leadInLength="0/1"  />
          </VectorParam>
          <InterpolatingParam id="1261" interp="linr"  time="-9999999/1" value="1" leadInLength="0/1"  name="opacity"/>
         </Parameters>
         <Attributes>
          <Attribute id="1262"  name="vectorNode">
           <VectorNode id="1263" kind="TypeWinSimple"  >
            <DoubleParameters>
             <InterpolatingParam id="1264" interp="linr"  time="0/1" value="-1" leadInLength="0/1"  name="CutoutPercentage"/>
             <InterpolatingParam id="1265" interp="linr"  time="0/1" value="-1" leadInLength="0/1"  name="RoundedRectRadius"/>
             <InterpolatingParam id="1266" interp="linr"  time="0/1" value="4" leadInLength="0/1"  name="Style"/>
             <InterpolatingParam id="1267" interp="linr"  time="0/1" value="155" leadInLength="0/1"  name="borderColorBlue"/>
             <InterpolatingParam id="1268" interp="linr"  time="0/1" value="133" leadInLength="0/1"  name="borderColorGreen"/>
             <InterpolatingParam id="1269" interp="linr"  time="0/1" value="49" leadInLength="0/1"  name="borderColorRed"/>
             <InterpolatingParam id="1270" interp="linr"  time="0/1" value="0" leadInLength="0/1"  name="borderState"/>
             <InterpolatingParam id="1271" interp="linr"  time="0/1" value="3" leadInLength="0/1"  name="borderWidth"/>
             <InterpolatingParam id="1272" interp="linr"  time="0/1" value="0" leadInLength="0/1"  name="dimensionTime"/>
             <InterpolatingParam id="1273" interp="linr"  time="0/1" value="255" leadInLength="0/1"  name="fillColorBlue"/>
             <InterpolatingParam id="1274" interp="linr"  time="0/1" value="255" leadInLength="0/1"  name="fillColorGreen"/>
             <InterpolatingParam id="1275" interp="linr"  time="0/1" value="255" leadInLength="0/1"  name="fillColorRed"/>
             <InterpolatingParam id="1276" interp="linr"  time="0/1" value="1" leadInLength="0/1"  name="fillState"/>
             <InterpolatingParam id="1277" interp="linr"  time="0/1" value="0" leadInLength="0/1"  name="flipOnXAxis"/>
             <InterpolatingParam id="1278" interp="linr"  time="0/1" value="0" leadInLength="0/1"  name="flipOnYAxis"/>
             <InterpolatingParam id="1279" interp="linr"  time="0/1" value="174.01812688821752" leadInLength="0/1"  name="height"/>
             <InterpolatingParam id="1280" interp="linr"  time="0/1" value="0" leadInLength="0/1"  name="textDropShadow"/>
             <InterpolatingParam id="1281" interp="linr"  time="0/1" value="0" leadInLength="0/1"  name="textIgnoresOpacity"/>
             <InterpolatingParam id="1282" interp="linr"  time="0/1" value="0.875" leadInLength="0/1"  name="textRectHeight"/>
             <InterpolatingParam id="1283" interp="linr"  time="0/1" value="0.90936555891238668" leadInLength="0/1"  name="textRectWidth"/>
             <InterpolatingParam id="1284" interp="linr"  time="0/1" value="0.045317220543806644" leadInLength="0/1"  name="textRectX"/>
             <InterpolatingParam id="1285" interp="linr"  time="0/1" value="0.0625" leadInLength="0/1"  name="textRectY"/>
             <InterpolatingParam id="1286" interp="linr"  time="0/1" value="0" leadInLength="0/1"  name="textVerticalAlign"/>
             <InterpolatingParam id="1287" interp="linr"  time="0/1" value="240" leadInLength="0/1"  name="width"/>
            </DoubleParameters>
            <StringParameters>
             <Parameter id="1288"  name="VectorPath">
              <Keyframes>
              <Keyframe id="1289"  time="0/1" value="M0,0h331v240H0V0z" leadInLength="0/1"  />
              </Keyframes>
             </Parameter>
             <Parameter id="1290"  name="filename">
              <Keyframes>
              <Keyframe id="1291"  time="0/1" value="D:\Media\Studio\Callouts\rectanglewithtext.xml" leadInLength="0/1"  />
              </Keyframes>
             </Parameter>
             <Parameter id="1292"  name="name">
              <Keyframes>
              <Keyframe id="1293"  time="0/1" value="Simple Rectangle" leadInLength="0/1"  />
              </Keyframes>
             </Parameter>
             <Parameter id="1294"  name="text">
              <Keyframes>
              <Keyframe id="1295"  time="0/1" value="{\rtf1\ansi\ansicpg1252\deff0\deflang1033{\fonttbl{\f0\fswiss\fprq2\fcharset0 Arial;}}&#xD;&#xa;{\colortbl ;\red0\green0\blue0;\red255\green255\blue255;}&#xD;&#xa;\viewkind4\uc1\pard\qc\cf1\f0\fs24 -------&gt;   Ethernet\par&#xD;&#xa;))))   WIFI\cf2\fs32\par&#xD;&#xa;}&#xD;&#xa;" leadInLength="0/1"  />
              </Keyframes>
             </Parameter>
             <Parameter id="1296"  name="xmlContent">
              <Keyframes>
              <Keyframe id="1297"  time="0/1" value="﻿&lt;?xml version=&quot;1.0&quot;?&gt;&#xa;&#xa;&lt;Overlay version=&quot;1.0.1&quot;&gt;&#xa;&#xa;&lt;Overlay_Filename&gt;rectanglewithtext.png&lt;/Overlay_Filename&gt;&#xa;&lt;Overlay_Name&gt;Simple Rectangle&lt;/Overlay_Name&gt;&#xa;&lt;Text_Top&gt;15&lt;/Text_Top&gt;&#xa;&lt;Text_Left&gt;15&lt;/Text_Left&gt;&#xa;&lt;Text_Bottom&gt;15&lt;/Text_Bottom&gt;&#xa;&lt;Text_Right&gt;15&lt;/Text_Right&gt;&#xa;&lt;Fill_Color&gt;1&lt;/Fill_Color&gt;&#xa;&lt;Border_Color&gt;1&lt;/Border_Color&gt;&#xa;&lt;Initial_Fill_Color&gt;0xff9b8531&lt;/Initial_Fill_Color&gt;&#xa;&lt;Initial_Border_Color&gt;0xff9b8531&lt;/Initial_Border_Color&gt;&#xa;&lt;VectorProps&gt;&#xa;&lt;figure&gt;&#xa;&lt;svg&gt;M0,0h331v240H0V0z&lt;/svg&gt;&#xa;&lt;/figure&gt;&#xa;&lt;seamY&gt;-1&lt;/seamY&gt;&#xa;&lt;shapeWidth&gt;331&lt;/shapeWidth&gt;&#xa;&lt;shapeHeight&gt;240&lt;/shapeHeight&gt;&#xa;&lt;/VectorProps&gt;&#xa;&lt;Style&gt;4&lt;/Style&gt;&#xa;&lt;UseDefaultSpec&gt;1&lt;/UseDefaultSpec&gt;   &#xa;&lt;/Overlay&gt;" leadInLength="0/1"  />
              </Keyframes>
             </Parameter>
            </StringParameters>
           </VectorNode>
          </Attribute>
         </Attributes>
         <MetaData>
          <entry key="WinSubProjectDisplayName" val=""/>
         </MetaData>
         <ExtraData>
          <Entry key="ZoomPanBin">
           <ZoomPanBin id="1298"  >
            <ZoomPanKeyframes>
             <ZoomPanKeyframe id="1299" timeRangeEnd="-9999999/1" timeRangeDuration="0/1" interpolaterName="linr"  />
            </ZoomPanKeyframes>
           </ZoomPanBin>
          </Entry>
         </ExtraData>
        </Callout>
        <Callout id="1300" start="2278" duration="1005" scalar="1/1" mediaStart="1621/1" mediaDuration="1005/1" >
         <Transformer>
          <VectorParam id="1301"  name="translation">
           <InterpolatingParam id="1302" interp="linr"  time="-9999999/1" value="-81.035856573652438" leadInLength="0/1"  />
           <InterpolatingParam id="1303" interp="linr"  time="-9999999/1" value="93.227091633439144" leadInLength="0/1"  />
           <InterpolatingParam id="1304" interp="linr"  time="-9999999/1" value="0" leadInLength="0/1"  />
          </VectorParam>
          <VectorParam id="1305"  name="rotation">
           <InterpolatingParam id="1306" interp="linr"  time="-9999999/1" value="0" leadInLength="0/1"  />
           <InterpolatingParam id="1307" interp="linr"  time="-9999999/1" value="0" leadInLength="0/1"  />
           <InterpolatingParam id="1308" interp="linr"  time="-9999999/1" value="0" leadInLength="0/1"  />
          </VectorParam>
          <VectorParam id="1309"  name="shear">
           <InterpolatingParam id="1310" interp="linr"  time="-9999999/1" value="0" leadInLength="0/1"  />
           <InterpolatingParam id="1311" interp="linr"  time="-9999999/1" value="0" leadInLength="0/1"  />
           <InterpolatingParam id="1312" interp="linr"  time="-9999999/1" value="0" leadInLength="0/1"  />
          </VectorParam>
          <VectorParam id="1313"  name="scale">
           <InterpolatingParam id="1314" interp="linr"  time="-9999999/1" value="0.52788844621464404" leadInLength="0/1"  />
           <InterpolatingParam id="1315" interp="linr"  time="-9999999/1" value="0.3076693249102736" leadInLength="0/1"  />
           <InterpolatingParam id="1316" interp="linr"  time="-9999999/1" value="1" leadInLength="0/1"  />
          </VectorParam>
          <VectorParam id="1317"  name="anchor">
           <InterpolatingParam id="1318" interp="linr"  time="0/1" value="0" leadInLength="0/1"  />
           <InterpolatingParam id="1319" interp="linr"  time="0/1" value="0" leadInLength="0/1"  />
           <InterpolatingParam id="1320" interp="linr"  time="0/1" value="0" leadInLength="0/1"  />
          </VectorParam>
         </Transformer>
         <Parameters>
          <VectorParam id="1321"  name="sourceCrop">
           <InterpolatingParam id="1322" interp="linr"  time="0/1" value="0" leadInLength="0/1"  />
           <InterpolatingParam id="1323" interp="linr"  time="0/1" value="0" leadInLength="0/1"  />
           <InterpolatingParam id="1324" interp="linr"  time="0/1" value="0" leadInLength="0/1"  />
           <InterpolatingParam id="1325" interp="linr"  time="0/1" value="0" leadInLength="0/1"  />
          </VectorParam>
          <VectorParam id="1326"  name="geometryCrop">
           <InterpolatingParam id="1327" interp="linr"  time="-9999999/1" value="0" leadInLength="0/1"  />
           <InterpolatingParam id="1328" interp="linr"  time="-9999999/1" value="0" leadInLength="0/1"  />
           <InterpolatingParam id="1329" interp="linr"  time="-9999999/1" value="0" leadInLength="0/1"  />
           <InterpolatingParam id="1330" interp="linr"  time="-9999999/1" value="0" leadInLength="0/1"  />
          </VectorParam>
          <InterpolatingParam id="1331" interp="linr"  time="-9999999/1" value="1" leadInLength="0/1"  name="opacity"/>
         </Parameters>
         <Attributes>
          <Attribute id="1332"  name="vectorNode">
           <VectorNode id="1333" kind="TypeWinSimple"  >
            <DoubleParameters>
             <InterpolatingParam id="1334" interp="linr"  time="0/1" value="-1" leadInLength="0/1"  name="CutoutPercentage"/>
             <InterpolatingParam id="1335" interp="linr"  time="0/1" value="-1" leadInLength="0/1"  name="RoundedRectRadius"/>
             <InterpolatingParam id="1336" interp="linr"  time="0/1" value="4" leadInLength="0/1"  name="Style"/>
             <InterpolatingParam id="1337" interp="linr"  time="0/1" value="155" leadInLength="0/1"  name="borderColorBlue"/>
             <InterpolatingParam id="1338" interp="linr"  time="0/1" value="133" leadInLength="0/1"  name="borderColorGreen"/>
             <InterpolatingParam id="1339" interp="linr"  time="0/1" value="49" leadInLength="0/1"  name="borderColorRed"/>
             <InterpolatingParam id="1340" interp="linr"  time="0/1" value="0" leadInLength="0/1"  name="borderState"/>
             <InterpolatingParam id="1341" interp="linr"  time="0/1" value="3" leadInLength="0/1"  name="borderWidth"/>
             <InterpolatingParam id="1342" interp="linr"  time="0/1" value="0" leadInLength="0/1"  name="dimensionTime"/>
             <InterpolatingParam id="1343" interp="linr"  time="0/1" value="255" leadInLength="0/1"  name="fillColorBlue"/>
             <InterpolatingParam id="1344" interp="linr"  time="0/1" value="255" leadInLength="0/1"  name="fillColorGreen"/>
             <InterpolatingParam id="1345" interp="linr"  time="0/1" value="255" leadInLength="0/1"  name="fillColorRed"/>
             <InterpolatingParam id="1346" interp="linr"  time="0/1" value="1" leadInLength="0/1"  name="fillState"/>
             <InterpolatingParam id="1347" interp="linr"  time="0/1" value="0" leadInLength="0/1"  name="flipOnXAxis"/>
             <InterpolatingParam id="1348" interp="linr"  time="0/1" value="0" leadInLength="0/1"  name="flipOnYAxis"/>
             <InterpolatingParam id="1349" interp="linr"  time="0/1" value="174.01812688821752" leadInLength="0/1"  name="height"/>
             <InterpolatingParam id="1350" interp="linr"  time="0/1" value="0" leadInLength="0/1"  name="textDropShadow"/>
             <InterpolatingParam id="1351" interp="linr"  time="0/1" value="0" leadInLength="0/1"  name="textIgnoresOpacity"/>
             <InterpolatingParam id="1352" interp="linr"  time="0/1" value="0.875" leadInLength="0/1"  name="textRectHeight"/>
             <InterpolatingParam id="1353" interp="linr"  time="0/1" value="0.90936555891238668" leadInLength="0/1"  name="textRectWidth"/>
             <InterpolatingParam id="1354" interp="linr"  time="0/1" value="0.045317220543806644" leadInLength="0/1"  name="textRectX"/>
             <InterpolatingParam id="1355" interp="linr"  time="0/1" value="0.0625" leadInLength="0/1"  name="textRectY"/>
             <InterpolatingParam id="1356" interp="linr"  time="0/1" value="0" leadInLength="0/1"  name="textVerticalAlign"/>
             <InterpolatingParam id="1357" interp="linr"  time="0/1" value="240" leadInLength="0/1"  name="width"/>
            </DoubleParameters>
            <StringParameters>
             <Parameter id="1358"  name="VectorPath">
              <Keyframes>
              <Keyframe id="1359"  time="0/1" value="M0,0h331v240H0V0z" leadInLength="0/1"  />
              </Keyframes>
             </Parameter>
             <Parameter id="1360"  name="filename">
              <Keyframes>
              <Keyframe id="1361"  time="0/1" value="D:\Media\Studio\Callouts\rectanglewithtext.xml" leadInLength="0/1"  />
              </Keyframes>
             </Parameter>
             <Parameter id="1362"  name="name">
              <Keyframes>
              <Keyframe id="1363"  time="0/1" value="Simple Rectangle" leadInLength="0/1"  />
              </Keyframes>
             </Parameter>
             <Parameter id="1364"  name="text">
              <Keyframes>
              <Keyframe id="1365"  time="0/1" value="{\rtf1\ansi\ansicpg1252\deff0\deflang1033{\fonttbl{\f0\fswiss\fprq2\fcharset0 Arial;}}&#xD;&#xa;{\colortbl ;\red0\green0\blue0;\red255\green255\blue255;}&#xD;&#xa;\viewkind4\uc1\pard\qc\cf1\f0\fs24 -------&gt;   Ethernet\par&#xD;&#xa;))))   WIFI\cf2\fs32\par&#xD;&#xa;}&#xD;&#xa;" leadInLength="0/1"  />
              </Keyframes>
             </Parameter>
             <Parameter id="1366"  name="xmlContent">
              <Keyframes>
              <Keyframe id="1367"  time="0/1" value="﻿&lt;?xml version=&quot;1.0&quot;?&gt;&#xa;&#xa;&lt;Overlay version=&quot;1.0.1&quot;&gt;&#xa;&#xa;&lt;Overlay_Filename&gt;rectanglewithtext.png&lt;/Overlay_Filename&gt;&#xa;&lt;Overlay_Name&gt;Simple Rectangle&lt;/Overlay_Name&gt;&#xa;&lt;Text_Top&gt;15&lt;/Text_Top&gt;&#xa;&lt;Text_Left&gt;15&lt;/Text_Left&gt;&#xa;&lt;Text_Bottom&gt;15&lt;/Text_Bottom&gt;&#xa;&lt;Text_Right&gt;15&lt;/Text_Right&gt;&#xa;&lt;Fill_Color&gt;1&lt;/Fill_Color&gt;&#xa;&lt;Border_Color&gt;1&lt;/Border_Color&gt;&#xa;&lt;Initial_Fill_Color&gt;0xff9b8531&lt;/Initial_Fill_Color&gt;&#xa;&lt;Initial_Border_Color&gt;0xff9b8531&lt;/Initial_Border_Color&gt;&#xa;&lt;VectorProps&gt;&#xa;&lt;figure&gt;&#xa;&lt;svg&gt;M0,0h331v240H0V0z&lt;/svg&gt;&#xa;&lt;/figure&gt;&#xa;&lt;seamY&gt;-1&lt;/seamY&gt;&#xa;&lt;shapeWidth&gt;331&lt;/shapeWidth&gt;&#xa;&lt;shapeHeight&gt;240&lt;/shapeHeight&gt;&#xa;&lt;/VectorProps&gt;&#xa;&lt;Style&gt;4&lt;/Style&gt;&#xa;&lt;UseDefaultSpec&gt;1&lt;/UseDefaultSpec&gt;   &#xa;&lt;/Overlay&gt;" leadInLength="0/1"  />
              </Keyframes>
             </Parameter>
            </StringParameters>
           </VectorNode>
          </Attribute>
         </Attributes>
         <MetaData>
          <entry key="WinSubProjectDisplayName" val=""/>
         </MetaData>
         <ExtraData>
          <Entry key="ZoomPanBin">
           <ZoomPanBin id="1368"  >
            <ZoomPanKeyframes>
             <ZoomPanKeyframe id="1369" timeRangeEnd="-9999999/1" timeRangeDuration="0/1" interpolaterName="linr"  />
            </ZoomPanKeyframes>
           </ZoomPanBin>
          </Entry>
         </ExtraData>
        </Callout>
        <Callout id="1370" start="3283" duration="60" scalar="1/1" mediaStart="2642/1" mediaDuration="60/1" >
         <Transformer>
          <VectorParam id="1371"  name="translation">
           <InterpolatingParam id="1372" interp="linr"  time="-9999999/1" value="-81.035856573652438" leadInLength="0/1"  />
           <InterpolatingParam id="1373" interp="linr"  time="-9999999/1" value="93.227091633439144" leadInLength="0/1"  />
           <InterpolatingParam id="1374" interp="linr"  time="-9999999/1" value="0" leadInLength="0/1"  />
          </VectorParam>
          <VectorParam id="1375"  name="rotation">
           <InterpolatingParam id="1376" interp="linr"  time="-9999999/1" value="0" leadInLength="0/1"  />
           <InterpolatingParam id="1377" interp="linr"  time="-9999999/1" value="0" leadInLength="0/1"  />
           <InterpolatingParam id="1378" interp="linr"  time="-9999999/1" value="0" leadInLength="0/1"  />
          </VectorParam>
          <VectorParam id="1379"  name="shear">
           <InterpolatingParam id="1380" interp="linr"  time="-9999999/1" value="0" leadInLength="0/1"  />
           <InterpolatingParam id="1381" interp="linr"  time="-9999999/1" value="0" leadInLength="0/1"  />
           <InterpolatingParam id="1382" interp="linr"  time="-9999999/1" value="0" leadInLength="0/1"  />
          </VectorParam>
          <VectorParam id="1383"  name="scale">
           <InterpolatingParam id="1384" interp="linr"  time="-9999999/1" value="0.52788844621464404" leadInLength="0/1"  />
           <InterpolatingParam id="1385" interp="linr"  time="-9999999/1" value="0.3076693249102736" leadInLength="0/1"  />
           <InterpolatingParam id="1386" interp="linr"  time="-9999999/1" value="1" leadInLength="0/1"  />
          </VectorParam>
          <VectorParam id="1387"  name="anchor">
           <InterpolatingParam id="1388" interp="linr"  time="0/1" value="0" leadInLength="0/1"  />
           <InterpolatingParam id="1389" interp="linr"  time="0/1" value="0" leadInLength="0/1"  />
           <InterpolatingParam id="1390" interp="linr"  time="0/1" value="0" leadInLength="0/1"  />
          </VectorParam>
         </Transformer>
         <Parameters>
          <VectorParam id="1391"  name="sourceCrop">
           <InterpolatingParam id="1392" interp="linr"  time="0/1" value="0" leadInLength="0/1"  />
           <InterpolatingParam id="1393" interp="linr"  time="0/1" value="0" leadInLength="0/1"  />
           <InterpolatingParam id="1394" interp="linr"  time="0/1" value="0" leadInLength="0/1"  />
           <InterpolatingParam id="1395" interp="linr"  time="0/1" value="0" leadInLength="0/1"  />
          </VectorParam>
          <VectorParam id="1396"  name="geometryCrop">
           <InterpolatingParam id="1397" interp="linr"  time="-9999999/1" value="0" leadInLength="0/1"  />
           <InterpolatingParam id="1398" interp="linr"  time="-9999999/1" value="0" leadInLength="0/1"  />
           <InterpolatingParam id="1399" interp="linr"  time="-9999999/1" value="0" leadInLength="0/1"  />
           <InterpolatingParam id="1400" interp="linr"  time="-9999999/1" value="0" leadInLength="0/1"  />
          </VectorParam>
          <InterpolatingParam id="1401" interp="linr"  time="-9999999/1" value="1" leadInLength="0/1"  name="opacity"/>
         </Parameters>
         <Attributes>
          <Attribute id="1402"  name="vectorNode">
           <VectorNode id="1403" kind="TypeWinSimple"  >
            <DoubleParameters>
             <InterpolatingParam id="1404" interp="linr"  time="0/1" value="-1" leadInLength="0/1"  name="CutoutPercentage"/>
             <InterpolatingParam id="1405" interp="linr"  time="0/1" value="-1" leadInLength="0/1"  name="RoundedRectRadius"/>
             <InterpolatingParam id="1406" interp="linr"  time="0/1" value="4" leadInLength="0/1"  name="Style"/>
             <InterpolatingParam id="1407" interp="linr"  time="0/1" value="155" leadInLength="0/1"  name="borderColorBlue"/>
             <InterpolatingParam id="1408" interp="linr"  time="0/1" value="133" leadInLength="0/1"  name="borderColorGreen"/>
             <InterpolatingParam id="1409" interp="linr"  time="0/1" value="49" leadInLength="0/1"  name="borderColorRed"/>
             <InterpolatingParam id="1410" interp="linr"  time="0/1" value="0" leadInLength="0/1"  name="borderState"/>
             <InterpolatingParam id="1411" interp="linr"  time="0/1" value="3" leadInLength="0/1"  name="borderWidth"/>
             <InterpolatingParam id="1412" interp="linr"  time="0/1" value="0" leadInLength="0/1"  name="dimensionTime"/>
             <InterpolatingParam id="1413" interp="linr"  time="0/1" value="255" leadInLength="0/1"  name="fillColorBlue"/>
             <InterpolatingParam id="1414" interp="linr"  time="0/1" value="255" leadInLength="0/1"  name="fillColorGreen"/>
             <InterpolatingParam id="1415" interp="linr"  time="0/1" value="255" leadInLength="0/1"  name="fillColorRed"/>
             <InterpolatingParam id="1416" interp="linr"  time="0/1" value="1" leadInLength="0/1"  name="fillState"/>
             <InterpolatingParam id="1417" interp="linr"  time="0/1" value="0" leadInLength="0/1"  name="flipOnXAxis"/>
             <InterpolatingParam id="1418" interp="linr"  time="0/1" value="0" leadInLength="0/1"  name="flipOnYAxis"/>
             <InterpolatingParam id="1419" interp="linr"  time="0/1" value="174.01812688821752" leadInLength="0/1"  name="height"/>
             <InterpolatingParam id="1420" interp="linr"  time="0/1" value="0" leadInLength="0/1"  name="textDropShadow"/>
             <InterpolatingParam id="1421" interp="linr"  time="0/1" value="0" leadInLength="0/1"  name="textIgnoresOpacity"/>
             <InterpolatingParam id="1422" interp="linr"  time="0/1" value="0.875" leadInLength="0/1"  name="textRectHeight"/>
             <InterpolatingParam id="1423" interp="linr"  time="0/1" value="0.90936555891238668" leadInLength="0/1"  name="textRectWidth"/>
             <InterpolatingParam id="1424" interp="linr"  time="0/1" value="0.045317220543806644" leadInLength="0/1"  name="textRectX"/>
             <InterpolatingParam id="1425" interp="linr"  time="0/1" value="0.0625" leadInLength="0/1"  name="textRectY"/>
             <InterpolatingParam id="1426" interp="linr"  time="0/1" value="0" leadInLength="0/1"  name="textVerticalAlign"/>
             <InterpolatingParam id="1427" interp="linr"  time="0/1" value="240" leadInLength="0/1"  name="width"/>
            </DoubleParameters>
            <StringParameters>
             <Parameter id="1428"  name="VectorPath">
              <Keyframes>
              <Keyframe id="1429"  time="0/1" value="M0,0h331v240H0V0z" leadInLength="0/1"  />
              </Keyframes>
             </Parameter>
             <Parameter id="1430"  name="filename">
              <Keyframes>
              <Keyframe id="1431"  time="0/1" value="D:\Media\Studio\Callouts\rectanglewithtext.xml" leadInLength="0/1"  />
              </Keyframes>
             </Parameter>
             <Parameter id="1432"  name="name">
              <Keyframes>
              <Keyframe id="1433"  time="0/1" value="Simple Rectangle" leadInLength="0/1"  />
              </Keyframes>
             </Parameter>
             <Parameter id="1434"  name="text">
              <Keyframes>
              <Keyframe id="1435"  time="0/1" value="{\rtf1\ansi\ansicpg1252\deff0\deflang1033{\fonttbl{\f0\fswiss\fprq2\fcharset0 Arial;}}&#xD;&#xa;{\colortbl ;\red0\green0\blue0;\red255\green255\blue255;}&#xD;&#xa;\viewkind4\uc1\pard\qc\cf1\f0\fs24 -------&gt;   Ethernet\par&#xD;&#xa;))))   WIFI\cf2\fs32\par&#xD;&#xa;}&#xD;&#xa;" leadInLength="0/1"  />
              </Keyframes>
             </Parameter>
             <Parameter id="1436"  name="xmlContent">
              <Keyframes>
              <Keyframe id="1437"  time="0/1" value="﻿&lt;?xml version=&quot;1.0&quot;?&gt;&#xa;&#xa;&lt;Overlay version=&quot;1.0.1&quot;&gt;&#xa;&#xa;&lt;Overlay_Filename&gt;rectanglewithtext.png&lt;/Overlay_Filename&gt;&#xa;&lt;Overlay_Name&gt;Simple Rectangle&lt;/Overlay_Name&gt;&#xa;&lt;Text_Top&gt;15&lt;/Text_Top&gt;&#xa;&lt;Text_Left&gt;15&lt;/Text_Left&gt;&#xa;&lt;Text_Bottom&gt;15&lt;/Text_Bottom&gt;&#xa;&lt;Text_Right&gt;15&lt;/Text_Right&gt;&#xa;&lt;Fill_Color&gt;1&lt;/Fill_Color&gt;&#xa;&lt;Border_Color&gt;1&lt;/Border_Color&gt;&#xa;&lt;Initial_Fill_Color&gt;0xff9b8531&lt;/Initial_Fill_Color&gt;&#xa;&lt;Initial_Border_Color&gt;0xff9b8531&lt;/Initial_Border_Color&gt;&#xa;&lt;VectorProps&gt;&#xa;&lt;figure&gt;&#xa;&lt;svg&gt;M0,0h331v240H0V0z&lt;/svg&gt;&#xa;&lt;/figure&gt;&#xa;&lt;seamY&gt;-1&lt;/seamY&gt;&#xa;&lt;shapeWidth&gt;331&lt;/shapeWidth&gt;&#xa;&lt;shapeHeight&gt;240&lt;/shapeHeight&gt;&#xa;&lt;/VectorProps&gt;&#xa;&lt;Style&gt;4&lt;/Style&gt;&#xa;&lt;UseDefaultSpec&gt;1&lt;/UseDefaultSpec&gt;   &#xa;&lt;/Overlay&gt;" leadInLength="0/1"  />
              </Keyframes>
             </Parameter>
            </StringParameters>
           </VectorNode>
          </Attribute>
         </Attributes>
         <MetaData>
          <entry key="WinSubProjectDisplayName" val=""/>
         </MetaData>
         <ExtraData>
          <Entry key="ZoomPanBin">
           <ZoomPanBin id="1438"  >
            <ZoomPanKeyframes>
             <ZoomPanKeyframe id="1439" timeRangeEnd="-9999999/1" timeRangeDuration="0/1" interpolaterName="linr"  />
            </ZoomPanKeyframes>
           </ZoomPanBin>
          </Entry>
         </ExtraData>
        </Callout>
        <Callout id="1440" start="3343" duration="48" scalar="1/1" mediaStart="2717/1" mediaDuration="48/1" >
         <Transformer>
          <VectorParam id="1441"  name="translation">
           <InterpolatingParam id="1442" interp="linr"  time="-9999999/1" value="-81.035856573652438" leadInLength="0/1"  />
           <InterpolatingParam id="1443" interp="linr"  time="-9999999/1" value="93.227091633439144" leadInLength="0/1"  />
           <InterpolatingParam id="1444" interp="linr"  time="-9999999/1" value="0" leadInLength="0/1"  />
          </VectorParam>
          <VectorParam id="1445"  name="rotation">
           <InterpolatingParam id="1446" interp="linr"  time="-9999999/1" value="0" leadInLength="0/1"  />
           <InterpolatingParam id="1447" interp="linr"  time="-9999999/1" value="0" leadInLength="0/1"  />
           <InterpolatingParam id="1448" interp="linr"  time="-9999999/1" value="0" leadInLength="0/1"  />
          </VectorParam>
          <VectorParam id="1449"  name="shear">
           <InterpolatingParam id="1450" interp="linr"  time="-9999999/1" value="0" leadInLength="0/1"  />
           <InterpolatingParam id="1451" interp="linr"  time="-9999999/1" value="0" leadInLength="0/1"  />
           <InterpolatingParam id="1452" interp="linr"  time="-9999999/1" value="0" leadInLength="0/1"  />
          </VectorParam>
          <VectorParam id="1453"  name="scale">
           <InterpolatingParam id="1454" interp="linr"  time="-9999999/1" value="0.52788844621464404" leadInLength="0/1"  />
           <InterpolatingParam id="1455" interp="linr"  time="-9999999/1" value="0.3076693249102736" leadInLength="0/1"  />
           <InterpolatingParam id="1456" interp="linr"  time="-9999999/1" value="1" leadInLength="0/1"  />
          </VectorParam>
          <VectorParam id="1457"  name="anchor">
           <InterpolatingParam id="1458" interp="linr"  time="0/1" value="0" leadInLength="0/1"  />
           <InterpolatingParam id="1459" interp="linr"  time="0/1" value="0" leadInLength="0/1"  />
           <InterpolatingParam id="1460" interp="linr"  time="0/1" value="0" leadInLength="0/1"  />
          </VectorParam>
         </Transformer>
         <Parameters>
          <VectorParam id="1461"  name="sourceCrop">
           <InterpolatingParam id="1462" interp="linr"  time="0/1" value="0" leadInLength="0/1"  />
           <InterpolatingParam id="1463" interp="linr"  time="0/1" value="0" leadInLength="0/1"  />
           <InterpolatingParam id="1464" interp="linr"  time="0/1" value="0" leadInLength="0/1"  />
           <InterpolatingParam id="1465" interp="linr"  time="0/1" value="0" leadInLength="0/1"  />
          </VectorParam>
          <VectorParam id="1466"  name="geometryCrop">
           <InterpolatingParam id="1467" interp="linr"  time="-9999999/1" value="0" leadInLength="0/1"  />
           <InterpolatingParam id="1468" interp="linr"  time="-9999999/1" value="0" leadInLength="0/1"  />
           <InterpolatingParam id="1469" interp="linr"  time="-9999999/1" value="0" leadInLength="0/1"  />
           <InterpolatingParam id="1470" interp="linr"  time="-9999999/1" value="0" leadInLength="0/1"  />
          </VectorParam>
          <InterpolatingParam id="1471" interp="linr"  time="-9999999/1" value="1" leadInLength="0/1"  name="opacity"/>
         </Parameters>
         <Attributes>
          <Attribute id="1472"  name="vectorNode">
           <VectorNode id="1473" kind="TypeWinSimple"  >
            <DoubleParameters>
             <InterpolatingParam id="1474" interp="linr"  time="0/1" value="-1" leadInLength="0/1"  name="CutoutPercentage"/>
             <InterpolatingParam id="1475" interp="linr"  time="0/1" value="-1" leadInLength="0/1"  name="RoundedRectRadius"/>
             <InterpolatingParam id="1476" interp="linr"  time="0/1" value="4" leadInLength="0/1"  name="Style"/>
             <InterpolatingParam id="1477" interp="linr"  time="0/1" value="155" leadInLength="0/1"  name="borderColorBlue"/>
             <InterpolatingParam id="1478" interp="linr"  time="0/1" value="133" leadInLength="0/1"  name="borderColorGreen"/>
             <InterpolatingParam id="1479" interp="linr"  time="0/1" value="49" leadInLength="0/1"  name="borderColorRed"/>
             <InterpolatingParam id="1480" interp="linr"  time="0/1" value="0" leadInLength="0/1"  name="borderState"/>
             <InterpolatingParam id="1481" interp="linr"  time="0/1" value="3" leadInLength="0/1"  name="borderWidth"/>
             <InterpolatingParam id="1482" interp="linr"  time="0/1" value="0" leadInLength="0/1"  name="dimensionTime"/>
             <InterpolatingParam id="1483" interp="linr"  time="0/1" value="255" leadInLength="0/1"  name="fillColorBlue"/>
             <InterpolatingParam id="1484" interp="linr"  time="0/1" value="255" leadInLength="0/1"  name="fillColorGreen"/>
             <InterpolatingParam id="1485" interp="linr"  time="0/1" value="255" leadInLength="0/1"  name="fillColorRed"/>
             <InterpolatingParam id="1486" interp="linr"  time="0/1" value="1" leadInLength="0/1"  name="fillState"/>
             <InterpolatingParam id="1487" interp="linr"  time="0/1" value="0" leadInLength="0/1"  name="flipOnXAxis"/>
             <InterpolatingParam id="1488" interp="linr"  time="0/1" value="0" leadInLength="0/1"  name="flipOnYAxis"/>
             <InterpolatingParam id="1489" interp="linr"  time="0/1" value="174.01812688821752" leadInLength="0/1"  name="height"/>
             <InterpolatingParam id="1490" interp="linr"  time="0/1" value="0" leadInLength="0/1"  name="textDropShadow"/>
             <InterpolatingParam id="1491" interp="linr"  time="0/1" value="0" leadInLength="0/1"  name="textIgnoresOpacity"/>
             <InterpolatingParam id="1492" interp="linr"  time="0/1" value="0.875" leadInLength="0/1"  name="textRectHeight"/>
             <InterpolatingParam id="1493" interp="linr"  time="0/1" value="0.90936555891238668" leadInLength="0/1"  name="textRectWidth"/>
             <InterpolatingParam id="1494" interp="linr"  time="0/1" value="0.045317220543806644" leadInLength="0/1"  name="textRectX"/>
             <InterpolatingParam id="1495" interp="linr"  time="0/1" value="0.0625" leadInLength="0/1"  name="textRectY"/>
             <InterpolatingParam id="1496" interp="linr"  time="0/1" value="0" leadInLength="0/1"  name="textVerticalAlign"/>
             <InterpolatingParam id="1497" interp="linr"  time="0/1" value="240" leadInLength="0/1"  name="width"/>
            </DoubleParameters>
            <StringParameters>
             <Parameter id="1498"  name="VectorPath">
              <Keyframes>
              <Keyframe id="1499"  time="0/1" value="M0,0h331v240H0V0z" leadInLength="0/1"  />
              </Keyframes>
             </Parameter>
             <Parameter id="1500"  name="filename">
              <Keyframes>
              <Keyframe id="1501"  time="0/1" value="D:\Media\Studio\Callouts\rectanglewithtext.xml" leadInLength="0/1"  />
              </Keyframes>
             </Parameter>
             <Parameter id="1502"  name="name">
              <Keyframes>
              <Keyframe id="1503"  time="0/1" value="Simple Rectangle" leadInLength="0/1"  />
              </Keyframes>
             </Parameter>
             <Parameter id="1504"  name="text">
              <Keyframes>
              <Keyframe id="1505"  time="0/1" value="{\rtf1\ansi\ansicpg1252\deff0\deflang1033{\fonttbl{\f0\fswiss\fprq2\fcharset0 Arial;}}&#xD;&#xa;{\colortbl ;\red0\green0\blue0;\red255\green255\blue255;}&#xD;&#xa;\viewkind4\uc1\pard\qc\cf1\f0\fs24 -------&gt;   Ethernet\par&#xD;&#xa;))))   WIFI\cf2\fs32\par&#xD;&#xa;}&#xD;&#xa;" leadInLength="0/1"  />
              </Keyframes>
             </Parameter>
             <Parameter id="1506"  name="xmlContent">
              <Keyframes>
              <Keyframe id="1507"  time="0/1" value="﻿&lt;?xml version=&quot;1.0&quot;?&gt;&#xa;&#xa;&lt;Overlay version=&quot;1.0.1&quot;&gt;&#xa;&#xa;&lt;Overlay_Filename&gt;rectanglewithtext.png&lt;/Overlay_Filename&gt;&#xa;&lt;Overlay_Name&gt;Simple Rectangle&lt;/Overlay_Name&gt;&#xa;&lt;Text_Top&gt;15&lt;/Text_Top&gt;&#xa;&lt;Text_Left&gt;15&lt;/Text_Left&gt;&#xa;&lt;Text_Bottom&gt;15&lt;/Text_Bottom&gt;&#xa;&lt;Text_Right&gt;15&lt;/Text_Right&gt;&#xa;&lt;Fill_Color&gt;1&lt;/Fill_Color&gt;&#xa;&lt;Border_Color&gt;1&lt;/Border_Color&gt;&#xa;&lt;Initial_Fill_Color&gt;0xff9b8531&lt;/Initial_Fill_Color&gt;&#xa;&lt;Initial_Border_Color&gt;0xff9b8531&lt;/Initial_Border_Color&gt;&#xa;&lt;VectorProps&gt;&#xa;&lt;figure&gt;&#xa;&lt;svg&gt;M0,0h331v240H0V0z&lt;/svg&gt;&#xa;&lt;/figure&gt;&#xa;&lt;seamY&gt;-1&lt;/seamY&gt;&#xa;&lt;shapeWidth&gt;331&lt;/shapeWidth&gt;&#xa;&lt;shapeHeight&gt;240&lt;/shapeHeight&gt;&#xa;&lt;/VectorProps&gt;&#xa;&lt;Style&gt;4&lt;/Style&gt;&#xa;&lt;UseDefaultSpec&gt;1&lt;/UseDefaultSpec&gt;   &#xa;&lt;/Overlay&gt;" leadInLength="0/1"  />
              </Keyframes>
             </Parameter>
            </StringParameters>
           </VectorNode>
          </Attribute>
         </Attributes>
         <MetaData>
          <entry key="WinSubProjectDisplayName" val=""/>
         </MetaData>
         <ExtraData>
          <Entry key="ZoomPanBin">
           <ZoomPanBin id="1508"  >
            <ZoomPanKeyframes>
             <ZoomPanKeyframe id="1509" timeRangeEnd="-9999999/1" timeRangeDuration="0/1" interpolaterName="linr"  />
            </ZoomPanKeyframes>
           </ZoomPanBin>
          </Entry>
         </ExtraData>
        </Callout>
        <Callout id="1510" start="3391" duration="277" scalar="1/1" mediaStart="3120/1" mediaDuration="277/1" >
         <Transformer>
          <VectorParam id="1511"  name="translation">
           <InterpolatingParam id="1512" interp="linr"  time="-9999999/1" value="-81.035856573652438" leadInLength="0/1"  />
           <InterpolatingParam id="1513" interp="linr"  time="-9999999/1" value="93.227091633439144" leadInLength="0/1"  />
           <InterpolatingParam id="1514" interp="linr"  time="-9999999/1" value="0" leadInLength="0/1"  />
          </VectorParam>
          <VectorParam id="1515"  name="rotation">
           <InterpolatingParam id="1516" interp="linr"  time="-9999999/1" value="0" leadInLength="0/1"  />
           <InterpolatingParam id="1517" interp="linr"  time="-9999999/1" value="0" leadInLength="0/1"  />
           <InterpolatingParam id="1518" interp="linr"  time="-9999999/1" value="0" leadInLength="0/1"  />
          </VectorParam>
          <VectorParam id="1519"  name="shear">
           <InterpolatingParam id="1520" interp="linr"  time="-9999999/1" value="0" leadInLength="0/1"  />
           <InterpolatingParam id="1521" interp="linr"  time="-9999999/1" value="0" leadInLength="0/1"  />
           <InterpolatingParam id="1522" interp="linr"  time="-9999999/1" value="0" leadInLength="0/1"  />
          </VectorParam>
          <VectorParam id="1523"  name="scale">
           <InterpolatingParam id="1524" interp="linr"  time="-9999999/1" value="0.52788844621464404" leadInLength="0/1"  />
           <InterpolatingParam id="1525" interp="linr"  time="-9999999/1" value="0.3076693249102736" leadInLength="0/1"  />
           <InterpolatingParam id="1526" interp="linr"  time="-9999999/1" value="1" leadInLength="0/1"  />
          </VectorParam>
          <VectorParam id="1527"  name="anchor">
           <InterpolatingParam id="1528" interp="linr"  time="0/1" value="0" leadInLength="0/1"  />
           <InterpolatingParam id="1529" interp="linr"  time="0/1" value="0" leadInLength="0/1"  />
           <InterpolatingParam id="1530" interp="linr"  time="0/1" value="0" leadInLength="0/1"  />
          </VectorParam>
         </Transformer>
         <Parameters>
          <VectorParam id="1531"  name="sourceCrop">
           <InterpolatingParam id="1532" interp="linr"  time="0/1" value="0" leadInLength="0/1"  />
           <InterpolatingParam id="1533" interp="linr"  time="0/1" value="0" leadInLength="0/1"  />
           <InterpolatingParam id="1534" interp="linr"  time="0/1" value="0" leadInLength="0/1"  />
           <InterpolatingParam id="1535" interp="linr"  time="0/1" value="0" leadInLength="0/1"  />
          </VectorParam>
          <VectorParam id="1536"  name="geometryCrop">
           <InterpolatingParam id="1537" interp="linr"  time="-9999999/1" value="0" leadInLength="0/1"  />
           <InterpolatingParam id="1538" interp="linr"  time="-9999999/1" value="0" leadInLength="0/1"  />
           <InterpolatingParam id="1539" interp="linr"  time="-9999999/1" value="0" leadInLength="0/1"  />
           <InterpolatingParam id="1540" interp="linr"  time="-9999999/1" value="0" leadInLength="0/1"  />
          </VectorParam>
          <InterpolatingParam id="1541" interp="linr"  time="-9999999/1" value="1" leadInLength="0/1"  name="opacity"/>
         </Parameters>
         <Attributes>
          <Attribute id="1542"  name="vectorNode">
           <VectorNode id="1543" kind="TypeWinSimple"  >
            <DoubleParameters>
             <InterpolatingParam id="1544" interp="linr"  time="0/1" value="-1" leadInLength="0/1"  name="CutoutPercentage"/>
             <InterpolatingParam id="1545" interp="linr"  time="0/1" value="-1" leadInLength="0/1"  name="RoundedRectRadius"/>
             <InterpolatingParam id="1546" interp="linr"  time="0/1" value="4" leadInLength="0/1"  name="Style"/>
             <InterpolatingParam id="1547" interp="linr"  time="0/1" value="155" leadInLength="0/1"  name="borderColorBlue"/>
             <InterpolatingParam id="1548" interp="linr"  time="0/1" value="133" leadInLength="0/1"  name="borderColorGreen"/>
             <InterpolatingParam id="1549" interp="linr"  time="0/1" value="49" leadInLength="0/1"  name="borderColorRed"/>
             <InterpolatingParam id="1550" interp="linr"  time="0/1" value="0" leadInLength="0/1"  name="borderState"/>
             <InterpolatingParam id="1551" interp="linr"  time="0/1" value="3" leadInLength="0/1"  name="borderWidth"/>
             <InterpolatingParam id="1552" interp="linr"  time="0/1" value="0" leadInLength="0/1"  name="dimensionTime"/>
             <InterpolatingParam id="1553" interp="linr"  time="0/1" value="255" leadInLength="0/1"  name="fillColorBlue"/>
             <InterpolatingParam id="1554" interp="linr"  time="0/1" value="255" leadInLength="0/1"  name="fillColorGreen"/>
             <InterpolatingParam id="1555" interp="linr"  time="0/1" value="255" leadInLength="0/1"  name="fillColorRed"/>
             <InterpolatingParam id="1556" interp="linr"  time="0/1" value="1" leadInLength="0/1"  name="fillState"/>
             <InterpolatingParam id="1557" interp="linr"  time="0/1" value="0" leadInLength="0/1"  name="flipOnXAxis"/>
             <InterpolatingParam id="1558" interp="linr"  time="0/1" value="0" leadInLength="0/1"  name="flipOnYAxis"/>
             <InterpolatingParam id="1559" interp="linr"  time="0/1" value="174.01812688821752" leadInLength="0/1"  name="height"/>
             <InterpolatingParam id="1560" interp="linr"  time="0/1" value="0" leadInLength="0/1"  name="textDropShadow"/>
             <InterpolatingParam id="1561" interp="linr"  time="0/1" value="0" leadInLength="0/1"  name="textIgnoresOpacity"/>
             <InterpolatingParam id="1562" interp="linr"  time="0/1" value="0.875" leadInLength="0/1"  name="textRectHeight"/>
             <InterpolatingParam id="1563" interp="linr"  time="0/1" value="0.90936555891238668" leadInLength="0/1"  name="textRectWidth"/>
             <InterpolatingParam id="1564" interp="linr"  time="0/1" value="0.045317220543806644" leadInLength="0/1"  name="textRectX"/>
             <InterpolatingParam id="1565" interp="linr"  time="0/1" value="0.0625" leadInLength="0/1"  name="textRectY"/>
             <InterpolatingParam id="1566" interp="linr"  time="0/1" value="0" leadInLength="0/1"  name="textVerticalAlign"/>
             <InterpolatingParam id="1567" interp="linr"  time="0/1" value="240" leadInLength="0/1"  name="width"/>
            </DoubleParameters>
            <StringParameters>
             <Parameter id="1568"  name="VectorPath">
              <Keyframes>
              <Keyframe id="1569"  time="0/1" value="M0,0h331v240H0V0z" leadInLength="0/1"  />
              </Keyframes>
             </Parameter>
             <Parameter id="1570"  name="filename">
              <Keyframes>
              <Keyframe id="1571"  time="0/1" value="D:\Media\Studio\Callouts\rectanglewithtext.xml" leadInLength="0/1"  />
              </Keyframes>
             </Parameter>
             <Parameter id="1572"  name="name">
              <Keyframes>
              <Keyframe id="1573"  time="0/1" value="Simple Rectangle" leadInLength="0/1"  />
              </Keyframes>
             </Parameter>
             <Parameter id="1574"  name="text">
              <Keyframes>
              <Keyframe id="1575"  time="0/1" value="{\rtf1\ansi\ansicpg1252\deff0\deflang1033{\fonttbl{\f0\fswiss\fprq2\fcharset0 Arial;}}&#xD;&#xa;{\colortbl ;\red0\green0\blue0;\red255\green255\blue255;}&#xD;&#xa;\viewkind4\uc1\pard\qc\cf1\f0\fs24 -------&gt;   Ethernet\par&#xD;&#xa;))))   WIFI\cf2\fs32\par&#xD;&#xa;}&#xD;&#xa;" leadInLength="0/1"  />
              </Keyframes>
             </Parameter>
             <Parameter id="1576"  name="xmlContent">
              <Keyframes>
              <Keyframe id="1577"  time="0/1" value="﻿&lt;?xml version=&quot;1.0&quot;?&gt;&#xa;&#xa;&lt;Overlay version=&quot;1.0.1&quot;&gt;&#xa;&#xa;&lt;Overlay_Filename&gt;rectanglewithtext.png&lt;/Overlay_Filename&gt;&#xa;&lt;Overlay_Name&gt;Simple Rectangle&lt;/Overlay_Name&gt;&#xa;&lt;Text_Top&gt;15&lt;/Text_Top&gt;&#xa;&lt;Text_Left&gt;15&lt;/Text_Left&gt;&#xa;&lt;Text_Bottom&gt;15&lt;/Text_Bottom&gt;&#xa;&lt;Text_Right&gt;15&lt;/Text_Right&gt;&#xa;&lt;Fill_Color&gt;1&lt;/Fill_Color&gt;&#xa;&lt;Border_Color&gt;1&lt;/Border_Color&gt;&#xa;&lt;Initial_Fill_Color&gt;0xff9b8531&lt;/Initial_Fill_Color&gt;&#xa;&lt;Initial_Border_Color&gt;0xff9b8531&lt;/Initial_Border_Color&gt;&#xa;&lt;VectorProps&gt;&#xa;&lt;figure&gt;&#xa;&lt;svg&gt;M0,0h331v240H0V0z&lt;/svg&gt;&#xa;&lt;/figure&gt;&#xa;&lt;seamY&gt;-1&lt;/seamY&gt;&#xa;&lt;shapeWidth&gt;331&lt;/shapeWidth&gt;&#xa;&lt;shapeHeight&gt;240&lt;/shapeHeight&gt;&#xa;&lt;/VectorProps&gt;&#xa;&lt;Style&gt;4&lt;/Style&gt;&#xa;&lt;UseDefaultSpec&gt;1&lt;/UseDefaultSpec&gt;   &#xa;&lt;/Overlay&gt;" leadInLength="0/1"  />
              </Keyframes>
             </Parameter>
            </StringParameters>
           </VectorNode>
          </Attribute>
         </Attributes>
         <MetaData>
          <entry key="WinSubProjectDisplayName" val=""/>
         </MetaData>
         <ExtraData>
          <Entry key="ZoomPanBin">
           <ZoomPanBin id="1578"  >
            <ZoomPanKeyframes>
             <ZoomPanKeyframe id="1579" timeRangeEnd="-9999999/1" timeRangeDuration="0/1" interpolaterName="linr"  />
            </ZoomPanKeyframes>
           </ZoomPanBin>
          </Entry>
         </ExtraData>
        </Callout>
        <Callout id="1580" start="3668" duration="52" scalar="1/1" mediaStart="3418/1" mediaDuration="52/1" >
         <Transformer>
          <VectorParam id="1581"  name="translation">
           <InterpolatingParam id="1582" interp="linr"  time="-9999999/1" value="-81.035856573652438" leadInLength="0/1"  />
           <InterpolatingParam id="1583" interp="linr"  time="-9999999/1" value="93.227091633439144" leadInLength="0/1"  />
           <InterpolatingParam id="1584" interp="linr"  time="-9999999/1" value="0" leadInLength="0/1"  />
          </VectorParam>
          <VectorParam id="1585"  name="rotation">
           <InterpolatingParam id="1586" interp="linr"  time="-9999999/1" value="0" leadInLength="0/1"  />
           <InterpolatingParam id="1587" interp="linr"  time="-9999999/1" value="0" leadInLength="0/1"  />
           <InterpolatingParam id="1588" interp="linr"  time="-9999999/1" value="0" leadInLength="0/1"  />
          </VectorParam>
          <VectorParam id="1589"  name="shear">
           <InterpolatingParam id="1590" interp="linr"  time="-9999999/1" value="0" leadInLength="0/1"  />
           <InterpolatingParam id="1591" interp="linr"  time="-9999999/1" value="0" leadInLength="0/1"  />
           <InterpolatingParam id="1592" interp="linr"  time="-9999999/1" value="0" leadInLength="0/1"  />
          </VectorParam>
          <VectorParam id="1593"  name="scale">
           <InterpolatingParam id="1594" interp="linr"  time="-9999999/1" value="0.52788844621464404" leadInLength="0/1"  />
           <InterpolatingParam id="1595" interp="linr"  time="-9999999/1" value="0.3076693249102736" leadInLength="0/1"  />
           <InterpolatingParam id="1596" interp="linr"  time="-9999999/1" value="1" leadInLength="0/1"  />
          </VectorParam>
          <VectorParam id="1597"  name="anchor">
           <InterpolatingParam id="1598" interp="linr"  time="0/1" value="0" leadInLength="0/1"  />
           <InterpolatingParam id="1599" interp="linr"  time="0/1" value="0" leadInLength="0/1"  />
           <InterpolatingParam id="1600" interp="linr"  time="0/1" value="0" leadInLength="0/1"  />
          </VectorParam>
         </Transformer>
         <Parameters>
          <VectorParam id="1601"  name="sourceCrop">
           <InterpolatingParam id="1602" interp="linr"  time="0/1" value="0" leadInLength="0/1"  />
           <InterpolatingParam id="1603" interp="linr"  time="0/1" value="0" leadInLength="0/1"  />
           <InterpolatingParam id="1604" interp="linr"  time="0/1" value="0" leadInLength="0/1"  />
           <InterpolatingParam id="1605" interp="linr"  time="0/1" value="0" leadInLength="0/1"  />
          </VectorParam>
          <VectorParam id="1606"  name="geometryCrop">
           <InterpolatingParam id="1607" interp="linr"  time="-9999999/1" value="0" leadInLength="0/1"  />
           <InterpolatingParam id="1608" interp="linr"  time="-9999999/1" value="0" leadInLength="0/1"  />
           <InterpolatingParam id="1609" interp="linr"  time="-9999999/1" value="0" leadInLength="0/1"  />
           <InterpolatingParam id="1610" interp="linr"  time="-9999999/1" value="0" leadInLength="0/1"  />
          </VectorParam>
          <InterpolatingParam id="1611" interp="linr"  time="-9999999/1" value="1" leadInLength="0/1"  name="opacity"/>
         </Parameters>
         <Attributes>
          <Attribute id="1612"  name="vectorNode">
           <VectorNode id="1613" kind="TypeWinSimple"  >
            <DoubleParameters>
             <InterpolatingParam id="1614" interp="linr"  time="0/1" value="-1" leadInLength="0/1"  name="CutoutPercentage"/>
             <InterpolatingParam id="1615" interp="linr"  time="0/1" value="-1" leadInLength="0/1"  name="RoundedRectRadius"/>
             <InterpolatingParam id="1616" interp="linr"  time="0/1" value="4" leadInLength="0/1"  name="Style"/>
             <InterpolatingParam id="1617" interp="linr"  time="0/1" value="155" leadInLength="0/1"  name="borderColorBlue"/>
             <InterpolatingParam id="1618" interp="linr"  time="0/1" value="133" leadInLength="0/1"  name="borderColorGreen"/>
             <InterpolatingParam id="1619" interp="linr"  time="0/1" value="49" leadInLength="0/1"  name="borderColorRed"/>
             <InterpolatingParam id="1620" interp="linr"  time="0/1" value="0" leadInLength="0/1"  name="borderState"/>
             <InterpolatingParam id="1621" interp="linr"  time="0/1" value="3" leadInLength="0/1"  name="borderWidth"/>
             <InterpolatingParam id="1622" interp="linr"  time="0/1" value="0" leadInLength="0/1"  name="dimensionTime"/>
             <InterpolatingParam id="1623" interp="linr"  time="0/1" value="255" leadInLength="0/1"  name="fillColorBlue"/>
             <InterpolatingParam id="1624" interp="linr"  time="0/1" value="255" leadInLength="0/1"  name="fillColorGreen"/>
             <InterpolatingParam id="1625" interp="linr"  time="0/1" value="255" leadInLength="0/1"  name="fillColorRed"/>
             <InterpolatingParam id="1626" interp="linr"  time="0/1" value="1" leadInLength="0/1"  name="fillState"/>
             <InterpolatingParam id="1627" interp="linr"  time="0/1" value="0" leadInLength="0/1"  name="flipOnXAxis"/>
             <InterpolatingParam id="1628" interp="linr"  time="0/1" value="0" leadInLength="0/1"  name="flipOnYAxis"/>
             <InterpolatingParam id="1629" interp="linr"  time="0/1" value="174.01812688821752" leadInLength="0/1"  name="height"/>
             <InterpolatingParam id="1630" interp="linr"  time="0/1" value="0" leadInLength="0/1"  name="textDropShadow"/>
             <InterpolatingParam id="1631" interp="linr"  time="0/1" value="0" leadInLength="0/1"  name="textIgnoresOpacity"/>
             <InterpolatingParam id="1632" interp="linr"  time="0/1" value="0.875" leadInLength="0/1"  name="textRectHeight"/>
             <InterpolatingParam id="1633" interp="linr"  time="0/1" value="0.90936555891238668" leadInLength="0/1"  name="textRectWidth"/>
             <InterpolatingParam id="1634" interp="linr"  time="0/1" value="0.045317220543806644" leadInLength="0/1"  name="textRectX"/>
             <InterpolatingParam id="1635" interp="linr"  time="0/1" value="0.0625" leadInLength="0/1"  name="textRectY"/>
             <InterpolatingParam id="1636" interp="linr"  time="0/1" value="0" leadInLength="0/1"  name="textVerticalAlign"/>
             <InterpolatingParam id="1637" interp="linr"  time="0/1" value="240" leadInLength="0/1"  name="width"/>
            </DoubleParameters>
            <StringParameters>
             <Parameter id="1638"  name="VectorPath">
              <Keyframes>
              <Keyframe id="1639"  time="0/1" value="M0,0h331v240H0V0z" leadInLength="0/1"  />
              </Keyframes>
             </Parameter>
             <Parameter id="1640"  name="filename">
              <Keyframes>
              <Keyframe id="1641"  time="0/1" value="D:\Media\Studio\Callouts\rectanglewithtext.xml" leadInLength="0/1"  />
              </Keyframes>
             </Parameter>
             <Parameter id="1642"  name="name">
              <Keyframes>
              <Keyframe id="1643"  time="0/1" value="Simple Rectangle" leadInLength="0/1"  />
              </Keyframes>
             </Parameter>
             <Parameter id="1644"  name="text">
              <Keyframes>
              <Keyframe id="1645"  time="0/1" value="{\rtf1\ansi\ansicpg1252\deff0\deflang1033{\fonttbl{\f0\fswiss\fprq2\fcharset0 Arial;}}&#xD;&#xa;{\colortbl ;\red0\green0\blue0;\red255\green255\blue255;}&#xD;&#xa;\viewkind4\uc1\pard\qc\cf1\f0\fs24 -------&gt;   Ethernet\par&#xD;&#xa;))))   WIFI\cf2\fs32\par&#xD;&#xa;}&#xD;&#xa;" leadInLength="0/1"  />
              </Keyframes>
             </Parameter>
             <Parameter id="1646"  name="xmlContent">
              <Keyframes>
              <Keyframe id="1647"  time="0/1" value="﻿&lt;?xml version=&quot;1.0&quot;?&gt;&#xa;&#xa;&lt;Overlay version=&quot;1.0.1&quot;&gt;&#xa;&#xa;&lt;Overlay_Filename&gt;rectanglewithtext.png&lt;/Overlay_Filename&gt;&#xa;&lt;Overlay_Name&gt;Simple Rectangle&lt;/Overlay_Name&gt;&#xa;&lt;Text_Top&gt;15&lt;/Text_Top&gt;&#xa;&lt;Text_Left&gt;15&lt;/Text_Left&gt;&#xa;&lt;Text_Bottom&gt;15&lt;/Text_Bottom&gt;&#xa;&lt;Text_Right&gt;15&lt;/Text_Right&gt;&#xa;&lt;Fill_Color&gt;1&lt;/Fill_Color&gt;&#xa;&lt;Border_Color&gt;1&lt;/Border_Color&gt;&#xa;&lt;Initial_Fill_Color&gt;0xff9b8531&lt;/Initial_Fill_Color&gt;&#xa;&lt;Initial_Border_Color&gt;0xff9b8531&lt;/Initial_Border_Color&gt;&#xa;&lt;VectorProps&gt;&#xa;&lt;figure&gt;&#xa;&lt;svg&gt;M0,0h331v240H0V0z&lt;/svg&gt;&#xa;&lt;/figure&gt;&#xa;&lt;seamY&gt;-1&lt;/seamY&gt;&#xa;&lt;shapeWidth&gt;331&lt;/shapeWidth&gt;&#xa;&lt;shapeHeight&gt;240&lt;/shapeHeight&gt;&#xa;&lt;/VectorProps&gt;&#xa;&lt;Style&gt;4&lt;/Style&gt;&#xa;&lt;UseDefaultSpec&gt;1&lt;/UseDefaultSpec&gt;   &#xa;&lt;/Overlay&gt;" leadInLength="0/1"  />
              </Keyframes>
             </Parameter>
            </StringParameters>
           </VectorNode>
          </Attribute>
         </Attributes>
         <MetaData>
          <entry key="WinSubProjectDisplayName" val=""/>
         </MetaData>
         <ExtraData>
          <Entry key="ZoomPanBin">
           <ZoomPanBin id="1648"  >
            <ZoomPanKeyframes>
             <ZoomPanKeyframe id="1649" timeRangeEnd="-9999999/1" timeRangeDuration="0/1" interpolaterName="linr"  />
            </ZoomPanKeyframes>
           </ZoomPanBin>
          </Entry>
         </ExtraData>
        </Callout>
        <Callout id="1650" start="3720" duration="307" scalar="1/1" mediaStart="3483/1" mediaDuration="307/1" >
         <Transformer>
          <VectorParam id="1651"  name="translation">
           <InterpolatingParam id="1652" interp="linr"  time="-9999999/1" value="-81.035856573652438" leadInLength="0/1"  />
           <InterpolatingParam id="1653" interp="linr"  time="-9999999/1" value="93.227091633439144" leadInLength="0/1"  />
           <InterpolatingParam id="1654" interp="linr"  time="-9999999/1" value="0" leadInLength="0/1"  />
          </VectorParam>
          <VectorParam id="1655"  name="rotation">
           <InterpolatingParam id="1656" interp="linr"  time="-9999999/1" value="0" leadInLength="0/1"  />
           <InterpolatingParam id="1657" interp="linr"  time="-9999999/1" value="0" leadInLength="0/1"  />
           <InterpolatingParam id="1658" interp="linr"  time="-9999999/1" value="0" leadInLength="0/1"  />
          </VectorParam>
          <VectorParam id="1659"  name="shear">
           <InterpolatingParam id="1660" interp="linr"  time="-9999999/1" value="0" leadInLength="0/1"  />
           <InterpolatingParam id="1661" interp="linr"  time="-9999999/1" value="0" leadInLength="0/1"  />
           <InterpolatingParam id="1662" interp="linr"  time="-9999999/1" value="0" leadInLength="0/1"  />
          </VectorParam>
          <VectorParam id="1663"  name="scale">
           <InterpolatingParam id="1664" interp="linr"  time="-9999999/1" value="0.52788844621464404" leadInLength="0/1"  />
           <InterpolatingParam id="1665" interp="linr"  time="-9999999/1" value="0.3076693249102736" leadInLength="0/1"  />
           <InterpolatingParam id="1666" interp="linr"  time="-9999999/1" value="1" leadInLength="0/1"  />
          </VectorParam>
          <VectorParam id="1667"  name="anchor">
           <InterpolatingParam id="1668" interp="linr"  time="0/1" value="0" leadInLength="0/1"  />
           <InterpolatingParam id="1669" interp="linr"  time="0/1" value="0" leadInLength="0/1"  />
           <InterpolatingParam id="1670" interp="linr"  time="0/1" value="0" leadInLength="0/1"  />
          </VectorParam>
         </Transformer>
         <Parameters>
          <VectorParam id="1671"  name="sourceCrop">
           <InterpolatingParam id="1672" interp="linr"  time="0/1" value="0" leadInLength="0/1"  />
           <InterpolatingParam id="1673" interp="linr"  time="0/1" value="0" leadInLength="0/1"  />
           <InterpolatingParam id="1674" interp="linr"  time="0/1" value="0" leadInLength="0/1"  />
           <InterpolatingParam id="1675" interp="linr"  time="0/1" value="0" leadInLength="0/1"  />
          </VectorParam>
          <VectorParam id="1676"  name="geometryCrop">
           <InterpolatingParam id="1677" interp="linr"  time="-9999999/1" value="0" leadInLength="0/1"  />
           <InterpolatingParam id="1678" interp="linr"  time="-9999999/1" value="0" leadInLength="0/1"  />
           <InterpolatingParam id="1679" interp="linr"  time="-9999999/1" value="0" leadInLength="0/1"  />
           <InterpolatingParam id="1680" interp="linr"  time="-9999999/1" value="0" leadInLength="0/1"  />
          </VectorParam>
          <InterpolatingParam id="1681" interp="linr"  time="-9999999/1" value="1" leadInLength="0/1"  name="opacity"/>
         </Parameters>
         <Attributes>
          <Attribute id="1682"  name="vectorNode">
           <VectorNode id="1683" kind="TypeWinSimple"  >
            <DoubleParameters>
             <InterpolatingParam id="1684" interp="linr"  time="0/1" value="-1" leadInLength="0/1"  name="CutoutPercentage"/>
             <InterpolatingParam id="1685" interp="linr"  time="0/1" value="-1" leadInLength="0/1"  name="RoundedRectRadius"/>
             <InterpolatingParam id="1686" interp="linr"  time="0/1" value="4" leadInLength="0/1"  name="Style"/>
             <InterpolatingParam id="1687" interp="linr"  time="0/1" value="155" leadInLength="0/1"  name="borderColorBlue"/>
             <InterpolatingParam id="1688" interp="linr"  time="0/1" value="133" leadInLength="0/1"  name="borderColorGreen"/>
             <InterpolatingParam id="1689" interp="linr"  time="0/1" value="49" leadInLength="0/1"  name="borderColorRed"/>
             <InterpolatingParam id="1690" interp="linr"  time="0/1" value="0" leadInLength="0/1"  name="borderState"/>
             <InterpolatingParam id="1691" interp="linr"  time="0/1" value="3" leadInLength="0/1"  name="borderWidth"/>
             <InterpolatingParam id="1692" interp="linr"  time="0/1" value="0" leadInLength="0/1"  name="dimensionTime"/>
             <InterpolatingParam id="1693" interp="linr"  time="0/1" value="255" leadInLength="0/1"  name="fillColorBlue"/>
             <InterpolatingParam id="1694" interp="linr"  time="0/1" value="255" leadInLength="0/1"  name="fillColorGreen"/>
             <InterpolatingParam id="1695" interp="linr"  time="0/1" value="255" leadInLength="0/1"  name="fillColorRed"/>
             <InterpolatingParam id="1696" interp="linr"  time="0/1" value="1" leadInLength="0/1"  name="fillState"/>
             <InterpolatingParam id="1697" interp="linr"  time="0/1" value="0" leadInLength="0/1"  name="flipOnXAxis"/>
             <InterpolatingParam id="1698" interp="linr"  time="0/1" value="0" leadInLength="0/1"  name="flipOnYAxis"/>
             <InterpolatingParam id="1699" interp="linr"  time="0/1" value="174.01812688821752" leadInLength="0/1"  name="height"/>
             <InterpolatingParam id="1700" interp="linr"  time="0/1" value="0" leadInLength="0/1"  name="textDropShadow"/>
             <InterpolatingParam id="1701" interp="linr"  time="0/1" value="0" leadInLength="0/1"  name="textIgnoresOpacity"/>
             <InterpolatingParam id="1702" interp="linr"  time="0/1" value="0.875" leadInLength="0/1"  name="textRectHeight"/>
             <InterpolatingParam id="1703" interp="linr"  time="0/1" value="0.90936555891238668" leadInLength="0/1"  name="textRectWidth"/>
             <InterpolatingParam id="1704" interp="linr"  time="0/1" value="0.045317220543806644" leadInLength="0/1"  name="textRectX"/>
             <InterpolatingParam id="1705" interp="linr"  time="0/1" value="0.0625" leadInLength="0/1"  name="textRectY"/>
             <InterpolatingParam id="1706" interp="linr"  time="0/1" value="0" leadInLength="0/1"  name="textVerticalAlign"/>
             <InterpolatingParam id="1707" interp="linr"  time="0/1" value="240" leadInLength="0/1"  name="width"/>
            </DoubleParameters>
            <StringParameters>
             <Parameter id="1708"  name="VectorPath">
              <Keyframes>
              <Keyframe id="1709"  time="0/1" value="M0,0h331v240H0V0z" leadInLength="0/1"  />
              </Keyframes>
             </Parameter>
             <Parameter id="1710"  name="filename">
              <Keyframes>
              <Keyframe id="1711"  time="0/1" value="D:\Media\Studio\Callouts\rectanglewithtext.xml" leadInLength="0/1"  />
              </Keyframes>
             </Parameter>
             <Parameter id="1712"  name="name">
              <Keyframes>
              <Keyframe id="1713"  time="0/1" value="Simple Rectangle" leadInLength="0/1"  />
              </Keyframes>
             </Parameter>
             <Parameter id="1714"  name="text">
              <Keyframes>
              <Keyframe id="1715"  time="0/1" value="{\rtf1\ansi\ansicpg1252\deff0\deflang1033{\fonttbl{\f0\fswiss\fprq2\fcharset0 Arial;}}&#xD;&#xa;{\colortbl ;\red0\green0\blue0;\red255\green255\blue255;}&#xD;&#xa;\viewkind4\uc1\pard\qc\cf1\f0\fs24 -------&gt;   Ethernet\par&#xD;&#xa;))))   WIFI\cf2\fs32\par&#xD;&#xa;}&#xD;&#xa;" leadInLength="0/1"  />
              </Keyframes>
             </Parameter>
             <Parameter id="1716"  name="xmlContent">
              <Keyframes>
              <Keyframe id="1717"  time="0/1" value="﻿&lt;?xml version=&quot;1.0&quot;?&gt;&#xa;&#xa;&lt;Overlay version=&quot;1.0.1&quot;&gt;&#xa;&#xa;&lt;Overlay_Filename&gt;rectanglewithtext.png&lt;/Overlay_Filename&gt;&#xa;&lt;Overlay_Name&gt;Simple Rectangle&lt;/Overlay_Name&gt;&#xa;&lt;Text_Top&gt;15&lt;/Text_Top&gt;&#xa;&lt;Text_Left&gt;15&lt;/Text_Left&gt;&#xa;&lt;Text_Bottom&gt;15&lt;/Text_Bottom&gt;&#xa;&lt;Text_Right&gt;15&lt;/Text_Right&gt;&#xa;&lt;Fill_Color&gt;1&lt;/Fill_Color&gt;&#xa;&lt;Border_Color&gt;1&lt;/Border_Color&gt;&#xa;&lt;Initial_Fill_Color&gt;0xff9b8531&lt;/Initial_Fill_Color&gt;&#xa;&lt;Initial_Border_Color&gt;0xff9b8531&lt;/Initial_Border_Color&gt;&#xa;&lt;VectorProps&gt;&#xa;&lt;figure&gt;&#xa;&lt;svg&gt;M0,0h331v240H0V0z&lt;/svg&gt;&#xa;&lt;/figure&gt;&#xa;&lt;seamY&gt;-1&lt;/seamY&gt;&#xa;&lt;shapeWidth&gt;331&lt;/shapeWidth&gt;&#xa;&lt;shapeHeight&gt;240&lt;/shapeHeight&gt;&#xa;&lt;/VectorProps&gt;&#xa;&lt;Style&gt;4&lt;/Style&gt;&#xa;&lt;UseDefaultSpec&gt;1&lt;/UseDefaultSpec&gt;   &#xa;&lt;/Overlay&gt;" leadInLength="0/1"  />
              </Keyframes>
             </Parameter>
            </StringParameters>
           </VectorNode>
          </Attribute>
         </Attributes>
         <MetaData>
          <entry key="WinSubProjectDisplayName" val=""/>
         </MetaData>
         <RightEdgeMods length="0/1" groupName="OpacityFade">
          <EdgeMod parameter="1681">
           <FadeOutFunc id="1718"  />
          </EdgeMod>
         </RightEdgeMods>
         <ExtraData>
          <Entry key="ZoomPanBin">
           <ZoomPanBin id="1719"  >
            <ZoomPanKeyframes>
             <ZoomPanKeyframe id="1720" timeRangeEnd="-9999999/1" timeRangeDuration="0/1" interpolaterName="linr"  />
            </ZoomPanKeyframes>
           </ZoomPanBin>
          </Entry>
         </ExtraData>
        </Callout>
       </Medias>
      </GenericTrack>
      <GenericTrack id="1721"  >
       <Attributes>
        <Attribute id="1722" value="" name="ident"/>
        <Attribute id="1723" value="0" name="audioMuted"/>
        <Attribute id="1724" value="0" name="videoHidden"/>
       </Attributes>
       <MetaData>
        <entry key="IsLocked" val="False"/>
        <entry key="WinTrackHeight" val="62"/>
       </MetaData>
       <Medias>
       </Medias>
      </GenericTrack>
     </Tracks>
    </GenericMixer>
   <CaptionAttributes id="1725"  >
    <Attribute id="1726" value="1" name="captionsEnabled"/>
    <Attribute id="1727" value="Arial" name="captionsFontName"/>
    <Attribute id="1728" value="26" name="captionsFontSize"/>
    <Attribute id="1729" value="(0,0,0,255)" name="captionsBackgroundColor"/>
    <Attribute id="1730" value="(255,255,255,255)" name="captionsForegroundColor"/>
    <Attribute id="1731" value="en" name="lang"/>
    <Attribute id="1732" value="0" name="captionsAlignment"/>
    <Attribute id="1733" value="1" name="captionsDefaultFontSize"/>
    <Attribute id="1734" value="0.5" name="captionsOpacity"/>
    <Attribute id="1735" value="1" name="captionsBackgroundEnabled"/>
    <Attribute id="1736" value="1" name="captionsBackgroundOnlyAroundText"/>
   </CaptionAttributes>
   <Parameters>
    <VectorParam id="1737"  name="eyePosition">
     <InterpolatingParam id="1738" interp="linr"  time="0/1" value="0" leadInLength="0/1"  />
     <InterpolatingParam id="1739" interp="linr"  time="0/1" value="0" leadInLength="0/1"  />
     <InterpolatingParam id="1740" interp="linr"  time="0/1" value="3000" leadInLength="0/1"  />
    </VectorParam>
    <VectorParam id="1741"  name="eyeLookAtPosition">
     <InterpolatingParam id="1742" interp="linr"  time="0/1" value="0" leadInLength="0/1"  />
     <InterpolatingParam id="1743" interp="linr"  time="0/1" value="0" leadInLength="0/1"  />
     <InterpolatingParam id="1744" interp="linr"  time="0/1" value="0" leadInLength="0/1"  />
    </VectorParam>
    <VectorParam id="1745"  name="eyeUpVector">
     <InterpolatingParam id="1746" interp="linr"  time="0/1" value="0" leadInLength="0/1"  />
     <InterpolatingParam id="1747" interp="linr"  time="0/1" value="1" leadInLength="0/1"  />
     <InterpolatingParam id="1748" interp="linr"  time="0/1" value="0" leadInLength="0/1"  />
    </VectorParam>
    <InterpolatingParam id="1749" interp="linr"  time="0/1" value="0.23885785" leadInLength="0/1"  name="fov"/>
    <InterpolatingParam id="1750" interp="linr"  time="0/1" value="1.5" leadInLength="0/1"  name="nearClipDistance"/>
    <InterpolatingParam id="1751" interp="linr"  time="0/1" value="6000" leadInLength="0/1"  name="farClipDistance"/>
   </Parameters>
  </Timeline>
 </Project>
</GoProject>
</CSMLData>

</Project_Data>
