<?xml version="1.0"?>
<Project_Data Version="8.00">
<Project_Settings>
<ProfileName></ProfileName>
<ProjectWidth>964</ProjectWidth>
<ProjectHeight>720</ProjectHeight>
<IsCustomProject>1</IsCustomProject>
<SavedProjectSettings>1</SavedProjectSettings>
<LastFlashTemplate>-1</LastFlashTemplate>
</Project_Settings>


<AutoSaveFile>C:\Users\Junaid\AppData\Local\TechSmith\Camtasia Studio\8.0\Auto-Saves\libraries1c5d93cb.autosave.camproj</AutoSaveFile>

<ProjectID>F3666007-2E93-4894-AE8A-CF7C91BD4ECB</ProjectID>

<PowerPointProject>0</PowerPointProject>

<PowerPointFilename></PowerPointFilename>


<Project_Notes>
</Project_Notes>

<Project_MetaData>
<Project_MetaData_Object>
<FieldArrayKey>8</FieldArrayKey>
<Value>libraries</Value>
</Project_MetaData_Object>
<Project_MetaData_Object>
<FieldArrayKey>13</FieldArrayKey>
<Value>2016-01-19 11:25:35 PM</Value>
</Project_MetaData_Object>
<Project_MetaData_Object>
<FieldArrayKey>16</FieldArrayKey>
<Value>ENU</Value>
</Project_MetaData_Object>
</Project_MetaData>

<CSMLData>
<GoProject id="1" version="3.0" >
 <Project id="2" editRate="30/1" version="3.0" >
  <Author></Author>
  <Comment></Comment>
  <System></System>
  <SourceBin id="3"  >
    <Source id="4" src="C:\Users\Junaid\Desktop\IOT RECO\libraries.trec" lastMod="20160119T180203" rect="(0,0,1028,768)" >
      <SourceTrack range="(0,11177)" type="0" editRate="30/1" trackRect="(0,0,1028,768)" sampleRate="0/1" bitDepth="0" numChannels="0" filename="libraries.trec!Strack0.tsc2" metaData="libraries.trec;" />
      <SourceTrack range="(0,11174000)" type="0" editRate="30000/1" trackRect="(0,0,640,480)" sampleRate="0/1" bitDepth="0" numChannels="0" filename="libraries.trec!Cvideo1.mp4" metaData="" />
      <SourceTrack range="(0,16413696)" type="2" editRate="44100/1" trackRect="(0,0,0,0)" sampleRate="44100/1" bitDepth="16" numChannels="2" filename="libraries.trec!Maudio2.mp4" metaData="" />
    </Source>
    <Source id="5" src="C:\Users\Junaid\Desktop\IOT RECO\IOT Platform.trec" lastMod="20160120T064458" rect="(0,0,1028,768)" >
      <SourceTrack range="(0,5010)" type="0" editRate="30/1" trackRect="(0,0,1028,768)" sampleRate="0/1" bitDepth="0" numChannels="0" filename="IOT Platform.trec!Strack0.tsc2" metaData="IOT Platform.trec;" />
      <SourceTrack range="(0,5008000)" type="0" editRate="30000/1" trackRect="(0,0,640,480)" sampleRate="0/1" bitDepth="0" numChannels="0" filename="IOT Platform.trec!Cvideo1.mp4" metaData="" />
      <SourceTrack range="(0,7361536)" type="2" editRate="44100/1" trackRect="(0,0,0,0)" sampleRate="44100/1" bitDepth="16" numChannels="2" filename="IOT Platform.trec!Maudio2.mp4" metaData="" />
    </Source>
  </SourceBin>
  <Timeline id="6"  >
   <Attributes>
    <Attribute id="7" value="964" name="width"/>
    <Attribute id="8" value="720" name="height"/>
    <Attribute id="9" value="(0,0,0,255)" name="backgroundColor"/>
   </Attributes>
    <GenericMixer id="10"  name="Unified Mixer">
     <MetaData>
      <entry key="MixerType" val="TimelineMixer"/>
     </MetaData>
     <Tracks>
      <GenericTrack id="11"  >
       <Attributes>
        <Attribute id="12" value="" name="ident"/>
        <Attribute id="13" value="0" name="audioMuted"/>
        <Attribute id="14" value="0" name="videoHidden"/>
       </Attributes>
       <MetaData>
        <entry key="IsLocked" val="False"/>
        <entry key="WinTrackHeight" val="62"/>
       </MetaData>
       <Medias>
        <StitchedMedia id="15" start="0" duration="4749" scalar="1/1" mediaStart="0/1" mediaDuration="4749/1" minMediaStart="0/1" >
         <Transformer>
          <VectorParam id="16"  name="translation">
           <InterpolatingParam id="17" interp="linr"  time="-9999999/1" value="402" leadInLength="0/1"  interpolater="leadin-linr"  />
           <InterpolatingParam id="18" interp="linr"  time="-9999999/1" value="-300" leadInLength="0/1"  interpolater="leadin-linr"  />
           <InterpolatingParam id="19" interp="linr"  time="-9999999/1" value="0" leadInLength="0/1"  interpolater="leadin-linr"  />
          </VectorParam>
          <VectorParam id="20"  name="rotation">
           <InterpolatingParam id="21" interp="linr"  time="-9999999/1" value="0" leadInLength="0/1"  interpolater="leadin-linr"  />
           <InterpolatingParam id="22" interp="linr"  time="-9999999/1" value="0" leadInLength="0/1"  interpolater="leadin-linr"  />
           <InterpolatingParam id="23" interp="linr"  time="-9999999/1" value="0" leadInLength="0/1"  interpolater="leadin-linr"  />
          </VectorParam>
          <VectorParam id="24"  name="shear">
           <InterpolatingParam id="25" interp="linr"  time="-9999999/1" value="0" leadInLength="0/1"  interpolater="leadin-linr"  />
           <InterpolatingParam id="26" interp="linr"  time="-9999999/1" value="0" leadInLength="0/1"  interpolater="leadin-linr"  />
           <InterpolatingParam id="27" interp="linr"  time="-9999999/1" value="0" leadInLength="0/1"  interpolater="leadin-linr"  />
          </VectorParam>
          <VectorParam id="28"  name="scale">
           <InterpolatingParam id="29" interp="linr"  time="-9999999/1" value="0.25" leadInLength="0/1"  interpolater="leadin-linr"  />
           <InterpolatingParam id="30" interp="linr"  time="-9999999/1" value="0.25" leadInLength="0/1"  interpolater="leadin-linr"  />
           <InterpolatingParam id="31" interp="linr"  time="-9999999/1" value="1" leadInLength="0/1"  interpolater="leadin-linr"  />
          </VectorParam>
          <VectorParam id="32"  name="anchor">
           <InterpolatingParam id="33" interp="linr"  time="0/1" value="0" leadInLength="0/1"  />
           <InterpolatingParam id="34" interp="linr"  time="0/1" value="0" leadInLength="0/1"  />
           <InterpolatingParam id="35" interp="linr"  time="0/1" value="0" leadInLength="0/1"  />
          </VectorParam>
         </Transformer>
         <Parameters>
          <VectorParam id="36"  name="sourceCrop">
           <InterpolatingParam id="37" interp="linr"  time="0/1" value="0" leadInLength="0/1"  />
           <InterpolatingParam id="38" interp="linr"  time="0/1" value="0" leadInLength="0/1"  />
           <InterpolatingParam id="39" interp="linr"  time="0/1" value="0" leadInLength="0/1"  />
           <InterpolatingParam id="40" interp="linr"  time="0/1" value="0" leadInLength="0/1"  />
          </VectorParam>
          <VectorParam id="41"  name="geometryCrop">
           <InterpolatingParam id="42" interp="linr"  time="-9999999/1" value="0" leadInLength="0/1"  interpolater="leadin-linr"  />
           <InterpolatingParam id="43" interp="linr"  time="-9999999/1" value="0" leadInLength="0/1"  interpolater="leadin-linr"  />
           <InterpolatingParam id="44" interp="linr"  time="-9999999/1" value="0" leadInLength="0/1"  interpolater="leadin-linr"  />
           <InterpolatingParam id="45" interp="linr"  time="-9999999/1" value="0" leadInLength="0/1"  interpolater="leadin-linr"  />
          </VectorParam>
          <InterpolatingParam id="46" interp="linr"  time="-9999999/1" value="1" leadInLength="0/1"  interpolater="leadin-linr"  name="opacity"/>
          <InterpolatingParam id="47" interp="linr"  time="0/1" value="1" leadInLength="0/1"  name="cursorOpacity"/>
          <InterpolatingParam id="48" interp="linr"  time="0/1" value="1" leadInLength="0/1"  name="cursorScale"/>
          <InterpolatingParam id="49" interp="linr"  time="0/1" value="1" leadInLength="0/1"  name="volume"/>
          <Parameter id="50"  name="captions"/>
         </Parameters>
         <Effects>
          <GenericEffect id="51" name = "NoiseReduction" >
           <Parameters>
           <InterpolatingParam id="52" interp="linr"  time="0/1" value="27.599999999999998" leadInLength="0/1"   name="denoiserAmount"/>
           <InterpolatingParam id="53" interp="linr"  time="0/1" value="2.2799999999999994" leadInLength="0/1"   name="denoiserThreshold"/>
           <Parameter id="54"   name="noiseProfile">
            <Keyframes>
            <Keyframe id="55"  time="0/1" value="FBAAAAIAAABErAAAAQIAAEqCC8LlQvHBiLcGwu9JEcL8gjDC1H5JwgE6TMKo0VDCnKdSwo9xVsIe&#xD;&#xa;1lHCYOVUwp6JZcI1iGfCL09nwvtqbMKI23LCyNp0wnnYcMIePXDC9qtzwkQKcsIG/2/CY7lwwpbI&#xD;&#xa;csKJtXTCGxVywq42dMKIrHrCze1+wtH4fsLC0IDCI1mAwnMjf8JWJXnCFSN3wukkd8IhM3XC/0h3&#xD;&#xa;whCWdsKxqXbC0e97wgGLesI2C3/CzmSBwjHwgcLaHYPCMf6EwmcUhcLRc4TCKXCFwjE8h8JqCobC&#xD;&#xa;IveFwpW7hcKd64PCxBiEwizZg8JI7oXCOUOEwme9g8IQg4TCf32Fwm9ShcJX8oLC+DyCwpd3hcIv&#xD;&#xa;G4jCkACHwuHUhcKA5obCBleIwgZ5isJ0tYvCChaNwukNjcJWI4zCWOqNwh3Ai8KbiYrCxKyJwtxD&#xD;&#xa;iMJtLIfCKLWFwqRFiMLmxInCjFqJwvSQiMI1L4fCWtCIwr0SiMJBEIjCJdSJwinjjMJ4oo3Ccl2J&#xD;&#xa;wiqoh8LiTYfCqrWHwn/khcKbTITCZVyDwlpGg8KVQ4LCdCyCwqg+gcInB4HClmd9wgB+ecLL1XfC&#xD;&#xa;2Jd6whsIgMJRCYTC84mEwu7JhMJX7IPCRA2Dwq+gg8LyeITCIASFwnbMhsJjt4jCDtqJwtgai8I1&#xD;&#xa;jIvCcxiIwpYwhcIpqobCWxeHwkUQh8JVr4bCHXuFwhxUhcLKJYLCRDeBwr7ug8IzLYXCc6iEwp5C&#xD;&#xa;gsIYFoLCXwWDwhm/gsLb3YLCeUSBwj+Gf8LV3X7Cjxl/wnlJgMK8+X/CAqOBwkzkfsIgDXzCuxt/&#xD;&#xa;wnI2fMJnQXvC7hJ7wlU+ecLQGHnCq/B6wlkafcL1d3rCQOl5wquMe8LIWnvCgxGAwshKgsJsJ4HC&#xD;&#xa;IACAwpzIe8ImyH/COmGAwhIzfMKk8nnCcid9wlF0fcI5gX7C/Ht/wnnegMLySIDC2QR5wrZvdcJN&#xD;&#xa;O3fC1mF4wrPXeMIfOXbC7lBywgg1ccJaSXPClR91wmPadsKjWHTCn1p1wvfgdcLks3TCz1FzwqIX&#xD;&#xa;c8KNCHTC1DV0wpe5d8LaaXjC2Ld3wrTKeMKuBnnCyVB3wjMmeMLkA33CZsR+wphIf8JR233CR219&#xD;&#xa;wowzgcJPw4HCSq+DwjDIgsLe0IHCHE2Cwgm+hcJkH4bCAtWEwhjahMLEfIXCtkWEwt25g8KQU4bC&#xD;&#xa;uquIwnruhcJUIYXCNDaFwrtnhMKpLYPC9d2EwlV9hMLbgYPCiMiFworLhcLJ14PC0smEwgzchcIC&#xD;&#xa;n4TCXbCDwui7hMIVvYfCqtCIwp07h8Ijs4bCGCSHwr7YhsITRYbC1rKFwuDihsKb1ofCJ1CKwkHU&#xD;&#xa;icI/V4jCeLOHwkR/hsKG/4bC266Gwk9Dh8JWoIbCHbSGwvahiMKhgojCLMCGwsURhsJHgIjCZreI&#xD;&#xa;whqGhcIlqoTC5+2EwkHVhcJn34XC13+FwliyhMLAWoXCjz2FwqzAhML+T4bC8FyFwhFUhcKkF4bC&#xD;&#xa;vO6FwmbphMKDw4PCLmqDwgnyhMI2LYTCN+GEwgjFg8J1h4TCMyWEwgmvhMIm0ITCxDCEwkL2hML/&#xD;&#xa;q4TCI7CGwjQPhsIcr4TCQiSFwh0MhMJck4TC/aKFwp3ChMLeaIXCw32HwqVSh8IG04XCkV2Fwuqm&#xD;&#xa;hsK4DoXC00aGwg4uh8KT74XCWL+Ewkikh8L+TInC1NSFwlh/h8Ix8IfC2s+IwnQdi8LUFYrC4ryG&#xD;&#xa;wi/shcJ7Y4jCeGOHwpNKiMKZQYrC1gGKwl7+icIcVIvCG1iLwpqHicLdwInCXoiJwlYOisJSxYnC&#xD;&#xa;8SOMwi6HjcLV9YzClQuNwskEisJ9O4nCvViMwgZQjMIRpIzCMU6Mwo9Ii8KEXovCMOqLwi7tjMKP&#xD;&#xa;CIzCnuSMwrEYjMJ/T4rCFd+KwpZGi8LwDIrClDGMwpsQj8JKL5DCEE2Pwqs1j8LH0ZDC7quRwgmE&#xD;&#xa;kML1cY7CKvCOwlokjsKE7I7CtMCNwon5jcIFHJHCO7OUwq/tksJF2ZDCRwGQwiL8jcLi443CPy6O&#xD;&#xa;wjcdj8LF7pDCurySwm8FlMI72pPCZnGUwuZvksJMJJLCmAuSwgMFkcK6WJLCESmRwonmkML9IJTC&#xD;&#xa;2u6Twr7eksJhnZHCfN2Qwij0k8I3i5TCpNuSwqBvksIAApPCRMqQwoukkMJds5TCqNmWwtKml8Iy&#xD;&#xa;eZXCUVuTwlEBk8KfD5TC8YeVwkExlsK7FZjCDAGZwgp9lsLU95TCRA+VwnAPlMKIGZTCBx+Vwkx/&#xD;&#xa;lsK0l5bCCcuVwnzGk8Lpd5PCmMaTwpsqlcJ8MJXCPd+VwgyimMLopJfCLEaXwt79lsK19JbCD26X&#xD;&#xa;whl8l8LezZnCk0uawnLSl8JwIZfCH1qYwihSmMILFpjC8+aWwrCKlsKAAJjCKXmZwlLfmsIQ153C&#xD;&#xa;aGqdws0kncKKt5nCrI+Zwlwgm8KrVZ3CWB+fwqqCnMIPKJzC9lScwrEYm8K275nCmNOZwjdRnMII&#xD;&#xa;aZzCnPObwrw3nMKJnZvCmlCbwrTqnMKPDZ3CKuadwmFBnMIUoZ/C/yWgwvFmncKCZ57C5vWfwrLN&#xD;&#xa;ncIcbJ7CnVabwv0wncK90KHCFv6hwhNEosIknaDC9AefwuAgosJOI6XCImWkwj9YpMK2uaXC0dmk&#xD;&#xa;wriRpcI3D6TCwh2kwkgrpMKzsaPCwVeiwmEypcKm1abCDGWnwlLBqcL2HKrC+deswoZOqsJ8XqnC&#xD;&#xa;xlyrwmu2q8LZCarCUq+5wnuCC8KxRPHB/MMGwopbEcJ0kjDCXIBJwiw6TMKv0VDC0qdSwoxxVsIg&#xD;&#xa;1lHCWuVUwnSJZcLfh2fCE09nwg9rbMIR3HLCdNp0wmnYcMIvPXDCFaxzwloKcsIX/2/CdblwwlrI&#xD;&#xa;csKztXTCrBVywv42dMJ2rHrCl+1+wtn4fsKo0IDCF1mAwgIkf8ITJXnCniJ3wpAld8LMM3XCgUl3&#xD;&#xa;wguWdsJOqXbCdO97wr+LesL1C3/CO2WBwpnwgcKyHYPC+P2EwiYUhcKoc4TCzm+Fwts7h8LwCYbC&#xD;&#xa;CfeFwvm7hcKr64PCyhiEwpzZg8IC7oXCH0OEwoa9g8Jig4TCQX2FwvRRhcJv8oLCXD2CwrJ3hcLb&#xD;&#xa;GojCGQCHwr7UhcJn5obCI1eIwnF5isKetYvCnxaNwkgOjcJiI4zCr+qNwonAi8KSiYrCvKyJwiJE&#xD;&#xa;iMKBLIfCPLWFwkBFiMK3xInCZ1qJwqqQiMLmLofCv8+IwmQSiMJlEIjCmtSJwmPjjMKooo3CA12J&#xD;&#xa;wi6oh8KVTofC5LWHwmHkhcLKTITCilyDwuxGg8K1Q4LCQyyCwoQ+gcLzBoHCY2d9wgN+ecKx1XfC&#xD;&#xa;3pd6wisIgMIVCYTCb4mEwmfJhMI/7IPCag2Dwt2gg8KaeYTCpQSFwhzMhsIdt4jCBNqJwjgai8KJ&#xD;&#xa;i4vCcRiIwr8whcKgqobC7heHwkkQh8IKr4bC8HqFwkFUhcJJJoLC7jeBwtfug8ImLYXCa6iEwiFC&#xD;&#xa;gsLWFYLCgAWDwvi+gsLG3YLC4ESBwuCGf8LJ3X7CKBp/wp1JgMJ7+X/Cj6KBwt3jfsKTDHzCWxt/&#xD;&#xa;woQ2fMKGQXvC/hJ7wjU+ecJVGXnCB/F6wrYZfcLad3rCsOl5woyMe8I5WnvCGxGAwnpKgsJ0J4HC&#xD;&#xa;FACAwm3Ie8Kgx3/C8mCAwgIzfMKv8nnCuCd9wi10fcJigH7CSHt/wkregML/SIDCFgV5wiRwdcLI&#xD;&#xa;O3fCQGJ4wuzXeMLROHbC+1Bywv00ccLWSXPCEiB1woDadsJoWHTCY1p1wnjgdcJ+s3TCv1FzwlIX&#xD;&#xa;c8K4B3TCQDV0wqG5d8IBanjCLbh3wrnKeMIBBnnCqlB3wlcmeMJCBH3CisR+wj5If8Ir233CM259&#xD;&#xa;wtYzgcL8woHCFK+Dwt/HgsKZ0IHCSE2CwhO+hcKIH4bCctWEwoDahMIZfYXCkEWEwly5g8K5U4bC&#xD;&#xa;OKyIwtLuhcLEIYXC+TWFwkJnhMJoLYPCA96Ewqx9hMKLgYPCHsiFwjjLhcLB14PCC8qEwvXbhcLT&#xD;&#xa;noTC8q+Dwkq7hMLwvIfCKtCIwmQ7h8Ivs4bCbiSHwh7ZhsIURYbC6bKFwsHihsKL1ofCblCKwsXU&#xD;&#xa;icJmV4jC4rOHwuJ/hsK5/4bCi66Gwm9Dh8JNoIbCC7SGwlKiiMKtgojCZ7+GwscQhsLEf4jCjLeI&#xD;&#xa;wkSGhcLDqYTC1e2EwiTVhcJm34XCJH+FwmiyhML+WoXCGD2FwgzAhML0T4bCb12FwkhUhcJSF4bC&#xD;&#xa;ce6FwoDphMLGw4PCKmqDwoXxhMIOLYTC9eCEwurEg8JYh4TCiCWEwl+vhMKm0ITC9jCEwvj1hMLI&#xD;&#xa;q4TC4a+GwkIPhsIjr4TCXiSFwv0LhMJbk4TCFaOFwsLChMIpaYXCI36Hwm5Sh8LJ0oXCj12FwlSm&#xD;&#xa;hsLfDYXCl0aGwrkuh8K974XCGr+EwvWjh8JATYnC5dSFwmV/h8Km8IfCsc+IwrQci8JNFYrChryG&#xD;&#xa;wj/shcLWY4jCp2OHwshKiMIvQYrChAGKwuL9icITVIvCnViLwgyIicKWwYnCu4iJwigOisL/xInC&#xD;&#xa;1iOMwkSHjcJD9ozCCQyNwtMEisIvO4nCdFiMwvtOjMJ8o4zCw06MwshIi8JrXovCqOqLwvbtjMJ4&#xD;&#xa;CIzCEOSMwkYXjMIAT4rCbt+KwsxGi8K+DIrCOTKMwt4Rj8JWL5DC5EyPwpA1j8Lt0JDCZqqRwiKD&#xD;&#xa;kMLycY7CbO+OwjYkjsL87I7CPsCNwh/5jcI1HJHCh7GUwiLtksLL2ZDCFQKQwqr8jcIp5Y3CeC+O&#xD;&#xa;wtQej8Lg7ZDCpLuSwp0FlMJV25PCR3KUwlpvksKJI5LC/QuSwk4FkcLSV5LCqyiRwqDmkMJlIpTC&#xD;&#xa;ee+TwjTfksK+nZHCvN2Qwqb0k8LYi5TCctySwn5vksKvAZPC1cmQwr6jkMLVspTC/tmWwvyml8JB&#xD;&#xa;eZXC5lqTwocAk8IcD5TCiIeVwiowlsL5FJjCagCZwjd7lsI99pTCJA+VwroPlMIxGZTCdh6VwvN+&#xD;&#xa;lsK+l5bCF8uVwnfHk8JMeJPCk8aTwnQqlcLsMZXCquGVwq+kmMIxp5fCskiXwnz/lsLT9JbCu2yX&#xD;&#xa;wu57l8LyzZnCVEuawibTl8ISIpfC+1mYwp9SmMJGGJjCeeiWwvOKlsJm/5fCzXiZwpbemsL+1Z3C&#xD;&#xa;T2qdwt4kncJ/t5nCVo+ZwhYfm8JGVZ3CRh+fwpiEnMJbJ5zC1lKcwt0Zm8JJ8JnC1tKZwi5RnMKt&#xD;&#xa;aJzCJPSbwq43nMJAnZvC71CbwtjrnMJCDp3CvuWdwsVAnMLAn5/CQCWgwt5nncLQaJ7CkPSfwkDN&#xD;&#xa;ncLzbJ7ChlabwiwwncIYz6HC3/yhwtlDosKJoKDCPAifwu4gosI7I6XCGmCkwnJVpMIluKXC0tmk&#xD;&#xa;wnWRpcL6DKTCaB2kwrYqpMKjs6PCPlmiwm8zpcLr06bCVmKnwn/DqcIFJqrCSt2swu5PqsKZYanC&#xD;&#xa;mmGrwme2q8KoBqrC5Ka5" leadInLength="0/1"  />
            </Keyframes>
           </Parameter>
           </Parameters>
           <MetaData>
            <entry key="effectIndex" val="0"/>
           </MetaData>
          </GenericEffect>
         </Effects>
         <Attributes>
          <Attribute id="56" value="" name="ident"/>
          <Attribute id="57" value="0" name="mixToMono"/>
         </Attributes>
         <MetaData>
          <entry key="WinSubProjectDisplayName" val=""/>
         </MetaData>
         <ExtraData>
          <Entry key="ZoomPanBin">
           <ZoomPanBin id="58"  >
            <ZoomPanKeyframes>
             <ZoomPanKeyframe id="59" timeRangeEnd="-9999999/1" timeRangeDuration="0/1" interpolaterName="linr"  />
            </ZoomPanKeyframes>
           </ZoomPanBin>
          </Entry>
          <Entry key="CursorEffectBin">
           <CursorEffectBin id="60"  >
            <CursorEffectKeyframes>
            </CursorEffectKeyframes>
           </CursorEffectBin>
          </Entry>
         </ExtraData>
         <GenericTrack id="61"  >
          <Attributes>
           <Attribute id="62" value="" name="ident"/>
           <Attribute id="63" value="0" name="audioMuted"/>
           <Attribute id="64" value="0" name="videoHidden"/>
          </Attributes>
          <MetaData>
           <entry key="IsLocked" val="False"/>
           <entry key="WinTrackHeight" val="0"/>
          </MetaData>
          <Medias>
           <UnifiedMedia id="65"  >
            <AMFile id="66" start="0" duration="39" scalar="1/1" mediaStart="0/1" mediaDuration="39/1" trackNumber="2" src="4" channelNumber="0,1" >
             <Parameters>
              <InterpolatingParam id="67" interp="linr"  time="0/1" value="1" leadInLength="0/1"  name="volume"/>
              <Parameter id="68"  name="captions"/>
             </Parameters>
             <Attributes>
              <Attribute id="69" value="" name="ident"/>
              <Attribute id="70" value="44100" name="sampleRate"/>
              <Attribute id="71" value="16" name="bitDepth"/>
              <Attribute id="72" value="1" name="gain"/>
              <Attribute id="73" value="0" name="mixToMono"/>
             </Attributes>
            </AMFile>
            <VMFile id="74" start="0" duration="39" scalar="1/1" mediaStart="0/1" mediaDuration="39/1" trackNumber="1" src="4" >
             <Transformer>
              <VectorParam id="75"  name="translation">
               <InterpolatingParam id="76" interp="linr"  time="-9999999/1" value="0" leadInLength="0/1"  />
               <InterpolatingParam id="77" interp="linr"  time="-9999999/1" value="0" leadInLength="0/1"  />
               <InterpolatingParam id="78" interp="linr"  time="-9999999/1" value="0" leadInLength="0/1"  />
              </VectorParam>
              <VectorParam id="79"  name="rotation">
               <InterpolatingParam id="80" interp="linr"  time="-9999999/1" value="0" leadInLength="0/1"  />
               <InterpolatingParam id="81" interp="linr"  time="-9999999/1" value="0" leadInLength="0/1"  />
               <InterpolatingParam id="82" interp="linr"  time="-9999999/1" value="0" leadInLength="0/1"  />
              </VectorParam>
              <VectorParam id="83"  name="shear">
               <InterpolatingParam id="84" interp="linr"  time="-9999999/1" value="0" leadInLength="0/1"  />
               <InterpolatingParam id="85" interp="linr"  time="-9999999/1" value="0" leadInLength="0/1"  />
               <InterpolatingParam id="86" interp="linr"  time="-9999999/1" value="0" leadInLength="0/1"  />
              </VectorParam>
              <VectorParam id="87"  name="scale">
               <InterpolatingParam id="88" interp="linr"  time="-9999999/1" value="1" leadInLength="0/1"  />
               <InterpolatingParam id="89" interp="linr"  time="-9999999/1" value="1" leadInLength="0/1"  />
               <InterpolatingParam id="90" interp="linr"  time="-9999999/1" value="1" leadInLength="0/1"  />
              </VectorParam>
              <VectorParam id="91"  name="anchor">
               <InterpolatingParam id="92" interp="linr"  time="0/1" value="0" leadInLength="0/1"  />
               <InterpolatingParam id="93" interp="linr"  time="0/1" value="0" leadInLength="0/1"  />
               <InterpolatingParam id="94" interp="linr"  time="0/1" value="0" leadInLength="0/1"  />
              </VectorParam>
             </Transformer>
             <Parameters>
              <VectorParam id="95"  name="sourceCrop">
               <InterpolatingParam id="96" interp="linr"  time="0/1" value="0" leadInLength="0/1"  />
               <InterpolatingParam id="97" interp="linr"  time="0/1" value="0" leadInLength="0/1"  />
               <InterpolatingParam id="98" interp="linr"  time="0/1" value="0" leadInLength="0/1"  />
               <InterpolatingParam id="99" interp="linr"  time="0/1" value="0" leadInLength="0/1"  />
              </VectorParam>
              <VectorParam id="100"  name="geometryCrop">
               <InterpolatingParam id="101" interp="linr"  time="-9999999/1" value="0" leadInLength="0/1"  />
               <InterpolatingParam id="102" interp="linr"  time="-9999999/1" value="0" leadInLength="0/1"  />
               <InterpolatingParam id="103" interp="linr"  time="-9999999/1" value="0" leadInLength="0/1"  />
               <InterpolatingParam id="104" interp="linr"  time="-9999999/1" value="0" leadInLength="0/1"  />
              </VectorParam>
              <InterpolatingParam id="105" interp="linr"  time="-9999999/1" value="1" leadInLength="0/1"  name="opacity"/>
             </Parameters>
             <Attributes>
              <Attribute id="106" value="" name="ident"/>
             </Attributes>
             <ExtraData>
              <Entry key="ZoomPanBin">
               <ZoomPanBin id="107"  >
                <ZoomPanKeyframes>
                 <ZoomPanKeyframe id="108" timeRangeEnd="-9999999/1" timeRangeDuration="0/1" interpolaterName=""  />
                </ZoomPanKeyframes>
               </ZoomPanBin>
              </Entry>
             </ExtraData>
            </VMFile>
            <MetaData>
             <entry key="WinSubProjectDisplayName" val=""/>
            </MetaData>
           </UnifiedMedia>
           <UnifiedMedia id="109"  >
            <AMFile id="110" start="39" duration="2" scalar="1/1" mediaStart="65/1" mediaDuration="2/1" trackNumber="2" src="4" channelNumber="0,1" >
             <Parameters>
              <InterpolatingParam id="111" interp="linr"  time="0/1" value="1" leadInLength="0/1"  name="volume"/>
              <Parameter id="112"  name="captions"/>
             </Parameters>
             <Attributes>
              <Attribute id="113" value="" name="ident"/>
              <Attribute id="114" value="44100" name="sampleRate"/>
              <Attribute id="115" value="16" name="bitDepth"/>
              <Attribute id="116" value="1" name="gain"/>
              <Attribute id="117" value="0" name="mixToMono"/>
             </Attributes>
            </AMFile>
            <VMFile id="118" start="39" duration="2" scalar="1/1" mediaStart="65/1" mediaDuration="2/1" trackNumber="1" src="4" >
             <Transformer>
              <VectorParam id="119"  name="translation">
               <InterpolatingParam id="120" interp="linr"  time="-9999999/1" value="0" leadInLength="0/1"  />
               <InterpolatingParam id="121" interp="linr"  time="-9999999/1" value="0" leadInLength="0/1"  />
               <InterpolatingParam id="122" interp="linr"  time="-9999999/1" value="0" leadInLength="0/1"  />
              </VectorParam>
              <VectorParam id="123"  name="rotation">
               <InterpolatingParam id="124" interp="linr"  time="-9999999/1" value="0" leadInLength="0/1"  />
               <InterpolatingParam id="125" interp="linr"  time="-9999999/1" value="0" leadInLength="0/1"  />
               <InterpolatingParam id="126" interp="linr"  time="-9999999/1" value="0" leadInLength="0/1"  />
              </VectorParam>
              <VectorParam id="127"  name="shear">
               <InterpolatingParam id="128" interp="linr"  time="-9999999/1" value="0" leadInLength="0/1"  />
               <InterpolatingParam id="129" interp="linr"  time="-9999999/1" value="0" leadInLength="0/1"  />
               <InterpolatingParam id="130" interp="linr"  time="-9999999/1" value="0" leadInLength="0/1"  />
              </VectorParam>
              <VectorParam id="131"  name="scale">
               <InterpolatingParam id="132" interp="linr"  time="-9999999/1" value="1" leadInLength="0/1"  />
               <InterpolatingParam id="133" interp="linr"  time="-9999999/1" value="1" leadInLength="0/1"  />
               <InterpolatingParam id="134" interp="linr"  time="-9999999/1" value="1" leadInLength="0/1"  />
              </VectorParam>
              <VectorParam id="135"  name="anchor">
               <InterpolatingParam id="136" interp="linr"  time="0/1" value="0" leadInLength="0/1"  />
               <InterpolatingParam id="137" interp="linr"  time="0/1" value="0" leadInLength="0/1"  />
               <InterpolatingParam id="138" interp="linr"  time="0/1" value="0" leadInLength="0/1"  />
              </VectorParam>
             </Transformer>
             <Parameters>
              <VectorParam id="139"  name="sourceCrop">
               <InterpolatingParam id="140" interp="linr"  time="0/1" value="0" leadInLength="0/1"  />
               <InterpolatingParam id="141" interp="linr"  time="0/1" value="0" leadInLength="0/1"  />
               <InterpolatingParam id="142" interp="linr"  time="0/1" value="0" leadInLength="0/1"  />
               <InterpolatingParam id="143" interp="linr"  time="0/1" value="0" leadInLength="0/1"  />
              </VectorParam>
              <VectorParam id="144"  name="geometryCrop">
               <InterpolatingParam id="145" interp="linr"  time="-9999999/1" value="0" leadInLength="0/1"  />
               <InterpolatingParam id="146" interp="linr"  time="-9999999/1" value="0" leadInLength="0/1"  />
               <InterpolatingParam id="147" interp="linr"  time="-9999999/1" value="0" leadInLength="0/1"  />
               <InterpolatingParam id="148" interp="linr"  time="-9999999/1" value="0" leadInLength="0/1"  />
              </VectorParam>
              <InterpolatingParam id="149" interp="linr"  time="-9999999/1" value="1" leadInLength="0/1"  name="opacity"/>
             </Parameters>
             <Attributes>
              <Attribute id="150" value="" name="ident"/>
             </Attributes>
             <ExtraData>
              <Entry key="ZoomPanBin">
               <ZoomPanBin id="151"  >
                <ZoomPanKeyframes>
                 <ZoomPanKeyframe id="152" timeRangeEnd="-9999999/1" timeRangeDuration="0/1" interpolaterName=""  />
                </ZoomPanKeyframes>
               </ZoomPanBin>
              </Entry>
             </ExtraData>
            </VMFile>
            <MetaData>
             <entry key="WinSubProjectDisplayName" val=""/>
            </MetaData>
           </UnifiedMedia>
           <UnifiedMedia id="153"  >
            <AMFile id="154" start="41" duration="174" scalar="1/1" mediaStart="179/1" mediaDuration="174/1" trackNumber="2" src="4" channelNumber="0,1" >
             <Parameters>
              <InterpolatingParam id="155" interp="linr"  time="0/1" value="1" leadInLength="0/1"  name="volume"/>
              <Parameter id="156"  name="captions"/>
             </Parameters>
             <Attributes>
              <Attribute id="157" value="" name="ident"/>
              <Attribute id="158" value="44100" name="sampleRate"/>
              <Attribute id="159" value="16" name="bitDepth"/>
              <Attribute id="160" value="1" name="gain"/>
              <Attribute id="161" value="0" name="mixToMono"/>
             </Attributes>
            </AMFile>
            <VMFile id="162" start="41" duration="174" scalar="1/1" mediaStart="179/1" mediaDuration="174/1" trackNumber="1" src="4" >
             <Transformer>
              <VectorParam id="163"  name="translation">
               <InterpolatingParam id="164" interp="linr"  time="-9999999/1" value="0" leadInLength="0/1"  />
               <InterpolatingParam id="165" interp="linr"  time="-9999999/1" value="0" leadInLength="0/1"  />
               <InterpolatingParam id="166" interp="linr"  time="-9999999/1" value="0" leadInLength="0/1"  />
              </VectorParam>
              <VectorParam id="167"  name="rotation">
               <InterpolatingParam id="168" interp="linr"  time="-9999999/1" value="0" leadInLength="0/1"  />
               <InterpolatingParam id="169" interp="linr"  time="-9999999/1" value="0" leadInLength="0/1"  />
               <InterpolatingParam id="170" interp="linr"  time="-9999999/1" value="0" leadInLength="0/1"  />
              </VectorParam>
              <VectorParam id="171"  name="shear">
               <InterpolatingParam id="172" interp="linr"  time="-9999999/1" value="0" leadInLength="0/1"  />
               <InterpolatingParam id="173" interp="linr"  time="-9999999/1" value="0" leadInLength="0/1"  />
               <InterpolatingParam id="174" interp="linr"  time="-9999999/1" value="0" leadInLength="0/1"  />
              </VectorParam>
              <VectorParam id="175"  name="scale">
               <InterpolatingParam id="176" interp="linr"  time="-9999999/1" value="1" leadInLength="0/1"  />
               <InterpolatingParam id="177" interp="linr"  time="-9999999/1" value="1" leadInLength="0/1"  />
               <InterpolatingParam id="178" interp="linr"  time="-9999999/1" value="1" leadInLength="0/1"  />
              </VectorParam>
              <VectorParam id="179"  name="anchor">
               <InterpolatingParam id="180" interp="linr"  time="0/1" value="0" leadInLength="0/1"  />
               <InterpolatingParam id="181" interp="linr"  time="0/1" value="0" leadInLength="0/1"  />
               <InterpolatingParam id="182" interp="linr"  time="0/1" value="0" leadInLength="0/1"  />
              </VectorParam>
             </Transformer>
             <Parameters>
              <VectorParam id="183"  name="sourceCrop">
               <InterpolatingParam id="184" interp="linr"  time="0/1" value="0" leadInLength="0/1"  />
               <InterpolatingParam id="185" interp="linr"  time="0/1" value="0" leadInLength="0/1"  />
               <InterpolatingParam id="186" interp="linr"  time="0/1" value="0" leadInLength="0/1"  />
               <InterpolatingParam id="187" interp="linr"  time="0/1" value="0" leadInLength="0/1"  />
              </VectorParam>
              <VectorParam id="188"  name="geometryCrop">
               <InterpolatingParam id="189" interp="linr"  time="-9999999/1" value="0" leadInLength="0/1"  />
               <InterpolatingParam id="190" interp="linr"  time="-9999999/1" value="0" leadInLength="0/1"  />
               <InterpolatingParam id="191" interp="linr"  time="-9999999/1" value="0" leadInLength="0/1"  />
               <InterpolatingParam id="192" interp="linr"  time="-9999999/1" value="0" leadInLength="0/1"  />
              </VectorParam>
              <InterpolatingParam id="193" interp="linr"  time="-9999999/1" value="1" leadInLength="0/1"  name="opacity"/>
             </Parameters>
             <Attributes>
              <Attribute id="194" value="" name="ident"/>
             </Attributes>
             <ExtraData>
              <Entry key="ZoomPanBin">
               <ZoomPanBin id="195"  >
                <ZoomPanKeyframes>
                 <ZoomPanKeyframe id="196" timeRangeEnd="-9999999/1" timeRangeDuration="0/1" interpolaterName=""  />
                </ZoomPanKeyframes>
               </ZoomPanBin>
              </Entry>
             </ExtraData>
            </VMFile>
            <MetaData>
             <entry key="WinSubProjectDisplayName" val=""/>
            </MetaData>
           </UnifiedMedia>
           <UnifiedMedia id="197"  >
            <AMFile id="198" start="215" duration="305" scalar="1/1" mediaStart="378/1" mediaDuration="305/1" trackNumber="2" src="4" channelNumber="0,1" >
             <Parameters>
              <InterpolatingParam id="199" interp="linr"  time="0/1" value="1" leadInLength="0/1"  name="volume"/>
              <Parameter id="200"  name="captions"/>
             </Parameters>
             <Attributes>
              <Attribute id="201" value="" name="ident"/>
              <Attribute id="202" value="44100" name="sampleRate"/>
              <Attribute id="203" value="16" name="bitDepth"/>
              <Attribute id="204" value="1" name="gain"/>
              <Attribute id="205" value="0" name="mixToMono"/>
             </Attributes>
            </AMFile>
            <VMFile id="206" start="215" duration="305" scalar="1/1" mediaStart="378/1" mediaDuration="305/1" trackNumber="1" src="4" >
             <Transformer>
              <VectorParam id="207"  name="translation">
               <InterpolatingParam id="208" interp="linr"  time="-9999999/1" value="0" leadInLength="0/1"  />
               <InterpolatingParam id="209" interp="linr"  time="-9999999/1" value="0" leadInLength="0/1"  />
               <InterpolatingParam id="210" interp="linr"  time="-9999999/1" value="0" leadInLength="0/1"  />
              </VectorParam>
              <VectorParam id="211"  name="rotation">
               <InterpolatingParam id="212" interp="linr"  time="-9999999/1" value="0" leadInLength="0/1"  />
               <InterpolatingParam id="213" interp="linr"  time="-9999999/1" value="0" leadInLength="0/1"  />
               <InterpolatingParam id="214" interp="linr"  time="-9999999/1" value="0" leadInLength="0/1"  />
              </VectorParam>
              <VectorParam id="215"  name="shear">
               <InterpolatingParam id="216" interp="linr"  time="-9999999/1" value="0" leadInLength="0/1"  />
               <InterpolatingParam id="217" interp="linr"  time="-9999999/1" value="0" leadInLength="0/1"  />
               <InterpolatingParam id="218" interp="linr"  time="-9999999/1" value="0" leadInLength="0/1"  />
              </VectorParam>
              <VectorParam id="219"  name="scale">
               <InterpolatingParam id="220" interp="linr"  time="-9999999/1" value="1" leadInLength="0/1"  />
               <InterpolatingParam id="221" interp="linr"  time="-9999999/1" value="1" leadInLength="0/1"  />
               <InterpolatingParam id="222" interp="linr"  time="-9999999/1" value="1" leadInLength="0/1"  />
              </VectorParam>
              <VectorParam id="223"  name="anchor">
               <InterpolatingParam id="224" interp="linr"  time="0/1" value="0" leadInLength="0/1"  />
               <InterpolatingParam id="225" interp="linr"  time="0/1" value="0" leadInLength="0/1"  />
               <InterpolatingParam id="226" interp="linr"  time="0/1" value="0" leadInLength="0/1"  />
              </VectorParam>
             </Transformer>
             <Parameters>
              <VectorParam id="227"  name="sourceCrop">
               <InterpolatingParam id="228" interp="linr"  time="0/1" value="0" leadInLength="0/1"  />
               <InterpolatingParam id="229" interp="linr"  time="0/1" value="0" leadInLength="0/1"  />
               <InterpolatingParam id="230" interp="linr"  time="0/1" value="0" leadInLength="0/1"  />
               <InterpolatingParam id="231" interp="linr"  time="0/1" value="0" leadInLength="0/1"  />
              </VectorParam>
              <VectorParam id="232"  name="geometryCrop">
               <InterpolatingParam id="233" interp="linr"  time="-9999999/1" value="0" leadInLength="0/1"  />
               <InterpolatingParam id="234" interp="linr"  time="-9999999/1" value="0" leadInLength="0/1"  />
               <InterpolatingParam id="235" interp="linr"  time="-9999999/1" value="0" leadInLength="0/1"  />
               <InterpolatingParam id="236" interp="linr"  time="-9999999/1" value="0" leadInLength="0/1"  />
              </VectorParam>
              <InterpolatingParam id="237" interp="linr"  time="-9999999/1" value="1" leadInLength="0/1"  name="opacity"/>
             </Parameters>
             <Attributes>
              <Attribute id="238" value="" name="ident"/>
             </Attributes>
             <ExtraData>
              <Entry key="ZoomPanBin">
               <ZoomPanBin id="239"  >
                <ZoomPanKeyframes>
                 <ZoomPanKeyframe id="240" timeRangeEnd="-9999999/1" timeRangeDuration="0/1" interpolaterName=""  />
                </ZoomPanKeyframes>
               </ZoomPanBin>
              </Entry>
             </ExtraData>
            </VMFile>
            <MetaData>
             <entry key="WinSubProjectDisplayName" val=""/>
            </MetaData>
           </UnifiedMedia>
           <UnifiedMedia id="241"  >
            <AMFile id="242" start="520" duration="935" scalar="1/1" mediaStart="696/1" mediaDuration="935/1" trackNumber="2" src="4" channelNumber="0,1" >
             <Parameters>
              <InterpolatingParam id="243" interp="linr"  time="0/1" value="1" leadInLength="0/1"  name="volume"/>
              <Parameter id="244"  name="captions"/>
             </Parameters>
             <Attributes>
              <Attribute id="245" value="" name="ident"/>
              <Attribute id="246" value="44100" name="sampleRate"/>
              <Attribute id="247" value="16" name="bitDepth"/>
              <Attribute id="248" value="1" name="gain"/>
              <Attribute id="249" value="0" name="mixToMono"/>
             </Attributes>
            </AMFile>
            <VMFile id="250" start="520" duration="935" scalar="1/1" mediaStart="696/1" mediaDuration="935/1" trackNumber="1" src="4" >
             <Transformer>
              <VectorParam id="251"  name="translation">
               <InterpolatingParam id="252" interp="linr"  time="-9999999/1" value="0" leadInLength="0/1"  />
               <InterpolatingParam id="253" interp="linr"  time="-9999999/1" value="0" leadInLength="0/1"  />
               <InterpolatingParam id="254" interp="linr"  time="-9999999/1" value="0" leadInLength="0/1"  />
              </VectorParam>
              <VectorParam id="255"  name="rotation">
               <InterpolatingParam id="256" interp="linr"  time="-9999999/1" value="0" leadInLength="0/1"  />
               <InterpolatingParam id="257" interp="linr"  time="-9999999/1" value="0" leadInLength="0/1"  />
               <InterpolatingParam id="258" interp="linr"  time="-9999999/1" value="0" leadInLength="0/1"  />
              </VectorParam>
              <VectorParam id="259"  name="shear">
               <InterpolatingParam id="260" interp="linr"  time="-9999999/1" value="0" leadInLength="0/1"  />
               <InterpolatingParam id="261" interp="linr"  time="-9999999/1" value="0" leadInLength="0/1"  />
               <InterpolatingParam id="262" interp="linr"  time="-9999999/1" value="0" leadInLength="0/1"  />
              </VectorParam>
              <VectorParam id="263"  name="scale">
               <InterpolatingParam id="264" interp="linr"  time="-9999999/1" value="1" leadInLength="0/1"  />
               <InterpolatingParam id="265" interp="linr"  time="-9999999/1" value="1" leadInLength="0/1"  />
               <InterpolatingParam id="266" interp="linr"  time="-9999999/1" value="1" leadInLength="0/1"  />
              </VectorParam>
              <VectorParam id="267"  name="anchor">
               <InterpolatingParam id="268" interp="linr"  time="0/1" value="0" leadInLength="0/1"  />
               <InterpolatingParam id="269" interp="linr"  time="0/1" value="0" leadInLength="0/1"  />
               <InterpolatingParam id="270" interp="linr"  time="0/1" value="0" leadInLength="0/1"  />
              </VectorParam>
             </Transformer>
             <Parameters>
              <VectorParam id="271"  name="sourceCrop">
               <InterpolatingParam id="272" interp="linr"  time="0/1" value="0" leadInLength="0/1"  />
               <InterpolatingParam id="273" interp="linr"  time="0/1" value="0" leadInLength="0/1"  />
               <InterpolatingParam id="274" interp="linr"  time="0/1" value="0" leadInLength="0/1"  />
               <InterpolatingParam id="275" interp="linr"  time="0/1" value="0" leadInLength="0/1"  />
              </VectorParam>
              <VectorParam id="276"  name="geometryCrop">
               <InterpolatingParam id="277" interp="linr"  time="-9999999/1" value="0" leadInLength="0/1"  />
               <InterpolatingParam id="278" interp="linr"  time="-9999999/1" value="0" leadInLength="0/1"  />
               <InterpolatingParam id="279" interp="linr"  time="-9999999/1" value="0" leadInLength="0/1"  />
               <InterpolatingParam id="280" interp="linr"  time="-9999999/1" value="0" leadInLength="0/1"  />
              </VectorParam>
              <InterpolatingParam id="281" interp="linr"  time="-9999999/1" value="1" leadInLength="0/1"  name="opacity"/>
             </Parameters>
             <Attributes>
              <Attribute id="282" value="" name="ident"/>
             </Attributes>
             <ExtraData>
              <Entry key="ZoomPanBin">
               <ZoomPanBin id="283"  >
                <ZoomPanKeyframes>
                 <ZoomPanKeyframe id="284" timeRangeEnd="-9999999/1" timeRangeDuration="0/1" interpolaterName=""  />
                </ZoomPanKeyframes>
               </ZoomPanBin>
              </Entry>
             </ExtraData>
            </VMFile>
            <MetaData>
             <entry key="WinSubProjectDisplayName" val=""/>
            </MetaData>
           </UnifiedMedia>
           <UnifiedMedia id="285"  >
            <AMFile id="286" start="1455" duration="1" scalar="1/1" mediaStart="1759/1" mediaDuration="1/1" trackNumber="2" src="4" channelNumber="0,1" >
             <Parameters>
              <InterpolatingParam id="287" interp="linr"  time="0/1" value="1" leadInLength="0/1"  name="volume"/>
              <Parameter id="288"  name="captions"/>
             </Parameters>
             <Attributes>
              <Attribute id="289" value="" name="ident"/>
              <Attribute id="290" value="44100" name="sampleRate"/>
              <Attribute id="291" value="16" name="bitDepth"/>
              <Attribute id="292" value="1" name="gain"/>
              <Attribute id="293" value="0" name="mixToMono"/>
             </Attributes>
            </AMFile>
            <VMFile id="294" start="1455" duration="1" scalar="1/1" mediaStart="1759/1" mediaDuration="1/1" trackNumber="1" src="4" >
             <Transformer>
              <VectorParam id="295"  name="translation">
               <InterpolatingParam id="296" interp="linr"  time="-9999999/1" value="0" leadInLength="0/1"  />
               <InterpolatingParam id="297" interp="linr"  time="-9999999/1" value="0" leadInLength="0/1"  />
               <InterpolatingParam id="298" interp="linr"  time="-9999999/1" value="0" leadInLength="0/1"  />
              </VectorParam>
              <VectorParam id="299"  name="rotation">
               <InterpolatingParam id="300" interp="linr"  time="-9999999/1" value="0" leadInLength="0/1"  />
               <InterpolatingParam id="301" interp="linr"  time="-9999999/1" value="0" leadInLength="0/1"  />
               <InterpolatingParam id="302" interp="linr"  time="-9999999/1" value="0" leadInLength="0/1"  />
              </VectorParam>
              <VectorParam id="303"  name="shear">
               <InterpolatingParam id="304" interp="linr"  time="-9999999/1" value="0" leadInLength="0/1"  />
               <InterpolatingParam id="305" interp="linr"  time="-9999999/1" value="0" leadInLength="0/1"  />
               <InterpolatingParam id="306" interp="linr"  time="-9999999/1" value="0" leadInLength="0/1"  />
              </VectorParam>
              <VectorParam id="307"  name="scale">
               <InterpolatingParam id="308" interp="linr"  time="-9999999/1" value="1" leadInLength="0/1"  />
               <InterpolatingParam id="309" interp="linr"  time="-9999999/1" value="1" leadInLength="0/1"  />
               <InterpolatingParam id="310" interp="linr"  time="-9999999/1" value="1" leadInLength="0/1"  />
              </VectorParam>
              <VectorParam id="311"  name="anchor">
               <InterpolatingParam id="312" interp="linr"  time="0/1" value="0" leadInLength="0/1"  />
               <InterpolatingParam id="313" interp="linr"  time="0/1" value="0" leadInLength="0/1"  />
               <InterpolatingParam id="314" interp="linr"  time="0/1" value="0" leadInLength="0/1"  />
              </VectorParam>
             </Transformer>
             <Parameters>
              <VectorParam id="315"  name="sourceCrop">
               <InterpolatingParam id="316" interp="linr"  time="0/1" value="0" leadInLength="0/1"  />
               <InterpolatingParam id="317" interp="linr"  time="0/1" value="0" leadInLength="0/1"  />
               <InterpolatingParam id="318" interp="linr"  time="0/1" value="0" leadInLength="0/1"  />
               <InterpolatingParam id="319" interp="linr"  time="0/1" value="0" leadInLength="0/1"  />
              </VectorParam>
              <VectorParam id="320"  name="geometryCrop">
               <InterpolatingParam id="321" interp="linr"  time="-9999999/1" value="0" leadInLength="0/1"  />
               <InterpolatingParam id="322" interp="linr"  time="-9999999/1" value="0" leadInLength="0/1"  />
               <InterpolatingParam id="323" interp="linr"  time="-9999999/1" value="0" leadInLength="0/1"  />
               <InterpolatingParam id="324" interp="linr"  time="-9999999/1" value="0" leadInLength="0/1"  />
              </VectorParam>
              <InterpolatingParam id="325" interp="linr"  time="-9999999/1" value="1" leadInLength="0/1"  name="opacity"/>
             </Parameters>
             <Attributes>
              <Attribute id="326" value="" name="ident"/>
             </Attributes>
             <ExtraData>
              <Entry key="ZoomPanBin">
               <ZoomPanBin id="327"  >
                <ZoomPanKeyframes>
                 <ZoomPanKeyframe id="328" timeRangeEnd="-9999999/1" timeRangeDuration="0/1" interpolaterName=""  />
                </ZoomPanKeyframes>
               </ZoomPanBin>
              </Entry>
             </ExtraData>
            </VMFile>
            <MetaData>
             <entry key="WinSubProjectDisplayName" val=""/>
            </MetaData>
           </UnifiedMedia>
           <UnifiedMedia id="329"  >
            <AMFile id="330" start="1456" duration="310" scalar="1/1" mediaStart="1791/1" mediaDuration="310/1" trackNumber="2" src="4" channelNumber="0,1" >
             <Parameters>
              <InterpolatingParam id="331" interp="linr"  time="0/1" value="1" leadInLength="0/1"  name="volume"/>
              <Parameter id="332"  name="captions"/>
             </Parameters>
             <Attributes>
              <Attribute id="333" value="" name="ident"/>
              <Attribute id="334" value="44100" name="sampleRate"/>
              <Attribute id="335" value="16" name="bitDepth"/>
              <Attribute id="336" value="1" name="gain"/>
              <Attribute id="337" value="0" name="mixToMono"/>
             </Attributes>
            </AMFile>
            <VMFile id="338" start="1456" duration="310" scalar="1/1" mediaStart="1791/1" mediaDuration="310/1" trackNumber="1" src="4" >
             <Transformer>
              <VectorParam id="339"  name="translation">
               <InterpolatingParam id="340" interp="linr"  time="-9999999/1" value="0" leadInLength="0/1"  />
               <InterpolatingParam id="341" interp="linr"  time="-9999999/1" value="0" leadInLength="0/1"  />
               <InterpolatingParam id="342" interp="linr"  time="-9999999/1" value="0" leadInLength="0/1"  />
              </VectorParam>
              <VectorParam id="343"  name="rotation">
               <InterpolatingParam id="344" interp="linr"  time="-9999999/1" value="0" leadInLength="0/1"  />
               <InterpolatingParam id="345" interp="linr"  time="-9999999/1" value="0" leadInLength="0/1"  />
               <InterpolatingParam id="346" interp="linr"  time="-9999999/1" value="0" leadInLength="0/1"  />
              </VectorParam>
              <VectorParam id="347"  name="shear">
               <InterpolatingParam id="348" interp="linr"  time="-9999999/1" value="0" leadInLength="0/1"  />
               <InterpolatingParam id="349" interp="linr"  time="-9999999/1" value="0" leadInLength="0/1"  />
               <InterpolatingParam id="350" interp="linr"  time="-9999999/1" value="0" leadInLength="0/1"  />
              </VectorParam>
              <VectorParam id="351"  name="scale">
               <InterpolatingParam id="352" interp="linr"  time="-9999999/1" value="1" leadInLength="0/1"  />
               <InterpolatingParam id="353" interp="linr"  time="-9999999/1" value="1" leadInLength="0/1"  />
               <InterpolatingParam id="354" interp="linr"  time="-9999999/1" value="1" leadInLength="0/1"  />
              </VectorParam>
              <VectorParam id="355"  name="anchor">
               <InterpolatingParam id="356" interp="linr"  time="0/1" value="0" leadInLength="0/1"  />
               <InterpolatingParam id="357" interp="linr"  time="0/1" value="0" leadInLength="0/1"  />
               <InterpolatingParam id="358" interp="linr"  time="0/1" value="0" leadInLength="0/1"  />
              </VectorParam>
             </Transformer>
             <Parameters>
              <VectorParam id="359"  name="sourceCrop">
               <InterpolatingParam id="360" interp="linr"  time="0/1" value="0" leadInLength="0/1"  />
               <InterpolatingParam id="361" interp="linr"  time="0/1" value="0" leadInLength="0/1"  />
               <InterpolatingParam id="362" interp="linr"  time="0/1" value="0" leadInLength="0/1"  />
               <InterpolatingParam id="363" interp="linr"  time="0/1" value="0" leadInLength="0/1"  />
              </VectorParam>
              <VectorParam id="364"  name="geometryCrop">
               <InterpolatingParam id="365" interp="linr"  time="-9999999/1" value="0" leadInLength="0/1"  />
               <InterpolatingParam id="366" interp="linr"  time="-9999999/1" value="0" leadInLength="0/1"  />
               <InterpolatingParam id="367" interp="linr"  time="-9999999/1" value="0" leadInLength="0/1"  />
               <InterpolatingParam id="368" interp="linr"  time="-9999999/1" value="0" leadInLength="0/1"  />
              </VectorParam>
              <InterpolatingParam id="369" interp="linr"  time="-9999999/1" value="1" leadInLength="0/1"  name="opacity"/>
             </Parameters>
             <Attributes>
              <Attribute id="370" value="" name="ident"/>
             </Attributes>
             <ExtraData>
              <Entry key="ZoomPanBin">
               <ZoomPanBin id="371"  >
                <ZoomPanKeyframes>
                 <ZoomPanKeyframe id="372" timeRangeEnd="-9999999/1" timeRangeDuration="0/1" interpolaterName=""  />
                </ZoomPanKeyframes>
               </ZoomPanBin>
              </Entry>
             </ExtraData>
            </VMFile>
            <MetaData>
             <entry key="WinSubProjectDisplayName" val=""/>
            </MetaData>
           </UnifiedMedia>
           <UnifiedMedia id="373"  >
            <AMFile id="374" start="1766" duration="1444" scalar="1/1" mediaStart="2668/1" mediaDuration="1444/1" trackNumber="2" src="4" channelNumber="0,1" >
             <Parameters>
              <InterpolatingParam id="375" interp="linr"  time="0/1" value="1" leadInLength="0/1"  name="volume"/>
              <Parameter id="376"  name="captions"/>
             </Parameters>
             <Attributes>
              <Attribute id="377" value="" name="ident"/>
              <Attribute id="378" value="44100" name="sampleRate"/>
              <Attribute id="379" value="16" name="bitDepth"/>
              <Attribute id="380" value="1" name="gain"/>
              <Attribute id="381" value="0" name="mixToMono"/>
             </Attributes>
            </AMFile>
            <VMFile id="382" start="1766" duration="1444" scalar="1/1" mediaStart="2668/1" mediaDuration="1444/1" trackNumber="1" src="4" >
             <Transformer>
              <VectorParam id="383"  name="translation">
               <InterpolatingParam id="384" interp="linr"  time="-9999999/1" value="0" leadInLength="0/1"  />
               <InterpolatingParam id="385" interp="linr"  time="-9999999/1" value="0" leadInLength="0/1"  />
               <InterpolatingParam id="386" interp="linr"  time="-9999999/1" value="0" leadInLength="0/1"  />
              </VectorParam>
              <VectorParam id="387"  name="rotation">
               <InterpolatingParam id="388" interp="linr"  time="-9999999/1" value="0" leadInLength="0/1"  />
               <InterpolatingParam id="389" interp="linr"  time="-9999999/1" value="0" leadInLength="0/1"  />
               <InterpolatingParam id="390" interp="linr"  time="-9999999/1" value="0" leadInLength="0/1"  />
              </VectorParam>
              <VectorParam id="391"  name="shear">
               <InterpolatingParam id="392" interp="linr"  time="-9999999/1" value="0" leadInLength="0/1"  />
               <InterpolatingParam id="393" interp="linr"  time="-9999999/1" value="0" leadInLength="0/1"  />
               <InterpolatingParam id="394" interp="linr"  time="-9999999/1" value="0" leadInLength="0/1"  />
              </VectorParam>
              <VectorParam id="395"  name="scale">
               <InterpolatingParam id="396" interp="linr"  time="-9999999/1" value="1" leadInLength="0/1"  />
               <InterpolatingParam id="397" interp="linr"  time="-9999999/1" value="1" leadInLength="0/1"  />
               <InterpolatingParam id="398" interp="linr"  time="-9999999/1" value="1" leadInLength="0/1"  />
              </VectorParam>
              <VectorParam id="399"  name="anchor">
               <InterpolatingParam id="400" interp="linr"  time="0/1" value="0" leadInLength="0/1"  />
               <InterpolatingParam id="401" interp="linr"  time="0/1" value="0" leadInLength="0/1"  />
               <InterpolatingParam id="402" interp="linr"  time="0/1" value="0" leadInLength="0/1"  />
              </VectorParam>
             </Transformer>
             <Parameters>
              <VectorParam id="403"  name="sourceCrop">
               <InterpolatingParam id="404" interp="linr"  time="0/1" value="0" leadInLength="0/1"  />
               <InterpolatingParam id="405" interp="linr"  time="0/1" value="0" leadInLength="0/1"  />
               <InterpolatingParam id="406" interp="linr"  time="0/1" value="0" leadInLength="0/1"  />
               <InterpolatingParam id="407" interp="linr"  time="0/1" value="0" leadInLength="0/1"  />
              </VectorParam>
              <VectorParam id="408"  name="geometryCrop">
               <InterpolatingParam id="409" interp="linr"  time="-9999999/1" value="0" leadInLength="0/1"  />
               <InterpolatingParam id="410" interp="linr"  time="-9999999/1" value="0" leadInLength="0/1"  />
               <InterpolatingParam id="411" interp="linr"  time="-9999999/1" value="0" leadInLength="0/1"  />
               <InterpolatingParam id="412" interp="linr"  time="-9999999/1" value="0" leadInLength="0/1"  />
              </VectorParam>
              <InterpolatingParam id="413" interp="linr"  time="-9999999/1" value="1" leadInLength="0/1"  name="opacity"/>
             </Parameters>
             <Attributes>
              <Attribute id="414" value="" name="ident"/>
             </Attributes>
             <ExtraData>
              <Entry key="ZoomPanBin">
               <ZoomPanBin id="415"  >
                <ZoomPanKeyframes>
                 <ZoomPanKeyframe id="416" timeRangeEnd="-9999999/1" timeRangeDuration="0/1" interpolaterName=""  />
                </ZoomPanKeyframes>
               </ZoomPanBin>
              </Entry>
             </ExtraData>
            </VMFile>
            <MetaData>
             <entry key="WinSubProjectDisplayName" val=""/>
            </MetaData>
           </UnifiedMedia>
           <UnifiedMedia id="417"  >
            <AMFile id="418" start="3210" duration="279" scalar="1/1" mediaStart="4578/1" mediaDuration="279/1" trackNumber="2" src="4" channelNumber="0,1" >
             <Parameters>
              <InterpolatingParam id="419" interp="linr"  time="0/1" value="1" leadInLength="0/1"  name="volume"/>
              <Parameter id="420"  name="captions"/>
             </Parameters>
             <Attributes>
              <Attribute id="421" value="" name="ident"/>
              <Attribute id="422" value="44100" name="sampleRate"/>
              <Attribute id="423" value="16" name="bitDepth"/>
              <Attribute id="424" value="1" name="gain"/>
              <Attribute id="425" value="0" name="mixToMono"/>
             </Attributes>
            </AMFile>
            <VMFile id="426" start="3210" duration="279" scalar="1/1" mediaStart="4578/1" mediaDuration="279/1" trackNumber="1" src="4" >
             <Transformer>
              <VectorParam id="427"  name="translation">
               <InterpolatingParam id="428" interp="linr"  time="-9999999/1" value="0" leadInLength="0/1"  />
               <InterpolatingParam id="429" interp="linr"  time="-9999999/1" value="0" leadInLength="0/1"  />
               <InterpolatingParam id="430" interp="linr"  time="-9999999/1" value="0" leadInLength="0/1"  />
              </VectorParam>
              <VectorParam id="431"  name="rotation">
               <InterpolatingParam id="432" interp="linr"  time="-9999999/1" value="0" leadInLength="0/1"  />
               <InterpolatingParam id="433" interp="linr"  time="-9999999/1" value="0" leadInLength="0/1"  />
               <InterpolatingParam id="434" interp="linr"  time="-9999999/1" value="0" leadInLength="0/1"  />
              </VectorParam>
              <VectorParam id="435"  name="shear">
               <InterpolatingParam id="436" interp="linr"  time="-9999999/1" value="0" leadInLength="0/1"  />
               <InterpolatingParam id="437" interp="linr"  time="-9999999/1" value="0" leadInLength="0/1"  />
               <InterpolatingParam id="438" interp="linr"  time="-9999999/1" value="0" leadInLength="0/1"  />
              </VectorParam>
              <VectorParam id="439"  name="scale">
               <InterpolatingParam id="440" interp="linr"  time="-9999999/1" value="1" leadInLength="0/1"  />
               <InterpolatingParam id="441" interp="linr"  time="-9999999/1" value="1" leadInLength="0/1"  />
               <InterpolatingParam id="442" interp="linr"  time="-9999999/1" value="1" leadInLength="0/1"  />
              </VectorParam>
              <VectorParam id="443"  name="anchor">
               <InterpolatingParam id="444" interp="linr"  time="0/1" value="0" leadInLength="0/1"  />
               <InterpolatingParam id="445" interp="linr"  time="0/1" value="0" leadInLength="0/1"  />
               <InterpolatingParam id="446" interp="linr"  time="0/1" value="0" leadInLength="0/1"  />
              </VectorParam>
             </Transformer>
             <Parameters>
              <VectorParam id="447"  name="sourceCrop">
               <InterpolatingParam id="448" interp="linr"  time="0/1" value="0" leadInLength="0/1"  />
               <InterpolatingParam id="449" interp="linr"  time="0/1" value="0" leadInLength="0/1"  />
               <InterpolatingParam id="450" interp="linr"  time="0/1" value="0" leadInLength="0/1"  />
               <InterpolatingParam id="451" interp="linr"  time="0/1" value="0" leadInLength="0/1"  />
              </VectorParam>
              <VectorParam id="452"  name="geometryCrop">
               <InterpolatingParam id="453" interp="linr"  time="-9999999/1" value="0" leadInLength="0/1"  />
               <InterpolatingParam id="454" interp="linr"  time="-9999999/1" value="0" leadInLength="0/1"  />
               <InterpolatingParam id="455" interp="linr"  time="-9999999/1" value="0" leadInLength="0/1"  />
               <InterpolatingParam id="456" interp="linr"  time="-9999999/1" value="0" leadInLength="0/1"  />
              </VectorParam>
              <InterpolatingParam id="457" interp="linr"  time="-9999999/1" value="1" leadInLength="0/1"  name="opacity"/>
             </Parameters>
             <Attributes>
              <Attribute id="458" value="" name="ident"/>
             </Attributes>
             <ExtraData>
              <Entry key="ZoomPanBin">
               <ZoomPanBin id="459"  >
                <ZoomPanKeyframes>
                 <ZoomPanKeyframe id="460" timeRangeEnd="-9999999/1" timeRangeDuration="0/1" interpolaterName=""  />
                </ZoomPanKeyframes>
               </ZoomPanBin>
              </Entry>
             </ExtraData>
            </VMFile>
            <MetaData>
             <entry key="WinSubProjectDisplayName" val=""/>
            </MetaData>
           </UnifiedMedia>
           <UnifiedMedia id="461"  >
            <AMFile id="462" start="3489" duration="296" scalar="1/1" mediaStart="4910/1" mediaDuration="296/1" trackNumber="2" src="4" channelNumber="0,1" >
             <Parameters>
              <InterpolatingParam id="463" interp="linr"  time="0/1" value="1" leadInLength="0/1"  name="volume"/>
              <Parameter id="464"  name="captions"/>
             </Parameters>
             <Attributes>
              <Attribute id="465" value="" name="ident"/>
              <Attribute id="466" value="44100" name="sampleRate"/>
              <Attribute id="467" value="16" name="bitDepth"/>
              <Attribute id="468" value="1" name="gain"/>
              <Attribute id="469" value="0" name="mixToMono"/>
             </Attributes>
            </AMFile>
            <VMFile id="470" start="3489" duration="296" scalar="1/1" mediaStart="4910/1" mediaDuration="296/1" trackNumber="1" src="4" >
             <Transformer>
              <VectorParam id="471"  name="translation">
               <InterpolatingParam id="472" interp="linr"  time="-9999999/1" value="0" leadInLength="0/1"  />
               <InterpolatingParam id="473" interp="linr"  time="-9999999/1" value="0" leadInLength="0/1"  />
               <InterpolatingParam id="474" interp="linr"  time="-9999999/1" value="0" leadInLength="0/1"  />
              </VectorParam>
              <VectorParam id="475"  name="rotation">
               <InterpolatingParam id="476" interp="linr"  time="-9999999/1" value="0" leadInLength="0/1"  />
               <InterpolatingParam id="477" interp="linr"  time="-9999999/1" value="0" leadInLength="0/1"  />
               <InterpolatingParam id="478" interp="linr"  time="-9999999/1" value="0" leadInLength="0/1"  />
              </VectorParam>
              <VectorParam id="479"  name="shear">
               <InterpolatingParam id="480" interp="linr"  time="-9999999/1" value="0" leadInLength="0/1"  />
               <InterpolatingParam id="481" interp="linr"  time="-9999999/1" value="0" leadInLength="0/1"  />
               <InterpolatingParam id="482" interp="linr"  time="-9999999/1" value="0" leadInLength="0/1"  />
              </VectorParam>
              <VectorParam id="483"  name="scale">
               <InterpolatingParam id="484" interp="linr"  time="-9999999/1" value="1" leadInLength="0/1"  />
               <InterpolatingParam id="485" interp="linr"  time="-9999999/1" value="1" leadInLength="0/1"  />
               <InterpolatingParam id="486" interp="linr"  time="-9999999/1" value="1" leadInLength="0/1"  />
              </VectorParam>
              <VectorParam id="487"  name="anchor">
               <InterpolatingParam id="488" interp="linr"  time="0/1" value="0" leadInLength="0/1"  />
               <InterpolatingParam id="489" interp="linr"  time="0/1" value="0" leadInLength="0/1"  />
               <InterpolatingParam id="490" interp="linr"  time="0/1" value="0" leadInLength="0/1"  />
              </VectorParam>
             </Transformer>
             <Parameters>
              <VectorParam id="491"  name="sourceCrop">
               <InterpolatingParam id="492" interp="linr"  time="0/1" value="0" leadInLength="0/1"  />
               <InterpolatingParam id="493" interp="linr"  time="0/1" value="0" leadInLength="0/1"  />
               <InterpolatingParam id="494" interp="linr"  time="0/1" value="0" leadInLength="0/1"  />
               <InterpolatingParam id="495" interp="linr"  time="0/1" value="0" leadInLength="0/1"  />
              </VectorParam>
              <VectorParam id="496"  name="geometryCrop">
               <InterpolatingParam id="497" interp="linr"  time="-9999999/1" value="0" leadInLength="0/1"  />
               <InterpolatingParam id="498" interp="linr"  time="-9999999/1" value="0" leadInLength="0/1"  />
               <InterpolatingParam id="499" interp="linr"  time="-9999999/1" value="0" leadInLength="0/1"  />
               <InterpolatingParam id="500" interp="linr"  time="-9999999/1" value="0" leadInLength="0/1"  />
              </VectorParam>
              <InterpolatingParam id="501" interp="linr"  time="-9999999/1" value="1" leadInLength="0/1"  name="opacity"/>
             </Parameters>
             <Attributes>
              <Attribute id="502" value="" name="ident"/>
             </Attributes>
             <ExtraData>
              <Entry key="ZoomPanBin">
               <ZoomPanBin id="503"  >
                <ZoomPanKeyframes>
                 <ZoomPanKeyframe id="504" timeRangeEnd="-9999999/1" timeRangeDuration="0/1" interpolaterName=""  />
                </ZoomPanKeyframes>
               </ZoomPanBin>
              </Entry>
             </ExtraData>
            </VMFile>
            <MetaData>
             <entry key="WinSubProjectDisplayName" val=""/>
            </MetaData>
           </UnifiedMedia>
           <UnifiedMedia id="505"  >
            <AMFile id="506" start="3785" duration="583" scalar="1/1" mediaStart="5229/1" mediaDuration="583/1" trackNumber="2" src="4" channelNumber="0,1" >
             <Parameters>
              <InterpolatingParam id="507" interp="linr"  time="0/1" value="1" leadInLength="0/1"  name="volume"/>
              <Parameter id="508"  name="captions"/>
             </Parameters>
             <Attributes>
              <Attribute id="509" value="" name="ident"/>
              <Attribute id="510" value="44100" name="sampleRate"/>
              <Attribute id="511" value="16" name="bitDepth"/>
              <Attribute id="512" value="1" name="gain"/>
              <Attribute id="513" value="0" name="mixToMono"/>
             </Attributes>
            </AMFile>
            <VMFile id="514" start="3785" duration="583" scalar="1/1" mediaStart="5229/1" mediaDuration="583/1" trackNumber="1" src="4" >
             <Transformer>
              <VectorParam id="515"  name="translation">
               <InterpolatingParam id="516" interp="linr"  time="-9999999/1" value="0" leadInLength="0/1"  />
               <InterpolatingParam id="517" interp="linr"  time="-9999999/1" value="0" leadInLength="0/1"  />
               <InterpolatingParam id="518" interp="linr"  time="-9999999/1" value="0" leadInLength="0/1"  />
              </VectorParam>
              <VectorParam id="519"  name="rotation">
               <InterpolatingParam id="520" interp="linr"  time="-9999999/1" value="0" leadInLength="0/1"  />
               <InterpolatingParam id="521" interp="linr"  time="-9999999/1" value="0" leadInLength="0/1"  />
               <InterpolatingParam id="522" interp="linr"  time="-9999999/1" value="0" leadInLength="0/1"  />
              </VectorParam>
              <VectorParam id="523"  name="shear">
               <InterpolatingParam id="524" interp="linr"  time="-9999999/1" value="0" leadInLength="0/1"  />
               <InterpolatingParam id="525" interp="linr"  time="-9999999/1" value="0" leadInLength="0/1"  />
               <InterpolatingParam id="526" interp="linr"  time="-9999999/1" value="0" leadInLength="0/1"  />
              </VectorParam>
              <VectorParam id="527"  name="scale">
               <InterpolatingParam id="528" interp="linr"  time="-9999999/1" value="1" leadInLength="0/1"  />
               <InterpolatingParam id="529" interp="linr"  time="-9999999/1" value="1" leadInLength="0/1"  />
               <InterpolatingParam id="530" interp="linr"  time="-9999999/1" value="1" leadInLength="0/1"  />
              </VectorParam>
              <VectorParam id="531"  name="anchor">
               <InterpolatingParam id="532" interp="linr"  time="0/1" value="0" leadInLength="0/1"  />
               <InterpolatingParam id="533" interp="linr"  time="0/1" value="0" leadInLength="0/1"  />
               <InterpolatingParam id="534" interp="linr"  time="0/1" value="0" leadInLength="0/1"  />
              </VectorParam>
             </Transformer>
             <Parameters>
              <VectorParam id="535"  name="sourceCrop">
               <InterpolatingParam id="536" interp="linr"  time="0/1" value="0" leadInLength="0/1"  />
               <InterpolatingParam id="537" interp="linr"  time="0/1" value="0" leadInLength="0/1"  />
               <InterpolatingParam id="538" interp="linr"  time="0/1" value="0" leadInLength="0/1"  />
               <InterpolatingParam id="539" interp="linr"  time="0/1" value="0" leadInLength="0/1"  />
              </VectorParam>
              <VectorParam id="540"  name="geometryCrop">
               <InterpolatingParam id="541" interp="linr"  time="-9999999/1" value="0" leadInLength="0/1"  />
               <InterpolatingParam id="542" interp="linr"  time="-9999999/1" value="0" leadInLength="0/1"  />
               <InterpolatingParam id="543" interp="linr"  time="-9999999/1" value="0" leadInLength="0/1"  />
               <InterpolatingParam id="544" interp="linr"  time="-9999999/1" value="0" leadInLength="0/1"  />
              </VectorParam>
              <InterpolatingParam id="545" interp="linr"  time="-9999999/1" value="1" leadInLength="0/1"  name="opacity"/>
             </Parameters>
             <Attributes>
              <Attribute id="546" value="" name="ident"/>
             </Attributes>
             <ExtraData>
              <Entry key="ZoomPanBin">
               <ZoomPanBin id="547"  >
                <ZoomPanKeyframes>
                 <ZoomPanKeyframe id="548" timeRangeEnd="-9999999/1" timeRangeDuration="0/1" interpolaterName=""  />
                </ZoomPanKeyframes>
               </ZoomPanBin>
              </Entry>
             </ExtraData>
            </VMFile>
            <MetaData>
             <entry key="WinSubProjectDisplayName" val=""/>
            </MetaData>
           </UnifiedMedia>
           <UnifiedMedia id="549"  >
            <AMFile id="550" start="4368" duration="194" scalar="1/1" mediaStart="5892/1" mediaDuration="194/1" trackNumber="2" src="4" channelNumber="0,1" >
             <Parameters>
              <InterpolatingParam id="551" interp="linr"  time="0/1" value="1" leadInLength="0/1"  name="volume"/>
              <Parameter id="552"  name="captions"/>
             </Parameters>
             <Attributes>
              <Attribute id="553" value="" name="ident"/>
              <Attribute id="554" value="44100" name="sampleRate"/>
              <Attribute id="555" value="16" name="bitDepth"/>
              <Attribute id="556" value="1" name="gain"/>
              <Attribute id="557" value="0" name="mixToMono"/>
             </Attributes>
            </AMFile>
            <VMFile id="558" start="4368" duration="194" scalar="1/1" mediaStart="5892/1" mediaDuration="194/1" trackNumber="1" src="4" >
             <Transformer>
              <VectorParam id="559"  name="translation">
               <InterpolatingParam id="560" interp="linr"  time="-9999999/1" value="0" leadInLength="0/1"  />
               <InterpolatingParam id="561" interp="linr"  time="-9999999/1" value="0" leadInLength="0/1"  />
               <InterpolatingParam id="562" interp="linr"  time="-9999999/1" value="0" leadInLength="0/1"  />
              </VectorParam>
              <VectorParam id="563"  name="rotation">
               <InterpolatingParam id="564" interp="linr"  time="-9999999/1" value="0" leadInLength="0/1"  />
               <InterpolatingParam id="565" interp="linr"  time="-9999999/1" value="0" leadInLength="0/1"  />
               <InterpolatingParam id="566" interp="linr"  time="-9999999/1" value="0" leadInLength="0/1"  />
              </VectorParam>
              <VectorParam id="567"  name="shear">
               <InterpolatingParam id="568" interp="linr"  time="-9999999/1" value="0" leadInLength="0/1"  />
               <InterpolatingParam id="569" interp="linr"  time="-9999999/1" value="0" leadInLength="0/1"  />
               <InterpolatingParam id="570" interp="linr"  time="-9999999/1" value="0" leadInLength="0/1"  />
              </VectorParam>
              <VectorParam id="571"  name="scale">
               <InterpolatingParam id="572" interp="linr"  time="-9999999/1" value="1" leadInLength="0/1"  />
               <InterpolatingParam id="573" interp="linr"  time="-9999999/1" value="1" leadInLength="0/1"  />
               <InterpolatingParam id="574" interp="linr"  time="-9999999/1" value="1" leadInLength="0/1"  />
              </VectorParam>
              <VectorParam id="575"  name="anchor">
               <InterpolatingParam id="576" interp="linr"  time="0/1" value="0" leadInLength="0/1"  />
               <InterpolatingParam id="577" interp="linr"  time="0/1" value="0" leadInLength="0/1"  />
               <InterpolatingParam id="578" interp="linr"  time="0/1" value="0" leadInLength="0/1"  />
              </VectorParam>
             </Transformer>
             <Parameters>
              <VectorParam id="579"  name="sourceCrop">
               <InterpolatingParam id="580" interp="linr"  time="0/1" value="0" leadInLength="0/1"  />
               <InterpolatingParam id="581" interp="linr"  time="0/1" value="0" leadInLength="0/1"  />
               <InterpolatingParam id="582" interp="linr"  time="0/1" value="0" leadInLength="0/1"  />
               <InterpolatingParam id="583" interp="linr"  time="0/1" value="0" leadInLength="0/1"  />
              </VectorParam>
              <VectorParam id="584"  name="geometryCrop">
               <InterpolatingParam id="585" interp="linr"  time="-9999999/1" value="0" leadInLength="0/1"  />
               <InterpolatingParam id="586" interp="linr"  time="-9999999/1" value="0" leadInLength="0/1"  />
               <InterpolatingParam id="587" interp="linr"  time="-9999999/1" value="0" leadInLength="0/1"  />
               <InterpolatingParam id="588" interp="linr"  time="-9999999/1" value="0" leadInLength="0/1"  />
              </VectorParam>
              <InterpolatingParam id="589" interp="linr"  time="-9999999/1" value="1" leadInLength="0/1"  name="opacity"/>
             </Parameters>
             <Attributes>
              <Attribute id="590" value="" name="ident"/>
             </Attributes>
             <ExtraData>
              <Entry key="ZoomPanBin">
               <ZoomPanBin id="591"  >
                <ZoomPanKeyframes>
                 <ZoomPanKeyframe id="592" timeRangeEnd="-9999999/1" timeRangeDuration="0/1" interpolaterName=""  />
                </ZoomPanKeyframes>
               </ZoomPanBin>
              </Entry>
             </ExtraData>
            </VMFile>
            <MetaData>
             <entry key="WinSubProjectDisplayName" val=""/>
            </MetaData>
           </UnifiedMedia>
           <UnifiedMedia id="593"  >
            <AMFile id="594" start="4562" duration="5" scalar="1/1" mediaStart="6125/1" mediaDuration="5/1" trackNumber="2" src="4" channelNumber="0,1" >
             <Parameters>
              <InterpolatingParam id="595" interp="linr"  time="0/1" value="1" leadInLength="0/1"  name="volume"/>
              <Parameter id="596"  name="captions"/>
             </Parameters>
             <Attributes>
              <Attribute id="597" value="" name="ident"/>
              <Attribute id="598" value="44100" name="sampleRate"/>
              <Attribute id="599" value="16" name="bitDepth"/>
              <Attribute id="600" value="1" name="gain"/>
              <Attribute id="601" value="0" name="mixToMono"/>
             </Attributes>
            </AMFile>
            <VMFile id="602" start="4562" duration="5" scalar="1/1" mediaStart="6125/1" mediaDuration="5/1" trackNumber="1" src="4" >
             <Transformer>
              <VectorParam id="603"  name="translation">
               <InterpolatingParam id="604" interp="linr"  time="-9999999/1" value="0" leadInLength="0/1"  />
               <InterpolatingParam id="605" interp="linr"  time="-9999999/1" value="0" leadInLength="0/1"  />
               <InterpolatingParam id="606" interp="linr"  time="-9999999/1" value="0" leadInLength="0/1"  />
              </VectorParam>
              <VectorParam id="607"  name="rotation">
               <InterpolatingParam id="608" interp="linr"  time="-9999999/1" value="0" leadInLength="0/1"  />
               <InterpolatingParam id="609" interp="linr"  time="-9999999/1" value="0" leadInLength="0/1"  />
               <InterpolatingParam id="610" interp="linr"  time="-9999999/1" value="0" leadInLength="0/1"  />
              </VectorParam>
              <VectorParam id="611"  name="shear">
               <InterpolatingParam id="612" interp="linr"  time="-9999999/1" value="0" leadInLength="0/1"  />
               <InterpolatingParam id="613" interp="linr"  time="-9999999/1" value="0" leadInLength="0/1"  />
               <InterpolatingParam id="614" interp="linr"  time="-9999999/1" value="0" leadInLength="0/1"  />
              </VectorParam>
              <VectorParam id="615"  name="scale">
               <InterpolatingParam id="616" interp="linr"  time="-9999999/1" value="1" leadInLength="0/1"  />
               <InterpolatingParam id="617" interp="linr"  time="-9999999/1" value="1" leadInLength="0/1"  />
               <InterpolatingParam id="618" interp="linr"  time="-9999999/1" value="1" leadInLength="0/1"  />
              </VectorParam>
              <VectorParam id="619"  name="anchor">
               <InterpolatingParam id="620" interp="linr"  time="0/1" value="0" leadInLength="0/1"  />
               <InterpolatingParam id="621" interp="linr"  time="0/1" value="0" leadInLength="0/1"  />
               <InterpolatingParam id="622" interp="linr"  time="0/1" value="0" leadInLength="0/1"  />
              </VectorParam>
             </Transformer>
             <Parameters>
              <VectorParam id="623"  name="sourceCrop">
               <InterpolatingParam id="624" interp="linr"  time="0/1" value="0" leadInLength="0/1"  />
               <InterpolatingParam id="625" interp="linr"  time="0/1" value="0" leadInLength="0/1"  />
               <InterpolatingParam id="626" interp="linr"  time="0/1" value="0" leadInLength="0/1"  />
               <InterpolatingParam id="627" interp="linr"  time="0/1" value="0" leadInLength="0/1"  />
              </VectorParam>
              <VectorParam id="628"  name="geometryCrop">
               <InterpolatingParam id="629" interp="linr"  time="-9999999/1" value="0" leadInLength="0/1"  />
               <InterpolatingParam id="630" interp="linr"  time="-9999999/1" value="0" leadInLength="0/1"  />
               <InterpolatingParam id="631" interp="linr"  time="-9999999/1" value="0" leadInLength="0/1"  />
               <InterpolatingParam id="632" interp="linr"  time="-9999999/1" value="0" leadInLength="0/1"  />
              </VectorParam>
              <InterpolatingParam id="633" interp="linr"  time="-9999999/1" value="1" leadInLength="0/1"  name="opacity"/>
             </Parameters>
             <Attributes>
              <Attribute id="634" value="" name="ident"/>
             </Attributes>
             <ExtraData>
              <Entry key="ZoomPanBin">
               <ZoomPanBin id="635"  >
                <ZoomPanKeyframes>
                 <ZoomPanKeyframe id="636" timeRangeEnd="-9999999/1" timeRangeDuration="0/1" interpolaterName=""  />
                </ZoomPanKeyframes>
               </ZoomPanBin>
              </Entry>
             </ExtraData>
            </VMFile>
            <MetaData>
             <entry key="WinSubProjectDisplayName" val=""/>
            </MetaData>
           </UnifiedMedia>
           <UnifiedMedia id="637"  >
            <AMFile id="638" start="4567" duration="182" scalar="1/1" mediaStart="6254/1" mediaDuration="182/1" trackNumber="2" src="4" channelNumber="0,1" >
             <Parameters>
              <InterpolatingParam id="639" interp="linr"  time="0/1" value="1" leadInLength="0/1"  name="volume"/>
              <Parameter id="640"  name="captions"/>
             </Parameters>
             <Attributes>
              <Attribute id="641" value="" name="ident"/>
              <Attribute id="642" value="44100" name="sampleRate"/>
              <Attribute id="643" value="16" name="bitDepth"/>
              <Attribute id="644" value="1" name="gain"/>
              <Attribute id="645" value="0" name="mixToMono"/>
             </Attributes>
            </AMFile>
            <VMFile id="646" start="4567" duration="182" scalar="1/1" mediaStart="6254/1" mediaDuration="182/1" trackNumber="1" src="4" >
             <Transformer>
              <VectorParam id="647"  name="translation">
               <InterpolatingParam id="648" interp="linr"  time="-9999999/1" value="0" leadInLength="0/1"  />
               <InterpolatingParam id="649" interp="linr"  time="-9999999/1" value="0" leadInLength="0/1"  />
               <InterpolatingParam id="650" interp="linr"  time="-9999999/1" value="0" leadInLength="0/1"  />
              </VectorParam>
              <VectorParam id="651"  name="rotation">
               <InterpolatingParam id="652" interp="linr"  time="-9999999/1" value="0" leadInLength="0/1"  />
               <InterpolatingParam id="653" interp="linr"  time="-9999999/1" value="0" leadInLength="0/1"  />
               <InterpolatingParam id="654" interp="linr"  time="-9999999/1" value="0" leadInLength="0/1"  />
              </VectorParam>
              <VectorParam id="655"  name="shear">
               <InterpolatingParam id="656" interp="linr"  time="-9999999/1" value="0" leadInLength="0/1"  />
               <InterpolatingParam id="657" interp="linr"  time="-9999999/1" value="0" leadInLength="0/1"  />
               <InterpolatingParam id="658" interp="linr"  time="-9999999/1" value="0" leadInLength="0/1"  />
              </VectorParam>
              <VectorParam id="659"  name="scale">
               <InterpolatingParam id="660" interp="linr"  time="-9999999/1" value="1" leadInLength="0/1"  />
               <InterpolatingParam id="661" interp="linr"  time="-9999999/1" value="1" leadInLength="0/1"  />
               <InterpolatingParam id="662" interp="linr"  time="-9999999/1" value="1" leadInLength="0/1"  />
              </VectorParam>
              <VectorParam id="663"  name="anchor">
               <InterpolatingParam id="664" interp="linr"  time="0/1" value="0" leadInLength="0/1"  />
               <InterpolatingParam id="665" interp="linr"  time="0/1" value="0" leadInLength="0/1"  />
               <InterpolatingParam id="666" interp="linr"  time="0/1" value="0" leadInLength="0/1"  />
              </VectorParam>
             </Transformer>
             <Parameters>
              <VectorParam id="667"  name="sourceCrop">
               <InterpolatingParam id="668" interp="linr"  time="0/1" value="0" leadInLength="0/1"  />
               <InterpolatingParam id="669" interp="linr"  time="0/1" value="0" leadInLength="0/1"  />
               <InterpolatingParam id="670" interp="linr"  time="0/1" value="0" leadInLength="0/1"  />
               <InterpolatingParam id="671" interp="linr"  time="0/1" value="0" leadInLength="0/1"  />
              </VectorParam>
              <VectorParam id="672"  name="geometryCrop">
               <InterpolatingParam id="673" interp="linr"  time="-9999999/1" value="0" leadInLength="0/1"  />
               <InterpolatingParam id="674" interp="linr"  time="-9999999/1" value="0" leadInLength="0/1"  />
               <InterpolatingParam id="675" interp="linr"  time="-9999999/1" value="0" leadInLength="0/1"  />
               <InterpolatingParam id="676" interp="linr"  time="-9999999/1" value="0" leadInLength="0/1"  />
              </VectorParam>
              <InterpolatingParam id="677" interp="linr"  time="-9999999/1" value="1" leadInLength="0/1"  name="opacity"/>
             </Parameters>
             <Attributes>
              <Attribute id="678" value="" name="ident"/>
             </Attributes>
             <ExtraData>
              <Entry key="ZoomPanBin">
               <ZoomPanBin id="679"  >
                <ZoomPanKeyframes>
                 <ZoomPanKeyframe id="680" timeRangeEnd="-9999999/1" timeRangeDuration="0/1" interpolaterName=""  />
                </ZoomPanKeyframes>
               </ZoomPanBin>
              </Entry>
             </ExtraData>
            </VMFile>
            <MetaData>
             <entry key="WinSubProjectDisplayName" val=""/>
            </MetaData>
           </UnifiedMedia>
           <UnifiedMedia id="681"  >
            <AMFile id="682" start="4749" duration="107" scalar="1/1" mediaStart="11058/1" mediaDuration="107/1" trackNumber="2" src="4" channelNumber="0,1" >
             <Parameters>
              <InterpolatingParam id="683" interp="linr"  time="0/1" value="1" leadInLength="0/1"  name="volume"/>
              <Parameter id="684"  name="captions"/>
             </Parameters>
             <Attributes>
              <Attribute id="685" value="" name="ident"/>
              <Attribute id="686" value="44100" name="sampleRate"/>
              <Attribute id="687" value="16" name="bitDepth"/>
              <Attribute id="688" value="1" name="gain"/>
              <Attribute id="689" value="0" name="mixToMono"/>
             </Attributes>
            </AMFile>
            <VMFile id="690" start="4749" duration="107" scalar="1/1" mediaStart="11058/1" mediaDuration="107/1" trackNumber="1" src="4" >
             <Transformer>
              <VectorParam id="691"  name="translation">
               <InterpolatingParam id="692" interp="linr"  time="-9999999/1" value="0" leadInLength="0/1"  />
               <InterpolatingParam id="693" interp="linr"  time="-9999999/1" value="0" leadInLength="0/1"  />
               <InterpolatingParam id="694" interp="linr"  time="-9999999/1" value="0" leadInLength="0/1"  />
              </VectorParam>
              <VectorParam id="695"  name="rotation">
               <InterpolatingParam id="696" interp="linr"  time="-9999999/1" value="0" leadInLength="0/1"  />
               <InterpolatingParam id="697" interp="linr"  time="-9999999/1" value="0" leadInLength="0/1"  />
               <InterpolatingParam id="698" interp="linr"  time="-9999999/1" value="0" leadInLength="0/1"  />
              </VectorParam>
              <VectorParam id="699"  name="shear">
               <InterpolatingParam id="700" interp="linr"  time="-9999999/1" value="0" leadInLength="0/1"  />
               <InterpolatingParam id="701" interp="linr"  time="-9999999/1" value="0" leadInLength="0/1"  />
               <InterpolatingParam id="702" interp="linr"  time="-9999999/1" value="0" leadInLength="0/1"  />
              </VectorParam>
              <VectorParam id="703"  name="scale">
               <InterpolatingParam id="704" interp="linr"  time="-9999999/1" value="1" leadInLength="0/1"  />
               <InterpolatingParam id="705" interp="linr"  time="-9999999/1" value="1" leadInLength="0/1"  />
               <InterpolatingParam id="706" interp="linr"  time="-9999999/1" value="1" leadInLength="0/1"  />
              </VectorParam>
              <VectorParam id="707"  name="anchor">
               <InterpolatingParam id="708" interp="linr"  time="0/1" value="0" leadInLength="0/1"  />
               <InterpolatingParam id="709" interp="linr"  time="0/1" value="0" leadInLength="0/1"  />
               <InterpolatingParam id="710" interp="linr"  time="0/1" value="0" leadInLength="0/1"  />
              </VectorParam>
             </Transformer>
             <Parameters>
              <VectorParam id="711"  name="sourceCrop">
               <InterpolatingParam id="712" interp="linr"  time="0/1" value="0" leadInLength="0/1"  />
               <InterpolatingParam id="713" interp="linr"  time="0/1" value="0" leadInLength="0/1"  />
               <InterpolatingParam id="714" interp="linr"  time="0/1" value="0" leadInLength="0/1"  />
               <InterpolatingParam id="715" interp="linr"  time="0/1" value="0" leadInLength="0/1"  />
              </VectorParam>
              <VectorParam id="716"  name="geometryCrop">
               <InterpolatingParam id="717" interp="linr"  time="-9999999/1" value="0" leadInLength="0/1"  />
               <InterpolatingParam id="718" interp="linr"  time="-9999999/1" value="0" leadInLength="0/1"  />
               <InterpolatingParam id="719" interp="linr"  time="-9999999/1" value="0" leadInLength="0/1"  />
               <InterpolatingParam id="720" interp="linr"  time="-9999999/1" value="0" leadInLength="0/1"  />
              </VectorParam>
              <InterpolatingParam id="721" interp="linr"  time="-9999999/1" value="1" leadInLength="0/1"  name="opacity"/>
             </Parameters>
             <Attributes>
              <Attribute id="722" value="" name="ident"/>
             </Attributes>
             <ExtraData>
              <Entry key="ZoomPanBin">
               <ZoomPanBin id="723"  >
                <ZoomPanKeyframes>
                 <ZoomPanKeyframe id="724" timeRangeEnd="-9999999/1" timeRangeDuration="0/1" interpolaterName=""  />
                </ZoomPanKeyframes>
               </ZoomPanBin>
              </Entry>
             </ExtraData>
            </VMFile>
            <MetaData>
             <entry key="WinSubProjectDisplayName" val=""/>
            </MetaData>
           </UnifiedMedia>
          </Medias>
         </GenericTrack>
        </StitchedMedia>
       </Medias>
      </GenericTrack>
      <GenericTrack id="725"  >
       <Attributes>
        <Attribute id="726" value="" name="ident"/>
        <Attribute id="727" value="0" name="audioMuted"/>
        <Attribute id="728" value="0" name="videoHidden"/>
       </Attributes>
       <MetaData>
        <entry key="IsLocked" val="False"/>
        <entry key="WinTrackHeight" val="62"/>
       </MetaData>
       <Medias>
        <StitchedMedia id="729" start="0" duration="4761" scalar="1/1" mediaStart="0/1" mediaDuration="4761/1" minMediaStart="0/1" >
         <Transformer>
          <VectorParam id="730"  name="translation">
           <InterpolatingParam id="731" interp="linr"  time="-9999999/1" value="0" leadInLength="0/1"  interpolater="leadin-linr"  />
           <InterpolatingParam id="732" interp="linr"  time="-9999999/1" value="0" leadInLength="0/1"  interpolater="leadin-linr"  />
           <InterpolatingParam id="733" interp="linr"  time="-9999999/1" value="0" leadInLength="0/1"  interpolater="leadin-linr"  />
          </VectorParam>
          <VectorParam id="734"  name="rotation">
           <InterpolatingParam id="735" interp="linr"  time="-9999999/1" value="0" leadInLength="0/1"  interpolater="leadin-linr"  />
           <InterpolatingParam id="736" interp="linr"  time="-9999999/1" value="0" leadInLength="0/1"  interpolater="leadin-linr"  />
           <InterpolatingParam id="737" interp="linr"  time="-9999999/1" value="0" leadInLength="0/1"  interpolater="leadin-linr"  />
          </VectorParam>
          <VectorParam id="738"  name="shear">
           <InterpolatingParam id="739" interp="linr"  time="-9999999/1" value="0" leadInLength="0/1"  interpolater="leadin-linr"  />
           <InterpolatingParam id="740" interp="linr"  time="-9999999/1" value="0" leadInLength="0/1"  interpolater="leadin-linr"  />
           <InterpolatingParam id="741" interp="linr"  time="-9999999/1" value="0" leadInLength="0/1"  interpolater="leadin-linr"  />
          </VectorParam>
          <VectorParam id="742"  name="scale">
           <InterpolatingParam id="743" interp="linr"  time="-9999999/1" value="0.9375" leadInLength="0/1"  interpolater="leadin-linr"  />
           <InterpolatingParam id="744" interp="linr"  time="-9999999/1" value="0.9375" leadInLength="0/1"  interpolater="leadin-linr"  />
           <InterpolatingParam id="745" interp="linr"  time="-9999999/1" value="1" leadInLength="0/1"  interpolater="leadin-linr"  />
          </VectorParam>
          <VectorParam id="746"  name="anchor">
           <InterpolatingParam id="747" interp="linr"  time="0/1" value="0" leadInLength="0/1"  />
           <InterpolatingParam id="748" interp="linr"  time="0/1" value="0" leadInLength="0/1"  />
           <InterpolatingParam id="749" interp="linr"  time="0/1" value="0" leadInLength="0/1"  />
          </VectorParam>
         </Transformer>
         <Parameters>
          <VectorParam id="750"  name="sourceCrop">
           <InterpolatingParam id="751" interp="linr"  time="0/1" value="0" leadInLength="0/1"  />
           <InterpolatingParam id="752" interp="linr"  time="0/1" value="0" leadInLength="0/1"  />
           <InterpolatingParam id="753" interp="linr"  time="0/1" value="0" leadInLength="0/1"  />
           <InterpolatingParam id="754" interp="linr"  time="0/1" value="0" leadInLength="0/1"  />
          </VectorParam>
          <VectorParam id="755"  name="geometryCrop">
           <InterpolatingParam id="756" interp="linr"  time="-9999999/1" value="0" leadInLength="0/1"  interpolater="leadin-linr"  />
           <InterpolatingParam id="757" interp="linr"  time="-9999999/1" value="0" leadInLength="0/1"  interpolater="leadin-linr"  />
           <InterpolatingParam id="758" interp="linr"  time="-9999999/1" value="0" leadInLength="0/1"  interpolater="leadin-linr"  />
           <InterpolatingParam id="759" interp="linr"  time="-9999999/1" value="0" leadInLength="0/1"  interpolater="leadin-linr"  />
          </VectorParam>
          <InterpolatingParam id="760" interp="linr"  time="-9999999/1" value="1" leadInLength="0/1"  interpolater="leadin-linr"  name="opacity"/>
          <InterpolatingParam id="761" interp="linr"  time="0/1" value="1" leadInLength="0/1"  name="cursorOpacity"/>
          <InterpolatingParam id="762" interp="linr"  time="0/1" value="1" leadInLength="0/1"  name="cursorScale"/>
          <Parameter id="763"  name="captions"/>
         </Parameters>
         <Effects>
          <GenericEffect id="764" name = "CursorBaseEffectName" >
           <Parameters>
           <InterpolatingParam id="765" interp="linr"  time="-9999999/1" value="1" leadInLength="0/1"   name="cursorSize"/>
           <InterpolatingParam id="766" interp="linr"  time="-9999999/1" value="0" leadInLength="0/1"   name="highlightBlurRadius"/>
           <InterpolatingParam id="767" interp="linr"  time="-9999999/1" value="0" leadInLength="0/1"   name="highlightColorBlue"/>
           <InterpolatingParam id="768" interp="linr"  time="-9999999/1" value="255" leadInLength="0/1"   name="highlightColorGreen"/>
           <InterpolatingParam id="769" interp="linr"  time="-9999999/1" value="255" leadInLength="0/1"   name="highlightColorRed"/>
           <InterpolatingParam id="770" interp="linr"  time="-9999999/1" value="5" leadInLength="0/1"   name="highlightFeatherSize"/>
           <InterpolatingParam id="771" interp="linr"  time="-9999999/1" value="2" leadInLength="0/1"   name="highlightMagnification"/>
           <InterpolatingParam id="772" interp="linr"  time="-9999999/1" value="1" leadInLength="0/1"   name="highlightOpacity"/>
           <InterpolatingParam id="773" interp="linr"  time="-9999999/1" value="45" leadInLength="0/1"   name="highlightSize"/>
           <Parameter id="774"   name="highlightType">
            <Keyframes>
            <Keyframe id="775"  time="-9999999/1" value="0" leadInLength="0/1"  />
            </Keyframes>
           </Parameter>
           <InterpolatingParam id="776" interp="linr"  time="-9999999/1" value="0" leadInLength="0/1"   name="leftClickColorBlue"/>
           <InterpolatingParam id="777" interp="linr"  time="-9999999/1" value="0" leadInLength="0/1"   name="leftClickColorGreen"/>
           <InterpolatingParam id="778" interp="linr"  time="-9999999/1" value="255" leadInLength="0/1"   name="leftClickColorRed"/>
           <InterpolatingParam id="779" interp="linr"  time="-9999999/1" value="0.80000000000000004" leadInLength="0/1"   name="leftClickDuration"/>
           <InterpolatingParam id="780" interp="linr"  time="-9999999/1" value="20" leadInLength="0/1"   name="leftClickSize"/>
           <Parameter id="781"   name="leftClickSoundFilename">
            <Keyframes>
            <Keyframe id="782"  time="-9999999/1" value="" leadInLength="0/1"  />
            </Keyframes>
           </Parameter>
           <InterpolatingParam id="783" interp="linr"  time="-9999999/1" value="1" leadInLength="0/1"   name="leftClickSoundVolume"/>
           <Parameter id="784"   name="leftClickType">
            <Keyframes>
            <Keyframe id="785"  time="-9999999/1" value="0" leadInLength="0/1"  />
            </Keyframes>
           </Parameter>
           <InterpolatingParam id="786" interp="linr"  time="-9999999/1" value="1" leadInLength="0/1"   name="opacity"/>
           <InterpolatingParam id="787" interp="linr"  time="-9999999/1" value="255" leadInLength="0/1"   name="rightClickColorBlue"/>
           <InterpolatingParam id="788" interp="linr"  time="-9999999/1" value="0" leadInLength="0/1"   name="rightClickColorGreen"/>
           <InterpolatingParam id="789" interp="linr"  time="-9999999/1" value="0" leadInLength="0/1"   name="rightClickColorRed"/>
           <InterpolatingParam id="790" interp="linr"  time="-9999999/1" value="0.80000000000000004" leadInLength="0/1"   name="rightClickDuration"/>
           <InterpolatingParam id="791" interp="linr"  time="-9999999/1" value="20" leadInLength="0/1"   name="rightClickSize"/>
           <Parameter id="792"   name="rightClickSoundFilename">
            <Keyframes>
            <Keyframe id="793"  time="-9999999/1" value="" leadInLength="0/1"  />
            </Keyframes>
           </Parameter>
           <InterpolatingParam id="794" interp="linr"  time="-9999999/1" value="1" leadInLength="0/1"   name="rightClickSoundVolume"/>
           <Parameter id="795"   name="rightClickType">
            <Keyframes>
            <Keyframe id="796"  time="-9999999/1" value="0" leadInLength="0/1"  />
            </Keyframes>
           </Parameter>
           </Parameters>
          </GenericEffect>
         </Effects>
         <Attributes>
          <Attribute id="797" value="" name="ident"/>
         </Attributes>
         <MetaData>
          <entry key="AutoAppliedSmartFocus" val="False"/>
          <entry key="WinSubProjectDisplayName" val=""/>
         </MetaData>
         <ExtraData>
          <Entry key="ZoomPanBin">
           <ZoomPanBin id="798"  >
            <ZoomPanKeyframes>
             <ZoomPanKeyframe id="799" timeRangeEnd="-9999999/1" timeRangeDuration="0/1" interpolaterName="linr"  />
            </ZoomPanKeyframes>
           </ZoomPanBin>
          </Entry>
          <Entry key="CursorEffectBin">
           <CursorEffectBin id="800"  >
            <CursorEffectKeyframes>
             <CursorEffectKeyframe id="801" timeRangeEnd="-9999999/1" timeRangeDuration="0/1" interpolaterName=""  />
            </CursorEffectKeyframes>
           </CursorEffectBin>
          </Entry>
         </ExtraData>
         <GenericTrack id="802"  >
          <Attributes>
           <Attribute id="803" value="" name="ident"/>
           <Attribute id="804" value="0" name="audioMuted"/>
           <Attribute id="805" value="0" name="videoHidden"/>
          </Attributes>
          <MetaData>
           <entry key="IsLocked" val="False"/>
           <entry key="WinTrackHeight" val="0"/>
          </MetaData>
          <Medias>
           <ScreenVMFile id="806" start="0" duration="39" scalar="1/1" mediaStart="0/1" mediaDuration="39/1" trackNumber="0" src="4" >
            <Transformer>
             <VectorParam id="807"  name="translation">
              <InterpolatingParam id="808" interp="linr"  time="-9999999/1" value="0" leadInLength="0/1"  />
              <InterpolatingParam id="809" interp="linr"  time="-9999999/1" value="0" leadInLength="0/1"  />
              <InterpolatingParam id="810" interp="linr"  time="-9999999/1" value="0" leadInLength="0/1"  />
             </VectorParam>
             <VectorParam id="811"  name="rotation">
              <InterpolatingParam id="812" interp="linr"  time="-9999999/1" value="0" leadInLength="0/1"  />
              <InterpolatingParam id="813" interp="linr"  time="-9999999/1" value="0" leadInLength="0/1"  />
              <InterpolatingParam id="814" interp="linr"  time="-9999999/1" value="0" leadInLength="0/1"  />
             </VectorParam>
             <VectorParam id="815"  name="shear">
              <InterpolatingParam id="816" interp="linr"  time="-9999999/1" value="0" leadInLength="0/1"  />
              <InterpolatingParam id="817" interp="linr"  time="-9999999/1" value="0" leadInLength="0/1"  />
              <InterpolatingParam id="818" interp="linr"  time="-9999999/1" value="0" leadInLength="0/1"  />
             </VectorParam>
             <VectorParam id="819"  name="scale">
              <InterpolatingParam id="820" interp="linr"  time="-9999999/1" value="1" leadInLength="0/1"  />
              <InterpolatingParam id="821" interp="linr"  time="-9999999/1" value="1" leadInLength="0/1"  />
              <InterpolatingParam id="822" interp="linr"  time="-9999999/1" value="1" leadInLength="0/1"  />
             </VectorParam>
             <VectorParam id="823"  name="anchor">
              <InterpolatingParam id="824" interp="linr"  time="0/1" value="0" leadInLength="0/1"  />
              <InterpolatingParam id="825" interp="linr"  time="0/1" value="0" leadInLength="0/1"  />
              <InterpolatingParam id="826" interp="linr"  time="0/1" value="0" leadInLength="0/1"  />
             </VectorParam>
            </Transformer>
            <Parameters>
             <VectorParam id="827"  name="sourceCrop">
              <InterpolatingParam id="828" interp="linr"  time="0/1" value="0" leadInLength="0/1"  />
              <InterpolatingParam id="829" interp="linr"  time="0/1" value="0" leadInLength="0/1"  />
              <InterpolatingParam id="830" interp="linr"  time="0/1" value="0" leadInLength="0/1"  />
              <InterpolatingParam id="831" interp="linr"  time="0/1" value="0" leadInLength="0/1"  />
             </VectorParam>
             <VectorParam id="832"  name="geometryCrop">
              <InterpolatingParam id="833" interp="linr"  time="-9999999/1" value="0" leadInLength="0/1"  />
              <InterpolatingParam id="834" interp="linr"  time="-9999999/1" value="0" leadInLength="0/1"  />
              <InterpolatingParam id="835" interp="linr"  time="-9999999/1" value="0" leadInLength="0/1"  />
              <InterpolatingParam id="836" interp="linr"  time="-9999999/1" value="0" leadInLength="0/1"  />
             </VectorParam>
             <InterpolatingParam id="837" interp="linr"  time="-9999999/1" value="1" leadInLength="0/1"  name="opacity"/>
             <InterpolatingParam id="838" interp="linr"  time="0/1" value="0" leadInLength="0/1"  name="cursorOpacity"/>
             <InterpolatingParam id="839" interp="linr"  time="0/1" value="0" leadInLength="0/1"  name="cursorScale"/>
            </Parameters>
            <Attributes>
             <Attribute id="840" value="" name="ident"/>
            </Attributes>
            <MetaData>
             <entry key="AutoAppliedSmartFocus" val="False"/>
             <entry key="WinSubProjectDisplayName" val=""/>
            </MetaData>
            <ExtraData>
             <Entry key="ZoomPanBin">
              <ZoomPanBin id="841"  >
               <ZoomPanKeyframes>
                <ZoomPanKeyframe id="842" timeRangeEnd="-9999999/1" timeRangeDuration="0/1" interpolaterName=""  />
               </ZoomPanKeyframes>
              </ZoomPanBin>
             </Entry>
             <Entry key="CursorEffectBin">
              <CursorEffectBin id="843"  >
               <CursorEffectKeyframes>
               </CursorEffectKeyframes>
              </CursorEffectBin>
             </Entry>
            </ExtraData>
           </ScreenVMFile>
           <ScreenVMFile id="844" start="39" duration="2" scalar="1/1" mediaStart="65/1" mediaDuration="2/1" trackNumber="0" src="4" >
            <Transformer>
             <VectorParam id="845"  name="translation">
              <InterpolatingParam id="846" interp="linr"  time="-9999999/1" value="0" leadInLength="0/1"  />
              <InterpolatingParam id="847" interp="linr"  time="-9999999/1" value="0" leadInLength="0/1"  />
              <InterpolatingParam id="848" interp="linr"  time="-9999999/1" value="0" leadInLength="0/1"  />
             </VectorParam>
             <VectorParam id="849"  name="rotation">
              <InterpolatingParam id="850" interp="linr"  time="-9999999/1" value="0" leadInLength="0/1"  />
              <InterpolatingParam id="851" interp="linr"  time="-9999999/1" value="0" leadInLength="0/1"  />
              <InterpolatingParam id="852" interp="linr"  time="-9999999/1" value="0" leadInLength="0/1"  />
             </VectorParam>
             <VectorParam id="853"  name="shear">
              <InterpolatingParam id="854" interp="linr"  time="-9999999/1" value="0" leadInLength="0/1"  />
              <InterpolatingParam id="855" interp="linr"  time="-9999999/1" value="0" leadInLength="0/1"  />
              <InterpolatingParam id="856" interp="linr"  time="-9999999/1" value="0" leadInLength="0/1"  />
             </VectorParam>
             <VectorParam id="857"  name="scale">
              <InterpolatingParam id="858" interp="linr"  time="-9999999/1" value="1" leadInLength="0/1"  />
              <InterpolatingParam id="859" interp="linr"  time="-9999999/1" value="1" leadInLength="0/1"  />
              <InterpolatingParam id="860" interp="linr"  time="-9999999/1" value="1" leadInLength="0/1"  />
             </VectorParam>
             <VectorParam id="861"  name="anchor">
              <InterpolatingParam id="862" interp="linr"  time="0/1" value="0" leadInLength="0/1"  />
              <InterpolatingParam id="863" interp="linr"  time="0/1" value="0" leadInLength="0/1"  />
              <InterpolatingParam id="864" interp="linr"  time="0/1" value="0" leadInLength="0/1"  />
             </VectorParam>
            </Transformer>
            <Parameters>
             <VectorParam id="865"  name="sourceCrop">
              <InterpolatingParam id="866" interp="linr"  time="0/1" value="0" leadInLength="0/1"  />
              <InterpolatingParam id="867" interp="linr"  time="0/1" value="0" leadInLength="0/1"  />
              <InterpolatingParam id="868" interp="linr"  time="0/1" value="0" leadInLength="0/1"  />
              <InterpolatingParam id="869" interp="linr"  time="0/1" value="0" leadInLength="0/1"  />
             </VectorParam>
             <VectorParam id="870"  name="geometryCrop">
              <InterpolatingParam id="871" interp="linr"  time="-9999999/1" value="0" leadInLength="0/1"  />
              <InterpolatingParam id="872" interp="linr"  time="-9999999/1" value="0" leadInLength="0/1"  />
              <InterpolatingParam id="873" interp="linr"  time="-9999999/1" value="0" leadInLength="0/1"  />
              <InterpolatingParam id="874" interp="linr"  time="-9999999/1" value="0" leadInLength="0/1"  />
             </VectorParam>
             <InterpolatingParam id="875" interp="linr"  time="-9999999/1" value="1" leadInLength="0/1"  name="opacity"/>
             <InterpolatingParam id="876" interp="linr"  time="0/1" value="0" leadInLength="0/1"  name="cursorOpacity"/>
             <InterpolatingParam id="877" interp="linr"  time="0/1" value="0" leadInLength="0/1"  name="cursorScale"/>
            </Parameters>
            <Attributes>
             <Attribute id="878" value="" name="ident"/>
            </Attributes>
            <MetaData>
             <entry key="AutoAppliedSmartFocus" val="False"/>
             <entry key="WinSubProjectDisplayName" val=""/>
            </MetaData>
            <ExtraData>
             <Entry key="ZoomPanBin">
              <ZoomPanBin id="879"  >
               <ZoomPanKeyframes>
                <ZoomPanKeyframe id="880" timeRangeEnd="-9999999/1" timeRangeDuration="0/1" interpolaterName=""  />
               </ZoomPanKeyframes>
              </ZoomPanBin>
             </Entry>
             <Entry key="CursorEffectBin">
              <CursorEffectBin id="881"  >
               <CursorEffectKeyframes>
               </CursorEffectKeyframes>
              </CursorEffectBin>
             </Entry>
            </ExtraData>
           </ScreenVMFile>
           <ScreenVMFile id="882" start="41" duration="174" scalar="1/1" mediaStart="179/1" mediaDuration="174/1" trackNumber="0" src="4" >
            <Transformer>
             <VectorParam id="883"  name="translation">
              <InterpolatingParam id="884" interp="linr"  time="-9999999/1" value="0" leadInLength="0/1"  />
              <InterpolatingParam id="885" interp="linr"  time="-9999999/1" value="0" leadInLength="0/1"  />
              <InterpolatingParam id="886" interp="linr"  time="-9999999/1" value="0" leadInLength="0/1"  />
             </VectorParam>
             <VectorParam id="887"  name="rotation">
              <InterpolatingParam id="888" interp="linr"  time="-9999999/1" value="0" leadInLength="0/1"  />
              <InterpolatingParam id="889" interp="linr"  time="-9999999/1" value="0" leadInLength="0/1"  />
              <InterpolatingParam id="890" interp="linr"  time="-9999999/1" value="0" leadInLength="0/1"  />
             </VectorParam>
             <VectorParam id="891"  name="shear">
              <InterpolatingParam id="892" interp="linr"  time="-9999999/1" value="0" leadInLength="0/1"  />
              <InterpolatingParam id="893" interp="linr"  time="-9999999/1" value="0" leadInLength="0/1"  />
              <InterpolatingParam id="894" interp="linr"  time="-9999999/1" value="0" leadInLength="0/1"  />
             </VectorParam>
             <VectorParam id="895"  name="scale">
              <InterpolatingParam id="896" interp="linr"  time="-9999999/1" value="1" leadInLength="0/1"  />
              <InterpolatingParam id="897" interp="linr"  time="-9999999/1" value="1" leadInLength="0/1"  />
              <InterpolatingParam id="898" interp="linr"  time="-9999999/1" value="1" leadInLength="0/1"  />
             </VectorParam>
             <VectorParam id="899"  name="anchor">
              <InterpolatingParam id="900" interp="linr"  time="0/1" value="0" leadInLength="0/1"  />
              <InterpolatingParam id="901" interp="linr"  time="0/1" value="0" leadInLength="0/1"  />
              <InterpolatingParam id="902" interp="linr"  time="0/1" value="0" leadInLength="0/1"  />
             </VectorParam>
            </Transformer>
            <Parameters>
             <VectorParam id="903"  name="sourceCrop">
              <InterpolatingParam id="904" interp="linr"  time="0/1" value="0" leadInLength="0/1"  />
              <InterpolatingParam id="905" interp="linr"  time="0/1" value="0" leadInLength="0/1"  />
              <InterpolatingParam id="906" interp="linr"  time="0/1" value="0" leadInLength="0/1"  />
              <InterpolatingParam id="907" interp="linr"  time="0/1" value="0" leadInLength="0/1"  />
             </VectorParam>
             <VectorParam id="908"  name="geometryCrop">
              <InterpolatingParam id="909" interp="linr"  time="-9999999/1" value="0" leadInLength="0/1"  />
              <InterpolatingParam id="910" interp="linr"  time="-9999999/1" value="0" leadInLength="0/1"  />
              <InterpolatingParam id="911" interp="linr"  time="-9999999/1" value="0" leadInLength="0/1"  />
              <InterpolatingParam id="912" interp="linr"  time="-9999999/1" value="0" leadInLength="0/1"  />
             </VectorParam>
             <InterpolatingParam id="913" interp="linr"  time="-9999999/1" value="1" leadInLength="0/1"  name="opacity"/>
             <InterpolatingParam id="914" interp="linr"  time="0/1" value="0" leadInLength="0/1"  name="cursorOpacity"/>
             <InterpolatingParam id="915" interp="linr"  time="0/1" value="0" leadInLength="0/1"  name="cursorScale"/>
            </Parameters>
            <Attributes>
             <Attribute id="916" value="" name="ident"/>
            </Attributes>
            <MetaData>
             <entry key="AutoAppliedSmartFocus" val="False"/>
             <entry key="WinSubProjectDisplayName" val=""/>
            </MetaData>
            <ExtraData>
             <Entry key="ZoomPanBin">
              <ZoomPanBin id="917"  >
               <ZoomPanKeyframes>
                <ZoomPanKeyframe id="918" timeRangeEnd="-9999999/1" timeRangeDuration="0/1" interpolaterName=""  />
               </ZoomPanKeyframes>
              </ZoomPanBin>
             </Entry>
             <Entry key="CursorEffectBin">
              <CursorEffectBin id="919"  >
               <CursorEffectKeyframes>
               </CursorEffectKeyframes>
              </CursorEffectBin>
             </Entry>
            </ExtraData>
           </ScreenVMFile>
           <ScreenVMFile id="920" start="215" duration="305" scalar="1/1" mediaStart="378/1" mediaDuration="305/1" trackNumber="0" src="4" >
            <Transformer>
             <VectorParam id="921"  name="translation">
              <InterpolatingParam id="922" interp="linr"  time="-9999999/1" value="0" leadInLength="0/1"  />
              <InterpolatingParam id="923" interp="linr"  time="-9999999/1" value="0" leadInLength="0/1"  />
              <InterpolatingParam id="924" interp="linr"  time="-9999999/1" value="0" leadInLength="0/1"  />
             </VectorParam>
             <VectorParam id="925"  name="rotation">
              <InterpolatingParam id="926" interp="linr"  time="-9999999/1" value="0" leadInLength="0/1"  />
              <InterpolatingParam id="927" interp="linr"  time="-9999999/1" value="0" leadInLength="0/1"  />
              <InterpolatingParam id="928" interp="linr"  time="-9999999/1" value="0" leadInLength="0/1"  />
             </VectorParam>
             <VectorParam id="929"  name="shear">
              <InterpolatingParam id="930" interp="linr"  time="-9999999/1" value="0" leadInLength="0/1"  />
              <InterpolatingParam id="931" interp="linr"  time="-9999999/1" value="0" leadInLength="0/1"  />
              <InterpolatingParam id="932" interp="linr"  time="-9999999/1" value="0" leadInLength="0/1"  />
             </VectorParam>
             <VectorParam id="933"  name="scale">
              <InterpolatingParam id="934" interp="linr"  time="-9999999/1" value="1" leadInLength="0/1"  />
              <InterpolatingParam id="935" interp="linr"  time="-9999999/1" value="1" leadInLength="0/1"  />
              <InterpolatingParam id="936" interp="linr"  time="-9999999/1" value="1" leadInLength="0/1"  />
             </VectorParam>
             <VectorParam id="937"  name="anchor">
              <InterpolatingParam id="938" interp="linr"  time="0/1" value="0" leadInLength="0/1"  />
              <InterpolatingParam id="939" interp="linr"  time="0/1" value="0" leadInLength="0/1"  />
              <InterpolatingParam id="940" interp="linr"  time="0/1" value="0" leadInLength="0/1"  />
             </VectorParam>
            </Transformer>
            <Parameters>
             <VectorParam id="941"  name="sourceCrop">
              <InterpolatingParam id="942" interp="linr"  time="0/1" value="0" leadInLength="0/1"  />
              <InterpolatingParam id="943" interp="linr"  time="0/1" value="0" leadInLength="0/1"  />
              <InterpolatingParam id="944" interp="linr"  time="0/1" value="0" leadInLength="0/1"  />
              <InterpolatingParam id="945" interp="linr"  time="0/1" value="0" leadInLength="0/1"  />
             </VectorParam>
             <VectorParam id="946"  name="geometryCrop">
              <InterpolatingParam id="947" interp="linr"  time="-9999999/1" value="0" leadInLength="0/1"  />
              <InterpolatingParam id="948" interp="linr"  time="-9999999/1" value="0" leadInLength="0/1"  />
              <InterpolatingParam id="949" interp="linr"  time="-9999999/1" value="0" leadInLength="0/1"  />
              <InterpolatingParam id="950" interp="linr"  time="-9999999/1" value="0" leadInLength="0/1"  />
             </VectorParam>
             <InterpolatingParam id="951" interp="linr"  time="-9999999/1" value="1" leadInLength="0/1"  name="opacity"/>
             <InterpolatingParam id="952" interp="linr"  time="0/1" value="0" leadInLength="0/1"  name="cursorOpacity"/>
             <InterpolatingParam id="953" interp="linr"  time="0/1" value="0" leadInLength="0/1"  name="cursorScale"/>
            </Parameters>
            <Attributes>
             <Attribute id="954" value="" name="ident"/>
            </Attributes>
            <MetaData>
             <entry key="AutoAppliedSmartFocus" val="False"/>
             <entry key="WinSubProjectDisplayName" val=""/>
            </MetaData>
            <ExtraData>
             <Entry key="ZoomPanBin">
              <ZoomPanBin id="955"  >
               <ZoomPanKeyframes>
                <ZoomPanKeyframe id="956" timeRangeEnd="-9999999/1" timeRangeDuration="0/1" interpolaterName=""  />
               </ZoomPanKeyframes>
              </ZoomPanBin>
             </Entry>
             <Entry key="CursorEffectBin">
              <CursorEffectBin id="957"  >
               <CursorEffectKeyframes>
               </CursorEffectKeyframes>
              </CursorEffectBin>
             </Entry>
            </ExtraData>
           </ScreenVMFile>
           <ScreenVMFile id="958" start="520" duration="935" scalar="1/1" mediaStart="696/1" mediaDuration="935/1" trackNumber="0" src="4" >
            <Transformer>
             <VectorParam id="959"  name="translation">
              <InterpolatingParam id="960" interp="linr"  time="-9999999/1" value="0" leadInLength="0/1"  />
              <InterpolatingParam id="961" interp="linr"  time="-9999999/1" value="0" leadInLength="0/1"  />
              <InterpolatingParam id="962" interp="linr"  time="-9999999/1" value="0" leadInLength="0/1"  />
             </VectorParam>
             <VectorParam id="963"  name="rotation">
              <InterpolatingParam id="964" interp="linr"  time="-9999999/1" value="0" leadInLength="0/1"  />
              <InterpolatingParam id="965" interp="linr"  time="-9999999/1" value="0" leadInLength="0/1"  />
              <InterpolatingParam id="966" interp="linr"  time="-9999999/1" value="0" leadInLength="0/1"  />
             </VectorParam>
             <VectorParam id="967"  name="shear">
              <InterpolatingParam id="968" interp="linr"  time="-9999999/1" value="0" leadInLength="0/1"  />
              <InterpolatingParam id="969" interp="linr"  time="-9999999/1" value="0" leadInLength="0/1"  />
              <InterpolatingParam id="970" interp="linr"  time="-9999999/1" value="0" leadInLength="0/1"  />
             </VectorParam>
             <VectorParam id="971"  name="scale">
              <InterpolatingParam id="972" interp="linr"  time="-9999999/1" value="1" leadInLength="0/1"  />
              <InterpolatingParam id="973" interp="linr"  time="-9999999/1" value="1" leadInLength="0/1"  />
              <InterpolatingParam id="974" interp="linr"  time="-9999999/1" value="1" leadInLength="0/1"  />
             </VectorParam>
             <VectorParam id="975"  name="anchor">
              <InterpolatingParam id="976" interp="linr"  time="0/1" value="0" leadInLength="0/1"  />
              <InterpolatingParam id="977" interp="linr"  time="0/1" value="0" leadInLength="0/1"  />
              <InterpolatingParam id="978" interp="linr"  time="0/1" value="0" leadInLength="0/1"  />
             </VectorParam>
            </Transformer>
            <Parameters>
             <VectorParam id="979"  name="sourceCrop">
              <InterpolatingParam id="980" interp="linr"  time="0/1" value="0" leadInLength="0/1"  />
              <InterpolatingParam id="981" interp="linr"  time="0/1" value="0" leadInLength="0/1"  />
              <InterpolatingParam id="982" interp="linr"  time="0/1" value="0" leadInLength="0/1"  />
              <InterpolatingParam id="983" interp="linr"  time="0/1" value="0" leadInLength="0/1"  />
             </VectorParam>
             <VectorParam id="984"  name="geometryCrop">
              <InterpolatingParam id="985" interp="linr"  time="-9999999/1" value="0" leadInLength="0/1"  />
              <InterpolatingParam id="986" interp="linr"  time="-9999999/1" value="0" leadInLength="0/1"  />
              <InterpolatingParam id="987" interp="linr"  time="-9999999/1" value="0" leadInLength="0/1"  />
              <InterpolatingParam id="988" interp="linr"  time="-9999999/1" value="0" leadInLength="0/1"  />
             </VectorParam>
             <InterpolatingParam id="989" interp="linr"  time="-9999999/1" value="1" leadInLength="0/1"  name="opacity"/>
             <InterpolatingParam id="990" interp="linr"  time="0/1" value="0" leadInLength="0/1"  name="cursorOpacity"/>
             <InterpolatingParam id="991" interp="linr"  time="0/1" value="0" leadInLength="0/1"  name="cursorScale"/>
            </Parameters>
            <Attributes>
             <Attribute id="992" value="" name="ident"/>
            </Attributes>
            <MetaData>
             <entry key="AutoAppliedSmartFocus" val="False"/>
             <entry key="WinSubProjectDisplayName" val=""/>
            </MetaData>
            <ExtraData>
             <Entry key="ZoomPanBin">
              <ZoomPanBin id="993"  >
               <ZoomPanKeyframes>
                <ZoomPanKeyframe id="994" timeRangeEnd="-9999999/1" timeRangeDuration="0/1" interpolaterName=""  />
               </ZoomPanKeyframes>
              </ZoomPanBin>
             </Entry>
             <Entry key="CursorEffectBin">
              <CursorEffectBin id="995"  >
               <CursorEffectKeyframes>
               </CursorEffectKeyframes>
              </CursorEffectBin>
             </Entry>
            </ExtraData>
           </ScreenVMFile>
           <ScreenVMFile id="996" start="1455" duration="1" scalar="1/1" mediaStart="1759/1" mediaDuration="1/1" trackNumber="0" src="4" >
            <Transformer>
             <VectorParam id="997"  name="translation">
              <InterpolatingParam id="998" interp="linr"  time="-9999999/1" value="0" leadInLength="0/1"  />
              <InterpolatingParam id="999" interp="linr"  time="-9999999/1" value="0" leadInLength="0/1"  />
              <InterpolatingParam id="1000" interp="linr"  time="-9999999/1" value="0" leadInLength="0/1"  />
             </VectorParam>
             <VectorParam id="1001"  name="rotation">
              <InterpolatingParam id="1002" interp="linr"  time="-9999999/1" value="0" leadInLength="0/1"  />
              <InterpolatingParam id="1003" interp="linr"  time="-9999999/1" value="0" leadInLength="0/1"  />
              <InterpolatingParam id="1004" interp="linr"  time="-9999999/1" value="0" leadInLength="0/1"  />
             </VectorParam>
             <VectorParam id="1005"  name="shear">
              <InterpolatingParam id="1006" interp="linr"  time="-9999999/1" value="0" leadInLength="0/1"  />
              <InterpolatingParam id="1007" interp="linr"  time="-9999999/1" value="0" leadInLength="0/1"  />
              <InterpolatingParam id="1008" interp="linr"  time="-9999999/1" value="0" leadInLength="0/1"  />
             </VectorParam>
             <VectorParam id="1009"  name="scale">
              <InterpolatingParam id="1010" interp="linr"  time="-9999999/1" value="1" leadInLength="0/1"  />
              <InterpolatingParam id="1011" interp="linr"  time="-9999999/1" value="1" leadInLength="0/1"  />
              <InterpolatingParam id="1012" interp="linr"  time="-9999999/1" value="1" leadInLength="0/1"  />
             </VectorParam>
             <VectorParam id="1013"  name="anchor">
              <InterpolatingParam id="1014" interp="linr"  time="0/1" value="0" leadInLength="0/1"  />
              <InterpolatingParam id="1015" interp="linr"  time="0/1" value="0" leadInLength="0/1"  />
              <InterpolatingParam id="1016" interp="linr"  time="0/1" value="0" leadInLength="0/1"  />
             </VectorParam>
            </Transformer>
            <Parameters>
             <VectorParam id="1017"  name="sourceCrop">
              <InterpolatingParam id="1018" interp="linr"  time="0/1" value="0" leadInLength="0/1"  />
              <InterpolatingParam id="1019" interp="linr"  time="0/1" value="0" leadInLength="0/1"  />
              <InterpolatingParam id="1020" interp="linr"  time="0/1" value="0" leadInLength="0/1"  />
              <InterpolatingParam id="1021" interp="linr"  time="0/1" value="0" leadInLength="0/1"  />
             </VectorParam>
             <VectorParam id="1022"  name="geometryCrop">
              <InterpolatingParam id="1023" interp="linr"  time="-9999999/1" value="0" leadInLength="0/1"  />
              <InterpolatingParam id="1024" interp="linr"  time="-9999999/1" value="0" leadInLength="0/1"  />
              <InterpolatingParam id="1025" interp="linr"  time="-9999999/1" value="0" leadInLength="0/1"  />
              <InterpolatingParam id="1026" interp="linr"  time="-9999999/1" value="0" leadInLength="0/1"  />
             </VectorParam>
             <InterpolatingParam id="1027" interp="linr"  time="-9999999/1" value="1" leadInLength="0/1"  name="opacity"/>
             <InterpolatingParam id="1028" interp="linr"  time="0/1" value="0" leadInLength="0/1"  name="cursorOpacity"/>
             <InterpolatingParam id="1029" interp="linr"  time="0/1" value="0" leadInLength="0/1"  name="cursorScale"/>
            </Parameters>
            <Attributes>
             <Attribute id="1030" value="" name="ident"/>
            </Attributes>
            <MetaData>
             <entry key="AutoAppliedSmartFocus" val="False"/>
             <entry key="WinSubProjectDisplayName" val=""/>
            </MetaData>
            <ExtraData>
             <Entry key="ZoomPanBin">
              <ZoomPanBin id="1031"  >
               <ZoomPanKeyframes>
                <ZoomPanKeyframe id="1032" timeRangeEnd="-9999999/1" timeRangeDuration="0/1" interpolaterName=""  />
               </ZoomPanKeyframes>
              </ZoomPanBin>
             </Entry>
             <Entry key="CursorEffectBin">
              <CursorEffectBin id="1033"  >
               <CursorEffectKeyframes>
               </CursorEffectKeyframes>
              </CursorEffectBin>
             </Entry>
            </ExtraData>
           </ScreenVMFile>
           <ScreenVMFile id="1034" start="1456" duration="310" scalar="1/1" mediaStart="1791/1" mediaDuration="310/1" trackNumber="0" src="4" >
            <Transformer>
             <VectorParam id="1035"  name="translation">
              <InterpolatingParam id="1036" interp="linr"  time="-9999999/1" value="0" leadInLength="0/1"  />
              <InterpolatingParam id="1037" interp="linr"  time="-9999999/1" value="0" leadInLength="0/1"  />
              <InterpolatingParam id="1038" interp="linr"  time="-9999999/1" value="0" leadInLength="0/1"  />
             </VectorParam>
             <VectorParam id="1039"  name="rotation">
              <InterpolatingParam id="1040" interp="linr"  time="-9999999/1" value="0" leadInLength="0/1"  />
              <InterpolatingParam id="1041" interp="linr"  time="-9999999/1" value="0" leadInLength="0/1"  />
              <InterpolatingParam id="1042" interp="linr"  time="-9999999/1" value="0" leadInLength="0/1"  />
             </VectorParam>
             <VectorParam id="1043"  name="shear">
              <InterpolatingParam id="1044" interp="linr"  time="-9999999/1" value="0" leadInLength="0/1"  />
              <InterpolatingParam id="1045" interp="linr"  time="-9999999/1" value="0" leadInLength="0/1"  />
              <InterpolatingParam id="1046" interp="linr"  time="-9999999/1" value="0" leadInLength="0/1"  />
             </VectorParam>
             <VectorParam id="1047"  name="scale">
              <InterpolatingParam id="1048" interp="linr"  time="-9999999/1" value="1" leadInLength="0/1"  />
              <InterpolatingParam id="1049" interp="linr"  time="-9999999/1" value="1" leadInLength="0/1"  />
              <InterpolatingParam id="1050" interp="linr"  time="-9999999/1" value="1" leadInLength="0/1"  />
             </VectorParam>
             <VectorParam id="1051"  name="anchor">
              <InterpolatingParam id="1052" interp="linr"  time="0/1" value="0" leadInLength="0/1"  />
              <InterpolatingParam id="1053" interp="linr"  time="0/1" value="0" leadInLength="0/1"  />
              <InterpolatingParam id="1054" interp="linr"  time="0/1" value="0" leadInLength="0/1"  />
             </VectorParam>
            </Transformer>
            <Parameters>
             <VectorParam id="1055"  name="sourceCrop">
              <InterpolatingParam id="1056" interp="linr"  time="0/1" value="0" leadInLength="0/1"  />
              <InterpolatingParam id="1057" interp="linr"  time="0/1" value="0" leadInLength="0/1"  />
              <InterpolatingParam id="1058" interp="linr"  time="0/1" value="0" leadInLength="0/1"  />
              <InterpolatingParam id="1059" interp="linr"  time="0/1" value="0" leadInLength="0/1"  />
             </VectorParam>
             <VectorParam id="1060"  name="geometryCrop">
              <InterpolatingParam id="1061" interp="linr"  time="-9999999/1" value="0" leadInLength="0/1"  />
              <InterpolatingParam id="1062" interp="linr"  time="-9999999/1" value="0" leadInLength="0/1"  />
              <InterpolatingParam id="1063" interp="linr"  time="-9999999/1" value="0" leadInLength="0/1"  />
              <InterpolatingParam id="1064" interp="linr"  time="-9999999/1" value="0" leadInLength="0/1"  />
             </VectorParam>
             <InterpolatingParam id="1065" interp="linr"  time="-9999999/1" value="1" leadInLength="0/1"  name="opacity"/>
             <InterpolatingParam id="1066" interp="linr"  time="0/1" value="0" leadInLength="0/1"  name="cursorOpacity"/>
             <InterpolatingParam id="1067" interp="linr"  time="0/1" value="0" leadInLength="0/1"  name="cursorScale"/>
            </Parameters>
            <Attributes>
             <Attribute id="1068" value="" name="ident"/>
            </Attributes>
            <MetaData>
             <entry key="AutoAppliedSmartFocus" val="False"/>
             <entry key="WinSubProjectDisplayName" val=""/>
            </MetaData>
            <ExtraData>
             <Entry key="ZoomPanBin">
              <ZoomPanBin id="1069"  >
               <ZoomPanKeyframes>
                <ZoomPanKeyframe id="1070" timeRangeEnd="-9999999/1" timeRangeDuration="0/1" interpolaterName=""  />
               </ZoomPanKeyframes>
              </ZoomPanBin>
             </Entry>
             <Entry key="CursorEffectBin">
              <CursorEffectBin id="1071"  >
               <CursorEffectKeyframes>
               </CursorEffectKeyframes>
              </CursorEffectBin>
             </Entry>
            </ExtraData>
           </ScreenVMFile>
           <ScreenVMFile id="1072" start="1766" duration="1444" scalar="1/1" mediaStart="2668/1" mediaDuration="1444/1" trackNumber="0" src="4" >
            <Transformer>
             <VectorParam id="1073"  name="translation">
              <InterpolatingParam id="1074" interp="linr"  time="-9999999/1" value="0" leadInLength="0/1"  />
              <InterpolatingParam id="1075" interp="linr"  time="-9999999/1" value="0" leadInLength="0/1"  />
              <InterpolatingParam id="1076" interp="linr"  time="-9999999/1" value="0" leadInLength="0/1"  />
             </VectorParam>
             <VectorParam id="1077"  name="rotation">
              <InterpolatingParam id="1078" interp="linr"  time="-9999999/1" value="0" leadInLength="0/1"  />
              <InterpolatingParam id="1079" interp="linr"  time="-9999999/1" value="0" leadInLength="0/1"  />
              <InterpolatingParam id="1080" interp="linr"  time="-9999999/1" value="0" leadInLength="0/1"  />
             </VectorParam>
             <VectorParam id="1081"  name="shear">
              <InterpolatingParam id="1082" interp="linr"  time="-9999999/1" value="0" leadInLength="0/1"  />
              <InterpolatingParam id="1083" interp="linr"  time="-9999999/1" value="0" leadInLength="0/1"  />
              <InterpolatingParam id="1084" interp="linr"  time="-9999999/1" value="0" leadInLength="0/1"  />
             </VectorParam>
             <VectorParam id="1085"  name="scale">
              <InterpolatingParam id="1086" interp="linr"  time="-9999999/1" value="1" leadInLength="0/1"  />
              <InterpolatingParam id="1087" interp="linr"  time="-9999999/1" value="1" leadInLength="0/1"  />
              <InterpolatingParam id="1088" interp="linr"  time="-9999999/1" value="1" leadInLength="0/1"  />
             </VectorParam>
             <VectorParam id="1089"  name="anchor">
              <InterpolatingParam id="1090" interp="linr"  time="0/1" value="0" leadInLength="0/1"  />
              <InterpolatingParam id="1091" interp="linr"  time="0/1" value="0" leadInLength="0/1"  />
              <InterpolatingParam id="1092" interp="linr"  time="0/1" value="0" leadInLength="0/1"  />
             </VectorParam>
            </Transformer>
            <Parameters>
             <VectorParam id="1093"  name="sourceCrop">
              <InterpolatingParam id="1094" interp="linr"  time="0/1" value="0" leadInLength="0/1"  />
              <InterpolatingParam id="1095" interp="linr"  time="0/1" value="0" leadInLength="0/1"  />
              <InterpolatingParam id="1096" interp="linr"  time="0/1" value="0" leadInLength="0/1"  />
              <InterpolatingParam id="1097" interp="linr"  time="0/1" value="0" leadInLength="0/1"  />
             </VectorParam>
             <VectorParam id="1098"  name="geometryCrop">
              <InterpolatingParam id="1099" interp="linr"  time="-9999999/1" value="0" leadInLength="0/1"  />
              <InterpolatingParam id="1100" interp="linr"  time="-9999999/1" value="0" leadInLength="0/1"  />
              <InterpolatingParam id="1101" interp="linr"  time="-9999999/1" value="0" leadInLength="0/1"  />
              <InterpolatingParam id="1102" interp="linr"  time="-9999999/1" value="0" leadInLength="0/1"  />
             </VectorParam>
             <InterpolatingParam id="1103" interp="linr"  time="-9999999/1" value="1" leadInLength="0/1"  name="opacity"/>
             <InterpolatingParam id="1104" interp="linr"  time="0/1" value="0" leadInLength="0/1"  name="cursorOpacity"/>
             <InterpolatingParam id="1105" interp="linr"  time="0/1" value="0" leadInLength="0/1"  name="cursorScale"/>
            </Parameters>
            <Attributes>
             <Attribute id="1106" value="" name="ident"/>
            </Attributes>
            <MetaData>
             <entry key="AutoAppliedSmartFocus" val="False"/>
             <entry key="WinSubProjectDisplayName" val=""/>
            </MetaData>
            <ExtraData>
             <Entry key="ZoomPanBin">
              <ZoomPanBin id="1107"  >
               <ZoomPanKeyframes>
                <ZoomPanKeyframe id="1108" timeRangeEnd="-9999999/1" timeRangeDuration="0/1" interpolaterName=""  />
               </ZoomPanKeyframes>
              </ZoomPanBin>
             </Entry>
             <Entry key="CursorEffectBin">
              <CursorEffectBin id="1109"  >
               <CursorEffectKeyframes>
               </CursorEffectKeyframes>
              </CursorEffectBin>
             </Entry>
            </ExtraData>
           </ScreenVMFile>
           <ScreenVMFile id="1110" start="3210" duration="279" scalar="1/1" mediaStart="4578/1" mediaDuration="279/1" trackNumber="0" src="4" >
            <Transformer>
             <VectorParam id="1111"  name="translation">
              <InterpolatingParam id="1112" interp="linr"  time="-9999999/1" value="0" leadInLength="0/1"  />
              <InterpolatingParam id="1113" interp="linr"  time="-9999999/1" value="0" leadInLength="0/1"  />
              <InterpolatingParam id="1114" interp="linr"  time="-9999999/1" value="0" leadInLength="0/1"  />
             </VectorParam>
             <VectorParam id="1115"  name="rotation">
              <InterpolatingParam id="1116" interp="linr"  time="-9999999/1" value="0" leadInLength="0/1"  />
              <InterpolatingParam id="1117" interp="linr"  time="-9999999/1" value="0" leadInLength="0/1"  />
              <InterpolatingParam id="1118" interp="linr"  time="-9999999/1" value="0" leadInLength="0/1"  />
             </VectorParam>
             <VectorParam id="1119"  name="shear">
              <InterpolatingParam id="1120" interp="linr"  time="-9999999/1" value="0" leadInLength="0/1"  />
              <InterpolatingParam id="1121" interp="linr"  time="-9999999/1" value="0" leadInLength="0/1"  />
              <InterpolatingParam id="1122" interp="linr"  time="-9999999/1" value="0" leadInLength="0/1"  />
             </VectorParam>
             <VectorParam id="1123"  name="scale">
              <InterpolatingParam id="1124" interp="linr"  time="-9999999/1" value="1" leadInLength="0/1"  />
              <InterpolatingParam id="1125" interp="linr"  time="-9999999/1" value="1" leadInLength="0/1"  />
              <InterpolatingParam id="1126" interp="linr"  time="-9999999/1" value="1" leadInLength="0/1"  />
             </VectorParam>
             <VectorParam id="1127"  name="anchor">
              <InterpolatingParam id="1128" interp="linr"  time="0/1" value="0" leadInLength="0/1"  />
              <InterpolatingParam id="1129" interp="linr"  time="0/1" value="0" leadInLength="0/1"  />
              <InterpolatingParam id="1130" interp="linr"  time="0/1" value="0" leadInLength="0/1"  />
             </VectorParam>
            </Transformer>
            <Parameters>
             <VectorParam id="1131"  name="sourceCrop">
              <InterpolatingParam id="1132" interp="linr"  time="0/1" value="0" leadInLength="0/1"  />
              <InterpolatingParam id="1133" interp="linr"  time="0/1" value="0" leadInLength="0/1"  />
              <InterpolatingParam id="1134" interp="linr"  time="0/1" value="0" leadInLength="0/1"  />
              <InterpolatingParam id="1135" interp="linr"  time="0/1" value="0" leadInLength="0/1"  />
             </VectorParam>
             <VectorParam id="1136"  name="geometryCrop">
              <InterpolatingParam id="1137" interp="linr"  time="-9999999/1" value="0" leadInLength="0/1"  />
              <InterpolatingParam id="1138" interp="linr"  time="-9999999/1" value="0" leadInLength="0/1"  />
              <InterpolatingParam id="1139" interp="linr"  time="-9999999/1" value="0" leadInLength="0/1"  />
              <InterpolatingParam id="1140" interp="linr"  time="-9999999/1" value="0" leadInLength="0/1"  />
             </VectorParam>
             <InterpolatingParam id="1141" interp="linr"  time="-9999999/1" value="1" leadInLength="0/1"  name="opacity"/>
             <InterpolatingParam id="1142" interp="linr"  time="0/1" value="0" leadInLength="0/1"  name="cursorOpacity"/>
             <InterpolatingParam id="1143" interp="linr"  time="0/1" value="0" leadInLength="0/1"  name="cursorScale"/>
            </Parameters>
            <Attributes>
             <Attribute id="1144" value="" name="ident"/>
            </Attributes>
            <MetaData>
             <entry key="AutoAppliedSmartFocus" val="False"/>
             <entry key="WinSubProjectDisplayName" val=""/>
            </MetaData>
            <ExtraData>
             <Entry key="ZoomPanBin">
              <ZoomPanBin id="1145"  >
               <ZoomPanKeyframes>
                <ZoomPanKeyframe id="1146" timeRangeEnd="-9999999/1" timeRangeDuration="0/1" interpolaterName=""  />
               </ZoomPanKeyframes>
              </ZoomPanBin>
             </Entry>
             <Entry key="CursorEffectBin">
              <CursorEffectBin id="1147"  >
               <CursorEffectKeyframes>
               </CursorEffectKeyframes>
              </CursorEffectBin>
             </Entry>
            </ExtraData>
           </ScreenVMFile>
           <ScreenVMFile id="1148" start="3489" duration="296" scalar="1/1" mediaStart="4910/1" mediaDuration="296/1" trackNumber="0" src="4" >
            <Transformer>
             <VectorParam id="1149"  name="translation">
              <InterpolatingParam id="1150" interp="linr"  time="-9999999/1" value="0" leadInLength="0/1"  />
              <InterpolatingParam id="1151" interp="linr"  time="-9999999/1" value="0" leadInLength="0/1"  />
              <InterpolatingParam id="1152" interp="linr"  time="-9999999/1" value="0" leadInLength="0/1"  />
             </VectorParam>
             <VectorParam id="1153"  name="rotation">
              <InterpolatingParam id="1154" interp="linr"  time="-9999999/1" value="0" leadInLength="0/1"  />
              <InterpolatingParam id="1155" interp="linr"  time="-9999999/1" value="0" leadInLength="0/1"  />
              <InterpolatingParam id="1156" interp="linr"  time="-9999999/1" value="0" leadInLength="0/1"  />
             </VectorParam>
             <VectorParam id="1157"  name="shear">
              <InterpolatingParam id="1158" interp="linr"  time="-9999999/1" value="0" leadInLength="0/1"  />
              <InterpolatingParam id="1159" interp="linr"  time="-9999999/1" value="0" leadInLength="0/1"  />
              <InterpolatingParam id="1160" interp="linr"  time="-9999999/1" value="0" leadInLength="0/1"  />
             </VectorParam>
             <VectorParam id="1161"  name="scale">
              <InterpolatingParam id="1162" interp="linr"  time="-9999999/1" value="1" leadInLength="0/1"  />
              <InterpolatingParam id="1163" interp="linr"  time="-9999999/1" value="1" leadInLength="0/1"  />
              <InterpolatingParam id="1164" interp="linr"  time="-9999999/1" value="1" leadInLength="0/1"  />
             </VectorParam>
             <VectorParam id="1165"  name="anchor">
              <InterpolatingParam id="1166" interp="linr"  time="0/1" value="0" leadInLength="0/1"  />
              <InterpolatingParam id="1167" interp="linr"  time="0/1" value="0" leadInLength="0/1"  />
              <InterpolatingParam id="1168" interp="linr"  time="0/1" value="0" leadInLength="0/1"  />
             </VectorParam>
            </Transformer>
            <Parameters>
             <VectorParam id="1169"  name="sourceCrop">
              <InterpolatingParam id="1170" interp="linr"  time="0/1" value="0" leadInLength="0/1"  />
              <InterpolatingParam id="1171" interp="linr"  time="0/1" value="0" leadInLength="0/1"  />
              <InterpolatingParam id="1172" interp="linr"  time="0/1" value="0" leadInLength="0/1"  />
              <InterpolatingParam id="1173" interp="linr"  time="0/1" value="0" leadInLength="0/1"  />
             </VectorParam>
             <VectorParam id="1174"  name="geometryCrop">
              <InterpolatingParam id="1175" interp="linr"  time="-9999999/1" value="0" leadInLength="0/1"  />
              <InterpolatingParam id="1176" interp="linr"  time="-9999999/1" value="0" leadInLength="0/1"  />
              <InterpolatingParam id="1177" interp="linr"  time="-9999999/1" value="0" leadInLength="0/1"  />
              <InterpolatingParam id="1178" interp="linr"  time="-9999999/1" value="0" leadInLength="0/1"  />
             </VectorParam>
             <InterpolatingParam id="1179" interp="linr"  time="-9999999/1" value="1" leadInLength="0/1"  name="opacity"/>
             <InterpolatingParam id="1180" interp="linr"  time="0/1" value="0" leadInLength="0/1"  name="cursorOpacity"/>
             <InterpolatingParam id="1181" interp="linr"  time="0/1" value="0" leadInLength="0/1"  name="cursorScale"/>
            </Parameters>
            <Attributes>
             <Attribute id="1182" value="" name="ident"/>
            </Attributes>
            <MetaData>
             <entry key="AutoAppliedSmartFocus" val="False"/>
             <entry key="WinSubProjectDisplayName" val=""/>
            </MetaData>
            <ExtraData>
             <Entry key="ZoomPanBin">
              <ZoomPanBin id="1183"  >
               <ZoomPanKeyframes>
                <ZoomPanKeyframe id="1184" timeRangeEnd="-9999999/1" timeRangeDuration="0/1" interpolaterName=""  />
               </ZoomPanKeyframes>
              </ZoomPanBin>
             </Entry>
             <Entry key="CursorEffectBin">
              <CursorEffectBin id="1185"  >
               <CursorEffectKeyframes>
               </CursorEffectKeyframes>
              </CursorEffectBin>
             </Entry>
            </ExtraData>
           </ScreenVMFile>
           <ScreenVMFile id="1186" start="3785" duration="583" scalar="1/1" mediaStart="5229/1" mediaDuration="583/1" trackNumber="0" src="4" >
            <Transformer>
             <VectorParam id="1187"  name="translation">
              <InterpolatingParam id="1188" interp="linr"  time="-9999999/1" value="0" leadInLength="0/1"  />
              <InterpolatingParam id="1189" interp="linr"  time="-9999999/1" value="0" leadInLength="0/1"  />
              <InterpolatingParam id="1190" interp="linr"  time="-9999999/1" value="0" leadInLength="0/1"  />
             </VectorParam>
             <VectorParam id="1191"  name="rotation">
              <InterpolatingParam id="1192" interp="linr"  time="-9999999/1" value="0" leadInLength="0/1"  />
              <InterpolatingParam id="1193" interp="linr"  time="-9999999/1" value="0" leadInLength="0/1"  />
              <InterpolatingParam id="1194" interp="linr"  time="-9999999/1" value="0" leadInLength="0/1"  />
             </VectorParam>
             <VectorParam id="1195"  name="shear">
              <InterpolatingParam id="1196" interp="linr"  time="-9999999/1" value="0" leadInLength="0/1"  />
              <InterpolatingParam id="1197" interp="linr"  time="-9999999/1" value="0" leadInLength="0/1"  />
              <InterpolatingParam id="1198" interp="linr"  time="-9999999/1" value="0" leadInLength="0/1"  />
             </VectorParam>
             <VectorParam id="1199"  name="scale">
              <InterpolatingParam id="1200" interp="linr"  time="-9999999/1" value="1" leadInLength="0/1"  />
              <InterpolatingParam id="1201" interp="linr"  time="-9999999/1" value="1" leadInLength="0/1"  />
              <InterpolatingParam id="1202" interp="linr"  time="-9999999/1" value="1" leadInLength="0/1"  />
             </VectorParam>
             <VectorParam id="1203"  name="anchor">
              <InterpolatingParam id="1204" interp="linr"  time="0/1" value="0" leadInLength="0/1"  />
              <InterpolatingParam id="1205" interp="linr"  time="0/1" value="0" leadInLength="0/1"  />
              <InterpolatingParam id="1206" interp="linr"  time="0/1" value="0" leadInLength="0/1"  />
             </VectorParam>
            </Transformer>
            <Parameters>
             <VectorParam id="1207"  name="sourceCrop">
              <InterpolatingParam id="1208" interp="linr"  time="0/1" value="0" leadInLength="0/1"  />
              <InterpolatingParam id="1209" interp="linr"  time="0/1" value="0" leadInLength="0/1"  />
              <InterpolatingParam id="1210" interp="linr"  time="0/1" value="0" leadInLength="0/1"  />
              <InterpolatingParam id="1211" interp="linr"  time="0/1" value="0" leadInLength="0/1"  />
             </VectorParam>
             <VectorParam id="1212"  name="geometryCrop">
              <InterpolatingParam id="1213" interp="linr"  time="-9999999/1" value="0" leadInLength="0/1"  />
              <InterpolatingParam id="1214" interp="linr"  time="-9999999/1" value="0" leadInLength="0/1"  />
              <InterpolatingParam id="1215" interp="linr"  time="-9999999/1" value="0" leadInLength="0/1"  />
              <InterpolatingParam id="1216" interp="linr"  time="-9999999/1" value="0" leadInLength="0/1"  />
             </VectorParam>
             <InterpolatingParam id="1217" interp="linr"  time="-9999999/1" value="1" leadInLength="0/1"  name="opacity"/>
             <InterpolatingParam id="1218" interp="linr"  time="0/1" value="0" leadInLength="0/1"  name="cursorOpacity"/>
             <InterpolatingParam id="1219" interp="linr"  time="0/1" value="0" leadInLength="0/1"  name="cursorScale"/>
            </Parameters>
            <Attributes>
             <Attribute id="1220" value="" name="ident"/>
            </Attributes>
            <MetaData>
             <entry key="AutoAppliedSmartFocus" val="False"/>
             <entry key="WinSubProjectDisplayName" val=""/>
            </MetaData>
            <ExtraData>
             <Entry key="ZoomPanBin">
              <ZoomPanBin id="1221"  >
               <ZoomPanKeyframes>
                <ZoomPanKeyframe id="1222" timeRangeEnd="-9999999/1" timeRangeDuration="0/1" interpolaterName=""  />
               </ZoomPanKeyframes>
              </ZoomPanBin>
             </Entry>
             <Entry key="CursorEffectBin">
              <CursorEffectBin id="1223"  >
               <CursorEffectKeyframes>
               </CursorEffectKeyframes>
              </CursorEffectBin>
             </Entry>
            </ExtraData>
           </ScreenVMFile>
           <ScreenVMFile id="1224" start="4368" duration="194" scalar="1/1" mediaStart="5892/1" mediaDuration="194/1" trackNumber="0" src="4" >
            <Transformer>
             <VectorParam id="1225"  name="translation">
              <InterpolatingParam id="1226" interp="linr"  time="-9999999/1" value="0" leadInLength="0/1"  />
              <InterpolatingParam id="1227" interp="linr"  time="-9999999/1" value="0" leadInLength="0/1"  />
              <InterpolatingParam id="1228" interp="linr"  time="-9999999/1" value="0" leadInLength="0/1"  />
             </VectorParam>
             <VectorParam id="1229"  name="rotation">
              <InterpolatingParam id="1230" interp="linr"  time="-9999999/1" value="0" leadInLength="0/1"  />
              <InterpolatingParam id="1231" interp="linr"  time="-9999999/1" value="0" leadInLength="0/1"  />
              <InterpolatingParam id="1232" interp="linr"  time="-9999999/1" value="0" leadInLength="0/1"  />
             </VectorParam>
             <VectorParam id="1233"  name="shear">
              <InterpolatingParam id="1234" interp="linr"  time="-9999999/1" value="0" leadInLength="0/1"  />
              <InterpolatingParam id="1235" interp="linr"  time="-9999999/1" value="0" leadInLength="0/1"  />
              <InterpolatingParam id="1236" interp="linr"  time="-9999999/1" value="0" leadInLength="0/1"  />
             </VectorParam>
             <VectorParam id="1237"  name="scale">
              <InterpolatingParam id="1238" interp="linr"  time="-9999999/1" value="1" leadInLength="0/1"  />
              <InterpolatingParam id="1239" interp="linr"  time="-9999999/1" value="1" leadInLength="0/1"  />
              <InterpolatingParam id="1240" interp="linr"  time="-9999999/1" value="1" leadInLength="0/1"  />
             </VectorParam>
             <VectorParam id="1241"  name="anchor">
              <InterpolatingParam id="1242" interp="linr"  time="0/1" value="0" leadInLength="0/1"  />
              <InterpolatingParam id="1243" interp="linr"  time="0/1" value="0" leadInLength="0/1"  />
              <InterpolatingParam id="1244" interp="linr"  time="0/1" value="0" leadInLength="0/1"  />
             </VectorParam>
            </Transformer>
            <Parameters>
             <VectorParam id="1245"  name="sourceCrop">
              <InterpolatingParam id="1246" interp="linr"  time="0/1" value="0" leadInLength="0/1"  />
              <InterpolatingParam id="1247" interp="linr"  time="0/1" value="0" leadInLength="0/1"  />
              <InterpolatingParam id="1248" interp="linr"  time="0/1" value="0" leadInLength="0/1"  />
              <InterpolatingParam id="1249" interp="linr"  time="0/1" value="0" leadInLength="0/1"  />
             </VectorParam>
             <VectorParam id="1250"  name="geometryCrop">
              <InterpolatingParam id="1251" interp="linr"  time="-9999999/1" value="0" leadInLength="0/1"  />
              <InterpolatingParam id="1252" interp="linr"  time="-9999999/1" value="0" leadInLength="0/1"  />
              <InterpolatingParam id="1253" interp="linr"  time="-9999999/1" value="0" leadInLength="0/1"  />
              <InterpolatingParam id="1254" interp="linr"  time="-9999999/1" value="0" leadInLength="0/1"  />
             </VectorParam>
             <InterpolatingParam id="1255" interp="linr"  time="-9999999/1" value="1" leadInLength="0/1"  name="opacity"/>
             <InterpolatingParam id="1256" interp="linr"  time="0/1" value="0" leadInLength="0/1"  name="cursorOpacity"/>
             <InterpolatingParam id="1257" interp="linr"  time="0/1" value="0" leadInLength="0/1"  name="cursorScale"/>
            </Parameters>
            <Attributes>
             <Attribute id="1258" value="" name="ident"/>
            </Attributes>
            <MetaData>
             <entry key="AutoAppliedSmartFocus" val="False"/>
             <entry key="WinSubProjectDisplayName" val=""/>
            </MetaData>
            <ExtraData>
             <Entry key="ZoomPanBin">
              <ZoomPanBin id="1259"  >
               <ZoomPanKeyframes>
                <ZoomPanKeyframe id="1260" timeRangeEnd="-9999999/1" timeRangeDuration="0/1" interpolaterName=""  />
               </ZoomPanKeyframes>
              </ZoomPanBin>
             </Entry>
             <Entry key="CursorEffectBin">
              <CursorEffectBin id="1261"  >
               <CursorEffectKeyframes>
               </CursorEffectKeyframes>
              </CursorEffectBin>
             </Entry>
            </ExtraData>
           </ScreenVMFile>
           <ScreenVMFile id="1262" start="4562" duration="5" scalar="1/1" mediaStart="6125/1" mediaDuration="5/1" trackNumber="0" src="4" >
            <Transformer>
             <VectorParam id="1263"  name="translation">
              <InterpolatingParam id="1264" interp="linr"  time="-9999999/1" value="0" leadInLength="0/1"  />
              <InterpolatingParam id="1265" interp="linr"  time="-9999999/1" value="0" leadInLength="0/1"  />
              <InterpolatingParam id="1266" interp="linr"  time="-9999999/1" value="0" leadInLength="0/1"  />
             </VectorParam>
             <VectorParam id="1267"  name="rotation">
              <InterpolatingParam id="1268" interp="linr"  time="-9999999/1" value="0" leadInLength="0/1"  />
              <InterpolatingParam id="1269" interp="linr"  time="-9999999/1" value="0" leadInLength="0/1"  />
              <InterpolatingParam id="1270" interp="linr"  time="-9999999/1" value="0" leadInLength="0/1"  />
             </VectorParam>
             <VectorParam id="1271"  name="shear">
              <InterpolatingParam id="1272" interp="linr"  time="-9999999/1" value="0" leadInLength="0/1"  />
              <InterpolatingParam id="1273" interp="linr"  time="-9999999/1" value="0" leadInLength="0/1"  />
              <InterpolatingParam id="1274" interp="linr"  time="-9999999/1" value="0" leadInLength="0/1"  />
             </VectorParam>
             <VectorParam id="1275"  name="scale">
              <InterpolatingParam id="1276" interp="linr"  time="-9999999/1" value="1" leadInLength="0/1"  />
              <InterpolatingParam id="1277" interp="linr"  time="-9999999/1" value="1" leadInLength="0/1"  />
              <InterpolatingParam id="1278" interp="linr"  time="-9999999/1" value="1" leadInLength="0/1"  />
             </VectorParam>
             <VectorParam id="1279"  name="anchor">
              <InterpolatingParam id="1280" interp="linr"  time="0/1" value="0" leadInLength="0/1"  />
              <InterpolatingParam id="1281" interp="linr"  time="0/1" value="0" leadInLength="0/1"  />
              <InterpolatingParam id="1282" interp="linr"  time="0/1" value="0" leadInLength="0/1"  />
             </VectorParam>
            </Transformer>
            <Parameters>
             <VectorParam id="1283"  name="sourceCrop">
              <InterpolatingParam id="1284" interp="linr"  time="0/1" value="0" leadInLength="0/1"  />
              <InterpolatingParam id="1285" interp="linr"  time="0/1" value="0" leadInLength="0/1"  />
              <InterpolatingParam id="1286" interp="linr"  time="0/1" value="0" leadInLength="0/1"  />
              <InterpolatingParam id="1287" interp="linr"  time="0/1" value="0" leadInLength="0/1"  />
             </VectorParam>
             <VectorParam id="1288"  name="geometryCrop">
              <InterpolatingParam id="1289" interp="linr"  time="-9999999/1" value="0" leadInLength="0/1"  />
              <InterpolatingParam id="1290" interp="linr"  time="-9999999/1" value="0" leadInLength="0/1"  />
              <InterpolatingParam id="1291" interp="linr"  time="-9999999/1" value="0" leadInLength="0/1"  />
              <InterpolatingParam id="1292" interp="linr"  time="-9999999/1" value="0" leadInLength="0/1"  />
             </VectorParam>
             <InterpolatingParam id="1293" interp="linr"  time="-9999999/1" value="1" leadInLength="0/1"  name="opacity"/>
             <InterpolatingParam id="1294" interp="linr"  time="0/1" value="0" leadInLength="0/1"  name="cursorOpacity"/>
             <InterpolatingParam id="1295" interp="linr"  time="0/1" value="0" leadInLength="0/1"  name="cursorScale"/>
            </Parameters>
            <Attributes>
             <Attribute id="1296" value="" name="ident"/>
            </Attributes>
            <MetaData>
             <entry key="AutoAppliedSmartFocus" val="False"/>
             <entry key="WinSubProjectDisplayName" val=""/>
            </MetaData>
            <ExtraData>
             <Entry key="ZoomPanBin">
              <ZoomPanBin id="1297"  >
               <ZoomPanKeyframes>
                <ZoomPanKeyframe id="1298" timeRangeEnd="-9999999/1" timeRangeDuration="0/1" interpolaterName=""  />
               </ZoomPanKeyframes>
              </ZoomPanBin>
             </Entry>
             <Entry key="CursorEffectBin">
              <CursorEffectBin id="1299"  >
               <CursorEffectKeyframes>
               </CursorEffectKeyframes>
              </CursorEffectBin>
             </Entry>
            </ExtraData>
           </ScreenVMFile>
           <ScreenVMFile id="1300" start="4567" duration="182" scalar="1/1" mediaStart="6254/1" mediaDuration="182/1" trackNumber="0" src="4" >
            <Transformer>
             <VectorParam id="1301"  name="translation">
              <InterpolatingParam id="1302" interp="linr"  time="-9999999/1" value="0" leadInLength="0/1"  />
              <InterpolatingParam id="1303" interp="linr"  time="-9999999/1" value="0" leadInLength="0/1"  />
              <InterpolatingParam id="1304" interp="linr"  time="-9999999/1" value="0" leadInLength="0/1"  />
             </VectorParam>
             <VectorParam id="1305"  name="rotation">
              <InterpolatingParam id="1306" interp="linr"  time="-9999999/1" value="0" leadInLength="0/1"  />
              <InterpolatingParam id="1307" interp="linr"  time="-9999999/1" value="0" leadInLength="0/1"  />
              <InterpolatingParam id="1308" interp="linr"  time="-9999999/1" value="0" leadInLength="0/1"  />
             </VectorParam>
             <VectorParam id="1309"  name="shear">
              <InterpolatingParam id="1310" interp="linr"  time="-9999999/1" value="0" leadInLength="0/1"  />
              <InterpolatingParam id="1311" interp="linr"  time="-9999999/1" value="0" leadInLength="0/1"  />
              <InterpolatingParam id="1312" interp="linr"  time="-9999999/1" value="0" leadInLength="0/1"  />
             </VectorParam>
             <VectorParam id="1313"  name="scale">
              <InterpolatingParam id="1314" interp="linr"  time="-9999999/1" value="1" leadInLength="0/1"  />
              <InterpolatingParam id="1315" interp="linr"  time="-9999999/1" value="1" leadInLength="0/1"  />
              <InterpolatingParam id="1316" interp="linr"  time="-9999999/1" value="1" leadInLength="0/1"  />
             </VectorParam>
             <VectorParam id="1317"  name="anchor">
              <InterpolatingParam id="1318" interp="linr"  time="0/1" value="0" leadInLength="0/1"  />
              <InterpolatingParam id="1319" interp="linr"  time="0/1" value="0" leadInLength="0/1"  />
              <InterpolatingParam id="1320" interp="linr"  time="0/1" value="0" leadInLength="0/1"  />
             </VectorParam>
            </Transformer>
            <Parameters>
             <VectorParam id="1321"  name="sourceCrop">
              <InterpolatingParam id="1322" interp="linr"  time="0/1" value="0" leadInLength="0/1"  />
              <InterpolatingParam id="1323" interp="linr"  time="0/1" value="0" leadInLength="0/1"  />
              <InterpolatingParam id="1324" interp="linr"  time="0/1" value="0" leadInLength="0/1"  />
              <InterpolatingParam id="1325" interp="linr"  time="0/1" value="0" leadInLength="0/1"  />
             </VectorParam>
             <VectorParam id="1326"  name="geometryCrop">
              <InterpolatingParam id="1327" interp="linr"  time="-9999999/1" value="0" leadInLength="0/1"  />
              <InterpolatingParam id="1328" interp="linr"  time="-9999999/1" value="0" leadInLength="0/1"  />
              <InterpolatingParam id="1329" interp="linr"  time="-9999999/1" value="0" leadInLength="0/1"  />
              <InterpolatingParam id="1330" interp="linr"  time="-9999999/1" value="0" leadInLength="0/1"  />
             </VectorParam>
             <InterpolatingParam id="1331" interp="linr"  time="-9999999/1" value="1" leadInLength="0/1"  name="opacity"/>
             <InterpolatingParam id="1332" interp="linr"  time="0/1" value="0" leadInLength="0/1"  name="cursorOpacity"/>
             <InterpolatingParam id="1333" interp="linr"  time="0/1" value="0" leadInLength="0/1"  name="cursorScale"/>
            </Parameters>
            <Attributes>
             <Attribute id="1334" value="" name="ident"/>
            </Attributes>
            <MetaData>
             <entry key="AutoAppliedSmartFocus" val="False"/>
             <entry key="WinSubProjectDisplayName" val=""/>
            </MetaData>
            <ExtraData>
             <Entry key="ZoomPanBin">
              <ZoomPanBin id="1335"  >
               <ZoomPanKeyframes>
                <ZoomPanKeyframe id="1336" timeRangeEnd="-9999999/1" timeRangeDuration="0/1" interpolaterName=""  />
               </ZoomPanKeyframes>
              </ZoomPanBin>
             </Entry>
             <Entry key="CursorEffectBin">
              <CursorEffectBin id="1337"  >
               <CursorEffectKeyframes>
               </CursorEffectKeyframes>
              </CursorEffectBin>
             </Entry>
            </ExtraData>
           </ScreenVMFile>
           <ScreenVMFile id="1338" start="4749" duration="12" scalar="1/1" mediaStart="11165/1" mediaDuration="12/1" trackNumber="0" src="4" >
            <Transformer>
             <VectorParam id="1339"  name="translation">
              <InterpolatingParam id="1340" interp="linr"  time="-9999999/1" value="0" leadInLength="0/1"  />
              <InterpolatingParam id="1341" interp="linr"  time="-9999999/1" value="0" leadInLength="0/1"  />
              <InterpolatingParam id="1342" interp="linr"  time="-9999999/1" value="0" leadInLength="0/1"  />
             </VectorParam>
             <VectorParam id="1343"  name="rotation">
              <InterpolatingParam id="1344" interp="linr"  time="-9999999/1" value="0" leadInLength="0/1"  />
              <InterpolatingParam id="1345" interp="linr"  time="-9999999/1" value="0" leadInLength="0/1"  />
              <InterpolatingParam id="1346" interp="linr"  time="-9999999/1" value="0" leadInLength="0/1"  />
             </VectorParam>
             <VectorParam id="1347"  name="shear">
              <InterpolatingParam id="1348" interp="linr"  time="-9999999/1" value="0" leadInLength="0/1"  />
              <InterpolatingParam id="1349" interp="linr"  time="-9999999/1" value="0" leadInLength="0/1"  />
              <InterpolatingParam id="1350" interp="linr"  time="-9999999/1" value="0" leadInLength="0/1"  />
             </VectorParam>
             <VectorParam id="1351"  name="scale">
              <InterpolatingParam id="1352" interp="linr"  time="-9999999/1" value="1" leadInLength="0/1"  />
              <InterpolatingParam id="1353" interp="linr"  time="-9999999/1" value="1" leadInLength="0/1"  />
              <InterpolatingParam id="1354" interp="linr"  time="-9999999/1" value="1" leadInLength="0/1"  />
             </VectorParam>
             <VectorParam id="1355"  name="anchor">
              <InterpolatingParam id="1356" interp="linr"  time="0/1" value="0" leadInLength="0/1"  />
              <InterpolatingParam id="1357" interp="linr"  time="0/1" value="0" leadInLength="0/1"  />
              <InterpolatingParam id="1358" interp="linr"  time="0/1" value="0" leadInLength="0/1"  />
             </VectorParam>
            </Transformer>
            <Parameters>
             <VectorParam id="1359"  name="sourceCrop">
              <InterpolatingParam id="1360" interp="linr"  time="0/1" value="0" leadInLength="0/1"  />
              <InterpolatingParam id="1361" interp="linr"  time="0/1" value="0" leadInLength="0/1"  />
              <InterpolatingParam id="1362" interp="linr"  time="0/1" value="0" leadInLength="0/1"  />
              <InterpolatingParam id="1363" interp="linr"  time="0/1" value="0" leadInLength="0/1"  />
             </VectorParam>
             <VectorParam id="1364"  name="geometryCrop">
              <InterpolatingParam id="1365" interp="linr"  time="-9999999/1" value="0" leadInLength="0/1"  />
              <InterpolatingParam id="1366" interp="linr"  time="-9999999/1" value="0" leadInLength="0/1"  />
              <InterpolatingParam id="1367" interp="linr"  time="-9999999/1" value="0" leadInLength="0/1"  />
              <InterpolatingParam id="1368" interp="linr"  time="-9999999/1" value="0" leadInLength="0/1"  />
             </VectorParam>
             <InterpolatingParam id="1369" interp="linr"  time="-9999999/1" value="1" leadInLength="0/1"  name="opacity"/>
             <InterpolatingParam id="1370" interp="linr"  time="0/1" value="0" leadInLength="0/1"  name="cursorOpacity"/>
             <InterpolatingParam id="1371" interp="linr"  time="0/1" value="0" leadInLength="0/1"  name="cursorScale"/>
            </Parameters>
            <Attributes>
             <Attribute id="1372" value="" name="ident"/>
            </Attributes>
            <MetaData>
             <entry key="AutoAppliedSmartFocus" val="False"/>
             <entry key="WinSubProjectDisplayName" val=""/>
            </MetaData>
            <ExtraData>
             <Entry key="ZoomPanBin">
              <ZoomPanBin id="1373"  >
               <ZoomPanKeyframes>
                <ZoomPanKeyframe id="1374" timeRangeEnd="-9999999/1" timeRangeDuration="0/1" interpolaterName=""  />
               </ZoomPanKeyframes>
              </ZoomPanBin>
             </Entry>
             <Entry key="CursorEffectBin">
              <CursorEffectBin id="1375"  >
               <CursorEffectKeyframes>
               </CursorEffectKeyframes>
              </CursorEffectBin>
             </Entry>
            </ExtraData>
           </ScreenVMFile>
          </Medias>
         </GenericTrack>
        </StitchedMedia>
       </Medias>
      </GenericTrack>
      <GenericTrack id="1376"  >
       <Attributes>
        <Attribute id="1377" value="" name="ident"/>
        <Attribute id="1378" value="0" name="audioMuted"/>
        <Attribute id="1379" value="0" name="videoHidden"/>
       </Attributes>
       <MetaData>
        <entry key="IsLocked" val="False"/>
        <entry key="WinTrackHeight" val="62"/>
       </MetaData>
       <Medias>
        <Callout id="1380" start="1545" duration="210" scalar="1/1" mediaStart="0/1" mediaDuration="210/1" >
         <Transformer>
          <VectorParam id="1381"  name="translation">
           <InterpolatingParam id="1382" interp="linr"  time="0/1" value="0" leadInLength="0/1"  />
           <InterpolatingParam id="1383" interp="linr"  time="0/1" value="0" leadInLength="0/1"  />
           <InterpolatingParam id="1384" interp="linr"  time="0/1" value="0" leadInLength="0/1"  />
          </VectorParam>
          <VectorParam id="1385"  name="rotation">
           <InterpolatingParam id="1386" interp="linr"  time="0/1" value="0" leadInLength="0/1"  />
           <InterpolatingParam id="1387" interp="linr"  time="0/1" value="0" leadInLength="0/1"  />
           <InterpolatingParam id="1388" interp="linr"  time="0/1" value="0" leadInLength="0/1"  />
          </VectorParam>
          <VectorParam id="1389"  name="shear">
           <InterpolatingParam id="1390" interp="linr"  time="0/1" value="0" leadInLength="0/1"  />
           <InterpolatingParam id="1391" interp="linr"  time="0/1" value="0" leadInLength="0/1"  />
           <InterpolatingParam id="1392" interp="linr"  time="0/1" value="0" leadInLength="0/1"  />
          </VectorParam>
          <VectorParam id="1393"  name="scale">
           <InterpolatingParam id="1394" interp="linr"  time="0/1" value="1" leadInLength="0/1"  />
           <InterpolatingParam id="1395" interp="linr"  time="0/1" value="1" leadInLength="0/1"  />
           <InterpolatingParam id="1396" interp="linr"  time="0/1" value="1" leadInLength="0/1"  />
          </VectorParam>
          <VectorParam id="1397"  name="anchor">
           <InterpolatingParam id="1398" interp="linr"  time="0/1" value="0" leadInLength="0/1"  />
           <InterpolatingParam id="1399" interp="linr"  time="0/1" value="0" leadInLength="0/1"  />
           <InterpolatingParam id="1400" interp="linr"  time="0/1" value="0" leadInLength="0/1"  />
          </VectorParam>
         </Transformer>
         <Parameters>
          <VectorParam id="1401"  name="sourceCrop">
           <InterpolatingParam id="1402" interp="linr"  time="0/1" value="0" leadInLength="0/1"  />
           <InterpolatingParam id="1403" interp="linr"  time="0/1" value="0" leadInLength="0/1"  />
           <InterpolatingParam id="1404" interp="linr"  time="0/1" value="0" leadInLength="0/1"  />
           <InterpolatingParam id="1405" interp="linr"  time="0/1" value="0" leadInLength="0/1"  />
          </VectorParam>
          <VectorParam id="1406"  name="geometryCrop">
           <InterpolatingParam id="1407" interp="linr"  time="0/1" value="0" leadInLength="0/1"  />
           <InterpolatingParam id="1408" interp="linr"  time="0/1" value="0" leadInLength="0/1"  />
           <InterpolatingParam id="1409" interp="linr"  time="0/1" value="0" leadInLength="0/1"  />
           <InterpolatingParam id="1410" interp="linr"  time="0/1" value="0" leadInLength="0/1"  />
          </VectorParam>
          <InterpolatingParam id="1411" interp="linr"  time="0/1" value="1" leadInLength="0/1"  name="opacity"/>
         </Parameters>
         <Effects>
          <GenericEffect id="1412" name = "DropShadow" >
           <Parameters>
           <InterpolatingParam id="1413" interp="linr"  time="0/1" value="315" leadInLength="0/1"   name="angle"/>
           <InterpolatingParam id="1414" interp="linr"  time="0/1" value="2" leadInLength="0/1"   name="blur"/>
           <Parameter id="1415"   name="enabled">
            <Keyframes>
            <Keyframe id="1416"  time="0/1" value="1" leadInLength="0/1"  />
            </Keyframes>
           </Parameter>
           <InterpolatingParam id="1417" interp="linr"  time="0/1" value="4" leadInLength="0/1"   name="offset"/>
           <InterpolatingParam id="1418" interp="linr"  time="0/1" value="0.75" leadInLength="0/1"   name="opacity"/>
           </Parameters>
          </GenericEffect>
         </Effects>
         <Attributes>
          <Attribute id="1419"  name="vectorNode">
           <VectorNode id="1420" kind="TypeWinXML"  >
            <DoubleParameters>
             <InterpolatingParam id="1421" interp="linr"  time="0/1" value="-1" leadInLength="0/1"  name="CutoutPercentage"/>
             <InterpolatingParam id="1422" interp="linr"  time="0/1" value="30" leadInLength="0/1"  name="RoundedRectRadius"/>
             <InterpolatingParam id="1423" interp="linr"  time="0/1" value="5" leadInLength="0/1"  name="Style"/>
             <InterpolatingParam id="1424" interp="linr"  time="0/1" value="215" leadInLength="0/1"  name="borderColorBlue"/>
             <InterpolatingParam id="1425" interp="linr"  time="0/1" value="215" leadInLength="0/1"  name="borderColorGreen"/>
             <InterpolatingParam id="1426" interp="linr"  time="0/1" value="215" leadInLength="0/1"  name="borderColorRed"/>
             <InterpolatingParam id="1427" interp="linr"  time="0/1" value="1" leadInLength="0/1"  name="borderState"/>
             <InterpolatingParam id="1428" interp="linr"  time="0/1" value="5" leadInLength="0/1"  name="borderWidth"/>
             <InterpolatingParam id="1429" interp="linr"  time="0/1" value="0" leadInLength="0/1"  name="dimensionTime"/>
             <InterpolatingParam id="1430" interp="linr"  time="0/1" value="0" leadInLength="0/1"  name="fillColorBlue"/>
             <InterpolatingParam id="1431" interp="linr"  time="0/1" value="0" leadInLength="0/1"  name="fillColorGreen"/>
             <InterpolatingParam id="1432" interp="linr"  time="0/1" value="0" leadInLength="0/1"  name="fillColorRed"/>
             <InterpolatingParam id="1433" interp="linr"  time="0/1" value="1" leadInLength="0/1"  name="fillState"/>
             <InterpolatingParam id="1434" interp="linr"  time="0/1" value="0" leadInLength="0/1"  name="flipOnXAxis"/>
             <InterpolatingParam id="1435" interp="linr"  time="0/1" value="0" leadInLength="0/1"  name="flipOnYAxis"/>
             <InterpolatingParam id="1436" interp="linr"  time="0/1" value="178.78104575163397" leadInLength="0/1"  name="height"/>
             <InterpolatingParam id="1437" interp="linr"  time="0/1" value="0" leadInLength="0/1"  name="textDropShadow"/>
             <InterpolatingParam id="1438" interp="linr"  time="0/1" value="0" leadInLength="0/1"  name="textIgnoresOpacity"/>
             <InterpolatingParam id="1439" interp="linr"  time="0/1" value="0.86784140969162993" leadInLength="0/1"  name="textRectHeight"/>
             <InterpolatingParam id="1440" interp="linr"  time="0/1" value="0.90196078431372551" leadInLength="0/1"  name="textRectWidth"/>
             <InterpolatingParam id="1441" interp="linr"  time="0/1" value="0.049019607843137254" leadInLength="0/1"  name="textRectX"/>
             <InterpolatingParam id="1442" interp="linr"  time="0/1" value="0.066079295154185022" leadInLength="0/1"  name="textRectY"/>
             <InterpolatingParam id="1443" interp="linr"  time="0/1" value="0" leadInLength="0/1"  name="textVerticalAlign"/>
             <InterpolatingParam id="1444" interp="linr"  time="0/1" value="241" leadInLength="0/1"  name="width"/>
            </DoubleParameters>
            <StringParameters>
             <Parameter id="1445"  name="VectorPath">
              <Keyframes>
              <Keyframe id="1446"  time="0/1" value="M10,0h286c5.521,0,10,4.477,10,10v207c0,5.521-4.479,10-10,10H10c-5.523,0-10-4.479-10-10V10&#xa;&#x9;C0,4.477,4.477,0,10,0z" leadInLength="0/1"  />
              </Keyframes>
             </Parameter>
             <Parameter id="1447"  name="filename">
              <Keyframes>
              <Keyframe id="1448"  time="0/1" value="D:\Media\Studio\Callouts\roundedrectangle.xml" leadInLength="0/1"  />
              </Keyframes>
             </Parameter>
             <Parameter id="1449"  name="name">
              <Keyframes>
              <Keyframe id="1450"  time="0/1" value="Filled Rounded Rectangle" leadInLength="0/1"  />
              </Keyframes>
             </Parameter>
             <Parameter id="1451"  name="text">
              <Keyframes>
              <Keyframe id="1452"  time="0/1" value="{\rtf1\ansi\ansicpg1252\deff0\deflang1033{\fonttbl{\f0\fswiss\fprq2\fcharset0 Arial;}}&#xD;&#xa;{\colortbl ;\red255\green255\blue255;}&#xD;&#xa;\viewkind4\uc1\pard\qc\cf1\f0\fs32  .Zip file\par&#xD;&#xa;}&#xD;&#xa;" leadInLength="0/1"  />
              </Keyframes>
             </Parameter>
             <Parameter id="1453"  name="xmlContent">
              <Keyframes>
              <Keyframe id="1454"  time="0/1" value="﻿&lt;?xml version=&quot;1.0&quot;?&gt;&#xa;&#xa;&lt;Overlay version=&quot;1.0.1&quot;&gt;&#xa;&#xa;&lt;Overlay_Filename&gt;roundedrectangle.png&lt;/Overlay_Filename&gt;&#xa;&lt;Overlay_Name&gt;Filled Rounded Rectangle&lt;/Overlay_Name&gt;&#xa;&lt;Text_Top&gt;15&lt;/Text_Top&gt;&#xa;&lt;Text_Left&gt;15&lt;/Text_Left&gt;&#xa;&lt;Text_Bottom&gt;15&lt;/Text_Bottom&gt;&#xa;&lt;Text_Right&gt;15&lt;/Text_Right&gt;&#xa;&lt;Fill_Color&gt;1&lt;/Fill_Color&gt;&#xa;&lt;Border_Color&gt;1&lt;/Border_Color&gt;&#xa;&lt;Initial_Fill_Color&gt;0xffe05f00&lt;/Initial_Fill_Color&gt;&#xa;&lt;Initial_Border_Color&gt;0xffd7d7d7&lt;/Initial_Border_Color&gt;&#xa;&lt;VectorProps&gt;&#xa;&lt;figure&gt;&#xa;&lt;svg&gt;M10,0h286c5.521,0,10,4.477,10,10v207c0,5.521-4.479,10-10,10H10c-5.523,0-10-4.479-10-10V10&#xa;&#x9;C0,4.477,4.477,0,10,0z&lt;/svg&gt;&#xa;&lt;/figure&gt;&#xa;&lt;borderWidth&gt;5.00&lt;/borderWidth&gt;&#xa;&lt;seamY&gt;-1&lt;/seamY&gt;&#xa;&lt;roundedRectRadius&gt;30&lt;/roundedRectRadius&gt;&#xa;&lt;shapeWidth&gt;306&lt;/shapeWidth&gt;&#xa;&lt;shapeHeight&gt;227&lt;/shapeHeight&gt;&#xa;&lt;/VectorProps&gt;&#xa;&lt;Style&gt;5&lt;/Style&gt;&#xa;&lt;/Overlay&gt;" leadInLength="0/1"  />
              </Keyframes>
             </Parameter>
            </StringParameters>
           </VectorNode>
          </Attribute>
         </Attributes>
         <MetaData>
          <entry key="WinSubProjectDisplayName" val=""/>
         </MetaData>
         <LeftEdgeMods length="30/1" groupName="OpacityFade">
          <EdgeMod parameter="1411">
           <FadeInFunc id="1455"  />
          </EdgeMod>
         </LeftEdgeMods>
         <RightEdgeMods length="30/1" groupName="OpacityFade">
          <EdgeMod parameter="1411">
           <FadeOutFunc id="1456"  />
          </EdgeMod>
         </RightEdgeMods>
         <ExtraData>
          <Entry key="ZoomPanBin">
           <ZoomPanBin id="1457"  >
            <ZoomPanKeyframes>
            </ZoomPanKeyframes>
           </ZoomPanBin>
          </Entry>
         </ExtraData>
        </Callout>
       </Medias>
      </GenericTrack>
      <GenericTrack id="1458"  >
       <Attributes>
        <Attribute id="1459" value="" name="ident"/>
        <Attribute id="1460" value="0" name="audioMuted"/>
        <Attribute id="1461" value="0" name="videoHidden"/>
       </Attributes>
       <MetaData>
        <entry key="IsLocked" val="False"/>
        <entry key="WinTrackHeight" val="62"/>
       </MetaData>
       <Medias>
       </Medias>
      </GenericTrack>
      <GenericTrack id="1462"  >
       <Attributes>
        <Attribute id="1463" value="" name="ident"/>
        <Attribute id="1464" value="0" name="audioMuted"/>
        <Attribute id="1465" value="0" name="videoHidden"/>
       </Attributes>
       <MetaData>
        <entry key="IsLocked" val="False"/>
        <entry key="WinTrackHeight" val="62"/>
       </MetaData>
       <Medias>
       </Medias>
      </GenericTrack>
      <GenericTrack id="1466"  >
       <Attributes>
        <Attribute id="1467" value="" name="ident"/>
        <Attribute id="1468" value="0" name="audioMuted"/>
        <Attribute id="1469" value="0" name="videoHidden"/>
       </Attributes>
       <MetaData>
        <entry key="IsLocked" val="False"/>
        <entry key="WinTrackHeight" val="62"/>
       </MetaData>
       <Medias>
       </Medias>
      </GenericTrack>
     </Tracks>
    </GenericMixer>
   <CaptionAttributes id="1470"  >
    <Attribute id="1471" value="1" name="captionsEnabled"/>
    <Attribute id="1472" value="Arial" name="captionsFontName"/>
    <Attribute id="1473" value="26" name="captionsFontSize"/>
    <Attribute id="1474" value="(0,0,0,255)" name="captionsBackgroundColor"/>
    <Attribute id="1475" value="(255,255,255,255)" name="captionsForegroundColor"/>
    <Attribute id="1476" value="en" name="lang"/>
    <Attribute id="1477" value="0" name="captionsAlignment"/>
    <Attribute id="1478" value="1" name="captionsDefaultFontSize"/>
    <Attribute id="1479" value="0.5" name="captionsOpacity"/>
    <Attribute id="1480" value="1" name="captionsBackgroundEnabled"/>
    <Attribute id="1481" value="1" name="captionsBackgroundOnlyAroundText"/>
   </CaptionAttributes>
   <Parameters>
    <VectorParam id="1482"  name="eyePosition">
     <InterpolatingParam id="1483" interp="linr"  time="0/1" value="0" leadInLength="0/1"  />
     <InterpolatingParam id="1484" interp="linr"  time="0/1" value="0" leadInLength="0/1"  />
     <InterpolatingParam id="1485" interp="linr"  time="0/1" value="3000" leadInLength="0/1"  />
    </VectorParam>
    <VectorParam id="1486"  name="eyeLookAtPosition">
     <InterpolatingParam id="1487" interp="linr"  time="0/1" value="0" leadInLength="0/1"  />
     <InterpolatingParam id="1488" interp="linr"  time="0/1" value="0" leadInLength="0/1"  />
     <InterpolatingParam id="1489" interp="linr"  time="0/1" value="0" leadInLength="0/1"  />
    </VectorParam>
    <VectorParam id="1490"  name="eyeUpVector">
     <InterpolatingParam id="1491" interp="linr"  time="0/1" value="0" leadInLength="0/1"  />
     <InterpolatingParam id="1492" interp="linr"  time="0/1" value="1" leadInLength="0/1"  />
     <InterpolatingParam id="1493" interp="linr"  time="0/1" value="0" leadInLength="0/1"  />
    </VectorParam>
    <InterpolatingParam id="1494" interp="linr"  time="0/1" value="0.23885785" leadInLength="0/1"  name="fov"/>
    <InterpolatingParam id="1495" interp="linr"  time="0/1" value="1.5" leadInLength="0/1"  name="nearClipDistance"/>
    <InterpolatingParam id="1496" interp="linr"  time="0/1" value="6000" leadInLength="0/1"  name="farClipDistance"/>
   </Parameters>
  </Timeline>
 </Project>
</GoProject>
</CSMLData>

</Project_Data>
