<?xml version="1.0"?>
<Project_Data Version="8.00">
<Project_Settings>
<ProfileName></ProfileName>
<ProjectWidth>1366</ProjectWidth>
<ProjectHeight>720</ProjectHeight>
<IsCustomProject>1</IsCustomProject>
<SavedProjectSettings>1</SavedProjectSettings>
<LastFlashTemplate>-1</LastFlashTemplate>
</Project_Settings>


<AutoSaveFile>C:\Users\Junaid\AppData\Local\TechSmith\Camtasia Studio\8.0\Auto-Saves\P2 demo34935506.autosave.camproj</AutoSaveFile>

<ProjectID>3622FD65-E52A-4E22-82C7-F1FF22482D67</ProjectID>

<PowerPointProject>0</PowerPointProject>

<PowerPointFilename></PowerPointFilename>


<Project_Notes>
</Project_Notes>

<Project_MetaData>
<Project_MetaData_Object>
<FieldArrayKey>8</FieldArrayKey>
<Value>P2 demo</Value>
</Project_MetaData_Object>
<Project_MetaData_Object>
<FieldArrayKey>13</FieldArrayKey>
<Value>2016-02-07 10:07:27 PM</Value>
</Project_MetaData_Object>
<Project_MetaData_Object>
<FieldArrayKey>16</FieldArrayKey>
<Value>ENU</Value>
</Project_MetaData_Object>
</Project_MetaData>

<CSMLData>
<GoProject id="1" version="3.0" >
 <Project id="2" editRate="30/1" version="3.0" >
  <Author></Author>
  <Comment></Comment>
  <System></System>
  <SourceBin id="3"  >
    <Source id="4" src="C:\Users\Junaid\Desktop\IOT RECO\P2 demo.trec" lastMod="20160207T164159" rect="(0,0,1920,1012)" >
      <SourceTrack range="(0,7457)" type="0" editRate="30/1" trackRect="(0,0,1920,1012)" sampleRate="0/1" bitDepth="0" numChannels="0" filename="P2 demo.trec!Strack0.tsc2" metaData="P2 demo.trec;" />
      <SourceTrack range="(0,7450000)" type="0" editRate="30000/1" trackRect="(0,0,640,480)" sampleRate="0/1" bitDepth="0" numChannels="0" filename="P2 demo.trec!Cvideo1.mp4" metaData="" />
      <SourceTrack range="(0,10951680)" type="2" editRate="44100/1" trackRect="(0,0,0,0)" sampleRate="44100/1" bitDepth="16" numChannels="2" filename="P2 demo.trec!Maudio2.mp4" metaData="" />
    </Source>
  </SourceBin>
  <Timeline id="5"  >
   <Attributes>
    <Attribute id="6" value="1366" name="width"/>
    <Attribute id="7" value="720" name="height"/>
    <Attribute id="8" value="(0,0,0,255)" name="backgroundColor"/>
   </Attributes>
    <GenericMixer id="9"  name="Unified Mixer">
     <MetaData>
      <entry key="MixerType" val="TimelineMixer"/>
     </MetaData>
     <Tracks>
      <GenericTrack id="10"  >
       <Attributes>
        <Attribute id="11" value="" name="ident"/>
        <Attribute id="12" value="0" name="audioMuted"/>
        <Attribute id="13" value="0" name="videoHidden"/>
       </Attributes>
       <MetaData>
        <entry key="IsLocked" val="False"/>
        <entry key="WinTrackHeight" val="62"/>
       </MetaData>
       <Medias>
        <StitchedMedia id="14" start="2398" duration="1036" scalar="1/1" mediaStart="3467/1" mediaDuration="1036/1" minMediaStart="0/1" >
         <Transformer>
          <VectorParam id="15"  name="translation">
           <InterpolatingParam id="16" interp="linr"  time="-9999999/1" value="1.0750354643200451e-010" leadInLength="0/1"  interpolater="leadin-linr"  />
           <InterpolatingParam id="17" interp="linr"  time="-9999999/1" value="-1.1214490077312201e-010" leadInLength="0/1"  interpolater="leadin-linr"  />
           <InterpolatingParam id="18" interp="linr"  time="-9999999/1" value="0" leadInLength="0/1"  interpolater="leadin-linr"  />
          </VectorParam>
          <VectorParam id="19"  name="rotation">
           <InterpolatingParam id="20" interp="linr"  time="-9999999/1" value="0" leadInLength="0/1"  interpolater="leadin-linr"  />
           <InterpolatingParam id="21" interp="linr"  time="-9999999/1" value="0" leadInLength="0/1"  interpolater="leadin-linr"  />
           <InterpolatingParam id="22" interp="linr"  time="-9999999/1" value="0" leadInLength="0/1"  interpolater="leadin-linr"  />
          </VectorParam>
          <VectorParam id="23"  name="shear">
           <InterpolatingParam id="24" interp="linr"  time="-9999999/1" value="0" leadInLength="0/1"  interpolater="leadin-linr"  />
           <InterpolatingParam id="25" interp="linr"  time="-9999999/1" value="0" leadInLength="0/1"  interpolater="leadin-linr"  />
           <InterpolatingParam id="26" interp="linr"  time="-9999999/1" value="0" leadInLength="0/1"  interpolater="leadin-linr"  />
          </VectorParam>
          <VectorParam id="27"  name="scale">
           <InterpolatingParam id="28" interp="linr"  time="-9999999/1" value="0.7114583333333333" leadInLength="0/1"  interpolater="leadin-linr"  />
           <InterpolatingParam id="29" interp="linr"  time="-9999999/1" value="0.7114583333333333" leadInLength="0/1"  interpolater="leadin-linr"  />
           <InterpolatingParam id="30" interp="linr"  time="-9999999/1" value="1" leadInLength="0/1"  interpolater="leadin-linr"  />
          </VectorParam>
          <VectorParam id="31"  name="anchor">
           <InterpolatingParam id="32" interp="linr"  time="0/1" value="0" leadInLength="0/1"  />
           <InterpolatingParam id="33" interp="linr"  time="0/1" value="0" leadInLength="0/1"  />
           <InterpolatingParam id="34" interp="linr"  time="0/1" value="0" leadInLength="0/1"  />
          </VectorParam>
         </Transformer>
         <Parameters>
          <VectorParam id="35"  name="sourceCrop">
           <InterpolatingParam id="36" interp="linr"  time="0/1" value="0" leadInLength="0/1"  />
           <InterpolatingParam id="37" interp="linr"  time="0/1" value="0" leadInLength="0/1"  />
           <InterpolatingParam id="38" interp="linr"  time="0/1" value="0" leadInLength="0/1"  />
           <InterpolatingParam id="39" interp="linr"  time="0/1" value="0" leadInLength="0/1"  />
          </VectorParam>
          <VectorParam id="40"  name="geometryCrop">
           <InterpolatingParam id="41" interp="linr"  time="-9999999/1" value="0" leadInLength="0/1"  interpolater="leadin-linr"  />
           <InterpolatingParam id="42" interp="linr"  time="-9999999/1" value="0" leadInLength="0/1"  interpolater="leadin-linr"  />
           <InterpolatingParam id="43" interp="linr"  time="-9999999/1" value="0" leadInLength="0/1"  interpolater="leadin-linr"  />
           <InterpolatingParam id="44" interp="linr"  time="-9999999/1" value="0" leadInLength="0/1"  interpolater="leadin-linr"  />
          </VectorParam>
          <InterpolatingParam id="45" interp="linr"  time="-9999999/1" value="1" leadInLength="0/1"  interpolater="leadin-linr"  name="opacity"/>
          <InterpolatingParam id="46" interp="linr"  time="0/1" value="1" leadInLength="0/1"  name="cursorOpacity"/>
          <InterpolatingParam id="47" interp="linr"  time="0/1" value="1" leadInLength="0/1"  name="cursorScale"/>
          <Parameter id="48"  name="captions"/>
         </Parameters>
         <Effects>
          <GenericEffect id="49" name = "CursorBaseEffectName" >
           <Parameters>
           <InterpolatingParam id="50" interp="linr"  time="-9999999/1" value="1" leadInLength="0/1"   name="cursorSize"/>
           <InterpolatingParam id="51" interp="linr"  time="-9999999/1" value="0" leadInLength="0/1"   name="highlightBlurRadius"/>
           <InterpolatingParam id="52" interp="linr"  time="-9999999/1" value="0" leadInLength="0/1"   name="highlightColorBlue"/>
           <InterpolatingParam id="53" interp="linr"  time="-9999999/1" value="255" leadInLength="0/1"   name="highlightColorGreen"/>
           <InterpolatingParam id="54" interp="linr"  time="-9999999/1" value="255" leadInLength="0/1"   name="highlightColorRed"/>
           <InterpolatingParam id="55" interp="linr"  time="-9999999/1" value="5" leadInLength="0/1"   name="highlightFeatherSize"/>
           <InterpolatingParam id="56" interp="linr"  time="-9999999/1" value="2" leadInLength="0/1"   name="highlightMagnification"/>
           <InterpolatingParam id="57" interp="linr"  time="-9999999/1" value="1" leadInLength="0/1"   name="highlightOpacity"/>
           <InterpolatingParam id="58" interp="linr"  time="-9999999/1" value="45" leadInLength="0/1"   name="highlightSize"/>
           <Parameter id="59"   name="highlightType">
            <Keyframes>
            <Keyframe id="60"  time="-9999999/1" value="0" leadInLength="0/1"  />
            </Keyframes>
           </Parameter>
           <InterpolatingParam id="61" interp="linr"  time="-9999999/1" value="0" leadInLength="0/1"   name="leftClickColorBlue"/>
           <InterpolatingParam id="62" interp="linr"  time="-9999999/1" value="0" leadInLength="0/1"   name="leftClickColorGreen"/>
           <InterpolatingParam id="63" interp="linr"  time="-9999999/1" value="255" leadInLength="0/1"   name="leftClickColorRed"/>
           <InterpolatingParam id="64" interp="linr"  time="-9999999/1" value="0.80000000000000004" leadInLength="0/1"   name="leftClickDuration"/>
           <InterpolatingParam id="65" interp="linr"  time="-9999999/1" value="20" leadInLength="0/1"   name="leftClickSize"/>
           <Parameter id="66"   name="leftClickSoundFilename">
            <Keyframes>
            <Keyframe id="67"  time="-9999999/1" value="" leadInLength="0/1"  />
            </Keyframes>
           </Parameter>
           <InterpolatingParam id="68" interp="linr"  time="-9999999/1" value="1" leadInLength="0/1"   name="leftClickSoundVolume"/>
           <Parameter id="69"   name="leftClickType">
            <Keyframes>
            <Keyframe id="70"  time="-9999999/1" value="0" leadInLength="0/1"  />
            </Keyframes>
           </Parameter>
           <InterpolatingParam id="71" interp="linr"  time="-9999999/1" value="1" leadInLength="0/1"   name="opacity"/>
           <InterpolatingParam id="72" interp="linr"  time="-9999999/1" value="255" leadInLength="0/1"   name="rightClickColorBlue"/>
           <InterpolatingParam id="73" interp="linr"  time="-9999999/1" value="0" leadInLength="0/1"   name="rightClickColorGreen"/>
           <InterpolatingParam id="74" interp="linr"  time="-9999999/1" value="0" leadInLength="0/1"   name="rightClickColorRed"/>
           <InterpolatingParam id="75" interp="linr"  time="-9999999/1" value="0.80000000000000004" leadInLength="0/1"   name="rightClickDuration"/>
           <InterpolatingParam id="76" interp="linr"  time="-9999999/1" value="20" leadInLength="0/1"   name="rightClickSize"/>
           <Parameter id="77"   name="rightClickSoundFilename">
            <Keyframes>
            <Keyframe id="78"  time="-9999999/1" value="" leadInLength="0/1"  />
            </Keyframes>
           </Parameter>
           <InterpolatingParam id="79" interp="linr"  time="-9999999/1" value="1" leadInLength="0/1"   name="rightClickSoundVolume"/>
           <Parameter id="80"   name="rightClickType">
            <Keyframes>
            <Keyframe id="81"  time="-9999999/1" value="0" leadInLength="0/1"  />
            </Keyframes>
           </Parameter>
           </Parameters>
          </GenericEffect>
         </Effects>
         <Attributes>
          <Attribute id="82" value="" name="ident"/>
         </Attributes>
         <MetaData>
          <entry key="AutoAppliedSmartFocus" val="False"/>
          <entry key="WinSubProjectDisplayName" val=""/>
         </MetaData>
         <ExtraData>
          <Entry key="ZoomPanBin">
           <ZoomPanBin id="83"  >
            <ZoomPanKeyframes>
             <ZoomPanKeyframe id="84" timeRangeEnd="-9999999/1" timeRangeDuration="0/1" interpolaterName="linr"  />
            </ZoomPanKeyframes>
           </ZoomPanBin>
          </Entry>
          <Entry key="CursorEffectBin">
           <CursorEffectBin id="85"  >
            <CursorEffectKeyframes>
             <CursorEffectKeyframe id="86" timeRangeEnd="-9999999/1" timeRangeDuration="0/1" interpolaterName=""  />
            </CursorEffectKeyframes>
           </CursorEffectBin>
          </Entry>
         </ExtraData>
         <GenericTrack id="87"  >
          <Attributes>
           <Attribute id="88" value="" name="ident"/>
           <Attribute id="89" value="0" name="audioMuted"/>
           <Attribute id="90" value="0" name="videoHidden"/>
          </Attributes>
          <MetaData>
           <entry key="IsLocked" val="False"/>
           <entry key="WinTrackHeight" val="0"/>
          </MetaData>
          <Medias>
           <ScreenVMFile id="91" start="0" duration="3659" scalar="1/1" mediaStart="0/1" mediaDuration="3659/1" trackNumber="0" src="4" >
            <Transformer>
             <VectorParam id="92"  name="translation">
              <InterpolatingParam id="93" interp="linr"  time="-9999999/1" value="0" leadInLength="0/1"  />
              <InterpolatingParam id="94" interp="linr"  time="-9999999/1" value="0" leadInLength="0/1"  />
              <InterpolatingParam id="95" interp="linr"  time="-9999999/1" value="0" leadInLength="0/1"  />
             </VectorParam>
             <VectorParam id="96"  name="rotation">
              <InterpolatingParam id="97" interp="linr"  time="-9999999/1" value="0" leadInLength="0/1"  />
              <InterpolatingParam id="98" interp="linr"  time="-9999999/1" value="0" leadInLength="0/1"  />
              <InterpolatingParam id="99" interp="linr"  time="-9999999/1" value="0" leadInLength="0/1"  />
             </VectorParam>
             <VectorParam id="100"  name="shear">
              <InterpolatingParam id="101" interp="linr"  time="-9999999/1" value="0" leadInLength="0/1"  />
              <InterpolatingParam id="102" interp="linr"  time="-9999999/1" value="0" leadInLength="0/1"  />
              <InterpolatingParam id="103" interp="linr"  time="-9999999/1" value="0" leadInLength="0/1"  />
             </VectorParam>
             <VectorParam id="104"  name="scale">
              <InterpolatingParam id="105" interp="linr"  time="-9999999/1" value="1" leadInLength="0/1"  />
              <InterpolatingParam id="106" interp="linr"  time="-9999999/1" value="1" leadInLength="0/1"  />
              <InterpolatingParam id="107" interp="linr"  time="-9999999/1" value="1" leadInLength="0/1"  />
             </VectorParam>
             <VectorParam id="108"  name="anchor">
              <InterpolatingParam id="109" interp="linr"  time="0/1" value="0" leadInLength="0/1"  />
              <InterpolatingParam id="110" interp="linr"  time="0/1" value="0" leadInLength="0/1"  />
              <InterpolatingParam id="111" interp="linr"  time="0/1" value="0" leadInLength="0/1"  />
             </VectorParam>
            </Transformer>
            <Parameters>
             <VectorParam id="112"  name="sourceCrop">
              <InterpolatingParam id="113" interp="linr"  time="0/1" value="0" leadInLength="0/1"  />
              <InterpolatingParam id="114" interp="linr"  time="0/1" value="0" leadInLength="0/1"  />
              <InterpolatingParam id="115" interp="linr"  time="0/1" value="0" leadInLength="0/1"  />
              <InterpolatingParam id="116" interp="linr"  time="0/1" value="0" leadInLength="0/1"  />
             </VectorParam>
             <VectorParam id="117"  name="geometryCrop">
              <InterpolatingParam id="118" interp="linr"  time="-9999999/1" value="0" leadInLength="0/1"  />
              <InterpolatingParam id="119" interp="linr"  time="-9999999/1" value="0" leadInLength="0/1"  />
              <InterpolatingParam id="120" interp="linr"  time="-9999999/1" value="0" leadInLength="0/1"  />
              <InterpolatingParam id="121" interp="linr"  time="-9999999/1" value="0" leadInLength="0/1"  />
             </VectorParam>
             <InterpolatingParam id="122" interp="linr"  time="-9999999/1" value="1" leadInLength="0/1"  name="opacity"/>
             <InterpolatingParam id="123" interp="linr"  time="0/1" value="0" leadInLength="0/1"  name="cursorOpacity"/>
             <InterpolatingParam id="124" interp="linr"  time="0/1" value="0" leadInLength="0/1"  name="cursorScale"/>
            </Parameters>
            <Attributes>
             <Attribute id="125" value="" name="ident"/>
            </Attributes>
            <MetaData>
             <entry key="AutoAppliedSmartFocus" val="False"/>
             <entry key="WinSubProjectDisplayName" val=""/>
            </MetaData>
            <ExtraData>
             <Entry key="ZoomPanBin">
              <ZoomPanBin id="126"  >
               <ZoomPanKeyframes>
                <ZoomPanKeyframe id="127" timeRangeEnd="-9999999/1" timeRangeDuration="0/1" interpolaterName=""  />
               </ZoomPanKeyframes>
              </ZoomPanBin>
             </Entry>
             <Entry key="CursorEffectBin">
              <CursorEffectBin id="128"  >
               <CursorEffectKeyframes>
               </CursorEffectKeyframes>
              </CursorEffectBin>
             </Entry>
            </ExtraData>
           </ScreenVMFile>
           <ScreenVMFile id="129" start="3659" duration="453" scalar="1/1" mediaStart="3679/1" mediaDuration="453/1" trackNumber="0" src="4" >
            <Transformer>
             <VectorParam id="130"  name="translation">
              <InterpolatingParam id="131" interp="linr"  time="-9999999/1" value="0" leadInLength="0/1"  />
              <InterpolatingParam id="132" interp="linr"  time="-9999999/1" value="0" leadInLength="0/1"  />
              <InterpolatingParam id="133" interp="linr"  time="-9999999/1" value="0" leadInLength="0/1"  />
             </VectorParam>
             <VectorParam id="134"  name="rotation">
              <InterpolatingParam id="135" interp="linr"  time="-9999999/1" value="0" leadInLength="0/1"  />
              <InterpolatingParam id="136" interp="linr"  time="-9999999/1" value="0" leadInLength="0/1"  />
              <InterpolatingParam id="137" interp="linr"  time="-9999999/1" value="0" leadInLength="0/1"  />
             </VectorParam>
             <VectorParam id="138"  name="shear">
              <InterpolatingParam id="139" interp="linr"  time="-9999999/1" value="0" leadInLength="0/1"  />
              <InterpolatingParam id="140" interp="linr"  time="-9999999/1" value="0" leadInLength="0/1"  />
              <InterpolatingParam id="141" interp="linr"  time="-9999999/1" value="0" leadInLength="0/1"  />
             </VectorParam>
             <VectorParam id="142"  name="scale">
              <InterpolatingParam id="143" interp="linr"  time="-9999999/1" value="1" leadInLength="0/1"  />
              <InterpolatingParam id="144" interp="linr"  time="-9999999/1" value="1" leadInLength="0/1"  />
              <InterpolatingParam id="145" interp="linr"  time="-9999999/1" value="1" leadInLength="0/1"  />
             </VectorParam>
             <VectorParam id="146"  name="anchor">
              <InterpolatingParam id="147" interp="linr"  time="0/1" value="0" leadInLength="0/1"  />
              <InterpolatingParam id="148" interp="linr"  time="0/1" value="0" leadInLength="0/1"  />
              <InterpolatingParam id="149" interp="linr"  time="0/1" value="0" leadInLength="0/1"  />
             </VectorParam>
            </Transformer>
            <Parameters>
             <VectorParam id="150"  name="sourceCrop">
              <InterpolatingParam id="151" interp="linr"  time="0/1" value="0" leadInLength="0/1"  />
              <InterpolatingParam id="152" interp="linr"  time="0/1" value="0" leadInLength="0/1"  />
              <InterpolatingParam id="153" interp="linr"  time="0/1" value="0" leadInLength="0/1"  />
              <InterpolatingParam id="154" interp="linr"  time="0/1" value="0" leadInLength="0/1"  />
             </VectorParam>
             <VectorParam id="155"  name="geometryCrop">
              <InterpolatingParam id="156" interp="linr"  time="-9999999/1" value="0" leadInLength="0/1"  />
              <InterpolatingParam id="157" interp="linr"  time="-9999999/1" value="0" leadInLength="0/1"  />
              <InterpolatingParam id="158" interp="linr"  time="-9999999/1" value="0" leadInLength="0/1"  />
              <InterpolatingParam id="159" interp="linr"  time="-9999999/1" value="0" leadInLength="0/1"  />
             </VectorParam>
             <InterpolatingParam id="160" interp="linr"  time="-9999999/1" value="1" leadInLength="0/1"  name="opacity"/>
             <InterpolatingParam id="161" interp="linr"  time="0/1" value="0" leadInLength="0/1"  name="cursorOpacity"/>
             <InterpolatingParam id="162" interp="linr"  time="0/1" value="0" leadInLength="0/1"  name="cursorScale"/>
            </Parameters>
            <Attributes>
             <Attribute id="163" value="" name="ident"/>
            </Attributes>
            <MetaData>
             <entry key="AutoAppliedSmartFocus" val="False"/>
             <entry key="WinSubProjectDisplayName" val=""/>
            </MetaData>
            <ExtraData>
             <Entry key="ZoomPanBin">
              <ZoomPanBin id="164"  >
               <ZoomPanKeyframes>
                <ZoomPanKeyframe id="165" timeRangeEnd="-9999999/1" timeRangeDuration="0/1" interpolaterName=""  />
               </ZoomPanKeyframes>
              </ZoomPanBin>
             </Entry>
             <Entry key="CursorEffectBin">
              <CursorEffectBin id="166"  >
               <CursorEffectKeyframes>
               </CursorEffectKeyframes>
              </CursorEffectBin>
             </Entry>
            </ExtraData>
           </ScreenVMFile>
           <ScreenVMFile id="167" start="4112" duration="3041" scalar="1/1" mediaStart="4416/1" mediaDuration="3041/1" trackNumber="0" src="4" >
            <Transformer>
             <VectorParam id="168"  name="translation">
              <InterpolatingParam id="169" interp="linr"  time="-9999999/1" value="0" leadInLength="0/1"  />
              <InterpolatingParam id="170" interp="linr"  time="-9999999/1" value="0" leadInLength="0/1"  />
              <InterpolatingParam id="171" interp="linr"  time="-9999999/1" value="0" leadInLength="0/1"  />
             </VectorParam>
             <VectorParam id="172"  name="rotation">
              <InterpolatingParam id="173" interp="linr"  time="-9999999/1" value="0" leadInLength="0/1"  />
              <InterpolatingParam id="174" interp="linr"  time="-9999999/1" value="0" leadInLength="0/1"  />
              <InterpolatingParam id="175" interp="linr"  time="-9999999/1" value="0" leadInLength="0/1"  />
             </VectorParam>
             <VectorParam id="176"  name="shear">
              <InterpolatingParam id="177" interp="linr"  time="-9999999/1" value="0" leadInLength="0/1"  />
              <InterpolatingParam id="178" interp="linr"  time="-9999999/1" value="0" leadInLength="0/1"  />
              <InterpolatingParam id="179" interp="linr"  time="-9999999/1" value="0" leadInLength="0/1"  />
             </VectorParam>
             <VectorParam id="180"  name="scale">
              <InterpolatingParam id="181" interp="linr"  time="-9999999/1" value="1" leadInLength="0/1"  />
              <InterpolatingParam id="182" interp="linr"  time="-9999999/1" value="1" leadInLength="0/1"  />
              <InterpolatingParam id="183" interp="linr"  time="-9999999/1" value="1" leadInLength="0/1"  />
             </VectorParam>
             <VectorParam id="184"  name="anchor">
              <InterpolatingParam id="185" interp="linr"  time="0/1" value="0" leadInLength="0/1"  />
              <InterpolatingParam id="186" interp="linr"  time="0/1" value="0" leadInLength="0/1"  />
              <InterpolatingParam id="187" interp="linr"  time="0/1" value="0" leadInLength="0/1"  />
             </VectorParam>
            </Transformer>
            <Parameters>
             <VectorParam id="188"  name="sourceCrop">
              <InterpolatingParam id="189" interp="linr"  time="0/1" value="0" leadInLength="0/1"  />
              <InterpolatingParam id="190" interp="linr"  time="0/1" value="0" leadInLength="0/1"  />
              <InterpolatingParam id="191" interp="linr"  time="0/1" value="0" leadInLength="0/1"  />
              <InterpolatingParam id="192" interp="linr"  time="0/1" value="0" leadInLength="0/1"  />
             </VectorParam>
             <VectorParam id="193"  name="geometryCrop">
              <InterpolatingParam id="194" interp="linr"  time="-9999999/1" value="0" leadInLength="0/1"  />
              <InterpolatingParam id="195" interp="linr"  time="-9999999/1" value="0" leadInLength="0/1"  />
              <InterpolatingParam id="196" interp="linr"  time="-9999999/1" value="0" leadInLength="0/1"  />
              <InterpolatingParam id="197" interp="linr"  time="-9999999/1" value="0" leadInLength="0/1"  />
             </VectorParam>
             <InterpolatingParam id="198" interp="linr"  time="-9999999/1" value="1" leadInLength="0/1"  name="opacity"/>
             <InterpolatingParam id="199" interp="linr"  time="0/1" value="0" leadInLength="0/1"  name="cursorOpacity"/>
             <InterpolatingParam id="200" interp="linr"  time="0/1" value="0" leadInLength="0/1"  name="cursorScale"/>
            </Parameters>
            <Attributes>
             <Attribute id="201" value="" name="ident"/>
            </Attributes>
            <MetaData>
             <entry key="AutoAppliedSmartFocus" val="False"/>
             <entry key="WinSubProjectDisplayName" val=""/>
            </MetaData>
            <ExtraData>
             <Entry key="ZoomPanBin">
              <ZoomPanBin id="202"  >
               <ZoomPanKeyframes>
                <ZoomPanKeyframe id="203" timeRangeEnd="-9999999/1" timeRangeDuration="0/1" interpolaterName=""  />
               </ZoomPanKeyframes>
              </ZoomPanBin>
             </Entry>
             <Entry key="CursorEffectBin">
              <CursorEffectBin id="204"  >
               <CursorEffectKeyframes>
               </CursorEffectKeyframes>
              </CursorEffectBin>
             </Entry>
            </ExtraData>
           </ScreenVMFile>
          </Medias>
         </GenericTrack>
        </StitchedMedia>
       </Medias>
      </GenericTrack>
      <GenericTrack id="205"  >
       <Attributes>
        <Attribute id="206" value="" name="ident"/>
        <Attribute id="207" value="0" name="audioMuted"/>
        <Attribute id="208" value="0" name="videoHidden"/>
       </Attributes>
       <MetaData>
        <entry key="IsLocked" val="False"/>
        <entry key="WinTrackHeight" val="62"/>
       </MetaData>
       <Medias>
        <StitchedMedia id="209" start="0" duration="2398" scalar="1/1" mediaStart="456/1" mediaDuration="2398/1" minMediaStart="0/1" >
         <Transformer>
          <VectorParam id="210"  name="translation">
           <InterpolatingParam id="211" interp="linr"  time="-9999999/1" value="19.095617529967001" leadInLength="0/1"  interpolater="leadin-linr"  />
           <InterpolatingParam id="212" interp="linr"  time="-9999999/1" value="-7.9140249908959959e-011" leadInLength="0/1"  interpolater="leadin-linr"  />
           <InterpolatingParam id="213" interp="linr"  time="-9999999/1" value="-3.4106051316499936e-010" leadInLength="0/1"  interpolater="leadin-linr"  />
          </VectorParam>
          <VectorParam id="214"  name="rotation">
           <InterpolatingParam id="215" interp="linr"  time="-9999999/1" value="0" leadInLength="0/1"  interpolater="leadin-linr"  />
           <InterpolatingParam id="216" interp="linr"  time="-9999999/1" value="0" leadInLength="0/1"  interpolater="leadin-linr"  />
           <InterpolatingParam id="217" interp="linr"  time="-9999999/1" value="0" leadInLength="0/1"  interpolater="leadin-linr"  />
          </VectorParam>
          <VectorParam id="218"  name="shear">
           <InterpolatingParam id="219" interp="linr"  time="-9999999/1" value="0" leadInLength="0/1"  interpolater="leadin-linr"  />
           <InterpolatingParam id="220" interp="linr"  time="-9999999/1" value="0" leadInLength="0/1"  interpolater="leadin-linr"  />
           <InterpolatingParam id="221" interp="linr"  time="-9999999/1" value="0" leadInLength="0/1"  interpolater="leadin-linr"  />
          </VectorParam>
          <VectorParam id="222"  name="scale">
           <InterpolatingParam id="223" interp="linr"  time="-9999999/1" value="1.5000000000004132" leadInLength="0/1"  interpolater="leadin-linr"  />
           <InterpolatingParam id="224" interp="linr"  time="-9999999/1" value="1.5000000000004132" leadInLength="0/1"  interpolater="leadin-linr"  />
           <InterpolatingParam id="225" interp="linr"  time="-9999999/1" value="1" leadInLength="0/1"  interpolater="leadin-linr"  />
          </VectorParam>
          <VectorParam id="226"  name="anchor">
           <InterpolatingParam id="227" interp="linr"  time="0/1" value="0" leadInLength="0/1"  />
           <InterpolatingParam id="228" interp="linr"  time="0/1" value="0" leadInLength="0/1"  />
           <InterpolatingParam id="229" interp="linr"  time="0/1" value="0" leadInLength="0/1"  />
          </VectorParam>
         </Transformer>
         <Parameters>
          <VectorParam id="230"  name="sourceCrop">
           <InterpolatingParam id="231" interp="linr"  time="0/1" value="0" leadInLength="0/1"  />
           <InterpolatingParam id="232" interp="linr"  time="0/1" value="0" leadInLength="0/1"  />
           <InterpolatingParam id="233" interp="linr"  time="0/1" value="0" leadInLength="0/1"  />
           <InterpolatingParam id="234" interp="linr"  time="0/1" value="0" leadInLength="0/1"  />
          </VectorParam>
          <VectorParam id="235"  name="geometryCrop">
           <InterpolatingParam id="236" interp="linr"  time="-9999999/1" value="0" leadInLength="0/1"  interpolater="leadin-linr"  />
           <InterpolatingParam id="237" interp="linr"  time="-9999999/1" value="0" leadInLength="0/1"  interpolater="leadin-linr"  />
           <InterpolatingParam id="238" interp="linr"  time="-9999999/1" value="0" leadInLength="0/1"  interpolater="leadin-linr"  />
           <InterpolatingParam id="239" interp="linr"  time="-9999999/1" value="0" leadInLength="0/1"  interpolater="leadin-linr"  />
          </VectorParam>
          <InterpolatingParam id="240" interp="linr"  time="-9999999/1" value="1" leadInLength="0/1"  interpolater="leadin-linr"  name="opacity"/>
          <InterpolatingParam id="241" interp="linr"  time="0/1" value="1" leadInLength="0/1"  name="cursorOpacity"/>
          <InterpolatingParam id="242" interp="linr"  time="0/1" value="1" leadInLength="0/1"  name="cursorScale"/>
          <InterpolatingParam id="243" interp="linr"  time="0/1" value="1" leadInLength="0/1"  name="volume"/>
          <Parameter id="244"  name="captions"/>
         </Parameters>
         <Effects>
          <GenericEffect id="245" name = "NoiseReduction" >
           <Parameters>
           <InterpolatingParam id="246" interp="linr"  time="0/1" value="27.599999999999998" leadInLength="0/1"   name="denoiserAmount"/>
           <InterpolatingParam id="247" interp="linr"  time="0/1" value="2.2799999999999994" leadInLength="0/1"   name="denoiserThreshold"/>
           <Parameter id="248"   name="noiseProfile">
            <Keyframes>
            <Keyframe id="249"  time="0/1" value="FBAAAAIAAABErAAAAQIAAN+eccKJBV7Ce3VfwlLsasKP+GXCcOFcwhVIXsJEHWPCCN5nwh1zZML4&#xD;&#xa;aWrCOFNxwosCdsJ8dnnCKJF5won1gMIscYTCDaiEwol4g8InLoPCJz6DwuPhg8KjBYXC7sODwsep&#xD;&#xa;hML7VoXCiGqGwixNiMLKdYrCAxmLwg4wjMKQCo3Cj6+NwtNdjcKcD4zCqPSNwkbqj8I+MJHCojyR&#xD;&#xa;wksGk8JOC5PCzCGQwq3FjsJXP47Cny6QwhGQlMKbn5fC9BSYwuKmmMISSZnCrOqawuR1ncKp1Z3C&#xD;&#xa;/hGdwuQEnsL9PZ/CrM+fwsXxn8IX5qDCquuhwtLjoMJM85zC8omcwpConcIRuZvC/ICawrwpmsI6&#xD;&#xa;n5TCXEmRwvamk8Llt5fCB9OUwhHsksLbjZXCGrqZwu1UksIOfozCiP+Uwu61n8IvPaTCvfSmwrQf&#xD;&#xa;qMKAy6TCurWjwq4eo8JYMaLCslmiwqykoMIc5qDC4amgwrXuosIOfKPCB86gwlGxn8JgL57C2N2e&#xD;&#xa;wsaJoMKjGKXCdUylwv2Jo8J6bKPCajKmwkpPqMLoWqrCOEWtwrNqrcIz+67CLGSywnoys8IyZLLC&#xD;&#xa;s7S1wg+assI6bbHCMouvwkver8KBEa/CCBatwlH7rsJUA6/CpOutwvaorsLtP6vCaWipwgAXq8Jc&#xD;&#xa;N6rCLGiqwlqbq8Je6K3CxJquwhg9scIv2bHCKaKywkc+s8Ja1rPCEou0wv4GtcK9GbbCA2qzwrMP&#xD;&#xa;tMIWVrLCuHqyws52tMJMnLPCq5aywgRUs8KdQ7XCWuK2wp6btMIQxrDCpJCvwoznsMLLqq/ChQWw&#xD;&#xa;wujvsMLzPLDCn8+twqpSrMIV3azCnW6pwuFJp8Lkf6bCbaCnws3lqMKqW6vCc8Kpwo1GqMKnKqnC&#xD;&#xa;KQCswos8rMJXnqnCeVaqwiDWrsLMObLCYHmzwh/LssJsurPCFA60wmHuscJxh6/ClmuywkLTs8Lh&#xD;&#xa;Z7LCsCSvwlKHr8LgELPCDd+0woRFtsKKMbfCL4q1wiFXssLcerPCSh62wkQzt8LeP7jCyyq4wtrA&#xD;&#xa;ucImHLvCDPq7wq40usKMlrnC3J64wiDMucK7n7nCPTi7wpgqvMLF7rvCNrm7wte6usKsn7vCgiu9&#xD;&#xa;wr5xu8L4/LrCgAy7wr/6usKoSLzC2VO7wsxbvMKLu7zCy6i9wsLYvsJTJL3C0su6wlgmusJ0LrrC&#xD;&#xa;y2i7whqrusKWxrvCCDK9wgqovsKkN8DCHe69wtTOu8LMQbnCuJu7wmKku8JNrrrCqee7wqb+u8Ks&#xD;&#xa;r7zCv+27wrJ7u8J2/bvCNHS7wgp5u8Kiw7nCLJi5wvpjucK+qbnCrY65wl2mucLWELnCil+3wl5/&#xD;&#xa;t8LGuLfCfJu7wllmt8Jud7bCX5e6wkJrvMLMF77Clrm9woliv8LUEr/COtK9wopjvcLmrb7C+F2/&#xD;&#xa;won/vMI6XbvCf2i8wtoCvML+F73CGaG/wiUQv8IG2L7COJy8wsixvMIEfb3C47q6whf4uMIUSrzC&#xD;&#xa;4pO8wqR1vMJWub3CSHa8wmi/vMKgbb3Chmu9wn/7u8IVJrvCFJu7wr+vu8KQ6bzC5Fu7wibousK4&#xD;&#xa;L7vCunC6wkB/usJ0TrrCvEq7wryzu8Jm2bjCjOu3wje3u8LTJr7CJvK7wkU+usJHibrCdOi9wtAj&#xD;&#xa;vsIjGr3C+p+8wgZdvsIuasDC5CO/wujrvsLJv7/CBDi+wn8KvMLgtLvCjMa8wjA0v8I4/r7Csbe/&#xD;&#xa;wowbv8IjibzChg2+woC1v8Lw5cDCuOTAwsodv8JEfb7CEgK/wtp0v8LE8b/CsIG/wo2svsKMZ77C&#xD;&#xa;Lu2+wlaxv8LqzcDCQrO/wpw1v8I0d7/CHB3BwkZ0wcJMJsLCxDzBwpx3v8Ly1r/CDNnBwn8Mw8K+&#xD;&#xa;qsbCZvzQwoK92MITH9nCYPrXwqAZ1sKL+NTCjBvVwqQm2sKMAtnCUijNwsf0ycJOQtHCS9TVwovn&#xD;&#xa;18KMe9jC4iXawq5T28KDrt/Cvjbhwsu+4cK+tt/CbEfhwg945sK85OLCcZ7cwjXp2sJS7tvC5trb&#xD;&#xa;wux/2cKOGd/C1qfiwsIN6MINnPHCrpT3wnEX88Ki1fLCiSr2wsgh+MLqeffCKEP3wsac98I/5ffC&#xD;&#xa;HKn4wui0+MJm4PjCjLX5wuKG+cI6g/jCz0T3wvL298KWmfnCwI74wrL798KYgPfCWBv4wjxH+cKs&#xD;&#xa;evjCmQj4wsCZ+MKEiPnCprf4wk55+MIi7vjCfyn4wvyU+MIjW/jCmIP4wlIG+cIQVvfCAHL2wob6&#xD;&#xa;98LKBfnCSEf4wqxO9sJiJ/jCxPv5wgol+sJmMfjC3qP4wp5P+MJcuPfCFsT4wvSU+cLo/vnCNSn4&#xD;&#xa;wm7w9sJIpfjCqOb5wvhQ+cKsh/fCrYb2wqS89cIuv/bCl+n3wvxv+MJOAPnCuoL4wpIm+cJ+5vjC&#xD;&#xa;NJv5wrAW+cJ2uvbCs7P2wriw+MI9hPbC/lb3wt2g98L+aPjCllP5wnQx+cJW/PnC6oT4wrA2+MIG&#xD;&#xa;qffCIE33wsoU98KP1/XCnGX4wr5d+cIUU/nCbAX4whao98LMG/jCNnb4wtJw98Jsw/fCcsP4whhi&#xD;&#xa;+ML+vPbCf1b3wqIJ+cLCvffCZfL3wkKf+MLG5vbCACv3wpef98Iox/fCkqb3wjx09sL0vvbCVDL3&#xD;&#xa;wpzh9sIuofXCQVj1wtpr98IyCvnCQnr5wuI1+MK6XPjCztD3wo6N+MLFTfjCosX5whBS+sKw//jC&#xD;&#xa;eFb3wuQI98JYVfjCIQ4Dwy6accKGA17Cl3Rfwj7sasLi+mXCaeNcwrRIXsJ3HWPCed1nwltzZMJJ&#xD;&#xa;amrCCVJxwrgBdsIrdnnCS495wh31gMKCcYTCgKiEwrp5g8JLLoPCLT6Dwgvig8IgBoXCZMWDwies&#xD;&#xa;hMJTWIXCl2uGwmVNiMJ0dorCpRmLwsswjMLjDI3CHbGNwpJdjcICEIzCyPONwpzmj8IhMJHCQECR&#xD;&#xa;wmMIk8KpDJPChSWQwq/GjsJRP47CTi6Qwq2PlMJXoJfCZBaYwnSnmMKDSJnC+umawjJyncIv0Z3C&#xD;&#xa;Xw6dwh8BnsJ4O5/Crs2fwonun8JE4aDCxumhwrzdoMJ18ZzCpo2cws+qncKauJvCBIGawvErmsJY&#xD;&#xa;oZTC5EiRwm2pk8IkupfCbNCUwpbpksJFjpXCvcGZwl5VksKkfYzCd/+UwlK3n8JePKTCs/amwu4r&#xD;&#xa;qMJ53qTCysyjwrgvo8JpPKLCqleiwgCdoMKu3qDC+qmgwv7posJXf6PC8Nigwsy1n8KJN57CYuGe&#xD;&#xa;wmSIoMLeH6XCyGWlwpqko8Kwg6PCWkOmwldIqMKQXqrCXFqtwjlzrcLtIq/C6n2ywshIs8KriLLC&#xD;&#xa;zX+1woOKssLHmLHCd76vwpQIsMLCPK/CAQmtwmXxrsLy/K7C6+6twhe1rsKMZavC96KpwtFIq8Ks&#xD;&#xa;X6rCBXuqwkW3q8IoGK7Cl92uwiF+scK8K7LCe+SywgRts8I+/LPCnY20wlz8tMK63bXCVXWzwqgz&#xD;&#xa;tMIbkrLCmqmywqpXtML2irPCwbeywnJss8LGobXC9T23wgSZtMJYurDCDIyvwmIMscJqy6/CWP+v&#xD;&#xa;wroAscLuVLDCmuitwkx1rMKj5qzCIImpws5lp8JtmKbCqb6nwogEqcKpZKvC7NSpwrFlqMJtXanC&#xD;&#xa;1hGswu4rrMLHn6nCJWCqwujOrsIQJ7LCM1azwn61ssIyt7PCyiu0wuoyssJdxq/CI2+ywuKts8Kf&#xD;&#xa;ZrLCyTCvwp6qr8LmR7PCmkW1wkORtsJZZrfChKC1wpldssKGerPC3162wtqRt8IqZbjCygS4wsqt&#xD;&#xa;ucK3WbvClMm8wsTAusKtmbnCuOe4wnAuusJaubnCc+a6wuFrvMJKsrzC2j28whAtu8Lfs7vCqGG9&#xD;&#xa;wsWNu8IeFrvC/qW7wk6Ru8LXJrzCKaW7wgDgvMLN2bzCvo29wsLYvsJCS73Cpy67wqKLusKgcrrC&#xD;&#xa;ymG7wtfjusKDALzCouG8wjPVvsIzmMDCUgm+wiMXvMIDmLnCqM+7wqMAvMKD+7rCoSm8wiAtvML0&#xD;&#xa;Eb3CBF68ws6Zu8JE+bvClXO7wst3u8K+3bnCorO5wg1CucJ0k7nCTI65wraXucLp/LjCQE23wixu&#xD;&#xa;t8JmnbfCRpu7wltxt8JsgLbCp5S6wsGAvMJhFr7CptG9wjamv8LQR7/C6g2+wulfvcJ3r77C/2e/&#xD;&#xa;wsgGvcLUb7vCRnm8wukTvMLFMb3Cmq2/wloqv8LO377CBoq8wiqkvMLye73CvLy6wiTuuMJsOLzC&#xD;&#xa;OoW8wsRvvMK2yL3C2om8woy0vMLFUL3Crlu9wqrnu8JeN7vCcqi7wjLFu8LC6rzCuGS7wuj1usJ4&#xD;&#xa;NrvCVH66wm2MusJDUrrCkly7wn7Gu8LC5bjC2f+3wrLUu8JoNb7CifS7wng/usIseLrCjMG9wlQi&#xD;&#xa;vsJ0Fr3CxpS8woJXvsJQXcDC6CW/wvrovsJ0sb/C7BK+wjL+u8KGprvC7cC8wlpBv8IA5r7COpS/&#xD;&#xa;wuQBv8LOkrzCjS2+wt7Hv8LS38DCQ9/AwnoOv8IiZL7CKPa+wqNov8Il/r/CZHS/woSPvsLUUr7C&#xD;&#xa;vea+wjShv8KCtsDCrq2/wlQuv8IRfL/CrEDBwrh+wcJRPcLCHETBwmB8v8KSzb/CWfbBwtH9wsL9&#xD;&#xa;w8bC7gfRwjLg2MICB9nCjd/XwvwW1sIKL9XCulPVwmdj2sLgjNnCMEbNwiQNysIzRNHCDLjVws3/&#xD;&#xa;18JIJ9jCTtDZwqJW28LkpN/CFkXhwgy24cLI9N/CtFzhwhHl5sJ/fOPC/aHcwmZd2sJovdvCb77c&#xD;&#xa;wmRa2sLojd/CKITiwiS/6MLwHPHCJk72whBa9sJwDfXCDAr2wh6098Lae/fCBbn2wkBC9sK+WPfC&#xD;&#xa;VEb5wt6b+MLBZPjCwKr5wl6++cKQ0/fCctX3wsQY+cJqM/nCDPv3wtJ/98LuJffCXGH4wqY++MI2&#xD;&#xa;5/fCwDn4wupE98KRr/bCXhv2wqRX98KwC/jCgGH2why/98Kc9fjC9G34wt7i98LhsPfChxb3whqu&#xD;&#xa;9sI4bfbCqNv2wv3y9sLihvjCWqj4wqpM+cLs9fjCtRL4wp7b+MLqFPnCEEL5wppK+cKwaPjCRvH3&#xD;&#xa;wtia+MKgd/jCbLr2wibX9cIpx/fC3DD4wujf+MLGRfrCaP34wnDv+MKyUPjCFnv4wiCr+MJ4K/jC&#xD;&#xa;flb5wr6R+MIN+/fCARj4wuZr98KOz/jCzOH4ws7T98LIffbC/sT1wjh09sJOxPjC8rz4wpxs98KO&#xD;&#xa;ufbCK673wmyL98LzAfjCFLv4wi5Y+cKyzvnC3qX5woxX+sKibffCcJ/3wqJ6+MJX9/fCiOb2ws9M&#xD;&#xa;9sL2PPfC0bv3wirD98JsVfjCsUb4wr9Y+MJGL/jCYC75wjZH+cIYTfnCRoP6wgoR+sJ+T/jCRGz4&#xD;&#xa;wkrH+MJO+/jCIPz3wqux98KuwPfCItD3wlyV+MJmk/fCgi74wvNZ98Id8fbCyGH3wq0o+MJw1fbC&#xD;&#xa;jT73whBp+cIrWffCJ14B" leadInLength="0/1"  />
            </Keyframes>
           </Parameter>
           </Parameters>
           <MetaData>
            <entry key="effectIndex" val="0"/>
           </MetaData>
          </GenericEffect>
         </Effects>
         <Attributes>
          <Attribute id="250" value="" name="ident"/>
          <Attribute id="251" value="0" name="mixToMono"/>
         </Attributes>
         <MetaData>
          <entry key="WinSubProjectDisplayName" val=""/>
         </MetaData>
         <ExtraData>
          <Entry key="ZoomPanBin">
           <ZoomPanBin id="252"  >
            <ZoomPanKeyframes>
             <ZoomPanKeyframe id="253" timeRangeEnd="-9999999/1" timeRangeDuration="0/1" interpolaterName="linr"  />
            </ZoomPanKeyframes>
           </ZoomPanBin>
          </Entry>
          <Entry key="CursorEffectBin">
           <CursorEffectBin id="254"  >
            <CursorEffectKeyframes>
            </CursorEffectKeyframes>
           </CursorEffectBin>
          </Entry>
         </ExtraData>
         <GenericTrack id="255"  >
          <Attributes>
           <Attribute id="256" value="" name="ident"/>
           <Attribute id="257" value="0" name="audioMuted"/>
           <Attribute id="258" value="0" name="videoHidden"/>
          </Attributes>
          <MetaData>
           <entry key="IsLocked" val="False"/>
           <entry key="WinTrackHeight" val="0"/>
          </MetaData>
          <Medias>
           <UnifiedMedia id="259"  >
            <AMFile id="260" start="0" duration="974" scalar="1/1" mediaStart="0/1" mediaDuration="974/1" trackNumber="2" src="4" channelNumber="0,1" >
             <Parameters>
              <InterpolatingParam id="261" interp="linr"  time="0/1" value="1" leadInLength="0/1"  name="volume"/>
              <Parameter id="262"  name="captions"/>
             </Parameters>
             <Attributes>
              <Attribute id="263" value="" name="ident"/>
              <Attribute id="264" value="44100" name="sampleRate"/>
              <Attribute id="265" value="16" name="bitDepth"/>
              <Attribute id="266" value="1" name="gain"/>
              <Attribute id="267" value="0" name="mixToMono"/>
             </Attributes>
            </AMFile>
            <VMFile id="268" start="0" duration="974" scalar="1/1" mediaStart="0/1" mediaDuration="974/1" trackNumber="1" src="4" >
             <Transformer>
              <VectorParam id="269"  name="translation">
               <InterpolatingParam id="270" interp="linr"  time="-9999999/1" value="0" leadInLength="0/1"  />
               <InterpolatingParam id="271" interp="linr"  time="-9999999/1" value="0" leadInLength="0/1"  />
               <InterpolatingParam id="272" interp="linr"  time="-9999999/1" value="0" leadInLength="0/1"  />
              </VectorParam>
              <VectorParam id="273"  name="rotation">
               <InterpolatingParam id="274" interp="linr"  time="-9999999/1" value="0" leadInLength="0/1"  />
               <InterpolatingParam id="275" interp="linr"  time="-9999999/1" value="0" leadInLength="0/1"  />
               <InterpolatingParam id="276" interp="linr"  time="-9999999/1" value="0" leadInLength="0/1"  />
              </VectorParam>
              <VectorParam id="277"  name="shear">
               <InterpolatingParam id="278" interp="linr"  time="-9999999/1" value="0" leadInLength="0/1"  />
               <InterpolatingParam id="279" interp="linr"  time="-9999999/1" value="0" leadInLength="0/1"  />
               <InterpolatingParam id="280" interp="linr"  time="-9999999/1" value="0" leadInLength="0/1"  />
              </VectorParam>
              <VectorParam id="281"  name="scale">
               <InterpolatingParam id="282" interp="linr"  time="-9999999/1" value="1" leadInLength="0/1"  />
               <InterpolatingParam id="283" interp="linr"  time="-9999999/1" value="1" leadInLength="0/1"  />
               <InterpolatingParam id="284" interp="linr"  time="-9999999/1" value="1" leadInLength="0/1"  />
              </VectorParam>
              <VectorParam id="285"  name="anchor">
               <InterpolatingParam id="286" interp="linr"  time="0/1" value="0" leadInLength="0/1"  />
               <InterpolatingParam id="287" interp="linr"  time="0/1" value="0" leadInLength="0/1"  />
               <InterpolatingParam id="288" interp="linr"  time="0/1" value="0" leadInLength="0/1"  />
              </VectorParam>
             </Transformer>
             <Parameters>
              <VectorParam id="289"  name="sourceCrop">
               <InterpolatingParam id="290" interp="linr"  time="0/1" value="0" leadInLength="0/1"  />
               <InterpolatingParam id="291" interp="linr"  time="0/1" value="0" leadInLength="0/1"  />
               <InterpolatingParam id="292" interp="linr"  time="0/1" value="0" leadInLength="0/1"  />
               <InterpolatingParam id="293" interp="linr"  time="0/1" value="0" leadInLength="0/1"  />
              </VectorParam>
              <VectorParam id="294"  name="geometryCrop">
               <InterpolatingParam id="295" interp="linr"  time="-9999999/1" value="0" leadInLength="0/1"  />
               <InterpolatingParam id="296" interp="linr"  time="-9999999/1" value="0" leadInLength="0/1"  />
               <InterpolatingParam id="297" interp="linr"  time="-9999999/1" value="0" leadInLength="0/1"  />
               <InterpolatingParam id="298" interp="linr"  time="-9999999/1" value="0" leadInLength="0/1"  />
              </VectorParam>
              <InterpolatingParam id="299" interp="linr"  time="-9999999/1" value="1" leadInLength="0/1"  name="opacity"/>
             </Parameters>
             <Attributes>
              <Attribute id="300" value="" name="ident"/>
             </Attributes>
             <ExtraData>
              <Entry key="ZoomPanBin">
               <ZoomPanBin id="301"  >
                <ZoomPanKeyframes>
                 <ZoomPanKeyframe id="302" timeRangeEnd="-9999999/1" timeRangeDuration="0/1" interpolaterName=""  />
                </ZoomPanKeyframes>
               </ZoomPanBin>
              </Entry>
             </ExtraData>
            </VMFile>
            <MetaData>
             <entry key="WinSubProjectDisplayName" val=""/>
            </MetaData>
           </UnifiedMedia>
           <UnifiedMedia id="303"  >
            <AMFile id="304" start="974" duration="50" scalar="1/1" mediaStart="987/1" mediaDuration="50/1" trackNumber="2" src="4" channelNumber="0,1" >
             <Parameters>
              <InterpolatingParam id="305" interp="linr"  time="0/1" value="1" leadInLength="0/1"  name="volume"/>
              <Parameter id="306"  name="captions"/>
             </Parameters>
             <Attributes>
              <Attribute id="307" value="" name="ident"/>
              <Attribute id="308" value="44100" name="sampleRate"/>
              <Attribute id="309" value="16" name="bitDepth"/>
              <Attribute id="310" value="1" name="gain"/>
              <Attribute id="311" value="0" name="mixToMono"/>
             </Attributes>
            </AMFile>
            <VMFile id="312" start="974" duration="50" scalar="1/1" mediaStart="987/1" mediaDuration="50/1" trackNumber="1" src="4" >
             <Transformer>
              <VectorParam id="313"  name="translation">
               <InterpolatingParam id="314" interp="linr"  time="-9999999/1" value="0" leadInLength="0/1"  />
               <InterpolatingParam id="315" interp="linr"  time="-9999999/1" value="0" leadInLength="0/1"  />
               <InterpolatingParam id="316" interp="linr"  time="-9999999/1" value="0" leadInLength="0/1"  />
              </VectorParam>
              <VectorParam id="317"  name="rotation">
               <InterpolatingParam id="318" interp="linr"  time="-9999999/1" value="0" leadInLength="0/1"  />
               <InterpolatingParam id="319" interp="linr"  time="-9999999/1" value="0" leadInLength="0/1"  />
               <InterpolatingParam id="320" interp="linr"  time="-9999999/1" value="0" leadInLength="0/1"  />
              </VectorParam>
              <VectorParam id="321"  name="shear">
               <InterpolatingParam id="322" interp="linr"  time="-9999999/1" value="0" leadInLength="0/1"  />
               <InterpolatingParam id="323" interp="linr"  time="-9999999/1" value="0" leadInLength="0/1"  />
               <InterpolatingParam id="324" interp="linr"  time="-9999999/1" value="0" leadInLength="0/1"  />
              </VectorParam>
              <VectorParam id="325"  name="scale">
               <InterpolatingParam id="326" interp="linr"  time="-9999999/1" value="1" leadInLength="0/1"  />
               <InterpolatingParam id="327" interp="linr"  time="-9999999/1" value="1" leadInLength="0/1"  />
               <InterpolatingParam id="328" interp="linr"  time="-9999999/1" value="1" leadInLength="0/1"  />
              </VectorParam>
              <VectorParam id="329"  name="anchor">
               <InterpolatingParam id="330" interp="linr"  time="0/1" value="0" leadInLength="0/1"  />
               <InterpolatingParam id="331" interp="linr"  time="0/1" value="0" leadInLength="0/1"  />
               <InterpolatingParam id="332" interp="linr"  time="0/1" value="0" leadInLength="0/1"  />
              </VectorParam>
             </Transformer>
             <Parameters>
              <VectorParam id="333"  name="sourceCrop">
               <InterpolatingParam id="334" interp="linr"  time="0/1" value="0" leadInLength="0/1"  />
               <InterpolatingParam id="335" interp="linr"  time="0/1" value="0" leadInLength="0/1"  />
               <InterpolatingParam id="336" interp="linr"  time="0/1" value="0" leadInLength="0/1"  />
               <InterpolatingParam id="337" interp="linr"  time="0/1" value="0" leadInLength="0/1"  />
              </VectorParam>
              <VectorParam id="338"  name="geometryCrop">
               <InterpolatingParam id="339" interp="linr"  time="-9999999/1" value="0" leadInLength="0/1"  />
               <InterpolatingParam id="340" interp="linr"  time="-9999999/1" value="0" leadInLength="0/1"  />
               <InterpolatingParam id="341" interp="linr"  time="-9999999/1" value="0" leadInLength="0/1"  />
               <InterpolatingParam id="342" interp="linr"  time="-9999999/1" value="0" leadInLength="0/1"  />
              </VectorParam>
              <InterpolatingParam id="343" interp="linr"  time="-9999999/1" value="1" leadInLength="0/1"  name="opacity"/>
             </Parameters>
             <Attributes>
              <Attribute id="344" value="" name="ident"/>
             </Attributes>
             <ExtraData>
              <Entry key="ZoomPanBin">
               <ZoomPanBin id="345"  >
                <ZoomPanKeyframes>
                 <ZoomPanKeyframe id="346" timeRangeEnd="-9999999/1" timeRangeDuration="0/1" interpolaterName=""  />
                </ZoomPanKeyframes>
               </ZoomPanBin>
              </Entry>
             </ExtraData>
            </VMFile>
            <MetaData>
             <entry key="WinSubProjectDisplayName" val=""/>
            </MetaData>
           </UnifiedMedia>
           <UnifiedMedia id="347"  >
            <AMFile id="348" start="1024" duration="32" scalar="1/1" mediaStart="1043/1" mediaDuration="32/1" trackNumber="2" src="4" channelNumber="0,1" >
             <Parameters>
              <InterpolatingParam id="349" interp="linr"  time="0/1" value="1" leadInLength="0/1"  name="volume"/>
              <Parameter id="350"  name="captions"/>
             </Parameters>
             <Attributes>
              <Attribute id="351" value="" name="ident"/>
              <Attribute id="352" value="44100" name="sampleRate"/>
              <Attribute id="353" value="16" name="bitDepth"/>
              <Attribute id="354" value="1" name="gain"/>
              <Attribute id="355" value="0" name="mixToMono"/>
             </Attributes>
            </AMFile>
            <VMFile id="356" start="1024" duration="32" scalar="1/1" mediaStart="1043/1" mediaDuration="32/1" trackNumber="1" src="4" >
             <Transformer>
              <VectorParam id="357"  name="translation">
               <InterpolatingParam id="358" interp="linr"  time="-9999999/1" value="0" leadInLength="0/1"  />
               <InterpolatingParam id="359" interp="linr"  time="-9999999/1" value="0" leadInLength="0/1"  />
               <InterpolatingParam id="360" interp="linr"  time="-9999999/1" value="0" leadInLength="0/1"  />
              </VectorParam>
              <VectorParam id="361"  name="rotation">
               <InterpolatingParam id="362" interp="linr"  time="-9999999/1" value="0" leadInLength="0/1"  />
               <InterpolatingParam id="363" interp="linr"  time="-9999999/1" value="0" leadInLength="0/1"  />
               <InterpolatingParam id="364" interp="linr"  time="-9999999/1" value="0" leadInLength="0/1"  />
              </VectorParam>
              <VectorParam id="365"  name="shear">
               <InterpolatingParam id="366" interp="linr"  time="-9999999/1" value="0" leadInLength="0/1"  />
               <InterpolatingParam id="367" interp="linr"  time="-9999999/1" value="0" leadInLength="0/1"  />
               <InterpolatingParam id="368" interp="linr"  time="-9999999/1" value="0" leadInLength="0/1"  />
              </VectorParam>
              <VectorParam id="369"  name="scale">
               <InterpolatingParam id="370" interp="linr"  time="-9999999/1" value="1" leadInLength="0/1"  />
               <InterpolatingParam id="371" interp="linr"  time="-9999999/1" value="1" leadInLength="0/1"  />
               <InterpolatingParam id="372" interp="linr"  time="-9999999/1" value="1" leadInLength="0/1"  />
              </VectorParam>
              <VectorParam id="373"  name="anchor">
               <InterpolatingParam id="374" interp="linr"  time="0/1" value="0" leadInLength="0/1"  />
               <InterpolatingParam id="375" interp="linr"  time="0/1" value="0" leadInLength="0/1"  />
               <InterpolatingParam id="376" interp="linr"  time="0/1" value="0" leadInLength="0/1"  />
              </VectorParam>
             </Transformer>
             <Parameters>
              <VectorParam id="377"  name="sourceCrop">
               <InterpolatingParam id="378" interp="linr"  time="0/1" value="0" leadInLength="0/1"  />
               <InterpolatingParam id="379" interp="linr"  time="0/1" value="0" leadInLength="0/1"  />
               <InterpolatingParam id="380" interp="linr"  time="0/1" value="0" leadInLength="0/1"  />
               <InterpolatingParam id="381" interp="linr"  time="0/1" value="0" leadInLength="0/1"  />
              </VectorParam>
              <VectorParam id="382"  name="geometryCrop">
               <InterpolatingParam id="383" interp="linr"  time="-9999999/1" value="0" leadInLength="0/1"  />
               <InterpolatingParam id="384" interp="linr"  time="-9999999/1" value="0" leadInLength="0/1"  />
               <InterpolatingParam id="385" interp="linr"  time="-9999999/1" value="0" leadInLength="0/1"  />
               <InterpolatingParam id="386" interp="linr"  time="-9999999/1" value="0" leadInLength="0/1"  />
              </VectorParam>
              <InterpolatingParam id="387" interp="linr"  time="-9999999/1" value="1" leadInLength="0/1"  name="opacity"/>
             </Parameters>
             <Attributes>
              <Attribute id="388" value="" name="ident"/>
             </Attributes>
             <ExtraData>
              <Entry key="ZoomPanBin">
               <ZoomPanBin id="389"  >
                <ZoomPanKeyframes>
                 <ZoomPanKeyframe id="390" timeRangeEnd="-9999999/1" timeRangeDuration="0/1" interpolaterName=""  />
                </ZoomPanKeyframes>
               </ZoomPanBin>
              </Entry>
             </ExtraData>
            </VMFile>
            <MetaData>
             <entry key="WinSubProjectDisplayName" val=""/>
            </MetaData>
           </UnifiedMedia>
           <UnifiedMedia id="391"  >
            <AMFile id="392" start="1056" duration="182" scalar="1/1" mediaStart="1094/1" mediaDuration="182/1" trackNumber="2" src="4" channelNumber="0,1" >
             <Parameters>
              <InterpolatingParam id="393" interp="linr"  time="0/1" value="1" leadInLength="0/1"  name="volume"/>
              <Parameter id="394"  name="captions"/>
             </Parameters>
             <Attributes>
              <Attribute id="395" value="" name="ident"/>
              <Attribute id="396" value="44100" name="sampleRate"/>
              <Attribute id="397" value="16" name="bitDepth"/>
              <Attribute id="398" value="1" name="gain"/>
              <Attribute id="399" value="0" name="mixToMono"/>
             </Attributes>
            </AMFile>
            <VMFile id="400" start="1056" duration="182" scalar="1/1" mediaStart="1094/1" mediaDuration="182/1" trackNumber="1" src="4" >
             <Transformer>
              <VectorParam id="401"  name="translation">
               <InterpolatingParam id="402" interp="linr"  time="-9999999/1" value="0" leadInLength="0/1"  />
               <InterpolatingParam id="403" interp="linr"  time="-9999999/1" value="0" leadInLength="0/1"  />
               <InterpolatingParam id="404" interp="linr"  time="-9999999/1" value="0" leadInLength="0/1"  />
              </VectorParam>
              <VectorParam id="405"  name="rotation">
               <InterpolatingParam id="406" interp="linr"  time="-9999999/1" value="0" leadInLength="0/1"  />
               <InterpolatingParam id="407" interp="linr"  time="-9999999/1" value="0" leadInLength="0/1"  />
               <InterpolatingParam id="408" interp="linr"  time="-9999999/1" value="0" leadInLength="0/1"  />
              </VectorParam>
              <VectorParam id="409"  name="shear">
               <InterpolatingParam id="410" interp="linr"  time="-9999999/1" value="0" leadInLength="0/1"  />
               <InterpolatingParam id="411" interp="linr"  time="-9999999/1" value="0" leadInLength="0/1"  />
               <InterpolatingParam id="412" interp="linr"  time="-9999999/1" value="0" leadInLength="0/1"  />
              </VectorParam>
              <VectorParam id="413"  name="scale">
               <InterpolatingParam id="414" interp="linr"  time="-9999999/1" value="1" leadInLength="0/1"  />
               <InterpolatingParam id="415" interp="linr"  time="-9999999/1" value="1" leadInLength="0/1"  />
               <InterpolatingParam id="416" interp="linr"  time="-9999999/1" value="1" leadInLength="0/1"  />
              </VectorParam>
              <VectorParam id="417"  name="anchor">
               <InterpolatingParam id="418" interp="linr"  time="0/1" value="0" leadInLength="0/1"  />
               <InterpolatingParam id="419" interp="linr"  time="0/1" value="0" leadInLength="0/1"  />
               <InterpolatingParam id="420" interp="linr"  time="0/1" value="0" leadInLength="0/1"  />
              </VectorParam>
             </Transformer>
             <Parameters>
              <VectorParam id="421"  name="sourceCrop">
               <InterpolatingParam id="422" interp="linr"  time="0/1" value="0" leadInLength="0/1"  />
               <InterpolatingParam id="423" interp="linr"  time="0/1" value="0" leadInLength="0/1"  />
               <InterpolatingParam id="424" interp="linr"  time="0/1" value="0" leadInLength="0/1"  />
               <InterpolatingParam id="425" interp="linr"  time="0/1" value="0" leadInLength="0/1"  />
              </VectorParam>
              <VectorParam id="426"  name="geometryCrop">
               <InterpolatingParam id="427" interp="linr"  time="-9999999/1" value="0" leadInLength="0/1"  />
               <InterpolatingParam id="428" interp="linr"  time="-9999999/1" value="0" leadInLength="0/1"  />
               <InterpolatingParam id="429" interp="linr"  time="-9999999/1" value="0" leadInLength="0/1"  />
               <InterpolatingParam id="430" interp="linr"  time="-9999999/1" value="0" leadInLength="0/1"  />
              </VectorParam>
              <InterpolatingParam id="431" interp="linr"  time="-9999999/1" value="1" leadInLength="0/1"  name="opacity"/>
             </Parameters>
             <Attributes>
              <Attribute id="432" value="" name="ident"/>
             </Attributes>
             <ExtraData>
              <Entry key="ZoomPanBin">
               <ZoomPanBin id="433"  >
                <ZoomPanKeyframes>
                 <ZoomPanKeyframe id="434" timeRangeEnd="-9999999/1" timeRangeDuration="0/1" interpolaterName=""  />
                </ZoomPanKeyframes>
               </ZoomPanBin>
              </Entry>
             </ExtraData>
            </VMFile>
            <MetaData>
             <entry key="WinSubProjectDisplayName" val=""/>
            </MetaData>
           </UnifiedMedia>
           <UnifiedMedia id="435"  >
            <AMFile id="436" start="1238" duration="78" scalar="1/1" mediaStart="1304/1" mediaDuration="78/1" trackNumber="2" src="4" channelNumber="0,1" >
             <Parameters>
              <InterpolatingParam id="437" interp="linr"  time="0/1" value="1" leadInLength="0/1"  name="volume"/>
              <Parameter id="438"  name="captions"/>
             </Parameters>
             <Attributes>
              <Attribute id="439" value="" name="ident"/>
              <Attribute id="440" value="44100" name="sampleRate"/>
              <Attribute id="441" value="16" name="bitDepth"/>
              <Attribute id="442" value="1" name="gain"/>
              <Attribute id="443" value="0" name="mixToMono"/>
             </Attributes>
            </AMFile>
            <VMFile id="444" start="1238" duration="78" scalar="1/1" mediaStart="1304/1" mediaDuration="78/1" trackNumber="1" src="4" >
             <Transformer>
              <VectorParam id="445"  name="translation">
               <InterpolatingParam id="446" interp="linr"  time="-9999999/1" value="0" leadInLength="0/1"  />
               <InterpolatingParam id="447" interp="linr"  time="-9999999/1" value="0" leadInLength="0/1"  />
               <InterpolatingParam id="448" interp="linr"  time="-9999999/1" value="0" leadInLength="0/1"  />
              </VectorParam>
              <VectorParam id="449"  name="rotation">
               <InterpolatingParam id="450" interp="linr"  time="-9999999/1" value="0" leadInLength="0/1"  />
               <InterpolatingParam id="451" interp="linr"  time="-9999999/1" value="0" leadInLength="0/1"  />
               <InterpolatingParam id="452" interp="linr"  time="-9999999/1" value="0" leadInLength="0/1"  />
              </VectorParam>
              <VectorParam id="453"  name="shear">
               <InterpolatingParam id="454" interp="linr"  time="-9999999/1" value="0" leadInLength="0/1"  />
               <InterpolatingParam id="455" interp="linr"  time="-9999999/1" value="0" leadInLength="0/1"  />
               <InterpolatingParam id="456" interp="linr"  time="-9999999/1" value="0" leadInLength="0/1"  />
              </VectorParam>
              <VectorParam id="457"  name="scale">
               <InterpolatingParam id="458" interp="linr"  time="-9999999/1" value="1" leadInLength="0/1"  />
               <InterpolatingParam id="459" interp="linr"  time="-9999999/1" value="1" leadInLength="0/1"  />
               <InterpolatingParam id="460" interp="linr"  time="-9999999/1" value="1" leadInLength="0/1"  />
              </VectorParam>
              <VectorParam id="461"  name="anchor">
               <InterpolatingParam id="462" interp="linr"  time="0/1" value="0" leadInLength="0/1"  />
               <InterpolatingParam id="463" interp="linr"  time="0/1" value="0" leadInLength="0/1"  />
               <InterpolatingParam id="464" interp="linr"  time="0/1" value="0" leadInLength="0/1"  />
              </VectorParam>
             </Transformer>
             <Parameters>
              <VectorParam id="465"  name="sourceCrop">
               <InterpolatingParam id="466" interp="linr"  time="0/1" value="0" leadInLength="0/1"  />
               <InterpolatingParam id="467" interp="linr"  time="0/1" value="0" leadInLength="0/1"  />
               <InterpolatingParam id="468" interp="linr"  time="0/1" value="0" leadInLength="0/1"  />
               <InterpolatingParam id="469" interp="linr"  time="0/1" value="0" leadInLength="0/1"  />
              </VectorParam>
              <VectorParam id="470"  name="geometryCrop">
               <InterpolatingParam id="471" interp="linr"  time="-9999999/1" value="0" leadInLength="0/1"  />
               <InterpolatingParam id="472" interp="linr"  time="-9999999/1" value="0" leadInLength="0/1"  />
               <InterpolatingParam id="473" interp="linr"  time="-9999999/1" value="0" leadInLength="0/1"  />
               <InterpolatingParam id="474" interp="linr"  time="-9999999/1" value="0" leadInLength="0/1"  />
              </VectorParam>
              <InterpolatingParam id="475" interp="linr"  time="-9999999/1" value="1" leadInLength="0/1"  name="opacity"/>
             </Parameters>
             <Attributes>
              <Attribute id="476" value="" name="ident"/>
             </Attributes>
             <ExtraData>
              <Entry key="ZoomPanBin">
               <ZoomPanBin id="477"  >
                <ZoomPanKeyframes>
                 <ZoomPanKeyframe id="478" timeRangeEnd="-9999999/1" timeRangeDuration="0/1" interpolaterName=""  />
                </ZoomPanKeyframes>
               </ZoomPanBin>
              </Entry>
             </ExtraData>
            </VMFile>
            <MetaData>
             <entry key="WinSubProjectDisplayName" val=""/>
            </MetaData>
           </UnifiedMedia>
           <UnifiedMedia id="479"  >
            <AMFile id="480" start="1316" duration="180" scalar="1/1" mediaStart="1429/1" mediaDuration="180/1" trackNumber="2" src="4" channelNumber="0,1" >
             <Parameters>
              <InterpolatingParam id="481" interp="linr"  time="0/1" value="1" leadInLength="0/1"  name="volume"/>
              <Parameter id="482"  name="captions"/>
             </Parameters>
             <Attributes>
              <Attribute id="483" value="" name="ident"/>
              <Attribute id="484" value="44100" name="sampleRate"/>
              <Attribute id="485" value="16" name="bitDepth"/>
              <Attribute id="486" value="1" name="gain"/>
              <Attribute id="487" value="0" name="mixToMono"/>
             </Attributes>
            </AMFile>
            <VMFile id="488" start="1316" duration="180" scalar="1/1" mediaStart="1429/1" mediaDuration="180/1" trackNumber="1" src="4" >
             <Transformer>
              <VectorParam id="489"  name="translation">
               <InterpolatingParam id="490" interp="linr"  time="-9999999/1" value="0" leadInLength="0/1"  />
               <InterpolatingParam id="491" interp="linr"  time="-9999999/1" value="0" leadInLength="0/1"  />
               <InterpolatingParam id="492" interp="linr"  time="-9999999/1" value="0" leadInLength="0/1"  />
              </VectorParam>
              <VectorParam id="493"  name="rotation">
               <InterpolatingParam id="494" interp="linr"  time="-9999999/1" value="0" leadInLength="0/1"  />
               <InterpolatingParam id="495" interp="linr"  time="-9999999/1" value="0" leadInLength="0/1"  />
               <InterpolatingParam id="496" interp="linr"  time="-9999999/1" value="0" leadInLength="0/1"  />
              </VectorParam>
              <VectorParam id="497"  name="shear">
               <InterpolatingParam id="498" interp="linr"  time="-9999999/1" value="0" leadInLength="0/1"  />
               <InterpolatingParam id="499" interp="linr"  time="-9999999/1" value="0" leadInLength="0/1"  />
               <InterpolatingParam id="500" interp="linr"  time="-9999999/1" value="0" leadInLength="0/1"  />
              </VectorParam>
              <VectorParam id="501"  name="scale">
               <InterpolatingParam id="502" interp="linr"  time="-9999999/1" value="1" leadInLength="0/1"  />
               <InterpolatingParam id="503" interp="linr"  time="-9999999/1" value="1" leadInLength="0/1"  />
               <InterpolatingParam id="504" interp="linr"  time="-9999999/1" value="1" leadInLength="0/1"  />
              </VectorParam>
              <VectorParam id="505"  name="anchor">
               <InterpolatingParam id="506" interp="linr"  time="0/1" value="0" leadInLength="0/1"  />
               <InterpolatingParam id="507" interp="linr"  time="0/1" value="0" leadInLength="0/1"  />
               <InterpolatingParam id="508" interp="linr"  time="0/1" value="0" leadInLength="0/1"  />
              </VectorParam>
             </Transformer>
             <Parameters>
              <VectorParam id="509"  name="sourceCrop">
               <InterpolatingParam id="510" interp="linr"  time="0/1" value="0" leadInLength="0/1"  />
               <InterpolatingParam id="511" interp="linr"  time="0/1" value="0" leadInLength="0/1"  />
               <InterpolatingParam id="512" interp="linr"  time="0/1" value="0" leadInLength="0/1"  />
               <InterpolatingParam id="513" interp="linr"  time="0/1" value="0" leadInLength="0/1"  />
              </VectorParam>
              <VectorParam id="514"  name="geometryCrop">
               <InterpolatingParam id="515" interp="linr"  time="-9999999/1" value="0" leadInLength="0/1"  />
               <InterpolatingParam id="516" interp="linr"  time="-9999999/1" value="0" leadInLength="0/1"  />
               <InterpolatingParam id="517" interp="linr"  time="-9999999/1" value="0" leadInLength="0/1"  />
               <InterpolatingParam id="518" interp="linr"  time="-9999999/1" value="0" leadInLength="0/1"  />
              </VectorParam>
              <InterpolatingParam id="519" interp="linr"  time="-9999999/1" value="1" leadInLength="0/1"  name="opacity"/>
             </Parameters>
             <Attributes>
              <Attribute id="520" value="" name="ident"/>
             </Attributes>
             <ExtraData>
              <Entry key="ZoomPanBin">
               <ZoomPanBin id="521"  >
                <ZoomPanKeyframes>
                 <ZoomPanKeyframe id="522" timeRangeEnd="-9999999/1" timeRangeDuration="0/1" interpolaterName=""  />
                </ZoomPanKeyframes>
               </ZoomPanBin>
              </Entry>
             </ExtraData>
            </VMFile>
            <MetaData>
             <entry key="WinSubProjectDisplayName" val=""/>
            </MetaData>
           </UnifiedMedia>
           <UnifiedMedia id="523"  >
            <AMFile id="524" start="1496" duration="244" scalar="1/1" mediaStart="1977/1" mediaDuration="244/1" trackNumber="2" src="4" channelNumber="0,1" >
             <Parameters>
              <InterpolatingParam id="525" interp="linr"  time="0/1" value="1" leadInLength="0/1"  name="volume"/>
              <Parameter id="526"  name="captions"/>
             </Parameters>
             <Attributes>
              <Attribute id="527" value="" name="ident"/>
              <Attribute id="528" value="44100" name="sampleRate"/>
              <Attribute id="529" value="16" name="bitDepth"/>
              <Attribute id="530" value="1" name="gain"/>
              <Attribute id="531" value="0" name="mixToMono"/>
             </Attributes>
            </AMFile>
            <VMFile id="532" start="1496" duration="244" scalar="1/1" mediaStart="1977/1" mediaDuration="244/1" trackNumber="1" src="4" >
             <Transformer>
              <VectorParam id="533"  name="translation">
               <InterpolatingParam id="534" interp="linr"  time="-9999999/1" value="0" leadInLength="0/1"  />
               <InterpolatingParam id="535" interp="linr"  time="-9999999/1" value="0" leadInLength="0/1"  />
               <InterpolatingParam id="536" interp="linr"  time="-9999999/1" value="0" leadInLength="0/1"  />
              </VectorParam>
              <VectorParam id="537"  name="rotation">
               <InterpolatingParam id="538" interp="linr"  time="-9999999/1" value="0" leadInLength="0/1"  />
               <InterpolatingParam id="539" interp="linr"  time="-9999999/1" value="0" leadInLength="0/1"  />
               <InterpolatingParam id="540" interp="linr"  time="-9999999/1" value="0" leadInLength="0/1"  />
              </VectorParam>
              <VectorParam id="541"  name="shear">
               <InterpolatingParam id="542" interp="linr"  time="-9999999/1" value="0" leadInLength="0/1"  />
               <InterpolatingParam id="543" interp="linr"  time="-9999999/1" value="0" leadInLength="0/1"  />
               <InterpolatingParam id="544" interp="linr"  time="-9999999/1" value="0" leadInLength="0/1"  />
              </VectorParam>
              <VectorParam id="545"  name="scale">
               <InterpolatingParam id="546" interp="linr"  time="-9999999/1" value="1" leadInLength="0/1"  />
               <InterpolatingParam id="547" interp="linr"  time="-9999999/1" value="1" leadInLength="0/1"  />
               <InterpolatingParam id="548" interp="linr"  time="-9999999/1" value="1" leadInLength="0/1"  />
              </VectorParam>
              <VectorParam id="549"  name="anchor">
               <InterpolatingParam id="550" interp="linr"  time="0/1" value="0" leadInLength="0/1"  />
               <InterpolatingParam id="551" interp="linr"  time="0/1" value="0" leadInLength="0/1"  />
               <InterpolatingParam id="552" interp="linr"  time="0/1" value="0" leadInLength="0/1"  />
              </VectorParam>
             </Transformer>
             <Parameters>
              <VectorParam id="553"  name="sourceCrop">
               <InterpolatingParam id="554" interp="linr"  time="0/1" value="0" leadInLength="0/1"  />
               <InterpolatingParam id="555" interp="linr"  time="0/1" value="0" leadInLength="0/1"  />
               <InterpolatingParam id="556" interp="linr"  time="0/1" value="0" leadInLength="0/1"  />
               <InterpolatingParam id="557" interp="linr"  time="0/1" value="0" leadInLength="0/1"  />
              </VectorParam>
              <VectorParam id="558"  name="geometryCrop">
               <InterpolatingParam id="559" interp="linr"  time="-9999999/1" value="0" leadInLength="0/1"  />
               <InterpolatingParam id="560" interp="linr"  time="-9999999/1" value="0" leadInLength="0/1"  />
               <InterpolatingParam id="561" interp="linr"  time="-9999999/1" value="0" leadInLength="0/1"  />
               <InterpolatingParam id="562" interp="linr"  time="-9999999/1" value="0" leadInLength="0/1"  />
              </VectorParam>
              <InterpolatingParam id="563" interp="linr"  time="-9999999/1" value="1" leadInLength="0/1"  name="opacity"/>
             </Parameters>
             <Attributes>
              <Attribute id="564" value="" name="ident"/>
             </Attributes>
             <ExtraData>
              <Entry key="ZoomPanBin">
               <ZoomPanBin id="565"  >
                <ZoomPanKeyframes>
                 <ZoomPanKeyframe id="566" timeRangeEnd="-9999999/1" timeRangeDuration="0/1" interpolaterName=""  />
                </ZoomPanKeyframes>
               </ZoomPanBin>
              </Entry>
             </ExtraData>
            </VMFile>
            <MetaData>
             <entry key="WinSubProjectDisplayName" val=""/>
            </MetaData>
           </UnifiedMedia>
           <UnifiedMedia id="567"  >
            <AMFile id="568" start="1740" duration="44" scalar="1/1" mediaStart="2243/1" mediaDuration="44/1" trackNumber="2" src="4" channelNumber="0,1" >
             <Parameters>
              <InterpolatingParam id="569" interp="linr"  time="0/1" value="1" leadInLength="0/1"  name="volume"/>
              <Parameter id="570"  name="captions"/>
             </Parameters>
             <Attributes>
              <Attribute id="571" value="" name="ident"/>
              <Attribute id="572" value="44100" name="sampleRate"/>
              <Attribute id="573" value="16" name="bitDepth"/>
              <Attribute id="574" value="1" name="gain"/>
              <Attribute id="575" value="0" name="mixToMono"/>
             </Attributes>
            </AMFile>
            <VMFile id="576" start="1740" duration="44" scalar="1/1" mediaStart="2243/1" mediaDuration="44/1" trackNumber="1" src="4" >
             <Transformer>
              <VectorParam id="577"  name="translation">
               <InterpolatingParam id="578" interp="linr"  time="-9999999/1" value="0" leadInLength="0/1"  />
               <InterpolatingParam id="579" interp="linr"  time="-9999999/1" value="0" leadInLength="0/1"  />
               <InterpolatingParam id="580" interp="linr"  time="-9999999/1" value="0" leadInLength="0/1"  />
              </VectorParam>
              <VectorParam id="581"  name="rotation">
               <InterpolatingParam id="582" interp="linr"  time="-9999999/1" value="0" leadInLength="0/1"  />
               <InterpolatingParam id="583" interp="linr"  time="-9999999/1" value="0" leadInLength="0/1"  />
               <InterpolatingParam id="584" interp="linr"  time="-9999999/1" value="0" leadInLength="0/1"  />
              </VectorParam>
              <VectorParam id="585"  name="shear">
               <InterpolatingParam id="586" interp="linr"  time="-9999999/1" value="0" leadInLength="0/1"  />
               <InterpolatingParam id="587" interp="linr"  time="-9999999/1" value="0" leadInLength="0/1"  />
               <InterpolatingParam id="588" interp="linr"  time="-9999999/1" value="0" leadInLength="0/1"  />
              </VectorParam>
              <VectorParam id="589"  name="scale">
               <InterpolatingParam id="590" interp="linr"  time="-9999999/1" value="1" leadInLength="0/1"  />
               <InterpolatingParam id="591" interp="linr"  time="-9999999/1" value="1" leadInLength="0/1"  />
               <InterpolatingParam id="592" interp="linr"  time="-9999999/1" value="1" leadInLength="0/1"  />
              </VectorParam>
              <VectorParam id="593"  name="anchor">
               <InterpolatingParam id="594" interp="linr"  time="0/1" value="0" leadInLength="0/1"  />
               <InterpolatingParam id="595" interp="linr"  time="0/1" value="0" leadInLength="0/1"  />
               <InterpolatingParam id="596" interp="linr"  time="0/1" value="0" leadInLength="0/1"  />
              </VectorParam>
             </Transformer>
             <Parameters>
              <VectorParam id="597"  name="sourceCrop">
               <InterpolatingParam id="598" interp="linr"  time="0/1" value="0" leadInLength="0/1"  />
               <InterpolatingParam id="599" interp="linr"  time="0/1" value="0" leadInLength="0/1"  />
               <InterpolatingParam id="600" interp="linr"  time="0/1" value="0" leadInLength="0/1"  />
               <InterpolatingParam id="601" interp="linr"  time="0/1" value="0" leadInLength="0/1"  />
              </VectorParam>
              <VectorParam id="602"  name="geometryCrop">
               <InterpolatingParam id="603" interp="linr"  time="-9999999/1" value="0" leadInLength="0/1"  />
               <InterpolatingParam id="604" interp="linr"  time="-9999999/1" value="0" leadInLength="0/1"  />
               <InterpolatingParam id="605" interp="linr"  time="-9999999/1" value="0" leadInLength="0/1"  />
               <InterpolatingParam id="606" interp="linr"  time="-9999999/1" value="0" leadInLength="0/1"  />
              </VectorParam>
              <InterpolatingParam id="607" interp="linr"  time="-9999999/1" value="1" leadInLength="0/1"  name="opacity"/>
             </Parameters>
             <Attributes>
              <Attribute id="608" value="" name="ident"/>
             </Attributes>
             <ExtraData>
              <Entry key="ZoomPanBin">
               <ZoomPanBin id="609"  >
                <ZoomPanKeyframes>
                 <ZoomPanKeyframe id="610" timeRangeEnd="-9999999/1" timeRangeDuration="0/1" interpolaterName=""  />
                </ZoomPanKeyframes>
               </ZoomPanBin>
              </Entry>
             </ExtraData>
            </VMFile>
            <MetaData>
             <entry key="WinSubProjectDisplayName" val=""/>
            </MetaData>
           </UnifiedMedia>
           <UnifiedMedia id="611"  >
            <AMFile id="612" start="1784" duration="683" scalar="1/1" mediaStart="2306/1" mediaDuration="683/1" trackNumber="2" src="4" channelNumber="0,1" >
             <Parameters>
              <InterpolatingParam id="613" interp="linr"  time="0/1" value="1" leadInLength="0/1"  name="volume"/>
              <Parameter id="614"  name="captions"/>
             </Parameters>
             <Attributes>
              <Attribute id="615" value="" name="ident"/>
              <Attribute id="616" value="44100" name="sampleRate"/>
              <Attribute id="617" value="16" name="bitDepth"/>
              <Attribute id="618" value="1" name="gain"/>
              <Attribute id="619" value="0" name="mixToMono"/>
             </Attributes>
            </AMFile>
            <VMFile id="620" start="1784" duration="683" scalar="1/1" mediaStart="2306/1" mediaDuration="683/1" trackNumber="1" src="4" >
             <Transformer>
              <VectorParam id="621"  name="translation">
               <InterpolatingParam id="622" interp="linr"  time="-9999999/1" value="0" leadInLength="0/1"  />
               <InterpolatingParam id="623" interp="linr"  time="-9999999/1" value="0" leadInLength="0/1"  />
               <InterpolatingParam id="624" interp="linr"  time="-9999999/1" value="0" leadInLength="0/1"  />
              </VectorParam>
              <VectorParam id="625"  name="rotation">
               <InterpolatingParam id="626" interp="linr"  time="-9999999/1" value="0" leadInLength="0/1"  />
               <InterpolatingParam id="627" interp="linr"  time="-9999999/1" value="0" leadInLength="0/1"  />
               <InterpolatingParam id="628" interp="linr"  time="-9999999/1" value="0" leadInLength="0/1"  />
              </VectorParam>
              <VectorParam id="629"  name="shear">
               <InterpolatingParam id="630" interp="linr"  time="-9999999/1" value="0" leadInLength="0/1"  />
               <InterpolatingParam id="631" interp="linr"  time="-9999999/1" value="0" leadInLength="0/1"  />
               <InterpolatingParam id="632" interp="linr"  time="-9999999/1" value="0" leadInLength="0/1"  />
              </VectorParam>
              <VectorParam id="633"  name="scale">
               <InterpolatingParam id="634" interp="linr"  time="-9999999/1" value="1" leadInLength="0/1"  />
               <InterpolatingParam id="635" interp="linr"  time="-9999999/1" value="1" leadInLength="0/1"  />
               <InterpolatingParam id="636" interp="linr"  time="-9999999/1" value="1" leadInLength="0/1"  />
              </VectorParam>
              <VectorParam id="637"  name="anchor">
               <InterpolatingParam id="638" interp="linr"  time="0/1" value="0" leadInLength="0/1"  />
               <InterpolatingParam id="639" interp="linr"  time="0/1" value="0" leadInLength="0/1"  />
               <InterpolatingParam id="640" interp="linr"  time="0/1" value="0" leadInLength="0/1"  />
              </VectorParam>
             </Transformer>
             <Parameters>
              <VectorParam id="641"  name="sourceCrop">
               <InterpolatingParam id="642" interp="linr"  time="0/1" value="0" leadInLength="0/1"  />
               <InterpolatingParam id="643" interp="linr"  time="0/1" value="0" leadInLength="0/1"  />
               <InterpolatingParam id="644" interp="linr"  time="0/1" value="0" leadInLength="0/1"  />
               <InterpolatingParam id="645" interp="linr"  time="0/1" value="0" leadInLength="0/1"  />
              </VectorParam>
              <VectorParam id="646"  name="geometryCrop">
               <InterpolatingParam id="647" interp="linr"  time="-9999999/1" value="0" leadInLength="0/1"  />
               <InterpolatingParam id="648" interp="linr"  time="-9999999/1" value="0" leadInLength="0/1"  />
               <InterpolatingParam id="649" interp="linr"  time="-9999999/1" value="0" leadInLength="0/1"  />
               <InterpolatingParam id="650" interp="linr"  time="-9999999/1" value="0" leadInLength="0/1"  />
              </VectorParam>
              <InterpolatingParam id="651" interp="linr"  time="-9999999/1" value="1" leadInLength="0/1"  name="opacity"/>
             </Parameters>
             <Attributes>
              <Attribute id="652" value="" name="ident"/>
             </Attributes>
             <ExtraData>
              <Entry key="ZoomPanBin">
               <ZoomPanBin id="653"  >
                <ZoomPanKeyframes>
                 <ZoomPanKeyframe id="654" timeRangeEnd="-9999999/1" timeRangeDuration="0/1" interpolaterName=""  />
                </ZoomPanKeyframes>
               </ZoomPanBin>
              </Entry>
             </ExtraData>
            </VMFile>
            <MetaData>
             <entry key="WinSubProjectDisplayName" val=""/>
            </MetaData>
           </UnifiedMedia>
           <UnifiedMedia id="655"  >
            <AMFile id="656" start="2467" duration="4370" scalar="1/1" mediaStart="3080/1" mediaDuration="4370/1" trackNumber="2" src="4" channelNumber="0,1" >
             <Parameters>
              <InterpolatingParam id="657" interp="linr"  time="0/1" value="1" leadInLength="0/1"  name="volume"/>
              <Parameter id="658"  name="captions"/>
             </Parameters>
             <Attributes>
              <Attribute id="659" value="" name="ident"/>
              <Attribute id="660" value="44100" name="sampleRate"/>
              <Attribute id="661" value="16" name="bitDepth"/>
              <Attribute id="662" value="1" name="gain"/>
              <Attribute id="663" value="0" name="mixToMono"/>
             </Attributes>
            </AMFile>
            <VMFile id="664" start="2467" duration="4370" scalar="1/1" mediaStart="3080/1" mediaDuration="4370/1" trackNumber="1" src="4" >
             <Transformer>
              <VectorParam id="665"  name="translation">
               <InterpolatingParam id="666" interp="linr"  time="-9999999/1" value="0" leadInLength="0/1"  />
               <InterpolatingParam id="667" interp="linr"  time="-9999999/1" value="0" leadInLength="0/1"  />
               <InterpolatingParam id="668" interp="linr"  time="-9999999/1" value="0" leadInLength="0/1"  />
              </VectorParam>
              <VectorParam id="669"  name="rotation">
               <InterpolatingParam id="670" interp="linr"  time="-9999999/1" value="0" leadInLength="0/1"  />
               <InterpolatingParam id="671" interp="linr"  time="-9999999/1" value="0" leadInLength="0/1"  />
               <InterpolatingParam id="672" interp="linr"  time="-9999999/1" value="0" leadInLength="0/1"  />
              </VectorParam>
              <VectorParam id="673"  name="shear">
               <InterpolatingParam id="674" interp="linr"  time="-9999999/1" value="0" leadInLength="0/1"  />
               <InterpolatingParam id="675" interp="linr"  time="-9999999/1" value="0" leadInLength="0/1"  />
               <InterpolatingParam id="676" interp="linr"  time="-9999999/1" value="0" leadInLength="0/1"  />
              </VectorParam>
              <VectorParam id="677"  name="scale">
               <InterpolatingParam id="678" interp="linr"  time="-9999999/1" value="1" leadInLength="0/1"  />
               <InterpolatingParam id="679" interp="linr"  time="-9999999/1" value="1" leadInLength="0/1"  />
               <InterpolatingParam id="680" interp="linr"  time="-9999999/1" value="1" leadInLength="0/1"  />
              </VectorParam>
              <VectorParam id="681"  name="anchor">
               <InterpolatingParam id="682" interp="linr"  time="0/1" value="0" leadInLength="0/1"  />
               <InterpolatingParam id="683" interp="linr"  time="0/1" value="0" leadInLength="0/1"  />
               <InterpolatingParam id="684" interp="linr"  time="0/1" value="0" leadInLength="0/1"  />
              </VectorParam>
             </Transformer>
             <Parameters>
              <VectorParam id="685"  name="sourceCrop">
               <InterpolatingParam id="686" interp="linr"  time="0/1" value="0" leadInLength="0/1"  />
               <InterpolatingParam id="687" interp="linr"  time="0/1" value="0" leadInLength="0/1"  />
               <InterpolatingParam id="688" interp="linr"  time="0/1" value="0" leadInLength="0/1"  />
               <InterpolatingParam id="689" interp="linr"  time="0/1" value="0" leadInLength="0/1"  />
              </VectorParam>
              <VectorParam id="690"  name="geometryCrop">
               <InterpolatingParam id="691" interp="linr"  time="-9999999/1" value="0" leadInLength="0/1"  />
               <InterpolatingParam id="692" interp="linr"  time="-9999999/1" value="0" leadInLength="0/1"  />
               <InterpolatingParam id="693" interp="linr"  time="-9999999/1" value="0" leadInLength="0/1"  />
               <InterpolatingParam id="694" interp="linr"  time="-9999999/1" value="0" leadInLength="0/1"  />
              </VectorParam>
              <InterpolatingParam id="695" interp="linr"  time="-9999999/1" value="1" leadInLength="0/1"  name="opacity"/>
             </Parameters>
             <Attributes>
              <Attribute id="696" value="" name="ident"/>
             </Attributes>
             <ExtraData>
              <Entry key="ZoomPanBin">
               <ZoomPanBin id="697"  >
                <ZoomPanKeyframes>
                 <ZoomPanKeyframe id="698" timeRangeEnd="-9999999/1" timeRangeDuration="0/1" interpolaterName=""  />
                </ZoomPanKeyframes>
               </ZoomPanBin>
              </Entry>
             </ExtraData>
            </VMFile>
            <MetaData>
             <entry key="WinSubProjectDisplayName" val=""/>
            </MetaData>
           </UnifiedMedia>
          </Medias>
         </GenericTrack>
        </StitchedMedia>
        <StitchedMedia id="699" start="2398" duration="2187" scalar="1/1" mediaStart="3467/1" mediaDuration="2187/1" minMediaStart="0/1" >
         <Transformer>
          <VectorParam id="700"  name="translation">
           <InterpolatingParam id="701" interp="linr"  >
            <Keyframes>
            <Keyframe id="702"  time="-9999999/1" value="602.99999999995646" leadInLength="0/1"  interpolater="leadin-linr"  />
            <Keyframe id="703"  time="4503/1" value="328.01992031883742" leadInLength="15/1"  interpolater="leadin-linr"  />
            <Keyframe id="704"  time="4504/1" value="53.039840637718335" leadInLength="1/1"  interpolater="leadin-linr"  />
            </Keyframes>
           </InterpolatingParam>
           <InterpolatingParam id="705" interp="linr"  >
            <Keyframes>
            <Keyframe id="706"  time="-9999999/1" value="-295.69721115569087" leadInLength="0/1"  interpolater="leadin-linr"  />
            <Keyframe id="707"  time="4503/1" value="-147.13147410375768" leadInLength="15/1"  interpolater="leadin-linr"  />
            <Keyframe id="708"  time="4504/1" value="1.4342629481754818" leadInLength="1/1"  interpolater="leadin-linr"  />
            </Keyframes>
           </InterpolatingParam>
           <InterpolatingParam id="709" interp="linr"  >
            <Keyframes>
            <Keyframe id="710"  time="-9999999/1" value="3.4106051316488567e-010" leadInLength="0/1"  interpolater="leadin-linr"  />
            <Keyframe id="711"  time="4503/1" value="3.4106051316488567e-010" leadInLength="15/1"  interpolater="leadin-linr"  />
            <Keyframe id="712"  time="4504/1" value="3.4106051316488567e-010" leadInLength="1/1"  interpolater="leadin-linr"  />
            </Keyframes>
           </InterpolatingParam>
          </VectorParam>
          <VectorParam id="713"  name="rotation">
           <InterpolatingParam id="714" interp="linr"  >
            <Keyframes>
            <Keyframe id="715"  time="-9999999/1" value="0" leadInLength="0/1"  interpolater="leadin-linr"  />
            <Keyframe id="716"  time="4503/1" value="0" leadInLength="15/1"  interpolater="leadin-linr"  />
            <Keyframe id="717"  time="4504/1" value="0" leadInLength="1/1"  interpolater="leadin-linr"  />
            </Keyframes>
           </InterpolatingParam>
           <InterpolatingParam id="718" interp="linr"  >
            <Keyframes>
            <Keyframe id="719"  time="-9999999/1" value="0" leadInLength="0/1"  interpolater="leadin-linr"  />
            <Keyframe id="720"  time="4503/1" value="0" leadInLength="15/1"  interpolater="leadin-linr"  />
            <Keyframe id="721"  time="4504/1" value="0" leadInLength="1/1"  interpolater="leadin-linr"  />
            </Keyframes>
           </InterpolatingParam>
           <InterpolatingParam id="722" interp="linr"  >
            <Keyframes>
            <Keyframe id="723"  time="-9999999/1" value="0" leadInLength="0/1"  interpolater="leadin-linr"  />
            <Keyframe id="724"  time="4503/1" value="0" leadInLength="15/1"  interpolater="leadin-linr"  />
            <Keyframe id="725"  time="4504/1" value="0" leadInLength="1/1"  interpolater="leadin-linr"  />
            </Keyframes>
           </InterpolatingParam>
          </VectorParam>
          <VectorParam id="726"  name="shear">
           <InterpolatingParam id="727" interp="linr"  >
            <Keyframes>
            <Keyframe id="728"  time="-9999999/1" value="0" leadInLength="0/1"  interpolater="leadin-linr"  />
            <Keyframe id="729"  time="4503/1" value="0" leadInLength="15/1"  interpolater="leadin-linr"  />
            <Keyframe id="730"  time="4504/1" value="0" leadInLength="1/1"  interpolater="leadin-linr"  />
            </Keyframes>
           </InterpolatingParam>
           <InterpolatingParam id="731" interp="linr"  >
            <Keyframes>
            <Keyframe id="732"  time="-9999999/1" value="0" leadInLength="0/1"  interpolater="leadin-linr"  />
            <Keyframe id="733"  time="4503/1" value="0" leadInLength="15/1"  interpolater="leadin-linr"  />
            <Keyframe id="734"  time="4504/1" value="0" leadInLength="1/1"  interpolater="leadin-linr"  />
            </Keyframes>
           </InterpolatingParam>
           <InterpolatingParam id="735" interp="linr"  >
            <Keyframes>
            <Keyframe id="736"  time="-9999999/1" value="0" leadInLength="0/1"  interpolater="leadin-linr"  />
            <Keyframe id="737"  time="4503/1" value="0" leadInLength="15/1"  interpolater="leadin-linr"  />
            <Keyframe id="738"  time="4504/1" value="0" leadInLength="1/1"  interpolater="leadin-linr"  />
            </Keyframes>
           </InterpolatingParam>
          </VectorParam>
          <VectorParam id="739"  name="scale">
           <InterpolatingParam id="740" interp="linr"  >
            <Keyframes>
            <Keyframe id="741"  time="-9999999/1" value="0.25" leadInLength="0/1"  interpolater="leadin-linr"  />
            <Keyframe id="742"  time="4503/1" value="0.87201195219116634" leadInLength="15/1"  interpolater="leadin-linr"  />
            <Keyframe id="743"  time="4504/1" value="1.4940239043823327" leadInLength="1/1"  interpolater="leadin-linr"  />
            </Keyframes>
           </InterpolatingParam>
           <InterpolatingParam id="744" interp="linr"  >
            <Keyframes>
            <Keyframe id="745"  time="-9999999/1" value="0.25" leadInLength="0/1"  interpolater="leadin-linr"  />
            <Keyframe id="746"  time="4503/1" value="0.8720119521911659" leadInLength="15/1"  interpolater="leadin-linr"  />
            <Keyframe id="747"  time="4504/1" value="1.4940239043823318" leadInLength="1/1"  interpolater="leadin-linr"  />
            </Keyframes>
           </InterpolatingParam>
           <InterpolatingParam id="748" interp="linr"  >
            <Keyframes>
            <Keyframe id="749"  time="-9999999/1" value="1" leadInLength="0/1"  interpolater="leadin-linr"  />
            <Keyframe id="750"  time="4503/1" value="1" leadInLength="15/1"  interpolater="leadin-linr"  />
            <Keyframe id="751"  time="4504/1" value="1" leadInLength="1/1"  interpolater="leadin-linr"  />
            </Keyframes>
           </InterpolatingParam>
          </VectorParam>
          <VectorParam id="752"  name="anchor">
           <InterpolatingParam id="753" interp="linr"  time="0/1" value="0" leadInLength="0/1"  />
           <InterpolatingParam id="754" interp="linr"  time="0/1" value="0" leadInLength="0/1"  />
           <InterpolatingParam id="755" interp="linr"  time="0/1" value="0" leadInLength="0/1"  />
          </VectorParam>
         </Transformer>
         <Parameters>
          <VectorParam id="756"  name="sourceCrop">
           <InterpolatingParam id="757" interp="linr"  time="0/1" value="0" leadInLength="0/1"  />
           <InterpolatingParam id="758" interp="linr"  time="0/1" value="0" leadInLength="0/1"  />
           <InterpolatingParam id="759" interp="linr"  time="0/1" value="0" leadInLength="0/1"  />
           <InterpolatingParam id="760" interp="linr"  time="0/1" value="0" leadInLength="0/1"  />
          </VectorParam>
          <VectorParam id="761"  name="geometryCrop">
           <InterpolatingParam id="762" interp="linr"  >
            <Keyframes>
            <Keyframe id="763"  time="-9999999/1" value="0" leadInLength="0/1"  interpolater="leadin-linr"  />
            <Keyframe id="764"  time="4503/1" value="0" leadInLength="15/1"  interpolater="leadin-linr"  />
            <Keyframe id="765"  time="4504/1" value="0" leadInLength="1/1"  interpolater="leadin-linr"  />
            </Keyframes>
           </InterpolatingParam>
           <InterpolatingParam id="766" interp="linr"  >
            <Keyframes>
            <Keyframe id="767"  time="-9999999/1" value="0" leadInLength="0/1"  interpolater="leadin-linr"  />
            <Keyframe id="768"  time="4503/1" value="0" leadInLength="15/1"  interpolater="leadin-linr"  />
            <Keyframe id="769"  time="4504/1" value="0" leadInLength="1/1"  interpolater="leadin-linr"  />
            </Keyframes>
           </InterpolatingParam>
           <InterpolatingParam id="770" interp="linr"  >
            <Keyframes>
            <Keyframe id="771"  time="-9999999/1" value="0" leadInLength="0/1"  interpolater="leadin-linr"  />
            <Keyframe id="772"  time="4503/1" value="0" leadInLength="15/1"  interpolater="leadin-linr"  />
            <Keyframe id="773"  time="4504/1" value="0" leadInLength="1/1"  interpolater="leadin-linr"  />
            </Keyframes>
           </InterpolatingParam>
           <InterpolatingParam id="774" interp="linr"  >
            <Keyframes>
            <Keyframe id="775"  time="-9999999/1" value="0" leadInLength="0/1"  interpolater="leadin-linr"  />
            <Keyframe id="776"  time="4503/1" value="0" leadInLength="15/1"  interpolater="leadin-linr"  />
            <Keyframe id="777"  time="4504/1" value="0" leadInLength="1/1"  interpolater="leadin-linr"  />
            </Keyframes>
           </InterpolatingParam>
          </VectorParam>
          <InterpolatingParam id="778" interp="linr"  name="opacity">
           <Keyframes>
           <Keyframe id="779"  time="-9999999/1" value="1" leadInLength="0/1"  interpolater="leadin-linr"  />
           <Keyframe id="780"  time="4503/1" value="1" leadInLength="15/1"  interpolater="leadin-linr"  />
           <Keyframe id="781"  time="4504/1" value="1" leadInLength="1/1"  interpolater="leadin-linr"  />
           </Keyframes>
          </InterpolatingParam>
          <InterpolatingParam id="782" interp="linr"  time="0/1" value="1" leadInLength="0/1"  name="cursorOpacity"/>
          <InterpolatingParam id="783" interp="linr"  time="0/1" value="1" leadInLength="0/1"  name="cursorScale"/>
          <InterpolatingParam id="784" interp="linr"  time="0/1" value="1" leadInLength="0/1"  name="volume"/>
          <Parameter id="785"  name="captions"/>
         </Parameters>
         <Effects>
          <GenericEffect id="786" name = "NoiseReduction" >
           <Parameters>
           <InterpolatingParam id="787" interp="linr"  time="0/1" value="27.599999999999998" leadInLength="0/1"   name="denoiserAmount"/>
           <InterpolatingParam id="788" interp="linr"  time="0/1" value="2.2799999999999994" leadInLength="0/1"   name="denoiserThreshold"/>
           <Parameter id="789"   name="noiseProfile">
            <Keyframes>
            <Keyframe id="790"  time="0/1" value="FBAAAAIAAABErAAAAQIAAN+eccKJBV7Ce3VfwlLsasKP+GXCcOFcwhVIXsJEHWPCCN5nwh1zZML4&#xD;&#xa;aWrCOFNxwosCdsJ8dnnCKJF5won1gMIscYTCDaiEwol4g8InLoPCJz6DwuPhg8KjBYXC7sODwsep&#xD;&#xa;hML7VoXCiGqGwixNiMLKdYrCAxmLwg4wjMKQCo3Cj6+NwtNdjcKcD4zCqPSNwkbqj8I+MJHCojyR&#xD;&#xa;wksGk8JOC5PCzCGQwq3FjsJXP47Cny6QwhGQlMKbn5fC9BSYwuKmmMISSZnCrOqawuR1ncKp1Z3C&#xD;&#xa;/hGdwuQEnsL9PZ/CrM+fwsXxn8IX5qDCquuhwtLjoMJM85zC8omcwpConcIRuZvC/ICawrwpmsI6&#xD;&#xa;n5TCXEmRwvamk8Llt5fCB9OUwhHsksLbjZXCGrqZwu1UksIOfozCiP+Uwu61n8IvPaTCvfSmwrQf&#xD;&#xa;qMKAy6TCurWjwq4eo8JYMaLCslmiwqykoMIc5qDC4amgwrXuosIOfKPCB86gwlGxn8JgL57C2N2e&#xD;&#xa;wsaJoMKjGKXCdUylwv2Jo8J6bKPCajKmwkpPqMLoWqrCOEWtwrNqrcIz+67CLGSywnoys8IyZLLC&#xD;&#xa;s7S1wg+assI6bbHCMouvwkver8KBEa/CCBatwlH7rsJUA6/CpOutwvaorsLtP6vCaWipwgAXq8Jc&#xD;&#xa;N6rCLGiqwlqbq8Je6K3CxJquwhg9scIv2bHCKaKywkc+s8Ja1rPCEou0wv4GtcK9GbbCA2qzwrMP&#xD;&#xa;tMIWVrLCuHqyws52tMJMnLPCq5aywgRUs8KdQ7XCWuK2wp6btMIQxrDCpJCvwoznsMLLqq/ChQWw&#xD;&#xa;wujvsMLzPLDCn8+twqpSrMIV3azCnW6pwuFJp8Lkf6bCbaCnws3lqMKqW6vCc8Kpwo1GqMKnKqnC&#xD;&#xa;KQCswos8rMJXnqnCeVaqwiDWrsLMObLCYHmzwh/LssJsurPCFA60wmHuscJxh6/ClmuywkLTs8Lh&#xD;&#xa;Z7LCsCSvwlKHr8LgELPCDd+0woRFtsKKMbfCL4q1wiFXssLcerPCSh62wkQzt8LeP7jCyyq4wtrA&#xD;&#xa;ucImHLvCDPq7wq40usKMlrnC3J64wiDMucK7n7nCPTi7wpgqvMLF7rvCNrm7wte6usKsn7vCgiu9&#xD;&#xa;wr5xu8L4/LrCgAy7wr/6usKoSLzC2VO7wsxbvMKLu7zCy6i9wsLYvsJTJL3C0su6wlgmusJ0LrrC&#xD;&#xa;y2i7whqrusKWxrvCCDK9wgqovsKkN8DCHe69wtTOu8LMQbnCuJu7wmKku8JNrrrCqee7wqb+u8Ks&#xD;&#xa;r7zCv+27wrJ7u8J2/bvCNHS7wgp5u8Kiw7nCLJi5wvpjucK+qbnCrY65wl2mucLWELnCil+3wl5/&#xD;&#xa;t8LGuLfCfJu7wllmt8Jud7bCX5e6wkJrvMLMF77Clrm9woliv8LUEr/COtK9wopjvcLmrb7C+F2/&#xD;&#xa;won/vMI6XbvCf2i8wtoCvML+F73CGaG/wiUQv8IG2L7COJy8wsixvMIEfb3C47q6whf4uMIUSrzC&#xD;&#xa;4pO8wqR1vMJWub3CSHa8wmi/vMKgbb3Chmu9wn/7u8IVJrvCFJu7wr+vu8KQ6bzC5Fu7wibousK4&#xD;&#xa;L7vCunC6wkB/usJ0TrrCvEq7wryzu8Jm2bjCjOu3wje3u8LTJr7CJvK7wkU+usJHibrCdOi9wtAj&#xD;&#xa;vsIjGr3C+p+8wgZdvsIuasDC5CO/wujrvsLJv7/CBDi+wn8KvMLgtLvCjMa8wjA0v8I4/r7Csbe/&#xD;&#xa;wowbv8IjibzChg2+woC1v8Lw5cDCuOTAwsodv8JEfb7CEgK/wtp0v8LE8b/CsIG/wo2svsKMZ77C&#xD;&#xa;Lu2+wlaxv8LqzcDCQrO/wpw1v8I0d7/CHB3BwkZ0wcJMJsLCxDzBwpx3v8Ly1r/CDNnBwn8Mw8K+&#xD;&#xa;qsbCZvzQwoK92MITH9nCYPrXwqAZ1sKL+NTCjBvVwqQm2sKMAtnCUijNwsf0ycJOQtHCS9TVwovn&#xD;&#xa;18KMe9jC4iXawq5T28KDrt/Cvjbhwsu+4cK+tt/CbEfhwg945sK85OLCcZ7cwjXp2sJS7tvC5trb&#xD;&#xa;wux/2cKOGd/C1qfiwsIN6MINnPHCrpT3wnEX88Ki1fLCiSr2wsgh+MLqeffCKEP3wsac98I/5ffC&#xD;&#xa;HKn4wui0+MJm4PjCjLX5wuKG+cI6g/jCz0T3wvL298KWmfnCwI74wrL798KYgPfCWBv4wjxH+cKs&#xD;&#xa;evjCmQj4wsCZ+MKEiPnCprf4wk55+MIi7vjCfyn4wvyU+MIjW/jCmIP4wlIG+cIQVvfCAHL2wob6&#xD;&#xa;98LKBfnCSEf4wqxO9sJiJ/jCxPv5wgol+sJmMfjC3qP4wp5P+MJcuPfCFsT4wvSU+cLo/vnCNSn4&#xD;&#xa;wm7w9sJIpfjCqOb5wvhQ+cKsh/fCrYb2wqS89cIuv/bCl+n3wvxv+MJOAPnCuoL4wpIm+cJ+5vjC&#xD;&#xa;NJv5wrAW+cJ2uvbCs7P2wriw+MI9hPbC/lb3wt2g98L+aPjCllP5wnQx+cJW/PnC6oT4wrA2+MIG&#xD;&#xa;qffCIE33wsoU98KP1/XCnGX4wr5d+cIUU/nCbAX4whao98LMG/jCNnb4wtJw98Jsw/fCcsP4whhi&#xD;&#xa;+ML+vPbCf1b3wqIJ+cLCvffCZfL3wkKf+MLG5vbCACv3wpef98Iox/fCkqb3wjx09sL0vvbCVDL3&#xD;&#xa;wpzh9sIuofXCQVj1wtpr98IyCvnCQnr5wuI1+MK6XPjCztD3wo6N+MLFTfjCosX5whBS+sKw//jC&#xD;&#xa;eFb3wuQI98JYVfjCIQ4Dwy6accKGA17Cl3Rfwj7sasLi+mXCaeNcwrRIXsJ3HWPCed1nwltzZMJJ&#xD;&#xa;amrCCVJxwrgBdsIrdnnCS495wh31gMKCcYTCgKiEwrp5g8JLLoPCLT6Dwgvig8IgBoXCZMWDwies&#xD;&#xa;hMJTWIXCl2uGwmVNiMJ0dorCpRmLwsswjMLjDI3CHbGNwpJdjcICEIzCyPONwpzmj8IhMJHCQECR&#xD;&#xa;wmMIk8KpDJPChSWQwq/GjsJRP47CTi6Qwq2PlMJXoJfCZBaYwnSnmMKDSJnC+umawjJyncIv0Z3C&#xD;&#xa;Xw6dwh8BnsJ4O5/Crs2fwonun8JE4aDCxumhwrzdoMJ18ZzCpo2cws+qncKauJvCBIGawvErmsJY&#xD;&#xa;oZTC5EiRwm2pk8IkupfCbNCUwpbpksJFjpXCvcGZwl5VksKkfYzCd/+UwlK3n8JePKTCs/amwu4r&#xD;&#xa;qMJ53qTCysyjwrgvo8JpPKLCqleiwgCdoMKu3qDC+qmgwv7posJXf6PC8Nigwsy1n8KJN57CYuGe&#xD;&#xa;wmSIoMLeH6XCyGWlwpqko8Kwg6PCWkOmwldIqMKQXqrCXFqtwjlzrcLtIq/C6n2ywshIs8KriLLC&#xD;&#xa;zX+1woOKssLHmLHCd76vwpQIsMLCPK/CAQmtwmXxrsLy/K7C6+6twhe1rsKMZavC96KpwtFIq8Ks&#xD;&#xa;X6rCBXuqwkW3q8IoGK7Cl92uwiF+scK8K7LCe+SywgRts8I+/LPCnY20wlz8tMK63bXCVXWzwqgz&#xD;&#xa;tMIbkrLCmqmywqpXtML2irPCwbeywnJss8LGobXC9T23wgSZtMJYurDCDIyvwmIMscJqy6/CWP+v&#xD;&#xa;wroAscLuVLDCmuitwkx1rMKj5qzCIImpws5lp8JtmKbCqb6nwogEqcKpZKvC7NSpwrFlqMJtXanC&#xD;&#xa;1hGswu4rrMLHn6nCJWCqwujOrsIQJ7LCM1azwn61ssIyt7PCyiu0wuoyssJdxq/CI2+ywuKts8Kf&#xD;&#xa;ZrLCyTCvwp6qr8LmR7PCmkW1wkORtsJZZrfChKC1wpldssKGerPC3162wtqRt8IqZbjCygS4wsqt&#xD;&#xa;ucK3WbvClMm8wsTAusKtmbnCuOe4wnAuusJaubnCc+a6wuFrvMJKsrzC2j28whAtu8Lfs7vCqGG9&#xD;&#xa;wsWNu8IeFrvC/qW7wk6Ru8LXJrzCKaW7wgDgvMLN2bzCvo29wsLYvsJCS73Cpy67wqKLusKgcrrC&#xD;&#xa;ymG7wtfjusKDALzCouG8wjPVvsIzmMDCUgm+wiMXvMIDmLnCqM+7wqMAvMKD+7rCoSm8wiAtvML0&#xD;&#xa;Eb3CBF68ws6Zu8JE+bvClXO7wst3u8K+3bnCorO5wg1CucJ0k7nCTI65wraXucLp/LjCQE23wixu&#xD;&#xa;t8JmnbfCRpu7wltxt8JsgLbCp5S6wsGAvMJhFr7CptG9wjamv8LQR7/C6g2+wulfvcJ3r77C/2e/&#xD;&#xa;wsgGvcLUb7vCRnm8wukTvMLFMb3Cmq2/wloqv8LO377CBoq8wiqkvMLye73CvLy6wiTuuMJsOLzC&#xD;&#xa;OoW8wsRvvMK2yL3C2om8woy0vMLFUL3Crlu9wqrnu8JeN7vCcqi7wjLFu8LC6rzCuGS7wuj1usJ4&#xD;&#xa;NrvCVH66wm2MusJDUrrCkly7wn7Gu8LC5bjC2f+3wrLUu8JoNb7CifS7wng/usIseLrCjMG9wlQi&#xD;&#xa;vsJ0Fr3CxpS8woJXvsJQXcDC6CW/wvrovsJ0sb/C7BK+wjL+u8KGprvC7cC8wlpBv8IA5r7COpS/&#xD;&#xa;wuQBv8LOkrzCjS2+wt7Hv8LS38DCQ9/AwnoOv8IiZL7CKPa+wqNov8Il/r/CZHS/woSPvsLUUr7C&#xD;&#xa;vea+wjShv8KCtsDCrq2/wlQuv8IRfL/CrEDBwrh+wcJRPcLCHETBwmB8v8KSzb/CWfbBwtH9wsL9&#xD;&#xa;w8bC7gfRwjLg2MICB9nCjd/XwvwW1sIKL9XCulPVwmdj2sLgjNnCMEbNwiQNysIzRNHCDLjVws3/&#xD;&#xa;18JIJ9jCTtDZwqJW28LkpN/CFkXhwgy24cLI9N/CtFzhwhHl5sJ/fOPC/aHcwmZd2sJovdvCb77c&#xD;&#xa;wmRa2sLojd/CKITiwiS/6MLwHPHCJk72whBa9sJwDfXCDAr2wh6098Lae/fCBbn2wkBC9sK+WPfC&#xD;&#xa;VEb5wt6b+MLBZPjCwKr5wl6++cKQ0/fCctX3wsQY+cJqM/nCDPv3wtJ/98LuJffCXGH4wqY++MI2&#xD;&#xa;5/fCwDn4wupE98KRr/bCXhv2wqRX98KwC/jCgGH2why/98Kc9fjC9G34wt7i98LhsPfChxb3whqu&#xD;&#xa;9sI4bfbCqNv2wv3y9sLihvjCWqj4wqpM+cLs9fjCtRL4wp7b+MLqFPnCEEL5wppK+cKwaPjCRvH3&#xD;&#xa;wtia+MKgd/jCbLr2wibX9cIpx/fC3DD4wujf+MLGRfrCaP34wnDv+MKyUPjCFnv4wiCr+MJ4K/jC&#xD;&#xa;flb5wr6R+MIN+/fCARj4wuZr98KOz/jCzOH4ws7T98LIffbC/sT1wjh09sJOxPjC8rz4wpxs98KO&#xD;&#xa;ufbCK673wmyL98LzAfjCFLv4wi5Y+cKyzvnC3qX5woxX+sKibffCcJ/3wqJ6+MJX9/fCiOb2ws9M&#xD;&#xa;9sL2PPfC0bv3wirD98JsVfjCsUb4wr9Y+MJGL/jCYC75wjZH+cIYTfnCRoP6wgoR+sJ+T/jCRGz4&#xD;&#xa;wkrH+MJO+/jCIPz3wqux98KuwPfCItD3wlyV+MJmk/fCgi74wvNZ98Id8fbCyGH3wq0o+MJw1fbC&#xD;&#xa;jT73whBp+cIrWffCJ14B" leadInLength="0/1"  />
            </Keyframes>
           </Parameter>
           </Parameters>
           <MetaData>
            <entry key="effectIndex" val="0"/>
           </MetaData>
          </GenericEffect>
         </Effects>
         <Attributes>
          <Attribute id="791" value="" name="ident"/>
          <Attribute id="792" value="0" name="mixToMono"/>
         </Attributes>
         <MetaData>
          <entry key="WinSubProjectDisplayName" val=""/>
         </MetaData>
         <ExtraData>
          <Entry key="ZoomPanBin">
           <ZoomPanBin id="793"  >
            <ZoomPanKeyframes>
             <ZoomPanKeyframe id="794" timeRangeEnd="-9999999/1" timeRangeDuration="0/1" interpolaterName="linr"  />
             <ZoomPanKeyframe id="795" timeRangeEnd="4503/1" timeRangeDuration="15/1" interpolaterName="linr"  />
             <ZoomPanKeyframe id="796" timeRangeEnd="4504/1" timeRangeDuration="1/1" interpolaterName="linr"  />
            </ZoomPanKeyframes>
           </ZoomPanBin>
          </Entry>
          <Entry key="CursorEffectBin">
           <CursorEffectBin id="797"  >
            <CursorEffectKeyframes>
            </CursorEffectKeyframes>
           </CursorEffectBin>
          </Entry>
         </ExtraData>
         <GenericTrack id="798"  >
          <Attributes>
           <Attribute id="799" value="" name="ident"/>
           <Attribute id="800" value="0" name="audioMuted"/>
           <Attribute id="801" value="0" name="videoHidden"/>
          </Attributes>
          <MetaData>
           <entry key="IsLocked" val="False"/>
           <entry key="WinTrackHeight" val="0"/>
          </MetaData>
          <Medias>
           <UnifiedMedia id="802"  >
            <AMFile id="803" start="0" duration="3659" scalar="1/1" mediaStart="0/1" mediaDuration="3659/1" trackNumber="2" src="4" channelNumber="0,1" >
             <Parameters>
              <InterpolatingParam id="804" interp="linr"  time="0/1" value="1" leadInLength="0/1"  name="volume"/>
              <Parameter id="805"  name="captions"/>
             </Parameters>
             <Attributes>
              <Attribute id="806" value="" name="ident"/>
              <Attribute id="807" value="44100" name="sampleRate"/>
              <Attribute id="808" value="16" name="bitDepth"/>
              <Attribute id="809" value="1" name="gain"/>
              <Attribute id="810" value="0" name="mixToMono"/>
             </Attributes>
            </AMFile>
            <VMFile id="811" start="0" duration="3659" scalar="1/1" mediaStart="0/1" mediaDuration="3659/1" trackNumber="1" src="4" >
             <Transformer>
              <VectorParam id="812"  name="translation">
               <InterpolatingParam id="813" interp="linr"  time="-9999999/1" value="0" leadInLength="0/1"  />
               <InterpolatingParam id="814" interp="linr"  time="-9999999/1" value="0" leadInLength="0/1"  />
               <InterpolatingParam id="815" interp="linr"  time="-9999999/1" value="0" leadInLength="0/1"  />
              </VectorParam>
              <VectorParam id="816"  name="rotation">
               <InterpolatingParam id="817" interp="linr"  time="-9999999/1" value="0" leadInLength="0/1"  />
               <InterpolatingParam id="818" interp="linr"  time="-9999999/1" value="0" leadInLength="0/1"  />
               <InterpolatingParam id="819" interp="linr"  time="-9999999/1" value="0" leadInLength="0/1"  />
              </VectorParam>
              <VectorParam id="820"  name="shear">
               <InterpolatingParam id="821" interp="linr"  time="-9999999/1" value="0" leadInLength="0/1"  />
               <InterpolatingParam id="822" interp="linr"  time="-9999999/1" value="0" leadInLength="0/1"  />
               <InterpolatingParam id="823" interp="linr"  time="-9999999/1" value="0" leadInLength="0/1"  />
              </VectorParam>
              <VectorParam id="824"  name="scale">
               <InterpolatingParam id="825" interp="linr"  time="-9999999/1" value="1" leadInLength="0/1"  />
               <InterpolatingParam id="826" interp="linr"  time="-9999999/1" value="1" leadInLength="0/1"  />
               <InterpolatingParam id="827" interp="linr"  time="-9999999/1" value="1" leadInLength="0/1"  />
              </VectorParam>
              <VectorParam id="828"  name="anchor">
               <InterpolatingParam id="829" interp="linr"  time="0/1" value="0" leadInLength="0/1"  />
               <InterpolatingParam id="830" interp="linr"  time="0/1" value="0" leadInLength="0/1"  />
               <InterpolatingParam id="831" interp="linr"  time="0/1" value="0" leadInLength="0/1"  />
              </VectorParam>
             </Transformer>
             <Parameters>
              <VectorParam id="832"  name="sourceCrop">
               <InterpolatingParam id="833" interp="linr"  time="0/1" value="0" leadInLength="0/1"  />
               <InterpolatingParam id="834" interp="linr"  time="0/1" value="0" leadInLength="0/1"  />
               <InterpolatingParam id="835" interp="linr"  time="0/1" value="0" leadInLength="0/1"  />
               <InterpolatingParam id="836" interp="linr"  time="0/1" value="0" leadInLength="0/1"  />
              </VectorParam>
              <VectorParam id="837"  name="geometryCrop">
               <InterpolatingParam id="838" interp="linr"  time="-9999999/1" value="0" leadInLength="0/1"  />
               <InterpolatingParam id="839" interp="linr"  time="-9999999/1" value="0" leadInLength="0/1"  />
               <InterpolatingParam id="840" interp="linr"  time="-9999999/1" value="0" leadInLength="0/1"  />
               <InterpolatingParam id="841" interp="linr"  time="-9999999/1" value="0" leadInLength="0/1"  />
              </VectorParam>
              <InterpolatingParam id="842" interp="linr"  time="-9999999/1" value="1" leadInLength="0/1"  name="opacity"/>
             </Parameters>
             <Attributes>
              <Attribute id="843" value="" name="ident"/>
             </Attributes>
             <ExtraData>
              <Entry key="ZoomPanBin">
               <ZoomPanBin id="844"  >
                <ZoomPanKeyframes>
                 <ZoomPanKeyframe id="845" timeRangeEnd="-9999999/1" timeRangeDuration="0/1" interpolaterName=""  />
                </ZoomPanKeyframes>
               </ZoomPanBin>
              </Entry>
             </ExtraData>
            </VMFile>
            <MetaData>
             <entry key="WinSubProjectDisplayName" val=""/>
            </MetaData>
           </UnifiedMedia>
           <UnifiedMedia id="846"  >
            <AMFile id="847" start="3659" duration="453" scalar="1/1" mediaStart="3679/1" mediaDuration="453/1" trackNumber="2" src="4" channelNumber="0,1" >
             <Parameters>
              <InterpolatingParam id="848" interp="linr"  time="0/1" value="1" leadInLength="0/1"  name="volume"/>
              <Parameter id="849"  name="captions"/>
             </Parameters>
             <Attributes>
              <Attribute id="850" value="" name="ident"/>
              <Attribute id="851" value="44100" name="sampleRate"/>
              <Attribute id="852" value="16" name="bitDepth"/>
              <Attribute id="853" value="1" name="gain"/>
              <Attribute id="854" value="0" name="mixToMono"/>
             </Attributes>
            </AMFile>
            <VMFile id="855" start="3659" duration="453" scalar="1/1" mediaStart="3679/1" mediaDuration="453/1" trackNumber="1" src="4" >
             <Transformer>
              <VectorParam id="856"  name="translation">
               <InterpolatingParam id="857" interp="linr"  time="-9999999/1" value="0" leadInLength="0/1"  />
               <InterpolatingParam id="858" interp="linr"  time="-9999999/1" value="0" leadInLength="0/1"  />
               <InterpolatingParam id="859" interp="linr"  time="-9999999/1" value="0" leadInLength="0/1"  />
              </VectorParam>
              <VectorParam id="860"  name="rotation">
               <InterpolatingParam id="861" interp="linr"  time="-9999999/1" value="0" leadInLength="0/1"  />
               <InterpolatingParam id="862" interp="linr"  time="-9999999/1" value="0" leadInLength="0/1"  />
               <InterpolatingParam id="863" interp="linr"  time="-9999999/1" value="0" leadInLength="0/1"  />
              </VectorParam>
              <VectorParam id="864"  name="shear">
               <InterpolatingParam id="865" interp="linr"  time="-9999999/1" value="0" leadInLength="0/1"  />
               <InterpolatingParam id="866" interp="linr"  time="-9999999/1" value="0" leadInLength="0/1"  />
               <InterpolatingParam id="867" interp="linr"  time="-9999999/1" value="0" leadInLength="0/1"  />
              </VectorParam>
              <VectorParam id="868"  name="scale">
               <InterpolatingParam id="869" interp="linr"  time="-9999999/1" value="1" leadInLength="0/1"  />
               <InterpolatingParam id="870" interp="linr"  time="-9999999/1" value="1" leadInLength="0/1"  />
               <InterpolatingParam id="871" interp="linr"  time="-9999999/1" value="1" leadInLength="0/1"  />
              </VectorParam>
              <VectorParam id="872"  name="anchor">
               <InterpolatingParam id="873" interp="linr"  time="0/1" value="0" leadInLength="0/1"  />
               <InterpolatingParam id="874" interp="linr"  time="0/1" value="0" leadInLength="0/1"  />
               <InterpolatingParam id="875" interp="linr"  time="0/1" value="0" leadInLength="0/1"  />
              </VectorParam>
             </Transformer>
             <Parameters>
              <VectorParam id="876"  name="sourceCrop">
               <InterpolatingParam id="877" interp="linr"  time="0/1" value="0" leadInLength="0/1"  />
               <InterpolatingParam id="878" interp="linr"  time="0/1" value="0" leadInLength="0/1"  />
               <InterpolatingParam id="879" interp="linr"  time="0/1" value="0" leadInLength="0/1"  />
               <InterpolatingParam id="880" interp="linr"  time="0/1" value="0" leadInLength="0/1"  />
              </VectorParam>
              <VectorParam id="881"  name="geometryCrop">
               <InterpolatingParam id="882" interp="linr"  time="-9999999/1" value="0" leadInLength="0/1"  />
               <InterpolatingParam id="883" interp="linr"  time="-9999999/1" value="0" leadInLength="0/1"  />
               <InterpolatingParam id="884" interp="linr"  time="-9999999/1" value="0" leadInLength="0/1"  />
               <InterpolatingParam id="885" interp="linr"  time="-9999999/1" value="0" leadInLength="0/1"  />
              </VectorParam>
              <InterpolatingParam id="886" interp="linr"  time="-9999999/1" value="1" leadInLength="0/1"  name="opacity"/>
             </Parameters>
             <Attributes>
              <Attribute id="887" value="" name="ident"/>
             </Attributes>
             <ExtraData>
              <Entry key="ZoomPanBin">
               <ZoomPanBin id="888"  >
                <ZoomPanKeyframes>
                 <ZoomPanKeyframe id="889" timeRangeEnd="-9999999/1" timeRangeDuration="0/1" interpolaterName=""  />
                </ZoomPanKeyframes>
               </ZoomPanBin>
              </Entry>
             </ExtraData>
            </VMFile>
            <MetaData>
             <entry key="WinSubProjectDisplayName" val=""/>
            </MetaData>
           </UnifiedMedia>
           <UnifiedMedia id="890"  >
            <AMFile id="891" start="4112" duration="391" scalar="1/1" mediaStart="4416/1" mediaDuration="391/1" trackNumber="2" src="4" channelNumber="0,1" >
             <Parameters>
              <InterpolatingParam id="892" interp="linr"  time="0/1" value="1" leadInLength="0/1"  name="volume"/>
              <Parameter id="893"  name="captions"/>
             </Parameters>
             <Attributes>
              <Attribute id="894" value="" name="ident"/>
              <Attribute id="895" value="44100" name="sampleRate"/>
              <Attribute id="896" value="16" name="bitDepth"/>
              <Attribute id="897" value="1" name="gain"/>
              <Attribute id="898" value="0" name="mixToMono"/>
             </Attributes>
            </AMFile>
            <VMFile id="899" start="4112" duration="391" scalar="1/1" mediaStart="4416/1" mediaDuration="391/1" trackNumber="1" src="4" >
             <Transformer>
              <VectorParam id="900"  name="translation">
               <InterpolatingParam id="901" interp="linr"  time="-9999999/1" value="0" leadInLength="0/1"  />
               <InterpolatingParam id="902" interp="linr"  time="-9999999/1" value="0" leadInLength="0/1"  />
               <InterpolatingParam id="903" interp="linr"  time="-9999999/1" value="0" leadInLength="0/1"  />
              </VectorParam>
              <VectorParam id="904"  name="rotation">
               <InterpolatingParam id="905" interp="linr"  time="-9999999/1" value="0" leadInLength="0/1"  />
               <InterpolatingParam id="906" interp="linr"  time="-9999999/1" value="0" leadInLength="0/1"  />
               <InterpolatingParam id="907" interp="linr"  time="-9999999/1" value="0" leadInLength="0/1"  />
              </VectorParam>
              <VectorParam id="908"  name="shear">
               <InterpolatingParam id="909" interp="linr"  time="-9999999/1" value="0" leadInLength="0/1"  />
               <InterpolatingParam id="910" interp="linr"  time="-9999999/1" value="0" leadInLength="0/1"  />
               <InterpolatingParam id="911" interp="linr"  time="-9999999/1" value="0" leadInLength="0/1"  />
              </VectorParam>
              <VectorParam id="912"  name="scale">
               <InterpolatingParam id="913" interp="linr"  time="-9999999/1" value="1" leadInLength="0/1"  />
               <InterpolatingParam id="914" interp="linr"  time="-9999999/1" value="1" leadInLength="0/1"  />
               <InterpolatingParam id="915" interp="linr"  time="-9999999/1" value="1" leadInLength="0/1"  />
              </VectorParam>
              <VectorParam id="916"  name="anchor">
               <InterpolatingParam id="917" interp="linr"  time="0/1" value="0" leadInLength="0/1"  />
               <InterpolatingParam id="918" interp="linr"  time="0/1" value="0" leadInLength="0/1"  />
               <InterpolatingParam id="919" interp="linr"  time="0/1" value="0" leadInLength="0/1"  />
              </VectorParam>
             </Transformer>
             <Parameters>
              <VectorParam id="920"  name="sourceCrop">
               <InterpolatingParam id="921" interp="linr"  time="0/1" value="0" leadInLength="0/1"  />
               <InterpolatingParam id="922" interp="linr"  time="0/1" value="0" leadInLength="0/1"  />
               <InterpolatingParam id="923" interp="linr"  time="0/1" value="0" leadInLength="0/1"  />
               <InterpolatingParam id="924" interp="linr"  time="0/1" value="0" leadInLength="0/1"  />
              </VectorParam>
              <VectorParam id="925"  name="geometryCrop">
               <InterpolatingParam id="926" interp="linr"  time="-9999999/1" value="0" leadInLength="0/1"  />
               <InterpolatingParam id="927" interp="linr"  time="-9999999/1" value="0" leadInLength="0/1"  />
               <InterpolatingParam id="928" interp="linr"  time="-9999999/1" value="0" leadInLength="0/1"  />
               <InterpolatingParam id="929" interp="linr"  time="-9999999/1" value="0" leadInLength="0/1"  />
              </VectorParam>
              <InterpolatingParam id="930" interp="linr"  time="-9999999/1" value="1" leadInLength="0/1"  name="opacity"/>
             </Parameters>
             <Attributes>
              <Attribute id="931" value="" name="ident"/>
             </Attributes>
             <ExtraData>
              <Entry key="ZoomPanBin">
               <ZoomPanBin id="932"  >
                <ZoomPanKeyframes>
                 <ZoomPanKeyframe id="933" timeRangeEnd="-9999999/1" timeRangeDuration="0/1" interpolaterName=""  />
                </ZoomPanKeyframes>
               </ZoomPanBin>
              </Entry>
             </ExtraData>
            </VMFile>
            <MetaData>
             <entry key="WinSubProjectDisplayName" val=""/>
            </MetaData>
           </UnifiedMedia>
           <UnifiedMedia id="934"  >
            <AMFile id="935" start="4503" duration="44" scalar="1/1" mediaStart="5382/1" mediaDuration="44/1" trackNumber="2" src="4" channelNumber="0,1" >
             <Parameters>
              <InterpolatingParam id="936" interp="linr"  time="0/1" value="1" leadInLength="0/1"  name="volume"/>
              <Parameter id="937"  name="captions"/>
             </Parameters>
             <Attributes>
              <Attribute id="938" value="" name="ident"/>
              <Attribute id="939" value="44100" name="sampleRate"/>
              <Attribute id="940" value="16" name="bitDepth"/>
              <Attribute id="941" value="1" name="gain"/>
              <Attribute id="942" value="0" name="mixToMono"/>
             </Attributes>
            </AMFile>
            <VMFile id="943" start="4503" duration="44" scalar="1/1" mediaStart="5382/1" mediaDuration="44/1" trackNumber="1" src="4" >
             <Transformer>
              <VectorParam id="944"  name="translation">
               <InterpolatingParam id="945" interp="linr"  time="-9999999/1" value="0" leadInLength="0/1"  />
               <InterpolatingParam id="946" interp="linr"  time="-9999999/1" value="0" leadInLength="0/1"  />
               <InterpolatingParam id="947" interp="linr"  time="-9999999/1" value="0" leadInLength="0/1"  />
              </VectorParam>
              <VectorParam id="948"  name="rotation">
               <InterpolatingParam id="949" interp="linr"  time="-9999999/1" value="0" leadInLength="0/1"  />
               <InterpolatingParam id="950" interp="linr"  time="-9999999/1" value="0" leadInLength="0/1"  />
               <InterpolatingParam id="951" interp="linr"  time="-9999999/1" value="0" leadInLength="0/1"  />
              </VectorParam>
              <VectorParam id="952"  name="shear">
               <InterpolatingParam id="953" interp="linr"  time="-9999999/1" value="0" leadInLength="0/1"  />
               <InterpolatingParam id="954" interp="linr"  time="-9999999/1" value="0" leadInLength="0/1"  />
               <InterpolatingParam id="955" interp="linr"  time="-9999999/1" value="0" leadInLength="0/1"  />
              </VectorParam>
              <VectorParam id="956"  name="scale">
               <InterpolatingParam id="957" interp="linr"  time="-9999999/1" value="1" leadInLength="0/1"  />
               <InterpolatingParam id="958" interp="linr"  time="-9999999/1" value="1" leadInLength="0/1"  />
               <InterpolatingParam id="959" interp="linr"  time="-9999999/1" value="1" leadInLength="0/1"  />
              </VectorParam>
              <VectorParam id="960"  name="anchor">
               <InterpolatingParam id="961" interp="linr"  time="0/1" value="0" leadInLength="0/1"  />
               <InterpolatingParam id="962" interp="linr"  time="0/1" value="0" leadInLength="0/1"  />
               <InterpolatingParam id="963" interp="linr"  time="0/1" value="0" leadInLength="0/1"  />
              </VectorParam>
             </Transformer>
             <Parameters>
              <VectorParam id="964"  name="sourceCrop">
               <InterpolatingParam id="965" interp="linr"  time="0/1" value="0" leadInLength="0/1"  />
               <InterpolatingParam id="966" interp="linr"  time="0/1" value="0" leadInLength="0/1"  />
               <InterpolatingParam id="967" interp="linr"  time="0/1" value="0" leadInLength="0/1"  />
               <InterpolatingParam id="968" interp="linr"  time="0/1" value="0" leadInLength="0/1"  />
              </VectorParam>
              <VectorParam id="969"  name="geometryCrop">
               <InterpolatingParam id="970" interp="linr"  time="-9999999/1" value="0" leadInLength="0/1"  />
               <InterpolatingParam id="971" interp="linr"  time="-9999999/1" value="0" leadInLength="0/1"  />
               <InterpolatingParam id="972" interp="linr"  time="-9999999/1" value="0" leadInLength="0/1"  />
               <InterpolatingParam id="973" interp="linr"  time="-9999999/1" value="0" leadInLength="0/1"  />
              </VectorParam>
              <InterpolatingParam id="974" interp="linr"  time="-9999999/1" value="1" leadInLength="0/1"  name="opacity"/>
             </Parameters>
             <Attributes>
              <Attribute id="975" value="" name="ident"/>
             </Attributes>
             <ExtraData>
              <Entry key="ZoomPanBin">
               <ZoomPanBin id="976"  >
                <ZoomPanKeyframes>
                 <ZoomPanKeyframe id="977" timeRangeEnd="-9999999/1" timeRangeDuration="0/1" interpolaterName=""  />
                </ZoomPanKeyframes>
               </ZoomPanBin>
              </Entry>
             </ExtraData>
            </VMFile>
            <MetaData>
             <entry key="WinSubProjectDisplayName" val=""/>
            </MetaData>
           </UnifiedMedia>
           <UnifiedMedia id="978"  >
            <AMFile id="979" start="4547" duration="2" scalar="1/1" mediaStart="5444/1" mediaDuration="2/1" trackNumber="2" src="4" channelNumber="0,1" >
             <Parameters>
              <InterpolatingParam id="980" interp="linr"  time="0/1" value="1" leadInLength="0/1"  name="volume"/>
              <Parameter id="981"  name="captions"/>
             </Parameters>
             <Attributes>
              <Attribute id="982" value="" name="ident"/>
              <Attribute id="983" value="44100" name="sampleRate"/>
              <Attribute id="984" value="16" name="bitDepth"/>
              <Attribute id="985" value="1" name="gain"/>
              <Attribute id="986" value="0" name="mixToMono"/>
             </Attributes>
            </AMFile>
            <VMFile id="987" start="4547" duration="2" scalar="1/1" mediaStart="5444/1" mediaDuration="2/1" trackNumber="1" src="4" >
             <Transformer>
              <VectorParam id="988"  name="translation">
               <InterpolatingParam id="989" interp="linr"  time="-9999999/1" value="0" leadInLength="0/1"  />
               <InterpolatingParam id="990" interp="linr"  time="-9999999/1" value="0" leadInLength="0/1"  />
               <InterpolatingParam id="991" interp="linr"  time="-9999999/1" value="0" leadInLength="0/1"  />
              </VectorParam>
              <VectorParam id="992"  name="rotation">
               <InterpolatingParam id="993" interp="linr"  time="-9999999/1" value="0" leadInLength="0/1"  />
               <InterpolatingParam id="994" interp="linr"  time="-9999999/1" value="0" leadInLength="0/1"  />
               <InterpolatingParam id="995" interp="linr"  time="-9999999/1" value="0" leadInLength="0/1"  />
              </VectorParam>
              <VectorParam id="996"  name="shear">
               <InterpolatingParam id="997" interp="linr"  time="-9999999/1" value="0" leadInLength="0/1"  />
               <InterpolatingParam id="998" interp="linr"  time="-9999999/1" value="0" leadInLength="0/1"  />
               <InterpolatingParam id="999" interp="linr"  time="-9999999/1" value="0" leadInLength="0/1"  />
              </VectorParam>
              <VectorParam id="1000"  name="scale">
               <InterpolatingParam id="1001" interp="linr"  time="-9999999/1" value="1" leadInLength="0/1"  />
               <InterpolatingParam id="1002" interp="linr"  time="-9999999/1" value="1" leadInLength="0/1"  />
               <InterpolatingParam id="1003" interp="linr"  time="-9999999/1" value="1" leadInLength="0/1"  />
              </VectorParam>
              <VectorParam id="1004"  name="anchor">
               <InterpolatingParam id="1005" interp="linr"  time="0/1" value="0" leadInLength="0/1"  />
               <InterpolatingParam id="1006" interp="linr"  time="0/1" value="0" leadInLength="0/1"  />
               <InterpolatingParam id="1007" interp="linr"  time="0/1" value="0" leadInLength="0/1"  />
              </VectorParam>
             </Transformer>
             <Parameters>
              <VectorParam id="1008"  name="sourceCrop">
               <InterpolatingParam id="1009" interp="linr"  time="0/1" value="0" leadInLength="0/1"  />
               <InterpolatingParam id="1010" interp="linr"  time="0/1" value="0" leadInLength="0/1"  />
               <InterpolatingParam id="1011" interp="linr"  time="0/1" value="0" leadInLength="0/1"  />
               <InterpolatingParam id="1012" interp="linr"  time="0/1" value="0" leadInLength="0/1"  />
              </VectorParam>
              <VectorParam id="1013"  name="geometryCrop">
               <InterpolatingParam id="1014" interp="linr"  time="-9999999/1" value="0" leadInLength="0/1"  />
               <InterpolatingParam id="1015" interp="linr"  time="-9999999/1" value="0" leadInLength="0/1"  />
               <InterpolatingParam id="1016" interp="linr"  time="-9999999/1" value="0" leadInLength="0/1"  />
               <InterpolatingParam id="1017" interp="linr"  time="-9999999/1" value="0" leadInLength="0/1"  />
              </VectorParam>
              <InterpolatingParam id="1018" interp="linr"  time="-9999999/1" value="1" leadInLength="0/1"  name="opacity"/>
             </Parameters>
             <Attributes>
              <Attribute id="1019" value="" name="ident"/>
             </Attributes>
             <ExtraData>
              <Entry key="ZoomPanBin">
               <ZoomPanBin id="1020"  >
                <ZoomPanKeyframes>
                 <ZoomPanKeyframe id="1021" timeRangeEnd="-9999999/1" timeRangeDuration="0/1" interpolaterName=""  />
                </ZoomPanKeyframes>
               </ZoomPanBin>
              </Entry>
             </ExtraData>
            </VMFile>
            <MetaData>
             <entry key="WinSubProjectDisplayName" val=""/>
            </MetaData>
           </UnifiedMedia>
           <UnifiedMedia id="1022"  >
            <AMFile id="1023" start="4549" duration="50" scalar="1/1" mediaStart="5466/1" mediaDuration="50/1" trackNumber="2" src="4" channelNumber="0,1" >
             <Parameters>
              <InterpolatingParam id="1024" interp="linr"  time="0/1" value="1" leadInLength="0/1"  name="volume"/>
              <Parameter id="1025"  name="captions"/>
             </Parameters>
             <Attributes>
              <Attribute id="1026" value="" name="ident"/>
              <Attribute id="1027" value="44100" name="sampleRate"/>
              <Attribute id="1028" value="16" name="bitDepth"/>
              <Attribute id="1029" value="1" name="gain"/>
              <Attribute id="1030" value="0" name="mixToMono"/>
             </Attributes>
            </AMFile>
            <VMFile id="1031" start="4549" duration="50" scalar="1/1" mediaStart="5466/1" mediaDuration="50/1" trackNumber="1" src="4" >
             <Transformer>
              <VectorParam id="1032"  name="translation">
               <InterpolatingParam id="1033" interp="linr"  time="-9999999/1" value="0" leadInLength="0/1"  />
               <InterpolatingParam id="1034" interp="linr"  time="-9999999/1" value="0" leadInLength="0/1"  />
               <InterpolatingParam id="1035" interp="linr"  time="-9999999/1" value="0" leadInLength="0/1"  />
              </VectorParam>
              <VectorParam id="1036"  name="rotation">
               <InterpolatingParam id="1037" interp="linr"  time="-9999999/1" value="0" leadInLength="0/1"  />
               <InterpolatingParam id="1038" interp="linr"  time="-9999999/1" value="0" leadInLength="0/1"  />
               <InterpolatingParam id="1039" interp="linr"  time="-9999999/1" value="0" leadInLength="0/1"  />
              </VectorParam>
              <VectorParam id="1040"  name="shear">
               <InterpolatingParam id="1041" interp="linr"  time="-9999999/1" value="0" leadInLength="0/1"  />
               <InterpolatingParam id="1042" interp="linr"  time="-9999999/1" value="0" leadInLength="0/1"  />
               <InterpolatingParam id="1043" interp="linr"  time="-9999999/1" value="0" leadInLength="0/1"  />
              </VectorParam>
              <VectorParam id="1044"  name="scale">
               <InterpolatingParam id="1045" interp="linr"  time="-9999999/1" value="1" leadInLength="0/1"  />
               <InterpolatingParam id="1046" interp="linr"  time="-9999999/1" value="1" leadInLength="0/1"  />
               <InterpolatingParam id="1047" interp="linr"  time="-9999999/1" value="1" leadInLength="0/1"  />
              </VectorParam>
              <VectorParam id="1048"  name="anchor">
               <InterpolatingParam id="1049" interp="linr"  time="0/1" value="0" leadInLength="0/1"  />
               <InterpolatingParam id="1050" interp="linr"  time="0/1" value="0" leadInLength="0/1"  />
               <InterpolatingParam id="1051" interp="linr"  time="0/1" value="0" leadInLength="0/1"  />
              </VectorParam>
             </Transformer>
             <Parameters>
              <VectorParam id="1052"  name="sourceCrop">
               <InterpolatingParam id="1053" interp="linr"  time="0/1" value="0" leadInLength="0/1"  />
               <InterpolatingParam id="1054" interp="linr"  time="0/1" value="0" leadInLength="0/1"  />
               <InterpolatingParam id="1055" interp="linr"  time="0/1" value="0" leadInLength="0/1"  />
               <InterpolatingParam id="1056" interp="linr"  time="0/1" value="0" leadInLength="0/1"  />
              </VectorParam>
              <VectorParam id="1057"  name="geometryCrop">
               <InterpolatingParam id="1058" interp="linr"  time="-9999999/1" value="0" leadInLength="0/1"  />
               <InterpolatingParam id="1059" interp="linr"  time="-9999999/1" value="0" leadInLength="0/1"  />
               <InterpolatingParam id="1060" interp="linr"  time="-9999999/1" value="0" leadInLength="0/1"  />
               <InterpolatingParam id="1061" interp="linr"  time="-9999999/1" value="0" leadInLength="0/1"  />
              </VectorParam>
              <InterpolatingParam id="1062" interp="linr"  time="-9999999/1" value="1" leadInLength="0/1"  name="opacity"/>
             </Parameters>
             <Attributes>
              <Attribute id="1063" value="" name="ident"/>
             </Attributes>
             <ExtraData>
              <Entry key="ZoomPanBin">
               <ZoomPanBin id="1064"  >
                <ZoomPanKeyframes>
                 <ZoomPanKeyframe id="1065" timeRangeEnd="-9999999/1" timeRangeDuration="0/1" interpolaterName=""  />
                </ZoomPanKeyframes>
               </ZoomPanBin>
              </Entry>
             </ExtraData>
            </VMFile>
            <MetaData>
             <entry key="WinSubProjectDisplayName" val=""/>
            </MetaData>
           </UnifiedMedia>
           <UnifiedMedia id="1066"  >
            <AMFile id="1067" start="4599" duration="99" scalar="1/1" mediaStart="5795/1" mediaDuration="99/1" trackNumber="2" src="4" channelNumber="0,1" >
             <Parameters>
              <InterpolatingParam id="1068" interp="linr"  time="0/1" value="1" leadInLength="0/1"  name="volume"/>
              <Parameter id="1069"  name="captions"/>
             </Parameters>
             <Attributes>
              <Attribute id="1070" value="" name="ident"/>
              <Attribute id="1071" value="44100" name="sampleRate"/>
              <Attribute id="1072" value="16" name="bitDepth"/>
              <Attribute id="1073" value="1" name="gain"/>
              <Attribute id="1074" value="0" name="mixToMono"/>
             </Attributes>
            </AMFile>
            <VMFile id="1075" start="4599" duration="99" scalar="1/1" mediaStart="5795/1" mediaDuration="99/1" trackNumber="1" src="4" >
             <Transformer>
              <VectorParam id="1076"  name="translation">
               <InterpolatingParam id="1077" interp="linr"  time="-9999999/1" value="0" leadInLength="0/1"  />
               <InterpolatingParam id="1078" interp="linr"  time="-9999999/1" value="0" leadInLength="0/1"  />
               <InterpolatingParam id="1079" interp="linr"  time="-9999999/1" value="0" leadInLength="0/1"  />
              </VectorParam>
              <VectorParam id="1080"  name="rotation">
               <InterpolatingParam id="1081" interp="linr"  time="-9999999/1" value="0" leadInLength="0/1"  />
               <InterpolatingParam id="1082" interp="linr"  time="-9999999/1" value="0" leadInLength="0/1"  />
               <InterpolatingParam id="1083" interp="linr"  time="-9999999/1" value="0" leadInLength="0/1"  />
              </VectorParam>
              <VectorParam id="1084"  name="shear">
               <InterpolatingParam id="1085" interp="linr"  time="-9999999/1" value="0" leadInLength="0/1"  />
               <InterpolatingParam id="1086" interp="linr"  time="-9999999/1" value="0" leadInLength="0/1"  />
               <InterpolatingParam id="1087" interp="linr"  time="-9999999/1" value="0" leadInLength="0/1"  />
              </VectorParam>
              <VectorParam id="1088"  name="scale">
               <InterpolatingParam id="1089" interp="linr"  time="-9999999/1" value="1" leadInLength="0/1"  />
               <InterpolatingParam id="1090" interp="linr"  time="-9999999/1" value="1" leadInLength="0/1"  />
               <InterpolatingParam id="1091" interp="linr"  time="-9999999/1" value="1" leadInLength="0/1"  />
              </VectorParam>
              <VectorParam id="1092"  name="anchor">
               <InterpolatingParam id="1093" interp="linr"  time="0/1" value="0" leadInLength="0/1"  />
               <InterpolatingParam id="1094" interp="linr"  time="0/1" value="0" leadInLength="0/1"  />
               <InterpolatingParam id="1095" interp="linr"  time="0/1" value="0" leadInLength="0/1"  />
              </VectorParam>
             </Transformer>
             <Parameters>
              <VectorParam id="1096"  name="sourceCrop">
               <InterpolatingParam id="1097" interp="linr"  time="0/1" value="0" leadInLength="0/1"  />
               <InterpolatingParam id="1098" interp="linr"  time="0/1" value="0" leadInLength="0/1"  />
               <InterpolatingParam id="1099" interp="linr"  time="0/1" value="0" leadInLength="0/1"  />
               <InterpolatingParam id="1100" interp="linr"  time="0/1" value="0" leadInLength="0/1"  />
              </VectorParam>
              <VectorParam id="1101"  name="geometryCrop">
               <InterpolatingParam id="1102" interp="linr"  time="-9999999/1" value="0" leadInLength="0/1"  />
               <InterpolatingParam id="1103" interp="linr"  time="-9999999/1" value="0" leadInLength="0/1"  />
               <InterpolatingParam id="1104" interp="linr"  time="-9999999/1" value="0" leadInLength="0/1"  />
               <InterpolatingParam id="1105" interp="linr"  time="-9999999/1" value="0" leadInLength="0/1"  />
              </VectorParam>
              <InterpolatingParam id="1106" interp="linr"  time="-9999999/1" value="1" leadInLength="0/1"  name="opacity"/>
             </Parameters>
             <Attributes>
              <Attribute id="1107" value="" name="ident"/>
             </Attributes>
             <ExtraData>
              <Entry key="ZoomPanBin">
               <ZoomPanBin id="1108"  >
                <ZoomPanKeyframes>
                 <ZoomPanKeyframe id="1109" timeRangeEnd="-9999999/1" timeRangeDuration="0/1" interpolaterName=""  />
                </ZoomPanKeyframes>
               </ZoomPanBin>
              </Entry>
             </ExtraData>
            </VMFile>
            <MetaData>
             <entry key="WinSubProjectDisplayName" val=""/>
            </MetaData>
           </UnifiedMedia>
           <UnifiedMedia id="1110"  >
            <AMFile id="1111" start="4698" duration="40" scalar="1/1" mediaStart="5904/1" mediaDuration="40/1" trackNumber="2" src="4" channelNumber="0,1" >
             <Parameters>
              <InterpolatingParam id="1112" interp="linr"  time="0/1" value="1" leadInLength="0/1"  name="volume"/>
              <Parameter id="1113"  name="captions"/>
             </Parameters>
             <Attributes>
              <Attribute id="1114" value="" name="ident"/>
              <Attribute id="1115" value="44100" name="sampleRate"/>
              <Attribute id="1116" value="16" name="bitDepth"/>
              <Attribute id="1117" value="1" name="gain"/>
              <Attribute id="1118" value="0" name="mixToMono"/>
             </Attributes>
            </AMFile>
            <VMFile id="1119" start="4698" duration="40" scalar="1/1" mediaStart="5904/1" mediaDuration="40/1" trackNumber="1" src="4" >
             <Transformer>
              <VectorParam id="1120"  name="translation">
               <InterpolatingParam id="1121" interp="linr"  time="-9999999/1" value="0" leadInLength="0/1"  />
               <InterpolatingParam id="1122" interp="linr"  time="-9999999/1" value="0" leadInLength="0/1"  />
               <InterpolatingParam id="1123" interp="linr"  time="-9999999/1" value="0" leadInLength="0/1"  />
              </VectorParam>
              <VectorParam id="1124"  name="rotation">
               <InterpolatingParam id="1125" interp="linr"  time="-9999999/1" value="0" leadInLength="0/1"  />
               <InterpolatingParam id="1126" interp="linr"  time="-9999999/1" value="0" leadInLength="0/1"  />
               <InterpolatingParam id="1127" interp="linr"  time="-9999999/1" value="0" leadInLength="0/1"  />
              </VectorParam>
              <VectorParam id="1128"  name="shear">
               <InterpolatingParam id="1129" interp="linr"  time="-9999999/1" value="0" leadInLength="0/1"  />
               <InterpolatingParam id="1130" interp="linr"  time="-9999999/1" value="0" leadInLength="0/1"  />
               <InterpolatingParam id="1131" interp="linr"  time="-9999999/1" value="0" leadInLength="0/1"  />
              </VectorParam>
              <VectorParam id="1132"  name="scale">
               <InterpolatingParam id="1133" interp="linr"  time="-9999999/1" value="1" leadInLength="0/1"  />
               <InterpolatingParam id="1134" interp="linr"  time="-9999999/1" value="1" leadInLength="0/1"  />
               <InterpolatingParam id="1135" interp="linr"  time="-9999999/1" value="1" leadInLength="0/1"  />
              </VectorParam>
              <VectorParam id="1136"  name="anchor">
               <InterpolatingParam id="1137" interp="linr"  time="0/1" value="0" leadInLength="0/1"  />
               <InterpolatingParam id="1138" interp="linr"  time="0/1" value="0" leadInLength="0/1"  />
               <InterpolatingParam id="1139" interp="linr"  time="0/1" value="0" leadInLength="0/1"  />
              </VectorParam>
             </Transformer>
             <Parameters>
              <VectorParam id="1140"  name="sourceCrop">
               <InterpolatingParam id="1141" interp="linr"  time="0/1" value="0" leadInLength="0/1"  />
               <InterpolatingParam id="1142" interp="linr"  time="0/1" value="0" leadInLength="0/1"  />
               <InterpolatingParam id="1143" interp="linr"  time="0/1" value="0" leadInLength="0/1"  />
               <InterpolatingParam id="1144" interp="linr"  time="0/1" value="0" leadInLength="0/1"  />
              </VectorParam>
              <VectorParam id="1145"  name="geometryCrop">
               <InterpolatingParam id="1146" interp="linr"  time="-9999999/1" value="0" leadInLength="0/1"  />
               <InterpolatingParam id="1147" interp="linr"  time="-9999999/1" value="0" leadInLength="0/1"  />
               <InterpolatingParam id="1148" interp="linr"  time="-9999999/1" value="0" leadInLength="0/1"  />
               <InterpolatingParam id="1149" interp="linr"  time="-9999999/1" value="0" leadInLength="0/1"  />
              </VectorParam>
              <InterpolatingParam id="1150" interp="linr"  time="-9999999/1" value="1" leadInLength="0/1"  name="opacity"/>
             </Parameters>
             <Attributes>
              <Attribute id="1151" value="" name="ident"/>
             </Attributes>
             <ExtraData>
              <Entry key="ZoomPanBin">
               <ZoomPanBin id="1152"  >
                <ZoomPanKeyframes>
                 <ZoomPanKeyframe id="1153" timeRangeEnd="-9999999/1" timeRangeDuration="0/1" interpolaterName=""  />
                </ZoomPanKeyframes>
               </ZoomPanBin>
              </Entry>
             </ExtraData>
            </VMFile>
            <MetaData>
             <entry key="WinSubProjectDisplayName" val=""/>
            </MetaData>
           </UnifiedMedia>
           <UnifiedMedia id="1154"  >
            <AMFile id="1155" start="4738" duration="28" scalar="1/1" mediaStart="6020/1" mediaDuration="28/1" trackNumber="2" src="4" channelNumber="0,1" >
             <Parameters>
              <InterpolatingParam id="1156" interp="linr"  time="0/1" value="1" leadInLength="0/1"  name="volume"/>
              <Parameter id="1157"  name="captions"/>
             </Parameters>
             <Attributes>
              <Attribute id="1158" value="" name="ident"/>
              <Attribute id="1159" value="44100" name="sampleRate"/>
              <Attribute id="1160" value="16" name="bitDepth"/>
              <Attribute id="1161" value="1" name="gain"/>
              <Attribute id="1162" value="0" name="mixToMono"/>
             </Attributes>
            </AMFile>
            <VMFile id="1163" start="4738" duration="28" scalar="1/1" mediaStart="6020/1" mediaDuration="28/1" trackNumber="1" src="4" >
             <Transformer>
              <VectorParam id="1164"  name="translation">
               <InterpolatingParam id="1165" interp="linr"  time="-9999999/1" value="0" leadInLength="0/1"  />
               <InterpolatingParam id="1166" interp="linr"  time="-9999999/1" value="0" leadInLength="0/1"  />
               <InterpolatingParam id="1167" interp="linr"  time="-9999999/1" value="0" leadInLength="0/1"  />
              </VectorParam>
              <VectorParam id="1168"  name="rotation">
               <InterpolatingParam id="1169" interp="linr"  time="-9999999/1" value="0" leadInLength="0/1"  />
               <InterpolatingParam id="1170" interp="linr"  time="-9999999/1" value="0" leadInLength="0/1"  />
               <InterpolatingParam id="1171" interp="linr"  time="-9999999/1" value="0" leadInLength="0/1"  />
              </VectorParam>
              <VectorParam id="1172"  name="shear">
               <InterpolatingParam id="1173" interp="linr"  time="-9999999/1" value="0" leadInLength="0/1"  />
               <InterpolatingParam id="1174" interp="linr"  time="-9999999/1" value="0" leadInLength="0/1"  />
               <InterpolatingParam id="1175" interp="linr"  time="-9999999/1" value="0" leadInLength="0/1"  />
              </VectorParam>
              <VectorParam id="1176"  name="scale">
               <InterpolatingParam id="1177" interp="linr"  time="-9999999/1" value="1" leadInLength="0/1"  />
               <InterpolatingParam id="1178" interp="linr"  time="-9999999/1" value="1" leadInLength="0/1"  />
               <InterpolatingParam id="1179" interp="linr"  time="-9999999/1" value="1" leadInLength="0/1"  />
              </VectorParam>
              <VectorParam id="1180"  name="anchor">
               <InterpolatingParam id="1181" interp="linr"  time="0/1" value="0" leadInLength="0/1"  />
               <InterpolatingParam id="1182" interp="linr"  time="0/1" value="0" leadInLength="0/1"  />
               <InterpolatingParam id="1183" interp="linr"  time="0/1" value="0" leadInLength="0/1"  />
              </VectorParam>
             </Transformer>
             <Parameters>
              <VectorParam id="1184"  name="sourceCrop">
               <InterpolatingParam id="1185" interp="linr"  time="0/1" value="0" leadInLength="0/1"  />
               <InterpolatingParam id="1186" interp="linr"  time="0/1" value="0" leadInLength="0/1"  />
               <InterpolatingParam id="1187" interp="linr"  time="0/1" value="0" leadInLength="0/1"  />
               <InterpolatingParam id="1188" interp="linr"  time="0/1" value="0" leadInLength="0/1"  />
              </VectorParam>
              <VectorParam id="1189"  name="geometryCrop">
               <InterpolatingParam id="1190" interp="linr"  time="-9999999/1" value="0" leadInLength="0/1"  />
               <InterpolatingParam id="1191" interp="linr"  time="-9999999/1" value="0" leadInLength="0/1"  />
               <InterpolatingParam id="1192" interp="linr"  time="-9999999/1" value="0" leadInLength="0/1"  />
               <InterpolatingParam id="1193" interp="linr"  time="-9999999/1" value="0" leadInLength="0/1"  />
              </VectorParam>
              <InterpolatingParam id="1194" interp="linr"  time="-9999999/1" value="1" leadInLength="0/1"  name="opacity"/>
             </Parameters>
             <Attributes>
              <Attribute id="1195" value="" name="ident"/>
             </Attributes>
             <ExtraData>
              <Entry key="ZoomPanBin">
               <ZoomPanBin id="1196"  >
                <ZoomPanKeyframes>
                 <ZoomPanKeyframe id="1197" timeRangeEnd="-9999999/1" timeRangeDuration="0/1" interpolaterName=""  />
                </ZoomPanKeyframes>
               </ZoomPanBin>
              </Entry>
             </ExtraData>
            </VMFile>
            <MetaData>
             <entry key="WinSubProjectDisplayName" val=""/>
            </MetaData>
           </UnifiedMedia>
           <UnifiedMedia id="1198"  >
            <AMFile id="1199" start="4766" duration="129" scalar="1/1" mediaStart="6056/1" mediaDuration="129/1" trackNumber="2" src="4" channelNumber="0,1" >
             <Parameters>
              <InterpolatingParam id="1200" interp="linr"  time="0/1" value="1" leadInLength="0/1"  name="volume"/>
              <Parameter id="1201"  name="captions"/>
             </Parameters>
             <Attributes>
              <Attribute id="1202" value="" name="ident"/>
              <Attribute id="1203" value="44100" name="sampleRate"/>
              <Attribute id="1204" value="16" name="bitDepth"/>
              <Attribute id="1205" value="1" name="gain"/>
              <Attribute id="1206" value="0" name="mixToMono"/>
             </Attributes>
            </AMFile>
            <VMFile id="1207" start="4766" duration="129" scalar="1/1" mediaStart="6056/1" mediaDuration="129/1" trackNumber="1" src="4" >
             <Transformer>
              <VectorParam id="1208"  name="translation">
               <InterpolatingParam id="1209" interp="linr"  time="-9999999/1" value="0" leadInLength="0/1"  />
               <InterpolatingParam id="1210" interp="linr"  time="-9999999/1" value="0" leadInLength="0/1"  />
               <InterpolatingParam id="1211" interp="linr"  time="-9999999/1" value="0" leadInLength="0/1"  />
              </VectorParam>
              <VectorParam id="1212"  name="rotation">
               <InterpolatingParam id="1213" interp="linr"  time="-9999999/1" value="0" leadInLength="0/1"  />
               <InterpolatingParam id="1214" interp="linr"  time="-9999999/1" value="0" leadInLength="0/1"  />
               <InterpolatingParam id="1215" interp="linr"  time="-9999999/1" value="0" leadInLength="0/1"  />
              </VectorParam>
              <VectorParam id="1216"  name="shear">
               <InterpolatingParam id="1217" interp="linr"  time="-9999999/1" value="0" leadInLength="0/1"  />
               <InterpolatingParam id="1218" interp="linr"  time="-9999999/1" value="0" leadInLength="0/1"  />
               <InterpolatingParam id="1219" interp="linr"  time="-9999999/1" value="0" leadInLength="0/1"  />
              </VectorParam>
              <VectorParam id="1220"  name="scale">
               <InterpolatingParam id="1221" interp="linr"  time="-9999999/1" value="1" leadInLength="0/1"  />
               <InterpolatingParam id="1222" interp="linr"  time="-9999999/1" value="1" leadInLength="0/1"  />
               <InterpolatingParam id="1223" interp="linr"  time="-9999999/1" value="1" leadInLength="0/1"  />
              </VectorParam>
              <VectorParam id="1224"  name="anchor">
               <InterpolatingParam id="1225" interp="linr"  time="0/1" value="0" leadInLength="0/1"  />
               <InterpolatingParam id="1226" interp="linr"  time="0/1" value="0" leadInLength="0/1"  />
               <InterpolatingParam id="1227" interp="linr"  time="0/1" value="0" leadInLength="0/1"  />
              </VectorParam>
             </Transformer>
             <Parameters>
              <VectorParam id="1228"  name="sourceCrop">
               <InterpolatingParam id="1229" interp="linr"  time="0/1" value="0" leadInLength="0/1"  />
               <InterpolatingParam id="1230" interp="linr"  time="0/1" value="0" leadInLength="0/1"  />
               <InterpolatingParam id="1231" interp="linr"  time="0/1" value="0" leadInLength="0/1"  />
               <InterpolatingParam id="1232" interp="linr"  time="0/1" value="0" leadInLength="0/1"  />
              </VectorParam>
              <VectorParam id="1233"  name="geometryCrop">
               <InterpolatingParam id="1234" interp="linr"  time="-9999999/1" value="0" leadInLength="0/1"  />
               <InterpolatingParam id="1235" interp="linr"  time="-9999999/1" value="0" leadInLength="0/1"  />
               <InterpolatingParam id="1236" interp="linr"  time="-9999999/1" value="0" leadInLength="0/1"  />
               <InterpolatingParam id="1237" interp="linr"  time="-9999999/1" value="0" leadInLength="0/1"  />
              </VectorParam>
              <InterpolatingParam id="1238" interp="linr"  time="-9999999/1" value="1" leadInLength="0/1"  name="opacity"/>
             </Parameters>
             <Attributes>
              <Attribute id="1239" value="" name="ident"/>
             </Attributes>
             <ExtraData>
              <Entry key="ZoomPanBin">
               <ZoomPanBin id="1240"  >
                <ZoomPanKeyframes>
                 <ZoomPanKeyframe id="1241" timeRangeEnd="-9999999/1" timeRangeDuration="0/1" interpolaterName=""  />
                </ZoomPanKeyframes>
               </ZoomPanBin>
              </Entry>
             </ExtraData>
            </VMFile>
            <MetaData>
             <entry key="WinSubProjectDisplayName" val=""/>
            </MetaData>
           </UnifiedMedia>
           <UnifiedMedia id="1242"  >
            <AMFile id="1243" start="4895" duration="81" scalar="1/1" mediaStart="6269/1" mediaDuration="81/1" trackNumber="2" src="4" channelNumber="0,1" >
             <Parameters>
              <InterpolatingParam id="1244" interp="linr"  time="0/1" value="1" leadInLength="0/1"  name="volume"/>
              <Parameter id="1245"  name="captions"/>
             </Parameters>
             <Attributes>
              <Attribute id="1246" value="" name="ident"/>
              <Attribute id="1247" value="44100" name="sampleRate"/>
              <Attribute id="1248" value="16" name="bitDepth"/>
              <Attribute id="1249" value="1" name="gain"/>
              <Attribute id="1250" value="0" name="mixToMono"/>
             </Attributes>
            </AMFile>
            <VMFile id="1251" start="4895" duration="81" scalar="1/1" mediaStart="6269/1" mediaDuration="81/1" trackNumber="1" src="4" >
             <Transformer>
              <VectorParam id="1252"  name="translation">
               <InterpolatingParam id="1253" interp="linr"  time="-9999999/1" value="0" leadInLength="0/1"  />
               <InterpolatingParam id="1254" interp="linr"  time="-9999999/1" value="0" leadInLength="0/1"  />
               <InterpolatingParam id="1255" interp="linr"  time="-9999999/1" value="0" leadInLength="0/1"  />
              </VectorParam>
              <VectorParam id="1256"  name="rotation">
               <InterpolatingParam id="1257" interp="linr"  time="-9999999/1" value="0" leadInLength="0/1"  />
               <InterpolatingParam id="1258" interp="linr"  time="-9999999/1" value="0" leadInLength="0/1"  />
               <InterpolatingParam id="1259" interp="linr"  time="-9999999/1" value="0" leadInLength="0/1"  />
              </VectorParam>
              <VectorParam id="1260"  name="shear">
               <InterpolatingParam id="1261" interp="linr"  time="-9999999/1" value="0" leadInLength="0/1"  />
               <InterpolatingParam id="1262" interp="linr"  time="-9999999/1" value="0" leadInLength="0/1"  />
               <InterpolatingParam id="1263" interp="linr"  time="-9999999/1" value="0" leadInLength="0/1"  />
              </VectorParam>
              <VectorParam id="1264"  name="scale">
               <InterpolatingParam id="1265" interp="linr"  time="-9999999/1" value="1" leadInLength="0/1"  />
               <InterpolatingParam id="1266" interp="linr"  time="-9999999/1" value="1" leadInLength="0/1"  />
               <InterpolatingParam id="1267" interp="linr"  time="-9999999/1" value="1" leadInLength="0/1"  />
              </VectorParam>
              <VectorParam id="1268"  name="anchor">
               <InterpolatingParam id="1269" interp="linr"  time="0/1" value="0" leadInLength="0/1"  />
               <InterpolatingParam id="1270" interp="linr"  time="0/1" value="0" leadInLength="0/1"  />
               <InterpolatingParam id="1271" interp="linr"  time="0/1" value="0" leadInLength="0/1"  />
              </VectorParam>
             </Transformer>
             <Parameters>
              <VectorParam id="1272"  name="sourceCrop">
               <InterpolatingParam id="1273" interp="linr"  time="0/1" value="0" leadInLength="0/1"  />
               <InterpolatingParam id="1274" interp="linr"  time="0/1" value="0" leadInLength="0/1"  />
               <InterpolatingParam id="1275" interp="linr"  time="0/1" value="0" leadInLength="0/1"  />
               <InterpolatingParam id="1276" interp="linr"  time="0/1" value="0" leadInLength="0/1"  />
              </VectorParam>
              <VectorParam id="1277"  name="geometryCrop">
               <InterpolatingParam id="1278" interp="linr"  time="-9999999/1" value="0" leadInLength="0/1"  />
               <InterpolatingParam id="1279" interp="linr"  time="-9999999/1" value="0" leadInLength="0/1"  />
               <InterpolatingParam id="1280" interp="linr"  time="-9999999/1" value="0" leadInLength="0/1"  />
               <InterpolatingParam id="1281" interp="linr"  time="-9999999/1" value="0" leadInLength="0/1"  />
              </VectorParam>
              <InterpolatingParam id="1282" interp="linr"  time="-9999999/1" value="1" leadInLength="0/1"  name="opacity"/>
             </Parameters>
             <Attributes>
              <Attribute id="1283" value="" name="ident"/>
             </Attributes>
             <ExtraData>
              <Entry key="ZoomPanBin">
               <ZoomPanBin id="1284"  >
                <ZoomPanKeyframes>
                 <ZoomPanKeyframe id="1285" timeRangeEnd="-9999999/1" timeRangeDuration="0/1" interpolaterName=""  />
                </ZoomPanKeyframes>
               </ZoomPanBin>
              </Entry>
             </ExtraData>
            </VMFile>
            <MetaData>
             <entry key="WinSubProjectDisplayName" val=""/>
            </MetaData>
           </UnifiedMedia>
           <UnifiedMedia id="1286"  >
            <AMFile id="1287" start="4976" duration="70" scalar="1/1" mediaStart="6425/1" mediaDuration="70/1" trackNumber="2" src="4" channelNumber="0,1" >
             <Parameters>
              <InterpolatingParam id="1288" interp="linr"  time="0/1" value="1" leadInLength="0/1"  name="volume"/>
              <Parameter id="1289"  name="captions"/>
             </Parameters>
             <Attributes>
              <Attribute id="1290" value="" name="ident"/>
              <Attribute id="1291" value="44100" name="sampleRate"/>
              <Attribute id="1292" value="16" name="bitDepth"/>
              <Attribute id="1293" value="1" name="gain"/>
              <Attribute id="1294" value="0" name="mixToMono"/>
             </Attributes>
            </AMFile>
            <VMFile id="1295" start="4976" duration="70" scalar="1/1" mediaStart="6425/1" mediaDuration="70/1" trackNumber="1" src="4" >
             <Transformer>
              <VectorParam id="1296"  name="translation">
               <InterpolatingParam id="1297" interp="linr"  time="-9999999/1" value="0" leadInLength="0/1"  />
               <InterpolatingParam id="1298" interp="linr"  time="-9999999/1" value="0" leadInLength="0/1"  />
               <InterpolatingParam id="1299" interp="linr"  time="-9999999/1" value="0" leadInLength="0/1"  />
              </VectorParam>
              <VectorParam id="1300"  name="rotation">
               <InterpolatingParam id="1301" interp="linr"  time="-9999999/1" value="0" leadInLength="0/1"  />
               <InterpolatingParam id="1302" interp="linr"  time="-9999999/1" value="0" leadInLength="0/1"  />
               <InterpolatingParam id="1303" interp="linr"  time="-9999999/1" value="0" leadInLength="0/1"  />
              </VectorParam>
              <VectorParam id="1304"  name="shear">
               <InterpolatingParam id="1305" interp="linr"  time="-9999999/1" value="0" leadInLength="0/1"  />
               <InterpolatingParam id="1306" interp="linr"  time="-9999999/1" value="0" leadInLength="0/1"  />
               <InterpolatingParam id="1307" interp="linr"  time="-9999999/1" value="0" leadInLength="0/1"  />
              </VectorParam>
              <VectorParam id="1308"  name="scale">
               <InterpolatingParam id="1309" interp="linr"  time="-9999999/1" value="1" leadInLength="0/1"  />
               <InterpolatingParam id="1310" interp="linr"  time="-9999999/1" value="1" leadInLength="0/1"  />
               <InterpolatingParam id="1311" interp="linr"  time="-9999999/1" value="1" leadInLength="0/1"  />
              </VectorParam>
              <VectorParam id="1312"  name="anchor">
               <InterpolatingParam id="1313" interp="linr"  time="0/1" value="0" leadInLength="0/1"  />
               <InterpolatingParam id="1314" interp="linr"  time="0/1" value="0" leadInLength="0/1"  />
               <InterpolatingParam id="1315" interp="linr"  time="0/1" value="0" leadInLength="0/1"  />
              </VectorParam>
             </Transformer>
             <Parameters>
              <VectorParam id="1316"  name="sourceCrop">
               <InterpolatingParam id="1317" interp="linr"  time="0/1" value="0" leadInLength="0/1"  />
               <InterpolatingParam id="1318" interp="linr"  time="0/1" value="0" leadInLength="0/1"  />
               <InterpolatingParam id="1319" interp="linr"  time="0/1" value="0" leadInLength="0/1"  />
               <InterpolatingParam id="1320" interp="linr"  time="0/1" value="0" leadInLength="0/1"  />
              </VectorParam>
              <VectorParam id="1321"  name="geometryCrop">
               <InterpolatingParam id="1322" interp="linr"  time="-9999999/1" value="0" leadInLength="0/1"  />
               <InterpolatingParam id="1323" interp="linr"  time="-9999999/1" value="0" leadInLength="0/1"  />
               <InterpolatingParam id="1324" interp="linr"  time="-9999999/1" value="0" leadInLength="0/1"  />
               <InterpolatingParam id="1325" interp="linr"  time="-9999999/1" value="0" leadInLength="0/1"  />
              </VectorParam>
              <InterpolatingParam id="1326" interp="linr"  time="-9999999/1" value="1" leadInLength="0/1"  name="opacity"/>
             </Parameters>
             <Attributes>
              <Attribute id="1327" value="" name="ident"/>
             </Attributes>
             <ExtraData>
              <Entry key="ZoomPanBin">
               <ZoomPanBin id="1328"  >
                <ZoomPanKeyframes>
                 <ZoomPanKeyframe id="1329" timeRangeEnd="-9999999/1" timeRangeDuration="0/1" interpolaterName=""  />
                </ZoomPanKeyframes>
               </ZoomPanBin>
              </Entry>
             </ExtraData>
            </VMFile>
            <MetaData>
             <entry key="WinSubProjectDisplayName" val=""/>
            </MetaData>
           </UnifiedMedia>
           <UnifiedMedia id="1330"  >
            <AMFile id="1331" start="5046" duration="1" scalar="1/1" mediaStart="6529/1" mediaDuration="1/1" trackNumber="2" src="4" channelNumber="0,1" >
             <Parameters>
              <InterpolatingParam id="1332" interp="linr"  time="0/1" value="1" leadInLength="0/1"  name="volume"/>
              <Parameter id="1333"  name="captions"/>
             </Parameters>
             <Attributes>
              <Attribute id="1334" value="" name="ident"/>
              <Attribute id="1335" value="44100" name="sampleRate"/>
              <Attribute id="1336" value="16" name="bitDepth"/>
              <Attribute id="1337" value="1" name="gain"/>
              <Attribute id="1338" value="0" name="mixToMono"/>
             </Attributes>
            </AMFile>
            <VMFile id="1339" start="5046" duration="1" scalar="1/1" mediaStart="6529/1" mediaDuration="1/1" trackNumber="1" src="4" >
             <Transformer>
              <VectorParam id="1340"  name="translation">
               <InterpolatingParam id="1341" interp="linr"  time="-9999999/1" value="0" leadInLength="0/1"  />
               <InterpolatingParam id="1342" interp="linr"  time="-9999999/1" value="0" leadInLength="0/1"  />
               <InterpolatingParam id="1343" interp="linr"  time="-9999999/1" value="0" leadInLength="0/1"  />
              </VectorParam>
              <VectorParam id="1344"  name="rotation">
               <InterpolatingParam id="1345" interp="linr"  time="-9999999/1" value="0" leadInLength="0/1"  />
               <InterpolatingParam id="1346" interp="linr"  time="-9999999/1" value="0" leadInLength="0/1"  />
               <InterpolatingParam id="1347" interp="linr"  time="-9999999/1" value="0" leadInLength="0/1"  />
              </VectorParam>
              <VectorParam id="1348"  name="shear">
               <InterpolatingParam id="1349" interp="linr"  time="-9999999/1" value="0" leadInLength="0/1"  />
               <InterpolatingParam id="1350" interp="linr"  time="-9999999/1" value="0" leadInLength="0/1"  />
               <InterpolatingParam id="1351" interp="linr"  time="-9999999/1" value="0" leadInLength="0/1"  />
              </VectorParam>
              <VectorParam id="1352"  name="scale">
               <InterpolatingParam id="1353" interp="linr"  time="-9999999/1" value="1" leadInLength="0/1"  />
               <InterpolatingParam id="1354" interp="linr"  time="-9999999/1" value="1" leadInLength="0/1"  />
               <InterpolatingParam id="1355" interp="linr"  time="-9999999/1" value="1" leadInLength="0/1"  />
              </VectorParam>
              <VectorParam id="1356"  name="anchor">
               <InterpolatingParam id="1357" interp="linr"  time="0/1" value="0" leadInLength="0/1"  />
               <InterpolatingParam id="1358" interp="linr"  time="0/1" value="0" leadInLength="0/1"  />
               <InterpolatingParam id="1359" interp="linr"  time="0/1" value="0" leadInLength="0/1"  />
              </VectorParam>
             </Transformer>
             <Parameters>
              <VectorParam id="1360"  name="sourceCrop">
               <InterpolatingParam id="1361" interp="linr"  time="0/1" value="0" leadInLength="0/1"  />
               <InterpolatingParam id="1362" interp="linr"  time="0/1" value="0" leadInLength="0/1"  />
               <InterpolatingParam id="1363" interp="linr"  time="0/1" value="0" leadInLength="0/1"  />
               <InterpolatingParam id="1364" interp="linr"  time="0/1" value="0" leadInLength="0/1"  />
              </VectorParam>
              <VectorParam id="1365"  name="geometryCrop">
               <InterpolatingParam id="1366" interp="linr"  time="-9999999/1" value="0" leadInLength="0/1"  />
               <InterpolatingParam id="1367" interp="linr"  time="-9999999/1" value="0" leadInLength="0/1"  />
               <InterpolatingParam id="1368" interp="linr"  time="-9999999/1" value="0" leadInLength="0/1"  />
               <InterpolatingParam id="1369" interp="linr"  time="-9999999/1" value="0" leadInLength="0/1"  />
              </VectorParam>
              <InterpolatingParam id="1370" interp="linr"  time="-9999999/1" value="1" leadInLength="0/1"  name="opacity"/>
             </Parameters>
             <Attributes>
              <Attribute id="1371" value="" name="ident"/>
             </Attributes>
             <ExtraData>
              <Entry key="ZoomPanBin">
               <ZoomPanBin id="1372"  >
                <ZoomPanKeyframes>
                 <ZoomPanKeyframe id="1373" timeRangeEnd="-9999999/1" timeRangeDuration="0/1" interpolaterName=""  />
                </ZoomPanKeyframes>
               </ZoomPanBin>
              </Entry>
             </ExtraData>
            </VMFile>
            <MetaData>
             <entry key="WinSubProjectDisplayName" val=""/>
            </MetaData>
           </UnifiedMedia>
           <UnifiedMedia id="1374"  >
            <AMFile id="1375" start="5047" duration="86" scalar="1/1" mediaStart="6544/1" mediaDuration="86/1" trackNumber="2" src="4" channelNumber="0,1" >
             <Parameters>
              <InterpolatingParam id="1376" interp="linr"  time="0/1" value="1" leadInLength="0/1"  name="volume"/>
              <Parameter id="1377"  name="captions"/>
             </Parameters>
             <Attributes>
              <Attribute id="1378" value="" name="ident"/>
              <Attribute id="1379" value="44100" name="sampleRate"/>
              <Attribute id="1380" value="16" name="bitDepth"/>
              <Attribute id="1381" value="1" name="gain"/>
              <Attribute id="1382" value="0" name="mixToMono"/>
             </Attributes>
            </AMFile>
            <VMFile id="1383" start="5047" duration="86" scalar="1/1" mediaStart="6544/1" mediaDuration="86/1" trackNumber="1" src="4" >
             <Transformer>
              <VectorParam id="1384"  name="translation">
               <InterpolatingParam id="1385" interp="linr"  time="-9999999/1" value="0" leadInLength="0/1"  />
               <InterpolatingParam id="1386" interp="linr"  time="-9999999/1" value="0" leadInLength="0/1"  />
               <InterpolatingParam id="1387" interp="linr"  time="-9999999/1" value="0" leadInLength="0/1"  />
              </VectorParam>
              <VectorParam id="1388"  name="rotation">
               <InterpolatingParam id="1389" interp="linr"  time="-9999999/1" value="0" leadInLength="0/1"  />
               <InterpolatingParam id="1390" interp="linr"  time="-9999999/1" value="0" leadInLength="0/1"  />
               <InterpolatingParam id="1391" interp="linr"  time="-9999999/1" value="0" leadInLength="0/1"  />
              </VectorParam>
              <VectorParam id="1392"  name="shear">
               <InterpolatingParam id="1393" interp="linr"  time="-9999999/1" value="0" leadInLength="0/1"  />
               <InterpolatingParam id="1394" interp="linr"  time="-9999999/1" value="0" leadInLength="0/1"  />
               <InterpolatingParam id="1395" interp="linr"  time="-9999999/1" value="0" leadInLength="0/1"  />
              </VectorParam>
              <VectorParam id="1396"  name="scale">
               <InterpolatingParam id="1397" interp="linr"  time="-9999999/1" value="1" leadInLength="0/1"  />
               <InterpolatingParam id="1398" interp="linr"  time="-9999999/1" value="1" leadInLength="0/1"  />
               <InterpolatingParam id="1399" interp="linr"  time="-9999999/1" value="1" leadInLength="0/1"  />
              </VectorParam>
              <VectorParam id="1400"  name="anchor">
               <InterpolatingParam id="1401" interp="linr"  time="0/1" value="0" leadInLength="0/1"  />
               <InterpolatingParam id="1402" interp="linr"  time="0/1" value="0" leadInLength="0/1"  />
               <InterpolatingParam id="1403" interp="linr"  time="0/1" value="0" leadInLength="0/1"  />
              </VectorParam>
             </Transformer>
             <Parameters>
              <VectorParam id="1404"  name="sourceCrop">
               <InterpolatingParam id="1405" interp="linr"  time="0/1" value="0" leadInLength="0/1"  />
               <InterpolatingParam id="1406" interp="linr"  time="0/1" value="0" leadInLength="0/1"  />
               <InterpolatingParam id="1407" interp="linr"  time="0/1" value="0" leadInLength="0/1"  />
               <InterpolatingParam id="1408" interp="linr"  time="0/1" value="0" leadInLength="0/1"  />
              </VectorParam>
              <VectorParam id="1409"  name="geometryCrop">
               <InterpolatingParam id="1410" interp="linr"  time="-9999999/1" value="0" leadInLength="0/1"  />
               <InterpolatingParam id="1411" interp="linr"  time="-9999999/1" value="0" leadInLength="0/1"  />
               <InterpolatingParam id="1412" interp="linr"  time="-9999999/1" value="0" leadInLength="0/1"  />
               <InterpolatingParam id="1413" interp="linr"  time="-9999999/1" value="0" leadInLength="0/1"  />
              </VectorParam>
              <InterpolatingParam id="1414" interp="linr"  time="-9999999/1" value="1" leadInLength="0/1"  name="opacity"/>
             </Parameters>
             <Attributes>
              <Attribute id="1415" value="" name="ident"/>
             </Attributes>
             <ExtraData>
              <Entry key="ZoomPanBin">
               <ZoomPanBin id="1416"  >
                <ZoomPanKeyframes>
                 <ZoomPanKeyframe id="1417" timeRangeEnd="-9999999/1" timeRangeDuration="0/1" interpolaterName=""  />
                </ZoomPanKeyframes>
               </ZoomPanBin>
              </Entry>
             </ExtraData>
            </VMFile>
            <MetaData>
             <entry key="WinSubProjectDisplayName" val=""/>
            </MetaData>
           </UnifiedMedia>
           <UnifiedMedia id="1418"  >
            <AMFile id="1419" start="5133" duration="4" scalar="1/1" mediaStart="6684/1" mediaDuration="4/1" trackNumber="2" src="4" channelNumber="0,1" >
             <Parameters>
              <InterpolatingParam id="1420" interp="linr"  time="0/1" value="1" leadInLength="0/1"  name="volume"/>
              <Parameter id="1421"  name="captions"/>
             </Parameters>
             <Attributes>
              <Attribute id="1422" value="" name="ident"/>
              <Attribute id="1423" value="44100" name="sampleRate"/>
              <Attribute id="1424" value="16" name="bitDepth"/>
              <Attribute id="1425" value="1" name="gain"/>
              <Attribute id="1426" value="0" name="mixToMono"/>
             </Attributes>
            </AMFile>
            <VMFile id="1427" start="5133" duration="4" scalar="1/1" mediaStart="6684/1" mediaDuration="4/1" trackNumber="1" src="4" >
             <Transformer>
              <VectorParam id="1428"  name="translation">
               <InterpolatingParam id="1429" interp="linr"  time="-9999999/1" value="0" leadInLength="0/1"  />
               <InterpolatingParam id="1430" interp="linr"  time="-9999999/1" value="0" leadInLength="0/1"  />
               <InterpolatingParam id="1431" interp="linr"  time="-9999999/1" value="0" leadInLength="0/1"  />
              </VectorParam>
              <VectorParam id="1432"  name="rotation">
               <InterpolatingParam id="1433" interp="linr"  time="-9999999/1" value="0" leadInLength="0/1"  />
               <InterpolatingParam id="1434" interp="linr"  time="-9999999/1" value="0" leadInLength="0/1"  />
               <InterpolatingParam id="1435" interp="linr"  time="-9999999/1" value="0" leadInLength="0/1"  />
              </VectorParam>
              <VectorParam id="1436"  name="shear">
               <InterpolatingParam id="1437" interp="linr"  time="-9999999/1" value="0" leadInLength="0/1"  />
               <InterpolatingParam id="1438" interp="linr"  time="-9999999/1" value="0" leadInLength="0/1"  />
               <InterpolatingParam id="1439" interp="linr"  time="-9999999/1" value="0" leadInLength="0/1"  />
              </VectorParam>
              <VectorParam id="1440"  name="scale">
               <InterpolatingParam id="1441" interp="linr"  time="-9999999/1" value="1" leadInLength="0/1"  />
               <InterpolatingParam id="1442" interp="linr"  time="-9999999/1" value="1" leadInLength="0/1"  />
               <InterpolatingParam id="1443" interp="linr"  time="-9999999/1" value="1" leadInLength="0/1"  />
              </VectorParam>
              <VectorParam id="1444"  name="anchor">
               <InterpolatingParam id="1445" interp="linr"  time="0/1" value="0" leadInLength="0/1"  />
               <InterpolatingParam id="1446" interp="linr"  time="0/1" value="0" leadInLength="0/1"  />
               <InterpolatingParam id="1447" interp="linr"  time="0/1" value="0" leadInLength="0/1"  />
              </VectorParam>
             </Transformer>
             <Parameters>
              <VectorParam id="1448"  name="sourceCrop">
               <InterpolatingParam id="1449" interp="linr"  time="0/1" value="0" leadInLength="0/1"  />
               <InterpolatingParam id="1450" interp="linr"  time="0/1" value="0" leadInLength="0/1"  />
               <InterpolatingParam id="1451" interp="linr"  time="0/1" value="0" leadInLength="0/1"  />
               <InterpolatingParam id="1452" interp="linr"  time="0/1" value="0" leadInLength="0/1"  />
              </VectorParam>
              <VectorParam id="1453"  name="geometryCrop">
               <InterpolatingParam id="1454" interp="linr"  time="-9999999/1" value="0" leadInLength="0/1"  />
               <InterpolatingParam id="1455" interp="linr"  time="-9999999/1" value="0" leadInLength="0/1"  />
               <InterpolatingParam id="1456" interp="linr"  time="-9999999/1" value="0" leadInLength="0/1"  />
               <InterpolatingParam id="1457" interp="linr"  time="-9999999/1" value="0" leadInLength="0/1"  />
              </VectorParam>
              <InterpolatingParam id="1458" interp="linr"  time="-9999999/1" value="1" leadInLength="0/1"  name="opacity"/>
             </Parameters>
             <Attributes>
              <Attribute id="1459" value="" name="ident"/>
             </Attributes>
             <ExtraData>
              <Entry key="ZoomPanBin">
               <ZoomPanBin id="1460"  >
                <ZoomPanKeyframes>
                 <ZoomPanKeyframe id="1461" timeRangeEnd="-9999999/1" timeRangeDuration="0/1" interpolaterName=""  />
                </ZoomPanKeyframes>
               </ZoomPanBin>
              </Entry>
             </ExtraData>
            </VMFile>
            <MetaData>
             <entry key="WinSubProjectDisplayName" val=""/>
            </MetaData>
           </UnifiedMedia>
           <UnifiedMedia id="1462"  >
            <AMFile id="1463" start="5137" duration="131" scalar="1/1" mediaStart="6735/1" mediaDuration="131/1" trackNumber="2" src="4" channelNumber="0,1" >
             <Parameters>
              <InterpolatingParam id="1464" interp="linr"  time="0/1" value="1" leadInLength="0/1"  name="volume"/>
              <Parameter id="1465"  name="captions"/>
             </Parameters>
             <Attributes>
              <Attribute id="1466" value="" name="ident"/>
              <Attribute id="1467" value="44100" name="sampleRate"/>
              <Attribute id="1468" value="16" name="bitDepth"/>
              <Attribute id="1469" value="1" name="gain"/>
              <Attribute id="1470" value="0" name="mixToMono"/>
             </Attributes>
            </AMFile>
            <VMFile id="1471" start="5137" duration="131" scalar="1/1" mediaStart="6735/1" mediaDuration="131/1" trackNumber="1" src="4" >
             <Transformer>
              <VectorParam id="1472"  name="translation">
               <InterpolatingParam id="1473" interp="linr"  time="-9999999/1" value="0" leadInLength="0/1"  />
               <InterpolatingParam id="1474" interp="linr"  time="-9999999/1" value="0" leadInLength="0/1"  />
               <InterpolatingParam id="1475" interp="linr"  time="-9999999/1" value="0" leadInLength="0/1"  />
              </VectorParam>
              <VectorParam id="1476"  name="rotation">
               <InterpolatingParam id="1477" interp="linr"  time="-9999999/1" value="0" leadInLength="0/1"  />
               <InterpolatingParam id="1478" interp="linr"  time="-9999999/1" value="0" leadInLength="0/1"  />
               <InterpolatingParam id="1479" interp="linr"  time="-9999999/1" value="0" leadInLength="0/1"  />
              </VectorParam>
              <VectorParam id="1480"  name="shear">
               <InterpolatingParam id="1481" interp="linr"  time="-9999999/1" value="0" leadInLength="0/1"  />
               <InterpolatingParam id="1482" interp="linr"  time="-9999999/1" value="0" leadInLength="0/1"  />
               <InterpolatingParam id="1483" interp="linr"  time="-9999999/1" value="0" leadInLength="0/1"  />
              </VectorParam>
              <VectorParam id="1484"  name="scale">
               <InterpolatingParam id="1485" interp="linr"  time="-9999999/1" value="1" leadInLength="0/1"  />
               <InterpolatingParam id="1486" interp="linr"  time="-9999999/1" value="1" leadInLength="0/1"  />
               <InterpolatingParam id="1487" interp="linr"  time="-9999999/1" value="1" leadInLength="0/1"  />
              </VectorParam>
              <VectorParam id="1488"  name="anchor">
               <InterpolatingParam id="1489" interp="linr"  time="0/1" value="0" leadInLength="0/1"  />
               <InterpolatingParam id="1490" interp="linr"  time="0/1" value="0" leadInLength="0/1"  />
               <InterpolatingParam id="1491" interp="linr"  time="0/1" value="0" leadInLength="0/1"  />
              </VectorParam>
             </Transformer>
             <Parameters>
              <VectorParam id="1492"  name="sourceCrop">
               <InterpolatingParam id="1493" interp="linr"  time="0/1" value="0" leadInLength="0/1"  />
               <InterpolatingParam id="1494" interp="linr"  time="0/1" value="0" leadInLength="0/1"  />
               <InterpolatingParam id="1495" interp="linr"  time="0/1" value="0" leadInLength="0/1"  />
               <InterpolatingParam id="1496" interp="linr"  time="0/1" value="0" leadInLength="0/1"  />
              </VectorParam>
              <VectorParam id="1497"  name="geometryCrop">
               <InterpolatingParam id="1498" interp="linr"  time="-9999999/1" value="0" leadInLength="0/1"  />
               <InterpolatingParam id="1499" interp="linr"  time="-9999999/1" value="0" leadInLength="0/1"  />
               <InterpolatingParam id="1500" interp="linr"  time="-9999999/1" value="0" leadInLength="0/1"  />
               <InterpolatingParam id="1501" interp="linr"  time="-9999999/1" value="0" leadInLength="0/1"  />
              </VectorParam>
              <InterpolatingParam id="1502" interp="linr"  time="-9999999/1" value="1" leadInLength="0/1"  name="opacity"/>
             </Parameters>
             <Attributes>
              <Attribute id="1503" value="" name="ident"/>
             </Attributes>
             <ExtraData>
              <Entry key="ZoomPanBin">
               <ZoomPanBin id="1504"  >
                <ZoomPanKeyframes>
                 <ZoomPanKeyframe id="1505" timeRangeEnd="-9999999/1" timeRangeDuration="0/1" interpolaterName=""  />
                </ZoomPanKeyframes>
               </ZoomPanBin>
              </Entry>
             </ExtraData>
            </VMFile>
            <MetaData>
             <entry key="WinSubProjectDisplayName" val=""/>
            </MetaData>
           </UnifiedMedia>
           <UnifiedMedia id="1506"  >
            <AMFile id="1507" start="5268" duration="204" scalar="1/1" mediaStart="6925/1" mediaDuration="204/1" trackNumber="2" src="4" channelNumber="0,1" >
             <Parameters>
              <InterpolatingParam id="1508" interp="linr"  time="0/1" value="1" leadInLength="0/1"  name="volume"/>
              <Parameter id="1509"  name="captions"/>
             </Parameters>
             <Attributes>
              <Attribute id="1510" value="" name="ident"/>
              <Attribute id="1511" value="44100" name="sampleRate"/>
              <Attribute id="1512" value="16" name="bitDepth"/>
              <Attribute id="1513" value="1" name="gain"/>
              <Attribute id="1514" value="0" name="mixToMono"/>
             </Attributes>
            </AMFile>
            <VMFile id="1515" start="5268" duration="204" scalar="1/1" mediaStart="6925/1" mediaDuration="204/1" trackNumber="1" src="4" >
             <Transformer>
              <VectorParam id="1516"  name="translation">
               <InterpolatingParam id="1517" interp="linr"  time="-9999999/1" value="0" leadInLength="0/1"  />
               <InterpolatingParam id="1518" interp="linr"  time="-9999999/1" value="0" leadInLength="0/1"  />
               <InterpolatingParam id="1519" interp="linr"  time="-9999999/1" value="0" leadInLength="0/1"  />
              </VectorParam>
              <VectorParam id="1520"  name="rotation">
               <InterpolatingParam id="1521" interp="linr"  time="-9999999/1" value="0" leadInLength="0/1"  />
               <InterpolatingParam id="1522" interp="linr"  time="-9999999/1" value="0" leadInLength="0/1"  />
               <InterpolatingParam id="1523" interp="linr"  time="-9999999/1" value="0" leadInLength="0/1"  />
              </VectorParam>
              <VectorParam id="1524"  name="shear">
               <InterpolatingParam id="1525" interp="linr"  time="-9999999/1" value="0" leadInLength="0/1"  />
               <InterpolatingParam id="1526" interp="linr"  time="-9999999/1" value="0" leadInLength="0/1"  />
               <InterpolatingParam id="1527" interp="linr"  time="-9999999/1" value="0" leadInLength="0/1"  />
              </VectorParam>
              <VectorParam id="1528"  name="scale">
               <InterpolatingParam id="1529" interp="linr"  time="-9999999/1" value="1" leadInLength="0/1"  />
               <InterpolatingParam id="1530" interp="linr"  time="-9999999/1" value="1" leadInLength="0/1"  />
               <InterpolatingParam id="1531" interp="linr"  time="-9999999/1" value="1" leadInLength="0/1"  />
              </VectorParam>
              <VectorParam id="1532"  name="anchor">
               <InterpolatingParam id="1533" interp="linr"  time="0/1" value="0" leadInLength="0/1"  />
               <InterpolatingParam id="1534" interp="linr"  time="0/1" value="0" leadInLength="0/1"  />
               <InterpolatingParam id="1535" interp="linr"  time="0/1" value="0" leadInLength="0/1"  />
              </VectorParam>
             </Transformer>
             <Parameters>
              <VectorParam id="1536"  name="sourceCrop">
               <InterpolatingParam id="1537" interp="linr"  time="0/1" value="0" leadInLength="0/1"  />
               <InterpolatingParam id="1538" interp="linr"  time="0/1" value="0" leadInLength="0/1"  />
               <InterpolatingParam id="1539" interp="linr"  time="0/1" value="0" leadInLength="0/1"  />
               <InterpolatingParam id="1540" interp="linr"  time="0/1" value="0" leadInLength="0/1"  />
              </VectorParam>
              <VectorParam id="1541"  name="geometryCrop">
               <InterpolatingParam id="1542" interp="linr"  time="-9999999/1" value="0" leadInLength="0/1"  />
               <InterpolatingParam id="1543" interp="linr"  time="-9999999/1" value="0" leadInLength="0/1"  />
               <InterpolatingParam id="1544" interp="linr"  time="-9999999/1" value="0" leadInLength="0/1"  />
               <InterpolatingParam id="1545" interp="linr"  time="-9999999/1" value="0" leadInLength="0/1"  />
              </VectorParam>
              <InterpolatingParam id="1546" interp="linr"  time="-9999999/1" value="1" leadInLength="0/1"  name="opacity"/>
             </Parameters>
             <Attributes>
              <Attribute id="1547" value="" name="ident"/>
             </Attributes>
             <ExtraData>
              <Entry key="ZoomPanBin">
               <ZoomPanBin id="1548"  >
                <ZoomPanKeyframes>
                 <ZoomPanKeyframe id="1549" timeRangeEnd="-9999999/1" timeRangeDuration="0/1" interpolaterName=""  />
                </ZoomPanKeyframes>
               </ZoomPanBin>
              </Entry>
             </ExtraData>
            </VMFile>
            <MetaData>
             <entry key="WinSubProjectDisplayName" val=""/>
            </MetaData>
           </UnifiedMedia>
           <UnifiedMedia id="1550"  >
            <AMFile id="1551" start="5472" duration="130" scalar="1/1" mediaStart="7152/1" mediaDuration="130/1" trackNumber="2" src="4" channelNumber="0,1" >
             <Parameters>
              <InterpolatingParam id="1552" interp="linr"  time="0/1" value="1" leadInLength="0/1"  name="volume"/>
              <Parameter id="1553"  name="captions"/>
             </Parameters>
             <Attributes>
              <Attribute id="1554" value="" name="ident"/>
              <Attribute id="1555" value="44100" name="sampleRate"/>
              <Attribute id="1556" value="16" name="bitDepth"/>
              <Attribute id="1557" value="1" name="gain"/>
              <Attribute id="1558" value="0" name="mixToMono"/>
             </Attributes>
            </AMFile>
            <VMFile id="1559" start="5472" duration="130" scalar="1/1" mediaStart="7152/1" mediaDuration="130/1" trackNumber="1" src="4" >
             <Transformer>
              <VectorParam id="1560"  name="translation">
               <InterpolatingParam id="1561" interp="linr"  time="-9999999/1" value="0" leadInLength="0/1"  />
               <InterpolatingParam id="1562" interp="linr"  time="-9999999/1" value="0" leadInLength="0/1"  />
               <InterpolatingParam id="1563" interp="linr"  time="-9999999/1" value="0" leadInLength="0/1"  />
              </VectorParam>
              <VectorParam id="1564"  name="rotation">
               <InterpolatingParam id="1565" interp="linr"  time="-9999999/1" value="0" leadInLength="0/1"  />
               <InterpolatingParam id="1566" interp="linr"  time="-9999999/1" value="0" leadInLength="0/1"  />
               <InterpolatingParam id="1567" interp="linr"  time="-9999999/1" value="0" leadInLength="0/1"  />
              </VectorParam>
              <VectorParam id="1568"  name="shear">
               <InterpolatingParam id="1569" interp="linr"  time="-9999999/1" value="0" leadInLength="0/1"  />
               <InterpolatingParam id="1570" interp="linr"  time="-9999999/1" value="0" leadInLength="0/1"  />
               <InterpolatingParam id="1571" interp="linr"  time="-9999999/1" value="0" leadInLength="0/1"  />
              </VectorParam>
              <VectorParam id="1572"  name="scale">
               <InterpolatingParam id="1573" interp="linr"  time="-9999999/1" value="1" leadInLength="0/1"  />
               <InterpolatingParam id="1574" interp="linr"  time="-9999999/1" value="1" leadInLength="0/1"  />
               <InterpolatingParam id="1575" interp="linr"  time="-9999999/1" value="1" leadInLength="0/1"  />
              </VectorParam>
              <VectorParam id="1576"  name="anchor">
               <InterpolatingParam id="1577" interp="linr"  time="0/1" value="0" leadInLength="0/1"  />
               <InterpolatingParam id="1578" interp="linr"  time="0/1" value="0" leadInLength="0/1"  />
               <InterpolatingParam id="1579" interp="linr"  time="0/1" value="0" leadInLength="0/1"  />
              </VectorParam>
             </Transformer>
             <Parameters>
              <VectorParam id="1580"  name="sourceCrop">
               <InterpolatingParam id="1581" interp="linr"  time="0/1" value="0" leadInLength="0/1"  />
               <InterpolatingParam id="1582" interp="linr"  time="0/1" value="0" leadInLength="0/1"  />
               <InterpolatingParam id="1583" interp="linr"  time="0/1" value="0" leadInLength="0/1"  />
               <InterpolatingParam id="1584" interp="linr"  time="0/1" value="0" leadInLength="0/1"  />
              </VectorParam>
              <VectorParam id="1585"  name="geometryCrop">
               <InterpolatingParam id="1586" interp="linr"  time="-9999999/1" value="0" leadInLength="0/1"  />
               <InterpolatingParam id="1587" interp="linr"  time="-9999999/1" value="0" leadInLength="0/1"  />
               <InterpolatingParam id="1588" interp="linr"  time="-9999999/1" value="0" leadInLength="0/1"  />
               <InterpolatingParam id="1589" interp="linr"  time="-9999999/1" value="0" leadInLength="0/1"  />
              </VectorParam>
              <InterpolatingParam id="1590" interp="linr"  time="-9999999/1" value="1" leadInLength="0/1"  name="opacity"/>
             </Parameters>
             <Attributes>
              <Attribute id="1591" value="" name="ident"/>
             </Attributes>
             <ExtraData>
              <Entry key="ZoomPanBin">
               <ZoomPanBin id="1592"  >
                <ZoomPanKeyframes>
                 <ZoomPanKeyframe id="1593" timeRangeEnd="-9999999/1" timeRangeDuration="0/1" interpolaterName=""  />
                </ZoomPanKeyframes>
               </ZoomPanBin>
              </Entry>
             </ExtraData>
            </VMFile>
            <MetaData>
             <entry key="WinSubProjectDisplayName" val=""/>
            </MetaData>
           </UnifiedMedia>
           <UnifiedMedia id="1594"  >
            <AMFile id="1595" start="5602" duration="143" scalar="1/1" mediaStart="7307/1" mediaDuration="143/1" trackNumber="2" src="4" channelNumber="0,1" >
             <Parameters>
              <InterpolatingParam id="1596" interp="linr"  time="0/1" value="1" leadInLength="0/1"  name="volume"/>
              <Parameter id="1597"  name="captions"/>
             </Parameters>
             <Attributes>
              <Attribute id="1598" value="" name="ident"/>
              <Attribute id="1599" value="44100" name="sampleRate"/>
              <Attribute id="1600" value="16" name="bitDepth"/>
              <Attribute id="1601" value="1" name="gain"/>
              <Attribute id="1602" value="0" name="mixToMono"/>
             </Attributes>
            </AMFile>
            <VMFile id="1603" start="5602" duration="143" scalar="1/1" mediaStart="7307/1" mediaDuration="143/1" trackNumber="1" src="4" >
             <Transformer>
              <VectorParam id="1604"  name="translation">
               <InterpolatingParam id="1605" interp="linr"  time="-9999999/1" value="0" leadInLength="0/1"  />
               <InterpolatingParam id="1606" interp="linr"  time="-9999999/1" value="0" leadInLength="0/1"  />
               <InterpolatingParam id="1607" interp="linr"  time="-9999999/1" value="0" leadInLength="0/1"  />
              </VectorParam>
              <VectorParam id="1608"  name="rotation">
               <InterpolatingParam id="1609" interp="linr"  time="-9999999/1" value="0" leadInLength="0/1"  />
               <InterpolatingParam id="1610" interp="linr"  time="-9999999/1" value="0" leadInLength="0/1"  />
               <InterpolatingParam id="1611" interp="linr"  time="-9999999/1" value="0" leadInLength="0/1"  />
              </VectorParam>
              <VectorParam id="1612"  name="shear">
               <InterpolatingParam id="1613" interp="linr"  time="-9999999/1" value="0" leadInLength="0/1"  />
               <InterpolatingParam id="1614" interp="linr"  time="-9999999/1" value="0" leadInLength="0/1"  />
               <InterpolatingParam id="1615" interp="linr"  time="-9999999/1" value="0" leadInLength="0/1"  />
              </VectorParam>
              <VectorParam id="1616"  name="scale">
               <InterpolatingParam id="1617" interp="linr"  time="-9999999/1" value="1" leadInLength="0/1"  />
               <InterpolatingParam id="1618" interp="linr"  time="-9999999/1" value="1" leadInLength="0/1"  />
               <InterpolatingParam id="1619" interp="linr"  time="-9999999/1" value="1" leadInLength="0/1"  />
              </VectorParam>
              <VectorParam id="1620"  name="anchor">
               <InterpolatingParam id="1621" interp="linr"  time="0/1" value="0" leadInLength="0/1"  />
               <InterpolatingParam id="1622" interp="linr"  time="0/1" value="0" leadInLength="0/1"  />
               <InterpolatingParam id="1623" interp="linr"  time="0/1" value="0" leadInLength="0/1"  />
              </VectorParam>
             </Transformer>
             <Parameters>
              <VectorParam id="1624"  name="sourceCrop">
               <InterpolatingParam id="1625" interp="linr"  time="0/1" value="0" leadInLength="0/1"  />
               <InterpolatingParam id="1626" interp="linr"  time="0/1" value="0" leadInLength="0/1"  />
               <InterpolatingParam id="1627" interp="linr"  time="0/1" value="0" leadInLength="0/1"  />
               <InterpolatingParam id="1628" interp="linr"  time="0/1" value="0" leadInLength="0/1"  />
              </VectorParam>
              <VectorParam id="1629"  name="geometryCrop">
               <InterpolatingParam id="1630" interp="linr"  time="-9999999/1" value="0" leadInLength="0/1"  />
               <InterpolatingParam id="1631" interp="linr"  time="-9999999/1" value="0" leadInLength="0/1"  />
               <InterpolatingParam id="1632" interp="linr"  time="-9999999/1" value="0" leadInLength="0/1"  />
               <InterpolatingParam id="1633" interp="linr"  time="-9999999/1" value="0" leadInLength="0/1"  />
              </VectorParam>
              <InterpolatingParam id="1634" interp="linr"  time="-9999999/1" value="1" leadInLength="0/1"  name="opacity"/>
             </Parameters>
             <Attributes>
              <Attribute id="1635" value="" name="ident"/>
             </Attributes>
             <ExtraData>
              <Entry key="ZoomPanBin">
               <ZoomPanBin id="1636"  >
                <ZoomPanKeyframes>
                 <ZoomPanKeyframe id="1637" timeRangeEnd="-9999999/1" timeRangeDuration="0/1" interpolaterName=""  />
                </ZoomPanKeyframes>
               </ZoomPanBin>
              </Entry>
             </ExtraData>
            </VMFile>
            <MetaData>
             <entry key="WinSubProjectDisplayName" val=""/>
            </MetaData>
           </UnifiedMedia>
          </Medias>
         </GenericTrack>
        </StitchedMedia>
       </Medias>
      </GenericTrack>
      <GenericTrack id="1638"  >
       <Attributes>
        <Attribute id="1639" value="" name="ident"/>
        <Attribute id="1640" value="0" name="audioMuted"/>
        <Attribute id="1641" value="0" name="videoHidden"/>
       </Attributes>
       <MetaData>
        <entry key="IsLocked" val="False"/>
        <entry key="WinTrackHeight" val="62"/>
       </MetaData>
       <Medias>
        <Callout id="1642" start="3707" duration="107" scalar="1/1" mediaStart="0/1" mediaDuration="107/1" >
         <Transformer>
          <VectorParam id="1643"  name="translation">
           <InterpolatingParam id="1644" interp="linr"  time="-9999999/1" value="-230.91633466150995" leadInLength="0/1"  />
           <InterpolatingParam id="1645" interp="linr"  time="-9999999/1" value="99.681274900409448" leadInLength="0/1"  />
           <InterpolatingParam id="1646" interp="linr"  time="-9999999/1" value="3.4106051316488567e-010" leadInLength="0/1"  />
          </VectorParam>
          <VectorParam id="1647"  name="rotation">
           <InterpolatingParam id="1648" interp="linr"  time="-9999999/1" value="0" leadInLength="0/1"  />
           <InterpolatingParam id="1649" interp="linr"  time="-9999999/1" value="0" leadInLength="0/1"  />
           <InterpolatingParam id="1650" interp="linr"  time="-9999999/1" value="2.1138492492329464" leadInLength="0/1"  />
          </VectorParam>
          <VectorParam id="1651"  name="shear">
           <InterpolatingParam id="1652" interp="linr"  time="-9999999/1" value="1.7908133553496802e-016" leadInLength="0/1"  />
           <InterpolatingParam id="1653" interp="linr"  time="-9999999/1" value="0" leadInLength="0/1"  />
           <InterpolatingParam id="1654" interp="linr"  time="-9999999/1" value="0" leadInLength="0/1"  />
          </VectorParam>
          <VectorParam id="1655"  name="scale">
           <InterpolatingParam id="1656" interp="linr"  time="-9999999/1" value="0.68188413222634936" leadInLength="0/1"  />
           <InterpolatingParam id="1657" interp="linr"  time="-9999999/1" value="1" leadInLength="0/1"  />
           <InterpolatingParam id="1658" interp="linr"  time="-9999999/1" value="1" leadInLength="0/1"  />
          </VectorParam>
          <VectorParam id="1659"  name="anchor">
           <InterpolatingParam id="1660" interp="linr"  time="0/1" value="0" leadInLength="0/1"  />
           <InterpolatingParam id="1661" interp="linr"  time="0/1" value="0" leadInLength="0/1"  />
           <InterpolatingParam id="1662" interp="linr"  time="0/1" value="0" leadInLength="0/1"  />
          </VectorParam>
         </Transformer>
         <Parameters>
          <VectorParam id="1663"  name="sourceCrop">
           <InterpolatingParam id="1664" interp="linr"  time="0/1" value="0" leadInLength="0/1"  />
           <InterpolatingParam id="1665" interp="linr"  time="0/1" value="0" leadInLength="0/1"  />
           <InterpolatingParam id="1666" interp="linr"  time="0/1" value="0" leadInLength="0/1"  />
           <InterpolatingParam id="1667" interp="linr"  time="0/1" value="0" leadInLength="0/1"  />
          </VectorParam>
          <VectorParam id="1668"  name="geometryCrop">
           <InterpolatingParam id="1669" interp="linr"  time="-9999999/1" value="0" leadInLength="0/1"  />
           <InterpolatingParam id="1670" interp="linr"  time="-9999999/1" value="0" leadInLength="0/1"  />
           <InterpolatingParam id="1671" interp="linr"  time="-9999999/1" value="0" leadInLength="0/1"  />
           <InterpolatingParam id="1672" interp="linr"  time="-9999999/1" value="0" leadInLength="0/1"  />
          </VectorParam>
          <InterpolatingParam id="1673" interp="linr"  time="-9999999/1" value="1" leadInLength="0/1"  name="opacity"/>
         </Parameters>
         <Effects>
          <GenericEffect id="1674" name = "DropShadow" >
           <Parameters>
           <InterpolatingParam id="1675" interp="linr"  time="0/1" value="315" leadInLength="0/1"   name="angle"/>
           <InterpolatingParam id="1676" interp="linr"  time="0/1" value="2" leadInLength="0/1"   name="blur"/>
           <Parameter id="1677"   name="enabled">
            <Keyframes>
            <Keyframe id="1678"  time="0/1" value="1" leadInLength="0/1"  />
            </Keyframes>
           </Parameter>
           <InterpolatingParam id="1679" interp="linr"  time="0/1" value="4" leadInLength="0/1"   name="offset"/>
           <InterpolatingParam id="1680" interp="linr"  time="0/1" value="0.75" leadInLength="0/1"   name="opacity"/>
           </Parameters>
          </GenericEffect>
         </Effects>
         <Attributes>
          <Attribute id="1681"  name="vectorNode">
           <VectorNode id="1682" kind="TypeWinLine"  >
            <DoubleParameters>
             <InterpolatingParam id="1683" interp="linr"  time="0/1" value="255" leadInLength="0/1"  name="borderColorBlue"/>
             <InterpolatingParam id="1684" interp="linr"  time="0/1" value="255" leadInLength="0/1"  name="borderColorGreen"/>
             <InterpolatingParam id="1685" interp="linr"  time="0/1" value="255" leadInLength="0/1"  name="borderColorRed"/>
             <InterpolatingParam id="1686" interp="linr"  time="0/1" value="5" leadInLength="0/1"  name="borderWidth"/>
             <InterpolatingParam id="1687" interp="linr"  time="0/1" value="1" leadInLength="0/1"  name="endCapStyle"/>
             <InterpolatingParam id="1688" interp="linr"  time="0/1" value="20" leadInLength="0/1"  name="height"/>
             <InterpolatingParam id="1689" interp="linr"  time="0/1" value="2" leadInLength="0/1"  name="startCapStyle"/>
             <InterpolatingParam id="1690" interp="linr"  time="0/1" value="341.5" leadInLength="0/1"  name="width"/>
            </DoubleParameters>
            <StringParameters>
             <Parameter id="1691"  name="filename">
              <Keyframes>
              <Keyframe id="1692"  time="0/1" value="D:\Media\Studio\Callouts\line 2.xml" leadInLength="0/1"  />
              </Keyframes>
             </Parameter>
             <Parameter id="1693"  name="name">
              <Keyframes>
              <Keyframe id="1694"  time="0/1" value="Line" leadInLength="0/1"  />
              </Keyframes>
             </Parameter>
             <Parameter id="1695"  name="xmlContent">
              <Keyframes>
              <Keyframe id="1696"  time="0/1" value="﻿&lt;?xml version=&quot;1.0&quot;?&gt;&#xa;&#xa;&lt;Overlay version=&quot;1.0.1&quot;&gt;&#xa;&#xa;&lt;Overlay_Filename&gt;line 2.png&lt;/Overlay_Filename&gt;&#xa;&lt;Overlay_Name&gt;Line&lt;/Overlay_Name&gt;&#xa;&lt;Text_Top&gt;0&lt;/Text_Top&gt;&#xa;&lt;Text_Left&gt;0&lt;/Text_Left&gt;&#xa;&lt;Text_Bottom&gt;0&lt;/Text_Bottom&gt;&#xa;&lt;Text_Right&gt;0&lt;/Text_Right&gt;&#xa;&lt;Style&gt;5&lt;/Style&gt;&#xa;&lt;Initial_Fill_Color&gt;0xffd8a57c&lt;/Initial_Fill_Color&gt;&#xa;&lt;Initial_Border_Color&gt;0xff017b34&lt;/Initial_Border_Color&gt;&#xa;&lt;StartCap&gt;2&lt;/StartCap&gt;&#xa;&lt;EndCap&gt;1&lt;/EndCap&gt;&#xa;&lt;UseDefaultSpec&gt;1&lt;/UseDefaultSpec&gt;&#xa;&lt;/Overlay&gt;" leadInLength="0/1"  />
              </Keyframes>
             </Parameter>
            </StringParameters>
           </VectorNode>
          </Attribute>
         </Attributes>
         <MetaData>
          <entry key="WinSubProjectDisplayName" val=""/>
         </MetaData>
         <LeftEdgeMods length="30/1" groupName="OpacityFade">
          <EdgeMod parameter="1673">
           <FadeInFunc id="1697"  />
          </EdgeMod>
         </LeftEdgeMods>
         <RightEdgeMods length="30/1" groupName="OpacityFade">
          <EdgeMod parameter="1673">
           <FadeOutFunc id="1698"  />
          </EdgeMod>
         </RightEdgeMods>
         <ExtraData>
          <Entry key="ZoomPanBin">
           <ZoomPanBin id="1699"  >
            <ZoomPanKeyframes>
             <ZoomPanKeyframe id="1700" timeRangeEnd="-9999999/1" timeRangeDuration="0/1" interpolaterName="linr"  />
            </ZoomPanKeyframes>
           </ZoomPanBin>
          </Entry>
         </ExtraData>
        </Callout>
       </Medias>
      </GenericTrack>
      <GenericTrack id="1701"  >
       <Attributes>
        <Attribute id="1702" value="" name="ident"/>
        <Attribute id="1703" value="0" name="audioMuted"/>
        <Attribute id="1704" value="0" name="videoHidden"/>
       </Attributes>
       <MetaData>
        <entry key="IsLocked" val="False"/>
        <entry key="WinTrackHeight" val="62"/>
       </MetaData>
       <Medias>
        <Callout id="1705" start="2412" duration="178" scalar="1/1" mediaStart="0/1" mediaDuration="178/1" >
         <Transformer>
          <VectorParam id="1706"  name="translation">
           <InterpolatingParam id="1707" interp="linr"  time="-9999999/1" value="-79.601593625622741" leadInLength="0/1"  />
           <InterpolatingParam id="1708" interp="linr"  time="-9999999/1" value="-74.042783034649801" leadInLength="0/1"  />
           <InterpolatingParam id="1709" interp="linr"  time="-9999999/1" value="0" leadInLength="0/1"  />
          </VectorParam>
          <VectorParam id="1710"  name="rotation">
           <InterpolatingParam id="1711" interp="linr"  time="-9999999/1" value="0" leadInLength="0/1"  />
           <InterpolatingParam id="1712" interp="linr"  time="-9999999/1" value="0" leadInLength="0/1"  />
           <InterpolatingParam id="1713" interp="linr"  time="-9999999/1" value="0" leadInLength="0/1"  />
          </VectorParam>
          <VectorParam id="1714"  name="shear">
           <InterpolatingParam id="1715" interp="linr"  time="-9999999/1" value="0" leadInLength="0/1"  />
           <InterpolatingParam id="1716" interp="linr"  time="-9999999/1" value="0" leadInLength="0/1"  />
           <InterpolatingParam id="1717" interp="linr"  time="-9999999/1" value="0" leadInLength="0/1"  />
          </VectorParam>
          <VectorParam id="1718"  name="scale">
           <InterpolatingParam id="1719" interp="linr"  time="-9999999/1" value="3.4737360951507963" leadInLength="0/1"  />
           <InterpolatingParam id="1720" interp="linr"  time="-9999999/1" value="3.1772792625809587" leadInLength="0/1"  />
           <InterpolatingParam id="1721" interp="linr"  time="-9999999/1" value="1" leadInLength="0/1"  />
          </VectorParam>
          <VectorParam id="1722"  name="anchor">
           <InterpolatingParam id="1723" interp="linr"  time="0/1" value="0" leadInLength="0/1"  />
           <InterpolatingParam id="1724" interp="linr"  time="0/1" value="0" leadInLength="0/1"  />
           <InterpolatingParam id="1725" interp="linr"  time="0/1" value="0" leadInLength="0/1"  />
          </VectorParam>
         </Transformer>
         <Parameters>
          <VectorParam id="1726"  name="sourceCrop">
           <InterpolatingParam id="1727" interp="linr"  time="0/1" value="0" leadInLength="0/1"  />
           <InterpolatingParam id="1728" interp="linr"  time="0/1" value="0" leadInLength="0/1"  />
           <InterpolatingParam id="1729" interp="linr"  time="0/1" value="0" leadInLength="0/1"  />
           <InterpolatingParam id="1730" interp="linr"  time="0/1" value="0" leadInLength="0/1"  />
          </VectorParam>
          <VectorParam id="1731"  name="geometryCrop">
           <InterpolatingParam id="1732" interp="linr"  time="-9999999/1" value="0" leadInLength="0/1"  />
           <InterpolatingParam id="1733" interp="linr"  time="-9999999/1" value="0" leadInLength="0/1"  />
           <InterpolatingParam id="1734" interp="linr"  time="-9999999/1" value="0" leadInLength="0/1"  />
           <InterpolatingParam id="1735" interp="linr"  time="-9999999/1" value="0" leadInLength="0/1"  />
          </VectorParam>
          <InterpolatingParam id="1736" interp="linr"  time="-9999999/1" value="1" leadInLength="0/1"  name="opacity"/>
         </Parameters>
         <Attributes>
          <Attribute id="1737"  name="vectorNode">
           <VectorNode id="1738" kind="TypeWinBlur"  >
            <DoubleParameters>
             <InterpolatingParam id="1739" interp="linr"  time="0/1" value="1" leadInLength="0/1"  name="Intensity"/>
             <InterpolatingParam id="1740" interp="linr"  time="0/1" value="180" leadInLength="0/1"  name="height"/>
             <InterpolatingParam id="1741" interp="linr"  time="0/1" value="341.5" leadInLength="0/1"  name="width"/>
            </DoubleParameters>
            <StringParameters>
             <Parameter id="1742"  name="filename">
              <Keyframes>
              <Keyframe id="1743"  time="0/1" value="D:\Media\Studio\Callouts\blur_100x100.xml" leadInLength="0/1"  />
              </Keyframes>
             </Parameter>
             <Parameter id="1744"  name="name">
              <Keyframes>
              <Keyframe id="1745"  time="0/1" value="Blur" leadInLength="0/1"  />
              </Keyframes>
             </Parameter>
             <Parameter id="1746"  name="xmlContent">
              <Keyframes>
              <Keyframe id="1747"  time="0/1" value="﻿&lt;?xml version=&quot;1.0&quot;?&gt;&#xa;&#xa;&lt;Overlay version=&quot;1.0.1&quot;&gt;&#xa;&#xa;&lt;Overlay_Filename&gt;blur_100x100.png&lt;/Overlay_Filename&gt;&#xa;&lt;Overlay_Name&gt;Blur&lt;/Overlay_Name&gt;&#xa;&lt;Text_Top&gt;0&lt;/Text_Top&gt;&#xa;&lt;Text_Left&gt;0&lt;/Text_Left&gt;&#xa;&lt;Text_Bottom&gt;0&lt;/Text_Bottom&gt;&#xa;&lt;Text_Right&gt;0&lt;/Text_Right&gt;&#xa;&lt;Fill_Color&gt;0&lt;/Fill_Color&gt;&#xa;&lt;Border_Color&gt;0&lt;/Border_Color&gt;&#xa;&lt;/Overlay&gt;" leadInLength="0/1"  />
              </Keyframes>
             </Parameter>
            </StringParameters>
           </VectorNode>
          </Attribute>
         </Attributes>
         <MetaData>
          <entry key="WinSubProjectDisplayName" val=""/>
         </MetaData>
         <LeftEdgeMods length="30/1" groupName="OpacityFade">
          <EdgeMod parameter="1739">
           <FadeInFunc id="1697"  />
          </EdgeMod>
         </LeftEdgeMods>
         <ExtraData>
          <Entry key="ZoomPanBin">
           <ZoomPanBin id="1748"  >
            <ZoomPanKeyframes>
             <ZoomPanKeyframe id="1749" timeRangeEnd="-9999999/1" timeRangeDuration="0/1" interpolaterName="linr"  />
            </ZoomPanKeyframes>
           </ZoomPanBin>
          </Entry>
         </ExtraData>
        </Callout>
        <Callout id="1750" start="2590" duration="844" scalar="1/1" mediaStart="198/1" mediaDuration="844/1" >
         <Transformer>
          <VectorParam id="1751"  name="translation">
           <InterpolatingParam id="1752" interp="linr"  time="-9999999/1" value="-79.601593625622741" leadInLength="0/1"  />
           <InterpolatingParam id="1753" interp="linr"  time="-9999999/1" value="-74.042783034649801" leadInLength="0/1"  />
           <InterpolatingParam id="1754" interp="linr"  time="-9999999/1" value="0" leadInLength="0/1"  />
          </VectorParam>
          <VectorParam id="1755"  name="rotation">
           <InterpolatingParam id="1756" interp="linr"  time="-9999999/1" value="0" leadInLength="0/1"  />
           <InterpolatingParam id="1757" interp="linr"  time="-9999999/1" value="0" leadInLength="0/1"  />
           <InterpolatingParam id="1758" interp="linr"  time="-9999999/1" value="0" leadInLength="0/1"  />
          </VectorParam>
          <VectorParam id="1759"  name="shear">
           <InterpolatingParam id="1760" interp="linr"  time="-9999999/1" value="0" leadInLength="0/1"  />
           <InterpolatingParam id="1761" interp="linr"  time="-9999999/1" value="0" leadInLength="0/1"  />
           <InterpolatingParam id="1762" interp="linr"  time="-9999999/1" value="0" leadInLength="0/1"  />
          </VectorParam>
          <VectorParam id="1763"  name="scale">
           <InterpolatingParam id="1764" interp="linr"  time="-9999999/1" value="3.4737360951507963" leadInLength="0/1"  />
           <InterpolatingParam id="1765" interp="linr"  time="-9999999/1" value="3.1772792625809587" leadInLength="0/1"  />
           <InterpolatingParam id="1766" interp="linr"  time="-9999999/1" value="1" leadInLength="0/1"  />
          </VectorParam>
          <VectorParam id="1767"  name="anchor">
           <InterpolatingParam id="1768" interp="linr"  time="0/1" value="0" leadInLength="0/1"  />
           <InterpolatingParam id="1769" interp="linr"  time="0/1" value="0" leadInLength="0/1"  />
           <InterpolatingParam id="1770" interp="linr"  time="0/1" value="0" leadInLength="0/1"  />
          </VectorParam>
         </Transformer>
         <Parameters>
          <VectorParam id="1771"  name="sourceCrop">
           <InterpolatingParam id="1772" interp="linr"  time="0/1" value="0" leadInLength="0/1"  />
           <InterpolatingParam id="1773" interp="linr"  time="0/1" value="0" leadInLength="0/1"  />
           <InterpolatingParam id="1774" interp="linr"  time="0/1" value="0" leadInLength="0/1"  />
           <InterpolatingParam id="1775" interp="linr"  time="0/1" value="0" leadInLength="0/1"  />
          </VectorParam>
          <VectorParam id="1776"  name="geometryCrop">
           <InterpolatingParam id="1777" interp="linr"  time="-9999999/1" value="0" leadInLength="0/1"  />
           <InterpolatingParam id="1778" interp="linr"  time="-9999999/1" value="0" leadInLength="0/1"  />
           <InterpolatingParam id="1779" interp="linr"  time="-9999999/1" value="0" leadInLength="0/1"  />
           <InterpolatingParam id="1780" interp="linr"  time="-9999999/1" value="0" leadInLength="0/1"  />
          </VectorParam>
          <InterpolatingParam id="1781" interp="linr"  time="-9999999/1" value="1" leadInLength="0/1"  name="opacity"/>
         </Parameters>
         <Attributes>
          <Attribute id="1782"  name="vectorNode">
           <VectorNode id="1783" kind="TypeWinBlur"  >
            <DoubleParameters>
             <InterpolatingParam id="1784" interp="linr"  time="0/1" value="1" leadInLength="0/1"  name="Intensity"/>
             <InterpolatingParam id="1785" interp="linr"  time="0/1" value="180" leadInLength="0/1"  name="height"/>
             <InterpolatingParam id="1786" interp="linr"  time="0/1" value="341.5" leadInLength="0/1"  name="width"/>
            </DoubleParameters>
            <StringParameters>
             <Parameter id="1787"  name="filename">
              <Keyframes>
              <Keyframe id="1788"  time="0/1" value="D:\Media\Studio\Callouts\blur_100x100.xml" leadInLength="0/1"  />
              </Keyframes>
             </Parameter>
             <Parameter id="1789"  name="name">
              <Keyframes>
              <Keyframe id="1790"  time="0/1" value="Blur" leadInLength="0/1"  />
              </Keyframes>
             </Parameter>
             <Parameter id="1791"  name="xmlContent">
              <Keyframes>
              <Keyframe id="1792"  time="0/1" value="﻿&lt;?xml version=&quot;1.0&quot;?&gt;&#xa;&#xa;&lt;Overlay version=&quot;1.0.1&quot;&gt;&#xa;&#xa;&lt;Overlay_Filename&gt;blur_100x100.png&lt;/Overlay_Filename&gt;&#xa;&lt;Overlay_Name&gt;Blur&lt;/Overlay_Name&gt;&#xa;&lt;Text_Top&gt;0&lt;/Text_Top&gt;&#xa;&lt;Text_Left&gt;0&lt;/Text_Left&gt;&#xa;&lt;Text_Bottom&gt;0&lt;/Text_Bottom&gt;&#xa;&lt;Text_Right&gt;0&lt;/Text_Right&gt;&#xa;&lt;Fill_Color&gt;0&lt;/Fill_Color&gt;&#xa;&lt;Border_Color&gt;0&lt;/Border_Color&gt;&#xa;&lt;/Overlay&gt;" leadInLength="0/1"  />
              </Keyframes>
             </Parameter>
            </StringParameters>
           </VectorNode>
          </Attribute>
         </Attributes>
         <MetaData>
          <entry key="WinSubProjectDisplayName" val=""/>
         </MetaData>
         <ExtraData>
          <Entry key="ZoomPanBin">
           <ZoomPanBin id="1793"  >
            <ZoomPanKeyframes>
             <ZoomPanKeyframe id="1794" timeRangeEnd="-9999999/1" timeRangeDuration="0/1" interpolaterName="linr"  />
            </ZoomPanKeyframes>
           </ZoomPanBin>
          </Entry>
         </ExtraData>
        </Callout>
       </Medias>
      </GenericTrack>
      <GenericTrack id="1795"  >
       <Attributes>
        <Attribute id="1796" value="" name="ident"/>
        <Attribute id="1797" value="0" name="audioMuted"/>
        <Attribute id="1798" value="0" name="videoHidden"/>
       </Attributes>
       <MetaData>
        <entry key="IsLocked" val="False"/>
        <entry key="WinTrackHeight" val="62"/>
       </MetaData>
       <Medias>
        <Callout id="1799" start="2990" duration="280" scalar="1/1" mediaStart="-70/1" mediaDuration="280/1" >
         <Transformer>
          <VectorParam id="1800"  name="translation">
           <InterpolatingParam id="1801" interp="linr"  time="-9999999/1" value="346.51294820728486" leadInLength="0/1"  />
           <InterpolatingParam id="1802" interp="linr"  time="-9999999/1" value="-289.97821230392429" leadInLength="0/1"  />
           <InterpolatingParam id="1803" interp="linr"  time="-9999999/1" value="3.4106051316488567e-010" leadInLength="0/1"  />
          </VectorParam>
          <VectorParam id="1804"  name="rotation">
           <InterpolatingParam id="1805" interp="linr"  time="-9999999/1" value="0" leadInLength="0/1"  />
           <InterpolatingParam id="1806" interp="linr"  time="-9999999/1" value="0" leadInLength="0/1"  />
           <InterpolatingParam id="1807" interp="linr"  time="-9999999/1" value="0" leadInLength="0/1"  />
          </VectorParam>
          <VectorParam id="1808"  name="shear">
           <InterpolatingParam id="1809" interp="linr"  time="-9999999/1" value="0" leadInLength="0/1"  />
           <InterpolatingParam id="1810" interp="linr"  time="-9999999/1" value="0" leadInLength="0/1"  />
           <InterpolatingParam id="1811" interp="linr"  time="-9999999/1" value="0" leadInLength="0/1"  />
          </VectorParam>
          <VectorParam id="1812"  name="scale">
           <InterpolatingParam id="1813" interp="linr"  time="-9999999/1" value="1" leadInLength="0/1"  />
           <InterpolatingParam id="1814" interp="linr"  time="-9999999/1" value="0.53081962704353636" leadInLength="0/1"  />
           <InterpolatingParam id="1815" interp="linr"  time="-9999999/1" value="1" leadInLength="0/1"  />
          </VectorParam>
          <VectorParam id="1816"  name="anchor">
           <InterpolatingParam id="1817" interp="linr"  time="0/1" value="0" leadInLength="0/1"  />
           <InterpolatingParam id="1818" interp="linr"  time="0/1" value="0" leadInLength="0/1"  />
           <InterpolatingParam id="1819" interp="linr"  time="0/1" value="0" leadInLength="0/1"  />
          </VectorParam>
         </Transformer>
         <Parameters>
          <VectorParam id="1820"  name="sourceCrop">
           <InterpolatingParam id="1821" interp="linr"  time="0/1" value="0" leadInLength="0/1"  />
           <InterpolatingParam id="1822" interp="linr"  time="0/1" value="0" leadInLength="0/1"  />
           <InterpolatingParam id="1823" interp="linr"  time="0/1" value="0" leadInLength="0/1"  />
           <InterpolatingParam id="1824" interp="linr"  time="0/1" value="0" leadInLength="0/1"  />
          </VectorParam>
          <VectorParam id="1825"  name="geometryCrop">
           <InterpolatingParam id="1826" interp="linr"  time="-9999999/1" value="0" leadInLength="0/1"  />
           <InterpolatingParam id="1827" interp="linr"  time="-9999999/1" value="0" leadInLength="0/1"  />
           <InterpolatingParam id="1828" interp="linr"  time="-9999999/1" value="0" leadInLength="0/1"  />
           <InterpolatingParam id="1829" interp="linr"  time="-9999999/1" value="0" leadInLength="0/1"  />
          </VectorParam>
          <InterpolatingParam id="1830" interp="linr"  time="-9999999/1" value="1" leadInLength="0/1"  name="opacity"/>
         </Parameters>
         <Attributes>
          <Attribute id="1831"  name="vectorNode">
           <VectorNode id="1832" kind="TypeWinSimple"  >
            <DoubleParameters>
             <InterpolatingParam id="1833" interp="linr"  time="0/1" value="-1" leadInLength="0/1"  name="CutoutPercentage"/>
             <InterpolatingParam id="1834" interp="linr"  time="0/1" value="-1" leadInLength="0/1"  name="RoundedRectRadius"/>
             <InterpolatingParam id="1835" interp="linr"  time="0/1" value="4" leadInLength="0/1"  name="Style"/>
             <InterpolatingParam id="1836" interp="linr"  time="0/1" value="155" leadInLength="0/1"  name="borderColorBlue"/>
             <InterpolatingParam id="1837" interp="linr"  time="0/1" value="133" leadInLength="0/1"  name="borderColorGreen"/>
             <InterpolatingParam id="1838" interp="linr"  time="0/1" value="49" leadInLength="0/1"  name="borderColorRed"/>
             <InterpolatingParam id="1839" interp="linr"  time="0/1" value="0" leadInLength="0/1"  name="borderState"/>
             <InterpolatingParam id="1840" interp="linr"  time="0/1" value="3" leadInLength="0/1"  name="borderWidth"/>
             <InterpolatingParam id="1841" interp="linr"  time="0/1" value="0" leadInLength="0/1"  name="dimensionTime"/>
             <InterpolatingParam id="1842" interp="linr"  time="0/1" value="255" leadInLength="0/1"  name="fillColorBlue"/>
             <InterpolatingParam id="1843" interp="linr"  time="0/1" value="255" leadInLength="0/1"  name="fillColorGreen"/>
             <InterpolatingParam id="1844" interp="linr"  time="0/1" value="255" leadInLength="0/1"  name="fillColorRed"/>
             <InterpolatingParam id="1845" interp="linr"  time="0/1" value="1" leadInLength="0/1"  name="fillState"/>
             <InterpolatingParam id="1846" interp="linr"  time="0/1" value="0" leadInLength="0/1"  name="flipOnXAxis"/>
             <InterpolatingParam id="1847" interp="linr"  time="0/1" value="0" leadInLength="0/1"  name="flipOnYAxis"/>
             <InterpolatingParam id="1848" interp="linr"  time="0/1" value="247.61329305135951" leadInLength="0/1"  name="height"/>
             <InterpolatingParam id="1849" interp="linr"  time="0/1" value="0" leadInLength="0/1"  name="textDropShadow"/>
             <InterpolatingParam id="1850" interp="linr"  time="0/1" value="0" leadInLength="0/1"  name="textIgnoresOpacity"/>
             <InterpolatingParam id="1851" interp="linr"  time="0/1" value="0.875" leadInLength="0/1"  name="textRectHeight"/>
             <InterpolatingParam id="1852" interp="linr"  time="0/1" value="0.90936555891238668" leadInLength="0/1"  name="textRectWidth"/>
             <InterpolatingParam id="1853" interp="linr"  time="0/1" value="0.045317220543806644" leadInLength="0/1"  name="textRectX"/>
             <InterpolatingParam id="1854" interp="linr"  time="0/1" value="0.0625" leadInLength="0/1"  name="textRectY"/>
             <InterpolatingParam id="1855" interp="linr"  time="0/1" value="0" leadInLength="0/1"  name="textVerticalAlign"/>
             <InterpolatingParam id="1856" interp="linr"  time="0/1" value="341.5" leadInLength="0/1"  name="width"/>
            </DoubleParameters>
            <StringParameters>
             <Parameter id="1857"  name="VectorPath">
              <Keyframes>
              <Keyframe id="1858"  time="0/1" value="M0,0h331v240H0V0z" leadInLength="0/1"  />
              </Keyframes>
             </Parameter>
             <Parameter id="1859"  name="filename">
              <Keyframes>
              <Keyframe id="1860"  time="0/1" value="D:\Media\Studio\Callouts\rectanglewithtext.xml" leadInLength="0/1"  />
              </Keyframes>
             </Parameter>
             <Parameter id="1861"  name="name">
              <Keyframes>
              <Keyframe id="1862"  time="0/1" value="Simple Rectangle" leadInLength="0/1"  />
              </Keyframes>
             </Parameter>
             <Parameter id="1863"  name="text">
              <Keyframes>
              <Keyframe id="1864"  time="0/1" value="{\rtf1\ansi\ansicpg1252\deff0\deflang1033{\fonttbl{\f0\fswiss\fprq2\fcharset0 Arial;}}&#xD;&#xa;{\colortbl ;\red0\green0\blue0;\red255\green255\blue255;}&#xD;&#xa;\viewkind4\uc1\pard\qc\cf1\f0\fs32  I have fast forwarded !!\cf2\par&#xD;&#xa;}&#xD;&#xa;" leadInLength="0/1"  />
              </Keyframes>
             </Parameter>
             <Parameter id="1865"  name="xmlContent">
              <Keyframes>
              <Keyframe id="1866"  time="0/1" value="﻿&lt;?xml version=&quot;1.0&quot;?&gt;&#xa;&#xa;&lt;Overlay version=&quot;1.0.1&quot;&gt;&#xa;&#xa;&lt;Overlay_Filename&gt;rectanglewithtext.png&lt;/Overlay_Filename&gt;&#xa;&lt;Overlay_Name&gt;Simple Rectangle&lt;/Overlay_Name&gt;&#xa;&lt;Text_Top&gt;15&lt;/Text_Top&gt;&#xa;&lt;Text_Left&gt;15&lt;/Text_Left&gt;&#xa;&lt;Text_Bottom&gt;15&lt;/Text_Bottom&gt;&#xa;&lt;Text_Right&gt;15&lt;/Text_Right&gt;&#xa;&lt;Fill_Color&gt;1&lt;/Fill_Color&gt;&#xa;&lt;Border_Color&gt;1&lt;/Border_Color&gt;&#xa;&lt;Initial_Fill_Color&gt;0xff9b8531&lt;/Initial_Fill_Color&gt;&#xa;&lt;Initial_Border_Color&gt;0xff9b8531&lt;/Initial_Border_Color&gt;&#xa;&lt;VectorProps&gt;&#xa;&lt;figure&gt;&#xa;&lt;svg&gt;M0,0h331v240H0V0z&lt;/svg&gt;&#xa;&lt;/figure&gt;&#xa;&lt;seamY&gt;-1&lt;/seamY&gt;&#xa;&lt;shapeWidth&gt;331&lt;/shapeWidth&gt;&#xa;&lt;shapeHeight&gt;240&lt;/shapeHeight&gt;&#xa;&lt;/VectorProps&gt;&#xa;&lt;Style&gt;4&lt;/Style&gt;&#xa;&lt;UseDefaultSpec&gt;1&lt;/UseDefaultSpec&gt;   &#xa;&lt;/Overlay&gt;" leadInLength="0/1"  />
              </Keyframes>
             </Parameter>
            </StringParameters>
           </VectorNode>
          </Attribute>
         </Attributes>
         <MetaData>
          <entry key="WinSubProjectDisplayName" val=""/>
         </MetaData>
         <LeftEdgeMods length="30/1" groupName="OpacityFade">
          <EdgeMod parameter="1830">
           <FadeInFunc id="1698"  />
          </EdgeMod>
         </LeftEdgeMods>
         <RightEdgeMods length="30/1" groupName="OpacityFade">
          <EdgeMod parameter="1830">
           <FadeOutFunc id="1867"  />
          </EdgeMod>
         </RightEdgeMods>
         <ExtraData>
          <Entry key="ZoomPanBin">
           <ZoomPanBin id="1868"  >
            <ZoomPanKeyframes>
             <ZoomPanKeyframe id="1869" timeRangeEnd="-9999999/1" timeRangeDuration="0/1" interpolaterName="linr"  />
            </ZoomPanKeyframes>
           </ZoomPanBin>
          </Entry>
         </ExtraData>
        </Callout>
       </Medias>
      </GenericTrack>
      <GenericTrack id="1870"  >
       <Attributes>
        <Attribute id="1871" value="" name="ident"/>
        <Attribute id="1872" value="0" name="audioMuted"/>
        <Attribute id="1873" value="0" name="videoHidden"/>
       </Attributes>
       <MetaData>
        <entry key="IsLocked" val="False"/>
        <entry key="WinTrackHeight" val="62"/>
       </MetaData>
       <Medias>
       </Medias>
      </GenericTrack>
     </Tracks>
    </GenericMixer>
   <CaptionAttributes id="1874"  >
    <Attribute id="1875" value="1" name="captionsEnabled"/>
    <Attribute id="1876" value="Arial" name="captionsFontName"/>
    <Attribute id="1877" value="28" name="captionsFontSize"/>
    <Attribute id="1878" value="(0,0,0,255)" name="captionsBackgroundColor"/>
    <Attribute id="1879" value="(255,255,255,255)" name="captionsForegroundColor"/>
    <Attribute id="1880" value="en" name="lang"/>
    <Attribute id="1881" value="0" name="captionsAlignment"/>
    <Attribute id="1882" value="1" name="captionsDefaultFontSize"/>
    <Attribute id="1883" value="0.5" name="captionsOpacity"/>
    <Attribute id="1884" value="1" name="captionsBackgroundEnabled"/>
    <Attribute id="1885" value="1" name="captionsBackgroundOnlyAroundText"/>
   </CaptionAttributes>
   <Parameters>
    <VectorParam id="1886"  name="eyePosition">
     <InterpolatingParam id="1887" interp="linr"  time="0/1" value="0" leadInLength="0/1"  />
     <InterpolatingParam id="1888" interp="linr"  time="0/1" value="0" leadInLength="0/1"  />
     <InterpolatingParam id="1889" interp="linr"  time="0/1" value="3000" leadInLength="0/1"  />
    </VectorParam>
    <VectorParam id="1890"  name="eyeLookAtPosition">
     <InterpolatingParam id="1891" interp="linr"  time="0/1" value="0" leadInLength="0/1"  />
     <InterpolatingParam id="1892" interp="linr"  time="0/1" value="0" leadInLength="0/1"  />
     <InterpolatingParam id="1893" interp="linr"  time="0/1" value="0" leadInLength="0/1"  />
    </VectorParam>
    <VectorParam id="1894"  name="eyeUpVector">
     <InterpolatingParam id="1895" interp="linr"  time="0/1" value="0" leadInLength="0/1"  />
     <InterpolatingParam id="1896" interp="linr"  time="0/1" value="1" leadInLength="0/1"  />
     <InterpolatingParam id="1897" interp="linr"  time="0/1" value="0" leadInLength="0/1"  />
    </VectorParam>
    <InterpolatingParam id="1898" interp="linr"  time="0/1" value="0.23885785" leadInLength="0/1"  name="fov"/>
    <InterpolatingParam id="1899" interp="linr"  time="0/1" value="1.5" leadInLength="0/1"  name="nearClipDistance"/>
    <InterpolatingParam id="1900" interp="linr"  time="0/1" value="6000" leadInLength="0/1"  name="farClipDistance"/>
   </Parameters>
  </Timeline>
 </Project>
</GoProject>
</CSMLData>

</Project_Data>
