<?xml version="1.0"?>
<Project_Data Version="8.00">
<Project_Settings>
<ProfileName></ProfileName>
<ProjectWidth>1294</ProjectWidth>
<ProjectHeight>720</ProjectHeight>
<IsCustomProject>1</IsCustomProject>
<SavedProjectSettings>1</SavedProjectSettings>
<LastFlashTemplate>-1</LastFlashTemplate>
</Project_Settings>


<AutoSaveFile>C:\Users\Junaid\AppData\Local\TechSmith\Camtasia Studio\8.0\Auto-Saves\P2 security motion email light circuit diagram22a27b2d.autosave.camproj</AutoSaveFile>

<ProjectID>3622FD65-E52A-4E22-82C7-F1FF22482D67</ProjectID>

<PowerPointProject>0</PowerPointProject>

<PowerPointFilename></PowerPointFilename>


<Project_Notes>
</Project_Notes>

<Project_MetaData>
<Project_MetaData_Object>
<FieldArrayKey>8</FieldArrayKey>
<Value>P2 security motion email light circuit diagram</Value>
</Project_MetaData_Object>
<Project_MetaData_Object>
<FieldArrayKey>13</FieldArrayKey>
<Value>2016-02-04 10:25:56 AM</Value>
</Project_MetaData_Object>
<Project_MetaData_Object>
<FieldArrayKey>16</FieldArrayKey>
<Value>ENU</Value>
</Project_MetaData_Object>
</Project_MetaData>

<CSMLData>
<GoProject id="1" version="3.0" >
 <Project id="2" editRate="30/1" version="3.0" >
  <Author></Author>
  <Comment></Comment>
  <System></System>
  <SourceBin id="3"  >
    <Source id="4" src="C:\Users\Junaid\Desktop\IOT RECO\P2 safety motion light email circuit diagram.trec" lastMod="20160204T045509" rect="(0,0,1920,1068)" >
      <SourceTrack range="(0,7986)" type="0" editRate="30/1" trackRect="(0,0,1920,1068)" sampleRate="0/1" bitDepth="0" numChannels="0" filename="P2 safety motion light email circuit diagram.trec!Strack0.tsc2" metaData="P2 safety motion light email circuit diagram.trec;" />
      <SourceTrack range="(0,11731968)" type="2" editRate="44100/1" trackRect="(0,0,0,0)" sampleRate="44100/1" bitDepth="16" numChannels="2" filename="P2 safety motion light email circuit diagram.trec!Maudio1.mp4" metaData="" />
    </Source>
  </SourceBin>
  <Timeline id="5"  >
   <Attributes>
    <Attribute id="6" value="1294" name="width"/>
    <Attribute id="7" value="720" name="height"/>
    <Attribute id="8" value="(0,0,0,255)" name="backgroundColor"/>
   </Attributes>
    <GenericMixer id="9"  name="Unified Mixer">
     <MetaData>
      <entry key="MixerType" val="TimelineMixer"/>
     </MetaData>
     <Tracks>
      <GenericTrack id="10"  >
       <Attributes>
        <Attribute id="11" value="" name="ident"/>
        <Attribute id="12" value="0" name="audioMuted"/>
        <Attribute id="13" value="0" name="videoHidden"/>
       </Attributes>
       <MetaData>
        <entry key="IsLocked" val="False"/>
        <entry key="WinTrackHeight" val="62"/>
       </MetaData>
       <Medias>
        <StitchedMedia id="14" start="0" duration="6022" scalar="1/1" mediaStart="0/1" mediaDuration="6022/1" minMediaStart="0/1" >
         <Transformer>
          <VectorParam id="15"  name="translation">
           <InterpolatingParam id="16" interp="linr"  time="-9999999/1" value="5.1412148612447103e-011" leadInLength="0/1"  interpolater="leadin-linr"  />
           <InterpolatingParam id="17" interp="linr"  time="-9999999/1" value="-10.756972111487265" leadInLength="0/1"  interpolater="leadin-linr"  />
           <InterpolatingParam id="18" interp="linr"  time="-9999999/1" value="0" leadInLength="0/1"  interpolater="leadin-linr"  />
          </VectorParam>
          <VectorParam id="19"  name="rotation">
           <InterpolatingParam id="20" interp="linr"  time="-9999999/1" value="0" leadInLength="0/1"  interpolater="leadin-linr"  />
           <InterpolatingParam id="21" interp="linr"  time="-9999999/1" value="0" leadInLength="0/1"  interpolater="leadin-linr"  />
           <InterpolatingParam id="22" interp="linr"  time="-9999999/1" value="0" leadInLength="0/1"  interpolater="leadin-linr"  />
          </VectorParam>
          <VectorParam id="23"  name="shear">
           <InterpolatingParam id="24" interp="linr"  time="-9999999/1" value="0" leadInLength="0/1"  interpolater="leadin-linr"  />
           <InterpolatingParam id="25" interp="linr"  time="-9999999/1" value="0" leadInLength="0/1"  interpolater="leadin-linr"  />
           <InterpolatingParam id="26" interp="linr"  time="-9999999/1" value="0" leadInLength="0/1"  interpolater="leadin-linr"  />
          </VectorParam>
          <VectorParam id="27"  name="scale">
           <InterpolatingParam id="28" interp="linr"  time="-9999999/1" value="0.67395833333333333" leadInLength="0/1"  interpolater="leadin-linr"  />
           <InterpolatingParam id="29" interp="linr"  time="-9999999/1" value="0.67395833333333333" leadInLength="0/1"  interpolater="leadin-linr"  />
           <InterpolatingParam id="30" interp="linr"  time="-9999999/1" value="1" leadInLength="0/1"  interpolater="leadin-linr"  />
          </VectorParam>
          <VectorParam id="31"  name="anchor">
           <InterpolatingParam id="32" interp="linr"  time="0/1" value="0" leadInLength="0/1"  />
           <InterpolatingParam id="33" interp="linr"  time="0/1" value="0" leadInLength="0/1"  />
           <InterpolatingParam id="34" interp="linr"  time="0/1" value="0" leadInLength="0/1"  />
          </VectorParam>
         </Transformer>
         <Parameters>
          <VectorParam id="35"  name="sourceCrop">
           <InterpolatingParam id="36" interp="linr"  time="0/1" value="0" leadInLength="0/1"  />
           <InterpolatingParam id="37" interp="linr"  time="0/1" value="0" leadInLength="0/1"  />
           <InterpolatingParam id="38" interp="linr"  time="0/1" value="0" leadInLength="0/1"  />
           <InterpolatingParam id="39" interp="linr"  time="0/1" value="0" leadInLength="0/1"  />
          </VectorParam>
          <VectorParam id="40"  name="geometryCrop">
           <InterpolatingParam id="41" interp="linr"  time="-9999999/1" value="0" leadInLength="0/1"  interpolater="leadin-linr"  />
           <InterpolatingParam id="42" interp="linr"  time="-9999999/1" value="0" leadInLength="0/1"  interpolater="leadin-linr"  />
           <InterpolatingParam id="43" interp="linr"  time="-9999999/1" value="0" leadInLength="0/1"  interpolater="leadin-linr"  />
           <InterpolatingParam id="44" interp="linr"  time="-9999999/1" value="31.921771953729206" leadInLength="0/1"  interpolater="leadin-linr"  />
          </VectorParam>
          <InterpolatingParam id="45" interp="linr"  time="-9999999/1" value="1" leadInLength="0/1"  interpolater="leadin-linr"  name="opacity"/>
          <InterpolatingParam id="46" interp="linr"  time="0/1" value="1" leadInLength="0/1"  name="cursorOpacity"/>
          <InterpolatingParam id="47" interp="linr"  time="0/1" value="1" leadInLength="0/1"  name="cursorScale"/>
          <InterpolatingParam id="48" interp="linr"  time="0/1" value="1" leadInLength="0/1"  name="volume"/>
          <Parameter id="49"  name="captions"/>
         </Parameters>
         <Effects>
          <GenericEffect id="50" name = "CursorBaseEffectName" >
           <Parameters>
           <InterpolatingParam id="51" interp="linr"  time="-9999999/1" value="1" leadInLength="0/1"   name="cursorSize"/>
           <InterpolatingParam id="52" interp="linr"  time="-9999999/1" value="0" leadInLength="0/1"   name="highlightBlurRadius"/>
           <InterpolatingParam id="53" interp="linr"  time="-9999999/1" value="0" leadInLength="0/1"   name="highlightColorBlue"/>
           <InterpolatingParam id="54" interp="linr"  time="-9999999/1" value="255" leadInLength="0/1"   name="highlightColorGreen"/>
           <InterpolatingParam id="55" interp="linr"  time="-9999999/1" value="255" leadInLength="0/1"   name="highlightColorRed"/>
           <InterpolatingParam id="56" interp="linr"  time="-9999999/1" value="5" leadInLength="0/1"   name="highlightFeatherSize"/>
           <InterpolatingParam id="57" interp="linr"  time="-9999999/1" value="2" leadInLength="0/1"   name="highlightMagnification"/>
           <InterpolatingParam id="58" interp="linr"  time="-9999999/1" value="1" leadInLength="0/1"   name="highlightOpacity"/>
           <InterpolatingParam id="59" interp="linr"  time="-9999999/1" value="45" leadInLength="0/1"   name="highlightSize"/>
           <Parameter id="60"   name="highlightType">
            <Keyframes>
            <Keyframe id="61"  time="-9999999/1" value="0" leadInLength="0/1"  />
            </Keyframes>
           </Parameter>
           <InterpolatingParam id="62" interp="linr"  time="-9999999/1" value="0" leadInLength="0/1"   name="leftClickColorBlue"/>
           <InterpolatingParam id="63" interp="linr"  time="-9999999/1" value="0" leadInLength="0/1"   name="leftClickColorGreen"/>
           <InterpolatingParam id="64" interp="linr"  time="-9999999/1" value="255" leadInLength="0/1"   name="leftClickColorRed"/>
           <InterpolatingParam id="65" interp="linr"  time="-9999999/1" value="0.80000000000000004" leadInLength="0/1"   name="leftClickDuration"/>
           <InterpolatingParam id="66" interp="linr"  time="-9999999/1" value="20" leadInLength="0/1"   name="leftClickSize"/>
           <Parameter id="67"   name="leftClickSoundFilename">
            <Keyframes>
            <Keyframe id="68"  time="-9999999/1" value="" leadInLength="0/1"  />
            </Keyframes>
           </Parameter>
           <InterpolatingParam id="69" interp="linr"  time="-9999999/1" value="1" leadInLength="0/1"   name="leftClickSoundVolume"/>
           <Parameter id="70"   name="leftClickType">
            <Keyframes>
            <Keyframe id="71"  time="-9999999/1" value="0" leadInLength="0/1"  />
            </Keyframes>
           </Parameter>
           <InterpolatingParam id="72" interp="linr"  time="-9999999/1" value="1" leadInLength="0/1"   name="opacity"/>
           <InterpolatingParam id="73" interp="linr"  time="-9999999/1" value="255" leadInLength="0/1"   name="rightClickColorBlue"/>
           <InterpolatingParam id="74" interp="linr"  time="-9999999/1" value="0" leadInLength="0/1"   name="rightClickColorGreen"/>
           <InterpolatingParam id="75" interp="linr"  time="-9999999/1" value="0" leadInLength="0/1"   name="rightClickColorRed"/>
           <InterpolatingParam id="76" interp="linr"  time="-9999999/1" value="0.80000000000000004" leadInLength="0/1"   name="rightClickDuration"/>
           <InterpolatingParam id="77" interp="linr"  time="-9999999/1" value="20" leadInLength="0/1"   name="rightClickSize"/>
           <Parameter id="78"   name="rightClickSoundFilename">
            <Keyframes>
            <Keyframe id="79"  time="-9999999/1" value="" leadInLength="0/1"  />
            </Keyframes>
           </Parameter>
           <InterpolatingParam id="80" interp="linr"  time="-9999999/1" value="1" leadInLength="0/1"   name="rightClickSoundVolume"/>
           <Parameter id="81"   name="rightClickType">
            <Keyframes>
            <Keyframe id="82"  time="-9999999/1" value="0" leadInLength="0/1"  />
            </Keyframes>
           </Parameter>
           </Parameters>
           <MetaData>
            <entry key="effectIndex" val="0"/>
           </MetaData>
          </GenericEffect>
          <GenericEffect id="83" name = "NoiseReduction" >
           <Parameters>
           <InterpolatingParam id="84" interp="linr"  time="0/1" value="27.599999999999998" leadInLength="0/1"   name="denoiserAmount"/>
           <InterpolatingParam id="85" interp="linr"  time="0/1" value="2.2799999999999994" leadInLength="0/1"   name="denoiserThreshold"/>
           <Parameter id="86"   name="noiseProfile">
            <Keyframes>
            <Keyframe id="87"  time="0/1" value="FBAAAAIAAABErAAAAQIAAMOUVcKYjEPCpIlAwnx2ScIPX1fCLj5awtEQYcK/uGnC4sZzwpAob8L+&#xD;&#xa;wmfCij1vwlQzfcJPY4DCtC+CwsZdfMIP5XbCvGmCwu5chsL7coLCmUN6wnCmfcI50IPCosCGwjpV&#xD;&#xa;icLiuYnCNBmIwqbZiMJscY3C37yPwkvzjMJUeovCX/yLwkFBjsLayY3CpCqIwnOwgMLd44PCFaWN&#xD;&#xa;worjksKQRpXCKCKWwnfBlcJHWpTC4iOXwg3elcLiCJXCWL+WwnsCmsJyQJzC4iWdwhTqnMI2IZvC&#xD;&#xa;saaYwj1mmsJZwpvC816ZwhVSlsL7BJfCtOKZwsT2m8IUZZzCzC2awmVomcLgzJnCPtmcwn6lnMKK&#xD;&#xa;TJ7CYKqdwlsZmMJKi5TC2OuWwnCrmMI9c5rCQIqawh8BmsJlkpvC+O+dwu2HnsKrlKDCDZyhwsfF&#xD;&#xa;n8Ku457CjuSfwlCHoMJYX5/CuEyfwntmoMLifaLCTHCjwsztocK6fp/CtBafwoWFn8JC8aPCKPGl&#xD;&#xa;wsaWo8K+9KTCLhimwpwEp8IIrajCfbipwi9GqcLGfqjCAwmpwom3qMK5rqjCZdSpwjetqcKKxarC&#xD;&#xa;0syrwin+qsKg4qnCroOrwpf1rMLAC63CWLitwoAzrMI8farCqgSqws2rqMJ1panCvluqwtsIrMKb&#xD;&#xa;mazCKU2uwjdOsMItz67CciqswmzgqcK856rCbCquwkl9rcKQZq7CfOmrwoxFrMIdlK7CYsixwiix&#xD;&#xa;rcJNoKvCd86swuFMrcIm1LDCzk6ywmzYr8La4a/CZuevwnv4r8Lk/a7CJpCtwhxSrsIFYLHCaSS0&#xD;&#xa;wt5jssLecLPCJsKxwvKnsMJ7YLHCKFOzwpiusML/dLDCe6aywjOcscI/E7HCYSixwo7AssIc5bHC&#xD;&#xa;3ViuwpUPr8L1N7DCnzSxwhZGscLMPrPCyPawwqMyscLUBLDC+OWvwongscLaxLLCIja0wmnYtMLy&#xD;&#xa;pbXClvO0wi4xtcJriLTCEl61wgpFtsKmVrfC01+2wv4ktMKXvrLCEd20wsvAtcLeY7bCphq4wrih&#xD;&#xa;uMLjSLrCSlu6whfLuMKKebjCzu+3wlLXuMKO17fCYta3wlGvuML6kLzChdm7wkS5ucLWdbnCCD25&#xD;&#xa;wn9eucIenbrCiY69wrDcv8KOCr7CEF29wnWuvMJeDr7CYH++wppxvMLccr3CMse8woiDvcIj1r3C&#xD;&#xa;xJa9wh5TvMKi3rvCX5m8wtQ6vsJu4L/C6BO/wsJKvsLKorrCJ1e9wuFTwcI3yb/CEdy9wsjBv8Kx&#xD;&#xa;GsHCqkTBwik1wcIkDMLC0orAwsabwMLgRMLCBPjBwoH0wMKcK8LC9TTDwnxywsK8x8PCGfrDwnxJ&#xD;&#xa;wsLqVsLCFibCwkr5vsIATL7CEHTCwnmLw8IFpsHCf6/Bwj5+wsIq2sPCNjTCwsTdwcLsYMLCBN3B&#xD;&#xa;wtKLwsIqr8LCsYbDwrzHwsKac8LCYJrCwpAbwMLqSL/C+DDCwkACwcLL/cDCnrS9wgDsvMIVrsLC&#xD;&#xa;EjrDwpoExMLvRsLCPr/BwoC9w8LeWsPCxlrAws78wcLQrcTCveTBwhjrwcILRsLCfD/DwlCbw8Jh&#xD;&#xa;esLCqKbDwtgmxMKwXcTCcKXCwliZw8JyrL/CiMW9wuoYwsIO58DCGyPDwny/w8KegsLCtNDCwtzY&#xD;&#xa;w8K6a8PCxLy/wnCJwcKiscPCFqfCwvixxMKutMbCos/Ewv4/wsJJyMHCz6LEwu3HxsJkpsTC+p3C&#xD;&#xa;wnfvwsLGUMHCYBjEwrCuxsKmvMbCVt/EwuqQw8LB28PCONTFwrjdxMLShMPCUR/FwvWFxsKNV8TC&#xD;&#xa;6Y3Ewsp8xcJMGMTCEPjDwsApxcLz8cXCJSDIwq+ex8K7asXCUOjEwlwFw8IUbcTCgOjEwqY2xcK2&#xD;&#xa;zsnCdQbbwmkW9sJKz/XCoIj2wnQW98LqtffCbmX3wpa+9sLouvjC5Gz5wtJw+MI4lvbCWGf2wqD4&#xD;&#xa;98Jpw/fCppj2woZg9sK8qPjC/hD5wtiy+MKSL/jC7Sz2wsSS9cKt/vXCOhL4wlxW9sIsgPbCgg72&#xD;&#xa;wjNb98I85/fCPWH2whIH+cKO7fjCytH2wvgq98IAA/nCfhj3wlUx98JW6fjCD/H3wt4v+cJw1fnC&#xD;&#xa;zOn4wkKI98K4v/XCzv73wnyW+MKNhfbCQnX2wi5/+MLsUPjC+g/4wjz19sIslffCONb5wqSf+cJS&#xD;&#xa;f/nCUm74wj+d98LQbPjCcoX5wk55+cKOrPbCflL3wluE9sKe+fXCdm74woIF+cKs8/bCQnn5wvzE&#xD;&#xa;9sITrfXCeof3wvxw98LoT/bC1aD2wjy8+MKIhPjC5Cf5wmxe+cKccfrCUlD5wrqr+cLCbPjCR2r3&#xD;&#xa;wndn98JDP/fChh/3wshz98JuWPfC/672wjhY9sLiNfjCXp/5wvAN+cL41PnChA/5wq7F9cLMaPXC&#xD;&#xa;kLT3woxh98JSE/fCOMD3wsry+MJWk/nCFtD4wig698J84vbCG3/3wiyb+sKwYfrCRo74wuq6+MJk&#xD;&#xa;qvjCqJH3wiZN98J62vbCslL5wqKm+cLuJfjCmEr5wmz2+MLopvfCHvr2wpIg+sIyTvrCIM/4wvAq&#xD;&#xa;+cJkXvjCDOv2wkQ998JCiPfCi9b2wn+H9sIUt/jCwOz3wmJs98JouvfC0LD2wmbD9MJTWfbCwoD3&#xD;&#xa;wlvk98LlNffCwB/1wk+h9sJ2rvfCUnT2wh4w9cI4hfXCPJv2wt5D+cIAF/jCo0v3wv73+cJyd/rC&#xD;&#xa;KLX4wuKt+cIYfPnCf80Dw2ygVcIcjUPCyIlAwo52ScLeXlfC3T1awu4QYcIOuWnC5Mdzwr8pb8KJ&#xD;&#xa;w2fCLD5vwsQzfcKdY4DCSjCCwv9efMLj5XbCL2mCwtVahsIFcYLCw0N6whmofcKB0IPCkL+GwktW&#xD;&#xa;icJruonC7BmIwo/ZiMJwbo3CK7uPwjDyjMITeYvC0/qLwg9CjsIqyY3C+CmIwgGwgMKf44PCU6SN&#xD;&#xa;wtrhksJBSJXCTCSWwpnBlcJ3VpTCPB+XwszelcKsC5XCB8GWwtoEmsILQpzCUiKdwlPpnMKbH5vC&#xD;&#xa;/aeYwjVomsLow5vCJ2CZwhdOlsKiAJfCeOCZwuLwm8LFZpzC6zCawgpmmcKeypnCRtecwpWinMIi&#xD;&#xa;SZ7CYKadwjoWmMLYi5TCLuuWwryqmMKzc5rCBIuawvf7mcKAjZvCge6dwgOFnsI+j6DCsaChwt3C&#xD;&#xa;n8KN557CTOufwnCEoMK8Xp/C1kyfwrBioMLLgaLCE3OjwtbuocIEf5/C/hWfwlSFn8KS76PCzPGl&#xD;&#xa;whyZo8LY7KTCkxGmwoMTp8Jeq6jCScapwmo7qcJvXKjC/eOowjytqMIyr6jCtuGpwlPAqcJJwarC&#xD;&#xa;oMCrwmQCq8Kkz6nCamerwmjirMJU8qzCNJmtwn82rMKxkarC+h+qwqTXqMKW16nCzV2qwrQUrMJz&#xD;&#xa;vqzC7WauwutqsMJv667Cnz6swlf7qcJfCKvCezKuwqqbrcJec67CSdWrwjEtrMLzl67CYa+xwnjI&#xD;&#xa;rcIIs6vCcbeswrpUrcK/2rDC1mGywnbAr8Jq3a/CAOavwuIVsMIBEa/Cfratwm6JrsL/jLHCwFy0&#xD;&#xa;wi7WssK1BrTCtVmywhr1sMItq7HCbMmzwtXcsMKKm7DCi72ywtTkscIpRbHCeUCxwkq7ssJPwbHC&#xD;&#xa;43GuwoFRr8LpfrDC0EWxwpcrscIEJLPCnhGxwlFlscJCPLDCtw+wwhLSscIU2LLCB2K0wpDKtMJx&#xD;&#xa;grXCR9S0wpWmtcJUELXCWeK1wn1NtsJSbbfCXn22wtM8tMKDybLCbju1wuEMtsIerrbCHi24wgk4&#xD;&#xa;uMIyV7rCUpe6wmaJuMJkgrjCIiK4wkSjuMI4eLfCNOW3wsi7uMJDO7zCJ5m7wmKcucIkMrnCIOG4&#xD;&#xa;wgdrucLIxLrCdmq+wuL4wMIUy77C1OW9wh37vMJka77Cmh6/wvEdvcL4k73CetG8wjaivcJev77C&#xD;&#xa;Hgu+wlqQvMJfy7vCwGW8wvR5vsK+Z8DCBje/wr0lvsLQprrCzpS9wiH2wcKSRsDCaja+whKxwMKU&#xD;&#xa;QMLC1/3BwnIJwcIM8cHC4X/AwqR8wMKIOsLCsAfCwqzUwMJd5MHCyiXDwliAwsJY6MPCmvHDwjYW&#xD;&#xa;wsKIG8LCDvPBwpS2vsK+HL7CnkPCwlZ4w8JyrsHCdqXBwqyWwsJi+8PCsj7CwiTnwcKnc8LCctjB&#xD;&#xa;wtqiwsJqu8LClm/DwofewsK4jsLC6pvCwowpwMLeR7/CbBzCwowewcKA78DCbou9wibMvMJDfMLC&#xD;&#xa;4UzDwvwZxMI1J8LC0rLBwpXSw8KqbcPCNYPAwrP9wcJGdcTCEdLBwq78wcI8RMLC8inDwvKMw8I3&#xD;&#xa;fcLCQMLDwrxRxMJAmMTCaarCwouRw8Lxm7/C35q9wl/2wcJwxcDCAhHDwozUw8L+jMLCarDCwt7h&#xD;&#xa;w8L5gMPCBrm/woqZwcKEqMPCSoDCwuqtxMKUn8bC0tjEwhtYwsKc5MHCcqnEwk6LxsJMvMTC2LLC&#xD;&#xa;wrQkw8LqT8HC6djDwphtxsJcusbCvffEwrigw8KVhsPC7mvFwsLJxMKqlcPCNCLFwjSqxsIzmsTC&#xD;&#xa;vrvEwrCmxcL4FsTCquzDwup2xcLUDcbCDinIwp+mx8KuZMXCGujEwkjEwsJAGcTCpLbEwt4nxcLc&#xD;&#xa;psnCoa7awpDQ9MLSwPbCHgb6wvhr+cIWRffCc0P3wnOf9cK1zPfCcOf4wpyo+cKCAPnCi0P4wo70&#xD;&#xa;+MJwk/nCYpb4wpBH9sKWV/bCPpz3wpoD98IEK/bCHDL4wtyZ+cLuo/nCsMr4whFo98JLqPfCKPX5&#xD;&#xa;ws5R+sLWqvjC7ln3wjOB98KIxvbCIlr2wqfV9sJO1vbC/AT3wrzi98JURffCeG/0wtze9sLmBPvC&#xD;&#xa;yvf5wv1o+MKUGvjC1N73wlK49sJl7fbCuOf1ws6a98Ic7fjCiF75wj6S+cK2PvjC26T2wlK79sKE&#xD;&#xa;VfnCwuv5wkBP+cLo2vfC4HP2wnWl98JSZ/fCzAf4whxZ+MJ+MvnCwGj6wv6L+cLAx/jCWjf4wowe&#xD;&#xa;+cIXEvjCDt/2wgGX9cJs7PfCJiv6wvaL+sKQXvnC/lb3wh7H9sJI1/nCStL5wogt+sLkbPrCfJP5&#xD;&#xa;wqi9+sJwdPjC/tD3whBq+cJ+TvnCnEX4wlho9cJG8vXCEAr4whC3+MLWB/jCdH74wpKx9sKXg/TC&#xD;&#xa;wFz2wkDG98L+s/nC8hP7wty4+sIG4vbCqTj1wsZ998IShfnCWG73wq9e+ML8FPvC4OP3wlh59sJI&#xD;&#xa;C/fC8G72wkXa9cIEXPfCkKr4wkwN98LSIffCtpT5wiy/98Kpq/fC4Df4wixn+cJedfjC4HL2wuQi&#xD;&#xa;9sKexvXCHAj3wrjw98JIDPfCCuX2wgpJ+cJ0ifvCbr36wqyZ+MK1pPbCyln3whpW98KqtfjCFnr3&#xD;&#xa;wtB/9sLwvfbC+Kb3wuC7+MLNPPfCK4f1wkyB9MJYC/fC+vD4whj198J+nfjC1P75wijL+MKIg/fC&#xD;&#xa;AuL1wsSG9MLoi/XCETEC" leadInLength="0/1"  />
            </Keyframes>
           </Parameter>
           </Parameters>
           <MetaData>
            <entry key="effectIndex" val="1"/>
           </MetaData>
          </GenericEffect>
         </Effects>
         <Attributes>
          <Attribute id="88" value="" name="ident"/>
          <Attribute id="89" value="0" name="mixToMono"/>
         </Attributes>
         <MetaData>
          <entry key="AutoAppliedSmartFocus" val="False"/>
          <entry key="WinSubProjectDisplayName" val=""/>
         </MetaData>
         <ExtraData>
          <Entry key="ZoomPanBin">
           <ZoomPanBin id="90"  >
            <ZoomPanKeyframes>
             <ZoomPanKeyframe id="91" timeRangeEnd="-9999999/1" timeRangeDuration="0/1" interpolaterName="linr"  />
            </ZoomPanKeyframes>
           </ZoomPanBin>
          </Entry>
          <Entry key="CursorEffectBin">
           <CursorEffectBin id="92"  >
            <CursorEffectKeyframes>
             <CursorEffectKeyframe id="93" timeRangeEnd="-9999999/1" timeRangeDuration="0/1" interpolaterName=""  />
            </CursorEffectKeyframes>
           </CursorEffectBin>
          </Entry>
         </ExtraData>
         <GenericTrack id="94"  >
          <Attributes>
           <Attribute id="95" value="" name="ident"/>
           <Attribute id="96" value="0" name="audioMuted"/>
           <Attribute id="97" value="0" name="videoHidden"/>
          </Attributes>
          <MetaData>
           <entry key="IsLocked" val="False"/>
           <entry key="WinTrackHeight" val="0"/>
          </MetaData>
          <Medias>
           <UnifiedMedia id="98"  >
            <AMFile id="99" start="0" duration="1382" scalar="1/1" mediaStart="0/1" mediaDuration="1382/1" trackNumber="1" src="4" channelNumber="0,1" >
             <Parameters>
              <InterpolatingParam id="100" interp="linr"  time="0/1" value="1" leadInLength="0/1"  name="volume"/>
              <Parameter id="101"  name="captions"/>
             </Parameters>
             <Attributes>
              <Attribute id="102" value="" name="ident"/>
              <Attribute id="103" value="44100" name="sampleRate"/>
              <Attribute id="104" value="16" name="bitDepth"/>
              <Attribute id="105" value="1" name="gain"/>
              <Attribute id="106" value="0" name="mixToMono"/>
             </Attributes>
            </AMFile>
            <ScreenVMFile id="107" start="0" duration="1382" scalar="1/1" mediaStart="0/1" mediaDuration="1382/1" trackNumber="0" src="4" >
             <Transformer>
              <VectorParam id="108"  name="translation">
               <InterpolatingParam id="109" interp="linr"  time="-9999999/1" value="0" leadInLength="0/1"  />
               <InterpolatingParam id="110" interp="linr"  time="-9999999/1" value="0" leadInLength="0/1"  />
               <InterpolatingParam id="111" interp="linr"  time="-9999999/1" value="0" leadInLength="0/1"  />
              </VectorParam>
              <VectorParam id="112"  name="rotation">
               <InterpolatingParam id="113" interp="linr"  time="-9999999/1" value="0" leadInLength="0/1"  />
               <InterpolatingParam id="114" interp="linr"  time="-9999999/1" value="0" leadInLength="0/1"  />
               <InterpolatingParam id="115" interp="linr"  time="-9999999/1" value="0" leadInLength="0/1"  />
              </VectorParam>
              <VectorParam id="116"  name="shear">
               <InterpolatingParam id="117" interp="linr"  time="-9999999/1" value="0" leadInLength="0/1"  />
               <InterpolatingParam id="118" interp="linr"  time="-9999999/1" value="0" leadInLength="0/1"  />
               <InterpolatingParam id="119" interp="linr"  time="-9999999/1" value="0" leadInLength="0/1"  />
              </VectorParam>
              <VectorParam id="120"  name="scale">
               <InterpolatingParam id="121" interp="linr"  time="-9999999/1" value="1" leadInLength="0/1"  />
               <InterpolatingParam id="122" interp="linr"  time="-9999999/1" value="1" leadInLength="0/1"  />
               <InterpolatingParam id="123" interp="linr"  time="-9999999/1" value="1" leadInLength="0/1"  />
              </VectorParam>
              <VectorParam id="124"  name="anchor">
               <InterpolatingParam id="125" interp="linr"  time="0/1" value="0" leadInLength="0/1"  />
               <InterpolatingParam id="126" interp="linr"  time="0/1" value="0" leadInLength="0/1"  />
               <InterpolatingParam id="127" interp="linr"  time="0/1" value="0" leadInLength="0/1"  />
              </VectorParam>
             </Transformer>
             <Parameters>
              <VectorParam id="128"  name="sourceCrop">
               <InterpolatingParam id="129" interp="linr"  time="0/1" value="0" leadInLength="0/1"  />
               <InterpolatingParam id="130" interp="linr"  time="0/1" value="0" leadInLength="0/1"  />
               <InterpolatingParam id="131" interp="linr"  time="0/1" value="0" leadInLength="0/1"  />
               <InterpolatingParam id="132" interp="linr"  time="0/1" value="0" leadInLength="0/1"  />
              </VectorParam>
              <VectorParam id="133"  name="geometryCrop">
               <InterpolatingParam id="134" interp="linr"  time="-9999999/1" value="0" leadInLength="0/1"  />
               <InterpolatingParam id="135" interp="linr"  time="-9999999/1" value="0" leadInLength="0/1"  />
               <InterpolatingParam id="136" interp="linr"  time="-9999999/1" value="0" leadInLength="0/1"  />
               <InterpolatingParam id="137" interp="linr"  time="-9999999/1" value="0" leadInLength="0/1"  />
              </VectorParam>
              <InterpolatingParam id="138" interp="linr"  time="-9999999/1" value="1" leadInLength="0/1"  name="opacity"/>
              <InterpolatingParam id="139" interp="linr"  time="0/1" value="0" leadInLength="0/1"  name="cursorOpacity"/>
              <InterpolatingParam id="140" interp="linr"  time="0/1" value="0" leadInLength="0/1"  name="cursorScale"/>
             </Parameters>
             <Attributes>
              <Attribute id="141" value="" name="ident"/>
             </Attributes>
             <ExtraData>
              <Entry key="ZoomPanBin">
               <ZoomPanBin id="142"  >
                <ZoomPanKeyframes>
                 <ZoomPanKeyframe id="143" timeRangeEnd="-9999999/1" timeRangeDuration="0/1" interpolaterName=""  />
                </ZoomPanKeyframes>
               </ZoomPanBin>
              </Entry>
              <Entry key="CursorEffectBin">
               <CursorEffectBin id="144"  >
                <CursorEffectKeyframes>
                </CursorEffectKeyframes>
               </CursorEffectBin>
              </Entry>
             </ExtraData>
            </ScreenVMFile>
            <MetaData>
             <entry key="AutoAppliedSmartFocus" val="False"/>
             <entry key="WinSubProjectDisplayName" val=""/>
            </MetaData>
           </UnifiedMedia>
           <UnifiedMedia id="145"  >
            <AMFile id="146" start="1382" duration="448" scalar="1/1" mediaStart="1519/1" mediaDuration="448/1" trackNumber="1" src="4" channelNumber="0,1" >
             <Parameters>
              <InterpolatingParam id="147" interp="linr"  time="0/1" value="1" leadInLength="0/1"  name="volume"/>
              <Parameter id="148"  name="captions"/>
             </Parameters>
             <Attributes>
              <Attribute id="149" value="" name="ident"/>
              <Attribute id="150" value="44100" name="sampleRate"/>
              <Attribute id="151" value="16" name="bitDepth"/>
              <Attribute id="152" value="1" name="gain"/>
              <Attribute id="153" value="0" name="mixToMono"/>
             </Attributes>
            </AMFile>
            <ScreenVMFile id="154" start="1382" duration="448" scalar="1/1" mediaStart="1519/1" mediaDuration="448/1" trackNumber="0" src="4" >
             <Transformer>
              <VectorParam id="155"  name="translation">
               <InterpolatingParam id="156" interp="linr"  time="-9999999/1" value="0" leadInLength="0/1"  />
               <InterpolatingParam id="157" interp="linr"  time="-9999999/1" value="0" leadInLength="0/1"  />
               <InterpolatingParam id="158" interp="linr"  time="-9999999/1" value="0" leadInLength="0/1"  />
              </VectorParam>
              <VectorParam id="159"  name="rotation">
               <InterpolatingParam id="160" interp="linr"  time="-9999999/1" value="0" leadInLength="0/1"  />
               <InterpolatingParam id="161" interp="linr"  time="-9999999/1" value="0" leadInLength="0/1"  />
               <InterpolatingParam id="162" interp="linr"  time="-9999999/1" value="0" leadInLength="0/1"  />
              </VectorParam>
              <VectorParam id="163"  name="shear">
               <InterpolatingParam id="164" interp="linr"  time="-9999999/1" value="0" leadInLength="0/1"  />
               <InterpolatingParam id="165" interp="linr"  time="-9999999/1" value="0" leadInLength="0/1"  />
               <InterpolatingParam id="166" interp="linr"  time="-9999999/1" value="0" leadInLength="0/1"  />
              </VectorParam>
              <VectorParam id="167"  name="scale">
               <InterpolatingParam id="168" interp="linr"  time="-9999999/1" value="1" leadInLength="0/1"  />
               <InterpolatingParam id="169" interp="linr"  time="-9999999/1" value="1" leadInLength="0/1"  />
               <InterpolatingParam id="170" interp="linr"  time="-9999999/1" value="1" leadInLength="0/1"  />
              </VectorParam>
              <VectorParam id="171"  name="anchor">
               <InterpolatingParam id="172" interp="linr"  time="0/1" value="0" leadInLength="0/1"  />
               <InterpolatingParam id="173" interp="linr"  time="0/1" value="0" leadInLength="0/1"  />
               <InterpolatingParam id="174" interp="linr"  time="0/1" value="0" leadInLength="0/1"  />
              </VectorParam>
             </Transformer>
             <Parameters>
              <VectorParam id="175"  name="sourceCrop">
               <InterpolatingParam id="176" interp="linr"  time="0/1" value="0" leadInLength="0/1"  />
               <InterpolatingParam id="177" interp="linr"  time="0/1" value="0" leadInLength="0/1"  />
               <InterpolatingParam id="178" interp="linr"  time="0/1" value="0" leadInLength="0/1"  />
               <InterpolatingParam id="179" interp="linr"  time="0/1" value="0" leadInLength="0/1"  />
              </VectorParam>
              <VectorParam id="180"  name="geometryCrop">
               <InterpolatingParam id="181" interp="linr"  time="-9999999/1" value="0" leadInLength="0/1"  />
               <InterpolatingParam id="182" interp="linr"  time="-9999999/1" value="0" leadInLength="0/1"  />
               <InterpolatingParam id="183" interp="linr"  time="-9999999/1" value="0" leadInLength="0/1"  />
               <InterpolatingParam id="184" interp="linr"  time="-9999999/1" value="0" leadInLength="0/1"  />
              </VectorParam>
              <InterpolatingParam id="185" interp="linr"  time="-9999999/1" value="1" leadInLength="0/1"  name="opacity"/>
              <InterpolatingParam id="186" interp="linr"  time="0/1" value="0" leadInLength="0/1"  name="cursorOpacity"/>
              <InterpolatingParam id="187" interp="linr"  time="0/1" value="0" leadInLength="0/1"  name="cursorScale"/>
             </Parameters>
             <Attributes>
              <Attribute id="188" value="" name="ident"/>
             </Attributes>
             <ExtraData>
              <Entry key="ZoomPanBin">
               <ZoomPanBin id="189"  >
                <ZoomPanKeyframes>
                 <ZoomPanKeyframe id="190" timeRangeEnd="-9999999/1" timeRangeDuration="0/1" interpolaterName=""  />
                </ZoomPanKeyframes>
               </ZoomPanBin>
              </Entry>
              <Entry key="CursorEffectBin">
               <CursorEffectBin id="191"  >
                <CursorEffectKeyframes>
                </CursorEffectKeyframes>
               </CursorEffectBin>
              </Entry>
             </ExtraData>
            </ScreenVMFile>
            <MetaData>
             <entry key="AutoAppliedSmartFocus" val="False"/>
             <entry key="WinSubProjectDisplayName" val=""/>
            </MetaData>
           </UnifiedMedia>
           <UnifiedMedia id="192"  >
            <AMFile id="193" start="1830" duration="780" scalar="1/1" mediaStart="2497/1" mediaDuration="780/1" trackNumber="1" src="4" channelNumber="0,1" >
             <Parameters>
              <InterpolatingParam id="194" interp="linr"  time="0/1" value="1" leadInLength="0/1"  name="volume"/>
              <Parameter id="195"  name="captions"/>
             </Parameters>
             <Attributes>
              <Attribute id="196" value="" name="ident"/>
              <Attribute id="197" value="44100" name="sampleRate"/>
              <Attribute id="198" value="16" name="bitDepth"/>
              <Attribute id="199" value="1" name="gain"/>
              <Attribute id="200" value="0" name="mixToMono"/>
             </Attributes>
            </AMFile>
            <ScreenVMFile id="201" start="1830" duration="780" scalar="1/1" mediaStart="2497/1" mediaDuration="780/1" trackNumber="0" src="4" >
             <Transformer>
              <VectorParam id="202"  name="translation">
               <InterpolatingParam id="203" interp="linr"  time="-9999999/1" value="0" leadInLength="0/1"  />
               <InterpolatingParam id="204" interp="linr"  time="-9999999/1" value="0" leadInLength="0/1"  />
               <InterpolatingParam id="205" interp="linr"  time="-9999999/1" value="0" leadInLength="0/1"  />
              </VectorParam>
              <VectorParam id="206"  name="rotation">
               <InterpolatingParam id="207" interp="linr"  time="-9999999/1" value="0" leadInLength="0/1"  />
               <InterpolatingParam id="208" interp="linr"  time="-9999999/1" value="0" leadInLength="0/1"  />
               <InterpolatingParam id="209" interp="linr"  time="-9999999/1" value="0" leadInLength="0/1"  />
              </VectorParam>
              <VectorParam id="210"  name="shear">
               <InterpolatingParam id="211" interp="linr"  time="-9999999/1" value="0" leadInLength="0/1"  />
               <InterpolatingParam id="212" interp="linr"  time="-9999999/1" value="0" leadInLength="0/1"  />
               <InterpolatingParam id="213" interp="linr"  time="-9999999/1" value="0" leadInLength="0/1"  />
              </VectorParam>
              <VectorParam id="214"  name="scale">
               <InterpolatingParam id="215" interp="linr"  time="-9999999/1" value="1" leadInLength="0/1"  />
               <InterpolatingParam id="216" interp="linr"  time="-9999999/1" value="1" leadInLength="0/1"  />
               <InterpolatingParam id="217" interp="linr"  time="-9999999/1" value="1" leadInLength="0/1"  />
              </VectorParam>
              <VectorParam id="218"  name="anchor">
               <InterpolatingParam id="219" interp="linr"  time="0/1" value="0" leadInLength="0/1"  />
               <InterpolatingParam id="220" interp="linr"  time="0/1" value="0" leadInLength="0/1"  />
               <InterpolatingParam id="221" interp="linr"  time="0/1" value="0" leadInLength="0/1"  />
              </VectorParam>
             </Transformer>
             <Parameters>
              <VectorParam id="222"  name="sourceCrop">
               <InterpolatingParam id="223" interp="linr"  time="0/1" value="0" leadInLength="0/1"  />
               <InterpolatingParam id="224" interp="linr"  time="0/1" value="0" leadInLength="0/1"  />
               <InterpolatingParam id="225" interp="linr"  time="0/1" value="0" leadInLength="0/1"  />
               <InterpolatingParam id="226" interp="linr"  time="0/1" value="0" leadInLength="0/1"  />
              </VectorParam>
              <VectorParam id="227"  name="geometryCrop">
               <InterpolatingParam id="228" interp="linr"  time="-9999999/1" value="0" leadInLength="0/1"  />
               <InterpolatingParam id="229" interp="linr"  time="-9999999/1" value="0" leadInLength="0/1"  />
               <InterpolatingParam id="230" interp="linr"  time="-9999999/1" value="0" leadInLength="0/1"  />
               <InterpolatingParam id="231" interp="linr"  time="-9999999/1" value="0" leadInLength="0/1"  />
              </VectorParam>
              <InterpolatingParam id="232" interp="linr"  time="-9999999/1" value="1" leadInLength="0/1"  name="opacity"/>
              <InterpolatingParam id="233" interp="linr"  time="0/1" value="0" leadInLength="0/1"  name="cursorOpacity"/>
              <InterpolatingParam id="234" interp="linr"  time="0/1" value="0" leadInLength="0/1"  name="cursorScale"/>
             </Parameters>
             <Attributes>
              <Attribute id="235" value="" name="ident"/>
             </Attributes>
             <ExtraData>
              <Entry key="ZoomPanBin">
               <ZoomPanBin id="236"  >
                <ZoomPanKeyframes>
                 <ZoomPanKeyframe id="237" timeRangeEnd="-9999999/1" timeRangeDuration="0/1" interpolaterName=""  />
                </ZoomPanKeyframes>
               </ZoomPanBin>
              </Entry>
              <Entry key="CursorEffectBin">
               <CursorEffectBin id="238"  >
                <CursorEffectKeyframes>
                </CursorEffectKeyframes>
               </CursorEffectBin>
              </Entry>
             </ExtraData>
            </ScreenVMFile>
            <MetaData>
             <entry key="AutoAppliedSmartFocus" val="False"/>
             <entry key="WinSubProjectDisplayName" val=""/>
            </MetaData>
           </UnifiedMedia>
           <UnifiedMedia id="239"  >
            <AMFile id="240" start="2610" duration="2" scalar="1/1" mediaStart="3352/1" mediaDuration="2/1" trackNumber="1" src="4" channelNumber="0,1" >
             <Parameters>
              <InterpolatingParam id="241" interp="linr"  time="0/1" value="1" leadInLength="0/1"  name="volume"/>
              <Parameter id="242"  name="captions"/>
             </Parameters>
             <Attributes>
              <Attribute id="243" value="" name="ident"/>
              <Attribute id="244" value="44100" name="sampleRate"/>
              <Attribute id="245" value="16" name="bitDepth"/>
              <Attribute id="246" value="1" name="gain"/>
              <Attribute id="247" value="0" name="mixToMono"/>
             </Attributes>
            </AMFile>
            <ScreenVMFile id="248" start="2610" duration="2" scalar="1/1" mediaStart="3352/1" mediaDuration="2/1" trackNumber="0" src="4" >
             <Transformer>
              <VectorParam id="249"  name="translation">
               <InterpolatingParam id="250" interp="linr"  time="-9999999/1" value="0" leadInLength="0/1"  />
               <InterpolatingParam id="251" interp="linr"  time="-9999999/1" value="0" leadInLength="0/1"  />
               <InterpolatingParam id="252" interp="linr"  time="-9999999/1" value="0" leadInLength="0/1"  />
              </VectorParam>
              <VectorParam id="253"  name="rotation">
               <InterpolatingParam id="254" interp="linr"  time="-9999999/1" value="0" leadInLength="0/1"  />
               <InterpolatingParam id="255" interp="linr"  time="-9999999/1" value="0" leadInLength="0/1"  />
               <InterpolatingParam id="256" interp="linr"  time="-9999999/1" value="0" leadInLength="0/1"  />
              </VectorParam>
              <VectorParam id="257"  name="shear">
               <InterpolatingParam id="258" interp="linr"  time="-9999999/1" value="0" leadInLength="0/1"  />
               <InterpolatingParam id="259" interp="linr"  time="-9999999/1" value="0" leadInLength="0/1"  />
               <InterpolatingParam id="260" interp="linr"  time="-9999999/1" value="0" leadInLength="0/1"  />
              </VectorParam>
              <VectorParam id="261"  name="scale">
               <InterpolatingParam id="262" interp="linr"  time="-9999999/1" value="1" leadInLength="0/1"  />
               <InterpolatingParam id="263" interp="linr"  time="-9999999/1" value="1" leadInLength="0/1"  />
               <InterpolatingParam id="264" interp="linr"  time="-9999999/1" value="1" leadInLength="0/1"  />
              </VectorParam>
              <VectorParam id="265"  name="anchor">
               <InterpolatingParam id="266" interp="linr"  time="0/1" value="0" leadInLength="0/1"  />
               <InterpolatingParam id="267" interp="linr"  time="0/1" value="0" leadInLength="0/1"  />
               <InterpolatingParam id="268" interp="linr"  time="0/1" value="0" leadInLength="0/1"  />
              </VectorParam>
             </Transformer>
             <Parameters>
              <VectorParam id="269"  name="sourceCrop">
               <InterpolatingParam id="270" interp="linr"  time="0/1" value="0" leadInLength="0/1"  />
               <InterpolatingParam id="271" interp="linr"  time="0/1" value="0" leadInLength="0/1"  />
               <InterpolatingParam id="272" interp="linr"  time="0/1" value="0" leadInLength="0/1"  />
               <InterpolatingParam id="273" interp="linr"  time="0/1" value="0" leadInLength="0/1"  />
              </VectorParam>
              <VectorParam id="274"  name="geometryCrop">
               <InterpolatingParam id="275" interp="linr"  time="-9999999/1" value="0" leadInLength="0/1"  />
               <InterpolatingParam id="276" interp="linr"  time="-9999999/1" value="0" leadInLength="0/1"  />
               <InterpolatingParam id="277" interp="linr"  time="-9999999/1" value="0" leadInLength="0/1"  />
               <InterpolatingParam id="278" interp="linr"  time="-9999999/1" value="0" leadInLength="0/1"  />
              </VectorParam>
              <InterpolatingParam id="279" interp="linr"  time="-9999999/1" value="1" leadInLength="0/1"  name="opacity"/>
              <InterpolatingParam id="280" interp="linr"  time="0/1" value="0" leadInLength="0/1"  name="cursorOpacity"/>
              <InterpolatingParam id="281" interp="linr"  time="0/1" value="0" leadInLength="0/1"  name="cursorScale"/>
             </Parameters>
             <Attributes>
              <Attribute id="282" value="" name="ident"/>
             </Attributes>
             <ExtraData>
              <Entry key="ZoomPanBin">
               <ZoomPanBin id="283"  >
                <ZoomPanKeyframes>
                 <ZoomPanKeyframe id="284" timeRangeEnd="-9999999/1" timeRangeDuration="0/1" interpolaterName=""  />
                </ZoomPanKeyframes>
               </ZoomPanBin>
              </Entry>
              <Entry key="CursorEffectBin">
               <CursorEffectBin id="285"  >
                <CursorEffectKeyframes>
                </CursorEffectKeyframes>
               </CursorEffectBin>
              </Entry>
             </ExtraData>
            </ScreenVMFile>
            <MetaData>
             <entry key="AutoAppliedSmartFocus" val="False"/>
             <entry key="WinSubProjectDisplayName" val=""/>
            </MetaData>
           </UnifiedMedia>
           <UnifiedMedia id="286"  >
            <AMFile id="287" start="2612" duration="65" scalar="1/1" mediaStart="3375/1" mediaDuration="65/1" trackNumber="1" src="4" channelNumber="0,1" >
             <Parameters>
              <InterpolatingParam id="288" interp="linr"  time="0/1" value="1" leadInLength="0/1"  name="volume"/>
              <Parameter id="289"  name="captions"/>
             </Parameters>
             <Attributes>
              <Attribute id="290" value="" name="ident"/>
              <Attribute id="291" value="44100" name="sampleRate"/>
              <Attribute id="292" value="16" name="bitDepth"/>
              <Attribute id="293" value="1" name="gain"/>
              <Attribute id="294" value="0" name="mixToMono"/>
             </Attributes>
            </AMFile>
            <ScreenVMFile id="295" start="2612" duration="65" scalar="1/1" mediaStart="3375/1" mediaDuration="65/1" trackNumber="0" src="4" >
             <Transformer>
              <VectorParam id="296"  name="translation">
               <InterpolatingParam id="297" interp="linr"  time="-9999999/1" value="0" leadInLength="0/1"  />
               <InterpolatingParam id="298" interp="linr"  time="-9999999/1" value="0" leadInLength="0/1"  />
               <InterpolatingParam id="299" interp="linr"  time="-9999999/1" value="0" leadInLength="0/1"  />
              </VectorParam>
              <VectorParam id="300"  name="rotation">
               <InterpolatingParam id="301" interp="linr"  time="-9999999/1" value="0" leadInLength="0/1"  />
               <InterpolatingParam id="302" interp="linr"  time="-9999999/1" value="0" leadInLength="0/1"  />
               <InterpolatingParam id="303" interp="linr"  time="-9999999/1" value="0" leadInLength="0/1"  />
              </VectorParam>
              <VectorParam id="304"  name="shear">
               <InterpolatingParam id="305" interp="linr"  time="-9999999/1" value="0" leadInLength="0/1"  />
               <InterpolatingParam id="306" interp="linr"  time="-9999999/1" value="0" leadInLength="0/1"  />
               <InterpolatingParam id="307" interp="linr"  time="-9999999/1" value="0" leadInLength="0/1"  />
              </VectorParam>
              <VectorParam id="308"  name="scale">
               <InterpolatingParam id="309" interp="linr"  time="-9999999/1" value="1" leadInLength="0/1"  />
               <InterpolatingParam id="310" interp="linr"  time="-9999999/1" value="1" leadInLength="0/1"  />
               <InterpolatingParam id="311" interp="linr"  time="-9999999/1" value="1" leadInLength="0/1"  />
              </VectorParam>
              <VectorParam id="312"  name="anchor">
               <InterpolatingParam id="313" interp="linr"  time="0/1" value="0" leadInLength="0/1"  />
               <InterpolatingParam id="314" interp="linr"  time="0/1" value="0" leadInLength="0/1"  />
               <InterpolatingParam id="315" interp="linr"  time="0/1" value="0" leadInLength="0/1"  />
              </VectorParam>
             </Transformer>
             <Parameters>
              <VectorParam id="316"  name="sourceCrop">
               <InterpolatingParam id="317" interp="linr"  time="0/1" value="0" leadInLength="0/1"  />
               <InterpolatingParam id="318" interp="linr"  time="0/1" value="0" leadInLength="0/1"  />
               <InterpolatingParam id="319" interp="linr"  time="0/1" value="0" leadInLength="0/1"  />
               <InterpolatingParam id="320" interp="linr"  time="0/1" value="0" leadInLength="0/1"  />
              </VectorParam>
              <VectorParam id="321"  name="geometryCrop">
               <InterpolatingParam id="322" interp="linr"  time="-9999999/1" value="0" leadInLength="0/1"  />
               <InterpolatingParam id="323" interp="linr"  time="-9999999/1" value="0" leadInLength="0/1"  />
               <InterpolatingParam id="324" interp="linr"  time="-9999999/1" value="0" leadInLength="0/1"  />
               <InterpolatingParam id="325" interp="linr"  time="-9999999/1" value="0" leadInLength="0/1"  />
              </VectorParam>
              <InterpolatingParam id="326" interp="linr"  time="-9999999/1" value="1" leadInLength="0/1"  name="opacity"/>
              <InterpolatingParam id="327" interp="linr"  time="0/1" value="0" leadInLength="0/1"  name="cursorOpacity"/>
              <InterpolatingParam id="328" interp="linr"  time="0/1" value="0" leadInLength="0/1"  name="cursorScale"/>
             </Parameters>
             <Attributes>
              <Attribute id="329" value="" name="ident"/>
             </Attributes>
             <ExtraData>
              <Entry key="ZoomPanBin">
               <ZoomPanBin id="330"  >
                <ZoomPanKeyframes>
                 <ZoomPanKeyframe id="331" timeRangeEnd="-9999999/1" timeRangeDuration="0/1" interpolaterName=""  />
                </ZoomPanKeyframes>
               </ZoomPanBin>
              </Entry>
              <Entry key="CursorEffectBin">
               <CursorEffectBin id="332"  >
                <CursorEffectKeyframes>
                </CursorEffectKeyframes>
               </CursorEffectBin>
              </Entry>
             </ExtraData>
            </ScreenVMFile>
            <MetaData>
             <entry key="AutoAppliedSmartFocus" val="False"/>
             <entry key="WinSubProjectDisplayName" val=""/>
            </MetaData>
           </UnifiedMedia>
           <UnifiedMedia id="333"  >
            <AMFile id="334" start="2677" duration="71" scalar="1/1" mediaStart="3464/1" mediaDuration="71/1" trackNumber="1" src="4" channelNumber="0,1" >
             <Parameters>
              <InterpolatingParam id="335" interp="linr"  time="0/1" value="1" leadInLength="0/1"  name="volume"/>
              <Parameter id="336"  name="captions"/>
             </Parameters>
             <Attributes>
              <Attribute id="337" value="" name="ident"/>
              <Attribute id="338" value="44100" name="sampleRate"/>
              <Attribute id="339" value="16" name="bitDepth"/>
              <Attribute id="340" value="1" name="gain"/>
              <Attribute id="341" value="0" name="mixToMono"/>
             </Attributes>
            </AMFile>
            <ScreenVMFile id="342" start="2677" duration="71" scalar="1/1" mediaStart="3464/1" mediaDuration="71/1" trackNumber="0" src="4" >
             <Transformer>
              <VectorParam id="343"  name="translation">
               <InterpolatingParam id="344" interp="linr"  time="-9999999/1" value="0" leadInLength="0/1"  />
               <InterpolatingParam id="345" interp="linr"  time="-9999999/1" value="0" leadInLength="0/1"  />
               <InterpolatingParam id="346" interp="linr"  time="-9999999/1" value="0" leadInLength="0/1"  />
              </VectorParam>
              <VectorParam id="347"  name="rotation">
               <InterpolatingParam id="348" interp="linr"  time="-9999999/1" value="0" leadInLength="0/1"  />
               <InterpolatingParam id="349" interp="linr"  time="-9999999/1" value="0" leadInLength="0/1"  />
               <InterpolatingParam id="350" interp="linr"  time="-9999999/1" value="0" leadInLength="0/1"  />
              </VectorParam>
              <VectorParam id="351"  name="shear">
               <InterpolatingParam id="352" interp="linr"  time="-9999999/1" value="0" leadInLength="0/1"  />
               <InterpolatingParam id="353" interp="linr"  time="-9999999/1" value="0" leadInLength="0/1"  />
               <InterpolatingParam id="354" interp="linr"  time="-9999999/1" value="0" leadInLength="0/1"  />
              </VectorParam>
              <VectorParam id="355"  name="scale">
               <InterpolatingParam id="356" interp="linr"  time="-9999999/1" value="1" leadInLength="0/1"  />
               <InterpolatingParam id="357" interp="linr"  time="-9999999/1" value="1" leadInLength="0/1"  />
               <InterpolatingParam id="358" interp="linr"  time="-9999999/1" value="1" leadInLength="0/1"  />
              </VectorParam>
              <VectorParam id="359"  name="anchor">
               <InterpolatingParam id="360" interp="linr"  time="0/1" value="0" leadInLength="0/1"  />
               <InterpolatingParam id="361" interp="linr"  time="0/1" value="0" leadInLength="0/1"  />
               <InterpolatingParam id="362" interp="linr"  time="0/1" value="0" leadInLength="0/1"  />
              </VectorParam>
             </Transformer>
             <Parameters>
              <VectorParam id="363"  name="sourceCrop">
               <InterpolatingParam id="364" interp="linr"  time="0/1" value="0" leadInLength="0/1"  />
               <InterpolatingParam id="365" interp="linr"  time="0/1" value="0" leadInLength="0/1"  />
               <InterpolatingParam id="366" interp="linr"  time="0/1" value="0" leadInLength="0/1"  />
               <InterpolatingParam id="367" interp="linr"  time="0/1" value="0" leadInLength="0/1"  />
              </VectorParam>
              <VectorParam id="368"  name="geometryCrop">
               <InterpolatingParam id="369" interp="linr"  time="-9999999/1" value="0" leadInLength="0/1"  />
               <InterpolatingParam id="370" interp="linr"  time="-9999999/1" value="0" leadInLength="0/1"  />
               <InterpolatingParam id="371" interp="linr"  time="-9999999/1" value="0" leadInLength="0/1"  />
               <InterpolatingParam id="372" interp="linr"  time="-9999999/1" value="0" leadInLength="0/1"  />
              </VectorParam>
              <InterpolatingParam id="373" interp="linr"  time="-9999999/1" value="1" leadInLength="0/1"  name="opacity"/>
              <InterpolatingParam id="374" interp="linr"  time="0/1" value="0" leadInLength="0/1"  name="cursorOpacity"/>
              <InterpolatingParam id="375" interp="linr"  time="0/1" value="0" leadInLength="0/1"  name="cursorScale"/>
             </Parameters>
             <Attributes>
              <Attribute id="376" value="" name="ident"/>
             </Attributes>
             <ExtraData>
              <Entry key="ZoomPanBin">
               <ZoomPanBin id="377"  >
                <ZoomPanKeyframes>
                 <ZoomPanKeyframe id="378" timeRangeEnd="-9999999/1" timeRangeDuration="0/1" interpolaterName=""  />
                </ZoomPanKeyframes>
               </ZoomPanBin>
              </Entry>
              <Entry key="CursorEffectBin">
               <CursorEffectBin id="379"  >
                <CursorEffectKeyframes>
                </CursorEffectKeyframes>
               </CursorEffectBin>
              </Entry>
             </ExtraData>
            </ScreenVMFile>
            <MetaData>
             <entry key="AutoAppliedSmartFocus" val="False"/>
             <entry key="WinSubProjectDisplayName" val=""/>
            </MetaData>
           </UnifiedMedia>
           <UnifiedMedia id="380"  >
            <AMFile id="381" start="2748" duration="51" scalar="1/1" mediaStart="3544/1" mediaDuration="51/1" trackNumber="1" src="4" channelNumber="0,1" >
             <Parameters>
              <InterpolatingParam id="382" interp="linr"  time="0/1" value="1" leadInLength="0/1"  name="volume"/>
              <Parameter id="383"  name="captions"/>
             </Parameters>
             <Attributes>
              <Attribute id="384" value="" name="ident"/>
              <Attribute id="385" value="44100" name="sampleRate"/>
              <Attribute id="386" value="16" name="bitDepth"/>
              <Attribute id="387" value="1" name="gain"/>
              <Attribute id="388" value="0" name="mixToMono"/>
             </Attributes>
            </AMFile>
            <ScreenVMFile id="389" start="2748" duration="51" scalar="1/1" mediaStart="3544/1" mediaDuration="51/1" trackNumber="0" src="4" >
             <Transformer>
              <VectorParam id="390"  name="translation">
               <InterpolatingParam id="391" interp="linr"  time="-9999999/1" value="0" leadInLength="0/1"  />
               <InterpolatingParam id="392" interp="linr"  time="-9999999/1" value="0" leadInLength="0/1"  />
               <InterpolatingParam id="393" interp="linr"  time="-9999999/1" value="0" leadInLength="0/1"  />
              </VectorParam>
              <VectorParam id="394"  name="rotation">
               <InterpolatingParam id="395" interp="linr"  time="-9999999/1" value="0" leadInLength="0/1"  />
               <InterpolatingParam id="396" interp="linr"  time="-9999999/1" value="0" leadInLength="0/1"  />
               <InterpolatingParam id="397" interp="linr"  time="-9999999/1" value="0" leadInLength="0/1"  />
              </VectorParam>
              <VectorParam id="398"  name="shear">
               <InterpolatingParam id="399" interp="linr"  time="-9999999/1" value="0" leadInLength="0/1"  />
               <InterpolatingParam id="400" interp="linr"  time="-9999999/1" value="0" leadInLength="0/1"  />
               <InterpolatingParam id="401" interp="linr"  time="-9999999/1" value="0" leadInLength="0/1"  />
              </VectorParam>
              <VectorParam id="402"  name="scale">
               <InterpolatingParam id="403" interp="linr"  time="-9999999/1" value="1" leadInLength="0/1"  />
               <InterpolatingParam id="404" interp="linr"  time="-9999999/1" value="1" leadInLength="0/1"  />
               <InterpolatingParam id="405" interp="linr"  time="-9999999/1" value="1" leadInLength="0/1"  />
              </VectorParam>
              <VectorParam id="406"  name="anchor">
               <InterpolatingParam id="407" interp="linr"  time="0/1" value="0" leadInLength="0/1"  />
               <InterpolatingParam id="408" interp="linr"  time="0/1" value="0" leadInLength="0/1"  />
               <InterpolatingParam id="409" interp="linr"  time="0/1" value="0" leadInLength="0/1"  />
              </VectorParam>
             </Transformer>
             <Parameters>
              <VectorParam id="410"  name="sourceCrop">
               <InterpolatingParam id="411" interp="linr"  time="0/1" value="0" leadInLength="0/1"  />
               <InterpolatingParam id="412" interp="linr"  time="0/1" value="0" leadInLength="0/1"  />
               <InterpolatingParam id="413" interp="linr"  time="0/1" value="0" leadInLength="0/1"  />
               <InterpolatingParam id="414" interp="linr"  time="0/1" value="0" leadInLength="0/1"  />
              </VectorParam>
              <VectorParam id="415"  name="geometryCrop">
               <InterpolatingParam id="416" interp="linr"  time="-9999999/1" value="0" leadInLength="0/1"  />
               <InterpolatingParam id="417" interp="linr"  time="-9999999/1" value="0" leadInLength="0/1"  />
               <InterpolatingParam id="418" interp="linr"  time="-9999999/1" value="0" leadInLength="0/1"  />
               <InterpolatingParam id="419" interp="linr"  time="-9999999/1" value="0" leadInLength="0/1"  />
              </VectorParam>
              <InterpolatingParam id="420" interp="linr"  time="-9999999/1" value="1" leadInLength="0/1"  name="opacity"/>
              <InterpolatingParam id="421" interp="linr"  time="0/1" value="0" leadInLength="0/1"  name="cursorOpacity"/>
              <InterpolatingParam id="422" interp="linr"  time="0/1" value="0" leadInLength="0/1"  name="cursorScale"/>
             </Parameters>
             <Attributes>
              <Attribute id="423" value="" name="ident"/>
             </Attributes>
             <ExtraData>
              <Entry key="ZoomPanBin">
               <ZoomPanBin id="424"  >
                <ZoomPanKeyframes>
                 <ZoomPanKeyframe id="425" timeRangeEnd="-9999999/1" timeRangeDuration="0/1" interpolaterName=""  />
                </ZoomPanKeyframes>
               </ZoomPanBin>
              </Entry>
              <Entry key="CursorEffectBin">
               <CursorEffectBin id="426"  >
                <CursorEffectKeyframes>
                </CursorEffectKeyframes>
               </CursorEffectBin>
              </Entry>
             </ExtraData>
            </ScreenVMFile>
            <MetaData>
             <entry key="AutoAppliedSmartFocus" val="False"/>
             <entry key="WinSubProjectDisplayName" val=""/>
            </MetaData>
           </UnifiedMedia>
           <UnifiedMedia id="427"  >
            <AMFile id="428" start="2799" duration="5" scalar="1/1" mediaStart="3607/1" mediaDuration="5/1" trackNumber="1" src="4" channelNumber="0,1" >
             <Parameters>
              <InterpolatingParam id="429" interp="linr"  time="0/1" value="1" leadInLength="0/1"  name="volume"/>
              <Parameter id="430"  name="captions"/>
             </Parameters>
             <Attributes>
              <Attribute id="431" value="" name="ident"/>
              <Attribute id="432" value="44100" name="sampleRate"/>
              <Attribute id="433" value="16" name="bitDepth"/>
              <Attribute id="434" value="1" name="gain"/>
              <Attribute id="435" value="0" name="mixToMono"/>
             </Attributes>
            </AMFile>
            <ScreenVMFile id="436" start="2799" duration="5" scalar="1/1" mediaStart="3607/1" mediaDuration="5/1" trackNumber="0" src="4" >
             <Transformer>
              <VectorParam id="437"  name="translation">
               <InterpolatingParam id="438" interp="linr"  time="-9999999/1" value="0" leadInLength="0/1"  />
               <InterpolatingParam id="439" interp="linr"  time="-9999999/1" value="0" leadInLength="0/1"  />
               <InterpolatingParam id="440" interp="linr"  time="-9999999/1" value="0" leadInLength="0/1"  />
              </VectorParam>
              <VectorParam id="441"  name="rotation">
               <InterpolatingParam id="442" interp="linr"  time="-9999999/1" value="0" leadInLength="0/1"  />
               <InterpolatingParam id="443" interp="linr"  time="-9999999/1" value="0" leadInLength="0/1"  />
               <InterpolatingParam id="444" interp="linr"  time="-9999999/1" value="0" leadInLength="0/1"  />
              </VectorParam>
              <VectorParam id="445"  name="shear">
               <InterpolatingParam id="446" interp="linr"  time="-9999999/1" value="0" leadInLength="0/1"  />
               <InterpolatingParam id="447" interp="linr"  time="-9999999/1" value="0" leadInLength="0/1"  />
               <InterpolatingParam id="448" interp="linr"  time="-9999999/1" value="0" leadInLength="0/1"  />
              </VectorParam>
              <VectorParam id="449"  name="scale">
               <InterpolatingParam id="450" interp="linr"  time="-9999999/1" value="1" leadInLength="0/1"  />
               <InterpolatingParam id="451" interp="linr"  time="-9999999/1" value="1" leadInLength="0/1"  />
               <InterpolatingParam id="452" interp="linr"  time="-9999999/1" value="1" leadInLength="0/1"  />
              </VectorParam>
              <VectorParam id="453"  name="anchor">
               <InterpolatingParam id="454" interp="linr"  time="0/1" value="0" leadInLength="0/1"  />
               <InterpolatingParam id="455" interp="linr"  time="0/1" value="0" leadInLength="0/1"  />
               <InterpolatingParam id="456" interp="linr"  time="0/1" value="0" leadInLength="0/1"  />
              </VectorParam>
             </Transformer>
             <Parameters>
              <VectorParam id="457"  name="sourceCrop">
               <InterpolatingParam id="458" interp="linr"  time="0/1" value="0" leadInLength="0/1"  />
               <InterpolatingParam id="459" interp="linr"  time="0/1" value="0" leadInLength="0/1"  />
               <InterpolatingParam id="460" interp="linr"  time="0/1" value="0" leadInLength="0/1"  />
               <InterpolatingParam id="461" interp="linr"  time="0/1" value="0" leadInLength="0/1"  />
              </VectorParam>
              <VectorParam id="462"  name="geometryCrop">
               <InterpolatingParam id="463" interp="linr"  time="-9999999/1" value="0" leadInLength="0/1"  />
               <InterpolatingParam id="464" interp="linr"  time="-9999999/1" value="0" leadInLength="0/1"  />
               <InterpolatingParam id="465" interp="linr"  time="-9999999/1" value="0" leadInLength="0/1"  />
               <InterpolatingParam id="466" interp="linr"  time="-9999999/1" value="0" leadInLength="0/1"  />
              </VectorParam>
              <InterpolatingParam id="467" interp="linr"  time="-9999999/1" value="1" leadInLength="0/1"  name="opacity"/>
              <InterpolatingParam id="468" interp="linr"  time="0/1" value="0" leadInLength="0/1"  name="cursorOpacity"/>
              <InterpolatingParam id="469" interp="linr"  time="0/1" value="0" leadInLength="0/1"  name="cursorScale"/>
             </Parameters>
             <Attributes>
              <Attribute id="470" value="" name="ident"/>
             </Attributes>
             <ExtraData>
              <Entry key="ZoomPanBin">
               <ZoomPanBin id="471"  >
                <ZoomPanKeyframes>
                 <ZoomPanKeyframe id="472" timeRangeEnd="-9999999/1" timeRangeDuration="0/1" interpolaterName=""  />
                </ZoomPanKeyframes>
               </ZoomPanBin>
              </Entry>
              <Entry key="CursorEffectBin">
               <CursorEffectBin id="473"  >
                <CursorEffectKeyframes>
                </CursorEffectKeyframes>
               </CursorEffectBin>
              </Entry>
             </ExtraData>
            </ScreenVMFile>
            <MetaData>
             <entry key="AutoAppliedSmartFocus" val="False"/>
             <entry key="WinSubProjectDisplayName" val=""/>
            </MetaData>
           </UnifiedMedia>
           <UnifiedMedia id="474"  >
            <AMFile id="475" start="2804" duration="10" scalar="1/1" mediaStart="3624/1" mediaDuration="10/1" trackNumber="1" src="4" channelNumber="0,1" >
             <Parameters>
              <InterpolatingParam id="476" interp="linr"  time="0/1" value="1" leadInLength="0/1"  name="volume"/>
              <Parameter id="477"  name="captions"/>
             </Parameters>
             <Attributes>
              <Attribute id="478" value="" name="ident"/>
              <Attribute id="479" value="44100" name="sampleRate"/>
              <Attribute id="480" value="16" name="bitDepth"/>
              <Attribute id="481" value="1" name="gain"/>
              <Attribute id="482" value="0" name="mixToMono"/>
             </Attributes>
            </AMFile>
            <ScreenVMFile id="483" start="2804" duration="10" scalar="1/1" mediaStart="3624/1" mediaDuration="10/1" trackNumber="0" src="4" >
             <Transformer>
              <VectorParam id="484"  name="translation">
               <InterpolatingParam id="485" interp="linr"  time="-9999999/1" value="0" leadInLength="0/1"  />
               <InterpolatingParam id="486" interp="linr"  time="-9999999/1" value="0" leadInLength="0/1"  />
               <InterpolatingParam id="487" interp="linr"  time="-9999999/1" value="0" leadInLength="0/1"  />
              </VectorParam>
              <VectorParam id="488"  name="rotation">
               <InterpolatingParam id="489" interp="linr"  time="-9999999/1" value="0" leadInLength="0/1"  />
               <InterpolatingParam id="490" interp="linr"  time="-9999999/1" value="0" leadInLength="0/1"  />
               <InterpolatingParam id="491" interp="linr"  time="-9999999/1" value="0" leadInLength="0/1"  />
              </VectorParam>
              <VectorParam id="492"  name="shear">
               <InterpolatingParam id="493" interp="linr"  time="-9999999/1" value="0" leadInLength="0/1"  />
               <InterpolatingParam id="494" interp="linr"  time="-9999999/1" value="0" leadInLength="0/1"  />
               <InterpolatingParam id="495" interp="linr"  time="-9999999/1" value="0" leadInLength="0/1"  />
              </VectorParam>
              <VectorParam id="496"  name="scale">
               <InterpolatingParam id="497" interp="linr"  time="-9999999/1" value="1" leadInLength="0/1"  />
               <InterpolatingParam id="498" interp="linr"  time="-9999999/1" value="1" leadInLength="0/1"  />
               <InterpolatingParam id="499" interp="linr"  time="-9999999/1" value="1" leadInLength="0/1"  />
              </VectorParam>
              <VectorParam id="500"  name="anchor">
               <InterpolatingParam id="501" interp="linr"  time="0/1" value="0" leadInLength="0/1"  />
               <InterpolatingParam id="502" interp="linr"  time="0/1" value="0" leadInLength="0/1"  />
               <InterpolatingParam id="503" interp="linr"  time="0/1" value="0" leadInLength="0/1"  />
              </VectorParam>
             </Transformer>
             <Parameters>
              <VectorParam id="504"  name="sourceCrop">
               <InterpolatingParam id="505" interp="linr"  time="0/1" value="0" leadInLength="0/1"  />
               <InterpolatingParam id="506" interp="linr"  time="0/1" value="0" leadInLength="0/1"  />
               <InterpolatingParam id="507" interp="linr"  time="0/1" value="0" leadInLength="0/1"  />
               <InterpolatingParam id="508" interp="linr"  time="0/1" value="0" leadInLength="0/1"  />
              </VectorParam>
              <VectorParam id="509"  name="geometryCrop">
               <InterpolatingParam id="510" interp="linr"  time="-9999999/1" value="0" leadInLength="0/1"  />
               <InterpolatingParam id="511" interp="linr"  time="-9999999/1" value="0" leadInLength="0/1"  />
               <InterpolatingParam id="512" interp="linr"  time="-9999999/1" value="0" leadInLength="0/1"  />
               <InterpolatingParam id="513" interp="linr"  time="-9999999/1" value="0" leadInLength="0/1"  />
              </VectorParam>
              <InterpolatingParam id="514" interp="linr"  time="-9999999/1" value="1" leadInLength="0/1"  name="opacity"/>
              <InterpolatingParam id="515" interp="linr"  time="0/1" value="0" leadInLength="0/1"  name="cursorOpacity"/>
              <InterpolatingParam id="516" interp="linr"  time="0/1" value="0" leadInLength="0/1"  name="cursorScale"/>
             </Parameters>
             <Attributes>
              <Attribute id="517" value="" name="ident"/>
             </Attributes>
             <ExtraData>
              <Entry key="ZoomPanBin">
               <ZoomPanBin id="518"  >
                <ZoomPanKeyframes>
                 <ZoomPanKeyframe id="519" timeRangeEnd="-9999999/1" timeRangeDuration="0/1" interpolaterName=""  />
                </ZoomPanKeyframes>
               </ZoomPanBin>
              </Entry>
              <Entry key="CursorEffectBin">
               <CursorEffectBin id="520"  >
                <CursorEffectKeyframes>
                </CursorEffectKeyframes>
               </CursorEffectBin>
              </Entry>
             </ExtraData>
            </ScreenVMFile>
            <MetaData>
             <entry key="AutoAppliedSmartFocus" val="False"/>
             <entry key="WinSubProjectDisplayName" val=""/>
            </MetaData>
           </UnifiedMedia>
           <UnifiedMedia id="521"  >
            <AMFile id="522" start="2814" duration="274" scalar="1/1" mediaStart="3657/1" mediaDuration="274/1" trackNumber="1" src="4" channelNumber="0,1" >
             <Parameters>
              <InterpolatingParam id="523" interp="linr"  time="0/1" value="1" leadInLength="0/1"  name="volume"/>
              <Parameter id="524"  name="captions"/>
             </Parameters>
             <Attributes>
              <Attribute id="525" value="" name="ident"/>
              <Attribute id="526" value="44100" name="sampleRate"/>
              <Attribute id="527" value="16" name="bitDepth"/>
              <Attribute id="528" value="1" name="gain"/>
              <Attribute id="529" value="0" name="mixToMono"/>
             </Attributes>
            </AMFile>
            <ScreenVMFile id="530" start="2814" duration="274" scalar="1/1" mediaStart="3657/1" mediaDuration="274/1" trackNumber="0" src="4" >
             <Transformer>
              <VectorParam id="531"  name="translation">
               <InterpolatingParam id="532" interp="linr"  time="-9999999/1" value="0" leadInLength="0/1"  />
               <InterpolatingParam id="533" interp="linr"  time="-9999999/1" value="0" leadInLength="0/1"  />
               <InterpolatingParam id="534" interp="linr"  time="-9999999/1" value="0" leadInLength="0/1"  />
              </VectorParam>
              <VectorParam id="535"  name="rotation">
               <InterpolatingParam id="536" interp="linr"  time="-9999999/1" value="0" leadInLength="0/1"  />
               <InterpolatingParam id="537" interp="linr"  time="-9999999/1" value="0" leadInLength="0/1"  />
               <InterpolatingParam id="538" interp="linr"  time="-9999999/1" value="0" leadInLength="0/1"  />
              </VectorParam>
              <VectorParam id="539"  name="shear">
               <InterpolatingParam id="540" interp="linr"  time="-9999999/1" value="0" leadInLength="0/1"  />
               <InterpolatingParam id="541" interp="linr"  time="-9999999/1" value="0" leadInLength="0/1"  />
               <InterpolatingParam id="542" interp="linr"  time="-9999999/1" value="0" leadInLength="0/1"  />
              </VectorParam>
              <VectorParam id="543"  name="scale">
               <InterpolatingParam id="544" interp="linr"  time="-9999999/1" value="1" leadInLength="0/1"  />
               <InterpolatingParam id="545" interp="linr"  time="-9999999/1" value="1" leadInLength="0/1"  />
               <InterpolatingParam id="546" interp="linr"  time="-9999999/1" value="1" leadInLength="0/1"  />
              </VectorParam>
              <VectorParam id="547"  name="anchor">
               <InterpolatingParam id="548" interp="linr"  time="0/1" value="0" leadInLength="0/1"  />
               <InterpolatingParam id="549" interp="linr"  time="0/1" value="0" leadInLength="0/1"  />
               <InterpolatingParam id="550" interp="linr"  time="0/1" value="0" leadInLength="0/1"  />
              </VectorParam>
             </Transformer>
             <Parameters>
              <VectorParam id="551"  name="sourceCrop">
               <InterpolatingParam id="552" interp="linr"  time="0/1" value="0" leadInLength="0/1"  />
               <InterpolatingParam id="553" interp="linr"  time="0/1" value="0" leadInLength="0/1"  />
               <InterpolatingParam id="554" interp="linr"  time="0/1" value="0" leadInLength="0/1"  />
               <InterpolatingParam id="555" interp="linr"  time="0/1" value="0" leadInLength="0/1"  />
              </VectorParam>
              <VectorParam id="556"  name="geometryCrop">
               <InterpolatingParam id="557" interp="linr"  time="-9999999/1" value="0" leadInLength="0/1"  />
               <InterpolatingParam id="558" interp="linr"  time="-9999999/1" value="0" leadInLength="0/1"  />
               <InterpolatingParam id="559" interp="linr"  time="-9999999/1" value="0" leadInLength="0/1"  />
               <InterpolatingParam id="560" interp="linr"  time="-9999999/1" value="0" leadInLength="0/1"  />
              </VectorParam>
              <InterpolatingParam id="561" interp="linr"  time="-9999999/1" value="1" leadInLength="0/1"  name="opacity"/>
              <InterpolatingParam id="562" interp="linr"  time="0/1" value="0" leadInLength="0/1"  name="cursorOpacity"/>
              <InterpolatingParam id="563" interp="linr"  time="0/1" value="0" leadInLength="0/1"  name="cursorScale"/>
             </Parameters>
             <Attributes>
              <Attribute id="564" value="" name="ident"/>
             </Attributes>
             <ExtraData>
              <Entry key="ZoomPanBin">
               <ZoomPanBin id="565"  >
                <ZoomPanKeyframes>
                 <ZoomPanKeyframe id="566" timeRangeEnd="-9999999/1" timeRangeDuration="0/1" interpolaterName=""  />
                </ZoomPanKeyframes>
               </ZoomPanBin>
              </Entry>
              <Entry key="CursorEffectBin">
               <CursorEffectBin id="567"  >
                <CursorEffectKeyframes>
                </CursorEffectKeyframes>
               </CursorEffectBin>
              </Entry>
             </ExtraData>
            </ScreenVMFile>
            <MetaData>
             <entry key="AutoAppliedSmartFocus" val="False"/>
             <entry key="WinSubProjectDisplayName" val=""/>
            </MetaData>
           </UnifiedMedia>
           <UnifiedMedia id="568"  >
            <AMFile id="569" start="3088" duration="361" scalar="1/1" mediaStart="3975/1" mediaDuration="361/1" trackNumber="1" src="4" channelNumber="0,1" >
             <Parameters>
              <InterpolatingParam id="570" interp="linr"  time="0/1" value="1" leadInLength="0/1"  name="volume"/>
              <Parameter id="571"  name="captions"/>
             </Parameters>
             <Attributes>
              <Attribute id="572" value="" name="ident"/>
              <Attribute id="573" value="44100" name="sampleRate"/>
              <Attribute id="574" value="16" name="bitDepth"/>
              <Attribute id="575" value="1" name="gain"/>
              <Attribute id="576" value="0" name="mixToMono"/>
             </Attributes>
            </AMFile>
            <ScreenVMFile id="577" start="3088" duration="361" scalar="1/1" mediaStart="3975/1" mediaDuration="361/1" trackNumber="0" src="4" >
             <Transformer>
              <VectorParam id="578"  name="translation">
               <InterpolatingParam id="579" interp="linr"  time="-9999999/1" value="0" leadInLength="0/1"  />
               <InterpolatingParam id="580" interp="linr"  time="-9999999/1" value="0" leadInLength="0/1"  />
               <InterpolatingParam id="581" interp="linr"  time="-9999999/1" value="0" leadInLength="0/1"  />
              </VectorParam>
              <VectorParam id="582"  name="rotation">
               <InterpolatingParam id="583" interp="linr"  time="-9999999/1" value="0" leadInLength="0/1"  />
               <InterpolatingParam id="584" interp="linr"  time="-9999999/1" value="0" leadInLength="0/1"  />
               <InterpolatingParam id="585" interp="linr"  time="-9999999/1" value="0" leadInLength="0/1"  />
              </VectorParam>
              <VectorParam id="586"  name="shear">
               <InterpolatingParam id="587" interp="linr"  time="-9999999/1" value="0" leadInLength="0/1"  />
               <InterpolatingParam id="588" interp="linr"  time="-9999999/1" value="0" leadInLength="0/1"  />
               <InterpolatingParam id="589" interp="linr"  time="-9999999/1" value="0" leadInLength="0/1"  />
              </VectorParam>
              <VectorParam id="590"  name="scale">
               <InterpolatingParam id="591" interp="linr"  time="-9999999/1" value="1" leadInLength="0/1"  />
               <InterpolatingParam id="592" interp="linr"  time="-9999999/1" value="1" leadInLength="0/1"  />
               <InterpolatingParam id="593" interp="linr"  time="-9999999/1" value="1" leadInLength="0/1"  />
              </VectorParam>
              <VectorParam id="594"  name="anchor">
               <InterpolatingParam id="595" interp="linr"  time="0/1" value="0" leadInLength="0/1"  />
               <InterpolatingParam id="596" interp="linr"  time="0/1" value="0" leadInLength="0/1"  />
               <InterpolatingParam id="597" interp="linr"  time="0/1" value="0" leadInLength="0/1"  />
              </VectorParam>
             </Transformer>
             <Parameters>
              <VectorParam id="598"  name="sourceCrop">
               <InterpolatingParam id="599" interp="linr"  time="0/1" value="0" leadInLength="0/1"  />
               <InterpolatingParam id="600" interp="linr"  time="0/1" value="0" leadInLength="0/1"  />
               <InterpolatingParam id="601" interp="linr"  time="0/1" value="0" leadInLength="0/1"  />
               <InterpolatingParam id="602" interp="linr"  time="0/1" value="0" leadInLength="0/1"  />
              </VectorParam>
              <VectorParam id="603"  name="geometryCrop">
               <InterpolatingParam id="604" interp="linr"  time="-9999999/1" value="0" leadInLength="0/1"  />
               <InterpolatingParam id="605" interp="linr"  time="-9999999/1" value="0" leadInLength="0/1"  />
               <InterpolatingParam id="606" interp="linr"  time="-9999999/1" value="0" leadInLength="0/1"  />
               <InterpolatingParam id="607" interp="linr"  time="-9999999/1" value="0" leadInLength="0/1"  />
              </VectorParam>
              <InterpolatingParam id="608" interp="linr"  time="-9999999/1" value="1" leadInLength="0/1"  name="opacity"/>
              <InterpolatingParam id="609" interp="linr"  time="0/1" value="0" leadInLength="0/1"  name="cursorOpacity"/>
              <InterpolatingParam id="610" interp="linr"  time="0/1" value="0" leadInLength="0/1"  name="cursorScale"/>
             </Parameters>
             <Attributes>
              <Attribute id="611" value="" name="ident"/>
             </Attributes>
             <ExtraData>
              <Entry key="ZoomPanBin">
               <ZoomPanBin id="612"  >
                <ZoomPanKeyframes>
                 <ZoomPanKeyframe id="613" timeRangeEnd="-9999999/1" timeRangeDuration="0/1" interpolaterName=""  />
                </ZoomPanKeyframes>
               </ZoomPanBin>
              </Entry>
              <Entry key="CursorEffectBin">
               <CursorEffectBin id="614"  >
                <CursorEffectKeyframes>
                </CursorEffectKeyframes>
               </CursorEffectBin>
              </Entry>
             </ExtraData>
            </ScreenVMFile>
            <MetaData>
             <entry key="AutoAppliedSmartFocus" val="False"/>
             <entry key="WinSubProjectDisplayName" val=""/>
            </MetaData>
           </UnifiedMedia>
           <UnifiedMedia id="615"  >
            <AMFile id="616" start="3449" duration="1" scalar="1/1" mediaStart="4625/1" mediaDuration="1/1" trackNumber="1" src="4" channelNumber="0,1" >
             <Parameters>
              <InterpolatingParam id="617" interp="linr"  time="0/1" value="1" leadInLength="0/1"  name="volume"/>
              <Parameter id="618"  name="captions"/>
             </Parameters>
             <Attributes>
              <Attribute id="619" value="" name="ident"/>
              <Attribute id="620" value="44100" name="sampleRate"/>
              <Attribute id="621" value="16" name="bitDepth"/>
              <Attribute id="622" value="1" name="gain"/>
              <Attribute id="623" value="0" name="mixToMono"/>
             </Attributes>
            </AMFile>
            <ScreenVMFile id="624" start="3449" duration="1" scalar="1/1" mediaStart="4625/1" mediaDuration="1/1" trackNumber="0" src="4" >
             <Transformer>
              <VectorParam id="625"  name="translation">
               <InterpolatingParam id="626" interp="linr"  time="-9999999/1" value="0" leadInLength="0/1"  />
               <InterpolatingParam id="627" interp="linr"  time="-9999999/1" value="0" leadInLength="0/1"  />
               <InterpolatingParam id="628" interp="linr"  time="-9999999/1" value="0" leadInLength="0/1"  />
              </VectorParam>
              <VectorParam id="629"  name="rotation">
               <InterpolatingParam id="630" interp="linr"  time="-9999999/1" value="0" leadInLength="0/1"  />
               <InterpolatingParam id="631" interp="linr"  time="-9999999/1" value="0" leadInLength="0/1"  />
               <InterpolatingParam id="632" interp="linr"  time="-9999999/1" value="0" leadInLength="0/1"  />
              </VectorParam>
              <VectorParam id="633"  name="shear">
               <InterpolatingParam id="634" interp="linr"  time="-9999999/1" value="0" leadInLength="0/1"  />
               <InterpolatingParam id="635" interp="linr"  time="-9999999/1" value="0" leadInLength="0/1"  />
               <InterpolatingParam id="636" interp="linr"  time="-9999999/1" value="0" leadInLength="0/1"  />
              </VectorParam>
              <VectorParam id="637"  name="scale">
               <InterpolatingParam id="638" interp="linr"  time="-9999999/1" value="1" leadInLength="0/1"  />
               <InterpolatingParam id="639" interp="linr"  time="-9999999/1" value="1" leadInLength="0/1"  />
               <InterpolatingParam id="640" interp="linr"  time="-9999999/1" value="1" leadInLength="0/1"  />
              </VectorParam>
              <VectorParam id="641"  name="anchor">
               <InterpolatingParam id="642" interp="linr"  time="0/1" value="0" leadInLength="0/1"  />
               <InterpolatingParam id="643" interp="linr"  time="0/1" value="0" leadInLength="0/1"  />
               <InterpolatingParam id="644" interp="linr"  time="0/1" value="0" leadInLength="0/1"  />
              </VectorParam>
             </Transformer>
             <Parameters>
              <VectorParam id="645"  name="sourceCrop">
               <InterpolatingParam id="646" interp="linr"  time="0/1" value="0" leadInLength="0/1"  />
               <InterpolatingParam id="647" interp="linr"  time="0/1" value="0" leadInLength="0/1"  />
               <InterpolatingParam id="648" interp="linr"  time="0/1" value="0" leadInLength="0/1"  />
               <InterpolatingParam id="649" interp="linr"  time="0/1" value="0" leadInLength="0/1"  />
              </VectorParam>
              <VectorParam id="650"  name="geometryCrop">
               <InterpolatingParam id="651" interp="linr"  time="-9999999/1" value="0" leadInLength="0/1"  />
               <InterpolatingParam id="652" interp="linr"  time="-9999999/1" value="0" leadInLength="0/1"  />
               <InterpolatingParam id="653" interp="linr"  time="-9999999/1" value="0" leadInLength="0/1"  />
               <InterpolatingParam id="654" interp="linr"  time="-9999999/1" value="0" leadInLength="0/1"  />
              </VectorParam>
              <InterpolatingParam id="655" interp="linr"  time="-9999999/1" value="1" leadInLength="0/1"  name="opacity"/>
              <InterpolatingParam id="656" interp="linr"  time="0/1" value="0" leadInLength="0/1"  name="cursorOpacity"/>
              <InterpolatingParam id="657" interp="linr"  time="0/1" value="0" leadInLength="0/1"  name="cursorScale"/>
             </Parameters>
             <Attributes>
              <Attribute id="658" value="" name="ident"/>
             </Attributes>
             <ExtraData>
              <Entry key="ZoomPanBin">
               <ZoomPanBin id="659"  >
                <ZoomPanKeyframes>
                 <ZoomPanKeyframe id="660" timeRangeEnd="-9999999/1" timeRangeDuration="0/1" interpolaterName=""  />
                </ZoomPanKeyframes>
               </ZoomPanBin>
              </Entry>
              <Entry key="CursorEffectBin">
               <CursorEffectBin id="661"  >
                <CursorEffectKeyframes>
                </CursorEffectKeyframes>
               </CursorEffectBin>
              </Entry>
             </ExtraData>
            </ScreenVMFile>
            <MetaData>
             <entry key="AutoAppliedSmartFocus" val="False"/>
             <entry key="WinSubProjectDisplayName" val=""/>
            </MetaData>
           </UnifiedMedia>
           <UnifiedMedia id="662"  >
            <AMFile id="663" start="3450" duration="4" scalar="1/1" mediaStart="4691/1" mediaDuration="4/1" trackNumber="1" src="4" channelNumber="0,1" >
             <Parameters>
              <InterpolatingParam id="664" interp="linr"  time="0/1" value="1" leadInLength="0/1"  name="volume"/>
              <Parameter id="665"  name="captions"/>
             </Parameters>
             <Attributes>
              <Attribute id="666" value="" name="ident"/>
              <Attribute id="667" value="44100" name="sampleRate"/>
              <Attribute id="668" value="16" name="bitDepth"/>
              <Attribute id="669" value="1" name="gain"/>
              <Attribute id="670" value="0" name="mixToMono"/>
             </Attributes>
            </AMFile>
            <ScreenVMFile id="671" start="3450" duration="4" scalar="1/1" mediaStart="4691/1" mediaDuration="4/1" trackNumber="0" src="4" >
             <Transformer>
              <VectorParam id="672"  name="translation">
               <InterpolatingParam id="673" interp="linr"  time="-9999999/1" value="0" leadInLength="0/1"  />
               <InterpolatingParam id="674" interp="linr"  time="-9999999/1" value="0" leadInLength="0/1"  />
               <InterpolatingParam id="675" interp="linr"  time="-9999999/1" value="0" leadInLength="0/1"  />
              </VectorParam>
              <VectorParam id="676"  name="rotation">
               <InterpolatingParam id="677" interp="linr"  time="-9999999/1" value="0" leadInLength="0/1"  />
               <InterpolatingParam id="678" interp="linr"  time="-9999999/1" value="0" leadInLength="0/1"  />
               <InterpolatingParam id="679" interp="linr"  time="-9999999/1" value="0" leadInLength="0/1"  />
              </VectorParam>
              <VectorParam id="680"  name="shear">
               <InterpolatingParam id="681" interp="linr"  time="-9999999/1" value="0" leadInLength="0/1"  />
               <InterpolatingParam id="682" interp="linr"  time="-9999999/1" value="0" leadInLength="0/1"  />
               <InterpolatingParam id="683" interp="linr"  time="-9999999/1" value="0" leadInLength="0/1"  />
              </VectorParam>
              <VectorParam id="684"  name="scale">
               <InterpolatingParam id="685" interp="linr"  time="-9999999/1" value="1" leadInLength="0/1"  />
               <InterpolatingParam id="686" interp="linr"  time="-9999999/1" value="1" leadInLength="0/1"  />
               <InterpolatingParam id="687" interp="linr"  time="-9999999/1" value="1" leadInLength="0/1"  />
              </VectorParam>
              <VectorParam id="688"  name="anchor">
               <InterpolatingParam id="689" interp="linr"  time="0/1" value="0" leadInLength="0/1"  />
               <InterpolatingParam id="690" interp="linr"  time="0/1" value="0" leadInLength="0/1"  />
               <InterpolatingParam id="691" interp="linr"  time="0/1" value="0" leadInLength="0/1"  />
              </VectorParam>
             </Transformer>
             <Parameters>
              <VectorParam id="692"  name="sourceCrop">
               <InterpolatingParam id="693" interp="linr"  time="0/1" value="0" leadInLength="0/1"  />
               <InterpolatingParam id="694" interp="linr"  time="0/1" value="0" leadInLength="0/1"  />
               <InterpolatingParam id="695" interp="linr"  time="0/1" value="0" leadInLength="0/1"  />
               <InterpolatingParam id="696" interp="linr"  time="0/1" value="0" leadInLength="0/1"  />
              </VectorParam>
              <VectorParam id="697"  name="geometryCrop">
               <InterpolatingParam id="698" interp="linr"  time="-9999999/1" value="0" leadInLength="0/1"  />
               <InterpolatingParam id="699" interp="linr"  time="-9999999/1" value="0" leadInLength="0/1"  />
               <InterpolatingParam id="700" interp="linr"  time="-9999999/1" value="0" leadInLength="0/1"  />
               <InterpolatingParam id="701" interp="linr"  time="-9999999/1" value="0" leadInLength="0/1"  />
              </VectorParam>
              <InterpolatingParam id="702" interp="linr"  time="-9999999/1" value="1" leadInLength="0/1"  name="opacity"/>
              <InterpolatingParam id="703" interp="linr"  time="0/1" value="0" leadInLength="0/1"  name="cursorOpacity"/>
              <InterpolatingParam id="704" interp="linr"  time="0/1" value="0" leadInLength="0/1"  name="cursorScale"/>
             </Parameters>
             <Attributes>
              <Attribute id="705" value="" name="ident"/>
             </Attributes>
             <ExtraData>
              <Entry key="ZoomPanBin">
               <ZoomPanBin id="706"  >
                <ZoomPanKeyframes>
                 <ZoomPanKeyframe id="707" timeRangeEnd="-9999999/1" timeRangeDuration="0/1" interpolaterName=""  />
                </ZoomPanKeyframes>
               </ZoomPanBin>
              </Entry>
              <Entry key="CursorEffectBin">
               <CursorEffectBin id="708"  >
                <CursorEffectKeyframes>
                </CursorEffectKeyframes>
               </CursorEffectBin>
              </Entry>
             </ExtraData>
            </ScreenVMFile>
            <MetaData>
             <entry key="AutoAppliedSmartFocus" val="False"/>
             <entry key="WinSubProjectDisplayName" val=""/>
            </MetaData>
           </UnifiedMedia>
           <UnifiedMedia id="709"  >
            <AMFile id="710" start="3454" duration="2" scalar="1/1" mediaStart="4897/1" mediaDuration="2/1" trackNumber="1" src="4" channelNumber="0,1" >
             <Parameters>
              <InterpolatingParam id="711" interp="linr"  time="0/1" value="1" leadInLength="0/1"  name="volume"/>
              <Parameter id="712"  name="captions"/>
             </Parameters>
             <Attributes>
              <Attribute id="713" value="" name="ident"/>
              <Attribute id="714" value="44100" name="sampleRate"/>
              <Attribute id="715" value="16" name="bitDepth"/>
              <Attribute id="716" value="1" name="gain"/>
              <Attribute id="717" value="0" name="mixToMono"/>
             </Attributes>
            </AMFile>
            <ScreenVMFile id="718" start="3454" duration="2" scalar="1/1" mediaStart="4897/1" mediaDuration="2/1" trackNumber="0" src="4" >
             <Transformer>
              <VectorParam id="719"  name="translation">
               <InterpolatingParam id="720" interp="linr"  time="-9999999/1" value="0" leadInLength="0/1"  />
               <InterpolatingParam id="721" interp="linr"  time="-9999999/1" value="0" leadInLength="0/1"  />
               <InterpolatingParam id="722" interp="linr"  time="-9999999/1" value="0" leadInLength="0/1"  />
              </VectorParam>
              <VectorParam id="723"  name="rotation">
               <InterpolatingParam id="724" interp="linr"  time="-9999999/1" value="0" leadInLength="0/1"  />
               <InterpolatingParam id="725" interp="linr"  time="-9999999/1" value="0" leadInLength="0/1"  />
               <InterpolatingParam id="726" interp="linr"  time="-9999999/1" value="0" leadInLength="0/1"  />
              </VectorParam>
              <VectorParam id="727"  name="shear">
               <InterpolatingParam id="728" interp="linr"  time="-9999999/1" value="0" leadInLength="0/1"  />
               <InterpolatingParam id="729" interp="linr"  time="-9999999/1" value="0" leadInLength="0/1"  />
               <InterpolatingParam id="730" interp="linr"  time="-9999999/1" value="0" leadInLength="0/1"  />
              </VectorParam>
              <VectorParam id="731"  name="scale">
               <InterpolatingParam id="732" interp="linr"  time="-9999999/1" value="1" leadInLength="0/1"  />
               <InterpolatingParam id="733" interp="linr"  time="-9999999/1" value="1" leadInLength="0/1"  />
               <InterpolatingParam id="734" interp="linr"  time="-9999999/1" value="1" leadInLength="0/1"  />
              </VectorParam>
              <VectorParam id="735"  name="anchor">
               <InterpolatingParam id="736" interp="linr"  time="0/1" value="0" leadInLength="0/1"  />
               <InterpolatingParam id="737" interp="linr"  time="0/1" value="0" leadInLength="0/1"  />
               <InterpolatingParam id="738" interp="linr"  time="0/1" value="0" leadInLength="0/1"  />
              </VectorParam>
             </Transformer>
             <Parameters>
              <VectorParam id="739"  name="sourceCrop">
               <InterpolatingParam id="740" interp="linr"  time="0/1" value="0" leadInLength="0/1"  />
               <InterpolatingParam id="741" interp="linr"  time="0/1" value="0" leadInLength="0/1"  />
               <InterpolatingParam id="742" interp="linr"  time="0/1" value="0" leadInLength="0/1"  />
               <InterpolatingParam id="743" interp="linr"  time="0/1" value="0" leadInLength="0/1"  />
              </VectorParam>
              <VectorParam id="744"  name="geometryCrop">
               <InterpolatingParam id="745" interp="linr"  time="-9999999/1" value="0" leadInLength="0/1"  />
               <InterpolatingParam id="746" interp="linr"  time="-9999999/1" value="0" leadInLength="0/1"  />
               <InterpolatingParam id="747" interp="linr"  time="-9999999/1" value="0" leadInLength="0/1"  />
               <InterpolatingParam id="748" interp="linr"  time="-9999999/1" value="0" leadInLength="0/1"  />
              </VectorParam>
              <InterpolatingParam id="749" interp="linr"  time="-9999999/1" value="1" leadInLength="0/1"  name="opacity"/>
              <InterpolatingParam id="750" interp="linr"  time="0/1" value="0" leadInLength="0/1"  name="cursorOpacity"/>
              <InterpolatingParam id="751" interp="linr"  time="0/1" value="0" leadInLength="0/1"  name="cursorScale"/>
             </Parameters>
             <Attributes>
              <Attribute id="752" value="" name="ident"/>
             </Attributes>
             <ExtraData>
              <Entry key="ZoomPanBin">
               <ZoomPanBin id="753"  >
                <ZoomPanKeyframes>
                 <ZoomPanKeyframe id="754" timeRangeEnd="-9999999/1" timeRangeDuration="0/1" interpolaterName=""  />
                </ZoomPanKeyframes>
               </ZoomPanBin>
              </Entry>
              <Entry key="CursorEffectBin">
               <CursorEffectBin id="755"  >
                <CursorEffectKeyframes>
                </CursorEffectKeyframes>
               </CursorEffectBin>
              </Entry>
             </ExtraData>
            </ScreenVMFile>
            <MetaData>
             <entry key="AutoAppliedSmartFocus" val="False"/>
             <entry key="WinSubProjectDisplayName" val=""/>
            </MetaData>
           </UnifiedMedia>
           <UnifiedMedia id="756"  >
            <AMFile id="757" start="3456" duration="226" scalar="1/1" mediaStart="5014/1" mediaDuration="226/1" trackNumber="1" src="4" channelNumber="0,1" >
             <Parameters>
              <InterpolatingParam id="758" interp="linr"  time="0/1" value="1" leadInLength="0/1"  name="volume"/>
              <Parameter id="759"  name="captions"/>
             </Parameters>
             <Attributes>
              <Attribute id="760" value="" name="ident"/>
              <Attribute id="761" value="44100" name="sampleRate"/>
              <Attribute id="762" value="16" name="bitDepth"/>
              <Attribute id="763" value="1" name="gain"/>
              <Attribute id="764" value="0" name="mixToMono"/>
             </Attributes>
            </AMFile>
            <ScreenVMFile id="765" start="3456" duration="226" scalar="1/1" mediaStart="5014/1" mediaDuration="226/1" trackNumber="0" src="4" >
             <Transformer>
              <VectorParam id="766"  name="translation">
               <InterpolatingParam id="767" interp="linr"  time="-9999999/1" value="0" leadInLength="0/1"  />
               <InterpolatingParam id="768" interp="linr"  time="-9999999/1" value="0" leadInLength="0/1"  />
               <InterpolatingParam id="769" interp="linr"  time="-9999999/1" value="0" leadInLength="0/1"  />
              </VectorParam>
              <VectorParam id="770"  name="rotation">
               <InterpolatingParam id="771" interp="linr"  time="-9999999/1" value="0" leadInLength="0/1"  />
               <InterpolatingParam id="772" interp="linr"  time="-9999999/1" value="0" leadInLength="0/1"  />
               <InterpolatingParam id="773" interp="linr"  time="-9999999/1" value="0" leadInLength="0/1"  />
              </VectorParam>
              <VectorParam id="774"  name="shear">
               <InterpolatingParam id="775" interp="linr"  time="-9999999/1" value="0" leadInLength="0/1"  />
               <InterpolatingParam id="776" interp="linr"  time="-9999999/1" value="0" leadInLength="0/1"  />
               <InterpolatingParam id="777" interp="linr"  time="-9999999/1" value="0" leadInLength="0/1"  />
              </VectorParam>
              <VectorParam id="778"  name="scale">
               <InterpolatingParam id="779" interp="linr"  time="-9999999/1" value="1" leadInLength="0/1"  />
               <InterpolatingParam id="780" interp="linr"  time="-9999999/1" value="1" leadInLength="0/1"  />
               <InterpolatingParam id="781" interp="linr"  time="-9999999/1" value="1" leadInLength="0/1"  />
              </VectorParam>
              <VectorParam id="782"  name="anchor">
               <InterpolatingParam id="783" interp="linr"  time="0/1" value="0" leadInLength="0/1"  />
               <InterpolatingParam id="784" interp="linr"  time="0/1" value="0" leadInLength="0/1"  />
               <InterpolatingParam id="785" interp="linr"  time="0/1" value="0" leadInLength="0/1"  />
              </VectorParam>
             </Transformer>
             <Parameters>
              <VectorParam id="786"  name="sourceCrop">
               <InterpolatingParam id="787" interp="linr"  time="0/1" value="0" leadInLength="0/1"  />
               <InterpolatingParam id="788" interp="linr"  time="0/1" value="0" leadInLength="0/1"  />
               <InterpolatingParam id="789" interp="linr"  time="0/1" value="0" leadInLength="0/1"  />
               <InterpolatingParam id="790" interp="linr"  time="0/1" value="0" leadInLength="0/1"  />
              </VectorParam>
              <VectorParam id="791"  name="geometryCrop">
               <InterpolatingParam id="792" interp="linr"  time="-9999999/1" value="0" leadInLength="0/1"  />
               <InterpolatingParam id="793" interp="linr"  time="-9999999/1" value="0" leadInLength="0/1"  />
               <InterpolatingParam id="794" interp="linr"  time="-9999999/1" value="0" leadInLength="0/1"  />
               <InterpolatingParam id="795" interp="linr"  time="-9999999/1" value="0" leadInLength="0/1"  />
              </VectorParam>
              <InterpolatingParam id="796" interp="linr"  time="-9999999/1" value="1" leadInLength="0/1"  name="opacity"/>
              <InterpolatingParam id="797" interp="linr"  time="0/1" value="0" leadInLength="0/1"  name="cursorOpacity"/>
              <InterpolatingParam id="798" interp="linr"  time="0/1" value="0" leadInLength="0/1"  name="cursorScale"/>
             </Parameters>
             <Attributes>
              <Attribute id="799" value="" name="ident"/>
             </Attributes>
             <ExtraData>
              <Entry key="ZoomPanBin">
               <ZoomPanBin id="800"  >
                <ZoomPanKeyframes>
                 <ZoomPanKeyframe id="801" timeRangeEnd="-9999999/1" timeRangeDuration="0/1" interpolaterName=""  />
                </ZoomPanKeyframes>
               </ZoomPanBin>
              </Entry>
              <Entry key="CursorEffectBin">
               <CursorEffectBin id="802"  >
                <CursorEffectKeyframes>
                </CursorEffectKeyframes>
               </CursorEffectBin>
              </Entry>
             </ExtraData>
            </ScreenVMFile>
            <MetaData>
             <entry key="AutoAppliedSmartFocus" val="False"/>
             <entry key="WinSubProjectDisplayName" val=""/>
            </MetaData>
           </UnifiedMedia>
           <UnifiedMedia id="803"  >
            <AMFile id="804" start="3682" duration="615" scalar="1/1" mediaStart="5258/1" mediaDuration="615/1" trackNumber="1" src="4" channelNumber="0,1" >
             <Parameters>
              <InterpolatingParam id="805" interp="linr"  time="0/1" value="1" leadInLength="0/1"  name="volume"/>
              <Parameter id="806"  name="captions"/>
             </Parameters>
             <Attributes>
              <Attribute id="807" value="" name="ident"/>
              <Attribute id="808" value="44100" name="sampleRate"/>
              <Attribute id="809" value="16" name="bitDepth"/>
              <Attribute id="810" value="1" name="gain"/>
              <Attribute id="811" value="0" name="mixToMono"/>
             </Attributes>
            </AMFile>
            <ScreenVMFile id="812" start="3682" duration="615" scalar="1/1" mediaStart="5258/1" mediaDuration="615/1" trackNumber="0" src="4" >
             <Transformer>
              <VectorParam id="813"  name="translation">
               <InterpolatingParam id="814" interp="linr"  time="-9999999/1" value="0" leadInLength="0/1"  />
               <InterpolatingParam id="815" interp="linr"  time="-9999999/1" value="0" leadInLength="0/1"  />
               <InterpolatingParam id="816" interp="linr"  time="-9999999/1" value="0" leadInLength="0/1"  />
              </VectorParam>
              <VectorParam id="817"  name="rotation">
               <InterpolatingParam id="818" interp="linr"  time="-9999999/1" value="0" leadInLength="0/1"  />
               <InterpolatingParam id="819" interp="linr"  time="-9999999/1" value="0" leadInLength="0/1"  />
               <InterpolatingParam id="820" interp="linr"  time="-9999999/1" value="0" leadInLength="0/1"  />
              </VectorParam>
              <VectorParam id="821"  name="shear">
               <InterpolatingParam id="822" interp="linr"  time="-9999999/1" value="0" leadInLength="0/1"  />
               <InterpolatingParam id="823" interp="linr"  time="-9999999/1" value="0" leadInLength="0/1"  />
               <InterpolatingParam id="824" interp="linr"  time="-9999999/1" value="0" leadInLength="0/1"  />
              </VectorParam>
              <VectorParam id="825"  name="scale">
               <InterpolatingParam id="826" interp="linr"  time="-9999999/1" value="1" leadInLength="0/1"  />
               <InterpolatingParam id="827" interp="linr"  time="-9999999/1" value="1" leadInLength="0/1"  />
               <InterpolatingParam id="828" interp="linr"  time="-9999999/1" value="1" leadInLength="0/1"  />
              </VectorParam>
              <VectorParam id="829"  name="anchor">
               <InterpolatingParam id="830" interp="linr"  time="0/1" value="0" leadInLength="0/1"  />
               <InterpolatingParam id="831" interp="linr"  time="0/1" value="0" leadInLength="0/1"  />
               <InterpolatingParam id="832" interp="linr"  time="0/1" value="0" leadInLength="0/1"  />
              </VectorParam>
             </Transformer>
             <Parameters>
              <VectorParam id="833"  name="sourceCrop">
               <InterpolatingParam id="834" interp="linr"  time="0/1" value="0" leadInLength="0/1"  />
               <InterpolatingParam id="835" interp="linr"  time="0/1" value="0" leadInLength="0/1"  />
               <InterpolatingParam id="836" interp="linr"  time="0/1" value="0" leadInLength="0/1"  />
               <InterpolatingParam id="837" interp="linr"  time="0/1" value="0" leadInLength="0/1"  />
              </VectorParam>
              <VectorParam id="838"  name="geometryCrop">
               <InterpolatingParam id="839" interp="linr"  time="-9999999/1" value="0" leadInLength="0/1"  />
               <InterpolatingParam id="840" interp="linr"  time="-9999999/1" value="0" leadInLength="0/1"  />
               <InterpolatingParam id="841" interp="linr"  time="-9999999/1" value="0" leadInLength="0/1"  />
               <InterpolatingParam id="842" interp="linr"  time="-9999999/1" value="0" leadInLength="0/1"  />
              </VectorParam>
              <InterpolatingParam id="843" interp="linr"  time="-9999999/1" value="1" leadInLength="0/1"  name="opacity"/>
              <InterpolatingParam id="844" interp="linr"  time="0/1" value="0" leadInLength="0/1"  name="cursorOpacity"/>
              <InterpolatingParam id="845" interp="linr"  time="0/1" value="0" leadInLength="0/1"  name="cursorScale"/>
             </Parameters>
             <Attributes>
              <Attribute id="846" value="" name="ident"/>
             </Attributes>
             <ExtraData>
              <Entry key="ZoomPanBin">
               <ZoomPanBin id="847"  >
                <ZoomPanKeyframes>
                 <ZoomPanKeyframe id="848" timeRangeEnd="-9999999/1" timeRangeDuration="0/1" interpolaterName=""  />
                </ZoomPanKeyframes>
               </ZoomPanBin>
              </Entry>
              <Entry key="CursorEffectBin">
               <CursorEffectBin id="849"  >
                <CursorEffectKeyframes>
                </CursorEffectKeyframes>
               </CursorEffectBin>
              </Entry>
             </ExtraData>
            </ScreenVMFile>
            <MetaData>
             <entry key="AutoAppliedSmartFocus" val="False"/>
             <entry key="WinSubProjectDisplayName" val=""/>
            </MetaData>
           </UnifiedMedia>
           <UnifiedMedia id="850"  >
            <AMFile id="851" start="4297" duration="135" scalar="1/1" mediaStart="6056/1" mediaDuration="135/1" trackNumber="1" src="4" channelNumber="0,1" >
             <Parameters>
              <InterpolatingParam id="852" interp="linr"  time="0/1" value="1" leadInLength="0/1"  name="volume"/>
              <Parameter id="853"  name="captions"/>
             </Parameters>
             <Attributes>
              <Attribute id="854" value="" name="ident"/>
              <Attribute id="855" value="44100" name="sampleRate"/>
              <Attribute id="856" value="16" name="bitDepth"/>
              <Attribute id="857" value="1" name="gain"/>
              <Attribute id="858" value="0" name="mixToMono"/>
             </Attributes>
            </AMFile>
            <ScreenVMFile id="859" start="4297" duration="135" scalar="1/1" mediaStart="6056/1" mediaDuration="135/1" trackNumber="0" src="4" >
             <Transformer>
              <VectorParam id="860"  name="translation">
               <InterpolatingParam id="861" interp="linr"  time="-9999999/1" value="0" leadInLength="0/1"  />
               <InterpolatingParam id="862" interp="linr"  time="-9999999/1" value="0" leadInLength="0/1"  />
               <InterpolatingParam id="863" interp="linr"  time="-9999999/1" value="0" leadInLength="0/1"  />
              </VectorParam>
              <VectorParam id="864"  name="rotation">
               <InterpolatingParam id="865" interp="linr"  time="-9999999/1" value="0" leadInLength="0/1"  />
               <InterpolatingParam id="866" interp="linr"  time="-9999999/1" value="0" leadInLength="0/1"  />
               <InterpolatingParam id="867" interp="linr"  time="-9999999/1" value="0" leadInLength="0/1"  />
              </VectorParam>
              <VectorParam id="868"  name="shear">
               <InterpolatingParam id="869" interp="linr"  time="-9999999/1" value="0" leadInLength="0/1"  />
               <InterpolatingParam id="870" interp="linr"  time="-9999999/1" value="0" leadInLength="0/1"  />
               <InterpolatingParam id="871" interp="linr"  time="-9999999/1" value="0" leadInLength="0/1"  />
              </VectorParam>
              <VectorParam id="872"  name="scale">
               <InterpolatingParam id="873" interp="linr"  time="-9999999/1" value="1" leadInLength="0/1"  />
               <InterpolatingParam id="874" interp="linr"  time="-9999999/1" value="1" leadInLength="0/1"  />
               <InterpolatingParam id="875" interp="linr"  time="-9999999/1" value="1" leadInLength="0/1"  />
              </VectorParam>
              <VectorParam id="876"  name="anchor">
               <InterpolatingParam id="877" interp="linr"  time="0/1" value="0" leadInLength="0/1"  />
               <InterpolatingParam id="878" interp="linr"  time="0/1" value="0" leadInLength="0/1"  />
               <InterpolatingParam id="879" interp="linr"  time="0/1" value="0" leadInLength="0/1"  />
              </VectorParam>
             </Transformer>
             <Parameters>
              <VectorParam id="880"  name="sourceCrop">
               <InterpolatingParam id="881" interp="linr"  time="0/1" value="0" leadInLength="0/1"  />
               <InterpolatingParam id="882" interp="linr"  time="0/1" value="0" leadInLength="0/1"  />
               <InterpolatingParam id="883" interp="linr"  time="0/1" value="0" leadInLength="0/1"  />
               <InterpolatingParam id="884" interp="linr"  time="0/1" value="0" leadInLength="0/1"  />
              </VectorParam>
              <VectorParam id="885"  name="geometryCrop">
               <InterpolatingParam id="886" interp="linr"  time="-9999999/1" value="0" leadInLength="0/1"  />
               <InterpolatingParam id="887" interp="linr"  time="-9999999/1" value="0" leadInLength="0/1"  />
               <InterpolatingParam id="888" interp="linr"  time="-9999999/1" value="0" leadInLength="0/1"  />
               <InterpolatingParam id="889" interp="linr"  time="-9999999/1" value="0" leadInLength="0/1"  />
              </VectorParam>
              <InterpolatingParam id="890" interp="linr"  time="-9999999/1" value="1" leadInLength="0/1"  name="opacity"/>
              <InterpolatingParam id="891" interp="linr"  time="0/1" value="0" leadInLength="0/1"  name="cursorOpacity"/>
              <InterpolatingParam id="892" interp="linr"  time="0/1" value="0" leadInLength="0/1"  name="cursorScale"/>
             </Parameters>
             <Attributes>
              <Attribute id="893" value="" name="ident"/>
             </Attributes>
             <ExtraData>
              <Entry key="ZoomPanBin">
               <ZoomPanBin id="894"  >
                <ZoomPanKeyframes>
                 <ZoomPanKeyframe id="895" timeRangeEnd="-9999999/1" timeRangeDuration="0/1" interpolaterName=""  />
                </ZoomPanKeyframes>
               </ZoomPanBin>
              </Entry>
              <Entry key="CursorEffectBin">
               <CursorEffectBin id="896"  >
                <CursorEffectKeyframes>
                </CursorEffectKeyframes>
               </CursorEffectBin>
              </Entry>
             </ExtraData>
            </ScreenVMFile>
            <MetaData>
             <entry key="AutoAppliedSmartFocus" val="False"/>
             <entry key="WinSubProjectDisplayName" val=""/>
            </MetaData>
           </UnifiedMedia>
           <UnifiedMedia id="897"  >
            <AMFile id="898" start="4432" duration="852" scalar="1/1" mediaStart="6249/1" mediaDuration="852/1" trackNumber="1" src="4" channelNumber="0,1" >
             <Parameters>
              <InterpolatingParam id="899" interp="linr"  time="0/1" value="1" leadInLength="0/1"  name="volume"/>
              <Parameter id="900"  name="captions"/>
             </Parameters>
             <Attributes>
              <Attribute id="901" value="" name="ident"/>
              <Attribute id="902" value="44100" name="sampleRate"/>
              <Attribute id="903" value="16" name="bitDepth"/>
              <Attribute id="904" value="1" name="gain"/>
              <Attribute id="905" value="0" name="mixToMono"/>
             </Attributes>
            </AMFile>
            <ScreenVMFile id="906" start="4432" duration="852" scalar="1/1" mediaStart="6249/1" mediaDuration="852/1" trackNumber="0" src="4" >
             <Transformer>
              <VectorParam id="907"  name="translation">
               <InterpolatingParam id="908" interp="linr"  time="-9999999/1" value="0" leadInLength="0/1"  />
               <InterpolatingParam id="909" interp="linr"  time="-9999999/1" value="0" leadInLength="0/1"  />
               <InterpolatingParam id="910" interp="linr"  time="-9999999/1" value="0" leadInLength="0/1"  />
              </VectorParam>
              <VectorParam id="911"  name="rotation">
               <InterpolatingParam id="912" interp="linr"  time="-9999999/1" value="0" leadInLength="0/1"  />
               <InterpolatingParam id="913" interp="linr"  time="-9999999/1" value="0" leadInLength="0/1"  />
               <InterpolatingParam id="914" interp="linr"  time="-9999999/1" value="0" leadInLength="0/1"  />
              </VectorParam>
              <VectorParam id="915"  name="shear">
               <InterpolatingParam id="916" interp="linr"  time="-9999999/1" value="0" leadInLength="0/1"  />
               <InterpolatingParam id="917" interp="linr"  time="-9999999/1" value="0" leadInLength="0/1"  />
               <InterpolatingParam id="918" interp="linr"  time="-9999999/1" value="0" leadInLength="0/1"  />
              </VectorParam>
              <VectorParam id="919"  name="scale">
               <InterpolatingParam id="920" interp="linr"  time="-9999999/1" value="1" leadInLength="0/1"  />
               <InterpolatingParam id="921" interp="linr"  time="-9999999/1" value="1" leadInLength="0/1"  />
               <InterpolatingParam id="922" interp="linr"  time="-9999999/1" value="1" leadInLength="0/1"  />
              </VectorParam>
              <VectorParam id="923"  name="anchor">
               <InterpolatingParam id="924" interp="linr"  time="0/1" value="0" leadInLength="0/1"  />
               <InterpolatingParam id="925" interp="linr"  time="0/1" value="0" leadInLength="0/1"  />
               <InterpolatingParam id="926" interp="linr"  time="0/1" value="0" leadInLength="0/1"  />
              </VectorParam>
             </Transformer>
             <Parameters>
              <VectorParam id="927"  name="sourceCrop">
               <InterpolatingParam id="928" interp="linr"  time="0/1" value="0" leadInLength="0/1"  />
               <InterpolatingParam id="929" interp="linr"  time="0/1" value="0" leadInLength="0/1"  />
               <InterpolatingParam id="930" interp="linr"  time="0/1" value="0" leadInLength="0/1"  />
               <InterpolatingParam id="931" interp="linr"  time="0/1" value="0" leadInLength="0/1"  />
              </VectorParam>
              <VectorParam id="932"  name="geometryCrop">
               <InterpolatingParam id="933" interp="linr"  time="-9999999/1" value="0" leadInLength="0/1"  />
               <InterpolatingParam id="934" interp="linr"  time="-9999999/1" value="0" leadInLength="0/1"  />
               <InterpolatingParam id="935" interp="linr"  time="-9999999/1" value="0" leadInLength="0/1"  />
               <InterpolatingParam id="936" interp="linr"  time="-9999999/1" value="0" leadInLength="0/1"  />
              </VectorParam>
              <InterpolatingParam id="937" interp="linr"  time="-9999999/1" value="1" leadInLength="0/1"  name="opacity"/>
              <InterpolatingParam id="938" interp="linr"  time="0/1" value="0" leadInLength="0/1"  name="cursorOpacity"/>
              <InterpolatingParam id="939" interp="linr"  time="0/1" value="0" leadInLength="0/1"  name="cursorScale"/>
             </Parameters>
             <Attributes>
              <Attribute id="940" value="" name="ident"/>
             </Attributes>
             <ExtraData>
              <Entry key="ZoomPanBin">
               <ZoomPanBin id="941"  >
                <ZoomPanKeyframes>
                 <ZoomPanKeyframe id="942" timeRangeEnd="-9999999/1" timeRangeDuration="0/1" interpolaterName=""  />
                </ZoomPanKeyframes>
               </ZoomPanBin>
              </Entry>
              <Entry key="CursorEffectBin">
               <CursorEffectBin id="943"  >
                <CursorEffectKeyframes>
                </CursorEffectKeyframes>
               </CursorEffectBin>
              </Entry>
             </ExtraData>
            </ScreenVMFile>
            <MetaData>
             <entry key="AutoAppliedSmartFocus" val="False"/>
             <entry key="WinSubProjectDisplayName" val=""/>
            </MetaData>
           </UnifiedMedia>
           <UnifiedMedia id="944"  >
            <AMFile id="945" start="5284" duration="57" scalar="1/1" mediaStart="7116/1" mediaDuration="57/1" trackNumber="1" src="4" channelNumber="0,1" >
             <Parameters>
              <InterpolatingParam id="946" interp="linr"  time="0/1" value="1" leadInLength="0/1"  name="volume"/>
              <Parameter id="947"  name="captions"/>
             </Parameters>
             <Attributes>
              <Attribute id="948" value="" name="ident"/>
              <Attribute id="949" value="44100" name="sampleRate"/>
              <Attribute id="950" value="16" name="bitDepth"/>
              <Attribute id="951" value="1" name="gain"/>
              <Attribute id="952" value="0" name="mixToMono"/>
             </Attributes>
            </AMFile>
            <ScreenVMFile id="953" start="5284" duration="57" scalar="1/1" mediaStart="7116/1" mediaDuration="57/1" trackNumber="0" src="4" >
             <Transformer>
              <VectorParam id="954"  name="translation">
               <InterpolatingParam id="955" interp="linr"  time="-9999999/1" value="0" leadInLength="0/1"  />
               <InterpolatingParam id="956" interp="linr"  time="-9999999/1" value="0" leadInLength="0/1"  />
               <InterpolatingParam id="957" interp="linr"  time="-9999999/1" value="0" leadInLength="0/1"  />
              </VectorParam>
              <VectorParam id="958"  name="rotation">
               <InterpolatingParam id="959" interp="linr"  time="-9999999/1" value="0" leadInLength="0/1"  />
               <InterpolatingParam id="960" interp="linr"  time="-9999999/1" value="0" leadInLength="0/1"  />
               <InterpolatingParam id="961" interp="linr"  time="-9999999/1" value="0" leadInLength="0/1"  />
              </VectorParam>
              <VectorParam id="962"  name="shear">
               <InterpolatingParam id="963" interp="linr"  time="-9999999/1" value="0" leadInLength="0/1"  />
               <InterpolatingParam id="964" interp="linr"  time="-9999999/1" value="0" leadInLength="0/1"  />
               <InterpolatingParam id="965" interp="linr"  time="-9999999/1" value="0" leadInLength="0/1"  />
              </VectorParam>
              <VectorParam id="966"  name="scale">
               <InterpolatingParam id="967" interp="linr"  time="-9999999/1" value="1" leadInLength="0/1"  />
               <InterpolatingParam id="968" interp="linr"  time="-9999999/1" value="1" leadInLength="0/1"  />
               <InterpolatingParam id="969" interp="linr"  time="-9999999/1" value="1" leadInLength="0/1"  />
              </VectorParam>
              <VectorParam id="970"  name="anchor">
               <InterpolatingParam id="971" interp="linr"  time="0/1" value="0" leadInLength="0/1"  />
               <InterpolatingParam id="972" interp="linr"  time="0/1" value="0" leadInLength="0/1"  />
               <InterpolatingParam id="973" interp="linr"  time="0/1" value="0" leadInLength="0/1"  />
              </VectorParam>
             </Transformer>
             <Parameters>
              <VectorParam id="974"  name="sourceCrop">
               <InterpolatingParam id="975" interp="linr"  time="0/1" value="0" leadInLength="0/1"  />
               <InterpolatingParam id="976" interp="linr"  time="0/1" value="0" leadInLength="0/1"  />
               <InterpolatingParam id="977" interp="linr"  time="0/1" value="0" leadInLength="0/1"  />
               <InterpolatingParam id="978" interp="linr"  time="0/1" value="0" leadInLength="0/1"  />
              </VectorParam>
              <VectorParam id="979"  name="geometryCrop">
               <InterpolatingParam id="980" interp="linr"  time="-9999999/1" value="0" leadInLength="0/1"  />
               <InterpolatingParam id="981" interp="linr"  time="-9999999/1" value="0" leadInLength="0/1"  />
               <InterpolatingParam id="982" interp="linr"  time="-9999999/1" value="0" leadInLength="0/1"  />
               <InterpolatingParam id="983" interp="linr"  time="-9999999/1" value="0" leadInLength="0/1"  />
              </VectorParam>
              <InterpolatingParam id="984" interp="linr"  time="-9999999/1" value="1" leadInLength="0/1"  name="opacity"/>
              <InterpolatingParam id="985" interp="linr"  time="0/1" value="0" leadInLength="0/1"  name="cursorOpacity"/>
              <InterpolatingParam id="986" interp="linr"  time="0/1" value="0" leadInLength="0/1"  name="cursorScale"/>
             </Parameters>
             <Attributes>
              <Attribute id="987" value="" name="ident"/>
             </Attributes>
             <ExtraData>
              <Entry key="ZoomPanBin">
               <ZoomPanBin id="988"  >
                <ZoomPanKeyframes>
                 <ZoomPanKeyframe id="989" timeRangeEnd="-9999999/1" timeRangeDuration="0/1" interpolaterName=""  />
                </ZoomPanKeyframes>
               </ZoomPanBin>
              </Entry>
              <Entry key="CursorEffectBin">
               <CursorEffectBin id="990"  >
                <CursorEffectKeyframes>
                </CursorEffectKeyframes>
               </CursorEffectBin>
              </Entry>
             </ExtraData>
            </ScreenVMFile>
            <MetaData>
             <entry key="AutoAppliedSmartFocus" val="False"/>
             <entry key="WinSubProjectDisplayName" val=""/>
            </MetaData>
           </UnifiedMedia>
           <UnifiedMedia id="991"  >
            <AMFile id="992" start="5341" duration="789" scalar="1/1" mediaStart="7191/1" mediaDuration="789/1" trackNumber="1" src="4" channelNumber="0,1" >
             <Parameters>
              <InterpolatingParam id="993" interp="linr"  time="0/1" value="1" leadInLength="0/1"  name="volume"/>
              <Parameter id="994"  name="captions"/>
             </Parameters>
             <Attributes>
              <Attribute id="995" value="" name="ident"/>
              <Attribute id="996" value="44100" name="sampleRate"/>
              <Attribute id="997" value="16" name="bitDepth"/>
              <Attribute id="998" value="1" name="gain"/>
              <Attribute id="999" value="0" name="mixToMono"/>
             </Attributes>
            </AMFile>
            <ScreenVMFile id="1000" start="5341" duration="789" scalar="1/1" mediaStart="7191/1" mediaDuration="789/1" trackNumber="0" src="4" >
             <Transformer>
              <VectorParam id="1001"  name="translation">
               <InterpolatingParam id="1002" interp="linr"  time="-9999999/1" value="0" leadInLength="0/1"  />
               <InterpolatingParam id="1003" interp="linr"  time="-9999999/1" value="0" leadInLength="0/1"  />
               <InterpolatingParam id="1004" interp="linr"  time="-9999999/1" value="0" leadInLength="0/1"  />
              </VectorParam>
              <VectorParam id="1005"  name="rotation">
               <InterpolatingParam id="1006" interp="linr"  time="-9999999/1" value="0" leadInLength="0/1"  />
               <InterpolatingParam id="1007" interp="linr"  time="-9999999/1" value="0" leadInLength="0/1"  />
               <InterpolatingParam id="1008" interp="linr"  time="-9999999/1" value="0" leadInLength="0/1"  />
              </VectorParam>
              <VectorParam id="1009"  name="shear">
               <InterpolatingParam id="1010" interp="linr"  time="-9999999/1" value="0" leadInLength="0/1"  />
               <InterpolatingParam id="1011" interp="linr"  time="-9999999/1" value="0" leadInLength="0/1"  />
               <InterpolatingParam id="1012" interp="linr"  time="-9999999/1" value="0" leadInLength="0/1"  />
              </VectorParam>
              <VectorParam id="1013"  name="scale">
               <InterpolatingParam id="1014" interp="linr"  time="-9999999/1" value="1" leadInLength="0/1"  />
               <InterpolatingParam id="1015" interp="linr"  time="-9999999/1" value="1" leadInLength="0/1"  />
               <InterpolatingParam id="1016" interp="linr"  time="-9999999/1" value="1" leadInLength="0/1"  />
              </VectorParam>
              <VectorParam id="1017"  name="anchor">
               <InterpolatingParam id="1018" interp="linr"  time="0/1" value="0" leadInLength="0/1"  />
               <InterpolatingParam id="1019" interp="linr"  time="0/1" value="0" leadInLength="0/1"  />
               <InterpolatingParam id="1020" interp="linr"  time="0/1" value="0" leadInLength="0/1"  />
              </VectorParam>
             </Transformer>
             <Parameters>
              <VectorParam id="1021"  name="sourceCrop">
               <InterpolatingParam id="1022" interp="linr"  time="0/1" value="0" leadInLength="0/1"  />
               <InterpolatingParam id="1023" interp="linr"  time="0/1" value="0" leadInLength="0/1"  />
               <InterpolatingParam id="1024" interp="linr"  time="0/1" value="0" leadInLength="0/1"  />
               <InterpolatingParam id="1025" interp="linr"  time="0/1" value="0" leadInLength="0/1"  />
              </VectorParam>
              <VectorParam id="1026"  name="geometryCrop">
               <InterpolatingParam id="1027" interp="linr"  time="-9999999/1" value="0" leadInLength="0/1"  />
               <InterpolatingParam id="1028" interp="linr"  time="-9999999/1" value="0" leadInLength="0/1"  />
               <InterpolatingParam id="1029" interp="linr"  time="-9999999/1" value="0" leadInLength="0/1"  />
               <InterpolatingParam id="1030" interp="linr"  time="-9999999/1" value="0" leadInLength="0/1"  />
              </VectorParam>
              <InterpolatingParam id="1031" interp="linr"  time="-9999999/1" value="1" leadInLength="0/1"  name="opacity"/>
              <InterpolatingParam id="1032" interp="linr"  time="0/1" value="0" leadInLength="0/1"  name="cursorOpacity"/>
              <InterpolatingParam id="1033" interp="linr"  time="0/1" value="0" leadInLength="0/1"  name="cursorScale"/>
             </Parameters>
             <Attributes>
              <Attribute id="1034" value="" name="ident"/>
             </Attributes>
             <ExtraData>
              <Entry key="ZoomPanBin">
               <ZoomPanBin id="1035"  >
                <ZoomPanKeyframes>
                 <ZoomPanKeyframe id="1036" timeRangeEnd="-9999999/1" timeRangeDuration="0/1" interpolaterName=""  />
                </ZoomPanKeyframes>
               </ZoomPanBin>
              </Entry>
              <Entry key="CursorEffectBin">
               <CursorEffectBin id="1037"  >
                <CursorEffectKeyframes>
                </CursorEffectKeyframes>
               </CursorEffectBin>
              </Entry>
             </ExtraData>
            </ScreenVMFile>
            <MetaData>
             <entry key="AutoAppliedSmartFocus" val="False"/>
             <entry key="WinSubProjectDisplayName" val=""/>
            </MetaData>
           </UnifiedMedia>
          </Medias>
         </GenericTrack>
        </StitchedMedia>
       </Medias>
      </GenericTrack>
      <GenericTrack id="1038"  >
       <Attributes>
        <Attribute id="1039" value="" name="ident"/>
        <Attribute id="1040" value="0" name="audioMuted"/>
        <Attribute id="1041" value="0" name="videoHidden"/>
       </Attributes>
       <MetaData>
        <entry key="IsLocked" val="False"/>
        <entry key="WinTrackHeight" val="62"/>
       </MetaData>
       <Medias>
       </Medias>
      </GenericTrack>
     </Tracks>
    </GenericMixer>
   <CaptionAttributes id="1042"  >
    <Attribute id="1043" value="1" name="captionsEnabled"/>
    <Attribute id="1044" value="Arial" name="captionsFontName"/>
    <Attribute id="1045" value="28" name="captionsFontSize"/>
    <Attribute id="1046" value="(0,0,0,255)" name="captionsBackgroundColor"/>
    <Attribute id="1047" value="(255,255,255,255)" name="captionsForegroundColor"/>
    <Attribute id="1048" value="en" name="lang"/>
    <Attribute id="1049" value="0" name="captionsAlignment"/>
    <Attribute id="1050" value="1" name="captionsDefaultFontSize"/>
    <Attribute id="1051" value="0.5" name="captionsOpacity"/>
    <Attribute id="1052" value="1" name="captionsBackgroundEnabled"/>
    <Attribute id="1053" value="1" name="captionsBackgroundOnlyAroundText"/>
   </CaptionAttributes>
   <Parameters>
    <VectorParam id="1054"  name="eyePosition">
     <InterpolatingParam id="1055" interp="linr"  time="0/1" value="0" leadInLength="0/1"  />
     <InterpolatingParam id="1056" interp="linr"  time="0/1" value="0" leadInLength="0/1"  />
     <InterpolatingParam id="1057" interp="linr"  time="0/1" value="3000" leadInLength="0/1"  />
    </VectorParam>
    <VectorParam id="1058"  name="eyeLookAtPosition">
     <InterpolatingParam id="1059" interp="linr"  time="0/1" value="0" leadInLength="0/1"  />
     <InterpolatingParam id="1060" interp="linr"  time="0/1" value="0" leadInLength="0/1"  />
     <InterpolatingParam id="1061" interp="linr"  time="0/1" value="0" leadInLength="0/1"  />
    </VectorParam>
    <VectorParam id="1062"  name="eyeUpVector">
     <InterpolatingParam id="1063" interp="linr"  time="0/1" value="0" leadInLength="0/1"  />
     <InterpolatingParam id="1064" interp="linr"  time="0/1" value="1" leadInLength="0/1"  />
     <InterpolatingParam id="1065" interp="linr"  time="0/1" value="0" leadInLength="0/1"  />
    </VectorParam>
    <InterpolatingParam id="1066" interp="linr"  time="0/1" value="0.23885785" leadInLength="0/1"  name="fov"/>
    <InterpolatingParam id="1067" interp="linr"  time="0/1" value="1.5" leadInLength="0/1"  name="nearClipDistance"/>
    <InterpolatingParam id="1068" interp="linr"  time="0/1" value="6000" leadInLength="0/1"  name="farClipDistance"/>
   </Parameters>
  </Timeline>
 </Project>
</GoProject>
</CSMLData>

</Project_Data>
