<?xml version="1.0"?>
<Project_Data Version="8.00">
<Project_Settings>
<ProfileName></ProfileName>
<ProjectWidth>1366</ProjectWidth>
<ProjectHeight>720</ProjectHeight>
<IsCustomProject>1</IsCustomProject>
<SavedProjectSettings>1</SavedProjectSettings>
<LastFlashTemplate>-1</LastFlashTemplate>
</Project_Settings>


<AutoSaveFile>C:\Users\Junaid\AppData\Local\TechSmith\Camtasia Studio\8.0\Auto-Saves\posting to carriots1f10c1fa.autosave.camproj</AutoSaveFile>

<ProjectID>F3666007-2E93-4894-AE8A-CF7C91BD4ECB</ProjectID>

<PowerPointProject>0</PowerPointProject>

<PowerPointFilename></PowerPointFilename>


<Project_Notes>
</Project_Notes>

<Project_MetaData>
<Project_MetaData_Object>
<FieldArrayKey>8</FieldArrayKey>
<Value>posting to carriots</Value>
</Project_MetaData_Object>
<Project_MetaData_Object>
<FieldArrayKey>13</FieldArrayKey>
<Value>2016-01-20 03:36:07 PM</Value>
</Project_MetaData_Object>
<Project_MetaData_Object>
<FieldArrayKey>16</FieldArrayKey>
<Value>ENU</Value>
</Project_MetaData_Object>
</Project_MetaData>

<CSMLData>
<GoProject id="1" version="3.0" >
 <Project id="2" editRate="30/1" version="3.0" >
  <Author></Author>
  <Comment></Comment>
  <System></System>
  <SourceBin id="3"  >
    <Source id="4" src="C:\Users\Junaid\Desktop\IOT RECO\ardu ethernet carriots.trec" lastMod="20160120T131311" rect="(0,0,1920,1012)" >
      <SourceTrack range="(0,13924)" type="0" editRate="30/1" trackRect="(0,0,1920,1012)" sampleRate="0/1" bitDepth="0" numChannels="0" filename="ardu ethernet carriots.trec!Strack0.tsc2" metaData="ardu ethernet carriots.trec;" />
      <SourceTrack range="(0,13922000)" type="0" editRate="30000/1" trackRect="(0,0,640,480)" sampleRate="0/1" bitDepth="0" numChannels="0" filename="ardu ethernet carriots.trec!Cvideo1.mp4" metaData="" />
      <SourceTrack range="(0,20443136)" type="2" editRate="44100/1" trackRect="(0,0,0,0)" sampleRate="44100/1" bitDepth="16" numChannels="2" filename="ardu ethernet carriots.trec!Maudio2.mp4" metaData="" />
    </Source>
  </SourceBin>
  <Timeline id="5"  >
   <Attributes>
    <Attribute id="6" value="1366" name="width"/>
    <Attribute id="7" value="720" name="height"/>
    <Attribute id="8" value="(0,0,0,255)" name="backgroundColor"/>
   </Attributes>
    <GenericMixer id="9"  name="Unified Mixer">
     <MetaData>
      <entry key="MixerType" val="TimelineMixer"/>
     </MetaData>
     <Tracks>
      <GenericTrack id="10"  >
       <Attributes>
        <Attribute id="11" value="" name="ident"/>
        <Attribute id="12" value="0" name="audioMuted"/>
        <Attribute id="13" value="0" name="videoHidden"/>
       </Attributes>
       <MetaData>
        <entry key="IsLocked" val="False"/>
        <entry key="WinTrackHeight" val="62"/>
       </MetaData>
       <Medias>
        <StitchedMedia id="14" start="0" duration="7146" scalar="1/1" mediaStart="0/1" mediaDuration="7146/1" minMediaStart="0/1" >
         <Transformer>
          <VectorParam id="15"  name="translation">
           <InterpolatingParam id="16" interp="linr"  time="-9999999/1" value="603" leadInLength="0/1"  interpolater="leadin-linr"  />
           <InterpolatingParam id="17" interp="linr"  time="-9999999/1" value="-300" leadInLength="0/1"  interpolater="leadin-linr"  />
           <InterpolatingParam id="18" interp="linr"  time="-9999999/1" value="0" leadInLength="0/1"  interpolater="leadin-linr"  />
          </VectorParam>
          <VectorParam id="19"  name="rotation">
           <InterpolatingParam id="20" interp="linr"  time="-9999999/1" value="0" leadInLength="0/1"  interpolater="leadin-linr"  />
           <InterpolatingParam id="21" interp="linr"  time="-9999999/1" value="0" leadInLength="0/1"  interpolater="leadin-linr"  />
           <InterpolatingParam id="22" interp="linr"  time="-9999999/1" value="0" leadInLength="0/1"  interpolater="leadin-linr"  />
          </VectorParam>
          <VectorParam id="23"  name="shear">
           <InterpolatingParam id="24" interp="linr"  time="-9999999/1" value="0" leadInLength="0/1"  interpolater="leadin-linr"  />
           <InterpolatingParam id="25" interp="linr"  time="-9999999/1" value="0" leadInLength="0/1"  interpolater="leadin-linr"  />
           <InterpolatingParam id="26" interp="linr"  time="-9999999/1" value="0" leadInLength="0/1"  interpolater="leadin-linr"  />
          </VectorParam>
          <VectorParam id="27"  name="scale">
           <InterpolatingParam id="28" interp="linr"  time="-9999999/1" value="0.25" leadInLength="0/1"  interpolater="leadin-linr"  />
           <InterpolatingParam id="29" interp="linr"  time="-9999999/1" value="0.25" leadInLength="0/1"  interpolater="leadin-linr"  />
           <InterpolatingParam id="30" interp="linr"  time="-9999999/1" value="1" leadInLength="0/1"  interpolater="leadin-linr"  />
          </VectorParam>
          <VectorParam id="31"  name="anchor">
           <InterpolatingParam id="32" interp="linr"  time="0/1" value="0" leadInLength="0/1"  />
           <InterpolatingParam id="33" interp="linr"  time="0/1" value="0" leadInLength="0/1"  />
           <InterpolatingParam id="34" interp="linr"  time="0/1" value="0" leadInLength="0/1"  />
          </VectorParam>
         </Transformer>
         <Parameters>
          <VectorParam id="35"  name="sourceCrop">
           <InterpolatingParam id="36" interp="linr"  time="0/1" value="0" leadInLength="0/1"  />
           <InterpolatingParam id="37" interp="linr"  time="0/1" value="0" leadInLength="0/1"  />
           <InterpolatingParam id="38" interp="linr"  time="0/1" value="0" leadInLength="0/1"  />
           <InterpolatingParam id="39" interp="linr"  time="0/1" value="0" leadInLength="0/1"  />
          </VectorParam>
          <VectorParam id="40"  name="geometryCrop">
           <InterpolatingParam id="41" interp="linr"  time="-9999999/1" value="0" leadInLength="0/1"  interpolater="leadin-linr"  />
           <InterpolatingParam id="42" interp="linr"  time="-9999999/1" value="0" leadInLength="0/1"  interpolater="leadin-linr"  />
           <InterpolatingParam id="43" interp="linr"  time="-9999999/1" value="0" leadInLength="0/1"  interpolater="leadin-linr"  />
           <InterpolatingParam id="44" interp="linr"  time="-9999999/1" value="0" leadInLength="0/1"  interpolater="leadin-linr"  />
          </VectorParam>
          <InterpolatingParam id="45" interp="linr"  time="-9999999/1" value="1" leadInLength="0/1"  interpolater="leadin-linr"  name="opacity"/>
          <InterpolatingParam id="46" interp="linr"  time="0/1" value="1" leadInLength="0/1"  name="cursorOpacity"/>
          <InterpolatingParam id="47" interp="linr"  time="0/1" value="1" leadInLength="0/1"  name="cursorScale"/>
          <InterpolatingParam id="48" interp="linr"  time="0/1" value="1" leadInLength="0/1"  name="volume"/>
          <Parameter id="49"  name="captions"/>
         </Parameters>
         <Effects>
          <GenericEffect id="50" name = "NoiseReduction" >
           <Parameters>
           <InterpolatingParam id="51" interp="linr"  time="0/1" value="27.599999999999998" leadInLength="0/1"   name="denoiserAmount"/>
           <InterpolatingParam id="52" interp="linr"  time="0/1" value="2.2799999999999994" leadInLength="0/1"   name="denoiserThreshold"/>
           <Parameter id="53"   name="noiseProfile">
            <Keyframes>
            <Keyframe id="54"  time="0/1" value="FBAAAAIAAABErAAAAQIAAOKPKML/FBXC8L0lwpgnLMI2jz7CoBtNwg2lUsKiR1vC6kZdwuAwWsJ6&#xD;&#xa;+VnCw9lgwlbSb8ILA3TClIptwvnebsKYx3LCsPx7wtjsecIAL3zCs4R9wrkAe8K5DXjC1i56wi9c&#xD;&#xa;ecLMLnrCVpJ6wkRogcLBt4PCcS+FwqFcg8ItEoTClQiIwrechcJJYoPCgGmHwiTOicKczYrCZ1GI&#xD;&#xa;wsgAicLwv4zCYoGOwn50kMKrzJDCHsiRwq2dkcKHdZPCQoOUwkJClMI4n5jC1oCbwmL0lsJozZbC&#xD;&#xa;BrGZwt4elsLls5TCt2KVwumPmMJSoZfCD0yOwg7eisIULJPC2qOZwgJ8mcL/apjConSYwi6vlsL0&#xD;&#xa;4JfCzJSZwl4xl8LCmpTCWW+VwvaImcIh45vCBFuawhNBmsLJXZrCNiCZwuLNlMLHt4zCxMKIwuCO&#xD;&#xa;kcIf2Z7CFKmcwqtFmcKZvJnCIZObwsc/nsLqaJzCy32ews7UoMKl1J7Ck2SfwhvTn8JAX6HCCBSh&#xD;&#xa;wujqoMLr56DC7tSjwuwSpMJ/5aXC416kwuDLoMKyS6LCN/GjwhM3o8LYo6LCoYqlwi69p8KmCKfC&#xD;&#xa;r06owmReqMLboafC7Q+mwkrjp8IZFqjCvLqjwgHfpcLkPKfCzDuown6fpcIMc6XCK6mkwnxxqMIz&#xD;&#xa;3avCzD6wws5pr8LMJqzCJF+pwjRhqsJ+vanC6Yaowtx+qMKzLqjCD0Cqwuoar8KOXq/CGu2twvw2&#xD;&#xa;q8KIqKnCO3GrwrfCq8I6uKzCuIWrwl7/qsKJB6rCe8SrwuMTr8IGyq/CgLWswrj5q8K41arCDcWr&#xD;&#xa;wkyirsKQKKrCXlCowvi1rcKcjq7CSD6twg8QqsK82KrC1SWqwvQDp8Kb7abCmxGowpzIqcKcjq3C&#xD;&#xa;fv+ywpO7s8ISqa3CUpWowgy+p8JUHqvC+32swlC7qsL926rC9H2rwjODqcKo+6nCbT6rwizRp8Lg&#xD;&#xa;CqfCxlSmwp2xpsJEp6jC+beqwrsHq8LveanC6nSswhFmrMIYUajCsGyownLprMKz5K/CGl2uwiHx&#xD;&#xa;rMJKX6rCfHCpwr1GqMJgfabC6FaowpnYq8L0L63CjniswstorcLaFa7Cwt+rwlf2rMJoPq3Ccwuv&#xD;&#xa;wtnPs8LP/LPCV+ixwrDCsMI7xrHCc0SvwrrerMKmg63CBPKwwlLKssKeirPCoLixwvAYs8Lk/7DC&#xD;&#xa;miSvwnObsMKHeK3CGa+vwklstcIZI7jCiIyzwoFxscIdVbDCjbywwjT2s8LMGLPCUpaywiEPtsLp&#xD;&#xa;jrbC+6S0wg4UtMLMvbPCEO+0wi9HtsIWerbCZaK3wmbqtsKuz7PCJTS0wpjNssKBF7LCsgS0woho&#xD;&#xa;tML7pLLC1HexwpIBr8ICUa7CW1OxwmfIs8Jd7bXCPgOzwnboscL6d6/CWkOxwv5btMLcxrjCRg+2&#xD;&#xa;wvC9tMLw3bTCWDO0wkTbtMLjIrTCRSGzwnImssKg8LLCuEmzwjJRs8Jm4bHCBXStwlmqrcI416/C&#xD;&#xa;Gxi0wpULtcJag7PCoF6xwpZYssLYR7XCHq+zwhd+r8JVFLLCvAC1wmGzsMI8F7HC2Iawwr4TsMKt&#xD;&#xa;UrTCo+KzwjMRssLrarHCLvGuwuyqr8Imj7DC/nyuwg1zssJG26/CF5muwoI9sMLkwbDCNb6twlMX&#xD;&#xa;r8I4F7LCxfqxwuCtscJW5bLCokiywq41ssKSwK3CEBOxwsGNtcIcOrXCl4Wywsavs8LcoLbCVh24&#xD;&#xa;wnD2s8Jw+K7CEjixwg+DsMKN4a7CGCewwltqscJYW7LCh3WywvZ0scJo6a/C6oOvwsdtsMLD27HC&#xD;&#xa;lDOywvUutMI+ibjC45a3ws7wtcK8NrfCUyu3wm1KtcJbbLPCio62wmIet8LhcrbChmy0wlXwscJp&#xD;&#xa;cbPCKR+0wj8Rs8L1mLbCvGy5wpyquMJRwLbCEay0whvyssJ+tK/CZ3ukwgnCoMLsqKvCtfm1wgvs&#xD;&#xa;tMKrqLXCtjK7wuIVwsKmv77Cncq5wpiEt8KB97fCJs26wjbOvcJP57zCwK65wnpkucJp97jCgue3&#xD;&#xa;whq+ucLWG7nCBE+6wv7hu8LsibvChNO7wt4DvcL34rzCtji+whJducIserfC4eq5wiD9vcJIAbzC&#xD;&#xa;oFC3wrjitsLHt7fCtJO9wq+/wMJousDCvuO9wjowvcLv4rvC5/W8wj7nvcJ0rbzC85m8wg5Ov8Kv&#xD;&#xa;077CztjAwsz+vsKIKL7CpOG8wh6LusIOcrrC0228wm7BvsKuRbnCQt+5wvXNusJP9LzCYn3AwqOL&#xD;&#xa;wMKMjb7CHhu+wrrdu8LyCbvCqtW9wl5Su8J89rzCOknAwuTRv8JWc8DCpjW+woYZvsIsT7/CFI++&#xD;&#xa;wjYXwMLMdsDCI/C+wtfAu8JwvLzCWLu+wi1Ow8IIrMHCC72+wmiBvMJ++L7CEDXCwnbowcKlHsDC&#xD;&#xa;ypG8whLJvMLhob3ClErBwuyIwsLsPr/CyJK/wuAswcJ/hsPCqnLCwn59w8LgRcTCyzbHwtC5zMI8&#xD;&#xa;vdHCEWrUwggJ2cKuWNfCbGXVwiAC1MKyi9bCiUHUwoK50sKC+tPChqDTwnwk0MI2rdPCfvvXwhoA&#xD;&#xa;18K2ktTCjEvXwiXL18K2OdfCfN/bwkKj2sJIRdLClLzUwqz23cIQ5NbCklHVwt0+18Ko2dfC6WXX&#xD;&#xa;wnwC3MKVlevCsyv1wpNx88IuAuPChMfYwjg03MKU3OnClPvbwtq52MIgZOLC6gnxwkbs9cJIEPjC&#xD;&#xa;wnH4wmBO9sJAFvLC3wwAwx6QKMKhFRXC7r8lwuQoLMIojj7C2BpNwjmlUsJrRlvCjEhdwi41WsL/&#xD;&#xa;+1nCcdpgwhrUb8I9BnTCIY1twmjhbsLUy3LCHQp8whgFesJCQXzC7ot9wtz8esK+DHjCczR6wnNg&#xD;&#xa;ecJxL3rCDpR6whlpgcIGuYPCjDCFwnpdg8LkEoTCtgeIwgmdhcK8Y4PCZGuHwpXMicIuzorCBlKI&#xD;&#xa;wocBicKlwYzCrIKOwlZ4kMKsy5DCtcORwsCfkcIkdZPCj32UwnM/lMJGoJjCQoWbwp3xlsKYw5bC&#xD;&#xa;kaiZwp4ZlsJBsZTCYmGVwmCSmMJ8pJfCP0yOwt/cisIXLZPCUqSZwgt8mcK0apjCx3aYwsKxlsL5&#xD;&#xa;5ZfCeZOZwjszl8KjoZTCW3OVwu6ImcLZ45vCUmKawiZEmsLgY5rC2CaZwqvQlML4tozCcL+IwvSJ&#xD;&#xa;kcIc2J7CNKecwmxEmcLwvJnCyJWbwmlFnsJAaJzCv3yewhzYoMLj0J7CoVufwgnMn8JyVKHCnA+h&#xD;&#xa;wrf5oMJ8+KDCJuOjws0TpMIE6KXC0FukwurPoMIRVKLCRAKkwvowo8JUqqLCZoelwoWtp8LaKKfC&#xD;&#xa;nl6owixTqMKukafC1wumwh7wp8IrHKjCvrqjwvvcpcLGUafCMGOowqXHpcKmtaXCOwmlwgmqqMJ7&#xD;&#xa;GazCnVawwrKur8LrRazCBn2pwvZQqsKT5anCLsWowsKoqMJ9H6jCBFSqwoR6r8JUx6/CUw+uwqAT&#xD;&#xa;q8I3kqnC9ZmrwuwlrMJ6Iq3CeK+rwpESq8LsEarCLLGrwgQ7r8JuDbDCJB+twrVHrMIcAavC5hqs&#xD;&#xa;wm6vrsKWQ6rCCHSowszvrcLx4q7CNNWtwoltqsLGIqvCIYSqwuREp8KoBKfC3CuowrwhqsLeA67C&#xD;&#xa;uyizwqyfs8I/vK3CLuiowm3ip8KYc6vCexitwiT2qsJ69arCaJGrwnmrqcLiLKrC5XGrwur1p8JS&#xD;&#xa;KKfCe02mwo6vpsIX4KjCkhGrwkodq8LtlanCha2swmLkrMI0majCYXCowhTgrMJ+ArDCzJ+uwloe&#xD;&#xa;rcJJj6rCwKqpwi6GqMK3xabCONCowoFyrMKgza3CtwitwlikrcIqOK7C6CqswqBYrcIjNq3C0C+v&#xD;&#xa;wtAatMISHLTCHjWywpZUscJSNLLC3GKvwr4grcK+1q3CNkWxwgcds8KFGLTCaheywmYWs8LWErHC&#xD;&#xa;7HCvwlEyscIIFK7CJCawwkustcK4S7jCkLGzwrS6scKBnrDCHVSxwsRetMIi5bLCJB2zwod2tsL9&#xD;&#xa;97bCPC+1wv61tMI1H7TC/hC1wklHtsImN7bCVqm3wtgjt8LaKLTCjm20wtIfs8IYe7LCVWu0wi/v&#xD;&#xa;tMK9yLLCQgixwuKsrsIWTK7C6lSxwgixs8L8s7XCKhCzws4nssJita/CyG+xwvpNtMJuybjC5hu2&#xD;&#xa;wqWctMKuLrXCLIq0woiqtcIKbLTCCCyzwlAVssKGzLLCHCCzwpYls8LWvbHCoGatwomxrcKZ66/C&#xD;&#xa;0Si0wkwotcISqLPCSEuxwtRPssIWbbXC+M6zwgCkr8L9MbLCPCW1wk7LsMLIErHC1Iiwwm4jsMLZ&#xD;&#xa;bbTCL+6zwuoussLFe7HCLv2uwtjGr8L+r7DC2YeuwshgssJu06/CAJ2uwnxOsMJc8LDCEOGtwl8l&#xD;&#xa;r8KRD7LCjf6xwlm2scLK/bLCekSywicZssKFtK3CQSixwq2WtcJ2ObXCCXqywuets8JunrbCshW4&#xD;&#xa;wnjvs8IZ/K7CdD2xwjqMsMI1567CKBCwwpRJscL6OrLCo2GywkKEscI3CbDCr5uvwmR9sMLSyLHC&#xD;&#xa;UCiywoEstMJurrjCVMK3wuLxtcJ+QrfC9SG3wtpJtcLXaLPC9nK2wugTt8KrZ7bCA3a0wiYissLx&#xD;&#xa;d7PCGyu0wk9Rs8JKv7bCfEy5wjmFuMJ6qbbCsKS0wvT9ssJ5rq/CinykwjjGoMIYrqvCcP+1wj0Y&#xD;&#xa;tcKQnbXCFgq7wgLfwcJNzb7CGuy5wrR2t8Kv+bfCaK66woqHvcJ+0rzCtKe5wgVgucI52rjCoce3&#xD;&#xa;wkTHucJRHbnC5le6wv4IvMKHu7vCPvC7wjT5vMKWzbzC3j6+wqh5ucLZhbfCAOa5wpbxvcK8GLzC&#xD;&#xa;0Fi3wpC5tsItqbfChrO9wuq4wMIOq8DCyQe+wupjvcLW37vCGPe8wnAFvsJEr7zCeJW8wu5Ov8Jr&#xD;&#xa;377CIMbAwqoNv8IaRL7C5s+8wmGAusJFhLrCc5G8wknCvsL0MbnCOsq5wqXVusL/AL3CwKTAwnC2&#xD;&#xa;wMLpob7CBiS+wnLRu8LjBbvCfva9wgNSu8LEwrzCgTLAwnShv8JkMMDCXiq+wmcUvsKMRr/CdHW+&#xD;&#xa;wmAhwMLooMDCHwO/wsjiu8JT+rzCjdq+wlxNw8KqicHCZLK+wkJnvMK8+b7CLg/Cwv/hwcLHCsDC&#xD;&#xa;QYa8wrvPvMLis73CPG/BwkHOwsJsVL/CS5i/wp4CwcJasMPCvJjCwnJ0w8KrI8TCgGXHws7hzMJ6&#xD;&#xa;odHCkojUwtBb2cKe9dbCx7fVwkyh08LKVdbCCM7UwheF08I0KtTC2ObTwo6h0MJ429PCJtPXwvQ+&#xD;&#xa;18Jn5NTCCH7Xwnqu2MJkR9jCnOXbwuyy2sLaMdLC1wzVwrKF3sJeotbCwCPVwnC11sKBkdjC3OvX&#xD;&#xa;whB83MJdtezCPXr2wv9J88LCC+PCPBTZwjGX3MJahunCMzrcwnR52MLWFePCHNT1wryf98JYM/jC&#xD;&#xa;5s76witd+MJAzvXCmUIB" leadInLength="0/1"  />
            </Keyframes>
           </Parameter>
           </Parameters>
           <MetaData>
            <entry key="effectIndex" val="0"/>
           </MetaData>
          </GenericEffect>
         </Effects>
         <Attributes>
          <Attribute id="55" value="" name="ident"/>
          <Attribute id="56" value="0" name="mixToMono"/>
         </Attributes>
         <MetaData>
          <entry key="WinSubProjectDisplayName" val=""/>
         </MetaData>
         <ExtraData>
          <Entry key="ZoomPanBin">
           <ZoomPanBin id="57"  >
            <ZoomPanKeyframes>
             <ZoomPanKeyframe id="58" timeRangeEnd="-9999999/1" timeRangeDuration="0/1" interpolaterName="linr"  />
            </ZoomPanKeyframes>
           </ZoomPanBin>
          </Entry>
          <Entry key="CursorEffectBin">
           <CursorEffectBin id="59"  >
            <CursorEffectKeyframes>
            </CursorEffectKeyframes>
           </CursorEffectBin>
          </Entry>
         </ExtraData>
         <GenericTrack id="60"  >
          <Attributes>
           <Attribute id="61" value="" name="ident"/>
           <Attribute id="62" value="0" name="audioMuted"/>
           <Attribute id="63" value="0" name="videoHidden"/>
          </Attributes>
          <MetaData>
           <entry key="IsLocked" val="False"/>
           <entry key="WinTrackHeight" val="0"/>
          </MetaData>
          <Medias>
           <UnifiedMedia id="64"  >
            <AMFile id="65" start="0" duration="142" scalar="1/1" mediaStart="0/1" mediaDuration="142/1" trackNumber="2" src="4" channelNumber="0,1" >
             <Parameters>
              <InterpolatingParam id="66" interp="linr"  time="0/1" value="1" leadInLength="0/1"  name="volume"/>
              <Parameter id="67"  name="captions"/>
             </Parameters>
             <Attributes>
              <Attribute id="68" value="" name="ident"/>
              <Attribute id="69" value="44100" name="sampleRate"/>
              <Attribute id="70" value="16" name="bitDepth"/>
              <Attribute id="71" value="1" name="gain"/>
              <Attribute id="72" value="0" name="mixToMono"/>
             </Attributes>
            </AMFile>
            <VMFile id="73" start="0" duration="142" scalar="1/1" mediaStart="0/1" mediaDuration="142/1" trackNumber="1" src="4" >
             <Transformer>
              <VectorParam id="74"  name="translation">
               <InterpolatingParam id="75" interp="linr"  time="-9999999/1" value="0" leadInLength="0/1"  />
               <InterpolatingParam id="76" interp="linr"  time="-9999999/1" value="0" leadInLength="0/1"  />
               <InterpolatingParam id="77" interp="linr"  time="-9999999/1" value="0" leadInLength="0/1"  />
              </VectorParam>
              <VectorParam id="78"  name="rotation">
               <InterpolatingParam id="79" interp="linr"  time="-9999999/1" value="0" leadInLength="0/1"  />
               <InterpolatingParam id="80" interp="linr"  time="-9999999/1" value="0" leadInLength="0/1"  />
               <InterpolatingParam id="81" interp="linr"  time="-9999999/1" value="0" leadInLength="0/1"  />
              </VectorParam>
              <VectorParam id="82"  name="shear">
               <InterpolatingParam id="83" interp="linr"  time="-9999999/1" value="0" leadInLength="0/1"  />
               <InterpolatingParam id="84" interp="linr"  time="-9999999/1" value="0" leadInLength="0/1"  />
               <InterpolatingParam id="85" interp="linr"  time="-9999999/1" value="0" leadInLength="0/1"  />
              </VectorParam>
              <VectorParam id="86"  name="scale">
               <InterpolatingParam id="87" interp="linr"  time="-9999999/1" value="1" leadInLength="0/1"  />
               <InterpolatingParam id="88" interp="linr"  time="-9999999/1" value="1" leadInLength="0/1"  />
               <InterpolatingParam id="89" interp="linr"  time="-9999999/1" value="1" leadInLength="0/1"  />
              </VectorParam>
              <VectorParam id="90"  name="anchor">
               <InterpolatingParam id="91" interp="linr"  time="0/1" value="0" leadInLength="0/1"  />
               <InterpolatingParam id="92" interp="linr"  time="0/1" value="0" leadInLength="0/1"  />
               <InterpolatingParam id="93" interp="linr"  time="0/1" value="0" leadInLength="0/1"  />
              </VectorParam>
             </Transformer>
             <Parameters>
              <VectorParam id="94"  name="sourceCrop">
               <InterpolatingParam id="95" interp="linr"  time="0/1" value="0" leadInLength="0/1"  />
               <InterpolatingParam id="96" interp="linr"  time="0/1" value="0" leadInLength="0/1"  />
               <InterpolatingParam id="97" interp="linr"  time="0/1" value="0" leadInLength="0/1"  />
               <InterpolatingParam id="98" interp="linr"  time="0/1" value="0" leadInLength="0/1"  />
              </VectorParam>
              <VectorParam id="99"  name="geometryCrop">
               <InterpolatingParam id="100" interp="linr"  time="-9999999/1" value="0" leadInLength="0/1"  />
               <InterpolatingParam id="101" interp="linr"  time="-9999999/1" value="0" leadInLength="0/1"  />
               <InterpolatingParam id="102" interp="linr"  time="-9999999/1" value="0" leadInLength="0/1"  />
               <InterpolatingParam id="103" interp="linr"  time="-9999999/1" value="0" leadInLength="0/1"  />
              </VectorParam>
              <InterpolatingParam id="104" interp="linr"  time="-9999999/1" value="1" leadInLength="0/1"  name="opacity"/>
             </Parameters>
             <Attributes>
              <Attribute id="105" value="" name="ident"/>
             </Attributes>
             <ExtraData>
              <Entry key="ZoomPanBin">
               <ZoomPanBin id="106"  >
                <ZoomPanKeyframes>
                 <ZoomPanKeyframe id="107" timeRangeEnd="-9999999/1" timeRangeDuration="0/1" interpolaterName=""  />
                </ZoomPanKeyframes>
               </ZoomPanBin>
              </Entry>
             </ExtraData>
            </VMFile>
            <MetaData>
             <entry key="WinSubProjectDisplayName" val=""/>
            </MetaData>
           </UnifiedMedia>
           <UnifiedMedia id="108"  >
            <AMFile id="109" start="142" duration="92" scalar="1/1" mediaStart="158/1" mediaDuration="92/1" trackNumber="2" src="4" channelNumber="0,1" >
             <Parameters>
              <InterpolatingParam id="110" interp="linr"  time="0/1" value="1" leadInLength="0/1"  name="volume"/>
              <Parameter id="111"  name="captions"/>
             </Parameters>
             <Attributes>
              <Attribute id="112" value="" name="ident"/>
              <Attribute id="113" value="44100" name="sampleRate"/>
              <Attribute id="114" value="16" name="bitDepth"/>
              <Attribute id="115" value="1" name="gain"/>
              <Attribute id="116" value="0" name="mixToMono"/>
             </Attributes>
            </AMFile>
            <VMFile id="117" start="142" duration="92" scalar="1/1" mediaStart="158/1" mediaDuration="92/1" trackNumber="1" src="4" >
             <Transformer>
              <VectorParam id="118"  name="translation">
               <InterpolatingParam id="119" interp="linr"  time="-9999999/1" value="0" leadInLength="0/1"  />
               <InterpolatingParam id="120" interp="linr"  time="-9999999/1" value="0" leadInLength="0/1"  />
               <InterpolatingParam id="121" interp="linr"  time="-9999999/1" value="0" leadInLength="0/1"  />
              </VectorParam>
              <VectorParam id="122"  name="rotation">
               <InterpolatingParam id="123" interp="linr"  time="-9999999/1" value="0" leadInLength="0/1"  />
               <InterpolatingParam id="124" interp="linr"  time="-9999999/1" value="0" leadInLength="0/1"  />
               <InterpolatingParam id="125" interp="linr"  time="-9999999/1" value="0" leadInLength="0/1"  />
              </VectorParam>
              <VectorParam id="126"  name="shear">
               <InterpolatingParam id="127" interp="linr"  time="-9999999/1" value="0" leadInLength="0/1"  />
               <InterpolatingParam id="128" interp="linr"  time="-9999999/1" value="0" leadInLength="0/1"  />
               <InterpolatingParam id="129" interp="linr"  time="-9999999/1" value="0" leadInLength="0/1"  />
              </VectorParam>
              <VectorParam id="130"  name="scale">
               <InterpolatingParam id="131" interp="linr"  time="-9999999/1" value="1" leadInLength="0/1"  />
               <InterpolatingParam id="132" interp="linr"  time="-9999999/1" value="1" leadInLength="0/1"  />
               <InterpolatingParam id="133" interp="linr"  time="-9999999/1" value="1" leadInLength="0/1"  />
              </VectorParam>
              <VectorParam id="134"  name="anchor">
               <InterpolatingParam id="135" interp="linr"  time="0/1" value="0" leadInLength="0/1"  />
               <InterpolatingParam id="136" interp="linr"  time="0/1" value="0" leadInLength="0/1"  />
               <InterpolatingParam id="137" interp="linr"  time="0/1" value="0" leadInLength="0/1"  />
              </VectorParam>
             </Transformer>
             <Parameters>
              <VectorParam id="138"  name="sourceCrop">
               <InterpolatingParam id="139" interp="linr"  time="0/1" value="0" leadInLength="0/1"  />
               <InterpolatingParam id="140" interp="linr"  time="0/1" value="0" leadInLength="0/1"  />
               <InterpolatingParam id="141" interp="linr"  time="0/1" value="0" leadInLength="0/1"  />
               <InterpolatingParam id="142" interp="linr"  time="0/1" value="0" leadInLength="0/1"  />
              </VectorParam>
              <VectorParam id="143"  name="geometryCrop">
               <InterpolatingParam id="144" interp="linr"  time="-9999999/1" value="0" leadInLength="0/1"  />
               <InterpolatingParam id="145" interp="linr"  time="-9999999/1" value="0" leadInLength="0/1"  />
               <InterpolatingParam id="146" interp="linr"  time="-9999999/1" value="0" leadInLength="0/1"  />
               <InterpolatingParam id="147" interp="linr"  time="-9999999/1" value="0" leadInLength="0/1"  />
              </VectorParam>
              <InterpolatingParam id="148" interp="linr"  time="-9999999/1" value="1" leadInLength="0/1"  name="opacity"/>
             </Parameters>
             <Attributes>
              <Attribute id="149" value="" name="ident"/>
             </Attributes>
             <ExtraData>
              <Entry key="ZoomPanBin">
               <ZoomPanBin id="150"  >
                <ZoomPanKeyframes>
                 <ZoomPanKeyframe id="151" timeRangeEnd="-9999999/1" timeRangeDuration="0/1" interpolaterName=""  />
                </ZoomPanKeyframes>
               </ZoomPanBin>
              </Entry>
             </ExtraData>
            </VMFile>
            <MetaData>
             <entry key="WinSubProjectDisplayName" val=""/>
            </MetaData>
           </UnifiedMedia>
           <UnifiedMedia id="152"  >
            <AMFile id="153" start="234" duration="1188" scalar="1/1" mediaStart="269/1" mediaDuration="1188/1" trackNumber="2" src="4" channelNumber="0,1" >
             <Parameters>
              <InterpolatingParam id="154" interp="linr"  time="0/1" value="1" leadInLength="0/1"  name="volume"/>
              <Parameter id="155"  name="captions"/>
             </Parameters>
             <Attributes>
              <Attribute id="156" value="" name="ident"/>
              <Attribute id="157" value="44100" name="sampleRate"/>
              <Attribute id="158" value="16" name="bitDepth"/>
              <Attribute id="159" value="1" name="gain"/>
              <Attribute id="160" value="0" name="mixToMono"/>
             </Attributes>
            </AMFile>
            <VMFile id="161" start="234" duration="1188" scalar="1/1" mediaStart="269/1" mediaDuration="1188/1" trackNumber="1" src="4" >
             <Transformer>
              <VectorParam id="162"  name="translation">
               <InterpolatingParam id="163" interp="linr"  time="-9999999/1" value="0" leadInLength="0/1"  />
               <InterpolatingParam id="164" interp="linr"  time="-9999999/1" value="0" leadInLength="0/1"  />
               <InterpolatingParam id="165" interp="linr"  time="-9999999/1" value="0" leadInLength="0/1"  />
              </VectorParam>
              <VectorParam id="166"  name="rotation">
               <InterpolatingParam id="167" interp="linr"  time="-9999999/1" value="0" leadInLength="0/1"  />
               <InterpolatingParam id="168" interp="linr"  time="-9999999/1" value="0" leadInLength="0/1"  />
               <InterpolatingParam id="169" interp="linr"  time="-9999999/1" value="0" leadInLength="0/1"  />
              </VectorParam>
              <VectorParam id="170"  name="shear">
               <InterpolatingParam id="171" interp="linr"  time="-9999999/1" value="0" leadInLength="0/1"  />
               <InterpolatingParam id="172" interp="linr"  time="-9999999/1" value="0" leadInLength="0/1"  />
               <InterpolatingParam id="173" interp="linr"  time="-9999999/1" value="0" leadInLength="0/1"  />
              </VectorParam>
              <VectorParam id="174"  name="scale">
               <InterpolatingParam id="175" interp="linr"  time="-9999999/1" value="1" leadInLength="0/1"  />
               <InterpolatingParam id="176" interp="linr"  time="-9999999/1" value="1" leadInLength="0/1"  />
               <InterpolatingParam id="177" interp="linr"  time="-9999999/1" value="1" leadInLength="0/1"  />
              </VectorParam>
              <VectorParam id="178"  name="anchor">
               <InterpolatingParam id="179" interp="linr"  time="0/1" value="0" leadInLength="0/1"  />
               <InterpolatingParam id="180" interp="linr"  time="0/1" value="0" leadInLength="0/1"  />
               <InterpolatingParam id="181" interp="linr"  time="0/1" value="0" leadInLength="0/1"  />
              </VectorParam>
             </Transformer>
             <Parameters>
              <VectorParam id="182"  name="sourceCrop">
               <InterpolatingParam id="183" interp="linr"  time="0/1" value="0" leadInLength="0/1"  />
               <InterpolatingParam id="184" interp="linr"  time="0/1" value="0" leadInLength="0/1"  />
               <InterpolatingParam id="185" interp="linr"  time="0/1" value="0" leadInLength="0/1"  />
               <InterpolatingParam id="186" interp="linr"  time="0/1" value="0" leadInLength="0/1"  />
              </VectorParam>
              <VectorParam id="187"  name="geometryCrop">
               <InterpolatingParam id="188" interp="linr"  time="-9999999/1" value="0" leadInLength="0/1"  />
               <InterpolatingParam id="189" interp="linr"  time="-9999999/1" value="0" leadInLength="0/1"  />
               <InterpolatingParam id="190" interp="linr"  time="-9999999/1" value="0" leadInLength="0/1"  />
               <InterpolatingParam id="191" interp="linr"  time="-9999999/1" value="0" leadInLength="0/1"  />
              </VectorParam>
              <InterpolatingParam id="192" interp="linr"  time="-9999999/1" value="1" leadInLength="0/1"  name="opacity"/>
             </Parameters>
             <Attributes>
              <Attribute id="193" value="" name="ident"/>
             </Attributes>
             <ExtraData>
              <Entry key="ZoomPanBin">
               <ZoomPanBin id="194"  >
                <ZoomPanKeyframes>
                 <ZoomPanKeyframe id="195" timeRangeEnd="-9999999/1" timeRangeDuration="0/1" interpolaterName=""  />
                </ZoomPanKeyframes>
               </ZoomPanBin>
              </Entry>
             </ExtraData>
            </VMFile>
            <MetaData>
             <entry key="WinSubProjectDisplayName" val=""/>
            </MetaData>
           </UnifiedMedia>
           <UnifiedMedia id="196"  >
            <AMFile id="197" start="1422" duration="776" scalar="1/1" mediaStart="1485/1" mediaDuration="776/1" trackNumber="2" src="4" channelNumber="0,1" >
             <Parameters>
              <InterpolatingParam id="198" interp="linr"  time="0/1" value="1" leadInLength="0/1"  name="volume"/>
              <Parameter id="199"  name="captions"/>
             </Parameters>
             <Attributes>
              <Attribute id="200" value="" name="ident"/>
              <Attribute id="201" value="44100" name="sampleRate"/>
              <Attribute id="202" value="16" name="bitDepth"/>
              <Attribute id="203" value="1" name="gain"/>
              <Attribute id="204" value="0" name="mixToMono"/>
             </Attributes>
            </AMFile>
            <VMFile id="205" start="1422" duration="776" scalar="1/1" mediaStart="1485/1" mediaDuration="776/1" trackNumber="1" src="4" >
             <Transformer>
              <VectorParam id="206"  name="translation">
               <InterpolatingParam id="207" interp="linr"  time="-9999999/1" value="0" leadInLength="0/1"  />
               <InterpolatingParam id="208" interp="linr"  time="-9999999/1" value="0" leadInLength="0/1"  />
               <InterpolatingParam id="209" interp="linr"  time="-9999999/1" value="0" leadInLength="0/1"  />
              </VectorParam>
              <VectorParam id="210"  name="rotation">
               <InterpolatingParam id="211" interp="linr"  time="-9999999/1" value="0" leadInLength="0/1"  />
               <InterpolatingParam id="212" interp="linr"  time="-9999999/1" value="0" leadInLength="0/1"  />
               <InterpolatingParam id="213" interp="linr"  time="-9999999/1" value="0" leadInLength="0/1"  />
              </VectorParam>
              <VectorParam id="214"  name="shear">
               <InterpolatingParam id="215" interp="linr"  time="-9999999/1" value="0" leadInLength="0/1"  />
               <InterpolatingParam id="216" interp="linr"  time="-9999999/1" value="0" leadInLength="0/1"  />
               <InterpolatingParam id="217" interp="linr"  time="-9999999/1" value="0" leadInLength="0/1"  />
              </VectorParam>
              <VectorParam id="218"  name="scale">
               <InterpolatingParam id="219" interp="linr"  time="-9999999/1" value="1" leadInLength="0/1"  />
               <InterpolatingParam id="220" interp="linr"  time="-9999999/1" value="1" leadInLength="0/1"  />
               <InterpolatingParam id="221" interp="linr"  time="-9999999/1" value="1" leadInLength="0/1"  />
              </VectorParam>
              <VectorParam id="222"  name="anchor">
               <InterpolatingParam id="223" interp="linr"  time="0/1" value="0" leadInLength="0/1"  />
               <InterpolatingParam id="224" interp="linr"  time="0/1" value="0" leadInLength="0/1"  />
               <InterpolatingParam id="225" interp="linr"  time="0/1" value="0" leadInLength="0/1"  />
              </VectorParam>
             </Transformer>
             <Parameters>
              <VectorParam id="226"  name="sourceCrop">
               <InterpolatingParam id="227" interp="linr"  time="0/1" value="0" leadInLength="0/1"  />
               <InterpolatingParam id="228" interp="linr"  time="0/1" value="0" leadInLength="0/1"  />
               <InterpolatingParam id="229" interp="linr"  time="0/1" value="0" leadInLength="0/1"  />
               <InterpolatingParam id="230" interp="linr"  time="0/1" value="0" leadInLength="0/1"  />
              </VectorParam>
              <VectorParam id="231"  name="geometryCrop">
               <InterpolatingParam id="232" interp="linr"  time="-9999999/1" value="0" leadInLength="0/1"  />
               <InterpolatingParam id="233" interp="linr"  time="-9999999/1" value="0" leadInLength="0/1"  />
               <InterpolatingParam id="234" interp="linr"  time="-9999999/1" value="0" leadInLength="0/1"  />
               <InterpolatingParam id="235" interp="linr"  time="-9999999/1" value="0" leadInLength="0/1"  />
              </VectorParam>
              <InterpolatingParam id="236" interp="linr"  time="-9999999/1" value="1" leadInLength="0/1"  name="opacity"/>
             </Parameters>
             <Attributes>
              <Attribute id="237" value="" name="ident"/>
             </Attributes>
             <ExtraData>
              <Entry key="ZoomPanBin">
               <ZoomPanBin id="238"  >
                <ZoomPanKeyframes>
                 <ZoomPanKeyframe id="239" timeRangeEnd="-9999999/1" timeRangeDuration="0/1" interpolaterName=""  />
                </ZoomPanKeyframes>
               </ZoomPanBin>
              </Entry>
             </ExtraData>
            </VMFile>
            <MetaData>
             <entry key="WinSubProjectDisplayName" val=""/>
            </MetaData>
           </UnifiedMedia>
           <UnifiedMedia id="240"  >
            <AMFile id="241" start="2198" duration="359" scalar="1/1" mediaStart="2295/1" mediaDuration="359/1" trackNumber="2" src="4" channelNumber="0,1" >
             <Parameters>
              <InterpolatingParam id="242" interp="linr"  time="0/1" value="1" leadInLength="0/1"  name="volume"/>
              <Parameter id="243"  name="captions"/>
             </Parameters>
             <Attributes>
              <Attribute id="244" value="" name="ident"/>
              <Attribute id="245" value="44100" name="sampleRate"/>
              <Attribute id="246" value="16" name="bitDepth"/>
              <Attribute id="247" value="1" name="gain"/>
              <Attribute id="248" value="0" name="mixToMono"/>
             </Attributes>
            </AMFile>
            <VMFile id="249" start="2198" duration="359" scalar="1/1" mediaStart="2295/1" mediaDuration="359/1" trackNumber="1" src="4" >
             <Transformer>
              <VectorParam id="250"  name="translation">
               <InterpolatingParam id="251" interp="linr"  time="-9999999/1" value="0" leadInLength="0/1"  />
               <InterpolatingParam id="252" interp="linr"  time="-9999999/1" value="0" leadInLength="0/1"  />
               <InterpolatingParam id="253" interp="linr"  time="-9999999/1" value="0" leadInLength="0/1"  />
              </VectorParam>
              <VectorParam id="254"  name="rotation">
               <InterpolatingParam id="255" interp="linr"  time="-9999999/1" value="0" leadInLength="0/1"  />
               <InterpolatingParam id="256" interp="linr"  time="-9999999/1" value="0" leadInLength="0/1"  />
               <InterpolatingParam id="257" interp="linr"  time="-9999999/1" value="0" leadInLength="0/1"  />
              </VectorParam>
              <VectorParam id="258"  name="shear">
               <InterpolatingParam id="259" interp="linr"  time="-9999999/1" value="0" leadInLength="0/1"  />
               <InterpolatingParam id="260" interp="linr"  time="-9999999/1" value="0" leadInLength="0/1"  />
               <InterpolatingParam id="261" interp="linr"  time="-9999999/1" value="0" leadInLength="0/1"  />
              </VectorParam>
              <VectorParam id="262"  name="scale">
               <InterpolatingParam id="263" interp="linr"  time="-9999999/1" value="1" leadInLength="0/1"  />
               <InterpolatingParam id="264" interp="linr"  time="-9999999/1" value="1" leadInLength="0/1"  />
               <InterpolatingParam id="265" interp="linr"  time="-9999999/1" value="1" leadInLength="0/1"  />
              </VectorParam>
              <VectorParam id="266"  name="anchor">
               <InterpolatingParam id="267" interp="linr"  time="0/1" value="0" leadInLength="0/1"  />
               <InterpolatingParam id="268" interp="linr"  time="0/1" value="0" leadInLength="0/1"  />
               <InterpolatingParam id="269" interp="linr"  time="0/1" value="0" leadInLength="0/1"  />
              </VectorParam>
             </Transformer>
             <Parameters>
              <VectorParam id="270"  name="sourceCrop">
               <InterpolatingParam id="271" interp="linr"  time="0/1" value="0" leadInLength="0/1"  />
               <InterpolatingParam id="272" interp="linr"  time="0/1" value="0" leadInLength="0/1"  />
               <InterpolatingParam id="273" interp="linr"  time="0/1" value="0" leadInLength="0/1"  />
               <InterpolatingParam id="274" interp="linr"  time="0/1" value="0" leadInLength="0/1"  />
              </VectorParam>
              <VectorParam id="275"  name="geometryCrop">
               <InterpolatingParam id="276" interp="linr"  time="-9999999/1" value="0" leadInLength="0/1"  />
               <InterpolatingParam id="277" interp="linr"  time="-9999999/1" value="0" leadInLength="0/1"  />
               <InterpolatingParam id="278" interp="linr"  time="-9999999/1" value="0" leadInLength="0/1"  />
               <InterpolatingParam id="279" interp="linr"  time="-9999999/1" value="0" leadInLength="0/1"  />
              </VectorParam>
              <InterpolatingParam id="280" interp="linr"  time="-9999999/1" value="1" leadInLength="0/1"  name="opacity"/>
             </Parameters>
             <Attributes>
              <Attribute id="281" value="" name="ident"/>
             </Attributes>
             <ExtraData>
              <Entry key="ZoomPanBin">
               <ZoomPanBin id="282"  >
                <ZoomPanKeyframes>
                 <ZoomPanKeyframe id="283" timeRangeEnd="-9999999/1" timeRangeDuration="0/1" interpolaterName=""  />
                </ZoomPanKeyframes>
               </ZoomPanBin>
              </Entry>
             </ExtraData>
            </VMFile>
            <MetaData>
             <entry key="WinSubProjectDisplayName" val=""/>
            </MetaData>
           </UnifiedMedia>
           <UnifiedMedia id="284"  >
            <AMFile id="285" start="2557" duration="1" scalar="1/1" mediaStart="2670/1" mediaDuration="1/1" trackNumber="2" src="4" channelNumber="0,1" >
             <Parameters>
              <InterpolatingParam id="286" interp="linr"  time="0/1" value="1" leadInLength="0/1"  name="volume"/>
              <Parameter id="287"  name="captions"/>
             </Parameters>
             <Attributes>
              <Attribute id="288" value="" name="ident"/>
              <Attribute id="289" value="44100" name="sampleRate"/>
              <Attribute id="290" value="16" name="bitDepth"/>
              <Attribute id="291" value="1" name="gain"/>
              <Attribute id="292" value="0" name="mixToMono"/>
             </Attributes>
            </AMFile>
            <VMFile id="293" start="2557" duration="1" scalar="1/1" mediaStart="2670/1" mediaDuration="1/1" trackNumber="1" src="4" >
             <Transformer>
              <VectorParam id="294"  name="translation">
               <InterpolatingParam id="295" interp="linr"  time="-9999999/1" value="0" leadInLength="0/1"  />
               <InterpolatingParam id="296" interp="linr"  time="-9999999/1" value="0" leadInLength="0/1"  />
               <InterpolatingParam id="297" interp="linr"  time="-9999999/1" value="0" leadInLength="0/1"  />
              </VectorParam>
              <VectorParam id="298"  name="rotation">
               <InterpolatingParam id="299" interp="linr"  time="-9999999/1" value="0" leadInLength="0/1"  />
               <InterpolatingParam id="300" interp="linr"  time="-9999999/1" value="0" leadInLength="0/1"  />
               <InterpolatingParam id="301" interp="linr"  time="-9999999/1" value="0" leadInLength="0/1"  />
              </VectorParam>
              <VectorParam id="302"  name="shear">
               <InterpolatingParam id="303" interp="linr"  time="-9999999/1" value="0" leadInLength="0/1"  />
               <InterpolatingParam id="304" interp="linr"  time="-9999999/1" value="0" leadInLength="0/1"  />
               <InterpolatingParam id="305" interp="linr"  time="-9999999/1" value="0" leadInLength="0/1"  />
              </VectorParam>
              <VectorParam id="306"  name="scale">
               <InterpolatingParam id="307" interp="linr"  time="-9999999/1" value="1" leadInLength="0/1"  />
               <InterpolatingParam id="308" interp="linr"  time="-9999999/1" value="1" leadInLength="0/1"  />
               <InterpolatingParam id="309" interp="linr"  time="-9999999/1" value="1" leadInLength="0/1"  />
              </VectorParam>
              <VectorParam id="310"  name="anchor">
               <InterpolatingParam id="311" interp="linr"  time="0/1" value="0" leadInLength="0/1"  />
               <InterpolatingParam id="312" interp="linr"  time="0/1" value="0" leadInLength="0/1"  />
               <InterpolatingParam id="313" interp="linr"  time="0/1" value="0" leadInLength="0/1"  />
              </VectorParam>
             </Transformer>
             <Parameters>
              <VectorParam id="314"  name="sourceCrop">
               <InterpolatingParam id="315" interp="linr"  time="0/1" value="0" leadInLength="0/1"  />
               <InterpolatingParam id="316" interp="linr"  time="0/1" value="0" leadInLength="0/1"  />
               <InterpolatingParam id="317" interp="linr"  time="0/1" value="0" leadInLength="0/1"  />
               <InterpolatingParam id="318" interp="linr"  time="0/1" value="0" leadInLength="0/1"  />
              </VectorParam>
              <VectorParam id="319"  name="geometryCrop">
               <InterpolatingParam id="320" interp="linr"  time="-9999999/1" value="0" leadInLength="0/1"  />
               <InterpolatingParam id="321" interp="linr"  time="-9999999/1" value="0" leadInLength="0/1"  />
               <InterpolatingParam id="322" interp="linr"  time="-9999999/1" value="0" leadInLength="0/1"  />
               <InterpolatingParam id="323" interp="linr"  time="-9999999/1" value="0" leadInLength="0/1"  />
              </VectorParam>
              <InterpolatingParam id="324" interp="linr"  time="-9999999/1" value="1" leadInLength="0/1"  name="opacity"/>
             </Parameters>
             <Attributes>
              <Attribute id="325" value="" name="ident"/>
             </Attributes>
             <ExtraData>
              <Entry key="ZoomPanBin">
               <ZoomPanBin id="326"  >
                <ZoomPanKeyframes>
                 <ZoomPanKeyframe id="327" timeRangeEnd="-9999999/1" timeRangeDuration="0/1" interpolaterName=""  />
                </ZoomPanKeyframes>
               </ZoomPanBin>
              </Entry>
             </ExtraData>
            </VMFile>
            <MetaData>
             <entry key="WinSubProjectDisplayName" val=""/>
            </MetaData>
           </UnifiedMedia>
           <UnifiedMedia id="328"  >
            <AMFile id="329" start="2558" duration="418" scalar="1/1" mediaStart="2798/1" mediaDuration="418/1" trackNumber="2" src="4" channelNumber="0,1" >
             <Parameters>
              <InterpolatingParam id="330" interp="linr"  time="0/1" value="1" leadInLength="0/1"  name="volume"/>
              <Parameter id="331"  name="captions"/>
             </Parameters>
             <Attributes>
              <Attribute id="332" value="" name="ident"/>
              <Attribute id="333" value="44100" name="sampleRate"/>
              <Attribute id="334" value="16" name="bitDepth"/>
              <Attribute id="335" value="1" name="gain"/>
              <Attribute id="336" value="0" name="mixToMono"/>
             </Attributes>
            </AMFile>
            <VMFile id="337" start="2558" duration="418" scalar="1/1" mediaStart="2798/1" mediaDuration="418/1" trackNumber="1" src="4" >
             <Transformer>
              <VectorParam id="338"  name="translation">
               <InterpolatingParam id="339" interp="linr"  time="-9999999/1" value="0" leadInLength="0/1"  />
               <InterpolatingParam id="340" interp="linr"  time="-9999999/1" value="0" leadInLength="0/1"  />
               <InterpolatingParam id="341" interp="linr"  time="-9999999/1" value="0" leadInLength="0/1"  />
              </VectorParam>
              <VectorParam id="342"  name="rotation">
               <InterpolatingParam id="343" interp="linr"  time="-9999999/1" value="0" leadInLength="0/1"  />
               <InterpolatingParam id="344" interp="linr"  time="-9999999/1" value="0" leadInLength="0/1"  />
               <InterpolatingParam id="345" interp="linr"  time="-9999999/1" value="0" leadInLength="0/1"  />
              </VectorParam>
              <VectorParam id="346"  name="shear">
               <InterpolatingParam id="347" interp="linr"  time="-9999999/1" value="0" leadInLength="0/1"  />
               <InterpolatingParam id="348" interp="linr"  time="-9999999/1" value="0" leadInLength="0/1"  />
               <InterpolatingParam id="349" interp="linr"  time="-9999999/1" value="0" leadInLength="0/1"  />
              </VectorParam>
              <VectorParam id="350"  name="scale">
               <InterpolatingParam id="351" interp="linr"  time="-9999999/1" value="1" leadInLength="0/1"  />
               <InterpolatingParam id="352" interp="linr"  time="-9999999/1" value="1" leadInLength="0/1"  />
               <InterpolatingParam id="353" interp="linr"  time="-9999999/1" value="1" leadInLength="0/1"  />
              </VectorParam>
              <VectorParam id="354"  name="anchor">
               <InterpolatingParam id="355" interp="linr"  time="0/1" value="0" leadInLength="0/1"  />
               <InterpolatingParam id="356" interp="linr"  time="0/1" value="0" leadInLength="0/1"  />
               <InterpolatingParam id="357" interp="linr"  time="0/1" value="0" leadInLength="0/1"  />
              </VectorParam>
             </Transformer>
             <Parameters>
              <VectorParam id="358"  name="sourceCrop">
               <InterpolatingParam id="359" interp="linr"  time="0/1" value="0" leadInLength="0/1"  />
               <InterpolatingParam id="360" interp="linr"  time="0/1" value="0" leadInLength="0/1"  />
               <InterpolatingParam id="361" interp="linr"  time="0/1" value="0" leadInLength="0/1"  />
               <InterpolatingParam id="362" interp="linr"  time="0/1" value="0" leadInLength="0/1"  />
              </VectorParam>
              <VectorParam id="363"  name="geometryCrop">
               <InterpolatingParam id="364" interp="linr"  time="-9999999/1" value="0" leadInLength="0/1"  />
               <InterpolatingParam id="365" interp="linr"  time="-9999999/1" value="0" leadInLength="0/1"  />
               <InterpolatingParam id="366" interp="linr"  time="-9999999/1" value="0" leadInLength="0/1"  />
               <InterpolatingParam id="367" interp="linr"  time="-9999999/1" value="0" leadInLength="0/1"  />
              </VectorParam>
              <InterpolatingParam id="368" interp="linr"  time="-9999999/1" value="1" leadInLength="0/1"  name="opacity"/>
             </Parameters>
             <Attributes>
              <Attribute id="369" value="" name="ident"/>
             </Attributes>
             <ExtraData>
              <Entry key="ZoomPanBin">
               <ZoomPanBin id="370"  >
                <ZoomPanKeyframes>
                 <ZoomPanKeyframe id="371" timeRangeEnd="-9999999/1" timeRangeDuration="0/1" interpolaterName=""  />
                </ZoomPanKeyframes>
               </ZoomPanBin>
              </Entry>
             </ExtraData>
            </VMFile>
            <MetaData>
             <entry key="WinSubProjectDisplayName" val=""/>
            </MetaData>
           </UnifiedMedia>
           <UnifiedMedia id="372"  >
            <AMFile id="373" start="2976" duration="247" scalar="1/1" mediaStart="3250/1" mediaDuration="247/1" trackNumber="2" src="4" channelNumber="0,1" >
             <Parameters>
              <InterpolatingParam id="374" interp="linr"  time="0/1" value="1" leadInLength="0/1"  name="volume"/>
              <Parameter id="375"  name="captions"/>
             </Parameters>
             <Attributes>
              <Attribute id="376" value="" name="ident"/>
              <Attribute id="377" value="44100" name="sampleRate"/>
              <Attribute id="378" value="16" name="bitDepth"/>
              <Attribute id="379" value="1" name="gain"/>
              <Attribute id="380" value="0" name="mixToMono"/>
             </Attributes>
            </AMFile>
            <VMFile id="381" start="2976" duration="247" scalar="1/1" mediaStart="3250/1" mediaDuration="247/1" trackNumber="1" src="4" >
             <Transformer>
              <VectorParam id="382"  name="translation">
               <InterpolatingParam id="383" interp="linr"  time="-9999999/1" value="0" leadInLength="0/1"  />
               <InterpolatingParam id="384" interp="linr"  time="-9999999/1" value="0" leadInLength="0/1"  />
               <InterpolatingParam id="385" interp="linr"  time="-9999999/1" value="0" leadInLength="0/1"  />
              </VectorParam>
              <VectorParam id="386"  name="rotation">
               <InterpolatingParam id="387" interp="linr"  time="-9999999/1" value="0" leadInLength="0/1"  />
               <InterpolatingParam id="388" interp="linr"  time="-9999999/1" value="0" leadInLength="0/1"  />
               <InterpolatingParam id="389" interp="linr"  time="-9999999/1" value="0" leadInLength="0/1"  />
              </VectorParam>
              <VectorParam id="390"  name="shear">
               <InterpolatingParam id="391" interp="linr"  time="-9999999/1" value="0" leadInLength="0/1"  />
               <InterpolatingParam id="392" interp="linr"  time="-9999999/1" value="0" leadInLength="0/1"  />
               <InterpolatingParam id="393" interp="linr"  time="-9999999/1" value="0" leadInLength="0/1"  />
              </VectorParam>
              <VectorParam id="394"  name="scale">
               <InterpolatingParam id="395" interp="linr"  time="-9999999/1" value="1" leadInLength="0/1"  />
               <InterpolatingParam id="396" interp="linr"  time="-9999999/1" value="1" leadInLength="0/1"  />
               <InterpolatingParam id="397" interp="linr"  time="-9999999/1" value="1" leadInLength="0/1"  />
              </VectorParam>
              <VectorParam id="398"  name="anchor">
               <InterpolatingParam id="399" interp="linr"  time="0/1" value="0" leadInLength="0/1"  />
               <InterpolatingParam id="400" interp="linr"  time="0/1" value="0" leadInLength="0/1"  />
               <InterpolatingParam id="401" interp="linr"  time="0/1" value="0" leadInLength="0/1"  />
              </VectorParam>
             </Transformer>
             <Parameters>
              <VectorParam id="402"  name="sourceCrop">
               <InterpolatingParam id="403" interp="linr"  time="0/1" value="0" leadInLength="0/1"  />
               <InterpolatingParam id="404" interp="linr"  time="0/1" value="0" leadInLength="0/1"  />
               <InterpolatingParam id="405" interp="linr"  time="0/1" value="0" leadInLength="0/1"  />
               <InterpolatingParam id="406" interp="linr"  time="0/1" value="0" leadInLength="0/1"  />
              </VectorParam>
              <VectorParam id="407"  name="geometryCrop">
               <InterpolatingParam id="408" interp="linr"  time="-9999999/1" value="0" leadInLength="0/1"  />
               <InterpolatingParam id="409" interp="linr"  time="-9999999/1" value="0" leadInLength="0/1"  />
               <InterpolatingParam id="410" interp="linr"  time="-9999999/1" value="0" leadInLength="0/1"  />
               <InterpolatingParam id="411" interp="linr"  time="-9999999/1" value="0" leadInLength="0/1"  />
              </VectorParam>
              <InterpolatingParam id="412" interp="linr"  time="-9999999/1" value="1" leadInLength="0/1"  name="opacity"/>
             </Parameters>
             <Attributes>
              <Attribute id="413" value="" name="ident"/>
             </Attributes>
             <ExtraData>
              <Entry key="ZoomPanBin">
               <ZoomPanBin id="414"  >
                <ZoomPanKeyframes>
                 <ZoomPanKeyframe id="415" timeRangeEnd="-9999999/1" timeRangeDuration="0/1" interpolaterName=""  />
                </ZoomPanKeyframes>
               </ZoomPanBin>
              </Entry>
             </ExtraData>
            </VMFile>
            <MetaData>
             <entry key="WinSubProjectDisplayName" val=""/>
            </MetaData>
           </UnifiedMedia>
           <UnifiedMedia id="416"  >
            <AMFile id="417" start="3223" duration="63" scalar="1/1" mediaStart="3630/1" mediaDuration="63/1" trackNumber="2" src="4" channelNumber="0,1" >
             <Parameters>
              <InterpolatingParam id="418" interp="linr"  time="0/1" value="1" leadInLength="0/1"  name="volume"/>
              <Parameter id="419"  name="captions"/>
             </Parameters>
             <Attributes>
              <Attribute id="420" value="" name="ident"/>
              <Attribute id="421" value="44100" name="sampleRate"/>
              <Attribute id="422" value="16" name="bitDepth"/>
              <Attribute id="423" value="1" name="gain"/>
              <Attribute id="424" value="0" name="mixToMono"/>
             </Attributes>
            </AMFile>
            <VMFile id="425" start="3223" duration="63" scalar="1/1" mediaStart="3630/1" mediaDuration="63/1" trackNumber="1" src="4" >
             <Transformer>
              <VectorParam id="426"  name="translation">
               <InterpolatingParam id="427" interp="linr"  time="-9999999/1" value="0" leadInLength="0/1"  />
               <InterpolatingParam id="428" interp="linr"  time="-9999999/1" value="0" leadInLength="0/1"  />
               <InterpolatingParam id="429" interp="linr"  time="-9999999/1" value="0" leadInLength="0/1"  />
              </VectorParam>
              <VectorParam id="430"  name="rotation">
               <InterpolatingParam id="431" interp="linr"  time="-9999999/1" value="0" leadInLength="0/1"  />
               <InterpolatingParam id="432" interp="linr"  time="-9999999/1" value="0" leadInLength="0/1"  />
               <InterpolatingParam id="433" interp="linr"  time="-9999999/1" value="0" leadInLength="0/1"  />
              </VectorParam>
              <VectorParam id="434"  name="shear">
               <InterpolatingParam id="435" interp="linr"  time="-9999999/1" value="0" leadInLength="0/1"  />
               <InterpolatingParam id="436" interp="linr"  time="-9999999/1" value="0" leadInLength="0/1"  />
               <InterpolatingParam id="437" interp="linr"  time="-9999999/1" value="0" leadInLength="0/1"  />
              </VectorParam>
              <VectorParam id="438"  name="scale">
               <InterpolatingParam id="439" interp="linr"  time="-9999999/1" value="1" leadInLength="0/1"  />
               <InterpolatingParam id="440" interp="linr"  time="-9999999/1" value="1" leadInLength="0/1"  />
               <InterpolatingParam id="441" interp="linr"  time="-9999999/1" value="1" leadInLength="0/1"  />
              </VectorParam>
              <VectorParam id="442"  name="anchor">
               <InterpolatingParam id="443" interp="linr"  time="0/1" value="0" leadInLength="0/1"  />
               <InterpolatingParam id="444" interp="linr"  time="0/1" value="0" leadInLength="0/1"  />
               <InterpolatingParam id="445" interp="linr"  time="0/1" value="0" leadInLength="0/1"  />
              </VectorParam>
             </Transformer>
             <Parameters>
              <VectorParam id="446"  name="sourceCrop">
               <InterpolatingParam id="447" interp="linr"  time="0/1" value="0" leadInLength="0/1"  />
               <InterpolatingParam id="448" interp="linr"  time="0/1" value="0" leadInLength="0/1"  />
               <InterpolatingParam id="449" interp="linr"  time="0/1" value="0" leadInLength="0/1"  />
               <InterpolatingParam id="450" interp="linr"  time="0/1" value="0" leadInLength="0/1"  />
              </VectorParam>
              <VectorParam id="451"  name="geometryCrop">
               <InterpolatingParam id="452" interp="linr"  time="-9999999/1" value="0" leadInLength="0/1"  />
               <InterpolatingParam id="453" interp="linr"  time="-9999999/1" value="0" leadInLength="0/1"  />
               <InterpolatingParam id="454" interp="linr"  time="-9999999/1" value="0" leadInLength="0/1"  />
               <InterpolatingParam id="455" interp="linr"  time="-9999999/1" value="0" leadInLength="0/1"  />
              </VectorParam>
              <InterpolatingParam id="456" interp="linr"  time="-9999999/1" value="1" leadInLength="0/1"  name="opacity"/>
             </Parameters>
             <Attributes>
              <Attribute id="457" value="" name="ident"/>
             </Attributes>
             <ExtraData>
              <Entry key="ZoomPanBin">
               <ZoomPanBin id="458"  >
                <ZoomPanKeyframes>
                 <ZoomPanKeyframe id="459" timeRangeEnd="-9999999/1" timeRangeDuration="0/1" interpolaterName=""  />
                </ZoomPanKeyframes>
               </ZoomPanBin>
              </Entry>
             </ExtraData>
            </VMFile>
            <MetaData>
             <entry key="WinSubProjectDisplayName" val=""/>
            </MetaData>
           </UnifiedMedia>
           <UnifiedMedia id="460"  >
            <AMFile id="461" start="3286" duration="1" scalar="1/1" mediaStart="3778/1" mediaDuration="1/1" trackNumber="2" src="4" channelNumber="0,1" >
             <Parameters>
              <InterpolatingParam id="462" interp="linr"  time="0/1" value="1" leadInLength="0/1"  name="volume"/>
              <Parameter id="463"  name="captions"/>
             </Parameters>
             <Attributes>
              <Attribute id="464" value="" name="ident"/>
              <Attribute id="465" value="44100" name="sampleRate"/>
              <Attribute id="466" value="16" name="bitDepth"/>
              <Attribute id="467" value="1" name="gain"/>
              <Attribute id="468" value="0" name="mixToMono"/>
             </Attributes>
            </AMFile>
            <VMFile id="469" start="3286" duration="1" scalar="1/1" mediaStart="3778/1" mediaDuration="1/1" trackNumber="1" src="4" >
             <Transformer>
              <VectorParam id="470"  name="translation">
               <InterpolatingParam id="471" interp="linr"  time="-9999999/1" value="0" leadInLength="0/1"  />
               <InterpolatingParam id="472" interp="linr"  time="-9999999/1" value="0" leadInLength="0/1"  />
               <InterpolatingParam id="473" interp="linr"  time="-9999999/1" value="0" leadInLength="0/1"  />
              </VectorParam>
              <VectorParam id="474"  name="rotation">
               <InterpolatingParam id="475" interp="linr"  time="-9999999/1" value="0" leadInLength="0/1"  />
               <InterpolatingParam id="476" interp="linr"  time="-9999999/1" value="0" leadInLength="0/1"  />
               <InterpolatingParam id="477" interp="linr"  time="-9999999/1" value="0" leadInLength="0/1"  />
              </VectorParam>
              <VectorParam id="478"  name="shear">
               <InterpolatingParam id="479" interp="linr"  time="-9999999/1" value="0" leadInLength="0/1"  />
               <InterpolatingParam id="480" interp="linr"  time="-9999999/1" value="0" leadInLength="0/1"  />
               <InterpolatingParam id="481" interp="linr"  time="-9999999/1" value="0" leadInLength="0/1"  />
              </VectorParam>
              <VectorParam id="482"  name="scale">
               <InterpolatingParam id="483" interp="linr"  time="-9999999/1" value="1" leadInLength="0/1"  />
               <InterpolatingParam id="484" interp="linr"  time="-9999999/1" value="1" leadInLength="0/1"  />
               <InterpolatingParam id="485" interp="linr"  time="-9999999/1" value="1" leadInLength="0/1"  />
              </VectorParam>
              <VectorParam id="486"  name="anchor">
               <InterpolatingParam id="487" interp="linr"  time="0/1" value="0" leadInLength="0/1"  />
               <InterpolatingParam id="488" interp="linr"  time="0/1" value="0" leadInLength="0/1"  />
               <InterpolatingParam id="489" interp="linr"  time="0/1" value="0" leadInLength="0/1"  />
              </VectorParam>
             </Transformer>
             <Parameters>
              <VectorParam id="490"  name="sourceCrop">
               <InterpolatingParam id="491" interp="linr"  time="0/1" value="0" leadInLength="0/1"  />
               <InterpolatingParam id="492" interp="linr"  time="0/1" value="0" leadInLength="0/1"  />
               <InterpolatingParam id="493" interp="linr"  time="0/1" value="0" leadInLength="0/1"  />
               <InterpolatingParam id="494" interp="linr"  time="0/1" value="0" leadInLength="0/1"  />
              </VectorParam>
              <VectorParam id="495"  name="geometryCrop">
               <InterpolatingParam id="496" interp="linr"  time="-9999999/1" value="0" leadInLength="0/1"  />
               <InterpolatingParam id="497" interp="linr"  time="-9999999/1" value="0" leadInLength="0/1"  />
               <InterpolatingParam id="498" interp="linr"  time="-9999999/1" value="0" leadInLength="0/1"  />
               <InterpolatingParam id="499" interp="linr"  time="-9999999/1" value="0" leadInLength="0/1"  />
              </VectorParam>
              <InterpolatingParam id="500" interp="linr"  time="-9999999/1" value="1" leadInLength="0/1"  name="opacity"/>
             </Parameters>
             <Attributes>
              <Attribute id="501" value="" name="ident"/>
             </Attributes>
             <ExtraData>
              <Entry key="ZoomPanBin">
               <ZoomPanBin id="502"  >
                <ZoomPanKeyframes>
                 <ZoomPanKeyframe id="503" timeRangeEnd="-9999999/1" timeRangeDuration="0/1" interpolaterName=""  />
                </ZoomPanKeyframes>
               </ZoomPanBin>
              </Entry>
             </ExtraData>
            </VMFile>
            <MetaData>
             <entry key="WinSubProjectDisplayName" val=""/>
            </MetaData>
           </UnifiedMedia>
           <UnifiedMedia id="504"  >
            <AMFile id="505" start="3287" duration="6" scalar="1/1" mediaStart="3788/1" mediaDuration="6/1" trackNumber="2" src="4" channelNumber="0,1" >
             <Parameters>
              <InterpolatingParam id="506" interp="linr"  time="0/1" value="1" leadInLength="0/1"  name="volume"/>
              <Parameter id="507"  name="captions"/>
             </Parameters>
             <Attributes>
              <Attribute id="508" value="" name="ident"/>
              <Attribute id="509" value="44100" name="sampleRate"/>
              <Attribute id="510" value="16" name="bitDepth"/>
              <Attribute id="511" value="1" name="gain"/>
              <Attribute id="512" value="0" name="mixToMono"/>
             </Attributes>
            </AMFile>
            <VMFile id="513" start="3287" duration="6" scalar="1/1" mediaStart="3788/1" mediaDuration="6/1" trackNumber="1" src="4" >
             <Transformer>
              <VectorParam id="514"  name="translation">
               <InterpolatingParam id="515" interp="linr"  time="-9999999/1" value="0" leadInLength="0/1"  />
               <InterpolatingParam id="516" interp="linr"  time="-9999999/1" value="0" leadInLength="0/1"  />
               <InterpolatingParam id="517" interp="linr"  time="-9999999/1" value="0" leadInLength="0/1"  />
              </VectorParam>
              <VectorParam id="518"  name="rotation">
               <InterpolatingParam id="519" interp="linr"  time="-9999999/1" value="0" leadInLength="0/1"  />
               <InterpolatingParam id="520" interp="linr"  time="-9999999/1" value="0" leadInLength="0/1"  />
               <InterpolatingParam id="521" interp="linr"  time="-9999999/1" value="0" leadInLength="0/1"  />
              </VectorParam>
              <VectorParam id="522"  name="shear">
               <InterpolatingParam id="523" interp="linr"  time="-9999999/1" value="0" leadInLength="0/1"  />
               <InterpolatingParam id="524" interp="linr"  time="-9999999/1" value="0" leadInLength="0/1"  />
               <InterpolatingParam id="525" interp="linr"  time="-9999999/1" value="0" leadInLength="0/1"  />
              </VectorParam>
              <VectorParam id="526"  name="scale">
               <InterpolatingParam id="527" interp="linr"  time="-9999999/1" value="1" leadInLength="0/1"  />
               <InterpolatingParam id="528" interp="linr"  time="-9999999/1" value="1" leadInLength="0/1"  />
               <InterpolatingParam id="529" interp="linr"  time="-9999999/1" value="1" leadInLength="0/1"  />
              </VectorParam>
              <VectorParam id="530"  name="anchor">
               <InterpolatingParam id="531" interp="linr"  time="0/1" value="0" leadInLength="0/1"  />
               <InterpolatingParam id="532" interp="linr"  time="0/1" value="0" leadInLength="0/1"  />
               <InterpolatingParam id="533" interp="linr"  time="0/1" value="0" leadInLength="0/1"  />
              </VectorParam>
             </Transformer>
             <Parameters>
              <VectorParam id="534"  name="sourceCrop">
               <InterpolatingParam id="535" interp="linr"  time="0/1" value="0" leadInLength="0/1"  />
               <InterpolatingParam id="536" interp="linr"  time="0/1" value="0" leadInLength="0/1"  />
               <InterpolatingParam id="537" interp="linr"  time="0/1" value="0" leadInLength="0/1"  />
               <InterpolatingParam id="538" interp="linr"  time="0/1" value="0" leadInLength="0/1"  />
              </VectorParam>
              <VectorParam id="539"  name="geometryCrop">
               <InterpolatingParam id="540" interp="linr"  time="-9999999/1" value="0" leadInLength="0/1"  />
               <InterpolatingParam id="541" interp="linr"  time="-9999999/1" value="0" leadInLength="0/1"  />
               <InterpolatingParam id="542" interp="linr"  time="-9999999/1" value="0" leadInLength="0/1"  />
               <InterpolatingParam id="543" interp="linr"  time="-9999999/1" value="0" leadInLength="0/1"  />
              </VectorParam>
              <InterpolatingParam id="544" interp="linr"  time="-9999999/1" value="1" leadInLength="0/1"  name="opacity"/>
             </Parameters>
             <Attributes>
              <Attribute id="545" value="" name="ident"/>
             </Attributes>
             <ExtraData>
              <Entry key="ZoomPanBin">
               <ZoomPanBin id="546"  >
                <ZoomPanKeyframes>
                 <ZoomPanKeyframe id="547" timeRangeEnd="-9999999/1" timeRangeDuration="0/1" interpolaterName=""  />
                </ZoomPanKeyframes>
               </ZoomPanBin>
              </Entry>
             </ExtraData>
            </VMFile>
            <MetaData>
             <entry key="WinSubProjectDisplayName" val=""/>
            </MetaData>
           </UnifiedMedia>
           <UnifiedMedia id="548"  >
            <AMFile id="549" start="3293" duration="211" scalar="1/1" mediaStart="3861/1" mediaDuration="211/1" trackNumber="2" src="4" channelNumber="0,1" >
             <Parameters>
              <InterpolatingParam id="550" interp="linr"  time="0/1" value="1" leadInLength="0/1"  name="volume"/>
              <Parameter id="551"  name="captions"/>
             </Parameters>
             <Attributes>
              <Attribute id="552" value="" name="ident"/>
              <Attribute id="553" value="44100" name="sampleRate"/>
              <Attribute id="554" value="16" name="bitDepth"/>
              <Attribute id="555" value="1" name="gain"/>
              <Attribute id="556" value="0" name="mixToMono"/>
             </Attributes>
            </AMFile>
            <VMFile id="557" start="3293" duration="211" scalar="1/1" mediaStart="3861/1" mediaDuration="211/1" trackNumber="1" src="4" >
             <Transformer>
              <VectorParam id="558"  name="translation">
               <InterpolatingParam id="559" interp="linr"  time="-9999999/1" value="0" leadInLength="0/1"  />
               <InterpolatingParam id="560" interp="linr"  time="-9999999/1" value="0" leadInLength="0/1"  />
               <InterpolatingParam id="561" interp="linr"  time="-9999999/1" value="0" leadInLength="0/1"  />
              </VectorParam>
              <VectorParam id="562"  name="rotation">
               <InterpolatingParam id="563" interp="linr"  time="-9999999/1" value="0" leadInLength="0/1"  />
               <InterpolatingParam id="564" interp="linr"  time="-9999999/1" value="0" leadInLength="0/1"  />
               <InterpolatingParam id="565" interp="linr"  time="-9999999/1" value="0" leadInLength="0/1"  />
              </VectorParam>
              <VectorParam id="566"  name="shear">
               <InterpolatingParam id="567" interp="linr"  time="-9999999/1" value="0" leadInLength="0/1"  />
               <InterpolatingParam id="568" interp="linr"  time="-9999999/1" value="0" leadInLength="0/1"  />
               <InterpolatingParam id="569" interp="linr"  time="-9999999/1" value="0" leadInLength="0/1"  />
              </VectorParam>
              <VectorParam id="570"  name="scale">
               <InterpolatingParam id="571" interp="linr"  time="-9999999/1" value="1" leadInLength="0/1"  />
               <InterpolatingParam id="572" interp="linr"  time="-9999999/1" value="1" leadInLength="0/1"  />
               <InterpolatingParam id="573" interp="linr"  time="-9999999/1" value="1" leadInLength="0/1"  />
              </VectorParam>
              <VectorParam id="574"  name="anchor">
               <InterpolatingParam id="575" interp="linr"  time="0/1" value="0" leadInLength="0/1"  />
               <InterpolatingParam id="576" interp="linr"  time="0/1" value="0" leadInLength="0/1"  />
               <InterpolatingParam id="577" interp="linr"  time="0/1" value="0" leadInLength="0/1"  />
              </VectorParam>
             </Transformer>
             <Parameters>
              <VectorParam id="578"  name="sourceCrop">
               <InterpolatingParam id="579" interp="linr"  time="0/1" value="0" leadInLength="0/1"  />
               <InterpolatingParam id="580" interp="linr"  time="0/1" value="0" leadInLength="0/1"  />
               <InterpolatingParam id="581" interp="linr"  time="0/1" value="0" leadInLength="0/1"  />
               <InterpolatingParam id="582" interp="linr"  time="0/1" value="0" leadInLength="0/1"  />
              </VectorParam>
              <VectorParam id="583"  name="geometryCrop">
               <InterpolatingParam id="584" interp="linr"  time="-9999999/1" value="0" leadInLength="0/1"  />
               <InterpolatingParam id="585" interp="linr"  time="-9999999/1" value="0" leadInLength="0/1"  />
               <InterpolatingParam id="586" interp="linr"  time="-9999999/1" value="0" leadInLength="0/1"  />
               <InterpolatingParam id="587" interp="linr"  time="-9999999/1" value="0" leadInLength="0/1"  />
              </VectorParam>
              <InterpolatingParam id="588" interp="linr"  time="-9999999/1" value="1" leadInLength="0/1"  name="opacity"/>
             </Parameters>
             <Attributes>
              <Attribute id="589" value="" name="ident"/>
             </Attributes>
             <ExtraData>
              <Entry key="ZoomPanBin">
               <ZoomPanBin id="590"  >
                <ZoomPanKeyframes>
                 <ZoomPanKeyframe id="591" timeRangeEnd="-9999999/1" timeRangeDuration="0/1" interpolaterName=""  />
                </ZoomPanKeyframes>
               </ZoomPanBin>
              </Entry>
             </ExtraData>
            </VMFile>
            <MetaData>
             <entry key="WinSubProjectDisplayName" val=""/>
            </MetaData>
           </UnifiedMedia>
           <UnifiedMedia id="592"  >
            <AMFile id="593" start="3504" duration="1479" scalar="1/1" mediaStart="4102/1" mediaDuration="1479/1" trackNumber="2" src="4" channelNumber="0,1" >
             <Parameters>
              <InterpolatingParam id="594" interp="linr"  time="0/1" value="1" leadInLength="0/1"  name="volume"/>
              <Parameter id="595"  name="captions"/>
             </Parameters>
             <Attributes>
              <Attribute id="596" value="" name="ident"/>
              <Attribute id="597" value="44100" name="sampleRate"/>
              <Attribute id="598" value="16" name="bitDepth"/>
              <Attribute id="599" value="1" name="gain"/>
              <Attribute id="600" value="0" name="mixToMono"/>
             </Attributes>
            </AMFile>
            <VMFile id="601" start="3504" duration="1479" scalar="1/1" mediaStart="4102/1" mediaDuration="1479/1" trackNumber="1" src="4" >
             <Transformer>
              <VectorParam id="602"  name="translation">
               <InterpolatingParam id="603" interp="linr"  time="-9999999/1" value="0" leadInLength="0/1"  />
               <InterpolatingParam id="604" interp="linr"  time="-9999999/1" value="0" leadInLength="0/1"  />
               <InterpolatingParam id="605" interp="linr"  time="-9999999/1" value="0" leadInLength="0/1"  />
              </VectorParam>
              <VectorParam id="606"  name="rotation">
               <InterpolatingParam id="607" interp="linr"  time="-9999999/1" value="0" leadInLength="0/1"  />
               <InterpolatingParam id="608" interp="linr"  time="-9999999/1" value="0" leadInLength="0/1"  />
               <InterpolatingParam id="609" interp="linr"  time="-9999999/1" value="0" leadInLength="0/1"  />
              </VectorParam>
              <VectorParam id="610"  name="shear">
               <InterpolatingParam id="611" interp="linr"  time="-9999999/1" value="0" leadInLength="0/1"  />
               <InterpolatingParam id="612" interp="linr"  time="-9999999/1" value="0" leadInLength="0/1"  />
               <InterpolatingParam id="613" interp="linr"  time="-9999999/1" value="0" leadInLength="0/1"  />
              </VectorParam>
              <VectorParam id="614"  name="scale">
               <InterpolatingParam id="615" interp="linr"  time="-9999999/1" value="1" leadInLength="0/1"  />
               <InterpolatingParam id="616" interp="linr"  time="-9999999/1" value="1" leadInLength="0/1"  />
               <InterpolatingParam id="617" interp="linr"  time="-9999999/1" value="1" leadInLength="0/1"  />
              </VectorParam>
              <VectorParam id="618"  name="anchor">
               <InterpolatingParam id="619" interp="linr"  time="0/1" value="0" leadInLength="0/1"  />
               <InterpolatingParam id="620" interp="linr"  time="0/1" value="0" leadInLength="0/1"  />
               <InterpolatingParam id="621" interp="linr"  time="0/1" value="0" leadInLength="0/1"  />
              </VectorParam>
             </Transformer>
             <Parameters>
              <VectorParam id="622"  name="sourceCrop">
               <InterpolatingParam id="623" interp="linr"  time="0/1" value="0" leadInLength="0/1"  />
               <InterpolatingParam id="624" interp="linr"  time="0/1" value="0" leadInLength="0/1"  />
               <InterpolatingParam id="625" interp="linr"  time="0/1" value="0" leadInLength="0/1"  />
               <InterpolatingParam id="626" interp="linr"  time="0/1" value="0" leadInLength="0/1"  />
              </VectorParam>
              <VectorParam id="627"  name="geometryCrop">
               <InterpolatingParam id="628" interp="linr"  time="-9999999/1" value="0" leadInLength="0/1"  />
               <InterpolatingParam id="629" interp="linr"  time="-9999999/1" value="0" leadInLength="0/1"  />
               <InterpolatingParam id="630" interp="linr"  time="-9999999/1" value="0" leadInLength="0/1"  />
               <InterpolatingParam id="631" interp="linr"  time="-9999999/1" value="0" leadInLength="0/1"  />
              </VectorParam>
              <InterpolatingParam id="632" interp="linr"  time="-9999999/1" value="1" leadInLength="0/1"  name="opacity"/>
             </Parameters>
             <Attributes>
              <Attribute id="633" value="" name="ident"/>
             </Attributes>
             <ExtraData>
              <Entry key="ZoomPanBin">
               <ZoomPanBin id="634"  >
                <ZoomPanKeyframes>
                 <ZoomPanKeyframe id="635" timeRangeEnd="-9999999/1" timeRangeDuration="0/1" interpolaterName=""  />
                </ZoomPanKeyframes>
               </ZoomPanBin>
              </Entry>
             </ExtraData>
            </VMFile>
            <MetaData>
             <entry key="WinSubProjectDisplayName" val=""/>
            </MetaData>
           </UnifiedMedia>
           <UnifiedMedia id="636"  >
            <AMFile id="637" start="4983" duration="339" scalar="1/1" mediaStart="5614/1" mediaDuration="339/1" trackNumber="2" src="4" channelNumber="0,1" >
             <Parameters>
              <InterpolatingParam id="638" interp="linr"  time="0/1" value="1" leadInLength="0/1"  name="volume"/>
              <Parameter id="639"  name="captions"/>
             </Parameters>
             <Attributes>
              <Attribute id="640" value="" name="ident"/>
              <Attribute id="641" value="44100" name="sampleRate"/>
              <Attribute id="642" value="16" name="bitDepth"/>
              <Attribute id="643" value="1" name="gain"/>
              <Attribute id="644" value="0" name="mixToMono"/>
             </Attributes>
            </AMFile>
            <VMFile id="645" start="4983" duration="339" scalar="1/1" mediaStart="5614/1" mediaDuration="339/1" trackNumber="1" src="4" >
             <Transformer>
              <VectorParam id="646"  name="translation">
               <InterpolatingParam id="647" interp="linr"  time="-9999999/1" value="0" leadInLength="0/1"  />
               <InterpolatingParam id="648" interp="linr"  time="-9999999/1" value="0" leadInLength="0/1"  />
               <InterpolatingParam id="649" interp="linr"  time="-9999999/1" value="0" leadInLength="0/1"  />
              </VectorParam>
              <VectorParam id="650"  name="rotation">
               <InterpolatingParam id="651" interp="linr"  time="-9999999/1" value="0" leadInLength="0/1"  />
               <InterpolatingParam id="652" interp="linr"  time="-9999999/1" value="0" leadInLength="0/1"  />
               <InterpolatingParam id="653" interp="linr"  time="-9999999/1" value="0" leadInLength="0/1"  />
              </VectorParam>
              <VectorParam id="654"  name="shear">
               <InterpolatingParam id="655" interp="linr"  time="-9999999/1" value="0" leadInLength="0/1"  />
               <InterpolatingParam id="656" interp="linr"  time="-9999999/1" value="0" leadInLength="0/1"  />
               <InterpolatingParam id="657" interp="linr"  time="-9999999/1" value="0" leadInLength="0/1"  />
              </VectorParam>
              <VectorParam id="658"  name="scale">
               <InterpolatingParam id="659" interp="linr"  time="-9999999/1" value="1" leadInLength="0/1"  />
               <InterpolatingParam id="660" interp="linr"  time="-9999999/1" value="1" leadInLength="0/1"  />
               <InterpolatingParam id="661" interp="linr"  time="-9999999/1" value="1" leadInLength="0/1"  />
              </VectorParam>
              <VectorParam id="662"  name="anchor">
               <InterpolatingParam id="663" interp="linr"  time="0/1" value="0" leadInLength="0/1"  />
               <InterpolatingParam id="664" interp="linr"  time="0/1" value="0" leadInLength="0/1"  />
               <InterpolatingParam id="665" interp="linr"  time="0/1" value="0" leadInLength="0/1"  />
              </VectorParam>
             </Transformer>
             <Parameters>
              <VectorParam id="666"  name="sourceCrop">
               <InterpolatingParam id="667" interp="linr"  time="0/1" value="0" leadInLength="0/1"  />
               <InterpolatingParam id="668" interp="linr"  time="0/1" value="0" leadInLength="0/1"  />
               <InterpolatingParam id="669" interp="linr"  time="0/1" value="0" leadInLength="0/1"  />
               <InterpolatingParam id="670" interp="linr"  time="0/1" value="0" leadInLength="0/1"  />
              </VectorParam>
              <VectorParam id="671"  name="geometryCrop">
               <InterpolatingParam id="672" interp="linr"  time="-9999999/1" value="0" leadInLength="0/1"  />
               <InterpolatingParam id="673" interp="linr"  time="-9999999/1" value="0" leadInLength="0/1"  />
               <InterpolatingParam id="674" interp="linr"  time="-9999999/1" value="0" leadInLength="0/1"  />
               <InterpolatingParam id="675" interp="linr"  time="-9999999/1" value="0" leadInLength="0/1"  />
              </VectorParam>
              <InterpolatingParam id="676" interp="linr"  time="-9999999/1" value="1" leadInLength="0/1"  name="opacity"/>
             </Parameters>
             <Attributes>
              <Attribute id="677" value="" name="ident"/>
             </Attributes>
             <ExtraData>
              <Entry key="ZoomPanBin">
               <ZoomPanBin id="678"  >
                <ZoomPanKeyframes>
                 <ZoomPanKeyframe id="679" timeRangeEnd="-9999999/1" timeRangeDuration="0/1" interpolaterName=""  />
                </ZoomPanKeyframes>
               </ZoomPanBin>
              </Entry>
             </ExtraData>
            </VMFile>
            <MetaData>
             <entry key="WinSubProjectDisplayName" val=""/>
            </MetaData>
           </UnifiedMedia>
           <UnifiedMedia id="680"  >
            <AMFile id="681" start="5322" duration="212" scalar="1/1" mediaStart="5977/1" mediaDuration="212/1" trackNumber="2" src="4" channelNumber="0,1" >
             <Parameters>
              <InterpolatingParam id="682" interp="linr"  time="0/1" value="1" leadInLength="0/1"  name="volume"/>
              <Parameter id="683"  name="captions"/>
             </Parameters>
             <Attributes>
              <Attribute id="684" value="" name="ident"/>
              <Attribute id="685" value="44100" name="sampleRate"/>
              <Attribute id="686" value="16" name="bitDepth"/>
              <Attribute id="687" value="1" name="gain"/>
              <Attribute id="688" value="0" name="mixToMono"/>
             </Attributes>
            </AMFile>
            <VMFile id="689" start="5322" duration="212" scalar="1/1" mediaStart="5977/1" mediaDuration="212/1" trackNumber="1" src="4" >
             <Transformer>
              <VectorParam id="690"  name="translation">
               <InterpolatingParam id="691" interp="linr"  time="-9999999/1" value="0" leadInLength="0/1"  />
               <InterpolatingParam id="692" interp="linr"  time="-9999999/1" value="0" leadInLength="0/1"  />
               <InterpolatingParam id="693" interp="linr"  time="-9999999/1" value="0" leadInLength="0/1"  />
              </VectorParam>
              <VectorParam id="694"  name="rotation">
               <InterpolatingParam id="695" interp="linr"  time="-9999999/1" value="0" leadInLength="0/1"  />
               <InterpolatingParam id="696" interp="linr"  time="-9999999/1" value="0" leadInLength="0/1"  />
               <InterpolatingParam id="697" interp="linr"  time="-9999999/1" value="0" leadInLength="0/1"  />
              </VectorParam>
              <VectorParam id="698"  name="shear">
               <InterpolatingParam id="699" interp="linr"  time="-9999999/1" value="0" leadInLength="0/1"  />
               <InterpolatingParam id="700" interp="linr"  time="-9999999/1" value="0" leadInLength="0/1"  />
               <InterpolatingParam id="701" interp="linr"  time="-9999999/1" value="0" leadInLength="0/1"  />
              </VectorParam>
              <VectorParam id="702"  name="scale">
               <InterpolatingParam id="703" interp="linr"  time="-9999999/1" value="1" leadInLength="0/1"  />
               <InterpolatingParam id="704" interp="linr"  time="-9999999/1" value="1" leadInLength="0/1"  />
               <InterpolatingParam id="705" interp="linr"  time="-9999999/1" value="1" leadInLength="0/1"  />
              </VectorParam>
              <VectorParam id="706"  name="anchor">
               <InterpolatingParam id="707" interp="linr"  time="0/1" value="0" leadInLength="0/1"  />
               <InterpolatingParam id="708" interp="linr"  time="0/1" value="0" leadInLength="0/1"  />
               <InterpolatingParam id="709" interp="linr"  time="0/1" value="0" leadInLength="0/1"  />
              </VectorParam>
             </Transformer>
             <Parameters>
              <VectorParam id="710"  name="sourceCrop">
               <InterpolatingParam id="711" interp="linr"  time="0/1" value="0" leadInLength="0/1"  />
               <InterpolatingParam id="712" interp="linr"  time="0/1" value="0" leadInLength="0/1"  />
               <InterpolatingParam id="713" interp="linr"  time="0/1" value="0" leadInLength="0/1"  />
               <InterpolatingParam id="714" interp="linr"  time="0/1" value="0" leadInLength="0/1"  />
              </VectorParam>
              <VectorParam id="715"  name="geometryCrop">
               <InterpolatingParam id="716" interp="linr"  time="-9999999/1" value="0" leadInLength="0/1"  />
               <InterpolatingParam id="717" interp="linr"  time="-9999999/1" value="0" leadInLength="0/1"  />
               <InterpolatingParam id="718" interp="linr"  time="-9999999/1" value="0" leadInLength="0/1"  />
               <InterpolatingParam id="719" interp="linr"  time="-9999999/1" value="0" leadInLength="0/1"  />
              </VectorParam>
              <InterpolatingParam id="720" interp="linr"  time="-9999999/1" value="1" leadInLength="0/1"  name="opacity"/>
             </Parameters>
             <Attributes>
              <Attribute id="721" value="" name="ident"/>
             </Attributes>
             <ExtraData>
              <Entry key="ZoomPanBin">
               <ZoomPanBin id="722"  >
                <ZoomPanKeyframes>
                 <ZoomPanKeyframe id="723" timeRangeEnd="-9999999/1" timeRangeDuration="0/1" interpolaterName=""  />
                </ZoomPanKeyframes>
               </ZoomPanBin>
              </Entry>
             </ExtraData>
            </VMFile>
            <MetaData>
             <entry key="WinSubProjectDisplayName" val=""/>
            </MetaData>
           </UnifiedMedia>
           <UnifiedMedia id="724"  >
            <AMFile id="725" start="5534" duration="62" scalar="1/1" mediaStart="6205/1" mediaDuration="62/1" trackNumber="2" src="4" channelNumber="0,1" >
             <Parameters>
              <InterpolatingParam id="726" interp="linr"  time="0/1" value="1" leadInLength="0/1"  name="volume"/>
              <Parameter id="727"  name="captions"/>
             </Parameters>
             <Attributes>
              <Attribute id="728" value="" name="ident"/>
              <Attribute id="729" value="44100" name="sampleRate"/>
              <Attribute id="730" value="16" name="bitDepth"/>
              <Attribute id="731" value="1" name="gain"/>
              <Attribute id="732" value="0" name="mixToMono"/>
             </Attributes>
            </AMFile>
            <VMFile id="733" start="5534" duration="62" scalar="1/1" mediaStart="6205/1" mediaDuration="62/1" trackNumber="1" src="4" >
             <Transformer>
              <VectorParam id="734"  name="translation">
               <InterpolatingParam id="735" interp="linr"  time="-9999999/1" value="0" leadInLength="0/1"  />
               <InterpolatingParam id="736" interp="linr"  time="-9999999/1" value="0" leadInLength="0/1"  />
               <InterpolatingParam id="737" interp="linr"  time="-9999999/1" value="0" leadInLength="0/1"  />
              </VectorParam>
              <VectorParam id="738"  name="rotation">
               <InterpolatingParam id="739" interp="linr"  time="-9999999/1" value="0" leadInLength="0/1"  />
               <InterpolatingParam id="740" interp="linr"  time="-9999999/1" value="0" leadInLength="0/1"  />
               <InterpolatingParam id="741" interp="linr"  time="-9999999/1" value="0" leadInLength="0/1"  />
              </VectorParam>
              <VectorParam id="742"  name="shear">
               <InterpolatingParam id="743" interp="linr"  time="-9999999/1" value="0" leadInLength="0/1"  />
               <InterpolatingParam id="744" interp="linr"  time="-9999999/1" value="0" leadInLength="0/1"  />
               <InterpolatingParam id="745" interp="linr"  time="-9999999/1" value="0" leadInLength="0/1"  />
              </VectorParam>
              <VectorParam id="746"  name="scale">
               <InterpolatingParam id="747" interp="linr"  time="-9999999/1" value="1" leadInLength="0/1"  />
               <InterpolatingParam id="748" interp="linr"  time="-9999999/1" value="1" leadInLength="0/1"  />
               <InterpolatingParam id="749" interp="linr"  time="-9999999/1" value="1" leadInLength="0/1"  />
              </VectorParam>
              <VectorParam id="750"  name="anchor">
               <InterpolatingParam id="751" interp="linr"  time="0/1" value="0" leadInLength="0/1"  />
               <InterpolatingParam id="752" interp="linr"  time="0/1" value="0" leadInLength="0/1"  />
               <InterpolatingParam id="753" interp="linr"  time="0/1" value="0" leadInLength="0/1"  />
              </VectorParam>
             </Transformer>
             <Parameters>
              <VectorParam id="754"  name="sourceCrop">
               <InterpolatingParam id="755" interp="linr"  time="0/1" value="0" leadInLength="0/1"  />
               <InterpolatingParam id="756" interp="linr"  time="0/1" value="0" leadInLength="0/1"  />
               <InterpolatingParam id="757" interp="linr"  time="0/1" value="0" leadInLength="0/1"  />
               <InterpolatingParam id="758" interp="linr"  time="0/1" value="0" leadInLength="0/1"  />
              </VectorParam>
              <VectorParam id="759"  name="geometryCrop">
               <InterpolatingParam id="760" interp="linr"  time="-9999999/1" value="0" leadInLength="0/1"  />
               <InterpolatingParam id="761" interp="linr"  time="-9999999/1" value="0" leadInLength="0/1"  />
               <InterpolatingParam id="762" interp="linr"  time="-9999999/1" value="0" leadInLength="0/1"  />
               <InterpolatingParam id="763" interp="linr"  time="-9999999/1" value="0" leadInLength="0/1"  />
              </VectorParam>
              <InterpolatingParam id="764" interp="linr"  time="-9999999/1" value="1" leadInLength="0/1"  name="opacity"/>
             </Parameters>
             <Attributes>
              <Attribute id="765" value="" name="ident"/>
             </Attributes>
             <ExtraData>
              <Entry key="ZoomPanBin">
               <ZoomPanBin id="766"  >
                <ZoomPanKeyframes>
                 <ZoomPanKeyframe id="767" timeRangeEnd="-9999999/1" timeRangeDuration="0/1" interpolaterName=""  />
                </ZoomPanKeyframes>
               </ZoomPanBin>
              </Entry>
             </ExtraData>
            </VMFile>
            <MetaData>
             <entry key="WinSubProjectDisplayName" val=""/>
            </MetaData>
           </UnifiedMedia>
           <UnifiedMedia id="768"  >
            <AMFile id="769" start="5596" duration="115" scalar="1/1" mediaStart="6294/1" mediaDuration="115/1" trackNumber="2" src="4" channelNumber="0,1" >
             <Parameters>
              <InterpolatingParam id="770" interp="linr"  time="0/1" value="1" leadInLength="0/1"  name="volume"/>
              <Parameter id="771"  name="captions"/>
             </Parameters>
             <Attributes>
              <Attribute id="772" value="" name="ident"/>
              <Attribute id="773" value="44100" name="sampleRate"/>
              <Attribute id="774" value="16" name="bitDepth"/>
              <Attribute id="775" value="1" name="gain"/>
              <Attribute id="776" value="0" name="mixToMono"/>
             </Attributes>
            </AMFile>
            <VMFile id="777" start="5596" duration="115" scalar="1/1" mediaStart="6294/1" mediaDuration="115/1" trackNumber="1" src="4" >
             <Transformer>
              <VectorParam id="778"  name="translation">
               <InterpolatingParam id="779" interp="linr"  time="-9999999/1" value="0" leadInLength="0/1"  />
               <InterpolatingParam id="780" interp="linr"  time="-9999999/1" value="0" leadInLength="0/1"  />
               <InterpolatingParam id="781" interp="linr"  time="-9999999/1" value="0" leadInLength="0/1"  />
              </VectorParam>
              <VectorParam id="782"  name="rotation">
               <InterpolatingParam id="783" interp="linr"  time="-9999999/1" value="0" leadInLength="0/1"  />
               <InterpolatingParam id="784" interp="linr"  time="-9999999/1" value="0" leadInLength="0/1"  />
               <InterpolatingParam id="785" interp="linr"  time="-9999999/1" value="0" leadInLength="0/1"  />
              </VectorParam>
              <VectorParam id="786"  name="shear">
               <InterpolatingParam id="787" interp="linr"  time="-9999999/1" value="0" leadInLength="0/1"  />
               <InterpolatingParam id="788" interp="linr"  time="-9999999/1" value="0" leadInLength="0/1"  />
               <InterpolatingParam id="789" interp="linr"  time="-9999999/1" value="0" leadInLength="0/1"  />
              </VectorParam>
              <VectorParam id="790"  name="scale">
               <InterpolatingParam id="791" interp="linr"  time="-9999999/1" value="1" leadInLength="0/1"  />
               <InterpolatingParam id="792" interp="linr"  time="-9999999/1" value="1" leadInLength="0/1"  />
               <InterpolatingParam id="793" interp="linr"  time="-9999999/1" value="1" leadInLength="0/1"  />
              </VectorParam>
              <VectorParam id="794"  name="anchor">
               <InterpolatingParam id="795" interp="linr"  time="0/1" value="0" leadInLength="0/1"  />
               <InterpolatingParam id="796" interp="linr"  time="0/1" value="0" leadInLength="0/1"  />
               <InterpolatingParam id="797" interp="linr"  time="0/1" value="0" leadInLength="0/1"  />
              </VectorParam>
             </Transformer>
             <Parameters>
              <VectorParam id="798"  name="sourceCrop">
               <InterpolatingParam id="799" interp="linr"  time="0/1" value="0" leadInLength="0/1"  />
               <InterpolatingParam id="800" interp="linr"  time="0/1" value="0" leadInLength="0/1"  />
               <InterpolatingParam id="801" interp="linr"  time="0/1" value="0" leadInLength="0/1"  />
               <InterpolatingParam id="802" interp="linr"  time="0/1" value="0" leadInLength="0/1"  />
              </VectorParam>
              <VectorParam id="803"  name="geometryCrop">
               <InterpolatingParam id="804" interp="linr"  time="-9999999/1" value="0" leadInLength="0/1"  />
               <InterpolatingParam id="805" interp="linr"  time="-9999999/1" value="0" leadInLength="0/1"  />
               <InterpolatingParam id="806" interp="linr"  time="-9999999/1" value="0" leadInLength="0/1"  />
               <InterpolatingParam id="807" interp="linr"  time="-9999999/1" value="0" leadInLength="0/1"  />
              </VectorParam>
              <InterpolatingParam id="808" interp="linr"  time="-9999999/1" value="1" leadInLength="0/1"  name="opacity"/>
             </Parameters>
             <Attributes>
              <Attribute id="809" value="" name="ident"/>
             </Attributes>
             <ExtraData>
              <Entry key="ZoomPanBin">
               <ZoomPanBin id="810"  >
                <ZoomPanKeyframes>
                 <ZoomPanKeyframe id="811" timeRangeEnd="-9999999/1" timeRangeDuration="0/1" interpolaterName=""  />
                </ZoomPanKeyframes>
               </ZoomPanBin>
              </Entry>
             </ExtraData>
            </VMFile>
            <MetaData>
             <entry key="WinSubProjectDisplayName" val=""/>
            </MetaData>
           </UnifiedMedia>
           <UnifiedMedia id="812"  >
            <AMFile id="813" start="5711" duration="6" scalar="1/1" mediaStart="6439/1" mediaDuration="6/1" trackNumber="2" src="4" channelNumber="0,1" >
             <Parameters>
              <InterpolatingParam id="814" interp="linr"  time="0/1" value="1" leadInLength="0/1"  name="volume"/>
              <Parameter id="815"  name="captions"/>
             </Parameters>
             <Attributes>
              <Attribute id="816" value="" name="ident"/>
              <Attribute id="817" value="44100" name="sampleRate"/>
              <Attribute id="818" value="16" name="bitDepth"/>
              <Attribute id="819" value="1" name="gain"/>
              <Attribute id="820" value="0" name="mixToMono"/>
             </Attributes>
            </AMFile>
            <VMFile id="821" start="5711" duration="6" scalar="1/1" mediaStart="6439/1" mediaDuration="6/1" trackNumber="1" src="4" >
             <Transformer>
              <VectorParam id="822"  name="translation">
               <InterpolatingParam id="823" interp="linr"  time="-9999999/1" value="0" leadInLength="0/1"  />
               <InterpolatingParam id="824" interp="linr"  time="-9999999/1" value="0" leadInLength="0/1"  />
               <InterpolatingParam id="825" interp="linr"  time="-9999999/1" value="0" leadInLength="0/1"  />
              </VectorParam>
              <VectorParam id="826"  name="rotation">
               <InterpolatingParam id="827" interp="linr"  time="-9999999/1" value="0" leadInLength="0/1"  />
               <InterpolatingParam id="828" interp="linr"  time="-9999999/1" value="0" leadInLength="0/1"  />
               <InterpolatingParam id="829" interp="linr"  time="-9999999/1" value="0" leadInLength="0/1"  />
              </VectorParam>
              <VectorParam id="830"  name="shear">
               <InterpolatingParam id="831" interp="linr"  time="-9999999/1" value="0" leadInLength="0/1"  />
               <InterpolatingParam id="832" interp="linr"  time="-9999999/1" value="0" leadInLength="0/1"  />
               <InterpolatingParam id="833" interp="linr"  time="-9999999/1" value="0" leadInLength="0/1"  />
              </VectorParam>
              <VectorParam id="834"  name="scale">
               <InterpolatingParam id="835" interp="linr"  time="-9999999/1" value="1" leadInLength="0/1"  />
               <InterpolatingParam id="836" interp="linr"  time="-9999999/1" value="1" leadInLength="0/1"  />
               <InterpolatingParam id="837" interp="linr"  time="-9999999/1" value="1" leadInLength="0/1"  />
              </VectorParam>
              <VectorParam id="838"  name="anchor">
               <InterpolatingParam id="839" interp="linr"  time="0/1" value="0" leadInLength="0/1"  />
               <InterpolatingParam id="840" interp="linr"  time="0/1" value="0" leadInLength="0/1"  />
               <InterpolatingParam id="841" interp="linr"  time="0/1" value="0" leadInLength="0/1"  />
              </VectorParam>
             </Transformer>
             <Parameters>
              <VectorParam id="842"  name="sourceCrop">
               <InterpolatingParam id="843" interp="linr"  time="0/1" value="0" leadInLength="0/1"  />
               <InterpolatingParam id="844" interp="linr"  time="0/1" value="0" leadInLength="0/1"  />
               <InterpolatingParam id="845" interp="linr"  time="0/1" value="0" leadInLength="0/1"  />
               <InterpolatingParam id="846" interp="linr"  time="0/1" value="0" leadInLength="0/1"  />
              </VectorParam>
              <VectorParam id="847"  name="geometryCrop">
               <InterpolatingParam id="848" interp="linr"  time="-9999999/1" value="0" leadInLength="0/1"  />
               <InterpolatingParam id="849" interp="linr"  time="-9999999/1" value="0" leadInLength="0/1"  />
               <InterpolatingParam id="850" interp="linr"  time="-9999999/1" value="0" leadInLength="0/1"  />
               <InterpolatingParam id="851" interp="linr"  time="-9999999/1" value="0" leadInLength="0/1"  />
              </VectorParam>
              <InterpolatingParam id="852" interp="linr"  time="-9999999/1" value="1" leadInLength="0/1"  name="opacity"/>
             </Parameters>
             <Attributes>
              <Attribute id="853" value="" name="ident"/>
             </Attributes>
             <ExtraData>
              <Entry key="ZoomPanBin">
               <ZoomPanBin id="854"  >
                <ZoomPanKeyframes>
                 <ZoomPanKeyframe id="855" timeRangeEnd="-9999999/1" timeRangeDuration="0/1" interpolaterName=""  />
                </ZoomPanKeyframes>
               </ZoomPanBin>
              </Entry>
             </ExtraData>
            </VMFile>
            <MetaData>
             <entry key="WinSubProjectDisplayName" val=""/>
            </MetaData>
           </UnifiedMedia>
           <UnifiedMedia id="856"  >
            <AMFile id="857" start="5717" duration="427" scalar="1/1" mediaStart="6488/1" mediaDuration="427/1" trackNumber="2" src="4" channelNumber="0,1" >
             <Parameters>
              <InterpolatingParam id="858" interp="linr"  time="0/1" value="1" leadInLength="0/1"  name="volume"/>
              <Parameter id="859"  name="captions"/>
             </Parameters>
             <Attributes>
              <Attribute id="860" value="" name="ident"/>
              <Attribute id="861" value="44100" name="sampleRate"/>
              <Attribute id="862" value="16" name="bitDepth"/>
              <Attribute id="863" value="1" name="gain"/>
              <Attribute id="864" value="0" name="mixToMono"/>
             </Attributes>
            </AMFile>
            <VMFile id="865" start="5717" duration="427" scalar="1/1" mediaStart="6488/1" mediaDuration="427/1" trackNumber="1" src="4" >
             <Transformer>
              <VectorParam id="866"  name="translation">
               <InterpolatingParam id="867" interp="linr"  time="-9999999/1" value="0" leadInLength="0/1"  />
               <InterpolatingParam id="868" interp="linr"  time="-9999999/1" value="0" leadInLength="0/1"  />
               <InterpolatingParam id="869" interp="linr"  time="-9999999/1" value="0" leadInLength="0/1"  />
              </VectorParam>
              <VectorParam id="870"  name="rotation">
               <InterpolatingParam id="871" interp="linr"  time="-9999999/1" value="0" leadInLength="0/1"  />
               <InterpolatingParam id="872" interp="linr"  time="-9999999/1" value="0" leadInLength="0/1"  />
               <InterpolatingParam id="873" interp="linr"  time="-9999999/1" value="0" leadInLength="0/1"  />
              </VectorParam>
              <VectorParam id="874"  name="shear">
               <InterpolatingParam id="875" interp="linr"  time="-9999999/1" value="0" leadInLength="0/1"  />
               <InterpolatingParam id="876" interp="linr"  time="-9999999/1" value="0" leadInLength="0/1"  />
               <InterpolatingParam id="877" interp="linr"  time="-9999999/1" value="0" leadInLength="0/1"  />
              </VectorParam>
              <VectorParam id="878"  name="scale">
               <InterpolatingParam id="879" interp="linr"  time="-9999999/1" value="1" leadInLength="0/1"  />
               <InterpolatingParam id="880" interp="linr"  time="-9999999/1" value="1" leadInLength="0/1"  />
               <InterpolatingParam id="881" interp="linr"  time="-9999999/1" value="1" leadInLength="0/1"  />
              </VectorParam>
              <VectorParam id="882"  name="anchor">
               <InterpolatingParam id="883" interp="linr"  time="0/1" value="0" leadInLength="0/1"  />
               <InterpolatingParam id="884" interp="linr"  time="0/1" value="0" leadInLength="0/1"  />
               <InterpolatingParam id="885" interp="linr"  time="0/1" value="0" leadInLength="0/1"  />
              </VectorParam>
             </Transformer>
             <Parameters>
              <VectorParam id="886"  name="sourceCrop">
               <InterpolatingParam id="887" interp="linr"  time="0/1" value="0" leadInLength="0/1"  />
               <InterpolatingParam id="888" interp="linr"  time="0/1" value="0" leadInLength="0/1"  />
               <InterpolatingParam id="889" interp="linr"  time="0/1" value="0" leadInLength="0/1"  />
               <InterpolatingParam id="890" interp="linr"  time="0/1" value="0" leadInLength="0/1"  />
              </VectorParam>
              <VectorParam id="891"  name="geometryCrop">
               <InterpolatingParam id="892" interp="linr"  time="-9999999/1" value="0" leadInLength="0/1"  />
               <InterpolatingParam id="893" interp="linr"  time="-9999999/1" value="0" leadInLength="0/1"  />
               <InterpolatingParam id="894" interp="linr"  time="-9999999/1" value="0" leadInLength="0/1"  />
               <InterpolatingParam id="895" interp="linr"  time="-9999999/1" value="0" leadInLength="0/1"  />
              </VectorParam>
              <InterpolatingParam id="896" interp="linr"  time="-9999999/1" value="1" leadInLength="0/1"  name="opacity"/>
             </Parameters>
             <Attributes>
              <Attribute id="897" value="" name="ident"/>
             </Attributes>
             <ExtraData>
              <Entry key="ZoomPanBin">
               <ZoomPanBin id="898"  >
                <ZoomPanKeyframes>
                 <ZoomPanKeyframe id="899" timeRangeEnd="-9999999/1" timeRangeDuration="0/1" interpolaterName=""  />
                </ZoomPanKeyframes>
               </ZoomPanBin>
              </Entry>
             </ExtraData>
            </VMFile>
            <MetaData>
             <entry key="WinSubProjectDisplayName" val=""/>
            </MetaData>
           </UnifiedMedia>
           <UnifiedMedia id="900"  >
            <AMFile id="901" start="6144" duration="240" scalar="1/1" mediaStart="6955/1" mediaDuration="240/1" trackNumber="2" src="4" channelNumber="0,1" >
             <Parameters>
              <InterpolatingParam id="902" interp="linr"  time="0/1" value="1" leadInLength="0/1"  name="volume"/>
              <Parameter id="903"  name="captions"/>
             </Parameters>
             <Attributes>
              <Attribute id="904" value="" name="ident"/>
              <Attribute id="905" value="44100" name="sampleRate"/>
              <Attribute id="906" value="16" name="bitDepth"/>
              <Attribute id="907" value="1" name="gain"/>
              <Attribute id="908" value="0" name="mixToMono"/>
             </Attributes>
            </AMFile>
            <VMFile id="909" start="6144" duration="240" scalar="1/1" mediaStart="6955/1" mediaDuration="240/1" trackNumber="1" src="4" >
             <Transformer>
              <VectorParam id="910"  name="translation">
               <InterpolatingParam id="911" interp="linr"  time="-9999999/1" value="0" leadInLength="0/1"  />
               <InterpolatingParam id="912" interp="linr"  time="-9999999/1" value="0" leadInLength="0/1"  />
               <InterpolatingParam id="913" interp="linr"  time="-9999999/1" value="0" leadInLength="0/1"  />
              </VectorParam>
              <VectorParam id="914"  name="rotation">
               <InterpolatingParam id="915" interp="linr"  time="-9999999/1" value="0" leadInLength="0/1"  />
               <InterpolatingParam id="916" interp="linr"  time="-9999999/1" value="0" leadInLength="0/1"  />
               <InterpolatingParam id="917" interp="linr"  time="-9999999/1" value="0" leadInLength="0/1"  />
              </VectorParam>
              <VectorParam id="918"  name="shear">
               <InterpolatingParam id="919" interp="linr"  time="-9999999/1" value="0" leadInLength="0/1"  />
               <InterpolatingParam id="920" interp="linr"  time="-9999999/1" value="0" leadInLength="0/1"  />
               <InterpolatingParam id="921" interp="linr"  time="-9999999/1" value="0" leadInLength="0/1"  />
              </VectorParam>
              <VectorParam id="922"  name="scale">
               <InterpolatingParam id="923" interp="linr"  time="-9999999/1" value="1" leadInLength="0/1"  />
               <InterpolatingParam id="924" interp="linr"  time="-9999999/1" value="1" leadInLength="0/1"  />
               <InterpolatingParam id="925" interp="linr"  time="-9999999/1" value="1" leadInLength="0/1"  />
              </VectorParam>
              <VectorParam id="926"  name="anchor">
               <InterpolatingParam id="927" interp="linr"  time="0/1" value="0" leadInLength="0/1"  />
               <InterpolatingParam id="928" interp="linr"  time="0/1" value="0" leadInLength="0/1"  />
               <InterpolatingParam id="929" interp="linr"  time="0/1" value="0" leadInLength="0/1"  />
              </VectorParam>
             </Transformer>
             <Parameters>
              <VectorParam id="930"  name="sourceCrop">
               <InterpolatingParam id="931" interp="linr"  time="0/1" value="0" leadInLength="0/1"  />
               <InterpolatingParam id="932" interp="linr"  time="0/1" value="0" leadInLength="0/1"  />
               <InterpolatingParam id="933" interp="linr"  time="0/1" value="0" leadInLength="0/1"  />
               <InterpolatingParam id="934" interp="linr"  time="0/1" value="0" leadInLength="0/1"  />
              </VectorParam>
              <VectorParam id="935"  name="geometryCrop">
               <InterpolatingParam id="936" interp="linr"  time="-9999999/1" value="0" leadInLength="0/1"  />
               <InterpolatingParam id="937" interp="linr"  time="-9999999/1" value="0" leadInLength="0/1"  />
               <InterpolatingParam id="938" interp="linr"  time="-9999999/1" value="0" leadInLength="0/1"  />
               <InterpolatingParam id="939" interp="linr"  time="-9999999/1" value="0" leadInLength="0/1"  />
              </VectorParam>
              <InterpolatingParam id="940" interp="linr"  time="-9999999/1" value="1" leadInLength="0/1"  name="opacity"/>
             </Parameters>
             <Attributes>
              <Attribute id="941" value="" name="ident"/>
             </Attributes>
             <ExtraData>
              <Entry key="ZoomPanBin">
               <ZoomPanBin id="942"  >
                <ZoomPanKeyframes>
                 <ZoomPanKeyframe id="943" timeRangeEnd="-9999999/1" timeRangeDuration="0/1" interpolaterName=""  />
                </ZoomPanKeyframes>
               </ZoomPanBin>
              </Entry>
             </ExtraData>
            </VMFile>
            <MetaData>
             <entry key="WinSubProjectDisplayName" val=""/>
            </MetaData>
           </UnifiedMedia>
           <UnifiedMedia id="944"  >
            <AMFile id="945" start="6384" duration="637" scalar="1/1" mediaStart="7219/1" mediaDuration="637/1" trackNumber="2" src="4" channelNumber="0,1" >
             <Parameters>
              <InterpolatingParam id="946" interp="linr"  time="0/1" value="1" leadInLength="0/1"  name="volume"/>
              <Parameter id="947"  name="captions"/>
             </Parameters>
             <Attributes>
              <Attribute id="948" value="" name="ident"/>
              <Attribute id="949" value="44100" name="sampleRate"/>
              <Attribute id="950" value="16" name="bitDepth"/>
              <Attribute id="951" value="1" name="gain"/>
              <Attribute id="952" value="0" name="mixToMono"/>
             </Attributes>
            </AMFile>
            <VMFile id="953" start="6384" duration="637" scalar="1/1" mediaStart="7219/1" mediaDuration="637/1" trackNumber="1" src="4" >
             <Transformer>
              <VectorParam id="954"  name="translation">
               <InterpolatingParam id="955" interp="linr"  time="-9999999/1" value="0" leadInLength="0/1"  />
               <InterpolatingParam id="956" interp="linr"  time="-9999999/1" value="0" leadInLength="0/1"  />
               <InterpolatingParam id="957" interp="linr"  time="-9999999/1" value="0" leadInLength="0/1"  />
              </VectorParam>
              <VectorParam id="958"  name="rotation">
               <InterpolatingParam id="959" interp="linr"  time="-9999999/1" value="0" leadInLength="0/1"  />
               <InterpolatingParam id="960" interp="linr"  time="-9999999/1" value="0" leadInLength="0/1"  />
               <InterpolatingParam id="961" interp="linr"  time="-9999999/1" value="0" leadInLength="0/1"  />
              </VectorParam>
              <VectorParam id="962"  name="shear">
               <InterpolatingParam id="963" interp="linr"  time="-9999999/1" value="0" leadInLength="0/1"  />
               <InterpolatingParam id="964" interp="linr"  time="-9999999/1" value="0" leadInLength="0/1"  />
               <InterpolatingParam id="965" interp="linr"  time="-9999999/1" value="0" leadInLength="0/1"  />
              </VectorParam>
              <VectorParam id="966"  name="scale">
               <InterpolatingParam id="967" interp="linr"  time="-9999999/1" value="1" leadInLength="0/1"  />
               <InterpolatingParam id="968" interp="linr"  time="-9999999/1" value="1" leadInLength="0/1"  />
               <InterpolatingParam id="969" interp="linr"  time="-9999999/1" value="1" leadInLength="0/1"  />
              </VectorParam>
              <VectorParam id="970"  name="anchor">
               <InterpolatingParam id="971" interp="linr"  time="0/1" value="0" leadInLength="0/1"  />
               <InterpolatingParam id="972" interp="linr"  time="0/1" value="0" leadInLength="0/1"  />
               <InterpolatingParam id="973" interp="linr"  time="0/1" value="0" leadInLength="0/1"  />
              </VectorParam>
             </Transformer>
             <Parameters>
              <VectorParam id="974"  name="sourceCrop">
               <InterpolatingParam id="975" interp="linr"  time="0/1" value="0" leadInLength="0/1"  />
               <InterpolatingParam id="976" interp="linr"  time="0/1" value="0" leadInLength="0/1"  />
               <InterpolatingParam id="977" interp="linr"  time="0/1" value="0" leadInLength="0/1"  />
               <InterpolatingParam id="978" interp="linr"  time="0/1" value="0" leadInLength="0/1"  />
              </VectorParam>
              <VectorParam id="979"  name="geometryCrop">
               <InterpolatingParam id="980" interp="linr"  time="-9999999/1" value="0" leadInLength="0/1"  />
               <InterpolatingParam id="981" interp="linr"  time="-9999999/1" value="0" leadInLength="0/1"  />
               <InterpolatingParam id="982" interp="linr"  time="-9999999/1" value="0" leadInLength="0/1"  />
               <InterpolatingParam id="983" interp="linr"  time="-9999999/1" value="0" leadInLength="0/1"  />
              </VectorParam>
              <InterpolatingParam id="984" interp="linr"  time="-9999999/1" value="1" leadInLength="0/1"  name="opacity"/>
             </Parameters>
             <Attributes>
              <Attribute id="985" value="" name="ident"/>
             </Attributes>
             <ExtraData>
              <Entry key="ZoomPanBin">
               <ZoomPanBin id="986"  >
                <ZoomPanKeyframes>
                 <ZoomPanKeyframe id="987" timeRangeEnd="-9999999/1" timeRangeDuration="0/1" interpolaterName=""  />
                </ZoomPanKeyframes>
               </ZoomPanBin>
              </Entry>
             </ExtraData>
            </VMFile>
            <MetaData>
             <entry key="WinSubProjectDisplayName" val=""/>
            </MetaData>
           </UnifiedMedia>
           <UnifiedMedia id="988"  >
            <AMFile id="989" start="7021" duration="139" scalar="1/1" mediaStart="8197/1" mediaDuration="139/1" trackNumber="2" src="4" channelNumber="0,1" >
             <Parameters>
              <InterpolatingParam id="990" interp="linr"  time="0/1" value="1" leadInLength="0/1"  name="volume"/>
              <Parameter id="991"  name="captions"/>
             </Parameters>
             <Attributes>
              <Attribute id="992" value="" name="ident"/>
              <Attribute id="993" value="44100" name="sampleRate"/>
              <Attribute id="994" value="16" name="bitDepth"/>
              <Attribute id="995" value="1" name="gain"/>
              <Attribute id="996" value="0" name="mixToMono"/>
             </Attributes>
            </AMFile>
            <VMFile id="997" start="7021" duration="139" scalar="1/1" mediaStart="8197/1" mediaDuration="139/1" trackNumber="1" src="4" >
             <Transformer>
              <VectorParam id="998"  name="translation">
               <InterpolatingParam id="999" interp="linr"  time="-9999999/1" value="0" leadInLength="0/1"  />
               <InterpolatingParam id="1000" interp="linr"  time="-9999999/1" value="0" leadInLength="0/1"  />
               <InterpolatingParam id="1001" interp="linr"  time="-9999999/1" value="0" leadInLength="0/1"  />
              </VectorParam>
              <VectorParam id="1002"  name="rotation">
               <InterpolatingParam id="1003" interp="linr"  time="-9999999/1" value="0" leadInLength="0/1"  />
               <InterpolatingParam id="1004" interp="linr"  time="-9999999/1" value="0" leadInLength="0/1"  />
               <InterpolatingParam id="1005" interp="linr"  time="-9999999/1" value="0" leadInLength="0/1"  />
              </VectorParam>
              <VectorParam id="1006"  name="shear">
               <InterpolatingParam id="1007" interp="linr"  time="-9999999/1" value="0" leadInLength="0/1"  />
               <InterpolatingParam id="1008" interp="linr"  time="-9999999/1" value="0" leadInLength="0/1"  />
               <InterpolatingParam id="1009" interp="linr"  time="-9999999/1" value="0" leadInLength="0/1"  />
              </VectorParam>
              <VectorParam id="1010"  name="scale">
               <InterpolatingParam id="1011" interp="linr"  time="-9999999/1" value="1" leadInLength="0/1"  />
               <InterpolatingParam id="1012" interp="linr"  time="-9999999/1" value="1" leadInLength="0/1"  />
               <InterpolatingParam id="1013" interp="linr"  time="-9999999/1" value="1" leadInLength="0/1"  />
              </VectorParam>
              <VectorParam id="1014"  name="anchor">
               <InterpolatingParam id="1015" interp="linr"  time="0/1" value="0" leadInLength="0/1"  />
               <InterpolatingParam id="1016" interp="linr"  time="0/1" value="0" leadInLength="0/1"  />
               <InterpolatingParam id="1017" interp="linr"  time="0/1" value="0" leadInLength="0/1"  />
              </VectorParam>
             </Transformer>
             <Parameters>
              <VectorParam id="1018"  name="sourceCrop">
               <InterpolatingParam id="1019" interp="linr"  time="0/1" value="0" leadInLength="0/1"  />
               <InterpolatingParam id="1020" interp="linr"  time="0/1" value="0" leadInLength="0/1"  />
               <InterpolatingParam id="1021" interp="linr"  time="0/1" value="0" leadInLength="0/1"  />
               <InterpolatingParam id="1022" interp="linr"  time="0/1" value="0" leadInLength="0/1"  />
              </VectorParam>
              <VectorParam id="1023"  name="geometryCrop">
               <InterpolatingParam id="1024" interp="linr"  time="-9999999/1" value="0" leadInLength="0/1"  />
               <InterpolatingParam id="1025" interp="linr"  time="-9999999/1" value="0" leadInLength="0/1"  />
               <InterpolatingParam id="1026" interp="linr"  time="-9999999/1" value="0" leadInLength="0/1"  />
               <InterpolatingParam id="1027" interp="linr"  time="-9999999/1" value="0" leadInLength="0/1"  />
              </VectorParam>
              <InterpolatingParam id="1028" interp="linr"  time="-9999999/1" value="1" leadInLength="0/1"  name="opacity"/>
             </Parameters>
             <Attributes>
              <Attribute id="1029" value="" name="ident"/>
             </Attributes>
             <ExtraData>
              <Entry key="ZoomPanBin">
               <ZoomPanBin id="1030"  >
                <ZoomPanKeyframes>
                 <ZoomPanKeyframe id="1031" timeRangeEnd="-9999999/1" timeRangeDuration="0/1" interpolaterName=""  />
                </ZoomPanKeyframes>
               </ZoomPanBin>
              </Entry>
             </ExtraData>
            </VMFile>
            <MetaData>
             <entry key="WinSubProjectDisplayName" val=""/>
            </MetaData>
           </UnifiedMedia>
           <UnifiedMedia id="1032"  >
            <AMFile id="1033" start="7160" duration="5515" scalar="1/1" mediaStart="8391/1" mediaDuration="5515/1" trackNumber="2" src="4" channelNumber="0,1" >
             <Parameters>
              <InterpolatingParam id="1034" interp="linr"  time="0/1" value="1" leadInLength="0/1"  name="volume"/>
              <Parameter id="1035"  name="captions"/>
             </Parameters>
             <Attributes>
              <Attribute id="1036" value="" name="ident"/>
              <Attribute id="1037" value="44100" name="sampleRate"/>
              <Attribute id="1038" value="16" name="bitDepth"/>
              <Attribute id="1039" value="1" name="gain"/>
              <Attribute id="1040" value="0" name="mixToMono"/>
             </Attributes>
            </AMFile>
            <VMFile id="1041" start="7160" duration="5515" scalar="1/1" mediaStart="8391/1" mediaDuration="5515/1" trackNumber="1" src="4" >
             <Transformer>
              <VectorParam id="1042"  name="translation">
               <InterpolatingParam id="1043" interp="linr"  time="-9999999/1" value="0" leadInLength="0/1"  />
               <InterpolatingParam id="1044" interp="linr"  time="-9999999/1" value="0" leadInLength="0/1"  />
               <InterpolatingParam id="1045" interp="linr"  time="-9999999/1" value="0" leadInLength="0/1"  />
              </VectorParam>
              <VectorParam id="1046"  name="rotation">
               <InterpolatingParam id="1047" interp="linr"  time="-9999999/1" value="0" leadInLength="0/1"  />
               <InterpolatingParam id="1048" interp="linr"  time="-9999999/1" value="0" leadInLength="0/1"  />
               <InterpolatingParam id="1049" interp="linr"  time="-9999999/1" value="0" leadInLength="0/1"  />
              </VectorParam>
              <VectorParam id="1050"  name="shear">
               <InterpolatingParam id="1051" interp="linr"  time="-9999999/1" value="0" leadInLength="0/1"  />
               <InterpolatingParam id="1052" interp="linr"  time="-9999999/1" value="0" leadInLength="0/1"  />
               <InterpolatingParam id="1053" interp="linr"  time="-9999999/1" value="0" leadInLength="0/1"  />
              </VectorParam>
              <VectorParam id="1054"  name="scale">
               <InterpolatingParam id="1055" interp="linr"  time="-9999999/1" value="1" leadInLength="0/1"  />
               <InterpolatingParam id="1056" interp="linr"  time="-9999999/1" value="1" leadInLength="0/1"  />
               <InterpolatingParam id="1057" interp="linr"  time="-9999999/1" value="1" leadInLength="0/1"  />
              </VectorParam>
              <VectorParam id="1058"  name="anchor">
               <InterpolatingParam id="1059" interp="linr"  time="0/1" value="0" leadInLength="0/1"  />
               <InterpolatingParam id="1060" interp="linr"  time="0/1" value="0" leadInLength="0/1"  />
               <InterpolatingParam id="1061" interp="linr"  time="0/1" value="0" leadInLength="0/1"  />
              </VectorParam>
             </Transformer>
             <Parameters>
              <VectorParam id="1062"  name="sourceCrop">
               <InterpolatingParam id="1063" interp="linr"  time="0/1" value="0" leadInLength="0/1"  />
               <InterpolatingParam id="1064" interp="linr"  time="0/1" value="0" leadInLength="0/1"  />
               <InterpolatingParam id="1065" interp="linr"  time="0/1" value="0" leadInLength="0/1"  />
               <InterpolatingParam id="1066" interp="linr"  time="0/1" value="0" leadInLength="0/1"  />
              </VectorParam>
              <VectorParam id="1067"  name="geometryCrop">
               <InterpolatingParam id="1068" interp="linr"  time="-9999999/1" value="0" leadInLength="0/1"  />
               <InterpolatingParam id="1069" interp="linr"  time="-9999999/1" value="0" leadInLength="0/1"  />
               <InterpolatingParam id="1070" interp="linr"  time="-9999999/1" value="0" leadInLength="0/1"  />
               <InterpolatingParam id="1071" interp="linr"  time="-9999999/1" value="0" leadInLength="0/1"  />
              </VectorParam>
              <InterpolatingParam id="1072" interp="linr"  time="-9999999/1" value="1" leadInLength="0/1"  name="opacity"/>
             </Parameters>
             <Attributes>
              <Attribute id="1073" value="" name="ident"/>
             </Attributes>
             <ExtraData>
              <Entry key="ZoomPanBin">
               <ZoomPanBin id="1074"  >
                <ZoomPanKeyframes>
                 <ZoomPanKeyframe id="1075" timeRangeEnd="-9999999/1" timeRangeDuration="0/1" interpolaterName=""  />
                </ZoomPanKeyframes>
               </ZoomPanBin>
              </Entry>
             </ExtraData>
            </VMFile>
            <MetaData>
             <entry key="WinSubProjectDisplayName" val=""/>
            </MetaData>
           </UnifiedMedia>
          </Medias>
         </GenericTrack>
        </StitchedMedia>
        <StitchedMedia id="1076" start="7146" duration="5329" scalar="1/1" mediaStart="7146/1" mediaDuration="5329/1" minMediaStart="0/1" >
         <Transformer>
          <VectorParam id="1077"  name="translation">
           <InterpolatingParam id="1078" interp="linr"  time="-9999999/1" value="0" leadInLength="0/1"  interpolater="leadin-linr"  />
           <InterpolatingParam id="1079" interp="linr"  time="-9999999/1" value="0" leadInLength="0/1"  interpolater="leadin-linr"  />
           <InterpolatingParam id="1080" interp="linr"  time="-9999999/1" value="0" leadInLength="0/1"  interpolater="leadin-linr"  />
          </VectorParam>
          <VectorParam id="1081"  name="rotation">
           <InterpolatingParam id="1082" interp="linr"  time="-9999999/1" value="0" leadInLength="0/1"  interpolater="leadin-linr"  />
           <InterpolatingParam id="1083" interp="linr"  time="-9999999/1" value="0" leadInLength="0/1"  interpolater="leadin-linr"  />
           <InterpolatingParam id="1084" interp="linr"  time="-9999999/1" value="0" leadInLength="0/1"  interpolater="leadin-linr"  />
          </VectorParam>
          <VectorParam id="1085"  name="shear">
           <InterpolatingParam id="1086" interp="linr"  time="-9999999/1" value="0" leadInLength="0/1"  interpolater="leadin-linr"  />
           <InterpolatingParam id="1087" interp="linr"  time="-9999999/1" value="0" leadInLength="0/1"  interpolater="leadin-linr"  />
           <InterpolatingParam id="1088" interp="linr"  time="-9999999/1" value="0" leadInLength="0/1"  interpolater="leadin-linr"  />
          </VectorParam>
          <VectorParam id="1089"  name="scale">
           <InterpolatingParam id="1090" interp="linr"  time="-9999999/1" value="0.7114583333333333" leadInLength="0/1"  interpolater="leadin-linr"  />
           <InterpolatingParam id="1091" interp="linr"  time="-9999999/1" value="0.7114583333333333" leadInLength="0/1"  interpolater="leadin-linr"  />
           <InterpolatingParam id="1092" interp="linr"  time="-9999999/1" value="1" leadInLength="0/1"  interpolater="leadin-linr"  />
          </VectorParam>
          <VectorParam id="1093"  name="anchor">
           <InterpolatingParam id="1094" interp="linr"  time="0/1" value="0" leadInLength="0/1"  />
           <InterpolatingParam id="1095" interp="linr"  time="0/1" value="0" leadInLength="0/1"  />
           <InterpolatingParam id="1096" interp="linr"  time="0/1" value="0" leadInLength="0/1"  />
          </VectorParam>
         </Transformer>
         <Parameters>
          <VectorParam id="1097"  name="sourceCrop">
           <InterpolatingParam id="1098" interp="linr"  time="0/1" value="0" leadInLength="0/1"  />
           <InterpolatingParam id="1099" interp="linr"  time="0/1" value="0" leadInLength="0/1"  />
           <InterpolatingParam id="1100" interp="linr"  time="0/1" value="0" leadInLength="0/1"  />
           <InterpolatingParam id="1101" interp="linr"  time="0/1" value="0" leadInLength="0/1"  />
          </VectorParam>
          <VectorParam id="1102"  name="geometryCrop">
           <InterpolatingParam id="1103" interp="linr"  time="-9999999/1" value="0" leadInLength="0/1"  interpolater="leadin-linr"  />
           <InterpolatingParam id="1104" interp="linr"  time="-9999999/1" value="0" leadInLength="0/1"  interpolater="leadin-linr"  />
           <InterpolatingParam id="1105" interp="linr"  time="-9999999/1" value="0" leadInLength="0/1"  interpolater="leadin-linr"  />
           <InterpolatingParam id="1106" interp="linr"  time="-9999999/1" value="0" leadInLength="0/1"  interpolater="leadin-linr"  />
          </VectorParam>
          <InterpolatingParam id="1107" interp="linr"  time="-9999999/1" value="1" leadInLength="0/1"  interpolater="leadin-linr"  name="opacity"/>
          <InterpolatingParam id="1108" interp="linr"  time="0/1" value="1" leadInLength="0/1"  name="cursorOpacity"/>
          <InterpolatingParam id="1109" interp="linr"  time="0/1" value="1" leadInLength="0/1"  name="cursorScale"/>
          <Parameter id="1110"  name="captions"/>
         </Parameters>
         <Effects>
          <GenericEffect id="1111" name = "CursorBaseEffectName" >
           <Parameters>
           <InterpolatingParam id="1112" interp="linr"  time="-9999999/1" value="1" leadInLength="0/1"   name="cursorSize"/>
           <InterpolatingParam id="1113" interp="linr"  time="-9999999/1" value="0" leadInLength="0/1"   name="highlightBlurRadius"/>
           <InterpolatingParam id="1114" interp="linr"  time="-9999999/1" value="0" leadInLength="0/1"   name="highlightColorBlue"/>
           <InterpolatingParam id="1115" interp="linr"  time="-9999999/1" value="255" leadInLength="0/1"   name="highlightColorGreen"/>
           <InterpolatingParam id="1116" interp="linr"  time="-9999999/1" value="255" leadInLength="0/1"   name="highlightColorRed"/>
           <InterpolatingParam id="1117" interp="linr"  time="-9999999/1" value="5" leadInLength="0/1"   name="highlightFeatherSize"/>
           <InterpolatingParam id="1118" interp="linr"  time="-9999999/1" value="2" leadInLength="0/1"   name="highlightMagnification"/>
           <InterpolatingParam id="1119" interp="linr"  time="-9999999/1" value="1" leadInLength="0/1"   name="highlightOpacity"/>
           <InterpolatingParam id="1120" interp="linr"  time="-9999999/1" value="45" leadInLength="0/1"   name="highlightSize"/>
           <Parameter id="1121"   name="highlightType">
            <Keyframes>
            <Keyframe id="1122"  time="-9999999/1" value="0" leadInLength="0/1"  />
            </Keyframes>
           </Parameter>
           <InterpolatingParam id="1123" interp="linr"  time="-9999999/1" value="0" leadInLength="0/1"   name="leftClickColorBlue"/>
           <InterpolatingParam id="1124" interp="linr"  time="-9999999/1" value="0" leadInLength="0/1"   name="leftClickColorGreen"/>
           <InterpolatingParam id="1125" interp="linr"  time="-9999999/1" value="255" leadInLength="0/1"   name="leftClickColorRed"/>
           <InterpolatingParam id="1126" interp="linr"  time="-9999999/1" value="0.80000000000000004" leadInLength="0/1"   name="leftClickDuration"/>
           <InterpolatingParam id="1127" interp="linr"  time="-9999999/1" value="20" leadInLength="0/1"   name="leftClickSize"/>
           <Parameter id="1128"   name="leftClickSoundFilename">
            <Keyframes>
            <Keyframe id="1129"  time="-9999999/1" value="" leadInLength="0/1"  />
            </Keyframes>
           </Parameter>
           <InterpolatingParam id="1130" interp="linr"  time="-9999999/1" value="1" leadInLength="0/1"   name="leftClickSoundVolume"/>
           <Parameter id="1131"   name="leftClickType">
            <Keyframes>
            <Keyframe id="1132"  time="-9999999/1" value="0" leadInLength="0/1"  />
            </Keyframes>
           </Parameter>
           <InterpolatingParam id="1133" interp="linr"  time="-9999999/1" value="1" leadInLength="0/1"   name="opacity"/>
           <InterpolatingParam id="1134" interp="linr"  time="-9999999/1" value="255" leadInLength="0/1"   name="rightClickColorBlue"/>
           <InterpolatingParam id="1135" interp="linr"  time="-9999999/1" value="0" leadInLength="0/1"   name="rightClickColorGreen"/>
           <InterpolatingParam id="1136" interp="linr"  time="-9999999/1" value="0" leadInLength="0/1"   name="rightClickColorRed"/>
           <InterpolatingParam id="1137" interp="linr"  time="-9999999/1" value="0.80000000000000004" leadInLength="0/1"   name="rightClickDuration"/>
           <InterpolatingParam id="1138" interp="linr"  time="-9999999/1" value="20" leadInLength="0/1"   name="rightClickSize"/>
           <Parameter id="1139"   name="rightClickSoundFilename">
            <Keyframes>
            <Keyframe id="1140"  time="-9999999/1" value="" leadInLength="0/1"  />
            </Keyframes>
           </Parameter>
           <InterpolatingParam id="1141" interp="linr"  time="-9999999/1" value="1" leadInLength="0/1"   name="rightClickSoundVolume"/>
           <Parameter id="1142"   name="rightClickType">
            <Keyframes>
            <Keyframe id="1143"  time="-9999999/1" value="0" leadInLength="0/1"  />
            </Keyframes>
           </Parameter>
           </Parameters>
          </GenericEffect>
         </Effects>
         <Attributes>
          <Attribute id="1144" value="" name="ident"/>
         </Attributes>
         <MetaData>
          <entry key="AutoAppliedSmartFocus" val="False"/>
          <entry key="WinSubProjectDisplayName" val=""/>
         </MetaData>
         <ExtraData>
          <Entry key="ZoomPanBin">
           <ZoomPanBin id="1145"  >
            <ZoomPanKeyframes>
             <ZoomPanKeyframe id="1146" timeRangeEnd="-9999999/1" timeRangeDuration="0/1" interpolaterName="linr"  />
            </ZoomPanKeyframes>
           </ZoomPanBin>
          </Entry>
          <Entry key="CursorEffectBin">
           <CursorEffectBin id="1147"  >
            <CursorEffectKeyframes>
             <CursorEffectKeyframe id="1148" timeRangeEnd="-9999999/1" timeRangeDuration="0/1" interpolaterName=""  />
            </CursorEffectKeyframes>
           </CursorEffectBin>
          </Entry>
         </ExtraData>
         <GenericTrack id="1149"  >
          <Attributes>
           <Attribute id="1150" value="" name="ident"/>
           <Attribute id="1151" value="0" name="audioMuted"/>
           <Attribute id="1152" value="0" name="videoHidden"/>
          </Attributes>
          <MetaData>
           <entry key="IsLocked" val="False"/>
           <entry key="WinTrackHeight" val="0"/>
          </MetaData>
          <Medias>
           <ScreenVMFile id="1153" start="0" duration="142" scalar="1/1" mediaStart="0/1" mediaDuration="142/1" trackNumber="0" src="4" >
            <Transformer>
             <VectorParam id="1154"  name="translation">
              <InterpolatingParam id="1155" interp="linr"  time="-9999999/1" value="0" leadInLength="0/1"  />
              <InterpolatingParam id="1156" interp="linr"  time="-9999999/1" value="0" leadInLength="0/1"  />
              <InterpolatingParam id="1157" interp="linr"  time="-9999999/1" value="0" leadInLength="0/1"  />
             </VectorParam>
             <VectorParam id="1158"  name="rotation">
              <InterpolatingParam id="1159" interp="linr"  time="-9999999/1" value="0" leadInLength="0/1"  />
              <InterpolatingParam id="1160" interp="linr"  time="-9999999/1" value="0" leadInLength="0/1"  />
              <InterpolatingParam id="1161" interp="linr"  time="-9999999/1" value="0" leadInLength="0/1"  />
             </VectorParam>
             <VectorParam id="1162"  name="shear">
              <InterpolatingParam id="1163" interp="linr"  time="-9999999/1" value="0" leadInLength="0/1"  />
              <InterpolatingParam id="1164" interp="linr"  time="-9999999/1" value="0" leadInLength="0/1"  />
              <InterpolatingParam id="1165" interp="linr"  time="-9999999/1" value="0" leadInLength="0/1"  />
             </VectorParam>
             <VectorParam id="1166"  name="scale">
              <InterpolatingParam id="1167" interp="linr"  time="-9999999/1" value="1" leadInLength="0/1"  />
              <InterpolatingParam id="1168" interp="linr"  time="-9999999/1" value="1" leadInLength="0/1"  />
              <InterpolatingParam id="1169" interp="linr"  time="-9999999/1" value="1" leadInLength="0/1"  />
             </VectorParam>
             <VectorParam id="1170"  name="anchor">
              <InterpolatingParam id="1171" interp="linr"  time="0/1" value="0" leadInLength="0/1"  />
              <InterpolatingParam id="1172" interp="linr"  time="0/1" value="0" leadInLength="0/1"  />
              <InterpolatingParam id="1173" interp="linr"  time="0/1" value="0" leadInLength="0/1"  />
             </VectorParam>
            </Transformer>
            <Parameters>
             <VectorParam id="1174"  name="sourceCrop">
              <InterpolatingParam id="1175" interp="linr"  time="0/1" value="0" leadInLength="0/1"  />
              <InterpolatingParam id="1176" interp="linr"  time="0/1" value="0" leadInLength="0/1"  />
              <InterpolatingParam id="1177" interp="linr"  time="0/1" value="0" leadInLength="0/1"  />
              <InterpolatingParam id="1178" interp="linr"  time="0/1" value="0" leadInLength="0/1"  />
             </VectorParam>
             <VectorParam id="1179"  name="geometryCrop">
              <InterpolatingParam id="1180" interp="linr"  time="-9999999/1" value="0" leadInLength="0/1"  />
              <InterpolatingParam id="1181" interp="linr"  time="-9999999/1" value="0" leadInLength="0/1"  />
              <InterpolatingParam id="1182" interp="linr"  time="-9999999/1" value="0" leadInLength="0/1"  />
              <InterpolatingParam id="1183" interp="linr"  time="-9999999/1" value="0" leadInLength="0/1"  />
             </VectorParam>
             <InterpolatingParam id="1184" interp="linr"  time="-9999999/1" value="1" leadInLength="0/1"  name="opacity"/>
             <InterpolatingParam id="1185" interp="linr"  time="0/1" value="0" leadInLength="0/1"  name="cursorOpacity"/>
             <InterpolatingParam id="1186" interp="linr"  time="0/1" value="0" leadInLength="0/1"  name="cursorScale"/>
            </Parameters>
            <Attributes>
             <Attribute id="1187" value="" name="ident"/>
            </Attributes>
            <MetaData>
             <entry key="AutoAppliedSmartFocus" val="False"/>
             <entry key="WinSubProjectDisplayName" val=""/>
            </MetaData>
            <ExtraData>
             <Entry key="ZoomPanBin">
              <ZoomPanBin id="1188"  >
               <ZoomPanKeyframes>
                <ZoomPanKeyframe id="1189" timeRangeEnd="-9999999/1" timeRangeDuration="0/1" interpolaterName=""  />
               </ZoomPanKeyframes>
              </ZoomPanBin>
             </Entry>
             <Entry key="CursorEffectBin">
              <CursorEffectBin id="1190"  >
               <CursorEffectKeyframes>
               </CursorEffectKeyframes>
              </CursorEffectBin>
             </Entry>
            </ExtraData>
           </ScreenVMFile>
           <ScreenVMFile id="1191" start="142" duration="92" scalar="1/1" mediaStart="158/1" mediaDuration="92/1" trackNumber="0" src="4" >
            <Transformer>
             <VectorParam id="1192"  name="translation">
              <InterpolatingParam id="1193" interp="linr"  time="-9999999/1" value="0" leadInLength="0/1"  />
              <InterpolatingParam id="1194" interp="linr"  time="-9999999/1" value="0" leadInLength="0/1"  />
              <InterpolatingParam id="1195" interp="linr"  time="-9999999/1" value="0" leadInLength="0/1"  />
             </VectorParam>
             <VectorParam id="1196"  name="rotation">
              <InterpolatingParam id="1197" interp="linr"  time="-9999999/1" value="0" leadInLength="0/1"  />
              <InterpolatingParam id="1198" interp="linr"  time="-9999999/1" value="0" leadInLength="0/1"  />
              <InterpolatingParam id="1199" interp="linr"  time="-9999999/1" value="0" leadInLength="0/1"  />
             </VectorParam>
             <VectorParam id="1200"  name="shear">
              <InterpolatingParam id="1201" interp="linr"  time="-9999999/1" value="0" leadInLength="0/1"  />
              <InterpolatingParam id="1202" interp="linr"  time="-9999999/1" value="0" leadInLength="0/1"  />
              <InterpolatingParam id="1203" interp="linr"  time="-9999999/1" value="0" leadInLength="0/1"  />
             </VectorParam>
             <VectorParam id="1204"  name="scale">
              <InterpolatingParam id="1205" interp="linr"  time="-9999999/1" value="1" leadInLength="0/1"  />
              <InterpolatingParam id="1206" interp="linr"  time="-9999999/1" value="1" leadInLength="0/1"  />
              <InterpolatingParam id="1207" interp="linr"  time="-9999999/1" value="1" leadInLength="0/1"  />
             </VectorParam>
             <VectorParam id="1208"  name="anchor">
              <InterpolatingParam id="1209" interp="linr"  time="0/1" value="0" leadInLength="0/1"  />
              <InterpolatingParam id="1210" interp="linr"  time="0/1" value="0" leadInLength="0/1"  />
              <InterpolatingParam id="1211" interp="linr"  time="0/1" value="0" leadInLength="0/1"  />
             </VectorParam>
            </Transformer>
            <Parameters>
             <VectorParam id="1212"  name="sourceCrop">
              <InterpolatingParam id="1213" interp="linr"  time="0/1" value="0" leadInLength="0/1"  />
              <InterpolatingParam id="1214" interp="linr"  time="0/1" value="0" leadInLength="0/1"  />
              <InterpolatingParam id="1215" interp="linr"  time="0/1" value="0" leadInLength="0/1"  />
              <InterpolatingParam id="1216" interp="linr"  time="0/1" value="0" leadInLength="0/1"  />
             </VectorParam>
             <VectorParam id="1217"  name="geometryCrop">
              <InterpolatingParam id="1218" interp="linr"  time="-9999999/1" value="0" leadInLength="0/1"  />
              <InterpolatingParam id="1219" interp="linr"  time="-9999999/1" value="0" leadInLength="0/1"  />
              <InterpolatingParam id="1220" interp="linr"  time="-9999999/1" value="0" leadInLength="0/1"  />
              <InterpolatingParam id="1221" interp="linr"  time="-9999999/1" value="0" leadInLength="0/1"  />
             </VectorParam>
             <InterpolatingParam id="1222" interp="linr"  time="-9999999/1" value="1" leadInLength="0/1"  name="opacity"/>
             <InterpolatingParam id="1223" interp="linr"  time="0/1" value="0" leadInLength="0/1"  name="cursorOpacity"/>
             <InterpolatingParam id="1224" interp="linr"  time="0/1" value="0" leadInLength="0/1"  name="cursorScale"/>
            </Parameters>
            <Attributes>
             <Attribute id="1225" value="" name="ident"/>
            </Attributes>
            <MetaData>
             <entry key="AutoAppliedSmartFocus" val="False"/>
             <entry key="WinSubProjectDisplayName" val=""/>
            </MetaData>
            <ExtraData>
             <Entry key="ZoomPanBin">
              <ZoomPanBin id="1226"  >
               <ZoomPanKeyframes>
                <ZoomPanKeyframe id="1227" timeRangeEnd="-9999999/1" timeRangeDuration="0/1" interpolaterName=""  />
               </ZoomPanKeyframes>
              </ZoomPanBin>
             </Entry>
             <Entry key="CursorEffectBin">
              <CursorEffectBin id="1228"  >
               <CursorEffectKeyframes>
               </CursorEffectKeyframes>
              </CursorEffectBin>
             </Entry>
            </ExtraData>
           </ScreenVMFile>
           <ScreenVMFile id="1229" start="234" duration="1188" scalar="1/1" mediaStart="269/1" mediaDuration="1188/1" trackNumber="0" src="4" >
            <Transformer>
             <VectorParam id="1230"  name="translation">
              <InterpolatingParam id="1231" interp="linr"  time="-9999999/1" value="0" leadInLength="0/1"  />
              <InterpolatingParam id="1232" interp="linr"  time="-9999999/1" value="0" leadInLength="0/1"  />
              <InterpolatingParam id="1233" interp="linr"  time="-9999999/1" value="0" leadInLength="0/1"  />
             </VectorParam>
             <VectorParam id="1234"  name="rotation">
              <InterpolatingParam id="1235" interp="linr"  time="-9999999/1" value="0" leadInLength="0/1"  />
              <InterpolatingParam id="1236" interp="linr"  time="-9999999/1" value="0" leadInLength="0/1"  />
              <InterpolatingParam id="1237" interp="linr"  time="-9999999/1" value="0" leadInLength="0/1"  />
             </VectorParam>
             <VectorParam id="1238"  name="shear">
              <InterpolatingParam id="1239" interp="linr"  time="-9999999/1" value="0" leadInLength="0/1"  />
              <InterpolatingParam id="1240" interp="linr"  time="-9999999/1" value="0" leadInLength="0/1"  />
              <InterpolatingParam id="1241" interp="linr"  time="-9999999/1" value="0" leadInLength="0/1"  />
             </VectorParam>
             <VectorParam id="1242"  name="scale">
              <InterpolatingParam id="1243" interp="linr"  time="-9999999/1" value="1" leadInLength="0/1"  />
              <InterpolatingParam id="1244" interp="linr"  time="-9999999/1" value="1" leadInLength="0/1"  />
              <InterpolatingParam id="1245" interp="linr"  time="-9999999/1" value="1" leadInLength="0/1"  />
             </VectorParam>
             <VectorParam id="1246"  name="anchor">
              <InterpolatingParam id="1247" interp="linr"  time="0/1" value="0" leadInLength="0/1"  />
              <InterpolatingParam id="1248" interp="linr"  time="0/1" value="0" leadInLength="0/1"  />
              <InterpolatingParam id="1249" interp="linr"  time="0/1" value="0" leadInLength="0/1"  />
             </VectorParam>
            </Transformer>
            <Parameters>
             <VectorParam id="1250"  name="sourceCrop">
              <InterpolatingParam id="1251" interp="linr"  time="0/1" value="0" leadInLength="0/1"  />
              <InterpolatingParam id="1252" interp="linr"  time="0/1" value="0" leadInLength="0/1"  />
              <InterpolatingParam id="1253" interp="linr"  time="0/1" value="0" leadInLength="0/1"  />
              <InterpolatingParam id="1254" interp="linr"  time="0/1" value="0" leadInLength="0/1"  />
             </VectorParam>
             <VectorParam id="1255"  name="geometryCrop">
              <InterpolatingParam id="1256" interp="linr"  time="-9999999/1" value="0" leadInLength="0/1"  />
              <InterpolatingParam id="1257" interp="linr"  time="-9999999/1" value="0" leadInLength="0/1"  />
              <InterpolatingParam id="1258" interp="linr"  time="-9999999/1" value="0" leadInLength="0/1"  />
              <InterpolatingParam id="1259" interp="linr"  time="-9999999/1" value="0" leadInLength="0/1"  />
             </VectorParam>
             <InterpolatingParam id="1260" interp="linr"  time="-9999999/1" value="1" leadInLength="0/1"  name="opacity"/>
             <InterpolatingParam id="1261" interp="linr"  time="0/1" value="0" leadInLength="0/1"  name="cursorOpacity"/>
             <InterpolatingParam id="1262" interp="linr"  time="0/1" value="0" leadInLength="0/1"  name="cursorScale"/>
            </Parameters>
            <Attributes>
             <Attribute id="1263" value="" name="ident"/>
            </Attributes>
            <MetaData>
             <entry key="AutoAppliedSmartFocus" val="False"/>
             <entry key="WinSubProjectDisplayName" val=""/>
            </MetaData>
            <ExtraData>
             <Entry key="ZoomPanBin">
              <ZoomPanBin id="1264"  >
               <ZoomPanKeyframes>
                <ZoomPanKeyframe id="1265" timeRangeEnd="-9999999/1" timeRangeDuration="0/1" interpolaterName=""  />
               </ZoomPanKeyframes>
              </ZoomPanBin>
             </Entry>
             <Entry key="CursorEffectBin">
              <CursorEffectBin id="1266"  >
               <CursorEffectKeyframes>
               </CursorEffectKeyframes>
              </CursorEffectBin>
             </Entry>
            </ExtraData>
           </ScreenVMFile>
           <ScreenVMFile id="1267" start="1422" duration="776" scalar="1/1" mediaStart="1485/1" mediaDuration="776/1" trackNumber="0" src="4" >
            <Transformer>
             <VectorParam id="1268"  name="translation">
              <InterpolatingParam id="1269" interp="linr"  time="-9999999/1" value="0" leadInLength="0/1"  />
              <InterpolatingParam id="1270" interp="linr"  time="-9999999/1" value="0" leadInLength="0/1"  />
              <InterpolatingParam id="1271" interp="linr"  time="-9999999/1" value="0" leadInLength="0/1"  />
             </VectorParam>
             <VectorParam id="1272"  name="rotation">
              <InterpolatingParam id="1273" interp="linr"  time="-9999999/1" value="0" leadInLength="0/1"  />
              <InterpolatingParam id="1274" interp="linr"  time="-9999999/1" value="0" leadInLength="0/1"  />
              <InterpolatingParam id="1275" interp="linr"  time="-9999999/1" value="0" leadInLength="0/1"  />
             </VectorParam>
             <VectorParam id="1276"  name="shear">
              <InterpolatingParam id="1277" interp="linr"  time="-9999999/1" value="0" leadInLength="0/1"  />
              <InterpolatingParam id="1278" interp="linr"  time="-9999999/1" value="0" leadInLength="0/1"  />
              <InterpolatingParam id="1279" interp="linr"  time="-9999999/1" value="0" leadInLength="0/1"  />
             </VectorParam>
             <VectorParam id="1280"  name="scale">
              <InterpolatingParam id="1281" interp="linr"  time="-9999999/1" value="1" leadInLength="0/1"  />
              <InterpolatingParam id="1282" interp="linr"  time="-9999999/1" value="1" leadInLength="0/1"  />
              <InterpolatingParam id="1283" interp="linr"  time="-9999999/1" value="1" leadInLength="0/1"  />
             </VectorParam>
             <VectorParam id="1284"  name="anchor">
              <InterpolatingParam id="1285" interp="linr"  time="0/1" value="0" leadInLength="0/1"  />
              <InterpolatingParam id="1286" interp="linr"  time="0/1" value="0" leadInLength="0/1"  />
              <InterpolatingParam id="1287" interp="linr"  time="0/1" value="0" leadInLength="0/1"  />
             </VectorParam>
            </Transformer>
            <Parameters>
             <VectorParam id="1288"  name="sourceCrop">
              <InterpolatingParam id="1289" interp="linr"  time="0/1" value="0" leadInLength="0/1"  />
              <InterpolatingParam id="1290" interp="linr"  time="0/1" value="0" leadInLength="0/1"  />
              <InterpolatingParam id="1291" interp="linr"  time="0/1" value="0" leadInLength="0/1"  />
              <InterpolatingParam id="1292" interp="linr"  time="0/1" value="0" leadInLength="0/1"  />
             </VectorParam>
             <VectorParam id="1293"  name="geometryCrop">
              <InterpolatingParam id="1294" interp="linr"  time="-9999999/1" value="0" leadInLength="0/1"  />
              <InterpolatingParam id="1295" interp="linr"  time="-9999999/1" value="0" leadInLength="0/1"  />
              <InterpolatingParam id="1296" interp="linr"  time="-9999999/1" value="0" leadInLength="0/1"  />
              <InterpolatingParam id="1297" interp="linr"  time="-9999999/1" value="0" leadInLength="0/1"  />
             </VectorParam>
             <InterpolatingParam id="1298" interp="linr"  time="-9999999/1" value="1" leadInLength="0/1"  name="opacity"/>
             <InterpolatingParam id="1299" interp="linr"  time="0/1" value="0" leadInLength="0/1"  name="cursorOpacity"/>
             <InterpolatingParam id="1300" interp="linr"  time="0/1" value="0" leadInLength="0/1"  name="cursorScale"/>
            </Parameters>
            <Attributes>
             <Attribute id="1301" value="" name="ident"/>
            </Attributes>
            <MetaData>
             <entry key="AutoAppliedSmartFocus" val="False"/>
             <entry key="WinSubProjectDisplayName" val=""/>
            </MetaData>
            <ExtraData>
             <Entry key="ZoomPanBin">
              <ZoomPanBin id="1302"  >
               <ZoomPanKeyframes>
                <ZoomPanKeyframe id="1303" timeRangeEnd="-9999999/1" timeRangeDuration="0/1" interpolaterName=""  />
               </ZoomPanKeyframes>
              </ZoomPanBin>
             </Entry>
             <Entry key="CursorEffectBin">
              <CursorEffectBin id="1304"  >
               <CursorEffectKeyframes>
               </CursorEffectKeyframes>
              </CursorEffectBin>
             </Entry>
            </ExtraData>
           </ScreenVMFile>
           <ScreenVMFile id="1305" start="2198" duration="359" scalar="1/1" mediaStart="2295/1" mediaDuration="359/1" trackNumber="0" src="4" >
            <Transformer>
             <VectorParam id="1306"  name="translation">
              <InterpolatingParam id="1307" interp="linr"  time="-9999999/1" value="0" leadInLength="0/1"  />
              <InterpolatingParam id="1308" interp="linr"  time="-9999999/1" value="0" leadInLength="0/1"  />
              <InterpolatingParam id="1309" interp="linr"  time="-9999999/1" value="0" leadInLength="0/1"  />
             </VectorParam>
             <VectorParam id="1310"  name="rotation">
              <InterpolatingParam id="1311" interp="linr"  time="-9999999/1" value="0" leadInLength="0/1"  />
              <InterpolatingParam id="1312" interp="linr"  time="-9999999/1" value="0" leadInLength="0/1"  />
              <InterpolatingParam id="1313" interp="linr"  time="-9999999/1" value="0" leadInLength="0/1"  />
             </VectorParam>
             <VectorParam id="1314"  name="shear">
              <InterpolatingParam id="1315" interp="linr"  time="-9999999/1" value="0" leadInLength="0/1"  />
              <InterpolatingParam id="1316" interp="linr"  time="-9999999/1" value="0" leadInLength="0/1"  />
              <InterpolatingParam id="1317" interp="linr"  time="-9999999/1" value="0" leadInLength="0/1"  />
             </VectorParam>
             <VectorParam id="1318"  name="scale">
              <InterpolatingParam id="1319" interp="linr"  time="-9999999/1" value="1" leadInLength="0/1"  />
              <InterpolatingParam id="1320" interp="linr"  time="-9999999/1" value="1" leadInLength="0/1"  />
              <InterpolatingParam id="1321" interp="linr"  time="-9999999/1" value="1" leadInLength="0/1"  />
             </VectorParam>
             <VectorParam id="1322"  name="anchor">
              <InterpolatingParam id="1323" interp="linr"  time="0/1" value="0" leadInLength="0/1"  />
              <InterpolatingParam id="1324" interp="linr"  time="0/1" value="0" leadInLength="0/1"  />
              <InterpolatingParam id="1325" interp="linr"  time="0/1" value="0" leadInLength="0/1"  />
             </VectorParam>
            </Transformer>
            <Parameters>
             <VectorParam id="1326"  name="sourceCrop">
              <InterpolatingParam id="1327" interp="linr"  time="0/1" value="0" leadInLength="0/1"  />
              <InterpolatingParam id="1328" interp="linr"  time="0/1" value="0" leadInLength="0/1"  />
              <InterpolatingParam id="1329" interp="linr"  time="0/1" value="0" leadInLength="0/1"  />
              <InterpolatingParam id="1330" interp="linr"  time="0/1" value="0" leadInLength="0/1"  />
             </VectorParam>
             <VectorParam id="1331"  name="geometryCrop">
              <InterpolatingParam id="1332" interp="linr"  time="-9999999/1" value="0" leadInLength="0/1"  />
              <InterpolatingParam id="1333" interp="linr"  time="-9999999/1" value="0" leadInLength="0/1"  />
              <InterpolatingParam id="1334" interp="linr"  time="-9999999/1" value="0" leadInLength="0/1"  />
              <InterpolatingParam id="1335" interp="linr"  time="-9999999/1" value="0" leadInLength="0/1"  />
             </VectorParam>
             <InterpolatingParam id="1336" interp="linr"  time="-9999999/1" value="1" leadInLength="0/1"  name="opacity"/>
             <InterpolatingParam id="1337" interp="linr"  time="0/1" value="0" leadInLength="0/1"  name="cursorOpacity"/>
             <InterpolatingParam id="1338" interp="linr"  time="0/1" value="0" leadInLength="0/1"  name="cursorScale"/>
            </Parameters>
            <Attributes>
             <Attribute id="1339" value="" name="ident"/>
            </Attributes>
            <MetaData>
             <entry key="AutoAppliedSmartFocus" val="False"/>
             <entry key="WinSubProjectDisplayName" val=""/>
            </MetaData>
            <ExtraData>
             <Entry key="ZoomPanBin">
              <ZoomPanBin id="1340"  >
               <ZoomPanKeyframes>
                <ZoomPanKeyframe id="1341" timeRangeEnd="-9999999/1" timeRangeDuration="0/1" interpolaterName=""  />
               </ZoomPanKeyframes>
              </ZoomPanBin>
             </Entry>
             <Entry key="CursorEffectBin">
              <CursorEffectBin id="1342"  >
               <CursorEffectKeyframes>
               </CursorEffectKeyframes>
              </CursorEffectBin>
             </Entry>
            </ExtraData>
           </ScreenVMFile>
           <ScreenVMFile id="1343" start="2557" duration="1" scalar="1/1" mediaStart="2670/1" mediaDuration="1/1" trackNumber="0" src="4" >
            <Transformer>
             <VectorParam id="1344"  name="translation">
              <InterpolatingParam id="1345" interp="linr"  time="-9999999/1" value="0" leadInLength="0/1"  />
              <InterpolatingParam id="1346" interp="linr"  time="-9999999/1" value="0" leadInLength="0/1"  />
              <InterpolatingParam id="1347" interp="linr"  time="-9999999/1" value="0" leadInLength="0/1"  />
             </VectorParam>
             <VectorParam id="1348"  name="rotation">
              <InterpolatingParam id="1349" interp="linr"  time="-9999999/1" value="0" leadInLength="0/1"  />
              <InterpolatingParam id="1350" interp="linr"  time="-9999999/1" value="0" leadInLength="0/1"  />
              <InterpolatingParam id="1351" interp="linr"  time="-9999999/1" value="0" leadInLength="0/1"  />
             </VectorParam>
             <VectorParam id="1352"  name="shear">
              <InterpolatingParam id="1353" interp="linr"  time="-9999999/1" value="0" leadInLength="0/1"  />
              <InterpolatingParam id="1354" interp="linr"  time="-9999999/1" value="0" leadInLength="0/1"  />
              <InterpolatingParam id="1355" interp="linr"  time="-9999999/1" value="0" leadInLength="0/1"  />
             </VectorParam>
             <VectorParam id="1356"  name="scale">
              <InterpolatingParam id="1357" interp="linr"  time="-9999999/1" value="1" leadInLength="0/1"  />
              <InterpolatingParam id="1358" interp="linr"  time="-9999999/1" value="1" leadInLength="0/1"  />
              <InterpolatingParam id="1359" interp="linr"  time="-9999999/1" value="1" leadInLength="0/1"  />
             </VectorParam>
             <VectorParam id="1360"  name="anchor">
              <InterpolatingParam id="1361" interp="linr"  time="0/1" value="0" leadInLength="0/1"  />
              <InterpolatingParam id="1362" interp="linr"  time="0/1" value="0" leadInLength="0/1"  />
              <InterpolatingParam id="1363" interp="linr"  time="0/1" value="0" leadInLength="0/1"  />
             </VectorParam>
            </Transformer>
            <Parameters>
             <VectorParam id="1364"  name="sourceCrop">
              <InterpolatingParam id="1365" interp="linr"  time="0/1" value="0" leadInLength="0/1"  />
              <InterpolatingParam id="1366" interp="linr"  time="0/1" value="0" leadInLength="0/1"  />
              <InterpolatingParam id="1367" interp="linr"  time="0/1" value="0" leadInLength="0/1"  />
              <InterpolatingParam id="1368" interp="linr"  time="0/1" value="0" leadInLength="0/1"  />
             </VectorParam>
             <VectorParam id="1369"  name="geometryCrop">
              <InterpolatingParam id="1370" interp="linr"  time="-9999999/1" value="0" leadInLength="0/1"  />
              <InterpolatingParam id="1371" interp="linr"  time="-9999999/1" value="0" leadInLength="0/1"  />
              <InterpolatingParam id="1372" interp="linr"  time="-9999999/1" value="0" leadInLength="0/1"  />
              <InterpolatingParam id="1373" interp="linr"  time="-9999999/1" value="0" leadInLength="0/1"  />
             </VectorParam>
             <InterpolatingParam id="1374" interp="linr"  time="-9999999/1" value="1" leadInLength="0/1"  name="opacity"/>
             <InterpolatingParam id="1375" interp="linr"  time="0/1" value="0" leadInLength="0/1"  name="cursorOpacity"/>
             <InterpolatingParam id="1376" interp="linr"  time="0/1" value="0" leadInLength="0/1"  name="cursorScale"/>
            </Parameters>
            <Attributes>
             <Attribute id="1377" value="" name="ident"/>
            </Attributes>
            <MetaData>
             <entry key="AutoAppliedSmartFocus" val="False"/>
             <entry key="WinSubProjectDisplayName" val=""/>
            </MetaData>
            <ExtraData>
             <Entry key="ZoomPanBin">
              <ZoomPanBin id="1378"  >
               <ZoomPanKeyframes>
                <ZoomPanKeyframe id="1379" timeRangeEnd="-9999999/1" timeRangeDuration="0/1" interpolaterName=""  />
               </ZoomPanKeyframes>
              </ZoomPanBin>
             </Entry>
             <Entry key="CursorEffectBin">
              <CursorEffectBin id="1380"  >
               <CursorEffectKeyframes>
               </CursorEffectKeyframes>
              </CursorEffectBin>
             </Entry>
            </ExtraData>
           </ScreenVMFile>
           <ScreenVMFile id="1381" start="2558" duration="418" scalar="1/1" mediaStart="2798/1" mediaDuration="418/1" trackNumber="0" src="4" >
            <Transformer>
             <VectorParam id="1382"  name="translation">
              <InterpolatingParam id="1383" interp="linr"  time="-9999999/1" value="0" leadInLength="0/1"  />
              <InterpolatingParam id="1384" interp="linr"  time="-9999999/1" value="0" leadInLength="0/1"  />
              <InterpolatingParam id="1385" interp="linr"  time="-9999999/1" value="0" leadInLength="0/1"  />
             </VectorParam>
             <VectorParam id="1386"  name="rotation">
              <InterpolatingParam id="1387" interp="linr"  time="-9999999/1" value="0" leadInLength="0/1"  />
              <InterpolatingParam id="1388" interp="linr"  time="-9999999/1" value="0" leadInLength="0/1"  />
              <InterpolatingParam id="1389" interp="linr"  time="-9999999/1" value="0" leadInLength="0/1"  />
             </VectorParam>
             <VectorParam id="1390"  name="shear">
              <InterpolatingParam id="1391" interp="linr"  time="-9999999/1" value="0" leadInLength="0/1"  />
              <InterpolatingParam id="1392" interp="linr"  time="-9999999/1" value="0" leadInLength="0/1"  />
              <InterpolatingParam id="1393" interp="linr"  time="-9999999/1" value="0" leadInLength="0/1"  />
             </VectorParam>
             <VectorParam id="1394"  name="scale">
              <InterpolatingParam id="1395" interp="linr"  time="-9999999/1" value="1" leadInLength="0/1"  />
              <InterpolatingParam id="1396" interp="linr"  time="-9999999/1" value="1" leadInLength="0/1"  />
              <InterpolatingParam id="1397" interp="linr"  time="-9999999/1" value="1" leadInLength="0/1"  />
             </VectorParam>
             <VectorParam id="1398"  name="anchor">
              <InterpolatingParam id="1399" interp="linr"  time="0/1" value="0" leadInLength="0/1"  />
              <InterpolatingParam id="1400" interp="linr"  time="0/1" value="0" leadInLength="0/1"  />
              <InterpolatingParam id="1401" interp="linr"  time="0/1" value="0" leadInLength="0/1"  />
             </VectorParam>
            </Transformer>
            <Parameters>
             <VectorParam id="1402"  name="sourceCrop">
              <InterpolatingParam id="1403" interp="linr"  time="0/1" value="0" leadInLength="0/1"  />
              <InterpolatingParam id="1404" interp="linr"  time="0/1" value="0" leadInLength="0/1"  />
              <InterpolatingParam id="1405" interp="linr"  time="0/1" value="0" leadInLength="0/1"  />
              <InterpolatingParam id="1406" interp="linr"  time="0/1" value="0" leadInLength="0/1"  />
             </VectorParam>
             <VectorParam id="1407"  name="geometryCrop">
              <InterpolatingParam id="1408" interp="linr"  time="-9999999/1" value="0" leadInLength="0/1"  />
              <InterpolatingParam id="1409" interp="linr"  time="-9999999/1" value="0" leadInLength="0/1"  />
              <InterpolatingParam id="1410" interp="linr"  time="-9999999/1" value="0" leadInLength="0/1"  />
              <InterpolatingParam id="1411" interp="linr"  time="-9999999/1" value="0" leadInLength="0/1"  />
             </VectorParam>
             <InterpolatingParam id="1412" interp="linr"  time="-9999999/1" value="1" leadInLength="0/1"  name="opacity"/>
             <InterpolatingParam id="1413" interp="linr"  time="0/1" value="0" leadInLength="0/1"  name="cursorOpacity"/>
             <InterpolatingParam id="1414" interp="linr"  time="0/1" value="0" leadInLength="0/1"  name="cursorScale"/>
            </Parameters>
            <Attributes>
             <Attribute id="1415" value="" name="ident"/>
            </Attributes>
            <MetaData>
             <entry key="AutoAppliedSmartFocus" val="False"/>
             <entry key="WinSubProjectDisplayName" val=""/>
            </MetaData>
            <ExtraData>
             <Entry key="ZoomPanBin">
              <ZoomPanBin id="1416"  >
               <ZoomPanKeyframes>
                <ZoomPanKeyframe id="1417" timeRangeEnd="-9999999/1" timeRangeDuration="0/1" interpolaterName=""  />
               </ZoomPanKeyframes>
              </ZoomPanBin>
             </Entry>
             <Entry key="CursorEffectBin">
              <CursorEffectBin id="1418"  >
               <CursorEffectKeyframes>
               </CursorEffectKeyframes>
              </CursorEffectBin>
             </Entry>
            </ExtraData>
           </ScreenVMFile>
           <ScreenVMFile id="1419" start="2976" duration="247" scalar="1/1" mediaStart="3250/1" mediaDuration="247/1" trackNumber="0" src="4" >
            <Transformer>
             <VectorParam id="1420"  name="translation">
              <InterpolatingParam id="1421" interp="linr"  time="-9999999/1" value="0" leadInLength="0/1"  />
              <InterpolatingParam id="1422" interp="linr"  time="-9999999/1" value="0" leadInLength="0/1"  />
              <InterpolatingParam id="1423" interp="linr"  time="-9999999/1" value="0" leadInLength="0/1"  />
             </VectorParam>
             <VectorParam id="1424"  name="rotation">
              <InterpolatingParam id="1425" interp="linr"  time="-9999999/1" value="0" leadInLength="0/1"  />
              <InterpolatingParam id="1426" interp="linr"  time="-9999999/1" value="0" leadInLength="0/1"  />
              <InterpolatingParam id="1427" interp="linr"  time="-9999999/1" value="0" leadInLength="0/1"  />
             </VectorParam>
             <VectorParam id="1428"  name="shear">
              <InterpolatingParam id="1429" interp="linr"  time="-9999999/1" value="0" leadInLength="0/1"  />
              <InterpolatingParam id="1430" interp="linr"  time="-9999999/1" value="0" leadInLength="0/1"  />
              <InterpolatingParam id="1431" interp="linr"  time="-9999999/1" value="0" leadInLength="0/1"  />
             </VectorParam>
             <VectorParam id="1432"  name="scale">
              <InterpolatingParam id="1433" interp="linr"  time="-9999999/1" value="1" leadInLength="0/1"  />
              <InterpolatingParam id="1434" interp="linr"  time="-9999999/1" value="1" leadInLength="0/1"  />
              <InterpolatingParam id="1435" interp="linr"  time="-9999999/1" value="1" leadInLength="0/1"  />
             </VectorParam>
             <VectorParam id="1436"  name="anchor">
              <InterpolatingParam id="1437" interp="linr"  time="0/1" value="0" leadInLength="0/1"  />
              <InterpolatingParam id="1438" interp="linr"  time="0/1" value="0" leadInLength="0/1"  />
              <InterpolatingParam id="1439" interp="linr"  time="0/1" value="0" leadInLength="0/1"  />
             </VectorParam>
            </Transformer>
            <Parameters>
             <VectorParam id="1440"  name="sourceCrop">
              <InterpolatingParam id="1441" interp="linr"  time="0/1" value="0" leadInLength="0/1"  />
              <InterpolatingParam id="1442" interp="linr"  time="0/1" value="0" leadInLength="0/1"  />
              <InterpolatingParam id="1443" interp="linr"  time="0/1" value="0" leadInLength="0/1"  />
              <InterpolatingParam id="1444" interp="linr"  time="0/1" value="0" leadInLength="0/1"  />
             </VectorParam>
             <VectorParam id="1445"  name="geometryCrop">
              <InterpolatingParam id="1446" interp="linr"  time="-9999999/1" value="0" leadInLength="0/1"  />
              <InterpolatingParam id="1447" interp="linr"  time="-9999999/1" value="0" leadInLength="0/1"  />
              <InterpolatingParam id="1448" interp="linr"  time="-9999999/1" value="0" leadInLength="0/1"  />
              <InterpolatingParam id="1449" interp="linr"  time="-9999999/1" value="0" leadInLength="0/1"  />
             </VectorParam>
             <InterpolatingParam id="1450" interp="linr"  time="-9999999/1" value="1" leadInLength="0/1"  name="opacity"/>
             <InterpolatingParam id="1451" interp="linr"  time="0/1" value="0" leadInLength="0/1"  name="cursorOpacity"/>
             <InterpolatingParam id="1452" interp="linr"  time="0/1" value="0" leadInLength="0/1"  name="cursorScale"/>
            </Parameters>
            <Attributes>
             <Attribute id="1453" value="" name="ident"/>
            </Attributes>
            <MetaData>
             <entry key="AutoAppliedSmartFocus" val="False"/>
             <entry key="WinSubProjectDisplayName" val=""/>
            </MetaData>
            <ExtraData>
             <Entry key="ZoomPanBin">
              <ZoomPanBin id="1454"  >
               <ZoomPanKeyframes>
                <ZoomPanKeyframe id="1455" timeRangeEnd="-9999999/1" timeRangeDuration="0/1" interpolaterName=""  />
               </ZoomPanKeyframes>
              </ZoomPanBin>
             </Entry>
             <Entry key="CursorEffectBin">
              <CursorEffectBin id="1456"  >
               <CursorEffectKeyframes>
               </CursorEffectKeyframes>
              </CursorEffectBin>
             </Entry>
            </ExtraData>
           </ScreenVMFile>
           <ScreenVMFile id="1457" start="3223" duration="63" scalar="1/1" mediaStart="3630/1" mediaDuration="63/1" trackNumber="0" src="4" >
            <Transformer>
             <VectorParam id="1458"  name="translation">
              <InterpolatingParam id="1459" interp="linr"  time="-9999999/1" value="0" leadInLength="0/1"  />
              <InterpolatingParam id="1460" interp="linr"  time="-9999999/1" value="0" leadInLength="0/1"  />
              <InterpolatingParam id="1461" interp="linr"  time="-9999999/1" value="0" leadInLength="0/1"  />
             </VectorParam>
             <VectorParam id="1462"  name="rotation">
              <InterpolatingParam id="1463" interp="linr"  time="-9999999/1" value="0" leadInLength="0/1"  />
              <InterpolatingParam id="1464" interp="linr"  time="-9999999/1" value="0" leadInLength="0/1"  />
              <InterpolatingParam id="1465" interp="linr"  time="-9999999/1" value="0" leadInLength="0/1"  />
             </VectorParam>
             <VectorParam id="1466"  name="shear">
              <InterpolatingParam id="1467" interp="linr"  time="-9999999/1" value="0" leadInLength="0/1"  />
              <InterpolatingParam id="1468" interp="linr"  time="-9999999/1" value="0" leadInLength="0/1"  />
              <InterpolatingParam id="1469" interp="linr"  time="-9999999/1" value="0" leadInLength="0/1"  />
             </VectorParam>
             <VectorParam id="1470"  name="scale">
              <InterpolatingParam id="1471" interp="linr"  time="-9999999/1" value="1" leadInLength="0/1"  />
              <InterpolatingParam id="1472" interp="linr"  time="-9999999/1" value="1" leadInLength="0/1"  />
              <InterpolatingParam id="1473" interp="linr"  time="-9999999/1" value="1" leadInLength="0/1"  />
             </VectorParam>
             <VectorParam id="1474"  name="anchor">
              <InterpolatingParam id="1475" interp="linr"  time="0/1" value="0" leadInLength="0/1"  />
              <InterpolatingParam id="1476" interp="linr"  time="0/1" value="0" leadInLength="0/1"  />
              <InterpolatingParam id="1477" interp="linr"  time="0/1" value="0" leadInLength="0/1"  />
             </VectorParam>
            </Transformer>
            <Parameters>
             <VectorParam id="1478"  name="sourceCrop">
              <InterpolatingParam id="1479" interp="linr"  time="0/1" value="0" leadInLength="0/1"  />
              <InterpolatingParam id="1480" interp="linr"  time="0/1" value="0" leadInLength="0/1"  />
              <InterpolatingParam id="1481" interp="linr"  time="0/1" value="0" leadInLength="0/1"  />
              <InterpolatingParam id="1482" interp="linr"  time="0/1" value="0" leadInLength="0/1"  />
             </VectorParam>
             <VectorParam id="1483"  name="geometryCrop">
              <InterpolatingParam id="1484" interp="linr"  time="-9999999/1" value="0" leadInLength="0/1"  />
              <InterpolatingParam id="1485" interp="linr"  time="-9999999/1" value="0" leadInLength="0/1"  />
              <InterpolatingParam id="1486" interp="linr"  time="-9999999/1" value="0" leadInLength="0/1"  />
              <InterpolatingParam id="1487" interp="linr"  time="-9999999/1" value="0" leadInLength="0/1"  />
             </VectorParam>
             <InterpolatingParam id="1488" interp="linr"  time="-9999999/1" value="1" leadInLength="0/1"  name="opacity"/>
             <InterpolatingParam id="1489" interp="linr"  time="0/1" value="0" leadInLength="0/1"  name="cursorOpacity"/>
             <InterpolatingParam id="1490" interp="linr"  time="0/1" value="0" leadInLength="0/1"  name="cursorScale"/>
            </Parameters>
            <Attributes>
             <Attribute id="1491" value="" name="ident"/>
            </Attributes>
            <MetaData>
             <entry key="AutoAppliedSmartFocus" val="False"/>
             <entry key="WinSubProjectDisplayName" val=""/>
            </MetaData>
            <ExtraData>
             <Entry key="ZoomPanBin">
              <ZoomPanBin id="1492"  >
               <ZoomPanKeyframes>
                <ZoomPanKeyframe id="1493" timeRangeEnd="-9999999/1" timeRangeDuration="0/1" interpolaterName=""  />
               </ZoomPanKeyframes>
              </ZoomPanBin>
             </Entry>
             <Entry key="CursorEffectBin">
              <CursorEffectBin id="1494"  >
               <CursorEffectKeyframes>
               </CursorEffectKeyframes>
              </CursorEffectBin>
             </Entry>
            </ExtraData>
           </ScreenVMFile>
           <ScreenVMFile id="1495" start="3286" duration="1" scalar="1/1" mediaStart="3778/1" mediaDuration="1/1" trackNumber="0" src="4" >
            <Transformer>
             <VectorParam id="1496"  name="translation">
              <InterpolatingParam id="1497" interp="linr"  time="-9999999/1" value="0" leadInLength="0/1"  />
              <InterpolatingParam id="1498" interp="linr"  time="-9999999/1" value="0" leadInLength="0/1"  />
              <InterpolatingParam id="1499" interp="linr"  time="-9999999/1" value="0" leadInLength="0/1"  />
             </VectorParam>
             <VectorParam id="1500"  name="rotation">
              <InterpolatingParam id="1501" interp="linr"  time="-9999999/1" value="0" leadInLength="0/1"  />
              <InterpolatingParam id="1502" interp="linr"  time="-9999999/1" value="0" leadInLength="0/1"  />
              <InterpolatingParam id="1503" interp="linr"  time="-9999999/1" value="0" leadInLength="0/1"  />
             </VectorParam>
             <VectorParam id="1504"  name="shear">
              <InterpolatingParam id="1505" interp="linr"  time="-9999999/1" value="0" leadInLength="0/1"  />
              <InterpolatingParam id="1506" interp="linr"  time="-9999999/1" value="0" leadInLength="0/1"  />
              <InterpolatingParam id="1507" interp="linr"  time="-9999999/1" value="0" leadInLength="0/1"  />
             </VectorParam>
             <VectorParam id="1508"  name="scale">
              <InterpolatingParam id="1509" interp="linr"  time="-9999999/1" value="1" leadInLength="0/1"  />
              <InterpolatingParam id="1510" interp="linr"  time="-9999999/1" value="1" leadInLength="0/1"  />
              <InterpolatingParam id="1511" interp="linr"  time="-9999999/1" value="1" leadInLength="0/1"  />
             </VectorParam>
             <VectorParam id="1512"  name="anchor">
              <InterpolatingParam id="1513" interp="linr"  time="0/1" value="0" leadInLength="0/1"  />
              <InterpolatingParam id="1514" interp="linr"  time="0/1" value="0" leadInLength="0/1"  />
              <InterpolatingParam id="1515" interp="linr"  time="0/1" value="0" leadInLength="0/1"  />
             </VectorParam>
            </Transformer>
            <Parameters>
             <VectorParam id="1516"  name="sourceCrop">
              <InterpolatingParam id="1517" interp="linr"  time="0/1" value="0" leadInLength="0/1"  />
              <InterpolatingParam id="1518" interp="linr"  time="0/1" value="0" leadInLength="0/1"  />
              <InterpolatingParam id="1519" interp="linr"  time="0/1" value="0" leadInLength="0/1"  />
              <InterpolatingParam id="1520" interp="linr"  time="0/1" value="0" leadInLength="0/1"  />
             </VectorParam>
             <VectorParam id="1521"  name="geometryCrop">
              <InterpolatingParam id="1522" interp="linr"  time="-9999999/1" value="0" leadInLength="0/1"  />
              <InterpolatingParam id="1523" interp="linr"  time="-9999999/1" value="0" leadInLength="0/1"  />
              <InterpolatingParam id="1524" interp="linr"  time="-9999999/1" value="0" leadInLength="0/1"  />
              <InterpolatingParam id="1525" interp="linr"  time="-9999999/1" value="0" leadInLength="0/1"  />
             </VectorParam>
             <InterpolatingParam id="1526" interp="linr"  time="-9999999/1" value="1" leadInLength="0/1"  name="opacity"/>
             <InterpolatingParam id="1527" interp="linr"  time="0/1" value="0" leadInLength="0/1"  name="cursorOpacity"/>
             <InterpolatingParam id="1528" interp="linr"  time="0/1" value="0" leadInLength="0/1"  name="cursorScale"/>
            </Parameters>
            <Attributes>
             <Attribute id="1529" value="" name="ident"/>
            </Attributes>
            <MetaData>
             <entry key="AutoAppliedSmartFocus" val="False"/>
             <entry key="WinSubProjectDisplayName" val=""/>
            </MetaData>
            <ExtraData>
             <Entry key="ZoomPanBin">
              <ZoomPanBin id="1530"  >
               <ZoomPanKeyframes>
                <ZoomPanKeyframe id="1531" timeRangeEnd="-9999999/1" timeRangeDuration="0/1" interpolaterName=""  />
               </ZoomPanKeyframes>
              </ZoomPanBin>
             </Entry>
             <Entry key="CursorEffectBin">
              <CursorEffectBin id="1532"  >
               <CursorEffectKeyframes>
               </CursorEffectKeyframes>
              </CursorEffectBin>
             </Entry>
            </ExtraData>
           </ScreenVMFile>
           <ScreenVMFile id="1533" start="3287" duration="6" scalar="1/1" mediaStart="3788/1" mediaDuration="6/1" trackNumber="0" src="4" >
            <Transformer>
             <VectorParam id="1534"  name="translation">
              <InterpolatingParam id="1535" interp="linr"  time="-9999999/1" value="0" leadInLength="0/1"  />
              <InterpolatingParam id="1536" interp="linr"  time="-9999999/1" value="0" leadInLength="0/1"  />
              <InterpolatingParam id="1537" interp="linr"  time="-9999999/1" value="0" leadInLength="0/1"  />
             </VectorParam>
             <VectorParam id="1538"  name="rotation">
              <InterpolatingParam id="1539" interp="linr"  time="-9999999/1" value="0" leadInLength="0/1"  />
              <InterpolatingParam id="1540" interp="linr"  time="-9999999/1" value="0" leadInLength="0/1"  />
              <InterpolatingParam id="1541" interp="linr"  time="-9999999/1" value="0" leadInLength="0/1"  />
             </VectorParam>
             <VectorParam id="1542"  name="shear">
              <InterpolatingParam id="1543" interp="linr"  time="-9999999/1" value="0" leadInLength="0/1"  />
              <InterpolatingParam id="1544" interp="linr"  time="-9999999/1" value="0" leadInLength="0/1"  />
              <InterpolatingParam id="1545" interp="linr"  time="-9999999/1" value="0" leadInLength="0/1"  />
             </VectorParam>
             <VectorParam id="1546"  name="scale">
              <InterpolatingParam id="1547" interp="linr"  time="-9999999/1" value="1" leadInLength="0/1"  />
              <InterpolatingParam id="1548" interp="linr"  time="-9999999/1" value="1" leadInLength="0/1"  />
              <InterpolatingParam id="1549" interp="linr"  time="-9999999/1" value="1" leadInLength="0/1"  />
             </VectorParam>
             <VectorParam id="1550"  name="anchor">
              <InterpolatingParam id="1551" interp="linr"  time="0/1" value="0" leadInLength="0/1"  />
              <InterpolatingParam id="1552" interp="linr"  time="0/1" value="0" leadInLength="0/1"  />
              <InterpolatingParam id="1553" interp="linr"  time="0/1" value="0" leadInLength="0/1"  />
             </VectorParam>
            </Transformer>
            <Parameters>
             <VectorParam id="1554"  name="sourceCrop">
              <InterpolatingParam id="1555" interp="linr"  time="0/1" value="0" leadInLength="0/1"  />
              <InterpolatingParam id="1556" interp="linr"  time="0/1" value="0" leadInLength="0/1"  />
              <InterpolatingParam id="1557" interp="linr"  time="0/1" value="0" leadInLength="0/1"  />
              <InterpolatingParam id="1558" interp="linr"  time="0/1" value="0" leadInLength="0/1"  />
             </VectorParam>
             <VectorParam id="1559"  name="geometryCrop">
              <InterpolatingParam id="1560" interp="linr"  time="-9999999/1" value="0" leadInLength="0/1"  />
              <InterpolatingParam id="1561" interp="linr"  time="-9999999/1" value="0" leadInLength="0/1"  />
              <InterpolatingParam id="1562" interp="linr"  time="-9999999/1" value="0" leadInLength="0/1"  />
              <InterpolatingParam id="1563" interp="linr"  time="-9999999/1" value="0" leadInLength="0/1"  />
             </VectorParam>
             <InterpolatingParam id="1564" interp="linr"  time="-9999999/1" value="1" leadInLength="0/1"  name="opacity"/>
             <InterpolatingParam id="1565" interp="linr"  time="0/1" value="0" leadInLength="0/1"  name="cursorOpacity"/>
             <InterpolatingParam id="1566" interp="linr"  time="0/1" value="0" leadInLength="0/1"  name="cursorScale"/>
            </Parameters>
            <Attributes>
             <Attribute id="1567" value="" name="ident"/>
            </Attributes>
            <MetaData>
             <entry key="AutoAppliedSmartFocus" val="False"/>
             <entry key="WinSubProjectDisplayName" val=""/>
            </MetaData>
            <ExtraData>
             <Entry key="ZoomPanBin">
              <ZoomPanBin id="1568"  >
               <ZoomPanKeyframes>
                <ZoomPanKeyframe id="1569" timeRangeEnd="-9999999/1" timeRangeDuration="0/1" interpolaterName=""  />
               </ZoomPanKeyframes>
              </ZoomPanBin>
             </Entry>
             <Entry key="CursorEffectBin">
              <CursorEffectBin id="1570"  >
               <CursorEffectKeyframes>
               </CursorEffectKeyframes>
              </CursorEffectBin>
             </Entry>
            </ExtraData>
           </ScreenVMFile>
           <ScreenVMFile id="1571" start="3293" duration="211" scalar="1/1" mediaStart="3861/1" mediaDuration="211/1" trackNumber="0" src="4" >
            <Transformer>
             <VectorParam id="1572"  name="translation">
              <InterpolatingParam id="1573" interp="linr"  time="-9999999/1" value="0" leadInLength="0/1"  />
              <InterpolatingParam id="1574" interp="linr"  time="-9999999/1" value="0" leadInLength="0/1"  />
              <InterpolatingParam id="1575" interp="linr"  time="-9999999/1" value="0" leadInLength="0/1"  />
             </VectorParam>
             <VectorParam id="1576"  name="rotation">
              <InterpolatingParam id="1577" interp="linr"  time="-9999999/1" value="0" leadInLength="0/1"  />
              <InterpolatingParam id="1578" interp="linr"  time="-9999999/1" value="0" leadInLength="0/1"  />
              <InterpolatingParam id="1579" interp="linr"  time="-9999999/1" value="0" leadInLength="0/1"  />
             </VectorParam>
             <VectorParam id="1580"  name="shear">
              <InterpolatingParam id="1581" interp="linr"  time="-9999999/1" value="0" leadInLength="0/1"  />
              <InterpolatingParam id="1582" interp="linr"  time="-9999999/1" value="0" leadInLength="0/1"  />
              <InterpolatingParam id="1583" interp="linr"  time="-9999999/1" value="0" leadInLength="0/1"  />
             </VectorParam>
             <VectorParam id="1584"  name="scale">
              <InterpolatingParam id="1585" interp="linr"  time="-9999999/1" value="1" leadInLength="0/1"  />
              <InterpolatingParam id="1586" interp="linr"  time="-9999999/1" value="1" leadInLength="0/1"  />
              <InterpolatingParam id="1587" interp="linr"  time="-9999999/1" value="1" leadInLength="0/1"  />
             </VectorParam>
             <VectorParam id="1588"  name="anchor">
              <InterpolatingParam id="1589" interp="linr"  time="0/1" value="0" leadInLength="0/1"  />
              <InterpolatingParam id="1590" interp="linr"  time="0/1" value="0" leadInLength="0/1"  />
              <InterpolatingParam id="1591" interp="linr"  time="0/1" value="0" leadInLength="0/1"  />
             </VectorParam>
            </Transformer>
            <Parameters>
             <VectorParam id="1592"  name="sourceCrop">
              <InterpolatingParam id="1593" interp="linr"  time="0/1" value="0" leadInLength="0/1"  />
              <InterpolatingParam id="1594" interp="linr"  time="0/1" value="0" leadInLength="0/1"  />
              <InterpolatingParam id="1595" interp="linr"  time="0/1" value="0" leadInLength="0/1"  />
              <InterpolatingParam id="1596" interp="linr"  time="0/1" value="0" leadInLength="0/1"  />
             </VectorParam>
             <VectorParam id="1597"  name="geometryCrop">
              <InterpolatingParam id="1598" interp="linr"  time="-9999999/1" value="0" leadInLength="0/1"  />
              <InterpolatingParam id="1599" interp="linr"  time="-9999999/1" value="0" leadInLength="0/1"  />
              <InterpolatingParam id="1600" interp="linr"  time="-9999999/1" value="0" leadInLength="0/1"  />
              <InterpolatingParam id="1601" interp="linr"  time="-9999999/1" value="0" leadInLength="0/1"  />
             </VectorParam>
             <InterpolatingParam id="1602" interp="linr"  time="-9999999/1" value="1" leadInLength="0/1"  name="opacity"/>
             <InterpolatingParam id="1603" interp="linr"  time="0/1" value="0" leadInLength="0/1"  name="cursorOpacity"/>
             <InterpolatingParam id="1604" interp="linr"  time="0/1" value="0" leadInLength="0/1"  name="cursorScale"/>
            </Parameters>
            <Attributes>
             <Attribute id="1605" value="" name="ident"/>
            </Attributes>
            <MetaData>
             <entry key="AutoAppliedSmartFocus" val="False"/>
             <entry key="WinSubProjectDisplayName" val=""/>
            </MetaData>
            <ExtraData>
             <Entry key="ZoomPanBin">
              <ZoomPanBin id="1606"  >
               <ZoomPanKeyframes>
                <ZoomPanKeyframe id="1607" timeRangeEnd="-9999999/1" timeRangeDuration="0/1" interpolaterName=""  />
               </ZoomPanKeyframes>
              </ZoomPanBin>
             </Entry>
             <Entry key="CursorEffectBin">
              <CursorEffectBin id="1608"  >
               <CursorEffectKeyframes>
               </CursorEffectKeyframes>
              </CursorEffectBin>
             </Entry>
            </ExtraData>
           </ScreenVMFile>
           <ScreenVMFile id="1609" start="3504" duration="1479" scalar="1/1" mediaStart="4102/1" mediaDuration="1479/1" trackNumber="0" src="4" >
            <Transformer>
             <VectorParam id="1610"  name="translation">
              <InterpolatingParam id="1611" interp="linr"  time="-9999999/1" value="0" leadInLength="0/1"  />
              <InterpolatingParam id="1612" interp="linr"  time="-9999999/1" value="0" leadInLength="0/1"  />
              <InterpolatingParam id="1613" interp="linr"  time="-9999999/1" value="0" leadInLength="0/1"  />
             </VectorParam>
             <VectorParam id="1614"  name="rotation">
              <InterpolatingParam id="1615" interp="linr"  time="-9999999/1" value="0" leadInLength="0/1"  />
              <InterpolatingParam id="1616" interp="linr"  time="-9999999/1" value="0" leadInLength="0/1"  />
              <InterpolatingParam id="1617" interp="linr"  time="-9999999/1" value="0" leadInLength="0/1"  />
             </VectorParam>
             <VectorParam id="1618"  name="shear">
              <InterpolatingParam id="1619" interp="linr"  time="-9999999/1" value="0" leadInLength="0/1"  />
              <InterpolatingParam id="1620" interp="linr"  time="-9999999/1" value="0" leadInLength="0/1"  />
              <InterpolatingParam id="1621" interp="linr"  time="-9999999/1" value="0" leadInLength="0/1"  />
             </VectorParam>
             <VectorParam id="1622"  name="scale">
              <InterpolatingParam id="1623" interp="linr"  time="-9999999/1" value="1" leadInLength="0/1"  />
              <InterpolatingParam id="1624" interp="linr"  time="-9999999/1" value="1" leadInLength="0/1"  />
              <InterpolatingParam id="1625" interp="linr"  time="-9999999/1" value="1" leadInLength="0/1"  />
             </VectorParam>
             <VectorParam id="1626"  name="anchor">
              <InterpolatingParam id="1627" interp="linr"  time="0/1" value="0" leadInLength="0/1"  />
              <InterpolatingParam id="1628" interp="linr"  time="0/1" value="0" leadInLength="0/1"  />
              <InterpolatingParam id="1629" interp="linr"  time="0/1" value="0" leadInLength="0/1"  />
             </VectorParam>
            </Transformer>
            <Parameters>
             <VectorParam id="1630"  name="sourceCrop">
              <InterpolatingParam id="1631" interp="linr"  time="0/1" value="0" leadInLength="0/1"  />
              <InterpolatingParam id="1632" interp="linr"  time="0/1" value="0" leadInLength="0/1"  />
              <InterpolatingParam id="1633" interp="linr"  time="0/1" value="0" leadInLength="0/1"  />
              <InterpolatingParam id="1634" interp="linr"  time="0/1" value="0" leadInLength="0/1"  />
             </VectorParam>
             <VectorParam id="1635"  name="geometryCrop">
              <InterpolatingParam id="1636" interp="linr"  time="-9999999/1" value="0" leadInLength="0/1"  />
              <InterpolatingParam id="1637" interp="linr"  time="-9999999/1" value="0" leadInLength="0/1"  />
              <InterpolatingParam id="1638" interp="linr"  time="-9999999/1" value="0" leadInLength="0/1"  />
              <InterpolatingParam id="1639" interp="linr"  time="-9999999/1" value="0" leadInLength="0/1"  />
             </VectorParam>
             <InterpolatingParam id="1640" interp="linr"  time="-9999999/1" value="1" leadInLength="0/1"  name="opacity"/>
             <InterpolatingParam id="1641" interp="linr"  time="0/1" value="0" leadInLength="0/1"  name="cursorOpacity"/>
             <InterpolatingParam id="1642" interp="linr"  time="0/1" value="0" leadInLength="0/1"  name="cursorScale"/>
            </Parameters>
            <Attributes>
             <Attribute id="1643" value="" name="ident"/>
            </Attributes>
            <MetaData>
             <entry key="AutoAppliedSmartFocus" val="False"/>
             <entry key="WinSubProjectDisplayName" val=""/>
            </MetaData>
            <ExtraData>
             <Entry key="ZoomPanBin">
              <ZoomPanBin id="1644"  >
               <ZoomPanKeyframes>
                <ZoomPanKeyframe id="1645" timeRangeEnd="-9999999/1" timeRangeDuration="0/1" interpolaterName=""  />
               </ZoomPanKeyframes>
              </ZoomPanBin>
             </Entry>
             <Entry key="CursorEffectBin">
              <CursorEffectBin id="1646"  >
               <CursorEffectKeyframes>
               </CursorEffectKeyframes>
              </CursorEffectBin>
             </Entry>
            </ExtraData>
           </ScreenVMFile>
           <ScreenVMFile id="1647" start="4983" duration="339" scalar="1/1" mediaStart="5614/1" mediaDuration="339/1" trackNumber="0" src="4" >
            <Transformer>
             <VectorParam id="1648"  name="translation">
              <InterpolatingParam id="1649" interp="linr"  time="-9999999/1" value="0" leadInLength="0/1"  />
              <InterpolatingParam id="1650" interp="linr"  time="-9999999/1" value="0" leadInLength="0/1"  />
              <InterpolatingParam id="1651" interp="linr"  time="-9999999/1" value="0" leadInLength="0/1"  />
             </VectorParam>
             <VectorParam id="1652"  name="rotation">
              <InterpolatingParam id="1653" interp="linr"  time="-9999999/1" value="0" leadInLength="0/1"  />
              <InterpolatingParam id="1654" interp="linr"  time="-9999999/1" value="0" leadInLength="0/1"  />
              <InterpolatingParam id="1655" interp="linr"  time="-9999999/1" value="0" leadInLength="0/1"  />
             </VectorParam>
             <VectorParam id="1656"  name="shear">
              <InterpolatingParam id="1657" interp="linr"  time="-9999999/1" value="0" leadInLength="0/1"  />
              <InterpolatingParam id="1658" interp="linr"  time="-9999999/1" value="0" leadInLength="0/1"  />
              <InterpolatingParam id="1659" interp="linr"  time="-9999999/1" value="0" leadInLength="0/1"  />
             </VectorParam>
             <VectorParam id="1660"  name="scale">
              <InterpolatingParam id="1661" interp="linr"  time="-9999999/1" value="1" leadInLength="0/1"  />
              <InterpolatingParam id="1662" interp="linr"  time="-9999999/1" value="1" leadInLength="0/1"  />
              <InterpolatingParam id="1663" interp="linr"  time="-9999999/1" value="1" leadInLength="0/1"  />
             </VectorParam>
             <VectorParam id="1664"  name="anchor">
              <InterpolatingParam id="1665" interp="linr"  time="0/1" value="0" leadInLength="0/1"  />
              <InterpolatingParam id="1666" interp="linr"  time="0/1" value="0" leadInLength="0/1"  />
              <InterpolatingParam id="1667" interp="linr"  time="0/1" value="0" leadInLength="0/1"  />
             </VectorParam>
            </Transformer>
            <Parameters>
             <VectorParam id="1668"  name="sourceCrop">
              <InterpolatingParam id="1669" interp="linr"  time="0/1" value="0" leadInLength="0/1"  />
              <InterpolatingParam id="1670" interp="linr"  time="0/1" value="0" leadInLength="0/1"  />
              <InterpolatingParam id="1671" interp="linr"  time="0/1" value="0" leadInLength="0/1"  />
              <InterpolatingParam id="1672" interp="linr"  time="0/1" value="0" leadInLength="0/1"  />
             </VectorParam>
             <VectorParam id="1673"  name="geometryCrop">
              <InterpolatingParam id="1674" interp="linr"  time="-9999999/1" value="0" leadInLength="0/1"  />
              <InterpolatingParam id="1675" interp="linr"  time="-9999999/1" value="0" leadInLength="0/1"  />
              <InterpolatingParam id="1676" interp="linr"  time="-9999999/1" value="0" leadInLength="0/1"  />
              <InterpolatingParam id="1677" interp="linr"  time="-9999999/1" value="0" leadInLength="0/1"  />
             </VectorParam>
             <InterpolatingParam id="1678" interp="linr"  time="-9999999/1" value="1" leadInLength="0/1"  name="opacity"/>
             <InterpolatingParam id="1679" interp="linr"  time="0/1" value="0" leadInLength="0/1"  name="cursorOpacity"/>
             <InterpolatingParam id="1680" interp="linr"  time="0/1" value="0" leadInLength="0/1"  name="cursorScale"/>
            </Parameters>
            <Attributes>
             <Attribute id="1681" value="" name="ident"/>
            </Attributes>
            <MetaData>
             <entry key="AutoAppliedSmartFocus" val="False"/>
             <entry key="WinSubProjectDisplayName" val=""/>
            </MetaData>
            <ExtraData>
             <Entry key="ZoomPanBin">
              <ZoomPanBin id="1682"  >
               <ZoomPanKeyframes>
                <ZoomPanKeyframe id="1683" timeRangeEnd="-9999999/1" timeRangeDuration="0/1" interpolaterName=""  />
               </ZoomPanKeyframes>
              </ZoomPanBin>
             </Entry>
             <Entry key="CursorEffectBin">
              <CursorEffectBin id="1684"  >
               <CursorEffectKeyframes>
               </CursorEffectKeyframes>
              </CursorEffectBin>
             </Entry>
            </ExtraData>
           </ScreenVMFile>
           <ScreenVMFile id="1685" start="5322" duration="212" scalar="1/1" mediaStart="5977/1" mediaDuration="212/1" trackNumber="0" src="4" >
            <Transformer>
             <VectorParam id="1686"  name="translation">
              <InterpolatingParam id="1687" interp="linr"  time="-9999999/1" value="0" leadInLength="0/1"  />
              <InterpolatingParam id="1688" interp="linr"  time="-9999999/1" value="0" leadInLength="0/1"  />
              <InterpolatingParam id="1689" interp="linr"  time="-9999999/1" value="0" leadInLength="0/1"  />
             </VectorParam>
             <VectorParam id="1690"  name="rotation">
              <InterpolatingParam id="1691" interp="linr"  time="-9999999/1" value="0" leadInLength="0/1"  />
              <InterpolatingParam id="1692" interp="linr"  time="-9999999/1" value="0" leadInLength="0/1"  />
              <InterpolatingParam id="1693" interp="linr"  time="-9999999/1" value="0" leadInLength="0/1"  />
             </VectorParam>
             <VectorParam id="1694"  name="shear">
              <InterpolatingParam id="1695" interp="linr"  time="-9999999/1" value="0" leadInLength="0/1"  />
              <InterpolatingParam id="1696" interp="linr"  time="-9999999/1" value="0" leadInLength="0/1"  />
              <InterpolatingParam id="1697" interp="linr"  time="-9999999/1" value="0" leadInLength="0/1"  />
             </VectorParam>
             <VectorParam id="1698"  name="scale">
              <InterpolatingParam id="1699" interp="linr"  time="-9999999/1" value="1" leadInLength="0/1"  />
              <InterpolatingParam id="1700" interp="linr"  time="-9999999/1" value="1" leadInLength="0/1"  />
              <InterpolatingParam id="1701" interp="linr"  time="-9999999/1" value="1" leadInLength="0/1"  />
             </VectorParam>
             <VectorParam id="1702"  name="anchor">
              <InterpolatingParam id="1703" interp="linr"  time="0/1" value="0" leadInLength="0/1"  />
              <InterpolatingParam id="1704" interp="linr"  time="0/1" value="0" leadInLength="0/1"  />
              <InterpolatingParam id="1705" interp="linr"  time="0/1" value="0" leadInLength="0/1"  />
             </VectorParam>
            </Transformer>
            <Parameters>
             <VectorParam id="1706"  name="sourceCrop">
              <InterpolatingParam id="1707" interp="linr"  time="0/1" value="0" leadInLength="0/1"  />
              <InterpolatingParam id="1708" interp="linr"  time="0/1" value="0" leadInLength="0/1"  />
              <InterpolatingParam id="1709" interp="linr"  time="0/1" value="0" leadInLength="0/1"  />
              <InterpolatingParam id="1710" interp="linr"  time="0/1" value="0" leadInLength="0/1"  />
             </VectorParam>
             <VectorParam id="1711"  name="geometryCrop">
              <InterpolatingParam id="1712" interp="linr"  time="-9999999/1" value="0" leadInLength="0/1"  />
              <InterpolatingParam id="1713" interp="linr"  time="-9999999/1" value="0" leadInLength="0/1"  />
              <InterpolatingParam id="1714" interp="linr"  time="-9999999/1" value="0" leadInLength="0/1"  />
              <InterpolatingParam id="1715" interp="linr"  time="-9999999/1" value="0" leadInLength="0/1"  />
             </VectorParam>
             <InterpolatingParam id="1716" interp="linr"  time="-9999999/1" value="1" leadInLength="0/1"  name="opacity"/>
             <InterpolatingParam id="1717" interp="linr"  time="0/1" value="0" leadInLength="0/1"  name="cursorOpacity"/>
             <InterpolatingParam id="1718" interp="linr"  time="0/1" value="0" leadInLength="0/1"  name="cursorScale"/>
            </Parameters>
            <Attributes>
             <Attribute id="1719" value="" name="ident"/>
            </Attributes>
            <MetaData>
             <entry key="AutoAppliedSmartFocus" val="False"/>
             <entry key="WinSubProjectDisplayName" val=""/>
            </MetaData>
            <ExtraData>
             <Entry key="ZoomPanBin">
              <ZoomPanBin id="1720"  >
               <ZoomPanKeyframes>
                <ZoomPanKeyframe id="1721" timeRangeEnd="-9999999/1" timeRangeDuration="0/1" interpolaterName=""  />
               </ZoomPanKeyframes>
              </ZoomPanBin>
             </Entry>
             <Entry key="CursorEffectBin">
              <CursorEffectBin id="1722"  >
               <CursorEffectKeyframes>
               </CursorEffectKeyframes>
              </CursorEffectBin>
             </Entry>
            </ExtraData>
           </ScreenVMFile>
           <ScreenVMFile id="1723" start="5534" duration="62" scalar="1/1" mediaStart="6205/1" mediaDuration="62/1" trackNumber="0" src="4" >
            <Transformer>
             <VectorParam id="1724"  name="translation">
              <InterpolatingParam id="1725" interp="linr"  time="-9999999/1" value="0" leadInLength="0/1"  />
              <InterpolatingParam id="1726" interp="linr"  time="-9999999/1" value="0" leadInLength="0/1"  />
              <InterpolatingParam id="1727" interp="linr"  time="-9999999/1" value="0" leadInLength="0/1"  />
             </VectorParam>
             <VectorParam id="1728"  name="rotation">
              <InterpolatingParam id="1729" interp="linr"  time="-9999999/1" value="0" leadInLength="0/1"  />
              <InterpolatingParam id="1730" interp="linr"  time="-9999999/1" value="0" leadInLength="0/1"  />
              <InterpolatingParam id="1731" interp="linr"  time="-9999999/1" value="0" leadInLength="0/1"  />
             </VectorParam>
             <VectorParam id="1732"  name="shear">
              <InterpolatingParam id="1733" interp="linr"  time="-9999999/1" value="0" leadInLength="0/1"  />
              <InterpolatingParam id="1734" interp="linr"  time="-9999999/1" value="0" leadInLength="0/1"  />
              <InterpolatingParam id="1735" interp="linr"  time="-9999999/1" value="0" leadInLength="0/1"  />
             </VectorParam>
             <VectorParam id="1736"  name="scale">
              <InterpolatingParam id="1737" interp="linr"  time="-9999999/1" value="1" leadInLength="0/1"  />
              <InterpolatingParam id="1738" interp="linr"  time="-9999999/1" value="1" leadInLength="0/1"  />
              <InterpolatingParam id="1739" interp="linr"  time="-9999999/1" value="1" leadInLength="0/1"  />
             </VectorParam>
             <VectorParam id="1740"  name="anchor">
              <InterpolatingParam id="1741" interp="linr"  time="0/1" value="0" leadInLength="0/1"  />
              <InterpolatingParam id="1742" interp="linr"  time="0/1" value="0" leadInLength="0/1"  />
              <InterpolatingParam id="1743" interp="linr"  time="0/1" value="0" leadInLength="0/1"  />
             </VectorParam>
            </Transformer>
            <Parameters>
             <VectorParam id="1744"  name="sourceCrop">
              <InterpolatingParam id="1745" interp="linr"  time="0/1" value="0" leadInLength="0/1"  />
              <InterpolatingParam id="1746" interp="linr"  time="0/1" value="0" leadInLength="0/1"  />
              <InterpolatingParam id="1747" interp="linr"  time="0/1" value="0" leadInLength="0/1"  />
              <InterpolatingParam id="1748" interp="linr"  time="0/1" value="0" leadInLength="0/1"  />
             </VectorParam>
             <VectorParam id="1749"  name="geometryCrop">
              <InterpolatingParam id="1750" interp="linr"  time="-9999999/1" value="0" leadInLength="0/1"  />
              <InterpolatingParam id="1751" interp="linr"  time="-9999999/1" value="0" leadInLength="0/1"  />
              <InterpolatingParam id="1752" interp="linr"  time="-9999999/1" value="0" leadInLength="0/1"  />
              <InterpolatingParam id="1753" interp="linr"  time="-9999999/1" value="0" leadInLength="0/1"  />
             </VectorParam>
             <InterpolatingParam id="1754" interp="linr"  time="-9999999/1" value="1" leadInLength="0/1"  name="opacity"/>
             <InterpolatingParam id="1755" interp="linr"  time="0/1" value="0" leadInLength="0/1"  name="cursorOpacity"/>
             <InterpolatingParam id="1756" interp="linr"  time="0/1" value="0" leadInLength="0/1"  name="cursorScale"/>
            </Parameters>
            <Attributes>
             <Attribute id="1757" value="" name="ident"/>
            </Attributes>
            <MetaData>
             <entry key="AutoAppliedSmartFocus" val="False"/>
             <entry key="WinSubProjectDisplayName" val=""/>
            </MetaData>
            <ExtraData>
             <Entry key="ZoomPanBin">
              <ZoomPanBin id="1758"  >
               <ZoomPanKeyframes>
                <ZoomPanKeyframe id="1759" timeRangeEnd="-9999999/1" timeRangeDuration="0/1" interpolaterName=""  />
               </ZoomPanKeyframes>
              </ZoomPanBin>
             </Entry>
             <Entry key="CursorEffectBin">
              <CursorEffectBin id="1760"  >
               <CursorEffectKeyframes>
               </CursorEffectKeyframes>
              </CursorEffectBin>
             </Entry>
            </ExtraData>
           </ScreenVMFile>
           <ScreenVMFile id="1761" start="5596" duration="115" scalar="1/1" mediaStart="6294/1" mediaDuration="115/1" trackNumber="0" src="4" >
            <Transformer>
             <VectorParam id="1762"  name="translation">
              <InterpolatingParam id="1763" interp="linr"  time="-9999999/1" value="0" leadInLength="0/1"  />
              <InterpolatingParam id="1764" interp="linr"  time="-9999999/1" value="0" leadInLength="0/1"  />
              <InterpolatingParam id="1765" interp="linr"  time="-9999999/1" value="0" leadInLength="0/1"  />
             </VectorParam>
             <VectorParam id="1766"  name="rotation">
              <InterpolatingParam id="1767" interp="linr"  time="-9999999/1" value="0" leadInLength="0/1"  />
              <InterpolatingParam id="1768" interp="linr"  time="-9999999/1" value="0" leadInLength="0/1"  />
              <InterpolatingParam id="1769" interp="linr"  time="-9999999/1" value="0" leadInLength="0/1"  />
             </VectorParam>
             <VectorParam id="1770"  name="shear">
              <InterpolatingParam id="1771" interp="linr"  time="-9999999/1" value="0" leadInLength="0/1"  />
              <InterpolatingParam id="1772" interp="linr"  time="-9999999/1" value="0" leadInLength="0/1"  />
              <InterpolatingParam id="1773" interp="linr"  time="-9999999/1" value="0" leadInLength="0/1"  />
             </VectorParam>
             <VectorParam id="1774"  name="scale">
              <InterpolatingParam id="1775" interp="linr"  time="-9999999/1" value="1" leadInLength="0/1"  />
              <InterpolatingParam id="1776" interp="linr"  time="-9999999/1" value="1" leadInLength="0/1"  />
              <InterpolatingParam id="1777" interp="linr"  time="-9999999/1" value="1" leadInLength="0/1"  />
             </VectorParam>
             <VectorParam id="1778"  name="anchor">
              <InterpolatingParam id="1779" interp="linr"  time="0/1" value="0" leadInLength="0/1"  />
              <InterpolatingParam id="1780" interp="linr"  time="0/1" value="0" leadInLength="0/1"  />
              <InterpolatingParam id="1781" interp="linr"  time="0/1" value="0" leadInLength="0/1"  />
             </VectorParam>
            </Transformer>
            <Parameters>
             <VectorParam id="1782"  name="sourceCrop">
              <InterpolatingParam id="1783" interp="linr"  time="0/1" value="0" leadInLength="0/1"  />
              <InterpolatingParam id="1784" interp="linr"  time="0/1" value="0" leadInLength="0/1"  />
              <InterpolatingParam id="1785" interp="linr"  time="0/1" value="0" leadInLength="0/1"  />
              <InterpolatingParam id="1786" interp="linr"  time="0/1" value="0" leadInLength="0/1"  />
             </VectorParam>
             <VectorParam id="1787"  name="geometryCrop">
              <InterpolatingParam id="1788" interp="linr"  time="-9999999/1" value="0" leadInLength="0/1"  />
              <InterpolatingParam id="1789" interp="linr"  time="-9999999/1" value="0" leadInLength="0/1"  />
              <InterpolatingParam id="1790" interp="linr"  time="-9999999/1" value="0" leadInLength="0/1"  />
              <InterpolatingParam id="1791" interp="linr"  time="-9999999/1" value="0" leadInLength="0/1"  />
             </VectorParam>
             <InterpolatingParam id="1792" interp="linr"  time="-9999999/1" value="1" leadInLength="0/1"  name="opacity"/>
             <InterpolatingParam id="1793" interp="linr"  time="0/1" value="0" leadInLength="0/1"  name="cursorOpacity"/>
             <InterpolatingParam id="1794" interp="linr"  time="0/1" value="0" leadInLength="0/1"  name="cursorScale"/>
            </Parameters>
            <Attributes>
             <Attribute id="1795" value="" name="ident"/>
            </Attributes>
            <MetaData>
             <entry key="AutoAppliedSmartFocus" val="False"/>
             <entry key="WinSubProjectDisplayName" val=""/>
            </MetaData>
            <ExtraData>
             <Entry key="ZoomPanBin">
              <ZoomPanBin id="1796"  >
               <ZoomPanKeyframes>
                <ZoomPanKeyframe id="1797" timeRangeEnd="-9999999/1" timeRangeDuration="0/1" interpolaterName=""  />
               </ZoomPanKeyframes>
              </ZoomPanBin>
             </Entry>
             <Entry key="CursorEffectBin">
              <CursorEffectBin id="1798"  >
               <CursorEffectKeyframes>
               </CursorEffectKeyframes>
              </CursorEffectBin>
             </Entry>
            </ExtraData>
           </ScreenVMFile>
           <ScreenVMFile id="1799" start="5711" duration="6" scalar="1/1" mediaStart="6439/1" mediaDuration="6/1" trackNumber="0" src="4" >
            <Transformer>
             <VectorParam id="1800"  name="translation">
              <InterpolatingParam id="1801" interp="linr"  time="-9999999/1" value="0" leadInLength="0/1"  />
              <InterpolatingParam id="1802" interp="linr"  time="-9999999/1" value="0" leadInLength="0/1"  />
              <InterpolatingParam id="1803" interp="linr"  time="-9999999/1" value="0" leadInLength="0/1"  />
             </VectorParam>
             <VectorParam id="1804"  name="rotation">
              <InterpolatingParam id="1805" interp="linr"  time="-9999999/1" value="0" leadInLength="0/1"  />
              <InterpolatingParam id="1806" interp="linr"  time="-9999999/1" value="0" leadInLength="0/1"  />
              <InterpolatingParam id="1807" interp="linr"  time="-9999999/1" value="0" leadInLength="0/1"  />
             </VectorParam>
             <VectorParam id="1808"  name="shear">
              <InterpolatingParam id="1809" interp="linr"  time="-9999999/1" value="0" leadInLength="0/1"  />
              <InterpolatingParam id="1810" interp="linr"  time="-9999999/1" value="0" leadInLength="0/1"  />
              <InterpolatingParam id="1811" interp="linr"  time="-9999999/1" value="0" leadInLength="0/1"  />
             </VectorParam>
             <VectorParam id="1812"  name="scale">
              <InterpolatingParam id="1813" interp="linr"  time="-9999999/1" value="1" leadInLength="0/1"  />
              <InterpolatingParam id="1814" interp="linr"  time="-9999999/1" value="1" leadInLength="0/1"  />
              <InterpolatingParam id="1815" interp="linr"  time="-9999999/1" value="1" leadInLength="0/1"  />
             </VectorParam>
             <VectorParam id="1816"  name="anchor">
              <InterpolatingParam id="1817" interp="linr"  time="0/1" value="0" leadInLength="0/1"  />
              <InterpolatingParam id="1818" interp="linr"  time="0/1" value="0" leadInLength="0/1"  />
              <InterpolatingParam id="1819" interp="linr"  time="0/1" value="0" leadInLength="0/1"  />
             </VectorParam>
            </Transformer>
            <Parameters>
             <VectorParam id="1820"  name="sourceCrop">
              <InterpolatingParam id="1821" interp="linr"  time="0/1" value="0" leadInLength="0/1"  />
              <InterpolatingParam id="1822" interp="linr"  time="0/1" value="0" leadInLength="0/1"  />
              <InterpolatingParam id="1823" interp="linr"  time="0/1" value="0" leadInLength="0/1"  />
              <InterpolatingParam id="1824" interp="linr"  time="0/1" value="0" leadInLength="0/1"  />
             </VectorParam>
             <VectorParam id="1825"  name="geometryCrop">
              <InterpolatingParam id="1826" interp="linr"  time="-9999999/1" value="0" leadInLength="0/1"  />
              <InterpolatingParam id="1827" interp="linr"  time="-9999999/1" value="0" leadInLength="0/1"  />
              <InterpolatingParam id="1828" interp="linr"  time="-9999999/1" value="0" leadInLength="0/1"  />
              <InterpolatingParam id="1829" interp="linr"  time="-9999999/1" value="0" leadInLength="0/1"  />
             </VectorParam>
             <InterpolatingParam id="1830" interp="linr"  time="-9999999/1" value="1" leadInLength="0/1"  name="opacity"/>
             <InterpolatingParam id="1831" interp="linr"  time="0/1" value="0" leadInLength="0/1"  name="cursorOpacity"/>
             <InterpolatingParam id="1832" interp="linr"  time="0/1" value="0" leadInLength="0/1"  name="cursorScale"/>
            </Parameters>
            <Attributes>
             <Attribute id="1833" value="" name="ident"/>
            </Attributes>
            <MetaData>
             <entry key="AutoAppliedSmartFocus" val="False"/>
             <entry key="WinSubProjectDisplayName" val=""/>
            </MetaData>
            <ExtraData>
             <Entry key="ZoomPanBin">
              <ZoomPanBin id="1834"  >
               <ZoomPanKeyframes>
                <ZoomPanKeyframe id="1835" timeRangeEnd="-9999999/1" timeRangeDuration="0/1" interpolaterName=""  />
               </ZoomPanKeyframes>
              </ZoomPanBin>
             </Entry>
             <Entry key="CursorEffectBin">
              <CursorEffectBin id="1836"  >
               <CursorEffectKeyframes>
               </CursorEffectKeyframes>
              </CursorEffectBin>
             </Entry>
            </ExtraData>
           </ScreenVMFile>
           <ScreenVMFile id="1837" start="5717" duration="427" scalar="1/1" mediaStart="6488/1" mediaDuration="427/1" trackNumber="0" src="4" >
            <Transformer>
             <VectorParam id="1838"  name="translation">
              <InterpolatingParam id="1839" interp="linr"  time="-9999999/1" value="0" leadInLength="0/1"  />
              <InterpolatingParam id="1840" interp="linr"  time="-9999999/1" value="0" leadInLength="0/1"  />
              <InterpolatingParam id="1841" interp="linr"  time="-9999999/1" value="0" leadInLength="0/1"  />
             </VectorParam>
             <VectorParam id="1842"  name="rotation">
              <InterpolatingParam id="1843" interp="linr"  time="-9999999/1" value="0" leadInLength="0/1"  />
              <InterpolatingParam id="1844" interp="linr"  time="-9999999/1" value="0" leadInLength="0/1"  />
              <InterpolatingParam id="1845" interp="linr"  time="-9999999/1" value="0" leadInLength="0/1"  />
             </VectorParam>
             <VectorParam id="1846"  name="shear">
              <InterpolatingParam id="1847" interp="linr"  time="-9999999/1" value="0" leadInLength="0/1"  />
              <InterpolatingParam id="1848" interp="linr"  time="-9999999/1" value="0" leadInLength="0/1"  />
              <InterpolatingParam id="1849" interp="linr"  time="-9999999/1" value="0" leadInLength="0/1"  />
             </VectorParam>
             <VectorParam id="1850"  name="scale">
              <InterpolatingParam id="1851" interp="linr"  time="-9999999/1" value="1" leadInLength="0/1"  />
              <InterpolatingParam id="1852" interp="linr"  time="-9999999/1" value="1" leadInLength="0/1"  />
              <InterpolatingParam id="1853" interp="linr"  time="-9999999/1" value="1" leadInLength="0/1"  />
             </VectorParam>
             <VectorParam id="1854"  name="anchor">
              <InterpolatingParam id="1855" interp="linr"  time="0/1" value="0" leadInLength="0/1"  />
              <InterpolatingParam id="1856" interp="linr"  time="0/1" value="0" leadInLength="0/1"  />
              <InterpolatingParam id="1857" interp="linr"  time="0/1" value="0" leadInLength="0/1"  />
             </VectorParam>
            </Transformer>
            <Parameters>
             <VectorParam id="1858"  name="sourceCrop">
              <InterpolatingParam id="1859" interp="linr"  time="0/1" value="0" leadInLength="0/1"  />
              <InterpolatingParam id="1860" interp="linr"  time="0/1" value="0" leadInLength="0/1"  />
              <InterpolatingParam id="1861" interp="linr"  time="0/1" value="0" leadInLength="0/1"  />
              <InterpolatingParam id="1862" interp="linr"  time="0/1" value="0" leadInLength="0/1"  />
             </VectorParam>
             <VectorParam id="1863"  name="geometryCrop">
              <InterpolatingParam id="1864" interp="linr"  time="-9999999/1" value="0" leadInLength="0/1"  />
              <InterpolatingParam id="1865" interp="linr"  time="-9999999/1" value="0" leadInLength="0/1"  />
              <InterpolatingParam id="1866" interp="linr"  time="-9999999/1" value="0" leadInLength="0/1"  />
              <InterpolatingParam id="1867" interp="linr"  time="-9999999/1" value="0" leadInLength="0/1"  />
             </VectorParam>
             <InterpolatingParam id="1868" interp="linr"  time="-9999999/1" value="1" leadInLength="0/1"  name="opacity"/>
             <InterpolatingParam id="1869" interp="linr"  time="0/1" value="0" leadInLength="0/1"  name="cursorOpacity"/>
             <InterpolatingParam id="1870" interp="linr"  time="0/1" value="0" leadInLength="0/1"  name="cursorScale"/>
            </Parameters>
            <Attributes>
             <Attribute id="1871" value="" name="ident"/>
            </Attributes>
            <MetaData>
             <entry key="AutoAppliedSmartFocus" val="False"/>
             <entry key="WinSubProjectDisplayName" val=""/>
            </MetaData>
            <ExtraData>
             <Entry key="ZoomPanBin">
              <ZoomPanBin id="1872"  >
               <ZoomPanKeyframes>
                <ZoomPanKeyframe id="1873" timeRangeEnd="-9999999/1" timeRangeDuration="0/1" interpolaterName=""  />
               </ZoomPanKeyframes>
              </ZoomPanBin>
             </Entry>
             <Entry key="CursorEffectBin">
              <CursorEffectBin id="1874"  >
               <CursorEffectKeyframes>
               </CursorEffectKeyframes>
              </CursorEffectBin>
             </Entry>
            </ExtraData>
           </ScreenVMFile>
           <ScreenVMFile id="1875" start="6144" duration="240" scalar="1/1" mediaStart="6955/1" mediaDuration="240/1" trackNumber="0" src="4" >
            <Transformer>
             <VectorParam id="1876"  name="translation">
              <InterpolatingParam id="1877" interp="linr"  time="-9999999/1" value="0" leadInLength="0/1"  />
              <InterpolatingParam id="1878" interp="linr"  time="-9999999/1" value="0" leadInLength="0/1"  />
              <InterpolatingParam id="1879" interp="linr"  time="-9999999/1" value="0" leadInLength="0/1"  />
             </VectorParam>
             <VectorParam id="1880"  name="rotation">
              <InterpolatingParam id="1881" interp="linr"  time="-9999999/1" value="0" leadInLength="0/1"  />
              <InterpolatingParam id="1882" interp="linr"  time="-9999999/1" value="0" leadInLength="0/1"  />
              <InterpolatingParam id="1883" interp="linr"  time="-9999999/1" value="0" leadInLength="0/1"  />
             </VectorParam>
             <VectorParam id="1884"  name="shear">
              <InterpolatingParam id="1885" interp="linr"  time="-9999999/1" value="0" leadInLength="0/1"  />
              <InterpolatingParam id="1886" interp="linr"  time="-9999999/1" value="0" leadInLength="0/1"  />
              <InterpolatingParam id="1887" interp="linr"  time="-9999999/1" value="0" leadInLength="0/1"  />
             </VectorParam>
             <VectorParam id="1888"  name="scale">
              <InterpolatingParam id="1889" interp="linr"  time="-9999999/1" value="1" leadInLength="0/1"  />
              <InterpolatingParam id="1890" interp="linr"  time="-9999999/1" value="1" leadInLength="0/1"  />
              <InterpolatingParam id="1891" interp="linr"  time="-9999999/1" value="1" leadInLength="0/1"  />
             </VectorParam>
             <VectorParam id="1892"  name="anchor">
              <InterpolatingParam id="1893" interp="linr"  time="0/1" value="0" leadInLength="0/1"  />
              <InterpolatingParam id="1894" interp="linr"  time="0/1" value="0" leadInLength="0/1"  />
              <InterpolatingParam id="1895" interp="linr"  time="0/1" value="0" leadInLength="0/1"  />
             </VectorParam>
            </Transformer>
            <Parameters>
             <VectorParam id="1896"  name="sourceCrop">
              <InterpolatingParam id="1897" interp="linr"  time="0/1" value="0" leadInLength="0/1"  />
              <InterpolatingParam id="1898" interp="linr"  time="0/1" value="0" leadInLength="0/1"  />
              <InterpolatingParam id="1899" interp="linr"  time="0/1" value="0" leadInLength="0/1"  />
              <InterpolatingParam id="1900" interp="linr"  time="0/1" value="0" leadInLength="0/1"  />
             </VectorParam>
             <VectorParam id="1901"  name="geometryCrop">
              <InterpolatingParam id="1902" interp="linr"  time="-9999999/1" value="0" leadInLength="0/1"  />
              <InterpolatingParam id="1903" interp="linr"  time="-9999999/1" value="0" leadInLength="0/1"  />
              <InterpolatingParam id="1904" interp="linr"  time="-9999999/1" value="0" leadInLength="0/1"  />
              <InterpolatingParam id="1905" interp="linr"  time="-9999999/1" value="0" leadInLength="0/1"  />
             </VectorParam>
             <InterpolatingParam id="1906" interp="linr"  time="-9999999/1" value="1" leadInLength="0/1"  name="opacity"/>
             <InterpolatingParam id="1907" interp="linr"  time="0/1" value="0" leadInLength="0/1"  name="cursorOpacity"/>
             <InterpolatingParam id="1908" interp="linr"  time="0/1" value="0" leadInLength="0/1"  name="cursorScale"/>
            </Parameters>
            <Attributes>
             <Attribute id="1909" value="" name="ident"/>
            </Attributes>
            <MetaData>
             <entry key="AutoAppliedSmartFocus" val="False"/>
             <entry key="WinSubProjectDisplayName" val=""/>
            </MetaData>
            <ExtraData>
             <Entry key="ZoomPanBin">
              <ZoomPanBin id="1910"  >
               <ZoomPanKeyframes>
                <ZoomPanKeyframe id="1911" timeRangeEnd="-9999999/1" timeRangeDuration="0/1" interpolaterName=""  />
               </ZoomPanKeyframes>
              </ZoomPanBin>
             </Entry>
             <Entry key="CursorEffectBin">
              <CursorEffectBin id="1912"  >
               <CursorEffectKeyframes>
               </CursorEffectKeyframes>
              </CursorEffectBin>
             </Entry>
            </ExtraData>
           </ScreenVMFile>
           <ScreenVMFile id="1913" start="6384" duration="637" scalar="1/1" mediaStart="7219/1" mediaDuration="637/1" trackNumber="0" src="4" >
            <Transformer>
             <VectorParam id="1914"  name="translation">
              <InterpolatingParam id="1915" interp="linr"  time="-9999999/1" value="0" leadInLength="0/1"  />
              <InterpolatingParam id="1916" interp="linr"  time="-9999999/1" value="0" leadInLength="0/1"  />
              <InterpolatingParam id="1917" interp="linr"  time="-9999999/1" value="0" leadInLength="0/1"  />
             </VectorParam>
             <VectorParam id="1918"  name="rotation">
              <InterpolatingParam id="1919" interp="linr"  time="-9999999/1" value="0" leadInLength="0/1"  />
              <InterpolatingParam id="1920" interp="linr"  time="-9999999/1" value="0" leadInLength="0/1"  />
              <InterpolatingParam id="1921" interp="linr"  time="-9999999/1" value="0" leadInLength="0/1"  />
             </VectorParam>
             <VectorParam id="1922"  name="shear">
              <InterpolatingParam id="1923" interp="linr"  time="-9999999/1" value="0" leadInLength="0/1"  />
              <InterpolatingParam id="1924" interp="linr"  time="-9999999/1" value="0" leadInLength="0/1"  />
              <InterpolatingParam id="1925" interp="linr"  time="-9999999/1" value="0" leadInLength="0/1"  />
             </VectorParam>
             <VectorParam id="1926"  name="scale">
              <InterpolatingParam id="1927" interp="linr"  time="-9999999/1" value="1" leadInLength="0/1"  />
              <InterpolatingParam id="1928" interp="linr"  time="-9999999/1" value="1" leadInLength="0/1"  />
              <InterpolatingParam id="1929" interp="linr"  time="-9999999/1" value="1" leadInLength="0/1"  />
             </VectorParam>
             <VectorParam id="1930"  name="anchor">
              <InterpolatingParam id="1931" interp="linr"  time="0/1" value="0" leadInLength="0/1"  />
              <InterpolatingParam id="1932" interp="linr"  time="0/1" value="0" leadInLength="0/1"  />
              <InterpolatingParam id="1933" interp="linr"  time="0/1" value="0" leadInLength="0/1"  />
             </VectorParam>
            </Transformer>
            <Parameters>
             <VectorParam id="1934"  name="sourceCrop">
              <InterpolatingParam id="1935" interp="linr"  time="0/1" value="0" leadInLength="0/1"  />
              <InterpolatingParam id="1936" interp="linr"  time="0/1" value="0" leadInLength="0/1"  />
              <InterpolatingParam id="1937" interp="linr"  time="0/1" value="0" leadInLength="0/1"  />
              <InterpolatingParam id="1938" interp="linr"  time="0/1" value="0" leadInLength="0/1"  />
             </VectorParam>
             <VectorParam id="1939"  name="geometryCrop">
              <InterpolatingParam id="1940" interp="linr"  time="-9999999/1" value="0" leadInLength="0/1"  />
              <InterpolatingParam id="1941" interp="linr"  time="-9999999/1" value="0" leadInLength="0/1"  />
              <InterpolatingParam id="1942" interp="linr"  time="-9999999/1" value="0" leadInLength="0/1"  />
              <InterpolatingParam id="1943" interp="linr"  time="-9999999/1" value="0" leadInLength="0/1"  />
             </VectorParam>
             <InterpolatingParam id="1944" interp="linr"  time="-9999999/1" value="1" leadInLength="0/1"  name="opacity"/>
             <InterpolatingParam id="1945" interp="linr"  time="0/1" value="0" leadInLength="0/1"  name="cursorOpacity"/>
             <InterpolatingParam id="1946" interp="linr"  time="0/1" value="0" leadInLength="0/1"  name="cursorScale"/>
            </Parameters>
            <Attributes>
             <Attribute id="1947" value="" name="ident"/>
            </Attributes>
            <MetaData>
             <entry key="AutoAppliedSmartFocus" val="False"/>
             <entry key="WinSubProjectDisplayName" val=""/>
            </MetaData>
            <ExtraData>
             <Entry key="ZoomPanBin">
              <ZoomPanBin id="1948"  >
               <ZoomPanKeyframes>
                <ZoomPanKeyframe id="1949" timeRangeEnd="-9999999/1" timeRangeDuration="0/1" interpolaterName=""  />
               </ZoomPanKeyframes>
              </ZoomPanBin>
             </Entry>
             <Entry key="CursorEffectBin">
              <CursorEffectBin id="1950"  >
               <CursorEffectKeyframes>
               </CursorEffectKeyframes>
              </CursorEffectBin>
             </Entry>
            </ExtraData>
           </ScreenVMFile>
           <ScreenVMFile id="1951" start="7021" duration="139" scalar="1/1" mediaStart="8197/1" mediaDuration="139/1" trackNumber="0" src="4" >
            <Transformer>
             <VectorParam id="1952"  name="translation">
              <InterpolatingParam id="1953" interp="linr"  time="-9999999/1" value="0" leadInLength="0/1"  />
              <InterpolatingParam id="1954" interp="linr"  time="-9999999/1" value="0" leadInLength="0/1"  />
              <InterpolatingParam id="1955" interp="linr"  time="-9999999/1" value="0" leadInLength="0/1"  />
             </VectorParam>
             <VectorParam id="1956"  name="rotation">
              <InterpolatingParam id="1957" interp="linr"  time="-9999999/1" value="0" leadInLength="0/1"  />
              <InterpolatingParam id="1958" interp="linr"  time="-9999999/1" value="0" leadInLength="0/1"  />
              <InterpolatingParam id="1959" interp="linr"  time="-9999999/1" value="0" leadInLength="0/1"  />
             </VectorParam>
             <VectorParam id="1960"  name="shear">
              <InterpolatingParam id="1961" interp="linr"  time="-9999999/1" value="0" leadInLength="0/1"  />
              <InterpolatingParam id="1962" interp="linr"  time="-9999999/1" value="0" leadInLength="0/1"  />
              <InterpolatingParam id="1963" interp="linr"  time="-9999999/1" value="0" leadInLength="0/1"  />
             </VectorParam>
             <VectorParam id="1964"  name="scale">
              <InterpolatingParam id="1965" interp="linr"  time="-9999999/1" value="1" leadInLength="0/1"  />
              <InterpolatingParam id="1966" interp="linr"  time="-9999999/1" value="1" leadInLength="0/1"  />
              <InterpolatingParam id="1967" interp="linr"  time="-9999999/1" value="1" leadInLength="0/1"  />
             </VectorParam>
             <VectorParam id="1968"  name="anchor">
              <InterpolatingParam id="1969" interp="linr"  time="0/1" value="0" leadInLength="0/1"  />
              <InterpolatingParam id="1970" interp="linr"  time="0/1" value="0" leadInLength="0/1"  />
              <InterpolatingParam id="1971" interp="linr"  time="0/1" value="0" leadInLength="0/1"  />
             </VectorParam>
            </Transformer>
            <Parameters>
             <VectorParam id="1972"  name="sourceCrop">
              <InterpolatingParam id="1973" interp="linr"  time="0/1" value="0" leadInLength="0/1"  />
              <InterpolatingParam id="1974" interp="linr"  time="0/1" value="0" leadInLength="0/1"  />
              <InterpolatingParam id="1975" interp="linr"  time="0/1" value="0" leadInLength="0/1"  />
              <InterpolatingParam id="1976" interp="linr"  time="0/1" value="0" leadInLength="0/1"  />
             </VectorParam>
             <VectorParam id="1977"  name="geometryCrop">
              <InterpolatingParam id="1978" interp="linr"  time="-9999999/1" value="0" leadInLength="0/1"  />
              <InterpolatingParam id="1979" interp="linr"  time="-9999999/1" value="0" leadInLength="0/1"  />
              <InterpolatingParam id="1980" interp="linr"  time="-9999999/1" value="0" leadInLength="0/1"  />
              <InterpolatingParam id="1981" interp="linr"  time="-9999999/1" value="0" leadInLength="0/1"  />
             </VectorParam>
             <InterpolatingParam id="1982" interp="linr"  time="-9999999/1" value="1" leadInLength="0/1"  name="opacity"/>
             <InterpolatingParam id="1983" interp="linr"  time="0/1" value="0" leadInLength="0/1"  name="cursorOpacity"/>
             <InterpolatingParam id="1984" interp="linr"  time="0/1" value="0" leadInLength="0/1"  name="cursorScale"/>
            </Parameters>
            <Attributes>
             <Attribute id="1985" value="" name="ident"/>
            </Attributes>
            <MetaData>
             <entry key="AutoAppliedSmartFocus" val="False"/>
             <entry key="WinSubProjectDisplayName" val=""/>
            </MetaData>
            <ExtraData>
             <Entry key="ZoomPanBin">
              <ZoomPanBin id="1986"  >
               <ZoomPanKeyframes>
                <ZoomPanKeyframe id="1987" timeRangeEnd="-9999999/1" timeRangeDuration="0/1" interpolaterName=""  />
               </ZoomPanKeyframes>
              </ZoomPanBin>
             </Entry>
             <Entry key="CursorEffectBin">
              <CursorEffectBin id="1988"  >
               <CursorEffectKeyframes>
               </CursorEffectKeyframes>
              </CursorEffectBin>
             </Entry>
            </ExtraData>
           </ScreenVMFile>
           <ScreenVMFile id="1989" start="7160" duration="4562" scalar="1/1" mediaStart="8391/1" mediaDuration="4562/1" trackNumber="0" src="4" >
            <Transformer>
             <VectorParam id="1990"  name="translation">
              <InterpolatingParam id="1991" interp="linr"  time="-9999999/1" value="0" leadInLength="0/1"  />
              <InterpolatingParam id="1992" interp="linr"  time="-9999999/1" value="0" leadInLength="0/1"  />
              <InterpolatingParam id="1993" interp="linr"  time="-9999999/1" value="0" leadInLength="0/1"  />
             </VectorParam>
             <VectorParam id="1994"  name="rotation">
              <InterpolatingParam id="1995" interp="linr"  time="-9999999/1" value="0" leadInLength="0/1"  />
              <InterpolatingParam id="1996" interp="linr"  time="-9999999/1" value="0" leadInLength="0/1"  />
              <InterpolatingParam id="1997" interp="linr"  time="-9999999/1" value="0" leadInLength="0/1"  />
             </VectorParam>
             <VectorParam id="1998"  name="shear">
              <InterpolatingParam id="1999" interp="linr"  time="-9999999/1" value="0" leadInLength="0/1"  />
              <InterpolatingParam id="2000" interp="linr"  time="-9999999/1" value="0" leadInLength="0/1"  />
              <InterpolatingParam id="2001" interp="linr"  time="-9999999/1" value="0" leadInLength="0/1"  />
             </VectorParam>
             <VectorParam id="2002"  name="scale">
              <InterpolatingParam id="2003" interp="linr"  time="-9999999/1" value="1" leadInLength="0/1"  />
              <InterpolatingParam id="2004" interp="linr"  time="-9999999/1" value="1" leadInLength="0/1"  />
              <InterpolatingParam id="2005" interp="linr"  time="-9999999/1" value="1" leadInLength="0/1"  />
             </VectorParam>
             <VectorParam id="2006"  name="anchor">
              <InterpolatingParam id="2007" interp="linr"  time="0/1" value="0" leadInLength="0/1"  />
              <InterpolatingParam id="2008" interp="linr"  time="0/1" value="0" leadInLength="0/1"  />
              <InterpolatingParam id="2009" interp="linr"  time="0/1" value="0" leadInLength="0/1"  />
             </VectorParam>
            </Transformer>
            <Parameters>
             <VectorParam id="2010"  name="sourceCrop">
              <InterpolatingParam id="2011" interp="linr"  time="0/1" value="0" leadInLength="0/1"  />
              <InterpolatingParam id="2012" interp="linr"  time="0/1" value="0" leadInLength="0/1"  />
              <InterpolatingParam id="2013" interp="linr"  time="0/1" value="0" leadInLength="0/1"  />
              <InterpolatingParam id="2014" interp="linr"  time="0/1" value="0" leadInLength="0/1"  />
             </VectorParam>
             <VectorParam id="2015"  name="geometryCrop">
              <InterpolatingParam id="2016" interp="linr"  time="-9999999/1" value="0" leadInLength="0/1"  />
              <InterpolatingParam id="2017" interp="linr"  time="-9999999/1" value="0" leadInLength="0/1"  />
              <InterpolatingParam id="2018" interp="linr"  time="-9999999/1" value="0" leadInLength="0/1"  />
              <InterpolatingParam id="2019" interp="linr"  time="-9999999/1" value="0" leadInLength="0/1"  />
             </VectorParam>
             <InterpolatingParam id="2020" interp="linr"  time="-9999999/1" value="1" leadInLength="0/1"  name="opacity"/>
             <InterpolatingParam id="2021" interp="linr"  time="0/1" value="0" leadInLength="0/1"  name="cursorOpacity"/>
             <InterpolatingParam id="2022" interp="linr"  time="0/1" value="0" leadInLength="0/1"  name="cursorScale"/>
            </Parameters>
            <Attributes>
             <Attribute id="2023" value="" name="ident"/>
            </Attributes>
            <MetaData>
             <entry key="AutoAppliedSmartFocus" val="False"/>
             <entry key="WinSubProjectDisplayName" val=""/>
            </MetaData>
            <ExtraData>
             <Entry key="ZoomPanBin">
              <ZoomPanBin id="2024"  >
               <ZoomPanKeyframes>
                <ZoomPanKeyframe id="2025" timeRangeEnd="-9999999/1" timeRangeDuration="0/1" interpolaterName=""  />
               </ZoomPanKeyframes>
              </ZoomPanBin>
             </Entry>
             <Entry key="CursorEffectBin">
              <CursorEffectBin id="2026"  >
               <CursorEffectKeyframes>
               </CursorEffectKeyframes>
              </CursorEffectBin>
             </Entry>
            </ExtraData>
           </ScreenVMFile>
           <ScreenVMFile id="2027" start="11722" duration="735" scalar="1/1" mediaStart="13091/1" mediaDuration="735/1" trackNumber="0" src="4" >
            <Transformer>
             <VectorParam id="2028"  name="translation">
              <InterpolatingParam id="2029" interp="linr"  time="-9999999/1" value="0" leadInLength="0/1"  />
              <InterpolatingParam id="2030" interp="linr"  time="-9999999/1" value="0" leadInLength="0/1"  />
              <InterpolatingParam id="2031" interp="linr"  time="-9999999/1" value="0" leadInLength="0/1"  />
             </VectorParam>
             <VectorParam id="2032"  name="rotation">
              <InterpolatingParam id="2033" interp="linr"  time="-9999999/1" value="0" leadInLength="0/1"  />
              <InterpolatingParam id="2034" interp="linr"  time="-9999999/1" value="0" leadInLength="0/1"  />
              <InterpolatingParam id="2035" interp="linr"  time="-9999999/1" value="0" leadInLength="0/1"  />
             </VectorParam>
             <VectorParam id="2036"  name="shear">
              <InterpolatingParam id="2037" interp="linr"  time="-9999999/1" value="0" leadInLength="0/1"  />
              <InterpolatingParam id="2038" interp="linr"  time="-9999999/1" value="0" leadInLength="0/1"  />
              <InterpolatingParam id="2039" interp="linr"  time="-9999999/1" value="0" leadInLength="0/1"  />
             </VectorParam>
             <VectorParam id="2040"  name="scale">
              <InterpolatingParam id="2041" interp="linr"  time="-9999999/1" value="1" leadInLength="0/1"  />
              <InterpolatingParam id="2042" interp="linr"  time="-9999999/1" value="1" leadInLength="0/1"  />
              <InterpolatingParam id="2043" interp="linr"  time="-9999999/1" value="1" leadInLength="0/1"  />
             </VectorParam>
             <VectorParam id="2044"  name="anchor">
              <InterpolatingParam id="2045" interp="linr"  time="0/1" value="0" leadInLength="0/1"  />
              <InterpolatingParam id="2046" interp="linr"  time="0/1" value="0" leadInLength="0/1"  />
              <InterpolatingParam id="2047" interp="linr"  time="0/1" value="0" leadInLength="0/1"  />
             </VectorParam>
            </Transformer>
            <Parameters>
             <VectorParam id="2048"  name="sourceCrop">
              <InterpolatingParam id="2049" interp="linr"  time="0/1" value="0" leadInLength="0/1"  />
              <InterpolatingParam id="2050" interp="linr"  time="0/1" value="0" leadInLength="0/1"  />
              <InterpolatingParam id="2051" interp="linr"  time="0/1" value="0" leadInLength="0/1"  />
              <InterpolatingParam id="2052" interp="linr"  time="0/1" value="0" leadInLength="0/1"  />
             </VectorParam>
             <VectorParam id="2053"  name="geometryCrop">
              <InterpolatingParam id="2054" interp="linr"  time="-9999999/1" value="0" leadInLength="0/1"  />
              <InterpolatingParam id="2055" interp="linr"  time="-9999999/1" value="0" leadInLength="0/1"  />
              <InterpolatingParam id="2056" interp="linr"  time="-9999999/1" value="0" leadInLength="0/1"  />
              <InterpolatingParam id="2057" interp="linr"  time="-9999999/1" value="0" leadInLength="0/1"  />
             </VectorParam>
             <InterpolatingParam id="2058" interp="linr"  time="-9999999/1" value="1" leadInLength="0/1"  name="opacity"/>
             <InterpolatingParam id="2059" interp="linr"  time="0/1" value="0" leadInLength="0/1"  name="cursorOpacity"/>
             <InterpolatingParam id="2060" interp="linr"  time="0/1" value="0" leadInLength="0/1"  name="cursorScale"/>
            </Parameters>
            <Attributes>
             <Attribute id="2061" value="" name="ident"/>
            </Attributes>
            <MetaData>
             <entry key="AutoAppliedSmartFocus" val="False"/>
             <entry key="WinSubProjectDisplayName" val=""/>
            </MetaData>
            <ExtraData>
             <Entry key="ZoomPanBin">
              <ZoomPanBin id="2062"  >
               <ZoomPanKeyframes>
                <ZoomPanKeyframe id="2063" timeRangeEnd="-9999999/1" timeRangeDuration="0/1" interpolaterName=""  />
               </ZoomPanKeyframes>
              </ZoomPanBin>
             </Entry>
             <Entry key="CursorEffectBin">
              <CursorEffectBin id="2064"  >
               <CursorEffectKeyframes>
               </CursorEffectKeyframes>
              </CursorEffectBin>
             </Entry>
            </ExtraData>
           </ScreenVMFile>
           <ScreenVMFile id="2065" start="12457" duration="18" scalar="1/1" mediaStart="13906/1" mediaDuration="18/1" trackNumber="0" src="4" >
            <Transformer>
             <VectorParam id="2066"  name="translation">
              <InterpolatingParam id="2067" interp="linr"  time="-9999999/1" value="0" leadInLength="0/1"  />
              <InterpolatingParam id="2068" interp="linr"  time="-9999999/1" value="0" leadInLength="0/1"  />
              <InterpolatingParam id="2069" interp="linr"  time="-9999999/1" value="0" leadInLength="0/1"  />
             </VectorParam>
             <VectorParam id="2070"  name="rotation">
              <InterpolatingParam id="2071" interp="linr"  time="-9999999/1" value="0" leadInLength="0/1"  />
              <InterpolatingParam id="2072" interp="linr"  time="-9999999/1" value="0" leadInLength="0/1"  />
              <InterpolatingParam id="2073" interp="linr"  time="-9999999/1" value="0" leadInLength="0/1"  />
             </VectorParam>
             <VectorParam id="2074"  name="shear">
              <InterpolatingParam id="2075" interp="linr"  time="-9999999/1" value="0" leadInLength="0/1"  />
              <InterpolatingParam id="2076" interp="linr"  time="-9999999/1" value="0" leadInLength="0/1"  />
              <InterpolatingParam id="2077" interp="linr"  time="-9999999/1" value="0" leadInLength="0/1"  />
             </VectorParam>
             <VectorParam id="2078"  name="scale">
              <InterpolatingParam id="2079" interp="linr"  time="-9999999/1" value="1" leadInLength="0/1"  />
              <InterpolatingParam id="2080" interp="linr"  time="-9999999/1" value="1" leadInLength="0/1"  />
              <InterpolatingParam id="2081" interp="linr"  time="-9999999/1" value="1" leadInLength="0/1"  />
             </VectorParam>
             <VectorParam id="2082"  name="anchor">
              <InterpolatingParam id="2083" interp="linr"  time="0/1" value="0" leadInLength="0/1"  />
              <InterpolatingParam id="2084" interp="linr"  time="0/1" value="0" leadInLength="0/1"  />
              <InterpolatingParam id="2085" interp="linr"  time="0/1" value="0" leadInLength="0/1"  />
             </VectorParam>
            </Transformer>
            <Parameters>
             <VectorParam id="2086"  name="sourceCrop">
              <InterpolatingParam id="2087" interp="linr"  time="0/1" value="0" leadInLength="0/1"  />
              <InterpolatingParam id="2088" interp="linr"  time="0/1" value="0" leadInLength="0/1"  />
              <InterpolatingParam id="2089" interp="linr"  time="0/1" value="0" leadInLength="0/1"  />
              <InterpolatingParam id="2090" interp="linr"  time="0/1" value="0" leadInLength="0/1"  />
             </VectorParam>
             <VectorParam id="2091"  name="geometryCrop">
              <InterpolatingParam id="2092" interp="linr"  time="-9999999/1" value="0" leadInLength="0/1"  />
              <InterpolatingParam id="2093" interp="linr"  time="-9999999/1" value="0" leadInLength="0/1"  />
              <InterpolatingParam id="2094" interp="linr"  time="-9999999/1" value="0" leadInLength="0/1"  />
              <InterpolatingParam id="2095" interp="linr"  time="-9999999/1" value="0" leadInLength="0/1"  />
             </VectorParam>
             <InterpolatingParam id="2096" interp="linr"  time="-9999999/1" value="1" leadInLength="0/1"  name="opacity"/>
             <InterpolatingParam id="2097" interp="linr"  time="0/1" value="0" leadInLength="0/1"  name="cursorOpacity"/>
             <InterpolatingParam id="2098" interp="linr"  time="0/1" value="0" leadInLength="0/1"  name="cursorScale"/>
            </Parameters>
            <Attributes>
             <Attribute id="2099" value="" name="ident"/>
            </Attributes>
            <MetaData>
             <entry key="AutoAppliedSmartFocus" val="False"/>
             <entry key="WinSubProjectDisplayName" val=""/>
            </MetaData>
            <ExtraData>
             <Entry key="ZoomPanBin">
              <ZoomPanBin id="2100"  >
               <ZoomPanKeyframes>
                <ZoomPanKeyframe id="2101" timeRangeEnd="-9999999/1" timeRangeDuration="0/1" interpolaterName=""  />
               </ZoomPanKeyframes>
              </ZoomPanBin>
             </Entry>
             <Entry key="CursorEffectBin">
              <CursorEffectBin id="2102"  >
               <CursorEffectKeyframes>
               </CursorEffectKeyframes>
              </CursorEffectBin>
             </Entry>
            </ExtraData>
           </ScreenVMFile>
          </Medias>
         </GenericTrack>
        </StitchedMedia>
       </Medias>
      </GenericTrack>
      <GenericTrack id="2103"  >
       <Attributes>
        <Attribute id="2104" value="" name="ident"/>
        <Attribute id="2105" value="0" name="audioMuted"/>
        <Attribute id="2106" value="0" name="videoHidden"/>
       </Attributes>
       <MetaData>
        <entry key="IsLocked" val="False"/>
        <entry key="WinTrackHeight" val="62"/>
       </MetaData>
       <Medias>
        <StitchedMedia id="2107" start="0" duration="7146" scalar="1/1" mediaStart="0/1" mediaDuration="7146/1" minMediaStart="0/1" >
         <Transformer>
          <VectorParam id="2108"  name="translation">
           <InterpolatingParam id="2109" interp="linr"  time="-9999999/1" value="0" leadInLength="0/1"  interpolater="leadin-linr"  />
           <InterpolatingParam id="2110" interp="linr"  time="-9999999/1" value="0" leadInLength="0/1"  interpolater="leadin-linr"  />
           <InterpolatingParam id="2111" interp="linr"  time="-9999999/1" value="0" leadInLength="0/1"  interpolater="leadin-linr"  />
          </VectorParam>
          <VectorParam id="2112"  name="rotation">
           <InterpolatingParam id="2113" interp="linr"  time="-9999999/1" value="0" leadInLength="0/1"  interpolater="leadin-linr"  />
           <InterpolatingParam id="2114" interp="linr"  time="-9999999/1" value="0" leadInLength="0/1"  interpolater="leadin-linr"  />
           <InterpolatingParam id="2115" interp="linr"  time="-9999999/1" value="0" leadInLength="0/1"  interpolater="leadin-linr"  />
          </VectorParam>
          <VectorParam id="2116"  name="shear">
           <InterpolatingParam id="2117" interp="linr"  time="-9999999/1" value="0" leadInLength="0/1"  interpolater="leadin-linr"  />
           <InterpolatingParam id="2118" interp="linr"  time="-9999999/1" value="0" leadInLength="0/1"  interpolater="leadin-linr"  />
           <InterpolatingParam id="2119" interp="linr"  time="-9999999/1" value="0" leadInLength="0/1"  interpolater="leadin-linr"  />
          </VectorParam>
          <VectorParam id="2120"  name="scale">
           <InterpolatingParam id="2121" interp="linr"  time="-9999999/1" value="0.7114583333333333" leadInLength="0/1"  interpolater="leadin-linr"  />
           <InterpolatingParam id="2122" interp="linr"  time="-9999999/1" value="0.7114583333333333" leadInLength="0/1"  interpolater="leadin-linr"  />
           <InterpolatingParam id="2123" interp="linr"  time="-9999999/1" value="1" leadInLength="0/1"  interpolater="leadin-linr"  />
          </VectorParam>
          <VectorParam id="2124"  name="anchor">
           <InterpolatingParam id="2125" interp="linr"  time="0/1" value="0" leadInLength="0/1"  />
           <InterpolatingParam id="2126" interp="linr"  time="0/1" value="0" leadInLength="0/1"  />
           <InterpolatingParam id="2127" interp="linr"  time="0/1" value="0" leadInLength="0/1"  />
          </VectorParam>
         </Transformer>
         <Parameters>
          <VectorParam id="2128"  name="sourceCrop">
           <InterpolatingParam id="2129" interp="linr"  time="0/1" value="0" leadInLength="0/1"  />
           <InterpolatingParam id="2130" interp="linr"  time="0/1" value="0" leadInLength="0/1"  />
           <InterpolatingParam id="2131" interp="linr"  time="0/1" value="0" leadInLength="0/1"  />
           <InterpolatingParam id="2132" interp="linr"  time="0/1" value="0" leadInLength="0/1"  />
          </VectorParam>
          <VectorParam id="2133"  name="geometryCrop">
           <InterpolatingParam id="2134" interp="linr"  time="-9999999/1" value="0" leadInLength="0/1"  interpolater="leadin-linr"  />
           <InterpolatingParam id="2135" interp="linr"  time="-9999999/1" value="0" leadInLength="0/1"  interpolater="leadin-linr"  />
           <InterpolatingParam id="2136" interp="linr"  time="-9999999/1" value="0" leadInLength="0/1"  interpolater="leadin-linr"  />
           <InterpolatingParam id="2137" interp="linr"  time="-9999999/1" value="0" leadInLength="0/1"  interpolater="leadin-linr"  />
          </VectorParam>
          <InterpolatingParam id="2138" interp="linr"  time="-9999999/1" value="1" leadInLength="0/1"  interpolater="leadin-linr"  name="opacity"/>
          <InterpolatingParam id="2139" interp="linr"  time="0/1" value="1" leadInLength="0/1"  name="cursorOpacity"/>
          <InterpolatingParam id="2140" interp="linr"  time="0/1" value="1" leadInLength="0/1"  name="cursorScale"/>
          <Parameter id="2141"  name="captions"/>
         </Parameters>
         <Effects>
          <GenericEffect id="2142" name = "CursorBaseEffectName" >
           <Parameters>
           <InterpolatingParam id="2143" interp="linr"  time="-9999999/1" value="1" leadInLength="0/1"   name="cursorSize"/>
           <InterpolatingParam id="2144" interp="linr"  time="-9999999/1" value="0" leadInLength="0/1"   name="highlightBlurRadius"/>
           <InterpolatingParam id="2145" interp="linr"  time="-9999999/1" value="0" leadInLength="0/1"   name="highlightColorBlue"/>
           <InterpolatingParam id="2146" interp="linr"  time="-9999999/1" value="255" leadInLength="0/1"   name="highlightColorGreen"/>
           <InterpolatingParam id="2147" interp="linr"  time="-9999999/1" value="255" leadInLength="0/1"   name="highlightColorRed"/>
           <InterpolatingParam id="2148" interp="linr"  time="-9999999/1" value="5" leadInLength="0/1"   name="highlightFeatherSize"/>
           <InterpolatingParam id="2149" interp="linr"  time="-9999999/1" value="2" leadInLength="0/1"   name="highlightMagnification"/>
           <InterpolatingParam id="2150" interp="linr"  time="-9999999/1" value="1" leadInLength="0/1"   name="highlightOpacity"/>
           <InterpolatingParam id="2151" interp="linr"  time="-9999999/1" value="45" leadInLength="0/1"   name="highlightSize"/>
           <Parameter id="2152"   name="highlightType">
            <Keyframes>
            <Keyframe id="2153"  time="-9999999/1" value="0" leadInLength="0/1"  />
            </Keyframes>
           </Parameter>
           <InterpolatingParam id="2154" interp="linr"  time="-9999999/1" value="0" leadInLength="0/1"   name="leftClickColorBlue"/>
           <InterpolatingParam id="2155" interp="linr"  time="-9999999/1" value="0" leadInLength="0/1"   name="leftClickColorGreen"/>
           <InterpolatingParam id="2156" interp="linr"  time="-9999999/1" value="255" leadInLength="0/1"   name="leftClickColorRed"/>
           <InterpolatingParam id="2157" interp="linr"  time="-9999999/1" value="0.80000000000000004" leadInLength="0/1"   name="leftClickDuration"/>
           <InterpolatingParam id="2158" interp="linr"  time="-9999999/1" value="20" leadInLength="0/1"   name="leftClickSize"/>
           <Parameter id="2159"   name="leftClickSoundFilename">
            <Keyframes>
            <Keyframe id="2160"  time="-9999999/1" value="" leadInLength="0/1"  />
            </Keyframes>
           </Parameter>
           <InterpolatingParam id="2161" interp="linr"  time="-9999999/1" value="1" leadInLength="0/1"   name="leftClickSoundVolume"/>
           <Parameter id="2162"   name="leftClickType">
            <Keyframes>
            <Keyframe id="2163"  time="-9999999/1" value="0" leadInLength="0/1"  />
            </Keyframes>
           </Parameter>
           <InterpolatingParam id="2164" interp="linr"  time="-9999999/1" value="1" leadInLength="0/1"   name="opacity"/>
           <InterpolatingParam id="2165" interp="linr"  time="-9999999/1" value="255" leadInLength="0/1"   name="rightClickColorBlue"/>
           <InterpolatingParam id="2166" interp="linr"  time="-9999999/1" value="0" leadInLength="0/1"   name="rightClickColorGreen"/>
           <InterpolatingParam id="2167" interp="linr"  time="-9999999/1" value="0" leadInLength="0/1"   name="rightClickColorRed"/>
           <InterpolatingParam id="2168" interp="linr"  time="-9999999/1" value="0.80000000000000004" leadInLength="0/1"   name="rightClickDuration"/>
           <InterpolatingParam id="2169" interp="linr"  time="-9999999/1" value="20" leadInLength="0/1"   name="rightClickSize"/>
           <Parameter id="2170"   name="rightClickSoundFilename">
            <Keyframes>
            <Keyframe id="2171"  time="-9999999/1" value="" leadInLength="0/1"  />
            </Keyframes>
           </Parameter>
           <InterpolatingParam id="2172" interp="linr"  time="-9999999/1" value="1" leadInLength="0/1"   name="rightClickSoundVolume"/>
           <Parameter id="2173"   name="rightClickType">
            <Keyframes>
            <Keyframe id="2174"  time="-9999999/1" value="0" leadInLength="0/1"  />
            </Keyframes>
           </Parameter>
           </Parameters>
          </GenericEffect>
         </Effects>
         <Attributes>
          <Attribute id="2175" value="" name="ident"/>
         </Attributes>
         <MetaData>
          <entry key="AutoAppliedSmartFocus" val="False"/>
          <entry key="WinSubProjectDisplayName" val=""/>
         </MetaData>
         <ExtraData>
          <Entry key="ZoomPanBin">
           <ZoomPanBin id="2176"  >
            <ZoomPanKeyframes>
             <ZoomPanKeyframe id="2177" timeRangeEnd="-9999999/1" timeRangeDuration="0/1" interpolaterName="linr"  />
            </ZoomPanKeyframes>
           </ZoomPanBin>
          </Entry>
          <Entry key="CursorEffectBin">
           <CursorEffectBin id="2178"  >
            <CursorEffectKeyframes>
             <CursorEffectKeyframe id="2179" timeRangeEnd="-9999999/1" timeRangeDuration="0/1" interpolaterName=""  />
            </CursorEffectKeyframes>
           </CursorEffectBin>
          </Entry>
         </ExtraData>
         <GenericTrack id="2180"  >
          <Attributes>
           <Attribute id="2181" value="" name="ident"/>
           <Attribute id="2182" value="0" name="audioMuted"/>
           <Attribute id="2183" value="0" name="videoHidden"/>
          </Attributes>
          <MetaData>
           <entry key="IsLocked" val="False"/>
           <entry key="WinTrackHeight" val="0"/>
          </MetaData>
          <Medias>
           <ScreenVMFile id="2184" start="0" duration="142" scalar="1/1" mediaStart="0/1" mediaDuration="142/1" trackNumber="0" src="4" >
            <Transformer>
             <VectorParam id="2185"  name="translation">
              <InterpolatingParam id="2186" interp="linr"  time="-9999999/1" value="0" leadInLength="0/1"  />
              <InterpolatingParam id="2187" interp="linr"  time="-9999999/1" value="0" leadInLength="0/1"  />
              <InterpolatingParam id="2188" interp="linr"  time="-9999999/1" value="0" leadInLength="0/1"  />
             </VectorParam>
             <VectorParam id="2189"  name="rotation">
              <InterpolatingParam id="2190" interp="linr"  time="-9999999/1" value="0" leadInLength="0/1"  />
              <InterpolatingParam id="2191" interp="linr"  time="-9999999/1" value="0" leadInLength="0/1"  />
              <InterpolatingParam id="2192" interp="linr"  time="-9999999/1" value="0" leadInLength="0/1"  />
             </VectorParam>
             <VectorParam id="2193"  name="shear">
              <InterpolatingParam id="2194" interp="linr"  time="-9999999/1" value="0" leadInLength="0/1"  />
              <InterpolatingParam id="2195" interp="linr"  time="-9999999/1" value="0" leadInLength="0/1"  />
              <InterpolatingParam id="2196" interp="linr"  time="-9999999/1" value="0" leadInLength="0/1"  />
             </VectorParam>
             <VectorParam id="2197"  name="scale">
              <InterpolatingParam id="2198" interp="linr"  time="-9999999/1" value="1" leadInLength="0/1"  />
              <InterpolatingParam id="2199" interp="linr"  time="-9999999/1" value="1" leadInLength="0/1"  />
              <InterpolatingParam id="2200" interp="linr"  time="-9999999/1" value="1" leadInLength="0/1"  />
             </VectorParam>
             <VectorParam id="2201"  name="anchor">
              <InterpolatingParam id="2202" interp="linr"  time="0/1" value="0" leadInLength="0/1"  />
              <InterpolatingParam id="2203" interp="linr"  time="0/1" value="0" leadInLength="0/1"  />
              <InterpolatingParam id="2204" interp="linr"  time="0/1" value="0" leadInLength="0/1"  />
             </VectorParam>
            </Transformer>
            <Parameters>
             <VectorParam id="2205"  name="sourceCrop">
              <InterpolatingParam id="2206" interp="linr"  time="0/1" value="0" leadInLength="0/1"  />
              <InterpolatingParam id="2207" interp="linr"  time="0/1" value="0" leadInLength="0/1"  />
              <InterpolatingParam id="2208" interp="linr"  time="0/1" value="0" leadInLength="0/1"  />
              <InterpolatingParam id="2209" interp="linr"  time="0/1" value="0" leadInLength="0/1"  />
             </VectorParam>
             <VectorParam id="2210"  name="geometryCrop">
              <InterpolatingParam id="2211" interp="linr"  time="-9999999/1" value="0" leadInLength="0/1"  />
              <InterpolatingParam id="2212" interp="linr"  time="-9999999/1" value="0" leadInLength="0/1"  />
              <InterpolatingParam id="2213" interp="linr"  time="-9999999/1" value="0" leadInLength="0/1"  />
              <InterpolatingParam id="2214" interp="linr"  time="-9999999/1" value="0" leadInLength="0/1"  />
             </VectorParam>
             <InterpolatingParam id="2215" interp="linr"  time="-9999999/1" value="1" leadInLength="0/1"  name="opacity"/>
             <InterpolatingParam id="2216" interp="linr"  time="0/1" value="0" leadInLength="0/1"  name="cursorOpacity"/>
             <InterpolatingParam id="2217" interp="linr"  time="0/1" value="0" leadInLength="0/1"  name="cursorScale"/>
            </Parameters>
            <Attributes>
             <Attribute id="2218" value="" name="ident"/>
            </Attributes>
            <MetaData>
             <entry key="AutoAppliedSmartFocus" val="False"/>
             <entry key="WinSubProjectDisplayName" val=""/>
            </MetaData>
            <ExtraData>
             <Entry key="ZoomPanBin">
              <ZoomPanBin id="2219"  >
               <ZoomPanKeyframes>
                <ZoomPanKeyframe id="2220" timeRangeEnd="-9999999/1" timeRangeDuration="0/1" interpolaterName=""  />
               </ZoomPanKeyframes>
              </ZoomPanBin>
             </Entry>
             <Entry key="CursorEffectBin">
              <CursorEffectBin id="2221"  >
               <CursorEffectKeyframes>
               </CursorEffectKeyframes>
              </CursorEffectBin>
             </Entry>
            </ExtraData>
           </ScreenVMFile>
           <ScreenVMFile id="2222" start="142" duration="92" scalar="1/1" mediaStart="158/1" mediaDuration="92/1" trackNumber="0" src="4" >
            <Transformer>
             <VectorParam id="2223"  name="translation">
              <InterpolatingParam id="2224" interp="linr"  time="-9999999/1" value="0" leadInLength="0/1"  />
              <InterpolatingParam id="2225" interp="linr"  time="-9999999/1" value="0" leadInLength="0/1"  />
              <InterpolatingParam id="2226" interp="linr"  time="-9999999/1" value="0" leadInLength="0/1"  />
             </VectorParam>
             <VectorParam id="2227"  name="rotation">
              <InterpolatingParam id="2228" interp="linr"  time="-9999999/1" value="0" leadInLength="0/1"  />
              <InterpolatingParam id="2229" interp="linr"  time="-9999999/1" value="0" leadInLength="0/1"  />
              <InterpolatingParam id="2230" interp="linr"  time="-9999999/1" value="0" leadInLength="0/1"  />
             </VectorParam>
             <VectorParam id="2231"  name="shear">
              <InterpolatingParam id="2232" interp="linr"  time="-9999999/1" value="0" leadInLength="0/1"  />
              <InterpolatingParam id="2233" interp="linr"  time="-9999999/1" value="0" leadInLength="0/1"  />
              <InterpolatingParam id="2234" interp="linr"  time="-9999999/1" value="0" leadInLength="0/1"  />
             </VectorParam>
             <VectorParam id="2235"  name="scale">
              <InterpolatingParam id="2236" interp="linr"  time="-9999999/1" value="1" leadInLength="0/1"  />
              <InterpolatingParam id="2237" interp="linr"  time="-9999999/1" value="1" leadInLength="0/1"  />
              <InterpolatingParam id="2238" interp="linr"  time="-9999999/1" value="1" leadInLength="0/1"  />
             </VectorParam>
             <VectorParam id="2239"  name="anchor">
              <InterpolatingParam id="2240" interp="linr"  time="0/1" value="0" leadInLength="0/1"  />
              <InterpolatingParam id="2241" interp="linr"  time="0/1" value="0" leadInLength="0/1"  />
              <InterpolatingParam id="2242" interp="linr"  time="0/1" value="0" leadInLength="0/1"  />
             </VectorParam>
            </Transformer>
            <Parameters>
             <VectorParam id="2243"  name="sourceCrop">
              <InterpolatingParam id="2244" interp="linr"  time="0/1" value="0" leadInLength="0/1"  />
              <InterpolatingParam id="2245" interp="linr"  time="0/1" value="0" leadInLength="0/1"  />
              <InterpolatingParam id="2246" interp="linr"  time="0/1" value="0" leadInLength="0/1"  />
              <InterpolatingParam id="2247" interp="linr"  time="0/1" value="0" leadInLength="0/1"  />
             </VectorParam>
             <VectorParam id="2248"  name="geometryCrop">
              <InterpolatingParam id="2249" interp="linr"  time="-9999999/1" value="0" leadInLength="0/1"  />
              <InterpolatingParam id="2250" interp="linr"  time="-9999999/1" value="0" leadInLength="0/1"  />
              <InterpolatingParam id="2251" interp="linr"  time="-9999999/1" value="0" leadInLength="0/1"  />
              <InterpolatingParam id="2252" interp="linr"  time="-9999999/1" value="0" leadInLength="0/1"  />
             </VectorParam>
             <InterpolatingParam id="2253" interp="linr"  time="-9999999/1" value="1" leadInLength="0/1"  name="opacity"/>
             <InterpolatingParam id="2254" interp="linr"  time="0/1" value="0" leadInLength="0/1"  name="cursorOpacity"/>
             <InterpolatingParam id="2255" interp="linr"  time="0/1" value="0" leadInLength="0/1"  name="cursorScale"/>
            </Parameters>
            <Attributes>
             <Attribute id="2256" value="" name="ident"/>
            </Attributes>
            <MetaData>
             <entry key="AutoAppliedSmartFocus" val="False"/>
             <entry key="WinSubProjectDisplayName" val=""/>
            </MetaData>
            <ExtraData>
             <Entry key="ZoomPanBin">
              <ZoomPanBin id="2257"  >
               <ZoomPanKeyframes>
                <ZoomPanKeyframe id="2258" timeRangeEnd="-9999999/1" timeRangeDuration="0/1" interpolaterName=""  />
               </ZoomPanKeyframes>
              </ZoomPanBin>
             </Entry>
             <Entry key="CursorEffectBin">
              <CursorEffectBin id="2259"  >
               <CursorEffectKeyframes>
               </CursorEffectKeyframes>
              </CursorEffectBin>
             </Entry>
            </ExtraData>
           </ScreenVMFile>
           <ScreenVMFile id="2260" start="234" duration="1188" scalar="1/1" mediaStart="269/1" mediaDuration="1188/1" trackNumber="0" src="4" >
            <Transformer>
             <VectorParam id="2261"  name="translation">
              <InterpolatingParam id="2262" interp="linr"  time="-9999999/1" value="0" leadInLength="0/1"  />
              <InterpolatingParam id="2263" interp="linr"  time="-9999999/1" value="0" leadInLength="0/1"  />
              <InterpolatingParam id="2264" interp="linr"  time="-9999999/1" value="0" leadInLength="0/1"  />
             </VectorParam>
             <VectorParam id="2265"  name="rotation">
              <InterpolatingParam id="2266" interp="linr"  time="-9999999/1" value="0" leadInLength="0/1"  />
              <InterpolatingParam id="2267" interp="linr"  time="-9999999/1" value="0" leadInLength="0/1"  />
              <InterpolatingParam id="2268" interp="linr"  time="-9999999/1" value="0" leadInLength="0/1"  />
             </VectorParam>
             <VectorParam id="2269"  name="shear">
              <InterpolatingParam id="2270" interp="linr"  time="-9999999/1" value="0" leadInLength="0/1"  />
              <InterpolatingParam id="2271" interp="linr"  time="-9999999/1" value="0" leadInLength="0/1"  />
              <InterpolatingParam id="2272" interp="linr"  time="-9999999/1" value="0" leadInLength="0/1"  />
             </VectorParam>
             <VectorParam id="2273"  name="scale">
              <InterpolatingParam id="2274" interp="linr"  time="-9999999/1" value="1" leadInLength="0/1"  />
              <InterpolatingParam id="2275" interp="linr"  time="-9999999/1" value="1" leadInLength="0/1"  />
              <InterpolatingParam id="2276" interp="linr"  time="-9999999/1" value="1" leadInLength="0/1"  />
             </VectorParam>
             <VectorParam id="2277"  name="anchor">
              <InterpolatingParam id="2278" interp="linr"  time="0/1" value="0" leadInLength="0/1"  />
              <InterpolatingParam id="2279" interp="linr"  time="0/1" value="0" leadInLength="0/1"  />
              <InterpolatingParam id="2280" interp="linr"  time="0/1" value="0" leadInLength="0/1"  />
             </VectorParam>
            </Transformer>
            <Parameters>
             <VectorParam id="2281"  name="sourceCrop">
              <InterpolatingParam id="2282" interp="linr"  time="0/1" value="0" leadInLength="0/1"  />
              <InterpolatingParam id="2283" interp="linr"  time="0/1" value="0" leadInLength="0/1"  />
              <InterpolatingParam id="2284" interp="linr"  time="0/1" value="0" leadInLength="0/1"  />
              <InterpolatingParam id="2285" interp="linr"  time="0/1" value="0" leadInLength="0/1"  />
             </VectorParam>
             <VectorParam id="2286"  name="geometryCrop">
              <InterpolatingParam id="2287" interp="linr"  time="-9999999/1" value="0" leadInLength="0/1"  />
              <InterpolatingParam id="2288" interp="linr"  time="-9999999/1" value="0" leadInLength="0/1"  />
              <InterpolatingParam id="2289" interp="linr"  time="-9999999/1" value="0" leadInLength="0/1"  />
              <InterpolatingParam id="2290" interp="linr"  time="-9999999/1" value="0" leadInLength="0/1"  />
             </VectorParam>
             <InterpolatingParam id="2291" interp="linr"  time="-9999999/1" value="1" leadInLength="0/1"  name="opacity"/>
             <InterpolatingParam id="2292" interp="linr"  time="0/1" value="0" leadInLength="0/1"  name="cursorOpacity"/>
             <InterpolatingParam id="2293" interp="linr"  time="0/1" value="0" leadInLength="0/1"  name="cursorScale"/>
            </Parameters>
            <Attributes>
             <Attribute id="2294" value="" name="ident"/>
            </Attributes>
            <MetaData>
             <entry key="AutoAppliedSmartFocus" val="False"/>
             <entry key="WinSubProjectDisplayName" val=""/>
            </MetaData>
            <ExtraData>
             <Entry key="ZoomPanBin">
              <ZoomPanBin id="2295"  >
               <ZoomPanKeyframes>
                <ZoomPanKeyframe id="2296" timeRangeEnd="-9999999/1" timeRangeDuration="0/1" interpolaterName=""  />
               </ZoomPanKeyframes>
              </ZoomPanBin>
             </Entry>
             <Entry key="CursorEffectBin">
              <CursorEffectBin id="2297"  >
               <CursorEffectKeyframes>
               </CursorEffectKeyframes>
              </CursorEffectBin>
             </Entry>
            </ExtraData>
           </ScreenVMFile>
           <ScreenVMFile id="2298" start="1422" duration="776" scalar="1/1" mediaStart="1485/1" mediaDuration="776/1" trackNumber="0" src="4" >
            <Transformer>
             <VectorParam id="2299"  name="translation">
              <InterpolatingParam id="2300" interp="linr"  time="-9999999/1" value="0" leadInLength="0/1"  />
              <InterpolatingParam id="2301" interp="linr"  time="-9999999/1" value="0" leadInLength="0/1"  />
              <InterpolatingParam id="2302" interp="linr"  time="-9999999/1" value="0" leadInLength="0/1"  />
             </VectorParam>
             <VectorParam id="2303"  name="rotation">
              <InterpolatingParam id="2304" interp="linr"  time="-9999999/1" value="0" leadInLength="0/1"  />
              <InterpolatingParam id="2305" interp="linr"  time="-9999999/1" value="0" leadInLength="0/1"  />
              <InterpolatingParam id="2306" interp="linr"  time="-9999999/1" value="0" leadInLength="0/1"  />
             </VectorParam>
             <VectorParam id="2307"  name="shear">
              <InterpolatingParam id="2308" interp="linr"  time="-9999999/1" value="0" leadInLength="0/1"  />
              <InterpolatingParam id="2309" interp="linr"  time="-9999999/1" value="0" leadInLength="0/1"  />
              <InterpolatingParam id="2310" interp="linr"  time="-9999999/1" value="0" leadInLength="0/1"  />
             </VectorParam>
             <VectorParam id="2311"  name="scale">
              <InterpolatingParam id="2312" interp="linr"  time="-9999999/1" value="1" leadInLength="0/1"  />
              <InterpolatingParam id="2313" interp="linr"  time="-9999999/1" value="1" leadInLength="0/1"  />
              <InterpolatingParam id="2314" interp="linr"  time="-9999999/1" value="1" leadInLength="0/1"  />
             </VectorParam>
             <VectorParam id="2315"  name="anchor">
              <InterpolatingParam id="2316" interp="linr"  time="0/1" value="0" leadInLength="0/1"  />
              <InterpolatingParam id="2317" interp="linr"  time="0/1" value="0" leadInLength="0/1"  />
              <InterpolatingParam id="2318" interp="linr"  time="0/1" value="0" leadInLength="0/1"  />
             </VectorParam>
            </Transformer>
            <Parameters>
             <VectorParam id="2319"  name="sourceCrop">
              <InterpolatingParam id="2320" interp="linr"  time="0/1" value="0" leadInLength="0/1"  />
              <InterpolatingParam id="2321" interp="linr"  time="0/1" value="0" leadInLength="0/1"  />
              <InterpolatingParam id="2322" interp="linr"  time="0/1" value="0" leadInLength="0/1"  />
              <InterpolatingParam id="2323" interp="linr"  time="0/1" value="0" leadInLength="0/1"  />
             </VectorParam>
             <VectorParam id="2324"  name="geometryCrop">
              <InterpolatingParam id="2325" interp="linr"  time="-9999999/1" value="0" leadInLength="0/1"  />
              <InterpolatingParam id="2326" interp="linr"  time="-9999999/1" value="0" leadInLength="0/1"  />
              <InterpolatingParam id="2327" interp="linr"  time="-9999999/1" value="0" leadInLength="0/1"  />
              <InterpolatingParam id="2328" interp="linr"  time="-9999999/1" value="0" leadInLength="0/1"  />
             </VectorParam>
             <InterpolatingParam id="2329" interp="linr"  time="-9999999/1" value="1" leadInLength="0/1"  name="opacity"/>
             <InterpolatingParam id="2330" interp="linr"  time="0/1" value="0" leadInLength="0/1"  name="cursorOpacity"/>
             <InterpolatingParam id="2331" interp="linr"  time="0/1" value="0" leadInLength="0/1"  name="cursorScale"/>
            </Parameters>
            <Attributes>
             <Attribute id="2332" value="" name="ident"/>
            </Attributes>
            <MetaData>
             <entry key="AutoAppliedSmartFocus" val="False"/>
             <entry key="WinSubProjectDisplayName" val=""/>
            </MetaData>
            <ExtraData>
             <Entry key="ZoomPanBin">
              <ZoomPanBin id="2333"  >
               <ZoomPanKeyframes>
                <ZoomPanKeyframe id="2334" timeRangeEnd="-9999999/1" timeRangeDuration="0/1" interpolaterName=""  />
               </ZoomPanKeyframes>
              </ZoomPanBin>
             </Entry>
             <Entry key="CursorEffectBin">
              <CursorEffectBin id="2335"  >
               <CursorEffectKeyframes>
               </CursorEffectKeyframes>
              </CursorEffectBin>
             </Entry>
            </ExtraData>
           </ScreenVMFile>
           <ScreenVMFile id="2336" start="2198" duration="359" scalar="1/1" mediaStart="2295/1" mediaDuration="359/1" trackNumber="0" src="4" >
            <Transformer>
             <VectorParam id="2337"  name="translation">
              <InterpolatingParam id="2338" interp="linr"  time="-9999999/1" value="0" leadInLength="0/1"  />
              <InterpolatingParam id="2339" interp="linr"  time="-9999999/1" value="0" leadInLength="0/1"  />
              <InterpolatingParam id="2340" interp="linr"  time="-9999999/1" value="0" leadInLength="0/1"  />
             </VectorParam>
             <VectorParam id="2341"  name="rotation">
              <InterpolatingParam id="2342" interp="linr"  time="-9999999/1" value="0" leadInLength="0/1"  />
              <InterpolatingParam id="2343" interp="linr"  time="-9999999/1" value="0" leadInLength="0/1"  />
              <InterpolatingParam id="2344" interp="linr"  time="-9999999/1" value="0" leadInLength="0/1"  />
             </VectorParam>
             <VectorParam id="2345"  name="shear">
              <InterpolatingParam id="2346" interp="linr"  time="-9999999/1" value="0" leadInLength="0/1"  />
              <InterpolatingParam id="2347" interp="linr"  time="-9999999/1" value="0" leadInLength="0/1"  />
              <InterpolatingParam id="2348" interp="linr"  time="-9999999/1" value="0" leadInLength="0/1"  />
             </VectorParam>
             <VectorParam id="2349"  name="scale">
              <InterpolatingParam id="2350" interp="linr"  time="-9999999/1" value="1" leadInLength="0/1"  />
              <InterpolatingParam id="2351" interp="linr"  time="-9999999/1" value="1" leadInLength="0/1"  />
              <InterpolatingParam id="2352" interp="linr"  time="-9999999/1" value="1" leadInLength="0/1"  />
             </VectorParam>
             <VectorParam id="2353"  name="anchor">
              <InterpolatingParam id="2354" interp="linr"  time="0/1" value="0" leadInLength="0/1"  />
              <InterpolatingParam id="2355" interp="linr"  time="0/1" value="0" leadInLength="0/1"  />
              <InterpolatingParam id="2356" interp="linr"  time="0/1" value="0" leadInLength="0/1"  />
             </VectorParam>
            </Transformer>
            <Parameters>
             <VectorParam id="2357"  name="sourceCrop">
              <InterpolatingParam id="2358" interp="linr"  time="0/1" value="0" leadInLength="0/1"  />
              <InterpolatingParam id="2359" interp="linr"  time="0/1" value="0" leadInLength="0/1"  />
              <InterpolatingParam id="2360" interp="linr"  time="0/1" value="0" leadInLength="0/1"  />
              <InterpolatingParam id="2361" interp="linr"  time="0/1" value="0" leadInLength="0/1"  />
             </VectorParam>
             <VectorParam id="2362"  name="geometryCrop">
              <InterpolatingParam id="2363" interp="linr"  time="-9999999/1" value="0" leadInLength="0/1"  />
              <InterpolatingParam id="2364" interp="linr"  time="-9999999/1" value="0" leadInLength="0/1"  />
              <InterpolatingParam id="2365" interp="linr"  time="-9999999/1" value="0" leadInLength="0/1"  />
              <InterpolatingParam id="2366" interp="linr"  time="-9999999/1" value="0" leadInLength="0/1"  />
             </VectorParam>
             <InterpolatingParam id="2367" interp="linr"  time="-9999999/1" value="1" leadInLength="0/1"  name="opacity"/>
             <InterpolatingParam id="2368" interp="linr"  time="0/1" value="0" leadInLength="0/1"  name="cursorOpacity"/>
             <InterpolatingParam id="2369" interp="linr"  time="0/1" value="0" leadInLength="0/1"  name="cursorScale"/>
            </Parameters>
            <Attributes>
             <Attribute id="2370" value="" name="ident"/>
            </Attributes>
            <MetaData>
             <entry key="AutoAppliedSmartFocus" val="False"/>
             <entry key="WinSubProjectDisplayName" val=""/>
            </MetaData>
            <ExtraData>
             <Entry key="ZoomPanBin">
              <ZoomPanBin id="2371"  >
               <ZoomPanKeyframes>
                <ZoomPanKeyframe id="2372" timeRangeEnd="-9999999/1" timeRangeDuration="0/1" interpolaterName=""  />
               </ZoomPanKeyframes>
              </ZoomPanBin>
             </Entry>
             <Entry key="CursorEffectBin">
              <CursorEffectBin id="2373"  >
               <CursorEffectKeyframes>
               </CursorEffectKeyframes>
              </CursorEffectBin>
             </Entry>
            </ExtraData>
           </ScreenVMFile>
           <ScreenVMFile id="2374" start="2557" duration="1" scalar="1/1" mediaStart="2670/1" mediaDuration="1/1" trackNumber="0" src="4" >
            <Transformer>
             <VectorParam id="2375"  name="translation">
              <InterpolatingParam id="2376" interp="linr"  time="-9999999/1" value="0" leadInLength="0/1"  />
              <InterpolatingParam id="2377" interp="linr"  time="-9999999/1" value="0" leadInLength="0/1"  />
              <InterpolatingParam id="2378" interp="linr"  time="-9999999/1" value="0" leadInLength="0/1"  />
             </VectorParam>
             <VectorParam id="2379"  name="rotation">
              <InterpolatingParam id="2380" interp="linr"  time="-9999999/1" value="0" leadInLength="0/1"  />
              <InterpolatingParam id="2381" interp="linr"  time="-9999999/1" value="0" leadInLength="0/1"  />
              <InterpolatingParam id="2382" interp="linr"  time="-9999999/1" value="0" leadInLength="0/1"  />
             </VectorParam>
             <VectorParam id="2383"  name="shear">
              <InterpolatingParam id="2384" interp="linr"  time="-9999999/1" value="0" leadInLength="0/1"  />
              <InterpolatingParam id="2385" interp="linr"  time="-9999999/1" value="0" leadInLength="0/1"  />
              <InterpolatingParam id="2386" interp="linr"  time="-9999999/1" value="0" leadInLength="0/1"  />
             </VectorParam>
             <VectorParam id="2387"  name="scale">
              <InterpolatingParam id="2388" interp="linr"  time="-9999999/1" value="1" leadInLength="0/1"  />
              <InterpolatingParam id="2389" interp="linr"  time="-9999999/1" value="1" leadInLength="0/1"  />
              <InterpolatingParam id="2390" interp="linr"  time="-9999999/1" value="1" leadInLength="0/1"  />
             </VectorParam>
             <VectorParam id="2391"  name="anchor">
              <InterpolatingParam id="2392" interp="linr"  time="0/1" value="0" leadInLength="0/1"  />
              <InterpolatingParam id="2393" interp="linr"  time="0/1" value="0" leadInLength="0/1"  />
              <InterpolatingParam id="2394" interp="linr"  time="0/1" value="0" leadInLength="0/1"  />
             </VectorParam>
            </Transformer>
            <Parameters>
             <VectorParam id="2395"  name="sourceCrop">
              <InterpolatingParam id="2396" interp="linr"  time="0/1" value="0" leadInLength="0/1"  />
              <InterpolatingParam id="2397" interp="linr"  time="0/1" value="0" leadInLength="0/1"  />
              <InterpolatingParam id="2398" interp="linr"  time="0/1" value="0" leadInLength="0/1"  />
              <InterpolatingParam id="2399" interp="linr"  time="0/1" value="0" leadInLength="0/1"  />
             </VectorParam>
             <VectorParam id="2400"  name="geometryCrop">
              <InterpolatingParam id="2401" interp="linr"  time="-9999999/1" value="0" leadInLength="0/1"  />
              <InterpolatingParam id="2402" interp="linr"  time="-9999999/1" value="0" leadInLength="0/1"  />
              <InterpolatingParam id="2403" interp="linr"  time="-9999999/1" value="0" leadInLength="0/1"  />
              <InterpolatingParam id="2404" interp="linr"  time="-9999999/1" value="0" leadInLength="0/1"  />
             </VectorParam>
             <InterpolatingParam id="2405" interp="linr"  time="-9999999/1" value="1" leadInLength="0/1"  name="opacity"/>
             <InterpolatingParam id="2406" interp="linr"  time="0/1" value="0" leadInLength="0/1"  name="cursorOpacity"/>
             <InterpolatingParam id="2407" interp="linr"  time="0/1" value="0" leadInLength="0/1"  name="cursorScale"/>
            </Parameters>
            <Attributes>
             <Attribute id="2408" value="" name="ident"/>
            </Attributes>
            <MetaData>
             <entry key="AutoAppliedSmartFocus" val="False"/>
             <entry key="WinSubProjectDisplayName" val=""/>
            </MetaData>
            <ExtraData>
             <Entry key="ZoomPanBin">
              <ZoomPanBin id="2409"  >
               <ZoomPanKeyframes>
                <ZoomPanKeyframe id="2410" timeRangeEnd="-9999999/1" timeRangeDuration="0/1" interpolaterName=""  />
               </ZoomPanKeyframes>
              </ZoomPanBin>
             </Entry>
             <Entry key="CursorEffectBin">
              <CursorEffectBin id="2411"  >
               <CursorEffectKeyframes>
               </CursorEffectKeyframes>
              </CursorEffectBin>
             </Entry>
            </ExtraData>
           </ScreenVMFile>
           <ScreenVMFile id="2412" start="2558" duration="418" scalar="1/1" mediaStart="2798/1" mediaDuration="418/1" trackNumber="0" src="4" >
            <Transformer>
             <VectorParam id="2413"  name="translation">
              <InterpolatingParam id="2414" interp="linr"  time="-9999999/1" value="0" leadInLength="0/1"  />
              <InterpolatingParam id="2415" interp="linr"  time="-9999999/1" value="0" leadInLength="0/1"  />
              <InterpolatingParam id="2416" interp="linr"  time="-9999999/1" value="0" leadInLength="0/1"  />
             </VectorParam>
             <VectorParam id="2417"  name="rotation">
              <InterpolatingParam id="2418" interp="linr"  time="-9999999/1" value="0" leadInLength="0/1"  />
              <InterpolatingParam id="2419" interp="linr"  time="-9999999/1" value="0" leadInLength="0/1"  />
              <InterpolatingParam id="2420" interp="linr"  time="-9999999/1" value="0" leadInLength="0/1"  />
             </VectorParam>
             <VectorParam id="2421"  name="shear">
              <InterpolatingParam id="2422" interp="linr"  time="-9999999/1" value="0" leadInLength="0/1"  />
              <InterpolatingParam id="2423" interp="linr"  time="-9999999/1" value="0" leadInLength="0/1"  />
              <InterpolatingParam id="2424" interp="linr"  time="-9999999/1" value="0" leadInLength="0/1"  />
             </VectorParam>
             <VectorParam id="2425"  name="scale">
              <InterpolatingParam id="2426" interp="linr"  time="-9999999/1" value="1" leadInLength="0/1"  />
              <InterpolatingParam id="2427" interp="linr"  time="-9999999/1" value="1" leadInLength="0/1"  />
              <InterpolatingParam id="2428" interp="linr"  time="-9999999/1" value="1" leadInLength="0/1"  />
             </VectorParam>
             <VectorParam id="2429"  name="anchor">
              <InterpolatingParam id="2430" interp="linr"  time="0/1" value="0" leadInLength="0/1"  />
              <InterpolatingParam id="2431" interp="linr"  time="0/1" value="0" leadInLength="0/1"  />
              <InterpolatingParam id="2432" interp="linr"  time="0/1" value="0" leadInLength="0/1"  />
             </VectorParam>
            </Transformer>
            <Parameters>
             <VectorParam id="2433"  name="sourceCrop">
              <InterpolatingParam id="2434" interp="linr"  time="0/1" value="0" leadInLength="0/1"  />
              <InterpolatingParam id="2435" interp="linr"  time="0/1" value="0" leadInLength="0/1"  />
              <InterpolatingParam id="2436" interp="linr"  time="0/1" value="0" leadInLength="0/1"  />
              <InterpolatingParam id="2437" interp="linr"  time="0/1" value="0" leadInLength="0/1"  />
             </VectorParam>
             <VectorParam id="2438"  name="geometryCrop">
              <InterpolatingParam id="2439" interp="linr"  time="-9999999/1" value="0" leadInLength="0/1"  />
              <InterpolatingParam id="2440" interp="linr"  time="-9999999/1" value="0" leadInLength="0/1"  />
              <InterpolatingParam id="2441" interp="linr"  time="-9999999/1" value="0" leadInLength="0/1"  />
              <InterpolatingParam id="2442" interp="linr"  time="-9999999/1" value="0" leadInLength="0/1"  />
             </VectorParam>
             <InterpolatingParam id="2443" interp="linr"  time="-9999999/1" value="1" leadInLength="0/1"  name="opacity"/>
             <InterpolatingParam id="2444" interp="linr"  time="0/1" value="0" leadInLength="0/1"  name="cursorOpacity"/>
             <InterpolatingParam id="2445" interp="linr"  time="0/1" value="0" leadInLength="0/1"  name="cursorScale"/>
            </Parameters>
            <Attributes>
             <Attribute id="2446" value="" name="ident"/>
            </Attributes>
            <MetaData>
             <entry key="AutoAppliedSmartFocus" val="False"/>
             <entry key="WinSubProjectDisplayName" val=""/>
            </MetaData>
            <ExtraData>
             <Entry key="ZoomPanBin">
              <ZoomPanBin id="2447"  >
               <ZoomPanKeyframes>
                <ZoomPanKeyframe id="2448" timeRangeEnd="-9999999/1" timeRangeDuration="0/1" interpolaterName=""  />
               </ZoomPanKeyframes>
              </ZoomPanBin>
             </Entry>
             <Entry key="CursorEffectBin">
              <CursorEffectBin id="2449"  >
               <CursorEffectKeyframes>
               </CursorEffectKeyframes>
              </CursorEffectBin>
             </Entry>
            </ExtraData>
           </ScreenVMFile>
           <ScreenVMFile id="2450" start="2976" duration="247" scalar="1/1" mediaStart="3250/1" mediaDuration="247/1" trackNumber="0" src="4" >
            <Transformer>
             <VectorParam id="2451"  name="translation">
              <InterpolatingParam id="2452" interp="linr"  time="-9999999/1" value="0" leadInLength="0/1"  />
              <InterpolatingParam id="2453" interp="linr"  time="-9999999/1" value="0" leadInLength="0/1"  />
              <InterpolatingParam id="2454" interp="linr"  time="-9999999/1" value="0" leadInLength="0/1"  />
             </VectorParam>
             <VectorParam id="2455"  name="rotation">
              <InterpolatingParam id="2456" interp="linr"  time="-9999999/1" value="0" leadInLength="0/1"  />
              <InterpolatingParam id="2457" interp="linr"  time="-9999999/1" value="0" leadInLength="0/1"  />
              <InterpolatingParam id="2458" interp="linr"  time="-9999999/1" value="0" leadInLength="0/1"  />
             </VectorParam>
             <VectorParam id="2459"  name="shear">
              <InterpolatingParam id="2460" interp="linr"  time="-9999999/1" value="0" leadInLength="0/1"  />
              <InterpolatingParam id="2461" interp="linr"  time="-9999999/1" value="0" leadInLength="0/1"  />
              <InterpolatingParam id="2462" interp="linr"  time="-9999999/1" value="0" leadInLength="0/1"  />
             </VectorParam>
             <VectorParam id="2463"  name="scale">
              <InterpolatingParam id="2464" interp="linr"  time="-9999999/1" value="1" leadInLength="0/1"  />
              <InterpolatingParam id="2465" interp="linr"  time="-9999999/1" value="1" leadInLength="0/1"  />
              <InterpolatingParam id="2466" interp="linr"  time="-9999999/1" value="1" leadInLength="0/1"  />
             </VectorParam>
             <VectorParam id="2467"  name="anchor">
              <InterpolatingParam id="2468" interp="linr"  time="0/1" value="0" leadInLength="0/1"  />
              <InterpolatingParam id="2469" interp="linr"  time="0/1" value="0" leadInLength="0/1"  />
              <InterpolatingParam id="2470" interp="linr"  time="0/1" value="0" leadInLength="0/1"  />
             </VectorParam>
            </Transformer>
            <Parameters>
             <VectorParam id="2471"  name="sourceCrop">
              <InterpolatingParam id="2472" interp="linr"  time="0/1" value="0" leadInLength="0/1"  />
              <InterpolatingParam id="2473" interp="linr"  time="0/1" value="0" leadInLength="0/1"  />
              <InterpolatingParam id="2474" interp="linr"  time="0/1" value="0" leadInLength="0/1"  />
              <InterpolatingParam id="2475" interp="linr"  time="0/1" value="0" leadInLength="0/1"  />
             </VectorParam>
             <VectorParam id="2476"  name="geometryCrop">
              <InterpolatingParam id="2477" interp="linr"  time="-9999999/1" value="0" leadInLength="0/1"  />
              <InterpolatingParam id="2478" interp="linr"  time="-9999999/1" value="0" leadInLength="0/1"  />
              <InterpolatingParam id="2479" interp="linr"  time="-9999999/1" value="0" leadInLength="0/1"  />
              <InterpolatingParam id="2480" interp="linr"  time="-9999999/1" value="0" leadInLength="0/1"  />
             </VectorParam>
             <InterpolatingParam id="2481" interp="linr"  time="-9999999/1" value="1" leadInLength="0/1"  name="opacity"/>
             <InterpolatingParam id="2482" interp="linr"  time="0/1" value="0" leadInLength="0/1"  name="cursorOpacity"/>
             <InterpolatingParam id="2483" interp="linr"  time="0/1" value="0" leadInLength="0/1"  name="cursorScale"/>
            </Parameters>
            <Attributes>
             <Attribute id="2484" value="" name="ident"/>
            </Attributes>
            <MetaData>
             <entry key="AutoAppliedSmartFocus" val="False"/>
             <entry key="WinSubProjectDisplayName" val=""/>
            </MetaData>
            <ExtraData>
             <Entry key="ZoomPanBin">
              <ZoomPanBin id="2485"  >
               <ZoomPanKeyframes>
                <ZoomPanKeyframe id="2486" timeRangeEnd="-9999999/1" timeRangeDuration="0/1" interpolaterName=""  />
               </ZoomPanKeyframes>
              </ZoomPanBin>
             </Entry>
             <Entry key="CursorEffectBin">
              <CursorEffectBin id="2487"  >
               <CursorEffectKeyframes>
               </CursorEffectKeyframes>
              </CursorEffectBin>
             </Entry>
            </ExtraData>
           </ScreenVMFile>
           <ScreenVMFile id="2488" start="3223" duration="63" scalar="1/1" mediaStart="3630/1" mediaDuration="63/1" trackNumber="0" src="4" >
            <Transformer>
             <VectorParam id="2489"  name="translation">
              <InterpolatingParam id="2490" interp="linr"  time="-9999999/1" value="0" leadInLength="0/1"  />
              <InterpolatingParam id="2491" interp="linr"  time="-9999999/1" value="0" leadInLength="0/1"  />
              <InterpolatingParam id="2492" interp="linr"  time="-9999999/1" value="0" leadInLength="0/1"  />
             </VectorParam>
             <VectorParam id="2493"  name="rotation">
              <InterpolatingParam id="2494" interp="linr"  time="-9999999/1" value="0" leadInLength="0/1"  />
              <InterpolatingParam id="2495" interp="linr"  time="-9999999/1" value="0" leadInLength="0/1"  />
              <InterpolatingParam id="2496" interp="linr"  time="-9999999/1" value="0" leadInLength="0/1"  />
             </VectorParam>
             <VectorParam id="2497"  name="shear">
              <InterpolatingParam id="2498" interp="linr"  time="-9999999/1" value="0" leadInLength="0/1"  />
              <InterpolatingParam id="2499" interp="linr"  time="-9999999/1" value="0" leadInLength="0/1"  />
              <InterpolatingParam id="2500" interp="linr"  time="-9999999/1" value="0" leadInLength="0/1"  />
             </VectorParam>
             <VectorParam id="2501"  name="scale">
              <InterpolatingParam id="2502" interp="linr"  time="-9999999/1" value="1" leadInLength="0/1"  />
              <InterpolatingParam id="2503" interp="linr"  time="-9999999/1" value="1" leadInLength="0/1"  />
              <InterpolatingParam id="2504" interp="linr"  time="-9999999/1" value="1" leadInLength="0/1"  />
             </VectorParam>
             <VectorParam id="2505"  name="anchor">
              <InterpolatingParam id="2506" interp="linr"  time="0/1" value="0" leadInLength="0/1"  />
              <InterpolatingParam id="2507" interp="linr"  time="0/1" value="0" leadInLength="0/1"  />
              <InterpolatingParam id="2508" interp="linr"  time="0/1" value="0" leadInLength="0/1"  />
             </VectorParam>
            </Transformer>
            <Parameters>
             <VectorParam id="2509"  name="sourceCrop">
              <InterpolatingParam id="2510" interp="linr"  time="0/1" value="0" leadInLength="0/1"  />
              <InterpolatingParam id="2511" interp="linr"  time="0/1" value="0" leadInLength="0/1"  />
              <InterpolatingParam id="2512" interp="linr"  time="0/1" value="0" leadInLength="0/1"  />
              <InterpolatingParam id="2513" interp="linr"  time="0/1" value="0" leadInLength="0/1"  />
             </VectorParam>
             <VectorParam id="2514"  name="geometryCrop">
              <InterpolatingParam id="2515" interp="linr"  time="-9999999/1" value="0" leadInLength="0/1"  />
              <InterpolatingParam id="2516" interp="linr"  time="-9999999/1" value="0" leadInLength="0/1"  />
              <InterpolatingParam id="2517" interp="linr"  time="-9999999/1" value="0" leadInLength="0/1"  />
              <InterpolatingParam id="2518" interp="linr"  time="-9999999/1" value="0" leadInLength="0/1"  />
             </VectorParam>
             <InterpolatingParam id="2519" interp="linr"  time="-9999999/1" value="1" leadInLength="0/1"  name="opacity"/>
             <InterpolatingParam id="2520" interp="linr"  time="0/1" value="0" leadInLength="0/1"  name="cursorOpacity"/>
             <InterpolatingParam id="2521" interp="linr"  time="0/1" value="0" leadInLength="0/1"  name="cursorScale"/>
            </Parameters>
            <Attributes>
             <Attribute id="2522" value="" name="ident"/>
            </Attributes>
            <MetaData>
             <entry key="AutoAppliedSmartFocus" val="False"/>
             <entry key="WinSubProjectDisplayName" val=""/>
            </MetaData>
            <ExtraData>
             <Entry key="ZoomPanBin">
              <ZoomPanBin id="2523"  >
               <ZoomPanKeyframes>
                <ZoomPanKeyframe id="2524" timeRangeEnd="-9999999/1" timeRangeDuration="0/1" interpolaterName=""  />
               </ZoomPanKeyframes>
              </ZoomPanBin>
             </Entry>
             <Entry key="CursorEffectBin">
              <CursorEffectBin id="2525"  >
               <CursorEffectKeyframes>
               </CursorEffectKeyframes>
              </CursorEffectBin>
             </Entry>
            </ExtraData>
           </ScreenVMFile>
           <ScreenVMFile id="2526" start="3286" duration="1" scalar="1/1" mediaStart="3778/1" mediaDuration="1/1" trackNumber="0" src="4" >
            <Transformer>
             <VectorParam id="2527"  name="translation">
              <InterpolatingParam id="2528" interp="linr"  time="-9999999/1" value="0" leadInLength="0/1"  />
              <InterpolatingParam id="2529" interp="linr"  time="-9999999/1" value="0" leadInLength="0/1"  />
              <InterpolatingParam id="2530" interp="linr"  time="-9999999/1" value="0" leadInLength="0/1"  />
             </VectorParam>
             <VectorParam id="2531"  name="rotation">
              <InterpolatingParam id="2532" interp="linr"  time="-9999999/1" value="0" leadInLength="0/1"  />
              <InterpolatingParam id="2533" interp="linr"  time="-9999999/1" value="0" leadInLength="0/1"  />
              <InterpolatingParam id="2534" interp="linr"  time="-9999999/1" value="0" leadInLength="0/1"  />
             </VectorParam>
             <VectorParam id="2535"  name="shear">
              <InterpolatingParam id="2536" interp="linr"  time="-9999999/1" value="0" leadInLength="0/1"  />
              <InterpolatingParam id="2537" interp="linr"  time="-9999999/1" value="0" leadInLength="0/1"  />
              <InterpolatingParam id="2538" interp="linr"  time="-9999999/1" value="0" leadInLength="0/1"  />
             </VectorParam>
             <VectorParam id="2539"  name="scale">
              <InterpolatingParam id="2540" interp="linr"  time="-9999999/1" value="1" leadInLength="0/1"  />
              <InterpolatingParam id="2541" interp="linr"  time="-9999999/1" value="1" leadInLength="0/1"  />
              <InterpolatingParam id="2542" interp="linr"  time="-9999999/1" value="1" leadInLength="0/1"  />
             </VectorParam>
             <VectorParam id="2543"  name="anchor">
              <InterpolatingParam id="2544" interp="linr"  time="0/1" value="0" leadInLength="0/1"  />
              <InterpolatingParam id="2545" interp="linr"  time="0/1" value="0" leadInLength="0/1"  />
              <InterpolatingParam id="2546" interp="linr"  time="0/1" value="0" leadInLength="0/1"  />
             </VectorParam>
            </Transformer>
            <Parameters>
             <VectorParam id="2547"  name="sourceCrop">
              <InterpolatingParam id="2548" interp="linr"  time="0/1" value="0" leadInLength="0/1"  />
              <InterpolatingParam id="2549" interp="linr"  time="0/1" value="0" leadInLength="0/1"  />
              <InterpolatingParam id="2550" interp="linr"  time="0/1" value="0" leadInLength="0/1"  />
              <InterpolatingParam id="2551" interp="linr"  time="0/1" value="0" leadInLength="0/1"  />
             </VectorParam>
             <VectorParam id="2552"  name="geometryCrop">
              <InterpolatingParam id="2553" interp="linr"  time="-9999999/1" value="0" leadInLength="0/1"  />
              <InterpolatingParam id="2554" interp="linr"  time="-9999999/1" value="0" leadInLength="0/1"  />
              <InterpolatingParam id="2555" interp="linr"  time="-9999999/1" value="0" leadInLength="0/1"  />
              <InterpolatingParam id="2556" interp="linr"  time="-9999999/1" value="0" leadInLength="0/1"  />
             </VectorParam>
             <InterpolatingParam id="2557" interp="linr"  time="-9999999/1" value="1" leadInLength="0/1"  name="opacity"/>
             <InterpolatingParam id="2558" interp="linr"  time="0/1" value="0" leadInLength="0/1"  name="cursorOpacity"/>
             <InterpolatingParam id="2559" interp="linr"  time="0/1" value="0" leadInLength="0/1"  name="cursorScale"/>
            </Parameters>
            <Attributes>
             <Attribute id="2560" value="" name="ident"/>
            </Attributes>
            <MetaData>
             <entry key="AutoAppliedSmartFocus" val="False"/>
             <entry key="WinSubProjectDisplayName" val=""/>
            </MetaData>
            <ExtraData>
             <Entry key="ZoomPanBin">
              <ZoomPanBin id="2561"  >
               <ZoomPanKeyframes>
                <ZoomPanKeyframe id="2562" timeRangeEnd="-9999999/1" timeRangeDuration="0/1" interpolaterName=""  />
               </ZoomPanKeyframes>
              </ZoomPanBin>
             </Entry>
             <Entry key="CursorEffectBin">
              <CursorEffectBin id="2563"  >
               <CursorEffectKeyframes>
               </CursorEffectKeyframes>
              </CursorEffectBin>
             </Entry>
            </ExtraData>
           </ScreenVMFile>
           <ScreenVMFile id="2564" start="3287" duration="6" scalar="1/1" mediaStart="3788/1" mediaDuration="6/1" trackNumber="0" src="4" >
            <Transformer>
             <VectorParam id="2565"  name="translation">
              <InterpolatingParam id="2566" interp="linr"  time="-9999999/1" value="0" leadInLength="0/1"  />
              <InterpolatingParam id="2567" interp="linr"  time="-9999999/1" value="0" leadInLength="0/1"  />
              <InterpolatingParam id="2568" interp="linr"  time="-9999999/1" value="0" leadInLength="0/1"  />
             </VectorParam>
             <VectorParam id="2569"  name="rotation">
              <InterpolatingParam id="2570" interp="linr"  time="-9999999/1" value="0" leadInLength="0/1"  />
              <InterpolatingParam id="2571" interp="linr"  time="-9999999/1" value="0" leadInLength="0/1"  />
              <InterpolatingParam id="2572" interp="linr"  time="-9999999/1" value="0" leadInLength="0/1"  />
             </VectorParam>
             <VectorParam id="2573"  name="shear">
              <InterpolatingParam id="2574" interp="linr"  time="-9999999/1" value="0" leadInLength="0/1"  />
              <InterpolatingParam id="2575" interp="linr"  time="-9999999/1" value="0" leadInLength="0/1"  />
              <InterpolatingParam id="2576" interp="linr"  time="-9999999/1" value="0" leadInLength="0/1"  />
             </VectorParam>
             <VectorParam id="2577"  name="scale">
              <InterpolatingParam id="2578" interp="linr"  time="-9999999/1" value="1" leadInLength="0/1"  />
              <InterpolatingParam id="2579" interp="linr"  time="-9999999/1" value="1" leadInLength="0/1"  />
              <InterpolatingParam id="2580" interp="linr"  time="-9999999/1" value="1" leadInLength="0/1"  />
             </VectorParam>
             <VectorParam id="2581"  name="anchor">
              <InterpolatingParam id="2582" interp="linr"  time="0/1" value="0" leadInLength="0/1"  />
              <InterpolatingParam id="2583" interp="linr"  time="0/1" value="0" leadInLength="0/1"  />
              <InterpolatingParam id="2584" interp="linr"  time="0/1" value="0" leadInLength="0/1"  />
             </VectorParam>
            </Transformer>
            <Parameters>
             <VectorParam id="2585"  name="sourceCrop">
              <InterpolatingParam id="2586" interp="linr"  time="0/1" value="0" leadInLength="0/1"  />
              <InterpolatingParam id="2587" interp="linr"  time="0/1" value="0" leadInLength="0/1"  />
              <InterpolatingParam id="2588" interp="linr"  time="0/1" value="0" leadInLength="0/1"  />
              <InterpolatingParam id="2589" interp="linr"  time="0/1" value="0" leadInLength="0/1"  />
             </VectorParam>
             <VectorParam id="2590"  name="geometryCrop">
              <InterpolatingParam id="2591" interp="linr"  time="-9999999/1" value="0" leadInLength="0/1"  />
              <InterpolatingParam id="2592" interp="linr"  time="-9999999/1" value="0" leadInLength="0/1"  />
              <InterpolatingParam id="2593" interp="linr"  time="-9999999/1" value="0" leadInLength="0/1"  />
              <InterpolatingParam id="2594" interp="linr"  time="-9999999/1" value="0" leadInLength="0/1"  />
             </VectorParam>
             <InterpolatingParam id="2595" interp="linr"  time="-9999999/1" value="1" leadInLength="0/1"  name="opacity"/>
             <InterpolatingParam id="2596" interp="linr"  time="0/1" value="0" leadInLength="0/1"  name="cursorOpacity"/>
             <InterpolatingParam id="2597" interp="linr"  time="0/1" value="0" leadInLength="0/1"  name="cursorScale"/>
            </Parameters>
            <Attributes>
             <Attribute id="2598" value="" name="ident"/>
            </Attributes>
            <MetaData>
             <entry key="AutoAppliedSmartFocus" val="False"/>
             <entry key="WinSubProjectDisplayName" val=""/>
            </MetaData>
            <ExtraData>
             <Entry key="ZoomPanBin">
              <ZoomPanBin id="2599"  >
               <ZoomPanKeyframes>
                <ZoomPanKeyframe id="2600" timeRangeEnd="-9999999/1" timeRangeDuration="0/1" interpolaterName=""  />
               </ZoomPanKeyframes>
              </ZoomPanBin>
             </Entry>
             <Entry key="CursorEffectBin">
              <CursorEffectBin id="2601"  >
               <CursorEffectKeyframes>
               </CursorEffectKeyframes>
              </CursorEffectBin>
             </Entry>
            </ExtraData>
           </ScreenVMFile>
           <ScreenVMFile id="2602" start="3293" duration="211" scalar="1/1" mediaStart="3861/1" mediaDuration="211/1" trackNumber="0" src="4" >
            <Transformer>
             <VectorParam id="2603"  name="translation">
              <InterpolatingParam id="2604" interp="linr"  time="-9999999/1" value="0" leadInLength="0/1"  />
              <InterpolatingParam id="2605" interp="linr"  time="-9999999/1" value="0" leadInLength="0/1"  />
              <InterpolatingParam id="2606" interp="linr"  time="-9999999/1" value="0" leadInLength="0/1"  />
             </VectorParam>
             <VectorParam id="2607"  name="rotation">
              <InterpolatingParam id="2608" interp="linr"  time="-9999999/1" value="0" leadInLength="0/1"  />
              <InterpolatingParam id="2609" interp="linr"  time="-9999999/1" value="0" leadInLength="0/1"  />
              <InterpolatingParam id="2610" interp="linr"  time="-9999999/1" value="0" leadInLength="0/1"  />
             </VectorParam>
             <VectorParam id="2611"  name="shear">
              <InterpolatingParam id="2612" interp="linr"  time="-9999999/1" value="0" leadInLength="0/1"  />
              <InterpolatingParam id="2613" interp="linr"  time="-9999999/1" value="0" leadInLength="0/1"  />
              <InterpolatingParam id="2614" interp="linr"  time="-9999999/1" value="0" leadInLength="0/1"  />
             </VectorParam>
             <VectorParam id="2615"  name="scale">
              <InterpolatingParam id="2616" interp="linr"  time="-9999999/1" value="1" leadInLength="0/1"  />
              <InterpolatingParam id="2617" interp="linr"  time="-9999999/1" value="1" leadInLength="0/1"  />
              <InterpolatingParam id="2618" interp="linr"  time="-9999999/1" value="1" leadInLength="0/1"  />
             </VectorParam>
             <VectorParam id="2619"  name="anchor">
              <InterpolatingParam id="2620" interp="linr"  time="0/1" value="0" leadInLength="0/1"  />
              <InterpolatingParam id="2621" interp="linr"  time="0/1" value="0" leadInLength="0/1"  />
              <InterpolatingParam id="2622" interp="linr"  time="0/1" value="0" leadInLength="0/1"  />
             </VectorParam>
            </Transformer>
            <Parameters>
             <VectorParam id="2623"  name="sourceCrop">
              <InterpolatingParam id="2624" interp="linr"  time="0/1" value="0" leadInLength="0/1"  />
              <InterpolatingParam id="2625" interp="linr"  time="0/1" value="0" leadInLength="0/1"  />
              <InterpolatingParam id="2626" interp="linr"  time="0/1" value="0" leadInLength="0/1"  />
              <InterpolatingParam id="2627" interp="linr"  time="0/1" value="0" leadInLength="0/1"  />
             </VectorParam>
             <VectorParam id="2628"  name="geometryCrop">
              <InterpolatingParam id="2629" interp="linr"  time="-9999999/1" value="0" leadInLength="0/1"  />
              <InterpolatingParam id="2630" interp="linr"  time="-9999999/1" value="0" leadInLength="0/1"  />
              <InterpolatingParam id="2631" interp="linr"  time="-9999999/1" value="0" leadInLength="0/1"  />
              <InterpolatingParam id="2632" interp="linr"  time="-9999999/1" value="0" leadInLength="0/1"  />
             </VectorParam>
             <InterpolatingParam id="2633" interp="linr"  time="-9999999/1" value="1" leadInLength="0/1"  name="opacity"/>
             <InterpolatingParam id="2634" interp="linr"  time="0/1" value="0" leadInLength="0/1"  name="cursorOpacity"/>
             <InterpolatingParam id="2635" interp="linr"  time="0/1" value="0" leadInLength="0/1"  name="cursorScale"/>
            </Parameters>
            <Attributes>
             <Attribute id="2636" value="" name="ident"/>
            </Attributes>
            <MetaData>
             <entry key="AutoAppliedSmartFocus" val="False"/>
             <entry key="WinSubProjectDisplayName" val=""/>
            </MetaData>
            <ExtraData>
             <Entry key="ZoomPanBin">
              <ZoomPanBin id="2637"  >
               <ZoomPanKeyframes>
                <ZoomPanKeyframe id="2638" timeRangeEnd="-9999999/1" timeRangeDuration="0/1" interpolaterName=""  />
               </ZoomPanKeyframes>
              </ZoomPanBin>
             </Entry>
             <Entry key="CursorEffectBin">
              <CursorEffectBin id="2639"  >
               <CursorEffectKeyframes>
               </CursorEffectKeyframes>
              </CursorEffectBin>
             </Entry>
            </ExtraData>
           </ScreenVMFile>
           <ScreenVMFile id="2640" start="3504" duration="1479" scalar="1/1" mediaStart="4102/1" mediaDuration="1479/1" trackNumber="0" src="4" >
            <Transformer>
             <VectorParam id="2641"  name="translation">
              <InterpolatingParam id="2642" interp="linr"  time="-9999999/1" value="0" leadInLength="0/1"  />
              <InterpolatingParam id="2643" interp="linr"  time="-9999999/1" value="0" leadInLength="0/1"  />
              <InterpolatingParam id="2644" interp="linr"  time="-9999999/1" value="0" leadInLength="0/1"  />
             </VectorParam>
             <VectorParam id="2645"  name="rotation">
              <InterpolatingParam id="2646" interp="linr"  time="-9999999/1" value="0" leadInLength="0/1"  />
              <InterpolatingParam id="2647" interp="linr"  time="-9999999/1" value="0" leadInLength="0/1"  />
              <InterpolatingParam id="2648" interp="linr"  time="-9999999/1" value="0" leadInLength="0/1"  />
             </VectorParam>
             <VectorParam id="2649"  name="shear">
              <InterpolatingParam id="2650" interp="linr"  time="-9999999/1" value="0" leadInLength="0/1"  />
              <InterpolatingParam id="2651" interp="linr"  time="-9999999/1" value="0" leadInLength="0/1"  />
              <InterpolatingParam id="2652" interp="linr"  time="-9999999/1" value="0" leadInLength="0/1"  />
             </VectorParam>
             <VectorParam id="2653"  name="scale">
              <InterpolatingParam id="2654" interp="linr"  time="-9999999/1" value="1" leadInLength="0/1"  />
              <InterpolatingParam id="2655" interp="linr"  time="-9999999/1" value="1" leadInLength="0/1"  />
              <InterpolatingParam id="2656" interp="linr"  time="-9999999/1" value="1" leadInLength="0/1"  />
             </VectorParam>
             <VectorParam id="2657"  name="anchor">
              <InterpolatingParam id="2658" interp="linr"  time="0/1" value="0" leadInLength="0/1"  />
              <InterpolatingParam id="2659" interp="linr"  time="0/1" value="0" leadInLength="0/1"  />
              <InterpolatingParam id="2660" interp="linr"  time="0/1" value="0" leadInLength="0/1"  />
             </VectorParam>
            </Transformer>
            <Parameters>
             <VectorParam id="2661"  name="sourceCrop">
              <InterpolatingParam id="2662" interp="linr"  time="0/1" value="0" leadInLength="0/1"  />
              <InterpolatingParam id="2663" interp="linr"  time="0/1" value="0" leadInLength="0/1"  />
              <InterpolatingParam id="2664" interp="linr"  time="0/1" value="0" leadInLength="0/1"  />
              <InterpolatingParam id="2665" interp="linr"  time="0/1" value="0" leadInLength="0/1"  />
             </VectorParam>
             <VectorParam id="2666"  name="geometryCrop">
              <InterpolatingParam id="2667" interp="linr"  time="-9999999/1" value="0" leadInLength="0/1"  />
              <InterpolatingParam id="2668" interp="linr"  time="-9999999/1" value="0" leadInLength="0/1"  />
              <InterpolatingParam id="2669" interp="linr"  time="-9999999/1" value="0" leadInLength="0/1"  />
              <InterpolatingParam id="2670" interp="linr"  time="-9999999/1" value="0" leadInLength="0/1"  />
             </VectorParam>
             <InterpolatingParam id="2671" interp="linr"  time="-9999999/1" value="1" leadInLength="0/1"  name="opacity"/>
             <InterpolatingParam id="2672" interp="linr"  time="0/1" value="0" leadInLength="0/1"  name="cursorOpacity"/>
             <InterpolatingParam id="2673" interp="linr"  time="0/1" value="0" leadInLength="0/1"  name="cursorScale"/>
            </Parameters>
            <Attributes>
             <Attribute id="2674" value="" name="ident"/>
            </Attributes>
            <MetaData>
             <entry key="AutoAppliedSmartFocus" val="False"/>
             <entry key="WinSubProjectDisplayName" val=""/>
            </MetaData>
            <ExtraData>
             <Entry key="ZoomPanBin">
              <ZoomPanBin id="2675"  >
               <ZoomPanKeyframes>
                <ZoomPanKeyframe id="2676" timeRangeEnd="-9999999/1" timeRangeDuration="0/1" interpolaterName=""  />
               </ZoomPanKeyframes>
              </ZoomPanBin>
             </Entry>
             <Entry key="CursorEffectBin">
              <CursorEffectBin id="2677"  >
               <CursorEffectKeyframes>
               </CursorEffectKeyframes>
              </CursorEffectBin>
             </Entry>
            </ExtraData>
           </ScreenVMFile>
           <ScreenVMFile id="2678" start="4983" duration="339" scalar="1/1" mediaStart="5614/1" mediaDuration="339/1" trackNumber="0" src="4" >
            <Transformer>
             <VectorParam id="2679"  name="translation">
              <InterpolatingParam id="2680" interp="linr"  time="-9999999/1" value="0" leadInLength="0/1"  />
              <InterpolatingParam id="2681" interp="linr"  time="-9999999/1" value="0" leadInLength="0/1"  />
              <InterpolatingParam id="2682" interp="linr"  time="-9999999/1" value="0" leadInLength="0/1"  />
             </VectorParam>
             <VectorParam id="2683"  name="rotation">
              <InterpolatingParam id="2684" interp="linr"  time="-9999999/1" value="0" leadInLength="0/1"  />
              <InterpolatingParam id="2685" interp="linr"  time="-9999999/1" value="0" leadInLength="0/1"  />
              <InterpolatingParam id="2686" interp="linr"  time="-9999999/1" value="0" leadInLength="0/1"  />
             </VectorParam>
             <VectorParam id="2687"  name="shear">
              <InterpolatingParam id="2688" interp="linr"  time="-9999999/1" value="0" leadInLength="0/1"  />
              <InterpolatingParam id="2689" interp="linr"  time="-9999999/1" value="0" leadInLength="0/1"  />
              <InterpolatingParam id="2690" interp="linr"  time="-9999999/1" value="0" leadInLength="0/1"  />
             </VectorParam>
             <VectorParam id="2691"  name="scale">
              <InterpolatingParam id="2692" interp="linr"  time="-9999999/1" value="1" leadInLength="0/1"  />
              <InterpolatingParam id="2693" interp="linr"  time="-9999999/1" value="1" leadInLength="0/1"  />
              <InterpolatingParam id="2694" interp="linr"  time="-9999999/1" value="1" leadInLength="0/1"  />
             </VectorParam>
             <VectorParam id="2695"  name="anchor">
              <InterpolatingParam id="2696" interp="linr"  time="0/1" value="0" leadInLength="0/1"  />
              <InterpolatingParam id="2697" interp="linr"  time="0/1" value="0" leadInLength="0/1"  />
              <InterpolatingParam id="2698" interp="linr"  time="0/1" value="0" leadInLength="0/1"  />
             </VectorParam>
            </Transformer>
            <Parameters>
             <VectorParam id="2699"  name="sourceCrop">
              <InterpolatingParam id="2700" interp="linr"  time="0/1" value="0" leadInLength="0/1"  />
              <InterpolatingParam id="2701" interp="linr"  time="0/1" value="0" leadInLength="0/1"  />
              <InterpolatingParam id="2702" interp="linr"  time="0/1" value="0" leadInLength="0/1"  />
              <InterpolatingParam id="2703" interp="linr"  time="0/1" value="0" leadInLength="0/1"  />
             </VectorParam>
             <VectorParam id="2704"  name="geometryCrop">
              <InterpolatingParam id="2705" interp="linr"  time="-9999999/1" value="0" leadInLength="0/1"  />
              <InterpolatingParam id="2706" interp="linr"  time="-9999999/1" value="0" leadInLength="0/1"  />
              <InterpolatingParam id="2707" interp="linr"  time="-9999999/1" value="0" leadInLength="0/1"  />
              <InterpolatingParam id="2708" interp="linr"  time="-9999999/1" value="0" leadInLength="0/1"  />
             </VectorParam>
             <InterpolatingParam id="2709" interp="linr"  time="-9999999/1" value="1" leadInLength="0/1"  name="opacity"/>
             <InterpolatingParam id="2710" interp="linr"  time="0/1" value="0" leadInLength="0/1"  name="cursorOpacity"/>
             <InterpolatingParam id="2711" interp="linr"  time="0/1" value="0" leadInLength="0/1"  name="cursorScale"/>
            </Parameters>
            <Attributes>
             <Attribute id="2712" value="" name="ident"/>
            </Attributes>
            <MetaData>
             <entry key="AutoAppliedSmartFocus" val="False"/>
             <entry key="WinSubProjectDisplayName" val=""/>
            </MetaData>
            <ExtraData>
             <Entry key="ZoomPanBin">
              <ZoomPanBin id="2713"  >
               <ZoomPanKeyframes>
                <ZoomPanKeyframe id="2714" timeRangeEnd="-9999999/1" timeRangeDuration="0/1" interpolaterName=""  />
               </ZoomPanKeyframes>
              </ZoomPanBin>
             </Entry>
             <Entry key="CursorEffectBin">
              <CursorEffectBin id="2715"  >
               <CursorEffectKeyframes>
               </CursorEffectKeyframes>
              </CursorEffectBin>
             </Entry>
            </ExtraData>
           </ScreenVMFile>
           <ScreenVMFile id="2716" start="5322" duration="212" scalar="1/1" mediaStart="5977/1" mediaDuration="212/1" trackNumber="0" src="4" >
            <Transformer>
             <VectorParam id="2717"  name="translation">
              <InterpolatingParam id="2718" interp="linr"  time="-9999999/1" value="0" leadInLength="0/1"  />
              <InterpolatingParam id="2719" interp="linr"  time="-9999999/1" value="0" leadInLength="0/1"  />
              <InterpolatingParam id="2720" interp="linr"  time="-9999999/1" value="0" leadInLength="0/1"  />
             </VectorParam>
             <VectorParam id="2721"  name="rotation">
              <InterpolatingParam id="2722" interp="linr"  time="-9999999/1" value="0" leadInLength="0/1"  />
              <InterpolatingParam id="2723" interp="linr"  time="-9999999/1" value="0" leadInLength="0/1"  />
              <InterpolatingParam id="2724" interp="linr"  time="-9999999/1" value="0" leadInLength="0/1"  />
             </VectorParam>
             <VectorParam id="2725"  name="shear">
              <InterpolatingParam id="2726" interp="linr"  time="-9999999/1" value="0" leadInLength="0/1"  />
              <InterpolatingParam id="2727" interp="linr"  time="-9999999/1" value="0" leadInLength="0/1"  />
              <InterpolatingParam id="2728" interp="linr"  time="-9999999/1" value="0" leadInLength="0/1"  />
             </VectorParam>
             <VectorParam id="2729"  name="scale">
              <InterpolatingParam id="2730" interp="linr"  time="-9999999/1" value="1" leadInLength="0/1"  />
              <InterpolatingParam id="2731" interp="linr"  time="-9999999/1" value="1" leadInLength="0/1"  />
              <InterpolatingParam id="2732" interp="linr"  time="-9999999/1" value="1" leadInLength="0/1"  />
             </VectorParam>
             <VectorParam id="2733"  name="anchor">
              <InterpolatingParam id="2734" interp="linr"  time="0/1" value="0" leadInLength="0/1"  />
              <InterpolatingParam id="2735" interp="linr"  time="0/1" value="0" leadInLength="0/1"  />
              <InterpolatingParam id="2736" interp="linr"  time="0/1" value="0" leadInLength="0/1"  />
             </VectorParam>
            </Transformer>
            <Parameters>
             <VectorParam id="2737"  name="sourceCrop">
              <InterpolatingParam id="2738" interp="linr"  time="0/1" value="0" leadInLength="0/1"  />
              <InterpolatingParam id="2739" interp="linr"  time="0/1" value="0" leadInLength="0/1"  />
              <InterpolatingParam id="2740" interp="linr"  time="0/1" value="0" leadInLength="0/1"  />
              <InterpolatingParam id="2741" interp="linr"  time="0/1" value="0" leadInLength="0/1"  />
             </VectorParam>
             <VectorParam id="2742"  name="geometryCrop">
              <InterpolatingParam id="2743" interp="linr"  time="-9999999/1" value="0" leadInLength="0/1"  />
              <InterpolatingParam id="2744" interp="linr"  time="-9999999/1" value="0" leadInLength="0/1"  />
              <InterpolatingParam id="2745" interp="linr"  time="-9999999/1" value="0" leadInLength="0/1"  />
              <InterpolatingParam id="2746" interp="linr"  time="-9999999/1" value="0" leadInLength="0/1"  />
             </VectorParam>
             <InterpolatingParam id="2747" interp="linr"  time="-9999999/1" value="1" leadInLength="0/1"  name="opacity"/>
             <InterpolatingParam id="2748" interp="linr"  time="0/1" value="0" leadInLength="0/1"  name="cursorOpacity"/>
             <InterpolatingParam id="2749" interp="linr"  time="0/1" value="0" leadInLength="0/1"  name="cursorScale"/>
            </Parameters>
            <Attributes>
             <Attribute id="2750" value="" name="ident"/>
            </Attributes>
            <MetaData>
             <entry key="AutoAppliedSmartFocus" val="False"/>
             <entry key="WinSubProjectDisplayName" val=""/>
            </MetaData>
            <ExtraData>
             <Entry key="ZoomPanBin">
              <ZoomPanBin id="2751"  >
               <ZoomPanKeyframes>
                <ZoomPanKeyframe id="2752" timeRangeEnd="-9999999/1" timeRangeDuration="0/1" interpolaterName=""  />
               </ZoomPanKeyframes>
              </ZoomPanBin>
             </Entry>
             <Entry key="CursorEffectBin">
              <CursorEffectBin id="2753"  >
               <CursorEffectKeyframes>
               </CursorEffectKeyframes>
              </CursorEffectBin>
             </Entry>
            </ExtraData>
           </ScreenVMFile>
           <ScreenVMFile id="2754" start="5534" duration="62" scalar="1/1" mediaStart="6205/1" mediaDuration="62/1" trackNumber="0" src="4" >
            <Transformer>
             <VectorParam id="2755"  name="translation">
              <InterpolatingParam id="2756" interp="linr"  time="-9999999/1" value="0" leadInLength="0/1"  />
              <InterpolatingParam id="2757" interp="linr"  time="-9999999/1" value="0" leadInLength="0/1"  />
              <InterpolatingParam id="2758" interp="linr"  time="-9999999/1" value="0" leadInLength="0/1"  />
             </VectorParam>
             <VectorParam id="2759"  name="rotation">
              <InterpolatingParam id="2760" interp="linr"  time="-9999999/1" value="0" leadInLength="0/1"  />
              <InterpolatingParam id="2761" interp="linr"  time="-9999999/1" value="0" leadInLength="0/1"  />
              <InterpolatingParam id="2762" interp="linr"  time="-9999999/1" value="0" leadInLength="0/1"  />
             </VectorParam>
             <VectorParam id="2763"  name="shear">
              <InterpolatingParam id="2764" interp="linr"  time="-9999999/1" value="0" leadInLength="0/1"  />
              <InterpolatingParam id="2765" interp="linr"  time="-9999999/1" value="0" leadInLength="0/1"  />
              <InterpolatingParam id="2766" interp="linr"  time="-9999999/1" value="0" leadInLength="0/1"  />
             </VectorParam>
             <VectorParam id="2767"  name="scale">
              <InterpolatingParam id="2768" interp="linr"  time="-9999999/1" value="1" leadInLength="0/1"  />
              <InterpolatingParam id="2769" interp="linr"  time="-9999999/1" value="1" leadInLength="0/1"  />
              <InterpolatingParam id="2770" interp="linr"  time="-9999999/1" value="1" leadInLength="0/1"  />
             </VectorParam>
             <VectorParam id="2771"  name="anchor">
              <InterpolatingParam id="2772" interp="linr"  time="0/1" value="0" leadInLength="0/1"  />
              <InterpolatingParam id="2773" interp="linr"  time="0/1" value="0" leadInLength="0/1"  />
              <InterpolatingParam id="2774" interp="linr"  time="0/1" value="0" leadInLength="0/1"  />
             </VectorParam>
            </Transformer>
            <Parameters>
             <VectorParam id="2775"  name="sourceCrop">
              <InterpolatingParam id="2776" interp="linr"  time="0/1" value="0" leadInLength="0/1"  />
              <InterpolatingParam id="2777" interp="linr"  time="0/1" value="0" leadInLength="0/1"  />
              <InterpolatingParam id="2778" interp="linr"  time="0/1" value="0" leadInLength="0/1"  />
              <InterpolatingParam id="2779" interp="linr"  time="0/1" value="0" leadInLength="0/1"  />
             </VectorParam>
             <VectorParam id="2780"  name="geometryCrop">
              <InterpolatingParam id="2781" interp="linr"  time="-9999999/1" value="0" leadInLength="0/1"  />
              <InterpolatingParam id="2782" interp="linr"  time="-9999999/1" value="0" leadInLength="0/1"  />
              <InterpolatingParam id="2783" interp="linr"  time="-9999999/1" value="0" leadInLength="0/1"  />
              <InterpolatingParam id="2784" interp="linr"  time="-9999999/1" value="0" leadInLength="0/1"  />
             </VectorParam>
             <InterpolatingParam id="2785" interp="linr"  time="-9999999/1" value="1" leadInLength="0/1"  name="opacity"/>
             <InterpolatingParam id="2786" interp="linr"  time="0/1" value="0" leadInLength="0/1"  name="cursorOpacity"/>
             <InterpolatingParam id="2787" interp="linr"  time="0/1" value="0" leadInLength="0/1"  name="cursorScale"/>
            </Parameters>
            <Attributes>
             <Attribute id="2788" value="" name="ident"/>
            </Attributes>
            <MetaData>
             <entry key="AutoAppliedSmartFocus" val="False"/>
             <entry key="WinSubProjectDisplayName" val=""/>
            </MetaData>
            <ExtraData>
             <Entry key="ZoomPanBin">
              <ZoomPanBin id="2789"  >
               <ZoomPanKeyframes>
                <ZoomPanKeyframe id="2790" timeRangeEnd="-9999999/1" timeRangeDuration="0/1" interpolaterName=""  />
               </ZoomPanKeyframes>
              </ZoomPanBin>
             </Entry>
             <Entry key="CursorEffectBin">
              <CursorEffectBin id="2791"  >
               <CursorEffectKeyframes>
               </CursorEffectKeyframes>
              </CursorEffectBin>
             </Entry>
            </ExtraData>
           </ScreenVMFile>
           <ScreenVMFile id="2792" start="5596" duration="115" scalar="1/1" mediaStart="6294/1" mediaDuration="115/1" trackNumber="0" src="4" >
            <Transformer>
             <VectorParam id="2793"  name="translation">
              <InterpolatingParam id="2794" interp="linr"  time="-9999999/1" value="0" leadInLength="0/1"  />
              <InterpolatingParam id="2795" interp="linr"  time="-9999999/1" value="0" leadInLength="0/1"  />
              <InterpolatingParam id="2796" interp="linr"  time="-9999999/1" value="0" leadInLength="0/1"  />
             </VectorParam>
             <VectorParam id="2797"  name="rotation">
              <InterpolatingParam id="2798" interp="linr"  time="-9999999/1" value="0" leadInLength="0/1"  />
              <InterpolatingParam id="2799" interp="linr"  time="-9999999/1" value="0" leadInLength="0/1"  />
              <InterpolatingParam id="2800" interp="linr"  time="-9999999/1" value="0" leadInLength="0/1"  />
             </VectorParam>
             <VectorParam id="2801"  name="shear">
              <InterpolatingParam id="2802" interp="linr"  time="-9999999/1" value="0" leadInLength="0/1"  />
              <InterpolatingParam id="2803" interp="linr"  time="-9999999/1" value="0" leadInLength="0/1"  />
              <InterpolatingParam id="2804" interp="linr"  time="-9999999/1" value="0" leadInLength="0/1"  />
             </VectorParam>
             <VectorParam id="2805"  name="scale">
              <InterpolatingParam id="2806" interp="linr"  time="-9999999/1" value="1" leadInLength="0/1"  />
              <InterpolatingParam id="2807" interp="linr"  time="-9999999/1" value="1" leadInLength="0/1"  />
              <InterpolatingParam id="2808" interp="linr"  time="-9999999/1" value="1" leadInLength="0/1"  />
             </VectorParam>
             <VectorParam id="2809"  name="anchor">
              <InterpolatingParam id="2810" interp="linr"  time="0/1" value="0" leadInLength="0/1"  />
              <InterpolatingParam id="2811" interp="linr"  time="0/1" value="0" leadInLength="0/1"  />
              <InterpolatingParam id="2812" interp="linr"  time="0/1" value="0" leadInLength="0/1"  />
             </VectorParam>
            </Transformer>
            <Parameters>
             <VectorParam id="2813"  name="sourceCrop">
              <InterpolatingParam id="2814" interp="linr"  time="0/1" value="0" leadInLength="0/1"  />
              <InterpolatingParam id="2815" interp="linr"  time="0/1" value="0" leadInLength="0/1"  />
              <InterpolatingParam id="2816" interp="linr"  time="0/1" value="0" leadInLength="0/1"  />
              <InterpolatingParam id="2817" interp="linr"  time="0/1" value="0" leadInLength="0/1"  />
             </VectorParam>
             <VectorParam id="2818"  name="geometryCrop">
              <InterpolatingParam id="2819" interp="linr"  time="-9999999/1" value="0" leadInLength="0/1"  />
              <InterpolatingParam id="2820" interp="linr"  time="-9999999/1" value="0" leadInLength="0/1"  />
              <InterpolatingParam id="2821" interp="linr"  time="-9999999/1" value="0" leadInLength="0/1"  />
              <InterpolatingParam id="2822" interp="linr"  time="-9999999/1" value="0" leadInLength="0/1"  />
             </VectorParam>
             <InterpolatingParam id="2823" interp="linr"  time="-9999999/1" value="1" leadInLength="0/1"  name="opacity"/>
             <InterpolatingParam id="2824" interp="linr"  time="0/1" value="0" leadInLength="0/1"  name="cursorOpacity"/>
             <InterpolatingParam id="2825" interp="linr"  time="0/1" value="0" leadInLength="0/1"  name="cursorScale"/>
            </Parameters>
            <Attributes>
             <Attribute id="2826" value="" name="ident"/>
            </Attributes>
            <MetaData>
             <entry key="AutoAppliedSmartFocus" val="False"/>
             <entry key="WinSubProjectDisplayName" val=""/>
            </MetaData>
            <ExtraData>
             <Entry key="ZoomPanBin">
              <ZoomPanBin id="2827"  >
               <ZoomPanKeyframes>
                <ZoomPanKeyframe id="2828" timeRangeEnd="-9999999/1" timeRangeDuration="0/1" interpolaterName=""  />
               </ZoomPanKeyframes>
              </ZoomPanBin>
             </Entry>
             <Entry key="CursorEffectBin">
              <CursorEffectBin id="2829"  >
               <CursorEffectKeyframes>
               </CursorEffectKeyframes>
              </CursorEffectBin>
             </Entry>
            </ExtraData>
           </ScreenVMFile>
           <ScreenVMFile id="2830" start="5711" duration="6" scalar="1/1" mediaStart="6439/1" mediaDuration="6/1" trackNumber="0" src="4" >
            <Transformer>
             <VectorParam id="2831"  name="translation">
              <InterpolatingParam id="2832" interp="linr"  time="-9999999/1" value="0" leadInLength="0/1"  />
              <InterpolatingParam id="2833" interp="linr"  time="-9999999/1" value="0" leadInLength="0/1"  />
              <InterpolatingParam id="2834" interp="linr"  time="-9999999/1" value="0" leadInLength="0/1"  />
             </VectorParam>
             <VectorParam id="2835"  name="rotation">
              <InterpolatingParam id="2836" interp="linr"  time="-9999999/1" value="0" leadInLength="0/1"  />
              <InterpolatingParam id="2837" interp="linr"  time="-9999999/1" value="0" leadInLength="0/1"  />
              <InterpolatingParam id="2838" interp="linr"  time="-9999999/1" value="0" leadInLength="0/1"  />
             </VectorParam>
             <VectorParam id="2839"  name="shear">
              <InterpolatingParam id="2840" interp="linr"  time="-9999999/1" value="0" leadInLength="0/1"  />
              <InterpolatingParam id="2841" interp="linr"  time="-9999999/1" value="0" leadInLength="0/1"  />
              <InterpolatingParam id="2842" interp="linr"  time="-9999999/1" value="0" leadInLength="0/1"  />
             </VectorParam>
             <VectorParam id="2843"  name="scale">
              <InterpolatingParam id="2844" interp="linr"  time="-9999999/1" value="1" leadInLength="0/1"  />
              <InterpolatingParam id="2845" interp="linr"  time="-9999999/1" value="1" leadInLength="0/1"  />
              <InterpolatingParam id="2846" interp="linr"  time="-9999999/1" value="1" leadInLength="0/1"  />
             </VectorParam>
             <VectorParam id="2847"  name="anchor">
              <InterpolatingParam id="2848" interp="linr"  time="0/1" value="0" leadInLength="0/1"  />
              <InterpolatingParam id="2849" interp="linr"  time="0/1" value="0" leadInLength="0/1"  />
              <InterpolatingParam id="2850" interp="linr"  time="0/1" value="0" leadInLength="0/1"  />
             </VectorParam>
            </Transformer>
            <Parameters>
             <VectorParam id="2851"  name="sourceCrop">
              <InterpolatingParam id="2852" interp="linr"  time="0/1" value="0" leadInLength="0/1"  />
              <InterpolatingParam id="2853" interp="linr"  time="0/1" value="0" leadInLength="0/1"  />
              <InterpolatingParam id="2854" interp="linr"  time="0/1" value="0" leadInLength="0/1"  />
              <InterpolatingParam id="2855" interp="linr"  time="0/1" value="0" leadInLength="0/1"  />
             </VectorParam>
             <VectorParam id="2856"  name="geometryCrop">
              <InterpolatingParam id="2857" interp="linr"  time="-9999999/1" value="0" leadInLength="0/1"  />
              <InterpolatingParam id="2858" interp="linr"  time="-9999999/1" value="0" leadInLength="0/1"  />
              <InterpolatingParam id="2859" interp="linr"  time="-9999999/1" value="0" leadInLength="0/1"  />
              <InterpolatingParam id="2860" interp="linr"  time="-9999999/1" value="0" leadInLength="0/1"  />
             </VectorParam>
             <InterpolatingParam id="2861" interp="linr"  time="-9999999/1" value="1" leadInLength="0/1"  name="opacity"/>
             <InterpolatingParam id="2862" interp="linr"  time="0/1" value="0" leadInLength="0/1"  name="cursorOpacity"/>
             <InterpolatingParam id="2863" interp="linr"  time="0/1" value="0" leadInLength="0/1"  name="cursorScale"/>
            </Parameters>
            <Attributes>
             <Attribute id="2864" value="" name="ident"/>
            </Attributes>
            <MetaData>
             <entry key="AutoAppliedSmartFocus" val="False"/>
             <entry key="WinSubProjectDisplayName" val=""/>
            </MetaData>
            <ExtraData>
             <Entry key="ZoomPanBin">
              <ZoomPanBin id="2865"  >
               <ZoomPanKeyframes>
                <ZoomPanKeyframe id="2866" timeRangeEnd="-9999999/1" timeRangeDuration="0/1" interpolaterName=""  />
               </ZoomPanKeyframes>
              </ZoomPanBin>
             </Entry>
             <Entry key="CursorEffectBin">
              <CursorEffectBin id="2867"  >
               <CursorEffectKeyframes>
               </CursorEffectKeyframes>
              </CursorEffectBin>
             </Entry>
            </ExtraData>
           </ScreenVMFile>
           <ScreenVMFile id="2868" start="5717" duration="427" scalar="1/1" mediaStart="6488/1" mediaDuration="427/1" trackNumber="0" src="4" >
            <Transformer>
             <VectorParam id="2869"  name="translation">
              <InterpolatingParam id="2870" interp="linr"  time="-9999999/1" value="0" leadInLength="0/1"  />
              <InterpolatingParam id="2871" interp="linr"  time="-9999999/1" value="0" leadInLength="0/1"  />
              <InterpolatingParam id="2872" interp="linr"  time="-9999999/1" value="0" leadInLength="0/1"  />
             </VectorParam>
             <VectorParam id="2873"  name="rotation">
              <InterpolatingParam id="2874" interp="linr"  time="-9999999/1" value="0" leadInLength="0/1"  />
              <InterpolatingParam id="2875" interp="linr"  time="-9999999/1" value="0" leadInLength="0/1"  />
              <InterpolatingParam id="2876" interp="linr"  time="-9999999/1" value="0" leadInLength="0/1"  />
             </VectorParam>
             <VectorParam id="2877"  name="shear">
              <InterpolatingParam id="2878" interp="linr"  time="-9999999/1" value="0" leadInLength="0/1"  />
              <InterpolatingParam id="2879" interp="linr"  time="-9999999/1" value="0" leadInLength="0/1"  />
              <InterpolatingParam id="2880" interp="linr"  time="-9999999/1" value="0" leadInLength="0/1"  />
             </VectorParam>
             <VectorParam id="2881"  name="scale">
              <InterpolatingParam id="2882" interp="linr"  time="-9999999/1" value="1" leadInLength="0/1"  />
              <InterpolatingParam id="2883" interp="linr"  time="-9999999/1" value="1" leadInLength="0/1"  />
              <InterpolatingParam id="2884" interp="linr"  time="-9999999/1" value="1" leadInLength="0/1"  />
             </VectorParam>
             <VectorParam id="2885"  name="anchor">
              <InterpolatingParam id="2886" interp="linr"  time="0/1" value="0" leadInLength="0/1"  />
              <InterpolatingParam id="2887" interp="linr"  time="0/1" value="0" leadInLength="0/1"  />
              <InterpolatingParam id="2888" interp="linr"  time="0/1" value="0" leadInLength="0/1"  />
             </VectorParam>
            </Transformer>
            <Parameters>
             <VectorParam id="2889"  name="sourceCrop">
              <InterpolatingParam id="2890" interp="linr"  time="0/1" value="0" leadInLength="0/1"  />
              <InterpolatingParam id="2891" interp="linr"  time="0/1" value="0" leadInLength="0/1"  />
              <InterpolatingParam id="2892" interp="linr"  time="0/1" value="0" leadInLength="0/1"  />
              <InterpolatingParam id="2893" interp="linr"  time="0/1" value="0" leadInLength="0/1"  />
             </VectorParam>
             <VectorParam id="2894"  name="geometryCrop">
              <InterpolatingParam id="2895" interp="linr"  time="-9999999/1" value="0" leadInLength="0/1"  />
              <InterpolatingParam id="2896" interp="linr"  time="-9999999/1" value="0" leadInLength="0/1"  />
              <InterpolatingParam id="2897" interp="linr"  time="-9999999/1" value="0" leadInLength="0/1"  />
              <InterpolatingParam id="2898" interp="linr"  time="-9999999/1" value="0" leadInLength="0/1"  />
             </VectorParam>
             <InterpolatingParam id="2899" interp="linr"  time="-9999999/1" value="1" leadInLength="0/1"  name="opacity"/>
             <InterpolatingParam id="2900" interp="linr"  time="0/1" value="0" leadInLength="0/1"  name="cursorOpacity"/>
             <InterpolatingParam id="2901" interp="linr"  time="0/1" value="0" leadInLength="0/1"  name="cursorScale"/>
            </Parameters>
            <Attributes>
             <Attribute id="2902" value="" name="ident"/>
            </Attributes>
            <MetaData>
             <entry key="AutoAppliedSmartFocus" val="False"/>
             <entry key="WinSubProjectDisplayName" val=""/>
            </MetaData>
            <ExtraData>
             <Entry key="ZoomPanBin">
              <ZoomPanBin id="2903"  >
               <ZoomPanKeyframes>
                <ZoomPanKeyframe id="2904" timeRangeEnd="-9999999/1" timeRangeDuration="0/1" interpolaterName=""  />
               </ZoomPanKeyframes>
              </ZoomPanBin>
             </Entry>
             <Entry key="CursorEffectBin">
              <CursorEffectBin id="2905"  >
               <CursorEffectKeyframes>
               </CursorEffectKeyframes>
              </CursorEffectBin>
             </Entry>
            </ExtraData>
           </ScreenVMFile>
           <ScreenVMFile id="2906" start="6144" duration="240" scalar="1/1" mediaStart="6955/1" mediaDuration="240/1" trackNumber="0" src="4" >
            <Transformer>
             <VectorParam id="2907"  name="translation">
              <InterpolatingParam id="2908" interp="linr"  time="-9999999/1" value="0" leadInLength="0/1"  />
              <InterpolatingParam id="2909" interp="linr"  time="-9999999/1" value="0" leadInLength="0/1"  />
              <InterpolatingParam id="2910" interp="linr"  time="-9999999/1" value="0" leadInLength="0/1"  />
             </VectorParam>
             <VectorParam id="2911"  name="rotation">
              <InterpolatingParam id="2912" interp="linr"  time="-9999999/1" value="0" leadInLength="0/1"  />
              <InterpolatingParam id="2913" interp="linr"  time="-9999999/1" value="0" leadInLength="0/1"  />
              <InterpolatingParam id="2914" interp="linr"  time="-9999999/1" value="0" leadInLength="0/1"  />
             </VectorParam>
             <VectorParam id="2915"  name="shear">
              <InterpolatingParam id="2916" interp="linr"  time="-9999999/1" value="0" leadInLength="0/1"  />
              <InterpolatingParam id="2917" interp="linr"  time="-9999999/1" value="0" leadInLength="0/1"  />
              <InterpolatingParam id="2918" interp="linr"  time="-9999999/1" value="0" leadInLength="0/1"  />
             </VectorParam>
             <VectorParam id="2919"  name="scale">
              <InterpolatingParam id="2920" interp="linr"  time="-9999999/1" value="1" leadInLength="0/1"  />
              <InterpolatingParam id="2921" interp="linr"  time="-9999999/1" value="1" leadInLength="0/1"  />
              <InterpolatingParam id="2922" interp="linr"  time="-9999999/1" value="1" leadInLength="0/1"  />
             </VectorParam>
             <VectorParam id="2923"  name="anchor">
              <InterpolatingParam id="2924" interp="linr"  time="0/1" value="0" leadInLength="0/1"  />
              <InterpolatingParam id="2925" interp="linr"  time="0/1" value="0" leadInLength="0/1"  />
              <InterpolatingParam id="2926" interp="linr"  time="0/1" value="0" leadInLength="0/1"  />
             </VectorParam>
            </Transformer>
            <Parameters>
             <VectorParam id="2927"  name="sourceCrop">
              <InterpolatingParam id="2928" interp="linr"  time="0/1" value="0" leadInLength="0/1"  />
              <InterpolatingParam id="2929" interp="linr"  time="0/1" value="0" leadInLength="0/1"  />
              <InterpolatingParam id="2930" interp="linr"  time="0/1" value="0" leadInLength="0/1"  />
              <InterpolatingParam id="2931" interp="linr"  time="0/1" value="0" leadInLength="0/1"  />
             </VectorParam>
             <VectorParam id="2932"  name="geometryCrop">
              <InterpolatingParam id="2933" interp="linr"  time="-9999999/1" value="0" leadInLength="0/1"  />
              <InterpolatingParam id="2934" interp="linr"  time="-9999999/1" value="0" leadInLength="0/1"  />
              <InterpolatingParam id="2935" interp="linr"  time="-9999999/1" value="0" leadInLength="0/1"  />
              <InterpolatingParam id="2936" interp="linr"  time="-9999999/1" value="0" leadInLength="0/1"  />
             </VectorParam>
             <InterpolatingParam id="2937" interp="linr"  time="-9999999/1" value="1" leadInLength="0/1"  name="opacity"/>
             <InterpolatingParam id="2938" interp="linr"  time="0/1" value="0" leadInLength="0/1"  name="cursorOpacity"/>
             <InterpolatingParam id="2939" interp="linr"  time="0/1" value="0" leadInLength="0/1"  name="cursorScale"/>
            </Parameters>
            <Attributes>
             <Attribute id="2940" value="" name="ident"/>
            </Attributes>
            <MetaData>
             <entry key="AutoAppliedSmartFocus" val="False"/>
             <entry key="WinSubProjectDisplayName" val=""/>
            </MetaData>
            <ExtraData>
             <Entry key="ZoomPanBin">
              <ZoomPanBin id="2941"  >
               <ZoomPanKeyframes>
                <ZoomPanKeyframe id="2942" timeRangeEnd="-9999999/1" timeRangeDuration="0/1" interpolaterName=""  />
               </ZoomPanKeyframes>
              </ZoomPanBin>
             </Entry>
             <Entry key="CursorEffectBin">
              <CursorEffectBin id="2943"  >
               <CursorEffectKeyframes>
               </CursorEffectKeyframes>
              </CursorEffectBin>
             </Entry>
            </ExtraData>
           </ScreenVMFile>
           <ScreenVMFile id="2944" start="6384" duration="637" scalar="1/1" mediaStart="7219/1" mediaDuration="637/1" trackNumber="0" src="4" >
            <Transformer>
             <VectorParam id="2945"  name="translation">
              <InterpolatingParam id="2946" interp="linr"  time="-9999999/1" value="0" leadInLength="0/1"  />
              <InterpolatingParam id="2947" interp="linr"  time="-9999999/1" value="0" leadInLength="0/1"  />
              <InterpolatingParam id="2948" interp="linr"  time="-9999999/1" value="0" leadInLength="0/1"  />
             </VectorParam>
             <VectorParam id="2949"  name="rotation">
              <InterpolatingParam id="2950" interp="linr"  time="-9999999/1" value="0" leadInLength="0/1"  />
              <InterpolatingParam id="2951" interp="linr"  time="-9999999/1" value="0" leadInLength="0/1"  />
              <InterpolatingParam id="2952" interp="linr"  time="-9999999/1" value="0" leadInLength="0/1"  />
             </VectorParam>
             <VectorParam id="2953"  name="shear">
              <InterpolatingParam id="2954" interp="linr"  time="-9999999/1" value="0" leadInLength="0/1"  />
              <InterpolatingParam id="2955" interp="linr"  time="-9999999/1" value="0" leadInLength="0/1"  />
              <InterpolatingParam id="2956" interp="linr"  time="-9999999/1" value="0" leadInLength="0/1"  />
             </VectorParam>
             <VectorParam id="2957"  name="scale">
              <InterpolatingParam id="2958" interp="linr"  time="-9999999/1" value="1" leadInLength="0/1"  />
              <InterpolatingParam id="2959" interp="linr"  time="-9999999/1" value="1" leadInLength="0/1"  />
              <InterpolatingParam id="2960" interp="linr"  time="-9999999/1" value="1" leadInLength="0/1"  />
             </VectorParam>
             <VectorParam id="2961"  name="anchor">
              <InterpolatingParam id="2962" interp="linr"  time="0/1" value="0" leadInLength="0/1"  />
              <InterpolatingParam id="2963" interp="linr"  time="0/1" value="0" leadInLength="0/1"  />
              <InterpolatingParam id="2964" interp="linr"  time="0/1" value="0" leadInLength="0/1"  />
             </VectorParam>
            </Transformer>
            <Parameters>
             <VectorParam id="2965"  name="sourceCrop">
              <InterpolatingParam id="2966" interp="linr"  time="0/1" value="0" leadInLength="0/1"  />
              <InterpolatingParam id="2967" interp="linr"  time="0/1" value="0" leadInLength="0/1"  />
              <InterpolatingParam id="2968" interp="linr"  time="0/1" value="0" leadInLength="0/1"  />
              <InterpolatingParam id="2969" interp="linr"  time="0/1" value="0" leadInLength="0/1"  />
             </VectorParam>
             <VectorParam id="2970"  name="geometryCrop">
              <InterpolatingParam id="2971" interp="linr"  time="-9999999/1" value="0" leadInLength="0/1"  />
              <InterpolatingParam id="2972" interp="linr"  time="-9999999/1" value="0" leadInLength="0/1"  />
              <InterpolatingParam id="2973" interp="linr"  time="-9999999/1" value="0" leadInLength="0/1"  />
              <InterpolatingParam id="2974" interp="linr"  time="-9999999/1" value="0" leadInLength="0/1"  />
             </VectorParam>
             <InterpolatingParam id="2975" interp="linr"  time="-9999999/1" value="1" leadInLength="0/1"  name="opacity"/>
             <InterpolatingParam id="2976" interp="linr"  time="0/1" value="0" leadInLength="0/1"  name="cursorOpacity"/>
             <InterpolatingParam id="2977" interp="linr"  time="0/1" value="0" leadInLength="0/1"  name="cursorScale"/>
            </Parameters>
            <Attributes>
             <Attribute id="2978" value="" name="ident"/>
            </Attributes>
            <MetaData>
             <entry key="AutoAppliedSmartFocus" val="False"/>
             <entry key="WinSubProjectDisplayName" val=""/>
            </MetaData>
            <ExtraData>
             <Entry key="ZoomPanBin">
              <ZoomPanBin id="2979"  >
               <ZoomPanKeyframes>
                <ZoomPanKeyframe id="2980" timeRangeEnd="-9999999/1" timeRangeDuration="0/1" interpolaterName=""  />
               </ZoomPanKeyframes>
              </ZoomPanBin>
             </Entry>
             <Entry key="CursorEffectBin">
              <CursorEffectBin id="2981"  >
               <CursorEffectKeyframes>
               </CursorEffectKeyframes>
              </CursorEffectBin>
             </Entry>
            </ExtraData>
           </ScreenVMFile>
           <ScreenVMFile id="2982" start="7021" duration="139" scalar="1/1" mediaStart="8197/1" mediaDuration="139/1" trackNumber="0" src="4" >
            <Transformer>
             <VectorParam id="2983"  name="translation">
              <InterpolatingParam id="2984" interp="linr"  time="-9999999/1" value="0" leadInLength="0/1"  />
              <InterpolatingParam id="2985" interp="linr"  time="-9999999/1" value="0" leadInLength="0/1"  />
              <InterpolatingParam id="2986" interp="linr"  time="-9999999/1" value="0" leadInLength="0/1"  />
             </VectorParam>
             <VectorParam id="2987"  name="rotation">
              <InterpolatingParam id="2988" interp="linr"  time="-9999999/1" value="0" leadInLength="0/1"  />
              <InterpolatingParam id="2989" interp="linr"  time="-9999999/1" value="0" leadInLength="0/1"  />
              <InterpolatingParam id="2990" interp="linr"  time="-9999999/1" value="0" leadInLength="0/1"  />
             </VectorParam>
             <VectorParam id="2991"  name="shear">
              <InterpolatingParam id="2992" interp="linr"  time="-9999999/1" value="0" leadInLength="0/1"  />
              <InterpolatingParam id="2993" interp="linr"  time="-9999999/1" value="0" leadInLength="0/1"  />
              <InterpolatingParam id="2994" interp="linr"  time="-9999999/1" value="0" leadInLength="0/1"  />
             </VectorParam>
             <VectorParam id="2995"  name="scale">
              <InterpolatingParam id="2996" interp="linr"  time="-9999999/1" value="1" leadInLength="0/1"  />
              <InterpolatingParam id="2997" interp="linr"  time="-9999999/1" value="1" leadInLength="0/1"  />
              <InterpolatingParam id="2998" interp="linr"  time="-9999999/1" value="1" leadInLength="0/1"  />
             </VectorParam>
             <VectorParam id="2999"  name="anchor">
              <InterpolatingParam id="3000" interp="linr"  time="0/1" value="0" leadInLength="0/1"  />
              <InterpolatingParam id="3001" interp="linr"  time="0/1" value="0" leadInLength="0/1"  />
              <InterpolatingParam id="3002" interp="linr"  time="0/1" value="0" leadInLength="0/1"  />
             </VectorParam>
            </Transformer>
            <Parameters>
             <VectorParam id="3003"  name="sourceCrop">
              <InterpolatingParam id="3004" interp="linr"  time="0/1" value="0" leadInLength="0/1"  />
              <InterpolatingParam id="3005" interp="linr"  time="0/1" value="0" leadInLength="0/1"  />
              <InterpolatingParam id="3006" interp="linr"  time="0/1" value="0" leadInLength="0/1"  />
              <InterpolatingParam id="3007" interp="linr"  time="0/1" value="0" leadInLength="0/1"  />
             </VectorParam>
             <VectorParam id="3008"  name="geometryCrop">
              <InterpolatingParam id="3009" interp="linr"  time="-9999999/1" value="0" leadInLength="0/1"  />
              <InterpolatingParam id="3010" interp="linr"  time="-9999999/1" value="0" leadInLength="0/1"  />
              <InterpolatingParam id="3011" interp="linr"  time="-9999999/1" value="0" leadInLength="0/1"  />
              <InterpolatingParam id="3012" interp="linr"  time="-9999999/1" value="0" leadInLength="0/1"  />
             </VectorParam>
             <InterpolatingParam id="3013" interp="linr"  time="-9999999/1" value="1" leadInLength="0/1"  name="opacity"/>
             <InterpolatingParam id="3014" interp="linr"  time="0/1" value="0" leadInLength="0/1"  name="cursorOpacity"/>
             <InterpolatingParam id="3015" interp="linr"  time="0/1" value="0" leadInLength="0/1"  name="cursorScale"/>
            </Parameters>
            <Attributes>
             <Attribute id="3016" value="" name="ident"/>
            </Attributes>
            <MetaData>
             <entry key="AutoAppliedSmartFocus" val="False"/>
             <entry key="WinSubProjectDisplayName" val=""/>
            </MetaData>
            <ExtraData>
             <Entry key="ZoomPanBin">
              <ZoomPanBin id="3017"  >
               <ZoomPanKeyframes>
                <ZoomPanKeyframe id="3018" timeRangeEnd="-9999999/1" timeRangeDuration="0/1" interpolaterName=""  />
               </ZoomPanKeyframes>
              </ZoomPanBin>
             </Entry>
             <Entry key="CursorEffectBin">
              <CursorEffectBin id="3019"  >
               <CursorEffectKeyframes>
               </CursorEffectKeyframes>
              </CursorEffectBin>
             </Entry>
            </ExtraData>
           </ScreenVMFile>
           <ScreenVMFile id="3020" start="7160" duration="5533" scalar="1/1" mediaStart="8391/1" mediaDuration="5533/1" trackNumber="0" src="4" >
            <Transformer>
             <VectorParam id="3021"  name="translation">
              <InterpolatingParam id="3022" interp="linr"  time="-9999999/1" value="0" leadInLength="0/1"  />
              <InterpolatingParam id="3023" interp="linr"  time="-9999999/1" value="0" leadInLength="0/1"  />
              <InterpolatingParam id="3024" interp="linr"  time="-9999999/1" value="0" leadInLength="0/1"  />
             </VectorParam>
             <VectorParam id="3025"  name="rotation">
              <InterpolatingParam id="3026" interp="linr"  time="-9999999/1" value="0" leadInLength="0/1"  />
              <InterpolatingParam id="3027" interp="linr"  time="-9999999/1" value="0" leadInLength="0/1"  />
              <InterpolatingParam id="3028" interp="linr"  time="-9999999/1" value="0" leadInLength="0/1"  />
             </VectorParam>
             <VectorParam id="3029"  name="shear">
              <InterpolatingParam id="3030" interp="linr"  time="-9999999/1" value="0" leadInLength="0/1"  />
              <InterpolatingParam id="3031" interp="linr"  time="-9999999/1" value="0" leadInLength="0/1"  />
              <InterpolatingParam id="3032" interp="linr"  time="-9999999/1" value="0" leadInLength="0/1"  />
             </VectorParam>
             <VectorParam id="3033"  name="scale">
              <InterpolatingParam id="3034" interp="linr"  time="-9999999/1" value="1" leadInLength="0/1"  />
              <InterpolatingParam id="3035" interp="linr"  time="-9999999/1" value="1" leadInLength="0/1"  />
              <InterpolatingParam id="3036" interp="linr"  time="-9999999/1" value="1" leadInLength="0/1"  />
             </VectorParam>
             <VectorParam id="3037"  name="anchor">
              <InterpolatingParam id="3038" interp="linr"  time="0/1" value="0" leadInLength="0/1"  />
              <InterpolatingParam id="3039" interp="linr"  time="0/1" value="0" leadInLength="0/1"  />
              <InterpolatingParam id="3040" interp="linr"  time="0/1" value="0" leadInLength="0/1"  />
             </VectorParam>
            </Transformer>
            <Parameters>
             <VectorParam id="3041"  name="sourceCrop">
              <InterpolatingParam id="3042" interp="linr"  time="0/1" value="0" leadInLength="0/1"  />
              <InterpolatingParam id="3043" interp="linr"  time="0/1" value="0" leadInLength="0/1"  />
              <InterpolatingParam id="3044" interp="linr"  time="0/1" value="0" leadInLength="0/1"  />
              <InterpolatingParam id="3045" interp="linr"  time="0/1" value="0" leadInLength="0/1"  />
             </VectorParam>
             <VectorParam id="3046"  name="geometryCrop">
              <InterpolatingParam id="3047" interp="linr"  time="-9999999/1" value="0" leadInLength="0/1"  />
              <InterpolatingParam id="3048" interp="linr"  time="-9999999/1" value="0" leadInLength="0/1"  />
              <InterpolatingParam id="3049" interp="linr"  time="-9999999/1" value="0" leadInLength="0/1"  />
              <InterpolatingParam id="3050" interp="linr"  time="-9999999/1" value="0" leadInLength="0/1"  />
             </VectorParam>
             <InterpolatingParam id="3051" interp="linr"  time="-9999999/1" value="1" leadInLength="0/1"  name="opacity"/>
             <InterpolatingParam id="3052" interp="linr"  time="0/1" value="0" leadInLength="0/1"  name="cursorOpacity"/>
             <InterpolatingParam id="3053" interp="linr"  time="0/1" value="0" leadInLength="0/1"  name="cursorScale"/>
            </Parameters>
            <Attributes>
             <Attribute id="3054" value="" name="ident"/>
            </Attributes>
            <MetaData>
             <entry key="AutoAppliedSmartFocus" val="False"/>
             <entry key="WinSubProjectDisplayName" val=""/>
            </MetaData>
            <ExtraData>
             <Entry key="ZoomPanBin">
              <ZoomPanBin id="3055"  >
               <ZoomPanKeyframes>
                <ZoomPanKeyframe id="3056" timeRangeEnd="-9999999/1" timeRangeDuration="0/1" interpolaterName=""  />
               </ZoomPanKeyframes>
              </ZoomPanBin>
             </Entry>
             <Entry key="CursorEffectBin">
              <CursorEffectBin id="3057"  >
               <CursorEffectKeyframes>
               </CursorEffectKeyframes>
              </CursorEffectBin>
             </Entry>
            </ExtraData>
           </ScreenVMFile>
          </Medias>
         </GenericTrack>
        </StitchedMedia>
        <StitchedMedia id="3058" start="7146" duration="5311" scalar="1/1" mediaStart="7146/1" mediaDuration="5311/1" minMediaStart="0/1" >
         <Transformer>
          <VectorParam id="3059"  name="translation">
           <InterpolatingParam id="3060" interp="linr"  time="-9999999/1" value="473.63342604384064" leadInLength="0/1"  interpolater="leadin-linr"  />
           <InterpolatingParam id="3061" interp="linr"  time="-9999999/1" value="-137.45196506542032" leadInLength="0/1"  interpolater="leadin-linr"  />
           <InterpolatingParam id="3062" interp="linr"  time="-9999999/1" value="0" leadInLength="0/1"  interpolater="leadin-linr"  />
          </VectorParam>
          <VectorParam id="3063"  name="rotation">
           <InterpolatingParam id="3064" interp="linr"  time="-9999999/1" value="0" leadInLength="0/1"  interpolater="leadin-linr"  />
           <InterpolatingParam id="3065" interp="linr"  time="-9999999/1" value="0" leadInLength="0/1"  interpolater="leadin-linr"  />
           <InterpolatingParam id="3066" interp="linr"  time="-9999999/1" value="0" leadInLength="0/1"  interpolater="leadin-linr"  />
          </VectorParam>
          <VectorParam id="3067"  name="shear">
           <InterpolatingParam id="3068" interp="linr"  time="-9999999/1" value="0" leadInLength="0/1"  interpolater="leadin-linr"  />
           <InterpolatingParam id="3069" interp="linr"  time="-9999999/1" value="0" leadInLength="0/1"  interpolater="leadin-linr"  />
           <InterpolatingParam id="3070" interp="linr"  time="-9999999/1" value="0" leadInLength="0/1"  interpolater="leadin-linr"  />
          </VectorParam>
          <VectorParam id="3071"  name="scale">
           <InterpolatingParam id="3072" interp="linr"  time="-9999999/1" value="0.90242903930136009" leadInLength="0/1"  interpolater="leadin-linr"  />
           <InterpolatingParam id="3073" interp="linr"  time="-9999999/1" value="0.90242903930135998" leadInLength="0/1"  interpolater="leadin-linr"  />
           <InterpolatingParam id="3074" interp="linr"  time="-9999999/1" value="1" leadInLength="0/1"  interpolater="leadin-linr"  />
          </VectorParam>
          <VectorParam id="3075"  name="anchor">
           <InterpolatingParam id="3076" interp="linr"  time="0/1" value="0" leadInLength="0/1"  />
           <InterpolatingParam id="3077" interp="linr"  time="0/1" value="0" leadInLength="0/1"  />
           <InterpolatingParam id="3078" interp="linr"  time="0/1" value="0" leadInLength="0/1"  />
          </VectorParam>
         </Transformer>
         <Parameters>
          <VectorParam id="3079"  name="sourceCrop">
           <InterpolatingParam id="3080" interp="linr"  time="0/1" value="0" leadInLength="0/1"  />
           <InterpolatingParam id="3081" interp="linr"  time="0/1" value="0" leadInLength="0/1"  />
           <InterpolatingParam id="3082" interp="linr"  time="0/1" value="0" leadInLength="0/1"  />
           <InterpolatingParam id="3083" interp="linr"  time="0/1" value="0" leadInLength="0/1"  />
          </VectorParam>
          <VectorParam id="3084"  name="geometryCrop">
           <InterpolatingParam id="3085" interp="linr"  time="-9999999/1" value="0" leadInLength="0/1"  interpolater="leadin-linr"  />
           <InterpolatingParam id="3086" interp="linr"  time="-9999999/1" value="0" leadInLength="0/1"  interpolater="leadin-linr"  />
           <InterpolatingParam id="3087" interp="linr"  time="-9999999/1" value="87.996634817806495" leadInLength="0/1"  interpolater="leadin-linr"  />
           <InterpolatingParam id="3088" interp="linr"  time="-9999999/1" value="0" leadInLength="0/1"  interpolater="leadin-linr"  />
          </VectorParam>
          <InterpolatingParam id="3089" interp="linr"  time="-9999999/1" value="1" leadInLength="0/1"  interpolater="leadin-linr"  name="opacity"/>
          <InterpolatingParam id="3090" interp="linr"  time="0/1" value="1" leadInLength="0/1"  name="cursorOpacity"/>
          <InterpolatingParam id="3091" interp="linr"  time="0/1" value="1" leadInLength="0/1"  name="cursorScale"/>
          <InterpolatingParam id="3092" interp="linr"  time="0/1" value="1" leadInLength="0/1"  name="volume"/>
          <Parameter id="3093"  name="captions"/>
         </Parameters>
         <Effects>
          <GenericEffect id="3094" name = "NoiseReduction" >
           <Parameters>
           <InterpolatingParam id="3095" interp="linr"  time="0/1" value="27.599999999999998" leadInLength="0/1"   name="denoiserAmount"/>
           <InterpolatingParam id="3096" interp="linr"  time="0/1" value="2.2799999999999994" leadInLength="0/1"   name="denoiserThreshold"/>
           <Parameter id="3097"   name="noiseProfile">
            <Keyframes>
            <Keyframe id="3098"  time="0/1" value="FBAAAAIAAABErAAAAQIAAOKPKML/FBXC8L0lwpgnLMI2jz7CoBtNwg2lUsKiR1vC6kZdwuAwWsJ6&#xD;&#xa;+VnCw9lgwlbSb8ILA3TClIptwvnebsKYx3LCsPx7wtjsecIAL3zCs4R9wrkAe8K5DXjC1i56wi9c&#xD;&#xa;ecLMLnrCVpJ6wkRogcLBt4PCcS+FwqFcg8ItEoTClQiIwrechcJJYoPCgGmHwiTOicKczYrCZ1GI&#xD;&#xa;wsgAicLwv4zCYoGOwn50kMKrzJDCHsiRwq2dkcKHdZPCQoOUwkJClMI4n5jC1oCbwmL0lsJozZbC&#xD;&#xa;BrGZwt4elsLls5TCt2KVwumPmMJSoZfCD0yOwg7eisIULJPC2qOZwgJ8mcL/apjConSYwi6vlsL0&#xD;&#xa;4JfCzJSZwl4xl8LCmpTCWW+VwvaImcIh45vCBFuawhNBmsLJXZrCNiCZwuLNlMLHt4zCxMKIwuCO&#xD;&#xa;kcIf2Z7CFKmcwqtFmcKZvJnCIZObwsc/nsLqaJzCy32ews7UoMKl1J7Ck2SfwhvTn8JAX6HCCBSh&#xD;&#xa;wujqoMLr56DC7tSjwuwSpMJ/5aXC416kwuDLoMKyS6LCN/GjwhM3o8LYo6LCoYqlwi69p8KmCKfC&#xD;&#xa;r06owmReqMLboafC7Q+mwkrjp8IZFqjCvLqjwgHfpcLkPKfCzDuown6fpcIMc6XCK6mkwnxxqMIz&#xD;&#xa;3avCzD6wws5pr8LMJqzCJF+pwjRhqsJ+vanC6Yaowtx+qMKzLqjCD0Cqwuoar8KOXq/CGu2twvw2&#xD;&#xa;q8KIqKnCO3GrwrfCq8I6uKzCuIWrwl7/qsKJB6rCe8SrwuMTr8IGyq/CgLWswrj5q8K41arCDcWr&#xD;&#xa;wkyirsKQKKrCXlCowvi1rcKcjq7CSD6twg8QqsK82KrC1SWqwvQDp8Kb7abCmxGowpzIqcKcjq3C&#xD;&#xa;fv+ywpO7s8ISqa3CUpWowgy+p8JUHqvC+32swlC7qsL926rC9H2rwjODqcKo+6nCbT6rwizRp8Lg&#xD;&#xa;CqfCxlSmwp2xpsJEp6jC+beqwrsHq8LveanC6nSswhFmrMIYUajCsGyownLprMKz5K/CGl2uwiHx&#xD;&#xa;rMJKX6rCfHCpwr1GqMJgfabC6FaowpnYq8L0L63CjniswstorcLaFa7Cwt+rwlf2rMJoPq3Ccwuv&#xD;&#xa;wtnPs8LP/LPCV+ixwrDCsMI7xrHCc0SvwrrerMKmg63CBPKwwlLKssKeirPCoLixwvAYs8Lk/7DC&#xD;&#xa;miSvwnObsMKHeK3CGa+vwklstcIZI7jCiIyzwoFxscIdVbDCjbywwjT2s8LMGLPCUpaywiEPtsLp&#xD;&#xa;jrbC+6S0wg4UtMLMvbPCEO+0wi9HtsIWerbCZaK3wmbqtsKuz7PCJTS0wpjNssKBF7LCsgS0woho&#xD;&#xa;tML7pLLC1HexwpIBr8ICUa7CW1OxwmfIs8Jd7bXCPgOzwnboscL6d6/CWkOxwv5btMLcxrjCRg+2&#xD;&#xa;wvC9tMLw3bTCWDO0wkTbtMLjIrTCRSGzwnImssKg8LLCuEmzwjJRs8Jm4bHCBXStwlmqrcI416/C&#xD;&#xa;Gxi0wpULtcJag7PCoF6xwpZYssLYR7XCHq+zwhd+r8JVFLLCvAC1wmGzsMI8F7HC2Iawwr4TsMKt&#xD;&#xa;UrTCo+KzwjMRssLrarHCLvGuwuyqr8Imj7DC/nyuwg1zssJG26/CF5muwoI9sMLkwbDCNb6twlMX&#xD;&#xa;r8I4F7LCxfqxwuCtscJW5bLCokiywq41ssKSwK3CEBOxwsGNtcIcOrXCl4Wywsavs8LcoLbCVh24&#xD;&#xa;wnD2s8Jw+K7CEjixwg+DsMKN4a7CGCewwltqscJYW7LCh3WywvZ0scJo6a/C6oOvwsdtsMLD27HC&#xD;&#xa;lDOywvUutMI+ibjC45a3ws7wtcK8NrfCUyu3wm1KtcJbbLPCio62wmIet8LhcrbChmy0wlXwscJp&#xD;&#xa;cbPCKR+0wj8Rs8L1mLbCvGy5wpyquMJRwLbCEay0whvyssJ+tK/CZ3ukwgnCoMLsqKvCtfm1wgvs&#xD;&#xa;tMKrqLXCtjK7wuIVwsKmv77Cncq5wpiEt8KB97fCJs26wjbOvcJP57zCwK65wnpkucJp97jCgue3&#xD;&#xa;whq+ucLWG7nCBE+6wv7hu8LsibvChNO7wt4DvcL34rzCtji+whJducIserfC4eq5wiD9vcJIAbzC&#xD;&#xa;oFC3wrjitsLHt7fCtJO9wq+/wMJousDCvuO9wjowvcLv4rvC5/W8wj7nvcJ0rbzC85m8wg5Ov8Kv&#xD;&#xa;077CztjAwsz+vsKIKL7CpOG8wh6LusIOcrrC0228wm7BvsKuRbnCQt+5wvXNusJP9LzCYn3AwqOL&#xD;&#xa;wMKMjb7CHhu+wrrdu8LyCbvCqtW9wl5Su8J89rzCOknAwuTRv8JWc8DCpjW+woYZvsIsT7/CFI++&#xD;&#xa;wjYXwMLMdsDCI/C+wtfAu8JwvLzCWLu+wi1Ow8IIrMHCC72+wmiBvMJ++L7CEDXCwnbowcKlHsDC&#xD;&#xa;ypG8whLJvMLhob3ClErBwuyIwsLsPr/CyJK/wuAswcJ/hsPCqnLCwn59w8LgRcTCyzbHwtC5zMI8&#xD;&#xa;vdHCEWrUwggJ2cKuWNfCbGXVwiAC1MKyi9bCiUHUwoK50sKC+tPChqDTwnwk0MI2rdPCfvvXwhoA&#xD;&#xa;18K2ktTCjEvXwiXL18K2OdfCfN/bwkKj2sJIRdLClLzUwqz23cIQ5NbCklHVwt0+18Ko2dfC6WXX&#xD;&#xa;wnwC3MKVlevCsyv1wpNx88IuAuPChMfYwjg03MKU3OnClPvbwtq52MIgZOLC6gnxwkbs9cJIEPjC&#xD;&#xa;wnH4wmBO9sJAFvLC3wwAwx6QKMKhFRXC7r8lwuQoLMIojj7C2BpNwjmlUsJrRlvCjEhdwi41WsL/&#xD;&#xa;+1nCcdpgwhrUb8I9BnTCIY1twmjhbsLUy3LCHQp8whgFesJCQXzC7ot9wtz8esK+DHjCczR6wnNg&#xD;&#xa;ecJxL3rCDpR6whlpgcIGuYPCjDCFwnpdg8LkEoTCtgeIwgmdhcK8Y4PCZGuHwpXMicIuzorCBlKI&#xD;&#xa;wocBicKlwYzCrIKOwlZ4kMKsy5DCtcORwsCfkcIkdZPCj32UwnM/lMJGoJjCQoWbwp3xlsKYw5bC&#xD;&#xa;kaiZwp4ZlsJBsZTCYmGVwmCSmMJ8pJfCP0yOwt/cisIXLZPCUqSZwgt8mcK0apjCx3aYwsKxlsL5&#xD;&#xa;5ZfCeZOZwjszl8KjoZTCW3OVwu6ImcLZ45vCUmKawiZEmsLgY5rC2CaZwqvQlML4tozCcL+IwvSJ&#xD;&#xa;kcIc2J7CNKecwmxEmcLwvJnCyJWbwmlFnsJAaJzCv3yewhzYoMLj0J7CoVufwgnMn8JyVKHCnA+h&#xD;&#xa;wrf5oMJ8+KDCJuOjws0TpMIE6KXC0FukwurPoMIRVKLCRAKkwvowo8JUqqLCZoelwoWtp8LaKKfC&#xD;&#xa;nl6owixTqMKukafC1wumwh7wp8IrHKjCvrqjwvvcpcLGUafCMGOowqXHpcKmtaXCOwmlwgmqqMJ7&#xD;&#xa;GazCnVawwrKur8LrRazCBn2pwvZQqsKT5anCLsWowsKoqMJ9H6jCBFSqwoR6r8JUx6/CUw+uwqAT&#xD;&#xa;q8I3kqnC9ZmrwuwlrMJ6Iq3CeK+rwpESq8LsEarCLLGrwgQ7r8JuDbDCJB+twrVHrMIcAavC5hqs&#xD;&#xa;wm6vrsKWQ6rCCHSowszvrcLx4q7CNNWtwoltqsLGIqvCIYSqwuREp8KoBKfC3CuowrwhqsLeA67C&#xD;&#xa;uyizwqyfs8I/vK3CLuiowm3ip8KYc6vCexitwiT2qsJ69arCaJGrwnmrqcLiLKrC5XGrwur1p8JS&#xD;&#xa;KKfCe02mwo6vpsIX4KjCkhGrwkodq8LtlanCha2swmLkrMI0majCYXCowhTgrMJ+ArDCzJ+uwloe&#xD;&#xa;rcJJj6rCwKqpwi6GqMK3xabCONCowoFyrMKgza3CtwitwlikrcIqOK7C6CqswqBYrcIjNq3C0C+v&#xD;&#xa;wtAatMISHLTCHjWywpZUscJSNLLC3GKvwr4grcK+1q3CNkWxwgcds8KFGLTCaheywmYWs8LWErHC&#xD;&#xa;7HCvwlEyscIIFK7CJCawwkustcK4S7jCkLGzwrS6scKBnrDCHVSxwsRetMIi5bLCJB2zwod2tsL9&#xD;&#xa;97bCPC+1wv61tMI1H7TC/hC1wklHtsImN7bCVqm3wtgjt8LaKLTCjm20wtIfs8IYe7LCVWu0wi/v&#xD;&#xa;tMK9yLLCQgixwuKsrsIWTK7C6lSxwgixs8L8s7XCKhCzws4nssJita/CyG+xwvpNtMJuybjC5hu2&#xD;&#xa;wqWctMKuLrXCLIq0woiqtcIKbLTCCCyzwlAVssKGzLLCHCCzwpYls8LWvbHCoGatwomxrcKZ66/C&#xD;&#xa;0Si0wkwotcISqLPCSEuxwtRPssIWbbXC+M6zwgCkr8L9MbLCPCW1wk7LsMLIErHC1Iiwwm4jsMLZ&#xD;&#xa;bbTCL+6zwuoussLFe7HCLv2uwtjGr8L+r7DC2YeuwshgssJu06/CAJ2uwnxOsMJc8LDCEOGtwl8l&#xD;&#xa;r8KRD7LCjf6xwlm2scLK/bLCekSywicZssKFtK3CQSixwq2WtcJ2ObXCCXqywuets8JunrbCshW4&#xD;&#xa;wnjvs8IZ/K7CdD2xwjqMsMI1567CKBCwwpRJscL6OrLCo2GywkKEscI3CbDCr5uvwmR9sMLSyLHC&#xD;&#xa;UCiywoEstMJurrjCVMK3wuLxtcJ+QrfC9SG3wtpJtcLXaLPC9nK2wugTt8KrZ7bCA3a0wiYissLx&#xD;&#xa;d7PCGyu0wk9Rs8JKv7bCfEy5wjmFuMJ6qbbCsKS0wvT9ssJ5rq/CinykwjjGoMIYrqvCcP+1wj0Y&#xD;&#xa;tcKQnbXCFgq7wgLfwcJNzb7CGuy5wrR2t8Kv+bfCaK66woqHvcJ+0rzCtKe5wgVgucI52rjCoce3&#xD;&#xa;wkTHucJRHbnC5le6wv4IvMKHu7vCPvC7wjT5vMKWzbzC3j6+wqh5ucLZhbfCAOa5wpbxvcK8GLzC&#xD;&#xa;0Fi3wpC5tsItqbfChrO9wuq4wMIOq8DCyQe+wupjvcLW37vCGPe8wnAFvsJEr7zCeJW8wu5Ov8Jr&#xD;&#xa;377CIMbAwqoNv8IaRL7C5s+8wmGAusJFhLrCc5G8wknCvsL0MbnCOsq5wqXVusL/AL3CwKTAwnC2&#xD;&#xa;wMLpob7CBiS+wnLRu8LjBbvCfva9wgNSu8LEwrzCgTLAwnShv8JkMMDCXiq+wmcUvsKMRr/CdHW+&#xD;&#xa;wmAhwMLooMDCHwO/wsjiu8JT+rzCjdq+wlxNw8KqicHCZLK+wkJnvMK8+b7CLg/Cwv/hwcLHCsDC&#xD;&#xa;QYa8wrvPvMLis73CPG/BwkHOwsJsVL/CS5i/wp4CwcJasMPCvJjCwnJ0w8KrI8TCgGXHws7hzMJ6&#xD;&#xa;odHCkojUwtBb2cKe9dbCx7fVwkyh08LKVdbCCM7UwheF08I0KtTC2ObTwo6h0MJ429PCJtPXwvQ+&#xD;&#xa;18Jn5NTCCH7Xwnqu2MJkR9jCnOXbwuyy2sLaMdLC1wzVwrKF3sJeotbCwCPVwnC11sKBkdjC3OvX&#xD;&#xa;whB83MJdtezCPXr2wv9J88LCC+PCPBTZwjGX3MJahunCMzrcwnR52MLWFePCHNT1wryf98JYM/jC&#xD;&#xa;5s76witd+MJAzvXCmUIB" leadInLength="0/1"  />
            </Keyframes>
           </Parameter>
           </Parameters>
           <MetaData>
            <entry key="effectIndex" val="0"/>
           </MetaData>
          </GenericEffect>
         </Effects>
         <Attributes>
          <Attribute id="3099" value="" name="ident"/>
          <Attribute id="3100" value="0" name="mixToMono"/>
         </Attributes>
         <MetaData>
          <entry key="WinSubProjectDisplayName" val=""/>
         </MetaData>
         <ExtraData>
          <Entry key="ZoomPanBin">
           <ZoomPanBin id="3101"  >
            <ZoomPanKeyframes>
             <ZoomPanKeyframe id="3102" timeRangeEnd="-9999999/1" timeRangeDuration="0/1" interpolaterName="linr"  />
            </ZoomPanKeyframes>
           </ZoomPanBin>
          </Entry>
          <Entry key="CursorEffectBin">
           <CursorEffectBin id="3103"  >
            <CursorEffectKeyframes>
            </CursorEffectKeyframes>
           </CursorEffectBin>
          </Entry>
         </ExtraData>
         <GenericTrack id="3104"  >
          <Attributes>
           <Attribute id="3105" value="" name="ident"/>
           <Attribute id="3106" value="0" name="audioMuted"/>
           <Attribute id="3107" value="0" name="videoHidden"/>
          </Attributes>
          <MetaData>
           <entry key="IsLocked" val="False"/>
           <entry key="WinTrackHeight" val="0"/>
          </MetaData>
          <Medias>
           <UnifiedMedia id="3108"  >
            <AMFile id="3109" start="0" duration="142" scalar="1/1" mediaStart="0/1" mediaDuration="142/1" trackNumber="2" src="4" channelNumber="0,1" >
             <Parameters>
              <InterpolatingParam id="3110" interp="linr"  time="0/1" value="1" leadInLength="0/1"  name="volume"/>
              <Parameter id="3111"  name="captions"/>
             </Parameters>
             <Attributes>
              <Attribute id="3112" value="" name="ident"/>
              <Attribute id="3113" value="44100" name="sampleRate"/>
              <Attribute id="3114" value="16" name="bitDepth"/>
              <Attribute id="3115" value="1" name="gain"/>
              <Attribute id="3116" value="0" name="mixToMono"/>
             </Attributes>
            </AMFile>
            <VMFile id="3117" start="0" duration="142" scalar="1/1" mediaStart="0/1" mediaDuration="142/1" trackNumber="1" src="4" >
             <Transformer>
              <VectorParam id="3118"  name="translation">
               <InterpolatingParam id="3119" interp="linr"  time="-9999999/1" value="0" leadInLength="0/1"  />
               <InterpolatingParam id="3120" interp="linr"  time="-9999999/1" value="0" leadInLength="0/1"  />
               <InterpolatingParam id="3121" interp="linr"  time="-9999999/1" value="0" leadInLength="0/1"  />
              </VectorParam>
              <VectorParam id="3122"  name="rotation">
               <InterpolatingParam id="3123" interp="linr"  time="-9999999/1" value="0" leadInLength="0/1"  />
               <InterpolatingParam id="3124" interp="linr"  time="-9999999/1" value="0" leadInLength="0/1"  />
               <InterpolatingParam id="3125" interp="linr"  time="-9999999/1" value="0" leadInLength="0/1"  />
              </VectorParam>
              <VectorParam id="3126"  name="shear">
               <InterpolatingParam id="3127" interp="linr"  time="-9999999/1" value="0" leadInLength="0/1"  />
               <InterpolatingParam id="3128" interp="linr"  time="-9999999/1" value="0" leadInLength="0/1"  />
               <InterpolatingParam id="3129" interp="linr"  time="-9999999/1" value="0" leadInLength="0/1"  />
              </VectorParam>
              <VectorParam id="3130"  name="scale">
               <InterpolatingParam id="3131" interp="linr"  time="-9999999/1" value="1" leadInLength="0/1"  />
               <InterpolatingParam id="3132" interp="linr"  time="-9999999/1" value="1" leadInLength="0/1"  />
               <InterpolatingParam id="3133" interp="linr"  time="-9999999/1" value="1" leadInLength="0/1"  />
              </VectorParam>
              <VectorParam id="3134"  name="anchor">
               <InterpolatingParam id="3135" interp="linr"  time="0/1" value="0" leadInLength="0/1"  />
               <InterpolatingParam id="3136" interp="linr"  time="0/1" value="0" leadInLength="0/1"  />
               <InterpolatingParam id="3137" interp="linr"  time="0/1" value="0" leadInLength="0/1"  />
              </VectorParam>
             </Transformer>
             <Parameters>
              <VectorParam id="3138"  name="sourceCrop">
               <InterpolatingParam id="3139" interp="linr"  time="0/1" value="0" leadInLength="0/1"  />
               <InterpolatingParam id="3140" interp="linr"  time="0/1" value="0" leadInLength="0/1"  />
               <InterpolatingParam id="3141" interp="linr"  time="0/1" value="0" leadInLength="0/1"  />
               <InterpolatingParam id="3142" interp="linr"  time="0/1" value="0" leadInLength="0/1"  />
              </VectorParam>
              <VectorParam id="3143"  name="geometryCrop">
               <InterpolatingParam id="3144" interp="linr"  time="-9999999/1" value="0" leadInLength="0/1"  />
               <InterpolatingParam id="3145" interp="linr"  time="-9999999/1" value="0" leadInLength="0/1"  />
               <InterpolatingParam id="3146" interp="linr"  time="-9999999/1" value="0" leadInLength="0/1"  />
               <InterpolatingParam id="3147" interp="linr"  time="-9999999/1" value="0" leadInLength="0/1"  />
              </VectorParam>
              <InterpolatingParam id="3148" interp="linr"  time="-9999999/1" value="1" leadInLength="0/1"  name="opacity"/>
             </Parameters>
             <Attributes>
              <Attribute id="3149" value="" name="ident"/>
             </Attributes>
             <ExtraData>
              <Entry key="ZoomPanBin">
               <ZoomPanBin id="3150"  >
                <ZoomPanKeyframes>
                 <ZoomPanKeyframe id="3151" timeRangeEnd="-9999999/1" timeRangeDuration="0/1" interpolaterName=""  />
                </ZoomPanKeyframes>
               </ZoomPanBin>
              </Entry>
             </ExtraData>
            </VMFile>
            <MetaData>
             <entry key="WinSubProjectDisplayName" val=""/>
            </MetaData>
           </UnifiedMedia>
           <UnifiedMedia id="3152"  >
            <AMFile id="3153" start="142" duration="92" scalar="1/1" mediaStart="158/1" mediaDuration="92/1" trackNumber="2" src="4" channelNumber="0,1" >
             <Parameters>
              <InterpolatingParam id="3154" interp="linr"  time="0/1" value="1" leadInLength="0/1"  name="volume"/>
              <Parameter id="3155"  name="captions"/>
             </Parameters>
             <Attributes>
              <Attribute id="3156" value="" name="ident"/>
              <Attribute id="3157" value="44100" name="sampleRate"/>
              <Attribute id="3158" value="16" name="bitDepth"/>
              <Attribute id="3159" value="1" name="gain"/>
              <Attribute id="3160" value="0" name="mixToMono"/>
             </Attributes>
            </AMFile>
            <VMFile id="3161" start="142" duration="92" scalar="1/1" mediaStart="158/1" mediaDuration="92/1" trackNumber="1" src="4" >
             <Transformer>
              <VectorParam id="3162"  name="translation">
               <InterpolatingParam id="3163" interp="linr"  time="-9999999/1" value="0" leadInLength="0/1"  />
               <InterpolatingParam id="3164" interp="linr"  time="-9999999/1" value="0" leadInLength="0/1"  />
               <InterpolatingParam id="3165" interp="linr"  time="-9999999/1" value="0" leadInLength="0/1"  />
              </VectorParam>
              <VectorParam id="3166"  name="rotation">
               <InterpolatingParam id="3167" interp="linr"  time="-9999999/1" value="0" leadInLength="0/1"  />
               <InterpolatingParam id="3168" interp="linr"  time="-9999999/1" value="0" leadInLength="0/1"  />
               <InterpolatingParam id="3169" interp="linr"  time="-9999999/1" value="0" leadInLength="0/1"  />
              </VectorParam>
              <VectorParam id="3170"  name="shear">
               <InterpolatingParam id="3171" interp="linr"  time="-9999999/1" value="0" leadInLength="0/1"  />
               <InterpolatingParam id="3172" interp="linr"  time="-9999999/1" value="0" leadInLength="0/1"  />
               <InterpolatingParam id="3173" interp="linr"  time="-9999999/1" value="0" leadInLength="0/1"  />
              </VectorParam>
              <VectorParam id="3174"  name="scale">
               <InterpolatingParam id="3175" interp="linr"  time="-9999999/1" value="1" leadInLength="0/1"  />
               <InterpolatingParam id="3176" interp="linr"  time="-9999999/1" value="1" leadInLength="0/1"  />
               <InterpolatingParam id="3177" interp="linr"  time="-9999999/1" value="1" leadInLength="0/1"  />
              </VectorParam>
              <VectorParam id="3178"  name="anchor">
               <InterpolatingParam id="3179" interp="linr"  time="0/1" value="0" leadInLength="0/1"  />
               <InterpolatingParam id="3180" interp="linr"  time="0/1" value="0" leadInLength="0/1"  />
               <InterpolatingParam id="3181" interp="linr"  time="0/1" value="0" leadInLength="0/1"  />
              </VectorParam>
             </Transformer>
             <Parameters>
              <VectorParam id="3182"  name="sourceCrop">
               <InterpolatingParam id="3183" interp="linr"  time="0/1" value="0" leadInLength="0/1"  />
               <InterpolatingParam id="3184" interp="linr"  time="0/1" value="0" leadInLength="0/1"  />
               <InterpolatingParam id="3185" interp="linr"  time="0/1" value="0" leadInLength="0/1"  />
               <InterpolatingParam id="3186" interp="linr"  time="0/1" value="0" leadInLength="0/1"  />
              </VectorParam>
              <VectorParam id="3187"  name="geometryCrop">
               <InterpolatingParam id="3188" interp="linr"  time="-9999999/1" value="0" leadInLength="0/1"  />
               <InterpolatingParam id="3189" interp="linr"  time="-9999999/1" value="0" leadInLength="0/1"  />
               <InterpolatingParam id="3190" interp="linr"  time="-9999999/1" value="0" leadInLength="0/1"  />
               <InterpolatingParam id="3191" interp="linr"  time="-9999999/1" value="0" leadInLength="0/1"  />
              </VectorParam>
              <InterpolatingParam id="3192" interp="linr"  time="-9999999/1" value="1" leadInLength="0/1"  name="opacity"/>
             </Parameters>
             <Attributes>
              <Attribute id="3193" value="" name="ident"/>
             </Attributes>
             <ExtraData>
              <Entry key="ZoomPanBin">
               <ZoomPanBin id="3194"  >
                <ZoomPanKeyframes>
                 <ZoomPanKeyframe id="3195" timeRangeEnd="-9999999/1" timeRangeDuration="0/1" interpolaterName=""  />
                </ZoomPanKeyframes>
               </ZoomPanBin>
              </Entry>
             </ExtraData>
            </VMFile>
            <MetaData>
             <entry key="WinSubProjectDisplayName" val=""/>
            </MetaData>
           </UnifiedMedia>
           <UnifiedMedia id="3196"  >
            <AMFile id="3197" start="234" duration="1188" scalar="1/1" mediaStart="269/1" mediaDuration="1188/1" trackNumber="2" src="4" channelNumber="0,1" >
             <Parameters>
              <InterpolatingParam id="3198" interp="linr"  time="0/1" value="1" leadInLength="0/1"  name="volume"/>
              <Parameter id="3199"  name="captions"/>
             </Parameters>
             <Attributes>
              <Attribute id="3200" value="" name="ident"/>
              <Attribute id="3201" value="44100" name="sampleRate"/>
              <Attribute id="3202" value="16" name="bitDepth"/>
              <Attribute id="3203" value="1" name="gain"/>
              <Attribute id="3204" value="0" name="mixToMono"/>
             </Attributes>
            </AMFile>
            <VMFile id="3205" start="234" duration="1188" scalar="1/1" mediaStart="269/1" mediaDuration="1188/1" trackNumber="1" src="4" >
             <Transformer>
              <VectorParam id="3206"  name="translation">
               <InterpolatingParam id="3207" interp="linr"  time="-9999999/1" value="0" leadInLength="0/1"  />
               <InterpolatingParam id="3208" interp="linr"  time="-9999999/1" value="0" leadInLength="0/1"  />
               <InterpolatingParam id="3209" interp="linr"  time="-9999999/1" value="0" leadInLength="0/1"  />
              </VectorParam>
              <VectorParam id="3210"  name="rotation">
               <InterpolatingParam id="3211" interp="linr"  time="-9999999/1" value="0" leadInLength="0/1"  />
               <InterpolatingParam id="3212" interp="linr"  time="-9999999/1" value="0" leadInLength="0/1"  />
               <InterpolatingParam id="3213" interp="linr"  time="-9999999/1" value="0" leadInLength="0/1"  />
              </VectorParam>
              <VectorParam id="3214"  name="shear">
               <InterpolatingParam id="3215" interp="linr"  time="-9999999/1" value="0" leadInLength="0/1"  />
               <InterpolatingParam id="3216" interp="linr"  time="-9999999/1" value="0" leadInLength="0/1"  />
               <InterpolatingParam id="3217" interp="linr"  time="-9999999/1" value="0" leadInLength="0/1"  />
              </VectorParam>
              <VectorParam id="3218"  name="scale">
               <InterpolatingParam id="3219" interp="linr"  time="-9999999/1" value="1" leadInLength="0/1"  />
               <InterpolatingParam id="3220" interp="linr"  time="-9999999/1" value="1" leadInLength="0/1"  />
               <InterpolatingParam id="3221" interp="linr"  time="-9999999/1" value="1" leadInLength="0/1"  />
              </VectorParam>
              <VectorParam id="3222"  name="anchor">
               <InterpolatingParam id="3223" interp="linr"  time="0/1" value="0" leadInLength="0/1"  />
               <InterpolatingParam id="3224" interp="linr"  time="0/1" value="0" leadInLength="0/1"  />
               <InterpolatingParam id="3225" interp="linr"  time="0/1" value="0" leadInLength="0/1"  />
              </VectorParam>
             </Transformer>
             <Parameters>
              <VectorParam id="3226"  name="sourceCrop">
               <InterpolatingParam id="3227" interp="linr"  time="0/1" value="0" leadInLength="0/1"  />
               <InterpolatingParam id="3228" interp="linr"  time="0/1" value="0" leadInLength="0/1"  />
               <InterpolatingParam id="3229" interp="linr"  time="0/1" value="0" leadInLength="0/1"  />
               <InterpolatingParam id="3230" interp="linr"  time="0/1" value="0" leadInLength="0/1"  />
              </VectorParam>
              <VectorParam id="3231"  name="geometryCrop">
               <InterpolatingParam id="3232" interp="linr"  time="-9999999/1" value="0" leadInLength="0/1"  />
               <InterpolatingParam id="3233" interp="linr"  time="-9999999/1" value="0" leadInLength="0/1"  />
               <InterpolatingParam id="3234" interp="linr"  time="-9999999/1" value="0" leadInLength="0/1"  />
               <InterpolatingParam id="3235" interp="linr"  time="-9999999/1" value="0" leadInLength="0/1"  />
              </VectorParam>
              <InterpolatingParam id="3236" interp="linr"  time="-9999999/1" value="1" leadInLength="0/1"  name="opacity"/>
             </Parameters>
             <Attributes>
              <Attribute id="3237" value="" name="ident"/>
             </Attributes>
             <ExtraData>
              <Entry key="ZoomPanBin">
               <ZoomPanBin id="3238"  >
                <ZoomPanKeyframes>
                 <ZoomPanKeyframe id="3239" timeRangeEnd="-9999999/1" timeRangeDuration="0/1" interpolaterName=""  />
                </ZoomPanKeyframes>
               </ZoomPanBin>
              </Entry>
             </ExtraData>
            </VMFile>
            <MetaData>
             <entry key="WinSubProjectDisplayName" val=""/>
            </MetaData>
           </UnifiedMedia>
           <UnifiedMedia id="3240"  >
            <AMFile id="3241" start="1422" duration="776" scalar="1/1" mediaStart="1485/1" mediaDuration="776/1" trackNumber="2" src="4" channelNumber="0,1" >
             <Parameters>
              <InterpolatingParam id="3242" interp="linr"  time="0/1" value="1" leadInLength="0/1"  name="volume"/>
              <Parameter id="3243"  name="captions"/>
             </Parameters>
             <Attributes>
              <Attribute id="3244" value="" name="ident"/>
              <Attribute id="3245" value="44100" name="sampleRate"/>
              <Attribute id="3246" value="16" name="bitDepth"/>
              <Attribute id="3247" value="1" name="gain"/>
              <Attribute id="3248" value="0" name="mixToMono"/>
             </Attributes>
            </AMFile>
            <VMFile id="3249" start="1422" duration="776" scalar="1/1" mediaStart="1485/1" mediaDuration="776/1" trackNumber="1" src="4" >
             <Transformer>
              <VectorParam id="3250"  name="translation">
               <InterpolatingParam id="3251" interp="linr"  time="-9999999/1" value="0" leadInLength="0/1"  />
               <InterpolatingParam id="3252" interp="linr"  time="-9999999/1" value="0" leadInLength="0/1"  />
               <InterpolatingParam id="3253" interp="linr"  time="-9999999/1" value="0" leadInLength="0/1"  />
              </VectorParam>
              <VectorParam id="3254"  name="rotation">
               <InterpolatingParam id="3255" interp="linr"  time="-9999999/1" value="0" leadInLength="0/1"  />
               <InterpolatingParam id="3256" interp="linr"  time="-9999999/1" value="0" leadInLength="0/1"  />
               <InterpolatingParam id="3257" interp="linr"  time="-9999999/1" value="0" leadInLength="0/1"  />
              </VectorParam>
              <VectorParam id="3258"  name="shear">
               <InterpolatingParam id="3259" interp="linr"  time="-9999999/1" value="0" leadInLength="0/1"  />
               <InterpolatingParam id="3260" interp="linr"  time="-9999999/1" value="0" leadInLength="0/1"  />
               <InterpolatingParam id="3261" interp="linr"  time="-9999999/1" value="0" leadInLength="0/1"  />
              </VectorParam>
              <VectorParam id="3262"  name="scale">
               <InterpolatingParam id="3263" interp="linr"  time="-9999999/1" value="1" leadInLength="0/1"  />
               <InterpolatingParam id="3264" interp="linr"  time="-9999999/1" value="1" leadInLength="0/1"  />
               <InterpolatingParam id="3265" interp="linr"  time="-9999999/1" value="1" leadInLength="0/1"  />
              </VectorParam>
              <VectorParam id="3266"  name="anchor">
               <InterpolatingParam id="3267" interp="linr"  time="0/1" value="0" leadInLength="0/1"  />
               <InterpolatingParam id="3268" interp="linr"  time="0/1" value="0" leadInLength="0/1"  />
               <InterpolatingParam id="3269" interp="linr"  time="0/1" value="0" leadInLength="0/1"  />
              </VectorParam>
             </Transformer>
             <Parameters>
              <VectorParam id="3270"  name="sourceCrop">
               <InterpolatingParam id="3271" interp="linr"  time="0/1" value="0" leadInLength="0/1"  />
               <InterpolatingParam id="3272" interp="linr"  time="0/1" value="0" leadInLength="0/1"  />
               <InterpolatingParam id="3273" interp="linr"  time="0/1" value="0" leadInLength="0/1"  />
               <InterpolatingParam id="3274" interp="linr"  time="0/1" value="0" leadInLength="0/1"  />
              </VectorParam>
              <VectorParam id="3275"  name="geometryCrop">
               <InterpolatingParam id="3276" interp="linr"  time="-9999999/1" value="0" leadInLength="0/1"  />
               <InterpolatingParam id="3277" interp="linr"  time="-9999999/1" value="0" leadInLength="0/1"  />
               <InterpolatingParam id="3278" interp="linr"  time="-9999999/1" value="0" leadInLength="0/1"  />
               <InterpolatingParam id="3279" interp="linr"  time="-9999999/1" value="0" leadInLength="0/1"  />
              </VectorParam>
              <InterpolatingParam id="3280" interp="linr"  time="-9999999/1" value="1" leadInLength="0/1"  name="opacity"/>
             </Parameters>
             <Attributes>
              <Attribute id="3281" value="" name="ident"/>
             </Attributes>
             <ExtraData>
              <Entry key="ZoomPanBin">
               <ZoomPanBin id="3282"  >
                <ZoomPanKeyframes>
                 <ZoomPanKeyframe id="3283" timeRangeEnd="-9999999/1" timeRangeDuration="0/1" interpolaterName=""  />
                </ZoomPanKeyframes>
               </ZoomPanBin>
              </Entry>
             </ExtraData>
            </VMFile>
            <MetaData>
             <entry key="WinSubProjectDisplayName" val=""/>
            </MetaData>
           </UnifiedMedia>
           <UnifiedMedia id="3284"  >
            <AMFile id="3285" start="2198" duration="359" scalar="1/1" mediaStart="2295/1" mediaDuration="359/1" trackNumber="2" src="4" channelNumber="0,1" >
             <Parameters>
              <InterpolatingParam id="3286" interp="linr"  time="0/1" value="1" leadInLength="0/1"  name="volume"/>
              <Parameter id="3287"  name="captions"/>
             </Parameters>
             <Attributes>
              <Attribute id="3288" value="" name="ident"/>
              <Attribute id="3289" value="44100" name="sampleRate"/>
              <Attribute id="3290" value="16" name="bitDepth"/>
              <Attribute id="3291" value="1" name="gain"/>
              <Attribute id="3292" value="0" name="mixToMono"/>
             </Attributes>
            </AMFile>
            <VMFile id="3293" start="2198" duration="359" scalar="1/1" mediaStart="2295/1" mediaDuration="359/1" trackNumber="1" src="4" >
             <Transformer>
              <VectorParam id="3294"  name="translation">
               <InterpolatingParam id="3295" interp="linr"  time="-9999999/1" value="0" leadInLength="0/1"  />
               <InterpolatingParam id="3296" interp="linr"  time="-9999999/1" value="0" leadInLength="0/1"  />
               <InterpolatingParam id="3297" interp="linr"  time="-9999999/1" value="0" leadInLength="0/1"  />
              </VectorParam>
              <VectorParam id="3298"  name="rotation">
               <InterpolatingParam id="3299" interp="linr"  time="-9999999/1" value="0" leadInLength="0/1"  />
               <InterpolatingParam id="3300" interp="linr"  time="-9999999/1" value="0" leadInLength="0/1"  />
               <InterpolatingParam id="3301" interp="linr"  time="-9999999/1" value="0" leadInLength="0/1"  />
              </VectorParam>
              <VectorParam id="3302"  name="shear">
               <InterpolatingParam id="3303" interp="linr"  time="-9999999/1" value="0" leadInLength="0/1"  />
               <InterpolatingParam id="3304" interp="linr"  time="-9999999/1" value="0" leadInLength="0/1"  />
               <InterpolatingParam id="3305" interp="linr"  time="-9999999/1" value="0" leadInLength="0/1"  />
              </VectorParam>
              <VectorParam id="3306"  name="scale">
               <InterpolatingParam id="3307" interp="linr"  time="-9999999/1" value="1" leadInLength="0/1"  />
               <InterpolatingParam id="3308" interp="linr"  time="-9999999/1" value="1" leadInLength="0/1"  />
               <InterpolatingParam id="3309" interp="linr"  time="-9999999/1" value="1" leadInLength="0/1"  />
              </VectorParam>
              <VectorParam id="3310"  name="anchor">
               <InterpolatingParam id="3311" interp="linr"  time="0/1" value="0" leadInLength="0/1"  />
               <InterpolatingParam id="3312" interp="linr"  time="0/1" value="0" leadInLength="0/1"  />
               <InterpolatingParam id="3313" interp="linr"  time="0/1" value="0" leadInLength="0/1"  />
              </VectorParam>
             </Transformer>
             <Parameters>
              <VectorParam id="3314"  name="sourceCrop">
               <InterpolatingParam id="3315" interp="linr"  time="0/1" value="0" leadInLength="0/1"  />
               <InterpolatingParam id="3316" interp="linr"  time="0/1" value="0" leadInLength="0/1"  />
               <InterpolatingParam id="3317" interp="linr"  time="0/1" value="0" leadInLength="0/1"  />
               <InterpolatingParam id="3318" interp="linr"  time="0/1" value="0" leadInLength="0/1"  />
              </VectorParam>
              <VectorParam id="3319"  name="geometryCrop">
               <InterpolatingParam id="3320" interp="linr"  time="-9999999/1" value="0" leadInLength="0/1"  />
               <InterpolatingParam id="3321" interp="linr"  time="-9999999/1" value="0" leadInLength="0/1"  />
               <InterpolatingParam id="3322" interp="linr"  time="-9999999/1" value="0" leadInLength="0/1"  />
               <InterpolatingParam id="3323" interp="linr"  time="-9999999/1" value="0" leadInLength="0/1"  />
              </VectorParam>
              <InterpolatingParam id="3324" interp="linr"  time="-9999999/1" value="1" leadInLength="0/1"  name="opacity"/>
             </Parameters>
             <Attributes>
              <Attribute id="3325" value="" name="ident"/>
             </Attributes>
             <ExtraData>
              <Entry key="ZoomPanBin">
               <ZoomPanBin id="3326"  >
                <ZoomPanKeyframes>
                 <ZoomPanKeyframe id="3327" timeRangeEnd="-9999999/1" timeRangeDuration="0/1" interpolaterName=""  />
                </ZoomPanKeyframes>
               </ZoomPanBin>
              </Entry>
             </ExtraData>
            </VMFile>
            <MetaData>
             <entry key="WinSubProjectDisplayName" val=""/>
            </MetaData>
           </UnifiedMedia>
           <UnifiedMedia id="3328"  >
            <AMFile id="3329" start="2557" duration="1" scalar="1/1" mediaStart="2670/1" mediaDuration="1/1" trackNumber="2" src="4" channelNumber="0,1" >
             <Parameters>
              <InterpolatingParam id="3330" interp="linr"  time="0/1" value="1" leadInLength="0/1"  name="volume"/>
              <Parameter id="3331"  name="captions"/>
             </Parameters>
             <Attributes>
              <Attribute id="3332" value="" name="ident"/>
              <Attribute id="3333" value="44100" name="sampleRate"/>
              <Attribute id="3334" value="16" name="bitDepth"/>
              <Attribute id="3335" value="1" name="gain"/>
              <Attribute id="3336" value="0" name="mixToMono"/>
             </Attributes>
            </AMFile>
            <VMFile id="3337" start="2557" duration="1" scalar="1/1" mediaStart="2670/1" mediaDuration="1/1" trackNumber="1" src="4" >
             <Transformer>
              <VectorParam id="3338"  name="translation">
               <InterpolatingParam id="3339" interp="linr"  time="-9999999/1" value="0" leadInLength="0/1"  />
               <InterpolatingParam id="3340" interp="linr"  time="-9999999/1" value="0" leadInLength="0/1"  />
               <InterpolatingParam id="3341" interp="linr"  time="-9999999/1" value="0" leadInLength="0/1"  />
              </VectorParam>
              <VectorParam id="3342"  name="rotation">
               <InterpolatingParam id="3343" interp="linr"  time="-9999999/1" value="0" leadInLength="0/1"  />
               <InterpolatingParam id="3344" interp="linr"  time="-9999999/1" value="0" leadInLength="0/1"  />
               <InterpolatingParam id="3345" interp="linr"  time="-9999999/1" value="0" leadInLength="0/1"  />
              </VectorParam>
              <VectorParam id="3346"  name="shear">
               <InterpolatingParam id="3347" interp="linr"  time="-9999999/1" value="0" leadInLength="0/1"  />
               <InterpolatingParam id="3348" interp="linr"  time="-9999999/1" value="0" leadInLength="0/1"  />
               <InterpolatingParam id="3349" interp="linr"  time="-9999999/1" value="0" leadInLength="0/1"  />
              </VectorParam>
              <VectorParam id="3350"  name="scale">
               <InterpolatingParam id="3351" interp="linr"  time="-9999999/1" value="1" leadInLength="0/1"  />
               <InterpolatingParam id="3352" interp="linr"  time="-9999999/1" value="1" leadInLength="0/1"  />
               <InterpolatingParam id="3353" interp="linr"  time="-9999999/1" value="1" leadInLength="0/1"  />
              </VectorParam>
              <VectorParam id="3354"  name="anchor">
               <InterpolatingParam id="3355" interp="linr"  time="0/1" value="0" leadInLength="0/1"  />
               <InterpolatingParam id="3356" interp="linr"  time="0/1" value="0" leadInLength="0/1"  />
               <InterpolatingParam id="3357" interp="linr"  time="0/1" value="0" leadInLength="0/1"  />
              </VectorParam>
             </Transformer>
             <Parameters>
              <VectorParam id="3358"  name="sourceCrop">
               <InterpolatingParam id="3359" interp="linr"  time="0/1" value="0" leadInLength="0/1"  />
               <InterpolatingParam id="3360" interp="linr"  time="0/1" value="0" leadInLength="0/1"  />
               <InterpolatingParam id="3361" interp="linr"  time="0/1" value="0" leadInLength="0/1"  />
               <InterpolatingParam id="3362" interp="linr"  time="0/1" value="0" leadInLength="0/1"  />
              </VectorParam>
              <VectorParam id="3363"  name="geometryCrop">
               <InterpolatingParam id="3364" interp="linr"  time="-9999999/1" value="0" leadInLength="0/1"  />
               <InterpolatingParam id="3365" interp="linr"  time="-9999999/1" value="0" leadInLength="0/1"  />
               <InterpolatingParam id="3366" interp="linr"  time="-9999999/1" value="0" leadInLength="0/1"  />
               <InterpolatingParam id="3367" interp="linr"  time="-9999999/1" value="0" leadInLength="0/1"  />
              </VectorParam>
              <InterpolatingParam id="3368" interp="linr"  time="-9999999/1" value="1" leadInLength="0/1"  name="opacity"/>
             </Parameters>
             <Attributes>
              <Attribute id="3369" value="" name="ident"/>
             </Attributes>
             <ExtraData>
              <Entry key="ZoomPanBin">
               <ZoomPanBin id="3370"  >
                <ZoomPanKeyframes>
                 <ZoomPanKeyframe id="3371" timeRangeEnd="-9999999/1" timeRangeDuration="0/1" interpolaterName=""  />
                </ZoomPanKeyframes>
               </ZoomPanBin>
              </Entry>
             </ExtraData>
            </VMFile>
            <MetaData>
             <entry key="WinSubProjectDisplayName" val=""/>
            </MetaData>
           </UnifiedMedia>
           <UnifiedMedia id="3372"  >
            <AMFile id="3373" start="2558" duration="418" scalar="1/1" mediaStart="2798/1" mediaDuration="418/1" trackNumber="2" src="4" channelNumber="0,1" >
             <Parameters>
              <InterpolatingParam id="3374" interp="linr"  time="0/1" value="1" leadInLength="0/1"  name="volume"/>
              <Parameter id="3375"  name="captions"/>
             </Parameters>
             <Attributes>
              <Attribute id="3376" value="" name="ident"/>
              <Attribute id="3377" value="44100" name="sampleRate"/>
              <Attribute id="3378" value="16" name="bitDepth"/>
              <Attribute id="3379" value="1" name="gain"/>
              <Attribute id="3380" value="0" name="mixToMono"/>
             </Attributes>
            </AMFile>
            <VMFile id="3381" start="2558" duration="418" scalar="1/1" mediaStart="2798/1" mediaDuration="418/1" trackNumber="1" src="4" >
             <Transformer>
              <VectorParam id="3382"  name="translation">
               <InterpolatingParam id="3383" interp="linr"  time="-9999999/1" value="0" leadInLength="0/1"  />
               <InterpolatingParam id="3384" interp="linr"  time="-9999999/1" value="0" leadInLength="0/1"  />
               <InterpolatingParam id="3385" interp="linr"  time="-9999999/1" value="0" leadInLength="0/1"  />
              </VectorParam>
              <VectorParam id="3386"  name="rotation">
               <InterpolatingParam id="3387" interp="linr"  time="-9999999/1" value="0" leadInLength="0/1"  />
               <InterpolatingParam id="3388" interp="linr"  time="-9999999/1" value="0" leadInLength="0/1"  />
               <InterpolatingParam id="3389" interp="linr"  time="-9999999/1" value="0" leadInLength="0/1"  />
              </VectorParam>
              <VectorParam id="3390"  name="shear">
               <InterpolatingParam id="3391" interp="linr"  time="-9999999/1" value="0" leadInLength="0/1"  />
               <InterpolatingParam id="3392" interp="linr"  time="-9999999/1" value="0" leadInLength="0/1"  />
               <InterpolatingParam id="3393" interp="linr"  time="-9999999/1" value="0" leadInLength="0/1"  />
              </VectorParam>
              <VectorParam id="3394"  name="scale">
               <InterpolatingParam id="3395" interp="linr"  time="-9999999/1" value="1" leadInLength="0/1"  />
               <InterpolatingParam id="3396" interp="linr"  time="-9999999/1" value="1" leadInLength="0/1"  />
               <InterpolatingParam id="3397" interp="linr"  time="-9999999/1" value="1" leadInLength="0/1"  />
              </VectorParam>
              <VectorParam id="3398"  name="anchor">
               <InterpolatingParam id="3399" interp="linr"  time="0/1" value="0" leadInLength="0/1"  />
               <InterpolatingParam id="3400" interp="linr"  time="0/1" value="0" leadInLength="0/1"  />
               <InterpolatingParam id="3401" interp="linr"  time="0/1" value="0" leadInLength="0/1"  />
              </VectorParam>
             </Transformer>
             <Parameters>
              <VectorParam id="3402"  name="sourceCrop">
               <InterpolatingParam id="3403" interp="linr"  time="0/1" value="0" leadInLength="0/1"  />
               <InterpolatingParam id="3404" interp="linr"  time="0/1" value="0" leadInLength="0/1"  />
               <InterpolatingParam id="3405" interp="linr"  time="0/1" value="0" leadInLength="0/1"  />
               <InterpolatingParam id="3406" interp="linr"  time="0/1" value="0" leadInLength="0/1"  />
              </VectorParam>
              <VectorParam id="3407"  name="geometryCrop">
               <InterpolatingParam id="3408" interp="linr"  time="-9999999/1" value="0" leadInLength="0/1"  />
               <InterpolatingParam id="3409" interp="linr"  time="-9999999/1" value="0" leadInLength="0/1"  />
               <InterpolatingParam id="3410" interp="linr"  time="-9999999/1" value="0" leadInLength="0/1"  />
               <InterpolatingParam id="3411" interp="linr"  time="-9999999/1" value="0" leadInLength="0/1"  />
              </VectorParam>
              <InterpolatingParam id="3412" interp="linr"  time="-9999999/1" value="1" leadInLength="0/1"  name="opacity"/>
             </Parameters>
             <Attributes>
              <Attribute id="3413" value="" name="ident"/>
             </Attributes>
             <ExtraData>
              <Entry key="ZoomPanBin">
               <ZoomPanBin id="3414"  >
                <ZoomPanKeyframes>
                 <ZoomPanKeyframe id="3415" timeRangeEnd="-9999999/1" timeRangeDuration="0/1" interpolaterName=""  />
                </ZoomPanKeyframes>
               </ZoomPanBin>
              </Entry>
             </ExtraData>
            </VMFile>
            <MetaData>
             <entry key="WinSubProjectDisplayName" val=""/>
            </MetaData>
           </UnifiedMedia>
           <UnifiedMedia id="3416"  >
            <AMFile id="3417" start="2976" duration="247" scalar="1/1" mediaStart="3250/1" mediaDuration="247/1" trackNumber="2" src="4" channelNumber="0,1" >
             <Parameters>
              <InterpolatingParam id="3418" interp="linr"  time="0/1" value="1" leadInLength="0/1"  name="volume"/>
              <Parameter id="3419"  name="captions"/>
             </Parameters>
             <Attributes>
              <Attribute id="3420" value="" name="ident"/>
              <Attribute id="3421" value="44100" name="sampleRate"/>
              <Attribute id="3422" value="16" name="bitDepth"/>
              <Attribute id="3423" value="1" name="gain"/>
              <Attribute id="3424" value="0" name="mixToMono"/>
             </Attributes>
            </AMFile>
            <VMFile id="3425" start="2976" duration="247" scalar="1/1" mediaStart="3250/1" mediaDuration="247/1" trackNumber="1" src="4" >
             <Transformer>
              <VectorParam id="3426"  name="translation">
               <InterpolatingParam id="3427" interp="linr"  time="-9999999/1" value="0" leadInLength="0/1"  />
               <InterpolatingParam id="3428" interp="linr"  time="-9999999/1" value="0" leadInLength="0/1"  />
               <InterpolatingParam id="3429" interp="linr"  time="-9999999/1" value="0" leadInLength="0/1"  />
              </VectorParam>
              <VectorParam id="3430"  name="rotation">
               <InterpolatingParam id="3431" interp="linr"  time="-9999999/1" value="0" leadInLength="0/1"  />
               <InterpolatingParam id="3432" interp="linr"  time="-9999999/1" value="0" leadInLength="0/1"  />
               <InterpolatingParam id="3433" interp="linr"  time="-9999999/1" value="0" leadInLength="0/1"  />
              </VectorParam>
              <VectorParam id="3434"  name="shear">
               <InterpolatingParam id="3435" interp="linr"  time="-9999999/1" value="0" leadInLength="0/1"  />
               <InterpolatingParam id="3436" interp="linr"  time="-9999999/1" value="0" leadInLength="0/1"  />
               <InterpolatingParam id="3437" interp="linr"  time="-9999999/1" value="0" leadInLength="0/1"  />
              </VectorParam>
              <VectorParam id="3438"  name="scale">
               <InterpolatingParam id="3439" interp="linr"  time="-9999999/1" value="1" leadInLength="0/1"  />
               <InterpolatingParam id="3440" interp="linr"  time="-9999999/1" value="1" leadInLength="0/1"  />
               <InterpolatingParam id="3441" interp="linr"  time="-9999999/1" value="1" leadInLength="0/1"  />
              </VectorParam>
              <VectorParam id="3442"  name="anchor">
               <InterpolatingParam id="3443" interp="linr"  time="0/1" value="0" leadInLength="0/1"  />
               <InterpolatingParam id="3444" interp="linr"  time="0/1" value="0" leadInLength="0/1"  />
               <InterpolatingParam id="3445" interp="linr"  time="0/1" value="0" leadInLength="0/1"  />
              </VectorParam>
             </Transformer>
             <Parameters>
              <VectorParam id="3446"  name="sourceCrop">
               <InterpolatingParam id="3447" interp="linr"  time="0/1" value="0" leadInLength="0/1"  />
               <InterpolatingParam id="3448" interp="linr"  time="0/1" value="0" leadInLength="0/1"  />
               <InterpolatingParam id="3449" interp="linr"  time="0/1" value="0" leadInLength="0/1"  />
               <InterpolatingParam id="3450" interp="linr"  time="0/1" value="0" leadInLength="0/1"  />
              </VectorParam>
              <VectorParam id="3451"  name="geometryCrop">
               <InterpolatingParam id="3452" interp="linr"  time="-9999999/1" value="0" leadInLength="0/1"  />
               <InterpolatingParam id="3453" interp="linr"  time="-9999999/1" value="0" leadInLength="0/1"  />
               <InterpolatingParam id="3454" interp="linr"  time="-9999999/1" value="0" leadInLength="0/1"  />
               <InterpolatingParam id="3455" interp="linr"  time="-9999999/1" value="0" leadInLength="0/1"  />
              </VectorParam>
              <InterpolatingParam id="3456" interp="linr"  time="-9999999/1" value="1" leadInLength="0/1"  name="opacity"/>
             </Parameters>
             <Attributes>
              <Attribute id="3457" value="" name="ident"/>
             </Attributes>
             <ExtraData>
              <Entry key="ZoomPanBin">
               <ZoomPanBin id="3458"  >
                <ZoomPanKeyframes>
                 <ZoomPanKeyframe id="3459" timeRangeEnd="-9999999/1" timeRangeDuration="0/1" interpolaterName=""  />
                </ZoomPanKeyframes>
               </ZoomPanBin>
              </Entry>
             </ExtraData>
            </VMFile>
            <MetaData>
             <entry key="WinSubProjectDisplayName" val=""/>
            </MetaData>
           </UnifiedMedia>
           <UnifiedMedia id="3460"  >
            <AMFile id="3461" start="3223" duration="63" scalar="1/1" mediaStart="3630/1" mediaDuration="63/1" trackNumber="2" src="4" channelNumber="0,1" >
             <Parameters>
              <InterpolatingParam id="3462" interp="linr"  time="0/1" value="1" leadInLength="0/1"  name="volume"/>
              <Parameter id="3463"  name="captions"/>
             </Parameters>
             <Attributes>
              <Attribute id="3464" value="" name="ident"/>
              <Attribute id="3465" value="44100" name="sampleRate"/>
              <Attribute id="3466" value="16" name="bitDepth"/>
              <Attribute id="3467" value="1" name="gain"/>
              <Attribute id="3468" value="0" name="mixToMono"/>
             </Attributes>
            </AMFile>
            <VMFile id="3469" start="3223" duration="63" scalar="1/1" mediaStart="3630/1" mediaDuration="63/1" trackNumber="1" src="4" >
             <Transformer>
              <VectorParam id="3470"  name="translation">
               <InterpolatingParam id="3471" interp="linr"  time="-9999999/1" value="0" leadInLength="0/1"  />
               <InterpolatingParam id="3472" interp="linr"  time="-9999999/1" value="0" leadInLength="0/1"  />
               <InterpolatingParam id="3473" interp="linr"  time="-9999999/1" value="0" leadInLength="0/1"  />
              </VectorParam>
              <VectorParam id="3474"  name="rotation">
               <InterpolatingParam id="3475" interp="linr"  time="-9999999/1" value="0" leadInLength="0/1"  />
               <InterpolatingParam id="3476" interp="linr"  time="-9999999/1" value="0" leadInLength="0/1"  />
               <InterpolatingParam id="3477" interp="linr"  time="-9999999/1" value="0" leadInLength="0/1"  />
              </VectorParam>
              <VectorParam id="3478"  name="shear">
               <InterpolatingParam id="3479" interp="linr"  time="-9999999/1" value="0" leadInLength="0/1"  />
               <InterpolatingParam id="3480" interp="linr"  time="-9999999/1" value="0" leadInLength="0/1"  />
               <InterpolatingParam id="3481" interp="linr"  time="-9999999/1" value="0" leadInLength="0/1"  />
              </VectorParam>
              <VectorParam id="3482"  name="scale">
               <InterpolatingParam id="3483" interp="linr"  time="-9999999/1" value="1" leadInLength="0/1"  />
               <InterpolatingParam id="3484" interp="linr"  time="-9999999/1" value="1" leadInLength="0/1"  />
               <InterpolatingParam id="3485" interp="linr"  time="-9999999/1" value="1" leadInLength="0/1"  />
              </VectorParam>
              <VectorParam id="3486"  name="anchor">
               <InterpolatingParam id="3487" interp="linr"  time="0/1" value="0" leadInLength="0/1"  />
               <InterpolatingParam id="3488" interp="linr"  time="0/1" value="0" leadInLength="0/1"  />
               <InterpolatingParam id="3489" interp="linr"  time="0/1" value="0" leadInLength="0/1"  />
              </VectorParam>
             </Transformer>
             <Parameters>
              <VectorParam id="3490"  name="sourceCrop">
               <InterpolatingParam id="3491" interp="linr"  time="0/1" value="0" leadInLength="0/1"  />
               <InterpolatingParam id="3492" interp="linr"  time="0/1" value="0" leadInLength="0/1"  />
               <InterpolatingParam id="3493" interp="linr"  time="0/1" value="0" leadInLength="0/1"  />
               <InterpolatingParam id="3494" interp="linr"  time="0/1" value="0" leadInLength="0/1"  />
              </VectorParam>
              <VectorParam id="3495"  name="geometryCrop">
               <InterpolatingParam id="3496" interp="linr"  time="-9999999/1" value="0" leadInLength="0/1"  />
               <InterpolatingParam id="3497" interp="linr"  time="-9999999/1" value="0" leadInLength="0/1"  />
               <InterpolatingParam id="3498" interp="linr"  time="-9999999/1" value="0" leadInLength="0/1"  />
               <InterpolatingParam id="3499" interp="linr"  time="-9999999/1" value="0" leadInLength="0/1"  />
              </VectorParam>
              <InterpolatingParam id="3500" interp="linr"  time="-9999999/1" value="1" leadInLength="0/1"  name="opacity"/>
             </Parameters>
             <Attributes>
              <Attribute id="3501" value="" name="ident"/>
             </Attributes>
             <ExtraData>
              <Entry key="ZoomPanBin">
               <ZoomPanBin id="3502"  >
                <ZoomPanKeyframes>
                 <ZoomPanKeyframe id="3503" timeRangeEnd="-9999999/1" timeRangeDuration="0/1" interpolaterName=""  />
                </ZoomPanKeyframes>
               </ZoomPanBin>
              </Entry>
             </ExtraData>
            </VMFile>
            <MetaData>
             <entry key="WinSubProjectDisplayName" val=""/>
            </MetaData>
           </UnifiedMedia>
           <UnifiedMedia id="3504"  >
            <AMFile id="3505" start="3286" duration="1" scalar="1/1" mediaStart="3778/1" mediaDuration="1/1" trackNumber="2" src="4" channelNumber="0,1" >
             <Parameters>
              <InterpolatingParam id="3506" interp="linr"  time="0/1" value="1" leadInLength="0/1"  name="volume"/>
              <Parameter id="3507"  name="captions"/>
             </Parameters>
             <Attributes>
              <Attribute id="3508" value="" name="ident"/>
              <Attribute id="3509" value="44100" name="sampleRate"/>
              <Attribute id="3510" value="16" name="bitDepth"/>
              <Attribute id="3511" value="1" name="gain"/>
              <Attribute id="3512" value="0" name="mixToMono"/>
             </Attributes>
            </AMFile>
            <VMFile id="3513" start="3286" duration="1" scalar="1/1" mediaStart="3778/1" mediaDuration="1/1" trackNumber="1" src="4" >
             <Transformer>
              <VectorParam id="3514"  name="translation">
               <InterpolatingParam id="3515" interp="linr"  time="-9999999/1" value="0" leadInLength="0/1"  />
               <InterpolatingParam id="3516" interp="linr"  time="-9999999/1" value="0" leadInLength="0/1"  />
               <InterpolatingParam id="3517" interp="linr"  time="-9999999/1" value="0" leadInLength="0/1"  />
              </VectorParam>
              <VectorParam id="3518"  name="rotation">
               <InterpolatingParam id="3519" interp="linr"  time="-9999999/1" value="0" leadInLength="0/1"  />
               <InterpolatingParam id="3520" interp="linr"  time="-9999999/1" value="0" leadInLength="0/1"  />
               <InterpolatingParam id="3521" interp="linr"  time="-9999999/1" value="0" leadInLength="0/1"  />
              </VectorParam>
              <VectorParam id="3522"  name="shear">
               <InterpolatingParam id="3523" interp="linr"  time="-9999999/1" value="0" leadInLength="0/1"  />
               <InterpolatingParam id="3524" interp="linr"  time="-9999999/1" value="0" leadInLength="0/1"  />
               <InterpolatingParam id="3525" interp="linr"  time="-9999999/1" value="0" leadInLength="0/1"  />
              </VectorParam>
              <VectorParam id="3526"  name="scale">
               <InterpolatingParam id="3527" interp="linr"  time="-9999999/1" value="1" leadInLength="0/1"  />
               <InterpolatingParam id="3528" interp="linr"  time="-9999999/1" value="1" leadInLength="0/1"  />
               <InterpolatingParam id="3529" interp="linr"  time="-9999999/1" value="1" leadInLength="0/1"  />
              </VectorParam>
              <VectorParam id="3530"  name="anchor">
               <InterpolatingParam id="3531" interp="linr"  time="0/1" value="0" leadInLength="0/1"  />
               <InterpolatingParam id="3532" interp="linr"  time="0/1" value="0" leadInLength="0/1"  />
               <InterpolatingParam id="3533" interp="linr"  time="0/1" value="0" leadInLength="0/1"  />
              </VectorParam>
             </Transformer>
             <Parameters>
              <VectorParam id="3534"  name="sourceCrop">
               <InterpolatingParam id="3535" interp="linr"  time="0/1" value="0" leadInLength="0/1"  />
               <InterpolatingParam id="3536" interp="linr"  time="0/1" value="0" leadInLength="0/1"  />
               <InterpolatingParam id="3537" interp="linr"  time="0/1" value="0" leadInLength="0/1"  />
               <InterpolatingParam id="3538" interp="linr"  time="0/1" value="0" leadInLength="0/1"  />
              </VectorParam>
              <VectorParam id="3539"  name="geometryCrop">
               <InterpolatingParam id="3540" interp="linr"  time="-9999999/1" value="0" leadInLength="0/1"  />
               <InterpolatingParam id="3541" interp="linr"  time="-9999999/1" value="0" leadInLength="0/1"  />
               <InterpolatingParam id="3542" interp="linr"  time="-9999999/1" value="0" leadInLength="0/1"  />
               <InterpolatingParam id="3543" interp="linr"  time="-9999999/1" value="0" leadInLength="0/1"  />
              </VectorParam>
              <InterpolatingParam id="3544" interp="linr"  time="-9999999/1" value="1" leadInLength="0/1"  name="opacity"/>
             </Parameters>
             <Attributes>
              <Attribute id="3545" value="" name="ident"/>
             </Attributes>
             <ExtraData>
              <Entry key="ZoomPanBin">
               <ZoomPanBin id="3546"  >
                <ZoomPanKeyframes>
                 <ZoomPanKeyframe id="3547" timeRangeEnd="-9999999/1" timeRangeDuration="0/1" interpolaterName=""  />
                </ZoomPanKeyframes>
               </ZoomPanBin>
              </Entry>
             </ExtraData>
            </VMFile>
            <MetaData>
             <entry key="WinSubProjectDisplayName" val=""/>
            </MetaData>
           </UnifiedMedia>
           <UnifiedMedia id="3548"  >
            <AMFile id="3549" start="3287" duration="6" scalar="1/1" mediaStart="3788/1" mediaDuration="6/1" trackNumber="2" src="4" channelNumber="0,1" >
             <Parameters>
              <InterpolatingParam id="3550" interp="linr"  time="0/1" value="1" leadInLength="0/1"  name="volume"/>
              <Parameter id="3551"  name="captions"/>
             </Parameters>
             <Attributes>
              <Attribute id="3552" value="" name="ident"/>
              <Attribute id="3553" value="44100" name="sampleRate"/>
              <Attribute id="3554" value="16" name="bitDepth"/>
              <Attribute id="3555" value="1" name="gain"/>
              <Attribute id="3556" value="0" name="mixToMono"/>
             </Attributes>
            </AMFile>
            <VMFile id="3557" start="3287" duration="6" scalar="1/1" mediaStart="3788/1" mediaDuration="6/1" trackNumber="1" src="4" >
             <Transformer>
              <VectorParam id="3558"  name="translation">
               <InterpolatingParam id="3559" interp="linr"  time="-9999999/1" value="0" leadInLength="0/1"  />
               <InterpolatingParam id="3560" interp="linr"  time="-9999999/1" value="0" leadInLength="0/1"  />
               <InterpolatingParam id="3561" interp="linr"  time="-9999999/1" value="0" leadInLength="0/1"  />
              </VectorParam>
              <VectorParam id="3562"  name="rotation">
               <InterpolatingParam id="3563" interp="linr"  time="-9999999/1" value="0" leadInLength="0/1"  />
               <InterpolatingParam id="3564" interp="linr"  time="-9999999/1" value="0" leadInLength="0/1"  />
               <InterpolatingParam id="3565" interp="linr"  time="-9999999/1" value="0" leadInLength="0/1"  />
              </VectorParam>
              <VectorParam id="3566"  name="shear">
               <InterpolatingParam id="3567" interp="linr"  time="-9999999/1" value="0" leadInLength="0/1"  />
               <InterpolatingParam id="3568" interp="linr"  time="-9999999/1" value="0" leadInLength="0/1"  />
               <InterpolatingParam id="3569" interp="linr"  time="-9999999/1" value="0" leadInLength="0/1"  />
              </VectorParam>
              <VectorParam id="3570"  name="scale">
               <InterpolatingParam id="3571" interp="linr"  time="-9999999/1" value="1" leadInLength="0/1"  />
               <InterpolatingParam id="3572" interp="linr"  time="-9999999/1" value="1" leadInLength="0/1"  />
               <InterpolatingParam id="3573" interp="linr"  time="-9999999/1" value="1" leadInLength="0/1"  />
              </VectorParam>
              <VectorParam id="3574"  name="anchor">
               <InterpolatingParam id="3575" interp="linr"  time="0/1" value="0" leadInLength="0/1"  />
               <InterpolatingParam id="3576" interp="linr"  time="0/1" value="0" leadInLength="0/1"  />
               <InterpolatingParam id="3577" interp="linr"  time="0/1" value="0" leadInLength="0/1"  />
              </VectorParam>
             </Transformer>
             <Parameters>
              <VectorParam id="3578"  name="sourceCrop">
               <InterpolatingParam id="3579" interp="linr"  time="0/1" value="0" leadInLength="0/1"  />
               <InterpolatingParam id="3580" interp="linr"  time="0/1" value="0" leadInLength="0/1"  />
               <InterpolatingParam id="3581" interp="linr"  time="0/1" value="0" leadInLength="0/1"  />
               <InterpolatingParam id="3582" interp="linr"  time="0/1" value="0" leadInLength="0/1"  />
              </VectorParam>
              <VectorParam id="3583"  name="geometryCrop">
               <InterpolatingParam id="3584" interp="linr"  time="-9999999/1" value="0" leadInLength="0/1"  />
               <InterpolatingParam id="3585" interp="linr"  time="-9999999/1" value="0" leadInLength="0/1"  />
               <InterpolatingParam id="3586" interp="linr"  time="-9999999/1" value="0" leadInLength="0/1"  />
               <InterpolatingParam id="3587" interp="linr"  time="-9999999/1" value="0" leadInLength="0/1"  />
              </VectorParam>
              <InterpolatingParam id="3588" interp="linr"  time="-9999999/1" value="1" leadInLength="0/1"  name="opacity"/>
             </Parameters>
             <Attributes>
              <Attribute id="3589" value="" name="ident"/>
             </Attributes>
             <ExtraData>
              <Entry key="ZoomPanBin">
               <ZoomPanBin id="3590"  >
                <ZoomPanKeyframes>
                 <ZoomPanKeyframe id="3591" timeRangeEnd="-9999999/1" timeRangeDuration="0/1" interpolaterName=""  />
                </ZoomPanKeyframes>
               </ZoomPanBin>
              </Entry>
             </ExtraData>
            </VMFile>
            <MetaData>
             <entry key="WinSubProjectDisplayName" val=""/>
            </MetaData>
           </UnifiedMedia>
           <UnifiedMedia id="3592"  >
            <AMFile id="3593" start="3293" duration="211" scalar="1/1" mediaStart="3861/1" mediaDuration="211/1" trackNumber="2" src="4" channelNumber="0,1" >
             <Parameters>
              <InterpolatingParam id="3594" interp="linr"  time="0/1" value="1" leadInLength="0/1"  name="volume"/>
              <Parameter id="3595"  name="captions"/>
             </Parameters>
             <Attributes>
              <Attribute id="3596" value="" name="ident"/>
              <Attribute id="3597" value="44100" name="sampleRate"/>
              <Attribute id="3598" value="16" name="bitDepth"/>
              <Attribute id="3599" value="1" name="gain"/>
              <Attribute id="3600" value="0" name="mixToMono"/>
             </Attributes>
            </AMFile>
            <VMFile id="3601" start="3293" duration="211" scalar="1/1" mediaStart="3861/1" mediaDuration="211/1" trackNumber="1" src="4" >
             <Transformer>
              <VectorParam id="3602"  name="translation">
               <InterpolatingParam id="3603" interp="linr"  time="-9999999/1" value="0" leadInLength="0/1"  />
               <InterpolatingParam id="3604" interp="linr"  time="-9999999/1" value="0" leadInLength="0/1"  />
               <InterpolatingParam id="3605" interp="linr"  time="-9999999/1" value="0" leadInLength="0/1"  />
              </VectorParam>
              <VectorParam id="3606"  name="rotation">
               <InterpolatingParam id="3607" interp="linr"  time="-9999999/1" value="0" leadInLength="0/1"  />
               <InterpolatingParam id="3608" interp="linr"  time="-9999999/1" value="0" leadInLength="0/1"  />
               <InterpolatingParam id="3609" interp="linr"  time="-9999999/1" value="0" leadInLength="0/1"  />
              </VectorParam>
              <VectorParam id="3610"  name="shear">
               <InterpolatingParam id="3611" interp="linr"  time="-9999999/1" value="0" leadInLength="0/1"  />
               <InterpolatingParam id="3612" interp="linr"  time="-9999999/1" value="0" leadInLength="0/1"  />
               <InterpolatingParam id="3613" interp="linr"  time="-9999999/1" value="0" leadInLength="0/1"  />
              </VectorParam>
              <VectorParam id="3614"  name="scale">
               <InterpolatingParam id="3615" interp="linr"  time="-9999999/1" value="1" leadInLength="0/1"  />
               <InterpolatingParam id="3616" interp="linr"  time="-9999999/1" value="1" leadInLength="0/1"  />
               <InterpolatingParam id="3617" interp="linr"  time="-9999999/1" value="1" leadInLength="0/1"  />
              </VectorParam>
              <VectorParam id="3618"  name="anchor">
               <InterpolatingParam id="3619" interp="linr"  time="0/1" value="0" leadInLength="0/1"  />
               <InterpolatingParam id="3620" interp="linr"  time="0/1" value="0" leadInLength="0/1"  />
               <InterpolatingParam id="3621" interp="linr"  time="0/1" value="0" leadInLength="0/1"  />
              </VectorParam>
             </Transformer>
             <Parameters>
              <VectorParam id="3622"  name="sourceCrop">
               <InterpolatingParam id="3623" interp="linr"  time="0/1" value="0" leadInLength="0/1"  />
               <InterpolatingParam id="3624" interp="linr"  time="0/1" value="0" leadInLength="0/1"  />
               <InterpolatingParam id="3625" interp="linr"  time="0/1" value="0" leadInLength="0/1"  />
               <InterpolatingParam id="3626" interp="linr"  time="0/1" value="0" leadInLength="0/1"  />
              </VectorParam>
              <VectorParam id="3627"  name="geometryCrop">
               <InterpolatingParam id="3628" interp="linr"  time="-9999999/1" value="0" leadInLength="0/1"  />
               <InterpolatingParam id="3629" interp="linr"  time="-9999999/1" value="0" leadInLength="0/1"  />
               <InterpolatingParam id="3630" interp="linr"  time="-9999999/1" value="0" leadInLength="0/1"  />
               <InterpolatingParam id="3631" interp="linr"  time="-9999999/1" value="0" leadInLength="0/1"  />
              </VectorParam>
              <InterpolatingParam id="3632" interp="linr"  time="-9999999/1" value="1" leadInLength="0/1"  name="opacity"/>
             </Parameters>
             <Attributes>
              <Attribute id="3633" value="" name="ident"/>
             </Attributes>
             <ExtraData>
              <Entry key="ZoomPanBin">
               <ZoomPanBin id="3634"  >
                <ZoomPanKeyframes>
                 <ZoomPanKeyframe id="3635" timeRangeEnd="-9999999/1" timeRangeDuration="0/1" interpolaterName=""  />
                </ZoomPanKeyframes>
               </ZoomPanBin>
              </Entry>
             </ExtraData>
            </VMFile>
            <MetaData>
             <entry key="WinSubProjectDisplayName" val=""/>
            </MetaData>
           </UnifiedMedia>
           <UnifiedMedia id="3636"  >
            <AMFile id="3637" start="3504" duration="1479" scalar="1/1" mediaStart="4102/1" mediaDuration="1479/1" trackNumber="2" src="4" channelNumber="0,1" >
             <Parameters>
              <InterpolatingParam id="3638" interp="linr"  time="0/1" value="1" leadInLength="0/1"  name="volume"/>
              <Parameter id="3639"  name="captions"/>
             </Parameters>
             <Attributes>
              <Attribute id="3640" value="" name="ident"/>
              <Attribute id="3641" value="44100" name="sampleRate"/>
              <Attribute id="3642" value="16" name="bitDepth"/>
              <Attribute id="3643" value="1" name="gain"/>
              <Attribute id="3644" value="0" name="mixToMono"/>
             </Attributes>
            </AMFile>
            <VMFile id="3645" start="3504" duration="1479" scalar="1/1" mediaStart="4102/1" mediaDuration="1479/1" trackNumber="1" src="4" >
             <Transformer>
              <VectorParam id="3646"  name="translation">
               <InterpolatingParam id="3647" interp="linr"  time="-9999999/1" value="0" leadInLength="0/1"  />
               <InterpolatingParam id="3648" interp="linr"  time="-9999999/1" value="0" leadInLength="0/1"  />
               <InterpolatingParam id="3649" interp="linr"  time="-9999999/1" value="0" leadInLength="0/1"  />
              </VectorParam>
              <VectorParam id="3650"  name="rotation">
               <InterpolatingParam id="3651" interp="linr"  time="-9999999/1" value="0" leadInLength="0/1"  />
               <InterpolatingParam id="3652" interp="linr"  time="-9999999/1" value="0" leadInLength="0/1"  />
               <InterpolatingParam id="3653" interp="linr"  time="-9999999/1" value="0" leadInLength="0/1"  />
              </VectorParam>
              <VectorParam id="3654"  name="shear">
               <InterpolatingParam id="3655" interp="linr"  time="-9999999/1" value="0" leadInLength="0/1"  />
               <InterpolatingParam id="3656" interp="linr"  time="-9999999/1" value="0" leadInLength="0/1"  />
               <InterpolatingParam id="3657" interp="linr"  time="-9999999/1" value="0" leadInLength="0/1"  />
              </VectorParam>
              <VectorParam id="3658"  name="scale">
               <InterpolatingParam id="3659" interp="linr"  time="-9999999/1" value="1" leadInLength="0/1"  />
               <InterpolatingParam id="3660" interp="linr"  time="-9999999/1" value="1" leadInLength="0/1"  />
               <InterpolatingParam id="3661" interp="linr"  time="-9999999/1" value="1" leadInLength="0/1"  />
              </VectorParam>
              <VectorParam id="3662"  name="anchor">
               <InterpolatingParam id="3663" interp="linr"  time="0/1" value="0" leadInLength="0/1"  />
               <InterpolatingParam id="3664" interp="linr"  time="0/1" value="0" leadInLength="0/1"  />
               <InterpolatingParam id="3665" interp="linr"  time="0/1" value="0" leadInLength="0/1"  />
              </VectorParam>
             </Transformer>
             <Parameters>
              <VectorParam id="3666"  name="sourceCrop">
               <InterpolatingParam id="3667" interp="linr"  time="0/1" value="0" leadInLength="0/1"  />
               <InterpolatingParam id="3668" interp="linr"  time="0/1" value="0" leadInLength="0/1"  />
               <InterpolatingParam id="3669" interp="linr"  time="0/1" value="0" leadInLength="0/1"  />
               <InterpolatingParam id="3670" interp="linr"  time="0/1" value="0" leadInLength="0/1"  />
              </VectorParam>
              <VectorParam id="3671"  name="geometryCrop">
               <InterpolatingParam id="3672" interp="linr"  time="-9999999/1" value="0" leadInLength="0/1"  />
               <InterpolatingParam id="3673" interp="linr"  time="-9999999/1" value="0" leadInLength="0/1"  />
               <InterpolatingParam id="3674" interp="linr"  time="-9999999/1" value="0" leadInLength="0/1"  />
               <InterpolatingParam id="3675" interp="linr"  time="-9999999/1" value="0" leadInLength="0/1"  />
              </VectorParam>
              <InterpolatingParam id="3676" interp="linr"  time="-9999999/1" value="1" leadInLength="0/1"  name="opacity"/>
             </Parameters>
             <Attributes>
              <Attribute id="3677" value="" name="ident"/>
             </Attributes>
             <ExtraData>
              <Entry key="ZoomPanBin">
               <ZoomPanBin id="3678"  >
                <ZoomPanKeyframes>
                 <ZoomPanKeyframe id="3679" timeRangeEnd="-9999999/1" timeRangeDuration="0/1" interpolaterName=""  />
                </ZoomPanKeyframes>
               </ZoomPanBin>
              </Entry>
             </ExtraData>
            </VMFile>
            <MetaData>
             <entry key="WinSubProjectDisplayName" val=""/>
            </MetaData>
           </UnifiedMedia>
           <UnifiedMedia id="3680"  >
            <AMFile id="3681" start="4983" duration="339" scalar="1/1" mediaStart="5614/1" mediaDuration="339/1" trackNumber="2" src="4" channelNumber="0,1" >
             <Parameters>
              <InterpolatingParam id="3682" interp="linr"  time="0/1" value="1" leadInLength="0/1"  name="volume"/>
              <Parameter id="3683"  name="captions"/>
             </Parameters>
             <Attributes>
              <Attribute id="3684" value="" name="ident"/>
              <Attribute id="3685" value="44100" name="sampleRate"/>
              <Attribute id="3686" value="16" name="bitDepth"/>
              <Attribute id="3687" value="1" name="gain"/>
              <Attribute id="3688" value="0" name="mixToMono"/>
             </Attributes>
            </AMFile>
            <VMFile id="3689" start="4983" duration="339" scalar="1/1" mediaStart="5614/1" mediaDuration="339/1" trackNumber="1" src="4" >
             <Transformer>
              <VectorParam id="3690"  name="translation">
               <InterpolatingParam id="3691" interp="linr"  time="-9999999/1" value="0" leadInLength="0/1"  />
               <InterpolatingParam id="3692" interp="linr"  time="-9999999/1" value="0" leadInLength="0/1"  />
               <InterpolatingParam id="3693" interp="linr"  time="-9999999/1" value="0" leadInLength="0/1"  />
              </VectorParam>
              <VectorParam id="3694"  name="rotation">
               <InterpolatingParam id="3695" interp="linr"  time="-9999999/1" value="0" leadInLength="0/1"  />
               <InterpolatingParam id="3696" interp="linr"  time="-9999999/1" value="0" leadInLength="0/1"  />
               <InterpolatingParam id="3697" interp="linr"  time="-9999999/1" value="0" leadInLength="0/1"  />
              </VectorParam>
              <VectorParam id="3698"  name="shear">
               <InterpolatingParam id="3699" interp="linr"  time="-9999999/1" value="0" leadInLength="0/1"  />
               <InterpolatingParam id="3700" interp="linr"  time="-9999999/1" value="0" leadInLength="0/1"  />
               <InterpolatingParam id="3701" interp="linr"  time="-9999999/1" value="0" leadInLength="0/1"  />
              </VectorParam>
              <VectorParam id="3702"  name="scale">
               <InterpolatingParam id="3703" interp="linr"  time="-9999999/1" value="1" leadInLength="0/1"  />
               <InterpolatingParam id="3704" interp="linr"  time="-9999999/1" value="1" leadInLength="0/1"  />
               <InterpolatingParam id="3705" interp="linr"  time="-9999999/1" value="1" leadInLength="0/1"  />
              </VectorParam>
              <VectorParam id="3706"  name="anchor">
               <InterpolatingParam id="3707" interp="linr"  time="0/1" value="0" leadInLength="0/1"  />
               <InterpolatingParam id="3708" interp="linr"  time="0/1" value="0" leadInLength="0/1"  />
               <InterpolatingParam id="3709" interp="linr"  time="0/1" value="0" leadInLength="0/1"  />
              </VectorParam>
             </Transformer>
             <Parameters>
              <VectorParam id="3710"  name="sourceCrop">
               <InterpolatingParam id="3711" interp="linr"  time="0/1" value="0" leadInLength="0/1"  />
               <InterpolatingParam id="3712" interp="linr"  time="0/1" value="0" leadInLength="0/1"  />
               <InterpolatingParam id="3713" interp="linr"  time="0/1" value="0" leadInLength="0/1"  />
               <InterpolatingParam id="3714" interp="linr"  time="0/1" value="0" leadInLength="0/1"  />
              </VectorParam>
              <VectorParam id="3715"  name="geometryCrop">
               <InterpolatingParam id="3716" interp="linr"  time="-9999999/1" value="0" leadInLength="0/1"  />
               <InterpolatingParam id="3717" interp="linr"  time="-9999999/1" value="0" leadInLength="0/1"  />
               <InterpolatingParam id="3718" interp="linr"  time="-9999999/1" value="0" leadInLength="0/1"  />
               <InterpolatingParam id="3719" interp="linr"  time="-9999999/1" value="0" leadInLength="0/1"  />
              </VectorParam>
              <InterpolatingParam id="3720" interp="linr"  time="-9999999/1" value="1" leadInLength="0/1"  name="opacity"/>
             </Parameters>
             <Attributes>
              <Attribute id="3721" value="" name="ident"/>
             </Attributes>
             <ExtraData>
              <Entry key="ZoomPanBin">
               <ZoomPanBin id="3722"  >
                <ZoomPanKeyframes>
                 <ZoomPanKeyframe id="3723" timeRangeEnd="-9999999/1" timeRangeDuration="0/1" interpolaterName=""  />
                </ZoomPanKeyframes>
               </ZoomPanBin>
              </Entry>
             </ExtraData>
            </VMFile>
            <MetaData>
             <entry key="WinSubProjectDisplayName" val=""/>
            </MetaData>
           </UnifiedMedia>
           <UnifiedMedia id="3724"  >
            <AMFile id="3725" start="5322" duration="212" scalar="1/1" mediaStart="5977/1" mediaDuration="212/1" trackNumber="2" src="4" channelNumber="0,1" >
             <Parameters>
              <InterpolatingParam id="3726" interp="linr"  time="0/1" value="1" leadInLength="0/1"  name="volume"/>
              <Parameter id="3727"  name="captions"/>
             </Parameters>
             <Attributes>
              <Attribute id="3728" value="" name="ident"/>
              <Attribute id="3729" value="44100" name="sampleRate"/>
              <Attribute id="3730" value="16" name="bitDepth"/>
              <Attribute id="3731" value="1" name="gain"/>
              <Attribute id="3732" value="0" name="mixToMono"/>
             </Attributes>
            </AMFile>
            <VMFile id="3733" start="5322" duration="212" scalar="1/1" mediaStart="5977/1" mediaDuration="212/1" trackNumber="1" src="4" >
             <Transformer>
              <VectorParam id="3734"  name="translation">
               <InterpolatingParam id="3735" interp="linr"  time="-9999999/1" value="0" leadInLength="0/1"  />
               <InterpolatingParam id="3736" interp="linr"  time="-9999999/1" value="0" leadInLength="0/1"  />
               <InterpolatingParam id="3737" interp="linr"  time="-9999999/1" value="0" leadInLength="0/1"  />
              </VectorParam>
              <VectorParam id="3738"  name="rotation">
               <InterpolatingParam id="3739" interp="linr"  time="-9999999/1" value="0" leadInLength="0/1"  />
               <InterpolatingParam id="3740" interp="linr"  time="-9999999/1" value="0" leadInLength="0/1"  />
               <InterpolatingParam id="3741" interp="linr"  time="-9999999/1" value="0" leadInLength="0/1"  />
              </VectorParam>
              <VectorParam id="3742"  name="shear">
               <InterpolatingParam id="3743" interp="linr"  time="-9999999/1" value="0" leadInLength="0/1"  />
               <InterpolatingParam id="3744" interp="linr"  time="-9999999/1" value="0" leadInLength="0/1"  />
               <InterpolatingParam id="3745" interp="linr"  time="-9999999/1" value="0" leadInLength="0/1"  />
              </VectorParam>
              <VectorParam id="3746"  name="scale">
               <InterpolatingParam id="3747" interp="linr"  time="-9999999/1" value="1" leadInLength="0/1"  />
               <InterpolatingParam id="3748" interp="linr"  time="-9999999/1" value="1" leadInLength="0/1"  />
               <InterpolatingParam id="3749" interp="linr"  time="-9999999/1" value="1" leadInLength="0/1"  />
              </VectorParam>
              <VectorParam id="3750"  name="anchor">
               <InterpolatingParam id="3751" interp="linr"  time="0/1" value="0" leadInLength="0/1"  />
               <InterpolatingParam id="3752" interp="linr"  time="0/1" value="0" leadInLength="0/1"  />
               <InterpolatingParam id="3753" interp="linr"  time="0/1" value="0" leadInLength="0/1"  />
              </VectorParam>
             </Transformer>
             <Parameters>
              <VectorParam id="3754"  name="sourceCrop">
               <InterpolatingParam id="3755" interp="linr"  time="0/1" value="0" leadInLength="0/1"  />
               <InterpolatingParam id="3756" interp="linr"  time="0/1" value="0" leadInLength="0/1"  />
               <InterpolatingParam id="3757" interp="linr"  time="0/1" value="0" leadInLength="0/1"  />
               <InterpolatingParam id="3758" interp="linr"  time="0/1" value="0" leadInLength="0/1"  />
              </VectorParam>
              <VectorParam id="3759"  name="geometryCrop">
               <InterpolatingParam id="3760" interp="linr"  time="-9999999/1" value="0" leadInLength="0/1"  />
               <InterpolatingParam id="3761" interp="linr"  time="-9999999/1" value="0" leadInLength="0/1"  />
               <InterpolatingParam id="3762" interp="linr"  time="-9999999/1" value="0" leadInLength="0/1"  />
               <InterpolatingParam id="3763" interp="linr"  time="-9999999/1" value="0" leadInLength="0/1"  />
              </VectorParam>
              <InterpolatingParam id="3764" interp="linr"  time="-9999999/1" value="1" leadInLength="0/1"  name="opacity"/>
             </Parameters>
             <Attributes>
              <Attribute id="3765" value="" name="ident"/>
             </Attributes>
             <ExtraData>
              <Entry key="ZoomPanBin">
               <ZoomPanBin id="3766"  >
                <ZoomPanKeyframes>
                 <ZoomPanKeyframe id="3767" timeRangeEnd="-9999999/1" timeRangeDuration="0/1" interpolaterName=""  />
                </ZoomPanKeyframes>
               </ZoomPanBin>
              </Entry>
             </ExtraData>
            </VMFile>
            <MetaData>
             <entry key="WinSubProjectDisplayName" val=""/>
            </MetaData>
           </UnifiedMedia>
           <UnifiedMedia id="3768"  >
            <AMFile id="3769" start="5534" duration="62" scalar="1/1" mediaStart="6205/1" mediaDuration="62/1" trackNumber="2" src="4" channelNumber="0,1" >
             <Parameters>
              <InterpolatingParam id="3770" interp="linr"  time="0/1" value="1" leadInLength="0/1"  name="volume"/>
              <Parameter id="3771"  name="captions"/>
             </Parameters>
             <Attributes>
              <Attribute id="3772" value="" name="ident"/>
              <Attribute id="3773" value="44100" name="sampleRate"/>
              <Attribute id="3774" value="16" name="bitDepth"/>
              <Attribute id="3775" value="1" name="gain"/>
              <Attribute id="3776" value="0" name="mixToMono"/>
             </Attributes>
            </AMFile>
            <VMFile id="3777" start="5534" duration="62" scalar="1/1" mediaStart="6205/1" mediaDuration="62/1" trackNumber="1" src="4" >
             <Transformer>
              <VectorParam id="3778"  name="translation">
               <InterpolatingParam id="3779" interp="linr"  time="-9999999/1" value="0" leadInLength="0/1"  />
               <InterpolatingParam id="3780" interp="linr"  time="-9999999/1" value="0" leadInLength="0/1"  />
               <InterpolatingParam id="3781" interp="linr"  time="-9999999/1" value="0" leadInLength="0/1"  />
              </VectorParam>
              <VectorParam id="3782"  name="rotation">
               <InterpolatingParam id="3783" interp="linr"  time="-9999999/1" value="0" leadInLength="0/1"  />
               <InterpolatingParam id="3784" interp="linr"  time="-9999999/1" value="0" leadInLength="0/1"  />
               <InterpolatingParam id="3785" interp="linr"  time="-9999999/1" value="0" leadInLength="0/1"  />
              </VectorParam>
              <VectorParam id="3786"  name="shear">
               <InterpolatingParam id="3787" interp="linr"  time="-9999999/1" value="0" leadInLength="0/1"  />
               <InterpolatingParam id="3788" interp="linr"  time="-9999999/1" value="0" leadInLength="0/1"  />
               <InterpolatingParam id="3789" interp="linr"  time="-9999999/1" value="0" leadInLength="0/1"  />
              </VectorParam>
              <VectorParam id="3790"  name="scale">
               <InterpolatingParam id="3791" interp="linr"  time="-9999999/1" value="1" leadInLength="0/1"  />
               <InterpolatingParam id="3792" interp="linr"  time="-9999999/1" value="1" leadInLength="0/1"  />
               <InterpolatingParam id="3793" interp="linr"  time="-9999999/1" value="1" leadInLength="0/1"  />
              </VectorParam>
              <VectorParam id="3794"  name="anchor">
               <InterpolatingParam id="3795" interp="linr"  time="0/1" value="0" leadInLength="0/1"  />
               <InterpolatingParam id="3796" interp="linr"  time="0/1" value="0" leadInLength="0/1"  />
               <InterpolatingParam id="3797" interp="linr"  time="0/1" value="0" leadInLength="0/1"  />
              </VectorParam>
             </Transformer>
             <Parameters>
              <VectorParam id="3798"  name="sourceCrop">
               <InterpolatingParam id="3799" interp="linr"  time="0/1" value="0" leadInLength="0/1"  />
               <InterpolatingParam id="3800" interp="linr"  time="0/1" value="0" leadInLength="0/1"  />
               <InterpolatingParam id="3801" interp="linr"  time="0/1" value="0" leadInLength="0/1"  />
               <InterpolatingParam id="3802" interp="linr"  time="0/1" value="0" leadInLength="0/1"  />
              </VectorParam>
              <VectorParam id="3803"  name="geometryCrop">
               <InterpolatingParam id="3804" interp="linr"  time="-9999999/1" value="0" leadInLength="0/1"  />
               <InterpolatingParam id="3805" interp="linr"  time="-9999999/1" value="0" leadInLength="0/1"  />
               <InterpolatingParam id="3806" interp="linr"  time="-9999999/1" value="0" leadInLength="0/1"  />
               <InterpolatingParam id="3807" interp="linr"  time="-9999999/1" value="0" leadInLength="0/1"  />
              </VectorParam>
              <InterpolatingParam id="3808" interp="linr"  time="-9999999/1" value="1" leadInLength="0/1"  name="opacity"/>
             </Parameters>
             <Attributes>
              <Attribute id="3809" value="" name="ident"/>
             </Attributes>
             <ExtraData>
              <Entry key="ZoomPanBin">
               <ZoomPanBin id="3810"  >
                <ZoomPanKeyframes>
                 <ZoomPanKeyframe id="3811" timeRangeEnd="-9999999/1" timeRangeDuration="0/1" interpolaterName=""  />
                </ZoomPanKeyframes>
               </ZoomPanBin>
              </Entry>
             </ExtraData>
            </VMFile>
            <MetaData>
             <entry key="WinSubProjectDisplayName" val=""/>
            </MetaData>
           </UnifiedMedia>
           <UnifiedMedia id="3812"  >
            <AMFile id="3813" start="5596" duration="115" scalar="1/1" mediaStart="6294/1" mediaDuration="115/1" trackNumber="2" src="4" channelNumber="0,1" >
             <Parameters>
              <InterpolatingParam id="3814" interp="linr"  time="0/1" value="1" leadInLength="0/1"  name="volume"/>
              <Parameter id="3815"  name="captions"/>
             </Parameters>
             <Attributes>
              <Attribute id="3816" value="" name="ident"/>
              <Attribute id="3817" value="44100" name="sampleRate"/>
              <Attribute id="3818" value="16" name="bitDepth"/>
              <Attribute id="3819" value="1" name="gain"/>
              <Attribute id="3820" value="0" name="mixToMono"/>
             </Attributes>
            </AMFile>
            <VMFile id="3821" start="5596" duration="115" scalar="1/1" mediaStart="6294/1" mediaDuration="115/1" trackNumber="1" src="4" >
             <Transformer>
              <VectorParam id="3822"  name="translation">
               <InterpolatingParam id="3823" interp="linr"  time="-9999999/1" value="0" leadInLength="0/1"  />
               <InterpolatingParam id="3824" interp="linr"  time="-9999999/1" value="0" leadInLength="0/1"  />
               <InterpolatingParam id="3825" interp="linr"  time="-9999999/1" value="0" leadInLength="0/1"  />
              </VectorParam>
              <VectorParam id="3826"  name="rotation">
               <InterpolatingParam id="3827" interp="linr"  time="-9999999/1" value="0" leadInLength="0/1"  />
               <InterpolatingParam id="3828" interp="linr"  time="-9999999/1" value="0" leadInLength="0/1"  />
               <InterpolatingParam id="3829" interp="linr"  time="-9999999/1" value="0" leadInLength="0/1"  />
              </VectorParam>
              <VectorParam id="3830"  name="shear">
               <InterpolatingParam id="3831" interp="linr"  time="-9999999/1" value="0" leadInLength="0/1"  />
               <InterpolatingParam id="3832" interp="linr"  time="-9999999/1" value="0" leadInLength="0/1"  />
               <InterpolatingParam id="3833" interp="linr"  time="-9999999/1" value="0" leadInLength="0/1"  />
              </VectorParam>
              <VectorParam id="3834"  name="scale">
               <InterpolatingParam id="3835" interp="linr"  time="-9999999/1" value="1" leadInLength="0/1"  />
               <InterpolatingParam id="3836" interp="linr"  time="-9999999/1" value="1" leadInLength="0/1"  />
               <InterpolatingParam id="3837" interp="linr"  time="-9999999/1" value="1" leadInLength="0/1"  />
              </VectorParam>
              <VectorParam id="3838"  name="anchor">
               <InterpolatingParam id="3839" interp="linr"  time="0/1" value="0" leadInLength="0/1"  />
               <InterpolatingParam id="3840" interp="linr"  time="0/1" value="0" leadInLength="0/1"  />
               <InterpolatingParam id="3841" interp="linr"  time="0/1" value="0" leadInLength="0/1"  />
              </VectorParam>
             </Transformer>
             <Parameters>
              <VectorParam id="3842"  name="sourceCrop">
               <InterpolatingParam id="3843" interp="linr"  time="0/1" value="0" leadInLength="0/1"  />
               <InterpolatingParam id="3844" interp="linr"  time="0/1" value="0" leadInLength="0/1"  />
               <InterpolatingParam id="3845" interp="linr"  time="0/1" value="0" leadInLength="0/1"  />
               <InterpolatingParam id="3846" interp="linr"  time="0/1" value="0" leadInLength="0/1"  />
              </VectorParam>
              <VectorParam id="3847"  name="geometryCrop">
               <InterpolatingParam id="3848" interp="linr"  time="-9999999/1" value="0" leadInLength="0/1"  />
               <InterpolatingParam id="3849" interp="linr"  time="-9999999/1" value="0" leadInLength="0/1"  />
               <InterpolatingParam id="3850" interp="linr"  time="-9999999/1" value="0" leadInLength="0/1"  />
               <InterpolatingParam id="3851" interp="linr"  time="-9999999/1" value="0" leadInLength="0/1"  />
              </VectorParam>
              <InterpolatingParam id="3852" interp="linr"  time="-9999999/1" value="1" leadInLength="0/1"  name="opacity"/>
             </Parameters>
             <Attributes>
              <Attribute id="3853" value="" name="ident"/>
             </Attributes>
             <ExtraData>
              <Entry key="ZoomPanBin">
               <ZoomPanBin id="3854"  >
                <ZoomPanKeyframes>
                 <ZoomPanKeyframe id="3855" timeRangeEnd="-9999999/1" timeRangeDuration="0/1" interpolaterName=""  />
                </ZoomPanKeyframes>
               </ZoomPanBin>
              </Entry>
             </ExtraData>
            </VMFile>
            <MetaData>
             <entry key="WinSubProjectDisplayName" val=""/>
            </MetaData>
           </UnifiedMedia>
           <UnifiedMedia id="3856"  >
            <AMFile id="3857" start="5711" duration="6" scalar="1/1" mediaStart="6439/1" mediaDuration="6/1" trackNumber="2" src="4" channelNumber="0,1" >
             <Parameters>
              <InterpolatingParam id="3858" interp="linr"  time="0/1" value="1" leadInLength="0/1"  name="volume"/>
              <Parameter id="3859"  name="captions"/>
             </Parameters>
             <Attributes>
              <Attribute id="3860" value="" name="ident"/>
              <Attribute id="3861" value="44100" name="sampleRate"/>
              <Attribute id="3862" value="16" name="bitDepth"/>
              <Attribute id="3863" value="1" name="gain"/>
              <Attribute id="3864" value="0" name="mixToMono"/>
             </Attributes>
            </AMFile>
            <VMFile id="3865" start="5711" duration="6" scalar="1/1" mediaStart="6439/1" mediaDuration="6/1" trackNumber="1" src="4" >
             <Transformer>
              <VectorParam id="3866"  name="translation">
               <InterpolatingParam id="3867" interp="linr"  time="-9999999/1" value="0" leadInLength="0/1"  />
               <InterpolatingParam id="3868" interp="linr"  time="-9999999/1" value="0" leadInLength="0/1"  />
               <InterpolatingParam id="3869" interp="linr"  time="-9999999/1" value="0" leadInLength="0/1"  />
              </VectorParam>
              <VectorParam id="3870"  name="rotation">
               <InterpolatingParam id="3871" interp="linr"  time="-9999999/1" value="0" leadInLength="0/1"  />
               <InterpolatingParam id="3872" interp="linr"  time="-9999999/1" value="0" leadInLength="0/1"  />
               <InterpolatingParam id="3873" interp="linr"  time="-9999999/1" value="0" leadInLength="0/1"  />
              </VectorParam>
              <VectorParam id="3874"  name="shear">
               <InterpolatingParam id="3875" interp="linr"  time="-9999999/1" value="0" leadInLength="0/1"  />
               <InterpolatingParam id="3876" interp="linr"  time="-9999999/1" value="0" leadInLength="0/1"  />
               <InterpolatingParam id="3877" interp="linr"  time="-9999999/1" value="0" leadInLength="0/1"  />
              </VectorParam>
              <VectorParam id="3878"  name="scale">
               <InterpolatingParam id="3879" interp="linr"  time="-9999999/1" value="1" leadInLength="0/1"  />
               <InterpolatingParam id="3880" interp="linr"  time="-9999999/1" value="1" leadInLength="0/1"  />
               <InterpolatingParam id="3881" interp="linr"  time="-9999999/1" value="1" leadInLength="0/1"  />
              </VectorParam>
              <VectorParam id="3882"  name="anchor">
               <InterpolatingParam id="3883" interp="linr"  time="0/1" value="0" leadInLength="0/1"  />
               <InterpolatingParam id="3884" interp="linr"  time="0/1" value="0" leadInLength="0/1"  />
               <InterpolatingParam id="3885" interp="linr"  time="0/1" value="0" leadInLength="0/1"  />
              </VectorParam>
             </Transformer>
             <Parameters>
              <VectorParam id="3886"  name="sourceCrop">
               <InterpolatingParam id="3887" interp="linr"  time="0/1" value="0" leadInLength="0/1"  />
               <InterpolatingParam id="3888" interp="linr"  time="0/1" value="0" leadInLength="0/1"  />
               <InterpolatingParam id="3889" interp="linr"  time="0/1" value="0" leadInLength="0/1"  />
               <InterpolatingParam id="3890" interp="linr"  time="0/1" value="0" leadInLength="0/1"  />
              </VectorParam>
              <VectorParam id="3891"  name="geometryCrop">
               <InterpolatingParam id="3892" interp="linr"  time="-9999999/1" value="0" leadInLength="0/1"  />
               <InterpolatingParam id="3893" interp="linr"  time="-9999999/1" value="0" leadInLength="0/1"  />
               <InterpolatingParam id="3894" interp="linr"  time="-9999999/1" value="0" leadInLength="0/1"  />
               <InterpolatingParam id="3895" interp="linr"  time="-9999999/1" value="0" leadInLength="0/1"  />
              </VectorParam>
              <InterpolatingParam id="3896" interp="linr"  time="-9999999/1" value="1" leadInLength="0/1"  name="opacity"/>
             </Parameters>
             <Attributes>
              <Attribute id="3897" value="" name="ident"/>
             </Attributes>
             <ExtraData>
              <Entry key="ZoomPanBin">
               <ZoomPanBin id="3898"  >
                <ZoomPanKeyframes>
                 <ZoomPanKeyframe id="3899" timeRangeEnd="-9999999/1" timeRangeDuration="0/1" interpolaterName=""  />
                </ZoomPanKeyframes>
               </ZoomPanBin>
              </Entry>
             </ExtraData>
            </VMFile>
            <MetaData>
             <entry key="WinSubProjectDisplayName" val=""/>
            </MetaData>
           </UnifiedMedia>
           <UnifiedMedia id="3900"  >
            <AMFile id="3901" start="5717" duration="427" scalar="1/1" mediaStart="6488/1" mediaDuration="427/1" trackNumber="2" src="4" channelNumber="0,1" >
             <Parameters>
              <InterpolatingParam id="3902" interp="linr"  time="0/1" value="1" leadInLength="0/1"  name="volume"/>
              <Parameter id="3903"  name="captions"/>
             </Parameters>
             <Attributes>
              <Attribute id="3904" value="" name="ident"/>
              <Attribute id="3905" value="44100" name="sampleRate"/>
              <Attribute id="3906" value="16" name="bitDepth"/>
              <Attribute id="3907" value="1" name="gain"/>
              <Attribute id="3908" value="0" name="mixToMono"/>
             </Attributes>
            </AMFile>
            <VMFile id="3909" start="5717" duration="427" scalar="1/1" mediaStart="6488/1" mediaDuration="427/1" trackNumber="1" src="4" >
             <Transformer>
              <VectorParam id="3910"  name="translation">
               <InterpolatingParam id="3911" interp="linr"  time="-9999999/1" value="0" leadInLength="0/1"  />
               <InterpolatingParam id="3912" interp="linr"  time="-9999999/1" value="0" leadInLength="0/1"  />
               <InterpolatingParam id="3913" interp="linr"  time="-9999999/1" value="0" leadInLength="0/1"  />
              </VectorParam>
              <VectorParam id="3914"  name="rotation">
               <InterpolatingParam id="3915" interp="linr"  time="-9999999/1" value="0" leadInLength="0/1"  />
               <InterpolatingParam id="3916" interp="linr"  time="-9999999/1" value="0" leadInLength="0/1"  />
               <InterpolatingParam id="3917" interp="linr"  time="-9999999/1" value="0" leadInLength="0/1"  />
              </VectorParam>
              <VectorParam id="3918"  name="shear">
               <InterpolatingParam id="3919" interp="linr"  time="-9999999/1" value="0" leadInLength="0/1"  />
               <InterpolatingParam id="3920" interp="linr"  time="-9999999/1" value="0" leadInLength="0/1"  />
               <InterpolatingParam id="3921" interp="linr"  time="-9999999/1" value="0" leadInLength="0/1"  />
              </VectorParam>
              <VectorParam id="3922"  name="scale">
               <InterpolatingParam id="3923" interp="linr"  time="-9999999/1" value="1" leadInLength="0/1"  />
               <InterpolatingParam id="3924" interp="linr"  time="-9999999/1" value="1" leadInLength="0/1"  />
               <InterpolatingParam id="3925" interp="linr"  time="-9999999/1" value="1" leadInLength="0/1"  />
              </VectorParam>
              <VectorParam id="3926"  name="anchor">
               <InterpolatingParam id="3927" interp="linr"  time="0/1" value="0" leadInLength="0/1"  />
               <InterpolatingParam id="3928" interp="linr"  time="0/1" value="0" leadInLength="0/1"  />
               <InterpolatingParam id="3929" interp="linr"  time="0/1" value="0" leadInLength="0/1"  />
              </VectorParam>
             </Transformer>
             <Parameters>
              <VectorParam id="3930"  name="sourceCrop">
               <InterpolatingParam id="3931" interp="linr"  time="0/1" value="0" leadInLength="0/1"  />
               <InterpolatingParam id="3932" interp="linr"  time="0/1" value="0" leadInLength="0/1"  />
               <InterpolatingParam id="3933" interp="linr"  time="0/1" value="0" leadInLength="0/1"  />
               <InterpolatingParam id="3934" interp="linr"  time="0/1" value="0" leadInLength="0/1"  />
              </VectorParam>
              <VectorParam id="3935"  name="geometryCrop">
               <InterpolatingParam id="3936" interp="linr"  time="-9999999/1" value="0" leadInLength="0/1"  />
               <InterpolatingParam id="3937" interp="linr"  time="-9999999/1" value="0" leadInLength="0/1"  />
               <InterpolatingParam id="3938" interp="linr"  time="-9999999/1" value="0" leadInLength="0/1"  />
               <InterpolatingParam id="3939" interp="linr"  time="-9999999/1" value="0" leadInLength="0/1"  />
              </VectorParam>
              <InterpolatingParam id="3940" interp="linr"  time="-9999999/1" value="1" leadInLength="0/1"  name="opacity"/>
             </Parameters>
             <Attributes>
              <Attribute id="3941" value="" name="ident"/>
             </Attributes>
             <ExtraData>
              <Entry key="ZoomPanBin">
               <ZoomPanBin id="3942"  >
                <ZoomPanKeyframes>
                 <ZoomPanKeyframe id="3943" timeRangeEnd="-9999999/1" timeRangeDuration="0/1" interpolaterName=""  />
                </ZoomPanKeyframes>
               </ZoomPanBin>
              </Entry>
             </ExtraData>
            </VMFile>
            <MetaData>
             <entry key="WinSubProjectDisplayName" val=""/>
            </MetaData>
           </UnifiedMedia>
           <UnifiedMedia id="3944"  >
            <AMFile id="3945" start="6144" duration="240" scalar="1/1" mediaStart="6955/1" mediaDuration="240/1" trackNumber="2" src="4" channelNumber="0,1" >
             <Parameters>
              <InterpolatingParam id="3946" interp="linr"  time="0/1" value="1" leadInLength="0/1"  name="volume"/>
              <Parameter id="3947"  name="captions"/>
             </Parameters>
             <Attributes>
              <Attribute id="3948" value="" name="ident"/>
              <Attribute id="3949" value="44100" name="sampleRate"/>
              <Attribute id="3950" value="16" name="bitDepth"/>
              <Attribute id="3951" value="1" name="gain"/>
              <Attribute id="3952" value="0" name="mixToMono"/>
             </Attributes>
            </AMFile>
            <VMFile id="3953" start="6144" duration="240" scalar="1/1" mediaStart="6955/1" mediaDuration="240/1" trackNumber="1" src="4" >
             <Transformer>
              <VectorParam id="3954"  name="translation">
               <InterpolatingParam id="3955" interp="linr"  time="-9999999/1" value="0" leadInLength="0/1"  />
               <InterpolatingParam id="3956" interp="linr"  time="-9999999/1" value="0" leadInLength="0/1"  />
               <InterpolatingParam id="3957" interp="linr"  time="-9999999/1" value="0" leadInLength="0/1"  />
              </VectorParam>
              <VectorParam id="3958"  name="rotation">
               <InterpolatingParam id="3959" interp="linr"  time="-9999999/1" value="0" leadInLength="0/1"  />
               <InterpolatingParam id="3960" interp="linr"  time="-9999999/1" value="0" leadInLength="0/1"  />
               <InterpolatingParam id="3961" interp="linr"  time="-9999999/1" value="0" leadInLength="0/1"  />
              </VectorParam>
              <VectorParam id="3962"  name="shear">
               <InterpolatingParam id="3963" interp="linr"  time="-9999999/1" value="0" leadInLength="0/1"  />
               <InterpolatingParam id="3964" interp="linr"  time="-9999999/1" value="0" leadInLength="0/1"  />
               <InterpolatingParam id="3965" interp="linr"  time="-9999999/1" value="0" leadInLength="0/1"  />
              </VectorParam>
              <VectorParam id="3966"  name="scale">
               <InterpolatingParam id="3967" interp="linr"  time="-9999999/1" value="1" leadInLength="0/1"  />
               <InterpolatingParam id="3968" interp="linr"  time="-9999999/1" value="1" leadInLength="0/1"  />
               <InterpolatingParam id="3969" interp="linr"  time="-9999999/1" value="1" leadInLength="0/1"  />
              </VectorParam>
              <VectorParam id="3970"  name="anchor">
               <InterpolatingParam id="3971" interp="linr"  time="0/1" value="0" leadInLength="0/1"  />
               <InterpolatingParam id="3972" interp="linr"  time="0/1" value="0" leadInLength="0/1"  />
               <InterpolatingParam id="3973" interp="linr"  time="0/1" value="0" leadInLength="0/1"  />
              </VectorParam>
             </Transformer>
             <Parameters>
              <VectorParam id="3974"  name="sourceCrop">
               <InterpolatingParam id="3975" interp="linr"  time="0/1" value="0" leadInLength="0/1"  />
               <InterpolatingParam id="3976" interp="linr"  time="0/1" value="0" leadInLength="0/1"  />
               <InterpolatingParam id="3977" interp="linr"  time="0/1" value="0" leadInLength="0/1"  />
               <InterpolatingParam id="3978" interp="linr"  time="0/1" value="0" leadInLength="0/1"  />
              </VectorParam>
              <VectorParam id="3979"  name="geometryCrop">
               <InterpolatingParam id="3980" interp="linr"  time="-9999999/1" value="0" leadInLength="0/1"  />
               <InterpolatingParam id="3981" interp="linr"  time="-9999999/1" value="0" leadInLength="0/1"  />
               <InterpolatingParam id="3982" interp="linr"  time="-9999999/1" value="0" leadInLength="0/1"  />
               <InterpolatingParam id="3983" interp="linr"  time="-9999999/1" value="0" leadInLength="0/1"  />
              </VectorParam>
              <InterpolatingParam id="3984" interp="linr"  time="-9999999/1" value="1" leadInLength="0/1"  name="opacity"/>
             </Parameters>
             <Attributes>
              <Attribute id="3985" value="" name="ident"/>
             </Attributes>
             <ExtraData>
              <Entry key="ZoomPanBin">
               <ZoomPanBin id="3986"  >
                <ZoomPanKeyframes>
                 <ZoomPanKeyframe id="3987" timeRangeEnd="-9999999/1" timeRangeDuration="0/1" interpolaterName=""  />
                </ZoomPanKeyframes>
               </ZoomPanBin>
              </Entry>
             </ExtraData>
            </VMFile>
            <MetaData>
             <entry key="WinSubProjectDisplayName" val=""/>
            </MetaData>
           </UnifiedMedia>
           <UnifiedMedia id="3988"  >
            <AMFile id="3989" start="6384" duration="637" scalar="1/1" mediaStart="7219/1" mediaDuration="637/1" trackNumber="2" src="4" channelNumber="0,1" >
             <Parameters>
              <InterpolatingParam id="3990" interp="linr"  time="0/1" value="1" leadInLength="0/1"  name="volume"/>
              <Parameter id="3991"  name="captions"/>
             </Parameters>
             <Attributes>
              <Attribute id="3992" value="" name="ident"/>
              <Attribute id="3993" value="44100" name="sampleRate"/>
              <Attribute id="3994" value="16" name="bitDepth"/>
              <Attribute id="3995" value="1" name="gain"/>
              <Attribute id="3996" value="0" name="mixToMono"/>
             </Attributes>
            </AMFile>
            <VMFile id="3997" start="6384" duration="637" scalar="1/1" mediaStart="7219/1" mediaDuration="637/1" trackNumber="1" src="4" >
             <Transformer>
              <VectorParam id="3998"  name="translation">
               <InterpolatingParam id="3999" interp="linr"  time="-9999999/1" value="0" leadInLength="0/1"  />
               <InterpolatingParam id="4000" interp="linr"  time="-9999999/1" value="0" leadInLength="0/1"  />
               <InterpolatingParam id="4001" interp="linr"  time="-9999999/1" value="0" leadInLength="0/1"  />
              </VectorParam>
              <VectorParam id="4002"  name="rotation">
               <InterpolatingParam id="4003" interp="linr"  time="-9999999/1" value="0" leadInLength="0/1"  />
               <InterpolatingParam id="4004" interp="linr"  time="-9999999/1" value="0" leadInLength="0/1"  />
               <InterpolatingParam id="4005" interp="linr"  time="-9999999/1" value="0" leadInLength="0/1"  />
              </VectorParam>
              <VectorParam id="4006"  name="shear">
               <InterpolatingParam id="4007" interp="linr"  time="-9999999/1" value="0" leadInLength="0/1"  />
               <InterpolatingParam id="4008" interp="linr"  time="-9999999/1" value="0" leadInLength="0/1"  />
               <InterpolatingParam id="4009" interp="linr"  time="-9999999/1" value="0" leadInLength="0/1"  />
              </VectorParam>
              <VectorParam id="4010"  name="scale">
               <InterpolatingParam id="4011" interp="linr"  time="-9999999/1" value="1" leadInLength="0/1"  />
               <InterpolatingParam id="4012" interp="linr"  time="-9999999/1" value="1" leadInLength="0/1"  />
               <InterpolatingParam id="4013" interp="linr"  time="-9999999/1" value="1" leadInLength="0/1"  />
              </VectorParam>
              <VectorParam id="4014"  name="anchor">
               <InterpolatingParam id="4015" interp="linr"  time="0/1" value="0" leadInLength="0/1"  />
               <InterpolatingParam id="4016" interp="linr"  time="0/1" value="0" leadInLength="0/1"  />
               <InterpolatingParam id="4017" interp="linr"  time="0/1" value="0" leadInLength="0/1"  />
              </VectorParam>
             </Transformer>
             <Parameters>
              <VectorParam id="4018"  name="sourceCrop">
               <InterpolatingParam id="4019" interp="linr"  time="0/1" value="0" leadInLength="0/1"  />
               <InterpolatingParam id="4020" interp="linr"  time="0/1" value="0" leadInLength="0/1"  />
               <InterpolatingParam id="4021" interp="linr"  time="0/1" value="0" leadInLength="0/1"  />
               <InterpolatingParam id="4022" interp="linr"  time="0/1" value="0" leadInLength="0/1"  />
              </VectorParam>
              <VectorParam id="4023"  name="geometryCrop">
               <InterpolatingParam id="4024" interp="linr"  time="-9999999/1" value="0" leadInLength="0/1"  />
               <InterpolatingParam id="4025" interp="linr"  time="-9999999/1" value="0" leadInLength="0/1"  />
               <InterpolatingParam id="4026" interp="linr"  time="-9999999/1" value="0" leadInLength="0/1"  />
               <InterpolatingParam id="4027" interp="linr"  time="-9999999/1" value="0" leadInLength="0/1"  />
              </VectorParam>
              <InterpolatingParam id="4028" interp="linr"  time="-9999999/1" value="1" leadInLength="0/1"  name="opacity"/>
             </Parameters>
             <Attributes>
              <Attribute id="4029" value="" name="ident"/>
             </Attributes>
             <ExtraData>
              <Entry key="ZoomPanBin">
               <ZoomPanBin id="4030"  >
                <ZoomPanKeyframes>
                 <ZoomPanKeyframe id="4031" timeRangeEnd="-9999999/1" timeRangeDuration="0/1" interpolaterName=""  />
                </ZoomPanKeyframes>
               </ZoomPanBin>
              </Entry>
             </ExtraData>
            </VMFile>
            <MetaData>
             <entry key="WinSubProjectDisplayName" val=""/>
            </MetaData>
           </UnifiedMedia>
           <UnifiedMedia id="4032"  >
            <AMFile id="4033" start="7021" duration="139" scalar="1/1" mediaStart="8197/1" mediaDuration="139/1" trackNumber="2" src="4" channelNumber="0,1" >
             <Parameters>
              <InterpolatingParam id="4034" interp="linr"  time="0/1" value="1" leadInLength="0/1"  name="volume"/>
              <Parameter id="4035"  name="captions"/>
             </Parameters>
             <Attributes>
              <Attribute id="4036" value="" name="ident"/>
              <Attribute id="4037" value="44100" name="sampleRate"/>
              <Attribute id="4038" value="16" name="bitDepth"/>
              <Attribute id="4039" value="1" name="gain"/>
              <Attribute id="4040" value="0" name="mixToMono"/>
             </Attributes>
            </AMFile>
            <VMFile id="4041" start="7021" duration="139" scalar="1/1" mediaStart="8197/1" mediaDuration="139/1" trackNumber="1" src="4" >
             <Transformer>
              <VectorParam id="4042"  name="translation">
               <InterpolatingParam id="4043" interp="linr"  time="-9999999/1" value="0" leadInLength="0/1"  />
               <InterpolatingParam id="4044" interp="linr"  time="-9999999/1" value="0" leadInLength="0/1"  />
               <InterpolatingParam id="4045" interp="linr"  time="-9999999/1" value="0" leadInLength="0/1"  />
              </VectorParam>
              <VectorParam id="4046"  name="rotation">
               <InterpolatingParam id="4047" interp="linr"  time="-9999999/1" value="0" leadInLength="0/1"  />
               <InterpolatingParam id="4048" interp="linr"  time="-9999999/1" value="0" leadInLength="0/1"  />
               <InterpolatingParam id="4049" interp="linr"  time="-9999999/1" value="0" leadInLength="0/1"  />
              </VectorParam>
              <VectorParam id="4050"  name="shear">
               <InterpolatingParam id="4051" interp="linr"  time="-9999999/1" value="0" leadInLength="0/1"  />
               <InterpolatingParam id="4052" interp="linr"  time="-9999999/1" value="0" leadInLength="0/1"  />
               <InterpolatingParam id="4053" interp="linr"  time="-9999999/1" value="0" leadInLength="0/1"  />
              </VectorParam>
              <VectorParam id="4054"  name="scale">
               <InterpolatingParam id="4055" interp="linr"  time="-9999999/1" value="1" leadInLength="0/1"  />
               <InterpolatingParam id="4056" interp="linr"  time="-9999999/1" value="1" leadInLength="0/1"  />
               <InterpolatingParam id="4057" interp="linr"  time="-9999999/1" value="1" leadInLength="0/1"  />
              </VectorParam>
              <VectorParam id="4058"  name="anchor">
               <InterpolatingParam id="4059" interp="linr"  time="0/1" value="0" leadInLength="0/1"  />
               <InterpolatingParam id="4060" interp="linr"  time="0/1" value="0" leadInLength="0/1"  />
               <InterpolatingParam id="4061" interp="linr"  time="0/1" value="0" leadInLength="0/1"  />
              </VectorParam>
             </Transformer>
             <Parameters>
              <VectorParam id="4062"  name="sourceCrop">
               <InterpolatingParam id="4063" interp="linr"  time="0/1" value="0" leadInLength="0/1"  />
               <InterpolatingParam id="4064" interp="linr"  time="0/1" value="0" leadInLength="0/1"  />
               <InterpolatingParam id="4065" interp="linr"  time="0/1" value="0" leadInLength="0/1"  />
               <InterpolatingParam id="4066" interp="linr"  time="0/1" value="0" leadInLength="0/1"  />
              </VectorParam>
              <VectorParam id="4067"  name="geometryCrop">
               <InterpolatingParam id="4068" interp="linr"  time="-9999999/1" value="0" leadInLength="0/1"  />
               <InterpolatingParam id="4069" interp="linr"  time="-9999999/1" value="0" leadInLength="0/1"  />
               <InterpolatingParam id="4070" interp="linr"  time="-9999999/1" value="0" leadInLength="0/1"  />
               <InterpolatingParam id="4071" interp="linr"  time="-9999999/1" value="0" leadInLength="0/1"  />
              </VectorParam>
              <InterpolatingParam id="4072" interp="linr"  time="-9999999/1" value="1" leadInLength="0/1"  name="opacity"/>
             </Parameters>
             <Attributes>
              <Attribute id="4073" value="" name="ident"/>
             </Attributes>
             <ExtraData>
              <Entry key="ZoomPanBin">
               <ZoomPanBin id="4074"  >
                <ZoomPanKeyframes>
                 <ZoomPanKeyframe id="4075" timeRangeEnd="-9999999/1" timeRangeDuration="0/1" interpolaterName=""  />
                </ZoomPanKeyframes>
               </ZoomPanBin>
              </Entry>
             </ExtraData>
            </VMFile>
            <MetaData>
             <entry key="WinSubProjectDisplayName" val=""/>
            </MetaData>
           </UnifiedMedia>
           <UnifiedMedia id="4076"  >
            <AMFile id="4077" start="7160" duration="4562" scalar="1/1" mediaStart="8391/1" mediaDuration="4562/1" trackNumber="2" src="4" channelNumber="0,1" >
             <Parameters>
              <InterpolatingParam id="4078" interp="linr"  time="0/1" value="1" leadInLength="0/1"  name="volume"/>
              <Parameter id="4079"  name="captions"/>
             </Parameters>
             <Attributes>
              <Attribute id="4080" value="" name="ident"/>
              <Attribute id="4081" value="44100" name="sampleRate"/>
              <Attribute id="4082" value="16" name="bitDepth"/>
              <Attribute id="4083" value="1" name="gain"/>
              <Attribute id="4084" value="0" name="mixToMono"/>
             </Attributes>
            </AMFile>
            <VMFile id="4085" start="7160" duration="4562" scalar="1/1" mediaStart="8391/1" mediaDuration="4562/1" trackNumber="1" src="4" >
             <Transformer>
              <VectorParam id="4086"  name="translation">
               <InterpolatingParam id="4087" interp="linr"  time="-9999999/1" value="0" leadInLength="0/1"  />
               <InterpolatingParam id="4088" interp="linr"  time="-9999999/1" value="0" leadInLength="0/1"  />
               <InterpolatingParam id="4089" interp="linr"  time="-9999999/1" value="0" leadInLength="0/1"  />
              </VectorParam>
              <VectorParam id="4090"  name="rotation">
               <InterpolatingParam id="4091" interp="linr"  time="-9999999/1" value="0" leadInLength="0/1"  />
               <InterpolatingParam id="4092" interp="linr"  time="-9999999/1" value="0" leadInLength="0/1"  />
               <InterpolatingParam id="4093" interp="linr"  time="-9999999/1" value="0" leadInLength="0/1"  />
              </VectorParam>
              <VectorParam id="4094"  name="shear">
               <InterpolatingParam id="4095" interp="linr"  time="-9999999/1" value="0" leadInLength="0/1"  />
               <InterpolatingParam id="4096" interp="linr"  time="-9999999/1" value="0" leadInLength="0/1"  />
               <InterpolatingParam id="4097" interp="linr"  time="-9999999/1" value="0" leadInLength="0/1"  />
              </VectorParam>
              <VectorParam id="4098"  name="scale">
               <InterpolatingParam id="4099" interp="linr"  time="-9999999/1" value="1" leadInLength="0/1"  />
               <InterpolatingParam id="4100" interp="linr"  time="-9999999/1" value="1" leadInLength="0/1"  />
               <InterpolatingParam id="4101" interp="linr"  time="-9999999/1" value="1" leadInLength="0/1"  />
              </VectorParam>
              <VectorParam id="4102"  name="anchor">
               <InterpolatingParam id="4103" interp="linr"  time="0/1" value="0" leadInLength="0/1"  />
               <InterpolatingParam id="4104" interp="linr"  time="0/1" value="0" leadInLength="0/1"  />
               <InterpolatingParam id="4105" interp="linr"  time="0/1" value="0" leadInLength="0/1"  />
              </VectorParam>
             </Transformer>
             <Parameters>
              <VectorParam id="4106"  name="sourceCrop">
               <InterpolatingParam id="4107" interp="linr"  time="0/1" value="0" leadInLength="0/1"  />
               <InterpolatingParam id="4108" interp="linr"  time="0/1" value="0" leadInLength="0/1"  />
               <InterpolatingParam id="4109" interp="linr"  time="0/1" value="0" leadInLength="0/1"  />
               <InterpolatingParam id="4110" interp="linr"  time="0/1" value="0" leadInLength="0/1"  />
              </VectorParam>
              <VectorParam id="4111"  name="geometryCrop">
               <InterpolatingParam id="4112" interp="linr"  time="-9999999/1" value="0" leadInLength="0/1"  />
               <InterpolatingParam id="4113" interp="linr"  time="-9999999/1" value="0" leadInLength="0/1"  />
               <InterpolatingParam id="4114" interp="linr"  time="-9999999/1" value="0" leadInLength="0/1"  />
               <InterpolatingParam id="4115" interp="linr"  time="-9999999/1" value="0" leadInLength="0/1"  />
              </VectorParam>
              <InterpolatingParam id="4116" interp="linr"  time="-9999999/1" value="1" leadInLength="0/1"  name="opacity"/>
             </Parameters>
             <Attributes>
              <Attribute id="4117" value="" name="ident"/>
             </Attributes>
             <ExtraData>
              <Entry key="ZoomPanBin">
               <ZoomPanBin id="4118"  >
                <ZoomPanKeyframes>
                 <ZoomPanKeyframe id="4119" timeRangeEnd="-9999999/1" timeRangeDuration="0/1" interpolaterName=""  />
                </ZoomPanKeyframes>
               </ZoomPanBin>
              </Entry>
             </ExtraData>
            </VMFile>
            <MetaData>
             <entry key="WinSubProjectDisplayName" val=""/>
            </MetaData>
           </UnifiedMedia>
           <UnifiedMedia id="4120"  >
            <AMFile id="4121" start="11722" duration="815" scalar="1/1" mediaStart="13091/1" mediaDuration="815/1" trackNumber="2" src="4" channelNumber="0,1" >
             <Parameters>
              <InterpolatingParam id="4122" interp="linr"  time="0/1" value="1" leadInLength="0/1"  name="volume"/>
              <Parameter id="4123"  name="captions"/>
             </Parameters>
             <Attributes>
              <Attribute id="4124" value="" name="ident"/>
              <Attribute id="4125" value="44100" name="sampleRate"/>
              <Attribute id="4126" value="16" name="bitDepth"/>
              <Attribute id="4127" value="1" name="gain"/>
              <Attribute id="4128" value="0" name="mixToMono"/>
             </Attributes>
            </AMFile>
            <VMFile id="4129" start="11722" duration="815" scalar="1/1" mediaStart="13091/1" mediaDuration="815/1" trackNumber="1" src="4" >
             <Transformer>
              <VectorParam id="4130"  name="translation">
               <InterpolatingParam id="4131" interp="linr"  time="-9999999/1" value="0" leadInLength="0/1"  />
               <InterpolatingParam id="4132" interp="linr"  time="-9999999/1" value="0" leadInLength="0/1"  />
               <InterpolatingParam id="4133" interp="linr"  time="-9999999/1" value="0" leadInLength="0/1"  />
              </VectorParam>
              <VectorParam id="4134"  name="rotation">
               <InterpolatingParam id="4135" interp="linr"  time="-9999999/1" value="0" leadInLength="0/1"  />
               <InterpolatingParam id="4136" interp="linr"  time="-9999999/1" value="0" leadInLength="0/1"  />
               <InterpolatingParam id="4137" interp="linr"  time="-9999999/1" value="0" leadInLength="0/1"  />
              </VectorParam>
              <VectorParam id="4138"  name="shear">
               <InterpolatingParam id="4139" interp="linr"  time="-9999999/1" value="0" leadInLength="0/1"  />
               <InterpolatingParam id="4140" interp="linr"  time="-9999999/1" value="0" leadInLength="0/1"  />
               <InterpolatingParam id="4141" interp="linr"  time="-9999999/1" value="0" leadInLength="0/1"  />
              </VectorParam>
              <VectorParam id="4142"  name="scale">
               <InterpolatingParam id="4143" interp="linr"  time="-9999999/1" value="1" leadInLength="0/1"  />
               <InterpolatingParam id="4144" interp="linr"  time="-9999999/1" value="1" leadInLength="0/1"  />
               <InterpolatingParam id="4145" interp="linr"  time="-9999999/1" value="1" leadInLength="0/1"  />
              </VectorParam>
              <VectorParam id="4146"  name="anchor">
               <InterpolatingParam id="4147" interp="linr"  time="0/1" value="0" leadInLength="0/1"  />
               <InterpolatingParam id="4148" interp="linr"  time="0/1" value="0" leadInLength="0/1"  />
               <InterpolatingParam id="4149" interp="linr"  time="0/1" value="0" leadInLength="0/1"  />
              </VectorParam>
             </Transformer>
             <Parameters>
              <VectorParam id="4150"  name="sourceCrop">
               <InterpolatingParam id="4151" interp="linr"  time="0/1" value="0" leadInLength="0/1"  />
               <InterpolatingParam id="4152" interp="linr"  time="0/1" value="0" leadInLength="0/1"  />
               <InterpolatingParam id="4153" interp="linr"  time="0/1" value="0" leadInLength="0/1"  />
               <InterpolatingParam id="4154" interp="linr"  time="0/1" value="0" leadInLength="0/1"  />
              </VectorParam>
              <VectorParam id="4155"  name="geometryCrop">
               <InterpolatingParam id="4156" interp="linr"  time="-9999999/1" value="0" leadInLength="0/1"  />
               <InterpolatingParam id="4157" interp="linr"  time="-9999999/1" value="0" leadInLength="0/1"  />
               <InterpolatingParam id="4158" interp="linr"  time="-9999999/1" value="0" leadInLength="0/1"  />
               <InterpolatingParam id="4159" interp="linr"  time="-9999999/1" value="0" leadInLength="0/1"  />
              </VectorParam>
              <InterpolatingParam id="4160" interp="linr"  time="-9999999/1" value="1" leadInLength="0/1"  name="opacity"/>
             </Parameters>
             <Attributes>
              <Attribute id="4161" value="" name="ident"/>
             </Attributes>
             <ExtraData>
              <Entry key="ZoomPanBin">
               <ZoomPanBin id="4162"  >
                <ZoomPanKeyframes>
                 <ZoomPanKeyframe id="4163" timeRangeEnd="-9999999/1" timeRangeDuration="0/1" interpolaterName=""  />
                </ZoomPanKeyframes>
               </ZoomPanBin>
              </Entry>
             </ExtraData>
            </VMFile>
            <MetaData>
             <entry key="WinSubProjectDisplayName" val=""/>
            </MetaData>
           </UnifiedMedia>
          </Medias>
         </GenericTrack>
        </StitchedMedia>
       </Medias>
      </GenericTrack>
      <GenericTrack id="4164"  >
       <Attributes>
        <Attribute id="4165" value="" name="ident"/>
        <Attribute id="4166" value="0" name="audioMuted"/>
        <Attribute id="4167" value="0" name="videoHidden"/>
       </Attributes>
       <MetaData>
        <entry key="IsLocked" val="False"/>
        <entry key="WinTrackHeight" val="62"/>
       </MetaData>
       <Medias>
        <Callout id="4168" start="2714" duration="262" scalar="1/1" mediaStart="0/1" mediaDuration="262/1" >
         <Transformer>
          <VectorParam id="4169"  name="translation">
           <InterpolatingParam id="4170" interp="linr"  time="-9999999/1" value="76.054585152846556" leadInLength="0/1"  />
           <InterpolatingParam id="4171" interp="linr"  time="-9999999/1" value="-57.413755458278715" leadInLength="0/1"  />
           <InterpolatingParam id="4172" interp="linr"  time="-9999999/1" value="0" leadInLength="0/1"  />
          </VectorParam>
          <VectorParam id="4173"  name="rotation">
           <InterpolatingParam id="4174" interp="linr"  time="-9999999/1" value="0" leadInLength="0/1"  />
           <InterpolatingParam id="4175" interp="linr"  time="-9999999/1" value="0" leadInLength="0/1"  />
           <InterpolatingParam id="4176" interp="linr"  time="-9999999/1" value="0" leadInLength="0/1"  />
          </VectorParam>
          <VectorParam id="4177"  name="shear">
           <InterpolatingParam id="4178" interp="linr"  time="-9999999/1" value="0" leadInLength="0/1"  />
           <InterpolatingParam id="4179" interp="linr"  time="-9999999/1" value="0" leadInLength="0/1"  />
           <InterpolatingParam id="4180" interp="linr"  time="-9999999/1" value="0" leadInLength="0/1"  />
          </VectorParam>
          <VectorParam id="4181"  name="scale">
           <InterpolatingParam id="4182" interp="linr"  time="-9999999/1" value="1" leadInLength="0/1"  />
           <InterpolatingParam id="4183" interp="linr"  time="-9999999/1" value="1.107702571565657" leadInLength="0/1"  />
           <InterpolatingParam id="4184" interp="linr"  time="-9999999/1" value="1" leadInLength="0/1"  />
          </VectorParam>
          <VectorParam id="4185"  name="anchor">
           <InterpolatingParam id="4186" interp="linr"  time="0/1" value="0" leadInLength="0/1"  />
           <InterpolatingParam id="4187" interp="linr"  time="0/1" value="0" leadInLength="0/1"  />
           <InterpolatingParam id="4188" interp="linr"  time="0/1" value="0" leadInLength="0/1"  />
          </VectorParam>
         </Transformer>
         <Parameters>
          <VectorParam id="4189"  name="sourceCrop">
           <InterpolatingParam id="4190" interp="linr"  time="0/1" value="0" leadInLength="0/1"  />
           <InterpolatingParam id="4191" interp="linr"  time="0/1" value="0" leadInLength="0/1"  />
           <InterpolatingParam id="4192" interp="linr"  time="0/1" value="0" leadInLength="0/1"  />
           <InterpolatingParam id="4193" interp="linr"  time="0/1" value="0" leadInLength="0/1"  />
          </VectorParam>
          <VectorParam id="4194"  name="geometryCrop">
           <InterpolatingParam id="4195" interp="linr"  time="-9999999/1" value="0" leadInLength="0/1"  />
           <InterpolatingParam id="4196" interp="linr"  time="-9999999/1" value="0" leadInLength="0/1"  />
           <InterpolatingParam id="4197" interp="linr"  time="-9999999/1" value="0" leadInLength="0/1"  />
           <InterpolatingParam id="4198" interp="linr"  time="-9999999/1" value="0" leadInLength="0/1"  />
          </VectorParam>
          <InterpolatingParam id="4199" interp="linr"  time="-9999999/1" value="1" leadInLength="0/1"  name="opacity"/>
         </Parameters>
         <Attributes>
          <Attribute id="4200"  name="vectorNode">
           <VectorNode id="4201" kind="TypeWinPixelate"  >
            <DoubleParameters>
             <InterpolatingParam id="4202" interp="linr"  time="0/1" value="0.5" leadInLength="0/1"  name="Intensity"/>
             <InterpolatingParam id="4203" interp="linr"  time="0/1" value="180" leadInLength="0/1"  name="height"/>
             <InterpolatingParam id="4204" interp="linr"  time="0/1" value="341.5" leadInLength="0/1"  name="width"/>
            </DoubleParameters>
            <StringParameters>
             <Parameter id="4205"  name="filename">
              <Keyframes>
              <Keyframe id="4206"  time="0/1" value="D:\Media\Studio\Callouts\pixelate_100x100.xml" leadInLength="0/1"  />
              </Keyframes>
             </Parameter>
             <Parameter id="4207"  name="name">
              <Keyframes>
              <Keyframe id="4208"  time="0/1" value="Pixelate" leadInLength="0/1"  />
              </Keyframes>
             </Parameter>
             <Parameter id="4209"  name="xmlContent">
              <Keyframes>
              <Keyframe id="4210"  time="0/1" value="﻿&lt;?xml version=&quot;1.0&quot;?&gt;&#xa;&#xa;&lt;Overlay version=&quot;1.0.1&quot;&gt;&#xa;&#xa;&lt;Overlay_Filename&gt;pixelate_100x100.png&lt;/Overlay_Filename&gt;&#xa;&lt;Overlay_Name&gt;Pixelate&lt;/Overlay_Name&gt;&#xa;&lt;Text_Top&gt;0&lt;/Text_Top&gt;&#xa;&lt;Text_Left&gt;0&lt;/Text_Left&gt;&#xa;&lt;Text_Bottom&gt;0&lt;/Text_Bottom&gt;&#xa;&lt;Text_Right&gt;0&lt;/Text_Right&gt;&#xa;&lt;Fill_Color&gt;0&lt;/Fill_Color&gt;&#xa;&lt;Border_Color&gt;0&lt;/Border_Color&gt;&#xa;&lt;/Overlay&gt;" leadInLength="0/1"  />
              </Keyframes>
             </Parameter>
            </StringParameters>
           </VectorNode>
          </Attribute>
         </Attributes>
         <MetaData>
          <entry key="WinSubProjectDisplayName" val=""/>
         </MetaData>
         <LeftEdgeMods length="30/1" groupName="OpacityFade">
          <EdgeMod parameter="4202">
           <FadeInFunc id="4211"  />
          </EdgeMod>
         </LeftEdgeMods>
         <ExtraData>
          <Entry key="ZoomPanBin">
           <ZoomPanBin id="4212"  >
            <ZoomPanKeyframes>
             <ZoomPanKeyframe id="4213" timeRangeEnd="-9999999/1" timeRangeDuration="0/1" interpolaterName="linr"  />
            </ZoomPanKeyframes>
           </ZoomPanBin>
          </Entry>
         </ExtraData>
        </Callout>
        <Callout id="4214" start="2976" duration="46" scalar="1/1" mediaStart="296/1" mediaDuration="46/1" >
         <Transformer>
          <VectorParam id="4215"  name="translation">
           <InterpolatingParam id="4216" interp="linr"  time="-9999999/1" value="76.054585152846556" leadInLength="0/1"  />
           <InterpolatingParam id="4217" interp="linr"  time="-9999999/1" value="-57.413755458278715" leadInLength="0/1"  />
           <InterpolatingParam id="4218" interp="linr"  time="-9999999/1" value="0" leadInLength="0/1"  />
          </VectorParam>
          <VectorParam id="4219"  name="rotation">
           <InterpolatingParam id="4220" interp="linr"  time="-9999999/1" value="0" leadInLength="0/1"  />
           <InterpolatingParam id="4221" interp="linr"  time="-9999999/1" value="0" leadInLength="0/1"  />
           <InterpolatingParam id="4222" interp="linr"  time="-9999999/1" value="0" leadInLength="0/1"  />
          </VectorParam>
          <VectorParam id="4223"  name="shear">
           <InterpolatingParam id="4224" interp="linr"  time="-9999999/1" value="0" leadInLength="0/1"  />
           <InterpolatingParam id="4225" interp="linr"  time="-9999999/1" value="0" leadInLength="0/1"  />
           <InterpolatingParam id="4226" interp="linr"  time="-9999999/1" value="0" leadInLength="0/1"  />
          </VectorParam>
          <VectorParam id="4227"  name="scale">
           <InterpolatingParam id="4228" interp="linr"  time="-9999999/1" value="1" leadInLength="0/1"  />
           <InterpolatingParam id="4229" interp="linr"  time="-9999999/1" value="1.107702571565657" leadInLength="0/1"  />
           <InterpolatingParam id="4230" interp="linr"  time="-9999999/1" value="1" leadInLength="0/1"  />
          </VectorParam>
          <VectorParam id="4231"  name="anchor">
           <InterpolatingParam id="4232" interp="linr"  time="0/1" value="0" leadInLength="0/1"  />
           <InterpolatingParam id="4233" interp="linr"  time="0/1" value="0" leadInLength="0/1"  />
           <InterpolatingParam id="4234" interp="linr"  time="0/1" value="0" leadInLength="0/1"  />
          </VectorParam>
         </Transformer>
         <Parameters>
          <VectorParam id="4235"  name="sourceCrop">
           <InterpolatingParam id="4236" interp="linr"  time="0/1" value="0" leadInLength="0/1"  />
           <InterpolatingParam id="4237" interp="linr"  time="0/1" value="0" leadInLength="0/1"  />
           <InterpolatingParam id="4238" interp="linr"  time="0/1" value="0" leadInLength="0/1"  />
           <InterpolatingParam id="4239" interp="linr"  time="0/1" value="0" leadInLength="0/1"  />
          </VectorParam>
          <VectorParam id="4240"  name="geometryCrop">
           <InterpolatingParam id="4241" interp="linr"  time="-9999999/1" value="0" leadInLength="0/1"  />
           <InterpolatingParam id="4242" interp="linr"  time="-9999999/1" value="0" leadInLength="0/1"  />
           <InterpolatingParam id="4243" interp="linr"  time="-9999999/1" value="0" leadInLength="0/1"  />
           <InterpolatingParam id="4244" interp="linr"  time="-9999999/1" value="0" leadInLength="0/1"  />
          </VectorParam>
          <InterpolatingParam id="4245" interp="linr"  time="-9999999/1" value="1" leadInLength="0/1"  name="opacity"/>
         </Parameters>
         <Attributes>
          <Attribute id="4246"  name="vectorNode">
           <VectorNode id="4247" kind="TypeWinPixelate"  >
            <DoubleParameters>
             <InterpolatingParam id="4248" interp="linr"  time="0/1" value="0.5" leadInLength="0/1"  name="Intensity"/>
             <InterpolatingParam id="4249" interp="linr"  time="0/1" value="180" leadInLength="0/1"  name="height"/>
             <InterpolatingParam id="4250" interp="linr"  time="0/1" value="341.5" leadInLength="0/1"  name="width"/>
            </DoubleParameters>
            <StringParameters>
             <Parameter id="4251"  name="filename">
              <Keyframes>
              <Keyframe id="4252"  time="0/1" value="D:\Media\Studio\Callouts\pixelate_100x100.xml" leadInLength="0/1"  />
              </Keyframes>
             </Parameter>
             <Parameter id="4253"  name="name">
              <Keyframes>
              <Keyframe id="4254"  time="0/1" value="Pixelate" leadInLength="0/1"  />
              </Keyframes>
             </Parameter>
             <Parameter id="4255"  name="xmlContent">
              <Keyframes>
              <Keyframe id="4256"  time="0/1" value="﻿&lt;?xml version=&quot;1.0&quot;?&gt;&#xa;&#xa;&lt;Overlay version=&quot;1.0.1&quot;&gt;&#xa;&#xa;&lt;Overlay_Filename&gt;pixelate_100x100.png&lt;/Overlay_Filename&gt;&#xa;&lt;Overlay_Name&gt;Pixelate&lt;/Overlay_Name&gt;&#xa;&lt;Text_Top&gt;0&lt;/Text_Top&gt;&#xa;&lt;Text_Left&gt;0&lt;/Text_Left&gt;&#xa;&lt;Text_Bottom&gt;0&lt;/Text_Bottom&gt;&#xa;&lt;Text_Right&gt;0&lt;/Text_Right&gt;&#xa;&lt;Fill_Color&gt;0&lt;/Fill_Color&gt;&#xa;&lt;Border_Color&gt;0&lt;/Border_Color&gt;&#xa;&lt;/Overlay&gt;" leadInLength="0/1"  />
              </Keyframes>
             </Parameter>
            </StringParameters>
           </VectorNode>
          </Attribute>
         </Attributes>
         <MetaData>
          <entry key="WinSubProjectDisplayName" val=""/>
         </MetaData>
         <RightEdgeMods length="30/1" groupName="OpacityFade">
          <EdgeMod parameter="4248">
           <FadeOutFunc id="4257"  />
          </EdgeMod>
         </RightEdgeMods>
         <ExtraData>
          <Entry key="ZoomPanBin">
           <ZoomPanBin id="4258"  >
            <ZoomPanKeyframes>
             <ZoomPanKeyframe id="4259" timeRangeEnd="-9999999/1" timeRangeDuration="0/1" interpolaterName="linr"  />
            </ZoomPanKeyframes>
           </ZoomPanBin>
          </Entry>
         </ExtraData>
        </Callout>
        <Callout id="4260" start="4463" duration="520" scalar="1/1" mediaStart="0/1" mediaDuration="520/1" >
         <Transformer>
          <VectorParam id="4261"  name="translation">
           <InterpolatingParam id="4262" interp="linr"  time="-9999999/1" value="153.60043668103856" leadInLength="0/1"  />
           <InterpolatingParam id="4263" interp="linr"  time="-9999999/1" value="171.49563318787955" leadInLength="0/1"  />
           <InterpolatingParam id="4264" interp="linr"  time="-9999999/1" value="0" leadInLength="0/1"  />
          </VectorParam>
          <VectorParam id="4265"  name="rotation">
           <InterpolatingParam id="4266" interp="linr"  time="-9999999/1" value="0" leadInLength="0/1"  />
           <InterpolatingParam id="4267" interp="linr"  time="-9999999/1" value="0" leadInLength="0/1"  />
           <InterpolatingParam id="4268" interp="linr"  time="-9999999/1" value="0" leadInLength="0/1"  />
          </VectorParam>
          <VectorParam id="4269"  name="shear">
           <InterpolatingParam id="4270" interp="linr"  time="-9999999/1" value="0" leadInLength="0/1"  />
           <InterpolatingParam id="4271" interp="linr"  time="-9999999/1" value="0" leadInLength="0/1"  />
           <InterpolatingParam id="4272" interp="linr"  time="-9999999/1" value="0" leadInLength="0/1"  />
          </VectorParam>
          <VectorParam id="4273"  name="scale">
           <InterpolatingParam id="4274" interp="linr"  time="-9999999/1" value="1.4104803493439839" leadInLength="0/1"  />
           <InterpolatingParam id="4275" interp="linr"  time="-9999999/1" value="0.47001456344007209" leadInLength="0/1"  />
           <InterpolatingParam id="4276" interp="linr"  time="-9999999/1" value="1" leadInLength="0/1"  />
          </VectorParam>
          <VectorParam id="4277"  name="anchor">
           <InterpolatingParam id="4278" interp="linr"  time="0/1" value="0" leadInLength="0/1"  />
           <InterpolatingParam id="4279" interp="linr"  time="0/1" value="0" leadInLength="0/1"  />
           <InterpolatingParam id="4280" interp="linr"  time="0/1" value="0" leadInLength="0/1"  />
          </VectorParam>
         </Transformer>
         <Parameters>
          <VectorParam id="4281"  name="sourceCrop">
           <InterpolatingParam id="4282" interp="linr"  time="0/1" value="0" leadInLength="0/1"  />
           <InterpolatingParam id="4283" interp="linr"  time="0/1" value="0" leadInLength="0/1"  />
           <InterpolatingParam id="4284" interp="linr"  time="0/1" value="0" leadInLength="0/1"  />
           <InterpolatingParam id="4285" interp="linr"  time="0/1" value="0" leadInLength="0/1"  />
          </VectorParam>
          <VectorParam id="4286"  name="geometryCrop">
           <InterpolatingParam id="4287" interp="linr"  time="-9999999/1" value="0" leadInLength="0/1"  />
           <InterpolatingParam id="4288" interp="linr"  time="-9999999/1" value="0" leadInLength="0/1"  />
           <InterpolatingParam id="4289" interp="linr"  time="-9999999/1" value="0" leadInLength="0/1"  />
           <InterpolatingParam id="4290" interp="linr"  time="-9999999/1" value="0" leadInLength="0/1"  />
          </VectorParam>
          <InterpolatingParam id="4291" interp="linr"  time="-9999999/1" value="1" leadInLength="0/1"  name="opacity"/>
         </Parameters>
         <Attributes>
          <Attribute id="4292"  name="vectorNode">
           <VectorNode id="4293" kind="TypeWinSimple"  >
            <DoubleParameters>
             <InterpolatingParam id="4294" interp="linr"  time="0/1" value="-1" leadInLength="0/1"  name="CutoutPercentage"/>
             <InterpolatingParam id="4295" interp="linr"  time="0/1" value="-1" leadInLength="0/1"  name="RoundedRectRadius"/>
             <InterpolatingParam id="4296" interp="linr"  time="0/1" value="4" leadInLength="0/1"  name="Style"/>
             <InterpolatingParam id="4297" interp="linr"  time="0/1" value="155" leadInLength="0/1"  name="borderColorBlue"/>
             <InterpolatingParam id="4298" interp="linr"  time="0/1" value="133" leadInLength="0/1"  name="borderColorGreen"/>
             <InterpolatingParam id="4299" interp="linr"  time="0/1" value="49" leadInLength="0/1"  name="borderColorRed"/>
             <InterpolatingParam id="4300" interp="linr"  time="0/1" value="0" leadInLength="0/1"  name="borderState"/>
             <InterpolatingParam id="4301" interp="linr"  time="0/1" value="3" leadInLength="0/1"  name="borderWidth"/>
             <InterpolatingParam id="4302" interp="linr"  time="0/1" value="0" leadInLength="0/1"  name="dimensionTime"/>
             <InterpolatingParam id="4303" interp="linr"  time="0/1" value="123" leadInLength="0/1"  name="fillColorBlue"/>
             <InterpolatingParam id="4304" interp="linr"  time="0/1" value="117" leadInLength="0/1"  name="fillColorGreen"/>
             <InterpolatingParam id="4305" interp="linr"  time="0/1" value="235" leadInLength="0/1"  name="fillColorRed"/>
             <InterpolatingParam id="4306" interp="linr"  time="0/1" value="1" leadInLength="0/1"  name="fillState"/>
             <InterpolatingParam id="4307" interp="linr"  time="0/1" value="0" leadInLength="0/1"  name="flipOnXAxis"/>
             <InterpolatingParam id="4308" interp="linr"  time="0/1" value="0" leadInLength="0/1"  name="flipOnYAxis"/>
             <InterpolatingParam id="4309" interp="linr"  time="0/1" value="247.61329305135951" leadInLength="0/1"  name="height"/>
             <InterpolatingParam id="4310" interp="linr"  time="0/1" value="0" leadInLength="0/1"  name="textDropShadow"/>
             <InterpolatingParam id="4311" interp="linr"  time="0/1" value="0" leadInLength="0/1"  name="textIgnoresOpacity"/>
             <InterpolatingParam id="4312" interp="linr"  time="0/1" value="0.875" leadInLength="0/1"  name="textRectHeight"/>
             <InterpolatingParam id="4313" interp="linr"  time="0/1" value="0.90936555891238668" leadInLength="0/1"  name="textRectWidth"/>
             <InterpolatingParam id="4314" interp="linr"  time="0/1" value="0.045317220543806644" leadInLength="0/1"  name="textRectX"/>
             <InterpolatingParam id="4315" interp="linr"  time="0/1" value="0.0625" leadInLength="0/1"  name="textRectY"/>
             <InterpolatingParam id="4316" interp="linr"  time="0/1" value="0" leadInLength="0/1"  name="textVerticalAlign"/>
             <InterpolatingParam id="4317" interp="linr"  time="0/1" value="341.5" leadInLength="0/1"  name="width"/>
            </DoubleParameters>
            <StringParameters>
             <Parameter id="4318"  name="VectorPath">
              <Keyframes>
              <Keyframe id="4319"  time="0/1" value="M0,0h331v240H0V0z" leadInLength="0/1"  />
              </Keyframes>
             </Parameter>
             <Parameter id="4320"  name="filename">
              <Keyframes>
              <Keyframe id="4321"  time="0/1" value="D:\Media\Studio\Callouts\rectanglewithtext.xml" leadInLength="0/1"  />
              </Keyframes>
             </Parameter>
             <Parameter id="4322"  name="name">
              <Keyframes>
              <Keyframe id="4323"  time="0/1" value="Simple Rectangle" leadInLength="0/1"  />
              </Keyframes>
             </Parameter>
             <Parameter id="4324"  name="text">
              <Keyframes>
              <Keyframe id="4325"  time="0/1" value="{\rtf1\ansi\ansicpg1252\deff0\deflang1033{\fonttbl{\f0\fswiss\fprq2\fcharset0 Arial;}}&#xD;&#xa;{\colortbl ;\red255\green255\blue255;}&#xD;&#xa;\viewkind4\uc1\pard\qc\cf1\b\f0\fs36  from the LED pin, using a relay you can control any device with an ON and OFF switch\b0\fs32\par&#xD;&#xa;}&#xD;&#xa;" leadInLength="0/1"  />
              </Keyframes>
             </Parameter>
             <Parameter id="4326"  name="xmlContent">
              <Keyframes>
              <Keyframe id="4327"  time="0/1" value="﻿&lt;?xml version=&quot;1.0&quot;?&gt;&#xa;&#xa;&lt;Overlay version=&quot;1.0.1&quot;&gt;&#xa;&#xa;&lt;Overlay_Filename&gt;rectanglewithtext.png&lt;/Overlay_Filename&gt;&#xa;&lt;Overlay_Name&gt;Simple Rectangle&lt;/Overlay_Name&gt;&#xa;&lt;Text_Top&gt;15&lt;/Text_Top&gt;&#xa;&lt;Text_Left&gt;15&lt;/Text_Left&gt;&#xa;&lt;Text_Bottom&gt;15&lt;/Text_Bottom&gt;&#xa;&lt;Text_Right&gt;15&lt;/Text_Right&gt;&#xa;&lt;Fill_Color&gt;1&lt;/Fill_Color&gt;&#xa;&lt;Border_Color&gt;1&lt;/Border_Color&gt;&#xa;&lt;Initial_Fill_Color&gt;0xff9b8531&lt;/Initial_Fill_Color&gt;&#xa;&lt;Initial_Border_Color&gt;0xff9b8531&lt;/Initial_Border_Color&gt;&#xa;&lt;VectorProps&gt;&#xa;&lt;figure&gt;&#xa;&lt;svg&gt;M0,0h331v240H0V0z&lt;/svg&gt;&#xa;&lt;/figure&gt;&#xa;&lt;seamY&gt;-1&lt;/seamY&gt;&#xa;&lt;shapeWidth&gt;331&lt;/shapeWidth&gt;&#xa;&lt;shapeHeight&gt;240&lt;/shapeHeight&gt;&#xa;&lt;/VectorProps&gt;&#xa;&lt;Style&gt;4&lt;/Style&gt;&#xa;&lt;UseDefaultSpec&gt;1&lt;/UseDefaultSpec&gt;   &#xa;&lt;/Overlay&gt;" leadInLength="0/1"  />
              </Keyframes>
             </Parameter>
            </StringParameters>
           </VectorNode>
          </Attribute>
         </Attributes>
         <MetaData>
          <entry key="WinSubProjectDisplayName" val=""/>
         </MetaData>
         <LeftEdgeMods length="0/1" groupName="OpacityFade">
          <EdgeMod parameter="4291">
           <FadeInFunc id="4328"  />
          </EdgeMod>
         </LeftEdgeMods>
         <ExtraData>
          <Entry key="ZoomPanBin">
           <ZoomPanBin id="4329"  >
            <ZoomPanKeyframes>
             <ZoomPanKeyframe id="4330" timeRangeEnd="-9999999/1" timeRangeDuration="0/1" interpolaterName="linr"  />
            </ZoomPanKeyframes>
           </ZoomPanBin>
          </Entry>
         </ExtraData>
        </Callout>
        <Callout id="4331" start="4983" duration="315" scalar="1/1" mediaStart="553/1" mediaDuration="315/1" >
         <Transformer>
          <VectorParam id="4332"  name="translation">
           <InterpolatingParam id="4333" interp="linr"  time="-9999999/1" value="153.60043668103856" leadInLength="0/1"  />
           <InterpolatingParam id="4334" interp="linr"  time="-9999999/1" value="171.49563318787955" leadInLength="0/1"  />
           <InterpolatingParam id="4335" interp="linr"  time="-9999999/1" value="0" leadInLength="0/1"  />
          </VectorParam>
          <VectorParam id="4336"  name="rotation">
           <InterpolatingParam id="4337" interp="linr"  time="-9999999/1" value="0" leadInLength="0/1"  />
           <InterpolatingParam id="4338" interp="linr"  time="-9999999/1" value="0" leadInLength="0/1"  />
           <InterpolatingParam id="4339" interp="linr"  time="-9999999/1" value="0" leadInLength="0/1"  />
          </VectorParam>
          <VectorParam id="4340"  name="shear">
           <InterpolatingParam id="4341" interp="linr"  time="-9999999/1" value="0" leadInLength="0/1"  />
           <InterpolatingParam id="4342" interp="linr"  time="-9999999/1" value="0" leadInLength="0/1"  />
           <InterpolatingParam id="4343" interp="linr"  time="-9999999/1" value="0" leadInLength="0/1"  />
          </VectorParam>
          <VectorParam id="4344"  name="scale">
           <InterpolatingParam id="4345" interp="linr"  time="-9999999/1" value="1.4104803493439839" leadInLength="0/1"  />
           <InterpolatingParam id="4346" interp="linr"  time="-9999999/1" value="0.47001456344007209" leadInLength="0/1"  />
           <InterpolatingParam id="4347" interp="linr"  time="-9999999/1" value="1" leadInLength="0/1"  />
          </VectorParam>
          <VectorParam id="4348"  name="anchor">
           <InterpolatingParam id="4349" interp="linr"  time="0/1" value="0" leadInLength="0/1"  />
           <InterpolatingParam id="4350" interp="linr"  time="0/1" value="0" leadInLength="0/1"  />
           <InterpolatingParam id="4351" interp="linr"  time="0/1" value="0" leadInLength="0/1"  />
          </VectorParam>
         </Transformer>
         <Parameters>
          <VectorParam id="4352"  name="sourceCrop">
           <InterpolatingParam id="4353" interp="linr"  time="0/1" value="0" leadInLength="0/1"  />
           <InterpolatingParam id="4354" interp="linr"  time="0/1" value="0" leadInLength="0/1"  />
           <InterpolatingParam id="4355" interp="linr"  time="0/1" value="0" leadInLength="0/1"  />
           <InterpolatingParam id="4356" interp="linr"  time="0/1" value="0" leadInLength="0/1"  />
          </VectorParam>
          <VectorParam id="4357"  name="geometryCrop">
           <InterpolatingParam id="4358" interp="linr"  time="-9999999/1" value="0" leadInLength="0/1"  />
           <InterpolatingParam id="4359" interp="linr"  time="-9999999/1" value="0" leadInLength="0/1"  />
           <InterpolatingParam id="4360" interp="linr"  time="-9999999/1" value="0" leadInLength="0/1"  />
           <InterpolatingParam id="4361" interp="linr"  time="-9999999/1" value="0" leadInLength="0/1"  />
          </VectorParam>
          <InterpolatingParam id="4362" interp="linr"  time="-9999999/1" value="1" leadInLength="0/1"  name="opacity"/>
         </Parameters>
         <Attributes>
          <Attribute id="4363"  name="vectorNode">
           <VectorNode id="4364" kind="TypeWinSimple"  >
            <DoubleParameters>
             <InterpolatingParam id="4365" interp="linr"  time="0/1" value="-1" leadInLength="0/1"  name="CutoutPercentage"/>
             <InterpolatingParam id="4366" interp="linr"  time="0/1" value="-1" leadInLength="0/1"  name="RoundedRectRadius"/>
             <InterpolatingParam id="4367" interp="linr"  time="0/1" value="4" leadInLength="0/1"  name="Style"/>
             <InterpolatingParam id="4368" interp="linr"  time="0/1" value="155" leadInLength="0/1"  name="borderColorBlue"/>
             <InterpolatingParam id="4369" interp="linr"  time="0/1" value="133" leadInLength="0/1"  name="borderColorGreen"/>
             <InterpolatingParam id="4370" interp="linr"  time="0/1" value="49" leadInLength="0/1"  name="borderColorRed"/>
             <InterpolatingParam id="4371" interp="linr"  time="0/1" value="0" leadInLength="0/1"  name="borderState"/>
             <InterpolatingParam id="4372" interp="linr"  time="0/1" value="3" leadInLength="0/1"  name="borderWidth"/>
             <InterpolatingParam id="4373" interp="linr"  time="0/1" value="0" leadInLength="0/1"  name="dimensionTime"/>
             <InterpolatingParam id="4374" interp="linr"  time="0/1" value="123" leadInLength="0/1"  name="fillColorBlue"/>
             <InterpolatingParam id="4375" interp="linr"  time="0/1" value="117" leadInLength="0/1"  name="fillColorGreen"/>
             <InterpolatingParam id="4376" interp="linr"  time="0/1" value="235" leadInLength="0/1"  name="fillColorRed"/>
             <InterpolatingParam id="4377" interp="linr"  time="0/1" value="1" leadInLength="0/1"  name="fillState"/>
             <InterpolatingParam id="4378" interp="linr"  time="0/1" value="0" leadInLength="0/1"  name="flipOnXAxis"/>
             <InterpolatingParam id="4379" interp="linr"  time="0/1" value="0" leadInLength="0/1"  name="flipOnYAxis"/>
             <InterpolatingParam id="4380" interp="linr"  time="0/1" value="247.61329305135951" leadInLength="0/1"  name="height"/>
             <InterpolatingParam id="4381" interp="linr"  time="0/1" value="0" leadInLength="0/1"  name="textDropShadow"/>
             <InterpolatingParam id="4382" interp="linr"  time="0/1" value="0" leadInLength="0/1"  name="textIgnoresOpacity"/>
             <InterpolatingParam id="4383" interp="linr"  time="0/1" value="0.875" leadInLength="0/1"  name="textRectHeight"/>
             <InterpolatingParam id="4384" interp="linr"  time="0/1" value="0.90936555891238668" leadInLength="0/1"  name="textRectWidth"/>
             <InterpolatingParam id="4385" interp="linr"  time="0/1" value="0.045317220543806644" leadInLength="0/1"  name="textRectX"/>
             <InterpolatingParam id="4386" interp="linr"  time="0/1" value="0.0625" leadInLength="0/1"  name="textRectY"/>
             <InterpolatingParam id="4387" interp="linr"  time="0/1" value="0" leadInLength="0/1"  name="textVerticalAlign"/>
             <InterpolatingParam id="4388" interp="linr"  time="0/1" value="341.5" leadInLength="0/1"  name="width"/>
            </DoubleParameters>
            <StringParameters>
             <Parameter id="4389"  name="VectorPath">
              <Keyframes>
              <Keyframe id="4390"  time="0/1" value="M0,0h331v240H0V0z" leadInLength="0/1"  />
              </Keyframes>
             </Parameter>
             <Parameter id="4391"  name="filename">
              <Keyframes>
              <Keyframe id="4392"  time="0/1" value="D:\Media\Studio\Callouts\rectanglewithtext.xml" leadInLength="0/1"  />
              </Keyframes>
             </Parameter>
             <Parameter id="4393"  name="name">
              <Keyframes>
              <Keyframe id="4394"  time="0/1" value="Simple Rectangle" leadInLength="0/1"  />
              </Keyframes>
             </Parameter>
             <Parameter id="4395"  name="text">
              <Keyframes>
              <Keyframe id="4396"  time="0/1" value="{\rtf1\ansi\ansicpg1252\deff0\deflang1033{\fonttbl{\f0\fswiss\fprq2\fcharset0 Arial;}}&#xD;&#xa;{\colortbl ;\red255\green255\blue255;}&#xD;&#xa;\viewkind4\uc1\pard\qc\cf1\b\f0\fs36  from the LED pin, using a relay you can control any device with an ON and OFF switch\b0\fs32\par&#xD;&#xa;}&#xD;&#xa;" leadInLength="0/1"  />
              </Keyframes>
             </Parameter>
             <Parameter id="4397"  name="xmlContent">
              <Keyframes>
              <Keyframe id="4398"  time="0/1" value="﻿&lt;?xml version=&quot;1.0&quot;?&gt;&#xa;&#xa;&lt;Overlay version=&quot;1.0.1&quot;&gt;&#xa;&#xa;&lt;Overlay_Filename&gt;rectanglewithtext.png&lt;/Overlay_Filename&gt;&#xa;&lt;Overlay_Name&gt;Simple Rectangle&lt;/Overlay_Name&gt;&#xa;&lt;Text_Top&gt;15&lt;/Text_Top&gt;&#xa;&lt;Text_Left&gt;15&lt;/Text_Left&gt;&#xa;&lt;Text_Bottom&gt;15&lt;/Text_Bottom&gt;&#xa;&lt;Text_Right&gt;15&lt;/Text_Right&gt;&#xa;&lt;Fill_Color&gt;1&lt;/Fill_Color&gt;&#xa;&lt;Border_Color&gt;1&lt;/Border_Color&gt;&#xa;&lt;Initial_Fill_Color&gt;0xff9b8531&lt;/Initial_Fill_Color&gt;&#xa;&lt;Initial_Border_Color&gt;0xff9b8531&lt;/Initial_Border_Color&gt;&#xa;&lt;VectorProps&gt;&#xa;&lt;figure&gt;&#xa;&lt;svg&gt;M0,0h331v240H0V0z&lt;/svg&gt;&#xa;&lt;/figure&gt;&#xa;&lt;seamY&gt;-1&lt;/seamY&gt;&#xa;&lt;shapeWidth&gt;331&lt;/shapeWidth&gt;&#xa;&lt;shapeHeight&gt;240&lt;/shapeHeight&gt;&#xa;&lt;/VectorProps&gt;&#xa;&lt;Style&gt;4&lt;/Style&gt;&#xa;&lt;UseDefaultSpec&gt;1&lt;/UseDefaultSpec&gt;   &#xa;&lt;/Overlay&gt;" leadInLength="0/1"  />
              </Keyframes>
             </Parameter>
            </StringParameters>
           </VectorNode>
          </Attribute>
         </Attributes>
         <MetaData>
          <entry key="WinSubProjectDisplayName" val=""/>
         </MetaData>
         <RightEdgeMods length="0/1" groupName="OpacityFade">
          <EdgeMod parameter="4362">
           <FadeOutFunc id="4211"  />
          </EdgeMod>
         </RightEdgeMods>
         <ExtraData>
          <Entry key="ZoomPanBin">
           <ZoomPanBin id="4399"  >
            <ZoomPanKeyframes>
             <ZoomPanKeyframe id="4400" timeRangeEnd="-9999999/1" timeRangeDuration="0/1" interpolaterName="linr"  />
            </ZoomPanKeyframes>
           </ZoomPanBin>
          </Entry>
         </ExtraData>
        </Callout>
        <Callout id="4401" start="7409" duration="150" scalar="1/1" mediaStart="0/1" mediaDuration="150/1" >
         <Transformer>
          <VectorParam id="4402"  name="translation">
           <InterpolatingParam id="4403" interp="linr"  time="-9999999/1" value="466.76637554577098" leadInLength="0/1"  />
           <InterpolatingParam id="4404" interp="linr"  time="-9999999/1" value="-35.790393013023987" leadInLength="0/1"  />
           <InterpolatingParam id="4405" interp="linr"  time="-9999999/1" value="0" leadInLength="0/1"  />
          </VectorParam>
          <VectorParam id="4406"  name="rotation">
           <InterpolatingParam id="4407" interp="linr"  time="-9999999/1" value="0" leadInLength="0/1"  />
           <InterpolatingParam id="4408" interp="linr"  time="-9999999/1" value="0" leadInLength="0/1"  />
           <InterpolatingParam id="4409" interp="linr"  time="-9999999/1" value="0" leadInLength="0/1"  />
          </VectorParam>
          <VectorParam id="4410"  name="shear">
           <InterpolatingParam id="4411" interp="linr"  time="-9999999/1" value="0" leadInLength="0/1"  />
           <InterpolatingParam id="4412" interp="linr"  time="-9999999/1" value="0" leadInLength="0/1"  />
           <InterpolatingParam id="4413" interp="linr"  time="-9999999/1" value="0" leadInLength="0/1"  />
          </VectorParam>
          <VectorParam id="4414"  name="scale">
           <InterpolatingParam id="4415" interp="linr"  time="-9999999/1" value="1" leadInLength="0/1"  />
           <InterpolatingParam id="4416" interp="linr"  time="-9999999/1" value="0.38569869853326338" leadInLength="0/1"  />
           <InterpolatingParam id="4417" interp="linr"  time="-9999999/1" value="1" leadInLength="0/1"  />
          </VectorParam>
          <VectorParam id="4418"  name="anchor">
           <InterpolatingParam id="4419" interp="linr"  time="0/1" value="0" leadInLength="0/1"  />
           <InterpolatingParam id="4420" interp="linr"  time="0/1" value="0" leadInLength="0/1"  />
           <InterpolatingParam id="4421" interp="linr"  time="0/1" value="0" leadInLength="0/1"  />
          </VectorParam>
         </Transformer>
         <Parameters>
          <VectorParam id="4422"  name="sourceCrop">
           <InterpolatingParam id="4423" interp="linr"  time="0/1" value="0" leadInLength="0/1"  />
           <InterpolatingParam id="4424" interp="linr"  time="0/1" value="0" leadInLength="0/1"  />
           <InterpolatingParam id="4425" interp="linr"  time="0/1" value="0" leadInLength="0/1"  />
           <InterpolatingParam id="4426" interp="linr"  time="0/1" value="0" leadInLength="0/1"  />
          </VectorParam>
          <VectorParam id="4427"  name="geometryCrop">
           <InterpolatingParam id="4428" interp="linr"  time="-9999999/1" value="0" leadInLength="0/1"  />
           <InterpolatingParam id="4429" interp="linr"  time="-9999999/1" value="0" leadInLength="0/1"  />
           <InterpolatingParam id="4430" interp="linr"  time="-9999999/1" value="0" leadInLength="0/1"  />
           <InterpolatingParam id="4431" interp="linr"  time="-9999999/1" value="0" leadInLength="0/1"  />
          </VectorParam>
          <InterpolatingParam id="4432" interp="linr"  time="-9999999/1" value="1" leadInLength="0/1"  name="opacity"/>
         </Parameters>
         <Attributes>
          <Attribute id="4433"  name="vectorNode">
           <VectorNode id="4434" kind="TypeWinSimple"  >
            <DoubleParameters>
             <InterpolatingParam id="4435" interp="linr"  time="0/1" value="-1" leadInLength="0/1"  name="CutoutPercentage"/>
             <InterpolatingParam id="4436" interp="linr"  time="0/1" value="-1" leadInLength="0/1"  name="RoundedRectRadius"/>
             <InterpolatingParam id="4437" interp="linr"  time="0/1" value="4" leadInLength="0/1"  name="Style"/>
             <InterpolatingParam id="4438" interp="linr"  time="0/1" value="155" leadInLength="0/1"  name="borderColorBlue"/>
             <InterpolatingParam id="4439" interp="linr"  time="0/1" value="133" leadInLength="0/1"  name="borderColorGreen"/>
             <InterpolatingParam id="4440" interp="linr"  time="0/1" value="49" leadInLength="0/1"  name="borderColorRed"/>
             <InterpolatingParam id="4441" interp="linr"  time="0/1" value="0" leadInLength="0/1"  name="borderState"/>
             <InterpolatingParam id="4442" interp="linr"  time="0/1" value="3" leadInLength="0/1"  name="borderWidth"/>
             <InterpolatingParam id="4443" interp="linr"  time="0/1" value="0" leadInLength="0/1"  name="dimensionTime"/>
             <InterpolatingParam id="4444" interp="linr"  time="0/1" value="20" leadInLength="0/1"  name="fillColorBlue"/>
             <InterpolatingParam id="4445" interp="linr"  time="0/1" value="20" leadInLength="0/1"  name="fillColorGreen"/>
             <InterpolatingParam id="4446" interp="linr"  time="0/1" value="20" leadInLength="0/1"  name="fillColorRed"/>
             <InterpolatingParam id="4447" interp="linr"  time="0/1" value="1" leadInLength="0/1"  name="fillState"/>
             <InterpolatingParam id="4448" interp="linr"  time="0/1" value="0" leadInLength="0/1"  name="flipOnXAxis"/>
             <InterpolatingParam id="4449" interp="linr"  time="0/1" value="0" leadInLength="0/1"  name="flipOnYAxis"/>
             <InterpolatingParam id="4450" interp="linr"  time="0/1" value="247.61329305135951" leadInLength="0/1"  name="height"/>
             <InterpolatingParam id="4451" interp="linr"  time="0/1" value="0" leadInLength="0/1"  name="textDropShadow"/>
             <InterpolatingParam id="4452" interp="linr"  time="0/1" value="0" leadInLength="0/1"  name="textIgnoresOpacity"/>
             <InterpolatingParam id="4453" interp="linr"  time="0/1" value="0.875" leadInLength="0/1"  name="textRectHeight"/>
             <InterpolatingParam id="4454" interp="linr"  time="0/1" value="0.90936555891238668" leadInLength="0/1"  name="textRectWidth"/>
             <InterpolatingParam id="4455" interp="linr"  time="0/1" value="0.045317220543806644" leadInLength="0/1"  name="textRectX"/>
             <InterpolatingParam id="4456" interp="linr"  time="0/1" value="0.0625" leadInLength="0/1"  name="textRectY"/>
             <InterpolatingParam id="4457" interp="linr"  time="0/1" value="0" leadInLength="0/1"  name="textVerticalAlign"/>
             <InterpolatingParam id="4458" interp="linr"  time="0/1" value="341.5" leadInLength="0/1"  name="width"/>
            </DoubleParameters>
            <StringParameters>
             <Parameter id="4459"  name="VectorPath">
              <Keyframes>
              <Keyframe id="4460"  time="0/1" value="M0,0h331v240H0V0z" leadInLength="0/1"  />
              </Keyframes>
             </Parameter>
             <Parameter id="4461"  name="filename">
              <Keyframes>
              <Keyframe id="4462"  time="0/1" value="D:\Media\Studio\Callouts\rectanglewithtext.xml" leadInLength="0/1"  />
              </Keyframes>
             </Parameter>
             <Parameter id="4463"  name="name">
              <Keyframes>
              <Keyframe id="4464"  time="0/1" value="Simple Rectangle" leadInLength="0/1"  />
              </Keyframes>
             </Parameter>
             <Parameter id="4465"  name="text">
              <Keyframes>
              <Keyframe id="4466"  time="0/1" value="{\rtf1\ansi\ansicpg1252\deff0\deflang1033{\fonttbl{\f0\fswiss\fprq2\fcharset0 Arial;}}&#xD;&#xa;{\colortbl ;\red255\green255\blue255;}&#xD;&#xa;\viewkind4\uc1\pard\qc\cf1\b\f0\fs36 Light is less LED in ON!!\b0\fs32\par&#xD;&#xa;}&#xD;&#xa;" leadInLength="0/1"  />
              </Keyframes>
             </Parameter>
             <Parameter id="4467"  name="xmlContent">
              <Keyframes>
              <Keyframe id="4468"  time="0/1" value="﻿&lt;?xml version=&quot;1.0&quot;?&gt;&#xa;&#xa;&lt;Overlay version=&quot;1.0.1&quot;&gt;&#xa;&#xa;&lt;Overlay_Filename&gt;rectanglewithtext.png&lt;/Overlay_Filename&gt;&#xa;&lt;Overlay_Name&gt;Simple Rectangle&lt;/Overlay_Name&gt;&#xa;&lt;Text_Top&gt;15&lt;/Text_Top&gt;&#xa;&lt;Text_Left&gt;15&lt;/Text_Left&gt;&#xa;&lt;Text_Bottom&gt;15&lt;/Text_Bottom&gt;&#xa;&lt;Text_Right&gt;15&lt;/Text_Right&gt;&#xa;&lt;Fill_Color&gt;1&lt;/Fill_Color&gt;&#xa;&lt;Border_Color&gt;1&lt;/Border_Color&gt;&#xa;&lt;Initial_Fill_Color&gt;0xff9b8531&lt;/Initial_Fill_Color&gt;&#xa;&lt;Initial_Border_Color&gt;0xff9b8531&lt;/Initial_Border_Color&gt;&#xa;&lt;VectorProps&gt;&#xa;&lt;figure&gt;&#xa;&lt;svg&gt;M0,0h331v240H0V0z&lt;/svg&gt;&#xa;&lt;/figure&gt;&#xa;&lt;seamY&gt;-1&lt;/seamY&gt;&#xa;&lt;shapeWidth&gt;331&lt;/shapeWidth&gt;&#xa;&lt;shapeHeight&gt;240&lt;/shapeHeight&gt;&#xa;&lt;/VectorProps&gt;&#xa;&lt;Style&gt;4&lt;/Style&gt;&#xa;&lt;UseDefaultSpec&gt;1&lt;/UseDefaultSpec&gt;   &#xa;&lt;/Overlay&gt;" leadInLength="0/1"  />
              </Keyframes>
             </Parameter>
            </StringParameters>
           </VectorNode>
          </Attribute>
         </Attributes>
         <MetaData>
          <entry key="WinSubProjectDisplayName" val=""/>
         </MetaData>
         <LeftEdgeMods length="0/1" groupName="OpacityFade">
          <EdgeMod parameter="4432">
           <FadeInFunc id="4257"  />
          </EdgeMod>
         </LeftEdgeMods>
         <RightEdgeMods length="0/1" groupName="OpacityFade">
          <EdgeMod parameter="4432">
           <FadeOutFunc id="4328"  />
          </EdgeMod>
         </RightEdgeMods>
         <ExtraData>
          <Entry key="ZoomPanBin">
           <ZoomPanBin id="4469"  >
            <ZoomPanKeyframes>
             <ZoomPanKeyframe id="4470" timeRangeEnd="-9999999/1" timeRangeDuration="0/1" interpolaterName="linr"  />
            </ZoomPanKeyframes>
           </ZoomPanBin>
          </Entry>
         </ExtraData>
        </Callout>
        <Callout id="4471" start="10729" duration="210" scalar="1/1" mediaStart="0/1" mediaDuration="210/1" >
         <Transformer>
          <VectorParam id="4472"  name="translation">
           <InterpolatingParam id="4473" interp="linr"  time="-9999999/1" value="-247.17740174688581" leadInLength="0/1"  />
           <InterpolatingParam id="4474" interp="linr"  time="-9999999/1" value="-81.31441048027547" leadInLength="0/1"  />
           <InterpolatingParam id="4475" interp="linr"  time="-9999999/1" value="0" leadInLength="0/1"  />
          </VectorParam>
          <VectorParam id="4476"  name="rotation">
           <InterpolatingParam id="4477" interp="linr"  time="-9999999/1" value="0" leadInLength="0/1"  />
           <InterpolatingParam id="4478" interp="linr"  time="-9999999/1" value="0" leadInLength="0/1"  />
           <InterpolatingParam id="4479" interp="linr"  time="-9999999/1" value="0" leadInLength="0/1"  />
          </VectorParam>
          <VectorParam id="4480"  name="shear">
           <InterpolatingParam id="4481" interp="linr"  time="-9999999/1" value="0" leadInLength="0/1"  />
           <InterpolatingParam id="4482" interp="linr"  time="-9999999/1" value="0" leadInLength="0/1"  />
           <InterpolatingParam id="4483" interp="linr"  time="-9999999/1" value="0" leadInLength="0/1"  />
          </VectorParam>
          <VectorParam id="4484"  name="scale">
           <InterpolatingParam id="4485" interp="linr"  time="-9999999/1" value="2.5524017467240601" leadInLength="0/1"  />
           <InterpolatingParam id="4486" interp="linr"  time="-9999999/1" value="3.0302280446395153" leadInLength="0/1"  />
           <InterpolatingParam id="4487" interp="linr"  time="-9999999/1" value="1" leadInLength="0/1"  />
          </VectorParam>
          <VectorParam id="4488"  name="anchor">
           <InterpolatingParam id="4489" interp="linr"  time="0/1" value="0" leadInLength="0/1"  />
           <InterpolatingParam id="4490" interp="linr"  time="0/1" value="0" leadInLength="0/1"  />
           <InterpolatingParam id="4491" interp="linr"  time="0/1" value="0" leadInLength="0/1"  />
          </VectorParam>
         </Transformer>
         <Parameters>
          <VectorParam id="4492"  name="sourceCrop">
           <InterpolatingParam id="4493" interp="linr"  time="0/1" value="0" leadInLength="0/1"  />
           <InterpolatingParam id="4494" interp="linr"  time="0/1" value="0" leadInLength="0/1"  />
           <InterpolatingParam id="4495" interp="linr"  time="0/1" value="0" leadInLength="0/1"  />
           <InterpolatingParam id="4496" interp="linr"  time="0/1" value="0" leadInLength="0/1"  />
          </VectorParam>
          <VectorParam id="4497"  name="geometryCrop">
           <InterpolatingParam id="4498" interp="linr"  time="-9999999/1" value="0" leadInLength="0/1"  />
           <InterpolatingParam id="4499" interp="linr"  time="-9999999/1" value="0" leadInLength="0/1"  />
           <InterpolatingParam id="4500" interp="linr"  time="-9999999/1" value="0" leadInLength="0/1"  />
           <InterpolatingParam id="4501" interp="linr"  time="-9999999/1" value="0" leadInLength="0/1"  />
          </VectorParam>
          <InterpolatingParam id="4502" interp="linr"  time="-9999999/1" value="1" leadInLength="0/1"  name="opacity"/>
         </Parameters>
         <Attributes>
          <Attribute id="4503"  name="vectorNode">
           <VectorNode id="4504" kind="TypeWinBlur"  >
            <DoubleParameters>
             <InterpolatingParam id="4505" interp="linr"  time="0/1" value="1" leadInLength="0/1"  name="Intensity"/>
             <InterpolatingParam id="4506" interp="linr"  time="0/1" value="180" leadInLength="0/1"  name="height"/>
             <InterpolatingParam id="4507" interp="linr"  time="0/1" value="341.5" leadInLength="0/1"  name="width"/>
            </DoubleParameters>
            <StringParameters>
             <Parameter id="4508"  name="filename">
              <Keyframes>
              <Keyframe id="4509"  time="0/1" value="D:\Media\Studio\Callouts\blur_100x100.xml" leadInLength="0/1"  />
              </Keyframes>
             </Parameter>
             <Parameter id="4510"  name="name">
              <Keyframes>
              <Keyframe id="4511"  time="0/1" value="Blur" leadInLength="0/1"  />
              </Keyframes>
             </Parameter>
             <Parameter id="4512"  name="xmlContent">
              <Keyframes>
              <Keyframe id="4513"  time="0/1" value="﻿&lt;?xml version=&quot;1.0&quot;?&gt;&#xa;&#xa;&lt;Overlay version=&quot;1.0.1&quot;&gt;&#xa;&#xa;&lt;Overlay_Filename&gt;blur_100x100.png&lt;/Overlay_Filename&gt;&#xa;&lt;Overlay_Name&gt;Blur&lt;/Overlay_Name&gt;&#xa;&lt;Text_Top&gt;0&lt;/Text_Top&gt;&#xa;&lt;Text_Left&gt;0&lt;/Text_Left&gt;&#xa;&lt;Text_Bottom&gt;0&lt;/Text_Bottom&gt;&#xa;&lt;Text_Right&gt;0&lt;/Text_Right&gt;&#xa;&lt;Fill_Color&gt;0&lt;/Fill_Color&gt;&#xa;&lt;Border_Color&gt;0&lt;/Border_Color&gt;&#xa;&lt;/Overlay&gt;" leadInLength="0/1"  />
              </Keyframes>
             </Parameter>
            </StringParameters>
           </VectorNode>
          </Attribute>
         </Attributes>
         <MetaData>
          <entry key="WinSubProjectDisplayName" val=""/>
         </MetaData>
         <LeftEdgeMods length="30/1" groupName="OpacityFade">
          <EdgeMod parameter="4505">
           <FadeInFunc id="4257"  />
          </EdgeMod>
         </LeftEdgeMods>
         <RightEdgeMods length="30/1" groupName="OpacityFade">
          <EdgeMod parameter="4505">
           <FadeOutFunc id="4328"  />
          </EdgeMod>
         </RightEdgeMods>
         <ExtraData>
          <Entry key="ZoomPanBin">
           <ZoomPanBin id="4514"  >
            <ZoomPanKeyframes>
             <ZoomPanKeyframe id="4515" timeRangeEnd="-9999999/1" timeRangeDuration="0/1" interpolaterName="linr"  />
            </ZoomPanKeyframes>
           </ZoomPanBin>
          </Entry>
         </ExtraData>
        </Callout>
        <Callout id="4516" start="11057" duration="136" scalar="1/1" mediaStart="0/1" mediaDuration="136/1" >
         <Transformer>
          <VectorParam id="4517"  name="translation">
           <InterpolatingParam id="4518" interp="linr"  time="-9999999/1" value="-251.27838427957153" leadInLength="0/1"  />
           <InterpolatingParam id="4519" interp="linr"  time="-9999999/1" value="-67.106986899764607" leadInLength="0/1"  />
           <InterpolatingParam id="4520" interp="linr"  time="-9999999/1" value="0" leadInLength="0/1"  />
          </VectorParam>
          <VectorParam id="4521"  name="rotation">
           <InterpolatingParam id="4522" interp="linr"  time="-9999999/1" value="0" leadInLength="0/1"  />
           <InterpolatingParam id="4523" interp="linr"  time="-9999999/1" value="0" leadInLength="0/1"  />
           <InterpolatingParam id="4524" interp="linr"  time="-9999999/1" value="0" leadInLength="0/1"  />
          </VectorParam>
          <VectorParam id="4525"  name="shear">
           <InterpolatingParam id="4526" interp="linr"  time="-9999999/1" value="0" leadInLength="0/1"  />
           <InterpolatingParam id="4527" interp="linr"  time="-9999999/1" value="0" leadInLength="0/1"  />
           <InterpolatingParam id="4528" interp="linr"  time="-9999999/1" value="0" leadInLength="0/1"  />
          </VectorParam>
          <VectorParam id="4529"  name="scale">
           <InterpolatingParam id="4530" interp="linr"  time="-9999999/1" value="2.4716157205245772" leadInLength="0/1"  />
           <InterpolatingParam id="4531" interp="linr"  time="-9999999/1" value="2.8723677826299663" leadInLength="0/1"  />
           <InterpolatingParam id="4532" interp="linr"  time="-9999999/1" value="1" leadInLength="0/1"  />
          </VectorParam>
          <VectorParam id="4533"  name="anchor">
           <InterpolatingParam id="4534" interp="linr"  time="0/1" value="0" leadInLength="0/1"  />
           <InterpolatingParam id="4535" interp="linr"  time="0/1" value="0" leadInLength="0/1"  />
           <InterpolatingParam id="4536" interp="linr"  time="0/1" value="0" leadInLength="0/1"  />
          </VectorParam>
         </Transformer>
         <Parameters>
          <VectorParam id="4537"  name="sourceCrop">
           <InterpolatingParam id="4538" interp="linr"  time="0/1" value="0" leadInLength="0/1"  />
           <InterpolatingParam id="4539" interp="linr"  time="0/1" value="0" leadInLength="0/1"  />
           <InterpolatingParam id="4540" interp="linr"  time="0/1" value="0" leadInLength="0/1"  />
           <InterpolatingParam id="4541" interp="linr"  time="0/1" value="0" leadInLength="0/1"  />
          </VectorParam>
          <VectorParam id="4542"  name="geometryCrop">
           <InterpolatingParam id="4543" interp="linr"  time="-9999999/1" value="0" leadInLength="0/1"  />
           <InterpolatingParam id="4544" interp="linr"  time="-9999999/1" value="0" leadInLength="0/1"  />
           <InterpolatingParam id="4545" interp="linr"  time="-9999999/1" value="0" leadInLength="0/1"  />
           <InterpolatingParam id="4546" interp="linr"  time="-9999999/1" value="0" leadInLength="0/1"  />
          </VectorParam>
          <InterpolatingParam id="4547" interp="linr"  time="-9999999/1" value="1" leadInLength="0/1"  name="opacity"/>
         </Parameters>
         <Attributes>
          <Attribute id="4548"  name="vectorNode">
           <VectorNode id="4549" kind="TypeWinBlur"  >
            <DoubleParameters>
             <InterpolatingParam id="4550" interp="linr"  time="0/1" value="1" leadInLength="0/1"  name="Intensity"/>
             <InterpolatingParam id="4551" interp="linr"  time="0/1" value="180" leadInLength="0/1"  name="height"/>
             <InterpolatingParam id="4552" interp="linr"  time="0/1" value="341.5" leadInLength="0/1"  name="width"/>
            </DoubleParameters>
            <StringParameters>
             <Parameter id="4553"  name="filename">
              <Keyframes>
              <Keyframe id="4554"  time="0/1" value="D:\Media\Studio\Callouts\blur_100x100.xml" leadInLength="0/1"  />
              </Keyframes>
             </Parameter>
             <Parameter id="4555"  name="name">
              <Keyframes>
              <Keyframe id="4556"  time="0/1" value="Blur" leadInLength="0/1"  />
              </Keyframes>
             </Parameter>
             <Parameter id="4557"  name="xmlContent">
              <Keyframes>
              <Keyframe id="4558"  time="0/1" value="﻿&lt;?xml version=&quot;1.0&quot;?&gt;&#xa;&#xa;&lt;Overlay version=&quot;1.0.1&quot;&gt;&#xa;&#xa;&lt;Overlay_Filename&gt;blur_100x100.png&lt;/Overlay_Filename&gt;&#xa;&lt;Overlay_Name&gt;Blur&lt;/Overlay_Name&gt;&#xa;&lt;Text_Top&gt;0&lt;/Text_Top&gt;&#xa;&lt;Text_Left&gt;0&lt;/Text_Left&gt;&#xa;&lt;Text_Bottom&gt;0&lt;/Text_Bottom&gt;&#xa;&lt;Text_Right&gt;0&lt;/Text_Right&gt;&#xa;&lt;Fill_Color&gt;0&lt;/Fill_Color&gt;&#xa;&lt;Border_Color&gt;0&lt;/Border_Color&gt;&#xa;&lt;/Overlay&gt;" leadInLength="0/1"  />
              </Keyframes>
             </Parameter>
            </StringParameters>
           </VectorNode>
          </Attribute>
         </Attributes>
         <MetaData>
          <entry key="WinSubProjectDisplayName" val=""/>
         </MetaData>
         <LeftEdgeMods length="30/1" groupName="OpacityFade">
          <EdgeMod parameter="4550">
           <FadeInFunc id="4257"  />
          </EdgeMod>
         </LeftEdgeMods>
         <RightEdgeMods length="30/1" groupName="OpacityFade">
          <EdgeMod parameter="4550">
           <FadeOutFunc id="4328"  />
          </EdgeMod>
         </RightEdgeMods>
         <ExtraData>
          <Entry key="ZoomPanBin">
           <ZoomPanBin id="4559"  >
            <ZoomPanKeyframes>
             <ZoomPanKeyframe id="4560" timeRangeEnd="-9999999/1" timeRangeDuration="0/1" interpolaterName="linr"  />
            </ZoomPanKeyframes>
           </ZoomPanBin>
          </Entry>
         </ExtraData>
        </Callout>
        <Callout id="4561" start="11826" duration="165" scalar="1/1" mediaStart="0/1" mediaDuration="165/1" >
         <Transformer>
          <VectorParam id="4562"  name="translation">
           <InterpolatingParam id="4563" interp="linr"  time="-9999999/1" value="-242.33078602621248" leadInLength="0/1"  />
           <InterpolatingParam id="4564" interp="linr"  time="-9999999/1" value="-62.633187772944922" leadInLength="0/1"  />
           <InterpolatingParam id="4565" interp="linr"  time="-9999999/1" value="0" leadInLength="0/1"  />
          </VectorParam>
          <VectorParam id="4566"  name="rotation">
           <InterpolatingParam id="4567" interp="linr"  time="-9999999/1" value="0" leadInLength="0/1"  />
           <InterpolatingParam id="4568" interp="linr"  time="-9999999/1" value="0" leadInLength="0/1"  />
           <InterpolatingParam id="4569" interp="linr"  time="-9999999/1" value="0" leadInLength="0/1"  />
          </VectorParam>
          <VectorParam id="4570"  name="shear">
           <InterpolatingParam id="4571" interp="linr"  time="-9999999/1" value="0" leadInLength="0/1"  />
           <InterpolatingParam id="4572" interp="linr"  time="-9999999/1" value="0" leadInLength="0/1"  />
           <InterpolatingParam id="4573" interp="linr"  time="-9999999/1" value="0" leadInLength="0/1"  />
          </VectorParam>
          <VectorParam id="4574"  name="scale">
           <InterpolatingParam id="4575" interp="linr"  time="-9999999/1" value="2.5502183406119432" leadInLength="0/1"  />
           <InterpolatingParam id="4576" interp="linr"  time="-9999999/1" value="3.0380640465796347" leadInLength="0/1"  />
           <InterpolatingParam id="4577" interp="linr"  time="-9999999/1" value="1" leadInLength="0/1"  />
          </VectorParam>
          <VectorParam id="4578"  name="anchor">
           <InterpolatingParam id="4579" interp="linr"  time="0/1" value="0" leadInLength="0/1"  />
           <InterpolatingParam id="4580" interp="linr"  time="0/1" value="0" leadInLength="0/1"  />
           <InterpolatingParam id="4581" interp="linr"  time="0/1" value="0" leadInLength="0/1"  />
          </VectorParam>
         </Transformer>
         <Parameters>
          <VectorParam id="4582"  name="sourceCrop">
           <InterpolatingParam id="4583" interp="linr"  time="0/1" value="0" leadInLength="0/1"  />
           <InterpolatingParam id="4584" interp="linr"  time="0/1" value="0" leadInLength="0/1"  />
           <InterpolatingParam id="4585" interp="linr"  time="0/1" value="0" leadInLength="0/1"  />
           <InterpolatingParam id="4586" interp="linr"  time="0/1" value="0" leadInLength="0/1"  />
          </VectorParam>
          <VectorParam id="4587"  name="geometryCrop">
           <InterpolatingParam id="4588" interp="linr"  time="-9999999/1" value="0" leadInLength="0/1"  />
           <InterpolatingParam id="4589" interp="linr"  time="-9999999/1" value="0" leadInLength="0/1"  />
           <InterpolatingParam id="4590" interp="linr"  time="-9999999/1" value="0" leadInLength="0/1"  />
           <InterpolatingParam id="4591" interp="linr"  time="-9999999/1" value="0" leadInLength="0/1"  />
          </VectorParam>
          <InterpolatingParam id="4592" interp="linr"  time="-9999999/1" value="1" leadInLength="0/1"  name="opacity"/>
         </Parameters>
         <Attributes>
          <Attribute id="4593"  name="vectorNode">
           <VectorNode id="4594" kind="TypeWinBlur"  >
            <DoubleParameters>
             <InterpolatingParam id="4595" interp="linr"  time="0/1" value="1" leadInLength="0/1"  name="Intensity"/>
             <InterpolatingParam id="4596" interp="linr"  time="0/1" value="180" leadInLength="0/1"  name="height"/>
             <InterpolatingParam id="4597" interp="linr"  time="0/1" value="341.5" leadInLength="0/1"  name="width"/>
            </DoubleParameters>
            <StringParameters>
             <Parameter id="4598"  name="filename">
              <Keyframes>
              <Keyframe id="4599"  time="0/1" value="D:\Media\Studio\Callouts\blur_100x100.xml" leadInLength="0/1"  />
              </Keyframes>
             </Parameter>
             <Parameter id="4600"  name="name">
              <Keyframes>
              <Keyframe id="4601"  time="0/1" value="Blur" leadInLength="0/1"  />
              </Keyframes>
             </Parameter>
             <Parameter id="4602"  name="xmlContent">
              <Keyframes>
              <Keyframe id="4603"  time="0/1" value="﻿&lt;?xml version=&quot;1.0&quot;?&gt;&#xa;&#xa;&lt;Overlay version=&quot;1.0.1&quot;&gt;&#xa;&#xa;&lt;Overlay_Filename&gt;blur_100x100.png&lt;/Overlay_Filename&gt;&#xa;&lt;Overlay_Name&gt;Blur&lt;/Overlay_Name&gt;&#xa;&lt;Text_Top&gt;0&lt;/Text_Top&gt;&#xa;&lt;Text_Left&gt;0&lt;/Text_Left&gt;&#xa;&lt;Text_Bottom&gt;0&lt;/Text_Bottom&gt;&#xa;&lt;Text_Right&gt;0&lt;/Text_Right&gt;&#xa;&lt;Fill_Color&gt;0&lt;/Fill_Color&gt;&#xa;&lt;Border_Color&gt;0&lt;/Border_Color&gt;&#xa;&lt;/Overlay&gt;" leadInLength="0/1"  />
              </Keyframes>
             </Parameter>
            </StringParameters>
           </VectorNode>
          </Attribute>
         </Attributes>
         <MetaData>
          <entry key="WinSubProjectDisplayName" val=""/>
         </MetaData>
         <LeftEdgeMods length="30/1" groupName="OpacityFade">
          <EdgeMod parameter="4595">
           <FadeInFunc id="4257"  />
          </EdgeMod>
         </LeftEdgeMods>
         <RightEdgeMods length="30/1" groupName="OpacityFade">
          <EdgeMod parameter="4595">
           <FadeOutFunc id="4328"  />
          </EdgeMod>
         </RightEdgeMods>
         <ExtraData>
          <Entry key="ZoomPanBin">
           <ZoomPanBin id="4604"  >
            <ZoomPanKeyframes>
             <ZoomPanKeyframe id="4605" timeRangeEnd="-9999999/1" timeRangeDuration="0/1" interpolaterName="linr"  />
            </ZoomPanKeyframes>
           </ZoomPanBin>
          </Entry>
         </ExtraData>
        </Callout>
       </Medias>
      </GenericTrack>
      <GenericTrack id="4606"  >
       <Attributes>
        <Attribute id="4607" value="" name="ident"/>
        <Attribute id="4608" value="0" name="audioMuted"/>
        <Attribute id="4609" value="0" name="videoHidden"/>
       </Attributes>
       <MetaData>
        <entry key="IsLocked" val="False"/>
        <entry key="WinTrackHeight" val="62"/>
       </MetaData>
       <Medias>
        <Callout id="4610" start="7496" duration="210" scalar="1/1" mediaStart="0/1" mediaDuration="210/1" >
         <Transformer>
          <VectorParam id="4611"  name="translation">
           <InterpolatingParam id="4612" interp="linr"  time="-9999999/1" value="526.38658201744556" leadInLength="0/1"  />
           <InterpolatingParam id="4613" interp="linr"  time="-9999999/1" value="-126.78918100516707" leadInLength="0/1"  />
           <InterpolatingParam id="4614" interp="linr"  time="-9999999/1" value="-3.4106051316471481e-010" leadInLength="0/1"  />
          </VectorParam>
          <VectorParam id="4615"  name="rotation">
           <InterpolatingParam id="4616" interp="linr"  time="-9999999/1" value="0" leadInLength="0/1"  />
           <InterpolatingParam id="4617" interp="linr"  time="-9999999/1" value="0" leadInLength="0/1"  />
           <InterpolatingParam id="4618" interp="linr"  time="-9999999/1" value="-0.7520771675155471" leadInLength="0/1"  />
          </VectorParam>
          <VectorParam id="4619"  name="shear">
           <InterpolatingParam id="4620" interp="linr"  time="-9999999/1" value="2.0193259445876183e-016" leadInLength="0/1"  />
           <InterpolatingParam id="4621" interp="linr"  time="-9999999/1" value="0" leadInLength="0/1"  />
           <InterpolatingParam id="4622" interp="linr"  time="-9999999/1" value="0" leadInLength="0/1"  />
          </VectorParam>
          <VectorParam id="4623"  name="scale">
           <InterpolatingParam id="4624" interp="linr"  time="-9999999/1" value="0.37074210090470455" leadInLength="0/1"  />
           <InterpolatingParam id="4625" interp="linr"  time="-9999999/1" value="1" leadInLength="0/1"  />
           <InterpolatingParam id="4626" interp="linr"  time="-9999999/1" value="0.99999999999999989" leadInLength="0/1"  />
          </VectorParam>
          <VectorParam id="4627"  name="anchor">
           <InterpolatingParam id="4628" interp="linr"  time="0/1" value="0" leadInLength="0/1"  />
           <InterpolatingParam id="4629" interp="linr"  time="0/1" value="0" leadInLength="0/1"  />
           <InterpolatingParam id="4630" interp="linr"  time="0/1" value="0" leadInLength="0/1"  />
          </VectorParam>
         </Transformer>
         <Parameters>
          <VectorParam id="4631"  name="sourceCrop">
           <InterpolatingParam id="4632" interp="linr"  time="0/1" value="0" leadInLength="0/1"  />
           <InterpolatingParam id="4633" interp="linr"  time="0/1" value="0" leadInLength="0/1"  />
           <InterpolatingParam id="4634" interp="linr"  time="0/1" value="0" leadInLength="0/1"  />
           <InterpolatingParam id="4635" interp="linr"  time="0/1" value="0" leadInLength="0/1"  />
          </VectorParam>
          <VectorParam id="4636"  name="geometryCrop">
           <InterpolatingParam id="4637" interp="linr"  time="-9999999/1" value="0" leadInLength="0/1"  />
           <InterpolatingParam id="4638" interp="linr"  time="-9999999/1" value="0" leadInLength="0/1"  />
           <InterpolatingParam id="4639" interp="linr"  time="-9999999/1" value="0" leadInLength="0/1"  />
           <InterpolatingParam id="4640" interp="linr"  time="-9999999/1" value="0" leadInLength="0/1"  />
          </VectorParam>
          <InterpolatingParam id="4641" interp="linr"  time="-9999999/1" value="1" leadInLength="0/1"  name="opacity"/>
         </Parameters>
         <Effects>
          <GenericEffect id="4642" name = "DropShadow" >
           <Parameters>
           <InterpolatingParam id="4643" interp="linr"  time="0/1" value="315" leadInLength="0/1"   name="angle"/>
           <InterpolatingParam id="4644" interp="linr"  time="0/1" value="2" leadInLength="0/1"   name="blur"/>
           <Parameter id="4645"   name="enabled">
            <Keyframes>
            <Keyframe id="4646"  time="0/1" value="1" leadInLength="0/1"  />
            </Keyframes>
           </Parameter>
           <InterpolatingParam id="4647" interp="linr"  time="0/1" value="4" leadInLength="0/1"   name="offset"/>
           <InterpolatingParam id="4648" interp="linr"  time="0/1" value="0.75" leadInLength="0/1"   name="opacity"/>
           </Parameters>
          </GenericEffect>
         </Effects>
         <Attributes>
          <Attribute id="4649"  name="vectorNode">
           <VectorNode id="4650" kind="TypeWinLine"  >
            <DoubleParameters>
             <InterpolatingParam id="4651" interp="linr"  time="0/1" value="255" leadInLength="0/1"  name="borderColorBlue"/>
             <InterpolatingParam id="4652" interp="linr"  time="0/1" value="255" leadInLength="0/1"  name="borderColorGreen"/>
             <InterpolatingParam id="4653" interp="linr"  time="0/1" value="255" leadInLength="0/1"  name="borderColorRed"/>
             <InterpolatingParam id="4654" interp="linr"  time="0/1" value="5" leadInLength="0/1"  name="borderWidth"/>
             <InterpolatingParam id="4655" interp="linr"  time="0/1" value="1" leadInLength="0/1"  name="endCapStyle"/>
             <InterpolatingParam id="4656" interp="linr"  time="0/1" value="20" leadInLength="0/1"  name="height"/>
             <InterpolatingParam id="4657" interp="linr"  time="0/1" value="2" leadInLength="0/1"  name="startCapStyle"/>
             <InterpolatingParam id="4658" interp="linr"  time="0/1" value="341.5" leadInLength="0/1"  name="width"/>
            </DoubleParameters>
            <StringParameters>
             <Parameter id="4659"  name="filename">
              <Keyframes>
              <Keyframe id="4660"  time="0/1" value="D:\Media\Studio\Callouts\line 2.xml" leadInLength="0/1"  />
              </Keyframes>
             </Parameter>
             <Parameter id="4661"  name="name">
              <Keyframes>
              <Keyframe id="4662"  time="0/1" value="Line" leadInLength="0/1"  />
              </Keyframes>
             </Parameter>
             <Parameter id="4663"  name="xmlContent">
              <Keyframes>
              <Keyframe id="4664"  time="0/1" value="﻿&lt;?xml version=&quot;1.0&quot;?&gt;&#xa;&#xa;&lt;Overlay version=&quot;1.0.1&quot;&gt;&#xa;&#xa;&lt;Overlay_Filename&gt;line 2.png&lt;/Overlay_Filename&gt;&#xa;&lt;Overlay_Name&gt;Line&lt;/Overlay_Name&gt;&#xa;&lt;Text_Top&gt;0&lt;/Text_Top&gt;&#xa;&lt;Text_Left&gt;0&lt;/Text_Left&gt;&#xa;&lt;Text_Bottom&gt;0&lt;/Text_Bottom&gt;&#xa;&lt;Text_Right&gt;0&lt;/Text_Right&gt;&#xa;&lt;Style&gt;5&lt;/Style&gt;&#xa;&lt;Initial_Fill_Color&gt;0xffd8a57c&lt;/Initial_Fill_Color&gt;&#xa;&lt;Initial_Border_Color&gt;0xff017b34&lt;/Initial_Border_Color&gt;&#xa;&lt;StartCap&gt;2&lt;/StartCap&gt;&#xa;&lt;EndCap&gt;1&lt;/EndCap&gt;&#xa;&lt;UseDefaultSpec&gt;1&lt;/UseDefaultSpec&gt;&#xa;&lt;/Overlay&gt;" leadInLength="0/1"  />
              </Keyframes>
             </Parameter>
            </StringParameters>
           </VectorNode>
          </Attribute>
         </Attributes>
         <MetaData>
          <entry key="WinSubProjectDisplayName" val=""/>
         </MetaData>
         <LeftEdgeMods length="30/1" groupName="OpacityFade">
          <EdgeMod parameter="4641">
           <FadeInFunc id="4257"  />
          </EdgeMod>
         </LeftEdgeMods>
         <RightEdgeMods length="30/1" groupName="OpacityFade">
          <EdgeMod parameter="4641">
           <FadeOutFunc id="4328"  />
          </EdgeMod>
         </RightEdgeMods>
         <ExtraData>
          <Entry key="ZoomPanBin">
           <ZoomPanBin id="4665"  >
            <ZoomPanKeyframes>
             <ZoomPanKeyframe id="4666" timeRangeEnd="-9999999/1" timeRangeDuration="0/1" interpolaterName="linr"  />
            </ZoomPanKeyframes>
           </ZoomPanBin>
          </Entry>
         </ExtraData>
        </Callout>
       </Medias>
      </GenericTrack>
      <GenericTrack id="4667"  >
       <Attributes>
        <Attribute id="4668" value="" name="ident"/>
        <Attribute id="4669" value="0" name="audioMuted"/>
        <Attribute id="4670" value="0" name="videoHidden"/>
       </Attributes>
       <MetaData>
        <entry key="IsLocked" val="False"/>
        <entry key="WinTrackHeight" val="62"/>
       </MetaData>
       <Medias>
       </Medias>
      </GenericTrack>
     </Tracks>
    </GenericMixer>
   <CaptionAttributes id="4671"  >
    <Attribute id="4672" value="1" name="captionsEnabled"/>
    <Attribute id="4673" value="Arial" name="captionsFontName"/>
    <Attribute id="4674" value="28" name="captionsFontSize"/>
    <Attribute id="4675" value="(0,0,0,255)" name="captionsBackgroundColor"/>
    <Attribute id="4676" value="(255,255,255,255)" name="captionsForegroundColor"/>
    <Attribute id="4677" value="en" name="lang"/>
    <Attribute id="4678" value="0" name="captionsAlignment"/>
    <Attribute id="4679" value="1" name="captionsDefaultFontSize"/>
    <Attribute id="4680" value="0.5" name="captionsOpacity"/>
    <Attribute id="4681" value="1" name="captionsBackgroundEnabled"/>
    <Attribute id="4682" value="1" name="captionsBackgroundOnlyAroundText"/>
   </CaptionAttributes>
   <Parameters>
    <VectorParam id="4683"  name="eyePosition">
     <InterpolatingParam id="4684" interp="linr"  time="0/1" value="0" leadInLength="0/1"  />
     <InterpolatingParam id="4685" interp="linr"  time="0/1" value="0" leadInLength="0/1"  />
     <InterpolatingParam id="4686" interp="linr"  time="0/1" value="3000" leadInLength="0/1"  />
    </VectorParam>
    <VectorParam id="4687"  name="eyeLookAtPosition">
     <InterpolatingParam id="4688" interp="linr"  time="0/1" value="0" leadInLength="0/1"  />
     <InterpolatingParam id="4689" interp="linr"  time="0/1" value="0" leadInLength="0/1"  />
     <InterpolatingParam id="4690" interp="linr"  time="0/1" value="0" leadInLength="0/1"  />
    </VectorParam>
    <VectorParam id="4691"  name="eyeUpVector">
     <InterpolatingParam id="4692" interp="linr"  time="0/1" value="0" leadInLength="0/1"  />
     <InterpolatingParam id="4693" interp="linr"  time="0/1" value="1" leadInLength="0/1"  />
     <InterpolatingParam id="4694" interp="linr"  time="0/1" value="0" leadInLength="0/1"  />
    </VectorParam>
    <InterpolatingParam id="4695" interp="linr"  time="0/1" value="0.23885785" leadInLength="0/1"  name="fov"/>
    <InterpolatingParam id="4696" interp="linr"  time="0/1" value="1.5" leadInLength="0/1"  name="nearClipDistance"/>
    <InterpolatingParam id="4697" interp="linr"  time="0/1" value="6000" leadInLength="0/1"  name="farClipDistance"/>
   </Parameters>
  </Timeline>
 </Project>
</GoProject>
</CSMLData>

</Project_Data>
