<?xml version="1.0"?>
<Project_Data Version="8.00">
<Project_Settings>
<ProfileName></ProfileName>
<ProjectWidth>1404</ProjectWidth>
<ProjectHeight>720</ProjectHeight>
<IsCustomProject>1</IsCustomProject>
<SavedProjectSettings>1</SavedProjectSettings>
<LastFlashTemplate>-1</LastFlashTemplate>
</Project_Settings>


<AutoSaveFile>C:\Users\Junaid\AppData\Local\TechSmith\Camtasia Studio\8.0\Auto-Saves\promotake250af7a16.autosave.camproj</AutoSaveFile>

<ProjectID>2BFCE00D-7780-4144-AF90-2A20BB2112D9</ProjectID>

<PowerPointProject>0</PowerPointProject>

<PowerPointFilename></PowerPointFilename>


<Project_Notes>
</Project_Notes>

<Project_MetaData>
<Project_MetaData_Object>
<FieldArrayKey>8</FieldArrayKey>
<Value>promotake2</Value>
</Project_MetaData_Object>
<Project_MetaData_Object>
<FieldArrayKey>13</FieldArrayKey>
<Value>2016-02-13 08:50:15 AM</Value>
</Project_MetaData_Object>
<Project_MetaData_Object>
<FieldArrayKey>16</FieldArrayKey>
<Value>ENU</Value>
</Project_MetaData_Object>
</Project_MetaData>

<CSMLData>
<GoProject id="1" version="3.0" >
 <Project id="2" editRate="30/1" version="3.0" >
  <Author></Author>
  <Comment></Comment>
  <System></System>
  <SourceBin id="3"  >
    <Source id="4" src="C:\Users\Junaid\Desktop\IOT RECO\promotak2 1.trec" lastMod="20160213T033016" rect="(0,0,1920,984)" >
      <SourceTrack range="(0,1250)" type="0" editRate="30/1" trackRect="(0,0,1920,984)" sampleRate="0/1" bitDepth="0" numChannels="0" filename="promotak2 1.trec!Strack0.tsc2" metaData="promotak2 1.trec;" />
      <SourceTrack range="(0,1245000)" type="0" editRate="30000/1" trackRect="(0,0,640,480)" sampleRate="0/1" bitDepth="0" numChannels="0" filename="promotak2 1.trec!Cvideo1.mp4" metaData="" />
      <SourceTrack range="(0,1813504)" type="2" editRate="44100/1" trackRect="(0,0,0,0)" sampleRate="44100/1" bitDepth="16" numChannels="2" filename="promotak2 1.trec!Maudio2.mp4" metaData="" />
    </Source>
    <Source id="5" src="C:\Users\Junaid\Desktop\IOT RECO\promotak2 2.trec" lastMod="20160213T033514" rect="(0,0,1920,984)" >
      <SourceTrack range="(0,686)" type="0" editRate="30/1" trackRect="(0,0,1920,984)" sampleRate="0/1" bitDepth="0" numChannels="0" filename="promotak2 2.trec!Strack0.tsc2" metaData="promotak2 2.trec;" />
      <SourceTrack range="(0,685000)" type="0" editRate="30000/1" trackRect="(0,0,640,480)" sampleRate="0/1" bitDepth="0" numChannels="0" filename="promotak2 2.trec!Cvideo1.mp4" metaData="" />
      <SourceTrack range="(0,989184)" type="2" editRate="44100/1" trackRect="(0,0,0,0)" sampleRate="44100/1" bitDepth="16" numChannels="2" filename="promotak2 2.trec!Maudio2.mp4" metaData="" />
    </Source>
    <Source id="6" src="C:\Users\Junaid\Desktop\IOT RECO\promotak2 3.trec" lastMod="20160213T033746" rect="(0,0,1920,984)" >
      <SourceTrack range="(0,914)" type="0" editRate="30/1" trackRect="(0,0,1920,984)" sampleRate="0/1" bitDepth="0" numChannels="0" filename="promotak2 3.trec!Strack0.tsc2" metaData="promotak2 3.trec;" />
      <SourceTrack range="(0,910000)" type="0" editRate="30000/1" trackRect="(0,0,640,480)" sampleRate="0/1" bitDepth="0" numChannels="0" filename="promotak2 3.trec!Cvideo1.mp4" metaData="" />
      <SourceTrack range="(0,1337344)" type="2" editRate="44100/1" trackRect="(0,0,0,0)" sampleRate="44100/1" bitDepth="16" numChannels="2" filename="promotak2 3.trec!Maudio2.mp4" metaData="" />
    </Source>
    <Source id="7" src="C:\Users\Junaid\Desktop\IOT RECO\promotak2.trec" lastMod="20160213T034046" rect="(0,0,1920,984)" >
      <SourceTrack range="(0,827)" type="0" editRate="30/1" trackRect="(0,0,1920,984)" sampleRate="0/1" bitDepth="0" numChannels="0" filename="promotak2.trec!Strack0.tsc2" metaData="promotak2.trec;" />
      <SourceTrack range="(0,824000)" type="0" editRate="30000/1" trackRect="(0,0,640,480)" sampleRate="0/1" bitDepth="0" numChannels="0" filename="promotak2.trec!Cvideo1.mp4" metaData="" />
      <SourceTrack range="(0,1208320)" type="2" editRate="44100/1" trackRect="(0,0,0,0)" sampleRate="44100/1" bitDepth="16" numChannels="2" filename="promotak2.trec!Maudio2.mp4" metaData="" />
    </Source>
    <Source id="8" src="C:\Users\Junaid\Desktop\IOT RECO\promotak2 4.trec" lastMod="20160213T035153" rect="(0,0,1920,984)" >
      <SourceTrack range="(0,14166)" type="0" editRate="30/1" trackRect="(0,0,1920,984)" sampleRate="0/1" bitDepth="0" numChannels="0" filename="promotak2 4.trec!Strack0.tsc2" metaData="promotak2 4.trec;" />
      <SourceTrack range="(0,14162000)" type="0" editRate="30000/1" trackRect="(0,0,640,480)" sampleRate="0/1" bitDepth="0" numChannels="0" filename="promotak2 4.trec!Cvideo1.mp4" metaData="" />
      <SourceTrack range="(0,20797440)" type="2" editRate="44100/1" trackRect="(0,0,0,0)" sampleRate="44100/1" bitDepth="16" numChannels="2" filename="promotak2 4.trec!Maudio2.mp4" metaData="" />
    </Source>
    <Source id="9" src="C:\Users\Junaid\Desktop\IOT RECO\promotak2 5.trec" lastMod="20160213T035844" rect="(0,0,1920,984)" >
      <SourceTrack range="(0,2469)" type="0" editRate="30/1" trackRect="(0,0,1920,984)" sampleRate="0/1" bitDepth="0" numChannels="0" filename="promotak2 5.trec!Strack0.tsc2" metaData="promotak2 5.trec;" />
      <SourceTrack range="(0,2468000)" type="0" editRate="30000/1" trackRect="(0,0,640,480)" sampleRate="0/1" bitDepth="0" numChannels="0" filename="promotak2 5.trec!Cvideo1.mp4" metaData="" />
      <SourceTrack range="(0,3609600)" type="2" editRate="44100/1" trackRect="(0,0,0,0)" sampleRate="44100/1" bitDepth="16" numChannels="2" filename="promotak2 5.trec!Maudio2.mp4" metaData="" />
    </Source>
    <Source id="10" src="C:\Users\Junaid\Desktop\IOT RECO\promotak2 6.trec" lastMod="20160213T041015" rect="(0,0,1920,984)" >
      <SourceTrack range="(0,3926)" type="0" editRate="30/1" trackRect="(0,0,1920,984)" sampleRate="0/1" bitDepth="0" numChannels="0" filename="promotak2 6.trec!Strack0.tsc2" metaData="promotak2 6.trec;" />
      <SourceTrack range="(0,3921000)" type="0" editRate="30000/1" trackRect="(0,0,640,480)" sampleRate="0/1" bitDepth="0" numChannels="0" filename="promotak2 6.trec!Cvideo1.mp4" metaData="" />
      <SourceTrack range="(0,5760000)" type="2" editRate="44100/1" trackRect="(0,0,0,0)" sampleRate="44100/1" bitDepth="16" numChannels="2" filename="promotak2 6.trec!Maudio2.mp4" metaData="" />
    </Source>
    <Source id="11" src="C:\Users\Junaid\Desktop\IOT RECO\promotak2 7.trec" lastMod="20160213T041759" rect="(0,0,1920,984)" >
      <SourceTrack range="(0,8215)" type="0" editRate="30/1" trackRect="(0,0,1920,984)" sampleRate="0/1" bitDepth="0" numChannels="0" filename="promotak2 7.trec!Strack0.tsc2" metaData="promotak2 7.trec;" />
      <SourceTrack range="(0,8210000)" type="0" editRate="30000/1" trackRect="(0,0,640,480)" sampleRate="0/1" bitDepth="0" numChannels="0" filename="promotak2 7.trec!Cvideo1.mp4" metaData="" />
      <SourceTrack range="(0,12067840)" type="2" editRate="44100/1" trackRect="(0,0,0,0)" sampleRate="44100/1" bitDepth="16" numChannels="2" filename="promotak2 7.trec!Maudio2.mp4" metaData="" />
    </Source>
    <Source id="12" src="C:\Users\Junaid\Desktop\IOT RECO\promotak2 8.trec" lastMod="20160213T042447" rect="(0,0,1920,984)" >
      <SourceTrack range="(0,2972)" type="0" editRate="30/1" trackRect="(0,0,1920,984)" sampleRate="0/1" bitDepth="0" numChannels="0" filename="promotak2 8.trec!Strack0.tsc2" metaData="promotak2 8.trec;" />
      <SourceTrack range="(0,2971000)" type="0" editRate="30000/1" trackRect="(0,0,640,480)" sampleRate="0/1" bitDepth="0" numChannels="0" filename="promotak2 8.trec!Cvideo1.mp4" metaData="" />
      <SourceTrack range="(0,4367360)" type="2" editRate="44100/1" trackRect="(0,0,0,0)" sampleRate="44100/1" bitDepth="16" numChannels="2" filename="promotak2 8.trec!Maudio2.mp4" metaData="" />
    </Source>
    <Source id="13" src="C:\Users\Junaid\Desktop\IOT RECO\promotak2 9.trec" lastMod="20160213T042810" rect="(0,0,1920,984)" >
      <SourceTrack range="(0,1818)" type="0" editRate="30/1" trackRect="(0,0,1920,984)" sampleRate="0/1" bitDepth="0" numChannels="0" filename="promotak2 9.trec!Strack0.tsc2" metaData="promotak2 9.trec;" />
      <SourceTrack range="(0,1816000)" type="0" editRate="30000/1" trackRect="(0,0,640,480)" sampleRate="0/1" bitDepth="0" numChannels="0" filename="promotak2 9.trec!Cvideo1.mp4" metaData="" />
      <SourceTrack range="(0,2650112)" type="2" editRate="44100/1" trackRect="(0,0,0,0)" sampleRate="44100/1" bitDepth="16" numChannels="2" filename="promotak2 9.trec!Maudio2.mp4" metaData="" />
    </Source>
    <Source id="14" src="C:\ProgramData\TechSmith\Camtasia Studio\Library 2.0\Blues Country - Medium\Blues Country - Medium.mp3" lastMod="20120514T103326" rect="(0,0,0,0)" >
      <SourceTrack range="(0,673333333)" type="2" editRate="10000000/1" trackRect="(0,0,0,0)" sampleRate="44100/1" bitDepth="0" numChannels="2" filename="" metaData="" />
    </Source>
    <Source id="15" src="C:\ProgramData\TechSmith\Camtasia Studio\Library 2.0\Coast to Coast - Medium\Coast to Coast - Medium.mp3" lastMod="20120514T103450" rect="(0,0,0,0)" >
      <SourceTrack range="(0,631000000)" type="2" editRate="10000000/1" trackRect="(0,0,0,0)" sampleRate="44100/1" bitDepth="0" numChannels="2" filename="" metaData="" />
    </Source>
    <Source id="16" src="C:\Users\Junaid\Desktop\IOT\Resources\IoT-Breakout-Mobile-App-Development-AppsOnClick.png" lastMod="20160213T045253" rect="(0,0,5738,3393)" >
      <SourceTrack range="(0,1)" type="1" editRate="10000000/1" trackRect="(0,0,5738,3393)" sampleRate="0/1" bitDepth="24" numChannels="0" filename="" metaData="" />
    </Source>
    <Source id="17" src="C:\Users\Junaid\Desktop\IOT\Resources\blue.jpg" lastMod="20160213T014048" rect="(0,0,1700,1200)" >
      <SourceTrack range="(0,1)" type="1" editRate="10000000/1" trackRect="(0,0,1700,1200)" sampleRate="0/1" bitDepth="24" numChannels="0" filename="" metaData="" />
    </Source>
    <Source id="18" src="C:\Users\Junaid\Desktop\IOT\Resources\intel iot blue.png" lastMod="20160213T050620" rect="(0,0,179,100)" >
      <SourceTrack range="(0,1)" type="1" editRate="10000000/1" trackRect="(0,0,179,100)" sampleRate="0/1" bitDepth="8" numChannels="0" filename="" metaData="" />
    </Source>
    <Source id="19" src="C:\Users\Junaid\Desktop\IOT\Resources\making-sense-of-big-data-in-the-age-of-the-iot.jpg" lastMod="20160213T050834" rect="(0,0,890,455)" >
      <SourceTrack range="(0,1)" type="1" editRate="10000000/1" trackRect="(0,0,890,455)" sampleRate="0/1" bitDepth="24" numChannels="0" filename="" metaData="" />
    </Source>
    <Source id="20" src="C:\Users\Junaid\Desktop\IOT\Resources\grey.jpg" lastMod="20160213T051054" rect="(0,0,290,174)" >
      <SourceTrack range="(0,1)" type="1" editRate="10000000/1" trackRect="(0,0,290,174)" sampleRate="0/1" bitDepth="24" numChannels="0" filename="" metaData="" />
    </Source>
    <Source id="21" src="C:\Users\Junaid\Desktop\IOT\Resources\grey 3.jpg" lastMod="20160213T051300" rect="(0,0,251,201)" >
      <SourceTrack range="(0,1)" type="1" editRate="10000000/1" trackRect="(0,0,251,201)" sampleRate="0/1" bitDepth="24" numChannels="0" filename="" metaData="" />
    </Source>
    <Source id="22" src="C:\ProgramData\TechSmith\Camtasia Studio\Library 2.0\Animated Intro(9)\End Of The Line.mp4" lastMod="20120320T120238" rect="(0,0,1280,720)" >
      <SourceTrack range="(0,200000000)" type="0" editRate="10000000/1" trackRect="(0,0,1280,720)" sampleRate="10000000/333333" bitDepth="24" numChannels="0" filename="" metaData="" />
    </Source>
    <Source id="23" src="C:\ProgramData\TechSmith\Camtasia Studio\Library 2.0\Callout - Themed 21143f9b4\EndoftheLine-CommonCallout-two.png" lastMod="20120322T071800" rect="(0,0,750,125)" >
      <SourceTrack range="(0,1)" type="1" editRate="10000000/1" trackRect="(0,0,750,125)" sampleRate="0/1" bitDepth="32" numChannels="0" filename="" metaData="" />
    </Source>
    <Source id="24" src="C:\Users\Junaid\Desktop\IOT\Resources\sap hana.png" lastMod="20160213T052613" rect="(0,0,405,89)" >
      <SourceTrack range="(0,1)" type="1" editRate="10000000/1" trackRect="(0,0,405,89)" sampleRate="0/1" bitDepth="24" numChannels="0" filename="" metaData="" />
    </Source>
    <Source id="25" src="C:\Users\Junaid\Desktop\IOT\Resources\admin.png" lastMod="20160213T052923" rect="(0,0,312,80)" >
      <SourceTrack range="(0,1)" type="1" editRate="10000000/1" trackRect="(0,0,312,80)" sampleRate="0/1" bitDepth="24" numChannels="0" filename="" metaData="" />
    </Source>
    <Source id="26" src="C:\Users\Junaid\Desktop\IOT\Resources\admin2.png" lastMod="20160213T053343" rect="(0,0,611,80)" >
      <SourceTrack range="(0,1)" type="1" editRate="10000000/1" trackRect="(0,0,611,80)" sampleRate="0/1" bitDepth="24" numChannels="0" filename="" metaData="" />
    </Source>
    <Source id="27" src="C:\Users\Junaid\Desktop\IOT\Resources\sap hana 2.png" lastMod="20160213T053500" rect="(0,0,643,82)" >
      <SourceTrack range="(0,1)" type="1" editRate="10000000/1" trackRect="(0,0,643,82)" sampleRate="0/1" bitDepth="24" numChannels="0" filename="" metaData="" />
    </Source>
    <Source id="28" src="C:\Users\Junaid\Desktop\IOT RECO\promotak2 10.trec" lastMod="20160213T054428" rect="(0,0,1920,984)" >
      <SourceTrack range="(0,2368)" type="0" editRate="30/1" trackRect="(0,0,1920,984)" sampleRate="0/1" bitDepth="0" numChannels="0" filename="promotak2 10.trec!Strack0.tsc2" metaData="promotak2 10.trec;" />
      <SourceTrack range="(0,2366000)" type="0" editRate="30000/1" trackRect="(0,0,640,480)" sampleRate="0/1" bitDepth="0" numChannels="0" filename="promotak2 10.trec!Cvideo1.mp4" metaData="" />
      <SourceTrack range="(0,3471360)" type="2" editRate="44100/1" trackRect="(0,0,0,0)" sampleRate="44100/1" bitDepth="16" numChannels="2" filename="promotak2 10.trec!Maudio2.mp4" metaData="" />
    </Source>
    <Source id="29" src="C:\Users\Junaid\Desktop\IOT RECO\promotak2 11.trec" lastMod="20160213T060745" rect="(0,0,1920,984)" >
      <SourceTrack range="(0,1606)" type="0" editRate="30/1" trackRect="(0,0,1920,984)" sampleRate="0/1" bitDepth="0" numChannels="0" filename="promotak2 11.trec!Strack0.tsc2" metaData="promotak2 11.trec;" />
      <SourceTrack range="(0,1604000)" type="0" editRate="30000/1" trackRect="(0,0,640,480)" sampleRate="0/1" bitDepth="0" numChannels="0" filename="promotak2 11.trec!Cvideo1.mp4" metaData="" />
      <SourceTrack range="(0,2352128)" type="2" editRate="44100/1" trackRect="(0,0,0,0)" sampleRate="44100/1" bitDepth="16" numChannels="2" filename="promotak2 11.trec!Maudio2.mp4" metaData="" />
    </Source>
  </SourceBin>
  <Timeline id="30"  >
   <Attributes>
    <Attribute id="31" value="1404" name="width"/>
    <Attribute id="32" value="720" name="height"/>
    <Attribute id="33" value="(0,0,0,255)" name="backgroundColor"/>
   </Attributes>
    <GenericMixer id="34"  name="Unified Mixer">
     <MetaData>
      <entry key="MixerType" val="TimelineMixer"/>
     </MetaData>
     <Tracks>
      <GenericTrack id="35"  >
       <Attributes>
        <Attribute id="36" value="" name="ident"/>
        <Attribute id="37" value="0" name="audioMuted"/>
        <Attribute id="38" value="0" name="videoHidden"/>
       </Attributes>
       <MetaData>
        <entry key="IsLocked" val="False"/>
        <entry key="WinTrackHeight" val="62"/>
       </MetaData>
       <Medias>
        <StitchedMedia id="39" start="747" duration="1206" scalar="1/1" mediaStart="6381/1" mediaDuration="1206/1" minMediaStart="0/1" >
         <Transformer>
          <VectorParam id="40"  name="translation">
           <InterpolatingParam id="41" interp="linr"  time="-9999999/1" value="-2.6540785730079664e-010" leadInLength="0/1"  />
           <InterpolatingParam id="42" interp="linr"  time="-9999999/1" value="5.7902482808458439e-011" leadInLength="0/1"  />
           <InterpolatingParam id="43" interp="linr"  time="-9999999/1" value="0" leadInLength="0/1"  />
          </VectorParam>
          <VectorParam id="44"  name="rotation">
           <InterpolatingParam id="45" interp="linr"  time="-9999999/1" value="0" leadInLength="0/1"  />
           <InterpolatingParam id="46" interp="linr"  time="-9999999/1" value="0" leadInLength="0/1"  />
           <InterpolatingParam id="47" interp="linr"  time="-9999999/1" value="0" leadInLength="0/1"  />
          </VectorParam>
          <VectorParam id="48"  name="shear">
           <InterpolatingParam id="49" interp="linr"  time="-9999999/1" value="0" leadInLength="0/1"  />
           <InterpolatingParam id="50" interp="linr"  time="-9999999/1" value="0" leadInLength="0/1"  />
           <InterpolatingParam id="51" interp="linr"  time="-9999999/1" value="0" leadInLength="0/1"  />
          </VectorParam>
          <VectorParam id="52"  name="scale">
           <InterpolatingParam id="53" interp="linr"  time="-9999999/1" value="0.73124999999999996" leadInLength="0/1"  />
           <InterpolatingParam id="54" interp="linr"  time="-9999999/1" value="0.73124999999999996" leadInLength="0/1"  />
           <InterpolatingParam id="55" interp="linr"  time="-9999999/1" value="1" leadInLength="0/1"  />
          </VectorParam>
          <VectorParam id="56"  name="anchor">
           <InterpolatingParam id="57" interp="linr"  time="0/1" value="0" leadInLength="0/1"  />
           <InterpolatingParam id="58" interp="linr"  time="0/1" value="0" leadInLength="0/1"  />
           <InterpolatingParam id="59" interp="linr"  time="0/1" value="0" leadInLength="0/1"  />
          </VectorParam>
         </Transformer>
         <Parameters>
          <VectorParam id="60"  name="sourceCrop">
           <InterpolatingParam id="61" interp="linr"  time="0/1" value="0" leadInLength="0/1"  />
           <InterpolatingParam id="62" interp="linr"  time="0/1" value="0" leadInLength="0/1"  />
           <InterpolatingParam id="63" interp="linr"  time="0/1" value="0" leadInLength="0/1"  />
           <InterpolatingParam id="64" interp="linr"  time="0/1" value="0" leadInLength="0/1"  />
          </VectorParam>
          <VectorParam id="65"  name="geometryCrop">
           <InterpolatingParam id="66" interp="linr"  time="-9999999/1" value="0" leadInLength="0/1"  />
           <InterpolatingParam id="67" interp="linr"  time="-9999999/1" value="0" leadInLength="0/1"  />
           <InterpolatingParam id="68" interp="linr"  time="-9999999/1" value="0" leadInLength="0/1"  />
           <InterpolatingParam id="69" interp="linr"  time="-9999999/1" value="0" leadInLength="0/1"  />
          </VectorParam>
          <InterpolatingParam id="70" interp="linr"  time="-9999999/1" value="1" leadInLength="0/1"  name="opacity"/>
          <InterpolatingParam id="71" interp="linr"  time="0/1" value="1" leadInLength="0/1"  name="cursorOpacity"/>
          <InterpolatingParam id="72" interp="linr"  time="0/1" value="1" leadInLength="0/1"  name="cursorScale"/>
          <Parameter id="73"  name="captions"/>
         </Parameters>
         <Effects>
          <GenericEffect id="74" name = "CursorBaseEffectName" >
           <Parameters>
           <InterpolatingParam id="75" interp="linr"  time="-9999999/1" value="1" leadInLength="0/1"   name="cursorSize"/>
           <InterpolatingParam id="76" interp="linr"  time="-9999999/1" value="0" leadInLength="0/1"   name="highlightBlurRadius"/>
           <InterpolatingParam id="77" interp="linr"  time="-9999999/1" value="0" leadInLength="0/1"   name="highlightColorBlue"/>
           <InterpolatingParam id="78" interp="linr"  time="-9999999/1" value="255" leadInLength="0/1"   name="highlightColorGreen"/>
           <InterpolatingParam id="79" interp="linr"  time="-9999999/1" value="255" leadInLength="0/1"   name="highlightColorRed"/>
           <InterpolatingParam id="80" interp="linr"  time="-9999999/1" value="5" leadInLength="0/1"   name="highlightFeatherSize"/>
           <InterpolatingParam id="81" interp="linr"  time="-9999999/1" value="2" leadInLength="0/1"   name="highlightMagnification"/>
           <InterpolatingParam id="82" interp="linr"  time="-9999999/1" value="1" leadInLength="0/1"   name="highlightOpacity"/>
           <InterpolatingParam id="83" interp="linr"  time="-9999999/1" value="45" leadInLength="0/1"   name="highlightSize"/>
           <Parameter id="84"   name="highlightType">
            <Keyframes>
            <Keyframe id="85"  time="-9999999/1" value="0" leadInLength="0/1"  />
            </Keyframes>
           </Parameter>
           <InterpolatingParam id="86" interp="linr"  time="-9999999/1" value="0" leadInLength="0/1"   name="leftClickColorBlue"/>
           <InterpolatingParam id="87" interp="linr"  time="-9999999/1" value="0" leadInLength="0/1"   name="leftClickColorGreen"/>
           <InterpolatingParam id="88" interp="linr"  time="-9999999/1" value="255" leadInLength="0/1"   name="leftClickColorRed"/>
           <InterpolatingParam id="89" interp="linr"  time="-9999999/1" value="0.80000000000000004" leadInLength="0/1"   name="leftClickDuration"/>
           <InterpolatingParam id="90" interp="linr"  time="-9999999/1" value="20" leadInLength="0/1"   name="leftClickSize"/>
           <Parameter id="91"   name="leftClickSoundFilename">
            <Keyframes>
            <Keyframe id="92"  time="-9999999/1" value="" leadInLength="0/1"  />
            </Keyframes>
           </Parameter>
           <InterpolatingParam id="93" interp="linr"  time="-9999999/1" value="1" leadInLength="0/1"   name="leftClickSoundVolume"/>
           <Parameter id="94"   name="leftClickType">
            <Keyframes>
            <Keyframe id="95"  time="-9999999/1" value="0" leadInLength="0/1"  />
            </Keyframes>
           </Parameter>
           <InterpolatingParam id="96" interp="linr"  time="-9999999/1" value="1" leadInLength="0/1"   name="opacity"/>
           <InterpolatingParam id="97" interp="linr"  time="-9999999/1" value="255" leadInLength="0/1"   name="rightClickColorBlue"/>
           <InterpolatingParam id="98" interp="linr"  time="-9999999/1" value="0" leadInLength="0/1"   name="rightClickColorGreen"/>
           <InterpolatingParam id="99" interp="linr"  time="-9999999/1" value="0" leadInLength="0/1"   name="rightClickColorRed"/>
           <InterpolatingParam id="100" interp="linr"  time="-9999999/1" value="0.80000000000000004" leadInLength="0/1"   name="rightClickDuration"/>
           <InterpolatingParam id="101" interp="linr"  time="-9999999/1" value="20" leadInLength="0/1"   name="rightClickSize"/>
           <Parameter id="102"   name="rightClickSoundFilename">
            <Keyframes>
            <Keyframe id="103"  time="-9999999/1" value="" leadInLength="0/1"  />
            </Keyframes>
           </Parameter>
           <InterpolatingParam id="104" interp="linr"  time="-9999999/1" value="1" leadInLength="0/1"   name="rightClickSoundVolume"/>
           <Parameter id="105"   name="rightClickType">
            <Keyframes>
            <Keyframe id="106"  time="-9999999/1" value="0" leadInLength="0/1"  />
            </Keyframes>
           </Parameter>
           </Parameters>
          </GenericEffect>
         </Effects>
         <Attributes>
          <Attribute id="107" value="" name="ident"/>
         </Attributes>
         <MetaData>
          <entry key="AutoAppliedSmartFocus" val="False"/>
          <entry key="WinSubProjectDisplayName" val=""/>
         </MetaData>
         <ExtraData>
          <Entry key="ZoomPanBin">
           <ZoomPanBin id="108"  >
            <ZoomPanKeyframes>
             <ZoomPanKeyframe id="109" timeRangeEnd="-9999999/1" timeRangeDuration="0/1" interpolaterName=""  />
            </ZoomPanKeyframes>
           </ZoomPanBin>
          </Entry>
          <Entry key="CursorEffectBin">
           <CursorEffectBin id="110"  >
            <CursorEffectKeyframes>
             <CursorEffectKeyframe id="111" timeRangeEnd="-9999999/1" timeRangeDuration="0/1" interpolaterName=""  />
            </CursorEffectKeyframes>
           </CursorEffectBin>
          </Entry>
         </ExtraData>
         <GenericTrack id="112"  >
          <Attributes>
           <Attribute id="113" value="" name="ident"/>
           <Attribute id="114" value="0" name="audioMuted"/>
           <Attribute id="115" value="0" name="videoHidden"/>
          </Attributes>
          <MetaData>
           <entry key="IsLocked" val="False"/>
           <entry key="WinTrackHeight" val="0"/>
          </MetaData>
          <Medias>
           <ScreenVMFile id="116" start="0" duration="6484" scalar="1/1" mediaStart="0/1" mediaDuration="6484/1" trackNumber="0" src="8" >
            <Transformer>
             <VectorParam id="117"  name="translation">
              <InterpolatingParam id="118" interp="linr"  time="-9999999/1" value="0" leadInLength="0/1"  />
              <InterpolatingParam id="119" interp="linr"  time="-9999999/1" value="0" leadInLength="0/1"  />
              <InterpolatingParam id="120" interp="linr"  time="-9999999/1" value="0" leadInLength="0/1"  />
             </VectorParam>
             <VectorParam id="121"  name="rotation">
              <InterpolatingParam id="122" interp="linr"  time="-9999999/1" value="0" leadInLength="0/1"  />
              <InterpolatingParam id="123" interp="linr"  time="-9999999/1" value="0" leadInLength="0/1"  />
              <InterpolatingParam id="124" interp="linr"  time="-9999999/1" value="0" leadInLength="0/1"  />
             </VectorParam>
             <VectorParam id="125"  name="shear">
              <InterpolatingParam id="126" interp="linr"  time="-9999999/1" value="0" leadInLength="0/1"  />
              <InterpolatingParam id="127" interp="linr"  time="-9999999/1" value="0" leadInLength="0/1"  />
              <InterpolatingParam id="128" interp="linr"  time="-9999999/1" value="0" leadInLength="0/1"  />
             </VectorParam>
             <VectorParam id="129"  name="scale">
              <InterpolatingParam id="130" interp="linr"  time="-9999999/1" value="1" leadInLength="0/1"  />
              <InterpolatingParam id="131" interp="linr"  time="-9999999/1" value="1" leadInLength="0/1"  />
              <InterpolatingParam id="132" interp="linr"  time="-9999999/1" value="1" leadInLength="0/1"  />
             </VectorParam>
             <VectorParam id="133"  name="anchor">
              <InterpolatingParam id="134" interp="linr"  time="0/1" value="0" leadInLength="0/1"  />
              <InterpolatingParam id="135" interp="linr"  time="0/1" value="0" leadInLength="0/1"  />
              <InterpolatingParam id="136" interp="linr"  time="0/1" value="0" leadInLength="0/1"  />
             </VectorParam>
            </Transformer>
            <Parameters>
             <VectorParam id="137"  name="sourceCrop">
              <InterpolatingParam id="138" interp="linr"  time="0/1" value="0" leadInLength="0/1"  />
              <InterpolatingParam id="139" interp="linr"  time="0/1" value="0" leadInLength="0/1"  />
              <InterpolatingParam id="140" interp="linr"  time="0/1" value="0" leadInLength="0/1"  />
              <InterpolatingParam id="141" interp="linr"  time="0/1" value="0" leadInLength="0/1"  />
             </VectorParam>
             <VectorParam id="142"  name="geometryCrop">
              <InterpolatingParam id="143" interp="linr"  time="-9999999/1" value="0" leadInLength="0/1"  />
              <InterpolatingParam id="144" interp="linr"  time="-9999999/1" value="0" leadInLength="0/1"  />
              <InterpolatingParam id="145" interp="linr"  time="-9999999/1" value="0" leadInLength="0/1"  />
              <InterpolatingParam id="146" interp="linr"  time="-9999999/1" value="0" leadInLength="0/1"  />
             </VectorParam>
             <InterpolatingParam id="147" interp="linr"  time="-9999999/1" value="1" leadInLength="0/1"  name="opacity"/>
             <InterpolatingParam id="148" interp="linr"  time="0/1" value="0" leadInLength="0/1"  name="cursorOpacity"/>
             <InterpolatingParam id="149" interp="linr"  time="0/1" value="0" leadInLength="0/1"  name="cursorScale"/>
            </Parameters>
            <Attributes>
             <Attribute id="150" value="" name="ident"/>
            </Attributes>
            <MetaData>
             <entry key="AutoAppliedSmartFocus" val="False"/>
             <entry key="WinSubProjectDisplayName" val=""/>
            </MetaData>
            <ExtraData>
             <Entry key="ZoomPanBin">
              <ZoomPanBin id="151"  >
               <ZoomPanKeyframes>
                <ZoomPanKeyframe id="152" timeRangeEnd="-9999999/1" timeRangeDuration="0/1" interpolaterName=""  />
               </ZoomPanKeyframes>
              </ZoomPanBin>
             </Entry>
             <Entry key="CursorEffectBin">
              <CursorEffectBin id="153"  >
               <CursorEffectKeyframes>
               </CursorEffectKeyframes>
              </CursorEffectBin>
             </Entry>
            </ExtraData>
           </ScreenVMFile>
           <ScreenVMFile id="154" start="6484" duration="119" scalar="1/1" mediaStart="6497/1" mediaDuration="119/1" trackNumber="0" src="8" >
            <Transformer>
             <VectorParam id="155"  name="translation">
              <InterpolatingParam id="156" interp="linr"  time="-9999999/1" value="0" leadInLength="0/1"  />
              <InterpolatingParam id="157" interp="linr"  time="-9999999/1" value="0" leadInLength="0/1"  />
              <InterpolatingParam id="158" interp="linr"  time="-9999999/1" value="0" leadInLength="0/1"  />
             </VectorParam>
             <VectorParam id="159"  name="rotation">
              <InterpolatingParam id="160" interp="linr"  time="-9999999/1" value="0" leadInLength="0/1"  />
              <InterpolatingParam id="161" interp="linr"  time="-9999999/1" value="0" leadInLength="0/1"  />
              <InterpolatingParam id="162" interp="linr"  time="-9999999/1" value="0" leadInLength="0/1"  />
             </VectorParam>
             <VectorParam id="163"  name="shear">
              <InterpolatingParam id="164" interp="linr"  time="-9999999/1" value="0" leadInLength="0/1"  />
              <InterpolatingParam id="165" interp="linr"  time="-9999999/1" value="0" leadInLength="0/1"  />
              <InterpolatingParam id="166" interp="linr"  time="-9999999/1" value="0" leadInLength="0/1"  />
             </VectorParam>
             <VectorParam id="167"  name="scale">
              <InterpolatingParam id="168" interp="linr"  time="-9999999/1" value="1" leadInLength="0/1"  />
              <InterpolatingParam id="169" interp="linr"  time="-9999999/1" value="1" leadInLength="0/1"  />
              <InterpolatingParam id="170" interp="linr"  time="-9999999/1" value="1" leadInLength="0/1"  />
             </VectorParam>
             <VectorParam id="171"  name="anchor">
              <InterpolatingParam id="172" interp="linr"  time="0/1" value="0" leadInLength="0/1"  />
              <InterpolatingParam id="173" interp="linr"  time="0/1" value="0" leadInLength="0/1"  />
              <InterpolatingParam id="174" interp="linr"  time="0/1" value="0" leadInLength="0/1"  />
             </VectorParam>
            </Transformer>
            <Parameters>
             <VectorParam id="175"  name="sourceCrop">
              <InterpolatingParam id="176" interp="linr"  time="0/1" value="0" leadInLength="0/1"  />
              <InterpolatingParam id="177" interp="linr"  time="0/1" value="0" leadInLength="0/1"  />
              <InterpolatingParam id="178" interp="linr"  time="0/1" value="0" leadInLength="0/1"  />
              <InterpolatingParam id="179" interp="linr"  time="0/1" value="0" leadInLength="0/1"  />
             </VectorParam>
             <VectorParam id="180"  name="geometryCrop">
              <InterpolatingParam id="181" interp="linr"  time="-9999999/1" value="0" leadInLength="0/1"  />
              <InterpolatingParam id="182" interp="linr"  time="-9999999/1" value="0" leadInLength="0/1"  />
              <InterpolatingParam id="183" interp="linr"  time="-9999999/1" value="0" leadInLength="0/1"  />
              <InterpolatingParam id="184" interp="linr"  time="-9999999/1" value="0" leadInLength="0/1"  />
             </VectorParam>
             <InterpolatingParam id="185" interp="linr"  time="-9999999/1" value="1" leadInLength="0/1"  name="opacity"/>
             <InterpolatingParam id="186" interp="linr"  time="0/1" value="0" leadInLength="0/1"  name="cursorOpacity"/>
             <InterpolatingParam id="187" interp="linr"  time="0/1" value="0" leadInLength="0/1"  name="cursorScale"/>
            </Parameters>
            <Attributes>
             <Attribute id="188" value="" name="ident"/>
            </Attributes>
            <MetaData>
             <entry key="AutoAppliedSmartFocus" val="False"/>
             <entry key="WinSubProjectDisplayName" val=""/>
            </MetaData>
            <ExtraData>
             <Entry key="ZoomPanBin">
              <ZoomPanBin id="189"  >
               <ZoomPanKeyframes>
                <ZoomPanKeyframe id="190" timeRangeEnd="-9999999/1" timeRangeDuration="0/1" interpolaterName=""  />
               </ZoomPanKeyframes>
              </ZoomPanBin>
             </Entry>
             <Entry key="CursorEffectBin">
              <CursorEffectBin id="191"  >
               <CursorEffectKeyframes>
               </CursorEffectKeyframes>
              </CursorEffectBin>
             </Entry>
            </ExtraData>
           </ScreenVMFile>
           <ScreenVMFile id="192" start="6603" duration="92" scalar="1/1" mediaStart="6626/1" mediaDuration="92/1" trackNumber="0" src="8" >
            <Transformer>
             <VectorParam id="193"  name="translation">
              <InterpolatingParam id="194" interp="linr"  time="-9999999/1" value="0" leadInLength="0/1"  />
              <InterpolatingParam id="195" interp="linr"  time="-9999999/1" value="0" leadInLength="0/1"  />
              <InterpolatingParam id="196" interp="linr"  time="-9999999/1" value="0" leadInLength="0/1"  />
             </VectorParam>
             <VectorParam id="197"  name="rotation">
              <InterpolatingParam id="198" interp="linr"  time="-9999999/1" value="0" leadInLength="0/1"  />
              <InterpolatingParam id="199" interp="linr"  time="-9999999/1" value="0" leadInLength="0/1"  />
              <InterpolatingParam id="200" interp="linr"  time="-9999999/1" value="0" leadInLength="0/1"  />
             </VectorParam>
             <VectorParam id="201"  name="shear">
              <InterpolatingParam id="202" interp="linr"  time="-9999999/1" value="0" leadInLength="0/1"  />
              <InterpolatingParam id="203" interp="linr"  time="-9999999/1" value="0" leadInLength="0/1"  />
              <InterpolatingParam id="204" interp="linr"  time="-9999999/1" value="0" leadInLength="0/1"  />
             </VectorParam>
             <VectorParam id="205"  name="scale">
              <InterpolatingParam id="206" interp="linr"  time="-9999999/1" value="1" leadInLength="0/1"  />
              <InterpolatingParam id="207" interp="linr"  time="-9999999/1" value="1" leadInLength="0/1"  />
              <InterpolatingParam id="208" interp="linr"  time="-9999999/1" value="1" leadInLength="0/1"  />
             </VectorParam>
             <VectorParam id="209"  name="anchor">
              <InterpolatingParam id="210" interp="linr"  time="0/1" value="0" leadInLength="0/1"  />
              <InterpolatingParam id="211" interp="linr"  time="0/1" value="0" leadInLength="0/1"  />
              <InterpolatingParam id="212" interp="linr"  time="0/1" value="0" leadInLength="0/1"  />
             </VectorParam>
            </Transformer>
            <Parameters>
             <VectorParam id="213"  name="sourceCrop">
              <InterpolatingParam id="214" interp="linr"  time="0/1" value="0" leadInLength="0/1"  />
              <InterpolatingParam id="215" interp="linr"  time="0/1" value="0" leadInLength="0/1"  />
              <InterpolatingParam id="216" interp="linr"  time="0/1" value="0" leadInLength="0/1"  />
              <InterpolatingParam id="217" interp="linr"  time="0/1" value="0" leadInLength="0/1"  />
             </VectorParam>
             <VectorParam id="218"  name="geometryCrop">
              <InterpolatingParam id="219" interp="linr"  time="-9999999/1" value="0" leadInLength="0/1"  />
              <InterpolatingParam id="220" interp="linr"  time="-9999999/1" value="0" leadInLength="0/1"  />
              <InterpolatingParam id="221" interp="linr"  time="-9999999/1" value="0" leadInLength="0/1"  />
              <InterpolatingParam id="222" interp="linr"  time="-9999999/1" value="0" leadInLength="0/1"  />
             </VectorParam>
             <InterpolatingParam id="223" interp="linr"  time="-9999999/1" value="1" leadInLength="0/1"  name="opacity"/>
             <InterpolatingParam id="224" interp="linr"  time="0/1" value="0" leadInLength="0/1"  name="cursorOpacity"/>
             <InterpolatingParam id="225" interp="linr"  time="0/1" value="0" leadInLength="0/1"  name="cursorScale"/>
            </Parameters>
            <Attributes>
             <Attribute id="226" value="" name="ident"/>
            </Attributes>
            <MetaData>
             <entry key="AutoAppliedSmartFocus" val="False"/>
             <entry key="WinSubProjectDisplayName" val=""/>
            </MetaData>
            <ExtraData>
             <Entry key="ZoomPanBin">
              <ZoomPanBin id="227"  >
               <ZoomPanKeyframes>
                <ZoomPanKeyframe id="228" timeRangeEnd="-9999999/1" timeRangeDuration="0/1" interpolaterName=""  />
               </ZoomPanKeyframes>
              </ZoomPanBin>
             </Entry>
             <Entry key="CursorEffectBin">
              <CursorEffectBin id="229"  >
               <CursorEffectKeyframes>
               </CursorEffectKeyframes>
              </CursorEffectBin>
             </Entry>
            </ExtraData>
           </ScreenVMFile>
           <ScreenVMFile id="230" start="6695" duration="138" scalar="1/1" mediaStart="6732/1" mediaDuration="138/1" trackNumber="0" src="8" >
            <Transformer>
             <VectorParam id="231"  name="translation">
              <InterpolatingParam id="232" interp="linr"  time="-9999999/1" value="0" leadInLength="0/1"  />
              <InterpolatingParam id="233" interp="linr"  time="-9999999/1" value="0" leadInLength="0/1"  />
              <InterpolatingParam id="234" interp="linr"  time="-9999999/1" value="0" leadInLength="0/1"  />
             </VectorParam>
             <VectorParam id="235"  name="rotation">
              <InterpolatingParam id="236" interp="linr"  time="-9999999/1" value="0" leadInLength="0/1"  />
              <InterpolatingParam id="237" interp="linr"  time="-9999999/1" value="0" leadInLength="0/1"  />
              <InterpolatingParam id="238" interp="linr"  time="-9999999/1" value="0" leadInLength="0/1"  />
             </VectorParam>
             <VectorParam id="239"  name="shear">
              <InterpolatingParam id="240" interp="linr"  time="-9999999/1" value="0" leadInLength="0/1"  />
              <InterpolatingParam id="241" interp="linr"  time="-9999999/1" value="0" leadInLength="0/1"  />
              <InterpolatingParam id="242" interp="linr"  time="-9999999/1" value="0" leadInLength="0/1"  />
             </VectorParam>
             <VectorParam id="243"  name="scale">
              <InterpolatingParam id="244" interp="linr"  time="-9999999/1" value="1" leadInLength="0/1"  />
              <InterpolatingParam id="245" interp="linr"  time="-9999999/1" value="1" leadInLength="0/1"  />
              <InterpolatingParam id="246" interp="linr"  time="-9999999/1" value="1" leadInLength="0/1"  />
             </VectorParam>
             <VectorParam id="247"  name="anchor">
              <InterpolatingParam id="248" interp="linr"  time="0/1" value="0" leadInLength="0/1"  />
              <InterpolatingParam id="249" interp="linr"  time="0/1" value="0" leadInLength="0/1"  />
              <InterpolatingParam id="250" interp="linr"  time="0/1" value="0" leadInLength="0/1"  />
             </VectorParam>
            </Transformer>
            <Parameters>
             <VectorParam id="251"  name="sourceCrop">
              <InterpolatingParam id="252" interp="linr"  time="0/1" value="0" leadInLength="0/1"  />
              <InterpolatingParam id="253" interp="linr"  time="0/1" value="0" leadInLength="0/1"  />
              <InterpolatingParam id="254" interp="linr"  time="0/1" value="0" leadInLength="0/1"  />
              <InterpolatingParam id="255" interp="linr"  time="0/1" value="0" leadInLength="0/1"  />
             </VectorParam>
             <VectorParam id="256"  name="geometryCrop">
              <InterpolatingParam id="257" interp="linr"  time="-9999999/1" value="0" leadInLength="0/1"  />
              <InterpolatingParam id="258" interp="linr"  time="-9999999/1" value="0" leadInLength="0/1"  />
              <InterpolatingParam id="259" interp="linr"  time="-9999999/1" value="0" leadInLength="0/1"  />
              <InterpolatingParam id="260" interp="linr"  time="-9999999/1" value="0" leadInLength="0/1"  />
             </VectorParam>
             <InterpolatingParam id="261" interp="linr"  time="-9999999/1" value="1" leadInLength="0/1"  name="opacity"/>
             <InterpolatingParam id="262" interp="linr"  time="0/1" value="0" leadInLength="0/1"  name="cursorOpacity"/>
             <InterpolatingParam id="263" interp="linr"  time="0/1" value="0" leadInLength="0/1"  name="cursorScale"/>
            </Parameters>
            <Attributes>
             <Attribute id="264" value="" name="ident"/>
            </Attributes>
            <MetaData>
             <entry key="AutoAppliedSmartFocus" val="False"/>
             <entry key="WinSubProjectDisplayName" val=""/>
            </MetaData>
            <ExtraData>
             <Entry key="ZoomPanBin">
              <ZoomPanBin id="265"  >
               <ZoomPanKeyframes>
                <ZoomPanKeyframe id="266" timeRangeEnd="-9999999/1" timeRangeDuration="0/1" interpolaterName=""  />
               </ZoomPanKeyframes>
              </ZoomPanBin>
             </Entry>
             <Entry key="CursorEffectBin">
              <CursorEffectBin id="267"  >
               <CursorEffectKeyframes>
               </CursorEffectKeyframes>
              </CursorEffectBin>
             </Entry>
            </ExtraData>
           </ScreenVMFile>
           <ScreenVMFile id="268" start="6833" duration="136" scalar="1/1" mediaStart="6880/1" mediaDuration="136/1" trackNumber="0" src="8" >
            <Transformer>
             <VectorParam id="269"  name="translation">
              <InterpolatingParam id="270" interp="linr"  time="-9999999/1" value="0" leadInLength="0/1"  />
              <InterpolatingParam id="271" interp="linr"  time="-9999999/1" value="0" leadInLength="0/1"  />
              <InterpolatingParam id="272" interp="linr"  time="-9999999/1" value="0" leadInLength="0/1"  />
             </VectorParam>
             <VectorParam id="273"  name="rotation">
              <InterpolatingParam id="274" interp="linr"  time="-9999999/1" value="0" leadInLength="0/1"  />
              <InterpolatingParam id="275" interp="linr"  time="-9999999/1" value="0" leadInLength="0/1"  />
              <InterpolatingParam id="276" interp="linr"  time="-9999999/1" value="0" leadInLength="0/1"  />
             </VectorParam>
             <VectorParam id="277"  name="shear">
              <InterpolatingParam id="278" interp="linr"  time="-9999999/1" value="0" leadInLength="0/1"  />
              <InterpolatingParam id="279" interp="linr"  time="-9999999/1" value="0" leadInLength="0/1"  />
              <InterpolatingParam id="280" interp="linr"  time="-9999999/1" value="0" leadInLength="0/1"  />
             </VectorParam>
             <VectorParam id="281"  name="scale">
              <InterpolatingParam id="282" interp="linr"  time="-9999999/1" value="1" leadInLength="0/1"  />
              <InterpolatingParam id="283" interp="linr"  time="-9999999/1" value="1" leadInLength="0/1"  />
              <InterpolatingParam id="284" interp="linr"  time="-9999999/1" value="1" leadInLength="0/1"  />
             </VectorParam>
             <VectorParam id="285"  name="anchor">
              <InterpolatingParam id="286" interp="linr"  time="0/1" value="0" leadInLength="0/1"  />
              <InterpolatingParam id="287" interp="linr"  time="0/1" value="0" leadInLength="0/1"  />
              <InterpolatingParam id="288" interp="linr"  time="0/1" value="0" leadInLength="0/1"  />
             </VectorParam>
            </Transformer>
            <Parameters>
             <VectorParam id="289"  name="sourceCrop">
              <InterpolatingParam id="290" interp="linr"  time="0/1" value="0" leadInLength="0/1"  />
              <InterpolatingParam id="291" interp="linr"  time="0/1" value="0" leadInLength="0/1"  />
              <InterpolatingParam id="292" interp="linr"  time="0/1" value="0" leadInLength="0/1"  />
              <InterpolatingParam id="293" interp="linr"  time="0/1" value="0" leadInLength="0/1"  />
             </VectorParam>
             <VectorParam id="294"  name="geometryCrop">
              <InterpolatingParam id="295" interp="linr"  time="-9999999/1" value="0" leadInLength="0/1"  />
              <InterpolatingParam id="296" interp="linr"  time="-9999999/1" value="0" leadInLength="0/1"  />
              <InterpolatingParam id="297" interp="linr"  time="-9999999/1" value="0" leadInLength="0/1"  />
              <InterpolatingParam id="298" interp="linr"  time="-9999999/1" value="0" leadInLength="0/1"  />
             </VectorParam>
             <InterpolatingParam id="299" interp="linr"  time="-9999999/1" value="1" leadInLength="0/1"  name="opacity"/>
             <InterpolatingParam id="300" interp="linr"  time="0/1" value="0" leadInLength="0/1"  name="cursorOpacity"/>
             <InterpolatingParam id="301" interp="linr"  time="0/1" value="0" leadInLength="0/1"  name="cursorScale"/>
            </Parameters>
            <Attributes>
             <Attribute id="302" value="" name="ident"/>
            </Attributes>
            <MetaData>
             <entry key="AutoAppliedSmartFocus" val="False"/>
             <entry key="WinSubProjectDisplayName" val=""/>
            </MetaData>
            <ExtraData>
             <Entry key="ZoomPanBin">
              <ZoomPanBin id="303"  >
               <ZoomPanKeyframes>
                <ZoomPanKeyframe id="304" timeRangeEnd="-9999999/1" timeRangeDuration="0/1" interpolaterName=""  />
               </ZoomPanKeyframes>
              </ZoomPanBin>
             </Entry>
             <Entry key="CursorEffectBin">
              <CursorEffectBin id="305"  >
               <CursorEffectKeyframes>
               </CursorEffectKeyframes>
              </CursorEffectBin>
             </Entry>
            </ExtraData>
           </ScreenVMFile>
           <ScreenVMFile id="306" start="6969" duration="54" scalar="1/1" mediaStart="9661/1" mediaDuration="54/1" trackNumber="0" src="8" >
            <Transformer>
             <VectorParam id="307"  name="translation">
              <InterpolatingParam id="308" interp="linr"  time="-9999999/1" value="0" leadInLength="0/1"  />
              <InterpolatingParam id="309" interp="linr"  time="-9999999/1" value="0" leadInLength="0/1"  />
              <InterpolatingParam id="310" interp="linr"  time="-9999999/1" value="0" leadInLength="0/1"  />
             </VectorParam>
             <VectorParam id="311"  name="rotation">
              <InterpolatingParam id="312" interp="linr"  time="-9999999/1" value="0" leadInLength="0/1"  />
              <InterpolatingParam id="313" interp="linr"  time="-9999999/1" value="0" leadInLength="0/1"  />
              <InterpolatingParam id="314" interp="linr"  time="-9999999/1" value="0" leadInLength="0/1"  />
             </VectorParam>
             <VectorParam id="315"  name="shear">
              <InterpolatingParam id="316" interp="linr"  time="-9999999/1" value="0" leadInLength="0/1"  />
              <InterpolatingParam id="317" interp="linr"  time="-9999999/1" value="0" leadInLength="0/1"  />
              <InterpolatingParam id="318" interp="linr"  time="-9999999/1" value="0" leadInLength="0/1"  />
             </VectorParam>
             <VectorParam id="319"  name="scale">
              <InterpolatingParam id="320" interp="linr"  time="-9999999/1" value="1" leadInLength="0/1"  />
              <InterpolatingParam id="321" interp="linr"  time="-9999999/1" value="1" leadInLength="0/1"  />
              <InterpolatingParam id="322" interp="linr"  time="-9999999/1" value="1" leadInLength="0/1"  />
             </VectorParam>
             <VectorParam id="323"  name="anchor">
              <InterpolatingParam id="324" interp="linr"  time="0/1" value="0" leadInLength="0/1"  />
              <InterpolatingParam id="325" interp="linr"  time="0/1" value="0" leadInLength="0/1"  />
              <InterpolatingParam id="326" interp="linr"  time="0/1" value="0" leadInLength="0/1"  />
             </VectorParam>
            </Transformer>
            <Parameters>
             <VectorParam id="327"  name="sourceCrop">
              <InterpolatingParam id="328" interp="linr"  time="0/1" value="0" leadInLength="0/1"  />
              <InterpolatingParam id="329" interp="linr"  time="0/1" value="0" leadInLength="0/1"  />
              <InterpolatingParam id="330" interp="linr"  time="0/1" value="0" leadInLength="0/1"  />
              <InterpolatingParam id="331" interp="linr"  time="0/1" value="0" leadInLength="0/1"  />
             </VectorParam>
             <VectorParam id="332"  name="geometryCrop">
              <InterpolatingParam id="333" interp="linr"  time="-9999999/1" value="0" leadInLength="0/1"  />
              <InterpolatingParam id="334" interp="linr"  time="-9999999/1" value="0" leadInLength="0/1"  />
              <InterpolatingParam id="335" interp="linr"  time="-9999999/1" value="0" leadInLength="0/1"  />
              <InterpolatingParam id="336" interp="linr"  time="-9999999/1" value="0" leadInLength="0/1"  />
             </VectorParam>
             <InterpolatingParam id="337" interp="linr"  time="-9999999/1" value="1" leadInLength="0/1"  name="opacity"/>
             <InterpolatingParam id="338" interp="linr"  time="0/1" value="0" leadInLength="0/1"  name="cursorOpacity"/>
             <InterpolatingParam id="339" interp="linr"  time="0/1" value="0" leadInLength="0/1"  name="cursorScale"/>
            </Parameters>
            <Attributes>
             <Attribute id="340" value="" name="ident"/>
            </Attributes>
            <MetaData>
             <entry key="AutoAppliedSmartFocus" val="False"/>
             <entry key="WinSubProjectDisplayName" val=""/>
            </MetaData>
            <ExtraData>
             <Entry key="ZoomPanBin">
              <ZoomPanBin id="341"  >
               <ZoomPanKeyframes>
                <ZoomPanKeyframe id="342" timeRangeEnd="-9999999/1" timeRangeDuration="0/1" interpolaterName=""  />
               </ZoomPanKeyframes>
              </ZoomPanBin>
             </Entry>
             <Entry key="CursorEffectBin">
              <CursorEffectBin id="343"  >
               <CursorEffectKeyframes>
               </CursorEffectKeyframes>
              </CursorEffectBin>
             </Entry>
            </ExtraData>
           </ScreenVMFile>
           <ScreenVMFile id="344" start="7023" duration="90" scalar="1/1" mediaStart="9720/1" mediaDuration="90/1" trackNumber="0" src="8" >
            <Transformer>
             <VectorParam id="345"  name="translation">
              <InterpolatingParam id="346" interp="linr"  time="-9999999/1" value="0" leadInLength="0/1"  />
              <InterpolatingParam id="347" interp="linr"  time="-9999999/1" value="0" leadInLength="0/1"  />
              <InterpolatingParam id="348" interp="linr"  time="-9999999/1" value="0" leadInLength="0/1"  />
             </VectorParam>
             <VectorParam id="349"  name="rotation">
              <InterpolatingParam id="350" interp="linr"  time="-9999999/1" value="0" leadInLength="0/1"  />
              <InterpolatingParam id="351" interp="linr"  time="-9999999/1" value="0" leadInLength="0/1"  />
              <InterpolatingParam id="352" interp="linr"  time="-9999999/1" value="0" leadInLength="0/1"  />
             </VectorParam>
             <VectorParam id="353"  name="shear">
              <InterpolatingParam id="354" interp="linr"  time="-9999999/1" value="0" leadInLength="0/1"  />
              <InterpolatingParam id="355" interp="linr"  time="-9999999/1" value="0" leadInLength="0/1"  />
              <InterpolatingParam id="356" interp="linr"  time="-9999999/1" value="0" leadInLength="0/1"  />
             </VectorParam>
             <VectorParam id="357"  name="scale">
              <InterpolatingParam id="358" interp="linr"  time="-9999999/1" value="1" leadInLength="0/1"  />
              <InterpolatingParam id="359" interp="linr"  time="-9999999/1" value="1" leadInLength="0/1"  />
              <InterpolatingParam id="360" interp="linr"  time="-9999999/1" value="1" leadInLength="0/1"  />
             </VectorParam>
             <VectorParam id="361"  name="anchor">
              <InterpolatingParam id="362" interp="linr"  time="0/1" value="0" leadInLength="0/1"  />
              <InterpolatingParam id="363" interp="linr"  time="0/1" value="0" leadInLength="0/1"  />
              <InterpolatingParam id="364" interp="linr"  time="0/1" value="0" leadInLength="0/1"  />
             </VectorParam>
            </Transformer>
            <Parameters>
             <VectorParam id="365"  name="sourceCrop">
              <InterpolatingParam id="366" interp="linr"  time="0/1" value="0" leadInLength="0/1"  />
              <InterpolatingParam id="367" interp="linr"  time="0/1" value="0" leadInLength="0/1"  />
              <InterpolatingParam id="368" interp="linr"  time="0/1" value="0" leadInLength="0/1"  />
              <InterpolatingParam id="369" interp="linr"  time="0/1" value="0" leadInLength="0/1"  />
             </VectorParam>
             <VectorParam id="370"  name="geometryCrop">
              <InterpolatingParam id="371" interp="linr"  time="-9999999/1" value="0" leadInLength="0/1"  />
              <InterpolatingParam id="372" interp="linr"  time="-9999999/1" value="0" leadInLength="0/1"  />
              <InterpolatingParam id="373" interp="linr"  time="-9999999/1" value="0" leadInLength="0/1"  />
              <InterpolatingParam id="374" interp="linr"  time="-9999999/1" value="0" leadInLength="0/1"  />
             </VectorParam>
             <InterpolatingParam id="375" interp="linr"  time="-9999999/1" value="1" leadInLength="0/1"  name="opacity"/>
             <InterpolatingParam id="376" interp="linr"  time="0/1" value="0" leadInLength="0/1"  name="cursorOpacity"/>
             <InterpolatingParam id="377" interp="linr"  time="0/1" value="0" leadInLength="0/1"  name="cursorScale"/>
            </Parameters>
            <Attributes>
             <Attribute id="378" value="" name="ident"/>
            </Attributes>
            <MetaData>
             <entry key="AutoAppliedSmartFocus" val="False"/>
             <entry key="WinSubProjectDisplayName" val=""/>
            </MetaData>
            <ExtraData>
             <Entry key="ZoomPanBin">
              <ZoomPanBin id="379"  >
               <ZoomPanKeyframes>
                <ZoomPanKeyframe id="380" timeRangeEnd="-9999999/1" timeRangeDuration="0/1" interpolaterName=""  />
               </ZoomPanKeyframes>
              </ZoomPanBin>
             </Entry>
             <Entry key="CursorEffectBin">
              <CursorEffectBin id="381"  >
               <CursorEffectKeyframes>
               </CursorEffectKeyframes>
              </CursorEffectBin>
             </Entry>
            </ExtraData>
           </ScreenVMFile>
           <ScreenVMFile id="382" start="7113" duration="88" scalar="1/1" mediaStart="9824/1" mediaDuration="88/1" trackNumber="0" src="8" >
            <Transformer>
             <VectorParam id="383"  name="translation">
              <InterpolatingParam id="384" interp="linr"  time="-9999999/1" value="0" leadInLength="0/1"  />
              <InterpolatingParam id="385" interp="linr"  time="-9999999/1" value="0" leadInLength="0/1"  />
              <InterpolatingParam id="386" interp="linr"  time="-9999999/1" value="0" leadInLength="0/1"  />
             </VectorParam>
             <VectorParam id="387"  name="rotation">
              <InterpolatingParam id="388" interp="linr"  time="-9999999/1" value="0" leadInLength="0/1"  />
              <InterpolatingParam id="389" interp="linr"  time="-9999999/1" value="0" leadInLength="0/1"  />
              <InterpolatingParam id="390" interp="linr"  time="-9999999/1" value="0" leadInLength="0/1"  />
             </VectorParam>
             <VectorParam id="391"  name="shear">
              <InterpolatingParam id="392" interp="linr"  time="-9999999/1" value="0" leadInLength="0/1"  />
              <InterpolatingParam id="393" interp="linr"  time="-9999999/1" value="0" leadInLength="0/1"  />
              <InterpolatingParam id="394" interp="linr"  time="-9999999/1" value="0" leadInLength="0/1"  />
             </VectorParam>
             <VectorParam id="395"  name="scale">
              <InterpolatingParam id="396" interp="linr"  time="-9999999/1" value="1" leadInLength="0/1"  />
              <InterpolatingParam id="397" interp="linr"  time="-9999999/1" value="1" leadInLength="0/1"  />
              <InterpolatingParam id="398" interp="linr"  time="-9999999/1" value="1" leadInLength="0/1"  />
             </VectorParam>
             <VectorParam id="399"  name="anchor">
              <InterpolatingParam id="400" interp="linr"  time="0/1" value="0" leadInLength="0/1"  />
              <InterpolatingParam id="401" interp="linr"  time="0/1" value="0" leadInLength="0/1"  />
              <InterpolatingParam id="402" interp="linr"  time="0/1" value="0" leadInLength="0/1"  />
             </VectorParam>
            </Transformer>
            <Parameters>
             <VectorParam id="403"  name="sourceCrop">
              <InterpolatingParam id="404" interp="linr"  time="0/1" value="0" leadInLength="0/1"  />
              <InterpolatingParam id="405" interp="linr"  time="0/1" value="0" leadInLength="0/1"  />
              <InterpolatingParam id="406" interp="linr"  time="0/1" value="0" leadInLength="0/1"  />
              <InterpolatingParam id="407" interp="linr"  time="0/1" value="0" leadInLength="0/1"  />
             </VectorParam>
             <VectorParam id="408"  name="geometryCrop">
              <InterpolatingParam id="409" interp="linr"  time="-9999999/1" value="0" leadInLength="0/1"  />
              <InterpolatingParam id="410" interp="linr"  time="-9999999/1" value="0" leadInLength="0/1"  />
              <InterpolatingParam id="411" interp="linr"  time="-9999999/1" value="0" leadInLength="0/1"  />
              <InterpolatingParam id="412" interp="linr"  time="-9999999/1" value="0" leadInLength="0/1"  />
             </VectorParam>
             <InterpolatingParam id="413" interp="linr"  time="-9999999/1" value="1" leadInLength="0/1"  name="opacity"/>
             <InterpolatingParam id="414" interp="linr"  time="0/1" value="0" leadInLength="0/1"  name="cursorOpacity"/>
             <InterpolatingParam id="415" interp="linr"  time="0/1" value="0" leadInLength="0/1"  name="cursorScale"/>
            </Parameters>
            <Attributes>
             <Attribute id="416" value="" name="ident"/>
            </Attributes>
            <MetaData>
             <entry key="AutoAppliedSmartFocus" val="False"/>
             <entry key="WinSubProjectDisplayName" val=""/>
            </MetaData>
            <ExtraData>
             <Entry key="ZoomPanBin">
              <ZoomPanBin id="417"  >
               <ZoomPanKeyframes>
                <ZoomPanKeyframe id="418" timeRangeEnd="-9999999/1" timeRangeDuration="0/1" interpolaterName=""  />
               </ZoomPanKeyframes>
              </ZoomPanBin>
             </Entry>
             <Entry key="CursorEffectBin">
              <CursorEffectBin id="419"  >
               <CursorEffectKeyframes>
               </CursorEffectKeyframes>
              </CursorEffectBin>
             </Entry>
            </ExtraData>
           </ScreenVMFile>
           <ScreenVMFile id="420" start="7201" duration="163" scalar="1/1" mediaStart="9930/1" mediaDuration="163/1" trackNumber="0" src="8" >
            <Transformer>
             <VectorParam id="421"  name="translation">
              <InterpolatingParam id="422" interp="linr"  time="-9999999/1" value="0" leadInLength="0/1"  />
              <InterpolatingParam id="423" interp="linr"  time="-9999999/1" value="0" leadInLength="0/1"  />
              <InterpolatingParam id="424" interp="linr"  time="-9999999/1" value="0" leadInLength="0/1"  />
             </VectorParam>
             <VectorParam id="425"  name="rotation">
              <InterpolatingParam id="426" interp="linr"  time="-9999999/1" value="0" leadInLength="0/1"  />
              <InterpolatingParam id="427" interp="linr"  time="-9999999/1" value="0" leadInLength="0/1"  />
              <InterpolatingParam id="428" interp="linr"  time="-9999999/1" value="0" leadInLength="0/1"  />
             </VectorParam>
             <VectorParam id="429"  name="shear">
              <InterpolatingParam id="430" interp="linr"  time="-9999999/1" value="0" leadInLength="0/1"  />
              <InterpolatingParam id="431" interp="linr"  time="-9999999/1" value="0" leadInLength="0/1"  />
              <InterpolatingParam id="432" interp="linr"  time="-9999999/1" value="0" leadInLength="0/1"  />
             </VectorParam>
             <VectorParam id="433"  name="scale">
              <InterpolatingParam id="434" interp="linr"  time="-9999999/1" value="1" leadInLength="0/1"  />
              <InterpolatingParam id="435" interp="linr"  time="-9999999/1" value="1" leadInLength="0/1"  />
              <InterpolatingParam id="436" interp="linr"  time="-9999999/1" value="1" leadInLength="0/1"  />
             </VectorParam>
             <VectorParam id="437"  name="anchor">
              <InterpolatingParam id="438" interp="linr"  time="0/1" value="0" leadInLength="0/1"  />
              <InterpolatingParam id="439" interp="linr"  time="0/1" value="0" leadInLength="0/1"  />
              <InterpolatingParam id="440" interp="linr"  time="0/1" value="0" leadInLength="0/1"  />
             </VectorParam>
            </Transformer>
            <Parameters>
             <VectorParam id="441"  name="sourceCrop">
              <InterpolatingParam id="442" interp="linr"  time="0/1" value="0" leadInLength="0/1"  />
              <InterpolatingParam id="443" interp="linr"  time="0/1" value="0" leadInLength="0/1"  />
              <InterpolatingParam id="444" interp="linr"  time="0/1" value="0" leadInLength="0/1"  />
              <InterpolatingParam id="445" interp="linr"  time="0/1" value="0" leadInLength="0/1"  />
             </VectorParam>
             <VectorParam id="446"  name="geometryCrop">
              <InterpolatingParam id="447" interp="linr"  time="-9999999/1" value="0" leadInLength="0/1"  />
              <InterpolatingParam id="448" interp="linr"  time="-9999999/1" value="0" leadInLength="0/1"  />
              <InterpolatingParam id="449" interp="linr"  time="-9999999/1" value="0" leadInLength="0/1"  />
              <InterpolatingParam id="450" interp="linr"  time="-9999999/1" value="0" leadInLength="0/1"  />
             </VectorParam>
             <InterpolatingParam id="451" interp="linr"  time="-9999999/1" value="1" leadInLength="0/1"  name="opacity"/>
             <InterpolatingParam id="452" interp="linr"  time="0/1" value="0" leadInLength="0/1"  name="cursorOpacity"/>
             <InterpolatingParam id="453" interp="linr"  time="0/1" value="0" leadInLength="0/1"  name="cursorScale"/>
            </Parameters>
            <Attributes>
             <Attribute id="454" value="" name="ident"/>
            </Attributes>
            <MetaData>
             <entry key="AutoAppliedSmartFocus" val="False"/>
             <entry key="WinSubProjectDisplayName" val=""/>
            </MetaData>
            <ExtraData>
             <Entry key="ZoomPanBin">
              <ZoomPanBin id="455"  >
               <ZoomPanKeyframes>
                <ZoomPanKeyframe id="456" timeRangeEnd="-9999999/1" timeRangeDuration="0/1" interpolaterName=""  />
               </ZoomPanKeyframes>
              </ZoomPanBin>
             </Entry>
             <Entry key="CursorEffectBin">
              <CursorEffectBin id="457"  >
               <CursorEffectKeyframes>
               </CursorEffectKeyframes>
              </CursorEffectBin>
             </Entry>
            </ExtraData>
           </ScreenVMFile>
           <ScreenVMFile id="458" start="7364" duration="82" scalar="1/1" mediaStart="10099/1" mediaDuration="82/1" trackNumber="0" src="8" >
            <Transformer>
             <VectorParam id="459"  name="translation">
              <InterpolatingParam id="460" interp="linr"  time="-9999999/1" value="0" leadInLength="0/1"  />
              <InterpolatingParam id="461" interp="linr"  time="-9999999/1" value="0" leadInLength="0/1"  />
              <InterpolatingParam id="462" interp="linr"  time="-9999999/1" value="0" leadInLength="0/1"  />
             </VectorParam>
             <VectorParam id="463"  name="rotation">
              <InterpolatingParam id="464" interp="linr"  time="-9999999/1" value="0" leadInLength="0/1"  />
              <InterpolatingParam id="465" interp="linr"  time="-9999999/1" value="0" leadInLength="0/1"  />
              <InterpolatingParam id="466" interp="linr"  time="-9999999/1" value="0" leadInLength="0/1"  />
             </VectorParam>
             <VectorParam id="467"  name="shear">
              <InterpolatingParam id="468" interp="linr"  time="-9999999/1" value="0" leadInLength="0/1"  />
              <InterpolatingParam id="469" interp="linr"  time="-9999999/1" value="0" leadInLength="0/1"  />
              <InterpolatingParam id="470" interp="linr"  time="-9999999/1" value="0" leadInLength="0/1"  />
             </VectorParam>
             <VectorParam id="471"  name="scale">
              <InterpolatingParam id="472" interp="linr"  time="-9999999/1" value="1" leadInLength="0/1"  />
              <InterpolatingParam id="473" interp="linr"  time="-9999999/1" value="1" leadInLength="0/1"  />
              <InterpolatingParam id="474" interp="linr"  time="-9999999/1" value="1" leadInLength="0/1"  />
             </VectorParam>
             <VectorParam id="475"  name="anchor">
              <InterpolatingParam id="476" interp="linr"  time="0/1" value="0" leadInLength="0/1"  />
              <InterpolatingParam id="477" interp="linr"  time="0/1" value="0" leadInLength="0/1"  />
              <InterpolatingParam id="478" interp="linr"  time="0/1" value="0" leadInLength="0/1"  />
             </VectorParam>
            </Transformer>
            <Parameters>
             <VectorParam id="479"  name="sourceCrop">
              <InterpolatingParam id="480" interp="linr"  time="0/1" value="0" leadInLength="0/1"  />
              <InterpolatingParam id="481" interp="linr"  time="0/1" value="0" leadInLength="0/1"  />
              <InterpolatingParam id="482" interp="linr"  time="0/1" value="0" leadInLength="0/1"  />
              <InterpolatingParam id="483" interp="linr"  time="0/1" value="0" leadInLength="0/1"  />
             </VectorParam>
             <VectorParam id="484"  name="geometryCrop">
              <InterpolatingParam id="485" interp="linr"  time="-9999999/1" value="0" leadInLength="0/1"  />
              <InterpolatingParam id="486" interp="linr"  time="-9999999/1" value="0" leadInLength="0/1"  />
              <InterpolatingParam id="487" interp="linr"  time="-9999999/1" value="0" leadInLength="0/1"  />
              <InterpolatingParam id="488" interp="linr"  time="-9999999/1" value="0" leadInLength="0/1"  />
             </VectorParam>
             <InterpolatingParam id="489" interp="linr"  time="-9999999/1" value="1" leadInLength="0/1"  name="opacity"/>
             <InterpolatingParam id="490" interp="linr"  time="0/1" value="0" leadInLength="0/1"  name="cursorOpacity"/>
             <InterpolatingParam id="491" interp="linr"  time="0/1" value="0" leadInLength="0/1"  name="cursorScale"/>
            </Parameters>
            <Attributes>
             <Attribute id="492" value="" name="ident"/>
            </Attributes>
            <MetaData>
             <entry key="AutoAppliedSmartFocus" val="False"/>
             <entry key="WinSubProjectDisplayName" val=""/>
            </MetaData>
            <ExtraData>
             <Entry key="ZoomPanBin">
              <ZoomPanBin id="493"  >
               <ZoomPanKeyframes>
                <ZoomPanKeyframe id="494" timeRangeEnd="-9999999/1" timeRangeDuration="0/1" interpolaterName=""  />
               </ZoomPanKeyframes>
              </ZoomPanBin>
             </Entry>
             <Entry key="CursorEffectBin">
              <CursorEffectBin id="495"  >
               <CursorEffectKeyframes>
               </CursorEffectKeyframes>
              </CursorEffectBin>
             </Entry>
            </ExtraData>
           </ScreenVMFile>
           <ScreenVMFile id="496" start="7446" duration="103" scalar="1/1" mediaStart="10192/1" mediaDuration="103/1" trackNumber="0" src="8" >
            <Transformer>
             <VectorParam id="497"  name="translation">
              <InterpolatingParam id="498" interp="linr"  time="-9999999/1" value="0" leadInLength="0/1"  />
              <InterpolatingParam id="499" interp="linr"  time="-9999999/1" value="0" leadInLength="0/1"  />
              <InterpolatingParam id="500" interp="linr"  time="-9999999/1" value="0" leadInLength="0/1"  />
             </VectorParam>
             <VectorParam id="501"  name="rotation">
              <InterpolatingParam id="502" interp="linr"  time="-9999999/1" value="0" leadInLength="0/1"  />
              <InterpolatingParam id="503" interp="linr"  time="-9999999/1" value="0" leadInLength="0/1"  />
              <InterpolatingParam id="504" interp="linr"  time="-9999999/1" value="0" leadInLength="0/1"  />
             </VectorParam>
             <VectorParam id="505"  name="shear">
              <InterpolatingParam id="506" interp="linr"  time="-9999999/1" value="0" leadInLength="0/1"  />
              <InterpolatingParam id="507" interp="linr"  time="-9999999/1" value="0" leadInLength="0/1"  />
              <InterpolatingParam id="508" interp="linr"  time="-9999999/1" value="0" leadInLength="0/1"  />
             </VectorParam>
             <VectorParam id="509"  name="scale">
              <InterpolatingParam id="510" interp="linr"  time="-9999999/1" value="1" leadInLength="0/1"  />
              <InterpolatingParam id="511" interp="linr"  time="-9999999/1" value="1" leadInLength="0/1"  />
              <InterpolatingParam id="512" interp="linr"  time="-9999999/1" value="1" leadInLength="0/1"  />
             </VectorParam>
             <VectorParam id="513"  name="anchor">
              <InterpolatingParam id="514" interp="linr"  time="0/1" value="0" leadInLength="0/1"  />
              <InterpolatingParam id="515" interp="linr"  time="0/1" value="0" leadInLength="0/1"  />
              <InterpolatingParam id="516" interp="linr"  time="0/1" value="0" leadInLength="0/1"  />
             </VectorParam>
            </Transformer>
            <Parameters>
             <VectorParam id="517"  name="sourceCrop">
              <InterpolatingParam id="518" interp="linr"  time="0/1" value="0" leadInLength="0/1"  />
              <InterpolatingParam id="519" interp="linr"  time="0/1" value="0" leadInLength="0/1"  />
              <InterpolatingParam id="520" interp="linr"  time="0/1" value="0" leadInLength="0/1"  />
              <InterpolatingParam id="521" interp="linr"  time="0/1" value="0" leadInLength="0/1"  />
             </VectorParam>
             <VectorParam id="522"  name="geometryCrop">
              <InterpolatingParam id="523" interp="linr"  time="-9999999/1" value="0" leadInLength="0/1"  />
              <InterpolatingParam id="524" interp="linr"  time="-9999999/1" value="0" leadInLength="0/1"  />
              <InterpolatingParam id="525" interp="linr"  time="-9999999/1" value="0" leadInLength="0/1"  />
              <InterpolatingParam id="526" interp="linr"  time="-9999999/1" value="0" leadInLength="0/1"  />
             </VectorParam>
             <InterpolatingParam id="527" interp="linr"  time="-9999999/1" value="1" leadInLength="0/1"  name="opacity"/>
             <InterpolatingParam id="528" interp="linr"  time="0/1" value="0" leadInLength="0/1"  name="cursorOpacity"/>
             <InterpolatingParam id="529" interp="linr"  time="0/1" value="0" leadInLength="0/1"  name="cursorScale"/>
            </Parameters>
            <Attributes>
             <Attribute id="530" value="" name="ident"/>
            </Attributes>
            <MetaData>
             <entry key="AutoAppliedSmartFocus" val="False"/>
             <entry key="WinSubProjectDisplayName" val=""/>
            </MetaData>
            <ExtraData>
             <Entry key="ZoomPanBin">
              <ZoomPanBin id="531"  >
               <ZoomPanKeyframes>
                <ZoomPanKeyframe id="532" timeRangeEnd="-9999999/1" timeRangeDuration="0/1" interpolaterName=""  />
               </ZoomPanKeyframes>
              </ZoomPanBin>
             </Entry>
             <Entry key="CursorEffectBin">
              <CursorEffectBin id="533"  >
               <CursorEffectKeyframes>
               </CursorEffectKeyframes>
              </CursorEffectBin>
             </Entry>
            </ExtraData>
           </ScreenVMFile>
           <ScreenVMFile id="534" start="7549" duration="42" scalar="1/1" mediaStart="10303/1" mediaDuration="42/1" trackNumber="0" src="8" >
            <Transformer>
             <VectorParam id="535"  name="translation">
              <InterpolatingParam id="536" interp="linr"  time="-9999999/1" value="0" leadInLength="0/1"  />
              <InterpolatingParam id="537" interp="linr"  time="-9999999/1" value="0" leadInLength="0/1"  />
              <InterpolatingParam id="538" interp="linr"  time="-9999999/1" value="0" leadInLength="0/1"  />
             </VectorParam>
             <VectorParam id="539"  name="rotation">
              <InterpolatingParam id="540" interp="linr"  time="-9999999/1" value="0" leadInLength="0/1"  />
              <InterpolatingParam id="541" interp="linr"  time="-9999999/1" value="0" leadInLength="0/1"  />
              <InterpolatingParam id="542" interp="linr"  time="-9999999/1" value="0" leadInLength="0/1"  />
             </VectorParam>
             <VectorParam id="543"  name="shear">
              <InterpolatingParam id="544" interp="linr"  time="-9999999/1" value="0" leadInLength="0/1"  />
              <InterpolatingParam id="545" interp="linr"  time="-9999999/1" value="0" leadInLength="0/1"  />
              <InterpolatingParam id="546" interp="linr"  time="-9999999/1" value="0" leadInLength="0/1"  />
             </VectorParam>
             <VectorParam id="547"  name="scale">
              <InterpolatingParam id="548" interp="linr"  time="-9999999/1" value="1" leadInLength="0/1"  />
              <InterpolatingParam id="549" interp="linr"  time="-9999999/1" value="1" leadInLength="0/1"  />
              <InterpolatingParam id="550" interp="linr"  time="-9999999/1" value="1" leadInLength="0/1"  />
             </VectorParam>
             <VectorParam id="551"  name="anchor">
              <InterpolatingParam id="552" interp="linr"  time="0/1" value="0" leadInLength="0/1"  />
              <InterpolatingParam id="553" interp="linr"  time="0/1" value="0" leadInLength="0/1"  />
              <InterpolatingParam id="554" interp="linr"  time="0/1" value="0" leadInLength="0/1"  />
             </VectorParam>
            </Transformer>
            <Parameters>
             <VectorParam id="555"  name="sourceCrop">
              <InterpolatingParam id="556" interp="linr"  time="0/1" value="0" leadInLength="0/1"  />
              <InterpolatingParam id="557" interp="linr"  time="0/1" value="0" leadInLength="0/1"  />
              <InterpolatingParam id="558" interp="linr"  time="0/1" value="0" leadInLength="0/1"  />
              <InterpolatingParam id="559" interp="linr"  time="0/1" value="0" leadInLength="0/1"  />
             </VectorParam>
             <VectorParam id="560"  name="geometryCrop">
              <InterpolatingParam id="561" interp="linr"  time="-9999999/1" value="0" leadInLength="0/1"  />
              <InterpolatingParam id="562" interp="linr"  time="-9999999/1" value="0" leadInLength="0/1"  />
              <InterpolatingParam id="563" interp="linr"  time="-9999999/1" value="0" leadInLength="0/1"  />
              <InterpolatingParam id="564" interp="linr"  time="-9999999/1" value="0" leadInLength="0/1"  />
             </VectorParam>
             <InterpolatingParam id="565" interp="linr"  time="-9999999/1" value="1" leadInLength="0/1"  name="opacity"/>
             <InterpolatingParam id="566" interp="linr"  time="0/1" value="0" leadInLength="0/1"  name="cursorOpacity"/>
             <InterpolatingParam id="567" interp="linr"  time="0/1" value="0" leadInLength="0/1"  name="cursorScale"/>
            </Parameters>
            <Attributes>
             <Attribute id="568" value="" name="ident"/>
            </Attributes>
            <MetaData>
             <entry key="AutoAppliedSmartFocus" val="False"/>
             <entry key="WinSubProjectDisplayName" val=""/>
            </MetaData>
            <ExtraData>
             <Entry key="ZoomPanBin">
              <ZoomPanBin id="569"  >
               <ZoomPanKeyframes>
                <ZoomPanKeyframe id="570" timeRangeEnd="-9999999/1" timeRangeDuration="0/1" interpolaterName=""  />
               </ZoomPanKeyframes>
              </ZoomPanBin>
             </Entry>
             <Entry key="CursorEffectBin">
              <CursorEffectBin id="571"  >
               <CursorEffectKeyframes>
               </CursorEffectKeyframes>
              </CursorEffectBin>
             </Entry>
            </ExtraData>
           </ScreenVMFile>
           <ScreenVMFile id="572" start="7591" duration="3733" scalar="1/1" mediaStart="10433/1" mediaDuration="3733/1" trackNumber="0" src="8" >
            <Transformer>
             <VectorParam id="573"  name="translation">
              <InterpolatingParam id="574" interp="linr"  time="-9999999/1" value="0" leadInLength="0/1"  />
              <InterpolatingParam id="575" interp="linr"  time="-9999999/1" value="0" leadInLength="0/1"  />
              <InterpolatingParam id="576" interp="linr"  time="-9999999/1" value="0" leadInLength="0/1"  />
             </VectorParam>
             <VectorParam id="577"  name="rotation">
              <InterpolatingParam id="578" interp="linr"  time="-9999999/1" value="0" leadInLength="0/1"  />
              <InterpolatingParam id="579" interp="linr"  time="-9999999/1" value="0" leadInLength="0/1"  />
              <InterpolatingParam id="580" interp="linr"  time="-9999999/1" value="0" leadInLength="0/1"  />
             </VectorParam>
             <VectorParam id="581"  name="shear">
              <InterpolatingParam id="582" interp="linr"  time="-9999999/1" value="0" leadInLength="0/1"  />
              <InterpolatingParam id="583" interp="linr"  time="-9999999/1" value="0" leadInLength="0/1"  />
              <InterpolatingParam id="584" interp="linr"  time="-9999999/1" value="0" leadInLength="0/1"  />
             </VectorParam>
             <VectorParam id="585"  name="scale">
              <InterpolatingParam id="586" interp="linr"  time="-9999999/1" value="1" leadInLength="0/1"  />
              <InterpolatingParam id="587" interp="linr"  time="-9999999/1" value="1" leadInLength="0/1"  />
              <InterpolatingParam id="588" interp="linr"  time="-9999999/1" value="1" leadInLength="0/1"  />
             </VectorParam>
             <VectorParam id="589"  name="anchor">
              <InterpolatingParam id="590" interp="linr"  time="0/1" value="0" leadInLength="0/1"  />
              <InterpolatingParam id="591" interp="linr"  time="0/1" value="0" leadInLength="0/1"  />
              <InterpolatingParam id="592" interp="linr"  time="0/1" value="0" leadInLength="0/1"  />
             </VectorParam>
            </Transformer>
            <Parameters>
             <VectorParam id="593"  name="sourceCrop">
              <InterpolatingParam id="594" interp="linr"  time="0/1" value="0" leadInLength="0/1"  />
              <InterpolatingParam id="595" interp="linr"  time="0/1" value="0" leadInLength="0/1"  />
              <InterpolatingParam id="596" interp="linr"  time="0/1" value="0" leadInLength="0/1"  />
              <InterpolatingParam id="597" interp="linr"  time="0/1" value="0" leadInLength="0/1"  />
             </VectorParam>
             <VectorParam id="598"  name="geometryCrop">
              <InterpolatingParam id="599" interp="linr"  time="-9999999/1" value="0" leadInLength="0/1"  />
              <InterpolatingParam id="600" interp="linr"  time="-9999999/1" value="0" leadInLength="0/1"  />
              <InterpolatingParam id="601" interp="linr"  time="-9999999/1" value="0" leadInLength="0/1"  />
              <InterpolatingParam id="602" interp="linr"  time="-9999999/1" value="0" leadInLength="0/1"  />
             </VectorParam>
             <InterpolatingParam id="603" interp="linr"  time="-9999999/1" value="1" leadInLength="0/1"  name="opacity"/>
             <InterpolatingParam id="604" interp="linr"  time="0/1" value="0" leadInLength="0/1"  name="cursorOpacity"/>
             <InterpolatingParam id="605" interp="linr"  time="0/1" value="0" leadInLength="0/1"  name="cursorScale"/>
            </Parameters>
            <Attributes>
             <Attribute id="606" value="" name="ident"/>
            </Attributes>
            <MetaData>
             <entry key="AutoAppliedSmartFocus" val="False"/>
             <entry key="WinSubProjectDisplayName" val=""/>
            </MetaData>
            <ExtraData>
             <Entry key="ZoomPanBin">
              <ZoomPanBin id="607"  >
               <ZoomPanKeyframes>
                <ZoomPanKeyframe id="608" timeRangeEnd="-9999999/1" timeRangeDuration="0/1" interpolaterName=""  />
               </ZoomPanKeyframes>
              </ZoomPanBin>
             </Entry>
             <Entry key="CursorEffectBin">
              <CursorEffectBin id="609"  >
               <CursorEffectKeyframes>
               </CursorEffectKeyframes>
              </CursorEffectBin>
             </Entry>
            </ExtraData>
           </ScreenVMFile>
          </Medias>
         </GenericTrack>
        </StitchedMedia>
        <StitchedMedia id="610" start="1953" duration="192" scalar="1/1" mediaStart="1993/1" mediaDuration="192/1" minMediaStart="0/1" >
         <Transformer>
          <VectorParam id="611"  name="translation">
           <InterpolatingParam id="612" interp="linr"  time="-9999999/1" value="0" leadInLength="0/1"  />
           <InterpolatingParam id="613" interp="linr"  time="-9999999/1" value="0" leadInLength="0/1"  />
           <InterpolatingParam id="614" interp="linr"  time="-9999999/1" value="0" leadInLength="0/1"  />
          </VectorParam>
          <VectorParam id="615"  name="rotation">
           <InterpolatingParam id="616" interp="linr"  time="-9999999/1" value="0" leadInLength="0/1"  />
           <InterpolatingParam id="617" interp="linr"  time="-9999999/1" value="0" leadInLength="0/1"  />
           <InterpolatingParam id="618" interp="linr"  time="-9999999/1" value="0" leadInLength="0/1"  />
          </VectorParam>
          <VectorParam id="619"  name="shear">
           <InterpolatingParam id="620" interp="linr"  time="-9999999/1" value="0" leadInLength="0/1"  />
           <InterpolatingParam id="621" interp="linr"  time="-9999999/1" value="0" leadInLength="0/1"  />
           <InterpolatingParam id="622" interp="linr"  time="-9999999/1" value="0" leadInLength="0/1"  />
          </VectorParam>
          <VectorParam id="623"  name="scale">
           <InterpolatingParam id="624" interp="linr"  time="-9999999/1" value="0.73124999999999996" leadInLength="0/1"  />
           <InterpolatingParam id="625" interp="linr"  time="-9999999/1" value="0.73124999999999996" leadInLength="0/1"  />
           <InterpolatingParam id="626" interp="linr"  time="-9999999/1" value="1" leadInLength="0/1"  />
          </VectorParam>
          <VectorParam id="627"  name="anchor">
           <InterpolatingParam id="628" interp="linr"  time="0/1" value="0" leadInLength="0/1"  />
           <InterpolatingParam id="629" interp="linr"  time="0/1" value="0" leadInLength="0/1"  />
           <InterpolatingParam id="630" interp="linr"  time="0/1" value="0" leadInLength="0/1"  />
          </VectorParam>
         </Transformer>
         <Parameters>
          <VectorParam id="631"  name="sourceCrop">
           <InterpolatingParam id="632" interp="linr"  time="0/1" value="0" leadInLength="0/1"  />
           <InterpolatingParam id="633" interp="linr"  time="0/1" value="0" leadInLength="0/1"  />
           <InterpolatingParam id="634" interp="linr"  time="0/1" value="0" leadInLength="0/1"  />
           <InterpolatingParam id="635" interp="linr"  time="0/1" value="0" leadInLength="0/1"  />
          </VectorParam>
          <VectorParam id="636"  name="geometryCrop">
           <InterpolatingParam id="637" interp="linr"  time="-9999999/1" value="0" leadInLength="0/1"  />
           <InterpolatingParam id="638" interp="linr"  time="-9999999/1" value="0" leadInLength="0/1"  />
           <InterpolatingParam id="639" interp="linr"  time="-9999999/1" value="0" leadInLength="0/1"  />
           <InterpolatingParam id="640" interp="linr"  time="-9999999/1" value="0" leadInLength="0/1"  />
          </VectorParam>
          <InterpolatingParam id="641" interp="linr"  time="-9999999/1" value="1" leadInLength="0/1"  name="opacity"/>
          <InterpolatingParam id="642" interp="linr"  time="0/1" value="1" leadInLength="0/1"  name="cursorOpacity"/>
          <InterpolatingParam id="643" interp="linr"  time="0/1" value="1" leadInLength="0/1"  name="cursorScale"/>
          <Parameter id="644"  name="captions"/>
         </Parameters>
         <Effects>
          <GenericEffect id="645" name = "CursorBaseEffectName" >
           <Parameters>
           <InterpolatingParam id="646" interp="linr"  time="-9999999/1" value="1" leadInLength="0/1"   name="cursorSize"/>
           <InterpolatingParam id="647" interp="linr"  time="-9999999/1" value="0" leadInLength="0/1"   name="highlightBlurRadius"/>
           <InterpolatingParam id="648" interp="linr"  time="-9999999/1" value="0" leadInLength="0/1"   name="highlightColorBlue"/>
           <InterpolatingParam id="649" interp="linr"  time="-9999999/1" value="255" leadInLength="0/1"   name="highlightColorGreen"/>
           <InterpolatingParam id="650" interp="linr"  time="-9999999/1" value="255" leadInLength="0/1"   name="highlightColorRed"/>
           <InterpolatingParam id="651" interp="linr"  time="-9999999/1" value="5" leadInLength="0/1"   name="highlightFeatherSize"/>
           <InterpolatingParam id="652" interp="linr"  time="-9999999/1" value="2" leadInLength="0/1"   name="highlightMagnification"/>
           <InterpolatingParam id="653" interp="linr"  time="-9999999/1" value="1" leadInLength="0/1"   name="highlightOpacity"/>
           <InterpolatingParam id="654" interp="linr"  time="-9999999/1" value="45" leadInLength="0/1"   name="highlightSize"/>
           <Parameter id="655"   name="highlightType">
            <Keyframes>
            <Keyframe id="656"  time="-9999999/1" value="0" leadInLength="0/1"  />
            </Keyframes>
           </Parameter>
           <InterpolatingParam id="657" interp="linr"  time="-9999999/1" value="0" leadInLength="0/1"   name="leftClickColorBlue"/>
           <InterpolatingParam id="658" interp="linr"  time="-9999999/1" value="0" leadInLength="0/1"   name="leftClickColorGreen"/>
           <InterpolatingParam id="659" interp="linr"  time="-9999999/1" value="255" leadInLength="0/1"   name="leftClickColorRed"/>
           <InterpolatingParam id="660" interp="linr"  time="-9999999/1" value="0.80000000000000004" leadInLength="0/1"   name="leftClickDuration"/>
           <InterpolatingParam id="661" interp="linr"  time="-9999999/1" value="20" leadInLength="0/1"   name="leftClickSize"/>
           <Parameter id="662"   name="leftClickSoundFilename">
            <Keyframes>
            <Keyframe id="663"  time="-9999999/1" value="" leadInLength="0/1"  />
            </Keyframes>
           </Parameter>
           <InterpolatingParam id="664" interp="linr"  time="-9999999/1" value="1" leadInLength="0/1"   name="leftClickSoundVolume"/>
           <Parameter id="665"   name="leftClickType">
            <Keyframes>
            <Keyframe id="666"  time="-9999999/1" value="0" leadInLength="0/1"  />
            </Keyframes>
           </Parameter>
           <InterpolatingParam id="667" interp="linr"  time="-9999999/1" value="1" leadInLength="0/1"   name="opacity"/>
           <InterpolatingParam id="668" interp="linr"  time="-9999999/1" value="255" leadInLength="0/1"   name="rightClickColorBlue"/>
           <InterpolatingParam id="669" interp="linr"  time="-9999999/1" value="0" leadInLength="0/1"   name="rightClickColorGreen"/>
           <InterpolatingParam id="670" interp="linr"  time="-9999999/1" value="0" leadInLength="0/1"   name="rightClickColorRed"/>
           <InterpolatingParam id="671" interp="linr"  time="-9999999/1" value="0.80000000000000004" leadInLength="0/1"   name="rightClickDuration"/>
           <InterpolatingParam id="672" interp="linr"  time="-9999999/1" value="20" leadInLength="0/1"   name="rightClickSize"/>
           <Parameter id="673"   name="rightClickSoundFilename">
            <Keyframes>
            <Keyframe id="674"  time="-9999999/1" value="" leadInLength="0/1"  />
            </Keyframes>
           </Parameter>
           <InterpolatingParam id="675" interp="linr"  time="-9999999/1" value="1" leadInLength="0/1"   name="rightClickSoundVolume"/>
           <Parameter id="676"   name="rightClickType">
            <Keyframes>
            <Keyframe id="677"  time="-9999999/1" value="0" leadInLength="0/1"  />
            </Keyframes>
           </Parameter>
           </Parameters>
          </GenericEffect>
         </Effects>
         <Attributes>
          <Attribute id="678" value="" name="ident"/>
         </Attributes>
         <MetaData>
          <entry key="AutoAppliedSmartFocus" val="False"/>
          <entry key="WinSubProjectDisplayName" val=""/>
         </MetaData>
         <ExtraData>
          <Entry key="ZoomPanBin">
           <ZoomPanBin id="679"  >
            <ZoomPanKeyframes>
             <ZoomPanKeyframe id="680" timeRangeEnd="-9999999/1" timeRangeDuration="0/1" interpolaterName=""  />
            </ZoomPanKeyframes>
           </ZoomPanBin>
          </Entry>
          <Entry key="CursorEffectBin">
           <CursorEffectBin id="681"  >
            <CursorEffectKeyframes>
             <CursorEffectKeyframe id="682" timeRangeEnd="-9999999/1" timeRangeDuration="0/1" interpolaterName=""  />
            </CursorEffectKeyframes>
           </CursorEffectBin>
          </Entry>
         </ExtraData>
         <GenericTrack id="683"  >
          <Attributes>
           <Attribute id="684" value="" name="ident"/>
           <Attribute id="685" value="0" name="audioMuted"/>
           <Attribute id="686" value="0" name="videoHidden"/>
          </Attributes>
          <MetaData>
           <entry key="IsLocked" val="False"/>
           <entry key="WinTrackHeight" val="0"/>
          </MetaData>
          <Medias>
           <ScreenVMFile id="687" start="0" duration="2020" scalar="1/1" mediaStart="0/1" mediaDuration="2020/1" trackNumber="0" src="9" >
            <Transformer>
             <VectorParam id="688"  name="translation">
              <InterpolatingParam id="689" interp="linr"  time="-9999999/1" value="0" leadInLength="0/1"  />
              <InterpolatingParam id="690" interp="linr"  time="-9999999/1" value="0" leadInLength="0/1"  />
              <InterpolatingParam id="691" interp="linr"  time="-9999999/1" value="0" leadInLength="0/1"  />
             </VectorParam>
             <VectorParam id="692"  name="rotation">
              <InterpolatingParam id="693" interp="linr"  time="-9999999/1" value="0" leadInLength="0/1"  />
              <InterpolatingParam id="694" interp="linr"  time="-9999999/1" value="0" leadInLength="0/1"  />
              <InterpolatingParam id="695" interp="linr"  time="-9999999/1" value="0" leadInLength="0/1"  />
             </VectorParam>
             <VectorParam id="696"  name="shear">
              <InterpolatingParam id="697" interp="linr"  time="-9999999/1" value="0" leadInLength="0/1"  />
              <InterpolatingParam id="698" interp="linr"  time="-9999999/1" value="0" leadInLength="0/1"  />
              <InterpolatingParam id="699" interp="linr"  time="-9999999/1" value="0" leadInLength="0/1"  />
             </VectorParam>
             <VectorParam id="700"  name="scale">
              <InterpolatingParam id="701" interp="linr"  time="-9999999/1" value="1" leadInLength="0/1"  />
              <InterpolatingParam id="702" interp="linr"  time="-9999999/1" value="1" leadInLength="0/1"  />
              <InterpolatingParam id="703" interp="linr"  time="-9999999/1" value="1" leadInLength="0/1"  />
             </VectorParam>
             <VectorParam id="704"  name="anchor">
              <InterpolatingParam id="705" interp="linr"  time="0/1" value="0" leadInLength="0/1"  />
              <InterpolatingParam id="706" interp="linr"  time="0/1" value="0" leadInLength="0/1"  />
              <InterpolatingParam id="707" interp="linr"  time="0/1" value="0" leadInLength="0/1"  />
             </VectorParam>
            </Transformer>
            <Parameters>
             <VectorParam id="708"  name="sourceCrop">
              <InterpolatingParam id="709" interp="linr"  time="0/1" value="0" leadInLength="0/1"  />
              <InterpolatingParam id="710" interp="linr"  time="0/1" value="0" leadInLength="0/1"  />
              <InterpolatingParam id="711" interp="linr"  time="0/1" value="0" leadInLength="0/1"  />
              <InterpolatingParam id="712" interp="linr"  time="0/1" value="0" leadInLength="0/1"  />
             </VectorParam>
             <VectorParam id="713"  name="geometryCrop">
              <InterpolatingParam id="714" interp="linr"  time="-9999999/1" value="0" leadInLength="0/1"  />
              <InterpolatingParam id="715" interp="linr"  time="-9999999/1" value="0" leadInLength="0/1"  />
              <InterpolatingParam id="716" interp="linr"  time="-9999999/1" value="0" leadInLength="0/1"  />
              <InterpolatingParam id="717" interp="linr"  time="-9999999/1" value="0" leadInLength="0/1"  />
             </VectorParam>
             <InterpolatingParam id="718" interp="linr"  time="-9999999/1" value="1" leadInLength="0/1"  name="opacity"/>
             <InterpolatingParam id="719" interp="linr"  time="0/1" value="0" leadInLength="0/1"  name="cursorOpacity"/>
             <InterpolatingParam id="720" interp="linr"  time="0/1" value="0" leadInLength="0/1"  name="cursorScale"/>
            </Parameters>
            <Attributes>
             <Attribute id="721" value="" name="ident"/>
            </Attributes>
            <MetaData>
             <entry key="AutoAppliedSmartFocus" val="False"/>
             <entry key="WinSubProjectDisplayName" val=""/>
            </MetaData>
            <ExtraData>
             <Entry key="ZoomPanBin">
              <ZoomPanBin id="722"  >
               <ZoomPanKeyframes>
                <ZoomPanKeyframe id="723" timeRangeEnd="-9999999/1" timeRangeDuration="0/1" interpolaterName=""  />
               </ZoomPanKeyframes>
              </ZoomPanBin>
             </Entry>
             <Entry key="CursorEffectBin">
              <CursorEffectBin id="724"  >
               <CursorEffectKeyframes>
               </CursorEffectKeyframes>
              </CursorEffectBin>
             </Entry>
            </ExtraData>
           </ScreenVMFile>
           <ScreenVMFile id="725" start="2020" duration="73" scalar="1/1" mediaStart="2027/1" mediaDuration="73/1" trackNumber="0" src="9" >
            <Transformer>
             <VectorParam id="726"  name="translation">
              <InterpolatingParam id="727" interp="linr"  time="-9999999/1" value="0" leadInLength="0/1"  />
              <InterpolatingParam id="728" interp="linr"  time="-9999999/1" value="0" leadInLength="0/1"  />
              <InterpolatingParam id="729" interp="linr"  time="-9999999/1" value="0" leadInLength="0/1"  />
             </VectorParam>
             <VectorParam id="730"  name="rotation">
              <InterpolatingParam id="731" interp="linr"  time="-9999999/1" value="0" leadInLength="0/1"  />
              <InterpolatingParam id="732" interp="linr"  time="-9999999/1" value="0" leadInLength="0/1"  />
              <InterpolatingParam id="733" interp="linr"  time="-9999999/1" value="0" leadInLength="0/1"  />
             </VectorParam>
             <VectorParam id="734"  name="shear">
              <InterpolatingParam id="735" interp="linr"  time="-9999999/1" value="0" leadInLength="0/1"  />
              <InterpolatingParam id="736" interp="linr"  time="-9999999/1" value="0" leadInLength="0/1"  />
              <InterpolatingParam id="737" interp="linr"  time="-9999999/1" value="0" leadInLength="0/1"  />
             </VectorParam>
             <VectorParam id="738"  name="scale">
              <InterpolatingParam id="739" interp="linr"  time="-9999999/1" value="1" leadInLength="0/1"  />
              <InterpolatingParam id="740" interp="linr"  time="-9999999/1" value="1" leadInLength="0/1"  />
              <InterpolatingParam id="741" interp="linr"  time="-9999999/1" value="1" leadInLength="0/1"  />
             </VectorParam>
             <VectorParam id="742"  name="anchor">
              <InterpolatingParam id="743" interp="linr"  time="0/1" value="0" leadInLength="0/1"  />
              <InterpolatingParam id="744" interp="linr"  time="0/1" value="0" leadInLength="0/1"  />
              <InterpolatingParam id="745" interp="linr"  time="0/1" value="0" leadInLength="0/1"  />
             </VectorParam>
            </Transformer>
            <Parameters>
             <VectorParam id="746"  name="sourceCrop">
              <InterpolatingParam id="747" interp="linr"  time="0/1" value="0" leadInLength="0/1"  />
              <InterpolatingParam id="748" interp="linr"  time="0/1" value="0" leadInLength="0/1"  />
              <InterpolatingParam id="749" interp="linr"  time="0/1" value="0" leadInLength="0/1"  />
              <InterpolatingParam id="750" interp="linr"  time="0/1" value="0" leadInLength="0/1"  />
             </VectorParam>
             <VectorParam id="751"  name="geometryCrop">
              <InterpolatingParam id="752" interp="linr"  time="-9999999/1" value="0" leadInLength="0/1"  />
              <InterpolatingParam id="753" interp="linr"  time="-9999999/1" value="0" leadInLength="0/1"  />
              <InterpolatingParam id="754" interp="linr"  time="-9999999/1" value="0" leadInLength="0/1"  />
              <InterpolatingParam id="755" interp="linr"  time="-9999999/1" value="0" leadInLength="0/1"  />
             </VectorParam>
             <InterpolatingParam id="756" interp="linr"  time="-9999999/1" value="1" leadInLength="0/1"  name="opacity"/>
             <InterpolatingParam id="757" interp="linr"  time="0/1" value="0" leadInLength="0/1"  name="cursorOpacity"/>
             <InterpolatingParam id="758" interp="linr"  time="0/1" value="0" leadInLength="0/1"  name="cursorScale"/>
            </Parameters>
            <Attributes>
             <Attribute id="759" value="" name="ident"/>
            </Attributes>
            <MetaData>
             <entry key="AutoAppliedSmartFocus" val="False"/>
             <entry key="WinSubProjectDisplayName" val=""/>
            </MetaData>
            <ExtraData>
             <Entry key="ZoomPanBin">
              <ZoomPanBin id="760"  >
               <ZoomPanKeyframes>
                <ZoomPanKeyframe id="761" timeRangeEnd="-9999999/1" timeRangeDuration="0/1" interpolaterName=""  />
               </ZoomPanKeyframes>
              </ZoomPanBin>
             </Entry>
             <Entry key="CursorEffectBin">
              <CursorEffectBin id="762"  >
               <CursorEffectKeyframes>
               </CursorEffectKeyframes>
              </CursorEffectBin>
             </Entry>
            </ExtraData>
           </ScreenVMFile>
           <ScreenVMFile id="763" start="2093" duration="131" scalar="1/1" mediaStart="2116/1" mediaDuration="131/1" trackNumber="0" src="9" >
            <Transformer>
             <VectorParam id="764"  name="translation">
              <InterpolatingParam id="765" interp="linr"  time="-9999999/1" value="0" leadInLength="0/1"  />
              <InterpolatingParam id="766" interp="linr"  time="-9999999/1" value="0" leadInLength="0/1"  />
              <InterpolatingParam id="767" interp="linr"  time="-9999999/1" value="0" leadInLength="0/1"  />
             </VectorParam>
             <VectorParam id="768"  name="rotation">
              <InterpolatingParam id="769" interp="linr"  time="-9999999/1" value="0" leadInLength="0/1"  />
              <InterpolatingParam id="770" interp="linr"  time="-9999999/1" value="0" leadInLength="0/1"  />
              <InterpolatingParam id="771" interp="linr"  time="-9999999/1" value="0" leadInLength="0/1"  />
             </VectorParam>
             <VectorParam id="772"  name="shear">
              <InterpolatingParam id="773" interp="linr"  time="-9999999/1" value="0" leadInLength="0/1"  />
              <InterpolatingParam id="774" interp="linr"  time="-9999999/1" value="0" leadInLength="0/1"  />
              <InterpolatingParam id="775" interp="linr"  time="-9999999/1" value="0" leadInLength="0/1"  />
             </VectorParam>
             <VectorParam id="776"  name="scale">
              <InterpolatingParam id="777" interp="linr"  time="-9999999/1" value="1" leadInLength="0/1"  />
              <InterpolatingParam id="778" interp="linr"  time="-9999999/1" value="1" leadInLength="0/1"  />
              <InterpolatingParam id="779" interp="linr"  time="-9999999/1" value="1" leadInLength="0/1"  />
             </VectorParam>
             <VectorParam id="780"  name="anchor">
              <InterpolatingParam id="781" interp="linr"  time="0/1" value="0" leadInLength="0/1"  />
              <InterpolatingParam id="782" interp="linr"  time="0/1" value="0" leadInLength="0/1"  />
              <InterpolatingParam id="783" interp="linr"  time="0/1" value="0" leadInLength="0/1"  />
             </VectorParam>
            </Transformer>
            <Parameters>
             <VectorParam id="784"  name="sourceCrop">
              <InterpolatingParam id="785" interp="linr"  time="0/1" value="0" leadInLength="0/1"  />
              <InterpolatingParam id="786" interp="linr"  time="0/1" value="0" leadInLength="0/1"  />
              <InterpolatingParam id="787" interp="linr"  time="0/1" value="0" leadInLength="0/1"  />
              <InterpolatingParam id="788" interp="linr"  time="0/1" value="0" leadInLength="0/1"  />
             </VectorParam>
             <VectorParam id="789"  name="geometryCrop">
              <InterpolatingParam id="790" interp="linr"  time="-9999999/1" value="0" leadInLength="0/1"  />
              <InterpolatingParam id="791" interp="linr"  time="-9999999/1" value="0" leadInLength="0/1"  />
              <InterpolatingParam id="792" interp="linr"  time="-9999999/1" value="0" leadInLength="0/1"  />
              <InterpolatingParam id="793" interp="linr"  time="-9999999/1" value="0" leadInLength="0/1"  />
             </VectorParam>
             <InterpolatingParam id="794" interp="linr"  time="-9999999/1" value="1" leadInLength="0/1"  name="opacity"/>
             <InterpolatingParam id="795" interp="linr"  time="0/1" value="0" leadInLength="0/1"  name="cursorOpacity"/>
             <InterpolatingParam id="796" interp="linr"  time="0/1" value="0" leadInLength="0/1"  name="cursorScale"/>
            </Parameters>
            <Attributes>
             <Attribute id="797" value="" name="ident"/>
            </Attributes>
            <MetaData>
             <entry key="AutoAppliedSmartFocus" val="False"/>
             <entry key="WinSubProjectDisplayName" val=""/>
            </MetaData>
            <ExtraData>
             <Entry key="ZoomPanBin">
              <ZoomPanBin id="798"  >
               <ZoomPanKeyframes>
                <ZoomPanKeyframe id="799" timeRangeEnd="-9999999/1" timeRangeDuration="0/1" interpolaterName=""  />
               </ZoomPanKeyframes>
              </ZoomPanBin>
             </Entry>
             <Entry key="CursorEffectBin">
              <CursorEffectBin id="800"  >
               <CursorEffectKeyframes>
               </CursorEffectKeyframes>
              </CursorEffectBin>
             </Entry>
            </ExtraData>
           </ScreenVMFile>
           <ScreenVMFile id="801" start="2224" duration="14" scalar="1/1" mediaStart="2455/1" mediaDuration="14/1" trackNumber="0" src="9" >
            <Transformer>
             <VectorParam id="802"  name="translation">
              <InterpolatingParam id="803" interp="linr"  time="-9999999/1" value="0" leadInLength="0/1"  />
              <InterpolatingParam id="804" interp="linr"  time="-9999999/1" value="0" leadInLength="0/1"  />
              <InterpolatingParam id="805" interp="linr"  time="-9999999/1" value="0" leadInLength="0/1"  />
             </VectorParam>
             <VectorParam id="806"  name="rotation">
              <InterpolatingParam id="807" interp="linr"  time="-9999999/1" value="0" leadInLength="0/1"  />
              <InterpolatingParam id="808" interp="linr"  time="-9999999/1" value="0" leadInLength="0/1"  />
              <InterpolatingParam id="809" interp="linr"  time="-9999999/1" value="0" leadInLength="0/1"  />
             </VectorParam>
             <VectorParam id="810"  name="shear">
              <InterpolatingParam id="811" interp="linr"  time="-9999999/1" value="0" leadInLength="0/1"  />
              <InterpolatingParam id="812" interp="linr"  time="-9999999/1" value="0" leadInLength="0/1"  />
              <InterpolatingParam id="813" interp="linr"  time="-9999999/1" value="0" leadInLength="0/1"  />
             </VectorParam>
             <VectorParam id="814"  name="scale">
              <InterpolatingParam id="815" interp="linr"  time="-9999999/1" value="1" leadInLength="0/1"  />
              <InterpolatingParam id="816" interp="linr"  time="-9999999/1" value="1" leadInLength="0/1"  />
              <InterpolatingParam id="817" interp="linr"  time="-9999999/1" value="1" leadInLength="0/1"  />
             </VectorParam>
             <VectorParam id="818"  name="anchor">
              <InterpolatingParam id="819" interp="linr"  time="0/1" value="0" leadInLength="0/1"  />
              <InterpolatingParam id="820" interp="linr"  time="0/1" value="0" leadInLength="0/1"  />
              <InterpolatingParam id="821" interp="linr"  time="0/1" value="0" leadInLength="0/1"  />
             </VectorParam>
            </Transformer>
            <Parameters>
             <VectorParam id="822"  name="sourceCrop">
              <InterpolatingParam id="823" interp="linr"  time="0/1" value="0" leadInLength="0/1"  />
              <InterpolatingParam id="824" interp="linr"  time="0/1" value="0" leadInLength="0/1"  />
              <InterpolatingParam id="825" interp="linr"  time="0/1" value="0" leadInLength="0/1"  />
              <InterpolatingParam id="826" interp="linr"  time="0/1" value="0" leadInLength="0/1"  />
             </VectorParam>
             <VectorParam id="827"  name="geometryCrop">
              <InterpolatingParam id="828" interp="linr"  time="-9999999/1" value="0" leadInLength="0/1"  />
              <InterpolatingParam id="829" interp="linr"  time="-9999999/1" value="0" leadInLength="0/1"  />
              <InterpolatingParam id="830" interp="linr"  time="-9999999/1" value="0" leadInLength="0/1"  />
              <InterpolatingParam id="831" interp="linr"  time="-9999999/1" value="0" leadInLength="0/1"  />
             </VectorParam>
             <InterpolatingParam id="832" interp="linr"  time="-9999999/1" value="1" leadInLength="0/1"  name="opacity"/>
             <InterpolatingParam id="833" interp="linr"  time="0/1" value="0" leadInLength="0/1"  name="cursorOpacity"/>
             <InterpolatingParam id="834" interp="linr"  time="0/1" value="0" leadInLength="0/1"  name="cursorScale"/>
            </Parameters>
            <Attributes>
             <Attribute id="835" value="" name="ident"/>
            </Attributes>
            <MetaData>
             <entry key="AutoAppliedSmartFocus" val="False"/>
             <entry key="WinSubProjectDisplayName" val=""/>
            </MetaData>
            <ExtraData>
             <Entry key="ZoomPanBin">
              <ZoomPanBin id="836"  >
               <ZoomPanKeyframes>
                <ZoomPanKeyframe id="837" timeRangeEnd="-9999999/1" timeRangeDuration="0/1" interpolaterName=""  />
               </ZoomPanKeyframes>
              </ZoomPanBin>
             </Entry>
             <Entry key="CursorEffectBin">
              <CursorEffectBin id="838"  >
               <CursorEffectKeyframes>
               </CursorEffectKeyframes>
              </CursorEffectBin>
             </Entry>
            </ExtraData>
           </ScreenVMFile>
          </Medias>
         </GenericTrack>
        </StitchedMedia>
        <StitchedMedia id="839" start="2145" duration="1014" scalar="1/1" mediaStart="11100/1" mediaDuration="1014/1" minMediaStart="0/1" >
         <Transformer>
          <VectorParam id="840"  name="translation">
           <InterpolatingParam id="841" interp="linr"  time="-9999999/1" value="-1.0678913914065493e-010" leadInLength="0/1"  interpolater="leadin-linr"  />
           <InterpolatingParam id="842" interp="linr"  time="-9999999/1" value="1.1351879436460876e-010" leadInLength="0/1"  interpolater="leadin-linr"  />
           <InterpolatingParam id="843" interp="linr"  time="-9999999/1" value="0" leadInLength="0/1"  interpolater="leadin-linr"  />
          </VectorParam>
          <VectorParam id="844"  name="rotation">
           <InterpolatingParam id="845" interp="linr"  time="-9999999/1" value="0" leadInLength="0/1"  interpolater="leadin-linr"  />
           <InterpolatingParam id="846" interp="linr"  time="-9999999/1" value="0" leadInLength="0/1"  interpolater="leadin-linr"  />
           <InterpolatingParam id="847" interp="linr"  time="-9999999/1" value="0" leadInLength="0/1"  interpolater="leadin-linr"  />
          </VectorParam>
          <VectorParam id="848"  name="shear">
           <InterpolatingParam id="849" interp="linr"  time="-9999999/1" value="0" leadInLength="0/1"  interpolater="leadin-linr"  />
           <InterpolatingParam id="850" interp="linr"  time="-9999999/1" value="0" leadInLength="0/1"  interpolater="leadin-linr"  />
           <InterpolatingParam id="851" interp="linr"  time="-9999999/1" value="0" leadInLength="0/1"  interpolater="leadin-linr"  />
          </VectorParam>
          <VectorParam id="852"  name="scale">
           <InterpolatingParam id="853" interp="linr"  time="-9999999/1" value="0.73124999999999996" leadInLength="0/1"  interpolater="leadin-linr"  />
           <InterpolatingParam id="854" interp="linr"  time="-9999999/1" value="0.73124999999999996" leadInLength="0/1"  interpolater="leadin-linr"  />
           <InterpolatingParam id="855" interp="linr"  time="-9999999/1" value="1" leadInLength="0/1"  interpolater="leadin-linr"  />
          </VectorParam>
          <VectorParam id="856"  name="anchor">
           <InterpolatingParam id="857" interp="linr"  time="0/1" value="0" leadInLength="0/1"  />
           <InterpolatingParam id="858" interp="linr"  time="0/1" value="0" leadInLength="0/1"  />
           <InterpolatingParam id="859" interp="linr"  time="0/1" value="0" leadInLength="0/1"  />
          </VectorParam>
         </Transformer>
         <Parameters>
          <VectorParam id="860"  name="sourceCrop">
           <InterpolatingParam id="861" interp="linr"  time="0/1" value="0" leadInLength="0/1"  />
           <InterpolatingParam id="862" interp="linr"  time="0/1" value="0" leadInLength="0/1"  />
           <InterpolatingParam id="863" interp="linr"  time="0/1" value="0" leadInLength="0/1"  />
           <InterpolatingParam id="864" interp="linr"  time="0/1" value="0" leadInLength="0/1"  />
          </VectorParam>
          <VectorParam id="865"  name="geometryCrop">
           <InterpolatingParam id="866" interp="linr"  time="-9999999/1" value="0" leadInLength="0/1"  interpolater="leadin-linr"  />
           <InterpolatingParam id="867" interp="linr"  time="-9999999/1" value="0" leadInLength="0/1"  interpolater="leadin-linr"  />
           <InterpolatingParam id="868" interp="linr"  time="-9999999/1" value="0" leadInLength="0/1"  interpolater="leadin-linr"  />
           <InterpolatingParam id="869" interp="linr"  time="-9999999/1" value="0" leadInLength="0/1"  interpolater="leadin-linr"  />
          </VectorParam>
          <InterpolatingParam id="870" interp="linr"  time="-9999999/1" value="1" leadInLength="0/1"  interpolater="leadin-linr"  name="opacity"/>
          <InterpolatingParam id="871" interp="linr"  time="0/1" value="1" leadInLength="0/1"  name="cursorOpacity"/>
          <InterpolatingParam id="872" interp="linr"  time="0/1" value="1" leadInLength="0/1"  name="cursorScale"/>
          <Parameter id="873"  name="captions"/>
         </Parameters>
         <Effects>
          <GenericEffect id="874" name = "CursorBaseEffectName" >
           <Parameters>
           <InterpolatingParam id="875" interp="linr"  time="-9999999/1" value="1" leadInLength="0/1"   name="cursorSize"/>
           <InterpolatingParam id="876" interp="linr"  time="-9999999/1" value="0" leadInLength="0/1"   name="highlightBlurRadius"/>
           <InterpolatingParam id="877" interp="linr"  time="-9999999/1" value="0" leadInLength="0/1"   name="highlightColorBlue"/>
           <InterpolatingParam id="878" interp="linr"  time="-9999999/1" value="255" leadInLength="0/1"   name="highlightColorGreen"/>
           <InterpolatingParam id="879" interp="linr"  time="-9999999/1" value="255" leadInLength="0/1"   name="highlightColorRed"/>
           <InterpolatingParam id="880" interp="linr"  time="-9999999/1" value="5" leadInLength="0/1"   name="highlightFeatherSize"/>
           <InterpolatingParam id="881" interp="linr"  time="-9999999/1" value="2" leadInLength="0/1"   name="highlightMagnification"/>
           <InterpolatingParam id="882" interp="linr"  time="-9999999/1" value="1" leadInLength="0/1"   name="highlightOpacity"/>
           <InterpolatingParam id="883" interp="linr"  time="-9999999/1" value="45" leadInLength="0/1"   name="highlightSize"/>
           <Parameter id="884"   name="highlightType">
            <Keyframes>
            <Keyframe id="885"  time="-9999999/1" value="0" leadInLength="0/1"  />
            </Keyframes>
           </Parameter>
           <InterpolatingParam id="886" interp="linr"  time="-9999999/1" value="0" leadInLength="0/1"   name="leftClickColorBlue"/>
           <InterpolatingParam id="887" interp="linr"  time="-9999999/1" value="0" leadInLength="0/1"   name="leftClickColorGreen"/>
           <InterpolatingParam id="888" interp="linr"  time="-9999999/1" value="255" leadInLength="0/1"   name="leftClickColorRed"/>
           <InterpolatingParam id="889" interp="linr"  time="-9999999/1" value="0.80000000000000004" leadInLength="0/1"   name="leftClickDuration"/>
           <InterpolatingParam id="890" interp="linr"  time="-9999999/1" value="20" leadInLength="0/1"   name="leftClickSize"/>
           <Parameter id="891"   name="leftClickSoundFilename">
            <Keyframes>
            <Keyframe id="892"  time="-9999999/1" value="" leadInLength="0/1"  />
            </Keyframes>
           </Parameter>
           <InterpolatingParam id="893" interp="linr"  time="-9999999/1" value="1" leadInLength="0/1"   name="leftClickSoundVolume"/>
           <Parameter id="894"   name="leftClickType">
            <Keyframes>
            <Keyframe id="895"  time="-9999999/1" value="0" leadInLength="0/1"  />
            </Keyframes>
           </Parameter>
           <InterpolatingParam id="896" interp="linr"  time="-9999999/1" value="1" leadInLength="0/1"   name="opacity"/>
           <InterpolatingParam id="897" interp="linr"  time="-9999999/1" value="255" leadInLength="0/1"   name="rightClickColorBlue"/>
           <InterpolatingParam id="898" interp="linr"  time="-9999999/1" value="0" leadInLength="0/1"   name="rightClickColorGreen"/>
           <InterpolatingParam id="899" interp="linr"  time="-9999999/1" value="0" leadInLength="0/1"   name="rightClickColorRed"/>
           <InterpolatingParam id="900" interp="linr"  time="-9999999/1" value="0.80000000000000004" leadInLength="0/1"   name="rightClickDuration"/>
           <InterpolatingParam id="901" interp="linr"  time="-9999999/1" value="20" leadInLength="0/1"   name="rightClickSize"/>
           <Parameter id="902"   name="rightClickSoundFilename">
            <Keyframes>
            <Keyframe id="903"  time="-9999999/1" value="" leadInLength="0/1"  />
            </Keyframes>
           </Parameter>
           <InterpolatingParam id="904" interp="linr"  time="-9999999/1" value="1" leadInLength="0/1"   name="rightClickSoundVolume"/>
           <Parameter id="905"   name="rightClickType">
            <Keyframes>
            <Keyframe id="906"  time="-9999999/1" value="0" leadInLength="0/1"  />
            </Keyframes>
           </Parameter>
           </Parameters>
          </GenericEffect>
         </Effects>
         <Attributes>
          <Attribute id="907" value="" name="ident"/>
         </Attributes>
         <MetaData>
          <entry key="AutoAppliedSmartFocus" val="False"/>
          <entry key="WinSubProjectDisplayName" val=""/>
         </MetaData>
         <ExtraData>
          <Entry key="ZoomPanBin">
           <ZoomPanBin id="908"  >
            <ZoomPanKeyframes>
             <ZoomPanKeyframe id="909" timeRangeEnd="-9999999/1" timeRangeDuration="0/1" interpolaterName="linr"  />
            </ZoomPanKeyframes>
           </ZoomPanBin>
          </Entry>
          <Entry key="CursorEffectBin">
           <CursorEffectBin id="910"  >
            <CursorEffectKeyframes>
             <CursorEffectKeyframe id="911" timeRangeEnd="-9999999/1" timeRangeDuration="0/1" interpolaterName=""  />
            </CursorEffectKeyframes>
           </CursorEffectBin>
          </Entry>
         </ExtraData>
         <GenericTrack id="912"  >
          <Attributes>
           <Attribute id="913" value="" name="ident"/>
           <Attribute id="914" value="0" name="audioMuted"/>
           <Attribute id="915" value="0" name="videoHidden"/>
          </Attributes>
          <MetaData>
           <entry key="IsLocked" val="False"/>
           <entry key="WinTrackHeight" val="0"/>
          </MetaData>
          <Medias>
           <ScreenVMFile id="916" start="0" duration="11250" scalar="1/1" mediaStart="0/1" mediaDuration="11250/1" trackNumber="0" src="8" >
            <Transformer>
             <VectorParam id="917"  name="translation">
              <InterpolatingParam id="918" interp="linr"  time="-9999999/1" value="0" leadInLength="0/1"  />
              <InterpolatingParam id="919" interp="linr"  time="-9999999/1" value="0" leadInLength="0/1"  />
              <InterpolatingParam id="920" interp="linr"  time="-9999999/1" value="0" leadInLength="0/1"  />
             </VectorParam>
             <VectorParam id="921"  name="rotation">
              <InterpolatingParam id="922" interp="linr"  time="-9999999/1" value="0" leadInLength="0/1"  />
              <InterpolatingParam id="923" interp="linr"  time="-9999999/1" value="0" leadInLength="0/1"  />
              <InterpolatingParam id="924" interp="linr"  time="-9999999/1" value="0" leadInLength="0/1"  />
             </VectorParam>
             <VectorParam id="925"  name="shear">
              <InterpolatingParam id="926" interp="linr"  time="-9999999/1" value="0" leadInLength="0/1"  />
              <InterpolatingParam id="927" interp="linr"  time="-9999999/1" value="0" leadInLength="0/1"  />
              <InterpolatingParam id="928" interp="linr"  time="-9999999/1" value="0" leadInLength="0/1"  />
             </VectorParam>
             <VectorParam id="929"  name="scale">
              <InterpolatingParam id="930" interp="linr"  time="-9999999/1" value="1" leadInLength="0/1"  />
              <InterpolatingParam id="931" interp="linr"  time="-9999999/1" value="1" leadInLength="0/1"  />
              <InterpolatingParam id="932" interp="linr"  time="-9999999/1" value="1" leadInLength="0/1"  />
             </VectorParam>
             <VectorParam id="933"  name="anchor">
              <InterpolatingParam id="934" interp="linr"  time="0/1" value="0" leadInLength="0/1"  />
              <InterpolatingParam id="935" interp="linr"  time="0/1" value="0" leadInLength="0/1"  />
              <InterpolatingParam id="936" interp="linr"  time="0/1" value="0" leadInLength="0/1"  />
             </VectorParam>
            </Transformer>
            <Parameters>
             <VectorParam id="937"  name="sourceCrop">
              <InterpolatingParam id="938" interp="linr"  time="0/1" value="0" leadInLength="0/1"  />
              <InterpolatingParam id="939" interp="linr"  time="0/1" value="0" leadInLength="0/1"  />
              <InterpolatingParam id="940" interp="linr"  time="0/1" value="0" leadInLength="0/1"  />
              <InterpolatingParam id="941" interp="linr"  time="0/1" value="0" leadInLength="0/1"  />
             </VectorParam>
             <VectorParam id="942"  name="geometryCrop">
              <InterpolatingParam id="943" interp="linr"  time="-9999999/1" value="0" leadInLength="0/1"  />
              <InterpolatingParam id="944" interp="linr"  time="-9999999/1" value="0" leadInLength="0/1"  />
              <InterpolatingParam id="945" interp="linr"  time="-9999999/1" value="0" leadInLength="0/1"  />
              <InterpolatingParam id="946" interp="linr"  time="-9999999/1" value="0" leadInLength="0/1"  />
             </VectorParam>
             <InterpolatingParam id="947" interp="linr"  time="-9999999/1" value="1" leadInLength="0/1"  name="opacity"/>
             <InterpolatingParam id="948" interp="linr"  time="0/1" value="0" leadInLength="0/1"  name="cursorOpacity"/>
             <InterpolatingParam id="949" interp="linr"  time="0/1" value="0" leadInLength="0/1"  name="cursorScale"/>
            </Parameters>
            <Attributes>
             <Attribute id="950" value="" name="ident"/>
            </Attributes>
            <MetaData>
             <entry key="AutoAppliedSmartFocus" val="False"/>
             <entry key="WinSubProjectDisplayName" val=""/>
            </MetaData>
            <ExtraData>
             <Entry key="ZoomPanBin">
              <ZoomPanBin id="951"  >
               <ZoomPanKeyframes>
                <ZoomPanKeyframe id="952" timeRangeEnd="-9999999/1" timeRangeDuration="0/1" interpolaterName=""  />
               </ZoomPanKeyframes>
              </ZoomPanBin>
             </Entry>
             <Entry key="CursorEffectBin">
              <CursorEffectBin id="953"  >
               <CursorEffectKeyframes>
               </CursorEffectKeyframes>
              </CursorEffectBin>
             </Entry>
            </ExtraData>
           </ScreenVMFile>
           <ScreenVMFile id="954" start="11250" duration="35" scalar="1/1" mediaStart="11263/1" mediaDuration="35/1" trackNumber="0" src="8" >
            <Transformer>
             <VectorParam id="955"  name="translation">
              <InterpolatingParam id="956" interp="linr"  time="-9999999/1" value="0" leadInLength="0/1"  />
              <InterpolatingParam id="957" interp="linr"  time="-9999999/1" value="0" leadInLength="0/1"  />
              <InterpolatingParam id="958" interp="linr"  time="-9999999/1" value="0" leadInLength="0/1"  />
             </VectorParam>
             <VectorParam id="959"  name="rotation">
              <InterpolatingParam id="960" interp="linr"  time="-9999999/1" value="0" leadInLength="0/1"  />
              <InterpolatingParam id="961" interp="linr"  time="-9999999/1" value="0" leadInLength="0/1"  />
              <InterpolatingParam id="962" interp="linr"  time="-9999999/1" value="0" leadInLength="0/1"  />
             </VectorParam>
             <VectorParam id="963"  name="shear">
              <InterpolatingParam id="964" interp="linr"  time="-9999999/1" value="0" leadInLength="0/1"  />
              <InterpolatingParam id="965" interp="linr"  time="-9999999/1" value="0" leadInLength="0/1"  />
              <InterpolatingParam id="966" interp="linr"  time="-9999999/1" value="0" leadInLength="0/1"  />
             </VectorParam>
             <VectorParam id="967"  name="scale">
              <InterpolatingParam id="968" interp="linr"  time="-9999999/1" value="1" leadInLength="0/1"  />
              <InterpolatingParam id="969" interp="linr"  time="-9999999/1" value="1" leadInLength="0/1"  />
              <InterpolatingParam id="970" interp="linr"  time="-9999999/1" value="1" leadInLength="0/1"  />
             </VectorParam>
             <VectorParam id="971"  name="anchor">
              <InterpolatingParam id="972" interp="linr"  time="0/1" value="0" leadInLength="0/1"  />
              <InterpolatingParam id="973" interp="linr"  time="0/1" value="0" leadInLength="0/1"  />
              <InterpolatingParam id="974" interp="linr"  time="0/1" value="0" leadInLength="0/1"  />
             </VectorParam>
            </Transformer>
            <Parameters>
             <VectorParam id="975"  name="sourceCrop">
              <InterpolatingParam id="976" interp="linr"  time="0/1" value="0" leadInLength="0/1"  />
              <InterpolatingParam id="977" interp="linr"  time="0/1" value="0" leadInLength="0/1"  />
              <InterpolatingParam id="978" interp="linr"  time="0/1" value="0" leadInLength="0/1"  />
              <InterpolatingParam id="979" interp="linr"  time="0/1" value="0" leadInLength="0/1"  />
             </VectorParam>
             <VectorParam id="980"  name="geometryCrop">
              <InterpolatingParam id="981" interp="linr"  time="-9999999/1" value="0" leadInLength="0/1"  />
              <InterpolatingParam id="982" interp="linr"  time="-9999999/1" value="0" leadInLength="0/1"  />
              <InterpolatingParam id="983" interp="linr"  time="-9999999/1" value="0" leadInLength="0/1"  />
              <InterpolatingParam id="984" interp="linr"  time="-9999999/1" value="0" leadInLength="0/1"  />
             </VectorParam>
             <InterpolatingParam id="985" interp="linr"  time="-9999999/1" value="1" leadInLength="0/1"  name="opacity"/>
             <InterpolatingParam id="986" interp="linr"  time="0/1" value="0" leadInLength="0/1"  name="cursorOpacity"/>
             <InterpolatingParam id="987" interp="linr"  time="0/1" value="0" leadInLength="0/1"  name="cursorScale"/>
            </Parameters>
            <Attributes>
             <Attribute id="988" value="" name="ident"/>
            </Attributes>
            <MetaData>
             <entry key="AutoAppliedSmartFocus" val="False"/>
             <entry key="WinSubProjectDisplayName" val=""/>
            </MetaData>
            <ExtraData>
             <Entry key="ZoomPanBin">
              <ZoomPanBin id="989"  >
               <ZoomPanKeyframes>
                <ZoomPanKeyframe id="990" timeRangeEnd="-9999999/1" timeRangeDuration="0/1" interpolaterName=""  />
               </ZoomPanKeyframes>
              </ZoomPanBin>
             </Entry>
             <Entry key="CursorEffectBin">
              <CursorEffectBin id="991"  >
               <CursorEffectKeyframes>
               </CursorEffectKeyframes>
              </CursorEffectBin>
             </Entry>
            </ExtraData>
           </ScreenVMFile>
           <ScreenVMFile id="992" start="11285" duration="51" scalar="1/1" mediaStart="11302/1" mediaDuration="51/1" trackNumber="0" src="8" >
            <Transformer>
             <VectorParam id="993"  name="translation">
              <InterpolatingParam id="994" interp="linr"  time="-9999999/1" value="0" leadInLength="0/1"  />
              <InterpolatingParam id="995" interp="linr"  time="-9999999/1" value="0" leadInLength="0/1"  />
              <InterpolatingParam id="996" interp="linr"  time="-9999999/1" value="0" leadInLength="0/1"  />
             </VectorParam>
             <VectorParam id="997"  name="rotation">
              <InterpolatingParam id="998" interp="linr"  time="-9999999/1" value="0" leadInLength="0/1"  />
              <InterpolatingParam id="999" interp="linr"  time="-9999999/1" value="0" leadInLength="0/1"  />
              <InterpolatingParam id="1000" interp="linr"  time="-9999999/1" value="0" leadInLength="0/1"  />
             </VectorParam>
             <VectorParam id="1001"  name="shear">
              <InterpolatingParam id="1002" interp="linr"  time="-9999999/1" value="0" leadInLength="0/1"  />
              <InterpolatingParam id="1003" interp="linr"  time="-9999999/1" value="0" leadInLength="0/1"  />
              <InterpolatingParam id="1004" interp="linr"  time="-9999999/1" value="0" leadInLength="0/1"  />
             </VectorParam>
             <VectorParam id="1005"  name="scale">
              <InterpolatingParam id="1006" interp="linr"  time="-9999999/1" value="1" leadInLength="0/1"  />
              <InterpolatingParam id="1007" interp="linr"  time="-9999999/1" value="1" leadInLength="0/1"  />
              <InterpolatingParam id="1008" interp="linr"  time="-9999999/1" value="1" leadInLength="0/1"  />
             </VectorParam>
             <VectorParam id="1009"  name="anchor">
              <InterpolatingParam id="1010" interp="linr"  time="0/1" value="0" leadInLength="0/1"  />
              <InterpolatingParam id="1011" interp="linr"  time="0/1" value="0" leadInLength="0/1"  />
              <InterpolatingParam id="1012" interp="linr"  time="0/1" value="0" leadInLength="0/1"  />
             </VectorParam>
            </Transformer>
            <Parameters>
             <VectorParam id="1013"  name="sourceCrop">
              <InterpolatingParam id="1014" interp="linr"  time="0/1" value="0" leadInLength="0/1"  />
              <InterpolatingParam id="1015" interp="linr"  time="0/1" value="0" leadInLength="0/1"  />
              <InterpolatingParam id="1016" interp="linr"  time="0/1" value="0" leadInLength="0/1"  />
              <InterpolatingParam id="1017" interp="linr"  time="0/1" value="0" leadInLength="0/1"  />
             </VectorParam>
             <VectorParam id="1018"  name="geometryCrop">
              <InterpolatingParam id="1019" interp="linr"  time="-9999999/1" value="0" leadInLength="0/1"  />
              <InterpolatingParam id="1020" interp="linr"  time="-9999999/1" value="0" leadInLength="0/1"  />
              <InterpolatingParam id="1021" interp="linr"  time="-9999999/1" value="0" leadInLength="0/1"  />
              <InterpolatingParam id="1022" interp="linr"  time="-9999999/1" value="0" leadInLength="0/1"  />
             </VectorParam>
             <InterpolatingParam id="1023" interp="linr"  time="-9999999/1" value="1" leadInLength="0/1"  name="opacity"/>
             <InterpolatingParam id="1024" interp="linr"  time="0/1" value="0" leadInLength="0/1"  name="cursorOpacity"/>
             <InterpolatingParam id="1025" interp="linr"  time="0/1" value="0" leadInLength="0/1"  name="cursorScale"/>
            </Parameters>
            <Attributes>
             <Attribute id="1026" value="" name="ident"/>
            </Attributes>
            <MetaData>
             <entry key="AutoAppliedSmartFocus" val="False"/>
             <entry key="WinSubProjectDisplayName" val=""/>
            </MetaData>
            <ExtraData>
             <Entry key="ZoomPanBin">
              <ZoomPanBin id="1027"  >
               <ZoomPanKeyframes>
                <ZoomPanKeyframe id="1028" timeRangeEnd="-9999999/1" timeRangeDuration="0/1" interpolaterName=""  />
               </ZoomPanKeyframes>
              </ZoomPanBin>
             </Entry>
             <Entry key="CursorEffectBin">
              <CursorEffectBin id="1029"  >
               <CursorEffectKeyframes>
               </CursorEffectKeyframes>
              </CursorEffectBin>
             </Entry>
            </ExtraData>
           </ScreenVMFile>
           <ScreenVMFile id="1030" start="11336" duration="1" scalar="1/1" mediaStart="11357/1" mediaDuration="1/1" trackNumber="0" src="8" >
            <Transformer>
             <VectorParam id="1031"  name="translation">
              <InterpolatingParam id="1032" interp="linr"  time="-9999999/1" value="0" leadInLength="0/1"  />
              <InterpolatingParam id="1033" interp="linr"  time="-9999999/1" value="0" leadInLength="0/1"  />
              <InterpolatingParam id="1034" interp="linr"  time="-9999999/1" value="0" leadInLength="0/1"  />
             </VectorParam>
             <VectorParam id="1035"  name="rotation">
              <InterpolatingParam id="1036" interp="linr"  time="-9999999/1" value="0" leadInLength="0/1"  />
              <InterpolatingParam id="1037" interp="linr"  time="-9999999/1" value="0" leadInLength="0/1"  />
              <InterpolatingParam id="1038" interp="linr"  time="-9999999/1" value="0" leadInLength="0/1"  />
             </VectorParam>
             <VectorParam id="1039"  name="shear">
              <InterpolatingParam id="1040" interp="linr"  time="-9999999/1" value="0" leadInLength="0/1"  />
              <InterpolatingParam id="1041" interp="linr"  time="-9999999/1" value="0" leadInLength="0/1"  />
              <InterpolatingParam id="1042" interp="linr"  time="-9999999/1" value="0" leadInLength="0/1"  />
             </VectorParam>
             <VectorParam id="1043"  name="scale">
              <InterpolatingParam id="1044" interp="linr"  time="-9999999/1" value="1" leadInLength="0/1"  />
              <InterpolatingParam id="1045" interp="linr"  time="-9999999/1" value="1" leadInLength="0/1"  />
              <InterpolatingParam id="1046" interp="linr"  time="-9999999/1" value="1" leadInLength="0/1"  />
             </VectorParam>
             <VectorParam id="1047"  name="anchor">
              <InterpolatingParam id="1048" interp="linr"  time="0/1" value="0" leadInLength="0/1"  />
              <InterpolatingParam id="1049" interp="linr"  time="0/1" value="0" leadInLength="0/1"  />
              <InterpolatingParam id="1050" interp="linr"  time="0/1" value="0" leadInLength="0/1"  />
             </VectorParam>
            </Transformer>
            <Parameters>
             <VectorParam id="1051"  name="sourceCrop">
              <InterpolatingParam id="1052" interp="linr"  time="0/1" value="0" leadInLength="0/1"  />
              <InterpolatingParam id="1053" interp="linr"  time="0/1" value="0" leadInLength="0/1"  />
              <InterpolatingParam id="1054" interp="linr"  time="0/1" value="0" leadInLength="0/1"  />
              <InterpolatingParam id="1055" interp="linr"  time="0/1" value="0" leadInLength="0/1"  />
             </VectorParam>
             <VectorParam id="1056"  name="geometryCrop">
              <InterpolatingParam id="1057" interp="linr"  time="-9999999/1" value="0" leadInLength="0/1"  />
              <InterpolatingParam id="1058" interp="linr"  time="-9999999/1" value="0" leadInLength="0/1"  />
              <InterpolatingParam id="1059" interp="linr"  time="-9999999/1" value="0" leadInLength="0/1"  />
              <InterpolatingParam id="1060" interp="linr"  time="-9999999/1" value="0" leadInLength="0/1"  />
             </VectorParam>
             <InterpolatingParam id="1061" interp="linr"  time="-9999999/1" value="1" leadInLength="0/1"  name="opacity"/>
             <InterpolatingParam id="1062" interp="linr"  time="0/1" value="0" leadInLength="0/1"  name="cursorOpacity"/>
             <InterpolatingParam id="1063" interp="linr"  time="0/1" value="0" leadInLength="0/1"  name="cursorScale"/>
            </Parameters>
            <Attributes>
             <Attribute id="1064" value="" name="ident"/>
            </Attributes>
            <MetaData>
             <entry key="AutoAppliedSmartFocus" val="False"/>
             <entry key="WinSubProjectDisplayName" val=""/>
            </MetaData>
            <ExtraData>
             <Entry key="ZoomPanBin">
              <ZoomPanBin id="1065"  >
               <ZoomPanKeyframes>
                <ZoomPanKeyframe id="1066" timeRangeEnd="-9999999/1" timeRangeDuration="0/1" interpolaterName=""  />
               </ZoomPanKeyframes>
              </ZoomPanBin>
             </Entry>
             <Entry key="CursorEffectBin">
              <CursorEffectBin id="1067"  >
               <CursorEffectKeyframes>
               </CursorEffectKeyframes>
              </CursorEffectBin>
             </Entry>
            </ExtraData>
           </ScreenVMFile>
           <ScreenVMFile id="1068" start="11337" duration="92" scalar="1/1" mediaStart="11363/1" mediaDuration="92/1" trackNumber="0" src="8" >
            <Transformer>
             <VectorParam id="1069"  name="translation">
              <InterpolatingParam id="1070" interp="linr"  time="-9999999/1" value="0" leadInLength="0/1"  />
              <InterpolatingParam id="1071" interp="linr"  time="-9999999/1" value="0" leadInLength="0/1"  />
              <InterpolatingParam id="1072" interp="linr"  time="-9999999/1" value="0" leadInLength="0/1"  />
             </VectorParam>
             <VectorParam id="1073"  name="rotation">
              <InterpolatingParam id="1074" interp="linr"  time="-9999999/1" value="0" leadInLength="0/1"  />
              <InterpolatingParam id="1075" interp="linr"  time="-9999999/1" value="0" leadInLength="0/1"  />
              <InterpolatingParam id="1076" interp="linr"  time="-9999999/1" value="0" leadInLength="0/1"  />
             </VectorParam>
             <VectorParam id="1077"  name="shear">
              <InterpolatingParam id="1078" interp="linr"  time="-9999999/1" value="0" leadInLength="0/1"  />
              <InterpolatingParam id="1079" interp="linr"  time="-9999999/1" value="0" leadInLength="0/1"  />
              <InterpolatingParam id="1080" interp="linr"  time="-9999999/1" value="0" leadInLength="0/1"  />
             </VectorParam>
             <VectorParam id="1081"  name="scale">
              <InterpolatingParam id="1082" interp="linr"  time="-9999999/1" value="1" leadInLength="0/1"  />
              <InterpolatingParam id="1083" interp="linr"  time="-9999999/1" value="1" leadInLength="0/1"  />
              <InterpolatingParam id="1084" interp="linr"  time="-9999999/1" value="1" leadInLength="0/1"  />
             </VectorParam>
             <VectorParam id="1085"  name="anchor">
              <InterpolatingParam id="1086" interp="linr"  time="0/1" value="0" leadInLength="0/1"  />
              <InterpolatingParam id="1087" interp="linr"  time="0/1" value="0" leadInLength="0/1"  />
              <InterpolatingParam id="1088" interp="linr"  time="0/1" value="0" leadInLength="0/1"  />
             </VectorParam>
            </Transformer>
            <Parameters>
             <VectorParam id="1089"  name="sourceCrop">
              <InterpolatingParam id="1090" interp="linr"  time="0/1" value="0" leadInLength="0/1"  />
              <InterpolatingParam id="1091" interp="linr"  time="0/1" value="0" leadInLength="0/1"  />
              <InterpolatingParam id="1092" interp="linr"  time="0/1" value="0" leadInLength="0/1"  />
              <InterpolatingParam id="1093" interp="linr"  time="0/1" value="0" leadInLength="0/1"  />
             </VectorParam>
             <VectorParam id="1094"  name="geometryCrop">
              <InterpolatingParam id="1095" interp="linr"  time="-9999999/1" value="0" leadInLength="0/1"  />
              <InterpolatingParam id="1096" interp="linr"  time="-9999999/1" value="0" leadInLength="0/1"  />
              <InterpolatingParam id="1097" interp="linr"  time="-9999999/1" value="0" leadInLength="0/1"  />
              <InterpolatingParam id="1098" interp="linr"  time="-9999999/1" value="0" leadInLength="0/1"  />
             </VectorParam>
             <InterpolatingParam id="1099" interp="linr"  time="-9999999/1" value="1" leadInLength="0/1"  name="opacity"/>
             <InterpolatingParam id="1100" interp="linr"  time="0/1" value="0" leadInLength="0/1"  name="cursorOpacity"/>
             <InterpolatingParam id="1101" interp="linr"  time="0/1" value="0" leadInLength="0/1"  name="cursorScale"/>
            </Parameters>
            <Attributes>
             <Attribute id="1102" value="" name="ident"/>
            </Attributes>
            <MetaData>
             <entry key="AutoAppliedSmartFocus" val="False"/>
             <entry key="WinSubProjectDisplayName" val=""/>
            </MetaData>
            <ExtraData>
             <Entry key="ZoomPanBin">
              <ZoomPanBin id="1103"  >
               <ZoomPanKeyframes>
                <ZoomPanKeyframe id="1104" timeRangeEnd="-9999999/1" timeRangeDuration="0/1" interpolaterName=""  />
               </ZoomPanKeyframes>
              </ZoomPanBin>
             </Entry>
             <Entry key="CursorEffectBin">
              <CursorEffectBin id="1105"  >
               <CursorEffectKeyframes>
               </CursorEffectKeyframes>
              </CursorEffectBin>
             </Entry>
            </ExtraData>
           </ScreenVMFile>
           <ScreenVMFile id="1106" start="11429" duration="117" scalar="1/1" mediaStart="11462/1" mediaDuration="117/1" trackNumber="0" src="8" >
            <Transformer>
             <VectorParam id="1107"  name="translation">
              <InterpolatingParam id="1108" interp="linr"  time="-9999999/1" value="0" leadInLength="0/1"  />
              <InterpolatingParam id="1109" interp="linr"  time="-9999999/1" value="0" leadInLength="0/1"  />
              <InterpolatingParam id="1110" interp="linr"  time="-9999999/1" value="0" leadInLength="0/1"  />
             </VectorParam>
             <VectorParam id="1111"  name="rotation">
              <InterpolatingParam id="1112" interp="linr"  time="-9999999/1" value="0" leadInLength="0/1"  />
              <InterpolatingParam id="1113" interp="linr"  time="-9999999/1" value="0" leadInLength="0/1"  />
              <InterpolatingParam id="1114" interp="linr"  time="-9999999/1" value="0" leadInLength="0/1"  />
             </VectorParam>
             <VectorParam id="1115"  name="shear">
              <InterpolatingParam id="1116" interp="linr"  time="-9999999/1" value="0" leadInLength="0/1"  />
              <InterpolatingParam id="1117" interp="linr"  time="-9999999/1" value="0" leadInLength="0/1"  />
              <InterpolatingParam id="1118" interp="linr"  time="-9999999/1" value="0" leadInLength="0/1"  />
             </VectorParam>
             <VectorParam id="1119"  name="scale">
              <InterpolatingParam id="1120" interp="linr"  time="-9999999/1" value="1" leadInLength="0/1"  />
              <InterpolatingParam id="1121" interp="linr"  time="-9999999/1" value="1" leadInLength="0/1"  />
              <InterpolatingParam id="1122" interp="linr"  time="-9999999/1" value="1" leadInLength="0/1"  />
             </VectorParam>
             <VectorParam id="1123"  name="anchor">
              <InterpolatingParam id="1124" interp="linr"  time="0/1" value="0" leadInLength="0/1"  />
              <InterpolatingParam id="1125" interp="linr"  time="0/1" value="0" leadInLength="0/1"  />
              <InterpolatingParam id="1126" interp="linr"  time="0/1" value="0" leadInLength="0/1"  />
             </VectorParam>
            </Transformer>
            <Parameters>
             <VectorParam id="1127"  name="sourceCrop">
              <InterpolatingParam id="1128" interp="linr"  time="0/1" value="0" leadInLength="0/1"  />
              <InterpolatingParam id="1129" interp="linr"  time="0/1" value="0" leadInLength="0/1"  />
              <InterpolatingParam id="1130" interp="linr"  time="0/1" value="0" leadInLength="0/1"  />
              <InterpolatingParam id="1131" interp="linr"  time="0/1" value="0" leadInLength="0/1"  />
             </VectorParam>
             <VectorParam id="1132"  name="geometryCrop">
              <InterpolatingParam id="1133" interp="linr"  time="-9999999/1" value="0" leadInLength="0/1"  />
              <InterpolatingParam id="1134" interp="linr"  time="-9999999/1" value="0" leadInLength="0/1"  />
              <InterpolatingParam id="1135" interp="linr"  time="-9999999/1" value="0" leadInLength="0/1"  />
              <InterpolatingParam id="1136" interp="linr"  time="-9999999/1" value="0" leadInLength="0/1"  />
             </VectorParam>
             <InterpolatingParam id="1137" interp="linr"  time="-9999999/1" value="1" leadInLength="0/1"  name="opacity"/>
             <InterpolatingParam id="1138" interp="linr"  time="0/1" value="0" leadInLength="0/1"  name="cursorOpacity"/>
             <InterpolatingParam id="1139" interp="linr"  time="0/1" value="0" leadInLength="0/1"  name="cursorScale"/>
            </Parameters>
            <Attributes>
             <Attribute id="1140" value="" name="ident"/>
            </Attributes>
            <MetaData>
             <entry key="AutoAppliedSmartFocus" val="False"/>
             <entry key="WinSubProjectDisplayName" val=""/>
            </MetaData>
            <ExtraData>
             <Entry key="ZoomPanBin">
              <ZoomPanBin id="1141"  >
               <ZoomPanKeyframes>
                <ZoomPanKeyframe id="1142" timeRangeEnd="-9999999/1" timeRangeDuration="0/1" interpolaterName=""  />
               </ZoomPanKeyframes>
              </ZoomPanBin>
             </Entry>
             <Entry key="CursorEffectBin">
              <CursorEffectBin id="1143"  >
               <CursorEffectKeyframes>
               </CursorEffectKeyframes>
              </CursorEffectBin>
             </Entry>
            </ExtraData>
           </ScreenVMFile>
           <ScreenVMFile id="1144" start="11546" duration="63" scalar="1/1" mediaStart="11597/1" mediaDuration="63/1" trackNumber="0" src="8" >
            <Transformer>
             <VectorParam id="1145"  name="translation">
              <InterpolatingParam id="1146" interp="linr"  time="-9999999/1" value="0" leadInLength="0/1"  />
              <InterpolatingParam id="1147" interp="linr"  time="-9999999/1" value="0" leadInLength="0/1"  />
              <InterpolatingParam id="1148" interp="linr"  time="-9999999/1" value="0" leadInLength="0/1"  />
             </VectorParam>
             <VectorParam id="1149"  name="rotation">
              <InterpolatingParam id="1150" interp="linr"  time="-9999999/1" value="0" leadInLength="0/1"  />
              <InterpolatingParam id="1151" interp="linr"  time="-9999999/1" value="0" leadInLength="0/1"  />
              <InterpolatingParam id="1152" interp="linr"  time="-9999999/1" value="0" leadInLength="0/1"  />
             </VectorParam>
             <VectorParam id="1153"  name="shear">
              <InterpolatingParam id="1154" interp="linr"  time="-9999999/1" value="0" leadInLength="0/1"  />
              <InterpolatingParam id="1155" interp="linr"  time="-9999999/1" value="0" leadInLength="0/1"  />
              <InterpolatingParam id="1156" interp="linr"  time="-9999999/1" value="0" leadInLength="0/1"  />
             </VectorParam>
             <VectorParam id="1157"  name="scale">
              <InterpolatingParam id="1158" interp="linr"  time="-9999999/1" value="1" leadInLength="0/1"  />
              <InterpolatingParam id="1159" interp="linr"  time="-9999999/1" value="1" leadInLength="0/1"  />
              <InterpolatingParam id="1160" interp="linr"  time="-9999999/1" value="1" leadInLength="0/1"  />
             </VectorParam>
             <VectorParam id="1161"  name="anchor">
              <InterpolatingParam id="1162" interp="linr"  time="0/1" value="0" leadInLength="0/1"  />
              <InterpolatingParam id="1163" interp="linr"  time="0/1" value="0" leadInLength="0/1"  />
              <InterpolatingParam id="1164" interp="linr"  time="0/1" value="0" leadInLength="0/1"  />
             </VectorParam>
            </Transformer>
            <Parameters>
             <VectorParam id="1165"  name="sourceCrop">
              <InterpolatingParam id="1166" interp="linr"  time="0/1" value="0" leadInLength="0/1"  />
              <InterpolatingParam id="1167" interp="linr"  time="0/1" value="0" leadInLength="0/1"  />
              <InterpolatingParam id="1168" interp="linr"  time="0/1" value="0" leadInLength="0/1"  />
              <InterpolatingParam id="1169" interp="linr"  time="0/1" value="0" leadInLength="0/1"  />
             </VectorParam>
             <VectorParam id="1170"  name="geometryCrop">
              <InterpolatingParam id="1171" interp="linr"  time="-9999999/1" value="0" leadInLength="0/1"  />
              <InterpolatingParam id="1172" interp="linr"  time="-9999999/1" value="0" leadInLength="0/1"  />
              <InterpolatingParam id="1173" interp="linr"  time="-9999999/1" value="0" leadInLength="0/1"  />
              <InterpolatingParam id="1174" interp="linr"  time="-9999999/1" value="0" leadInLength="0/1"  />
             </VectorParam>
             <InterpolatingParam id="1175" interp="linr"  time="-9999999/1" value="1" leadInLength="0/1"  name="opacity"/>
             <InterpolatingParam id="1176" interp="linr"  time="0/1" value="0" leadInLength="0/1"  name="cursorOpacity"/>
             <InterpolatingParam id="1177" interp="linr"  time="0/1" value="0" leadInLength="0/1"  name="cursorScale"/>
            </Parameters>
            <Attributes>
             <Attribute id="1178" value="" name="ident"/>
            </Attributes>
            <MetaData>
             <entry key="AutoAppliedSmartFocus" val="False"/>
             <entry key="WinSubProjectDisplayName" val=""/>
            </MetaData>
            <ExtraData>
             <Entry key="ZoomPanBin">
              <ZoomPanBin id="1179"  >
               <ZoomPanKeyframes>
                <ZoomPanKeyframe id="1180" timeRangeEnd="-9999999/1" timeRangeDuration="0/1" interpolaterName=""  />
               </ZoomPanKeyframes>
              </ZoomPanBin>
             </Entry>
             <Entry key="CursorEffectBin">
              <CursorEffectBin id="1181"  >
               <CursorEffectKeyframes>
               </CursorEffectKeyframes>
              </CursorEffectBin>
             </Entry>
            </ExtraData>
           </ScreenVMFile>
           <ScreenVMFile id="1182" start="11609" duration="147" scalar="1/1" mediaStart="11671/1" mediaDuration="147/1" trackNumber="0" src="8" >
            <Transformer>
             <VectorParam id="1183"  name="translation">
              <InterpolatingParam id="1184" interp="linr"  time="-9999999/1" value="0" leadInLength="0/1"  />
              <InterpolatingParam id="1185" interp="linr"  time="-9999999/1" value="0" leadInLength="0/1"  />
              <InterpolatingParam id="1186" interp="linr"  time="-9999999/1" value="0" leadInLength="0/1"  />
             </VectorParam>
             <VectorParam id="1187"  name="rotation">
              <InterpolatingParam id="1188" interp="linr"  time="-9999999/1" value="0" leadInLength="0/1"  />
              <InterpolatingParam id="1189" interp="linr"  time="-9999999/1" value="0" leadInLength="0/1"  />
              <InterpolatingParam id="1190" interp="linr"  time="-9999999/1" value="0" leadInLength="0/1"  />
             </VectorParam>
             <VectorParam id="1191"  name="shear">
              <InterpolatingParam id="1192" interp="linr"  time="-9999999/1" value="0" leadInLength="0/1"  />
              <InterpolatingParam id="1193" interp="linr"  time="-9999999/1" value="0" leadInLength="0/1"  />
              <InterpolatingParam id="1194" interp="linr"  time="-9999999/1" value="0" leadInLength="0/1"  />
             </VectorParam>
             <VectorParam id="1195"  name="scale">
              <InterpolatingParam id="1196" interp="linr"  time="-9999999/1" value="1" leadInLength="0/1"  />
              <InterpolatingParam id="1197" interp="linr"  time="-9999999/1" value="1" leadInLength="0/1"  />
              <InterpolatingParam id="1198" interp="linr"  time="-9999999/1" value="1" leadInLength="0/1"  />
             </VectorParam>
             <VectorParam id="1199"  name="anchor">
              <InterpolatingParam id="1200" interp="linr"  time="0/1" value="0" leadInLength="0/1"  />
              <InterpolatingParam id="1201" interp="linr"  time="0/1" value="0" leadInLength="0/1"  />
              <InterpolatingParam id="1202" interp="linr"  time="0/1" value="0" leadInLength="0/1"  />
             </VectorParam>
            </Transformer>
            <Parameters>
             <VectorParam id="1203"  name="sourceCrop">
              <InterpolatingParam id="1204" interp="linr"  time="0/1" value="0" leadInLength="0/1"  />
              <InterpolatingParam id="1205" interp="linr"  time="0/1" value="0" leadInLength="0/1"  />
              <InterpolatingParam id="1206" interp="linr"  time="0/1" value="0" leadInLength="0/1"  />
              <InterpolatingParam id="1207" interp="linr"  time="0/1" value="0" leadInLength="0/1"  />
             </VectorParam>
             <VectorParam id="1208"  name="geometryCrop">
              <InterpolatingParam id="1209" interp="linr"  time="-9999999/1" value="0" leadInLength="0/1"  />
              <InterpolatingParam id="1210" interp="linr"  time="-9999999/1" value="0" leadInLength="0/1"  />
              <InterpolatingParam id="1211" interp="linr"  time="-9999999/1" value="0" leadInLength="0/1"  />
              <InterpolatingParam id="1212" interp="linr"  time="-9999999/1" value="0" leadInLength="0/1"  />
             </VectorParam>
             <InterpolatingParam id="1213" interp="linr"  time="-9999999/1" value="1" leadInLength="0/1"  name="opacity"/>
             <InterpolatingParam id="1214" interp="linr"  time="0/1" value="0" leadInLength="0/1"  name="cursorOpacity"/>
             <InterpolatingParam id="1215" interp="linr"  time="0/1" value="0" leadInLength="0/1"  name="cursorScale"/>
            </Parameters>
            <Attributes>
             <Attribute id="1216" value="" name="ident"/>
            </Attributes>
            <MetaData>
             <entry key="AutoAppliedSmartFocus" val="False"/>
             <entry key="WinSubProjectDisplayName" val=""/>
            </MetaData>
            <ExtraData>
             <Entry key="ZoomPanBin">
              <ZoomPanBin id="1217"  >
               <ZoomPanKeyframes>
                <ZoomPanKeyframe id="1218" timeRangeEnd="-9999999/1" timeRangeDuration="0/1" interpolaterName=""  />
               </ZoomPanKeyframes>
              </ZoomPanBin>
             </Entry>
             <Entry key="CursorEffectBin">
              <CursorEffectBin id="1219"  >
               <CursorEffectKeyframes>
               </CursorEffectKeyframes>
              </CursorEffectBin>
             </Entry>
            </ExtraData>
           </ScreenVMFile>
           <ScreenVMFile id="1220" start="11756" duration="79" scalar="1/1" mediaStart="11834/1" mediaDuration="79/1" trackNumber="0" src="8" >
            <Transformer>
             <VectorParam id="1221"  name="translation">
              <InterpolatingParam id="1222" interp="linr"  time="-9999999/1" value="0" leadInLength="0/1"  />
              <InterpolatingParam id="1223" interp="linr"  time="-9999999/1" value="0" leadInLength="0/1"  />
              <InterpolatingParam id="1224" interp="linr"  time="-9999999/1" value="0" leadInLength="0/1"  />
             </VectorParam>
             <VectorParam id="1225"  name="rotation">
              <InterpolatingParam id="1226" interp="linr"  time="-9999999/1" value="0" leadInLength="0/1"  />
              <InterpolatingParam id="1227" interp="linr"  time="-9999999/1" value="0" leadInLength="0/1"  />
              <InterpolatingParam id="1228" interp="linr"  time="-9999999/1" value="0" leadInLength="0/1"  />
             </VectorParam>
             <VectorParam id="1229"  name="shear">
              <InterpolatingParam id="1230" interp="linr"  time="-9999999/1" value="0" leadInLength="0/1"  />
              <InterpolatingParam id="1231" interp="linr"  time="-9999999/1" value="0" leadInLength="0/1"  />
              <InterpolatingParam id="1232" interp="linr"  time="-9999999/1" value="0" leadInLength="0/1"  />
             </VectorParam>
             <VectorParam id="1233"  name="scale">
              <InterpolatingParam id="1234" interp="linr"  time="-9999999/1" value="1" leadInLength="0/1"  />
              <InterpolatingParam id="1235" interp="linr"  time="-9999999/1" value="1" leadInLength="0/1"  />
              <InterpolatingParam id="1236" interp="linr"  time="-9999999/1" value="1" leadInLength="0/1"  />
             </VectorParam>
             <VectorParam id="1237"  name="anchor">
              <InterpolatingParam id="1238" interp="linr"  time="0/1" value="0" leadInLength="0/1"  />
              <InterpolatingParam id="1239" interp="linr"  time="0/1" value="0" leadInLength="0/1"  />
              <InterpolatingParam id="1240" interp="linr"  time="0/1" value="0" leadInLength="0/1"  />
             </VectorParam>
            </Transformer>
            <Parameters>
             <VectorParam id="1241"  name="sourceCrop">
              <InterpolatingParam id="1242" interp="linr"  time="0/1" value="0" leadInLength="0/1"  />
              <InterpolatingParam id="1243" interp="linr"  time="0/1" value="0" leadInLength="0/1"  />
              <InterpolatingParam id="1244" interp="linr"  time="0/1" value="0" leadInLength="0/1"  />
              <InterpolatingParam id="1245" interp="linr"  time="0/1" value="0" leadInLength="0/1"  />
             </VectorParam>
             <VectorParam id="1246"  name="geometryCrop">
              <InterpolatingParam id="1247" interp="linr"  time="-9999999/1" value="0" leadInLength="0/1"  />
              <InterpolatingParam id="1248" interp="linr"  time="-9999999/1" value="0" leadInLength="0/1"  />
              <InterpolatingParam id="1249" interp="linr"  time="-9999999/1" value="0" leadInLength="0/1"  />
              <InterpolatingParam id="1250" interp="linr"  time="-9999999/1" value="0" leadInLength="0/1"  />
             </VectorParam>
             <InterpolatingParam id="1251" interp="linr"  time="-9999999/1" value="1" leadInLength="0/1"  name="opacity"/>
             <InterpolatingParam id="1252" interp="linr"  time="0/1" value="0" leadInLength="0/1"  name="cursorOpacity"/>
             <InterpolatingParam id="1253" interp="linr"  time="0/1" value="0" leadInLength="0/1"  name="cursorScale"/>
            </Parameters>
            <Attributes>
             <Attribute id="1254" value="" name="ident"/>
            </Attributes>
            <MetaData>
             <entry key="AutoAppliedSmartFocus" val="False"/>
             <entry key="WinSubProjectDisplayName" val=""/>
            </MetaData>
            <ExtraData>
             <Entry key="ZoomPanBin">
              <ZoomPanBin id="1255"  >
               <ZoomPanKeyframes>
                <ZoomPanKeyframe id="1256" timeRangeEnd="-9999999/1" timeRangeDuration="0/1" interpolaterName=""  />
               </ZoomPanKeyframes>
              </ZoomPanBin>
             </Entry>
             <Entry key="CursorEffectBin">
              <CursorEffectBin id="1257"  >
               <CursorEffectKeyframes>
               </CursorEffectKeyframes>
              </CursorEffectBin>
             </Entry>
            </ExtraData>
           </ScreenVMFile>
           <ScreenVMFile id="1258" start="11835" duration="163" scalar="1/1" mediaStart="11919/1" mediaDuration="163/1" trackNumber="0" src="8" >
            <Transformer>
             <VectorParam id="1259"  name="translation">
              <InterpolatingParam id="1260" interp="linr"  time="-9999999/1" value="0" leadInLength="0/1"  />
              <InterpolatingParam id="1261" interp="linr"  time="-9999999/1" value="0" leadInLength="0/1"  />
              <InterpolatingParam id="1262" interp="linr"  time="-9999999/1" value="0" leadInLength="0/1"  />
             </VectorParam>
             <VectorParam id="1263"  name="rotation">
              <InterpolatingParam id="1264" interp="linr"  time="-9999999/1" value="0" leadInLength="0/1"  />
              <InterpolatingParam id="1265" interp="linr"  time="-9999999/1" value="0" leadInLength="0/1"  />
              <InterpolatingParam id="1266" interp="linr"  time="-9999999/1" value="0" leadInLength="0/1"  />
             </VectorParam>
             <VectorParam id="1267"  name="shear">
              <InterpolatingParam id="1268" interp="linr"  time="-9999999/1" value="0" leadInLength="0/1"  />
              <InterpolatingParam id="1269" interp="linr"  time="-9999999/1" value="0" leadInLength="0/1"  />
              <InterpolatingParam id="1270" interp="linr"  time="-9999999/1" value="0" leadInLength="0/1"  />
             </VectorParam>
             <VectorParam id="1271"  name="scale">
              <InterpolatingParam id="1272" interp="linr"  time="-9999999/1" value="1" leadInLength="0/1"  />
              <InterpolatingParam id="1273" interp="linr"  time="-9999999/1" value="1" leadInLength="0/1"  />
              <InterpolatingParam id="1274" interp="linr"  time="-9999999/1" value="1" leadInLength="0/1"  />
             </VectorParam>
             <VectorParam id="1275"  name="anchor">
              <InterpolatingParam id="1276" interp="linr"  time="0/1" value="0" leadInLength="0/1"  />
              <InterpolatingParam id="1277" interp="linr"  time="0/1" value="0" leadInLength="0/1"  />
              <InterpolatingParam id="1278" interp="linr"  time="0/1" value="0" leadInLength="0/1"  />
             </VectorParam>
            </Transformer>
            <Parameters>
             <VectorParam id="1279"  name="sourceCrop">
              <InterpolatingParam id="1280" interp="linr"  time="0/1" value="0" leadInLength="0/1"  />
              <InterpolatingParam id="1281" interp="linr"  time="0/1" value="0" leadInLength="0/1"  />
              <InterpolatingParam id="1282" interp="linr"  time="0/1" value="0" leadInLength="0/1"  />
              <InterpolatingParam id="1283" interp="linr"  time="0/1" value="0" leadInLength="0/1"  />
             </VectorParam>
             <VectorParam id="1284"  name="geometryCrop">
              <InterpolatingParam id="1285" interp="linr"  time="-9999999/1" value="0" leadInLength="0/1"  />
              <InterpolatingParam id="1286" interp="linr"  time="-9999999/1" value="0" leadInLength="0/1"  />
              <InterpolatingParam id="1287" interp="linr"  time="-9999999/1" value="0" leadInLength="0/1"  />
              <InterpolatingParam id="1288" interp="linr"  time="-9999999/1" value="0" leadInLength="0/1"  />
             </VectorParam>
             <InterpolatingParam id="1289" interp="linr"  time="-9999999/1" value="1" leadInLength="0/1"  name="opacity"/>
             <InterpolatingParam id="1290" interp="linr"  time="0/1" value="0" leadInLength="0/1"  name="cursorOpacity"/>
             <InterpolatingParam id="1291" interp="linr"  time="0/1" value="0" leadInLength="0/1"  name="cursorScale"/>
            </Parameters>
            <Attributes>
             <Attribute id="1292" value="" name="ident"/>
            </Attributes>
            <MetaData>
             <entry key="AutoAppliedSmartFocus" val="False"/>
             <entry key="WinSubProjectDisplayName" val=""/>
            </MetaData>
            <ExtraData>
             <Entry key="ZoomPanBin">
              <ZoomPanBin id="1293"  >
               <ZoomPanKeyframes>
                <ZoomPanKeyframe id="1294" timeRangeEnd="-9999999/1" timeRangeDuration="0/1" interpolaterName=""  />
               </ZoomPanKeyframes>
              </ZoomPanBin>
             </Entry>
             <Entry key="CursorEffectBin">
              <CursorEffectBin id="1295"  >
               <CursorEffectKeyframes>
               </CursorEffectKeyframes>
              </CursorEffectBin>
             </Entry>
            </ExtraData>
           </ScreenVMFile>
           <ScreenVMFile id="1296" start="11998" duration="567" scalar="1/1" mediaStart="12450/1" mediaDuration="567/1" trackNumber="0" src="8" >
            <Transformer>
             <VectorParam id="1297"  name="translation">
              <InterpolatingParam id="1298" interp="linr"  time="-9999999/1" value="0" leadInLength="0/1"  />
              <InterpolatingParam id="1299" interp="linr"  time="-9999999/1" value="0" leadInLength="0/1"  />
              <InterpolatingParam id="1300" interp="linr"  time="-9999999/1" value="0" leadInLength="0/1"  />
             </VectorParam>
             <VectorParam id="1301"  name="rotation">
              <InterpolatingParam id="1302" interp="linr"  time="-9999999/1" value="0" leadInLength="0/1"  />
              <InterpolatingParam id="1303" interp="linr"  time="-9999999/1" value="0" leadInLength="0/1"  />
              <InterpolatingParam id="1304" interp="linr"  time="-9999999/1" value="0" leadInLength="0/1"  />
             </VectorParam>
             <VectorParam id="1305"  name="shear">
              <InterpolatingParam id="1306" interp="linr"  time="-9999999/1" value="0" leadInLength="0/1"  />
              <InterpolatingParam id="1307" interp="linr"  time="-9999999/1" value="0" leadInLength="0/1"  />
              <InterpolatingParam id="1308" interp="linr"  time="-9999999/1" value="0" leadInLength="0/1"  />
             </VectorParam>
             <VectorParam id="1309"  name="scale">
              <InterpolatingParam id="1310" interp="linr"  time="-9999999/1" value="1" leadInLength="0/1"  />
              <InterpolatingParam id="1311" interp="linr"  time="-9999999/1" value="1" leadInLength="0/1"  />
              <InterpolatingParam id="1312" interp="linr"  time="-9999999/1" value="1" leadInLength="0/1"  />
             </VectorParam>
             <VectorParam id="1313"  name="anchor">
              <InterpolatingParam id="1314" interp="linr"  time="0/1" value="0" leadInLength="0/1"  />
              <InterpolatingParam id="1315" interp="linr"  time="0/1" value="0" leadInLength="0/1"  />
              <InterpolatingParam id="1316" interp="linr"  time="0/1" value="0" leadInLength="0/1"  />
             </VectorParam>
            </Transformer>
            <Parameters>
             <VectorParam id="1317"  name="sourceCrop">
              <InterpolatingParam id="1318" interp="linr"  time="0/1" value="0" leadInLength="0/1"  />
              <InterpolatingParam id="1319" interp="linr"  time="0/1" value="0" leadInLength="0/1"  />
              <InterpolatingParam id="1320" interp="linr"  time="0/1" value="0" leadInLength="0/1"  />
              <InterpolatingParam id="1321" interp="linr"  time="0/1" value="0" leadInLength="0/1"  />
             </VectorParam>
             <VectorParam id="1322"  name="geometryCrop">
              <InterpolatingParam id="1323" interp="linr"  time="-9999999/1" value="0" leadInLength="0/1"  />
              <InterpolatingParam id="1324" interp="linr"  time="-9999999/1" value="0" leadInLength="0/1"  />
              <InterpolatingParam id="1325" interp="linr"  time="-9999999/1" value="0" leadInLength="0/1"  />
              <InterpolatingParam id="1326" interp="linr"  time="-9999999/1" value="0" leadInLength="0/1"  />
             </VectorParam>
             <InterpolatingParam id="1327" interp="linr"  time="-9999999/1" value="1" leadInLength="0/1"  name="opacity"/>
             <InterpolatingParam id="1328" interp="linr"  time="0/1" value="0" leadInLength="0/1"  name="cursorOpacity"/>
             <InterpolatingParam id="1329" interp="linr"  time="0/1" value="0" leadInLength="0/1"  name="cursorScale"/>
            </Parameters>
            <Attributes>
             <Attribute id="1330" value="" name="ident"/>
            </Attributes>
            <MetaData>
             <entry key="AutoAppliedSmartFocus" val="False"/>
             <entry key="WinSubProjectDisplayName" val=""/>
            </MetaData>
            <ExtraData>
             <Entry key="ZoomPanBin">
              <ZoomPanBin id="1331"  >
               <ZoomPanKeyframes>
                <ZoomPanKeyframe id="1332" timeRangeEnd="-9999999/1" timeRangeDuration="0/1" interpolaterName=""  />
               </ZoomPanKeyframes>
              </ZoomPanBin>
             </Entry>
             <Entry key="CursorEffectBin">
              <CursorEffectBin id="1333"  >
               <CursorEffectKeyframes>
               </CursorEffectKeyframes>
              </CursorEffectBin>
             </Entry>
            </ExtraData>
           </ScreenVMFile>
           <ScreenVMFile id="1334" start="12565" duration="586" scalar="1/1" mediaStart="13580/1" mediaDuration="586/1" trackNumber="0" src="8" >
            <Transformer>
             <VectorParam id="1335"  name="translation">
              <InterpolatingParam id="1336" interp="linr"  time="-9999999/1" value="0" leadInLength="0/1"  />
              <InterpolatingParam id="1337" interp="linr"  time="-9999999/1" value="0" leadInLength="0/1"  />
              <InterpolatingParam id="1338" interp="linr"  time="-9999999/1" value="0" leadInLength="0/1"  />
             </VectorParam>
             <VectorParam id="1339"  name="rotation">
              <InterpolatingParam id="1340" interp="linr"  time="-9999999/1" value="0" leadInLength="0/1"  />
              <InterpolatingParam id="1341" interp="linr"  time="-9999999/1" value="0" leadInLength="0/1"  />
              <InterpolatingParam id="1342" interp="linr"  time="-9999999/1" value="0" leadInLength="0/1"  />
             </VectorParam>
             <VectorParam id="1343"  name="shear">
              <InterpolatingParam id="1344" interp="linr"  time="-9999999/1" value="0" leadInLength="0/1"  />
              <InterpolatingParam id="1345" interp="linr"  time="-9999999/1" value="0" leadInLength="0/1"  />
              <InterpolatingParam id="1346" interp="linr"  time="-9999999/1" value="0" leadInLength="0/1"  />
             </VectorParam>
             <VectorParam id="1347"  name="scale">
              <InterpolatingParam id="1348" interp="linr"  time="-9999999/1" value="1" leadInLength="0/1"  />
              <InterpolatingParam id="1349" interp="linr"  time="-9999999/1" value="1" leadInLength="0/1"  />
              <InterpolatingParam id="1350" interp="linr"  time="-9999999/1" value="1" leadInLength="0/1"  />
             </VectorParam>
             <VectorParam id="1351"  name="anchor">
              <InterpolatingParam id="1352" interp="linr"  time="0/1" value="0" leadInLength="0/1"  />
              <InterpolatingParam id="1353" interp="linr"  time="0/1" value="0" leadInLength="0/1"  />
              <InterpolatingParam id="1354" interp="linr"  time="0/1" value="0" leadInLength="0/1"  />
             </VectorParam>
            </Transformer>
            <Parameters>
             <VectorParam id="1355"  name="sourceCrop">
              <InterpolatingParam id="1356" interp="linr"  time="0/1" value="0" leadInLength="0/1"  />
              <InterpolatingParam id="1357" interp="linr"  time="0/1" value="0" leadInLength="0/1"  />
              <InterpolatingParam id="1358" interp="linr"  time="0/1" value="0" leadInLength="0/1"  />
              <InterpolatingParam id="1359" interp="linr"  time="0/1" value="0" leadInLength="0/1"  />
             </VectorParam>
             <VectorParam id="1360"  name="geometryCrop">
              <InterpolatingParam id="1361" interp="linr"  time="-9999999/1" value="0" leadInLength="0/1"  />
              <InterpolatingParam id="1362" interp="linr"  time="-9999999/1" value="0" leadInLength="0/1"  />
              <InterpolatingParam id="1363" interp="linr"  time="-9999999/1" value="0" leadInLength="0/1"  />
              <InterpolatingParam id="1364" interp="linr"  time="-9999999/1" value="0" leadInLength="0/1"  />
             </VectorParam>
             <InterpolatingParam id="1365" interp="linr"  time="-9999999/1" value="1" leadInLength="0/1"  name="opacity"/>
             <InterpolatingParam id="1366" interp="linr"  time="0/1" value="0" leadInLength="0/1"  name="cursorOpacity"/>
             <InterpolatingParam id="1367" interp="linr"  time="0/1" value="0" leadInLength="0/1"  name="cursorScale"/>
            </Parameters>
            <Attributes>
             <Attribute id="1368" value="" name="ident"/>
            </Attributes>
            <MetaData>
             <entry key="AutoAppliedSmartFocus" val="False"/>
             <entry key="WinSubProjectDisplayName" val=""/>
            </MetaData>
            <ExtraData>
             <Entry key="ZoomPanBin">
              <ZoomPanBin id="1369"  >
               <ZoomPanKeyframes>
                <ZoomPanKeyframe id="1370" timeRangeEnd="-9999999/1" timeRangeDuration="0/1" interpolaterName=""  />
               </ZoomPanKeyframes>
              </ZoomPanBin>
             </Entry>
             <Entry key="CursorEffectBin">
              <CursorEffectBin id="1371"  >
               <CursorEffectKeyframes>
               </CursorEffectKeyframes>
              </CursorEffectBin>
             </Entry>
            </ExtraData>
           </ScreenVMFile>
          </Medias>
         </GenericTrack>
        </StitchedMedia>
        <StitchedMedia id="1372" start="3159" duration="649" scalar="1/1" mediaStart="481/1" mediaDuration="649/1" minMediaStart="0/1" >
         <Transformer>
          <VectorParam id="1373"  name="translation">
           <InterpolatingParam id="1374" interp="linr"  time="-9999999/1" value="-3.3939641097545886e-010" leadInLength="0/1"  />
           <InterpolatingParam id="1375" interp="linr"  time="-9999999/1" value="-3.0426861030719022e-011" leadInLength="0/1"  />
           <InterpolatingParam id="1376" interp="linr"  time="-9999999/1" value="0" leadInLength="0/1"  />
          </VectorParam>
          <VectorParam id="1377"  name="rotation">
           <InterpolatingParam id="1378" interp="linr"  time="-9999999/1" value="0" leadInLength="0/1"  />
           <InterpolatingParam id="1379" interp="linr"  time="-9999999/1" value="0" leadInLength="0/1"  />
           <InterpolatingParam id="1380" interp="linr"  time="-9999999/1" value="0" leadInLength="0/1"  />
          </VectorParam>
          <VectorParam id="1381"  name="shear">
           <InterpolatingParam id="1382" interp="linr"  time="-9999999/1" value="0" leadInLength="0/1"  />
           <InterpolatingParam id="1383" interp="linr"  time="-9999999/1" value="0" leadInLength="0/1"  />
           <InterpolatingParam id="1384" interp="linr"  time="-9999999/1" value="0" leadInLength="0/1"  />
          </VectorParam>
          <VectorParam id="1385"  name="scale">
           <InterpolatingParam id="1386" interp="linr"  time="-9999999/1" value="0.73124999999999996" leadInLength="0/1"  />
           <InterpolatingParam id="1387" interp="linr"  time="-9999999/1" value="0.73124999999999996" leadInLength="0/1"  />
           <InterpolatingParam id="1388" interp="linr"  time="-9999999/1" value="1" leadInLength="0/1"  />
          </VectorParam>
          <VectorParam id="1389"  name="anchor">
           <InterpolatingParam id="1390" interp="linr"  time="0/1" value="0" leadInLength="0/1"  />
           <InterpolatingParam id="1391" interp="linr"  time="0/1" value="0" leadInLength="0/1"  />
           <InterpolatingParam id="1392" interp="linr"  time="0/1" value="0" leadInLength="0/1"  />
          </VectorParam>
         </Transformer>
         <Parameters>
          <VectorParam id="1393"  name="sourceCrop">
           <InterpolatingParam id="1394" interp="linr"  time="0/1" value="0" leadInLength="0/1"  />
           <InterpolatingParam id="1395" interp="linr"  time="0/1" value="0" leadInLength="0/1"  />
           <InterpolatingParam id="1396" interp="linr"  time="0/1" value="0" leadInLength="0/1"  />
           <InterpolatingParam id="1397" interp="linr"  time="0/1" value="0" leadInLength="0/1"  />
          </VectorParam>
          <VectorParam id="1398"  name="geometryCrop">
           <InterpolatingParam id="1399" interp="linr"  time="-9999999/1" value="0" leadInLength="0/1"  />
           <InterpolatingParam id="1400" interp="linr"  time="-9999999/1" value="0" leadInLength="0/1"  />
           <InterpolatingParam id="1401" interp="linr"  time="-9999999/1" value="0" leadInLength="0/1"  />
           <InterpolatingParam id="1402" interp="linr"  time="-9999999/1" value="0" leadInLength="0/1"  />
          </VectorParam>
          <InterpolatingParam id="1403" interp="linr"  time="-9999999/1" value="1" leadInLength="0/1"  name="opacity"/>
          <InterpolatingParam id="1404" interp="linr"  time="0/1" value="1" leadInLength="0/1"  name="cursorOpacity"/>
          <InterpolatingParam id="1405" interp="linr"  time="0/1" value="1" leadInLength="0/1"  name="cursorScale"/>
          <Parameter id="1406"  name="captions"/>
         </Parameters>
         <Effects>
          <GenericEffect id="1407" name = "CursorBaseEffectName" >
           <Parameters>
           <InterpolatingParam id="1408" interp="linr"  time="-9999999/1" value="1" leadInLength="0/1"   name="cursorSize"/>
           <InterpolatingParam id="1409" interp="linr"  time="-9999999/1" value="0" leadInLength="0/1"   name="highlightBlurRadius"/>
           <InterpolatingParam id="1410" interp="linr"  time="-9999999/1" value="0" leadInLength="0/1"   name="highlightColorBlue"/>
           <InterpolatingParam id="1411" interp="linr"  time="-9999999/1" value="255" leadInLength="0/1"   name="highlightColorGreen"/>
           <InterpolatingParam id="1412" interp="linr"  time="-9999999/1" value="255" leadInLength="0/1"   name="highlightColorRed"/>
           <InterpolatingParam id="1413" interp="linr"  time="-9999999/1" value="5" leadInLength="0/1"   name="highlightFeatherSize"/>
           <InterpolatingParam id="1414" interp="linr"  time="-9999999/1" value="2" leadInLength="0/1"   name="highlightMagnification"/>
           <InterpolatingParam id="1415" interp="linr"  time="-9999999/1" value="1" leadInLength="0/1"   name="highlightOpacity"/>
           <InterpolatingParam id="1416" interp="linr"  time="-9999999/1" value="45" leadInLength="0/1"   name="highlightSize"/>
           <Parameter id="1417"   name="highlightType">
            <Keyframes>
            <Keyframe id="1418"  time="-9999999/1" value="0" leadInLength="0/1"  />
            </Keyframes>
           </Parameter>
           <InterpolatingParam id="1419" interp="linr"  time="-9999999/1" value="0" leadInLength="0/1"   name="leftClickColorBlue"/>
           <InterpolatingParam id="1420" interp="linr"  time="-9999999/1" value="0" leadInLength="0/1"   name="leftClickColorGreen"/>
           <InterpolatingParam id="1421" interp="linr"  time="-9999999/1" value="255" leadInLength="0/1"   name="leftClickColorRed"/>
           <InterpolatingParam id="1422" interp="linr"  time="-9999999/1" value="0.80000000000000004" leadInLength="0/1"   name="leftClickDuration"/>
           <InterpolatingParam id="1423" interp="linr"  time="-9999999/1" value="20" leadInLength="0/1"   name="leftClickSize"/>
           <Parameter id="1424"   name="leftClickSoundFilename">
            <Keyframes>
            <Keyframe id="1425"  time="-9999999/1" value="" leadInLength="0/1"  />
            </Keyframes>
           </Parameter>
           <InterpolatingParam id="1426" interp="linr"  time="-9999999/1" value="1" leadInLength="0/1"   name="leftClickSoundVolume"/>
           <Parameter id="1427"   name="leftClickType">
            <Keyframes>
            <Keyframe id="1428"  time="-9999999/1" value="0" leadInLength="0/1"  />
            </Keyframes>
           </Parameter>
           <InterpolatingParam id="1429" interp="linr"  time="-9999999/1" value="1" leadInLength="0/1"   name="opacity"/>
           <InterpolatingParam id="1430" interp="linr"  time="-9999999/1" value="255" leadInLength="0/1"   name="rightClickColorBlue"/>
           <InterpolatingParam id="1431" interp="linr"  time="-9999999/1" value="0" leadInLength="0/1"   name="rightClickColorGreen"/>
           <InterpolatingParam id="1432" interp="linr"  time="-9999999/1" value="0" leadInLength="0/1"   name="rightClickColorRed"/>
           <InterpolatingParam id="1433" interp="linr"  time="-9999999/1" value="0.80000000000000004" leadInLength="0/1"   name="rightClickDuration"/>
           <InterpolatingParam id="1434" interp="linr"  time="-9999999/1" value="20" leadInLength="0/1"   name="rightClickSize"/>
           <Parameter id="1435"   name="rightClickSoundFilename">
            <Keyframes>
            <Keyframe id="1436"  time="-9999999/1" value="" leadInLength="0/1"  />
            </Keyframes>
           </Parameter>
           <InterpolatingParam id="1437" interp="linr"  time="-9999999/1" value="1" leadInLength="0/1"   name="rightClickSoundVolume"/>
           <Parameter id="1438"   name="rightClickType">
            <Keyframes>
            <Keyframe id="1439"  time="-9999999/1" value="0" leadInLength="0/1"  />
            </Keyframes>
           </Parameter>
           </Parameters>
          </GenericEffect>
         </Effects>
         <Attributes>
          <Attribute id="1440" value="" name="ident"/>
         </Attributes>
         <MetaData>
          <entry key="AutoAppliedSmartFocus" val="False"/>
          <entry key="WinSubProjectDisplayName" val=""/>
         </MetaData>
         <ExtraData>
          <Entry key="ZoomPanBin">
           <ZoomPanBin id="1441"  >
            <ZoomPanKeyframes>
             <ZoomPanKeyframe id="1442" timeRangeEnd="-9999999/1" timeRangeDuration="0/1" interpolaterName=""  />
            </ZoomPanKeyframes>
           </ZoomPanBin>
          </Entry>
          <Entry key="CursorEffectBin">
           <CursorEffectBin id="1443"  >
            <CursorEffectKeyframes>
             <CursorEffectKeyframe id="1444" timeRangeEnd="-9999999/1" timeRangeDuration="0/1" interpolaterName=""  />
            </CursorEffectKeyframes>
           </CursorEffectBin>
          </Entry>
         </ExtraData>
         <GenericTrack id="1445"  >
          <Attributes>
           <Attribute id="1446" value="" name="ident"/>
           <Attribute id="1447" value="0" name="audioMuted"/>
           <Attribute id="1448" value="0" name="videoHidden"/>
          </Attributes>
          <MetaData>
           <entry key="IsLocked" val="False"/>
           <entry key="WinTrackHeight" val="0"/>
          </MetaData>
          <Medias>
           <ScreenVMFile id="1449" start="0" duration="484" scalar="1/1" mediaStart="0/1" mediaDuration="484/1" trackNumber="0" src="10" >
            <Transformer>
             <VectorParam id="1450"  name="translation">
              <InterpolatingParam id="1451" interp="linr"  time="-9999999/1" value="0" leadInLength="0/1"  />
              <InterpolatingParam id="1452" interp="linr"  time="-9999999/1" value="0" leadInLength="0/1"  />
              <InterpolatingParam id="1453" interp="linr"  time="-9999999/1" value="0" leadInLength="0/1"  />
             </VectorParam>
             <VectorParam id="1454"  name="rotation">
              <InterpolatingParam id="1455" interp="linr"  time="-9999999/1" value="0" leadInLength="0/1"  />
              <InterpolatingParam id="1456" interp="linr"  time="-9999999/1" value="0" leadInLength="0/1"  />
              <InterpolatingParam id="1457" interp="linr"  time="-9999999/1" value="0" leadInLength="0/1"  />
             </VectorParam>
             <VectorParam id="1458"  name="shear">
              <InterpolatingParam id="1459" interp="linr"  time="-9999999/1" value="0" leadInLength="0/1"  />
              <InterpolatingParam id="1460" interp="linr"  time="-9999999/1" value="0" leadInLength="0/1"  />
              <InterpolatingParam id="1461" interp="linr"  time="-9999999/1" value="0" leadInLength="0/1"  />
             </VectorParam>
             <VectorParam id="1462"  name="scale">
              <InterpolatingParam id="1463" interp="linr"  time="-9999999/1" value="1" leadInLength="0/1"  />
              <InterpolatingParam id="1464" interp="linr"  time="-9999999/1" value="1" leadInLength="0/1"  />
              <InterpolatingParam id="1465" interp="linr"  time="-9999999/1" value="1" leadInLength="0/1"  />
             </VectorParam>
             <VectorParam id="1466"  name="anchor">
              <InterpolatingParam id="1467" interp="linr"  time="0/1" value="0" leadInLength="0/1"  />
              <InterpolatingParam id="1468" interp="linr"  time="0/1" value="0" leadInLength="0/1"  />
              <InterpolatingParam id="1469" interp="linr"  time="0/1" value="0" leadInLength="0/1"  />
             </VectorParam>
            </Transformer>
            <Parameters>
             <VectorParam id="1470"  name="sourceCrop">
              <InterpolatingParam id="1471" interp="linr"  time="0/1" value="0" leadInLength="0/1"  />
              <InterpolatingParam id="1472" interp="linr"  time="0/1" value="0" leadInLength="0/1"  />
              <InterpolatingParam id="1473" interp="linr"  time="0/1" value="0" leadInLength="0/1"  />
              <InterpolatingParam id="1474" interp="linr"  time="0/1" value="0" leadInLength="0/1"  />
             </VectorParam>
             <VectorParam id="1475"  name="geometryCrop">
              <InterpolatingParam id="1476" interp="linr"  time="-9999999/1" value="0" leadInLength="0/1"  />
              <InterpolatingParam id="1477" interp="linr"  time="-9999999/1" value="0" leadInLength="0/1"  />
              <InterpolatingParam id="1478" interp="linr"  time="-9999999/1" value="0" leadInLength="0/1"  />
              <InterpolatingParam id="1479" interp="linr"  time="-9999999/1" value="0" leadInLength="0/1"  />
             </VectorParam>
             <InterpolatingParam id="1480" interp="linr"  time="-9999999/1" value="1" leadInLength="0/1"  name="opacity"/>
             <InterpolatingParam id="1481" interp="linr"  time="0/1" value="0" leadInLength="0/1"  name="cursorOpacity"/>
             <InterpolatingParam id="1482" interp="linr"  time="0/1" value="0" leadInLength="0/1"  name="cursorScale"/>
            </Parameters>
            <Attributes>
             <Attribute id="1483" value="" name="ident"/>
            </Attributes>
            <MetaData>
             <entry key="AutoAppliedSmartFocus" val="False"/>
             <entry key="WinSubProjectDisplayName" val=""/>
            </MetaData>
            <ExtraData>
             <Entry key="ZoomPanBin">
              <ZoomPanBin id="1484"  >
               <ZoomPanKeyframes>
                <ZoomPanKeyframe id="1485" timeRangeEnd="-9999999/1" timeRangeDuration="0/1" interpolaterName=""  />
               </ZoomPanKeyframes>
              </ZoomPanBin>
             </Entry>
             <Entry key="CursorEffectBin">
              <CursorEffectBin id="1486"  >
               <CursorEffectKeyframes>
               </CursorEffectKeyframes>
              </CursorEffectBin>
             </Entry>
            </ExtraData>
           </ScreenVMFile>
           <ScreenVMFile id="1487" start="484" duration="51" scalar="1/1" mediaStart="524/1" mediaDuration="51/1" trackNumber="0" src="10" >
            <Transformer>
             <VectorParam id="1488"  name="translation">
              <InterpolatingParam id="1489" interp="linr"  time="-9999999/1" value="0" leadInLength="0/1"  />
              <InterpolatingParam id="1490" interp="linr"  time="-9999999/1" value="0" leadInLength="0/1"  />
              <InterpolatingParam id="1491" interp="linr"  time="-9999999/1" value="0" leadInLength="0/1"  />
             </VectorParam>
             <VectorParam id="1492"  name="rotation">
              <InterpolatingParam id="1493" interp="linr"  time="-9999999/1" value="0" leadInLength="0/1"  />
              <InterpolatingParam id="1494" interp="linr"  time="-9999999/1" value="0" leadInLength="0/1"  />
              <InterpolatingParam id="1495" interp="linr"  time="-9999999/1" value="0" leadInLength="0/1"  />
             </VectorParam>
             <VectorParam id="1496"  name="shear">
              <InterpolatingParam id="1497" interp="linr"  time="-9999999/1" value="0" leadInLength="0/1"  />
              <InterpolatingParam id="1498" interp="linr"  time="-9999999/1" value="0" leadInLength="0/1"  />
              <InterpolatingParam id="1499" interp="linr"  time="-9999999/1" value="0" leadInLength="0/1"  />
             </VectorParam>
             <VectorParam id="1500"  name="scale">
              <InterpolatingParam id="1501" interp="linr"  time="-9999999/1" value="1" leadInLength="0/1"  />
              <InterpolatingParam id="1502" interp="linr"  time="-9999999/1" value="1" leadInLength="0/1"  />
              <InterpolatingParam id="1503" interp="linr"  time="-9999999/1" value="1" leadInLength="0/1"  />
             </VectorParam>
             <VectorParam id="1504"  name="anchor">
              <InterpolatingParam id="1505" interp="linr"  time="0/1" value="0" leadInLength="0/1"  />
              <InterpolatingParam id="1506" interp="linr"  time="0/1" value="0" leadInLength="0/1"  />
              <InterpolatingParam id="1507" interp="linr"  time="0/1" value="0" leadInLength="0/1"  />
             </VectorParam>
            </Transformer>
            <Parameters>
             <VectorParam id="1508"  name="sourceCrop">
              <InterpolatingParam id="1509" interp="linr"  time="0/1" value="0" leadInLength="0/1"  />
              <InterpolatingParam id="1510" interp="linr"  time="0/1" value="0" leadInLength="0/1"  />
              <InterpolatingParam id="1511" interp="linr"  time="0/1" value="0" leadInLength="0/1"  />
              <InterpolatingParam id="1512" interp="linr"  time="0/1" value="0" leadInLength="0/1"  />
             </VectorParam>
             <VectorParam id="1513"  name="geometryCrop">
              <InterpolatingParam id="1514" interp="linr"  time="-9999999/1" value="0" leadInLength="0/1"  />
              <InterpolatingParam id="1515" interp="linr"  time="-9999999/1" value="0" leadInLength="0/1"  />
              <InterpolatingParam id="1516" interp="linr"  time="-9999999/1" value="0" leadInLength="0/1"  />
              <InterpolatingParam id="1517" interp="linr"  time="-9999999/1" value="0" leadInLength="0/1"  />
             </VectorParam>
             <InterpolatingParam id="1518" interp="linr"  time="-9999999/1" value="1" leadInLength="0/1"  name="opacity"/>
             <InterpolatingParam id="1519" interp="linr"  time="0/1" value="0" leadInLength="0/1"  name="cursorOpacity"/>
             <InterpolatingParam id="1520" interp="linr"  time="0/1" value="0" leadInLength="0/1"  name="cursorScale"/>
            </Parameters>
            <Attributes>
             <Attribute id="1521" value="" name="ident"/>
            </Attributes>
            <MetaData>
             <entry key="AutoAppliedSmartFocus" val="False"/>
             <entry key="WinSubProjectDisplayName" val=""/>
            </MetaData>
            <ExtraData>
             <Entry key="ZoomPanBin">
              <ZoomPanBin id="1522"  >
               <ZoomPanKeyframes>
                <ZoomPanKeyframe id="1523" timeRangeEnd="-9999999/1" timeRangeDuration="0/1" interpolaterName=""  />
               </ZoomPanKeyframes>
              </ZoomPanBin>
             </Entry>
             <Entry key="CursorEffectBin">
              <CursorEffectBin id="1524"  >
               <CursorEffectKeyframes>
               </CursorEffectKeyframes>
              </CursorEffectBin>
             </Entry>
            </ExtraData>
           </ScreenVMFile>
           <ScreenVMFile id="1525" start="535" duration="214" scalar="1/1" mediaStart="582/1" mediaDuration="214/1" trackNumber="0" src="10" >
            <Transformer>
             <VectorParam id="1526"  name="translation">
              <InterpolatingParam id="1527" interp="linr"  time="-9999999/1" value="0" leadInLength="0/1"  />
              <InterpolatingParam id="1528" interp="linr"  time="-9999999/1" value="0" leadInLength="0/1"  />
              <InterpolatingParam id="1529" interp="linr"  time="-9999999/1" value="0" leadInLength="0/1"  />
             </VectorParam>
             <VectorParam id="1530"  name="rotation">
              <InterpolatingParam id="1531" interp="linr"  time="-9999999/1" value="0" leadInLength="0/1"  />
              <InterpolatingParam id="1532" interp="linr"  time="-9999999/1" value="0" leadInLength="0/1"  />
              <InterpolatingParam id="1533" interp="linr"  time="-9999999/1" value="0" leadInLength="0/1"  />
             </VectorParam>
             <VectorParam id="1534"  name="shear">
              <InterpolatingParam id="1535" interp="linr"  time="-9999999/1" value="0" leadInLength="0/1"  />
              <InterpolatingParam id="1536" interp="linr"  time="-9999999/1" value="0" leadInLength="0/1"  />
              <InterpolatingParam id="1537" interp="linr"  time="-9999999/1" value="0" leadInLength="0/1"  />
             </VectorParam>
             <VectorParam id="1538"  name="scale">
              <InterpolatingParam id="1539" interp="linr"  time="-9999999/1" value="1" leadInLength="0/1"  />
              <InterpolatingParam id="1540" interp="linr"  time="-9999999/1" value="1" leadInLength="0/1"  />
              <InterpolatingParam id="1541" interp="linr"  time="-9999999/1" value="1" leadInLength="0/1"  />
             </VectorParam>
             <VectorParam id="1542"  name="anchor">
              <InterpolatingParam id="1543" interp="linr"  time="0/1" value="0" leadInLength="0/1"  />
              <InterpolatingParam id="1544" interp="linr"  time="0/1" value="0" leadInLength="0/1"  />
              <InterpolatingParam id="1545" interp="linr"  time="0/1" value="0" leadInLength="0/1"  />
             </VectorParam>
            </Transformer>
            <Parameters>
             <VectorParam id="1546"  name="sourceCrop">
              <InterpolatingParam id="1547" interp="linr"  time="0/1" value="0" leadInLength="0/1"  />
              <InterpolatingParam id="1548" interp="linr"  time="0/1" value="0" leadInLength="0/1"  />
              <InterpolatingParam id="1549" interp="linr"  time="0/1" value="0" leadInLength="0/1"  />
              <InterpolatingParam id="1550" interp="linr"  time="0/1" value="0" leadInLength="0/1"  />
             </VectorParam>
             <VectorParam id="1551"  name="geometryCrop">
              <InterpolatingParam id="1552" interp="linr"  time="-9999999/1" value="0" leadInLength="0/1"  />
              <InterpolatingParam id="1553" interp="linr"  time="-9999999/1" value="0" leadInLength="0/1"  />
              <InterpolatingParam id="1554" interp="linr"  time="-9999999/1" value="0" leadInLength="0/1"  />
              <InterpolatingParam id="1555" interp="linr"  time="-9999999/1" value="0" leadInLength="0/1"  />
             </VectorParam>
             <InterpolatingParam id="1556" interp="linr"  time="-9999999/1" value="1" leadInLength="0/1"  name="opacity"/>
             <InterpolatingParam id="1557" interp="linr"  time="0/1" value="0" leadInLength="0/1"  name="cursorOpacity"/>
             <InterpolatingParam id="1558" interp="linr"  time="0/1" value="0" leadInLength="0/1"  name="cursorScale"/>
            </Parameters>
            <Attributes>
             <Attribute id="1559" value="" name="ident"/>
            </Attributes>
            <MetaData>
             <entry key="AutoAppliedSmartFocus" val="False"/>
             <entry key="WinSubProjectDisplayName" val=""/>
            </MetaData>
            <ExtraData>
             <Entry key="ZoomPanBin">
              <ZoomPanBin id="1560"  >
               <ZoomPanKeyframes>
                <ZoomPanKeyframe id="1561" timeRangeEnd="-9999999/1" timeRangeDuration="0/1" interpolaterName=""  />
               </ZoomPanKeyframes>
              </ZoomPanBin>
             </Entry>
             <Entry key="CursorEffectBin">
              <CursorEffectBin id="1562"  >
               <CursorEffectKeyframes>
               </CursorEffectKeyframes>
              </CursorEffectBin>
             </Entry>
            </ExtraData>
           </ScreenVMFile>
           <ScreenVMFile id="1563" start="749" duration="396" scalar="1/1" mediaStart="2078/1" mediaDuration="396/1" trackNumber="0" src="10" >
            <Transformer>
             <VectorParam id="1564"  name="translation">
              <InterpolatingParam id="1565" interp="linr"  time="-9999999/1" value="0" leadInLength="0/1"  />
              <InterpolatingParam id="1566" interp="linr"  time="-9999999/1" value="0" leadInLength="0/1"  />
              <InterpolatingParam id="1567" interp="linr"  time="-9999999/1" value="0" leadInLength="0/1"  />
             </VectorParam>
             <VectorParam id="1568"  name="rotation">
              <InterpolatingParam id="1569" interp="linr"  time="-9999999/1" value="0" leadInLength="0/1"  />
              <InterpolatingParam id="1570" interp="linr"  time="-9999999/1" value="0" leadInLength="0/1"  />
              <InterpolatingParam id="1571" interp="linr"  time="-9999999/1" value="0" leadInLength="0/1"  />
             </VectorParam>
             <VectorParam id="1572"  name="shear">
              <InterpolatingParam id="1573" interp="linr"  time="-9999999/1" value="0" leadInLength="0/1"  />
              <InterpolatingParam id="1574" interp="linr"  time="-9999999/1" value="0" leadInLength="0/1"  />
              <InterpolatingParam id="1575" interp="linr"  time="-9999999/1" value="0" leadInLength="0/1"  />
             </VectorParam>
             <VectorParam id="1576"  name="scale">
              <InterpolatingParam id="1577" interp="linr"  time="-9999999/1" value="1" leadInLength="0/1"  />
              <InterpolatingParam id="1578" interp="linr"  time="-9999999/1" value="1" leadInLength="0/1"  />
              <InterpolatingParam id="1579" interp="linr"  time="-9999999/1" value="1" leadInLength="0/1"  />
             </VectorParam>
             <VectorParam id="1580"  name="anchor">
              <InterpolatingParam id="1581" interp="linr"  time="0/1" value="0" leadInLength="0/1"  />
              <InterpolatingParam id="1582" interp="linr"  time="0/1" value="0" leadInLength="0/1"  />
              <InterpolatingParam id="1583" interp="linr"  time="0/1" value="0" leadInLength="0/1"  />
             </VectorParam>
            </Transformer>
            <Parameters>
             <VectorParam id="1584"  name="sourceCrop">
              <InterpolatingParam id="1585" interp="linr"  time="0/1" value="0" leadInLength="0/1"  />
              <InterpolatingParam id="1586" interp="linr"  time="0/1" value="0" leadInLength="0/1"  />
              <InterpolatingParam id="1587" interp="linr"  time="0/1" value="0" leadInLength="0/1"  />
              <InterpolatingParam id="1588" interp="linr"  time="0/1" value="0" leadInLength="0/1"  />
             </VectorParam>
             <VectorParam id="1589"  name="geometryCrop">
              <InterpolatingParam id="1590" interp="linr"  time="-9999999/1" value="0" leadInLength="0/1"  />
              <InterpolatingParam id="1591" interp="linr"  time="-9999999/1" value="0" leadInLength="0/1"  />
              <InterpolatingParam id="1592" interp="linr"  time="-9999999/1" value="0" leadInLength="0/1"  />
              <InterpolatingParam id="1593" interp="linr"  time="-9999999/1" value="0" leadInLength="0/1"  />
             </VectorParam>
             <InterpolatingParam id="1594" interp="linr"  time="-9999999/1" value="1" leadInLength="0/1"  name="opacity"/>
             <InterpolatingParam id="1595" interp="linr"  time="0/1" value="0" leadInLength="0/1"  name="cursorOpacity"/>
             <InterpolatingParam id="1596" interp="linr"  time="0/1" value="0" leadInLength="0/1"  name="cursorScale"/>
            </Parameters>
            <Attributes>
             <Attribute id="1597" value="" name="ident"/>
            </Attributes>
            <MetaData>
             <entry key="AutoAppliedSmartFocus" val="False"/>
             <entry key="WinSubProjectDisplayName" val=""/>
            </MetaData>
            <ExtraData>
             <Entry key="ZoomPanBin">
              <ZoomPanBin id="1598"  >
               <ZoomPanKeyframes>
                <ZoomPanKeyframe id="1599" timeRangeEnd="-9999999/1" timeRangeDuration="0/1" interpolaterName=""  />
               </ZoomPanKeyframes>
              </ZoomPanBin>
             </Entry>
             <Entry key="CursorEffectBin">
              <CursorEffectBin id="1600"  >
               <CursorEffectKeyframes>
               </CursorEffectKeyframes>
              </CursorEffectBin>
             </Entry>
            </ExtraData>
           </ScreenVMFile>
           <ScreenVMFile id="1601" start="1145" duration="8" scalar="1/1" mediaStart="3918/1" mediaDuration="8/1" trackNumber="0" src="10" >
            <Transformer>
             <VectorParam id="1602"  name="translation">
              <InterpolatingParam id="1603" interp="linr"  time="-9999999/1" value="0" leadInLength="0/1"  />
              <InterpolatingParam id="1604" interp="linr"  time="-9999999/1" value="0" leadInLength="0/1"  />
              <InterpolatingParam id="1605" interp="linr"  time="-9999999/1" value="0" leadInLength="0/1"  />
             </VectorParam>
             <VectorParam id="1606"  name="rotation">
              <InterpolatingParam id="1607" interp="linr"  time="-9999999/1" value="0" leadInLength="0/1"  />
              <InterpolatingParam id="1608" interp="linr"  time="-9999999/1" value="0" leadInLength="0/1"  />
              <InterpolatingParam id="1609" interp="linr"  time="-9999999/1" value="0" leadInLength="0/1"  />
             </VectorParam>
             <VectorParam id="1610"  name="shear">
              <InterpolatingParam id="1611" interp="linr"  time="-9999999/1" value="0" leadInLength="0/1"  />
              <InterpolatingParam id="1612" interp="linr"  time="-9999999/1" value="0" leadInLength="0/1"  />
              <InterpolatingParam id="1613" interp="linr"  time="-9999999/1" value="0" leadInLength="0/1"  />
             </VectorParam>
             <VectorParam id="1614"  name="scale">
              <InterpolatingParam id="1615" interp="linr"  time="-9999999/1" value="1" leadInLength="0/1"  />
              <InterpolatingParam id="1616" interp="linr"  time="-9999999/1" value="1" leadInLength="0/1"  />
              <InterpolatingParam id="1617" interp="linr"  time="-9999999/1" value="1" leadInLength="0/1"  />
             </VectorParam>
             <VectorParam id="1618"  name="anchor">
              <InterpolatingParam id="1619" interp="linr"  time="0/1" value="0" leadInLength="0/1"  />
              <InterpolatingParam id="1620" interp="linr"  time="0/1" value="0" leadInLength="0/1"  />
              <InterpolatingParam id="1621" interp="linr"  time="0/1" value="0" leadInLength="0/1"  />
             </VectorParam>
            </Transformer>
            <Parameters>
             <VectorParam id="1622"  name="sourceCrop">
              <InterpolatingParam id="1623" interp="linr"  time="0/1" value="0" leadInLength="0/1"  />
              <InterpolatingParam id="1624" interp="linr"  time="0/1" value="0" leadInLength="0/1"  />
              <InterpolatingParam id="1625" interp="linr"  time="0/1" value="0" leadInLength="0/1"  />
              <InterpolatingParam id="1626" interp="linr"  time="0/1" value="0" leadInLength="0/1"  />
             </VectorParam>
             <VectorParam id="1627"  name="geometryCrop">
              <InterpolatingParam id="1628" interp="linr"  time="-9999999/1" value="0" leadInLength="0/1"  />
              <InterpolatingParam id="1629" interp="linr"  time="-9999999/1" value="0" leadInLength="0/1"  />
              <InterpolatingParam id="1630" interp="linr"  time="-9999999/1" value="0" leadInLength="0/1"  />
              <InterpolatingParam id="1631" interp="linr"  time="-9999999/1" value="0" leadInLength="0/1"  />
             </VectorParam>
             <InterpolatingParam id="1632" interp="linr"  time="-9999999/1" value="1" leadInLength="0/1"  name="opacity"/>
             <InterpolatingParam id="1633" interp="linr"  time="0/1" value="0" leadInLength="0/1"  name="cursorOpacity"/>
             <InterpolatingParam id="1634" interp="linr"  time="0/1" value="0" leadInLength="0/1"  name="cursorScale"/>
            </Parameters>
            <Attributes>
             <Attribute id="1635" value="" name="ident"/>
            </Attributes>
            <MetaData>
             <entry key="AutoAppliedSmartFocus" val="False"/>
             <entry key="WinSubProjectDisplayName" val=""/>
            </MetaData>
            <ExtraData>
             <Entry key="ZoomPanBin">
              <ZoomPanBin id="1636"  >
               <ZoomPanKeyframes>
                <ZoomPanKeyframe id="1637" timeRangeEnd="-9999999/1" timeRangeDuration="0/1" interpolaterName=""  />
               </ZoomPanKeyframes>
              </ZoomPanBin>
             </Entry>
             <Entry key="CursorEffectBin">
              <CursorEffectBin id="1638"  >
               <CursorEffectKeyframes>
               </CursorEffectKeyframes>
              </CursorEffectBin>
             </Entry>
            </ExtraData>
           </ScreenVMFile>
          </Medias>
         </GenericTrack>
        </StitchedMedia>
        <StitchedMedia id="1639" start="3808" duration="407" scalar="1/1" mediaStart="1720/1" mediaDuration="407/1" minMediaStart="0/1" >
         <Transformer>
          <VectorParam id="1640"  name="translation">
           <InterpolatingParam id="1641" interp="linr"  time="-9999999/1" value="-1.1371298347389408e-011" leadInLength="0/1"  />
           <InterpolatingParam id="1642" interp="linr"  time="-9999999/1" value="-7.1713147411144185" leadInLength="0/1"  />
           <InterpolatingParam id="1643" interp="linr"  time="-9999999/1" value="0" leadInLength="0/1"  />
          </VectorParam>
          <VectorParam id="1644"  name="rotation">
           <InterpolatingParam id="1645" interp="linr"  time="-9999999/1" value="0" leadInLength="0/1"  />
           <InterpolatingParam id="1646" interp="linr"  time="-9999999/1" value="0" leadInLength="0/1"  />
           <InterpolatingParam id="1647" interp="linr"  time="-9999999/1" value="0" leadInLength="0/1"  />
          </VectorParam>
          <VectorParam id="1648"  name="shear">
           <InterpolatingParam id="1649" interp="linr"  time="-9999999/1" value="0" leadInLength="0/1"  />
           <InterpolatingParam id="1650" interp="linr"  time="-9999999/1" value="0" leadInLength="0/1"  />
           <InterpolatingParam id="1651" interp="linr"  time="-9999999/1" value="0" leadInLength="0/1"  />
          </VectorParam>
          <VectorParam id="1652"  name="scale">
           <InterpolatingParam id="1653" interp="linr"  time="-9999999/1" value="0.73124999999999996" leadInLength="0/1"  />
           <InterpolatingParam id="1654" interp="linr"  time="-9999999/1" value="0.73124999999999996" leadInLength="0/1"  />
           <InterpolatingParam id="1655" interp="linr"  time="-9999999/1" value="1" leadInLength="0/1"  />
          </VectorParam>
          <VectorParam id="1656"  name="anchor">
           <InterpolatingParam id="1657" interp="linr"  time="0/1" value="0" leadInLength="0/1"  />
           <InterpolatingParam id="1658" interp="linr"  time="0/1" value="0" leadInLength="0/1"  />
           <InterpolatingParam id="1659" interp="linr"  time="0/1" value="0" leadInLength="0/1"  />
          </VectorParam>
         </Transformer>
         <Parameters>
          <VectorParam id="1660"  name="sourceCrop">
           <InterpolatingParam id="1661" interp="linr"  time="0/1" value="0" leadInLength="0/1"  />
           <InterpolatingParam id="1662" interp="linr"  time="0/1" value="0" leadInLength="0/1"  />
           <InterpolatingParam id="1663" interp="linr"  time="0/1" value="0" leadInLength="0/1"  />
           <InterpolatingParam id="1664" interp="linr"  time="0/1" value="0" leadInLength="0/1"  />
          </VectorParam>
          <VectorParam id="1665"  name="geometryCrop">
           <InterpolatingParam id="1666" interp="linr"  time="-9999999/1" value="0" leadInLength="0/1"  />
           <InterpolatingParam id="1667" interp="linr"  time="-9999999/1" value="0" leadInLength="0/1"  />
           <InterpolatingParam id="1668" interp="linr"  time="-9999999/1" value="0" leadInLength="0/1"  />
           <InterpolatingParam id="1669" interp="linr"  time="-9999999/1" value="0" leadInLength="0/1"  />
          </VectorParam>
          <InterpolatingParam id="1670" interp="linr"  time="-9999999/1" value="1" leadInLength="0/1"  name="opacity"/>
          <InterpolatingParam id="1671" interp="linr"  time="0/1" value="1" leadInLength="0/1"  name="cursorOpacity"/>
          <InterpolatingParam id="1672" interp="linr"  time="0/1" value="1" leadInLength="0/1"  name="cursorScale"/>
          <Parameter id="1673"  name="captions"/>
         </Parameters>
         <Effects>
          <GenericEffect id="1674" name = "CursorBaseEffectName" >
           <Parameters>
           <InterpolatingParam id="1675" interp="linr"  time="-9999999/1" value="1" leadInLength="0/1"   name="cursorSize"/>
           <InterpolatingParam id="1676" interp="linr"  time="-9999999/1" value="0" leadInLength="0/1"   name="highlightBlurRadius"/>
           <InterpolatingParam id="1677" interp="linr"  time="-9999999/1" value="0" leadInLength="0/1"   name="highlightColorBlue"/>
           <InterpolatingParam id="1678" interp="linr"  time="-9999999/1" value="255" leadInLength="0/1"   name="highlightColorGreen"/>
           <InterpolatingParam id="1679" interp="linr"  time="-9999999/1" value="255" leadInLength="0/1"   name="highlightColorRed"/>
           <InterpolatingParam id="1680" interp="linr"  time="-9999999/1" value="5" leadInLength="0/1"   name="highlightFeatherSize"/>
           <InterpolatingParam id="1681" interp="linr"  time="-9999999/1" value="2" leadInLength="0/1"   name="highlightMagnification"/>
           <InterpolatingParam id="1682" interp="linr"  time="-9999999/1" value="1" leadInLength="0/1"   name="highlightOpacity"/>
           <InterpolatingParam id="1683" interp="linr"  time="-9999999/1" value="45" leadInLength="0/1"   name="highlightSize"/>
           <Parameter id="1684"   name="highlightType">
            <Keyframes>
            <Keyframe id="1685"  time="-9999999/1" value="0" leadInLength="0/1"  />
            </Keyframes>
           </Parameter>
           <InterpolatingParam id="1686" interp="linr"  time="-9999999/1" value="0" leadInLength="0/1"   name="leftClickColorBlue"/>
           <InterpolatingParam id="1687" interp="linr"  time="-9999999/1" value="0" leadInLength="0/1"   name="leftClickColorGreen"/>
           <InterpolatingParam id="1688" interp="linr"  time="-9999999/1" value="255" leadInLength="0/1"   name="leftClickColorRed"/>
           <InterpolatingParam id="1689" interp="linr"  time="-9999999/1" value="0.80000000000000004" leadInLength="0/1"   name="leftClickDuration"/>
           <InterpolatingParam id="1690" interp="linr"  time="-9999999/1" value="20" leadInLength="0/1"   name="leftClickSize"/>
           <Parameter id="1691"   name="leftClickSoundFilename">
            <Keyframes>
            <Keyframe id="1692"  time="-9999999/1" value="" leadInLength="0/1"  />
            </Keyframes>
           </Parameter>
           <InterpolatingParam id="1693" interp="linr"  time="-9999999/1" value="1" leadInLength="0/1"   name="leftClickSoundVolume"/>
           <Parameter id="1694"   name="leftClickType">
            <Keyframes>
            <Keyframe id="1695"  time="-9999999/1" value="0" leadInLength="0/1"  />
            </Keyframes>
           </Parameter>
           <InterpolatingParam id="1696" interp="linr"  time="-9999999/1" value="1" leadInLength="0/1"   name="opacity"/>
           <InterpolatingParam id="1697" interp="linr"  time="-9999999/1" value="255" leadInLength="0/1"   name="rightClickColorBlue"/>
           <InterpolatingParam id="1698" interp="linr"  time="-9999999/1" value="0" leadInLength="0/1"   name="rightClickColorGreen"/>
           <InterpolatingParam id="1699" interp="linr"  time="-9999999/1" value="0" leadInLength="0/1"   name="rightClickColorRed"/>
           <InterpolatingParam id="1700" interp="linr"  time="-9999999/1" value="0.80000000000000004" leadInLength="0/1"   name="rightClickDuration"/>
           <InterpolatingParam id="1701" interp="linr"  time="-9999999/1" value="20" leadInLength="0/1"   name="rightClickSize"/>
           <Parameter id="1702"   name="rightClickSoundFilename">
            <Keyframes>
            <Keyframe id="1703"  time="-9999999/1" value="" leadInLength="0/1"  />
            </Keyframes>
           </Parameter>
           <InterpolatingParam id="1704" interp="linr"  time="-9999999/1" value="1" leadInLength="0/1"   name="rightClickSoundVolume"/>
           <Parameter id="1705"   name="rightClickType">
            <Keyframes>
            <Keyframe id="1706"  time="-9999999/1" value="0" leadInLength="0/1"  />
            </Keyframes>
           </Parameter>
           </Parameters>
          </GenericEffect>
         </Effects>
         <Attributes>
          <Attribute id="1707" value="" name="ident"/>
         </Attributes>
         <MetaData>
          <entry key="AutoAppliedSmartFocus" val="False"/>
          <entry key="WinSubProjectDisplayName" val=""/>
         </MetaData>
         <ExtraData>
          <Entry key="ZoomPanBin">
           <ZoomPanBin id="1708"  >
            <ZoomPanKeyframes>
             <ZoomPanKeyframe id="1709" timeRangeEnd="-9999999/1" timeRangeDuration="0/1" interpolaterName=""  />
            </ZoomPanKeyframes>
           </ZoomPanBin>
          </Entry>
          <Entry key="CursorEffectBin">
           <CursorEffectBin id="1710"  >
            <CursorEffectKeyframes>
             <CursorEffectKeyframe id="1711" timeRangeEnd="-9999999/1" timeRangeDuration="0/1" interpolaterName=""  />
            </CursorEffectKeyframes>
           </CursorEffectBin>
          </Entry>
         </ExtraData>
         <GenericTrack id="1712"  >
          <Attributes>
           <Attribute id="1713" value="" name="ident"/>
           <Attribute id="1714" value="0" name="audioMuted"/>
           <Attribute id="1715" value="0" name="videoHidden"/>
          </Attributes>
          <MetaData>
           <entry key="IsLocked" val="False"/>
           <entry key="WinTrackHeight" val="0"/>
          </MetaData>
          <Medias>
           <ScreenVMFile id="1716" start="0" duration="1906" scalar="1/1" mediaStart="0/1" mediaDuration="1906/1" trackNumber="0" src="28" >
            <Transformer>
             <VectorParam id="1717"  name="translation">
              <InterpolatingParam id="1718" interp="linr"  time="-9999999/1" value="0" leadInLength="0/1"  />
              <InterpolatingParam id="1719" interp="linr"  time="-9999999/1" value="0" leadInLength="0/1"  />
              <InterpolatingParam id="1720" interp="linr"  time="-9999999/1" value="0" leadInLength="0/1"  />
             </VectorParam>
             <VectorParam id="1721"  name="rotation">
              <InterpolatingParam id="1722" interp="linr"  time="-9999999/1" value="0" leadInLength="0/1"  />
              <InterpolatingParam id="1723" interp="linr"  time="-9999999/1" value="0" leadInLength="0/1"  />
              <InterpolatingParam id="1724" interp="linr"  time="-9999999/1" value="0" leadInLength="0/1"  />
             </VectorParam>
             <VectorParam id="1725"  name="shear">
              <InterpolatingParam id="1726" interp="linr"  time="-9999999/1" value="0" leadInLength="0/1"  />
              <InterpolatingParam id="1727" interp="linr"  time="-9999999/1" value="0" leadInLength="0/1"  />
              <InterpolatingParam id="1728" interp="linr"  time="-9999999/1" value="0" leadInLength="0/1"  />
             </VectorParam>
             <VectorParam id="1729"  name="scale">
              <InterpolatingParam id="1730" interp="linr"  time="-9999999/1" value="1" leadInLength="0/1"  />
              <InterpolatingParam id="1731" interp="linr"  time="-9999999/1" value="1" leadInLength="0/1"  />
              <InterpolatingParam id="1732" interp="linr"  time="-9999999/1" value="1" leadInLength="0/1"  />
             </VectorParam>
             <VectorParam id="1733"  name="anchor">
              <InterpolatingParam id="1734" interp="linr"  time="0/1" value="0" leadInLength="0/1"  />
              <InterpolatingParam id="1735" interp="linr"  time="0/1" value="0" leadInLength="0/1"  />
              <InterpolatingParam id="1736" interp="linr"  time="0/1" value="0" leadInLength="0/1"  />
             </VectorParam>
            </Transformer>
            <Parameters>
             <VectorParam id="1737"  name="sourceCrop">
              <InterpolatingParam id="1738" interp="linr"  time="0/1" value="0" leadInLength="0/1"  />
              <InterpolatingParam id="1739" interp="linr"  time="0/1" value="0" leadInLength="0/1"  />
              <InterpolatingParam id="1740" interp="linr"  time="0/1" value="0" leadInLength="0/1"  />
              <InterpolatingParam id="1741" interp="linr"  time="0/1" value="0" leadInLength="0/1"  />
             </VectorParam>
             <VectorParam id="1742"  name="geometryCrop">
              <InterpolatingParam id="1743" interp="linr"  time="-9999999/1" value="0" leadInLength="0/1"  />
              <InterpolatingParam id="1744" interp="linr"  time="-9999999/1" value="0" leadInLength="0/1"  />
              <InterpolatingParam id="1745" interp="linr"  time="-9999999/1" value="0" leadInLength="0/1"  />
              <InterpolatingParam id="1746" interp="linr"  time="-9999999/1" value="0" leadInLength="0/1"  />
             </VectorParam>
             <InterpolatingParam id="1747" interp="linr"  time="-9999999/1" value="1" leadInLength="0/1"  name="opacity"/>
             <InterpolatingParam id="1748" interp="linr"  time="0/1" value="0" leadInLength="0/1"  name="cursorOpacity"/>
             <InterpolatingParam id="1749" interp="linr"  time="0/1" value="0" leadInLength="0/1"  name="cursorScale"/>
            </Parameters>
            <Attributes>
             <Attribute id="1750" value="" name="ident"/>
            </Attributes>
            <MetaData>
             <entry key="AutoAppliedSmartFocus" val="False"/>
             <entry key="WinSubProjectDisplayName" val=""/>
            </MetaData>
            <ExtraData>
             <Entry key="ZoomPanBin">
              <ZoomPanBin id="1751"  >
               <ZoomPanKeyframes>
                <ZoomPanKeyframe id="1752" timeRangeEnd="-9999999/1" timeRangeDuration="0/1" interpolaterName=""  />
               </ZoomPanKeyframes>
              </ZoomPanBin>
             </Entry>
             <Entry key="CursorEffectBin">
              <CursorEffectBin id="1753"  >
               <CursorEffectKeyframes>
               </CursorEffectKeyframes>
              </CursorEffectBin>
             </Entry>
            </ExtraData>
           </ScreenVMFile>
           <ScreenVMFile id="1754" start="1906" duration="50" scalar="1/1" mediaStart="1912/1" mediaDuration="50/1" trackNumber="0" src="28" >
            <Transformer>
             <VectorParam id="1755"  name="translation">
              <InterpolatingParam id="1756" interp="linr"  time="-9999999/1" value="0" leadInLength="0/1"  />
              <InterpolatingParam id="1757" interp="linr"  time="-9999999/1" value="0" leadInLength="0/1"  />
              <InterpolatingParam id="1758" interp="linr"  time="-9999999/1" value="0" leadInLength="0/1"  />
             </VectorParam>
             <VectorParam id="1759"  name="rotation">
              <InterpolatingParam id="1760" interp="linr"  time="-9999999/1" value="0" leadInLength="0/1"  />
              <InterpolatingParam id="1761" interp="linr"  time="-9999999/1" value="0" leadInLength="0/1"  />
              <InterpolatingParam id="1762" interp="linr"  time="-9999999/1" value="0" leadInLength="0/1"  />
             </VectorParam>
             <VectorParam id="1763"  name="shear">
              <InterpolatingParam id="1764" interp="linr"  time="-9999999/1" value="0" leadInLength="0/1"  />
              <InterpolatingParam id="1765" interp="linr"  time="-9999999/1" value="0" leadInLength="0/1"  />
              <InterpolatingParam id="1766" interp="linr"  time="-9999999/1" value="0" leadInLength="0/1"  />
             </VectorParam>
             <VectorParam id="1767"  name="scale">
              <InterpolatingParam id="1768" interp="linr"  time="-9999999/1" value="1" leadInLength="0/1"  />
              <InterpolatingParam id="1769" interp="linr"  time="-9999999/1" value="1" leadInLength="0/1"  />
              <InterpolatingParam id="1770" interp="linr"  time="-9999999/1" value="1" leadInLength="0/1"  />
             </VectorParam>
             <VectorParam id="1771"  name="anchor">
              <InterpolatingParam id="1772" interp="linr"  time="0/1" value="0" leadInLength="0/1"  />
              <InterpolatingParam id="1773" interp="linr"  time="0/1" value="0" leadInLength="0/1"  />
              <InterpolatingParam id="1774" interp="linr"  time="0/1" value="0" leadInLength="0/1"  />
             </VectorParam>
            </Transformer>
            <Parameters>
             <VectorParam id="1775"  name="sourceCrop">
              <InterpolatingParam id="1776" interp="linr"  time="0/1" value="0" leadInLength="0/1"  />
              <InterpolatingParam id="1777" interp="linr"  time="0/1" value="0" leadInLength="0/1"  />
              <InterpolatingParam id="1778" interp="linr"  time="0/1" value="0" leadInLength="0/1"  />
              <InterpolatingParam id="1779" interp="linr"  time="0/1" value="0" leadInLength="0/1"  />
             </VectorParam>
             <VectorParam id="1780"  name="geometryCrop">
              <InterpolatingParam id="1781" interp="linr"  time="-9999999/1" value="0" leadInLength="0/1"  />
              <InterpolatingParam id="1782" interp="linr"  time="-9999999/1" value="0" leadInLength="0/1"  />
              <InterpolatingParam id="1783" interp="linr"  time="-9999999/1" value="0" leadInLength="0/1"  />
              <InterpolatingParam id="1784" interp="linr"  time="-9999999/1" value="0" leadInLength="0/1"  />
             </VectorParam>
             <InterpolatingParam id="1785" interp="linr"  time="-9999999/1" value="1" leadInLength="0/1"  name="opacity"/>
             <InterpolatingParam id="1786" interp="linr"  time="0/1" value="0" leadInLength="0/1"  name="cursorOpacity"/>
             <InterpolatingParam id="1787" interp="linr"  time="0/1" value="0" leadInLength="0/1"  name="cursorScale"/>
            </Parameters>
            <Attributes>
             <Attribute id="1788" value="" name="ident"/>
            </Attributes>
            <MetaData>
             <entry key="AutoAppliedSmartFocus" val="False"/>
             <entry key="WinSubProjectDisplayName" val=""/>
            </MetaData>
            <ExtraData>
             <Entry key="ZoomPanBin">
              <ZoomPanBin id="1789"  >
               <ZoomPanKeyframes>
                <ZoomPanKeyframe id="1790" timeRangeEnd="-9999999/1" timeRangeDuration="0/1" interpolaterName=""  />
               </ZoomPanKeyframes>
              </ZoomPanBin>
             </Entry>
             <Entry key="CursorEffectBin">
              <CursorEffectBin id="1791"  >
               <CursorEffectKeyframes>
               </CursorEffectKeyframes>
              </CursorEffectBin>
             </Entry>
            </ExtraData>
           </ScreenVMFile>
           <ScreenVMFile id="1792" start="1956" duration="339" scalar="1/1" mediaStart="2029/1" mediaDuration="339/1" trackNumber="0" src="28" >
            <Transformer>
             <VectorParam id="1793"  name="translation">
              <InterpolatingParam id="1794" interp="linr"  time="-9999999/1" value="0" leadInLength="0/1"  />
              <InterpolatingParam id="1795" interp="linr"  time="-9999999/1" value="0" leadInLength="0/1"  />
              <InterpolatingParam id="1796" interp="linr"  time="-9999999/1" value="0" leadInLength="0/1"  />
             </VectorParam>
             <VectorParam id="1797"  name="rotation">
              <InterpolatingParam id="1798" interp="linr"  time="-9999999/1" value="0" leadInLength="0/1"  />
              <InterpolatingParam id="1799" interp="linr"  time="-9999999/1" value="0" leadInLength="0/1"  />
              <InterpolatingParam id="1800" interp="linr"  time="-9999999/1" value="0" leadInLength="0/1"  />
             </VectorParam>
             <VectorParam id="1801"  name="shear">
              <InterpolatingParam id="1802" interp="linr"  time="-9999999/1" value="0" leadInLength="0/1"  />
              <InterpolatingParam id="1803" interp="linr"  time="-9999999/1" value="0" leadInLength="0/1"  />
              <InterpolatingParam id="1804" interp="linr"  time="-9999999/1" value="0" leadInLength="0/1"  />
             </VectorParam>
             <VectorParam id="1805"  name="scale">
              <InterpolatingParam id="1806" interp="linr"  time="-9999999/1" value="1" leadInLength="0/1"  />
              <InterpolatingParam id="1807" interp="linr"  time="-9999999/1" value="1" leadInLength="0/1"  />
              <InterpolatingParam id="1808" interp="linr"  time="-9999999/1" value="1" leadInLength="0/1"  />
             </VectorParam>
             <VectorParam id="1809"  name="anchor">
              <InterpolatingParam id="1810" interp="linr"  time="0/1" value="0" leadInLength="0/1"  />
              <InterpolatingParam id="1811" interp="linr"  time="0/1" value="0" leadInLength="0/1"  />
              <InterpolatingParam id="1812" interp="linr"  time="0/1" value="0" leadInLength="0/1"  />
             </VectorParam>
            </Transformer>
            <Parameters>
             <VectorParam id="1813"  name="sourceCrop">
              <InterpolatingParam id="1814" interp="linr"  time="0/1" value="0" leadInLength="0/1"  />
              <InterpolatingParam id="1815" interp="linr"  time="0/1" value="0" leadInLength="0/1"  />
              <InterpolatingParam id="1816" interp="linr"  time="0/1" value="0" leadInLength="0/1"  />
              <InterpolatingParam id="1817" interp="linr"  time="0/1" value="0" leadInLength="0/1"  />
             </VectorParam>
             <VectorParam id="1818"  name="geometryCrop">
              <InterpolatingParam id="1819" interp="linr"  time="-9999999/1" value="0" leadInLength="0/1"  />
              <InterpolatingParam id="1820" interp="linr"  time="-9999999/1" value="0" leadInLength="0/1"  />
              <InterpolatingParam id="1821" interp="linr"  time="-9999999/1" value="0" leadInLength="0/1"  />
              <InterpolatingParam id="1822" interp="linr"  time="-9999999/1" value="0" leadInLength="0/1"  />
             </VectorParam>
             <InterpolatingParam id="1823" interp="linr"  time="-9999999/1" value="1" leadInLength="0/1"  name="opacity"/>
             <InterpolatingParam id="1824" interp="linr"  time="0/1" value="0" leadInLength="0/1"  name="cursorOpacity"/>
             <InterpolatingParam id="1825" interp="linr"  time="0/1" value="0" leadInLength="0/1"  name="cursorScale"/>
            </Parameters>
            <Attributes>
             <Attribute id="1826" value="" name="ident"/>
            </Attributes>
            <MetaData>
             <entry key="AutoAppliedSmartFocus" val="False"/>
             <entry key="WinSubProjectDisplayName" val=""/>
            </MetaData>
            <ExtraData>
             <Entry key="ZoomPanBin">
              <ZoomPanBin id="1827"  >
               <ZoomPanKeyframes>
                <ZoomPanKeyframe id="1828" timeRangeEnd="-9999999/1" timeRangeDuration="0/1" interpolaterName=""  />
               </ZoomPanKeyframes>
              </ZoomPanBin>
             </Entry>
             <Entry key="CursorEffectBin">
              <CursorEffectBin id="1829"  >
               <CursorEffectKeyframes>
               </CursorEffectKeyframes>
              </CursorEffectBin>
             </Entry>
            </ExtraData>
           </ScreenVMFile>
          </Medias>
         </GenericTrack>
        </StitchedMedia>
        <StitchedMedia id="1830" start="4215" duration="1703" scalar="1/1" mediaStart="1355/1" mediaDuration="1703/1" minMediaStart="0/1" >
         <Transformer>
          <VectorParam id="1831"  name="translation">
           <InterpolatingParam id="1832" interp="linr"  time="-9999999/1" value="-1.5051709878476598e-010" leadInLength="0/1"  />
           <InterpolatingParam id="1833" interp="linr"  time="-9999999/1" value="-4.3894488044315945e-011" leadInLength="0/1"  />
           <InterpolatingParam id="1834" interp="linr"  time="-9999999/1" value="0" leadInLength="0/1"  />
          </VectorParam>
          <VectorParam id="1835"  name="rotation">
           <InterpolatingParam id="1836" interp="linr"  time="-9999999/1" value="0" leadInLength="0/1"  />
           <InterpolatingParam id="1837" interp="linr"  time="-9999999/1" value="0" leadInLength="0/1"  />
           <InterpolatingParam id="1838" interp="linr"  time="-9999999/1" value="0" leadInLength="0/1"  />
          </VectorParam>
          <VectorParam id="1839"  name="shear">
           <InterpolatingParam id="1840" interp="linr"  time="-9999999/1" value="0" leadInLength="0/1"  />
           <InterpolatingParam id="1841" interp="linr"  time="-9999999/1" value="0" leadInLength="0/1"  />
           <InterpolatingParam id="1842" interp="linr"  time="-9999999/1" value="0" leadInLength="0/1"  />
          </VectorParam>
          <VectorParam id="1843"  name="scale">
           <InterpolatingParam id="1844" interp="linr"  time="-9999999/1" value="0.73124999999999996" leadInLength="0/1"  />
           <InterpolatingParam id="1845" interp="linr"  time="-9999999/1" value="0.73124999999999996" leadInLength="0/1"  />
           <InterpolatingParam id="1846" interp="linr"  time="-9999999/1" value="1" leadInLength="0/1"  />
          </VectorParam>
          <VectorParam id="1847"  name="anchor">
           <InterpolatingParam id="1848" interp="linr"  time="0/1" value="0" leadInLength="0/1"  />
           <InterpolatingParam id="1849" interp="linr"  time="0/1" value="0" leadInLength="0/1"  />
           <InterpolatingParam id="1850" interp="linr"  time="0/1" value="0" leadInLength="0/1"  />
          </VectorParam>
         </Transformer>
         <Parameters>
          <VectorParam id="1851"  name="sourceCrop">
           <InterpolatingParam id="1852" interp="linr"  time="0/1" value="0" leadInLength="0/1"  />
           <InterpolatingParam id="1853" interp="linr"  time="0/1" value="0" leadInLength="0/1"  />
           <InterpolatingParam id="1854" interp="linr"  time="0/1" value="0" leadInLength="0/1"  />
           <InterpolatingParam id="1855" interp="linr"  time="0/1" value="0" leadInLength="0/1"  />
          </VectorParam>
          <VectorParam id="1856"  name="geometryCrop">
           <InterpolatingParam id="1857" interp="linr"  time="-9999999/1" value="0" leadInLength="0/1"  />
           <InterpolatingParam id="1858" interp="linr"  time="-9999999/1" value="0" leadInLength="0/1"  />
           <InterpolatingParam id="1859" interp="linr"  time="-9999999/1" value="0" leadInLength="0/1"  />
           <InterpolatingParam id="1860" interp="linr"  time="-9999999/1" value="0" leadInLength="0/1"  />
          </VectorParam>
          <InterpolatingParam id="1861" interp="linr"  time="-9999999/1" value="1" leadInLength="0/1"  name="opacity"/>
          <InterpolatingParam id="1862" interp="linr"  time="0/1" value="1" leadInLength="0/1"  name="cursorOpacity"/>
          <InterpolatingParam id="1863" interp="linr"  time="0/1" value="1" leadInLength="0/1"  name="cursorScale"/>
          <Parameter id="1864"  name="captions"/>
         </Parameters>
         <Effects>
          <GenericEffect id="1865" name = "CursorBaseEffectName" >
           <Parameters>
           <InterpolatingParam id="1866" interp="linr"  time="-9999999/1" value="1" leadInLength="0/1"   name="cursorSize"/>
           <InterpolatingParam id="1867" interp="linr"  time="-9999999/1" value="0" leadInLength="0/1"   name="highlightBlurRadius"/>
           <InterpolatingParam id="1868" interp="linr"  time="-9999999/1" value="0" leadInLength="0/1"   name="highlightColorBlue"/>
           <InterpolatingParam id="1869" interp="linr"  time="-9999999/1" value="255" leadInLength="0/1"   name="highlightColorGreen"/>
           <InterpolatingParam id="1870" interp="linr"  time="-9999999/1" value="255" leadInLength="0/1"   name="highlightColorRed"/>
           <InterpolatingParam id="1871" interp="linr"  time="-9999999/1" value="5" leadInLength="0/1"   name="highlightFeatherSize"/>
           <InterpolatingParam id="1872" interp="linr"  time="-9999999/1" value="2" leadInLength="0/1"   name="highlightMagnification"/>
           <InterpolatingParam id="1873" interp="linr"  time="-9999999/1" value="1" leadInLength="0/1"   name="highlightOpacity"/>
           <InterpolatingParam id="1874" interp="linr"  time="-9999999/1" value="45" leadInLength="0/1"   name="highlightSize"/>
           <Parameter id="1875"   name="highlightType">
            <Keyframes>
            <Keyframe id="1876"  time="-9999999/1" value="0" leadInLength="0/1"  />
            </Keyframes>
           </Parameter>
           <InterpolatingParam id="1877" interp="linr"  time="-9999999/1" value="0" leadInLength="0/1"   name="leftClickColorBlue"/>
           <InterpolatingParam id="1878" interp="linr"  time="-9999999/1" value="0" leadInLength="0/1"   name="leftClickColorGreen"/>
           <InterpolatingParam id="1879" interp="linr"  time="-9999999/1" value="255" leadInLength="0/1"   name="leftClickColorRed"/>
           <InterpolatingParam id="1880" interp="linr"  time="-9999999/1" value="0.80000000000000004" leadInLength="0/1"   name="leftClickDuration"/>
           <InterpolatingParam id="1881" interp="linr"  time="-9999999/1" value="20" leadInLength="0/1"   name="leftClickSize"/>
           <Parameter id="1882"   name="leftClickSoundFilename">
            <Keyframes>
            <Keyframe id="1883"  time="-9999999/1" value="" leadInLength="0/1"  />
            </Keyframes>
           </Parameter>
           <InterpolatingParam id="1884" interp="linr"  time="-9999999/1" value="1" leadInLength="0/1"   name="leftClickSoundVolume"/>
           <Parameter id="1885"   name="leftClickType">
            <Keyframes>
            <Keyframe id="1886"  time="-9999999/1" value="0" leadInLength="0/1"  />
            </Keyframes>
           </Parameter>
           <InterpolatingParam id="1887" interp="linr"  time="-9999999/1" value="1" leadInLength="0/1"   name="opacity"/>
           <InterpolatingParam id="1888" interp="linr"  time="-9999999/1" value="255" leadInLength="0/1"   name="rightClickColorBlue"/>
           <InterpolatingParam id="1889" interp="linr"  time="-9999999/1" value="0" leadInLength="0/1"   name="rightClickColorGreen"/>
           <InterpolatingParam id="1890" interp="linr"  time="-9999999/1" value="0" leadInLength="0/1"   name="rightClickColorRed"/>
           <InterpolatingParam id="1891" interp="linr"  time="-9999999/1" value="0.80000000000000004" leadInLength="0/1"   name="rightClickDuration"/>
           <InterpolatingParam id="1892" interp="linr"  time="-9999999/1" value="20" leadInLength="0/1"   name="rightClickSize"/>
           <Parameter id="1893"   name="rightClickSoundFilename">
            <Keyframes>
            <Keyframe id="1894"  time="-9999999/1" value="" leadInLength="0/1"  />
            </Keyframes>
           </Parameter>
           <InterpolatingParam id="1895" interp="linr"  time="-9999999/1" value="1" leadInLength="0/1"   name="rightClickSoundVolume"/>
           <Parameter id="1896"   name="rightClickType">
            <Keyframes>
            <Keyframe id="1897"  time="-9999999/1" value="0" leadInLength="0/1"  />
            </Keyframes>
           </Parameter>
           </Parameters>
          </GenericEffect>
         </Effects>
         <Attributes>
          <Attribute id="1898" value="" name="ident"/>
         </Attributes>
         <MetaData>
          <entry key="AutoAppliedSmartFocus" val="False"/>
          <entry key="WinSubProjectDisplayName" val=""/>
         </MetaData>
         <ExtraData>
          <Entry key="ZoomPanBin">
           <ZoomPanBin id="1899"  >
            <ZoomPanKeyframes>
             <ZoomPanKeyframe id="1900" timeRangeEnd="-9999999/1" timeRangeDuration="0/1" interpolaterName=""  />
            </ZoomPanKeyframes>
           </ZoomPanBin>
          </Entry>
          <Entry key="CursorEffectBin">
           <CursorEffectBin id="1901"  >
            <CursorEffectKeyframes>
             <CursorEffectKeyframe id="1902" timeRangeEnd="-9999999/1" timeRangeDuration="0/1" interpolaterName=""  />
            </CursorEffectKeyframes>
           </CursorEffectBin>
          </Entry>
         </ExtraData>
         <GenericTrack id="1903"  >
          <Attributes>
           <Attribute id="1904" value="" name="ident"/>
           <Attribute id="1905" value="0" name="audioMuted"/>
           <Attribute id="1906" value="0" name="videoHidden"/>
          </Attributes>
          <MetaData>
           <entry key="IsLocked" val="False"/>
           <entry key="WinTrackHeight" val="0"/>
          </MetaData>
          <Medias>
           <ScreenVMFile id="1907" start="0" duration="1472" scalar="1/1" mediaStart="0/1" mediaDuration="1472/1" trackNumber="0" src="11" >
            <Transformer>
             <VectorParam id="1908"  name="translation">
              <InterpolatingParam id="1909" interp="linr"  time="-9999999/1" value="0" leadInLength="0/1"  />
              <InterpolatingParam id="1910" interp="linr"  time="-9999999/1" value="0" leadInLength="0/1"  />
              <InterpolatingParam id="1911" interp="linr"  time="-9999999/1" value="0" leadInLength="0/1"  />
             </VectorParam>
             <VectorParam id="1912"  name="rotation">
              <InterpolatingParam id="1913" interp="linr"  time="-9999999/1" value="0" leadInLength="0/1"  />
              <InterpolatingParam id="1914" interp="linr"  time="-9999999/1" value="0" leadInLength="0/1"  />
              <InterpolatingParam id="1915" interp="linr"  time="-9999999/1" value="0" leadInLength="0/1"  />
             </VectorParam>
             <VectorParam id="1916"  name="shear">
              <InterpolatingParam id="1917" interp="linr"  time="-9999999/1" value="0" leadInLength="0/1"  />
              <InterpolatingParam id="1918" interp="linr"  time="-9999999/1" value="0" leadInLength="0/1"  />
              <InterpolatingParam id="1919" interp="linr"  time="-9999999/1" value="0" leadInLength="0/1"  />
             </VectorParam>
             <VectorParam id="1920"  name="scale">
              <InterpolatingParam id="1921" interp="linr"  time="-9999999/1" value="1" leadInLength="0/1"  />
              <InterpolatingParam id="1922" interp="linr"  time="-9999999/1" value="1" leadInLength="0/1"  />
              <InterpolatingParam id="1923" interp="linr"  time="-9999999/1" value="1" leadInLength="0/1"  />
             </VectorParam>
             <VectorParam id="1924"  name="anchor">
              <InterpolatingParam id="1925" interp="linr"  time="0/1" value="0" leadInLength="0/1"  />
              <InterpolatingParam id="1926" interp="linr"  time="0/1" value="0" leadInLength="0/1"  />
              <InterpolatingParam id="1927" interp="linr"  time="0/1" value="0" leadInLength="0/1"  />
             </VectorParam>
            </Transformer>
            <Parameters>
             <VectorParam id="1928"  name="sourceCrop">
              <InterpolatingParam id="1929" interp="linr"  time="0/1" value="0" leadInLength="0/1"  />
              <InterpolatingParam id="1930" interp="linr"  time="0/1" value="0" leadInLength="0/1"  />
              <InterpolatingParam id="1931" interp="linr"  time="0/1" value="0" leadInLength="0/1"  />
              <InterpolatingParam id="1932" interp="linr"  time="0/1" value="0" leadInLength="0/1"  />
             </VectorParam>
             <VectorParam id="1933"  name="geometryCrop">
              <InterpolatingParam id="1934" interp="linr"  time="-9999999/1" value="0" leadInLength="0/1"  />
              <InterpolatingParam id="1935" interp="linr"  time="-9999999/1" value="0" leadInLength="0/1"  />
              <InterpolatingParam id="1936" interp="linr"  time="-9999999/1" value="0" leadInLength="0/1"  />
              <InterpolatingParam id="1937" interp="linr"  time="-9999999/1" value="0" leadInLength="0/1"  />
             </VectorParam>
             <InterpolatingParam id="1938" interp="linr"  time="-9999999/1" value="1" leadInLength="0/1"  name="opacity"/>
             <InterpolatingParam id="1939" interp="linr"  time="0/1" value="0" leadInLength="0/1"  name="cursorOpacity"/>
             <InterpolatingParam id="1940" interp="linr"  time="0/1" value="0" leadInLength="0/1"  name="cursorScale"/>
            </Parameters>
            <Attributes>
             <Attribute id="1941" value="" name="ident"/>
            </Attributes>
            <MetaData>
             <entry key="AutoAppliedSmartFocus" val="False"/>
             <entry key="WinSubProjectDisplayName" val=""/>
            </MetaData>
            <ExtraData>
             <Entry key="ZoomPanBin">
              <ZoomPanBin id="1942"  >
               <ZoomPanKeyframes>
                <ZoomPanKeyframe id="1943" timeRangeEnd="-9999999/1" timeRangeDuration="0/1" interpolaterName=""  />
               </ZoomPanKeyframes>
              </ZoomPanBin>
             </Entry>
             <Entry key="CursorEffectBin">
              <CursorEffectBin id="1944"  >
               <CursorEffectKeyframes>
               </CursorEffectKeyframes>
              </CursorEffectBin>
             </Entry>
            </ExtraData>
           </ScreenVMFile>
           <ScreenVMFile id="1945" start="1472" duration="141" scalar="1/1" mediaStart="1480/1" mediaDuration="141/1" trackNumber="0" src="11" >
            <Transformer>
             <VectorParam id="1946"  name="translation">
              <InterpolatingParam id="1947" interp="linr"  time="-9999999/1" value="0" leadInLength="0/1"  />
              <InterpolatingParam id="1948" interp="linr"  time="-9999999/1" value="0" leadInLength="0/1"  />
              <InterpolatingParam id="1949" interp="linr"  time="-9999999/1" value="0" leadInLength="0/1"  />
             </VectorParam>
             <VectorParam id="1950"  name="rotation">
              <InterpolatingParam id="1951" interp="linr"  time="-9999999/1" value="0" leadInLength="0/1"  />
              <InterpolatingParam id="1952" interp="linr"  time="-9999999/1" value="0" leadInLength="0/1"  />
              <InterpolatingParam id="1953" interp="linr"  time="-9999999/1" value="0" leadInLength="0/1"  />
             </VectorParam>
             <VectorParam id="1954"  name="shear">
              <InterpolatingParam id="1955" interp="linr"  time="-9999999/1" value="0" leadInLength="0/1"  />
              <InterpolatingParam id="1956" interp="linr"  time="-9999999/1" value="0" leadInLength="0/1"  />
              <InterpolatingParam id="1957" interp="linr"  time="-9999999/1" value="0" leadInLength="0/1"  />
             </VectorParam>
             <VectorParam id="1958"  name="scale">
              <InterpolatingParam id="1959" interp="linr"  time="-9999999/1" value="1" leadInLength="0/1"  />
              <InterpolatingParam id="1960" interp="linr"  time="-9999999/1" value="1" leadInLength="0/1"  />
              <InterpolatingParam id="1961" interp="linr"  time="-9999999/1" value="1" leadInLength="0/1"  />
             </VectorParam>
             <VectorParam id="1962"  name="anchor">
              <InterpolatingParam id="1963" interp="linr"  time="0/1" value="0" leadInLength="0/1"  />
              <InterpolatingParam id="1964" interp="linr"  time="0/1" value="0" leadInLength="0/1"  />
              <InterpolatingParam id="1965" interp="linr"  time="0/1" value="0" leadInLength="0/1"  />
             </VectorParam>
            </Transformer>
            <Parameters>
             <VectorParam id="1966"  name="sourceCrop">
              <InterpolatingParam id="1967" interp="linr"  time="0/1" value="0" leadInLength="0/1"  />
              <InterpolatingParam id="1968" interp="linr"  time="0/1" value="0" leadInLength="0/1"  />
              <InterpolatingParam id="1969" interp="linr"  time="0/1" value="0" leadInLength="0/1"  />
              <InterpolatingParam id="1970" interp="linr"  time="0/1" value="0" leadInLength="0/1"  />
             </VectorParam>
             <VectorParam id="1971"  name="geometryCrop">
              <InterpolatingParam id="1972" interp="linr"  time="-9999999/1" value="0" leadInLength="0/1"  />
              <InterpolatingParam id="1973" interp="linr"  time="-9999999/1" value="0" leadInLength="0/1"  />
              <InterpolatingParam id="1974" interp="linr"  time="-9999999/1" value="0" leadInLength="0/1"  />
              <InterpolatingParam id="1975" interp="linr"  time="-9999999/1" value="0" leadInLength="0/1"  />
             </VectorParam>
             <InterpolatingParam id="1976" interp="linr"  time="-9999999/1" value="1" leadInLength="0/1"  name="opacity"/>
             <InterpolatingParam id="1977" interp="linr"  time="0/1" value="0" leadInLength="0/1"  name="cursorOpacity"/>
             <InterpolatingParam id="1978" interp="linr"  time="0/1" value="0" leadInLength="0/1"  name="cursorScale"/>
            </Parameters>
            <Attributes>
             <Attribute id="1979" value="" name="ident"/>
            </Attributes>
            <MetaData>
             <entry key="AutoAppliedSmartFocus" val="False"/>
             <entry key="WinSubProjectDisplayName" val=""/>
            </MetaData>
            <ExtraData>
             <Entry key="ZoomPanBin">
              <ZoomPanBin id="1980"  >
               <ZoomPanKeyframes>
                <ZoomPanKeyframe id="1981" timeRangeEnd="-9999999/1" timeRangeDuration="0/1" interpolaterName=""  />
               </ZoomPanKeyframes>
              </ZoomPanBin>
             </Entry>
             <Entry key="CursorEffectBin">
              <CursorEffectBin id="1982"  >
               <CursorEffectKeyframes>
               </CursorEffectKeyframes>
              </CursorEffectBin>
             </Entry>
            </ExtraData>
           </ScreenVMFile>
           <ScreenVMFile id="1983" start="1613" duration="26" scalar="1/1" mediaStart="1629/1" mediaDuration="26/1" trackNumber="0" src="11" >
            <Transformer>
             <VectorParam id="1984"  name="translation">
              <InterpolatingParam id="1985" interp="linr"  time="-9999999/1" value="0" leadInLength="0/1"  />
              <InterpolatingParam id="1986" interp="linr"  time="-9999999/1" value="0" leadInLength="0/1"  />
              <InterpolatingParam id="1987" interp="linr"  time="-9999999/1" value="0" leadInLength="0/1"  />
             </VectorParam>
             <VectorParam id="1988"  name="rotation">
              <InterpolatingParam id="1989" interp="linr"  time="-9999999/1" value="0" leadInLength="0/1"  />
              <InterpolatingParam id="1990" interp="linr"  time="-9999999/1" value="0" leadInLength="0/1"  />
              <InterpolatingParam id="1991" interp="linr"  time="-9999999/1" value="0" leadInLength="0/1"  />
             </VectorParam>
             <VectorParam id="1992"  name="shear">
              <InterpolatingParam id="1993" interp="linr"  time="-9999999/1" value="0" leadInLength="0/1"  />
              <InterpolatingParam id="1994" interp="linr"  time="-9999999/1" value="0" leadInLength="0/1"  />
              <InterpolatingParam id="1995" interp="linr"  time="-9999999/1" value="0" leadInLength="0/1"  />
             </VectorParam>
             <VectorParam id="1996"  name="scale">
              <InterpolatingParam id="1997" interp="linr"  time="-9999999/1" value="1" leadInLength="0/1"  />
              <InterpolatingParam id="1998" interp="linr"  time="-9999999/1" value="1" leadInLength="0/1"  />
              <InterpolatingParam id="1999" interp="linr"  time="-9999999/1" value="1" leadInLength="0/1"  />
             </VectorParam>
             <VectorParam id="2000"  name="anchor">
              <InterpolatingParam id="2001" interp="linr"  time="0/1" value="0" leadInLength="0/1"  />
              <InterpolatingParam id="2002" interp="linr"  time="0/1" value="0" leadInLength="0/1"  />
              <InterpolatingParam id="2003" interp="linr"  time="0/1" value="0" leadInLength="0/1"  />
             </VectorParam>
            </Transformer>
            <Parameters>
             <VectorParam id="2004"  name="sourceCrop">
              <InterpolatingParam id="2005" interp="linr"  time="0/1" value="0" leadInLength="0/1"  />
              <InterpolatingParam id="2006" interp="linr"  time="0/1" value="0" leadInLength="0/1"  />
              <InterpolatingParam id="2007" interp="linr"  time="0/1" value="0" leadInLength="0/1"  />
              <InterpolatingParam id="2008" interp="linr"  time="0/1" value="0" leadInLength="0/1"  />
             </VectorParam>
             <VectorParam id="2009"  name="geometryCrop">
              <InterpolatingParam id="2010" interp="linr"  time="-9999999/1" value="0" leadInLength="0/1"  />
              <InterpolatingParam id="2011" interp="linr"  time="-9999999/1" value="0" leadInLength="0/1"  />
              <InterpolatingParam id="2012" interp="linr"  time="-9999999/1" value="0" leadInLength="0/1"  />
              <InterpolatingParam id="2013" interp="linr"  time="-9999999/1" value="0" leadInLength="0/1"  />
             </VectorParam>
             <InterpolatingParam id="2014" interp="linr"  time="-9999999/1" value="1" leadInLength="0/1"  name="opacity"/>
             <InterpolatingParam id="2015" interp="linr"  time="0/1" value="0" leadInLength="0/1"  name="cursorOpacity"/>
             <InterpolatingParam id="2016" interp="linr"  time="0/1" value="0" leadInLength="0/1"  name="cursorScale"/>
            </Parameters>
            <Attributes>
             <Attribute id="2017" value="" name="ident"/>
            </Attributes>
            <MetaData>
             <entry key="AutoAppliedSmartFocus" val="False"/>
             <entry key="WinSubProjectDisplayName" val=""/>
            </MetaData>
            <ExtraData>
             <Entry key="ZoomPanBin">
              <ZoomPanBin id="2018"  >
               <ZoomPanKeyframes>
                <ZoomPanKeyframe id="2019" timeRangeEnd="-9999999/1" timeRangeDuration="0/1" interpolaterName=""  />
               </ZoomPanKeyframes>
              </ZoomPanBin>
             </Entry>
             <Entry key="CursorEffectBin">
              <CursorEffectBin id="2020"  >
               <CursorEffectKeyframes>
               </CursorEffectKeyframes>
              </CursorEffectBin>
             </Entry>
            </ExtraData>
           </ScreenVMFile>
           <ScreenVMFile id="2021" start="1639" duration="22" scalar="1/1" mediaStart="1662/1" mediaDuration="22/1" trackNumber="0" src="11" >
            <Transformer>
             <VectorParam id="2022"  name="translation">
              <InterpolatingParam id="2023" interp="linr"  time="-9999999/1" value="0" leadInLength="0/1"  />
              <InterpolatingParam id="2024" interp="linr"  time="-9999999/1" value="0" leadInLength="0/1"  />
              <InterpolatingParam id="2025" interp="linr"  time="-9999999/1" value="0" leadInLength="0/1"  />
             </VectorParam>
             <VectorParam id="2026"  name="rotation">
              <InterpolatingParam id="2027" interp="linr"  time="-9999999/1" value="0" leadInLength="0/1"  />
              <InterpolatingParam id="2028" interp="linr"  time="-9999999/1" value="0" leadInLength="0/1"  />
              <InterpolatingParam id="2029" interp="linr"  time="-9999999/1" value="0" leadInLength="0/1"  />
             </VectorParam>
             <VectorParam id="2030"  name="shear">
              <InterpolatingParam id="2031" interp="linr"  time="-9999999/1" value="0" leadInLength="0/1"  />
              <InterpolatingParam id="2032" interp="linr"  time="-9999999/1" value="0" leadInLength="0/1"  />
              <InterpolatingParam id="2033" interp="linr"  time="-9999999/1" value="0" leadInLength="0/1"  />
             </VectorParam>
             <VectorParam id="2034"  name="scale">
              <InterpolatingParam id="2035" interp="linr"  time="-9999999/1" value="1" leadInLength="0/1"  />
              <InterpolatingParam id="2036" interp="linr"  time="-9999999/1" value="1" leadInLength="0/1"  />
              <InterpolatingParam id="2037" interp="linr"  time="-9999999/1" value="1" leadInLength="0/1"  />
             </VectorParam>
             <VectorParam id="2038"  name="anchor">
              <InterpolatingParam id="2039" interp="linr"  time="0/1" value="0" leadInLength="0/1"  />
              <InterpolatingParam id="2040" interp="linr"  time="0/1" value="0" leadInLength="0/1"  />
              <InterpolatingParam id="2041" interp="linr"  time="0/1" value="0" leadInLength="0/1"  />
             </VectorParam>
            </Transformer>
            <Parameters>
             <VectorParam id="2042"  name="sourceCrop">
              <InterpolatingParam id="2043" interp="linr"  time="0/1" value="0" leadInLength="0/1"  />
              <InterpolatingParam id="2044" interp="linr"  time="0/1" value="0" leadInLength="0/1"  />
              <InterpolatingParam id="2045" interp="linr"  time="0/1" value="0" leadInLength="0/1"  />
              <InterpolatingParam id="2046" interp="linr"  time="0/1" value="0" leadInLength="0/1"  />
             </VectorParam>
             <VectorParam id="2047"  name="geometryCrop">
              <InterpolatingParam id="2048" interp="linr"  time="-9999999/1" value="0" leadInLength="0/1"  />
              <InterpolatingParam id="2049" interp="linr"  time="-9999999/1" value="0" leadInLength="0/1"  />
              <InterpolatingParam id="2050" interp="linr"  time="-9999999/1" value="0" leadInLength="0/1"  />
              <InterpolatingParam id="2051" interp="linr"  time="-9999999/1" value="0" leadInLength="0/1"  />
             </VectorParam>
             <InterpolatingParam id="2052" interp="linr"  time="-9999999/1" value="1" leadInLength="0/1"  name="opacity"/>
             <InterpolatingParam id="2053" interp="linr"  time="0/1" value="0" leadInLength="0/1"  name="cursorOpacity"/>
             <InterpolatingParam id="2054" interp="linr"  time="0/1" value="0" leadInLength="0/1"  name="cursorScale"/>
            </Parameters>
            <Attributes>
             <Attribute id="2055" value="" name="ident"/>
            </Attributes>
            <MetaData>
             <entry key="AutoAppliedSmartFocus" val="False"/>
             <entry key="WinSubProjectDisplayName" val=""/>
            </MetaData>
            <ExtraData>
             <Entry key="ZoomPanBin">
              <ZoomPanBin id="2056"  >
               <ZoomPanKeyframes>
                <ZoomPanKeyframe id="2057" timeRangeEnd="-9999999/1" timeRangeDuration="0/1" interpolaterName=""  />
               </ZoomPanKeyframes>
              </ZoomPanBin>
             </Entry>
             <Entry key="CursorEffectBin">
              <CursorEffectBin id="2058"  >
               <CursorEffectKeyframes>
               </CursorEffectKeyframes>
              </CursorEffectBin>
             </Entry>
            </ExtraData>
           </ScreenVMFile>
           <ScreenVMFile id="2059" start="1661" duration="33" scalar="1/1" mediaStart="1692/1" mediaDuration="33/1" trackNumber="0" src="11" >
            <Transformer>
             <VectorParam id="2060"  name="translation">
              <InterpolatingParam id="2061" interp="linr"  time="-9999999/1" value="0" leadInLength="0/1"  />
              <InterpolatingParam id="2062" interp="linr"  time="-9999999/1" value="0" leadInLength="0/1"  />
              <InterpolatingParam id="2063" interp="linr"  time="-9999999/1" value="0" leadInLength="0/1"  />
             </VectorParam>
             <VectorParam id="2064"  name="rotation">
              <InterpolatingParam id="2065" interp="linr"  time="-9999999/1" value="0" leadInLength="0/1"  />
              <InterpolatingParam id="2066" interp="linr"  time="-9999999/1" value="0" leadInLength="0/1"  />
              <InterpolatingParam id="2067" interp="linr"  time="-9999999/1" value="0" leadInLength="0/1"  />
             </VectorParam>
             <VectorParam id="2068"  name="shear">
              <InterpolatingParam id="2069" interp="linr"  time="-9999999/1" value="0" leadInLength="0/1"  />
              <InterpolatingParam id="2070" interp="linr"  time="-9999999/1" value="0" leadInLength="0/1"  />
              <InterpolatingParam id="2071" interp="linr"  time="-9999999/1" value="0" leadInLength="0/1"  />
             </VectorParam>
             <VectorParam id="2072"  name="scale">
              <InterpolatingParam id="2073" interp="linr"  time="-9999999/1" value="1" leadInLength="0/1"  />
              <InterpolatingParam id="2074" interp="linr"  time="-9999999/1" value="1" leadInLength="0/1"  />
              <InterpolatingParam id="2075" interp="linr"  time="-9999999/1" value="1" leadInLength="0/1"  />
             </VectorParam>
             <VectorParam id="2076"  name="anchor">
              <InterpolatingParam id="2077" interp="linr"  time="0/1" value="0" leadInLength="0/1"  />
              <InterpolatingParam id="2078" interp="linr"  time="0/1" value="0" leadInLength="0/1"  />
              <InterpolatingParam id="2079" interp="linr"  time="0/1" value="0" leadInLength="0/1"  />
             </VectorParam>
            </Transformer>
            <Parameters>
             <VectorParam id="2080"  name="sourceCrop">
              <InterpolatingParam id="2081" interp="linr"  time="0/1" value="0" leadInLength="0/1"  />
              <InterpolatingParam id="2082" interp="linr"  time="0/1" value="0" leadInLength="0/1"  />
              <InterpolatingParam id="2083" interp="linr"  time="0/1" value="0" leadInLength="0/1"  />
              <InterpolatingParam id="2084" interp="linr"  time="0/1" value="0" leadInLength="0/1"  />
             </VectorParam>
             <VectorParam id="2085"  name="geometryCrop">
              <InterpolatingParam id="2086" interp="linr"  time="-9999999/1" value="0" leadInLength="0/1"  />
              <InterpolatingParam id="2087" interp="linr"  time="-9999999/1" value="0" leadInLength="0/1"  />
              <InterpolatingParam id="2088" interp="linr"  time="-9999999/1" value="0" leadInLength="0/1"  />
              <InterpolatingParam id="2089" interp="linr"  time="-9999999/1" value="0" leadInLength="0/1"  />
             </VectorParam>
             <InterpolatingParam id="2090" interp="linr"  time="-9999999/1" value="1" leadInLength="0/1"  name="opacity"/>
             <InterpolatingParam id="2091" interp="linr"  time="0/1" value="0" leadInLength="0/1"  name="cursorOpacity"/>
             <InterpolatingParam id="2092" interp="linr"  time="0/1" value="0" leadInLength="0/1"  name="cursorScale"/>
            </Parameters>
            <Attributes>
             <Attribute id="2093" value="" name="ident"/>
            </Attributes>
            <MetaData>
             <entry key="AutoAppliedSmartFocus" val="False"/>
             <entry key="WinSubProjectDisplayName" val=""/>
            </MetaData>
            <ExtraData>
             <Entry key="ZoomPanBin">
              <ZoomPanBin id="2094"  >
               <ZoomPanKeyframes>
                <ZoomPanKeyframe id="2095" timeRangeEnd="-9999999/1" timeRangeDuration="0/1" interpolaterName=""  />
               </ZoomPanKeyframes>
              </ZoomPanBin>
             </Entry>
             <Entry key="CursorEffectBin">
              <CursorEffectBin id="2096"  >
               <CursorEffectKeyframes>
               </CursorEffectKeyframes>
              </CursorEffectBin>
             </Entry>
            </ExtraData>
           </ScreenVMFile>
           <ScreenVMFile id="2097" start="1694" duration="63" scalar="1/1" mediaStart="1745/1" mediaDuration="63/1" trackNumber="0" src="11" >
            <Transformer>
             <VectorParam id="2098"  name="translation">
              <InterpolatingParam id="2099" interp="linr"  time="-9999999/1" value="0" leadInLength="0/1"  />
              <InterpolatingParam id="2100" interp="linr"  time="-9999999/1" value="0" leadInLength="0/1"  />
              <InterpolatingParam id="2101" interp="linr"  time="-9999999/1" value="0" leadInLength="0/1"  />
             </VectorParam>
             <VectorParam id="2102"  name="rotation">
              <InterpolatingParam id="2103" interp="linr"  time="-9999999/1" value="0" leadInLength="0/1"  />
              <InterpolatingParam id="2104" interp="linr"  time="-9999999/1" value="0" leadInLength="0/1"  />
              <InterpolatingParam id="2105" interp="linr"  time="-9999999/1" value="0" leadInLength="0/1"  />
             </VectorParam>
             <VectorParam id="2106"  name="shear">
              <InterpolatingParam id="2107" interp="linr"  time="-9999999/1" value="0" leadInLength="0/1"  />
              <InterpolatingParam id="2108" interp="linr"  time="-9999999/1" value="0" leadInLength="0/1"  />
              <InterpolatingParam id="2109" interp="linr"  time="-9999999/1" value="0" leadInLength="0/1"  />
             </VectorParam>
             <VectorParam id="2110"  name="scale">
              <InterpolatingParam id="2111" interp="linr"  time="-9999999/1" value="1" leadInLength="0/1"  />
              <InterpolatingParam id="2112" interp="linr"  time="-9999999/1" value="1" leadInLength="0/1"  />
              <InterpolatingParam id="2113" interp="linr"  time="-9999999/1" value="1" leadInLength="0/1"  />
             </VectorParam>
             <VectorParam id="2114"  name="anchor">
              <InterpolatingParam id="2115" interp="linr"  time="0/1" value="0" leadInLength="0/1"  />
              <InterpolatingParam id="2116" interp="linr"  time="0/1" value="0" leadInLength="0/1"  />
              <InterpolatingParam id="2117" interp="linr"  time="0/1" value="0" leadInLength="0/1"  />
             </VectorParam>
            </Transformer>
            <Parameters>
             <VectorParam id="2118"  name="sourceCrop">
              <InterpolatingParam id="2119" interp="linr"  time="0/1" value="0" leadInLength="0/1"  />
              <InterpolatingParam id="2120" interp="linr"  time="0/1" value="0" leadInLength="0/1"  />
              <InterpolatingParam id="2121" interp="linr"  time="0/1" value="0" leadInLength="0/1"  />
              <InterpolatingParam id="2122" interp="linr"  time="0/1" value="0" leadInLength="0/1"  />
             </VectorParam>
             <VectorParam id="2123"  name="geometryCrop">
              <InterpolatingParam id="2124" interp="linr"  time="-9999999/1" value="0" leadInLength="0/1"  />
              <InterpolatingParam id="2125" interp="linr"  time="-9999999/1" value="0" leadInLength="0/1"  />
              <InterpolatingParam id="2126" interp="linr"  time="-9999999/1" value="0" leadInLength="0/1"  />
              <InterpolatingParam id="2127" interp="linr"  time="-9999999/1" value="0" leadInLength="0/1"  />
             </VectorParam>
             <InterpolatingParam id="2128" interp="linr"  time="-9999999/1" value="1" leadInLength="0/1"  name="opacity"/>
             <InterpolatingParam id="2129" interp="linr"  time="0/1" value="0" leadInLength="0/1"  name="cursorOpacity"/>
             <InterpolatingParam id="2130" interp="linr"  time="0/1" value="0" leadInLength="0/1"  name="cursorScale"/>
            </Parameters>
            <Attributes>
             <Attribute id="2131" value="" name="ident"/>
            </Attributes>
            <MetaData>
             <entry key="AutoAppliedSmartFocus" val="False"/>
             <entry key="WinSubProjectDisplayName" val=""/>
            </MetaData>
            <ExtraData>
             <Entry key="ZoomPanBin">
              <ZoomPanBin id="2132"  >
               <ZoomPanKeyframes>
                <ZoomPanKeyframe id="2133" timeRangeEnd="-9999999/1" timeRangeDuration="0/1" interpolaterName=""  />
               </ZoomPanKeyframes>
              </ZoomPanBin>
             </Entry>
             <Entry key="CursorEffectBin">
              <CursorEffectBin id="2134"  >
               <CursorEffectKeyframes>
               </CursorEffectKeyframes>
              </CursorEffectBin>
             </Entry>
            </ExtraData>
           </ScreenVMFile>
           <ScreenVMFile id="2135" start="1757" duration="187" scalar="1/1" mediaStart="1829/1" mediaDuration="187/1" trackNumber="0" src="11" >
            <Transformer>
             <VectorParam id="2136"  name="translation">
              <InterpolatingParam id="2137" interp="linr"  time="-9999999/1" value="0" leadInLength="0/1"  />
              <InterpolatingParam id="2138" interp="linr"  time="-9999999/1" value="0" leadInLength="0/1"  />
              <InterpolatingParam id="2139" interp="linr"  time="-9999999/1" value="0" leadInLength="0/1"  />
             </VectorParam>
             <VectorParam id="2140"  name="rotation">
              <InterpolatingParam id="2141" interp="linr"  time="-9999999/1" value="0" leadInLength="0/1"  />
              <InterpolatingParam id="2142" interp="linr"  time="-9999999/1" value="0" leadInLength="0/1"  />
              <InterpolatingParam id="2143" interp="linr"  time="-9999999/1" value="0" leadInLength="0/1"  />
             </VectorParam>
             <VectorParam id="2144"  name="shear">
              <InterpolatingParam id="2145" interp="linr"  time="-9999999/1" value="0" leadInLength="0/1"  />
              <InterpolatingParam id="2146" interp="linr"  time="-9999999/1" value="0" leadInLength="0/1"  />
              <InterpolatingParam id="2147" interp="linr"  time="-9999999/1" value="0" leadInLength="0/1"  />
             </VectorParam>
             <VectorParam id="2148"  name="scale">
              <InterpolatingParam id="2149" interp="linr"  time="-9999999/1" value="1" leadInLength="0/1"  />
              <InterpolatingParam id="2150" interp="linr"  time="-9999999/1" value="1" leadInLength="0/1"  />
              <InterpolatingParam id="2151" interp="linr"  time="-9999999/1" value="1" leadInLength="0/1"  />
             </VectorParam>
             <VectorParam id="2152"  name="anchor">
              <InterpolatingParam id="2153" interp="linr"  time="0/1" value="0" leadInLength="0/1"  />
              <InterpolatingParam id="2154" interp="linr"  time="0/1" value="0" leadInLength="0/1"  />
              <InterpolatingParam id="2155" interp="linr"  time="0/1" value="0" leadInLength="0/1"  />
             </VectorParam>
            </Transformer>
            <Parameters>
             <VectorParam id="2156"  name="sourceCrop">
              <InterpolatingParam id="2157" interp="linr"  time="0/1" value="0" leadInLength="0/1"  />
              <InterpolatingParam id="2158" interp="linr"  time="0/1" value="0" leadInLength="0/1"  />
              <InterpolatingParam id="2159" interp="linr"  time="0/1" value="0" leadInLength="0/1"  />
              <InterpolatingParam id="2160" interp="linr"  time="0/1" value="0" leadInLength="0/1"  />
             </VectorParam>
             <VectorParam id="2161"  name="geometryCrop">
              <InterpolatingParam id="2162" interp="linr"  time="-9999999/1" value="0" leadInLength="0/1"  />
              <InterpolatingParam id="2163" interp="linr"  time="-9999999/1" value="0" leadInLength="0/1"  />
              <InterpolatingParam id="2164" interp="linr"  time="-9999999/1" value="0" leadInLength="0/1"  />
              <InterpolatingParam id="2165" interp="linr"  time="-9999999/1" value="0" leadInLength="0/1"  />
             </VectorParam>
             <InterpolatingParam id="2166" interp="linr"  time="-9999999/1" value="1" leadInLength="0/1"  name="opacity"/>
             <InterpolatingParam id="2167" interp="linr"  time="0/1" value="0" leadInLength="0/1"  name="cursorOpacity"/>
             <InterpolatingParam id="2168" interp="linr"  time="0/1" value="0" leadInLength="0/1"  name="cursorScale"/>
            </Parameters>
            <Attributes>
             <Attribute id="2169" value="" name="ident"/>
            </Attributes>
            <MetaData>
             <entry key="AutoAppliedSmartFocus" val="False"/>
             <entry key="WinSubProjectDisplayName" val=""/>
            </MetaData>
            <ExtraData>
             <Entry key="ZoomPanBin">
              <ZoomPanBin id="2170"  >
               <ZoomPanKeyframes>
                <ZoomPanKeyframe id="2171" timeRangeEnd="-9999999/1" timeRangeDuration="0/1" interpolaterName=""  />
               </ZoomPanKeyframes>
              </ZoomPanBin>
             </Entry>
             <Entry key="CursorEffectBin">
              <CursorEffectBin id="2172"  >
               <CursorEffectKeyframes>
               </CursorEffectKeyframes>
              </CursorEffectBin>
             </Entry>
            </ExtraData>
           </ScreenVMFile>
           <ScreenVMFile id="2173" start="1944" duration="156" scalar="1/1" mediaStart="2288/1" mediaDuration="156/1" trackNumber="0" src="11" >
            <Transformer>
             <VectorParam id="2174"  name="translation">
              <InterpolatingParam id="2175" interp="linr"  time="-9999999/1" value="0" leadInLength="0/1"  />
              <InterpolatingParam id="2176" interp="linr"  time="-9999999/1" value="0" leadInLength="0/1"  />
              <InterpolatingParam id="2177" interp="linr"  time="-9999999/1" value="0" leadInLength="0/1"  />
             </VectorParam>
             <VectorParam id="2178"  name="rotation">
              <InterpolatingParam id="2179" interp="linr"  time="-9999999/1" value="0" leadInLength="0/1"  />
              <InterpolatingParam id="2180" interp="linr"  time="-9999999/1" value="0" leadInLength="0/1"  />
              <InterpolatingParam id="2181" interp="linr"  time="-9999999/1" value="0" leadInLength="0/1"  />
             </VectorParam>
             <VectorParam id="2182"  name="shear">
              <InterpolatingParam id="2183" interp="linr"  time="-9999999/1" value="0" leadInLength="0/1"  />
              <InterpolatingParam id="2184" interp="linr"  time="-9999999/1" value="0" leadInLength="0/1"  />
              <InterpolatingParam id="2185" interp="linr"  time="-9999999/1" value="0" leadInLength="0/1"  />
             </VectorParam>
             <VectorParam id="2186"  name="scale">
              <InterpolatingParam id="2187" interp="linr"  time="-9999999/1" value="1" leadInLength="0/1"  />
              <InterpolatingParam id="2188" interp="linr"  time="-9999999/1" value="1" leadInLength="0/1"  />
              <InterpolatingParam id="2189" interp="linr"  time="-9999999/1" value="1" leadInLength="0/1"  />
             </VectorParam>
             <VectorParam id="2190"  name="anchor">
              <InterpolatingParam id="2191" interp="linr"  time="0/1" value="0" leadInLength="0/1"  />
              <InterpolatingParam id="2192" interp="linr"  time="0/1" value="0" leadInLength="0/1"  />
              <InterpolatingParam id="2193" interp="linr"  time="0/1" value="0" leadInLength="0/1"  />
             </VectorParam>
            </Transformer>
            <Parameters>
             <VectorParam id="2194"  name="sourceCrop">
              <InterpolatingParam id="2195" interp="linr"  time="0/1" value="0" leadInLength="0/1"  />
              <InterpolatingParam id="2196" interp="linr"  time="0/1" value="0" leadInLength="0/1"  />
              <InterpolatingParam id="2197" interp="linr"  time="0/1" value="0" leadInLength="0/1"  />
              <InterpolatingParam id="2198" interp="linr"  time="0/1" value="0" leadInLength="0/1"  />
             </VectorParam>
             <VectorParam id="2199"  name="geometryCrop">
              <InterpolatingParam id="2200" interp="linr"  time="-9999999/1" value="0" leadInLength="0/1"  />
              <InterpolatingParam id="2201" interp="linr"  time="-9999999/1" value="0" leadInLength="0/1"  />
              <InterpolatingParam id="2202" interp="linr"  time="-9999999/1" value="0" leadInLength="0/1"  />
              <InterpolatingParam id="2203" interp="linr"  time="-9999999/1" value="0" leadInLength="0/1"  />
             </VectorParam>
             <InterpolatingParam id="2204" interp="linr"  time="-9999999/1" value="1" leadInLength="0/1"  name="opacity"/>
             <InterpolatingParam id="2205" interp="linr"  time="0/1" value="0" leadInLength="0/1"  name="cursorOpacity"/>
             <InterpolatingParam id="2206" interp="linr"  time="0/1" value="0" leadInLength="0/1"  name="cursorScale"/>
            </Parameters>
            <Attributes>
             <Attribute id="2207" value="" name="ident"/>
            </Attributes>
            <MetaData>
             <entry key="AutoAppliedSmartFocus" val="False"/>
             <entry key="WinSubProjectDisplayName" val=""/>
            </MetaData>
            <ExtraData>
             <Entry key="ZoomPanBin">
              <ZoomPanBin id="2208"  >
               <ZoomPanKeyframes>
                <ZoomPanKeyframe id="2209" timeRangeEnd="-9999999/1" timeRangeDuration="0/1" interpolaterName=""  />
               </ZoomPanKeyframes>
              </ZoomPanBin>
             </Entry>
             <Entry key="CursorEffectBin">
              <CursorEffectBin id="2210"  >
               <CursorEffectKeyframes>
               </CursorEffectKeyframes>
              </CursorEffectBin>
             </Entry>
            </ExtraData>
           </ScreenVMFile>
           <ScreenVMFile id="2211" start="2100" duration="264" scalar="1/1" mediaStart="2494/1" mediaDuration="264/1" trackNumber="0" src="11" >
            <Transformer>
             <VectorParam id="2212"  name="translation">
              <InterpolatingParam id="2213" interp="linr"  time="-9999999/1" value="0" leadInLength="0/1"  />
              <InterpolatingParam id="2214" interp="linr"  time="-9999999/1" value="0" leadInLength="0/1"  />
              <InterpolatingParam id="2215" interp="linr"  time="-9999999/1" value="0" leadInLength="0/1"  />
             </VectorParam>
             <VectorParam id="2216"  name="rotation">
              <InterpolatingParam id="2217" interp="linr"  time="-9999999/1" value="0" leadInLength="0/1"  />
              <InterpolatingParam id="2218" interp="linr"  time="-9999999/1" value="0" leadInLength="0/1"  />
              <InterpolatingParam id="2219" interp="linr"  time="-9999999/1" value="0" leadInLength="0/1"  />
             </VectorParam>
             <VectorParam id="2220"  name="shear">
              <InterpolatingParam id="2221" interp="linr"  time="-9999999/1" value="0" leadInLength="0/1"  />
              <InterpolatingParam id="2222" interp="linr"  time="-9999999/1" value="0" leadInLength="0/1"  />
              <InterpolatingParam id="2223" interp="linr"  time="-9999999/1" value="0" leadInLength="0/1"  />
             </VectorParam>
             <VectorParam id="2224"  name="scale">
              <InterpolatingParam id="2225" interp="linr"  time="-9999999/1" value="1" leadInLength="0/1"  />
              <InterpolatingParam id="2226" interp="linr"  time="-9999999/1" value="1" leadInLength="0/1"  />
              <InterpolatingParam id="2227" interp="linr"  time="-9999999/1" value="1" leadInLength="0/1"  />
             </VectorParam>
             <VectorParam id="2228"  name="anchor">
              <InterpolatingParam id="2229" interp="linr"  time="0/1" value="0" leadInLength="0/1"  />
              <InterpolatingParam id="2230" interp="linr"  time="0/1" value="0" leadInLength="0/1"  />
              <InterpolatingParam id="2231" interp="linr"  time="0/1" value="0" leadInLength="0/1"  />
             </VectorParam>
            </Transformer>
            <Parameters>
             <VectorParam id="2232"  name="sourceCrop">
              <InterpolatingParam id="2233" interp="linr"  time="0/1" value="0" leadInLength="0/1"  />
              <InterpolatingParam id="2234" interp="linr"  time="0/1" value="0" leadInLength="0/1"  />
              <InterpolatingParam id="2235" interp="linr"  time="0/1" value="0" leadInLength="0/1"  />
              <InterpolatingParam id="2236" interp="linr"  time="0/1" value="0" leadInLength="0/1"  />
             </VectorParam>
             <VectorParam id="2237"  name="geometryCrop">
              <InterpolatingParam id="2238" interp="linr"  time="-9999999/1" value="0" leadInLength="0/1"  />
              <InterpolatingParam id="2239" interp="linr"  time="-9999999/1" value="0" leadInLength="0/1"  />
              <InterpolatingParam id="2240" interp="linr"  time="-9999999/1" value="0" leadInLength="0/1"  />
              <InterpolatingParam id="2241" interp="linr"  time="-9999999/1" value="0" leadInLength="0/1"  />
             </VectorParam>
             <InterpolatingParam id="2242" interp="linr"  time="-9999999/1" value="1" leadInLength="0/1"  name="opacity"/>
             <InterpolatingParam id="2243" interp="linr"  time="0/1" value="0" leadInLength="0/1"  name="cursorOpacity"/>
             <InterpolatingParam id="2244" interp="linr"  time="0/1" value="0" leadInLength="0/1"  name="cursorScale"/>
            </Parameters>
            <Attributes>
             <Attribute id="2245" value="" name="ident"/>
            </Attributes>
            <MetaData>
             <entry key="AutoAppliedSmartFocus" val="False"/>
             <entry key="WinSubProjectDisplayName" val=""/>
            </MetaData>
            <ExtraData>
             <Entry key="ZoomPanBin">
              <ZoomPanBin id="2246"  >
               <ZoomPanKeyframes>
                <ZoomPanKeyframe id="2247" timeRangeEnd="-9999999/1" timeRangeDuration="0/1" interpolaterName=""  />
               </ZoomPanKeyframes>
              </ZoomPanBin>
             </Entry>
             <Entry key="CursorEffectBin">
              <CursorEffectBin id="2248"  >
               <CursorEffectKeyframes>
               </CursorEffectKeyframes>
              </CursorEffectBin>
             </Entry>
            </ExtraData>
           </ScreenVMFile>
           <ScreenVMFile id="2249" start="2364" duration="123" scalar="1/1" mediaStart="4777/1" mediaDuration="123/1" trackNumber="0" src="11" >
            <Transformer>
             <VectorParam id="2250"  name="translation">
              <InterpolatingParam id="2251" interp="linr"  time="-9999999/1" value="0" leadInLength="0/1"  />
              <InterpolatingParam id="2252" interp="linr"  time="-9999999/1" value="0" leadInLength="0/1"  />
              <InterpolatingParam id="2253" interp="linr"  time="-9999999/1" value="0" leadInLength="0/1"  />
             </VectorParam>
             <VectorParam id="2254"  name="rotation">
              <InterpolatingParam id="2255" interp="linr"  time="-9999999/1" value="0" leadInLength="0/1"  />
              <InterpolatingParam id="2256" interp="linr"  time="-9999999/1" value="0" leadInLength="0/1"  />
              <InterpolatingParam id="2257" interp="linr"  time="-9999999/1" value="0" leadInLength="0/1"  />
             </VectorParam>
             <VectorParam id="2258"  name="shear">
              <InterpolatingParam id="2259" interp="linr"  time="-9999999/1" value="0" leadInLength="0/1"  />
              <InterpolatingParam id="2260" interp="linr"  time="-9999999/1" value="0" leadInLength="0/1"  />
              <InterpolatingParam id="2261" interp="linr"  time="-9999999/1" value="0" leadInLength="0/1"  />
             </VectorParam>
             <VectorParam id="2262"  name="scale">
              <InterpolatingParam id="2263" interp="linr"  time="-9999999/1" value="1" leadInLength="0/1"  />
              <InterpolatingParam id="2264" interp="linr"  time="-9999999/1" value="1" leadInLength="0/1"  />
              <InterpolatingParam id="2265" interp="linr"  time="-9999999/1" value="1" leadInLength="0/1"  />
             </VectorParam>
             <VectorParam id="2266"  name="anchor">
              <InterpolatingParam id="2267" interp="linr"  time="0/1" value="0" leadInLength="0/1"  />
              <InterpolatingParam id="2268" interp="linr"  time="0/1" value="0" leadInLength="0/1"  />
              <InterpolatingParam id="2269" interp="linr"  time="0/1" value="0" leadInLength="0/1"  />
             </VectorParam>
            </Transformer>
            <Parameters>
             <VectorParam id="2270"  name="sourceCrop">
              <InterpolatingParam id="2271" interp="linr"  time="0/1" value="0" leadInLength="0/1"  />
              <InterpolatingParam id="2272" interp="linr"  time="0/1" value="0" leadInLength="0/1"  />
              <InterpolatingParam id="2273" interp="linr"  time="0/1" value="0" leadInLength="0/1"  />
              <InterpolatingParam id="2274" interp="linr"  time="0/1" value="0" leadInLength="0/1"  />
             </VectorParam>
             <VectorParam id="2275"  name="geometryCrop">
              <InterpolatingParam id="2276" interp="linr"  time="-9999999/1" value="0" leadInLength="0/1"  />
              <InterpolatingParam id="2277" interp="linr"  time="-9999999/1" value="0" leadInLength="0/1"  />
              <InterpolatingParam id="2278" interp="linr"  time="-9999999/1" value="0" leadInLength="0/1"  />
              <InterpolatingParam id="2279" interp="linr"  time="-9999999/1" value="0" leadInLength="0/1"  />
             </VectorParam>
             <InterpolatingParam id="2280" interp="linr"  time="-9999999/1" value="1" leadInLength="0/1"  name="opacity"/>
             <InterpolatingParam id="2281" interp="linr"  time="0/1" value="0" leadInLength="0/1"  name="cursorOpacity"/>
             <InterpolatingParam id="2282" interp="linr"  time="0/1" value="0" leadInLength="0/1"  name="cursorScale"/>
            </Parameters>
            <Attributes>
             <Attribute id="2283" value="" name="ident"/>
            </Attributes>
            <MetaData>
             <entry key="AutoAppliedSmartFocus" val="False"/>
             <entry key="WinSubProjectDisplayName" val=""/>
            </MetaData>
            <ExtraData>
             <Entry key="ZoomPanBin">
              <ZoomPanBin id="2284"  >
               <ZoomPanKeyframes>
                <ZoomPanKeyframe id="2285" timeRangeEnd="-9999999/1" timeRangeDuration="0/1" interpolaterName=""  />
               </ZoomPanKeyframes>
              </ZoomPanBin>
             </Entry>
             <Entry key="CursorEffectBin">
              <CursorEffectBin id="2286"  >
               <CursorEffectKeyframes>
               </CursorEffectKeyframes>
              </CursorEffectBin>
             </Entry>
            </ExtraData>
           </ScreenVMFile>
           <ScreenVMFile id="2287" start="2487" duration="151" scalar="1/1" mediaStart="4909/1" mediaDuration="151/1" trackNumber="0" src="11" >
            <Transformer>
             <VectorParam id="2288"  name="translation">
              <InterpolatingParam id="2289" interp="linr"  time="-9999999/1" value="0" leadInLength="0/1"  />
              <InterpolatingParam id="2290" interp="linr"  time="-9999999/1" value="0" leadInLength="0/1"  />
              <InterpolatingParam id="2291" interp="linr"  time="-9999999/1" value="0" leadInLength="0/1"  />
             </VectorParam>
             <VectorParam id="2292"  name="rotation">
              <InterpolatingParam id="2293" interp="linr"  time="-9999999/1" value="0" leadInLength="0/1"  />
              <InterpolatingParam id="2294" interp="linr"  time="-9999999/1" value="0" leadInLength="0/1"  />
              <InterpolatingParam id="2295" interp="linr"  time="-9999999/1" value="0" leadInLength="0/1"  />
             </VectorParam>
             <VectorParam id="2296"  name="shear">
              <InterpolatingParam id="2297" interp="linr"  time="-9999999/1" value="0" leadInLength="0/1"  />
              <InterpolatingParam id="2298" interp="linr"  time="-9999999/1" value="0" leadInLength="0/1"  />
              <InterpolatingParam id="2299" interp="linr"  time="-9999999/1" value="0" leadInLength="0/1"  />
             </VectorParam>
             <VectorParam id="2300"  name="scale">
              <InterpolatingParam id="2301" interp="linr"  time="-9999999/1" value="1" leadInLength="0/1"  />
              <InterpolatingParam id="2302" interp="linr"  time="-9999999/1" value="1" leadInLength="0/1"  />
              <InterpolatingParam id="2303" interp="linr"  time="-9999999/1" value="1" leadInLength="0/1"  />
             </VectorParam>
             <VectorParam id="2304"  name="anchor">
              <InterpolatingParam id="2305" interp="linr"  time="0/1" value="0" leadInLength="0/1"  />
              <InterpolatingParam id="2306" interp="linr"  time="0/1" value="0" leadInLength="0/1"  />
              <InterpolatingParam id="2307" interp="linr"  time="0/1" value="0" leadInLength="0/1"  />
             </VectorParam>
            </Transformer>
            <Parameters>
             <VectorParam id="2308"  name="sourceCrop">
              <InterpolatingParam id="2309" interp="linr"  time="0/1" value="0" leadInLength="0/1"  />
              <InterpolatingParam id="2310" interp="linr"  time="0/1" value="0" leadInLength="0/1"  />
              <InterpolatingParam id="2311" interp="linr"  time="0/1" value="0" leadInLength="0/1"  />
              <InterpolatingParam id="2312" interp="linr"  time="0/1" value="0" leadInLength="0/1"  />
             </VectorParam>
             <VectorParam id="2313"  name="geometryCrop">
              <InterpolatingParam id="2314" interp="linr"  time="-9999999/1" value="0" leadInLength="0/1"  />
              <InterpolatingParam id="2315" interp="linr"  time="-9999999/1" value="0" leadInLength="0/1"  />
              <InterpolatingParam id="2316" interp="linr"  time="-9999999/1" value="0" leadInLength="0/1"  />
              <InterpolatingParam id="2317" interp="linr"  time="-9999999/1" value="0" leadInLength="0/1"  />
             </VectorParam>
             <InterpolatingParam id="2318" interp="linr"  time="-9999999/1" value="1" leadInLength="0/1"  name="opacity"/>
             <InterpolatingParam id="2319" interp="linr"  time="0/1" value="0" leadInLength="0/1"  name="cursorOpacity"/>
             <InterpolatingParam id="2320" interp="linr"  time="0/1" value="0" leadInLength="0/1"  name="cursorScale"/>
            </Parameters>
            <Attributes>
             <Attribute id="2321" value="" name="ident"/>
            </Attributes>
            <MetaData>
             <entry key="AutoAppliedSmartFocus" val="False"/>
             <entry key="WinSubProjectDisplayName" val=""/>
            </MetaData>
            <ExtraData>
             <Entry key="ZoomPanBin">
              <ZoomPanBin id="2322"  >
               <ZoomPanKeyframes>
                <ZoomPanKeyframe id="2323" timeRangeEnd="-9999999/1" timeRangeDuration="0/1" interpolaterName=""  />
               </ZoomPanKeyframes>
              </ZoomPanBin>
             </Entry>
             <Entry key="CursorEffectBin">
              <CursorEffectBin id="2324"  >
               <CursorEffectKeyframes>
               </CursorEffectKeyframes>
              </CursorEffectBin>
             </Entry>
            </ExtraData>
           </ScreenVMFile>
           <ScreenVMFile id="2325" start="2638" duration="241" scalar="1/1" mediaStart="5075/1" mediaDuration="241/1" trackNumber="0" src="11" >
            <Transformer>
             <VectorParam id="2326"  name="translation">
              <InterpolatingParam id="2327" interp="linr"  time="-9999999/1" value="0" leadInLength="0/1"  />
              <InterpolatingParam id="2328" interp="linr"  time="-9999999/1" value="0" leadInLength="0/1"  />
              <InterpolatingParam id="2329" interp="linr"  time="-9999999/1" value="0" leadInLength="0/1"  />
             </VectorParam>
             <VectorParam id="2330"  name="rotation">
              <InterpolatingParam id="2331" interp="linr"  time="-9999999/1" value="0" leadInLength="0/1"  />
              <InterpolatingParam id="2332" interp="linr"  time="-9999999/1" value="0" leadInLength="0/1"  />
              <InterpolatingParam id="2333" interp="linr"  time="-9999999/1" value="0" leadInLength="0/1"  />
             </VectorParam>
             <VectorParam id="2334"  name="shear">
              <InterpolatingParam id="2335" interp="linr"  time="-9999999/1" value="0" leadInLength="0/1"  />
              <InterpolatingParam id="2336" interp="linr"  time="-9999999/1" value="0" leadInLength="0/1"  />
              <InterpolatingParam id="2337" interp="linr"  time="-9999999/1" value="0" leadInLength="0/1"  />
             </VectorParam>
             <VectorParam id="2338"  name="scale">
              <InterpolatingParam id="2339" interp="linr"  time="-9999999/1" value="1" leadInLength="0/1"  />
              <InterpolatingParam id="2340" interp="linr"  time="-9999999/1" value="1" leadInLength="0/1"  />
              <InterpolatingParam id="2341" interp="linr"  time="-9999999/1" value="1" leadInLength="0/1"  />
             </VectorParam>
             <VectorParam id="2342"  name="anchor">
              <InterpolatingParam id="2343" interp="linr"  time="0/1" value="0" leadInLength="0/1"  />
              <InterpolatingParam id="2344" interp="linr"  time="0/1" value="0" leadInLength="0/1"  />
              <InterpolatingParam id="2345" interp="linr"  time="0/1" value="0" leadInLength="0/1"  />
             </VectorParam>
            </Transformer>
            <Parameters>
             <VectorParam id="2346"  name="sourceCrop">
              <InterpolatingParam id="2347" interp="linr"  time="0/1" value="0" leadInLength="0/1"  />
              <InterpolatingParam id="2348" interp="linr"  time="0/1" value="0" leadInLength="0/1"  />
              <InterpolatingParam id="2349" interp="linr"  time="0/1" value="0" leadInLength="0/1"  />
              <InterpolatingParam id="2350" interp="linr"  time="0/1" value="0" leadInLength="0/1"  />
             </VectorParam>
             <VectorParam id="2351"  name="geometryCrop">
              <InterpolatingParam id="2352" interp="linr"  time="-9999999/1" value="0" leadInLength="0/1"  />
              <InterpolatingParam id="2353" interp="linr"  time="-9999999/1" value="0" leadInLength="0/1"  />
              <InterpolatingParam id="2354" interp="linr"  time="-9999999/1" value="0" leadInLength="0/1"  />
              <InterpolatingParam id="2355" interp="linr"  time="-9999999/1" value="0" leadInLength="0/1"  />
             </VectorParam>
             <InterpolatingParam id="2356" interp="linr"  time="-9999999/1" value="1" leadInLength="0/1"  name="opacity"/>
             <InterpolatingParam id="2357" interp="linr"  time="0/1" value="0" leadInLength="0/1"  name="cursorOpacity"/>
             <InterpolatingParam id="2358" interp="linr"  time="0/1" value="0" leadInLength="0/1"  name="cursorScale"/>
            </Parameters>
            <Attributes>
             <Attribute id="2359" value="" name="ident"/>
            </Attributes>
            <MetaData>
             <entry key="AutoAppliedSmartFocus" val="False"/>
             <entry key="WinSubProjectDisplayName" val=""/>
            </MetaData>
            <ExtraData>
             <Entry key="ZoomPanBin">
              <ZoomPanBin id="2360"  >
               <ZoomPanKeyframes>
                <ZoomPanKeyframe id="2361" timeRangeEnd="-9999999/1" timeRangeDuration="0/1" interpolaterName=""  />
               </ZoomPanKeyframes>
              </ZoomPanBin>
             </Entry>
             <Entry key="CursorEffectBin">
              <CursorEffectBin id="2362"  >
               <CursorEffectKeyframes>
               </CursorEffectKeyframes>
              </CursorEffectBin>
             </Entry>
            </ExtraData>
           </ScreenVMFile>
           <ScreenVMFile id="2363" start="2879" duration="172" scalar="1/1" mediaStart="7600/1" mediaDuration="172/1" trackNumber="0" src="11" >
            <Transformer>
             <VectorParam id="2364"  name="translation">
              <InterpolatingParam id="2365" interp="linr"  time="-9999999/1" value="0" leadInLength="0/1"  />
              <InterpolatingParam id="2366" interp="linr"  time="-9999999/1" value="0" leadInLength="0/1"  />
              <InterpolatingParam id="2367" interp="linr"  time="-9999999/1" value="0" leadInLength="0/1"  />
             </VectorParam>
             <VectorParam id="2368"  name="rotation">
              <InterpolatingParam id="2369" interp="linr"  time="-9999999/1" value="0" leadInLength="0/1"  />
              <InterpolatingParam id="2370" interp="linr"  time="-9999999/1" value="0" leadInLength="0/1"  />
              <InterpolatingParam id="2371" interp="linr"  time="-9999999/1" value="0" leadInLength="0/1"  />
             </VectorParam>
             <VectorParam id="2372"  name="shear">
              <InterpolatingParam id="2373" interp="linr"  time="-9999999/1" value="0" leadInLength="0/1"  />
              <InterpolatingParam id="2374" interp="linr"  time="-9999999/1" value="0" leadInLength="0/1"  />
              <InterpolatingParam id="2375" interp="linr"  time="-9999999/1" value="0" leadInLength="0/1"  />
             </VectorParam>
             <VectorParam id="2376"  name="scale">
              <InterpolatingParam id="2377" interp="linr"  time="-9999999/1" value="1" leadInLength="0/1"  />
              <InterpolatingParam id="2378" interp="linr"  time="-9999999/1" value="1" leadInLength="0/1"  />
              <InterpolatingParam id="2379" interp="linr"  time="-9999999/1" value="1" leadInLength="0/1"  />
             </VectorParam>
             <VectorParam id="2380"  name="anchor">
              <InterpolatingParam id="2381" interp="linr"  time="0/1" value="0" leadInLength="0/1"  />
              <InterpolatingParam id="2382" interp="linr"  time="0/1" value="0" leadInLength="0/1"  />
              <InterpolatingParam id="2383" interp="linr"  time="0/1" value="0" leadInLength="0/1"  />
             </VectorParam>
            </Transformer>
            <Parameters>
             <VectorParam id="2384"  name="sourceCrop">
              <InterpolatingParam id="2385" interp="linr"  time="0/1" value="0" leadInLength="0/1"  />
              <InterpolatingParam id="2386" interp="linr"  time="0/1" value="0" leadInLength="0/1"  />
              <InterpolatingParam id="2387" interp="linr"  time="0/1" value="0" leadInLength="0/1"  />
              <InterpolatingParam id="2388" interp="linr"  time="0/1" value="0" leadInLength="0/1"  />
             </VectorParam>
             <VectorParam id="2389"  name="geometryCrop">
              <InterpolatingParam id="2390" interp="linr"  time="-9999999/1" value="0" leadInLength="0/1"  />
              <InterpolatingParam id="2391" interp="linr"  time="-9999999/1" value="0" leadInLength="0/1"  />
              <InterpolatingParam id="2392" interp="linr"  time="-9999999/1" value="0" leadInLength="0/1"  />
              <InterpolatingParam id="2393" interp="linr"  time="-9999999/1" value="0" leadInLength="0/1"  />
             </VectorParam>
             <InterpolatingParam id="2394" interp="linr"  time="-9999999/1" value="1" leadInLength="0/1"  name="opacity"/>
             <InterpolatingParam id="2395" interp="linr"  time="0/1" value="0" leadInLength="0/1"  name="cursorOpacity"/>
             <InterpolatingParam id="2396" interp="linr"  time="0/1" value="0" leadInLength="0/1"  name="cursorScale"/>
            </Parameters>
            <Attributes>
             <Attribute id="2397" value="" name="ident"/>
            </Attributes>
            <MetaData>
             <entry key="AutoAppliedSmartFocus" val="False"/>
             <entry key="WinSubProjectDisplayName" val=""/>
            </MetaData>
            <ExtraData>
             <Entry key="ZoomPanBin">
              <ZoomPanBin id="2398"  >
               <ZoomPanKeyframes>
                <ZoomPanKeyframe id="2399" timeRangeEnd="-9999999/1" timeRangeDuration="0/1" interpolaterName=""  />
               </ZoomPanKeyframes>
              </ZoomPanBin>
             </Entry>
             <Entry key="CursorEffectBin">
              <CursorEffectBin id="2400"  >
               <CursorEffectKeyframes>
               </CursorEffectKeyframes>
              </CursorEffectBin>
             </Entry>
            </ExtraData>
           </ScreenVMFile>
           <ScreenVMFile id="2401" start="3051" duration="14" scalar="1/1" mediaStart="7882/1" mediaDuration="14/1" trackNumber="0" src="11" >
            <Transformer>
             <VectorParam id="2402"  name="translation">
              <InterpolatingParam id="2403" interp="linr"  time="-9999999/1" value="0" leadInLength="0/1"  />
              <InterpolatingParam id="2404" interp="linr"  time="-9999999/1" value="0" leadInLength="0/1"  />
              <InterpolatingParam id="2405" interp="linr"  time="-9999999/1" value="0" leadInLength="0/1"  />
             </VectorParam>
             <VectorParam id="2406"  name="rotation">
              <InterpolatingParam id="2407" interp="linr"  time="-9999999/1" value="0" leadInLength="0/1"  />
              <InterpolatingParam id="2408" interp="linr"  time="-9999999/1" value="0" leadInLength="0/1"  />
              <InterpolatingParam id="2409" interp="linr"  time="-9999999/1" value="0" leadInLength="0/1"  />
             </VectorParam>
             <VectorParam id="2410"  name="shear">
              <InterpolatingParam id="2411" interp="linr"  time="-9999999/1" value="0" leadInLength="0/1"  />
              <InterpolatingParam id="2412" interp="linr"  time="-9999999/1" value="0" leadInLength="0/1"  />
              <InterpolatingParam id="2413" interp="linr"  time="-9999999/1" value="0" leadInLength="0/1"  />
             </VectorParam>
             <VectorParam id="2414"  name="scale">
              <InterpolatingParam id="2415" interp="linr"  time="-9999999/1" value="1" leadInLength="0/1"  />
              <InterpolatingParam id="2416" interp="linr"  time="-9999999/1" value="1" leadInLength="0/1"  />
              <InterpolatingParam id="2417" interp="linr"  time="-9999999/1" value="1" leadInLength="0/1"  />
             </VectorParam>
             <VectorParam id="2418"  name="anchor">
              <InterpolatingParam id="2419" interp="linr"  time="0/1" value="0" leadInLength="0/1"  />
              <InterpolatingParam id="2420" interp="linr"  time="0/1" value="0" leadInLength="0/1"  />
              <InterpolatingParam id="2421" interp="linr"  time="0/1" value="0" leadInLength="0/1"  />
             </VectorParam>
            </Transformer>
            <Parameters>
             <VectorParam id="2422"  name="sourceCrop">
              <InterpolatingParam id="2423" interp="linr"  time="0/1" value="0" leadInLength="0/1"  />
              <InterpolatingParam id="2424" interp="linr"  time="0/1" value="0" leadInLength="0/1"  />
              <InterpolatingParam id="2425" interp="linr"  time="0/1" value="0" leadInLength="0/1"  />
              <InterpolatingParam id="2426" interp="linr"  time="0/1" value="0" leadInLength="0/1"  />
             </VectorParam>
             <VectorParam id="2427"  name="geometryCrop">
              <InterpolatingParam id="2428" interp="linr"  time="-9999999/1" value="0" leadInLength="0/1"  />
              <InterpolatingParam id="2429" interp="linr"  time="-9999999/1" value="0" leadInLength="0/1"  />
              <InterpolatingParam id="2430" interp="linr"  time="-9999999/1" value="0" leadInLength="0/1"  />
              <InterpolatingParam id="2431" interp="linr"  time="-9999999/1" value="0" leadInLength="0/1"  />
             </VectorParam>
             <InterpolatingParam id="2432" interp="linr"  time="-9999999/1" value="1" leadInLength="0/1"  name="opacity"/>
             <InterpolatingParam id="2433" interp="linr"  time="0/1" value="0" leadInLength="0/1"  name="cursorOpacity"/>
             <InterpolatingParam id="2434" interp="linr"  time="0/1" value="0" leadInLength="0/1"  name="cursorScale"/>
            </Parameters>
            <Attributes>
             <Attribute id="2435" value="" name="ident"/>
            </Attributes>
            <MetaData>
             <entry key="AutoAppliedSmartFocus" val="False"/>
             <entry key="WinSubProjectDisplayName" val=""/>
            </MetaData>
            <ExtraData>
             <Entry key="ZoomPanBin">
              <ZoomPanBin id="2436"  >
               <ZoomPanKeyframes>
                <ZoomPanKeyframe id="2437" timeRangeEnd="-9999999/1" timeRangeDuration="0/1" interpolaterName=""  />
               </ZoomPanKeyframes>
              </ZoomPanBin>
             </Entry>
             <Entry key="CursorEffectBin">
              <CursorEffectBin id="2438"  >
               <CursorEffectKeyframes>
               </CursorEffectKeyframes>
              </CursorEffectBin>
             </Entry>
            </ExtraData>
           </ScreenVMFile>
           <ScreenVMFile id="2439" start="3065" duration="6" scalar="1/1" mediaStart="8209/1" mediaDuration="6/1" trackNumber="0" src="11" >
            <Transformer>
             <VectorParam id="2440"  name="translation">
              <InterpolatingParam id="2441" interp="linr"  time="-9999999/1" value="0" leadInLength="0/1"  />
              <InterpolatingParam id="2442" interp="linr"  time="-9999999/1" value="0" leadInLength="0/1"  />
              <InterpolatingParam id="2443" interp="linr"  time="-9999999/1" value="0" leadInLength="0/1"  />
             </VectorParam>
             <VectorParam id="2444"  name="rotation">
              <InterpolatingParam id="2445" interp="linr"  time="-9999999/1" value="0" leadInLength="0/1"  />
              <InterpolatingParam id="2446" interp="linr"  time="-9999999/1" value="0" leadInLength="0/1"  />
              <InterpolatingParam id="2447" interp="linr"  time="-9999999/1" value="0" leadInLength="0/1"  />
             </VectorParam>
             <VectorParam id="2448"  name="shear">
              <InterpolatingParam id="2449" interp="linr"  time="-9999999/1" value="0" leadInLength="0/1"  />
              <InterpolatingParam id="2450" interp="linr"  time="-9999999/1" value="0" leadInLength="0/1"  />
              <InterpolatingParam id="2451" interp="linr"  time="-9999999/1" value="0" leadInLength="0/1"  />
             </VectorParam>
             <VectorParam id="2452"  name="scale">
              <InterpolatingParam id="2453" interp="linr"  time="-9999999/1" value="1" leadInLength="0/1"  />
              <InterpolatingParam id="2454" interp="linr"  time="-9999999/1" value="1" leadInLength="0/1"  />
              <InterpolatingParam id="2455" interp="linr"  time="-9999999/1" value="1" leadInLength="0/1"  />
             </VectorParam>
             <VectorParam id="2456"  name="anchor">
              <InterpolatingParam id="2457" interp="linr"  time="0/1" value="0" leadInLength="0/1"  />
              <InterpolatingParam id="2458" interp="linr"  time="0/1" value="0" leadInLength="0/1"  />
              <InterpolatingParam id="2459" interp="linr"  time="0/1" value="0" leadInLength="0/1"  />
             </VectorParam>
            </Transformer>
            <Parameters>
             <VectorParam id="2460"  name="sourceCrop">
              <InterpolatingParam id="2461" interp="linr"  time="0/1" value="0" leadInLength="0/1"  />
              <InterpolatingParam id="2462" interp="linr"  time="0/1" value="0" leadInLength="0/1"  />
              <InterpolatingParam id="2463" interp="linr"  time="0/1" value="0" leadInLength="0/1"  />
              <InterpolatingParam id="2464" interp="linr"  time="0/1" value="0" leadInLength="0/1"  />
             </VectorParam>
             <VectorParam id="2465"  name="geometryCrop">
              <InterpolatingParam id="2466" interp="linr"  time="-9999999/1" value="0" leadInLength="0/1"  />
              <InterpolatingParam id="2467" interp="linr"  time="-9999999/1" value="0" leadInLength="0/1"  />
              <InterpolatingParam id="2468" interp="linr"  time="-9999999/1" value="0" leadInLength="0/1"  />
              <InterpolatingParam id="2469" interp="linr"  time="-9999999/1" value="0" leadInLength="0/1"  />
             </VectorParam>
             <InterpolatingParam id="2470" interp="linr"  time="-9999999/1" value="1" leadInLength="0/1"  name="opacity"/>
             <InterpolatingParam id="2471" interp="linr"  time="0/1" value="0" leadInLength="0/1"  name="cursorOpacity"/>
             <InterpolatingParam id="2472" interp="linr"  time="0/1" value="0" leadInLength="0/1"  name="cursorScale"/>
            </Parameters>
            <Attributes>
             <Attribute id="2473" value="" name="ident"/>
            </Attributes>
            <MetaData>
             <entry key="AutoAppliedSmartFocus" val="False"/>
             <entry key="WinSubProjectDisplayName" val=""/>
            </MetaData>
            <ExtraData>
             <Entry key="ZoomPanBin">
              <ZoomPanBin id="2474"  >
               <ZoomPanKeyframes>
                <ZoomPanKeyframe id="2475" timeRangeEnd="-9999999/1" timeRangeDuration="0/1" interpolaterName=""  />
               </ZoomPanKeyframes>
              </ZoomPanBin>
             </Entry>
             <Entry key="CursorEffectBin">
              <CursorEffectBin id="2476"  >
               <CursorEffectKeyframes>
               </CursorEffectKeyframes>
              </CursorEffectBin>
             </Entry>
            </ExtraData>
           </ScreenVMFile>
          </Medias>
         </GenericTrack>
        </StitchedMedia>
        <StitchedMedia id="2477" start="5918" duration="505" scalar="1/1" mediaStart="1183/1" mediaDuration="505/1" minMediaStart="0/1" >
         <Transformer>
          <VectorParam id="2478"  name="translation">
           <InterpolatingParam id="2479" interp="linr"  time="-9999999/1" value="-1.5051709878476598e-010" leadInLength="0/1"  />
           <InterpolatingParam id="2480" interp="linr"  time="-9999999/1" value="-4.3894488044315945e-011" leadInLength="0/1"  />
           <InterpolatingParam id="2481" interp="linr"  time="-9999999/1" value="0" leadInLength="0/1"  />
          </VectorParam>
          <VectorParam id="2482"  name="rotation">
           <InterpolatingParam id="2483" interp="linr"  time="-9999999/1" value="0" leadInLength="0/1"  />
           <InterpolatingParam id="2484" interp="linr"  time="-9999999/1" value="0" leadInLength="0/1"  />
           <InterpolatingParam id="2485" interp="linr"  time="-9999999/1" value="0" leadInLength="0/1"  />
          </VectorParam>
          <VectorParam id="2486"  name="shear">
           <InterpolatingParam id="2487" interp="linr"  time="-9999999/1" value="0" leadInLength="0/1"  />
           <InterpolatingParam id="2488" interp="linr"  time="-9999999/1" value="0" leadInLength="0/1"  />
           <InterpolatingParam id="2489" interp="linr"  time="-9999999/1" value="0" leadInLength="0/1"  />
          </VectorParam>
          <VectorParam id="2490"  name="scale">
           <InterpolatingParam id="2491" interp="linr"  time="-9999999/1" value="0.73124999999999996" leadInLength="0/1"  />
           <InterpolatingParam id="2492" interp="linr"  time="-9999999/1" value="0.73124999999999996" leadInLength="0/1"  />
           <InterpolatingParam id="2493" interp="linr"  time="-9999999/1" value="1" leadInLength="0/1"  />
          </VectorParam>
          <VectorParam id="2494"  name="anchor">
           <InterpolatingParam id="2495" interp="linr"  time="0/1" value="0" leadInLength="0/1"  />
           <InterpolatingParam id="2496" interp="linr"  time="0/1" value="0" leadInLength="0/1"  />
           <InterpolatingParam id="2497" interp="linr"  time="0/1" value="0" leadInLength="0/1"  />
          </VectorParam>
         </Transformer>
         <Parameters>
          <VectorParam id="2498"  name="sourceCrop">
           <InterpolatingParam id="2499" interp="linr"  time="0/1" value="0" leadInLength="0/1"  />
           <InterpolatingParam id="2500" interp="linr"  time="0/1" value="0" leadInLength="0/1"  />
           <InterpolatingParam id="2501" interp="linr"  time="0/1" value="0" leadInLength="0/1"  />
           <InterpolatingParam id="2502" interp="linr"  time="0/1" value="0" leadInLength="0/1"  />
          </VectorParam>
          <VectorParam id="2503"  name="geometryCrop">
           <InterpolatingParam id="2504" interp="linr"  time="-9999999/1" value="0" leadInLength="0/1"  />
           <InterpolatingParam id="2505" interp="linr"  time="-9999999/1" value="0" leadInLength="0/1"  />
           <InterpolatingParam id="2506" interp="linr"  time="-9999999/1" value="0" leadInLength="0/1"  />
           <InterpolatingParam id="2507" interp="linr"  time="-9999999/1" value="0" leadInLength="0/1"  />
          </VectorParam>
          <InterpolatingParam id="2508" interp="linr"  time="-9999999/1" value="1" leadInLength="0/1"  name="opacity"/>
          <InterpolatingParam id="2509" interp="linr"  time="0/1" value="1" leadInLength="0/1"  name="cursorOpacity"/>
          <InterpolatingParam id="2510" interp="linr"  time="0/1" value="1" leadInLength="0/1"  name="cursorScale"/>
          <Parameter id="2511"  name="captions"/>
         </Parameters>
         <Effects>
          <GenericEffect id="2512" name = "CursorBaseEffectName" >
           <Parameters>
           <InterpolatingParam id="2513" interp="linr"  time="-9999999/1" value="1" leadInLength="0/1"   name="cursorSize"/>
           <InterpolatingParam id="2514" interp="linr"  time="-9999999/1" value="0" leadInLength="0/1"   name="highlightBlurRadius"/>
           <InterpolatingParam id="2515" interp="linr"  time="-9999999/1" value="0" leadInLength="0/1"   name="highlightColorBlue"/>
           <InterpolatingParam id="2516" interp="linr"  time="-9999999/1" value="255" leadInLength="0/1"   name="highlightColorGreen"/>
           <InterpolatingParam id="2517" interp="linr"  time="-9999999/1" value="255" leadInLength="0/1"   name="highlightColorRed"/>
           <InterpolatingParam id="2518" interp="linr"  time="-9999999/1" value="5" leadInLength="0/1"   name="highlightFeatherSize"/>
           <InterpolatingParam id="2519" interp="linr"  time="-9999999/1" value="2" leadInLength="0/1"   name="highlightMagnification"/>
           <InterpolatingParam id="2520" interp="linr"  time="-9999999/1" value="1" leadInLength="0/1"   name="highlightOpacity"/>
           <InterpolatingParam id="2521" interp="linr"  time="-9999999/1" value="45" leadInLength="0/1"   name="highlightSize"/>
           <Parameter id="2522"   name="highlightType">
            <Keyframes>
            <Keyframe id="2523"  time="-9999999/1" value="0" leadInLength="0/1"  />
            </Keyframes>
           </Parameter>
           <InterpolatingParam id="2524" interp="linr"  time="-9999999/1" value="0" leadInLength="0/1"   name="leftClickColorBlue"/>
           <InterpolatingParam id="2525" interp="linr"  time="-9999999/1" value="0" leadInLength="0/1"   name="leftClickColorGreen"/>
           <InterpolatingParam id="2526" interp="linr"  time="-9999999/1" value="255" leadInLength="0/1"   name="leftClickColorRed"/>
           <InterpolatingParam id="2527" interp="linr"  time="-9999999/1" value="0.80000000000000004" leadInLength="0/1"   name="leftClickDuration"/>
           <InterpolatingParam id="2528" interp="linr"  time="-9999999/1" value="20" leadInLength="0/1"   name="leftClickSize"/>
           <Parameter id="2529"   name="leftClickSoundFilename">
            <Keyframes>
            <Keyframe id="2530"  time="-9999999/1" value="" leadInLength="0/1"  />
            </Keyframes>
           </Parameter>
           <InterpolatingParam id="2531" interp="linr"  time="-9999999/1" value="1" leadInLength="0/1"   name="leftClickSoundVolume"/>
           <Parameter id="2532"   name="leftClickType">
            <Keyframes>
            <Keyframe id="2533"  time="-9999999/1" value="0" leadInLength="0/1"  />
            </Keyframes>
           </Parameter>
           <InterpolatingParam id="2534" interp="linr"  time="-9999999/1" value="1" leadInLength="0/1"   name="opacity"/>
           <InterpolatingParam id="2535" interp="linr"  time="-9999999/1" value="255" leadInLength="0/1"   name="rightClickColorBlue"/>
           <InterpolatingParam id="2536" interp="linr"  time="-9999999/1" value="0" leadInLength="0/1"   name="rightClickColorGreen"/>
           <InterpolatingParam id="2537" interp="linr"  time="-9999999/1" value="0" leadInLength="0/1"   name="rightClickColorRed"/>
           <InterpolatingParam id="2538" interp="linr"  time="-9999999/1" value="0.80000000000000004" leadInLength="0/1"   name="rightClickDuration"/>
           <InterpolatingParam id="2539" interp="linr"  time="-9999999/1" value="20" leadInLength="0/1"   name="rightClickSize"/>
           <Parameter id="2540"   name="rightClickSoundFilename">
            <Keyframes>
            <Keyframe id="2541"  time="-9999999/1" value="" leadInLength="0/1"  />
            </Keyframes>
           </Parameter>
           <InterpolatingParam id="2542" interp="linr"  time="-9999999/1" value="1" leadInLength="0/1"   name="rightClickSoundVolume"/>
           <Parameter id="2543"   name="rightClickType">
            <Keyframes>
            <Keyframe id="2544"  time="-9999999/1" value="0" leadInLength="0/1"  />
            </Keyframes>
           </Parameter>
           </Parameters>
          </GenericEffect>
         </Effects>
         <Attributes>
          <Attribute id="2545" value="" name="ident"/>
         </Attributes>
         <MetaData>
          <entry key="AutoAppliedSmartFocus" val="False"/>
          <entry key="WinSubProjectDisplayName" val=""/>
         </MetaData>
         <ExtraData>
          <Entry key="ZoomPanBin">
           <ZoomPanBin id="2546"  >
            <ZoomPanKeyframes>
             <ZoomPanKeyframe id="2547" timeRangeEnd="-9999999/1" timeRangeDuration="0/1" interpolaterName=""  />
            </ZoomPanKeyframes>
           </ZoomPanBin>
          </Entry>
          <Entry key="CursorEffectBin">
           <CursorEffectBin id="2548"  >
            <CursorEffectKeyframes>
             <CursorEffectKeyframe id="2549" timeRangeEnd="-9999999/1" timeRangeDuration="0/1" interpolaterName=""  />
            </CursorEffectKeyframes>
           </CursorEffectBin>
          </Entry>
         </ExtraData>
         <GenericTrack id="2550"  >
          <Attributes>
           <Attribute id="2551" value="" name="ident"/>
           <Attribute id="2552" value="0" name="audioMuted"/>
           <Attribute id="2553" value="0" name="videoHidden"/>
          </Attributes>
          <MetaData>
           <entry key="IsLocked" val="False"/>
           <entry key="WinTrackHeight" val="0"/>
          </MetaData>
          <Medias>
           <ScreenVMFile id="2554" start="0" duration="1303" scalar="1/1" mediaStart="0/1" mediaDuration="1303/1" trackNumber="0" src="12" >
            <Transformer>
             <VectorParam id="2555"  name="translation">
              <InterpolatingParam id="2556" interp="linr"  time="-9999999/1" value="0" leadInLength="0/1"  />
              <InterpolatingParam id="2557" interp="linr"  time="-9999999/1" value="0" leadInLength="0/1"  />
              <InterpolatingParam id="2558" interp="linr"  time="-9999999/1" value="0" leadInLength="0/1"  />
             </VectorParam>
             <VectorParam id="2559"  name="rotation">
              <InterpolatingParam id="2560" interp="linr"  time="-9999999/1" value="0" leadInLength="0/1"  />
              <InterpolatingParam id="2561" interp="linr"  time="-9999999/1" value="0" leadInLength="0/1"  />
              <InterpolatingParam id="2562" interp="linr"  time="-9999999/1" value="0" leadInLength="0/1"  />
             </VectorParam>
             <VectorParam id="2563"  name="shear">
              <InterpolatingParam id="2564" interp="linr"  time="-9999999/1" value="0" leadInLength="0/1"  />
              <InterpolatingParam id="2565" interp="linr"  time="-9999999/1" value="0" leadInLength="0/1"  />
              <InterpolatingParam id="2566" interp="linr"  time="-9999999/1" value="0" leadInLength="0/1"  />
             </VectorParam>
             <VectorParam id="2567"  name="scale">
              <InterpolatingParam id="2568" interp="linr"  time="-9999999/1" value="1" leadInLength="0/1"  />
              <InterpolatingParam id="2569" interp="linr"  time="-9999999/1" value="1" leadInLength="0/1"  />
              <InterpolatingParam id="2570" interp="linr"  time="-9999999/1" value="1" leadInLength="0/1"  />
             </VectorParam>
             <VectorParam id="2571"  name="anchor">
              <InterpolatingParam id="2572" interp="linr"  time="0/1" value="0" leadInLength="0/1"  />
              <InterpolatingParam id="2573" interp="linr"  time="0/1" value="0" leadInLength="0/1"  />
              <InterpolatingParam id="2574" interp="linr"  time="0/1" value="0" leadInLength="0/1"  />
             </VectorParam>
            </Transformer>
            <Parameters>
             <VectorParam id="2575"  name="sourceCrop">
              <InterpolatingParam id="2576" interp="linr"  time="0/1" value="0" leadInLength="0/1"  />
              <InterpolatingParam id="2577" interp="linr"  time="0/1" value="0" leadInLength="0/1"  />
              <InterpolatingParam id="2578" interp="linr"  time="0/1" value="0" leadInLength="0/1"  />
              <InterpolatingParam id="2579" interp="linr"  time="0/1" value="0" leadInLength="0/1"  />
             </VectorParam>
             <VectorParam id="2580"  name="geometryCrop">
              <InterpolatingParam id="2581" interp="linr"  time="-9999999/1" value="0" leadInLength="0/1"  />
              <InterpolatingParam id="2582" interp="linr"  time="-9999999/1" value="0" leadInLength="0/1"  />
              <InterpolatingParam id="2583" interp="linr"  time="-9999999/1" value="0" leadInLength="0/1"  />
              <InterpolatingParam id="2584" interp="linr"  time="-9999999/1" value="0" leadInLength="0/1"  />
             </VectorParam>
             <InterpolatingParam id="2585" interp="linr"  time="-9999999/1" value="1" leadInLength="0/1"  name="opacity"/>
             <InterpolatingParam id="2586" interp="linr"  time="0/1" value="0" leadInLength="0/1"  name="cursorOpacity"/>
             <InterpolatingParam id="2587" interp="linr"  time="0/1" value="0" leadInLength="0/1"  name="cursorScale"/>
            </Parameters>
            <Attributes>
             <Attribute id="2588" value="" name="ident"/>
            </Attributes>
            <MetaData>
             <entry key="AutoAppliedSmartFocus" val="False"/>
             <entry key="WinSubProjectDisplayName" val=""/>
            </MetaData>
            <ExtraData>
             <Entry key="ZoomPanBin">
              <ZoomPanBin id="2589"  >
               <ZoomPanKeyframes>
                <ZoomPanKeyframe id="2590" timeRangeEnd="-9999999/1" timeRangeDuration="0/1" interpolaterName=""  />
               </ZoomPanKeyframes>
              </ZoomPanBin>
             </Entry>
             <Entry key="CursorEffectBin">
              <CursorEffectBin id="2591"  >
               <CursorEffectKeyframes>
               </CursorEffectKeyframes>
              </CursorEffectBin>
             </Entry>
            </ExtraData>
           </ScreenVMFile>
           <ScreenVMFile id="2592" start="1303" duration="236" scalar="1/1" mediaStart="1314/1" mediaDuration="236/1" trackNumber="0" src="12" >
            <Transformer>
             <VectorParam id="2593"  name="translation">
              <InterpolatingParam id="2594" interp="linr"  time="-9999999/1" value="0" leadInLength="0/1"  />
              <InterpolatingParam id="2595" interp="linr"  time="-9999999/1" value="0" leadInLength="0/1"  />
              <InterpolatingParam id="2596" interp="linr"  time="-9999999/1" value="0" leadInLength="0/1"  />
             </VectorParam>
             <VectorParam id="2597"  name="rotation">
              <InterpolatingParam id="2598" interp="linr"  time="-9999999/1" value="0" leadInLength="0/1"  />
              <InterpolatingParam id="2599" interp="linr"  time="-9999999/1" value="0" leadInLength="0/1"  />
              <InterpolatingParam id="2600" interp="linr"  time="-9999999/1" value="0" leadInLength="0/1"  />
             </VectorParam>
             <VectorParam id="2601"  name="shear">
              <InterpolatingParam id="2602" interp="linr"  time="-9999999/1" value="0" leadInLength="0/1"  />
              <InterpolatingParam id="2603" interp="linr"  time="-9999999/1" value="0" leadInLength="0/1"  />
              <InterpolatingParam id="2604" interp="linr"  time="-9999999/1" value="0" leadInLength="0/1"  />
             </VectorParam>
             <VectorParam id="2605"  name="scale">
              <InterpolatingParam id="2606" interp="linr"  time="-9999999/1" value="1" leadInLength="0/1"  />
              <InterpolatingParam id="2607" interp="linr"  time="-9999999/1" value="1" leadInLength="0/1"  />
              <InterpolatingParam id="2608" interp="linr"  time="-9999999/1" value="1" leadInLength="0/1"  />
             </VectorParam>
             <VectorParam id="2609"  name="anchor">
              <InterpolatingParam id="2610" interp="linr"  time="0/1" value="0" leadInLength="0/1"  />
              <InterpolatingParam id="2611" interp="linr"  time="0/1" value="0" leadInLength="0/1"  />
              <InterpolatingParam id="2612" interp="linr"  time="0/1" value="0" leadInLength="0/1"  />
             </VectorParam>
            </Transformer>
            <Parameters>
             <VectorParam id="2613"  name="sourceCrop">
              <InterpolatingParam id="2614" interp="linr"  time="0/1" value="0" leadInLength="0/1"  />
              <InterpolatingParam id="2615" interp="linr"  time="0/1" value="0" leadInLength="0/1"  />
              <InterpolatingParam id="2616" interp="linr"  time="0/1" value="0" leadInLength="0/1"  />
              <InterpolatingParam id="2617" interp="linr"  time="0/1" value="0" leadInLength="0/1"  />
             </VectorParam>
             <VectorParam id="2618"  name="geometryCrop">
              <InterpolatingParam id="2619" interp="linr"  time="-9999999/1" value="0" leadInLength="0/1"  />
              <InterpolatingParam id="2620" interp="linr"  time="-9999999/1" value="0" leadInLength="0/1"  />
              <InterpolatingParam id="2621" interp="linr"  time="-9999999/1" value="0" leadInLength="0/1"  />
              <InterpolatingParam id="2622" interp="linr"  time="-9999999/1" value="0" leadInLength="0/1"  />
             </VectorParam>
             <InterpolatingParam id="2623" interp="linr"  time="-9999999/1" value="1" leadInLength="0/1"  name="opacity"/>
             <InterpolatingParam id="2624" interp="linr"  time="0/1" value="0" leadInLength="0/1"  name="cursorOpacity"/>
             <InterpolatingParam id="2625" interp="linr"  time="0/1" value="0" leadInLength="0/1"  name="cursorScale"/>
            </Parameters>
            <Attributes>
             <Attribute id="2626" value="" name="ident"/>
            </Attributes>
            <MetaData>
             <entry key="AutoAppliedSmartFocus" val="False"/>
             <entry key="WinSubProjectDisplayName" val=""/>
            </MetaData>
            <ExtraData>
             <Entry key="ZoomPanBin">
              <ZoomPanBin id="2627"  >
               <ZoomPanKeyframes>
                <ZoomPanKeyframe id="2628" timeRangeEnd="-9999999/1" timeRangeDuration="0/1" interpolaterName=""  />
               </ZoomPanKeyframes>
              </ZoomPanBin>
             </Entry>
             <Entry key="CursorEffectBin">
              <CursorEffectBin id="2629"  >
               <CursorEffectKeyframes>
               </CursorEffectKeyframes>
              </CursorEffectBin>
             </Entry>
            </ExtraData>
           </ScreenVMFile>
           <ScreenVMFile id="2630" start="1539" duration="71" scalar="1/1" mediaStart="1754/1" mediaDuration="71/1" trackNumber="0" src="12" >
            <Transformer>
             <VectorParam id="2631"  name="translation">
              <InterpolatingParam id="2632" interp="linr"  time="-9999999/1" value="0" leadInLength="0/1"  />
              <InterpolatingParam id="2633" interp="linr"  time="-9999999/1" value="0" leadInLength="0/1"  />
              <InterpolatingParam id="2634" interp="linr"  time="-9999999/1" value="0" leadInLength="0/1"  />
             </VectorParam>
             <VectorParam id="2635"  name="rotation">
              <InterpolatingParam id="2636" interp="linr"  time="-9999999/1" value="0" leadInLength="0/1"  />
              <InterpolatingParam id="2637" interp="linr"  time="-9999999/1" value="0" leadInLength="0/1"  />
              <InterpolatingParam id="2638" interp="linr"  time="-9999999/1" value="0" leadInLength="0/1"  />
             </VectorParam>
             <VectorParam id="2639"  name="shear">
              <InterpolatingParam id="2640" interp="linr"  time="-9999999/1" value="0" leadInLength="0/1"  />
              <InterpolatingParam id="2641" interp="linr"  time="-9999999/1" value="0" leadInLength="0/1"  />
              <InterpolatingParam id="2642" interp="linr"  time="-9999999/1" value="0" leadInLength="0/1"  />
             </VectorParam>
             <VectorParam id="2643"  name="scale">
              <InterpolatingParam id="2644" interp="linr"  time="-9999999/1" value="1" leadInLength="0/1"  />
              <InterpolatingParam id="2645" interp="linr"  time="-9999999/1" value="1" leadInLength="0/1"  />
              <InterpolatingParam id="2646" interp="linr"  time="-9999999/1" value="1" leadInLength="0/1"  />
             </VectorParam>
             <VectorParam id="2647"  name="anchor">
              <InterpolatingParam id="2648" interp="linr"  time="0/1" value="0" leadInLength="0/1"  />
              <InterpolatingParam id="2649" interp="linr"  time="0/1" value="0" leadInLength="0/1"  />
              <InterpolatingParam id="2650" interp="linr"  time="0/1" value="0" leadInLength="0/1"  />
             </VectorParam>
            </Transformer>
            <Parameters>
             <VectorParam id="2651"  name="sourceCrop">
              <InterpolatingParam id="2652" interp="linr"  time="0/1" value="0" leadInLength="0/1"  />
              <InterpolatingParam id="2653" interp="linr"  time="0/1" value="0" leadInLength="0/1"  />
              <InterpolatingParam id="2654" interp="linr"  time="0/1" value="0" leadInLength="0/1"  />
              <InterpolatingParam id="2655" interp="linr"  time="0/1" value="0" leadInLength="0/1"  />
             </VectorParam>
             <VectorParam id="2656"  name="geometryCrop">
              <InterpolatingParam id="2657" interp="linr"  time="-9999999/1" value="0" leadInLength="0/1"  />
              <InterpolatingParam id="2658" interp="linr"  time="-9999999/1" value="0" leadInLength="0/1"  />
              <InterpolatingParam id="2659" interp="linr"  time="-9999999/1" value="0" leadInLength="0/1"  />
              <InterpolatingParam id="2660" interp="linr"  time="-9999999/1" value="0" leadInLength="0/1"  />
             </VectorParam>
             <InterpolatingParam id="2661" interp="linr"  time="-9999999/1" value="1" leadInLength="0/1"  name="opacity"/>
             <InterpolatingParam id="2662" interp="linr"  time="0/1" value="0" leadInLength="0/1"  name="cursorOpacity"/>
             <InterpolatingParam id="2663" interp="linr"  time="0/1" value="0" leadInLength="0/1"  name="cursorScale"/>
            </Parameters>
            <Attributes>
             <Attribute id="2664" value="" name="ident"/>
            </Attributes>
            <MetaData>
             <entry key="AutoAppliedSmartFocus" val="False"/>
             <entry key="WinSubProjectDisplayName" val=""/>
            </MetaData>
            <ExtraData>
             <Entry key="ZoomPanBin">
              <ZoomPanBin id="2665"  >
               <ZoomPanKeyframes>
                <ZoomPanKeyframe id="2666" timeRangeEnd="-9999999/1" timeRangeDuration="0/1" interpolaterName=""  />
               </ZoomPanKeyframes>
              </ZoomPanBin>
             </Entry>
             <Entry key="CursorEffectBin">
              <CursorEffectBin id="2667"  >
               <CursorEffectKeyframes>
               </CursorEffectKeyframes>
              </CursorEffectBin>
             </Entry>
            </ExtraData>
           </ScreenVMFile>
           <ScreenVMFile id="2668" start="1610" duration="85" scalar="1/1" mediaStart="2135/1" mediaDuration="85/1" trackNumber="0" src="12" >
            <Transformer>
             <VectorParam id="2669"  name="translation">
              <InterpolatingParam id="2670" interp="linr"  time="-9999999/1" value="0" leadInLength="0/1"  />
              <InterpolatingParam id="2671" interp="linr"  time="-9999999/1" value="0" leadInLength="0/1"  />
              <InterpolatingParam id="2672" interp="linr"  time="-9999999/1" value="0" leadInLength="0/1"  />
             </VectorParam>
             <VectorParam id="2673"  name="rotation">
              <InterpolatingParam id="2674" interp="linr"  time="-9999999/1" value="0" leadInLength="0/1"  />
              <InterpolatingParam id="2675" interp="linr"  time="-9999999/1" value="0" leadInLength="0/1"  />
              <InterpolatingParam id="2676" interp="linr"  time="-9999999/1" value="0" leadInLength="0/1"  />
             </VectorParam>
             <VectorParam id="2677"  name="shear">
              <InterpolatingParam id="2678" interp="linr"  time="-9999999/1" value="0" leadInLength="0/1"  />
              <InterpolatingParam id="2679" interp="linr"  time="-9999999/1" value="0" leadInLength="0/1"  />
              <InterpolatingParam id="2680" interp="linr"  time="-9999999/1" value="0" leadInLength="0/1"  />
             </VectorParam>
             <VectorParam id="2681"  name="scale">
              <InterpolatingParam id="2682" interp="linr"  time="-9999999/1" value="1" leadInLength="0/1"  />
              <InterpolatingParam id="2683" interp="linr"  time="-9999999/1" value="1" leadInLength="0/1"  />
              <InterpolatingParam id="2684" interp="linr"  time="-9999999/1" value="1" leadInLength="0/1"  />
             </VectorParam>
             <VectorParam id="2685"  name="anchor">
              <InterpolatingParam id="2686" interp="linr"  time="0/1" value="0" leadInLength="0/1"  />
              <InterpolatingParam id="2687" interp="linr"  time="0/1" value="0" leadInLength="0/1"  />
              <InterpolatingParam id="2688" interp="linr"  time="0/1" value="0" leadInLength="0/1"  />
             </VectorParam>
            </Transformer>
            <Parameters>
             <VectorParam id="2689"  name="sourceCrop">
              <InterpolatingParam id="2690" interp="linr"  time="0/1" value="0" leadInLength="0/1"  />
              <InterpolatingParam id="2691" interp="linr"  time="0/1" value="0" leadInLength="0/1"  />
              <InterpolatingParam id="2692" interp="linr"  time="0/1" value="0" leadInLength="0/1"  />
              <InterpolatingParam id="2693" interp="linr"  time="0/1" value="0" leadInLength="0/1"  />
             </VectorParam>
             <VectorParam id="2694"  name="geometryCrop">
              <InterpolatingParam id="2695" interp="linr"  time="-9999999/1" value="0" leadInLength="0/1"  />
              <InterpolatingParam id="2696" interp="linr"  time="-9999999/1" value="0" leadInLength="0/1"  />
              <InterpolatingParam id="2697" interp="linr"  time="-9999999/1" value="0" leadInLength="0/1"  />
              <InterpolatingParam id="2698" interp="linr"  time="-9999999/1" value="0" leadInLength="0/1"  />
             </VectorParam>
             <InterpolatingParam id="2699" interp="linr"  time="-9999999/1" value="1" leadInLength="0/1"  name="opacity"/>
             <InterpolatingParam id="2700" interp="linr"  time="0/1" value="0" leadInLength="0/1"  name="cursorOpacity"/>
             <InterpolatingParam id="2701" interp="linr"  time="0/1" value="0" leadInLength="0/1"  name="cursorScale"/>
            </Parameters>
            <Attributes>
             <Attribute id="2702" value="" name="ident"/>
            </Attributes>
            <MetaData>
             <entry key="AutoAppliedSmartFocus" val="False"/>
             <entry key="WinSubProjectDisplayName" val=""/>
            </MetaData>
            <ExtraData>
             <Entry key="ZoomPanBin">
              <ZoomPanBin id="2703"  >
               <ZoomPanKeyframes>
                <ZoomPanKeyframe id="2704" timeRangeEnd="-9999999/1" timeRangeDuration="0/1" interpolaterName=""  />
               </ZoomPanKeyframes>
              </ZoomPanBin>
             </Entry>
             <Entry key="CursorEffectBin">
              <CursorEffectBin id="2705"  >
               <CursorEffectKeyframes>
               </CursorEffectKeyframes>
              </CursorEffectBin>
             </Entry>
            </ExtraData>
           </ScreenVMFile>
           <ScreenVMFile id="2706" start="1695" duration="2" scalar="1/1" mediaStart="2970/1" mediaDuration="2/1" trackNumber="0" src="12" >
            <Transformer>
             <VectorParam id="2707"  name="translation">
              <InterpolatingParam id="2708" interp="linr"  time="-9999999/1" value="0" leadInLength="0/1"  />
              <InterpolatingParam id="2709" interp="linr"  time="-9999999/1" value="0" leadInLength="0/1"  />
              <InterpolatingParam id="2710" interp="linr"  time="-9999999/1" value="0" leadInLength="0/1"  />
             </VectorParam>
             <VectorParam id="2711"  name="rotation">
              <InterpolatingParam id="2712" interp="linr"  time="-9999999/1" value="0" leadInLength="0/1"  />
              <InterpolatingParam id="2713" interp="linr"  time="-9999999/1" value="0" leadInLength="0/1"  />
              <InterpolatingParam id="2714" interp="linr"  time="-9999999/1" value="0" leadInLength="0/1"  />
             </VectorParam>
             <VectorParam id="2715"  name="shear">
              <InterpolatingParam id="2716" interp="linr"  time="-9999999/1" value="0" leadInLength="0/1"  />
              <InterpolatingParam id="2717" interp="linr"  time="-9999999/1" value="0" leadInLength="0/1"  />
              <InterpolatingParam id="2718" interp="linr"  time="-9999999/1" value="0" leadInLength="0/1"  />
             </VectorParam>
             <VectorParam id="2719"  name="scale">
              <InterpolatingParam id="2720" interp="linr"  time="-9999999/1" value="1" leadInLength="0/1"  />
              <InterpolatingParam id="2721" interp="linr"  time="-9999999/1" value="1" leadInLength="0/1"  />
              <InterpolatingParam id="2722" interp="linr"  time="-9999999/1" value="1" leadInLength="0/1"  />
             </VectorParam>
             <VectorParam id="2723"  name="anchor">
              <InterpolatingParam id="2724" interp="linr"  time="0/1" value="0" leadInLength="0/1"  />
              <InterpolatingParam id="2725" interp="linr"  time="0/1" value="0" leadInLength="0/1"  />
              <InterpolatingParam id="2726" interp="linr"  time="0/1" value="0" leadInLength="0/1"  />
             </VectorParam>
            </Transformer>
            <Parameters>
             <VectorParam id="2727"  name="sourceCrop">
              <InterpolatingParam id="2728" interp="linr"  time="0/1" value="0" leadInLength="0/1"  />
              <InterpolatingParam id="2729" interp="linr"  time="0/1" value="0" leadInLength="0/1"  />
              <InterpolatingParam id="2730" interp="linr"  time="0/1" value="0" leadInLength="0/1"  />
              <InterpolatingParam id="2731" interp="linr"  time="0/1" value="0" leadInLength="0/1"  />
             </VectorParam>
             <VectorParam id="2732"  name="geometryCrop">
              <InterpolatingParam id="2733" interp="linr"  time="-9999999/1" value="0" leadInLength="0/1"  />
              <InterpolatingParam id="2734" interp="linr"  time="-9999999/1" value="0" leadInLength="0/1"  />
              <InterpolatingParam id="2735" interp="linr"  time="-9999999/1" value="0" leadInLength="0/1"  />
              <InterpolatingParam id="2736" interp="linr"  time="-9999999/1" value="0" leadInLength="0/1"  />
             </VectorParam>
             <InterpolatingParam id="2737" interp="linr"  time="-9999999/1" value="1" leadInLength="0/1"  name="opacity"/>
             <InterpolatingParam id="2738" interp="linr"  time="0/1" value="0" leadInLength="0/1"  name="cursorOpacity"/>
             <InterpolatingParam id="2739" interp="linr"  time="0/1" value="0" leadInLength="0/1"  name="cursorScale"/>
            </Parameters>
            <Attributes>
             <Attribute id="2740" value="" name="ident"/>
            </Attributes>
            <MetaData>
             <entry key="AutoAppliedSmartFocus" val="False"/>
             <entry key="WinSubProjectDisplayName" val=""/>
            </MetaData>
            <ExtraData>
             <Entry key="ZoomPanBin">
              <ZoomPanBin id="2741"  >
               <ZoomPanKeyframes>
                <ZoomPanKeyframe id="2742" timeRangeEnd="-9999999/1" timeRangeDuration="0/1" interpolaterName=""  />
               </ZoomPanKeyframes>
              </ZoomPanBin>
             </Entry>
             <Entry key="CursorEffectBin">
              <CursorEffectBin id="2743"  >
               <CursorEffectKeyframes>
               </CursorEffectKeyframes>
              </CursorEffectBin>
             </Entry>
            </ExtraData>
           </ScreenVMFile>
          </Medias>
         </GenericTrack>
        </StitchedMedia>
        <StitchedMedia id="2744" start="6423" duration="458" scalar="1/1" mediaStart="193/1" mediaDuration="458/1" minMediaStart="0/1" >
         <Transformer>
          <VectorParam id="2745"  name="translation">
           <InterpolatingParam id="2746" interp="linr"  time="-9999999/1" value="0" leadInLength="0/1"  />
           <InterpolatingParam id="2747" interp="linr"  time="-9999999/1" value="0" leadInLength="0/1"  />
           <InterpolatingParam id="2748" interp="linr"  time="-9999999/1" value="0" leadInLength="0/1"  />
          </VectorParam>
          <VectorParam id="2749"  name="rotation">
           <InterpolatingParam id="2750" interp="linr"  time="-9999999/1" value="0" leadInLength="0/1"  />
           <InterpolatingParam id="2751" interp="linr"  time="-9999999/1" value="0" leadInLength="0/1"  />
           <InterpolatingParam id="2752" interp="linr"  time="-9999999/1" value="0" leadInLength="0/1"  />
          </VectorParam>
          <VectorParam id="2753"  name="shear">
           <InterpolatingParam id="2754" interp="linr"  time="-9999999/1" value="0" leadInLength="0/1"  />
           <InterpolatingParam id="2755" interp="linr"  time="-9999999/1" value="0" leadInLength="0/1"  />
           <InterpolatingParam id="2756" interp="linr"  time="-9999999/1" value="0" leadInLength="0/1"  />
          </VectorParam>
          <VectorParam id="2757"  name="scale">
           <InterpolatingParam id="2758" interp="linr"  time="-9999999/1" value="0.73124999999999996" leadInLength="0/1"  />
           <InterpolatingParam id="2759" interp="linr"  time="-9999999/1" value="0.73124999999999996" leadInLength="0/1"  />
           <InterpolatingParam id="2760" interp="linr"  time="-9999999/1" value="1" leadInLength="0/1"  />
          </VectorParam>
          <VectorParam id="2761"  name="anchor">
           <InterpolatingParam id="2762" interp="linr"  time="0/1" value="0" leadInLength="0/1"  />
           <InterpolatingParam id="2763" interp="linr"  time="0/1" value="0" leadInLength="0/1"  />
           <InterpolatingParam id="2764" interp="linr"  time="0/1" value="0" leadInLength="0/1"  />
          </VectorParam>
         </Transformer>
         <Parameters>
          <VectorParam id="2765"  name="sourceCrop">
           <InterpolatingParam id="2766" interp="linr"  time="0/1" value="0" leadInLength="0/1"  />
           <InterpolatingParam id="2767" interp="linr"  time="0/1" value="0" leadInLength="0/1"  />
           <InterpolatingParam id="2768" interp="linr"  time="0/1" value="0" leadInLength="0/1"  />
           <InterpolatingParam id="2769" interp="linr"  time="0/1" value="0" leadInLength="0/1"  />
          </VectorParam>
          <VectorParam id="2770"  name="geometryCrop">
           <InterpolatingParam id="2771" interp="linr"  time="-9999999/1" value="0" leadInLength="0/1"  />
           <InterpolatingParam id="2772" interp="linr"  time="-9999999/1" value="0" leadInLength="0/1"  />
           <InterpolatingParam id="2773" interp="linr"  time="-9999999/1" value="0" leadInLength="0/1"  />
           <InterpolatingParam id="2774" interp="linr"  time="-9999999/1" value="0" leadInLength="0/1"  />
          </VectorParam>
          <InterpolatingParam id="2775" interp="linr"  time="-9999999/1" value="1" leadInLength="0/1"  name="opacity"/>
          <InterpolatingParam id="2776" interp="linr"  time="0/1" value="1" leadInLength="0/1"  name="cursorOpacity"/>
          <InterpolatingParam id="2777" interp="linr"  time="0/1" value="1" leadInLength="0/1"  name="cursorScale"/>
          <Parameter id="2778"  name="captions"/>
         </Parameters>
         <Effects>
          <GenericEffect id="2779" name = "CursorBaseEffectName" >
           <Parameters>
           <InterpolatingParam id="2780" interp="linr"  time="-9999999/1" value="1" leadInLength="0/1"   name="cursorSize"/>
           <InterpolatingParam id="2781" interp="linr"  time="-9999999/1" value="0" leadInLength="0/1"   name="highlightBlurRadius"/>
           <InterpolatingParam id="2782" interp="linr"  time="-9999999/1" value="0" leadInLength="0/1"   name="highlightColorBlue"/>
           <InterpolatingParam id="2783" interp="linr"  time="-9999999/1" value="255" leadInLength="0/1"   name="highlightColorGreen"/>
           <InterpolatingParam id="2784" interp="linr"  time="-9999999/1" value="255" leadInLength="0/1"   name="highlightColorRed"/>
           <InterpolatingParam id="2785" interp="linr"  time="-9999999/1" value="5" leadInLength="0/1"   name="highlightFeatherSize"/>
           <InterpolatingParam id="2786" interp="linr"  time="-9999999/1" value="2" leadInLength="0/1"   name="highlightMagnification"/>
           <InterpolatingParam id="2787" interp="linr"  time="-9999999/1" value="1" leadInLength="0/1"   name="highlightOpacity"/>
           <InterpolatingParam id="2788" interp="linr"  time="-9999999/1" value="45" leadInLength="0/1"   name="highlightSize"/>
           <Parameter id="2789"   name="highlightType">
            <Keyframes>
            <Keyframe id="2790"  time="-9999999/1" value="0" leadInLength="0/1"  />
            </Keyframes>
           </Parameter>
           <InterpolatingParam id="2791" interp="linr"  time="-9999999/1" value="0" leadInLength="0/1"   name="leftClickColorBlue"/>
           <InterpolatingParam id="2792" interp="linr"  time="-9999999/1" value="0" leadInLength="0/1"   name="leftClickColorGreen"/>
           <InterpolatingParam id="2793" interp="linr"  time="-9999999/1" value="255" leadInLength="0/1"   name="leftClickColorRed"/>
           <InterpolatingParam id="2794" interp="linr"  time="-9999999/1" value="0.80000000000000004" leadInLength="0/1"   name="leftClickDuration"/>
           <InterpolatingParam id="2795" interp="linr"  time="-9999999/1" value="20" leadInLength="0/1"   name="leftClickSize"/>
           <Parameter id="2796"   name="leftClickSoundFilename">
            <Keyframes>
            <Keyframe id="2797"  time="-9999999/1" value="" leadInLength="0/1"  />
            </Keyframes>
           </Parameter>
           <InterpolatingParam id="2798" interp="linr"  time="-9999999/1" value="1" leadInLength="0/1"   name="leftClickSoundVolume"/>
           <Parameter id="2799"   name="leftClickType">
            <Keyframes>
            <Keyframe id="2800"  time="-9999999/1" value="0" leadInLength="0/1"  />
            </Keyframes>
           </Parameter>
           <InterpolatingParam id="2801" interp="linr"  time="-9999999/1" value="1" leadInLength="0/1"   name="opacity"/>
           <InterpolatingParam id="2802" interp="linr"  time="-9999999/1" value="255" leadInLength="0/1"   name="rightClickColorBlue"/>
           <InterpolatingParam id="2803" interp="linr"  time="-9999999/1" value="0" leadInLength="0/1"   name="rightClickColorGreen"/>
           <InterpolatingParam id="2804" interp="linr"  time="-9999999/1" value="0" leadInLength="0/1"   name="rightClickColorRed"/>
           <InterpolatingParam id="2805" interp="linr"  time="-9999999/1" value="0.80000000000000004" leadInLength="0/1"   name="rightClickDuration"/>
           <InterpolatingParam id="2806" interp="linr"  time="-9999999/1" value="20" leadInLength="0/1"   name="rightClickSize"/>
           <Parameter id="2807"   name="rightClickSoundFilename">
            <Keyframes>
            <Keyframe id="2808"  time="-9999999/1" value="" leadInLength="0/1"  />
            </Keyframes>
           </Parameter>
           <InterpolatingParam id="2809" interp="linr"  time="-9999999/1" value="1" leadInLength="0/1"   name="rightClickSoundVolume"/>
           <Parameter id="2810"   name="rightClickType">
            <Keyframes>
            <Keyframe id="2811"  time="-9999999/1" value="0" leadInLength="0/1"  />
            </Keyframes>
           </Parameter>
           </Parameters>
          </GenericEffect>
         </Effects>
         <Attributes>
          <Attribute id="2812" value="" name="ident"/>
         </Attributes>
         <MetaData>
          <entry key="AutoAppliedSmartFocus" val="False"/>
          <entry key="WinSubProjectDisplayName" val=""/>
         </MetaData>
         <ExtraData>
          <Entry key="ZoomPanBin">
           <ZoomPanBin id="2813"  >
            <ZoomPanKeyframes>
             <ZoomPanKeyframe id="2814" timeRangeEnd="-9999999/1" timeRangeDuration="0/1" interpolaterName=""  />
            </ZoomPanKeyframes>
           </ZoomPanBin>
          </Entry>
          <Entry key="CursorEffectBin">
           <CursorEffectBin id="2815"  >
            <CursorEffectKeyframes>
             <CursorEffectKeyframe id="2816" timeRangeEnd="-9999999/1" timeRangeDuration="0/1" interpolaterName=""  />
            </CursorEffectKeyframes>
           </CursorEffectBin>
          </Entry>
         </ExtraData>
         <GenericTrack id="2817"  >
          <Attributes>
           <Attribute id="2818" value="" name="ident"/>
           <Attribute id="2819" value="0" name="audioMuted"/>
           <Attribute id="2820" value="0" name="videoHidden"/>
          </Attributes>
          <MetaData>
           <entry key="IsLocked" val="False"/>
           <entry key="WinTrackHeight" val="0"/>
          </MetaData>
          <Medias>
           <ScreenVMFile id="2821" start="0" duration="344" scalar="1/1" mediaStart="0/1" mediaDuration="344/1" trackNumber="0" src="13" >
            <Transformer>
             <VectorParam id="2822"  name="translation">
              <InterpolatingParam id="2823" interp="linr"  time="-9999999/1" value="0" leadInLength="0/1"  />
              <InterpolatingParam id="2824" interp="linr"  time="-9999999/1" value="0" leadInLength="0/1"  />
              <InterpolatingParam id="2825" interp="linr"  time="-9999999/1" value="0" leadInLength="0/1"  />
             </VectorParam>
             <VectorParam id="2826"  name="rotation">
              <InterpolatingParam id="2827" interp="linr"  time="-9999999/1" value="0" leadInLength="0/1"  />
              <InterpolatingParam id="2828" interp="linr"  time="-9999999/1" value="0" leadInLength="0/1"  />
              <InterpolatingParam id="2829" interp="linr"  time="-9999999/1" value="0" leadInLength="0/1"  />
             </VectorParam>
             <VectorParam id="2830"  name="shear">
              <InterpolatingParam id="2831" interp="linr"  time="-9999999/1" value="0" leadInLength="0/1"  />
              <InterpolatingParam id="2832" interp="linr"  time="-9999999/1" value="0" leadInLength="0/1"  />
              <InterpolatingParam id="2833" interp="linr"  time="-9999999/1" value="0" leadInLength="0/1"  />
             </VectorParam>
             <VectorParam id="2834"  name="scale">
              <InterpolatingParam id="2835" interp="linr"  time="-9999999/1" value="1" leadInLength="0/1"  />
              <InterpolatingParam id="2836" interp="linr"  time="-9999999/1" value="1" leadInLength="0/1"  />
              <InterpolatingParam id="2837" interp="linr"  time="-9999999/1" value="1" leadInLength="0/1"  />
             </VectorParam>
             <VectorParam id="2838"  name="anchor">
              <InterpolatingParam id="2839" interp="linr"  time="0/1" value="0" leadInLength="0/1"  />
              <InterpolatingParam id="2840" interp="linr"  time="0/1" value="0" leadInLength="0/1"  />
              <InterpolatingParam id="2841" interp="linr"  time="0/1" value="0" leadInLength="0/1"  />
             </VectorParam>
            </Transformer>
            <Parameters>
             <VectorParam id="2842"  name="sourceCrop">
              <InterpolatingParam id="2843" interp="linr"  time="0/1" value="0" leadInLength="0/1"  />
              <InterpolatingParam id="2844" interp="linr"  time="0/1" value="0" leadInLength="0/1"  />
              <InterpolatingParam id="2845" interp="linr"  time="0/1" value="0" leadInLength="0/1"  />
              <InterpolatingParam id="2846" interp="linr"  time="0/1" value="0" leadInLength="0/1"  />
             </VectorParam>
             <VectorParam id="2847"  name="geometryCrop">
              <InterpolatingParam id="2848" interp="linr"  time="-9999999/1" value="0" leadInLength="0/1"  />
              <InterpolatingParam id="2849" interp="linr"  time="-9999999/1" value="0" leadInLength="0/1"  />
              <InterpolatingParam id="2850" interp="linr"  time="-9999999/1" value="0" leadInLength="0/1"  />
              <InterpolatingParam id="2851" interp="linr"  time="-9999999/1" value="0" leadInLength="0/1"  />
             </VectorParam>
             <InterpolatingParam id="2852" interp="linr"  time="-9999999/1" value="1" leadInLength="0/1"  name="opacity"/>
             <InterpolatingParam id="2853" interp="linr"  time="0/1" value="0" leadInLength="0/1"  name="cursorOpacity"/>
             <InterpolatingParam id="2854" interp="linr"  time="0/1" value="0" leadInLength="0/1"  name="cursorScale"/>
            </Parameters>
            <Attributes>
             <Attribute id="2855" value="" name="ident"/>
            </Attributes>
            <MetaData>
             <entry key="AutoAppliedSmartFocus" val="False"/>
             <entry key="WinSubProjectDisplayName" val=""/>
            </MetaData>
            <ExtraData>
             <Entry key="ZoomPanBin">
              <ZoomPanBin id="2856"  >
               <ZoomPanKeyframes>
                <ZoomPanKeyframe id="2857" timeRangeEnd="-9999999/1" timeRangeDuration="0/1" interpolaterName=""  />
               </ZoomPanKeyframes>
              </ZoomPanBin>
             </Entry>
             <Entry key="CursorEffectBin">
              <CursorEffectBin id="2858"  >
               <CursorEffectKeyframes>
               </CursorEffectKeyframes>
              </CursorEffectBin>
             </Entry>
            </ExtraData>
           </ScreenVMFile>
           <ScreenVMFile id="2859" start="344" duration="190" scalar="1/1" mediaStart="355/1" mediaDuration="190/1" trackNumber="0" src="13" >
            <Transformer>
             <VectorParam id="2860"  name="translation">
              <InterpolatingParam id="2861" interp="linr"  time="-9999999/1" value="0" leadInLength="0/1"  />
              <InterpolatingParam id="2862" interp="linr"  time="-9999999/1" value="0" leadInLength="0/1"  />
              <InterpolatingParam id="2863" interp="linr"  time="-9999999/1" value="0" leadInLength="0/1"  />
             </VectorParam>
             <VectorParam id="2864"  name="rotation">
              <InterpolatingParam id="2865" interp="linr"  time="-9999999/1" value="0" leadInLength="0/1"  />
              <InterpolatingParam id="2866" interp="linr"  time="-9999999/1" value="0" leadInLength="0/1"  />
              <InterpolatingParam id="2867" interp="linr"  time="-9999999/1" value="0" leadInLength="0/1"  />
             </VectorParam>
             <VectorParam id="2868"  name="shear">
              <InterpolatingParam id="2869" interp="linr"  time="-9999999/1" value="0" leadInLength="0/1"  />
              <InterpolatingParam id="2870" interp="linr"  time="-9999999/1" value="0" leadInLength="0/1"  />
              <InterpolatingParam id="2871" interp="linr"  time="-9999999/1" value="0" leadInLength="0/1"  />
             </VectorParam>
             <VectorParam id="2872"  name="scale">
              <InterpolatingParam id="2873" interp="linr"  time="-9999999/1" value="1" leadInLength="0/1"  />
              <InterpolatingParam id="2874" interp="linr"  time="-9999999/1" value="1" leadInLength="0/1"  />
              <InterpolatingParam id="2875" interp="linr"  time="-9999999/1" value="1" leadInLength="0/1"  />
             </VectorParam>
             <VectorParam id="2876"  name="anchor">
              <InterpolatingParam id="2877" interp="linr"  time="0/1" value="0" leadInLength="0/1"  />
              <InterpolatingParam id="2878" interp="linr"  time="0/1" value="0" leadInLength="0/1"  />
              <InterpolatingParam id="2879" interp="linr"  time="0/1" value="0" leadInLength="0/1"  />
             </VectorParam>
            </Transformer>
            <Parameters>
             <VectorParam id="2880"  name="sourceCrop">
              <InterpolatingParam id="2881" interp="linr"  time="0/1" value="0" leadInLength="0/1"  />
              <InterpolatingParam id="2882" interp="linr"  time="0/1" value="0" leadInLength="0/1"  />
              <InterpolatingParam id="2883" interp="linr"  time="0/1" value="0" leadInLength="0/1"  />
              <InterpolatingParam id="2884" interp="linr"  time="0/1" value="0" leadInLength="0/1"  />
             </VectorParam>
             <VectorParam id="2885"  name="geometryCrop">
              <InterpolatingParam id="2886" interp="linr"  time="-9999999/1" value="0" leadInLength="0/1"  />
              <InterpolatingParam id="2887" interp="linr"  time="-9999999/1" value="0" leadInLength="0/1"  />
              <InterpolatingParam id="2888" interp="linr"  time="-9999999/1" value="0" leadInLength="0/1"  />
              <InterpolatingParam id="2889" interp="linr"  time="-9999999/1" value="0" leadInLength="0/1"  />
             </VectorParam>
             <InterpolatingParam id="2890" interp="linr"  time="-9999999/1" value="1" leadInLength="0/1"  name="opacity"/>
             <InterpolatingParam id="2891" interp="linr"  time="0/1" value="0" leadInLength="0/1"  name="cursorOpacity"/>
             <InterpolatingParam id="2892" interp="linr"  time="0/1" value="0" leadInLength="0/1"  name="cursorScale"/>
            </Parameters>
            <Attributes>
             <Attribute id="2893" value="" name="ident"/>
            </Attributes>
            <MetaData>
             <entry key="AutoAppliedSmartFocus" val="False"/>
             <entry key="WinSubProjectDisplayName" val=""/>
            </MetaData>
            <ExtraData>
             <Entry key="ZoomPanBin">
              <ZoomPanBin id="2894"  >
               <ZoomPanKeyframes>
                <ZoomPanKeyframe id="2895" timeRangeEnd="-9999999/1" timeRangeDuration="0/1" interpolaterName=""  />
               </ZoomPanKeyframes>
              </ZoomPanBin>
             </Entry>
             <Entry key="CursorEffectBin">
              <CursorEffectBin id="2896"  >
               <CursorEffectKeyframes>
               </CursorEffectKeyframes>
              </CursorEffectBin>
             </Entry>
            </ExtraData>
           </ScreenVMFile>
           <ScreenVMFile id="2897" start="534" duration="335" scalar="1/1" mediaStart="1483/1" mediaDuration="335/1" trackNumber="0" src="13" >
            <Transformer>
             <VectorParam id="2898"  name="translation">
              <InterpolatingParam id="2899" interp="linr"  time="-9999999/1" value="0" leadInLength="0/1"  />
              <InterpolatingParam id="2900" interp="linr"  time="-9999999/1" value="0" leadInLength="0/1"  />
              <InterpolatingParam id="2901" interp="linr"  time="-9999999/1" value="0" leadInLength="0/1"  />
             </VectorParam>
             <VectorParam id="2902"  name="rotation">
              <InterpolatingParam id="2903" interp="linr"  time="-9999999/1" value="0" leadInLength="0/1"  />
              <InterpolatingParam id="2904" interp="linr"  time="-9999999/1" value="0" leadInLength="0/1"  />
              <InterpolatingParam id="2905" interp="linr"  time="-9999999/1" value="0" leadInLength="0/1"  />
             </VectorParam>
             <VectorParam id="2906"  name="shear">
              <InterpolatingParam id="2907" interp="linr"  time="-9999999/1" value="0" leadInLength="0/1"  />
              <InterpolatingParam id="2908" interp="linr"  time="-9999999/1" value="0" leadInLength="0/1"  />
              <InterpolatingParam id="2909" interp="linr"  time="-9999999/1" value="0" leadInLength="0/1"  />
             </VectorParam>
             <VectorParam id="2910"  name="scale">
              <InterpolatingParam id="2911" interp="linr"  time="-9999999/1" value="1" leadInLength="0/1"  />
              <InterpolatingParam id="2912" interp="linr"  time="-9999999/1" value="1" leadInLength="0/1"  />
              <InterpolatingParam id="2913" interp="linr"  time="-9999999/1" value="1" leadInLength="0/1"  />
             </VectorParam>
             <VectorParam id="2914"  name="anchor">
              <InterpolatingParam id="2915" interp="linr"  time="0/1" value="0" leadInLength="0/1"  />
              <InterpolatingParam id="2916" interp="linr"  time="0/1" value="0" leadInLength="0/1"  />
              <InterpolatingParam id="2917" interp="linr"  time="0/1" value="0" leadInLength="0/1"  />
             </VectorParam>
            </Transformer>
            <Parameters>
             <VectorParam id="2918"  name="sourceCrop">
              <InterpolatingParam id="2919" interp="linr"  time="0/1" value="0" leadInLength="0/1"  />
              <InterpolatingParam id="2920" interp="linr"  time="0/1" value="0" leadInLength="0/1"  />
              <InterpolatingParam id="2921" interp="linr"  time="0/1" value="0" leadInLength="0/1"  />
              <InterpolatingParam id="2922" interp="linr"  time="0/1" value="0" leadInLength="0/1"  />
             </VectorParam>
             <VectorParam id="2923"  name="geometryCrop">
              <InterpolatingParam id="2924" interp="linr"  time="-9999999/1" value="0" leadInLength="0/1"  />
              <InterpolatingParam id="2925" interp="linr"  time="-9999999/1" value="0" leadInLength="0/1"  />
              <InterpolatingParam id="2926" interp="linr"  time="-9999999/1" value="0" leadInLength="0/1"  />
              <InterpolatingParam id="2927" interp="linr"  time="-9999999/1" value="0" leadInLength="0/1"  />
             </VectorParam>
             <InterpolatingParam id="2928" interp="linr"  time="-9999999/1" value="1" leadInLength="0/1"  name="opacity"/>
             <InterpolatingParam id="2929" interp="linr"  time="0/1" value="0" leadInLength="0/1"  name="cursorOpacity"/>
             <InterpolatingParam id="2930" interp="linr"  time="0/1" value="0" leadInLength="0/1"  name="cursorScale"/>
            </Parameters>
            <Attributes>
             <Attribute id="2931" value="" name="ident"/>
            </Attributes>
            <MetaData>
             <entry key="AutoAppliedSmartFocus" val="False"/>
             <entry key="WinSubProjectDisplayName" val=""/>
            </MetaData>
            <ExtraData>
             <Entry key="ZoomPanBin">
              <ZoomPanBin id="2932"  >
               <ZoomPanKeyframes>
                <ZoomPanKeyframe id="2933" timeRangeEnd="-9999999/1" timeRangeDuration="0/1" interpolaterName=""  />
               </ZoomPanKeyframes>
              </ZoomPanBin>
             </Entry>
             <Entry key="CursorEffectBin">
              <CursorEffectBin id="2934"  >
               <CursorEffectKeyframes>
               </CursorEffectKeyframes>
              </CursorEffectBin>
             </Entry>
            </ExtraData>
           </ScreenVMFile>
          </Medias>
         </GenericTrack>
        </StitchedMedia>
       </Medias>
      </GenericTrack>
      <GenericTrack id="2935"  >
       <Attributes>
        <Attribute id="2936" value="" name="ident"/>
        <Attribute id="2937" value="0" name="audioMuted"/>
        <Attribute id="2938" value="0" name="videoHidden"/>
       </Attributes>
       <MetaData>
        <entry key="IsLocked" val="False"/>
        <entry key="WinTrackHeight" val="62"/>
       </MetaData>
       <Medias>
        <Group id="2939" start="0" duration="498" scalar="1" mediaStart="0" mediaDuration="498" baseWidthAttr="0" baseHeightAttr="0"  >
         <Parameters>
          <VectorParam id="2940"  name="sourceCrop">
           <InterpolatingParam id="2941" interp="linr"  time="0/1" value="0" leadInLength="0/1"  />
           <InterpolatingParam id="2942" interp="linr"  time="0/1" value="0" leadInLength="0/1"  />
           <InterpolatingParam id="2943" interp="linr"  time="0/1" value="0" leadInLength="0/1"  />
           <InterpolatingParam id="2944" interp="linr"  time="0/1" value="0" leadInLength="0/1"  />
          </VectorParam>
          <VectorParam id="2945"  name="geometryCrop">
           <InterpolatingParam id="2946" interp="linr"  time="-9999999/1" value="0" leadInLength="0/1"  interpolater="leadin-eioe"  />
           <InterpolatingParam id="2947" interp="linr"  time="-9999999/1" value="0" leadInLength="0/1"  interpolater="leadin-eioe"  />
           <InterpolatingParam id="2948" interp="linr"  time="-9999999/1" value="0" leadInLength="0/1"  interpolater="leadin-eioe"  />
           <InterpolatingParam id="2949" interp="linr"  time="-9999999/1" value="0" leadInLength="0/1"  interpolater="leadin-eioe"  />
          </VectorParam>
          <InterpolatingParam id="2950" interp="linr"  time="-9999999/1" value="1" leadInLength="0/1"  name="opacity"/>
          <Parameter id="2951"  name="captions"/>
          <InterpolatingParam id="2952" interp="linr"  time="0/1" value="1" leadInLength="0/1"  name="volume"/>
         </Parameters>
         <Transformer>
          <VectorParam id="2953"  name="translation">
           <InterpolatingParam id="2954" interp="linr"  time="-9999999/1" value="1.2001899474256561e-010" leadInLength="0/1"  />
           <InterpolatingParam id="2955" interp="linr"  time="-9999999/1" value="-5.4228621593210846e-011" leadInLength="0/1"  />
           <InterpolatingParam id="2956" interp="linr"  time="-9999999/1" value="0" leadInLength="0/1"  />
          </VectorParam>
          <VectorParam id="2957"  name="rotation">
           <InterpolatingParam id="2958" interp="linr"  time="-9999999/1" value="0" leadInLength="0/1"  />
           <InterpolatingParam id="2959" interp="linr"  time="-9999999/1" value="0" leadInLength="0/1"  />
           <InterpolatingParam id="2960" interp="linr"  time="-9999999/1" value="0" leadInLength="0/1"  />
          </VectorParam>
          <VectorParam id="2961"  name="shear">
           <InterpolatingParam id="2962" interp="linr"  time="-9999999/1" value="0" leadInLength="0/1"  />
           <InterpolatingParam id="2963" interp="linr"  time="-9999999/1" value="0" leadInLength="0/1"  />
           <InterpolatingParam id="2964" interp="linr"  time="-9999999/1" value="0" leadInLength="0/1"  />
          </VectorParam>
          <VectorParam id="2965"  name="scale">
           <InterpolatingParam id="2966" interp="linr"  time="-9999999/1" value="1" leadInLength="0/1"  />
           <InterpolatingParam id="2967" interp="linr"  time="-9999999/1" value="1" leadInLength="0/1"  />
           <InterpolatingParam id="2968" interp="linr"  time="-9999999/1" value="1" leadInLength="0/1"  />
          </VectorParam>
          <VectorParam id="2969"  name="anchor">
           <InterpolatingParam id="2970" interp="linr"  time="0/1" value="0.5" leadInLength="0/1"  />
           <InterpolatingParam id="2971" interp="linr"  time="0/1" value="0.5" leadInLength="0/1"  />
           <InterpolatingParam id="2972" interp="linr"  time="0/1" value="0" leadInLength="0/1"  />
          </VectorParam>
         </Transformer>
         <GenericMixer id="2973"  >
          <MetaData>
          </MetaData>
          <Tracks>
           <GenericTrack id="2974"  >
            <Attributes>
             <Attribute id="2975" value="" name="ident"/>
             <Attribute id="2976" value="0" name="audioMuted"/>
             <Attribute id="2977" value="0" name="videoHidden"/>
            </Attributes>
            <MetaData>
             <entry key="IsLocked" val="False"/>
             <entry key="WinTrackHeight" val="0"/>
            </MetaData>
            <Medias>
             <VMFile id="2978" start="0" duration="600" scalar="1/1" mediaStart="0/1" mediaDuration="600/1" trackNumber="0" src="22" >
              <Transformer>
               <VectorParam id="2979"  name="translation">
                <InterpolatingParam id="2980" interp="linr"  time="-9999999/1" value="0.50000000001430611" leadInLength="0/1"  />
                <InterpolatingParam id="2981" interp="linr"  time="-9999999/1" value="0.50000000010814438" leadInLength="0/1"  />
                <InterpolatingParam id="2982" interp="linr"  time="-9999999/1" value="3.4106051316488567e-010" leadInLength="0/1"  />
               </VectorParam>
               <VectorParam id="2983"  name="rotation">
                <InterpolatingParam id="2984" interp="linr"  time="-9999999/1" value="0" leadInLength="0/1"  />
                <InterpolatingParam id="2985" interp="linr"  time="-9999999/1" value="0" leadInLength="0/1"  />
                <InterpolatingParam id="2986" interp="linr"  time="-9999999/1" value="0" leadInLength="0/1"  />
               </VectorParam>
               <VectorParam id="2987"  name="shear">
                <InterpolatingParam id="2988" interp="linr"  time="-9999999/1" value="0" leadInLength="0/1"  />
                <InterpolatingParam id="2989" interp="linr"  time="-9999999/1" value="0" leadInLength="0/1"  />
                <InterpolatingParam id="2990" interp="linr"  time="-9999999/1" value="0" leadInLength="0/1"  />
               </VectorParam>
               <VectorParam id="2991"  name="scale">
                <InterpolatingParam id="2992" interp="linr"  time="-9999999/1" value="1.0968750000001026" leadInLength="0/1"  />
                <InterpolatingParam id="2993" interp="linr"  time="-9999999/1" value="1" leadInLength="0/1"  />
                <InterpolatingParam id="2994" interp="linr"  time="-9999999/1" value="1" leadInLength="0/1"  />
               </VectorParam>
               <VectorParam id="2995"  name="anchor">
                <InterpolatingParam id="2996" interp="linr"  time="0/1" value="0" leadInLength="0/1"  />
                <InterpolatingParam id="2997" interp="linr"  time="0/1" value="0" leadInLength="0/1"  />
                <InterpolatingParam id="2998" interp="linr"  time="0/1" value="0" leadInLength="0/1"  />
               </VectorParam>
              </Transformer>
              <Parameters>
               <VectorParam id="2999"  name="sourceCrop">
                <InterpolatingParam id="3000" interp="linr"  time="0/1" value="0" leadInLength="0/1"  />
                <InterpolatingParam id="3001" interp="linr"  time="0/1" value="0" leadInLength="0/1"  />
                <InterpolatingParam id="3002" interp="linr"  time="0/1" value="0" leadInLength="0/1"  />
                <InterpolatingParam id="3003" interp="linr"  time="0/1" value="0" leadInLength="0/1"  />
               </VectorParam>
               <VectorParam id="3004"  name="geometryCrop">
                <InterpolatingParam id="3005" interp="linr"  time="-9999999/1" value="0" leadInLength="0/1"  interpolater="leadin-eioe"  />
                <InterpolatingParam id="3006" interp="linr"  time="-9999999/1" value="0" leadInLength="0/1"  interpolater="leadin-eioe"  />
                <InterpolatingParam id="3007" interp="linr"  time="-9999999/1" value="0" leadInLength="0/1"  interpolater="leadin-eioe"  />
                <InterpolatingParam id="3008" interp="linr"  time="-9999999/1" value="0" leadInLength="0/1"  interpolater="leadin-eioe"  />
               </VectorParam>
               <InterpolatingParam id="3009" interp="linr"  time="-9999999/1" value="1" leadInLength="0/1"  name="opacity"/>
              </Parameters>
              <Attributes>
               <Attribute id="3010" value="" name="ident"/>
              </Attributes>
              <MetaData>
               <entry key="WinSubProjectDisplayName" val=""/>
              </MetaData>
              <ExtraData>
               <Entry key="ZoomPanBin">
                <ZoomPanBin id="3011"  >
                 <ZoomPanKeyframes>
                  <ZoomPanKeyframe id="3012" timeRangeEnd="-9999999/1" timeRangeDuration="0/1" interpolaterName="linr"  />
                 </ZoomPanKeyframes>
                </ZoomPanBin>
               </Entry>
              </ExtraData>
             </VMFile>
            </Medias>
           </GenericTrack>
           <GenericTrack id="3013"  >
            <Attributes>
             <Attribute id="3014" value="" name="ident"/>
             <Attribute id="3015" value="0" name="audioMuted"/>
             <Attribute id="3016" value="0" name="videoHidden"/>
            </Attributes>
            <MetaData>
             <entry key="IsLocked" val="False"/>
             <entry key="WinTrackHeight" val="0"/>
            </MetaData>
            <Medias>
             <UnifiedMedia id="3017"  >
              <AudioTransition id="3018" start="30" duration="30" >
               <Parameters>
                <InterpolatingParam id="3019" interp="linr"  time="0/1" value="1" leadInLength="0/1"  name="volume"/>
                <Parameter id="3020"  name="captions"/>
               </Parameters>
               <Effects>
                <GenericEffect id="3021" name = "AudioTransition" >
                 <Parameters>
                 <Parameter id="3022"   name="audioEdgeModType">
                  <Keyframes>
                  <Keyframe id="3023"  time="0/1" value="0" leadInLength="0/1"  />
                  </Keyframes>
                 </Parameter>
                 <Parameter id="3024"   name="audioTransitionType">
                  <Keyframes>
                  <Keyframe id="3025"  time="0/1" value="" leadInLength="0/1"  />
                  </Keyframes>
                 </Parameter>
                 </Parameters>
                 <MetaData>
                 </MetaData>
                </GenericEffect>
               </Effects>
               <Attributes>
                <Attribute id="3026" value="" name="ident"/>
                <Attribute id="3027" value="0" name="sampleRate"/>
                <Attribute id="3028" value="0" name="bitDepth"/>
                <Attribute id="3029" value="1" name="gain"/>
                <Attribute id="3030" value="0" name="mixToMono"/>
               </Attributes>
              </AudioTransition>
              <ImageTransition id="3031" start="30" duration="30" >
               <Transformer>
                <VectorParam id="3032"  name="translation">
                 <InterpolatingParam id="3033" interp="linr"  time="0/1" value="0" leadInLength="0/1"  />
                 <InterpolatingParam id="3034" interp="linr"  time="0/1" value="0" leadInLength="0/1"  />
                 <InterpolatingParam id="3035" interp="linr"  time="0/1" value="0" leadInLength="0/1"  />
                </VectorParam>
                <VectorParam id="3036"  name="rotation">
                 <InterpolatingParam id="3037" interp="linr"  time="0/1" value="0" leadInLength="0/1"  />
                 <InterpolatingParam id="3038" interp="linr"  time="0/1" value="0" leadInLength="0/1"  />
                 <InterpolatingParam id="3039" interp="linr"  time="0/1" value="0" leadInLength="0/1"  />
                </VectorParam>
                <VectorParam id="3040"  name="shear">
                 <InterpolatingParam id="3041" interp="linr"  time="0/1" value="0" leadInLength="0/1"  />
                 <InterpolatingParam id="3042" interp="linr"  time="0/1" value="0" leadInLength="0/1"  />
                 <InterpolatingParam id="3043" interp="linr"  time="0/1" value="0" leadInLength="0/1"  />
                </VectorParam>
                <VectorParam id="3044"  name="scale">
                 <InterpolatingParam id="3045" interp="linr"  time="0/1" value="1" leadInLength="0/1"  />
                 <InterpolatingParam id="3046" interp="linr"  time="0/1" value="1" leadInLength="0/1"  />
                 <InterpolatingParam id="3047" interp="linr"  time="0/1" value="1" leadInLength="0/1"  />
                </VectorParam>
                <VectorParam id="3048"  name="anchor">
                 <InterpolatingParam id="3049" interp="linr"  time="0/1" value="0" leadInLength="0/1"  />
                 <InterpolatingParam id="3050" interp="linr"  time="0/1" value="0" leadInLength="0/1"  />
                 <InterpolatingParam id="3051" interp="linr"  time="0/1" value="0" leadInLength="0/1"  />
                </VectorParam>
               </Transformer>
               <Parameters>
                <VectorParam id="3052"  name="sourceCrop">
                 <InterpolatingParam id="3053" interp="linr"  time="0/1" value="0" leadInLength="0/1"  />
                 <InterpolatingParam id="3054" interp="linr"  time="0/1" value="0" leadInLength="0/1"  />
                 <InterpolatingParam id="3055" interp="linr"  time="0/1" value="0" leadInLength="0/1"  />
                 <InterpolatingParam id="3056" interp="linr"  time="0/1" value="0" leadInLength="0/1"  />
                </VectorParam>
                <VectorParam id="3057"  name="geometryCrop">
                 <InterpolatingParam id="3058" interp="linr"  time="0/1" value="0" leadInLength="0/1"  />
                 <InterpolatingParam id="3059" interp="linr"  time="0/1" value="0" leadInLength="0/1"  />
                 <InterpolatingParam id="3060" interp="linr"  time="0/1" value="0" leadInLength="0/1"  />
                 <InterpolatingParam id="3061" interp="linr"  time="0/1" value="0" leadInLength="0/1"  />
                </VectorParam>
                <InterpolatingParam id="3062" interp="linr"  time="0/1" value="1" leadInLength="0/1"  name="opacity"/>
               </Parameters>
               <Effects>
                <GenericEffect id="3063" name = "VisualTransition" >
                 <Parameters>
                 <InterpolatingParam id="3064" interp="linr"  time="0/1" value="0.5" leadInLength="0/1"   name="leftFramePercentage"/>
                 <InterpolatingParam id="3065" interp="linr"  time="0/1" value="0.5" leadInLength="0/1"   name="rightFramePercentage"/>
                 <Parameter id="3066"   name="visualEdgeModType">
                  <Keyframes>
                  <Keyframe id="3067"  time="0/1" value="1" leadInLength="0/1"  />
                  </Keyframes>
                 </Parameter>
                 <Parameter id="3068"   name="visualTransitionType">
                  <Keyframes>
                  <Keyframe id="3069"  time="0/1" value="Fade" leadInLength="0/1"  />
                  </Keyframes>
                 </Parameter>
                 </Parameters>
                 <MetaData>
                 </MetaData>
                </GenericEffect>
               </Effects>
               <Attributes>
                <Attribute id="3070" value="" name="ident"/>
               </Attributes>
               <ExtraData>
                <Entry key="ZoomPanBin">
                 <ZoomPanBin id="3071"  >
                  <ZoomPanKeyframes>
                  </ZoomPanKeyframes>
                 </ZoomPanBin>
                </Entry>
               </ExtraData>
              </ImageTransition>
              <MetaData>
               <entry key="WinSubProjectDisplayName" val=""/>
              </MetaData>
             </UnifiedMedia>
             <Callout id="3072" start="60" duration="720" scalar="1/1" mediaStart="-90/1" mediaDuration="720/1" >
              <Transformer>
               <VectorParam id="3073"  name="translation">
                <InterpolatingParam id="3074" interp="linr"  time="-9999999/1" value="15.776892430798052" leadInLength="0/1"  />
                <InterpolatingParam id="3075" interp="linr"  time="-9999999/1" value="265.04183266966731" leadInLength="0/1"  />
                <InterpolatingParam id="3076" interp="linr"  time="-9999999/1" value="-3.4106051316482886e-010" leadInLength="0/1"  />
               </VectorParam>
               <VectorParam id="3077"  name="rotation">
                <InterpolatingParam id="3078" interp="linr"  time="-9999999/1" value="0" leadInLength="0/1"  />
                <InterpolatingParam id="3079" interp="linr"  time="-9999999/1" value="0" leadInLength="0/1"  />
                <InterpolatingParam id="3080" interp="linr"  time="-9999999/1" value="0" leadInLength="0/1"  />
               </VectorParam>
               <VectorParam id="3081"  name="shear">
                <InterpolatingParam id="3082" interp="linr"  time="-9999999/1" value="0" leadInLength="0/1"  />
                <InterpolatingParam id="3083" interp="linr"  time="-9999999/1" value="0" leadInLength="0/1"  />
                <InterpolatingParam id="3084" interp="linr"  time="-9999999/1" value="0" leadInLength="0/1"  />
               </VectorParam>
               <VectorParam id="3085"  name="scale">
                <InterpolatingParam id="3086" interp="linr"  time="-9999999/1" value="2.1959163346607737" leadInLength="0/1"  />
                <InterpolatingParam id="3087" interp="linr"  time="-9999999/1" value="0.48007968127316314" leadInLength="0/1"  />
                <InterpolatingParam id="3088" interp="linr"  time="-9999999/1" value="1" leadInLength="0/1"  />
               </VectorParam>
               <VectorParam id="3089"  name="anchor">
                <InterpolatingParam id="3090" interp="linr"  time="0/1" value="0" leadInLength="0/1"  />
                <InterpolatingParam id="3091" interp="linr"  time="0/1" value="0" leadInLength="0/1"  />
                <InterpolatingParam id="3092" interp="linr"  time="0/1" value="0" leadInLength="0/1"  />
               </VectorParam>
              </Transformer>
              <Parameters>
               <VectorParam id="3093"  name="sourceCrop">
                <InterpolatingParam id="3094" interp="linr"  time="0/1" value="0" leadInLength="0/1"  />
                <InterpolatingParam id="3095" interp="linr"  time="0/1" value="0" leadInLength="0/1"  />
                <InterpolatingParam id="3096" interp="linr"  time="0/1" value="0" leadInLength="0/1"  />
                <InterpolatingParam id="3097" interp="linr"  time="0/1" value="0" leadInLength="0/1"  />
               </VectorParam>
               <VectorParam id="3098"  name="geometryCrop">
                <InterpolatingParam id="3099" interp="linr"  time="-9999999/1" value="0" leadInLength="0/1"  interpolater="leadin-eioe"  />
                <InterpolatingParam id="3100" interp="linr"  time="-9999999/1" value="0" leadInLength="0/1"  interpolater="leadin-eioe"  />
                <InterpolatingParam id="3101" interp="linr"  time="-9999999/1" value="0" leadInLength="0/1"  interpolater="leadin-eioe"  />
                <InterpolatingParam id="3102" interp="linr"  time="-9999999/1" value="0" leadInLength="0/1"  interpolater="leadin-eioe"  />
               </VectorParam>
               <InterpolatingParam id="3103" interp="linr"  time="-9999999/1" value="1" leadInLength="0/1"  name="opacity"/>
              </Parameters>
              <Attributes>
               <Attribute id="3104"  name="vectorNode">
                <VectorNode id="3105" kind="TypeWinText"  >
                 <DoubleParameters>
                  <InterpolatingParam id="3106" interp="linr"  time="0/1" value="5" leadInLength="0/1"  name="Style"/>
                  <InterpolatingParam id="3107" interp="linr"  time="0/1" value="320" leadInLength="0/1"  name="height"/>
                  <InterpolatingParam id="3108" interp="linr"  time="0/1" value="0" leadInLength="0/1"  name="textDropShadow"/>
                  <InterpolatingParam id="3109" interp="linr"  time="0/1" value="0" leadInLength="0/1"  name="textIgnoresOpacity"/>
                  <InterpolatingParam id="3110" interp="linr"  time="0/1" value="1" leadInLength="0/1"  name="textRectHeight"/>
                  <InterpolatingParam id="3111" interp="linr"  time="0/1" value="1" leadInLength="0/1"  name="textRectWidth"/>
                  <InterpolatingParam id="3112" interp="linr"  time="0/1" value="0" leadInLength="0/1"  name="textRectX"/>
                  <InterpolatingParam id="3113" interp="linr"  time="0/1" value="0" leadInLength="0/1"  name="textRectY"/>
                  <InterpolatingParam id="3114" interp="linr"  time="0/1" value="0" leadInLength="0/1"  name="textVerticalAlign"/>
                  <InterpolatingParam id="3115" interp="linr"  time="0/1" value="480" leadInLength="0/1"  name="width"/>
                 </DoubleParameters>
                 <StringParameters>
                  <Parameter id="3116"  name="filename">
                   <Keyframes>
                   <Keyframe id="3117"  time="0/1" value="C:\Program Files (x86)\TechSmith\Camtasia Studio 8\Media\Studio\Callouts\trans_100x100.xml" leadInLength="0/1"  />
                   </Keyframes>
                  </Parameter>
                  <Parameter id="3118"  name="name">
                   <Keyframes>
                   <Keyframe id="3119"  time="0/1" value="Text Callout" leadInLength="0/1"  />
                   </Keyframes>
                  </Parameter>
                  <Parameter id="3120"  name="text">
                   <Keyframes>
                   <Keyframe id="3121"  time="0/1" value="{\rtf1\ansi\ansicpg1252\deff0\deflang1033{\fonttbl{\f0\fswiss\fprq2\fcharset0 Impact;}{\f1\fswiss\fprq2\fcharset0 Tahoma;}}&#xD;&#xa;{\colortbl ;\red218\green182\blue1;\red132\green146\blue155;}&#xD;&#xa;\viewkind4\uc1\pard\qc\cf1\f0\fs96 Complete Guide to Build IOT Things from Scratch to Market\cf2\b\f1\par&#xD;&#xa;}&#xD;&#xa;" leadInLength="0/1"  />
                   </Keyframes>
                  </Parameter>
                  <Parameter id="3122"  name="xmlContent">
                   <Keyframes>
                   <Keyframe id="3123"  time="0/1" value="﻿&lt;?xml version=&quot;1.0&quot;?&gt;&#xa;&#xa;&lt;Overlay version=&quot;1.0.1&quot;&gt;&#xa;&#xa;&lt;Overlay_Filename&gt;trans_100x100.png&lt;/Overlay_Filename&gt;&#xa;&lt;Overlay_Name&gt;Text Callout&lt;/Overlay_Name&gt;&#xa;&lt;Overlay_XGrow&gt;0&lt;/Overlay_XGrow&gt;&#xa;&lt;Overlay_YGrow&gt;0&lt;/Overlay_YGrow&gt;&#xa;&lt;Text_Top&gt;0&lt;/Text_Top&gt;&#xa;&lt;Text_Left&gt;0&lt;/Text_Left&gt;&#xa;&lt;Text_Bottom&gt;0&lt;/Text_Bottom&gt;&#xa;&lt;Text_Right&gt;0&lt;/Text_Right&gt;&#xa;&lt;Vector_Grow&gt;0&lt;/Vector_Grow&gt;&#xa;&lt;CanRotate_90&gt;0&lt;/CanRotate_90&gt;&#xa;&lt;CanRotate_180&gt;0&lt;/CanRotate_180&gt;&#xa;&lt;CanRotate_270&gt;0&lt;/CanRotate_270&gt;&#xa;&lt;CanFlip_X&gt;0&lt;/CanFlip_X&gt;&#xa;&lt;CanFlip_X90&gt;0&lt;/CanFlip_X90&gt;&#xa;&lt;CanFlip_X180&gt;0&lt;/CanFlip_X180&gt;&#xa;&lt;CanFlip_X270&gt;0&lt;/CanFlip_X270&gt;&#xa;&lt;Fill_Color&gt;0&lt;/Fill_Color&gt;&#xa;&lt;Border_Color&gt;0&lt;/Border_Color&gt;&#xa;&lt;Style&gt;5&lt;/Style&gt;&#xa;&lt;/Overlay&gt;" leadInLength="0/1"  />
                   </Keyframes>
                  </Parameter>
                 </StringParameters>
                </VectorNode>
               </Attribute>
              </Attributes>
              <MetaData>
               <entry key="WinSubProjectDisplayName" val=""/>
              </MetaData>
              <LeftEdgeMods length="0/1" groupName="OpacityFade">
               <EdgeMod parameter="3103">
                <FadeInFunc id="3124"  />
               </EdgeMod>
              </LeftEdgeMods>
              <RightEdgeMods length="0/1" groupName="OpacityFade">
               <EdgeMod parameter="3103">
                <FadeOutFunc id="3125"  />
               </EdgeMod>
              </RightEdgeMods>
              <ExtraData>
               <Entry key="ZoomPanBin">
                <ZoomPanBin id="3126"  >
                 <ZoomPanKeyframes>
                  <ZoomPanKeyframe id="3127" timeRangeEnd="-9999999/1" timeRangeDuration="0/1" interpolaterName="linr"  />
                 </ZoomPanKeyframes>
                </ZoomPanBin>
               </Entry>
              </ExtraData>
             </Callout>
             <UnifiedMedia id="3128"  >
              <AudioTransition id="3129" start="780" duration="30" >
               <Parameters>
                <InterpolatingParam id="3130" interp="linr"  time="0/1" value="1" leadInLength="0/1"  name="volume"/>
                <Parameter id="3131"  name="captions"/>
               </Parameters>
               <Effects>
                <GenericEffect id="3132" name = "AudioTransition" >
                 <Parameters>
                 <Parameter id="3133"   name="audioEdgeModType">
                  <Keyframes>
                  <Keyframe id="3134"  time="0/1" value="0" leadInLength="0/1"  />
                  </Keyframes>
                 </Parameter>
                 <Parameter id="3135"   name="audioTransitionType">
                  <Keyframes>
                  <Keyframe id="3136"  time="0/1" value="" leadInLength="0/1"  />
                  </Keyframes>
                 </Parameter>
                 </Parameters>
                 <MetaData>
                 </MetaData>
                </GenericEffect>
               </Effects>
               <Attributes>
                <Attribute id="3137" value="" name="ident"/>
                <Attribute id="3138" value="0" name="sampleRate"/>
                <Attribute id="3139" value="0" name="bitDepth"/>
                <Attribute id="3140" value="1" name="gain"/>
                <Attribute id="3141" value="0" name="mixToMono"/>
               </Attributes>
              </AudioTransition>
              <ImageTransition id="3142" start="780" duration="30" >
               <Transformer>
                <VectorParam id="3143"  name="translation">
                 <InterpolatingParam id="3144" interp="linr"  time="0/1" value="0" leadInLength="0/1"  />
                 <InterpolatingParam id="3145" interp="linr"  time="0/1" value="0" leadInLength="0/1"  />
                 <InterpolatingParam id="3146" interp="linr"  time="0/1" value="0" leadInLength="0/1"  />
                </VectorParam>
                <VectorParam id="3147"  name="rotation">
                 <InterpolatingParam id="3148" interp="linr"  time="0/1" value="0" leadInLength="0/1"  />
                 <InterpolatingParam id="3149" interp="linr"  time="0/1" value="0" leadInLength="0/1"  />
                 <InterpolatingParam id="3150" interp="linr"  time="0/1" value="0" leadInLength="0/1"  />
                </VectorParam>
                <VectorParam id="3151"  name="shear">
                 <InterpolatingParam id="3152" interp="linr"  time="0/1" value="0" leadInLength="0/1"  />
                 <InterpolatingParam id="3153" interp="linr"  time="0/1" value="0" leadInLength="0/1"  />
                 <InterpolatingParam id="3154" interp="linr"  time="0/1" value="0" leadInLength="0/1"  />
                </VectorParam>
                <VectorParam id="3155"  name="scale">
                 <InterpolatingParam id="3156" interp="linr"  time="0/1" value="1" leadInLength="0/1"  />
                 <InterpolatingParam id="3157" interp="linr"  time="0/1" value="1" leadInLength="0/1"  />
                 <InterpolatingParam id="3158" interp="linr"  time="0/1" value="1" leadInLength="0/1"  />
                </VectorParam>
                <VectorParam id="3159"  name="anchor">
                 <InterpolatingParam id="3160" interp="linr"  time="0/1" value="0" leadInLength="0/1"  />
                 <InterpolatingParam id="3161" interp="linr"  time="0/1" value="0" leadInLength="0/1"  />
                 <InterpolatingParam id="3162" interp="linr"  time="0/1" value="0" leadInLength="0/1"  />
                </VectorParam>
               </Transformer>
               <Parameters>
                <VectorParam id="3163"  name="sourceCrop">
                 <InterpolatingParam id="3164" interp="linr"  time="0/1" value="0" leadInLength="0/1"  />
                 <InterpolatingParam id="3165" interp="linr"  time="0/1" value="0" leadInLength="0/1"  />
                 <InterpolatingParam id="3166" interp="linr"  time="0/1" value="0" leadInLength="0/1"  />
                 <InterpolatingParam id="3167" interp="linr"  time="0/1" value="0" leadInLength="0/1"  />
                </VectorParam>
                <VectorParam id="3168"  name="geometryCrop">
                 <InterpolatingParam id="3169" interp="linr"  time="0/1" value="0" leadInLength="0/1"  />
                 <InterpolatingParam id="3170" interp="linr"  time="0/1" value="0" leadInLength="0/1"  />
                 <InterpolatingParam id="3171" interp="linr"  time="0/1" value="0" leadInLength="0/1"  />
                 <InterpolatingParam id="3172" interp="linr"  time="0/1" value="0" leadInLength="0/1"  />
                </VectorParam>
                <InterpolatingParam id="3173" interp="linr"  time="0/1" value="1" leadInLength="0/1"  name="opacity"/>
               </Parameters>
               <Effects>
                <GenericEffect id="3174" name = "VisualTransition" >
                 <Parameters>
                 <InterpolatingParam id="3175" interp="linr"  time="0/1" value="0.5" leadInLength="0/1"   name="leftFramePercentage"/>
                 <InterpolatingParam id="3176" interp="linr"  time="0/1" value="0.5" leadInLength="0/1"   name="rightFramePercentage"/>
                 <Parameter id="3177"   name="visualEdgeModType">
                  <Keyframes>
                  <Keyframe id="3178"  time="0/1" value="2" leadInLength="0/1"  />
                  </Keyframes>
                 </Parameter>
                 <Parameter id="3179"   name="visualTransitionType">
                  <Keyframes>
                  <Keyframe id="3180"  time="0/1" value="Fade" leadInLength="0/1"  />
                  </Keyframes>
                 </Parameter>
                 </Parameters>
                 <MetaData>
                 </MetaData>
                </GenericEffect>
               </Effects>
               <Attributes>
                <Attribute id="3181" value="" name="ident"/>
               </Attributes>
               <ExtraData>
                <Entry key="ZoomPanBin">
                 <ZoomPanBin id="3182"  >
                  <ZoomPanKeyframes>
                  </ZoomPanKeyframes>
                 </ZoomPanBin>
                </Entry>
               </ExtraData>
              </ImageTransition>
              <MetaData>
               <entry key="WinSubProjectDisplayName" val=""/>
              </MetaData>
             </UnifiedMedia>
            </Medias>
           </GenericTrack>
          </Tracks>
         </GenericMixer>
         <MetaData>
          <entry key="IsGroupExpanded" val="False"/>
          <entry key="WinGroupOrigin" val="Asset"/>
          <entry key="WinSubProjectDisplayName" val="Animated Title"/>
         </MetaData>
         <ExtraData>
          <Entry key="ZoomPanBin">
           <ZoomPanBin id="3183"  >
            <ZoomPanKeyframes>
             <ZoomPanKeyframe id="3184" timeRangeEnd="-9999999/1" timeRangeDuration="0/1" interpolaterName="linr"  />
            </ZoomPanKeyframes>
           </ZoomPanBin>
          </Entry>
         </ExtraData>
        </Group>
        <Group id="3185" start="498" duration="66" scalar="1" mediaStart="523" mediaDuration="66" baseWidthAttr="0" baseHeightAttr="0"  >
         <Parameters>
          <VectorParam id="3186"  name="sourceCrop">
           <InterpolatingParam id="3187" interp="linr"  time="0/1" value="0" leadInLength="0/1"  />
           <InterpolatingParam id="3188" interp="linr"  time="0/1" value="0" leadInLength="0/1"  />
           <InterpolatingParam id="3189" interp="linr"  time="0/1" value="0" leadInLength="0/1"  />
           <InterpolatingParam id="3190" interp="linr"  time="0/1" value="0" leadInLength="0/1"  />
          </VectorParam>
          <VectorParam id="3191"  name="geometryCrop">
           <InterpolatingParam id="3192" interp="linr"  time="-9999999/1" value="0" leadInLength="0/1"  interpolater="leadin-eioe"  />
           <InterpolatingParam id="3193" interp="linr"  time="-9999999/1" value="0" leadInLength="0/1"  interpolater="leadin-eioe"  />
           <InterpolatingParam id="3194" interp="linr"  time="-9999999/1" value="0" leadInLength="0/1"  interpolater="leadin-eioe"  />
           <InterpolatingParam id="3195" interp="linr"  time="-9999999/1" value="0" leadInLength="0/1"  interpolater="leadin-eioe"  />
          </VectorParam>
          <InterpolatingParam id="3196" interp="linr"  time="-9999999/1" value="1" leadInLength="0/1"  name="opacity"/>
          <Parameter id="3197"  name="captions"/>
          <InterpolatingParam id="3198" interp="linr"  time="0/1" value="1" leadInLength="0/1"  name="volume"/>
         </Parameters>
         <Transformer>
          <VectorParam id="3199"  name="translation">
           <InterpolatingParam id="3200" interp="linr"  time="-9999999/1" value="1.2001899474256561e-010" leadInLength="0/1"  />
           <InterpolatingParam id="3201" interp="linr"  time="-9999999/1" value="-5.4228621593210846e-011" leadInLength="0/1"  />
           <InterpolatingParam id="3202" interp="linr"  time="-9999999/1" value="0" leadInLength="0/1"  />
          </VectorParam>
          <VectorParam id="3203"  name="rotation">
           <InterpolatingParam id="3204" interp="linr"  time="-9999999/1" value="0" leadInLength="0/1"  />
           <InterpolatingParam id="3205" interp="linr"  time="-9999999/1" value="0" leadInLength="0/1"  />
           <InterpolatingParam id="3206" interp="linr"  time="-9999999/1" value="0" leadInLength="0/1"  />
          </VectorParam>
          <VectorParam id="3207"  name="shear">
           <InterpolatingParam id="3208" interp="linr"  time="-9999999/1" value="0" leadInLength="0/1"  />
           <InterpolatingParam id="3209" interp="linr"  time="-9999999/1" value="0" leadInLength="0/1"  />
           <InterpolatingParam id="3210" interp="linr"  time="-9999999/1" value="0" leadInLength="0/1"  />
          </VectorParam>
          <VectorParam id="3211"  name="scale">
           <InterpolatingParam id="3212" interp="linr"  time="-9999999/1" value="1" leadInLength="0/1"  />
           <InterpolatingParam id="3213" interp="linr"  time="-9999999/1" value="1" leadInLength="0/1"  />
           <InterpolatingParam id="3214" interp="linr"  time="-9999999/1" value="1" leadInLength="0/1"  />
          </VectorParam>
          <VectorParam id="3215"  name="anchor">
           <InterpolatingParam id="3216" interp="linr"  time="0/1" value="0.5" leadInLength="0/1"  />
           <InterpolatingParam id="3217" interp="linr"  time="0/1" value="0.5" leadInLength="0/1"  />
           <InterpolatingParam id="3218" interp="linr"  time="0/1" value="0" leadInLength="0/1"  />
          </VectorParam>
         </Transformer>
         <GenericMixer id="3219"  >
          <MetaData>
          </MetaData>
          <Tracks>
           <GenericTrack id="3220"  >
            <Attributes>
             <Attribute id="3221" value="" name="ident"/>
             <Attribute id="3222" value="0" name="audioMuted"/>
             <Attribute id="3223" value="0" name="videoHidden"/>
            </Attributes>
            <MetaData>
             <entry key="IsLocked" val="False"/>
             <entry key="WinTrackHeight" val="0"/>
            </MetaData>
            <Medias>
             <VMFile id="3224" start="0" duration="600" scalar="1/1" mediaStart="0/1" mediaDuration="600/1" trackNumber="0" src="22" >
              <Transformer>
               <VectorParam id="3225"  name="translation">
                <InterpolatingParam id="3226" interp="linr"  time="-9999999/1" value="0.50000000001430611" leadInLength="0/1"  />
                <InterpolatingParam id="3227" interp="linr"  time="-9999999/1" value="0.50000000010814438" leadInLength="0/1"  />
                <InterpolatingParam id="3228" interp="linr"  time="-9999999/1" value="3.4106051316488567e-010" leadInLength="0/1"  />
               </VectorParam>
               <VectorParam id="3229"  name="rotation">
                <InterpolatingParam id="3230" interp="linr"  time="-9999999/1" value="0" leadInLength="0/1"  />
                <InterpolatingParam id="3231" interp="linr"  time="-9999999/1" value="0" leadInLength="0/1"  />
                <InterpolatingParam id="3232" interp="linr"  time="-9999999/1" value="0" leadInLength="0/1"  />
               </VectorParam>
               <VectorParam id="3233"  name="shear">
                <InterpolatingParam id="3234" interp="linr"  time="-9999999/1" value="0" leadInLength="0/1"  />
                <InterpolatingParam id="3235" interp="linr"  time="-9999999/1" value="0" leadInLength="0/1"  />
                <InterpolatingParam id="3236" interp="linr"  time="-9999999/1" value="0" leadInLength="0/1"  />
               </VectorParam>
               <VectorParam id="3237"  name="scale">
                <InterpolatingParam id="3238" interp="linr"  time="-9999999/1" value="1.0968750000001026" leadInLength="0/1"  />
                <InterpolatingParam id="3239" interp="linr"  time="-9999999/1" value="1" leadInLength="0/1"  />
                <InterpolatingParam id="3240" interp="linr"  time="-9999999/1" value="1" leadInLength="0/1"  />
               </VectorParam>
               <VectorParam id="3241"  name="anchor">
                <InterpolatingParam id="3242" interp="linr"  time="0/1" value="0" leadInLength="0/1"  />
                <InterpolatingParam id="3243" interp="linr"  time="0/1" value="0" leadInLength="0/1"  />
                <InterpolatingParam id="3244" interp="linr"  time="0/1" value="0" leadInLength="0/1"  />
               </VectorParam>
              </Transformer>
              <Parameters>
               <VectorParam id="3245"  name="sourceCrop">
                <InterpolatingParam id="3246" interp="linr"  time="0/1" value="0" leadInLength="0/1"  />
                <InterpolatingParam id="3247" interp="linr"  time="0/1" value="0" leadInLength="0/1"  />
                <InterpolatingParam id="3248" interp="linr"  time="0/1" value="0" leadInLength="0/1"  />
                <InterpolatingParam id="3249" interp="linr"  time="0/1" value="0" leadInLength="0/1"  />
               </VectorParam>
               <VectorParam id="3250"  name="geometryCrop">
                <InterpolatingParam id="3251" interp="linr"  time="-9999999/1" value="0" leadInLength="0/1"  interpolater="leadin-eioe"  />
                <InterpolatingParam id="3252" interp="linr"  time="-9999999/1" value="0" leadInLength="0/1"  interpolater="leadin-eioe"  />
                <InterpolatingParam id="3253" interp="linr"  time="-9999999/1" value="0" leadInLength="0/1"  interpolater="leadin-eioe"  />
                <InterpolatingParam id="3254" interp="linr"  time="-9999999/1" value="0" leadInLength="0/1"  interpolater="leadin-eioe"  />
               </VectorParam>
               <InterpolatingParam id="3255" interp="linr"  time="-9999999/1" value="1" leadInLength="0/1"  name="opacity"/>
              </Parameters>
              <Attributes>
               <Attribute id="3256" value="" name="ident"/>
              </Attributes>
              <MetaData>
               <entry key="WinSubProjectDisplayName" val=""/>
              </MetaData>
              <ExtraData>
               <Entry key="ZoomPanBin">
                <ZoomPanBin id="3257"  >
                 <ZoomPanKeyframes>
                  <ZoomPanKeyframe id="3258" timeRangeEnd="-9999999/1" timeRangeDuration="0/1" interpolaterName="linr"  />
                 </ZoomPanKeyframes>
                </ZoomPanBin>
               </Entry>
              </ExtraData>
             </VMFile>
            </Medias>
           </GenericTrack>
           <GenericTrack id="3259"  >
            <Attributes>
             <Attribute id="3260" value="" name="ident"/>
             <Attribute id="3261" value="0" name="audioMuted"/>
             <Attribute id="3262" value="0" name="videoHidden"/>
            </Attributes>
            <MetaData>
             <entry key="IsLocked" val="False"/>
             <entry key="WinTrackHeight" val="0"/>
            </MetaData>
            <Medias>
             <UnifiedMedia id="3263"  >
              <AudioTransition id="3264" start="30" duration="30" >
               <Parameters>
                <InterpolatingParam id="3265" interp="linr"  time="0/1" value="1" leadInLength="0/1"  name="volume"/>
                <Parameter id="3266"  name="captions"/>
               </Parameters>
               <Effects>
                <GenericEffect id="3267" name = "AudioTransition" >
                 <Parameters>
                 <Parameter id="3268"   name="audioEdgeModType">
                  <Keyframes>
                  <Keyframe id="3269"  time="0/1" value="0" leadInLength="0/1"  />
                  </Keyframes>
                 </Parameter>
                 <Parameter id="3270"   name="audioTransitionType">
                  <Keyframes>
                  <Keyframe id="3271"  time="0/1" value="" leadInLength="0/1"  />
                  </Keyframes>
                 </Parameter>
                 </Parameters>
                 <MetaData>
                 </MetaData>
                </GenericEffect>
               </Effects>
               <Attributes>
                <Attribute id="3272" value="" name="ident"/>
                <Attribute id="3273" value="0" name="sampleRate"/>
                <Attribute id="3274" value="0" name="bitDepth"/>
                <Attribute id="3275" value="1" name="gain"/>
                <Attribute id="3276" value="0" name="mixToMono"/>
               </Attributes>
              </AudioTransition>
              <ImageTransition id="3277" start="30" duration="30" >
               <Transformer>
                <VectorParam id="3278"  name="translation">
                 <InterpolatingParam id="3279" interp="linr"  time="0/1" value="0" leadInLength="0/1"  />
                 <InterpolatingParam id="3280" interp="linr"  time="0/1" value="0" leadInLength="0/1"  />
                 <InterpolatingParam id="3281" interp="linr"  time="0/1" value="0" leadInLength="0/1"  />
                </VectorParam>
                <VectorParam id="3282"  name="rotation">
                 <InterpolatingParam id="3283" interp="linr"  time="0/1" value="0" leadInLength="0/1"  />
                 <InterpolatingParam id="3284" interp="linr"  time="0/1" value="0" leadInLength="0/1"  />
                 <InterpolatingParam id="3285" interp="linr"  time="0/1" value="0" leadInLength="0/1"  />
                </VectorParam>
                <VectorParam id="3286"  name="shear">
                 <InterpolatingParam id="3287" interp="linr"  time="0/1" value="0" leadInLength="0/1"  />
                 <InterpolatingParam id="3288" interp="linr"  time="0/1" value="0" leadInLength="0/1"  />
                 <InterpolatingParam id="3289" interp="linr"  time="0/1" value="0" leadInLength="0/1"  />
                </VectorParam>
                <VectorParam id="3290"  name="scale">
                 <InterpolatingParam id="3291" interp="linr"  time="0/1" value="1" leadInLength="0/1"  />
                 <InterpolatingParam id="3292" interp="linr"  time="0/1" value="1" leadInLength="0/1"  />
                 <InterpolatingParam id="3293" interp="linr"  time="0/1" value="1" leadInLength="0/1"  />
                </VectorParam>
                <VectorParam id="3294"  name="anchor">
                 <InterpolatingParam id="3295" interp="linr"  time="0/1" value="0" leadInLength="0/1"  />
                 <InterpolatingParam id="3296" interp="linr"  time="0/1" value="0" leadInLength="0/1"  />
                 <InterpolatingParam id="3297" interp="linr"  time="0/1" value="0" leadInLength="0/1"  />
                </VectorParam>
               </Transformer>
               <Parameters>
                <VectorParam id="3298"  name="sourceCrop">
                 <InterpolatingParam id="3299" interp="linr"  time="0/1" value="0" leadInLength="0/1"  />
                 <InterpolatingParam id="3300" interp="linr"  time="0/1" value="0" leadInLength="0/1"  />
                 <InterpolatingParam id="3301" interp="linr"  time="0/1" value="0" leadInLength="0/1"  />
                 <InterpolatingParam id="3302" interp="linr"  time="0/1" value="0" leadInLength="0/1"  />
                </VectorParam>
                <VectorParam id="3303"  name="geometryCrop">
                 <InterpolatingParam id="3304" interp="linr"  time="0/1" value="0" leadInLength="0/1"  />
                 <InterpolatingParam id="3305" interp="linr"  time="0/1" value="0" leadInLength="0/1"  />
                 <InterpolatingParam id="3306" interp="linr"  time="0/1" value="0" leadInLength="0/1"  />
                 <InterpolatingParam id="3307" interp="linr"  time="0/1" value="0" leadInLength="0/1"  />
                </VectorParam>
                <InterpolatingParam id="3308" interp="linr"  time="0/1" value="1" leadInLength="0/1"  name="opacity"/>
               </Parameters>
               <Effects>
                <GenericEffect id="3309" name = "VisualTransition" >
                 <Parameters>
                 <InterpolatingParam id="3310" interp="linr"  time="0/1" value="0.5" leadInLength="0/1"   name="leftFramePercentage"/>
                 <InterpolatingParam id="3311" interp="linr"  time="0/1" value="0.5" leadInLength="0/1"   name="rightFramePercentage"/>
                 <Parameter id="3312"   name="visualEdgeModType">
                  <Keyframes>
                  <Keyframe id="3313"  time="0/1" value="1" leadInLength="0/1"  />
                  </Keyframes>
                 </Parameter>
                 <Parameter id="3314"   name="visualTransitionType">
                  <Keyframes>
                  <Keyframe id="3315"  time="0/1" value="Fade" leadInLength="0/1"  />
                  </Keyframes>
                 </Parameter>
                 </Parameters>
                 <MetaData>
                 </MetaData>
                </GenericEffect>
               </Effects>
               <Attributes>
                <Attribute id="3316" value="" name="ident"/>
               </Attributes>
               <ExtraData>
                <Entry key="ZoomPanBin">
                 <ZoomPanBin id="3317"  >
                  <ZoomPanKeyframes>
                  </ZoomPanKeyframes>
                 </ZoomPanBin>
                </Entry>
               </ExtraData>
              </ImageTransition>
              <MetaData>
               <entry key="WinSubProjectDisplayName" val=""/>
              </MetaData>
             </UnifiedMedia>
             <Callout id="3318" start="60" duration="720" scalar="1/1" mediaStart="-90/1" mediaDuration="720/1" >
              <Transformer>
               <VectorParam id="3319"  name="translation">
                <InterpolatingParam id="3320" interp="linr"  time="-9999999/1" value="15.776892430798052" leadInLength="0/1"  />
                <InterpolatingParam id="3321" interp="linr"  time="-9999999/1" value="265.04183266966731" leadInLength="0/1"  />
                <InterpolatingParam id="3322" interp="linr"  time="-9999999/1" value="-3.4106051316482886e-010" leadInLength="0/1"  />
               </VectorParam>
               <VectorParam id="3323"  name="rotation">
                <InterpolatingParam id="3324" interp="linr"  time="-9999999/1" value="0" leadInLength="0/1"  />
                <InterpolatingParam id="3325" interp="linr"  time="-9999999/1" value="0" leadInLength="0/1"  />
                <InterpolatingParam id="3326" interp="linr"  time="-9999999/1" value="0" leadInLength="0/1"  />
               </VectorParam>
               <VectorParam id="3327"  name="shear">
                <InterpolatingParam id="3328" interp="linr"  time="-9999999/1" value="0" leadInLength="0/1"  />
                <InterpolatingParam id="3329" interp="linr"  time="-9999999/1" value="0" leadInLength="0/1"  />
                <InterpolatingParam id="3330" interp="linr"  time="-9999999/1" value="0" leadInLength="0/1"  />
               </VectorParam>
               <VectorParam id="3331"  name="scale">
                <InterpolatingParam id="3332" interp="linr"  time="-9999999/1" value="2.1959163346607737" leadInLength="0/1"  />
                <InterpolatingParam id="3333" interp="linr"  time="-9999999/1" value="0.48007968127316314" leadInLength="0/1"  />
                <InterpolatingParam id="3334" interp="linr"  time="-9999999/1" value="1" leadInLength="0/1"  />
               </VectorParam>
               <VectorParam id="3335"  name="anchor">
                <InterpolatingParam id="3336" interp="linr"  time="0/1" value="0" leadInLength="0/1"  />
                <InterpolatingParam id="3337" interp="linr"  time="0/1" value="0" leadInLength="0/1"  />
                <InterpolatingParam id="3338" interp="linr"  time="0/1" value="0" leadInLength="0/1"  />
               </VectorParam>
              </Transformer>
              <Parameters>
               <VectorParam id="3339"  name="sourceCrop">
                <InterpolatingParam id="3340" interp="linr"  time="0/1" value="0" leadInLength="0/1"  />
                <InterpolatingParam id="3341" interp="linr"  time="0/1" value="0" leadInLength="0/1"  />
                <InterpolatingParam id="3342" interp="linr"  time="0/1" value="0" leadInLength="0/1"  />
                <InterpolatingParam id="3343" interp="linr"  time="0/1" value="0" leadInLength="0/1"  />
               </VectorParam>
               <VectorParam id="3344"  name="geometryCrop">
                <InterpolatingParam id="3345" interp="linr"  time="-9999999/1" value="0" leadInLength="0/1"  interpolater="leadin-eioe"  />
                <InterpolatingParam id="3346" interp="linr"  time="-9999999/1" value="0" leadInLength="0/1"  interpolater="leadin-eioe"  />
                <InterpolatingParam id="3347" interp="linr"  time="-9999999/1" value="0" leadInLength="0/1"  interpolater="leadin-eioe"  />
                <InterpolatingParam id="3348" interp="linr"  time="-9999999/1" value="0" leadInLength="0/1"  interpolater="leadin-eioe"  />
               </VectorParam>
               <InterpolatingParam id="3349" interp="linr"  time="-9999999/1" value="1" leadInLength="0/1"  name="opacity"/>
              </Parameters>
              <Attributes>
               <Attribute id="3350"  name="vectorNode">
                <VectorNode id="3351" kind="TypeWinText"  >
                 <DoubleParameters>
                  <InterpolatingParam id="3352" interp="linr"  time="0/1" value="5" leadInLength="0/1"  name="Style"/>
                  <InterpolatingParam id="3353" interp="linr"  time="0/1" value="320" leadInLength="0/1"  name="height"/>
                  <InterpolatingParam id="3354" interp="linr"  time="0/1" value="0" leadInLength="0/1"  name="textDropShadow"/>
                  <InterpolatingParam id="3355" interp="linr"  time="0/1" value="0" leadInLength="0/1"  name="textIgnoresOpacity"/>
                  <InterpolatingParam id="3356" interp="linr"  time="0/1" value="1" leadInLength="0/1"  name="textRectHeight"/>
                  <InterpolatingParam id="3357" interp="linr"  time="0/1" value="1" leadInLength="0/1"  name="textRectWidth"/>
                  <InterpolatingParam id="3358" interp="linr"  time="0/1" value="0" leadInLength="0/1"  name="textRectX"/>
                  <InterpolatingParam id="3359" interp="linr"  time="0/1" value="0" leadInLength="0/1"  name="textRectY"/>
                  <InterpolatingParam id="3360" interp="linr"  time="0/1" value="0" leadInLength="0/1"  name="textVerticalAlign"/>
                  <InterpolatingParam id="3361" interp="linr"  time="0/1" value="480" leadInLength="0/1"  name="width"/>
                 </DoubleParameters>
                 <StringParameters>
                  <Parameter id="3362"  name="filename">
                   <Keyframes>
                   <Keyframe id="3363"  time="0/1" value="C:\Program Files (x86)\TechSmith\Camtasia Studio 8\Media\Studio\Callouts\trans_100x100.xml" leadInLength="0/1"  />
                   </Keyframes>
                  </Parameter>
                  <Parameter id="3364"  name="name">
                   <Keyframes>
                   <Keyframe id="3365"  time="0/1" value="Text Callout" leadInLength="0/1"  />
                   </Keyframes>
                  </Parameter>
                  <Parameter id="3366"  name="text">
                   <Keyframes>
                   <Keyframe id="3367"  time="0/1" value="{\rtf1\ansi\ansicpg1252\deff0\deflang1033{\fonttbl{\f0\fswiss\fprq2\fcharset0 Impact;}{\f1\fswiss\fprq2\fcharset0 Tahoma;}}&#xD;&#xa;{\colortbl ;\red218\green182\blue1;\red132\green146\blue155;}&#xD;&#xa;\viewkind4\uc1\pard\qc\cf1\f0\fs96 Complete Guide to Build IOT Things from Scratch to Market\cf2\b\f1\par&#xD;&#xa;}&#xD;&#xa;" leadInLength="0/1"  />
                   </Keyframes>
                  </Parameter>
                  <Parameter id="3368"  name="xmlContent">
                   <Keyframes>
                   <Keyframe id="3369"  time="0/1" value="﻿&lt;?xml version=&quot;1.0&quot;?&gt;&#xa;&#xa;&lt;Overlay version=&quot;1.0.1&quot;&gt;&#xa;&#xa;&lt;Overlay_Filename&gt;trans_100x100.png&lt;/Overlay_Filename&gt;&#xa;&lt;Overlay_Name&gt;Text Callout&lt;/Overlay_Name&gt;&#xa;&lt;Overlay_XGrow&gt;0&lt;/Overlay_XGrow&gt;&#xa;&lt;Overlay_YGrow&gt;0&lt;/Overlay_YGrow&gt;&#xa;&lt;Text_Top&gt;0&lt;/Text_Top&gt;&#xa;&lt;Text_Left&gt;0&lt;/Text_Left&gt;&#xa;&lt;Text_Bottom&gt;0&lt;/Text_Bottom&gt;&#xa;&lt;Text_Right&gt;0&lt;/Text_Right&gt;&#xa;&lt;Vector_Grow&gt;0&lt;/Vector_Grow&gt;&#xa;&lt;CanRotate_90&gt;0&lt;/CanRotate_90&gt;&#xa;&lt;CanRotate_180&gt;0&lt;/CanRotate_180&gt;&#xa;&lt;CanRotate_270&gt;0&lt;/CanRotate_270&gt;&#xa;&lt;CanFlip_X&gt;0&lt;/CanFlip_X&gt;&#xa;&lt;CanFlip_X90&gt;0&lt;/CanFlip_X90&gt;&#xa;&lt;CanFlip_X180&gt;0&lt;/CanFlip_X180&gt;&#xa;&lt;CanFlip_X270&gt;0&lt;/CanFlip_X270&gt;&#xa;&lt;Fill_Color&gt;0&lt;/Fill_Color&gt;&#xa;&lt;Border_Color&gt;0&lt;/Border_Color&gt;&#xa;&lt;Style&gt;5&lt;/Style&gt;&#xa;&lt;/Overlay&gt;" leadInLength="0/1"  />
                   </Keyframes>
                  </Parameter>
                 </StringParameters>
                </VectorNode>
               </Attribute>
              </Attributes>
              <MetaData>
               <entry key="WinSubProjectDisplayName" val=""/>
              </MetaData>
              <LeftEdgeMods length="0/1" groupName="OpacityFade">
               <EdgeMod parameter="3349">
                <FadeInFunc id="3124"  />
               </EdgeMod>
              </LeftEdgeMods>
              <RightEdgeMods length="0/1" groupName="OpacityFade">
               <EdgeMod parameter="3349">
                <FadeOutFunc id="3370"  />
               </EdgeMod>
              </RightEdgeMods>
              <ExtraData>
               <Entry key="ZoomPanBin">
                <ZoomPanBin id="3371"  >
                 <ZoomPanKeyframes>
                  <ZoomPanKeyframe id="3372" timeRangeEnd="-9999999/1" timeRangeDuration="0/1" interpolaterName="linr"  />
                 </ZoomPanKeyframes>
                </ZoomPanBin>
               </Entry>
              </ExtraData>
             </Callout>
             <UnifiedMedia id="3373"  >
              <AudioTransition id="3374" start="780" duration="30" >
               <Parameters>
                <InterpolatingParam id="3375" interp="linr"  time="0/1" value="1" leadInLength="0/1"  name="volume"/>
                <Parameter id="3376"  name="captions"/>
               </Parameters>
               <Effects>
                <GenericEffect id="3377" name = "AudioTransition" >
                 <Parameters>
                 <Parameter id="3378"   name="audioEdgeModType">
                  <Keyframes>
                  <Keyframe id="3379"  time="0/1" value="0" leadInLength="0/1"  />
                  </Keyframes>
                 </Parameter>
                 <Parameter id="3380"   name="audioTransitionType">
                  <Keyframes>
                  <Keyframe id="3381"  time="0/1" value="" leadInLength="0/1"  />
                  </Keyframes>
                 </Parameter>
                 </Parameters>
                 <MetaData>
                 </MetaData>
                </GenericEffect>
               </Effects>
               <Attributes>
                <Attribute id="3382" value="" name="ident"/>
                <Attribute id="3383" value="0" name="sampleRate"/>
                <Attribute id="3384" value="0" name="bitDepth"/>
                <Attribute id="3385" value="1" name="gain"/>
                <Attribute id="3386" value="0" name="mixToMono"/>
               </Attributes>
              </AudioTransition>
              <ImageTransition id="3387" start="780" duration="30" >
               <Transformer>
                <VectorParam id="3388"  name="translation">
                 <InterpolatingParam id="3389" interp="linr"  time="0/1" value="0" leadInLength="0/1"  />
                 <InterpolatingParam id="3390" interp="linr"  time="0/1" value="0" leadInLength="0/1"  />
                 <InterpolatingParam id="3391" interp="linr"  time="0/1" value="0" leadInLength="0/1"  />
                </VectorParam>
                <VectorParam id="3392"  name="rotation">
                 <InterpolatingParam id="3393" interp="linr"  time="0/1" value="0" leadInLength="0/1"  />
                 <InterpolatingParam id="3394" interp="linr"  time="0/1" value="0" leadInLength="0/1"  />
                 <InterpolatingParam id="3395" interp="linr"  time="0/1" value="0" leadInLength="0/1"  />
                </VectorParam>
                <VectorParam id="3396"  name="shear">
                 <InterpolatingParam id="3397" interp="linr"  time="0/1" value="0" leadInLength="0/1"  />
                 <InterpolatingParam id="3398" interp="linr"  time="0/1" value="0" leadInLength="0/1"  />
                 <InterpolatingParam id="3399" interp="linr"  time="0/1" value="0" leadInLength="0/1"  />
                </VectorParam>
                <VectorParam id="3400"  name="scale">
                 <InterpolatingParam id="3401" interp="linr"  time="0/1" value="1" leadInLength="0/1"  />
                 <InterpolatingParam id="3402" interp="linr"  time="0/1" value="1" leadInLength="0/1"  />
                 <InterpolatingParam id="3403" interp="linr"  time="0/1" value="1" leadInLength="0/1"  />
                </VectorParam>
                <VectorParam id="3404"  name="anchor">
                 <InterpolatingParam id="3405" interp="linr"  time="0/1" value="0" leadInLength="0/1"  />
                 <InterpolatingParam id="3406" interp="linr"  time="0/1" value="0" leadInLength="0/1"  />
                 <InterpolatingParam id="3407" interp="linr"  time="0/1" value="0" leadInLength="0/1"  />
                </VectorParam>
               </Transformer>
               <Parameters>
                <VectorParam id="3408"  name="sourceCrop">
                 <InterpolatingParam id="3409" interp="linr"  time="0/1" value="0" leadInLength="0/1"  />
                 <InterpolatingParam id="3410" interp="linr"  time="0/1" value="0" leadInLength="0/1"  />
                 <InterpolatingParam id="3411" interp="linr"  time="0/1" value="0" leadInLength="0/1"  />
                 <InterpolatingParam id="3412" interp="linr"  time="0/1" value="0" leadInLength="0/1"  />
                </VectorParam>
                <VectorParam id="3413"  name="geometryCrop">
                 <InterpolatingParam id="3414" interp="linr"  time="0/1" value="0" leadInLength="0/1"  />
                 <InterpolatingParam id="3415" interp="linr"  time="0/1" value="0" leadInLength="0/1"  />
                 <InterpolatingParam id="3416" interp="linr"  time="0/1" value="0" leadInLength="0/1"  />
                 <InterpolatingParam id="3417" interp="linr"  time="0/1" value="0" leadInLength="0/1"  />
                </VectorParam>
                <InterpolatingParam id="3418" interp="linr"  time="0/1" value="1" leadInLength="0/1"  name="opacity"/>
               </Parameters>
               <Effects>
                <GenericEffect id="3419" name = "VisualTransition" >
                 <Parameters>
                 <InterpolatingParam id="3420" interp="linr"  time="0/1" value="0.5" leadInLength="0/1"   name="leftFramePercentage"/>
                 <InterpolatingParam id="3421" interp="linr"  time="0/1" value="0.5" leadInLength="0/1"   name="rightFramePercentage"/>
                 <Parameter id="3422"   name="visualEdgeModType">
                  <Keyframes>
                  <Keyframe id="3423"  time="0/1" value="2" leadInLength="0/1"  />
                  </Keyframes>
                 </Parameter>
                 <Parameter id="3424"   name="visualTransitionType">
                  <Keyframes>
                  <Keyframe id="3425"  time="0/1" value="Fade" leadInLength="0/1"  />
                  </Keyframes>
                 </Parameter>
                 </Parameters>
                 <MetaData>
                 </MetaData>
                </GenericEffect>
               </Effects>
               <Attributes>
                <Attribute id="3426" value="" name="ident"/>
               </Attributes>
               <ExtraData>
                <Entry key="ZoomPanBin">
                 <ZoomPanBin id="3427"  >
                  <ZoomPanKeyframes>
                  </ZoomPanKeyframes>
                 </ZoomPanBin>
                </Entry>
               </ExtraData>
              </ImageTransition>
              <MetaData>
               <entry key="WinSubProjectDisplayName" val=""/>
              </MetaData>
             </UnifiedMedia>
            </Medias>
           </GenericTrack>
          </Tracks>
         </GenericMixer>
         <MetaData>
          <entry key="IsGroupExpanded" val="False"/>
          <entry key="WinGroupOrigin" val="Asset"/>
          <entry key="WinSubProjectDisplayName" val="Animated Title"/>
         </MetaData>
         <ExtraData>
          <Entry key="ZoomPanBin">
           <ZoomPanBin id="3428"  >
            <ZoomPanKeyframes>
             <ZoomPanKeyframe id="3429" timeRangeEnd="-9999999/1" timeRangeDuration="0/1" interpolaterName="linr"  />
            </ZoomPanKeyframes>
           </ZoomPanBin>
          </Entry>
         </ExtraData>
        </Group>
        <Group id="3430" start="564" duration="80" scalar="1" mediaStart="602" mediaDuration="80" baseWidthAttr="0" baseHeightAttr="0"  >
         <Parameters>
          <VectorParam id="3431"  name="sourceCrop">
           <InterpolatingParam id="3432" interp="linr"  time="0/1" value="0" leadInLength="0/1"  />
           <InterpolatingParam id="3433" interp="linr"  time="0/1" value="0" leadInLength="0/1"  />
           <InterpolatingParam id="3434" interp="linr"  time="0/1" value="0" leadInLength="0/1"  />
           <InterpolatingParam id="3435" interp="linr"  time="0/1" value="0" leadInLength="0/1"  />
          </VectorParam>
          <VectorParam id="3436"  name="geometryCrop">
           <InterpolatingParam id="3437" interp="linr"  time="-9999999/1" value="0" leadInLength="0/1"  interpolater="leadin-eioe"  />
           <InterpolatingParam id="3438" interp="linr"  time="-9999999/1" value="0" leadInLength="0/1"  interpolater="leadin-eioe"  />
           <InterpolatingParam id="3439" interp="linr"  time="-9999999/1" value="0" leadInLength="0/1"  interpolater="leadin-eioe"  />
           <InterpolatingParam id="3440" interp="linr"  time="-9999999/1" value="0" leadInLength="0/1"  interpolater="leadin-eioe"  />
          </VectorParam>
          <InterpolatingParam id="3441" interp="linr"  time="-9999999/1" value="1" leadInLength="0/1"  name="opacity"/>
          <Parameter id="3442"  name="captions"/>
          <InterpolatingParam id="3443" interp="linr"  time="0/1" value="1" leadInLength="0/1"  name="volume"/>
         </Parameters>
         <Transformer>
          <VectorParam id="3444"  name="translation">
           <InterpolatingParam id="3445" interp="linr"  time="-9999999/1" value="1.2001899474256561e-010" leadInLength="0/1"  />
           <InterpolatingParam id="3446" interp="linr"  time="-9999999/1" value="-5.4228621593210846e-011" leadInLength="0/1"  />
           <InterpolatingParam id="3447" interp="linr"  time="-9999999/1" value="0" leadInLength="0/1"  />
          </VectorParam>
          <VectorParam id="3448"  name="rotation">
           <InterpolatingParam id="3449" interp="linr"  time="-9999999/1" value="0" leadInLength="0/1"  />
           <InterpolatingParam id="3450" interp="linr"  time="-9999999/1" value="0" leadInLength="0/1"  />
           <InterpolatingParam id="3451" interp="linr"  time="-9999999/1" value="0" leadInLength="0/1"  />
          </VectorParam>
          <VectorParam id="3452"  name="shear">
           <InterpolatingParam id="3453" interp="linr"  time="-9999999/1" value="0" leadInLength="0/1"  />
           <InterpolatingParam id="3454" interp="linr"  time="-9999999/1" value="0" leadInLength="0/1"  />
           <InterpolatingParam id="3455" interp="linr"  time="-9999999/1" value="0" leadInLength="0/1"  />
          </VectorParam>
          <VectorParam id="3456"  name="scale">
           <InterpolatingParam id="3457" interp="linr"  time="-9999999/1" value="1" leadInLength="0/1"  />
           <InterpolatingParam id="3458" interp="linr"  time="-9999999/1" value="1" leadInLength="0/1"  />
           <InterpolatingParam id="3459" interp="linr"  time="-9999999/1" value="1" leadInLength="0/1"  />
          </VectorParam>
          <VectorParam id="3460"  name="anchor">
           <InterpolatingParam id="3461" interp="linr"  time="0/1" value="0.5" leadInLength="0/1"  />
           <InterpolatingParam id="3462" interp="linr"  time="0/1" value="0.5" leadInLength="0/1"  />
           <InterpolatingParam id="3463" interp="linr"  time="0/1" value="0" leadInLength="0/1"  />
          </VectorParam>
         </Transformer>
         <GenericMixer id="3464"  >
          <MetaData>
          </MetaData>
          <Tracks>
           <GenericTrack id="3465"  >
            <Attributes>
             <Attribute id="3466" value="" name="ident"/>
             <Attribute id="3467" value="0" name="audioMuted"/>
             <Attribute id="3468" value="0" name="videoHidden"/>
            </Attributes>
            <MetaData>
             <entry key="IsLocked" val="False"/>
             <entry key="WinTrackHeight" val="0"/>
            </MetaData>
            <Medias>
             <VMFile id="3469" start="0" duration="600" scalar="1/1" mediaStart="0/1" mediaDuration="600/1" trackNumber="0" src="22" >
              <Transformer>
               <VectorParam id="3470"  name="translation">
                <InterpolatingParam id="3471" interp="linr"  time="-9999999/1" value="0.50000000001430611" leadInLength="0/1"  />
                <InterpolatingParam id="3472" interp="linr"  time="-9999999/1" value="0.50000000010814438" leadInLength="0/1"  />
                <InterpolatingParam id="3473" interp="linr"  time="-9999999/1" value="3.4106051316488567e-010" leadInLength="0/1"  />
               </VectorParam>
               <VectorParam id="3474"  name="rotation">
                <InterpolatingParam id="3475" interp="linr"  time="-9999999/1" value="0" leadInLength="0/1"  />
                <InterpolatingParam id="3476" interp="linr"  time="-9999999/1" value="0" leadInLength="0/1"  />
                <InterpolatingParam id="3477" interp="linr"  time="-9999999/1" value="0" leadInLength="0/1"  />
               </VectorParam>
               <VectorParam id="3478"  name="shear">
                <InterpolatingParam id="3479" interp="linr"  time="-9999999/1" value="0" leadInLength="0/1"  />
                <InterpolatingParam id="3480" interp="linr"  time="-9999999/1" value="0" leadInLength="0/1"  />
                <InterpolatingParam id="3481" interp="linr"  time="-9999999/1" value="0" leadInLength="0/1"  />
               </VectorParam>
               <VectorParam id="3482"  name="scale">
                <InterpolatingParam id="3483" interp="linr"  time="-9999999/1" value="1.0968750000001026" leadInLength="0/1"  />
                <InterpolatingParam id="3484" interp="linr"  time="-9999999/1" value="1" leadInLength="0/1"  />
                <InterpolatingParam id="3485" interp="linr"  time="-9999999/1" value="1" leadInLength="0/1"  />
               </VectorParam>
               <VectorParam id="3486"  name="anchor">
                <InterpolatingParam id="3487" interp="linr"  time="0/1" value="0" leadInLength="0/1"  />
                <InterpolatingParam id="3488" interp="linr"  time="0/1" value="0" leadInLength="0/1"  />
                <InterpolatingParam id="3489" interp="linr"  time="0/1" value="0" leadInLength="0/1"  />
               </VectorParam>
              </Transformer>
              <Parameters>
               <VectorParam id="3490"  name="sourceCrop">
                <InterpolatingParam id="3491" interp="linr"  time="0/1" value="0" leadInLength="0/1"  />
                <InterpolatingParam id="3492" interp="linr"  time="0/1" value="0" leadInLength="0/1"  />
                <InterpolatingParam id="3493" interp="linr"  time="0/1" value="0" leadInLength="0/1"  />
                <InterpolatingParam id="3494" interp="linr"  time="0/1" value="0" leadInLength="0/1"  />
               </VectorParam>
               <VectorParam id="3495"  name="geometryCrop">
                <InterpolatingParam id="3496" interp="linr"  time="-9999999/1" value="0" leadInLength="0/1"  interpolater="leadin-eioe"  />
                <InterpolatingParam id="3497" interp="linr"  time="-9999999/1" value="0" leadInLength="0/1"  interpolater="leadin-eioe"  />
                <InterpolatingParam id="3498" interp="linr"  time="-9999999/1" value="0" leadInLength="0/1"  interpolater="leadin-eioe"  />
                <InterpolatingParam id="3499" interp="linr"  time="-9999999/1" value="0" leadInLength="0/1"  interpolater="leadin-eioe"  />
               </VectorParam>
               <InterpolatingParam id="3500" interp="linr"  time="-9999999/1" value="1" leadInLength="0/1"  name="opacity"/>
              </Parameters>
              <Attributes>
               <Attribute id="3501" value="" name="ident"/>
              </Attributes>
              <MetaData>
               <entry key="WinSubProjectDisplayName" val=""/>
              </MetaData>
              <ExtraData>
               <Entry key="ZoomPanBin">
                <ZoomPanBin id="3502"  >
                 <ZoomPanKeyframes>
                  <ZoomPanKeyframe id="3503" timeRangeEnd="-9999999/1" timeRangeDuration="0/1" interpolaterName="linr"  />
                 </ZoomPanKeyframes>
                </ZoomPanBin>
               </Entry>
              </ExtraData>
             </VMFile>
            </Medias>
           </GenericTrack>
           <GenericTrack id="3504"  >
            <Attributes>
             <Attribute id="3505" value="" name="ident"/>
             <Attribute id="3506" value="0" name="audioMuted"/>
             <Attribute id="3507" value="0" name="videoHidden"/>
            </Attributes>
            <MetaData>
             <entry key="IsLocked" val="False"/>
             <entry key="WinTrackHeight" val="0"/>
            </MetaData>
            <Medias>
             <UnifiedMedia id="3508"  >
              <AudioTransition id="3509" start="30" duration="30" >
               <Parameters>
                <InterpolatingParam id="3510" interp="linr"  time="0/1" value="1" leadInLength="0/1"  name="volume"/>
                <Parameter id="3511"  name="captions"/>
               </Parameters>
               <Effects>
                <GenericEffect id="3512" name = "AudioTransition" >
                 <Parameters>
                 <Parameter id="3513"   name="audioEdgeModType">
                  <Keyframes>
                  <Keyframe id="3514"  time="0/1" value="0" leadInLength="0/1"  />
                  </Keyframes>
                 </Parameter>
                 <Parameter id="3515"   name="audioTransitionType">
                  <Keyframes>
                  <Keyframe id="3516"  time="0/1" value="" leadInLength="0/1"  />
                  </Keyframes>
                 </Parameter>
                 </Parameters>
                 <MetaData>
                 </MetaData>
                </GenericEffect>
               </Effects>
               <Attributes>
                <Attribute id="3517" value="" name="ident"/>
                <Attribute id="3518" value="0" name="sampleRate"/>
                <Attribute id="3519" value="0" name="bitDepth"/>
                <Attribute id="3520" value="1" name="gain"/>
                <Attribute id="3521" value="0" name="mixToMono"/>
               </Attributes>
              </AudioTransition>
              <ImageTransition id="3522" start="30" duration="30" >
               <Transformer>
                <VectorParam id="3523"  name="translation">
                 <InterpolatingParam id="3524" interp="linr"  time="0/1" value="0" leadInLength="0/1"  />
                 <InterpolatingParam id="3525" interp="linr"  time="0/1" value="0" leadInLength="0/1"  />
                 <InterpolatingParam id="3526" interp="linr"  time="0/1" value="0" leadInLength="0/1"  />
                </VectorParam>
                <VectorParam id="3527"  name="rotation">
                 <InterpolatingParam id="3528" interp="linr"  time="0/1" value="0" leadInLength="0/1"  />
                 <InterpolatingParam id="3529" interp="linr"  time="0/1" value="0" leadInLength="0/1"  />
                 <InterpolatingParam id="3530" interp="linr"  time="0/1" value="0" leadInLength="0/1"  />
                </VectorParam>
                <VectorParam id="3531"  name="shear">
                 <InterpolatingParam id="3532" interp="linr"  time="0/1" value="0" leadInLength="0/1"  />
                 <InterpolatingParam id="3533" interp="linr"  time="0/1" value="0" leadInLength="0/1"  />
                 <InterpolatingParam id="3534" interp="linr"  time="0/1" value="0" leadInLength="0/1"  />
                </VectorParam>
                <VectorParam id="3535"  name="scale">
                 <InterpolatingParam id="3536" interp="linr"  time="0/1" value="1" leadInLength="0/1"  />
                 <InterpolatingParam id="3537" interp="linr"  time="0/1" value="1" leadInLength="0/1"  />
                 <InterpolatingParam id="3538" interp="linr"  time="0/1" value="1" leadInLength="0/1"  />
                </VectorParam>
                <VectorParam id="3539"  name="anchor">
                 <InterpolatingParam id="3540" interp="linr"  time="0/1" value="0" leadInLength="0/1"  />
                 <InterpolatingParam id="3541" interp="linr"  time="0/1" value="0" leadInLength="0/1"  />
                 <InterpolatingParam id="3542" interp="linr"  time="0/1" value="0" leadInLength="0/1"  />
                </VectorParam>
               </Transformer>
               <Parameters>
                <VectorParam id="3543"  name="sourceCrop">
                 <InterpolatingParam id="3544" interp="linr"  time="0/1" value="0" leadInLength="0/1"  />
                 <InterpolatingParam id="3545" interp="linr"  time="0/1" value="0" leadInLength="0/1"  />
                 <InterpolatingParam id="3546" interp="linr"  time="0/1" value="0" leadInLength="0/1"  />
                 <InterpolatingParam id="3547" interp="linr"  time="0/1" value="0" leadInLength="0/1"  />
                </VectorParam>
                <VectorParam id="3548"  name="geometryCrop">
                 <InterpolatingParam id="3549" interp="linr"  time="0/1" value="0" leadInLength="0/1"  />
                 <InterpolatingParam id="3550" interp="linr"  time="0/1" value="0" leadInLength="0/1"  />
                 <InterpolatingParam id="3551" interp="linr"  time="0/1" value="0" leadInLength="0/1"  />
                 <InterpolatingParam id="3552" interp="linr"  time="0/1" value="0" leadInLength="0/1"  />
                </VectorParam>
                <InterpolatingParam id="3553" interp="linr"  time="0/1" value="1" leadInLength="0/1"  name="opacity"/>
               </Parameters>
               <Effects>
                <GenericEffect id="3554" name = "VisualTransition" >
                 <Parameters>
                 <InterpolatingParam id="3555" interp="linr"  time="0/1" value="0.5" leadInLength="0/1"   name="leftFramePercentage"/>
                 <InterpolatingParam id="3556" interp="linr"  time="0/1" value="0.5" leadInLength="0/1"   name="rightFramePercentage"/>
                 <Parameter id="3557"   name="visualEdgeModType">
                  <Keyframes>
                  <Keyframe id="3558"  time="0/1" value="1" leadInLength="0/1"  />
                  </Keyframes>
                 </Parameter>
                 <Parameter id="3559"   name="visualTransitionType">
                  <Keyframes>
                  <Keyframe id="3560"  time="0/1" value="Fade" leadInLength="0/1"  />
                  </Keyframes>
                 </Parameter>
                 </Parameters>
                 <MetaData>
                 </MetaData>
                </GenericEffect>
               </Effects>
               <Attributes>
                <Attribute id="3561" value="" name="ident"/>
               </Attributes>
               <ExtraData>
                <Entry key="ZoomPanBin">
                 <ZoomPanBin id="3562"  >
                  <ZoomPanKeyframes>
                  </ZoomPanKeyframes>
                 </ZoomPanBin>
                </Entry>
               </ExtraData>
              </ImageTransition>
              <MetaData>
               <entry key="WinSubProjectDisplayName" val=""/>
              </MetaData>
             </UnifiedMedia>
             <Callout id="3563" start="60" duration="720" scalar="1/1" mediaStart="-90/1" mediaDuration="720/1" >
              <Transformer>
               <VectorParam id="3564"  name="translation">
                <InterpolatingParam id="3565" interp="linr"  time="-9999999/1" value="15.776892430798052" leadInLength="0/1"  />
                <InterpolatingParam id="3566" interp="linr"  time="-9999999/1" value="265.04183266966731" leadInLength="0/1"  />
                <InterpolatingParam id="3567" interp="linr"  time="-9999999/1" value="-3.4106051316482886e-010" leadInLength="0/1"  />
               </VectorParam>
               <VectorParam id="3568"  name="rotation">
                <InterpolatingParam id="3569" interp="linr"  time="-9999999/1" value="0" leadInLength="0/1"  />
                <InterpolatingParam id="3570" interp="linr"  time="-9999999/1" value="0" leadInLength="0/1"  />
                <InterpolatingParam id="3571" interp="linr"  time="-9999999/1" value="0" leadInLength="0/1"  />
               </VectorParam>
               <VectorParam id="3572"  name="shear">
                <InterpolatingParam id="3573" interp="linr"  time="-9999999/1" value="0" leadInLength="0/1"  />
                <InterpolatingParam id="3574" interp="linr"  time="-9999999/1" value="0" leadInLength="0/1"  />
                <InterpolatingParam id="3575" interp="linr"  time="-9999999/1" value="0" leadInLength="0/1"  />
               </VectorParam>
               <VectorParam id="3576"  name="scale">
                <InterpolatingParam id="3577" interp="linr"  time="-9999999/1" value="2.1959163346607737" leadInLength="0/1"  />
                <InterpolatingParam id="3578" interp="linr"  time="-9999999/1" value="0.48007968127316314" leadInLength="0/1"  />
                <InterpolatingParam id="3579" interp="linr"  time="-9999999/1" value="1" leadInLength="0/1"  />
               </VectorParam>
               <VectorParam id="3580"  name="anchor">
                <InterpolatingParam id="3581" interp="linr"  time="0/1" value="0" leadInLength="0/1"  />
                <InterpolatingParam id="3582" interp="linr"  time="0/1" value="0" leadInLength="0/1"  />
                <InterpolatingParam id="3583" interp="linr"  time="0/1" value="0" leadInLength="0/1"  />
               </VectorParam>
              </Transformer>
              <Parameters>
               <VectorParam id="3584"  name="sourceCrop">
                <InterpolatingParam id="3585" interp="linr"  time="0/1" value="0" leadInLength="0/1"  />
                <InterpolatingParam id="3586" interp="linr"  time="0/1" value="0" leadInLength="0/1"  />
                <InterpolatingParam id="3587" interp="linr"  time="0/1" value="0" leadInLength="0/1"  />
                <InterpolatingParam id="3588" interp="linr"  time="0/1" value="0" leadInLength="0/1"  />
               </VectorParam>
               <VectorParam id="3589"  name="geometryCrop">
                <InterpolatingParam id="3590" interp="linr"  time="-9999999/1" value="0" leadInLength="0/1"  interpolater="leadin-eioe"  />
                <InterpolatingParam id="3591" interp="linr"  time="-9999999/1" value="0" leadInLength="0/1"  interpolater="leadin-eioe"  />
                <InterpolatingParam id="3592" interp="linr"  time="-9999999/1" value="0" leadInLength="0/1"  interpolater="leadin-eioe"  />
                <InterpolatingParam id="3593" interp="linr"  time="-9999999/1" value="0" leadInLength="0/1"  interpolater="leadin-eioe"  />
               </VectorParam>
               <InterpolatingParam id="3594" interp="linr"  time="-9999999/1" value="1" leadInLength="0/1"  name="opacity"/>
              </Parameters>
              <Attributes>
               <Attribute id="3595"  name="vectorNode">
                <VectorNode id="3596" kind="TypeWinText"  >
                 <DoubleParameters>
                  <InterpolatingParam id="3597" interp="linr"  time="0/1" value="5" leadInLength="0/1"  name="Style"/>
                  <InterpolatingParam id="3598" interp="linr"  time="0/1" value="320" leadInLength="0/1"  name="height"/>
                  <InterpolatingParam id="3599" interp="linr"  time="0/1" value="0" leadInLength="0/1"  name="textDropShadow"/>
                  <InterpolatingParam id="3600" interp="linr"  time="0/1" value="0" leadInLength="0/1"  name="textIgnoresOpacity"/>
                  <InterpolatingParam id="3601" interp="linr"  time="0/1" value="1" leadInLength="0/1"  name="textRectHeight"/>
                  <InterpolatingParam id="3602" interp="linr"  time="0/1" value="1" leadInLength="0/1"  name="textRectWidth"/>
                  <InterpolatingParam id="3603" interp="linr"  time="0/1" value="0" leadInLength="0/1"  name="textRectX"/>
                  <InterpolatingParam id="3604" interp="linr"  time="0/1" value="0" leadInLength="0/1"  name="textRectY"/>
                  <InterpolatingParam id="3605" interp="linr"  time="0/1" value="0" leadInLength="0/1"  name="textVerticalAlign"/>
                  <InterpolatingParam id="3606" interp="linr"  time="0/1" value="480" leadInLength="0/1"  name="width"/>
                 </DoubleParameters>
                 <StringParameters>
                  <Parameter id="3607"  name="filename">
                   <Keyframes>
                   <Keyframe id="3608"  time="0/1" value="C:\Program Files (x86)\TechSmith\Camtasia Studio 8\Media\Studio\Callouts\trans_100x100.xml" leadInLength="0/1"  />
                   </Keyframes>
                  </Parameter>
                  <Parameter id="3609"  name="name">
                   <Keyframes>
                   <Keyframe id="3610"  time="0/1" value="Text Callout" leadInLength="0/1"  />
                   </Keyframes>
                  </Parameter>
                  <Parameter id="3611"  name="text">
                   <Keyframes>
                   <Keyframe id="3612"  time="0/1" value="{\rtf1\ansi\ansicpg1252\deff0\deflang1033{\fonttbl{\f0\fswiss\fprq2\fcharset0 Impact;}{\f1\fswiss\fprq2\fcharset0 Tahoma;}}&#xD;&#xa;{\colortbl ;\red218\green182\blue1;\red132\green146\blue155;}&#xD;&#xa;\viewkind4\uc1\pard\qc\cf1\f0\fs96 Complete Guide to Build IOT Things from Scratch to Market\cf2\b\f1\par&#xD;&#xa;}&#xD;&#xa;" leadInLength="0/1"  />
                   </Keyframes>
                  </Parameter>
                  <Parameter id="3613"  name="xmlContent">
                   <Keyframes>
                   <Keyframe id="3614"  time="0/1" value="﻿&lt;?xml version=&quot;1.0&quot;?&gt;&#xa;&#xa;&lt;Overlay version=&quot;1.0.1&quot;&gt;&#xa;&#xa;&lt;Overlay_Filename&gt;trans_100x100.png&lt;/Overlay_Filename&gt;&#xa;&lt;Overlay_Name&gt;Text Callout&lt;/Overlay_Name&gt;&#xa;&lt;Overlay_XGrow&gt;0&lt;/Overlay_XGrow&gt;&#xa;&lt;Overlay_YGrow&gt;0&lt;/Overlay_YGrow&gt;&#xa;&lt;Text_Top&gt;0&lt;/Text_Top&gt;&#xa;&lt;Text_Left&gt;0&lt;/Text_Left&gt;&#xa;&lt;Text_Bottom&gt;0&lt;/Text_Bottom&gt;&#xa;&lt;Text_Right&gt;0&lt;/Text_Right&gt;&#xa;&lt;Vector_Grow&gt;0&lt;/Vector_Grow&gt;&#xa;&lt;CanRotate_90&gt;0&lt;/CanRotate_90&gt;&#xa;&lt;CanRotate_180&gt;0&lt;/CanRotate_180&gt;&#xa;&lt;CanRotate_270&gt;0&lt;/CanRotate_270&gt;&#xa;&lt;CanFlip_X&gt;0&lt;/CanFlip_X&gt;&#xa;&lt;CanFlip_X90&gt;0&lt;/CanFlip_X90&gt;&#xa;&lt;CanFlip_X180&gt;0&lt;/CanFlip_X180&gt;&#xa;&lt;CanFlip_X270&gt;0&lt;/CanFlip_X270&gt;&#xa;&lt;Fill_Color&gt;0&lt;/Fill_Color&gt;&#xa;&lt;Border_Color&gt;0&lt;/Border_Color&gt;&#xa;&lt;Style&gt;5&lt;/Style&gt;&#xa;&lt;/Overlay&gt;" leadInLength="0/1"  />
                   </Keyframes>
                  </Parameter>
                 </StringParameters>
                </VectorNode>
               </Attribute>
              </Attributes>
              <MetaData>
               <entry key="WinSubProjectDisplayName" val=""/>
              </MetaData>
              <LeftEdgeMods length="0/1" groupName="OpacityFade">
               <EdgeMod parameter="3594">
                <FadeInFunc id="3124"  />
               </EdgeMod>
              </LeftEdgeMods>
              <RightEdgeMods length="0/1" groupName="OpacityFade">
               <EdgeMod parameter="3594">
                <FadeOutFunc id="3615"  />
               </EdgeMod>
              </RightEdgeMods>
              <ExtraData>
               <Entry key="ZoomPanBin">
                <ZoomPanBin id="3616"  >
                 <ZoomPanKeyframes>
                  <ZoomPanKeyframe id="3617" timeRangeEnd="-9999999/1" timeRangeDuration="0/1" interpolaterName="linr"  />
                 </ZoomPanKeyframes>
                </ZoomPanBin>
               </Entry>
              </ExtraData>
             </Callout>
             <UnifiedMedia id="3618"  >
              <AudioTransition id="3619" start="780" duration="30" >
               <Parameters>
                <InterpolatingParam id="3620" interp="linr"  time="0/1" value="1" leadInLength="0/1"  name="volume"/>
                <Parameter id="3621"  name="captions"/>
               </Parameters>
               <Effects>
                <GenericEffect id="3622" name = "AudioTransition" >
                 <Parameters>
                 <Parameter id="3623"   name="audioEdgeModType">
                  <Keyframes>
                  <Keyframe id="3624"  time="0/1" value="0" leadInLength="0/1"  />
                  </Keyframes>
                 </Parameter>
                 <Parameter id="3625"   name="audioTransitionType">
                  <Keyframes>
                  <Keyframe id="3626"  time="0/1" value="" leadInLength="0/1"  />
                  </Keyframes>
                 </Parameter>
                 </Parameters>
                 <MetaData>
                 </MetaData>
                </GenericEffect>
               </Effects>
               <Attributes>
                <Attribute id="3627" value="" name="ident"/>
                <Attribute id="3628" value="0" name="sampleRate"/>
                <Attribute id="3629" value="0" name="bitDepth"/>
                <Attribute id="3630" value="1" name="gain"/>
                <Attribute id="3631" value="0" name="mixToMono"/>
               </Attributes>
              </AudioTransition>
              <ImageTransition id="3632" start="780" duration="30" >
               <Transformer>
                <VectorParam id="3633"  name="translation">
                 <InterpolatingParam id="3634" interp="linr"  time="0/1" value="0" leadInLength="0/1"  />
                 <InterpolatingParam id="3635" interp="linr"  time="0/1" value="0" leadInLength="0/1"  />
                 <InterpolatingParam id="3636" interp="linr"  time="0/1" value="0" leadInLength="0/1"  />
                </VectorParam>
                <VectorParam id="3637"  name="rotation">
                 <InterpolatingParam id="3638" interp="linr"  time="0/1" value="0" leadInLength="0/1"  />
                 <InterpolatingParam id="3639" interp="linr"  time="0/1" value="0" leadInLength="0/1"  />
                 <InterpolatingParam id="3640" interp="linr"  time="0/1" value="0" leadInLength="0/1"  />
                </VectorParam>
                <VectorParam id="3641"  name="shear">
                 <InterpolatingParam id="3642" interp="linr"  time="0/1" value="0" leadInLength="0/1"  />
                 <InterpolatingParam id="3643" interp="linr"  time="0/1" value="0" leadInLength="0/1"  />
                 <InterpolatingParam id="3644" interp="linr"  time="0/1" value="0" leadInLength="0/1"  />
                </VectorParam>
                <VectorParam id="3645"  name="scale">
                 <InterpolatingParam id="3646" interp="linr"  time="0/1" value="1" leadInLength="0/1"  />
                 <InterpolatingParam id="3647" interp="linr"  time="0/1" value="1" leadInLength="0/1"  />
                 <InterpolatingParam id="3648" interp="linr"  time="0/1" value="1" leadInLength="0/1"  />
                </VectorParam>
                <VectorParam id="3649"  name="anchor">
                 <InterpolatingParam id="3650" interp="linr"  time="0/1" value="0" leadInLength="0/1"  />
                 <InterpolatingParam id="3651" interp="linr"  time="0/1" value="0" leadInLength="0/1"  />
                 <InterpolatingParam id="3652" interp="linr"  time="0/1" value="0" leadInLength="0/1"  />
                </VectorParam>
               </Transformer>
               <Parameters>
                <VectorParam id="3653"  name="sourceCrop">
                 <InterpolatingParam id="3654" interp="linr"  time="0/1" value="0" leadInLength="0/1"  />
                 <InterpolatingParam id="3655" interp="linr"  time="0/1" value="0" leadInLength="0/1"  />
                 <InterpolatingParam id="3656" interp="linr"  time="0/1" value="0" leadInLength="0/1"  />
                 <InterpolatingParam id="3657" interp="linr"  time="0/1" value="0" leadInLength="0/1"  />
                </VectorParam>
                <VectorParam id="3658"  name="geometryCrop">
                 <InterpolatingParam id="3659" interp="linr"  time="0/1" value="0" leadInLength="0/1"  />
                 <InterpolatingParam id="3660" interp="linr"  time="0/1" value="0" leadInLength="0/1"  />
                 <InterpolatingParam id="3661" interp="linr"  time="0/1" value="0" leadInLength="0/1"  />
                 <InterpolatingParam id="3662" interp="linr"  time="0/1" value="0" leadInLength="0/1"  />
                </VectorParam>
                <InterpolatingParam id="3663" interp="linr"  time="0/1" value="1" leadInLength="0/1"  name="opacity"/>
               </Parameters>
               <Effects>
                <GenericEffect id="3664" name = "VisualTransition" >
                 <Parameters>
                 <InterpolatingParam id="3665" interp="linr"  time="0/1" value="0.5" leadInLength="0/1"   name="leftFramePercentage"/>
                 <InterpolatingParam id="3666" interp="linr"  time="0/1" value="0.5" leadInLength="0/1"   name="rightFramePercentage"/>
                 <Parameter id="3667"   name="visualEdgeModType">
                  <Keyframes>
                  <Keyframe id="3668"  time="0/1" value="2" leadInLength="0/1"  />
                  </Keyframes>
                 </Parameter>
                 <Parameter id="3669"   name="visualTransitionType">
                  <Keyframes>
                  <Keyframe id="3670"  time="0/1" value="Fade" leadInLength="0/1"  />
                  </Keyframes>
                 </Parameter>
                 </Parameters>
                 <MetaData>
                 </MetaData>
                </GenericEffect>
               </Effects>
               <Attributes>
                <Attribute id="3671" value="" name="ident"/>
               </Attributes>
               <ExtraData>
                <Entry key="ZoomPanBin">
                 <ZoomPanBin id="3672"  >
                  <ZoomPanKeyframes>
                  </ZoomPanKeyframes>
                 </ZoomPanBin>
                </Entry>
               </ExtraData>
              </ImageTransition>
              <MetaData>
               <entry key="WinSubProjectDisplayName" val=""/>
              </MetaData>
             </UnifiedMedia>
            </Medias>
           </GenericTrack>
          </Tracks>
         </GenericMixer>
         <MetaData>
          <entry key="IsGroupExpanded" val="False"/>
          <entry key="WinGroupOrigin" val="Asset"/>
          <entry key="WinSubProjectDisplayName" val="Animated Title"/>
         </MetaData>
         <ExtraData>
          <Entry key="ZoomPanBin">
           <ZoomPanBin id="3673"  >
            <ZoomPanKeyframes>
             <ZoomPanKeyframe id="3674" timeRangeEnd="-9999999/1" timeRangeDuration="0/1" interpolaterName="linr"  />
            </ZoomPanKeyframes>
           </ZoomPanBin>
          </Entry>
         </ExtraData>
        </Group>
        <Group id="3675" start="644" duration="54" scalar="1" mediaStart="693" mediaDuration="54" baseWidthAttr="0" baseHeightAttr="0"  >
         <Parameters>
          <VectorParam id="3676"  name="sourceCrop">
           <InterpolatingParam id="3677" interp="linr"  time="0/1" value="0" leadInLength="0/1"  />
           <InterpolatingParam id="3678" interp="linr"  time="0/1" value="0" leadInLength="0/1"  />
           <InterpolatingParam id="3679" interp="linr"  time="0/1" value="0" leadInLength="0/1"  />
           <InterpolatingParam id="3680" interp="linr"  time="0/1" value="0" leadInLength="0/1"  />
          </VectorParam>
          <VectorParam id="3681"  name="geometryCrop">
           <InterpolatingParam id="3682" interp="linr"  time="-9999999/1" value="0" leadInLength="0/1"  interpolater="leadin-eioe"  />
           <InterpolatingParam id="3683" interp="linr"  time="-9999999/1" value="0" leadInLength="0/1"  interpolater="leadin-eioe"  />
           <InterpolatingParam id="3684" interp="linr"  time="-9999999/1" value="0" leadInLength="0/1"  interpolater="leadin-eioe"  />
           <InterpolatingParam id="3685" interp="linr"  time="-9999999/1" value="0" leadInLength="0/1"  interpolater="leadin-eioe"  />
          </VectorParam>
          <InterpolatingParam id="3686" interp="linr"  time="-9999999/1" value="1" leadInLength="0/1"  name="opacity"/>
          <Parameter id="3687"  name="captions"/>
          <InterpolatingParam id="3688" interp="linr"  time="0/1" value="1" leadInLength="0/1"  name="volume"/>
         </Parameters>
         <Transformer>
          <VectorParam id="3689"  name="translation">
           <InterpolatingParam id="3690" interp="linr"  time="-9999999/1" value="1.2001899474256561e-010" leadInLength="0/1"  />
           <InterpolatingParam id="3691" interp="linr"  time="-9999999/1" value="-5.4228621593210846e-011" leadInLength="0/1"  />
           <InterpolatingParam id="3692" interp="linr"  time="-9999999/1" value="0" leadInLength="0/1"  />
          </VectorParam>
          <VectorParam id="3693"  name="rotation">
           <InterpolatingParam id="3694" interp="linr"  time="-9999999/1" value="0" leadInLength="0/1"  />
           <InterpolatingParam id="3695" interp="linr"  time="-9999999/1" value="0" leadInLength="0/1"  />
           <InterpolatingParam id="3696" interp="linr"  time="-9999999/1" value="0" leadInLength="0/1"  />
          </VectorParam>
          <VectorParam id="3697"  name="shear">
           <InterpolatingParam id="3698" interp="linr"  time="-9999999/1" value="0" leadInLength="0/1"  />
           <InterpolatingParam id="3699" interp="linr"  time="-9999999/1" value="0" leadInLength="0/1"  />
           <InterpolatingParam id="3700" interp="linr"  time="-9999999/1" value="0" leadInLength="0/1"  />
          </VectorParam>
          <VectorParam id="3701"  name="scale">
           <InterpolatingParam id="3702" interp="linr"  time="-9999999/1" value="1" leadInLength="0/1"  />
           <InterpolatingParam id="3703" interp="linr"  time="-9999999/1" value="1" leadInLength="0/1"  />
           <InterpolatingParam id="3704" interp="linr"  time="-9999999/1" value="1" leadInLength="0/1"  />
          </VectorParam>
          <VectorParam id="3705"  name="anchor">
           <InterpolatingParam id="3706" interp="linr"  time="0/1" value="0.5" leadInLength="0/1"  />
           <InterpolatingParam id="3707" interp="linr"  time="0/1" value="0.5" leadInLength="0/1"  />
           <InterpolatingParam id="3708" interp="linr"  time="0/1" value="0" leadInLength="0/1"  />
          </VectorParam>
         </Transformer>
         <GenericMixer id="3709"  >
          <MetaData>
          </MetaData>
          <Tracks>
           <GenericTrack id="3710"  >
            <Attributes>
             <Attribute id="3711" value="" name="ident"/>
             <Attribute id="3712" value="0" name="audioMuted"/>
             <Attribute id="3713" value="0" name="videoHidden"/>
            </Attributes>
            <MetaData>
             <entry key="IsLocked" val="False"/>
             <entry key="WinTrackHeight" val="0"/>
            </MetaData>
            <Medias>
             <VMFile id="3714" start="0" duration="600" scalar="1/1" mediaStart="0/1" mediaDuration="600/1" trackNumber="0" src="22" >
              <Transformer>
               <VectorParam id="3715"  name="translation">
                <InterpolatingParam id="3716" interp="linr"  time="-9999999/1" value="0.50000000001430611" leadInLength="0/1"  />
                <InterpolatingParam id="3717" interp="linr"  time="-9999999/1" value="0.50000000010814438" leadInLength="0/1"  />
                <InterpolatingParam id="3718" interp="linr"  time="-9999999/1" value="3.4106051316488567e-010" leadInLength="0/1"  />
               </VectorParam>
               <VectorParam id="3719"  name="rotation">
                <InterpolatingParam id="3720" interp="linr"  time="-9999999/1" value="0" leadInLength="0/1"  />
                <InterpolatingParam id="3721" interp="linr"  time="-9999999/1" value="0" leadInLength="0/1"  />
                <InterpolatingParam id="3722" interp="linr"  time="-9999999/1" value="0" leadInLength="0/1"  />
               </VectorParam>
               <VectorParam id="3723"  name="shear">
                <InterpolatingParam id="3724" interp="linr"  time="-9999999/1" value="0" leadInLength="0/1"  />
                <InterpolatingParam id="3725" interp="linr"  time="-9999999/1" value="0" leadInLength="0/1"  />
                <InterpolatingParam id="3726" interp="linr"  time="-9999999/1" value="0" leadInLength="0/1"  />
               </VectorParam>
               <VectorParam id="3727"  name="scale">
                <InterpolatingParam id="3728" interp="linr"  time="-9999999/1" value="1.0968750000001026" leadInLength="0/1"  />
                <InterpolatingParam id="3729" interp="linr"  time="-9999999/1" value="1" leadInLength="0/1"  />
                <InterpolatingParam id="3730" interp="linr"  time="-9999999/1" value="1" leadInLength="0/1"  />
               </VectorParam>
               <VectorParam id="3731"  name="anchor">
                <InterpolatingParam id="3732" interp="linr"  time="0/1" value="0" leadInLength="0/1"  />
                <InterpolatingParam id="3733" interp="linr"  time="0/1" value="0" leadInLength="0/1"  />
                <InterpolatingParam id="3734" interp="linr"  time="0/1" value="0" leadInLength="0/1"  />
               </VectorParam>
              </Transformer>
              <Parameters>
               <VectorParam id="3735"  name="sourceCrop">
                <InterpolatingParam id="3736" interp="linr"  time="0/1" value="0" leadInLength="0/1"  />
                <InterpolatingParam id="3737" interp="linr"  time="0/1" value="0" leadInLength="0/1"  />
                <InterpolatingParam id="3738" interp="linr"  time="0/1" value="0" leadInLength="0/1"  />
                <InterpolatingParam id="3739" interp="linr"  time="0/1" value="0" leadInLength="0/1"  />
               </VectorParam>
               <VectorParam id="3740"  name="geometryCrop">
                <InterpolatingParam id="3741" interp="linr"  time="-9999999/1" value="0" leadInLength="0/1"  interpolater="leadin-eioe"  />
                <InterpolatingParam id="3742" interp="linr"  time="-9999999/1" value="0" leadInLength="0/1"  interpolater="leadin-eioe"  />
                <InterpolatingParam id="3743" interp="linr"  time="-9999999/1" value="0" leadInLength="0/1"  interpolater="leadin-eioe"  />
                <InterpolatingParam id="3744" interp="linr"  time="-9999999/1" value="0" leadInLength="0/1"  interpolater="leadin-eioe"  />
               </VectorParam>
               <InterpolatingParam id="3745" interp="linr"  time="-9999999/1" value="1" leadInLength="0/1"  name="opacity"/>
              </Parameters>
              <Attributes>
               <Attribute id="3746" value="" name="ident"/>
              </Attributes>
              <MetaData>
               <entry key="WinSubProjectDisplayName" val=""/>
              </MetaData>
              <ExtraData>
               <Entry key="ZoomPanBin">
                <ZoomPanBin id="3747"  >
                 <ZoomPanKeyframes>
                  <ZoomPanKeyframe id="3748" timeRangeEnd="-9999999/1" timeRangeDuration="0/1" interpolaterName="linr"  />
                 </ZoomPanKeyframes>
                </ZoomPanBin>
               </Entry>
              </ExtraData>
             </VMFile>
            </Medias>
           </GenericTrack>
           <GenericTrack id="3749"  >
            <Attributes>
             <Attribute id="3750" value="" name="ident"/>
             <Attribute id="3751" value="0" name="audioMuted"/>
             <Attribute id="3752" value="0" name="videoHidden"/>
            </Attributes>
            <MetaData>
             <entry key="IsLocked" val="False"/>
             <entry key="WinTrackHeight" val="0"/>
            </MetaData>
            <Medias>
             <UnifiedMedia id="3753"  >
              <AudioTransition id="3754" start="30" duration="30" >
               <Parameters>
                <InterpolatingParam id="3755" interp="linr"  time="0/1" value="1" leadInLength="0/1"  name="volume"/>
                <Parameter id="3756"  name="captions"/>
               </Parameters>
               <Effects>
                <GenericEffect id="3757" name = "AudioTransition" >
                 <Parameters>
                 <Parameter id="3758"   name="audioEdgeModType">
                  <Keyframes>
                  <Keyframe id="3759"  time="0/1" value="0" leadInLength="0/1"  />
                  </Keyframes>
                 </Parameter>
                 <Parameter id="3760"   name="audioTransitionType">
                  <Keyframes>
                  <Keyframe id="3761"  time="0/1" value="" leadInLength="0/1"  />
                  </Keyframes>
                 </Parameter>
                 </Parameters>
                 <MetaData>
                 </MetaData>
                </GenericEffect>
               </Effects>
               <Attributes>
                <Attribute id="3762" value="" name="ident"/>
                <Attribute id="3763" value="0" name="sampleRate"/>
                <Attribute id="3764" value="0" name="bitDepth"/>
                <Attribute id="3765" value="1" name="gain"/>
                <Attribute id="3766" value="0" name="mixToMono"/>
               </Attributes>
              </AudioTransition>
              <ImageTransition id="3767" start="30" duration="30" >
               <Transformer>
                <VectorParam id="3768"  name="translation">
                 <InterpolatingParam id="3769" interp="linr"  time="0/1" value="0" leadInLength="0/1"  />
                 <InterpolatingParam id="3770" interp="linr"  time="0/1" value="0" leadInLength="0/1"  />
                 <InterpolatingParam id="3771" interp="linr"  time="0/1" value="0" leadInLength="0/1"  />
                </VectorParam>
                <VectorParam id="3772"  name="rotation">
                 <InterpolatingParam id="3773" interp="linr"  time="0/1" value="0" leadInLength="0/1"  />
                 <InterpolatingParam id="3774" interp="linr"  time="0/1" value="0" leadInLength="0/1"  />
                 <InterpolatingParam id="3775" interp="linr"  time="0/1" value="0" leadInLength="0/1"  />
                </VectorParam>
                <VectorParam id="3776"  name="shear">
                 <InterpolatingParam id="3777" interp="linr"  time="0/1" value="0" leadInLength="0/1"  />
                 <InterpolatingParam id="3778" interp="linr"  time="0/1" value="0" leadInLength="0/1"  />
                 <InterpolatingParam id="3779" interp="linr"  time="0/1" value="0" leadInLength="0/1"  />
                </VectorParam>
                <VectorParam id="3780"  name="scale">
                 <InterpolatingParam id="3781" interp="linr"  time="0/1" value="1" leadInLength="0/1"  />
                 <InterpolatingParam id="3782" interp="linr"  time="0/1" value="1" leadInLength="0/1"  />
                 <InterpolatingParam id="3783" interp="linr"  time="0/1" value="1" leadInLength="0/1"  />
                </VectorParam>
                <VectorParam id="3784"  name="anchor">
                 <InterpolatingParam id="3785" interp="linr"  time="0/1" value="0" leadInLength="0/1"  />
                 <InterpolatingParam id="3786" interp="linr"  time="0/1" value="0" leadInLength="0/1"  />
                 <InterpolatingParam id="3787" interp="linr"  time="0/1" value="0" leadInLength="0/1"  />
                </VectorParam>
               </Transformer>
               <Parameters>
                <VectorParam id="3788"  name="sourceCrop">
                 <InterpolatingParam id="3789" interp="linr"  time="0/1" value="0" leadInLength="0/1"  />
                 <InterpolatingParam id="3790" interp="linr"  time="0/1" value="0" leadInLength="0/1"  />
                 <InterpolatingParam id="3791" interp="linr"  time="0/1" value="0" leadInLength="0/1"  />
                 <InterpolatingParam id="3792" interp="linr"  time="0/1" value="0" leadInLength="0/1"  />
                </VectorParam>
                <VectorParam id="3793"  name="geometryCrop">
                 <InterpolatingParam id="3794" interp="linr"  time="0/1" value="0" leadInLength="0/1"  />
                 <InterpolatingParam id="3795" interp="linr"  time="0/1" value="0" leadInLength="0/1"  />
                 <InterpolatingParam id="3796" interp="linr"  time="0/1" value="0" leadInLength="0/1"  />
                 <InterpolatingParam id="3797" interp="linr"  time="0/1" value="0" leadInLength="0/1"  />
                </VectorParam>
                <InterpolatingParam id="3798" interp="linr"  time="0/1" value="1" leadInLength="0/1"  name="opacity"/>
               </Parameters>
               <Effects>
                <GenericEffect id="3799" name = "VisualTransition" >
                 <Parameters>
                 <InterpolatingParam id="3800" interp="linr"  time="0/1" value="0.5" leadInLength="0/1"   name="leftFramePercentage"/>
                 <InterpolatingParam id="3801" interp="linr"  time="0/1" value="0.5" leadInLength="0/1"   name="rightFramePercentage"/>
                 <Parameter id="3802"   name="visualEdgeModType">
                  <Keyframes>
                  <Keyframe id="3803"  time="0/1" value="1" leadInLength="0/1"  />
                  </Keyframes>
                 </Parameter>
                 <Parameter id="3804"   name="visualTransitionType">
                  <Keyframes>
                  <Keyframe id="3805"  time="0/1" value="Fade" leadInLength="0/1"  />
                  </Keyframes>
                 </Parameter>
                 </Parameters>
                 <MetaData>
                 </MetaData>
                </GenericEffect>
               </Effects>
               <Attributes>
                <Attribute id="3806" value="" name="ident"/>
               </Attributes>
               <ExtraData>
                <Entry key="ZoomPanBin">
                 <ZoomPanBin id="3807"  >
                  <ZoomPanKeyframes>
                  </ZoomPanKeyframes>
                 </ZoomPanBin>
                </Entry>
               </ExtraData>
              </ImageTransition>
              <MetaData>
               <entry key="WinSubProjectDisplayName" val=""/>
              </MetaData>
             </UnifiedMedia>
             <Callout id="3808" start="60" duration="720" scalar="1/1" mediaStart="-90/1" mediaDuration="720/1" >
              <Transformer>
               <VectorParam id="3809"  name="translation">
                <InterpolatingParam id="3810" interp="linr"  time="-9999999/1" value="15.776892430798052" leadInLength="0/1"  />
                <InterpolatingParam id="3811" interp="linr"  time="-9999999/1" value="265.04183266966731" leadInLength="0/1"  />
                <InterpolatingParam id="3812" interp="linr"  time="-9999999/1" value="-3.4106051316482886e-010" leadInLength="0/1"  />
               </VectorParam>
               <VectorParam id="3813"  name="rotation">
                <InterpolatingParam id="3814" interp="linr"  time="-9999999/1" value="0" leadInLength="0/1"  />
                <InterpolatingParam id="3815" interp="linr"  time="-9999999/1" value="0" leadInLength="0/1"  />
                <InterpolatingParam id="3816" interp="linr"  time="-9999999/1" value="0" leadInLength="0/1"  />
               </VectorParam>
               <VectorParam id="3817"  name="shear">
                <InterpolatingParam id="3818" interp="linr"  time="-9999999/1" value="0" leadInLength="0/1"  />
                <InterpolatingParam id="3819" interp="linr"  time="-9999999/1" value="0" leadInLength="0/1"  />
                <InterpolatingParam id="3820" interp="linr"  time="-9999999/1" value="0" leadInLength="0/1"  />
               </VectorParam>
               <VectorParam id="3821"  name="scale">
                <InterpolatingParam id="3822" interp="linr"  time="-9999999/1" value="2.1959163346607737" leadInLength="0/1"  />
                <InterpolatingParam id="3823" interp="linr"  time="-9999999/1" value="0.48007968127316314" leadInLength="0/1"  />
                <InterpolatingParam id="3824" interp="linr"  time="-9999999/1" value="1" leadInLength="0/1"  />
               </VectorParam>
               <VectorParam id="3825"  name="anchor">
                <InterpolatingParam id="3826" interp="linr"  time="0/1" value="0" leadInLength="0/1"  />
                <InterpolatingParam id="3827" interp="linr"  time="0/1" value="0" leadInLength="0/1"  />
                <InterpolatingParam id="3828" interp="linr"  time="0/1" value="0" leadInLength="0/1"  />
               </VectorParam>
              </Transformer>
              <Parameters>
               <VectorParam id="3829"  name="sourceCrop">
                <InterpolatingParam id="3830" interp="linr"  time="0/1" value="0" leadInLength="0/1"  />
                <InterpolatingParam id="3831" interp="linr"  time="0/1" value="0" leadInLength="0/1"  />
                <InterpolatingParam id="3832" interp="linr"  time="0/1" value="0" leadInLength="0/1"  />
                <InterpolatingParam id="3833" interp="linr"  time="0/1" value="0" leadInLength="0/1"  />
               </VectorParam>
               <VectorParam id="3834"  name="geometryCrop">
                <InterpolatingParam id="3835" interp="linr"  time="-9999999/1" value="0" leadInLength="0/1"  interpolater="leadin-eioe"  />
                <InterpolatingParam id="3836" interp="linr"  time="-9999999/1" value="0" leadInLength="0/1"  interpolater="leadin-eioe"  />
                <InterpolatingParam id="3837" interp="linr"  time="-9999999/1" value="0" leadInLength="0/1"  interpolater="leadin-eioe"  />
                <InterpolatingParam id="3838" interp="linr"  time="-9999999/1" value="0" leadInLength="0/1"  interpolater="leadin-eioe"  />
               </VectorParam>
               <InterpolatingParam id="3839" interp="linr"  time="-9999999/1" value="1" leadInLength="0/1"  name="opacity"/>
              </Parameters>
              <Attributes>
               <Attribute id="3840"  name="vectorNode">
                <VectorNode id="3841" kind="TypeWinText"  >
                 <DoubleParameters>
                  <InterpolatingParam id="3842" interp="linr"  time="0/1" value="5" leadInLength="0/1"  name="Style"/>
                  <InterpolatingParam id="3843" interp="linr"  time="0/1" value="320" leadInLength="0/1"  name="height"/>
                  <InterpolatingParam id="3844" interp="linr"  time="0/1" value="0" leadInLength="0/1"  name="textDropShadow"/>
                  <InterpolatingParam id="3845" interp="linr"  time="0/1" value="0" leadInLength="0/1"  name="textIgnoresOpacity"/>
                  <InterpolatingParam id="3846" interp="linr"  time="0/1" value="1" leadInLength="0/1"  name="textRectHeight"/>
                  <InterpolatingParam id="3847" interp="linr"  time="0/1" value="1" leadInLength="0/1"  name="textRectWidth"/>
                  <InterpolatingParam id="3848" interp="linr"  time="0/1" value="0" leadInLength="0/1"  name="textRectX"/>
                  <InterpolatingParam id="3849" interp="linr"  time="0/1" value="0" leadInLength="0/1"  name="textRectY"/>
                  <InterpolatingParam id="3850" interp="linr"  time="0/1" value="0" leadInLength="0/1"  name="textVerticalAlign"/>
                  <InterpolatingParam id="3851" interp="linr"  time="0/1" value="480" leadInLength="0/1"  name="width"/>
                 </DoubleParameters>
                 <StringParameters>
                  <Parameter id="3852"  name="filename">
                   <Keyframes>
                   <Keyframe id="3853"  time="0/1" value="C:\Program Files (x86)\TechSmith\Camtasia Studio 8\Media\Studio\Callouts\trans_100x100.xml" leadInLength="0/1"  />
                   </Keyframes>
                  </Parameter>
                  <Parameter id="3854"  name="name">
                   <Keyframes>
                   <Keyframe id="3855"  time="0/1" value="Text Callout" leadInLength="0/1"  />
                   </Keyframes>
                  </Parameter>
                  <Parameter id="3856"  name="text">
                   <Keyframes>
                   <Keyframe id="3857"  time="0/1" value="{\rtf1\ansi\ansicpg1252\deff0\deflang1033{\fonttbl{\f0\fswiss\fprq2\fcharset0 Impact;}{\f1\fswiss\fprq2\fcharset0 Tahoma;}}&#xD;&#xa;{\colortbl ;\red218\green182\blue1;\red132\green146\blue155;}&#xD;&#xa;\viewkind4\uc1\pard\qc\cf1\f0\fs96 Complete Guide to Build IOT Things from Scratch to Market\cf2\b\f1\par&#xD;&#xa;}&#xD;&#xa;" leadInLength="0/1"  />
                   </Keyframes>
                  </Parameter>
                  <Parameter id="3858"  name="xmlContent">
                   <Keyframes>
                   <Keyframe id="3859"  time="0/1" value="﻿&lt;?xml version=&quot;1.0&quot;?&gt;&#xa;&#xa;&lt;Overlay version=&quot;1.0.1&quot;&gt;&#xa;&#xa;&lt;Overlay_Filename&gt;trans_100x100.png&lt;/Overlay_Filename&gt;&#xa;&lt;Overlay_Name&gt;Text Callout&lt;/Overlay_Name&gt;&#xa;&lt;Overlay_XGrow&gt;0&lt;/Overlay_XGrow&gt;&#xa;&lt;Overlay_YGrow&gt;0&lt;/Overlay_YGrow&gt;&#xa;&lt;Text_Top&gt;0&lt;/Text_Top&gt;&#xa;&lt;Text_Left&gt;0&lt;/Text_Left&gt;&#xa;&lt;Text_Bottom&gt;0&lt;/Text_Bottom&gt;&#xa;&lt;Text_Right&gt;0&lt;/Text_Right&gt;&#xa;&lt;Vector_Grow&gt;0&lt;/Vector_Grow&gt;&#xa;&lt;CanRotate_90&gt;0&lt;/CanRotate_90&gt;&#xa;&lt;CanRotate_180&gt;0&lt;/CanRotate_180&gt;&#xa;&lt;CanRotate_270&gt;0&lt;/CanRotate_270&gt;&#xa;&lt;CanFlip_X&gt;0&lt;/CanFlip_X&gt;&#xa;&lt;CanFlip_X90&gt;0&lt;/CanFlip_X90&gt;&#xa;&lt;CanFlip_X180&gt;0&lt;/CanFlip_X180&gt;&#xa;&lt;CanFlip_X270&gt;0&lt;/CanFlip_X270&gt;&#xa;&lt;Fill_Color&gt;0&lt;/Fill_Color&gt;&#xa;&lt;Border_Color&gt;0&lt;/Border_Color&gt;&#xa;&lt;Style&gt;5&lt;/Style&gt;&#xa;&lt;/Overlay&gt;" leadInLength="0/1"  />
                   </Keyframes>
                  </Parameter>
                 </StringParameters>
                </VectorNode>
               </Attribute>
              </Attributes>
              <MetaData>
               <entry key="WinSubProjectDisplayName" val=""/>
              </MetaData>
              <LeftEdgeMods length="0/1" groupName="OpacityFade">
               <EdgeMod parameter="3839">
                <FadeInFunc id="3124"  />
               </EdgeMod>
              </LeftEdgeMods>
              <RightEdgeMods length="0/1" groupName="OpacityFade">
               <EdgeMod parameter="3839">
                <FadeOutFunc id="3125"  />
               </EdgeMod>
              </RightEdgeMods>
              <ExtraData>
               <Entry key="ZoomPanBin">
                <ZoomPanBin id="3860"  >
                 <ZoomPanKeyframes>
                  <ZoomPanKeyframe id="3861" timeRangeEnd="-9999999/1" timeRangeDuration="0/1" interpolaterName="linr"  />
                 </ZoomPanKeyframes>
                </ZoomPanBin>
               </Entry>
              </ExtraData>
             </Callout>
             <UnifiedMedia id="3862"  >
              <AudioTransition id="3863" start="780" duration="30" >
               <Parameters>
                <InterpolatingParam id="3864" interp="linr"  time="0/1" value="1" leadInLength="0/1"  name="volume"/>
                <Parameter id="3865"  name="captions"/>
               </Parameters>
               <Effects>
                <GenericEffect id="3866" name = "AudioTransition" >
                 <Parameters>
                 <Parameter id="3867"   name="audioEdgeModType">
                  <Keyframes>
                  <Keyframe id="3868"  time="0/1" value="0" leadInLength="0/1"  />
                  </Keyframes>
                 </Parameter>
                 <Parameter id="3869"   name="audioTransitionType">
                  <Keyframes>
                  <Keyframe id="3870"  time="0/1" value="" leadInLength="0/1"  />
                  </Keyframes>
                 </Parameter>
                 </Parameters>
                 <MetaData>
                 </MetaData>
                </GenericEffect>
               </Effects>
               <Attributes>
                <Attribute id="3871" value="" name="ident"/>
                <Attribute id="3872" value="0" name="sampleRate"/>
                <Attribute id="3873" value="0" name="bitDepth"/>
                <Attribute id="3874" value="1" name="gain"/>
                <Attribute id="3875" value="0" name="mixToMono"/>
               </Attributes>
              </AudioTransition>
              <ImageTransition id="3876" start="780" duration="30" >
               <Transformer>
                <VectorParam id="3877"  name="translation">
                 <InterpolatingParam id="3878" interp="linr"  time="0/1" value="0" leadInLength="0/1"  />
                 <InterpolatingParam id="3879" interp="linr"  time="0/1" value="0" leadInLength="0/1"  />
                 <InterpolatingParam id="3880" interp="linr"  time="0/1" value="0" leadInLength="0/1"  />
                </VectorParam>
                <VectorParam id="3881"  name="rotation">
                 <InterpolatingParam id="3882" interp="linr"  time="0/1" value="0" leadInLength="0/1"  />
                 <InterpolatingParam id="3883" interp="linr"  time="0/1" value="0" leadInLength="0/1"  />
                 <InterpolatingParam id="3884" interp="linr"  time="0/1" value="0" leadInLength="0/1"  />
                </VectorParam>
                <VectorParam id="3885"  name="shear">
                 <InterpolatingParam id="3886" interp="linr"  time="0/1" value="0" leadInLength="0/1"  />
                 <InterpolatingParam id="3887" interp="linr"  time="0/1" value="0" leadInLength="0/1"  />
                 <InterpolatingParam id="3888" interp="linr"  time="0/1" value="0" leadInLength="0/1"  />
                </VectorParam>
                <VectorParam id="3889"  name="scale">
                 <InterpolatingParam id="3890" interp="linr"  time="0/1" value="1" leadInLength="0/1"  />
                 <InterpolatingParam id="3891" interp="linr"  time="0/1" value="1" leadInLength="0/1"  />
                 <InterpolatingParam id="3892" interp="linr"  time="0/1" value="1" leadInLength="0/1"  />
                </VectorParam>
                <VectorParam id="3893"  name="anchor">
                 <InterpolatingParam id="3894" interp="linr"  time="0/1" value="0" leadInLength="0/1"  />
                 <InterpolatingParam id="3895" interp="linr"  time="0/1" value="0" leadInLength="0/1"  />
                 <InterpolatingParam id="3896" interp="linr"  time="0/1" value="0" leadInLength="0/1"  />
                </VectorParam>
               </Transformer>
               <Parameters>
                <VectorParam id="3897"  name="sourceCrop">
                 <InterpolatingParam id="3898" interp="linr"  time="0/1" value="0" leadInLength="0/1"  />
                 <InterpolatingParam id="3899" interp="linr"  time="0/1" value="0" leadInLength="0/1"  />
                 <InterpolatingParam id="3900" interp="linr"  time="0/1" value="0" leadInLength="0/1"  />
                 <InterpolatingParam id="3901" interp="linr"  time="0/1" value="0" leadInLength="0/1"  />
                </VectorParam>
                <VectorParam id="3902"  name="geometryCrop">
                 <InterpolatingParam id="3903" interp="linr"  time="0/1" value="0" leadInLength="0/1"  />
                 <InterpolatingParam id="3904" interp="linr"  time="0/1" value="0" leadInLength="0/1"  />
                 <InterpolatingParam id="3905" interp="linr"  time="0/1" value="0" leadInLength="0/1"  />
                 <InterpolatingParam id="3906" interp="linr"  time="0/1" value="0" leadInLength="0/1"  />
                </VectorParam>
                <InterpolatingParam id="3907" interp="linr"  time="0/1" value="1" leadInLength="0/1"  name="opacity"/>
               </Parameters>
               <Effects>
                <GenericEffect id="3908" name = "VisualTransition" >
                 <Parameters>
                 <InterpolatingParam id="3909" interp="linr"  time="0/1" value="0.5" leadInLength="0/1"   name="leftFramePercentage"/>
                 <InterpolatingParam id="3910" interp="linr"  time="0/1" value="0.5" leadInLength="0/1"   name="rightFramePercentage"/>
                 <Parameter id="3911"   name="visualEdgeModType">
                  <Keyframes>
                  <Keyframe id="3912"  time="0/1" value="2" leadInLength="0/1"  />
                  </Keyframes>
                 </Parameter>
                 <Parameter id="3913"   name="visualTransitionType">
                  <Keyframes>
                  <Keyframe id="3914"  time="0/1" value="Fade" leadInLength="0/1"  />
                  </Keyframes>
                 </Parameter>
                 </Parameters>
                 <MetaData>
                 </MetaData>
                </GenericEffect>
               </Effects>
               <Attributes>
                <Attribute id="3915" value="" name="ident"/>
               </Attributes>
               <ExtraData>
                <Entry key="ZoomPanBin">
                 <ZoomPanBin id="3916"  >
                  <ZoomPanKeyframes>
                  </ZoomPanKeyframes>
                 </ZoomPanBin>
                </Entry>
               </ExtraData>
              </ImageTransition>
              <MetaData>
               <entry key="WinSubProjectDisplayName" val=""/>
              </MetaData>
             </UnifiedMedia>
            </Medias>
           </GenericTrack>
          </Tracks>
         </GenericMixer>
         <MetaData>
          <entry key="IsGroupExpanded" val="False"/>
          <entry key="WinGroupOrigin" val="Asset"/>
          <entry key="WinSubProjectDisplayName" val="Animated Title"/>
         </MetaData>
         <ExtraData>
          <Entry key="ZoomPanBin">
           <ZoomPanBin id="3917"  >
            <ZoomPanKeyframes>
             <ZoomPanKeyframe id="3918" timeRangeEnd="-9999999/1" timeRangeDuration="0/1" interpolaterName="linr"  />
            </ZoomPanKeyframes>
           </ZoomPanBin>
          </Entry>
         </ExtraData>
        </Group>
        <Group id="3919" start="698" duration="49" scalar="1" mediaStart="756" mediaDuration="49" baseWidthAttr="0" baseHeightAttr="0"  >
         <Parameters>
          <VectorParam id="3920"  name="sourceCrop">
           <InterpolatingParam id="3921" interp="linr"  time="0/1" value="0" leadInLength="0/1"  />
           <InterpolatingParam id="3922" interp="linr"  time="0/1" value="0" leadInLength="0/1"  />
           <InterpolatingParam id="3923" interp="linr"  time="0/1" value="0" leadInLength="0/1"  />
           <InterpolatingParam id="3924" interp="linr"  time="0/1" value="0" leadInLength="0/1"  />
          </VectorParam>
          <VectorParam id="3925"  name="geometryCrop">
           <InterpolatingParam id="3926" interp="linr"  time="-9999999/1" value="0" leadInLength="0/1"  interpolater="leadin-eioe"  />
           <InterpolatingParam id="3927" interp="linr"  time="-9999999/1" value="0" leadInLength="0/1"  interpolater="leadin-eioe"  />
           <InterpolatingParam id="3928" interp="linr"  time="-9999999/1" value="0" leadInLength="0/1"  interpolater="leadin-eioe"  />
           <InterpolatingParam id="3929" interp="linr"  time="-9999999/1" value="0" leadInLength="0/1"  interpolater="leadin-eioe"  />
          </VectorParam>
          <InterpolatingParam id="3930" interp="linr"  time="-9999999/1" value="1" leadInLength="0/1"  name="opacity"/>
          <Parameter id="3931"  name="captions"/>
          <InterpolatingParam id="3932" interp="linr"  time="0/1" value="1" leadInLength="0/1"  name="volume"/>
         </Parameters>
         <Transformer>
          <VectorParam id="3933"  name="translation">
           <InterpolatingParam id="3934" interp="linr"  time="-9999999/1" value="1.2001899474256561e-010" leadInLength="0/1"  />
           <InterpolatingParam id="3935" interp="linr"  time="-9999999/1" value="-5.4228621593210846e-011" leadInLength="0/1"  />
           <InterpolatingParam id="3936" interp="linr"  time="-9999999/1" value="0" leadInLength="0/1"  />
          </VectorParam>
          <VectorParam id="3937"  name="rotation">
           <InterpolatingParam id="3938" interp="linr"  time="-9999999/1" value="0" leadInLength="0/1"  />
           <InterpolatingParam id="3939" interp="linr"  time="-9999999/1" value="0" leadInLength="0/1"  />
           <InterpolatingParam id="3940" interp="linr"  time="-9999999/1" value="0" leadInLength="0/1"  />
          </VectorParam>
          <VectorParam id="3941"  name="shear">
           <InterpolatingParam id="3942" interp="linr"  time="-9999999/1" value="0" leadInLength="0/1"  />
           <InterpolatingParam id="3943" interp="linr"  time="-9999999/1" value="0" leadInLength="0/1"  />
           <InterpolatingParam id="3944" interp="linr"  time="-9999999/1" value="0" leadInLength="0/1"  />
          </VectorParam>
          <VectorParam id="3945"  name="scale">
           <InterpolatingParam id="3946" interp="linr"  time="-9999999/1" value="1" leadInLength="0/1"  />
           <InterpolatingParam id="3947" interp="linr"  time="-9999999/1" value="1" leadInLength="0/1"  />
           <InterpolatingParam id="3948" interp="linr"  time="-9999999/1" value="1" leadInLength="0/1"  />
          </VectorParam>
          <VectorParam id="3949"  name="anchor">
           <InterpolatingParam id="3950" interp="linr"  time="0/1" value="0.5" leadInLength="0/1"  />
           <InterpolatingParam id="3951" interp="linr"  time="0/1" value="0.5" leadInLength="0/1"  />
           <InterpolatingParam id="3952" interp="linr"  time="0/1" value="0" leadInLength="0/1"  />
          </VectorParam>
         </Transformer>
         <GenericMixer id="3953"  >
          <MetaData>
          </MetaData>
          <Tracks>
           <GenericTrack id="3954"  >
            <Attributes>
             <Attribute id="3955" value="" name="ident"/>
             <Attribute id="3956" value="0" name="audioMuted"/>
             <Attribute id="3957" value="0" name="videoHidden"/>
            </Attributes>
            <MetaData>
             <entry key="IsLocked" val="False"/>
             <entry key="WinTrackHeight" val="0"/>
            </MetaData>
            <Medias>
             <VMFile id="3958" start="0" duration="600" scalar="1/1" mediaStart="0/1" mediaDuration="600/1" trackNumber="0" src="22" >
              <Transformer>
               <VectorParam id="3959"  name="translation">
                <InterpolatingParam id="3960" interp="linr"  time="-9999999/1" value="0.50000000001430611" leadInLength="0/1"  />
                <InterpolatingParam id="3961" interp="linr"  time="-9999999/1" value="0.50000000010814438" leadInLength="0/1"  />
                <InterpolatingParam id="3962" interp="linr"  time="-9999999/1" value="3.4106051316488567e-010" leadInLength="0/1"  />
               </VectorParam>
               <VectorParam id="3963"  name="rotation">
                <InterpolatingParam id="3964" interp="linr"  time="-9999999/1" value="0" leadInLength="0/1"  />
                <InterpolatingParam id="3965" interp="linr"  time="-9999999/1" value="0" leadInLength="0/1"  />
                <InterpolatingParam id="3966" interp="linr"  time="-9999999/1" value="0" leadInLength="0/1"  />
               </VectorParam>
               <VectorParam id="3967"  name="shear">
                <InterpolatingParam id="3968" interp="linr"  time="-9999999/1" value="0" leadInLength="0/1"  />
                <InterpolatingParam id="3969" interp="linr"  time="-9999999/1" value="0" leadInLength="0/1"  />
                <InterpolatingParam id="3970" interp="linr"  time="-9999999/1" value="0" leadInLength="0/1"  />
               </VectorParam>
               <VectorParam id="3971"  name="scale">
                <InterpolatingParam id="3972" interp="linr"  time="-9999999/1" value="1.0968750000001026" leadInLength="0/1"  />
                <InterpolatingParam id="3973" interp="linr"  time="-9999999/1" value="1" leadInLength="0/1"  />
                <InterpolatingParam id="3974" interp="linr"  time="-9999999/1" value="1" leadInLength="0/1"  />
               </VectorParam>
               <VectorParam id="3975"  name="anchor">
                <InterpolatingParam id="3976" interp="linr"  time="0/1" value="0" leadInLength="0/1"  />
                <InterpolatingParam id="3977" interp="linr"  time="0/1" value="0" leadInLength="0/1"  />
                <InterpolatingParam id="3978" interp="linr"  time="0/1" value="0" leadInLength="0/1"  />
               </VectorParam>
              </Transformer>
              <Parameters>
               <VectorParam id="3979"  name="sourceCrop">
                <InterpolatingParam id="3980" interp="linr"  time="0/1" value="0" leadInLength="0/1"  />
                <InterpolatingParam id="3981" interp="linr"  time="0/1" value="0" leadInLength="0/1"  />
                <InterpolatingParam id="3982" interp="linr"  time="0/1" value="0" leadInLength="0/1"  />
                <InterpolatingParam id="3983" interp="linr"  time="0/1" value="0" leadInLength="0/1"  />
               </VectorParam>
               <VectorParam id="3984"  name="geometryCrop">
                <InterpolatingParam id="3985" interp="linr"  time="-9999999/1" value="0" leadInLength="0/1"  interpolater="leadin-eioe"  />
                <InterpolatingParam id="3986" interp="linr"  time="-9999999/1" value="0" leadInLength="0/1"  interpolater="leadin-eioe"  />
                <InterpolatingParam id="3987" interp="linr"  time="-9999999/1" value="0" leadInLength="0/1"  interpolater="leadin-eioe"  />
                <InterpolatingParam id="3988" interp="linr"  time="-9999999/1" value="0" leadInLength="0/1"  interpolater="leadin-eioe"  />
               </VectorParam>
               <InterpolatingParam id="3989" interp="linr"  time="-9999999/1" value="1" leadInLength="0/1"  name="opacity"/>
              </Parameters>
              <Attributes>
               <Attribute id="3990" value="" name="ident"/>
              </Attributes>
              <MetaData>
               <entry key="WinSubProjectDisplayName" val=""/>
              </MetaData>
              <ExtraData>
               <Entry key="ZoomPanBin">
                <ZoomPanBin id="3991"  >
                 <ZoomPanKeyframes>
                  <ZoomPanKeyframe id="3992" timeRangeEnd="-9999999/1" timeRangeDuration="0/1" interpolaterName="linr"  />
                 </ZoomPanKeyframes>
                </ZoomPanBin>
               </Entry>
              </ExtraData>
             </VMFile>
            </Medias>
           </GenericTrack>
           <GenericTrack id="3993"  >
            <Attributes>
             <Attribute id="3994" value="" name="ident"/>
             <Attribute id="3995" value="0" name="audioMuted"/>
             <Attribute id="3996" value="0" name="videoHidden"/>
            </Attributes>
            <MetaData>
             <entry key="IsLocked" val="False"/>
             <entry key="WinTrackHeight" val="0"/>
            </MetaData>
            <Medias>
             <UnifiedMedia id="3997"  >
              <AudioTransition id="3998" start="30" duration="30" >
               <Parameters>
                <InterpolatingParam id="3999" interp="linr"  time="0/1" value="1" leadInLength="0/1"  name="volume"/>
                <Parameter id="4000"  name="captions"/>
               </Parameters>
               <Effects>
                <GenericEffect id="4001" name = "AudioTransition" >
                 <Parameters>
                 <Parameter id="4002"   name="audioEdgeModType">
                  <Keyframes>
                  <Keyframe id="4003"  time="0/1" value="0" leadInLength="0/1"  />
                  </Keyframes>
                 </Parameter>
                 <Parameter id="4004"   name="audioTransitionType">
                  <Keyframes>
                  <Keyframe id="4005"  time="0/1" value="" leadInLength="0/1"  />
                  </Keyframes>
                 </Parameter>
                 </Parameters>
                 <MetaData>
                 </MetaData>
                </GenericEffect>
               </Effects>
               <Attributes>
                <Attribute id="4006" value="" name="ident"/>
                <Attribute id="4007" value="0" name="sampleRate"/>
                <Attribute id="4008" value="0" name="bitDepth"/>
                <Attribute id="4009" value="1" name="gain"/>
                <Attribute id="4010" value="0" name="mixToMono"/>
               </Attributes>
              </AudioTransition>
              <ImageTransition id="4011" start="30" duration="30" >
               <Transformer>
                <VectorParam id="4012"  name="translation">
                 <InterpolatingParam id="4013" interp="linr"  time="0/1" value="0" leadInLength="0/1"  />
                 <InterpolatingParam id="4014" interp="linr"  time="0/1" value="0" leadInLength="0/1"  />
                 <InterpolatingParam id="4015" interp="linr"  time="0/1" value="0" leadInLength="0/1"  />
                </VectorParam>
                <VectorParam id="4016"  name="rotation">
                 <InterpolatingParam id="4017" interp="linr"  time="0/1" value="0" leadInLength="0/1"  />
                 <InterpolatingParam id="4018" interp="linr"  time="0/1" value="0" leadInLength="0/1"  />
                 <InterpolatingParam id="4019" interp="linr"  time="0/1" value="0" leadInLength="0/1"  />
                </VectorParam>
                <VectorParam id="4020"  name="shear">
                 <InterpolatingParam id="4021" interp="linr"  time="0/1" value="0" leadInLength="0/1"  />
                 <InterpolatingParam id="4022" interp="linr"  time="0/1" value="0" leadInLength="0/1"  />
                 <InterpolatingParam id="4023" interp="linr"  time="0/1" value="0" leadInLength="0/1"  />
                </VectorParam>
                <VectorParam id="4024"  name="scale">
                 <InterpolatingParam id="4025" interp="linr"  time="0/1" value="1" leadInLength="0/1"  />
                 <InterpolatingParam id="4026" interp="linr"  time="0/1" value="1" leadInLength="0/1"  />
                 <InterpolatingParam id="4027" interp="linr"  time="0/1" value="1" leadInLength="0/1"  />
                </VectorParam>
                <VectorParam id="4028"  name="anchor">
                 <InterpolatingParam id="4029" interp="linr"  time="0/1" value="0" leadInLength="0/1"  />
                 <InterpolatingParam id="4030" interp="linr"  time="0/1" value="0" leadInLength="0/1"  />
                 <InterpolatingParam id="4031" interp="linr"  time="0/1" value="0" leadInLength="0/1"  />
                </VectorParam>
               </Transformer>
               <Parameters>
                <VectorParam id="4032"  name="sourceCrop">
                 <InterpolatingParam id="4033" interp="linr"  time="0/1" value="0" leadInLength="0/1"  />
                 <InterpolatingParam id="4034" interp="linr"  time="0/1" value="0" leadInLength="0/1"  />
                 <InterpolatingParam id="4035" interp="linr"  time="0/1" value="0" leadInLength="0/1"  />
                 <InterpolatingParam id="4036" interp="linr"  time="0/1" value="0" leadInLength="0/1"  />
                </VectorParam>
                <VectorParam id="4037"  name="geometryCrop">
                 <InterpolatingParam id="4038" interp="linr"  time="0/1" value="0" leadInLength="0/1"  />
                 <InterpolatingParam id="4039" interp="linr"  time="0/1" value="0" leadInLength="0/1"  />
                 <InterpolatingParam id="4040" interp="linr"  time="0/1" value="0" leadInLength="0/1"  />
                 <InterpolatingParam id="4041" interp="linr"  time="0/1" value="0" leadInLength="0/1"  />
                </VectorParam>
                <InterpolatingParam id="4042" interp="linr"  time="0/1" value="1" leadInLength="0/1"  name="opacity"/>
               </Parameters>
               <Effects>
                <GenericEffect id="4043" name = "VisualTransition" >
                 <Parameters>
                 <InterpolatingParam id="4044" interp="linr"  time="0/1" value="0.5" leadInLength="0/1"   name="leftFramePercentage"/>
                 <InterpolatingParam id="4045" interp="linr"  time="0/1" value="0.5" leadInLength="0/1"   name="rightFramePercentage"/>
                 <Parameter id="4046"   name="visualEdgeModType">
                  <Keyframes>
                  <Keyframe id="4047"  time="0/1" value="1" leadInLength="0/1"  />
                  </Keyframes>
                 </Parameter>
                 <Parameter id="4048"   name="visualTransitionType">
                  <Keyframes>
                  <Keyframe id="4049"  time="0/1" value="Fade" leadInLength="0/1"  />
                  </Keyframes>
                 </Parameter>
                 </Parameters>
                 <MetaData>
                 </MetaData>
                </GenericEffect>
               </Effects>
               <Attributes>
                <Attribute id="4050" value="" name="ident"/>
               </Attributes>
               <ExtraData>
                <Entry key="ZoomPanBin">
                 <ZoomPanBin id="4051"  >
                  <ZoomPanKeyframes>
                  </ZoomPanKeyframes>
                 </ZoomPanBin>
                </Entry>
               </ExtraData>
              </ImageTransition>
              <MetaData>
               <entry key="WinSubProjectDisplayName" val=""/>
              </MetaData>
             </UnifiedMedia>
             <Callout id="4052" start="60" duration="750" scalar="1/1" mediaStart="-90/1" mediaDuration="750/1" >
              <Transformer>
               <VectorParam id="4053"  name="translation">
                <InterpolatingParam id="4054" interp="linr"  time="-9999999/1" value="15.776892430798052" leadInLength="0/1"  />
                <InterpolatingParam id="4055" interp="linr"  time="-9999999/1" value="265.04183266966731" leadInLength="0/1"  />
                <InterpolatingParam id="4056" interp="linr"  time="-9999999/1" value="-3.4106051316482886e-010" leadInLength="0/1"  />
               </VectorParam>
               <VectorParam id="4057"  name="rotation">
                <InterpolatingParam id="4058" interp="linr"  time="-9999999/1" value="0" leadInLength="0/1"  />
                <InterpolatingParam id="4059" interp="linr"  time="-9999999/1" value="0" leadInLength="0/1"  />
                <InterpolatingParam id="4060" interp="linr"  time="-9999999/1" value="0" leadInLength="0/1"  />
               </VectorParam>
               <VectorParam id="4061"  name="shear">
                <InterpolatingParam id="4062" interp="linr"  time="-9999999/1" value="0" leadInLength="0/1"  />
                <InterpolatingParam id="4063" interp="linr"  time="-9999999/1" value="0" leadInLength="0/1"  />
                <InterpolatingParam id="4064" interp="linr"  time="-9999999/1" value="0" leadInLength="0/1"  />
               </VectorParam>
               <VectorParam id="4065"  name="scale">
                <InterpolatingParam id="4066" interp="linr"  time="-9999999/1" value="2.1959163346607737" leadInLength="0/1"  />
                <InterpolatingParam id="4067" interp="linr"  time="-9999999/1" value="0.48007968127316314" leadInLength="0/1"  />
                <InterpolatingParam id="4068" interp="linr"  time="-9999999/1" value="1" leadInLength="0/1"  />
               </VectorParam>
               <VectorParam id="4069"  name="anchor">
                <InterpolatingParam id="4070" interp="linr"  time="0/1" value="0" leadInLength="0/1"  />
                <InterpolatingParam id="4071" interp="linr"  time="0/1" value="0" leadInLength="0/1"  />
                <InterpolatingParam id="4072" interp="linr"  time="0/1" value="0" leadInLength="0/1"  />
               </VectorParam>
              </Transformer>
              <Parameters>
               <VectorParam id="4073"  name="sourceCrop">
                <InterpolatingParam id="4074" interp="linr"  time="0/1" value="0" leadInLength="0/1"  />
                <InterpolatingParam id="4075" interp="linr"  time="0/1" value="0" leadInLength="0/1"  />
                <InterpolatingParam id="4076" interp="linr"  time="0/1" value="0" leadInLength="0/1"  />
                <InterpolatingParam id="4077" interp="linr"  time="0/1" value="0" leadInLength="0/1"  />
               </VectorParam>
               <VectorParam id="4078"  name="geometryCrop">
                <InterpolatingParam id="4079" interp="linr"  time="-9999999/1" value="0" leadInLength="0/1"  interpolater="leadin-eioe"  />
                <InterpolatingParam id="4080" interp="linr"  time="-9999999/1" value="0" leadInLength="0/1"  interpolater="leadin-eioe"  />
                <InterpolatingParam id="4081" interp="linr"  time="-9999999/1" value="0" leadInLength="0/1"  interpolater="leadin-eioe"  />
                <InterpolatingParam id="4082" interp="linr"  time="-9999999/1" value="0" leadInLength="0/1"  interpolater="leadin-eioe"  />
               </VectorParam>
               <InterpolatingParam id="4083" interp="linr"  time="-9999999/1" value="1" leadInLength="0/1"  name="opacity"/>
              </Parameters>
              <Attributes>
               <Attribute id="4084"  name="vectorNode">
                <VectorNode id="4085" kind="TypeWinText"  >
                 <DoubleParameters>
                  <InterpolatingParam id="4086" interp="linr"  time="0/1" value="5" leadInLength="0/1"  name="Style"/>
                  <InterpolatingParam id="4087" interp="linr"  time="0/1" value="320" leadInLength="0/1"  name="height"/>
                  <InterpolatingParam id="4088" interp="linr"  time="0/1" value="0" leadInLength="0/1"  name="textDropShadow"/>
                  <InterpolatingParam id="4089" interp="linr"  time="0/1" value="0" leadInLength="0/1"  name="textIgnoresOpacity"/>
                  <InterpolatingParam id="4090" interp="linr"  time="0/1" value="1" leadInLength="0/1"  name="textRectHeight"/>
                  <InterpolatingParam id="4091" interp="linr"  time="0/1" value="1" leadInLength="0/1"  name="textRectWidth"/>
                  <InterpolatingParam id="4092" interp="linr"  time="0/1" value="0" leadInLength="0/1"  name="textRectX"/>
                  <InterpolatingParam id="4093" interp="linr"  time="0/1" value="0" leadInLength="0/1"  name="textRectY"/>
                  <InterpolatingParam id="4094" interp="linr"  time="0/1" value="0" leadInLength="0/1"  name="textVerticalAlign"/>
                  <InterpolatingParam id="4095" interp="linr"  time="0/1" value="480" leadInLength="0/1"  name="width"/>
                 </DoubleParameters>
                 <StringParameters>
                  <Parameter id="4096"  name="filename">
                   <Keyframes>
                   <Keyframe id="4097"  time="0/1" value="C:\Program Files (x86)\TechSmith\Camtasia Studio 8\Media\Studio\Callouts\trans_100x100.xml" leadInLength="0/1"  />
                   </Keyframes>
                  </Parameter>
                  <Parameter id="4098"  name="name">
                   <Keyframes>
                   <Keyframe id="4099"  time="0/1" value="Text Callout" leadInLength="0/1"  />
                   </Keyframes>
                  </Parameter>
                  <Parameter id="4100"  name="text">
                   <Keyframes>
                   <Keyframe id="4101"  time="0/1" value="{\rtf1\ansi\ansicpg1252\deff0\deflang1033{\fonttbl{\f0\fswiss\fprq2\fcharset0 Impact;}{\f1\fswiss\fprq2\fcharset0 Tahoma;}}&#xD;&#xa;{\colortbl ;\red218\green182\blue1;\red132\green146\blue155;}&#xD;&#xa;\viewkind4\uc1\pard\qc\cf1\f0\fs96 Complete Guide to Build IOT Things from Scratch to Market\cf2\b\f1\par&#xD;&#xa;}&#xD;&#xa;" leadInLength="0/1"  />
                   </Keyframes>
                  </Parameter>
                  <Parameter id="4102"  name="xmlContent">
                   <Keyframes>
                   <Keyframe id="4103"  time="0/1" value="﻿&lt;?xml version=&quot;1.0&quot;?&gt;&#xa;&#xa;&lt;Overlay version=&quot;1.0.1&quot;&gt;&#xa;&#xa;&lt;Overlay_Filename&gt;trans_100x100.png&lt;/Overlay_Filename&gt;&#xa;&lt;Overlay_Name&gt;Text Callout&lt;/Overlay_Name&gt;&#xa;&lt;Overlay_XGrow&gt;0&lt;/Overlay_XGrow&gt;&#xa;&lt;Overlay_YGrow&gt;0&lt;/Overlay_YGrow&gt;&#xa;&lt;Text_Top&gt;0&lt;/Text_Top&gt;&#xa;&lt;Text_Left&gt;0&lt;/Text_Left&gt;&#xa;&lt;Text_Bottom&gt;0&lt;/Text_Bottom&gt;&#xa;&lt;Text_Right&gt;0&lt;/Text_Right&gt;&#xa;&lt;Vector_Grow&gt;0&lt;/Vector_Grow&gt;&#xa;&lt;CanRotate_90&gt;0&lt;/CanRotate_90&gt;&#xa;&lt;CanRotate_180&gt;0&lt;/CanRotate_180&gt;&#xa;&lt;CanRotate_270&gt;0&lt;/CanRotate_270&gt;&#xa;&lt;CanFlip_X&gt;0&lt;/CanFlip_X&gt;&#xa;&lt;CanFlip_X90&gt;0&lt;/CanFlip_X90&gt;&#xa;&lt;CanFlip_X180&gt;0&lt;/CanFlip_X180&gt;&#xa;&lt;CanFlip_X270&gt;0&lt;/CanFlip_X270&gt;&#xa;&lt;Fill_Color&gt;0&lt;/Fill_Color&gt;&#xa;&lt;Border_Color&gt;0&lt;/Border_Color&gt;&#xa;&lt;Style&gt;5&lt;/Style&gt;&#xa;&lt;/Overlay&gt;" leadInLength="0/1"  />
                   </Keyframes>
                  </Parameter>
                 </StringParameters>
                </VectorNode>
               </Attribute>
              </Attributes>
              <MetaData>
               <entry key="WinSubProjectDisplayName" val=""/>
              </MetaData>
              <LeftEdgeMods length="0/1" groupName="OpacityFade">
               <EdgeMod parameter="4083">
                <FadeInFunc id="3124"  />
               </EdgeMod>
              </LeftEdgeMods>
              <RightEdgeMods length="0/1" groupName="OpacityFade">
               <EdgeMod parameter="4083">
                <FadeOutFunc id="3370"  />
               </EdgeMod>
              </RightEdgeMods>
              <ExtraData>
               <Entry key="ZoomPanBin">
                <ZoomPanBin id="4104"  >
                 <ZoomPanKeyframes>
                  <ZoomPanKeyframe id="4105" timeRangeEnd="-9999999/1" timeRangeDuration="0/1" interpolaterName="linr"  />
                 </ZoomPanKeyframes>
                </ZoomPanBin>
               </Entry>
              </ExtraData>
             </Callout>
            </Medias>
           </GenericTrack>
          </Tracks>
         </GenericMixer>
         <MetaData>
          <entry key="IsGroupExpanded" val="False"/>
          <entry key="WinGroupOrigin" val="Asset"/>
          <entry key="WinSubProjectDisplayName" val="Animated Title"/>
         </MetaData>
         <ExtraData>
          <Entry key="ZoomPanBin">
           <ZoomPanBin id="4106"  >
            <ZoomPanKeyframes>
             <ZoomPanKeyframe id="4107" timeRangeEnd="-9999999/1" timeRangeDuration="0/1" interpolaterName="linr"  />
            </ZoomPanKeyframes>
           </ZoomPanBin>
          </Entry>
         </ExtraData>
        </Group>
        <StitchedMedia id="4108" start="1953" duration="192" scalar="1/1" mediaStart="1993/1" mediaDuration="192/1" minMediaStart="0/1" >
         <Transformer>
          <VectorParam id="4109"  name="translation">
           <InterpolatingParam id="4110" interp="linr"  time="-9999999/1" value="554.86993854781838" leadInLength="0/1"  />
           <InterpolatingParam id="4111" interp="linr"  time="-9999999/1" value="-246.68540095128787" leadInLength="0/1"  />
           <InterpolatingParam id="4112" interp="linr"  time="-9999999/1" value="0" leadInLength="0/1"  />
          </VectorParam>
          <VectorParam id="4113"  name="rotation">
           <InterpolatingParam id="4114" interp="linr"  time="-9999999/1" value="0" leadInLength="0/1"  />
           <InterpolatingParam id="4115" interp="linr"  time="-9999999/1" value="0" leadInLength="0/1"  />
           <InterpolatingParam id="4116" interp="linr"  time="-9999999/1" value="0" leadInLength="0/1"  />
          </VectorParam>
          <VectorParam id="4117"  name="shear">
           <InterpolatingParam id="4118" interp="linr"  time="-9999999/1" value="0" leadInLength="0/1"  />
           <InterpolatingParam id="4119" interp="linr"  time="-9999999/1" value="0" leadInLength="0/1"  />
           <InterpolatingParam id="4120" interp="linr"  time="-9999999/1" value="0" leadInLength="0/1"  />
          </VectorParam>
          <VectorParam id="4121"  name="scale">
           <InterpolatingParam id="4122" interp="linr"  time="-9999999/1" value="0.50283902144307557" leadInLength="0/1"  />
           <InterpolatingParam id="4123" interp="linr"  time="-9999999/1" value="0.50283902144307535" leadInLength="0/1"  />
           <InterpolatingParam id="4124" interp="linr"  time="-9999999/1" value="1" leadInLength="0/1"  />
          </VectorParam>
          <VectorParam id="4125"  name="anchor">
           <InterpolatingParam id="4126" interp="linr"  time="0/1" value="0" leadInLength="0/1"  />
           <InterpolatingParam id="4127" interp="linr"  time="0/1" value="0" leadInLength="0/1"  />
           <InterpolatingParam id="4128" interp="linr"  time="0/1" value="0" leadInLength="0/1"  />
          </VectorParam>
         </Transformer>
         <Parameters>
          <VectorParam id="4129"  name="sourceCrop">
           <InterpolatingParam id="4130" interp="linr"  time="0/1" value="0" leadInLength="0/1"  />
           <InterpolatingParam id="4131" interp="linr"  time="0/1" value="0" leadInLength="0/1"  />
           <InterpolatingParam id="4132" interp="linr"  time="0/1" value="0" leadInLength="0/1"  />
           <InterpolatingParam id="4133" interp="linr"  time="0/1" value="0" leadInLength="0/1"  />
          </VectorParam>
          <VectorParam id="4134"  name="geometryCrop">
           <InterpolatingParam id="4135" interp="linr"  time="-9999999/1" value="109.00398406602926" leadInLength="0/1"  />
           <InterpolatingParam id="4136" interp="linr"  time="-9999999/1" value="0" leadInLength="0/1"  />
           <InterpolatingParam id="4137" interp="linr"  time="-9999999/1" value="40.159362547012108" leadInLength="0/1"  />
           <InterpolatingParam id="4138" interp="linr"  time="-9999999/1" value="68.844621512997122" leadInLength="0/1"  />
          </VectorParam>
          <InterpolatingParam id="4139" interp="linr"  time="-9999999/1" value="1" leadInLength="0/1"  name="opacity"/>
          <InterpolatingParam id="4140" interp="linr"  time="0/1" value="1" leadInLength="0/1"  name="cursorOpacity"/>
          <InterpolatingParam id="4141" interp="linr"  time="0/1" value="1" leadInLength="0/1"  name="cursorScale"/>
          <InterpolatingParam id="4142" interp="linr"  time="0/1" value="1" leadInLength="0/1"  name="volume"/>
          <Parameter id="4143"  name="captions"/>
         </Parameters>
         <Effects>
          <GenericEffect id="4144" name = "NoiseReduction" >
           <Parameters>
           <InterpolatingParam id="4145" interp="linr"  time="0/1" value="27.599999999999998" leadInLength="0/1"   name="denoiserAmount"/>
           <InterpolatingParam id="4146" interp="linr"  time="0/1" value="2.2799999999999994" leadInLength="0/1"   name="denoiserThreshold"/>
           <Parameter id="4147"   name="noiseProfile">
            <Keyframes>
            <Keyframe id="4148"  time="0/1" value="FBAAAAIAAABErAAAAQIAAECjT8IM7z/CecJcwnx0b8JJeWrCOs1jwhL/YsI99mbCrp5ywhFmd8LI&#xD;&#xa;KXrCNkx8wqaaf8JKeILCDsGCwts/hcLEfIbC+tmHwnV0iMKaAIvCbJ2Fwht9g8K6wIXCxoWFwpMj&#xD;&#xa;iML40IrCJcGMwqbUjMJc7YrCaJuLwhuTjcILQ47CigORwtWEkMJ9JpPCVfuVwqeXlcLRM5TC3bGU&#xD;&#xa;wijxlcJ1+pTCjp2ZwgBdnMJlaZnCh32OwqiMj8JMsZfCrKeZwhLzmsL2RJzCnR2hwiyvosIKFJ7C&#xD;&#xa;y/+awmewncKIoZ3C74Kgwnlzo8Jii6LCMl6iwraOpcJlm6XC7xWpwlJNrMK4SanC2VapwoE1rcIP&#xD;&#xa;hKvCaPSpwj5gp8IAjaXC9x2qwrRCrcJlWq/CKiGswpvqq8I8ra/C78+vwlBZrsKjiq3C4cauwsrV&#xD;&#xa;rsKtA6zCDuKswpzIqcLUvqjCLwirwqpIq8JBCK/CDG6wwttIsMKXPbLCIoCtwow4qsJfF6/CtDau&#xD;&#xa;wreWrsL/fq7C0A6uwoRhr8KGTa7CIo+swo4Jr8KYBK/CDOawws6/s8LMhLLCV9CxwpYossLhnbfC&#xD;&#xa;r763wqOCuMJqw7jCzAm3wq6Ut8IyUbLCpm+rwg8IssIN47fC9lK1wrC+tcL+mbXCpse4wp7quMKA&#xD;&#xa;lLnCig25whR4t8J2KbbCSRu4wiVuucKr/LjCyhu6wgQBucL7M7zCEw66wmbHt8JQmbnCFFa4wlJ4&#xD;&#xa;t8JY2rLCiOW0wo9bvMKqUb7CxHS7wlwQucIyH7nCqKa5wjyGt8J0ObvCIQK9wh7OucKh+bzCKVy+&#xD;&#xa;wswBvcLTCLvCQtK6wq55ucKIE73C/V2+wtQbusKcL7nC/Ia3wlBTtcLA17XCBMG7wujxvsI6RMDC&#xD;&#xa;3ue+wtT1vMKOmbvCcPu4wuKWuMJgm7rCMMq7wiIxu8Jk7rjC4EK5wm83vMIwMr7CtjbBwgAnvsIp&#xD;&#xa;vLnCwfy6wqBrvcK8Sr3C9Ma9wlTlvMIqR7vCpLW8wpREvcJGt7fC4A+5wia2vMLSmrrCVKS7wnRu&#xD;&#xa;wMIbr7/CVAC/wg5dvcL/g7/CZEfBwsAiwMINHL/C+wjAwkhVwcLEhr/COH68wvQevcK0fbzCECq4&#xD;&#xa;wjSbvcJfzsHCorW+whqLv8Luz8LCqLHDwrlLwsK7ZsLCwP/BwrGowMJczb/ChFq/wj9EwsKQlMLC&#xD;&#xa;ZRjCwqQ1wsKjhMLCHo7DwtSlwcLXRsLCslzCwmUZv8KKw7XCCwq5wizZwcJUpcDCUnvBwsgdwMKH&#xD;&#xa;/8DCXb/Bwt5xwsLDJsTCADK/wmgivsJY+8PCQjfFwhwMxsL02cPCyInDwqWZxsJGVMTCuC3FwnBj&#xD;&#xa;x8JElcXCXIjBwvxGt8Jrw7jC0LXFwlTPxcLE8MTCWXnEwoQnw8IMQsXC+9XEwnh5wcL0E8LCimrB&#xD;&#xa;wsY3wcIgXMTCn8/Dwh+sw8IhaMbCaMzDwsmMwsJghcDC5SLDwnlnw8I4CMHCrxq3wtzwtcJXJMPC&#xD;&#xa;cgfHwo8ZxMJ/ScfCYiTGwkByxcJkpMXCrpPDwqwTxcIDwcPC3i7CwrrnxcJML8bCej7FwlddyMIM&#xD;&#xa;R8jCssPHwqpQxsLpf8XCSoTEwkPawsLC6LrC+Oa1wqc9v8KENcTCcSbGwvgkw8K9z8HCii3EwmMk&#xD;&#xa;xsLSG8fCmS3GwtckxcJYM8XCMt7Fws3iw8LCB8PCiWLBwsbow8JkIsfCIQ3HwmFExcL6b8bCWl/F&#xD;&#xa;wunPvsJEKLfCKuW9wvrNw8J+8sDCZ9jDwiRSxMJ8XsPCaLDEwjBwyMLM6cXCgp3Fwnmgx8I+I8bC&#xD;&#xa;PYDCwmHIxcIr4cjCdgPHwvoUx8JMv8fCL9fGwlCKxMK41MHCMiXCwuoPwcI88cLCytvGwiaGxsLX&#xD;&#xa;jcnCCkLZwo5P9cLQgPjC4jf4wtTQ98L7//fCM0f2wuIu9sIsq/fC2oj5wnpm9sKGHvXCz973wtJv&#xD;&#xa;+ML0pPbC+Jr5wsL198LIA/fCjMv4wgy9+cKuZfjCMDj1who79sIUCfbCrB/4woSD+MLCtvbCZIv2&#xD;&#xa;wjhg+cLSb/fCRTn2wl5s9cLY6vTCZJH1wjyD98KcSffCtpzzwqWc9MJWN/jCIJT6wsVQ98JUmPfC&#xD;&#xa;rob3wtyU9MLZDvXCtg74wjbG+cJvKfjCxdP3wrBI+MIRoPfC4o/3wnxs9cJGg/bCUHX2wrJn+MIE&#xD;&#xa;nPnCFrT2whAH9sL7LffCrkT7ws76+cLQDvjC+4r3wqmQ9cKQ8vfC7vz5wh6Q+cIU8/nCov74wqyq&#xD;&#xa;+MJYl/jCnvn4wm75+MJymPfCFrf4wrjl+MJyC/rCwuH2wrVo9cL8KvfCRgL5wmKO+MK8tvjCjAP6&#xD;&#xa;woKE+cLanPfC4OL1wpvC98LQ9PnCHmr4wn5j+cJIvfjCRHz2wljP9MJ4B/XCeRL3wtr198JI1ffC&#xD;&#xa;nLv3wra6+MLuPPjCZhj2wubG+MIavvjCdoT6wp5k+cJGcvrCbFz5wheK9sLUnvfClvz3wnwT+MLa&#xD;&#xa;uffCmib3wjQP98IK9/jCzqD4wnKk+MKJE/fC8jv5whD4+cJQTvfCfFX2wraE+MJCMvnClhT4wtrx&#xD;&#xa;+MJ8IvnCajn3wlAF+MLw8vfCIir4wgwy98J0cfTCKCf3wkLx98IyZvbCt/X0wuqC9cJgc/bCUG/4&#xD;&#xa;wmoo+MJWd/fCdP/1wshu9sLmDPfCgRr4wsxa98KmKvfCHMn6wkbw+8LTHffCYL32wuBy+MLMbPjC&#xD;&#xa;gDn2wvZa9sLcHPfClGwDw6KjT8KM7z/C6cJcwmN0b8JbemrCxs5jwu3/YsJ79mbCqJ9ywi5md8Ik&#xD;&#xa;LHrCiUx8wi6cf8KEeILCWcGCwvA+hcK1e4bC59eHwqVwiMKg/YrC6puFwvV7g8Iev4XCIIWFwhgl&#xD;&#xa;iMLg04rC88OMwqfUjMJl7YrC8pqLwhySjcI9Qo7C3QORwiWJkMKxJpPCT/aVwkiVlcJINZTCqLiU&#xD;&#xa;wmT1lcLJ+ZTCR56ZwkpenMI6bZnC13uOwtKJj8KJrJfCjqSZwqj1msKHQpzCJCOhwpm2osJCEZ7C&#xD;&#xa;CveawrWqncKaoZ3CSoqgwlB6o8JDkKLCfF2iwk2XpcKvyKXCLy+pwhA2rMJwSqnCAUqpwmcjrcJr&#xD;&#xa;q6vCeyyqwn50p8J+iaXCiSuqwi5GrcJkbq/Cj06swrIcrMJywK/CnMyvwsphrsJfla3Cfgyvwu8A&#xD;&#xa;r8KNGazCMPGswqbbqcL/x6jC3A2rwno5q8KS467C5EywwjAKsMJyY7LCJretwiNKqsIXCa/C/R6u&#xD;&#xa;wuSWrsI0gq7CcySuwq2zr8Idq67C6PqswkBtr8ITTq/Cs1KxwsZftMJDB7PClCCywjlGssIuyLfC&#xD;&#xa;YC+4wuoHucLxarjCEh63wp8suMIw/7LCYdWrws5VssK1srfCi+21wuwntsL6m7XCGWa4wpetuMIM&#xD;&#xa;VrnCcxi5wiVst8J2Q7bCHCq4wsqSucJUDrnC1Je6wqAJusISirzC2Iy6ws9QuMIDq7nC7Uu4wh6+&#xD;&#xa;t8JmE7PCbs+0woZyu8LKEr7C7Jq7wlypuMJtNbnCIPO5woeAt8KF8LrCrmm8wmRXucJ2s7zC+HG+&#xD;&#xa;wr5KvMIHZLrC0oC6wnq5ucL0SL3CCHK+wsgYusJ3BLnCXs+3wj2MtcKcELbC5/+7wi0vv8LKu8DC&#xD;&#xa;ENe+wixNvcJc6rvCFE25wmroucIm4bvCbHK8wht/u8KeXbnCc9e5wpWAvMI6Nr7Cx7HBwpStvsIE&#xD;&#xa;P7rCa3u7wqLmvcL+Mr7Cdoe+wnhpvcKw07vCUqe8wiI3vcKmbrfCuo24wlajvMIZc7rC0pS7wp4h&#xD;&#xa;wcJWJ8DCZFO/wpNXvcIsh7/CboTBwt5XwMLUO7/C3s2/wsarwcKUDcDC3Ou8wiY/vcLKBb3Car64&#xD;&#xa;wvKbvcKc/cDCzfK9wpWgvsIQP8LCnhnDwmAqwsIyfMPCfWLCwh6CwMKGrL/CoDG/wqh+wcLU1MLC&#xD;&#xa;uB3Cwm0AwsL46MHCWOjCwsZrwcJAIMLC/ffBwrSVvsJx3LXCCqm4wrylwcLb5cDCli7BwqYDwMIe&#xD;&#xa;icHCNx/Dwk1yw8Kc0cTCuC6/wscZvsLR6cPC9oDFwuDTxcIYnMLCn6vCwtLVxsLeQcTCygfFwnQ5&#xD;&#xa;x8K2lcXCur/BwmBot8Kq2rjCBL3FwgjbxcLi8cTCbmvEwo8zw8LwOcXCV+nEwtGlwcIrQcLCunnB&#xD;&#xa;wsFowcIOn8TC1M7DwjCww8Lhf8bCPsbDwtS6wsJM2sDCiVPDwsFsw8JIPMHCgwy3wuDetcJSFsPC&#xD;&#xa;qj3HwiM5xMI+YMfCJk3Gwl1RxcJgxcXCgSrEwox1xcK6yMPCckfCwuIxxsLcfMbCqHHFwjiiyML6&#xD;&#xa;msjCWPbHwjwexsLWhMXCFHPEwkLuwsJiCrvCYPa1wn1Av8KIYsTCbTTGwq3/wsLfmcHCxu/DwksE&#xD;&#xa;xsIHFMfCxBnGwgX4xMJAAcXCPtTFwkz8w8LsF8PCoHLBwkDFw8KGAMfCPNTGwvQWxcI8O8bCJjPF&#xD;&#xa;wt7kvsJsK7fCZty9wk3yw8JSRMHCvP/DwrxCxMKVC8PCPGrEwiqSyMJkBcbC7MfFwnbGx8KX7cXC&#xD;&#xa;DDXCwnTcxcKs8sjCBuHGwob1xsJcnMfCwOHGwja2xMKcsMHCsjTCwpxHwcLOIcPC3wHHwlC6xsJu&#xD;&#xa;t8nC2HzZwlOh9MKW8vjCQGH4wsQT98K3HfTC1lr1wpzz9cIYnfXCMlPzwkwH+MJ8w/fCiYD1wsrA&#xD;&#xa;9sKE6vjC3Nv3wiKf+MKYhPjCEtr4wpYZ+sL62/rCkkH9wt4r+cLEGvfC6sP1wrAT+MLE/fnCRqv6&#xD;&#xa;wlY2+MKGbvfChOj2wln49cKgcfnC5Mj4wsyo+cKo+PjCTCj6wrQj+cLcePbCmOH0wuCq9cJ87fbC&#xD;&#xa;Ldz3writ9sIKtvfCcGL5wlDz98L2zvXCkGj4wsDm9sJCc/TCBJL1wh6u+MK20/fCbSv3wnz0+MIg&#xD;&#xa;RvrCyHb7wtBE/cLC8vjC0Yj3wjx/9sJwWvbCcqz3wkjZ+MIA1/jClNj3wqjc+cImrfjC84f2wnRl&#xD;&#xa;98IGhPjCaOr5wkaf+cIHW/jCVHH3who8+MIrjfXCbEL1wui5+MJmsPfCgnH3wuDl+MLm0fjCepj4&#xD;&#xa;wtIT9sJSkvbCzMX4whaH98IoOfrCqoD8wvRt/MJ2+vjCjCD2wjPr9sKQ6/fCqp70wk+S98IewvvC&#xD;&#xa;Dlv6wloC+cLOe/bCrgL1wliS9cISt/XCYZ31wmDH9cJaq/jCrlT5wiZ9+MLKvvjCOY33wjB79sJE&#xD;&#xa;LPbC/g33wl54+cKMvvfCklL3wk5a+cJyNvnCDJP5wjDb+cJC3fnCnKX3wsfP98I+MPjCH6T2wuqY&#xD;&#xa;9sJku/fCrj74wjCa+8KAMfvCps35wtRz9sLSNvbCTKn4wkLJ98L4rvbCi9T2wi5Y98KiHvnCNPb4&#xD;&#xa;wvZ498LpV/fCDjn4wq5H+8Ke8frCAOb3wlZt+MJkS/nCxN34wgTA+cKo6vnCcGr5wiS3+MKhovfC&#xD;&#xa;GKP2wpx3+ML0HvzC5J0E" leadInLength="0/1"  />
            </Keyframes>
           </Parameter>
           </Parameters>
           <MetaData>
            <entry key="effectIndex" val="0"/>
           </MetaData>
          </GenericEffect>
         </Effects>
         <Attributes>
          <Attribute id="4149" value="" name="ident"/>
          <Attribute id="4150" value="0" name="mixToMono"/>
         </Attributes>
         <MetaData>
          <entry key="WinSubProjectDisplayName" val=""/>
         </MetaData>
         <ExtraData>
          <Entry key="ZoomPanBin">
           <ZoomPanBin id="4151"  >
            <ZoomPanKeyframes>
             <ZoomPanKeyframe id="4152" timeRangeEnd="-9999999/1" timeRangeDuration="0/1" interpolaterName=""  />
            </ZoomPanKeyframes>
           </ZoomPanBin>
          </Entry>
          <Entry key="CursorEffectBin">
           <CursorEffectBin id="4153"  >
            <CursorEffectKeyframes>
            </CursorEffectKeyframes>
           </CursorEffectBin>
          </Entry>
         </ExtraData>
         <GenericTrack id="4154"  >
          <Attributes>
           <Attribute id="4155" value="" name="ident"/>
           <Attribute id="4156" value="0" name="audioMuted"/>
           <Attribute id="4157" value="0" name="videoHidden"/>
          </Attributes>
          <MetaData>
           <entry key="IsLocked" val="False"/>
           <entry key="WinTrackHeight" val="0"/>
          </MetaData>
          <Medias>
           <UnifiedMedia id="4158"  >
            <AMFile id="4159" start="0" duration="2020" scalar="1/1" mediaStart="0/1" mediaDuration="2020/1" trackNumber="2" src="9" channelNumber="0,1" >
             <Parameters>
              <InterpolatingParam id="4160" interp="linr"  time="0/1" value="1" leadInLength="0/1"  name="volume"/>
              <Parameter id="4161"  name="captions"/>
             </Parameters>
             <Attributes>
              <Attribute id="4162" value="" name="ident"/>
              <Attribute id="4163" value="44100" name="sampleRate"/>
              <Attribute id="4164" value="16" name="bitDepth"/>
              <Attribute id="4165" value="1" name="gain"/>
              <Attribute id="4166" value="0" name="mixToMono"/>
             </Attributes>
            </AMFile>
            <VMFile id="4167" start="0" duration="2020" scalar="1/1" mediaStart="0/1" mediaDuration="2020/1" trackNumber="1" src="9" >
             <Transformer>
              <VectorParam id="4168"  name="translation">
               <InterpolatingParam id="4169" interp="linr"  time="-9999999/1" value="0" leadInLength="0/1"  />
               <InterpolatingParam id="4170" interp="linr"  time="-9999999/1" value="0" leadInLength="0/1"  />
               <InterpolatingParam id="4171" interp="linr"  time="-9999999/1" value="0" leadInLength="0/1"  />
              </VectorParam>
              <VectorParam id="4172"  name="rotation">
               <InterpolatingParam id="4173" interp="linr"  time="-9999999/1" value="0" leadInLength="0/1"  />
               <InterpolatingParam id="4174" interp="linr"  time="-9999999/1" value="0" leadInLength="0/1"  />
               <InterpolatingParam id="4175" interp="linr"  time="-9999999/1" value="0" leadInLength="0/1"  />
              </VectorParam>
              <VectorParam id="4176"  name="shear">
               <InterpolatingParam id="4177" interp="linr"  time="-9999999/1" value="0" leadInLength="0/1"  />
               <InterpolatingParam id="4178" interp="linr"  time="-9999999/1" value="0" leadInLength="0/1"  />
               <InterpolatingParam id="4179" interp="linr"  time="-9999999/1" value="0" leadInLength="0/1"  />
              </VectorParam>
              <VectorParam id="4180"  name="scale">
               <InterpolatingParam id="4181" interp="linr"  time="-9999999/1" value="1" leadInLength="0/1"  />
               <InterpolatingParam id="4182" interp="linr"  time="-9999999/1" value="1" leadInLength="0/1"  />
               <InterpolatingParam id="4183" interp="linr"  time="-9999999/1" value="1" leadInLength="0/1"  />
              </VectorParam>
              <VectorParam id="4184"  name="anchor">
               <InterpolatingParam id="4185" interp="linr"  time="0/1" value="0" leadInLength="0/1"  />
               <InterpolatingParam id="4186" interp="linr"  time="0/1" value="0" leadInLength="0/1"  />
               <InterpolatingParam id="4187" interp="linr"  time="0/1" value="0" leadInLength="0/1"  />
              </VectorParam>
             </Transformer>
             <Parameters>
              <VectorParam id="4188"  name="sourceCrop">
               <InterpolatingParam id="4189" interp="linr"  time="0/1" value="0" leadInLength="0/1"  />
               <InterpolatingParam id="4190" interp="linr"  time="0/1" value="0" leadInLength="0/1"  />
               <InterpolatingParam id="4191" interp="linr"  time="0/1" value="0" leadInLength="0/1"  />
               <InterpolatingParam id="4192" interp="linr"  time="0/1" value="0" leadInLength="0/1"  />
              </VectorParam>
              <VectorParam id="4193"  name="geometryCrop">
               <InterpolatingParam id="4194" interp="linr"  time="-9999999/1" value="0" leadInLength="0/1"  />
               <InterpolatingParam id="4195" interp="linr"  time="-9999999/1" value="0" leadInLength="0/1"  />
               <InterpolatingParam id="4196" interp="linr"  time="-9999999/1" value="0" leadInLength="0/1"  />
               <InterpolatingParam id="4197" interp="linr"  time="-9999999/1" value="0" leadInLength="0/1"  />
              </VectorParam>
              <InterpolatingParam id="4198" interp="linr"  time="-9999999/1" value="1" leadInLength="0/1"  name="opacity"/>
             </Parameters>
             <Attributes>
              <Attribute id="4199" value="" name="ident"/>
             </Attributes>
             <ExtraData>
              <Entry key="ZoomPanBin">
               <ZoomPanBin id="4200"  >
                <ZoomPanKeyframes>
                 <ZoomPanKeyframe id="4201" timeRangeEnd="-9999999/1" timeRangeDuration="0/1" interpolaterName=""  />
                </ZoomPanKeyframes>
               </ZoomPanBin>
              </Entry>
             </ExtraData>
            </VMFile>
            <MetaData>
             <entry key="WinSubProjectDisplayName" val=""/>
            </MetaData>
           </UnifiedMedia>
           <UnifiedMedia id="4202"  >
            <AMFile id="4203" start="2020" duration="73" scalar="1/1" mediaStart="2027/1" mediaDuration="73/1" trackNumber="2" src="9" channelNumber="0,1" >
             <Parameters>
              <InterpolatingParam id="4204" interp="linr"  time="0/1" value="1" leadInLength="0/1"  name="volume"/>
              <Parameter id="4205"  name="captions"/>
             </Parameters>
             <Attributes>
              <Attribute id="4206" value="" name="ident"/>
              <Attribute id="4207" value="44100" name="sampleRate"/>
              <Attribute id="4208" value="16" name="bitDepth"/>
              <Attribute id="4209" value="1" name="gain"/>
              <Attribute id="4210" value="0" name="mixToMono"/>
             </Attributes>
            </AMFile>
            <VMFile id="4211" start="2020" duration="73" scalar="1/1" mediaStart="2027/1" mediaDuration="73/1" trackNumber="1" src="9" >
             <Transformer>
              <VectorParam id="4212"  name="translation">
               <InterpolatingParam id="4213" interp="linr"  time="-9999999/1" value="0" leadInLength="0/1"  />
               <InterpolatingParam id="4214" interp="linr"  time="-9999999/1" value="0" leadInLength="0/1"  />
               <InterpolatingParam id="4215" interp="linr"  time="-9999999/1" value="0" leadInLength="0/1"  />
              </VectorParam>
              <VectorParam id="4216"  name="rotation">
               <InterpolatingParam id="4217" interp="linr"  time="-9999999/1" value="0" leadInLength="0/1"  />
               <InterpolatingParam id="4218" interp="linr"  time="-9999999/1" value="0" leadInLength="0/1"  />
               <InterpolatingParam id="4219" interp="linr"  time="-9999999/1" value="0" leadInLength="0/1"  />
              </VectorParam>
              <VectorParam id="4220"  name="shear">
               <InterpolatingParam id="4221" interp="linr"  time="-9999999/1" value="0" leadInLength="0/1"  />
               <InterpolatingParam id="4222" interp="linr"  time="-9999999/1" value="0" leadInLength="0/1"  />
               <InterpolatingParam id="4223" interp="linr"  time="-9999999/1" value="0" leadInLength="0/1"  />
              </VectorParam>
              <VectorParam id="4224"  name="scale">
               <InterpolatingParam id="4225" interp="linr"  time="-9999999/1" value="1" leadInLength="0/1"  />
               <InterpolatingParam id="4226" interp="linr"  time="-9999999/1" value="1" leadInLength="0/1"  />
               <InterpolatingParam id="4227" interp="linr"  time="-9999999/1" value="1" leadInLength="0/1"  />
              </VectorParam>
              <VectorParam id="4228"  name="anchor">
               <InterpolatingParam id="4229" interp="linr"  time="0/1" value="0" leadInLength="0/1"  />
               <InterpolatingParam id="4230" interp="linr"  time="0/1" value="0" leadInLength="0/1"  />
               <InterpolatingParam id="4231" interp="linr"  time="0/1" value="0" leadInLength="0/1"  />
              </VectorParam>
             </Transformer>
             <Parameters>
              <VectorParam id="4232"  name="sourceCrop">
               <InterpolatingParam id="4233" interp="linr"  time="0/1" value="0" leadInLength="0/1"  />
               <InterpolatingParam id="4234" interp="linr"  time="0/1" value="0" leadInLength="0/1"  />
               <InterpolatingParam id="4235" interp="linr"  time="0/1" value="0" leadInLength="0/1"  />
               <InterpolatingParam id="4236" interp="linr"  time="0/1" value="0" leadInLength="0/1"  />
              </VectorParam>
              <VectorParam id="4237"  name="geometryCrop">
               <InterpolatingParam id="4238" interp="linr"  time="-9999999/1" value="0" leadInLength="0/1"  />
               <InterpolatingParam id="4239" interp="linr"  time="-9999999/1" value="0" leadInLength="0/1"  />
               <InterpolatingParam id="4240" interp="linr"  time="-9999999/1" value="0" leadInLength="0/1"  />
               <InterpolatingParam id="4241" interp="linr"  time="-9999999/1" value="0" leadInLength="0/1"  />
              </VectorParam>
              <InterpolatingParam id="4242" interp="linr"  time="-9999999/1" value="1" leadInLength="0/1"  name="opacity"/>
             </Parameters>
             <Attributes>
              <Attribute id="4243" value="" name="ident"/>
             </Attributes>
             <ExtraData>
              <Entry key="ZoomPanBin">
               <ZoomPanBin id="4244"  >
                <ZoomPanKeyframes>
                 <ZoomPanKeyframe id="4245" timeRangeEnd="-9999999/1" timeRangeDuration="0/1" interpolaterName=""  />
                </ZoomPanKeyframes>
               </ZoomPanBin>
              </Entry>
             </ExtraData>
            </VMFile>
            <MetaData>
             <entry key="WinSubProjectDisplayName" val=""/>
            </MetaData>
           </UnifiedMedia>
           <UnifiedMedia id="4246"  >
            <AMFile id="4247" start="2093" duration="339" scalar="1/1" mediaStart="2116/1" mediaDuration="339/1" trackNumber="2" src="9" channelNumber="0,1" >
             <Parameters>
              <InterpolatingParam id="4248" interp="linr"  time="0/1" value="1" leadInLength="0/1"  name="volume"/>
              <Parameter id="4249"  name="captions"/>
             </Parameters>
             <Attributes>
              <Attribute id="4250" value="" name="ident"/>
              <Attribute id="4251" value="44100" name="sampleRate"/>
              <Attribute id="4252" value="16" name="bitDepth"/>
              <Attribute id="4253" value="1" name="gain"/>
              <Attribute id="4254" value="0" name="mixToMono"/>
             </Attributes>
            </AMFile>
            <VMFile id="4255" start="2093" duration="339" scalar="1/1" mediaStart="2116/1" mediaDuration="339/1" trackNumber="1" src="9" >
             <Transformer>
              <VectorParam id="4256"  name="translation">
               <InterpolatingParam id="4257" interp="linr"  time="-9999999/1" value="0" leadInLength="0/1"  />
               <InterpolatingParam id="4258" interp="linr"  time="-9999999/1" value="0" leadInLength="0/1"  />
               <InterpolatingParam id="4259" interp="linr"  time="-9999999/1" value="0" leadInLength="0/1"  />
              </VectorParam>
              <VectorParam id="4260"  name="rotation">
               <InterpolatingParam id="4261" interp="linr"  time="-9999999/1" value="0" leadInLength="0/1"  />
               <InterpolatingParam id="4262" interp="linr"  time="-9999999/1" value="0" leadInLength="0/1"  />
               <InterpolatingParam id="4263" interp="linr"  time="-9999999/1" value="0" leadInLength="0/1"  />
              </VectorParam>
              <VectorParam id="4264"  name="shear">
               <InterpolatingParam id="4265" interp="linr"  time="-9999999/1" value="0" leadInLength="0/1"  />
               <InterpolatingParam id="4266" interp="linr"  time="-9999999/1" value="0" leadInLength="0/1"  />
               <InterpolatingParam id="4267" interp="linr"  time="-9999999/1" value="0" leadInLength="0/1"  />
              </VectorParam>
              <VectorParam id="4268"  name="scale">
               <InterpolatingParam id="4269" interp="linr"  time="-9999999/1" value="1" leadInLength="0/1"  />
               <InterpolatingParam id="4270" interp="linr"  time="-9999999/1" value="1" leadInLength="0/1"  />
               <InterpolatingParam id="4271" interp="linr"  time="-9999999/1" value="1" leadInLength="0/1"  />
              </VectorParam>
              <VectorParam id="4272"  name="anchor">
               <InterpolatingParam id="4273" interp="linr"  time="0/1" value="0" leadInLength="0/1"  />
               <InterpolatingParam id="4274" interp="linr"  time="0/1" value="0" leadInLength="0/1"  />
               <InterpolatingParam id="4275" interp="linr"  time="0/1" value="0" leadInLength="0/1"  />
              </VectorParam>
             </Transformer>
             <Parameters>
              <VectorParam id="4276"  name="sourceCrop">
               <InterpolatingParam id="4277" interp="linr"  time="0/1" value="0" leadInLength="0/1"  />
               <InterpolatingParam id="4278" interp="linr"  time="0/1" value="0" leadInLength="0/1"  />
               <InterpolatingParam id="4279" interp="linr"  time="0/1" value="0" leadInLength="0/1"  />
               <InterpolatingParam id="4280" interp="linr"  time="0/1" value="0" leadInLength="0/1"  />
              </VectorParam>
              <VectorParam id="4281"  name="geometryCrop">
               <InterpolatingParam id="4282" interp="linr"  time="-9999999/1" value="0" leadInLength="0/1"  />
               <InterpolatingParam id="4283" interp="linr"  time="-9999999/1" value="0" leadInLength="0/1"  />
               <InterpolatingParam id="4284" interp="linr"  time="-9999999/1" value="0" leadInLength="0/1"  />
               <InterpolatingParam id="4285" interp="linr"  time="-9999999/1" value="0" leadInLength="0/1"  />
              </VectorParam>
              <InterpolatingParam id="4286" interp="linr"  time="-9999999/1" value="1" leadInLength="0/1"  name="opacity"/>
             </Parameters>
             <Attributes>
              <Attribute id="4287" value="" name="ident"/>
             </Attributes>
             <ExtraData>
              <Entry key="ZoomPanBin">
               <ZoomPanBin id="4288"  >
                <ZoomPanKeyframes>
                 <ZoomPanKeyframe id="4289" timeRangeEnd="-9999999/1" timeRangeDuration="0/1" interpolaterName=""  />
                </ZoomPanKeyframes>
               </ZoomPanBin>
              </Entry>
             </ExtraData>
            </VMFile>
            <MetaData>
             <entry key="WinSubProjectDisplayName" val=""/>
            </MetaData>
           </UnifiedMedia>
          </Medias>
         </GenericTrack>
        </StitchedMedia>
        <StitchedMedia id="4290" start="2145" duration="1014" scalar="1/1" mediaStart="11114/1" mediaDuration="1014/1" minMediaStart="0/1" >
         <Transformer>
          <VectorParam id="4291"  name="translation">
           <InterpolatingParam id="4292" interp="linr"  time="-9999999/1" value="536.72363646991812" leadInLength="0/1"  interpolater="leadin-linr"  />
           <InterpolatingParam id="4293" interp="linr"  time="-9999999/1" value="-253.16490860300917" leadInLength="0/1"  interpolater="leadin-linr"  />
           <InterpolatingParam id="4294" interp="linr"  time="-9999999/1" value="0" leadInLength="0/1"  interpolater="leadin-linr"  />
          </VectorParam>
          <VectorParam id="4295"  name="rotation">
           <InterpolatingParam id="4296" interp="linr"  time="-9999999/1" value="0" leadInLength="0/1"  interpolater="leadin-linr"  />
           <InterpolatingParam id="4297" interp="linr"  time="-9999999/1" value="0" leadInLength="0/1"  interpolater="leadin-linr"  />
           <InterpolatingParam id="4298" interp="linr"  time="-9999999/1" value="0" leadInLength="0/1"  interpolater="leadin-linr"  />
          </VectorParam>
          <VectorParam id="4299"  name="shear">
           <InterpolatingParam id="4300" interp="linr"  time="-9999999/1" value="0" leadInLength="0/1"  interpolater="leadin-linr"  />
           <InterpolatingParam id="4301" interp="linr"  time="-9999999/1" value="0" leadInLength="0/1"  interpolater="leadin-linr"  />
           <InterpolatingParam id="4302" interp="linr"  time="-9999999/1" value="0" leadInLength="0/1"  interpolater="leadin-linr"  />
          </VectorParam>
          <VectorParam id="4303"  name="scale">
           <InterpolatingParam id="4304" interp="linr"  time="-9999999/1" value="0.49844913151534698" leadInLength="0/1"  interpolater="leadin-linr"  />
           <InterpolatingParam id="4305" interp="linr"  time="-9999999/1" value="0.49844913151534687" leadInLength="0/1"  interpolater="leadin-linr"  />
           <InterpolatingParam id="4306" interp="linr"  time="-9999999/1" value="1" leadInLength="0/1"  interpolater="leadin-linr"  />
          </VectorParam>
          <VectorParam id="4307"  name="anchor">
           <InterpolatingParam id="4308" interp="linr"  time="0/1" value="0" leadInLength="0/1"  />
           <InterpolatingParam id="4309" interp="linr"  time="0/1" value="0" leadInLength="0/1"  />
           <InterpolatingParam id="4310" interp="linr"  time="0/1" value="0" leadInLength="0/1"  />
          </VectorParam>
         </Transformer>
         <Parameters>
          <VectorParam id="4311"  name="sourceCrop">
           <InterpolatingParam id="4312" interp="linr"  time="0/1" value="0" leadInLength="0/1"  />
           <InterpolatingParam id="4313" interp="linr"  time="0/1" value="0" leadInLength="0/1"  />
           <InterpolatingParam id="4314" interp="linr"  time="0/1" value="0" leadInLength="0/1"  />
           <InterpolatingParam id="4315" interp="linr"  time="0/1" value="0" leadInLength="0/1"  />
          </VectorParam>
          <VectorParam id="4316"  name="geometryCrop">
           <InterpolatingParam id="4317" interp="linr"  time="-9999999/1" value="103.26693227932435" leadInLength="0/1"  interpolater="leadin-linr"  />
           <InterpolatingParam id="4318" interp="linr"  time="-9999999/1" value="0" leadInLength="0/1"  interpolater="leadin-linr"  />
           <InterpolatingParam id="4319" interp="linr"  time="-9999999/1" value="22.948207167033274" leadInLength="0/1"  interpolater="leadin-linr"  />
           <InterpolatingParam id="4320" interp="linr"  time="-9999999/1" value="74.581673304687797" leadInLength="0/1"  interpolater="leadin-linr"  />
          </VectorParam>
          <InterpolatingParam id="4321" interp="linr"  time="-9999999/1" value="1" leadInLength="0/1"  interpolater="leadin-linr"  name="opacity"/>
          <InterpolatingParam id="4322" interp="linr"  time="0/1" value="1" leadInLength="0/1"  name="cursorOpacity"/>
          <InterpolatingParam id="4323" interp="linr"  time="0/1" value="1" leadInLength="0/1"  name="cursorScale"/>
          <InterpolatingParam id="4324" interp="linr"  name="volume">
           <Keyframes>
           <Keyframe id="4325"  time="0/1" value="1" leadInLength="0/1"  />
           <Keyframe id="4326"  time="11066/1" value="1" leadInLength="0/1"  />
           </Keyframes>
          </InterpolatingParam>
          <Parameter id="4327"  name="captions"/>
         </Parameters>
         <Effects>
          <GenericEffect id="4328" name = "NoiseReduction" >
           <Parameters>
           <InterpolatingParam id="4329" interp="linr"  time="0/1" value="27.599999999999998" leadInLength="0/1"   name="denoiserAmount"/>
           <InterpolatingParam id="4330" interp="linr"  time="0/1" value="2.2799999999999994" leadInLength="0/1"   name="denoiserThreshold"/>
           <Parameter id="4331"   name="noiseProfile">
            <Keyframes>
            <Keyframe id="4332"  time="0/1" value="FBAAAAIAAABErAAAAQIAAD6cesKK32XCL5Ffwj3lZMKbB3TCTo1zwu3rasKsdnDCeXV7wjpLdMIn&#xD;&#xa;7nLC4Idywu+3eMIcAYTCeXOEwk4ThcKpSoTCRWeFwv/eh8I5nIbCToWGwnoXiML9iofCiGyHwixn&#xD;&#xa;icKLNI3CUG6NwgRCjcLAho3CWNOOwoFqj8IH9I/CXgaTwtzdk8InF5HCCmuQwnDMksKQCZXC+YyV&#xD;&#xa;wtjQksJuIZLCQKyTwtjRlsLLG5fC3AaZwtglmsLCPJjCocCWwnoNl8JI+ZzCgU2cwl6nl8LDVJPC&#xD;&#xa;QZeUwrgZmMJI+ZXCmt2Ywo+WmcLYTaDC+DapwtT1o8KkCaTCdf6lwpoFoMJ89J/ClNSlwhY2qcIa&#xD;&#xa;HKvCPV+rwvYyp8JxrqbCMSiuwp03rcI/WqnCKGOqwq1FrcIYTKrC+UyowvRzrMIXtq/CTlmvwquL&#xD;&#xa;qcLJCqnC8jauwtYVssJ9lrDCLImvwo4KsMKxn7DCdo+vwkIpsMKuz63C3+CowgxCp8LuwKzC3Kyw&#xD;&#xa;wng5tcIgv7LC3a6vwoNrscKtpLXCsrK2wsGDtsKs1bbCDOa4ws26usJphbfCaR+2ws/2t8KBF7rC&#xD;&#xa;+eO1wl+ytcI2trfCjse4wvDnucIe5bLCa/urwno6s8IOPL/Ceq6+wre7u8LhZ7rC8r+5wuUBvMLQ&#xD;&#xa;n7/CA2m/wu06vcJwO7rCsmi7woqLv8JmKr7CcpG8wnS+u8JaiLvCV/y5wmySu8Ic/LrC6iK5wqFK&#xD;&#xa;ucJ7VrTCgGO2wqjzvcJmEr/CvW/AwrLGvcKGNr3CtCi/wtRIv8L4m7zCOoy8wvBcusIdNLnCCVK6&#xD;&#xa;woWvvMLyELnChzW4wgECu8J4ML3C/4W4wsW0tsK4DLvCPBK8wq+wt8IyQbnCFqS7wozxucJ61bTC&#xD;&#xa;JfG1wvVtucIc57jCbLS4wu7IuMIt/rnCcjq2wmlStsK8abrCAxa8wlmWvMKxTL/CGr6+wvmRvsIO&#xD;&#xa;A77C5nK+wuT8v8IstsHC50W/wv38vsLAXb/CRrXBwi4Vw8IkG8HCRoLAwlQZv8Inzr7ChhjBwj6a&#xD;&#xa;wsLSisHCgIXAwpLCwMI2R8DCEAjBwjlnwcJMYsLCbw/AwjQlwcK8UMHCsRy9whEcvsJFXcHCcwDB&#xD;&#xa;wl8KwcK50MLCjPPBwhiTwMJGmr/CXxu+wtPpwsLADsPCLuLAwh8dw8LtOcDCeP+/wlpPwcL/isLC&#xD;&#xa;Sf3DwgYawsJENsHCcYG/woHowMLSzb7CZi3BwvAiv8J/4bXCOoa6woLwv8IEAcLC9gPCwm2hwcLA&#xD;&#xa;wcPCFATDwpRuxMKaccXCnPrEwnyGwcIgEMPCmVrGwkAkx8JxSsPCMgbFwri6xMJLAcbCVnTFwlE4&#xD;&#xa;xsI9J8fC5lnCwoX7tsKt3LjCmQPDwmXDwcKKAsLCKgnDwm03xcLq9MPCFjTBwrIMwsKoF8PCXp3B&#xD;&#xa;wjbgxMIkKsrCzO/HworfxcKiBsPCTqrEwuVXyMKNlsbCZhzEwiLRwMLOub/CDDG2wnFhtMIdYr7C&#xD;&#xa;CknCwspFw8KRrsHCPXTCwjTzvsLBm7/CtD3EwnwpxMJupcTCkoXEwh53w8LkcMTCxHXEwvyFxMLB&#xD;&#xa;SMTCRpjEwuXCw8Ksy8LC0dLAwuiVwcLnPrrCEZu0wqevvMIdMcTCVSXGwvQFxcIT48PCi4W/wnze&#xD;&#xa;wcI6VsbCGqfFwmDPwMJCi8HCbgvDwljnw8JQFcTCLLzEwppExMLwlcDCuDzBwlRkxMJCwsTC8iLD&#xD;&#xa;wlP2wcI82LrC1EnAwlZ+x8LIBMjCqpHEwsKXxMLnSMXCrKHDwqRAw8LKzsLCe+fBwpMQxMK4dcfC&#xD;&#xa;tMDGwnzVx8JkOMrCBorIwkPdw8JEPcPCQBTFwq2XxMKQy8bC0tvGwmZ0wcKR6MLCRprFwsXqxsJY&#xD;&#xa;Os3CvjXawheQ6MJo3OTCyF7ewm5T3cIIqOPCaBXnwpb84sLegN3CUKbNwtykycIoz9TCXBbowlhD&#xD;&#xa;68KS/+fCbr/mwoJG78Ke0PjC4Lj5wkT7+cKYh/vCgmP5wnZD+cKT3PTCttH1wlAp9MIgGfXCVvD3&#xD;&#xa;wkIo+MJeb/nC6hP2wkip9MIkCfnCkV74wmVW9sIDLPTCgqT0woKQ9cKowffCqo74wlgq+sIK1vjC&#xD;&#xa;kvv4wuQn+cJPZfjCdzL3wrfb9MISIfjCmML5wtdE+MIGFPnC6Hf5wuh898LEjvXCZhH4wngw98KE&#xD;&#xa;UvfCXsH4wlzS98JjRvfCg9H0wu2x9sLiaPrC5qT4wmxj+MJ+A/nC9IL7whzN+cKq3PjCiqv4wnJ1&#xD;&#xa;98JOrffCzSH4wolO9cJXLvTCcoX3wnp/+cKxQvjCNyH3wrju+MLmG/zCQhz9wrwv+sKokPnC1AD3&#xD;&#xa;wm6E98LYtvnCyrH7wpQQ+ML6xfbCbJD2wnig9MIJ1PPCA5z2wiYA+sKyyPnC7rD2wpg298K4f/nC&#xD;&#xa;UPD3whA9+cJmP/nC+Pj5wvTo+MLOmvfCeMD5wsTB98ICsvXC9jT4wizd+MLQ2vnCkgr5wka/+MKq&#xD;&#xa;Z/vCSmf6wpzq+MI66/jCgjn5wiy79sI2hPjClq35wkQy+MKAuvbC7732wvkJ98L1lvbCtdb1wux8&#xD;&#xa;+MJCt/fCRGj3wsqk+cLuKfrCEpP6woDk/MJMT/rCZOb3wvRV+MJv3vbCbuj0wk5z9MLvjvfCiiP5&#xD;&#xa;wkkR9MK0g/PClCr2wkFU98Js8vXC2Hn2wvzj98Ky5PnCWOL1wqHK9MIkLPjCmIT4wtJ89sIi0vnC&#xD;&#xa;Ljz3wsy/9sLQqvjCt2wEw5acesKM32XC8ZBfwgblZMIQB3TC0Y1zwpvrasJXd3DCN3Z7wnZLdMIb&#xD;&#xa;7HLCvoVywhK3eMLj/4PCoHKEwoUShcIfSYTCtWSFwlLbh8KqmYbC8YOGwsQYiMKUi4fC822HwlFn&#xD;&#xa;icLfNY3CGm6NwndCjcJOhI3CWc6OwlJnj8I39I/CiweTwizbk8KNEZHC6GiQwvLOksLcCZXCN4mV&#xD;&#xa;wobJksL9HZLC3KqTwgLQlsLiF5fCnACZwn4gmsKcOJjCdLiWwpwKl8Jk75zCGEmcwr+zl8K1V5PC&#xD;&#xa;/ZSUwgMemMKsAZbC1d+YwjKZmcIKUaDChD2pwqUHpMLuJKTCvx2mwiYKoMJq7p/CZuGlwrpcqcLp&#xD;&#xa;H6vCAXirwpQ2p8KXsabCF1quwuiErcJzlKnCspqqws50rcL1dqrCPmeowgZ0rMK8mq/CVESvwvqn&#xD;&#xa;qcKEJKnCyWauwixJssIJELHCn8+vwotJsMIwvbDCQ3OvwhEVsMKqxK3CF+yowtNkp8LKJa3CHx6x&#xD;&#xa;wuiBtcK2+rLCXPOvwkeXscJCCbbCHy23wkOYtsIwBrfCbNi4wviFusK1UrjCsIO2wrhwuMLcabrC&#xD;&#xa;LUS2wsdntsIqJbjCgpG4wrojusIjHbPCPhuswitTs8Iq0b7C/G6/wttTvMI9brrCtN25wlIIvcK1&#xD;&#xa;icDCPQy/wsmHvcL4z7rCCgu8wsdsv8LFjr3CJuC8wg1TvMJVDrzCblK6wsQSvMLiqrvCsLC5wpJ3&#xD;&#xa;ucJ5W7TCOJq2wtWevsItwL/CoiHBwmA9vsLAh77CSn3AwkI0wMI85L3Ci429wkoFu8KqDLnCxT26&#xD;&#xa;wmk+vcLQPbnCBpC4wug9u8LaPr3CvOa4wkk9t8LCmbvC1yO8wsKTuMJqjrnCrsy7wm4KusLo4bTC&#xD;&#xa;uCy2wsWyucI+vrjCkMe4whBsucLMgrrC/qu2wvintsJtwbrClKW8wo5AvcL3nL/Cemy/wuyLvsLP&#xD;&#xa;nr3CSly/wtpVwML0DsLC5j3Awhr1v8K+jb/C5pHBwhndw8IsZcLCykDBwsJEv8IMhb/CeGnCwmT9&#xD;&#xa;wcJQLMHCHCLBwmxtwcIgnMDCD0bAwtxQwcLm8cLCIvjAwuIAwsJeu8HChPK9wuSxvsKF3cHCpBHC&#xD;&#xa;wpTjwsLECMTCgJXCwhbvwMLglL/CRs29wqAhwsKwpMLCTXPAwrTjwsJSEcHCAXzAwtIlwcJK2sLC&#xD;&#xa;B4XFwnxGxMJqI8LCWtO+wpTfwMJ6L7/CYkLBwhD6vsJIE7bC2LS6wnQ9wMIIe8HCYjDCwpWYwsLX&#xD;&#xa;R8TC0nHDwu7cxMJKH8bCABXFwvQgwcKb3sLC+iXHwp5xx8KkDMPC7rvEwtShxMJjxMXCNObEwiQ9&#xD;&#xa;xsLsTsfCO4zCwpoTt8J6+7jCQAPDwj7GwcI8K8LChuTCwvQVxcIq+sPC/jTBwoIqwsKULcPCm13B&#xD;&#xa;wm/jxML4e8rCnnDIwp8DxsK28cLCHEXEwlwZyMIPl8bCit3DwrzUwMKW5b/CjDW2wk9dtMJWLL7C&#xD;&#xa;rEDCwipTw8LUg8HCYlnCwqkov8KRj7/CSjvEwhIbxMKqbMTCV7fEwlajw8JnO8TCiCDEwrRIxMLG&#xD;&#xa;E8TCB3XEwuiww8J2vMLCxvTAwouAwcICPLrCPp+0wpSNvMIWFsTCAOTFwk7hxMI87cPCWZO/ws7i&#xD;&#xa;wcIpScbCBqbFwlq4wMJLSsHCUOfCwkPcw8JCAcTCmNbEwlwsxMLRjcDC+kDBwvR7xMI0vsTCQEjD&#xD;&#xa;wkHOwcKKlbrCrCXAws1Zx8J8vMfC1o/EwlRhxMLmOsXC0sTDwnk+w8KY68LCViXCwtX9w8LddsfC&#xD;&#xa;wEDHwmB3yMKrwcrCys3IwgDpw8IHEcPCHbfEwvQexMJAdMbCgqbGwutBwcIH8sLC4qfFwoD7xsL6&#xD;&#xa;J83Cn3XZwrZ558Is7OTCCMfewj873MIDveHCSATnwkgi5MKANt7CfsXNwhLRycI8EtXCK9HowuB1&#xD;&#xa;7MLgbufCMc3lwnBK7sKMf/nCvKP3wkhN+MKa8PjCTK35wsZm+8J07PnCkLb5wj4P+8IcePfCvHX3&#xD;&#xa;wuI39sLGgPjC3HH4wk6e+MIjY/jC1sf2wiif9MIpl/TCZDz5wkDn+MJKO/fCFpn2wgZz9sJcy/fC&#xD;&#xa;bsX5wjcm98JQVvfCrgT5wsNP+MJwb/bCiqf3wqbV+cJ+1fnCvI73wgh8+cIc5frCmq35wrhG+cKo&#xD;&#xa;iPnCcKn4wvwA98IqZvnC5Or4wrT89MJ8u/LCvkHzwqBE9sIUcvvCilP6wkAn+MJWHfjCDhn5wqgm&#xD;&#xa;+MJoQPfCbnH1wuT09sKT9PbCWl34wvhG+MLi5vjCfP/3wgqo98IsMvnCyFT7wsrQ+MLQwvjCPU74&#xD;&#xa;wnpX98JqNvfCGnz2whpx+MIKlPvCDmH3wsQC9MI6fvXCKUD4wmIw+sJurPnCenv3wn+Q9sJGs/bC&#xD;&#xa;qHr3wn7a98LrTvfCJuf1wgKw9sIUrvjCYjz5wlwA+MI+J/jCsJr5wiYC+MJEOffCxCP3wn7j9MIK&#xD;&#xa;1PfCmY/3wtpe98Lu+PfCVpb6wgg9/cLuTfjCRgr2wgqH+cIyTvvCNvn6wvov+cK9M/fCuhT2wiy9&#xD;&#xa;9sJ04fbCUkH6wljK+8L47/nCTrL6wrA0+sLwX/jCO4n2wvl498LSGfrCDCr4wkUu98L0KPbCmFv1&#xD;&#xa;wpwx+MK2p/jCAIz5wiaq+8JOPvnCfmD2wibE9cJ4qfbCNp33wkSM+MLoZfbCUgH2wiBf+cLSe/jC&#xD;&#xa;V931wugC9sLUnPfCtPAD" leadInLength="0/1"  />
            </Keyframes>
           </Parameter>
           </Parameters>
           <MetaData>
            <entry key="effectIndex" val="0"/>
           </MetaData>
          </GenericEffect>
         </Effects>
         <Attributes>
          <Attribute id="4333" value="" name="ident"/>
          <Attribute id="4334" value="0" name="mixToMono"/>
         </Attributes>
         <MetaData>
          <entry key="WinSubProjectDisplayName" val=""/>
         </MetaData>
         <ExtraData>
          <Entry key="ZoomPanBin">
           <ZoomPanBin id="4335"  >
            <ZoomPanKeyframes>
             <ZoomPanKeyframe id="4336" timeRangeEnd="-9999999/1" timeRangeDuration="0/1" interpolaterName="linr"  />
            </ZoomPanKeyframes>
           </ZoomPanBin>
          </Entry>
          <Entry key="CursorEffectBin">
           <CursorEffectBin id="4337"  >
            <CursorEffectKeyframes>
            </CursorEffectKeyframes>
           </CursorEffectBin>
          </Entry>
         </ExtraData>
         <GenericTrack id="4338"  >
          <Attributes>
           <Attribute id="4339" value="" name="ident"/>
           <Attribute id="4340" value="0" name="audioMuted"/>
           <Attribute id="4341" value="0" name="videoHidden"/>
          </Attributes>
          <MetaData>
           <entry key="IsLocked" val="False"/>
           <entry key="WinTrackHeight" val="0"/>
          </MetaData>
          <Medias>
           <UnifiedMedia id="4342"  >
            <AMFile id="4343" start="0" duration="11264" scalar="1/1" mediaStart="0/1" mediaDuration="11264/1" trackNumber="2" src="8" channelNumber="0,1" >
             <Parameters>
              <InterpolatingParam id="4344" interp="linr"  time="0/1" value="1" leadInLength="0/1"  name="volume"/>
              <Parameter id="4345"  name="captions"/>
             </Parameters>
             <Attributes>
              <Attribute id="4346" value="" name="ident"/>
              <Attribute id="4347" value="44100" name="sampleRate"/>
              <Attribute id="4348" value="16" name="bitDepth"/>
              <Attribute id="4349" value="1" name="gain"/>
              <Attribute id="4350" value="0" name="mixToMono"/>
             </Attributes>
            </AMFile>
            <VMFile id="4351" start="0" duration="11264" scalar="1/1" mediaStart="0/1" mediaDuration="11264/1" trackNumber="1" src="8" >
             <Transformer>
              <VectorParam id="4352"  name="translation">
               <InterpolatingParam id="4353" interp="linr"  time="-9999999/1" value="0" leadInLength="0/1"  />
               <InterpolatingParam id="4354" interp="linr"  time="-9999999/1" value="0" leadInLength="0/1"  />
               <InterpolatingParam id="4355" interp="linr"  time="-9999999/1" value="0" leadInLength="0/1"  />
              </VectorParam>
              <VectorParam id="4356"  name="rotation">
               <InterpolatingParam id="4357" interp="linr"  time="-9999999/1" value="0" leadInLength="0/1"  />
               <InterpolatingParam id="4358" interp="linr"  time="-9999999/1" value="0" leadInLength="0/1"  />
               <InterpolatingParam id="4359" interp="linr"  time="-9999999/1" value="0" leadInLength="0/1"  />
              </VectorParam>
              <VectorParam id="4360"  name="shear">
               <InterpolatingParam id="4361" interp="linr"  time="-9999999/1" value="0" leadInLength="0/1"  />
               <InterpolatingParam id="4362" interp="linr"  time="-9999999/1" value="0" leadInLength="0/1"  />
               <InterpolatingParam id="4363" interp="linr"  time="-9999999/1" value="0" leadInLength="0/1"  />
              </VectorParam>
              <VectorParam id="4364"  name="scale">
               <InterpolatingParam id="4365" interp="linr"  time="-9999999/1" value="1" leadInLength="0/1"  />
               <InterpolatingParam id="4366" interp="linr"  time="-9999999/1" value="1" leadInLength="0/1"  />
               <InterpolatingParam id="4367" interp="linr"  time="-9999999/1" value="1" leadInLength="0/1"  />
              </VectorParam>
              <VectorParam id="4368"  name="anchor">
               <InterpolatingParam id="4369" interp="linr"  time="0/1" value="0" leadInLength="0/1"  />
               <InterpolatingParam id="4370" interp="linr"  time="0/1" value="0" leadInLength="0/1"  />
               <InterpolatingParam id="4371" interp="linr"  time="0/1" value="0" leadInLength="0/1"  />
              </VectorParam>
             </Transformer>
             <Parameters>
              <VectorParam id="4372"  name="sourceCrop">
               <InterpolatingParam id="4373" interp="linr"  time="0/1" value="0" leadInLength="0/1"  />
               <InterpolatingParam id="4374" interp="linr"  time="0/1" value="0" leadInLength="0/1"  />
               <InterpolatingParam id="4375" interp="linr"  time="0/1" value="0" leadInLength="0/1"  />
               <InterpolatingParam id="4376" interp="linr"  time="0/1" value="0" leadInLength="0/1"  />
              </VectorParam>
              <VectorParam id="4377"  name="geometryCrop">
               <InterpolatingParam id="4378" interp="linr"  time="-9999999/1" value="0" leadInLength="0/1"  />
               <InterpolatingParam id="4379" interp="linr"  time="-9999999/1" value="0" leadInLength="0/1"  />
               <InterpolatingParam id="4380" interp="linr"  time="-9999999/1" value="0" leadInLength="0/1"  />
               <InterpolatingParam id="4381" interp="linr"  time="-9999999/1" value="0" leadInLength="0/1"  />
              </VectorParam>
              <InterpolatingParam id="4382" interp="linr"  time="-9999999/1" value="1" leadInLength="0/1"  name="opacity"/>
             </Parameters>
             <Attributes>
              <Attribute id="4383" value="" name="ident"/>
             </Attributes>
             <ExtraData>
              <Entry key="ZoomPanBin">
               <ZoomPanBin id="4384"  >
                <ZoomPanKeyframes>
                 <ZoomPanKeyframe id="4385" timeRangeEnd="-9999999/1" timeRangeDuration="0/1" interpolaterName=""  />
                </ZoomPanKeyframes>
               </ZoomPanBin>
              </Entry>
             </ExtraData>
            </VMFile>
            <MetaData>
             <entry key="WinSubProjectDisplayName" val=""/>
            </MetaData>
           </UnifiedMedia>
           <UnifiedMedia id="4386"  >
            <AMFile id="4387" start="11264" duration="35" scalar="1/1" mediaStart="11277/1" mediaDuration="35/1" trackNumber="2" src="8" channelNumber="0,1" >
             <Parameters>
              <InterpolatingParam id="4388" interp="linr"  time="0/1" value="1" leadInLength="0/1"  name="volume"/>
              <Parameter id="4389"  name="captions"/>
             </Parameters>
             <Attributes>
              <Attribute id="4390" value="" name="ident"/>
              <Attribute id="4391" value="44100" name="sampleRate"/>
              <Attribute id="4392" value="16" name="bitDepth"/>
              <Attribute id="4393" value="1" name="gain"/>
              <Attribute id="4394" value="0" name="mixToMono"/>
             </Attributes>
            </AMFile>
            <VMFile id="4395" start="11264" duration="35" scalar="1/1" mediaStart="11277/1" mediaDuration="35/1" trackNumber="1" src="8" >
             <Transformer>
              <VectorParam id="4396"  name="translation">
               <InterpolatingParam id="4397" interp="linr"  time="-9999999/1" value="0" leadInLength="0/1"  />
               <InterpolatingParam id="4398" interp="linr"  time="-9999999/1" value="0" leadInLength="0/1"  />
               <InterpolatingParam id="4399" interp="linr"  time="-9999999/1" value="0" leadInLength="0/1"  />
              </VectorParam>
              <VectorParam id="4400"  name="rotation">
               <InterpolatingParam id="4401" interp="linr"  time="-9999999/1" value="0" leadInLength="0/1"  />
               <InterpolatingParam id="4402" interp="linr"  time="-9999999/1" value="0" leadInLength="0/1"  />
               <InterpolatingParam id="4403" interp="linr"  time="-9999999/1" value="0" leadInLength="0/1"  />
              </VectorParam>
              <VectorParam id="4404"  name="shear">
               <InterpolatingParam id="4405" interp="linr"  time="-9999999/1" value="0" leadInLength="0/1"  />
               <InterpolatingParam id="4406" interp="linr"  time="-9999999/1" value="0" leadInLength="0/1"  />
               <InterpolatingParam id="4407" interp="linr"  time="-9999999/1" value="0" leadInLength="0/1"  />
              </VectorParam>
              <VectorParam id="4408"  name="scale">
               <InterpolatingParam id="4409" interp="linr"  time="-9999999/1" value="1" leadInLength="0/1"  />
               <InterpolatingParam id="4410" interp="linr"  time="-9999999/1" value="1" leadInLength="0/1"  />
               <InterpolatingParam id="4411" interp="linr"  time="-9999999/1" value="1" leadInLength="0/1"  />
              </VectorParam>
              <VectorParam id="4412"  name="anchor">
               <InterpolatingParam id="4413" interp="linr"  time="0/1" value="0" leadInLength="0/1"  />
               <InterpolatingParam id="4414" interp="linr"  time="0/1" value="0" leadInLength="0/1"  />
               <InterpolatingParam id="4415" interp="linr"  time="0/1" value="0" leadInLength="0/1"  />
              </VectorParam>
             </Transformer>
             <Parameters>
              <VectorParam id="4416"  name="sourceCrop">
               <InterpolatingParam id="4417" interp="linr"  time="0/1" value="0" leadInLength="0/1"  />
               <InterpolatingParam id="4418" interp="linr"  time="0/1" value="0" leadInLength="0/1"  />
               <InterpolatingParam id="4419" interp="linr"  time="0/1" value="0" leadInLength="0/1"  />
               <InterpolatingParam id="4420" interp="linr"  time="0/1" value="0" leadInLength="0/1"  />
              </VectorParam>
              <VectorParam id="4421"  name="geometryCrop">
               <InterpolatingParam id="4422" interp="linr"  time="-9999999/1" value="0" leadInLength="0/1"  />
               <InterpolatingParam id="4423" interp="linr"  time="-9999999/1" value="0" leadInLength="0/1"  />
               <InterpolatingParam id="4424" interp="linr"  time="-9999999/1" value="0" leadInLength="0/1"  />
               <InterpolatingParam id="4425" interp="linr"  time="-9999999/1" value="0" leadInLength="0/1"  />
              </VectorParam>
              <InterpolatingParam id="4426" interp="linr"  time="-9999999/1" value="1" leadInLength="0/1"  name="opacity"/>
             </Parameters>
             <Attributes>
              <Attribute id="4427" value="" name="ident"/>
             </Attributes>
             <ExtraData>
              <Entry key="ZoomPanBin">
               <ZoomPanBin id="4428"  >
                <ZoomPanKeyframes>
                 <ZoomPanKeyframe id="4429" timeRangeEnd="-9999999/1" timeRangeDuration="0/1" interpolaterName=""  />
                </ZoomPanKeyframes>
               </ZoomPanBin>
              </Entry>
             </ExtraData>
            </VMFile>
            <MetaData>
             <entry key="WinSubProjectDisplayName" val=""/>
            </MetaData>
           </UnifiedMedia>
           <UnifiedMedia id="4430"  >
            <AMFile id="4431" start="11299" duration="51" scalar="1/1" mediaStart="11316/1" mediaDuration="51/1" trackNumber="2" src="8" channelNumber="0,1" >
             <Parameters>
              <InterpolatingParam id="4432" interp="linr"  time="0/1" value="1" leadInLength="0/1"  name="volume"/>
              <Parameter id="4433"  name="captions"/>
             </Parameters>
             <Attributes>
              <Attribute id="4434" value="" name="ident"/>
              <Attribute id="4435" value="44100" name="sampleRate"/>
              <Attribute id="4436" value="16" name="bitDepth"/>
              <Attribute id="4437" value="1" name="gain"/>
              <Attribute id="4438" value="0" name="mixToMono"/>
             </Attributes>
            </AMFile>
            <VMFile id="4439" start="11299" duration="51" scalar="1/1" mediaStart="11316/1" mediaDuration="51/1" trackNumber="1" src="8" >
             <Transformer>
              <VectorParam id="4440"  name="translation">
               <InterpolatingParam id="4441" interp="linr"  time="-9999999/1" value="0" leadInLength="0/1"  />
               <InterpolatingParam id="4442" interp="linr"  time="-9999999/1" value="0" leadInLength="0/1"  />
               <InterpolatingParam id="4443" interp="linr"  time="-9999999/1" value="0" leadInLength="0/1"  />
              </VectorParam>
              <VectorParam id="4444"  name="rotation">
               <InterpolatingParam id="4445" interp="linr"  time="-9999999/1" value="0" leadInLength="0/1"  />
               <InterpolatingParam id="4446" interp="linr"  time="-9999999/1" value="0" leadInLength="0/1"  />
               <InterpolatingParam id="4447" interp="linr"  time="-9999999/1" value="0" leadInLength="0/1"  />
              </VectorParam>
              <VectorParam id="4448"  name="shear">
               <InterpolatingParam id="4449" interp="linr"  time="-9999999/1" value="0" leadInLength="0/1"  />
               <InterpolatingParam id="4450" interp="linr"  time="-9999999/1" value="0" leadInLength="0/1"  />
               <InterpolatingParam id="4451" interp="linr"  time="-9999999/1" value="0" leadInLength="0/1"  />
              </VectorParam>
              <VectorParam id="4452"  name="scale">
               <InterpolatingParam id="4453" interp="linr"  time="-9999999/1" value="1" leadInLength="0/1"  />
               <InterpolatingParam id="4454" interp="linr"  time="-9999999/1" value="1" leadInLength="0/1"  />
               <InterpolatingParam id="4455" interp="linr"  time="-9999999/1" value="1" leadInLength="0/1"  />
              </VectorParam>
              <VectorParam id="4456"  name="anchor">
               <InterpolatingParam id="4457" interp="linr"  time="0/1" value="0" leadInLength="0/1"  />
               <InterpolatingParam id="4458" interp="linr"  time="0/1" value="0" leadInLength="0/1"  />
               <InterpolatingParam id="4459" interp="linr"  time="0/1" value="0" leadInLength="0/1"  />
              </VectorParam>
             </Transformer>
             <Parameters>
              <VectorParam id="4460"  name="sourceCrop">
               <InterpolatingParam id="4461" interp="linr"  time="0/1" value="0" leadInLength="0/1"  />
               <InterpolatingParam id="4462" interp="linr"  time="0/1" value="0" leadInLength="0/1"  />
               <InterpolatingParam id="4463" interp="linr"  time="0/1" value="0" leadInLength="0/1"  />
               <InterpolatingParam id="4464" interp="linr"  time="0/1" value="0" leadInLength="0/1"  />
              </VectorParam>
              <VectorParam id="4465"  name="geometryCrop">
               <InterpolatingParam id="4466" interp="linr"  time="-9999999/1" value="0" leadInLength="0/1"  />
               <InterpolatingParam id="4467" interp="linr"  time="-9999999/1" value="0" leadInLength="0/1"  />
               <InterpolatingParam id="4468" interp="linr"  time="-9999999/1" value="0" leadInLength="0/1"  />
               <InterpolatingParam id="4469" interp="linr"  time="-9999999/1" value="0" leadInLength="0/1"  />
              </VectorParam>
              <InterpolatingParam id="4470" interp="linr"  time="-9999999/1" value="1" leadInLength="0/1"  name="opacity"/>
             </Parameters>
             <Attributes>
              <Attribute id="4471" value="" name="ident"/>
             </Attributes>
             <ExtraData>
              <Entry key="ZoomPanBin">
               <ZoomPanBin id="4472"  >
                <ZoomPanKeyframes>
                 <ZoomPanKeyframe id="4473" timeRangeEnd="-9999999/1" timeRangeDuration="0/1" interpolaterName=""  />
                </ZoomPanKeyframes>
               </ZoomPanBin>
              </Entry>
             </ExtraData>
            </VMFile>
            <MetaData>
             <entry key="WinSubProjectDisplayName" val=""/>
            </MetaData>
           </UnifiedMedia>
           <UnifiedMedia id="4474"  >
            <AMFile id="4475" start="11350" duration="1" scalar="1/1" mediaStart="11371/1" mediaDuration="1/1" trackNumber="2" src="8" channelNumber="0,1" >
             <Parameters>
              <InterpolatingParam id="4476" interp="linr"  time="0/1" value="1" leadInLength="0/1"  name="volume"/>
              <Parameter id="4477"  name="captions"/>
             </Parameters>
             <Attributes>
              <Attribute id="4478" value="" name="ident"/>
              <Attribute id="4479" value="44100" name="sampleRate"/>
              <Attribute id="4480" value="16" name="bitDepth"/>
              <Attribute id="4481" value="1" name="gain"/>
              <Attribute id="4482" value="0" name="mixToMono"/>
             </Attributes>
            </AMFile>
            <VMFile id="4483" start="11350" duration="1" scalar="1/1" mediaStart="11371/1" mediaDuration="1/1" trackNumber="1" src="8" >
             <Transformer>
              <VectorParam id="4484"  name="translation">
               <InterpolatingParam id="4485" interp="linr"  time="-9999999/1" value="0" leadInLength="0/1"  />
               <InterpolatingParam id="4486" interp="linr"  time="-9999999/1" value="0" leadInLength="0/1"  />
               <InterpolatingParam id="4487" interp="linr"  time="-9999999/1" value="0" leadInLength="0/1"  />
              </VectorParam>
              <VectorParam id="4488"  name="rotation">
               <InterpolatingParam id="4489" interp="linr"  time="-9999999/1" value="0" leadInLength="0/1"  />
               <InterpolatingParam id="4490" interp="linr"  time="-9999999/1" value="0" leadInLength="0/1"  />
               <InterpolatingParam id="4491" interp="linr"  time="-9999999/1" value="0" leadInLength="0/1"  />
              </VectorParam>
              <VectorParam id="4492"  name="shear">
               <InterpolatingParam id="4493" interp="linr"  time="-9999999/1" value="0" leadInLength="0/1"  />
               <InterpolatingParam id="4494" interp="linr"  time="-9999999/1" value="0" leadInLength="0/1"  />
               <InterpolatingParam id="4495" interp="linr"  time="-9999999/1" value="0" leadInLength="0/1"  />
              </VectorParam>
              <VectorParam id="4496"  name="scale">
               <InterpolatingParam id="4497" interp="linr"  time="-9999999/1" value="1" leadInLength="0/1"  />
               <InterpolatingParam id="4498" interp="linr"  time="-9999999/1" value="1" leadInLength="0/1"  />
               <InterpolatingParam id="4499" interp="linr"  time="-9999999/1" value="1" leadInLength="0/1"  />
              </VectorParam>
              <VectorParam id="4500"  name="anchor">
               <InterpolatingParam id="4501" interp="linr"  time="0/1" value="0" leadInLength="0/1"  />
               <InterpolatingParam id="4502" interp="linr"  time="0/1" value="0" leadInLength="0/1"  />
               <InterpolatingParam id="4503" interp="linr"  time="0/1" value="0" leadInLength="0/1"  />
              </VectorParam>
             </Transformer>
             <Parameters>
              <VectorParam id="4504"  name="sourceCrop">
               <InterpolatingParam id="4505" interp="linr"  time="0/1" value="0" leadInLength="0/1"  />
               <InterpolatingParam id="4506" interp="linr"  time="0/1" value="0" leadInLength="0/1"  />
               <InterpolatingParam id="4507" interp="linr"  time="0/1" value="0" leadInLength="0/1"  />
               <InterpolatingParam id="4508" interp="linr"  time="0/1" value="0" leadInLength="0/1"  />
              </VectorParam>
              <VectorParam id="4509"  name="geometryCrop">
               <InterpolatingParam id="4510" interp="linr"  time="-9999999/1" value="0" leadInLength="0/1"  />
               <InterpolatingParam id="4511" interp="linr"  time="-9999999/1" value="0" leadInLength="0/1"  />
               <InterpolatingParam id="4512" interp="linr"  time="-9999999/1" value="0" leadInLength="0/1"  />
               <InterpolatingParam id="4513" interp="linr"  time="-9999999/1" value="0" leadInLength="0/1"  />
              </VectorParam>
              <InterpolatingParam id="4514" interp="linr"  time="-9999999/1" value="1" leadInLength="0/1"  name="opacity"/>
             </Parameters>
             <Attributes>
              <Attribute id="4515" value="" name="ident"/>
             </Attributes>
             <ExtraData>
              <Entry key="ZoomPanBin">
               <ZoomPanBin id="4516"  >
                <ZoomPanKeyframes>
                 <ZoomPanKeyframe id="4517" timeRangeEnd="-9999999/1" timeRangeDuration="0/1" interpolaterName=""  />
                </ZoomPanKeyframes>
               </ZoomPanBin>
              </Entry>
             </ExtraData>
            </VMFile>
            <MetaData>
             <entry key="WinSubProjectDisplayName" val=""/>
            </MetaData>
           </UnifiedMedia>
           <UnifiedMedia id="4518"  >
            <AMFile id="4519" start="11351" duration="92" scalar="1/1" mediaStart="11377/1" mediaDuration="92/1" trackNumber="2" src="8" channelNumber="0,1" >
             <Parameters>
              <InterpolatingParam id="4520" interp="linr"  time="0/1" value="1" leadInLength="0/1"  name="volume"/>
              <Parameter id="4521"  name="captions"/>
             </Parameters>
             <Attributes>
              <Attribute id="4522" value="" name="ident"/>
              <Attribute id="4523" value="44100" name="sampleRate"/>
              <Attribute id="4524" value="16" name="bitDepth"/>
              <Attribute id="4525" value="1" name="gain"/>
              <Attribute id="4526" value="0" name="mixToMono"/>
             </Attributes>
            </AMFile>
            <VMFile id="4527" start="11351" duration="92" scalar="1/1" mediaStart="11377/1" mediaDuration="92/1" trackNumber="1" src="8" >
             <Transformer>
              <VectorParam id="4528"  name="translation">
               <InterpolatingParam id="4529" interp="linr"  time="-9999999/1" value="0" leadInLength="0/1"  />
               <InterpolatingParam id="4530" interp="linr"  time="-9999999/1" value="0" leadInLength="0/1"  />
               <InterpolatingParam id="4531" interp="linr"  time="-9999999/1" value="0" leadInLength="0/1"  />
              </VectorParam>
              <VectorParam id="4532"  name="rotation">
               <InterpolatingParam id="4533" interp="linr"  time="-9999999/1" value="0" leadInLength="0/1"  />
               <InterpolatingParam id="4534" interp="linr"  time="-9999999/1" value="0" leadInLength="0/1"  />
               <InterpolatingParam id="4535" interp="linr"  time="-9999999/1" value="0" leadInLength="0/1"  />
              </VectorParam>
              <VectorParam id="4536"  name="shear">
               <InterpolatingParam id="4537" interp="linr"  time="-9999999/1" value="0" leadInLength="0/1"  />
               <InterpolatingParam id="4538" interp="linr"  time="-9999999/1" value="0" leadInLength="0/1"  />
               <InterpolatingParam id="4539" interp="linr"  time="-9999999/1" value="0" leadInLength="0/1"  />
              </VectorParam>
              <VectorParam id="4540"  name="scale">
               <InterpolatingParam id="4541" interp="linr"  time="-9999999/1" value="1" leadInLength="0/1"  />
               <InterpolatingParam id="4542" interp="linr"  time="-9999999/1" value="1" leadInLength="0/1"  />
               <InterpolatingParam id="4543" interp="linr"  time="-9999999/1" value="1" leadInLength="0/1"  />
              </VectorParam>
              <VectorParam id="4544"  name="anchor">
               <InterpolatingParam id="4545" interp="linr"  time="0/1" value="0" leadInLength="0/1"  />
               <InterpolatingParam id="4546" interp="linr"  time="0/1" value="0" leadInLength="0/1"  />
               <InterpolatingParam id="4547" interp="linr"  time="0/1" value="0" leadInLength="0/1"  />
              </VectorParam>
             </Transformer>
             <Parameters>
              <VectorParam id="4548"  name="sourceCrop">
               <InterpolatingParam id="4549" interp="linr"  time="0/1" value="0" leadInLength="0/1"  />
               <InterpolatingParam id="4550" interp="linr"  time="0/1" value="0" leadInLength="0/1"  />
               <InterpolatingParam id="4551" interp="linr"  time="0/1" value="0" leadInLength="0/1"  />
               <InterpolatingParam id="4552" interp="linr"  time="0/1" value="0" leadInLength="0/1"  />
              </VectorParam>
              <VectorParam id="4553"  name="geometryCrop">
               <InterpolatingParam id="4554" interp="linr"  time="-9999999/1" value="0" leadInLength="0/1"  />
               <InterpolatingParam id="4555" interp="linr"  time="-9999999/1" value="0" leadInLength="0/1"  />
               <InterpolatingParam id="4556" interp="linr"  time="-9999999/1" value="0" leadInLength="0/1"  />
               <InterpolatingParam id="4557" interp="linr"  time="-9999999/1" value="0" leadInLength="0/1"  />
              </VectorParam>
              <InterpolatingParam id="4558" interp="linr"  time="-9999999/1" value="1" leadInLength="0/1"  name="opacity"/>
             </Parameters>
             <Attributes>
              <Attribute id="4559" value="" name="ident"/>
             </Attributes>
             <ExtraData>
              <Entry key="ZoomPanBin">
               <ZoomPanBin id="4560"  >
                <ZoomPanKeyframes>
                 <ZoomPanKeyframe id="4561" timeRangeEnd="-9999999/1" timeRangeDuration="0/1" interpolaterName=""  />
                </ZoomPanKeyframes>
               </ZoomPanBin>
              </Entry>
             </ExtraData>
            </VMFile>
            <MetaData>
             <entry key="WinSubProjectDisplayName" val=""/>
            </MetaData>
           </UnifiedMedia>
           <UnifiedMedia id="4562"  >
            <AMFile id="4563" start="11443" duration="117" scalar="1/1" mediaStart="11476/1" mediaDuration="117/1" trackNumber="2" src="8" channelNumber="0,1" >
             <Parameters>
              <InterpolatingParam id="4564" interp="linr"  time="0/1" value="1" leadInLength="0/1"  name="volume"/>
              <Parameter id="4565"  name="captions"/>
             </Parameters>
             <Attributes>
              <Attribute id="4566" value="" name="ident"/>
              <Attribute id="4567" value="44100" name="sampleRate"/>
              <Attribute id="4568" value="16" name="bitDepth"/>
              <Attribute id="4569" value="1" name="gain"/>
              <Attribute id="4570" value="0" name="mixToMono"/>
             </Attributes>
            </AMFile>
            <VMFile id="4571" start="11443" duration="117" scalar="1/1" mediaStart="11476/1" mediaDuration="117/1" trackNumber="1" src="8" >
             <Transformer>
              <VectorParam id="4572"  name="translation">
               <InterpolatingParam id="4573" interp="linr"  time="-9999999/1" value="0" leadInLength="0/1"  />
               <InterpolatingParam id="4574" interp="linr"  time="-9999999/1" value="0" leadInLength="0/1"  />
               <InterpolatingParam id="4575" interp="linr"  time="-9999999/1" value="0" leadInLength="0/1"  />
              </VectorParam>
              <VectorParam id="4576"  name="rotation">
               <InterpolatingParam id="4577" interp="linr"  time="-9999999/1" value="0" leadInLength="0/1"  />
               <InterpolatingParam id="4578" interp="linr"  time="-9999999/1" value="0" leadInLength="0/1"  />
               <InterpolatingParam id="4579" interp="linr"  time="-9999999/1" value="0" leadInLength="0/1"  />
              </VectorParam>
              <VectorParam id="4580"  name="shear">
               <InterpolatingParam id="4581" interp="linr"  time="-9999999/1" value="0" leadInLength="0/1"  />
               <InterpolatingParam id="4582" interp="linr"  time="-9999999/1" value="0" leadInLength="0/1"  />
               <InterpolatingParam id="4583" interp="linr"  time="-9999999/1" value="0" leadInLength="0/1"  />
              </VectorParam>
              <VectorParam id="4584"  name="scale">
               <InterpolatingParam id="4585" interp="linr"  time="-9999999/1" value="1" leadInLength="0/1"  />
               <InterpolatingParam id="4586" interp="linr"  time="-9999999/1" value="1" leadInLength="0/1"  />
               <InterpolatingParam id="4587" interp="linr"  time="-9999999/1" value="1" leadInLength="0/1"  />
              </VectorParam>
              <VectorParam id="4588"  name="anchor">
               <InterpolatingParam id="4589" interp="linr"  time="0/1" value="0" leadInLength="0/1"  />
               <InterpolatingParam id="4590" interp="linr"  time="0/1" value="0" leadInLength="0/1"  />
               <InterpolatingParam id="4591" interp="linr"  time="0/1" value="0" leadInLength="0/1"  />
              </VectorParam>
             </Transformer>
             <Parameters>
              <VectorParam id="4592"  name="sourceCrop">
               <InterpolatingParam id="4593" interp="linr"  time="0/1" value="0" leadInLength="0/1"  />
               <InterpolatingParam id="4594" interp="linr"  time="0/1" value="0" leadInLength="0/1"  />
               <InterpolatingParam id="4595" interp="linr"  time="0/1" value="0" leadInLength="0/1"  />
               <InterpolatingParam id="4596" interp="linr"  time="0/1" value="0" leadInLength="0/1"  />
              </VectorParam>
              <VectorParam id="4597"  name="geometryCrop">
               <InterpolatingParam id="4598" interp="linr"  time="-9999999/1" value="0" leadInLength="0/1"  />
               <InterpolatingParam id="4599" interp="linr"  time="-9999999/1" value="0" leadInLength="0/1"  />
               <InterpolatingParam id="4600" interp="linr"  time="-9999999/1" value="0" leadInLength="0/1"  />
               <InterpolatingParam id="4601" interp="linr"  time="-9999999/1" value="0" leadInLength="0/1"  />
              </VectorParam>
              <InterpolatingParam id="4602" interp="linr"  time="-9999999/1" value="1" leadInLength="0/1"  name="opacity"/>
             </Parameters>
             <Attributes>
              <Attribute id="4603" value="" name="ident"/>
             </Attributes>
             <ExtraData>
              <Entry key="ZoomPanBin">
               <ZoomPanBin id="4604"  >
                <ZoomPanKeyframes>
                 <ZoomPanKeyframe id="4605" timeRangeEnd="-9999999/1" timeRangeDuration="0/1" interpolaterName=""  />
                </ZoomPanKeyframes>
               </ZoomPanBin>
              </Entry>
             </ExtraData>
            </VMFile>
            <MetaData>
             <entry key="WinSubProjectDisplayName" val=""/>
            </MetaData>
           </UnifiedMedia>
           <UnifiedMedia id="4606"  >
            <AMFile id="4607" start="11560" duration="63" scalar="1/1" mediaStart="11611/1" mediaDuration="63/1" trackNumber="2" src="8" channelNumber="0,1" >
             <Parameters>
              <InterpolatingParam id="4608" interp="linr"  time="0/1" value="1" leadInLength="0/1"  name="volume"/>
              <Parameter id="4609"  name="captions"/>
             </Parameters>
             <Attributes>
              <Attribute id="4610" value="" name="ident"/>
              <Attribute id="4611" value="44100" name="sampleRate"/>
              <Attribute id="4612" value="16" name="bitDepth"/>
              <Attribute id="4613" value="1" name="gain"/>
              <Attribute id="4614" value="0" name="mixToMono"/>
             </Attributes>
            </AMFile>
            <VMFile id="4615" start="11560" duration="63" scalar="1/1" mediaStart="11611/1" mediaDuration="63/1" trackNumber="1" src="8" >
             <Transformer>
              <VectorParam id="4616"  name="translation">
               <InterpolatingParam id="4617" interp="linr"  time="-9999999/1" value="0" leadInLength="0/1"  />
               <InterpolatingParam id="4618" interp="linr"  time="-9999999/1" value="0" leadInLength="0/1"  />
               <InterpolatingParam id="4619" interp="linr"  time="-9999999/1" value="0" leadInLength="0/1"  />
              </VectorParam>
              <VectorParam id="4620"  name="rotation">
               <InterpolatingParam id="4621" interp="linr"  time="-9999999/1" value="0" leadInLength="0/1"  />
               <InterpolatingParam id="4622" interp="linr"  time="-9999999/1" value="0" leadInLength="0/1"  />
               <InterpolatingParam id="4623" interp="linr"  time="-9999999/1" value="0" leadInLength="0/1"  />
              </VectorParam>
              <VectorParam id="4624"  name="shear">
               <InterpolatingParam id="4625" interp="linr"  time="-9999999/1" value="0" leadInLength="0/1"  />
               <InterpolatingParam id="4626" interp="linr"  time="-9999999/1" value="0" leadInLength="0/1"  />
               <InterpolatingParam id="4627" interp="linr"  time="-9999999/1" value="0" leadInLength="0/1"  />
              </VectorParam>
              <VectorParam id="4628"  name="scale">
               <InterpolatingParam id="4629" interp="linr"  time="-9999999/1" value="1" leadInLength="0/1"  />
               <InterpolatingParam id="4630" interp="linr"  time="-9999999/1" value="1" leadInLength="0/1"  />
               <InterpolatingParam id="4631" interp="linr"  time="-9999999/1" value="1" leadInLength="0/1"  />
              </VectorParam>
              <VectorParam id="4632"  name="anchor">
               <InterpolatingParam id="4633" interp="linr"  time="0/1" value="0" leadInLength="0/1"  />
               <InterpolatingParam id="4634" interp="linr"  time="0/1" value="0" leadInLength="0/1"  />
               <InterpolatingParam id="4635" interp="linr"  time="0/1" value="0" leadInLength="0/1"  />
              </VectorParam>
             </Transformer>
             <Parameters>
              <VectorParam id="4636"  name="sourceCrop">
               <InterpolatingParam id="4637" interp="linr"  time="0/1" value="0" leadInLength="0/1"  />
               <InterpolatingParam id="4638" interp="linr"  time="0/1" value="0" leadInLength="0/1"  />
               <InterpolatingParam id="4639" interp="linr"  time="0/1" value="0" leadInLength="0/1"  />
               <InterpolatingParam id="4640" interp="linr"  time="0/1" value="0" leadInLength="0/1"  />
              </VectorParam>
              <VectorParam id="4641"  name="geometryCrop">
               <InterpolatingParam id="4642" interp="linr"  time="-9999999/1" value="0" leadInLength="0/1"  />
               <InterpolatingParam id="4643" interp="linr"  time="-9999999/1" value="0" leadInLength="0/1"  />
               <InterpolatingParam id="4644" interp="linr"  time="-9999999/1" value="0" leadInLength="0/1"  />
               <InterpolatingParam id="4645" interp="linr"  time="-9999999/1" value="0" leadInLength="0/1"  />
              </VectorParam>
              <InterpolatingParam id="4646" interp="linr"  time="-9999999/1" value="1" leadInLength="0/1"  name="opacity"/>
             </Parameters>
             <Attributes>
              <Attribute id="4647" value="" name="ident"/>
             </Attributes>
             <ExtraData>
              <Entry key="ZoomPanBin">
               <ZoomPanBin id="4648"  >
                <ZoomPanKeyframes>
                 <ZoomPanKeyframe id="4649" timeRangeEnd="-9999999/1" timeRangeDuration="0/1" interpolaterName=""  />
                </ZoomPanKeyframes>
               </ZoomPanBin>
              </Entry>
             </ExtraData>
            </VMFile>
            <MetaData>
             <entry key="WinSubProjectDisplayName" val=""/>
            </MetaData>
           </UnifiedMedia>
           <UnifiedMedia id="4650"  >
            <AMFile id="4651" start="11623" duration="147" scalar="1/1" mediaStart="11685/1" mediaDuration="147/1" trackNumber="2" src="8" channelNumber="0,1" >
             <Parameters>
              <InterpolatingParam id="4652" interp="linr"  time="0/1" value="1" leadInLength="0/1"  name="volume"/>
              <Parameter id="4653"  name="captions"/>
             </Parameters>
             <Attributes>
              <Attribute id="4654" value="" name="ident"/>
              <Attribute id="4655" value="44100" name="sampleRate"/>
              <Attribute id="4656" value="16" name="bitDepth"/>
              <Attribute id="4657" value="1" name="gain"/>
              <Attribute id="4658" value="0" name="mixToMono"/>
             </Attributes>
            </AMFile>
            <VMFile id="4659" start="11623" duration="147" scalar="1/1" mediaStart="11685/1" mediaDuration="147/1" trackNumber="1" src="8" >
             <Transformer>
              <VectorParam id="4660"  name="translation">
               <InterpolatingParam id="4661" interp="linr"  time="-9999999/1" value="0" leadInLength="0/1"  />
               <InterpolatingParam id="4662" interp="linr"  time="-9999999/1" value="0" leadInLength="0/1"  />
               <InterpolatingParam id="4663" interp="linr"  time="-9999999/1" value="0" leadInLength="0/1"  />
              </VectorParam>
              <VectorParam id="4664"  name="rotation">
               <InterpolatingParam id="4665" interp="linr"  time="-9999999/1" value="0" leadInLength="0/1"  />
               <InterpolatingParam id="4666" interp="linr"  time="-9999999/1" value="0" leadInLength="0/1"  />
               <InterpolatingParam id="4667" interp="linr"  time="-9999999/1" value="0" leadInLength="0/1"  />
              </VectorParam>
              <VectorParam id="4668"  name="shear">
               <InterpolatingParam id="4669" interp="linr"  time="-9999999/1" value="0" leadInLength="0/1"  />
               <InterpolatingParam id="4670" interp="linr"  time="-9999999/1" value="0" leadInLength="0/1"  />
               <InterpolatingParam id="4671" interp="linr"  time="-9999999/1" value="0" leadInLength="0/1"  />
              </VectorParam>
              <VectorParam id="4672"  name="scale">
               <InterpolatingParam id="4673" interp="linr"  time="-9999999/1" value="1" leadInLength="0/1"  />
               <InterpolatingParam id="4674" interp="linr"  time="-9999999/1" value="1" leadInLength="0/1"  />
               <InterpolatingParam id="4675" interp="linr"  time="-9999999/1" value="1" leadInLength="0/1"  />
              </VectorParam>
              <VectorParam id="4676"  name="anchor">
               <InterpolatingParam id="4677" interp="linr"  time="0/1" value="0" leadInLength="0/1"  />
               <InterpolatingParam id="4678" interp="linr"  time="0/1" value="0" leadInLength="0/1"  />
               <InterpolatingParam id="4679" interp="linr"  time="0/1" value="0" leadInLength="0/1"  />
              </VectorParam>
             </Transformer>
             <Parameters>
              <VectorParam id="4680"  name="sourceCrop">
               <InterpolatingParam id="4681" interp="linr"  time="0/1" value="0" leadInLength="0/1"  />
               <InterpolatingParam id="4682" interp="linr"  time="0/1" value="0" leadInLength="0/1"  />
               <InterpolatingParam id="4683" interp="linr"  time="0/1" value="0" leadInLength="0/1"  />
               <InterpolatingParam id="4684" interp="linr"  time="0/1" value="0" leadInLength="0/1"  />
              </VectorParam>
              <VectorParam id="4685"  name="geometryCrop">
               <InterpolatingParam id="4686" interp="linr"  time="-9999999/1" value="0" leadInLength="0/1"  />
               <InterpolatingParam id="4687" interp="linr"  time="-9999999/1" value="0" leadInLength="0/1"  />
               <InterpolatingParam id="4688" interp="linr"  time="-9999999/1" value="0" leadInLength="0/1"  />
               <InterpolatingParam id="4689" interp="linr"  time="-9999999/1" value="0" leadInLength="0/1"  />
              </VectorParam>
              <InterpolatingParam id="4690" interp="linr"  time="-9999999/1" value="1" leadInLength="0/1"  name="opacity"/>
             </Parameters>
             <Attributes>
              <Attribute id="4691" value="" name="ident"/>
             </Attributes>
             <ExtraData>
              <Entry key="ZoomPanBin">
               <ZoomPanBin id="4692"  >
                <ZoomPanKeyframes>
                 <ZoomPanKeyframe id="4693" timeRangeEnd="-9999999/1" timeRangeDuration="0/1" interpolaterName=""  />
                </ZoomPanKeyframes>
               </ZoomPanBin>
              </Entry>
             </ExtraData>
            </VMFile>
            <MetaData>
             <entry key="WinSubProjectDisplayName" val=""/>
            </MetaData>
           </UnifiedMedia>
           <UnifiedMedia id="4694"  >
            <AMFile id="4695" start="11770" duration="79" scalar="1/1" mediaStart="11848/1" mediaDuration="79/1" trackNumber="2" src="8" channelNumber="0,1" >
             <Parameters>
              <InterpolatingParam id="4696" interp="linr"  time="0/1" value="1" leadInLength="0/1"  name="volume"/>
              <Parameter id="4697"  name="captions"/>
             </Parameters>
             <Attributes>
              <Attribute id="4698" value="" name="ident"/>
              <Attribute id="4699" value="44100" name="sampleRate"/>
              <Attribute id="4700" value="16" name="bitDepth"/>
              <Attribute id="4701" value="1" name="gain"/>
              <Attribute id="4702" value="0" name="mixToMono"/>
             </Attributes>
            </AMFile>
            <VMFile id="4703" start="11770" duration="79" scalar="1/1" mediaStart="11848/1" mediaDuration="79/1" trackNumber="1" src="8" >
             <Transformer>
              <VectorParam id="4704"  name="translation">
               <InterpolatingParam id="4705" interp="linr"  time="-9999999/1" value="0" leadInLength="0/1"  />
               <InterpolatingParam id="4706" interp="linr"  time="-9999999/1" value="0" leadInLength="0/1"  />
               <InterpolatingParam id="4707" interp="linr"  time="-9999999/1" value="0" leadInLength="0/1"  />
              </VectorParam>
              <VectorParam id="4708"  name="rotation">
               <InterpolatingParam id="4709" interp="linr"  time="-9999999/1" value="0" leadInLength="0/1"  />
               <InterpolatingParam id="4710" interp="linr"  time="-9999999/1" value="0" leadInLength="0/1"  />
               <InterpolatingParam id="4711" interp="linr"  time="-9999999/1" value="0" leadInLength="0/1"  />
              </VectorParam>
              <VectorParam id="4712"  name="shear">
               <InterpolatingParam id="4713" interp="linr"  time="-9999999/1" value="0" leadInLength="0/1"  />
               <InterpolatingParam id="4714" interp="linr"  time="-9999999/1" value="0" leadInLength="0/1"  />
               <InterpolatingParam id="4715" interp="linr"  time="-9999999/1" value="0" leadInLength="0/1"  />
              </VectorParam>
              <VectorParam id="4716"  name="scale">
               <InterpolatingParam id="4717" interp="linr"  time="-9999999/1" value="1" leadInLength="0/1"  />
               <InterpolatingParam id="4718" interp="linr"  time="-9999999/1" value="1" leadInLength="0/1"  />
               <InterpolatingParam id="4719" interp="linr"  time="-9999999/1" value="1" leadInLength="0/1"  />
              </VectorParam>
              <VectorParam id="4720"  name="anchor">
               <InterpolatingParam id="4721" interp="linr"  time="0/1" value="0" leadInLength="0/1"  />
               <InterpolatingParam id="4722" interp="linr"  time="0/1" value="0" leadInLength="0/1"  />
               <InterpolatingParam id="4723" interp="linr"  time="0/1" value="0" leadInLength="0/1"  />
              </VectorParam>
             </Transformer>
             <Parameters>
              <VectorParam id="4724"  name="sourceCrop">
               <InterpolatingParam id="4725" interp="linr"  time="0/1" value="0" leadInLength="0/1"  />
               <InterpolatingParam id="4726" interp="linr"  time="0/1" value="0" leadInLength="0/1"  />
               <InterpolatingParam id="4727" interp="linr"  time="0/1" value="0" leadInLength="0/1"  />
               <InterpolatingParam id="4728" interp="linr"  time="0/1" value="0" leadInLength="0/1"  />
              </VectorParam>
              <VectorParam id="4729"  name="geometryCrop">
               <InterpolatingParam id="4730" interp="linr"  time="-9999999/1" value="0" leadInLength="0/1"  />
               <InterpolatingParam id="4731" interp="linr"  time="-9999999/1" value="0" leadInLength="0/1"  />
               <InterpolatingParam id="4732" interp="linr"  time="-9999999/1" value="0" leadInLength="0/1"  />
               <InterpolatingParam id="4733" interp="linr"  time="-9999999/1" value="0" leadInLength="0/1"  />
              </VectorParam>
              <InterpolatingParam id="4734" interp="linr"  time="-9999999/1" value="1" leadInLength="0/1"  name="opacity"/>
             </Parameters>
             <Attributes>
              <Attribute id="4735" value="" name="ident"/>
             </Attributes>
             <ExtraData>
              <Entry key="ZoomPanBin">
               <ZoomPanBin id="4736"  >
                <ZoomPanKeyframes>
                 <ZoomPanKeyframe id="4737" timeRangeEnd="-9999999/1" timeRangeDuration="0/1" interpolaterName=""  />
                </ZoomPanKeyframes>
               </ZoomPanBin>
              </Entry>
             </ExtraData>
            </VMFile>
            <MetaData>
             <entry key="WinSubProjectDisplayName" val=""/>
            </MetaData>
           </UnifiedMedia>
           <UnifiedMedia id="4738"  >
            <AMFile id="4739" start="11849" duration="163" scalar="1/1" mediaStart="11933/1" mediaDuration="163/1" trackNumber="2" src="8" channelNumber="0,1" >
             <Parameters>
              <InterpolatingParam id="4740" interp="linr"  time="0/1" value="1" leadInLength="0/1"  name="volume"/>
              <Parameter id="4741"  name="captions"/>
             </Parameters>
             <Attributes>
              <Attribute id="4742" value="" name="ident"/>
              <Attribute id="4743" value="44100" name="sampleRate"/>
              <Attribute id="4744" value="16" name="bitDepth"/>
              <Attribute id="4745" value="1" name="gain"/>
              <Attribute id="4746" value="0" name="mixToMono"/>
             </Attributes>
            </AMFile>
            <VMFile id="4747" start="11849" duration="163" scalar="1/1" mediaStart="11933/1" mediaDuration="163/1" trackNumber="1" src="8" >
             <Transformer>
              <VectorParam id="4748"  name="translation">
               <InterpolatingParam id="4749" interp="linr"  time="-9999999/1" value="0" leadInLength="0/1"  />
               <InterpolatingParam id="4750" interp="linr"  time="-9999999/1" value="0" leadInLength="0/1"  />
               <InterpolatingParam id="4751" interp="linr"  time="-9999999/1" value="0" leadInLength="0/1"  />
              </VectorParam>
              <VectorParam id="4752"  name="rotation">
               <InterpolatingParam id="4753" interp="linr"  time="-9999999/1" value="0" leadInLength="0/1"  />
               <InterpolatingParam id="4754" interp="linr"  time="-9999999/1" value="0" leadInLength="0/1"  />
               <InterpolatingParam id="4755" interp="linr"  time="-9999999/1" value="0" leadInLength="0/1"  />
              </VectorParam>
              <VectorParam id="4756"  name="shear">
               <InterpolatingParam id="4757" interp="linr"  time="-9999999/1" value="0" leadInLength="0/1"  />
               <InterpolatingParam id="4758" interp="linr"  time="-9999999/1" value="0" leadInLength="0/1"  />
               <InterpolatingParam id="4759" interp="linr"  time="-9999999/1" value="0" leadInLength="0/1"  />
              </VectorParam>
              <VectorParam id="4760"  name="scale">
               <InterpolatingParam id="4761" interp="linr"  time="-9999999/1" value="1" leadInLength="0/1"  />
               <InterpolatingParam id="4762" interp="linr"  time="-9999999/1" value="1" leadInLength="0/1"  />
               <InterpolatingParam id="4763" interp="linr"  time="-9999999/1" value="1" leadInLength="0/1"  />
              </VectorParam>
              <VectorParam id="4764"  name="anchor">
               <InterpolatingParam id="4765" interp="linr"  time="0/1" value="0" leadInLength="0/1"  />
               <InterpolatingParam id="4766" interp="linr"  time="0/1" value="0" leadInLength="0/1"  />
               <InterpolatingParam id="4767" interp="linr"  time="0/1" value="0" leadInLength="0/1"  />
              </VectorParam>
             </Transformer>
             <Parameters>
              <VectorParam id="4768"  name="sourceCrop">
               <InterpolatingParam id="4769" interp="linr"  time="0/1" value="0" leadInLength="0/1"  />
               <InterpolatingParam id="4770" interp="linr"  time="0/1" value="0" leadInLength="0/1"  />
               <InterpolatingParam id="4771" interp="linr"  time="0/1" value="0" leadInLength="0/1"  />
               <InterpolatingParam id="4772" interp="linr"  time="0/1" value="0" leadInLength="0/1"  />
              </VectorParam>
              <VectorParam id="4773"  name="geometryCrop">
               <InterpolatingParam id="4774" interp="linr"  time="-9999999/1" value="0" leadInLength="0/1"  />
               <InterpolatingParam id="4775" interp="linr"  time="-9999999/1" value="0" leadInLength="0/1"  />
               <InterpolatingParam id="4776" interp="linr"  time="-9999999/1" value="0" leadInLength="0/1"  />
               <InterpolatingParam id="4777" interp="linr"  time="-9999999/1" value="0" leadInLength="0/1"  />
              </VectorParam>
              <InterpolatingParam id="4778" interp="linr"  time="-9999999/1" value="1" leadInLength="0/1"  name="opacity"/>
             </Parameters>
             <Attributes>
              <Attribute id="4779" value="" name="ident"/>
             </Attributes>
             <ExtraData>
              <Entry key="ZoomPanBin">
               <ZoomPanBin id="4780"  >
                <ZoomPanKeyframes>
                 <ZoomPanKeyframe id="4781" timeRangeEnd="-9999999/1" timeRangeDuration="0/1" interpolaterName=""  />
                </ZoomPanKeyframes>
               </ZoomPanBin>
              </Entry>
             </ExtraData>
            </VMFile>
            <MetaData>
             <entry key="WinSubProjectDisplayName" val=""/>
            </MetaData>
           </UnifiedMedia>
           <UnifiedMedia id="4782"  >
            <AMFile id="4783" start="12012" duration="567" scalar="1/1" mediaStart="12464/1" mediaDuration="567/1" trackNumber="2" src="8" channelNumber="0,1" >
             <Parameters>
              <InterpolatingParam id="4784" interp="linr"  time="0/1" value="1" leadInLength="0/1"  name="volume"/>
              <Parameter id="4785"  name="captions"/>
             </Parameters>
             <Attributes>
              <Attribute id="4786" value="" name="ident"/>
              <Attribute id="4787" value="44100" name="sampleRate"/>
              <Attribute id="4788" value="16" name="bitDepth"/>
              <Attribute id="4789" value="1" name="gain"/>
              <Attribute id="4790" value="0" name="mixToMono"/>
             </Attributes>
            </AMFile>
            <VMFile id="4791" start="12012" duration="567" scalar="1/1" mediaStart="12464/1" mediaDuration="567/1" trackNumber="1" src="8" >
             <Transformer>
              <VectorParam id="4792"  name="translation">
               <InterpolatingParam id="4793" interp="linr"  time="-9999999/1" value="0" leadInLength="0/1"  />
               <InterpolatingParam id="4794" interp="linr"  time="-9999999/1" value="0" leadInLength="0/1"  />
               <InterpolatingParam id="4795" interp="linr"  time="-9999999/1" value="0" leadInLength="0/1"  />
              </VectorParam>
              <VectorParam id="4796"  name="rotation">
               <InterpolatingParam id="4797" interp="linr"  time="-9999999/1" value="0" leadInLength="0/1"  />
               <InterpolatingParam id="4798" interp="linr"  time="-9999999/1" value="0" leadInLength="0/1"  />
               <InterpolatingParam id="4799" interp="linr"  time="-9999999/1" value="0" leadInLength="0/1"  />
              </VectorParam>
              <VectorParam id="4800"  name="shear">
               <InterpolatingParam id="4801" interp="linr"  time="-9999999/1" value="0" leadInLength="0/1"  />
               <InterpolatingParam id="4802" interp="linr"  time="-9999999/1" value="0" leadInLength="0/1"  />
               <InterpolatingParam id="4803" interp="linr"  time="-9999999/1" value="0" leadInLength="0/1"  />
              </VectorParam>
              <VectorParam id="4804"  name="scale">
               <InterpolatingParam id="4805" interp="linr"  time="-9999999/1" value="1" leadInLength="0/1"  />
               <InterpolatingParam id="4806" interp="linr"  time="-9999999/1" value="1" leadInLength="0/1"  />
               <InterpolatingParam id="4807" interp="linr"  time="-9999999/1" value="1" leadInLength="0/1"  />
              </VectorParam>
              <VectorParam id="4808"  name="anchor">
               <InterpolatingParam id="4809" interp="linr"  time="0/1" value="0" leadInLength="0/1"  />
               <InterpolatingParam id="4810" interp="linr"  time="0/1" value="0" leadInLength="0/1"  />
               <InterpolatingParam id="4811" interp="linr"  time="0/1" value="0" leadInLength="0/1"  />
              </VectorParam>
             </Transformer>
             <Parameters>
              <VectorParam id="4812"  name="sourceCrop">
               <InterpolatingParam id="4813" interp="linr"  time="0/1" value="0" leadInLength="0/1"  />
               <InterpolatingParam id="4814" interp="linr"  time="0/1" value="0" leadInLength="0/1"  />
               <InterpolatingParam id="4815" interp="linr"  time="0/1" value="0" leadInLength="0/1"  />
               <InterpolatingParam id="4816" interp="linr"  time="0/1" value="0" leadInLength="0/1"  />
              </VectorParam>
              <VectorParam id="4817"  name="geometryCrop">
               <InterpolatingParam id="4818" interp="linr"  time="-9999999/1" value="0" leadInLength="0/1"  />
               <InterpolatingParam id="4819" interp="linr"  time="-9999999/1" value="0" leadInLength="0/1"  />
               <InterpolatingParam id="4820" interp="linr"  time="-9999999/1" value="0" leadInLength="0/1"  />
               <InterpolatingParam id="4821" interp="linr"  time="-9999999/1" value="0" leadInLength="0/1"  />
              </VectorParam>
              <InterpolatingParam id="4822" interp="linr"  time="-9999999/1" value="1" leadInLength="0/1"  name="opacity"/>
             </Parameters>
             <Attributes>
              <Attribute id="4823" value="" name="ident"/>
             </Attributes>
             <ExtraData>
              <Entry key="ZoomPanBin">
               <ZoomPanBin id="4824"  >
                <ZoomPanKeyframes>
                 <ZoomPanKeyframe id="4825" timeRangeEnd="-9999999/1" timeRangeDuration="0/1" interpolaterName=""  />
                </ZoomPanKeyframes>
               </ZoomPanBin>
              </Entry>
             </ExtraData>
            </VMFile>
            <MetaData>
             <entry key="WinSubProjectDisplayName" val=""/>
            </MetaData>
           </UnifiedMedia>
           <UnifiedMedia id="4826"  >
            <AMFile id="4827" start="12579" duration="553" scalar="1/1" mediaStart="13594/1" mediaDuration="553/1" trackNumber="2" src="8" channelNumber="0,1" >
             <Parameters>
              <InterpolatingParam id="4828" interp="linr"  time="0/1" value="1" leadInLength="0/1"  name="volume"/>
              <Parameter id="4829"  name="captions"/>
             </Parameters>
             <Attributes>
              <Attribute id="4830" value="" name="ident"/>
              <Attribute id="4831" value="44100" name="sampleRate"/>
              <Attribute id="4832" value="16" name="bitDepth"/>
              <Attribute id="4833" value="1" name="gain"/>
              <Attribute id="4834" value="0" name="mixToMono"/>
             </Attributes>
            </AMFile>
            <VMFile id="4835" start="12579" duration="553" scalar="1/1" mediaStart="13594/1" mediaDuration="553/1" trackNumber="1" src="8" >
             <Transformer>
              <VectorParam id="4836"  name="translation">
               <InterpolatingParam id="4837" interp="linr"  time="-9999999/1" value="0" leadInLength="0/1"  />
               <InterpolatingParam id="4838" interp="linr"  time="-9999999/1" value="0" leadInLength="0/1"  />
               <InterpolatingParam id="4839" interp="linr"  time="-9999999/1" value="0" leadInLength="0/1"  />
              </VectorParam>
              <VectorParam id="4840"  name="rotation">
               <InterpolatingParam id="4841" interp="linr"  time="-9999999/1" value="0" leadInLength="0/1"  />
               <InterpolatingParam id="4842" interp="linr"  time="-9999999/1" value="0" leadInLength="0/1"  />
               <InterpolatingParam id="4843" interp="linr"  time="-9999999/1" value="0" leadInLength="0/1"  />
              </VectorParam>
              <VectorParam id="4844"  name="shear">
               <InterpolatingParam id="4845" interp="linr"  time="-9999999/1" value="0" leadInLength="0/1"  />
               <InterpolatingParam id="4846" interp="linr"  time="-9999999/1" value="0" leadInLength="0/1"  />
               <InterpolatingParam id="4847" interp="linr"  time="-9999999/1" value="0" leadInLength="0/1"  />
              </VectorParam>
              <VectorParam id="4848"  name="scale">
               <InterpolatingParam id="4849" interp="linr"  time="-9999999/1" value="1" leadInLength="0/1"  />
               <InterpolatingParam id="4850" interp="linr"  time="-9999999/1" value="1" leadInLength="0/1"  />
               <InterpolatingParam id="4851" interp="linr"  time="-9999999/1" value="1" leadInLength="0/1"  />
              </VectorParam>
              <VectorParam id="4852"  name="anchor">
               <InterpolatingParam id="4853" interp="linr"  time="0/1" value="0" leadInLength="0/1"  />
               <InterpolatingParam id="4854" interp="linr"  time="0/1" value="0" leadInLength="0/1"  />
               <InterpolatingParam id="4855" interp="linr"  time="0/1" value="0" leadInLength="0/1"  />
              </VectorParam>
             </Transformer>
             <Parameters>
              <VectorParam id="4856"  name="sourceCrop">
               <InterpolatingParam id="4857" interp="linr"  time="0/1" value="0" leadInLength="0/1"  />
               <InterpolatingParam id="4858" interp="linr"  time="0/1" value="0" leadInLength="0/1"  />
               <InterpolatingParam id="4859" interp="linr"  time="0/1" value="0" leadInLength="0/1"  />
               <InterpolatingParam id="4860" interp="linr"  time="0/1" value="0" leadInLength="0/1"  />
              </VectorParam>
              <VectorParam id="4861"  name="geometryCrop">
               <InterpolatingParam id="4862" interp="linr"  time="-9999999/1" value="0" leadInLength="0/1"  />
               <InterpolatingParam id="4863" interp="linr"  time="-9999999/1" value="0" leadInLength="0/1"  />
               <InterpolatingParam id="4864" interp="linr"  time="-9999999/1" value="0" leadInLength="0/1"  />
               <InterpolatingParam id="4865" interp="linr"  time="-9999999/1" value="0" leadInLength="0/1"  />
              </VectorParam>
              <InterpolatingParam id="4866" interp="linr"  time="-9999999/1" value="1" leadInLength="0/1"  name="opacity"/>
             </Parameters>
             <Attributes>
              <Attribute id="4867" value="" name="ident"/>
             </Attributes>
             <ExtraData>
              <Entry key="ZoomPanBin">
               <ZoomPanBin id="4868"  >
                <ZoomPanKeyframes>
                 <ZoomPanKeyframe id="4869" timeRangeEnd="-9999999/1" timeRangeDuration="0/1" interpolaterName=""  />
                </ZoomPanKeyframes>
               </ZoomPanBin>
              </Entry>
             </ExtraData>
            </VMFile>
            <MetaData>
             <entry key="WinSubProjectDisplayName" val=""/>
            </MetaData>
           </UnifiedMedia>
          </Medias>
         </GenericTrack>
        </StitchedMedia>
        <StitchedMedia id="4870" start="3159" duration="649" scalar="1/1" mediaStart="481/1" mediaDuration="649/1" minMediaStart="0/1" >
         <Transformer>
          <VectorParam id="4871"  name="translation">
           <InterpolatingParam id="4872" interp="linr"  time="-9999999/1" value="572.0245932799553" leadInLength="0/1"  />
           <InterpolatingParam id="4873" interp="linr"  time="-9999999/1" value="-291.24068885580931" leadInLength="0/1"  />
           <InterpolatingParam id="4874" interp="linr"  time="-9999999/1" value="1.023181539494657e-009" leadInLength="0/1"  />
          </VectorParam>
          <VectorParam id="4875"  name="rotation">
           <InterpolatingParam id="4876" interp="linr"  time="-9999999/1" value="0" leadInLength="0/1"  />
           <InterpolatingParam id="4877" interp="linr"  time="-9999999/1" value="0" leadInLength="0/1"  />
           <InterpolatingParam id="4878" interp="linr"  time="-9999999/1" value="0" leadInLength="0/1"  />
          </VectorParam>
          <VectorParam id="4879"  name="shear">
           <InterpolatingParam id="4880" interp="linr"  time="-9999999/1" value="0" leadInLength="0/1"  />
           <InterpolatingParam id="4881" interp="linr"  time="-9999999/1" value="0" leadInLength="0/1"  />
           <InterpolatingParam id="4882" interp="linr"  time="-9999999/1" value="0" leadInLength="0/1"  />
          </VectorParam>
          <VectorParam id="4883"  name="scale">
           <InterpolatingParam id="4884" interp="linr"  time="-9999999/1" value="0.40617314599856402" leadInLength="0/1"  />
           <InterpolatingParam id="4885" interp="linr"  time="-9999999/1" value="0.40617314599856369" leadInLength="0/1"  />
           <InterpolatingParam id="4886" interp="linr"  time="-9999999/1" value="1" leadInLength="0/1"  />
          </VectorParam>
          <VectorParam id="4887"  name="anchor">
           <InterpolatingParam id="4888" interp="linr"  time="0/1" value="0" leadInLength="0/1"  />
           <InterpolatingParam id="4889" interp="linr"  time="0/1" value="0" leadInLength="0/1"  />
           <InterpolatingParam id="4890" interp="linr"  time="0/1" value="0" leadInLength="0/1"  />
          </VectorParam>
         </Transformer>
         <Parameters>
          <VectorParam id="4891"  name="sourceCrop">
           <InterpolatingParam id="4892" interp="linr"  time="0/1" value="0" leadInLength="0/1"  />
           <InterpolatingParam id="4893" interp="linr"  time="0/1" value="0" leadInLength="0/1"  />
           <InterpolatingParam id="4894" interp="linr"  time="0/1" value="0" leadInLength="0/1"  />
           <InterpolatingParam id="4895" interp="linr"  time="0/1" value="0" leadInLength="0/1"  />
          </VectorParam>
          <VectorParam id="4896"  name="geometryCrop">
           <InterpolatingParam id="4897" interp="linr"  time="-9999999/1" value="128.5714285724321" leadInLength="0/1"  />
           <InterpolatingParam id="4898" interp="linr"  time="-9999999/1" value="0" leadInLength="0/1"  />
           <InterpolatingParam id="4899" interp="linr"  time="-9999999/1" value="0" leadInLength="0/1"  />
           <InterpolatingParam id="4900" interp="linr"  time="-9999999/1" value="70.714285714275803" leadInLength="0/1"  />
          </VectorParam>
          <InterpolatingParam id="4901" interp="linr"  time="-9999999/1" value="1" leadInLength="0/1"  name="opacity"/>
          <InterpolatingParam id="4902" interp="linr"  time="0/1" value="1" leadInLength="0/1"  name="cursorOpacity"/>
          <InterpolatingParam id="4903" interp="linr"  time="0/1" value="1" leadInLength="0/1"  name="cursorScale"/>
          <InterpolatingParam id="4904" interp="linr"  time="0/1" value="1" leadInLength="0/1"  name="volume"/>
          <Parameter id="4905"  name="captions"/>
         </Parameters>
         <Effects>
          <GenericEffect id="4906" name = "NoiseReduction" >
           <Parameters>
           <InterpolatingParam id="4907" interp="linr"  time="0/1" value="27.599999999999998" leadInLength="0/1"   name="denoiserAmount"/>
           <InterpolatingParam id="4908" interp="linr"  time="0/1" value="2.2799999999999994" leadInLength="0/1"   name="denoiserThreshold"/>
           <Parameter id="4909"   name="noiseProfile">
            <Keyframes>
            <Keyframe id="4910"  time="0/1" value="FBAAAAIAAABErAAAAQIAAARYScJG9TrC40A6wvfCPMLDu1LCggldwkenZsIzp23Cj+hqwirkacJg&#xD;&#xa;xGzCuvtuwiM+eMLF+3XCs4l3wkKUgcIpqIHCP1uCwuGThMIwnoXCRLKBwsd6fcI8oYDCIPyDwmMB&#xD;&#xa;hcJfcoTCLmt4wsc9e8IWTobCD/eAwlfyf8KmiInCmIeQwhp9jsJ/c47CoSiQwjp0kMKWOZLC3RuW&#xD;&#xa;wpV0lsJiTJTCT3eVwtyqmMLMyJnC+u2YwqBQlsKU0JXC7WOXwsyumsJgcJvCF9iYwirNmcI2+ZrC&#xD;&#xa;6s+Zwq6TmcKSkpnCGeiYwh4hmcL425rCVauYwjxZlcK/ZJrCdMydwjv6m8JulZzCxoGdwo8FoMIv&#xD;&#xa;yqLCSKOfwmSjmcLAPpzCRa2fwpA+oMLdkZ/CUeCiwvT3pMKs0aPC9uqjwv1xo8IK36LCG/Ojwhmc&#xD;&#xa;psJWAKbCUuOjwvp1osKYw5/C8b6bwhytmsLVE5vC9Bydwoz+n8KxVqPC0s+iwlCansKPraHCXY6m&#xD;&#xa;wiwNqMIU4qnCw8SswlVfrcLyqazCef2owq6CqsKKvqzCA2Oswq66qsJiWqrCyIKvwnKAssJoHrHC&#xD;&#xa;smCxwgtvs8KECLLCzc6ywp+tssJOSLHCcHmvwtRFs8L0j7DCfkWtws4+scKHTLPC3EezwhO1tMJB&#xD;&#xa;YrbCtfa1wnzntsKhuLXCca2zwne6t8KzkbXC90a2wjBFt8KA5bXC5em0whzns8Jmo7XC1P24wpEG&#xD;&#xa;tsL2l67Cg9KwwmjPtsLAm7XCJ662wsy2tsLybLbCAuS1wkJissLf+67CzR+vwqUPs8Jl/7XCpXC3&#xD;&#xa;wkRRucJVWrfCGEu2wqiXtsKXP7fCw/C3wmQVuMK8qbbChFG0wphassIr4LLCJj+zwlZNs8J8xbTC&#xD;&#xa;10y1wiomtMIQXrPCJt61wjnitcIuqrXCGAG3whhKucLftLfCZMi2wpJgtcI3FLbC+MS1wo5Bt8Ju&#xD;&#xa;TbbCy1G1wpmXtcLWqbTCx0a2wi7/tsKOObjCiFC4whOQuMIaLLnC3Nq5wobQucJoCLfCsHu3wiyP&#xD;&#xa;t8IFcLrCjEa5whYFuMINo7jCGnq5wjqQusImsrzCxRq9wjbCvMIITrvCVw27wtCBusKaC7vCOqi5&#xD;&#xa;woQFu8JEu7vCpFi9wsZCvsJ+ur3CCNK+wojCvsK6gb/C2M+9wrE+vcJkl73C7Mm+wkzZvsLm1L7C&#xD;&#xa;ZZu9wsLevcJ6YsDC9PXBwrA4wsKVxr/CVyHAwmQOvMLk77bCbJq6wjr2vsIe/7/CCJW/wgZNv8Kw&#xD;&#xa;Z8DCUh/BwoDAwMI0AsHCOam9wiYJvMK6Qb/CxvDAwu3nwMLw1MDC2KW/wtS8v8IiWsHCes/Awtbu&#xD;&#xa;wMLD0sHCYjrAwiBDtsLBN7jCm33DwvQ+xcIA/8TCgGrBwnaUvsJN9b3CfjDBwnoXxMLSQsPCbGjB&#xD;&#xa;wvqSwMLvWMDCNnzBwlCowsLE0MTCrsHBwsYhwMKzscDCbFjBwry5v8IiNMHCfgK7wkSguMKrWMDC&#xD;&#xa;qGfBwmt5wMKez7/CFH7CwpSkwcIq6sPCj0bIwkAPwsLBlMLCZlDDwtzYwcKZfcHCkQfDwpA2w8J2&#xD;&#xa;+MHCDzzDwgucw8JQh8TCN/PEwsUlxMImz7nCGH20wjqcvcIqMMPC5WLDwpbtwcKu1cPC2k/Ewqjy&#xD;&#xa;wMI+dcDCPRrDwqRfw8KQgcTCbabEwp6LwsIMSMDCQvfCwjJ7xsLqosXCeLzHwoshxsKcGsXCywbC&#xD;&#xa;wqqTwMLif7rCf/y+wj4QxcKcccTC8BbFwlr3xcJY1cXCsoPEwrCVxMI3y8TCFYDEwmi5wsJyosTC&#xD;&#xa;1ZrFwhAtxsKLCsjC+JvIwpE5yMJS4cfC2kzHwnh7ysKKssfCauzEwnlgxMKqVsXCAKHEwgicxcKv&#xD;&#xa;UsvCMj3bwgQQ9sI82/bCePT0wkSK+MJNrvbCX9P1wu6V9cL4KPbCPmL5wth1+MLaTvXCGcH2wlSG&#xD;&#xa;+sJEjvvCUOz6wtQ/+MKmDfnCihr3wu/b9MLg0vTChFz4wj6S+cImdPjCHK73wlA7+ML0t/jCQuH4&#xD;&#xa;wkb59sKiu/XCYCP5wi6m98I9E/fCkFz3wmJ5+8K0pfvCAAf6wpah98JoNfjCJkn3woNm+MKAAvnC&#xD;&#xa;IJD4wvbR+sIMJvnC/ib1woqY9cKQavjC5AT7wk4b+cIcI/bCym/4wq4c98IHaPXCl/70wlLG9sLU&#xD;&#xa;nvnCAJr0wrrr9MKElPbCfsf4wohK/MLFoffC6BP1wqxz9MK0qPbCz8D2woQi9cKVFPjC0Pj2wtz4&#xD;&#xa;98KuxPjCdBP5wlTO+cJJd/fC7hH4woI798IKhvjCWsH2wiOy9sLwuffCnxL4wqV898Is1fbCDqz6&#xD;&#xa;wnBa+cLy0/fCcMP5wgIP/MKiWvzCLu/6wqJ5+sLgSfrCbKv1wrFg9sLaefrC5Kn4wgws98JnOPbC&#xD;&#xa;HiX2wuJt9MIkxfTCRM73ws5v98JIgfjC0h31wux19sJuhvbCjof4wuYJ+cKOi/nCDMT3wgao9MLE&#xD;&#xa;f/bCpqf6wg4b+cKIx/jC+yT1wh5M9sKiIvjCbEr4wsZw+cKm8fnCVLD5wgQ6+cLth/fCwnH1wj5H&#xD;&#xa;9cJEi/bCWMb4wi7M+cJK+PfCNsX1wtpG9sLpK/jCIPn3wuYL+cK6YvrCwFD5wmYT+sJ4cvnCNKn0&#xD;&#xa;wnqv9cIo3vXCJEz3wvkU+MJWcvXCwsD2wty9+MLE/ffCQg36wlhQ+cKyVvfC3TP1woEH98LCI/fC&#xD;&#xa;9ET1wsa79MJGz/fCCJQCw+BXScIC9TrCtEA6wgbDPMJ6vFLC6QldwvenZsJcpm3CzehqwkTjacLX&#xD;&#xa;wmzCGvtuwj49eMI6+nXCA4h3wliVgcKsqIHCN1qCwj6RhMKun4XCg7WBwmx8fcJmoYDCWvyDwoX/&#xD;&#xa;hMLvcYTCYW14wgZBe8J/T4bC8faAwurwf8Jch4nCUYSQwvB7jsIldI7CSymQwvJxkML/OZLCMBqW&#xD;&#xa;wmxzlsJKS5TC83aVwqGkmMJ9w5nCzvGYwg5RlsLTzZXCa1qXwkGomsLsbJvCTtSYwsfImcKw9JrC&#xD;&#xa;+8uZwt6NmcJvkZnCvOiYwpocmcIW15rCdqOYwo5XlcLzZ5rCC8udwg72m8L7jJzC1XSdwrH+n8LW&#xD;&#xa;yqLC+JefwgiYmcJ9OJzCKa+fwn5BoMIEl5/CeN+iwsj1pMJEyqPCZeOjwoNwo8KR2aLCZO+jwkiW&#xD;&#xa;psJt+qXCceWjwll6osLixJ/CMMSbwoCxmsJMF5vCGyKdwiD9n8JvUqPCdMmiwiKensKwrqHCQoWm&#xD;&#xa;wgUIqMIO06nCObmswr9lrcLHmqzCwBmpwkydqsIu26zC1nWswjzEqsJ6earCoH2vwm02ssLPSbHC&#xD;&#xa;jvyxwt6Rs8LqFLLCmgWzwn43s8JaGrHCLTmvwtk7s8KjxrDC/nmtwkKFscLtrrPC9Zazwj+0tML8&#xD;&#xa;lrbC5oy2wpRjt8J8lbXC+WyzwgF/t8Jtl7XCLIO2wszht8LMmbbCYqC1wgv/s8IcGbXCv8+4wlU1&#xD;&#xa;tsIE/a7CbEexwjTctsJJnrXCgHq2wuTDtsKAr7bCeFK2wpMAs8JYi6/CZr6vwmDhs8IXQ7bCaDS3&#xD;&#xa;wl6NucJPN7jCuzm3wqHOtsJxYrfC4mu4wt+zuMIqlLbCgFK0wuDmssKufLPCQY+zwrS0s8KfCbXC&#xD;&#xa;pJm1wvo1tMJoSrPCDK21wiTstcL72rXCJH+3wirKucJWebjCTKi3wlNytsI4oLbCYuu1wpoQt8Jn&#xD;&#xa;d7bCNmq1wnp+tcLYmLTC/sO2wg7kt8JyXLjC0xy4wtEvuMLKUrnC/OS5whqyucKZFrfCziS4wsQL&#xD;&#xa;uMJM/brCpv25wv24uMIT3LjConG5wpYEu8Kg1L3C3xC+wqTovMKEPrvCCgm7wjTBusLk5LvCTk26&#xD;&#xa;wjyIu8I1zrvC/JK9wqkwvsJiJb7CHDq/wvvLvsIo0L7Cq/q9wr08vcKysb3CDKi+wq49vsK29L3C&#xD;&#xa;2Bm9wurkvcIoWcHCpOTCwlSdwsLNF8DCCKq/wmt6u8Kyr7bCTqG6wpD2vsLYs7/CNEbAwvicv8KS&#xD;&#xa;u7/CimXBwh9NwcJ4V8HCydO9wt0GvMLUMb/C1BDBwmrUwMI30cDCMqm/wmrIv8IoR8HC4JDAwsrO&#xD;&#xa;wMJOx8HCCAfAwigftsJRC7jC8F7Dwl+dxcImO8XCDozBwm6RvsKwyr3CljbBwgY8xMLYE8PCSPzA&#xD;&#xa;wjVywMKJjcDC9L/Bws/cwsLoysTCqcfBwuwjwMKgrMDC2CbBwpS/v8IGMcHCXv+6wkSnuMJmXcDC&#xD;&#xa;CgrBwktdwMI8C8DCjnXCwpaIwcLQ/cPCvDzIwr02wsLu0MLCMnjDwmwHwsKxtMHC3QDDwjYKw8JW&#xD;&#xa;s8HCgPPCwpKLw8IWlcTCt7vEwj4/xMKc7rnCHXq0wkx8vcIg9cLCEo/DwoQrwsKoVcTCRozEwi4W&#xD;&#xa;wcIZacDC6+zCwhx/w8IcjsTCMrzEwge1wsLaecDC8DjDwtZuxsI8oMXCdifIwvR3xsLZCsXCcOfB&#xD;&#xa;wtSHwMKWgbrCECi/wsYExcI8UcTCJP7EwvGXxcJQqcXChojEwh5sxMK878TCoIvEwgaUwsIql8TC&#xD;&#xa;k6vFwiggxsJ5hcfCl23Iwh/Mx8I6p8fCvZbHwpGiysKEF8jCNhnFwsYjxMI+g8XCCVjFwnwRxsKX&#xD;&#xa;ZcvCkP7awiJo88JG4PjC/gL6wgy5+cKAa/zCJLf4wofD88IUX/TCPyv3wtY3+sJhv/fC6Hn4wqDy&#xD;&#xa;+cJIm/fCCmz5wvj6+8JA7/fCWhD1wk7Q9MIuzvjCIkT7wvbU+sLkpfjCWKT2wqAM98IMS/jCPn33&#xD;&#xa;wnyL9sKesPTCOp/0wpNL9sLcBPbCVv/5wvBE+8KKqvrClEn1wsYo9MIo//bCfsj4wpLy9sLub/bC&#xD;&#xa;t8f2wlhM9cJMpPTCLDjywjob88JuevXCSYPzwmCI9sI68/XCuiL1wl/Z98JQ+vnCulP7wtkC+MKu&#xD;&#xa;+PXCnc70whYG9cI4SfXC5G33wupK/MLkB//CBqn7wp8h98J6BPXC3kj4wtae+cLvRPjClm/4wqKY&#xD;&#xa;+MJ92fXCTqT2whyO+cKIfv3CPnf5wkL09cKRd/PC/wX1wsCq9sIUuPjC4BL8wmYF/MLW4PnCeqL5&#xD;&#xa;wnYP+cIvp/bCtnr1ws4m9cL2KPbCCzv4wo4O98JYqvbCsBH3wla49cI8pfbCfDr7wloA/cKaaPnC&#xD;&#xa;fJ/1wn8E9sKdz/fClSv4wiwJ98LokPjCbh34wpC2+MIAn/fCokz4wrKc+MJmlvjCmvz2wve49sJK&#xD;&#xa;tvnCjuv6wmnR9cLuYfXCgG/3wnlZ9sLgmvjCqv74wnIT98IH2/bC93X2wk5S9sJU8/bCQgD2wpwK&#xD;&#xa;9cI4TffCkuv6wnyd+cLw8PrCMNj7wmr0+MKc4fjC4ET6wuYx+sJE/vjCNPv4wpi59sJEOPbCMnb1&#xD;&#xa;wn7l98JexPvCkl37wlA1+sKl6ffCzuv6wuAB+8K2UPnComb2wgkf98JLPfjCIEX5wiIc+sLCivvC&#xD;&#xa;YET6wmnZ9sKM0fXCIJ0C" leadInLength="0/1"  />
            </Keyframes>
           </Parameter>
           </Parameters>
           <MetaData>
            <entry key="effectIndex" val="0"/>
           </MetaData>
          </GenericEffect>
         </Effects>
         <Attributes>
          <Attribute id="4911" value="" name="ident"/>
          <Attribute id="4912" value="0" name="mixToMono"/>
         </Attributes>
         <MetaData>
          <entry key="WinSubProjectDisplayName" val=""/>
         </MetaData>
         <ExtraData>
          <Entry key="ZoomPanBin">
           <ZoomPanBin id="4913"  >
            <ZoomPanKeyframes>
             <ZoomPanKeyframe id="4914" timeRangeEnd="-9999999/1" timeRangeDuration="0/1" interpolaterName=""  />
            </ZoomPanKeyframes>
           </ZoomPanBin>
          </Entry>
          <Entry key="CursorEffectBin">
           <CursorEffectBin id="4915"  >
            <CursorEffectKeyframes>
            </CursorEffectKeyframes>
           </CursorEffectBin>
          </Entry>
         </ExtraData>
         <GenericTrack id="4916"  >
          <Attributes>
           <Attribute id="4917" value="" name="ident"/>
           <Attribute id="4918" value="0" name="audioMuted"/>
           <Attribute id="4919" value="0" name="videoHidden"/>
          </Attributes>
          <MetaData>
           <entry key="IsLocked" val="False"/>
           <entry key="WinTrackHeight" val="0"/>
          </MetaData>
          <Medias>
           <UnifiedMedia id="4920"  >
            <AMFile id="4921" start="0" duration="484" scalar="1/1" mediaStart="0/1" mediaDuration="484/1" trackNumber="2" src="10" channelNumber="0,1" >
             <Parameters>
              <InterpolatingParam id="4922" interp="linr"  time="0/1" value="1" leadInLength="0/1"  name="volume"/>
              <Parameter id="4923"  name="captions"/>
             </Parameters>
             <Attributes>
              <Attribute id="4924" value="" name="ident"/>
              <Attribute id="4925" value="44100" name="sampleRate"/>
              <Attribute id="4926" value="16" name="bitDepth"/>
              <Attribute id="4927" value="1" name="gain"/>
              <Attribute id="4928" value="0" name="mixToMono"/>
             </Attributes>
            </AMFile>
            <VMFile id="4929" start="0" duration="484" scalar="1/1" mediaStart="0/1" mediaDuration="484/1" trackNumber="1" src="10" >
             <Transformer>
              <VectorParam id="4930"  name="translation">
               <InterpolatingParam id="4931" interp="linr"  time="-9999999/1" value="0" leadInLength="0/1"  />
               <InterpolatingParam id="4932" interp="linr"  time="-9999999/1" value="0" leadInLength="0/1"  />
               <InterpolatingParam id="4933" interp="linr"  time="-9999999/1" value="0" leadInLength="0/1"  />
              </VectorParam>
              <VectorParam id="4934"  name="rotation">
               <InterpolatingParam id="4935" interp="linr"  time="-9999999/1" value="0" leadInLength="0/1"  />
               <InterpolatingParam id="4936" interp="linr"  time="-9999999/1" value="0" leadInLength="0/1"  />
               <InterpolatingParam id="4937" interp="linr"  time="-9999999/1" value="0" leadInLength="0/1"  />
              </VectorParam>
              <VectorParam id="4938"  name="shear">
               <InterpolatingParam id="4939" interp="linr"  time="-9999999/1" value="0" leadInLength="0/1"  />
               <InterpolatingParam id="4940" interp="linr"  time="-9999999/1" value="0" leadInLength="0/1"  />
               <InterpolatingParam id="4941" interp="linr"  time="-9999999/1" value="0" leadInLength="0/1"  />
              </VectorParam>
              <VectorParam id="4942"  name="scale">
               <InterpolatingParam id="4943" interp="linr"  time="-9999999/1" value="1" leadInLength="0/1"  />
               <InterpolatingParam id="4944" interp="linr"  time="-9999999/1" value="1" leadInLength="0/1"  />
               <InterpolatingParam id="4945" interp="linr"  time="-9999999/1" value="1" leadInLength="0/1"  />
              </VectorParam>
              <VectorParam id="4946"  name="anchor">
               <InterpolatingParam id="4947" interp="linr"  time="0/1" value="0" leadInLength="0/1"  />
               <InterpolatingParam id="4948" interp="linr"  time="0/1" value="0" leadInLength="0/1"  />
               <InterpolatingParam id="4949" interp="linr"  time="0/1" value="0" leadInLength="0/1"  />
              </VectorParam>
             </Transformer>
             <Parameters>
              <VectorParam id="4950"  name="sourceCrop">
               <InterpolatingParam id="4951" interp="linr"  time="0/1" value="0" leadInLength="0/1"  />
               <InterpolatingParam id="4952" interp="linr"  time="0/1" value="0" leadInLength="0/1"  />
               <InterpolatingParam id="4953" interp="linr"  time="0/1" value="0" leadInLength="0/1"  />
               <InterpolatingParam id="4954" interp="linr"  time="0/1" value="0" leadInLength="0/1"  />
              </VectorParam>
              <VectorParam id="4955"  name="geometryCrop">
               <InterpolatingParam id="4956" interp="linr"  time="-9999999/1" value="0" leadInLength="0/1"  />
               <InterpolatingParam id="4957" interp="linr"  time="-9999999/1" value="0" leadInLength="0/1"  />
               <InterpolatingParam id="4958" interp="linr"  time="-9999999/1" value="0" leadInLength="0/1"  />
               <InterpolatingParam id="4959" interp="linr"  time="-9999999/1" value="0" leadInLength="0/1"  />
              </VectorParam>
              <InterpolatingParam id="4960" interp="linr"  time="-9999999/1" value="1" leadInLength="0/1"  name="opacity"/>
             </Parameters>
             <Attributes>
              <Attribute id="4961" value="" name="ident"/>
             </Attributes>
             <ExtraData>
              <Entry key="ZoomPanBin">
               <ZoomPanBin id="4962"  >
                <ZoomPanKeyframes>
                 <ZoomPanKeyframe id="4963" timeRangeEnd="-9999999/1" timeRangeDuration="0/1" interpolaterName=""  />
                </ZoomPanKeyframes>
               </ZoomPanBin>
              </Entry>
             </ExtraData>
            </VMFile>
            <MetaData>
             <entry key="WinSubProjectDisplayName" val=""/>
            </MetaData>
           </UnifiedMedia>
           <UnifiedMedia id="4964"  >
            <AMFile id="4965" start="484" duration="51" scalar="1/1" mediaStart="524/1" mediaDuration="51/1" trackNumber="2" src="10" channelNumber="0,1" >
             <Parameters>
              <InterpolatingParam id="4966" interp="linr"  time="0/1" value="1" leadInLength="0/1"  name="volume"/>
              <Parameter id="4967"  name="captions"/>
             </Parameters>
             <Attributes>
              <Attribute id="4968" value="" name="ident"/>
              <Attribute id="4969" value="44100" name="sampleRate"/>
              <Attribute id="4970" value="16" name="bitDepth"/>
              <Attribute id="4971" value="1" name="gain"/>
              <Attribute id="4972" value="0" name="mixToMono"/>
             </Attributes>
            </AMFile>
            <VMFile id="4973" start="484" duration="51" scalar="1/1" mediaStart="524/1" mediaDuration="51/1" trackNumber="1" src="10" >
             <Transformer>
              <VectorParam id="4974"  name="translation">
               <InterpolatingParam id="4975" interp="linr"  time="-9999999/1" value="0" leadInLength="0/1"  />
               <InterpolatingParam id="4976" interp="linr"  time="-9999999/1" value="0" leadInLength="0/1"  />
               <InterpolatingParam id="4977" interp="linr"  time="-9999999/1" value="0" leadInLength="0/1"  />
              </VectorParam>
              <VectorParam id="4978"  name="rotation">
               <InterpolatingParam id="4979" interp="linr"  time="-9999999/1" value="0" leadInLength="0/1"  />
               <InterpolatingParam id="4980" interp="linr"  time="-9999999/1" value="0" leadInLength="0/1"  />
               <InterpolatingParam id="4981" interp="linr"  time="-9999999/1" value="0" leadInLength="0/1"  />
              </VectorParam>
              <VectorParam id="4982"  name="shear">
               <InterpolatingParam id="4983" interp="linr"  time="-9999999/1" value="0" leadInLength="0/1"  />
               <InterpolatingParam id="4984" interp="linr"  time="-9999999/1" value="0" leadInLength="0/1"  />
               <InterpolatingParam id="4985" interp="linr"  time="-9999999/1" value="0" leadInLength="0/1"  />
              </VectorParam>
              <VectorParam id="4986"  name="scale">
               <InterpolatingParam id="4987" interp="linr"  time="-9999999/1" value="1" leadInLength="0/1"  />
               <InterpolatingParam id="4988" interp="linr"  time="-9999999/1" value="1" leadInLength="0/1"  />
               <InterpolatingParam id="4989" interp="linr"  time="-9999999/1" value="1" leadInLength="0/1"  />
              </VectorParam>
              <VectorParam id="4990"  name="anchor">
               <InterpolatingParam id="4991" interp="linr"  time="0/1" value="0" leadInLength="0/1"  />
               <InterpolatingParam id="4992" interp="linr"  time="0/1" value="0" leadInLength="0/1"  />
               <InterpolatingParam id="4993" interp="linr"  time="0/1" value="0" leadInLength="0/1"  />
              </VectorParam>
             </Transformer>
             <Parameters>
              <VectorParam id="4994"  name="sourceCrop">
               <InterpolatingParam id="4995" interp="linr"  time="0/1" value="0" leadInLength="0/1"  />
               <InterpolatingParam id="4996" interp="linr"  time="0/1" value="0" leadInLength="0/1"  />
               <InterpolatingParam id="4997" interp="linr"  time="0/1" value="0" leadInLength="0/1"  />
               <InterpolatingParam id="4998" interp="linr"  time="0/1" value="0" leadInLength="0/1"  />
              </VectorParam>
              <VectorParam id="4999"  name="geometryCrop">
               <InterpolatingParam id="5000" interp="linr"  time="-9999999/1" value="0" leadInLength="0/1"  />
               <InterpolatingParam id="5001" interp="linr"  time="-9999999/1" value="0" leadInLength="0/1"  />
               <InterpolatingParam id="5002" interp="linr"  time="-9999999/1" value="0" leadInLength="0/1"  />
               <InterpolatingParam id="5003" interp="linr"  time="-9999999/1" value="0" leadInLength="0/1"  />
              </VectorParam>
              <InterpolatingParam id="5004" interp="linr"  time="-9999999/1" value="1" leadInLength="0/1"  name="opacity"/>
             </Parameters>
             <Attributes>
              <Attribute id="5005" value="" name="ident"/>
             </Attributes>
             <ExtraData>
              <Entry key="ZoomPanBin">
               <ZoomPanBin id="5006"  >
                <ZoomPanKeyframes>
                 <ZoomPanKeyframe id="5007" timeRangeEnd="-9999999/1" timeRangeDuration="0/1" interpolaterName=""  />
                </ZoomPanKeyframes>
               </ZoomPanBin>
              </Entry>
             </ExtraData>
            </VMFile>
            <MetaData>
             <entry key="WinSubProjectDisplayName" val=""/>
            </MetaData>
           </UnifiedMedia>
           <UnifiedMedia id="5008"  >
            <AMFile id="5009" start="535" duration="214" scalar="1/1" mediaStart="582/1" mediaDuration="214/1" trackNumber="2" src="10" channelNumber="0,1" >
             <Parameters>
              <InterpolatingParam id="5010" interp="linr"  time="0/1" value="1" leadInLength="0/1"  name="volume"/>
              <Parameter id="5011"  name="captions"/>
             </Parameters>
             <Attributes>
              <Attribute id="5012" value="" name="ident"/>
              <Attribute id="5013" value="44100" name="sampleRate"/>
              <Attribute id="5014" value="16" name="bitDepth"/>
              <Attribute id="5015" value="1" name="gain"/>
              <Attribute id="5016" value="0" name="mixToMono"/>
             </Attributes>
            </AMFile>
            <VMFile id="5017" start="535" duration="214" scalar="1/1" mediaStart="582/1" mediaDuration="214/1" trackNumber="1" src="10" >
             <Transformer>
              <VectorParam id="5018"  name="translation">
               <InterpolatingParam id="5019" interp="linr"  time="-9999999/1" value="0" leadInLength="0/1"  />
               <InterpolatingParam id="5020" interp="linr"  time="-9999999/1" value="0" leadInLength="0/1"  />
               <InterpolatingParam id="5021" interp="linr"  time="-9999999/1" value="0" leadInLength="0/1"  />
              </VectorParam>
              <VectorParam id="5022"  name="rotation">
               <InterpolatingParam id="5023" interp="linr"  time="-9999999/1" value="0" leadInLength="0/1"  />
               <InterpolatingParam id="5024" interp="linr"  time="-9999999/1" value="0" leadInLength="0/1"  />
               <InterpolatingParam id="5025" interp="linr"  time="-9999999/1" value="0" leadInLength="0/1"  />
              </VectorParam>
              <VectorParam id="5026"  name="shear">
               <InterpolatingParam id="5027" interp="linr"  time="-9999999/1" value="0" leadInLength="0/1"  />
               <InterpolatingParam id="5028" interp="linr"  time="-9999999/1" value="0" leadInLength="0/1"  />
               <InterpolatingParam id="5029" interp="linr"  time="-9999999/1" value="0" leadInLength="0/1"  />
              </VectorParam>
              <VectorParam id="5030"  name="scale">
               <InterpolatingParam id="5031" interp="linr"  time="-9999999/1" value="1" leadInLength="0/1"  />
               <InterpolatingParam id="5032" interp="linr"  time="-9999999/1" value="1" leadInLength="0/1"  />
               <InterpolatingParam id="5033" interp="linr"  time="-9999999/1" value="1" leadInLength="0/1"  />
              </VectorParam>
              <VectorParam id="5034"  name="anchor">
               <InterpolatingParam id="5035" interp="linr"  time="0/1" value="0" leadInLength="0/1"  />
               <InterpolatingParam id="5036" interp="linr"  time="0/1" value="0" leadInLength="0/1"  />
               <InterpolatingParam id="5037" interp="linr"  time="0/1" value="0" leadInLength="0/1"  />
              </VectorParam>
             </Transformer>
             <Parameters>
              <VectorParam id="5038"  name="sourceCrop">
               <InterpolatingParam id="5039" interp="linr"  time="0/1" value="0" leadInLength="0/1"  />
               <InterpolatingParam id="5040" interp="linr"  time="0/1" value="0" leadInLength="0/1"  />
               <InterpolatingParam id="5041" interp="linr"  time="0/1" value="0" leadInLength="0/1"  />
               <InterpolatingParam id="5042" interp="linr"  time="0/1" value="0" leadInLength="0/1"  />
              </VectorParam>
              <VectorParam id="5043"  name="geometryCrop">
               <InterpolatingParam id="5044" interp="linr"  time="-9999999/1" value="0" leadInLength="0/1"  />
               <InterpolatingParam id="5045" interp="linr"  time="-9999999/1" value="0" leadInLength="0/1"  />
               <InterpolatingParam id="5046" interp="linr"  time="-9999999/1" value="0" leadInLength="0/1"  />
               <InterpolatingParam id="5047" interp="linr"  time="-9999999/1" value="0" leadInLength="0/1"  />
              </VectorParam>
              <InterpolatingParam id="5048" interp="linr"  time="-9999999/1" value="1" leadInLength="0/1"  name="opacity"/>
             </Parameters>
             <Attributes>
              <Attribute id="5049" value="" name="ident"/>
             </Attributes>
             <ExtraData>
              <Entry key="ZoomPanBin">
               <ZoomPanBin id="5050"  >
                <ZoomPanKeyframes>
                 <ZoomPanKeyframe id="5051" timeRangeEnd="-9999999/1" timeRangeDuration="0/1" interpolaterName=""  />
                </ZoomPanKeyframes>
               </ZoomPanBin>
              </Entry>
             </ExtraData>
            </VMFile>
            <MetaData>
             <entry key="WinSubProjectDisplayName" val=""/>
            </MetaData>
           </UnifiedMedia>
           <UnifiedMedia id="5052"  >
            <AMFile id="5053" start="749" duration="400" scalar="1/1" mediaStart="2078/1" mediaDuration="400/1" trackNumber="2" src="10" channelNumber="0,1" >
             <Parameters>
              <InterpolatingParam id="5054" interp="linr"  time="0/1" value="1" leadInLength="0/1"  name="volume"/>
              <Parameter id="5055"  name="captions"/>
             </Parameters>
             <Attributes>
              <Attribute id="5056" value="" name="ident"/>
              <Attribute id="5057" value="44100" name="sampleRate"/>
              <Attribute id="5058" value="16" name="bitDepth"/>
              <Attribute id="5059" value="1" name="gain"/>
              <Attribute id="5060" value="0" name="mixToMono"/>
             </Attributes>
            </AMFile>
            <VMFile id="5061" start="749" duration="400" scalar="1/1" mediaStart="2078/1" mediaDuration="400/1" trackNumber="1" src="10" >
             <Transformer>
              <VectorParam id="5062"  name="translation">
               <InterpolatingParam id="5063" interp="linr"  time="-9999999/1" value="0" leadInLength="0/1"  />
               <InterpolatingParam id="5064" interp="linr"  time="-9999999/1" value="0" leadInLength="0/1"  />
               <InterpolatingParam id="5065" interp="linr"  time="-9999999/1" value="0" leadInLength="0/1"  />
              </VectorParam>
              <VectorParam id="5066"  name="rotation">
               <InterpolatingParam id="5067" interp="linr"  time="-9999999/1" value="0" leadInLength="0/1"  />
               <InterpolatingParam id="5068" interp="linr"  time="-9999999/1" value="0" leadInLength="0/1"  />
               <InterpolatingParam id="5069" interp="linr"  time="-9999999/1" value="0" leadInLength="0/1"  />
              </VectorParam>
              <VectorParam id="5070"  name="shear">
               <InterpolatingParam id="5071" interp="linr"  time="-9999999/1" value="0" leadInLength="0/1"  />
               <InterpolatingParam id="5072" interp="linr"  time="-9999999/1" value="0" leadInLength="0/1"  />
               <InterpolatingParam id="5073" interp="linr"  time="-9999999/1" value="0" leadInLength="0/1"  />
              </VectorParam>
              <VectorParam id="5074"  name="scale">
               <InterpolatingParam id="5075" interp="linr"  time="-9999999/1" value="1" leadInLength="0/1"  />
               <InterpolatingParam id="5076" interp="linr"  time="-9999999/1" value="1" leadInLength="0/1"  />
               <InterpolatingParam id="5077" interp="linr"  time="-9999999/1" value="1" leadInLength="0/1"  />
              </VectorParam>
              <VectorParam id="5078"  name="anchor">
               <InterpolatingParam id="5079" interp="linr"  time="0/1" value="0" leadInLength="0/1"  />
               <InterpolatingParam id="5080" interp="linr"  time="0/1" value="0" leadInLength="0/1"  />
               <InterpolatingParam id="5081" interp="linr"  time="0/1" value="0" leadInLength="0/1"  />
              </VectorParam>
             </Transformer>
             <Parameters>
              <VectorParam id="5082"  name="sourceCrop">
               <InterpolatingParam id="5083" interp="linr"  time="0/1" value="0" leadInLength="0/1"  />
               <InterpolatingParam id="5084" interp="linr"  time="0/1" value="0" leadInLength="0/1"  />
               <InterpolatingParam id="5085" interp="linr"  time="0/1" value="0" leadInLength="0/1"  />
               <InterpolatingParam id="5086" interp="linr"  time="0/1" value="0" leadInLength="0/1"  />
              </VectorParam>
              <VectorParam id="5087"  name="geometryCrop">
               <InterpolatingParam id="5088" interp="linr"  time="-9999999/1" value="0" leadInLength="0/1"  />
               <InterpolatingParam id="5089" interp="linr"  time="-9999999/1" value="0" leadInLength="0/1"  />
               <InterpolatingParam id="5090" interp="linr"  time="-9999999/1" value="0" leadInLength="0/1"  />
               <InterpolatingParam id="5091" interp="linr"  time="-9999999/1" value="0" leadInLength="0/1"  />
              </VectorParam>
              <InterpolatingParam id="5092" interp="linr"  time="-9999999/1" value="1" leadInLength="0/1"  name="opacity"/>
             </Parameters>
             <Attributes>
              <Attribute id="5093" value="" name="ident"/>
             </Attributes>
             <ExtraData>
              <Entry key="ZoomPanBin">
               <ZoomPanBin id="5094"  >
                <ZoomPanKeyframes>
                 <ZoomPanKeyframe id="5095" timeRangeEnd="-9999999/1" timeRangeDuration="0/1" interpolaterName=""  />
                </ZoomPanKeyframes>
               </ZoomPanBin>
              </Entry>
             </ExtraData>
            </VMFile>
            <MetaData>
             <entry key="WinSubProjectDisplayName" val=""/>
            </MetaData>
           </UnifiedMedia>
           <UnifiedMedia id="5096"  >
            <AMFile id="5097" start="1149" duration="1129" scalar="1/1" mediaStart="2789/1" mediaDuration="1129/1" trackNumber="2" src="10" channelNumber="0,1" >
             <Parameters>
              <InterpolatingParam id="5098" interp="linr"  time="0/1" value="1" leadInLength="0/1"  name="volume"/>
              <Parameter id="5099"  name="captions"/>
             </Parameters>
             <Attributes>
              <Attribute id="5100" value="" name="ident"/>
              <Attribute id="5101" value="44100" name="sampleRate"/>
              <Attribute id="5102" value="16" name="bitDepth"/>
              <Attribute id="5103" value="1" name="gain"/>
              <Attribute id="5104" value="0" name="mixToMono"/>
             </Attributes>
            </AMFile>
            <VMFile id="5105" start="1149" duration="1129" scalar="1/1" mediaStart="2789/1" mediaDuration="1129/1" trackNumber="1" src="10" >
             <Transformer>
              <VectorParam id="5106"  name="translation">
               <InterpolatingParam id="5107" interp="linr"  time="-9999999/1" value="0" leadInLength="0/1"  />
               <InterpolatingParam id="5108" interp="linr"  time="-9999999/1" value="0" leadInLength="0/1"  />
               <InterpolatingParam id="5109" interp="linr"  time="-9999999/1" value="0" leadInLength="0/1"  />
              </VectorParam>
              <VectorParam id="5110"  name="rotation">
               <InterpolatingParam id="5111" interp="linr"  time="-9999999/1" value="0" leadInLength="0/1"  />
               <InterpolatingParam id="5112" interp="linr"  time="-9999999/1" value="0" leadInLength="0/1"  />
               <InterpolatingParam id="5113" interp="linr"  time="-9999999/1" value="0" leadInLength="0/1"  />
              </VectorParam>
              <VectorParam id="5114"  name="shear">
               <InterpolatingParam id="5115" interp="linr"  time="-9999999/1" value="0" leadInLength="0/1"  />
               <InterpolatingParam id="5116" interp="linr"  time="-9999999/1" value="0" leadInLength="0/1"  />
               <InterpolatingParam id="5117" interp="linr"  time="-9999999/1" value="0" leadInLength="0/1"  />
              </VectorParam>
              <VectorParam id="5118"  name="scale">
               <InterpolatingParam id="5119" interp="linr"  time="-9999999/1" value="1" leadInLength="0/1"  />
               <InterpolatingParam id="5120" interp="linr"  time="-9999999/1" value="1" leadInLength="0/1"  />
               <InterpolatingParam id="5121" interp="linr"  time="-9999999/1" value="1" leadInLength="0/1"  />
              </VectorParam>
              <VectorParam id="5122"  name="anchor">
               <InterpolatingParam id="5123" interp="linr"  time="0/1" value="0" leadInLength="0/1"  />
               <InterpolatingParam id="5124" interp="linr"  time="0/1" value="0" leadInLength="0/1"  />
               <InterpolatingParam id="5125" interp="linr"  time="0/1" value="0" leadInLength="0/1"  />
              </VectorParam>
             </Transformer>
             <Parameters>
              <VectorParam id="5126"  name="sourceCrop">
               <InterpolatingParam id="5127" interp="linr"  time="0/1" value="0" leadInLength="0/1"  />
               <InterpolatingParam id="5128" interp="linr"  time="0/1" value="0" leadInLength="0/1"  />
               <InterpolatingParam id="5129" interp="linr"  time="0/1" value="0" leadInLength="0/1"  />
               <InterpolatingParam id="5130" interp="linr"  time="0/1" value="0" leadInLength="0/1"  />
              </VectorParam>
              <VectorParam id="5131"  name="geometryCrop">
               <InterpolatingParam id="5132" interp="linr"  time="-9999999/1" value="0" leadInLength="0/1"  />
               <InterpolatingParam id="5133" interp="linr"  time="-9999999/1" value="0" leadInLength="0/1"  />
               <InterpolatingParam id="5134" interp="linr"  time="-9999999/1" value="0" leadInLength="0/1"  />
               <InterpolatingParam id="5135" interp="linr"  time="-9999999/1" value="0" leadInLength="0/1"  />
              </VectorParam>
              <InterpolatingParam id="5136" interp="linr"  time="-9999999/1" value="1" leadInLength="0/1"  name="opacity"/>
             </Parameters>
             <Attributes>
              <Attribute id="5137" value="" name="ident"/>
             </Attributes>
             <ExtraData>
              <Entry key="ZoomPanBin">
               <ZoomPanBin id="5138"  >
                <ZoomPanKeyframes>
                 <ZoomPanKeyframe id="5139" timeRangeEnd="-9999999/1" timeRangeDuration="0/1" interpolaterName=""  />
                </ZoomPanKeyframes>
               </ZoomPanBin>
              </Entry>
             </ExtraData>
            </VMFile>
            <MetaData>
             <entry key="WinSubProjectDisplayName" val=""/>
            </MetaData>
           </UnifiedMedia>
          </Medias>
         </GenericTrack>
        </StitchedMedia>
        <StitchedMedia id="5140" start="3808" duration="407" scalar="1/1" mediaStart="1720/1" mediaDuration="407/1" minMediaStart="0/1" >
         <Transformer>
          <VectorParam id="5141"  name="translation">
           <InterpolatingParam id="5142" interp="linr"  time="-9999999/1" value="516.90683229744218" leadInLength="0/1"  />
           <InterpolatingParam id="5143" interp="linr"  time="-9999999/1" value="-256.70157674301748" leadInLength="0/1"  />
           <InterpolatingParam id="5144" interp="linr"  time="-9999999/1" value="2.046363078988859e-009" leadInLength="0/1"  />
          </VectorParam>
          <VectorParam id="5145"  name="rotation">
           <InterpolatingParam id="5146" interp="linr"  time="-9999999/1" value="0" leadInLength="0/1"  />
           <InterpolatingParam id="5147" interp="linr"  time="-9999999/1" value="0" leadInLength="0/1"  />
           <InterpolatingParam id="5148" interp="linr"  time="-9999999/1" value="0" leadInLength="0/1"  />
          </VectorParam>
          <VectorParam id="5149"  name="shear">
           <InterpolatingParam id="5150" interp="linr"  time="-9999999/1" value="0" leadInLength="0/1"  />
           <InterpolatingParam id="5151" interp="linr"  time="-9999999/1" value="0" leadInLength="0/1"  />
           <InterpolatingParam id="5152" interp="linr"  time="-9999999/1" value="0" leadInLength="0/1"  />
          </VectorParam>
          <VectorParam id="5153"  name="scale">
           <InterpolatingParam id="5154" interp="linr"  time="-9999999/1" value="0.57841614906894534" leadInLength="0/1"  />
           <InterpolatingParam id="5155" interp="linr"  time="-9999999/1" value="0.5784161490682681" leadInLength="0/1"  />
           <InterpolatingParam id="5156" interp="linr"  time="-9999999/1" value="1" leadInLength="0/1"  />
          </VectorParam>
          <VectorParam id="5157"  name="anchor">
           <InterpolatingParam id="5158" interp="linr"  time="0/1" value="0" leadInLength="0/1"  />
           <InterpolatingParam id="5159" interp="linr"  time="0/1" value="0" leadInLength="0/1"  />
           <InterpolatingParam id="5160" interp="linr"  time="0/1" value="0" leadInLength="0/1"  />
          </VectorParam>
         </Transformer>
         <Parameters>
          <VectorParam id="5161"  name="sourceCrop">
           <InterpolatingParam id="5162" interp="linr"  time="0/1" value="0" leadInLength="0/1"  />
           <InterpolatingParam id="5163" interp="linr"  time="0/1" value="0" leadInLength="0/1"  />
           <InterpolatingParam id="5164" interp="linr"  time="0/1" value="0" leadInLength="0/1"  />
           <InterpolatingParam id="5165" interp="linr"  time="0/1" value="0" leadInLength="0/1"  />
          </VectorParam>
          <VectorParam id="5166"  name="geometryCrop">
           <InterpolatingParam id="5167" interp="linr"  time="-9999999/1" value="180.00000000011266" leadInLength="0/1"  />
           <InterpolatingParam id="5168" interp="linr"  time="-9999999/1" value="0" leadInLength="0/1"  />
           <InterpolatingParam id="5169" interp="linr"  time="-9999999/1" value="0" leadInLength="0/1"  />
           <InterpolatingParam id="5170" interp="linr"  time="-9999999/1" value="69.747155497572379" leadInLength="0/1"  />
          </VectorParam>
          <InterpolatingParam id="5171" interp="linr"  time="-9999999/1" value="1" leadInLength="0/1"  name="opacity"/>
          <InterpolatingParam id="5172" interp="linr"  time="0/1" value="1" leadInLength="0/1"  name="cursorOpacity"/>
          <InterpolatingParam id="5173" interp="linr"  time="0/1" value="1" leadInLength="0/1"  name="cursorScale"/>
          <InterpolatingParam id="5174" interp="linr"  time="0/1" value="1" leadInLength="0/1"  name="volume"/>
          <Parameter id="5175"  name="captions"/>
         </Parameters>
         <Effects>
          <GenericEffect id="5176" name = "NoiseReduction" >
           <Parameters>
           <InterpolatingParam id="5177" interp="linr"  time="0/1" value="27.599999999999998" leadInLength="0/1"   name="denoiserAmount"/>
           <InterpolatingParam id="5178" interp="linr"  time="0/1" value="2.2799999999999994" leadInLength="0/1"   name="denoiserThreshold"/>
           <Parameter id="5179"   name="noiseProfile">
            <Keyframes>
            <Keyframe id="5180"  time="0/1" value="FBAAAAIAAABErAAAAQIAAKu0bsII+13CJsRlwoMvZMLfg1vChXZZwrMpZsIgAmzCJlFvwk9hdMKe&#xD;&#xa;rG/Cw1txwtqyf8JY3IDCshyCwppph8KuqozCrOaIwj7MicKAs4nCw1qIwuRQhcIOEYPCuLWEwtZj&#xD;&#xa;icK1IIrCeSuGwqpZisLHiIrC9muLwveRkMISg5TCKwOOwn2ajsKiC5HCNgGSwsbZkMJenozCqNWQ&#xD;&#xa;wveklMLmMJHCiRuRwt2wksKS8ZDCmOGUwkhOl8Jih5jClKGYwpAYm8KIZp3C5HWhwp0IpcLK06HC&#xD;&#xa;hHyewrJhnMJm35vCdLSawuxMncIjsZ3CbGqewpJaosL64Z/CFOabwkxAncIloaDCJPugwl+sosKu&#xD;&#xa;P6PCnl+jwv6ZoMLk3p/CdRekwgZ1qcIeX6rC/B2nwp7zpsJ2qKfCoRyowpV9qcIUmKnCVlepwpNn&#xD;&#xa;qsJMpKjC77qpworpq8JwzKfCmsGlwiiUqsLRgq3Cy66rwq5lrcKMxqzCS+iqwnixp8Luk63CHN6u&#xD;&#xa;wgh9r8JP1q3CxSyuwrbjscImg7DCEh6wwtgassKmLbHCb/SxwgfzssJeHrTCapCzwtHprsIQ+6/C&#xD;&#xa;eQywwtpfrsLq0a/CiG2zwrsbtcJfPbLCD2KswkBusMI4V7bCc7i1wiyPtsLjk7bCC7S1wiOntsKC&#xD;&#xa;QrTC3/i1wtrBtMLAq7XCj1u3wi8At8L4pbXCq5q2wkK/tsIwyLjCa063wuLeucJof7rCvnu7woZp&#xD;&#xa;usK6u7XCZNq3wj6cuMI+UbnCcoG4wkght8J7lbrCzra8whmyvcJxXbzC1si2wm3btMLEY7nCTc28&#xD;&#xa;wmQfusLPvbnCfFG4wv7mt8Lw0rjCnpm4wtEquMJXWbfCFmm5wlM6ucKDSLbCdNm3wrA9uMLc0bXC&#xD;&#xa;xhK0ws9dtsIK97jCdLG6wv8Ku8KIRbjC1N63wrgkucIy77rCCAi8wkM3uMIlXrfCZvu5wjzSt8Lg&#xD;&#xa;3bjCvra4wvPzt8IIGbjCZB65wuMNt8InE7nCLte4wjeSu8LIbr7CcTS9wsocucLNKbzC7li+womB&#xD;&#xa;v8ILi77CYge5wrNhuMKcYbnC3q26wrLIu8IZ873CIRq+wrb5vsLwaL/C63W+wvCnv8JWgr7Cjty5&#xD;&#xa;wh5hvsL4hcLCAJ7Cwq7FwcIXfsHCJc++wmSQvMJw/bzCN2u8wqSAvsL0Z7/C/S69wvqKvcLR/bzC&#xD;&#xa;kfK/wjR7wcIyt8DCLqnCwj0gwsLsZcHC5Ie/wuQGvcJOY7bCpYe5wkyav8IUZMDCvp3DwiFawcJq&#xD;&#xa;/L/CXFDDwtTbwsJcLcPCInLDwvhUxcLRi8XCS7/GwiGNx8IRIMjCMKzFwpYOxcL0psXCqIvDwjwY&#xD;&#xa;xMLwfMHCakzAwsqkucIqErrCP7HBwqcNxsICpsnCbLTEwrZKw8LQG8HCye7Bwrgow8KYKMLCPFfB&#xD;&#xa;wl1PwsJvFsTCTMvDwu1Pw8J2CMTCMtXEwmp/xcIaqMXCHD/Fwth7wcK8usDCtpm4wv4ytsJT6L7C&#xD;&#xa;8MC/wt4EwcJ4gsHCRqbGwlYvyMLvYMbC8PzCwsJoxMKotMXCfAnGwkUxxsKhecPC2JLFwjCNxcLo&#xD;&#xa;6MHCHRrEwhmbx8JJz8rCCvzKwnjaxMJZ273CLn65wjjBwMK80cHCnI/AwsuJwcInYMTC0fLHwr7l&#xD;&#xa;xsJC+cTC2hXGwpDiycIa3sfCZgfHwqdexcKoVsHCBNLEwhPzxMLqC8LCUD/BwtZHw8LXwsPCcjLD&#xD;&#xa;wuqXwcLASbvC7J/BwvqixsLwOcTChgXCwjuawMKgRsPClGTGwn78xcLIxMTC+CXEwrBwwsLZDsPC&#xD;&#xa;xFHGwlB5x8K2wcXCGVjDwprFxMIE1MPCkDrBwkuHwsLAMcbCdiDDwsCvwcIuGcTCycjEwhzQxMKA&#xD;&#xa;PMrCgjLawiCf88IaQfrCNoP4wr4z+cIYH/rCTHr4wnMP+ML+TvbCWWb1woiF9sLwWfbCauz5wrDj&#xD;&#xa;+8Kg+PjCUFv4wly59sIdEfjCIAL3whYK98KYwfbCbAr4wvgK+cJCJfnCKvP3woIS+cJYlfnCk0D2&#xD;&#xa;wjgb9cIcRvTC8qX1wtZj9sJMBvXCruv4wgru+8IwrvrCjp76wrLW+cIeuPnCYiH3whqI9sJeFvfC&#xD;&#xa;DD/2wroB+cI2FvjCGl31wnI19sJMd/rCxF38wkoT+MJCIfXCDmv6wkxR+8Ias/nC9tL4wghD98IN&#xD;&#xa;lPXC3CD2ws5398LO9vjCBCj4wi7T98IEp/nCXI34wlKX+MLo3vjCxhr6wpiV+cJAuvjCQO/2wt5A&#xD;&#xa;+cJt3/bCpoH4wrZx+cLgT/nCiBT7wi4E+sIQ3fnCrEP4wioT+MLiWvnCHE/6wlar+sJKefvC/Of6&#xD;&#xa;wuAN+cJY/fXCXc72wnYX+MJ8dfnCJLP6wmAK+8L0dfnC6E33wqDl9MLgfPjCJKH3wqLD9MLpufbC&#xD;&#xa;vPj1wuOS9sKAzPnCrED7whb/+MIUBPfC0OP5wuQo+sIUH/jCNKP2wpwr9MKfIvbCCIn3wjar9sKK&#xD;&#xa;zvjCba/2wibJ98KoYvbCTBf3whqv98LM4/nCIvH4wgib+MJiMvjC2PL3wswh9sJ0PPXCOdb3wsTS&#xD;&#xa;+MIw7/fC9df3wk4s+cISLfbCGq/0wp0T9sLLKPbC5F73wv3498Ie7PjCoj35wloz98JFJffCyNP4&#xD;&#xa;wrjm+cK6tvbCO1z2wt+298J2mfvCorb5woa4+MI4o/vCYDH8wrbO+sKKavnC4uj2wujU9cIoWvTC&#xD;&#xa;Mqn1wuZP9cLaKPjCJCoGw4S0bsL++V3Cc8JlwvEtZMIYg1vCbHZZwnEpZsJqAWzCJFBvwhxjdMJ5&#xD;&#xa;xW/Cgn9xwtLKf8Kb3oDC1x+CwtRsh8JcrYzCduaIwpfKicK8sInCmFmIwu5QhcJMEoPC9raEwl1j&#xD;&#xa;icI+HorCyyeGwohWisLDiIrCOWqLwo2QkMIgiZTCHAWOwpqYjsKdCpHCtQCSwvPZkMLgnIzC1tOQ&#xD;&#xa;wsullMLsMJHC8h2RwiK3ksJZ9pDCteSUwoRQl8Kzh5jCcKCYwnwam8LSZZ3CAXihwsIUpcJa2KHC&#xD;&#xa;B3+ewtNjnMJ33ZvC5rqawkBVncIFtp3CPm2ewoFYosK145/C7eSbwt5CncIon6DCnfGgwuSmosKQ&#xD;&#xa;SqPC0l2jwsaToMJ00Z/CkhCkwopqqcLBVarCuCKnwur1psJep6fCVRWowulvqcIqlqnCLl2pwuJV&#xD;&#xa;qsL+najCGbepwhrtq8L61afCEN6lwhnXqsIDt63C57KrwhpfrcKP8azCGQGrwhzCp8KtyK3C6gKv&#xD;&#xa;wn2Wr8KG763CYICuwhgTssKiQbDC4uGvwnREssJgQbHChmCywilws8I0jLTCxgW0widKr8LMaLDC&#xD;&#xa;NDawwrd7rsLV/6/CfpazwjPBtMKcPLLC2NaswirdsMLaerbC1LS1wtB4tsKMzrbCNVe2wnlUt8Ir&#xD;&#xa;1bTC8Pe1wq2ptMKJBLbCUfq3wgcFt8JE57XCjFO3wpy0t8InFrnCB1i3wi3VucIkyLrCXge8wq7e&#xD;&#xa;usJwJ7bC3EG4wqo4ucJ/vrnCe5S4wmGYt8J+mbrCFvG7wu/RvcIyUL3CPfe2wq3ztMIwubnCthW9&#xD;&#xa;wh8GusJstrnCZCe4wpUGuMJyJLnCqCi5wt5uuMItjrfCWH+5wjuwucKOT7fCfZG4wis+uMJIX7XC&#xD;&#xa;6sizwuL5tcJUR7nCMpO7wj7cu8K4fLjCSFW4wrWHucK6CrvCIn68wvlNuMK3abfCQny6wsWSuMKW&#xD;&#xa;qLnCav64wtIauMKUpbjCcje5wqYQt8KYb7nCYHu5wmUqvMIaFL/CqM+9wl7oucJV6LzCL3u+whO1&#xD;&#xa;v8J4eb7Coh65wmxQuMLMl7nCRNC6whB2u8Ji1b3C4me+wmnevsKap7/Cksa+wg+3v8JgZr7Cuwq6&#xD;&#xa;wgq+vsKOHMPCOITCwkUQwsImYMHCtd6+wp4MvcK2T73CWUu8wtiVvsJKb7/CPge9wm6wvcKEEr3C&#xD;&#xa;uoy/wrBawcJUOcDCWHbCwnkxwsKtqsDCPmq/wvhSvcKQYrbCXoi5ws6Jv8I+bsDCEJDDwiC+wcJz&#xD;&#xa;HsDCQd7DwvQ+w8I8GMPCiC/DwhPZxMIqEcXCwrrGwrbAx8IsdsjCXbjFwhLfxMLTksXC4onDwnbV&#xD;&#xa;w8LsR8HCKkHAwjTQucIcOrrC4sfBwlQYxsIc1MnCF43EwthHw8IWXMHC9kzCwrqiw8IKP8LCQG/B&#xD;&#xa;wv54wsJSycPCqq/Dwg8Tw8LeRcTCNYvFwjZyxsLF9cXCSlTFwm9+wcKHlMDCtpC4wkkntsKSFL/C&#xD;&#xa;nPC/wrsawcLefcHCTk/GwmoiyMLLRsbC+wTDwuJcxMJO1cXCfTLGwvhLxsKEdMPCHM7FwqEKxsKI&#xD;&#xa;RMLC3CPEwrBsx8KxhMrC7qDKwsrixMIyAr7CUoO5wtWmwMIUFMLC8mvAwrBGwcKA6sPCgoHHwu46&#xD;&#xa;x8L5acXCkBrGwgl4ycKn0sfC3CjHwvKFxcKmVsHC8arEwvLMxMJJ0MHCvlvBwr1zw8KgB8TCijrD&#xD;&#xa;wvChwcLKWLvCrpLBwgJuxsLMv8PCOK3BwvpAwMJGzcLCJDnGwlkjxsJy5sTCWBbEwmQ+wsJe/sLC&#xD;&#xa;vlvGwviRx8LDxcXCZmLDwtq3xMLc8cPC21TBwnp/wsImBcbCQPTCwmK0wcKcGcTCYeTEwlrrxMKa&#xD;&#xa;b8rCjnXawlZQ8sJCzvTCsIn0wkJU9sJIMfrC6m/7wrK9+8KmGvvC0rL5wqp+9sIy/fXCcqD3wtSU&#xD;&#xa;9MIGUvXCIgX3wk9v98JmF/fCE1D2wnDz9cK0A/XCJ/T2wugt+cKLmfbCsqb0wphF9MLG0ffCedH2&#xD;&#xa;whdt98IaNPfCKlP3wrrx9cLdOvjCPFX5wgbL+ML4gfnC6uL5wjZH/MLGDfnCeuD0wqbP9cLw5vfC&#xD;&#xa;nlj3wom39sICvvjCfF35wsbi+8IgkffCKpD0wia19sJm//nCGM38wirt+sIk5/fCWO30wpS99sLt&#xD;&#xa;DvbCiLH0wpmW98I+wfjCLVb3wpJ098JIt/nCELL5wiLp98LAZfjCup31wknP9cJAhfjCA1/3wpTo&#xD;&#xa;+cL+KvnCIif4wrLs+MI0ivjClE/4wnDx9sIiFPjC5JH4wvKW+MKyHfnCYmj5wkjW9sJyvvTCLS32&#xD;&#xa;wq5b9sJAZPbCJd33wgNY9sJVRvjCoJv6wvDa+sLmfPrCQqH4wuiZ+MLgM/fCuHP2wvhS98Lq1PrC&#xD;&#xa;om/7wl+T98LMdvbCqkf4wmKp98JIcvbCUP31wvFN98IeyvjCfCH5wvth98Ie/PjC5tP6wpTo+MKW&#xD;&#xa;EffCrJT3wt5q+MIKlfjCSnX5wrjg+8JGh/nCUtH4wn5n+sLUR/zCQKL8wuww+sLYHPfCJY31wo4g&#xD;&#xa;9sI4WPXCJFL2whoO9sIigPbCyMb1wv8O9cIQFfTCsDb2wt70+cLEu/nCcub3wsG+98LqFfjCDlr5&#xD;&#xa;wlR5+cJ43fnCFLv5woi0+8JSGP3CfKH5wri998I2RfjCdtH3wkJ/88JFSvTCGHD3wuop9sLelfjC&#xD;&#xa;7jr4wnSa9sKsN/jCpssE" leadInLength="0/1"  />
            </Keyframes>
           </Parameter>
           </Parameters>
           <MetaData>
            <entry key="effectIndex" val="0"/>
           </MetaData>
          </GenericEffect>
         </Effects>
         <Attributes>
          <Attribute id="5181" value="" name="ident"/>
          <Attribute id="5182" value="0" name="mixToMono"/>
         </Attributes>
         <MetaData>
          <entry key="WinSubProjectDisplayName" val=""/>
         </MetaData>
         <ExtraData>
          <Entry key="ZoomPanBin">
           <ZoomPanBin id="5183"  >
            <ZoomPanKeyframes>
             <ZoomPanKeyframe id="5184" timeRangeEnd="-9999999/1" timeRangeDuration="0/1" interpolaterName=""  />
            </ZoomPanKeyframes>
           </ZoomPanBin>
          </Entry>
          <Entry key="CursorEffectBin">
           <CursorEffectBin id="5185"  >
            <CursorEffectKeyframes>
            </CursorEffectKeyframes>
           </CursorEffectBin>
          </Entry>
         </ExtraData>
         <GenericTrack id="5186"  >
          <Attributes>
           <Attribute id="5187" value="" name="ident"/>
           <Attribute id="5188" value="0" name="audioMuted"/>
           <Attribute id="5189" value="0" name="videoHidden"/>
          </Attributes>
          <MetaData>
           <entry key="IsLocked" val="False"/>
           <entry key="WinTrackHeight" val="0"/>
          </MetaData>
          <Medias>
           <UnifiedMedia id="5190"  >
            <AMFile id="5191" start="0" duration="1906" scalar="1/1" mediaStart="0/1" mediaDuration="1906/1" trackNumber="2" src="28" channelNumber="0,1" >
             <Parameters>
              <InterpolatingParam id="5192" interp="linr"  time="0/1" value="1" leadInLength="0/1"  name="volume"/>
              <Parameter id="5193"  name="captions"/>
             </Parameters>
             <Attributes>
              <Attribute id="5194" value="" name="ident"/>
              <Attribute id="5195" value="44100" name="sampleRate"/>
              <Attribute id="5196" value="16" name="bitDepth"/>
              <Attribute id="5197" value="1" name="gain"/>
              <Attribute id="5198" value="0" name="mixToMono"/>
             </Attributes>
            </AMFile>
            <VMFile id="5199" start="0" duration="1906" scalar="1/1" mediaStart="0/1" mediaDuration="1906/1" trackNumber="1" src="28" >
             <Transformer>
              <VectorParam id="5200"  name="translation">
               <InterpolatingParam id="5201" interp="linr"  time="-9999999/1" value="0" leadInLength="0/1"  />
               <InterpolatingParam id="5202" interp="linr"  time="-9999999/1" value="0" leadInLength="0/1"  />
               <InterpolatingParam id="5203" interp="linr"  time="-9999999/1" value="0" leadInLength="0/1"  />
              </VectorParam>
              <VectorParam id="5204"  name="rotation">
               <InterpolatingParam id="5205" interp="linr"  time="-9999999/1" value="0" leadInLength="0/1"  />
               <InterpolatingParam id="5206" interp="linr"  time="-9999999/1" value="0" leadInLength="0/1"  />
               <InterpolatingParam id="5207" interp="linr"  time="-9999999/1" value="0" leadInLength="0/1"  />
              </VectorParam>
              <VectorParam id="5208"  name="shear">
               <InterpolatingParam id="5209" interp="linr"  time="-9999999/1" value="0" leadInLength="0/1"  />
               <InterpolatingParam id="5210" interp="linr"  time="-9999999/1" value="0" leadInLength="0/1"  />
               <InterpolatingParam id="5211" interp="linr"  time="-9999999/1" value="0" leadInLength="0/1"  />
              </VectorParam>
              <VectorParam id="5212"  name="scale">
               <InterpolatingParam id="5213" interp="linr"  time="-9999999/1" value="1" leadInLength="0/1"  />
               <InterpolatingParam id="5214" interp="linr"  time="-9999999/1" value="1" leadInLength="0/1"  />
               <InterpolatingParam id="5215" interp="linr"  time="-9999999/1" value="1" leadInLength="0/1"  />
              </VectorParam>
              <VectorParam id="5216"  name="anchor">
               <InterpolatingParam id="5217" interp="linr"  time="0/1" value="0" leadInLength="0/1"  />
               <InterpolatingParam id="5218" interp="linr"  time="0/1" value="0" leadInLength="0/1"  />
               <InterpolatingParam id="5219" interp="linr"  time="0/1" value="0" leadInLength="0/1"  />
              </VectorParam>
             </Transformer>
             <Parameters>
              <VectorParam id="5220"  name="sourceCrop">
               <InterpolatingParam id="5221" interp="linr"  time="0/1" value="0" leadInLength="0/1"  />
               <InterpolatingParam id="5222" interp="linr"  time="0/1" value="0" leadInLength="0/1"  />
               <InterpolatingParam id="5223" interp="linr"  time="0/1" value="0" leadInLength="0/1"  />
               <InterpolatingParam id="5224" interp="linr"  time="0/1" value="0" leadInLength="0/1"  />
              </VectorParam>
              <VectorParam id="5225"  name="geometryCrop">
               <InterpolatingParam id="5226" interp="linr"  time="-9999999/1" value="0" leadInLength="0/1"  />
               <InterpolatingParam id="5227" interp="linr"  time="-9999999/1" value="0" leadInLength="0/1"  />
               <InterpolatingParam id="5228" interp="linr"  time="-9999999/1" value="0" leadInLength="0/1"  />
               <InterpolatingParam id="5229" interp="linr"  time="-9999999/1" value="0" leadInLength="0/1"  />
              </VectorParam>
              <InterpolatingParam id="5230" interp="linr"  time="-9999999/1" value="1" leadInLength="0/1"  name="opacity"/>
             </Parameters>
             <Attributes>
              <Attribute id="5231" value="" name="ident"/>
             </Attributes>
             <ExtraData>
              <Entry key="ZoomPanBin">
               <ZoomPanBin id="5232"  >
                <ZoomPanKeyframes>
                 <ZoomPanKeyframe id="5233" timeRangeEnd="-9999999/1" timeRangeDuration="0/1" interpolaterName=""  />
                </ZoomPanKeyframes>
               </ZoomPanBin>
              </Entry>
             </ExtraData>
            </VMFile>
            <MetaData>
             <entry key="WinSubProjectDisplayName" val=""/>
            </MetaData>
           </UnifiedMedia>
           <UnifiedMedia id="5234"  >
            <AMFile id="5235" start="1906" duration="50" scalar="1/1" mediaStart="1912/1" mediaDuration="50/1" trackNumber="2" src="28" channelNumber="0,1" >
             <Parameters>
              <InterpolatingParam id="5236" interp="linr"  time="0/1" value="1" leadInLength="0/1"  name="volume"/>
              <Parameter id="5237"  name="captions"/>
             </Parameters>
             <Attributes>
              <Attribute id="5238" value="" name="ident"/>
              <Attribute id="5239" value="44100" name="sampleRate"/>
              <Attribute id="5240" value="16" name="bitDepth"/>
              <Attribute id="5241" value="1" name="gain"/>
              <Attribute id="5242" value="0" name="mixToMono"/>
             </Attributes>
            </AMFile>
            <VMFile id="5243" start="1906" duration="50" scalar="1/1" mediaStart="1912/1" mediaDuration="50/1" trackNumber="1" src="28" >
             <Transformer>
              <VectorParam id="5244"  name="translation">
               <InterpolatingParam id="5245" interp="linr"  time="-9999999/1" value="0" leadInLength="0/1"  />
               <InterpolatingParam id="5246" interp="linr"  time="-9999999/1" value="0" leadInLength="0/1"  />
               <InterpolatingParam id="5247" interp="linr"  time="-9999999/1" value="0" leadInLength="0/1"  />
              </VectorParam>
              <VectorParam id="5248"  name="rotation">
               <InterpolatingParam id="5249" interp="linr"  time="-9999999/1" value="0" leadInLength="0/1"  />
               <InterpolatingParam id="5250" interp="linr"  time="-9999999/1" value="0" leadInLength="0/1"  />
               <InterpolatingParam id="5251" interp="linr"  time="-9999999/1" value="0" leadInLength="0/1"  />
              </VectorParam>
              <VectorParam id="5252"  name="shear">
               <InterpolatingParam id="5253" interp="linr"  time="-9999999/1" value="0" leadInLength="0/1"  />
               <InterpolatingParam id="5254" interp="linr"  time="-9999999/1" value="0" leadInLength="0/1"  />
               <InterpolatingParam id="5255" interp="linr"  time="-9999999/1" value="0" leadInLength="0/1"  />
              </VectorParam>
              <VectorParam id="5256"  name="scale">
               <InterpolatingParam id="5257" interp="linr"  time="-9999999/1" value="1" leadInLength="0/1"  />
               <InterpolatingParam id="5258" interp="linr"  time="-9999999/1" value="1" leadInLength="0/1"  />
               <InterpolatingParam id="5259" interp="linr"  time="-9999999/1" value="1" leadInLength="0/1"  />
              </VectorParam>
              <VectorParam id="5260"  name="anchor">
               <InterpolatingParam id="5261" interp="linr"  time="0/1" value="0" leadInLength="0/1"  />
               <InterpolatingParam id="5262" interp="linr"  time="0/1" value="0" leadInLength="0/1"  />
               <InterpolatingParam id="5263" interp="linr"  time="0/1" value="0" leadInLength="0/1"  />
              </VectorParam>
             </Transformer>
             <Parameters>
              <VectorParam id="5264"  name="sourceCrop">
               <InterpolatingParam id="5265" interp="linr"  time="0/1" value="0" leadInLength="0/1"  />
               <InterpolatingParam id="5266" interp="linr"  time="0/1" value="0" leadInLength="0/1"  />
               <InterpolatingParam id="5267" interp="linr"  time="0/1" value="0" leadInLength="0/1"  />
               <InterpolatingParam id="5268" interp="linr"  time="0/1" value="0" leadInLength="0/1"  />
              </VectorParam>
              <VectorParam id="5269"  name="geometryCrop">
               <InterpolatingParam id="5270" interp="linr"  time="-9999999/1" value="0" leadInLength="0/1"  />
               <InterpolatingParam id="5271" interp="linr"  time="-9999999/1" value="0" leadInLength="0/1"  />
               <InterpolatingParam id="5272" interp="linr"  time="-9999999/1" value="0" leadInLength="0/1"  />
               <InterpolatingParam id="5273" interp="linr"  time="-9999999/1" value="0" leadInLength="0/1"  />
              </VectorParam>
              <InterpolatingParam id="5274" interp="linr"  time="-9999999/1" value="1" leadInLength="0/1"  name="opacity"/>
             </Parameters>
             <Attributes>
              <Attribute id="5275" value="" name="ident"/>
             </Attributes>
             <ExtraData>
              <Entry key="ZoomPanBin">
               <ZoomPanBin id="5276"  >
                <ZoomPanKeyframes>
                 <ZoomPanKeyframe id="5277" timeRangeEnd="-9999999/1" timeRangeDuration="0/1" interpolaterName=""  />
                </ZoomPanKeyframes>
               </ZoomPanBin>
              </Entry>
             </ExtraData>
            </VMFile>
            <MetaData>
             <entry key="WinSubProjectDisplayName" val=""/>
            </MetaData>
           </UnifiedMedia>
           <UnifiedMedia id="5278"  >
            <AMFile id="5279" start="1956" duration="332" scalar="1/1" mediaStart="2029/1" mediaDuration="332/1" trackNumber="2" src="28" channelNumber="0,1" >
             <Parameters>
              <InterpolatingParam id="5280" interp="linr"  time="0/1" value="1" leadInLength="0/1"  name="volume"/>
              <Parameter id="5281"  name="captions"/>
             </Parameters>
             <Attributes>
              <Attribute id="5282" value="" name="ident"/>
              <Attribute id="5283" value="44100" name="sampleRate"/>
              <Attribute id="5284" value="16" name="bitDepth"/>
              <Attribute id="5285" value="1" name="gain"/>
              <Attribute id="5286" value="0" name="mixToMono"/>
             </Attributes>
            </AMFile>
            <VMFile id="5287" start="1956" duration="332" scalar="1/1" mediaStart="2029/1" mediaDuration="332/1" trackNumber="1" src="28" >
             <Transformer>
              <VectorParam id="5288"  name="translation">
               <InterpolatingParam id="5289" interp="linr"  time="-9999999/1" value="0" leadInLength="0/1"  />
               <InterpolatingParam id="5290" interp="linr"  time="-9999999/1" value="0" leadInLength="0/1"  />
               <InterpolatingParam id="5291" interp="linr"  time="-9999999/1" value="0" leadInLength="0/1"  />
              </VectorParam>
              <VectorParam id="5292"  name="rotation">
               <InterpolatingParam id="5293" interp="linr"  time="-9999999/1" value="0" leadInLength="0/1"  />
               <InterpolatingParam id="5294" interp="linr"  time="-9999999/1" value="0" leadInLength="0/1"  />
               <InterpolatingParam id="5295" interp="linr"  time="-9999999/1" value="0" leadInLength="0/1"  />
              </VectorParam>
              <VectorParam id="5296"  name="shear">
               <InterpolatingParam id="5297" interp="linr"  time="-9999999/1" value="0" leadInLength="0/1"  />
               <InterpolatingParam id="5298" interp="linr"  time="-9999999/1" value="0" leadInLength="0/1"  />
               <InterpolatingParam id="5299" interp="linr"  time="-9999999/1" value="0" leadInLength="0/1"  />
              </VectorParam>
              <VectorParam id="5300"  name="scale">
               <InterpolatingParam id="5301" interp="linr"  time="-9999999/1" value="1" leadInLength="0/1"  />
               <InterpolatingParam id="5302" interp="linr"  time="-9999999/1" value="1" leadInLength="0/1"  />
               <InterpolatingParam id="5303" interp="linr"  time="-9999999/1" value="1" leadInLength="0/1"  />
              </VectorParam>
              <VectorParam id="5304"  name="anchor">
               <InterpolatingParam id="5305" interp="linr"  time="0/1" value="0" leadInLength="0/1"  />
               <InterpolatingParam id="5306" interp="linr"  time="0/1" value="0" leadInLength="0/1"  />
               <InterpolatingParam id="5307" interp="linr"  time="0/1" value="0" leadInLength="0/1"  />
              </VectorParam>
             </Transformer>
             <Parameters>
              <VectorParam id="5308"  name="sourceCrop">
               <InterpolatingParam id="5309" interp="linr"  time="0/1" value="0" leadInLength="0/1"  />
               <InterpolatingParam id="5310" interp="linr"  time="0/1" value="0" leadInLength="0/1"  />
               <InterpolatingParam id="5311" interp="linr"  time="0/1" value="0" leadInLength="0/1"  />
               <InterpolatingParam id="5312" interp="linr"  time="0/1" value="0" leadInLength="0/1"  />
              </VectorParam>
              <VectorParam id="5313"  name="geometryCrop">
               <InterpolatingParam id="5314" interp="linr"  time="-9999999/1" value="0" leadInLength="0/1"  />
               <InterpolatingParam id="5315" interp="linr"  time="-9999999/1" value="0" leadInLength="0/1"  />
               <InterpolatingParam id="5316" interp="linr"  time="-9999999/1" value="0" leadInLength="0/1"  />
               <InterpolatingParam id="5317" interp="linr"  time="-9999999/1" value="0" leadInLength="0/1"  />
              </VectorParam>
              <InterpolatingParam id="5318" interp="linr"  time="-9999999/1" value="1" leadInLength="0/1"  name="opacity"/>
             </Parameters>
             <Attributes>
              <Attribute id="5319" value="" name="ident"/>
             </Attributes>
             <ExtraData>
              <Entry key="ZoomPanBin">
               <ZoomPanBin id="5320"  >
                <ZoomPanKeyframes>
                 <ZoomPanKeyframe id="5321" timeRangeEnd="-9999999/1" timeRangeDuration="0/1" interpolaterName=""  />
                </ZoomPanKeyframes>
               </ZoomPanBin>
              </Entry>
             </ExtraData>
            </VMFile>
            <MetaData>
             <entry key="WinSubProjectDisplayName" val=""/>
            </MetaData>
           </UnifiedMedia>
          </Medias>
         </GenericTrack>
        </StitchedMedia>
        <StitchedMedia id="5322" start="4215" duration="1703" scalar="1/1" mediaStart="1355/1" mediaDuration="1703/1" minMediaStart="0/1" >
         <Transformer>
          <VectorParam id="5323"  name="translation">
           <InterpolatingParam id="5324" interp="linr"  time="-9999999/1" value="559.35866664667697" leadInLength="0/1"  />
           <InterpolatingParam id="5325" interp="linr"  time="-9999999/1" value="-281.67462498905377" leadInLength="0/1"  />
           <InterpolatingParam id="5326" interp="linr"  time="-9999999/1" value="1.023181539494657e-009" leadInLength="0/1"  />
          </VectorParam>
          <VectorParam id="5327"  name="rotation">
           <InterpolatingParam id="5328" interp="linr"  time="-9999999/1" value="0" leadInLength="0/1"  />
           <InterpolatingParam id="5329" interp="linr"  time="-9999999/1" value="0" leadInLength="0/1"  />
           <InterpolatingParam id="5330" interp="linr"  time="-9999999/1" value="0" leadInLength="0/1"  />
          </VectorParam>
          <VectorParam id="5331"  name="shear">
           <InterpolatingParam id="5332" interp="linr"  time="-9999999/1" value="0" leadInLength="0/1"  />
           <InterpolatingParam id="5333" interp="linr"  time="-9999999/1" value="0" leadInLength="0/1"  />
           <InterpolatingParam id="5334" interp="linr"  time="-9999999/1" value="0" leadInLength="0/1"  />
          </VectorParam>
          <VectorParam id="5335"  name="scale">
           <InterpolatingParam id="5336" interp="linr"  time="-9999999/1" value="0.44575416672844331" leadInLength="0/1"  />
           <InterpolatingParam id="5337" interp="linr"  time="-9999999/1" value="0.44575416672844326" leadInLength="0/1"  />
           <InterpolatingParam id="5338" interp="linr"  time="-9999999/1" value="1" leadInLength="0/1"  />
          </VectorParam>
          <VectorParam id="5339"  name="anchor">
           <InterpolatingParam id="5340" interp="linr"  time="0/1" value="0" leadInLength="0/1"  />
           <InterpolatingParam id="5341" interp="linr"  time="0/1" value="0" leadInLength="0/1"  />
           <InterpolatingParam id="5342" interp="linr"  time="0/1" value="0" leadInLength="0/1"  />
          </VectorParam>
         </Transformer>
         <Parameters>
          <VectorParam id="5343"  name="sourceCrop">
           <InterpolatingParam id="5344" interp="linr"  time="0/1" value="0" leadInLength="0/1"  />
           <InterpolatingParam id="5345" interp="linr"  time="0/1" value="0" leadInLength="0/1"  />
           <InterpolatingParam id="5346" interp="linr"  time="0/1" value="0" leadInLength="0/1"  />
           <InterpolatingParam id="5347" interp="linr"  time="0/1" value="0" leadInLength="0/1"  />
          </VectorParam>
          <VectorParam id="5348"  name="geometryCrop">
           <InterpolatingParam id="5349" interp="linr"  time="-9999999/1" value="135.00000000212745" leadInLength="0/1"  />
           <InterpolatingParam id="5350" interp="linr"  time="-9999999/1" value="0" leadInLength="0/1"  />
           <InterpolatingParam id="5351" interp="linr"  time="-9999999/1" value="0" leadInLength="0/1"  />
           <InterpolatingParam id="5352" interp="linr"  time="-9999999/1" value="64.285714285660106" leadInLength="0/1"  />
          </VectorParam>
          <InterpolatingParam id="5353" interp="linr"  time="-9999999/1" value="1" leadInLength="0/1"  name="opacity"/>
          <InterpolatingParam id="5354" interp="linr"  time="0/1" value="1" leadInLength="0/1"  name="cursorOpacity"/>
          <InterpolatingParam id="5355" interp="linr"  time="0/1" value="1" leadInLength="0/1"  name="cursorScale"/>
          <InterpolatingParam id="5356" interp="linr"  time="0/1" value="1" leadInLength="0/1"  name="volume"/>
          <Parameter id="5357"  name="captions"/>
         </Parameters>
         <Effects>
          <GenericEffect id="5358" name = "NoiseReduction" >
           <Parameters>
           <InterpolatingParam id="5359" interp="linr"  time="0/1" value="27.599999999999998" leadInLength="0/1"   name="denoiserAmount"/>
           <InterpolatingParam id="5360" interp="linr"  time="0/1" value="2.2799999999999994" leadInLength="0/1"   name="denoiserThreshold"/>
           <Parameter id="5361"   name="noiseProfile">
            <Keyframes>
            <Keyframe id="5362"  time="0/1" value="FBAAAAIAAABErAAAAQIAAFtvXcIsoE3CwrpewueFasKBW2TC+29ewtBiZMIL0W3Cbd9zwuDicsLa&#xD;&#xa;IXHCPbp1wv57gMK/woLCp3uAwuaIg8KnEYfCoKaEwmjxgcKlQ4XCUfqEwhdVgsJIxYPCKSyGwn8h&#xD;&#xa;iMLYJorC6eyIwocYisLPxIzC+nOOwjqoj8INFpDCInmQwsYqksJEKJHCT9iQwj6nksImhJHCcZOR&#xD;&#xa;wnhtj8KvtYzCX7KNwoSEkcJm9ZXCZTuXwvKsl8JFKZrCTNqcwkALn8I8xp7C9CqewloQnsJB3Z7C&#xD;&#xa;7IGewgWhocLMfKTC/gmlwlp0ocISCKLCTQikwjyDpMKZnqTCxJKkwqVbpsL8RKbC1aCjwrhbpMK7&#xD;&#xa;IKfCmFKownLgo8IKF6PCdCyrwim7rMJv+KrCKryswmAHr8J4gq7CBhmvwkzLrsL4X7DC5vawwgUB&#xD;&#xa;sMInRq7Ckn+twghIq8LW7azCfQyuwv5drsLUIa/CNMeuwtKVrsLyT67CKtqowkAspsLk86zCwQKw&#xD;&#xa;wpBfscKKBLHC0puwwoCvr8LwZbHCG2m0wjhpr8I6qq7CjIqxwqJ4scKhLrLCPkK0wmz3s8IUhbTC&#xD;&#xa;fhC2whAmt8L5l7XCPiS1woERs8Lsza/CpGyrwupkscJNfbbC2LW3wsbgt8KEvbjCGji5wtNVuMJN&#xD;&#xa;27XC2xG3wiBYucInX7nCoLG5wvTZucJKvLrCcPS6wg6ou8JEw7vCJ3+6wiJFvMIEhrrCrPS4wka9&#xD;&#xa;t8KMM7HCqqW0wqDCv8LfYr/C3VS8woB3u8LQfLzCFma9wr7QvMJi8L3Cmq2+wkwcvsJSp7vC+US7&#xD;&#xa;wumvvMIlorvCTs68woneu8KYE73COoq+whmlv8KBRr/CeM68wm6WuMLmUrnC62a7wvKeu8JRLb7C&#xD;&#xa;7Ey+wmY2vsLGeLzC6r27woaovcJUCb7CJ+C9wqBgvcKQOL3C/D+/wvLHv8I2iMHCWNq/wtB+vcLw&#xD;&#xa;pLzCTry9wma1vsJpvb/CHhfCwgB4wsKAPcDCwyzCwqJ3wMIWI73CynK9wiD9vsLcw77CpaK/whzY&#xD;&#xa;vcL2Dr/CRJvAwvrrwMJxXsLCUH7BwhxdwcKmpsLC+i3CwiNhwcLUvMDCut3AwmYkwMIGf77CFsW8&#xD;&#xa;wrRZwMLY1sDCAIfCwrq6vsJWy73CHM7Awt4Kw8IvPMTCVuLDwh4wxMK24MTCJovEwt57w8LeZ8PC&#xD;&#xa;m9PBwlihv8JI5sHCiN/BwmzewMKEdcLCoubCwhCbwMLMVLrCXM+9wsYQxMIPPcPCwxDCwufmwcJA&#xD;&#xa;wMLCQtDBwrQcwcLstsLCRNDBwkqzwcIHA8HCwk3DwgVmwsJcbsPCQLPFwgS6xMLKxsPCoIHDwppt&#xD;&#xa;xMIOWMXC+gnAwggitcJR2rbCWD3AwnyJwcIHQMXCiWzGwtTHw8LmVsPCaeTFwoJwxMLIFsXCdHTD&#xD;&#xa;wjYwwsKsj8TCH6fGwhJdxsIsQcfCWKHGwuLixMIkcsPCx+XGwjC0ycL4PcTCDTG2wuk1tMIO9cDC&#xD;&#xa;/ZXEwrghxMLq4sTCr/PGwpBLxsKYxMXCsLzGwoyBxcKekcTCeFTHwmgtyMKNbcbCRLLFwtZwx8JV&#xD;&#xa;XcXCNyjCwtayxML/6sXC8ETFwsmow8L4fLnCsIO0wsZXvcJuucTCeMPFwlAQxcJETsfCjkHJwgcb&#xD;&#xa;x8KLT8bCz4DHwhtJx8Ikp8XCgI3FwhoDxcI/FcXCFKXDwrDyw8IMIsXCuNbEwkiexcKcTcXCbB/D&#xD;&#xa;whcuvsJal7fClPW9wrVmxMKH4sXC5h7FwkbDx8KIHsjCjAHFwswOxsJ1q8bC0pzFwvIkxsKk78bC&#xD;&#xa;nM3HwsPnxsLwBMbC4mrGwsiUxMIu+cLCdcfFwjQex8Lim8bCNEvFwrRNwMIZDsLC1wDGwqqIyMIT&#xD;&#xa;ts7CMOTgwnp39sLcpvnCNu/4wlDi+ML2CfvCoDj7wk4u+cJccfnCCk35wmQ7+cIGo/jCevz5whZl&#xD;&#xa;+cKi9PfCGN/2wjWw9sKaTffCwED1wh/C9MJeT/XCyOn2woaC9sJm+/XCvPT2wnmi98KiLfjCAif4&#xD;&#xa;wkD998ISD/nCeUb4wmZz98K9bPfCHGX1wlnK9MKc1vXCLIX3wkri98IMs/fCnvn2wuoH98JCXPjC&#xD;&#xa;JrH5wtwT9sIkb/XCuIj2wqhC+MLcnvbCOJX3wun298IwifbCBX/3wglu98JQjffCVnT5wjIP+MIC&#xD;&#xa;5PfC5ND5wmb/+MISP/jCaqb5wtwB+cK8G/jCqpX4whCu9sLtOPbCZoz4wnBr+cLQs/nCCnj5wrrM&#xD;&#xa;98IynfbCmGf2woAE98LqrPfCahj3wubj98JAB/jC1uL3wg6P98Low/bCTdf2wp/q98Ju1/bCznz4&#xD;&#xa;wgCm98Imj/jCboT5wvoX+sKg8/nCOvf4wvjf+MLeH/rCVlb5wlJt+MKsFfnCrIj3wixm98LGufjC&#xD;&#xa;lor6wvDm+sJwl/jCYHT4whLD98KIDfnCpbr2whfs9cIIfPbC9yj1wpA+9sLjBPfCbOT4wtiv+cJK&#xD;&#xa;c/rCZQb4wgTl9cJtLPfCajX3wkLL98Lul/jCbGT5wibs+cKQuvfC4dL2whZ7+MI8u/nCFlP4wpw/&#xD;&#xa;+MIMJvrC6lv7wnjA+8IK7vvC3Gj6wgZK+sLoufvCahf7wlDn+cI+kvnCFjP4wrUV+MLMc/rCApX6&#xD;&#xa;wkyL+MJwCPnCwvj2wmYO9sIKs/bCvv71wjW198LoBfvC1J73wtCK9cJ04/jCKur7whq298JggvbC&#xD;&#xa;WtT3whqG9sKRqPbCKXEDw4lvXcJ1oE3C7rpewuKFasJ5W2TCUnBewqliZMKt0G3Cv99zwqHjcsLX&#xD;&#xa;InHCgrt1wst7gMKNwoLClXuAwimIg8KTEYfCYqeEwsLxgcI0Q4XCvvqEwnZWgsJXx4PCQCyGwpgf&#xD;&#xa;iMKyJ4rCFO6IwvcaisLHw4zCm3KOwgqnj8KJGJDCX3yQwkYqksJEJJHCTtSQwjWlksJfgpHCCpOR&#xD;&#xa;wsBtj8LmtYzCQLCNwmeCkcL89ZXC0TuXwi2ul8LiKJrC+NqcwskLn8KPxZ7CFyeewq4OnsIB2J7C&#xD;&#xa;enuewiahocKmfKTC0w2lwjV1ocKdEaLCHQ2kwuR6pMLgmaTCQZakwiNdpsJ1Q6bCIqajwlhypMLC&#xD;&#xa;PafC+VCowgbTo8LkC6PCmjmrwhLLrMJMEKvCUtaswkYVr8I8jK7C9SOvwiPHrsIwcrDC4BmxwipD&#xD;&#xa;sMIlsa7CxoStwk9Xq8LgG63CHR2uwmpUrsK6X6/CfO2uwteDrsJBQq7CWxGpwtJqpsIgTK3CfzCw&#xD;&#xa;wq5MscLC3rDC+Xiwwkj3r8Ix3bHCSpS0wuqUr8Ii5K7CAcmxwvzNscJobbLCPDC0wgjXs8K55LTC&#xD;&#xa;ZIu2wtgDt8K+PbXCDha1wiR2s8KaKbDCe7GrwmipscJ/6bbCSsm3wjU4uMKwdbnC6s+5wkTTuMJ1&#xD;&#xa;dbbCnka3woZqucLxSbnCDFm6wnrNusJC0LrCMeS6wtKdu8KyoLvCyje6woxDvMJyzbrCkj+5wrjw&#xD;&#xa;t8IJFLHCrIW0wuLYv8IqnL7Clvq8wnKDvMJMTb3CjJi9wqTPvMLsLL7Cll++wguPvcJajLvCAEy7&#xD;&#xa;wmidvMKvn7vCete8wtelu8Li9LzCAhu/wpPfv8KiBr/C2ii9wpTruMLTmLnCBF27wtNIu8LNzb3C&#xD;&#xa;iI2+wr+QvsJ4G73CHWu8wuYdvsKWKL7ClGW+wnKhvcLyer3CcrW/wrRPwMLGsMHCjCjAwrDovcJs&#xD;&#xa;kbzC9N+9wl9bv8ISfMDCoCXCwqWgwcIvCMDCkHnBwkYywMJOFL3CAt69wmoMwMJyu7/CBELAwgpP&#xD;&#xa;vsLs5L7CSMrAwqCJwcKNWcLColXBwtaFwcI8tsPCHOXCwsyFwcJIYsDCgITAwuHqv8Jofr7CIHu8&#xD;&#xa;wusuwMIGIcHCMoLCwoyovsJQAb7CDiDBwvFPxMLETMTC83/DwuqUw8Iym8TCNnfEwvLQw8JXqsPC&#xD;&#xa;Y3bBwn6uv8JOscHC/9bBwqj1wcImE8PCoOjCwlh+wML6ObrCauW9wslhxMISZ8PCRNvBwhFkwsIQ&#xD;&#xa;I8PCkBbCwqm9wcIf6cLC6m3CwriGwsJGJsHCGmzDwhqZwsK1b8PCqtTFwrIYxcIxA8TC3FXDwjue&#xD;&#xa;xMKu68XCwjfAwuQotcLm27bCojXAwjRxwcLSUcXCKpzGwhbiw8LiQMPCyOLFwhiSxMJMH8XC61jD&#xD;&#xa;wiY4wsJWwMTC2KvGwp9HxsJjKMfCUZzGwnvzxMIofMPCCOPGwqCwycKPM8TC0jG2wlw7tMLW9cDC&#xD;&#xa;4J7EwsYGxMLIrMTCp9/GwsgxxsJ2xcXCEZbGwlpSxcLOgMTC2F7HwlQqyMLy7cXC117Fwosmx8I+&#xD;&#xa;bMXCLDzCwvakxMIgzsXCJFfFwlbSw8JqcLnCaIW0wp1IvcLapcTCFqfFwiAjxcJBZMfCDEzJwskq&#xD;&#xa;x8JQKcbCUhvHwusUx8LBecXCrlrFwk/txMJS/cTCmrPDwt8RxMICB8XC/OzEwnvMxcICMcXC2sfC&#xD;&#xa;wvwRvsJBiLfCpL69wpI2xMLxzcXCWxzFwr/Cx8IlO8jCYO7EwtLfxcKjacbCvH7FwmQ3xsLXBcfC&#xD;&#xa;IMPHwmr+xsLgH8bCYJjGwvKdxMJ6DcPC5tDFwoQZx8JouMbC8IfFwoJywMIMDsLCYvzFwj6wyMIO&#xD;&#xa;7M7CmhbhwtSZ9sImTPjCqV/3wsjW98JVxffCOD33wmQ598JAXvjCJjb3wq7A9MKUVffCruv6wgI2&#xD;&#xa;+cLazPbCMkP2wkQX98Kw4PnCfJ78wmz3+MLYPvfCfLz3wo6+9sIeSvbCWGr4wudZ+MKyG/fCeOf3&#xD;&#xa;wjyl+cJAJfvCFMH4wnmE9cKG8/XCy1L2wgCN+MIscPnCXNP4wgTl+MIWTPfCtoH3wtru98IKK/jC&#xD;&#xa;Vv33wsiT+MIW7vjC5gX5wv7X+MJgTPnCePn4wgwb+sJKpfnCJgP5wiCq+cKMBPnCYkH7wt5l+sKB&#xD;&#xa;vffCckr2wgmr98Ii8fjCB1X4woRv+8IsgPnCJET2wp1H98LN4/fCw8T2wlXs9sIz6vbCZCL3wgYk&#xD;&#xa;+MKXF/jCWqP2wuRY+MJpIvjCOHr4wnJu+ML84vbCNPD3wqKJ+MLrNfjCfsL4wrlT+MIYW/fCEM71&#xD;&#xa;wjoi98KwuvXCyWX3wiL29sIKf/fCSgP3wg+99sI7E/jCrx34wp7l+MJYFfnCEtv4whuI98IyQfjC&#xD;&#xa;zpf4wlhr+MLCWPfCQ9D2wk/I98KKcfjC8Ij5wvED+MI/2PfC/tT3wi5S+ML4U/jCyrj2wuSt9sIZ&#xD;&#xa;svfC4p/2wsJI98KQd/nC8PL4wq54+MKm1vbC3or1wpjQ9sKIcfjC4GT3wqAE+cLkk/jCRL33wiNB&#xD;&#xa;+MJ+OvfCHpr5wswQ+cJuIPnCROH4wuGN9sJsN/bCpmf4whae+MJk+vnCChr4wjbd+MJRK/jC0in3&#xD;&#xa;wisq98L0j/fCUib3wn8E98JQnvnCrsH5wlAk+cLg/vjCnpn5wix8+sLeIvnCb2n4wjYu+cJMQvjC&#xD;&#xa;iFz2wgK29cKgf/bCAu4C" leadInLength="0/1"  />
            </Keyframes>
           </Parameter>
           </Parameters>
           <MetaData>
            <entry key="effectIndex" val="0"/>
           </MetaData>
          </GenericEffect>
         </Effects>
         <Attributes>
          <Attribute id="5363" value="" name="ident"/>
          <Attribute id="5364" value="0" name="mixToMono"/>
         </Attributes>
         <MetaData>
          <entry key="WinSubProjectDisplayName" val=""/>
         </MetaData>
         <ExtraData>
          <Entry key="ZoomPanBin">
           <ZoomPanBin id="5365"  >
            <ZoomPanKeyframes>
             <ZoomPanKeyframe id="5366" timeRangeEnd="-9999999/1" timeRangeDuration="0/1" interpolaterName=""  />
            </ZoomPanKeyframes>
           </ZoomPanBin>
          </Entry>
          <Entry key="CursorEffectBin">
           <CursorEffectBin id="5367"  >
            <CursorEffectKeyframes>
            </CursorEffectKeyframes>
           </CursorEffectBin>
          </Entry>
         </ExtraData>
         <GenericTrack id="5368"  >
          <Attributes>
           <Attribute id="5369" value="" name="ident"/>
           <Attribute id="5370" value="0" name="audioMuted"/>
           <Attribute id="5371" value="0" name="videoHidden"/>
          </Attributes>
          <MetaData>
           <entry key="IsLocked" val="False"/>
           <entry key="WinTrackHeight" val="0"/>
          </MetaData>
          <Medias>
           <UnifiedMedia id="5372"  >
            <AMFile id="5373" start="0" duration="1472" scalar="1/1" mediaStart="0/1" mediaDuration="1472/1" trackNumber="2" src="11" channelNumber="0,1" >
             <Parameters>
              <InterpolatingParam id="5374" interp="linr"  time="0/1" value="1" leadInLength="0/1"  name="volume"/>
              <Parameter id="5375"  name="captions"/>
             </Parameters>
             <Attributes>
              <Attribute id="5376" value="" name="ident"/>
              <Attribute id="5377" value="44100" name="sampleRate"/>
              <Attribute id="5378" value="16" name="bitDepth"/>
              <Attribute id="5379" value="1" name="gain"/>
              <Attribute id="5380" value="0" name="mixToMono"/>
             </Attributes>
            </AMFile>
            <VMFile id="5381" start="0" duration="1472" scalar="1/1" mediaStart="0/1" mediaDuration="1472/1" trackNumber="1" src="11" >
             <Transformer>
              <VectorParam id="5382"  name="translation">
               <InterpolatingParam id="5383" interp="linr"  time="-9999999/1" value="0" leadInLength="0/1"  />
               <InterpolatingParam id="5384" interp="linr"  time="-9999999/1" value="0" leadInLength="0/1"  />
               <InterpolatingParam id="5385" interp="linr"  time="-9999999/1" value="0" leadInLength="0/1"  />
              </VectorParam>
              <VectorParam id="5386"  name="rotation">
               <InterpolatingParam id="5387" interp="linr"  time="-9999999/1" value="0" leadInLength="0/1"  />
               <InterpolatingParam id="5388" interp="linr"  time="-9999999/1" value="0" leadInLength="0/1"  />
               <InterpolatingParam id="5389" interp="linr"  time="-9999999/1" value="0" leadInLength="0/1"  />
              </VectorParam>
              <VectorParam id="5390"  name="shear">
               <InterpolatingParam id="5391" interp="linr"  time="-9999999/1" value="0" leadInLength="0/1"  />
               <InterpolatingParam id="5392" interp="linr"  time="-9999999/1" value="0" leadInLength="0/1"  />
               <InterpolatingParam id="5393" interp="linr"  time="-9999999/1" value="0" leadInLength="0/1"  />
              </VectorParam>
              <VectorParam id="5394"  name="scale">
               <InterpolatingParam id="5395" interp="linr"  time="-9999999/1" value="1" leadInLength="0/1"  />
               <InterpolatingParam id="5396" interp="linr"  time="-9999999/1" value="1" leadInLength="0/1"  />
               <InterpolatingParam id="5397" interp="linr"  time="-9999999/1" value="1" leadInLength="0/1"  />
              </VectorParam>
              <VectorParam id="5398"  name="anchor">
               <InterpolatingParam id="5399" interp="linr"  time="0/1" value="0" leadInLength="0/1"  />
               <InterpolatingParam id="5400" interp="linr"  time="0/1" value="0" leadInLength="0/1"  />
               <InterpolatingParam id="5401" interp="linr"  time="0/1" value="0" leadInLength="0/1"  />
              </VectorParam>
             </Transformer>
             <Parameters>
              <VectorParam id="5402"  name="sourceCrop">
               <InterpolatingParam id="5403" interp="linr"  time="0/1" value="0" leadInLength="0/1"  />
               <InterpolatingParam id="5404" interp="linr"  time="0/1" value="0" leadInLength="0/1"  />
               <InterpolatingParam id="5405" interp="linr"  time="0/1" value="0" leadInLength="0/1"  />
               <InterpolatingParam id="5406" interp="linr"  time="0/1" value="0" leadInLength="0/1"  />
              </VectorParam>
              <VectorParam id="5407"  name="geometryCrop">
               <InterpolatingParam id="5408" interp="linr"  time="-9999999/1" value="0" leadInLength="0/1"  />
               <InterpolatingParam id="5409" interp="linr"  time="-9999999/1" value="0" leadInLength="0/1"  />
               <InterpolatingParam id="5410" interp="linr"  time="-9999999/1" value="0" leadInLength="0/1"  />
               <InterpolatingParam id="5411" interp="linr"  time="-9999999/1" value="0" leadInLength="0/1"  />
              </VectorParam>
              <InterpolatingParam id="5412" interp="linr"  time="-9999999/1" value="1" leadInLength="0/1"  name="opacity"/>
             </Parameters>
             <Attributes>
              <Attribute id="5413" value="" name="ident"/>
             </Attributes>
             <ExtraData>
              <Entry key="ZoomPanBin">
               <ZoomPanBin id="5414"  >
                <ZoomPanKeyframes>
                 <ZoomPanKeyframe id="5415" timeRangeEnd="-9999999/1" timeRangeDuration="0/1" interpolaterName=""  />
                </ZoomPanKeyframes>
               </ZoomPanBin>
              </Entry>
             </ExtraData>
            </VMFile>
            <MetaData>
             <entry key="WinSubProjectDisplayName" val=""/>
            </MetaData>
           </UnifiedMedia>
           <UnifiedMedia id="5416"  >
            <AMFile id="5417" start="1472" duration="141" scalar="1/1" mediaStart="1480/1" mediaDuration="141/1" trackNumber="2" src="11" channelNumber="0,1" >
             <Parameters>
              <InterpolatingParam id="5418" interp="linr"  time="0/1" value="1" leadInLength="0/1"  name="volume"/>
              <Parameter id="5419"  name="captions"/>
             </Parameters>
             <Attributes>
              <Attribute id="5420" value="" name="ident"/>
              <Attribute id="5421" value="44100" name="sampleRate"/>
              <Attribute id="5422" value="16" name="bitDepth"/>
              <Attribute id="5423" value="1" name="gain"/>
              <Attribute id="5424" value="0" name="mixToMono"/>
             </Attributes>
            </AMFile>
            <VMFile id="5425" start="1472" duration="141" scalar="1/1" mediaStart="1480/1" mediaDuration="141/1" trackNumber="1" src="11" >
             <Transformer>
              <VectorParam id="5426"  name="translation">
               <InterpolatingParam id="5427" interp="linr"  time="-9999999/1" value="0" leadInLength="0/1"  />
               <InterpolatingParam id="5428" interp="linr"  time="-9999999/1" value="0" leadInLength="0/1"  />
               <InterpolatingParam id="5429" interp="linr"  time="-9999999/1" value="0" leadInLength="0/1"  />
              </VectorParam>
              <VectorParam id="5430"  name="rotation">
               <InterpolatingParam id="5431" interp="linr"  time="-9999999/1" value="0" leadInLength="0/1"  />
               <InterpolatingParam id="5432" interp="linr"  time="-9999999/1" value="0" leadInLength="0/1"  />
               <InterpolatingParam id="5433" interp="linr"  time="-9999999/1" value="0" leadInLength="0/1"  />
              </VectorParam>
              <VectorParam id="5434"  name="shear">
               <InterpolatingParam id="5435" interp="linr"  time="-9999999/1" value="0" leadInLength="0/1"  />
               <InterpolatingParam id="5436" interp="linr"  time="-9999999/1" value="0" leadInLength="0/1"  />
               <InterpolatingParam id="5437" interp="linr"  time="-9999999/1" value="0" leadInLength="0/1"  />
              </VectorParam>
              <VectorParam id="5438"  name="scale">
               <InterpolatingParam id="5439" interp="linr"  time="-9999999/1" value="1" leadInLength="0/1"  />
               <InterpolatingParam id="5440" interp="linr"  time="-9999999/1" value="1" leadInLength="0/1"  />
               <InterpolatingParam id="5441" interp="linr"  time="-9999999/1" value="1" leadInLength="0/1"  />
              </VectorParam>
              <VectorParam id="5442"  name="anchor">
               <InterpolatingParam id="5443" interp="linr"  time="0/1" value="0" leadInLength="0/1"  />
               <InterpolatingParam id="5444" interp="linr"  time="0/1" value="0" leadInLength="0/1"  />
               <InterpolatingParam id="5445" interp="linr"  time="0/1" value="0" leadInLength="0/1"  />
              </VectorParam>
             </Transformer>
             <Parameters>
              <VectorParam id="5446"  name="sourceCrop">
               <InterpolatingParam id="5447" interp="linr"  time="0/1" value="0" leadInLength="0/1"  />
               <InterpolatingParam id="5448" interp="linr"  time="0/1" value="0" leadInLength="0/1"  />
               <InterpolatingParam id="5449" interp="linr"  time="0/1" value="0" leadInLength="0/1"  />
               <InterpolatingParam id="5450" interp="linr"  time="0/1" value="0" leadInLength="0/1"  />
              </VectorParam>
              <VectorParam id="5451"  name="geometryCrop">
               <InterpolatingParam id="5452" interp="linr"  time="-9999999/1" value="0" leadInLength="0/1"  />
               <InterpolatingParam id="5453" interp="linr"  time="-9999999/1" value="0" leadInLength="0/1"  />
               <InterpolatingParam id="5454" interp="linr"  time="-9999999/1" value="0" leadInLength="0/1"  />
               <InterpolatingParam id="5455" interp="linr"  time="-9999999/1" value="0" leadInLength="0/1"  />
              </VectorParam>
              <InterpolatingParam id="5456" interp="linr"  time="-9999999/1" value="1" leadInLength="0/1"  name="opacity"/>
             </Parameters>
             <Attributes>
              <Attribute id="5457" value="" name="ident"/>
             </Attributes>
             <ExtraData>
              <Entry key="ZoomPanBin">
               <ZoomPanBin id="5458"  >
                <ZoomPanKeyframes>
                 <ZoomPanKeyframe id="5459" timeRangeEnd="-9999999/1" timeRangeDuration="0/1" interpolaterName=""  />
                </ZoomPanKeyframes>
               </ZoomPanBin>
              </Entry>
             </ExtraData>
            </VMFile>
            <MetaData>
             <entry key="WinSubProjectDisplayName" val=""/>
            </MetaData>
           </UnifiedMedia>
           <UnifiedMedia id="5460"  >
            <AMFile id="5461" start="1613" duration="26" scalar="1/1" mediaStart="1629/1" mediaDuration="26/1" trackNumber="2" src="11" channelNumber="0,1" >
             <Parameters>
              <InterpolatingParam id="5462" interp="linr"  time="0/1" value="1" leadInLength="0/1"  name="volume"/>
              <Parameter id="5463"  name="captions"/>
             </Parameters>
             <Attributes>
              <Attribute id="5464" value="" name="ident"/>
              <Attribute id="5465" value="44100" name="sampleRate"/>
              <Attribute id="5466" value="16" name="bitDepth"/>
              <Attribute id="5467" value="1" name="gain"/>
              <Attribute id="5468" value="0" name="mixToMono"/>
             </Attributes>
            </AMFile>
            <VMFile id="5469" start="1613" duration="26" scalar="1/1" mediaStart="1629/1" mediaDuration="26/1" trackNumber="1" src="11" >
             <Transformer>
              <VectorParam id="5470"  name="translation">
               <InterpolatingParam id="5471" interp="linr"  time="-9999999/1" value="0" leadInLength="0/1"  />
               <InterpolatingParam id="5472" interp="linr"  time="-9999999/1" value="0" leadInLength="0/1"  />
               <InterpolatingParam id="5473" interp="linr"  time="-9999999/1" value="0" leadInLength="0/1"  />
              </VectorParam>
              <VectorParam id="5474"  name="rotation">
               <InterpolatingParam id="5475" interp="linr"  time="-9999999/1" value="0" leadInLength="0/1"  />
               <InterpolatingParam id="5476" interp="linr"  time="-9999999/1" value="0" leadInLength="0/1"  />
               <InterpolatingParam id="5477" interp="linr"  time="-9999999/1" value="0" leadInLength="0/1"  />
              </VectorParam>
              <VectorParam id="5478"  name="shear">
               <InterpolatingParam id="5479" interp="linr"  time="-9999999/1" value="0" leadInLength="0/1"  />
               <InterpolatingParam id="5480" interp="linr"  time="-9999999/1" value="0" leadInLength="0/1"  />
               <InterpolatingParam id="5481" interp="linr"  time="-9999999/1" value="0" leadInLength="0/1"  />
              </VectorParam>
              <VectorParam id="5482"  name="scale">
               <InterpolatingParam id="5483" interp="linr"  time="-9999999/1" value="1" leadInLength="0/1"  />
               <InterpolatingParam id="5484" interp="linr"  time="-9999999/1" value="1" leadInLength="0/1"  />
               <InterpolatingParam id="5485" interp="linr"  time="-9999999/1" value="1" leadInLength="0/1"  />
              </VectorParam>
              <VectorParam id="5486"  name="anchor">
               <InterpolatingParam id="5487" interp="linr"  time="0/1" value="0" leadInLength="0/1"  />
               <InterpolatingParam id="5488" interp="linr"  time="0/1" value="0" leadInLength="0/1"  />
               <InterpolatingParam id="5489" interp="linr"  time="0/1" value="0" leadInLength="0/1"  />
              </VectorParam>
             </Transformer>
             <Parameters>
              <VectorParam id="5490"  name="sourceCrop">
               <InterpolatingParam id="5491" interp="linr"  time="0/1" value="0" leadInLength="0/1"  />
               <InterpolatingParam id="5492" interp="linr"  time="0/1" value="0" leadInLength="0/1"  />
               <InterpolatingParam id="5493" interp="linr"  time="0/1" value="0" leadInLength="0/1"  />
               <InterpolatingParam id="5494" interp="linr"  time="0/1" value="0" leadInLength="0/1"  />
              </VectorParam>
              <VectorParam id="5495"  name="geometryCrop">
               <InterpolatingParam id="5496" interp="linr"  time="-9999999/1" value="0" leadInLength="0/1"  />
               <InterpolatingParam id="5497" interp="linr"  time="-9999999/1" value="0" leadInLength="0/1"  />
               <InterpolatingParam id="5498" interp="linr"  time="-9999999/1" value="0" leadInLength="0/1"  />
               <InterpolatingParam id="5499" interp="linr"  time="-9999999/1" value="0" leadInLength="0/1"  />
              </VectorParam>
              <InterpolatingParam id="5500" interp="linr"  time="-9999999/1" value="1" leadInLength="0/1"  name="opacity"/>
             </Parameters>
             <Attributes>
              <Attribute id="5501" value="" name="ident"/>
             </Attributes>
             <ExtraData>
              <Entry key="ZoomPanBin">
               <ZoomPanBin id="5502"  >
                <ZoomPanKeyframes>
                 <ZoomPanKeyframe id="5503" timeRangeEnd="-9999999/1" timeRangeDuration="0/1" interpolaterName=""  />
                </ZoomPanKeyframes>
               </ZoomPanBin>
              </Entry>
             </ExtraData>
            </VMFile>
            <MetaData>
             <entry key="WinSubProjectDisplayName" val=""/>
            </MetaData>
           </UnifiedMedia>
           <UnifiedMedia id="5504"  >
            <AMFile id="5505" start="1639" duration="22" scalar="1/1" mediaStart="1662/1" mediaDuration="22/1" trackNumber="2" src="11" channelNumber="0,1" >
             <Parameters>
              <InterpolatingParam id="5506" interp="linr"  time="0/1" value="1" leadInLength="0/1"  name="volume"/>
              <Parameter id="5507"  name="captions"/>
             </Parameters>
             <Attributes>
              <Attribute id="5508" value="" name="ident"/>
              <Attribute id="5509" value="44100" name="sampleRate"/>
              <Attribute id="5510" value="16" name="bitDepth"/>
              <Attribute id="5511" value="1" name="gain"/>
              <Attribute id="5512" value="0" name="mixToMono"/>
             </Attributes>
            </AMFile>
            <VMFile id="5513" start="1639" duration="22" scalar="1/1" mediaStart="1662/1" mediaDuration="22/1" trackNumber="1" src="11" >
             <Transformer>
              <VectorParam id="5514"  name="translation">
               <InterpolatingParam id="5515" interp="linr"  time="-9999999/1" value="0" leadInLength="0/1"  />
               <InterpolatingParam id="5516" interp="linr"  time="-9999999/1" value="0" leadInLength="0/1"  />
               <InterpolatingParam id="5517" interp="linr"  time="-9999999/1" value="0" leadInLength="0/1"  />
              </VectorParam>
              <VectorParam id="5518"  name="rotation">
               <InterpolatingParam id="5519" interp="linr"  time="-9999999/1" value="0" leadInLength="0/1"  />
               <InterpolatingParam id="5520" interp="linr"  time="-9999999/1" value="0" leadInLength="0/1"  />
               <InterpolatingParam id="5521" interp="linr"  time="-9999999/1" value="0" leadInLength="0/1"  />
              </VectorParam>
              <VectorParam id="5522"  name="shear">
               <InterpolatingParam id="5523" interp="linr"  time="-9999999/1" value="0" leadInLength="0/1"  />
               <InterpolatingParam id="5524" interp="linr"  time="-9999999/1" value="0" leadInLength="0/1"  />
               <InterpolatingParam id="5525" interp="linr"  time="-9999999/1" value="0" leadInLength="0/1"  />
              </VectorParam>
              <VectorParam id="5526"  name="scale">
               <InterpolatingParam id="5527" interp="linr"  time="-9999999/1" value="1" leadInLength="0/1"  />
               <InterpolatingParam id="5528" interp="linr"  time="-9999999/1" value="1" leadInLength="0/1"  />
               <InterpolatingParam id="5529" interp="linr"  time="-9999999/1" value="1" leadInLength="0/1"  />
              </VectorParam>
              <VectorParam id="5530"  name="anchor">
               <InterpolatingParam id="5531" interp="linr"  time="0/1" value="0" leadInLength="0/1"  />
               <InterpolatingParam id="5532" interp="linr"  time="0/1" value="0" leadInLength="0/1"  />
               <InterpolatingParam id="5533" interp="linr"  time="0/1" value="0" leadInLength="0/1"  />
              </VectorParam>
             </Transformer>
             <Parameters>
              <VectorParam id="5534"  name="sourceCrop">
               <InterpolatingParam id="5535" interp="linr"  time="0/1" value="0" leadInLength="0/1"  />
               <InterpolatingParam id="5536" interp="linr"  time="0/1" value="0" leadInLength="0/1"  />
               <InterpolatingParam id="5537" interp="linr"  time="0/1" value="0" leadInLength="0/1"  />
               <InterpolatingParam id="5538" interp="linr"  time="0/1" value="0" leadInLength="0/1"  />
              </VectorParam>
              <VectorParam id="5539"  name="geometryCrop">
               <InterpolatingParam id="5540" interp="linr"  time="-9999999/1" value="0" leadInLength="0/1"  />
               <InterpolatingParam id="5541" interp="linr"  time="-9999999/1" value="0" leadInLength="0/1"  />
               <InterpolatingParam id="5542" interp="linr"  time="-9999999/1" value="0" leadInLength="0/1"  />
               <InterpolatingParam id="5543" interp="linr"  time="-9999999/1" value="0" leadInLength="0/1"  />
              </VectorParam>
              <InterpolatingParam id="5544" interp="linr"  time="-9999999/1" value="1" leadInLength="0/1"  name="opacity"/>
             </Parameters>
             <Attributes>
              <Attribute id="5545" value="" name="ident"/>
             </Attributes>
             <ExtraData>
              <Entry key="ZoomPanBin">
               <ZoomPanBin id="5546"  >
                <ZoomPanKeyframes>
                 <ZoomPanKeyframe id="5547" timeRangeEnd="-9999999/1" timeRangeDuration="0/1" interpolaterName=""  />
                </ZoomPanKeyframes>
               </ZoomPanBin>
              </Entry>
             </ExtraData>
            </VMFile>
            <MetaData>
             <entry key="WinSubProjectDisplayName" val=""/>
            </MetaData>
           </UnifiedMedia>
           <UnifiedMedia id="5548"  >
            <AMFile id="5549" start="1661" duration="33" scalar="1/1" mediaStart="1692/1" mediaDuration="33/1" trackNumber="2" src="11" channelNumber="0,1" >
             <Parameters>
              <InterpolatingParam id="5550" interp="linr"  time="0/1" value="1" leadInLength="0/1"  name="volume"/>
              <Parameter id="5551"  name="captions"/>
             </Parameters>
             <Attributes>
              <Attribute id="5552" value="" name="ident"/>
              <Attribute id="5553" value="44100" name="sampleRate"/>
              <Attribute id="5554" value="16" name="bitDepth"/>
              <Attribute id="5555" value="1" name="gain"/>
              <Attribute id="5556" value="0" name="mixToMono"/>
             </Attributes>
            </AMFile>
            <VMFile id="5557" start="1661" duration="33" scalar="1/1" mediaStart="1692/1" mediaDuration="33/1" trackNumber="1" src="11" >
             <Transformer>
              <VectorParam id="5558"  name="translation">
               <InterpolatingParam id="5559" interp="linr"  time="-9999999/1" value="0" leadInLength="0/1"  />
               <InterpolatingParam id="5560" interp="linr"  time="-9999999/1" value="0" leadInLength="0/1"  />
               <InterpolatingParam id="5561" interp="linr"  time="-9999999/1" value="0" leadInLength="0/1"  />
              </VectorParam>
              <VectorParam id="5562"  name="rotation">
               <InterpolatingParam id="5563" interp="linr"  time="-9999999/1" value="0" leadInLength="0/1"  />
               <InterpolatingParam id="5564" interp="linr"  time="-9999999/1" value="0" leadInLength="0/1"  />
               <InterpolatingParam id="5565" interp="linr"  time="-9999999/1" value="0" leadInLength="0/1"  />
              </VectorParam>
              <VectorParam id="5566"  name="shear">
               <InterpolatingParam id="5567" interp="linr"  time="-9999999/1" value="0" leadInLength="0/1"  />
               <InterpolatingParam id="5568" interp="linr"  time="-9999999/1" value="0" leadInLength="0/1"  />
               <InterpolatingParam id="5569" interp="linr"  time="-9999999/1" value="0" leadInLength="0/1"  />
              </VectorParam>
              <VectorParam id="5570"  name="scale">
               <InterpolatingParam id="5571" interp="linr"  time="-9999999/1" value="1" leadInLength="0/1"  />
               <InterpolatingParam id="5572" interp="linr"  time="-9999999/1" value="1" leadInLength="0/1"  />
               <InterpolatingParam id="5573" interp="linr"  time="-9999999/1" value="1" leadInLength="0/1"  />
              </VectorParam>
              <VectorParam id="5574"  name="anchor">
               <InterpolatingParam id="5575" interp="linr"  time="0/1" value="0" leadInLength="0/1"  />
               <InterpolatingParam id="5576" interp="linr"  time="0/1" value="0" leadInLength="0/1"  />
               <InterpolatingParam id="5577" interp="linr"  time="0/1" value="0" leadInLength="0/1"  />
              </VectorParam>
             </Transformer>
             <Parameters>
              <VectorParam id="5578"  name="sourceCrop">
               <InterpolatingParam id="5579" interp="linr"  time="0/1" value="0" leadInLength="0/1"  />
               <InterpolatingParam id="5580" interp="linr"  time="0/1" value="0" leadInLength="0/1"  />
               <InterpolatingParam id="5581" interp="linr"  time="0/1" value="0" leadInLength="0/1"  />
               <InterpolatingParam id="5582" interp="linr"  time="0/1" value="0" leadInLength="0/1"  />
              </VectorParam>
              <VectorParam id="5583"  name="geometryCrop">
               <InterpolatingParam id="5584" interp="linr"  time="-9999999/1" value="0" leadInLength="0/1"  />
               <InterpolatingParam id="5585" interp="linr"  time="-9999999/1" value="0" leadInLength="0/1"  />
               <InterpolatingParam id="5586" interp="linr"  time="-9999999/1" value="0" leadInLength="0/1"  />
               <InterpolatingParam id="5587" interp="linr"  time="-9999999/1" value="0" leadInLength="0/1"  />
              </VectorParam>
              <InterpolatingParam id="5588" interp="linr"  time="-9999999/1" value="1" leadInLength="0/1"  name="opacity"/>
             </Parameters>
             <Attributes>
              <Attribute id="5589" value="" name="ident"/>
             </Attributes>
             <ExtraData>
              <Entry key="ZoomPanBin">
               <ZoomPanBin id="5590"  >
                <ZoomPanKeyframes>
                 <ZoomPanKeyframe id="5591" timeRangeEnd="-9999999/1" timeRangeDuration="0/1" interpolaterName=""  />
                </ZoomPanKeyframes>
               </ZoomPanBin>
              </Entry>
             </ExtraData>
            </VMFile>
            <MetaData>
             <entry key="WinSubProjectDisplayName" val=""/>
            </MetaData>
           </UnifiedMedia>
           <UnifiedMedia id="5592"  >
            <AMFile id="5593" start="1694" duration="63" scalar="1/1" mediaStart="1745/1" mediaDuration="63/1" trackNumber="2" src="11" channelNumber="0,1" >
             <Parameters>
              <InterpolatingParam id="5594" interp="linr"  time="0/1" value="1" leadInLength="0/1"  name="volume"/>
              <Parameter id="5595"  name="captions"/>
             </Parameters>
             <Attributes>
              <Attribute id="5596" value="" name="ident"/>
              <Attribute id="5597" value="44100" name="sampleRate"/>
              <Attribute id="5598" value="16" name="bitDepth"/>
              <Attribute id="5599" value="1" name="gain"/>
              <Attribute id="5600" value="0" name="mixToMono"/>
             </Attributes>
            </AMFile>
            <VMFile id="5601" start="1694" duration="63" scalar="1/1" mediaStart="1745/1" mediaDuration="63/1" trackNumber="1" src="11" >
             <Transformer>
              <VectorParam id="5602"  name="translation">
               <InterpolatingParam id="5603" interp="linr"  time="-9999999/1" value="0" leadInLength="0/1"  />
               <InterpolatingParam id="5604" interp="linr"  time="-9999999/1" value="0" leadInLength="0/1"  />
               <InterpolatingParam id="5605" interp="linr"  time="-9999999/1" value="0" leadInLength="0/1"  />
              </VectorParam>
              <VectorParam id="5606"  name="rotation">
               <InterpolatingParam id="5607" interp="linr"  time="-9999999/1" value="0" leadInLength="0/1"  />
               <InterpolatingParam id="5608" interp="linr"  time="-9999999/1" value="0" leadInLength="0/1"  />
               <InterpolatingParam id="5609" interp="linr"  time="-9999999/1" value="0" leadInLength="0/1"  />
              </VectorParam>
              <VectorParam id="5610"  name="shear">
               <InterpolatingParam id="5611" interp="linr"  time="-9999999/1" value="0" leadInLength="0/1"  />
               <InterpolatingParam id="5612" interp="linr"  time="-9999999/1" value="0" leadInLength="0/1"  />
               <InterpolatingParam id="5613" interp="linr"  time="-9999999/1" value="0" leadInLength="0/1"  />
              </VectorParam>
              <VectorParam id="5614"  name="scale">
               <InterpolatingParam id="5615" interp="linr"  time="-9999999/1" value="1" leadInLength="0/1"  />
               <InterpolatingParam id="5616" interp="linr"  time="-9999999/1" value="1" leadInLength="0/1"  />
               <InterpolatingParam id="5617" interp="linr"  time="-9999999/1" value="1" leadInLength="0/1"  />
              </VectorParam>
              <VectorParam id="5618"  name="anchor">
               <InterpolatingParam id="5619" interp="linr"  time="0/1" value="0" leadInLength="0/1"  />
               <InterpolatingParam id="5620" interp="linr"  time="0/1" value="0" leadInLength="0/1"  />
               <InterpolatingParam id="5621" interp="linr"  time="0/1" value="0" leadInLength="0/1"  />
              </VectorParam>
             </Transformer>
             <Parameters>
              <VectorParam id="5622"  name="sourceCrop">
               <InterpolatingParam id="5623" interp="linr"  time="0/1" value="0" leadInLength="0/1"  />
               <InterpolatingParam id="5624" interp="linr"  time="0/1" value="0" leadInLength="0/1"  />
               <InterpolatingParam id="5625" interp="linr"  time="0/1" value="0" leadInLength="0/1"  />
               <InterpolatingParam id="5626" interp="linr"  time="0/1" value="0" leadInLength="0/1"  />
              </VectorParam>
              <VectorParam id="5627"  name="geometryCrop">
               <InterpolatingParam id="5628" interp="linr"  time="-9999999/1" value="0" leadInLength="0/1"  />
               <InterpolatingParam id="5629" interp="linr"  time="-9999999/1" value="0" leadInLength="0/1"  />
               <InterpolatingParam id="5630" interp="linr"  time="-9999999/1" value="0" leadInLength="0/1"  />
               <InterpolatingParam id="5631" interp="linr"  time="-9999999/1" value="0" leadInLength="0/1"  />
              </VectorParam>
              <InterpolatingParam id="5632" interp="linr"  time="-9999999/1" value="1" leadInLength="0/1"  name="opacity"/>
             </Parameters>
             <Attributes>
              <Attribute id="5633" value="" name="ident"/>
             </Attributes>
             <ExtraData>
              <Entry key="ZoomPanBin">
               <ZoomPanBin id="5634"  >
                <ZoomPanKeyframes>
                 <ZoomPanKeyframe id="5635" timeRangeEnd="-9999999/1" timeRangeDuration="0/1" interpolaterName=""  />
                </ZoomPanKeyframes>
               </ZoomPanBin>
              </Entry>
             </ExtraData>
            </VMFile>
            <MetaData>
             <entry key="WinSubProjectDisplayName" val=""/>
            </MetaData>
           </UnifiedMedia>
           <UnifiedMedia id="5636"  >
            <AMFile id="5637" start="1757" duration="187" scalar="1/1" mediaStart="1829/1" mediaDuration="187/1" trackNumber="2" src="11" channelNumber="0,1" >
             <Parameters>
              <InterpolatingParam id="5638" interp="linr"  time="0/1" value="1" leadInLength="0/1"  name="volume"/>
              <Parameter id="5639"  name="captions"/>
             </Parameters>
             <Attributes>
              <Attribute id="5640" value="" name="ident"/>
              <Attribute id="5641" value="44100" name="sampleRate"/>
              <Attribute id="5642" value="16" name="bitDepth"/>
              <Attribute id="5643" value="1" name="gain"/>
              <Attribute id="5644" value="0" name="mixToMono"/>
             </Attributes>
            </AMFile>
            <VMFile id="5645" start="1757" duration="187" scalar="1/1" mediaStart="1829/1" mediaDuration="187/1" trackNumber="1" src="11" >
             <Transformer>
              <VectorParam id="5646"  name="translation">
               <InterpolatingParam id="5647" interp="linr"  time="-9999999/1" value="0" leadInLength="0/1"  />
               <InterpolatingParam id="5648" interp="linr"  time="-9999999/1" value="0" leadInLength="0/1"  />
               <InterpolatingParam id="5649" interp="linr"  time="-9999999/1" value="0" leadInLength="0/1"  />
              </VectorParam>
              <VectorParam id="5650"  name="rotation">
               <InterpolatingParam id="5651" interp="linr"  time="-9999999/1" value="0" leadInLength="0/1"  />
               <InterpolatingParam id="5652" interp="linr"  time="-9999999/1" value="0" leadInLength="0/1"  />
               <InterpolatingParam id="5653" interp="linr"  time="-9999999/1" value="0" leadInLength="0/1"  />
              </VectorParam>
              <VectorParam id="5654"  name="shear">
               <InterpolatingParam id="5655" interp="linr"  time="-9999999/1" value="0" leadInLength="0/1"  />
               <InterpolatingParam id="5656" interp="linr"  time="-9999999/1" value="0" leadInLength="0/1"  />
               <InterpolatingParam id="5657" interp="linr"  time="-9999999/1" value="0" leadInLength="0/1"  />
              </VectorParam>
              <VectorParam id="5658"  name="scale">
               <InterpolatingParam id="5659" interp="linr"  time="-9999999/1" value="1" leadInLength="0/1"  />
               <InterpolatingParam id="5660" interp="linr"  time="-9999999/1" value="1" leadInLength="0/1"  />
               <InterpolatingParam id="5661" interp="linr"  time="-9999999/1" value="1" leadInLength="0/1"  />
              </VectorParam>
              <VectorParam id="5662"  name="anchor">
               <InterpolatingParam id="5663" interp="linr"  time="0/1" value="0" leadInLength="0/1"  />
               <InterpolatingParam id="5664" interp="linr"  time="0/1" value="0" leadInLength="0/1"  />
               <InterpolatingParam id="5665" interp="linr"  time="0/1" value="0" leadInLength="0/1"  />
              </VectorParam>
             </Transformer>
             <Parameters>
              <VectorParam id="5666"  name="sourceCrop">
               <InterpolatingParam id="5667" interp="linr"  time="0/1" value="0" leadInLength="0/1"  />
               <InterpolatingParam id="5668" interp="linr"  time="0/1" value="0" leadInLength="0/1"  />
               <InterpolatingParam id="5669" interp="linr"  time="0/1" value="0" leadInLength="0/1"  />
               <InterpolatingParam id="5670" interp="linr"  time="0/1" value="0" leadInLength="0/1"  />
              </VectorParam>
              <VectorParam id="5671"  name="geometryCrop">
               <InterpolatingParam id="5672" interp="linr"  time="-9999999/1" value="0" leadInLength="0/1"  />
               <InterpolatingParam id="5673" interp="linr"  time="-9999999/1" value="0" leadInLength="0/1"  />
               <InterpolatingParam id="5674" interp="linr"  time="-9999999/1" value="0" leadInLength="0/1"  />
               <InterpolatingParam id="5675" interp="linr"  time="-9999999/1" value="0" leadInLength="0/1"  />
              </VectorParam>
              <InterpolatingParam id="5676" interp="linr"  time="-9999999/1" value="1" leadInLength="0/1"  name="opacity"/>
             </Parameters>
             <Attributes>
              <Attribute id="5677" value="" name="ident"/>
             </Attributes>
             <ExtraData>
              <Entry key="ZoomPanBin">
               <ZoomPanBin id="5678"  >
                <ZoomPanKeyframes>
                 <ZoomPanKeyframe id="5679" timeRangeEnd="-9999999/1" timeRangeDuration="0/1" interpolaterName=""  />
                </ZoomPanKeyframes>
               </ZoomPanBin>
              </Entry>
             </ExtraData>
            </VMFile>
            <MetaData>
             <entry key="WinSubProjectDisplayName" val=""/>
            </MetaData>
           </UnifiedMedia>
           <UnifiedMedia id="5680"  >
            <AMFile id="5681" start="1944" duration="156" scalar="1/1" mediaStart="2288/1" mediaDuration="156/1" trackNumber="2" src="11" channelNumber="0,1" >
             <Parameters>
              <InterpolatingParam id="5682" interp="linr"  time="0/1" value="1" leadInLength="0/1"  name="volume"/>
              <Parameter id="5683"  name="captions"/>
             </Parameters>
             <Attributes>
              <Attribute id="5684" value="" name="ident"/>
              <Attribute id="5685" value="44100" name="sampleRate"/>
              <Attribute id="5686" value="16" name="bitDepth"/>
              <Attribute id="5687" value="1" name="gain"/>
              <Attribute id="5688" value="0" name="mixToMono"/>
             </Attributes>
            </AMFile>
            <VMFile id="5689" start="1944" duration="156" scalar="1/1" mediaStart="2288/1" mediaDuration="156/1" trackNumber="1" src="11" >
             <Transformer>
              <VectorParam id="5690"  name="translation">
               <InterpolatingParam id="5691" interp="linr"  time="-9999999/1" value="0" leadInLength="0/1"  />
               <InterpolatingParam id="5692" interp="linr"  time="-9999999/1" value="0" leadInLength="0/1"  />
               <InterpolatingParam id="5693" interp="linr"  time="-9999999/1" value="0" leadInLength="0/1"  />
              </VectorParam>
              <VectorParam id="5694"  name="rotation">
               <InterpolatingParam id="5695" interp="linr"  time="-9999999/1" value="0" leadInLength="0/1"  />
               <InterpolatingParam id="5696" interp="linr"  time="-9999999/1" value="0" leadInLength="0/1"  />
               <InterpolatingParam id="5697" interp="linr"  time="-9999999/1" value="0" leadInLength="0/1"  />
              </VectorParam>
              <VectorParam id="5698"  name="shear">
               <InterpolatingParam id="5699" interp="linr"  time="-9999999/1" value="0" leadInLength="0/1"  />
               <InterpolatingParam id="5700" interp="linr"  time="-9999999/1" value="0" leadInLength="0/1"  />
               <InterpolatingParam id="5701" interp="linr"  time="-9999999/1" value="0" leadInLength="0/1"  />
              </VectorParam>
              <VectorParam id="5702"  name="scale">
               <InterpolatingParam id="5703" interp="linr"  time="-9999999/1" value="1" leadInLength="0/1"  />
               <InterpolatingParam id="5704" interp="linr"  time="-9999999/1" value="1" leadInLength="0/1"  />
               <InterpolatingParam id="5705" interp="linr"  time="-9999999/1" value="1" leadInLength="0/1"  />
              </VectorParam>
              <VectorParam id="5706"  name="anchor">
               <InterpolatingParam id="5707" interp="linr"  time="0/1" value="0" leadInLength="0/1"  />
               <InterpolatingParam id="5708" interp="linr"  time="0/1" value="0" leadInLength="0/1"  />
               <InterpolatingParam id="5709" interp="linr"  time="0/1" value="0" leadInLength="0/1"  />
              </VectorParam>
             </Transformer>
             <Parameters>
              <VectorParam id="5710"  name="sourceCrop">
               <InterpolatingParam id="5711" interp="linr"  time="0/1" value="0" leadInLength="0/1"  />
               <InterpolatingParam id="5712" interp="linr"  time="0/1" value="0" leadInLength="0/1"  />
               <InterpolatingParam id="5713" interp="linr"  time="0/1" value="0" leadInLength="0/1"  />
               <InterpolatingParam id="5714" interp="linr"  time="0/1" value="0" leadInLength="0/1"  />
              </VectorParam>
              <VectorParam id="5715"  name="geometryCrop">
               <InterpolatingParam id="5716" interp="linr"  time="-9999999/1" value="0" leadInLength="0/1"  />
               <InterpolatingParam id="5717" interp="linr"  time="-9999999/1" value="0" leadInLength="0/1"  />
               <InterpolatingParam id="5718" interp="linr"  time="-9999999/1" value="0" leadInLength="0/1"  />
               <InterpolatingParam id="5719" interp="linr"  time="-9999999/1" value="0" leadInLength="0/1"  />
              </VectorParam>
              <InterpolatingParam id="5720" interp="linr"  time="-9999999/1" value="1" leadInLength="0/1"  name="opacity"/>
             </Parameters>
             <Attributes>
              <Attribute id="5721" value="" name="ident"/>
             </Attributes>
             <ExtraData>
              <Entry key="ZoomPanBin">
               <ZoomPanBin id="5722"  >
                <ZoomPanKeyframes>
                 <ZoomPanKeyframe id="5723" timeRangeEnd="-9999999/1" timeRangeDuration="0/1" interpolaterName=""  />
                </ZoomPanKeyframes>
               </ZoomPanBin>
              </Entry>
             </ExtraData>
            </VMFile>
            <MetaData>
             <entry key="WinSubProjectDisplayName" val=""/>
            </MetaData>
           </UnifiedMedia>
           <UnifiedMedia id="5724"  >
            <AMFile id="5725" start="2100" duration="264" scalar="1/1" mediaStart="2494/1" mediaDuration="264/1" trackNumber="2" src="11" channelNumber="0,1" >
             <Parameters>
              <InterpolatingParam id="5726" interp="linr"  time="0/1" value="1" leadInLength="0/1"  name="volume"/>
              <Parameter id="5727"  name="captions"/>
             </Parameters>
             <Attributes>
              <Attribute id="5728" value="" name="ident"/>
              <Attribute id="5729" value="44100" name="sampleRate"/>
              <Attribute id="5730" value="16" name="bitDepth"/>
              <Attribute id="5731" value="1" name="gain"/>
              <Attribute id="5732" value="0" name="mixToMono"/>
             </Attributes>
            </AMFile>
            <VMFile id="5733" start="2100" duration="264" scalar="1/1" mediaStart="2494/1" mediaDuration="264/1" trackNumber="1" src="11" >
             <Transformer>
              <VectorParam id="5734"  name="translation">
               <InterpolatingParam id="5735" interp="linr"  time="-9999999/1" value="0" leadInLength="0/1"  />
               <InterpolatingParam id="5736" interp="linr"  time="-9999999/1" value="0" leadInLength="0/1"  />
               <InterpolatingParam id="5737" interp="linr"  time="-9999999/1" value="0" leadInLength="0/1"  />
              </VectorParam>
              <VectorParam id="5738"  name="rotation">
               <InterpolatingParam id="5739" interp="linr"  time="-9999999/1" value="0" leadInLength="0/1"  />
               <InterpolatingParam id="5740" interp="linr"  time="-9999999/1" value="0" leadInLength="0/1"  />
               <InterpolatingParam id="5741" interp="linr"  time="-9999999/1" value="0" leadInLength="0/1"  />
              </VectorParam>
              <VectorParam id="5742"  name="shear">
               <InterpolatingParam id="5743" interp="linr"  time="-9999999/1" value="0" leadInLength="0/1"  />
               <InterpolatingParam id="5744" interp="linr"  time="-9999999/1" value="0" leadInLength="0/1"  />
               <InterpolatingParam id="5745" interp="linr"  time="-9999999/1" value="0" leadInLength="0/1"  />
              </VectorParam>
              <VectorParam id="5746"  name="scale">
               <InterpolatingParam id="5747" interp="linr"  time="-9999999/1" value="1" leadInLength="0/1"  />
               <InterpolatingParam id="5748" interp="linr"  time="-9999999/1" value="1" leadInLength="0/1"  />
               <InterpolatingParam id="5749" interp="linr"  time="-9999999/1" value="1" leadInLength="0/1"  />
              </VectorParam>
              <VectorParam id="5750"  name="anchor">
               <InterpolatingParam id="5751" interp="linr"  time="0/1" value="0" leadInLength="0/1"  />
               <InterpolatingParam id="5752" interp="linr"  time="0/1" value="0" leadInLength="0/1"  />
               <InterpolatingParam id="5753" interp="linr"  time="0/1" value="0" leadInLength="0/1"  />
              </VectorParam>
             </Transformer>
             <Parameters>
              <VectorParam id="5754"  name="sourceCrop">
               <InterpolatingParam id="5755" interp="linr"  time="0/1" value="0" leadInLength="0/1"  />
               <InterpolatingParam id="5756" interp="linr"  time="0/1" value="0" leadInLength="0/1"  />
               <InterpolatingParam id="5757" interp="linr"  time="0/1" value="0" leadInLength="0/1"  />
               <InterpolatingParam id="5758" interp="linr"  time="0/1" value="0" leadInLength="0/1"  />
              </VectorParam>
              <VectorParam id="5759"  name="geometryCrop">
               <InterpolatingParam id="5760" interp="linr"  time="-9999999/1" value="0" leadInLength="0/1"  />
               <InterpolatingParam id="5761" interp="linr"  time="-9999999/1" value="0" leadInLength="0/1"  />
               <InterpolatingParam id="5762" interp="linr"  time="-9999999/1" value="0" leadInLength="0/1"  />
               <InterpolatingParam id="5763" interp="linr"  time="-9999999/1" value="0" leadInLength="0/1"  />
              </VectorParam>
              <InterpolatingParam id="5764" interp="linr"  time="-9999999/1" value="1" leadInLength="0/1"  name="opacity"/>
             </Parameters>
             <Attributes>
              <Attribute id="5765" value="" name="ident"/>
             </Attributes>
             <ExtraData>
              <Entry key="ZoomPanBin">
               <ZoomPanBin id="5766"  >
                <ZoomPanKeyframes>
                 <ZoomPanKeyframe id="5767" timeRangeEnd="-9999999/1" timeRangeDuration="0/1" interpolaterName=""  />
                </ZoomPanKeyframes>
               </ZoomPanBin>
              </Entry>
             </ExtraData>
            </VMFile>
            <MetaData>
             <entry key="WinSubProjectDisplayName" val=""/>
            </MetaData>
           </UnifiedMedia>
           <UnifiedMedia id="5768"  >
            <AMFile id="5769" start="2364" duration="123" scalar="1/1" mediaStart="4777/1" mediaDuration="123/1" trackNumber="2" src="11" channelNumber="0,1" >
             <Parameters>
              <InterpolatingParam id="5770" interp="linr"  time="0/1" value="1" leadInLength="0/1"  name="volume"/>
              <Parameter id="5771"  name="captions"/>
             </Parameters>
             <Attributes>
              <Attribute id="5772" value="" name="ident"/>
              <Attribute id="5773" value="44100" name="sampleRate"/>
              <Attribute id="5774" value="16" name="bitDepth"/>
              <Attribute id="5775" value="1" name="gain"/>
              <Attribute id="5776" value="0" name="mixToMono"/>
             </Attributes>
            </AMFile>
            <VMFile id="5777" start="2364" duration="123" scalar="1/1" mediaStart="4777/1" mediaDuration="123/1" trackNumber="1" src="11" >
             <Transformer>
              <VectorParam id="5778"  name="translation">
               <InterpolatingParam id="5779" interp="linr"  time="-9999999/1" value="0" leadInLength="0/1"  />
               <InterpolatingParam id="5780" interp="linr"  time="-9999999/1" value="0" leadInLength="0/1"  />
               <InterpolatingParam id="5781" interp="linr"  time="-9999999/1" value="0" leadInLength="0/1"  />
              </VectorParam>
              <VectorParam id="5782"  name="rotation">
               <InterpolatingParam id="5783" interp="linr"  time="-9999999/1" value="0" leadInLength="0/1"  />
               <InterpolatingParam id="5784" interp="linr"  time="-9999999/1" value="0" leadInLength="0/1"  />
               <InterpolatingParam id="5785" interp="linr"  time="-9999999/1" value="0" leadInLength="0/1"  />
              </VectorParam>
              <VectorParam id="5786"  name="shear">
               <InterpolatingParam id="5787" interp="linr"  time="-9999999/1" value="0" leadInLength="0/1"  />
               <InterpolatingParam id="5788" interp="linr"  time="-9999999/1" value="0" leadInLength="0/1"  />
               <InterpolatingParam id="5789" interp="linr"  time="-9999999/1" value="0" leadInLength="0/1"  />
              </VectorParam>
              <VectorParam id="5790"  name="scale">
               <InterpolatingParam id="5791" interp="linr"  time="-9999999/1" value="1" leadInLength="0/1"  />
               <InterpolatingParam id="5792" interp="linr"  time="-9999999/1" value="1" leadInLength="0/1"  />
               <InterpolatingParam id="5793" interp="linr"  time="-9999999/1" value="1" leadInLength="0/1"  />
              </VectorParam>
              <VectorParam id="5794"  name="anchor">
               <InterpolatingParam id="5795" interp="linr"  time="0/1" value="0" leadInLength="0/1"  />
               <InterpolatingParam id="5796" interp="linr"  time="0/1" value="0" leadInLength="0/1"  />
               <InterpolatingParam id="5797" interp="linr"  time="0/1" value="0" leadInLength="0/1"  />
              </VectorParam>
             </Transformer>
             <Parameters>
              <VectorParam id="5798"  name="sourceCrop">
               <InterpolatingParam id="5799" interp="linr"  time="0/1" value="0" leadInLength="0/1"  />
               <InterpolatingParam id="5800" interp="linr"  time="0/1" value="0" leadInLength="0/1"  />
               <InterpolatingParam id="5801" interp="linr"  time="0/1" value="0" leadInLength="0/1"  />
               <InterpolatingParam id="5802" interp="linr"  time="0/1" value="0" leadInLength="0/1"  />
              </VectorParam>
              <VectorParam id="5803"  name="geometryCrop">
               <InterpolatingParam id="5804" interp="linr"  time="-9999999/1" value="0" leadInLength="0/1"  />
               <InterpolatingParam id="5805" interp="linr"  time="-9999999/1" value="0" leadInLength="0/1"  />
               <InterpolatingParam id="5806" interp="linr"  time="-9999999/1" value="0" leadInLength="0/1"  />
               <InterpolatingParam id="5807" interp="linr"  time="-9999999/1" value="0" leadInLength="0/1"  />
              </VectorParam>
              <InterpolatingParam id="5808" interp="linr"  time="-9999999/1" value="1" leadInLength="0/1"  name="opacity"/>
             </Parameters>
             <Attributes>
              <Attribute id="5809" value="" name="ident"/>
             </Attributes>
             <ExtraData>
              <Entry key="ZoomPanBin">
               <ZoomPanBin id="5810"  >
                <ZoomPanKeyframes>
                 <ZoomPanKeyframe id="5811" timeRangeEnd="-9999999/1" timeRangeDuration="0/1" interpolaterName=""  />
                </ZoomPanKeyframes>
               </ZoomPanBin>
              </Entry>
             </ExtraData>
            </VMFile>
            <MetaData>
             <entry key="WinSubProjectDisplayName" val=""/>
            </MetaData>
           </UnifiedMedia>
           <UnifiedMedia id="5812"  >
            <AMFile id="5813" start="2487" duration="151" scalar="1/1" mediaStart="4909/1" mediaDuration="151/1" trackNumber="2" src="11" channelNumber="0,1" >
             <Parameters>
              <InterpolatingParam id="5814" interp="linr"  time="0/1" value="1" leadInLength="0/1"  name="volume"/>
              <Parameter id="5815"  name="captions"/>
             </Parameters>
             <Attributes>
              <Attribute id="5816" value="" name="ident"/>
              <Attribute id="5817" value="44100" name="sampleRate"/>
              <Attribute id="5818" value="16" name="bitDepth"/>
              <Attribute id="5819" value="1" name="gain"/>
              <Attribute id="5820" value="0" name="mixToMono"/>
             </Attributes>
            </AMFile>
            <VMFile id="5821" start="2487" duration="151" scalar="1/1" mediaStart="4909/1" mediaDuration="151/1" trackNumber="1" src="11" >
             <Transformer>
              <VectorParam id="5822"  name="translation">
               <InterpolatingParam id="5823" interp="linr"  time="-9999999/1" value="0" leadInLength="0/1"  />
               <InterpolatingParam id="5824" interp="linr"  time="-9999999/1" value="0" leadInLength="0/1"  />
               <InterpolatingParam id="5825" interp="linr"  time="-9999999/1" value="0" leadInLength="0/1"  />
              </VectorParam>
              <VectorParam id="5826"  name="rotation">
               <InterpolatingParam id="5827" interp="linr"  time="-9999999/1" value="0" leadInLength="0/1"  />
               <InterpolatingParam id="5828" interp="linr"  time="-9999999/1" value="0" leadInLength="0/1"  />
               <InterpolatingParam id="5829" interp="linr"  time="-9999999/1" value="0" leadInLength="0/1"  />
              </VectorParam>
              <VectorParam id="5830"  name="shear">
               <InterpolatingParam id="5831" interp="linr"  time="-9999999/1" value="0" leadInLength="0/1"  />
               <InterpolatingParam id="5832" interp="linr"  time="-9999999/1" value="0" leadInLength="0/1"  />
               <InterpolatingParam id="5833" interp="linr"  time="-9999999/1" value="0" leadInLength="0/1"  />
              </VectorParam>
              <VectorParam id="5834"  name="scale">
               <InterpolatingParam id="5835" interp="linr"  time="-9999999/1" value="1" leadInLength="0/1"  />
               <InterpolatingParam id="5836" interp="linr"  time="-9999999/1" value="1" leadInLength="0/1"  />
               <InterpolatingParam id="5837" interp="linr"  time="-9999999/1" value="1" leadInLength="0/1"  />
              </VectorParam>
              <VectorParam id="5838"  name="anchor">
               <InterpolatingParam id="5839" interp="linr"  time="0/1" value="0" leadInLength="0/1"  />
               <InterpolatingParam id="5840" interp="linr"  time="0/1" value="0" leadInLength="0/1"  />
               <InterpolatingParam id="5841" interp="linr"  time="0/1" value="0" leadInLength="0/1"  />
              </VectorParam>
             </Transformer>
             <Parameters>
              <VectorParam id="5842"  name="sourceCrop">
               <InterpolatingParam id="5843" interp="linr"  time="0/1" value="0" leadInLength="0/1"  />
               <InterpolatingParam id="5844" interp="linr"  time="0/1" value="0" leadInLength="0/1"  />
               <InterpolatingParam id="5845" interp="linr"  time="0/1" value="0" leadInLength="0/1"  />
               <InterpolatingParam id="5846" interp="linr"  time="0/1" value="0" leadInLength="0/1"  />
              </VectorParam>
              <VectorParam id="5847"  name="geometryCrop">
               <InterpolatingParam id="5848" interp="linr"  time="-9999999/1" value="0" leadInLength="0/1"  />
               <InterpolatingParam id="5849" interp="linr"  time="-9999999/1" value="0" leadInLength="0/1"  />
               <InterpolatingParam id="5850" interp="linr"  time="-9999999/1" value="0" leadInLength="0/1"  />
               <InterpolatingParam id="5851" interp="linr"  time="-9999999/1" value="0" leadInLength="0/1"  />
              </VectorParam>
              <InterpolatingParam id="5852" interp="linr"  time="-9999999/1" value="1" leadInLength="0/1"  name="opacity"/>
             </Parameters>
             <Attributes>
              <Attribute id="5853" value="" name="ident"/>
             </Attributes>
             <ExtraData>
              <Entry key="ZoomPanBin">
               <ZoomPanBin id="5854"  >
                <ZoomPanKeyframes>
                 <ZoomPanKeyframe id="5855" timeRangeEnd="-9999999/1" timeRangeDuration="0/1" interpolaterName=""  />
                </ZoomPanKeyframes>
               </ZoomPanBin>
              </Entry>
             </ExtraData>
            </VMFile>
            <MetaData>
             <entry key="WinSubProjectDisplayName" val=""/>
            </MetaData>
           </UnifiedMedia>
           <UnifiedMedia id="5856"  >
            <AMFile id="5857" start="2638" duration="241" scalar="1/1" mediaStart="5075/1" mediaDuration="241/1" trackNumber="2" src="11" channelNumber="0,1" >
             <Parameters>
              <InterpolatingParam id="5858" interp="linr"  time="0/1" value="1" leadInLength="0/1"  name="volume"/>
              <Parameter id="5859"  name="captions"/>
             </Parameters>
             <Attributes>
              <Attribute id="5860" value="" name="ident"/>
              <Attribute id="5861" value="44100" name="sampleRate"/>
              <Attribute id="5862" value="16" name="bitDepth"/>
              <Attribute id="5863" value="1" name="gain"/>
              <Attribute id="5864" value="0" name="mixToMono"/>
             </Attributes>
            </AMFile>
            <VMFile id="5865" start="2638" duration="241" scalar="1/1" mediaStart="5075/1" mediaDuration="241/1" trackNumber="1" src="11" >
             <Transformer>
              <VectorParam id="5866"  name="translation">
               <InterpolatingParam id="5867" interp="linr"  time="-9999999/1" value="0" leadInLength="0/1"  />
               <InterpolatingParam id="5868" interp="linr"  time="-9999999/1" value="0" leadInLength="0/1"  />
               <InterpolatingParam id="5869" interp="linr"  time="-9999999/1" value="0" leadInLength="0/1"  />
              </VectorParam>
              <VectorParam id="5870"  name="rotation">
               <InterpolatingParam id="5871" interp="linr"  time="-9999999/1" value="0" leadInLength="0/1"  />
               <InterpolatingParam id="5872" interp="linr"  time="-9999999/1" value="0" leadInLength="0/1"  />
               <InterpolatingParam id="5873" interp="linr"  time="-9999999/1" value="0" leadInLength="0/1"  />
              </VectorParam>
              <VectorParam id="5874"  name="shear">
               <InterpolatingParam id="5875" interp="linr"  time="-9999999/1" value="0" leadInLength="0/1"  />
               <InterpolatingParam id="5876" interp="linr"  time="-9999999/1" value="0" leadInLength="0/1"  />
               <InterpolatingParam id="5877" interp="linr"  time="-9999999/1" value="0" leadInLength="0/1"  />
              </VectorParam>
              <VectorParam id="5878"  name="scale">
               <InterpolatingParam id="5879" interp="linr"  time="-9999999/1" value="1" leadInLength="0/1"  />
               <InterpolatingParam id="5880" interp="linr"  time="-9999999/1" value="1" leadInLength="0/1"  />
               <InterpolatingParam id="5881" interp="linr"  time="-9999999/1" value="1" leadInLength="0/1"  />
              </VectorParam>
              <VectorParam id="5882"  name="anchor">
               <InterpolatingParam id="5883" interp="linr"  time="0/1" value="0" leadInLength="0/1"  />
               <InterpolatingParam id="5884" interp="linr"  time="0/1" value="0" leadInLength="0/1"  />
               <InterpolatingParam id="5885" interp="linr"  time="0/1" value="0" leadInLength="0/1"  />
              </VectorParam>
             </Transformer>
             <Parameters>
              <VectorParam id="5886"  name="sourceCrop">
               <InterpolatingParam id="5887" interp="linr"  time="0/1" value="0" leadInLength="0/1"  />
               <InterpolatingParam id="5888" interp="linr"  time="0/1" value="0" leadInLength="0/1"  />
               <InterpolatingParam id="5889" interp="linr"  time="0/1" value="0" leadInLength="0/1"  />
               <InterpolatingParam id="5890" interp="linr"  time="0/1" value="0" leadInLength="0/1"  />
              </VectorParam>
              <VectorParam id="5891"  name="geometryCrop">
               <InterpolatingParam id="5892" interp="linr"  time="-9999999/1" value="0" leadInLength="0/1"  />
               <InterpolatingParam id="5893" interp="linr"  time="-9999999/1" value="0" leadInLength="0/1"  />
               <InterpolatingParam id="5894" interp="linr"  time="-9999999/1" value="0" leadInLength="0/1"  />
               <InterpolatingParam id="5895" interp="linr"  time="-9999999/1" value="0" leadInLength="0/1"  />
              </VectorParam>
              <InterpolatingParam id="5896" interp="linr"  time="-9999999/1" value="1" leadInLength="0/1"  name="opacity"/>
             </Parameters>
             <Attributes>
              <Attribute id="5897" value="" name="ident"/>
             </Attributes>
             <ExtraData>
              <Entry key="ZoomPanBin">
               <ZoomPanBin id="5898"  >
                <ZoomPanKeyframes>
                 <ZoomPanKeyframe id="5899" timeRangeEnd="-9999999/1" timeRangeDuration="0/1" interpolaterName=""  />
                </ZoomPanKeyframes>
               </ZoomPanBin>
              </Entry>
             </ExtraData>
            </VMFile>
            <MetaData>
             <entry key="WinSubProjectDisplayName" val=""/>
            </MetaData>
           </UnifiedMedia>
           <UnifiedMedia id="5900"  >
            <AMFile id="5901" start="2879" duration="172" scalar="1/1" mediaStart="7600/1" mediaDuration="172/1" trackNumber="2" src="11" channelNumber="0,1" >
             <Parameters>
              <InterpolatingParam id="5902" interp="linr"  time="0/1" value="1" leadInLength="0/1"  name="volume"/>
              <Parameter id="5903"  name="captions"/>
             </Parameters>
             <Attributes>
              <Attribute id="5904" value="" name="ident"/>
              <Attribute id="5905" value="44100" name="sampleRate"/>
              <Attribute id="5906" value="16" name="bitDepth"/>
              <Attribute id="5907" value="1" name="gain"/>
              <Attribute id="5908" value="0" name="mixToMono"/>
             </Attributes>
            </AMFile>
            <VMFile id="5909" start="2879" duration="172" scalar="1/1" mediaStart="7600/1" mediaDuration="172/1" trackNumber="1" src="11" >
             <Transformer>
              <VectorParam id="5910"  name="translation">
               <InterpolatingParam id="5911" interp="linr"  time="-9999999/1" value="0" leadInLength="0/1"  />
               <InterpolatingParam id="5912" interp="linr"  time="-9999999/1" value="0" leadInLength="0/1"  />
               <InterpolatingParam id="5913" interp="linr"  time="-9999999/1" value="0" leadInLength="0/1"  />
              </VectorParam>
              <VectorParam id="5914"  name="rotation">
               <InterpolatingParam id="5915" interp="linr"  time="-9999999/1" value="0" leadInLength="0/1"  />
               <InterpolatingParam id="5916" interp="linr"  time="-9999999/1" value="0" leadInLength="0/1"  />
               <InterpolatingParam id="5917" interp="linr"  time="-9999999/1" value="0" leadInLength="0/1"  />
              </VectorParam>
              <VectorParam id="5918"  name="shear">
               <InterpolatingParam id="5919" interp="linr"  time="-9999999/1" value="0" leadInLength="0/1"  />
               <InterpolatingParam id="5920" interp="linr"  time="-9999999/1" value="0" leadInLength="0/1"  />
               <InterpolatingParam id="5921" interp="linr"  time="-9999999/1" value="0" leadInLength="0/1"  />
              </VectorParam>
              <VectorParam id="5922"  name="scale">
               <InterpolatingParam id="5923" interp="linr"  time="-9999999/1" value="1" leadInLength="0/1"  />
               <InterpolatingParam id="5924" interp="linr"  time="-9999999/1" value="1" leadInLength="0/1"  />
               <InterpolatingParam id="5925" interp="linr"  time="-9999999/1" value="1" leadInLength="0/1"  />
              </VectorParam>
              <VectorParam id="5926"  name="anchor">
               <InterpolatingParam id="5927" interp="linr"  time="0/1" value="0" leadInLength="0/1"  />
               <InterpolatingParam id="5928" interp="linr"  time="0/1" value="0" leadInLength="0/1"  />
               <InterpolatingParam id="5929" interp="linr"  time="0/1" value="0" leadInLength="0/1"  />
              </VectorParam>
             </Transformer>
             <Parameters>
              <VectorParam id="5930"  name="sourceCrop">
               <InterpolatingParam id="5931" interp="linr"  time="0/1" value="0" leadInLength="0/1"  />
               <InterpolatingParam id="5932" interp="linr"  time="0/1" value="0" leadInLength="0/1"  />
               <InterpolatingParam id="5933" interp="linr"  time="0/1" value="0" leadInLength="0/1"  />
               <InterpolatingParam id="5934" interp="linr"  time="0/1" value="0" leadInLength="0/1"  />
              </VectorParam>
              <VectorParam id="5935"  name="geometryCrop">
               <InterpolatingParam id="5936" interp="linr"  time="-9999999/1" value="0" leadInLength="0/1"  />
               <InterpolatingParam id="5937" interp="linr"  time="-9999999/1" value="0" leadInLength="0/1"  />
               <InterpolatingParam id="5938" interp="linr"  time="-9999999/1" value="0" leadInLength="0/1"  />
               <InterpolatingParam id="5939" interp="linr"  time="-9999999/1" value="0" leadInLength="0/1"  />
              </VectorParam>
              <InterpolatingParam id="5940" interp="linr"  time="-9999999/1" value="1" leadInLength="0/1"  name="opacity"/>
             </Parameters>
             <Attributes>
              <Attribute id="5941" value="" name="ident"/>
             </Attributes>
             <ExtraData>
              <Entry key="ZoomPanBin">
               <ZoomPanBin id="5942"  >
                <ZoomPanKeyframes>
                 <ZoomPanKeyframe id="5943" timeRangeEnd="-9999999/1" timeRangeDuration="0/1" interpolaterName=""  />
                </ZoomPanKeyframes>
               </ZoomPanBin>
              </Entry>
             </ExtraData>
            </VMFile>
            <MetaData>
             <entry key="WinSubProjectDisplayName" val=""/>
            </MetaData>
           </UnifiedMedia>
           <UnifiedMedia id="5944"  >
            <AMFile id="5945" start="3051" duration="327" scalar="1/1" mediaStart="7882/1" mediaDuration="327/1" trackNumber="2" src="11" channelNumber="0,1" >
             <Parameters>
              <InterpolatingParam id="5946" interp="linr"  time="0/1" value="1" leadInLength="0/1"  name="volume"/>
              <Parameter id="5947"  name="captions"/>
             </Parameters>
             <Attributes>
              <Attribute id="5948" value="" name="ident"/>
              <Attribute id="5949" value="44100" name="sampleRate"/>
              <Attribute id="5950" value="16" name="bitDepth"/>
              <Attribute id="5951" value="1" name="gain"/>
              <Attribute id="5952" value="0" name="mixToMono"/>
             </Attributes>
            </AMFile>
            <VMFile id="5953" start="3051" duration="327" scalar="1/1" mediaStart="7882/1" mediaDuration="327/1" trackNumber="1" src="11" >
             <Transformer>
              <VectorParam id="5954"  name="translation">
               <InterpolatingParam id="5955" interp="linr"  time="-9999999/1" value="0" leadInLength="0/1"  />
               <InterpolatingParam id="5956" interp="linr"  time="-9999999/1" value="0" leadInLength="0/1"  />
               <InterpolatingParam id="5957" interp="linr"  time="-9999999/1" value="0" leadInLength="0/1"  />
              </VectorParam>
              <VectorParam id="5958"  name="rotation">
               <InterpolatingParam id="5959" interp="linr"  time="-9999999/1" value="0" leadInLength="0/1"  />
               <InterpolatingParam id="5960" interp="linr"  time="-9999999/1" value="0" leadInLength="0/1"  />
               <InterpolatingParam id="5961" interp="linr"  time="-9999999/1" value="0" leadInLength="0/1"  />
              </VectorParam>
              <VectorParam id="5962"  name="shear">
               <InterpolatingParam id="5963" interp="linr"  time="-9999999/1" value="0" leadInLength="0/1"  />
               <InterpolatingParam id="5964" interp="linr"  time="-9999999/1" value="0" leadInLength="0/1"  />
               <InterpolatingParam id="5965" interp="linr"  time="-9999999/1" value="0" leadInLength="0/1"  />
              </VectorParam>
              <VectorParam id="5966"  name="scale">
               <InterpolatingParam id="5967" interp="linr"  time="-9999999/1" value="1" leadInLength="0/1"  />
               <InterpolatingParam id="5968" interp="linr"  time="-9999999/1" value="1" leadInLength="0/1"  />
               <InterpolatingParam id="5969" interp="linr"  time="-9999999/1" value="1" leadInLength="0/1"  />
              </VectorParam>
              <VectorParam id="5970"  name="anchor">
               <InterpolatingParam id="5971" interp="linr"  time="0/1" value="0" leadInLength="0/1"  />
               <InterpolatingParam id="5972" interp="linr"  time="0/1" value="0" leadInLength="0/1"  />
               <InterpolatingParam id="5973" interp="linr"  time="0/1" value="0" leadInLength="0/1"  />
              </VectorParam>
             </Transformer>
             <Parameters>
              <VectorParam id="5974"  name="sourceCrop">
               <InterpolatingParam id="5975" interp="linr"  time="0/1" value="0" leadInLength="0/1"  />
               <InterpolatingParam id="5976" interp="linr"  time="0/1" value="0" leadInLength="0/1"  />
               <InterpolatingParam id="5977" interp="linr"  time="0/1" value="0" leadInLength="0/1"  />
               <InterpolatingParam id="5978" interp="linr"  time="0/1" value="0" leadInLength="0/1"  />
              </VectorParam>
              <VectorParam id="5979"  name="geometryCrop">
               <InterpolatingParam id="5980" interp="linr"  time="-9999999/1" value="0" leadInLength="0/1"  />
               <InterpolatingParam id="5981" interp="linr"  time="-9999999/1" value="0" leadInLength="0/1"  />
               <InterpolatingParam id="5982" interp="linr"  time="-9999999/1" value="0" leadInLength="0/1"  />
               <InterpolatingParam id="5983" interp="linr"  time="-9999999/1" value="0" leadInLength="0/1"  />
              </VectorParam>
              <InterpolatingParam id="5984" interp="linr"  time="-9999999/1" value="1" leadInLength="0/1"  name="opacity"/>
             </Parameters>
             <Attributes>
              <Attribute id="5985" value="" name="ident"/>
             </Attributes>
             <ExtraData>
              <Entry key="ZoomPanBin">
               <ZoomPanBin id="5986"  >
                <ZoomPanKeyframes>
                 <ZoomPanKeyframe id="5987" timeRangeEnd="-9999999/1" timeRangeDuration="0/1" interpolaterName=""  />
                </ZoomPanKeyframes>
               </ZoomPanBin>
              </Entry>
             </ExtraData>
            </VMFile>
            <MetaData>
             <entry key="WinSubProjectDisplayName" val=""/>
            </MetaData>
           </UnifiedMedia>
          </Medias>
         </GenericTrack>
        </StitchedMedia>
        <StitchedMedia id="5988" start="5918" duration="505" scalar="1/1" mediaStart="1183/1" mediaDuration="505/1" minMediaStart="0/1" >
         <Transformer>
          <VectorParam id="5989"  name="translation">
           <InterpolatingParam id="5990" interp="linr"  time="-9999999/1" value="519.37321858917392" leadInLength="0/1"  />
           <InterpolatingParam id="5991" interp="linr"  time="-9999999/1" value="-289.06906257708999" leadInLength="0/1"  />
           <InterpolatingParam id="5992" interp="linr"  time="-9999999/1" value="1.7053025658241443e-009" leadInLength="0/1"  />
          </VectorParam>
          <VectorParam id="5993"  name="rotation">
           <InterpolatingParam id="5994" interp="linr"  time="-9999999/1" value="0" leadInLength="0/1"  />
           <InterpolatingParam id="5995" interp="linr"  time="-9999999/1" value="0" leadInLength="0/1"  />
           <InterpolatingParam id="5996" interp="linr"  time="-9999999/1" value="0" leadInLength="0/1"  />
          </VectorParam>
          <VectorParam id="5997"  name="shear">
           <InterpolatingParam id="5998" interp="linr"  time="-9999999/1" value="0" leadInLength="0/1"  />
           <InterpolatingParam id="5999" interp="linr"  time="-9999999/1" value="0" leadInLength="0/1"  />
           <InterpolatingParam id="6000" interp="linr"  time="-9999999/1" value="0" leadInLength="0/1"  />
          </VectorParam>
          <VectorParam id="6001"  name="scale">
           <InterpolatingParam id="6002" interp="linr"  time="-9999999/1" value="0.57070869190680751" leadInLength="0/1"  />
           <InterpolatingParam id="6003" interp="linr"  time="-9999999/1" value="0.57070869190680695" leadInLength="0/1"  />
           <InterpolatingParam id="6004" interp="linr"  time="-9999999/1" value="1" leadInLength="0/1"  />
          </VectorParam>
          <VectorParam id="6005"  name="anchor">
           <InterpolatingParam id="6006" interp="linr"  time="0/1" value="0" leadInLength="0/1"  />
           <InterpolatingParam id="6007" interp="linr"  time="0/1" value="0" leadInLength="0/1"  />
           <InterpolatingParam id="6008" interp="linr"  time="0/1" value="0" leadInLength="0/1"  />
          </VectorParam>
         </Transformer>
         <Parameters>
          <VectorParam id="6009"  name="sourceCrop">
           <InterpolatingParam id="6010" interp="linr"  time="0/1" value="0" leadInLength="0/1"  />
           <InterpolatingParam id="6011" interp="linr"  time="0/1" value="0" leadInLength="0/1"  />
           <InterpolatingParam id="6012" interp="linr"  time="0/1" value="0" leadInLength="0/1"  />
           <InterpolatingParam id="6013" interp="linr"  time="0/1" value="0" leadInLength="0/1"  />
          </VectorParam>
          <VectorParam id="6014"  name="geometryCrop">
           <InterpolatingParam id="6015" interp="linr"  time="-9999999/1" value="139.99509924924902" leadInLength="0/1"  />
           <InterpolatingParam id="6016" interp="linr"  time="-9999999/1" value="0" leadInLength="0/1"  />
           <InterpolatingParam id="6017" interp="linr"  time="-9999999/1" value="0" leadInLength="0/1"  />
           <InterpolatingParam id="6018" interp="linr"  time="-9999999/1" value="115.71428571424484" leadInLength="0/1"  />
          </VectorParam>
          <InterpolatingParam id="6019" interp="linr"  time="-9999999/1" value="1" leadInLength="0/1"  name="opacity"/>
          <InterpolatingParam id="6020" interp="linr"  time="0/1" value="1" leadInLength="0/1"  name="cursorOpacity"/>
          <InterpolatingParam id="6021" interp="linr"  time="0/1" value="1" leadInLength="0/1"  name="cursorScale"/>
          <InterpolatingParam id="6022" interp="linr"  time="0/1" value="1" leadInLength="0/1"  name="volume"/>
          <Parameter id="6023"  name="captions"/>
         </Parameters>
         <Effects>
          <GenericEffect id="6024" name = "NoiseReduction" >
           <Parameters>
           <InterpolatingParam id="6025" interp="linr"  time="0/1" value="27.599999999999998" leadInLength="0/1"   name="denoiserAmount"/>
           <InterpolatingParam id="6026" interp="linr"  time="0/1" value="2.2799999999999994" leadInLength="0/1"   name="denoiserThreshold"/>
           <Parameter id="6027"   name="noiseProfile">
            <Keyframes>
            <Keyframe id="6028"  time="0/1" value="FBAAAAIAAABErAAAAQIAAA91bML8fV7CUM1iwqduaMLEYWjCDw9hwnn4ZMI2V2zC6TFzwmONbcJ+&#xD;&#xa;kWrCcWBuwpxSeMKo84DCncGBwhNXhMKkPYbCnjCBwoGGesIYAoHClbaBwnITgcLoLIHC7FOBwh4i&#xD;&#xa;gsJ74ILCCQGEwp+nh8ImQITCM1iBwrw4hMKA6IbCvz2DwgP2gsJMboPCYXeGwtJohsI2aIXCtqSH&#xD;&#xa;wlLFicLgmobCoMWEwmEniMJzSIbCuJiGwn7mh8JRNYfC2RqFwhqkhMKDfofCykWIwiaTisKBe4jC&#xD;&#xa;sHmHwl2wiMJyhorCVp6LwgD7icLPz4rC2uaLwl+fjsKzYJHCnSWSwuUxkMIzxI3CNpSIwpsjh8K0&#xD;&#xa;dYvCjEeOwv5QjMKvu4rC57WMwj4njsI1cIzCjNaKwsECi8ImN4vCz8qKwkFuj8JZFY/CcBuNwjAT&#xD;&#xa;j8LlD4/CbNuQwrBEkcJmKpHCNg2Pwqcaj8JEH4/CKaKQwtB3j8LcMZDC3pqSwnFwkMJXuI/ChE2T&#xD;&#xa;wna4ksKlOJTCMNSTwlbnlMKDMZXCSD2Swofzj8LTVo/CpUqPwmDJksLTaZLCBGKRwgZAksKKWpLC&#xD;&#xa;wTORwkEoksITzo/CggaPwpqtjsJXQI/C3OaQwuoHkMJneJDCgmqOwhYXkMLgi5PCFTORwuckkMLN&#xD;&#xa;G5LCrJOSwlrSkMJEQJDCdliSwtewk8JuopPCEPqSwlgWlMI5fJLCAsySwpYyksIj+pTCgdqUwiJb&#xD;&#xa;k8J5gJLCvAyUwvnJkcKmvI/Cd6ORwuQvk8J9CJHCeSKRwiCXkMKISpLC9YWUwtwolcJSe5TCZkqU&#xD;&#xa;wkQPksJAoZLC62eVwj+pkcJkOpDCPDCTwm/FkcIHoZDCy7uQwnTIkMLlxpLCaPmTwtc5lcLEBZXC&#xD;&#xa;RhaWwlm7lMJBJ5TCDH2VwgCzlMI+eZPC66aUwsQ7lMK0aZLCij6Twns6lsKj15TCDXOVws47ksKS&#xD;&#xa;cpHCWpGUwpYjlcLCMZXC0zKUwpeyk8KiKJXC8KCUwrkElMKU1ZXCf9eVwrKXlcLwmJXCs5aVwjhr&#xD;&#xa;lMI3GpXCWfaVwp98l8KZBJXCdAeVwrJKlsLtIpXCeAaYwpB2l8KZC5bC0SmWwv0wlsJGy5jCdESb&#xD;&#xa;wkl+mMJH2JfC2ziYwnNnnMKZ3JvCmomawg8Um8L5AZ3CsPaews9hncIJypzCZKydwicYn8KEvZ7C&#xD;&#xa;oHSewnC4nsK6P6LCBCWiwmtunsJ8eaDCmXGhwg+do8JpLqPC32mhwiy3oMLecqLCRM2iwl/IpMIS&#xD;&#xa;JaPC08OgwgigocKPEKLCcM2hwpxbocJDvaDCwYOhwjDqo8KJmafCxiimwqAypcLkqqXCXMalwigM&#xD;&#xa;pMIWGKbCVsSmwiYXpMKPjKTClJemwtAWp8KS36fCuJSpwlZbp8JkBqjC8tmmwhgspMJmtqXC/jWq&#xD;&#xa;wtPlrMKcTq3Cw+2rwqW3rMJ/qavCu6OqwhCbrcK6WqnC3oSmwoUIpsJr7qXCgaWmwioQqMKEC6nC&#xD;&#xa;5KqowmJWpsK9yafC/hupwq4Dp8L8zKjCdg2pwnoIpcJIM6bC+aenwvFupsLok6bCMRuowr2gp8La&#xD;&#xa;y6XCs3SjwloqosLXaaTCMPSlwj53pcLxH6XCN0Okwnh8osI08qTCeQimwh71p8K5XqnCphyowjjb&#xD;&#xa;qMKiPajCN0Gnwi7Up8IhNqbCLtilwq9BpcIkH6XCBnKmwsBcp8Lq46fC1ZepwsBxqMLqdqfCCaSo&#xD;&#xa;wuEAqsJMEanCufqlwl03psKepKnCcMGnwg+Dp8J/6qjCCCmowlZpqcKnCqjC8GKowgrYpsLeDKjC&#xD;&#xa;6G6owqjyp8Jh+KfCVFOqwoB7qMLxLKXCgsmowitIq8K8/arCeiKpwqA1qMKnT6jCw3erwnwfqcLU&#xD;&#xa;xKjCVI2twv5ZrsJIcKvCts+rwhe/rMIEiavCFE6swp2ErMKpW63C5Vavwppyr8JX6q3CXY6twg6s&#xD;&#xa;rcLad63CIL2twqbFrcK59a7CRpGuwlmvrsJzObDCI8WvwsrpsMI0obDCVY2vwsEusMJlv7HCAr6y&#xD;&#xa;wmm+scLosa/CacCwwr5JsMLKbLHCeR+4wpBNt8IEqbTCItyzwumascK+JrLCFAGxwhpyssLof7TC&#xD;&#xa;lSaywpvZtMIUarXCYY60wkxqtMJ+6rTC0Uy2wqwxs8IGsbLCJJi0wnqatcJiUrPCke2vwkKPs8Ic&#xD;&#xa;iLPCJ1i0wrbItsIpIrfCCoK2wnTgt8LUgLnCZza5wjFtuMKl/7PCbOqzwpeutcL5gbfCLwW4wrTS&#xD;&#xa;t8Ix4LnCoAe9wsJ3u8JdubfCsiu2wrqOtsLp/LTCawq3wqrgucJkT7fCl0y2wrfutsJBebXCkn+2&#xD;&#xa;whm6tsL3SLfC7AC2wtjcssLU7bTCN0C5wpb9usJfRbrCrAm8win7u8JbjL/C5uTDwna2w8Ihi8XC&#xD;&#xa;qJrCwgyav8Ly2cPCknfCwmfswcLiRsHCXmG/wrQswMIM+8LCkJrGwhY5xsK1R8XCCojIwlhq0MI9&#xD;&#xa;f93C1Bbdwpc44sIz2uTClE/lwiA15sLSGOXCUszgwvRE3sLKVeHCUDriwsly5cIu9eLCtx3kwlbr&#xD;&#xa;4sLACuHCM1/mwvV258IjNuXCXMfjwhMK58KKaePCeQ7kwvzM48LcsejCJfbvwtYM6cLBiOTCLKni&#xD;&#xa;whZ54sKzm+PCeJDjwr+r4cLshubC7MLwwm8M9cJq4PTCIvT1wrIR98KMFPbC8wfywpLO5sJAdeHC&#xD;&#xa;GNDjwrzR7cI/9/bCKEYCw8N0bMLZfV7Cjc1iwltuaMLtYGjCjQ5hwgP4ZMKsVmzCAjJzwu6MbcIT&#xD;&#xa;kWrCw2BuwmZSeMKw8oDCnsCBwqlWhMIPPobC5DCBwrKGesJvAoHCn7aBwrsTgcLKLIHCcFOBwqUh&#xD;&#xa;gsL334LCxQCEwoSoh8LqP4TC/leBwrs4hMIY6IbCTz2Dwq/0gsIrbYPCAHeGwrhohsJWaIXCvKSH&#xD;&#xa;whbGicL5mobCZsWEwtImiMKpSIbCDJmGwmHmh8I0NIfChRqFwsekhMI3f4fCZEWIwjmTisKqe4jC&#xD;&#xa;dXmHwmqwiMJgh4rC5J6Lwlv6icIJz4rCneaLwrefjsJ3YZHCASaSwhwzkMIMxY3CCpWIwmMkh8LG&#xD;&#xa;dYvC8kaOwttQjMJyvIrC6reMwo0njsLab4zCk9WKwsoCi8JzNovCwsmKwt9uj8JhFo/CDxyNwrMT&#xD;&#xa;j8JjD4/CP9uQwvBFkcL0KpHC5wyPwoQaj8I2H4/CXKGQwkV3j8J0MJDCL5mSwpRwkMJ9uI/CgUyT&#xD;&#xa;whi4ksL9N5TCsNKTwsPnlMJ8M5XCZD6Swrbyj8IhV4/CJUuPwknJksKUapLC22KRwuw/ksILWpLC&#xD;&#xa;UTORwt4oksJzzY/CxQaPwtutjsK/Qo/C4eeQwnIIkMJfeJDC42qOwjoZkMLoi5PCmDSRwlElkMJ1&#xD;&#xa;G5LCHZOSwqLSkMIbQJDCl1eSwpqvk8IKopPCRPqSwqoVlMJee5LCRsySwlIyksLL+ZTCk9mUwoxY&#xD;&#xa;k8KTfpLCfAuUwpTJkcIAvY/C86ORwiIvk8IhCJHCzCKRwp+VkMI4SZLCuoaUwmIqlcJTfJTCHUyU&#xD;&#xa;woIOksKSoJLCrGiVwjKnkcIaOZDChy6TwtjEkcJYoZDCpLqQwnjIkMIwxpLCuPiTwsk5lcLdBJXC&#xD;&#xa;yBKWwrK5lMK4JZTCeHyVwqe0lMLkd5PCT6SUwl47lMKgaZLCyD6TwgY7lsL+1pTC+HKVwsw7ksK8&#xD;&#xa;c5HCcpKUwjwjlcKnM5XCZDOUwiuwk8KkKJXCRKGUwsEElMLS1pXC79iVwmaXlcI4mJXCiJeVwulr&#xD;&#xa;lMIrG5XCxPaVwgl9l8KfA5XCNQiVwp9JlsJBI5XCAAiYwkJ2l8L2CZbCIimWwpwwlsI8y5jCC0Kb&#xD;&#xa;wh59mMJI15fC6TeYwpJnnMLC25vC5IiawnoUm8JFA53C7vmewtlincJ9x5zC6Kmdwl0Xn8LGv57C&#xD;&#xa;hXSewhW4nsI9QaLCgCeiwq5wnsKLeaDC5m6hwlmYo8LQK6PCr2qhwhG2oMKUcKLC8tGiwpDMpMLV&#xD;&#xa;IqPC1MGgwlGgocKdEaLCNMuhwitaocJIvqDCRoWhwkbeo8ItjqfC7iamwrs1pcJYsaXCXselwoEU&#xD;&#xa;pMLGIqbCfr6mwp0XpMKikKTCYKimwiwfp8KA2qfC/Zapwk6Kp8I/Q6jCZu+mwhw0pMIgx6XC8GWq&#xD;&#xa;wu8ZrcIAX63COPWrwl6mrMIPpavCwqWqwjCYrcLRVanC5YGmwv0HpsKl76XCDKmmwpITqMKbD6nC&#xD;&#xa;YqmowiVYpsLTz6fCyx+pwqgCp8IBxqjCnBKpwpUHpcKyLqbCHaWnwo9upsKok6bCGh6owpSgp8LI&#xD;&#xa;zKXCdHWjwtwrosKFb6TCfvGlwnVypcLlG6XCLD+kwrx2osLT7KTCPAWmwhjzp8LVXqnCbReowibe&#xD;&#xa;qMJmQqjCaEenwsbZp8L2N6bCgdSlwshApcIzHKXCnHGmwvpep8Jz46fC45ypwrl0qMLddqfCkqCo&#xD;&#xa;whwCqsJMGKnCnv6lwos5psLjpqnCuMGnwgSAp8LO66jCySyowghsqcIkCajCHF+owknUpsICCajC&#xD;&#xa;Am6owgXrp8I17afCfEmqwqR3qMJEK6XCSseowoE/q8Ll+qrCwyWpwiw6qMJ6UajCgnWrwvUeqcKW&#xD;&#xa;wajCDJKtwvZdrsKqcavCNMyrwm2+rMLci6vCJE6swk2DrMKAV63CNlavwtx5r8Kr763C85KtwqKs&#xD;&#xa;rcKXeq3CDcCtwsLFrcIS9a7C/peuwg6vrsKbPbDCa8evwnHnsMIQnrDCFI2vwqUrsMJivbHCarWy&#xD;&#xa;wqu9scLQsq/COLKwwlQ1sMJmc7HCPCu4wsRZt8JhqrTCkNmzwvyTscIrKLLCFg+xwrV+ssK6frTC&#xD;&#xa;EiSywiDZtMJYaLXCkYi0wqJltMJh5bTC71O2wn82s8Igs7LCfaG0wn+gtcJFTrPCn+mvwmqFs8LC&#xD;&#xa;hbPCbVy0wqfNtsL4JbfCjIq2wmHit8LygrnCuzG5whBsuMLc+rPCheezwlGytcJub7fCS/m3wkXj&#xD;&#xa;t8I49rnCOhS9wvqOu8KMyrfCTSq2woGYtsJSDbXCUgu3wtrVucLJULfCeku2wo/0tsK5g7XCkIC2&#xD;&#xa;wjrCtsLQVbfC9gG2whDfssKx97TCdke5wmQFu8IeTLrCkBe8wogMvMJUlr/C1/PDwujOw8JTkcXC&#xD;&#xa;AprCwk6Iv8LBv8PCnVrCwmTWwcIOJ8HCCEi/wt0rwMK0+sLCopTGwt4exsLwLcXCBmvIwj5R0MLg&#xD;&#xa;CN3CZubcwkNq4sIat+TCHMTkwuz05cLoXuXC/6rgwqo63sLmfuHCWAXiwgSi5MIkPOLCu5zjwmC8&#xD;&#xa;4sK+veDCGm3mwmBU58IFjOTCvI7jwoyN58KM5ePClMXjwlt848KBnujC3ufvwhwR6MJoSuTCp6zi&#xD;&#xa;wnh94sJEbuPCG73jwlNW4cI7rebCkPTwwjJy88KhsPPCApfzwn7j9cJwcffCxJrywky55cLCveDC&#xD;&#xa;rEzjwnK+7MIoKPfC0XoC" leadInLength="0/1"  />
            </Keyframes>
           </Parameter>
           </Parameters>
           <MetaData>
            <entry key="effectIndex" val="0"/>
           </MetaData>
          </GenericEffect>
         </Effects>
         <Attributes>
          <Attribute id="6029" value="" name="ident"/>
          <Attribute id="6030" value="0" name="mixToMono"/>
         </Attributes>
         <MetaData>
          <entry key="WinSubProjectDisplayName" val=""/>
         </MetaData>
         <ExtraData>
          <Entry key="ZoomPanBin">
           <ZoomPanBin id="6031"  >
            <ZoomPanKeyframes>
             <ZoomPanKeyframe id="6032" timeRangeEnd="-9999999/1" timeRangeDuration="0/1" interpolaterName=""  />
            </ZoomPanKeyframes>
           </ZoomPanBin>
          </Entry>
          <Entry key="CursorEffectBin">
           <CursorEffectBin id="6033"  >
            <CursorEffectKeyframes>
            </CursorEffectKeyframes>
           </CursorEffectBin>
          </Entry>
         </ExtraData>
         <GenericTrack id="6034"  >
          <Attributes>
           <Attribute id="6035" value="" name="ident"/>
           <Attribute id="6036" value="0" name="audioMuted"/>
           <Attribute id="6037" value="0" name="videoHidden"/>
          </Attributes>
          <MetaData>
           <entry key="IsLocked" val="False"/>
           <entry key="WinTrackHeight" val="0"/>
          </MetaData>
          <Medias>
           <UnifiedMedia id="6038"  >
            <AMFile id="6039" start="0" duration="1303" scalar="1/1" mediaStart="0/1" mediaDuration="1303/1" trackNumber="2" src="12" channelNumber="0,1" >
             <Parameters>
              <InterpolatingParam id="6040" interp="linr"  time="0/1" value="1" leadInLength="0/1"  name="volume"/>
              <Parameter id="6041"  name="captions"/>
             </Parameters>
             <Attributes>
              <Attribute id="6042" value="" name="ident"/>
              <Attribute id="6043" value="44100" name="sampleRate"/>
              <Attribute id="6044" value="16" name="bitDepth"/>
              <Attribute id="6045" value="1" name="gain"/>
              <Attribute id="6046" value="0" name="mixToMono"/>
             </Attributes>
            </AMFile>
            <VMFile id="6047" start="0" duration="1303" scalar="1/1" mediaStart="0/1" mediaDuration="1303/1" trackNumber="1" src="12" >
             <Transformer>
              <VectorParam id="6048"  name="translation">
               <InterpolatingParam id="6049" interp="linr"  time="-9999999/1" value="0" leadInLength="0/1"  />
               <InterpolatingParam id="6050" interp="linr"  time="-9999999/1" value="0" leadInLength="0/1"  />
               <InterpolatingParam id="6051" interp="linr"  time="-9999999/1" value="0" leadInLength="0/1"  />
              </VectorParam>
              <VectorParam id="6052"  name="rotation">
               <InterpolatingParam id="6053" interp="linr"  time="-9999999/1" value="0" leadInLength="0/1"  />
               <InterpolatingParam id="6054" interp="linr"  time="-9999999/1" value="0" leadInLength="0/1"  />
               <InterpolatingParam id="6055" interp="linr"  time="-9999999/1" value="0" leadInLength="0/1"  />
              </VectorParam>
              <VectorParam id="6056"  name="shear">
               <InterpolatingParam id="6057" interp="linr"  time="-9999999/1" value="0" leadInLength="0/1"  />
               <InterpolatingParam id="6058" interp="linr"  time="-9999999/1" value="0" leadInLength="0/1"  />
               <InterpolatingParam id="6059" interp="linr"  time="-9999999/1" value="0" leadInLength="0/1"  />
              </VectorParam>
              <VectorParam id="6060"  name="scale">
               <InterpolatingParam id="6061" interp="linr"  time="-9999999/1" value="1" leadInLength="0/1"  />
               <InterpolatingParam id="6062" interp="linr"  time="-9999999/1" value="1" leadInLength="0/1"  />
               <InterpolatingParam id="6063" interp="linr"  time="-9999999/1" value="1" leadInLength="0/1"  />
              </VectorParam>
              <VectorParam id="6064"  name="anchor">
               <InterpolatingParam id="6065" interp="linr"  time="0/1" value="0" leadInLength="0/1"  />
               <InterpolatingParam id="6066" interp="linr"  time="0/1" value="0" leadInLength="0/1"  />
               <InterpolatingParam id="6067" interp="linr"  time="0/1" value="0" leadInLength="0/1"  />
              </VectorParam>
             </Transformer>
             <Parameters>
              <VectorParam id="6068"  name="sourceCrop">
               <InterpolatingParam id="6069" interp="linr"  time="0/1" value="0" leadInLength="0/1"  />
               <InterpolatingParam id="6070" interp="linr"  time="0/1" value="0" leadInLength="0/1"  />
               <InterpolatingParam id="6071" interp="linr"  time="0/1" value="0" leadInLength="0/1"  />
               <InterpolatingParam id="6072" interp="linr"  time="0/1" value="0" leadInLength="0/1"  />
              </VectorParam>
              <VectorParam id="6073"  name="geometryCrop">
               <InterpolatingParam id="6074" interp="linr"  time="-9999999/1" value="0" leadInLength="0/1"  />
               <InterpolatingParam id="6075" interp="linr"  time="-9999999/1" value="0" leadInLength="0/1"  />
               <InterpolatingParam id="6076" interp="linr"  time="-9999999/1" value="0" leadInLength="0/1"  />
               <InterpolatingParam id="6077" interp="linr"  time="-9999999/1" value="0" leadInLength="0/1"  />
              </VectorParam>
              <InterpolatingParam id="6078" interp="linr"  time="-9999999/1" value="1" leadInLength="0/1"  name="opacity"/>
             </Parameters>
             <Attributes>
              <Attribute id="6079" value="" name="ident"/>
             </Attributes>
             <ExtraData>
              <Entry key="ZoomPanBin">
               <ZoomPanBin id="6080"  >
                <ZoomPanKeyframes>
                 <ZoomPanKeyframe id="6081" timeRangeEnd="-9999999/1" timeRangeDuration="0/1" interpolaterName=""  />
                </ZoomPanKeyframes>
               </ZoomPanBin>
              </Entry>
             </ExtraData>
            </VMFile>
            <MetaData>
             <entry key="WinSubProjectDisplayName" val=""/>
            </MetaData>
           </UnifiedMedia>
           <UnifiedMedia id="6082"  >
            <AMFile id="6083" start="1303" duration="236" scalar="1/1" mediaStart="1314/1" mediaDuration="236/1" trackNumber="2" src="12" channelNumber="0,1" >
             <Parameters>
              <InterpolatingParam id="6084" interp="linr"  time="0/1" value="1" leadInLength="0/1"  name="volume"/>
              <Parameter id="6085"  name="captions"/>
             </Parameters>
             <Attributes>
              <Attribute id="6086" value="" name="ident"/>
              <Attribute id="6087" value="44100" name="sampleRate"/>
              <Attribute id="6088" value="16" name="bitDepth"/>
              <Attribute id="6089" value="1" name="gain"/>
              <Attribute id="6090" value="0" name="mixToMono"/>
             </Attributes>
            </AMFile>
            <VMFile id="6091" start="1303" duration="236" scalar="1/1" mediaStart="1314/1" mediaDuration="236/1" trackNumber="1" src="12" >
             <Transformer>
              <VectorParam id="6092"  name="translation">
               <InterpolatingParam id="6093" interp="linr"  time="-9999999/1" value="0" leadInLength="0/1"  />
               <InterpolatingParam id="6094" interp="linr"  time="-9999999/1" value="0" leadInLength="0/1"  />
               <InterpolatingParam id="6095" interp="linr"  time="-9999999/1" value="0" leadInLength="0/1"  />
              </VectorParam>
              <VectorParam id="6096"  name="rotation">
               <InterpolatingParam id="6097" interp="linr"  time="-9999999/1" value="0" leadInLength="0/1"  />
               <InterpolatingParam id="6098" interp="linr"  time="-9999999/1" value="0" leadInLength="0/1"  />
               <InterpolatingParam id="6099" interp="linr"  time="-9999999/1" value="0" leadInLength="0/1"  />
              </VectorParam>
              <VectorParam id="6100"  name="shear">
               <InterpolatingParam id="6101" interp="linr"  time="-9999999/1" value="0" leadInLength="0/1"  />
               <InterpolatingParam id="6102" interp="linr"  time="-9999999/1" value="0" leadInLength="0/1"  />
               <InterpolatingParam id="6103" interp="linr"  time="-9999999/1" value="0" leadInLength="0/1"  />
              </VectorParam>
              <VectorParam id="6104"  name="scale">
               <InterpolatingParam id="6105" interp="linr"  time="-9999999/1" value="1" leadInLength="0/1"  />
               <InterpolatingParam id="6106" interp="linr"  time="-9999999/1" value="1" leadInLength="0/1"  />
               <InterpolatingParam id="6107" interp="linr"  time="-9999999/1" value="1" leadInLength="0/1"  />
              </VectorParam>
              <VectorParam id="6108"  name="anchor">
               <InterpolatingParam id="6109" interp="linr"  time="0/1" value="0" leadInLength="0/1"  />
               <InterpolatingParam id="6110" interp="linr"  time="0/1" value="0" leadInLength="0/1"  />
               <InterpolatingParam id="6111" interp="linr"  time="0/1" value="0" leadInLength="0/1"  />
              </VectorParam>
             </Transformer>
             <Parameters>
              <VectorParam id="6112"  name="sourceCrop">
               <InterpolatingParam id="6113" interp="linr"  time="0/1" value="0" leadInLength="0/1"  />
               <InterpolatingParam id="6114" interp="linr"  time="0/1" value="0" leadInLength="0/1"  />
               <InterpolatingParam id="6115" interp="linr"  time="0/1" value="0" leadInLength="0/1"  />
               <InterpolatingParam id="6116" interp="linr"  time="0/1" value="0" leadInLength="0/1"  />
              </VectorParam>
              <VectorParam id="6117"  name="geometryCrop">
               <InterpolatingParam id="6118" interp="linr"  time="-9999999/1" value="0" leadInLength="0/1"  />
               <InterpolatingParam id="6119" interp="linr"  time="-9999999/1" value="0" leadInLength="0/1"  />
               <InterpolatingParam id="6120" interp="linr"  time="-9999999/1" value="0" leadInLength="0/1"  />
               <InterpolatingParam id="6121" interp="linr"  time="-9999999/1" value="0" leadInLength="0/1"  />
              </VectorParam>
              <InterpolatingParam id="6122" interp="linr"  time="-9999999/1" value="1" leadInLength="0/1"  name="opacity"/>
             </Parameters>
             <Attributes>
              <Attribute id="6123" value="" name="ident"/>
             </Attributes>
             <ExtraData>
              <Entry key="ZoomPanBin">
               <ZoomPanBin id="6124"  >
                <ZoomPanKeyframes>
                 <ZoomPanKeyframe id="6125" timeRangeEnd="-9999999/1" timeRangeDuration="0/1" interpolaterName=""  />
                </ZoomPanKeyframes>
               </ZoomPanBin>
              </Entry>
             </ExtraData>
            </VMFile>
            <MetaData>
             <entry key="WinSubProjectDisplayName" val=""/>
            </MetaData>
           </UnifiedMedia>
           <UnifiedMedia id="6126"  >
            <AMFile id="6127" start="1539" duration="71" scalar="1/1" mediaStart="1754/1" mediaDuration="71/1" trackNumber="2" src="12" channelNumber="0,1" >
             <Parameters>
              <InterpolatingParam id="6128" interp="linr"  time="0/1" value="1" leadInLength="0/1"  name="volume"/>
              <Parameter id="6129"  name="captions"/>
             </Parameters>
             <Attributes>
              <Attribute id="6130" value="" name="ident"/>
              <Attribute id="6131" value="44100" name="sampleRate"/>
              <Attribute id="6132" value="16" name="bitDepth"/>
              <Attribute id="6133" value="1" name="gain"/>
              <Attribute id="6134" value="0" name="mixToMono"/>
             </Attributes>
            </AMFile>
            <VMFile id="6135" start="1539" duration="71" scalar="1/1" mediaStart="1754/1" mediaDuration="71/1" trackNumber="1" src="12" >
             <Transformer>
              <VectorParam id="6136"  name="translation">
               <InterpolatingParam id="6137" interp="linr"  time="-9999999/1" value="0" leadInLength="0/1"  />
               <InterpolatingParam id="6138" interp="linr"  time="-9999999/1" value="0" leadInLength="0/1"  />
               <InterpolatingParam id="6139" interp="linr"  time="-9999999/1" value="0" leadInLength="0/1"  />
              </VectorParam>
              <VectorParam id="6140"  name="rotation">
               <InterpolatingParam id="6141" interp="linr"  time="-9999999/1" value="0" leadInLength="0/1"  />
               <InterpolatingParam id="6142" interp="linr"  time="-9999999/1" value="0" leadInLength="0/1"  />
               <InterpolatingParam id="6143" interp="linr"  time="-9999999/1" value="0" leadInLength="0/1"  />
              </VectorParam>
              <VectorParam id="6144"  name="shear">
               <InterpolatingParam id="6145" interp="linr"  time="-9999999/1" value="0" leadInLength="0/1"  />
               <InterpolatingParam id="6146" interp="linr"  time="-9999999/1" value="0" leadInLength="0/1"  />
               <InterpolatingParam id="6147" interp="linr"  time="-9999999/1" value="0" leadInLength="0/1"  />
              </VectorParam>
              <VectorParam id="6148"  name="scale">
               <InterpolatingParam id="6149" interp="linr"  time="-9999999/1" value="1" leadInLength="0/1"  />
               <InterpolatingParam id="6150" interp="linr"  time="-9999999/1" value="1" leadInLength="0/1"  />
               <InterpolatingParam id="6151" interp="linr"  time="-9999999/1" value="1" leadInLength="0/1"  />
              </VectorParam>
              <VectorParam id="6152"  name="anchor">
               <InterpolatingParam id="6153" interp="linr"  time="0/1" value="0" leadInLength="0/1"  />
               <InterpolatingParam id="6154" interp="linr"  time="0/1" value="0" leadInLength="0/1"  />
               <InterpolatingParam id="6155" interp="linr"  time="0/1" value="0" leadInLength="0/1"  />
              </VectorParam>
             </Transformer>
             <Parameters>
              <VectorParam id="6156"  name="sourceCrop">
               <InterpolatingParam id="6157" interp="linr"  time="0/1" value="0" leadInLength="0/1"  />
               <InterpolatingParam id="6158" interp="linr"  time="0/1" value="0" leadInLength="0/1"  />
               <InterpolatingParam id="6159" interp="linr"  time="0/1" value="0" leadInLength="0/1"  />
               <InterpolatingParam id="6160" interp="linr"  time="0/1" value="0" leadInLength="0/1"  />
              </VectorParam>
              <VectorParam id="6161"  name="geometryCrop">
               <InterpolatingParam id="6162" interp="linr"  time="-9999999/1" value="0" leadInLength="0/1"  />
               <InterpolatingParam id="6163" interp="linr"  time="-9999999/1" value="0" leadInLength="0/1"  />
               <InterpolatingParam id="6164" interp="linr"  time="-9999999/1" value="0" leadInLength="0/1"  />
               <InterpolatingParam id="6165" interp="linr"  time="-9999999/1" value="0" leadInLength="0/1"  />
              </VectorParam>
              <InterpolatingParam id="6166" interp="linr"  time="-9999999/1" value="1" leadInLength="0/1"  name="opacity"/>
             </Parameters>
             <Attributes>
              <Attribute id="6167" value="" name="ident"/>
             </Attributes>
             <ExtraData>
              <Entry key="ZoomPanBin">
               <ZoomPanBin id="6168"  >
                <ZoomPanKeyframes>
                 <ZoomPanKeyframe id="6169" timeRangeEnd="-9999999/1" timeRangeDuration="0/1" interpolaterName=""  />
                </ZoomPanKeyframes>
               </ZoomPanBin>
              </Entry>
             </ExtraData>
            </VMFile>
            <MetaData>
             <entry key="WinSubProjectDisplayName" val=""/>
            </MetaData>
           </UnifiedMedia>
           <UnifiedMedia id="6170"  >
            <AMFile id="6171" start="1610" duration="87" scalar="1/1" mediaStart="2135/1" mediaDuration="87/1" trackNumber="2" src="12" channelNumber="0,1" >
             <Parameters>
              <InterpolatingParam id="6172" interp="linr"  time="0/1" value="1" leadInLength="0/1"  name="volume"/>
              <Parameter id="6173"  name="captions"/>
             </Parameters>
             <Attributes>
              <Attribute id="6174" value="" name="ident"/>
              <Attribute id="6175" value="44100" name="sampleRate"/>
              <Attribute id="6176" value="16" name="bitDepth"/>
              <Attribute id="6177" value="1" name="gain"/>
              <Attribute id="6178" value="0" name="mixToMono"/>
             </Attributes>
            </AMFile>
            <VMFile id="6179" start="1610" duration="87" scalar="1/1" mediaStart="2135/1" mediaDuration="87/1" trackNumber="1" src="12" >
             <Transformer>
              <VectorParam id="6180"  name="translation">
               <InterpolatingParam id="6181" interp="linr"  time="-9999999/1" value="0" leadInLength="0/1"  />
               <InterpolatingParam id="6182" interp="linr"  time="-9999999/1" value="0" leadInLength="0/1"  />
               <InterpolatingParam id="6183" interp="linr"  time="-9999999/1" value="0" leadInLength="0/1"  />
              </VectorParam>
              <VectorParam id="6184"  name="rotation">
               <InterpolatingParam id="6185" interp="linr"  time="-9999999/1" value="0" leadInLength="0/1"  />
               <InterpolatingParam id="6186" interp="linr"  time="-9999999/1" value="0" leadInLength="0/1"  />
               <InterpolatingParam id="6187" interp="linr"  time="-9999999/1" value="0" leadInLength="0/1"  />
              </VectorParam>
              <VectorParam id="6188"  name="shear">
               <InterpolatingParam id="6189" interp="linr"  time="-9999999/1" value="0" leadInLength="0/1"  />
               <InterpolatingParam id="6190" interp="linr"  time="-9999999/1" value="0" leadInLength="0/1"  />
               <InterpolatingParam id="6191" interp="linr"  time="-9999999/1" value="0" leadInLength="0/1"  />
              </VectorParam>
              <VectorParam id="6192"  name="scale">
               <InterpolatingParam id="6193" interp="linr"  time="-9999999/1" value="1" leadInLength="0/1"  />
               <InterpolatingParam id="6194" interp="linr"  time="-9999999/1" value="1" leadInLength="0/1"  />
               <InterpolatingParam id="6195" interp="linr"  time="-9999999/1" value="1" leadInLength="0/1"  />
              </VectorParam>
              <VectorParam id="6196"  name="anchor">
               <InterpolatingParam id="6197" interp="linr"  time="0/1" value="0" leadInLength="0/1"  />
               <InterpolatingParam id="6198" interp="linr"  time="0/1" value="0" leadInLength="0/1"  />
               <InterpolatingParam id="6199" interp="linr"  time="0/1" value="0" leadInLength="0/1"  />
              </VectorParam>
             </Transformer>
             <Parameters>
              <VectorParam id="6200"  name="sourceCrop">
               <InterpolatingParam id="6201" interp="linr"  time="0/1" value="0" leadInLength="0/1"  />
               <InterpolatingParam id="6202" interp="linr"  time="0/1" value="0" leadInLength="0/1"  />
               <InterpolatingParam id="6203" interp="linr"  time="0/1" value="0" leadInLength="0/1"  />
               <InterpolatingParam id="6204" interp="linr"  time="0/1" value="0" leadInLength="0/1"  />
              </VectorParam>
              <VectorParam id="6205"  name="geometryCrop">
               <InterpolatingParam id="6206" interp="linr"  time="-9999999/1" value="0" leadInLength="0/1"  />
               <InterpolatingParam id="6207" interp="linr"  time="-9999999/1" value="0" leadInLength="0/1"  />
               <InterpolatingParam id="6208" interp="linr"  time="-9999999/1" value="0" leadInLength="0/1"  />
               <InterpolatingParam id="6209" interp="linr"  time="-9999999/1" value="0" leadInLength="0/1"  />
              </VectorParam>
              <InterpolatingParam id="6210" interp="linr"  time="-9999999/1" value="1" leadInLength="0/1"  name="opacity"/>
             </Parameters>
             <Attributes>
              <Attribute id="6211" value="" name="ident"/>
             </Attributes>
             <ExtraData>
              <Entry key="ZoomPanBin">
               <ZoomPanBin id="6212"  >
                <ZoomPanKeyframes>
                 <ZoomPanKeyframe id="6213" timeRangeEnd="-9999999/1" timeRangeDuration="0/1" interpolaterName=""  />
                </ZoomPanKeyframes>
               </ZoomPanBin>
              </Entry>
             </ExtraData>
            </VMFile>
            <MetaData>
             <entry key="WinSubProjectDisplayName" val=""/>
            </MetaData>
           </UnifiedMedia>
           <UnifiedMedia id="6214"  >
            <AMFile id="6215" start="1697" duration="616" scalar="1/1" mediaStart="2354/1" mediaDuration="616/1" trackNumber="2" src="12" channelNumber="0,1" >
             <Parameters>
              <InterpolatingParam id="6216" interp="linr"  time="0/1" value="1" leadInLength="0/1"  name="volume"/>
              <Parameter id="6217"  name="captions"/>
             </Parameters>
             <Attributes>
              <Attribute id="6218" value="" name="ident"/>
              <Attribute id="6219" value="44100" name="sampleRate"/>
              <Attribute id="6220" value="16" name="bitDepth"/>
              <Attribute id="6221" value="1" name="gain"/>
              <Attribute id="6222" value="0" name="mixToMono"/>
             </Attributes>
            </AMFile>
            <VMFile id="6223" start="1697" duration="616" scalar="1/1" mediaStart="2354/1" mediaDuration="616/1" trackNumber="1" src="12" >
             <Transformer>
              <VectorParam id="6224"  name="translation">
               <InterpolatingParam id="6225" interp="linr"  time="-9999999/1" value="0" leadInLength="0/1"  />
               <InterpolatingParam id="6226" interp="linr"  time="-9999999/1" value="0" leadInLength="0/1"  />
               <InterpolatingParam id="6227" interp="linr"  time="-9999999/1" value="0" leadInLength="0/1"  />
              </VectorParam>
              <VectorParam id="6228"  name="rotation">
               <InterpolatingParam id="6229" interp="linr"  time="-9999999/1" value="0" leadInLength="0/1"  />
               <InterpolatingParam id="6230" interp="linr"  time="-9999999/1" value="0" leadInLength="0/1"  />
               <InterpolatingParam id="6231" interp="linr"  time="-9999999/1" value="0" leadInLength="0/1"  />
              </VectorParam>
              <VectorParam id="6232"  name="shear">
               <InterpolatingParam id="6233" interp="linr"  time="-9999999/1" value="0" leadInLength="0/1"  />
               <InterpolatingParam id="6234" interp="linr"  time="-9999999/1" value="0" leadInLength="0/1"  />
               <InterpolatingParam id="6235" interp="linr"  time="-9999999/1" value="0" leadInLength="0/1"  />
              </VectorParam>
              <VectorParam id="6236"  name="scale">
               <InterpolatingParam id="6237" interp="linr"  time="-9999999/1" value="1" leadInLength="0/1"  />
               <InterpolatingParam id="6238" interp="linr"  time="-9999999/1" value="1" leadInLength="0/1"  />
               <InterpolatingParam id="6239" interp="linr"  time="-9999999/1" value="1" leadInLength="0/1"  />
              </VectorParam>
              <VectorParam id="6240"  name="anchor">
               <InterpolatingParam id="6241" interp="linr"  time="0/1" value="0" leadInLength="0/1"  />
               <InterpolatingParam id="6242" interp="linr"  time="0/1" value="0" leadInLength="0/1"  />
               <InterpolatingParam id="6243" interp="linr"  time="0/1" value="0" leadInLength="0/1"  />
              </VectorParam>
             </Transformer>
             <Parameters>
              <VectorParam id="6244"  name="sourceCrop">
               <InterpolatingParam id="6245" interp="linr"  time="0/1" value="0" leadInLength="0/1"  />
               <InterpolatingParam id="6246" interp="linr"  time="0/1" value="0" leadInLength="0/1"  />
               <InterpolatingParam id="6247" interp="linr"  time="0/1" value="0" leadInLength="0/1"  />
               <InterpolatingParam id="6248" interp="linr"  time="0/1" value="0" leadInLength="0/1"  />
              </VectorParam>
              <VectorParam id="6249"  name="geometryCrop">
               <InterpolatingParam id="6250" interp="linr"  time="-9999999/1" value="0" leadInLength="0/1"  />
               <InterpolatingParam id="6251" interp="linr"  time="-9999999/1" value="0" leadInLength="0/1"  />
               <InterpolatingParam id="6252" interp="linr"  time="-9999999/1" value="0" leadInLength="0/1"  />
               <InterpolatingParam id="6253" interp="linr"  time="-9999999/1" value="0" leadInLength="0/1"  />
              </VectorParam>
              <InterpolatingParam id="6254" interp="linr"  time="-9999999/1" value="1" leadInLength="0/1"  name="opacity"/>
             </Parameters>
             <Attributes>
              <Attribute id="6255" value="" name="ident"/>
             </Attributes>
             <ExtraData>
              <Entry key="ZoomPanBin">
               <ZoomPanBin id="6256"  >
                <ZoomPanKeyframes>
                 <ZoomPanKeyframe id="6257" timeRangeEnd="-9999999/1" timeRangeDuration="0/1" interpolaterName=""  />
                </ZoomPanKeyframes>
               </ZoomPanBin>
              </Entry>
             </ExtraData>
            </VMFile>
            <MetaData>
             <entry key="WinSubProjectDisplayName" val=""/>
            </MetaData>
           </UnifiedMedia>
          </Medias>
         </GenericTrack>
        </StitchedMedia>
        <StitchedMedia id="6258" start="6423" duration="458" scalar="1/1" mediaStart="195/1" mediaDuration="458/1" minMediaStart="0/1" >
         <Transformer>
          <VectorParam id="6259"  name="translation">
           <InterpolatingParam id="6260" interp="linr"  time="-9999999/1" value="491.58217057194429" leadInLength="0/1"  />
           <InterpolatingParam id="6261" interp="linr"  time="-9999999/1" value="-257.13949856077284" leadInLength="0/1"  />
           <InterpolatingParam id="6262" interp="linr"  time="-9999999/1" value="5.6816968324736077e-023" leadInLength="0/1"  />
          </VectorParam>
          <VectorParam id="6263"  name="rotation">
           <InterpolatingParam id="6264" interp="linr"  time="-9999999/1" value="0" leadInLength="0/1"  />
           <InterpolatingParam id="6265" interp="linr"  time="-9999999/1" value="0" leadInLength="0/1"  />
           <InterpolatingParam id="6266" interp="linr"  time="-9999999/1" value="0" leadInLength="0/1"  />
          </VectorParam>
          <VectorParam id="6267"  name="shear">
           <InterpolatingParam id="6268" interp="linr"  time="-9999999/1" value="0" leadInLength="0/1"  />
           <InterpolatingParam id="6269" interp="linr"  time="-9999999/1" value="0" leadInLength="0/1"  />
           <InterpolatingParam id="6270" interp="linr"  time="-9999999/1" value="0" leadInLength="0/1"  />
          </VectorParam>
          <VectorParam id="6271"  name="scale">
           <InterpolatingParam id="6272" interp="linr"  time="-9999999/1" value="0.65755571696344495" leadInLength="0/1"  />
           <InterpolatingParam id="6273" interp="linr"  time="-9999999/1" value="0.65755571696344484" leadInLength="0/1"  />
           <InterpolatingParam id="6274" interp="linr"  time="-9999999/1" value="1" leadInLength="0/1"  />
          </VectorParam>
          <VectorParam id="6275"  name="anchor">
           <InterpolatingParam id="6276" interp="linr"  time="0/1" value="0" leadInLength="0/1"  />
           <InterpolatingParam id="6277" interp="linr"  time="0/1" value="0" leadInLength="0/1"  />
           <InterpolatingParam id="6278" interp="linr"  time="0/1" value="0" leadInLength="0/1"  />
          </VectorParam>
         </Transformer>
         <Parameters>
          <VectorParam id="6279"  name="sourceCrop">
           <InterpolatingParam id="6280" interp="linr"  time="0/1" value="0" leadInLength="0/1"  />
           <InterpolatingParam id="6281" interp="linr"  time="0/1" value="0" leadInLength="0/1"  />
           <InterpolatingParam id="6282" interp="linr"  time="0/1" value="0" leadInLength="0/1"  />
           <InterpolatingParam id="6283" interp="linr"  time="0/1" value="0" leadInLength="0/1"  />
          </VectorParam>
          <VectorParam id="6284"  name="geometryCrop">
           <InterpolatingParam id="6285" interp="linr"  time="-9999999/1" value="135.00000000417353" leadInLength="0/1"  />
           <InterpolatingParam id="6286" interp="linr"  time="-9999999/1" value="0" leadInLength="0/1"  />
           <InterpolatingParam id="6287" interp="linr"  time="-9999999/1" value="0" leadInLength="0/1"  />
           <InterpolatingParam id="6288" interp="linr"  time="-9999999/1" value="83.571428571507283" leadInLength="0/1"  />
          </VectorParam>
          <InterpolatingParam id="6289" interp="linr"  time="-9999999/1" value="1" leadInLength="0/1"  name="opacity"/>
          <InterpolatingParam id="6290" interp="linr"  time="0/1" value="1" leadInLength="0/1"  name="cursorOpacity"/>
          <InterpolatingParam id="6291" interp="linr"  time="0/1" value="1" leadInLength="0/1"  name="cursorScale"/>
          <InterpolatingParam id="6292" interp="linr"  time="0/1" value="1" leadInLength="0/1"  name="volume"/>
          <Parameter id="6293"  name="captions"/>
         </Parameters>
         <Effects>
          <GenericEffect id="6294" name = "NoiseReduction" >
           <Parameters>
           <InterpolatingParam id="6295" interp="linr"  time="0/1" value="27.599999999999998" leadInLength="0/1"   name="denoiserAmount"/>
           <InterpolatingParam id="6296" interp="linr"  time="0/1" value="2.2799999999999994" leadInLength="0/1"   name="denoiserThreshold"/>
           <Parameter id="6297"   name="noiseProfile">
            <Keyframes>
            <Keyframe id="6298"  time="0/1" value="FBAAAAIAAABErAAAAQIAALb4XcJOqE3CzlNcwiMcZMIgtGHCxxlfwgVPaMI+P23C3LNvwnMBasLQ&#xD;&#xa;bmvCDhxzwhtGgMLRqoHCz9+Awt+IhMJsdoXCQp2Ewq84hsLWpIjCwNCDwiGQgsIYs4XCwiWGwhv9&#xD;&#xa;hsJgUYfC5hKGwh5Mh8Lnb4vCXl6MwqE0isL7i4rC50WIwh7FicL0Y43CCc2OwqLtkMIgbpDCp9eO&#xD;&#xa;wmysjsIPrpHCjQKUwuAwlcJma5TC42yVwkLKmMI1m5nCjSucwhlgnMIlv5rCgX2cwi+hncLKeZzC&#xD;&#xa;Ls+cwgkCnsJuJZ7CH7OfwpFJocJP5qLCvAajwgYaoMJaaaLCpkmkwnT2pcLz4qXCSBymwmI7p8KY&#xD;&#xa;b6jCmJ2pwpOmpsKjNKXCZ1emwl25pcLlOqbCbtypwqOKq8IQhKvC7B2twgDNq8KbDKrC1papws8t&#xD;&#xa;qcL+VKvCLjyuwr1ErcKYaazC2nCuwhtArsKSAq7Cu6WtwnxLrcLsNK7C+yirwnEvqcKlr67C8Wux&#xD;&#xa;wgVgscIM3rHCBaWzwuahs8LwmLTCq2G0wqHqs8KYO7TCGbi2wrGOt8IJnLbC/Hy1woqzs8JSYbTC&#xD;&#xa;YNi2wvvWt8IWsrbC4J63wsqEt8LtlLHCI6SqwhwLscL0SbrC1t65wkJruMJYwrfCmau4wnAmucKe&#xD;&#xa;GbnCLsq7wsD5usIwsrrCV1W8whY4vcK0KLzCgnm7wtVavMKyOrrCquK6wsRmvML2gbzCFHi7wtpe&#xD;&#xa;usK0NLPChuO1wp6xvMIvsLvCTPG9wn4WwMIfq7/C2Jy/wooYvsKWtb3COAu8wtpavMIVfbzCliK9&#xD;&#xa;wlIOwMJuh7/C3iC9wsBDu8JPNrvCzne9wqKMvcKvBb3CbEW+whesu8JeXLvCAt6/wqOjvcIaarzC&#xD;&#xa;ub+8wgTku8IamrzCHTy+wurvv8KC7r3CUvS8wjxxvsImnbzCmsm8wlzNv8IAfMDC2JnBwprNwsKK&#xD;&#xa;SMHC1vq/wr+hv8Jt/sDCZJe/wt68vcJU5MDCgNS/wrSzv8LifMDCAPy+wiUGv8IBC7/Cck6/wpCB&#xD;&#xa;vcIZa73C1lm+wkZswMKCj8HCg+LCwraRxcKQ4cDCkrq+wg/5v8IWMsLC4sbCwijXwcIKy7/C+te6&#xD;&#xa;wpJuvMKAKMHCRmDDwjO1wcIk97/CgI/Dwlgcw8LWKcPC8EnCwuMewsIqcMPC7RPEwkSBw8K/W8HC&#xD;&#xa;a9DBwqYDwMIkZcHClvPCwsL/wcIaFMLC8crCwlv7v8KKW7jCrnS8wh4wxMLXLcPCnBDDwrS3xcLZ&#xD;&#xa;1sXCCuvDwgwgxcKQfcTCvlTDwol1xcIelMbCNm7EwpiWwsIwmMHCKHDBwrxxw8Kqi8TC1XnDwhR8&#xD;&#xa;xML6NcbCzBzCwozBtcL+ILfC5gXEwhQrw8Lu7cHCjlTCwpKHw8J6YMXCRVzEwi6ExMLSzMPCo+LE&#xD;&#xa;wtYoxsJcQ8XC0KfEwuzmw8IqPcLCohvCwuIBwsJ8+MPCktzFwqYsxcIaLsPCPbG1wu1us8LDD8DC&#xD;&#xa;bP3Hwiw7xsKyTMbCvTDHwnzVxsIP8cTCMKjDwjA1xMJ9rsTCdM3EwpaexMK8QcXCYhLFwpTFxMIK&#xD;&#xa;xcTC44zEwgC4wsIyO8TCyizHwsyzxcLoeLvCpPi1wt4RvsKXrMPCIyjEwg5Mw8IyGMPCsDrEwvrx&#xD;&#xa;xMKUUsXCRojEwhzgxMJePMPCSofDwmwTxMI2ycPC6D3Fwqq7xcJvi8fCOHzGwkLBxsJzKcbCeMjD&#xD;&#xa;whRPvsLlsrfCnL68wsUNwsK4MMPCnUfFwjjBw8Lmb8PCphXEwkkqxMKgQMXCGi3HwnA0xsICYsTC&#xD;&#xa;RTbEwlwGxsLocMfCKO7Hwo4Ax8IjhcTCFi7FwrAWyMJgx8bCrpXDwsRawcJF1MLCqo7DwtJWxcJV&#xD;&#xa;IM7CzFHgwtQd9cIU6PfCjKX4wr7O+cKC//fCGCP2woqT98LOPPfCEqr1wm5/9sLaQ/bCStv3wmSo&#xD;&#xa;+cKGI/rCwCL6wu5y+MLEZPnCLsn4wsK09sJKePjCqq/6wmaX+sKAovrCJS/4wik7+ML2lvjC0tr3&#xD;&#xa;wguf9sKaQvbCUv/2wsDS+MIcrfnCYgj5wqKX+MKycvjClLb2wksf9sK8xvfCSvX4woTm98K2iPfC&#xD;&#xa;zrH4wi6y98L8HPbC0iT4wkgd98Kak/XCYIj2wnGI98ISSPjC1i/6wnJA+cLOqfjCfjr7wuQ+/MKs&#xD;&#xa;q/rCKq/4wudg98Jub/jCuC/6wph/+cISPPjCAPb3wibE98KspvfCPrH3wnbs+MKApPnCCKj5wtBk&#xD;&#xa;+cL96ffCYMr2wh+a9sKuv/jCMKT5wqyA+MLCZvjCDiP6wrwg+cJ2OvnCmvT4wgoF+cIQtPfCRLX4&#xD;&#xa;wip4+sLaqPnC5R/4wiTQ+MJubfjCqJn4wqQ9+MLkvfjCUJP4wt6h+MKQT/jClG/5wqIX+sKe+vjC&#xD;&#xa;2nH4wmpt98JSEPnCQeX3wtQp+MKGj/fCdhf4wg6s+cKaXPnCmML3wgbL+cJqLvzCwKn6wvg5+MKU&#xD;&#xa;R/rCDNL6wgCD+MKpZfbCYDf2wj5L+MJo0fjCoBT4wg7m98KOkPjCFDT2wjAP9sI2gfjCAKb4wg34&#xD;&#xa;98IdOfjCsqb4wkbO+MJk+/fCgMP3wgBG+cJGwvjCOFv5wiCD+MKu+vjCrO36wprh+MKUU/fCJKv3&#xD;&#xa;wudF9sJcqPTCJtf3wlhX+cKgnPjCJkr6wpA9+cK4V/nCzpD5wgC098K9DvfCNPD1wmiz9ML4GPbC&#xD;&#xa;IK32wtFT9cIeK/bCeTwCw4n4XcJPqE3CzlRcwskdZMIRtWHCFBpfwl9OaMLNPm3CP7RvwhQCasLc&#xD;&#xa;bmvC4Bxzws5GgML3q4HC6+CAwgOJhMIrdYXCgp2Ewmc5hsKopYjC2tCDwryQgsI9soXCKCSGwg37&#xD;&#xa;hsLPUYfCihSGwo5Mh8KncIvCpV6MwnczisJdjIrCJ0iIwrbEicKOYo3Cks6OwsfukMLfa5DCsNiO&#xD;&#xa;wo6ujsLRrJHCsP2TwlcvlcIdb5TC4XCVwlbLmMIcm5nC/iacwgNenMKwv5rCV3+cwoahncIyepzC&#xD;&#xa;v8icwtMFnsJ5Ip7CW6yfwnRJocIZ4KLCqA2jwqIhoMIubKLCaE+kwuMApsLi2qXCXxamwpI/p8Iy&#xD;&#xa;Y6jCLKmpwhK2psJ2R6XC9WOmwtzZpcIiT6bCN/epwoaiq8IynavC4DWtwongq8ILHqrCbbCpwjpb&#xD;&#xa;qcItgqvCQYmuwvptrcKuaazCxkKuwsw+rsLcM67CULGtwsl1rcKDU67Cvh6rwiYeqcL2va7C6bGx&#xD;&#xa;wtqfscJ43rHCUXGzwi7Ds8JGCbXC4Gu0wn/bs8IsDbTC2pO2wnoJuMJCHbfCXpS1wnKhs8IQlrTC&#xD;&#xa;UCa3wiUBuMIZ5bbCKba3wr9/t8KtzrHCZeuqwipIscJO0brCDPW5wkCruMIuEbjC4Q+5wlJ9ucKe&#xD;&#xa;o7nCVK67wvekusIL0LrCSPe7woczvcLoLbzC4IC7wnKKvMJCP7rCtT+7wvrqvMLY/bzCDMm7wm+9&#xD;&#xa;usIeb7PCBwS2wlD+vMJCurvC+Gu9wuZ5v8JEhL/CX5O/wpQBv8KUT77CBFm8wvi3vMJnyrzCHLq9&#xD;&#xa;wqMiwMLpBMDCXkG+wtGSu8KYQ7vCGMq9wlxKvsIU0b3CVv++wm6bu8LdP7vCwBjAwrjhvcJPbrzC&#xD;&#xa;BMG8wkibvMJCAL3Chq2+woJCwMJVPb7CIie9wgD/vsJH6rzCGLS8wp/mv8Iot8DCWivCwoz2wsLi&#xD;&#xa;28HCenHAwo2gv8KEy8DCNYK/wjT8vcJLjsHCEOK/wpyIv8I3ZsDCy6G+wlDovsJCU7/Cmdy/wu0c&#xD;&#xa;vsIXCb7C57i+wrShwMIoKcLCJIvDwhbhxcIyHMHCPb6+whLbv8LCyMHCIp3CwlVpwcLtMsDCqJq6&#xD;&#xa;wplBvMKKG8HCJLDDws53wsL0lsDCda7Dwl7Iw8L0QMPCfhTCwr7QwsKoMsTCfI/EwtqUw8KoFcLC&#xD;&#xa;0J7Cws7xv8KNE8LCyEjEwvSkwsJyRsLC1OTCwkjHwMLeJbnCYii9wvR1xMLtpcLCBwvDwtHLxcKS&#xD;&#xa;BMfCOv7EwiJzxcJxScTCrzDDwoJ9xcI0esbCNm3EwsbJwsJXv8HCf23Bwp5tw8KNecTCAV3Dwv5s&#xD;&#xa;xMJQccbCE0XCwlzFtcJEG7fCg8DDws70wsJEEcLC/KnCwu30w8IVsMXClE3EwoBdxMKch8PCe7nE&#xD;&#xa;wqAsxsL9isXCur/EwtTaw8J3QcLCej7CwplnwsKKS8TCYtDFwkQpxcLtOMPCHLK1wnpos8Lc6r/C&#xD;&#xa;EKHHwpUBxsKDVcbCuBzHwjGsxsIE7cTC/uPDwuRgxMKKmcTCKt/EwiOuxMLbbcXC5lHFwvLrxMKW&#xD;&#xa;BMXCro7EwtOxwsKwfMTCcIfHwoSUxcLQjrvC9QO2wm8WvsJYlMPC1jPEwu5Gw8Jk+sLCNkrEwlAO&#xD;&#xa;xcIhUsXCZIfEwuz1xMLXdsPCoubDwmo5xMJuycPCr0HFwrhqxcIjUcfCyofGwkbpxsK+NcbCmL7D&#xD;&#xa;wiZRvsL7u7fCSMC8wmX/wcKTWMPCEG/FwnO8w8LYmMPCcibEwv9JxMJ+bsXCsH7HwiBuxsL2bsTC&#xD;&#xa;9fvDwpzGxcJ4e8fCWuzHwnL0xsIUjsTCPErFwp4ZyMIe18bCcMTDwuZ0wcLh2MLCvKDDwn5vxcIW&#xD;&#xa;SM7C3CbhwrSS9sIeQvjCDtr3wj3H98L2rvjCuIv4wk7v9cKqSfbC7M34wvaK+cIsE/fCInb3wgz3&#xD;&#xa;9sL7VPfCcOn3wv5Z+cKtl/bCkbX0wsfP9cJ00fbC+oT0wmf89MKidvjC+oH6wnym+8LEwfnC7OH4&#xD;&#xa;wgSh+MIaK/jCMd72wr9k98JmqPjCOpL4wlQY98KmG/bCujb4wu4G+MLNtvfC5CH3wsJD98Is/vjC&#xD;&#xa;p/X3wiHj9sK2E/bCpWT3wsTD+MJmYPjCvOv3whwq+sK6MPjCFp/0wh5n9MJChPfCIVb3wpi398L+&#xD;&#xa;TfjCygz5wrqw98Lwu/bCzJX2wgxj9sKKB/fCwz32wnIc9MKSNPbC1g/4wqCx98JC1vfClpT4wjhK&#xD;&#xa;+sK4PPrCeOT5wizY98J6O/bCYKf4wshQ+MICbffChWL3wtg2+MIioPfCNiz3whKc+cLeQfnCvqL2&#xD;&#xa;wkr89sLrNPfCB+D1wu6n9sJAuvfCy7P3whwK9sL/0vXCcqH2ws6u9sJI7PXCbBH4wnBv+sL+LPjC&#xD;&#xa;GhL2wo749sLK8fXCVjz3wkIQ+MJAovjCMBj3wo/D9sIG4fbC+DD3wjxm9sKs6fbCRPn5wjzJ+cKg&#xD;&#xa;r/bCm3j3wtqZ98Ln4vXCmib4wgLt+cIcM/jCexH4wo7Z+MLs4PjCxMT4whIo+sI02frChC75wozJ&#xD;&#xa;9sIGZ/fCPAn4wo4698Icf/fCfqL4wpD99sIYvfjClL76woR4+8JS8/jC8Gz3wu7R+cJQ4fjCJs75&#xD;&#xa;wqgM+8JugfnCYtb4whAy98LsVfjCttr6wn6P+cK+FPnCFAz3wuR6+MJqVvjCKL73wmJA98KAu/XC&#xD;&#xa;lk33wvRF+8KukfrC3ssD" leadInLength="0/1"  />
            </Keyframes>
           </Parameter>
           </Parameters>
          </GenericEffect>
         </Effects>
         <Attributes>
          <Attribute id="6299" value="" name="ident"/>
          <Attribute id="6300" value="0" name="mixToMono"/>
         </Attributes>
         <MetaData>
          <entry key="WinSubProjectDisplayName" val=""/>
         </MetaData>
         <ExtraData>
          <Entry key="ZoomPanBin">
           <ZoomPanBin id="6301"  >
            <ZoomPanKeyframes>
             <ZoomPanKeyframe id="6302" timeRangeEnd="-9999999/1" timeRangeDuration="0/1" interpolaterName=""  />
            </ZoomPanKeyframes>
           </ZoomPanBin>
          </Entry>
          <Entry key="CursorEffectBin">
           <CursorEffectBin id="6303"  >
            <CursorEffectKeyframes>
            </CursorEffectKeyframes>
           </CursorEffectBin>
          </Entry>
         </ExtraData>
         <GenericTrack id="6304"  >
          <Attributes>
           <Attribute id="6305" value="" name="ident"/>
           <Attribute id="6306" value="0" name="audioMuted"/>
           <Attribute id="6307" value="0" name="videoHidden"/>
          </Attributes>
          <MetaData>
           <entry key="IsLocked" val="False"/>
           <entry key="WinTrackHeight" val="0"/>
          </MetaData>
          <Medias>
           <UnifiedMedia id="6308"  >
            <AMFile id="6309" start="0" duration="346" scalar="1/1" mediaStart="0/1" mediaDuration="346/1" trackNumber="2" src="13" channelNumber="0,1" >
             <Parameters>
              <InterpolatingParam id="6310" interp="linr"  time="0/1" value="1" leadInLength="0/1"  name="volume"/>
              <Parameter id="6311"  name="captions"/>
             </Parameters>
             <Attributes>
              <Attribute id="6312" value="" name="ident"/>
              <Attribute id="6313" value="44100" name="sampleRate"/>
              <Attribute id="6314" value="16" name="bitDepth"/>
              <Attribute id="6315" value="1" name="gain"/>
              <Attribute id="6316" value="0" name="mixToMono"/>
             </Attributes>
            </AMFile>
            <VMFile id="6317" start="0" duration="346" scalar="1/1" mediaStart="0/1" mediaDuration="346/1" trackNumber="1" src="13" >
             <Transformer>
              <VectorParam id="6318"  name="translation">
               <InterpolatingParam id="6319" interp="linr"  time="-9999999/1" value="0" leadInLength="0/1"  />
               <InterpolatingParam id="6320" interp="linr"  time="-9999999/1" value="0" leadInLength="0/1"  />
               <InterpolatingParam id="6321" interp="linr"  time="-9999999/1" value="0" leadInLength="0/1"  />
              </VectorParam>
              <VectorParam id="6322"  name="rotation">
               <InterpolatingParam id="6323" interp="linr"  time="-9999999/1" value="0" leadInLength="0/1"  />
               <InterpolatingParam id="6324" interp="linr"  time="-9999999/1" value="0" leadInLength="0/1"  />
               <InterpolatingParam id="6325" interp="linr"  time="-9999999/1" value="0" leadInLength="0/1"  />
              </VectorParam>
              <VectorParam id="6326"  name="shear">
               <InterpolatingParam id="6327" interp="linr"  time="-9999999/1" value="0" leadInLength="0/1"  />
               <InterpolatingParam id="6328" interp="linr"  time="-9999999/1" value="0" leadInLength="0/1"  />
               <InterpolatingParam id="6329" interp="linr"  time="-9999999/1" value="0" leadInLength="0/1"  />
              </VectorParam>
              <VectorParam id="6330"  name="scale">
               <InterpolatingParam id="6331" interp="linr"  time="-9999999/1" value="1" leadInLength="0/1"  />
               <InterpolatingParam id="6332" interp="linr"  time="-9999999/1" value="1" leadInLength="0/1"  />
               <InterpolatingParam id="6333" interp="linr"  time="-9999999/1" value="1" leadInLength="0/1"  />
              </VectorParam>
              <VectorParam id="6334"  name="anchor">
               <InterpolatingParam id="6335" interp="linr"  time="0/1" value="0" leadInLength="0/1"  />
               <InterpolatingParam id="6336" interp="linr"  time="0/1" value="0" leadInLength="0/1"  />
               <InterpolatingParam id="6337" interp="linr"  time="0/1" value="0" leadInLength="0/1"  />
              </VectorParam>
             </Transformer>
             <Parameters>
              <VectorParam id="6338"  name="sourceCrop">
               <InterpolatingParam id="6339" interp="linr"  time="0/1" value="0" leadInLength="0/1"  />
               <InterpolatingParam id="6340" interp="linr"  time="0/1" value="0" leadInLength="0/1"  />
               <InterpolatingParam id="6341" interp="linr"  time="0/1" value="0" leadInLength="0/1"  />
               <InterpolatingParam id="6342" interp="linr"  time="0/1" value="0" leadInLength="0/1"  />
              </VectorParam>
              <VectorParam id="6343"  name="geometryCrop">
               <InterpolatingParam id="6344" interp="linr"  time="-9999999/1" value="0" leadInLength="0/1"  />
               <InterpolatingParam id="6345" interp="linr"  time="-9999999/1" value="0" leadInLength="0/1"  />
               <InterpolatingParam id="6346" interp="linr"  time="-9999999/1" value="0" leadInLength="0/1"  />
               <InterpolatingParam id="6347" interp="linr"  time="-9999999/1" value="0" leadInLength="0/1"  />
              </VectorParam>
              <InterpolatingParam id="6348" interp="linr"  time="-9999999/1" value="1" leadInLength="0/1"  name="opacity"/>
             </Parameters>
             <Attributes>
              <Attribute id="6349" value="" name="ident"/>
             </Attributes>
             <ExtraData>
              <Entry key="ZoomPanBin">
               <ZoomPanBin id="6350"  >
                <ZoomPanKeyframes>
                 <ZoomPanKeyframe id="6351" timeRangeEnd="-9999999/1" timeRangeDuration="0/1" interpolaterName=""  />
                </ZoomPanKeyframes>
               </ZoomPanBin>
              </Entry>
             </ExtraData>
            </VMFile>
            <MetaData>
             <entry key="WinSubProjectDisplayName" val=""/>
            </MetaData>
           </UnifiedMedia>
           <UnifiedMedia id="6352"  >
            <AMFile id="6353" start="346" duration="188" scalar="1/1" mediaStart="357/1" mediaDuration="188/1" trackNumber="2" src="13" channelNumber="0,1" >
             <Parameters>
              <InterpolatingParam id="6354" interp="linr"  time="0/1" value="1" leadInLength="0/1"  name="volume"/>
              <Parameter id="6355"  name="captions"/>
             </Parameters>
             <Attributes>
              <Attribute id="6356" value="" name="ident"/>
              <Attribute id="6357" value="44100" name="sampleRate"/>
              <Attribute id="6358" value="16" name="bitDepth"/>
              <Attribute id="6359" value="1" name="gain"/>
              <Attribute id="6360" value="0" name="mixToMono"/>
             </Attributes>
            </AMFile>
            <VMFile id="6361" start="346" duration="188" scalar="1/1" mediaStart="357/1" mediaDuration="188/1" trackNumber="1" src="13" >
             <Transformer>
              <VectorParam id="6362"  name="translation">
               <InterpolatingParam id="6363" interp="linr"  time="-9999999/1" value="0" leadInLength="0/1"  />
               <InterpolatingParam id="6364" interp="linr"  time="-9999999/1" value="0" leadInLength="0/1"  />
               <InterpolatingParam id="6365" interp="linr"  time="-9999999/1" value="0" leadInLength="0/1"  />
              </VectorParam>
              <VectorParam id="6366"  name="rotation">
               <InterpolatingParam id="6367" interp="linr"  time="-9999999/1" value="0" leadInLength="0/1"  />
               <InterpolatingParam id="6368" interp="linr"  time="-9999999/1" value="0" leadInLength="0/1"  />
               <InterpolatingParam id="6369" interp="linr"  time="-9999999/1" value="0" leadInLength="0/1"  />
              </VectorParam>
              <VectorParam id="6370"  name="shear">
               <InterpolatingParam id="6371" interp="linr"  time="-9999999/1" value="0" leadInLength="0/1"  />
               <InterpolatingParam id="6372" interp="linr"  time="-9999999/1" value="0" leadInLength="0/1"  />
               <InterpolatingParam id="6373" interp="linr"  time="-9999999/1" value="0" leadInLength="0/1"  />
              </VectorParam>
              <VectorParam id="6374"  name="scale">
               <InterpolatingParam id="6375" interp="linr"  time="-9999999/1" value="1" leadInLength="0/1"  />
               <InterpolatingParam id="6376" interp="linr"  time="-9999999/1" value="1" leadInLength="0/1"  />
               <InterpolatingParam id="6377" interp="linr"  time="-9999999/1" value="1" leadInLength="0/1"  />
              </VectorParam>
              <VectorParam id="6378"  name="anchor">
               <InterpolatingParam id="6379" interp="linr"  time="0/1" value="0" leadInLength="0/1"  />
               <InterpolatingParam id="6380" interp="linr"  time="0/1" value="0" leadInLength="0/1"  />
               <InterpolatingParam id="6381" interp="linr"  time="0/1" value="0" leadInLength="0/1"  />
              </VectorParam>
             </Transformer>
             <Parameters>
              <VectorParam id="6382"  name="sourceCrop">
               <InterpolatingParam id="6383" interp="linr"  time="0/1" value="0" leadInLength="0/1"  />
               <InterpolatingParam id="6384" interp="linr"  time="0/1" value="0" leadInLength="0/1"  />
               <InterpolatingParam id="6385" interp="linr"  time="0/1" value="0" leadInLength="0/1"  />
               <InterpolatingParam id="6386" interp="linr"  time="0/1" value="0" leadInLength="0/1"  />
              </VectorParam>
              <VectorParam id="6387"  name="geometryCrop">
               <InterpolatingParam id="6388" interp="linr"  time="-9999999/1" value="0" leadInLength="0/1"  />
               <InterpolatingParam id="6389" interp="linr"  time="-9999999/1" value="0" leadInLength="0/1"  />
               <InterpolatingParam id="6390" interp="linr"  time="-9999999/1" value="0" leadInLength="0/1"  />
               <InterpolatingParam id="6391" interp="linr"  time="-9999999/1" value="0" leadInLength="0/1"  />
              </VectorParam>
              <InterpolatingParam id="6392" interp="linr"  time="-9999999/1" value="1" leadInLength="0/1"  name="opacity"/>
             </Parameters>
             <Attributes>
              <Attribute id="6393" value="" name="ident"/>
             </Attributes>
             <ExtraData>
              <Entry key="ZoomPanBin">
               <ZoomPanBin id="6394"  >
                <ZoomPanKeyframes>
                 <ZoomPanKeyframe id="6395" timeRangeEnd="-9999999/1" timeRangeDuration="0/1" interpolaterName=""  />
                </ZoomPanKeyframes>
               </ZoomPanBin>
              </Entry>
             </ExtraData>
            </VMFile>
            <MetaData>
             <entry key="WinSubProjectDisplayName" val=""/>
            </MetaData>
           </UnifiedMedia>
           <UnifiedMedia id="6396"  >
            <AMFile id="6397" start="534" duration="319" scalar="1/1" mediaStart="1483/1" mediaDuration="319/1" trackNumber="2" src="13" channelNumber="0,1" >
             <Parameters>
              <InterpolatingParam id="6398" interp="linr"  time="0/1" value="1" leadInLength="0/1"  name="volume"/>
              <Parameter id="6399"  name="captions"/>
             </Parameters>
             <Attributes>
              <Attribute id="6400" value="" name="ident"/>
              <Attribute id="6401" value="44100" name="sampleRate"/>
              <Attribute id="6402" value="16" name="bitDepth"/>
              <Attribute id="6403" value="1" name="gain"/>
              <Attribute id="6404" value="0" name="mixToMono"/>
             </Attributes>
            </AMFile>
            <VMFile id="6405" start="534" duration="319" scalar="1/1" mediaStart="1483/1" mediaDuration="319/1" trackNumber="1" src="13" >
             <Transformer>
              <VectorParam id="6406"  name="translation">
               <InterpolatingParam id="6407" interp="linr"  time="-9999999/1" value="0" leadInLength="0/1"  />
               <InterpolatingParam id="6408" interp="linr"  time="-9999999/1" value="0" leadInLength="0/1"  />
               <InterpolatingParam id="6409" interp="linr"  time="-9999999/1" value="0" leadInLength="0/1"  />
              </VectorParam>
              <VectorParam id="6410"  name="rotation">
               <InterpolatingParam id="6411" interp="linr"  time="-9999999/1" value="0" leadInLength="0/1"  />
               <InterpolatingParam id="6412" interp="linr"  time="-9999999/1" value="0" leadInLength="0/1"  />
               <InterpolatingParam id="6413" interp="linr"  time="-9999999/1" value="0" leadInLength="0/1"  />
              </VectorParam>
              <VectorParam id="6414"  name="shear">
               <InterpolatingParam id="6415" interp="linr"  time="-9999999/1" value="0" leadInLength="0/1"  />
               <InterpolatingParam id="6416" interp="linr"  time="-9999999/1" value="0" leadInLength="0/1"  />
               <InterpolatingParam id="6417" interp="linr"  time="-9999999/1" value="0" leadInLength="0/1"  />
              </VectorParam>
              <VectorParam id="6418"  name="scale">
               <InterpolatingParam id="6419" interp="linr"  time="-9999999/1" value="1" leadInLength="0/1"  />
               <InterpolatingParam id="6420" interp="linr"  time="-9999999/1" value="1" leadInLength="0/1"  />
               <InterpolatingParam id="6421" interp="linr"  time="-9999999/1" value="1" leadInLength="0/1"  />
              </VectorParam>
              <VectorParam id="6422"  name="anchor">
               <InterpolatingParam id="6423" interp="linr"  time="0/1" value="0" leadInLength="0/1"  />
               <InterpolatingParam id="6424" interp="linr"  time="0/1" value="0" leadInLength="0/1"  />
               <InterpolatingParam id="6425" interp="linr"  time="0/1" value="0" leadInLength="0/1"  />
              </VectorParam>
             </Transformer>
             <Parameters>
              <VectorParam id="6426"  name="sourceCrop">
               <InterpolatingParam id="6427" interp="linr"  time="0/1" value="0" leadInLength="0/1"  />
               <InterpolatingParam id="6428" interp="linr"  time="0/1" value="0" leadInLength="0/1"  />
               <InterpolatingParam id="6429" interp="linr"  time="0/1" value="0" leadInLength="0/1"  />
               <InterpolatingParam id="6430" interp="linr"  time="0/1" value="0" leadInLength="0/1"  />
              </VectorParam>
              <VectorParam id="6431"  name="geometryCrop">
               <InterpolatingParam id="6432" interp="linr"  time="-9999999/1" value="0" leadInLength="0/1"  />
               <InterpolatingParam id="6433" interp="linr"  time="-9999999/1" value="0" leadInLength="0/1"  />
               <InterpolatingParam id="6434" interp="linr"  time="-9999999/1" value="0" leadInLength="0/1"  />
               <InterpolatingParam id="6435" interp="linr"  time="-9999999/1" value="0" leadInLength="0/1"  />
              </VectorParam>
              <InterpolatingParam id="6436" interp="linr"  time="-9999999/1" value="1" leadInLength="0/1"  name="opacity"/>
             </Parameters>
             <Attributes>
              <Attribute id="6437" value="" name="ident"/>
             </Attributes>
             <ExtraData>
              <Entry key="ZoomPanBin">
               <ZoomPanBin id="6438"  >
                <ZoomPanKeyframes>
                 <ZoomPanKeyframe id="6439" timeRangeEnd="-9999999/1" timeRangeDuration="0/1" interpolaterName=""  />
                </ZoomPanKeyframes>
               </ZoomPanBin>
              </Entry>
             </ExtraData>
            </VMFile>
            <MetaData>
             <entry key="WinSubProjectDisplayName" val=""/>
            </MetaData>
           </UnifiedMedia>
          </Medias>
         </GenericTrack>
        </StitchedMedia>
       </Medias>
      </GenericTrack>
      <GenericTrack id="6440"  >
       <Attributes>
        <Attribute id="6441" value="" name="ident"/>
        <Attribute id="6442" value="0" name="audioMuted"/>
        <Attribute id="6443" value="0" name="videoHidden"/>
       </Attributes>
       <MetaData>
        <entry key="IsLocked" val="False"/>
        <entry key="WinTrackHeight" val="62"/>
       </MetaData>
       <Medias>
        <StitchedMedia id="6444" start="0" duration="498" scalar="1/1" mediaStart="214/1" mediaDuration="498/1" minMediaStart="0/1" >
         <Transformer>
          <VectorParam id="6445"  name="translation">
           <InterpolatingParam id="6446" interp="linr"  time="-9999999/1" value="349.93288268094494" leadInLength="0/1"  />
           <InterpolatingParam id="6447" interp="linr"  time="-9999999/1" value="-110.45166540282239" leadInLength="0/1"  />
           <InterpolatingParam id="6448" interp="linr"  time="-9999999/1" value="-1.0231815394944283e-009" leadInLength="0/1"  />
          </VectorParam>
          <VectorParam id="6449"  name="rotation">
           <InterpolatingParam id="6450" interp="linr"  time="-9999999/1" value="0" leadInLength="0/1"  />
           <InterpolatingParam id="6451" interp="linr"  time="-9999999/1" value="0" leadInLength="0/1"  />
           <InterpolatingParam id="6452" interp="linr"  time="-9999999/1" value="0" leadInLength="0/1"  />
          </VectorParam>
          <VectorParam id="6453"  name="shear">
           <InterpolatingParam id="6454" interp="linr"  time="-9999999/1" value="0" leadInLength="0/1"  />
           <InterpolatingParam id="6455" interp="linr"  time="-9999999/1" value="0" leadInLength="0/1"  />
           <InterpolatingParam id="6456" interp="linr"  time="-9999999/1" value="0" leadInLength="0/1"  />
          </VectorParam>
          <VectorParam id="6457"  name="scale">
           <InterpolatingParam id="6458" interp="linr"  time="-9999999/1" value="1.1289541860387651" leadInLength="0/1"  />
           <InterpolatingParam id="6459" interp="linr"  time="-9999999/1" value="1.1289541860387624" leadInLength="0/1"  />
           <InterpolatingParam id="6460" interp="linr"  time="-9999999/1" value="1" leadInLength="0/1"  />
          </VectorParam>
          <VectorParam id="6461"  name="anchor">
           <InterpolatingParam id="6462" interp="linr"  time="0/1" value="0" leadInLength="0/1"  />
           <InterpolatingParam id="6463" interp="linr"  time="0/1" value="0" leadInLength="0/1"  />
           <InterpolatingParam id="6464" interp="linr"  time="0/1" value="0" leadInLength="0/1"  />
          </VectorParam>
         </Transformer>
         <Parameters>
          <VectorParam id="6465"  name="sourceCrop">
           <InterpolatingParam id="6466" interp="linr"  time="0/1" value="0" leadInLength="0/1"  />
           <InterpolatingParam id="6467" interp="linr"  time="0/1" value="0" leadInLength="0/1"  />
           <InterpolatingParam id="6468" interp="linr"  time="0/1" value="0" leadInLength="0/1"  />
           <InterpolatingParam id="6469" interp="linr"  time="0/1" value="0" leadInLength="0/1"  />
          </VectorParam>
          <VectorParam id="6470"  name="geometryCrop">
           <InterpolatingParam id="6471" interp="linr"  time="-9999999/1" value="108.79120879106506" leadInLength="0/1"  />
           <InterpolatingParam id="6472" interp="linr"  time="-9999999/1" value="0" leadInLength="0/1"  />
           <InterpolatingParam id="6473" interp="linr"  time="-9999999/1" value="55.384615384308972" leadInLength="0/1"  />
           <InterpolatingParam id="6474" interp="linr"  time="-9999999/1" value="53.406593406648796" leadInLength="0/1"  />
          </VectorParam>
          <InterpolatingParam id="6475" interp="linr"  time="-9999999/1" value="1" leadInLength="0/1"  name="opacity"/>
          <InterpolatingParam id="6476" interp="linr"  time="0/1" value="1" leadInLength="0/1"  name="cursorOpacity"/>
          <InterpolatingParam id="6477" interp="linr"  time="0/1" value="1" leadInLength="0/1"  name="cursorScale"/>
          <InterpolatingParam id="6478" interp="linr"  time="0/1" value="1.6820276497695852" leadInLength="0/1"  name="volume"/>
          <Parameter id="6479"  name="captions"/>
         </Parameters>
         <Effects>
          <GenericEffect id="6480" name = "NoiseReduction" >
           <Parameters>
           <InterpolatingParam id="6481" interp="linr"  time="0/1" value="20" leadInLength="0/1"   name="denoiserAmount"/>
           <InterpolatingParam id="6482" interp="linr"  time="0/1" value="0" leadInLength="0/1"   name="denoiserThreshold"/>
           <Parameter id="6483"   name="noiseProfile">
            <Keyframes>
            <Keyframe id="6484"  time="0/1" value="FBAAAAIAAABErAAAAQIAAGryUsKW5ETCelhfwlqOaMIGOGjCPvVlwspZacJ4pGrCcuFnwggmbcKl&#xD;&#xa;fXXCTgN7wpYFfsIRI4XCZEaJwlg4isKCiIjCEfaIwiMcisLrg4XCbDuFwr42hcLU5IbCls6Ewin3&#xD;&#xa;hcKL+IbCO/uJwqk7jMKp54nChx+MwkSRjsIMOJDCA3uTwnFek8LwYJLC2SCSwmk1k8LuQpLCPoCT&#xD;&#xa;wuWkk8LDR5TCf9qVws0MlcLy6pTC6LSVwlnqmMJMNprC5Qibwlu8mcLhqpvC9Dmhwh6Xn8LzI6DC&#xD;&#xa;fX+lwtEgo8IPYqHCtYmgwuZ2nsIbzqDCiJanwjYCqcLACqrCypSqwruzqMJjUqfC12Omwi/wqMKm&#xD;&#xa;lqnCMbakwgxSosIdo6PCdYmpwoLjqcLUHKjC8GWswlqlq8Kw3KnCfkCqwtV+q8LE3K3CBx2uwph8&#xD;&#xa;rcLCL6rC2gGqwo6brMI6tq3CgviqwoTFq8KrqLDCAmqwwr5ZscL26rDC5VqrwkWgp8KlzavCwc+q&#xD;&#xa;whJXrsLuh6/Cp0Ovwh4kr8LeGLHCSKa0wrditMJpFrPCru2xwo7MsMLscbLCO+a0wiASt8IigbTC&#xD;&#xa;G/awwsJGsMJhvrTCLCC0wvUBtcLJNLLCfl+rwrCvr8Lt3bbCP3yzwu+VsML/1rHCKJizwqFSssIN&#xD;&#xa;NrPCrJmzwvr0scIbkLLCTmazwrgEtcI8W7PCSsG0wjPatMIbmbXC0uizwg3issKwQrPCfii0wgiO&#xD;&#xa;tsK3HrHCGC2xwioxtsILeLfC6bi0ws7pscJk8bLCiLSzwl2fs8KhB7bCHOe0wswmtMIWo7PCOCmz&#xD;&#xa;wn5fscJosbPCcAyzwhi4scLwSbDC+1GxwjiIsMLesq/CClGxwkrtrsK6o6zCPBmwwuDvtcK3R7jC&#xD;&#xa;1yu6wo63tMIbpK/CaGOvwi8ts8IiUbPC1GuwwnY6scJtWrbCjnW6wm5luMIro7XClO21wkSftMIV&#xD;&#xa;Ta7COE2uwhhCs8K1qrjCPnm6wiH6t8JQrbbC0g6ywhwYrcIO6q/CDbm3wqyrusIm8rjCwoG0wpyE&#xD;&#xa;s8LAUrTC9UCxwu5msMLvcbXCON64wrHrucJ8+bXCqNGzwvmXscKXLLLCQbqxwsjYscJC3bXCafW3&#xD;&#xa;wnp6vcL8a7zCatW3wj5VuMItJLbCBtq1wp/CtsLZprrCFFW9wrd1vML/urvC8BS9wtWtucJafbrC&#xD;&#xa;xHG8wpIPvcI2bL/Cm1XBwui2wsKwIMHCZOu7wn40uMK1DrXCfmi5wkLRv8K66cDCNXHAwjjMwcJW&#xD;&#xa;usPCNqPCwihEwML1/r7CMm2/wszzvcIpg77CYLzCwnLiwcIYbcDCq3fCwukQw8IQVMbCSerFwm6S&#xD;&#xa;xsJ/icbCEivBwv51tsJIhLfCWqPBwg9qwsKYVcPCZkvDwufGwsLKmsXCyejDwgIHv8KEx7zC1HO7&#xD;&#xa;wi5wvcLCqb/CnuXDwiS7xMJiB8XC3WPEwkgnw8Im0MPCa97Cwm5jwMLbmb/CD/O0wtu6ssJ+N7/C&#xD;&#xa;KHPIwlc+xsL26sPCFunCwtZzwcL/C8PCt0TEwrWGxcIAscbCBcjGwl0ZxMIr68HCuzzEwkpIxMLI&#xD;&#xa;j8TCC2fFwvbKw8ICIcXClqrDwoIWw8JV+LzCXFS4wq7XvsLfH8LC3gDFwoj/xcLiSMTC9ejCwr40&#xD;&#xa;xMKeacnCeAXJwhw9w8J81MHCZC7DwsBtxsJD9snCwh7JwjYwxcIdWcPCYpPCwny1xcIzF8rC2Q3H&#xD;&#xa;wgKov8LqJbnCBHW+wovIxcKYdcXCSkbHwkA5x8JZScLC1P3AwglGxsKgD8XCJknDwnjLxMIKOcXC&#xD;&#xa;2OTDwgPxxMJXeMXCooPEwsBJxMJ+ecTC8MfEwgKMx8JS4cbCTS3EwmKSvsJ0WcDCKy/EwllwxcJA&#xD;&#xa;PsvCgJ/bwlxp8MKINPPC9PrywhnO8MINru/CenzxwsSM88K8zvDCyOrvwvyo8sKM5PXC4H/6wrDg&#xD;&#xa;9cJaj/XC3I75wrYN+cJKF/nCUGr3wjD+98LEy/jCDu73wqF/98JmNffCFgb2wsZ69sKmcfTCiLP0&#xD;&#xa;wkIk98KStPbCF5/3wiSp+MIeH/LCBC7zwgTZ98I7TfbCm2X2wiJe98LCPffC2IX5wkzQ+cIovvfC&#xD;&#xa;oFn4wtCr+cLc2ffC4OP4wpxo+cJS7fvCWOz4wpxq/MJ8xvrCumn2wui598IFqvfCIJP4wr5A9sLo&#xD;&#xa;cfXCKNf3wpvI9sLArPfC++r2wpjX+MLChvbCfhj3whj098Ja9PjC2qn5wlr6+sL6GvnCGsv5wnTv&#xD;&#xa;+sLeY/bCEl/1wqCZ9cImnPTCIXv1wtoQ9sKgF/nCXAH6wvAP98IqzvfCLq74wpAe+MK0vvnCeoD6&#xD;&#xa;wmAz+MJkXvfCdOf3wqZA+MLcYPnC5J76wuwu+MIKAfbC83D3wqbp98LeWfbC/DP4wpgj+sJKzvjC&#xD;&#xa;hoL4wtAS9sIX2/PCFBv0wshk9cIrwvfCbuH6wgoa+sK8+PrCMiz7wspU+8IAD/rC7Pb4wqRu+cKE&#xD;&#xa;pPjCggj5wsip+cJYfvjCvp74wiRN+cJaL/nCIaT3wni29sLER/jCJGX2wubX9sLqlffCVfT2wiDd&#xD;&#xa;98JeWfnC7I/4wvjF+cJy5PnC4uD3wupO+cIYxvbCkMH4wpjA+MJbWfjCKJ/2wr5F98Io6vbCaQH4&#xD;&#xa;wkpj+cLcWfnC+q74wtyM98IG9vfC01D1wpbM9MLl5vfCfuH5wsP498JMpPnC3hn5wnRV+MImOPnC&#xD;&#xa;HPj4wlTa+MLyHvjC8x8Dw6/8UsIS8UTC3V5fwhqQaMJBN2jCpPRlwpxaacLhpGrCy+Fnwk8mbcI2&#xD;&#xa;fnXCgAR7wgoHfsJEIYXCB0WJwtI1isL3h4jC7vaIwrEbisKagoXCujmFwoo1hcJw4obCA8yEwpz2&#xD;&#xa;hcLr94bCn/uJwsY7jMKe5onCUR6Mwi6SjsK0OZDC7HyTwtNdk8K8XpLCRh6SwvU0k8LzRpLCuYKT&#xD;&#xa;woerk8KcTpTCEt6VwhQQlcLA75TCnLmVwj/umMLvL5rCuwebwqG/mcLhp5vCYDShwoqfn8J2LKDC&#xD;&#xa;OYmlwgwpo8LYWKHCE4Ggwr94nsL+zaDCC36nwugFqcLjJKrC/q2qwrbLqMKZUKfC6VWmwl7mqMI3&#xD;&#xa;i6nCSbakwhpGosLGkKPC3o+pwmzoqcKIVajCBq6swuPAq8II66nCHkaqwiGLq8KE6q3CgEWuwji+&#xD;&#xa;rcIWWKrC9BOqwg7MrMJc763ClCirwvLhq8KytrDC5FywwltsscLFrbDCZFarws7ap8J4zavCM+Kq&#xD;&#xa;wll+rsKiCbDCQ5qvwhtlr8KYfbHCINC0wkuXtMLambLClb2xwplascKDNLPCV7+1woRKt8IRwLTC&#xD;&#xa;CQOxwr8ysMIZ8LTCi0u0wnO/tcLWhrLCKnyrwqvwr8LK8LbCu4KzwvzzsMLOWbLC79mzwph4ssJk&#xD;&#xa;RrPCxMCzwusrssLCxbLCtoSzwrkdtcJ9CrTCZXC1wkRxtcL8F7bCzwy0wuTTssJJabPCGOCzwt1K&#xD;&#xa;tsLcU7HCaZ6xwpxEtsLIvbfCnzy1wgIassLG37LCtZ+zwt3Is8I4U7bCcQi1wmhitMKT6bPCO3qz&#xD;&#xa;wj+NscJYwrPCfDOzwmYJssJ8f7DCUk+xwviXsMLo0K/CNoqxwpcwr8Kur6zCCdyvwu8ItsKjUbjC&#xD;&#xa;3lu6wnrOtMIi5K/CLHKvwuwBs8KSPLPC+56wwhqdscITq7bCcCK6wrJ5uMKYwbXCKgC2wolatMJR&#xD;&#xa;/K3CBEOuwkpns8KtprjCWy67wjCfuMK/SLfCJ+Sxws87rcI0MrDCcQW4wpTfusJcI7nCcpC0wjOq&#xD;&#xa;s8KHVrTC7/KwwlBMsMI4H7XCT4K4wtoeusIE/LXCtIKzwoKcscLgZbLCssWxwpcqssLeD7bC8iW4&#xD;&#xa;wg7NvcLkPrzCnKi3whpruMKDPLbC7i22wkwqt8KeCbvCUyq9wt14vcJdw7zCQl69wqD0ucIvC7vC&#xD;&#xa;zFi8wqYFvcK3Lr/CGtLAwgEww8LfBsLCfMm7wuZ+uMKMk7XCEgW6wgriv8ICicHCIHTBwqxOwsLY&#xD;&#xa;TMPCfKrCwke6wMI+PL/CDVa/wiq5vcJgVL7CjKrCwv9dwsJodsDC2BDCwiDQwsIMTsbC/LvFwiVC&#xD;&#xa;xsLJ78XCstfAwl57tsK4pbfC8LjBwgQ/wsIUUMPCJG3DwqERw8K03cXCWgbEwiQav8Jnz7zCOnu7&#xD;&#xa;wl5LvcLcir/Ckq7DwpxexMJ4n8TCHT3EwjjywsLCn8PCWIXCwsT9v8JCk7/Cf/C0wjGessKOAL/C&#xD;&#xa;H1fIwgM7xsKi3sPCNsfCwmiCwcL7LcPCzG7EwiuwxcKt1MbCSbvGwr4UxMKe0cHCYlPEwnCNxMIM&#xD;&#xa;xMTCon/Fwobaw8K4AsXCkHrDwu3ywsK7+bzCvle4wh7IvsI8JsLC7bfEwgiLxcJWScTCIB3Dwhss&#xD;&#xa;xMJcVMnCOM7Iwog7w8IO58HCWibDwm9GxsKa3MnCCz/JwkCQxcKEg8PCC6rCwqWlxcLeFcrCGtrG&#xD;&#xa;wjyPv8LmSLnCeHG+wgbXxcILUcXCuAfHwsoux8K4KsLCH/DAwjcaxsKc9cTCJTjDwi7/xMLAdMXC&#xD;&#xa;JPTDwnoexcJ+SMXCcGjEwvd7xMI8h8TCRsLEwvh8x8KnKsfCnGXEwnifvsL9W8DC7iXEwp6XxcJO&#xD;&#xa;Y8vCWqXbwvz48MIDUPLCiwnxwuQN78LDovHCfYvzwkpH98JwIfbCOIXzwmMA9MLANvbC5G/4wqSg&#xD;&#xa;+sIsXfjCtX33wtbN9sKuSvXC5lX2wkHR9cIvVffC4vb5wo+898KG9PbCAMv1wm379sI0xvfCz8z2&#xD;&#xa;wmCX+MKCnfjC1D34wpiz98K6U/nCzhT7wjbP+MIMkPjCvIH4wiI+98KcfPfCaKn3wlCC+cI2dPnC&#xD;&#xa;HED3woaf9sJQNvnCajb7wqLQ+8LykffCZLn1wu5j98LXuvbCbH32wqap98I+4PfCysX4wkyT+MIc&#xD;&#xa;dPfCUkj3wnyY+cJYQvrCVCH5wtKC9sJfRvXCz/D2wu959MJtp/TC9DL2wsZt+MKi/vnCXCD6wnzK&#xD;&#xa;+cLC+/jCTDD4wsR59sJKCvfC9HD6wjZV+cIKZffC4Fj2wnjj+MJ2ifjC1uv4wkDc+MKiwfjC3AD6&#xD;&#xa;wnRJ+sKeg/nCDK73wooQ+MLkLvfCNhz4wrZt+sKugvjCLh/6wuz1+cIaMvjCC6n3wsZu+MJwd/rC&#xD;&#xa;ds/7wpyP9sIgFPbCapr6wtRL/sIwYfnCdOr3wqjR98KSDPrCQgT5wsLu+ML80PfCTvz1wnoS98JE&#xD;&#xa;TPfCQG74wgKk+cI7ovbCyWT4wvI5+sLX8vfCQZT2wvzC9sK8QPbCnO/4wlya+MIYzvXCcKL0wiEH&#xD;&#xa;98K+xPbCqz/2wjg0+MLsdfjC+Kn3wvw3+cLgQfbC3kr1wuLM9sLeUPbCijP0wq0k9sKQ/fnCBvf2&#xD;&#xa;wgs19sKMFPjC+sr4wi4W+sJquPbC1nz2wtLk+MI2QPfChPT3wp779sIKnfXCIin1wjrt9MLsmPTC&#xD;&#xa;JTL3wnos98KwYvfChR8D" leadInLength="0/1"  />
            </Keyframes>
           </Parameter>
           </Parameters>
           <MetaData>
            <entry key="effectIndex" val="0"/>
           </MetaData>
          </GenericEffect>
         </Effects>
         <Attributes>
          <Attribute id="6485" value="" name="ident"/>
          <Attribute id="6486" value="0" name="mixToMono"/>
         </Attributes>
         <MetaData>
          <entry key="WinSubProjectDisplayName" val=""/>
         </MetaData>
         <ExtraData>
          <Entry key="ZoomPanBin">
           <ZoomPanBin id="6487"  >
            <ZoomPanKeyframes>
             <ZoomPanKeyframe id="6488" timeRangeEnd="-9999999/1" timeRangeDuration="0/1" interpolaterName=""  />
            </ZoomPanKeyframes>
           </ZoomPanBin>
          </Entry>
          <Entry key="CursorEffectBin">
           <CursorEffectBin id="6489"  >
            <CursorEffectKeyframes>
            </CursorEffectKeyframes>
           </CursorEffectBin>
          </Entry>
         </ExtraData>
         <GenericTrack id="6490"  >
          <Attributes>
           <Attribute id="6491" value="" name="ident"/>
           <Attribute id="6492" value="0" name="audioMuted"/>
           <Attribute id="6493" value="0" name="videoHidden"/>
          </Attributes>
          <MetaData>
           <entry key="IsLocked" val="False"/>
           <entry key="WinTrackHeight" val="0"/>
          </MetaData>
          <Medias>
           <UnifiedMedia id="6494"  >
            <AMFile id="6495" start="0" duration="251" scalar="1/1" mediaStart="0/1" mediaDuration="251/1" trackNumber="2" src="7" channelNumber="0,1" >
             <Parameters>
              <InterpolatingParam id="6496" interp="linr"  time="0/1" value="1" leadInLength="0/1"  name="volume"/>
              <Parameter id="6497"  name="captions"/>
             </Parameters>
             <Attributes>
              <Attribute id="6498" value="" name="ident"/>
              <Attribute id="6499" value="44100" name="sampleRate"/>
              <Attribute id="6500" value="16" name="bitDepth"/>
              <Attribute id="6501" value="1" name="gain"/>
              <Attribute id="6502" value="0" name="mixToMono"/>
             </Attributes>
            </AMFile>
            <VMFile id="6503" start="0" duration="251" scalar="1/1" mediaStart="0/1" mediaDuration="251/1" trackNumber="1" src="7" >
             <Transformer>
              <VectorParam id="6504"  name="translation">
               <InterpolatingParam id="6505" interp="linr"  time="-9999999/1" value="0" leadInLength="0/1"  />
               <InterpolatingParam id="6506" interp="linr"  time="-9999999/1" value="0" leadInLength="0/1"  />
               <InterpolatingParam id="6507" interp="linr"  time="-9999999/1" value="0" leadInLength="0/1"  />
              </VectorParam>
              <VectorParam id="6508"  name="rotation">
               <InterpolatingParam id="6509" interp="linr"  time="-9999999/1" value="0" leadInLength="0/1"  />
               <InterpolatingParam id="6510" interp="linr"  time="-9999999/1" value="0" leadInLength="0/1"  />
               <InterpolatingParam id="6511" interp="linr"  time="-9999999/1" value="0" leadInLength="0/1"  />
              </VectorParam>
              <VectorParam id="6512"  name="shear">
               <InterpolatingParam id="6513" interp="linr"  time="-9999999/1" value="0" leadInLength="0/1"  />
               <InterpolatingParam id="6514" interp="linr"  time="-9999999/1" value="0" leadInLength="0/1"  />
               <InterpolatingParam id="6515" interp="linr"  time="-9999999/1" value="0" leadInLength="0/1"  />
              </VectorParam>
              <VectorParam id="6516"  name="scale">
               <InterpolatingParam id="6517" interp="linr"  time="-9999999/1" value="1" leadInLength="0/1"  />
               <InterpolatingParam id="6518" interp="linr"  time="-9999999/1" value="1" leadInLength="0/1"  />
               <InterpolatingParam id="6519" interp="linr"  time="-9999999/1" value="1" leadInLength="0/1"  />
              </VectorParam>
              <VectorParam id="6520"  name="anchor">
               <InterpolatingParam id="6521" interp="linr"  time="0/1" value="0" leadInLength="0/1"  />
               <InterpolatingParam id="6522" interp="linr"  time="0/1" value="0" leadInLength="0/1"  />
               <InterpolatingParam id="6523" interp="linr"  time="0/1" value="0" leadInLength="0/1"  />
              </VectorParam>
             </Transformer>
             <Parameters>
              <VectorParam id="6524"  name="sourceCrop">
               <InterpolatingParam id="6525" interp="linr"  time="0/1" value="0" leadInLength="0/1"  />
               <InterpolatingParam id="6526" interp="linr"  time="0/1" value="0" leadInLength="0/1"  />
               <InterpolatingParam id="6527" interp="linr"  time="0/1" value="0" leadInLength="0/1"  />
               <InterpolatingParam id="6528" interp="linr"  time="0/1" value="0" leadInLength="0/1"  />
              </VectorParam>
              <VectorParam id="6529"  name="geometryCrop">
               <InterpolatingParam id="6530" interp="linr"  time="-9999999/1" value="0" leadInLength="0/1"  />
               <InterpolatingParam id="6531" interp="linr"  time="-9999999/1" value="0" leadInLength="0/1"  />
               <InterpolatingParam id="6532" interp="linr"  time="-9999999/1" value="0" leadInLength="0/1"  />
               <InterpolatingParam id="6533" interp="linr"  time="-9999999/1" value="0" leadInLength="0/1"  />
              </VectorParam>
              <InterpolatingParam id="6534" interp="linr"  time="-9999999/1" value="1" leadInLength="0/1"  name="opacity"/>
             </Parameters>
             <Attributes>
              <Attribute id="6535" value="" name="ident"/>
             </Attributes>
             <ExtraData>
              <Entry key="ZoomPanBin">
               <ZoomPanBin id="6536"  >
                <ZoomPanKeyframes>
                 <ZoomPanKeyframe id="6537" timeRangeEnd="-9999999/1" timeRangeDuration="0/1" interpolaterName=""  />
                </ZoomPanKeyframes>
               </ZoomPanBin>
              </Entry>
             </ExtraData>
            </VMFile>
            <MetaData>
             <entry key="WinSubProjectDisplayName" val=""/>
            </MetaData>
           </UnifiedMedia>
           <UnifiedMedia id="6538"  >
            <AMFile id="6539" start="251" duration="125" scalar="1/1" mediaStart="257/1" mediaDuration="125/1" trackNumber="2" src="7" channelNumber="0,1" >
             <Parameters>
              <InterpolatingParam id="6540" interp="linr"  time="0/1" value="1" leadInLength="0/1"  name="volume"/>
              <Parameter id="6541"  name="captions"/>
             </Parameters>
             <Attributes>
              <Attribute id="6542" value="" name="ident"/>
              <Attribute id="6543" value="44100" name="sampleRate"/>
              <Attribute id="6544" value="16" name="bitDepth"/>
              <Attribute id="6545" value="1" name="gain"/>
              <Attribute id="6546" value="0" name="mixToMono"/>
             </Attributes>
            </AMFile>
            <VMFile id="6547" start="251" duration="125" scalar="1/1" mediaStart="257/1" mediaDuration="125/1" trackNumber="1" src="7" >
             <Transformer>
              <VectorParam id="6548"  name="translation">
               <InterpolatingParam id="6549" interp="linr"  time="-9999999/1" value="0" leadInLength="0/1"  />
               <InterpolatingParam id="6550" interp="linr"  time="-9999999/1" value="0" leadInLength="0/1"  />
               <InterpolatingParam id="6551" interp="linr"  time="-9999999/1" value="0" leadInLength="0/1"  />
              </VectorParam>
              <VectorParam id="6552"  name="rotation">
               <InterpolatingParam id="6553" interp="linr"  time="-9999999/1" value="0" leadInLength="0/1"  />
               <InterpolatingParam id="6554" interp="linr"  time="-9999999/1" value="0" leadInLength="0/1"  />
               <InterpolatingParam id="6555" interp="linr"  time="-9999999/1" value="0" leadInLength="0/1"  />
              </VectorParam>
              <VectorParam id="6556"  name="shear">
               <InterpolatingParam id="6557" interp="linr"  time="-9999999/1" value="0" leadInLength="0/1"  />
               <InterpolatingParam id="6558" interp="linr"  time="-9999999/1" value="0" leadInLength="0/1"  />
               <InterpolatingParam id="6559" interp="linr"  time="-9999999/1" value="0" leadInLength="0/1"  />
              </VectorParam>
              <VectorParam id="6560"  name="scale">
               <InterpolatingParam id="6561" interp="linr"  time="-9999999/1" value="1" leadInLength="0/1"  />
               <InterpolatingParam id="6562" interp="linr"  time="-9999999/1" value="1" leadInLength="0/1"  />
               <InterpolatingParam id="6563" interp="linr"  time="-9999999/1" value="1" leadInLength="0/1"  />
              </VectorParam>
              <VectorParam id="6564"  name="anchor">
               <InterpolatingParam id="6565" interp="linr"  time="0/1" value="0" leadInLength="0/1"  />
               <InterpolatingParam id="6566" interp="linr"  time="0/1" value="0" leadInLength="0/1"  />
               <InterpolatingParam id="6567" interp="linr"  time="0/1" value="0" leadInLength="0/1"  />
              </VectorParam>
             </Transformer>
             <Parameters>
              <VectorParam id="6568"  name="sourceCrop">
               <InterpolatingParam id="6569" interp="linr"  time="0/1" value="0" leadInLength="0/1"  />
               <InterpolatingParam id="6570" interp="linr"  time="0/1" value="0" leadInLength="0/1"  />
               <InterpolatingParam id="6571" interp="linr"  time="0/1" value="0" leadInLength="0/1"  />
               <InterpolatingParam id="6572" interp="linr"  time="0/1" value="0" leadInLength="0/1"  />
              </VectorParam>
              <VectorParam id="6573"  name="geometryCrop">
               <InterpolatingParam id="6574" interp="linr"  time="-9999999/1" value="0" leadInLength="0/1"  />
               <InterpolatingParam id="6575" interp="linr"  time="-9999999/1" value="0" leadInLength="0/1"  />
               <InterpolatingParam id="6576" interp="linr"  time="-9999999/1" value="0" leadInLength="0/1"  />
               <InterpolatingParam id="6577" interp="linr"  time="-9999999/1" value="0" leadInLength="0/1"  />
              </VectorParam>
              <InterpolatingParam id="6578" interp="linr"  time="-9999999/1" value="1" leadInLength="0/1"  name="opacity"/>
             </Parameters>
             <Attributes>
              <Attribute id="6579" value="" name="ident"/>
             </Attributes>
             <ExtraData>
              <Entry key="ZoomPanBin">
               <ZoomPanBin id="6580"  >
                <ZoomPanKeyframes>
                 <ZoomPanKeyframe id="6581" timeRangeEnd="-9999999/1" timeRangeDuration="0/1" interpolaterName=""  />
                </ZoomPanKeyframes>
               </ZoomPanBin>
              </Entry>
             </ExtraData>
            </VMFile>
            <MetaData>
             <entry key="WinSubProjectDisplayName" val=""/>
            </MetaData>
           </UnifiedMedia>
           <UnifiedMedia id="6582"  >
            <AMFile id="6583" start="376" duration="121" scalar="1/1" mediaStart="394/1" mediaDuration="121/1" trackNumber="2" src="7" channelNumber="0,1" >
             <Parameters>
              <InterpolatingParam id="6584" interp="linr"  time="0/1" value="1" leadInLength="0/1"  name="volume"/>
              <Parameter id="6585"  name="captions"/>
             </Parameters>
             <Attributes>
              <Attribute id="6586" value="" name="ident"/>
              <Attribute id="6587" value="44100" name="sampleRate"/>
              <Attribute id="6588" value="16" name="bitDepth"/>
              <Attribute id="6589" value="1" name="gain"/>
              <Attribute id="6590" value="0" name="mixToMono"/>
             </Attributes>
            </AMFile>
            <VMFile id="6591" start="376" duration="121" scalar="1/1" mediaStart="394/1" mediaDuration="121/1" trackNumber="1" src="7" >
             <Transformer>
              <VectorParam id="6592"  name="translation">
               <InterpolatingParam id="6593" interp="linr"  time="-9999999/1" value="0" leadInLength="0/1"  />
               <InterpolatingParam id="6594" interp="linr"  time="-9999999/1" value="0" leadInLength="0/1"  />
               <InterpolatingParam id="6595" interp="linr"  time="-9999999/1" value="0" leadInLength="0/1"  />
              </VectorParam>
              <VectorParam id="6596"  name="rotation">
               <InterpolatingParam id="6597" interp="linr"  time="-9999999/1" value="0" leadInLength="0/1"  />
               <InterpolatingParam id="6598" interp="linr"  time="-9999999/1" value="0" leadInLength="0/1"  />
               <InterpolatingParam id="6599" interp="linr"  time="-9999999/1" value="0" leadInLength="0/1"  />
              </VectorParam>
              <VectorParam id="6600"  name="shear">
               <InterpolatingParam id="6601" interp="linr"  time="-9999999/1" value="0" leadInLength="0/1"  />
               <InterpolatingParam id="6602" interp="linr"  time="-9999999/1" value="0" leadInLength="0/1"  />
               <InterpolatingParam id="6603" interp="linr"  time="-9999999/1" value="0" leadInLength="0/1"  />
              </VectorParam>
              <VectorParam id="6604"  name="scale">
               <InterpolatingParam id="6605" interp="linr"  time="-9999999/1" value="1" leadInLength="0/1"  />
               <InterpolatingParam id="6606" interp="linr"  time="-9999999/1" value="1" leadInLength="0/1"  />
               <InterpolatingParam id="6607" interp="linr"  time="-9999999/1" value="1" leadInLength="0/1"  />
              </VectorParam>
              <VectorParam id="6608"  name="anchor">
               <InterpolatingParam id="6609" interp="linr"  time="0/1" value="0" leadInLength="0/1"  />
               <InterpolatingParam id="6610" interp="linr"  time="0/1" value="0" leadInLength="0/1"  />
               <InterpolatingParam id="6611" interp="linr"  time="0/1" value="0" leadInLength="0/1"  />
              </VectorParam>
             </Transformer>
             <Parameters>
              <VectorParam id="6612"  name="sourceCrop">
               <InterpolatingParam id="6613" interp="linr"  time="0/1" value="0" leadInLength="0/1"  />
               <InterpolatingParam id="6614" interp="linr"  time="0/1" value="0" leadInLength="0/1"  />
               <InterpolatingParam id="6615" interp="linr"  time="0/1" value="0" leadInLength="0/1"  />
               <InterpolatingParam id="6616" interp="linr"  time="0/1" value="0" leadInLength="0/1"  />
              </VectorParam>
              <VectorParam id="6617"  name="geometryCrop">
               <InterpolatingParam id="6618" interp="linr"  time="-9999999/1" value="0" leadInLength="0/1"  />
               <InterpolatingParam id="6619" interp="linr"  time="-9999999/1" value="0" leadInLength="0/1"  />
               <InterpolatingParam id="6620" interp="linr"  time="-9999999/1" value="0" leadInLength="0/1"  />
               <InterpolatingParam id="6621" interp="linr"  time="-9999999/1" value="0" leadInLength="0/1"  />
              </VectorParam>
              <InterpolatingParam id="6622" interp="linr"  time="-9999999/1" value="1" leadInLength="0/1"  name="opacity"/>
             </Parameters>
             <Attributes>
              <Attribute id="6623" value="" name="ident"/>
             </Attributes>
             <ExtraData>
              <Entry key="ZoomPanBin">
               <ZoomPanBin id="6624"  >
                <ZoomPanKeyframes>
                 <ZoomPanKeyframe id="6625" timeRangeEnd="-9999999/1" timeRangeDuration="0/1" interpolaterName=""  />
                </ZoomPanKeyframes>
               </ZoomPanBin>
              </Entry>
             </ExtraData>
            </VMFile>
            <MetaData>
             <entry key="WinSubProjectDisplayName" val=""/>
            </MetaData>
           </UnifiedMedia>
           <UnifiedMedia id="6626"  >
            <AMFile id="6627" start="497" duration="288" scalar="1/1" mediaStart="533/1" mediaDuration="288/1" trackNumber="2" src="7" channelNumber="0,1" >
             <Parameters>
              <InterpolatingParam id="6628" interp="linr"  time="0/1" value="1" leadInLength="0/1"  name="volume"/>
              <Parameter id="6629"  name="captions"/>
             </Parameters>
             <Attributes>
              <Attribute id="6630" value="" name="ident"/>
              <Attribute id="6631" value="44100" name="sampleRate"/>
              <Attribute id="6632" value="16" name="bitDepth"/>
              <Attribute id="6633" value="1" name="gain"/>
              <Attribute id="6634" value="0" name="mixToMono"/>
             </Attributes>
            </AMFile>
            <VMFile id="6635" start="497" duration="288" scalar="1/1" mediaStart="533/1" mediaDuration="288/1" trackNumber="1" src="7" >
             <Transformer>
              <VectorParam id="6636"  name="translation">
               <InterpolatingParam id="6637" interp="linr"  time="-9999999/1" value="0" leadInLength="0/1"  />
               <InterpolatingParam id="6638" interp="linr"  time="-9999999/1" value="0" leadInLength="0/1"  />
               <InterpolatingParam id="6639" interp="linr"  time="-9999999/1" value="0" leadInLength="0/1"  />
              </VectorParam>
              <VectorParam id="6640"  name="rotation">
               <InterpolatingParam id="6641" interp="linr"  time="-9999999/1" value="0" leadInLength="0/1"  />
               <InterpolatingParam id="6642" interp="linr"  time="-9999999/1" value="0" leadInLength="0/1"  />
               <InterpolatingParam id="6643" interp="linr"  time="-9999999/1" value="0" leadInLength="0/1"  />
              </VectorParam>
              <VectorParam id="6644"  name="shear">
               <InterpolatingParam id="6645" interp="linr"  time="-9999999/1" value="0" leadInLength="0/1"  />
               <InterpolatingParam id="6646" interp="linr"  time="-9999999/1" value="0" leadInLength="0/1"  />
               <InterpolatingParam id="6647" interp="linr"  time="-9999999/1" value="0" leadInLength="0/1"  />
              </VectorParam>
              <VectorParam id="6648"  name="scale">
               <InterpolatingParam id="6649" interp="linr"  time="-9999999/1" value="1" leadInLength="0/1"  />
               <InterpolatingParam id="6650" interp="linr"  time="-9999999/1" value="1" leadInLength="0/1"  />
               <InterpolatingParam id="6651" interp="linr"  time="-9999999/1" value="1" leadInLength="0/1"  />
              </VectorParam>
              <VectorParam id="6652"  name="anchor">
               <InterpolatingParam id="6653" interp="linr"  time="0/1" value="0" leadInLength="0/1"  />
               <InterpolatingParam id="6654" interp="linr"  time="0/1" value="0" leadInLength="0/1"  />
               <InterpolatingParam id="6655" interp="linr"  time="0/1" value="0" leadInLength="0/1"  />
              </VectorParam>
             </Transformer>
             <Parameters>
              <VectorParam id="6656"  name="sourceCrop">
               <InterpolatingParam id="6657" interp="linr"  time="0/1" value="0" leadInLength="0/1"  />
               <InterpolatingParam id="6658" interp="linr"  time="0/1" value="0" leadInLength="0/1"  />
               <InterpolatingParam id="6659" interp="linr"  time="0/1" value="0" leadInLength="0/1"  />
               <InterpolatingParam id="6660" interp="linr"  time="0/1" value="0" leadInLength="0/1"  />
              </VectorParam>
              <VectorParam id="6661"  name="geometryCrop">
               <InterpolatingParam id="6662" interp="linr"  time="-9999999/1" value="0" leadInLength="0/1"  />
               <InterpolatingParam id="6663" interp="linr"  time="-9999999/1" value="0" leadInLength="0/1"  />
               <InterpolatingParam id="6664" interp="linr"  time="-9999999/1" value="0" leadInLength="0/1"  />
               <InterpolatingParam id="6665" interp="linr"  time="-9999999/1" value="0" leadInLength="0/1"  />
              </VectorParam>
              <InterpolatingParam id="6666" interp="linr"  time="-9999999/1" value="1" leadInLength="0/1"  name="opacity"/>
             </Parameters>
             <Attributes>
              <Attribute id="6667" value="" name="ident"/>
             </Attributes>
             <ExtraData>
              <Entry key="ZoomPanBin">
               <ZoomPanBin id="6668"  >
                <ZoomPanKeyframes>
                 <ZoomPanKeyframe id="6669" timeRangeEnd="-9999999/1" timeRangeDuration="0/1" interpolaterName=""  />
                </ZoomPanKeyframes>
               </ZoomPanBin>
              </Entry>
             </ExtraData>
            </VMFile>
            <MetaData>
             <entry key="WinSubProjectDisplayName" val=""/>
            </MetaData>
           </UnifiedMedia>
          </Medias>
         </GenericTrack>
        </StitchedMedia>
        <StitchedMedia id="6670" start="498" duration="249" scalar="1/1" mediaStart="1208/1" mediaDuration="249/1" minMediaStart="0/1" >
         <Transformer>
          <VectorParam id="6671"  name="translation">
           <InterpolatingParam id="6672" interp="linr"  time="-9999999/1" value="283.11095472441303" leadInLength="0/1"  />
           <InterpolatingParam id="6673" interp="linr"  time="-9999999/1" value="-103.37171592831385" leadInLength="0/1"  />
           <InterpolatingParam id="6674" interp="linr"  time="-9999999/1" value="3.4106051316488567e-010" leadInLength="0/1"  />
          </VectorParam>
          <VectorParam id="6675"  name="rotation">
           <InterpolatingParam id="6676" interp="linr"  time="-9999999/1" value="0" leadInLength="0/1"  />
           <InterpolatingParam id="6677" interp="linr"  time="-9999999/1" value="0" leadInLength="0/1"  />
           <InterpolatingParam id="6678" interp="linr"  time="-9999999/1" value="0" leadInLength="0/1"  />
          </VectorParam>
          <VectorParam id="6679"  name="shear">
           <InterpolatingParam id="6680" interp="linr"  time="-9999999/1" value="0" leadInLength="0/1"  />
           <InterpolatingParam id="6681" interp="linr"  time="-9999999/1" value="0" leadInLength="0/1"  />
           <InterpolatingParam id="6682" interp="linr"  time="-9999999/1" value="0" leadInLength="0/1"  />
          </VectorParam>
          <VectorParam id="6683"  name="scale">
           <InterpolatingParam id="6684" interp="linr"  time="-9999999/1" value="0.97101806240038402" leadInLength="0/1"  />
           <InterpolatingParam id="6685" interp="linr"  time="-9999999/1" value="0.97101806240038413" leadInLength="0/1"  />
           <InterpolatingParam id="6686" interp="linr"  time="-9999999/1" value="1" leadInLength="0/1"  />
          </VectorParam>
          <VectorParam id="6687"  name="anchor">
           <InterpolatingParam id="6688" interp="linr"  time="0/1" value="0" leadInLength="0/1"  />
           <InterpolatingParam id="6689" interp="linr"  time="0/1" value="0" leadInLength="0/1"  />
           <InterpolatingParam id="6690" interp="linr"  time="0/1" value="0" leadInLength="0/1"  />
          </VectorParam>
         </Transformer>
         <Parameters>
          <VectorParam id="6691"  name="sourceCrop">
           <InterpolatingParam id="6692" interp="linr"  time="0/1" value="0" leadInLength="0/1"  />
           <InterpolatingParam id="6693" interp="linr"  time="0/1" value="0" leadInLength="0/1"  />
           <InterpolatingParam id="6694" interp="linr"  time="0/1" value="0" leadInLength="0/1"  />
           <InterpolatingParam id="6695" interp="linr"  time="0/1" value="0" leadInLength="0/1"  />
          </VectorParam>
          <VectorParam id="6696"  name="geometryCrop">
           <InterpolatingParam id="6697" interp="linr"  time="-9999999/1" value="122.14285714489574" leadInLength="0/1"  />
           <InterpolatingParam id="6698" interp="linr"  time="-9999999/1" value="0" leadInLength="0/1"  />
           <InterpolatingParam id="6699" interp="linr"  time="-9999999/1" value="0" leadInLength="0/1"  />
           <InterpolatingParam id="6700" interp="linr"  time="-9999999/1" value="44.999999999983515" leadInLength="0/1"  />
          </VectorParam>
          <InterpolatingParam id="6701" interp="linr"  time="-9999999/1" value="1" leadInLength="0/1"  name="opacity"/>
          <InterpolatingParam id="6702" interp="linr"  time="0/1" value="1" leadInLength="0/1"  name="cursorOpacity"/>
          <InterpolatingParam id="6703" interp="linr"  time="0/1" value="1" leadInLength="0/1"  name="cursorScale"/>
          <InterpolatingParam id="6704" interp="linr"  time="0/1" value="1" leadInLength="0/1"  name="volume"/>
          <Parameter id="6705"  name="captions"/>
         </Parameters>
         <Effects>
          <GenericEffect id="6706" name = "NoiseReduction" >
           <Parameters>
           <InterpolatingParam id="6707" interp="linr"  time="0/1" value="27.599999999999998" leadInLength="0/1"   name="denoiserAmount"/>
           <InterpolatingParam id="6708" interp="linr"  time="0/1" value="2.2799999999999994" leadInLength="0/1"   name="denoiserThreshold"/>
           <Parameter id="6709"   name="noiseProfile">
            <Keyframes>
            <Keyframe id="6710"  time="0/1" value="FBAAAAIAAABErAAAAQIAAIscTsKcJj/CGs1YwlN/YcIWsmTCZVhiwqTCZ8LhQnHC9C50wkwabsI6&#xD;&#xa;tnDC6mN3wlAafcKqr3zCKjCAwqjngsKt+4PCEmyCwmmLhcJvfYbCHFqGwu2jhsLKVYTCmbSCwjMq&#xD;&#xa;hsK+gobCdYyHwrJgjcK3k4vCgLOKwnSWjsIGwJHCK0GSwvqxkMLw45DCLG+QwlSeksJJnZLCh+ON&#xD;&#xa;whsejcJWgIzCbP2MwriPi8J9nIvCpweNwof6jcJkHZHCR3KQwiC8kcLGEZTCzoqWwog4mMLTv5rC&#xD;&#xa;qnuZwhgcmcJsrZXCKQyVwhUNlMJv45HCrVSTwqf7kcIYa5HCtDyXwvIfmcJEzpnC/iyYwv82l8KU&#xD;&#xa;75bCorWSwjuKlMIz+5bCGPmYwsIGmsLP+ZjCYwuYwrGvmMJmVZzCNYuZwhNsl8JFAZvCDUKdwkaM&#xD;&#xa;ncIA35zC4IafwnkUnMJX85nCMX6dwl12n8IAQp/CvtWhwg9uo8Kh16LCCn2fwmjXnsIUIZ/C0hKh&#xD;&#xa;wsV0pMIdgKDChqagwhwRpcIij6fC0PKkwum6oMILR6HCWNShwhKXocLa9Z/C2gugwizPoMLyU6HC&#xD;&#xa;H2+iwh4SpMLjA6TCiICnwrwPqsI35KfCHhykwlAip8Lu2qnC7IurwmB9rcKPsKzCpq+qwj4eqsKT&#xD;&#xa;IanCfgqpwqQ8rMJo16rCBJiqwgpcq8LTNKvCvJKtwlplrMKcjKzCeTKswinzrMLGs63Cdpytwtyh&#xD;&#xa;q8KDVqrC4nqswiCUr8JuFa7Cqyuwwqbbr8Ion7DCfDizwgLCr8IfVq7CfMivwqmbr8JATazC8Oaq&#xD;&#xa;wtkxrcLmyK3CvNCuwt6orcLt0K3CHaeqwvnwqMJN4KrCkEqqwo85qsJsaqnCWp+pwnBKrMIYba7C&#xD;&#xa;sXeuwpzYrsJ5m6zCRsGrwrw4rcIMIK/CddauwjhbqsKUEqvCJk2rwmH2q8KpzK3CJ52uwurkqsLE&#xD;&#xa;Z6fCIjWqwvjorcLEd7HCP9GwwmU0sMLVbrHCcmWywlFDssIOK7PC7NexwnS8ssIxIrHCOPmwwqi3&#xD;&#xa;s8JS7LPCjweywlexs8LrIrLClUCxwspMsMKUhLPCAuu1wsytt8JQ0rjCwOe1wigNt8KkD7nCq3m3&#xD;&#xa;wquYt8Im57bCxCG4wlDluMJUjbjCXp65wraYuMKYNLnCMry6wrzaucK0srnCXwm4wlYrucKaMrnC&#xD;&#xa;9gi2wuT4t8IMu7vCfEy6wnL+usKLJbjC4oK2whRitsIU37TCdjS5wuQPvMJxU7vCosK8wqZpvcJ7&#xD;&#xa;v7zCFLW7wlREvsIYiLzCUlq7wia+u8Je2LzCII+8wq6FvMJN1LvCOLS7wsxqvMLMrb3C0tq8whYh&#xD;&#xa;u8LaSrzCMhy/wlnatcLSy7bCtj69wnzovcIuQL3Cmk+8whLQu8LKoLnCRnC7wuL3vcI2q73CbDy/&#xD;&#xa;wtYnvcJMMLzC1Gy7wlwNu8J4f73CJES9wigIvcIwyrzCgmu9wtzUusLc1bfCvgi1wkSftMKXhbrC&#xD;&#xa;MF68wp1KvsLnub7CguC+wjoXvMJmyrnChiC7wpgfv8JmHr3Cx1W6wlaPvMLB173CfZS7wkQsusKm&#xD;&#xa;NLzCyvi9wmDGv8LZ7r/Cu6e8wpBAvMLlobXCX1WxwqYbusKmMr7CUhS7ws51u8JZQ7zCvMm7wn54&#xD;&#xa;v8LC4MDCXEu+wukbv8KYmr7CsLy9wrDgusIw4LzCL+W9woTwu8Kof73C6YDAwovZvsJUy77CYo2+&#xD;&#xa;wvDSucIQDrTC+2+6wjS/vsI0PbzCl8K8wpfjvsLwp73C7IG9wuU8vcLyQ73Cmmi+wnqpvsISVr3C&#xD;&#xa;hOHAwoZtw8KYt8HCYXa9wqy7vcISnb7CtGC9wsJ+v8JIFMHC4Si+wlAeu8Lq7LzC/WO9woYvwcIC&#xD;&#xa;qcjCmE3SwkQB3cL89NTCw/7Xwkvi4cKAWuDC6hXdwnoz3MIYJdXCopjQwokV0cKU/NPCmqvTwkRo&#xD;&#xa;2sJ8k93CVjDUwt6L18JMV97Ccr3fwqye38J1F9nClCXZwqyc2cIHItnCnF3WwoOL28KRAdjCnCfU&#xD;&#xa;wnRC2cL2QeLCEgvowjrS6sJs7/DCpDb5wuBm+sLMWPnCPsr4wraT+sJMxffCpVn2wtB998JWh/fC&#xD;&#xa;uk35wvZM98LIUPfCsl72wlJW4MI07NTCHV3Uwpo+zsKchs7CcPLVwry42MIKA9nCBH3WwjzQz8LA&#xD;&#xa;5c3CvvTRwkgi08KUO9TCO6zWwv8L1sL6HdXCuFzZwsxl58IGlPbCuln4wrzk98LG7/bC2rD1wm6l&#xD;&#xa;98ICrPPCBvz0wvqD98JhLPbC8qf2wnRT+cIA2ffCqKb2ws299sLcNvbCzSf1whBm98LsP/bClIv3&#xD;&#xa;wuvH98I8X/nCfrj4wsoY+cIU0fjCImH5wkL++sLYe/vC7KT6wuJB+8LiVP3C9HT6wuug98KTmffC&#xD;&#xa;Luj3woxd98LKpPfCmmP4wkTQ98J/W/fCenj1wljL9MIRQ/fCwEv2wkjw9sI+dfrCXpj4wpes98JG&#xD;&#xa;xPbCyED4wvQr+cLC6PrCip38wtpn+sJunfjCHEb6wjzH+cI+gPjC2nf4wurA98KQ8vfCgM32wsIx&#xD;&#xa;+MLH3PfCcDX7wnCC/cIOUPrC+2b1wkI59sLiePXCiEj1wpQr+sKGvvvCSFf4wnK09sIU/vTCJjL2&#xD;&#xa;wjI7+MKgS/XCwAz1wiKn+sJwh/jCPkv5wuqE98JUsfTCNnv3wpRW+cIIZPnCbAL5wjrK+ML+L/fC&#xD;&#xa;ZGr4wkZK+MKB2/bCV5sCw/w2TsLFPj/C89hYwpZ/YcL2sGTCdVhiwsfEZ8KMRHHCTi90wqcabsKX&#xD;&#xa;tnDC8mF3wnYYfcIcr3zCHTCAwv3ogsLy/IPCdW2CwimNhcIyfobCpViGwvGjhsJ9VYTCK7SCwtQp&#xD;&#xa;hsIMgobCKo2HwuVgjcJElIvCzbSKwv2VjsLewJHC/T2SwoaukMIU5ZDCLnOQwjyiksLOnJLClOCN&#xD;&#xa;woUcjcIlf4zClfyMwkSPi8INm4vC0QWNwlP3jcL4GpHCmnKQwk69kcIwE5TCnoyWwv80mMLau5rC&#xD;&#xa;vHuZwtgZmcIxrJXCpwuVwvoMlMIr4ZHCMU6Twiz5kcLzapHCrj6Xws8dmcLv0ZnCTyqYwsosl8Ll&#xD;&#xa;75bC9raSwveLlMJB+JbCtfqYwnkLmsIy/ZjClg+Ywv6wmMITVZzCNI2Zwhhsl8JR/prCuUWdwlaK&#xD;&#xa;ncLO2ZzCOImfwrwanMJS+pnC74qdwmt9n8IASJ/CVN2hwj9no8Lg2aLC9Yifwn7insLIIp/CvAqh&#xD;&#xa;wlBtpMLdgKDCxaigwigUpcLQhqfCOvSkwljKoMKTT6HCUNWhws+locI6CKDCEgygwk3NoMK6VqHC&#xD;&#xa;dH+iwgInpMKrEKTCtYOnwlQPqsLS9qfCgC6kwnovp8KA36nCynerwrl4rcLjp6zCWq2qwlktqsK2&#xD;&#xa;NqnC6CmpwgJfrMLs86rCUKWqwrBsq8LgSavCUX6twsGCrMJAuKzC21aswjgjrcLEw63CSdytwvLy&#xD;&#xa;q8LKZarCZqGswlrqr8J8aq7CYJ6wwncOsMIw1LDCO3azwgHSr8KK5K7Ctx+wwunUr8J7ZazCqy6r&#xD;&#xa;wqB6rcL+N67ClgqvwkN0rcKE5q3C0QarwqNBqcKj8arCKVWqwvxlqsIzkqnCD72pwp5drMLvdK7C&#xD;&#xa;dn6uwoUXr8LM7azCReyrwuljrcIzg6/Cy/yuwstwqsKXH6vCp1OrwlwPrMLfuK3CyaGuwpQVq8IQ&#xD;&#xa;vKfCDneqwgcyrsKI5LHCfhOxwsY4sMJoWLHCXX+ywgY7ssJE/LLCTI+xwrW2ssL0qrHCSHyxwlHC&#xD;&#xa;s8L2KLTCSpWywi43tMJiSLLC8FSxwvlRsMJ5rLPCHte1wjwJuMJGibnCtGS2wl+Jt8IqqLjCzca2&#xD;&#xa;wrIft8IyIbfCjMu4wm78uMK9zLjCnj66wkNEucKyibnCRCa7wtAhusIevrnCrHy4wviPucLrZbnC&#xD;&#xa;1hi2wpJXuMIMFLzCjB67wrvDu8IWFbnCcH+3wgFGt8KMP7XCxjy5wqADvMIInrvC+Fm9woHjvMI0&#xD;&#xa;kLzCsJC7wrJQvsLytbzCvGS7wvS/u8Ky1rzCNoK8wu6TvMIQu7vCrL27wj56vMJ7vb3Cgda8wtol&#xD;&#xa;u8JTbrzCmDC/wvWztcJ+trbCNDe9wgnLvcKYOb3Cvky8wga6u8Jbd7nCNni7wmIZvsJkxL3Ctim/&#xD;&#xa;wggLvcJ+ALzCTDe7wonhusJBUr3CWB+9wj77vML987zCnX29wtLjusIS2LfCrPa0wmF9tMJBdrrC&#xD;&#xa;7G+8wkC/vsLbxL7CJoC+wjTju8JmtbnChwS7wpZIv8KuUr3CKnG6wpC3vMINCb7Cc8G7wthnusIE&#xD;&#xa;RLzC5vm9wkx3v8IIv7/Ccbi8whFxvML1l7XCNkaxwgQausKqXL7Cwl+7wkBou8KsLbzC5d67wshh&#xD;&#xa;v8KfDMHCvHa+wrIjv8INjr7CWX+9wrTPusI3/bzCsO+9wpwgvMJGlL3CrnfAwl7LvsJf0L7CNKK+&#xD;&#xa;wqrQucJXEbTCLGe6wh3TvsIsY7zCDs68wsnmvsLl0L3C0re9wpNDvcLwPb3CWj6+wkyKvsISSr3C&#xD;&#xa;YtPAwkr9wsLda8HCfna9wii5vcJup77CV2C9wuhtv8LCwsDCtxS+wj0Xu8J+6rzC7kG9whAAwcIA&#xD;&#xa;NMjC5KHRwvZs3MICsdTC+kLYwvKG4sIOBOHCDxXewuTE3ML2kdXC3ubQwsJh0cKoy9PCYIzTwpFZ&#xD;&#xa;2sK+Gd3C0DjUwiRb18L4eN3CScXewjr93sIMsNnCubjZwjMn2cIckdjC0BfWwozP2sJdptfCilHU&#xD;&#xa;wpPr2cIAw+HCpt3mwsBD68KYzPPCrJ36whi1+sLYufnCCMr5wpwR/MKclv3CfLv4wka/88LU/fTC&#xD;&#xa;3PP3wrp++cLYevjCYgf1wq6l4MLestTCYAnUwlumzsKszc7C1+rVwur+18LgztjCuQDXwgr8z8LV&#xD;&#xa;Ls7CDpPSwvOl08KqL9TCUgXXwuoq1sImX9XCAKjYwtD45sKCc/fCrbr2wmTv9MKSufTC/gD3wl4t&#xD;&#xa;+MIaB/nC1pb2wipJ9sKKfvnC9PT7wlgo+8Ly//nCdLv5whr5+MIm9PbC9J32wrZY+MJuGfnCEsX7&#xD;&#xa;wgbG/cJUEPnC8GT1wnqo9cIwtPfCcJH3whT5+MJghffCynH6ws7e98J4jPbCt3T3wjZK98L0RfjC&#xD;&#xa;6Cr4wsrc+MKO/PjCRNT5wqgW+MI08PjCWFX5wgB++sIUF/vCkvX3wjZu+MLO2/nCpnf4wv+29cJ1&#xD;&#xa;s/XCPNn4wovD98IwL/fC5iT4wmxS+sJbNvjCWHL4wpCV+MJGD/rC0qT6wtYk+8KSwfjCnMX3wuT1&#xD;&#xa;9cJdP/fCVtL3wqj9+MKkhPbCLKn0wuzY9cLIF/XCmFT5wnqi+sIUvfjCl7f2wsA09sK9TffCHaD0&#xD;&#xa;woNN88Iyi/XC6oz1wqLt9sKQF/bCcxv2wll498I0svfCtq74wuYQ+sJ8ifnCiBn5wvrA+MI0oPjC&#xD;&#xa;RTX2wnLX9cLXwvfCwRgE" leadInLength="0/1"  />
            </Keyframes>
           </Parameter>
           </Parameters>
           <MetaData>
            <entry key="effectIndex" val="0"/>
           </MetaData>
          </GenericEffect>
         </Effects>
         <Attributes>
          <Attribute id="6711" value="" name="ident"/>
          <Attribute id="6712" value="0" name="mixToMono"/>
         </Attributes>
         <MetaData>
          <entry key="WinSubProjectDisplayName" val=""/>
         </MetaData>
         <ExtraData>
          <Entry key="ZoomPanBin">
           <ZoomPanBin id="6713"  >
            <ZoomPanKeyframes>
             <ZoomPanKeyframe id="6714" timeRangeEnd="-9999999/1" timeRangeDuration="0/1" interpolaterName=""  />
            </ZoomPanKeyframes>
           </ZoomPanBin>
          </Entry>
          <Entry key="CursorEffectBin">
           <CursorEffectBin id="6715"  >
            <CursorEffectKeyframes>
            </CursorEffectKeyframes>
           </CursorEffectBin>
          </Entry>
         </ExtraData>
         <GenericTrack id="6716"  >
          <Attributes>
           <Attribute id="6717" value="" name="ident"/>
           <Attribute id="6718" value="0" name="audioMuted"/>
           <Attribute id="6719" value="0" name="videoHidden"/>
          </Attributes>
          <MetaData>
           <entry key="IsLocked" val="False"/>
           <entry key="WinTrackHeight" val="0"/>
          </MetaData>
          <Medias>
           <UnifiedMedia id="6720"  >
            <AMFile id="6721" start="0" duration="1274" scalar="1/1" mediaStart="0/1" mediaDuration="1274/1" trackNumber="2" src="29" channelNumber="0,1" >
             <Parameters>
              <InterpolatingParam id="6722" interp="linr"  time="0/1" value="1" leadInLength="0/1"  name="volume"/>
              <Parameter id="6723"  name="captions"/>
             </Parameters>
             <Attributes>
              <Attribute id="6724" value="" name="ident"/>
              <Attribute id="6725" value="44100" name="sampleRate"/>
              <Attribute id="6726" value="16" name="bitDepth"/>
              <Attribute id="6727" value="1" name="gain"/>
              <Attribute id="6728" value="0" name="mixToMono"/>
             </Attributes>
            </AMFile>
            <VMFile id="6729" start="0" duration="1274" scalar="1/1" mediaStart="0/1" mediaDuration="1274/1" trackNumber="1" src="29" >
             <Transformer>
              <VectorParam id="6730"  name="translation">
               <InterpolatingParam id="6731" interp="linr"  time="-9999999/1" value="0" leadInLength="0/1"  />
               <InterpolatingParam id="6732" interp="linr"  time="-9999999/1" value="0" leadInLength="0/1"  />
               <InterpolatingParam id="6733" interp="linr"  time="-9999999/1" value="0" leadInLength="0/1"  />
              </VectorParam>
              <VectorParam id="6734"  name="rotation">
               <InterpolatingParam id="6735" interp="linr"  time="-9999999/1" value="0" leadInLength="0/1"  />
               <InterpolatingParam id="6736" interp="linr"  time="-9999999/1" value="0" leadInLength="0/1"  />
               <InterpolatingParam id="6737" interp="linr"  time="-9999999/1" value="0" leadInLength="0/1"  />
              </VectorParam>
              <VectorParam id="6738"  name="shear">
               <InterpolatingParam id="6739" interp="linr"  time="-9999999/1" value="0" leadInLength="0/1"  />
               <InterpolatingParam id="6740" interp="linr"  time="-9999999/1" value="0" leadInLength="0/1"  />
               <InterpolatingParam id="6741" interp="linr"  time="-9999999/1" value="0" leadInLength="0/1"  />
              </VectorParam>
              <VectorParam id="6742"  name="scale">
               <InterpolatingParam id="6743" interp="linr"  time="-9999999/1" value="1" leadInLength="0/1"  />
               <InterpolatingParam id="6744" interp="linr"  time="-9999999/1" value="1" leadInLength="0/1"  />
               <InterpolatingParam id="6745" interp="linr"  time="-9999999/1" value="1" leadInLength="0/1"  />
              </VectorParam>
              <VectorParam id="6746"  name="anchor">
               <InterpolatingParam id="6747" interp="linr"  time="0/1" value="0" leadInLength="0/1"  />
               <InterpolatingParam id="6748" interp="linr"  time="0/1" value="0" leadInLength="0/1"  />
               <InterpolatingParam id="6749" interp="linr"  time="0/1" value="0" leadInLength="0/1"  />
              </VectorParam>
             </Transformer>
             <Parameters>
              <VectorParam id="6750"  name="sourceCrop">
               <InterpolatingParam id="6751" interp="linr"  time="0/1" value="0" leadInLength="0/1"  />
               <InterpolatingParam id="6752" interp="linr"  time="0/1" value="0" leadInLength="0/1"  />
               <InterpolatingParam id="6753" interp="linr"  time="0/1" value="0" leadInLength="0/1"  />
               <InterpolatingParam id="6754" interp="linr"  time="0/1" value="0" leadInLength="0/1"  />
              </VectorParam>
              <VectorParam id="6755"  name="geometryCrop">
               <InterpolatingParam id="6756" interp="linr"  time="-9999999/1" value="0" leadInLength="0/1"  />
               <InterpolatingParam id="6757" interp="linr"  time="-9999999/1" value="0" leadInLength="0/1"  />
               <InterpolatingParam id="6758" interp="linr"  time="-9999999/1" value="0" leadInLength="0/1"  />
               <InterpolatingParam id="6759" interp="linr"  time="-9999999/1" value="0" leadInLength="0/1"  />
              </VectorParam>
              <InterpolatingParam id="6760" interp="linr"  time="-9999999/1" value="1" leadInLength="0/1"  name="opacity"/>
             </Parameters>
             <Attributes>
              <Attribute id="6761" value="" name="ident"/>
             </Attributes>
             <ExtraData>
              <Entry key="ZoomPanBin">
               <ZoomPanBin id="6762"  >
                <ZoomPanKeyframes>
                 <ZoomPanKeyframe id="6763" timeRangeEnd="-9999999/1" timeRangeDuration="0/1" interpolaterName=""  />
                </ZoomPanKeyframes>
               </ZoomPanBin>
              </Entry>
             </ExtraData>
            </VMFile>
            <MetaData>
             <entry key="WinSubProjectDisplayName" val=""/>
            </MetaData>
           </UnifiedMedia>
           <UnifiedMedia id="6764"  >
            <AMFile id="6765" start="1274" duration="80" scalar="1/1" mediaStart="1287/1" mediaDuration="80/1" trackNumber="2" src="29" channelNumber="0,1" >
             <Parameters>
              <InterpolatingParam id="6766" interp="linr"  time="0/1" value="1" leadInLength="0/1"  name="volume"/>
              <Parameter id="6767"  name="captions"/>
             </Parameters>
             <Attributes>
              <Attribute id="6768" value="" name="ident"/>
              <Attribute id="6769" value="44100" name="sampleRate"/>
              <Attribute id="6770" value="16" name="bitDepth"/>
              <Attribute id="6771" value="1" name="gain"/>
              <Attribute id="6772" value="0" name="mixToMono"/>
             </Attributes>
            </AMFile>
            <VMFile id="6773" start="1274" duration="80" scalar="1/1" mediaStart="1287/1" mediaDuration="80/1" trackNumber="1" src="29" >
             <Transformer>
              <VectorParam id="6774"  name="translation">
               <InterpolatingParam id="6775" interp="linr"  time="-9999999/1" value="0" leadInLength="0/1"  />
               <InterpolatingParam id="6776" interp="linr"  time="-9999999/1" value="0" leadInLength="0/1"  />
               <InterpolatingParam id="6777" interp="linr"  time="-9999999/1" value="0" leadInLength="0/1"  />
              </VectorParam>
              <VectorParam id="6778"  name="rotation">
               <InterpolatingParam id="6779" interp="linr"  time="-9999999/1" value="0" leadInLength="0/1"  />
               <InterpolatingParam id="6780" interp="linr"  time="-9999999/1" value="0" leadInLength="0/1"  />
               <InterpolatingParam id="6781" interp="linr"  time="-9999999/1" value="0" leadInLength="0/1"  />
              </VectorParam>
              <VectorParam id="6782"  name="shear">
               <InterpolatingParam id="6783" interp="linr"  time="-9999999/1" value="0" leadInLength="0/1"  />
               <InterpolatingParam id="6784" interp="linr"  time="-9999999/1" value="0" leadInLength="0/1"  />
               <InterpolatingParam id="6785" interp="linr"  time="-9999999/1" value="0" leadInLength="0/1"  />
              </VectorParam>
              <VectorParam id="6786"  name="scale">
               <InterpolatingParam id="6787" interp="linr"  time="-9999999/1" value="1" leadInLength="0/1"  />
               <InterpolatingParam id="6788" interp="linr"  time="-9999999/1" value="1" leadInLength="0/1"  />
               <InterpolatingParam id="6789" interp="linr"  time="-9999999/1" value="1" leadInLength="0/1"  />
              </VectorParam>
              <VectorParam id="6790"  name="anchor">
               <InterpolatingParam id="6791" interp="linr"  time="0/1" value="0" leadInLength="0/1"  />
               <InterpolatingParam id="6792" interp="linr"  time="0/1" value="0" leadInLength="0/1"  />
               <InterpolatingParam id="6793" interp="linr"  time="0/1" value="0" leadInLength="0/1"  />
              </VectorParam>
             </Transformer>
             <Parameters>
              <VectorParam id="6794"  name="sourceCrop">
               <InterpolatingParam id="6795" interp="linr"  time="0/1" value="0" leadInLength="0/1"  />
               <InterpolatingParam id="6796" interp="linr"  time="0/1" value="0" leadInLength="0/1"  />
               <InterpolatingParam id="6797" interp="linr"  time="0/1" value="0" leadInLength="0/1"  />
               <InterpolatingParam id="6798" interp="linr"  time="0/1" value="0" leadInLength="0/1"  />
              </VectorParam>
              <VectorParam id="6799"  name="geometryCrop">
               <InterpolatingParam id="6800" interp="linr"  time="-9999999/1" value="0" leadInLength="0/1"  />
               <InterpolatingParam id="6801" interp="linr"  time="-9999999/1" value="0" leadInLength="0/1"  />
               <InterpolatingParam id="6802" interp="linr"  time="-9999999/1" value="0" leadInLength="0/1"  />
               <InterpolatingParam id="6803" interp="linr"  time="-9999999/1" value="0" leadInLength="0/1"  />
              </VectorParam>
              <InterpolatingParam id="6804" interp="linr"  time="-9999999/1" value="1" leadInLength="0/1"  name="opacity"/>
             </Parameters>
             <Attributes>
              <Attribute id="6805" value="" name="ident"/>
             </Attributes>
             <ExtraData>
              <Entry key="ZoomPanBin">
               <ZoomPanBin id="6806"  >
                <ZoomPanKeyframes>
                 <ZoomPanKeyframe id="6807" timeRangeEnd="-9999999/1" timeRangeDuration="0/1" interpolaterName=""  />
                </ZoomPanKeyframes>
               </ZoomPanBin>
              </Entry>
             </ExtraData>
            </VMFile>
            <MetaData>
             <entry key="WinSubProjectDisplayName" val=""/>
            </MetaData>
           </UnifiedMedia>
           <UnifiedMedia id="6808"  >
            <AMFile id="6809" start="1354" duration="54" scalar="1/1" mediaStart="1378/1" mediaDuration="54/1" trackNumber="2" src="29" channelNumber="0,1" >
             <Parameters>
              <InterpolatingParam id="6810" interp="linr"  time="0/1" value="1" leadInLength="0/1"  name="volume"/>
              <Parameter id="6811"  name="captions"/>
             </Parameters>
             <Attributes>
              <Attribute id="6812" value="" name="ident"/>
              <Attribute id="6813" value="44100" name="sampleRate"/>
              <Attribute id="6814" value="16" name="bitDepth"/>
              <Attribute id="6815" value="1" name="gain"/>
              <Attribute id="6816" value="0" name="mixToMono"/>
             </Attributes>
            </AMFile>
            <VMFile id="6817" start="1354" duration="54" scalar="1/1" mediaStart="1378/1" mediaDuration="54/1" trackNumber="1" src="29" >
             <Transformer>
              <VectorParam id="6818"  name="translation">
               <InterpolatingParam id="6819" interp="linr"  time="-9999999/1" value="0" leadInLength="0/1"  />
               <InterpolatingParam id="6820" interp="linr"  time="-9999999/1" value="0" leadInLength="0/1"  />
               <InterpolatingParam id="6821" interp="linr"  time="-9999999/1" value="0" leadInLength="0/1"  />
              </VectorParam>
              <VectorParam id="6822"  name="rotation">
               <InterpolatingParam id="6823" interp="linr"  time="-9999999/1" value="0" leadInLength="0/1"  />
               <InterpolatingParam id="6824" interp="linr"  time="-9999999/1" value="0" leadInLength="0/1"  />
               <InterpolatingParam id="6825" interp="linr"  time="-9999999/1" value="0" leadInLength="0/1"  />
              </VectorParam>
              <VectorParam id="6826"  name="shear">
               <InterpolatingParam id="6827" interp="linr"  time="-9999999/1" value="0" leadInLength="0/1"  />
               <InterpolatingParam id="6828" interp="linr"  time="-9999999/1" value="0" leadInLength="0/1"  />
               <InterpolatingParam id="6829" interp="linr"  time="-9999999/1" value="0" leadInLength="0/1"  />
              </VectorParam>
              <VectorParam id="6830"  name="scale">
               <InterpolatingParam id="6831" interp="linr"  time="-9999999/1" value="1" leadInLength="0/1"  />
               <InterpolatingParam id="6832" interp="linr"  time="-9999999/1" value="1" leadInLength="0/1"  />
               <InterpolatingParam id="6833" interp="linr"  time="-9999999/1" value="1" leadInLength="0/1"  />
              </VectorParam>
              <VectorParam id="6834"  name="anchor">
               <InterpolatingParam id="6835" interp="linr"  time="0/1" value="0" leadInLength="0/1"  />
               <InterpolatingParam id="6836" interp="linr"  time="0/1" value="0" leadInLength="0/1"  />
               <InterpolatingParam id="6837" interp="linr"  time="0/1" value="0" leadInLength="0/1"  />
              </VectorParam>
             </Transformer>
             <Parameters>
              <VectorParam id="6838"  name="sourceCrop">
               <InterpolatingParam id="6839" interp="linr"  time="0/1" value="0" leadInLength="0/1"  />
               <InterpolatingParam id="6840" interp="linr"  time="0/1" value="0" leadInLength="0/1"  />
               <InterpolatingParam id="6841" interp="linr"  time="0/1" value="0" leadInLength="0/1"  />
               <InterpolatingParam id="6842" interp="linr"  time="0/1" value="0" leadInLength="0/1"  />
              </VectorParam>
              <VectorParam id="6843"  name="geometryCrop">
               <InterpolatingParam id="6844" interp="linr"  time="-9999999/1" value="0" leadInLength="0/1"  />
               <InterpolatingParam id="6845" interp="linr"  time="-9999999/1" value="0" leadInLength="0/1"  />
               <InterpolatingParam id="6846" interp="linr"  time="-9999999/1" value="0" leadInLength="0/1"  />
               <InterpolatingParam id="6847" interp="linr"  time="-9999999/1" value="0" leadInLength="0/1"  />
              </VectorParam>
              <InterpolatingParam id="6848" interp="linr"  time="-9999999/1" value="1" leadInLength="0/1"  name="opacity"/>
             </Parameters>
             <Attributes>
              <Attribute id="6849" value="" name="ident"/>
             </Attributes>
             <ExtraData>
              <Entry key="ZoomPanBin">
               <ZoomPanBin id="6850"  >
                <ZoomPanKeyframes>
                 <ZoomPanKeyframe id="6851" timeRangeEnd="-9999999/1" timeRangeDuration="0/1" interpolaterName=""  />
                </ZoomPanKeyframes>
               </ZoomPanBin>
              </Entry>
             </ExtraData>
            </VMFile>
            <MetaData>
             <entry key="WinSubProjectDisplayName" val=""/>
            </MetaData>
           </UnifiedMedia>
           <UnifiedMedia id="6852"  >
            <AMFile id="6853" start="1408" duration="159" scalar="1/1" mediaStart="1441/1" mediaDuration="159/1" trackNumber="2" src="29" channelNumber="0,1" >
             <Parameters>
              <InterpolatingParam id="6854" interp="linr"  time="0/1" value="1" leadInLength="0/1"  name="volume"/>
              <Parameter id="6855"  name="captions"/>
             </Parameters>
             <Attributes>
              <Attribute id="6856" value="" name="ident"/>
              <Attribute id="6857" value="44100" name="sampleRate"/>
              <Attribute id="6858" value="16" name="bitDepth"/>
              <Attribute id="6859" value="1" name="gain"/>
              <Attribute id="6860" value="0" name="mixToMono"/>
             </Attributes>
            </AMFile>
            <VMFile id="6861" start="1408" duration="159" scalar="1/1" mediaStart="1441/1" mediaDuration="159/1" trackNumber="1" src="29" >
             <Transformer>
              <VectorParam id="6862"  name="translation">
               <InterpolatingParam id="6863" interp="linr"  time="-9999999/1" value="0" leadInLength="0/1"  />
               <InterpolatingParam id="6864" interp="linr"  time="-9999999/1" value="0" leadInLength="0/1"  />
               <InterpolatingParam id="6865" interp="linr"  time="-9999999/1" value="0" leadInLength="0/1"  />
              </VectorParam>
              <VectorParam id="6866"  name="rotation">
               <InterpolatingParam id="6867" interp="linr"  time="-9999999/1" value="0" leadInLength="0/1"  />
               <InterpolatingParam id="6868" interp="linr"  time="-9999999/1" value="0" leadInLength="0/1"  />
               <InterpolatingParam id="6869" interp="linr"  time="-9999999/1" value="0" leadInLength="0/1"  />
              </VectorParam>
              <VectorParam id="6870"  name="shear">
               <InterpolatingParam id="6871" interp="linr"  time="-9999999/1" value="0" leadInLength="0/1"  />
               <InterpolatingParam id="6872" interp="linr"  time="-9999999/1" value="0" leadInLength="0/1"  />
               <InterpolatingParam id="6873" interp="linr"  time="-9999999/1" value="0" leadInLength="0/1"  />
              </VectorParam>
              <VectorParam id="6874"  name="scale">
               <InterpolatingParam id="6875" interp="linr"  time="-9999999/1" value="1" leadInLength="0/1"  />
               <InterpolatingParam id="6876" interp="linr"  time="-9999999/1" value="1" leadInLength="0/1"  />
               <InterpolatingParam id="6877" interp="linr"  time="-9999999/1" value="1" leadInLength="0/1"  />
              </VectorParam>
              <VectorParam id="6878"  name="anchor">
               <InterpolatingParam id="6879" interp="linr"  time="0/1" value="0" leadInLength="0/1"  />
               <InterpolatingParam id="6880" interp="linr"  time="0/1" value="0" leadInLength="0/1"  />
               <InterpolatingParam id="6881" interp="linr"  time="0/1" value="0" leadInLength="0/1"  />
              </VectorParam>
             </Transformer>
             <Parameters>
              <VectorParam id="6882"  name="sourceCrop">
               <InterpolatingParam id="6883" interp="linr"  time="0/1" value="0" leadInLength="0/1"  />
               <InterpolatingParam id="6884" interp="linr"  time="0/1" value="0" leadInLength="0/1"  />
               <InterpolatingParam id="6885" interp="linr"  time="0/1" value="0" leadInLength="0/1"  />
               <InterpolatingParam id="6886" interp="linr"  time="0/1" value="0" leadInLength="0/1"  />
              </VectorParam>
              <VectorParam id="6887"  name="geometryCrop">
               <InterpolatingParam id="6888" interp="linr"  time="-9999999/1" value="0" leadInLength="0/1"  />
               <InterpolatingParam id="6889" interp="linr"  time="-9999999/1" value="0" leadInLength="0/1"  />
               <InterpolatingParam id="6890" interp="linr"  time="-9999999/1" value="0" leadInLength="0/1"  />
               <InterpolatingParam id="6891" interp="linr"  time="-9999999/1" value="0" leadInLength="0/1"  />
              </VectorParam>
              <InterpolatingParam id="6892" interp="linr"  time="-9999999/1" value="1" leadInLength="0/1"  name="opacity"/>
             </Parameters>
             <Attributes>
              <Attribute id="6893" value="" name="ident"/>
             </Attributes>
             <ExtraData>
              <Entry key="ZoomPanBin">
               <ZoomPanBin id="6894"  >
                <ZoomPanKeyframes>
                 <ZoomPanKeyframe id="6895" timeRangeEnd="-9999999/1" timeRangeDuration="0/1" interpolaterName=""  />
                </ZoomPanKeyframes>
               </ZoomPanBin>
              </Entry>
             </ExtraData>
            </VMFile>
            <MetaData>
             <entry key="WinSubProjectDisplayName" val=""/>
            </MetaData>
           </UnifiedMedia>
          </Medias>
         </GenericTrack>
        </StitchedMedia>
        <StitchedMedia id="6896" start="747" duration="1206" scalar="1/1" mediaStart="6381/1" mediaDuration="1206/1" minMediaStart="0/1" >
         <Transformer>
          <VectorParam id="6897"  name="translation">
           <InterpolatingParam id="6898" interp="linr"  time="-9999999/1" value="559.66156747088439" leadInLength="0/1"  />
           <InterpolatingParam id="6899" interp="linr"  time="-9999999/1" value="-254.26603509637363" leadInLength="0/1"  />
           <InterpolatingParam id="6900" interp="linr"  time="-9999999/1" value="0" leadInLength="0/1"  />
          </VectorParam>
          <VectorParam id="6901"  name="rotation">
           <InterpolatingParam id="6902" interp="linr"  time="-9999999/1" value="0" leadInLength="0/1"  />
           <InterpolatingParam id="6903" interp="linr"  time="-9999999/1" value="0" leadInLength="0/1"  />
           <InterpolatingParam id="6904" interp="linr"  time="-9999999/1" value="0" leadInLength="0/1"  />
          </VectorParam>
          <VectorParam id="6905"  name="shear">
           <InterpolatingParam id="6906" interp="linr"  time="-9999999/1" value="0" leadInLength="0/1"  />
           <InterpolatingParam id="6907" interp="linr"  time="-9999999/1" value="0" leadInLength="0/1"  />
           <InterpolatingParam id="6908" interp="linr"  time="-9999999/1" value="0" leadInLength="0/1"  />
          </VectorParam>
          <VectorParam id="6909"  name="scale">
           <InterpolatingParam id="6910" interp="linr"  time="-9999999/1" value="0.44868750190058498" leadInLength="0/1"  />
           <InterpolatingParam id="6911" interp="linr"  time="-9999999/1" value="0.44868750190058471" leadInLength="0/1"  />
           <InterpolatingParam id="6912" interp="linr"  time="-9999999/1" value="1" leadInLength="0/1"  />
          </VectorParam>
          <VectorParam id="6913"  name="anchor">
           <InterpolatingParam id="6914" interp="linr"  time="0/1" value="0" leadInLength="0/1"  />
           <InterpolatingParam id="6915" interp="linr"  time="0/1" value="0" leadInLength="0/1"  />
           <InterpolatingParam id="6916" interp="linr"  time="0/1" value="0" leadInLength="0/1"  />
          </VectorParam>
         </Transformer>
         <Parameters>
          <VectorParam id="6917"  name="sourceCrop">
           <InterpolatingParam id="6918" interp="linr"  time="0/1" value="0" leadInLength="0/1"  />
           <InterpolatingParam id="6919" interp="linr"  time="0/1" value="0" leadInLength="0/1"  />
           <InterpolatingParam id="6920" interp="linr"  time="0/1" value="0" leadInLength="0/1"  />
           <InterpolatingParam id="6921" interp="linr"  time="0/1" value="0" leadInLength="0/1"  />
          </VectorParam>
          <VectorParam id="6922"  name="geometryCrop">
           <InterpolatingParam id="6923" interp="linr"  time="-9999999/1" value="98.432527990864003" leadInLength="0/1"  />
           <InterpolatingParam id="6924" interp="linr"  time="-9999999/1" value="0" leadInLength="0/1"  />
           <InterpolatingParam id="6925" interp="linr"  time="-9999999/1" value="47.51915144375306" leadInLength="0/1"  />
           <InterpolatingParam id="6926" interp="linr"  time="-9999999/1" value="74.672952268636209" leadInLength="0/1"  />
          </VectorParam>
          <InterpolatingParam id="6927" interp="linr"  time="-9999999/1" value="1" leadInLength="0/1"  name="opacity"/>
          <InterpolatingParam id="6928" interp="linr"  time="0/1" value="1" leadInLength="0/1"  name="cursorOpacity"/>
          <InterpolatingParam id="6929" interp="linr"  time="0/1" value="1" leadInLength="0/1"  name="cursorScale"/>
          <InterpolatingParam id="6930" interp="linr"  time="0/1" value="1" leadInLength="0/1"  name="volume"/>
          <Parameter id="6931"  name="captions"/>
         </Parameters>
         <Effects>
          <GenericEffect id="6932" name = "NoiseReduction" >
           <Parameters>
           <InterpolatingParam id="6933" interp="linr"  time="0/1" value="27.599999999999998" leadInLength="0/1"   name="denoiserAmount"/>
           <InterpolatingParam id="6934" interp="linr"  time="0/1" value="2.2799999999999994" leadInLength="0/1"   name="denoiserThreshold"/>
           <Parameter id="6935"   name="noiseProfile">
            <Keyframes>
            <Keyframe id="6936"  time="0/1" value="FBAAAAIAAABErAAAAQIAAD6cesKK32XCL5Ffwj3lZMKbB3TCTo1zwu3rasKsdnDCeXV7wjpLdMIn&#xD;&#xa;7nLC4Idywu+3eMIcAYTCeXOEwk4ThcKpSoTCRWeFwv/eh8I5nIbCToWGwnoXiML9iofCiGyHwixn&#xD;&#xa;icKLNI3CUG6NwgRCjcLAho3CWNOOwoFqj8IH9I/CXgaTwtzdk8InF5HCCmuQwnDMksKQCZXC+YyV&#xD;&#xa;wtjQksJuIZLCQKyTwtjRlsLLG5fC3AaZwtglmsLCPJjCocCWwnoNl8JI+ZzCgU2cwl6nl8LDVJPC&#xD;&#xa;QZeUwrgZmMJI+ZXCmt2Ywo+WmcLYTaDC+DapwtT1o8KkCaTCdf6lwpoFoMJ89J/ClNSlwhY2qcIa&#xD;&#xa;HKvCPV+rwvYyp8JxrqbCMSiuwp03rcI/WqnCKGOqwq1FrcIYTKrC+UyowvRzrMIXtq/CTlmvwquL&#xD;&#xa;qcLJCqnC8jauwtYVssJ9lrDCLImvwo4KsMKxn7DCdo+vwkIpsMKuz63C3+CowgxCp8LuwKzC3Kyw&#xD;&#xa;wng5tcIgv7LC3a6vwoNrscKtpLXCsrK2wsGDtsKs1bbCDOa4ws26usJphbfCaR+2ws/2t8KBF7rC&#xD;&#xa;+eO1wl+ytcI2trfCjse4wvDnucIe5bLCa/urwno6s8IOPL/Ceq6+wre7u8LhZ7rC8r+5wuUBvMLQ&#xD;&#xa;n7/CA2m/wu06vcJwO7rCsmi7woqLv8JmKr7CcpG8wnS+u8JaiLvCV/y5wmySu8Ic/LrC6iK5wqFK&#xD;&#xa;ucJ7VrTCgGO2wqjzvcJmEr/CvW/AwrLGvcKGNr3CtCi/wtRIv8L4m7zCOoy8wvBcusIdNLnCCVK6&#xD;&#xa;woWvvMLyELnChzW4wgECu8J4ML3C/4W4wsW0tsK4DLvCPBK8wq+wt8IyQbnCFqS7wozxucJ61bTC&#xD;&#xa;JfG1wvVtucIc57jCbLS4wu7IuMIt/rnCcjq2wmlStsK8abrCAxa8wlmWvMKxTL/CGr6+wvmRvsIO&#xD;&#xa;A77C5nK+wuT8v8IstsHC50W/wv38vsLAXb/CRrXBwi4Vw8IkG8HCRoLAwlQZv8Inzr7ChhjBwj6a&#xD;&#xa;wsLSisHCgIXAwpLCwMI2R8DCEAjBwjlnwcJMYsLCbw/AwjQlwcK8UMHCsRy9whEcvsJFXcHCcwDB&#xD;&#xa;wl8KwcK50MLCjPPBwhiTwMJGmr/CXxu+wtPpwsLADsPCLuLAwh8dw8LtOcDCeP+/wlpPwcL/isLC&#xD;&#xa;Sf3DwgYawsJENsHCcYG/woHowMLSzb7CZi3BwvAiv8J/4bXCOoa6woLwv8IEAcLC9gPCwm2hwcLA&#xD;&#xa;wcPCFATDwpRuxMKaccXCnPrEwnyGwcIgEMPCmVrGwkAkx8JxSsPCMgbFwri6xMJLAcbCVnTFwlE4&#xD;&#xa;xsI9J8fC5lnCwoX7tsKt3LjCmQPDwmXDwcKKAsLCKgnDwm03xcLq9MPCFjTBwrIMwsKoF8PCXp3B&#xD;&#xa;wjbgxMIkKsrCzO/HworfxcKiBsPCTqrEwuVXyMKNlsbCZhzEwiLRwMLOub/CDDG2wnFhtMIdYr7C&#xD;&#xa;CknCwspFw8KRrsHCPXTCwjTzvsLBm7/CtD3EwnwpxMJupcTCkoXEwh53w8LkcMTCxHXEwvyFxMLB&#xD;&#xa;SMTCRpjEwuXCw8Ksy8LC0dLAwuiVwcLnPrrCEZu0wqevvMIdMcTCVSXGwvQFxcIT48PCi4W/wnze&#xD;&#xa;wcI6VsbCGqfFwmDPwMJCi8HCbgvDwljnw8JQFcTCLLzEwppExMLwlcDCuDzBwlRkxMJCwsTC8iLD&#xD;&#xa;wlP2wcI82LrC1EnAwlZ+x8LIBMjCqpHEwsKXxMLnSMXCrKHDwqRAw8LKzsLCe+fBwpMQxMK4dcfC&#xD;&#xa;tMDGwnzVx8JkOMrCBorIwkPdw8JEPcPCQBTFwq2XxMKQy8bC0tvGwmZ0wcKR6MLCRprFwsXqxsJY&#xD;&#xa;Os3CvjXawheQ6MJo3OTCyF7ewm5T3cIIqOPCaBXnwpb84sLegN3CUKbNwtykycIoz9TCXBbowlhD&#xD;&#xa;68KS/+fCbr/mwoJG78Ke0PjC4Lj5wkT7+cKYh/vCgmP5wnZD+cKT3PTCttH1wlAp9MIgGfXCVvD3&#xD;&#xa;wkIo+MJeb/nC6hP2wkip9MIkCfnCkV74wmVW9sIDLPTCgqT0woKQ9cKowffCqo74wlgq+sIK1vjC&#xD;&#xa;kvv4wuQn+cJPZfjCdzL3wrfb9MISIfjCmML5wtdE+MIGFPnC6Hf5wuh898LEjvXCZhH4wngw98KE&#xD;&#xa;UvfCXsH4wlzS98JjRvfCg9H0wu2x9sLiaPrC5qT4wmxj+MJ+A/nC9IL7whzN+cKq3PjCiqv4wnJ1&#xD;&#xa;98JOrffCzSH4wolO9cJXLvTCcoX3wnp/+cKxQvjCNyH3wrju+MLmG/zCQhz9wrwv+sKokPnC1AD3&#xD;&#xa;wm6E98LYtvnCyrH7wpQQ+ML6xfbCbJD2wnig9MIJ1PPCA5z2wiYA+sKyyPnC7rD2wpg298K4f/nC&#xD;&#xa;UPD3whA9+cJmP/nC+Pj5wvTo+MLOmvfCeMD5wsTB98ICsvXC9jT4wizd+MLQ2vnCkgr5wka/+MKq&#xD;&#xa;Z/vCSmf6wpzq+MI66/jCgjn5wiy79sI2hPjClq35wkQy+MKAuvbC7732wvkJ98L1lvbCtdb1wux8&#xD;&#xa;+MJCt/fCRGj3wsqk+cLuKfrCEpP6woDk/MJMT/rCZOb3wvRV+MJv3vbCbuj0wk5z9MLvjvfCiiP5&#xD;&#xa;wkkR9MK0g/PClCr2wkFU98Js8vXC2Hn2wvzj98Ky5PnCWOL1wqHK9MIkLPjCmIT4wtJ89sIi0vnC&#xD;&#xa;Ljz3wsy/9sLQqvjCt2wEw5acesKM32XC8ZBfwgblZMIQB3TC0Y1zwpvrasJXd3DCN3Z7wnZLdMIb&#xD;&#xa;7HLCvoVywhK3eMLj/4PCoHKEwoUShcIfSYTCtWSFwlLbh8KqmYbC8YOGwsQYiMKUi4fC822HwlFn&#xD;&#xa;icLfNY3CGm6NwndCjcJOhI3CWc6OwlJnj8I39I/CiweTwizbk8KNEZHC6GiQwvLOksLcCZXCN4mV&#xD;&#xa;wobJksL9HZLC3KqTwgLQlsLiF5fCnACZwn4gmsKcOJjCdLiWwpwKl8Jk75zCGEmcwr+zl8K1V5PC&#xD;&#xa;/ZSUwgMemMKsAZbC1d+YwjKZmcIKUaDChD2pwqUHpMLuJKTCvx2mwiYKoMJq7p/CZuGlwrpcqcLp&#xD;&#xa;H6vCAXirwpQ2p8KXsabCF1quwuiErcJzlKnCspqqws50rcL1dqrCPmeowgZ0rMK8mq/CVESvwvqn&#xD;&#xa;qcKEJKnCyWauwixJssIJELHCn8+vwotJsMIwvbDCQ3OvwhEVsMKqxK3CF+yowtNkp8LKJa3CHx6x&#xD;&#xa;wuiBtcK2+rLCXPOvwkeXscJCCbbCHy23wkOYtsIwBrfCbNi4wviFusK1UrjCsIO2wrhwuMLcabrC&#xD;&#xa;LUS2wsdntsIqJbjCgpG4wrojusIjHbPCPhuswitTs8Iq0b7C/G6/wttTvMI9brrCtN25wlIIvcK1&#xD;&#xa;icDCPQy/wsmHvcL4z7rCCgu8wsdsv8LFjr3CJuC8wg1TvMJVDrzCblK6wsQSvMLiqrvCsLC5wpJ3&#xD;&#xa;ucJ5W7TCOJq2wtWevsItwL/CoiHBwmA9vsLAh77CSn3AwkI0wMI85L3Ci429wkoFu8KqDLnCxT26&#xD;&#xa;wmk+vcLQPbnCBpC4wug9u8LaPr3CvOa4wkk9t8LCmbvC1yO8wsKTuMJqjrnCrsy7wm4KusLo4bTC&#xD;&#xa;uCy2wsWyucI+vrjCkMe4whBsucLMgrrC/qu2wvintsJtwbrClKW8wo5AvcL3nL/Cemy/wuyLvsLP&#xD;&#xa;nr3CSly/wtpVwML0DsLC5j3Awhr1v8K+jb/C5pHBwhndw8IsZcLCykDBwsJEv8IMhb/CeGnCwmT9&#xD;&#xa;wcJQLMHCHCLBwmxtwcIgnMDCD0bAwtxQwcLm8cLCIvjAwuIAwsJeu8HChPK9wuSxvsKF3cHCpBHC&#xD;&#xa;wpTjwsLECMTCgJXCwhbvwMLglL/CRs29wqAhwsKwpMLCTXPAwrTjwsJSEcHCAXzAwtIlwcJK2sLC&#xD;&#xa;B4XFwnxGxMJqI8LCWtO+wpTfwMJ6L7/CYkLBwhD6vsJIE7bC2LS6wnQ9wMIIe8HCYjDCwpWYwsLX&#xD;&#xa;R8TC0nHDwu7cxMJKH8bCABXFwvQgwcKb3sLC+iXHwp5xx8KkDMPC7rvEwtShxMJjxMXCNObEwiQ9&#xD;&#xa;xsLsTsfCO4zCwpoTt8J6+7jCQAPDwj7GwcI8K8LChuTCwvQVxcIq+sPC/jTBwoIqwsKULcPCm13B&#xD;&#xa;wm/jxML4e8rCnnDIwp8DxsK28cLCHEXEwlwZyMIPl8bCit3DwrzUwMKW5b/CjDW2wk9dtMJWLL7C&#xD;&#xa;rEDCwipTw8LUg8HCYlnCwqkov8KRj7/CSjvEwhIbxMKqbMTCV7fEwlajw8JnO8TCiCDEwrRIxMLG&#xD;&#xa;E8TCB3XEwuiww8J2vMLCxvTAwouAwcICPLrCPp+0wpSNvMIWFsTCAOTFwk7hxMI87cPCWZO/ws7i&#xD;&#xa;wcIpScbCBqbFwlq4wMJLSsHCUOfCwkPcw8JCAcTCmNbEwlwsxMLRjcDC+kDBwvR7xMI0vsTCQEjD&#xD;&#xa;wkHOwcKKlbrCrCXAws1Zx8J8vMfC1o/EwlRhxMLmOsXC0sTDwnk+w8KY68LCViXCwtX9w8LddsfC&#xD;&#xa;wEDHwmB3yMKrwcrCys3IwgDpw8IHEcPCHbfEwvQexMJAdMbCgqbGwutBwcIH8sLC4qfFwoD7xsL6&#xD;&#xa;J83Cn3XZwrZ558Is7OTCCMfewj873MIDveHCSATnwkgi5MKANt7CfsXNwhLRycI8EtXCK9HowuB1&#xD;&#xa;7MLgbufCMc3lwnBK7sKMf/nCvKP3wkhN+MKa8PjCTK35wsZm+8J07PnCkLb5wj4P+8IcePfCvHX3&#xD;&#xa;wuI39sLGgPjC3HH4wk6e+MIjY/jC1sf2wiif9MIpl/TCZDz5wkDn+MJKO/fCFpn2wgZz9sJcy/fC&#xD;&#xa;bsX5wjcm98JQVvfCrgT5wsNP+MJwb/bCiqf3wqbV+cJ+1fnCvI73wgh8+cIc5frCmq35wrhG+cKo&#xD;&#xa;iPnCcKn4wvwA98IqZvnC5Or4wrT89MJ8u/LCvkHzwqBE9sIUcvvCilP6wkAn+MJWHfjCDhn5wqgm&#xD;&#xa;+MJoQPfCbnH1wuT09sKT9PbCWl34wvhG+MLi5vjCfP/3wgqo98IsMvnCyFT7wsrQ+MLQwvjCPU74&#xD;&#xa;wnpX98JqNvfCGnz2whpx+MIKlPvCDmH3wsQC9MI6fvXCKUD4wmIw+sJurPnCenv3wn+Q9sJGs/bC&#xD;&#xa;qHr3wn7a98LrTvfCJuf1wgKw9sIUrvjCYjz5wlwA+MI+J/jCsJr5wiYC+MJEOffCxCP3wn7j9MIK&#xD;&#xa;1PfCmY/3wtpe98Lu+PfCVpb6wgg9/cLuTfjCRgr2wgqH+cIyTvvCNvn6wvov+cK9M/fCuhT2wiy9&#xD;&#xa;9sJ04fbCUkH6wljK+8L47/nCTrL6wrA0+sLwX/jCO4n2wvl498LSGfrCDCr4wkUu98L0KPbCmFv1&#xD;&#xa;wpwx+MK2p/jCAIz5wiaq+8JOPvnCfmD2wibE9cJ4qfbCNp33wkSM+MLoZfbCUgH2wiBf+cLSe/jC&#xD;&#xa;V931wugC9sLUnPfCtPAD" leadInLength="0/1"  />
            </Keyframes>
           </Parameter>
           </Parameters>
           <MetaData>
            <entry key="effectIndex" val="0"/>
           </MetaData>
          </GenericEffect>
         </Effects>
         <Attributes>
          <Attribute id="6937" value="" name="ident"/>
          <Attribute id="6938" value="0" name="mixToMono"/>
         </Attributes>
         <MetaData>
          <entry key="WinSubProjectDisplayName" val=""/>
         </MetaData>
         <ExtraData>
          <Entry key="ZoomPanBin">
           <ZoomPanBin id="6939"  >
            <ZoomPanKeyframes>
             <ZoomPanKeyframe id="6940" timeRangeEnd="-9999999/1" timeRangeDuration="0/1" interpolaterName=""  />
            </ZoomPanKeyframes>
           </ZoomPanBin>
          </Entry>
          <Entry key="CursorEffectBin">
           <CursorEffectBin id="6941"  >
            <CursorEffectKeyframes>
            </CursorEffectKeyframes>
           </CursorEffectBin>
          </Entry>
         </ExtraData>
         <GenericTrack id="6942"  >
          <Attributes>
           <Attribute id="6943" value="" name="ident"/>
           <Attribute id="6944" value="0" name="audioMuted"/>
           <Attribute id="6945" value="0" name="videoHidden"/>
          </Attributes>
          <MetaData>
           <entry key="IsLocked" val="False"/>
           <entry key="WinTrackHeight" val="0"/>
          </MetaData>
          <Medias>
           <UnifiedMedia id="6946"  >
            <AMFile id="6947" start="0" duration="6484" scalar="1/1" mediaStart="0/1" mediaDuration="6484/1" trackNumber="2" src="8" channelNumber="0,1" >
             <Parameters>
              <InterpolatingParam id="6948" interp="linr"  time="0/1" value="1" leadInLength="0/1"  name="volume"/>
              <Parameter id="6949"  name="captions"/>
             </Parameters>
             <Attributes>
              <Attribute id="6950" value="" name="ident"/>
              <Attribute id="6951" value="44100" name="sampleRate"/>
              <Attribute id="6952" value="16" name="bitDepth"/>
              <Attribute id="6953" value="1" name="gain"/>
              <Attribute id="6954" value="0" name="mixToMono"/>
             </Attributes>
            </AMFile>
            <VMFile id="6955" start="0" duration="6484" scalar="1/1" mediaStart="0/1" mediaDuration="6484/1" trackNumber="1" src="8" >
             <Transformer>
              <VectorParam id="6956"  name="translation">
               <InterpolatingParam id="6957" interp="linr"  time="-9999999/1" value="0" leadInLength="0/1"  />
               <InterpolatingParam id="6958" interp="linr"  time="-9999999/1" value="0" leadInLength="0/1"  />
               <InterpolatingParam id="6959" interp="linr"  time="-9999999/1" value="0" leadInLength="0/1"  />
              </VectorParam>
              <VectorParam id="6960"  name="rotation">
               <InterpolatingParam id="6961" interp="linr"  time="-9999999/1" value="0" leadInLength="0/1"  />
               <InterpolatingParam id="6962" interp="linr"  time="-9999999/1" value="0" leadInLength="0/1"  />
               <InterpolatingParam id="6963" interp="linr"  time="-9999999/1" value="0" leadInLength="0/1"  />
              </VectorParam>
              <VectorParam id="6964"  name="shear">
               <InterpolatingParam id="6965" interp="linr"  time="-9999999/1" value="0" leadInLength="0/1"  />
               <InterpolatingParam id="6966" interp="linr"  time="-9999999/1" value="0" leadInLength="0/1"  />
               <InterpolatingParam id="6967" interp="linr"  time="-9999999/1" value="0" leadInLength="0/1"  />
              </VectorParam>
              <VectorParam id="6968"  name="scale">
               <InterpolatingParam id="6969" interp="linr"  time="-9999999/1" value="1" leadInLength="0/1"  />
               <InterpolatingParam id="6970" interp="linr"  time="-9999999/1" value="1" leadInLength="0/1"  />
               <InterpolatingParam id="6971" interp="linr"  time="-9999999/1" value="1" leadInLength="0/1"  />
              </VectorParam>
              <VectorParam id="6972"  name="anchor">
               <InterpolatingParam id="6973" interp="linr"  time="0/1" value="0" leadInLength="0/1"  />
               <InterpolatingParam id="6974" interp="linr"  time="0/1" value="0" leadInLength="0/1"  />
               <InterpolatingParam id="6975" interp="linr"  time="0/1" value="0" leadInLength="0/1"  />
              </VectorParam>
             </Transformer>
             <Parameters>
              <VectorParam id="6976"  name="sourceCrop">
               <InterpolatingParam id="6977" interp="linr"  time="0/1" value="0" leadInLength="0/1"  />
               <InterpolatingParam id="6978" interp="linr"  time="0/1" value="0" leadInLength="0/1"  />
               <InterpolatingParam id="6979" interp="linr"  time="0/1" value="0" leadInLength="0/1"  />
               <InterpolatingParam id="6980" interp="linr"  time="0/1" value="0" leadInLength="0/1"  />
              </VectorParam>
              <VectorParam id="6981"  name="geometryCrop">
               <InterpolatingParam id="6982" interp="linr"  time="-9999999/1" value="0" leadInLength="0/1"  />
               <InterpolatingParam id="6983" interp="linr"  time="-9999999/1" value="0" leadInLength="0/1"  />
               <InterpolatingParam id="6984" interp="linr"  time="-9999999/1" value="0" leadInLength="0/1"  />
               <InterpolatingParam id="6985" interp="linr"  time="-9999999/1" value="0" leadInLength="0/1"  />
              </VectorParam>
              <InterpolatingParam id="6986" interp="linr"  time="-9999999/1" value="1" leadInLength="0/1"  name="opacity"/>
             </Parameters>
             <Attributes>
              <Attribute id="6987" value="" name="ident"/>
             </Attributes>
             <ExtraData>
              <Entry key="ZoomPanBin">
               <ZoomPanBin id="6988"  >
                <ZoomPanKeyframes>
                 <ZoomPanKeyframe id="6989" timeRangeEnd="-9999999/1" timeRangeDuration="0/1" interpolaterName=""  />
                </ZoomPanKeyframes>
               </ZoomPanBin>
              </Entry>
             </ExtraData>
            </VMFile>
            <MetaData>
             <entry key="WinSubProjectDisplayName" val=""/>
            </MetaData>
           </UnifiedMedia>
           <UnifiedMedia id="6990"  >
            <AMFile id="6991" start="6484" duration="119" scalar="1/1" mediaStart="6497/1" mediaDuration="119/1" trackNumber="2" src="8" channelNumber="0,1" >
             <Parameters>
              <InterpolatingParam id="6992" interp="linr"  time="0/1" value="1" leadInLength="0/1"  name="volume"/>
              <Parameter id="6993"  name="captions"/>
             </Parameters>
             <Attributes>
              <Attribute id="6994" value="" name="ident"/>
              <Attribute id="6995" value="44100" name="sampleRate"/>
              <Attribute id="6996" value="16" name="bitDepth"/>
              <Attribute id="6997" value="1" name="gain"/>
              <Attribute id="6998" value="0" name="mixToMono"/>
             </Attributes>
            </AMFile>
            <VMFile id="6999" start="6484" duration="119" scalar="1/1" mediaStart="6497/1" mediaDuration="119/1" trackNumber="1" src="8" >
             <Transformer>
              <VectorParam id="7000"  name="translation">
               <InterpolatingParam id="7001" interp="linr"  time="-9999999/1" value="0" leadInLength="0/1"  />
               <InterpolatingParam id="7002" interp="linr"  time="-9999999/1" value="0" leadInLength="0/1"  />
               <InterpolatingParam id="7003" interp="linr"  time="-9999999/1" value="0" leadInLength="0/1"  />
              </VectorParam>
              <VectorParam id="7004"  name="rotation">
               <InterpolatingParam id="7005" interp="linr"  time="-9999999/1" value="0" leadInLength="0/1"  />
               <InterpolatingParam id="7006" interp="linr"  time="-9999999/1" value="0" leadInLength="0/1"  />
               <InterpolatingParam id="7007" interp="linr"  time="-9999999/1" value="0" leadInLength="0/1"  />
              </VectorParam>
              <VectorParam id="7008"  name="shear">
               <InterpolatingParam id="7009" interp="linr"  time="-9999999/1" value="0" leadInLength="0/1"  />
               <InterpolatingParam id="7010" interp="linr"  time="-9999999/1" value="0" leadInLength="0/1"  />
               <InterpolatingParam id="7011" interp="linr"  time="-9999999/1" value="0" leadInLength="0/1"  />
              </VectorParam>
              <VectorParam id="7012"  name="scale">
               <InterpolatingParam id="7013" interp="linr"  time="-9999999/1" value="1" leadInLength="0/1"  />
               <InterpolatingParam id="7014" interp="linr"  time="-9999999/1" value="1" leadInLength="0/1"  />
               <InterpolatingParam id="7015" interp="linr"  time="-9999999/1" value="1" leadInLength="0/1"  />
              </VectorParam>
              <VectorParam id="7016"  name="anchor">
               <InterpolatingParam id="7017" interp="linr"  time="0/1" value="0" leadInLength="0/1"  />
               <InterpolatingParam id="7018" interp="linr"  time="0/1" value="0" leadInLength="0/1"  />
               <InterpolatingParam id="7019" interp="linr"  time="0/1" value="0" leadInLength="0/1"  />
              </VectorParam>
             </Transformer>
             <Parameters>
              <VectorParam id="7020"  name="sourceCrop">
               <InterpolatingParam id="7021" interp="linr"  time="0/1" value="0" leadInLength="0/1"  />
               <InterpolatingParam id="7022" interp="linr"  time="0/1" value="0" leadInLength="0/1"  />
               <InterpolatingParam id="7023" interp="linr"  time="0/1" value="0" leadInLength="0/1"  />
               <InterpolatingParam id="7024" interp="linr"  time="0/1" value="0" leadInLength="0/1"  />
              </VectorParam>
              <VectorParam id="7025"  name="geometryCrop">
               <InterpolatingParam id="7026" interp="linr"  time="-9999999/1" value="0" leadInLength="0/1"  />
               <InterpolatingParam id="7027" interp="linr"  time="-9999999/1" value="0" leadInLength="0/1"  />
               <InterpolatingParam id="7028" interp="linr"  time="-9999999/1" value="0" leadInLength="0/1"  />
               <InterpolatingParam id="7029" interp="linr"  time="-9999999/1" value="0" leadInLength="0/1"  />
              </VectorParam>
              <InterpolatingParam id="7030" interp="linr"  time="-9999999/1" value="1" leadInLength="0/1"  name="opacity"/>
             </Parameters>
             <Attributes>
              <Attribute id="7031" value="" name="ident"/>
             </Attributes>
             <ExtraData>
              <Entry key="ZoomPanBin">
               <ZoomPanBin id="7032"  >
                <ZoomPanKeyframes>
                 <ZoomPanKeyframe id="7033" timeRangeEnd="-9999999/1" timeRangeDuration="0/1" interpolaterName=""  />
                </ZoomPanKeyframes>
               </ZoomPanBin>
              </Entry>
             </ExtraData>
            </VMFile>
            <MetaData>
             <entry key="WinSubProjectDisplayName" val=""/>
            </MetaData>
           </UnifiedMedia>
           <UnifiedMedia id="7034"  >
            <AMFile id="7035" start="6603" duration="92" scalar="1/1" mediaStart="6626/1" mediaDuration="92/1" trackNumber="2" src="8" channelNumber="0,1" >
             <Parameters>
              <InterpolatingParam id="7036" interp="linr"  time="0/1" value="1" leadInLength="0/1"  name="volume"/>
              <Parameter id="7037"  name="captions"/>
             </Parameters>
             <Attributes>
              <Attribute id="7038" value="" name="ident"/>
              <Attribute id="7039" value="44100" name="sampleRate"/>
              <Attribute id="7040" value="16" name="bitDepth"/>
              <Attribute id="7041" value="1" name="gain"/>
              <Attribute id="7042" value="0" name="mixToMono"/>
             </Attributes>
            </AMFile>
            <VMFile id="7043" start="6603" duration="92" scalar="1/1" mediaStart="6626/1" mediaDuration="92/1" trackNumber="1" src="8" >
             <Transformer>
              <VectorParam id="7044"  name="translation">
               <InterpolatingParam id="7045" interp="linr"  time="-9999999/1" value="0" leadInLength="0/1"  />
               <InterpolatingParam id="7046" interp="linr"  time="-9999999/1" value="0" leadInLength="0/1"  />
               <InterpolatingParam id="7047" interp="linr"  time="-9999999/1" value="0" leadInLength="0/1"  />
              </VectorParam>
              <VectorParam id="7048"  name="rotation">
               <InterpolatingParam id="7049" interp="linr"  time="-9999999/1" value="0" leadInLength="0/1"  />
               <InterpolatingParam id="7050" interp="linr"  time="-9999999/1" value="0" leadInLength="0/1"  />
               <InterpolatingParam id="7051" interp="linr"  time="-9999999/1" value="0" leadInLength="0/1"  />
              </VectorParam>
              <VectorParam id="7052"  name="shear">
               <InterpolatingParam id="7053" interp="linr"  time="-9999999/1" value="0" leadInLength="0/1"  />
               <InterpolatingParam id="7054" interp="linr"  time="-9999999/1" value="0" leadInLength="0/1"  />
               <InterpolatingParam id="7055" interp="linr"  time="-9999999/1" value="0" leadInLength="0/1"  />
              </VectorParam>
              <VectorParam id="7056"  name="scale">
               <InterpolatingParam id="7057" interp="linr"  time="-9999999/1" value="1" leadInLength="0/1"  />
               <InterpolatingParam id="7058" interp="linr"  time="-9999999/1" value="1" leadInLength="0/1"  />
               <InterpolatingParam id="7059" interp="linr"  time="-9999999/1" value="1" leadInLength="0/1"  />
              </VectorParam>
              <VectorParam id="7060"  name="anchor">
               <InterpolatingParam id="7061" interp="linr"  time="0/1" value="0" leadInLength="0/1"  />
               <InterpolatingParam id="7062" interp="linr"  time="0/1" value="0" leadInLength="0/1"  />
               <InterpolatingParam id="7063" interp="linr"  time="0/1" value="0" leadInLength="0/1"  />
              </VectorParam>
             </Transformer>
             <Parameters>
              <VectorParam id="7064"  name="sourceCrop">
               <InterpolatingParam id="7065" interp="linr"  time="0/1" value="0" leadInLength="0/1"  />
               <InterpolatingParam id="7066" interp="linr"  time="0/1" value="0" leadInLength="0/1"  />
               <InterpolatingParam id="7067" interp="linr"  time="0/1" value="0" leadInLength="0/1"  />
               <InterpolatingParam id="7068" interp="linr"  time="0/1" value="0" leadInLength="0/1"  />
              </VectorParam>
              <VectorParam id="7069"  name="geometryCrop">
               <InterpolatingParam id="7070" interp="linr"  time="-9999999/1" value="0" leadInLength="0/1"  />
               <InterpolatingParam id="7071" interp="linr"  time="-9999999/1" value="0" leadInLength="0/1"  />
               <InterpolatingParam id="7072" interp="linr"  time="-9999999/1" value="0" leadInLength="0/1"  />
               <InterpolatingParam id="7073" interp="linr"  time="-9999999/1" value="0" leadInLength="0/1"  />
              </VectorParam>
              <InterpolatingParam id="7074" interp="linr"  time="-9999999/1" value="1" leadInLength="0/1"  name="opacity"/>
             </Parameters>
             <Attributes>
              <Attribute id="7075" value="" name="ident"/>
             </Attributes>
             <ExtraData>
              <Entry key="ZoomPanBin">
               <ZoomPanBin id="7076"  >
                <ZoomPanKeyframes>
                 <ZoomPanKeyframe id="7077" timeRangeEnd="-9999999/1" timeRangeDuration="0/1" interpolaterName=""  />
                </ZoomPanKeyframes>
               </ZoomPanBin>
              </Entry>
             </ExtraData>
            </VMFile>
            <MetaData>
             <entry key="WinSubProjectDisplayName" val=""/>
            </MetaData>
           </UnifiedMedia>
           <UnifiedMedia id="7078"  >
            <AMFile id="7079" start="6695" duration="138" scalar="1/1" mediaStart="6732/1" mediaDuration="138/1" trackNumber="2" src="8" channelNumber="0,1" >
             <Parameters>
              <InterpolatingParam id="7080" interp="linr"  time="0/1" value="1" leadInLength="0/1"  name="volume"/>
              <Parameter id="7081"  name="captions"/>
             </Parameters>
             <Attributes>
              <Attribute id="7082" value="" name="ident"/>
              <Attribute id="7083" value="44100" name="sampleRate"/>
              <Attribute id="7084" value="16" name="bitDepth"/>
              <Attribute id="7085" value="1" name="gain"/>
              <Attribute id="7086" value="0" name="mixToMono"/>
             </Attributes>
            </AMFile>
            <VMFile id="7087" start="6695" duration="138" scalar="1/1" mediaStart="6732/1" mediaDuration="138/1" trackNumber="1" src="8" >
             <Transformer>
              <VectorParam id="7088"  name="translation">
               <InterpolatingParam id="7089" interp="linr"  time="-9999999/1" value="0" leadInLength="0/1"  />
               <InterpolatingParam id="7090" interp="linr"  time="-9999999/1" value="0" leadInLength="0/1"  />
               <InterpolatingParam id="7091" interp="linr"  time="-9999999/1" value="0" leadInLength="0/1"  />
              </VectorParam>
              <VectorParam id="7092"  name="rotation">
               <InterpolatingParam id="7093" interp="linr"  time="-9999999/1" value="0" leadInLength="0/1"  />
               <InterpolatingParam id="7094" interp="linr"  time="-9999999/1" value="0" leadInLength="0/1"  />
               <InterpolatingParam id="7095" interp="linr"  time="-9999999/1" value="0" leadInLength="0/1"  />
              </VectorParam>
              <VectorParam id="7096"  name="shear">
               <InterpolatingParam id="7097" interp="linr"  time="-9999999/1" value="0" leadInLength="0/1"  />
               <InterpolatingParam id="7098" interp="linr"  time="-9999999/1" value="0" leadInLength="0/1"  />
               <InterpolatingParam id="7099" interp="linr"  time="-9999999/1" value="0" leadInLength="0/1"  />
              </VectorParam>
              <VectorParam id="7100"  name="scale">
               <InterpolatingParam id="7101" interp="linr"  time="-9999999/1" value="1" leadInLength="0/1"  />
               <InterpolatingParam id="7102" interp="linr"  time="-9999999/1" value="1" leadInLength="0/1"  />
               <InterpolatingParam id="7103" interp="linr"  time="-9999999/1" value="1" leadInLength="0/1"  />
              </VectorParam>
              <VectorParam id="7104"  name="anchor">
               <InterpolatingParam id="7105" interp="linr"  time="0/1" value="0" leadInLength="0/1"  />
               <InterpolatingParam id="7106" interp="linr"  time="0/1" value="0" leadInLength="0/1"  />
               <InterpolatingParam id="7107" interp="linr"  time="0/1" value="0" leadInLength="0/1"  />
              </VectorParam>
             </Transformer>
             <Parameters>
              <VectorParam id="7108"  name="sourceCrop">
               <InterpolatingParam id="7109" interp="linr"  time="0/1" value="0" leadInLength="0/1"  />
               <InterpolatingParam id="7110" interp="linr"  time="0/1" value="0" leadInLength="0/1"  />
               <InterpolatingParam id="7111" interp="linr"  time="0/1" value="0" leadInLength="0/1"  />
               <InterpolatingParam id="7112" interp="linr"  time="0/1" value="0" leadInLength="0/1"  />
              </VectorParam>
              <VectorParam id="7113"  name="geometryCrop">
               <InterpolatingParam id="7114" interp="linr"  time="-9999999/1" value="0" leadInLength="0/1"  />
               <InterpolatingParam id="7115" interp="linr"  time="-9999999/1" value="0" leadInLength="0/1"  />
               <InterpolatingParam id="7116" interp="linr"  time="-9999999/1" value="0" leadInLength="0/1"  />
               <InterpolatingParam id="7117" interp="linr"  time="-9999999/1" value="0" leadInLength="0/1"  />
              </VectorParam>
              <InterpolatingParam id="7118" interp="linr"  time="-9999999/1" value="1" leadInLength="0/1"  name="opacity"/>
             </Parameters>
             <Attributes>
              <Attribute id="7119" value="" name="ident"/>
             </Attributes>
             <ExtraData>
              <Entry key="ZoomPanBin">
               <ZoomPanBin id="7120"  >
                <ZoomPanKeyframes>
                 <ZoomPanKeyframe id="7121" timeRangeEnd="-9999999/1" timeRangeDuration="0/1" interpolaterName=""  />
                </ZoomPanKeyframes>
               </ZoomPanBin>
              </Entry>
             </ExtraData>
            </VMFile>
            <MetaData>
             <entry key="WinSubProjectDisplayName" val=""/>
            </MetaData>
           </UnifiedMedia>
           <UnifiedMedia id="7122"  >
            <AMFile id="7123" start="6833" duration="136" scalar="1/1" mediaStart="6880/1" mediaDuration="136/1" trackNumber="2" src="8" channelNumber="0,1" >
             <Parameters>
              <InterpolatingParam id="7124" interp="linr"  time="0/1" value="1" leadInLength="0/1"  name="volume"/>
              <Parameter id="7125"  name="captions"/>
             </Parameters>
             <Attributes>
              <Attribute id="7126" value="" name="ident"/>
              <Attribute id="7127" value="44100" name="sampleRate"/>
              <Attribute id="7128" value="16" name="bitDepth"/>
              <Attribute id="7129" value="1" name="gain"/>
              <Attribute id="7130" value="0" name="mixToMono"/>
             </Attributes>
            </AMFile>
            <VMFile id="7131" start="6833" duration="136" scalar="1/1" mediaStart="6880/1" mediaDuration="136/1" trackNumber="1" src="8" >
             <Transformer>
              <VectorParam id="7132"  name="translation">
               <InterpolatingParam id="7133" interp="linr"  time="-9999999/1" value="0" leadInLength="0/1"  />
               <InterpolatingParam id="7134" interp="linr"  time="-9999999/1" value="0" leadInLength="0/1"  />
               <InterpolatingParam id="7135" interp="linr"  time="-9999999/1" value="0" leadInLength="0/1"  />
              </VectorParam>
              <VectorParam id="7136"  name="rotation">
               <InterpolatingParam id="7137" interp="linr"  time="-9999999/1" value="0" leadInLength="0/1"  />
               <InterpolatingParam id="7138" interp="linr"  time="-9999999/1" value="0" leadInLength="0/1"  />
               <InterpolatingParam id="7139" interp="linr"  time="-9999999/1" value="0" leadInLength="0/1"  />
              </VectorParam>
              <VectorParam id="7140"  name="shear">
               <InterpolatingParam id="7141" interp="linr"  time="-9999999/1" value="0" leadInLength="0/1"  />
               <InterpolatingParam id="7142" interp="linr"  time="-9999999/1" value="0" leadInLength="0/1"  />
               <InterpolatingParam id="7143" interp="linr"  time="-9999999/1" value="0" leadInLength="0/1"  />
              </VectorParam>
              <VectorParam id="7144"  name="scale">
               <InterpolatingParam id="7145" interp="linr"  time="-9999999/1" value="1" leadInLength="0/1"  />
               <InterpolatingParam id="7146" interp="linr"  time="-9999999/1" value="1" leadInLength="0/1"  />
               <InterpolatingParam id="7147" interp="linr"  time="-9999999/1" value="1" leadInLength="0/1"  />
              </VectorParam>
              <VectorParam id="7148"  name="anchor">
               <InterpolatingParam id="7149" interp="linr"  time="0/1" value="0" leadInLength="0/1"  />
               <InterpolatingParam id="7150" interp="linr"  time="0/1" value="0" leadInLength="0/1"  />
               <InterpolatingParam id="7151" interp="linr"  time="0/1" value="0" leadInLength="0/1"  />
              </VectorParam>
             </Transformer>
             <Parameters>
              <VectorParam id="7152"  name="sourceCrop">
               <InterpolatingParam id="7153" interp="linr"  time="0/1" value="0" leadInLength="0/1"  />
               <InterpolatingParam id="7154" interp="linr"  time="0/1" value="0" leadInLength="0/1"  />
               <InterpolatingParam id="7155" interp="linr"  time="0/1" value="0" leadInLength="0/1"  />
               <InterpolatingParam id="7156" interp="linr"  time="0/1" value="0" leadInLength="0/1"  />
              </VectorParam>
              <VectorParam id="7157"  name="geometryCrop">
               <InterpolatingParam id="7158" interp="linr"  time="-9999999/1" value="0" leadInLength="0/1"  />
               <InterpolatingParam id="7159" interp="linr"  time="-9999999/1" value="0" leadInLength="0/1"  />
               <InterpolatingParam id="7160" interp="linr"  time="-9999999/1" value="0" leadInLength="0/1"  />
               <InterpolatingParam id="7161" interp="linr"  time="-9999999/1" value="0" leadInLength="0/1"  />
              </VectorParam>
              <InterpolatingParam id="7162" interp="linr"  time="-9999999/1" value="1" leadInLength="0/1"  name="opacity"/>
             </Parameters>
             <Attributes>
              <Attribute id="7163" value="" name="ident"/>
             </Attributes>
             <ExtraData>
              <Entry key="ZoomPanBin">
               <ZoomPanBin id="7164"  >
                <ZoomPanKeyframes>
                 <ZoomPanKeyframe id="7165" timeRangeEnd="-9999999/1" timeRangeDuration="0/1" interpolaterName=""  />
                </ZoomPanKeyframes>
               </ZoomPanBin>
              </Entry>
             </ExtraData>
            </VMFile>
            <MetaData>
             <entry key="WinSubProjectDisplayName" val=""/>
            </MetaData>
           </UnifiedMedia>
           <UnifiedMedia id="7166"  >
            <AMFile id="7167" start="6969" duration="54" scalar="1/1" mediaStart="9661/1" mediaDuration="54/1" trackNumber="2" src="8" channelNumber="0,1" >
             <Parameters>
              <InterpolatingParam id="7168" interp="linr"  time="0/1" value="1" leadInLength="0/1"  name="volume"/>
              <Parameter id="7169"  name="captions"/>
             </Parameters>
             <Attributes>
              <Attribute id="7170" value="" name="ident"/>
              <Attribute id="7171" value="44100" name="sampleRate"/>
              <Attribute id="7172" value="16" name="bitDepth"/>
              <Attribute id="7173" value="1" name="gain"/>
              <Attribute id="7174" value="0" name="mixToMono"/>
             </Attributes>
            </AMFile>
            <VMFile id="7175" start="6969" duration="54" scalar="1/1" mediaStart="9661/1" mediaDuration="54/1" trackNumber="1" src="8" >
             <Transformer>
              <VectorParam id="7176"  name="translation">
               <InterpolatingParam id="7177" interp="linr"  time="-9999999/1" value="0" leadInLength="0/1"  />
               <InterpolatingParam id="7178" interp="linr"  time="-9999999/1" value="0" leadInLength="0/1"  />
               <InterpolatingParam id="7179" interp="linr"  time="-9999999/1" value="0" leadInLength="0/1"  />
              </VectorParam>
              <VectorParam id="7180"  name="rotation">
               <InterpolatingParam id="7181" interp="linr"  time="-9999999/1" value="0" leadInLength="0/1"  />
               <InterpolatingParam id="7182" interp="linr"  time="-9999999/1" value="0" leadInLength="0/1"  />
               <InterpolatingParam id="7183" interp="linr"  time="-9999999/1" value="0" leadInLength="0/1"  />
              </VectorParam>
              <VectorParam id="7184"  name="shear">
               <InterpolatingParam id="7185" interp="linr"  time="-9999999/1" value="0" leadInLength="0/1"  />
               <InterpolatingParam id="7186" interp="linr"  time="-9999999/1" value="0" leadInLength="0/1"  />
               <InterpolatingParam id="7187" interp="linr"  time="-9999999/1" value="0" leadInLength="0/1"  />
              </VectorParam>
              <VectorParam id="7188"  name="scale">
               <InterpolatingParam id="7189" interp="linr"  time="-9999999/1" value="1" leadInLength="0/1"  />
               <InterpolatingParam id="7190" interp="linr"  time="-9999999/1" value="1" leadInLength="0/1"  />
               <InterpolatingParam id="7191" interp="linr"  time="-9999999/1" value="1" leadInLength="0/1"  />
              </VectorParam>
              <VectorParam id="7192"  name="anchor">
               <InterpolatingParam id="7193" interp="linr"  time="0/1" value="0" leadInLength="0/1"  />
               <InterpolatingParam id="7194" interp="linr"  time="0/1" value="0" leadInLength="0/1"  />
               <InterpolatingParam id="7195" interp="linr"  time="0/1" value="0" leadInLength="0/1"  />
              </VectorParam>
             </Transformer>
             <Parameters>
              <VectorParam id="7196"  name="sourceCrop">
               <InterpolatingParam id="7197" interp="linr"  time="0/1" value="0" leadInLength="0/1"  />
               <InterpolatingParam id="7198" interp="linr"  time="0/1" value="0" leadInLength="0/1"  />
               <InterpolatingParam id="7199" interp="linr"  time="0/1" value="0" leadInLength="0/1"  />
               <InterpolatingParam id="7200" interp="linr"  time="0/1" value="0" leadInLength="0/1"  />
              </VectorParam>
              <VectorParam id="7201"  name="geometryCrop">
               <InterpolatingParam id="7202" interp="linr"  time="-9999999/1" value="0" leadInLength="0/1"  />
               <InterpolatingParam id="7203" interp="linr"  time="-9999999/1" value="0" leadInLength="0/1"  />
               <InterpolatingParam id="7204" interp="linr"  time="-9999999/1" value="0" leadInLength="0/1"  />
               <InterpolatingParam id="7205" interp="linr"  time="-9999999/1" value="0" leadInLength="0/1"  />
              </VectorParam>
              <InterpolatingParam id="7206" interp="linr"  time="-9999999/1" value="1" leadInLength="0/1"  name="opacity"/>
             </Parameters>
             <Attributes>
              <Attribute id="7207" value="" name="ident"/>
             </Attributes>
             <ExtraData>
              <Entry key="ZoomPanBin">
               <ZoomPanBin id="7208"  >
                <ZoomPanKeyframes>
                 <ZoomPanKeyframe id="7209" timeRangeEnd="-9999999/1" timeRangeDuration="0/1" interpolaterName=""  />
                </ZoomPanKeyframes>
               </ZoomPanBin>
              </Entry>
             </ExtraData>
            </VMFile>
            <MetaData>
             <entry key="WinSubProjectDisplayName" val=""/>
            </MetaData>
           </UnifiedMedia>
           <UnifiedMedia id="7210"  >
            <AMFile id="7211" start="7023" duration="90" scalar="1/1" mediaStart="9720/1" mediaDuration="90/1" trackNumber="2" src="8" channelNumber="0,1" >
             <Parameters>
              <InterpolatingParam id="7212" interp="linr"  time="0/1" value="1" leadInLength="0/1"  name="volume"/>
              <Parameter id="7213"  name="captions"/>
             </Parameters>
             <Attributes>
              <Attribute id="7214" value="" name="ident"/>
              <Attribute id="7215" value="44100" name="sampleRate"/>
              <Attribute id="7216" value="16" name="bitDepth"/>
              <Attribute id="7217" value="1" name="gain"/>
              <Attribute id="7218" value="0" name="mixToMono"/>
             </Attributes>
            </AMFile>
            <VMFile id="7219" start="7023" duration="90" scalar="1/1" mediaStart="9720/1" mediaDuration="90/1" trackNumber="1" src="8" >
             <Transformer>
              <VectorParam id="7220"  name="translation">
               <InterpolatingParam id="7221" interp="linr"  time="-9999999/1" value="0" leadInLength="0/1"  />
               <InterpolatingParam id="7222" interp="linr"  time="-9999999/1" value="0" leadInLength="0/1"  />
               <InterpolatingParam id="7223" interp="linr"  time="-9999999/1" value="0" leadInLength="0/1"  />
              </VectorParam>
              <VectorParam id="7224"  name="rotation">
               <InterpolatingParam id="7225" interp="linr"  time="-9999999/1" value="0" leadInLength="0/1"  />
               <InterpolatingParam id="7226" interp="linr"  time="-9999999/1" value="0" leadInLength="0/1"  />
               <InterpolatingParam id="7227" interp="linr"  time="-9999999/1" value="0" leadInLength="0/1"  />
              </VectorParam>
              <VectorParam id="7228"  name="shear">
               <InterpolatingParam id="7229" interp="linr"  time="-9999999/1" value="0" leadInLength="0/1"  />
               <InterpolatingParam id="7230" interp="linr"  time="-9999999/1" value="0" leadInLength="0/1"  />
               <InterpolatingParam id="7231" interp="linr"  time="-9999999/1" value="0" leadInLength="0/1"  />
              </VectorParam>
              <VectorParam id="7232"  name="scale">
               <InterpolatingParam id="7233" interp="linr"  time="-9999999/1" value="1" leadInLength="0/1"  />
               <InterpolatingParam id="7234" interp="linr"  time="-9999999/1" value="1" leadInLength="0/1"  />
               <InterpolatingParam id="7235" interp="linr"  time="-9999999/1" value="1" leadInLength="0/1"  />
              </VectorParam>
              <VectorParam id="7236"  name="anchor">
               <InterpolatingParam id="7237" interp="linr"  time="0/1" value="0" leadInLength="0/1"  />
               <InterpolatingParam id="7238" interp="linr"  time="0/1" value="0" leadInLength="0/1"  />
               <InterpolatingParam id="7239" interp="linr"  time="0/1" value="0" leadInLength="0/1"  />
              </VectorParam>
             </Transformer>
             <Parameters>
              <VectorParam id="7240"  name="sourceCrop">
               <InterpolatingParam id="7241" interp="linr"  time="0/1" value="0" leadInLength="0/1"  />
               <InterpolatingParam id="7242" interp="linr"  time="0/1" value="0" leadInLength="0/1"  />
               <InterpolatingParam id="7243" interp="linr"  time="0/1" value="0" leadInLength="0/1"  />
               <InterpolatingParam id="7244" interp="linr"  time="0/1" value="0" leadInLength="0/1"  />
              </VectorParam>
              <VectorParam id="7245"  name="geometryCrop">
               <InterpolatingParam id="7246" interp="linr"  time="-9999999/1" value="0" leadInLength="0/1"  />
               <InterpolatingParam id="7247" interp="linr"  time="-9999999/1" value="0" leadInLength="0/1"  />
               <InterpolatingParam id="7248" interp="linr"  time="-9999999/1" value="0" leadInLength="0/1"  />
               <InterpolatingParam id="7249" interp="linr"  time="-9999999/1" value="0" leadInLength="0/1"  />
              </VectorParam>
              <InterpolatingParam id="7250" interp="linr"  time="-9999999/1" value="1" leadInLength="0/1"  name="opacity"/>
             </Parameters>
             <Attributes>
              <Attribute id="7251" value="" name="ident"/>
             </Attributes>
             <ExtraData>
              <Entry key="ZoomPanBin">
               <ZoomPanBin id="7252"  >
                <ZoomPanKeyframes>
                 <ZoomPanKeyframe id="7253" timeRangeEnd="-9999999/1" timeRangeDuration="0/1" interpolaterName=""  />
                </ZoomPanKeyframes>
               </ZoomPanBin>
              </Entry>
             </ExtraData>
            </VMFile>
            <MetaData>
             <entry key="WinSubProjectDisplayName" val=""/>
            </MetaData>
           </UnifiedMedia>
           <UnifiedMedia id="7254"  >
            <AMFile id="7255" start="7113" duration="88" scalar="1/1" mediaStart="9824/1" mediaDuration="88/1" trackNumber="2" src="8" channelNumber="0,1" >
             <Parameters>
              <InterpolatingParam id="7256" interp="linr"  time="0/1" value="1" leadInLength="0/1"  name="volume"/>
              <Parameter id="7257"  name="captions"/>
             </Parameters>
             <Attributes>
              <Attribute id="7258" value="" name="ident"/>
              <Attribute id="7259" value="44100" name="sampleRate"/>
              <Attribute id="7260" value="16" name="bitDepth"/>
              <Attribute id="7261" value="1" name="gain"/>
              <Attribute id="7262" value="0" name="mixToMono"/>
             </Attributes>
            </AMFile>
            <VMFile id="7263" start="7113" duration="88" scalar="1/1" mediaStart="9824/1" mediaDuration="88/1" trackNumber="1" src="8" >
             <Transformer>
              <VectorParam id="7264"  name="translation">
               <InterpolatingParam id="7265" interp="linr"  time="-9999999/1" value="0" leadInLength="0/1"  />
               <InterpolatingParam id="7266" interp="linr"  time="-9999999/1" value="0" leadInLength="0/1"  />
               <InterpolatingParam id="7267" interp="linr"  time="-9999999/1" value="0" leadInLength="0/1"  />
              </VectorParam>
              <VectorParam id="7268"  name="rotation">
               <InterpolatingParam id="7269" interp="linr"  time="-9999999/1" value="0" leadInLength="0/1"  />
               <InterpolatingParam id="7270" interp="linr"  time="-9999999/1" value="0" leadInLength="0/1"  />
               <InterpolatingParam id="7271" interp="linr"  time="-9999999/1" value="0" leadInLength="0/1"  />
              </VectorParam>
              <VectorParam id="7272"  name="shear">
               <InterpolatingParam id="7273" interp="linr"  time="-9999999/1" value="0" leadInLength="0/1"  />
               <InterpolatingParam id="7274" interp="linr"  time="-9999999/1" value="0" leadInLength="0/1"  />
               <InterpolatingParam id="7275" interp="linr"  time="-9999999/1" value="0" leadInLength="0/1"  />
              </VectorParam>
              <VectorParam id="7276"  name="scale">
               <InterpolatingParam id="7277" interp="linr"  time="-9999999/1" value="1" leadInLength="0/1"  />
               <InterpolatingParam id="7278" interp="linr"  time="-9999999/1" value="1" leadInLength="0/1"  />
               <InterpolatingParam id="7279" interp="linr"  time="-9999999/1" value="1" leadInLength="0/1"  />
              </VectorParam>
              <VectorParam id="7280"  name="anchor">
               <InterpolatingParam id="7281" interp="linr"  time="0/1" value="0" leadInLength="0/1"  />
               <InterpolatingParam id="7282" interp="linr"  time="0/1" value="0" leadInLength="0/1"  />
               <InterpolatingParam id="7283" interp="linr"  time="0/1" value="0" leadInLength="0/1"  />
              </VectorParam>
             </Transformer>
             <Parameters>
              <VectorParam id="7284"  name="sourceCrop">
               <InterpolatingParam id="7285" interp="linr"  time="0/1" value="0" leadInLength="0/1"  />
               <InterpolatingParam id="7286" interp="linr"  time="0/1" value="0" leadInLength="0/1"  />
               <InterpolatingParam id="7287" interp="linr"  time="0/1" value="0" leadInLength="0/1"  />
               <InterpolatingParam id="7288" interp="linr"  time="0/1" value="0" leadInLength="0/1"  />
              </VectorParam>
              <VectorParam id="7289"  name="geometryCrop">
               <InterpolatingParam id="7290" interp="linr"  time="-9999999/1" value="0" leadInLength="0/1"  />
               <InterpolatingParam id="7291" interp="linr"  time="-9999999/1" value="0" leadInLength="0/1"  />
               <InterpolatingParam id="7292" interp="linr"  time="-9999999/1" value="0" leadInLength="0/1"  />
               <InterpolatingParam id="7293" interp="linr"  time="-9999999/1" value="0" leadInLength="0/1"  />
              </VectorParam>
              <InterpolatingParam id="7294" interp="linr"  time="-9999999/1" value="1" leadInLength="0/1"  name="opacity"/>
             </Parameters>
             <Attributes>
              <Attribute id="7295" value="" name="ident"/>
             </Attributes>
             <ExtraData>
              <Entry key="ZoomPanBin">
               <ZoomPanBin id="7296"  >
                <ZoomPanKeyframes>
                 <ZoomPanKeyframe id="7297" timeRangeEnd="-9999999/1" timeRangeDuration="0/1" interpolaterName=""  />
                </ZoomPanKeyframes>
               </ZoomPanBin>
              </Entry>
             </ExtraData>
            </VMFile>
            <MetaData>
             <entry key="WinSubProjectDisplayName" val=""/>
            </MetaData>
           </UnifiedMedia>
           <UnifiedMedia id="7298"  >
            <AMFile id="7299" start="7201" duration="163" scalar="1/1" mediaStart="9930/1" mediaDuration="163/1" trackNumber="2" src="8" channelNumber="0,1" >
             <Parameters>
              <InterpolatingParam id="7300" interp="linr"  time="0/1" value="1" leadInLength="0/1"  name="volume"/>
              <Parameter id="7301"  name="captions"/>
             </Parameters>
             <Attributes>
              <Attribute id="7302" value="" name="ident"/>
              <Attribute id="7303" value="44100" name="sampleRate"/>
              <Attribute id="7304" value="16" name="bitDepth"/>
              <Attribute id="7305" value="1" name="gain"/>
              <Attribute id="7306" value="0" name="mixToMono"/>
             </Attributes>
            </AMFile>
            <VMFile id="7307" start="7201" duration="163" scalar="1/1" mediaStart="9930/1" mediaDuration="163/1" trackNumber="1" src="8" >
             <Transformer>
              <VectorParam id="7308"  name="translation">
               <InterpolatingParam id="7309" interp="linr"  time="-9999999/1" value="0" leadInLength="0/1"  />
               <InterpolatingParam id="7310" interp="linr"  time="-9999999/1" value="0" leadInLength="0/1"  />
               <InterpolatingParam id="7311" interp="linr"  time="-9999999/1" value="0" leadInLength="0/1"  />
              </VectorParam>
              <VectorParam id="7312"  name="rotation">
               <InterpolatingParam id="7313" interp="linr"  time="-9999999/1" value="0" leadInLength="0/1"  />
               <InterpolatingParam id="7314" interp="linr"  time="-9999999/1" value="0" leadInLength="0/1"  />
               <InterpolatingParam id="7315" interp="linr"  time="-9999999/1" value="0" leadInLength="0/1"  />
              </VectorParam>
              <VectorParam id="7316"  name="shear">
               <InterpolatingParam id="7317" interp="linr"  time="-9999999/1" value="0" leadInLength="0/1"  />
               <InterpolatingParam id="7318" interp="linr"  time="-9999999/1" value="0" leadInLength="0/1"  />
               <InterpolatingParam id="7319" interp="linr"  time="-9999999/1" value="0" leadInLength="0/1"  />
              </VectorParam>
              <VectorParam id="7320"  name="scale">
               <InterpolatingParam id="7321" interp="linr"  time="-9999999/1" value="1" leadInLength="0/1"  />
               <InterpolatingParam id="7322" interp="linr"  time="-9999999/1" value="1" leadInLength="0/1"  />
               <InterpolatingParam id="7323" interp="linr"  time="-9999999/1" value="1" leadInLength="0/1"  />
              </VectorParam>
              <VectorParam id="7324"  name="anchor">
               <InterpolatingParam id="7325" interp="linr"  time="0/1" value="0" leadInLength="0/1"  />
               <InterpolatingParam id="7326" interp="linr"  time="0/1" value="0" leadInLength="0/1"  />
               <InterpolatingParam id="7327" interp="linr"  time="0/1" value="0" leadInLength="0/1"  />
              </VectorParam>
             </Transformer>
             <Parameters>
              <VectorParam id="7328"  name="sourceCrop">
               <InterpolatingParam id="7329" interp="linr"  time="0/1" value="0" leadInLength="0/1"  />
               <InterpolatingParam id="7330" interp="linr"  time="0/1" value="0" leadInLength="0/1"  />
               <InterpolatingParam id="7331" interp="linr"  time="0/1" value="0" leadInLength="0/1"  />
               <InterpolatingParam id="7332" interp="linr"  time="0/1" value="0" leadInLength="0/1"  />
              </VectorParam>
              <VectorParam id="7333"  name="geometryCrop">
               <InterpolatingParam id="7334" interp="linr"  time="-9999999/1" value="0" leadInLength="0/1"  />
               <InterpolatingParam id="7335" interp="linr"  time="-9999999/1" value="0" leadInLength="0/1"  />
               <InterpolatingParam id="7336" interp="linr"  time="-9999999/1" value="0" leadInLength="0/1"  />
               <InterpolatingParam id="7337" interp="linr"  time="-9999999/1" value="0" leadInLength="0/1"  />
              </VectorParam>
              <InterpolatingParam id="7338" interp="linr"  time="-9999999/1" value="1" leadInLength="0/1"  name="opacity"/>
             </Parameters>
             <Attributes>
              <Attribute id="7339" value="" name="ident"/>
             </Attributes>
             <ExtraData>
              <Entry key="ZoomPanBin">
               <ZoomPanBin id="7340"  >
                <ZoomPanKeyframes>
                 <ZoomPanKeyframe id="7341" timeRangeEnd="-9999999/1" timeRangeDuration="0/1" interpolaterName=""  />
                </ZoomPanKeyframes>
               </ZoomPanBin>
              </Entry>
             </ExtraData>
            </VMFile>
            <MetaData>
             <entry key="WinSubProjectDisplayName" val=""/>
            </MetaData>
           </UnifiedMedia>
           <UnifiedMedia id="7342"  >
            <AMFile id="7343" start="7364" duration="82" scalar="1/1" mediaStart="10099/1" mediaDuration="82/1" trackNumber="2" src="8" channelNumber="0,1" >
             <Parameters>
              <InterpolatingParam id="7344" interp="linr"  time="0/1" value="1" leadInLength="0/1"  name="volume"/>
              <Parameter id="7345"  name="captions"/>
             </Parameters>
             <Attributes>
              <Attribute id="7346" value="" name="ident"/>
              <Attribute id="7347" value="44100" name="sampleRate"/>
              <Attribute id="7348" value="16" name="bitDepth"/>
              <Attribute id="7349" value="1" name="gain"/>
              <Attribute id="7350" value="0" name="mixToMono"/>
             </Attributes>
            </AMFile>
            <VMFile id="7351" start="7364" duration="82" scalar="1/1" mediaStart="10099/1" mediaDuration="82/1" trackNumber="1" src="8" >
             <Transformer>
              <VectorParam id="7352"  name="translation">
               <InterpolatingParam id="7353" interp="linr"  time="-9999999/1" value="0" leadInLength="0/1"  />
               <InterpolatingParam id="7354" interp="linr"  time="-9999999/1" value="0" leadInLength="0/1"  />
               <InterpolatingParam id="7355" interp="linr"  time="-9999999/1" value="0" leadInLength="0/1"  />
              </VectorParam>
              <VectorParam id="7356"  name="rotation">
               <InterpolatingParam id="7357" interp="linr"  time="-9999999/1" value="0" leadInLength="0/1"  />
               <InterpolatingParam id="7358" interp="linr"  time="-9999999/1" value="0" leadInLength="0/1"  />
               <InterpolatingParam id="7359" interp="linr"  time="-9999999/1" value="0" leadInLength="0/1"  />
              </VectorParam>
              <VectorParam id="7360"  name="shear">
               <InterpolatingParam id="7361" interp="linr"  time="-9999999/1" value="0" leadInLength="0/1"  />
               <InterpolatingParam id="7362" interp="linr"  time="-9999999/1" value="0" leadInLength="0/1"  />
               <InterpolatingParam id="7363" interp="linr"  time="-9999999/1" value="0" leadInLength="0/1"  />
              </VectorParam>
              <VectorParam id="7364"  name="scale">
               <InterpolatingParam id="7365" interp="linr"  time="-9999999/1" value="1" leadInLength="0/1"  />
               <InterpolatingParam id="7366" interp="linr"  time="-9999999/1" value="1" leadInLength="0/1"  />
               <InterpolatingParam id="7367" interp="linr"  time="-9999999/1" value="1" leadInLength="0/1"  />
              </VectorParam>
              <VectorParam id="7368"  name="anchor">
               <InterpolatingParam id="7369" interp="linr"  time="0/1" value="0" leadInLength="0/1"  />
               <InterpolatingParam id="7370" interp="linr"  time="0/1" value="0" leadInLength="0/1"  />
               <InterpolatingParam id="7371" interp="linr"  time="0/1" value="0" leadInLength="0/1"  />
              </VectorParam>
             </Transformer>
             <Parameters>
              <VectorParam id="7372"  name="sourceCrop">
               <InterpolatingParam id="7373" interp="linr"  time="0/1" value="0" leadInLength="0/1"  />
               <InterpolatingParam id="7374" interp="linr"  time="0/1" value="0" leadInLength="0/1"  />
               <InterpolatingParam id="7375" interp="linr"  time="0/1" value="0" leadInLength="0/1"  />
               <InterpolatingParam id="7376" interp="linr"  time="0/1" value="0" leadInLength="0/1"  />
              </VectorParam>
              <VectorParam id="7377"  name="geometryCrop">
               <InterpolatingParam id="7378" interp="linr"  time="-9999999/1" value="0" leadInLength="0/1"  />
               <InterpolatingParam id="7379" interp="linr"  time="-9999999/1" value="0" leadInLength="0/1"  />
               <InterpolatingParam id="7380" interp="linr"  time="-9999999/1" value="0" leadInLength="0/1"  />
               <InterpolatingParam id="7381" interp="linr"  time="-9999999/1" value="0" leadInLength="0/1"  />
              </VectorParam>
              <InterpolatingParam id="7382" interp="linr"  time="-9999999/1" value="1" leadInLength="0/1"  name="opacity"/>
             </Parameters>
             <Attributes>
              <Attribute id="7383" value="" name="ident"/>
             </Attributes>
             <ExtraData>
              <Entry key="ZoomPanBin">
               <ZoomPanBin id="7384"  >
                <ZoomPanKeyframes>
                 <ZoomPanKeyframe id="7385" timeRangeEnd="-9999999/1" timeRangeDuration="0/1" interpolaterName=""  />
                </ZoomPanKeyframes>
               </ZoomPanBin>
              </Entry>
             </ExtraData>
            </VMFile>
            <MetaData>
             <entry key="WinSubProjectDisplayName" val=""/>
            </MetaData>
           </UnifiedMedia>
           <UnifiedMedia id="7386"  >
            <AMFile id="7387" start="7446" duration="103" scalar="1/1" mediaStart="10192/1" mediaDuration="103/1" trackNumber="2" src="8" channelNumber="0,1" >
             <Parameters>
              <InterpolatingParam id="7388" interp="linr"  time="0/1" value="1" leadInLength="0/1"  name="volume"/>
              <Parameter id="7389"  name="captions"/>
             </Parameters>
             <Attributes>
              <Attribute id="7390" value="" name="ident"/>
              <Attribute id="7391" value="44100" name="sampleRate"/>
              <Attribute id="7392" value="16" name="bitDepth"/>
              <Attribute id="7393" value="1" name="gain"/>
              <Attribute id="7394" value="0" name="mixToMono"/>
             </Attributes>
            </AMFile>
            <VMFile id="7395" start="7446" duration="103" scalar="1/1" mediaStart="10192/1" mediaDuration="103/1" trackNumber="1" src="8" >
             <Transformer>
              <VectorParam id="7396"  name="translation">
               <InterpolatingParam id="7397" interp="linr"  time="-9999999/1" value="0" leadInLength="0/1"  />
               <InterpolatingParam id="7398" interp="linr"  time="-9999999/1" value="0" leadInLength="0/1"  />
               <InterpolatingParam id="7399" interp="linr"  time="-9999999/1" value="0" leadInLength="0/1"  />
              </VectorParam>
              <VectorParam id="7400"  name="rotation">
               <InterpolatingParam id="7401" interp="linr"  time="-9999999/1" value="0" leadInLength="0/1"  />
               <InterpolatingParam id="7402" interp="linr"  time="-9999999/1" value="0" leadInLength="0/1"  />
               <InterpolatingParam id="7403" interp="linr"  time="-9999999/1" value="0" leadInLength="0/1"  />
              </VectorParam>
              <VectorParam id="7404"  name="shear">
               <InterpolatingParam id="7405" interp="linr"  time="-9999999/1" value="0" leadInLength="0/1"  />
               <InterpolatingParam id="7406" interp="linr"  time="-9999999/1" value="0" leadInLength="0/1"  />
               <InterpolatingParam id="7407" interp="linr"  time="-9999999/1" value="0" leadInLength="0/1"  />
              </VectorParam>
              <VectorParam id="7408"  name="scale">
               <InterpolatingParam id="7409" interp="linr"  time="-9999999/1" value="1" leadInLength="0/1"  />
               <InterpolatingParam id="7410" interp="linr"  time="-9999999/1" value="1" leadInLength="0/1"  />
               <InterpolatingParam id="7411" interp="linr"  time="-9999999/1" value="1" leadInLength="0/1"  />
              </VectorParam>
              <VectorParam id="7412"  name="anchor">
               <InterpolatingParam id="7413" interp="linr"  time="0/1" value="0" leadInLength="0/1"  />
               <InterpolatingParam id="7414" interp="linr"  time="0/1" value="0" leadInLength="0/1"  />
               <InterpolatingParam id="7415" interp="linr"  time="0/1" value="0" leadInLength="0/1"  />
              </VectorParam>
             </Transformer>
             <Parameters>
              <VectorParam id="7416"  name="sourceCrop">
               <InterpolatingParam id="7417" interp="linr"  time="0/1" value="0" leadInLength="0/1"  />
               <InterpolatingParam id="7418" interp="linr"  time="0/1" value="0" leadInLength="0/1"  />
               <InterpolatingParam id="7419" interp="linr"  time="0/1" value="0" leadInLength="0/1"  />
               <InterpolatingParam id="7420" interp="linr"  time="0/1" value="0" leadInLength="0/1"  />
              </VectorParam>
              <VectorParam id="7421"  name="geometryCrop">
               <InterpolatingParam id="7422" interp="linr"  time="-9999999/1" value="0" leadInLength="0/1"  />
               <InterpolatingParam id="7423" interp="linr"  time="-9999999/1" value="0" leadInLength="0/1"  />
               <InterpolatingParam id="7424" interp="linr"  time="-9999999/1" value="0" leadInLength="0/1"  />
               <InterpolatingParam id="7425" interp="linr"  time="-9999999/1" value="0" leadInLength="0/1"  />
              </VectorParam>
              <InterpolatingParam id="7426" interp="linr"  time="-9999999/1" value="1" leadInLength="0/1"  name="opacity"/>
             </Parameters>
             <Attributes>
              <Attribute id="7427" value="" name="ident"/>
             </Attributes>
             <ExtraData>
              <Entry key="ZoomPanBin">
               <ZoomPanBin id="7428"  >
                <ZoomPanKeyframes>
                 <ZoomPanKeyframe id="7429" timeRangeEnd="-9999999/1" timeRangeDuration="0/1" interpolaterName=""  />
                </ZoomPanKeyframes>
               </ZoomPanBin>
              </Entry>
             </ExtraData>
            </VMFile>
            <MetaData>
             <entry key="WinSubProjectDisplayName" val=""/>
            </MetaData>
           </UnifiedMedia>
           <UnifiedMedia id="7430"  >
            <AMFile id="7431" start="7549" duration="42" scalar="1/1" mediaStart="10303/1" mediaDuration="42/1" trackNumber="2" src="8" channelNumber="0,1" >
             <Parameters>
              <InterpolatingParam id="7432" interp="linr"  time="0/1" value="1" leadInLength="0/1"  name="volume"/>
              <Parameter id="7433"  name="captions"/>
             </Parameters>
             <Attributes>
              <Attribute id="7434" value="" name="ident"/>
              <Attribute id="7435" value="44100" name="sampleRate"/>
              <Attribute id="7436" value="16" name="bitDepth"/>
              <Attribute id="7437" value="1" name="gain"/>
              <Attribute id="7438" value="0" name="mixToMono"/>
             </Attributes>
            </AMFile>
            <VMFile id="7439" start="7549" duration="42" scalar="1/1" mediaStart="10303/1" mediaDuration="42/1" trackNumber="1" src="8" >
             <Transformer>
              <VectorParam id="7440"  name="translation">
               <InterpolatingParam id="7441" interp="linr"  time="-9999999/1" value="0" leadInLength="0/1"  />
               <InterpolatingParam id="7442" interp="linr"  time="-9999999/1" value="0" leadInLength="0/1"  />
               <InterpolatingParam id="7443" interp="linr"  time="-9999999/1" value="0" leadInLength="0/1"  />
              </VectorParam>
              <VectorParam id="7444"  name="rotation">
               <InterpolatingParam id="7445" interp="linr"  time="-9999999/1" value="0" leadInLength="0/1"  />
               <InterpolatingParam id="7446" interp="linr"  time="-9999999/1" value="0" leadInLength="0/1"  />
               <InterpolatingParam id="7447" interp="linr"  time="-9999999/1" value="0" leadInLength="0/1"  />
              </VectorParam>
              <VectorParam id="7448"  name="shear">
               <InterpolatingParam id="7449" interp="linr"  time="-9999999/1" value="0" leadInLength="0/1"  />
               <InterpolatingParam id="7450" interp="linr"  time="-9999999/1" value="0" leadInLength="0/1"  />
               <InterpolatingParam id="7451" interp="linr"  time="-9999999/1" value="0" leadInLength="0/1"  />
              </VectorParam>
              <VectorParam id="7452"  name="scale">
               <InterpolatingParam id="7453" interp="linr"  time="-9999999/1" value="1" leadInLength="0/1"  />
               <InterpolatingParam id="7454" interp="linr"  time="-9999999/1" value="1" leadInLength="0/1"  />
               <InterpolatingParam id="7455" interp="linr"  time="-9999999/1" value="1" leadInLength="0/1"  />
              </VectorParam>
              <VectorParam id="7456"  name="anchor">
               <InterpolatingParam id="7457" interp="linr"  time="0/1" value="0" leadInLength="0/1"  />
               <InterpolatingParam id="7458" interp="linr"  time="0/1" value="0" leadInLength="0/1"  />
               <InterpolatingParam id="7459" interp="linr"  time="0/1" value="0" leadInLength="0/1"  />
              </VectorParam>
             </Transformer>
             <Parameters>
              <VectorParam id="7460"  name="sourceCrop">
               <InterpolatingParam id="7461" interp="linr"  time="0/1" value="0" leadInLength="0/1"  />
               <InterpolatingParam id="7462" interp="linr"  time="0/1" value="0" leadInLength="0/1"  />
               <InterpolatingParam id="7463" interp="linr"  time="0/1" value="0" leadInLength="0/1"  />
               <InterpolatingParam id="7464" interp="linr"  time="0/1" value="0" leadInLength="0/1"  />
              </VectorParam>
              <VectorParam id="7465"  name="geometryCrop">
               <InterpolatingParam id="7466" interp="linr"  time="-9999999/1" value="0" leadInLength="0/1"  />
               <InterpolatingParam id="7467" interp="linr"  time="-9999999/1" value="0" leadInLength="0/1"  />
               <InterpolatingParam id="7468" interp="linr"  time="-9999999/1" value="0" leadInLength="0/1"  />
               <InterpolatingParam id="7469" interp="linr"  time="-9999999/1" value="0" leadInLength="0/1"  />
              </VectorParam>
              <InterpolatingParam id="7470" interp="linr"  time="-9999999/1" value="1" leadInLength="0/1"  name="opacity"/>
             </Parameters>
             <Attributes>
              <Attribute id="7471" value="" name="ident"/>
             </Attributes>
             <ExtraData>
              <Entry key="ZoomPanBin">
               <ZoomPanBin id="7472"  >
                <ZoomPanKeyframes>
                 <ZoomPanKeyframe id="7473" timeRangeEnd="-9999999/1" timeRangeDuration="0/1" interpolaterName=""  />
                </ZoomPanKeyframes>
               </ZoomPanBin>
              </Entry>
             </ExtraData>
            </VMFile>
            <MetaData>
             <entry key="WinSubProjectDisplayName" val=""/>
            </MetaData>
           </UnifiedMedia>
           <UnifiedMedia id="7474"  >
            <AMFile id="7475" start="7591" duration="3714" scalar="1/1" mediaStart="10433/1" mediaDuration="3714/1" trackNumber="2" src="8" channelNumber="0,1" >
             <Parameters>
              <InterpolatingParam id="7476" interp="linr"  time="0/1" value="1" leadInLength="0/1"  name="volume"/>
              <Parameter id="7477"  name="captions"/>
             </Parameters>
             <Attributes>
              <Attribute id="7478" value="" name="ident"/>
              <Attribute id="7479" value="44100" name="sampleRate"/>
              <Attribute id="7480" value="16" name="bitDepth"/>
              <Attribute id="7481" value="1" name="gain"/>
              <Attribute id="7482" value="0" name="mixToMono"/>
             </Attributes>
            </AMFile>
            <VMFile id="7483" start="7591" duration="3714" scalar="1/1" mediaStart="10433/1" mediaDuration="3714/1" trackNumber="1" src="8" >
             <Transformer>
              <VectorParam id="7484"  name="translation">
               <InterpolatingParam id="7485" interp="linr"  time="-9999999/1" value="0" leadInLength="0/1"  />
               <InterpolatingParam id="7486" interp="linr"  time="-9999999/1" value="0" leadInLength="0/1"  />
               <InterpolatingParam id="7487" interp="linr"  time="-9999999/1" value="0" leadInLength="0/1"  />
              </VectorParam>
              <VectorParam id="7488"  name="rotation">
               <InterpolatingParam id="7489" interp="linr"  time="-9999999/1" value="0" leadInLength="0/1"  />
               <InterpolatingParam id="7490" interp="linr"  time="-9999999/1" value="0" leadInLength="0/1"  />
               <InterpolatingParam id="7491" interp="linr"  time="-9999999/1" value="0" leadInLength="0/1"  />
              </VectorParam>
              <VectorParam id="7492"  name="shear">
               <InterpolatingParam id="7493" interp="linr"  time="-9999999/1" value="0" leadInLength="0/1"  />
               <InterpolatingParam id="7494" interp="linr"  time="-9999999/1" value="0" leadInLength="0/1"  />
               <InterpolatingParam id="7495" interp="linr"  time="-9999999/1" value="0" leadInLength="0/1"  />
              </VectorParam>
              <VectorParam id="7496"  name="scale">
               <InterpolatingParam id="7497" interp="linr"  time="-9999999/1" value="1" leadInLength="0/1"  />
               <InterpolatingParam id="7498" interp="linr"  time="-9999999/1" value="1" leadInLength="0/1"  />
               <InterpolatingParam id="7499" interp="linr"  time="-9999999/1" value="1" leadInLength="0/1"  />
              </VectorParam>
              <VectorParam id="7500"  name="anchor">
               <InterpolatingParam id="7501" interp="linr"  time="0/1" value="0" leadInLength="0/1"  />
               <InterpolatingParam id="7502" interp="linr"  time="0/1" value="0" leadInLength="0/1"  />
               <InterpolatingParam id="7503" interp="linr"  time="0/1" value="0" leadInLength="0/1"  />
              </VectorParam>
             </Transformer>
             <Parameters>
              <VectorParam id="7504"  name="sourceCrop">
               <InterpolatingParam id="7505" interp="linr"  time="0/1" value="0" leadInLength="0/1"  />
               <InterpolatingParam id="7506" interp="linr"  time="0/1" value="0" leadInLength="0/1"  />
               <InterpolatingParam id="7507" interp="linr"  time="0/1" value="0" leadInLength="0/1"  />
               <InterpolatingParam id="7508" interp="linr"  time="0/1" value="0" leadInLength="0/1"  />
              </VectorParam>
              <VectorParam id="7509"  name="geometryCrop">
               <InterpolatingParam id="7510" interp="linr"  time="-9999999/1" value="0" leadInLength="0/1"  />
               <InterpolatingParam id="7511" interp="linr"  time="-9999999/1" value="0" leadInLength="0/1"  />
               <InterpolatingParam id="7512" interp="linr"  time="-9999999/1" value="0" leadInLength="0/1"  />
               <InterpolatingParam id="7513" interp="linr"  time="-9999999/1" value="0" leadInLength="0/1"  />
              </VectorParam>
              <InterpolatingParam id="7514" interp="linr"  time="-9999999/1" value="1" leadInLength="0/1"  name="opacity"/>
             </Parameters>
             <Attributes>
              <Attribute id="7515" value="" name="ident"/>
             </Attributes>
             <ExtraData>
              <Entry key="ZoomPanBin">
               <ZoomPanBin id="7516"  >
                <ZoomPanKeyframes>
                 <ZoomPanKeyframe id="7517" timeRangeEnd="-9999999/1" timeRangeDuration="0/1" interpolaterName=""  />
                </ZoomPanKeyframes>
               </ZoomPanBin>
              </Entry>
             </ExtraData>
            </VMFile>
            <MetaData>
             <entry key="WinSubProjectDisplayName" val=""/>
            </MetaData>
           </UnifiedMedia>
          </Medias>
         </GenericTrack>
        </StitchedMedia>
       </Medias>
      </GenericTrack>
      <GenericTrack id="7518"  >
       <Attributes>
        <Attribute id="7519" value="" name="ident"/>
        <Attribute id="7520" value="0" name="audioMuted"/>
        <Attribute id="7521" value="0" name="videoHidden"/>
       </Attributes>
       <MetaData>
        <entry key="IsLocked" val="False"/>
        <entry key="WinTrackHeight" val="62"/>
       </MetaData>
       <Medias>
        <StitchedMedia id="7522" start="0" duration="498" scalar="1/1" mediaStart="0/1" mediaDuration="498/1" minMediaStart="0/1" >
         <Transformer>
          <VectorParam id="7523"  name="translation">
           <InterpolatingParam id="7524" interp="linr"  time="0/1" value="0" leadInLength="0/1"  />
           <InterpolatingParam id="7525" interp="linr"  time="0/1" value="0" leadInLength="0/1"  />
           <InterpolatingParam id="7526" interp="linr"  time="0/1" value="0" leadInLength="0/1"  />
          </VectorParam>
          <VectorParam id="7527"  name="rotation">
           <InterpolatingParam id="7528" interp="linr"  time="0/1" value="0" leadInLength="0/1"  />
           <InterpolatingParam id="7529" interp="linr"  time="0/1" value="0" leadInLength="0/1"  />
           <InterpolatingParam id="7530" interp="linr"  time="0/1" value="0" leadInLength="0/1"  />
          </VectorParam>
          <VectorParam id="7531"  name="shear">
           <InterpolatingParam id="7532" interp="linr"  time="0/1" value="0" leadInLength="0/1"  />
           <InterpolatingParam id="7533" interp="linr"  time="0/1" value="0" leadInLength="0/1"  />
           <InterpolatingParam id="7534" interp="linr"  time="0/1" value="0" leadInLength="0/1"  />
          </VectorParam>
          <VectorParam id="7535"  name="scale">
           <InterpolatingParam id="7536" interp="linr"  time="0/1" value="1" leadInLength="0/1"  />
           <InterpolatingParam id="7537" interp="linr"  time="0/1" value="1" leadInLength="0/1"  />
           <InterpolatingParam id="7538" interp="linr"  time="0/1" value="1" leadInLength="0/1"  />
          </VectorParam>
          <VectorParam id="7539"  name="anchor">
           <InterpolatingParam id="7540" interp="linr"  time="0/1" value="0" leadInLength="0/1"  />
           <InterpolatingParam id="7541" interp="linr"  time="0/1" value="0" leadInLength="0/1"  />
           <InterpolatingParam id="7542" interp="linr"  time="0/1" value="0" leadInLength="0/1"  />
          </VectorParam>
         </Transformer>
         <Parameters>
          <InterpolatingParam id="7543" interp="linr"  time="0/1" value="1" leadInLength="0/1"  name="cursorOpacity"/>
          <InterpolatingParam id="7544" interp="linr"  time="0/1" value="1" leadInLength="0/1"  name="cursorScale"/>
          <InterpolatingParam id="7545" interp="linr"  name="volume">
           <Keyframes>
           <Keyframe id="7546"  time="0/1" value="0.12406947890818858" leadInLength="0/1"  />
           <Keyframe id="7547"  time="46/1" value="0.12406947890818858" leadInLength="0/1"  />
           <Keyframe id="7548"  time="61/1" value="0.074441687344913146" leadInLength="0/1"  />
           </Keyframes>
          </InterpolatingParam>
          <Parameter id="7549"  name="captions"/>
         </Parameters>
         <Attributes>
          <Attribute id="7550" value="" name="ident"/>
          <Attribute id="7551" value="0" name="mixToMono"/>
         </Attributes>
         <MetaData>
          <entry key="WinSubProjectDisplayName" val=""/>
         </MetaData>
         <ExtraData>
          <Entry key="ZoomPanBin">
           <ZoomPanBin id="7552"  >
            <ZoomPanKeyframes>
            </ZoomPanKeyframes>
           </ZoomPanBin>
          </Entry>
          <Entry key="CursorEffectBin">
           <CursorEffectBin id="7553"  >
            <CursorEffectKeyframes>
            </CursorEffectKeyframes>
           </CursorEffectBin>
          </Entry>
         </ExtraData>
         <GenericTrack id="7554"  >
          <Attributes>
           <Attribute id="7555" value="" name="ident"/>
           <Attribute id="7556" value="0" name="audioMuted"/>
           <Attribute id="7557" value="0" name="videoHidden"/>
          </Attributes>
          <MetaData>
           <entry key="IsLocked" val="False"/>
           <entry key="WinTrackHeight" val="0"/>
          </MetaData>
          <Medias>
           <AMFile id="7558" start="0" duration="1143" scalar="1/1" mediaStart="0/1" mediaDuration="1143/1" trackNumber="0" src="15" channelNumber="0,1" >
            <Parameters>
             <InterpolatingParam id="7559" interp="linr"  time="0/1" value="1" leadInLength="0/1"  name="volume"/>
             <Parameter id="7560"  name="captions"/>
            </Parameters>
            <Attributes>
             <Attribute id="7561" value="" name="ident"/>
             <Attribute id="7562" value="44100" name="sampleRate"/>
             <Attribute id="7563" value="0" name="bitDepth"/>
             <Attribute id="7564" value="1" name="gain"/>
             <Attribute id="7565" value="0" name="mixToMono"/>
            </Attributes>
            <MetaData>
             <entry key="WinSubProjectDisplayName" val=""/>
            </MetaData>
           </AMFile>
           <AMFile id="7566" start="1143" duration="151" scalar="1/1" mediaStart="1163/1" mediaDuration="151/1" trackNumber="0" src="15" channelNumber="0,1" >
            <Parameters>
             <InterpolatingParam id="7567" interp="linr"  time="0/1" value="1" leadInLength="0/1"  name="volume"/>
             <Parameter id="7568"  name="captions"/>
            </Parameters>
            <Attributes>
             <Attribute id="7569" value="" name="ident"/>
             <Attribute id="7570" value="44100" name="sampleRate"/>
             <Attribute id="7571" value="0" name="bitDepth"/>
             <Attribute id="7572" value="1" name="gain"/>
             <Attribute id="7573" value="0" name="mixToMono"/>
            </Attributes>
            <MetaData>
             <entry key="WinSubProjectDisplayName" val=""/>
            </MetaData>
           </AMFile>
           <AMFile id="7574" start="1294" duration="93" scalar="1/1" mediaStart="1328/1" mediaDuration="93/1" trackNumber="0" src="15" channelNumber="0,1" >
            <Parameters>
             <InterpolatingParam id="7575" interp="linr"  time="0/1" value="1" leadInLength="0/1"  name="volume"/>
             <Parameter id="7576"  name="captions"/>
            </Parameters>
            <Attributes>
             <Attribute id="7577" value="" name="ident"/>
             <Attribute id="7578" value="44100" name="sampleRate"/>
             <Attribute id="7579" value="0" name="bitDepth"/>
             <Attribute id="7580" value="1" name="gain"/>
             <Attribute id="7581" value="0" name="mixToMono"/>
            </Attributes>
            <MetaData>
             <entry key="WinSubProjectDisplayName" val=""/>
            </MetaData>
           </AMFile>
           <AMFile id="7582" start="1387" duration="365" scalar="1/1" mediaStart="1434/1" mediaDuration="365/1" trackNumber="0" src="15" channelNumber="0,1" >
            <Parameters>
             <InterpolatingParam id="7583" interp="linr"  time="0/1" value="1" leadInLength="0/1"  name="volume"/>
             <Parameter id="7584"  name="captions"/>
            </Parameters>
            <Attributes>
             <Attribute id="7585" value="" name="ident"/>
             <Attribute id="7586" value="44100" name="sampleRate"/>
             <Attribute id="7587" value="0" name="bitDepth"/>
             <Attribute id="7588" value="1" name="gain"/>
             <Attribute id="7589" value="0" name="mixToMono"/>
            </Attributes>
            <MetaData>
             <entry key="WinSubProjectDisplayName" val=""/>
            </MetaData>
           </AMFile>
           <AMFile id="7590" start="1752" duration="38" scalar="1/1" mediaStart="1807/1" mediaDuration="38/1" trackNumber="0" src="15" channelNumber="0,1" >
            <Parameters>
             <InterpolatingParam id="7591" interp="linr"  time="0/1" value="1" leadInLength="0/1"  name="volume"/>
             <Parameter id="7592"  name="captions"/>
            </Parameters>
            <Attributes>
             <Attribute id="7593" value="" name="ident"/>
             <Attribute id="7594" value="44100" name="sampleRate"/>
             <Attribute id="7595" value="0" name="bitDepth"/>
             <Attribute id="7596" value="1" name="gain"/>
             <Attribute id="7597" value="0" name="mixToMono"/>
            </Attributes>
            <MetaData>
             <entry key="WinSubProjectDisplayName" val=""/>
            </MetaData>
           </AMFile>
           <AMFile id="7598" start="1790" duration="42" scalar="1/1" mediaStart="1851/1" mediaDuration="42/1" trackNumber="0" src="15" channelNumber="0,1" >
            <Parameters>
             <InterpolatingParam id="7599" interp="linr"  time="0/1" value="1" leadInLength="0/1"  name="volume"/>
             <Parameter id="7600"  name="captions"/>
            </Parameters>
            <Attributes>
             <Attribute id="7601" value="" name="ident"/>
             <Attribute id="7602" value="44100" name="sampleRate"/>
             <Attribute id="7603" value="0" name="bitDepth"/>
             <Attribute id="7604" value="1" name="gain"/>
             <Attribute id="7605" value="0" name="mixToMono"/>
            </Attributes>
            <MetaData>
             <entry key="WinSubProjectDisplayName" val=""/>
            </MetaData>
           </AMFile>
          </Medias>
         </GenericTrack>
        </StitchedMedia>
       </Medias>
      </GenericTrack>
      <GenericTrack id="7606"  >
       <Attributes>
        <Attribute id="7607" value="" name="ident"/>
        <Attribute id="7608" value="0" name="audioMuted"/>
        <Attribute id="7609" value="0" name="videoHidden"/>
       </Attributes>
       <MetaData>
        <entry key="IsLocked" val="False"/>
        <entry key="WinTrackHeight" val="62"/>
       </MetaData>
       <Medias>
       </Medias>
      </GenericTrack>
      <GenericTrack id="7610"  >
       <Attributes>
        <Attribute id="7611" value="" name="ident"/>
        <Attribute id="7612" value="1" name="audioMuted"/>
        <Attribute id="7613" value="1" name="videoHidden"/>
       </Attributes>
       <MetaData>
        <entry key="IsLocked" val="True"/>
        <entry key="WinTrackHeight" val="62"/>
       </MetaData>
       <Medias>
        <Callout id="7614" start="0" duration="498" scalar="1/1" mediaStart="-288/1" mediaDuration="498/1" >
         <Transformer>
          <VectorParam id="7615"  name="translation">
           <InterpolatingParam id="7616" interp="linr"  time="-9999999/1" value="526.50000000016746" leadInLength="0/1"  />
           <InterpolatingParam id="7617" interp="linr"  time="-9999999/1" value="166.37450199200273" leadInLength="0/1"  />
           <InterpolatingParam id="7618" interp="linr"  time="-9999999/1" value="6.8212102632977125e-010" leadInLength="0/1"  />
          </VectorParam>
          <VectorParam id="7619"  name="rotation">
           <InterpolatingParam id="7620" interp="linr"  time="-9999999/1" value="0" leadInLength="0/1"  />
           <InterpolatingParam id="7621" interp="linr"  time="-9999999/1" value="0" leadInLength="0/1"  />
           <InterpolatingParam id="7622" interp="linr"  time="-9999999/1" value="0" leadInLength="0/1"  />
          </VectorParam>
          <VectorParam id="7623"  name="shear">
           <InterpolatingParam id="7624" interp="linr"  time="-9999999/1" value="0" leadInLength="0/1"  />
           <InterpolatingParam id="7625" interp="linr"  time="-9999999/1" value="0" leadInLength="0/1"  />
           <InterpolatingParam id="7626" interp="linr"  time="-9999999/1" value="0" leadInLength="0/1"  />
          </VectorParam>
          <VectorParam id="7627"  name="scale">
           <InterpolatingParam id="7628" interp="linr"  time="-9999999/1" value="0.99999999999941658" leadInLength="0/1"  />
           <InterpolatingParam id="7629" interp="linr"  time="-9999999/1" value="1" leadInLength="0/1"  />
           <InterpolatingParam id="7630" interp="linr"  time="-9999999/1" value="1" leadInLength="0/1"  />
          </VectorParam>
          <VectorParam id="7631"  name="anchor">
           <InterpolatingParam id="7632" interp="linr"  time="0/1" value="0" leadInLength="0/1"  />
           <InterpolatingParam id="7633" interp="linr"  time="0/1" value="0" leadInLength="0/1"  />
           <InterpolatingParam id="7634" interp="linr"  time="0/1" value="0" leadInLength="0/1"  />
          </VectorParam>
         </Transformer>
         <Parameters>
          <VectorParam id="7635"  name="sourceCrop">
           <InterpolatingParam id="7636" interp="linr"  time="0/1" value="0" leadInLength="0/1"  />
           <InterpolatingParam id="7637" interp="linr"  time="0/1" value="0" leadInLength="0/1"  />
           <InterpolatingParam id="7638" interp="linr"  time="0/1" value="0" leadInLength="0/1"  />
           <InterpolatingParam id="7639" interp="linr"  time="0/1" value="0" leadInLength="0/1"  />
          </VectorParam>
          <VectorParam id="7640"  name="geometryCrop">
           <InterpolatingParam id="7641" interp="linr"  time="-9999999/1" value="0" leadInLength="0/1"  />
           <InterpolatingParam id="7642" interp="linr"  time="-9999999/1" value="0" leadInLength="0/1"  />
           <InterpolatingParam id="7643" interp="linr"  time="-9999999/1" value="0" leadInLength="0/1"  />
           <InterpolatingParam id="7644" interp="linr"  time="-9999999/1" value="0" leadInLength="0/1"  />
          </VectorParam>
          <InterpolatingParam id="7645" interp="linr"  time="-9999999/1" value="1" leadInLength="0/1"  name="opacity"/>
         </Parameters>
         <Attributes>
          <Attribute id="7646"  name="vectorNode">
           <VectorNode id="7647" kind="TypeWinSimple"  >
            <DoubleParameters>
             <InterpolatingParam id="7648" interp="linr"  time="0/1" value="-1" leadInLength="0/1"  name="CutoutPercentage"/>
             <InterpolatingParam id="7649" interp="linr"  time="0/1" value="-1" leadInLength="0/1"  name="RoundedRectRadius"/>
             <InterpolatingParam id="7650" interp="linr"  time="0/1" value="4" leadInLength="0/1"  name="Style"/>
             <InterpolatingParam id="7651" interp="linr"  time="0/1" value="155" leadInLength="0/1"  name="borderColorBlue"/>
             <InterpolatingParam id="7652" interp="linr"  time="0/1" value="133" leadInLength="0/1"  name="borderColorGreen"/>
             <InterpolatingParam id="7653" interp="linr"  time="0/1" value="49" leadInLength="0/1"  name="borderColorRed"/>
             <InterpolatingParam id="7654" interp="linr"  time="0/1" value="0" leadInLength="0/1"  name="borderState"/>
             <InterpolatingParam id="7655" interp="linr"  time="0/1" value="3" leadInLength="0/1"  name="borderWidth"/>
             <InterpolatingParam id="7656" interp="linr"  time="0/1" value="0" leadInLength="0/1"  name="dimensionTime"/>
             <InterpolatingParam id="7657" interp="linr"  time="0/1" value="77" leadInLength="0/1"  name="fillColorBlue"/>
             <InterpolatingParam id="7658" interp="linr"  time="0/1" value="39" leadInLength="0/1"  name="fillColorGreen"/>
             <InterpolatingParam id="7659" interp="linr"  time="0/1" value="9" leadInLength="0/1"  name="fillColorRed"/>
             <InterpolatingParam id="7660" interp="linr"  time="0/1" value="1" leadInLength="0/1"  name="fillState"/>
             <InterpolatingParam id="7661" interp="linr"  time="0/1" value="0" leadInLength="0/1"  name="flipOnXAxis"/>
             <InterpolatingParam id="7662" interp="linr"  time="0/1" value="0" leadInLength="0/1"  name="flipOnYAxis"/>
             <InterpolatingParam id="7663" interp="linr"  time="0/1" value="254.50151057401814" leadInLength="0/1"  name="height"/>
             <InterpolatingParam id="7664" interp="linr"  time="0/1" value="0" leadInLength="0/1"  name="textDropShadow"/>
             <InterpolatingParam id="7665" interp="linr"  time="0/1" value="0" leadInLength="0/1"  name="textIgnoresOpacity"/>
             <InterpolatingParam id="7666" interp="linr"  time="0/1" value="0.875" leadInLength="0/1"  name="textRectHeight"/>
             <InterpolatingParam id="7667" interp="linr"  time="0/1" value="0.90936555891238668" leadInLength="0/1"  name="textRectWidth"/>
             <InterpolatingParam id="7668" interp="linr"  time="0/1" value="0.045317220543806644" leadInLength="0/1"  name="textRectX"/>
             <InterpolatingParam id="7669" interp="linr"  time="0/1" value="0.0625" leadInLength="0/1"  name="textRectY"/>
             <InterpolatingParam id="7670" interp="linr"  time="0/1" value="0" leadInLength="0/1"  name="textVerticalAlign"/>
             <InterpolatingParam id="7671" interp="linr"  time="0/1" value="351" leadInLength="0/1"  name="width"/>
            </DoubleParameters>
            <StringParameters>
             <Parameter id="7672"  name="VectorPath">
              <Keyframes>
              <Keyframe id="7673"  time="0/1" value="M0,0h331v240H0V0z" leadInLength="0/1"  />
              </Keyframes>
             </Parameter>
             <Parameter id="7674"  name="filename">
              <Keyframes>
              <Keyframe id="7675"  time="0/1" value="D:\Media\Studio\Callouts\rectanglewithtext.xml" leadInLength="0/1"  />
              </Keyframes>
             </Parameter>
             <Parameter id="7676"  name="name">
              <Keyframes>
              <Keyframe id="7677"  time="0/1" value="Simple Rectangle" leadInLength="0/1"  />
              </Keyframes>
             </Parameter>
             <Parameter id="7678"  name="text">
              <Keyframes>
              <Keyframe id="7679"  time="0/1" value="{\rtf1\ansi\ansicpg1252\deff0\deflang1033{\fonttbl{\f0\fswiss\fprq2\fcharset0 Arial Rounded MT Bold;}}&#xD;&#xa;{\colortbl ;\red222\green222\blue7;}&#xD;&#xa;\viewkind4\uc1\pard\qc\cf1\f0\fs48\par&#xD;&#xa;}&#xD;&#xa;" leadInLength="0/1"  />
              </Keyframes>
             </Parameter>
             <Parameter id="7680"  name="xmlContent">
              <Keyframes>
              <Keyframe id="7681"  time="0/1" value="﻿&lt;?xml version=&quot;1.0&quot;?&gt;&#xa;&#xa;&lt;Overlay version=&quot;1.0.1&quot;&gt;&#xa;&#xa;&lt;Overlay_Filename&gt;rectanglewithtext.png&lt;/Overlay_Filename&gt;&#xa;&lt;Overlay_Name&gt;Simple Rectangle&lt;/Overlay_Name&gt;&#xa;&lt;Text_Top&gt;15&lt;/Text_Top&gt;&#xa;&lt;Text_Left&gt;15&lt;/Text_Left&gt;&#xa;&lt;Text_Bottom&gt;15&lt;/Text_Bottom&gt;&#xa;&lt;Text_Right&gt;15&lt;/Text_Right&gt;&#xa;&lt;Fill_Color&gt;1&lt;/Fill_Color&gt;&#xa;&lt;Border_Color&gt;1&lt;/Border_Color&gt;&#xa;&lt;Initial_Fill_Color&gt;0xff9b8531&lt;/Initial_Fill_Color&gt;&#xa;&lt;Initial_Border_Color&gt;0xff9b8531&lt;/Initial_Border_Color&gt;&#xa;&lt;VectorProps&gt;&#xa;&lt;figure&gt;&#xa;&lt;svg&gt;M0,0h331v240H0V0z&lt;/svg&gt;&#xa;&lt;/figure&gt;&#xa;&lt;seamY&gt;-1&lt;/seamY&gt;&#xa;&lt;shapeWidth&gt;331&lt;/shapeWidth&gt;&#xa;&lt;shapeHeight&gt;240&lt;/shapeHeight&gt;&#xa;&lt;/VectorProps&gt;&#xa;&lt;Style&gt;4&lt;/Style&gt;&#xa;&lt;UseDefaultSpec&gt;1&lt;/UseDefaultSpec&gt;   &#xa;&lt;/Overlay&gt;" leadInLength="0/1"  />
              </Keyframes>
             </Parameter>
            </StringParameters>
           </VectorNode>
          </Attribute>
         </Attributes>
         <MetaData>
          <entry key="WinSubProjectDisplayName" val=""/>
         </MetaData>
         <LeftEdgeMods length="30/1" groupName="OpacityFade">
          <EdgeMod parameter="7645">
           <FadeInFunc id="7682"  />
          </EdgeMod>
         </LeftEdgeMods>
         <RightEdgeMods length="30/1" groupName="OpacityFade">
          <EdgeMod parameter="7645">
           <FadeOutFunc id="7683"  />
          </EdgeMod>
         </RightEdgeMods>
         <ExtraData>
          <Entry key="ZoomPanBin">
           <ZoomPanBin id="7684"  >
            <ZoomPanKeyframes>
             <ZoomPanKeyframe id="7685" timeRangeEnd="-9999999/1" timeRangeDuration="0/1" interpolaterName="linr"  />
            </ZoomPanKeyframes>
           </ZoomPanBin>
          </Entry>
         </ExtraData>
        </Callout>
       </Medias>
      </GenericTrack>
      <GenericTrack id="7686"  >
       <Attributes>
        <Attribute id="7687" value="" name="ident"/>
        <Attribute id="7688" value="0" name="audioMuted"/>
        <Attribute id="7689" value="0" name="videoHidden"/>
       </Attributes>
       <MetaData>
        <entry key="IsLocked" val="False"/>
        <entry key="WinTrackHeight" val="62"/>
       </MetaData>
       <Medias>
        <UnifiedMedia id="7690"  >
         <AudioTransition id="7691" start="152" duration="30" >
          <Parameters>
           <InterpolatingParam id="7692" interp="linr"  time="0/1" value="1" leadInLength="0/1"  name="volume"/>
           <Parameter id="7693"  name="captions"/>
          </Parameters>
          <Effects>
           <GenericEffect id="7694" name = "AudioTransition" >
            <Parameters>
            <Parameter id="7695"   name="audioEdgeModType">
             <Keyframes>
             <Keyframe id="7696"  time="0/1" value="0" leadInLength="0/1"  />
             </Keyframes>
            </Parameter>
            <Parameter id="7697"   name="audioTransitionType">
             <Keyframes>
             <Keyframe id="7698"  time="0/1" value="" leadInLength="0/1"  />
             </Keyframes>
            </Parameter>
            </Parameters>
            <MetaData>
            </MetaData>
           </GenericEffect>
          </Effects>
          <Attributes>
           <Attribute id="7699" value="" name="ident"/>
           <Attribute id="7700" value="0" name="sampleRate"/>
           <Attribute id="7701" value="0" name="bitDepth"/>
           <Attribute id="7702" value="1" name="gain"/>
           <Attribute id="7703" value="0" name="mixToMono"/>
          </Attributes>
         </AudioTransition>
         <ImageTransition id="7704" start="152" duration="30" >
          <Transformer>
           <VectorParam id="7705"  name="translation">
            <InterpolatingParam id="7706" interp="linr"  time="0/1" value="0" leadInLength="0/1"  />
            <InterpolatingParam id="7707" interp="linr"  time="0/1" value="0" leadInLength="0/1"  />
            <InterpolatingParam id="7708" interp="linr"  time="0/1" value="0" leadInLength="0/1"  />
           </VectorParam>
           <VectorParam id="7709"  name="rotation">
            <InterpolatingParam id="7710" interp="linr"  time="0/1" value="0" leadInLength="0/1"  />
            <InterpolatingParam id="7711" interp="linr"  time="0/1" value="0" leadInLength="0/1"  />
            <InterpolatingParam id="7712" interp="linr"  time="0/1" value="0" leadInLength="0/1"  />
           </VectorParam>
           <VectorParam id="7713"  name="shear">
            <InterpolatingParam id="7714" interp="linr"  time="0/1" value="0" leadInLength="0/1"  />
            <InterpolatingParam id="7715" interp="linr"  time="0/1" value="0" leadInLength="0/1"  />
            <InterpolatingParam id="7716" interp="linr"  time="0/1" value="0" leadInLength="0/1"  />
           </VectorParam>
           <VectorParam id="7717"  name="scale">
            <InterpolatingParam id="7718" interp="linr"  time="0/1" value="1" leadInLength="0/1"  />
            <InterpolatingParam id="7719" interp="linr"  time="0/1" value="1" leadInLength="0/1"  />
            <InterpolatingParam id="7720" interp="linr"  time="0/1" value="1" leadInLength="0/1"  />
           </VectorParam>
           <VectorParam id="7721"  name="anchor">
            <InterpolatingParam id="7722" interp="linr"  time="0/1" value="0" leadInLength="0/1"  />
            <InterpolatingParam id="7723" interp="linr"  time="0/1" value="0" leadInLength="0/1"  />
            <InterpolatingParam id="7724" interp="linr"  time="0/1" value="0" leadInLength="0/1"  />
           </VectorParam>
          </Transformer>
          <Parameters>
           <VectorParam id="7725"  name="sourceCrop">
            <InterpolatingParam id="7726" interp="linr"  time="0/1" value="0" leadInLength="0/1"  />
            <InterpolatingParam id="7727" interp="linr"  time="0/1" value="0" leadInLength="0/1"  />
            <InterpolatingParam id="7728" interp="linr"  time="0/1" value="0" leadInLength="0/1"  />
            <InterpolatingParam id="7729" interp="linr"  time="0/1" value="0" leadInLength="0/1"  />
           </VectorParam>
           <VectorParam id="7730"  name="geometryCrop">
            <InterpolatingParam id="7731" interp="linr"  time="0/1" value="0" leadInLength="0/1"  />
            <InterpolatingParam id="7732" interp="linr"  time="0/1" value="0" leadInLength="0/1"  />
            <InterpolatingParam id="7733" interp="linr"  time="0/1" value="0" leadInLength="0/1"  />
            <InterpolatingParam id="7734" interp="linr"  time="0/1" value="0" leadInLength="0/1"  />
           </VectorParam>
           <InterpolatingParam id="7735" interp="linr"  time="0/1" value="1" leadInLength="0/1"  name="opacity"/>
          </Parameters>
          <Effects>
           <GenericEffect id="7736" name = "VisualTransition" >
            <Parameters>
            <InterpolatingParam id="7737" interp="linr"  time="0/1" value="0.5" leadInLength="0/1"   name="leftFramePercentage"/>
            <InterpolatingParam id="7738" interp="linr"  time="0/1" value="0.5" leadInLength="0/1"   name="rightFramePercentage"/>
            <Parameter id="7739"   name="visualEdgeModType">
             <Keyframes>
             <Keyframe id="7740"  time="0/1" value="1" leadInLength="0/1"  />
             </Keyframes>
            </Parameter>
            <Parameter id="7741"   name="visualTransitionType">
             <Keyframes>
             <Keyframe id="7742"  time="0/1" value="PageRoll" leadInLength="0/1"  />
             </Keyframes>
            </Parameter>
            </Parameters>
            <MetaData>
            </MetaData>
           </GenericEffect>
          </Effects>
          <Attributes>
           <Attribute id="7743" value="" name="ident"/>
          </Attributes>
          <ExtraData>
           <Entry key="ZoomPanBin">
            <ZoomPanBin id="7744"  >
             <ZoomPanKeyframes>
             </ZoomPanKeyframes>
            </ZoomPanBin>
           </Entry>
          </ExtraData>
         </ImageTransition>
         <MetaData>
          <entry key="WinSubProjectDisplayName" val=""/>
         </MetaData>
        </UnifiedMedia>
        <Group id="7745" start="182" duration="90" scalar="1" mediaStart="30" mediaDuration="90" baseWidthAttr="0" baseHeightAttr="0"  >
         <Parameters>
          <VectorParam id="7746"  name="sourceCrop">
           <InterpolatingParam id="7747" interp="linr"  time="0/1" value="0" leadInLength="0/1"  />
           <InterpolatingParam id="7748" interp="linr"  time="0/1" value="0" leadInLength="0/1"  />
           <InterpolatingParam id="7749" interp="linr"  time="0/1" value="0" leadInLength="0/1"  />
           <InterpolatingParam id="7750" interp="linr"  time="0/1" value="0" leadInLength="0/1"  />
          </VectorParam>
          <VectorParam id="7751"  name="geometryCrop">
           <InterpolatingParam id="7752" interp="linr"  time="-9999999/1" value="0" leadInLength="0/1"  interpolater="leadin-eioe"  />
           <InterpolatingParam id="7753" interp="linr"  time="-9999999/1" value="0" leadInLength="0/1"  interpolater="leadin-eioe"  />
           <InterpolatingParam id="7754" interp="linr"  time="-9999999/1" value="0" leadInLength="0/1"  interpolater="leadin-eioe"  />
           <InterpolatingParam id="7755" interp="linr"  time="-9999999/1" value="0" leadInLength="0/1"  interpolater="leadin-eioe"  />
          </VectorParam>
          <InterpolatingParam id="7756" interp="linr"  time="-9999999/1" value="1" leadInLength="0/1"  name="opacity"/>
          <Parameter id="7757"  name="captions"/>
          <InterpolatingParam id="7758" interp="linr"  time="0/1" value="1" leadInLength="0/1"  name="volume"/>
         </Parameters>
         <Transformer>
          <VectorParam id="7759"  name="translation">
           <InterpolatingParam id="7760" interp="linr"  time="-9999999/1" value="2.491771896760449e-011" leadInLength="0/1"  />
           <InterpolatingParam id="7761" interp="linr"  time="-9999999/1" value="-6.0119020872662077e-011" leadInLength="0/1"  />
           <InterpolatingParam id="7762" interp="linr"  time="-9999999/1" value="0" leadInLength="0/1"  />
          </VectorParam>
          <VectorParam id="7763"  name="rotation">
           <InterpolatingParam id="7764" interp="linr"  time="-9999999/1" value="0" leadInLength="0/1"  />
           <InterpolatingParam id="7765" interp="linr"  time="-9999999/1" value="0" leadInLength="0/1"  />
           <InterpolatingParam id="7766" interp="linr"  time="-9999999/1" value="0" leadInLength="0/1"  />
          </VectorParam>
          <VectorParam id="7767"  name="shear">
           <InterpolatingParam id="7768" interp="linr"  time="-9999999/1" value="0" leadInLength="0/1"  />
           <InterpolatingParam id="7769" interp="linr"  time="-9999999/1" value="0" leadInLength="0/1"  />
           <InterpolatingParam id="7770" interp="linr"  time="-9999999/1" value="0" leadInLength="0/1"  />
          </VectorParam>
          <VectorParam id="7771"  name="scale">
           <InterpolatingParam id="7772" interp="linr"  time="-9999999/1" value="1" leadInLength="0/1"  />
           <InterpolatingParam id="7773" interp="linr"  time="-9999999/1" value="1" leadInLength="0/1"  />
           <InterpolatingParam id="7774" interp="linr"  time="-9999999/1" value="1" leadInLength="0/1"  />
          </VectorParam>
          <VectorParam id="7775"  name="anchor">
           <InterpolatingParam id="7776" interp="linr"  time="0/1" value="0" leadInLength="0/1"  />
           <InterpolatingParam id="7777" interp="linr"  time="0/1" value="-0.5" leadInLength="0/1"  />
           <InterpolatingParam id="7778" interp="linr"  time="0/1" value="0" leadInLength="0/1"  />
          </VectorParam>
         </Transformer>
         <GenericMixer id="7779"  >
          <MetaData>
          </MetaData>
          <Tracks>
           <GenericTrack id="7780"  >
            <Attributes>
             <Attribute id="7781" value="" name="ident"/>
             <Attribute id="7782" value="0" name="audioMuted"/>
             <Attribute id="7783" value="0" name="videoHidden"/>
            </Attributes>
            <MetaData>
             <entry key="IsLocked" val="False"/>
             <entry key="WinTrackHeight" val="0"/>
            </MetaData>
            <Medias>
             <IMFile id="7784" start="0" duration="150" scalar="1/1" mediaStart="0/1" mediaDuration="1/1" trackNumber="0" src="23" trimStartSum="0/1" >
              <Transformer>
               <VectorParam id="7785"  name="translation">
                <InterpolatingParam id="7786" interp="linr"  time="-9999999/1" value="-291.15537848614457" leadInLength="0/1"  />
                <InterpolatingParam id="7787" interp="linr"  time="-9999999/1" value="-254.36454183273099" leadInLength="0/1"  />
                <InterpolatingParam id="7788" interp="linr"  time="-9999999/1" value="0" leadInLength="0/1"  />
               </VectorParam>
               <VectorParam id="7789"  name="rotation">
                <InterpolatingParam id="7790" interp="linr"  time="-9999999/1" value="0" leadInLength="0/1"  />
                <InterpolatingParam id="7791" interp="linr"  time="-9999999/1" value="0" leadInLength="0/1"  />
                <InterpolatingParam id="7792" interp="linr"  time="-9999999/1" value="0" leadInLength="0/1"  />
               </VectorParam>
               <VectorParam id="7793"  name="shear">
                <InterpolatingParam id="7794" interp="linr"  time="-9999999/1" value="0" leadInLength="0/1"  />
                <InterpolatingParam id="7795" interp="linr"  time="-9999999/1" value="0" leadInLength="0/1"  />
                <InterpolatingParam id="7796" interp="linr"  time="-9999999/1" value="0" leadInLength="0/1"  />
               </VectorParam>
               <VectorParam id="7797"  name="scale">
                <InterpolatingParam id="7798" interp="linr"  time="-9999999/1" value="1" leadInLength="0/1"  />
                <InterpolatingParam id="7799" interp="linr"  time="-9999999/1" value="1" leadInLength="0/1"  />
                <InterpolatingParam id="7800" interp="linr"  time="-9999999/1" value="1" leadInLength="0/1"  />
               </VectorParam>
               <VectorParam id="7801"  name="anchor">
                <InterpolatingParam id="7802" interp="linr"  time="0/1" value="0" leadInLength="0/1"  />
                <InterpolatingParam id="7803" interp="linr"  time="0/1" value="0" leadInLength="0/1"  />
                <InterpolatingParam id="7804" interp="linr"  time="0/1" value="0" leadInLength="0/1"  />
               </VectorParam>
              </Transformer>
              <Parameters>
               <VectorParam id="7805"  name="sourceCrop">
                <InterpolatingParam id="7806" interp="linr"  time="0/1" value="0" leadInLength="0/1"  />
                <InterpolatingParam id="7807" interp="linr"  time="0/1" value="0" leadInLength="0/1"  />
                <InterpolatingParam id="7808" interp="linr"  time="0/1" value="0" leadInLength="0/1"  />
                <InterpolatingParam id="7809" interp="linr"  time="0/1" value="0" leadInLength="0/1"  />
               </VectorParam>
               <VectorParam id="7810"  name="geometryCrop">
                <InterpolatingParam id="7811" interp="linr"  time="-9999999/1" value="0" leadInLength="0/1"  interpolater="leadin-eioe"  />
                <InterpolatingParam id="7812" interp="linr"  time="-9999999/1" value="0" leadInLength="0/1"  interpolater="leadin-eioe"  />
                <InterpolatingParam id="7813" interp="linr"  time="-9999999/1" value="0" leadInLength="0/1"  interpolater="leadin-eioe"  />
                <InterpolatingParam id="7814" interp="linr"  time="-9999999/1" value="0" leadInLength="0/1"  interpolater="leadin-eioe"  />
               </VectorParam>
               <InterpolatingParam id="7815" interp="linr"  time="-9999999/1" value="1" leadInLength="0/1"  name="opacity"/>
              </Parameters>
              <Effects>
               <GenericEffect id="7816" name = "DropShadow" >
                <Parameters>
                <InterpolatingParam id="7817" interp="linr"  time="0/1" value="315" leadInLength="0/1"   name="angle"/>
                <InterpolatingParam id="7818" interp="linr"  time="0/1" value="5" leadInLength="0/1"   name="blur"/>
                <Parameter id="7819"   name="enabled">
                 <Keyframes>
                 <Keyframe id="7820"  time="0/1" value="1" leadInLength="0/1"  />
                 </Keyframes>
                </Parameter>
                <InterpolatingParam id="7821" interp="linr"  time="0/1" value="10" leadInLength="0/1"   name="offset"/>
                <InterpolatingParam id="7822" interp="linr"  time="0/1" value="0.75" leadInLength="0/1"   name="opacity"/>
                </Parameters>
               </GenericEffect>
               <GenericEffect id="7823" name = "TextEffect" >
                <Parameters>
                <Parameter id="7824"   name="text">
                 <Keyframes>
                 <Keyframe id="7825"  time="0/1" value="{\rtf1\ansi\ansicpg1252\deff0\deflang1033{\fonttbl{\f0\fswiss\fprq2\fcharset0 Impact;}}&#xD;&#xa;{\colortbl ;\red212\green148\blue32;\red0\green0\blue0;}&#xD;&#xa;\viewkind4\uc1\pard\cf1\f0\fs72 Junaid Ahmed\cf2\fs48\par&#xD;&#xa;}&#xD;&#xa;" leadInLength="0/1"  />
                 </Keyframes>
                </Parameter>
                <InterpolatingParam id="7826" interp="linr"  time="0/1" value="0" leadInLength="0/1"   name="textDimensionTime"/>
                <Parameter id="7827"   name="textDropShadow">
                 <Keyframes>
                 <Keyframe id="7828"  time="0/1" value="0" leadInLength="0/1"  />
                 </Keyframes>
                </Parameter>
                <Parameter id="7829"   name="textIgnoresOpacity">
                 <Keyframes>
                 <Keyframe id="7830"  time="0/1" value="0" leadInLength="0/1"  />
                 </Keyframes>
                </Parameter>
                <InterpolatingParam id="7831" interp="linr"  time="0/1" value="1" leadInLength="0/1"   name="textRectHeight"/>
                <InterpolatingParam id="7832" interp="linr"  time="0/1" value="0.73066666666666669" leadInLength="0/1"   name="textRectWidth"/>
                <InterpolatingParam id="7833" interp="linr"  time="0/1" value="0.184" leadInLength="0/1"   name="textRectX"/>
                <InterpolatingParam id="7834" interp="linr"  time="0/1" value="0" leadInLength="0/1"   name="textRectY"/>
                <Parameter id="7835"   name="textVerticalAlign">
                 <Keyframes>
                 <Keyframe id="7836"  time="0/1" value="0" leadInLength="0/1"  />
                 </Keyframes>
                </Parameter>
                </Parameters>
               </GenericEffect>
              </Effects>
              <Attributes>
               <Attribute id="7837" value="" name="ident"/>
              </Attributes>
              <MetaData>
               <entry key="WinSubProjectDisplayName" val=""/>
              </MetaData>
              <ExtraData>
               <Entry key="ZoomPanBin">
                <ZoomPanBin id="7838"  >
                 <ZoomPanKeyframes>
                  <ZoomPanKeyframe id="7839" timeRangeEnd="-9999999/1" timeRangeDuration="0/1" interpolaterName="linr"  />
                 </ZoomPanKeyframes>
                </ZoomPanBin>
               </Entry>
              </ExtraData>
             </IMFile>
            </Medias>
           </GenericTrack>
           <GenericTrack id="7840"  >
            <Attributes>
             <Attribute id="7841" value="" name="ident"/>
             <Attribute id="7842" value="0" name="audioMuted"/>
             <Attribute id="7843" value="0" name="videoHidden"/>
            </Attributes>
            <MetaData>
             <entry key="IsLocked" val="False"/>
             <entry key="WinTrackHeight" val="0"/>
            </MetaData>
            <Medias>
            </Medias>
           </GenericTrack>
          </Tracks>
         </GenericMixer>
         <MetaData>
          <entry key="IsGroupExpanded" val="False"/>
          <entry key="WinGroupOrigin" val="Asset"/>
          <entry key="WinSubProjectDisplayName" val="Callout - Themed 2"/>
         </MetaData>
         <ExtraData>
          <Entry key="ZoomPanBin">
           <ZoomPanBin id="7844"  >
            <ZoomPanKeyframes>
             <ZoomPanKeyframe id="7845" timeRangeEnd="-9999999/1" timeRangeDuration="0/1" interpolaterName="linr"  />
            </ZoomPanKeyframes>
           </ZoomPanBin>
          </Entry>
         </ExtraData>
        </Group>
        <UnifiedMedia id="7846"  >
         <AudioTransition id="7847" start="272" duration="30" >
          <Parameters>
           <InterpolatingParam id="7848" interp="linr"  time="0/1" value="1" leadInLength="0/1"  name="volume"/>
           <Parameter id="7849"  name="captions"/>
          </Parameters>
          <Effects>
           <GenericEffect id="7850" name = "AudioTransition" >
            <Parameters>
            <Parameter id="7851"   name="audioEdgeModType">
             <Keyframes>
             <Keyframe id="7852"  time="0/1" value="0" leadInLength="0/1"  />
             </Keyframes>
            </Parameter>
            <Parameter id="7853"   name="audioTransitionType">
             <Keyframes>
             <Keyframe id="7854"  time="0/1" value="" leadInLength="0/1"  />
             </Keyframes>
            </Parameter>
            </Parameters>
            <MetaData>
            </MetaData>
           </GenericEffect>
          </Effects>
          <Attributes>
           <Attribute id="7855" value="" name="ident"/>
           <Attribute id="7856" value="0" name="sampleRate"/>
           <Attribute id="7857" value="0" name="bitDepth"/>
           <Attribute id="7858" value="1" name="gain"/>
           <Attribute id="7859" value="0" name="mixToMono"/>
          </Attributes>
         </AudioTransition>
         <ImageTransition id="7860" start="272" duration="30" >
          <Transformer>
           <VectorParam id="7861"  name="translation">
            <InterpolatingParam id="7862" interp="linr"  time="0/1" value="0" leadInLength="0/1"  />
            <InterpolatingParam id="7863" interp="linr"  time="0/1" value="0" leadInLength="0/1"  />
            <InterpolatingParam id="7864" interp="linr"  time="0/1" value="0" leadInLength="0/1"  />
           </VectorParam>
           <VectorParam id="7865"  name="rotation">
            <InterpolatingParam id="7866" interp="linr"  time="0/1" value="0" leadInLength="0/1"  />
            <InterpolatingParam id="7867" interp="linr"  time="0/1" value="0" leadInLength="0/1"  />
            <InterpolatingParam id="7868" interp="linr"  time="0/1" value="0" leadInLength="0/1"  />
           </VectorParam>
           <VectorParam id="7869"  name="shear">
            <InterpolatingParam id="7870" interp="linr"  time="0/1" value="0" leadInLength="0/1"  />
            <InterpolatingParam id="7871" interp="linr"  time="0/1" value="0" leadInLength="0/1"  />
            <InterpolatingParam id="7872" interp="linr"  time="0/1" value="0" leadInLength="0/1"  />
           </VectorParam>
           <VectorParam id="7873"  name="scale">
            <InterpolatingParam id="7874" interp="linr"  time="0/1" value="1" leadInLength="0/1"  />
            <InterpolatingParam id="7875" interp="linr"  time="0/1" value="1" leadInLength="0/1"  />
            <InterpolatingParam id="7876" interp="linr"  time="0/1" value="1" leadInLength="0/1"  />
           </VectorParam>
           <VectorParam id="7877"  name="anchor">
            <InterpolatingParam id="7878" interp="linr"  time="0/1" value="0" leadInLength="0/1"  />
            <InterpolatingParam id="7879" interp="linr"  time="0/1" value="0" leadInLength="0/1"  />
            <InterpolatingParam id="7880" interp="linr"  time="0/1" value="0" leadInLength="0/1"  />
           </VectorParam>
          </Transformer>
          <Parameters>
           <VectorParam id="7881"  name="sourceCrop">
            <InterpolatingParam id="7882" interp="linr"  time="0/1" value="0" leadInLength="0/1"  />
            <InterpolatingParam id="7883" interp="linr"  time="0/1" value="0" leadInLength="0/1"  />
            <InterpolatingParam id="7884" interp="linr"  time="0/1" value="0" leadInLength="0/1"  />
            <InterpolatingParam id="7885" interp="linr"  time="0/1" value="0" leadInLength="0/1"  />
           </VectorParam>
           <VectorParam id="7886"  name="geometryCrop">
            <InterpolatingParam id="7887" interp="linr"  time="0/1" value="0" leadInLength="0/1"  />
            <InterpolatingParam id="7888" interp="linr"  time="0/1" value="0" leadInLength="0/1"  />
            <InterpolatingParam id="7889" interp="linr"  time="0/1" value="0" leadInLength="0/1"  />
            <InterpolatingParam id="7890" interp="linr"  time="0/1" value="0" leadInLength="0/1"  />
           </VectorParam>
           <InterpolatingParam id="7891" interp="linr"  time="0/1" value="1" leadInLength="0/1"  name="opacity"/>
          </Parameters>
          <Effects>
           <GenericEffect id="7892" name = "VisualTransition" >
            <Parameters>
            <InterpolatingParam id="7893" interp="linr"  time="0/1" value="0.5" leadInLength="0/1"   name="leftFramePercentage"/>
            <InterpolatingParam id="7894" interp="linr"  time="0/1" value="0.5" leadInLength="0/1"   name="rightFramePercentage"/>
            <Parameter id="7895"   name="visualEdgeModType">
             <Keyframes>
             <Keyframe id="7896"  time="0/1" value="2" leadInLength="0/1"  />
             </Keyframes>
            </Parameter>
            <Parameter id="7897"   name="visualTransitionType">
             <Keyframes>
             <Keyframe id="7898"  time="0/1" value="PageTurn" leadInLength="0/1"  />
             </Keyframes>
            </Parameter>
            </Parameters>
            <MetaData>
            </MetaData>
           </GenericEffect>
          </Effects>
          <Attributes>
           <Attribute id="7899" value="" name="ident"/>
          </Attributes>
          <ExtraData>
           <Entry key="ZoomPanBin">
            <ZoomPanBin id="7900"  >
             <ZoomPanKeyframes>
             </ZoomPanKeyframes>
            </ZoomPanBin>
           </Entry>
          </ExtraData>
         </ImageTransition>
         <MetaData>
          <entry key="WinSubProjectDisplayName" val=""/>
         </MetaData>
        </UnifiedMedia>
        <IMFile id="7901" start="361" duration="137" scalar="1/1" mediaStart="0/1" mediaDuration="1/1" trackNumber="0" src="26" trimStartSum="0/1" >
         <Transformer>
          <VectorParam id="7902"  name="translation">
           <InterpolatingParam id="7903" interp="linr"  time="-9999999/1" value="-350.38247011984015" leadInLength="0/1"  />
           <InterpolatingParam id="7904" interp="linr"  time="-9999999/1" value="-201.45747615104045" leadInLength="0/1"  />
           <InterpolatingParam id="7905" interp="linr"  time="-9999999/1" value="5.169878828456423e-026" leadInLength="0/1"  />
          </VectorParam>
          <VectorParam id="7906"  name="rotation">
           <InterpolatingParam id="7907" interp="linr"  time="-9999999/1" value="0" leadInLength="0/1"  />
           <InterpolatingParam id="7908" interp="linr"  time="-9999999/1" value="0" leadInLength="0/1"  />
           <InterpolatingParam id="7909" interp="linr"  time="-9999999/1" value="0" leadInLength="0/1"  />
          </VectorParam>
          <VectorParam id="7910"  name="shear">
           <InterpolatingParam id="7911" interp="linr"  time="-9999999/1" value="0" leadInLength="0/1"  />
           <InterpolatingParam id="7912" interp="linr"  time="-9999999/1" value="0" leadInLength="0/1"  />
           <InterpolatingParam id="7913" interp="linr"  time="-9999999/1" value="0" leadInLength="0/1"  />
          </VectorParam>
          <VectorParam id="7914"  name="scale">
           <InterpolatingParam id="7915" interp="linr"  time="-9999999/1" value="1.0523731587576801" leadInLength="0/1"  />
           <InterpolatingParam id="7916" interp="linr"  time="-9999999/1" value="0.98066001134497061" leadInLength="0/1"  />
           <InterpolatingParam id="7917" interp="linr"  time="-9999999/1" value="0.99999999999999922" leadInLength="0/1"  />
          </VectorParam>
          <VectorParam id="7918"  name="anchor">
           <InterpolatingParam id="7919" interp="linr"  time="0/1" value="0" leadInLength="0/1"  />
           <InterpolatingParam id="7920" interp="linr"  time="0/1" value="0" leadInLength="0/1"  />
           <InterpolatingParam id="7921" interp="linr"  time="0/1" value="0" leadInLength="0/1"  />
          </VectorParam>
         </Transformer>
         <Parameters>
          <VectorParam id="7922"  name="sourceCrop">
           <InterpolatingParam id="7923" interp="linr"  time="0/1" value="0" leadInLength="0/1"  />
           <InterpolatingParam id="7924" interp="linr"  time="0/1" value="0" leadInLength="0/1"  />
           <InterpolatingParam id="7925" interp="linr"  time="0/1" value="0" leadInLength="0/1"  />
           <InterpolatingParam id="7926" interp="linr"  time="0/1" value="0" leadInLength="0/1"  />
          </VectorParam>
          <VectorParam id="7927"  name="geometryCrop">
           <InterpolatingParam id="7928" interp="linr"  time="-9999999/1" value="0" leadInLength="0/1"  />
           <InterpolatingParam id="7929" interp="linr"  time="-9999999/1" value="0" leadInLength="0/1"  />
           <InterpolatingParam id="7930" interp="linr"  time="-9999999/1" value="0" leadInLength="0/1"  />
           <InterpolatingParam id="7931" interp="linr"  time="-9999999/1" value="0" leadInLength="0/1"  />
          </VectorParam>
          <InterpolatingParam id="7932" interp="linr"  time="-9999999/1" value="1" leadInLength="0/1"  name="opacity"/>
         </Parameters>
         <Attributes>
          <Attribute id="7933" value="" name="ident"/>
         </Attributes>
         <MetaData>
          <entry key="WinSubProjectDisplayName" val=""/>
         </MetaData>
         <ExtraData>
          <Entry key="ZoomPanBin">
           <ZoomPanBin id="7934"  >
            <ZoomPanKeyframes>
             <ZoomPanKeyframe id="7935" timeRangeEnd="-9999999/1" timeRangeDuration="0/1" interpolaterName="linr"  />
            </ZoomPanKeyframes>
           </ZoomPanBin>
          </Entry>
         </ExtraData>
        </IMFile>
        <Callout id="7936" start="545" duration="19" scalar="1/1" mediaStart="0/1" mediaDuration="19/1" >
         <Transformer>
          <VectorParam id="7937"  name="translation">
           <InterpolatingParam id="7938" interp="linr"  time="-9999999/1" value="-322.6229508203823" leadInLength="0/1"  />
           <InterpolatingParam id="7939" interp="linr"  time="-9999999/1" value="-98.360655737733254" leadInLength="0/1"  />
           <InterpolatingParam id="7940" interp="linr"  time="-9999999/1" value="3.4106051316482886e-010" leadInLength="0/1"  />
          </VectorParam>
          <VectorParam id="7941"  name="rotation">
           <InterpolatingParam id="7942" interp="linr"  time="-9999999/1" value="0" leadInLength="0/1"  />
           <InterpolatingParam id="7943" interp="linr"  time="-9999999/1" value="0" leadInLength="0/1"  />
           <InterpolatingParam id="7944" interp="linr"  time="-9999999/1" value="0" leadInLength="0/1"  />
          </VectorParam>
          <VectorParam id="7945"  name="shear">
           <InterpolatingParam id="7946" interp="linr"  time="-9999999/1" value="0" leadInLength="0/1"  />
           <InterpolatingParam id="7947" interp="linr"  time="-9999999/1" value="0" leadInLength="0/1"  />
           <InterpolatingParam id="7948" interp="linr"  time="-9999999/1" value="0" leadInLength="0/1"  />
          </VectorParam>
          <VectorParam id="7949"  name="scale">
           <InterpolatingParam id="7950" interp="linr"  time="-9999999/1" value="1.8070617906664628" leadInLength="0/1"  />
           <InterpolatingParam id="7951" interp="linr"  time="-9999999/1" value="1.5874550463651851" leadInLength="0/1"  />
           <InterpolatingParam id="7952" interp="linr"  time="-9999999/1" value="1" leadInLength="0/1"  />
          </VectorParam>
          <VectorParam id="7953"  name="anchor">
           <InterpolatingParam id="7954" interp="linr"  time="0/1" value="0" leadInLength="0/1"  />
           <InterpolatingParam id="7955" interp="linr"  time="0/1" value="0" leadInLength="0/1"  />
           <InterpolatingParam id="7956" interp="linr"  time="0/1" value="0" leadInLength="0/1"  />
          </VectorParam>
         </Transformer>
         <Parameters>
          <VectorParam id="7957"  name="sourceCrop">
           <InterpolatingParam id="7958" interp="linr"  time="0/1" value="0" leadInLength="0/1"  />
           <InterpolatingParam id="7959" interp="linr"  time="0/1" value="0" leadInLength="0/1"  />
           <InterpolatingParam id="7960" interp="linr"  time="0/1" value="0" leadInLength="0/1"  />
           <InterpolatingParam id="7961" interp="linr"  time="0/1" value="0" leadInLength="0/1"  />
          </VectorParam>
          <VectorParam id="7962"  name="geometryCrop">
           <InterpolatingParam id="7963" interp="linr"  time="-9999999/1" value="0" leadInLength="0/1"  />
           <InterpolatingParam id="7964" interp="linr"  time="-9999999/1" value="0" leadInLength="0/1"  />
           <InterpolatingParam id="7965" interp="linr"  time="-9999999/1" value="0" leadInLength="0/1"  />
           <InterpolatingParam id="7966" interp="linr"  time="-9999999/1" value="0" leadInLength="0/1"  />
          </VectorParam>
          <InterpolatingParam id="7967" interp="linr"  time="-9999999/1" value="1" leadInLength="0/1"  name="opacity"/>
         </Parameters>
         <Attributes>
          <Attribute id="7968"  name="vectorNode">
           <VectorNode id="7969" kind="TypeWinSimple"  >
            <DoubleParameters>
             <InterpolatingParam id="7970" interp="linr"  time="0/1" value="-1" leadInLength="0/1"  name="CutoutPercentage"/>
             <InterpolatingParam id="7971" interp="linr"  time="0/1" value="-1" leadInLength="0/1"  name="RoundedRectRadius"/>
             <InterpolatingParam id="7972" interp="linr"  time="0/1" value="4" leadInLength="0/1"  name="Style"/>
             <InterpolatingParam id="7973" interp="linr"  time="0/1" value="155" leadInLength="0/1"  name="borderColorBlue"/>
             <InterpolatingParam id="7974" interp="linr"  time="0/1" value="133" leadInLength="0/1"  name="borderColorGreen"/>
             <InterpolatingParam id="7975" interp="linr"  time="0/1" value="49" leadInLength="0/1"  name="borderColorRed"/>
             <InterpolatingParam id="7976" interp="linr"  time="0/1" value="0" leadInLength="0/1"  name="borderState"/>
             <InterpolatingParam id="7977" interp="linr"  time="0/1" value="3" leadInLength="0/1"  name="borderWidth"/>
             <InterpolatingParam id="7978" interp="linr"  time="0/1" value="0" leadInLength="0/1"  name="dimensionTime"/>
             <InterpolatingParam id="7979" interp="linr"  time="0/1" value="0" leadInLength="0/1"  name="fillColorBlue"/>
             <InterpolatingParam id="7980" interp="linr"  time="0/1" value="0" leadInLength="0/1"  name="fillColorGreen"/>
             <InterpolatingParam id="7981" interp="linr"  time="0/1" value="0" leadInLength="0/1"  name="fillColorRed"/>
             <InterpolatingParam id="7982" interp="linr"  time="0/1" value="1" leadInLength="0/1"  name="fillState"/>
             <InterpolatingParam id="7983" interp="linr"  time="0/1" value="0" leadInLength="0/1"  name="flipOnXAxis"/>
             <InterpolatingParam id="7984" interp="linr"  time="0/1" value="0" leadInLength="0/1"  name="flipOnYAxis"/>
             <InterpolatingParam id="7985" interp="linr"  time="0/1" value="254.50151057401814" leadInLength="0/1"  name="height"/>
             <InterpolatingParam id="7986" interp="linr"  time="0/1" value="0" leadInLength="0/1"  name="textDropShadow"/>
             <InterpolatingParam id="7987" interp="linr"  time="0/1" value="0" leadInLength="0/1"  name="textIgnoresOpacity"/>
             <InterpolatingParam id="7988" interp="linr"  time="0/1" value="0.875" leadInLength="0/1"  name="textRectHeight"/>
             <InterpolatingParam id="7989" interp="linr"  time="0/1" value="0.90936555891238668" leadInLength="0/1"  name="textRectWidth"/>
             <InterpolatingParam id="7990" interp="linr"  time="0/1" value="0.045317220543806644" leadInLength="0/1"  name="textRectX"/>
             <InterpolatingParam id="7991" interp="linr"  time="0/1" value="0.0625" leadInLength="0/1"  name="textRectY"/>
             <InterpolatingParam id="7992" interp="linr"  time="0/1" value="0" leadInLength="0/1"  name="textVerticalAlign"/>
             <InterpolatingParam id="7993" interp="linr"  time="0/1" value="351" leadInLength="0/1"  name="width"/>
            </DoubleParameters>
            <StringParameters>
             <Parameter id="7994"  name="VectorPath">
              <Keyframes>
              <Keyframe id="7995"  time="0/1" value="M0,0h331v240H0V0z" leadInLength="0/1"  />
              </Keyframes>
             </Parameter>
             <Parameter id="7996"  name="filename">
              <Keyframes>
              <Keyframe id="7997"  time="0/1" value="D:\Media\Studio\Callouts\rectanglewithtext.xml" leadInLength="0/1"  />
              </Keyframes>
             </Parameter>
             <Parameter id="7998"  name="name">
              <Keyframes>
              <Keyframe id="7999"  time="0/1" value="Simple Rectangle" leadInLength="0/1"  />
              </Keyframes>
             </Parameter>
             <Parameter id="8000"  name="text">
              <Keyframes>
              <Keyframe id="8001"  time="0/1" value="{\rtf1\ansi\ansicpg1252\deff0\deflang1033{\fonttbl{\f0\fswiss\fprq2\fcharset0 Arial Rounded MT Bold;}}&#xD;&#xa;{\colortbl ;\red222\green222\blue7;\red255\green255\blue255;}&#xD;&#xa;\viewkind4\uc1\pard\qc\cf1\f0\fs56 Target Audience\par&#xD;&#xa;\cf2\fs44 DYI Ehtusuats, Entreprenuers \par&#xD;&#xa;Engineers,\par&#xD;&#xa;Developers,\par&#xD;&#xa;Profesionals,\par&#xD;&#xa;College Grads\par&#xD;&#xa;}&#xD;&#xa;" leadInLength="0/1"  />
              </Keyframes>
             </Parameter>
             <Parameter id="8002"  name="xmlContent">
              <Keyframes>
              <Keyframe id="8003"  time="0/1" value="﻿&lt;?xml version=&quot;1.0&quot;?&gt;&#xa;&#xa;&lt;Overlay version=&quot;1.0.1&quot;&gt;&#xa;&#xa;&lt;Overlay_Filename&gt;rectanglewithtext.png&lt;/Overlay_Filename&gt;&#xa;&lt;Overlay_Name&gt;Simple Rectangle&lt;/Overlay_Name&gt;&#xa;&lt;Text_Top&gt;15&lt;/Text_Top&gt;&#xa;&lt;Text_Left&gt;15&lt;/Text_Left&gt;&#xa;&lt;Text_Bottom&gt;15&lt;/Text_Bottom&gt;&#xa;&lt;Text_Right&gt;15&lt;/Text_Right&gt;&#xa;&lt;Fill_Color&gt;1&lt;/Fill_Color&gt;&#xa;&lt;Border_Color&gt;1&lt;/Border_Color&gt;&#xa;&lt;Initial_Fill_Color&gt;0xff9b8531&lt;/Initial_Fill_Color&gt;&#xa;&lt;Initial_Border_Color&gt;0xff9b8531&lt;/Initial_Border_Color&gt;&#xa;&lt;VectorProps&gt;&#xa;&lt;figure&gt;&#xa;&lt;svg&gt;M0,0h331v240H0V0z&lt;/svg&gt;&#xa;&lt;/figure&gt;&#xa;&lt;seamY&gt;-1&lt;/seamY&gt;&#xa;&lt;shapeWidth&gt;331&lt;/shapeWidth&gt;&#xa;&lt;shapeHeight&gt;240&lt;/shapeHeight&gt;&#xa;&lt;/VectorProps&gt;&#xa;&lt;Style&gt;4&lt;/Style&gt;&#xa;&lt;UseDefaultSpec&gt;1&lt;/UseDefaultSpec&gt;   &#xa;&lt;/Overlay&gt;" leadInLength="0/1"  />
              </Keyframes>
             </Parameter>
            </StringParameters>
           </VectorNode>
          </Attribute>
         </Attributes>
         <MetaData>
          <entry key="WinSubProjectDisplayName" val=""/>
         </MetaData>
         <LeftEdgeMods length="19/1" groupName="OpacityFade">
          <EdgeMod parameter="7967">
           <FadeInFunc id="7682"  />
          </EdgeMod>
         </LeftEdgeMods>
         <ExtraData>
          <Entry key="ZoomPanBin">
           <ZoomPanBin id="8004"  >
            <ZoomPanKeyframes>
             <ZoomPanKeyframe id="8005" timeRangeEnd="-9999999/1" timeRangeDuration="0/1" interpolaterName="linr"  />
            </ZoomPanKeyframes>
           </ZoomPanBin>
          </Entry>
         </ExtraData>
        </Callout>
        <Callout id="8006" start="564" duration="80" scalar="1/1" mediaStart="32/1" mediaDuration="80/1" >
         <Transformer>
          <VectorParam id="8007"  name="translation">
           <InterpolatingParam id="8008" interp="linr"  time="-9999999/1" value="-322.6229508203823" leadInLength="0/1"  />
           <InterpolatingParam id="8009" interp="linr"  time="-9999999/1" value="-98.360655737733254" leadInLength="0/1"  />
           <InterpolatingParam id="8010" interp="linr"  time="-9999999/1" value="3.4106051316482886e-010" leadInLength="0/1"  />
          </VectorParam>
          <VectorParam id="8011"  name="rotation">
           <InterpolatingParam id="8012" interp="linr"  time="-9999999/1" value="0" leadInLength="0/1"  />
           <InterpolatingParam id="8013" interp="linr"  time="-9999999/1" value="0" leadInLength="0/1"  />
           <InterpolatingParam id="8014" interp="linr"  time="-9999999/1" value="0" leadInLength="0/1"  />
          </VectorParam>
          <VectorParam id="8015"  name="shear">
           <InterpolatingParam id="8016" interp="linr"  time="-9999999/1" value="0" leadInLength="0/1"  />
           <InterpolatingParam id="8017" interp="linr"  time="-9999999/1" value="0" leadInLength="0/1"  />
           <InterpolatingParam id="8018" interp="linr"  time="-9999999/1" value="0" leadInLength="0/1"  />
          </VectorParam>
          <VectorParam id="8019"  name="scale">
           <InterpolatingParam id="8020" interp="linr"  time="-9999999/1" value="1.8070617906664628" leadInLength="0/1"  />
           <InterpolatingParam id="8021" interp="linr"  time="-9999999/1" value="1.5874550463651851" leadInLength="0/1"  />
           <InterpolatingParam id="8022" interp="linr"  time="-9999999/1" value="1" leadInLength="0/1"  />
          </VectorParam>
          <VectorParam id="8023"  name="anchor">
           <InterpolatingParam id="8024" interp="linr"  time="0/1" value="0" leadInLength="0/1"  />
           <InterpolatingParam id="8025" interp="linr"  time="0/1" value="0" leadInLength="0/1"  />
           <InterpolatingParam id="8026" interp="linr"  time="0/1" value="0" leadInLength="0/1"  />
          </VectorParam>
         </Transformer>
         <Parameters>
          <VectorParam id="8027"  name="sourceCrop">
           <InterpolatingParam id="8028" interp="linr"  time="0/1" value="0" leadInLength="0/1"  />
           <InterpolatingParam id="8029" interp="linr"  time="0/1" value="0" leadInLength="0/1"  />
           <InterpolatingParam id="8030" interp="linr"  time="0/1" value="0" leadInLength="0/1"  />
           <InterpolatingParam id="8031" interp="linr"  time="0/1" value="0" leadInLength="0/1"  />
          </VectorParam>
          <VectorParam id="8032"  name="geometryCrop">
           <InterpolatingParam id="8033" interp="linr"  time="-9999999/1" value="0" leadInLength="0/1"  />
           <InterpolatingParam id="8034" interp="linr"  time="-9999999/1" value="0" leadInLength="0/1"  />
           <InterpolatingParam id="8035" interp="linr"  time="-9999999/1" value="0" leadInLength="0/1"  />
           <InterpolatingParam id="8036" interp="linr"  time="-9999999/1" value="0" leadInLength="0/1"  />
          </VectorParam>
          <InterpolatingParam id="8037" interp="linr"  time="-9999999/1" value="1" leadInLength="0/1"  name="opacity"/>
         </Parameters>
         <Attributes>
          <Attribute id="8038"  name="vectorNode">
           <VectorNode id="8039" kind="TypeWinSimple"  >
            <DoubleParameters>
             <InterpolatingParam id="8040" interp="linr"  time="0/1" value="-1" leadInLength="0/1"  name="CutoutPercentage"/>
             <InterpolatingParam id="8041" interp="linr"  time="0/1" value="-1" leadInLength="0/1"  name="RoundedRectRadius"/>
             <InterpolatingParam id="8042" interp="linr"  time="0/1" value="4" leadInLength="0/1"  name="Style"/>
             <InterpolatingParam id="8043" interp="linr"  time="0/1" value="155" leadInLength="0/1"  name="borderColorBlue"/>
             <InterpolatingParam id="8044" interp="linr"  time="0/1" value="133" leadInLength="0/1"  name="borderColorGreen"/>
             <InterpolatingParam id="8045" interp="linr"  time="0/1" value="49" leadInLength="0/1"  name="borderColorRed"/>
             <InterpolatingParam id="8046" interp="linr"  time="0/1" value="0" leadInLength="0/1"  name="borderState"/>
             <InterpolatingParam id="8047" interp="linr"  time="0/1" value="3" leadInLength="0/1"  name="borderWidth"/>
             <InterpolatingParam id="8048" interp="linr"  time="0/1" value="0" leadInLength="0/1"  name="dimensionTime"/>
             <InterpolatingParam id="8049" interp="linr"  time="0/1" value="0" leadInLength="0/1"  name="fillColorBlue"/>
             <InterpolatingParam id="8050" interp="linr"  time="0/1" value="0" leadInLength="0/1"  name="fillColorGreen"/>
             <InterpolatingParam id="8051" interp="linr"  time="0/1" value="0" leadInLength="0/1"  name="fillColorRed"/>
             <InterpolatingParam id="8052" interp="linr"  time="0/1" value="1" leadInLength="0/1"  name="fillState"/>
             <InterpolatingParam id="8053" interp="linr"  time="0/1" value="0" leadInLength="0/1"  name="flipOnXAxis"/>
             <InterpolatingParam id="8054" interp="linr"  time="0/1" value="0" leadInLength="0/1"  name="flipOnYAxis"/>
             <InterpolatingParam id="8055" interp="linr"  time="0/1" value="254.50151057401814" leadInLength="0/1"  name="height"/>
             <InterpolatingParam id="8056" interp="linr"  time="0/1" value="0" leadInLength="0/1"  name="textDropShadow"/>
             <InterpolatingParam id="8057" interp="linr"  time="0/1" value="0" leadInLength="0/1"  name="textIgnoresOpacity"/>
             <InterpolatingParam id="8058" interp="linr"  time="0/1" value="0.875" leadInLength="0/1"  name="textRectHeight"/>
             <InterpolatingParam id="8059" interp="linr"  time="0/1" value="0.90936555891238668" leadInLength="0/1"  name="textRectWidth"/>
             <InterpolatingParam id="8060" interp="linr"  time="0/1" value="0.045317220543806644" leadInLength="0/1"  name="textRectX"/>
             <InterpolatingParam id="8061" interp="linr"  time="0/1" value="0.0625" leadInLength="0/1"  name="textRectY"/>
             <InterpolatingParam id="8062" interp="linr"  time="0/1" value="0" leadInLength="0/1"  name="textVerticalAlign"/>
             <InterpolatingParam id="8063" interp="linr"  time="0/1" value="351" leadInLength="0/1"  name="width"/>
            </DoubleParameters>
            <StringParameters>
             <Parameter id="8064"  name="VectorPath">
              <Keyframes>
              <Keyframe id="8065"  time="0/1" value="M0,0h331v240H0V0z" leadInLength="0/1"  />
              </Keyframes>
             </Parameter>
             <Parameter id="8066"  name="filename">
              <Keyframes>
              <Keyframe id="8067"  time="0/1" value="D:\Media\Studio\Callouts\rectanglewithtext.xml" leadInLength="0/1"  />
              </Keyframes>
             </Parameter>
             <Parameter id="8068"  name="name">
              <Keyframes>
              <Keyframe id="8069"  time="0/1" value="Simple Rectangle" leadInLength="0/1"  />
              </Keyframes>
             </Parameter>
             <Parameter id="8070"  name="text">
              <Keyframes>
              <Keyframe id="8071"  time="0/1" value="{\rtf1\ansi\ansicpg1252\deff0\deflang1033{\fonttbl{\f0\fswiss\fprq2\fcharset0 Arial Rounded MT Bold;}}&#xD;&#xa;{\colortbl ;\red222\green222\blue7;\red255\green255\blue255;}&#xD;&#xa;\viewkind4\uc1\pard\qc\cf1\f0\fs56 Target Audience\par&#xD;&#xa;\cf2\fs44 DIY Enthusiasts, Entreprenuers \par&#xD;&#xa;Engineers,\par&#xD;&#xa;Developers,\par&#xD;&#xa;Profesionals,\par&#xD;&#xa;College Grads\par&#xD;&#xa;}&#xD;&#xa;" leadInLength="0/1"  />
              </Keyframes>
             </Parameter>
             <Parameter id="8072"  name="xmlContent">
              <Keyframes>
              <Keyframe id="8073"  time="0/1" value="﻿&lt;?xml version=&quot;1.0&quot;?&gt;&#xa;&#xa;&lt;Overlay version=&quot;1.0.1&quot;&gt;&#xa;&#xa;&lt;Overlay_Filename&gt;rectanglewithtext.png&lt;/Overlay_Filename&gt;&#xa;&lt;Overlay_Name&gt;Simple Rectangle&lt;/Overlay_Name&gt;&#xa;&lt;Text_Top&gt;15&lt;/Text_Top&gt;&#xa;&lt;Text_Left&gt;15&lt;/Text_Left&gt;&#xa;&lt;Text_Bottom&gt;15&lt;/Text_Bottom&gt;&#xa;&lt;Text_Right&gt;15&lt;/Text_Right&gt;&#xa;&lt;Fill_Color&gt;1&lt;/Fill_Color&gt;&#xa;&lt;Border_Color&gt;1&lt;/Border_Color&gt;&#xa;&lt;Initial_Fill_Color&gt;0xff9b8531&lt;/Initial_Fill_Color&gt;&#xa;&lt;Initial_Border_Color&gt;0xff9b8531&lt;/Initial_Border_Color&gt;&#xa;&lt;VectorProps&gt;&#xa;&lt;figure&gt;&#xa;&lt;svg&gt;M0,0h331v240H0V0z&lt;/svg&gt;&#xa;&lt;/figure&gt;&#xa;&lt;seamY&gt;-1&lt;/seamY&gt;&#xa;&lt;shapeWidth&gt;331&lt;/shapeWidth&gt;&#xa;&lt;shapeHeight&gt;240&lt;/shapeHeight&gt;&#xa;&lt;/VectorProps&gt;&#xa;&lt;Style&gt;4&lt;/Style&gt;&#xa;&lt;UseDefaultSpec&gt;1&lt;/UseDefaultSpec&gt;   &#xa;&lt;/Overlay&gt;" leadInLength="0/1"  />
              </Keyframes>
             </Parameter>
            </StringParameters>
           </VectorNode>
          </Attribute>
         </Attributes>
         <MetaData>
          <entry key="WinSubProjectDisplayName" val=""/>
         </MetaData>
         <ExtraData>
          <Entry key="ZoomPanBin">
           <ZoomPanBin id="8074"  >
            <ZoomPanKeyframes>
             <ZoomPanKeyframe id="8075" timeRangeEnd="-9999999/1" timeRangeDuration="0/1" interpolaterName="linr"  />
            </ZoomPanKeyframes>
           </ZoomPanBin>
          </Entry>
         </ExtraData>
        </Callout>
        <Callout id="8076" start="644" duration="54" scalar="1/1" mediaStart="123/1" mediaDuration="54/1" >
         <Transformer>
          <VectorParam id="8077"  name="translation">
           <InterpolatingParam id="8078" interp="linr"  time="-9999999/1" value="-322.6229508203823" leadInLength="0/1"  />
           <InterpolatingParam id="8079" interp="linr"  time="-9999999/1" value="-98.360655737733254" leadInLength="0/1"  />
           <InterpolatingParam id="8080" interp="linr"  time="-9999999/1" value="3.4106051316482886e-010" leadInLength="0/1"  />
          </VectorParam>
          <VectorParam id="8081"  name="rotation">
           <InterpolatingParam id="8082" interp="linr"  time="-9999999/1" value="0" leadInLength="0/1"  />
           <InterpolatingParam id="8083" interp="linr"  time="-9999999/1" value="0" leadInLength="0/1"  />
           <InterpolatingParam id="8084" interp="linr"  time="-9999999/1" value="0" leadInLength="0/1"  />
          </VectorParam>
          <VectorParam id="8085"  name="shear">
           <InterpolatingParam id="8086" interp="linr"  time="-9999999/1" value="0" leadInLength="0/1"  />
           <InterpolatingParam id="8087" interp="linr"  time="-9999999/1" value="0" leadInLength="0/1"  />
           <InterpolatingParam id="8088" interp="linr"  time="-9999999/1" value="0" leadInLength="0/1"  />
          </VectorParam>
          <VectorParam id="8089"  name="scale">
           <InterpolatingParam id="8090" interp="linr"  time="-9999999/1" value="1.8070617906664628" leadInLength="0/1"  />
           <InterpolatingParam id="8091" interp="linr"  time="-9999999/1" value="1.5874550463651851" leadInLength="0/1"  />
           <InterpolatingParam id="8092" interp="linr"  time="-9999999/1" value="1" leadInLength="0/1"  />
          </VectorParam>
          <VectorParam id="8093"  name="anchor">
           <InterpolatingParam id="8094" interp="linr"  time="0/1" value="0" leadInLength="0/1"  />
           <InterpolatingParam id="8095" interp="linr"  time="0/1" value="0" leadInLength="0/1"  />
           <InterpolatingParam id="8096" interp="linr"  time="0/1" value="0" leadInLength="0/1"  />
          </VectorParam>
         </Transformer>
         <Parameters>
          <VectorParam id="8097"  name="sourceCrop">
           <InterpolatingParam id="8098" interp="linr"  time="0/1" value="0" leadInLength="0/1"  />
           <InterpolatingParam id="8099" interp="linr"  time="0/1" value="0" leadInLength="0/1"  />
           <InterpolatingParam id="8100" interp="linr"  time="0/1" value="0" leadInLength="0/1"  />
           <InterpolatingParam id="8101" interp="linr"  time="0/1" value="0" leadInLength="0/1"  />
          </VectorParam>
          <VectorParam id="8102"  name="geometryCrop">
           <InterpolatingParam id="8103" interp="linr"  time="-9999999/1" value="0" leadInLength="0/1"  />
           <InterpolatingParam id="8104" interp="linr"  time="-9999999/1" value="0" leadInLength="0/1"  />
           <InterpolatingParam id="8105" interp="linr"  time="-9999999/1" value="0" leadInLength="0/1"  />
           <InterpolatingParam id="8106" interp="linr"  time="-9999999/1" value="0" leadInLength="0/1"  />
          </VectorParam>
          <InterpolatingParam id="8107" interp="linr"  time="-9999999/1" value="1" leadInLength="0/1"  name="opacity"/>
         </Parameters>
         <Attributes>
          <Attribute id="8108"  name="vectorNode">
           <VectorNode id="8109" kind="TypeWinSimple"  >
            <DoubleParameters>
             <InterpolatingParam id="8110" interp="linr"  time="0/1" value="-1" leadInLength="0/1"  name="CutoutPercentage"/>
             <InterpolatingParam id="8111" interp="linr"  time="0/1" value="-1" leadInLength="0/1"  name="RoundedRectRadius"/>
             <InterpolatingParam id="8112" interp="linr"  time="0/1" value="4" leadInLength="0/1"  name="Style"/>
             <InterpolatingParam id="8113" interp="linr"  time="0/1" value="155" leadInLength="0/1"  name="borderColorBlue"/>
             <InterpolatingParam id="8114" interp="linr"  time="0/1" value="133" leadInLength="0/1"  name="borderColorGreen"/>
             <InterpolatingParam id="8115" interp="linr"  time="0/1" value="49" leadInLength="0/1"  name="borderColorRed"/>
             <InterpolatingParam id="8116" interp="linr"  time="0/1" value="0" leadInLength="0/1"  name="borderState"/>
             <InterpolatingParam id="8117" interp="linr"  time="0/1" value="3" leadInLength="0/1"  name="borderWidth"/>
             <InterpolatingParam id="8118" interp="linr"  time="0/1" value="0" leadInLength="0/1"  name="dimensionTime"/>
             <InterpolatingParam id="8119" interp="linr"  time="0/1" value="0" leadInLength="0/1"  name="fillColorBlue"/>
             <InterpolatingParam id="8120" interp="linr"  time="0/1" value="0" leadInLength="0/1"  name="fillColorGreen"/>
             <InterpolatingParam id="8121" interp="linr"  time="0/1" value="0" leadInLength="0/1"  name="fillColorRed"/>
             <InterpolatingParam id="8122" interp="linr"  time="0/1" value="1" leadInLength="0/1"  name="fillState"/>
             <InterpolatingParam id="8123" interp="linr"  time="0/1" value="0" leadInLength="0/1"  name="flipOnXAxis"/>
             <InterpolatingParam id="8124" interp="linr"  time="0/1" value="0" leadInLength="0/1"  name="flipOnYAxis"/>
             <InterpolatingParam id="8125" interp="linr"  time="0/1" value="254.50151057401814" leadInLength="0/1"  name="height"/>
             <InterpolatingParam id="8126" interp="linr"  time="0/1" value="0" leadInLength="0/1"  name="textDropShadow"/>
             <InterpolatingParam id="8127" interp="linr"  time="0/1" value="0" leadInLength="0/1"  name="textIgnoresOpacity"/>
             <InterpolatingParam id="8128" interp="linr"  time="0/1" value="0.875" leadInLength="0/1"  name="textRectHeight"/>
             <InterpolatingParam id="8129" interp="linr"  time="0/1" value="0.90936555891238668" leadInLength="0/1"  name="textRectWidth"/>
             <InterpolatingParam id="8130" interp="linr"  time="0/1" value="0.045317220543806644" leadInLength="0/1"  name="textRectX"/>
             <InterpolatingParam id="8131" interp="linr"  time="0/1" value="0.0625" leadInLength="0/1"  name="textRectY"/>
             <InterpolatingParam id="8132" interp="linr"  time="0/1" value="0" leadInLength="0/1"  name="textVerticalAlign"/>
             <InterpolatingParam id="8133" interp="linr"  time="0/1" value="351" leadInLength="0/1"  name="width"/>
            </DoubleParameters>
            <StringParameters>
             <Parameter id="8134"  name="VectorPath">
              <Keyframes>
              <Keyframe id="8135"  time="0/1" value="M0,0h331v240H0V0z" leadInLength="0/1"  />
              </Keyframes>
             </Parameter>
             <Parameter id="8136"  name="filename">
              <Keyframes>
              <Keyframe id="8137"  time="0/1" value="D:\Media\Studio\Callouts\rectanglewithtext.xml" leadInLength="0/1"  />
              </Keyframes>
             </Parameter>
             <Parameter id="8138"  name="name">
              <Keyframes>
              <Keyframe id="8139"  time="0/1" value="Simple Rectangle" leadInLength="0/1"  />
              </Keyframes>
             </Parameter>
             <Parameter id="8140"  name="text">
              <Keyframes>
              <Keyframe id="8141"  time="0/1" value="{\rtf1\ansi\ansicpg1252\deff0\deflang1033{\fonttbl{\f0\fswiss\fprq2\fcharset0 Arial Rounded MT Bold;}}&#xD;&#xa;{\colortbl ;\red222\green222\blue7;\red255\green255\blue255;}&#xD;&#xa;\viewkind4\uc1\pard\qc\cf1\f0\fs56 Target Audience\par&#xD;&#xa;\cf2\fs44 DIY Enthusiasts, Entreprenuers \par&#xD;&#xa;Engineers,\par&#xD;&#xa;Developers,\par&#xD;&#xa;Profesionals,\par&#xD;&#xa;College Grads\par&#xD;&#xa;}&#xD;&#xa;" leadInLength="0/1"  />
              </Keyframes>
             </Parameter>
             <Parameter id="8142"  name="xmlContent">
              <Keyframes>
              <Keyframe id="8143"  time="0/1" value="﻿&lt;?xml version=&quot;1.0&quot;?&gt;&#xa;&#xa;&lt;Overlay version=&quot;1.0.1&quot;&gt;&#xa;&#xa;&lt;Overlay_Filename&gt;rectanglewithtext.png&lt;/Overlay_Filename&gt;&#xa;&lt;Overlay_Name&gt;Simple Rectangle&lt;/Overlay_Name&gt;&#xa;&lt;Text_Top&gt;15&lt;/Text_Top&gt;&#xa;&lt;Text_Left&gt;15&lt;/Text_Left&gt;&#xa;&lt;Text_Bottom&gt;15&lt;/Text_Bottom&gt;&#xa;&lt;Text_Right&gt;15&lt;/Text_Right&gt;&#xa;&lt;Fill_Color&gt;1&lt;/Fill_Color&gt;&#xa;&lt;Border_Color&gt;1&lt;/Border_Color&gt;&#xa;&lt;Initial_Fill_Color&gt;0xff9b8531&lt;/Initial_Fill_Color&gt;&#xa;&lt;Initial_Border_Color&gt;0xff9b8531&lt;/Initial_Border_Color&gt;&#xa;&lt;VectorProps&gt;&#xa;&lt;figure&gt;&#xa;&lt;svg&gt;M0,0h331v240H0V0z&lt;/svg&gt;&#xa;&lt;/figure&gt;&#xa;&lt;seamY&gt;-1&lt;/seamY&gt;&#xa;&lt;shapeWidth&gt;331&lt;/shapeWidth&gt;&#xa;&lt;shapeHeight&gt;240&lt;/shapeHeight&gt;&#xa;&lt;/VectorProps&gt;&#xa;&lt;Style&gt;4&lt;/Style&gt;&#xa;&lt;UseDefaultSpec&gt;1&lt;/UseDefaultSpec&gt;   &#xa;&lt;/Overlay&gt;" leadInLength="0/1"  />
              </Keyframes>
             </Parameter>
            </StringParameters>
           </VectorNode>
          </Attribute>
         </Attributes>
         <MetaData>
          <entry key="WinSubProjectDisplayName" val=""/>
         </MetaData>
         <ExtraData>
          <Entry key="ZoomPanBin">
           <ZoomPanBin id="8144"  >
            <ZoomPanKeyframes>
             <ZoomPanKeyframe id="8145" timeRangeEnd="-9999999/1" timeRangeDuration="0/1" interpolaterName="linr"  />
            </ZoomPanKeyframes>
           </ZoomPanBin>
          </Entry>
         </ExtraData>
        </Callout>
        <Callout id="8146" start="698" duration="24" scalar="1/1" mediaStart="186/1" mediaDuration="24/1" >
         <Transformer>
          <VectorParam id="8147"  name="translation">
           <InterpolatingParam id="8148" interp="linr"  time="-9999999/1" value="-322.6229508203823" leadInLength="0/1"  />
           <InterpolatingParam id="8149" interp="linr"  time="-9999999/1" value="-98.360655737733254" leadInLength="0/1"  />
           <InterpolatingParam id="8150" interp="linr"  time="-9999999/1" value="3.4106051316482886e-010" leadInLength="0/1"  />
          </VectorParam>
          <VectorParam id="8151"  name="rotation">
           <InterpolatingParam id="8152" interp="linr"  time="-9999999/1" value="0" leadInLength="0/1"  />
           <InterpolatingParam id="8153" interp="linr"  time="-9999999/1" value="0" leadInLength="0/1"  />
           <InterpolatingParam id="8154" interp="linr"  time="-9999999/1" value="0" leadInLength="0/1"  />
          </VectorParam>
          <VectorParam id="8155"  name="shear">
           <InterpolatingParam id="8156" interp="linr"  time="-9999999/1" value="0" leadInLength="0/1"  />
           <InterpolatingParam id="8157" interp="linr"  time="-9999999/1" value="0" leadInLength="0/1"  />
           <InterpolatingParam id="8158" interp="linr"  time="-9999999/1" value="0" leadInLength="0/1"  />
          </VectorParam>
          <VectorParam id="8159"  name="scale">
           <InterpolatingParam id="8160" interp="linr"  time="-9999999/1" value="1.8070617906664628" leadInLength="0/1"  />
           <InterpolatingParam id="8161" interp="linr"  time="-9999999/1" value="1.5874550463651851" leadInLength="0/1"  />
           <InterpolatingParam id="8162" interp="linr"  time="-9999999/1" value="1" leadInLength="0/1"  />
          </VectorParam>
          <VectorParam id="8163"  name="anchor">
           <InterpolatingParam id="8164" interp="linr"  time="0/1" value="0" leadInLength="0/1"  />
           <InterpolatingParam id="8165" interp="linr"  time="0/1" value="0" leadInLength="0/1"  />
           <InterpolatingParam id="8166" interp="linr"  time="0/1" value="0" leadInLength="0/1"  />
          </VectorParam>
         </Transformer>
         <Parameters>
          <VectorParam id="8167"  name="sourceCrop">
           <InterpolatingParam id="8168" interp="linr"  time="0/1" value="0" leadInLength="0/1"  />
           <InterpolatingParam id="8169" interp="linr"  time="0/1" value="0" leadInLength="0/1"  />
           <InterpolatingParam id="8170" interp="linr"  time="0/1" value="0" leadInLength="0/1"  />
           <InterpolatingParam id="8171" interp="linr"  time="0/1" value="0" leadInLength="0/1"  />
          </VectorParam>
          <VectorParam id="8172"  name="geometryCrop">
           <InterpolatingParam id="8173" interp="linr"  time="-9999999/1" value="0" leadInLength="0/1"  />
           <InterpolatingParam id="8174" interp="linr"  time="-9999999/1" value="0" leadInLength="0/1"  />
           <InterpolatingParam id="8175" interp="linr"  time="-9999999/1" value="0" leadInLength="0/1"  />
           <InterpolatingParam id="8176" interp="linr"  time="-9999999/1" value="0" leadInLength="0/1"  />
          </VectorParam>
          <InterpolatingParam id="8177" interp="linr"  time="-9999999/1" value="1" leadInLength="0/1"  name="opacity"/>
         </Parameters>
         <Attributes>
          <Attribute id="8178"  name="vectorNode">
           <VectorNode id="8179" kind="TypeWinSimple"  >
            <DoubleParameters>
             <InterpolatingParam id="8180" interp="linr"  time="0/1" value="-1" leadInLength="0/1"  name="CutoutPercentage"/>
             <InterpolatingParam id="8181" interp="linr"  time="0/1" value="-1" leadInLength="0/1"  name="RoundedRectRadius"/>
             <InterpolatingParam id="8182" interp="linr"  time="0/1" value="4" leadInLength="0/1"  name="Style"/>
             <InterpolatingParam id="8183" interp="linr"  time="0/1" value="155" leadInLength="0/1"  name="borderColorBlue"/>
             <InterpolatingParam id="8184" interp="linr"  time="0/1" value="133" leadInLength="0/1"  name="borderColorGreen"/>
             <InterpolatingParam id="8185" interp="linr"  time="0/1" value="49" leadInLength="0/1"  name="borderColorRed"/>
             <InterpolatingParam id="8186" interp="linr"  time="0/1" value="0" leadInLength="0/1"  name="borderState"/>
             <InterpolatingParam id="8187" interp="linr"  time="0/1" value="3" leadInLength="0/1"  name="borderWidth"/>
             <InterpolatingParam id="8188" interp="linr"  time="0/1" value="0" leadInLength="0/1"  name="dimensionTime"/>
             <InterpolatingParam id="8189" interp="linr"  time="0/1" value="0" leadInLength="0/1"  name="fillColorBlue"/>
             <InterpolatingParam id="8190" interp="linr"  time="0/1" value="0" leadInLength="0/1"  name="fillColorGreen"/>
             <InterpolatingParam id="8191" interp="linr"  time="0/1" value="0" leadInLength="0/1"  name="fillColorRed"/>
             <InterpolatingParam id="8192" interp="linr"  time="0/1" value="1" leadInLength="0/1"  name="fillState"/>
             <InterpolatingParam id="8193" interp="linr"  time="0/1" value="0" leadInLength="0/1"  name="flipOnXAxis"/>
             <InterpolatingParam id="8194" interp="linr"  time="0/1" value="0" leadInLength="0/1"  name="flipOnYAxis"/>
             <InterpolatingParam id="8195" interp="linr"  time="0/1" value="254.50151057401814" leadInLength="0/1"  name="height"/>
             <InterpolatingParam id="8196" interp="linr"  time="0/1" value="0" leadInLength="0/1"  name="textDropShadow"/>
             <InterpolatingParam id="8197" interp="linr"  time="0/1" value="0" leadInLength="0/1"  name="textIgnoresOpacity"/>
             <InterpolatingParam id="8198" interp="linr"  time="0/1" value="0.875" leadInLength="0/1"  name="textRectHeight"/>
             <InterpolatingParam id="8199" interp="linr"  time="0/1" value="0.90936555891238668" leadInLength="0/1"  name="textRectWidth"/>
             <InterpolatingParam id="8200" interp="linr"  time="0/1" value="0.045317220543806644" leadInLength="0/1"  name="textRectX"/>
             <InterpolatingParam id="8201" interp="linr"  time="0/1" value="0.0625" leadInLength="0/1"  name="textRectY"/>
             <InterpolatingParam id="8202" interp="linr"  time="0/1" value="0" leadInLength="0/1"  name="textVerticalAlign"/>
             <InterpolatingParam id="8203" interp="linr"  time="0/1" value="351" leadInLength="0/1"  name="width"/>
            </DoubleParameters>
            <StringParameters>
             <Parameter id="8204"  name="VectorPath">
              <Keyframes>
              <Keyframe id="8205"  time="0/1" value="M0,0h331v240H0V0z" leadInLength="0/1"  />
              </Keyframes>
             </Parameter>
             <Parameter id="8206"  name="filename">
              <Keyframes>
              <Keyframe id="8207"  time="0/1" value="D:\Media\Studio\Callouts\rectanglewithtext.xml" leadInLength="0/1"  />
              </Keyframes>
             </Parameter>
             <Parameter id="8208"  name="name">
              <Keyframes>
              <Keyframe id="8209"  time="0/1" value="Simple Rectangle" leadInLength="0/1"  />
              </Keyframes>
             </Parameter>
             <Parameter id="8210"  name="text">
              <Keyframes>
              <Keyframe id="8211"  time="0/1" value="{\rtf1\ansi\ansicpg1252\deff0\deflang1033{\fonttbl{\f0\fswiss\fprq2\fcharset0 Arial Rounded MT Bold;}}&#xD;&#xa;{\colortbl ;\red222\green222\blue7;\red255\green255\blue255;}&#xD;&#xa;\viewkind4\uc1\pard\qc\cf1\f0\fs56 Target Audience\par&#xD;&#xa;\cf2\fs44 DYI Ehtusuats, Entreprenuers \par&#xD;&#xa;Engineers,\par&#xD;&#xa;Developers,\par&#xD;&#xa;Profesionals,\par&#xD;&#xa;College Grads\par&#xD;&#xa;}&#xD;&#xa;" leadInLength="0/1"  />
              </Keyframes>
             </Parameter>
             <Parameter id="8212"  name="xmlContent">
              <Keyframes>
              <Keyframe id="8213"  time="0/1" value="﻿&lt;?xml version=&quot;1.0&quot;?&gt;&#xa;&#xa;&lt;Overlay version=&quot;1.0.1&quot;&gt;&#xa;&#xa;&lt;Overlay_Filename&gt;rectanglewithtext.png&lt;/Overlay_Filename&gt;&#xa;&lt;Overlay_Name&gt;Simple Rectangle&lt;/Overlay_Name&gt;&#xa;&lt;Text_Top&gt;15&lt;/Text_Top&gt;&#xa;&lt;Text_Left&gt;15&lt;/Text_Left&gt;&#xa;&lt;Text_Bottom&gt;15&lt;/Text_Bottom&gt;&#xa;&lt;Text_Right&gt;15&lt;/Text_Right&gt;&#xa;&lt;Fill_Color&gt;1&lt;/Fill_Color&gt;&#xa;&lt;Border_Color&gt;1&lt;/Border_Color&gt;&#xa;&lt;Initial_Fill_Color&gt;0xff9b8531&lt;/Initial_Fill_Color&gt;&#xa;&lt;Initial_Border_Color&gt;0xff9b8531&lt;/Initial_Border_Color&gt;&#xa;&lt;VectorProps&gt;&#xa;&lt;figure&gt;&#xa;&lt;svg&gt;M0,0h331v240H0V0z&lt;/svg&gt;&#xa;&lt;/figure&gt;&#xa;&lt;seamY&gt;-1&lt;/seamY&gt;&#xa;&lt;shapeWidth&gt;331&lt;/shapeWidth&gt;&#xa;&lt;shapeHeight&gt;240&lt;/shapeHeight&gt;&#xa;&lt;/VectorProps&gt;&#xa;&lt;Style&gt;4&lt;/Style&gt;&#xa;&lt;UseDefaultSpec&gt;1&lt;/UseDefaultSpec&gt;   &#xa;&lt;/Overlay&gt;" leadInLength="0/1"  />
              </Keyframes>
             </Parameter>
            </StringParameters>
           </VectorNode>
          </Attribute>
         </Attributes>
         <MetaData>
          <entry key="WinSubProjectDisplayName" val=""/>
         </MetaData>
         <RightEdgeMods length="24/1" groupName="OpacityFade">
          <EdgeMod parameter="8177">
           <FadeOutFunc id="8214"  />
          </EdgeMod>
         </RightEdgeMods>
         <ExtraData>
          <Entry key="ZoomPanBin">
           <ZoomPanBin id="8215"  >
            <ZoomPanKeyframes>
             <ZoomPanKeyframe id="8216" timeRangeEnd="-9999999/1" timeRangeDuration="0/1" interpolaterName="linr"  />
            </ZoomPanKeyframes>
           </ZoomPanBin>
          </Entry>
         </ExtraData>
        </Callout>
        <AMFile id="8217" start="4676" duration="1893" scalar="1/1" mediaStart="0/1" mediaDuration="1893/1" trackNumber="0" src="15" channelNumber="0,1" >
         <Parameters>
          <InterpolatingParam id="8218" interp="linr"  time="0/1" value="0.099255583126550861" leadInLength="0/1"  name="volume"/>
          <Parameter id="8219"  name="captions"/>
         </Parameters>
         <Attributes>
          <Attribute id="8220" value="" name="ident"/>
          <Attribute id="8221" value="44100" name="sampleRate"/>
          <Attribute id="8222" value="0" name="bitDepth"/>
          <Attribute id="8223" value="1" name="gain"/>
          <Attribute id="8224" value="0" name="mixToMono"/>
         </Attributes>
         <MetaData>
          <entry key="WinSubProjectDisplayName" val=""/>
         </MetaData>
        </AMFile>
       </Medias>
      </GenericTrack>
      <GenericTrack id="8225"  >
       <Attributes>
        <Attribute id="8226" value="" name="ident"/>
        <Attribute id="8227" value="0" name="audioMuted"/>
        <Attribute id="8228" value="0" name="videoHidden"/>
       </Attributes>
       <MetaData>
        <entry key="IsLocked" val="False"/>
        <entry key="WinTrackHeight" val="62"/>
       </MetaData>
       <Medias>
        <IMFile id="8229" start="361" duration="137" scalar="1/1" mediaStart="0/1" mediaDuration="1/1" trackNumber="0" src="27" trimStartSum="0/1" >
         <Transformer>
          <VectorParam id="8230"  name="translation">
           <InterpolatingParam id="8231" interp="linr"  time="-9999999/1" value="-350.38247011954064" leadInLength="0/1"  />
           <InterpolatingParam id="8232" interp="linr"  time="-9999999/1" value="91.792828685196298" leadInLength="0/1"  />
           <InterpolatingParam id="8233" interp="linr"  time="-9999999/1" value="3.4106051316488567e-010" leadInLength="0/1"  />
          </VectorParam>
          <VectorParam id="8234"  name="rotation">
           <InterpolatingParam id="8235" interp="linr"  time="-9999999/1" value="0" leadInLength="0/1"  />
           <InterpolatingParam id="8236" interp="linr"  time="-9999999/1" value="0" leadInLength="0/1"  />
           <InterpolatingParam id="8237" interp="linr"  time="-9999999/1" value="0" leadInLength="0/1"  />
          </VectorParam>
          <VectorParam id="8238"  name="shear">
           <InterpolatingParam id="8239" interp="linr"  time="-9999999/1" value="0" leadInLength="0/1"  />
           <InterpolatingParam id="8240" interp="linr"  time="-9999999/1" value="0" leadInLength="0/1"  />
           <InterpolatingParam id="8241" interp="linr"  time="-9999999/1" value="0" leadInLength="0/1"  />
          </VectorParam>
          <VectorParam id="8242"  name="scale">
           <InterpolatingParam id="8243" interp="linr"  time="-9999999/1" value="1" leadInLength="0/1"  />
           <InterpolatingParam id="8244" interp="linr"  time="-9999999/1" value="1" leadInLength="0/1"  />
           <InterpolatingParam id="8245" interp="linr"  time="-9999999/1" value="1" leadInLength="0/1"  />
          </VectorParam>
          <VectorParam id="8246"  name="anchor">
           <InterpolatingParam id="8247" interp="linr"  time="0/1" value="0" leadInLength="0/1"  />
           <InterpolatingParam id="8248" interp="linr"  time="0/1" value="0" leadInLength="0/1"  />
           <InterpolatingParam id="8249" interp="linr"  time="0/1" value="0" leadInLength="0/1"  />
          </VectorParam>
         </Transformer>
         <Parameters>
          <VectorParam id="8250"  name="sourceCrop">
           <InterpolatingParam id="8251" interp="linr"  time="0/1" value="0" leadInLength="0/1"  />
           <InterpolatingParam id="8252" interp="linr"  time="0/1" value="0" leadInLength="0/1"  />
           <InterpolatingParam id="8253" interp="linr"  time="0/1" value="0" leadInLength="0/1"  />
           <InterpolatingParam id="8254" interp="linr"  time="0/1" value="0" leadInLength="0/1"  />
          </VectorParam>
          <VectorParam id="8255"  name="geometryCrop">
           <InterpolatingParam id="8256" interp="linr"  time="-9999999/1" value="0" leadInLength="0/1"  />
           <InterpolatingParam id="8257" interp="linr"  time="-9999999/1" value="0" leadInLength="0/1"  />
           <InterpolatingParam id="8258" interp="linr"  time="-9999999/1" value="0" leadInLength="0/1"  />
           <InterpolatingParam id="8259" interp="linr"  time="-9999999/1" value="0" leadInLength="0/1"  />
          </VectorParam>
          <InterpolatingParam id="8260" interp="linr"  time="-9999999/1" value="1" leadInLength="0/1"  name="opacity"/>
         </Parameters>
         <Effects>
          <GenericEffect id="8261" name = "TextEffect" >
           <Parameters>
           <Parameter id="8262"   name="text">
            <Keyframes>
            <Keyframe id="8263"  time="0/1" value="{\rtf1\ansi\ansicpg1252\deff0\deflang1033{\fonttbl{\f0\fswiss\fprq2\fcharset0 Impact;}}&#xD;&#xa;{\colortbl ;\red218\green182\blue1;}&#xD;&#xa;\viewkind4\uc1\pard\qc\cf1\f0\fs96  \par&#xD;&#xa;}&#xD;&#xa;" leadInLength="0/1"  />
            </Keyframes>
           </Parameter>
           <InterpolatingParam id="8264" interp="linr"  time="0/1" value="0" leadInLength="0/1"   name="textDimensionTime"/>
           <Parameter id="8265"   name="textDropShadow">
            <Keyframes>
            <Keyframe id="8266"  time="0/1" value="0" leadInLength="0/1"  />
            </Keyframes>
           </Parameter>
           <Parameter id="8267"   name="textIgnoresOpacity">
            <Keyframes>
            <Keyframe id="8268"  time="0/1" value="0" leadInLength="0/1"  />
            </Keyframes>
           </Parameter>
           <InterpolatingParam id="8269" interp="linr"  time="0/1" value="1" leadInLength="0/1"   name="textRectHeight"/>
           <InterpolatingParam id="8270" interp="linr"  time="0/1" value="1" leadInLength="0/1"   name="textRectWidth"/>
           <InterpolatingParam id="8271" interp="linr"  time="0/1" value="0" leadInLength="0/1"   name="textRectX"/>
           <InterpolatingParam id="8272" interp="linr"  time="0/1" value="0" leadInLength="0/1"   name="textRectY"/>
           <Parameter id="8273"   name="textVerticalAlign">
            <Keyframes>
            <Keyframe id="8274"  time="0/1" value="0" leadInLength="0/1"  />
            </Keyframes>
           </Parameter>
           </Parameters>
          </GenericEffect>
         </Effects>
         <Attributes>
          <Attribute id="8275" value="" name="ident"/>
         </Attributes>
         <MetaData>
          <entry key="WinSubProjectDisplayName" val=""/>
         </MetaData>
         <ExtraData>
          <Entry key="ZoomPanBin">
           <ZoomPanBin id="8276"  >
            <ZoomPanKeyframes>
             <ZoomPanKeyframe id="8277" timeRangeEnd="-9999999/1" timeRangeDuration="0/1" interpolaterName="linr"  />
            </ZoomPanKeyframes>
           </ZoomPanBin>
          </Entry>
         </ExtraData>
        </IMFile>
       </Medias>
      </GenericTrack>
      <GenericTrack id="8278"  >
       <Attributes>
        <Attribute id="8279" value="" name="ident"/>
        <Attribute id="8280" value="0" name="audioMuted"/>
        <Attribute id="8281" value="0" name="videoHidden"/>
       </Attributes>
       <MetaData>
        <entry key="IsLocked" val="False"/>
        <entry key="WinTrackHeight" val="62"/>
       </MetaData>
       <Medias>
       </Medias>
      </GenericTrack>
     </Tracks>
    </GenericMixer>
   <CaptionAttributes id="8282"  >
    <Attribute id="8283" value="1" name="captionsEnabled"/>
    <Attribute id="8284" value="Arial" name="captionsFontName"/>
    <Attribute id="8285" value="28" name="captionsFontSize"/>
    <Attribute id="8286" value="(0,0,0,255)" name="captionsBackgroundColor"/>
    <Attribute id="8287" value="(255,255,255,255)" name="captionsForegroundColor"/>
    <Attribute id="8288" value="en" name="lang"/>
    <Attribute id="8289" value="0" name="captionsAlignment"/>
    <Attribute id="8290" value="1" name="captionsDefaultFontSize"/>
    <Attribute id="8291" value="0.5" name="captionsOpacity"/>
    <Attribute id="8292" value="1" name="captionsBackgroundEnabled"/>
    <Attribute id="8293" value="1" name="captionsBackgroundOnlyAroundText"/>
   </CaptionAttributes>
   <Parameters>
    <VectorParam id="8294"  name="eyePosition">
     <InterpolatingParam id="8295" interp="linr"  time="0/1" value="0" leadInLength="0/1"  />
     <InterpolatingParam id="8296" interp="linr"  time="0/1" value="0" leadInLength="0/1"  />
     <InterpolatingParam id="8297" interp="linr"  time="0/1" value="3000" leadInLength="0/1"  />
    </VectorParam>
    <VectorParam id="8298"  name="eyeLookAtPosition">
     <InterpolatingParam id="8299" interp="linr"  time="0/1" value="0" leadInLength="0/1"  />
     <InterpolatingParam id="8300" interp="linr"  time="0/1" value="0" leadInLength="0/1"  />
     <InterpolatingParam id="8301" interp="linr"  time="0/1" value="0" leadInLength="0/1"  />
    </VectorParam>
    <VectorParam id="8302"  name="eyeUpVector">
     <InterpolatingParam id="8303" interp="linr"  time="0/1" value="0" leadInLength="0/1"  />
     <InterpolatingParam id="8304" interp="linr"  time="0/1" value="1" leadInLength="0/1"  />
     <InterpolatingParam id="8305" interp="linr"  time="0/1" value="0" leadInLength="0/1"  />
    </VectorParam>
    <InterpolatingParam id="8306" interp="linr"  time="0/1" value="0.23885785" leadInLength="0/1"  name="fov"/>
    <InterpolatingParam id="8307" interp="linr"  time="0/1" value="1.5" leadInLength="0/1"  name="nearClipDistance"/>
    <InterpolatingParam id="8308" interp="linr"  time="0/1" value="6000" leadInLength="0/1"  name="farClipDistance"/>
   </Parameters>
  </Timeline>
 </Project>
</GoProject>
</CSMLData>

</Project_Data>
