<?xml version="1.0"?>
<Project_Data Version="8.00">
<Project_Settings>
<ProfileName></ProfileName>
<ProjectWidth>964</ProjectWidth>
<ProjectHeight>720</ProjectHeight>
<IsCustomProject>1</IsCustomProject>
<SavedProjectSettings>1</SavedProjectSettings>
<LastFlashTemplate>-1</LastFlashTemplate>
</Project_Settings>


<AutoSaveFile>C:\Users\Junaid\AppData\Local\TechSmith\Camtasia Studio\8.0\Auto-Saves\variables18162079.autosave.camproj</AutoSaveFile>

<ProjectID>F3666007-2E93-4894-AE8A-CF7C91BD4ECB</ProjectID>

<PowerPointProject>0</PowerPointProject>

<PowerPointFilename></PowerPointFilename>


<Project_Notes>
</Project_Notes>

<Project_MetaData>
<Project_MetaData_Object>
<FieldArrayKey>8</FieldArrayKey>
<Value>variables</Value>
</Project_MetaData_Object>
<Project_MetaData_Object>
<FieldArrayKey>13</FieldArrayKey>
<Value>2016-01-19 12:42:45 PM</Value>
</Project_MetaData_Object>
<Project_MetaData_Object>
<FieldArrayKey>16</FieldArrayKey>
<Value>ENU</Value>
</Project_MetaData_Object>
</Project_MetaData>

<CSMLData>
<GoProject id="1" version="3.0" >
 <Project id="2" editRate="30/1" version="3.0" >
  <Author></Author>
  <Comment></Comment>
  <System></System>
  <SourceBin id="3"  >
    <Source id="4" src="C:\Users\Junaid\Desktop\IOT RECO\variables.trec" lastMod="20160119T073321" rect="(0,0,1028,768)" >
      <SourceTrack range="(0,5130)" type="0" editRate="30/1" trackRect="(0,0,1028,768)" sampleRate="0/1" bitDepth="0" numChannels="0" filename="variables.trec!Strack0.tsc2" metaData="variables.trec;" />
      <SourceTrack range="(0,5127000)" type="0" editRate="30000/1" trackRect="(0,0,640,480)" sampleRate="0/1" bitDepth="0" numChannels="0" filename="variables.trec!Cvideo1.mp4" metaData="" />
      <SourceTrack range="(0,7544832)" type="2" editRate="44100/1" trackRect="(0,0,0,0)" sampleRate="44100/1" bitDepth="16" numChannels="2" filename="variables.trec!Maudio2.mp4" metaData="" />
    </Source>
    <Source id="5" src="C:\Users\Junaid\Desktop\IOT RECO\keywords.trec" lastMod="20160119T073536" rect="(0,0,1028,768)" >
      <SourceTrack range="(0,1047)" type="0" editRate="30/1" trackRect="(0,0,1028,768)" sampleRate="0/1" bitDepth="0" numChannels="0" filename="keywords.trec!Strack0.tsc2" metaData="keywords.trec;" />
      <SourceTrack range="(0,1044000)" type="0" editRate="30000/1" trackRect="(0,0,640,480)" sampleRate="0/1" bitDepth="0" numChannels="0" filename="keywords.trec!Cvideo1.mp4" metaData="" />
      <SourceTrack range="(0,1531904)" type="2" editRate="44100/1" trackRect="(0,0,0,0)" sampleRate="44100/1" bitDepth="16" numChannels="2" filename="keywords.trec!Maudio2.mp4" metaData="" />
    </Source>
    <Source id="6" src="C:\Users\Junaid\Desktop\IOT RECO\Variables demo.trec" lastMod="20160119T085624" rect="(0,0,1028,768)" >
      <SourceTrack range="(0,10287)" type="0" editRate="30/1" trackRect="(0,0,1028,768)" sampleRate="0/1" bitDepth="0" numChannels="0" filename="Variables demo.trec!Strack0.tsc2" metaData="Variables demo.trec;" />
      <SourceTrack range="(0,10282000)" type="0" editRate="30000/1" trackRect="(0,0,640,480)" sampleRate="0/1" bitDepth="0" numChannels="0" filename="Variables demo.trec!Cvideo1.mp4" metaData="" />
      <SourceTrack range="(0,15110144)" type="2" editRate="44100/1" trackRect="(0,0,0,0)" sampleRate="44100/1" bitDepth="16" numChannels="2" filename="Variables demo.trec!Maudio2.mp4" metaData="" />
    </Source>
    <Source id="7" src="C:\Users\Junaid\Desktop\IOT RECO\Control structures.trec" lastMod="20160119T104745" rect="(0,0,1028,768)" >
      <SourceTrack range="(0,27789)" type="0" editRate="30/1" trackRect="(0,0,1028,768)" sampleRate="0/1" bitDepth="0" numChannels="0" filename="Control structures.trec!Strack0.tsc2" metaData="Control structures.trec;" />
      <SourceTrack range="(0,27789000)" type="0" editRate="30000/1" trackRect="(0,0,640,480)" sampleRate="0/1" bitDepth="0" numChannels="0" filename="Control structures.trec!Cvideo1.mp4" metaData="" />
      <SourceTrack range="(0,40944640)" type="2" editRate="44100/1" trackRect="(0,0,0,0)" sampleRate="44100/1" bitDepth="16" numChannels="2" filename="Control structures.trec!Maudio2.mp4" metaData="" />
    </Source>
  </SourceBin>
  <Timeline id="8"  >
   <Attributes>
    <Attribute id="9" value="964" name="width"/>
    <Attribute id="10" value="720" name="height"/>
    <Attribute id="11" value="(0,0,0,255)" name="backgroundColor"/>
   </Attributes>
    <GenericMixer id="12"  name="Unified Mixer">
     <MetaData>
      <entry key="MixerType" val="TimelineMixer"/>
     </MetaData>
     <Tracks>
      <GenericTrack id="13"  >
       <Attributes>
        <Attribute id="14" value="" name="ident"/>
        <Attribute id="15" value="0" name="audioMuted"/>
        <Attribute id="16" value="0" name="videoHidden"/>
       </Attributes>
       <MetaData>
        <entry key="IsLocked" val="False"/>
        <entry key="WinTrackHeight" val="62"/>
       </MetaData>
       <Medias>
        <StitchedMedia id="17" start="0" duration="3574" scalar="1/1" mediaStart="0/1" mediaDuration="3574/1" minMediaStart="0/1" >
         <Transformer>
          <VectorParam id="18"  name="translation">
           <InterpolatingParam id="19" interp="linr"  time="-9999999/1" value="402.00000000013745" leadInLength="0/1"  interpolater="leadin-linr"  />
           <InterpolatingParam id="20" interp="linr"  time="-9999999/1" value="-300.00000000016337" leadInLength="0/1"  interpolater="leadin-linr"  />
           <InterpolatingParam id="21" interp="linr"  time="-9999999/1" value="0" leadInLength="0/1"  interpolater="leadin-linr"  />
          </VectorParam>
          <VectorParam id="22"  name="rotation">
           <InterpolatingParam id="23" interp="linr"  time="-9999999/1" value="0" leadInLength="0/1"  interpolater="leadin-linr"  />
           <InterpolatingParam id="24" interp="linr"  time="-9999999/1" value="0" leadInLength="0/1"  interpolater="leadin-linr"  />
           <InterpolatingParam id="25" interp="linr"  time="-9999999/1" value="0" leadInLength="0/1"  interpolater="leadin-linr"  />
          </VectorParam>
          <VectorParam id="26"  name="shear">
           <InterpolatingParam id="27" interp="linr"  time="-9999999/1" value="0" leadInLength="0/1"  interpolater="leadin-linr"  />
           <InterpolatingParam id="28" interp="linr"  time="-9999999/1" value="0" leadInLength="0/1"  interpolater="leadin-linr"  />
           <InterpolatingParam id="29" interp="linr"  time="-9999999/1" value="0" leadInLength="0/1"  interpolater="leadin-linr"  />
          </VectorParam>
          <VectorParam id="30"  name="scale">
           <InterpolatingParam id="31" interp="linr"  time="-9999999/1" value="0.25" leadInLength="0/1"  interpolater="leadin-linr"  />
           <InterpolatingParam id="32" interp="linr"  time="-9999999/1" value="0.25" leadInLength="0/1"  interpolater="leadin-linr"  />
           <InterpolatingParam id="33" interp="linr"  time="-9999999/1" value="1" leadInLength="0/1"  interpolater="leadin-linr"  />
          </VectorParam>
          <VectorParam id="34"  name="anchor">
           <InterpolatingParam id="35" interp="linr"  time="0/1" value="0" leadInLength="0/1"  />
           <InterpolatingParam id="36" interp="linr"  time="0/1" value="0" leadInLength="0/1"  />
           <InterpolatingParam id="37" interp="linr"  time="0/1" value="0" leadInLength="0/1"  />
          </VectorParam>
         </Transformer>
         <Parameters>
          <VectorParam id="38"  name="sourceCrop">
           <InterpolatingParam id="39" interp="linr"  time="0/1" value="0" leadInLength="0/1"  />
           <InterpolatingParam id="40" interp="linr"  time="0/1" value="0" leadInLength="0/1"  />
           <InterpolatingParam id="41" interp="linr"  time="0/1" value="0" leadInLength="0/1"  />
           <InterpolatingParam id="42" interp="linr"  time="0/1" value="0" leadInLength="0/1"  />
          </VectorParam>
          <VectorParam id="43"  name="geometryCrop">
           <InterpolatingParam id="44" interp="linr"  time="-9999999/1" value="0" leadInLength="0/1"  interpolater="leadin-linr"  />
           <InterpolatingParam id="45" interp="linr"  time="-9999999/1" value="0" leadInLength="0/1"  interpolater="leadin-linr"  />
           <InterpolatingParam id="46" interp="linr"  time="-9999999/1" value="0" leadInLength="0/1"  interpolater="leadin-linr"  />
           <InterpolatingParam id="47" interp="linr"  time="-9999999/1" value="0" leadInLength="0/1"  interpolater="leadin-linr"  />
          </VectorParam>
          <InterpolatingParam id="48" interp="linr"  time="-9999999/1" value="1" leadInLength="0/1"  interpolater="leadin-linr"  name="opacity"/>
          <InterpolatingParam id="49" interp="linr"  time="0/1" value="1" leadInLength="0/1"  name="cursorOpacity"/>
          <InterpolatingParam id="50" interp="linr"  time="0/1" value="1" leadInLength="0/1"  name="cursorScale"/>
          <InterpolatingParam id="51" interp="linr"  time="0/1" value="1" leadInLength="0/1"  name="volume"/>
          <Parameter id="52"  name="captions"/>
         </Parameters>
         <Effects>
          <GenericEffect id="53" name = "NoiseReduction" >
           <Parameters>
           <InterpolatingParam id="54" interp="linr"  time="0/1" value="27.599999999999998" leadInLength="0/1"   name="denoiserAmount"/>
           <InterpolatingParam id="55" interp="linr"  time="0/1" value="2.2799999999999994" leadInLength="0/1"   name="denoiserThreshold"/>
           <Parameter id="56"   name="noiseProfile">
            <Keyframes>
            <Keyframe id="57"  time="0/1" value="FBAAAAIAAABErAAAAQIAAOgTPcL7jyPC5h8PwjtyFcKSBznCD18/wlimT8LvrFjClJdfwmYgYcI+&#xD;&#xa;fV/CjMdhws4yaMLMwWzCMDtvwmCKc8I/rXTCPEV3wiAVecKTxHfC2OV2wlOFdML0K3fCmJt5wjDj&#xD;&#xa;fMLMSnrC3NF8wvFhgcJlvIPCN+yFwhd9g8JrGoTCRVmEwrdhhcLTjoXCJD+Gwo8iiMJiKIrCriSK&#xD;&#xa;wn7TisL9v4vCxTGMwi0+jcKk8I3C93uOwiggjsKkzZDCG+uRwl0ak8Id05PCkRWUwhnsk8J93ZPC&#xD;&#xa;1dmTwlj1lMI6FpfCfUeYwrgXmMLIg5fC7S6YwlhNmcL1H5jCqW6ZwhOKmsJ/iJjCDHqZwoGOmcLo&#xD;&#xa;K5zClXWcwuNfmsLpWZjC0EGawsJim8IfeJ3CNnKfwrs3nsKvv5zC8h2cwlPknMKaVJ3C9MOdwtZa&#xD;&#xa;nsK795zC/SWcwv+3nMKECZ7CCmyewoJvncJyyJvCW5icwvk/nsIOfJ/CfvCdwhqgncLEXqDC2Cmh&#xD;&#xa;wi1xosIGyaLCqqSiwspjosL88aHCBmKkwjSVo8KgG6LCgd2gwiYroMI36KDCaCWjwoHCo8L1D6TC&#xD;&#xa;Cc+lwsi0pcK5L6TCY3uiwovEo8KYhqPCe4Ohwho3o8JicqPCf/mjwm09osIua6LCokWlwnZHpsKe&#xD;&#xa;1qTCmgOmwlY6psI4JKXCFJikwj/xosL685/CQ6afwtgVocIULKPC6i2lwtZSpsI94qPCMRiiwlzf&#xD;&#xa;ocKtY6PCwH2nwl6pqcKCM6nCBViowqaiqMLbHajCDJeowtgNqsLOzavC0z6qwlx9pcImBqPCubyi&#xD;&#xa;whgbo8LuXabCJnanwtb6o8JKiKDCGG2ewsygocI5+aPCl1WmwkQKqcLo7KjCYuSowgbnqMIq4KnC&#xD;&#xa;iOqnwtqGqMLSIavCjm+swgRhrMJ6tanCOt2mwsFTpMKAqKXC52ymwlq7qcKFxqzC0PWrwnfbp8L9&#xD;&#xa;QabCwtalwuRapsKo2KfCxkWqwlO9rMJMga7CyyWtwm+5q8LkbavCxIytwjZCr8Lal67Co3OuwnHB&#xD;&#xa;sMKEjrDChiuvwpyorsIWcK3CKLKrwiK7rMJGoq3CuGKswngfrMLJNKzCcGCrwnvZq8LyFKzCyumq&#xD;&#xa;woeJrMIv7K3CvhivwtFwsMJZvbDCtcCxwhJDs8JrsbLCFf+xwvS2ssKYLbHCZNuwwof1sML5+bDC&#xD;&#xa;Af6vwmItsMJy4bHCEBC0wmiltMLrl7HC706wwkU9r8LU06zCQsevwtprscIu6rDCNKOxwjquscLD&#xD;&#xa;PLHC9kCvwoycrsInUK/CQL2wwh/pscLofLHC6syvwnUdscLa0LLC0M+ywgZlscLT/rDCFKWvwkj8&#xD;&#xa;r8Lhca7CFPuqwtHRqMIl86nCQgyrwjg/rMIRiazCHuSswhXxrMLFP6zCxvCrwnVnq8IQtKvCoUiv&#xD;&#xa;wptvr8JHYq/CkhWtwnyprMIaXa3CCnWtwiaircKnnKzCYICrwi9SqcKIxafCMI+mwvblpMImOajC&#xD;&#xa;5A6rwrVIrMLOX67CNLCvwvL4rcJSnq7Czouswk06rcJ8HK/CmlWuwnF7rMKJK6zCZtOrwm7sq8Jr&#xD;&#xa;3KrCa3+rwqznq8JFJa7CcFGvwv75r8JRua7C5PetwsD8rsI3h67CVHetwrxIrcKexazCkAevws+Z&#xD;&#xa;rsLnRazCgpypwvZrqcJCwqvCav6twvLpr8LbQrHC6u2wwtpWr8LN2azC6/apwjppqcL2DqvCIjGr&#xD;&#xa;whZ5rMJT3qnC0CSqwr7FqcK6wqjCpNOowt3rqcJfO6vCVRKswgoYrMKxuqvCuK+pwltLqsIEPK3C&#xD;&#xa;B7Oswja6rMI8y63CQqytwtOercI/t63CWIyswsO/rMLIU63CQGWvwubHrsLNdK7CcHKtwlSiq8I7&#xD;&#xa;LqzC/m2uwuaPrsIAm7DCpqaxwsmIsMLCB7DC3fSwwrlzssKkCLHC6RyuwiUurMITrLLCUHK2wsum&#xD;&#xa;tMLd07PCPzi2wgIruMJ8FbjCqd+3wj3kt8LrKLbC6sezwkass8KLmrXCx4q2wgpOuMJInLjCSKe4&#xD;&#xa;wrQKucJ6rrnCtoW5woj7vMJQgr/CNmm+wm4zvsKVmL7C2gO/whQGvsIyRL7CQqC/wjZwwMJ/RsDC&#xD;&#xa;3HjBwj+vwsKpLsDCg3bAwoapwMIU8MDCfPPCwnz8xMKA5MTC9dTGwgAjyMLEmMjCjPrHwuCjyMJy&#xD;&#xa;FMnCdf3Jws9ZysKiMMrCmDfIwsrix8LytsfCeknHwolvycJ7KsjCfwbJwqKtx8Ii28bCtmTIwiTW&#xD;&#xa;x8I4FcnCmPjHwtfGx8LwxcbCUUnHwhxeyMKbPsnCfo3Kwlkby8KugczCohzMwiaoy8IZgsvC4nDM&#xD;&#xa;wtKTzMKgz8nCdszJwmqnx8Ko8sjC0A7LwtZJzcIIFsvC7/bKwpKPysLE0srCtM/OwrI90sLzItLC&#xD;&#xa;thXQwhgv0sIv8dHCeWrRwnS+0cJHH9PCZ+TVwnDH0sJ2cdPCKD/Xwl4d1cKK/NPCohXWwu2d2cK8&#xD;&#xa;BNzCRkDdwqpJ38JJJeLCakrjwhB64sKqv+DCRuXfwrp438IiQ9/CZFbewtxU3cLUDNzCVnrbwlYc&#xD;&#xa;28I6/NrCcpHbwqya3MIaCd7CzJjfwg6T4MIzvuDCIqzgwjzV4MKYfeLCHITkwiDQ5sJ2rujCCfvp&#xD;&#xa;wgqh6cI0XufCc4Llwqq75MKw3uTCqnDmwtK66MIMLOzCDJLswqn16cInGOfCrovkwswR48KA4OLC&#xD;&#xa;elHiwlwV4cKogt/C3I3rwgoUPcIEkCPC4B8PwjJyFcJcBznC8F4/wpemT8IVrVjCLZdfwp4hYcKv&#xD;&#xa;gV/CisphwkQzaMIkwmzCyztvwiyKc8JErHTCq0R3wsUUecILxHfCj+R2wlyEdMIFLHfCyJt5wlji&#xD;&#xa;fMJGSnrCodB8ws5hgcIgvYPCPu2FwkZ9g8JyGoTCwFiEwqlhhcIIkIXCj0CGwlAjiMJAKYrCISWK&#xD;&#xa;wrjTisIrv4vC9TCMwo89jcL9743CEHqOwtYejsIYzZDC4+uRwhMak8Lg05PCiBaUwuPrk8KW3JPC&#xD;&#xa;nNiTwgT4lMLTGpfCg0uYwhsZmMLug5fCGzCYwnBPmcKNIZjC4XGZwmaNmsKSjZjCsn6Zwg6TmcLo&#xD;&#xa;MJzCdnecwnxgmsJhW5jCoEOawhxnm8KDgZ3CGHyfwhI9nsLIxZzCBB+cwoLinMKTUJ3Cm8OdwrRj&#xD;&#xa;nsLO/5zCUjOcwh/CnMLzEJ7CIG+ewrZyncK+y5vC0p+cwiJDnsK6gJ/CfvKdwn6encJMX6DCxCqh&#xD;&#xa;wlhxosINyqLCN6KiwoxposJK/KHCUmmkwvObo8IvM6LCPu+gwnQzoMI58aDC6DmjwrHmo8IyJKTC&#xD;&#xa;0umlwovLpcJ0RqTCE4+iwqLRo8Lqo6PClo+hwlQ3o8LsgaPCshakwmxUosJ2d6LCMXalwuZ9psIY&#xD;&#xa;8qTCbgymwitYpsIuOaXCN7KkwicDo8L2AKDCuLSfwnQbocIcLKPCMEelwu52psLVBKTCRjCiwkTv&#xD;&#xa;ocJPXaPCOnenwmrVqcIAW6nCU4Kowpa9qMJHO6jCA6qowt4TqsIc0avC9l2qwpyapcISIKPCUs6i&#xD;&#xa;whk0o8KycKbCj4WnwjIcpMIBs6DClIqewnS/ocJCLaTCxYamwvkgqcLlAKnCtfGownbvqMJYBqrC&#xD;&#xa;FQGownKPqMLQUavCTrOsws2hrMIcBKrC+BmnwsOHpML9xKXC2KOmwnTiqcIYw6zCHRGswmcSqMLp&#xD;&#xa;cKbCVQKmwgp+psK37qfCp0GqwhvJrMLtt67C7FWtwpTnq8L+nqvC0tOtwn68r8I/A6/CWa+uwuzV&#xD;&#xa;sMLG3LDCZmqvwtC5rsJ8qa3CItmrwuvrrMLR4K3C1J6swt5OrMLocazC/JOrwpYFrMLMPqzCXS2r&#xD;&#xa;wtLKrMKkCq7CHEqvwjCesMLN37DCyQKywkB+s8IQJrPC3WWywpTussI8n7HClC+xwngnscKBBbHC&#xD;&#xa;OECwwmhtsMJCLbLCKmi0wnP/tMK6ALLCncmwwlqMr8JcCq3CfP2vwpCUscKeMbHCmdWxwqL2scL2&#xD;&#xa;qrHCk76vwrHZrsIoVq/CHdKwwlnqscLznrHCZeevwhsqscIeALPCaNiywkWIscJ3C7HCcZ2vwqTx&#xD;&#xa;r8JrlK7CgwGrwlHqqMKrFqrC4jCrwhpXrMKOqazC3ROtwp8ircJhSKzCuPWrwll7q8ItwqvCnl2v&#xD;&#xa;wkd/r8JKZq/C0C+twk/KrMJIdK3CpZKtwqOzrcJjs6zCAZirwiJaqcJC4qfCqK2mwl78pMLQSqjC&#xD;&#xa;ABCrwtZZrMJlba7C46yvwi0KrsI8t67CYJOswss4rcLpH6/C7WKuwqySrMIaQqzCnuWrwnwFrMKM&#xD;&#xa;6qrCF5Krwlb4q8KfMK7CMmKvwqsSsMLMw67Cvf+twuALr8Kunq7Co5mtwoVrrcJo56zCPSKvwgG1&#xD;&#xa;rsLSYKzCdqmpwvRyqcLBzavC+Amuwn/zr8LLXrHC/BCxwo50r8LG7qzChBGqwqqBqcLBKKvCvUmr&#xD;&#xa;wjB/rMLC2KnC1x+qwjbFqcJs1ajCb96owuPlqcJ0M6vCQRWswgYWrMIYuKvCIampwp9AqsKzL63C&#xD;&#xa;K6uswpGxrMLIwK3Ctp+twviWrcIOuK3CiJOswvfFrMIAVa3ClmGvwo3ErsKac67CJnWtwiirq8KW&#xD;&#xa;OazCVHKuwiyIrsKCk7DCKKaxwlSHsMI9/K/CMuywwkx4ssKTDLHCAhuuwn4mrMLHqbLCQXS2wu6b&#xD;&#xa;tMJaxrPCczS2wgM9uMJTIrjChOO3wlbdt8JxKrbCIMmzwh6us8LWn7XCWX62wrY/uMJUibjCpaC4&#xD;&#xa;wkgEucJuwrnCRnK5wijyvMIthL/CfVG+wrI1vsK4u77CDSO/wnowvsJ6VL7CTI+/wuplwMKkccDC&#xD;&#xa;PJjBwiaowsL6L8DC7pDAwvStwMLI2cDCGtbCwj7sxMKNycTC4srGwipIyMImt8jCnhTIwoKbyMK4&#xD;&#xa;FcnCKhDKwmhZysLmMMrCoyzIwk7Ex8Lsn8fCbEjHwlyLycL4J8jC1ADJwsbHx8Kc08bCfFnIwrC7&#xD;&#xa;x8Kuw8jCnbzHwlm2x8IcwcbCXDvHwoBkyMKuT8nCjorKwmgZy8Idk8zCgBrMwkZ2y8IhVsvCDmHM&#xD;&#xa;wjabzMJXw8nCqpfJwh6Ox8LUHsnCljXLwtxTzcKNGcvC3+DKwvWEysKSzMrCXKXOwpA/0sJxS9LC&#xD;&#xa;8TXQwpY00sL0E9LCilPRwiqE0cJ46dLCZ9XVwhoF08Ism9PCWZ3Xwm581cLcMNTC7kvWwqyi2cI0&#xD;&#xa;99vCkvbcwksc38LiVuHCMuTiwjT34cLUnuDCErLfwpRS38JYBN/CNO3dwvJP3cIgxdvC/FzbwnxA&#xD;&#xa;28LYJdvC+sTbwjCB3MJgG97Cx5nfwl7B4MKbBuHCoIbgwrgl4cI4j+LCzRvkwsY05sJaqOjCUozp&#xD;&#xa;wnCY6MIgZ+fCT/rlwrYG5cL93OTC6+TmwnLw6cIMne3C8CXuwsKt6sKMbefCwXTkwvOO48JRrOLC&#xD;&#xa;4i3hwho34MKvld/CQUbs" leadInLength="0/1"  />
            </Keyframes>
           </Parameter>
           </Parameters>
           <MetaData>
            <entry key="effectIndex" val="0"/>
           </MetaData>
          </GenericEffect>
         </Effects>
         <Attributes>
          <Attribute id="58" value="" name="ident"/>
          <Attribute id="59" value="0" name="mixToMono"/>
         </Attributes>
         <MetaData>
          <entry key="WinSubProjectDisplayName" val=""/>
         </MetaData>
         <ExtraData>
          <Entry key="ZoomPanBin">
           <ZoomPanBin id="60"  >
            <ZoomPanKeyframes>
             <ZoomPanKeyframe id="61" timeRangeEnd="-9999999/1" timeRangeDuration="0/1" interpolaterName="linr"  />
            </ZoomPanKeyframes>
           </ZoomPanBin>
          </Entry>
          <Entry key="CursorEffectBin">
           <CursorEffectBin id="62"  >
            <CursorEffectKeyframes>
            </CursorEffectKeyframes>
           </CursorEffectBin>
          </Entry>
         </ExtraData>
         <GenericTrack id="63"  >
          <Attributes>
           <Attribute id="64" value="" name="ident"/>
           <Attribute id="65" value="0" name="audioMuted"/>
           <Attribute id="66" value="0" name="videoHidden"/>
          </Attributes>
          <MetaData>
           <entry key="IsLocked" val="False"/>
           <entry key="WinTrackHeight" val="0"/>
          </MetaData>
          <Medias>
           <UnifiedMedia id="67"  >
            <AMFile id="68" start="0" duration="314" scalar="1/1" mediaStart="0/1" mediaDuration="314/1" trackNumber="2" src="4" channelNumber="0,1" >
             <Parameters>
              <InterpolatingParam id="69" interp="linr"  time="0/1" value="1" leadInLength="0/1"  name="volume"/>
              <Parameter id="70"  name="captions"/>
             </Parameters>
             <Attributes>
              <Attribute id="71" value="" name="ident"/>
              <Attribute id="72" value="44100" name="sampleRate"/>
              <Attribute id="73" value="16" name="bitDepth"/>
              <Attribute id="74" value="1" name="gain"/>
              <Attribute id="75" value="0" name="mixToMono"/>
             </Attributes>
            </AMFile>
            <VMFile id="76" start="0" duration="314" scalar="1/1" mediaStart="0/1" mediaDuration="314/1" trackNumber="1" src="4" >
             <Transformer>
              <VectorParam id="77"  name="translation">
               <InterpolatingParam id="78" interp="linr"  time="-9999999/1" value="0" leadInLength="0/1"  />
               <InterpolatingParam id="79" interp="linr"  time="-9999999/1" value="0" leadInLength="0/1"  />
               <InterpolatingParam id="80" interp="linr"  time="-9999999/1" value="0" leadInLength="0/1"  />
              </VectorParam>
              <VectorParam id="81"  name="rotation">
               <InterpolatingParam id="82" interp="linr"  time="-9999999/1" value="0" leadInLength="0/1"  />
               <InterpolatingParam id="83" interp="linr"  time="-9999999/1" value="0" leadInLength="0/1"  />
               <InterpolatingParam id="84" interp="linr"  time="-9999999/1" value="0" leadInLength="0/1"  />
              </VectorParam>
              <VectorParam id="85"  name="shear">
               <InterpolatingParam id="86" interp="linr"  time="-9999999/1" value="0" leadInLength="0/1"  />
               <InterpolatingParam id="87" interp="linr"  time="-9999999/1" value="0" leadInLength="0/1"  />
               <InterpolatingParam id="88" interp="linr"  time="-9999999/1" value="0" leadInLength="0/1"  />
              </VectorParam>
              <VectorParam id="89"  name="scale">
               <InterpolatingParam id="90" interp="linr"  time="-9999999/1" value="1" leadInLength="0/1"  />
               <InterpolatingParam id="91" interp="linr"  time="-9999999/1" value="1" leadInLength="0/1"  />
               <InterpolatingParam id="92" interp="linr"  time="-9999999/1" value="1" leadInLength="0/1"  />
              </VectorParam>
              <VectorParam id="93"  name="anchor">
               <InterpolatingParam id="94" interp="linr"  time="0/1" value="0" leadInLength="0/1"  />
               <InterpolatingParam id="95" interp="linr"  time="0/1" value="0" leadInLength="0/1"  />
               <InterpolatingParam id="96" interp="linr"  time="0/1" value="0" leadInLength="0/1"  />
              </VectorParam>
             </Transformer>
             <Parameters>
              <VectorParam id="97"  name="sourceCrop">
               <InterpolatingParam id="98" interp="linr"  time="0/1" value="0" leadInLength="0/1"  />
               <InterpolatingParam id="99" interp="linr"  time="0/1" value="0" leadInLength="0/1"  />
               <InterpolatingParam id="100" interp="linr"  time="0/1" value="0" leadInLength="0/1"  />
               <InterpolatingParam id="101" interp="linr"  time="0/1" value="0" leadInLength="0/1"  />
              </VectorParam>
              <VectorParam id="102"  name="geometryCrop">
               <InterpolatingParam id="103" interp="linr"  time="-9999999/1" value="0" leadInLength="0/1"  />
               <InterpolatingParam id="104" interp="linr"  time="-9999999/1" value="0" leadInLength="0/1"  />
               <InterpolatingParam id="105" interp="linr"  time="-9999999/1" value="0" leadInLength="0/1"  />
               <InterpolatingParam id="106" interp="linr"  time="-9999999/1" value="0" leadInLength="0/1"  />
              </VectorParam>
              <InterpolatingParam id="107" interp="linr"  time="-9999999/1" value="1" leadInLength="0/1"  name="opacity"/>
             </Parameters>
             <Attributes>
              <Attribute id="108" value="" name="ident"/>
             </Attributes>
             <ExtraData>
              <Entry key="ZoomPanBin">
               <ZoomPanBin id="109"  >
                <ZoomPanKeyframes>
                 <ZoomPanKeyframe id="110" timeRangeEnd="-9999999/1" timeRangeDuration="0/1" interpolaterName="linr"  />
                </ZoomPanKeyframes>
               </ZoomPanBin>
              </Entry>
             </ExtraData>
            </VMFile>
            <MetaData>
             <entry key="WinSubProjectDisplayName" val=""/>
            </MetaData>
           </UnifiedMedia>
           <UnifiedMedia id="111"  >
            <AMFile id="112" start="314" duration="581" scalar="1/1" mediaStart="352/1" mediaDuration="581/1" trackNumber="2" src="4" channelNumber="0,1" >
             <Parameters>
              <InterpolatingParam id="113" interp="linr"  time="0/1" value="1" leadInLength="0/1"  name="volume"/>
              <Parameter id="114"  name="captions"/>
             </Parameters>
             <Attributes>
              <Attribute id="115" value="" name="ident"/>
              <Attribute id="116" value="44100" name="sampleRate"/>
              <Attribute id="117" value="16" name="bitDepth"/>
              <Attribute id="118" value="1" name="gain"/>
              <Attribute id="119" value="0" name="mixToMono"/>
             </Attributes>
            </AMFile>
            <VMFile id="120" start="314" duration="581" scalar="1/1" mediaStart="352/1" mediaDuration="581/1" trackNumber="1" src="4" >
             <Transformer>
              <VectorParam id="121"  name="translation">
               <InterpolatingParam id="122" interp="linr"  time="-9999999/1" value="0" leadInLength="0/1"  />
               <InterpolatingParam id="123" interp="linr"  time="-9999999/1" value="0" leadInLength="0/1"  />
               <InterpolatingParam id="124" interp="linr"  time="-9999999/1" value="0" leadInLength="0/1"  />
              </VectorParam>
              <VectorParam id="125"  name="rotation">
               <InterpolatingParam id="126" interp="linr"  time="-9999999/1" value="0" leadInLength="0/1"  />
               <InterpolatingParam id="127" interp="linr"  time="-9999999/1" value="0" leadInLength="0/1"  />
               <InterpolatingParam id="128" interp="linr"  time="-9999999/1" value="0" leadInLength="0/1"  />
              </VectorParam>
              <VectorParam id="129"  name="shear">
               <InterpolatingParam id="130" interp="linr"  time="-9999999/1" value="0" leadInLength="0/1"  />
               <InterpolatingParam id="131" interp="linr"  time="-9999999/1" value="0" leadInLength="0/1"  />
               <InterpolatingParam id="132" interp="linr"  time="-9999999/1" value="0" leadInLength="0/1"  />
              </VectorParam>
              <VectorParam id="133"  name="scale">
               <InterpolatingParam id="134" interp="linr"  time="-9999999/1" value="1" leadInLength="0/1"  />
               <InterpolatingParam id="135" interp="linr"  time="-9999999/1" value="1" leadInLength="0/1"  />
               <InterpolatingParam id="136" interp="linr"  time="-9999999/1" value="1" leadInLength="0/1"  />
              </VectorParam>
              <VectorParam id="137"  name="anchor">
               <InterpolatingParam id="138" interp="linr"  time="0/1" value="0" leadInLength="0/1"  />
               <InterpolatingParam id="139" interp="linr"  time="0/1" value="0" leadInLength="0/1"  />
               <InterpolatingParam id="140" interp="linr"  time="0/1" value="0" leadInLength="0/1"  />
              </VectorParam>
             </Transformer>
             <Parameters>
              <VectorParam id="141"  name="sourceCrop">
               <InterpolatingParam id="142" interp="linr"  time="0/1" value="0" leadInLength="0/1"  />
               <InterpolatingParam id="143" interp="linr"  time="0/1" value="0" leadInLength="0/1"  />
               <InterpolatingParam id="144" interp="linr"  time="0/1" value="0" leadInLength="0/1"  />
               <InterpolatingParam id="145" interp="linr"  time="0/1" value="0" leadInLength="0/1"  />
              </VectorParam>
              <VectorParam id="146"  name="geometryCrop">
               <InterpolatingParam id="147" interp="linr"  time="-9999999/1" value="0" leadInLength="0/1"  />
               <InterpolatingParam id="148" interp="linr"  time="-9999999/1" value="0" leadInLength="0/1"  />
               <InterpolatingParam id="149" interp="linr"  time="-9999999/1" value="0" leadInLength="0/1"  />
               <InterpolatingParam id="150" interp="linr"  time="-9999999/1" value="0" leadInLength="0/1"  />
              </VectorParam>
              <InterpolatingParam id="151" interp="linr"  time="-9999999/1" value="1" leadInLength="0/1"  name="opacity"/>
             </Parameters>
             <Attributes>
              <Attribute id="152" value="" name="ident"/>
             </Attributes>
             <ExtraData>
              <Entry key="ZoomPanBin">
               <ZoomPanBin id="153"  >
                <ZoomPanKeyframes>
                 <ZoomPanKeyframe id="154" timeRangeEnd="-9999999/1" timeRangeDuration="0/1" interpolaterName="linr"  />
                </ZoomPanKeyframes>
               </ZoomPanBin>
              </Entry>
             </ExtraData>
            </VMFile>
            <MetaData>
             <entry key="WinSubProjectDisplayName" val=""/>
            </MetaData>
           </UnifiedMedia>
           <UnifiedMedia id="155"  >
            <AMFile id="156" start="895" duration="1448" scalar="1/1" mediaStart="1141/1" mediaDuration="1448/1" trackNumber="2" src="4" channelNumber="0,1" >
             <Parameters>
              <InterpolatingParam id="157" interp="linr"  time="0/1" value="1" leadInLength="0/1"  name="volume"/>
              <Parameter id="158"  name="captions"/>
             </Parameters>
             <Attributes>
              <Attribute id="159" value="" name="ident"/>
              <Attribute id="160" value="44100" name="sampleRate"/>
              <Attribute id="161" value="16" name="bitDepth"/>
              <Attribute id="162" value="1" name="gain"/>
              <Attribute id="163" value="0" name="mixToMono"/>
             </Attributes>
            </AMFile>
            <VMFile id="164" start="895" duration="1448" scalar="1/1" mediaStart="1141/1" mediaDuration="1448/1" trackNumber="1" src="4" >
             <Transformer>
              <VectorParam id="165"  name="translation">
               <InterpolatingParam id="166" interp="linr"  time="-9999999/1" value="0" leadInLength="0/1"  />
               <InterpolatingParam id="167" interp="linr"  time="-9999999/1" value="0" leadInLength="0/1"  />
               <InterpolatingParam id="168" interp="linr"  time="-9999999/1" value="0" leadInLength="0/1"  />
              </VectorParam>
              <VectorParam id="169"  name="rotation">
               <InterpolatingParam id="170" interp="linr"  time="-9999999/1" value="0" leadInLength="0/1"  />
               <InterpolatingParam id="171" interp="linr"  time="-9999999/1" value="0" leadInLength="0/1"  />
               <InterpolatingParam id="172" interp="linr"  time="-9999999/1" value="0" leadInLength="0/1"  />
              </VectorParam>
              <VectorParam id="173"  name="shear">
               <InterpolatingParam id="174" interp="linr"  time="-9999999/1" value="0" leadInLength="0/1"  />
               <InterpolatingParam id="175" interp="linr"  time="-9999999/1" value="0" leadInLength="0/1"  />
               <InterpolatingParam id="176" interp="linr"  time="-9999999/1" value="0" leadInLength="0/1"  />
              </VectorParam>
              <VectorParam id="177"  name="scale">
               <InterpolatingParam id="178" interp="linr"  time="-9999999/1" value="1" leadInLength="0/1"  />
               <InterpolatingParam id="179" interp="linr"  time="-9999999/1" value="1" leadInLength="0/1"  />
               <InterpolatingParam id="180" interp="linr"  time="-9999999/1" value="1" leadInLength="0/1"  />
              </VectorParam>
              <VectorParam id="181"  name="anchor">
               <InterpolatingParam id="182" interp="linr"  time="0/1" value="0" leadInLength="0/1"  />
               <InterpolatingParam id="183" interp="linr"  time="0/1" value="0" leadInLength="0/1"  />
               <InterpolatingParam id="184" interp="linr"  time="0/1" value="0" leadInLength="0/1"  />
              </VectorParam>
             </Transformer>
             <Parameters>
              <VectorParam id="185"  name="sourceCrop">
               <InterpolatingParam id="186" interp="linr"  time="0/1" value="0" leadInLength="0/1"  />
               <InterpolatingParam id="187" interp="linr"  time="0/1" value="0" leadInLength="0/1"  />
               <InterpolatingParam id="188" interp="linr"  time="0/1" value="0" leadInLength="0/1"  />
               <InterpolatingParam id="189" interp="linr"  time="0/1" value="0" leadInLength="0/1"  />
              </VectorParam>
              <VectorParam id="190"  name="geometryCrop">
               <InterpolatingParam id="191" interp="linr"  time="-9999999/1" value="0" leadInLength="0/1"  />
               <InterpolatingParam id="192" interp="linr"  time="-9999999/1" value="0" leadInLength="0/1"  />
               <InterpolatingParam id="193" interp="linr"  time="-9999999/1" value="0" leadInLength="0/1"  />
               <InterpolatingParam id="194" interp="linr"  time="-9999999/1" value="0" leadInLength="0/1"  />
              </VectorParam>
              <InterpolatingParam id="195" interp="linr"  time="-9999999/1" value="1" leadInLength="0/1"  name="opacity"/>
             </Parameters>
             <Attributes>
              <Attribute id="196" value="" name="ident"/>
             </Attributes>
             <ExtraData>
              <Entry key="ZoomPanBin">
               <ZoomPanBin id="197"  >
                <ZoomPanKeyframes>
                 <ZoomPanKeyframe id="198" timeRangeEnd="-9999999/1" timeRangeDuration="0/1" interpolaterName="linr"  />
                </ZoomPanKeyframes>
               </ZoomPanBin>
              </Entry>
             </ExtraData>
            </VMFile>
            <MetaData>
             <entry key="WinSubProjectDisplayName" val=""/>
            </MetaData>
           </UnifiedMedia>
           <UnifiedMedia id="199"  >
            <AMFile id="200" start="2343" duration="89" scalar="1/1" mediaStart="2630/1" mediaDuration="89/1" trackNumber="2" src="4" channelNumber="0,1" >
             <Parameters>
              <InterpolatingParam id="201" interp="linr"  time="0/1" value="1" leadInLength="0/1"  name="volume"/>
              <Parameter id="202"  name="captions"/>
             </Parameters>
             <Attributes>
              <Attribute id="203" value="" name="ident"/>
              <Attribute id="204" value="44100" name="sampleRate"/>
              <Attribute id="205" value="16" name="bitDepth"/>
              <Attribute id="206" value="1" name="gain"/>
              <Attribute id="207" value="0" name="mixToMono"/>
             </Attributes>
            </AMFile>
            <VMFile id="208" start="2343" duration="89" scalar="1/1" mediaStart="2630/1" mediaDuration="89/1" trackNumber="1" src="4" >
             <Transformer>
              <VectorParam id="209"  name="translation">
               <InterpolatingParam id="210" interp="linr"  time="-9999999/1" value="0" leadInLength="0/1"  />
               <InterpolatingParam id="211" interp="linr"  time="-9999999/1" value="0" leadInLength="0/1"  />
               <InterpolatingParam id="212" interp="linr"  time="-9999999/1" value="0" leadInLength="0/1"  />
              </VectorParam>
              <VectorParam id="213"  name="rotation">
               <InterpolatingParam id="214" interp="linr"  time="-9999999/1" value="0" leadInLength="0/1"  />
               <InterpolatingParam id="215" interp="linr"  time="-9999999/1" value="0" leadInLength="0/1"  />
               <InterpolatingParam id="216" interp="linr"  time="-9999999/1" value="0" leadInLength="0/1"  />
              </VectorParam>
              <VectorParam id="217"  name="shear">
               <InterpolatingParam id="218" interp="linr"  time="-9999999/1" value="0" leadInLength="0/1"  />
               <InterpolatingParam id="219" interp="linr"  time="-9999999/1" value="0" leadInLength="0/1"  />
               <InterpolatingParam id="220" interp="linr"  time="-9999999/1" value="0" leadInLength="0/1"  />
              </VectorParam>
              <VectorParam id="221"  name="scale">
               <InterpolatingParam id="222" interp="linr"  time="-9999999/1" value="1" leadInLength="0/1"  />
               <InterpolatingParam id="223" interp="linr"  time="-9999999/1" value="1" leadInLength="0/1"  />
               <InterpolatingParam id="224" interp="linr"  time="-9999999/1" value="1" leadInLength="0/1"  />
              </VectorParam>
              <VectorParam id="225"  name="anchor">
               <InterpolatingParam id="226" interp="linr"  time="0/1" value="0" leadInLength="0/1"  />
               <InterpolatingParam id="227" interp="linr"  time="0/1" value="0" leadInLength="0/1"  />
               <InterpolatingParam id="228" interp="linr"  time="0/1" value="0" leadInLength="0/1"  />
              </VectorParam>
             </Transformer>
             <Parameters>
              <VectorParam id="229"  name="sourceCrop">
               <InterpolatingParam id="230" interp="linr"  time="0/1" value="0" leadInLength="0/1"  />
               <InterpolatingParam id="231" interp="linr"  time="0/1" value="0" leadInLength="0/1"  />
               <InterpolatingParam id="232" interp="linr"  time="0/1" value="0" leadInLength="0/1"  />
               <InterpolatingParam id="233" interp="linr"  time="0/1" value="0" leadInLength="0/1"  />
              </VectorParam>
              <VectorParam id="234"  name="geometryCrop">
               <InterpolatingParam id="235" interp="linr"  time="-9999999/1" value="0" leadInLength="0/1"  />
               <InterpolatingParam id="236" interp="linr"  time="-9999999/1" value="0" leadInLength="0/1"  />
               <InterpolatingParam id="237" interp="linr"  time="-9999999/1" value="0" leadInLength="0/1"  />
               <InterpolatingParam id="238" interp="linr"  time="-9999999/1" value="0" leadInLength="0/1"  />
              </VectorParam>
              <InterpolatingParam id="239" interp="linr"  time="-9999999/1" value="1" leadInLength="0/1"  name="opacity"/>
             </Parameters>
             <Attributes>
              <Attribute id="240" value="" name="ident"/>
             </Attributes>
             <ExtraData>
              <Entry key="ZoomPanBin">
               <ZoomPanBin id="241"  >
                <ZoomPanKeyframes>
                 <ZoomPanKeyframe id="242" timeRangeEnd="-9999999/1" timeRangeDuration="0/1" interpolaterName="linr"  />
                </ZoomPanKeyframes>
               </ZoomPanBin>
              </Entry>
             </ExtraData>
            </VMFile>
            <MetaData>
             <entry key="WinSubProjectDisplayName" val=""/>
            </MetaData>
           </UnifiedMedia>
           <UnifiedMedia id="243"  >
            <AMFile id="244" start="2432" duration="72" scalar="1/1" mediaStart="2854/1" mediaDuration="72/1" trackNumber="2" src="4" channelNumber="0,1" >
             <Parameters>
              <InterpolatingParam id="245" interp="linr"  time="0/1" value="1" leadInLength="0/1"  name="volume"/>
              <Parameter id="246"  name="captions"/>
             </Parameters>
             <Attributes>
              <Attribute id="247" value="" name="ident"/>
              <Attribute id="248" value="44100" name="sampleRate"/>
              <Attribute id="249" value="16" name="bitDepth"/>
              <Attribute id="250" value="1" name="gain"/>
              <Attribute id="251" value="0" name="mixToMono"/>
             </Attributes>
            </AMFile>
            <VMFile id="252" start="2432" duration="72" scalar="1/1" mediaStart="2854/1" mediaDuration="72/1" trackNumber="1" src="4" >
             <Transformer>
              <VectorParam id="253"  name="translation">
               <InterpolatingParam id="254" interp="linr"  time="-9999999/1" value="0" leadInLength="0/1"  />
               <InterpolatingParam id="255" interp="linr"  time="-9999999/1" value="0" leadInLength="0/1"  />
               <InterpolatingParam id="256" interp="linr"  time="-9999999/1" value="0" leadInLength="0/1"  />
              </VectorParam>
              <VectorParam id="257"  name="rotation">
               <InterpolatingParam id="258" interp="linr"  time="-9999999/1" value="0" leadInLength="0/1"  />
               <InterpolatingParam id="259" interp="linr"  time="-9999999/1" value="0" leadInLength="0/1"  />
               <InterpolatingParam id="260" interp="linr"  time="-9999999/1" value="0" leadInLength="0/1"  />
              </VectorParam>
              <VectorParam id="261"  name="shear">
               <InterpolatingParam id="262" interp="linr"  time="-9999999/1" value="0" leadInLength="0/1"  />
               <InterpolatingParam id="263" interp="linr"  time="-9999999/1" value="0" leadInLength="0/1"  />
               <InterpolatingParam id="264" interp="linr"  time="-9999999/1" value="0" leadInLength="0/1"  />
              </VectorParam>
              <VectorParam id="265"  name="scale">
               <InterpolatingParam id="266" interp="linr"  time="-9999999/1" value="1" leadInLength="0/1"  />
               <InterpolatingParam id="267" interp="linr"  time="-9999999/1" value="1" leadInLength="0/1"  />
               <InterpolatingParam id="268" interp="linr"  time="-9999999/1" value="1" leadInLength="0/1"  />
              </VectorParam>
              <VectorParam id="269"  name="anchor">
               <InterpolatingParam id="270" interp="linr"  time="0/1" value="0" leadInLength="0/1"  />
               <InterpolatingParam id="271" interp="linr"  time="0/1" value="0" leadInLength="0/1"  />
               <InterpolatingParam id="272" interp="linr"  time="0/1" value="0" leadInLength="0/1"  />
              </VectorParam>
             </Transformer>
             <Parameters>
              <VectorParam id="273"  name="sourceCrop">
               <InterpolatingParam id="274" interp="linr"  time="0/1" value="0" leadInLength="0/1"  />
               <InterpolatingParam id="275" interp="linr"  time="0/1" value="0" leadInLength="0/1"  />
               <InterpolatingParam id="276" interp="linr"  time="0/1" value="0" leadInLength="0/1"  />
               <InterpolatingParam id="277" interp="linr"  time="0/1" value="0" leadInLength="0/1"  />
              </VectorParam>
              <VectorParam id="278"  name="geometryCrop">
               <InterpolatingParam id="279" interp="linr"  time="-9999999/1" value="0" leadInLength="0/1"  />
               <InterpolatingParam id="280" interp="linr"  time="-9999999/1" value="0" leadInLength="0/1"  />
               <InterpolatingParam id="281" interp="linr"  time="-9999999/1" value="0" leadInLength="0/1"  />
               <InterpolatingParam id="282" interp="linr"  time="-9999999/1" value="0" leadInLength="0/1"  />
              </VectorParam>
              <InterpolatingParam id="283" interp="linr"  time="-9999999/1" value="1" leadInLength="0/1"  name="opacity"/>
             </Parameters>
             <Attributes>
              <Attribute id="284" value="" name="ident"/>
             </Attributes>
             <ExtraData>
              <Entry key="ZoomPanBin">
               <ZoomPanBin id="285"  >
                <ZoomPanKeyframes>
                 <ZoomPanKeyframe id="286" timeRangeEnd="-9999999/1" timeRangeDuration="0/1" interpolaterName="linr"  />
                </ZoomPanKeyframes>
               </ZoomPanBin>
              </Entry>
             </ExtraData>
            </VMFile>
            <MetaData>
             <entry key="WinSubProjectDisplayName" val=""/>
            </MetaData>
           </UnifiedMedia>
           <UnifiedMedia id="287"  >
            <AMFile id="288" start="2504" duration="1" scalar="1/1" mediaStart="3357/1" mediaDuration="1/1" trackNumber="2" src="4" channelNumber="0,1" >
             <Parameters>
              <InterpolatingParam id="289" interp="linr"  time="0/1" value="1" leadInLength="0/1"  name="volume"/>
              <Parameter id="290"  name="captions"/>
             </Parameters>
             <Attributes>
              <Attribute id="291" value="" name="ident"/>
              <Attribute id="292" value="44100" name="sampleRate"/>
              <Attribute id="293" value="16" name="bitDepth"/>
              <Attribute id="294" value="1" name="gain"/>
              <Attribute id="295" value="0" name="mixToMono"/>
             </Attributes>
            </AMFile>
            <VMFile id="296" start="2504" duration="1" scalar="1/1" mediaStart="3357/1" mediaDuration="1/1" trackNumber="1" src="4" >
             <Transformer>
              <VectorParam id="297"  name="translation">
               <InterpolatingParam id="298" interp="linr"  time="-9999999/1" value="0" leadInLength="0/1"  />
               <InterpolatingParam id="299" interp="linr"  time="-9999999/1" value="0" leadInLength="0/1"  />
               <InterpolatingParam id="300" interp="linr"  time="-9999999/1" value="0" leadInLength="0/1"  />
              </VectorParam>
              <VectorParam id="301"  name="rotation">
               <InterpolatingParam id="302" interp="linr"  time="-9999999/1" value="0" leadInLength="0/1"  />
               <InterpolatingParam id="303" interp="linr"  time="-9999999/1" value="0" leadInLength="0/1"  />
               <InterpolatingParam id="304" interp="linr"  time="-9999999/1" value="0" leadInLength="0/1"  />
              </VectorParam>
              <VectorParam id="305"  name="shear">
               <InterpolatingParam id="306" interp="linr"  time="-9999999/1" value="0" leadInLength="0/1"  />
               <InterpolatingParam id="307" interp="linr"  time="-9999999/1" value="0" leadInLength="0/1"  />
               <InterpolatingParam id="308" interp="linr"  time="-9999999/1" value="0" leadInLength="0/1"  />
              </VectorParam>
              <VectorParam id="309"  name="scale">
               <InterpolatingParam id="310" interp="linr"  time="-9999999/1" value="1" leadInLength="0/1"  />
               <InterpolatingParam id="311" interp="linr"  time="-9999999/1" value="1" leadInLength="0/1"  />
               <InterpolatingParam id="312" interp="linr"  time="-9999999/1" value="1" leadInLength="0/1"  />
              </VectorParam>
              <VectorParam id="313"  name="anchor">
               <InterpolatingParam id="314" interp="linr"  time="0/1" value="0" leadInLength="0/1"  />
               <InterpolatingParam id="315" interp="linr"  time="0/1" value="0" leadInLength="0/1"  />
               <InterpolatingParam id="316" interp="linr"  time="0/1" value="0" leadInLength="0/1"  />
              </VectorParam>
             </Transformer>
             <Parameters>
              <VectorParam id="317"  name="sourceCrop">
               <InterpolatingParam id="318" interp="linr"  time="0/1" value="0" leadInLength="0/1"  />
               <InterpolatingParam id="319" interp="linr"  time="0/1" value="0" leadInLength="0/1"  />
               <InterpolatingParam id="320" interp="linr"  time="0/1" value="0" leadInLength="0/1"  />
               <InterpolatingParam id="321" interp="linr"  time="0/1" value="0" leadInLength="0/1"  />
              </VectorParam>
              <VectorParam id="322"  name="geometryCrop">
               <InterpolatingParam id="323" interp="linr"  time="-9999999/1" value="0" leadInLength="0/1"  />
               <InterpolatingParam id="324" interp="linr"  time="-9999999/1" value="0" leadInLength="0/1"  />
               <InterpolatingParam id="325" interp="linr"  time="-9999999/1" value="0" leadInLength="0/1"  />
               <InterpolatingParam id="326" interp="linr"  time="-9999999/1" value="0" leadInLength="0/1"  />
              </VectorParam>
              <InterpolatingParam id="327" interp="linr"  time="-9999999/1" value="1" leadInLength="0/1"  name="opacity"/>
             </Parameters>
             <Attributes>
              <Attribute id="328" value="" name="ident"/>
             </Attributes>
             <ExtraData>
              <Entry key="ZoomPanBin">
               <ZoomPanBin id="329"  >
                <ZoomPanKeyframes>
                 <ZoomPanKeyframe id="330" timeRangeEnd="-9999999/1" timeRangeDuration="0/1" interpolaterName="linr"  />
                </ZoomPanKeyframes>
               </ZoomPanBin>
              </Entry>
             </ExtraData>
            </VMFile>
            <MetaData>
             <entry key="WinSubProjectDisplayName" val=""/>
            </MetaData>
           </UnifiedMedia>
           <UnifiedMedia id="331"  >
            <AMFile id="332" start="2505" duration="497" scalar="1/1" mediaStart="3647/1" mediaDuration="497/1" trackNumber="2" src="4" channelNumber="0,1" >
             <Parameters>
              <InterpolatingParam id="333" interp="linr"  time="0/1" value="1" leadInLength="0/1"  name="volume"/>
              <Parameter id="334"  name="captions"/>
             </Parameters>
             <Attributes>
              <Attribute id="335" value="" name="ident"/>
              <Attribute id="336" value="44100" name="sampleRate"/>
              <Attribute id="337" value="16" name="bitDepth"/>
              <Attribute id="338" value="1" name="gain"/>
              <Attribute id="339" value="0" name="mixToMono"/>
             </Attributes>
            </AMFile>
            <VMFile id="340" start="2505" duration="497" scalar="1/1" mediaStart="3647/1" mediaDuration="497/1" trackNumber="1" src="4" >
             <Transformer>
              <VectorParam id="341"  name="translation">
               <InterpolatingParam id="342" interp="linr"  time="-9999999/1" value="0" leadInLength="0/1"  />
               <InterpolatingParam id="343" interp="linr"  time="-9999999/1" value="0" leadInLength="0/1"  />
               <InterpolatingParam id="344" interp="linr"  time="-9999999/1" value="0" leadInLength="0/1"  />
              </VectorParam>
              <VectorParam id="345"  name="rotation">
               <InterpolatingParam id="346" interp="linr"  time="-9999999/1" value="0" leadInLength="0/1"  />
               <InterpolatingParam id="347" interp="linr"  time="-9999999/1" value="0" leadInLength="0/1"  />
               <InterpolatingParam id="348" interp="linr"  time="-9999999/1" value="0" leadInLength="0/1"  />
              </VectorParam>
              <VectorParam id="349"  name="shear">
               <InterpolatingParam id="350" interp="linr"  time="-9999999/1" value="0" leadInLength="0/1"  />
               <InterpolatingParam id="351" interp="linr"  time="-9999999/1" value="0" leadInLength="0/1"  />
               <InterpolatingParam id="352" interp="linr"  time="-9999999/1" value="0" leadInLength="0/1"  />
              </VectorParam>
              <VectorParam id="353"  name="scale">
               <InterpolatingParam id="354" interp="linr"  time="-9999999/1" value="1" leadInLength="0/1"  />
               <InterpolatingParam id="355" interp="linr"  time="-9999999/1" value="1" leadInLength="0/1"  />
               <InterpolatingParam id="356" interp="linr"  time="-9999999/1" value="1" leadInLength="0/1"  />
              </VectorParam>
              <VectorParam id="357"  name="anchor">
               <InterpolatingParam id="358" interp="linr"  time="0/1" value="0" leadInLength="0/1"  />
               <InterpolatingParam id="359" interp="linr"  time="0/1" value="0" leadInLength="0/1"  />
               <InterpolatingParam id="360" interp="linr"  time="0/1" value="0" leadInLength="0/1"  />
              </VectorParam>
             </Transformer>
             <Parameters>
              <VectorParam id="361"  name="sourceCrop">
               <InterpolatingParam id="362" interp="linr"  time="0/1" value="0" leadInLength="0/1"  />
               <InterpolatingParam id="363" interp="linr"  time="0/1" value="0" leadInLength="0/1"  />
               <InterpolatingParam id="364" interp="linr"  time="0/1" value="0" leadInLength="0/1"  />
               <InterpolatingParam id="365" interp="linr"  time="0/1" value="0" leadInLength="0/1"  />
              </VectorParam>
              <VectorParam id="366"  name="geometryCrop">
               <InterpolatingParam id="367" interp="linr"  time="-9999999/1" value="0" leadInLength="0/1"  />
               <InterpolatingParam id="368" interp="linr"  time="-9999999/1" value="0" leadInLength="0/1"  />
               <InterpolatingParam id="369" interp="linr"  time="-9999999/1" value="0" leadInLength="0/1"  />
               <InterpolatingParam id="370" interp="linr"  time="-9999999/1" value="0" leadInLength="0/1"  />
              </VectorParam>
              <InterpolatingParam id="371" interp="linr"  time="-9999999/1" value="1" leadInLength="0/1"  name="opacity"/>
             </Parameters>
             <Attributes>
              <Attribute id="372" value="" name="ident"/>
             </Attributes>
             <ExtraData>
              <Entry key="ZoomPanBin">
               <ZoomPanBin id="373"  >
                <ZoomPanKeyframes>
                 <ZoomPanKeyframe id="374" timeRangeEnd="-9999999/1" timeRangeDuration="0/1" interpolaterName="linr"  />
                </ZoomPanKeyframes>
               </ZoomPanBin>
              </Entry>
             </ExtraData>
            </VMFile>
            <MetaData>
             <entry key="WinSubProjectDisplayName" val=""/>
            </MetaData>
           </UnifiedMedia>
           <UnifiedMedia id="375"  >
            <AMFile id="376" start="3002" duration="63" scalar="1/1" mediaStart="4355/1" mediaDuration="63/1" trackNumber="2" src="4" channelNumber="0,1" >
             <Parameters>
              <InterpolatingParam id="377" interp="linr"  time="0/1" value="1" leadInLength="0/1"  name="volume"/>
              <Parameter id="378"  name="captions"/>
             </Parameters>
             <Attributes>
              <Attribute id="379" value="" name="ident"/>
              <Attribute id="380" value="44100" name="sampleRate"/>
              <Attribute id="381" value="16" name="bitDepth"/>
              <Attribute id="382" value="1" name="gain"/>
              <Attribute id="383" value="0" name="mixToMono"/>
             </Attributes>
            </AMFile>
            <VMFile id="384" start="3002" duration="63" scalar="1/1" mediaStart="4355/1" mediaDuration="63/1" trackNumber="1" src="4" >
             <Transformer>
              <VectorParam id="385"  name="translation">
               <InterpolatingParam id="386" interp="linr"  time="-9999999/1" value="0" leadInLength="0/1"  />
               <InterpolatingParam id="387" interp="linr"  time="-9999999/1" value="0" leadInLength="0/1"  />
               <InterpolatingParam id="388" interp="linr"  time="-9999999/1" value="0" leadInLength="0/1"  />
              </VectorParam>
              <VectorParam id="389"  name="rotation">
               <InterpolatingParam id="390" interp="linr"  time="-9999999/1" value="0" leadInLength="0/1"  />
               <InterpolatingParam id="391" interp="linr"  time="-9999999/1" value="0" leadInLength="0/1"  />
               <InterpolatingParam id="392" interp="linr"  time="-9999999/1" value="0" leadInLength="0/1"  />
              </VectorParam>
              <VectorParam id="393"  name="shear">
               <InterpolatingParam id="394" interp="linr"  time="-9999999/1" value="0" leadInLength="0/1"  />
               <InterpolatingParam id="395" interp="linr"  time="-9999999/1" value="0" leadInLength="0/1"  />
               <InterpolatingParam id="396" interp="linr"  time="-9999999/1" value="0" leadInLength="0/1"  />
              </VectorParam>
              <VectorParam id="397"  name="scale">
               <InterpolatingParam id="398" interp="linr"  time="-9999999/1" value="1" leadInLength="0/1"  />
               <InterpolatingParam id="399" interp="linr"  time="-9999999/1" value="1" leadInLength="0/1"  />
               <InterpolatingParam id="400" interp="linr"  time="-9999999/1" value="1" leadInLength="0/1"  />
              </VectorParam>
              <VectorParam id="401"  name="anchor">
               <InterpolatingParam id="402" interp="linr"  time="0/1" value="0" leadInLength="0/1"  />
               <InterpolatingParam id="403" interp="linr"  time="0/1" value="0" leadInLength="0/1"  />
               <InterpolatingParam id="404" interp="linr"  time="0/1" value="0" leadInLength="0/1"  />
              </VectorParam>
             </Transformer>
             <Parameters>
              <VectorParam id="405"  name="sourceCrop">
               <InterpolatingParam id="406" interp="linr"  time="0/1" value="0" leadInLength="0/1"  />
               <InterpolatingParam id="407" interp="linr"  time="0/1" value="0" leadInLength="0/1"  />
               <InterpolatingParam id="408" interp="linr"  time="0/1" value="0" leadInLength="0/1"  />
               <InterpolatingParam id="409" interp="linr"  time="0/1" value="0" leadInLength="0/1"  />
              </VectorParam>
              <VectorParam id="410"  name="geometryCrop">
               <InterpolatingParam id="411" interp="linr"  time="-9999999/1" value="0" leadInLength="0/1"  />
               <InterpolatingParam id="412" interp="linr"  time="-9999999/1" value="0" leadInLength="0/1"  />
               <InterpolatingParam id="413" interp="linr"  time="-9999999/1" value="0" leadInLength="0/1"  />
               <InterpolatingParam id="414" interp="linr"  time="-9999999/1" value="0" leadInLength="0/1"  />
              </VectorParam>
              <InterpolatingParam id="415" interp="linr"  time="-9999999/1" value="1" leadInLength="0/1"  name="opacity"/>
             </Parameters>
             <Attributes>
              <Attribute id="416" value="" name="ident"/>
             </Attributes>
             <ExtraData>
              <Entry key="ZoomPanBin">
               <ZoomPanBin id="417"  >
                <ZoomPanKeyframes>
                 <ZoomPanKeyframe id="418" timeRangeEnd="-9999999/1" timeRangeDuration="0/1" interpolaterName="linr"  />
                </ZoomPanKeyframes>
               </ZoomPanBin>
              </Entry>
             </ExtraData>
            </VMFile>
            <MetaData>
             <entry key="WinSubProjectDisplayName" val=""/>
            </MetaData>
           </UnifiedMedia>
           <UnifiedMedia id="419"  >
            <AMFile id="420" start="3065" duration="681" scalar="1/1" mediaStart="4446/1" mediaDuration="681/1" trackNumber="2" src="4" channelNumber="0,1" >
             <Parameters>
              <InterpolatingParam id="421" interp="linr"  time="0/1" value="1" leadInLength="0/1"  name="volume"/>
              <Parameter id="422"  name="captions"/>
             </Parameters>
             <Attributes>
              <Attribute id="423" value="" name="ident"/>
              <Attribute id="424" value="44100" name="sampleRate"/>
              <Attribute id="425" value="16" name="bitDepth"/>
              <Attribute id="426" value="1" name="gain"/>
              <Attribute id="427" value="0" name="mixToMono"/>
             </Attributes>
            </AMFile>
            <VMFile id="428" start="3065" duration="681" scalar="1/1" mediaStart="4446/1" mediaDuration="681/1" trackNumber="1" src="4" >
             <Transformer>
              <VectorParam id="429"  name="translation">
               <InterpolatingParam id="430" interp="linr"  time="-9999999/1" value="0" leadInLength="0/1"  />
               <InterpolatingParam id="431" interp="linr"  time="-9999999/1" value="0" leadInLength="0/1"  />
               <InterpolatingParam id="432" interp="linr"  time="-9999999/1" value="0" leadInLength="0/1"  />
              </VectorParam>
              <VectorParam id="433"  name="rotation">
               <InterpolatingParam id="434" interp="linr"  time="-9999999/1" value="0" leadInLength="0/1"  />
               <InterpolatingParam id="435" interp="linr"  time="-9999999/1" value="0" leadInLength="0/1"  />
               <InterpolatingParam id="436" interp="linr"  time="-9999999/1" value="0" leadInLength="0/1"  />
              </VectorParam>
              <VectorParam id="437"  name="shear">
               <InterpolatingParam id="438" interp="linr"  time="-9999999/1" value="0" leadInLength="0/1"  />
               <InterpolatingParam id="439" interp="linr"  time="-9999999/1" value="0" leadInLength="0/1"  />
               <InterpolatingParam id="440" interp="linr"  time="-9999999/1" value="0" leadInLength="0/1"  />
              </VectorParam>
              <VectorParam id="441"  name="scale">
               <InterpolatingParam id="442" interp="linr"  time="-9999999/1" value="1" leadInLength="0/1"  />
               <InterpolatingParam id="443" interp="linr"  time="-9999999/1" value="1" leadInLength="0/1"  />
               <InterpolatingParam id="444" interp="linr"  time="-9999999/1" value="1" leadInLength="0/1"  />
              </VectorParam>
              <VectorParam id="445"  name="anchor">
               <InterpolatingParam id="446" interp="linr"  time="0/1" value="0" leadInLength="0/1"  />
               <InterpolatingParam id="447" interp="linr"  time="0/1" value="0" leadInLength="0/1"  />
               <InterpolatingParam id="448" interp="linr"  time="0/1" value="0" leadInLength="0/1"  />
              </VectorParam>
             </Transformer>
             <Parameters>
              <VectorParam id="449"  name="sourceCrop">
               <InterpolatingParam id="450" interp="linr"  time="0/1" value="0" leadInLength="0/1"  />
               <InterpolatingParam id="451" interp="linr"  time="0/1" value="0" leadInLength="0/1"  />
               <InterpolatingParam id="452" interp="linr"  time="0/1" value="0" leadInLength="0/1"  />
               <InterpolatingParam id="453" interp="linr"  time="0/1" value="0" leadInLength="0/1"  />
              </VectorParam>
              <VectorParam id="454"  name="geometryCrop">
               <InterpolatingParam id="455" interp="linr"  time="-9999999/1" value="0" leadInLength="0/1"  />
               <InterpolatingParam id="456" interp="linr"  time="-9999999/1" value="0" leadInLength="0/1"  />
               <InterpolatingParam id="457" interp="linr"  time="-9999999/1" value="0" leadInLength="0/1"  />
               <InterpolatingParam id="458" interp="linr"  time="-9999999/1" value="0" leadInLength="0/1"  />
              </VectorParam>
              <InterpolatingParam id="459" interp="linr"  time="-9999999/1" value="1" leadInLength="0/1"  name="opacity"/>
             </Parameters>
             <Attributes>
              <Attribute id="460" value="" name="ident"/>
             </Attributes>
             <ExtraData>
              <Entry key="ZoomPanBin">
               <ZoomPanBin id="461"  >
                <ZoomPanKeyframes>
                 <ZoomPanKeyframe id="462" timeRangeEnd="-9999999/1" timeRangeDuration="0/1" interpolaterName="linr"  />
                </ZoomPanKeyframes>
               </ZoomPanBin>
              </Entry>
             </ExtraData>
            </VMFile>
            <MetaData>
             <entry key="WinSubProjectDisplayName" val=""/>
            </MetaData>
           </UnifiedMedia>
          </Medias>
         </GenericTrack>
        </StitchedMedia>
        <StitchedMedia id="463" start="3574" duration="886" scalar="1/1" mediaStart="46/1" mediaDuration="886/1" minMediaStart="0/1" >
         <Transformer>
          <VectorParam id="464"  name="translation">
           <InterpolatingParam id="465" interp="linr"  time="-9999999/1" value="402.00000000013745" leadInLength="0/1"  />
           <InterpolatingParam id="466" interp="linr"  time="-9999999/1" value="-300.00000000016337" leadInLength="0/1"  />
           <InterpolatingParam id="467" interp="linr"  time="-9999999/1" value="0" leadInLength="0/1"  />
          </VectorParam>
          <VectorParam id="468"  name="rotation">
           <InterpolatingParam id="469" interp="linr"  time="-9999999/1" value="0" leadInLength="0/1"  />
           <InterpolatingParam id="470" interp="linr"  time="-9999999/1" value="0" leadInLength="0/1"  />
           <InterpolatingParam id="471" interp="linr"  time="-9999999/1" value="0" leadInLength="0/1"  />
          </VectorParam>
          <VectorParam id="472"  name="shear">
           <InterpolatingParam id="473" interp="linr"  time="-9999999/1" value="0" leadInLength="0/1"  />
           <InterpolatingParam id="474" interp="linr"  time="-9999999/1" value="0" leadInLength="0/1"  />
           <InterpolatingParam id="475" interp="linr"  time="-9999999/1" value="0" leadInLength="0/1"  />
          </VectorParam>
          <VectorParam id="476"  name="scale">
           <InterpolatingParam id="477" interp="linr"  time="-9999999/1" value="0.25" leadInLength="0/1"  />
           <InterpolatingParam id="478" interp="linr"  time="-9999999/1" value="0.25" leadInLength="0/1"  />
           <InterpolatingParam id="479" interp="linr"  time="-9999999/1" value="1" leadInLength="0/1"  />
          </VectorParam>
          <VectorParam id="480"  name="anchor">
           <InterpolatingParam id="481" interp="linr"  time="0/1" value="0" leadInLength="0/1"  />
           <InterpolatingParam id="482" interp="linr"  time="0/1" value="0" leadInLength="0/1"  />
           <InterpolatingParam id="483" interp="linr"  time="0/1" value="0" leadInLength="0/1"  />
          </VectorParam>
         </Transformer>
         <Parameters>
          <VectorParam id="484"  name="sourceCrop">
           <InterpolatingParam id="485" interp="linr"  time="0/1" value="0" leadInLength="0/1"  />
           <InterpolatingParam id="486" interp="linr"  time="0/1" value="0" leadInLength="0/1"  />
           <InterpolatingParam id="487" interp="linr"  time="0/1" value="0" leadInLength="0/1"  />
           <InterpolatingParam id="488" interp="linr"  time="0/1" value="0" leadInLength="0/1"  />
          </VectorParam>
          <VectorParam id="489"  name="geometryCrop">
           <InterpolatingParam id="490" interp="linr"  time="-9999999/1" value="0" leadInLength="0/1"  />
           <InterpolatingParam id="491" interp="linr"  time="-9999999/1" value="0" leadInLength="0/1"  />
           <InterpolatingParam id="492" interp="linr"  time="-9999999/1" value="0" leadInLength="0/1"  />
           <InterpolatingParam id="493" interp="linr"  time="-9999999/1" value="0" leadInLength="0/1"  />
          </VectorParam>
          <InterpolatingParam id="494" interp="linr"  time="-9999999/1" value="1" leadInLength="0/1"  name="opacity"/>
          <InterpolatingParam id="495" interp="linr"  time="0/1" value="1" leadInLength="0/1"  name="cursorOpacity"/>
          <InterpolatingParam id="496" interp="linr"  time="0/1" value="1" leadInLength="0/1"  name="cursorScale"/>
          <InterpolatingParam id="497" interp="linr"  time="0/1" value="1" leadInLength="0/1"  name="volume"/>
          <Parameter id="498"  name="captions"/>
         </Parameters>
         <Effects>
          <GenericEffect id="499" name = "NoiseReduction" >
           <Parameters>
           <InterpolatingParam id="500" interp="linr"  time="0/1" value="27.599999999999998" leadInLength="0/1"   name="denoiserAmount"/>
           <InterpolatingParam id="501" interp="linr"  time="0/1" value="2.2799999999999994" leadInLength="0/1"   name="denoiserThreshold"/>
           <Parameter id="502"   name="noiseProfile">
            <Keyframes>
            <Keyframe id="503"  time="0/1" value="FBAAAAIAAABErAAAAQIAAKa3TMLojCvCmgIYwoiXIMLOC0LCqvtDwj4rTsJ/H1jC/Bxcwo+cVsJx&#xD;&#xa;YlXCZ79fwj+aa8Jb0WrC1oZrwq2ZbcLStW7Cn7x3wrLOfcLhl4DCixl7wmaZc8Ig+HDCYrRwwrTg&#xD;&#xa;d8LLhnbCOOV6wopzfsJ6K4PCGjeDwrmFg8JmpoPCV3+DwgrYhMJ1hoLCEZSGwlMHiMK9tYnCstOJ&#xD;&#xa;wnNli8K7NovCNgGMwmHAjMIUXI7CsRySwvOYlsLEgJTCRxuWwmqsmcJZgZbCet+UwgMyk8IJBpXC&#xD;&#xa;at6Uwrg6ksJIr5bCssiUwv65l8LOrJrCKvSXwjZol8LHgJrC1z+dwmxEnMLq3ZnCu7GawtOkncKv&#xD;&#xa;CpzCFmCewjkpnsKWS5/C7eGiwtNVo8Lx96TCCTWjwuYJocJWmKHCP2akws6+osLbJaLC5AOfwqRx&#xD;&#xa;nsLe26DCVfCewu+1nsIK8p3CUCOewjp9nsI6G6PCtXaiwhg4nsIVA53CjCuZwl8LlsJb5JbCUIiX&#xD;&#xa;wh6OmcIQWZrC9bWfwuCOosL86aLCZ/Ciwv8oocJM8aHCgm+jwpBPosI+t6PCr8ihwtHxosKM36PC&#xD;&#xa;apmlwgMCp8Ln+qbCNbGnwqekqML7h6bCcouhwrIppcLrZKfCAj6rwuH/q8KkWarCsG+qwnQErMKe&#xD;&#xa;hq3Ci+WrwsroqcL6H63ClhixwnjCssITQrHC6/Ovwjvpr8KlSK/CnLyxwlWEr8JjUq3CSlSuwiBr&#xD;&#xa;rcKMvqvCWoitwhr3rsI+Na7CDsCuwpJ+rML6W63C8Beuwq7ur8LTbLLCRE6wwrG2r8I88a7C8X2w&#xD;&#xa;wh9os8KnyLTC64a0wqTrscJeAq/CmUKrwvH4qMLY7aPC+v2iwrtnocJOrp/CN2CiwuA/pMKLjqPC&#xD;&#xa;sVilwt1tp8JUU6bCFYymwoJCp8KsOqnCFhSqwjAFrMId1qzChTqvwmn1ssJEp7PCQLa0woaAtMIe&#xD;&#xa;IbTCM6WxwnrCssL5e7PCd3WywplissIjorTChLGzwp3ssMLOf7DCiIuzwtOhs8JbzLPCnMizwiBk&#xD;&#xa;sML6ALLCCha2wuCxtcL5JbbCekW1woiUtcI+1bbC6aWzwjxJs8KWKrbC4ga4whIftsL0ZbXCDBe0&#xD;&#xa;wsSotsIIlrbCJra2woXJs8IFUbTCqoi2wvkptsJ7qLXCAPqzws5KssIXk7LCJjC0wswdtcKeGrXC&#xD;&#xa;bNW0wrk4tsK08LbCzyi4wvZgs8IsubHCPaCwwtjtrcLbn63Cvy+vwiaqrcJqRK3CbMSvwsABssL6&#xD;&#xa;TLTC4m61wrmUt8LsCrXCvKm1wuret8K6lbnCrBW5wk6Ft8J8urfCkZyzwnKys8LrGbTCP8uzwkpl&#xD;&#xa;tMKDNbXCJly0wqT3r8LCQ7HCVe60wnJktMLV5bTCWLuzwmvBs8J4N7PC0+qvwucNssLk47HChOWv&#xD;&#xa;whc+sMIMY6/CuAqwwn0BscJL3LHC7zexwg5Kr8IbTa7C3n+swurCrcJWa6/CjjWtwnOGrcKBgq7C&#xD;&#xa;8SWrwsXyq8LhyK3CPOirwqt8rcJj9azCJJWtwlcZrcJG3a3CqOSuwl5YrsKwtK/CvkqwwgRJr8K0&#xD;&#xa;h67CBiOxwgFBsMJJDLHCipOvwvSsrsKOe6zCIberwmyJq8JLIqzCFCOtwktBrMKYmazCyvSswgwT&#xD;&#xa;rMKyqqzCVg+uwjcZrMI8DKzChgOtwtAPrsLsDq7CrCmvwnwysMJeP67CEk2vwoSXsMKYrq3Cylau&#xD;&#xa;wlJorsKzhq3C7uSuwk7+rcKJs6/C0KOwwvMjsMJf+KzCixquwiZ9r8IMT7HCyNy1woaVtcIRuLPC&#xD;&#xa;T4izwvlRtMJbwrPCqziywj8PscLD/bHCFzazwhR+tMJhM7fCYGa3wuw4ssJN1rLCH9K0woVdscJg&#xD;&#xa;i7LCvnS2wnEluMLGWbXC2z64whirusIUDbnCFFa4wvTBucICErrCzOexwjxzrcJ0grTCqXe2wlXi&#xD;&#xa;s8KB+LPCZci2whantcIqt7TC4fW1wshGucKmMrbCP1G1wqcxtcJEB7XCDw+2wmRSuMIj77jCBPq6&#xD;&#xa;wiE9u8L/8LnChIi5wgALucJeEbrCEvO9wmUdvsIHxbjChyu6wrezu8KWTL7C9p69wqtMv8J2h8HC&#xD;&#xa;sBnBwpaxxMLGLMPCGe7Aws4jwsIUI8HCjAy+wtAVv8LdArzCEH+7wi4Lu8KYWrnCFse2wlpKtcIE&#xD;&#xa;z7TCR7e0wi7/scJiUrHC/NexwgfOssJAH7TCCuOzwiBrs8IQHbbC/p24wiHDtsJwtrfCLn+1wjk9&#xD;&#xa;tcIruLbCjF24wtSVuMI86rjCyNO3wh/ztsI08rnCBG66wkFNu8KoDrvCbpO3wt5VtsIMgrjCLBC5&#xD;&#xa;wr5dtsJdzrXCwfezwuJ8s8KpUrXCBpO0wlCrs8Jd+LPCduGzwpystsLIpbjC3gW1wvADt8IgGLzC&#xD;&#xa;JDC8wkBoucK9F7jCQNW4wtTjuMJg7bjCOIy3wmi4uMIOu7nCsOe4wjTSucJQV7rC6oq4woDTusKc&#xD;&#xa;JL7CJI+8wjM0vsIOyL7CkKO+wqZRwMI8JMPCvFvDwpFUxcK+PsXCT4HFwrz0xsLQp8bCkDHFwkRG&#xD;&#xa;x8LC18rCFTTLwtSfzcLQ8M3CpI/OwqoKzcIcQs7Cod3LwqTLy8JQoczCSlHMwiRF0MKfjNHCLG/Q&#xD;&#xa;wsSC0cIImdHCCo3Rwna41MIIitTCqK3Vwh/j18IxrNfCcA3bwsCt28Jr+d/ChSHmwrIO5cKk693C&#xD;&#xa;IPDcwiAG38KX+9zCnNrswv63TMLijCvCnwIYwpeXIMIfDELCd/xDwporTsLYHljCehtcwrqcVsK0&#xD;&#xa;Y1XClMFfwrOva8JR7GrC0ZRrwoqYbcLNs27CJrp3worNfcIrmIDCahh7woSXc8KD93DC97Nwwujg&#xD;&#xa;d8IkinbCTOZ6wvxyfsL8K4PCZDiDwvGFg8J/poPCG4CDwhTZhMLghoLC3JKGwmQGiMLssonCjM+J&#xD;&#xa;wpRli8IlOovCPgKMwhC/jMJrWo7CERiSwiWZlsK4g5TCGh6WwvytmcJagZbCyd6Uwhczk8LnCpXC&#xD;&#xa;sOCUwj46ksKor5bCvMWUwlC4l8J+r5rC2PGXwsNnl8JCgprC0EGdwlZDnMK64JnC5ryawtyuncIK&#xD;&#xa;E5zC2W2ewrBAnsIAXp/Cvveiwrpoo8KjDqXCyUajwtQ/ocLQyqHCR3CkwqziosKpa6LCxAefwupo&#xD;&#xa;nsL03KDCkvSewi28nsKq9Z3C+iOewsiAnsKeOKPCNKeiwiFensKYG53Cn1WZwokwlsJoBpfCaq6X&#xD;&#xa;woeymcKFdprCx9OfwvS0osJs+6LC6Cqjwl1docKZKKLCsZijwsZdosIgy6PCcRCiwhlbo8JLI6TC&#xD;&#xa;MuWlwjFbp8JRKqfCpMOnwvvZqMKMtqbCIK2hwvdLpcI6mqfCzmmrwibrq8KqUKrC2nCqwoxGrML4&#xD;&#xa;463CcxCswl3ZqcK0bq3CJoaxwsots8LRyLHCFGSwwog6sMJplq/C1sexwmKAr8K4kK3CJtGuwvKk&#xD;&#xa;rcJv06vCCYitwhj+rsKoPa7CJNOuwtzMrMJZbK3CMGeuwl2HsMIB1bLCj3GwwiTar8J+1a7C5Daw&#xD;&#xa;wl+os8LCPLXCRfi0wt0fssIS7a7Cq4KrwmKiqcKoX6TCWlOjwm+KocLztZ/CAG6iwt5ypMJeqaPC&#xD;&#xa;sG6lwkOHp8LYmqbC0+amwsPNp8KUaKnCj0Wqwhs7rMKP66zC1nOvwp8Rs8KcH7TC9eC0wko4tMJ9&#xD;&#xa;6rPC6gKywiBCs8I3LbTC+uCywl4wssLek7TCAs+zwrEEscJ9trDCWtCzwuSAs8Kym7PCns+zws+d&#xD;&#xa;sMLjELLCTxq2wkN3tcIwxbXCZA21wtOAtcI8zLbCz92zwpGSs8JqSrbCCgi4wnr5tcKIlrXCJE+0&#xD;&#xa;whrVtsLBBbfCP+a2wnDDs8J8HrTC6im2wrIhtsIAOrbCJGm0wsKSssIgrLLCvnq0wsJqtcI4GrXC&#xD;&#xa;SE21wtZKtsLc87bCPZi3wglAs8IPubHC976wwp0yrsKQ863CWBqvwvCGrcK1Yq3CngCwwhFfssIf&#xD;&#xa;XLTCA4u1wmtyt8J4IrXCFq61wvNUuMLvy7nCMEu5wkMPuMKQS7jCBvezwhK5s8IEG7TC9s2zwu9R&#xD;&#xa;tMKZgrXCHKa0wtI5sMImnLHCBBu1wnbEtMImQLXC6Oyzwv35s8LOarPC7fSvwmYTssKZ0bHCb9Kv&#xD;&#xa;wowtsML6Zq/CSRiwwn8PscK+BbLC8Eixwi1Pr8KeQK7CJH+swiq7rcIMcK/CODWtwmKLrcLilq7C&#xD;&#xa;zyyrwkDuq8LR0K3Cp+qrwjdrrcLMA63CItitwlpUrcKU5K3CyteuwmpKrsKEsq/ChFewwkRir8Ii&#xD;&#xa;o67Cx0axwuNRsMINF7HCHpivwmObrsKmfKzChsyrwrSXq8JbIazCLRGtwrU8rMIBmazCSvWswqAY&#xD;&#xa;rMLUq6zCsQOuwsQKrMKrBqzCG/uswi4jrsI0Dq7C1h2vwoYrsMKdRK7CvE6vwhaSsMITua3CAmGu&#xD;&#xa;wshgrsK2e63CTdyuwnX9rcKava/CUqawwpArsMKv/KzCYhWuwkxqr8JuX7HCkgG2wsjDtcI2n7PC&#xD;&#xa;y3uzwmBjtMJxw7PCUUiywkIascJg7rHCijKzwk6RtMIyZ7fCxoG3woA3ssKtzbLCQe60wilzscLf&#xD;&#xa;n7LCBn62wr0MuMJeYbXCVjm4wryiusLVArnCi3K4wjLiucK0CbrCFeyxwkp7rcKLfrTCSki2wjXN&#xD;&#xa;s8Js6bPCbNC2woKmtcI4zLTCAde1wk4XucLLF7bCxGm1wv9JtcKgArXCeB62wslluMIa+bjC1dm6&#xD;&#xa;wllFu8IG9LnCWYS5whoiucIMH7rC5va9wpQLvsL2vrjCjxy6wjSPu8JQOL7COJ69whBFv8JEdMHC&#xD;&#xa;aAPBwsXHxMI/JMPCqM/AwqIZwsKyH8HCLPa9wloCv8La97vC0Xu7wnYUu8LcRrnCCMW2wthRtcIe&#xD;&#xa;1LTCkru0wtoHssIYXLHC2dexwt/OssLdMbTCYOuzwhhps8ImCrbCRJO4wqr8tsIgxrfCHoC1wkl8&#xD;&#xa;tcItu7bCZFG4wt6ZuMKK6rjCkM+3wkYXt8Ki9LnCs1y6wtkiu8KY4rrC7pS3wlhntsKvgbjCZyi5&#xD;&#xa;wqlntsJ757XCQAy0wvtws8K6ObXCg4y0wrS1s8IE+7PC59izwrqZtsLMhbjCuv+0wmIpt8LpF7zC&#xD;&#xa;IC+8wm5yucKcH7jCjsa4whXYuMIG/rjCeZm3wmjWuMJY3LnC0vO4wvi9ucK7dLrCUpu4wlDpusJO&#xD;&#xa;J77CEmi8wkcovsKsvL7C/KC+whpZwMK4V8PC+GXDwsJFxcKCNcXCsF3FwgqwxsI7psbCcR3FwkBQ&#xD;&#xa;x8K87crCWFXLwsLPzcJhVs7C4YjOwuYwzcK6VM7Ca/TLwirZy8Ibu8zC6GfMwiYF0MIP9dHCBMnQ&#xD;&#xa;wtdz0cKzZtHCpIPRwhxE1cIMttTC4j/Vwqcq2MIz49bCooTawtiL28Kiq+DCjCjowhFO5cIUNt7C&#xD;&#xa;ELXdwnaK38Lqp93CoCDt" leadInLength="0/1"  />
            </Keyframes>
           </Parameter>
           </Parameters>
           <MetaData>
            <entry key="effectIndex" val="0"/>
           </MetaData>
          </GenericEffect>
         </Effects>
         <Attributes>
          <Attribute id="504" value="" name="ident"/>
          <Attribute id="505" value="0" name="mixToMono"/>
         </Attributes>
         <MetaData>
          <entry key="WinSubProjectDisplayName" val=""/>
         </MetaData>
         <ExtraData>
          <Entry key="ZoomPanBin">
           <ZoomPanBin id="506"  >
            <ZoomPanKeyframes>
             <ZoomPanKeyframe id="507" timeRangeEnd="-9999999/1" timeRangeDuration="0/1" interpolaterName="linr"  />
            </ZoomPanKeyframes>
           </ZoomPanBin>
          </Entry>
          <Entry key="CursorEffectBin">
           <CursorEffectBin id="508"  >
            <CursorEffectKeyframes>
            </CursorEffectKeyframes>
           </CursorEffectBin>
          </Entry>
         </ExtraData>
         <GenericTrack id="509"  >
          <Attributes>
           <Attribute id="510" value="" name="ident"/>
           <Attribute id="511" value="0" name="audioMuted"/>
           <Attribute id="512" value="0" name="videoHidden"/>
          </Attributes>
          <MetaData>
           <entry key="IsLocked" val="False"/>
           <entry key="WinTrackHeight" val="0"/>
          </MetaData>
          <Medias>
           <UnifiedMedia id="513"  >
            <AMFile id="514" start="0" duration="797" scalar="1/1" mediaStart="0/1" mediaDuration="797/1" trackNumber="2" src="5" channelNumber="0,1" >
             <Parameters>
              <InterpolatingParam id="515" interp="linr"  time="0/1" value="1" leadInLength="0/1"  name="volume"/>
              <Parameter id="516"  name="captions"/>
             </Parameters>
             <Attributes>
              <Attribute id="517" value="" name="ident"/>
              <Attribute id="518" value="44100" name="sampleRate"/>
              <Attribute id="519" value="16" name="bitDepth"/>
              <Attribute id="520" value="1" name="gain"/>
              <Attribute id="521" value="0" name="mixToMono"/>
             </Attributes>
            </AMFile>
            <VMFile id="522" start="0" duration="797" scalar="1/1" mediaStart="0/1" mediaDuration="797/1" trackNumber="1" src="5" >
             <Transformer>
              <VectorParam id="523"  name="translation">
               <InterpolatingParam id="524" interp="linr"  time="-9999999/1" value="0" leadInLength="0/1"  />
               <InterpolatingParam id="525" interp="linr"  time="-9999999/1" value="0" leadInLength="0/1"  />
               <InterpolatingParam id="526" interp="linr"  time="-9999999/1" value="0" leadInLength="0/1"  />
              </VectorParam>
              <VectorParam id="527"  name="rotation">
               <InterpolatingParam id="528" interp="linr"  time="-9999999/1" value="0" leadInLength="0/1"  />
               <InterpolatingParam id="529" interp="linr"  time="-9999999/1" value="0" leadInLength="0/1"  />
               <InterpolatingParam id="530" interp="linr"  time="-9999999/1" value="0" leadInLength="0/1"  />
              </VectorParam>
              <VectorParam id="531"  name="shear">
               <InterpolatingParam id="532" interp="linr"  time="-9999999/1" value="0" leadInLength="0/1"  />
               <InterpolatingParam id="533" interp="linr"  time="-9999999/1" value="0" leadInLength="0/1"  />
               <InterpolatingParam id="534" interp="linr"  time="-9999999/1" value="0" leadInLength="0/1"  />
              </VectorParam>
              <VectorParam id="535"  name="scale">
               <InterpolatingParam id="536" interp="linr"  time="-9999999/1" value="1" leadInLength="0/1"  />
               <InterpolatingParam id="537" interp="linr"  time="-9999999/1" value="1" leadInLength="0/1"  />
               <InterpolatingParam id="538" interp="linr"  time="-9999999/1" value="1" leadInLength="0/1"  />
              </VectorParam>
              <VectorParam id="539"  name="anchor">
               <InterpolatingParam id="540" interp="linr"  time="0/1" value="0" leadInLength="0/1"  />
               <InterpolatingParam id="541" interp="linr"  time="0/1" value="0" leadInLength="0/1"  />
               <InterpolatingParam id="542" interp="linr"  time="0/1" value="0" leadInLength="0/1"  />
              </VectorParam>
             </Transformer>
             <Parameters>
              <VectorParam id="543"  name="sourceCrop">
               <InterpolatingParam id="544" interp="linr"  time="0/1" value="0" leadInLength="0/1"  />
               <InterpolatingParam id="545" interp="linr"  time="0/1" value="0" leadInLength="0/1"  />
               <InterpolatingParam id="546" interp="linr"  time="0/1" value="0" leadInLength="0/1"  />
               <InterpolatingParam id="547" interp="linr"  time="0/1" value="0" leadInLength="0/1"  />
              </VectorParam>
              <VectorParam id="548"  name="geometryCrop">
               <InterpolatingParam id="549" interp="linr"  time="-9999999/1" value="0" leadInLength="0/1"  />
               <InterpolatingParam id="550" interp="linr"  time="-9999999/1" value="0" leadInLength="0/1"  />
               <InterpolatingParam id="551" interp="linr"  time="-9999999/1" value="0" leadInLength="0/1"  />
               <InterpolatingParam id="552" interp="linr"  time="-9999999/1" value="0" leadInLength="0/1"  />
              </VectorParam>
              <InterpolatingParam id="553" interp="linr"  time="-9999999/1" value="1" leadInLength="0/1"  name="opacity"/>
             </Parameters>
             <Attributes>
              <Attribute id="554" value="" name="ident"/>
             </Attributes>
             <ExtraData>
              <Entry key="ZoomPanBin">
               <ZoomPanBin id="555"  >
                <ZoomPanKeyframes>
                 <ZoomPanKeyframe id="556" timeRangeEnd="-9999999/1" timeRangeDuration="0/1" interpolaterName="linr"  />
                </ZoomPanKeyframes>
               </ZoomPanBin>
              </Entry>
             </ExtraData>
            </VMFile>
            <MetaData>
             <entry key="WinSubProjectDisplayName" val=""/>
            </MetaData>
           </UnifiedMedia>
           <UnifiedMedia id="557"  >
            <AMFile id="558" start="797" duration="135" scalar="1/1" mediaStart="907/1" mediaDuration="135/1" trackNumber="2" src="5" channelNumber="0,1" >
             <Parameters>
              <InterpolatingParam id="559" interp="linr"  time="0/1" value="1" leadInLength="0/1"  name="volume"/>
              <Parameter id="560"  name="captions"/>
             </Parameters>
             <Attributes>
              <Attribute id="561" value="" name="ident"/>
              <Attribute id="562" value="44100" name="sampleRate"/>
              <Attribute id="563" value="16" name="bitDepth"/>
              <Attribute id="564" value="1" name="gain"/>
              <Attribute id="565" value="0" name="mixToMono"/>
             </Attributes>
            </AMFile>
            <VMFile id="566" start="797" duration="135" scalar="1/1" mediaStart="907/1" mediaDuration="135/1" trackNumber="1" src="5" >
             <Transformer>
              <VectorParam id="567"  name="translation">
               <InterpolatingParam id="568" interp="linr"  time="-9999999/1" value="0" leadInLength="0/1"  />
               <InterpolatingParam id="569" interp="linr"  time="-9999999/1" value="0" leadInLength="0/1"  />
               <InterpolatingParam id="570" interp="linr"  time="-9999999/1" value="0" leadInLength="0/1"  />
              </VectorParam>
              <VectorParam id="571"  name="rotation">
               <InterpolatingParam id="572" interp="linr"  time="-9999999/1" value="0" leadInLength="0/1"  />
               <InterpolatingParam id="573" interp="linr"  time="-9999999/1" value="0" leadInLength="0/1"  />
               <InterpolatingParam id="574" interp="linr"  time="-9999999/1" value="0" leadInLength="0/1"  />
              </VectorParam>
              <VectorParam id="575"  name="shear">
               <InterpolatingParam id="576" interp="linr"  time="-9999999/1" value="0" leadInLength="0/1"  />
               <InterpolatingParam id="577" interp="linr"  time="-9999999/1" value="0" leadInLength="0/1"  />
               <InterpolatingParam id="578" interp="linr"  time="-9999999/1" value="0" leadInLength="0/1"  />
              </VectorParam>
              <VectorParam id="579"  name="scale">
               <InterpolatingParam id="580" interp="linr"  time="-9999999/1" value="1" leadInLength="0/1"  />
               <InterpolatingParam id="581" interp="linr"  time="-9999999/1" value="1" leadInLength="0/1"  />
               <InterpolatingParam id="582" interp="linr"  time="-9999999/1" value="1" leadInLength="0/1"  />
              </VectorParam>
              <VectorParam id="583"  name="anchor">
               <InterpolatingParam id="584" interp="linr"  time="0/1" value="0" leadInLength="0/1"  />
               <InterpolatingParam id="585" interp="linr"  time="0/1" value="0" leadInLength="0/1"  />
               <InterpolatingParam id="586" interp="linr"  time="0/1" value="0" leadInLength="0/1"  />
              </VectorParam>
             </Transformer>
             <Parameters>
              <VectorParam id="587"  name="sourceCrop">
               <InterpolatingParam id="588" interp="linr"  time="0/1" value="0" leadInLength="0/1"  />
               <InterpolatingParam id="589" interp="linr"  time="0/1" value="0" leadInLength="0/1"  />
               <InterpolatingParam id="590" interp="linr"  time="0/1" value="0" leadInLength="0/1"  />
               <InterpolatingParam id="591" interp="linr"  time="0/1" value="0" leadInLength="0/1"  />
              </VectorParam>
              <VectorParam id="592"  name="geometryCrop">
               <InterpolatingParam id="593" interp="linr"  time="-9999999/1" value="0" leadInLength="0/1"  />
               <InterpolatingParam id="594" interp="linr"  time="-9999999/1" value="0" leadInLength="0/1"  />
               <InterpolatingParam id="595" interp="linr"  time="-9999999/1" value="0" leadInLength="0/1"  />
               <InterpolatingParam id="596" interp="linr"  time="-9999999/1" value="0" leadInLength="0/1"  />
              </VectorParam>
              <InterpolatingParam id="597" interp="linr"  time="-9999999/1" value="1" leadInLength="0/1"  name="opacity"/>
             </Parameters>
             <Attributes>
              <Attribute id="598" value="" name="ident"/>
             </Attributes>
             <ExtraData>
              <Entry key="ZoomPanBin">
               <ZoomPanBin id="599"  >
                <ZoomPanKeyframes>
                 <ZoomPanKeyframe id="600" timeRangeEnd="-9999999/1" timeRangeDuration="0/1" interpolaterName="linr"  />
                </ZoomPanKeyframes>
               </ZoomPanBin>
              </Entry>
             </ExtraData>
            </VMFile>
            <MetaData>
             <entry key="WinSubProjectDisplayName" val=""/>
            </MetaData>
           </UnifiedMedia>
          </Medias>
         </GenericTrack>
        </StitchedMedia>
        <StitchedMedia id="601" start="4465" duration="5386" scalar="1/1" mediaStart="0/1" mediaDuration="5386/1" minMediaStart="0/1" >
         <Transformer>
          <VectorParam id="602"  name="translation">
           <InterpolatingParam id="603" interp="linr"  time="-9999999/1" value="0" leadInLength="0/1"  />
           <InterpolatingParam id="604" interp="linr"  time="-9999999/1" value="0" leadInLength="0/1"  />
           <InterpolatingParam id="605" interp="linr"  time="-9999999/1" value="0" leadInLength="0/1"  />
          </VectorParam>
          <VectorParam id="606"  name="rotation">
           <InterpolatingParam id="607" interp="linr"  time="-9999999/1" value="0" leadInLength="0/1"  />
           <InterpolatingParam id="608" interp="linr"  time="-9999999/1" value="0" leadInLength="0/1"  />
           <InterpolatingParam id="609" interp="linr"  time="-9999999/1" value="0" leadInLength="0/1"  />
          </VectorParam>
          <VectorParam id="610"  name="shear">
           <InterpolatingParam id="611" interp="linr"  time="-9999999/1" value="0" leadInLength="0/1"  />
           <InterpolatingParam id="612" interp="linr"  time="-9999999/1" value="0" leadInLength="0/1"  />
           <InterpolatingParam id="613" interp="linr"  time="-9999999/1" value="0" leadInLength="0/1"  />
          </VectorParam>
          <VectorParam id="614"  name="scale">
           <InterpolatingParam id="615" interp="linr"  time="-9999999/1" value="0.9375" leadInLength="0/1"  />
           <InterpolatingParam id="616" interp="linr"  time="-9999999/1" value="0.9375" leadInLength="0/1"  />
           <InterpolatingParam id="617" interp="linr"  time="-9999999/1" value="1" leadInLength="0/1"  />
          </VectorParam>
          <VectorParam id="618"  name="anchor">
           <InterpolatingParam id="619" interp="linr"  time="0/1" value="0" leadInLength="0/1"  />
           <InterpolatingParam id="620" interp="linr"  time="0/1" value="0" leadInLength="0/1"  />
           <InterpolatingParam id="621" interp="linr"  time="0/1" value="0" leadInLength="0/1"  />
          </VectorParam>
         </Transformer>
         <Parameters>
          <VectorParam id="622"  name="sourceCrop">
           <InterpolatingParam id="623" interp="linr"  time="0/1" value="0" leadInLength="0/1"  />
           <InterpolatingParam id="624" interp="linr"  time="0/1" value="0" leadInLength="0/1"  />
           <InterpolatingParam id="625" interp="linr"  time="0/1" value="0" leadInLength="0/1"  />
           <InterpolatingParam id="626" interp="linr"  time="0/1" value="0" leadInLength="0/1"  />
          </VectorParam>
          <VectorParam id="627"  name="geometryCrop">
           <InterpolatingParam id="628" interp="linr"  time="-9999999/1" value="0" leadInLength="0/1"  />
           <InterpolatingParam id="629" interp="linr"  time="-9999999/1" value="0" leadInLength="0/1"  />
           <InterpolatingParam id="630" interp="linr"  time="-9999999/1" value="0" leadInLength="0/1"  />
           <InterpolatingParam id="631" interp="linr"  time="-9999999/1" value="0" leadInLength="0/1"  />
          </VectorParam>
          <InterpolatingParam id="632" interp="linr"  time="-9999999/1" value="1" leadInLength="0/1"  name="opacity"/>
          <InterpolatingParam id="633" interp="linr"  time="0/1" value="1" leadInLength="0/1"  name="cursorOpacity"/>
          <InterpolatingParam id="634" interp="linr"  time="0/1" value="1" leadInLength="0/1"  name="cursorScale"/>
          <Parameter id="635"  name="captions"/>
         </Parameters>
         <Effects>
          <GenericEffect id="636" name = "CursorBaseEffectName" >
           <Parameters>
           <InterpolatingParam id="637" interp="linr"  time="-9999999/1" value="1" leadInLength="0/1"   name="cursorSize"/>
           <InterpolatingParam id="638" interp="linr"  time="-9999999/1" value="0" leadInLength="0/1"   name="highlightBlurRadius"/>
           <InterpolatingParam id="639" interp="linr"  time="-9999999/1" value="0" leadInLength="0/1"   name="highlightColorBlue"/>
           <InterpolatingParam id="640" interp="linr"  time="-9999999/1" value="255" leadInLength="0/1"   name="highlightColorGreen"/>
           <InterpolatingParam id="641" interp="linr"  time="-9999999/1" value="255" leadInLength="0/1"   name="highlightColorRed"/>
           <InterpolatingParam id="642" interp="linr"  time="-9999999/1" value="5" leadInLength="0/1"   name="highlightFeatherSize"/>
           <InterpolatingParam id="643" interp="linr"  time="-9999999/1" value="2" leadInLength="0/1"   name="highlightMagnification"/>
           <InterpolatingParam id="644" interp="linr"  time="-9999999/1" value="60" leadInLength="0/1"   name="highlightOpacity"/>
           <InterpolatingParam id="645" interp="linr"  time="-9999999/1" value="45" leadInLength="0/1"   name="highlightSize"/>
           <Parameter id="646"   name="highlightType">
            <Keyframes>
            <Keyframe id="647"  time="-9999999/1" value="4" leadInLength="0/1"  />
            </Keyframes>
           </Parameter>
           <InterpolatingParam id="648" interp="linr"  time="-9999999/1" value="0" leadInLength="0/1"   name="leftClickColorBlue"/>
           <InterpolatingParam id="649" interp="linr"  time="-9999999/1" value="0" leadInLength="0/1"   name="leftClickColorGreen"/>
           <InterpolatingParam id="650" interp="linr"  time="-9999999/1" value="255" leadInLength="0/1"   name="leftClickColorRed"/>
           <InterpolatingParam id="651" interp="linr"  time="-9999999/1" value="0.80000000000000004" leadInLength="0/1"   name="leftClickDuration"/>
           <InterpolatingParam id="652" interp="linr"  time="-9999999/1" value="20" leadInLength="0/1"   name="leftClickSize"/>
           <Parameter id="653"   name="leftClickSoundFilename">
            <Keyframes>
            <Keyframe id="654"  time="-9999999/1" value="" leadInLength="0/1"  />
            </Keyframes>
           </Parameter>
           <InterpolatingParam id="655" interp="linr"  time="-9999999/1" value="1" leadInLength="0/1"   name="leftClickSoundVolume"/>
           <Parameter id="656"   name="leftClickType">
            <Keyframes>
            <Keyframe id="657"  time="-9999999/1" value="0" leadInLength="0/1"  />
            </Keyframes>
           </Parameter>
           <InterpolatingParam id="658" interp="linr"  time="-9999999/1" value="1" leadInLength="0/1"   name="opacity"/>
           <InterpolatingParam id="659" interp="linr"  time="-9999999/1" value="255" leadInLength="0/1"   name="rightClickColorBlue"/>
           <InterpolatingParam id="660" interp="linr"  time="-9999999/1" value="0" leadInLength="0/1"   name="rightClickColorGreen"/>
           <InterpolatingParam id="661" interp="linr"  time="-9999999/1" value="0" leadInLength="0/1"   name="rightClickColorRed"/>
           <InterpolatingParam id="662" interp="linr"  time="-9999999/1" value="0.80000000000000004" leadInLength="0/1"   name="rightClickDuration"/>
           <InterpolatingParam id="663" interp="linr"  time="-9999999/1" value="20" leadInLength="0/1"   name="rightClickSize"/>
           <Parameter id="664"   name="rightClickSoundFilename">
            <Keyframes>
            <Keyframe id="665"  time="-9999999/1" value="" leadInLength="0/1"  />
            </Keyframes>
           </Parameter>
           <InterpolatingParam id="666" interp="linr"  time="-9999999/1" value="1" leadInLength="0/1"   name="rightClickSoundVolume"/>
           <Parameter id="667"   name="rightClickType">
            <Keyframes>
            <Keyframe id="668"  time="-9999999/1" value="0" leadInLength="0/1"  />
            </Keyframes>
           </Parameter>
           </Parameters>
          </GenericEffect>
         </Effects>
         <Attributes>
          <Attribute id="669" value="" name="ident"/>
         </Attributes>
         <MetaData>
          <entry key="AutoAppliedSmartFocus" val="False"/>
          <entry key="WinSubProjectDisplayName" val=""/>
         </MetaData>
         <ExtraData>
          <Entry key="ZoomPanBin">
           <ZoomPanBin id="670"  >
            <ZoomPanKeyframes>
             <ZoomPanKeyframe id="671" timeRangeEnd="-9999999/1" timeRangeDuration="0/1" interpolaterName="linr"  />
            </ZoomPanKeyframes>
           </ZoomPanBin>
          </Entry>
          <Entry key="CursorEffectBin">
           <CursorEffectBin id="672"  >
            <CursorEffectKeyframes>
             <CursorEffectKeyframe id="673" timeRangeEnd="-9999999/1" timeRangeDuration="0/1" interpolaterName=""  />
            </CursorEffectKeyframes>
           </CursorEffectBin>
          </Entry>
         </ExtraData>
         <GenericTrack id="674"  >
          <Attributes>
           <Attribute id="675" value="" name="ident"/>
           <Attribute id="676" value="0" name="audioMuted"/>
           <Attribute id="677" value="0" name="videoHidden"/>
          </Attributes>
          <MetaData>
           <entry key="IsLocked" val="False"/>
           <entry key="WinTrackHeight" val="0"/>
          </MetaData>
          <Medias>
           <ScreenVMFile id="678" start="0" duration="268" scalar="1/1" mediaStart="0/1" mediaDuration="268/1" trackNumber="0" src="6" >
            <Transformer>
             <VectorParam id="679"  name="translation">
              <InterpolatingParam id="680" interp="linr"  time="-9999999/1" value="0" leadInLength="0/1"  />
              <InterpolatingParam id="681" interp="linr"  time="-9999999/1" value="0" leadInLength="0/1"  />
              <InterpolatingParam id="682" interp="linr"  time="-9999999/1" value="0" leadInLength="0/1"  />
             </VectorParam>
             <VectorParam id="683"  name="rotation">
              <InterpolatingParam id="684" interp="linr"  time="-9999999/1" value="0" leadInLength="0/1"  />
              <InterpolatingParam id="685" interp="linr"  time="-9999999/1" value="0" leadInLength="0/1"  />
              <InterpolatingParam id="686" interp="linr"  time="-9999999/1" value="0" leadInLength="0/1"  />
             </VectorParam>
             <VectorParam id="687"  name="shear">
              <InterpolatingParam id="688" interp="linr"  time="-9999999/1" value="0" leadInLength="0/1"  />
              <InterpolatingParam id="689" interp="linr"  time="-9999999/1" value="0" leadInLength="0/1"  />
              <InterpolatingParam id="690" interp="linr"  time="-9999999/1" value="0" leadInLength="0/1"  />
             </VectorParam>
             <VectorParam id="691"  name="scale">
              <InterpolatingParam id="692" interp="linr"  time="-9999999/1" value="1" leadInLength="0/1"  />
              <InterpolatingParam id="693" interp="linr"  time="-9999999/1" value="1" leadInLength="0/1"  />
              <InterpolatingParam id="694" interp="linr"  time="-9999999/1" value="1" leadInLength="0/1"  />
             </VectorParam>
             <VectorParam id="695"  name="anchor">
              <InterpolatingParam id="696" interp="linr"  time="0/1" value="0" leadInLength="0/1"  />
              <InterpolatingParam id="697" interp="linr"  time="0/1" value="0" leadInLength="0/1"  />
              <InterpolatingParam id="698" interp="linr"  time="0/1" value="0" leadInLength="0/1"  />
             </VectorParam>
            </Transformer>
            <Parameters>
             <VectorParam id="699"  name="sourceCrop">
              <InterpolatingParam id="700" interp="linr"  time="0/1" value="0" leadInLength="0/1"  />
              <InterpolatingParam id="701" interp="linr"  time="0/1" value="0" leadInLength="0/1"  />
              <InterpolatingParam id="702" interp="linr"  time="0/1" value="0" leadInLength="0/1"  />
              <InterpolatingParam id="703" interp="linr"  time="0/1" value="0" leadInLength="0/1"  />
             </VectorParam>
             <VectorParam id="704"  name="geometryCrop">
              <InterpolatingParam id="705" interp="linr"  time="-9999999/1" value="0" leadInLength="0/1"  />
              <InterpolatingParam id="706" interp="linr"  time="-9999999/1" value="0" leadInLength="0/1"  />
              <InterpolatingParam id="707" interp="linr"  time="-9999999/1" value="0" leadInLength="0/1"  />
              <InterpolatingParam id="708" interp="linr"  time="-9999999/1" value="0" leadInLength="0/1"  />
             </VectorParam>
             <InterpolatingParam id="709" interp="linr"  time="-9999999/1" value="1" leadInLength="0/1"  name="opacity"/>
             <InterpolatingParam id="710" interp="linr"  time="0/1" value="0" leadInLength="0/1"  name="cursorOpacity"/>
             <InterpolatingParam id="711" interp="linr"  time="0/1" value="0" leadInLength="0/1"  name="cursorScale"/>
            </Parameters>
            <Attributes>
             <Attribute id="712" value="" name="ident"/>
            </Attributes>
            <MetaData>
             <entry key="AutoAppliedSmartFocus" val="False"/>
             <entry key="WinSubProjectDisplayName" val=""/>
            </MetaData>
            <ExtraData>
             <Entry key="ZoomPanBin">
              <ZoomPanBin id="713"  >
               <ZoomPanKeyframes>
                <ZoomPanKeyframe id="714" timeRangeEnd="-9999999/1" timeRangeDuration="0/1" interpolaterName="linr"  />
               </ZoomPanKeyframes>
              </ZoomPanBin>
             </Entry>
             <Entry key="CursorEffectBin">
              <CursorEffectBin id="715"  >
               <CursorEffectKeyframes>
               </CursorEffectKeyframes>
              </CursorEffectBin>
             </Entry>
            </ExtraData>
           </ScreenVMFile>
           <ScreenVMFile id="716" start="268" duration="314" scalar="1/1" mediaStart="337/1" mediaDuration="314/1" trackNumber="0" src="6" >
            <Transformer>
             <VectorParam id="717"  name="translation">
              <InterpolatingParam id="718" interp="linr"  time="-9999999/1" value="0" leadInLength="0/1"  />
              <InterpolatingParam id="719" interp="linr"  time="-9999999/1" value="0" leadInLength="0/1"  />
              <InterpolatingParam id="720" interp="linr"  time="-9999999/1" value="0" leadInLength="0/1"  />
             </VectorParam>
             <VectorParam id="721"  name="rotation">
              <InterpolatingParam id="722" interp="linr"  time="-9999999/1" value="0" leadInLength="0/1"  />
              <InterpolatingParam id="723" interp="linr"  time="-9999999/1" value="0" leadInLength="0/1"  />
              <InterpolatingParam id="724" interp="linr"  time="-9999999/1" value="0" leadInLength="0/1"  />
             </VectorParam>
             <VectorParam id="725"  name="shear">
              <InterpolatingParam id="726" interp="linr"  time="-9999999/1" value="0" leadInLength="0/1"  />
              <InterpolatingParam id="727" interp="linr"  time="-9999999/1" value="0" leadInLength="0/1"  />
              <InterpolatingParam id="728" interp="linr"  time="-9999999/1" value="0" leadInLength="0/1"  />
             </VectorParam>
             <VectorParam id="729"  name="scale">
              <InterpolatingParam id="730" interp="linr"  time="-9999999/1" value="1" leadInLength="0/1"  />
              <InterpolatingParam id="731" interp="linr"  time="-9999999/1" value="1" leadInLength="0/1"  />
              <InterpolatingParam id="732" interp="linr"  time="-9999999/1" value="1" leadInLength="0/1"  />
             </VectorParam>
             <VectorParam id="733"  name="anchor">
              <InterpolatingParam id="734" interp="linr"  time="0/1" value="0" leadInLength="0/1"  />
              <InterpolatingParam id="735" interp="linr"  time="0/1" value="0" leadInLength="0/1"  />
              <InterpolatingParam id="736" interp="linr"  time="0/1" value="0" leadInLength="0/1"  />
             </VectorParam>
            </Transformer>
            <Parameters>
             <VectorParam id="737"  name="sourceCrop">
              <InterpolatingParam id="738" interp="linr"  time="0/1" value="0" leadInLength="0/1"  />
              <InterpolatingParam id="739" interp="linr"  time="0/1" value="0" leadInLength="0/1"  />
              <InterpolatingParam id="740" interp="linr"  time="0/1" value="0" leadInLength="0/1"  />
              <InterpolatingParam id="741" interp="linr"  time="0/1" value="0" leadInLength="0/1"  />
             </VectorParam>
             <VectorParam id="742"  name="geometryCrop">
              <InterpolatingParam id="743" interp="linr"  time="-9999999/1" value="0" leadInLength="0/1"  />
              <InterpolatingParam id="744" interp="linr"  time="-9999999/1" value="0" leadInLength="0/1"  />
              <InterpolatingParam id="745" interp="linr"  time="-9999999/1" value="0" leadInLength="0/1"  />
              <InterpolatingParam id="746" interp="linr"  time="-9999999/1" value="0" leadInLength="0/1"  />
             </VectorParam>
             <InterpolatingParam id="747" interp="linr"  time="-9999999/1" value="1" leadInLength="0/1"  name="opacity"/>
             <InterpolatingParam id="748" interp="linr"  time="0/1" value="0" leadInLength="0/1"  name="cursorOpacity"/>
             <InterpolatingParam id="749" interp="linr"  time="0/1" value="0" leadInLength="0/1"  name="cursorScale"/>
            </Parameters>
            <Attributes>
             <Attribute id="750" value="" name="ident"/>
            </Attributes>
            <MetaData>
             <entry key="AutoAppliedSmartFocus" val="False"/>
             <entry key="WinSubProjectDisplayName" val=""/>
            </MetaData>
            <ExtraData>
             <Entry key="ZoomPanBin">
              <ZoomPanBin id="751"  >
               <ZoomPanKeyframes>
                <ZoomPanKeyframe id="752" timeRangeEnd="-9999999/1" timeRangeDuration="0/1" interpolaterName="linr"  />
               </ZoomPanKeyframes>
              </ZoomPanBin>
             </Entry>
             <Entry key="CursorEffectBin">
              <CursorEffectBin id="753"  >
               <CursorEffectKeyframes>
               </CursorEffectKeyframes>
              </CursorEffectBin>
             </Entry>
            </ExtraData>
           </ScreenVMFile>
           <ScreenVMFile id="754" start="582" duration="2" scalar="1/1" mediaStart="672/1" mediaDuration="2/1" trackNumber="0" src="6" >
            <Transformer>
             <VectorParam id="755"  name="translation">
              <InterpolatingParam id="756" interp="linr"  time="-9999999/1" value="0" leadInLength="0/1"  />
              <InterpolatingParam id="757" interp="linr"  time="-9999999/1" value="0" leadInLength="0/1"  />
              <InterpolatingParam id="758" interp="linr"  time="-9999999/1" value="0" leadInLength="0/1"  />
             </VectorParam>
             <VectorParam id="759"  name="rotation">
              <InterpolatingParam id="760" interp="linr"  time="-9999999/1" value="0" leadInLength="0/1"  />
              <InterpolatingParam id="761" interp="linr"  time="-9999999/1" value="0" leadInLength="0/1"  />
              <InterpolatingParam id="762" interp="linr"  time="-9999999/1" value="0" leadInLength="0/1"  />
             </VectorParam>
             <VectorParam id="763"  name="shear">
              <InterpolatingParam id="764" interp="linr"  time="-9999999/1" value="0" leadInLength="0/1"  />
              <InterpolatingParam id="765" interp="linr"  time="-9999999/1" value="0" leadInLength="0/1"  />
              <InterpolatingParam id="766" interp="linr"  time="-9999999/1" value="0" leadInLength="0/1"  />
             </VectorParam>
             <VectorParam id="767"  name="scale">
              <InterpolatingParam id="768" interp="linr"  time="-9999999/1" value="1" leadInLength="0/1"  />
              <InterpolatingParam id="769" interp="linr"  time="-9999999/1" value="1" leadInLength="0/1"  />
              <InterpolatingParam id="770" interp="linr"  time="-9999999/1" value="1" leadInLength="0/1"  />
             </VectorParam>
             <VectorParam id="771"  name="anchor">
              <InterpolatingParam id="772" interp="linr"  time="0/1" value="0" leadInLength="0/1"  />
              <InterpolatingParam id="773" interp="linr"  time="0/1" value="0" leadInLength="0/1"  />
              <InterpolatingParam id="774" interp="linr"  time="0/1" value="0" leadInLength="0/1"  />
             </VectorParam>
            </Transformer>
            <Parameters>
             <VectorParam id="775"  name="sourceCrop">
              <InterpolatingParam id="776" interp="linr"  time="0/1" value="0" leadInLength="0/1"  />
              <InterpolatingParam id="777" interp="linr"  time="0/1" value="0" leadInLength="0/1"  />
              <InterpolatingParam id="778" interp="linr"  time="0/1" value="0" leadInLength="0/1"  />
              <InterpolatingParam id="779" interp="linr"  time="0/1" value="0" leadInLength="0/1"  />
             </VectorParam>
             <VectorParam id="780"  name="geometryCrop">
              <InterpolatingParam id="781" interp="linr"  time="-9999999/1" value="0" leadInLength="0/1"  />
              <InterpolatingParam id="782" interp="linr"  time="-9999999/1" value="0" leadInLength="0/1"  />
              <InterpolatingParam id="783" interp="linr"  time="-9999999/1" value="0" leadInLength="0/1"  />
              <InterpolatingParam id="784" interp="linr"  time="-9999999/1" value="0" leadInLength="0/1"  />
             </VectorParam>
             <InterpolatingParam id="785" interp="linr"  time="-9999999/1" value="1" leadInLength="0/1"  name="opacity"/>
             <InterpolatingParam id="786" interp="linr"  time="0/1" value="0" leadInLength="0/1"  name="cursorOpacity"/>
             <InterpolatingParam id="787" interp="linr"  time="0/1" value="0" leadInLength="0/1"  name="cursorScale"/>
            </Parameters>
            <Attributes>
             <Attribute id="788" value="" name="ident"/>
            </Attributes>
            <MetaData>
             <entry key="AutoAppliedSmartFocus" val="False"/>
             <entry key="WinSubProjectDisplayName" val=""/>
            </MetaData>
            <ExtraData>
             <Entry key="ZoomPanBin">
              <ZoomPanBin id="789"  >
               <ZoomPanKeyframes>
                <ZoomPanKeyframe id="790" timeRangeEnd="-9999999/1" timeRangeDuration="0/1" interpolaterName="linr"  />
               </ZoomPanKeyframes>
              </ZoomPanBin>
             </Entry>
             <Entry key="CursorEffectBin">
              <CursorEffectBin id="791"  >
               <CursorEffectKeyframes>
               </CursorEffectKeyframes>
              </CursorEffectBin>
             </Entry>
            </ExtraData>
           </ScreenVMFile>
           <ScreenVMFile id="792" start="584" duration="128" scalar="1/1" mediaStart="732/1" mediaDuration="128/1" trackNumber="0" src="6" >
            <Transformer>
             <VectorParam id="793"  name="translation">
              <InterpolatingParam id="794" interp="linr"  time="-9999999/1" value="0" leadInLength="0/1"  />
              <InterpolatingParam id="795" interp="linr"  time="-9999999/1" value="0" leadInLength="0/1"  />
              <InterpolatingParam id="796" interp="linr"  time="-9999999/1" value="0" leadInLength="0/1"  />
             </VectorParam>
             <VectorParam id="797"  name="rotation">
              <InterpolatingParam id="798" interp="linr"  time="-9999999/1" value="0" leadInLength="0/1"  />
              <InterpolatingParam id="799" interp="linr"  time="-9999999/1" value="0" leadInLength="0/1"  />
              <InterpolatingParam id="800" interp="linr"  time="-9999999/1" value="0" leadInLength="0/1"  />
             </VectorParam>
             <VectorParam id="801"  name="shear">
              <InterpolatingParam id="802" interp="linr"  time="-9999999/1" value="0" leadInLength="0/1"  />
              <InterpolatingParam id="803" interp="linr"  time="-9999999/1" value="0" leadInLength="0/1"  />
              <InterpolatingParam id="804" interp="linr"  time="-9999999/1" value="0" leadInLength="0/1"  />
             </VectorParam>
             <VectorParam id="805"  name="scale">
              <InterpolatingParam id="806" interp="linr"  time="-9999999/1" value="1" leadInLength="0/1"  />
              <InterpolatingParam id="807" interp="linr"  time="-9999999/1" value="1" leadInLength="0/1"  />
              <InterpolatingParam id="808" interp="linr"  time="-9999999/1" value="1" leadInLength="0/1"  />
             </VectorParam>
             <VectorParam id="809"  name="anchor">
              <InterpolatingParam id="810" interp="linr"  time="0/1" value="0" leadInLength="0/1"  />
              <InterpolatingParam id="811" interp="linr"  time="0/1" value="0" leadInLength="0/1"  />
              <InterpolatingParam id="812" interp="linr"  time="0/1" value="0" leadInLength="0/1"  />
             </VectorParam>
            </Transformer>
            <Parameters>
             <VectorParam id="813"  name="sourceCrop">
              <InterpolatingParam id="814" interp="linr"  time="0/1" value="0" leadInLength="0/1"  />
              <InterpolatingParam id="815" interp="linr"  time="0/1" value="0" leadInLength="0/1"  />
              <InterpolatingParam id="816" interp="linr"  time="0/1" value="0" leadInLength="0/1"  />
              <InterpolatingParam id="817" interp="linr"  time="0/1" value="0" leadInLength="0/1"  />
             </VectorParam>
             <VectorParam id="818"  name="geometryCrop">
              <InterpolatingParam id="819" interp="linr"  time="-9999999/1" value="0" leadInLength="0/1"  />
              <InterpolatingParam id="820" interp="linr"  time="-9999999/1" value="0" leadInLength="0/1"  />
              <InterpolatingParam id="821" interp="linr"  time="-9999999/1" value="0" leadInLength="0/1"  />
              <InterpolatingParam id="822" interp="linr"  time="-9999999/1" value="0" leadInLength="0/1"  />
             </VectorParam>
             <InterpolatingParam id="823" interp="linr"  time="-9999999/1" value="1" leadInLength="0/1"  name="opacity"/>
             <InterpolatingParam id="824" interp="linr"  time="0/1" value="0" leadInLength="0/1"  name="cursorOpacity"/>
             <InterpolatingParam id="825" interp="linr"  time="0/1" value="0" leadInLength="0/1"  name="cursorScale"/>
            </Parameters>
            <Attributes>
             <Attribute id="826" value="" name="ident"/>
            </Attributes>
            <MetaData>
             <entry key="AutoAppliedSmartFocus" val="False"/>
             <entry key="WinSubProjectDisplayName" val=""/>
            </MetaData>
            <ExtraData>
             <Entry key="ZoomPanBin">
              <ZoomPanBin id="827"  >
               <ZoomPanKeyframes>
                <ZoomPanKeyframe id="828" timeRangeEnd="-9999999/1" timeRangeDuration="0/1" interpolaterName="linr"  />
               </ZoomPanKeyframes>
              </ZoomPanBin>
             </Entry>
             <Entry key="CursorEffectBin">
              <CursorEffectBin id="829"  >
               <CursorEffectKeyframes>
               </CursorEffectKeyframes>
              </CursorEffectBin>
             </Entry>
            </ExtraData>
           </ScreenVMFile>
           <ScreenVMFile id="830" start="712" duration="189" scalar="1/1" mediaStart="886/1" mediaDuration="189/1" trackNumber="0" src="6" >
            <Transformer>
             <VectorParam id="831"  name="translation">
              <InterpolatingParam id="832" interp="linr"  time="-9999999/1" value="0" leadInLength="0/1"  />
              <InterpolatingParam id="833" interp="linr"  time="-9999999/1" value="0" leadInLength="0/1"  />
              <InterpolatingParam id="834" interp="linr"  time="-9999999/1" value="0" leadInLength="0/1"  />
             </VectorParam>
             <VectorParam id="835"  name="rotation">
              <InterpolatingParam id="836" interp="linr"  time="-9999999/1" value="0" leadInLength="0/1"  />
              <InterpolatingParam id="837" interp="linr"  time="-9999999/1" value="0" leadInLength="0/1"  />
              <InterpolatingParam id="838" interp="linr"  time="-9999999/1" value="0" leadInLength="0/1"  />
             </VectorParam>
             <VectorParam id="839"  name="shear">
              <InterpolatingParam id="840" interp="linr"  time="-9999999/1" value="0" leadInLength="0/1"  />
              <InterpolatingParam id="841" interp="linr"  time="-9999999/1" value="0" leadInLength="0/1"  />
              <InterpolatingParam id="842" interp="linr"  time="-9999999/1" value="0" leadInLength="0/1"  />
             </VectorParam>
             <VectorParam id="843"  name="scale">
              <InterpolatingParam id="844" interp="linr"  time="-9999999/1" value="1" leadInLength="0/1"  />
              <InterpolatingParam id="845" interp="linr"  time="-9999999/1" value="1" leadInLength="0/1"  />
              <InterpolatingParam id="846" interp="linr"  time="-9999999/1" value="1" leadInLength="0/1"  />
             </VectorParam>
             <VectorParam id="847"  name="anchor">
              <InterpolatingParam id="848" interp="linr"  time="0/1" value="0" leadInLength="0/1"  />
              <InterpolatingParam id="849" interp="linr"  time="0/1" value="0" leadInLength="0/1"  />
              <InterpolatingParam id="850" interp="linr"  time="0/1" value="0" leadInLength="0/1"  />
             </VectorParam>
            </Transformer>
            <Parameters>
             <VectorParam id="851"  name="sourceCrop">
              <InterpolatingParam id="852" interp="linr"  time="0/1" value="0" leadInLength="0/1"  />
              <InterpolatingParam id="853" interp="linr"  time="0/1" value="0" leadInLength="0/1"  />
              <InterpolatingParam id="854" interp="linr"  time="0/1" value="0" leadInLength="0/1"  />
              <InterpolatingParam id="855" interp="linr"  time="0/1" value="0" leadInLength="0/1"  />
             </VectorParam>
             <VectorParam id="856"  name="geometryCrop">
              <InterpolatingParam id="857" interp="linr"  time="-9999999/1" value="0" leadInLength="0/1"  />
              <InterpolatingParam id="858" interp="linr"  time="-9999999/1" value="0" leadInLength="0/1"  />
              <InterpolatingParam id="859" interp="linr"  time="-9999999/1" value="0" leadInLength="0/1"  />
              <InterpolatingParam id="860" interp="linr"  time="-9999999/1" value="0" leadInLength="0/1"  />
             </VectorParam>
             <InterpolatingParam id="861" interp="linr"  time="-9999999/1" value="1" leadInLength="0/1"  name="opacity"/>
             <InterpolatingParam id="862" interp="linr"  time="0/1" value="0" leadInLength="0/1"  name="cursorOpacity"/>
             <InterpolatingParam id="863" interp="linr"  time="0/1" value="0" leadInLength="0/1"  name="cursorScale"/>
            </Parameters>
            <Attributes>
             <Attribute id="864" value="" name="ident"/>
            </Attributes>
            <MetaData>
             <entry key="AutoAppliedSmartFocus" val="False"/>
             <entry key="WinSubProjectDisplayName" val=""/>
            </MetaData>
            <ExtraData>
             <Entry key="ZoomPanBin">
              <ZoomPanBin id="865"  >
               <ZoomPanKeyframes>
                <ZoomPanKeyframe id="866" timeRangeEnd="-9999999/1" timeRangeDuration="0/1" interpolaterName="linr"  />
               </ZoomPanKeyframes>
              </ZoomPanBin>
             </Entry>
             <Entry key="CursorEffectBin">
              <CursorEffectBin id="867"  >
               <CursorEffectKeyframes>
               </CursorEffectKeyframes>
              </CursorEffectBin>
             </Entry>
            </ExtraData>
           </ScreenVMFile>
           <ScreenVMFile id="868" start="901" duration="37" scalar="1/1" mediaStart="1117/1" mediaDuration="37/1" trackNumber="0" src="6" >
            <Transformer>
             <VectorParam id="869"  name="translation">
              <InterpolatingParam id="870" interp="linr"  time="-9999999/1" value="0" leadInLength="0/1"  />
              <InterpolatingParam id="871" interp="linr"  time="-9999999/1" value="0" leadInLength="0/1"  />
              <InterpolatingParam id="872" interp="linr"  time="-9999999/1" value="0" leadInLength="0/1"  />
             </VectorParam>
             <VectorParam id="873"  name="rotation">
              <InterpolatingParam id="874" interp="linr"  time="-9999999/1" value="0" leadInLength="0/1"  />
              <InterpolatingParam id="875" interp="linr"  time="-9999999/1" value="0" leadInLength="0/1"  />
              <InterpolatingParam id="876" interp="linr"  time="-9999999/1" value="0" leadInLength="0/1"  />
             </VectorParam>
             <VectorParam id="877"  name="shear">
              <InterpolatingParam id="878" interp="linr"  time="-9999999/1" value="0" leadInLength="0/1"  />
              <InterpolatingParam id="879" interp="linr"  time="-9999999/1" value="0" leadInLength="0/1"  />
              <InterpolatingParam id="880" interp="linr"  time="-9999999/1" value="0" leadInLength="0/1"  />
             </VectorParam>
             <VectorParam id="881"  name="scale">
              <InterpolatingParam id="882" interp="linr"  time="-9999999/1" value="1" leadInLength="0/1"  />
              <InterpolatingParam id="883" interp="linr"  time="-9999999/1" value="1" leadInLength="0/1"  />
              <InterpolatingParam id="884" interp="linr"  time="-9999999/1" value="1" leadInLength="0/1"  />
             </VectorParam>
             <VectorParam id="885"  name="anchor">
              <InterpolatingParam id="886" interp="linr"  time="0/1" value="0" leadInLength="0/1"  />
              <InterpolatingParam id="887" interp="linr"  time="0/1" value="0" leadInLength="0/1"  />
              <InterpolatingParam id="888" interp="linr"  time="0/1" value="0" leadInLength="0/1"  />
             </VectorParam>
            </Transformer>
            <Parameters>
             <VectorParam id="889"  name="sourceCrop">
              <InterpolatingParam id="890" interp="linr"  time="0/1" value="0" leadInLength="0/1"  />
              <InterpolatingParam id="891" interp="linr"  time="0/1" value="0" leadInLength="0/1"  />
              <InterpolatingParam id="892" interp="linr"  time="0/1" value="0" leadInLength="0/1"  />
              <InterpolatingParam id="893" interp="linr"  time="0/1" value="0" leadInLength="0/1"  />
             </VectorParam>
             <VectorParam id="894"  name="geometryCrop">
              <InterpolatingParam id="895" interp="linr"  time="-9999999/1" value="0" leadInLength="0/1"  />
              <InterpolatingParam id="896" interp="linr"  time="-9999999/1" value="0" leadInLength="0/1"  />
              <InterpolatingParam id="897" interp="linr"  time="-9999999/1" value="0" leadInLength="0/1"  />
              <InterpolatingParam id="898" interp="linr"  time="-9999999/1" value="0" leadInLength="0/1"  />
             </VectorParam>
             <InterpolatingParam id="899" interp="linr"  time="-9999999/1" value="1" leadInLength="0/1"  name="opacity"/>
             <InterpolatingParam id="900" interp="linr"  time="0/1" value="0" leadInLength="0/1"  name="cursorOpacity"/>
             <InterpolatingParam id="901" interp="linr"  time="0/1" value="0" leadInLength="0/1"  name="cursorScale"/>
            </Parameters>
            <Attributes>
             <Attribute id="902" value="" name="ident"/>
            </Attributes>
            <MetaData>
             <entry key="AutoAppliedSmartFocus" val="False"/>
             <entry key="WinSubProjectDisplayName" val=""/>
            </MetaData>
            <ExtraData>
             <Entry key="ZoomPanBin">
              <ZoomPanBin id="903"  >
               <ZoomPanKeyframes>
                <ZoomPanKeyframe id="904" timeRangeEnd="-9999999/1" timeRangeDuration="0/1" interpolaterName="linr"  />
               </ZoomPanKeyframes>
              </ZoomPanBin>
             </Entry>
             <Entry key="CursorEffectBin">
              <CursorEffectBin id="905"  >
               <CursorEffectKeyframes>
               </CursorEffectKeyframes>
              </CursorEffectBin>
             </Entry>
            </ExtraData>
           </ScreenVMFile>
           <ScreenVMFile id="906" start="938" duration="114" scalar="1/1" mediaStart="1216/1" mediaDuration="114/1" trackNumber="0" src="6" >
            <Transformer>
             <VectorParam id="907"  name="translation">
              <InterpolatingParam id="908" interp="linr"  time="-9999999/1" value="0" leadInLength="0/1"  />
              <InterpolatingParam id="909" interp="linr"  time="-9999999/1" value="0" leadInLength="0/1"  />
              <InterpolatingParam id="910" interp="linr"  time="-9999999/1" value="0" leadInLength="0/1"  />
             </VectorParam>
             <VectorParam id="911"  name="rotation">
              <InterpolatingParam id="912" interp="linr"  time="-9999999/1" value="0" leadInLength="0/1"  />
              <InterpolatingParam id="913" interp="linr"  time="-9999999/1" value="0" leadInLength="0/1"  />
              <InterpolatingParam id="914" interp="linr"  time="-9999999/1" value="0" leadInLength="0/1"  />
             </VectorParam>
             <VectorParam id="915"  name="shear">
              <InterpolatingParam id="916" interp="linr"  time="-9999999/1" value="0" leadInLength="0/1"  />
              <InterpolatingParam id="917" interp="linr"  time="-9999999/1" value="0" leadInLength="0/1"  />
              <InterpolatingParam id="918" interp="linr"  time="-9999999/1" value="0" leadInLength="0/1"  />
             </VectorParam>
             <VectorParam id="919"  name="scale">
              <InterpolatingParam id="920" interp="linr"  time="-9999999/1" value="1" leadInLength="0/1"  />
              <InterpolatingParam id="921" interp="linr"  time="-9999999/1" value="1" leadInLength="0/1"  />
              <InterpolatingParam id="922" interp="linr"  time="-9999999/1" value="1" leadInLength="0/1"  />
             </VectorParam>
             <VectorParam id="923"  name="anchor">
              <InterpolatingParam id="924" interp="linr"  time="0/1" value="0" leadInLength="0/1"  />
              <InterpolatingParam id="925" interp="linr"  time="0/1" value="0" leadInLength="0/1"  />
              <InterpolatingParam id="926" interp="linr"  time="0/1" value="0" leadInLength="0/1"  />
             </VectorParam>
            </Transformer>
            <Parameters>
             <VectorParam id="927"  name="sourceCrop">
              <InterpolatingParam id="928" interp="linr"  time="0/1" value="0" leadInLength="0/1"  />
              <InterpolatingParam id="929" interp="linr"  time="0/1" value="0" leadInLength="0/1"  />
              <InterpolatingParam id="930" interp="linr"  time="0/1" value="0" leadInLength="0/1"  />
              <InterpolatingParam id="931" interp="linr"  time="0/1" value="0" leadInLength="0/1"  />
             </VectorParam>
             <VectorParam id="932"  name="geometryCrop">
              <InterpolatingParam id="933" interp="linr"  time="-9999999/1" value="0" leadInLength="0/1"  />
              <InterpolatingParam id="934" interp="linr"  time="-9999999/1" value="0" leadInLength="0/1"  />
              <InterpolatingParam id="935" interp="linr"  time="-9999999/1" value="0" leadInLength="0/1"  />
              <InterpolatingParam id="936" interp="linr"  time="-9999999/1" value="0" leadInLength="0/1"  />
             </VectorParam>
             <InterpolatingParam id="937" interp="linr"  time="-9999999/1" value="1" leadInLength="0/1"  name="opacity"/>
             <InterpolatingParam id="938" interp="linr"  time="0/1" value="0" leadInLength="0/1"  name="cursorOpacity"/>
             <InterpolatingParam id="939" interp="linr"  time="0/1" value="0" leadInLength="0/1"  name="cursorScale"/>
            </Parameters>
            <Attributes>
             <Attribute id="940" value="" name="ident"/>
            </Attributes>
            <MetaData>
             <entry key="AutoAppliedSmartFocus" val="False"/>
             <entry key="WinSubProjectDisplayName" val=""/>
            </MetaData>
            <ExtraData>
             <Entry key="ZoomPanBin">
              <ZoomPanBin id="941"  >
               <ZoomPanKeyframes>
                <ZoomPanKeyframe id="942" timeRangeEnd="-9999999/1" timeRangeDuration="0/1" interpolaterName="linr"  />
               </ZoomPanKeyframes>
              </ZoomPanBin>
             </Entry>
             <Entry key="CursorEffectBin">
              <CursorEffectBin id="943"  >
               <CursorEffectKeyframes>
               </CursorEffectKeyframes>
              </CursorEffectBin>
             </Entry>
            </ExtraData>
           </ScreenVMFile>
           <ScreenVMFile id="944" start="1052" duration="360" scalar="1/1" mediaStart="1513/1" mediaDuration="360/1" trackNumber="0" src="6" >
            <Transformer>
             <VectorParam id="945"  name="translation">
              <InterpolatingParam id="946" interp="linr"  time="-9999999/1" value="0" leadInLength="0/1"  />
              <InterpolatingParam id="947" interp="linr"  time="-9999999/1" value="0" leadInLength="0/1"  />
              <InterpolatingParam id="948" interp="linr"  time="-9999999/1" value="0" leadInLength="0/1"  />
             </VectorParam>
             <VectorParam id="949"  name="rotation">
              <InterpolatingParam id="950" interp="linr"  time="-9999999/1" value="0" leadInLength="0/1"  />
              <InterpolatingParam id="951" interp="linr"  time="-9999999/1" value="0" leadInLength="0/1"  />
              <InterpolatingParam id="952" interp="linr"  time="-9999999/1" value="0" leadInLength="0/1"  />
             </VectorParam>
             <VectorParam id="953"  name="shear">
              <InterpolatingParam id="954" interp="linr"  time="-9999999/1" value="0" leadInLength="0/1"  />
              <InterpolatingParam id="955" interp="linr"  time="-9999999/1" value="0" leadInLength="0/1"  />
              <InterpolatingParam id="956" interp="linr"  time="-9999999/1" value="0" leadInLength="0/1"  />
             </VectorParam>
             <VectorParam id="957"  name="scale">
              <InterpolatingParam id="958" interp="linr"  time="-9999999/1" value="1" leadInLength="0/1"  />
              <InterpolatingParam id="959" interp="linr"  time="-9999999/1" value="1" leadInLength="0/1"  />
              <InterpolatingParam id="960" interp="linr"  time="-9999999/1" value="1" leadInLength="0/1"  />
             </VectorParam>
             <VectorParam id="961"  name="anchor">
              <InterpolatingParam id="962" interp="linr"  time="0/1" value="0" leadInLength="0/1"  />
              <InterpolatingParam id="963" interp="linr"  time="0/1" value="0" leadInLength="0/1"  />
              <InterpolatingParam id="964" interp="linr"  time="0/1" value="0" leadInLength="0/1"  />
             </VectorParam>
            </Transformer>
            <Parameters>
             <VectorParam id="965"  name="sourceCrop">
              <InterpolatingParam id="966" interp="linr"  time="0/1" value="0" leadInLength="0/1"  />
              <InterpolatingParam id="967" interp="linr"  time="0/1" value="0" leadInLength="0/1"  />
              <InterpolatingParam id="968" interp="linr"  time="0/1" value="0" leadInLength="0/1"  />
              <InterpolatingParam id="969" interp="linr"  time="0/1" value="0" leadInLength="0/1"  />
             </VectorParam>
             <VectorParam id="970"  name="geometryCrop">
              <InterpolatingParam id="971" interp="linr"  time="-9999999/1" value="0" leadInLength="0/1"  />
              <InterpolatingParam id="972" interp="linr"  time="-9999999/1" value="0" leadInLength="0/1"  />
              <InterpolatingParam id="973" interp="linr"  time="-9999999/1" value="0" leadInLength="0/1"  />
              <InterpolatingParam id="974" interp="linr"  time="-9999999/1" value="0" leadInLength="0/1"  />
             </VectorParam>
             <InterpolatingParam id="975" interp="linr"  time="-9999999/1" value="1" leadInLength="0/1"  name="opacity"/>
             <InterpolatingParam id="976" interp="linr"  time="0/1" value="0" leadInLength="0/1"  name="cursorOpacity"/>
             <InterpolatingParam id="977" interp="linr"  time="0/1" value="0" leadInLength="0/1"  name="cursorScale"/>
            </Parameters>
            <Attributes>
             <Attribute id="978" value="" name="ident"/>
            </Attributes>
            <MetaData>
             <entry key="AutoAppliedSmartFocus" val="False"/>
             <entry key="WinSubProjectDisplayName" val=""/>
            </MetaData>
            <ExtraData>
             <Entry key="ZoomPanBin">
              <ZoomPanBin id="979"  >
               <ZoomPanKeyframes>
                <ZoomPanKeyframe id="980" timeRangeEnd="-9999999/1" timeRangeDuration="0/1" interpolaterName="linr"  />
               </ZoomPanKeyframes>
              </ZoomPanBin>
             </Entry>
             <Entry key="CursorEffectBin">
              <CursorEffectBin id="981"  >
               <CursorEffectKeyframes>
               </CursorEffectKeyframes>
              </CursorEffectBin>
             </Entry>
            </ExtraData>
           </ScreenVMFile>
           <ScreenVMFile id="982" start="1412" duration="391" scalar="1/1" mediaStart="1900/1" mediaDuration="391/1" trackNumber="0" src="6" >
            <Transformer>
             <VectorParam id="983"  name="translation">
              <InterpolatingParam id="984" interp="linr"  time="-9999999/1" value="0" leadInLength="0/1"  />
              <InterpolatingParam id="985" interp="linr"  time="-9999999/1" value="0" leadInLength="0/1"  />
              <InterpolatingParam id="986" interp="linr"  time="-9999999/1" value="0" leadInLength="0/1"  />
             </VectorParam>
             <VectorParam id="987"  name="rotation">
              <InterpolatingParam id="988" interp="linr"  time="-9999999/1" value="0" leadInLength="0/1"  />
              <InterpolatingParam id="989" interp="linr"  time="-9999999/1" value="0" leadInLength="0/1"  />
              <InterpolatingParam id="990" interp="linr"  time="-9999999/1" value="0" leadInLength="0/1"  />
             </VectorParam>
             <VectorParam id="991"  name="shear">
              <InterpolatingParam id="992" interp="linr"  time="-9999999/1" value="0" leadInLength="0/1"  />
              <InterpolatingParam id="993" interp="linr"  time="-9999999/1" value="0" leadInLength="0/1"  />
              <InterpolatingParam id="994" interp="linr"  time="-9999999/1" value="0" leadInLength="0/1"  />
             </VectorParam>
             <VectorParam id="995"  name="scale">
              <InterpolatingParam id="996" interp="linr"  time="-9999999/1" value="1" leadInLength="0/1"  />
              <InterpolatingParam id="997" interp="linr"  time="-9999999/1" value="1" leadInLength="0/1"  />
              <InterpolatingParam id="998" interp="linr"  time="-9999999/1" value="1" leadInLength="0/1"  />
             </VectorParam>
             <VectorParam id="999"  name="anchor">
              <InterpolatingParam id="1000" interp="linr"  time="0/1" value="0" leadInLength="0/1"  />
              <InterpolatingParam id="1001" interp="linr"  time="0/1" value="0" leadInLength="0/1"  />
              <InterpolatingParam id="1002" interp="linr"  time="0/1" value="0" leadInLength="0/1"  />
             </VectorParam>
            </Transformer>
            <Parameters>
             <VectorParam id="1003"  name="sourceCrop">
              <InterpolatingParam id="1004" interp="linr"  time="0/1" value="0" leadInLength="0/1"  />
              <InterpolatingParam id="1005" interp="linr"  time="0/1" value="0" leadInLength="0/1"  />
              <InterpolatingParam id="1006" interp="linr"  time="0/1" value="0" leadInLength="0/1"  />
              <InterpolatingParam id="1007" interp="linr"  time="0/1" value="0" leadInLength="0/1"  />
             </VectorParam>
             <VectorParam id="1008"  name="geometryCrop">
              <InterpolatingParam id="1009" interp="linr"  time="-9999999/1" value="0" leadInLength="0/1"  />
              <InterpolatingParam id="1010" interp="linr"  time="-9999999/1" value="0" leadInLength="0/1"  />
              <InterpolatingParam id="1011" interp="linr"  time="-9999999/1" value="0" leadInLength="0/1"  />
              <InterpolatingParam id="1012" interp="linr"  time="-9999999/1" value="0" leadInLength="0/1"  />
             </VectorParam>
             <InterpolatingParam id="1013" interp="linr"  time="-9999999/1" value="1" leadInLength="0/1"  name="opacity"/>
             <InterpolatingParam id="1014" interp="linr"  time="0/1" value="0" leadInLength="0/1"  name="cursorOpacity"/>
             <InterpolatingParam id="1015" interp="linr"  time="0/1" value="0" leadInLength="0/1"  name="cursorScale"/>
            </Parameters>
            <Attributes>
             <Attribute id="1016" value="" name="ident"/>
            </Attributes>
            <MetaData>
             <entry key="AutoAppliedSmartFocus" val="False"/>
             <entry key="WinSubProjectDisplayName" val=""/>
            </MetaData>
            <ExtraData>
             <Entry key="ZoomPanBin">
              <ZoomPanBin id="1017"  >
               <ZoomPanKeyframes>
                <ZoomPanKeyframe id="1018" timeRangeEnd="-9999999/1" timeRangeDuration="0/1" interpolaterName="linr"  />
               </ZoomPanKeyframes>
              </ZoomPanBin>
             </Entry>
             <Entry key="CursorEffectBin">
              <CursorEffectBin id="1019"  >
               <CursorEffectKeyframes>
               </CursorEffectKeyframes>
              </CursorEffectBin>
             </Entry>
            </ExtraData>
           </ScreenVMFile>
           <ScreenVMFile id="1020" start="1803" duration="509" scalar="1/1" mediaStart="2637/1" mediaDuration="509/1" trackNumber="0" src="6" >
            <Transformer>
             <VectorParam id="1021"  name="translation">
              <InterpolatingParam id="1022" interp="linr"  time="-9999999/1" value="0" leadInLength="0/1"  />
              <InterpolatingParam id="1023" interp="linr"  time="-9999999/1" value="0" leadInLength="0/1"  />
              <InterpolatingParam id="1024" interp="linr"  time="-9999999/1" value="0" leadInLength="0/1"  />
             </VectorParam>
             <VectorParam id="1025"  name="rotation">
              <InterpolatingParam id="1026" interp="linr"  time="-9999999/1" value="0" leadInLength="0/1"  />
              <InterpolatingParam id="1027" interp="linr"  time="-9999999/1" value="0" leadInLength="0/1"  />
              <InterpolatingParam id="1028" interp="linr"  time="-9999999/1" value="0" leadInLength="0/1"  />
             </VectorParam>
             <VectorParam id="1029"  name="shear">
              <InterpolatingParam id="1030" interp="linr"  time="-9999999/1" value="0" leadInLength="0/1"  />
              <InterpolatingParam id="1031" interp="linr"  time="-9999999/1" value="0" leadInLength="0/1"  />
              <InterpolatingParam id="1032" interp="linr"  time="-9999999/1" value="0" leadInLength="0/1"  />
             </VectorParam>
             <VectorParam id="1033"  name="scale">
              <InterpolatingParam id="1034" interp="linr"  time="-9999999/1" value="1" leadInLength="0/1"  />
              <InterpolatingParam id="1035" interp="linr"  time="-9999999/1" value="1" leadInLength="0/1"  />
              <InterpolatingParam id="1036" interp="linr"  time="-9999999/1" value="1" leadInLength="0/1"  />
             </VectorParam>
             <VectorParam id="1037"  name="anchor">
              <InterpolatingParam id="1038" interp="linr"  time="0/1" value="0" leadInLength="0/1"  />
              <InterpolatingParam id="1039" interp="linr"  time="0/1" value="0" leadInLength="0/1"  />
              <InterpolatingParam id="1040" interp="linr"  time="0/1" value="0" leadInLength="0/1"  />
             </VectorParam>
            </Transformer>
            <Parameters>
             <VectorParam id="1041"  name="sourceCrop">
              <InterpolatingParam id="1042" interp="linr"  time="0/1" value="0" leadInLength="0/1"  />
              <InterpolatingParam id="1043" interp="linr"  time="0/1" value="0" leadInLength="0/1"  />
              <InterpolatingParam id="1044" interp="linr"  time="0/1" value="0" leadInLength="0/1"  />
              <InterpolatingParam id="1045" interp="linr"  time="0/1" value="0" leadInLength="0/1"  />
             </VectorParam>
             <VectorParam id="1046"  name="geometryCrop">
              <InterpolatingParam id="1047" interp="linr"  time="-9999999/1" value="0" leadInLength="0/1"  />
              <InterpolatingParam id="1048" interp="linr"  time="-9999999/1" value="0" leadInLength="0/1"  />
              <InterpolatingParam id="1049" interp="linr"  time="-9999999/1" value="0" leadInLength="0/1"  />
              <InterpolatingParam id="1050" interp="linr"  time="-9999999/1" value="0" leadInLength="0/1"  />
             </VectorParam>
             <InterpolatingParam id="1051" interp="linr"  time="-9999999/1" value="1" leadInLength="0/1"  name="opacity"/>
             <InterpolatingParam id="1052" interp="linr"  time="0/1" value="0" leadInLength="0/1"  name="cursorOpacity"/>
             <InterpolatingParam id="1053" interp="linr"  time="0/1" value="0" leadInLength="0/1"  name="cursorScale"/>
            </Parameters>
            <Attributes>
             <Attribute id="1054" value="" name="ident"/>
            </Attributes>
            <MetaData>
             <entry key="AutoAppliedSmartFocus" val="False"/>
             <entry key="WinSubProjectDisplayName" val=""/>
            </MetaData>
            <ExtraData>
             <Entry key="ZoomPanBin">
              <ZoomPanBin id="1055"  >
               <ZoomPanKeyframes>
                <ZoomPanKeyframe id="1056" timeRangeEnd="-9999999/1" timeRangeDuration="0/1" interpolaterName="linr"  />
               </ZoomPanKeyframes>
              </ZoomPanBin>
             </Entry>
             <Entry key="CursorEffectBin">
              <CursorEffectBin id="1057"  >
               <CursorEffectKeyframes>
               </CursorEffectKeyframes>
              </CursorEffectBin>
             </Entry>
            </ExtraData>
           </ScreenVMFile>
           <ScreenVMFile id="1058" start="2312" duration="1284" scalar="1/1" mediaStart="3175/1" mediaDuration="1284/1" trackNumber="0" src="6" >
            <Transformer>
             <VectorParam id="1059"  name="translation">
              <InterpolatingParam id="1060" interp="linr"  time="-9999999/1" value="0" leadInLength="0/1"  />
              <InterpolatingParam id="1061" interp="linr"  time="-9999999/1" value="0" leadInLength="0/1"  />
              <InterpolatingParam id="1062" interp="linr"  time="-9999999/1" value="0" leadInLength="0/1"  />
             </VectorParam>
             <VectorParam id="1063"  name="rotation">
              <InterpolatingParam id="1064" interp="linr"  time="-9999999/1" value="0" leadInLength="0/1"  />
              <InterpolatingParam id="1065" interp="linr"  time="-9999999/1" value="0" leadInLength="0/1"  />
              <InterpolatingParam id="1066" interp="linr"  time="-9999999/1" value="0" leadInLength="0/1"  />
             </VectorParam>
             <VectorParam id="1067"  name="shear">
              <InterpolatingParam id="1068" interp="linr"  time="-9999999/1" value="0" leadInLength="0/1"  />
              <InterpolatingParam id="1069" interp="linr"  time="-9999999/1" value="0" leadInLength="0/1"  />
              <InterpolatingParam id="1070" interp="linr"  time="-9999999/1" value="0" leadInLength="0/1"  />
             </VectorParam>
             <VectorParam id="1071"  name="scale">
              <InterpolatingParam id="1072" interp="linr"  time="-9999999/1" value="1" leadInLength="0/1"  />
              <InterpolatingParam id="1073" interp="linr"  time="-9999999/1" value="1" leadInLength="0/1"  />
              <InterpolatingParam id="1074" interp="linr"  time="-9999999/1" value="1" leadInLength="0/1"  />
             </VectorParam>
             <VectorParam id="1075"  name="anchor">
              <InterpolatingParam id="1076" interp="linr"  time="0/1" value="0" leadInLength="0/1"  />
              <InterpolatingParam id="1077" interp="linr"  time="0/1" value="0" leadInLength="0/1"  />
              <InterpolatingParam id="1078" interp="linr"  time="0/1" value="0" leadInLength="0/1"  />
             </VectorParam>
            </Transformer>
            <Parameters>
             <VectorParam id="1079"  name="sourceCrop">
              <InterpolatingParam id="1080" interp="linr"  time="0/1" value="0" leadInLength="0/1"  />
              <InterpolatingParam id="1081" interp="linr"  time="0/1" value="0" leadInLength="0/1"  />
              <InterpolatingParam id="1082" interp="linr"  time="0/1" value="0" leadInLength="0/1"  />
              <InterpolatingParam id="1083" interp="linr"  time="0/1" value="0" leadInLength="0/1"  />
             </VectorParam>
             <VectorParam id="1084"  name="geometryCrop">
              <InterpolatingParam id="1085" interp="linr"  time="-9999999/1" value="0" leadInLength="0/1"  />
              <InterpolatingParam id="1086" interp="linr"  time="-9999999/1" value="0" leadInLength="0/1"  />
              <InterpolatingParam id="1087" interp="linr"  time="-9999999/1" value="0" leadInLength="0/1"  />
              <InterpolatingParam id="1088" interp="linr"  time="-9999999/1" value="0" leadInLength="0/1"  />
             </VectorParam>
             <InterpolatingParam id="1089" interp="linr"  time="-9999999/1" value="1" leadInLength="0/1"  name="opacity"/>
             <InterpolatingParam id="1090" interp="linr"  time="0/1" value="0" leadInLength="0/1"  name="cursorOpacity"/>
             <InterpolatingParam id="1091" interp="linr"  time="0/1" value="0" leadInLength="0/1"  name="cursorScale"/>
            </Parameters>
            <Attributes>
             <Attribute id="1092" value="" name="ident"/>
            </Attributes>
            <MetaData>
             <entry key="AutoAppliedSmartFocus" val="False"/>
             <entry key="WinSubProjectDisplayName" val=""/>
            </MetaData>
            <ExtraData>
             <Entry key="ZoomPanBin">
              <ZoomPanBin id="1093"  >
               <ZoomPanKeyframes>
                <ZoomPanKeyframe id="1094" timeRangeEnd="-9999999/1" timeRangeDuration="0/1" interpolaterName="linr"  />
               </ZoomPanKeyframes>
              </ZoomPanBin>
             </Entry>
             <Entry key="CursorEffectBin">
              <CursorEffectBin id="1095"  >
               <CursorEffectKeyframes>
               </CursorEffectKeyframes>
              </CursorEffectBin>
             </Entry>
            </ExtraData>
           </ScreenVMFile>
           <ScreenVMFile id="1096" start="3596" duration="967" scalar="1/1" mediaStart="4652/1" mediaDuration="967/1" trackNumber="0" src="6" >
            <Transformer>
             <VectorParam id="1097"  name="translation">
              <InterpolatingParam id="1098" interp="linr"  time="-9999999/1" value="0" leadInLength="0/1"  />
              <InterpolatingParam id="1099" interp="linr"  time="-9999999/1" value="0" leadInLength="0/1"  />
              <InterpolatingParam id="1100" interp="linr"  time="-9999999/1" value="0" leadInLength="0/1"  />
             </VectorParam>
             <VectorParam id="1101"  name="rotation">
              <InterpolatingParam id="1102" interp="linr"  time="-9999999/1" value="0" leadInLength="0/1"  />
              <InterpolatingParam id="1103" interp="linr"  time="-9999999/1" value="0" leadInLength="0/1"  />
              <InterpolatingParam id="1104" interp="linr"  time="-9999999/1" value="0" leadInLength="0/1"  />
             </VectorParam>
             <VectorParam id="1105"  name="shear">
              <InterpolatingParam id="1106" interp="linr"  time="-9999999/1" value="0" leadInLength="0/1"  />
              <InterpolatingParam id="1107" interp="linr"  time="-9999999/1" value="0" leadInLength="0/1"  />
              <InterpolatingParam id="1108" interp="linr"  time="-9999999/1" value="0" leadInLength="0/1"  />
             </VectorParam>
             <VectorParam id="1109"  name="scale">
              <InterpolatingParam id="1110" interp="linr"  time="-9999999/1" value="1" leadInLength="0/1"  />
              <InterpolatingParam id="1111" interp="linr"  time="-9999999/1" value="1" leadInLength="0/1"  />
              <InterpolatingParam id="1112" interp="linr"  time="-9999999/1" value="1" leadInLength="0/1"  />
             </VectorParam>
             <VectorParam id="1113"  name="anchor">
              <InterpolatingParam id="1114" interp="linr"  time="0/1" value="0" leadInLength="0/1"  />
              <InterpolatingParam id="1115" interp="linr"  time="0/1" value="0" leadInLength="0/1"  />
              <InterpolatingParam id="1116" interp="linr"  time="0/1" value="0" leadInLength="0/1"  />
             </VectorParam>
            </Transformer>
            <Parameters>
             <VectorParam id="1117"  name="sourceCrop">
              <InterpolatingParam id="1118" interp="linr"  time="0/1" value="0" leadInLength="0/1"  />
              <InterpolatingParam id="1119" interp="linr"  time="0/1" value="0" leadInLength="0/1"  />
              <InterpolatingParam id="1120" interp="linr"  time="0/1" value="0" leadInLength="0/1"  />
              <InterpolatingParam id="1121" interp="linr"  time="0/1" value="0" leadInLength="0/1"  />
             </VectorParam>
             <VectorParam id="1122"  name="geometryCrop">
              <InterpolatingParam id="1123" interp="linr"  time="-9999999/1" value="0" leadInLength="0/1"  />
              <InterpolatingParam id="1124" interp="linr"  time="-9999999/1" value="0" leadInLength="0/1"  />
              <InterpolatingParam id="1125" interp="linr"  time="-9999999/1" value="0" leadInLength="0/1"  />
              <InterpolatingParam id="1126" interp="linr"  time="-9999999/1" value="0" leadInLength="0/1"  />
             </VectorParam>
             <InterpolatingParam id="1127" interp="linr"  time="-9999999/1" value="1" leadInLength="0/1"  name="opacity"/>
             <InterpolatingParam id="1128" interp="linr"  time="0/1" value="0" leadInLength="0/1"  name="cursorOpacity"/>
             <InterpolatingParam id="1129" interp="linr"  time="0/1" value="0" leadInLength="0/1"  name="cursorScale"/>
            </Parameters>
            <Attributes>
             <Attribute id="1130" value="" name="ident"/>
            </Attributes>
            <MetaData>
             <entry key="AutoAppliedSmartFocus" val="False"/>
             <entry key="WinSubProjectDisplayName" val=""/>
            </MetaData>
            <ExtraData>
             <Entry key="ZoomPanBin">
              <ZoomPanBin id="1131"  >
               <ZoomPanKeyframes>
                <ZoomPanKeyframe id="1132" timeRangeEnd="-9999999/1" timeRangeDuration="0/1" interpolaterName="linr"  />
               </ZoomPanKeyframes>
              </ZoomPanBin>
             </Entry>
             <Entry key="CursorEffectBin">
              <CursorEffectBin id="1133"  >
               <CursorEffectKeyframes>
               </CursorEffectKeyframes>
              </CursorEffectBin>
             </Entry>
            </ExtraData>
           </ScreenVMFile>
           <ScreenVMFile id="1134" start="4563" duration="48" scalar="1/1" mediaStart="7038/1" mediaDuration="48/1" trackNumber="0" src="6" >
            <Transformer>
             <VectorParam id="1135"  name="translation">
              <InterpolatingParam id="1136" interp="linr"  time="-9999999/1" value="0" leadInLength="0/1"  />
              <InterpolatingParam id="1137" interp="linr"  time="-9999999/1" value="0" leadInLength="0/1"  />
              <InterpolatingParam id="1138" interp="linr"  time="-9999999/1" value="0" leadInLength="0/1"  />
             </VectorParam>
             <VectorParam id="1139"  name="rotation">
              <InterpolatingParam id="1140" interp="linr"  time="-9999999/1" value="0" leadInLength="0/1"  />
              <InterpolatingParam id="1141" interp="linr"  time="-9999999/1" value="0" leadInLength="0/1"  />
              <InterpolatingParam id="1142" interp="linr"  time="-9999999/1" value="0" leadInLength="0/1"  />
             </VectorParam>
             <VectorParam id="1143"  name="shear">
              <InterpolatingParam id="1144" interp="linr"  time="-9999999/1" value="0" leadInLength="0/1"  />
              <InterpolatingParam id="1145" interp="linr"  time="-9999999/1" value="0" leadInLength="0/1"  />
              <InterpolatingParam id="1146" interp="linr"  time="-9999999/1" value="0" leadInLength="0/1"  />
             </VectorParam>
             <VectorParam id="1147"  name="scale">
              <InterpolatingParam id="1148" interp="linr"  time="-9999999/1" value="1" leadInLength="0/1"  />
              <InterpolatingParam id="1149" interp="linr"  time="-9999999/1" value="1" leadInLength="0/1"  />
              <InterpolatingParam id="1150" interp="linr"  time="-9999999/1" value="1" leadInLength="0/1"  />
             </VectorParam>
             <VectorParam id="1151"  name="anchor">
              <InterpolatingParam id="1152" interp="linr"  time="0/1" value="0" leadInLength="0/1"  />
              <InterpolatingParam id="1153" interp="linr"  time="0/1" value="0" leadInLength="0/1"  />
              <InterpolatingParam id="1154" interp="linr"  time="0/1" value="0" leadInLength="0/1"  />
             </VectorParam>
            </Transformer>
            <Parameters>
             <VectorParam id="1155"  name="sourceCrop">
              <InterpolatingParam id="1156" interp="linr"  time="0/1" value="0" leadInLength="0/1"  />
              <InterpolatingParam id="1157" interp="linr"  time="0/1" value="0" leadInLength="0/1"  />
              <InterpolatingParam id="1158" interp="linr"  time="0/1" value="0" leadInLength="0/1"  />
              <InterpolatingParam id="1159" interp="linr"  time="0/1" value="0" leadInLength="0/1"  />
             </VectorParam>
             <VectorParam id="1160"  name="geometryCrop">
              <InterpolatingParam id="1161" interp="linr"  time="-9999999/1" value="0" leadInLength="0/1"  />
              <InterpolatingParam id="1162" interp="linr"  time="-9999999/1" value="0" leadInLength="0/1"  />
              <InterpolatingParam id="1163" interp="linr"  time="-9999999/1" value="0" leadInLength="0/1"  />
              <InterpolatingParam id="1164" interp="linr"  time="-9999999/1" value="0" leadInLength="0/1"  />
             </VectorParam>
             <InterpolatingParam id="1165" interp="linr"  time="-9999999/1" value="1" leadInLength="0/1"  name="opacity"/>
             <InterpolatingParam id="1166" interp="linr"  time="0/1" value="0" leadInLength="0/1"  name="cursorOpacity"/>
             <InterpolatingParam id="1167" interp="linr"  time="0/1" value="0" leadInLength="0/1"  name="cursorScale"/>
            </Parameters>
            <Attributes>
             <Attribute id="1168" value="" name="ident"/>
            </Attributes>
            <MetaData>
             <entry key="AutoAppliedSmartFocus" val="False"/>
             <entry key="WinSubProjectDisplayName" val=""/>
            </MetaData>
            <ExtraData>
             <Entry key="ZoomPanBin">
              <ZoomPanBin id="1169"  >
               <ZoomPanKeyframes>
                <ZoomPanKeyframe id="1170" timeRangeEnd="-9999999/1" timeRangeDuration="0/1" interpolaterName="linr"  />
               </ZoomPanKeyframes>
              </ZoomPanBin>
             </Entry>
             <Entry key="CursorEffectBin">
              <CursorEffectBin id="1171"  >
               <CursorEffectKeyframes>
               </CursorEffectKeyframes>
              </CursorEffectBin>
             </Entry>
            </ExtraData>
           </ScreenVMFile>
           <ScreenVMFile id="1172" start="4611" duration="240" scalar="1/1" mediaStart="7208/1" mediaDuration="240/1" trackNumber="0" src="6" >
            <Transformer>
             <VectorParam id="1173"  name="translation">
              <InterpolatingParam id="1174" interp="linr"  time="-9999999/1" value="0" leadInLength="0/1"  />
              <InterpolatingParam id="1175" interp="linr"  time="-9999999/1" value="0" leadInLength="0/1"  />
              <InterpolatingParam id="1176" interp="linr"  time="-9999999/1" value="0" leadInLength="0/1"  />
             </VectorParam>
             <VectorParam id="1177"  name="rotation">
              <InterpolatingParam id="1178" interp="linr"  time="-9999999/1" value="0" leadInLength="0/1"  />
              <InterpolatingParam id="1179" interp="linr"  time="-9999999/1" value="0" leadInLength="0/1"  />
              <InterpolatingParam id="1180" interp="linr"  time="-9999999/1" value="0" leadInLength="0/1"  />
             </VectorParam>
             <VectorParam id="1181"  name="shear">
              <InterpolatingParam id="1182" interp="linr"  time="-9999999/1" value="0" leadInLength="0/1"  />
              <InterpolatingParam id="1183" interp="linr"  time="-9999999/1" value="0" leadInLength="0/1"  />
              <InterpolatingParam id="1184" interp="linr"  time="-9999999/1" value="0" leadInLength="0/1"  />
             </VectorParam>
             <VectorParam id="1185"  name="scale">
              <InterpolatingParam id="1186" interp="linr"  time="-9999999/1" value="1" leadInLength="0/1"  />
              <InterpolatingParam id="1187" interp="linr"  time="-9999999/1" value="1" leadInLength="0/1"  />
              <InterpolatingParam id="1188" interp="linr"  time="-9999999/1" value="1" leadInLength="0/1"  />
             </VectorParam>
             <VectorParam id="1189"  name="anchor">
              <InterpolatingParam id="1190" interp="linr"  time="0/1" value="0" leadInLength="0/1"  />
              <InterpolatingParam id="1191" interp="linr"  time="0/1" value="0" leadInLength="0/1"  />
              <InterpolatingParam id="1192" interp="linr"  time="0/1" value="0" leadInLength="0/1"  />
             </VectorParam>
            </Transformer>
            <Parameters>
             <VectorParam id="1193"  name="sourceCrop">
              <InterpolatingParam id="1194" interp="linr"  time="0/1" value="0" leadInLength="0/1"  />
              <InterpolatingParam id="1195" interp="linr"  time="0/1" value="0" leadInLength="0/1"  />
              <InterpolatingParam id="1196" interp="linr"  time="0/1" value="0" leadInLength="0/1"  />
              <InterpolatingParam id="1197" interp="linr"  time="0/1" value="0" leadInLength="0/1"  />
             </VectorParam>
             <VectorParam id="1198"  name="geometryCrop">
              <InterpolatingParam id="1199" interp="linr"  time="-9999999/1" value="0" leadInLength="0/1"  />
              <InterpolatingParam id="1200" interp="linr"  time="-9999999/1" value="0" leadInLength="0/1"  />
              <InterpolatingParam id="1201" interp="linr"  time="-9999999/1" value="0" leadInLength="0/1"  />
              <InterpolatingParam id="1202" interp="linr"  time="-9999999/1" value="0" leadInLength="0/1"  />
             </VectorParam>
             <InterpolatingParam id="1203" interp="linr"  time="-9999999/1" value="1" leadInLength="0/1"  name="opacity"/>
             <InterpolatingParam id="1204" interp="linr"  time="0/1" value="0" leadInLength="0/1"  name="cursorOpacity"/>
             <InterpolatingParam id="1205" interp="linr"  time="0/1" value="0" leadInLength="0/1"  name="cursorScale"/>
            </Parameters>
            <Attributes>
             <Attribute id="1206" value="" name="ident"/>
            </Attributes>
            <MetaData>
             <entry key="AutoAppliedSmartFocus" val="False"/>
             <entry key="WinSubProjectDisplayName" val=""/>
            </MetaData>
            <ExtraData>
             <Entry key="ZoomPanBin">
              <ZoomPanBin id="1207"  >
               <ZoomPanKeyframes>
                <ZoomPanKeyframe id="1208" timeRangeEnd="-9999999/1" timeRangeDuration="0/1" interpolaterName="linr"  />
               </ZoomPanKeyframes>
              </ZoomPanBin>
             </Entry>
             <Entry key="CursorEffectBin">
              <CursorEffectBin id="1209"  >
               <CursorEffectKeyframes>
               </CursorEffectKeyframes>
              </CursorEffectBin>
             </Entry>
            </ExtraData>
           </ScreenVMFile>
           <ScreenVMFile id="1210" start="4851" duration="527" scalar="1/1" mediaStart="9581/1" mediaDuration="527/1" trackNumber="0" src="6" >
            <Transformer>
             <VectorParam id="1211"  name="translation">
              <InterpolatingParam id="1212" interp="linr"  time="-9999999/1" value="0" leadInLength="0/1"  />
              <InterpolatingParam id="1213" interp="linr"  time="-9999999/1" value="0" leadInLength="0/1"  />
              <InterpolatingParam id="1214" interp="linr"  time="-9999999/1" value="0" leadInLength="0/1"  />
             </VectorParam>
             <VectorParam id="1215"  name="rotation">
              <InterpolatingParam id="1216" interp="linr"  time="-9999999/1" value="0" leadInLength="0/1"  />
              <InterpolatingParam id="1217" interp="linr"  time="-9999999/1" value="0" leadInLength="0/1"  />
              <InterpolatingParam id="1218" interp="linr"  time="-9999999/1" value="0" leadInLength="0/1"  />
             </VectorParam>
             <VectorParam id="1219"  name="shear">
              <InterpolatingParam id="1220" interp="linr"  time="-9999999/1" value="0" leadInLength="0/1"  />
              <InterpolatingParam id="1221" interp="linr"  time="-9999999/1" value="0" leadInLength="0/1"  />
              <InterpolatingParam id="1222" interp="linr"  time="-9999999/1" value="0" leadInLength="0/1"  />
             </VectorParam>
             <VectorParam id="1223"  name="scale">
              <InterpolatingParam id="1224" interp="linr"  time="-9999999/1" value="1" leadInLength="0/1"  />
              <InterpolatingParam id="1225" interp="linr"  time="-9999999/1" value="1" leadInLength="0/1"  />
              <InterpolatingParam id="1226" interp="linr"  time="-9999999/1" value="1" leadInLength="0/1"  />
             </VectorParam>
             <VectorParam id="1227"  name="anchor">
              <InterpolatingParam id="1228" interp="linr"  time="0/1" value="0" leadInLength="0/1"  />
              <InterpolatingParam id="1229" interp="linr"  time="0/1" value="0" leadInLength="0/1"  />
              <InterpolatingParam id="1230" interp="linr"  time="0/1" value="0" leadInLength="0/1"  />
             </VectorParam>
            </Transformer>
            <Parameters>
             <VectorParam id="1231"  name="sourceCrop">
              <InterpolatingParam id="1232" interp="linr"  time="0/1" value="0" leadInLength="0/1"  />
              <InterpolatingParam id="1233" interp="linr"  time="0/1" value="0" leadInLength="0/1"  />
              <InterpolatingParam id="1234" interp="linr"  time="0/1" value="0" leadInLength="0/1"  />
              <InterpolatingParam id="1235" interp="linr"  time="0/1" value="0" leadInLength="0/1"  />
             </VectorParam>
             <VectorParam id="1236"  name="geometryCrop">
              <InterpolatingParam id="1237" interp="linr"  time="-9999999/1" value="0" leadInLength="0/1"  />
              <InterpolatingParam id="1238" interp="linr"  time="-9999999/1" value="0" leadInLength="0/1"  />
              <InterpolatingParam id="1239" interp="linr"  time="-9999999/1" value="0" leadInLength="0/1"  />
              <InterpolatingParam id="1240" interp="linr"  time="-9999999/1" value="0" leadInLength="0/1"  />
             </VectorParam>
             <InterpolatingParam id="1241" interp="linr"  time="-9999999/1" value="1" leadInLength="0/1"  name="opacity"/>
             <InterpolatingParam id="1242" interp="linr"  time="0/1" value="0" leadInLength="0/1"  name="cursorOpacity"/>
             <InterpolatingParam id="1243" interp="linr"  time="0/1" value="0" leadInLength="0/1"  name="cursorScale"/>
            </Parameters>
            <Attributes>
             <Attribute id="1244" value="" name="ident"/>
            </Attributes>
            <MetaData>
             <entry key="AutoAppliedSmartFocus" val="False"/>
             <entry key="WinSubProjectDisplayName" val=""/>
            </MetaData>
            <ExtraData>
             <Entry key="ZoomPanBin">
              <ZoomPanBin id="1245"  >
               <ZoomPanKeyframes>
                <ZoomPanKeyframe id="1246" timeRangeEnd="-9999999/1" timeRangeDuration="0/1" interpolaterName="linr"  />
               </ZoomPanKeyframes>
              </ZoomPanBin>
             </Entry>
             <Entry key="CursorEffectBin">
              <CursorEffectBin id="1247"  >
               <CursorEffectKeyframes>
               </CursorEffectKeyframes>
              </CursorEffectBin>
             </Entry>
            </ExtraData>
           </ScreenVMFile>
           <ScreenVMFile id="1248" start="5378" duration="8" scalar="1/1" mediaStart="10279/1" mediaDuration="8/1" trackNumber="0" src="6" >
            <Transformer>
             <VectorParam id="1249"  name="translation">
              <InterpolatingParam id="1250" interp="linr"  time="-9999999/1" value="0" leadInLength="0/1"  />
              <InterpolatingParam id="1251" interp="linr"  time="-9999999/1" value="0" leadInLength="0/1"  />
              <InterpolatingParam id="1252" interp="linr"  time="-9999999/1" value="0" leadInLength="0/1"  />
             </VectorParam>
             <VectorParam id="1253"  name="rotation">
              <InterpolatingParam id="1254" interp="linr"  time="-9999999/1" value="0" leadInLength="0/1"  />
              <InterpolatingParam id="1255" interp="linr"  time="-9999999/1" value="0" leadInLength="0/1"  />
              <InterpolatingParam id="1256" interp="linr"  time="-9999999/1" value="0" leadInLength="0/1"  />
             </VectorParam>
             <VectorParam id="1257"  name="shear">
              <InterpolatingParam id="1258" interp="linr"  time="-9999999/1" value="0" leadInLength="0/1"  />
              <InterpolatingParam id="1259" interp="linr"  time="-9999999/1" value="0" leadInLength="0/1"  />
              <InterpolatingParam id="1260" interp="linr"  time="-9999999/1" value="0" leadInLength="0/1"  />
             </VectorParam>
             <VectorParam id="1261"  name="scale">
              <InterpolatingParam id="1262" interp="linr"  time="-9999999/1" value="1" leadInLength="0/1"  />
              <InterpolatingParam id="1263" interp="linr"  time="-9999999/1" value="1" leadInLength="0/1"  />
              <InterpolatingParam id="1264" interp="linr"  time="-9999999/1" value="1" leadInLength="0/1"  />
             </VectorParam>
             <VectorParam id="1265"  name="anchor">
              <InterpolatingParam id="1266" interp="linr"  time="0/1" value="0" leadInLength="0/1"  />
              <InterpolatingParam id="1267" interp="linr"  time="0/1" value="0" leadInLength="0/1"  />
              <InterpolatingParam id="1268" interp="linr"  time="0/1" value="0" leadInLength="0/1"  />
             </VectorParam>
            </Transformer>
            <Parameters>
             <VectorParam id="1269"  name="sourceCrop">
              <InterpolatingParam id="1270" interp="linr"  time="0/1" value="0" leadInLength="0/1"  />
              <InterpolatingParam id="1271" interp="linr"  time="0/1" value="0" leadInLength="0/1"  />
              <InterpolatingParam id="1272" interp="linr"  time="0/1" value="0" leadInLength="0/1"  />
              <InterpolatingParam id="1273" interp="linr"  time="0/1" value="0" leadInLength="0/1"  />
             </VectorParam>
             <VectorParam id="1274"  name="geometryCrop">
              <InterpolatingParam id="1275" interp="linr"  time="-9999999/1" value="0" leadInLength="0/1"  />
              <InterpolatingParam id="1276" interp="linr"  time="-9999999/1" value="0" leadInLength="0/1"  />
              <InterpolatingParam id="1277" interp="linr"  time="-9999999/1" value="0" leadInLength="0/1"  />
              <InterpolatingParam id="1278" interp="linr"  time="-9999999/1" value="0" leadInLength="0/1"  />
             </VectorParam>
             <InterpolatingParam id="1279" interp="linr"  time="-9999999/1" value="1" leadInLength="0/1"  name="opacity"/>
             <InterpolatingParam id="1280" interp="linr"  time="0/1" value="0" leadInLength="0/1"  name="cursorOpacity"/>
             <InterpolatingParam id="1281" interp="linr"  time="0/1" value="0" leadInLength="0/1"  name="cursorScale"/>
            </Parameters>
            <Attributes>
             <Attribute id="1282" value="" name="ident"/>
            </Attributes>
            <MetaData>
             <entry key="AutoAppliedSmartFocus" val="False"/>
             <entry key="WinSubProjectDisplayName" val=""/>
            </MetaData>
            <ExtraData>
             <Entry key="ZoomPanBin">
              <ZoomPanBin id="1283"  >
               <ZoomPanKeyframes>
                <ZoomPanKeyframe id="1284" timeRangeEnd="-9999999/1" timeRangeDuration="0/1" interpolaterName="linr"  />
               </ZoomPanKeyframes>
              </ZoomPanBin>
             </Entry>
             <Entry key="CursorEffectBin">
              <CursorEffectBin id="1285"  >
               <CursorEffectKeyframes>
               </CursorEffectKeyframes>
              </CursorEffectBin>
             </Entry>
            </ExtraData>
           </ScreenVMFile>
          </Medias>
         </GenericTrack>
        </StitchedMedia>
       </Medias>
      </GenericTrack>
      <GenericTrack id="1286"  >
       <Attributes>
        <Attribute id="1287" value="" name="ident"/>
        <Attribute id="1288" value="0" name="audioMuted"/>
        <Attribute id="1289" value="0" name="videoHidden"/>
       </Attributes>
       <MetaData>
        <entry key="IsLocked" val="False"/>
        <entry key="WinTrackHeight" val="62"/>
       </MetaData>
       <Medias>
        <StitchedMedia id="1290" start="0" duration="3574" scalar="1/1" mediaStart="0/1" mediaDuration="3574/1" minMediaStart="0/1" >
         <Transformer>
          <VectorParam id="1291"  name="translation">
           <InterpolatingParam id="1292" interp="linr"  time="-9999999/1" value="0" leadInLength="0/1"  interpolater="leadin-linr"  />
           <InterpolatingParam id="1293" interp="linr"  time="-9999999/1" value="0" leadInLength="0/1"  interpolater="leadin-linr"  />
           <InterpolatingParam id="1294" interp="linr"  time="-9999999/1" value="0" leadInLength="0/1"  interpolater="leadin-linr"  />
          </VectorParam>
          <VectorParam id="1295"  name="rotation">
           <InterpolatingParam id="1296" interp="linr"  time="-9999999/1" value="0" leadInLength="0/1"  interpolater="leadin-linr"  />
           <InterpolatingParam id="1297" interp="linr"  time="-9999999/1" value="0" leadInLength="0/1"  interpolater="leadin-linr"  />
           <InterpolatingParam id="1298" interp="linr"  time="-9999999/1" value="0" leadInLength="0/1"  interpolater="leadin-linr"  />
          </VectorParam>
          <VectorParam id="1299"  name="shear">
           <InterpolatingParam id="1300" interp="linr"  time="-9999999/1" value="0" leadInLength="0/1"  interpolater="leadin-linr"  />
           <InterpolatingParam id="1301" interp="linr"  time="-9999999/1" value="0" leadInLength="0/1"  interpolater="leadin-linr"  />
           <InterpolatingParam id="1302" interp="linr"  time="-9999999/1" value="0" leadInLength="0/1"  interpolater="leadin-linr"  />
          </VectorParam>
          <VectorParam id="1303"  name="scale">
           <InterpolatingParam id="1304" interp="linr"  time="-9999999/1" value="0.9375" leadInLength="0/1"  interpolater="leadin-linr"  />
           <InterpolatingParam id="1305" interp="linr"  time="-9999999/1" value="0.9375" leadInLength="0/1"  interpolater="leadin-linr"  />
           <InterpolatingParam id="1306" interp="linr"  time="-9999999/1" value="1" leadInLength="0/1"  interpolater="leadin-linr"  />
          </VectorParam>
          <VectorParam id="1307"  name="anchor">
           <InterpolatingParam id="1308" interp="linr"  time="0/1" value="0" leadInLength="0/1"  />
           <InterpolatingParam id="1309" interp="linr"  time="0/1" value="0" leadInLength="0/1"  />
           <InterpolatingParam id="1310" interp="linr"  time="0/1" value="0" leadInLength="0/1"  />
          </VectorParam>
         </Transformer>
         <Parameters>
          <VectorParam id="1311"  name="sourceCrop">
           <InterpolatingParam id="1312" interp="linr"  time="0/1" value="0" leadInLength="0/1"  />
           <InterpolatingParam id="1313" interp="linr"  time="0/1" value="0" leadInLength="0/1"  />
           <InterpolatingParam id="1314" interp="linr"  time="0/1" value="0" leadInLength="0/1"  />
           <InterpolatingParam id="1315" interp="linr"  time="0/1" value="0" leadInLength="0/1"  />
          </VectorParam>
          <VectorParam id="1316"  name="geometryCrop">
           <InterpolatingParam id="1317" interp="linr"  time="-9999999/1" value="0" leadInLength="0/1"  interpolater="leadin-linr"  />
           <InterpolatingParam id="1318" interp="linr"  time="-9999999/1" value="0" leadInLength="0/1"  interpolater="leadin-linr"  />
           <InterpolatingParam id="1319" interp="linr"  time="-9999999/1" value="0" leadInLength="0/1"  interpolater="leadin-linr"  />
           <InterpolatingParam id="1320" interp="linr"  time="-9999999/1" value="0" leadInLength="0/1"  interpolater="leadin-linr"  />
          </VectorParam>
          <InterpolatingParam id="1321" interp="linr"  time="-9999999/1" value="1" leadInLength="0/1"  interpolater="leadin-linr"  name="opacity"/>
          <InterpolatingParam id="1322" interp="linr"  time="0/1" value="1" leadInLength="0/1"  name="cursorOpacity"/>
          <InterpolatingParam id="1323" interp="linr"  time="0/1" value="1" leadInLength="0/1"  name="cursorScale"/>
          <Parameter id="1324"  name="captions"/>
         </Parameters>
         <Effects>
          <GenericEffect id="1325" name = "CursorBaseEffectName" >
           <Parameters>
           <InterpolatingParam id="1326" interp="linr"  time="-9999999/1" value="1" leadInLength="0/1"   name="cursorSize"/>
           <InterpolatingParam id="1327" interp="linr"  time="-9999999/1" value="0" leadInLength="0/1"   name="highlightBlurRadius"/>
           <InterpolatingParam id="1328" interp="linr"  time="-9999999/1" value="0" leadInLength="0/1"   name="highlightColorBlue"/>
           <InterpolatingParam id="1329" interp="linr"  time="-9999999/1" value="255" leadInLength="0/1"   name="highlightColorGreen"/>
           <InterpolatingParam id="1330" interp="linr"  time="-9999999/1" value="255" leadInLength="0/1"   name="highlightColorRed"/>
           <InterpolatingParam id="1331" interp="linr"  time="-9999999/1" value="5" leadInLength="0/1"   name="highlightFeatherSize"/>
           <InterpolatingParam id="1332" interp="linr"  time="-9999999/1" value="2" leadInLength="0/1"   name="highlightMagnification"/>
           <InterpolatingParam id="1333" interp="linr"  time="-9999999/1" value="1" leadInLength="0/1"   name="highlightOpacity"/>
           <InterpolatingParam id="1334" interp="linr"  time="-9999999/1" value="45" leadInLength="0/1"   name="highlightSize"/>
           <Parameter id="1335"   name="highlightType">
            <Keyframes>
            <Keyframe id="1336"  time="-9999999/1" value="0" leadInLength="0/1"  />
            </Keyframes>
           </Parameter>
           <InterpolatingParam id="1337" interp="linr"  time="-9999999/1" value="0" leadInLength="0/1"   name="leftClickColorBlue"/>
           <InterpolatingParam id="1338" interp="linr"  time="-9999999/1" value="0" leadInLength="0/1"   name="leftClickColorGreen"/>
           <InterpolatingParam id="1339" interp="linr"  time="-9999999/1" value="255" leadInLength="0/1"   name="leftClickColorRed"/>
           <InterpolatingParam id="1340" interp="linr"  time="-9999999/1" value="0.80000000000000004" leadInLength="0/1"   name="leftClickDuration"/>
           <InterpolatingParam id="1341" interp="linr"  time="-9999999/1" value="20" leadInLength="0/1"   name="leftClickSize"/>
           <Parameter id="1342"   name="leftClickSoundFilename">
            <Keyframes>
            <Keyframe id="1343"  time="-9999999/1" value="" leadInLength="0/1"  />
            </Keyframes>
           </Parameter>
           <InterpolatingParam id="1344" interp="linr"  time="-9999999/1" value="1" leadInLength="0/1"   name="leftClickSoundVolume"/>
           <Parameter id="1345"   name="leftClickType">
            <Keyframes>
            <Keyframe id="1346"  time="-9999999/1" value="0" leadInLength="0/1"  />
            </Keyframes>
           </Parameter>
           <InterpolatingParam id="1347" interp="linr"  time="-9999999/1" value="1" leadInLength="0/1"   name="opacity"/>
           <InterpolatingParam id="1348" interp="linr"  time="-9999999/1" value="255" leadInLength="0/1"   name="rightClickColorBlue"/>
           <InterpolatingParam id="1349" interp="linr"  time="-9999999/1" value="0" leadInLength="0/1"   name="rightClickColorGreen"/>
           <InterpolatingParam id="1350" interp="linr"  time="-9999999/1" value="0" leadInLength="0/1"   name="rightClickColorRed"/>
           <InterpolatingParam id="1351" interp="linr"  time="-9999999/1" value="0.80000000000000004" leadInLength="0/1"   name="rightClickDuration"/>
           <InterpolatingParam id="1352" interp="linr"  time="-9999999/1" value="20" leadInLength="0/1"   name="rightClickSize"/>
           <Parameter id="1353"   name="rightClickSoundFilename">
            <Keyframes>
            <Keyframe id="1354"  time="-9999999/1" value="" leadInLength="0/1"  />
            </Keyframes>
           </Parameter>
           <InterpolatingParam id="1355" interp="linr"  time="-9999999/1" value="1" leadInLength="0/1"   name="rightClickSoundVolume"/>
           <Parameter id="1356"   name="rightClickType">
            <Keyframes>
            <Keyframe id="1357"  time="-9999999/1" value="0" leadInLength="0/1"  />
            </Keyframes>
           </Parameter>
           </Parameters>
          </GenericEffect>
         </Effects>
         <Attributes>
          <Attribute id="1358" value="" name="ident"/>
         </Attributes>
         <MetaData>
          <entry key="AutoAppliedSmartFocus" val="False"/>
          <entry key="WinSubProjectDisplayName" val=""/>
         </MetaData>
         <ExtraData>
          <Entry key="ZoomPanBin">
           <ZoomPanBin id="1359"  >
            <ZoomPanKeyframes>
             <ZoomPanKeyframe id="1360" timeRangeEnd="-9999999/1" timeRangeDuration="0/1" interpolaterName="linr"  />
            </ZoomPanKeyframes>
           </ZoomPanBin>
          </Entry>
          <Entry key="CursorEffectBin">
           <CursorEffectBin id="1361"  >
            <CursorEffectKeyframes>
             <CursorEffectKeyframe id="1362" timeRangeEnd="-9999999/1" timeRangeDuration="0/1" interpolaterName=""  />
            </CursorEffectKeyframes>
           </CursorEffectBin>
          </Entry>
         </ExtraData>
         <GenericTrack id="1363"  >
          <Attributes>
           <Attribute id="1364" value="" name="ident"/>
           <Attribute id="1365" value="0" name="audioMuted"/>
           <Attribute id="1366" value="0" name="videoHidden"/>
          </Attributes>
          <MetaData>
           <entry key="IsLocked" val="False"/>
           <entry key="WinTrackHeight" val="0"/>
          </MetaData>
          <Medias>
           <ScreenVMFile id="1367" start="0" duration="314" scalar="1/1" mediaStart="0/1" mediaDuration="314/1" trackNumber="0" src="4" >
            <Transformer>
             <VectorParam id="1368"  name="translation">
              <InterpolatingParam id="1369" interp="linr"  time="-9999999/1" value="0" leadInLength="0/1"  />
              <InterpolatingParam id="1370" interp="linr"  time="-9999999/1" value="0" leadInLength="0/1"  />
              <InterpolatingParam id="1371" interp="linr"  time="-9999999/1" value="0" leadInLength="0/1"  />
             </VectorParam>
             <VectorParam id="1372"  name="rotation">
              <InterpolatingParam id="1373" interp="linr"  time="-9999999/1" value="0" leadInLength="0/1"  />
              <InterpolatingParam id="1374" interp="linr"  time="-9999999/1" value="0" leadInLength="0/1"  />
              <InterpolatingParam id="1375" interp="linr"  time="-9999999/1" value="0" leadInLength="0/1"  />
             </VectorParam>
             <VectorParam id="1376"  name="shear">
              <InterpolatingParam id="1377" interp="linr"  time="-9999999/1" value="0" leadInLength="0/1"  />
              <InterpolatingParam id="1378" interp="linr"  time="-9999999/1" value="0" leadInLength="0/1"  />
              <InterpolatingParam id="1379" interp="linr"  time="-9999999/1" value="0" leadInLength="0/1"  />
             </VectorParam>
             <VectorParam id="1380"  name="scale">
              <InterpolatingParam id="1381" interp="linr"  time="-9999999/1" value="1" leadInLength="0/1"  />
              <InterpolatingParam id="1382" interp="linr"  time="-9999999/1" value="1" leadInLength="0/1"  />
              <InterpolatingParam id="1383" interp="linr"  time="-9999999/1" value="1" leadInLength="0/1"  />
             </VectorParam>
             <VectorParam id="1384"  name="anchor">
              <InterpolatingParam id="1385" interp="linr"  time="0/1" value="0" leadInLength="0/1"  />
              <InterpolatingParam id="1386" interp="linr"  time="0/1" value="0" leadInLength="0/1"  />
              <InterpolatingParam id="1387" interp="linr"  time="0/1" value="0" leadInLength="0/1"  />
             </VectorParam>
            </Transformer>
            <Parameters>
             <VectorParam id="1388"  name="sourceCrop">
              <InterpolatingParam id="1389" interp="linr"  time="0/1" value="0" leadInLength="0/1"  />
              <InterpolatingParam id="1390" interp="linr"  time="0/1" value="0" leadInLength="0/1"  />
              <InterpolatingParam id="1391" interp="linr"  time="0/1" value="0" leadInLength="0/1"  />
              <InterpolatingParam id="1392" interp="linr"  time="0/1" value="0" leadInLength="0/1"  />
             </VectorParam>
             <VectorParam id="1393"  name="geometryCrop">
              <InterpolatingParam id="1394" interp="linr"  time="-9999999/1" value="0" leadInLength="0/1"  />
              <InterpolatingParam id="1395" interp="linr"  time="-9999999/1" value="0" leadInLength="0/1"  />
              <InterpolatingParam id="1396" interp="linr"  time="-9999999/1" value="0" leadInLength="0/1"  />
              <InterpolatingParam id="1397" interp="linr"  time="-9999999/1" value="0" leadInLength="0/1"  />
             </VectorParam>
             <InterpolatingParam id="1398" interp="linr"  time="-9999999/1" value="1" leadInLength="0/1"  name="opacity"/>
             <InterpolatingParam id="1399" interp="linr"  time="0/1" value="0" leadInLength="0/1"  name="cursorOpacity"/>
             <InterpolatingParam id="1400" interp="linr"  time="0/1" value="0" leadInLength="0/1"  name="cursorScale"/>
            </Parameters>
            <Attributes>
             <Attribute id="1401" value="" name="ident"/>
            </Attributes>
            <MetaData>
             <entry key="AutoAppliedSmartFocus" val="False"/>
             <entry key="WinSubProjectDisplayName" val=""/>
            </MetaData>
            <ExtraData>
             <Entry key="ZoomPanBin">
              <ZoomPanBin id="1402"  >
               <ZoomPanKeyframes>
                <ZoomPanKeyframe id="1403" timeRangeEnd="-9999999/1" timeRangeDuration="0/1" interpolaterName="linr"  />
               </ZoomPanKeyframes>
              </ZoomPanBin>
             </Entry>
             <Entry key="CursorEffectBin">
              <CursorEffectBin id="1404"  >
               <CursorEffectKeyframes>
               </CursorEffectKeyframes>
              </CursorEffectBin>
             </Entry>
            </ExtraData>
           </ScreenVMFile>
           <ScreenVMFile id="1405" start="314" duration="581" scalar="1/1" mediaStart="352/1" mediaDuration="581/1" trackNumber="0" src="4" >
            <Transformer>
             <VectorParam id="1406"  name="translation">
              <InterpolatingParam id="1407" interp="linr"  time="-9999999/1" value="0" leadInLength="0/1"  />
              <InterpolatingParam id="1408" interp="linr"  time="-9999999/1" value="0" leadInLength="0/1"  />
              <InterpolatingParam id="1409" interp="linr"  time="-9999999/1" value="0" leadInLength="0/1"  />
             </VectorParam>
             <VectorParam id="1410"  name="rotation">
              <InterpolatingParam id="1411" interp="linr"  time="-9999999/1" value="0" leadInLength="0/1"  />
              <InterpolatingParam id="1412" interp="linr"  time="-9999999/1" value="0" leadInLength="0/1"  />
              <InterpolatingParam id="1413" interp="linr"  time="-9999999/1" value="0" leadInLength="0/1"  />
             </VectorParam>
             <VectorParam id="1414"  name="shear">
              <InterpolatingParam id="1415" interp="linr"  time="-9999999/1" value="0" leadInLength="0/1"  />
              <InterpolatingParam id="1416" interp="linr"  time="-9999999/1" value="0" leadInLength="0/1"  />
              <InterpolatingParam id="1417" interp="linr"  time="-9999999/1" value="0" leadInLength="0/1"  />
             </VectorParam>
             <VectorParam id="1418"  name="scale">
              <InterpolatingParam id="1419" interp="linr"  time="-9999999/1" value="1" leadInLength="0/1"  />
              <InterpolatingParam id="1420" interp="linr"  time="-9999999/1" value="1" leadInLength="0/1"  />
              <InterpolatingParam id="1421" interp="linr"  time="-9999999/1" value="1" leadInLength="0/1"  />
             </VectorParam>
             <VectorParam id="1422"  name="anchor">
              <InterpolatingParam id="1423" interp="linr"  time="0/1" value="0" leadInLength="0/1"  />
              <InterpolatingParam id="1424" interp="linr"  time="0/1" value="0" leadInLength="0/1"  />
              <InterpolatingParam id="1425" interp="linr"  time="0/1" value="0" leadInLength="0/1"  />
             </VectorParam>
            </Transformer>
            <Parameters>
             <VectorParam id="1426"  name="sourceCrop">
              <InterpolatingParam id="1427" interp="linr"  time="0/1" value="0" leadInLength="0/1"  />
              <InterpolatingParam id="1428" interp="linr"  time="0/1" value="0" leadInLength="0/1"  />
              <InterpolatingParam id="1429" interp="linr"  time="0/1" value="0" leadInLength="0/1"  />
              <InterpolatingParam id="1430" interp="linr"  time="0/1" value="0" leadInLength="0/1"  />
             </VectorParam>
             <VectorParam id="1431"  name="geometryCrop">
              <InterpolatingParam id="1432" interp="linr"  time="-9999999/1" value="0" leadInLength="0/1"  />
              <InterpolatingParam id="1433" interp="linr"  time="-9999999/1" value="0" leadInLength="0/1"  />
              <InterpolatingParam id="1434" interp="linr"  time="-9999999/1" value="0" leadInLength="0/1"  />
              <InterpolatingParam id="1435" interp="linr"  time="-9999999/1" value="0" leadInLength="0/1"  />
             </VectorParam>
             <InterpolatingParam id="1436" interp="linr"  time="-9999999/1" value="1" leadInLength="0/1"  name="opacity"/>
             <InterpolatingParam id="1437" interp="linr"  time="0/1" value="0" leadInLength="0/1"  name="cursorOpacity"/>
             <InterpolatingParam id="1438" interp="linr"  time="0/1" value="0" leadInLength="0/1"  name="cursorScale"/>
            </Parameters>
            <Attributes>
             <Attribute id="1439" value="" name="ident"/>
            </Attributes>
            <MetaData>
             <entry key="AutoAppliedSmartFocus" val="False"/>
             <entry key="WinSubProjectDisplayName" val=""/>
            </MetaData>
            <ExtraData>
             <Entry key="ZoomPanBin">
              <ZoomPanBin id="1440"  >
               <ZoomPanKeyframes>
                <ZoomPanKeyframe id="1441" timeRangeEnd="-9999999/1" timeRangeDuration="0/1" interpolaterName="linr"  />
               </ZoomPanKeyframes>
              </ZoomPanBin>
             </Entry>
             <Entry key="CursorEffectBin">
              <CursorEffectBin id="1442"  >
               <CursorEffectKeyframes>
               </CursorEffectKeyframes>
              </CursorEffectBin>
             </Entry>
            </ExtraData>
           </ScreenVMFile>
           <ScreenVMFile id="1443" start="895" duration="1448" scalar="1/1" mediaStart="1141/1" mediaDuration="1448/1" trackNumber="0" src="4" >
            <Transformer>
             <VectorParam id="1444"  name="translation">
              <InterpolatingParam id="1445" interp="linr"  time="-9999999/1" value="0" leadInLength="0/1"  />
              <InterpolatingParam id="1446" interp="linr"  time="-9999999/1" value="0" leadInLength="0/1"  />
              <InterpolatingParam id="1447" interp="linr"  time="-9999999/1" value="0" leadInLength="0/1"  />
             </VectorParam>
             <VectorParam id="1448"  name="rotation">
              <InterpolatingParam id="1449" interp="linr"  time="-9999999/1" value="0" leadInLength="0/1"  />
              <InterpolatingParam id="1450" interp="linr"  time="-9999999/1" value="0" leadInLength="0/1"  />
              <InterpolatingParam id="1451" interp="linr"  time="-9999999/1" value="0" leadInLength="0/1"  />
             </VectorParam>
             <VectorParam id="1452"  name="shear">
              <InterpolatingParam id="1453" interp="linr"  time="-9999999/1" value="0" leadInLength="0/1"  />
              <InterpolatingParam id="1454" interp="linr"  time="-9999999/1" value="0" leadInLength="0/1"  />
              <InterpolatingParam id="1455" interp="linr"  time="-9999999/1" value="0" leadInLength="0/1"  />
             </VectorParam>
             <VectorParam id="1456"  name="scale">
              <InterpolatingParam id="1457" interp="linr"  time="-9999999/1" value="1" leadInLength="0/1"  />
              <InterpolatingParam id="1458" interp="linr"  time="-9999999/1" value="1" leadInLength="0/1"  />
              <InterpolatingParam id="1459" interp="linr"  time="-9999999/1" value="1" leadInLength="0/1"  />
             </VectorParam>
             <VectorParam id="1460"  name="anchor">
              <InterpolatingParam id="1461" interp="linr"  time="0/1" value="0" leadInLength="0/1"  />
              <InterpolatingParam id="1462" interp="linr"  time="0/1" value="0" leadInLength="0/1"  />
              <InterpolatingParam id="1463" interp="linr"  time="0/1" value="0" leadInLength="0/1"  />
             </VectorParam>
            </Transformer>
            <Parameters>
             <VectorParam id="1464"  name="sourceCrop">
              <InterpolatingParam id="1465" interp="linr"  time="0/1" value="0" leadInLength="0/1"  />
              <InterpolatingParam id="1466" interp="linr"  time="0/1" value="0" leadInLength="0/1"  />
              <InterpolatingParam id="1467" interp="linr"  time="0/1" value="0" leadInLength="0/1"  />
              <InterpolatingParam id="1468" interp="linr"  time="0/1" value="0" leadInLength="0/1"  />
             </VectorParam>
             <VectorParam id="1469"  name="geometryCrop">
              <InterpolatingParam id="1470" interp="linr"  time="-9999999/1" value="0" leadInLength="0/1"  />
              <InterpolatingParam id="1471" interp="linr"  time="-9999999/1" value="0" leadInLength="0/1"  />
              <InterpolatingParam id="1472" interp="linr"  time="-9999999/1" value="0" leadInLength="0/1"  />
              <InterpolatingParam id="1473" interp="linr"  time="-9999999/1" value="0" leadInLength="0/1"  />
             </VectorParam>
             <InterpolatingParam id="1474" interp="linr"  time="-9999999/1" value="1" leadInLength="0/1"  name="opacity"/>
             <InterpolatingParam id="1475" interp="linr"  time="0/1" value="0" leadInLength="0/1"  name="cursorOpacity"/>
             <InterpolatingParam id="1476" interp="linr"  time="0/1" value="0" leadInLength="0/1"  name="cursorScale"/>
            </Parameters>
            <Attributes>
             <Attribute id="1477" value="" name="ident"/>
            </Attributes>
            <MetaData>
             <entry key="AutoAppliedSmartFocus" val="False"/>
             <entry key="WinSubProjectDisplayName" val=""/>
            </MetaData>
            <ExtraData>
             <Entry key="ZoomPanBin">
              <ZoomPanBin id="1478"  >
               <ZoomPanKeyframes>
                <ZoomPanKeyframe id="1479" timeRangeEnd="-9999999/1" timeRangeDuration="0/1" interpolaterName="linr"  />
               </ZoomPanKeyframes>
              </ZoomPanBin>
             </Entry>
             <Entry key="CursorEffectBin">
              <CursorEffectBin id="1480"  >
               <CursorEffectKeyframes>
               </CursorEffectKeyframes>
              </CursorEffectBin>
             </Entry>
            </ExtraData>
           </ScreenVMFile>
           <ScreenVMFile id="1481" start="2343" duration="89" scalar="1/1" mediaStart="2630/1" mediaDuration="89/1" trackNumber="0" src="4" >
            <Transformer>
             <VectorParam id="1482"  name="translation">
              <InterpolatingParam id="1483" interp="linr"  time="-9999999/1" value="0" leadInLength="0/1"  />
              <InterpolatingParam id="1484" interp="linr"  time="-9999999/1" value="0" leadInLength="0/1"  />
              <InterpolatingParam id="1485" interp="linr"  time="-9999999/1" value="0" leadInLength="0/1"  />
             </VectorParam>
             <VectorParam id="1486"  name="rotation">
              <InterpolatingParam id="1487" interp="linr"  time="-9999999/1" value="0" leadInLength="0/1"  />
              <InterpolatingParam id="1488" interp="linr"  time="-9999999/1" value="0" leadInLength="0/1"  />
              <InterpolatingParam id="1489" interp="linr"  time="-9999999/1" value="0" leadInLength="0/1"  />
             </VectorParam>
             <VectorParam id="1490"  name="shear">
              <InterpolatingParam id="1491" interp="linr"  time="-9999999/1" value="0" leadInLength="0/1"  />
              <InterpolatingParam id="1492" interp="linr"  time="-9999999/1" value="0" leadInLength="0/1"  />
              <InterpolatingParam id="1493" interp="linr"  time="-9999999/1" value="0" leadInLength="0/1"  />
             </VectorParam>
             <VectorParam id="1494"  name="scale">
              <InterpolatingParam id="1495" interp="linr"  time="-9999999/1" value="1" leadInLength="0/1"  />
              <InterpolatingParam id="1496" interp="linr"  time="-9999999/1" value="1" leadInLength="0/1"  />
              <InterpolatingParam id="1497" interp="linr"  time="-9999999/1" value="1" leadInLength="0/1"  />
             </VectorParam>
             <VectorParam id="1498"  name="anchor">
              <InterpolatingParam id="1499" interp="linr"  time="0/1" value="0" leadInLength="0/1"  />
              <InterpolatingParam id="1500" interp="linr"  time="0/1" value="0" leadInLength="0/1"  />
              <InterpolatingParam id="1501" interp="linr"  time="0/1" value="0" leadInLength="0/1"  />
             </VectorParam>
            </Transformer>
            <Parameters>
             <VectorParam id="1502"  name="sourceCrop">
              <InterpolatingParam id="1503" interp="linr"  time="0/1" value="0" leadInLength="0/1"  />
              <InterpolatingParam id="1504" interp="linr"  time="0/1" value="0" leadInLength="0/1"  />
              <InterpolatingParam id="1505" interp="linr"  time="0/1" value="0" leadInLength="0/1"  />
              <InterpolatingParam id="1506" interp="linr"  time="0/1" value="0" leadInLength="0/1"  />
             </VectorParam>
             <VectorParam id="1507"  name="geometryCrop">
              <InterpolatingParam id="1508" interp="linr"  time="-9999999/1" value="0" leadInLength="0/1"  />
              <InterpolatingParam id="1509" interp="linr"  time="-9999999/1" value="0" leadInLength="0/1"  />
              <InterpolatingParam id="1510" interp="linr"  time="-9999999/1" value="0" leadInLength="0/1"  />
              <InterpolatingParam id="1511" interp="linr"  time="-9999999/1" value="0" leadInLength="0/1"  />
             </VectorParam>
             <InterpolatingParam id="1512" interp="linr"  time="-9999999/1" value="1" leadInLength="0/1"  name="opacity"/>
             <InterpolatingParam id="1513" interp="linr"  time="0/1" value="0" leadInLength="0/1"  name="cursorOpacity"/>
             <InterpolatingParam id="1514" interp="linr"  time="0/1" value="0" leadInLength="0/1"  name="cursorScale"/>
            </Parameters>
            <Attributes>
             <Attribute id="1515" value="" name="ident"/>
            </Attributes>
            <MetaData>
             <entry key="AutoAppliedSmartFocus" val="False"/>
             <entry key="WinSubProjectDisplayName" val=""/>
            </MetaData>
            <ExtraData>
             <Entry key="ZoomPanBin">
              <ZoomPanBin id="1516"  >
               <ZoomPanKeyframes>
                <ZoomPanKeyframe id="1517" timeRangeEnd="-9999999/1" timeRangeDuration="0/1" interpolaterName="linr"  />
               </ZoomPanKeyframes>
              </ZoomPanBin>
             </Entry>
             <Entry key="CursorEffectBin">
              <CursorEffectBin id="1518"  >
               <CursorEffectKeyframes>
               </CursorEffectKeyframes>
              </CursorEffectBin>
             </Entry>
            </ExtraData>
           </ScreenVMFile>
           <ScreenVMFile id="1519" start="2432" duration="72" scalar="1/1" mediaStart="2854/1" mediaDuration="72/1" trackNumber="0" src="4" >
            <Transformer>
             <VectorParam id="1520"  name="translation">
              <InterpolatingParam id="1521" interp="linr"  time="-9999999/1" value="0" leadInLength="0/1"  />
              <InterpolatingParam id="1522" interp="linr"  time="-9999999/1" value="0" leadInLength="0/1"  />
              <InterpolatingParam id="1523" interp="linr"  time="-9999999/1" value="0" leadInLength="0/1"  />
             </VectorParam>
             <VectorParam id="1524"  name="rotation">
              <InterpolatingParam id="1525" interp="linr"  time="-9999999/1" value="0" leadInLength="0/1"  />
              <InterpolatingParam id="1526" interp="linr"  time="-9999999/1" value="0" leadInLength="0/1"  />
              <InterpolatingParam id="1527" interp="linr"  time="-9999999/1" value="0" leadInLength="0/1"  />
             </VectorParam>
             <VectorParam id="1528"  name="shear">
              <InterpolatingParam id="1529" interp="linr"  time="-9999999/1" value="0" leadInLength="0/1"  />
              <InterpolatingParam id="1530" interp="linr"  time="-9999999/1" value="0" leadInLength="0/1"  />
              <InterpolatingParam id="1531" interp="linr"  time="-9999999/1" value="0" leadInLength="0/1"  />
             </VectorParam>
             <VectorParam id="1532"  name="scale">
              <InterpolatingParam id="1533" interp="linr"  time="-9999999/1" value="1" leadInLength="0/1"  />
              <InterpolatingParam id="1534" interp="linr"  time="-9999999/1" value="1" leadInLength="0/1"  />
              <InterpolatingParam id="1535" interp="linr"  time="-9999999/1" value="1" leadInLength="0/1"  />
             </VectorParam>
             <VectorParam id="1536"  name="anchor">
              <InterpolatingParam id="1537" interp="linr"  time="0/1" value="0" leadInLength="0/1"  />
              <InterpolatingParam id="1538" interp="linr"  time="0/1" value="0" leadInLength="0/1"  />
              <InterpolatingParam id="1539" interp="linr"  time="0/1" value="0" leadInLength="0/1"  />
             </VectorParam>
            </Transformer>
            <Parameters>
             <VectorParam id="1540"  name="sourceCrop">
              <InterpolatingParam id="1541" interp="linr"  time="0/1" value="0" leadInLength="0/1"  />
              <InterpolatingParam id="1542" interp="linr"  time="0/1" value="0" leadInLength="0/1"  />
              <InterpolatingParam id="1543" interp="linr"  time="0/1" value="0" leadInLength="0/1"  />
              <InterpolatingParam id="1544" interp="linr"  time="0/1" value="0" leadInLength="0/1"  />
             </VectorParam>
             <VectorParam id="1545"  name="geometryCrop">
              <InterpolatingParam id="1546" interp="linr"  time="-9999999/1" value="0" leadInLength="0/1"  />
              <InterpolatingParam id="1547" interp="linr"  time="-9999999/1" value="0" leadInLength="0/1"  />
              <InterpolatingParam id="1548" interp="linr"  time="-9999999/1" value="0" leadInLength="0/1"  />
              <InterpolatingParam id="1549" interp="linr"  time="-9999999/1" value="0" leadInLength="0/1"  />
             </VectorParam>
             <InterpolatingParam id="1550" interp="linr"  time="-9999999/1" value="1" leadInLength="0/1"  name="opacity"/>
             <InterpolatingParam id="1551" interp="linr"  time="0/1" value="0" leadInLength="0/1"  name="cursorOpacity"/>
             <InterpolatingParam id="1552" interp="linr"  time="0/1" value="0" leadInLength="0/1"  name="cursorScale"/>
            </Parameters>
            <Attributes>
             <Attribute id="1553" value="" name="ident"/>
            </Attributes>
            <MetaData>
             <entry key="AutoAppliedSmartFocus" val="False"/>
             <entry key="WinSubProjectDisplayName" val=""/>
            </MetaData>
            <ExtraData>
             <Entry key="ZoomPanBin">
              <ZoomPanBin id="1554"  >
               <ZoomPanKeyframes>
                <ZoomPanKeyframe id="1555" timeRangeEnd="-9999999/1" timeRangeDuration="0/1" interpolaterName="linr"  />
               </ZoomPanKeyframes>
              </ZoomPanBin>
             </Entry>
             <Entry key="CursorEffectBin">
              <CursorEffectBin id="1556"  >
               <CursorEffectKeyframes>
               </CursorEffectKeyframes>
              </CursorEffectBin>
             </Entry>
            </ExtraData>
           </ScreenVMFile>
           <ScreenVMFile id="1557" start="2504" duration="1" scalar="1/1" mediaStart="3357/1" mediaDuration="1/1" trackNumber="0" src="4" >
            <Transformer>
             <VectorParam id="1558"  name="translation">
              <InterpolatingParam id="1559" interp="linr"  time="-9999999/1" value="0" leadInLength="0/1"  />
              <InterpolatingParam id="1560" interp="linr"  time="-9999999/1" value="0" leadInLength="0/1"  />
              <InterpolatingParam id="1561" interp="linr"  time="-9999999/1" value="0" leadInLength="0/1"  />
             </VectorParam>
             <VectorParam id="1562"  name="rotation">
              <InterpolatingParam id="1563" interp="linr"  time="-9999999/1" value="0" leadInLength="0/1"  />
              <InterpolatingParam id="1564" interp="linr"  time="-9999999/1" value="0" leadInLength="0/1"  />
              <InterpolatingParam id="1565" interp="linr"  time="-9999999/1" value="0" leadInLength="0/1"  />
             </VectorParam>
             <VectorParam id="1566"  name="shear">
              <InterpolatingParam id="1567" interp="linr"  time="-9999999/1" value="0" leadInLength="0/1"  />
              <InterpolatingParam id="1568" interp="linr"  time="-9999999/1" value="0" leadInLength="0/1"  />
              <InterpolatingParam id="1569" interp="linr"  time="-9999999/1" value="0" leadInLength="0/1"  />
             </VectorParam>
             <VectorParam id="1570"  name="scale">
              <InterpolatingParam id="1571" interp="linr"  time="-9999999/1" value="1" leadInLength="0/1"  />
              <InterpolatingParam id="1572" interp="linr"  time="-9999999/1" value="1" leadInLength="0/1"  />
              <InterpolatingParam id="1573" interp="linr"  time="-9999999/1" value="1" leadInLength="0/1"  />
             </VectorParam>
             <VectorParam id="1574"  name="anchor">
              <InterpolatingParam id="1575" interp="linr"  time="0/1" value="0" leadInLength="0/1"  />
              <InterpolatingParam id="1576" interp="linr"  time="0/1" value="0" leadInLength="0/1"  />
              <InterpolatingParam id="1577" interp="linr"  time="0/1" value="0" leadInLength="0/1"  />
             </VectorParam>
            </Transformer>
            <Parameters>
             <VectorParam id="1578"  name="sourceCrop">
              <InterpolatingParam id="1579" interp="linr"  time="0/1" value="0" leadInLength="0/1"  />
              <InterpolatingParam id="1580" interp="linr"  time="0/1" value="0" leadInLength="0/1"  />
              <InterpolatingParam id="1581" interp="linr"  time="0/1" value="0" leadInLength="0/1"  />
              <InterpolatingParam id="1582" interp="linr"  time="0/1" value="0" leadInLength="0/1"  />
             </VectorParam>
             <VectorParam id="1583"  name="geometryCrop">
              <InterpolatingParam id="1584" interp="linr"  time="-9999999/1" value="0" leadInLength="0/1"  />
              <InterpolatingParam id="1585" interp="linr"  time="-9999999/1" value="0" leadInLength="0/1"  />
              <InterpolatingParam id="1586" interp="linr"  time="-9999999/1" value="0" leadInLength="0/1"  />
              <InterpolatingParam id="1587" interp="linr"  time="-9999999/1" value="0" leadInLength="0/1"  />
             </VectorParam>
             <InterpolatingParam id="1588" interp="linr"  time="-9999999/1" value="1" leadInLength="0/1"  name="opacity"/>
             <InterpolatingParam id="1589" interp="linr"  time="0/1" value="0" leadInLength="0/1"  name="cursorOpacity"/>
             <InterpolatingParam id="1590" interp="linr"  time="0/1" value="0" leadInLength="0/1"  name="cursorScale"/>
            </Parameters>
            <Attributes>
             <Attribute id="1591" value="" name="ident"/>
            </Attributes>
            <MetaData>
             <entry key="AutoAppliedSmartFocus" val="False"/>
             <entry key="WinSubProjectDisplayName" val=""/>
            </MetaData>
            <ExtraData>
             <Entry key="ZoomPanBin">
              <ZoomPanBin id="1592"  >
               <ZoomPanKeyframes>
                <ZoomPanKeyframe id="1593" timeRangeEnd="-9999999/1" timeRangeDuration="0/1" interpolaterName="linr"  />
               </ZoomPanKeyframes>
              </ZoomPanBin>
             </Entry>
             <Entry key="CursorEffectBin">
              <CursorEffectBin id="1594"  >
               <CursorEffectKeyframes>
               </CursorEffectKeyframes>
              </CursorEffectBin>
             </Entry>
            </ExtraData>
           </ScreenVMFile>
           <ScreenVMFile id="1595" start="2505" duration="497" scalar="1/1" mediaStart="3647/1" mediaDuration="497/1" trackNumber="0" src="4" >
            <Transformer>
             <VectorParam id="1596"  name="translation">
              <InterpolatingParam id="1597" interp="linr"  time="-9999999/1" value="0" leadInLength="0/1"  />
              <InterpolatingParam id="1598" interp="linr"  time="-9999999/1" value="0" leadInLength="0/1"  />
              <InterpolatingParam id="1599" interp="linr"  time="-9999999/1" value="0" leadInLength="0/1"  />
             </VectorParam>
             <VectorParam id="1600"  name="rotation">
              <InterpolatingParam id="1601" interp="linr"  time="-9999999/1" value="0" leadInLength="0/1"  />
              <InterpolatingParam id="1602" interp="linr"  time="-9999999/1" value="0" leadInLength="0/1"  />
              <InterpolatingParam id="1603" interp="linr"  time="-9999999/1" value="0" leadInLength="0/1"  />
             </VectorParam>
             <VectorParam id="1604"  name="shear">
              <InterpolatingParam id="1605" interp="linr"  time="-9999999/1" value="0" leadInLength="0/1"  />
              <InterpolatingParam id="1606" interp="linr"  time="-9999999/1" value="0" leadInLength="0/1"  />
              <InterpolatingParam id="1607" interp="linr"  time="-9999999/1" value="0" leadInLength="0/1"  />
             </VectorParam>
             <VectorParam id="1608"  name="scale">
              <InterpolatingParam id="1609" interp="linr"  time="-9999999/1" value="1" leadInLength="0/1"  />
              <InterpolatingParam id="1610" interp="linr"  time="-9999999/1" value="1" leadInLength="0/1"  />
              <InterpolatingParam id="1611" interp="linr"  time="-9999999/1" value="1" leadInLength="0/1"  />
             </VectorParam>
             <VectorParam id="1612"  name="anchor">
              <InterpolatingParam id="1613" interp="linr"  time="0/1" value="0" leadInLength="0/1"  />
              <InterpolatingParam id="1614" interp="linr"  time="0/1" value="0" leadInLength="0/1"  />
              <InterpolatingParam id="1615" interp="linr"  time="0/1" value="0" leadInLength="0/1"  />
             </VectorParam>
            </Transformer>
            <Parameters>
             <VectorParam id="1616"  name="sourceCrop">
              <InterpolatingParam id="1617" interp="linr"  time="0/1" value="0" leadInLength="0/1"  />
              <InterpolatingParam id="1618" interp="linr"  time="0/1" value="0" leadInLength="0/1"  />
              <InterpolatingParam id="1619" interp="linr"  time="0/1" value="0" leadInLength="0/1"  />
              <InterpolatingParam id="1620" interp="linr"  time="0/1" value="0" leadInLength="0/1"  />
             </VectorParam>
             <VectorParam id="1621"  name="geometryCrop">
              <InterpolatingParam id="1622" interp="linr"  time="-9999999/1" value="0" leadInLength="0/1"  />
              <InterpolatingParam id="1623" interp="linr"  time="-9999999/1" value="0" leadInLength="0/1"  />
              <InterpolatingParam id="1624" interp="linr"  time="-9999999/1" value="0" leadInLength="0/1"  />
              <InterpolatingParam id="1625" interp="linr"  time="-9999999/1" value="0" leadInLength="0/1"  />
             </VectorParam>
             <InterpolatingParam id="1626" interp="linr"  time="-9999999/1" value="1" leadInLength="0/1"  name="opacity"/>
             <InterpolatingParam id="1627" interp="linr"  time="0/1" value="0" leadInLength="0/1"  name="cursorOpacity"/>
             <InterpolatingParam id="1628" interp="linr"  time="0/1" value="0" leadInLength="0/1"  name="cursorScale"/>
            </Parameters>
            <Attributes>
             <Attribute id="1629" value="" name="ident"/>
            </Attributes>
            <MetaData>
             <entry key="AutoAppliedSmartFocus" val="False"/>
             <entry key="WinSubProjectDisplayName" val=""/>
            </MetaData>
            <ExtraData>
             <Entry key="ZoomPanBin">
              <ZoomPanBin id="1630"  >
               <ZoomPanKeyframes>
                <ZoomPanKeyframe id="1631" timeRangeEnd="-9999999/1" timeRangeDuration="0/1" interpolaterName="linr"  />
               </ZoomPanKeyframes>
              </ZoomPanBin>
             </Entry>
             <Entry key="CursorEffectBin">
              <CursorEffectBin id="1632"  >
               <CursorEffectKeyframes>
               </CursorEffectKeyframes>
              </CursorEffectBin>
             </Entry>
            </ExtraData>
           </ScreenVMFile>
           <ScreenVMFile id="1633" start="3002" duration="63" scalar="1/1" mediaStart="4355/1" mediaDuration="63/1" trackNumber="0" src="4" >
            <Transformer>
             <VectorParam id="1634"  name="translation">
              <InterpolatingParam id="1635" interp="linr"  time="-9999999/1" value="0" leadInLength="0/1"  />
              <InterpolatingParam id="1636" interp="linr"  time="-9999999/1" value="0" leadInLength="0/1"  />
              <InterpolatingParam id="1637" interp="linr"  time="-9999999/1" value="0" leadInLength="0/1"  />
             </VectorParam>
             <VectorParam id="1638"  name="rotation">
              <InterpolatingParam id="1639" interp="linr"  time="-9999999/1" value="0" leadInLength="0/1"  />
              <InterpolatingParam id="1640" interp="linr"  time="-9999999/1" value="0" leadInLength="0/1"  />
              <InterpolatingParam id="1641" interp="linr"  time="-9999999/1" value="0" leadInLength="0/1"  />
             </VectorParam>
             <VectorParam id="1642"  name="shear">
              <InterpolatingParam id="1643" interp="linr"  time="-9999999/1" value="0" leadInLength="0/1"  />
              <InterpolatingParam id="1644" interp="linr"  time="-9999999/1" value="0" leadInLength="0/1"  />
              <InterpolatingParam id="1645" interp="linr"  time="-9999999/1" value="0" leadInLength="0/1"  />
             </VectorParam>
             <VectorParam id="1646"  name="scale">
              <InterpolatingParam id="1647" interp="linr"  time="-9999999/1" value="1" leadInLength="0/1"  />
              <InterpolatingParam id="1648" interp="linr"  time="-9999999/1" value="1" leadInLength="0/1"  />
              <InterpolatingParam id="1649" interp="linr"  time="-9999999/1" value="1" leadInLength="0/1"  />
             </VectorParam>
             <VectorParam id="1650"  name="anchor">
              <InterpolatingParam id="1651" interp="linr"  time="0/1" value="0" leadInLength="0/1"  />
              <InterpolatingParam id="1652" interp="linr"  time="0/1" value="0" leadInLength="0/1"  />
              <InterpolatingParam id="1653" interp="linr"  time="0/1" value="0" leadInLength="0/1"  />
             </VectorParam>
            </Transformer>
            <Parameters>
             <VectorParam id="1654"  name="sourceCrop">
              <InterpolatingParam id="1655" interp="linr"  time="0/1" value="0" leadInLength="0/1"  />
              <InterpolatingParam id="1656" interp="linr"  time="0/1" value="0" leadInLength="0/1"  />
              <InterpolatingParam id="1657" interp="linr"  time="0/1" value="0" leadInLength="0/1"  />
              <InterpolatingParam id="1658" interp="linr"  time="0/1" value="0" leadInLength="0/1"  />
             </VectorParam>
             <VectorParam id="1659"  name="geometryCrop">
              <InterpolatingParam id="1660" interp="linr"  time="-9999999/1" value="0" leadInLength="0/1"  />
              <InterpolatingParam id="1661" interp="linr"  time="-9999999/1" value="0" leadInLength="0/1"  />
              <InterpolatingParam id="1662" interp="linr"  time="-9999999/1" value="0" leadInLength="0/1"  />
              <InterpolatingParam id="1663" interp="linr"  time="-9999999/1" value="0" leadInLength="0/1"  />
             </VectorParam>
             <InterpolatingParam id="1664" interp="linr"  time="-9999999/1" value="1" leadInLength="0/1"  name="opacity"/>
             <InterpolatingParam id="1665" interp="linr"  time="0/1" value="0" leadInLength="0/1"  name="cursorOpacity"/>
             <InterpolatingParam id="1666" interp="linr"  time="0/1" value="0" leadInLength="0/1"  name="cursorScale"/>
            </Parameters>
            <Attributes>
             <Attribute id="1667" value="" name="ident"/>
            </Attributes>
            <MetaData>
             <entry key="AutoAppliedSmartFocus" val="False"/>
             <entry key="WinSubProjectDisplayName" val=""/>
            </MetaData>
            <ExtraData>
             <Entry key="ZoomPanBin">
              <ZoomPanBin id="1668"  >
               <ZoomPanKeyframes>
                <ZoomPanKeyframe id="1669" timeRangeEnd="-9999999/1" timeRangeDuration="0/1" interpolaterName="linr"  />
               </ZoomPanKeyframes>
              </ZoomPanBin>
             </Entry>
             <Entry key="CursorEffectBin">
              <CursorEffectBin id="1670"  >
               <CursorEffectKeyframes>
               </CursorEffectKeyframes>
              </CursorEffectBin>
             </Entry>
            </ExtraData>
           </ScreenVMFile>
           <ScreenVMFile id="1671" start="3065" duration="684" scalar="1/1" mediaStart="4446/1" mediaDuration="684/1" trackNumber="0" src="4" >
            <Transformer>
             <VectorParam id="1672"  name="translation">
              <InterpolatingParam id="1673" interp="linr"  time="-9999999/1" value="0" leadInLength="0/1"  />
              <InterpolatingParam id="1674" interp="linr"  time="-9999999/1" value="0" leadInLength="0/1"  />
              <InterpolatingParam id="1675" interp="linr"  time="-9999999/1" value="0" leadInLength="0/1"  />
             </VectorParam>
             <VectorParam id="1676"  name="rotation">
              <InterpolatingParam id="1677" interp="linr"  time="-9999999/1" value="0" leadInLength="0/1"  />
              <InterpolatingParam id="1678" interp="linr"  time="-9999999/1" value="0" leadInLength="0/1"  />
              <InterpolatingParam id="1679" interp="linr"  time="-9999999/1" value="0" leadInLength="0/1"  />
             </VectorParam>
             <VectorParam id="1680"  name="shear">
              <InterpolatingParam id="1681" interp="linr"  time="-9999999/1" value="0" leadInLength="0/1"  />
              <InterpolatingParam id="1682" interp="linr"  time="-9999999/1" value="0" leadInLength="0/1"  />
              <InterpolatingParam id="1683" interp="linr"  time="-9999999/1" value="0" leadInLength="0/1"  />
             </VectorParam>
             <VectorParam id="1684"  name="scale">
              <InterpolatingParam id="1685" interp="linr"  time="-9999999/1" value="1" leadInLength="0/1"  />
              <InterpolatingParam id="1686" interp="linr"  time="-9999999/1" value="1" leadInLength="0/1"  />
              <InterpolatingParam id="1687" interp="linr"  time="-9999999/1" value="1" leadInLength="0/1"  />
             </VectorParam>
             <VectorParam id="1688"  name="anchor">
              <InterpolatingParam id="1689" interp="linr"  time="0/1" value="0" leadInLength="0/1"  />
              <InterpolatingParam id="1690" interp="linr"  time="0/1" value="0" leadInLength="0/1"  />
              <InterpolatingParam id="1691" interp="linr"  time="0/1" value="0" leadInLength="0/1"  />
             </VectorParam>
            </Transformer>
            <Parameters>
             <VectorParam id="1692"  name="sourceCrop">
              <InterpolatingParam id="1693" interp="linr"  time="0/1" value="0" leadInLength="0/1"  />
              <InterpolatingParam id="1694" interp="linr"  time="0/1" value="0" leadInLength="0/1"  />
              <InterpolatingParam id="1695" interp="linr"  time="0/1" value="0" leadInLength="0/1"  />
              <InterpolatingParam id="1696" interp="linr"  time="0/1" value="0" leadInLength="0/1"  />
             </VectorParam>
             <VectorParam id="1697"  name="geometryCrop">
              <InterpolatingParam id="1698" interp="linr"  time="-9999999/1" value="0" leadInLength="0/1"  />
              <InterpolatingParam id="1699" interp="linr"  time="-9999999/1" value="0" leadInLength="0/1"  />
              <InterpolatingParam id="1700" interp="linr"  time="-9999999/1" value="0" leadInLength="0/1"  />
              <InterpolatingParam id="1701" interp="linr"  time="-9999999/1" value="0" leadInLength="0/1"  />
             </VectorParam>
             <InterpolatingParam id="1702" interp="linr"  time="-9999999/1" value="1" leadInLength="0/1"  name="opacity"/>
             <InterpolatingParam id="1703" interp="linr"  time="0/1" value="0" leadInLength="0/1"  name="cursorOpacity"/>
             <InterpolatingParam id="1704" interp="linr"  time="0/1" value="0" leadInLength="0/1"  name="cursorScale"/>
            </Parameters>
            <Attributes>
             <Attribute id="1705" value="" name="ident"/>
            </Attributes>
            <MetaData>
             <entry key="AutoAppliedSmartFocus" val="False"/>
             <entry key="WinSubProjectDisplayName" val=""/>
            </MetaData>
            <ExtraData>
             <Entry key="ZoomPanBin">
              <ZoomPanBin id="1706"  >
               <ZoomPanKeyframes>
                <ZoomPanKeyframe id="1707" timeRangeEnd="-9999999/1" timeRangeDuration="0/1" interpolaterName="linr"  />
               </ZoomPanKeyframes>
              </ZoomPanBin>
             </Entry>
             <Entry key="CursorEffectBin">
              <CursorEffectBin id="1708"  >
               <CursorEffectKeyframes>
               </CursorEffectKeyframes>
              </CursorEffectBin>
             </Entry>
            </ExtraData>
           </ScreenVMFile>
          </Medias>
         </GenericTrack>
        </StitchedMedia>
        <StitchedMedia id="1709" start="3574" duration="891" scalar="1/1" mediaStart="46/1" mediaDuration="891/1" minMediaStart="0/1" >
         <Transformer>
          <VectorParam id="1710"  name="translation">
           <InterpolatingParam id="1711" interp="linr"  time="-9999999/1" value="0" leadInLength="0/1"  />
           <InterpolatingParam id="1712" interp="linr"  time="-9999999/1" value="0" leadInLength="0/1"  />
           <InterpolatingParam id="1713" interp="linr"  time="-9999999/1" value="0" leadInLength="0/1"  />
          </VectorParam>
          <VectorParam id="1714"  name="rotation">
           <InterpolatingParam id="1715" interp="linr"  time="-9999999/1" value="0" leadInLength="0/1"  />
           <InterpolatingParam id="1716" interp="linr"  time="-9999999/1" value="0" leadInLength="0/1"  />
           <InterpolatingParam id="1717" interp="linr"  time="-9999999/1" value="0" leadInLength="0/1"  />
          </VectorParam>
          <VectorParam id="1718"  name="shear">
           <InterpolatingParam id="1719" interp="linr"  time="-9999999/1" value="0" leadInLength="0/1"  />
           <InterpolatingParam id="1720" interp="linr"  time="-9999999/1" value="0" leadInLength="0/1"  />
           <InterpolatingParam id="1721" interp="linr"  time="-9999999/1" value="0" leadInLength="0/1"  />
          </VectorParam>
          <VectorParam id="1722"  name="scale">
           <InterpolatingParam id="1723" interp="linr"  time="-9999999/1" value="0.9375" leadInLength="0/1"  />
           <InterpolatingParam id="1724" interp="linr"  time="-9999999/1" value="0.9375" leadInLength="0/1"  />
           <InterpolatingParam id="1725" interp="linr"  time="-9999999/1" value="1" leadInLength="0/1"  />
          </VectorParam>
          <VectorParam id="1726"  name="anchor">
           <InterpolatingParam id="1727" interp="linr"  time="0/1" value="0" leadInLength="0/1"  />
           <InterpolatingParam id="1728" interp="linr"  time="0/1" value="0" leadInLength="0/1"  />
           <InterpolatingParam id="1729" interp="linr"  time="0/1" value="0" leadInLength="0/1"  />
          </VectorParam>
         </Transformer>
         <Parameters>
          <VectorParam id="1730"  name="sourceCrop">
           <InterpolatingParam id="1731" interp="linr"  time="0/1" value="0" leadInLength="0/1"  />
           <InterpolatingParam id="1732" interp="linr"  time="0/1" value="0" leadInLength="0/1"  />
           <InterpolatingParam id="1733" interp="linr"  time="0/1" value="0" leadInLength="0/1"  />
           <InterpolatingParam id="1734" interp="linr"  time="0/1" value="0" leadInLength="0/1"  />
          </VectorParam>
          <VectorParam id="1735"  name="geometryCrop">
           <InterpolatingParam id="1736" interp="linr"  time="-9999999/1" value="0" leadInLength="0/1"  />
           <InterpolatingParam id="1737" interp="linr"  time="-9999999/1" value="0" leadInLength="0/1"  />
           <InterpolatingParam id="1738" interp="linr"  time="-9999999/1" value="0" leadInLength="0/1"  />
           <InterpolatingParam id="1739" interp="linr"  time="-9999999/1" value="0" leadInLength="0/1"  />
          </VectorParam>
          <InterpolatingParam id="1740" interp="linr"  time="-9999999/1" value="1" leadInLength="0/1"  name="opacity"/>
          <InterpolatingParam id="1741" interp="linr"  time="0/1" value="1" leadInLength="0/1"  name="cursorOpacity"/>
          <InterpolatingParam id="1742" interp="linr"  time="0/1" value="1" leadInLength="0/1"  name="cursorScale"/>
          <Parameter id="1743"  name="captions"/>
         </Parameters>
         <Effects>
          <GenericEffect id="1744" name = "CursorBaseEffectName" >
           <Parameters>
           <InterpolatingParam id="1745" interp="linr"  time="-9999999/1" value="1" leadInLength="0/1"   name="cursorSize"/>
           <InterpolatingParam id="1746" interp="linr"  time="-9999999/1" value="0" leadInLength="0/1"   name="highlightBlurRadius"/>
           <InterpolatingParam id="1747" interp="linr"  time="-9999999/1" value="0" leadInLength="0/1"   name="highlightColorBlue"/>
           <InterpolatingParam id="1748" interp="linr"  time="-9999999/1" value="255" leadInLength="0/1"   name="highlightColorGreen"/>
           <InterpolatingParam id="1749" interp="linr"  time="-9999999/1" value="255" leadInLength="0/1"   name="highlightColorRed"/>
           <InterpolatingParam id="1750" interp="linr"  time="-9999999/1" value="5" leadInLength="0/1"   name="highlightFeatherSize"/>
           <InterpolatingParam id="1751" interp="linr"  time="-9999999/1" value="2" leadInLength="0/1"   name="highlightMagnification"/>
           <InterpolatingParam id="1752" interp="linr"  time="-9999999/1" value="1" leadInLength="0/1"   name="highlightOpacity"/>
           <InterpolatingParam id="1753" interp="linr"  time="-9999999/1" value="45" leadInLength="0/1"   name="highlightSize"/>
           <Parameter id="1754"   name="highlightType">
            <Keyframes>
            <Keyframe id="1755"  time="-9999999/1" value="0" leadInLength="0/1"  />
            </Keyframes>
           </Parameter>
           <InterpolatingParam id="1756" interp="linr"  time="-9999999/1" value="0" leadInLength="0/1"   name="leftClickColorBlue"/>
           <InterpolatingParam id="1757" interp="linr"  time="-9999999/1" value="0" leadInLength="0/1"   name="leftClickColorGreen"/>
           <InterpolatingParam id="1758" interp="linr"  time="-9999999/1" value="255" leadInLength="0/1"   name="leftClickColorRed"/>
           <InterpolatingParam id="1759" interp="linr"  time="-9999999/1" value="0.80000000000000004" leadInLength="0/1"   name="leftClickDuration"/>
           <InterpolatingParam id="1760" interp="linr"  time="-9999999/1" value="20" leadInLength="0/1"   name="leftClickSize"/>
           <Parameter id="1761"   name="leftClickSoundFilename">
            <Keyframes>
            <Keyframe id="1762"  time="-9999999/1" value="" leadInLength="0/1"  />
            </Keyframes>
           </Parameter>
           <InterpolatingParam id="1763" interp="linr"  time="-9999999/1" value="1" leadInLength="0/1"   name="leftClickSoundVolume"/>
           <Parameter id="1764"   name="leftClickType">
            <Keyframes>
            <Keyframe id="1765"  time="-9999999/1" value="0" leadInLength="0/1"  />
            </Keyframes>
           </Parameter>
           <InterpolatingParam id="1766" interp="linr"  time="-9999999/1" value="1" leadInLength="0/1"   name="opacity"/>
           <InterpolatingParam id="1767" interp="linr"  time="-9999999/1" value="255" leadInLength="0/1"   name="rightClickColorBlue"/>
           <InterpolatingParam id="1768" interp="linr"  time="-9999999/1" value="0" leadInLength="0/1"   name="rightClickColorGreen"/>
           <InterpolatingParam id="1769" interp="linr"  time="-9999999/1" value="0" leadInLength="0/1"   name="rightClickColorRed"/>
           <InterpolatingParam id="1770" interp="linr"  time="-9999999/1" value="0.80000000000000004" leadInLength="0/1"   name="rightClickDuration"/>
           <InterpolatingParam id="1771" interp="linr"  time="-9999999/1" value="20" leadInLength="0/1"   name="rightClickSize"/>
           <Parameter id="1772"   name="rightClickSoundFilename">
            <Keyframes>
            <Keyframe id="1773"  time="-9999999/1" value="" leadInLength="0/1"  />
            </Keyframes>
           </Parameter>
           <InterpolatingParam id="1774" interp="linr"  time="-9999999/1" value="1" leadInLength="0/1"   name="rightClickSoundVolume"/>
           <Parameter id="1775"   name="rightClickType">
            <Keyframes>
            <Keyframe id="1776"  time="-9999999/1" value="0" leadInLength="0/1"  />
            </Keyframes>
           </Parameter>
           </Parameters>
          </GenericEffect>
         </Effects>
         <Attributes>
          <Attribute id="1777" value="" name="ident"/>
         </Attributes>
         <MetaData>
          <entry key="AutoAppliedSmartFocus" val="False"/>
          <entry key="WinSubProjectDisplayName" val=""/>
         </MetaData>
         <ExtraData>
          <Entry key="ZoomPanBin">
           <ZoomPanBin id="1778"  >
            <ZoomPanKeyframes>
             <ZoomPanKeyframe id="1779" timeRangeEnd="-9999999/1" timeRangeDuration="0/1" interpolaterName="linr"  />
            </ZoomPanKeyframes>
           </ZoomPanBin>
          </Entry>
          <Entry key="CursorEffectBin">
           <CursorEffectBin id="1780"  >
            <CursorEffectKeyframes>
             <CursorEffectKeyframe id="1781" timeRangeEnd="-9999999/1" timeRangeDuration="0/1" interpolaterName=""  />
            </CursorEffectKeyframes>
           </CursorEffectBin>
          </Entry>
         </ExtraData>
         <GenericTrack id="1782"  >
          <Attributes>
           <Attribute id="1783" value="" name="ident"/>
           <Attribute id="1784" value="0" name="audioMuted"/>
           <Attribute id="1785" value="0" name="videoHidden"/>
          </Attributes>
          <MetaData>
           <entry key="IsLocked" val="False"/>
           <entry key="WinTrackHeight" val="0"/>
          </MetaData>
          <Medias>
           <ScreenVMFile id="1786" start="0" duration="797" scalar="1/1" mediaStart="0/1" mediaDuration="797/1" trackNumber="0" src="5" >
            <Transformer>
             <VectorParam id="1787"  name="translation">
              <InterpolatingParam id="1788" interp="linr"  time="-9999999/1" value="0" leadInLength="0/1"  />
              <InterpolatingParam id="1789" interp="linr"  time="-9999999/1" value="0" leadInLength="0/1"  />
              <InterpolatingParam id="1790" interp="linr"  time="-9999999/1" value="0" leadInLength="0/1"  />
             </VectorParam>
             <VectorParam id="1791"  name="rotation">
              <InterpolatingParam id="1792" interp="linr"  time="-9999999/1" value="0" leadInLength="0/1"  />
              <InterpolatingParam id="1793" interp="linr"  time="-9999999/1" value="0" leadInLength="0/1"  />
              <InterpolatingParam id="1794" interp="linr"  time="-9999999/1" value="0" leadInLength="0/1"  />
             </VectorParam>
             <VectorParam id="1795"  name="shear">
              <InterpolatingParam id="1796" interp="linr"  time="-9999999/1" value="0" leadInLength="0/1"  />
              <InterpolatingParam id="1797" interp="linr"  time="-9999999/1" value="0" leadInLength="0/1"  />
              <InterpolatingParam id="1798" interp="linr"  time="-9999999/1" value="0" leadInLength="0/1"  />
             </VectorParam>
             <VectorParam id="1799"  name="scale">
              <InterpolatingParam id="1800" interp="linr"  time="-9999999/1" value="1" leadInLength="0/1"  />
              <InterpolatingParam id="1801" interp="linr"  time="-9999999/1" value="1" leadInLength="0/1"  />
              <InterpolatingParam id="1802" interp="linr"  time="-9999999/1" value="1" leadInLength="0/1"  />
             </VectorParam>
             <VectorParam id="1803"  name="anchor">
              <InterpolatingParam id="1804" interp="linr"  time="0/1" value="0" leadInLength="0/1"  />
              <InterpolatingParam id="1805" interp="linr"  time="0/1" value="0" leadInLength="0/1"  />
              <InterpolatingParam id="1806" interp="linr"  time="0/1" value="0" leadInLength="0/1"  />
             </VectorParam>
            </Transformer>
            <Parameters>
             <VectorParam id="1807"  name="sourceCrop">
              <InterpolatingParam id="1808" interp="linr"  time="0/1" value="0" leadInLength="0/1"  />
              <InterpolatingParam id="1809" interp="linr"  time="0/1" value="0" leadInLength="0/1"  />
              <InterpolatingParam id="1810" interp="linr"  time="0/1" value="0" leadInLength="0/1"  />
              <InterpolatingParam id="1811" interp="linr"  time="0/1" value="0" leadInLength="0/1"  />
             </VectorParam>
             <VectorParam id="1812"  name="geometryCrop">
              <InterpolatingParam id="1813" interp="linr"  time="-9999999/1" value="0" leadInLength="0/1"  />
              <InterpolatingParam id="1814" interp="linr"  time="-9999999/1" value="0" leadInLength="0/1"  />
              <InterpolatingParam id="1815" interp="linr"  time="-9999999/1" value="0" leadInLength="0/1"  />
              <InterpolatingParam id="1816" interp="linr"  time="-9999999/1" value="0" leadInLength="0/1"  />
             </VectorParam>
             <InterpolatingParam id="1817" interp="linr"  time="-9999999/1" value="1" leadInLength="0/1"  name="opacity"/>
             <InterpolatingParam id="1818" interp="linr"  time="0/1" value="0" leadInLength="0/1"  name="cursorOpacity"/>
             <InterpolatingParam id="1819" interp="linr"  time="0/1" value="0" leadInLength="0/1"  name="cursorScale"/>
            </Parameters>
            <Attributes>
             <Attribute id="1820" value="" name="ident"/>
            </Attributes>
            <MetaData>
             <entry key="AutoAppliedSmartFocus" val="False"/>
             <entry key="WinSubProjectDisplayName" val=""/>
            </MetaData>
            <ExtraData>
             <Entry key="ZoomPanBin">
              <ZoomPanBin id="1821"  >
               <ZoomPanKeyframes>
                <ZoomPanKeyframe id="1822" timeRangeEnd="-9999999/1" timeRangeDuration="0/1" interpolaterName="linr"  />
               </ZoomPanKeyframes>
              </ZoomPanBin>
             </Entry>
             <Entry key="CursorEffectBin">
              <CursorEffectBin id="1823"  >
               <CursorEffectKeyframes>
               </CursorEffectKeyframes>
              </CursorEffectBin>
             </Entry>
            </ExtraData>
           </ScreenVMFile>
           <ScreenVMFile id="1824" start="797" duration="140" scalar="1/1" mediaStart="907/1" mediaDuration="140/1" trackNumber="0" src="5" >
            <Transformer>
             <VectorParam id="1825"  name="translation">
              <InterpolatingParam id="1826" interp="linr"  time="-9999999/1" value="0" leadInLength="0/1"  />
              <InterpolatingParam id="1827" interp="linr"  time="-9999999/1" value="0" leadInLength="0/1"  />
              <InterpolatingParam id="1828" interp="linr"  time="-9999999/1" value="0" leadInLength="0/1"  />
             </VectorParam>
             <VectorParam id="1829"  name="rotation">
              <InterpolatingParam id="1830" interp="linr"  time="-9999999/1" value="0" leadInLength="0/1"  />
              <InterpolatingParam id="1831" interp="linr"  time="-9999999/1" value="0" leadInLength="0/1"  />
              <InterpolatingParam id="1832" interp="linr"  time="-9999999/1" value="0" leadInLength="0/1"  />
             </VectorParam>
             <VectorParam id="1833"  name="shear">
              <InterpolatingParam id="1834" interp="linr"  time="-9999999/1" value="0" leadInLength="0/1"  />
              <InterpolatingParam id="1835" interp="linr"  time="-9999999/1" value="0" leadInLength="0/1"  />
              <InterpolatingParam id="1836" interp="linr"  time="-9999999/1" value="0" leadInLength="0/1"  />
             </VectorParam>
             <VectorParam id="1837"  name="scale">
              <InterpolatingParam id="1838" interp="linr"  time="-9999999/1" value="1" leadInLength="0/1"  />
              <InterpolatingParam id="1839" interp="linr"  time="-9999999/1" value="1" leadInLength="0/1"  />
              <InterpolatingParam id="1840" interp="linr"  time="-9999999/1" value="1" leadInLength="0/1"  />
             </VectorParam>
             <VectorParam id="1841"  name="anchor">
              <InterpolatingParam id="1842" interp="linr"  time="0/1" value="0" leadInLength="0/1"  />
              <InterpolatingParam id="1843" interp="linr"  time="0/1" value="0" leadInLength="0/1"  />
              <InterpolatingParam id="1844" interp="linr"  time="0/1" value="0" leadInLength="0/1"  />
             </VectorParam>
            </Transformer>
            <Parameters>
             <VectorParam id="1845"  name="sourceCrop">
              <InterpolatingParam id="1846" interp="linr"  time="0/1" value="0" leadInLength="0/1"  />
              <InterpolatingParam id="1847" interp="linr"  time="0/1" value="0" leadInLength="0/1"  />
              <InterpolatingParam id="1848" interp="linr"  time="0/1" value="0" leadInLength="0/1"  />
              <InterpolatingParam id="1849" interp="linr"  time="0/1" value="0" leadInLength="0/1"  />
             </VectorParam>
             <VectorParam id="1850"  name="geometryCrop">
              <InterpolatingParam id="1851" interp="linr"  time="-9999999/1" value="0" leadInLength="0/1"  />
              <InterpolatingParam id="1852" interp="linr"  time="-9999999/1" value="0" leadInLength="0/1"  />
              <InterpolatingParam id="1853" interp="linr"  time="-9999999/1" value="0" leadInLength="0/1"  />
              <InterpolatingParam id="1854" interp="linr"  time="-9999999/1" value="0" leadInLength="0/1"  />
             </VectorParam>
             <InterpolatingParam id="1855" interp="linr"  time="-9999999/1" value="1" leadInLength="0/1"  name="opacity"/>
             <InterpolatingParam id="1856" interp="linr"  time="0/1" value="0" leadInLength="0/1"  name="cursorOpacity"/>
             <InterpolatingParam id="1857" interp="linr"  time="0/1" value="0" leadInLength="0/1"  name="cursorScale"/>
            </Parameters>
            <Attributes>
             <Attribute id="1858" value="" name="ident"/>
            </Attributes>
            <MetaData>
             <entry key="AutoAppliedSmartFocus" val="False"/>
             <entry key="WinSubProjectDisplayName" val=""/>
            </MetaData>
            <ExtraData>
             <Entry key="ZoomPanBin">
              <ZoomPanBin id="1859"  >
               <ZoomPanKeyframes>
                <ZoomPanKeyframe id="1860" timeRangeEnd="-9999999/1" timeRangeDuration="0/1" interpolaterName="linr"  />
               </ZoomPanKeyframes>
              </ZoomPanBin>
             </Entry>
             <Entry key="CursorEffectBin">
              <CursorEffectBin id="1861"  >
               <CursorEffectKeyframes>
               </CursorEffectKeyframes>
              </CursorEffectBin>
             </Entry>
            </ExtraData>
           </ScreenVMFile>
          </Medias>
         </GenericTrack>
        </StitchedMedia>
        <StitchedMedia id="1862" start="4465" duration="5378" scalar="1/1" mediaStart="0/1" mediaDuration="5378/1" minMediaStart="0/1" >
         <Transformer>
          <VectorParam id="1863"  name="translation">
           <InterpolatingParam id="1864" interp="linr"  time="-9999999/1" value="402" leadInLength="0/1"  />
           <InterpolatingParam id="1865" interp="linr"  time="-9999999/1" value="-300" leadInLength="0/1"  />
           <InterpolatingParam id="1866" interp="linr"  time="-9999999/1" value="0" leadInLength="0/1"  />
          </VectorParam>
          <VectorParam id="1867"  name="rotation">
           <InterpolatingParam id="1868" interp="linr"  time="-9999999/1" value="0" leadInLength="0/1"  />
           <InterpolatingParam id="1869" interp="linr"  time="-9999999/1" value="0" leadInLength="0/1"  />
           <InterpolatingParam id="1870" interp="linr"  time="-9999999/1" value="0" leadInLength="0/1"  />
          </VectorParam>
          <VectorParam id="1871"  name="shear">
           <InterpolatingParam id="1872" interp="linr"  time="-9999999/1" value="0" leadInLength="0/1"  />
           <InterpolatingParam id="1873" interp="linr"  time="-9999999/1" value="0" leadInLength="0/1"  />
           <InterpolatingParam id="1874" interp="linr"  time="-9999999/1" value="0" leadInLength="0/1"  />
          </VectorParam>
          <VectorParam id="1875"  name="scale">
           <InterpolatingParam id="1876" interp="linr"  time="-9999999/1" value="0.25" leadInLength="0/1"  />
           <InterpolatingParam id="1877" interp="linr"  time="-9999999/1" value="0.25" leadInLength="0/1"  />
           <InterpolatingParam id="1878" interp="linr"  time="-9999999/1" value="1" leadInLength="0/1"  />
          </VectorParam>
          <VectorParam id="1879"  name="anchor">
           <InterpolatingParam id="1880" interp="linr"  time="0/1" value="0" leadInLength="0/1"  />
           <InterpolatingParam id="1881" interp="linr"  time="0/1" value="0" leadInLength="0/1"  />
           <InterpolatingParam id="1882" interp="linr"  time="0/1" value="0" leadInLength="0/1"  />
          </VectorParam>
         </Transformer>
         <Parameters>
          <VectorParam id="1883"  name="sourceCrop">
           <InterpolatingParam id="1884" interp="linr"  time="0/1" value="0" leadInLength="0/1"  />
           <InterpolatingParam id="1885" interp="linr"  time="0/1" value="0" leadInLength="0/1"  />
           <InterpolatingParam id="1886" interp="linr"  time="0/1" value="0" leadInLength="0/1"  />
           <InterpolatingParam id="1887" interp="linr"  time="0/1" value="0" leadInLength="0/1"  />
          </VectorParam>
          <VectorParam id="1888"  name="geometryCrop">
           <InterpolatingParam id="1889" interp="linr"  time="-9999999/1" value="0" leadInLength="0/1"  />
           <InterpolatingParam id="1890" interp="linr"  time="-9999999/1" value="0" leadInLength="0/1"  />
           <InterpolatingParam id="1891" interp="linr"  time="-9999999/1" value="0" leadInLength="0/1"  />
           <InterpolatingParam id="1892" interp="linr"  time="-9999999/1" value="0" leadInLength="0/1"  />
          </VectorParam>
          <InterpolatingParam id="1893" interp="linr"  time="-9999999/1" value="1" leadInLength="0/1"  name="opacity"/>
          <InterpolatingParam id="1894" interp="linr"  time="0/1" value="1" leadInLength="0/1"  name="cursorOpacity"/>
          <InterpolatingParam id="1895" interp="linr"  time="0/1" value="1" leadInLength="0/1"  name="cursorScale"/>
          <InterpolatingParam id="1896" interp="linr"  time="0/1" value="1" leadInLength="0/1"  name="volume"/>
          <Parameter id="1897"  name="captions"/>
         </Parameters>
         <Effects>
          <GenericEffect id="1898" name = "NoiseReduction" >
           <Parameters>
           <InterpolatingParam id="1899" interp="linr"  time="0/1" value="27.599999999999998" leadInLength="0/1"   name="denoiserAmount"/>
           <InterpolatingParam id="1900" interp="linr"  time="0/1" value="2.2799999999999994" leadInLength="0/1"   name="denoiserThreshold"/>
           <Parameter id="1901"   name="noiseProfile">
            <Keyframes>
            <Keyframe id="1902"  time="0/1" value="FBAAAAIAAABErAAAAQIAAMU2N8I3bCnCQtgswlxqLcKs1z7CsONCwiG3TsLzJFfC+iZWwkcxW8Js&#xD;&#xa;1FXCIrtXwh4xZMLjiWnCB1FswjT6dMKvsn3CzJ6Awsl2gcJF2H/CkEh5wjlTesJjL4DCFv5/woey&#xD;&#xa;gsJSX3/Cmqp4wnwFgMLVUoTCLtyEwgh9hsKeC4fCsw2HwsgahcKQzoPCTjqFwiqRi8KbHYrC3EaI&#xD;&#xa;wnW1icKbt4nCwKmKwkONjsKI7JDCiByUwl4plcL6MpLCM/aUwnFwmMLRrpvC4PWWwrv3mMLuv5zC&#xD;&#xa;KlucwhmSnsJWTZ7C7YGcwpP5ncI0wJ7C1kWdwpQWoMLXs6DCfgyiwtJrpMLxBaXC3MylwmUKo8Kv&#xD;&#xa;NKbCBoWlwnDIoMJzC6DCq8ijwh+5osKMkqLCiRmiwrBxocKosaXCih2qwkptq8LnAqnCt3CmwqIX&#xD;&#xa;qMI/w6bC2nCnwgTYpsIo26XCyJ6pwozTqMLs1KrCD9GqwmtJqcKaIKnCJJanwgCWpMJXg6fCnPWo&#xD;&#xa;wr6HqsIRVarCmymrws1GrMLHjKnCHLurwor7rsJ8Ea/CcK+twtErsMIOD7LCVKKwwug7ssLFRbTC&#xD;&#xa;2KCzwiwatcJzBbLC4o6uwg2LrcJEja3Cnvmpwsgjq8IL2qzCeqOtwuC7rsK+sqzCK82swnChrcJx&#xD;&#xa;2bHCUgewwi40scJBb7PCJuaywts1ssJzcLTCiEaywmbKscIcRrXCiQ+zwu6Js8KRH7XCkvyywsDH&#xD;&#xa;scL0Ua/CauKwwrIWtsLmm7PCzCGzwpMGtcLNDrPCHp+ywluJtMIotrHCfj2vwlD3sMLl0rHC4Cux&#xD;&#xa;wk1YrsIVoK7CIQSuwvBCrsJjrK7CDc2wwp4UtMINhbXCYDm3wjEMtMLYnrLCmImywv1ar8KPnbHC&#xD;&#xa;5mKzwjz+tMKsfLXCYi2zws6pscLcwLDCaPSvwhqmr8IakK/C0nuxwr4ytsJPDLXCqZ6zwvZptMKN&#xD;&#xa;lbbCm6e5wnJ0uMLOx7TCod62wtw/tMLFKrbC5OG0wrN+sMKnWLDCz16ywn4JscLunrLC7Ga0woCL&#xD;&#xa;ssISebLCkpCxwlbasMJI6bPCeGCzwhqUtsIWAbbCZdK2wuxnt8J2WbbCxfO4whcGuMIRerTCInyz&#xD;&#xa;wmOjtcK+g7XCrzq1wmx5tcJBAbXC+ri0wr+htMI1QbTCGXOzwt7Is8LnxLTCHtq3whxhuMIhKrfC&#xD;&#xa;8k62wnpJtcLftLLC6l20wkQgtcIdi7XC1gO2wvJBtcLiWLHCufOywvSztMLE1rPC9zm1whmVuMIq&#xD;&#xa;2LXCp/WzwqCxtcLS8rbCZLi2wmIwuMK9BbnCE/a3wm9Jt8JKtrbCROS4whcGuMJfwbfCvr25wqZ2&#xD;&#xa;ucKg5rnCoPW4wnBJscK0BLPC22e8wiQUvMK0T7jCEPu2wmppuMIgTrnCGqy5wj6CucICnLnCpt66&#xD;&#xa;wkAEu8Kg8bfC7Zu2wnYfuMI33LfCiOO5ws4JvsKsy7nCqNW3wvDTusJewrnCxBOzwmoyscLUYrjC&#xD;&#xa;D0+6wnx6usKsMLvCUDK6wrJ0ucJxhrfCWIe2wqOYtsI+P7jCyFK5wqVit8Io27XC3O63wqjcucLb&#xD;&#xa;5rfCcn64wmLXucIM7rnC1gi5whaducLKBrfCmIq2wia4ucJLurnCNXe5wjhxusKmDrvCPtu6wgKy&#xD;&#xa;usKA6rrCADS6whBCu8JSR7zCM527wkrHusL5Q7vCMYq6wlMQusJ9VrrCYp65wlKSucJGjbrCo6+7&#xD;&#xa;wsQcusLmOrnCS7G5wkqtu8L+oL3CIOS6wgN4vMIKjL7CIkK8wp9UusKgeLjCBse7wmZNv8IM9b/C&#xD;&#xa;d6+7wuMyusLebbvC43y7wsTnvMJCGrrCioC5wmDQvsJC8sDCuta+wvDOvMJ8xb/CTrHAwuzXvcIQ&#xD;&#xa;Lb7CqJ++wmJVusKqgLjCz523wnwHusIMCrzCpd27wqQXvcKMFrnCdVWvwjtNq8K2WLXCmya7wkpo&#xD;&#xa;ucJcNbrCyP2/wmLXx8Kbgs7CCsvOwhyR0cI4ptbChuvPwg3Ny8JCQ8zCkEXOwhjJzMKU7MzCma/M&#xD;&#xa;wkJ30MJeSdDCEJjNwoxDycJyqMjCaF/EwvCsxMKF0MfCHibJwoBcysK/tsjCnhfFwoSKxMLc9MfC&#xD;&#xa;ZEjJwgIyx8Jzj8rCOPrOwqM3ysKwn8rCFI/RwvHD2sLPyt7CbObbwv4a3ML62tvCu+vawkRg28Ig&#xD;&#xa;XNvCYHbbwqCd3cIbB9/CKpffwmUC58LA1d7CbMfewhR+6MIaiffC8gX6wgqc+sL6BPnCpKL2wuI6&#xD;&#xa;+MLwWffCyMX4wiJn+MLu9vnC+n/5wtE69sKVKfjCyFf2wojH98IIhPjC2fX0wg758sLmqPbCZjv7&#xD;&#xa;whae+cIWpPbC/tn4wr6w+8KGUPvCvu79wibC+8K+y/nC2tj2wgT/+MJSVP3CCEX9wpBD/cKwufnC&#xD;&#xa;0vL5wtpD+MJi8/jCyh/6wmfe98KW//bCkJ32wq6Q+MKuw/jCGgb3woeQ9sLI6fXCAg/7wnou+8KA&#xD;&#xa;TvjC5cz1wmzF9cLaFfjCnIH5wmJ098JEpPnC6Iv5wlvv9sKiD/XCU1z4wvKX+MJmOffC7DP3wibH&#xD;&#xa;98KwdPjC0Kz2wnXg9MKCv/fCJnH6wkYl+cJyavjCBPX5wkK++cJeN/nC3VT4whqA+cKpP/fCtvv3&#xD;&#xa;wvjG+MJqmfnCIWf4wly++MJsa/rCKJ34woJ2+cKA//fCAnD3wrSB98IGNPjCqlD5wtJQ+cKlFvjC&#xD;&#xa;fp/3wh74+MLpAvbCsugAw/o2N8KhbCnCp9gswoBqLcJb1z7CaONCwuC2TsJoJFfCRSdWwn8yW8Ji&#xD;&#xa;1VXC7LtXwlUyZMJPimnC0FBswpL6dMLCs33Cdp+Awnx3gcKm2H/C5kd5wi5ResIFLoDCdP5/woez&#xD;&#xa;gsKYXX/C0al4wuUFgMLWU4TCDt2EwnR8hsKtC4fC4g2HwsIbhcJ6zoPC/DmFwiSQi8LvHYrCSEeI&#xD;&#xa;wtS1icIxuInCrqyKwiyRjsJ98JDCfB6UwnEmlcINMJLCme+UwpdrmMJyqpvCE/OWwk32mMJwvZzC&#xD;&#xa;KlacwlqHnsL+TJ7CbX+cwpL0ncLxvZ7C9EGdwqwPoML0qKDCp/mhwndhpMIFAqXCDc+lwtMYo8Jt&#xD;&#xa;RabC9oulwinLoMKaE6DCSdajwh67osLojqLCVRuiwqtrocI0n6XCu/2pwtlrq8Lc/6jCpnamwhcs&#xD;&#xa;qMLoy6bCxG+nwkTbpsJN76XCUcapwi74qMKc2arCELiqwhZGqcLWQanCqKOnwoKbpMKLmafC3P+o&#xD;&#xa;whN3qsIUbarCEk+rwgZNrMIZjKnCBAWswqPVrsI2767Ca/2twgLTsMJ2XLLCoiWxwgVPssKuTrTC&#xD;&#xa;POazwuN8tcJYQLLCshivwlD2rcLY3a3ChESqwoxyq8JGT63C0sqtwh6RrsJ+VazCfNCswrPkrcI3&#xD;&#xa;FrLC+EGwwtGVscL4vLPC2lCzwnYqssLsVrTCxjGywqSRscI9KLXCJgKzwl7Vs8J+c7XCYlazwjpa&#xD;&#xa;ssKjILDCsfKxwkSrtsLCgLTC6MWzwn1ctcI4MLPC2HWywtGctMJSFbLCoGivwgEpscJJLLLCh3Wx&#xD;&#xa;wqeprsL73q7C+GKuwgvdrsIFFK/Cjf2wwqODtMLISrbCu8S3wljUtMI8m7PCEGCzwrMZsMLVILLC&#xD;&#xa;JemzwhaEtcJ6/LXCYAyzwsJQscI9wrDC6hKwwh4EsMJk+a/CFMOxwkjftsINpbXCzf+zwhbQtMIb&#xD;&#xa;T7fCOqG5wgFWuMJEBbXCpXC3wre3tMJiS7bCp/W0wu+0sMK4IbDCL1WywuB+scJ2BLPC1M20wg7Z&#xD;&#xa;ssJTCbPCNH+xwt+HsMJ+DbTCG76zwhZ5tsJEILbCXrS3wv58t8JD6rXCRsa4wqoWuMLAC7XCkFaz&#xD;&#xa;wqUAtsK5qLbCHkm1wg6qtcKdi7XCXRm1wrTbtMKz6LTC6xq0wlrNs8JZJrXCcme4wmoiucJM37fC&#xD;&#xa;edG2wtrwtcJIRrPCoO20wrnxtcKlM7bC+Dm2wlj7tMJpibHCmIWzwvhJtcLYP7TCl3+1wuPduMJc&#xD;&#xa;ZbbCMH60wmcitsLxXrfCtDi3wr+QuMKsqLnCmFu4wk9rt8J2z7bCNxW5whrYt8JkkLfCMmi6wojg&#xD;&#xa;ucLyOrrCGDu5wmFascI4EbPC3aO8wlKRvMKamLjCX4G3wkwDucKMzLnCave5wsgHusJAXrrCGEu7&#xD;&#xa;wnaCu8I6QbjCiuO2wgpYuMIM8rfCfvK5wp78vcKC57nCXhK4wqDGusK0cbnCsySzwgREscJIMLjC&#xD;&#xa;Kge6wrpdusIY5LrCPgu6wqcOucIWULfCq662wmyvtsLdNrjCOC+5wiA9t8I8xbXCbcu3wqGPucKC&#xD;&#xa;qbfCqFe4wifEucLoBLrCwBm5wsKNucLk6LbCZHa2wufIucKZjrnCnX25wvprusLzKbvCgvi6wteh&#xD;&#xa;usKI3brCBBy6woYXu8LJRrzCiIu7wiDWusLqO7vCfIu6wgkPusL7ZrrCPqu5wiVtucLkjLrCpNS7&#xD;&#xa;wqgjusLSW7nCpua5wk/wu8Imxb3Ct9G6wi5hvMIEnL7C6EO8wlxwusKamLjCNMO7wmZBv8Kn/r/C&#xD;&#xa;kNG7wsgxusK2SrvCDl67wtDSvMIuTbrC0Ka5wvbRvsKzrsDCWq++wqzJvMJO/L/CbOLAwubuvcLi&#xD;&#xa;G77CXs6+wmF9usLijrjCQLS3wuYhusLoBbzCrOm7wugdvcLWJrnC7nCvwhVvq8Ine7XCpDO7wqtr&#xD;&#xa;ucKmL7rCBP+/wjrjx8JHpc7CIE7PwuDS0cKOidfC6GTQwga0y8L2OczC6lvOwn65zMLO/czCxcnM&#xD;&#xa;wnT+z8Ie/s/COLLNwgSeycL0HMnCtLLEwv6zxMLu1MfCQDTJwgaxysIV2cjCciXFwudqxMLu5MfC&#xD;&#xa;GGHJwiwox8ICGsrCs3fOwqQ9ysJRosrCfsDRwvmD28Jwrt3ChKzawmKq28IIxtvCzk3bwvAR3MK1&#xD;&#xa;ONzC5S3cwlTQ3sLgMN7Cou3dwtyE5sKPIt/C6AvfwufY58I4yPTCvo/0wpqH98IW6vnCIvb4wisx&#xD;&#xa;98KSR/jCVrv1wvh89MKRz/TCXn/4wv4u+cKW8PTC7mb2wlo1+cJSvPfCnvX3wuxZ98LWpPjCQt33&#xD;&#xa;wiIH9cJe1/fCpgj4wqSY98J6dPPC8q3zwr8V+MLWIfnCAqT5wihu+cKkQ/fCgp35wtIK+MJyGvrC&#xD;&#xa;von6wmC09sIkgvfCSCT8woIn/MLEHvjCOr/4wlyy9cJk1fXC4232wvIF+cLIVfzC7kP5wuhG9cIP&#xD;&#xa;yPbCfOH5wmDf/cLOPvrCdv33wrwA98Ko0fbCcun3wrQL+sImp/nCDDz6wniw/MLK2fnCvJH2wsCH&#xD;&#xa;+MIP6PbCON72wgNd9sLavPfCgi/6wiSF+8LwzPjCNMr5wpbV+cJG0PrC7Sz4wpyI+MKyPfjC+K/5&#xD;&#xa;whTr+cJWeffCKr70wsra9MJgu/XCfJ/5wnFW+MLysPfC3dr3wpW+98Ky9PbCHij4whi198I0E/fC&#xD;&#xa;Qgb4wmoh+MLkgPnCrGAE" leadInLength="0/1"  />
            </Keyframes>
           </Parameter>
           </Parameters>
           <MetaData>
            <entry key="effectIndex" val="0"/>
           </MetaData>
          </GenericEffect>
         </Effects>
         <Attributes>
          <Attribute id="1903" value="" name="ident"/>
          <Attribute id="1904" value="0" name="mixToMono"/>
         </Attributes>
         <MetaData>
          <entry key="WinSubProjectDisplayName" val=""/>
         </MetaData>
         <ExtraData>
          <Entry key="ZoomPanBin">
           <ZoomPanBin id="1905"  >
            <ZoomPanKeyframes>
             <ZoomPanKeyframe id="1906" timeRangeEnd="-9999999/1" timeRangeDuration="0/1" interpolaterName="linr"  />
            </ZoomPanKeyframes>
           </ZoomPanBin>
          </Entry>
          <Entry key="CursorEffectBin">
           <CursorEffectBin id="1907"  >
            <CursorEffectKeyframes>
            </CursorEffectKeyframes>
           </CursorEffectBin>
          </Entry>
         </ExtraData>
         <GenericTrack id="1908"  >
          <Attributes>
           <Attribute id="1909" value="" name="ident"/>
           <Attribute id="1910" value="0" name="audioMuted"/>
           <Attribute id="1911" value="0" name="videoHidden"/>
          </Attributes>
          <MetaData>
           <entry key="IsLocked" val="False"/>
           <entry key="WinTrackHeight" val="0"/>
          </MetaData>
          <Medias>
           <UnifiedMedia id="1912"  >
            <AMFile id="1913" start="0" duration="268" scalar="1/1" mediaStart="0/1" mediaDuration="268/1" trackNumber="2" src="6" channelNumber="0,1" >
             <Parameters>
              <InterpolatingParam id="1914" interp="linr"  time="0/1" value="1" leadInLength="0/1"  name="volume"/>
              <Parameter id="1915"  name="captions"/>
             </Parameters>
             <Attributes>
              <Attribute id="1916" value="" name="ident"/>
              <Attribute id="1917" value="44100" name="sampleRate"/>
              <Attribute id="1918" value="16" name="bitDepth"/>
              <Attribute id="1919" value="1" name="gain"/>
              <Attribute id="1920" value="0" name="mixToMono"/>
             </Attributes>
            </AMFile>
            <VMFile id="1921" start="0" duration="268" scalar="1/1" mediaStart="0/1" mediaDuration="268/1" trackNumber="1" src="6" >
             <Transformer>
              <VectorParam id="1922"  name="translation">
               <InterpolatingParam id="1923" interp="linr"  time="-9999999/1" value="0" leadInLength="0/1"  />
               <InterpolatingParam id="1924" interp="linr"  time="-9999999/1" value="0" leadInLength="0/1"  />
               <InterpolatingParam id="1925" interp="linr"  time="-9999999/1" value="0" leadInLength="0/1"  />
              </VectorParam>
              <VectorParam id="1926"  name="rotation">
               <InterpolatingParam id="1927" interp="linr"  time="-9999999/1" value="0" leadInLength="0/1"  />
               <InterpolatingParam id="1928" interp="linr"  time="-9999999/1" value="0" leadInLength="0/1"  />
               <InterpolatingParam id="1929" interp="linr"  time="-9999999/1" value="0" leadInLength="0/1"  />
              </VectorParam>
              <VectorParam id="1930"  name="shear">
               <InterpolatingParam id="1931" interp="linr"  time="-9999999/1" value="0" leadInLength="0/1"  />
               <InterpolatingParam id="1932" interp="linr"  time="-9999999/1" value="0" leadInLength="0/1"  />
               <InterpolatingParam id="1933" interp="linr"  time="-9999999/1" value="0" leadInLength="0/1"  />
              </VectorParam>
              <VectorParam id="1934"  name="scale">
               <InterpolatingParam id="1935" interp="linr"  time="-9999999/1" value="1" leadInLength="0/1"  />
               <InterpolatingParam id="1936" interp="linr"  time="-9999999/1" value="1" leadInLength="0/1"  />
               <InterpolatingParam id="1937" interp="linr"  time="-9999999/1" value="1" leadInLength="0/1"  />
              </VectorParam>
              <VectorParam id="1938"  name="anchor">
               <InterpolatingParam id="1939" interp="linr"  time="0/1" value="0" leadInLength="0/1"  />
               <InterpolatingParam id="1940" interp="linr"  time="0/1" value="0" leadInLength="0/1"  />
               <InterpolatingParam id="1941" interp="linr"  time="0/1" value="0" leadInLength="0/1"  />
              </VectorParam>
             </Transformer>
             <Parameters>
              <VectorParam id="1942"  name="sourceCrop">
               <InterpolatingParam id="1943" interp="linr"  time="0/1" value="0" leadInLength="0/1"  />
               <InterpolatingParam id="1944" interp="linr"  time="0/1" value="0" leadInLength="0/1"  />
               <InterpolatingParam id="1945" interp="linr"  time="0/1" value="0" leadInLength="0/1"  />
               <InterpolatingParam id="1946" interp="linr"  time="0/1" value="0" leadInLength="0/1"  />
              </VectorParam>
              <VectorParam id="1947"  name="geometryCrop">
               <InterpolatingParam id="1948" interp="linr"  time="-9999999/1" value="0" leadInLength="0/1"  />
               <InterpolatingParam id="1949" interp="linr"  time="-9999999/1" value="0" leadInLength="0/1"  />
               <InterpolatingParam id="1950" interp="linr"  time="-9999999/1" value="0" leadInLength="0/1"  />
               <InterpolatingParam id="1951" interp="linr"  time="-9999999/1" value="0" leadInLength="0/1"  />
              </VectorParam>
              <InterpolatingParam id="1952" interp="linr"  time="-9999999/1" value="1" leadInLength="0/1"  name="opacity"/>
             </Parameters>
             <Attributes>
              <Attribute id="1953" value="" name="ident"/>
             </Attributes>
             <ExtraData>
              <Entry key="ZoomPanBin">
               <ZoomPanBin id="1954"  >
                <ZoomPanKeyframes>
                 <ZoomPanKeyframe id="1955" timeRangeEnd="-9999999/1" timeRangeDuration="0/1" interpolaterName="linr"  />
                </ZoomPanKeyframes>
               </ZoomPanBin>
              </Entry>
             </ExtraData>
            </VMFile>
            <MetaData>
             <entry key="WinSubProjectDisplayName" val=""/>
            </MetaData>
           </UnifiedMedia>
           <UnifiedMedia id="1956"  >
            <AMFile id="1957" start="268" duration="314" scalar="1/1" mediaStart="337/1" mediaDuration="314/1" trackNumber="2" src="6" channelNumber="0,1" >
             <Parameters>
              <InterpolatingParam id="1958" interp="linr"  time="0/1" value="1" leadInLength="0/1"  name="volume"/>
              <Parameter id="1959"  name="captions"/>
             </Parameters>
             <Attributes>
              <Attribute id="1960" value="" name="ident"/>
              <Attribute id="1961" value="44100" name="sampleRate"/>
              <Attribute id="1962" value="16" name="bitDepth"/>
              <Attribute id="1963" value="1" name="gain"/>
              <Attribute id="1964" value="0" name="mixToMono"/>
             </Attributes>
            </AMFile>
            <VMFile id="1965" start="268" duration="314" scalar="1/1" mediaStart="337/1" mediaDuration="314/1" trackNumber="1" src="6" >
             <Transformer>
              <VectorParam id="1966"  name="translation">
               <InterpolatingParam id="1967" interp="linr"  time="-9999999/1" value="0" leadInLength="0/1"  />
               <InterpolatingParam id="1968" interp="linr"  time="-9999999/1" value="0" leadInLength="0/1"  />
               <InterpolatingParam id="1969" interp="linr"  time="-9999999/1" value="0" leadInLength="0/1"  />
              </VectorParam>
              <VectorParam id="1970"  name="rotation">
               <InterpolatingParam id="1971" interp="linr"  time="-9999999/1" value="0" leadInLength="0/1"  />
               <InterpolatingParam id="1972" interp="linr"  time="-9999999/1" value="0" leadInLength="0/1"  />
               <InterpolatingParam id="1973" interp="linr"  time="-9999999/1" value="0" leadInLength="0/1"  />
              </VectorParam>
              <VectorParam id="1974"  name="shear">
               <InterpolatingParam id="1975" interp="linr"  time="-9999999/1" value="0" leadInLength="0/1"  />
               <InterpolatingParam id="1976" interp="linr"  time="-9999999/1" value="0" leadInLength="0/1"  />
               <InterpolatingParam id="1977" interp="linr"  time="-9999999/1" value="0" leadInLength="0/1"  />
              </VectorParam>
              <VectorParam id="1978"  name="scale">
               <InterpolatingParam id="1979" interp="linr"  time="-9999999/1" value="1" leadInLength="0/1"  />
               <InterpolatingParam id="1980" interp="linr"  time="-9999999/1" value="1" leadInLength="0/1"  />
               <InterpolatingParam id="1981" interp="linr"  time="-9999999/1" value="1" leadInLength="0/1"  />
              </VectorParam>
              <VectorParam id="1982"  name="anchor">
               <InterpolatingParam id="1983" interp="linr"  time="0/1" value="0" leadInLength="0/1"  />
               <InterpolatingParam id="1984" interp="linr"  time="0/1" value="0" leadInLength="0/1"  />
               <InterpolatingParam id="1985" interp="linr"  time="0/1" value="0" leadInLength="0/1"  />
              </VectorParam>
             </Transformer>
             <Parameters>
              <VectorParam id="1986"  name="sourceCrop">
               <InterpolatingParam id="1987" interp="linr"  time="0/1" value="0" leadInLength="0/1"  />
               <InterpolatingParam id="1988" interp="linr"  time="0/1" value="0" leadInLength="0/1"  />
               <InterpolatingParam id="1989" interp="linr"  time="0/1" value="0" leadInLength="0/1"  />
               <InterpolatingParam id="1990" interp="linr"  time="0/1" value="0" leadInLength="0/1"  />
              </VectorParam>
              <VectorParam id="1991"  name="geometryCrop">
               <InterpolatingParam id="1992" interp="linr"  time="-9999999/1" value="0" leadInLength="0/1"  />
               <InterpolatingParam id="1993" interp="linr"  time="-9999999/1" value="0" leadInLength="0/1"  />
               <InterpolatingParam id="1994" interp="linr"  time="-9999999/1" value="0" leadInLength="0/1"  />
               <InterpolatingParam id="1995" interp="linr"  time="-9999999/1" value="0" leadInLength="0/1"  />
              </VectorParam>
              <InterpolatingParam id="1996" interp="linr"  time="-9999999/1" value="1" leadInLength="0/1"  name="opacity"/>
             </Parameters>
             <Attributes>
              <Attribute id="1997" value="" name="ident"/>
             </Attributes>
             <ExtraData>
              <Entry key="ZoomPanBin">
               <ZoomPanBin id="1998"  >
                <ZoomPanKeyframes>
                 <ZoomPanKeyframe id="1999" timeRangeEnd="-9999999/1" timeRangeDuration="0/1" interpolaterName="linr"  />
                </ZoomPanKeyframes>
               </ZoomPanBin>
              </Entry>
             </ExtraData>
            </VMFile>
            <MetaData>
             <entry key="WinSubProjectDisplayName" val=""/>
            </MetaData>
           </UnifiedMedia>
           <UnifiedMedia id="2000"  >
            <AMFile id="2001" start="582" duration="2" scalar="1/1" mediaStart="672/1" mediaDuration="2/1" trackNumber="2" src="6" channelNumber="0,1" >
             <Parameters>
              <InterpolatingParam id="2002" interp="linr"  time="0/1" value="1" leadInLength="0/1"  name="volume"/>
              <Parameter id="2003"  name="captions"/>
             </Parameters>
             <Attributes>
              <Attribute id="2004" value="" name="ident"/>
              <Attribute id="2005" value="44100" name="sampleRate"/>
              <Attribute id="2006" value="16" name="bitDepth"/>
              <Attribute id="2007" value="1" name="gain"/>
              <Attribute id="2008" value="0" name="mixToMono"/>
             </Attributes>
            </AMFile>
            <VMFile id="2009" start="582" duration="2" scalar="1/1" mediaStart="672/1" mediaDuration="2/1" trackNumber="1" src="6" >
             <Transformer>
              <VectorParam id="2010"  name="translation">
               <InterpolatingParam id="2011" interp="linr"  time="-9999999/1" value="0" leadInLength="0/1"  />
               <InterpolatingParam id="2012" interp="linr"  time="-9999999/1" value="0" leadInLength="0/1"  />
               <InterpolatingParam id="2013" interp="linr"  time="-9999999/1" value="0" leadInLength="0/1"  />
              </VectorParam>
              <VectorParam id="2014"  name="rotation">
               <InterpolatingParam id="2015" interp="linr"  time="-9999999/1" value="0" leadInLength="0/1"  />
               <InterpolatingParam id="2016" interp="linr"  time="-9999999/1" value="0" leadInLength="0/1"  />
               <InterpolatingParam id="2017" interp="linr"  time="-9999999/1" value="0" leadInLength="0/1"  />
              </VectorParam>
              <VectorParam id="2018"  name="shear">
               <InterpolatingParam id="2019" interp="linr"  time="-9999999/1" value="0" leadInLength="0/1"  />
               <InterpolatingParam id="2020" interp="linr"  time="-9999999/1" value="0" leadInLength="0/1"  />
               <InterpolatingParam id="2021" interp="linr"  time="-9999999/1" value="0" leadInLength="0/1"  />
              </VectorParam>
              <VectorParam id="2022"  name="scale">
               <InterpolatingParam id="2023" interp="linr"  time="-9999999/1" value="1" leadInLength="0/1"  />
               <InterpolatingParam id="2024" interp="linr"  time="-9999999/1" value="1" leadInLength="0/1"  />
               <InterpolatingParam id="2025" interp="linr"  time="-9999999/1" value="1" leadInLength="0/1"  />
              </VectorParam>
              <VectorParam id="2026"  name="anchor">
               <InterpolatingParam id="2027" interp="linr"  time="0/1" value="0" leadInLength="0/1"  />
               <InterpolatingParam id="2028" interp="linr"  time="0/1" value="0" leadInLength="0/1"  />
               <InterpolatingParam id="2029" interp="linr"  time="0/1" value="0" leadInLength="0/1"  />
              </VectorParam>
             </Transformer>
             <Parameters>
              <VectorParam id="2030"  name="sourceCrop">
               <InterpolatingParam id="2031" interp="linr"  time="0/1" value="0" leadInLength="0/1"  />
               <InterpolatingParam id="2032" interp="linr"  time="0/1" value="0" leadInLength="0/1"  />
               <InterpolatingParam id="2033" interp="linr"  time="0/1" value="0" leadInLength="0/1"  />
               <InterpolatingParam id="2034" interp="linr"  time="0/1" value="0" leadInLength="0/1"  />
              </VectorParam>
              <VectorParam id="2035"  name="geometryCrop">
               <InterpolatingParam id="2036" interp="linr"  time="-9999999/1" value="0" leadInLength="0/1"  />
               <InterpolatingParam id="2037" interp="linr"  time="-9999999/1" value="0" leadInLength="0/1"  />
               <InterpolatingParam id="2038" interp="linr"  time="-9999999/1" value="0" leadInLength="0/1"  />
               <InterpolatingParam id="2039" interp="linr"  time="-9999999/1" value="0" leadInLength="0/1"  />
              </VectorParam>
              <InterpolatingParam id="2040" interp="linr"  time="-9999999/1" value="1" leadInLength="0/1"  name="opacity"/>
             </Parameters>
             <Attributes>
              <Attribute id="2041" value="" name="ident"/>
             </Attributes>
             <ExtraData>
              <Entry key="ZoomPanBin">
               <ZoomPanBin id="2042"  >
                <ZoomPanKeyframes>
                 <ZoomPanKeyframe id="2043" timeRangeEnd="-9999999/1" timeRangeDuration="0/1" interpolaterName="linr"  />
                </ZoomPanKeyframes>
               </ZoomPanBin>
              </Entry>
             </ExtraData>
            </VMFile>
            <MetaData>
             <entry key="WinSubProjectDisplayName" val=""/>
            </MetaData>
           </UnifiedMedia>
           <UnifiedMedia id="2044"  >
            <AMFile id="2045" start="584" duration="128" scalar="1/1" mediaStart="732/1" mediaDuration="128/1" trackNumber="2" src="6" channelNumber="0,1" >
             <Parameters>
              <InterpolatingParam id="2046" interp="linr"  time="0/1" value="1" leadInLength="0/1"  name="volume"/>
              <Parameter id="2047"  name="captions"/>
             </Parameters>
             <Attributes>
              <Attribute id="2048" value="" name="ident"/>
              <Attribute id="2049" value="44100" name="sampleRate"/>
              <Attribute id="2050" value="16" name="bitDepth"/>
              <Attribute id="2051" value="1" name="gain"/>
              <Attribute id="2052" value="0" name="mixToMono"/>
             </Attributes>
            </AMFile>
            <VMFile id="2053" start="584" duration="128" scalar="1/1" mediaStart="732/1" mediaDuration="128/1" trackNumber="1" src="6" >
             <Transformer>
              <VectorParam id="2054"  name="translation">
               <InterpolatingParam id="2055" interp="linr"  time="-9999999/1" value="0" leadInLength="0/1"  />
               <InterpolatingParam id="2056" interp="linr"  time="-9999999/1" value="0" leadInLength="0/1"  />
               <InterpolatingParam id="2057" interp="linr"  time="-9999999/1" value="0" leadInLength="0/1"  />
              </VectorParam>
              <VectorParam id="2058"  name="rotation">
               <InterpolatingParam id="2059" interp="linr"  time="-9999999/1" value="0" leadInLength="0/1"  />
               <InterpolatingParam id="2060" interp="linr"  time="-9999999/1" value="0" leadInLength="0/1"  />
               <InterpolatingParam id="2061" interp="linr"  time="-9999999/1" value="0" leadInLength="0/1"  />
              </VectorParam>
              <VectorParam id="2062"  name="shear">
               <InterpolatingParam id="2063" interp="linr"  time="-9999999/1" value="0" leadInLength="0/1"  />
               <InterpolatingParam id="2064" interp="linr"  time="-9999999/1" value="0" leadInLength="0/1"  />
               <InterpolatingParam id="2065" interp="linr"  time="-9999999/1" value="0" leadInLength="0/1"  />
              </VectorParam>
              <VectorParam id="2066"  name="scale">
               <InterpolatingParam id="2067" interp="linr"  time="-9999999/1" value="1" leadInLength="0/1"  />
               <InterpolatingParam id="2068" interp="linr"  time="-9999999/1" value="1" leadInLength="0/1"  />
               <InterpolatingParam id="2069" interp="linr"  time="-9999999/1" value="1" leadInLength="0/1"  />
              </VectorParam>
              <VectorParam id="2070"  name="anchor">
               <InterpolatingParam id="2071" interp="linr"  time="0/1" value="0" leadInLength="0/1"  />
               <InterpolatingParam id="2072" interp="linr"  time="0/1" value="0" leadInLength="0/1"  />
               <InterpolatingParam id="2073" interp="linr"  time="0/1" value="0" leadInLength="0/1"  />
              </VectorParam>
             </Transformer>
             <Parameters>
              <VectorParam id="2074"  name="sourceCrop">
               <InterpolatingParam id="2075" interp="linr"  time="0/1" value="0" leadInLength="0/1"  />
               <InterpolatingParam id="2076" interp="linr"  time="0/1" value="0" leadInLength="0/1"  />
               <InterpolatingParam id="2077" interp="linr"  time="0/1" value="0" leadInLength="0/1"  />
               <InterpolatingParam id="2078" interp="linr"  time="0/1" value="0" leadInLength="0/1"  />
              </VectorParam>
              <VectorParam id="2079"  name="geometryCrop">
               <InterpolatingParam id="2080" interp="linr"  time="-9999999/1" value="0" leadInLength="0/1"  />
               <InterpolatingParam id="2081" interp="linr"  time="-9999999/1" value="0" leadInLength="0/1"  />
               <InterpolatingParam id="2082" interp="linr"  time="-9999999/1" value="0" leadInLength="0/1"  />
               <InterpolatingParam id="2083" interp="linr"  time="-9999999/1" value="0" leadInLength="0/1"  />
              </VectorParam>
              <InterpolatingParam id="2084" interp="linr"  time="-9999999/1" value="1" leadInLength="0/1"  name="opacity"/>
             </Parameters>
             <Attributes>
              <Attribute id="2085" value="" name="ident"/>
             </Attributes>
             <ExtraData>
              <Entry key="ZoomPanBin">
               <ZoomPanBin id="2086"  >
                <ZoomPanKeyframes>
                 <ZoomPanKeyframe id="2087" timeRangeEnd="-9999999/1" timeRangeDuration="0/1" interpolaterName="linr"  />
                </ZoomPanKeyframes>
               </ZoomPanBin>
              </Entry>
             </ExtraData>
            </VMFile>
            <MetaData>
             <entry key="WinSubProjectDisplayName" val=""/>
            </MetaData>
           </UnifiedMedia>
           <UnifiedMedia id="2088"  >
            <AMFile id="2089" start="712" duration="189" scalar="1/1" mediaStart="886/1" mediaDuration="189/1" trackNumber="2" src="6" channelNumber="0,1" >
             <Parameters>
              <InterpolatingParam id="2090" interp="linr"  time="0/1" value="1" leadInLength="0/1"  name="volume"/>
              <Parameter id="2091"  name="captions"/>
             </Parameters>
             <Attributes>
              <Attribute id="2092" value="" name="ident"/>
              <Attribute id="2093" value="44100" name="sampleRate"/>
              <Attribute id="2094" value="16" name="bitDepth"/>
              <Attribute id="2095" value="1" name="gain"/>
              <Attribute id="2096" value="0" name="mixToMono"/>
             </Attributes>
            </AMFile>
            <VMFile id="2097" start="712" duration="189" scalar="1/1" mediaStart="886/1" mediaDuration="189/1" trackNumber="1" src="6" >
             <Transformer>
              <VectorParam id="2098"  name="translation">
               <InterpolatingParam id="2099" interp="linr"  time="-9999999/1" value="0" leadInLength="0/1"  />
               <InterpolatingParam id="2100" interp="linr"  time="-9999999/1" value="0" leadInLength="0/1"  />
               <InterpolatingParam id="2101" interp="linr"  time="-9999999/1" value="0" leadInLength="0/1"  />
              </VectorParam>
              <VectorParam id="2102"  name="rotation">
               <InterpolatingParam id="2103" interp="linr"  time="-9999999/1" value="0" leadInLength="0/1"  />
               <InterpolatingParam id="2104" interp="linr"  time="-9999999/1" value="0" leadInLength="0/1"  />
               <InterpolatingParam id="2105" interp="linr"  time="-9999999/1" value="0" leadInLength="0/1"  />
              </VectorParam>
              <VectorParam id="2106"  name="shear">
               <InterpolatingParam id="2107" interp="linr"  time="-9999999/1" value="0" leadInLength="0/1"  />
               <InterpolatingParam id="2108" interp="linr"  time="-9999999/1" value="0" leadInLength="0/1"  />
               <InterpolatingParam id="2109" interp="linr"  time="-9999999/1" value="0" leadInLength="0/1"  />
              </VectorParam>
              <VectorParam id="2110"  name="scale">
               <InterpolatingParam id="2111" interp="linr"  time="-9999999/1" value="1" leadInLength="0/1"  />
               <InterpolatingParam id="2112" interp="linr"  time="-9999999/1" value="1" leadInLength="0/1"  />
               <InterpolatingParam id="2113" interp="linr"  time="-9999999/1" value="1" leadInLength="0/1"  />
              </VectorParam>
              <VectorParam id="2114"  name="anchor">
               <InterpolatingParam id="2115" interp="linr"  time="0/1" value="0" leadInLength="0/1"  />
               <InterpolatingParam id="2116" interp="linr"  time="0/1" value="0" leadInLength="0/1"  />
               <InterpolatingParam id="2117" interp="linr"  time="0/1" value="0" leadInLength="0/1"  />
              </VectorParam>
             </Transformer>
             <Parameters>
              <VectorParam id="2118"  name="sourceCrop">
               <InterpolatingParam id="2119" interp="linr"  time="0/1" value="0" leadInLength="0/1"  />
               <InterpolatingParam id="2120" interp="linr"  time="0/1" value="0" leadInLength="0/1"  />
               <InterpolatingParam id="2121" interp="linr"  time="0/1" value="0" leadInLength="0/1"  />
               <InterpolatingParam id="2122" interp="linr"  time="0/1" value="0" leadInLength="0/1"  />
              </VectorParam>
              <VectorParam id="2123"  name="geometryCrop">
               <InterpolatingParam id="2124" interp="linr"  time="-9999999/1" value="0" leadInLength="0/1"  />
               <InterpolatingParam id="2125" interp="linr"  time="-9999999/1" value="0" leadInLength="0/1"  />
               <InterpolatingParam id="2126" interp="linr"  time="-9999999/1" value="0" leadInLength="0/1"  />
               <InterpolatingParam id="2127" interp="linr"  time="-9999999/1" value="0" leadInLength="0/1"  />
              </VectorParam>
              <InterpolatingParam id="2128" interp="linr"  time="-9999999/1" value="1" leadInLength="0/1"  name="opacity"/>
             </Parameters>
             <Attributes>
              <Attribute id="2129" value="" name="ident"/>
             </Attributes>
             <ExtraData>
              <Entry key="ZoomPanBin">
               <ZoomPanBin id="2130"  >
                <ZoomPanKeyframes>
                 <ZoomPanKeyframe id="2131" timeRangeEnd="-9999999/1" timeRangeDuration="0/1" interpolaterName="linr"  />
                </ZoomPanKeyframes>
               </ZoomPanBin>
              </Entry>
             </ExtraData>
            </VMFile>
            <MetaData>
             <entry key="WinSubProjectDisplayName" val=""/>
            </MetaData>
           </UnifiedMedia>
           <UnifiedMedia id="2132"  >
            <AMFile id="2133" start="901" duration="37" scalar="1/1" mediaStart="1117/1" mediaDuration="37/1" trackNumber="2" src="6" channelNumber="0,1" >
             <Parameters>
              <InterpolatingParam id="2134" interp="linr"  time="0/1" value="1" leadInLength="0/1"  name="volume"/>
              <Parameter id="2135"  name="captions"/>
             </Parameters>
             <Attributes>
              <Attribute id="2136" value="" name="ident"/>
              <Attribute id="2137" value="44100" name="sampleRate"/>
              <Attribute id="2138" value="16" name="bitDepth"/>
              <Attribute id="2139" value="1" name="gain"/>
              <Attribute id="2140" value="0" name="mixToMono"/>
             </Attributes>
            </AMFile>
            <VMFile id="2141" start="901" duration="37" scalar="1/1" mediaStart="1117/1" mediaDuration="37/1" trackNumber="1" src="6" >
             <Transformer>
              <VectorParam id="2142"  name="translation">
               <InterpolatingParam id="2143" interp="linr"  time="-9999999/1" value="0" leadInLength="0/1"  />
               <InterpolatingParam id="2144" interp="linr"  time="-9999999/1" value="0" leadInLength="0/1"  />
               <InterpolatingParam id="2145" interp="linr"  time="-9999999/1" value="0" leadInLength="0/1"  />
              </VectorParam>
              <VectorParam id="2146"  name="rotation">
               <InterpolatingParam id="2147" interp="linr"  time="-9999999/1" value="0" leadInLength="0/1"  />
               <InterpolatingParam id="2148" interp="linr"  time="-9999999/1" value="0" leadInLength="0/1"  />
               <InterpolatingParam id="2149" interp="linr"  time="-9999999/1" value="0" leadInLength="0/1"  />
              </VectorParam>
              <VectorParam id="2150"  name="shear">
               <InterpolatingParam id="2151" interp="linr"  time="-9999999/1" value="0" leadInLength="0/1"  />
               <InterpolatingParam id="2152" interp="linr"  time="-9999999/1" value="0" leadInLength="0/1"  />
               <InterpolatingParam id="2153" interp="linr"  time="-9999999/1" value="0" leadInLength="0/1"  />
              </VectorParam>
              <VectorParam id="2154"  name="scale">
               <InterpolatingParam id="2155" interp="linr"  time="-9999999/1" value="1" leadInLength="0/1"  />
               <InterpolatingParam id="2156" interp="linr"  time="-9999999/1" value="1" leadInLength="0/1"  />
               <InterpolatingParam id="2157" interp="linr"  time="-9999999/1" value="1" leadInLength="0/1"  />
              </VectorParam>
              <VectorParam id="2158"  name="anchor">
               <InterpolatingParam id="2159" interp="linr"  time="0/1" value="0" leadInLength="0/1"  />
               <InterpolatingParam id="2160" interp="linr"  time="0/1" value="0" leadInLength="0/1"  />
               <InterpolatingParam id="2161" interp="linr"  time="0/1" value="0" leadInLength="0/1"  />
              </VectorParam>
             </Transformer>
             <Parameters>
              <VectorParam id="2162"  name="sourceCrop">
               <InterpolatingParam id="2163" interp="linr"  time="0/1" value="0" leadInLength="0/1"  />
               <InterpolatingParam id="2164" interp="linr"  time="0/1" value="0" leadInLength="0/1"  />
               <InterpolatingParam id="2165" interp="linr"  time="0/1" value="0" leadInLength="0/1"  />
               <InterpolatingParam id="2166" interp="linr"  time="0/1" value="0" leadInLength="0/1"  />
              </VectorParam>
              <VectorParam id="2167"  name="geometryCrop">
               <InterpolatingParam id="2168" interp="linr"  time="-9999999/1" value="0" leadInLength="0/1"  />
               <InterpolatingParam id="2169" interp="linr"  time="-9999999/1" value="0" leadInLength="0/1"  />
               <InterpolatingParam id="2170" interp="linr"  time="-9999999/1" value="0" leadInLength="0/1"  />
               <InterpolatingParam id="2171" interp="linr"  time="-9999999/1" value="0" leadInLength="0/1"  />
              </VectorParam>
              <InterpolatingParam id="2172" interp="linr"  time="-9999999/1" value="1" leadInLength="0/1"  name="opacity"/>
             </Parameters>
             <Attributes>
              <Attribute id="2173" value="" name="ident"/>
             </Attributes>
             <ExtraData>
              <Entry key="ZoomPanBin">
               <ZoomPanBin id="2174"  >
                <ZoomPanKeyframes>
                 <ZoomPanKeyframe id="2175" timeRangeEnd="-9999999/1" timeRangeDuration="0/1" interpolaterName="linr"  />
                </ZoomPanKeyframes>
               </ZoomPanBin>
              </Entry>
             </ExtraData>
            </VMFile>
            <MetaData>
             <entry key="WinSubProjectDisplayName" val=""/>
            </MetaData>
           </UnifiedMedia>
           <UnifiedMedia id="2176"  >
            <AMFile id="2177" start="938" duration="114" scalar="1/1" mediaStart="1216/1" mediaDuration="114/1" trackNumber="2" src="6" channelNumber="0,1" >
             <Parameters>
              <InterpolatingParam id="2178" interp="linr"  time="0/1" value="1" leadInLength="0/1"  name="volume"/>
              <Parameter id="2179"  name="captions"/>
             </Parameters>
             <Attributes>
              <Attribute id="2180" value="" name="ident"/>
              <Attribute id="2181" value="44100" name="sampleRate"/>
              <Attribute id="2182" value="16" name="bitDepth"/>
              <Attribute id="2183" value="1" name="gain"/>
              <Attribute id="2184" value="0" name="mixToMono"/>
             </Attributes>
            </AMFile>
            <VMFile id="2185" start="938" duration="114" scalar="1/1" mediaStart="1216/1" mediaDuration="114/1" trackNumber="1" src="6" >
             <Transformer>
              <VectorParam id="2186"  name="translation">
               <InterpolatingParam id="2187" interp="linr"  time="-9999999/1" value="0" leadInLength="0/1"  />
               <InterpolatingParam id="2188" interp="linr"  time="-9999999/1" value="0" leadInLength="0/1"  />
               <InterpolatingParam id="2189" interp="linr"  time="-9999999/1" value="0" leadInLength="0/1"  />
              </VectorParam>
              <VectorParam id="2190"  name="rotation">
               <InterpolatingParam id="2191" interp="linr"  time="-9999999/1" value="0" leadInLength="0/1"  />
               <InterpolatingParam id="2192" interp="linr"  time="-9999999/1" value="0" leadInLength="0/1"  />
               <InterpolatingParam id="2193" interp="linr"  time="-9999999/1" value="0" leadInLength="0/1"  />
              </VectorParam>
              <VectorParam id="2194"  name="shear">
               <InterpolatingParam id="2195" interp="linr"  time="-9999999/1" value="0" leadInLength="0/1"  />
               <InterpolatingParam id="2196" interp="linr"  time="-9999999/1" value="0" leadInLength="0/1"  />
               <InterpolatingParam id="2197" interp="linr"  time="-9999999/1" value="0" leadInLength="0/1"  />
              </VectorParam>
              <VectorParam id="2198"  name="scale">
               <InterpolatingParam id="2199" interp="linr"  time="-9999999/1" value="1" leadInLength="0/1"  />
               <InterpolatingParam id="2200" interp="linr"  time="-9999999/1" value="1" leadInLength="0/1"  />
               <InterpolatingParam id="2201" interp="linr"  time="-9999999/1" value="1" leadInLength="0/1"  />
              </VectorParam>
              <VectorParam id="2202"  name="anchor">
               <InterpolatingParam id="2203" interp="linr"  time="0/1" value="0" leadInLength="0/1"  />
               <InterpolatingParam id="2204" interp="linr"  time="0/1" value="0" leadInLength="0/1"  />
               <InterpolatingParam id="2205" interp="linr"  time="0/1" value="0" leadInLength="0/1"  />
              </VectorParam>
             </Transformer>
             <Parameters>
              <VectorParam id="2206"  name="sourceCrop">
               <InterpolatingParam id="2207" interp="linr"  time="0/1" value="0" leadInLength="0/1"  />
               <InterpolatingParam id="2208" interp="linr"  time="0/1" value="0" leadInLength="0/1"  />
               <InterpolatingParam id="2209" interp="linr"  time="0/1" value="0" leadInLength="0/1"  />
               <InterpolatingParam id="2210" interp="linr"  time="0/1" value="0" leadInLength="0/1"  />
              </VectorParam>
              <VectorParam id="2211"  name="geometryCrop">
               <InterpolatingParam id="2212" interp="linr"  time="-9999999/1" value="0" leadInLength="0/1"  />
               <InterpolatingParam id="2213" interp="linr"  time="-9999999/1" value="0" leadInLength="0/1"  />
               <InterpolatingParam id="2214" interp="linr"  time="-9999999/1" value="0" leadInLength="0/1"  />
               <InterpolatingParam id="2215" interp="linr"  time="-9999999/1" value="0" leadInLength="0/1"  />
              </VectorParam>
              <InterpolatingParam id="2216" interp="linr"  time="-9999999/1" value="1" leadInLength="0/1"  name="opacity"/>
             </Parameters>
             <Attributes>
              <Attribute id="2217" value="" name="ident"/>
             </Attributes>
             <ExtraData>
              <Entry key="ZoomPanBin">
               <ZoomPanBin id="2218"  >
                <ZoomPanKeyframes>
                 <ZoomPanKeyframe id="2219" timeRangeEnd="-9999999/1" timeRangeDuration="0/1" interpolaterName="linr"  />
                </ZoomPanKeyframes>
               </ZoomPanBin>
              </Entry>
             </ExtraData>
            </VMFile>
            <MetaData>
             <entry key="WinSubProjectDisplayName" val=""/>
            </MetaData>
           </UnifiedMedia>
           <UnifiedMedia id="2220"  >
            <AMFile id="2221" start="1052" duration="360" scalar="1/1" mediaStart="1513/1" mediaDuration="360/1" trackNumber="2" src="6" channelNumber="0,1" >
             <Parameters>
              <InterpolatingParam id="2222" interp="linr"  time="0/1" value="1" leadInLength="0/1"  name="volume"/>
              <Parameter id="2223"  name="captions"/>
             </Parameters>
             <Attributes>
              <Attribute id="2224" value="" name="ident"/>
              <Attribute id="2225" value="44100" name="sampleRate"/>
              <Attribute id="2226" value="16" name="bitDepth"/>
              <Attribute id="2227" value="1" name="gain"/>
              <Attribute id="2228" value="0" name="mixToMono"/>
             </Attributes>
            </AMFile>
            <VMFile id="2229" start="1052" duration="360" scalar="1/1" mediaStart="1513/1" mediaDuration="360/1" trackNumber="1" src="6" >
             <Transformer>
              <VectorParam id="2230"  name="translation">
               <InterpolatingParam id="2231" interp="linr"  time="-9999999/1" value="0" leadInLength="0/1"  />
               <InterpolatingParam id="2232" interp="linr"  time="-9999999/1" value="0" leadInLength="0/1"  />
               <InterpolatingParam id="2233" interp="linr"  time="-9999999/1" value="0" leadInLength="0/1"  />
              </VectorParam>
              <VectorParam id="2234"  name="rotation">
               <InterpolatingParam id="2235" interp="linr"  time="-9999999/1" value="0" leadInLength="0/1"  />
               <InterpolatingParam id="2236" interp="linr"  time="-9999999/1" value="0" leadInLength="0/1"  />
               <InterpolatingParam id="2237" interp="linr"  time="-9999999/1" value="0" leadInLength="0/1"  />
              </VectorParam>
              <VectorParam id="2238"  name="shear">
               <InterpolatingParam id="2239" interp="linr"  time="-9999999/1" value="0" leadInLength="0/1"  />
               <InterpolatingParam id="2240" interp="linr"  time="-9999999/1" value="0" leadInLength="0/1"  />
               <InterpolatingParam id="2241" interp="linr"  time="-9999999/1" value="0" leadInLength="0/1"  />
              </VectorParam>
              <VectorParam id="2242"  name="scale">
               <InterpolatingParam id="2243" interp="linr"  time="-9999999/1" value="1" leadInLength="0/1"  />
               <InterpolatingParam id="2244" interp="linr"  time="-9999999/1" value="1" leadInLength="0/1"  />
               <InterpolatingParam id="2245" interp="linr"  time="-9999999/1" value="1" leadInLength="0/1"  />
              </VectorParam>
              <VectorParam id="2246"  name="anchor">
               <InterpolatingParam id="2247" interp="linr"  time="0/1" value="0" leadInLength="0/1"  />
               <InterpolatingParam id="2248" interp="linr"  time="0/1" value="0" leadInLength="0/1"  />
               <InterpolatingParam id="2249" interp="linr"  time="0/1" value="0" leadInLength="0/1"  />
              </VectorParam>
             </Transformer>
             <Parameters>
              <VectorParam id="2250"  name="sourceCrop">
               <InterpolatingParam id="2251" interp="linr"  time="0/1" value="0" leadInLength="0/1"  />
               <InterpolatingParam id="2252" interp="linr"  time="0/1" value="0" leadInLength="0/1"  />
               <InterpolatingParam id="2253" interp="linr"  time="0/1" value="0" leadInLength="0/1"  />
               <InterpolatingParam id="2254" interp="linr"  time="0/1" value="0" leadInLength="0/1"  />
              </VectorParam>
              <VectorParam id="2255"  name="geometryCrop">
               <InterpolatingParam id="2256" interp="linr"  time="-9999999/1" value="0" leadInLength="0/1"  />
               <InterpolatingParam id="2257" interp="linr"  time="-9999999/1" value="0" leadInLength="0/1"  />
               <InterpolatingParam id="2258" interp="linr"  time="-9999999/1" value="0" leadInLength="0/1"  />
               <InterpolatingParam id="2259" interp="linr"  time="-9999999/1" value="0" leadInLength="0/1"  />
              </VectorParam>
              <InterpolatingParam id="2260" interp="linr"  time="-9999999/1" value="1" leadInLength="0/1"  name="opacity"/>
             </Parameters>
             <Attributes>
              <Attribute id="2261" value="" name="ident"/>
             </Attributes>
             <ExtraData>
              <Entry key="ZoomPanBin">
               <ZoomPanBin id="2262"  >
                <ZoomPanKeyframes>
                 <ZoomPanKeyframe id="2263" timeRangeEnd="-9999999/1" timeRangeDuration="0/1" interpolaterName="linr"  />
                </ZoomPanKeyframes>
               </ZoomPanBin>
              </Entry>
             </ExtraData>
            </VMFile>
            <MetaData>
             <entry key="WinSubProjectDisplayName" val=""/>
            </MetaData>
           </UnifiedMedia>
           <UnifiedMedia id="2264"  >
            <AMFile id="2265" start="1412" duration="391" scalar="1/1" mediaStart="1900/1" mediaDuration="391/1" trackNumber="2" src="6" channelNumber="0,1" >
             <Parameters>
              <InterpolatingParam id="2266" interp="linr"  time="0/1" value="1" leadInLength="0/1"  name="volume"/>
              <Parameter id="2267"  name="captions"/>
             </Parameters>
             <Attributes>
              <Attribute id="2268" value="" name="ident"/>
              <Attribute id="2269" value="44100" name="sampleRate"/>
              <Attribute id="2270" value="16" name="bitDepth"/>
              <Attribute id="2271" value="1" name="gain"/>
              <Attribute id="2272" value="0" name="mixToMono"/>
             </Attributes>
            </AMFile>
            <VMFile id="2273" start="1412" duration="391" scalar="1/1" mediaStart="1900/1" mediaDuration="391/1" trackNumber="1" src="6" >
             <Transformer>
              <VectorParam id="2274"  name="translation">
               <InterpolatingParam id="2275" interp="linr"  time="-9999999/1" value="0" leadInLength="0/1"  />
               <InterpolatingParam id="2276" interp="linr"  time="-9999999/1" value="0" leadInLength="0/1"  />
               <InterpolatingParam id="2277" interp="linr"  time="-9999999/1" value="0" leadInLength="0/1"  />
              </VectorParam>
              <VectorParam id="2278"  name="rotation">
               <InterpolatingParam id="2279" interp="linr"  time="-9999999/1" value="0" leadInLength="0/1"  />
               <InterpolatingParam id="2280" interp="linr"  time="-9999999/1" value="0" leadInLength="0/1"  />
               <InterpolatingParam id="2281" interp="linr"  time="-9999999/1" value="0" leadInLength="0/1"  />
              </VectorParam>
              <VectorParam id="2282"  name="shear">
               <InterpolatingParam id="2283" interp="linr"  time="-9999999/1" value="0" leadInLength="0/1"  />
               <InterpolatingParam id="2284" interp="linr"  time="-9999999/1" value="0" leadInLength="0/1"  />
               <InterpolatingParam id="2285" interp="linr"  time="-9999999/1" value="0" leadInLength="0/1"  />
              </VectorParam>
              <VectorParam id="2286"  name="scale">
               <InterpolatingParam id="2287" interp="linr"  time="-9999999/1" value="1" leadInLength="0/1"  />
               <InterpolatingParam id="2288" interp="linr"  time="-9999999/1" value="1" leadInLength="0/1"  />
               <InterpolatingParam id="2289" interp="linr"  time="-9999999/1" value="1" leadInLength="0/1"  />
              </VectorParam>
              <VectorParam id="2290"  name="anchor">
               <InterpolatingParam id="2291" interp="linr"  time="0/1" value="0" leadInLength="0/1"  />
               <InterpolatingParam id="2292" interp="linr"  time="0/1" value="0" leadInLength="0/1"  />
               <InterpolatingParam id="2293" interp="linr"  time="0/1" value="0" leadInLength="0/1"  />
              </VectorParam>
             </Transformer>
             <Parameters>
              <VectorParam id="2294"  name="sourceCrop">
               <InterpolatingParam id="2295" interp="linr"  time="0/1" value="0" leadInLength="0/1"  />
               <InterpolatingParam id="2296" interp="linr"  time="0/1" value="0" leadInLength="0/1"  />
               <InterpolatingParam id="2297" interp="linr"  time="0/1" value="0" leadInLength="0/1"  />
               <InterpolatingParam id="2298" interp="linr"  time="0/1" value="0" leadInLength="0/1"  />
              </VectorParam>
              <VectorParam id="2299"  name="geometryCrop">
               <InterpolatingParam id="2300" interp="linr"  time="-9999999/1" value="0" leadInLength="0/1"  />
               <InterpolatingParam id="2301" interp="linr"  time="-9999999/1" value="0" leadInLength="0/1"  />
               <InterpolatingParam id="2302" interp="linr"  time="-9999999/1" value="0" leadInLength="0/1"  />
               <InterpolatingParam id="2303" interp="linr"  time="-9999999/1" value="0" leadInLength="0/1"  />
              </VectorParam>
              <InterpolatingParam id="2304" interp="linr"  time="-9999999/1" value="1" leadInLength="0/1"  name="opacity"/>
             </Parameters>
             <Attributes>
              <Attribute id="2305" value="" name="ident"/>
             </Attributes>
             <ExtraData>
              <Entry key="ZoomPanBin">
               <ZoomPanBin id="2306"  >
                <ZoomPanKeyframes>
                 <ZoomPanKeyframe id="2307" timeRangeEnd="-9999999/1" timeRangeDuration="0/1" interpolaterName="linr"  />
                </ZoomPanKeyframes>
               </ZoomPanBin>
              </Entry>
             </ExtraData>
            </VMFile>
            <MetaData>
             <entry key="WinSubProjectDisplayName" val=""/>
            </MetaData>
           </UnifiedMedia>
           <UnifiedMedia id="2308"  >
            <AMFile id="2309" start="1803" duration="509" scalar="1/1" mediaStart="2637/1" mediaDuration="509/1" trackNumber="2" src="6" channelNumber="0,1" >
             <Parameters>
              <InterpolatingParam id="2310" interp="linr"  time="0/1" value="1" leadInLength="0/1"  name="volume"/>
              <Parameter id="2311"  name="captions"/>
             </Parameters>
             <Attributes>
              <Attribute id="2312" value="" name="ident"/>
              <Attribute id="2313" value="44100" name="sampleRate"/>
              <Attribute id="2314" value="16" name="bitDepth"/>
              <Attribute id="2315" value="1" name="gain"/>
              <Attribute id="2316" value="0" name="mixToMono"/>
             </Attributes>
            </AMFile>
            <VMFile id="2317" start="1803" duration="509" scalar="1/1" mediaStart="2637/1" mediaDuration="509/1" trackNumber="1" src="6" >
             <Transformer>
              <VectorParam id="2318"  name="translation">
               <InterpolatingParam id="2319" interp="linr"  time="-9999999/1" value="0" leadInLength="0/1"  />
               <InterpolatingParam id="2320" interp="linr"  time="-9999999/1" value="0" leadInLength="0/1"  />
               <InterpolatingParam id="2321" interp="linr"  time="-9999999/1" value="0" leadInLength="0/1"  />
              </VectorParam>
              <VectorParam id="2322"  name="rotation">
               <InterpolatingParam id="2323" interp="linr"  time="-9999999/1" value="0" leadInLength="0/1"  />
               <InterpolatingParam id="2324" interp="linr"  time="-9999999/1" value="0" leadInLength="0/1"  />
               <InterpolatingParam id="2325" interp="linr"  time="-9999999/1" value="0" leadInLength="0/1"  />
              </VectorParam>
              <VectorParam id="2326"  name="shear">
               <InterpolatingParam id="2327" interp="linr"  time="-9999999/1" value="0" leadInLength="0/1"  />
               <InterpolatingParam id="2328" interp="linr"  time="-9999999/1" value="0" leadInLength="0/1"  />
               <InterpolatingParam id="2329" interp="linr"  time="-9999999/1" value="0" leadInLength="0/1"  />
              </VectorParam>
              <VectorParam id="2330"  name="scale">
               <InterpolatingParam id="2331" interp="linr"  time="-9999999/1" value="1" leadInLength="0/1"  />
               <InterpolatingParam id="2332" interp="linr"  time="-9999999/1" value="1" leadInLength="0/1"  />
               <InterpolatingParam id="2333" interp="linr"  time="-9999999/1" value="1" leadInLength="0/1"  />
              </VectorParam>
              <VectorParam id="2334"  name="anchor">
               <InterpolatingParam id="2335" interp="linr"  time="0/1" value="0" leadInLength="0/1"  />
               <InterpolatingParam id="2336" interp="linr"  time="0/1" value="0" leadInLength="0/1"  />
               <InterpolatingParam id="2337" interp="linr"  time="0/1" value="0" leadInLength="0/1"  />
              </VectorParam>
             </Transformer>
             <Parameters>
              <VectorParam id="2338"  name="sourceCrop">
               <InterpolatingParam id="2339" interp="linr"  time="0/1" value="0" leadInLength="0/1"  />
               <InterpolatingParam id="2340" interp="linr"  time="0/1" value="0" leadInLength="0/1"  />
               <InterpolatingParam id="2341" interp="linr"  time="0/1" value="0" leadInLength="0/1"  />
               <InterpolatingParam id="2342" interp="linr"  time="0/1" value="0" leadInLength="0/1"  />
              </VectorParam>
              <VectorParam id="2343"  name="geometryCrop">
               <InterpolatingParam id="2344" interp="linr"  time="-9999999/1" value="0" leadInLength="0/1"  />
               <InterpolatingParam id="2345" interp="linr"  time="-9999999/1" value="0" leadInLength="0/1"  />
               <InterpolatingParam id="2346" interp="linr"  time="-9999999/1" value="0" leadInLength="0/1"  />
               <InterpolatingParam id="2347" interp="linr"  time="-9999999/1" value="0" leadInLength="0/1"  />
              </VectorParam>
              <InterpolatingParam id="2348" interp="linr"  time="-9999999/1" value="1" leadInLength="0/1"  name="opacity"/>
             </Parameters>
             <Attributes>
              <Attribute id="2349" value="" name="ident"/>
             </Attributes>
             <ExtraData>
              <Entry key="ZoomPanBin">
               <ZoomPanBin id="2350"  >
                <ZoomPanKeyframes>
                 <ZoomPanKeyframe id="2351" timeRangeEnd="-9999999/1" timeRangeDuration="0/1" interpolaterName="linr"  />
                </ZoomPanKeyframes>
               </ZoomPanBin>
              </Entry>
             </ExtraData>
            </VMFile>
            <MetaData>
             <entry key="WinSubProjectDisplayName" val=""/>
            </MetaData>
           </UnifiedMedia>
           <UnifiedMedia id="2352"  >
            <AMFile id="2353" start="2312" duration="1284" scalar="1/1" mediaStart="3175/1" mediaDuration="1284/1" trackNumber="2" src="6" channelNumber="0,1" >
             <Parameters>
              <InterpolatingParam id="2354" interp="linr"  time="0/1" value="1" leadInLength="0/1"  name="volume"/>
              <Parameter id="2355"  name="captions"/>
             </Parameters>
             <Attributes>
              <Attribute id="2356" value="" name="ident"/>
              <Attribute id="2357" value="44100" name="sampleRate"/>
              <Attribute id="2358" value="16" name="bitDepth"/>
              <Attribute id="2359" value="1" name="gain"/>
              <Attribute id="2360" value="0" name="mixToMono"/>
             </Attributes>
            </AMFile>
            <VMFile id="2361" start="2312" duration="1284" scalar="1/1" mediaStart="3175/1" mediaDuration="1284/1" trackNumber="1" src="6" >
             <Transformer>
              <VectorParam id="2362"  name="translation">
               <InterpolatingParam id="2363" interp="linr"  time="-9999999/1" value="0" leadInLength="0/1"  />
               <InterpolatingParam id="2364" interp="linr"  time="-9999999/1" value="0" leadInLength="0/1"  />
               <InterpolatingParam id="2365" interp="linr"  time="-9999999/1" value="0" leadInLength="0/1"  />
              </VectorParam>
              <VectorParam id="2366"  name="rotation">
               <InterpolatingParam id="2367" interp="linr"  time="-9999999/1" value="0" leadInLength="0/1"  />
               <InterpolatingParam id="2368" interp="linr"  time="-9999999/1" value="0" leadInLength="0/1"  />
               <InterpolatingParam id="2369" interp="linr"  time="-9999999/1" value="0" leadInLength="0/1"  />
              </VectorParam>
              <VectorParam id="2370"  name="shear">
               <InterpolatingParam id="2371" interp="linr"  time="-9999999/1" value="0" leadInLength="0/1"  />
               <InterpolatingParam id="2372" interp="linr"  time="-9999999/1" value="0" leadInLength="0/1"  />
               <InterpolatingParam id="2373" interp="linr"  time="-9999999/1" value="0" leadInLength="0/1"  />
              </VectorParam>
              <VectorParam id="2374"  name="scale">
               <InterpolatingParam id="2375" interp="linr"  time="-9999999/1" value="1" leadInLength="0/1"  />
               <InterpolatingParam id="2376" interp="linr"  time="-9999999/1" value="1" leadInLength="0/1"  />
               <InterpolatingParam id="2377" interp="linr"  time="-9999999/1" value="1" leadInLength="0/1"  />
              </VectorParam>
              <VectorParam id="2378"  name="anchor">
               <InterpolatingParam id="2379" interp="linr"  time="0/1" value="0" leadInLength="0/1"  />
               <InterpolatingParam id="2380" interp="linr"  time="0/1" value="0" leadInLength="0/1"  />
               <InterpolatingParam id="2381" interp="linr"  time="0/1" value="0" leadInLength="0/1"  />
              </VectorParam>
             </Transformer>
             <Parameters>
              <VectorParam id="2382"  name="sourceCrop">
               <InterpolatingParam id="2383" interp="linr"  time="0/1" value="0" leadInLength="0/1"  />
               <InterpolatingParam id="2384" interp="linr"  time="0/1" value="0" leadInLength="0/1"  />
               <InterpolatingParam id="2385" interp="linr"  time="0/1" value="0" leadInLength="0/1"  />
               <InterpolatingParam id="2386" interp="linr"  time="0/1" value="0" leadInLength="0/1"  />
              </VectorParam>
              <VectorParam id="2387"  name="geometryCrop">
               <InterpolatingParam id="2388" interp="linr"  time="-9999999/1" value="0" leadInLength="0/1"  />
               <InterpolatingParam id="2389" interp="linr"  time="-9999999/1" value="0" leadInLength="0/1"  />
               <InterpolatingParam id="2390" interp="linr"  time="-9999999/1" value="0" leadInLength="0/1"  />
               <InterpolatingParam id="2391" interp="linr"  time="-9999999/1" value="0" leadInLength="0/1"  />
              </VectorParam>
              <InterpolatingParam id="2392" interp="linr"  time="-9999999/1" value="1" leadInLength="0/1"  name="opacity"/>
             </Parameters>
             <Attributes>
              <Attribute id="2393" value="" name="ident"/>
             </Attributes>
             <ExtraData>
              <Entry key="ZoomPanBin">
               <ZoomPanBin id="2394"  >
                <ZoomPanKeyframes>
                 <ZoomPanKeyframe id="2395" timeRangeEnd="-9999999/1" timeRangeDuration="0/1" interpolaterName="linr"  />
                </ZoomPanKeyframes>
               </ZoomPanBin>
              </Entry>
             </ExtraData>
            </VMFile>
            <MetaData>
             <entry key="WinSubProjectDisplayName" val=""/>
            </MetaData>
           </UnifiedMedia>
           <UnifiedMedia id="2396"  >
            <AMFile id="2397" start="3596" duration="967" scalar="1/1" mediaStart="4652/1" mediaDuration="967/1" trackNumber="2" src="6" channelNumber="0,1" >
             <Parameters>
              <InterpolatingParam id="2398" interp="linr"  time="0/1" value="1" leadInLength="0/1"  name="volume"/>
              <Parameter id="2399"  name="captions"/>
             </Parameters>
             <Attributes>
              <Attribute id="2400" value="" name="ident"/>
              <Attribute id="2401" value="44100" name="sampleRate"/>
              <Attribute id="2402" value="16" name="bitDepth"/>
              <Attribute id="2403" value="1" name="gain"/>
              <Attribute id="2404" value="0" name="mixToMono"/>
             </Attributes>
            </AMFile>
            <VMFile id="2405" start="3596" duration="967" scalar="1/1" mediaStart="4652/1" mediaDuration="967/1" trackNumber="1" src="6" >
             <Transformer>
              <VectorParam id="2406"  name="translation">
               <InterpolatingParam id="2407" interp="linr"  time="-9999999/1" value="0" leadInLength="0/1"  />
               <InterpolatingParam id="2408" interp="linr"  time="-9999999/1" value="0" leadInLength="0/1"  />
               <InterpolatingParam id="2409" interp="linr"  time="-9999999/1" value="0" leadInLength="0/1"  />
              </VectorParam>
              <VectorParam id="2410"  name="rotation">
               <InterpolatingParam id="2411" interp="linr"  time="-9999999/1" value="0" leadInLength="0/1"  />
               <InterpolatingParam id="2412" interp="linr"  time="-9999999/1" value="0" leadInLength="0/1"  />
               <InterpolatingParam id="2413" interp="linr"  time="-9999999/1" value="0" leadInLength="0/1"  />
              </VectorParam>
              <VectorParam id="2414"  name="shear">
               <InterpolatingParam id="2415" interp="linr"  time="-9999999/1" value="0" leadInLength="0/1"  />
               <InterpolatingParam id="2416" interp="linr"  time="-9999999/1" value="0" leadInLength="0/1"  />
               <InterpolatingParam id="2417" interp="linr"  time="-9999999/1" value="0" leadInLength="0/1"  />
              </VectorParam>
              <VectorParam id="2418"  name="scale">
               <InterpolatingParam id="2419" interp="linr"  time="-9999999/1" value="1" leadInLength="0/1"  />
               <InterpolatingParam id="2420" interp="linr"  time="-9999999/1" value="1" leadInLength="0/1"  />
               <InterpolatingParam id="2421" interp="linr"  time="-9999999/1" value="1" leadInLength="0/1"  />
              </VectorParam>
              <VectorParam id="2422"  name="anchor">
               <InterpolatingParam id="2423" interp="linr"  time="0/1" value="0" leadInLength="0/1"  />
               <InterpolatingParam id="2424" interp="linr"  time="0/1" value="0" leadInLength="0/1"  />
               <InterpolatingParam id="2425" interp="linr"  time="0/1" value="0" leadInLength="0/1"  />
              </VectorParam>
             </Transformer>
             <Parameters>
              <VectorParam id="2426"  name="sourceCrop">
               <InterpolatingParam id="2427" interp="linr"  time="0/1" value="0" leadInLength="0/1"  />
               <InterpolatingParam id="2428" interp="linr"  time="0/1" value="0" leadInLength="0/1"  />
               <InterpolatingParam id="2429" interp="linr"  time="0/1" value="0" leadInLength="0/1"  />
               <InterpolatingParam id="2430" interp="linr"  time="0/1" value="0" leadInLength="0/1"  />
              </VectorParam>
              <VectorParam id="2431"  name="geometryCrop">
               <InterpolatingParam id="2432" interp="linr"  time="-9999999/1" value="0" leadInLength="0/1"  />
               <InterpolatingParam id="2433" interp="linr"  time="-9999999/1" value="0" leadInLength="0/1"  />
               <InterpolatingParam id="2434" interp="linr"  time="-9999999/1" value="0" leadInLength="0/1"  />
               <InterpolatingParam id="2435" interp="linr"  time="-9999999/1" value="0" leadInLength="0/1"  />
              </VectorParam>
              <InterpolatingParam id="2436" interp="linr"  time="-9999999/1" value="1" leadInLength="0/1"  name="opacity"/>
             </Parameters>
             <Attributes>
              <Attribute id="2437" value="" name="ident"/>
             </Attributes>
             <ExtraData>
              <Entry key="ZoomPanBin">
               <ZoomPanBin id="2438"  >
                <ZoomPanKeyframes>
                 <ZoomPanKeyframe id="2439" timeRangeEnd="-9999999/1" timeRangeDuration="0/1" interpolaterName="linr"  />
                </ZoomPanKeyframes>
               </ZoomPanBin>
              </Entry>
             </ExtraData>
            </VMFile>
            <MetaData>
             <entry key="WinSubProjectDisplayName" val=""/>
            </MetaData>
           </UnifiedMedia>
           <UnifiedMedia id="2440"  >
            <AMFile id="2441" start="4563" duration="48" scalar="1/1" mediaStart="7038/1" mediaDuration="48/1" trackNumber="2" src="6" channelNumber="0,1" >
             <Parameters>
              <InterpolatingParam id="2442" interp="linr"  time="0/1" value="1" leadInLength="0/1"  name="volume"/>
              <Parameter id="2443"  name="captions"/>
             </Parameters>
             <Attributes>
              <Attribute id="2444" value="" name="ident"/>
              <Attribute id="2445" value="44100" name="sampleRate"/>
              <Attribute id="2446" value="16" name="bitDepth"/>
              <Attribute id="2447" value="1" name="gain"/>
              <Attribute id="2448" value="0" name="mixToMono"/>
             </Attributes>
            </AMFile>
            <VMFile id="2449" start="4563" duration="48" scalar="1/1" mediaStart="7038/1" mediaDuration="48/1" trackNumber="1" src="6" >
             <Transformer>
              <VectorParam id="2450"  name="translation">
               <InterpolatingParam id="2451" interp="linr"  time="-9999999/1" value="0" leadInLength="0/1"  />
               <InterpolatingParam id="2452" interp="linr"  time="-9999999/1" value="0" leadInLength="0/1"  />
               <InterpolatingParam id="2453" interp="linr"  time="-9999999/1" value="0" leadInLength="0/1"  />
              </VectorParam>
              <VectorParam id="2454"  name="rotation">
               <InterpolatingParam id="2455" interp="linr"  time="-9999999/1" value="0" leadInLength="0/1"  />
               <InterpolatingParam id="2456" interp="linr"  time="-9999999/1" value="0" leadInLength="0/1"  />
               <InterpolatingParam id="2457" interp="linr"  time="-9999999/1" value="0" leadInLength="0/1"  />
              </VectorParam>
              <VectorParam id="2458"  name="shear">
               <InterpolatingParam id="2459" interp="linr"  time="-9999999/1" value="0" leadInLength="0/1"  />
               <InterpolatingParam id="2460" interp="linr"  time="-9999999/1" value="0" leadInLength="0/1"  />
               <InterpolatingParam id="2461" interp="linr"  time="-9999999/1" value="0" leadInLength="0/1"  />
              </VectorParam>
              <VectorParam id="2462"  name="scale">
               <InterpolatingParam id="2463" interp="linr"  time="-9999999/1" value="1" leadInLength="0/1"  />
               <InterpolatingParam id="2464" interp="linr"  time="-9999999/1" value="1" leadInLength="0/1"  />
               <InterpolatingParam id="2465" interp="linr"  time="-9999999/1" value="1" leadInLength="0/1"  />
              </VectorParam>
              <VectorParam id="2466"  name="anchor">
               <InterpolatingParam id="2467" interp="linr"  time="0/1" value="0" leadInLength="0/1"  />
               <InterpolatingParam id="2468" interp="linr"  time="0/1" value="0" leadInLength="0/1"  />
               <InterpolatingParam id="2469" interp="linr"  time="0/1" value="0" leadInLength="0/1"  />
              </VectorParam>
             </Transformer>
             <Parameters>
              <VectorParam id="2470"  name="sourceCrop">
               <InterpolatingParam id="2471" interp="linr"  time="0/1" value="0" leadInLength="0/1"  />
               <InterpolatingParam id="2472" interp="linr"  time="0/1" value="0" leadInLength="0/1"  />
               <InterpolatingParam id="2473" interp="linr"  time="0/1" value="0" leadInLength="0/1"  />
               <InterpolatingParam id="2474" interp="linr"  time="0/1" value="0" leadInLength="0/1"  />
              </VectorParam>
              <VectorParam id="2475"  name="geometryCrop">
               <InterpolatingParam id="2476" interp="linr"  time="-9999999/1" value="0" leadInLength="0/1"  />
               <InterpolatingParam id="2477" interp="linr"  time="-9999999/1" value="0" leadInLength="0/1"  />
               <InterpolatingParam id="2478" interp="linr"  time="-9999999/1" value="0" leadInLength="0/1"  />
               <InterpolatingParam id="2479" interp="linr"  time="-9999999/1" value="0" leadInLength="0/1"  />
              </VectorParam>
              <InterpolatingParam id="2480" interp="linr"  time="-9999999/1" value="1" leadInLength="0/1"  name="opacity"/>
             </Parameters>
             <Attributes>
              <Attribute id="2481" value="" name="ident"/>
             </Attributes>
             <ExtraData>
              <Entry key="ZoomPanBin">
               <ZoomPanBin id="2482"  >
                <ZoomPanKeyframes>
                 <ZoomPanKeyframe id="2483" timeRangeEnd="-9999999/1" timeRangeDuration="0/1" interpolaterName="linr"  />
                </ZoomPanKeyframes>
               </ZoomPanBin>
              </Entry>
             </ExtraData>
            </VMFile>
            <MetaData>
             <entry key="WinSubProjectDisplayName" val=""/>
            </MetaData>
           </UnifiedMedia>
           <UnifiedMedia id="2484"  >
            <AMFile id="2485" start="4611" duration="240" scalar="1/1" mediaStart="7208/1" mediaDuration="240/1" trackNumber="2" src="6" channelNumber="0,1" >
             <Parameters>
              <InterpolatingParam id="2486" interp="linr"  time="0/1" value="1" leadInLength="0/1"  name="volume"/>
              <Parameter id="2487"  name="captions"/>
             </Parameters>
             <Attributes>
              <Attribute id="2488" value="" name="ident"/>
              <Attribute id="2489" value="44100" name="sampleRate"/>
              <Attribute id="2490" value="16" name="bitDepth"/>
              <Attribute id="2491" value="1" name="gain"/>
              <Attribute id="2492" value="0" name="mixToMono"/>
             </Attributes>
            </AMFile>
            <VMFile id="2493" start="4611" duration="240" scalar="1/1" mediaStart="7208/1" mediaDuration="240/1" trackNumber="1" src="6" >
             <Transformer>
              <VectorParam id="2494"  name="translation">
               <InterpolatingParam id="2495" interp="linr"  time="-9999999/1" value="0" leadInLength="0/1"  />
               <InterpolatingParam id="2496" interp="linr"  time="-9999999/1" value="0" leadInLength="0/1"  />
               <InterpolatingParam id="2497" interp="linr"  time="-9999999/1" value="0" leadInLength="0/1"  />
              </VectorParam>
              <VectorParam id="2498"  name="rotation">
               <InterpolatingParam id="2499" interp="linr"  time="-9999999/1" value="0" leadInLength="0/1"  />
               <InterpolatingParam id="2500" interp="linr"  time="-9999999/1" value="0" leadInLength="0/1"  />
               <InterpolatingParam id="2501" interp="linr"  time="-9999999/1" value="0" leadInLength="0/1"  />
              </VectorParam>
              <VectorParam id="2502"  name="shear">
               <InterpolatingParam id="2503" interp="linr"  time="-9999999/1" value="0" leadInLength="0/1"  />
               <InterpolatingParam id="2504" interp="linr"  time="-9999999/1" value="0" leadInLength="0/1"  />
               <InterpolatingParam id="2505" interp="linr"  time="-9999999/1" value="0" leadInLength="0/1"  />
              </VectorParam>
              <VectorParam id="2506"  name="scale">
               <InterpolatingParam id="2507" interp="linr"  time="-9999999/1" value="1" leadInLength="0/1"  />
               <InterpolatingParam id="2508" interp="linr"  time="-9999999/1" value="1" leadInLength="0/1"  />
               <InterpolatingParam id="2509" interp="linr"  time="-9999999/1" value="1" leadInLength="0/1"  />
              </VectorParam>
              <VectorParam id="2510"  name="anchor">
               <InterpolatingParam id="2511" interp="linr"  time="0/1" value="0" leadInLength="0/1"  />
               <InterpolatingParam id="2512" interp="linr"  time="0/1" value="0" leadInLength="0/1"  />
               <InterpolatingParam id="2513" interp="linr"  time="0/1" value="0" leadInLength="0/1"  />
              </VectorParam>
             </Transformer>
             <Parameters>
              <VectorParam id="2514"  name="sourceCrop">
               <InterpolatingParam id="2515" interp="linr"  time="0/1" value="0" leadInLength="0/1"  />
               <InterpolatingParam id="2516" interp="linr"  time="0/1" value="0" leadInLength="0/1"  />
               <InterpolatingParam id="2517" interp="linr"  time="0/1" value="0" leadInLength="0/1"  />
               <InterpolatingParam id="2518" interp="linr"  time="0/1" value="0" leadInLength="0/1"  />
              </VectorParam>
              <VectorParam id="2519"  name="geometryCrop">
               <InterpolatingParam id="2520" interp="linr"  time="-9999999/1" value="0" leadInLength="0/1"  />
               <InterpolatingParam id="2521" interp="linr"  time="-9999999/1" value="0" leadInLength="0/1"  />
               <InterpolatingParam id="2522" interp="linr"  time="-9999999/1" value="0" leadInLength="0/1"  />
               <InterpolatingParam id="2523" interp="linr"  time="-9999999/1" value="0" leadInLength="0/1"  />
              </VectorParam>
              <InterpolatingParam id="2524" interp="linr"  time="-9999999/1" value="1" leadInLength="0/1"  name="opacity"/>
             </Parameters>
             <Attributes>
              <Attribute id="2525" value="" name="ident"/>
             </Attributes>
             <ExtraData>
              <Entry key="ZoomPanBin">
               <ZoomPanBin id="2526"  >
                <ZoomPanKeyframes>
                 <ZoomPanKeyframe id="2527" timeRangeEnd="-9999999/1" timeRangeDuration="0/1" interpolaterName="linr"  />
                </ZoomPanKeyframes>
               </ZoomPanBin>
              </Entry>
             </ExtraData>
            </VMFile>
            <MetaData>
             <entry key="WinSubProjectDisplayName" val=""/>
            </MetaData>
           </UnifiedMedia>
           <UnifiedMedia id="2528"  >
            <AMFile id="2529" start="4851" duration="698" scalar="1/1" mediaStart="9581/1" mediaDuration="698/1" trackNumber="2" src="6" channelNumber="0,1" >
             <Parameters>
              <InterpolatingParam id="2530" interp="linr"  time="0/1" value="1" leadInLength="0/1"  name="volume"/>
              <Parameter id="2531"  name="captions"/>
             </Parameters>
             <Attributes>
              <Attribute id="2532" value="" name="ident"/>
              <Attribute id="2533" value="44100" name="sampleRate"/>
              <Attribute id="2534" value="16" name="bitDepth"/>
              <Attribute id="2535" value="1" name="gain"/>
              <Attribute id="2536" value="0" name="mixToMono"/>
             </Attributes>
            </AMFile>
            <VMFile id="2537" start="4851" duration="698" scalar="1/1" mediaStart="9581/1" mediaDuration="698/1" trackNumber="1" src="6" >
             <Transformer>
              <VectorParam id="2538"  name="translation">
               <InterpolatingParam id="2539" interp="linr"  time="-9999999/1" value="0" leadInLength="0/1"  />
               <InterpolatingParam id="2540" interp="linr"  time="-9999999/1" value="0" leadInLength="0/1"  />
               <InterpolatingParam id="2541" interp="linr"  time="-9999999/1" value="0" leadInLength="0/1"  />
              </VectorParam>
              <VectorParam id="2542"  name="rotation">
               <InterpolatingParam id="2543" interp="linr"  time="-9999999/1" value="0" leadInLength="0/1"  />
               <InterpolatingParam id="2544" interp="linr"  time="-9999999/1" value="0" leadInLength="0/1"  />
               <InterpolatingParam id="2545" interp="linr"  time="-9999999/1" value="0" leadInLength="0/1"  />
              </VectorParam>
              <VectorParam id="2546"  name="shear">
               <InterpolatingParam id="2547" interp="linr"  time="-9999999/1" value="0" leadInLength="0/1"  />
               <InterpolatingParam id="2548" interp="linr"  time="-9999999/1" value="0" leadInLength="0/1"  />
               <InterpolatingParam id="2549" interp="linr"  time="-9999999/1" value="0" leadInLength="0/1"  />
              </VectorParam>
              <VectorParam id="2550"  name="scale">
               <InterpolatingParam id="2551" interp="linr"  time="-9999999/1" value="1" leadInLength="0/1"  />
               <InterpolatingParam id="2552" interp="linr"  time="-9999999/1" value="1" leadInLength="0/1"  />
               <InterpolatingParam id="2553" interp="linr"  time="-9999999/1" value="1" leadInLength="0/1"  />
              </VectorParam>
              <VectorParam id="2554"  name="anchor">
               <InterpolatingParam id="2555" interp="linr"  time="0/1" value="0" leadInLength="0/1"  />
               <InterpolatingParam id="2556" interp="linr"  time="0/1" value="0" leadInLength="0/1"  />
               <InterpolatingParam id="2557" interp="linr"  time="0/1" value="0" leadInLength="0/1"  />
              </VectorParam>
             </Transformer>
             <Parameters>
              <VectorParam id="2558"  name="sourceCrop">
               <InterpolatingParam id="2559" interp="linr"  time="0/1" value="0" leadInLength="0/1"  />
               <InterpolatingParam id="2560" interp="linr"  time="0/1" value="0" leadInLength="0/1"  />
               <InterpolatingParam id="2561" interp="linr"  time="0/1" value="0" leadInLength="0/1"  />
               <InterpolatingParam id="2562" interp="linr"  time="0/1" value="0" leadInLength="0/1"  />
              </VectorParam>
              <VectorParam id="2563"  name="geometryCrop">
               <InterpolatingParam id="2564" interp="linr"  time="-9999999/1" value="0" leadInLength="0/1"  />
               <InterpolatingParam id="2565" interp="linr"  time="-9999999/1" value="0" leadInLength="0/1"  />
               <InterpolatingParam id="2566" interp="linr"  time="-9999999/1" value="0" leadInLength="0/1"  />
               <InterpolatingParam id="2567" interp="linr"  time="-9999999/1" value="0" leadInLength="0/1"  />
              </VectorParam>
              <InterpolatingParam id="2568" interp="linr"  time="-9999999/1" value="1" leadInLength="0/1"  name="opacity"/>
             </Parameters>
             <Attributes>
              <Attribute id="2569" value="" name="ident"/>
             </Attributes>
             <ExtraData>
              <Entry key="ZoomPanBin">
               <ZoomPanBin id="2570"  >
                <ZoomPanKeyframes>
                 <ZoomPanKeyframe id="2571" timeRangeEnd="-9999999/1" timeRangeDuration="0/1" interpolaterName="linr"  />
                </ZoomPanKeyframes>
               </ZoomPanBin>
              </Entry>
             </ExtraData>
            </VMFile>
            <MetaData>
             <entry key="WinSubProjectDisplayName" val=""/>
            </MetaData>
           </UnifiedMedia>
          </Medias>
         </GenericTrack>
        </StitchedMedia>
       </Medias>
      </GenericTrack>
      <GenericTrack id="2572"  >
       <Attributes>
        <Attribute id="2573" value="" name="ident"/>
        <Attribute id="2574" value="0" name="audioMuted"/>
        <Attribute id="2575" value="0" name="videoHidden"/>
       </Attributes>
       <MetaData>
        <entry key="IsLocked" val="False"/>
        <entry key="WinTrackHeight" val="62"/>
       </MetaData>
       <Medias>
       </Medias>
      </GenericTrack>
      <GenericTrack id="2576"  >
       <Attributes>
        <Attribute id="2577" value="" name="ident"/>
        <Attribute id="2578" value="0" name="audioMuted"/>
        <Attribute id="2579" value="0" name="videoHidden"/>
       </Attributes>
       <MetaData>
        <entry key="IsLocked" val="False"/>
        <entry key="WinTrackHeight" val="62"/>
       </MetaData>
       <Medias>
       </Medias>
      </GenericTrack>
     </Tracks>
    </GenericMixer>
   <CaptionAttributes id="2580"  >
    <Attribute id="2581" value="1" name="captionsEnabled"/>
    <Attribute id="2582" value="Arial" name="captionsFontName"/>
    <Attribute id="2583" value="26" name="captionsFontSize"/>
    <Attribute id="2584" value="(0,0,0,255)" name="captionsBackgroundColor"/>
    <Attribute id="2585" value="(255,255,255,255)" name="captionsForegroundColor"/>
    <Attribute id="2586" value="en" name="lang"/>
    <Attribute id="2587" value="0" name="captionsAlignment"/>
    <Attribute id="2588" value="1" name="captionsDefaultFontSize"/>
    <Attribute id="2589" value="0.5" name="captionsOpacity"/>
    <Attribute id="2590" value="1" name="captionsBackgroundEnabled"/>
    <Attribute id="2591" value="1" name="captionsBackgroundOnlyAroundText"/>
   </CaptionAttributes>
   <Parameters>
    <VectorParam id="2592"  name="eyePosition">
     <InterpolatingParam id="2593" interp="linr"  time="0/1" value="0" leadInLength="0/1"  />
     <InterpolatingParam id="2594" interp="linr"  time="0/1" value="0" leadInLength="0/1"  />
     <InterpolatingParam id="2595" interp="linr"  time="0/1" value="3000" leadInLength="0/1"  />
    </VectorParam>
    <VectorParam id="2596"  name="eyeLookAtPosition">
     <InterpolatingParam id="2597" interp="linr"  time="0/1" value="0" leadInLength="0/1"  />
     <InterpolatingParam id="2598" interp="linr"  time="0/1" value="0" leadInLength="0/1"  />
     <InterpolatingParam id="2599" interp="linr"  time="0/1" value="0" leadInLength="0/1"  />
    </VectorParam>
    <VectorParam id="2600"  name="eyeUpVector">
     <InterpolatingParam id="2601" interp="linr"  time="0/1" value="0" leadInLength="0/1"  />
     <InterpolatingParam id="2602" interp="linr"  time="0/1" value="1" leadInLength="0/1"  />
     <InterpolatingParam id="2603" interp="linr"  time="0/1" value="0" leadInLength="0/1"  />
    </VectorParam>
    <InterpolatingParam id="2604" interp="linr"  time="0/1" value="0.23885785" leadInLength="0/1"  name="fov"/>
    <InterpolatingParam id="2605" interp="linr"  time="0/1" value="1.5" leadInLength="0/1"  name="nearClipDistance"/>
    <InterpolatingParam id="2606" interp="linr"  time="0/1" value="6000" leadInLength="0/1"  name="farClipDistance"/>
   </Parameters>
  </Timeline>
 </Project>
</GoProject>
</CSMLData>

</Project_Data>
